<?xml version="1.0" encoding="us-ascii" standalone="no"?><svg xmlns="http://www.w3.org/2000/svg" xmlns:xlink="http://www.w3.org/1999/xlink" contentStyleType="text/css" height="1021px" preserveAspectRatio="none" style="width:744px;height:1021px;" version="1.1" viewBox="0 0 744 1021" width="744px" zoomAndPan="magnify"><defs/><g><rect fill="none" height="1019.6079" style="stroke:#0A9EFD;stroke-width:1.0;" width="742.5" x="0" y="0"/><rect fill="#999999" fill-opacity="0.33333" height="1009.6079" style="stroke:#0A9EFD;stroke-width:0.5;" width="90" x="172.5" y="6"/><text fill="#0A9EFD" font-family="sans-serif" font-size="13" font-weight="bold" lengthAdjust="spacing" textLength="57" x="189" y="19.4951">Your app</text><rect fill="#999999" fill-opacity="0.33333" height="1009.6079" style="stroke:#0A9EFD;stroke-width:0.5;" width="74" x="658.5" y="6"/><text fill="#0A9EFD" font-family="sans-serif" font-size="13" font-weight="bold" lengthAdjust="spacing" textLength="38" x="676.5" y="19.4951">Agora</text><rect fill="#0A9EFD" fill-opacity="0.06667" height="232.5386" style="stroke:#0A9EFD;stroke-width:2.0;" width="728.5" x="10" y="245.8423"/><rect fill="#0A9EFD" fill-opacity="0.06667" height="219.5386" style="stroke:#0A9EFD;stroke-width:2.0;" width="728.5" x="10" y="492.3809"/><line style="stroke:#0A9EFD;stroke-width:0.5;stroke-dasharray:5.0,5.0;" x1="37" x2="37" y1="86.0986" y2="931.5093"/><line style="stroke:#0A9EFD;stroke-width:0.5;stroke-dasharray:5.0,5.0;" x1="217.5" x2="217.5" y1="86.0986" y2="931.5093"/><line style="stroke:#0A9EFD;stroke-width:0.5;stroke-dasharray:5.0,5.0;" x1="695.5" x2="695.5" y1="86.0986" y2="931.5093"/><text fill="#0A9EFD" font-family="Arial" font-size="14" lengthAdjust="spacing" textLength="29" x="20" y="83.1318">User</text><ellipse cx="37.5" cy="16" fill="none" rx="8" ry="8" style="stroke:#0A9EFD;stroke-width:3.0;"/><path d="M37.5,24 L37.5,51 M24.5,32 L50.5,32 M37.5,51 L24.5,66 M37.5,51 L50.5,66 " fill="none" style="stroke:#0A9EFD;stroke-width:3.0;"/><text fill="#0A9EFD" font-family="Arial" font-size="14" lengthAdjust="spacing" textLength="29" x="20" y="943.6411">User</text><ellipse cx="37.5" cy="957.6079" fill="none" rx="8" ry="8" style="stroke:#0A9EFD;stroke-width:3.0;"/><path d="M37.5,965.6079 L37.5,992.6079 M24.5,973.6079 L50.5,973.6079 M37.5,992.6079 L24.5,1007.6079 M37.5,992.6079 L50.5,1007.6079 " fill="none" style="stroke:#0A9EFD;stroke-width:3.0;"/><rect fill="none" height="30.0986" rx="2.5" ry="2.5" style="stroke:#0A9EFD;stroke-width:2.0;" width="82" x="176.5" y="55"/><text fill="#0A9EFD" font-family="Arial" font-size="14" lengthAdjust="spacing" textLength="68" x="183.5" y="75.1318">Video SDK</text><rect fill="none" height="30.0986" rx="2.5" ry="2.5" style="stroke:#0A9EFD;stroke-width:2.0;" width="82" x="176.5" y="930.5093"/><text fill="#0A9EFD" font-family="Arial" font-size="14" lengthAdjust="spacing" textLength="68" x="183.5" y="950.6411">Video SDK</text><rect fill="none" height="30.0986" rx="2.5" ry="2.5" style="stroke:#0A9EFD;stroke-width:2.0;" width="66" x="662.5" y="55"/><text fill="#0A9EFD" font-family="Arial" font-size="14" lengthAdjust="spacing" textLength="52" x="669.5" y="75.1318">SD-RTN</text><rect fill="none" height="30.0986" rx="2.5" ry="2.5" style="stroke:#0A9EFD;stroke-width:2.0;" width="66" x="662.5" y="930.5093"/><text fill="#0A9EFD" font-family="Arial" font-size="14" lengthAdjust="spacing" textLength="52" x="669.5" y="950.6411">SD-RTN</text><polygon fill="#0A9EFD" points="205.5,113.0474,215.5,117.0474,205.5,121.0474,209.5,117.0474" style="stroke:#0A9EFD;stroke-width:1.0;"/><line style="stroke:#0A9EFD;stroke-width:2.0;" x1="37.5" x2="211.5" y1="117.0474" y2="117.0474"/><text fill="#0A9EFD" font-family="Arial" font-size="13" lengthAdjust="spacing" textLength="56" x="99.5" y="112.2925">Open app</text><line style="stroke:#0A9EFD;stroke-width:2.0;" x1="217.5" x2="259.5" y1="160.9448" y2="160.9448"/><line style="stroke:#0A9EFD;stroke-width:2.0;" x1="259.5" x2="259.5" y1="160.9448" y2="173.9448"/><line style="stroke:#0A9EFD;stroke-width:2.0;" x1="218.5" x2="259.5" y1="173.9448" y2="173.9448"/><polygon fill="#0A9EFD" points="228.5,169.9448,218.5,173.9448,228.5,177.9448,224.5,173.9448" style="stroke:#0A9EFD;stroke-width:1.0;"/><text fill="#0A9EFD" font-family="Arial" font-size="13" lengthAdjust="spacing" textLength="174" x="282" y="141.2412">Initiate the Video SDK engine:</text><text fill="#0A9EFD" font-family="Arial" font-size="13" lengthAdjust="spacing" textLength="281" x="232.5" y="156.1899">agoraEngine = AgoraRtcEngineKit.sharedEngine</text><line style="stroke:#0A9EFD;stroke-width:2.0;" x1="217.5" x2="259.5" y1="217.8423" y2="217.8423"/><line style="stroke:#0A9EFD;stroke-width:2.0;" x1="259.5" x2="259.5" y1="217.8423" y2="230.8423"/><line style="stroke:#0A9EFD;stroke-width:2.0;" x1="218.5" x2="259.5" y1="230.8423" y2="230.8423"/><polygon fill="#0A9EFD" points="228.5,226.8423,218.5,230.8423,228.5,234.8423,224.5,230.8423" style="stroke:#0A9EFD;stroke-width:1.0;"/><text fill="#0A9EFD" font-family="Arial" font-size="13" lengthAdjust="spacing" textLength="143" x="234.5" y="198.1387">Start video in the engine:</text><text fill="#0A9EFD" font-family="Arial" font-size="13" lengthAdjust="spacing" textLength="155" x="232.5" y="213.0874">agoraEngine.enableVideo()</text><path d="M10,245.8423 L82,245.8423 L82,252.791 L72,262.791 L10,262.791 L10,245.8423 " fill="#EEEEEE" style="stroke:#0A9EFD;stroke-width:1.5;"/><rect fill="none" height="232.5386" style="stroke:#0A9EFD;stroke-width:2.0;" width="728.5" x="10" y="245.8423"/><text fill="#000000" font-family="Arial" font-size="13" lengthAdjust="spacing" textLength="27" x="25" y="259.0361">Host</text><polygon fill="#0A9EFD" points="205.5,279.7397,215.5,283.7397,205.5,287.7397,209.5,283.7397" style="stroke:#0A9EFD;stroke-width:1.0;"/><line style="stroke:#0A9EFD;stroke-width:2.0;" x1="37.5" x2="211.5" y1="283.7397" y2="283.7397"/><text fill="#0A9EFD" font-family="Arial" font-size="13" lengthAdjust="spacing" textLength="156" x="49.5" y="278.9849">Start a live streaming event</text><line style="stroke:#0A9EFD;stroke-width:2.0;" x1="217.5" x2="259.5" y1="327.6372" y2="327.6372"/><line style="stroke:#0A9EFD;stroke-width:2.0;" x1="259.5" x2="259.5" y1="327.6372" y2="340.6372"/><line style="stroke:#0A9EFD;stroke-width:2.0;" x1="218.5" x2="259.5" y1="340.6372" y2="340.6372"/><polygon fill="#0A9EFD" points="228.5,336.6372,218.5,340.6372,228.5,344.6372,224.5,340.6372" style="stroke:#0A9EFD;stroke-width:1.0;"/><text fill="#0A9EFD" font-family="Arial" font-size="13" lengthAdjust="spacing" textLength="386" x="224.5" y="307.9336">In an live streaming event, only the hosts broadcast to the channel:</text><text fill="#0A9EFD" font-family="Arial" font-size="13" lengthAdjust="spacing" textLength="233" x="303" y="322.8823">agoraEngine.setClientRole(.broadcaster)</text><line style="stroke:#0A9EFD;stroke-width:2.0;" x1="217.5" x2="259.5" y1="384.5347" y2="384.5347"/><line style="stroke:#0A9EFD;stroke-width:2.0;" x1="259.5" x2="259.5" y1="384.5347" y2="397.5347"/><line style="stroke:#0A9EFD;stroke-width:2.0;" x1="218.5" x2="259.5" y1="397.5347" y2="397.5347"/><polygon fill="#0A9EFD" points="228.5,393.5347,218.5,397.5347,228.5,401.5347,224.5,397.5347" style="stroke:#0A9EFD;stroke-width:1.0;"/><text fill="#0A9EFD" font-family="Arial" font-size="13" lengthAdjust="spacing" textLength="96" x="306" y="364.8311">Start local video:</text><text fill="#0A9EFD" font-family="Arial" font-size="13" lengthAdjust="spacing" textLength="251" x="232.5" y="379.7798">agoraEngine.setupLocalVideo(videoCanvas)</text><polygon fill="#0A9EFD" points="683.5,437.4321,693.5,441.4321,683.5,445.4321,687.5,441.4321" style="stroke:#0A9EFD;stroke-width:1.0;"/><line style="stroke:#0A9EFD;stroke-width:2.0;" x1="217.5" x2="689.5" y1="441.4321" y2="441.4321"/><text fill="#0A9EFD" font-family="Arial" font-size="13" lengthAdjust="spacing" textLength="98" x="407.5" y="421.7285">Join the channel:</text><text fill="#0A9EFD" font-family="Arial" font-size="13" lengthAdjust="spacing" textLength="150" x="383.5" y="436.6772">agoraEngine?.joinChannel</text><polygon fill="#0A9EFD" points="683.5,466.3809,693.5,470.3809,683.5,474.3809,687.5,470.3809" style="stroke:#0A9EFD;stroke-width:1.0;"/><line style="stroke:#0A9EFD;stroke-width:2.0;" x1="217.5" x2="689.5" y1="470.3809" y2="470.3809"/><text fill="#0A9EFD" font-family="Arial" font-size="13" lengthAdjust="spacing" textLength="103" x="405" y="465.626">Send data stream</text><path d="M10,492.3809 L109,492.3809 L109,499.3296 L99,509.3296 L10,509.3296 L10,492.3809 " fill="#EEEEEE" style="stroke:#0A9EFD;stroke-width:1.5;"/><rect fill="none" height="219.5386" style="stroke:#0A9EFD;stroke-width:2.0;" width="728.5" x="10" y="492.3809"/><text fill="#000000" font-family="Arial" font-size="13" lengthAdjust="spacing" textLength="54" x="25" y="505.5747">Audience</text><polygon fill="#0A9EFD" points="205.5,526.2783,215.5,530.2783,205.5,534.2783,209.5,530.2783" style="stroke:#0A9EFD;stroke-width:1.0;"/><line style="stroke:#0A9EFD;stroke-width:2.0;" x1="37.5" x2="211.5" y1="530.2783" y2="530.2783"/><text fill="#0A9EFD" font-family="Arial" font-size="13" lengthAdjust="spacing" textLength="140" x="57.5" y="525.5234">Join live streaming event</text><line style="stroke:#0A9EFD;stroke-width:2.0;" x1="217.5" x2="259.5" y1="574.1758" y2="574.1758"/><line style="stroke:#0A9EFD;stroke-width:2.0;" x1="259.5" x2="259.5" y1="574.1758" y2="587.1758"/><line style="stroke:#0A9EFD;stroke-width:2.0;" x1="218.5" x2="259.5" y1="587.1758" y2="587.1758"/><polygon fill="#0A9EFD" points="228.5,583.1758,218.5,587.1758,228.5,591.1758,224.5,587.1758" style="stroke:#0A9EFD;stroke-width:1.0;"/><text fill="#0A9EFD" font-family="Arial" font-size="13" lengthAdjust="spacing" textLength="464" x="224.5" y="554.4722">In an live streaming event, the audience views the stream sent by channel hosts:</text><text fill="#0A9EFD" font-family="Arial" font-size="13" lengthAdjust="spacing" textLength="217" x="350" y="569.4209">agoraEngine.setClientRole(.audience)</text><polygon fill="#0A9EFD" points="683.5,627.0732,693.5,631.0732,683.5,635.0732,687.5,631.0732" style="stroke:#0A9EFD;stroke-width:1.0;"/><line style="stroke:#0A9EFD;stroke-width:2.0;" x1="217.5" x2="689.5" y1="631.0732" y2="631.0732"/><text fill="#0A9EFD" font-family="Arial" font-size="13" lengthAdjust="spacing" textLength="98" x="407.5" y="611.3696">Join the channel:</text><text fill="#0A9EFD" font-family="Arial" font-size="13" lengthAdjust="spacing" textLength="150" x="383.5" y="626.3184">agoraEngine?.joinChannel</text><polygon fill="#0A9EFD" points="683.5,670.9707,693.5,674.9707,683.5,678.9707,687.5,674.9707" style="stroke:#0A9EFD;stroke-width:1.0;"/><line style="stroke:#0A9EFD;stroke-width:2.0;" x1="217.5" x2="689.5" y1="674.9707" y2="674.9707"/><text fill="#0A9EFD" font-family="Arial" font-size="13" lengthAdjust="spacing" textLength="198" x="355.5" y="655.2671">Retrieve streaming from the hosts:</text><text fill="#0A9EFD" font-family="Arial" font-size="13" lengthAdjust="spacing" textLength="265" x="326" y="670.2158">agoraEngine.setupRemoteVideo(videoCanvas)</text><polygon fill="#0A9EFD" points="228.5,699.9194,218.5,703.9194,228.5,707.9194,224.5,703.9194" style="stroke:#0A9EFD;stroke-width:1.0;"/><polygon fill="#0A9EFD" points="683.5,699.9194,693.5,703.9194,683.5,707.9194,687.5,703.9194" style="stroke:#0A9EFD;stroke-width:1.0;"/><line style="stroke:#0A9EFD;stroke-width:2.0;" x1="222.5" x2="689.5" y1="703.9194" y2="703.9194"/><text fill="#0A9EFD" font-family="Arial" font-size="13" lengthAdjust="spacing" textLength="125" x="394" y="699.1646">Receive data streams</text><polygon fill="#0A9EFD" points="205.5,735.8682,215.5,739.8682,205.5,743.8682,209.5,739.8682" style="stroke:#0A9EFD;stroke-width:1.0;"/><line style="stroke:#0A9EFD;stroke-width:2.0;" x1="37.5" x2="211.5" y1="739.8682" y2="739.8682"/><text fill="#0A9EFD" font-family="Arial" font-size="13" lengthAdjust="spacing" textLength="150" x="52.5" y="735.1133">Leave live streaming event</text><polygon fill="#0A9EFD" points="683.5,779.7656,693.5,783.7656,683.5,787.7656,687.5,783.7656" style="stroke:#0A9EFD;stroke-width:1.0;"/><line style="stroke:#0A9EFD;stroke-width:2.0;" x1="217.5" x2="689.5" y1="783.7656" y2="783.7656"/><text fill="#0A9EFD" font-family="Arial" font-size="13" lengthAdjust="spacing" textLength="95" x="409" y="764.062">Stop local video:</text><text fill="#0A9EFD" font-family="Arial" font-size="13" lengthAdjust="spacing" textLength="153" x="382" y="779.0107">agoraEngine.stopPreview()</text><polygon fill="#0A9EFD" points="683.5,823.6631,693.5,827.6631,683.5,831.6631,687.5,827.6631" style="stroke:#0A9EFD;stroke-width:1.0;"/><line style="stroke:#0A9EFD;stroke-width:2.0;" x1="217.5" x2="689.5" y1="827.6631" y2="827.6631"/><text fill="#0A9EFD" font-family="Arial" font-size="13" lengthAdjust="spacing" textLength="108" x="400.5" y="807.9595">Leave the channel:</text><text fill="#0A9EFD" font-family="Arial" font-size="13" lengthAdjust="spacing" textLength="173" x="372" y="822.9082">agoraEngine.leaveChannel(nil)</text><polygon fill="#0A9EFD" points="205.5,852.6118,215.5,856.6118,205.5,860.6118,209.5,856.6118" style="stroke:#0A9EFD;stroke-width:1.0;"/><line style="stroke:#0A9EFD;stroke-width:2.0;" x1="37.5" x2="211.5" y1="856.6118" y2="856.6118"/><text fill="#0A9EFD" font-family="Arial" font-size="13" lengthAdjust="spacing" textLength="58" x="98.5" y="851.8569">Close app</text><line style="stroke:#0A9EFD;stroke-width:2.0;" x1="217.5" x2="259.5" y1="900.5093" y2="900.5093"/><line style="stroke:#0A9EFD;stroke-width:2.0;" x1="259.5" x2="259.5" y1="900.5093" y2="913.5093"/><line style="stroke:#0A9EFD;stroke-width:2.0;" x1="218.5" x2="259.5" y1="913.5093" y2="913.5093"/><polygon fill="#0A9EFD" points="228.5,909.5093,218.5,913.5093,228.5,917.5093,224.5,913.5093" style="stroke:#0A9EFD;stroke-width:1.0;"/><text fill="#0A9EFD" font-family="Arial" font-size="13" lengthAdjust="spacing" textLength="147" x="233.5" y="880.8057">Clean up local resources:</text><text fill="#0A9EFD" font-family="Arial" font-size="13" lengthAdjust="spacing" textLength="165" x="228.5" y="895.7544">AgoraRtcEngineKit.destroy()</text><!--SRC=[hLJRZjCm47ttLmnvQYKs7r1nKPLTYR8hg58MQIKaD4s6rk2E8zifzE_n9Ib96y73ycZxpBdPyWl9bMfh0jnfWr_j3ycvR0zA2AoSDf0zMZ8Pe8N7JId4Ll-2x4ct1h1fCY4QD4vMia5sa7sMDMdOtDv7_7Az5eAu1Z_J3Iw3nkNKvlQc_FIX6raDHhmWtBm9F0lus107IU5NvyqLIoVH4RWzmLaSY7UIQV658OMwYsju3L6-T5NQk9SkjtiqLAVrY7hZl4KuHax9KM2QDYV6hQAeFfiBiJEwRU2TjcxaF_4XA7aaiCuG7YJlW8x4xY8J84_2Ne9cTOfMzfxUmjPeh2kq3foEszKUcKa5YqE7bboXf6SejQ9PVXuZCv_8h7I5AYM_okgPskOX05BUY2gGZsW7LAi5lDTTQTEMtkRVFQ18PwF1JRZz6XrswSDhw4jTjhLFKT6esAZqh5Q3JUoeVMxwQUDMme7r6DYU-Y2f-dyqtBFzfqvASaRIoFetemz_Ni82hlsqJKa7xMZoebRmgc-cf8f2BOFEhKYj3sj-8FIWl_SShi_fvl85ZOpvyxMXqF9it4uI6DPp6Ke5HDVFZAMQZnqMIbkw-Y8AFyNGzgOCMVztLPGgk_uFQlBfzCbx-mq0]--></g></svg>