<?xml version="1.0" encoding="us-ascii" standalone="no"?><svg xmlns="http://www.w3.org/2000/svg" xmlns:xlink="http://www.w3.org/1999/xlink" contentStyleType="text/css" height="1164px" preserveAspectRatio="none" style="width:654px;height:1164px;" version="1.1" viewBox="0 0 654 1164" width="654px" zoomAndPan="magnify"><defs/><g><rect fill="none" height="1162.4028" style="stroke:#0A9EFD;stroke-width:1.0;" width="652.5" x="0" y="0"/><rect fill="#999999" fill-opacity="0.33333" height="1152.4028" style="stroke:#0A9EFD;stroke-width:0.5;" width="90" x="172.5" y="6"/><text fill="#0A9EFD" font-family="sans-serif" font-size="13" font-weight="bold" lengthAdjust="spacing" textLength="57" x="189" y="19.4951">Your app</text><rect fill="#999999" fill-opacity="0.33333" height="1152.4028" style="stroke:#0A9EFD;stroke-width:0.5;" width="74" x="568.5" y="6"/><text fill="#0A9EFD" font-family="sans-serif" font-size="13" font-weight="bold" lengthAdjust="spacing" textLength="38" x="586.5" y="19.4951">Agora</text><rect fill="#0A9EFD" fill-opacity="0.06667" height="361.3335" style="stroke:#0A9EFD;stroke-width:2.0;" width="638.5" x="10" y="245.8423"/><rect fill="#0A9EFD" fill-opacity="0.06667" height="292.3848" style="stroke:#0A9EFD;stroke-width:2.0;" width="638.5" x="10" y="621.1758"/><line style="stroke:#0A9EFD;stroke-width:0.5;stroke-dasharray:5.0,5.0;" x1="37" x2="37" y1="86.0986" y2="1074.3042"/><line style="stroke:#0A9EFD;stroke-width:0.5;stroke-dasharray:5.0,5.0;" x1="217.5" x2="217.5" y1="86.0986" y2="1074.3042"/><line style="stroke:#0A9EFD;stroke-width:0.5;stroke-dasharray:5.0,5.0;" x1="605.5" x2="605.5" y1="86.0986" y2="1074.3042"/><text fill="#0A9EFD" font-family="Arial" font-size="14" lengthAdjust="spacing" textLength="29" x="20" y="83.1318">User</text><ellipse cx="37.5" cy="16" fill="none" rx="8" ry="8" style="stroke:#0A9EFD;stroke-width:3.0;"/><path d="M37.5,24 L37.5,51 M24.5,32 L50.5,32 M37.5,51 L24.5,66 M37.5,51 L50.5,66 " fill="none" style="stroke:#0A9EFD;stroke-width:3.0;"/><text fill="#0A9EFD" font-family="Arial" font-size="14" lengthAdjust="spacing" textLength="29" x="20" y="1086.436">User</text><ellipse cx="37.5" cy="1100.4028" fill="none" rx="8" ry="8" style="stroke:#0A9EFD;stroke-width:3.0;"/><path d="M37.5,1108.4028 L37.5,1135.4028 M24.5,1116.4028 L50.5,1116.4028 M37.5,1135.4028 L24.5,1150.4028 M37.5,1135.4028 L50.5,1150.4028 " fill="none" style="stroke:#0A9EFD;stroke-width:3.0;"/><rect fill="none" height="30.0986" rx="2.5" ry="2.5" style="stroke:#0A9EFD;stroke-width:2.0;" width="82" x="176.5" y="55"/><text fill="#0A9EFD" font-family="Arial" font-size="14" lengthAdjust="spacing" textLength="68" x="183.5" y="75.1318">Video SDK</text><rect fill="none" height="30.0986" rx="2.5" ry="2.5" style="stroke:#0A9EFD;stroke-width:2.0;" width="82" x="176.5" y="1073.3042"/><text fill="#0A9EFD" font-family="Arial" font-size="14" lengthAdjust="spacing" textLength="68" x="183.5" y="1093.436">Video SDK</text><rect fill="none" height="30.0986" rx="2.5" ry="2.5" style="stroke:#0A9EFD;stroke-width:2.0;" width="66" x="572.5" y="55"/><text fill="#0A9EFD" font-family="Arial" font-size="14" lengthAdjust="spacing" textLength="52" x="579.5" y="75.1318">SD-RTN</text><rect fill="none" height="30.0986" rx="2.5" ry="2.5" style="stroke:#0A9EFD;stroke-width:2.0;" width="66" x="572.5" y="1073.3042"/><text fill="#0A9EFD" font-family="Arial" font-size="14" lengthAdjust="spacing" textLength="52" x="579.5" y="1093.436">SD-RTN</text><polygon fill="#0A9EFD" points="205.5,113.0474,215.5,117.0474,205.5,121.0474,209.5,117.0474" style="stroke:#0A9EFD;stroke-width:1.0;"/><line style="stroke:#0A9EFD;stroke-width:2.0;" x1="37.5" x2="211.5" y1="117.0474" y2="117.0474"/><text fill="#0A9EFD" font-family="Arial" font-size="13" lengthAdjust="spacing" textLength="58" x="98.5" y="112.2925">Open App</text><line style="stroke:#0A9EFD;stroke-width:2.0;" x1="217.5" x2="259.5" y1="160.9448" y2="160.9448"/><line style="stroke:#0A9EFD;stroke-width:2.0;" x1="259.5" x2="259.5" y1="160.9448" y2="173.9448"/><line style="stroke:#0A9EFD;stroke-width:2.0;" x1="218.5" x2="259.5" y1="173.9448" y2="173.9448"/><polygon fill="#0A9EFD" points="228.5,169.9448,218.5,173.9448,228.5,177.9448,224.5,173.9448" style="stroke:#0A9EFD;stroke-width:1.0;"/><text fill="#0A9EFD" font-family="Arial" font-size="13" lengthAdjust="spacing" textLength="208" x="224.5" y="141.2412">Initiate the Agora Video SDK engine</text><text fill="#0A9EFD" font-family="Arial" font-size="13" lengthAdjust="spacing" textLength="188" x="236.5" y="156.1899">agoraEngine = RtcEngine.create</text><line style="stroke:#0A9EFD;stroke-width:2.0;" x1="217.5" x2="259.5" y1="217.8423" y2="217.8423"/><line style="stroke:#0A9EFD;stroke-width:2.0;" x1="259.5" x2="259.5" y1="217.8423" y2="230.8423"/><line style="stroke:#0A9EFD;stroke-width:2.0;" x1="218.5" x2="259.5" y1="230.8423" y2="230.8423"/><polygon fill="#0A9EFD" points="228.5,226.8423,218.5,230.8423,228.5,234.8423,224.5,230.8423" style="stroke:#0A9EFD;stroke-width:1.0;"/><text fill="#0A9EFD" font-family="Arial" font-size="13" lengthAdjust="spacing" textLength="145" x="227.5" y="198.1387">Enable the video module:</text><text fill="#0A9EFD" font-family="Arial" font-size="13" lengthAdjust="spacing" textLength="147" x="228.5" y="213.0874">agoraEngine.enableVideo</text><path d="M10,245.8423 L82,245.8423 L82,252.791 L72,262.791 L10,262.791 L10,245.8423 " fill="#EEEEEE" style="stroke:#0A9EFD;stroke-width:1.5;"/><rect fill="none" height="361.3335" style="stroke:#0A9EFD;stroke-width:2.0;" width="638.5" x="10" y="245.8423"/><text fill="#000000" font-family="Arial" font-size="13" lengthAdjust="spacing" textLength="27" x="25" y="259.0361">Host</text><polygon fill="#0A9EFD" points="205.5,279.7397,215.5,283.7397,205.5,287.7397,209.5,283.7397" style="stroke:#0A9EFD;stroke-width:1.0;"/><line style="stroke:#0A9EFD;stroke-width:2.0;" x1="37.5" x2="211.5" y1="283.7397" y2="283.7397"/><text fill="#0A9EFD" font-family="Arial" font-size="13" lengthAdjust="spacing" textLength="156" x="49.5" y="278.9849">Start a live streaming event</text><line style="stroke:#0A9EFD;stroke-width:2.0;" x1="217.5" x2="259.5" y1="312.6885" y2="312.6885"/><line style="stroke:#0A9EFD;stroke-width:2.0;" x1="259.5" x2="259.5" y1="312.6885" y2="325.6885"/><line style="stroke:#0A9EFD;stroke-width:2.0;" x1="218.5" x2="259.5" y1="325.6885" y2="325.6885"/><polygon fill="#0A9EFD" points="228.5,321.6885,218.5,325.6885,228.5,329.6885,224.5,325.6885" style="stroke:#0A9EFD;stroke-width:1.0;"/><text fill="#0A9EFD" font-family="Arial" font-size="13" lengthAdjust="spacing" textLength="255" x="224.5" y="307.9336">Retrieve authentication token to join channel</text><line style="stroke:#0A9EFD;stroke-width:2.0;" x1="217.5" x2="259.5" y1="369.5859" y2="369.5859"/><line style="stroke:#0A9EFD;stroke-width:2.0;" x1="259.5" x2="259.5" y1="369.5859" y2="382.5859"/><line style="stroke:#0A9EFD;stroke-width:2.0;" x1="218.5" x2="259.5" y1="382.5859" y2="382.5859"/><polygon fill="#0A9EFD" points="228.5,378.5859,218.5,382.5859,228.5,386.5859,224.5,382.5859" style="stroke:#0A9EFD;stroke-width:1.0;"/><text fill="#0A9EFD" font-family="Arial" font-size="13" lengthAdjust="spacing" textLength="212" x="305.5" y="349.8823">Enable live streaming in the channel:</text><text fill="#0A9EFD" font-family="Arial" font-size="13" lengthAdjust="spacing" textLength="370" x="228.5" y="364.8311">agoraEngine.setChannelProfile(ChannelProfile.LiveBroadcasting)</text><polygon fill="#0A9EFD" points="593.5,422.4834,603.5,426.4834,593.5,430.4834,597.5,426.4834" style="stroke:#0A9EFD;stroke-width:1.0;"/><line style="stroke:#0A9EFD;stroke-width:2.0;" x1="217.5" x2="599.5" y1="426.4834" y2="426.4834"/><text fill="#0A9EFD" font-family="Arial" font-size="13" lengthAdjust="spacing" textLength="118" x="352.5" y="406.7798">Set the role as host:</text><text fill="#0A9EFD" font-family="Arial" font-size="13" lengthAdjust="spacing" textLength="294" x="268.5" y="421.7285">agoraEngine.setClientRole(ClientRole.Broadcaster)</text><polygon fill="#0A9EFD" points="593.5,466.3809,603.5,470.3809,593.5,474.3809,597.5,470.3809" style="stroke:#0A9EFD;stroke-width:1.0;"/><line style="stroke:#0A9EFD;stroke-width:2.0;" x1="217.5" x2="599.5" y1="470.3809" y2="470.3809"/><text fill="#0A9EFD" font-family="Arial" font-size="13" lengthAdjust="spacing" textLength="134" x="342.5" y="450.6772">Join a channel as host:</text><text fill="#0A9EFD" font-family="Arial" font-size="13" lengthAdjust="spacing" textLength="143" x="340" y="465.626">agoraEngine.joinChannel</text><polygon fill="#0A9EFD" points="228.5,495.3296,218.5,499.3296,228.5,503.3296,224.5,499.3296" style="stroke:#0A9EFD;stroke-width:1.0;"/><line style="stroke:#0A9EFD;stroke-width:2.0;" x1="222.5" x2="604.5" y1="499.3296" y2="499.3296"/><text fill="#0A9EFD" font-family="Arial" font-size="13" lengthAdjust="spacing" textLength="146" x="338.5" y="494.5747">on "joinChannelSuccess"</text><polygon fill="#0A9EFD" points="593.5,524.2783,603.5,528.2783,593.5,532.2783,597.5,528.2783" style="stroke:#0A9EFD;stroke-width:1.0;"/><line style="stroke:#0A9EFD;stroke-width:2.0;" x1="217.5" x2="599.5" y1="528.2783" y2="528.2783"/><text fill="#0A9EFD" font-family="Arial" font-size="13" lengthAdjust="spacing" textLength="43" x="390" y="523.5234">Publish</text><polygon fill="#0A9EFD" points="593.5,553.2271,603.5,557.2271,593.5,561.2271,597.5,557.2271" style="stroke:#0A9EFD;stroke-width:1.0;"/><line style="stroke:#0A9EFD;stroke-width:2.0;" x1="217.5" x2="599.5" y1="557.2271" y2="557.2271"/><text fill="#0A9EFD" font-family="Arial" font-size="13" lengthAdjust="spacing" textLength="103" x="360" y="552.4722">Send data stream</text><line style="stroke:#0A9EFD;stroke-width:2.0;" x1="217.5" x2="259.5" y1="586.1758" y2="586.1758"/><line style="stroke:#0A9EFD;stroke-width:2.0;" x1="259.5" x2="259.5" y1="586.1758" y2="599.1758"/><line style="stroke:#0A9EFD;stroke-width:2.0;" x1="218.5" x2="259.5" y1="599.1758" y2="599.1758"/><polygon fill="#0A9EFD" points="228.5,595.1758,218.5,599.1758,228.5,603.1758,224.5,599.1758" style="stroke:#0A9EFD;stroke-width:1.0;"/><text fill="#0A9EFD" font-family="Arial" font-size="13" lengthAdjust="spacing" textLength="220" x="224.5" y="581.4209">Widget = RtcLocalView.SurfaceView()</text><path d="M10,621.1758 L109,621.1758 L109,628.1245 L99,638.1245 L10,638.1245 L10,621.1758 " fill="#EEEEEE" style="stroke:#0A9EFD;stroke-width:1.5;"/><rect fill="none" height="292.3848" style="stroke:#0A9EFD;stroke-width:2.0;" width="638.5" x="10" y="621.1758"/><text fill="#000000" font-family="Arial" font-size="13" lengthAdjust="spacing" textLength="54" x="25" y="634.3696">Audience</text><polygon fill="#0A9EFD" points="205.5,655.0732,215.5,659.0732,205.5,663.0732,209.5,659.0732" style="stroke:#0A9EFD;stroke-width:1.0;"/><line style="stroke:#0A9EFD;stroke-width:2.0;" x1="37.5" x2="211.5" y1="659.0732" y2="659.0732"/><text fill="#0A9EFD" font-family="Arial" font-size="13" lengthAdjust="spacing" textLength="151" x="52" y="654.3184">Join a live streaming event</text><line style="stroke:#0A9EFD;stroke-width:2.0;" x1="217.5" x2="259.5" y1="688.022" y2="688.022"/><line style="stroke:#0A9EFD;stroke-width:2.0;" x1="259.5" x2="259.5" y1="688.022" y2="701.022"/><line style="stroke:#0A9EFD;stroke-width:2.0;" x1="218.5" x2="259.5" y1="701.022" y2="701.022"/><polygon fill="#0A9EFD" points="228.5,697.022,218.5,701.022,228.5,705.022,224.5,701.022" style="stroke:#0A9EFD;stroke-width:1.0;"/><text fill="#0A9EFD" font-family="Arial" font-size="13" lengthAdjust="spacing" textLength="255" x="224.5" y="683.2671">Retrieve authentication token to join channel</text><polygon fill="#0A9EFD" points="593.5,740.9194,603.5,744.9194,593.5,748.9194,597.5,744.9194" style="stroke:#0A9EFD;stroke-width:1.0;"/><line style="stroke:#0A9EFD;stroke-width:2.0;" x1="217.5" x2="599.5" y1="744.9194" y2="744.9194"/><text fill="#0A9EFD" font-family="Arial" font-size="13" lengthAdjust="spacing" textLength="174" x="322.5" y="725.2158">Set the user role as audience:</text><text fill="#0A9EFD" font-family="Arial" font-size="13" lengthAdjust="spacing" textLength="278" x="274.5" y="740.1646">agoraEngine.setClientRole(ClientRole.Audience)</text><polygon fill="#0A9EFD" points="593.5,784.8169,603.5,788.8169,593.5,792.8169,597.5,788.8169" style="stroke:#0A9EFD;stroke-width:1.0;"/><line style="stroke:#0A9EFD;stroke-width:2.0;" x1="217.5" x2="599.5" y1="788.8169" y2="788.8169"/><text fill="#0A9EFD" font-family="Arial" font-size="13" lengthAdjust="spacing" textLength="98" x="360.5" y="769.1133">Join the channel:</text><text fill="#0A9EFD" font-family="Arial" font-size="13" lengthAdjust="spacing" textLength="143" x="342" y="784.062">agoraEngine.joinChannel</text><polygon fill="#0A9EFD" points="228.5,813.7656,218.5,817.7656,228.5,821.7656,224.5,817.7656" style="stroke:#0A9EFD;stroke-width:1.0;"/><line style="stroke:#0A9EFD;stroke-width:2.0;" x1="222.5" x2="604.5" y1="817.7656" y2="817.7656"/><text fill="#0A9EFD" font-family="Arial" font-size="13" lengthAdjust="spacing" textLength="146" x="338.5" y="813.0107">on "joinChannelSuccess"</text><polygon fill="#0A9EFD" points="593.5,857.6631,603.5,861.6631,593.5,865.6631,597.5,861.6631" style="stroke:#0A9EFD;stroke-width:1.0;"/><line style="stroke:#0A9EFD;stroke-width:2.0;" x1="217.5" x2="599.5" y1="861.6631" y2="861.6631"/><text fill="#0A9EFD" font-family="Arial" font-size="13" lengthAdjust="spacing" textLength="198" x="310.5" y="841.9595">Retrieve streaming from the hosts:</text><text fill="#0A9EFD" font-family="Arial" font-size="13" lengthAdjust="spacing" textLength="90" x="368.5" y="856.9082">on "userJoined"</text><polygon fill="#0A9EFD" points="228.5,901.5605,218.5,905.5605,228.5,909.5605,224.5,905.5605" style="stroke:#0A9EFD;stroke-width:1.0;"/><line style="stroke:#0A9EFD;stroke-width:2.0;" x1="222.5" x2="604.5" y1="905.5605" y2="905.5605"/><text fill="#0A9EFD" font-family="Arial" font-size="13" lengthAdjust="spacing" textLength="118" x="352.5" y="885.8569">Receive data stream</text><text fill="#0A9EFD" font-family="Arial" font-size="13" lengthAdjust="spacing" textLength="234" x="296.5" y="900.8057">Widget = RtcRemoteView.SurfaceView()</text><polygon fill="#0A9EFD" points="205.5,937.5093,215.5,941.5093,205.5,945.5093,209.5,941.5093" style="stroke:#0A9EFD;stroke-width:1.0;"/><line style="stroke:#0A9EFD;stroke-width:2.0;" x1="37.5" x2="211.5" y1="941.5093" y2="941.5093"/><text fill="#0A9EFD" font-family="Arial" font-size="13" lengthAdjust="spacing" textLength="94" x="80.5" y="936.7544">Leave broadcast</text><polygon fill="#0A9EFD" points="593.5,966.458,603.5,970.458,593.5,974.458,597.5,970.458" style="stroke:#0A9EFD;stroke-width:1.0;"/><line style="stroke:#0A9EFD;stroke-width:2.0;" x1="217.5" x2="599.5" y1="970.458" y2="970.458"/><text fill="#0A9EFD" font-family="Arial" font-size="13" lengthAdjust="spacing" textLength="160" x="331.5" y="965.7031">agoraEngine.leaveChannel()</text><polygon fill="#0A9EFD" points="205.5,995.4067,215.5,999.4067,205.5,1003.4067,209.5,999.4067" style="stroke:#0A9EFD;stroke-width:1.0;"/><line style="stroke:#0A9EFD;stroke-width:2.0;" x1="37.5" x2="211.5" y1="999.4067" y2="999.4067"/><text fill="#0A9EFD" font-family="Arial" font-size="13" lengthAdjust="spacing" textLength="58" x="98.5" y="994.6519">Close app</text><line style="stroke:#0A9EFD;stroke-width:2.0;" x1="217.5" x2="259.5" y1="1043.3042" y2="1043.3042"/><line style="stroke:#0A9EFD;stroke-width:2.0;" x1="259.5" x2="259.5" y1="1043.3042" y2="1056.3042"/><line style="stroke:#0A9EFD;stroke-width:2.0;" x1="218.5" x2="259.5" y1="1056.3042" y2="1056.3042"/><polygon fill="#0A9EFD" points="228.5,1052.3042,218.5,1056.3042,228.5,1060.3042,224.5,1056.3042" style="stroke:#0A9EFD;stroke-width:1.0;"/><text fill="#0A9EFD" font-family="Arial" font-size="13" lengthAdjust="spacing" textLength="143" x="224.5" y="1023.6006">Clean up local resources</text><text fill="#0A9EFD" font-family="Arial" font-size="13" lengthAdjust="spacing" textLength="127" x="236.5" y="1038.5493">agoraEngine.destroy()</text><!--SRC=[jLHTQzmm47pthzZwANc8Vq2WXUibq4kFzh2Rb48WxCbxFZMoPFHnRVzzLpwVpt9JA9Iy6CdMpkpChFL6Qg52JO2DiVZadgKkP6XLbg7mna9-xyZcW0xkgpBBjkOdvDzCi81TbsSTMY-5x51xo1zaJGQgcu_zySLcav6kWIk6iaLacDLKDrVbbqz3mUfSm6HmzIw2NCFdZZGikYxZtVXofQMNw0dydg17Xf4VI3TIqwC-YhhjT_0MIY-Ewq9Ouje4y5RZLXtX3ZrGQ-gWw3f5AQW_rbDbMMDDwE23SJxjkFAi4H2KF10upsIjr0tGWRHFI4loLl9hmC34cdr1Buq6RvufFk6xaHh47hKczLAxCmO-70KC1VFU7VdbySl6cfrKT95kYpMZlRS6Qu7ECzxbcNB5giZtwDOmCGUsPzsHuWyE9LbAQIB-k2n6NB8fx5sKYAUUHs1ur5FSQCHoz64r-i1cvPDlLH22dCkpX68Jjagw_KmDprgD7WVx4dU_ohfXjVt8h8r0zI3fHr45kqD1SNrn6MVrD06BKBDEGSaG3BfUQmOcWGJ-HSTKSEWb6lXloPowVo6MwJ3DyVuhaL7qsPcTDMrF6EDtFLs4Yk9YBrJd2Kr9WgAramYvOXfSIQtnzBVafb6j2HbfUvhGfDEfP1NF3ReO9y5OAkCetef9k4ikqS0Zek8KWIN7ToVxCVzjQc89vXU3_WO0]--></g></svg>