<?xml version="1.0" encoding="us-ascii" standalone="no"?><svg xmlns="http://www.w3.org/2000/svg" xmlns:xlink="http://www.w3.org/1999/xlink" contentStyleType="text/css" height="1250px" preserveAspectRatio="none" style="width:881px;height:1250px;" version="1.1" viewBox="0 0 881 1250" width="881px" zoomAndPan="magnify"><defs/><g><rect fill="none" height="1248.1978" style="stroke:#0A9EFD;stroke-width:1.0;" width="879.5" x="0" y="0"/><rect fill="#999999" fill-opacity="0.33333" height="1238.1978" style="stroke:#0A9EFD;stroke-width:0.5;" width="90" x="188.5" y="6"/><text fill="#0A9EFD" font-family="sans-serif" font-size="13" font-weight="bold" lengthAdjust="spacing" textLength="69" x="199" y="19.4951">Your game</text><rect fill="#999999" fill-opacity="0.33333" height="1238.1978" style="stroke:#0A9EFD;stroke-width:0.5;" width="74" x="795.5" y="6"/><text fill="#0A9EFD" font-family="sans-serif" font-size="13" font-weight="bold" lengthAdjust="spacing" textLength="38" x="813.5" y="19.4951">Agora</text><rect fill="#0A9EFD" fill-opacity="0.06667" height="261.4873" style="stroke:#0A9EFD;stroke-width:2.0;" width="865.5" x="10" y="287.791"/><rect fill="#0A9EFD" fill-opacity="0.06667" height="307.3335" style="stroke:#0A9EFD;stroke-width:2.0;" width="865.5" x="10" y="563.2783"/><line style="stroke:#0A9EFD;stroke-width:0.5;stroke-dasharray:5.0,5.0;" x1="37" x2="37" y1="86.0986" y2="1160.0991"/><line style="stroke:#0A9EFD;stroke-width:0.5;stroke-dasharray:5.0,5.0;" x1="233.5" x2="233.5" y1="86.0986" y2="1160.0991"/><line style="stroke:#0A9EFD;stroke-width:0.5;stroke-dasharray:5.0,5.0;" x1="832.5" x2="832.5" y1="86.0986" y2="1160.0991"/><text fill="#0A9EFD" font-family="Arial" font-size="14" lengthAdjust="spacing" textLength="29" x="20" y="83.1318">User</text><ellipse cx="37.5" cy="16" fill="none" rx="8" ry="8" style="stroke:#0A9EFD;stroke-width:3.0;"/><path d="M37.5,24 L37.5,51 M24.5,32 L50.5,32 M37.5,51 L24.5,66 M37.5,51 L50.5,66 " fill="none" style="stroke:#0A9EFD;stroke-width:3.0;"/><text fill="#0A9EFD" font-family="Arial" font-size="14" lengthAdjust="spacing" textLength="29" x="20" y="1172.231">User</text><ellipse cx="37.5" cy="1186.1978" fill="none" rx="8" ry="8" style="stroke:#0A9EFD;stroke-width:3.0;"/><path d="M37.5,1194.1978 L37.5,1221.1978 M24.5,1202.1978 L50.5,1202.1978 M37.5,1221.1978 L24.5,1236.1978 M37.5,1221.1978 L50.5,1236.1978 " fill="none" style="stroke:#0A9EFD;stroke-width:3.0;"/><rect fill="none" height="30.0986" rx="2.5" ry="2.5" style="stroke:#0A9EFD;stroke-width:2.0;" width="82" x="192.5" y="55"/><text fill="#0A9EFD" font-family="Arial" font-size="14" lengthAdjust="spacing" textLength="68" x="199.5" y="75.1318">Video SDK</text><rect fill="none" height="30.0986" rx="2.5" ry="2.5" style="stroke:#0A9EFD;stroke-width:2.0;" width="82" x="192.5" y="1159.0991"/><text fill="#0A9EFD" font-family="Arial" font-size="14" lengthAdjust="spacing" textLength="68" x="199.5" y="1179.231">Video SDK</text><rect fill="none" height="30.0986" rx="2.5" ry="2.5" style="stroke:#0A9EFD;stroke-width:2.0;" width="66" x="799.5" y="55"/><text fill="#0A9EFD" font-family="Arial" font-size="14" lengthAdjust="spacing" textLength="52" x="806.5" y="75.1318">SD-RTN</text><rect fill="none" height="30.0986" rx="2.5" ry="2.5" style="stroke:#0A9EFD;stroke-width:2.0;" width="66" x="799.5" y="1159.0991"/><text fill="#0A9EFD" font-family="Arial" font-size="14" lengthAdjust="spacing" textLength="52" x="806.5" y="1179.231">SD-RTN</text><polygon fill="#0A9EFD" points="221.5,113.0474,231.5,117.0474,221.5,121.0474,225.5,117.0474" style="stroke:#0A9EFD;stroke-width:1.0;"/><line style="stroke:#0A9EFD;stroke-width:2.0;" x1="37.5" x2="227.5" y1="117.0474" y2="117.0474"/><text fill="#0A9EFD" font-family="Arial" font-size="13" lengthAdjust="spacing" textLength="67" x="102" y="112.2925">Open game</text><line style="stroke:#0A9EFD;stroke-width:2.0;" x1="233.5" x2="275.5" y1="160.9448" y2="160.9448"/><line style="stroke:#0A9EFD;stroke-width:2.0;" x1="275.5" x2="275.5" y1="160.9448" y2="173.9448"/><line style="stroke:#0A9EFD;stroke-width:2.0;" x1="234.5" x2="275.5" y1="173.9448" y2="173.9448"/><polygon fill="#0A9EFD" points="244.5,169.9448,234.5,173.9448,244.5,177.9448,240.5,173.9448" style="stroke:#0A9EFD;stroke-width:1.0;"/><text fill="#0A9EFD" font-family="Arial" font-size="13" lengthAdjust="spacing" textLength="212" x="242.5" y="141.2412">Initiate the Agora Video SDK engine:</text><text fill="#0A9EFD" font-family="Arial" font-size="13" lengthAdjust="spacing" textLength="216" x="244.5" y="156.1899">agoraEngine=IRtcEngine.GetEngine()</text><line style="stroke:#0A9EFD;stroke-width:2.0;" x1="233.5" x2="275.5" y1="217.8423" y2="217.8423"/><line style="stroke:#0A9EFD;stroke-width:2.0;" x1="275.5" x2="275.5" y1="217.8423" y2="230.8423"/><line style="stroke:#0A9EFD;stroke-width:2.0;" x1="234.5" x2="275.5" y1="230.8423" y2="230.8423"/><polygon fill="#0A9EFD" points="244.5,226.8423,234.5,230.8423,244.5,234.8423,240.5,230.8423" style="stroke:#0A9EFD;stroke-width:1.0;"/><text fill="#0A9EFD" font-family="Arial" font-size="13" lengthAdjust="spacing" textLength="168" x="240.5" y="198.1387">Setup the local video stream:</text><text fill="#0A9EFD" font-family="Arial" font-size="13" lengthAdjust="spacing" textLength="157" x="250" y="213.0874">agoraEngine.EnableVideo()</text><line style="stroke:#0A9EFD;stroke-width:2.0;" x1="233.5" x2="275.5" y1="259.791" y2="259.791"/><line style="stroke:#0A9EFD;stroke-width:2.0;" x1="275.5" x2="275.5" y1="259.791" y2="272.791"/><line style="stroke:#0A9EFD;stroke-width:2.0;" x1="234.5" x2="275.5" y1="272.791" y2="272.791"/><polygon fill="#0A9EFD" points="244.5,268.791,234.5,272.791,244.5,276.791,240.5,272.791" style="stroke:#0A9EFD;stroke-width:1.0;"/><text fill="#0A9EFD" font-family="Arial" font-size="13" lengthAdjust="spacing" textLength="208" x="240.5" y="255.0361">agoraEngine.EnableVideoObserver()</text><path d="M10,287.791 L82,287.791 L82,294.7397 L72,304.7397 L10,304.7397 L10,287.791 " fill="#EEEEEE" style="stroke:#0A9EFD;stroke-width:1.5;"/><rect fill="none" height="261.4873" style="stroke:#0A9EFD;stroke-width:2.0;" width="865.5" x="10" y="287.791"/><text fill="#000000" font-family="Arial" font-size="13" lengthAdjust="spacing" textLength="27" x="25" y="300.9849">Host</text><polygon fill="#0A9EFD" points="221.5,321.6885,231.5,325.6885,221.5,329.6885,225.5,325.6885" style="stroke:#0A9EFD;stroke-width:1.0;"/><line style="stroke:#0A9EFD;stroke-width:2.0;" x1="37.5" x2="227.5" y1="325.6885" y2="325.6885"/><text fill="#0A9EFD" font-family="Arial" font-size="13" lengthAdjust="spacing" textLength="156" x="57.5" y="320.9336">Start a live streaming event</text><line style="stroke:#0A9EFD;stroke-width:2.0;" x1="233.5" x2="275.5" y1="354.6372" y2="354.6372"/><line style="stroke:#0A9EFD;stroke-width:2.0;" x1="275.5" x2="275.5" y1="354.6372" y2="367.6372"/><line style="stroke:#0A9EFD;stroke-width:2.0;" x1="234.5" x2="275.5" y1="367.6372" y2="367.6372"/><polygon fill="#0A9EFD" points="244.5,363.6372,234.5,367.6372,244.5,371.6372,240.5,367.6372" style="stroke:#0A9EFD;stroke-width:1.0;"/><text fill="#0A9EFD" font-family="Arial" font-size="13" lengthAdjust="spacing" textLength="255" x="240.5" y="349.8823">Retrieve authentication token to join channel</text><line style="stroke:#0A9EFD;stroke-width:2.0;" x1="233.5" x2="275.5" y1="411.5347" y2="411.5347"/><line style="stroke:#0A9EFD;stroke-width:2.0;" x1="275.5" x2="275.5" y1="411.5347" y2="424.5347"/><line style="stroke:#0A9EFD;stroke-width:2.0;" x1="234.5" x2="275.5" y1="424.5347" y2="424.5347"/><polygon fill="#0A9EFD" points="244.5,420.5347,234.5,424.5347,244.5,428.5347,240.5,424.5347" style="stroke:#0A9EFD;stroke-width:1.0;"/><text fill="#0A9EFD" font-family="Arial" font-size="13" lengthAdjust="spacing" textLength="212" x="425" y="391.8311">Enable live streaming in the channel:</text><text fill="#0A9EFD" font-family="Arial" font-size="13" lengthAdjust="spacing" textLength="581" x="244.5" y="406.7798">agoraEngine.SetChannelProfile(CHANNEL_PROFILE.CHANNEL_PROFILE_LIVE_BROADCASTING)</text><polygon fill="#0A9EFD" points="820.5,464.4321,830.5,468.4321,820.5,472.4321,824.5,468.4321" style="stroke:#0A9EFD;stroke-width:1.0;"/><line style="stroke:#0A9EFD;stroke-width:2.0;" x1="233.5" x2="826.5" y1="468.4321" y2="468.4321"/><text fill="#0A9EFD" font-family="Arial" font-size="13" lengthAdjust="spacing" textLength="147" x="457.5" y="448.7285">Set the user role as host:</text><text fill="#0A9EFD" font-family="Arial" font-size="13" lengthAdjust="spacing" textLength="485" x="292.5" y="463.6772">agoraEngine.SetClientRole(CLIENT_ROLE_TYPE.CLIENT_ROLE_BROADCASTER)</text><polygon fill="#0A9EFD" points="820.5,508.3296,830.5,512.3296,820.5,516.3296,824.5,512.3296" style="stroke:#0A9EFD;stroke-width:1.0;"/><line style="stroke:#0A9EFD;stroke-width:2.0;" x1="233.5" x2="826.5" y1="512.3296" y2="512.3296"/><text fill="#0A9EFD" font-family="Arial" font-size="13" lengthAdjust="spacing" textLength="134" x="464" y="492.626">Join a channel as host:</text><text fill="#0A9EFD" font-family="Arial" font-size="13" lengthAdjust="spacing" textLength="193" x="438.5" y="507.5747">agoraEngine.JoinChannelByKey()</text><polygon fill="#0A9EFD" points="820.5,537.2783,830.5,541.2783,820.5,545.2783,824.5,541.2783" style="stroke:#0A9EFD;stroke-width:1.0;"/><line style="stroke:#0A9EFD;stroke-width:2.0;" x1="233.5" x2="826.5" y1="541.2783" y2="541.2783"/><text fill="#0A9EFD" font-family="Arial" font-size="13" lengthAdjust="spacing" textLength="103" x="481.5" y="536.5234">Send data stream</text><path d="M10,563.2783 L109,563.2783 L109,570.2271 L99,580.2271 L10,580.2271 L10,563.2783 " fill="#EEEEEE" style="stroke:#0A9EFD;stroke-width:1.5;"/><rect fill="none" height="307.3335" style="stroke:#0A9EFD;stroke-width:2.0;" width="865.5" x="10" y="563.2783"/><text fill="#000000" font-family="Arial" font-size="13" lengthAdjust="spacing" textLength="54" x="25" y="576.4722">Audience</text><polygon fill="#0A9EFD" points="221.5,597.1758,231.5,601.1758,221.5,605.1758,225.5,601.1758" style="stroke:#0A9EFD;stroke-width:1.0;"/><line style="stroke:#0A9EFD;stroke-width:2.0;" x1="37.5" x2="227.5" y1="601.1758" y2="601.1758"/><text fill="#0A9EFD" font-family="Arial" font-size="13" lengthAdjust="spacing" textLength="162" x="54.5" y="596.4209">Join the live streaming event</text><line style="stroke:#0A9EFD;stroke-width:2.0;" x1="233.5" x2="275.5" y1="630.1245" y2="630.1245"/><line style="stroke:#0A9EFD;stroke-width:2.0;" x1="275.5" x2="275.5" y1="630.1245" y2="643.1245"/><line style="stroke:#0A9EFD;stroke-width:2.0;" x1="234.5" x2="275.5" y1="643.1245" y2="643.1245"/><polygon fill="#0A9EFD" points="244.5,639.1245,234.5,643.1245,244.5,647.1245,240.5,643.1245" style="stroke:#0A9EFD;stroke-width:1.0;"/><text fill="#0A9EFD" font-family="Arial" font-size="13" lengthAdjust="spacing" textLength="255" x="240.5" y="625.3696">Retrieve authentication token to join channel</text><polygon fill="#0A9EFD" points="820.5,683.022,830.5,687.022,820.5,691.022,824.5,687.022" style="stroke:#0A9EFD;stroke-width:1.0;"/><line style="stroke:#0A9EFD;stroke-width:2.0;" x1="233.5" x2="826.5" y1="687.022" y2="687.022"/><text fill="#0A9EFD" font-family="Arial" font-size="13" lengthAdjust="spacing" textLength="174" x="444" y="667.3184">Set the user role as audience:</text><text fill="#0A9EFD" font-family="Arial" font-size="13" lengthAdjust="spacing" textLength="453" x="308.5" y="682.2671">agoraEngine.SetClientRole(CLIENT_ROLE_TYPE.CLIENT_ROLE_AUDIENCE)</text><polygon fill="#0A9EFD" points="820.5,726.9194,830.5,730.9194,820.5,734.9194,824.5,730.9194" style="stroke:#0A9EFD;stroke-width:1.0;"/><line style="stroke:#0A9EFD;stroke-width:2.0;" x1="233.5" x2="826.5" y1="730.9194" y2="730.9194"/><text fill="#0A9EFD" font-family="Arial" font-size="13" lengthAdjust="spacing" textLength="98" x="482" y="711.2158">Join the channel:</text><text fill="#0A9EFD" font-family="Arial" font-size="13" lengthAdjust="spacing" textLength="193" x="438.5" y="726.1646">agoraEngine.JoinChannelByKey()</text><polygon fill="#0A9EFD" points="244.5,770.8169,234.5,774.8169,244.5,778.8169,240.5,774.8169" style="stroke:#0A9EFD;stroke-width:1.0;"/><line style="stroke:#0A9EFD;stroke-width:2.0;" x1="238.5" x2="831.5" y1="774.8169" y2="774.8169"/><text fill="#0A9EFD" font-family="Arial" font-size="13" lengthAdjust="spacing" textLength="187" x="437.5" y="755.1133">A callback to start remote video:</text><text fill="#0A9EFD" font-family="Arial" font-size="13" lengthAdjust="spacing" textLength="86" x="494" y="770.062">onUserJoined()</text><polygon fill="#0A9EFD" points="820.5,829.6631,830.5,833.6631,820.5,837.6631,824.5,833.6631" style="stroke:#0A9EFD;stroke-width:1.0;"/><line style="stroke:#0A9EFD;stroke-width:2.0;" x1="233.5" x2="826.5" y1="833.6631" y2="833.6631"/><text fill="#0A9EFD" font-family="Arial" font-size="13" lengthAdjust="spacing" textLength="198" x="432" y="799.0107">Retrieve streaming from the hosts:</text><text fill="#0A9EFD" font-family="Arial" font-size="13" lengthAdjust="spacing" textLength="4" x="531" y="813.9595">&#160;</text><text fill="#0A9EFD" font-family="Arial" font-size="13" lengthAdjust="spacing" textLength="168" x="451" y="828.9082">RemoteView.SetForUser(uid)</text><polygon fill="#0A9EFD" points="244.5,858.6118,234.5,862.6118,244.5,866.6118,240.5,862.6118" style="stroke:#0A9EFD;stroke-width:1.0;"/><line style="stroke:#0A9EFD;stroke-width:2.0;" x1="238.5" x2="831.5" y1="862.6118" y2="862.6118"/><text fill="#0A9EFD" font-family="Arial" font-size="13" lengthAdjust="spacing" textLength="120" x="473" y="857.8569">Receive data Stream</text><polygon fill="#0A9EFD" points="221.5,894.5605,231.5,898.5605,221.5,902.5605,225.5,898.5605" style="stroke:#0A9EFD;stroke-width:1.0;"/><line style="stroke:#0A9EFD;stroke-width:2.0;" x1="37.5" x2="227.5" y1="898.5605" y2="898.5605"/><text fill="#0A9EFD" font-family="Arial" font-size="13" lengthAdjust="spacing" textLength="172" x="49.5" y="893.8057">Leave the live streaming event</text><polygon fill="#0A9EFD" points="820.5,938.458,830.5,942.458,820.5,946.458,824.5,942.458" style="stroke:#0A9EFD;stroke-width:1.0;"/><line style="stroke:#0A9EFD;stroke-width:2.0;" x1="233.5" x2="826.5" y1="942.458" y2="942.458"/><text fill="#0A9EFD" font-family="Arial" font-size="13" lengthAdjust="spacing" textLength="108" x="477" y="922.7544">Leave the channel:</text><text fill="#0A9EFD" font-family="Arial" font-size="13" lengthAdjust="spacing" textLength="160" x="455" y="937.7031">agoraEngine.leaveChannel()</text><line style="stroke:#0A9EFD;stroke-width:2.0;" x1="233.5" x2="275.5" y1="986.3555" y2="986.3555"/><line style="stroke:#0A9EFD;stroke-width:2.0;" x1="275.5" x2="275.5" y1="986.3555" y2="999.3555"/><line style="stroke:#0A9EFD;stroke-width:2.0;" x1="234.5" x2="275.5" y1="999.3555" y2="999.3555"/><polygon fill="#0A9EFD" points="244.5,995.3555,234.5,999.3555,244.5,1003.3555,240.5,999.3555" style="stroke:#0A9EFD;stroke-width:1.0;"/><text fill="#0A9EFD" font-family="Arial" font-size="13" lengthAdjust="spacing" textLength="139" x="251" y="966.6519">Stop local video stream:</text><text fill="#0A9EFD" font-family="Arial" font-size="13" lengthAdjust="spacing" textLength="160" x="244.5" y="981.6006">agoraEngine.DisableVideo()</text><line style="stroke:#0A9EFD;stroke-width:2.0;" x1="233.5" x2="275.5" y1="1043.2529" y2="1043.2529"/><line style="stroke:#0A9EFD;stroke-width:2.0;" x1="275.5" x2="275.5" y1="1043.2529" y2="1056.2529"/><line style="stroke:#0A9EFD;stroke-width:2.0;" x1="234.5" x2="275.5" y1="1056.2529" y2="1056.2529"/><polygon fill="#0A9EFD" points="244.5,1052.2529,234.5,1056.2529,244.5,1060.2529,240.5,1056.2529" style="stroke:#0A9EFD;stroke-width:1.0;"/><text fill="#0A9EFD" font-family="Arial" font-size="13" lengthAdjust="spacing" textLength="154" x="269" y="1023.5493">Disable the video observer:</text><text fill="#0A9EFD" font-family="Arial" font-size="13" lengthAdjust="spacing" textLength="211" x="244.5" y="1038.498">agoraEngine.DisableVideoObserver()</text><polygon fill="#0A9EFD" points="221.5,1081.2017,231.5,1085.2017,221.5,1089.2017,225.5,1085.2017" style="stroke:#0A9EFD;stroke-width:1.0;"/><line style="stroke:#0A9EFD;stroke-width:2.0;" x1="37.5" x2="227.5" y1="1085.2017" y2="1085.2017"/><text fill="#0A9EFD" font-family="Arial" font-size="13" lengthAdjust="spacing" textLength="69" x="101" y="1080.4468">Close game</text><line style="stroke:#0A9EFD;stroke-width:2.0;" x1="233.5" x2="275.5" y1="1129.0991" y2="1129.0991"/><line style="stroke:#0A9EFD;stroke-width:2.0;" x1="275.5" x2="275.5" y1="1129.0991" y2="1142.0991"/><line style="stroke:#0A9EFD;stroke-width:2.0;" x1="234.5" x2="275.5" y1="1142.0991" y2="1142.0991"/><polygon fill="#0A9EFD" points="244.5,1138.0991,234.5,1142.0991,244.5,1146.0991,240.5,1142.0991" style="stroke:#0A9EFD;stroke-width:1.0;"/><text fill="#0A9EFD" font-family="Arial" font-size="13" lengthAdjust="spacing" textLength="147" x="240.5" y="1109.3955">Clean up local resources:</text><text fill="#0A9EFD" font-family="Arial" font-size="13" lengthAdjust="spacing" textLength="127" x="256.5" y="1124.3442">agoraEngine.destroy()</text><!--SRC=[jLLXRzem4FtkNt7Z4_i0Fw3IAgMGjbaHe0IGAar29hc2Xx6Hux3rt-_iX3H90KsQ9Y4K9tVllNjtkNmHAfL5Xi2tsl1rlXTgA8g3P8odLXleBNCqFU0vB9EOiOt-3RrNNHZOyWFs63joOqKgZbnPwAr4XXgIyOjF2EPpnb1bG4bLPk18kbd9U10lfbLAr4WXHXZSEvmxc1rHUKv6n_fkf8GLt2BO7O87Xre3eDeAXNVmGvN5XVxyBOfjMbuEdz2ML_slBTW4RN7qc5AdNCB9O-RM83zqyOQXuXk9dhO3SoLgjY5BJsWech6jqKJrh7FRAZUnv11maEA45R5GMy0JAkiu1lS-B4Ph1Dq4Nf1QHPvoAxG2g_Ve_k6d5WhI7LSAPKjRgQUBJy6kwYhXKwdaowXyD3VwJKZiZvw3wJIShEVnx36QXCFEUJs9Lk7w8Pu5ur6GBABfKyEXo1lj2Gjo18mcGJG4EpBZ8hKKL6Ai7Uqa2gUBTJmZYiNhd7WRDsgwC6wpVNTcy7DrLwbSM5Ncm_iBllUxcca-CsvvvPkRrtCVWo8ZZIcsUkbf_J3zbsPUiv5NMlx5oc0vfiCelE3ZhJcvw61K6n80lLHomzEzgohtesxmeEazzc-QnmEjtEfnK9XrMb0xzM7ccz47hycrDFS8z8izwahWBrVrepOEib-8h2qenXHTRtnNaqPNcssS83_XpJxM-Zv2hpaaNKHbKNVvM7tycxqp5lcrnLCzyWfA35tjd9iepSNKh7maTOwVb- -8Yb1GdCKQpEcxa69fVeiaGwf1kp5WVm00]--></g></svg>