<?xml version="1.0" encoding="us-ascii" standalone="no"?><svg xmlns="http://www.w3.org/2000/svg" xmlns:xlink="http://www.w3.org/1999/xlink" contentStyleType="text/css" height="1009px" preserveAspectRatio="none" style="width:529px;height:1009px;" version="1.1" viewBox="0 0 529 1009" width="529px" zoomAndPan="magnify"><defs/><g><rect fill="none" height="1007.5566" style="stroke:#0A9EFD;stroke-width:1.0;" width="527.5" x="0" y="0"/><rect fill="#999999" fill-opacity="0.33333" height="997.5566" style="stroke:#0A9EFD;stroke-width:0.5;" width="90" x="166.5" y="6"/><text fill="#0A9EFD" font-family="sans-serif" font-size="13" font-weight="bold" lengthAdjust="spacing" textLength="57" x="183" y="19.4951">Your app</text><rect fill="#999999" fill-opacity="0.33333" height="997.5566" style="stroke:#0A9EFD;stroke-width:0.5;" width="74" x="443.5" y="6"/><text fill="#0A9EFD" font-family="sans-serif" font-size="13" font-weight="bold" lengthAdjust="spacing" textLength="38" x="461.5" y="19.4951">Agora</text><rect fill="#0A9EFD" fill-opacity="0.06667" height="219.5386" style="stroke:#0A9EFD;stroke-width:2.0;" width="513.5" x="10" y="332.6372"/><rect fill="#0A9EFD" fill-opacity="0.06667" height="278.3848" style="stroke:#0A9EFD;stroke-width:2.0;" width="513.5" x="10" y="566.1758"/><line style="stroke:#0A9EFD;stroke-width:0.5;stroke-dasharray:5.0,5.0;" x1="37" x2="37" y1="86.0986" y2="919.458"/><line style="stroke:#0A9EFD;stroke-width:0.5;stroke-dasharray:5.0,5.0;" x1="211.5" x2="211.5" y1="86.0986" y2="919.458"/><line style="stroke:#0A9EFD;stroke-width:0.5;stroke-dasharray:5.0,5.0;" x1="480.5" x2="480.5" y1="86.0986" y2="919.458"/><text fill="#0A9EFD" font-family="Arial" font-size="14" lengthAdjust="spacing" textLength="29" x="20" y="83.1318">User</text><ellipse cx="37.5" cy="16" fill="none" rx="8" ry="8" style="stroke:#0A9EFD;stroke-width:3.0;"/><path d="M37.5,24 L37.5,51 M24.5,32 L50.5,32 M37.5,51 L24.5,66 M37.5,51 L50.5,66 " fill="none" style="stroke:#0A9EFD;stroke-width:3.0;"/><text fill="#0A9EFD" font-family="Arial" font-size="14" lengthAdjust="spacing" textLength="29" x="20" y="931.5898">User</text><ellipse cx="37.5" cy="945.5566" fill="none" rx="8" ry="8" style="stroke:#0A9EFD;stroke-width:3.0;"/><path d="M37.5,953.5566 L37.5,980.5566 M24.5,961.5566 L50.5,961.5566 M37.5,980.5566 L24.5,995.5566 M37.5,980.5566 L50.5,995.5566 " fill="none" style="stroke:#0A9EFD;stroke-width:3.0;"/><rect fill="none" height="30.0986" rx="2.5" ry="2.5" style="stroke:#0A9EFD;stroke-width:2.0;" width="82" x="170.5" y="55"/><text fill="#0A9EFD" font-family="Arial" font-size="14" lengthAdjust="spacing" textLength="68" x="177.5" y="75.1318">Video SDK</text><rect fill="none" height="30.0986" rx="2.5" ry="2.5" style="stroke:#0A9EFD;stroke-width:2.0;" width="82" x="170.5" y="918.458"/><text fill="#0A9EFD" font-family="Arial" font-size="14" lengthAdjust="spacing" textLength="68" x="177.5" y="938.5898">Video SDK</text><rect fill="none" height="30.0986" rx="2.5" ry="2.5" style="stroke:#0A9EFD;stroke-width:2.0;" width="66" x="447.5" y="55"/><text fill="#0A9EFD" font-family="Arial" font-size="14" lengthAdjust="spacing" textLength="52" x="454.5" y="75.1318">SD-RTN</text><rect fill="none" height="30.0986" rx="2.5" ry="2.5" style="stroke:#0A9EFD;stroke-width:2.0;" width="66" x="447.5" y="918.458"/><text fill="#0A9EFD" font-family="Arial" font-size="14" lengthAdjust="spacing" textLength="52" x="454.5" y="938.5898">SD-RTN</text><polygon fill="#0A9EFD" points="199.5,113.0474,209.5,117.0474,199.5,121.0474,203.5,117.0474" style="stroke:#0A9EFD;stroke-width:1.0;"/><line style="stroke:#0A9EFD;stroke-width:2.0;" x1="37.5" x2="205.5" y1="117.0474" y2="117.0474"/><text fill="#0A9EFD" font-family="Arial" font-size="13" lengthAdjust="spacing" textLength="58" x="95.5" y="112.2925">Open App</text><line style="stroke:#0A9EFD;stroke-width:2.0;" x1="211.5" x2="253.5" y1="160.9448" y2="160.9448"/><line style="stroke:#0A9EFD;stroke-width:2.0;" x1="253.5" x2="253.5" y1="160.9448" y2="173.9448"/><line style="stroke:#0A9EFD;stroke-width:2.0;" x1="212.5" x2="253.5" y1="173.9448" y2="173.9448"/><polygon fill="#0A9EFD" points="222.5,169.9448,212.5,173.9448,222.5,177.9448,218.5,173.9448" style="stroke:#0A9EFD;stroke-width:1.0;"/><text fill="#0A9EFD" font-family="Arial" font-size="13" lengthAdjust="spacing" textLength="174" x="243.5" y="141.2412">Initiate the Video SDK engine:</text><text fill="#0A9EFD" font-family="Arial" font-size="13" lengthAdjust="spacing" textLength="220" x="222.5" y="156.1899">agoraEngine = AgoraRTC.createClient</text><line style="stroke:#0A9EFD;stroke-width:2.0;" x1="211.5" x2="253.5" y1="217.8423" y2="217.8423"/><line style="stroke:#0A9EFD;stroke-width:2.0;" x1="253.5" x2="253.5" y1="217.8423" y2="230.8423"/><line style="stroke:#0A9EFD;stroke-width:2.0;" x1="212.5" x2="253.5" y1="230.8423" y2="230.8423"/><polygon fill="#0A9EFD" points="222.5,226.8423,212.5,230.8423,222.5,234.8423,218.5,230.8423" style="stroke:#0A9EFD;stroke-width:1.0;"/><text fill="#0A9EFD" font-family="Arial" font-size="13" lengthAdjust="spacing" textLength="143" x="218.5" y="198.1387">Start video in the engine:</text><text fill="#0A9EFD" font-family="Arial" font-size="13" lengthAdjust="spacing" textLength="44" x="270" y="213.0874">App.init</text><line style="stroke:#0A9EFD;stroke-width:2.0;" x1="211.5" x2="253.5" y1="304.6372" y2="304.6372"/><line style="stroke:#0A9EFD;stroke-width:2.0;" x1="253.5" x2="253.5" y1="304.6372" y2="317.6372"/><line style="stroke:#0A9EFD;stroke-width:2.0;" x1="212.5" x2="253.5" y1="317.6372" y2="317.6372"/><polygon fill="#0A9EFD" points="222.5,313.6372,212.5,317.6372,222.5,321.6372,218.5,317.6372" style="stroke:#0A9EFD;stroke-width:1.0;"/><text fill="#0A9EFD" font-family="Arial" font-size="13" lengthAdjust="spacing" textLength="102" x="268" y="255.0361">Start local media:</text><text fill="#0A9EFD" font-family="Arial" font-size="13" lengthAdjust="spacing" textLength="197" x="222.5" y="269.9849">stream = AgoraRTC.createStream</text><text fill="#0A9EFD" font-family="Arial" font-size="13" lengthAdjust="spacing" textLength="61" x="288.5" y="284.9336">stream.init</text><text fill="#0A9EFD" font-family="Arial" font-size="13" lengthAdjust="spacing" textLength="68" x="287" y="299.8823">stream.play</text><path d="M10,332.6372 L82,332.6372 L82,339.5859 L72,349.5859 L10,349.5859 L10,332.6372 " fill="#EEEEEE" style="stroke:#0A9EFD;stroke-width:1.5;"/><rect fill="none" height="219.5386" style="stroke:#0A9EFD;stroke-width:2.0;" width="513.5" x="10" y="332.6372"/><text fill="#000000" font-family="Arial" font-size="13" lengthAdjust="spacing" textLength="27" x="25" y="345.8311">Host</text><polygon fill="#0A9EFD" points="199.5,366.5347,209.5,370.5347,199.5,374.5347,203.5,370.5347" style="stroke:#0A9EFD;stroke-width:1.0;"/><line style="stroke:#0A9EFD;stroke-width:2.0;" x1="37.5" x2="205.5" y1="370.5347" y2="370.5347"/><text fill="#0A9EFD" font-family="Arial" font-size="13" lengthAdjust="spacing" textLength="145" x="52" y="365.7798">Start live streaming event</text><line style="stroke:#0A9EFD;stroke-width:2.0;" x1="211.5" x2="253.5" y1="399.4834" y2="399.4834"/><line style="stroke:#0A9EFD;stroke-width:2.0;" x1="253.5" x2="253.5" y1="399.4834" y2="412.4834"/><line style="stroke:#0A9EFD;stroke-width:2.0;" x1="212.5" x2="253.5" y1="412.4834" y2="412.4834"/><polygon fill="#0A9EFD" points="222.5,408.4834,212.5,412.4834,222.5,416.4834,218.5,412.4834" style="stroke:#0A9EFD;stroke-width:1.0;"/><text fill="#0A9EFD" font-family="Arial" font-size="13" lengthAdjust="spacing" textLength="255" x="218.5" y="394.7285">Retrieve authentication token to join channel</text><polygon fill="#0A9EFD" points="468.5,452.3809,478.5,456.3809,468.5,460.3809,472.5,456.3809" style="stroke:#0A9EFD;stroke-width:1.0;"/><line style="stroke:#0A9EFD;stroke-width:2.0;" x1="211.5" x2="474.5" y1="456.3809" y2="456.3809"/><text fill="#0A9EFD" font-family="Arial" font-size="13" lengthAdjust="spacing" textLength="147" x="268.5" y="436.6772">Set the user role as host:</text><text fill="#0A9EFD" font-family="Arial" font-size="13" lengthAdjust="spacing" textLength="196" x="250" y="451.626">agoraEngine.setClientRole("host")</text><polygon fill="#0A9EFD" points="468.5,496.2783,478.5,500.2783,468.5,504.2783,472.5,500.2783" style="stroke:#0A9EFD;stroke-width:1.0;"/><line style="stroke:#0A9EFD;stroke-width:2.0;" x1="211.5" x2="474.5" y1="500.2783" y2="500.2783"/><text fill="#0A9EFD" font-family="Arial" font-size="13" lengthAdjust="spacing" textLength="134" x="279" y="480.5747">Join a channel as host:</text><text fill="#0A9EFD" font-family="Arial" font-size="13" lengthAdjust="spacing" textLength="96" x="300" y="495.5234">agoraEngine.join</text><polygon fill="#0A9EFD" points="468.5,540.1758,478.5,544.1758,468.5,548.1758,472.5,544.1758" style="stroke:#0A9EFD;stroke-width:1.0;"/><line style="stroke:#0A9EFD;stroke-width:2.0;" x1="211.5" x2="474.5" y1="544.1758" y2="544.1758"/><text fill="#0A9EFD" font-family="Arial" font-size="13" lengthAdjust="spacing" textLength="190" x="251" y="524.4722">Push local media to the channel:</text><text fill="#0A9EFD" font-family="Arial" font-size="13" lengthAdjust="spacing" textLength="117" x="289.5" y="539.4209">agoraEngine.publish</text><path d="M10,566.1758 L109,566.1758 L109,573.1245 L99,583.1245 L10,583.1245 L10,566.1758 " fill="#EEEEEE" style="stroke:#0A9EFD;stroke-width:1.5;"/><rect fill="none" height="278.3848" style="stroke:#0A9EFD;stroke-width:2.0;" width="513.5" x="10" y="566.1758"/><text fill="#000000" font-family="Arial" font-size="13" lengthAdjust="spacing" textLength="54" x="25" y="579.3696">Audience</text><polygon fill="#0A9EFD" points="199.5,600.0732,209.5,604.0732,199.5,608.0732,203.5,604.0732" style="stroke:#0A9EFD;stroke-width:1.0;"/><line style="stroke:#0A9EFD;stroke-width:2.0;" x1="37.5" x2="205.5" y1="604.0732" y2="604.0732"/><text fill="#0A9EFD" font-family="Arial" font-size="13" lengthAdjust="spacing" textLength="140" x="54.5" y="599.3184">Join live streaming event</text><line style="stroke:#0A9EFD;stroke-width:2.0;" x1="211.5" x2="253.5" y1="633.022" y2="633.022"/><line style="stroke:#0A9EFD;stroke-width:2.0;" x1="253.5" x2="253.5" y1="633.022" y2="646.022"/><line style="stroke:#0A9EFD;stroke-width:2.0;" x1="212.5" x2="253.5" y1="646.022" y2="646.022"/><polygon fill="#0A9EFD" points="222.5,642.022,212.5,646.022,222.5,650.022,218.5,646.022" style="stroke:#0A9EFD;stroke-width:1.0;"/><text fill="#0A9EFD" font-family="Arial" font-size="13" lengthAdjust="spacing" textLength="255" x="218.5" y="628.2671">Retrieve authentication token to join channel</text><polygon fill="#0A9EFD" points="468.5,685.9194,478.5,689.9194,468.5,693.9194,472.5,689.9194" style="stroke:#0A9EFD;stroke-width:1.0;"/><line style="stroke:#0A9EFD;stroke-width:2.0;" x1="211.5" x2="474.5" y1="689.9194" y2="689.9194"/><text fill="#0A9EFD" font-family="Arial" font-size="13" lengthAdjust="spacing" textLength="174" x="257" y="670.2158">Set the user role as audience:</text><text fill="#0A9EFD" font-family="Arial" font-size="13" lengthAdjust="spacing" textLength="223" x="236.5" y="685.1646">agoraEngine.setClientRole("audience")</text><polygon fill="#0A9EFD" points="468.5,729.8169,478.5,733.8169,468.5,737.8169,472.5,733.8169" style="stroke:#0A9EFD;stroke-width:1.0;"/><line style="stroke:#0A9EFD;stroke-width:2.0;" x1="211.5" x2="474.5" y1="733.8169" y2="733.8169"/><text fill="#0A9EFD" font-family="Arial" font-size="13" lengthAdjust="spacing" textLength="166" x="263" y="714.1133">Join the live streaming event:</text><text fill="#0A9EFD" font-family="Arial" font-size="13" lengthAdjust="spacing" textLength="96" x="300" y="729.062">agoraEngine.join</text><polygon fill="#0A9EFD" points="222.5,803.6118,212.5,807.6118,222.5,811.6118,218.5,807.6118" style="stroke:#0A9EFD;stroke-width:1.0;"/><line style="stroke:#0A9EFD;stroke-width:2.0;" x1="216.5" x2="479.5" y1="807.6118" y2="807.6118"/><text fill="#0A9EFD" font-family="Arial" font-size="13" lengthAdjust="spacing" textLength="224" x="232" y="758.0107">Retrieve streaming from the other user:</text><text fill="#0A9EFD" font-family="Arial" font-size="13" lengthAdjust="spacing" textLength="187" x="254.5" y="772.9595">agoraEngine.on("stream-added")</text><text fill="#0A9EFD" font-family="Arial" font-size="13" lengthAdjust="spacing" textLength="132" x="282" y="787.9082">agoraEngine.subscribe</text><text fill="#0A9EFD" font-family="Arial" font-size="13" lengthAdjust="spacing" textLength="215" x="242.5" y="802.8569">agoraEngine.on("stream-subscribed")</text><polygon fill="#0A9EFD" points="222.5,832.5605,212.5,836.5605,222.5,840.5605,218.5,836.5605" style="stroke:#0A9EFD;stroke-width:1.0;"/><line style="stroke:#0A9EFD;stroke-width:2.0;" x1="216.5" x2="479.5" y1="836.5605" y2="836.5605"/><text fill="#0A9EFD" font-family="Arial" font-size="13" lengthAdjust="spacing" textLength="118" x="287" y="831.8057">Receive data stream</text><polygon fill="#0A9EFD" points="199.5,868.5093,209.5,872.5093,199.5,876.5093,203.5,872.5093" style="stroke:#0A9EFD;stroke-width:1.0;"/><line style="stroke:#0A9EFD;stroke-width:2.0;" x1="37.5" x2="205.5" y1="872.5093" y2="872.5093"/><text fill="#0A9EFD" font-family="Arial" font-size="13" lengthAdjust="spacing" textLength="150" x="49.5" y="867.7544">Leave live streaming event</text><polygon fill="#0A9EFD" points="468.5,897.458,478.5,901.458,468.5,905.458,472.5,901.458" style="stroke:#0A9EFD;stroke-width:1.0;"/><line style="stroke:#0A9EFD;stroke-width:2.0;" x1="211.5" x2="474.5" y1="901.458" y2="901.458"/><text fill="#0A9EFD" font-family="Arial" font-size="13" lengthAdjust="spacing" textLength="105" x="293.5" y="896.7031">agoraEngine.leave</text><!--SRC=[lL9VQzim47_NfxZvgNr8Fa1WXT0EbdPimMa7Wy6uMBVuLaKIiXIsRx-JuZfschAtlHXqtE_l-HtRnYHDW3iNy4Vtp7REQM-KmYQw0DLJHw42xE1fKokrTR-X-kPI0FI-KifZYDomHnkX-igQ76pk7ih-ShrMYgm6mVJ0PTOuHstkPlNZvnwo6a5446OtcMS1NpnPM7glv3KCLvOZOoI8BS4W3cHtR6dntHupVIXFU0z5lNwydJU117Lhc6oS46wY68D3OM9RQ4zaeZvdKRo0CAv10tlIZ7cpYoAmVwsuAVDXeR31wUaD_b6xu9A7ZwwBa_oz3X-etsQx0phq0MOtPQcc65Y6W4ciMwaO8pl9uPufV-6NarHDYzQIESLO2Jt5aZR9iI4uG_aQhPXO04nxd7SKZytLidPLvQNgUa9sdrNmHMTWEkF9NjG4jqvTEwuoEywcUg9p0f-sXhis_o-ghssPj3XhQ59TiVD_cyFUn-8VvRtiNIemarvoVR57WGrvXomduC_WzeNGoISKhw-iENjL7H4pr9fqTNtkFMsx9l2MPFuMSjZH9TBOL4CvZCQ8lR7ZuSQN-aHue3TFDTGprZOPelu2]--></g></svg>