<?xml version="1.0" encoding="us-ascii" standalone="no"?><svg xmlns="http://www.w3.org/2000/svg" xmlns:xlink="http://www.w3.org/1999/xlink" contentStyleType="text/css" height="1021px" preserveAspectRatio="none" style="width:759px;height:1021px;" version="1.1" viewBox="0 0 759 1021" width="759px" zoomAndPan="magnify"><defs/><g><rect fill="none" height="1019.6079" style="stroke:#0A9EFD;stroke-width:1.0;" width="757" x="0" y="0"/><rect fill="#999999" fill-opacity="0.33333" height="1009.6079" style="stroke:#0A9EFD;stroke-width:0.5;" width="90" x="177" y="6"/><text fill="#0A9EFD" font-family="sans-serif" font-size="13" font-weight="bold" lengthAdjust="spacing" textLength="62" x="191" y="18.5684">Your app</text><rect fill="#999999" fill-opacity="0.33333" height="1009.6079" style="stroke:#0A9EFD;stroke-width:0.5;" width="80" x="667" y="6"/><text fill="#0A9EFD" font-family="sans-serif" font-size="13" font-weight="bold" lengthAdjust="spacing" textLength="41" x="686.5" y="18.5684">Agora</text><rect fill="#0A9EFD" fill-opacity="0.06667" height="232.5386" style="stroke:#0A9EFD;stroke-width:2.0;" width="743" x="10" y="245.8423"/><rect fill="#0A9EFD" fill-opacity="0.06667" height="219.5386" style="stroke:#0A9EFD;stroke-width:2.0;" width="743" x="10" y="492.3809"/><line style="stroke:#0A9EFD;stroke-width:0.5;stroke-dasharray:5.0,5.0;" x1="38" x2="38" y1="86.0986" y2="931.5093"/><line style="stroke:#0A9EFD;stroke-width:0.5;stroke-dasharray:5.0,5.0;" x1="222" x2="222" y1="86.0986" y2="931.5093"/><line style="stroke:#0A9EFD;stroke-width:0.5;stroke-dasharray:5.0,5.0;" x1="707" x2="707" y1="86.0986" y2="931.5093"/><text fill="#0A9EFD" font-family="Arial" font-size="14" lengthAdjust="spacing" textLength="30" x="20" y="83.1318">User</text><ellipse cx="38" cy="16" fill="none" rx="8" ry="8" style="stroke:#0A9EFD;stroke-width:3.0;"/><path d="M38,24 L38,51 M25,32 L51,32 M38,51 L25,66 M38,51 L51,66 " fill="none" style="stroke:#0A9EFD;stroke-width:3.0;"/><text fill="#0A9EFD" font-family="Arial" font-size="14" lengthAdjust="spacing" textLength="30" x="20" y="943.6411">User</text><ellipse cx="38" cy="957.6079" fill="none" rx="8" ry="8" style="stroke:#0A9EFD;stroke-width:3.0;"/><path d="M38,965.6079 L38,992.6079 M25,973.6079 L51,973.6079 M38,992.6079 L25,1007.6079 M38,992.6079 L51,1007.6079 " fill="none" style="stroke:#0A9EFD;stroke-width:3.0;"/><rect fill="none" height="30.0986" rx="2.5" ry="2.5" style="stroke:#0A9EFD;stroke-width:2.0;" width="82" x="181" y="55"/><text fill="#0A9EFD" font-family="Arial" font-size="14" lengthAdjust="spacing" textLength="68" x="188" y="75.1318">Video SDK</text><rect fill="none" height="30.0986" rx="2.5" ry="2.5" style="stroke:#0A9EFD;stroke-width:2.0;" width="82" x="181" y="930.5093"/><text fill="#0A9EFD" font-family="Arial" font-size="14" lengthAdjust="spacing" textLength="68" x="188" y="950.6411">Video SDK</text><rect fill="none" height="30.0986" rx="2.5" ry="2.5" style="stroke:#0A9EFD;stroke-width:2.0;" width="72" x="671" y="55"/><text fill="#0A9EFD" font-family="Arial" font-size="14" lengthAdjust="spacing" textLength="58" x="678" y="75.1318">SDRTN&#174;</text><rect fill="none" height="30.0986" rx="2.5" ry="2.5" style="stroke:#0A9EFD;stroke-width:2.0;" width="72" x="671" y="930.5093"/><text fill="#0A9EFD" font-family="Arial" font-size="14" lengthAdjust="spacing" textLength="58" x="678" y="950.6411">SDRTN&#174;</text><polygon fill="#0A9EFD" points="210,113.0474,220,117.0474,210,121.0474,214,117.0474" style="stroke:#0A9EFD;stroke-width:1.0;"/><line style="stroke:#0A9EFD;stroke-width:2.0;" x1="38" x2="216" y1="117.0474" y2="117.0474"/><text fill="#0A9EFD" font-family="Arial" font-size="13" lengthAdjust="spacing" textLength="56" x="102" y="112.2925">Open app</text><line style="stroke:#0A9EFD;stroke-width:2.0;" x1="222" x2="264" y1="160.9448" y2="160.9448"/><line style="stroke:#0A9EFD;stroke-width:2.0;" x1="264" x2="264" y1="160.9448" y2="173.9448"/><line style="stroke:#0A9EFD;stroke-width:2.0;" x1="223" x2="264" y1="173.9448" y2="173.9448"/><polygon fill="#0A9EFD" points="233,169.9448,223,173.9448,233,177.9448,229,173.9448" style="stroke:#0A9EFD;stroke-width:1.0;"/><text fill="#0A9EFD" font-family="Arial" font-size="13" lengthAdjust="spacing" textLength="175" x="286" y="141.2412">Initiate the Video SDK engine:</text><text fill="#0A9EFD" font-family="Arial" font-size="13" lengthAdjust="spacing" textLength="281" x="237" y="156.1899">agoraEngine = AgoraRtcEngineKit.sharedEngine</text><line style="stroke:#0A9EFD;stroke-width:2.0;" x1="222" x2="264" y1="217.8423" y2="217.8423"/><line style="stroke:#0A9EFD;stroke-width:2.0;" x1="264" x2="264" y1="217.8423" y2="230.8423"/><line style="stroke:#0A9EFD;stroke-width:2.0;" x1="223" x2="264" y1="230.8423" y2="230.8423"/><polygon fill="#0A9EFD" points="233,226.8423,223,230.8423,233,234.8423,229,230.8423" style="stroke:#0A9EFD;stroke-width:1.0;"/><text fill="#0A9EFD" font-family="Arial" font-size="13" lengthAdjust="spacing" textLength="145" x="238" y="198.1387">Start video in the engine:</text><text fill="#0A9EFD" font-family="Arial" font-size="13" lengthAdjust="spacing" textLength="155" x="237" y="213.0874">agoraEngine.enableVideo()</text><path d="M10,245.8423 L82,245.8423 L82,252.791 L72,262.791 L10,262.791 L10,245.8423 " fill="#EEEEEE" style="stroke:#0A9EFD;stroke-width:1.5;"/><rect fill="none" height="232.5386" style="stroke:#0A9EFD;stroke-width:2.0;" width="743" x="10" y="245.8423"/><text fill="#000000" font-family="Arial" font-size="13" lengthAdjust="spacing" textLength="27" x="25" y="259.0361">Host</text><polygon fill="#0A9EFD" points="210,279.7397,220,283.7397,210,287.7397,214,283.7397" style="stroke:#0A9EFD;stroke-width:1.0;"/><line style="stroke:#0A9EFD;stroke-width:2.0;" x1="38" x2="216" y1="283.7397" y2="283.7397"/><text fill="#0A9EFD" font-family="Arial" font-size="13" lengthAdjust="spacing" textLength="160" x="50" y="278.9849">Start a live streaming event</text><line style="stroke:#0A9EFD;stroke-width:2.0;" x1="222" x2="264" y1="327.6372" y2="327.6372"/><line style="stroke:#0A9EFD;stroke-width:2.0;" x1="264" x2="264" y1="327.6372" y2="340.6372"/><line style="stroke:#0A9EFD;stroke-width:2.0;" x1="223" x2="264" y1="340.6372" y2="340.6372"/><polygon fill="#0A9EFD" points="233,336.6372,223,340.6372,233,344.6372,229,340.6372" style="stroke:#0A9EFD;stroke-width:1.0;"/><text fill="#0A9EFD" font-family="Arial" font-size="13" lengthAdjust="spacing" textLength="391" x="229" y="307.9336">In an live streaming event, only the hosts broadcast to the channel:</text><text fill="#0A9EFD" font-family="Arial" font-size="13" lengthAdjust="spacing" textLength="233" x="310" y="322.8823">agoraEngine.setClientRole(.broadcaster)</text><line style="stroke:#0A9EFD;stroke-width:2.0;" x1="222" x2="264" y1="384.5347" y2="384.5347"/><line style="stroke:#0A9EFD;stroke-width:2.0;" x1="264" x2="264" y1="384.5347" y2="397.5347"/><line style="stroke:#0A9EFD;stroke-width:2.0;" x1="223" x2="264" y1="397.5347" y2="397.5347"/><polygon fill="#0A9EFD" points="233,393.5347,223,397.5347,233,401.5347,229,397.5347" style="stroke:#0A9EFD;stroke-width:1.0;"/><text fill="#0A9EFD" font-family="Arial" font-size="13" lengthAdjust="spacing" textLength="98" x="311.5" y="364.8311">Start local video:</text><text fill="#0A9EFD" font-family="Arial" font-size="13" lengthAdjust="spacing" textLength="255" x="237" y="379.7798">agoraEngine.setupLocalVideo(videoCanvas)</text><polygon fill="#0A9EFD" points="695,437.4321,705,441.4321,695,445.4321,699,441.4321" style="stroke:#0A9EFD;stroke-width:1.0;"/><line style="stroke:#0A9EFD;stroke-width:2.0;" x1="222" x2="701" y1="441.4321" y2="441.4321"/><text fill="#0A9EFD" font-family="Arial" font-size="13" lengthAdjust="spacing" textLength="99" x="415" y="421.7285">Join the channel:</text><text fill="#0A9EFD" font-family="Arial" font-size="13" lengthAdjust="spacing" textLength="150" x="391.5" y="436.6772">agoraEngine?.joinChannel</text><polygon fill="#0A9EFD" points="695,466.3809,705,470.3809,695,474.3809,699,470.3809" style="stroke:#0A9EFD;stroke-width:1.0;"/><line style="stroke:#0A9EFD;stroke-width:2.0;" x1="222" x2="701" y1="470.3809" y2="470.3809"/><text fill="#0A9EFD" font-family="Arial" font-size="13" lengthAdjust="spacing" textLength="103" x="413" y="465.626">Send data stream</text><path d="M10,492.3809 L109,492.3809 L109,499.3296 L99,509.3296 L10,509.3296 L10,492.3809 " fill="#EEEEEE" style="stroke:#0A9EFD;stroke-width:1.5;"/><rect fill="none" height="219.5386" style="stroke:#0A9EFD;stroke-width:2.0;" width="743" x="10" y="492.3809"/><text fill="#000000" font-family="Arial" font-size="13" lengthAdjust="spacing" textLength="54" x="25" y="505.5747">Audience</text><polygon fill="#0A9EFD" points="210,526.2783,220,530.2783,210,534.2783,214,530.2783" style="stroke:#0A9EFD;stroke-width:1.0;"/><line style="stroke:#0A9EFD;stroke-width:2.0;" x1="38" x2="216" y1="530.2783" y2="530.2783"/><text fill="#0A9EFD" font-family="Arial" font-size="13" lengthAdjust="spacing" textLength="145" x="57.5" y="525.5234">Join live streaming event</text><line style="stroke:#0A9EFD;stroke-width:2.0;" x1="222" x2="264" y1="574.1758" y2="574.1758"/><line style="stroke:#0A9EFD;stroke-width:2.0;" x1="264" x2="264" y1="574.1758" y2="587.1758"/><line style="stroke:#0A9EFD;stroke-width:2.0;" x1="223" x2="264" y1="587.1758" y2="587.1758"/><polygon fill="#0A9EFD" points="233,583.1758,223,587.1758,233,591.1758,229,587.1758" style="stroke:#0A9EFD;stroke-width:1.0;"/><text fill="#0A9EFD" font-family="Arial" font-size="13" lengthAdjust="spacing" textLength="471" x="229" y="554.4722">In an live streaming event, the audience views the stream sent by channel hosts:</text><text fill="#0A9EFD" font-family="Arial" font-size="13" lengthAdjust="spacing" textLength="217" x="358" y="569.4209">agoraEngine.setClientRole(.audience)</text><polygon fill="#0A9EFD" points="695,627.0732,705,631.0732,695,635.0732,699,631.0732" style="stroke:#0A9EFD;stroke-width:1.0;"/><line style="stroke:#0A9EFD;stroke-width:2.0;" x1="222" x2="701" y1="631.0732" y2="631.0732"/><text fill="#0A9EFD" font-family="Arial" font-size="13" lengthAdjust="spacing" textLength="99" x="415" y="611.3696">Join the channel:</text><text fill="#0A9EFD" font-family="Arial" font-size="13" lengthAdjust="spacing" textLength="150" x="391.5" y="626.3184">agoraEngine?.joinChannel</text><polygon fill="#0A9EFD" points="695,670.9707,705,674.9707,695,678.9707,699,674.9707" style="stroke:#0A9EFD;stroke-width:1.0;"/><line style="stroke:#0A9EFD;stroke-width:2.0;" x1="222" x2="701" y1="674.9707" y2="674.9707"/><text fill="#0A9EFD" font-family="Arial" font-size="13" lengthAdjust="spacing" textLength="201" x="362" y="655.2671">Retrieve streaming from the hosts:</text><text fill="#0A9EFD" font-family="Arial" font-size="13" lengthAdjust="spacing" textLength="269" x="332" y="670.2158">agoraEngine.setupRemoteVideo(videoCanvas)</text><polygon fill="#0A9EFD" points="233,699.9194,223,703.9194,233,707.9194,229,703.9194" style="stroke:#0A9EFD;stroke-width:1.0;"/><polygon fill="#0A9EFD" points="695,699.9194,705,703.9194,695,707.9194,699,703.9194" style="stroke:#0A9EFD;stroke-width:1.0;"/><line style="stroke:#0A9EFD;stroke-width:2.0;" x1="227" x2="701" y1="703.9194" y2="703.9194"/><text fill="#0A9EFD" font-family="Arial" font-size="13" lengthAdjust="spacing" textLength="127" x="401" y="699.1646">Receive data streams</text><polygon fill="#0A9EFD" points="210,735.8682,220,739.8682,210,743.8682,214,739.8682" style="stroke:#0A9EFD;stroke-width:1.0;"/><line style="stroke:#0A9EFD;stroke-width:2.0;" x1="38" x2="216" y1="739.8682" y2="739.8682"/><text fill="#0A9EFD" font-family="Arial" font-size="13" lengthAdjust="spacing" textLength="156" x="52" y="735.1133">Leave live streaming event</text><polygon fill="#0A9EFD" points="695,779.7656,705,783.7656,695,787.7656,699,783.7656" style="stroke:#0A9EFD;stroke-width:1.0;"/><line style="stroke:#0A9EFD;stroke-width:2.0;" x1="222" x2="701" y1="783.7656" y2="783.7656"/><text fill="#0A9EFD" font-family="Arial" font-size="13" lengthAdjust="spacing" textLength="97" x="416" y="764.062">Stop local video:</text><text fill="#0A9EFD" font-family="Arial" font-size="13" lengthAdjust="spacing" textLength="155" x="389" y="779.0107">agoraEngine.stopPreview()</text><polygon fill="#0A9EFD" points="695,823.6631,705,827.6631,695,831.6631,699,827.6631" style="stroke:#0A9EFD;stroke-width:1.0;"/><line style="stroke:#0A9EFD;stroke-width:2.0;" x1="222" x2="701" y1="827.6631" y2="827.6631"/><text fill="#0A9EFD" font-family="Arial" font-size="13" lengthAdjust="spacing" textLength="110" x="407.5" y="807.9595">Leave the channel:</text><text fill="#0A9EFD" font-family="Arial" font-size="13" lengthAdjust="spacing" textLength="175" x="379" y="822.9082">agoraEngine.leaveChannel(nil)</text><polygon fill="#0A9EFD" points="210,852.6118,220,856.6118,210,860.6118,214,856.6118" style="stroke:#0A9EFD;stroke-width:1.0;"/><line style="stroke:#0A9EFD;stroke-width:2.0;" x1="38" x2="216" y1="856.6118" y2="856.6118"/><text fill="#0A9EFD" font-family="Arial" font-size="13" lengthAdjust="spacing" textLength="58" x="101" y="851.8569">Close app</text><line style="stroke:#0A9EFD;stroke-width:2.0;" x1="222" x2="264" y1="900.5093" y2="900.5093"/><line style="stroke:#0A9EFD;stroke-width:2.0;" x1="264" x2="264" y1="900.5093" y2="913.5093"/><line style="stroke:#0A9EFD;stroke-width:2.0;" x1="223" x2="264" y1="913.5093" y2="913.5093"/><polygon fill="#0A9EFD" points="233,909.5093,223,913.5093,233,917.5093,229,913.5093" style="stroke:#0A9EFD;stroke-width:1.0;"/><text fill="#0A9EFD" font-family="Arial" font-size="13" lengthAdjust="spacing" textLength="147" x="238" y="880.8057">Clean up local resources:</text><text fill="#0A9EFD" font-family="Arial" font-size="13" lengthAdjust="spacing" textLength="165" x="233" y="895.7544">AgoraRtcEngineKit.destroy()</text><!--SRC=[hPJTZjCm48Nl_HH3hbg9pTvN_AZA8b5s1LN28Y4XhQREq9frxSXs2dqf7e8dmpz9ITg8lO1BspDdplbi-PbGNBOrGPvV7qHD-ihMZzUurGOVxADGkMZtaZ7aJXl8xYsP3D32VLKojj4_8FkiMmFOD1bZ3Hedk6XGESW-1J6eRcvZ_NAzPenK3RwdQro66UTTrKtvyVsldrtFQj3Z9yBLgo2qW0yDgJ2J-TLfSwM44-W8t8xWD1r8ROMYnHS545EzYMju2N5-wNZQk1KkjpiqLAVrIBfotYD4F21K730jcvF2ZQGuVJPdR6jqsy1RRTt8Vz93aE90O9qXt0kr1JgGScUP0DLasNFGIXwZbPsNjx0n6ckEre7JSPllK2cImUBGeILNIE4LIYrfbf_QoCmdCalDKQRa5rczKjlSXOAKDrOLg0ve1rAh1RpJ7RHfIw_pRxwWI6UZnYhSVeqEk_JXDVHGbstjKt0QWOsJ_ebgi8cTjCzDtstSIdLWVGriZdsGXFu9mhtQVs9IaZE2HjQ_6ht_yn8MSEcdRKhQQqUJ5xM25psPaZW5B0FcbYNgGyntXBxexvp3zJdTdB-WaJ5_lZOKAC_6TDA08PxpK39KT7ncIiZvs64XjQMBBwBmNGhQtfGXwpylJWdPvNzGaq-dZzxRRm00]--></g></svg>