<?xml version="1.0" encoding="us-ascii" standalone="no"?><svg xmlns="http://www.w3.org/2000/svg" xmlns:xlink="http://www.w3.org/1999/xlink" contentStyleType="text/css" height="1250px" preserveAspectRatio="none" style="width:897px;height:1250px;" version="1.1" viewBox="0 0 897 1250" width="897px" zoomAndPan="magnify"><defs/><g><rect fill="none" height="1248.1978" style="stroke:#0A9EFD;stroke-width:1.0;" width="895" x="0" y="0"/><rect fill="#999999" fill-opacity="0.33333" height="1238.1978" style="stroke:#0A9EFD;stroke-width:0.5;" width="90" x="195" y="6"/><text fill="#0A9EFD" font-family="sans-serif" font-size="13" font-weight="bold" lengthAdjust="spacing" textLength="74" x="203" y="18.5684">Your game</text><rect fill="#999999" fill-opacity="0.33333" height="1238.1978" style="stroke:#0A9EFD;stroke-width:0.5;" width="80" x="805" y="6"/><text fill="#0A9EFD" font-family="sans-serif" font-size="13" font-weight="bold" lengthAdjust="spacing" textLength="41" x="824.5" y="18.5684">Agora</text><rect fill="#0A9EFD" fill-opacity="0.06667" height="261.4873" style="stroke:#0A9EFD;stroke-width:2.0;" width="881" x="10" y="287.791"/><rect fill="#0A9EFD" fill-opacity="0.06667" height="307.3335" style="stroke:#0A9EFD;stroke-width:2.0;" width="881" x="10" y="563.2783"/><line style="stroke:#0A9EFD;stroke-width:0.5;stroke-dasharray:5.0,5.0;" x1="38" x2="38" y1="86.0986" y2="1160.0991"/><line style="stroke:#0A9EFD;stroke-width:0.5;stroke-dasharray:5.0,5.0;" x1="240" x2="240" y1="86.0986" y2="1160.0991"/><line style="stroke:#0A9EFD;stroke-width:0.5;stroke-dasharray:5.0,5.0;" x1="845" x2="845" y1="86.0986" y2="1160.0991"/><text fill="#0A9EFD" font-family="Arial" font-size="14" lengthAdjust="spacing" textLength="30" x="20" y="83.1318">User</text><ellipse cx="38" cy="16" fill="none" rx="8" ry="8" style="stroke:#0A9EFD;stroke-width:3.0;"/><path d="M38,24 L38,51 M25,32 L51,32 M38,51 L25,66 M38,51 L51,66 " fill="none" style="stroke:#0A9EFD;stroke-width:3.0;"/><text fill="#0A9EFD" font-family="Arial" font-size="14" lengthAdjust="spacing" textLength="30" x="20" y="1172.231">User</text><ellipse cx="38" cy="1186.1978" fill="none" rx="8" ry="8" style="stroke:#0A9EFD;stroke-width:3.0;"/><path d="M38,1194.1978 L38,1221.1978 M25,1202.1978 L51,1202.1978 M38,1221.1978 L25,1236.1978 M38,1221.1978 L51,1236.1978 " fill="none" style="stroke:#0A9EFD;stroke-width:3.0;"/><rect fill="none" height="30.0986" rx="2.5" ry="2.5" style="stroke:#0A9EFD;stroke-width:2.0;" width="82" x="199" y="55"/><text fill="#0A9EFD" font-family="Arial" font-size="14" lengthAdjust="spacing" textLength="68" x="206" y="75.1318">Video SDK</text><rect fill="none" height="30.0986" rx="2.5" ry="2.5" style="stroke:#0A9EFD;stroke-width:2.0;" width="82" x="199" y="1159.0991"/><text fill="#0A9EFD" font-family="Arial" font-size="14" lengthAdjust="spacing" textLength="68" x="206" y="1179.231">Video SDK</text><rect fill="none" height="30.0986" rx="2.5" ry="2.5" style="stroke:#0A9EFD;stroke-width:2.0;" width="72" x="809" y="55"/><text fill="#0A9EFD" font-family="Arial" font-size="14" lengthAdjust="spacing" textLength="58" x="816" y="75.1318">SDRTN&#174;</text><rect fill="none" height="30.0986" rx="2.5" ry="2.5" style="stroke:#0A9EFD;stroke-width:2.0;" width="72" x="809" y="1159.0991"/><text fill="#0A9EFD" font-family="Arial" font-size="14" lengthAdjust="spacing" textLength="58" x="816" y="1179.231">SDRTN&#174;</text><polygon fill="#0A9EFD" points="228,113.0474,238,117.0474,228,121.0474,232,117.0474" style="stroke:#0A9EFD;stroke-width:1.0;"/><line style="stroke:#0A9EFD;stroke-width:2.0;" x1="38" x2="234" y1="117.0474" y2="117.0474"/><text fill="#0A9EFD" font-family="Arial" font-size="13" lengthAdjust="spacing" textLength="67" x="105.5" y="112.2925">Open game</text><line style="stroke:#0A9EFD;stroke-width:2.0;" x1="240" x2="282" y1="160.9448" y2="160.9448"/><line style="stroke:#0A9EFD;stroke-width:2.0;" x1="282" x2="282" y1="160.9448" y2="173.9448"/><line style="stroke:#0A9EFD;stroke-width:2.0;" x1="241" x2="282" y1="173.9448" y2="173.9448"/><polygon fill="#0A9EFD" points="251,169.9448,241,173.9448,251,177.9448,247,173.9448" style="stroke:#0A9EFD;stroke-width:1.0;"/><text fill="#0A9EFD" font-family="Arial" font-size="13" lengthAdjust="spacing" textLength="213" x="249" y="141.2412">Initiate the Agora Video SDK engine:</text><text fill="#0A9EFD" font-family="Arial" font-size="13" lengthAdjust="spacing" textLength="217" x="251" y="156.1899">agoraEngine=IRtcEngine.GetEngine()</text><line style="stroke:#0A9EFD;stroke-width:2.0;" x1="240" x2="282" y1="217.8423" y2="217.8423"/><line style="stroke:#0A9EFD;stroke-width:2.0;" x1="282" x2="282" y1="217.8423" y2="230.8423"/><line style="stroke:#0A9EFD;stroke-width:2.0;" x1="241" x2="282" y1="230.8423" y2="230.8423"/><polygon fill="#0A9EFD" points="251,226.8423,241,230.8423,251,234.8423,247,230.8423" style="stroke:#0A9EFD;stroke-width:1.0;"/><text fill="#0A9EFD" font-family="Arial" font-size="13" lengthAdjust="spacing" textLength="170" x="247" y="198.1387">Setup the local video stream:</text><text fill="#0A9EFD" font-family="Arial" font-size="13" lengthAdjust="spacing" textLength="157" x="257.5" y="213.0874">agoraEngine.EnableVideo()</text><line style="stroke:#0A9EFD;stroke-width:2.0;" x1="240" x2="282" y1="259.791" y2="259.791"/><line style="stroke:#0A9EFD;stroke-width:2.0;" x1="282" x2="282" y1="259.791" y2="272.791"/><line style="stroke:#0A9EFD;stroke-width:2.0;" x1="241" x2="282" y1="272.791" y2="272.791"/><polygon fill="#0A9EFD" points="251,268.791,241,272.791,251,276.791,247,272.791" style="stroke:#0A9EFD;stroke-width:1.0;"/><text fill="#0A9EFD" font-family="Arial" font-size="13" lengthAdjust="spacing" textLength="210" x="247" y="255.0361">agoraEngine.EnableVideoObserver()</text><path d="M10,287.791 L82,287.791 L82,294.7397 L72,304.7397 L10,304.7397 L10,287.791 " fill="#EEEEEE" style="stroke:#0A9EFD;stroke-width:1.5;"/><rect fill="none" height="261.4873" style="stroke:#0A9EFD;stroke-width:2.0;" width="881" x="10" y="287.791"/><text fill="#000000" font-family="Arial" font-size="13" lengthAdjust="spacing" textLength="27" x="25" y="300.9849">Host</text><polygon fill="#0A9EFD" points="228,321.6885,238,325.6885,228,329.6885,232,325.6885" style="stroke:#0A9EFD;stroke-width:1.0;"/><line style="stroke:#0A9EFD;stroke-width:2.0;" x1="38" x2="234" y1="325.6885" y2="325.6885"/><text fill="#0A9EFD" font-family="Arial" font-size="13" lengthAdjust="spacing" textLength="160" x="59" y="320.9336">Start a live streaming event</text><line style="stroke:#0A9EFD;stroke-width:2.0;" x1="240" x2="282" y1="354.6372" y2="354.6372"/><line style="stroke:#0A9EFD;stroke-width:2.0;" x1="282" x2="282" y1="354.6372" y2="367.6372"/><line style="stroke:#0A9EFD;stroke-width:2.0;" x1="241" x2="282" y1="367.6372" y2="367.6372"/><polygon fill="#0A9EFD" points="251,363.6372,241,367.6372,251,371.6372,247,367.6372" style="stroke:#0A9EFD;stroke-width:1.0;"/><text fill="#0A9EFD" font-family="Arial" font-size="13" lengthAdjust="spacing" textLength="257" x="247" y="349.8823">Retrieve authentication token to join channel</text><line style="stroke:#0A9EFD;stroke-width:2.0;" x1="240" x2="282" y1="411.5347" y2="411.5347"/><line style="stroke:#0A9EFD;stroke-width:2.0;" x1="282" x2="282" y1="411.5347" y2="424.5347"/><line style="stroke:#0A9EFD;stroke-width:2.0;" x1="241" x2="282" y1="424.5347" y2="424.5347"/><polygon fill="#0A9EFD" points="251,420.5347,241,424.5347,251,428.5347,247,424.5347" style="stroke:#0A9EFD;stroke-width:1.0;"/><text fill="#0A9EFD" font-family="Arial" font-size="13" lengthAdjust="spacing" textLength="214" x="433.5" y="391.8311">Enable live streaming in the channel:</text><text fill="#0A9EFD" font-family="Arial" font-size="13" lengthAdjust="spacing" textLength="587" x="251" y="406.7798">agoraEngine.SetChannelProfile(CHANNEL_PROFILE.CHANNEL_PROFILE_LIVE_BROADCASTING)</text><polygon fill="#0A9EFD" points="833,464.4321,843,468.4321,833,472.4321,837,468.4321" style="stroke:#0A9EFD;stroke-width:1.0;"/><line style="stroke:#0A9EFD;stroke-width:2.0;" x1="240" x2="839" y1="468.4321" y2="468.4321"/><text fill="#0A9EFD" font-family="Arial" font-size="13" lengthAdjust="spacing" textLength="147" x="467" y="448.7285">Set the user role as host:</text><text fill="#0A9EFD" font-family="Arial" font-size="13" lengthAdjust="spacing" textLength="491" x="299" y="463.6772">agoraEngine.SetClientRole(CLIENT_ROLE_TYPE.CLIENT_ROLE_BROADCASTER)</text><polygon fill="#0A9EFD" points="833,508.3296,843,512.3296,833,516.3296,837,512.3296" style="stroke:#0A9EFD;stroke-width:1.0;"/><line style="stroke:#0A9EFD;stroke-width:2.0;" x1="240" x2="839" y1="512.3296" y2="512.3296"/><text fill="#0A9EFD" font-family="Arial" font-size="13" lengthAdjust="spacing" textLength="135" x="473" y="492.626">Join a channel as host:</text><text fill="#0A9EFD" font-family="Arial" font-size="13" lengthAdjust="spacing" textLength="194" x="447.5" y="507.5747">agoraEngine.JoinChannelByKey()</text><polygon fill="#0A9EFD" points="833,537.2783,843,541.2783,833,545.2783,837,541.2783" style="stroke:#0A9EFD;stroke-width:1.0;"/><line style="stroke:#0A9EFD;stroke-width:2.0;" x1="240" x2="839" y1="541.2783" y2="541.2783"/><text fill="#0A9EFD" font-family="Arial" font-size="13" lengthAdjust="spacing" textLength="103" x="491" y="536.5234">Send data stream</text><path d="M10,563.2783 L109,563.2783 L109,570.2271 L99,580.2271 L10,580.2271 L10,563.2783 " fill="#EEEEEE" style="stroke:#0A9EFD;stroke-width:1.5;"/><rect fill="none" height="307.3335" style="stroke:#0A9EFD;stroke-width:2.0;" width="881" x="10" y="563.2783"/><text fill="#000000" font-family="Arial" font-size="13" lengthAdjust="spacing" textLength="54" x="25" y="576.4722">Audience</text><polygon fill="#0A9EFD" points="228,597.1758,238,601.1758,228,605.1758,232,601.1758" style="stroke:#0A9EFD;stroke-width:1.0;"/><line style="stroke:#0A9EFD;stroke-width:2.0;" x1="38" x2="234" y1="601.1758" y2="601.1758"/><text fill="#0A9EFD" font-family="Arial" font-size="13" lengthAdjust="spacing" textLength="167" x="55.5" y="596.4209">Join the live streaming event</text><line style="stroke:#0A9EFD;stroke-width:2.0;" x1="240" x2="282" y1="630.1245" y2="630.1245"/><line style="stroke:#0A9EFD;stroke-width:2.0;" x1="282" x2="282" y1="630.1245" y2="643.1245"/><line style="stroke:#0A9EFD;stroke-width:2.0;" x1="241" x2="282" y1="643.1245" y2="643.1245"/><polygon fill="#0A9EFD" points="251,639.1245,241,643.1245,251,647.1245,247,643.1245" style="stroke:#0A9EFD;stroke-width:1.0;"/><text fill="#0A9EFD" font-family="Arial" font-size="13" lengthAdjust="spacing" textLength="257" x="247" y="625.3696">Retrieve authentication token to join channel</text><polygon fill="#0A9EFD" points="833,683.022,843,687.022,833,691.022,837,687.022" style="stroke:#0A9EFD;stroke-width:1.0;"/><line style="stroke:#0A9EFD;stroke-width:2.0;" x1="240" x2="839" y1="687.022" y2="687.022"/><text fill="#0A9EFD" font-family="Arial" font-size="13" lengthAdjust="spacing" textLength="174" x="453.5" y="667.3184">Set the user role as audience:</text><text fill="#0A9EFD" font-family="Arial" font-size="13" lengthAdjust="spacing" textLength="459" x="315" y="682.2671">agoraEngine.SetClientRole(CLIENT_ROLE_TYPE.CLIENT_ROLE_AUDIENCE)</text><polygon fill="#0A9EFD" points="833,726.9194,843,730.9194,833,734.9194,837,730.9194" style="stroke:#0A9EFD;stroke-width:1.0;"/><line style="stroke:#0A9EFD;stroke-width:2.0;" x1="240" x2="839" y1="730.9194" y2="730.9194"/><text fill="#0A9EFD" font-family="Arial" font-size="13" lengthAdjust="spacing" textLength="99" x="491" y="711.2158">Join the channel:</text><text fill="#0A9EFD" font-family="Arial" font-size="13" lengthAdjust="spacing" textLength="194" x="447.5" y="726.1646">agoraEngine.JoinChannelByKey()</text><polygon fill="#0A9EFD" points="251,770.8169,241,774.8169,251,778.8169,247,774.8169" style="stroke:#0A9EFD;stroke-width:1.0;"/><line style="stroke:#0A9EFD;stroke-width:2.0;" x1="245" x2="844" y1="774.8169" y2="774.8169"/><text fill="#0A9EFD" font-family="Arial" font-size="13" lengthAdjust="spacing" textLength="189" x="446" y="755.1133">A callback to start remote video:</text><text fill="#0A9EFD" font-family="Arial" font-size="13" lengthAdjust="spacing" textLength="87" x="503" y="770.062">onUserJoined()</text><polygon fill="#0A9EFD" points="833,829.6631,843,833.6631,833,837.6631,837,833.6631" style="stroke:#0A9EFD;stroke-width:1.0;"/><line style="stroke:#0A9EFD;stroke-width:2.0;" x1="240" x2="839" y1="833.6631" y2="833.6631"/><text fill="#0A9EFD" font-family="Arial" font-size="13" lengthAdjust="spacing" textLength="201" x="440" y="799.0107">Retrieve streaming from the hosts:</text><text fill="#0A9EFD" font-family="Arial" font-size="13" lengthAdjust="spacing" textLength="4" x="540.5" y="813.9595">&#160;</text><text fill="#0A9EFD" font-family="Arial" font-size="13" lengthAdjust="spacing" textLength="168" x="460.5" y="828.9082">RemoteView.SetForUser(uid)</text><polygon fill="#0A9EFD" points="251,858.6118,241,862.6118,251,866.6118,247,862.6118" style="stroke:#0A9EFD;stroke-width:1.0;"/><line style="stroke:#0A9EFD;stroke-width:2.0;" x1="245" x2="844" y1="862.6118" y2="862.6118"/><text fill="#0A9EFD" font-family="Arial" font-size="13" lengthAdjust="spacing" textLength="122" x="481.5" y="857.8569">Receive data Stream</text><polygon fill="#0A9EFD" points="228,894.5605,238,898.5605,228,902.5605,232,898.5605" style="stroke:#0A9EFD;stroke-width:1.0;"/><line style="stroke:#0A9EFD;stroke-width:2.0;" x1="38" x2="234" y1="898.5605" y2="898.5605"/><text fill="#0A9EFD" font-family="Arial" font-size="13" lengthAdjust="spacing" textLength="178" x="50" y="893.8057">Leave the live streaming event</text><polygon fill="#0A9EFD" points="833,938.458,843,942.458,833,946.458,837,942.458" style="stroke:#0A9EFD;stroke-width:1.0;"/><line style="stroke:#0A9EFD;stroke-width:2.0;" x1="240" x2="839" y1="942.458" y2="942.458"/><text fill="#0A9EFD" font-family="Arial" font-size="13" lengthAdjust="spacing" textLength="110" x="485.5" y="922.7544">Leave the channel:</text><text fill="#0A9EFD" font-family="Arial" font-size="13" lengthAdjust="spacing" textLength="162" x="463.5" y="937.7031">agoraEngine.leaveChannel()</text><line style="stroke:#0A9EFD;stroke-width:2.0;" x1="240" x2="282" y1="986.3555" y2="986.3555"/><line style="stroke:#0A9EFD;stroke-width:2.0;" x1="282" x2="282" y1="986.3555" y2="999.3555"/><line style="stroke:#0A9EFD;stroke-width:2.0;" x1="241" x2="282" y1="999.3555" y2="999.3555"/><polygon fill="#0A9EFD" points="251,995.3555,241,999.3555,251,1003.3555,247,999.3555" style="stroke:#0A9EFD;stroke-width:1.0;"/><text fill="#0A9EFD" font-family="Arial" font-size="13" lengthAdjust="spacing" textLength="141" x="256.5" y="966.6519">Stop local video stream:</text><text fill="#0A9EFD" font-family="Arial" font-size="13" lengthAdjust="spacing" textLength="160" x="251" y="981.6006">agoraEngine.DisableVideo()</text><line style="stroke:#0A9EFD;stroke-width:2.0;" x1="240" x2="282" y1="1043.2529" y2="1043.2529"/><line style="stroke:#0A9EFD;stroke-width:2.0;" x1="282" x2="282" y1="1043.2529" y2="1056.2529"/><line style="stroke:#0A9EFD;stroke-width:2.0;" x1="241" x2="282" y1="1056.2529" y2="1056.2529"/><polygon fill="#0A9EFD" points="251,1052.2529,241,1056.2529,251,1060.2529,247,1056.2529" style="stroke:#0A9EFD;stroke-width:1.0;"/><text fill="#0A9EFD" font-family="Arial" font-size="13" lengthAdjust="spacing" textLength="158" x="274.5" y="1023.5493">Disable the video observer:</text><text fill="#0A9EFD" font-family="Arial" font-size="13" lengthAdjust="spacing" textLength="213" x="251" y="1038.498">agoraEngine.DisableVideoObserver()</text><polygon fill="#0A9EFD" points="228,1081.2017,238,1085.2017,228,1089.2017,232,1085.2017" style="stroke:#0A9EFD;stroke-width:1.0;"/><line style="stroke:#0A9EFD;stroke-width:2.0;" x1="38" x2="234" y1="1085.2017" y2="1085.2017"/><text fill="#0A9EFD" font-family="Arial" font-size="13" lengthAdjust="spacing" textLength="69" x="104.5" y="1080.4468">Close game</text><line style="stroke:#0A9EFD;stroke-width:2.0;" x1="240" x2="282" y1="1129.0991" y2="1129.0991"/><line style="stroke:#0A9EFD;stroke-width:2.0;" x1="282" x2="282" y1="1129.0991" y2="1142.0991"/><line style="stroke:#0A9EFD;stroke-width:2.0;" x1="241" x2="282" y1="1142.0991" y2="1142.0991"/><polygon fill="#0A9EFD" points="251,1138.0991,241,1142.0991,251,1146.0991,247,1142.0991" style="stroke:#0A9EFD;stroke-width:1.0;"/><text fill="#0A9EFD" font-family="Arial" font-size="13" lengthAdjust="spacing" textLength="147" x="247" y="1109.3955">Clean up local resources:</text><text fill="#0A9EFD" font-family="Arial" font-size="13" lengthAdjust="spacing" textLength="127" x="263" y="1124.3442">agoraEngine.destroy()</text><!--SRC=[jLN1Rjf04BtxAwQSw07d7gcH770IDmYG3KYHAg75di2MPHUjrxJvgNv4lwopQ-FO3g1ALIM4lFRCUs_UZCUVk4n5aI7u_isHPwW6URQxOHkbsIhVSUdpOYyyZwL6QUWjSjGzO3aiajZprkedz5vKeM73zjZpl0FJXgVymAI1tjAYGJ9wTWd1REPvA3EWf2epi2JTh6GKpoU_VrKvKIE7A65mPu5kONf0wKWzEjPt8yaDPmR1R14SEjGY0EM6Ixo5Rn9STQ4xVubYavQN_YEQygh_kGMRe2aE3bEeb0bmDa5kDB9z5yyF9LiBTBGTc0jHqpLvUaHDqPwtqOgedbHkMkKcXYm21e8ViIBcSWDuH6ain-3EXSLeDAURm0fIAybKPhYIODGExJzyLrn2kcLIecXfA_LqyIdOLbqbV2YLV1cMZsPQlNA1_U5JC9c4uzKidZv4uz3ld5VZQ1ckxkDfC1e6oJoQF3OSYfpHZh0WHq0h4aH3i2Kppb8BJYN6ojAEet0oNyLJefY_p8YtSQEc2-CssrTh1ZjLTv7AXbLbthyzurk_gvdcCsE6LRxPUJtrCIWoqfXYgvUErWtJVsdc9HjPfULVh0mM8peCmpC-NfkJimv6jI41q4ibrYpTsQfoD-eQzuhUO_UcEJnGqkuU2uLPfmMrK-zclcgrTvfiItE7GB_OeIuv_h1LFoXj8Vi5pzg2OapHziPrDMbqjTd6CR8ZNkrZhUyzz993maPK5dMNZr67lzax8vvVMZpL8wUWn53LphcAqbnCpSg7GkNuSVaEgGW9nKcinfm-32cMvhT8CgGQb1q3xmy0]--></g></svg>