<?xml version="1.0" encoding="us-ascii" standalone="no"?><svg xmlns="http://www.w3.org/2000/svg" xmlns:xlink="http://www.w3.org/1999/xlink" contentStyleType="text/css" height="1164px" preserveAspectRatio="none" style="width:666px;height:1164px;" version="1.1" viewBox="0 0 666 1164" width="666px" zoomAndPan="magnify"><defs/><g><rect fill="none" height="1162.4028" style="stroke:#0A9EFD;stroke-width:1.0;" width="664" x="0" y="0"/><rect fill="#999999" fill-opacity="0.33333" height="1152.4028" style="stroke:#0A9EFD;stroke-width:0.5;" width="90" x="177" y="6"/><text fill="#0A9EFD" font-family="sans-serif" font-size="13" font-weight="bold" lengthAdjust="spacing" textLength="62" x="191" y="18.5684">Your app</text><rect fill="#999999" fill-opacity="0.33333" height="1152.4028" style="stroke:#0A9EFD;stroke-width:0.5;" width="80" x="574" y="6"/><text fill="#0A9EFD" font-family="sans-serif" font-size="13" font-weight="bold" lengthAdjust="spacing" textLength="41" x="593.5" y="18.5684">Agora</text><rect fill="#0A9EFD" fill-opacity="0.06667" height="361.3335" style="stroke:#0A9EFD;stroke-width:2.0;" width="650" x="10" y="245.8423"/><rect fill="#0A9EFD" fill-opacity="0.06667" height="292.3848" style="stroke:#0A9EFD;stroke-width:2.0;" width="650" x="10" y="621.1758"/><line style="stroke:#0A9EFD;stroke-width:0.5;stroke-dasharray:5.0,5.0;" x1="38" x2="38" y1="86.0986" y2="1074.3042"/><line style="stroke:#0A9EFD;stroke-width:0.5;stroke-dasharray:5.0,5.0;" x1="222" x2="222" y1="86.0986" y2="1074.3042"/><line style="stroke:#0A9EFD;stroke-width:0.5;stroke-dasharray:5.0,5.0;" x1="614" x2="614" y1="86.0986" y2="1074.3042"/><text fill="#0A9EFD" font-family="Arial" font-size="14" lengthAdjust="spacing" textLength="30" x="20" y="83.1318">User</text><ellipse cx="38" cy="16" fill="none" rx="8" ry="8" style="stroke:#0A9EFD;stroke-width:3.0;"/><path d="M38,24 L38,51 M25,32 L51,32 M38,51 L25,66 M38,51 L51,66 " fill="none" style="stroke:#0A9EFD;stroke-width:3.0;"/><text fill="#0A9EFD" font-family="Arial" font-size="14" lengthAdjust="spacing" textLength="30" x="20" y="1086.436">User</text><ellipse cx="38" cy="1100.4028" fill="none" rx="8" ry="8" style="stroke:#0A9EFD;stroke-width:3.0;"/><path d="M38,1108.4028 L38,1135.4028 M25,1116.4028 L51,1116.4028 M38,1135.4028 L25,1150.4028 M38,1135.4028 L51,1150.4028 " fill="none" style="stroke:#0A9EFD;stroke-width:3.0;"/><rect fill="none" height="30.0986" rx="2.5" ry="2.5" style="stroke:#0A9EFD;stroke-width:2.0;" width="82" x="181" y="55"/><text fill="#0A9EFD" font-family="Arial" font-size="14" lengthAdjust="spacing" textLength="68" x="188" y="75.1318">Video SDK</text><rect fill="none" height="30.0986" rx="2.5" ry="2.5" style="stroke:#0A9EFD;stroke-width:2.0;" width="82" x="181" y="1073.3042"/><text fill="#0A9EFD" font-family="Arial" font-size="14" lengthAdjust="spacing" textLength="68" x="188" y="1093.436">Video SDK</text><rect fill="none" height="30.0986" rx="2.5" ry="2.5" style="stroke:#0A9EFD;stroke-width:2.0;" width="72" x="578" y="55"/><text fill="#0A9EFD" font-family="Arial" font-size="14" lengthAdjust="spacing" textLength="58" x="585" y="75.1318">SDRTN&#174;</text><rect fill="none" height="30.0986" rx="2.5" ry="2.5" style="stroke:#0A9EFD;stroke-width:2.0;" width="72" x="578" y="1073.3042"/><text fill="#0A9EFD" font-family="Arial" font-size="14" lengthAdjust="spacing" textLength="58" x="585" y="1093.436">SDRTN&#174;</text><polygon fill="#0A9EFD" points="210,113.0474,220,117.0474,210,121.0474,214,117.0474" style="stroke:#0A9EFD;stroke-width:1.0;"/><line style="stroke:#0A9EFD;stroke-width:2.0;" x1="38" x2="216" y1="117.0474" y2="117.0474"/><text fill="#0A9EFD" font-family="Arial" font-size="13" lengthAdjust="spacing" textLength="58" x="101" y="112.2925">Open App</text><line style="stroke:#0A9EFD;stroke-width:2.0;" x1="222" x2="264" y1="160.9448" y2="160.9448"/><line style="stroke:#0A9EFD;stroke-width:2.0;" x1="264" x2="264" y1="160.9448" y2="173.9448"/><line style="stroke:#0A9EFD;stroke-width:2.0;" x1="223" x2="264" y1="173.9448" y2="173.9448"/><polygon fill="#0A9EFD" points="233,169.9448,223,173.9448,233,177.9448,229,173.9448" style="stroke:#0A9EFD;stroke-width:1.0;"/><text fill="#0A9EFD" font-family="Arial" font-size="13" lengthAdjust="spacing" textLength="209" x="229" y="141.2412">Initiate the Agora Video SDK engine</text><text fill="#0A9EFD" font-family="Arial" font-size="13" lengthAdjust="spacing" textLength="188" x="241.5" y="156.1899">agoraEngine = RtcEngine.create</text><line style="stroke:#0A9EFD;stroke-width:2.0;" x1="222" x2="264" y1="217.8423" y2="217.8423"/><line style="stroke:#0A9EFD;stroke-width:2.0;" x1="264" x2="264" y1="217.8423" y2="230.8423"/><line style="stroke:#0A9EFD;stroke-width:2.0;" x1="223" x2="264" y1="230.8423" y2="230.8423"/><polygon fill="#0A9EFD" points="233,226.8423,223,230.8423,233,234.8423,229,230.8423" style="stroke:#0A9EFD;stroke-width:1.0;"/><text fill="#0A9EFD" font-family="Arial" font-size="13" lengthAdjust="spacing" textLength="147" x="231" y="198.1387">Enable the video module:</text><text fill="#0A9EFD" font-family="Arial" font-size="13" lengthAdjust="spacing" textLength="147" x="233" y="213.0874">agoraEngine.enableVideo</text><path d="M10,245.8423 L82,245.8423 L82,252.791 L72,262.791 L10,262.791 L10,245.8423 " fill="#EEEEEE" style="stroke:#0A9EFD;stroke-width:1.5;"/><rect fill="none" height="361.3335" style="stroke:#0A9EFD;stroke-width:2.0;" width="650" x="10" y="245.8423"/><text fill="#000000" font-family="Arial" font-size="13" lengthAdjust="spacing" textLength="27" x="25" y="259.0361">Host</text><polygon fill="#0A9EFD" points="210,279.7397,220,283.7397,210,287.7397,214,283.7397" style="stroke:#0A9EFD;stroke-width:1.0;"/><line style="stroke:#0A9EFD;stroke-width:2.0;" x1="38" x2="216" y1="283.7397" y2="283.7397"/><text fill="#0A9EFD" font-family="Arial" font-size="13" lengthAdjust="spacing" textLength="160" x="50" y="278.9849">Start a live streaming event</text><line style="stroke:#0A9EFD;stroke-width:2.0;" x1="222" x2="264" y1="312.6885" y2="312.6885"/><line style="stroke:#0A9EFD;stroke-width:2.0;" x1="264" x2="264" y1="312.6885" y2="325.6885"/><line style="stroke:#0A9EFD;stroke-width:2.0;" x1="223" x2="264" y1="325.6885" y2="325.6885"/><polygon fill="#0A9EFD" points="233,321.6885,223,325.6885,233,329.6885,229,325.6885" style="stroke:#0A9EFD;stroke-width:1.0;"/><text fill="#0A9EFD" font-family="Arial" font-size="13" lengthAdjust="spacing" textLength="257" x="229" y="307.9336">Retrieve authentication token to join channel</text><line style="stroke:#0A9EFD;stroke-width:2.0;" x1="222" x2="264" y1="369.5859" y2="369.5859"/><line style="stroke:#0A9EFD;stroke-width:2.0;" x1="264" x2="264" y1="369.5859" y2="382.5859"/><line style="stroke:#0A9EFD;stroke-width:2.0;" x1="223" x2="264" y1="382.5859" y2="382.5859"/><polygon fill="#0A9EFD" points="233,378.5859,223,382.5859,233,386.5859,229,382.5859" style="stroke:#0A9EFD;stroke-width:1.0;"/><text fill="#0A9EFD" font-family="Arial" font-size="13" lengthAdjust="spacing" textLength="214" x="311" y="349.8823">Enable live streaming in the channel:</text><text fill="#0A9EFD" font-family="Arial" font-size="13" lengthAdjust="spacing" textLength="374" x="233" y="364.8311">agoraEngine.setChannelProfile(ChannelProfile.LiveBroadcasting)</text><polygon fill="#0A9EFD" points="602,422.4834,612,426.4834,602,430.4834,606,426.4834" style="stroke:#0A9EFD;stroke-width:1.0;"/><line style="stroke:#0A9EFD;stroke-width:2.0;" x1="222" x2="608" y1="426.4834" y2="426.4834"/><text fill="#0A9EFD" font-family="Arial" font-size="13" lengthAdjust="spacing" textLength="118" x="359" y="406.7798">Set the role as host:</text><text fill="#0A9EFD" font-family="Arial" font-size="13" lengthAdjust="spacing" textLength="294" x="275" y="421.7285">agoraEngine.setClientRole(ClientRole.Broadcaster)</text><polygon fill="#0A9EFD" points="602,466.3809,612,470.3809,602,474.3809,606,470.3809" style="stroke:#0A9EFD;stroke-width:1.0;"/><line style="stroke:#0A9EFD;stroke-width:2.0;" x1="222" x2="608" y1="470.3809" y2="470.3809"/><text fill="#0A9EFD" font-family="Arial" font-size="13" lengthAdjust="spacing" textLength="135" x="348.5" y="450.6772">Join a channel as host:</text><text fill="#0A9EFD" font-family="Arial" font-size="13" lengthAdjust="spacing" textLength="143" x="346.5" y="465.626">agoraEngine.joinChannel</text><polygon fill="#0A9EFD" points="233,495.3296,223,499.3296,233,503.3296,229,499.3296" style="stroke:#0A9EFD;stroke-width:1.0;"/><line style="stroke:#0A9EFD;stroke-width:2.0;" x1="227" x2="613" y1="499.3296" y2="499.3296"/><text fill="#0A9EFD" font-family="Arial" font-size="13" lengthAdjust="spacing" textLength="146" x="345" y="494.5747">on "joinChannelSuccess"</text><polygon fill="#0A9EFD" points="602,524.2783,612,528.2783,602,532.2783,606,528.2783" style="stroke:#0A9EFD;stroke-width:1.0;"/><line style="stroke:#0A9EFD;stroke-width:2.0;" x1="222" x2="608" y1="528.2783" y2="528.2783"/><text fill="#0A9EFD" font-family="Arial" font-size="13" lengthAdjust="spacing" textLength="43" x="396.5" y="523.5234">Publish</text><polygon fill="#0A9EFD" points="602,553.2271,612,557.2271,602,561.2271,606,557.2271" style="stroke:#0A9EFD;stroke-width:1.0;"/><line style="stroke:#0A9EFD;stroke-width:2.0;" x1="222" x2="608" y1="557.2271" y2="557.2271"/><text fill="#0A9EFD" font-family="Arial" font-size="13" lengthAdjust="spacing" textLength="103" x="366.5" y="552.4722">Send data stream</text><line style="stroke:#0A9EFD;stroke-width:2.0;" x1="222" x2="264" y1="586.1758" y2="586.1758"/><line style="stroke:#0A9EFD;stroke-width:2.0;" x1="264" x2="264" y1="586.1758" y2="599.1758"/><line style="stroke:#0A9EFD;stroke-width:2.0;" x1="223" x2="264" y1="599.1758" y2="599.1758"/><polygon fill="#0A9EFD" points="233,595.1758,223,599.1758,233,603.1758,229,599.1758" style="stroke:#0A9EFD;stroke-width:1.0;"/><text fill="#0A9EFD" font-family="Arial" font-size="13" lengthAdjust="spacing" textLength="220" x="229" y="581.4209">Widget = RtcLocalView.SurfaceView()</text><path d="M10,621.1758 L109,621.1758 L109,628.1245 L99,638.1245 L10,638.1245 L10,621.1758 " fill="#EEEEEE" style="stroke:#0A9EFD;stroke-width:1.5;"/><rect fill="none" height="292.3848" style="stroke:#0A9EFD;stroke-width:2.0;" width="650" x="10" y="621.1758"/><text fill="#000000" font-family="Arial" font-size="13" lengthAdjust="spacing" textLength="54" x="25" y="634.3696">Audience</text><polygon fill="#0A9EFD" points="210,655.0732,220,659.0732,210,663.0732,214,659.0732" style="stroke:#0A9EFD;stroke-width:1.0;"/><line style="stroke:#0A9EFD;stroke-width:2.0;" x1="38" x2="216" y1="659.0732" y2="659.0732"/><text fill="#0A9EFD" font-family="Arial" font-size="13" lengthAdjust="spacing" textLength="156" x="52" y="654.3184">Join a live streaming event</text><line style="stroke:#0A9EFD;stroke-width:2.0;" x1="222" x2="264" y1="688.022" y2="688.022"/><line style="stroke:#0A9EFD;stroke-width:2.0;" x1="264" x2="264" y1="688.022" y2="701.022"/><line style="stroke:#0A9EFD;stroke-width:2.0;" x1="223" x2="264" y1="701.022" y2="701.022"/><polygon fill="#0A9EFD" points="233,697.022,223,701.022,233,705.022,229,701.022" style="stroke:#0A9EFD;stroke-width:1.0;"/><text fill="#0A9EFD" font-family="Arial" font-size="13" lengthAdjust="spacing" textLength="257" x="229" y="683.2671">Retrieve authentication token to join channel</text><polygon fill="#0A9EFD" points="602,740.9194,612,744.9194,602,748.9194,606,744.9194" style="stroke:#0A9EFD;stroke-width:1.0;"/><line style="stroke:#0A9EFD;stroke-width:2.0;" x1="222" x2="608" y1="744.9194" y2="744.9194"/><text fill="#0A9EFD" font-family="Arial" font-size="13" lengthAdjust="spacing" textLength="174" x="329" y="725.2158">Set the user role as audience:</text><text fill="#0A9EFD" font-family="Arial" font-size="13" lengthAdjust="spacing" textLength="278" x="281" y="740.1646">agoraEngine.setClientRole(ClientRole.Audience)</text><polygon fill="#0A9EFD" points="602,784.8169,612,788.8169,602,792.8169,606,788.8169" style="stroke:#0A9EFD;stroke-width:1.0;"/><line style="stroke:#0A9EFD;stroke-width:2.0;" x1="222" x2="608" y1="788.8169" y2="788.8169"/><text fill="#0A9EFD" font-family="Arial" font-size="13" lengthAdjust="spacing" textLength="99" x="366.5" y="769.1133">Join the channel:</text><text fill="#0A9EFD" font-family="Arial" font-size="13" lengthAdjust="spacing" textLength="143" x="348.5" y="784.062">agoraEngine.joinChannel</text><polygon fill="#0A9EFD" points="233,813.7656,223,817.7656,233,821.7656,229,817.7656" style="stroke:#0A9EFD;stroke-width:1.0;"/><line style="stroke:#0A9EFD;stroke-width:2.0;" x1="227" x2="613" y1="817.7656" y2="817.7656"/><text fill="#0A9EFD" font-family="Arial" font-size="13" lengthAdjust="spacing" textLength="146" x="345" y="813.0107">on "joinChannelSuccess"</text><polygon fill="#0A9EFD" points="602,857.6631,612,861.6631,602,865.6631,606,861.6631" style="stroke:#0A9EFD;stroke-width:1.0;"/><line style="stroke:#0A9EFD;stroke-width:2.0;" x1="222" x2="608" y1="861.6631" y2="861.6631"/><text fill="#0A9EFD" font-family="Arial" font-size="13" lengthAdjust="spacing" textLength="201" x="315.5" y="841.9595">Retrieve streaming from the hosts:</text><text fill="#0A9EFD" font-family="Arial" font-size="13" lengthAdjust="spacing" textLength="91" x="374.5" y="856.9082">on "userJoined"</text><polygon fill="#0A9EFD" points="233,901.5605,223,905.5605,233,909.5605,229,905.5605" style="stroke:#0A9EFD;stroke-width:1.0;"/><line style="stroke:#0A9EFD;stroke-width:2.0;" x1="227" x2="613" y1="905.5605" y2="905.5605"/><text fill="#0A9EFD" font-family="Arial" font-size="13" lengthAdjust="spacing" textLength="120" x="358" y="885.8569">Receive data stream</text><text fill="#0A9EFD" font-family="Arial" font-size="13" lengthAdjust="spacing" textLength="234" x="303" y="900.8057">Widget = RtcRemoteView.SurfaceView()</text><polygon fill="#0A9EFD" points="210,937.5093,220,941.5093,210,945.5093,214,941.5093" style="stroke:#0A9EFD;stroke-width:1.0;"/><line style="stroke:#0A9EFD;stroke-width:2.0;" x1="38" x2="216" y1="941.5093" y2="941.5093"/><text fill="#0A9EFD" font-family="Arial" font-size="13" lengthAdjust="spacing" textLength="96" x="82" y="936.7544">Leave broadcast</text><polygon fill="#0A9EFD" points="602,966.458,612,970.458,602,974.458,606,970.458" style="stroke:#0A9EFD;stroke-width:1.0;"/><line style="stroke:#0A9EFD;stroke-width:2.0;" x1="222" x2="608" y1="970.458" y2="970.458"/><text fill="#0A9EFD" font-family="Arial" font-size="13" lengthAdjust="spacing" textLength="162" x="337" y="965.7031">agoraEngine.leaveChannel()</text><polygon fill="#0A9EFD" points="210,995.4067,220,999.4067,210,1003.4067,214,999.4067" style="stroke:#0A9EFD;stroke-width:1.0;"/><line style="stroke:#0A9EFD;stroke-width:2.0;" x1="38" x2="216" y1="999.4067" y2="999.4067"/><text fill="#0A9EFD" font-family="Arial" font-size="13" lengthAdjust="spacing" textLength="58" x="101" y="994.6519">Close app</text><line style="stroke:#0A9EFD;stroke-width:2.0;" x1="222" x2="264" y1="1043.3042" y2="1043.3042"/><line style="stroke:#0A9EFD;stroke-width:2.0;" x1="264" x2="264" y1="1043.3042" y2="1056.3042"/><line style="stroke:#0A9EFD;stroke-width:2.0;" x1="223" x2="264" y1="1056.3042" y2="1056.3042"/><polygon fill="#0A9EFD" points="233,1052.3042,223,1056.3042,233,1060.3042,229,1056.3042" style="stroke:#0A9EFD;stroke-width:1.0;"/><text fill="#0A9EFD" font-family="Arial" font-size="13" lengthAdjust="spacing" textLength="143" x="229" y="1023.6006">Clean up local resources</text><text fill="#0A9EFD" font-family="Arial" font-size="13" lengthAdjust="spacing" textLength="127" x="241" y="1038.5493">agoraEngine.destroy()</text><!--SRC=[jLHTRzCm57tFhxZaQNjOzZu9fD9Deb11bR2XIPEGQz-cfguT-QF0d-97yCkuTjCq3aD2Ghn4Tk9xpZtdtFY5r5m5WL1LrmSfq5mviRjchR7iizj9NScmLqN1k3SModk7jWJcuBwfYs9jla7vQ885rdLbqJ7h9PSTqnxAXuW5pUsxT7osMXMe1L15NpQB39EQvhR- -FxdZxvYSQuWDhXw5L5ku4E76cPTLz1kUBdGqalc4VmM8K73q02WRgN69mr9rLtQmKkeFJ-kAswHQZF0EytMwWYNN86z4K7XJOvIOJgMg8gYjIPqyCOudtVSU18939Gy83XFP7kfMy03Qf-HrkYjfDV00X5hCePvQJHuiyFuX2z6Qk1RfZMgvzgTCD3XAA0lcFRkqC-FNrRMRAJ2YtnRBGdjjJLCSEOyuLsUAHUa2dr2juQ8AR0jwOuKlt4eIL9g4_67PJNWeirXtqQ9xDJp00nFUemRZPWFFYm67yYiSlIj2PoZSsMHKQp2MactdQYXMHFCizw-pDrFKhIaDetCqd2c7YH-hPfWDunZN5zSnbazJS0i2DB9CHk2NjV_ce5H887-qI4LrlSI3VoxP4xTFnFBU9YcUF-Ko23wxCp6cdqYZF6xH1UXehZO2ueoewcHOxHs525LZ8EhSMyy_YcvSLHBP8IqFarerkbOiehdUbs4as7CbN4OhyKit3cLQA0HKN6AmAAZovFycFus0ac2-KwWlm00]--></g></svg>