<?xml version="1.0" encoding="us-ascii" standalone="no"?><svg xmlns="http://www.w3.org/2000/svg" xmlns:xlink="http://www.w3.org/1999/xlink" contentStyleType="text/css" height="1149px" preserveAspectRatio="none" style="width:767px;height:1149px;" version="1.1" viewBox="0 0 767 1149" width="767px" zoomAndPan="magnify"><defs/><g><rect fill="none" height="1147.4028" style="stroke:#0A9EFD;stroke-width:1.0;" width="765" x="0" y="0"/><rect fill="#999999" fill-opacity="0.33333" height="1137.4028" style="stroke:#0A9EFD;stroke-width:0.5;" width="90" x="195" y="6"/><text fill="#0A9EFD" font-family="sans-serif" font-size="13" font-weight="bold" lengthAdjust="spacing" textLength="62" x="209" y="18.5684">Your app</text><rect fill="#999999" fill-opacity="0.33333" height="1137.4028" style="stroke:#0A9EFD;stroke-width:0.5;" width="80" x="675" y="6"/><text fill="#0A9EFD" font-family="sans-serif" font-size="13" font-weight="bold" lengthAdjust="spacing" textLength="41" x="694.5" y="18.5684">Agora</text><rect fill="#0A9EFD" fill-opacity="0.06667" height="318.3848" style="stroke:#0A9EFD;stroke-width:2.0;" width="751" x="10" y="302.7397"/><rect fill="#0A9EFD" fill-opacity="0.06667" height="248.4873" style="stroke:#0A9EFD;stroke-width:2.0;" width="751" x="10" y="635.1245"/><line style="stroke:#0A9EFD;stroke-width:0.5;stroke-dasharray:5.0,5.0;" x1="38" x2="38" y1="86.0986" y2="1059.3042"/><line style="stroke:#0A9EFD;stroke-width:0.5;stroke-dasharray:5.0,5.0;" x1="240" x2="240" y1="86.0986" y2="1059.3042"/><line style="stroke:#0A9EFD;stroke-width:0.5;stroke-dasharray:5.0,5.0;" x1="715" x2="715" y1="86.0986" y2="1059.3042"/><text fill="#0A9EFD" font-family="Arial" font-size="14" lengthAdjust="spacing" textLength="30" x="20" y="83.1318">User</text><ellipse cx="38" cy="16" fill="none" rx="8" ry="8" style="stroke:#0A9EFD;stroke-width:3.0;"/><path d="M38,24 L38,51 M25,32 L51,32 M38,51 L25,66 M38,51 L51,66 " fill="none" style="stroke:#0A9EFD;stroke-width:3.0;"/><text fill="#0A9EFD" font-family="Arial" font-size="14" lengthAdjust="spacing" textLength="30" x="20" y="1071.436">User</text><ellipse cx="38" cy="1085.4028" fill="none" rx="8" ry="8" style="stroke:#0A9EFD;stroke-width:3.0;"/><path d="M38,1093.4028 L38,1120.4028 M25,1101.4028 L51,1101.4028 M38,1120.4028 L25,1135.4028 M38,1120.4028 L51,1135.4028 " fill="none" style="stroke:#0A9EFD;stroke-width:3.0;"/><rect fill="none" height="30.0986" rx="2.5" ry="2.5" style="stroke:#0A9EFD;stroke-width:2.0;" width="82" x="199" y="55"/><text fill="#0A9EFD" font-family="Arial" font-size="14" lengthAdjust="spacing" textLength="68" x="206" y="75.1318">Video SDK</text><rect fill="none" height="30.0986" rx="2.5" ry="2.5" style="stroke:#0A9EFD;stroke-width:2.0;" width="82" x="199" y="1058.3042"/><text fill="#0A9EFD" font-family="Arial" font-size="14" lengthAdjust="spacing" textLength="68" x="206" y="1078.436">Video SDK</text><rect fill="none" height="30.0986" rx="2.5" ry="2.5" style="stroke:#0A9EFD;stroke-width:2.0;" width="72" x="679" y="55"/><text fill="#0A9EFD" font-family="Arial" font-size="14" lengthAdjust="spacing" textLength="58" x="686" y="75.1318">SDRTN&#174;</text><rect fill="none" height="30.0986" rx="2.5" ry="2.5" style="stroke:#0A9EFD;stroke-width:2.0;" width="72" x="679" y="1058.3042"/><text fill="#0A9EFD" font-family="Arial" font-size="14" lengthAdjust="spacing" textLength="58" x="686" y="1078.436">SDRTN&#174;</text><polygon fill="#0A9EFD" points="228,113.0474,238,117.0474,228,121.0474,232,117.0474" style="stroke:#0A9EFD;stroke-width:1.0;"/><line style="stroke:#0A9EFD;stroke-width:2.0;" x1="38" x2="234" y1="117.0474" y2="117.0474"/><text fill="#0A9EFD" font-family="Arial" font-size="13" lengthAdjust="spacing" textLength="58" x="110" y="112.2925">Open App</text><line style="stroke:#0A9EFD;stroke-width:2.0;" x1="240" x2="282" y1="160.9448" y2="160.9448"/><line style="stroke:#0A9EFD;stroke-width:2.0;" x1="282" x2="282" y1="160.9448" y2="173.9448"/><line style="stroke:#0A9EFD;stroke-width:2.0;" x1="241" x2="282" y1="173.9448" y2="173.9448"/><polygon fill="#0A9EFD" points="251,169.9448,241,173.9448,251,177.9448,247,173.9448" style="stroke:#0A9EFD;stroke-width:1.0;"/><text fill="#0A9EFD" font-family="Arial" font-size="13" lengthAdjust="spacing" textLength="213" x="247" y="141.2412">Initiate the Agora Video SDK engine:</text><text fill="#0A9EFD" font-family="Arial" font-size="13" lengthAdjust="spacing" textLength="188" x="263.5" y="156.1899">agoraEngine = RtcEngine.create</text><line style="stroke:#0A9EFD;stroke-width:2.0;" x1="240" x2="282" y1="217.8423" y2="217.8423"/><line style="stroke:#0A9EFD;stroke-width:2.0;" x1="282" x2="282" y1="217.8423" y2="230.8423"/><line style="stroke:#0A9EFD;stroke-width:2.0;" x1="241" x2="282" y1="230.8423" y2="230.8423"/><polygon fill="#0A9EFD" points="251,226.8423,241,230.8423,251,234.8423,247,230.8423" style="stroke:#0A9EFD;stroke-width:1.0;"/><text fill="#0A9EFD" font-family="Arial" font-size="13" lengthAdjust="spacing" textLength="147" x="251" y="198.1387">Enable the video module:</text><text fill="#0A9EFD" font-family="Arial" font-size="13" lengthAdjust="spacing" textLength="155" x="251" y="213.0874">agoraEngine.enableVideo()</text><line style="stroke:#0A9EFD;stroke-width:2.0;" x1="240" x2="282" y1="274.7397" y2="274.7397"/><line style="stroke:#0A9EFD;stroke-width:2.0;" x1="282" x2="282" y1="274.7397" y2="287.7397"/><line style="stroke:#0A9EFD;stroke-width:2.0;" x1="241" x2="282" y1="287.7397" y2="287.7397"/><polygon fill="#0A9EFD" points="251,283.7397,241,287.7397,251,291.7397,247,287.7397" style="stroke:#0A9EFD;stroke-width:1.0;"/><text fill="#0A9EFD" font-family="Arial" font-size="13" lengthAdjust="spacing" textLength="134" x="408.5" y="255.0361">Set the channel profile:</text><text fill="#0A9EFD" font-family="Arial" font-size="13" lengthAdjust="spacing" textLength="457" x="251" y="269.9849">agoraEngine.setChannelProfile(CHANNEL_PROFILE_LIVE_BROADCASTING)</text><path d="M10,302.7397 L82,302.7397 L82,309.6885 L72,319.6885 L10,319.6885 L10,302.7397 " fill="#EEEEEE" style="stroke:#0A9EFD;stroke-width:1.5;"/><rect fill="none" height="318.3848" style="stroke:#0A9EFD;stroke-width:2.0;" width="751" x="10" y="302.7397"/><text fill="#000000" font-family="Arial" font-size="13" lengthAdjust="spacing" textLength="27" x="25" y="315.9336">Host</text><polygon fill="#0A9EFD" points="228,336.6372,238,340.6372,228,344.6372,232,340.6372" style="stroke:#0A9EFD;stroke-width:1.0;"/><line style="stroke:#0A9EFD;stroke-width:2.0;" x1="38" x2="234" y1="340.6372" y2="340.6372"/><text fill="#0A9EFD" font-family="Arial" font-size="13" lengthAdjust="spacing" textLength="160" x="59" y="335.8823">Start a live streaming event</text><line style="stroke:#0A9EFD;stroke-width:2.0;" x1="240" x2="282" y1="369.5859" y2="369.5859"/><line style="stroke:#0A9EFD;stroke-width:2.0;" x1="282" x2="282" y1="369.5859" y2="382.5859"/><line style="stroke:#0A9EFD;stroke-width:2.0;" x1="241" x2="282" y1="382.5859" y2="382.5859"/><polygon fill="#0A9EFD" points="251,378.5859,241,382.5859,251,386.5859,247,382.5859" style="stroke:#0A9EFD;stroke-width:1.0;"/><text fill="#0A9EFD" font-family="Arial" font-size="13" lengthAdjust="spacing" textLength="257" x="247" y="364.8311">Retrieve authentication token to join channel</text><polygon fill="#0A9EFD" points="703,422.4834,713,426.4834,703,430.4834,707,426.4834" style="stroke:#0A9EFD;stroke-width:1.0;"/><line style="stroke:#0A9EFD;stroke-width:2.0;" x1="240" x2="709" y1="426.4834" y2="426.4834"/><text fill="#0A9EFD" font-family="Arial" font-size="13" lengthAdjust="spacing" textLength="118" x="418.5" y="406.7798">Set the role as host:</text><text fill="#0A9EFD" font-family="Arial" font-size="13" lengthAdjust="spacing" textLength="418" x="272.5" y="421.7285">agoraEngine.setClientRole(Constants.CLIENT_ROLE_BROADCASTER)</text><line style="stroke:#0A9EFD;stroke-width:2.0;" x1="240" x2="282" y1="470.3809" y2="470.3809"/><line style="stroke:#0A9EFD;stroke-width:2.0;" x1="282" x2="282" y1="470.3809" y2="483.3809"/><line style="stroke:#0A9EFD;stroke-width:2.0;" x1="241" x2="282" y1="483.3809" y2="483.3809"/><polygon fill="#0A9EFD" points="251,479.3809,241,483.3809,251,487.3809,247,483.3809" style="stroke:#0A9EFD;stroke-width:1.0;"/><text fill="#0A9EFD" font-family="Arial" font-size="13" lengthAdjust="spacing" textLength="104" x="325.5" y="450.6772">Setup local video:</text><text fill="#0A9EFD" font-family="Arial" font-size="13" lengthAdjust="spacing" textLength="257" x="251" y="465.626">agoraEngine.setupLocalVideo(VideoCanvas)</text><line style="stroke:#0A9EFD;stroke-width:2.0;" x1="240" x2="282" y1="527.2783" y2="527.2783"/><line style="stroke:#0A9EFD;stroke-width:2.0;" x1="282" x2="282" y1="527.2783" y2="540.2783"/><line style="stroke:#0A9EFD;stroke-width:2.0;" x1="241" x2="282" y1="540.2783" y2="540.2783"/><polygon fill="#0A9EFD" points="251,536.2783,241,540.2783,251,544.2783,247,540.2783" style="stroke:#0A9EFD;stroke-width:1.0;"/><text fill="#0A9EFD" font-family="Arial" font-size="13" lengthAdjust="spacing" textLength="111" x="271.5" y="507.5747">Start local preview:</text><text fill="#0A9EFD" font-family="Arial" font-size="13" lengthAdjust="spacing" textLength="156" x="251" y="522.5234">agoraEngine.startPreview()</text><polygon fill="#0A9EFD" points="703,580.1758,713,584.1758,703,588.1758,707,584.1758" style="stroke:#0A9EFD;stroke-width:1.0;"/><line style="stroke:#0A9EFD;stroke-width:2.0;" x1="240" x2="709" y1="584.1758" y2="584.1758"/><text fill="#0A9EFD" font-family="Arial" font-size="13" lengthAdjust="spacing" textLength="135" x="408" y="564.4722">Join a channel as host:</text><text fill="#0A9EFD" font-family="Arial" font-size="13" lengthAdjust="spacing" textLength="143" x="408" y="579.4209">agoraEngine.joinChannel</text><polygon fill="#0A9EFD" points="703,609.1245,713,613.1245,703,617.1245,707,613.1245" style="stroke:#0A9EFD;stroke-width:1.0;"/><line style="stroke:#0A9EFD;stroke-width:2.0;" x1="240" x2="709" y1="613.1245" y2="613.1245"/><text fill="#0A9EFD" font-family="Arial" font-size="13" lengthAdjust="spacing" textLength="103" x="426" y="608.3696">Send data stream</text><path d="M10,635.1245 L109,635.1245 L109,642.0732 L99,652.0732 L10,652.0732 L10,635.1245 " fill="#EEEEEE" style="stroke:#0A9EFD;stroke-width:1.5;"/><rect fill="none" height="248.4873" style="stroke:#0A9EFD;stroke-width:2.0;" width="751" x="10" y="635.1245"/><text fill="#000000" font-family="Arial" font-size="13" lengthAdjust="spacing" textLength="54" x="25" y="648.3184">Audience</text><polygon fill="#0A9EFD" points="228,669.022,238,673.022,228,677.022,232,673.022" style="stroke:#0A9EFD;stroke-width:1.0;"/><line style="stroke:#0A9EFD;stroke-width:2.0;" x1="38" x2="234" y1="673.022" y2="673.022"/><text fill="#0A9EFD" font-family="Arial" font-size="13" lengthAdjust="spacing" textLength="156" x="61" y="668.2671">Join a live streaming event</text><line style="stroke:#0A9EFD;stroke-width:2.0;" x1="240" x2="282" y1="701.9707" y2="701.9707"/><line style="stroke:#0A9EFD;stroke-width:2.0;" x1="282" x2="282" y1="701.9707" y2="714.9707"/><line style="stroke:#0A9EFD;stroke-width:2.0;" x1="241" x2="282" y1="714.9707" y2="714.9707"/><polygon fill="#0A9EFD" points="251,710.9707,241,714.9707,251,718.9707,247,714.9707" style="stroke:#0A9EFD;stroke-width:1.0;"/><text fill="#0A9EFD" font-family="Arial" font-size="13" lengthAdjust="spacing" textLength="257" x="247" y="697.2158">Retrieve authentication token to join channel</text><polygon fill="#0A9EFD" points="703,754.8682,713,758.8682,703,762.8682,707,758.8682" style="stroke:#0A9EFD;stroke-width:1.0;"/><line style="stroke:#0A9EFD;stroke-width:2.0;" x1="240" x2="709" y1="758.8682" y2="758.8682"/><text fill="#0A9EFD" font-family="Arial" font-size="13" lengthAdjust="spacing" textLength="174" x="388.5" y="739.1646">Set the user role as audience:</text><text fill="#0A9EFD" font-family="Arial" font-size="13" lengthAdjust="spacing" textLength="323" x="318" y="754.1133">agoraEngine.setClientRole(CLIENT_ROLE_AUDIENCE)</text><polygon fill="#0A9EFD" points="703,798.7656,713,802.7656,703,806.7656,707,802.7656" style="stroke:#0A9EFD;stroke-width:1.0;"/><line style="stroke:#0A9EFD;stroke-width:2.0;" x1="240" x2="709" y1="802.7656" y2="802.7656"/><text fill="#0A9EFD" font-family="Arial" font-size="13" lengthAdjust="spacing" textLength="99" x="426" y="783.062">Join the channel:</text><text fill="#0A9EFD" font-family="Arial" font-size="13" lengthAdjust="spacing" textLength="143" x="408" y="798.0107">agoraEngine.joinChannel</text><polygon fill="#0A9EFD" points="703,842.6631,713,846.6631,703,850.6631,707,846.6631" style="stroke:#0A9EFD;stroke-width:1.0;"/><line style="stroke:#0A9EFD;stroke-width:2.0;" x1="240" x2="709" y1="846.6631" y2="846.6631"/><text fill="#0A9EFD" font-family="Arial" font-size="13" lengthAdjust="spacing" textLength="201" x="375" y="826.9595">Retrieve streaming from the hosts:</text><text fill="#0A9EFD" font-family="Arial" font-size="13" lengthAdjust="spacing" textLength="186" x="386.5" y="841.9082">agoraEngine.setupRemoteVideo</text><polygon fill="#0A9EFD" points="251,871.6118,241,875.6118,251,879.6118,247,875.6118" style="stroke:#0A9EFD;stroke-width:1.0;"/><line style="stroke:#0A9EFD;stroke-width:2.0;" x1="245" x2="714" y1="875.6118" y2="875.6118"/><text fill="#0A9EFD" font-family="Arial" font-size="13" lengthAdjust="spacing" textLength="120" x="417.5" y="870.8569">Receive data stream</text><polygon fill="#0A9EFD" points="228,907.5605,238,911.5605,228,915.5605,232,911.5605" style="stroke:#0A9EFD;stroke-width:1.0;"/><line style="stroke:#0A9EFD;stroke-width:2.0;" x1="38" x2="234" y1="911.5605" y2="911.5605"/><text fill="#0A9EFD" font-family="Arial" font-size="13" lengthAdjust="spacing" textLength="178" x="50" y="906.8057">Leave the live streaming event</text><polygon fill="#0A9EFD" points="703,951.458,713,955.458,703,959.458,707,955.458" style="stroke:#0A9EFD;stroke-width:1.0;"/><line style="stroke:#0A9EFD;stroke-width:2.0;" x1="240" x2="709" y1="955.458" y2="955.458"/><text fill="#0A9EFD" font-family="Arial" font-size="13" lengthAdjust="spacing" textLength="110" x="420.5" y="935.7544">Leave the channel:</text><text fill="#0A9EFD" font-family="Arial" font-size="13" lengthAdjust="spacing" textLength="162" x="398.5" y="950.7031">agoraEngine.leaveChannel()</text><polygon fill="#0A9EFD" points="228,980.4067,238,984.4067,228,988.4067,232,984.4067" style="stroke:#0A9EFD;stroke-width:1.0;"/><line style="stroke:#0A9EFD;stroke-width:2.0;" x1="38" x2="234" y1="984.4067" y2="984.4067"/><text fill="#0A9EFD" font-family="Arial" font-size="13" lengthAdjust="spacing" textLength="58" x="110" y="979.6519">Close app</text><line style="stroke:#0A9EFD;stroke-width:2.0;" x1="240" x2="282" y1="1028.3042" y2="1028.3042"/><line style="stroke:#0A9EFD;stroke-width:2.0;" x1="282" x2="282" y1="1028.3042" y2="1041.3042"/><line style="stroke:#0A9EFD;stroke-width:2.0;" x1="241" x2="282" y1="1041.3042" y2="1041.3042"/><polygon fill="#0A9EFD" points="251,1037.3042,241,1041.3042,251,1045.3042,247,1041.3042" style="stroke:#0A9EFD;stroke-width:1.0;"/><text fill="#0A9EFD" font-family="Arial" font-size="13" lengthAdjust="spacing" textLength="143" x="247" y="1008.6006">Clean up local resources</text><text fill="#0A9EFD" font-family="Arial" font-size="13" lengthAdjust="spacing" textLength="127" x="259" y="1023.5493">agoraEngine.destroy()</text><!--SRC=[fPJTZfim48NlUOffhdOlmjv7wagKq2ujIYB8hhHIfSWBiuaROYFRfErBzI7wP1qRGY1agqgzGVpC7C_vZiqxBlAoBX1y_-x82vHJNUpls5Ogjj5xBdnU7qhFyrXkf8B9eqOr0QRXCKizxqN-WCcph1MmgffuNiMKuJclc30mUR9gaCs_kFfWjV8y50LGJziOs4Kkkx9vkbxy_jNsnBqUMX6czrPe1iiA1GHLvT5Jzp8Mt71c4CmEmOb3DmEWs7A1C_Wgm9cBt3EyXzJapRsVAwJkWMGas4lP23euS915NOvaV7HrRhMRsu52XiQrvpic19PGAVdAhoXeD65JicegRiA7OB68aiqgNNwCasYJn4_HvaEw3EPXaAtZnQTRpzigMLVm8BKPuCaC8GK69JyYQ4E-3bni0OyeZ9rkUk_AKZIAqqjWDOqeA0Hck1HWv1xj5Rv9BawJdrt5PrTA4XrAQaSJpCZHo5B9IJULreuKsb34sW-JE5giD-aowVc9qX4tSbRAd9KD-jaOM5qbzdk3tLr39evCNoWv68rIfV38yVj8ovQicc_z_CZfPuk0TV6Tl5x6Pqc5Lq7HzYsOOMqCTZkVOWlgWkZaE8YkNU-jvBgw_y-kfgFS1SZQMQxkorw8lUY2npazXD4LNhqD_y-aEaDdrwzA7foMHQwlZLPNAHwaQKuUoSKzFZbQXYFsVTW9icDpkl_EE-wNlcMij1MjCzf4WuN2KcgqFyb1XY6r2EYskK9Dlz8SzUL1Af0cap-jw1y0]--></g></svg>