<?xml version="1.0" encoding="us-ascii" standalone="no"?><svg xmlns="http://www.w3.org/2000/svg" xmlns:xlink="http://www.w3.org/1999/xlink" contentStyleType="text/css" height="857px" preserveAspectRatio="none" style="width:657px;height:857px;" version="1.1" viewBox="0 0 657 857" width="657px" zoomAndPan="magnify"><defs/><g><rect fill="none" height="855.1719" style="stroke:#0A9EFD;stroke-width:1.0;" width="655" x="0" y="0"/><rect fill="#999999" fill-opacity="0.33333" height="845.1719" style="stroke:#0A9EFD;stroke-width:0.5;" width="90" x="112" y="6"/><text fill="#0A9EFD" font-family="sans-serif" font-size="13" font-weight="bold" lengthAdjust="spacing" textLength="62" x="126" y="18.5684">Your app</text><rect fill="#999999" fill-opacity="0.33333" height="845.1719" style="stroke:#0A9EFD;stroke-width:0.5;" width="80" x="565" y="6"/><text fill="#0A9EFD" font-family="sans-serif" font-size="13" font-weight="bold" lengthAdjust="spacing" textLength="41" x="584.5" y="18.5684">Agora</text><rect fill="#0A9EFD" fill-opacity="0.06667" height="187.6924" style="stroke:#0A9EFD;stroke-width:2.0;" width="641" x="10" y="215.9448"/><rect fill="#0A9EFD" fill-opacity="0.06667" height="174.6924" style="stroke:#0A9EFD;stroke-width:2.0;" width="641" x="10" y="417.6372"/><line style="stroke:#0A9EFD;stroke-width:0.5;stroke-dasharray:5.0,5.0;" x1="38" x2="38" y1="86.0986" y2="767.0732"/><line style="stroke:#0A9EFD;stroke-width:0.5;stroke-dasharray:5.0,5.0;" x1="157" x2="157" y1="86.0986" y2="767.0732"/><line style="stroke:#0A9EFD;stroke-width:0.5;stroke-dasharray:5.0,5.0;" x1="605" x2="605" y1="86.0986" y2="767.0732"/><text fill="#0A9EFD" font-family="Arial" font-size="14" lengthAdjust="spacing" textLength="30" x="20" y="83.1318">User</text><ellipse cx="38" cy="16" fill="none" rx="8" ry="8" style="stroke:#0A9EFD;stroke-width:3.0;"/><path d="M38,24 L38,51 M25,32 L51,32 M38,51 L25,66 M38,51 L51,66 " fill="none" style="stroke:#0A9EFD;stroke-width:3.0;"/><text fill="#0A9EFD" font-family="Arial" font-size="14" lengthAdjust="spacing" textLength="30" x="20" y="779.2051">User</text><ellipse cx="38" cy="793.1719" fill="none" rx="8" ry="8" style="stroke:#0A9EFD;stroke-width:3.0;"/><path d="M38,801.1719 L38,828.1719 M25,809.1719 L51,809.1719 M38,828.1719 L25,843.1719 M38,828.1719 L51,843.1719 " fill="none" style="stroke:#0A9EFD;stroke-width:3.0;"/><rect fill="none" height="30.0986" rx="2.5" ry="2.5" style="stroke:#0A9EFD;stroke-width:2.0;" width="82" x="116" y="55"/><text fill="#0A9EFD" font-family="Arial" font-size="14" lengthAdjust="spacing" textLength="68" x="123" y="75.1318">Video SDK</text><rect fill="none" height="30.0986" rx="2.5" ry="2.5" style="stroke:#0A9EFD;stroke-width:2.0;" width="82" x="116" y="766.0732"/><text fill="#0A9EFD" font-family="Arial" font-size="14" lengthAdjust="spacing" textLength="68" x="123" y="786.2051">Video SDK</text><rect fill="none" height="30.0986" rx="2.5" ry="2.5" style="stroke:#0A9EFD;stroke-width:2.0;" width="72" x="569" y="55"/><text fill="#0A9EFD" font-family="Arial" font-size="14" lengthAdjust="spacing" textLength="58" x="576" y="75.1318">SDRTN&#174;</text><rect fill="none" height="30.0986" rx="2.5" ry="2.5" style="stroke:#0A9EFD;stroke-width:2.0;" width="72" x="569" y="766.0732"/><text fill="#0A9EFD" font-family="Arial" font-size="14" lengthAdjust="spacing" textLength="58" x="576" y="786.2051">SDRTN&#174;</text><polygon fill="#0A9EFD" points="145,113.0474,155,117.0474,145,121.0474,149,117.0474" style="stroke:#0A9EFD;stroke-width:1.0;"/><line style="stroke:#0A9EFD;stroke-width:2.0;" x1="38" x2="151" y1="117.0474" y2="117.0474"/><text fill="#0A9EFD" font-family="Arial" font-size="13" lengthAdjust="spacing" textLength="56" x="69.5" y="112.2925">Open app</text><line style="stroke:#0A9EFD;stroke-width:2.0;" x1="157" x2="199" y1="145.9961" y2="145.9961"/><line style="stroke:#0A9EFD;stroke-width:2.0;" x1="199" x2="199" y1="145.9961" y2="158.9961"/><line style="stroke:#0A9EFD;stroke-width:2.0;" x1="158" x2="199" y1="158.9961" y2="158.9961"/><polygon fill="#0A9EFD" points="168,154.9961,158,158.9961,168,162.9961,164,158.9961" style="stroke:#0A9EFD;stroke-width:1.0;"/><text fill="#0A9EFD" font-family="Arial" font-size="13" lengthAdjust="spacing" textLength="175" x="164" y="141.2412">Initiate the Video SDK engine.</text><line style="stroke:#0A9EFD;stroke-width:2.0;" x1="157" x2="199" y1="187.9448" y2="187.9448"/><line style="stroke:#0A9EFD;stroke-width:2.0;" x1="199" x2="199" y1="187.9448" y2="200.9448"/><line style="stroke:#0A9EFD;stroke-width:2.0;" x1="158" x2="199" y1="200.9448" y2="200.9448"/><polygon fill="#0A9EFD" points="168,196.9448,158,200.9448,168,204.9448,164,200.9448" style="stroke:#0A9EFD;stroke-width:1.0;"/><text fill="#0A9EFD" font-family="Arial" font-size="13" lengthAdjust="spacing" textLength="145" x="164" y="183.1899">Start video in the engine.</text><path d="M10,215.9448 L82,215.9448 L82,222.8936 L72,232.8936 L10,232.8936 L10,215.9448 " fill="#EEEEEE" style="stroke:#0A9EFD;stroke-width:1.5;"/><rect fill="none" height="187.6924" style="stroke:#0A9EFD;stroke-width:2.0;" width="641" x="10" y="215.9448"/><text fill="#000000" font-family="Arial" font-size="13" lengthAdjust="spacing" textLength="27" x="25" y="229.1387">Host</text><polygon fill="#0A9EFD" points="145,249.8423,155,253.8423,145,257.8423,149,253.8423" style="stroke:#0A9EFD;stroke-width:1.0;"/><line style="stroke:#0A9EFD;stroke-width:2.0;" x1="38" x2="151" y1="253.8423" y2="253.8423"/><text fill="#0A9EFD" font-family="Arial" font-size="13" lengthAdjust="spacing" textLength="88" x="53.5" y="249.0874">Start ILS event</text><line style="stroke:#0A9EFD;stroke-width:2.0;" x1="157" x2="199" y1="282.791" y2="282.791"/><line style="stroke:#0A9EFD;stroke-width:2.0;" x1="199" x2="199" y1="282.791" y2="295.791"/><line style="stroke:#0A9EFD;stroke-width:2.0;" x1="158" x2="199" y1="295.791" y2="295.791"/><polygon fill="#0A9EFD" points="168,291.791,158,295.791,168,299.791,164,295.791" style="stroke:#0A9EFD;stroke-width:1.0;"/><text fill="#0A9EFD" font-family="Arial" font-size="13" lengthAdjust="spacing" textLength="330" x="164" y="278.0361">In an ILS event, only the hosts broadcast to the channel.</text><line style="stroke:#0A9EFD;stroke-width:2.0;" x1="157" x2="199" y1="324.7397" y2="324.7397"/><line style="stroke:#0A9EFD;stroke-width:2.0;" x1="199" x2="199" y1="324.7397" y2="337.7397"/><line style="stroke:#0A9EFD;stroke-width:2.0;" x1="158" x2="199" y1="337.7397" y2="337.7397"/><polygon fill="#0A9EFD" points="168,333.7397,158,337.7397,168,341.7397,164,337.7397" style="stroke:#0A9EFD;stroke-width:1.0;"/><text fill="#0A9EFD" font-family="Arial" font-size="13" lengthAdjust="spacing" textLength="98" x="164" y="319.9849">Start local video.</text><polygon fill="#0A9EFD" points="593,362.6885,603,366.6885,593,370.6885,597,366.6885" style="stroke:#0A9EFD;stroke-width:1.0;"/><line style="stroke:#0A9EFD;stroke-width:2.0;" x1="157" x2="599" y1="366.6885" y2="366.6885"/><text fill="#0A9EFD" font-family="Arial" font-size="13" lengthAdjust="spacing" textLength="99" x="331.5" y="361.9336">Join the channel.</text><polygon fill="#0A9EFD" points="593,391.6372,603,395.6372,593,399.6372,597,395.6372" style="stroke:#0A9EFD;stroke-width:1.0;"/><line style="stroke:#0A9EFD;stroke-width:2.0;" x1="157" x2="599" y1="395.6372" y2="395.6372"/><text fill="#0A9EFD" font-family="Arial" font-size="13" lengthAdjust="spacing" textLength="107" x="327.5" y="390.8823">Send data stream.</text><path d="M10,417.6372 L109,417.6372 L109,424.5859 L99,434.5859 L10,434.5859 L10,417.6372 " fill="#EEEEEE" style="stroke:#0A9EFD;stroke-width:1.5;"/><rect fill="none" height="174.6924" style="stroke:#0A9EFD;stroke-width:2.0;" width="641" x="10" y="417.6372"/><text fill="#000000" font-family="Arial" font-size="13" lengthAdjust="spacing" textLength="54" x="25" y="430.8311">Audience</text><polygon fill="#0A9EFD" points="145,451.5347,155,455.5347,145,459.5347,149,455.5347" style="stroke:#0A9EFD;stroke-width:1.0;"/><line style="stroke:#0A9EFD;stroke-width:2.0;" x1="38" x2="151" y1="455.5347" y2="455.5347"/><text fill="#0A9EFD" font-family="Arial" font-size="13" lengthAdjust="spacing" textLength="84" x="55.5" y="450.7798">Join ILS event</text><line style="stroke:#0A9EFD;stroke-width:2.0;" x1="157" x2="199" y1="484.4834" y2="484.4834"/><line style="stroke:#0A9EFD;stroke-width:2.0;" x1="199" x2="199" y1="484.4834" y2="497.4834"/><line style="stroke:#0A9EFD;stroke-width:2.0;" x1="158" x2="199" y1="497.4834" y2="497.4834"/><polygon fill="#0A9EFD" points="168,493.4834,158,497.4834,168,501.4834,164,497.4834" style="stroke:#0A9EFD;stroke-width:1.0;"/><text fill="#0A9EFD" font-family="Arial" font-size="13" lengthAdjust="spacing" textLength="434" x="164" y="479.7285">In an ILS event, the audience views the broadcast made by channel hosts.</text><polygon fill="#0A9EFD" points="593,522.4321,603,526.4321,593,530.4321,597,526.4321" style="stroke:#0A9EFD;stroke-width:1.0;"/><line style="stroke:#0A9EFD;stroke-width:2.0;" x1="157" x2="599" y1="526.4321" y2="526.4321"/><text fill="#0A9EFD" font-family="Arial" font-size="13" lengthAdjust="spacing" textLength="99" x="331.5" y="521.6772">Join the channel.</text><polygon fill="#0A9EFD" points="593,551.3809,603,555.3809,593,559.3809,597,555.3809" style="stroke:#0A9EFD;stroke-width:1.0;"/><line style="stroke:#0A9EFD;stroke-width:2.0;" x1="157" x2="599" y1="555.3809" y2="555.3809"/><text fill="#0A9EFD" font-family="Arial" font-size="13" lengthAdjust="spacing" textLength="227" x="267.5" y="550.626">Retrieve streaming from the other user.</text><polygon fill="#0A9EFD" points="168,580.3296,158,584.3296,168,588.3296,164,584.3296" style="stroke:#0A9EFD;stroke-width:1.0;"/><polygon fill="#0A9EFD" points="593,580.3296,603,584.3296,593,588.3296,597,584.3296" style="stroke:#0A9EFD;stroke-width:1.0;"/><line style="stroke:#0A9EFD;stroke-width:2.0;" x1="162" x2="599" y1="584.3296" y2="584.3296"/><text fill="#0A9EFD" font-family="Arial" font-size="13" lengthAdjust="spacing" textLength="127" x="317.5" y="579.5747">Receive data streams</text><polygon fill="#0A9EFD" points="145,616.2783,155,620.2783,145,624.2783,149,620.2783" style="stroke:#0A9EFD;stroke-width:1.0;"/><line style="stroke:#0A9EFD;stroke-width:2.0;" x1="38" x2="151" y1="620.2783" y2="620.2783"/><text fill="#0A9EFD" font-family="Arial" font-size="13" lengthAdjust="spacing" textLength="95" x="50" y="615.5234">Leave ILS event</text><polygon fill="#0A9EFD" points="593,645.2271,603,649.2271,593,653.2271,597,649.2271" style="stroke:#0A9EFD;stroke-width:1.0;"/><line style="stroke:#0A9EFD;stroke-width:2.0;" x1="157" x2="599" y1="649.2271" y2="649.2271"/><text fill="#0A9EFD" font-family="Arial" font-size="13" lengthAdjust="spacing" textLength="97" x="332.5" y="644.4722">Stop local video.</text><polygon fill="#0A9EFD" points="593,674.1758,603,678.1758,593,682.1758,597,678.1758" style="stroke:#0A9EFD;stroke-width:1.0;"/><line style="stroke:#0A9EFD;stroke-width:2.0;" x1="157" x2="599" y1="678.1758" y2="678.1758"/><text fill="#0A9EFD" font-family="Arial" font-size="13" lengthAdjust="spacing" textLength="110" x="326" y="673.4209">Leave the channel.</text><polygon fill="#0A9EFD" points="145,703.1245,155,707.1245,145,711.1245,149,707.1245" style="stroke:#0A9EFD;stroke-width:1.0;"/><line style="stroke:#0A9EFD;stroke-width:2.0;" x1="38" x2="151" y1="707.1245" y2="707.1245"/><text fill="#0A9EFD" font-family="Arial" font-size="13" lengthAdjust="spacing" textLength="58" x="68.5" y="702.3696">Close app</text><line style="stroke:#0A9EFD;stroke-width:2.0;" x1="157" x2="199" y1="736.0732" y2="736.0732"/><line style="stroke:#0A9EFD;stroke-width:2.0;" x1="199" x2="199" y1="736.0732" y2="749.0732"/><line style="stroke:#0A9EFD;stroke-width:2.0;" x1="158" x2="199" y1="749.0732" y2="749.0732"/><polygon fill="#0A9EFD" points="168,745.0732,158,749.0732,168,753.0732,164,749.0732" style="stroke:#0A9EFD;stroke-width:1.0;"/><text fill="#0A9EFD" font-family="Arial" font-size="13" lengthAdjust="spacing" textLength="147" x="164" y="731.3184">Clean up local resources.</text><!--SRC=[bLFDJiCm3BxdAKpFhBjF26dQ3XGcc5g6n0bvgUcYjKcLf8Ez50_1av7qPskt8S6bKcn_VvPx9IJFgvGW3CSxaP8QcNGxnanfV3DR8KDH5JbZoAtI4AmCwG3Gm2g96LkhJmXULQK1op9Wh4Hj1HSbIWl1YoU3PFvGpq-NIyP8fk0mBN3gDKvHoJn-Vlp-QZ5H3-CKONJhYIRmL9Bqcioz3iL82YlG4jWDmK4TI6P2KZWOJQpJX3ek25a3kZ6MQLMLSAUC7KWsa6YH0Er8sXDbG7diNOEI-RvctJWQ0skjCELeB5XLb_a6fQJyagbSSSmRQxrsD85xrJez1xjkulUKeaKmLXCMeLzS5sPQfO8afq6Wck-FURmijYJE6tsOkdJCLQ2xeFM-yzRa_e__cAmMJgsrBsG6xreLDK2vZuRAdPx7H73J-Oo9at2ONcx3ck3zf0j2DtGXgj-RLUNlEs-G0zC3vbck39qTuYmdjxwguzLat2_2oUtZ1m00]--></g></svg>