<?xml version="1.0" encoding="us-ascii" standalone="no"?><svg xmlns="http://www.w3.org/2000/svg" xmlns:xlink="http://www.w3.org/1999/xlink" contentStyleType="text/css" height="1064px" preserveAspectRatio="none" style="width:652px;height:1064px;" version="1.1" viewBox="0 0 652 1064" width="652px" zoomAndPan="magnify"><defs/><g><rect fill="none" height="1062.6592" style="stroke:#0A9EFD;stroke-width:1.0;" width="650.5" x="0" y="0"/><rect fill="#999999" fill-opacity="0.33333" height="1052.6592" style="stroke:#0A9EFD;stroke-width:0.5;" width="90" x="208.5" y="6"/><text fill="#0A9EFD" font-family="sans-serif" font-size="13" font-weight="bold" lengthAdjust="spacing" textLength="57" x="225" y="19.4951">Your app</text><rect fill="#999999" fill-opacity="0.33333" height="1052.6592" style="stroke:#0A9EFD;stroke-width:0.5;" width="74" x="474.5" y="6"/><text fill="#0A9EFD" font-family="sans-serif" font-size="13" font-weight="bold" lengthAdjust="spacing" textLength="38" x="492.5" y="19.4951">Agora</text><rect fill="#0A9EFD" fill-opacity="0.06667" height="132.7437" style="stroke:#0A9EFD;stroke-width:2.0;" width="544.5" x="10" y="173.9961"/><rect fill="#0A9EFD" fill-opacity="0.06667" height="304.3848" style="stroke:#0A9EFD;stroke-width:2.0;" width="636.5" x="10" y="320.7397"/><rect fill="#0A9EFD" fill-opacity="0.06667" height="231.5898" style="stroke:#0A9EFD;stroke-width:2.0;" width="544.5" x="10" y="639.1245"/><line style="stroke:#0A9EFD;stroke-width:0.5;stroke-dasharray:5.0,5.0;" x1="37" x2="37" y1="86.0986" y2="974.5605"/><line style="stroke:#0A9EFD;stroke-width:0.5;stroke-dasharray:5.0,5.0;" x1="253.5" x2="253.5" y1="86.0986" y2="974.5605"/><line style="stroke:#0A9EFD;stroke-width:0.5;stroke-dasharray:5.0,5.0;" x1="511.5" x2="511.5" y1="86.0986" y2="974.5605"/><text fill="#0A9EFD" font-family="Arial" font-size="14" lengthAdjust="spacing" textLength="29" x="20" y="83.1318">User</text><ellipse cx="37.5" cy="16" fill="none" rx="8" ry="8" style="stroke:#0A9EFD;stroke-width:3.0;"/><path d="M37.5,24 L37.5,51 M24.5,32 L50.5,32 M37.5,51 L24.5,66 M37.5,51 L50.5,66 " fill="none" style="stroke:#0A9EFD;stroke-width:3.0;"/><text fill="#0A9EFD" font-family="Arial" font-size="14" lengthAdjust="spacing" textLength="29" x="20" y="986.6924">User</text><ellipse cx="37.5" cy="1000.6592" fill="none" rx="8" ry="8" style="stroke:#0A9EFD;stroke-width:3.0;"/><path d="M37.5,1008.6592 L37.5,1035.6592 M24.5,1016.6592 L50.5,1016.6592 M37.5,1035.6592 L24.5,1050.6592 M37.5,1035.6592 L50.5,1050.6592 " fill="none" style="stroke:#0A9EFD;stroke-width:3.0;"/><rect fill="none" height="30.0986" rx="2.5" ry="2.5" style="stroke:#0A9EFD;stroke-width:2.0;" width="82" x="212.5" y="55"/><text fill="#0A9EFD" font-family="Arial" font-size="14" lengthAdjust="spacing" textLength="68" x="219.5" y="75.1318">Video SDK</text><rect fill="none" height="30.0986" rx="2.5" ry="2.5" style="stroke:#0A9EFD;stroke-width:2.0;" width="82" x="212.5" y="973.5605"/><text fill="#0A9EFD" font-family="Arial" font-size="14" lengthAdjust="spacing" textLength="68" x="219.5" y="993.6924">Video SDK</text><rect fill="none" height="30.0986" rx="2.5" ry="2.5" style="stroke:#0A9EFD;stroke-width:2.0;" width="66" x="478.5" y="55"/><text fill="#0A9EFD" font-family="Arial" font-size="14" lengthAdjust="spacing" textLength="52" x="485.5" y="75.1318">SD-RTN</text><rect fill="none" height="30.0986" rx="2.5" ry="2.5" style="stroke:#0A9EFD;stroke-width:2.0;" width="66" x="478.5" y="973.5605"/><text fill="#0A9EFD" font-family="Arial" font-size="14" lengthAdjust="spacing" textLength="52" x="485.5" y="993.6924">SD-RTN</text><polygon fill="#0A9EFD" points="241.5,113.0474,251.5,117.0474,241.5,121.0474,245.5,117.0474" style="stroke:#0A9EFD;stroke-width:1.0;"/><line style="stroke:#0A9EFD;stroke-width:2.0;" x1="37.5" x2="247.5" y1="117.0474" y2="117.0474"/><text fill="#0A9EFD" font-family="Arial" font-size="13" lengthAdjust="spacing" textLength="58" x="116.5" y="112.2925">Open App</text><line style="stroke:#0A9EFD;stroke-width:2.0;" x1="253.5" x2="295.5" y1="145.9961" y2="145.9961"/><line style="stroke:#0A9EFD;stroke-width:2.0;" x1="295.5" x2="295.5" y1="145.9961" y2="158.9961"/><line style="stroke:#0A9EFD;stroke-width:2.0;" x1="254.5" x2="295.5" y1="158.9961" y2="158.9961"/><polygon fill="#0A9EFD" points="264.5,154.9961,254.5,158.9961,264.5,162.9961,260.5,158.9961" style="stroke:#0A9EFD;stroke-width:1.0;"/><text fill="#0A9EFD" font-family="Arial" font-size="13" lengthAdjust="spacing" textLength="140" x="260.5" y="141.2412">Initiate the Agora engine</text><path d="M10,173.9961 L138,173.9961 L138,180.9448 L128,190.9448 L10,190.9448 L10,173.9961 " fill="#EEEEEE" style="stroke:#0A9EFD;stroke-width:1.5;"/><rect fill="none" height="132.7437" style="stroke:#0A9EFD;stroke-width:2.0;" width="544.5" x="10" y="173.9961"/><text fill="#000000" font-family="Arial" font-size="13" lengthAdjust="spacing" textLength="83" x="25" y="187.1899">Join a channel</text><polygon fill="#0A9EFD" points="241.5,207.8936,251.5,211.8936,241.5,215.8936,245.5,211.8936" style="stroke:#0A9EFD;stroke-width:1.0;"/><line style="stroke:#0A9EFD;stroke-width:2.0;" x1="37.5" x2="247.5" y1="211.8936" y2="211.8936"/><text fill="#0A9EFD" font-family="Arial" font-size="13" lengthAdjust="spacing" textLength="111" x="90" y="207.1387">Start live streaming</text><polygon fill="#0A9EFD" points="499.5,236.8423,509.5,240.8423,499.5,244.8423,503.5,240.8423" style="stroke:#0A9EFD;stroke-width:1.0;"/><line style="stroke:#0A9EFD;stroke-width:2.0;" x1="253.5" x2="505.5" y1="240.8423" y2="240.8423"/><text fill="#0A9EFD" font-family="Arial" font-size="13" lengthAdjust="spacing" textLength="143" x="311" y="236.0874">Set the user role as host</text><polygon fill="#0A9EFD" points="499.5,265.791,509.5,269.791,499.5,273.791,503.5,269.791" style="stroke:#0A9EFD;stroke-width:1.0;"/><line style="stroke:#0A9EFD;stroke-width:2.0;" x1="253.5" x2="505.5" y1="269.791" y2="269.791"/><text fill="#0A9EFD" font-family="Arial" font-size="13" lengthAdjust="spacing" textLength="130" x="317.5" y="265.0361">Join a channel as host</text><polygon fill="#0A9EFD" points="499.5,294.7397,509.5,298.7397,499.5,302.7397,503.5,298.7397" style="stroke:#0A9EFD;stroke-width:1.0;"/><line style="stroke:#0A9EFD;stroke-width:2.0;" x1="253.5" x2="505.5" y1="298.7397" y2="298.7397"/><text fill="#0A9EFD" font-family="Arial" font-size="13" lengthAdjust="spacing" textLength="199" x="283" y="293.9849">Publish local media to the channel</text><path d="M10,320.7397 L173,320.7397 L173,327.6885 L163,337.6885 L10,337.6885 L10,320.7397 " fill="#EEEEEE" style="stroke:#0A9EFD;stroke-width:1.5;"/><rect fill="none" height="304.3848" style="stroke:#0A9EFD;stroke-width:2.0;" width="636.5" x="10" y="320.7397"/><text fill="#000000" font-family="Arial" font-size="13" lengthAdjust="spacing" textLength="118" x="25" y="333.9336">Channel media relay</text><polygon fill="#0A9EFD" points="241.5,354.6372,251.5,358.6372,241.5,362.6372,245.5,358.6372" style="stroke:#0A9EFD;stroke-width:1.0;"/><line style="stroke:#0A9EFD;stroke-width:2.0;" x1="37.5" x2="247.5" y1="358.6372" y2="358.6372"/><text fill="#0A9EFD" font-family="Arial" font-size="13" lengthAdjust="spacing" textLength="192" x="49.5" y="353.8823">Start multi-channel live streaming</text><line style="stroke:#0A9EFD;stroke-width:2.0;" x1="253.5" x2="295.5" y1="402.5347" y2="402.5347"/><line style="stroke:#0A9EFD;stroke-width:2.0;" x1="295.5" x2="295.5" y1="402.5347" y2="415.5347"/><line style="stroke:#0A9EFD;stroke-width:2.0;" x1="254.5" x2="295.5" y1="415.5347" y2="415.5347"/><polygon fill="#0A9EFD" points="264.5,411.5347,254.5,415.5347,264.5,419.5347,260.5,415.5347" style="stroke:#0A9EFD;stroke-width:1.0;"/><text fill="#0A9EFD" font-family="Arial" font-size="13" lengthAdjust="spacing" textLength="162" x="285.5" y="382.8311">Set the source channel info:</text><text fill="#0A9EFD" font-family="Arial" font-size="13" lengthAdjust="spacing" textLength="216" x="260.5" y="397.7798">Source channel name, token, and uid</text><line style="stroke:#0A9EFD;stroke-width:2.0;" x1="253.5" x2="295.5" y1="459.4321" y2="459.4321"/><line style="stroke:#0A9EFD;stroke-width:2.0;" x1="295.5" x2="295.5" y1="459.4321" y2="472.4321"/><line style="stroke:#0A9EFD;stroke-width:2.0;" x1="254.5" x2="295.5" y1="472.4321" y2="472.4321"/><polygon fill="#0A9EFD" points="264.5,468.4321,254.5,472.4321,264.5,476.4321,260.5,472.4321" style="stroke:#0A9EFD;stroke-width:1.0;"/><text fill="#0A9EFD" font-family="Arial" font-size="13" lengthAdjust="spacing" textLength="186" x="287.5" y="439.7285">Set the destination channel info:</text><text fill="#0A9EFD" font-family="Arial" font-size="13" lengthAdjust="spacing" textLength="240" x="264.5" y="454.6772">Destination channel name, token, and uid</text><polygon fill="#0A9EFD" points="499.5,512.3296,509.5,516.3296,499.5,520.3296,503.5,516.3296" style="stroke:#0A9EFD;stroke-width:1.0;"/><line style="stroke:#0A9EFD;stroke-width:2.0;" x1="253.5" x2="505.5" y1="516.3296" y2="516.3296"/><text fill="#0A9EFD" font-family="Arial" font-size="13" lengthAdjust="spacing" textLength="106" x="327.5" y="496.626">Call the method to</text><text fill="#0A9EFD" font-family="Arial" font-size="13" lengthAdjust="spacing" textLength="114" x="325.5" y="511.5747">start media relaying</text><line style="stroke:#0A9EFD;stroke-width:2.0;" x1="511.5" x2="553.5" y1="560.2271" y2="560.2271"/><line style="stroke:#0A9EFD;stroke-width:2.0;" x1="553.5" x2="553.5" y1="560.2271" y2="573.2271"/><line style="stroke:#0A9EFD;stroke-width:2.0;" x1="512.5" x2="553.5" y1="573.2271" y2="573.2271"/><polygon fill="#0A9EFD" points="522.5,569.2271,512.5,573.2271,522.5,577.2271,518.5,573.2271" style="stroke:#0A9EFD;stroke-width:1.0;"/><text fill="#0A9EFD" font-family="Arial" font-size="13" lengthAdjust="spacing" textLength="114" x="519.5" y="540.5234">Relay stream to the</text><text fill="#0A9EFD" font-family="Arial" font-size="13" lengthAdjust="spacing" textLength="112" x="522.5" y="555.4722">destination channel</text><polygon fill="#0A9EFD" points="264.5,613.1245,254.5,617.1245,264.5,621.1245,260.5,617.1245" style="stroke:#0A9EFD;stroke-width:1.0;"/><line style="stroke:#0A9EFD;stroke-width:2.0;" x1="258.5" x2="510.5" y1="617.1245" y2="617.1245"/><text fill="#0A9EFD" font-family="Arial" font-size="13" lengthAdjust="spacing" textLength="148" x="308.5" y="597.4209">Report the media relaying</text><text fill="#0A9EFD" font-family="Arial" font-size="13" lengthAdjust="spacing" textLength="175" x="297" y="612.3696">state with a callback functions</text><path d="M10,639.1245 L183,639.1245 L183,646.0732 L173,656.0732 L10,656.0732 L10,639.1245 " fill="#EEEEEE" style="stroke:#0A9EFD;stroke-width:1.5;"/><rect fill="none" height="231.5898" style="stroke:#0A9EFD;stroke-width:2.0;" width="544.5" x="10" y="639.1245"/><text fill="#000000" font-family="Arial" font-size="13" lengthAdjust="spacing" textLength="128" x="25" y="652.3184">Join multiple channels</text><polygon fill="#0A9EFD" points="241.5,673.022,251.5,677.022,241.5,681.022,245.5,677.022" style="stroke:#0A9EFD;stroke-width:1.0;"/><line style="stroke:#0A9EFD;stroke-width:2.0;" x1="37.5" x2="247.5" y1="677.022" y2="677.022"/><text fill="#0A9EFD" font-family="Arial" font-size="13" lengthAdjust="spacing" textLength="192" x="49.5" y="672.2671">Start multi-channel live streaming</text><line style="stroke:#0A9EFD;stroke-width:2.0;" x1="253.5" x2="295.5" y1="705.9707" y2="705.9707"/><line style="stroke:#0A9EFD;stroke-width:2.0;" x1="295.5" x2="295.5" y1="705.9707" y2="718.9707"/><line style="stroke:#0A9EFD;stroke-width:2.0;" x1="254.5" x2="295.5" y1="718.9707" y2="718.9707"/><polygon fill="#0A9EFD" points="264.5,714.9707,254.5,718.9707,264.5,722.9707,260.5,718.9707" style="stroke:#0A9EFD;stroke-width:1.0;"/><text fill="#0A9EFD" font-family="Arial" font-size="13" lengthAdjust="spacing" textLength="125" x="260.5" y="701.2158">Create a new channel</text><line style="stroke:#0A9EFD;stroke-width:2.0;" x1="253.5" x2="295.5" y1="762.8682" y2="762.8682"/><line style="stroke:#0A9EFD;stroke-width:2.0;" x1="295.5" x2="295.5" y1="762.8682" y2="775.8682"/><line style="stroke:#0A9EFD;stroke-width:2.0;" x1="254.5" x2="295.5" y1="775.8682" y2="775.8682"/><polygon fill="#0A9EFD" points="264.5,771.8682,254.5,775.8682,264.5,779.8682,260.5,775.8682" style="stroke:#0A9EFD;stroke-width:1.0;"/><text fill="#0A9EFD" font-family="Arial" font-size="13" lengthAdjust="spacing" textLength="143" x="260.5" y="743.1646">Set the user role as host</text><text fill="#0A9EFD" font-family="Arial" font-size="13" lengthAdjust="spacing" textLength="112" x="278" y="758.1133">for the new channel</text><polygon fill="#0A9EFD" points="499.5,800.8169,509.5,804.8169,499.5,808.8169,503.5,804.8169" style="stroke:#0A9EFD;stroke-width:1.0;"/><line style="stroke:#0A9EFD;stroke-width:2.0;" x1="253.5" x2="505.5" y1="804.8169" y2="804.8169"/><text fill="#0A9EFD" font-family="Arial" font-size="13" lengthAdjust="spacing" textLength="121" x="322" y="800.062">Join the new channel</text><polygon fill="#0A9EFD" points="264.5,829.7656,254.5,833.7656,264.5,837.7656,260.5,833.7656" style="stroke:#0A9EFD;stroke-width:1.0;"/><line style="stroke:#0A9EFD;stroke-width:2.0;" x1="258.5" x2="510.5" y1="833.7656" y2="833.7656"/><text fill="#0A9EFD" font-family="Arial" font-size="13" lengthAdjust="spacing" textLength="80" x="342.5" y="829.0107">Join accepted</text><polygon fill="#0A9EFD" points="499.5,858.7144,509.5,862.7144,499.5,866.7144,503.5,862.7144" style="stroke:#0A9EFD;stroke-width:1.0;"/><line style="stroke:#0A9EFD;stroke-width:2.0;" x1="253.5" x2="505.5" y1="862.7144" y2="862.7144"/><text fill="#0A9EFD" font-family="Arial" font-size="13" lengthAdjust="spacing" textLength="156" x="304.5" y="857.9595">Publish to the new channel</text><polygon fill="#0A9EFD" points="241.5,894.6631,251.5,898.6631,241.5,902.6631,245.5,898.6631" style="stroke:#0A9EFD;stroke-width:1.0;"/><line style="stroke:#0A9EFD;stroke-width:2.0;" x1="37.5" x2="247.5" y1="898.6631" y2="898.6631"/><text fill="#0A9EFD" font-family="Arial" font-size="13" lengthAdjust="spacing" textLength="172" x="59.5" y="893.9082">Leave the live streaming event</text><polygon fill="#0A9EFD" points="499.5,923.6118,509.5,927.6118,499.5,931.6118,503.5,927.6118" style="stroke:#0A9EFD;stroke-width:1.0;"/><line style="stroke:#0A9EFD;stroke-width:2.0;" x1="253.5" x2="505.5" y1="927.6118" y2="927.6118"/><text fill="#0A9EFD" font-family="Arial" font-size="13" lengthAdjust="spacing" textLength="115" x="325" y="922.8569">Stop media relaying</text><polygon fill="#0A9EFD" points="499.5,952.5605,509.5,956.5605,499.5,960.5605,503.5,956.5605" style="stroke:#0A9EFD;stroke-width:1.0;"/><line style="stroke:#0A9EFD;stroke-width:2.0;" x1="253.5" x2="505.5" y1="956.5605" y2="956.5605"/><text fill="#0A9EFD" font-family="Arial" font-size="13" lengthAdjust="spacing" textLength="128" x="318.5" y="951.8057">Leave all the channels</text><!--SRC=[fLFBZjim3BphArYVD_s0FHG8aalQeZNYtG855YWOcOc9o9HWoTdjtrT-n8-rsqkFaZZ3cI7rWKMREYV0Ywtmbx-oVEIwD4gX3hQ2vDbJbG1wUCwEIfti6oG_RLq1EfSevR0AhDcX14X-S4uMilsNjdwRfagHv10nFN3Rz7YFolQRuzEt7dAOG693s7ngU1xXkoE1hNCgdeRBWt1W30IX86YvWUJ2GkfIsTh1Pyi22Bf04J8plYn42M3uHk13HLYoN4RkGooWqDBMqJvKrb2Zhx0-pAhc7LPBqlfas1TWh4O39UMC46pBVHSM7QjUygvdwkegClXxHNTPcy2RUzU_kKX75pvEJ0yDWULi7-55ilcrO4aFKToLv04mZg7cV9Kk9nzOCB2L1IViLnx_pHnJsg4nBNL9eR1vaz2B-Cxi64Ldxp2WZirbRxqFDGfOKJUYqWRbR1NwRbFkY8qjupwzSYYQiKPH9zHNEDUY6pe_7LKx-tOIpWmP-l-PrYvUnku8GgyJvSly5qiPbP_ZPstU9bXOxkgxYbaktJ9hJIvGlhh3_TvE2Tf0ffw_4jww7pbt2dGZcN-DB5Yt7E_utb7TDsD8-0y0]--></g></svg>