<?xml version="1.0" encoding="us-ascii" standalone="no"?><svg xmlns="http://www.w3.org/2000/svg" xmlns:xlink="http://www.w3.org/1999/xlink" contentStyleType="text/css" height="1064px" preserveAspectRatio="none" style="width:655px;height:1064px;" version="1.1" viewBox="0 0 655 1064" width="655px" zoomAndPan="magnify"><defs/><g><rect fill="none" height="1062.6592" style="stroke:#0A9EFD;stroke-width:1.0;" width="653" x="0" y="0"/><rect fill="#999999" fill-opacity="0.33333" height="1052.6592" style="stroke:#0A9EFD;stroke-width:0.5;" width="90" x="211" y="6"/><text fill="#0A9EFD" font-family="sans-serif" font-size="13" font-weight="bold" lengthAdjust="spacing" textLength="62" x="225" y="18.5684">Your app</text><rect fill="#999999" fill-opacity="0.33333" height="1052.6592" style="stroke:#0A9EFD;stroke-width:0.5;" width="80" x="474" y="6"/><text fill="#0A9EFD" font-family="sans-serif" font-size="13" font-weight="bold" lengthAdjust="spacing" textLength="41" x="493.5" y="18.5684">Agora</text><rect fill="#0A9EFD" fill-opacity="0.06667" height="132.7437" style="stroke:#0A9EFD;stroke-width:2.0;" width="550" x="10" y="173.9961"/><rect fill="#0A9EFD" fill-opacity="0.06667" height="304.3848" style="stroke:#0A9EFD;stroke-width:2.0;" width="639" x="10" y="320.7397"/><rect fill="#0A9EFD" fill-opacity="0.06667" height="231.5898" style="stroke:#0A9EFD;stroke-width:2.0;" width="550" x="10" y="639.1245"/><line style="stroke:#0A9EFD;stroke-width:0.5;stroke-dasharray:5.0,5.0;" x1="38" x2="38" y1="86.0986" y2="974.5605"/><line style="stroke:#0A9EFD;stroke-width:0.5;stroke-dasharray:5.0,5.0;" x1="256" x2="256" y1="86.0986" y2="974.5605"/><line style="stroke:#0A9EFD;stroke-width:0.5;stroke-dasharray:5.0,5.0;" x1="514" x2="514" y1="86.0986" y2="974.5605"/><text fill="#0A9EFD" font-family="Arial" font-size="14" lengthAdjust="spacing" textLength="30" x="20" y="83.1318">User</text><ellipse cx="38" cy="16" fill="none" rx="8" ry="8" style="stroke:#0A9EFD;stroke-width:3.0;"/><path d="M38,24 L38,51 M25,32 L51,32 M38,51 L25,66 M38,51 L51,66 " fill="none" style="stroke:#0A9EFD;stroke-width:3.0;"/><text fill="#0A9EFD" font-family="Arial" font-size="14" lengthAdjust="spacing" textLength="30" x="20" y="986.6924">User</text><ellipse cx="38" cy="1000.6592" fill="none" rx="8" ry="8" style="stroke:#0A9EFD;stroke-width:3.0;"/><path d="M38,1008.6592 L38,1035.6592 M25,1016.6592 L51,1016.6592 M38,1035.6592 L25,1050.6592 M38,1035.6592 L51,1050.6592 " fill="none" style="stroke:#0A9EFD;stroke-width:3.0;"/><rect fill="none" height="30.0986" rx="2.5" ry="2.5" style="stroke:#0A9EFD;stroke-width:2.0;" width="82" x="215" y="55"/><text fill="#0A9EFD" font-family="Arial" font-size="14" lengthAdjust="spacing" textLength="68" x="222" y="75.1318">Video SDK</text><rect fill="none" height="30.0986" rx="2.5" ry="2.5" style="stroke:#0A9EFD;stroke-width:2.0;" width="82" x="215" y="973.5605"/><text fill="#0A9EFD" font-family="Arial" font-size="14" lengthAdjust="spacing" textLength="68" x="222" y="993.6924">Video SDK</text><rect fill="none" height="30.0986" rx="2.5" ry="2.5" style="stroke:#0A9EFD;stroke-width:2.0;" width="72" x="478" y="55"/><text fill="#0A9EFD" font-family="Arial" font-size="14" lengthAdjust="spacing" textLength="58" x="485" y="75.1318">SDRTN&#174;</text><rect fill="none" height="30.0986" rx="2.5" ry="2.5" style="stroke:#0A9EFD;stroke-width:2.0;" width="72" x="478" y="973.5605"/><text fill="#0A9EFD" font-family="Arial" font-size="14" lengthAdjust="spacing" textLength="58" x="485" y="993.6924">SDRTN&#174;</text><polygon fill="#0A9EFD" points="244,113.0474,254,117.0474,244,121.0474,248,117.0474" style="stroke:#0A9EFD;stroke-width:1.0;"/><line style="stroke:#0A9EFD;stroke-width:2.0;" x1="38" x2="250" y1="117.0474" y2="117.0474"/><text fill="#0A9EFD" font-family="Arial" font-size="13" lengthAdjust="spacing" textLength="58" x="118" y="112.2925">Open App</text><line style="stroke:#0A9EFD;stroke-width:2.0;" x1="256" x2="298" y1="145.9961" y2="145.9961"/><line style="stroke:#0A9EFD;stroke-width:2.0;" x1="298" x2="298" y1="145.9961" y2="158.9961"/><line style="stroke:#0A9EFD;stroke-width:2.0;" x1="257" x2="298" y1="158.9961" y2="158.9961"/><polygon fill="#0A9EFD" points="267,154.9961,257,158.9961,267,162.9961,263,158.9961" style="stroke:#0A9EFD;stroke-width:1.0;"/><text fill="#0A9EFD" font-family="Arial" font-size="13" lengthAdjust="spacing" textLength="141" x="263" y="141.2412">Initiate the Agora engine</text><path d="M10,173.9961 L139,173.9961 L139,180.9448 L129,190.9448 L10,190.9448 L10,173.9961 " fill="#EEEEEE" style="stroke:#0A9EFD;stroke-width:1.5;"/><rect fill="none" height="132.7437" style="stroke:#0A9EFD;stroke-width:2.0;" width="550" x="10" y="173.9961"/><text fill="#000000" font-family="Arial" font-size="13" lengthAdjust="spacing" textLength="84" x="25" y="187.1899">Join a channel</text><polygon fill="#0A9EFD" points="244,207.8936,254,211.8936,244,215.8936,248,211.8936" style="stroke:#0A9EFD;stroke-width:1.0;"/><line style="stroke:#0A9EFD;stroke-width:2.0;" x1="38" x2="250" y1="211.8936" y2="211.8936"/><text fill="#0A9EFD" font-family="Arial" font-size="13" lengthAdjust="spacing" textLength="113" x="90.5" y="207.1387">Start live streaming</text><polygon fill="#0A9EFD" points="502,236.8423,512,240.8423,502,244.8423,506,240.8423" style="stroke:#0A9EFD;stroke-width:1.0;"/><line style="stroke:#0A9EFD;stroke-width:2.0;" x1="256" x2="508" y1="240.8423" y2="240.8423"/><text fill="#0A9EFD" font-family="Arial" font-size="13" lengthAdjust="spacing" textLength="143" x="313.5" y="236.0874">Set the user role as host</text><polygon fill="#0A9EFD" points="502,265.791,512,269.791,502,273.791,506,269.791" style="stroke:#0A9EFD;stroke-width:1.0;"/><line style="stroke:#0A9EFD;stroke-width:2.0;" x1="256" x2="508" y1="269.791" y2="269.791"/><text fill="#0A9EFD" font-family="Arial" font-size="13" lengthAdjust="spacing" textLength="131" x="319.5" y="265.0361">Join a channel as host</text><polygon fill="#0A9EFD" points="502,294.7397,512,298.7397,502,302.7397,506,298.7397" style="stroke:#0A9EFD;stroke-width:1.0;"/><line style="stroke:#0A9EFD;stroke-width:2.0;" x1="256" x2="508" y1="298.7397" y2="298.7397"/><text fill="#0A9EFD" font-family="Arial" font-size="13" lengthAdjust="spacing" textLength="199" x="285.5" y="293.9849">Publish local media to the channel</text><path d="M10,320.7397 L173,320.7397 L173,327.6885 L163,337.6885 L10,337.6885 L10,320.7397 " fill="#EEEEEE" style="stroke:#0A9EFD;stroke-width:1.5;"/><rect fill="none" height="304.3848" style="stroke:#0A9EFD;stroke-width:2.0;" width="639" x="10" y="320.7397"/><text fill="#000000" font-family="Arial" font-size="13" lengthAdjust="spacing" textLength="118" x="25" y="333.9336">Channel media relay</text><polygon fill="#0A9EFD" points="244,354.6372,254,358.6372,244,362.6372,248,358.6372" style="stroke:#0A9EFD;stroke-width:1.0;"/><line style="stroke:#0A9EFD;stroke-width:2.0;" x1="38" x2="250" y1="358.6372" y2="358.6372"/><text fill="#0A9EFD" font-family="Arial" font-size="13" lengthAdjust="spacing" textLength="194" x="50" y="353.8823">Start multi-channel live streaming</text><line style="stroke:#0A9EFD;stroke-width:2.0;" x1="256" x2="298" y1="402.5347" y2="402.5347"/><line style="stroke:#0A9EFD;stroke-width:2.0;" x1="298" x2="298" y1="402.5347" y2="415.5347"/><line style="stroke:#0A9EFD;stroke-width:2.0;" x1="257" x2="298" y1="415.5347" y2="415.5347"/><polygon fill="#0A9EFD" points="267,411.5347,257,415.5347,267,419.5347,263,415.5347" style="stroke:#0A9EFD;stroke-width:1.0;"/><text fill="#0A9EFD" font-family="Arial" font-size="13" lengthAdjust="spacing" textLength="163" x="287.5" y="382.8311">Set the source channel info:</text><text fill="#0A9EFD" font-family="Arial" font-size="13" lengthAdjust="spacing" textLength="216" x="263" y="397.7798">Source channel name, token, and uid</text><line style="stroke:#0A9EFD;stroke-width:2.0;" x1="256" x2="298" y1="459.4321" y2="459.4321"/><line style="stroke:#0A9EFD;stroke-width:2.0;" x1="298" x2="298" y1="459.4321" y2="472.4321"/><line style="stroke:#0A9EFD;stroke-width:2.0;" x1="257" x2="298" y1="472.4321" y2="472.4321"/><polygon fill="#0A9EFD" points="267,468.4321,257,472.4321,267,476.4321,263,472.4321" style="stroke:#0A9EFD;stroke-width:1.0;"/><text fill="#0A9EFD" font-family="Arial" font-size="13" lengthAdjust="spacing" textLength="187" x="289.5" y="439.7285">Set the destination channel info:</text><text fill="#0A9EFD" font-family="Arial" font-size="13" lengthAdjust="spacing" textLength="240" x="267" y="454.6772">Destination channel name, token, and uid</text><polygon fill="#0A9EFD" points="502,512.3296,512,516.3296,502,520.3296,506,516.3296" style="stroke:#0A9EFD;stroke-width:1.0;"/><line style="stroke:#0A9EFD;stroke-width:2.0;" x1="256" x2="508" y1="516.3296" y2="516.3296"/><text fill="#0A9EFD" font-family="Arial" font-size="13" lengthAdjust="spacing" textLength="106" x="330" y="496.626">Call the method to</text><text fill="#0A9EFD" font-family="Arial" font-size="13" lengthAdjust="spacing" textLength="114" x="328" y="511.5747">start media relaying</text><line style="stroke:#0A9EFD;stroke-width:2.0;" x1="514" x2="556" y1="560.2271" y2="560.2271"/><line style="stroke:#0A9EFD;stroke-width:2.0;" x1="556" x2="556" y1="560.2271" y2="573.2271"/><line style="stroke:#0A9EFD;stroke-width:2.0;" x1="515" x2="556" y1="573.2271" y2="573.2271"/><polygon fill="#0A9EFD" points="525,569.2271,515,573.2271,525,577.2271,521,573.2271" style="stroke:#0A9EFD;stroke-width:1.0;"/><text fill="#0A9EFD" font-family="Arial" font-size="13" lengthAdjust="spacing" textLength="114" x="522" y="540.5234">Relay stream to the</text><text fill="#0A9EFD" font-family="Arial" font-size="13" lengthAdjust="spacing" textLength="112" x="525" y="555.4722">destination channel</text><polygon fill="#0A9EFD" points="267,613.1245,257,617.1245,267,621.1245,263,617.1245" style="stroke:#0A9EFD;stroke-width:1.0;"/><line style="stroke:#0A9EFD;stroke-width:2.0;" x1="261" x2="513" y1="617.1245" y2="617.1245"/><text fill="#0A9EFD" font-family="Arial" font-size="13" lengthAdjust="spacing" textLength="148" x="311" y="597.4209">Report the media relaying</text><text fill="#0A9EFD" font-family="Arial" font-size="13" lengthAdjust="spacing" textLength="176" x="299" y="612.3696">state with a callback functions</text><path d="M10,639.1245 L184,639.1245 L184,646.0732 L174,656.0732 L10,656.0732 L10,639.1245 " fill="#EEEEEE" style="stroke:#0A9EFD;stroke-width:1.5;"/><rect fill="none" height="231.5898" style="stroke:#0A9EFD;stroke-width:2.0;" width="550" x="10" y="639.1245"/><text fill="#000000" font-family="Arial" font-size="13" lengthAdjust="spacing" textLength="129" x="25" y="652.3184">Join multiple channels</text><polygon fill="#0A9EFD" points="244,673.022,254,677.022,244,681.022,248,677.022" style="stroke:#0A9EFD;stroke-width:1.0;"/><line style="stroke:#0A9EFD;stroke-width:2.0;" x1="38" x2="250" y1="677.022" y2="677.022"/><text fill="#0A9EFD" font-family="Arial" font-size="13" lengthAdjust="spacing" textLength="194" x="50" y="672.2671">Start multi-channel live streaming</text><line style="stroke:#0A9EFD;stroke-width:2.0;" x1="256" x2="298" y1="705.9707" y2="705.9707"/><line style="stroke:#0A9EFD;stroke-width:2.0;" x1="298" x2="298" y1="705.9707" y2="718.9707"/><line style="stroke:#0A9EFD;stroke-width:2.0;" x1="257" x2="298" y1="718.9707" y2="718.9707"/><polygon fill="#0A9EFD" points="267,714.9707,257,718.9707,267,722.9707,263,718.9707" style="stroke:#0A9EFD;stroke-width:1.0;"/><text fill="#0A9EFD" font-family="Arial" font-size="13" lengthAdjust="spacing" textLength="125" x="263" y="701.2158">Create a new channel</text><line style="stroke:#0A9EFD;stroke-width:2.0;" x1="256" x2="298" y1="762.8682" y2="762.8682"/><line style="stroke:#0A9EFD;stroke-width:2.0;" x1="298" x2="298" y1="762.8682" y2="775.8682"/><line style="stroke:#0A9EFD;stroke-width:2.0;" x1="257" x2="298" y1="775.8682" y2="775.8682"/><polygon fill="#0A9EFD" points="267,771.8682,257,775.8682,267,779.8682,263,775.8682" style="stroke:#0A9EFD;stroke-width:1.0;"/><text fill="#0A9EFD" font-family="Arial" font-size="13" lengthAdjust="spacing" textLength="143" x="263" y="743.1646">Set the user role as host</text><text fill="#0A9EFD" font-family="Arial" font-size="13" lengthAdjust="spacing" textLength="113" x="280" y="758.1133">for the new channel</text><polygon fill="#0A9EFD" points="502,800.8169,512,804.8169,502,808.8169,506,804.8169" style="stroke:#0A9EFD;stroke-width:1.0;"/><line style="stroke:#0A9EFD;stroke-width:2.0;" x1="256" x2="508" y1="804.8169" y2="804.8169"/><text fill="#0A9EFD" font-family="Arial" font-size="13" lengthAdjust="spacing" textLength="122" x="324" y="800.062">Join the new channel</text><polygon fill="#0A9EFD" points="267,829.7656,257,833.7656,267,837.7656,263,833.7656" style="stroke:#0A9EFD;stroke-width:1.0;"/><line style="stroke:#0A9EFD;stroke-width:2.0;" x1="261" x2="513" y1="833.7656" y2="833.7656"/><text fill="#0A9EFD" font-family="Arial" font-size="13" lengthAdjust="spacing" textLength="81" x="344.5" y="829.0107">Join accepted</text><polygon fill="#0A9EFD" points="502,858.7144,512,862.7144,502,866.7144,506,862.7144" style="stroke:#0A9EFD;stroke-width:1.0;"/><line style="stroke:#0A9EFD;stroke-width:2.0;" x1="256" x2="508" y1="862.7144" y2="862.7144"/><text fill="#0A9EFD" font-family="Arial" font-size="13" lengthAdjust="spacing" textLength="156" x="307" y="857.9595">Publish to the new channel</text><polygon fill="#0A9EFD" points="244,894.6631,254,898.6631,244,902.6631,248,898.6631" style="stroke:#0A9EFD;stroke-width:1.0;"/><line style="stroke:#0A9EFD;stroke-width:2.0;" x1="38" x2="250" y1="898.6631" y2="898.6631"/><text fill="#0A9EFD" font-family="Arial" font-size="13" lengthAdjust="spacing" textLength="178" x="58" y="893.9082">Leave the live streaming event</text><polygon fill="#0A9EFD" points="502,923.6118,512,927.6118,502,931.6118,506,927.6118" style="stroke:#0A9EFD;stroke-width:1.0;"/><line style="stroke:#0A9EFD;stroke-width:2.0;" x1="256" x2="508" y1="927.6118" y2="927.6118"/><text fill="#0A9EFD" font-family="Arial" font-size="13" lengthAdjust="spacing" textLength="115" x="327.5" y="922.8569">Stop media relaying</text><polygon fill="#0A9EFD" points="502,952.5605,512,956.5605,502,960.5605,506,956.5605" style="stroke:#0A9EFD;stroke-width:1.0;"/><line style="stroke:#0A9EFD;stroke-width:2.0;" x1="256" x2="508" y1="956.5605" y2="956.5605"/><text fill="#0A9EFD" font-family="Arial" font-size="13" lengthAdjust="spacing" textLength="130" x="320" y="951.8057">Leave all the channels</text><!--SRC=[fLFBRjim4BppAxOwnyuzXm26VN5JD8BL52WGe5XJQuimjIH8ocb_gX_HBolri1wHsakF97TcPsQN7nHBNUK4w_NzLULaLZw_tEFPEFpkBuhNgYgr42Y3SP2yU789e8UNx234qVo0v9kf7A2rYH0MNL1IMUG0oTUQ3BBTKrE_ILCXY7E8c0wugNkyHsMxmvVFltzrcFq84pl2wh4cUe1dImmRQqKyzPTxLa5X80W5GKCEn6V59CxEL1O-6iM080ja9ZtXoqBK05fT2NnmXANYyy2zZmKK6jeg-WTdDDNw2kF3f6hQOR4ahOvQ-GAqaQYXf5mX1DDmtuH5nwAJlEsOsZf76dykw2uh7TJgrlLlBjB1XOyZatr3K7mo3_3AsVIQiQIxAEv2V0SOnr2fV94k9nyKOr26PvomMtZyDtDCQOjQDzGbXSBaTKAlx5kpGnIjlNsFEjINdVKkr2XWGTs0IckKDIvqtSRS4HjRndrwKw6ennf57L5Uu5InhEdyU5JDx9j9MDrdwFzdMjju6RiZCBsDbC_pdorbL7wAlxL-6s5XlgllAYQvjCii9Tb0-U8ETtix9cW26Nl-H7XjV-JKAT2LUFeric3iVBp3Uqjrsum-uJy0]--></g></svg>