<svg xmlns="http://www.w3.org/2000/svg" xmlns:xlink="http://www.w3.org/1999/xlink" contentStyleType="text/css" data-diagram-type="SEQUENCE" height="1065px" preserveAspectRatio="none" style="width:661px;height:1065px;" version="1.1" viewBox="0 0 661 1065" width="661px" zoomAndPan="magnify"><?plantuml 1.2026.4?><defs/><g><rect fill="none" height="1063.6592" style="stroke:#0A9EFD;stroke-width:1;" width="659.4385" x="0" y="0"/><rect fill="#999999" fill-opacity="0.33333" height="1052.6592" style="stroke:#0A9EFD;stroke-width:0.5;" width="90.4824" x="208.7261" y="6"/><text fill="#0A9EFD" font-family="sans-serif" font-size="13" font-weight="700" lengthAdjust="spacing" textLength="56.3354" x="225.7996" y="19.4951">Your app</text><rect fill="#999999" fill-opacity="0.33333" height="1052.6592" style="stroke:#0A9EFD;stroke-width:0.5;" width="78.3257" x="471.634" y="6"/><text fill="#0A9EFD" font-family="sans-serif" font-size="13" font-weight="700" lengthAdjust="spacing" textLength="37.5591" x="492.0173" y="19.4951">Agora</text><rect fill="#0A9EFD" fill-opacity="0.06667" height="132.7437" style="stroke:#0A9EFD;stroke-width:2;" width="545.9597" x="10" y="173.9961"/><rect fill="#0A9EFD" fill-opacity="0.06667" height="304.3848" style="stroke:#0A9EFD;stroke-width:2;" width="635.4385" x="10" y="320.7397"/><rect fill="#0A9EFD" fill-opacity="0.06667" height="231.5898" style="stroke:#0A9EFD;stroke-width:2;" width="545.9597" x="10" y="639.1245"/><g class="participant-lifeline" data-entity-uid="part1" data-qualified-name="USR" data-source-line="5" id="part1-lifeline"><g><title>User</title><rect fill="#000000" fill-opacity="0.00000" height="888.4619" width="8" x="33.7793" y="86.0986"/><line style="stroke:#0A9EFD;stroke-width:0.5;stroke-dasharray:5,5;" x1="37" x2="37" y1="86.0986" y2="974.5605"/></g></g><g class="participant-lifeline" data-entity-uid="part2" data-qualified-name="APP" data-source-line="9" id="part2-lifeline"><g><title>Video SDK</title><rect fill="#000000" fill-opacity="0.00000" height="888.4619" width="8" x="249.9673" y="86.0986"/><line style="stroke:#0A9EFD;stroke-width:0.5;stroke-dasharray:5,5;" x1="253.7261" x2="253.7261" y1="86.0986" y2="974.5605"/></g></g><g class="participant-lifeline" data-entity-uid="part3" data-qualified-name="API" data-source-line="15" id="part3-lifeline"><g><title>SDRTN.sup....sup.</title><rect fill="#000000" fill-opacity="0.00000" height="888.4619" width="8" x="506.7969" y="86.0986"/><line style="stroke:#0A9EFD;stroke-width:0.5;stroke-dasharray:5,5;" x1="510.634" x2="510.634" y1="86.0986" y2="974.5605"/></g></g><g class="participant participant-head" data-entity-uid="part1" data-qualified-name="USR" data-source-line="5" id="part1-head"><text fill="#0A9EFD" font-family="Arial" font-size="14" lengthAdjust="spacing" textLength="29.5586" x="20" y="83.1318">User</text><ellipse cx="37.7793" cy="16" fill="none" rx="8" ry="8" style="stroke:#0A9EFD;stroke-width:3;"/><path d="M37.7793,24 L37.7793,51 M24.7793,32 L50.7793,32 M37.7793,51 L24.7793,66 M37.7793,51 L50.7793,66" fill="none" style="stroke:#0A9EFD;stroke-width:3;"/></g><g class="participant participant-tail" data-entity-uid="part1" data-qualified-name="USR" data-source-line="5" id="part1-tail"><text fill="#0A9EFD" font-family="Arial" font-size="14" lengthAdjust="spacing" textLength="29.5586" x="20" y="986.6924">User</text><ellipse cx="37.7793" cy="1000.6592" fill="none" rx="8" ry="8" style="stroke:#0A9EFD;stroke-width:3;"/><path d="M37.7793,1008.6592 L37.7793,1035.6592 M24.7793,1016.6592 L50.7793,1016.6592 M37.7793,1035.6592 L24.7793,1050.6592 M37.7793,1035.6592 L50.7793,1050.6592" fill="none" style="stroke:#0A9EFD;stroke-width:3;"/></g><g class="participant participant-head" data-entity-uid="part2" data-qualified-name="APP" data-source-line="9" id="part2-head"><rect fill="none" height="30.0986" rx="2.5" ry="2.5" style="stroke:#0A9EFD;stroke-width:2;" width="82.4824" x="212.7261" y="55"/><text fill="#0A9EFD" font-family="Arial" font-size="14" lengthAdjust="spacing" textLength="68.4824" x="219.7261" y="75.1318">Video SDK</text></g><g class="participant participant-tail" data-entity-uid="part2" data-qualified-name="APP" data-source-line="9" id="part2-tail"><rect fill="none" height="30.0986" rx="2.5" ry="2.5" style="stroke:#0A9EFD;stroke-width:2;" width="82.4824" x="212.7261" y="973.5605"/><text fill="#0A9EFD" font-family="Arial" font-size="14" lengthAdjust="spacing" textLength="68.4824" x="219.7261" y="993.6924">Video SDK</text></g><g class="participant participant-head" data-entity-uid="part3" data-qualified-name="API" data-source-line="15" id="part3-head"><rect fill="none" height="32.6489" rx="2.5" ry="2.5" style="stroke:#0A9EFD;stroke-width:2;" width="70.3257" x="475.634" y="52.4497"/><text fill="#0A9EFD" font-family="Arial" font-size="14" lengthAdjust="spacing" textLength="48.2207" x="482.634" y="75.1318">SDRTN</text><text fill="#0A9EFD" font-family="Arial" font-size="11" lengthAdjust="spacing" textLength="8.105" x="530.8547" y="69.7676">&#174;</text></g><g class="participant participant-tail" data-entity-uid="part3" data-qualified-name="API" data-source-line="15" id="part3-tail"><rect fill="none" height="32.6489" rx="2.5" ry="2.5" style="stroke:#0A9EFD;stroke-width:2;" width="70.3257" x="475.634" y="973.5605"/><text fill="#0A9EFD" font-family="Arial" font-size="14" lengthAdjust="spacing" textLength="48.2207" x="482.634" y="996.2427">SDRTN</text><text fill="#0A9EFD" font-family="Arial" font-size="11" lengthAdjust="spacing" textLength="8.105" x="530.8547" y="990.8784">&#174;</text></g><g class="message" data-entity-1="part1" data-entity-2="part2" data-source-line="19" id="msg1"><polygon fill="#0A9EFD" points="241.9673,113.0474,251.9673,117.0474,241.9673,121.0474,245.9673,117.0474" style="stroke:#0A9EFD;stroke-width:1;stroke-linejoin:miter;stroke-miterlimit:10;"/><line style="stroke:#0A9EFD;stroke-width:2;" x1="37.7793" x2="247.9673" y1="117.0474" y2="117.0474"/><text fill="#0A9EFD" font-family="Arial" font-size="13" lengthAdjust="spacing" textLength="58.5444" x="116.6011" y="112.2925">Open App</text></g><g class="message" data-entity-1="part2" data-entity-2="part2" data-source-line="20" id="msg2"><line style="stroke:#0A9EFD;stroke-width:2;" x1="253.9673" x2="295.9673" y1="145.9961" y2="145.9961"/><line style="stroke:#0A9EFD;stroke-width:2;" x1="295.9673" x2="295.9673" y1="145.9961" y2="158.9961"/><line style="stroke:#0A9EFD;stroke-width:2;" x1="254.9673" x2="295.9673" y1="158.9961" y2="158.9961"/><polygon fill="#0A9EFD" points="264.9673,154.9961,254.9673,158.9961,264.9673,162.9961,260.9673,158.9961" style="stroke:#0A9EFD;stroke-width:1;stroke-linejoin:miter;stroke-miterlimit:10;"/><text fill="#0A9EFD" font-family="Arial" font-size="13" lengthAdjust="spacing" textLength="140.937" x="260.9673" y="141.2412">Initiate the Agora engine</text></g><path d="M10,173.9961 L138.8398,173.9961 L138.8398,180.9448 L128.8398,190.9448 L10,190.9448 L10,173.9961" fill="#EEEEEE" style="stroke:#0A9EFD;stroke-width:1.5;"/><rect fill="none" height="132.7437" style="stroke:#0A9EFD;stroke-width:2;" width="545.9597" x="10" y="173.9961"/><text fill="#000000" font-family="Arial" font-size="13" lengthAdjust="spacing" textLength="83.8398" x="25" y="187.1899">Join a channel</text><g class="message" data-entity-1="part1" data-entity-2="part2" data-source-line="22" id="msg3"><polygon fill="#0A9EFD" points="241.9673,207.8936,251.9673,211.8936,241.9673,215.8936,245.9673,211.8936" style="stroke:#0A9EFD;stroke-width:1;stroke-linejoin:miter;stroke-miterlimit:10;"/><line style="stroke:#0A9EFD;stroke-width:2;" x1="37.7793" x2="247.9673" y1="211.8936" y2="211.8936"/><text fill="#0A9EFD" font-family="Arial" font-size="13" lengthAdjust="spacing" textLength="111.2617" x="90.2424" y="207.1387">Start live streaming</text></g><g class="message" data-entity-1="part2" data-entity-2="part3" data-source-line="23" id="msg4"><polygon fill="#0A9EFD" points="498.7969,236.8423,508.7969,240.8423,498.7969,244.8423,502.7969,240.8423" style="stroke:#0A9EFD;stroke-width:1;stroke-linejoin:miter;stroke-miterlimit:10;"/><line style="stroke:#0A9EFD;stroke-width:2;" x1="253.9673" x2="504.7969" y1="240.8423" y2="240.8423"/><text fill="#0A9EFD" font-family="Arial" font-size="13" lengthAdjust="spacing" textLength="140.9116" x="311.9263" y="236.0874">Set the user role as host</text></g><g class="message" data-entity-1="part2" data-entity-2="part3" data-source-line="24" id="msg5"><polygon fill="#0A9EFD" points="498.7969,265.791,508.7969,269.791,498.7969,273.791,502.7969,269.791" style="stroke:#0A9EFD;stroke-width:1;stroke-linejoin:miter;stroke-miterlimit:10;"/><line style="stroke:#0A9EFD;stroke-width:2;" x1="253.9673" x2="504.7969" y1="269.791" y2="269.791"/><text fill="#0A9EFD" font-family="Arial" font-size="13" lengthAdjust="spacing" textLength="129.3652" x="317.6995" y="265.0361">Join a channel as host</text></g><g class="message" data-entity-1="part2" data-entity-2="part3" data-source-line="25" id="msg6"><polygon fill="#0A9EFD" points="498.7969,294.7397,508.7969,298.7397,498.7969,302.7397,502.7969,298.7397" style="stroke:#0A9EFD;stroke-width:1;stroke-linejoin:miter;stroke-miterlimit:10;"/><line style="stroke:#0A9EFD;stroke-width:2;" x1="253.9673" x2="504.7969" y1="298.7397" y2="298.7397"/><text fill="#0A9EFD" font-family="Arial" font-size="13" lengthAdjust="spacing" textLength="197.2915" x="283.7363" y="293.9849">Publish local media to the channel</text></g><path d="M10,320.7397 L174.2344,320.7397 L174.2344,327.6885 L164.2344,337.6885 L10,337.6885 L10,320.7397" fill="#EEEEEE" style="stroke:#0A9EFD;stroke-width:1.5;"/><rect fill="none" height="304.3848" style="stroke:#0A9EFD;stroke-width:2;" width="635.4385" x="10" y="320.7397"/><text fill="#000000" font-family="Arial" font-size="13" lengthAdjust="spacing" textLength="119.2344" x="25" y="333.9336">Channel media relay</text><g class="message" data-entity-1="part1" data-entity-2="part2" data-source-line="29" id="msg7"><polygon fill="#0A9EFD" points="241.9673,354.6372,251.9673,358.6372,241.9673,362.6372,245.9673,358.6372" style="stroke:#0A9EFD;stroke-width:1;stroke-linejoin:miter;stroke-miterlimit:10;"/><line style="stroke:#0A9EFD;stroke-width:2;" x1="37.7793" x2="247.9673" y1="358.6372" y2="358.6372"/><text fill="#0A9EFD" font-family="Arial" font-size="13" lengthAdjust="spacing" textLength="192.188" x="49.7793" y="353.8823">Start multi-channel live streaming</text></g><g class="message" data-entity-1="part2" data-entity-2="part2" data-source-line="30" id="msg8"><line style="stroke:#0A9EFD;stroke-width:2;" x1="253.9673" x2="295.9673" y1="402.5347" y2="402.5347"/><line style="stroke:#0A9EFD;stroke-width:2;" x1="295.9673" x2="295.9673" y1="402.5347" y2="415.5347"/><line style="stroke:#0A9EFD;stroke-width:2;" x1="254.9673" x2="295.9673" y1="415.5347" y2="415.5347"/><polygon fill="#0A9EFD" points="264.9673,411.5347,254.9673,415.5347,264.9673,419.5347,260.9673,415.5347" style="stroke:#0A9EFD;stroke-width:1;stroke-linejoin:miter;stroke-miterlimit:10;"/><text fill="#0A9EFD" font-family="Arial" font-size="13" lengthAdjust="spacing" textLength="161.1606" x="286.2659" y="382.8311">Set the source channel info:</text><text fill="#0A9EFD" font-family="Arial" font-size="13" lengthAdjust="spacing" textLength="215.3696" x="260.9673" y="397.7798">Source channel name, token, and uid</text></g><g class="message" data-entity-1="part2" data-entity-2="part2" data-source-line="31" id="msg9"><line style="stroke:#0A9EFD;stroke-width:2;" x1="253.9673" x2="295.9673" y1="459.4321" y2="459.4321"/><line style="stroke:#0A9EFD;stroke-width:2;" x1="295.9673" x2="295.9673" y1="459.4321" y2="472.4321"/><line style="stroke:#0A9EFD;stroke-width:2;" x1="254.9673" x2="295.9673" y1="472.4321" y2="472.4321"/><polygon fill="#0A9EFD" points="264.9673,468.4321,254.9673,472.4321,264.9673,476.4321,260.9673,472.4321" style="stroke:#0A9EFD;stroke-width:1;stroke-linejoin:miter;stroke-miterlimit:10;"/><text fill="#0A9EFD" font-family="Arial" font-size="13" lengthAdjust="spacing" textLength="185.0215" x="288.0654" y="439.7285">Set the destination channel info:</text><text fill="#0A9EFD" font-family="Arial" font-size="13" lengthAdjust="spacing" textLength="239.2178" x="264.5791" y="454.6772">Destination channel name, token, and uid</text></g><g class="message" data-entity-1="part2" data-entity-2="part3" data-source-line="32" id="msg10"><polygon fill="#0A9EFD" points="498.7969,512.3296,508.7969,516.3296,498.7969,520.3296,502.7969,516.3296" style="stroke:#0A9EFD;stroke-width:1;stroke-linejoin:miter;stroke-miterlimit:10;"/><line style="stroke:#0A9EFD;stroke-width:2;" x1="253.9673" x2="504.7969" y1="516.3296" y2="516.3296"/><text fill="#0A9EFD" font-family="Arial" font-size="13" lengthAdjust="spacing" textLength="105.5044" x="327.824" y="496.626">Call the method to</text><text fill="#0A9EFD" font-family="Arial" font-size="13" lengthAdjust="spacing" textLength="113.439" x="325.6626" y="511.5747">start media relaying</text></g><g class="message" data-entity-1="part3" data-entity-2="part3" data-source-line="33" id="msg11"><line style="stroke:#0A9EFD;stroke-width:2;" x1="510.7969" x2="552.7969" y1="560.2271" y2="560.2271"/><line style="stroke:#0A9EFD;stroke-width:2;" x1="552.7969" x2="552.7969" y1="560.2271" y2="573.2271"/><line style="stroke:#0A9EFD;stroke-width:2;" x1="511.7969" x2="552.7969" y1="573.2271" y2="573.2271"/><polygon fill="#0A9EFD" points="521.7969,569.2271,511.7969,573.2271,521.7969,577.2271,517.7969,573.2271" style="stroke:#0A9EFD;stroke-width:1;stroke-linejoin:miter;stroke-miterlimit:10;"/><text fill="#0A9EFD" font-family="Arial" font-size="13" lengthAdjust="spacing" textLength="112.7153" x="519.26" y="540.5234">Relay stream to the</text><text fill="#0A9EFD" font-family="Arial" font-size="13" lengthAdjust="spacing" textLength="112.0298" x="521.4087" y="555.4722">destination channel</text></g><g class="message" data-entity-1="part3" data-entity-2="part2" data-source-line="34" id="msg12"><polygon fill="#0A9EFD" points="264.9673,613.1245,254.9673,617.1245,264.9673,621.1245,260.9673,617.1245" style="stroke:#0A9EFD;stroke-width:1;stroke-linejoin:miter;stroke-miterlimit:10;"/><line style="stroke:#0A9EFD;stroke-width:2;" x1="258.9673" x2="509.7969" y1="617.1245" y2="617.1245"/><text fill="#0A9EFD" font-family="Arial" font-size="13" lengthAdjust="spacing" textLength="148.8589" x="307.9526" y="597.4209">Report the media relaying</text><text fill="#0A9EFD" font-family="Arial" font-size="13" lengthAdjust="spacing" textLength="171.9771" x="298.1995" y="612.3696">state with a callback functions</text></g><path d="M10,639.1245 L182.9053,639.1245 L182.9053,646.0732 L172.9053,656.0732 L10,656.0732 L10,639.1245" fill="#EEEEEE" style="stroke:#0A9EFD;stroke-width:1.5;"/><rect fill="none" height="231.5898" style="stroke:#0A9EFD;stroke-width:2;" width="545.9597" x="10" y="639.1245"/><text fill="#000000" font-family="Arial" font-size="13" lengthAdjust="spacing" textLength="127.9053" x="25" y="652.3184">Join multiple channels</text><g class="message" data-entity-1="part1" data-entity-2="part2" data-source-line="38" id="msg13"><polygon fill="#0A9EFD" points="241.9673,673.022,251.9673,677.022,241.9673,681.022,245.9673,677.022" style="stroke:#0A9EFD;stroke-width:1;stroke-linejoin:miter;stroke-miterlimit:10;"/><line style="stroke:#0A9EFD;stroke-width:2;" x1="37.7793" x2="247.9673" y1="677.022" y2="677.022"/><text fill="#0A9EFD" font-family="Arial" font-size="13" lengthAdjust="spacing" textLength="192.188" x="49.7793" y="672.2671">Start multi-channel live streaming</text></g><g class="message" data-entity-1="part2" data-entity-2="part2" data-source-line="39" id="msg14"><line style="stroke:#0A9EFD;stroke-width:2;" x1="253.9673" x2="295.9673" y1="705.9707" y2="705.9707"/><line style="stroke:#0A9EFD;stroke-width:2;" x1="295.9673" x2="295.9673" y1="705.9707" y2="718.9707"/><line style="stroke:#0A9EFD;stroke-width:2;" x1="254.9673" x2="295.9673" y1="718.9707" y2="718.9707"/><polygon fill="#0A9EFD" points="264.9673,714.9707,254.9673,718.9707,264.9673,722.9707,260.9673,718.9707" style="stroke:#0A9EFD;stroke-width:1;stroke-linejoin:miter;stroke-miterlimit:10;"/><text fill="#0A9EFD" font-family="Arial" font-size="13" lengthAdjust="spacing" textLength="126.4707" x="260.9673" y="701.2158">Create a new channel</text></g><g class="message" data-entity-1="part2" data-entity-2="part2" data-source-line="40" id="msg15"><line style="stroke:#0A9EFD;stroke-width:2;" x1="253.9673" x2="295.9673" y1="762.8682" y2="762.8682"/><line style="stroke:#0A9EFD;stroke-width:2;" x1="295.9673" x2="295.9673" y1="762.8682" y2="775.8682"/><line style="stroke:#0A9EFD;stroke-width:2;" x1="254.9673" x2="295.9673" y1="775.8682" y2="775.8682"/><polygon fill="#0A9EFD" points="264.9673,771.8682,254.9673,775.8682,264.9673,779.8682,260.9673,775.8682" style="stroke:#0A9EFD;stroke-width:1;stroke-linejoin:miter;stroke-miterlimit:10;"/><text fill="#0A9EFD" font-family="Arial" font-size="13" lengthAdjust="spacing" textLength="140.9116" x="260.9673" y="743.1646">Set the user role as host</text><text fill="#0A9EFD" font-family="Arial" font-size="13" lengthAdjust="spacing" textLength="113.4644" x="276.4968" y="758.1133">for the new channel</text></g><g class="message" data-entity-1="part2" data-entity-2="part3" data-source-line="41" id="msg16"><polygon fill="#0A9EFD" points="498.7969,800.8169,508.7969,804.8169,498.7969,808.8169,502.7969,804.8169" style="stroke:#0A9EFD;stroke-width:1;stroke-linejoin:miter;stroke-miterlimit:10;"/><line style="stroke:#0A9EFD;stroke-width:2;" x1="253.9673" x2="504.7969" y1="804.8169" y2="804.8169"/><text fill="#0A9EFD" font-family="Arial" font-size="13" lengthAdjust="spacing" textLength="122.1416" x="321.3113" y="800.062">Join the new channel</text></g><g class="message" data-entity-1="part3" data-entity-2="part2" data-source-line="42" id="msg17"><polygon fill="#0A9EFD" points="264.9673,829.7656,254.9673,833.7656,264.9673,837.7656,260.9673,833.7656" style="stroke:#0A9EFD;stroke-width:1;stroke-linejoin:miter;stroke-miterlimit:10;"/><line style="stroke:#0A9EFD;stroke-width:2;" x1="258.9673" x2="509.7969" y1="833.7656" y2="833.7656"/><text fill="#0A9EFD" font-family="Arial" font-size="13" lengthAdjust="spacing" textLength="80.2217" x="342.2712" y="829.0107">Join accepted</text></g><g class="message" data-entity-1="part2" data-entity-2="part3" data-source-line="43" id="msg18"><polygon fill="#0A9EFD" points="498.7969,858.7144,508.7969,862.7144,498.7969,866.7144,502.7969,862.7144" style="stroke:#0A9EFD;stroke-width:1;stroke-linejoin:miter;stroke-miterlimit:10;"/><line style="stroke:#0A9EFD;stroke-width:2;" x1="253.9673" x2="504.7969" y1="862.7144" y2="862.7144"/><text fill="#0A9EFD" font-family="Arial" font-size="13" lengthAdjust="spacing" textLength="155.3843" x="304.6899" y="857.9595">Publish to the new channel</text></g><g class="message" data-entity-1="part1" data-entity-2="part2" data-source-line="46" id="msg19"><polygon fill="#0A9EFD" points="241.9673,894.6631,251.9673,898.6631,241.9673,902.6631,245.9673,898.6631" style="stroke:#0A9EFD;stroke-width:1;stroke-linejoin:miter;stroke-miterlimit:10;"/><line style="stroke:#0A9EFD;stroke-width:2;" x1="37.7793" x2="247.9673" y1="898.6631" y2="898.6631"/><text fill="#0A9EFD" font-family="Arial" font-size="13" lengthAdjust="spacing" textLength="176.3252" x="57.7107" y="893.9082">Leave the live streaming event</text></g><g class="message" data-entity-1="part2" data-entity-2="part3" data-source-line="47" id="msg20"><polygon fill="#0A9EFD" points="498.7969,923.6118,508.7969,927.6118,498.7969,931.6118,502.7969,927.6118" style="stroke:#0A9EFD;stroke-width:1;stroke-linejoin:miter;stroke-miterlimit:10;"/><line style="stroke:#0A9EFD;stroke-width:2;" x1="253.9673" x2="504.7969" y1="927.6118" y2="927.6118"/><text fill="#0A9EFD" font-family="Arial" font-size="13" lengthAdjust="spacing" textLength="114.8989" x="324.9326" y="922.8569">Stop media relaying</text></g><g class="message" data-entity-1="part2" data-entity-2="part3" data-source-line="48" id="msg21"><polygon fill="#0A9EFD" points="498.7969,952.5605,508.7969,956.5605,498.7969,960.5605,502.7969,956.5605" style="stroke:#0A9EFD;stroke-width:1;stroke-linejoin:miter;stroke-miterlimit:10;"/><line style="stroke:#0A9EFD;stroke-width:2;" x1="253.9673" x2="504.7969" y1="956.5605" y2="956.5605"/><text fill="#0A9EFD" font-family="Arial" font-size="13" lengthAdjust="spacing" textLength="129.3716" x="317.6963" y="951.8057">Leave all the channels</text></g><?plantuml-src fLDBRjim4Dtp55EjOtiV104CU-CcQ0MhAL0WG36cnXPXQaY8bDDUgeVeoKfAiZwnsarNWiXvdtap_A1OwZedM2vN5vMJMRZylCAJgV2xEojUghhKGg3qfeBanL6L03fuoVP27CmFIBwPkWAqDX72OkMLL1RPG_8raa6sVMhgrsag174E0TC1rr7ZFIhRxhzyUd2rVVpzws4LlnryDu87SLWyHivx-6o9OMsj27_zuOwLL-W9V47Gw03nIJ69KsLg2n-DOa2G1JAJdl1bFjW1hIu4pbU4fUBJmBqB1UGRsZf40PNH5FqLnlb9rLHXjYIj3rgv0hIHgA6aN25uqt1VZOMEHMTvqp6rTHLf_3dZkworLukhwj-wI8SkN9YUx0L1yT7SmojdqsF6akw2kJFn7M0OGwtoMRgSd5UCNXc-uOJjpEM_cKDA6zIweIx95oQF2RsoQviTecZRs_MeVJpiMkz23GPct0seDAAigNodDkOEs20PzkbD-IAEDPWwe3p3iMOPwTnuLCticqbOtMVe_cTQct0Or16OtaRER_E_MShW_1WURhmROU5sLzzLJ79fbrbAifxosHtkzdPCq0GoxlcPyDA-o6cdG1VYwTF8lB6tuntkMwhhPlG9_m40?></g></svg>