<?xml version="1.0" encoding="utf-8"?>
<!-- Generator: Adobe Illustrator 19.0.0, SVG Export Plug-In . SVG Version: 6.00 Build 0)  -->
<svg version="1.1" id="Layer_1" xmlns="http://www.w3.org/2000/svg" xmlns:xlink="http://www.w3.org/1999/xlink" x="0px" y="0px"
	 viewBox="-105 277 401 240" style="enable-background:new -105 277 401 240;" xml:space="preserve">
<style type="text/css">
	.st0{display:none;fill:#1C1F26;}
	.st1{fill:#32353B;}
	.st2{fill:#FFFFFF;}
	.st3{display:none;fill:url(#SVGID_1_);}
	.st4{fill:#231F20;}
	.st5{display:none;fill:url(#SVGID_2_);}
	.st6{display:none;fill:url(#SVGID_3_);}
	.st7{display:none;fill:url(#SVGID_4_);}
</style>
<path class="st0" d="M-104.5,297c0-11,9-20,20-20h380v240h-380c-11,0-20-9-20-20V297z"/>
<path class="st1" d="M-6.5,348L-6.5,348c27.1,0,49,21.9,49,49l0,0c0,27.1-21.9,49-49,49l0,0c-27.1,0-49-21.9-49-49l0,0
	C-55.5,369.9-33.6,348-6.5,348z"/>
<path class="st2" d="M-6.5,403c-2.2,0-4.1-0.8-5.6-2.3c-1.5-1.5-2.3-3.4-2.3-5.6v-19.1c0-2.2,0.8-4.1,2.3-5.6
	c1.5-1.5,3.4-2.3,5.6-2.3c2.2,0,4.1,0.8,5.6,2.3c1.5,1.5,2.3,3.4,2.3,5.6V395c0,2.2-0.8,4.1-2.3,5.6C-2.4,402.2-4.3,403-6.5,403z
	 M-6.5,426c-0.7,0-1.3-0.2-1.7-0.7c-0.5-0.5-0.7-1-0.7-1.7v-8.1c-4.8-0.5-8.9-2.5-12.3-5.8c-3.4-3.4-5.3-7.4-5.8-12.1
	c-0.1-0.7,0.1-1.3,0.6-1.8c0.5-0.5,1.1-0.8,1.8-0.8c0.6,0,1.1,0.2,1.5,0.6c0.5,0.4,0.7,1,0.8,1.6c0.5,3.9,2.3,7.1,5.2,9.7
	c3,2.6,6.5,3.9,10.5,3.9c4,0,7.5-1.3,10.5-3.9c3-2.6,4.7-5.9,5.2-9.7c0.1-0.6,0.4-1.2,0.8-1.6c0.5-0.4,1-0.6,1.5-0.6
	c0.7,0,1.3,0.3,1.8,0.8c0.5,0.5,0.7,1.1,0.6,1.8c-0.5,4.7-2.5,8.8-5.8,12.1c-3.4,3.4-7.4,5.3-12.3,5.8v8.1c0,0.7-0.2,1.3-0.7,1.7
	C-5.2,425.8-5.8,426-6.5,426z"/>
<linearGradient id="SVGID_1_" gradientUnits="userSpaceOnUse" x1="88.2702" y1="446.7105" x2="88.2702" y2="358.131" gradientTransform="matrix(1 0 0 -1 0 796)">
	<stop  offset="0" style="stop-color:#00C2FF"/>
	<stop  offset="0.33" style="stop-color:#A0FAFF"/>
	<stop  offset="0.66" style="stop-color:#FCF9F8"/>
	<stop  offset="1" style="stop-color:#C46FFB"/>
</linearGradient>
<path class="st3" d="M88.3,369.5L88.3,369.5c10.9,0,19.7,8.8,19.7,19.7v15.7c0,10.9-8.8,19.7-19.7,19.7h0
	c-10.9,0-19.7-8.8-19.7-19.7v-15.7C68.6,378.3,77.4,369.5,88.3,369.5z"/>
<g>
	<path class="st2" d="M88.3,423.9c-10.5,0-19.1-8.6-19.1-19.1v-15.7c0-10.5,8.6-19.1,19.1-19.1s19.1,8.6,19.1,19.1v15.7
		C107.3,415.4,98.8,423.9,88.3,423.9z"/>
	<path class="st4" d="M88.3,370.7c10.2,0,18.5,8.3,18.5,18.5v15.7c0,10.2-8.3,18.5-18.5,18.5c-10.2,0-18.5-8.3-18.5-18.5v-15.7
		C69.8,378.9,78.1,370.7,88.3,370.7 M88.3,369.5L88.3,369.5c-10.9,0-19.7,8.8-19.7,19.7v15.7c0,10.9,8.8,19.7,19.7,19.7h0
		c10.9,0,19.7-8.8,19.7-19.7v-15.7C107.9,378.3,99.1,369.5,88.3,369.5L88.3,369.5z"/>
</g>
<linearGradient id="SVGID_2_" gradientUnits="userSpaceOnUse" x1="129.0901" y1="484.1976" x2="129.0901" y2="326.02" gradientTransform="matrix(1 0 0 -1 0 796)">
	<stop  offset="0" style="stop-color:#00C2FF"/>
	<stop  offset="0.33" style="stop-color:#A0FAFF"/>
	<stop  offset="0.66" style="stop-color:#FCF9F8"/>
	<stop  offset="1" style="stop-color:#C46FFB"/>
</linearGradient>
<path class="st5" d="M129.1,347.8L129.1,347.8c10.9,0,19.7,8.8,19.7,19.7v59c0,10.9-8.8,19.7-19.7,19.7h0
	c-10.9,0-19.7-8.8-19.7-19.7v-59C109.4,356.6,118.2,347.8,129.1,347.8z"/>
<g>
	<path class="st2" d="M129.1,445.6c-10.5,0-19.1-8.6-19.1-19.1v-59c0-10.5,8.6-19.1,19.1-19.1s19.1,8.6,19.1,19.1v59
		C148.2,437,139.6,445.6,129.1,445.6z"/>
	<path class="st4" d="M129.1,349c10.2,0,18.5,8.3,18.5,18.5v59c0,10.2-8.3,18.5-18.5,18.5c-10.2,0-18.5-8.3-18.5-18.5v-59
		C110.6,357.3,118.9,349,129.1,349 M129.1,347.8L129.1,347.8c-10.9,0-19.7,8.8-19.7,19.7v59c0,10.9,8.8,19.7,19.7,19.7h0
		c10.9,0,19.7-8.8,19.7-19.7v-59C148.8,356.6,140,347.8,129.1,347.8L129.1,347.8z"/>
</g>
<linearGradient id="SVGID_3_" gradientUnits="userSpaceOnUse" x1="169.9102" y1="458.6386" x2="169.9102" y2="347.914" gradientTransform="matrix(1 0 0 -1 0 796)">
	<stop  offset="0" style="stop-color:#00C2FF"/>
	<stop  offset="0.33" style="stop-color:#A0FAFF"/>
	<stop  offset="0.66" style="stop-color:#FCF9F8"/>
	<stop  offset="1" style="stop-color:#C46FFB"/>
</linearGradient>
<path class="st6" d="M169.9,362.6L169.9,362.6c10.9,0,19.7,8.8,19.7,19.7v29.5c0,10.9-8.8,19.7-19.7,19.7h0
	c-10.9,0-19.7-8.8-19.7-19.7v-29.5C150.2,371.4,159,362.6,169.9,362.6z"/>
<g>
	<path class="st2" d="M169.9,430.8c-10.5,0-19.1-8.6-19.1-19.1v-29.5c0-10.5,8.6-19.1,19.1-19.1s19.1,8.6,19.1,19.1v29.5
		C189,422.3,180.4,430.8,169.9,430.8z"/>
	<path class="st4" d="M169.9,363.8c10.2,0,18.5,8.3,18.5,18.5v29.5c0,10.2-8.3,18.5-18.5,18.5c-10.2,0-18.5-8.3-18.5-18.5v-29.5
		C151.4,372.1,159.7,363.8,169.9,363.8 M169.9,362.6L169.9,362.6c-10.9,0-19.7,8.8-19.7,19.7v29.5c0,10.9,8.8,19.7,19.7,19.7h0
		c10.9,0,19.7-8.8,19.7-19.7v-29.5C189.6,371.4,180.8,362.6,169.9,362.6L169.9,362.6z"/>
</g>
<linearGradient id="SVGID_4_" gradientUnits="userSpaceOnUse" x1="210.7292" y1="441.5993" x2="210.7292" y2="362.511" gradientTransform="matrix(1 0 0 -1 0 796)">
	<stop  offset="0" style="stop-color:#00C2FF"/>
	<stop  offset="0.33" style="stop-color:#A0FAFF"/>
	<stop  offset="0.66" style="stop-color:#FCF9F8"/>
	<stop  offset="1" style="stop-color:#C46FFB"/>
</linearGradient>
<path class="st7" d="M210.7,372.4L210.7,372.4c10.9,0,19.7,8.8,19.7,19.7v9.8c0,10.9-8.8,19.7-19.7,19.7h0
	c-10.9,0-19.7-8.8-19.7-19.7v-9.8C191.1,381.2,199.9,372.4,210.7,372.4z"/>
<g>
	<path class="st2" d="M210.7,421c-10.5,0-19.1-8.6-19.1-19.1v-9.8c0-10.5,8.6-19.1,19.1-19.1s19.1,8.6,19.1,19.1v9.8
		C229.8,412.4,221.2,421,210.7,421z"/>
	<path class="st4" d="M210.7,373.6c10.2,0,18.5,8.3,18.5,18.5v9.8c0,10.2-8.3,18.5-18.5,18.5c-10.2,0-18.5-8.3-18.5-18.5v-9.8
		C192.3,381.9,200.5,373.6,210.7,373.6 M210.7,372.4L210.7,372.4c-10.9,0-19.7,8.8-19.7,19.7v9.8c0,10.9,8.8,19.7,19.7,19.7h0
		c10.9,0,19.7-8.8,19.7-19.7v-9.8C230.4,381.2,221.6,372.4,210.7,372.4L210.7,372.4z"/>
</g>
</svg>
