<?xml version="1.0" encoding="us-ascii" standalone="no"?><svg xmlns="http://www.w3.org/2000/svg" xmlns:xlink="http://www.w3.org/1999/xlink" contentStyleType="text/css" height="641px" preserveAspectRatio="none" style="width:729px;height:641px;" version="1.1" viewBox="0 0 729 641" width="729px" zoomAndPan="magnify"><defs/><g><rect fill="none" height="639.5234" style="stroke:#0A9EFD;stroke-width:1.0;" width="727" x="0" y="0"/><rect fill="#999999" fill-opacity="0.33333" height="629.5234" style="stroke:#0A9EFD;stroke-width:0.5;" width="377.5" x="16" y="6"/><text fill="#0A9EFD" font-family="sans-serif" font-size="13" font-weight="bold" lengthAdjust="spacing" textLength="130" x="139.75" y="19.4951">Implemented by you</text><rect fill="#999999" fill-opacity="0.33333" height="629.5234" style="stroke:#0A9EFD;stroke-width:0.5;" width="124" x="588" y="6"/><text fill="#0A9EFD" font-family="sans-serif" font-size="13" font-weight="bold" lengthAdjust="spacing" textLength="118" x="591" y="19.4951">Provided by Agora</text><rect fill="#0A9EFD" fill-opacity="0.06667" height="291.3848" style="stroke:#0A9EFD;stroke-width:2.0;" width="713" x="10" y="74.4502"/><rect fill="#0A9EFD" fill-opacity="0.06667" height="204.5898" style="stroke:#0A9EFD;stroke-width:2.0;" width="683" x="10" y="379.835"/><line style="stroke:#0A9EFD;stroke-width:0.5;stroke-dasharray:5.0,5.0;" x1="69" x2="69" y1="57.4502" y2="601.4248"/><line style="stroke:#0A9EFD;stroke-width:0.5;stroke-dasharray:5.0,5.0;" x1="369.5" x2="369.5" y1="57.4502" y2="601.4248"/><line style="stroke:#0A9EFD;stroke-width:0.5;stroke-dasharray:5.0,5.0;" x1="650" x2="650" y1="57.4502" y2="601.4248"/><rect fill="none" height="30.0986" rx="2.5" ry="2.5" style="stroke:#0A9EFD;stroke-width:2.0;" width="98" x="20" y="26.3516"/><text fill="#0A9EFD" font-family="Arial" font-size="14" lengthAdjust="spacing" textLength="84" x="27" y="46.4834">Token server</text><rect fill="none" height="30.0986" rx="2.5" ry="2.5" style="stroke:#0A9EFD;stroke-width:2.0;" width="98" x="20" y="600.4248"/><text fill="#0A9EFD" font-family="Arial" font-size="14" lengthAdjust="spacing" textLength="84" x="27" y="620.5566">Token server</text><rect fill="none" height="30.0986" rx="2.5" ry="2.5" style="stroke:#0A9EFD;stroke-width:2.0;" width="39" x="350.5" y="26.3516"/><text fill="#0A9EFD" font-family="Arial" font-size="14" lengthAdjust="spacing" textLength="25" x="357.5" y="46.4834">App</text><rect fill="none" height="30.0986" rx="2.5" ry="2.5" style="stroke:#0A9EFD;stroke-width:2.0;" width="39" x="350.5" y="600.4248"/><text fill="#0A9EFD" font-family="Arial" font-size="14" lengthAdjust="spacing" textLength="25" x="357.5" y="620.5566">App</text><rect fill="none" height="30.0986" rx="2.5" ry="2.5" style="stroke:#0A9EFD;stroke-width:2.0;" width="66" x="617" y="26.3516"/><text fill="#0A9EFD" font-family="Arial" font-size="14" lengthAdjust="spacing" textLength="52" x="624" y="46.4834">SD-RTN</text><rect fill="none" height="30.0986" rx="2.5" ry="2.5" style="stroke:#0A9EFD;stroke-width:2.0;" width="66" x="617" y="600.4248"/><text fill="#0A9EFD" font-family="Arial" font-size="14" lengthAdjust="spacing" textLength="52" x="624" y="620.5566">SD-RTN</text><path d="M10,74.4502 L250,74.4502 L250,81.3989 L240,91.3989 L10,91.3989 L10,74.4502 " fill="#EEEEEE" style="stroke:#0A9EFD;stroke-width:1.5;"/><rect fill="none" height="291.3848" style="stroke:#0A9EFD;stroke-width:2.0;" width="713" x="10" y="74.4502"/><text fill="#000000" font-family="Arial" font-size="13" lengthAdjust="spacing" textLength="195" x="25" y="87.644">Join a channel with authentication</text><polygon fill="#0A9EFD" points="80,123.2964,70,127.2964,80,131.2964,76,127.2964" style="stroke:#0A9EFD;stroke-width:1.0;"/><line style="stroke:#0A9EFD;stroke-width:2.0;" x1="74" x2="369" y1="127.2964" y2="127.2964"/><text fill="#0A9EFD" font-family="Arial" font-size="13" lengthAdjust="spacing" textLength="219" x="108" y="107.5928">Request a token using channel name,</text><text fill="#0A9EFD" font-family="Arial" font-size="13" lengthAdjust="spacing" textLength="164" x="139.5" y="122.5415">role, token type, and user ID</text><line style="stroke:#0A9EFD;stroke-width:2.0;" x1="69" x2="111" y1="171.1938" y2="171.1938"/><line style="stroke:#0A9EFD;stroke-width:2.0;" x1="111" x2="111" y1="171.1938" y2="184.1938"/><line style="stroke:#0A9EFD;stroke-width:2.0;" x1="70" x2="111" y1="184.1938" y2="184.1938"/><polygon fill="#0A9EFD" points="80,180.1938,70,184.1938,80,188.1938,76,184.1938" style="stroke:#0A9EFD;stroke-width:1.0;"/><text fill="#0A9EFD" font-family="Arial" font-size="13" lengthAdjust="spacing" textLength="122" x="76" y="151.4902">Validate user against</text><text fill="#0A9EFD" font-family="Arial" font-size="13" lengthAdjust="spacing" textLength="92" x="95" y="166.439">internal security</text><polygon fill="#0A9EFD" points="358,209.1426,368,213.1426,358,217.1426,362,213.1426" style="stroke:#0A9EFD;stroke-width:1.0;"/><line style="stroke:#0A9EFD;stroke-width:2.0;" x1="69" x2="364" y1="213.1426" y2="213.1426"/><text fill="#0A9EFD" font-family="Arial" font-size="13" lengthAdjust="spacing" textLength="245" x="97" y="208.3877">Generate a token and return it to the client</text><polygon fill="#0A9EFD" points="638,253.04,648,257.04,638,261.04,642,257.04" style="stroke:#0A9EFD;stroke-width:1.0;"/><line style="stroke:#0A9EFD;stroke-width:2.0;" x1="370" x2="644" y1="257.04" y2="257.04"/><text fill="#0A9EFD" font-family="Arial" font-size="13" lengthAdjust="spacing" textLength="135" x="440.5" y="237.3364">Join a channel with uid,</text><text fill="#0A9EFD" font-family="Arial" font-size="13" lengthAdjust="spacing" textLength="146" x="437" y="252.2852">channel name, and token</text><line style="stroke:#0A9EFD;stroke-width:2.0;" x1="650" x2="692" y1="300.9375" y2="300.9375"/><line style="stroke:#0A9EFD;stroke-width:2.0;" x1="692" x2="692" y1="300.9375" y2="313.9375"/><line style="stroke:#0A9EFD;stroke-width:2.0;" x1="651" x2="692" y1="313.9375" y2="313.9375"/><polygon fill="#0A9EFD" points="661,309.9375,651,313.9375,661,317.9375,657,313.9375" style="stroke:#0A9EFD;stroke-width:1.0;"/><text fill="#0A9EFD" font-family="Arial" font-size="13" lengthAdjust="spacing" textLength="47" x="658.5" y="281.2339">Validate</text><text fill="#0A9EFD" font-family="Arial" font-size="13" lengthAdjust="spacing" textLength="54" x="657" y="296.1826">the token</text><polygon fill="#0A9EFD" points="381,353.835,371,357.835,381,361.835,377,357.835" style="stroke:#0A9EFD;stroke-width:1.0;"/><line style="stroke:#0A9EFD;stroke-width:2.0;" x1="375" x2="649" y1="357.835" y2="357.835"/><text fill="#0A9EFD" font-family="Arial" font-size="13" lengthAdjust="spacing" textLength="142" x="437" y="338.1313">Trigger the callback after</text><text fill="#0A9EFD" font-family="Arial" font-size="13" lengthAdjust="spacing" textLength="153" x="433.5" y="353.0801">adding user to the channel</text><path d="M10,379.835 L130,379.835 L130,386.7837 L120,396.7837 L10,396.7837 L10,379.835 " fill="#EEEEEE" style="stroke:#0A9EFD;stroke-width:1.5;"/><rect fill="none" height="204.5898" style="stroke:#0A9EFD;stroke-width:2.0;" width="683" x="10" y="379.835"/><text fill="#000000" font-family="Arial" font-size="13" lengthAdjust="spacing" textLength="75" x="25" y="393.0288">Renew token</text><polygon fill="#0A9EFD" points="381,413.7324,371,417.7324,381,421.7324,377,417.7324" style="stroke:#0A9EFD;stroke-width:1.0;"/><line style="stroke:#0A9EFD;stroke-width:2.0;" x1="375" x2="649" y1="417.7324" y2="417.7324"/><text fill="#0A9EFD" font-family="Arial" font-size="13" lengthAdjust="spacing" textLength="231" x="394.5" y="412.9775">Trigger event: Token Privilege will Expire</text><polygon fill="#0A9EFD" points="80,457.6299,70,461.6299,80,465.6299,76,461.6299" style="stroke:#0A9EFD;stroke-width:1.0;"/><line style="stroke:#0A9EFD;stroke-width:2.0;" x1="74" x2="369" y1="461.6299" y2="461.6299"/><text fill="#0A9EFD" font-family="Arial" font-size="13" lengthAdjust="spacing" textLength="251" x="92" y="441.9263">Request a fresh token using channel name,</text><text fill="#0A9EFD" font-family="Arial" font-size="13" lengthAdjust="spacing" textLength="164" x="139.5" y="456.875">role, token type, and user ID</text><line style="stroke:#0A9EFD;stroke-width:2.0;" x1="69" x2="111" y1="490.5786" y2="490.5786"/><line style="stroke:#0A9EFD;stroke-width:2.0;" x1="111" x2="111" y1="490.5786" y2="503.5786"/><line style="stroke:#0A9EFD;stroke-width:2.0;" x1="70" x2="111" y1="503.5786" y2="503.5786"/><polygon fill="#0A9EFD" points="80,499.5786,70,503.5786,80,507.5786,76,503.5786" style="stroke:#0A9EFD;stroke-width:1.0;"/><text fill="#0A9EFD" font-family="Arial" font-size="13" lengthAdjust="spacing" textLength="246" x="76" y="485.8237">Validate user request against internal logic</text><polygon fill="#0A9EFD" points="358,528.5273,368,532.5273,358,536.5273,362,532.5273" style="stroke:#0A9EFD;stroke-width:1.0;"/><line style="stroke:#0A9EFD;stroke-width:2.0;" x1="69" x2="364" y1="532.5273" y2="532.5273"/><text fill="#0A9EFD" font-family="Arial" font-size="13" lengthAdjust="spacing" textLength="277" x="81" y="527.7725">Generate a fresh token and return it to the client</text><polygon fill="#0A9EFD" points="638,572.4248,648,576.4248,638,580.4248,642,576.4248" style="stroke:#0A9EFD;stroke-width:1.0;"/><line style="stroke:#0A9EFD;stroke-width:2.0;" x1="370" x2="644" y1="576.4248" y2="576.4248"/><text fill="#0A9EFD" font-family="Arial" font-size="13" lengthAdjust="spacing" textLength="120" x="448" y="556.7212">Send the fresh token</text><text fill="#0A9EFD" font-family="Arial" font-size="13" lengthAdjust="spacing" textLength="159" x="430.5" y="571.6699">with a RenewToken request</text><!--SRC=[jLBDJi904BxtAKREuWCGOqAYCNWm3H1E96Penp9XcQtJNOItTxQbzITgl7ZRTlRxcsylM0eNImAilE9JisEvuhXtMRRnHnZDzhMZFKcW4ZOdEFauochKm0NNA056IxyZWORqG3e2R62ncd- -CQthTZ3Dyup4QFpnJ9whFt3PCK-J_1VknUruldmyWsVlu4fzhE71im12iKKHSl3AOGiOmzRCSe61lMGc2UERP6a2Stg9r0H3XDPoR5Yg0IsufqjO2wXtTkYkX5DjPpJPQ05XTfiPqq2uGiSb1kg6M26BqHi5sxPKqDbMYgWSJgsFwt47koSXJR3UIE9N2b4D6UmVM0Ge75kEFe2bdtoRDtAPN7zEaGXRQeFF1lXWTor9uCk5V09BvQgo9AqyEhV1OWVuR5aCWcMPrjL6xIrsegcMlfAvPNlzXPeE5ie-szovye4TLMHHd8ExOyrAFrJshDHi_wSuxKNE1GxjELznyLDr7mtzjS15Ui1fzX6ybkxXThlhDdEsr6xs3G00]--></g></svg>