<?xml version="1.0" encoding="us-ascii" standalone="no"?><svg xmlns="http://www.w3.org/2000/svg" xmlns:xlink="http://www.w3.org/1999/xlink" contentStyleType="text/css" height="640px" preserveAspectRatio="none" style="width:737px;height:640px;" version="1.1" viewBox="0 0 737 640" width="737px" zoomAndPan="magnify"><defs/><g><rect fill="none" height="638.4824" style="stroke:#0A9EFD;stroke-width:1.0;" width="735" x="0" y="0"/><rect fill="#999999" fill-opacity="0.33333" height="628.4824" style="stroke:#0A9EFD;stroke-width:0.5;" width="378.5" x="16" y="6"/><text fill="#0A9EFD" font-family="sans-serif" font-size="13" font-weight="bold" lengthAdjust="spacing" textLength="140" x="135.25" y="18.5684">Implemented by you</text><rect fill="#999999" fill-opacity="0.33333" height="628.4824" style="stroke:#0A9EFD;stroke-width:0.5;" width="132" x="592" y="6"/><text fill="#0A9EFD" font-family="sans-serif" font-size="13" font-weight="bold" lengthAdjust="spacing" textLength="126" x="595" y="18.5684">Provided by Agora</text><rect fill="#0A9EFD" fill-opacity="0.06667" height="291.3848" style="stroke:#0A9EFD;stroke-width:2.0;" width="721" x="10" y="73.4092"/><rect fill="#0A9EFD" fill-opacity="0.06667" height="204.5898" style="stroke:#0A9EFD;stroke-width:2.0;" width="694" x="10" y="378.7939"/><line style="stroke:#0A9EFD;stroke-width:0.5;stroke-dasharray:5.0,5.0;" x1="69" x2="69" y1="56.4092" y2="600.3838"/><line style="stroke:#0A9EFD;stroke-width:0.5;stroke-dasharray:5.0,5.0;" x1="370.5" x2="370.5" y1="56.4092" y2="600.3838"/><line style="stroke:#0A9EFD;stroke-width:0.5;stroke-dasharray:5.0,5.0;" x1="658" x2="658" y1="56.4092" y2="600.3838"/><rect fill="none" height="30.0986" rx="2.5" ry="2.5" style="stroke:#0A9EFD;stroke-width:2.0;" width="98" x="20" y="25.3105"/><text fill="#0A9EFD" font-family="Arial" font-size="14" lengthAdjust="spacing" textLength="84" x="27" y="45.4424">Token server</text><rect fill="none" height="30.0986" rx="2.5" ry="2.5" style="stroke:#0A9EFD;stroke-width:2.0;" width="98" x="20" y="599.3838"/><text fill="#0A9EFD" font-family="Arial" font-size="14" lengthAdjust="spacing" textLength="84" x="27" y="619.5156">Token server</text><rect fill="none" height="30.0986" rx="2.5" ry="2.5" style="stroke:#0A9EFD;stroke-width:2.0;" width="39" x="351.5" y="25.3105"/><text fill="#0A9EFD" font-family="Arial" font-size="14" lengthAdjust="spacing" textLength="25" x="358.5" y="45.4424">App</text><rect fill="none" height="30.0986" rx="2.5" ry="2.5" style="stroke:#0A9EFD;stroke-width:2.0;" width="39" x="351.5" y="599.3838"/><text fill="#0A9EFD" font-family="Arial" font-size="14" lengthAdjust="spacing" textLength="25" x="358.5" y="619.5156">App</text><rect fill="none" height="30.0986" rx="2.5" ry="2.5" style="stroke:#0A9EFD;stroke-width:2.0;" width="72" x="622" y="25.3105"/><text fill="#0A9EFD" font-family="Arial" font-size="14" lengthAdjust="spacing" textLength="58" x="629" y="45.4424">SDRTN&#174;</text><rect fill="none" height="30.0986" rx="2.5" ry="2.5" style="stroke:#0A9EFD;stroke-width:2.0;" width="72" x="622" y="599.3838"/><text fill="#0A9EFD" font-family="Arial" font-size="14" lengthAdjust="spacing" textLength="58" x="629" y="619.5156">SDRTN&#174;</text><path d="M10,73.4092 L251,73.4092 L251,80.3579 L241,90.3579 L10,90.3579 L10,73.4092 " fill="#EEEEEE" style="stroke:#0A9EFD;stroke-width:1.5;"/><rect fill="none" height="291.3848" style="stroke:#0A9EFD;stroke-width:2.0;" width="721" x="10" y="73.4092"/><text fill="#000000" font-family="Arial" font-size="13" lengthAdjust="spacing" textLength="196" x="25" y="86.603">Join a channel with authentication</text><polygon fill="#0A9EFD" points="80,122.2554,70,126.2554,80,130.2554,76,126.2554" style="stroke:#0A9EFD;stroke-width:1.0;"/><line style="stroke:#0A9EFD;stroke-width:2.0;" x1="74" x2="370" y1="126.2554" y2="126.2554"/><text fill="#0A9EFD" font-family="Arial" font-size="13" lengthAdjust="spacing" textLength="219" x="108.5" y="106.5518">Request a token using channel name,</text><text fill="#0A9EFD" font-family="Arial" font-size="13" lengthAdjust="spacing" textLength="165" x="139.5" y="121.5005">role, token type, and user ID</text><line style="stroke:#0A9EFD;stroke-width:2.0;" x1="69" x2="111" y1="170.1528" y2="170.1528"/><line style="stroke:#0A9EFD;stroke-width:2.0;" x1="111" x2="111" y1="170.1528" y2="183.1528"/><line style="stroke:#0A9EFD;stroke-width:2.0;" x1="70" x2="111" y1="183.1528" y2="183.1528"/><polygon fill="#0A9EFD" points="80,179.1528,70,183.1528,80,187.1528,76,183.1528" style="stroke:#0A9EFD;stroke-width:1.0;"/><text fill="#0A9EFD" font-family="Arial" font-size="13" lengthAdjust="spacing" textLength="122" x="76" y="150.4492">Validate user against</text><text fill="#0A9EFD" font-family="Arial" font-size="13" lengthAdjust="spacing" textLength="92" x="95" y="165.3979">internal security</text><polygon fill="#0A9EFD" points="359,208.1016,369,212.1016,359,216.1016,363,212.1016" style="stroke:#0A9EFD;stroke-width:1.0;"/><line style="stroke:#0A9EFD;stroke-width:2.0;" x1="69" x2="365" y1="212.1016" y2="212.1016"/><text fill="#0A9EFD" font-family="Arial" font-size="13" lengthAdjust="spacing" textLength="245" x="97.5" y="207.3467">Generate a token and return it to the client</text><polygon fill="#0A9EFD" points="646,251.999,656,255.999,646,259.999,650,255.999" style="stroke:#0A9EFD;stroke-width:1.0;"/><line style="stroke:#0A9EFD;stroke-width:2.0;" x1="371" x2="652" y1="255.999" y2="255.999"/><text fill="#0A9EFD" font-family="Arial" font-size="13" lengthAdjust="spacing" textLength="136" x="444.5" y="236.2954">Join a channel with uid,</text><text fill="#0A9EFD" font-family="Arial" font-size="13" lengthAdjust="spacing" textLength="146" x="441.5" y="251.2441">channel name, and token</text><line style="stroke:#0A9EFD;stroke-width:2.0;" x1="658" x2="700" y1="299.8965" y2="299.8965"/><line style="stroke:#0A9EFD;stroke-width:2.0;" x1="700" x2="700" y1="299.8965" y2="312.8965"/><line style="stroke:#0A9EFD;stroke-width:2.0;" x1="659" x2="700" y1="312.8965" y2="312.8965"/><polygon fill="#0A9EFD" points="669,308.8965,659,312.8965,669,316.8965,665,312.8965" style="stroke:#0A9EFD;stroke-width:1.0;"/><text fill="#0A9EFD" font-family="Arial" font-size="13" lengthAdjust="spacing" textLength="47" x="666.5" y="280.1929">Validate</text><text fill="#0A9EFD" font-family="Arial" font-size="13" lengthAdjust="spacing" textLength="54" x="665" y="295.1416">the token</text><polygon fill="#0A9EFD" points="382,352.7939,372,356.7939,382,360.7939,378,356.7939" style="stroke:#0A9EFD;stroke-width:1.0;"/><line style="stroke:#0A9EFD;stroke-width:2.0;" x1="376" x2="657" y1="356.7939" y2="356.7939"/><text fill="#0A9EFD" font-family="Arial" font-size="13" lengthAdjust="spacing" textLength="144" x="440.5" y="337.0903">Trigger the callback after</text><text fill="#0A9EFD" font-family="Arial" font-size="13" lengthAdjust="spacing" textLength="153" x="438" y="352.0391">adding user to the channel</text><path d="M10,378.7939 L130,378.7939 L130,385.7427 L120,395.7427 L10,395.7427 L10,378.7939 " fill="#EEEEEE" style="stroke:#0A9EFD;stroke-width:1.5;"/><rect fill="none" height="204.5898" style="stroke:#0A9EFD;stroke-width:2.0;" width="694" x="10" y="378.7939"/><text fill="#000000" font-family="Arial" font-size="13" lengthAdjust="spacing" textLength="75" x="25" y="391.9878">Renew token</text><polygon fill="#0A9EFD" points="382,412.6914,372,416.6914,382,420.6914,378,416.6914" style="stroke:#0A9EFD;stroke-width:1.0;"/><line style="stroke:#0A9EFD;stroke-width:2.0;" x1="376" x2="657" y1="416.6914" y2="416.6914"/><text fill="#0A9EFD" font-family="Arial" font-size="13" lengthAdjust="spacing" textLength="237" x="396" y="411.9365">Trigger event: Token Privilege will Expire</text><polygon fill="#0A9EFD" points="80,456.5889,70,460.5889,80,464.5889,76,460.5889" style="stroke:#0A9EFD;stroke-width:1.0;"/><line style="stroke:#0A9EFD;stroke-width:2.0;" x1="74" x2="370" y1="460.5889" y2="460.5889"/><text fill="#0A9EFD" font-family="Arial" font-size="13" lengthAdjust="spacing" textLength="252" x="92" y="440.8853">Request a fresh token using channel name,</text><text fill="#0A9EFD" font-family="Arial" font-size="13" lengthAdjust="spacing" textLength="165" x="139.5" y="455.834">role, token type, and user ID</text><line style="stroke:#0A9EFD;stroke-width:2.0;" x1="69" x2="111" y1="489.5376" y2="489.5376"/><line style="stroke:#0A9EFD;stroke-width:2.0;" x1="111" x2="111" y1="489.5376" y2="502.5376"/><line style="stroke:#0A9EFD;stroke-width:2.0;" x1="70" x2="111" y1="502.5376" y2="502.5376"/><polygon fill="#0A9EFD" points="80,498.5376,70,502.5376,80,506.5376,76,502.5376" style="stroke:#0A9EFD;stroke-width:1.0;"/><text fill="#0A9EFD" font-family="Arial" font-size="13" lengthAdjust="spacing" textLength="246" x="76" y="484.7827">Validate user request against internal logic</text><polygon fill="#0A9EFD" points="359,527.4863,369,531.4863,359,535.4863,363,531.4863" style="stroke:#0A9EFD;stroke-width:1.0;"/><line style="stroke:#0A9EFD;stroke-width:2.0;" x1="69" x2="365" y1="531.4863" y2="531.4863"/><text fill="#0A9EFD" font-family="Arial" font-size="13" lengthAdjust="spacing" textLength="278" x="81" y="526.7314">Generate a fresh token and return it to the client</text><polygon fill="#0A9EFD" points="646,571.3838,656,575.3838,646,579.3838,650,575.3838" style="stroke:#0A9EFD;stroke-width:1.0;"/><line style="stroke:#0A9EFD;stroke-width:2.0;" x1="371" x2="652" y1="575.3838" y2="575.3838"/><text fill="#0A9EFD" font-family="Arial" font-size="13" lengthAdjust="spacing" textLength="121" x="452" y="555.6802">Send the fresh token</text><text fill="#0A9EFD" font-family="Arial" font-size="13" lengthAdjust="spacing" textLength="160" x="434.5" y="570.6289">with a RenewToken request</text><!--SRC=[jLBDRjim3BxxARYSc_GU30K2T1Yoms0aGKy11iPc7I8AvT5IchnK7w9FDagElRPOXrrsaqrzV_pqYQLoiIQOpMvFN9EVTlNX5Xkl-ACxiCmu7brHxFmP9ijZw-X84gY6tGKkFawA5ZLmnIrAWCd67qYW8psHJW0xM3-itjvOj6qUBCgo834QVxwIb-gJVcPU9FbttElxrURxo_CLlVoDRjJ75hvv5a2ezYX23fuux05Zs9jRhZ2mby8qONgNFCrXHJyZTS4G8NkE7KipeWMFT0DR0VNE3lsLS6djZ2ORBI4ixmjZ6WaVq76DWVeXDiXYz4R1jYuLTBQMAYg7I_RnUTh3lfAG9jXW9F4hXQY63FOFB09KZYt74C3Ip_-ODtATNBzDaGWpjS6N8toqkvKayEv2EOUDSjDOaYoFpksmEW0-MXQ3O5sdTUMeWyLUDDKoLBAoR4z_eQQJXRBFdBjKFh6ZXYoAS_3btBBI1vKzAdNx_rES3YBN0iVsd6-u-gYwruR-jS1rUi1fzXgybVxXzhlhDtErb3Vx2m00]--></g></svg>