<?xml version="1.0" encoding="us-ascii" standalone="no"?><svg xmlns="http://www.w3.org/2000/svg" xmlns:xlink="http://www.w3.org/1999/xlink" contentStyleType="text/css" height="622.4935px" preserveAspectRatio="none" style="width:1000px;height:622px;" version="1.1" viewBox="0 0 1000 622" width="1000.2906px" zoomAndPan="magnify"><defs/><g><rect fill="none" height="621.7737" style="stroke:#0A9EFD;stroke-width:0.5812263876780006;" width="999.4188" x="0" y="0"/><rect fill="#0A9EFD" fill-opacity="0.06667" height="445.6667" style="stroke:#0A9EFD;stroke-width:1.1624527753560012;" width="973.8448" x="23.2491" y="102.2638"/><rect fill="#0A9EFD" fill-opacity="0.06667" height="237.9154" style="stroke:#0A9EFD;stroke-width:1.1624527753560012;" width="765.1845" x="29.0613" y="173.6354"/><rect fill="#0A9EFD" fill-opacity="0.06667" height="175.2324" style="stroke:#0A9EFD;stroke-width:1.1624527753560012;" width="440.279" x="348.1546" y="232.2499"/><line style="stroke:#0A9EFD;stroke-width:0.2906131938390003;stroke-dasharray:5.0,5.0;" x1="31.9675" x2="31.9675" y1="50.0428" y2="574.6371"/><line style="stroke:#0A9EFD;stroke-width:0.2906131938390003;stroke-dasharray:5.0,5.0;" x1="181.9239" x2="181.9239" y1="50.0428" y2="574.6371"/><line style="stroke:#0A9EFD;stroke-width:0.2906131938390003;stroke-dasharray:5.0,5.0;" x1="385.3531" x2="385.3531" y1="50.0428" y2="574.6371"/><line style="stroke:#0A9EFD;stroke-width:0.2906131938390003;stroke-dasharray:5.0,5.0;" x1="580.6452" x2="580.6452" y1="50.0428" y2="574.6371"/><line style="stroke:#0A9EFD;stroke-width:0.2906131938390003;stroke-dasharray:5.0,5.0;" x1="785.5275" x2="785.5275" y1="50.0428" y2="574.6371"/><text fill="#0A9EFD" font-family="Arial" font-size="8.1372" lengthAdjust="spacing" textLength="55.2165" x="2.9061" y="48.3184">Product Owner</text><ellipse cx="32.2581" cy="9.2996" fill="none" rx="4.6498" ry="4.6498" style="stroke:#0A9EFD;stroke-width:1.7436791630340018;"/><path d="M32.2581,13.9494 L32.2581,29.6425 M24.7021,18.5992 L39.814,18.5992 M32.2581,29.6425 L24.7021,38.3609 M32.2581,29.6425 L39.814,38.3609 " fill="none" style="stroke:#0A9EFD;stroke-width:1.7436791630340018;"/><text fill="#0A9EFD" font-family="Arial" font-size="8.1372" lengthAdjust="spacing" textLength="55.2165" x="2.9061" y="581.6884">Product Owner</text><ellipse cx="32.2581" cy="589.8063" fill="none" rx="4.6498" ry="4.6498" style="stroke:#0A9EFD;stroke-width:1.7436791630340018;"/><path d="M32.2581,594.4561 L32.2581,610.1492 M24.7021,599.1059 L39.814,599.1059 M32.2581,610.1492 L24.7021,618.8676 M32.2581,610.1492 L39.814,618.8676 " fill="none" style="stroke:#0A9EFD;stroke-width:1.7436791630340018;"/><text fill="#0A9EFD" font-family="Arial" font-size="8.1372" lengthAdjust="spacing" textLength="61.0288" x="149.9564" y="48.3184">Project Manager</text><ellipse cx="182.2145" cy="9.2996" fill="none" rx="4.6498" ry="4.6498" style="stroke:#0A9EFD;stroke-width:1.7436791630340018;"/><path d="M182.2145,13.9494 L182.2145,29.6425 M174.6585,18.5992 L189.7704,18.5992 M182.2145,29.6425 L174.6585,38.3609 M182.2145,29.6425 L189.7704,38.3609 " fill="none" style="stroke:#0A9EFD;stroke-width:1.7436791630340018;"/><text fill="#0A9EFD" font-family="Arial" font-size="8.1372" lengthAdjust="spacing" textLength="61.0288" x="149.9564" y="581.6884">Project Manager</text><ellipse cx="182.2145" cy="589.8063" fill="none" rx="4.6498" ry="4.6498" style="stroke:#0A9EFD;stroke-width:1.7436791630340018;"/><path d="M182.2145,594.4561 L182.2145,610.1492 M174.6585,599.1059 L189.7704,599.1059 M182.2145,610.1492 L174.6585,618.8676 M182.2145,610.1492 L189.7704,618.8676 " fill="none" style="stroke:#0A9EFD;stroke-width:1.7436791630340018;"/><text fill="#0A9EFD" font-family="Arial" font-size="8.1372" lengthAdjust="spacing" textLength="59.8663" x="353.9669" y="48.3184">Technical Writer</text><ellipse cx="385.6437" cy="9.2996" fill="none" rx="4.6498" ry="4.6498" style="stroke:#0A9EFD;stroke-width:1.7436791630340018;"/><path d="M385.6437,13.9494 L385.6437,29.6425 M378.0878,18.5992 L393.1997,18.5992 M385.6437,29.6425 L378.0878,38.3609 M385.6437,29.6425 L393.1997,38.3609 " fill="none" style="stroke:#0A9EFD;stroke-width:1.7436791630340018;"/><text fill="#0A9EFD" font-family="Arial" font-size="8.1372" lengthAdjust="spacing" textLength="59.8663" x="353.9669" y="581.6884">Technical Writer</text><ellipse cx="385.6437" cy="589.8063" fill="none" rx="4.6498" ry="4.6498" style="stroke:#0A9EFD;stroke-width:1.7436791630340018;"/><path d="M385.6437,594.4561 L385.6437,610.1492 M378.0878,599.1059 L393.1997,599.1059 M385.6437,610.1492 L378.0878,618.8676 M385.6437,610.1492 L393.1997,618.8676 " fill="none" style="stroke:#0A9EFD;stroke-width:1.7436791630340018;"/><text fill="#0A9EFD" font-family="Arial" font-size="8.1372" lengthAdjust="spacing" textLength="23.8303" x="567.277" y="48.3184">Tester</text><ellipse cx="580.9358" cy="9.2996" fill="none" rx="4.6498" ry="4.6498" style="stroke:#0A9EFD;stroke-width:1.7436791630340018;"/><path d="M580.9358,13.9494 L580.9358,29.6425 M573.3798,18.5992 L588.4917,18.5992 M580.9358,29.6425 L573.3798,38.3609 M580.9358,29.6425 L588.4917,38.3609 " fill="none" style="stroke:#0A9EFD;stroke-width:1.7436791630340018;"/><text fill="#0A9EFD" font-family="Arial" font-size="8.1372" lengthAdjust="spacing" textLength="23.8303" x="567.277" y="581.6884">Tester</text><ellipse cx="580.9358" cy="589.8063" fill="none" rx="4.6498" ry="4.6498" style="stroke:#0A9EFD;stroke-width:1.7436791630340018;"/><path d="M580.9358,594.4561 L580.9358,610.1492 M573.3798,599.1059 L588.4917,599.1059 M580.9358,610.1492 L573.3798,618.8676 M580.9358,610.1492 L588.4917,618.8676 " fill="none" style="stroke:#0A9EFD;stroke-width:1.7436791630340018;"/><text fill="#0A9EFD" font-family="Arial" font-size="8.1372" lengthAdjust="spacing" textLength="36.036" x="765.7658" y="48.3184">DevReller</text><ellipse cx="785.5275" cy="9.2996" fill="none" rx="4.6498" ry="4.6498" style="stroke:#0A9EFD;stroke-width:1.7436791630340018;"/><path d="M785.5275,13.9494 L785.5275,29.6425 M777.9715,18.5992 L793.0834,18.5992 M785.5275,29.6425 L777.9715,38.3609 M785.5275,29.6425 L793.0834,38.3609 " fill="none" style="stroke:#0A9EFD;stroke-width:1.7436791630340018;"/><text fill="#0A9EFD" font-family="Arial" font-size="8.1372" lengthAdjust="spacing" textLength="36.036" x="765.7658" y="581.6884">DevReller</text><ellipse cx="785.5275" cy="589.8063" fill="none" rx="4.6498" ry="4.6498" style="stroke:#0A9EFD;stroke-width:1.7436791630340018;"/><path d="M785.5275,594.4561 L785.5275,610.1492 M777.9715,599.1059 L793.0834,599.1059 M785.5275,610.1492 L777.9715,618.8676 M785.5275,610.1492 L793.0834,618.8676 " fill="none" style="stroke:#0A9EFD;stroke-width:1.7436791630340018;"/><polygon fill="#0A9EFD" points="175.2398,74.3947,181.052,76.7196,175.2398,79.0445,177.5647,76.7196" style="stroke:#0A9EFD;stroke-width:0.5812263876780006;"/><line style="stroke:#0A9EFD;stroke-width:1.1624527753560012;" x1="32.2581" x2="178.7271" y1="76.7196" y2="76.7196"/><text fill="#0A9EFD" font-family="Arial" font-size="7.5559" lengthAdjust="spacing" textLength="136.007" x="39.2328" y="65.2674">Request documentation for new features</text><text fill="#0A9EFD" font-family="Arial" font-size="7.5559" lengthAdjust="spacing" textLength="80.2092" x="68.2941" y="73.9559">Or update existing docs</text><polygon fill="#0A9EFD" points="778.5527,91.2205,784.365,93.5454,778.5527,95.8703,780.8777,93.5454" style="stroke:#0A9EFD;stroke-width:0.5812263876780006;"/><line style="stroke:#0A9EFD;stroke-width:1.1624527753560012;" x1="32.2581" x2="782.0401" y1="93.5454" y2="93.5454"/><text fill="#0A9EFD" font-family="Arial" font-size="7.5559" lengthAdjust="spacing" textLength="114.5016" x="351.642" y="90.7817">Inform DevRel about new features</text><path d="M23.2491,102.2638 L128.451,102.2638 L128.451,106.3026 L122.6388,112.1148 L23.2491,112.1148 L23.2491,102.2638 " fill="#EEEEEE" style="stroke:#0A9EFD;stroke-width:0.8718395815170009;"/><rect fill="none" height="445.6667" style="stroke:#0A9EFD;stroke-width:1.1624527753560012;" width="973.8448" x="23.2491" y="102.2638"/><text fill="#000000" font-family="Arial" font-size="7.5559" lengthAdjust="spacing" textLength="79.0468" x="31.9675" y="109.9324">Feature implementation</text><line style="stroke:#0A9EFD;stroke-width:1.1624527753560012;" x1="182.2145" x2="206.626" y1="124.2908" y2="124.2908"/><line style="stroke:#0A9EFD;stroke-width:1.1624527753560012;" x1="206.626" x2="206.626" y1="124.2908" y2="131.8467"/><line style="stroke:#0A9EFD;stroke-width:1.1624527753560012;" x1="182.7957" x2="206.626" y1="131.8467" y2="131.8467"/><polygon fill="#0A9EFD" points="188.608,129.5218,182.7957,131.8467,188.608,134.1716,186.2831,131.8467" style="stroke:#0A9EFD;stroke-width:0.5812263876780006;"/><text fill="#0A9EFD" font-family="Arial" font-size="7.5559" lengthAdjust="spacing" textLength="130.7759" x="186.2831" y="121.5271">Create Gitlab milestone for the feature.</text><line style="stroke:#0A9EFD;stroke-width:1.1624527753560012;" x1="182.2145" x2="206.626" y1="157.3611" y2="157.3611"/><line style="stroke:#0A9EFD;stroke-width:1.1624527753560012;" x1="206.626" x2="206.626" y1="157.3611" y2="164.917"/><line style="stroke:#0A9EFD;stroke-width:1.1624527753560012;" x1="182.7957" x2="206.626" y1="164.917" y2="164.917"/><polygon fill="#0A9EFD" points="188.608,162.5921,182.7957,164.917,188.608,167.2419,186.2831,164.917" style="stroke:#0A9EFD;stroke-width:0.5812263876780006;"/><text fill="#0A9EFD" font-family="Arial" font-size="7.5559" lengthAdjust="spacing" textLength="195.2921" x="186.2831" y="145.9088">Create Gitlab issue for each platform that needs individual</text><text fill="#0A9EFD" font-family="Arial" font-size="7.5559" lengthAdjust="spacing" textLength="175.5304" x="197.3264" y="154.5974">implementation details, then assign tasks to writers.</text><path d="M29.0613,173.6354 L69.1659,173.6354 L69.1659,177.6742 L63.3537,183.4865 L29.0613,183.4865 L29.0613,173.6354 " fill="#EEEEEE" style="stroke:#0A9EFD;stroke-width:0.8718395815170009;"/><rect fill="none" height="237.9154" style="stroke:#0A9EFD;stroke-width:1.1624527753560012;" width="765.1845" x="29.0613" y="173.6354"/><text fill="#000000" font-family="Arial" font-size="7.5559" lengthAdjust="spacing" textLength="13.9494" x="37.7797" y="181.304">loop</text><text fill="#0A9EFD" font-family="Arial" font-size="7.5559" font-weight="bold" lengthAdjust="spacing" textLength="57.5414" x="77.8843" y="181.8853">[For each issue]</text><path d="M34.8736,186.3926 L34.8736,200.342 L262.7143,200.342 L262.7143,192.2049 L256.9021,186.3926 L34.8736,186.3926 " fill="none" style="stroke:#0A9EFD;stroke-width:0.5812263876780006;"/><path d="M256.9021,186.3926 L256.9021,192.2049 L262.7143,192.2049 L256.9021,186.3926 " fill="none" style="stroke:#0A9EFD;stroke-width:0.5812263876780006;"/><text fill="#0A9EFD" font-family="Arial" font-size="7.5559" lengthAdjust="spacing" textLength="210.404" x="43.592" y="196.3861">Implementation and documentation tasks completed in parallel</text><line style="stroke:#0A9EFD;stroke-width:1.1624527753560012;" x1="385.6437" x2="410.0552" y1="215.9756" y2="215.9756"/><line style="stroke:#0A9EFD;stroke-width:1.1624527753560012;" x1="410.0552" x2="410.0552" y1="215.9756" y2="223.5315"/><line style="stroke:#0A9EFD;stroke-width:1.1624527753560012;" x1="386.2249" x2="410.0552" y1="223.5315" y2="223.5315"/><polygon fill="#0A9EFD" points="392.0372,221.2066,386.2249,223.5315,392.0372,225.8564,389.7123,223.5315" style="stroke:#0A9EFD;stroke-width:0.5812263876780006;"/><text fill="#0A9EFD" font-family="Arial" font-size="7.5559" lengthAdjust="spacing" textLength="81.9529" x="389.7123" y="213.2119">Create milestone branch</text><path d="M348.1546,232.2499 L388.2592,232.2499 L388.2592,236.2887 L382.447,242.1009 L348.1546,242.1009 L348.1546,232.2499 " fill="#EEEEEE" style="stroke:#0A9EFD;stroke-width:0.8718395815170009;"/><rect fill="none" height="175.2324" style="stroke:#0A9EFD;stroke-width:1.1624527753560012;" width="440.279" x="348.1546" y="232.2499"/><text fill="#000000" font-family="Arial" font-size="7.5559" lengthAdjust="spacing" textLength="13.9494" x="356.873" y="239.9185">loop</text><text fill="#0A9EFD" font-family="Arial" font-size="7.5559" font-weight="bold" lengthAdjust="spacing" textLength="33.7111" x="396.9776" y="240.4997">[Validate]</text><line style="stroke:#0A9EFD;stroke-width:1.1624527753560012;" x1="385.6437" x2="410.0552" y1="254.2769" y2="254.2769"/><line style="stroke:#0A9EFD;stroke-width:1.1624527753560012;" x1="410.0552" x2="410.0552" y1="254.2769" y2="261.8328"/><line style="stroke:#0A9EFD;stroke-width:1.1624527753560012;" x1="386.2249" x2="410.0552" y1="261.8328" y2="261.8328"/><polygon fill="#0A9EFD" points="392.0372,259.5079,386.2249,261.8328,392.0372,264.1577,389.7123,261.8328" style="stroke:#0A9EFD;stroke-width:0.5812263876780006;"/><text fill="#0A9EFD" font-family="Arial" font-size="7.5559" lengthAdjust="spacing" textLength="183.6675" x="389.7123" y="251.5132">Write bare-bones code that runs in the get-started app.</text><line style="stroke:#0A9EFD;stroke-width:1.1624527753560012;" x1="385.6437" x2="410.0552" y1="287.3472" y2="287.3472"/><line style="stroke:#0A9EFD;stroke-width:1.1624527753560012;" x1="410.0552" x2="410.0552" y1="287.3472" y2="294.9031"/><line style="stroke:#0A9EFD;stroke-width:1.1624527753560012;" x1="386.2249" x2="410.0552" y1="294.9031" y2="294.9031"/><polygon fill="#0A9EFD" points="392.0372,292.5782,386.2249,294.9031,392.0372,297.228,389.7123,294.9031" style="stroke:#0A9EFD;stroke-width:0.5812263876780006;"/><text fill="#0A9EFD" font-family="Arial" font-size="7.5559" lengthAdjust="spacing" textLength="181.3426" x="389.7123" y="275.8949">In issue branch, document why and how to implement</text><text fill="#0A9EFD" font-family="Arial" font-size="7.5559" lengthAdjust="spacing" textLength="38.3609" x="462.3656" y="284.5835">the feature.</text><polygon fill="#0A9EFD" points="573.9611,318.0926,579.7733,320.4175,573.9611,322.7424,576.286,320.4175" style="stroke:#0A9EFD;stroke-width:0.5812263876780006;"/><line style="stroke:#0A9EFD;stroke-width:1.1624527753560012;" x1="385.6437" x2="577.4484" y1="320.4175" y2="320.4175"/><text fill="#0A9EFD" font-family="Arial" font-size="7.5559" lengthAdjust="spacing" textLength="181.3426" x="392.6184" y="308.9652">Request documentation validation in merge request to</text><text fill="#0A9EFD" font-family="Arial" font-size="7.5559" lengthAdjust="spacing" textLength="57.5414" x="455.6815" y="317.6538">milestone branch</text><line style="stroke:#0A9EFD;stroke-width:1.1624527753560012;" x1="580.9358" x2="605.3473" y1="337.2433" y2="337.2433"/><line style="stroke:#0A9EFD;stroke-width:1.1624527753560012;" x1="605.3473" x2="605.3473" y1="337.2433" y2="344.7992"/><line style="stroke:#0A9EFD;stroke-width:1.1624527753560012;" x1="581.517" x2="605.3473" y1="344.7992" y2="344.7992"/><polygon fill="#0A9EFD" points="587.3293,342.4743,581.517,344.7992,587.3293,347.1241,585.0044,344.7992" style="stroke:#0A9EFD;stroke-width:0.5812263876780006;"/><text fill="#0A9EFD" font-family="Arial" font-size="7.5559" lengthAdjust="spacing" textLength="196.4545" x="585.0044" y="334.4796">Validate documentation and test the code in the document</text><polygon fill="#0A9EFD" points="392.0372,359.3001,386.2249,361.625,392.0372,363.9499,389.7123,361.625" style="stroke:#0A9EFD;stroke-width:0.5812263876780006;"/><polygon fill="#0A9EFD" points="573.9611,359.3001,579.7733,361.625,573.9611,363.9499,576.286,361.625" style="stroke:#0A9EFD;stroke-width:0.5812263876780006;"/><line style="stroke:#0A9EFD;stroke-width:1.1624527753560012;" x1="388.5498" x2="577.4484" y1="361.625" y2="361.625"/><text fill="#0A9EFD" font-family="Arial" font-size="7.5559" lengthAdjust="spacing" textLength="160.4185" x="403.0805" y="358.8613">If necessary: request changes, update, validate</text><polygon fill="#0A9EFD" points="392.0372,376.1258,386.2249,378.4507,392.0372,380.7757,389.7123,378.4507" style="stroke:#0A9EFD;stroke-width:0.5812263876780006;"/><line style="stroke:#0A9EFD;stroke-width:1.1624527753560012;" x1="388.5498" x2="580.3545" y1="378.4507" y2="378.4507"/><text fill="#0A9EFD" font-family="Arial" font-size="7.5559" lengthAdjust="spacing" textLength="83.6966" x="441.4414" y="375.6871">Documentation approved</text><line style="stroke:#0A9EFD;stroke-width:1.1624527753560012;" x1="385.6437" x2="410.0552" y1="395.2765" y2="395.2765"/><line style="stroke:#0A9EFD;stroke-width:1.1624527753560012;" x1="410.0552" x2="410.0552" y1="395.2765" y2="402.8325"/><line style="stroke:#0A9EFD;stroke-width:1.1624527753560012;" x1="386.2249" x2="410.0552" y1="402.8325" y2="402.8325"/><polygon fill="#0A9EFD" points="392.0372,400.5076,386.2249,402.8325,392.0372,405.1574,389.7123,402.8325" style="stroke:#0A9EFD;stroke-width:0.5812263876780006;"/><text fill="#0A9EFD" font-family="Arial" font-size="7.5559" lengthAdjust="spacing" textLength="91.2525" x="389.7123" y="392.5129">Merge branch, close issue.</text><line style="stroke:#0A9EFD;stroke-width:1.1624527753560012;" x1="385.6437" x2="410.0552" y1="436.484" y2="436.484"/><line style="stroke:#0A9EFD;stroke-width:1.1624527753560012;" x1="410.0552" x2="410.0552" y1="436.484" y2="444.0399"/><line style="stroke:#0A9EFD;stroke-width:1.1624527753560012;" x1="386.2249" x2="410.0552" y1="444.0399" y2="444.0399"/><polygon fill="#0A9EFD" points="392.0372,441.715,386.2249,444.0399,392.0372,446.3648,389.7123,444.0399" style="stroke:#0A9EFD;stroke-width:0.5812263876780006;"/><text fill="#0A9EFD" font-family="Arial" font-size="7.5559" lengthAdjust="spacing" textLength="158.6748" x="389.7123" y="425.0317">Create merge request from milestone branch to</text><text fill="#0A9EFD" font-family="Arial" font-size="7.5559" lengthAdjust="spacing" textLength="49.4042" x="445.51" y="433.7203">version branch</text><polygon fill="#0A9EFD" points="778.5527,458.5408,784.365,460.8657,778.5527,463.1906,780.8777,460.8657" style="stroke:#0A9EFD;stroke-width:0.5812263876780006;"/><line style="stroke:#0A9EFD;stroke-width:1.1624527753560012;" x1="182.2145" x2="782.0401" y1="460.8657" y2="460.8657"/><text fill="#0A9EFD" font-family="Arial" font-size="7.5559" lengthAdjust="spacing" textLength="159.8373" x="403.9523" y="458.102">Request documentation validation for milestone</text><line style="stroke:#0A9EFD;stroke-width:1.1624527753560012;" x1="785.5275" x2="809.939" y1="477.6915" y2="477.6915"/><line style="stroke:#0A9EFD;stroke-width:1.1624527753560012;" x1="809.939" x2="809.939" y1="477.6915" y2="485.2474"/><line style="stroke:#0A9EFD;stroke-width:1.1624527753560012;" x1="786.1087" x2="809.939" y1="485.2474" y2="485.2474"/><polygon fill="#0A9EFD" points="791.921,482.9225,786.1087,485.2474,791.921,487.5723,789.596,485.2474" style="stroke:#0A9EFD;stroke-width:0.5812263876780006;"/><text fill="#0A9EFD" font-family="Arial" font-size="7.5559" lengthAdjust="spacing" textLength="200.5231" x="789.596" y="474.9278">Validate documentation and test the code in the documents</text><polygon fill="#0A9EFD" points="392.0372,499.7483,386.2249,502.0732,392.0372,504.3981,389.7123,502.0732" style="stroke:#0A9EFD;stroke-width:0.5812263876780006;"/><polygon fill="#0A9EFD" points="778.5527,499.7483,784.365,502.0732,778.5527,504.3981,780.8777,502.0732" style="stroke:#0A9EFD;stroke-width:0.5812263876780006;"/><line style="stroke:#0A9EFD;stroke-width:1.1624527753560012;" x1="388.5498" x2="782.0401" y1="502.0732" y2="502.0732"/><text fill="#0A9EFD" font-family="Arial" font-size="7.5559" lengthAdjust="spacing" textLength="160.4185" x="505.3763" y="499.3095">If necessary: request changes, update, validate</text><polygon fill="#0A9EFD" points="392.0372,516.574,386.2249,518.8989,392.0372,521.2238,389.7123,518.8989" style="stroke:#0A9EFD;stroke-width:0.5812263876780006;"/><line style="stroke:#0A9EFD;stroke-width:1.1624527753560012;" x1="388.5498" x2="784.9462" y1="518.8989" y2="518.8989"/><text fill="#0A9EFD" font-family="Arial" font-size="7.5559" lengthAdjust="spacing" textLength="83.6966" x="543.7373" y="516.1353">Documentation approved</text><line style="stroke:#0A9EFD;stroke-width:1.1624527753560012;" x1="385.6437" x2="410.0552" y1="535.7247" y2="535.7247"/><line style="stroke:#0A9EFD;stroke-width:1.1624527753560012;" x1="410.0552" x2="410.0552" y1="535.7247" y2="543.2806"/><line style="stroke:#0A9EFD;stroke-width:1.1624527753560012;" x1="386.2249" x2="410.0552" y1="543.2806" y2="543.2806"/><polygon fill="#0A9EFD" points="392.0372,540.9557,386.2249,543.2806,392.0372,545.6056,389.7123,543.2806" style="stroke:#0A9EFD;stroke-width:0.5812263876780006;"/><text fill="#0A9EFD" font-family="Arial" font-size="7.5559" lengthAdjust="spacing" textLength="140.6568" x="389.7123" y="532.961">Merge milestone branch, close milestone.</text><polygon fill="#0A9EFD" points="38.6516,561.8501,32.8393,564.175,38.6516,566.4999,36.3266,564.175" style="stroke:#0A9EFD;stroke-width:0.5812263876780006;"/><line style="stroke:#0A9EFD;stroke-width:1.1624527753560012;" x1="35.1642" x2="181.6332" y1="564.175" y2="564.175"/><text fill="#0A9EFD" font-family="Arial" font-size="7.5559" lengthAdjust="spacing" textLength="101.1334" x="56.6696" y="561.4113">HLD implementation complete</text><!--SRC=[fLHDZzem4BtdLqpt3EmTLPLGKRT8Y_WGAXUaQaY6nCMnKzk1xh_ls8d31fPTgVKfyNZUl7blx4z2fRBE24QZnvF8I0zjTdp4N1lyQOz2ZKHToYIPf4uRU5WQdTMfWyLPaNa0jB1Sl8hz8exDKM4Ue_COtL1QA96YXAqHhWrljfUmZPkhIToSqcbDKhRxqtMIB1Sm_CAeOrZJxvfp8DDfNP9ow8HMSE0qHMSu4BhQaDqfM1YegmmT0VqHrWcL-npRGatNOvWfJYkXgGQurxNhWIJ9az5r1T-QVn1b9QchcG2lvJpo-ch8rteIJk8UIY6Pf5OKcBc28kZetJHXRTsa4AO5L19TeEWAzDGeio1K9jYl6YNts6S46JaKqWvyGSNIMP4hS6YF5fo6Sz3VDWoUjUR6Og5GDma1lvHcIaRaXGDzy4x70Cpw1L5bLqOqrLBjppdAc2vKQ93Db1qASPOlSO7bjTbwIJRRJfABX7k3AYrwfwMd_mEby0RVmGdp1diqDDmpZ6V5unwaDBNoIWPZSd93wz1ujbXLepjeCzMwqx0PT7t3kNW9GXJwx6NkF86TkZ6-ZxkQt9ldKzEQ_sIQ9PcS3MbFEitElwlEQXBHeqHNy9wk2rXCCCZIYX6FNSDzZYeSU0nJiXRDoxXZb1QeSkAvQoxS8DAdDrXvb6cVJ5KPVQBiZl3pq7nKFPNQKkD4Nr4_L7ugafkVsydgoNamkhoHqnkvKoU-BfvXA_6hg-kVZm-Ty_Uu0mx9qtLC_bTZRCJv7qSQ6XyuSUt0jKJHYsv_bB3iIVkqBSRm_Nbw_K35T-4l]--></g></svg>