<?xml version="1.0" encoding="UTF-8" standalone="no"?><svg xmlns="http://www.w3.org/2000/svg" xmlns:xlink="http://www.w3.org/1999/xlink" contentScriptType="application/ecmascript" contentStyleType="text/css" height="2516px" preserveAspectRatio="none" style="width:3718px;height:2516px;background:#00000000;" version="1.1" viewBox="0 0 3718 2516" width="3718px" zoomAndPan="magnify"><defs/><g><rect fill="none" height="2512.1328" style="stroke:#0A9EFD;stroke-width:2.0;" width="3715" x="0" y="0"/><rect fill="#FFFFFF" height="1925.25" style="stroke:#0A9EFD;stroke-width:4.0;" width="3615" x="92" y="328.9297"/><rect fill="#FFFFFF" height="1707.3438" style="stroke:#0A9EFD;stroke-width:4.0;" width="3575" x="112" y="532.8359"/><rect fill="#FFFFFF" height="335.8594" style="stroke:#0A9EFD;stroke-width:4.0;" width="1354" x="1393" y="988.6484"/><rect fill="#FFFFFF" height="544.7891" style="stroke:#0A9EFD;stroke-width:4.0;" width="1690" x="1977" y="1413.4844"/><line style="stroke:#0A9EFD;stroke-width:2.0;stroke-dasharray:5.0,5.0;" x1="122" x2="122" y1="172.9766" y2="2349.1563"/><line style="stroke:#0A9EFD;stroke-width:2.0;stroke-dasharray:5.0,5.0;" x1="763" x2="763" y1="172.9766" y2="2349.1563"/><line style="stroke:#0A9EFD;stroke-width:2.0;stroke-dasharray:5.0,5.0;" x1="1491" x2="1491" y1="172.9766" y2="2349.1563"/><line style="stroke:#0A9EFD;stroke-width:2.0;stroke-dasharray:5.0,5.0;" x1="2049" x2="2049" y1="172.9766" y2="2349.1563"/><line style="stroke:#0A9EFD;stroke-width:2.0;stroke-dasharray:5.0,5.0;" x1="2736" x2="2736" y1="172.9766" y2="2349.1563"/><line style="stroke:#0A9EFD;stroke-width:2.0;stroke-dasharray:5.0,5.0;" x1="3338" x2="3338" y1="172.9766" y2="2349.1563"/><text fill="#0A9EFD" font-family="Roboto" font-size="28" font-weight="bold" lengthAdjust="spacing" textLength="214" x="10" y="167.0703">Product Owner</text><ellipse cx="123" cy="32" rx="16" ry="16" style="stroke:#0A9EFD;stroke-width:6.0;fill:none;"/><path d="M123,48 L123,102 M97,64 L149,64 M123,102 L97,132 M123,102 L149,132 " fill="none" style="stroke:#0A9EFD;stroke-width:6.0;"/><text fill="#0A9EFD" font-family="Roboto" font-size="28" font-weight="bold" lengthAdjust="spacing" textLength="214" x="10" y="2374.2266">Product Owner</text><ellipse cx="123" cy="2402.1328" rx="16" ry="16" style="stroke:#0A9EFD;stroke-width:6.0;fill:none;"/><path d="M123,2418.1328 L123,2472.1328 M97,2434.1328 L149,2434.1328 M123,2472.1328 L97,2502.1328 M123,2472.1328 L149,2502.1328 " fill="none" style="stroke:#0A9EFD;stroke-width:6.0;"/><text fill="#0A9EFD" font-family="Roboto" font-size="28" font-weight="bold" lengthAdjust="spacing" textLength="232" x="641" y="167.0703">Project Manager</text><ellipse cx="763" cy="32" rx="16" ry="16" style="stroke:#0A9EFD;stroke-width:6.0;fill:none;"/><path d="M763,48 L763,102 M737,64 L789,64 M763,102 L737,132 M763,102 L789,132 " fill="none" style="stroke:#0A9EFD;stroke-width:6.0;"/><text fill="#0A9EFD" font-family="Roboto" font-size="28" font-weight="bold" lengthAdjust="spacing" textLength="232" x="641" y="2374.2266">Project Manager</text><ellipse cx="763" cy="2402.1328" rx="16" ry="16" style="stroke:#0A9EFD;stroke-width:6.0;fill:none;"/><path d="M763,2418.1328 L763,2472.1328 M737,2434.1328 L789,2434.1328 M763,2472.1328 L737,2502.1328 M763,2472.1328 L789,2502.1328 " fill="none" style="stroke:#0A9EFD;stroke-width:6.0;"/><text fill="#0A9EFD" font-family="Roboto" font-size="28" font-weight="bold" lengthAdjust="spacing" textLength="144" x="1413" y="167.0703">Developer</text><ellipse cx="1491" cy="32" rx="16" ry="16" style="stroke:#0A9EFD;stroke-width:6.0;fill:none;"/><path d="M1491,48 L1491,102 M1465,64 L1517,64 M1491,102 L1465,132 M1491,102 L1517,132 " fill="none" style="stroke:#0A9EFD;stroke-width:6.0;"/><text fill="#0A9EFD" font-family="Roboto" font-size="28" font-weight="bold" lengthAdjust="spacing" textLength="144" x="1413" y="2374.2266">Developer</text><ellipse cx="1491" cy="2402.1328" rx="16" ry="16" style="stroke:#0A9EFD;stroke-width:6.0;fill:none;"/><path d="M1491,2418.1328 L1491,2472.1328 M1465,2434.1328 L1517,2434.1328 M1491,2472.1328 L1465,2502.1328 M1491,2472.1328 L1517,2502.1328 " fill="none" style="stroke:#0A9EFD;stroke-width:6.0;"/><text fill="#0A9EFD" font-family="Roboto" font-size="28" font-weight="bold" lengthAdjust="spacing" textLength="92" x="1997" y="167.0703">Tester</text><ellipse cx="2049" cy="32" rx="16" ry="16" style="stroke:#0A9EFD;stroke-width:6.0;fill:none;"/><path d="M2049,48 L2049,102 M2023,64 L2075,64 M2049,102 L2023,132 M2049,102 L2075,132 " fill="none" style="stroke:#0A9EFD;stroke-width:6.0;"/><text fill="#0A9EFD" font-family="Roboto" font-size="28" font-weight="bold" lengthAdjust="spacing" textLength="92" x="1997" y="2374.2266">Tester</text><ellipse cx="2049" cy="2402.1328" rx="16" ry="16" style="stroke:#0A9EFD;stroke-width:6.0;fill:none;"/><path d="M2049,2418.1328 L2049,2472.1328 M2023,2434.1328 L2075,2434.1328 M2049,2472.1328 L2023,2502.1328 M2049,2472.1328 L2075,2502.1328 " fill="none" style="stroke:#0A9EFD;stroke-width:6.0;"/><text fill="#0A9EFD" font-family="Roboto" font-size="28" font-weight="bold" lengthAdjust="spacing" textLength="234" x="2614" y="167.0703">Technical Writer</text><ellipse cx="2737" cy="32" rx="16" ry="16" style="stroke:#0A9EFD;stroke-width:6.0;fill:none;"/><path d="M2737,48 L2737,102 M2711,64 L2763,64 M2737,102 L2711,132 M2737,102 L2763,132 " fill="none" style="stroke:#0A9EFD;stroke-width:6.0;"/><text fill="#0A9EFD" font-family="Roboto" font-size="28" font-weight="bold" lengthAdjust="spacing" textLength="234" x="2614" y="2374.2266">Technical Writer</text><ellipse cx="2737" cy="2402.1328" rx="16" ry="16" style="stroke:#0A9EFD;stroke-width:6.0;fill:none;"/><path d="M2737,2418.1328 L2737,2472.1328 M2711,2434.1328 L2763,2434.1328 M2737,2472.1328 L2711,2502.1328 M2737,2472.1328 L2763,2502.1328 " fill="none" style="stroke:#0A9EFD;stroke-width:6.0;"/><text fill="#0A9EFD" font-family="Roboto" font-size="28" font-weight="bold" lengthAdjust="spacing" textLength="138" x="3264" y="167.0703">DevReller</text><ellipse cx="3339" cy="32" rx="16" ry="16" style="stroke:#0A9EFD;stroke-width:6.0;fill:none;"/><path d="M3339,48 L3339,102 M3313,64 L3365,64 M3339,102 L3313,132 M3339,102 L3365,132 " fill="none" style="stroke:#0A9EFD;stroke-width:6.0;"/><text fill="#0A9EFD" font-family="Roboto" font-size="28" font-weight="bold" lengthAdjust="spacing" textLength="138" x="3264" y="2374.2266">DevReller</text><ellipse cx="3339" cy="2402.1328" rx="16" ry="16" style="stroke:#0A9EFD;stroke-width:6.0;fill:none;"/><path d="M3339,2418.1328 L3339,2472.1328 M3313,2434.1328 L3365,2434.1328 M3339,2472.1328 L3313,2502.1328 M3339,2472.1328 L3365,2502.1328 " fill="none" style="stroke:#0A9EFD;stroke-width:6.0;"/><polygon fill="#0A9EFD" points="739,229.9531,759,237.9531,739,245.9531,747,237.9531" style="stroke:#0A9EFD;stroke-width:2.0;"/><line style="stroke:#0A9EFD;stroke-width:4.0;" x1="123" x2="751" y1="237.9531" y2="237.9531"/><text fill="#0A9EFD" font-family="Roboto" font-size="28" font-weight="bold" lengthAdjust="spacing" textLength="592" x="147" y="228.0469">Request implementation of new features</text><polygon fill="#0A9EFD" points="3315,290.9297,3335,298.9297,3315,306.9297,3323,298.9297" style="stroke:#0A9EFD;stroke-width:2.0;"/><line style="stroke:#0A9EFD;stroke-width:4.0;" x1="123" x2="3327" y1="298.9297" y2="298.9297"/><text fill="#0A9EFD" font-family="Roboto" font-size="28" font-weight="bold" lengthAdjust="spacing" textLength="496" x="1483" y="289.0234">Inform DevRel about new features</text><path d="M92,328.9297 L528,328.9297 L528,344.9297 L508,364.9297 L92,364.9297 L92,328.9297 " fill="#EEEEEE" style="stroke:#0A9EFD;stroke-width:2.0;"/><rect fill="none" height="1925.25" style="stroke:#0A9EFD;stroke-width:4.0;" width="3615" x="92" y="328.9297"/><text fill="#0A9EFD" font-family="Roboto" font-size="28" font-weight="bold" lengthAdjust="spacing" textLength="346" x="122" y="358">Feature implementation</text><line style="stroke:#0A9EFD;stroke-width:4.0;" x1="763" x2="847" y1="476.8359" y2="476.8359"/><line style="stroke:#0A9EFD;stroke-width:4.0;" x1="847" x2="847" y1="476.8359" y2="502.8359"/><line style="stroke:#0A9EFD;stroke-width:4.0;" x1="765" x2="847" y1="502.8359" y2="502.8359"/><polygon fill="#0A9EFD" points="785,494.8359,765,502.8359,785,510.8359,777,502.8359" style="stroke:#0A9EFD;stroke-width:2.0;"/><text fill="#0A9EFD" font-family="Roboto" font-size="28" font-weight="bold" lengthAdjust="spacing" textLength="690" x="777" y="400.9766">Create JIRA issues for each feature requirement</text><text fill="#0A9EFD" font-family="Roboto" font-size="28" font-weight="bold" lengthAdjust="spacing" textLength="584" x="787" y="433.9531">This includes documentation issues and</text><text fill="#0A9EFD" font-family="Roboto" font-size="28" font-weight="bold" lengthAdjust="spacing" textLength="412" x="777" y="466.9297">usage details for the feature</text><path d="M112,532.8359 L266,532.8359 L266,548.8359 L246,568.8359 L112,568.8359 L112,532.8359 " fill="#EEEEEE" style="stroke:#0A9EFD;stroke-width:2.0;"/><rect fill="none" height="1707.3438" style="stroke:#0A9EFD;stroke-width:4.0;" width="3575" x="112" y="532.8359"/><text fill="#0A9EFD" font-family="Roboto" font-size="28" font-weight="bold" lengthAdjust="spacing" textLength="64" x="142" y="561.9063">loop</text><text fill="#0A9EFD" font-family="Roboto" font-size="28" font-weight="bold" lengthAdjust="spacing" textLength="298" x="296" y="563.9063">[For each JIRA issue]</text><path d="M132,582.7891 L132,634.7891 L1114,634.7891 L1114,602.7891 L1094,582.7891 L132,582.7891 " fill="#FFFFFF" style="stroke:#0A9EFD;stroke-width:2.0;"/><path d="M1094,582.7891 L1094,602.7891 L1114,602.7891 L1094,582.7891 " fill="#FFFFFF" style="stroke:#0A9EFD;stroke-width:2.0;"/><text fill="#0A9EFD" font-family="Roboto" font-size="28" font-weight="bold" lengthAdjust="spacing" textLength="922" x="162" y="619.8594">Implementation and documentation tasks completed in parallel</text><polygon fill="#0A9EFD" points="1467,682.7422,1487,690.7422,1467,698.7422,1475,690.7422" style="stroke:#0A9EFD;stroke-width:2.0;"/><line style="stroke:#0A9EFD;stroke-width:4.0;" x1="763" x2="1479" y1="690.7422" y2="690.7422"/><text fill="#0A9EFD" font-family="Roboto" font-size="28" font-weight="bold" lengthAdjust="spacing" textLength="356" x="949" y="680.8359">Request implementation</text><polygon fill="#0A9EFD" points="2713,743.7188,2733,751.7188,2713,759.7188,2721,751.7188" style="stroke:#0A9EFD;stroke-width:2.0;"/><line style="stroke:#0A9EFD;stroke-width:4.0;" x1="763" x2="2725" y1="751.7188" y2="751.7188"/><text fill="#0A9EFD" font-family="Roboto" font-size="28" font-weight="bold" lengthAdjust="spacing" textLength="342" x="1579" y="741.8125">Request documentation</text><line style="stroke:#0A9EFD;stroke-width:4.0;" x1="1491" x2="1575" y1="812.6953" y2="812.6953"/><line style="stroke:#0A9EFD;stroke-width:4.0;" x1="1575" x2="1575" y1="812.6953" y2="838.6953"/><line style="stroke:#0A9EFD;stroke-width:4.0;" x1="1493" x2="1575" y1="838.6953" y2="838.6953"/><polygon fill="#0A9EFD" points="1513,830.6953,1493,838.6953,1513,846.6953,1505,838.6953" style="stroke:#0A9EFD;stroke-width:2.0;"/><text fill="#0A9EFD" font-family="Roboto" font-size="28" font-weight="bold" lengthAdjust="spacing" textLength="268" x="1505" y="802.7891">Implement feature</text><line style="stroke:#0A9EFD;stroke-width:4.0;" x1="2737" x2="2821" y1="932.6484" y2="932.6484"/><line style="stroke:#0A9EFD;stroke-width:4.0;" x1="2821" x2="2821" y1="932.6484" y2="958.6484"/><line style="stroke:#0A9EFD;stroke-width:4.0;" x1="2739" x2="2821" y1="958.6484" y2="958.6484"/><polygon fill="#0A9EFD" points="2759,950.6484,2739,958.6484,2759,966.6484,2751,958.6484" style="stroke:#0A9EFD;stroke-width:2.0;"/><text fill="#0A9EFD" font-family="Roboto" font-size="28" font-weight="bold" lengthAdjust="spacing" textLength="574" x="2751" y="889.7656">Write documentation from requirement,</text><text fill="#0A9EFD" font-family="Roboto" font-size="28" font-weight="bold" lengthAdjust="spacing" textLength="532" x="2761" y="922.7422">implementation and Developer input</text><path d="M1393,988.6484 L1547,988.6484 L1547,1004.6484 L1527,1024.6484 L1393,1024.6484 L1393,988.6484 " fill="#EEEEEE" style="stroke:#0A9EFD;stroke-width:2.0;"/><rect fill="none" height="335.8594" style="stroke:#0A9EFD;stroke-width:4.0;" width="1354" x="1393" y="988.6484"/><text fill="#0A9EFD" font-family="Roboto" font-size="28" font-weight="bold" lengthAdjust="spacing" textLength="64" x="1423" y="1017.7188">loop</text><text fill="#0A9EFD" font-family="Roboto" font-size="28" font-weight="bold" lengthAdjust="spacing" textLength="138" x="1577" y="1019.7188">[Validate]</text><polygon fill="#0A9EFD" points="2025,1065.5781,2045,1073.5781,2025,1081.5781,2033,1073.5781" style="stroke:#0A9EFD;stroke-width:2.0;"/><line style="stroke:#0A9EFD;stroke-width:4.0;" x1="1491" x2="2037" y1="1073.5781" y2="1073.5781"/><text fill="#0A9EFD" font-family="Roboto" font-size="28" font-weight="bold" lengthAdjust="spacing" textLength="510" x="1515" y="1063.6719">Request implementation validation</text><line style="stroke:#0A9EFD;stroke-width:4.0;" x1="2049" x2="2133" y1="1134.5547" y2="1134.5547"/><line style="stroke:#0A9EFD;stroke-width:4.0;" x1="2133" x2="2133" y1="1134.5547" y2="1160.5547"/><line style="stroke:#0A9EFD;stroke-width:4.0;" x1="2051" x2="2133" y1="1160.5547" y2="1160.5547"/><polygon fill="#0A9EFD" points="2071,1152.5547,2051,1160.5547,2071,1168.5547,2063,1160.5547" style="stroke:#0A9EFD;stroke-width:2.0;"/><text fill="#0A9EFD" font-family="Roboto" font-size="28" font-weight="bold" lengthAdjust="spacing" textLength="660" x="2063" y="1124.6484">Validate implementation against requirement</text><polygon fill="#0A9EFD" points="1513,1213.5313,1493,1221.5313,1513,1229.5313,1505,1221.5313" style="stroke:#0A9EFD;stroke-width:2.0;"/><line style="stroke:#0A9EFD;stroke-width:4.0;" x1="1501" x2="2047" y1="1221.5313" y2="1221.5313"/><text fill="#0A9EFD" font-family="Roboto" font-size="28" font-weight="bold" lengthAdjust="spacing" textLength="422" x="1559" y="1211.625">If necessary, request changes</text><line style="stroke:#0A9EFD;stroke-width:4.0;" x1="1491" x2="1575" y1="1282.5078" y2="1282.5078"/><line style="stroke:#0A9EFD;stroke-width:4.0;" x1="1575" x2="1575" y1="1282.5078" y2="1308.5078"/><line style="stroke:#0A9EFD;stroke-width:4.0;" x1="1493" x2="1575" y1="1308.5078" y2="1308.5078"/><polygon fill="#0A9EFD" points="1513,1300.5078,1493,1308.5078,1513,1316.5078,1505,1308.5078" style="stroke:#0A9EFD;stroke-width:2.0;"/><text fill="#0A9EFD" font-family="Roboto" font-size="28" font-weight="bold" lengthAdjust="spacing" textLength="100" x="1505" y="1272.6016">Update</text><polygon fill="#0A9EFD" points="785,1375.4844,765,1383.4844,785,1391.4844,777,1383.4844" style="stroke:#0A9EFD;stroke-width:2.0;"/><line style="stroke:#0A9EFD;stroke-width:4.0;" x1="773" x2="2047" y1="1383.4844" y2="1383.4844"/><text fill="#0A9EFD" font-family="Roboto" font-size="28" font-weight="bold" lengthAdjust="spacing" textLength="372" x="1220" y="1373.5781">Implementation approved</text><path d="M1977,1413.4844 L2131,1413.4844 L2131,1429.4844 L2111,1449.4844 L1977,1449.4844 L1977,1413.4844 " fill="#EEEEEE" style="stroke:#0A9EFD;stroke-width:2.0;"/><rect fill="none" height="544.7891" style="stroke:#0A9EFD;stroke-width:4.0;" width="1690" x="1977" y="1413.4844"/><text fill="#0A9EFD" font-family="Roboto" font-size="28" font-weight="bold" lengthAdjust="spacing" textLength="64" x="2007" y="1442.5547">loop</text><text fill="#0A9EFD" font-family="Roboto" font-size="28" font-weight="bold" lengthAdjust="spacing" textLength="138" x="2161" y="1444.5547">[Validate]</text><polygon fill="#0A9EFD" points="2071,1490.4141,2051,1498.4141,2071,1506.4141,2063,1498.4141" style="stroke:#0A9EFD;stroke-width:2.0;"/><line style="stroke:#0A9EFD;stroke-width:4.0;" x1="2059" x2="2735" y1="1498.4141" y2="1498.4141"/><text fill="#0A9EFD" font-family="Roboto" font-size="28" font-weight="bold" lengthAdjust="spacing" textLength="496" x="2145" y="1488.5078">Request documentation validation</text><polygon fill="#0A9EFD" points="3315,1551.3906,3335,1559.3906,3315,1567.3906,3323,1559.3906" style="stroke:#0A9EFD;stroke-width:2.0;"/><line style="stroke:#0A9EFD;stroke-width:4.0;" x1="2737" x2="3327" y1="1559.3906" y2="1559.3906"/><text fill="#0A9EFD" font-family="Roboto" font-size="28" font-weight="bold" lengthAdjust="spacing" textLength="496" x="2790" y="1549.4844">Request documentation validation</text><line style="stroke:#0A9EFD;stroke-width:4.0;" x1="2049" x2="2133" y1="1620.3672" y2="1620.3672"/><line style="stroke:#0A9EFD;stroke-width:4.0;" x1="2133" x2="2133" y1="1620.3672" y2="1646.3672"/><line style="stroke:#0A9EFD;stroke-width:4.0;" x1="2051" x2="2133" y1="1646.3672" y2="1646.3672"/><polygon fill="#0A9EFD" points="2071,1638.3672,2051,1646.3672,2071,1654.3672,2063,1646.3672" style="stroke:#0A9EFD;stroke-width:2.0;"/><text fill="#0A9EFD" font-family="Roboto" font-size="28" font-weight="bold" lengthAdjust="spacing" textLength="530" x="2063" y="1610.4609">Validate documentation against HLD</text><line style="stroke:#0A9EFD;stroke-width:4.0;" x1="3339" x2="3423" y1="1707.3438" y2="1707.3438"/><line style="stroke:#0A9EFD;stroke-width:4.0;" x1="3423" x2="3423" y1="1707.3438" y2="1733.3438"/><line style="stroke:#0A9EFD;stroke-width:4.0;" x1="3341" x2="3423" y1="1733.3438" y2="1733.3438"/><polygon fill="#0A9EFD" points="3361,1725.3438,3341,1733.3438,3361,1741.3438,3353,1733.3438" style="stroke:#0A9EFD;stroke-width:2.0;"/><text fill="#0A9EFD" font-family="Roboto" font-size="28" font-weight="bold" lengthAdjust="spacing" textLength="290" x="3353" y="1697.4375">Technical validation</text><polygon fill="#0A9EFD" points="2759,1786.3203,2739,1794.3203,2759,1802.3203,2751,1794.3203" style="stroke:#0A9EFD;stroke-width:2.0;"/><line style="stroke:#0A9EFD;stroke-width:4.0;" x1="2747" x2="3337" y1="1794.3203" y2="1794.3203"/><text fill="#0A9EFD" font-family="Roboto" font-size="28" font-weight="bold" lengthAdjust="spacing" textLength="422" x="2827" y="1784.4141">If necessary, request changes</text><polygon fill="#0A9EFD" points="2713,1847.2969,2733,1855.2969,2713,1863.2969,2721,1855.2969" style="stroke:#0A9EFD;stroke-width:2.0;"/><line style="stroke:#0A9EFD;stroke-width:4.0;" x1="2049" x2="2725" y1="1855.2969" y2="1855.2969"/><text fill="#0A9EFD" font-family="Roboto" font-size="28" font-weight="bold" lengthAdjust="spacing" textLength="422" x="2182" y="1845.3906">If necessary, request changes</text><line style="stroke:#0A9EFD;stroke-width:4.0;" x1="2737" x2="2821" y1="1916.2734" y2="1916.2734"/><line style="stroke:#0A9EFD;stroke-width:4.0;" x1="2821" x2="2821" y1="1916.2734" y2="1942.2734"/><line style="stroke:#0A9EFD;stroke-width:4.0;" x1="2739" x2="2821" y1="1942.2734" y2="1942.2734"/><polygon fill="#0A9EFD" points="2759,1934.2734,2739,1942.2734,2759,1950.2734,2751,1942.2734" style="stroke:#0A9EFD;stroke-width:2.0;"/><text fill="#0A9EFD" font-family="Roboto" font-size="28" font-weight="bold" lengthAdjust="spacing" textLength="100" x="2751" y="1906.3672">Update</text><line style="stroke:#0A9EFD;stroke-width:4.0;" x1="2737" x2="2821" y1="2050.2266" y2="2050.2266"/><line style="stroke:#0A9EFD;stroke-width:4.0;" x1="2821" x2="2821" y1="2050.2266" y2="2076.2266"/><line style="stroke:#0A9EFD;stroke-width:4.0;" x1="2739" x2="2821" y1="2076.2266" y2="2076.2266"/><polygon fill="#0A9EFD" points="2759,2068.2266,2739,2076.2266,2759,2084.2266,2751,2076.2266" style="stroke:#0A9EFD;stroke-width:2.0;"/><text fill="#0A9EFD" font-family="Roboto" font-size="28" font-weight="bold" lengthAdjust="spacing" textLength="438" x="2751" y="2007.3438">Peer review if feature requires</text><text fill="#0A9EFD" font-family="Roboto" font-size="28" font-weight="bold" lengthAdjust="spacing" textLength="434" x="2761" y="2040.3203">a large documentation change</text><line style="stroke:#0A9EFD;stroke-width:4.0;" x1="2737" x2="2821" y1="2137.2031" y2="2137.2031"/><line style="stroke:#0A9EFD;stroke-width:4.0;" x1="2821" x2="2821" y1="2137.2031" y2="2163.2031"/><line style="stroke:#0A9EFD;stroke-width:4.0;" x1="2739" x2="2821" y1="2163.2031" y2="2163.2031"/><polygon fill="#0A9EFD" points="2759,2155.2031,2739,2163.2031,2759,2171.2031,2751,2163.2031" style="stroke:#0A9EFD;stroke-width:2.0;"/><text fill="#0A9EFD" font-family="Roboto" font-size="28" font-weight="bold" lengthAdjust="spacing" textLength="100" x="2751" y="2127.2969">Update</text><polygon fill="#0A9EFD" points="785,2216.1797,765,2224.1797,785,2232.1797,777,2224.1797" style="stroke:#0A9EFD;stroke-width:2.0;"/><line style="stroke:#0A9EFD;stroke-width:4.0;" x1="773" x2="2047" y1="2224.1797" y2="2224.1797"/><text fill="#0A9EFD" font-family="Roboto" font-size="28" font-weight="bold" lengthAdjust="spacing" textLength="362" x="1225" y="2214.2734">Documentation approved</text><polygon fill="#0A9EFD" points="145,2305.1563,125,2313.1563,145,2321.1563,137,2313.1563" style="stroke:#0A9EFD;stroke-width:2.0;"/><line style="stroke:#0A9EFD;stroke-width:4.0;" x1="133" x2="761" y1="2313.1563" y2="2313.1563"/><text fill="#0A9EFD" font-family="Roboto" font-size="28" font-weight="bold" lengthAdjust="spacing" textLength="442" x="222" y="2303.25">HLD implementation complete</text><!--MD5=[c602a2a814d31a8acb028fda892c4801]
@startuml

!include ../images/agora_skin.iuml

Actor "Product Owner" as PO
Actor "Project Manager" as PM
Actor "Developer" as DEV
Actor "Tester" as QA
Actor "Technical Writer" as TW

Actor "DevReller" as DR

PO -> PM: Request implementation of new features
PO -> DR: Inform DevRel about new features
Group Feature implementation

    PM -> PM: Create JIRA issues for each feature requirement \n This includes documentation issues and \nusage details for the feature

    Loop For each JIRA issue

        note right of PO
         Implementation and documentation tasks completed in parallel
        end note

            PM -> DEV: Request implementation
            PM -> TW: Request documentation

            DEV -> DEV: Implement feature
            TW -> TW: Write documentation from requirement,\n implementation and Developer input

        loop Validate


            DEV -> QA: Request implementation validation
            QA->QA: Validate implementation against requirement
            QA -> DEV: If necessary, request changes
            DEV -> DEV: Update
        end loop
        QA -> PM: Implementation approved


            loop Validate
            TW -> QA: Request documentation validation
            TW -> DR: Request documentation validation

            QA->QA: Validate documentation against HLD
            DR -> DR: Technical validation
            DR -> TW: If necessary, request changes
            QA -> TW: If necessary, request changes
            TW -> TW: Update
            end loop
            TW -> TW: Peer review if feature requires\n a large documentation change
            TW -> TW: Update

        QA -> PM: Documentation approved
    end loop
end

PM -> PO: HLD implementation complete
@enduml

@startuml


scale max 1000 width
skinparam linetype ortho
hide stereotype

skinparam backgroundColor transparent
skinparam Shadowing false
skinparam BoundaryBackgroundColor transparent
skinparam BoundaryBorderColor #0a9efdff
skinparam DiagramBorderColor #0a9efdff
skinparam defaultTextAlignment center
skinparam SequenceMessageAlign center
skinparam ReferenceBorderThickness 2

skinparam sequence {

    ActorBorderThickness 3
   	ActorBorderColor #0a9efdff
	ActorBackgroundColor transparent
	ActorFontColor #0a9efdff
	ActorFontName Roboto
    ActorFontStyle bold
    ActorFontSize 14

    AgentBackgroundColor #0a9efdff

   	ArrowFontColor #0a9efdff
   	ArrowFontSize 14
   	ArrowFontStyle bold
    ArrowColor #ee4c14
    ArrowThickness 2

    RectangleBorderThickness 3
    BoxBackgroundColor #f3f3f3
    BoxBorderColor #0a9efdff

   	BoxFontColor #0a9efdff
   	BoxFontName Roboto
   	BoxFontStyle bold
   	BoxFontSize 16

    BoundaryBackgroundColor #0a9efdff
    BoundaryBorderColor #0a9efdff
    BoundaryFontColor #0a9efdff
    BoundryFontName Roboto
    BoundaryStereotypeFontColor #0a9efdff

    ClassBorderColor #0a9efdff
    ComponentBorderColor #0a9efdff

    DividerBackgroundColor white
    DividerBorderColor #0a9efdff
    DividerBorderThickness 3
    DividerFontColor #0a9efdff
    DividerFontName Roboto
    DividerFontSize bold
    DividerFontStyle 14

    GroupBorderColor #0a9efdff
    GroupBorderThickness 2
    GroupFontName Roboto
    GroupFontSize 14
    GroupFontColor #0a9efdff
    GroupHeaderFontColor #0a9efdff
    GroupHeaderFontName Roboto
    GroupHeaderFontSize 14
    GroupHeaderFontStyle bold

   	LifeLineBorderColor #0a9efdff
   	LifeLineBackgroundColor #0a9efdff
   	LifeLineFontColor  #0a9efdff

   	ParticipantBorderColor #0a9efdff
   	ParticipantBackgroundColor white
   	ParticipantFontSize 14
   	ParticipantFontStyle bold
   	ParticipantFontName Roboto
   	ParticipantFontColor #0a9efdff
    ParticipantBorderThickness 2

    ReferenceBorderThickness 2



    TitleFontColor #0a9efdff
    TitleFontName Roboto
    TitleFontSize 18
    TitleBorderThickness 5

}
skinparam interface {
  BackgroundColor #FFFFFF
  BorderColor #0a9efdff
  BorderThickness 1
  FontColor #0a9efdff
  FontName Roboto
  FontSize 14
  FontStyle bolds

}


skinparam usecase {
  BackgroundColor #FFFFFF
  BorderColor #ee4c14
  BorderThickness 1
  FontColor #0a9efdff
  FontName Roboto
  FontSize 14
  FontStyle bold

}

skinparam note {

  BackgroundColor #FFFFFF

  BorderColor #0a9efdff
  BorderThickness 1

  StartColor #0a9efdff
  BarColor #0a9efdff
  EndColor #0a9efdff

  FontColor #0a9efdff
  FontName Roboto
  FontSize 14
  FontStyle bold

}

skinparam activity {

  BackgroundColor #FFFFFF
  DiamondBackgroundColor #FFFFFF
  DiamondBorderColor #0a9efdff
  BorderColor #0a9efdff
  BorderThickness 4
  DiamondBackgroundColor #FFFFFF
  DiamondBorderColor #0a9efdff
  DiamondFontColor #0a9efdff
  activityDiamondFontName Roboto
  activityDiamondFontSize 14
  DiamondFontStyle bold
  StartColor #0a9efdff
  StopColor #0a9efdff
  BarColor #0a9efdff
  EndColor #0a9efdff

  FontColor #0a9efdff
  FontName Roboto
  FontSize 14
  FontStyle bold

}

skinparam card {
  BackgroundColor transparent
  BorderColor transparent
  BorderThickness 0
  FontColor transparent
}


skinparam rectangle {

  BackgroundColor #FFFFFF

  BorderColor #0a9efdff
  BorderThickness 4

  StartColor #0a9efdff
  BarColor #0a9efdff
  EndColor #0a9efdff

  FontColor #0a9efdff
  FontName Roboto
  FontSize 14
  FontStyle bold

  shadowing true
}

skinparam agent {

  BackgroundColor #FFFFFF
  BorderColor #0a9efdff
  BorderThickness 4

  StartColor #0a9efdff
  BarColor #0a9efdff
  EndColor #0a9efdff

  FontColor #0a9efdff
  FontName Roboto
  FontSize 14
  FontStyle bold

  shadowing true
}

skinparam folder {

  BackgroundColor #FFFFFF

  BorderColor #0a9efdff
  BorderThickness 4

  StartColor #0a9efdff
  BarColor #0a9efdff
  EndColor #0a9efdff

  FontColor #0a9efdff
  FontName Roboto
  FontSize 14
  FontStyle bold

  shadowing true
}

skinparam file {

  BackgroundColor #FFFFFF

  BorderColor #0a9efdff
  BorderThickness 4

  StartColor #0a9efdff
  BarColor #0a9efdff
  EndColor #0a9efdff

  FontColor #0a9efdff
  FontName Roboto
  FontSize 14
  FontStyle bold

  shadowing true
}

skinparam cloud {

  BackgroundColor #FFFFFF

  BorderColor #0a9efdff
  BorderThickness 4

  StartColor #0a9efdff
  BarColor #0a9efdff
  EndColor #0a9efdff

  FontColor #0a9efdff
  FontName Roboto
  FontSize 14
  FontStyle bold

}

skinparam class {

  BackgroundColor #FFFFFF

  BorderColor #0a9efdff
  BorderThickness 1

  StartColor #0a9efdff
  BarColor #0a9efdff
  EndColor #0a9efdff

  FontColor #0a9efdff
  FontName Roboto
  FontSize 14
  FontStyle bold



}

skinparam component {

  BackgroundColor  #FFFFFF

  BorderColor #0a9efdff
  BorderThickness 2

  FontColor #0a9efdff
  FontName Roboto
  FontSize 14
  FontStyle bold
}



skinparam database {

  BackgroundColor #f3f3f3

  BorderColor #0a9efdff
  BorderThickness 2

  FontColor #0a9efdff
  FontName Roboto
  FontSize 14
  FontStyle bold

}


skinparam frame {

  ArrowColor #0a9efdff

  BackgroundColor #f3f3f3
  BorderColor #0a9efdff
  BorderThickness 4

  FontColor #0a9efdff
  FontName Roboto
  FontSize 14
  FontStyle bold
}


skinparam node {

  ArrowColor #0a9efdff

  BorderThickness 2
  BackgroundColor #FFFFFF
  BorderColor #0a9efdff

  FontColor #0a9efdff
  FontName Roboto
  FontSize 14
  FontStyle bold

}

skinparam package {
  BorderThickness 2
  BackgroundColor #FFFFFF
  BorderColor #0a9efdff

  FontColor #0a9efdff
  FontName Roboto
  FontSize 14
  FontStyle bold

}


skinparam partition {

  BackgroundColor #f3f3f3

  BorderColor #0a9efdff
  BorderThickness 2

  FontColor #0a9efdff
  FontName Roboto
  FontSize 14
  FontStyle bold

}

skinparam ArrowFontColor #0a9efdff
skinparam ArrowFontSize 14
skinparam ArrowFontStyle bold
skinparam ArrowColor #0a9efdff
skinparam ArrowThickness 2
skinparam ArrowFontName Roboto

skinparam linetype ortho
hide stereotype








Actor "Product Owner" as PO
Actor "Project Manager" as PM
Actor "Developer" as DEV
Actor "Tester" as QA
Actor "Technical Writer" as TW

Actor "DevReller" as DR

PO -> PM: Request implementation of new features
PO -> DR: Inform DevRel about new features
Group Feature implementation

    PM -> PM: Create JIRA issues for each feature requirement \n This includes documentation issues and \nusage details for the feature

    Loop For each JIRA issue

        note right of PO
         Implementation and documentation tasks completed in parallel
        end note

            PM -> DEV: Request implementation
            PM -> TW: Request documentation

            DEV -> DEV: Implement feature
            TW -> TW: Write documentation from requirement,\n implementation and Developer input

        loop Validate


            DEV -> QA: Request implementation validation
            QA->QA: Validate implementation against requirement
            QA -> DEV: If necessary, request changes
            DEV -> DEV: Update
        end loop
        QA -> PM: Implementation approved


            loop Validate
            TW -> QA: Request documentation validation
            TW -> DR: Request documentation validation

            QA->QA: Validate documentation against HLD
            DR -> DR: Technical validation
            DR -> TW: If necessary, request changes
            QA -> TW: If necessary, request changes
            TW -> TW: Update
            end loop
            TW -> TW: Peer review if feature requires\n a large documentation change
            TW -> TW: Update

        QA -> PM: Documentation approved
    end loop
end

PM -> PO: HLD implementation complete
@enduml

PlantUML version 1.2021.7(Sun May 23 14:40:07 CEST 2021)
(GPL source distribution)
Java Runtime: OpenJDK Runtime Environment
JVM: OpenJDK 64-Bit Server VM
Default Encoding: UTF-8
Language: en
Country: GG
--></g></svg>