<?xml version="1.0" encoding="us-ascii" standalone="no"?><svg xmlns="http://www.w3.org/2000/svg" xmlns:xlink="http://www.w3.org/1999/xlink" contentStyleType="text/css" height="567px" preserveAspectRatio="none" style="width:705px;height:567px;" version="1.1" viewBox="0 0 705 567" width="705px" zoomAndPan="magnify"><defs/><g><rect fill="none" height="565.5308" style="stroke:#0A9EFD;stroke-width:1.0;" width="703" x="0" y="0"/><rect fill="#0A9EFD" fill-opacity="0.06667" height="74.8462" style="stroke:#0A9EFD;stroke-width:2.0;" width="513" x="186" y="305.7397"/><line style="stroke:#0A9EFD;stroke-width:0.5;stroke-dasharray:5.0,5.0;" x1="23" x2="23" y1="86.0986" y2="484.4321"/><line style="stroke:#0A9EFD;stroke-width:0.5;stroke-dasharray:5.0,5.0;" x1="254" x2="254" y1="86.0986" y2="484.4321"/><line style="stroke:#0A9EFD;stroke-width:0.5;stroke-dasharray:5.0,5.0;" x1="480" x2="480" y1="86.0986" y2="484.4321"/><line style="stroke:#0A9EFD;stroke-width:0.5;stroke-dasharray:5.0,5.0;" x1="624" x2="624" y1="86.0986" y2="484.4321"/><text fill="#0A9EFD" font-family="Arial" font-size="14" lengthAdjust="spacing" textLength="30" x="5" y="83.1318">User</text><ellipse cx="23" cy="16" fill="none" rx="8" ry="8" style="stroke:#0A9EFD;stroke-width:3.0;"/><path d="M23,24 L23,51 M10,32 L36,32 M23,51 L10,66 M23,51 L36,66 " fill="none" style="stroke:#0A9EFD;stroke-width:3.0;"/><text fill="#0A9EFD" font-family="Arial" font-size="14" lengthAdjust="spacing" textLength="30" x="5" y="496.564">User</text><ellipse cx="23" cy="510.5308" fill="none" rx="8" ry="8" style="stroke:#0A9EFD;stroke-width:3.0;"/><path d="M23,518.5308 L23,545.5308 M10,526.5308 L36,526.5308 M23,545.5308 L10,560.5308 M23,545.5308 L36,560.5308 " fill="none" style="stroke:#0A9EFD;stroke-width:3.0;"/><rect fill="none" height="30.0986" rx="2.5" ry="2.5" style="stroke:#0A9EFD;stroke-width:2.0;" width="116" x="196" y="55"/><text fill="#0A9EFD" font-family="Arial" font-size="14" lengthAdjust="spacing" textLength="102" x="203" y="75.1318">Your app server</text><rect fill="none" height="30.0986" rx="2.5" ry="2.5" style="stroke:#0A9EFD;stroke-width:2.0;" width="116" x="196" y="483.4321"/><text fill="#0A9EFD" font-family="Arial" font-size="14" lengthAdjust="spacing" textLength="102" x="203" y="503.564">Your app server</text><rect fill="none" height="30.0986" rx="2.5" ry="2.5" style="stroke:#0A9EFD;stroke-width:2.0;" width="138" x="411" y="55"/><text fill="#0A9EFD" font-family="Arial" font-size="14" lengthAdjust="spacing" textLength="124" x="418" y="75.1318">Agora token builder</text><rect fill="none" height="30.0986" rx="2.5" ry="2.5" style="stroke:#0A9EFD;stroke-width:2.0;" width="138" x="411" y="483.4321"/><text fill="#0A9EFD" font-family="Arial" font-size="14" lengthAdjust="spacing" textLength="124" x="418" y="503.564">Agora token builder</text><rect fill="none" height="30.0986" rx="2.5" ry="2.5" style="stroke:#0A9EFD;stroke-width:2.0;" width="130" x="559" y="55"/><text fill="#0A9EFD" font-family="Arial" font-size="14" lengthAdjust="spacing" textLength="116" x="566" y="75.1318">Agora Chat server</text><rect fill="none" height="30.0986" rx="2.5" ry="2.5" style="stroke:#0A9EFD;stroke-width:2.0;" width="130" x="559" y="483.4321"/><text fill="#0A9EFD" font-family="Arial" font-size="14" lengthAdjust="spacing" textLength="116" x="566" y="503.564">Agora Chat server</text><polygon fill="#0A9EFD" points="242,113.0474,252,117.0474,242,121.0474,246,117.0474" style="stroke:#0A9EFD;stroke-width:1.0;"/><line style="stroke:#0A9EFD;stroke-width:2.0;" x1="23" x2="248" y1="117.0474" y2="117.0474"/><text fill="#0A9EFD" font-family="Arial" font-size="13" lengthAdjust="spacing" textLength="176" x="50.5" y="112.2925">1. Request to get a user token</text><polygon fill="#0A9EFD" points="468,141.9961,478,145.9961,468,149.9961,472,145.9961" style="stroke:#0A9EFD;stroke-width:1.0;"/><line style="stroke:#0A9EFD;stroke-width:2.0;" x1="254" x2="474" y1="145.9961" y2="145.9961"/><text fill="#0A9EFD" font-family="Arial" font-size="13" lengthAdjust="spacing" textLength="185" x="274.5" y="141.2412">2. Generate an Agora app token</text><polygon fill="#0A9EFD" points="265,170.9448,255,174.9448,265,178.9448,261,174.9448" style="stroke:#0A9EFD;stroke-width:1.0;"/><line style="stroke:#0A9EFD;stroke-width:2.0;stroke-dasharray:2.0,2.0;" x1="259" x2="479" y1="174.9448" y2="174.9448"/><text fill="#0A9EFD" font-family="Arial" font-size="13" lengthAdjust="spacing" textLength="137" x="298.5" y="170.1899">Return Agora app token</text><polygon fill="#0A9EFD" points="612,199.8936,622,203.8936,612,207.8936,616,203.8936" style="stroke:#0A9EFD;stroke-width:1.0;"/><line style="stroke:#0A9EFD;stroke-width:2.0;" x1="254" x2="618" y1="203.8936" y2="203.8936"/><text fill="#0A9EFD" font-family="Arial" font-size="13" lengthAdjust="spacing" textLength="304" x="287" y="199.1387">3. Convert Agora app token to Agora Chat app token</text><polygon fill="#0A9EFD" points="265,228.8423,255,232.8423,265,236.8423,261,232.8423" style="stroke:#0A9EFD;stroke-width:1.0;"/><line style="stroke:#0A9EFD;stroke-width:2.0;stroke-dasharray:2.0,2.0;" x1="259" x2="623" y1="232.8423" y2="232.8423"/><text fill="#0A9EFD" font-family="Arial" font-size="13" lengthAdjust="spacing" textLength="168" x="355" y="228.0874">Return Agora Chat app token</text><polygon fill="#0A9EFD" points="612,257.791,622,261.791,612,265.791,616,261.791" style="stroke:#0A9EFD;stroke-width:1.0;"/><line style="stroke:#0A9EFD;stroke-width:2.0;" x1="254" x2="618" y1="261.791" y2="261.791"/><text fill="#0A9EFD" font-family="Arial" font-size="13" lengthAdjust="spacing" textLength="338" x="270" y="257.0361">4. Use Agora Chat app token to get Agora Chat user UUID</text><polygon fill="#0A9EFD" points="265,286.7397,255,290.7397,265,294.7397,261,290.7397" style="stroke:#0A9EFD;stroke-width:1.0;"/><line style="stroke:#0A9EFD;stroke-width:2.0;stroke-dasharray:2.0,2.0;" x1="259" x2="623" y1="290.7397" y2="290.7397"/><text fill="#0A9EFD" font-family="Arial" font-size="13" lengthAdjust="spacing" textLength="210" x="334" y="285.9849">Return Agora Chat user UUID or null</text><path d="M186,305.7397 L306,305.7397 L306,312.6885 L296,322.6885 L186,322.6885 L186,305.7397 " fill="#EEEEEE" style="stroke:#0A9EFD;stroke-width:1.5;"/><rect fill="none" height="74.8462" style="stroke:#0A9EFD;stroke-width:2.0;" width="513" x="186" y="305.7397"/><text fill="#000000" font-family="Arial" font-size="13" lengthAdjust="spacing" textLength="75" x="201" y="318.9336">if returns null</text><polygon fill="#0A9EFD" points="612,339.6372,622,343.6372,612,347.6372,616,343.6372" style="stroke:#0A9EFD;stroke-width:1.0;"/><line style="stroke:#0A9EFD;stroke-width:2.0;" x1="254" x2="618" y1="343.6372" y2="343.6372"/><text fill="#0A9EFD" font-family="Arial" font-size="13" lengthAdjust="spacing" textLength="339" x="269.5" y="338.8823">5. Use Agora Chat app token to create an Agora Chat user</text><polygon fill="#0A9EFD" points="265,368.5859,255,372.5859,265,376.5859,261,372.5859" style="stroke:#0A9EFD;stroke-width:1.0;"/><line style="stroke:#0A9EFD;stroke-width:2.0;stroke-dasharray:2.0,2.0;" x1="259" x2="623" y1="372.5859" y2="372.5859"/><text fill="#0A9EFD" font-family="Arial" font-size="13" lengthAdjust="spacing" textLength="171" x="353.5" y="367.8311">Return Agora Chat user UUID</text><polygon fill="#0A9EFD" points="468,404.5347,478,408.5347,468,412.5347,472,408.5347" style="stroke:#0A9EFD;stroke-width:1.0;"/><line style="stroke:#0A9EFD;stroke-width:2.0;" x1="254" x2="474" y1="408.5347" y2="408.5347"/><text fill="#0A9EFD" font-family="Arial" font-size="13" lengthAdjust="spacing" textLength="202" x="266" y="403.7798">6. Generate Agora Chat user token</text><polygon fill="#0A9EFD" points="265,433.4834,255,437.4834,265,441.4834,261,437.4834" style="stroke:#0A9EFD;stroke-width:1.0;"/><line style="stroke:#0A9EFD;stroke-width:2.0;stroke-dasharray:2.0,2.0;" x1="259" x2="479" y1="437.4834" y2="437.4834"/><text fill="#0A9EFD" font-family="Arial" font-size="13" lengthAdjust="spacing" textLength="172" x="281" y="432.7285">Return Agora Chat user token</text><polygon fill="#0A9EFD" points="34,462.4321,24,466.4321,34,470.4321,30,466.4321" style="stroke:#0A9EFD;stroke-width:1.0;"/><line style="stroke:#0A9EFD;stroke-width:2.0;stroke-dasharray:2.0,2.0;" x1="28" x2="253" y1="466.4321" y2="466.4321"/><text fill="#0A9EFD" font-family="Arial" font-size="13" lengthAdjust="spacing" textLength="207" x="35" y="461.6772">7. Response Agora Chat user token</text><!--SRC=[fPFBJiCm44Nt_egX-xZYBR6eX8g4a5WLic25Z3C4AyOsVlJxiHE8N3Sq0fOPt-DxPpmv4ehBq21GkjoA1dNbccx9MctPi-k4eYAyIq8Ozzf2xT0IOfZrWWl3b8V5amuMc34GZxPe5y0St6lEv4Fy5XmB-NMw6BpkKC5B4BBvGlhwezPoKhz-OputwAkfE9gaPDKgDuOhEAQmmO-0paT7QD43Wn25WpyXkRnQZH4YUKBX5XLQvX6O6lpwBWTob5PxdXlqmUuJKrvP0n4yfR3MAdReIpY5p-PGnCXkcKbJqFEHpcXwyKdwUw3PMJ_Pkhwx-LEkaOQuPoh8k0YjrS60U0NRgzrGdarzVZWrjxZpggFx_s8JLCsXZRh8DghaVxTK9RThMgtIhn2PoxJypcZbVZBy1000]--></g></svg>