<?xml version="1.0" encoding="us-ascii" standalone="no"?><svg xmlns="http://www.w3.org/2000/svg" xmlns:xlink="http://www.w3.org/1999/xlink" contentStyleType="text/css" height="468px" preserveAspectRatio="none" style="width:503px;height:468px;" version="1.1" viewBox="0 0 503 468" width="503px" zoomAndPan="magnify"><defs/><g><rect fill="none" height="466.7358" style="stroke:#0A9EFD;stroke-width:1.0;" width="501.5" x="0" y="0"/><rect fill="#999999" fill-opacity="0.33333" height="456.7358" style="stroke:#0A9EFD;stroke-width:0.5;" width="133" x="117" y="6"/><text fill="#0A9EFD" font-family="sans-serif" font-size="13" font-weight="bold" lengthAdjust="spacing" textLength="108" x="129.5" y="18.5684">Agora customer</text><rect fill="#999999" fill-opacity="0.33333" height="456.7358" style="stroke:#0A9EFD;stroke-width:0.5;" width="117" x="358" y="6"/><text fill="#0A9EFD" font-family="sans-serif" font-size="13" font-weight="bold" lengthAdjust="spacing" textLength="41" x="396" y="18.5684">Agora</text><line style="stroke:#0A9EFD;stroke-width:0.5;stroke-dasharray:5.0,5.0;" x1="23" x2="23" y1="86.0986" y2="378.6372"/><line style="stroke:#0A9EFD;stroke-width:0.5;stroke-dasharray:5.0,5.0;" x1="81" x2="81" y1="86.0986" y2="378.6372"/><line style="stroke:#0A9EFD;stroke-width:0.5;stroke-dasharray:5.0,5.0;" x1="183" x2="183" y1="86.0986" y2="378.6372"/><line style="stroke:#0A9EFD;stroke-width:0.5;stroke-dasharray:5.0,5.0;" x1="327" x2="327" y1="86.0986" y2="378.6372"/><line style="stroke:#0A9EFD;stroke-width:0.5;stroke-dasharray:5.0,5.0;" x1="416" x2="416" y1="86.0986" y2="378.6372"/><text fill="#0A9EFD" font-family="Arial" font-size="14" lengthAdjust="spacing" textLength="30" x="5" y="83.1318">User</text><ellipse cx="23" cy="16" fill="none" rx="8" ry="8" style="stroke:#0A9EFD;stroke-width:3.0;"/><path d="M23,24 L23,51 M10,32 L36,32 M23,51 L10,66 M23,51 L36,66 " fill="none" style="stroke:#0A9EFD;stroke-width:3.0;"/><text fill="#0A9EFD" font-family="Arial" font-size="14" lengthAdjust="spacing" textLength="30" x="5" y="390.769">User</text><ellipse cx="23" cy="404.7358" fill="none" rx="8" ry="8" style="stroke:#0A9EFD;stroke-width:3.0;"/><path d="M23,412.7358 L23,439.7358 M10,420.7358 L36,420.7358 M23,439.7358 L10,454.7358 M23,439.7358 L36,454.7358 " fill="none" style="stroke:#0A9EFD;stroke-width:3.0;"/><text fill="#000000" font-family="sans-serif" font-size="14" lengthAdjust="spacing" textLength="54" x="51" y="83.1455">Internet</text><path d="M60.5,41.6104 L60.5,65.6104 M60.5,53.6104 L77.5,53.6104 " fill="none" style="stroke:#0A9EFD;stroke-width:0.5;"/><ellipse cx="89.5" cy="53.6104" fill="none" rx="12" ry="12" style="stroke:#0A9EFD;stroke-width:0.5;"/><text fill="#000000" font-family="sans-serif" font-size="14" lengthAdjust="spacing" textLength="54" x="51" y="391.1724">Internet</text><path d="M60.5,398.1255 L60.5,422.1255 M60.5,410.1255 L77.5,410.1255 " fill="none" style="stroke:#0A9EFD;stroke-width:0.5;"/><ellipse cx="89.5" cy="410.1255" fill="none" rx="12" ry="12" style="stroke:#0A9EFD;stroke-width:0.5;"/><rect fill="none" height="30.0986" rx="2.5" ry="2.5" style="stroke:#0A9EFD;stroke-width:2.0;" width="125" x="121" y="55"/><text fill="#0A9EFD" font-family="Arial" font-size="14" lengthAdjust="spacing" textLength="111" x="128" y="75.1318">Agora Web Client</text><rect fill="none" height="30.0986" rx="2.5" ry="2.5" style="stroke:#0A9EFD;stroke-width:2.0;" width="125" x="121" y="377.6372"/><text fill="#0A9EFD" font-family="Arial" font-size="14" lengthAdjust="spacing" textLength="111" x="128" y="397.769">Agora Web Client</text><text fill="#000000" font-family="sans-serif" font-size="14" lengthAdjust="spacing" textLength="42" x="303.5" y="83.1455">Agora</text><path d="M307,41.6104 L307,65.6104 M307,53.6104 L324,53.6104 " fill="none" style="stroke:#0A9EFD;stroke-width:0.5;"/><ellipse cx="336" cy="53.6104" fill="none" rx="12" ry="12" style="stroke:#0A9EFD;stroke-width:0.5;"/><text fill="#000000" font-family="sans-serif" font-size="14" lengthAdjust="spacing" textLength="42" x="303.5" y="391.1724">Agora</text><path d="M307,398.1255 L307,422.1255 M307,410.1255 L324,410.1255 " fill="none" style="stroke:#0A9EFD;stroke-width:0.5;"/><ellipse cx="336" cy="410.1255" fill="none" rx="12" ry="12" style="stroke:#0A9EFD;stroke-width:0.5;"/><rect fill="none" height="30.0986" rx="2.5" ry="2.5" style="stroke:#0A9EFD;stroke-width:2.0;" width="109" x="362" y="55"/><text fill="#0A9EFD" font-family="Arial" font-size="14" lengthAdjust="spacing" textLength="95" x="369" y="75.1318">Agora Platform</text><rect fill="none" height="30.0986" rx="2.5" ry="2.5" style="stroke:#0A9EFD;stroke-width:2.0;" width="109" x="362" y="377.6372"/><text fill="#0A9EFD" font-family="Arial" font-size="14" lengthAdjust="spacing" textLength="95" x="369" y="397.769">Agora Platform</text><polygon fill="#0A9EFD" points="171.5,113.0474,181.5,117.0474,171.5,121.0474,175.5,117.0474" style="stroke:#0A9EFD;stroke-width:1.0;"/><line style="stroke:#0A9EFD;stroke-width:2.0;" x1="23" x2="177.5" y1="117.0474" y2="117.0474"/><text fill="#0A9EFD" font-family="Arial" font-size="13" lengthAdjust="spacing" textLength="121" x="42.75" y="112.2925">Login to Agora Client</text><polygon fill="#0A9EFD" points="404.5,156.9448,414.5,160.9448,404.5,164.9448,408.5,160.9448" style="stroke:#0A9EFD;stroke-width:1.0;"/><line style="stroke:#0A9EFD;stroke-width:2.0;" x1="183.5" x2="410.5" y1="160.9448" y2="160.9448"/><text fill="#0A9EFD" font-family="Arial" font-size="13" lengthAdjust="spacing" textLength="117" x="241.5" y="141.2412">Retrieve room name</text><text fill="#0A9EFD" font-family="Arial" font-size="13" lengthAdjust="spacing" textLength="57" x="273.5" y="156.1899">and token</text><polygon fill="#0A9EFD" points="404.5,185.8936,414.5,189.8936,404.5,193.8936,408.5,189.8936" style="stroke:#0A9EFD;stroke-width:1.0;"/><line style="stroke:#0A9EFD;stroke-width:2.0;" x1="183.5" x2="410.5" y1="189.8936" y2="189.8936"/><text fill="#0A9EFD" font-family="Arial" font-size="13" lengthAdjust="spacing" textLength="120" x="240" y="185.1387">Request to join room</text><line style="stroke:#0A9EFD;stroke-width:2.0;" x1="416.5" x2="458.5" y1="218.8423" y2="218.8423"/><line style="stroke:#0A9EFD;stroke-width:2.0;" x1="458.5" x2="458.5" y1="218.8423" y2="231.8423"/><line style="stroke:#0A9EFD;stroke-width:2.0;" x1="417.5" x2="458.5" y1="231.8423" y2="231.8423"/><polygon fill="#0A9EFD" points="427.5,227.8423,417.5,231.8423,427.5,235.8423,423.5,231.8423" style="stroke:#0A9EFD;stroke-width:1.0;"/><text fill="#0A9EFD" font-family="Arial" font-size="13" lengthAdjust="spacing" textLength="73" x="423.5" y="214.0874">Authenticate</text><polygon fill="#0A9EFD" points="194.5,256.791,184.5,260.791,194.5,264.791,190.5,260.791" style="stroke:#0A9EFD;stroke-width:1.0;"/><line style="stroke:#0A9EFD;stroke-width:2.0;" x1="188.5" x2="415.5" y1="260.791" y2="260.791"/><text fill="#0A9EFD" font-family="Arial" font-size="13" lengthAdjust="spacing" textLength="72" x="264" y="256.0361">Room joined</text><line style="stroke:#0A9EFD;stroke-width:2.0;" x1="183.5" x2="225.5" y1="289.7397" y2="289.7397"/><line style="stroke:#0A9EFD;stroke-width:2.0;" x1="225.5" x2="225.5" y1="289.7397" y2="302.7397"/><line style="stroke:#0A9EFD;stroke-width:2.0;" x1="184.5" x2="225.5" y1="302.7397" y2="302.7397"/><polygon fill="#0A9EFD" points="194.5,298.7397,184.5,302.7397,194.5,306.7397,190.5,302.7397" style="stroke:#0A9EFD;stroke-width:1.0;"/><text fill="#0A9EFD" font-family="Arial" font-size="13" lengthAdjust="spacing" textLength="130" x="190.5" y="284.9849">Interact with colleages</text><polygon fill="#0A9EFD" points="404.5,327.6885,414.5,331.6885,404.5,335.6885,408.5,331.6885" style="stroke:#0A9EFD;stroke-width:1.0;"/><line style="stroke:#0A9EFD;stroke-width:2.0;" x1="183.5" x2="410.5" y1="331.6885" y2="331.6885"/><text fill="#0A9EFD" font-family="Arial" font-size="13" lengthAdjust="spacing" textLength="131" x="234.5" y="326.9336">Request to leave room</text><polygon fill="#0A9EFD" points="194.5,356.6372,184.5,360.6372,194.5,364.6372,190.5,360.6372" style="stroke:#0A9EFD;stroke-width:1.0;"/><line style="stroke:#0A9EFD;stroke-width:2.0;" x1="188.5" x2="415.5" y1="360.6372" y2="360.6372"/><text fill="#0A9EFD" font-family="Arial" font-size="13" lengthAdjust="spacing" textLength="56" x="272" y="355.8823">Room left</text><!--SRC=[TP11JyCm38Nl-HMcztNt7P2Y7j0a15LXueA4iiJRGjDu9Cw0Vq_IKXW2hdxlVNxsXVNQ9ODGrykJDKYBQFgbsbDGJx6tlhPfS488fPa2L9k8eG8LONFN2R6bv8qAxr2jFMFmoAEslhalsXjKid10fyWqvA0ugi1MswFoF8iFk8N6MVHJLZP2e3UGu-VyqJiPhcuxUOx_azewnJiAmnHflv6vDomkyveLNDFUUc22AJAL448sew5TGOSSB9uG0j40NWtuw45b4bEF_gVp9M7a0dkc32q18TjPbeaFcMsrOXJpF3Ve2hS4q7pHydXyPduul5e-W2RdKEqn_hCmYvyLVw4Txl917m00]--></g></svg>