<?xml version="1.0" encoding="utf-8"?>
<!-- Generator: Adobe Illustrator 19.0.0, SVG Export Plug-In . SVG Version: 6.00 Build 0)  -->
<svg version="1.1" id="Layer_1" xmlns="http://www.w3.org/2000/svg" xmlns:xlink="http://www.w3.org/1999/xlink" x="0px" y="0px"
	 viewBox="-245 380 121 34" style="enable-background:new -245 380 121 34;" xml:space="preserve">
<style type="text/css">
	.st0{fill:#717377;}
</style>
<path class="st0" d="M-206.8,396.8c0,5.4,3.5,9.2,8.3,9.2s8.3-3.8,8.3-9.2c0-5.4-3.5-9.2-8.3-9.2S-206.8,391.4-206.8,396.8z
	 M-193.4,396.8c0,3.9-2.1,6.4-5.1,6.4s-5.1-2.5-5.1-6.4c0-3.9,2.1-6.4,5.1-6.4S-193.4,393-193.4,396.8z"/>
<path class="st0" d="M-181.3,406c3.6,0,5.7-3.1,5.7-6.8c0-3.7-2.1-6.8-5.7-6.8c-1.7,0-2.9,0.7-3.7,1.6v-1.4h-3v17.5h3v-5.8
	C-184.2,405.3-182.9,406-181.3,406z M-185.1,398.9c0-2.5,1.4-3.8,3.2-3.8c2.2,0,3.3,1.7,3.3,4.2c0,2.5-1.2,4.2-3.3,4.2
	c-1.8,0-3.2-1.4-3.2-3.8V398.9z"/>
<path class="st0" d="M-167.5,406c2.6,0,4.7-1.4,5.6-3.6l-2.6-1c-0.4,1.3-1.6,2.1-3,2.1c-1.9,0-3.2-1.4-3.5-3.6h9.1v-1
	c0-3.6-2-6.4-5.8-6.4s-6.2,3-6.2,6.8C-173.8,403.3-171.2,406-167.5,406z M-167.6,395c1.9,0,2.8,1.2,2.8,2.7h-6
	C-170.4,395.9-169.2,395-167.6,395z"/>
<path class="st0" d="M-159.6,405.7h3v-7.6c0-1.9,1.4-2.9,2.7-2.9c1.6,0,2.3,1.2,2.3,2.8v7.7h3v-8.6c0-2.8-1.6-4.7-4.4-4.7
	c-1.7,0-2.9,0.8-3.6,1.6v-1.4h-3V405.7z"/>
<path class="st0" d="M-139.9,387.9l-6.7,17.8h3.1l1.5-4.1h7.7l1.5,4.1h3.2l-6.7-17.8H-139.9z M-138.2,391.5l2.8,7.4h-5.6
	L-138.2,391.5z"/>
<path class="st0" d="M-124.5,388h-3.2v17.8h3.2V388z"/>
<path class="st0" d="M-214,394.5c0.8-2.3,0.5-4.7-0.7-6.8c-1.8-3.1-5.4-4.8-9-4c-1.6-1.8-3.8-2.8-6.2-2.8c-3.6,0-6.8,2.3-7.9,5.8
	c-2.3,0.5-4.3,1.9-5.5,4c-1.8,3.1-1.4,7.1,1,9.8c-0.8,2.3-0.5,4.7,0.7,6.8c1.8,3.1,5.4,4.8,9,4c1.6,1.8,3.8,2.8,6.2,2.8
	c3.6,0,6.8-2.3,7.9-5.8c2.3-0.5,4.3-1.9,5.5-4C-211.2,401.1-211.6,397.2-214,394.5L-214,394.5z M-226.5,411.8c-1.4,0-2.9-0.5-4-1.4
	c0.1,0,0.1-0.1,0.2-0.1l6.6-3.8c0.3-0.2,0.5-0.5,0.5-0.9v-9.3l2.8,1.6c0,0,0,0,0.1,0.1v7.7C-220.3,409.1-223,411.8-226.5,411.8z
	 M-239.8,406.2c-0.7-1.3-1-2.7-0.7-4.2c0,0,0.1,0.1,0.2,0.1l6.6,3.8c0.3,0.2,0.7,0.2,1.1,0l8-4.6v3.2c0,0,0,0.1,0,0.1l-6.7,3.8
	C-234.3,410.1-238.1,409.1-239.8,406.2L-239.8,406.2z M-241.5,391.8c0.7-1.3,1.9-2.2,3.2-2.7c0,0.1,0,0.2,0,0.2v7.6
	c0,0.4,0.2,0.7,0.5,0.9l8,4.6l-2.8,1.6c0,0-0.1,0-0.1,0l-6.7-3.8C-242.2,398.5-243.2,394.7-241.5,391.8L-241.5,391.8z M-218.6,397.1
	l-8-4.6l2.8-1.6c0,0,0.1,0,0.1,0l6.7,3.8c3,1.7,4,5.5,2.3,8.5c-0.7,1.3-1.9,2.2-3.2,2.7V398C-218.1,397.7-218.3,397.3-218.6,397.1
	L-218.6,397.1z M-215.9,392.9c0,0-0.1-0.1-0.2-0.1l-6.6-3.8c-0.3-0.2-0.7-0.2-1.1,0l-8,4.6v-3.2c0,0,0-0.1,0-0.1l6.7-3.8
	c3-1.7,6.8-0.7,8.5,2.3C-215.9,390-215.6,391.5-215.9,392.9L-215.9,392.9z M-233.3,398.7l-2.8-1.6c0,0,0,0-0.1-0.1v-7.7
	c0-3.4,2.8-6.2,6.2-6.2c1.4,0,2.8,0.5,4,1.4c-0.1,0-0.1,0.1-0.2,0.1l-6.6,3.8c-0.3,0.2-0.5,0.5-0.5,0.9L-233.3,398.7L-233.3,398.7z
	 M-231.8,395.4l3.6-2.1l3.6,2.1v4.1l-3.6,2.1l-3.6-2.1V395.4z"/>
</svg>
