<svg xmlns="http://www.w3.org/2000/svg" xmlns:xlink="http://www.w3.org/1999/xlink" contentStyleType="text/css" data-diagram-type="SEQUENCE" height="875px" preserveAspectRatio="none" style="width:574px;height:875px;" version="1.1" viewBox="0 0 574 875" width="574px" zoomAndPan="magnify"><?plantuml 1.2026.4?><defs/><g><rect fill="none" height="873.0693" style="stroke:#0A9EFD;stroke-width:1;" width="572.8606" x="0" y="0"/><rect fill="#999999" fill-opacity="0.33333" height="862.0693" style="stroke:#0A9EFD;stroke-width:0.5;" width="90.4824" x="142.9897" y="6"/><text fill="#0A9EFD" font-family="sans-serif" font-size="13" font-weight="700" lengthAdjust="spacing" textLength="56.3354" x="160.0632" y="19.4951">Your app</text><rect fill="#999999" fill-opacity="0.33333" height="862.0693" style="stroke:#0A9EFD;stroke-width:0.5;" width="78.3257" x="474.5349" y="6"/><text fill="#0A9EFD" font-family="sans-serif" font-size="13" font-weight="700" lengthAdjust="spacing" textLength="37.5591" x="494.9182" y="19.4951">Agora</text><rect fill="#0A9EFD" fill-opacity="0.06667" height="116.7949" style="stroke:#0A9EFD;stroke-width:2;" width="548.8606" x="10" y="215.9448"/><rect fill="#0A9EFD" fill-opacity="0.06667" height="420.231" style="stroke:#0A9EFD;stroke-width:2;" width="548.8606" x="10" y="346.7397"/><g class="participant-lifeline" data-entity-uid="part1" data-qualified-name="USR" data-source-line="3" id="part1-lifeline"><g><title>User</title><rect fill="#000000" fill-opacity="0.00000" height="697.8721" width="8" x="33.7793" y="86.0986"/><line style="stroke:#0A9EFD;stroke-width:0.5;stroke-dasharray:5,5;" x1="37" x2="37" y1="86.0986" y2="783.9707"/></g></g><g class="participant-lifeline" data-entity-uid="part2" data-qualified-name="APP" data-source-line="6" id="part2-lifeline"><g><title>Video SDK</title><rect fill="#000000" fill-opacity="0.00000" height="697.8721" width="8" x="184.231" y="86.0986"/><line style="stroke:#0A9EFD;stroke-width:0.5;stroke-dasharray:5,5;" x1="187.9897" x2="187.9897" y1="86.0986" y2="783.9707"/></g></g><g class="participant-lifeline" data-entity-uid="part3" data-qualified-name="API" data-source-line="10" id="part3-lifeline"><g><title>SDRTN.sup....sup.</title><rect fill="#000000" fill-opacity="0.00000" height="697.8721" width="8" x="509.6978" y="86.0986"/><line style="stroke:#0A9EFD;stroke-width:0.5;stroke-dasharray:5,5;" x1="513.5349" x2="513.5349" y1="86.0986" y2="783.9707"/></g></g><g class="participant participant-head" data-entity-uid="part1" data-qualified-name="USR" data-source-line="3" id="part1-head"><text fill="#0A9EFD" font-family="Arial" font-size="14" lengthAdjust="spacing" textLength="29.5586" x="20" y="83.1318">User</text><ellipse cx="37.7793" cy="16" fill="none" rx="8" ry="8" style="stroke:#0A9EFD;stroke-width:3;"/><path d="M37.7793,24 L37.7793,51 M24.7793,32 L50.7793,32 M37.7793,51 L24.7793,66 M37.7793,51 L50.7793,66" fill="none" style="stroke:#0A9EFD;stroke-width:3;"/></g><g class="participant participant-tail" data-entity-uid="part1" data-qualified-name="USR" data-source-line="3" id="part1-tail"><text fill="#0A9EFD" font-family="Arial" font-size="14" lengthAdjust="spacing" textLength="29.5586" x="20" y="796.1025">User</text><ellipse cx="37.7793" cy="810.0693" fill="none" rx="8" ry="8" style="stroke:#0A9EFD;stroke-width:3;"/><path d="M37.7793,818.0693 L37.7793,845.0693 M24.7793,826.0693 L50.7793,826.0693 M37.7793,845.0693 L24.7793,860.0693 M37.7793,845.0693 L50.7793,860.0693" fill="none" style="stroke:#0A9EFD;stroke-width:3;"/></g><g class="participant participant-head" data-entity-uid="part2" data-qualified-name="APP" data-source-line="6" id="part2-head"><rect fill="none" height="30.0986" rx="2.5" ry="2.5" style="stroke:#0A9EFD;stroke-width:2;" width="82.4824" x="146.9897" y="55"/><text fill="#0A9EFD" font-family="Arial" font-size="14" lengthAdjust="spacing" textLength="68.4824" x="153.9897" y="75.1318">Video SDK</text></g><g class="participant participant-tail" data-entity-uid="part2" data-qualified-name="APP" data-source-line="6" id="part2-tail"><rect fill="none" height="30.0986" rx="2.5" ry="2.5" style="stroke:#0A9EFD;stroke-width:2;" width="82.4824" x="146.9897" y="782.9707"/><text fill="#0A9EFD" font-family="Arial" font-size="14" lengthAdjust="spacing" textLength="68.4824" x="153.9897" y="803.1025">Video SDK</text></g><g class="participant participant-head" data-entity-uid="part3" data-qualified-name="API" data-source-line="10" id="part3-head"><rect fill="none" height="32.6489" rx="2.5" ry="2.5" style="stroke:#0A9EFD;stroke-width:2;" width="70.3257" x="478.5349" y="52.4497"/><text fill="#0A9EFD" font-family="Arial" font-size="14" lengthAdjust="spacing" textLength="48.2207" x="485.5349" y="75.1318">SDRTN</text><text fill="#0A9EFD" font-family="Arial" font-size="11" lengthAdjust="spacing" textLength="8.105" x="533.7556" y="69.7676">&#174;</text></g><g class="participant participant-tail" data-entity-uid="part3" data-qualified-name="API" data-source-line="10" id="part3-tail"><rect fill="none" height="32.6489" rx="2.5" ry="2.5" style="stroke:#0A9EFD;stroke-width:2;" width="70.3257" x="478.5349" y="782.9707"/><text fill="#0A9EFD" font-family="Arial" font-size="14" lengthAdjust="spacing" textLength="48.2207" x="485.5349" y="805.6528">SDRTN</text><text fill="#0A9EFD" font-family="Arial" font-size="11" lengthAdjust="spacing" textLength="8.105" x="533.7556" y="800.2886">&#174;</text></g><g class="message" data-entity-1="part1" data-entity-2="part2" data-source-line="13" id="msg1"><polygon fill="#0A9EFD" points="176.231,113.0474,186.231,117.0474,176.231,121.0474,180.231,117.0474" style="stroke:#0A9EFD;stroke-width:1;stroke-linejoin:miter;stroke-miterlimit:10;"/><line style="stroke:#0A9EFD;stroke-width:2;" x1="37.7793" x2="182.231" y1="117.0474" y2="117.0474"/><text fill="#0A9EFD" font-family="Arial" font-size="13" lengthAdjust="spacing" textLength="58.5444" x="83.7329" y="112.2925">Open App</text></g><g class="message" data-entity-1="part2" data-entity-2="part2" data-source-line="14" id="msg2"><line style="stroke:#0A9EFD;stroke-width:2;" x1="188.231" x2="230.231" y1="145.9961" y2="145.9961"/><line style="stroke:#0A9EFD;stroke-width:2;" x1="230.231" x2="230.231" y1="145.9961" y2="158.9961"/><line style="stroke:#0A9EFD;stroke-width:2;" x1="189.231" x2="230.231" y1="158.9961" y2="158.9961"/><polygon fill="#0A9EFD" points="199.231,154.9961,189.231,158.9961,199.231,162.9961,195.231,158.9961" style="stroke:#0A9EFD;stroke-width:1;stroke-linejoin:miter;stroke-miterlimit:10;"/><text fill="#0A9EFD" font-family="Arial" font-size="13" lengthAdjust="spacing" textLength="311.4668" x="195.231" y="141.2412">Use Video SDK to create an instance of Agora Engine</text></g><g class="message" data-entity-1="part2" data-entity-2="part2" data-source-line="15" id="msg3"><line style="stroke:#0A9EFD;stroke-width:2;" x1="188.231" x2="230.231" y1="187.9448" y2="187.9448"/><line style="stroke:#0A9EFD;stroke-width:2;" x1="230.231" x2="230.231" y1="187.9448" y2="200.9448"/><line style="stroke:#0A9EFD;stroke-width:2;" x1="189.231" x2="230.231" y1="200.9448" y2="200.9448"/><polygon fill="#0A9EFD" points="199.231,196.9448,189.231,200.9448,199.231,204.9448,195.231,200.9448" style="stroke:#0A9EFD;stroke-width:1;stroke-linejoin:miter;stroke-miterlimit:10;"/><text fill="#0A9EFD" font-family="Arial" font-size="13" lengthAdjust="spacing" textLength="213.9541" x="195.231" y="183.1899">Enable audio and video in the engine</text></g><path d="M10,215.9448 L78.8481,215.9448 L78.8481,222.8936 L68.8481,232.8936 L10,232.8936 L10,215.9448" fill="#EEEEEE" style="stroke:#0A9EFD;stroke-width:1.5;"/><rect fill="none" height="116.7949" style="stroke:#0A9EFD;stroke-width:2;" width="548.8606" x="10" y="215.9448"/><text fill="#000000" font-family="Arial" font-size="13" lengthAdjust="spacing" textLength="23.8481" x="25" y="229.1387">Join</text><g class="message" data-entity-1="part1" data-entity-2="part2" data-source-line="18" id="msg4"><polygon fill="#0A9EFD" points="176.231,249.8423,186.231,253.8423,176.231,257.8423,180.231,253.8423" style="stroke:#0A9EFD;stroke-width:1;stroke-linejoin:miter;stroke-miterlimit:10;"/><line style="stroke:#0A9EFD;stroke-width:2;" x1="37.7793" x2="182.231" y1="253.8423" y2="253.8423"/><text fill="#0A9EFD" font-family="Arial" font-size="13" lengthAdjust="spacing" textLength="83.8398" x="71.0852" y="249.0874">Join a channel</text></g><g class="message" data-entity-1="part2" data-entity-2="part2" data-source-line="19" id="msg5"><line style="stroke:#0A9EFD;stroke-width:2;" x1="188.231" x2="230.231" y1="282.791" y2="282.791"/><line style="stroke:#0A9EFD;stroke-width:2;" x1="230.231" x2="230.231" y1="282.791" y2="295.791"/><line style="stroke:#0A9EFD;stroke-width:2;" x1="189.231" x2="230.231" y1="295.791" y2="295.791"/><polygon fill="#0A9EFD" points="199.231,291.791,189.231,295.791,199.231,299.791,195.231,295.791" style="stroke:#0A9EFD;stroke-width:1;stroke-linejoin:miter;stroke-miterlimit:10;"/><text fill="#0A9EFD" font-family="Arial" font-size="13" lengthAdjust="spacing" textLength="266.6777" x="195.231" y="278.0361">Retrieve authentication token to join a channel</text></g><g class="message" data-entity-1="part2" data-entity-2="part3" data-source-line="20" id="msg6"><polygon fill="#0A9EFD" points="501.6978,320.7397,511.6978,324.7397,501.6978,328.7397,505.6978,324.7397" style="stroke:#0A9EFD;stroke-width:1;stroke-linejoin:miter;stroke-miterlimit:10;"/><line style="stroke:#0A9EFD;stroke-width:2;" x1="188.231" x2="507.6978" y1="324.7397" y2="324.7397"/><text fill="#0A9EFD" font-family="Arial" font-size="13" lengthAdjust="spacing" textLength="94.6816" x="303.6235" y="319.9849">Join the channel</text></g><path d="M10,346.7397 L146.0381,346.7397 L146.0381,353.6885 L136.0381,363.6885 L10,363.6885 L10,346.7397" fill="#EEEEEE" style="stroke:#0A9EFD;stroke-width:1.5;"/><rect fill="none" height="420.231" style="stroke:#0A9EFD;stroke-width:2;" width="548.8606" x="10" y="346.7397"/><text fill="#000000" font-family="Arial" font-size="13" lengthAdjust="spacing" textLength="91.0381" x="25" y="359.9336">Play media files</text><g class="message" data-entity-1="part1" data-entity-2="part2" data-source-line="24" id="msg7"><polygon fill="#0A9EFD" points="176.231,380.6372,186.231,384.6372,176.231,388.6372,180.231,384.6372" style="stroke:#0A9EFD;stroke-width:1;stroke-linejoin:miter;stroke-miterlimit:10;"/><line style="stroke:#0A9EFD;stroke-width:2;" x1="37.7793" x2="182.231" y1="384.6372" y2="384.6372"/><text fill="#0A9EFD" font-family="Arial" font-size="13" lengthAdjust="spacing" textLength="95.3799" x="65.3152" y="379.8823">Select media file</text></g><g class="message" data-entity-1="part2" data-entity-2="part2" data-source-line="25" id="msg8"><line style="stroke:#0A9EFD;stroke-width:2;" x1="188.231" x2="230.231" y1="413.5859" y2="413.5859"/><line style="stroke:#0A9EFD;stroke-width:2;" x1="230.231" x2="230.231" y1="413.5859" y2="426.5859"/><line style="stroke:#0A9EFD;stroke-width:2;" x1="189.231" x2="230.231" y1="426.5859" y2="426.5859"/><polygon fill="#0A9EFD" points="199.231,422.5859,189.231,426.5859,199.231,430.5859,195.231,426.5859" style="stroke:#0A9EFD;stroke-width:1;stroke-linejoin:miter;stroke-miterlimit:10;"/><text fill="#0A9EFD" font-family="Arial" font-size="13" lengthAdjust="spacing" textLength="308.5532" x="195.231" y="408.8311">Use Video SDK to create an instance of Media Player</text></g><g class="message" data-entity-1="part2" data-entity-2="part3" data-source-line="26" id="msg9"><polygon fill="#0A9EFD" points="501.6978,451.5347,511.6978,455.5347,501.6978,459.5347,505.6978,455.5347" style="stroke:#0A9EFD;stroke-width:1;stroke-linejoin:miter;stroke-miterlimit:10;"/><line style="stroke:#0A9EFD;stroke-width:2;" x1="188.231" x2="507.6978" y1="455.5347" y2="455.5347"/><text fill="#0A9EFD" font-family="Arial" font-size="13" lengthAdjust="spacing" textLength="205.2197" x="248.3545" y="450.7798">Open media file using Media Player</text></g><g class="message" data-entity-1="part3" data-entity-2="part2" data-source-line="27" id="msg10"><polygon fill="#0A9EFD" points="199.231,480.4834,189.231,484.4834,199.231,488.4834,195.231,484.4834" style="stroke:#0A9EFD;stroke-width:1;stroke-linejoin:miter;stroke-miterlimit:10;"/><line style="stroke:#0A9EFD;stroke-width:2;" x1="193.231" x2="512.6978" y1="484.4834" y2="484.4834"/><text fill="#0A9EFD" font-family="Arial" font-size="13" lengthAdjust="spacing" textLength="154.6416" x="273.6436" y="479.7285">Open media file completed</text></g><g class="message" data-entity-1="part1" data-entity-2="part2" data-source-line="28" id="msg11"><polygon fill="#0A9EFD" points="176.231,509.4321,186.231,513.4321,176.231,517.4321,180.231,513.4321" style="stroke:#0A9EFD;stroke-width:1;stroke-linejoin:miter;stroke-miterlimit:10;"/><line style="stroke:#0A9EFD;stroke-width:2;" x1="37.7793" x2="182.231" y1="513.4321" y2="513.4321"/><text fill="#0A9EFD" font-family="Arial" font-size="13" lengthAdjust="spacing" textLength="84.5381" x="70.7361" y="508.6772">Play media file</text></g><g class="message" data-entity-1="part2" data-entity-2="part2" data-source-line="29" id="msg12"><line style="stroke:#0A9EFD;stroke-width:2;" x1="188.231" x2="230.231" y1="557.3296" y2="557.3296"/><line style="stroke:#0A9EFD;stroke-width:2;" x1="230.231" x2="230.231" y1="557.3296" y2="570.3296"/><line style="stroke:#0A9EFD;stroke-width:2;" x1="189.231" x2="230.231" y1="570.3296" y2="570.3296"/><polygon fill="#0A9EFD" points="199.231,566.3296,189.231,570.3296,199.231,574.3296,195.231,570.3296" style="stroke:#0A9EFD;stroke-width:1;stroke-linejoin:miter;stroke-miterlimit:10;"/><text fill="#0A9EFD" font-family="Arial" font-size="13" lengthAdjust="spacing" textLength="138.0425" x="211.481" y="537.626">Set up local video panel</text><text fill="#0A9EFD" font-family="Arial" font-size="13" lengthAdjust="spacing" textLength="174.1543" x="195.231" y="552.5747">to display Media Player output</text></g><g class="message" data-entity-1="part2" data-entity-2="part3" data-source-line="30" id="msg13"><polygon fill="#0A9EFD" points="501.6978,610.2271,511.6978,614.2271,501.6978,618.2271,505.6978,614.2271" style="stroke:#0A9EFD;stroke-width:1;stroke-linejoin:miter;stroke-miterlimit:10;"/><line style="stroke:#0A9EFD;stroke-width:2;" x1="188.231" x2="507.6978" y1="614.2271" y2="614.2271"/><text fill="#0A9EFD" font-family="Arial" font-size="13" lengthAdjust="spacing" textLength="175.6206" x="261.3481" y="594.5234">Update channel media options</text><text fill="#0A9EFD" font-family="Arial" font-size="13" lengthAdjust="spacing" textLength="174.8843" x="263.5222" y="609.4722">to publish Media Player output</text></g><g class="message" data-entity-1="part2" data-entity-2="part3" data-source-line="31" id="msg14"><polygon fill="#0A9EFD" points="501.6978,639.1758,511.6978,643.1758,501.6978,647.1758,505.6978,643.1758" style="stroke:#0A9EFD;stroke-width:1;stroke-linejoin:miter;stroke-miterlimit:10;"/><line style="stroke:#0A9EFD;stroke-width:2;" x1="188.231" x2="507.6978" y1="643.1758" y2="643.1758"/><text fill="#0A9EFD" font-family="Arial" font-size="13" lengthAdjust="spacing" textLength="225.4561" x="238.2363" y="638.4209">Play the media file on the Media Player</text></g><g class="message" data-entity-1="part1" data-entity-2="part2" data-source-line="32" id="msg15"><polygon fill="#0A9EFD" points="176.231,668.1245,186.231,672.1245,176.231,676.1245,180.231,672.1245" style="stroke:#0A9EFD;stroke-width:1;stroke-linejoin:miter;stroke-miterlimit:10;"/><line style="stroke:#0A9EFD;stroke-width:2;" x1="37.7793" x2="182.231" y1="672.1245" y2="672.1245"/><text fill="#0A9EFD" font-family="Arial" font-size="13" lengthAdjust="spacing" textLength="126.4517" x="49.7793" y="667.3696">Pause or resume play</text></g><g class="message" data-entity-1="part2" data-entity-2="part3" data-source-line="33" id="msg16"><polygon fill="#0A9EFD" points="501.6978,697.0732,511.6978,701.0732,501.6978,705.0732,505.6978,701.0732" style="stroke:#0A9EFD;stroke-width:1;stroke-linejoin:miter;stroke-miterlimit:10;"/><line style="stroke:#0A9EFD;stroke-width:2;" x1="188.231" x2="507.6978" y1="701.0732" y2="701.0732"/><text fill="#0A9EFD" font-family="Arial" font-size="13" lengthAdjust="spacing" textLength="177.0298" x="262.4495" y="696.3184">Call pause or resume methods</text></g><g class="message" data-entity-1="part3" data-entity-2="part2" data-source-line="34" id="msg17"><polygon fill="#0A9EFD" points="199.231,726.022,189.231,730.022,199.231,734.022,195.231,730.022" style="stroke:#0A9EFD;stroke-width:1;stroke-linejoin:miter;stroke-miterlimit:10;"/><line style="stroke:#0A9EFD;stroke-width:2;" x1="193.231" x2="512.6978" y1="730.022" y2="730.022"/><text fill="#0A9EFD" font-family="Arial" font-size="13" lengthAdjust="spacing" textLength="163.3062" x="269.3113" y="725.2671">Media file played completely</text></g><g class="message" data-entity-1="part2" data-entity-2="part3" data-source-line="35" id="msg18"><polygon fill="#0A9EFD" points="501.6978,754.9707,511.6978,758.9707,501.6978,762.9707,505.6978,758.9707" style="stroke:#0A9EFD;stroke-width:1;stroke-linejoin:miter;stroke-miterlimit:10;"/><line style="stroke:#0A9EFD;stroke-width:2;" x1="188.231" x2="507.6978" y1="758.9707" y2="758.9707"/><text fill="#0A9EFD" font-family="Arial" font-size="13" lengthAdjust="spacing" textLength="268.8169" x="216.5559" y="754.2158">Resume publishing of camera and microphone</text></g><?plantuml-src dLFDYjim4BxxAQQ-Rt8loqBexY4jsuQuAHGAPIBDncfaZT3FqhvK7w9Frf7jJQB0KkZ5nj9yF_FD-8rnocPDi5WiduqcledwkCG31_mUZyOjJ1viqw1A7A3THGejO8HTjssQFV-4zYld0EXzstWCoIZZqILelnGkwEu_ZEMhpQOXfq4GCsnL5AumtVtsyyVRcFtTdz-to_AUmUipM8JXvguGleLFdXoil6_awtGe5k4a3eb11S94W0wCYmcT8k0d6FNXmHsCemh_u71lfJnhmmBICAOYM4Wz0Ks0vX0uUtZFnbMEoW4Wg1wT8rlnRYa5Gy-5MOYST8t9iB3oaSeJVho2NS-qHNw-X9B7YucDnLyma3O8JyPIh0nrP4cbY-l_oUfnH1ST2fMlSG1dRiZHkCDr-RgUrqMvui5RIgGhorVzL8OxIY0jMrPevy78waWWtvouroRw0huq09oJpwcolVEwTFaIvgJ5lemZJam-xws9_J-PHgzbC1TTyJIgAeMgFymIk_nDWM8U28hbYlGTMYjjrLK3fPvrhF9yF8iM4jAdH6tDk9sLfgxAZ6Ig2WUINw2i-61KOD-pR7PPhBy0?></g></svg>