<?xml version="1.0" encoding="us-ascii" standalone="no"?><svg xmlns="http://www.w3.org/2000/svg" xmlns:xlink="http://www.w3.org/1999/xlink" contentStyleType="text/css" height="874px" preserveAspectRatio="none" style="width:569px;height:874px;" version="1.1" viewBox="0 0 569 874" width="569px" zoomAndPan="magnify"><defs/><g><rect fill="none" height="872.0693" style="stroke:#0A9EFD;stroke-width:1.0;" width="567" x="0" y="0"/><rect fill="#999999" fill-opacity="0.33333" height="862.0693" style="stroke:#0A9EFD;stroke-width:0.5;" width="90" x="144" y="6"/><text fill="#0A9EFD" font-family="sans-serif" font-size="13" font-weight="bold" lengthAdjust="spacing" textLength="62" x="158" y="18.5684">Your app</text><rect fill="#999999" fill-opacity="0.33333" height="862.0693" style="stroke:#0A9EFD;stroke-width:0.5;" width="80" x="477" y="6"/><text fill="#0A9EFD" font-family="sans-serif" font-size="13" font-weight="bold" lengthAdjust="spacing" textLength="41" x="496.5" y="18.5684">Agora</text><rect fill="#0A9EFD" fill-opacity="0.06667" height="116.7949" style="stroke:#0A9EFD;stroke-width:2.0;" width="553" x="10" y="215.9448"/><rect fill="#0A9EFD" fill-opacity="0.06667" height="420.231" style="stroke:#0A9EFD;stroke-width:2.0;" width="553" x="10" y="346.7397"/><line style="stroke:#0A9EFD;stroke-width:0.5;stroke-dasharray:5.0,5.0;" x1="38" x2="38" y1="86.0986" y2="783.9707"/><line style="stroke:#0A9EFD;stroke-width:0.5;stroke-dasharray:5.0,5.0;" x1="189" x2="189" y1="86.0986" y2="783.9707"/><line style="stroke:#0A9EFD;stroke-width:0.5;stroke-dasharray:5.0,5.0;" x1="517" x2="517" y1="86.0986" y2="783.9707"/><text fill="#0A9EFD" font-family="Arial" font-size="14" lengthAdjust="spacing" textLength="30" x="20" y="83.1318">User</text><ellipse cx="38" cy="16" fill="none" rx="8" ry="8" style="stroke:#0A9EFD;stroke-width:3.0;"/><path d="M38,24 L38,51 M25,32 L51,32 M38,51 L25,66 M38,51 L51,66 " fill="none" style="stroke:#0A9EFD;stroke-width:3.0;"/><text fill="#0A9EFD" font-family="Arial" font-size="14" lengthAdjust="spacing" textLength="30" x="20" y="796.1025">User</text><ellipse cx="38" cy="810.0693" fill="none" rx="8" ry="8" style="stroke:#0A9EFD;stroke-width:3.0;"/><path d="M38,818.0693 L38,845.0693 M25,826.0693 L51,826.0693 M38,845.0693 L25,860.0693 M38,845.0693 L51,860.0693 " fill="none" style="stroke:#0A9EFD;stroke-width:3.0;"/><rect fill="none" height="30.0986" rx="2.5" ry="2.5" style="stroke:#0A9EFD;stroke-width:2.0;" width="82" x="148" y="55"/><text fill="#0A9EFD" font-family="Arial" font-size="14" lengthAdjust="spacing" textLength="68" x="155" y="75.1318">Video SDK</text><rect fill="none" height="30.0986" rx="2.5" ry="2.5" style="stroke:#0A9EFD;stroke-width:2.0;" width="82" x="148" y="782.9707"/><text fill="#0A9EFD" font-family="Arial" font-size="14" lengthAdjust="spacing" textLength="68" x="155" y="803.1025">Video SDK</text><rect fill="none" height="30.0986" rx="2.5" ry="2.5" style="stroke:#0A9EFD;stroke-width:2.0;" width="72" x="481" y="55"/><text fill="#0A9EFD" font-family="Arial" font-size="14" lengthAdjust="spacing" textLength="58" x="488" y="75.1318">SDRTN&#174;</text><rect fill="none" height="30.0986" rx="2.5" ry="2.5" style="stroke:#0A9EFD;stroke-width:2.0;" width="72" x="481" y="782.9707"/><text fill="#0A9EFD" font-family="Arial" font-size="14" lengthAdjust="spacing" textLength="58" x="488" y="803.1025">SDRTN&#174;</text><polygon fill="#0A9EFD" points="177,113.0474,187,117.0474,177,121.0474,181,117.0474" style="stroke:#0A9EFD;stroke-width:1.0;"/><line style="stroke:#0A9EFD;stroke-width:2.0;" x1="38" x2="183" y1="117.0474" y2="117.0474"/><text fill="#0A9EFD" font-family="Arial" font-size="13" lengthAdjust="spacing" textLength="58" x="84.5" y="112.2925">Open App</text><line style="stroke:#0A9EFD;stroke-width:2.0;" x1="189" x2="231" y1="145.9961" y2="145.9961"/><line style="stroke:#0A9EFD;stroke-width:2.0;" x1="231" x2="231" y1="145.9961" y2="158.9961"/><line style="stroke:#0A9EFD;stroke-width:2.0;" x1="190" x2="231" y1="158.9961" y2="158.9961"/><polygon fill="#0A9EFD" points="200,154.9961,190,158.9961,200,162.9961,196,158.9961" style="stroke:#0A9EFD;stroke-width:1.0;"/><text fill="#0A9EFD" font-family="Arial" font-size="13" lengthAdjust="spacing" textLength="314" x="196" y="141.2412">Use Video SDK to create an instance of Agora Engine</text><line style="stroke:#0A9EFD;stroke-width:2.0;" x1="189" x2="231" y1="187.9448" y2="187.9448"/><line style="stroke:#0A9EFD;stroke-width:2.0;" x1="231" x2="231" y1="187.9448" y2="200.9448"/><line style="stroke:#0A9EFD;stroke-width:2.0;" x1="190" x2="231" y1="200.9448" y2="200.9448"/><polygon fill="#0A9EFD" points="200,196.9448,190,200.9448,200,204.9448,196,200.9448" style="stroke:#0A9EFD;stroke-width:1.0;"/><text fill="#0A9EFD" font-family="Arial" font-size="13" lengthAdjust="spacing" textLength="213" x="196" y="183.1899">Enable audio and video in the engine</text><path d="M10,215.9448 L79,215.9448 L79,222.8936 L69,232.8936 L10,232.8936 L10,215.9448 " fill="#EEEEEE" style="stroke:#0A9EFD;stroke-width:1.5;"/><rect fill="none" height="116.7949" style="stroke:#0A9EFD;stroke-width:2.0;" width="553" x="10" y="215.9448"/><text fill="#000000" font-family="Arial" font-size="13" lengthAdjust="spacing" textLength="24" x="25" y="229.1387">Join</text><polygon fill="#0A9EFD" points="177,249.8423,187,253.8423,177,257.8423,181,253.8423" style="stroke:#0A9EFD;stroke-width:1.0;"/><line style="stroke:#0A9EFD;stroke-width:2.0;" x1="38" x2="183" y1="253.8423" y2="253.8423"/><text fill="#0A9EFD" font-family="Arial" font-size="13" lengthAdjust="spacing" textLength="84" x="71.5" y="249.0874">Join a channel</text><line style="stroke:#0A9EFD;stroke-width:2.0;" x1="189" x2="231" y1="282.791" y2="282.791"/><line style="stroke:#0A9EFD;stroke-width:2.0;" x1="231" x2="231" y1="282.791" y2="295.791"/><line style="stroke:#0A9EFD;stroke-width:2.0;" x1="190" x2="231" y1="295.791" y2="295.791"/><polygon fill="#0A9EFD" points="200,291.791,190,295.791,200,299.791,196,295.791" style="stroke:#0A9EFD;stroke-width:1.0;"/><text fill="#0A9EFD" font-family="Arial" font-size="13" lengthAdjust="spacing" textLength="268" x="196" y="278.0361">Retrieve authentication token to join a channel</text><polygon fill="#0A9EFD" points="505,320.7397,515,324.7397,505,328.7397,509,324.7397" style="stroke:#0A9EFD;stroke-width:1.0;"/><line style="stroke:#0A9EFD;stroke-width:2.0;" x1="189" x2="511" y1="324.7397" y2="324.7397"/><text fill="#0A9EFD" font-family="Arial" font-size="13" lengthAdjust="spacing" textLength="95" x="305.5" y="319.9849">Join the channel</text><path d="M10,346.7397 L148,346.7397 L148,353.6885 L138,363.6885 L10,363.6885 L10,346.7397 " fill="#EEEEEE" style="stroke:#0A9EFD;stroke-width:1.5;"/><rect fill="none" height="420.231" style="stroke:#0A9EFD;stroke-width:2.0;" width="553" x="10" y="346.7397"/><text fill="#000000" font-family="Arial" font-size="13" lengthAdjust="spacing" textLength="93" x="25" y="359.9336">Play media files</text><polygon fill="#0A9EFD" points="177,380.6372,187,384.6372,177,388.6372,181,384.6372" style="stroke:#0A9EFD;stroke-width:1.0;"/><line style="stroke:#0A9EFD;stroke-width:2.0;" x1="38" x2="183" y1="384.6372" y2="384.6372"/><text fill="#0A9EFD" font-family="Arial" font-size="13" lengthAdjust="spacing" textLength="97" x="65" y="379.8823">Select media file</text><line style="stroke:#0A9EFD;stroke-width:2.0;" x1="189" x2="231" y1="413.5859" y2="413.5859"/><line style="stroke:#0A9EFD;stroke-width:2.0;" x1="231" x2="231" y1="413.5859" y2="426.5859"/><line style="stroke:#0A9EFD;stroke-width:2.0;" x1="190" x2="231" y1="426.5859" y2="426.5859"/><polygon fill="#0A9EFD" points="200,422.5859,190,426.5859,200,430.5859,196,426.5859" style="stroke:#0A9EFD;stroke-width:1.0;"/><text fill="#0A9EFD" font-family="Arial" font-size="13" lengthAdjust="spacing" textLength="312" x="196" y="408.8311">Use Video SDK to create an instance of Media Player</text><polygon fill="#0A9EFD" points="505,451.5347,515,455.5347,505,459.5347,509,455.5347" style="stroke:#0A9EFD;stroke-width:1.0;"/><line style="stroke:#0A9EFD;stroke-width:2.0;" x1="189" x2="511" y1="455.5347" y2="455.5347"/><text fill="#0A9EFD" font-family="Arial" font-size="13" lengthAdjust="spacing" textLength="206" x="250" y="450.7798">Open media file using Media Player</text><polygon fill="#0A9EFD" points="200,480.4834,190,484.4834,200,488.4834,196,484.4834" style="stroke:#0A9EFD;stroke-width:1.0;"/><line style="stroke:#0A9EFD;stroke-width:2.0;" x1="194" x2="516" y1="484.4834" y2="484.4834"/><text fill="#0A9EFD" font-family="Arial" font-size="13" lengthAdjust="spacing" textLength="155" x="275.5" y="479.7285">Open media file completed</text><polygon fill="#0A9EFD" points="177,509.4321,187,513.4321,177,517.4321,181,513.4321" style="stroke:#0A9EFD;stroke-width:1.0;"/><line style="stroke:#0A9EFD;stroke-width:2.0;" x1="38" x2="183" y1="513.4321" y2="513.4321"/><text fill="#0A9EFD" font-family="Arial" font-size="13" lengthAdjust="spacing" textLength="86" x="70.5" y="508.6772">Play media file</text><line style="stroke:#0A9EFD;stroke-width:2.0;" x1="189" x2="231" y1="557.3296" y2="557.3296"/><line style="stroke:#0A9EFD;stroke-width:2.0;" x1="231" x2="231" y1="557.3296" y2="570.3296"/><line style="stroke:#0A9EFD;stroke-width:2.0;" x1="190" x2="231" y1="570.3296" y2="570.3296"/><polygon fill="#0A9EFD" points="200,566.3296,190,570.3296,200,574.3296,196,570.3296" style="stroke:#0A9EFD;stroke-width:1.0;"/><text fill="#0A9EFD" font-family="Arial" font-size="13" lengthAdjust="spacing" textLength="139" x="212.5" y="537.626">Set up local video panel</text><text fill="#0A9EFD" font-family="Arial" font-size="13" lengthAdjust="spacing" textLength="176" x="196" y="552.5747">to display Media Player output</text><polygon fill="#0A9EFD" points="505,610.2271,515,614.2271,505,618.2271,509,614.2271" style="stroke:#0A9EFD;stroke-width:1.0;"/><line style="stroke:#0A9EFD;stroke-width:2.0;" x1="189" x2="511" y1="614.2271" y2="614.2271"/><text fill="#0A9EFD" font-family="Arial" font-size="13" lengthAdjust="spacing" textLength="175" x="263.5" y="594.5234">Update channel media options</text><text fill="#0A9EFD" font-family="Arial" font-size="13" lengthAdjust="spacing" textLength="176" x="265" y="609.4722">to publish Media Player output</text><polygon fill="#0A9EFD" points="505,639.1758,515,643.1758,505,647.1758,509,643.1758" style="stroke:#0A9EFD;stroke-width:1.0;"/><line style="stroke:#0A9EFD;stroke-width:2.0;" x1="189" x2="511" y1="643.1758" y2="643.1758"/><text fill="#0A9EFD" font-family="Arial" font-size="13" lengthAdjust="spacing" textLength="228" x="239" y="638.4209">Play the media file on the Media Player</text><polygon fill="#0A9EFD" points="177,668.1245,187,672.1245,177,676.1245,181,672.1245" style="stroke:#0A9EFD;stroke-width:1.0;"/><line style="stroke:#0A9EFD;stroke-width:2.0;" x1="38" x2="183" y1="672.1245" y2="672.1245"/><text fill="#0A9EFD" font-family="Arial" font-size="13" lengthAdjust="spacing" textLength="127" x="50" y="667.3696">Pause or resume play</text><polygon fill="#0A9EFD" points="505,697.0732,515,701.0732,505,705.0732,509,701.0732" style="stroke:#0A9EFD;stroke-width:1.0;"/><line style="stroke:#0A9EFD;stroke-width:2.0;" x1="189" x2="511" y1="701.0732" y2="701.0732"/><text fill="#0A9EFD" font-family="Arial" font-size="13" lengthAdjust="spacing" textLength="177" x="264.5" y="696.3184">Call pause or resume methods</text><polygon fill="#0A9EFD" points="200,726.022,190,730.022,200,734.022,196,730.022" style="stroke:#0A9EFD;stroke-width:1.0;"/><line style="stroke:#0A9EFD;stroke-width:2.0;" x1="194" x2="516" y1="730.022" y2="730.022"/><text fill="#0A9EFD" font-family="Arial" font-size="13" lengthAdjust="spacing" textLength="165" x="270.5" y="725.2671">Media file played completely</text><polygon fill="#0A9EFD" points="505,754.9707,515,758.9707,505,762.9707,509,758.9707" style="stroke:#0A9EFD;stroke-width:1.0;"/><line style="stroke:#0A9EFD;stroke-width:2.0;" x1="189" x2="511" y1="758.9707" y2="758.9707"/><text fill="#0A9EFD" font-family="Arial" font-size="13" lengthAdjust="spacing" textLength="268" x="219" y="754.2158">Resume publishing of camera and microphone</text><!--SRC=[dLFDQXin4BxlKqpt7kVUGy4aERWbgV76XKAXZAM9Lx5M8_GJafVgG_J9EjhTs9QX57fPM6c-d_bczC4uPRCcM2okNumclehwS8rx3lWp7enRc3pOfa6LE42xZHHQm0ZRRjCqEtw5zZld0EXzstWCoIZZqILelnKkw6w_ZENBzReXfq4GCsnP52umtUtcyU7thncnEY543Qu-5PQFyDMJWwNtZVmT3yKN71KXCQX0c0ZGWN4neLC4_0IZADovlN5KuUySxgoKPsrOG1h6A0GBgIUW2T3i0sSFdzcuob4v00JLetDaAzuDfM3efJ0BaPDMCHaMLZvG-SBpNx2hcRR8pvTGydWtiRRu1WDfW_1aBCNAK4UML3gx_f-ixaTqqQ5G-He7SEA678tRNvQlwdcTbIiUlAL4kh9yqKzbkAC4qh9bXNOUZEoB1FB3YNjjeY_WSmF0EVcSAjjRhqkNxs5EMkpBEEB4vFFEcjZ_asdqMWPprXLFewfIgFh3BB7B4meKyq1GB5UaDsYjj5LN3PHwrh7Ay_uaMaX87nErDUDcLfgwAZEIgIeSI9v0MV71gC2-PzdiibX_0000]--></g></svg>