<?xml version="1.0" encoding="us-ascii" standalone="no"?><svg xmlns="http://www.w3.org/2000/svg" xmlns:xlink="http://www.w3.org/1999/xlink" contentStyleType="text/css" height="874px" preserveAspectRatio="none" style="width:564px;height:874px;" version="1.1" viewBox="0 0 564 874" width="564px" zoomAndPan="magnify"><defs/><g><rect fill="none" height="872.0693" style="stroke:#0A9EFD;stroke-width:1.0;" width="562.5" x="0" y="0"/><rect fill="#999999" fill-opacity="0.33333" height="862.0693" style="stroke:#0A9EFD;stroke-width:0.5;" width="90" x="143.5" y="6"/><text fill="#0A9EFD" font-family="sans-serif" font-size="13" font-weight="bold" lengthAdjust="spacing" textLength="57" x="160" y="19.4951">Your app</text><rect fill="#999999" fill-opacity="0.33333" height="862.0693" style="stroke:#0A9EFD;stroke-width:0.5;" width="74" x="478.5" y="6"/><text fill="#0A9EFD" font-family="sans-serif" font-size="13" font-weight="bold" lengthAdjust="spacing" textLength="38" x="496.5" y="19.4951">Agora</text><rect fill="#0A9EFD" fill-opacity="0.06667" height="116.7949" style="stroke:#0A9EFD;stroke-width:2.0;" width="548.5" x="10" y="215.9448"/><rect fill="#0A9EFD" fill-opacity="0.06667" height="420.231" style="stroke:#0A9EFD;stroke-width:2.0;" width="548.5" x="10" y="346.7397"/><line style="stroke:#0A9EFD;stroke-width:0.5;stroke-dasharray:5.0,5.0;" x1="37" x2="37" y1="86.0986" y2="783.9707"/><line style="stroke:#0A9EFD;stroke-width:0.5;stroke-dasharray:5.0,5.0;" x1="188.5" x2="188.5" y1="86.0986" y2="783.9707"/><line style="stroke:#0A9EFD;stroke-width:0.5;stroke-dasharray:5.0,5.0;" x1="515.5" x2="515.5" y1="86.0986" y2="783.9707"/><text fill="#0A9EFD" font-family="Arial" font-size="14" lengthAdjust="spacing" textLength="29" x="20" y="83.1318">User</text><ellipse cx="37.5" cy="16" fill="none" rx="8" ry="8" style="stroke:#0A9EFD;stroke-width:3.0;"/><path d="M37.5,24 L37.5,51 M24.5,32 L50.5,32 M37.5,51 L24.5,66 M37.5,51 L50.5,66 " fill="none" style="stroke:#0A9EFD;stroke-width:3.0;"/><text fill="#0A9EFD" font-family="Arial" font-size="14" lengthAdjust="spacing" textLength="29" x="20" y="796.1025">User</text><ellipse cx="37.5" cy="810.0693" fill="none" rx="8" ry="8" style="stroke:#0A9EFD;stroke-width:3.0;"/><path d="M37.5,818.0693 L37.5,845.0693 M24.5,826.0693 L50.5,826.0693 M37.5,845.0693 L24.5,860.0693 M37.5,845.0693 L50.5,860.0693 " fill="none" style="stroke:#0A9EFD;stroke-width:3.0;"/><rect fill="none" height="30.0986" rx="2.5" ry="2.5" style="stroke:#0A9EFD;stroke-width:2.0;" width="82" x="147.5" y="55"/><text fill="#0A9EFD" font-family="Arial" font-size="14" lengthAdjust="spacing" textLength="68" x="154.5" y="75.1318">Video SDK</text><rect fill="none" height="30.0986" rx="2.5" ry="2.5" style="stroke:#0A9EFD;stroke-width:2.0;" width="82" x="147.5" y="782.9707"/><text fill="#0A9EFD" font-family="Arial" font-size="14" lengthAdjust="spacing" textLength="68" x="154.5" y="803.1025">Video SDK</text><rect fill="none" height="30.0986" rx="2.5" ry="2.5" style="stroke:#0A9EFD;stroke-width:2.0;" width="66" x="482.5" y="55"/><text fill="#0A9EFD" font-family="Arial" font-size="14" lengthAdjust="spacing" textLength="52" x="489.5" y="75.1318">SD-RTN</text><rect fill="none" height="30.0986" rx="2.5" ry="2.5" style="stroke:#0A9EFD;stroke-width:2.0;" width="66" x="482.5" y="782.9707"/><text fill="#0A9EFD" font-family="Arial" font-size="14" lengthAdjust="spacing" textLength="52" x="489.5" y="803.1025">SD-RTN</text><polygon fill="#0A9EFD" points="176.5,113.0474,186.5,117.0474,176.5,121.0474,180.5,117.0474" style="stroke:#0A9EFD;stroke-width:1.0;"/><line style="stroke:#0A9EFD;stroke-width:2.0;" x1="37.5" x2="182.5" y1="117.0474" y2="117.0474"/><text fill="#0A9EFD" font-family="Arial" font-size="13" lengthAdjust="spacing" textLength="58" x="84" y="112.2925">Open App</text><line style="stroke:#0A9EFD;stroke-width:2.0;" x1="188.5" x2="230.5" y1="145.9961" y2="145.9961"/><line style="stroke:#0A9EFD;stroke-width:2.0;" x1="230.5" x2="230.5" y1="145.9961" y2="158.9961"/><line style="stroke:#0A9EFD;stroke-width:2.0;" x1="189.5" x2="230.5" y1="158.9961" y2="158.9961"/><polygon fill="#0A9EFD" points="199.5,154.9961,189.5,158.9961,199.5,162.9961,195.5,158.9961" style="stroke:#0A9EFD;stroke-width:1.0;"/><text fill="#0A9EFD" font-family="Arial" font-size="13" lengthAdjust="spacing" textLength="313" x="195.5" y="141.2412">Use Video SDK to create an instance of Agora Engine</text><line style="stroke:#0A9EFD;stroke-width:2.0;" x1="188.5" x2="230.5" y1="187.9448" y2="187.9448"/><line style="stroke:#0A9EFD;stroke-width:2.0;" x1="230.5" x2="230.5" y1="187.9448" y2="200.9448"/><line style="stroke:#0A9EFD;stroke-width:2.0;" x1="189.5" x2="230.5" y1="200.9448" y2="200.9448"/><polygon fill="#0A9EFD" points="199.5,196.9448,189.5,200.9448,199.5,204.9448,195.5,200.9448" style="stroke:#0A9EFD;stroke-width:1.0;"/><text fill="#0A9EFD" font-family="Arial" font-size="13" lengthAdjust="spacing" textLength="211" x="195.5" y="183.1899">Enable audio and video in the engine</text><path d="M10,215.9448 L78,215.9448 L78,222.8936 L68,232.8936 L10,232.8936 L10,215.9448 " fill="#EEEEEE" style="stroke:#0A9EFD;stroke-width:1.5;"/><rect fill="none" height="116.7949" style="stroke:#0A9EFD;stroke-width:2.0;" width="548.5" x="10" y="215.9448"/><text fill="#000000" font-family="Arial" font-size="13" lengthAdjust="spacing" textLength="23" x="25" y="229.1387">Join</text><polygon fill="#0A9EFD" points="176.5,249.8423,186.5,253.8423,176.5,257.8423,180.5,253.8423" style="stroke:#0A9EFD;stroke-width:1.0;"/><line style="stroke:#0A9EFD;stroke-width:2.0;" x1="37.5" x2="182.5" y1="253.8423" y2="253.8423"/><text fill="#0A9EFD" font-family="Arial" font-size="13" lengthAdjust="spacing" textLength="83" x="71.5" y="249.0874">Join a channel</text><line style="stroke:#0A9EFD;stroke-width:2.0;" x1="188.5" x2="230.5" y1="282.791" y2="282.791"/><line style="stroke:#0A9EFD;stroke-width:2.0;" x1="230.5" x2="230.5" y1="282.791" y2="295.791"/><line style="stroke:#0A9EFD;stroke-width:2.0;" x1="189.5" x2="230.5" y1="295.791" y2="295.791"/><polygon fill="#0A9EFD" points="199.5,291.791,189.5,295.791,199.5,299.791,195.5,295.791" style="stroke:#0A9EFD;stroke-width:1.0;"/><text fill="#0A9EFD" font-family="Arial" font-size="13" lengthAdjust="spacing" textLength="266" x="195.5" y="278.0361">Retrieve authentication token to join a channel</text><polygon fill="#0A9EFD" points="503.5,320.7397,513.5,324.7397,503.5,328.7397,507.5,324.7397" style="stroke:#0A9EFD;stroke-width:1.0;"/><line style="stroke:#0A9EFD;stroke-width:2.0;" x1="188.5" x2="509.5" y1="324.7397" y2="324.7397"/><text fill="#0A9EFD" font-family="Arial" font-size="13" lengthAdjust="spacing" textLength="94" x="305" y="319.9849">Join the channel</text><path d="M10,346.7397 L147,346.7397 L147,353.6885 L137,363.6885 L10,363.6885 L10,346.7397 " fill="#EEEEEE" style="stroke:#0A9EFD;stroke-width:1.5;"/><rect fill="none" height="420.231" style="stroke:#0A9EFD;stroke-width:2.0;" width="548.5" x="10" y="346.7397"/><text fill="#000000" font-family="Arial" font-size="13" lengthAdjust="spacing" textLength="92" x="25" y="359.9336">Play media files</text><polygon fill="#0A9EFD" points="176.5,380.6372,186.5,384.6372,176.5,388.6372,180.5,384.6372" style="stroke:#0A9EFD;stroke-width:1.0;"/><line style="stroke:#0A9EFD;stroke-width:2.0;" x1="37.5" x2="182.5" y1="384.6372" y2="384.6372"/><text fill="#0A9EFD" font-family="Arial" font-size="13" lengthAdjust="spacing" textLength="96" x="65" y="379.8823">Select media file</text><line style="stroke:#0A9EFD;stroke-width:2.0;" x1="188.5" x2="230.5" y1="413.5859" y2="413.5859"/><line style="stroke:#0A9EFD;stroke-width:2.0;" x1="230.5" x2="230.5" y1="413.5859" y2="426.5859"/><line style="stroke:#0A9EFD;stroke-width:2.0;" x1="189.5" x2="230.5" y1="426.5859" y2="426.5859"/><polygon fill="#0A9EFD" points="199.5,422.5859,189.5,426.5859,199.5,430.5859,195.5,426.5859" style="stroke:#0A9EFD;stroke-width:1.0;"/><text fill="#0A9EFD" font-family="Arial" font-size="13" lengthAdjust="spacing" textLength="311" x="195.5" y="408.8311">Use Video SDK to create an instance of Media Player</text><polygon fill="#0A9EFD" points="503.5,451.5347,513.5,455.5347,503.5,459.5347,507.5,455.5347" style="stroke:#0A9EFD;stroke-width:1.0;"/><line style="stroke:#0A9EFD;stroke-width:2.0;" x1="188.5" x2="509.5" y1="455.5347" y2="455.5347"/><text fill="#0A9EFD" font-family="Arial" font-size="13" lengthAdjust="spacing" textLength="205" x="249.5" y="450.7798">Open media file using Media Player</text><polygon fill="#0A9EFD" points="199.5,480.4834,189.5,484.4834,199.5,488.4834,195.5,484.4834" style="stroke:#0A9EFD;stroke-width:1.0;"/><line style="stroke:#0A9EFD;stroke-width:2.0;" x1="193.5" x2="514.5" y1="484.4834" y2="484.4834"/><text fill="#0A9EFD" font-family="Arial" font-size="13" lengthAdjust="spacing" textLength="154" x="275" y="479.7285">Open media file completed</text><polygon fill="#0A9EFD" points="176.5,509.4321,186.5,513.4321,176.5,517.4321,180.5,513.4321" style="stroke:#0A9EFD;stroke-width:1.0;"/><line style="stroke:#0A9EFD;stroke-width:2.0;" x1="37.5" x2="182.5" y1="513.4321" y2="513.4321"/><text fill="#0A9EFD" font-family="Arial" font-size="13" lengthAdjust="spacing" textLength="85" x="70.5" y="508.6772">Play media file</text><line style="stroke:#0A9EFD;stroke-width:2.0;" x1="188.5" x2="230.5" y1="557.3296" y2="557.3296"/><line style="stroke:#0A9EFD;stroke-width:2.0;" x1="230.5" x2="230.5" y1="557.3296" y2="570.3296"/><line style="stroke:#0A9EFD;stroke-width:2.0;" x1="189.5" x2="230.5" y1="570.3296" y2="570.3296"/><polygon fill="#0A9EFD" points="199.5,566.3296,189.5,570.3296,199.5,574.3296,195.5,570.3296" style="stroke:#0A9EFD;stroke-width:1.0;"/><text fill="#0A9EFD" font-family="Arial" font-size="13" lengthAdjust="spacing" textLength="137" x="213" y="537.626">Set up local video panel</text><text fill="#0A9EFD" font-family="Arial" font-size="13" lengthAdjust="spacing" textLength="176" x="195.5" y="552.5747">to display Media Player output</text><polygon fill="#0A9EFD" points="503.5,610.2271,513.5,614.2271,503.5,618.2271,507.5,614.2271" style="stroke:#0A9EFD;stroke-width:1.0;"/><line style="stroke:#0A9EFD;stroke-width:2.0;" x1="188.5" x2="509.5" y1="614.2271" y2="614.2271"/><text fill="#0A9EFD" font-family="Arial" font-size="13" lengthAdjust="spacing" textLength="175" x="262.5" y="594.5234">Update channel media options</text><text fill="#0A9EFD" font-family="Arial" font-size="13" lengthAdjust="spacing" textLength="176" x="264" y="609.4722">to publish Media Player output</text><polygon fill="#0A9EFD" points="503.5,639.1758,513.5,643.1758,503.5,647.1758,507.5,643.1758" style="stroke:#0A9EFD;stroke-width:1.0;"/><line style="stroke:#0A9EFD;stroke-width:2.0;" x1="188.5" x2="509.5" y1="643.1758" y2="643.1758"/><text fill="#0A9EFD" font-family="Arial" font-size="13" lengthAdjust="spacing" textLength="227" x="238.5" y="638.4209">Play the media file on the Media Player</text><polygon fill="#0A9EFD" points="176.5,668.1245,186.5,672.1245,176.5,676.1245,180.5,672.1245" style="stroke:#0A9EFD;stroke-width:1.0;"/><line style="stroke:#0A9EFD;stroke-width:2.0;" x1="37.5" x2="182.5" y1="672.1245" y2="672.1245"/><text fill="#0A9EFD" font-family="Arial" font-size="13" lengthAdjust="spacing" textLength="127" x="49.5" y="667.3696">Pause or resume play</text><polygon fill="#0A9EFD" points="503.5,697.0732,513.5,701.0732,503.5,705.0732,507.5,701.0732" style="stroke:#0A9EFD;stroke-width:1.0;"/><line style="stroke:#0A9EFD;stroke-width:2.0;" x1="188.5" x2="509.5" y1="701.0732" y2="701.0732"/><text fill="#0A9EFD" font-family="Arial" font-size="13" lengthAdjust="spacing" textLength="177" x="263.5" y="696.3184">Call pause or resume methods</text><polygon fill="#0A9EFD" points="199.5,726.022,189.5,730.022,199.5,734.022,195.5,730.022" style="stroke:#0A9EFD;stroke-width:1.0;"/><line style="stroke:#0A9EFD;stroke-width:2.0;" x1="193.5" x2="514.5" y1="730.022" y2="730.022"/><text fill="#0A9EFD" font-family="Arial" font-size="13" lengthAdjust="spacing" textLength="164" x="270" y="725.2671">Media file played completely</text><polygon fill="#0A9EFD" points="503.5,754.9707,513.5,758.9707,503.5,762.9707,507.5,758.9707" style="stroke:#0A9EFD;stroke-width:1.0;"/><line style="stroke:#0A9EFD;stroke-width:2.0;" x1="188.5" x2="509.5" y1="758.9707" y2="758.9707"/><text fill="#0A9EFD" font-family="Arial" font-size="13" lengthAdjust="spacing" textLength="267" x="218.5" y="754.2158">Resume publishing of camera and microphone</text><!--SRC=[dLFDQXin4BxlKqptdZv03mMJvE2MDCPR5mg5CfOctccq6g6VqBvzH-kDRHbAe9U5bURxcnczOszSiGHua8W_qpFxzrmcrtLeiaJeTubY3vXWDsoxRY-_eVyk9GA6q7S1OsR30Ns6_XjR4XZkFi_bgysc8sz14GjiLHMkCCFTpVRhbmMmFWDK36u-Lf8Fy1Z8mog4JlzEXseBJeAG1Kmap1h30_kKqHi2UO9P4-xzWJqr-7kFUwVbnR8eoCBBJCOUyaX0Hq1tY582V1BsZQDw00XcHE_9DRnRof7ffJ8haTUac5cKLPwfVk7NFx3hXRRABvTG-_5gOkFm3qna6U697QN6q42EJBwu_fzUFSpegaEnyJKFuCmD9R4_N9UlstbTb1kPWgDCjh5ybQSnF506ZUp4e5i6e-kY3VdXrRtb52huqW18oQ7anlOks9hojPb7BGbr7Ed85ChUSHhVP9gzri5Sf9BZg9ekDFcmQDlr1KLAPIAebXlIMtHEOxLL4-LHR6hw-N0MhIHaJnrrBUDsKJgcgZFIgHgSI9z0NV69JPGmYcvsNQo_]--></g></svg>