<?xml version="1.0" encoding="us-ascii" standalone="no"?><svg xmlns="http://www.w3.org/2000/svg" xmlns:xlink="http://www.w3.org/1999/xlink" contentStyleType="text/css" height="799px" preserveAspectRatio="none" style="width:832px;height:799px;" version="1.1" viewBox="0 0 832 799" width="832px" zoomAndPan="magnify"><defs/><g><rect fill="none" height="797.1719" style="stroke:#0A9EFD;stroke-width:1.0;" width="830" x="0" y="0"/><rect fill="#999999" fill-opacity="0.33333" height="787.1719" style="stroke:#0A9EFD;stroke-width:0.5;" width="421.5" x="117" y="6"/><text fill="#0A9EFD" font-family="sans-serif" font-size="13" font-weight="bold" lengthAdjust="spacing" textLength="108" x="273.75" y="18.5684">Agora customer</text><rect fill="#999999" fill-opacity="0.33333" height="787.1719" style="stroke:#0A9EFD;stroke-width:0.5;" width="117" x="599.5" y="6"/><text fill="#0A9EFD" font-family="sans-serif" font-size="13" font-weight="bold" lengthAdjust="spacing" textLength="41" x="637.5" y="18.5684">Agora</text><line style="stroke:#0A9EFD;stroke-width:0.5;stroke-dasharray:5.0,5.0;" x1="23" x2="23" y1="86.0986" y2="709.0732"/><line style="stroke:#0A9EFD;stroke-width:0.5;stroke-dasharray:5.0,5.0;" x1="81" x2="81" y1="86.0986" y2="709.0732"/><line style="stroke:#0A9EFD;stroke-width:0.5;stroke-dasharray:5.0,5.0;" x1="183" x2="183" y1="86.0986" y2="709.0732"/><line style="stroke:#0A9EFD;stroke-width:0.5;stroke-dasharray:5.0,5.0;" x1="346.5" x2="346.5" y1="86.0986" y2="709.0732"/><line style="stroke:#0A9EFD;stroke-width:0.5;stroke-dasharray:5.0,5.0;" x1="483.5" x2="483.5" y1="86.0986" y2="709.0732"/><line style="stroke:#0A9EFD;stroke-width:0.5;stroke-dasharray:5.0,5.0;" x1="568.5" x2="568.5" y1="86.0986" y2="709.0732"/><line style="stroke:#0A9EFD;stroke-width:0.5;stroke-dasharray:5.0,5.0;" x1="657.5" x2="657.5" y1="86.0986" y2="709.0732"/><text fill="#0A9EFD" font-family="Arial" font-size="14" lengthAdjust="spacing" textLength="30" x="5" y="83.1318">User</text><ellipse cx="23" cy="16" fill="none" rx="8" ry="8" style="stroke:#0A9EFD;stroke-width:3.0;"/><path d="M23,24 L23,51 M10,32 L36,32 M23,51 L10,66 M23,51 L36,66 " fill="none" style="stroke:#0A9EFD;stroke-width:3.0;"/><text fill="#0A9EFD" font-family="Arial" font-size="14" lengthAdjust="spacing" textLength="30" x="5" y="721.2051">User</text><ellipse cx="23" cy="735.1719" fill="none" rx="8" ry="8" style="stroke:#0A9EFD;stroke-width:3.0;"/><path d="M23,743.1719 L23,770.1719 M10,751.1719 L36,751.1719 M23,770.1719 L10,785.1719 M23,770.1719 L36,785.1719 " fill="none" style="stroke:#0A9EFD;stroke-width:3.0;"/><text fill="#000000" font-family="sans-serif" font-size="14" lengthAdjust="spacing" textLength="54" x="51" y="83.1455">Internet</text><path d="M60.5,41.6104 L60.5,65.6104 M60.5,53.6104 L77.5,53.6104 " fill="none" style="stroke:#0A9EFD;stroke-width:0.5;"/><ellipse cx="89.5" cy="53.6104" fill="none" rx="12" ry="12" style="stroke:#0A9EFD;stroke-width:0.5;"/><text fill="#000000" font-family="sans-serif" font-size="14" lengthAdjust="spacing" textLength="54" x="51" y="721.6084">Internet</text><path d="M60.5,728.5615 L60.5,752.5615 M60.5,740.5615 L77.5,740.5615 " fill="none" style="stroke:#0A9EFD;stroke-width:0.5;"/><ellipse cx="89.5" cy="740.5615" fill="none" rx="12" ry="12" style="stroke:#0A9EFD;stroke-width:0.5;"/><rect fill="none" height="30.0986" rx="2.5" ry="2.5" style="stroke:#0A9EFD;stroke-width:2.0;" width="125" x="121" y="55"/><text fill="#0A9EFD" font-family="Arial" font-size="14" lengthAdjust="spacing" textLength="111" x="128" y="75.1318">Agora Web Client</text><rect fill="none" height="30.0986" rx="2.5" ry="2.5" style="stroke:#0A9EFD;stroke-width:2.0;" width="125" x="121" y="708.0732"/><text fill="#0A9EFD" font-family="Arial" font-size="14" lengthAdjust="spacing" textLength="111" x="128" y="728.2051">Agora Web Client</text><rect fill="none" height="30.0986" rx="2.5" ry="2.5" style="stroke:#0A9EFD;stroke-width:2.0;" width="154" x="269.5" y="55"/><text fill="#0A9EFD" font-family="Arial" font-size="14" lengthAdjust="spacing" textLength="140" x="276.5" y="75.1318">Security Infrastructure</text><rect fill="none" height="30.0986" rx="2.5" ry="2.5" style="stroke:#0A9EFD;stroke-width:2.0;" width="154" x="269.5" y="708.0732"/><text fill="#0A9EFD" font-family="Arial" font-size="14" lengthAdjust="spacing" textLength="140" x="276.5" y="728.2051">Security Infrastructure</text><rect fill="none" height="30.0986" rx="2.5" ry="2.5" style="stroke:#0A9EFD;stroke-width:2.0;" width="101" x="433.5" y="55"/><text fill="#0A9EFD" font-family="Arial" font-size="14" lengthAdjust="spacing" textLength="87" x="440.5" y="75.1318">Mobile device</text><rect fill="none" height="30.0986" rx="2.5" ry="2.5" style="stroke:#0A9EFD;stroke-width:2.0;" width="101" x="433.5" y="708.0732"/><text fill="#0A9EFD" font-family="Arial" font-size="14" lengthAdjust="spacing" textLength="87" x="440.5" y="728.2051">Mobile device</text><text fill="#000000" font-family="sans-serif" font-size="14" lengthAdjust="spacing" textLength="42" x="545" y="83.1455">Agora</text><path d="M548.5,41.6104 L548.5,65.6104 M548.5,53.6104 L565.5,53.6104 " fill="none" style="stroke:#0A9EFD;stroke-width:0.5;"/><ellipse cx="577.5" cy="53.6104" fill="none" rx="12" ry="12" style="stroke:#0A9EFD;stroke-width:0.5;"/><text fill="#000000" font-family="sans-serif" font-size="14" lengthAdjust="spacing" textLength="42" x="545" y="721.6084">Agora</text><path d="M548.5,728.5615 L548.5,752.5615 M548.5,740.5615 L565.5,740.5615 " fill="none" style="stroke:#0A9EFD;stroke-width:0.5;"/><ellipse cx="577.5" cy="740.5615" fill="none" rx="12" ry="12" style="stroke:#0A9EFD;stroke-width:0.5;"/><rect fill="none" height="30.0986" rx="2.5" ry="2.5" style="stroke:#0A9EFD;stroke-width:2.0;" width="109" x="603.5" y="55"/><text fill="#0A9EFD" font-family="Arial" font-size="14" lengthAdjust="spacing" textLength="95" x="610.5" y="75.1318">Agora Platform</text><rect fill="none" height="30.0986" rx="2.5" ry="2.5" style="stroke:#0A9EFD;stroke-width:2.0;" width="109" x="603.5" y="708.0732"/><text fill="#0A9EFD" font-family="Arial" font-size="14" lengthAdjust="spacing" textLength="95" x="610.5" y="728.2051">Agora Platform</text><polygon fill="#0A9EFD" points="171.5,113.0474,181.5,117.0474,171.5,121.0474,175.5,117.0474" style="stroke:#0A9EFD;stroke-width:1.0;"/><line style="stroke:#0A9EFD;stroke-width:2.0;" x1="23" x2="177.5" y1="117.0474" y2="117.0474"/><text fill="#0A9EFD" font-family="Arial" font-size="13" lengthAdjust="spacing" textLength="121" x="42.75" y="112.2925">Login to Agora Client</text><polygon fill="#0A9EFD" points="334.5,156.9448,344.5,160.9448,334.5,164.9448,338.5,160.9448" style="stroke:#0A9EFD;stroke-width:1.0;"/><line style="stroke:#0A9EFD;stroke-width:2.0;" x1="183.5" x2="340.5" y1="160.9448" y2="160.9448"/><text fill="#0A9EFD" font-family="Arial" font-size="13" lengthAdjust="spacing" textLength="75" x="225.5" y="141.2412">Login to your</text><text fill="#0A9EFD" font-family="Arial" font-size="13" lengthAdjust="spacing" textLength="126" x="204" y="156.1899">security infrastructure</text><line style="stroke:#0A9EFD;stroke-width:2.0;" x1="346.5" x2="388.5" y1="189.8936" y2="189.8936"/><line style="stroke:#0A9EFD;stroke-width:2.0;" x1="388.5" x2="388.5" y1="189.8936" y2="202.8936"/><line style="stroke:#0A9EFD;stroke-width:2.0;" x1="347.5" x2="388.5" y1="202.8936" y2="202.8936"/><polygon fill="#0A9EFD" points="357.5,198.8936,347.5,202.8936,357.5,206.8936,353.5,202.8936" style="stroke:#0A9EFD;stroke-width:1.0;"/><text fill="#0A9EFD" font-family="Arial" font-size="13" lengthAdjust="spacing" textLength="102" x="353.5" y="185.1387">Authenticate user</text><polygon fill="#0A9EFD" points="194.5,227.8423,184.5,231.8423,194.5,235.8423,190.5,231.8423" style="stroke:#0A9EFD;stroke-width:1.0;"/><line style="stroke:#0A9EFD;stroke-width:2.0;" x1="188.5" x2="345.5" y1="231.8423" y2="231.8423"/><text fill="#0A9EFD" font-family="Arial" font-size="13" lengthAdjust="spacing" textLength="117" x="206.5" y="227.0874">return AccessToken</text><polygon fill="#0A9EFD" points="646,256.791,656,260.791,646,264.791,650,260.791" style="stroke:#0A9EFD;stroke-width:1.0;"/><line style="stroke:#0A9EFD;stroke-width:2.0;" x1="183.5" x2="652" y1="260.791" y2="260.791"/><text fill="#0A9EFD" font-family="Arial" font-size="13" lengthAdjust="spacing" textLength="183" x="329.25" y="256.0361">apiCallToLoginToAgoraPlatform</text><line style="stroke:#0A9EFD;stroke-width:2.0;" x1="658" x2="700" y1="289.7397" y2="289.7397"/><line style="stroke:#0A9EFD;stroke-width:2.0;" x1="700" x2="700" y1="289.7397" y2="302.7397"/><line style="stroke:#0A9EFD;stroke-width:2.0;" x1="659" x2="700" y1="302.7397" y2="302.7397"/><polygon fill="#0A9EFD" points="669,298.7397,659,302.7397,669,306.7397,665,302.7397" style="stroke:#0A9EFD;stroke-width:1.0;"/><text fill="#0A9EFD" font-family="Arial" font-size="13" lengthAdjust="spacing" textLength="157" x="665" y="284.9849">Authenticate AccessToken</text><polygon fill="#0A9EFD" points="194.5,327.6885,184.5,331.6885,194.5,335.6885,190.5,331.6885" style="stroke:#0A9EFD;stroke-width:1.0;"/><line style="stroke:#0A9EFD;stroke-width:2.0;" x1="188.5" x2="657" y1="331.6885" y2="331.6885"/><text fill="#0A9EFD" font-family="Arial" font-size="13" lengthAdjust="spacing" textLength="95" x="373.25" y="326.9336">Login authorized</text><polygon fill="#0A9EFD" points="171.5,356.6372,181.5,360.6372,171.5,364.6372,175.5,360.6372" style="stroke:#0A9EFD;stroke-width:1.0;"/><line style="stroke:#0A9EFD;stroke-width:2.0;" x1="23" x2="177.5" y1="360.6372" y2="360.6372"/><text fill="#0A9EFD" font-family="Arial" font-size="13" lengthAdjust="spacing" textLength="114" x="46.25" y="355.8823">Tap secure channel</text><polygon fill="#0A9EFD" points="334.5,385.5859,344.5,389.5859,334.5,393.5859,338.5,389.5859" style="stroke:#0A9EFD;stroke-width:1.0;"/><line style="stroke:#0A9EFD;stroke-width:2.0;" x1="183.5" x2="340.5" y1="389.5859" y2="389.5859"/><text fill="#0A9EFD" font-family="Arial" font-size="13" lengthAdjust="spacing" textLength="139" x="195.5" y="384.8311">Call to step-up webhook</text><polygon fill="#0A9EFD" points="472,414.5347,482,418.5347,472,422.5347,476,418.5347" style="stroke:#0A9EFD;stroke-width:1.0;"/><line style="stroke:#0A9EFD;stroke-width:2.0;" x1="346.5" x2="478" y1="418.5347" y2="418.5347"/><text fill="#0A9EFD" font-family="Arial" font-size="13" lengthAdjust="spacing" textLength="63" x="383.75" y="413.7798">Send SMS</text><polygon fill="#0A9EFD" points="34,458.4321,24,462.4321,34,466.4321,30,462.4321" style="stroke:#0A9EFD;stroke-width:1.0;"/><line style="stroke:#0A9EFD;stroke-width:2.0;" x1="28" x2="483" y1="462.4321" y2="462.4321"/><text fill="#0A9EFD" font-family="Arial" font-size="13" lengthAdjust="spacing" textLength="96" x="203.5" y="442.7285">SMS notification</text><text fill="#0A9EFD" font-family="Arial" font-size="13" lengthAdjust="spacing" textLength="105" x="203" y="457.6772">with security code</text><polygon fill="#0A9EFD" points="171.5,487.3809,181.5,491.3809,171.5,495.3809,175.5,491.3809" style="stroke:#0A9EFD;stroke-width:1.0;"/><line style="stroke:#0A9EFD;stroke-width:2.0;" x1="23" x2="177.5" y1="491.3809" y2="491.3809"/><text fill="#0A9EFD" font-family="Arial" font-size="13" lengthAdjust="spacing" textLength="113" x="46.75" y="486.626">Enter security code</text><polygon fill="#0A9EFD" points="334.5,516.3296,344.5,520.3296,334.5,524.3296,338.5,520.3296" style="stroke:#0A9EFD;stroke-width:1.0;"/><line style="stroke:#0A9EFD;stroke-width:2.0;" x1="183.5" x2="340.5" y1="520.3296" y2="520.3296"/><text fill="#0A9EFD" font-family="Arial" font-size="13" lengthAdjust="spacing" textLength="112" x="209" y="515.5747">Send security code</text><line style="stroke:#0A9EFD;stroke-width:2.0;" x1="346.5" x2="388.5" y1="549.2783" y2="549.2783"/><line style="stroke:#0A9EFD;stroke-width:2.0;" x1="388.5" x2="388.5" y1="549.2783" y2="562.2783"/><line style="stroke:#0A9EFD;stroke-width:2.0;" x1="347.5" x2="388.5" y1="562.2783" y2="562.2783"/><polygon fill="#0A9EFD" points="357.5,558.2783,347.5,562.2783,357.5,566.2783,353.5,562.2783" style="stroke:#0A9EFD;stroke-width:1.0;"/><text fill="#0A9EFD" font-family="Arial" font-size="13" lengthAdjust="spacing" textLength="73" x="353.5" y="544.5234">Authenticate</text><polygon fill="#0A9EFD" points="646,587.2271,656,591.2271,646,595.2271,650,591.2271" style="stroke:#0A9EFD;stroke-width:1.0;"/><line style="stroke:#0A9EFD;stroke-width:2.0;" x1="346.5" x2="652" y1="591.2271" y2="591.2271"/><text fill="#0A9EFD" font-family="Arial" font-size="13" lengthAdjust="spacing" textLength="166" x="419.25" y="586.4722">apiCallToJoinSecureChannel</text><line style="stroke:#0A9EFD;stroke-width:2.0;" x1="658" x2="700" y1="620.1758" y2="620.1758"/><line style="stroke:#0A9EFD;stroke-width:2.0;" x1="700" x2="700" y1="620.1758" y2="633.1758"/><line style="stroke:#0A9EFD;stroke-width:2.0;" x1="659" x2="700" y1="633.1758" y2="633.1758"/><polygon fill="#0A9EFD" points="669,629.1758,659,633.1758,669,637.1758,665,633.1758" style="stroke:#0A9EFD;stroke-width:1.0;"/><text fill="#0A9EFD" font-family="Arial" font-size="13" lengthAdjust="spacing" textLength="160" x="665" y="615.4209">Join user to secure channel</text><polygon fill="#0A9EFD" points="194.5,658.1245,184.5,662.1245,194.5,666.1245,190.5,662.1245" style="stroke:#0A9EFD;stroke-width:1.0;"/><polygon fill="#0A9EFD" points="646,658.1245,656,662.1245,646,666.1245,650,662.1245" style="stroke:#0A9EFD;stroke-width:1.0;"/><line style="stroke:#0A9EFD;stroke-width:2.0;" x1="188.5" x2="652" y1="662.1245" y2="662.1245"/><text fill="#0A9EFD" font-family="Arial" font-size="13" lengthAdjust="spacing" textLength="91" x="375.25" y="657.3696">Stream channel</text><polygon fill="#0A9EFD" points="34,687.0732,24,691.0732,34,695.0732,30,691.0732" style="stroke:#0A9EFD;stroke-width:1.0;"/><polygon fill="#0A9EFD" points="171.5,687.0732,181.5,691.0732,171.5,695.0732,175.5,691.0732" style="stroke:#0A9EFD;stroke-width:1.0;"/><line style="stroke:#0A9EFD;stroke-width:2.0;" x1="28" x2="177.5" y1="691.0732" y2="691.0732"/><text fill="#0A9EFD" font-family="Arial" font-size="13" lengthAdjust="spacing" textLength="116" x="45.25" y="686.3184">Join secure channel</text><!--SRC=[RL9DRvj04BtlhvZwRkUEeaW8LvMZqg10r4kaQhsCuv7n3jgFfEwlx-uIC5WvmlkOznvy8wqwto9iDdVlr2AlRNkwasziv1zx8hqXV-w4458vDh1wiMXM82syrCz2xDdhLfeBh7RQeT7e4hRxrKJiBwpow0FAMyVd81IzD8uKzLAx4VoDUoWwGZreys99gb5vG-u2EtqmqZhZbVC61svJByabxwb3QF6Tr40fjqAWRY6acSTDfmUF7q_F-Jpjbo6hJhe3c_CWgQwMOGPOFuJK6VpaDzBW60R9q4daHSAR6cQC2ti3hnhiM8uMvKIaJwhSksDm8YKTWW_xJt0uQZ08DEHAeRKDdr2ByMILWUofa5tNSBhSS4esTX5vDV8M9-PUURKe9mEF3Vt3Tj6yaVrG1K4TfTRONMjd41F4qjPXl_OzVE3-o7mQMvJR3EguPrtMejp6Ly4wYu-WsT4XfYBMSQyFSiVhQ8fRdCVu7l_16tYM8nsvGQUTbnjCm7p3HoQT_aOinfBJW15BtoOLlPcYWllFXBKpAC_paUx7kibXgVmF]--></g></svg>