<?xml version="1.0" encoding="us-ascii" standalone="no"?><svg xmlns="http://www.w3.org/2000/svg" xmlns:xlink="http://www.w3.org/1999/xlink" contentStyleType="text/css" height="814px" preserveAspectRatio="none" style="width:979px;height:814px;" version="1.1" viewBox="0 0 979 814" width="979px" zoomAndPan="magnify"><defs/><g><rect fill="none" height="812.2837" style="stroke:#0A9EFD;stroke-width:1.0;" width="977.5" x="0" y="0"/><rect fill="#999999" fill-opacity="0.33333" height="802.2837" style="stroke:#0A9EFD;stroke-width:0.5;" width="402.5" x="235" y="6"/><text fill="#0A9EFD" font-family="sans-serif" font-size="13" font-weight="bold" lengthAdjust="spacing" textLength="108" x="382.25" y="18.5684">Agora customer</text><rect fill="#999999" fill-opacity="0.33333" height="802.2837" style="stroke:#0A9EFD;stroke-width:0.5;" width="269" x="698.5" y="6"/><text fill="#0A9EFD" font-family="sans-serif" font-size="13" font-weight="bold" lengthAdjust="spacing" textLength="41" x="812.5" y="18.5684">Agora</text><rect fill="#0A9EFD" fill-opacity="0.06667" height="204.7739" style="stroke:#0A9EFD;stroke-width:2.0;" width="569.5" x="404" y="357.7188"/><line style="stroke:#0A9EFD;stroke-width:0.5;stroke-dasharray:5.0,5.0;" x1="141" x2="141" y1="86.0986" y2="724.1851"/><line style="stroke:#0A9EFD;stroke-width:0.5;stroke-dasharray:5.0,5.0;" x1="199" x2="199" y1="86.0986" y2="724.1851"/><line style="stroke:#0A9EFD;stroke-width:0.5;stroke-dasharray:5.0,5.0;" x1="285" x2="285" y1="86.0986" y2="724.1851"/><line style="stroke:#0A9EFD;stroke-width:0.5;stroke-dasharray:5.0,5.0;" x1="465" x2="465" y1="86.0986" y2="724.1851"/><line style="stroke:#0A9EFD;stroke-width:0.5;stroke-dasharray:5.0,5.0;" x1="581.5" x2="581.5" y1="86.0986" y2="724.1851"/><line style="stroke:#0A9EFD;stroke-width:0.5;stroke-dasharray:5.0,5.0;" x1="667.5" x2="667.5" y1="86.0986" y2="724.1851"/><line style="stroke:#0A9EFD;stroke-width:0.5;stroke-dasharray:5.0,5.0;" x1="756.5" x2="756.5" y1="86.0986" y2="724.1851"/><line style="stroke:#0A9EFD;stroke-width:0.5;stroke-dasharray:5.0,5.0;" x1="892.5" x2="892.5" y1="86.0986" y2="724.1851"/><text fill="#0A9EFD" font-family="Arial" font-size="14" lengthAdjust="spacing" textLength="30" x="123" y="83.1318">User</text><ellipse cx="141" cy="16" fill="none" rx="8" ry="8" style="stroke:#0A9EFD;stroke-width:3.0;"/><path d="M141,24 L141,51 M128,32 L154,32 M141,51 L128,66 M141,51 L154,66 " fill="none" style="stroke:#0A9EFD;stroke-width:3.0;"/><text fill="#0A9EFD" font-family="Arial" font-size="14" lengthAdjust="spacing" textLength="30" x="123" y="736.3169">User</text><ellipse cx="141" cy="750.2837" fill="none" rx="8" ry="8" style="stroke:#0A9EFD;stroke-width:3.0;"/><path d="M141,758.2837 L141,785.2837 M128,766.2837 L154,766.2837 M141,785.2837 L128,800.2837 M141,785.2837 L154,800.2837 " fill="none" style="stroke:#0A9EFD;stroke-width:3.0;"/><text fill="#000000" font-family="sans-serif" font-size="14" lengthAdjust="spacing" textLength="54" x="169" y="83.1455">Internet</text><path d="M178.5,41.6104 L178.5,65.6104 M178.5,53.6104 L195.5,53.6104 " fill="none" style="stroke:#0A9EFD;stroke-width:0.5;"/><ellipse cx="207.5" cy="53.6104" fill="none" rx="12" ry="12" style="stroke:#0A9EFD;stroke-width:0.5;"/><text fill="#000000" font-family="sans-serif" font-size="14" lengthAdjust="spacing" textLength="54" x="169" y="736.7202">Internet</text><path d="M178.5,743.6733 L178.5,767.6733 M178.5,755.6733 L195.5,755.6733 " fill="none" style="stroke:#0A9EFD;stroke-width:0.5;"/><ellipse cx="207.5" cy="755.6733" fill="none" rx="12" ry="12" style="stroke:#0A9EFD;stroke-width:0.5;"/><rect fill="none" height="30.0986" rx="2.5" ry="2.5" style="stroke:#0A9EFD;stroke-width:2.0;" width="92" x="239" y="55"/><text fill="#0A9EFD" font-family="Arial" font-size="14" lengthAdjust="spacing" textLength="78" x="246" y="75.1318">Agora Client</text><rect fill="none" height="30.0986" rx="2.5" ry="2.5" style="stroke:#0A9EFD;stroke-width:2.0;" width="92" x="239" y="723.1851"/><text fill="#0A9EFD" font-family="Arial" font-size="14" lengthAdjust="spacing" textLength="78" x="246" y="743.3169">Agora Client</text><rect fill="none" height="30.0986" rx="2.5" ry="2.5" style="stroke:#0A9EFD;stroke-width:2.0;" width="102" x="414" y="55"/><text fill="#0A9EFD" font-family="Arial" font-size="14" lengthAdjust="spacing" textLength="88" x="421" y="75.1318">Your backend</text><rect fill="none" height="30.0986" rx="2.5" ry="2.5" style="stroke:#0A9EFD;stroke-width:2.0;" width="102" x="414" y="723.1851"/><text fill="#0A9EFD" font-family="Arial" font-size="14" lengthAdjust="spacing" textLength="88" x="421" y="743.3169">Your backend</text><rect fill="none" height="30.0986" rx="2.5" ry="2.5" style="stroke:#0A9EFD;stroke-width:2.0;" width="103" x="530.5" y="55"/><text fill="#0A9EFD" font-family="Arial" font-size="14" lengthAdjust="spacing" textLength="89" x="537.5" y="75.1318">Cloud storage</text><rect fill="none" height="30.0986" rx="2.5" ry="2.5" style="stroke:#0A9EFD;stroke-width:2.0;" width="103" x="530.5" y="723.1851"/><text fill="#0A9EFD" font-family="Arial" font-size="14" lengthAdjust="spacing" textLength="89" x="537.5" y="743.3169">Cloud storage</text><text fill="#000000" font-family="sans-serif" font-size="14" lengthAdjust="spacing" textLength="42" x="644" y="83.1455">Agora</text><path d="M647.5,41.6104 L647.5,65.6104 M647.5,53.6104 L664.5,53.6104 " fill="none" style="stroke:#0A9EFD;stroke-width:0.5;"/><ellipse cx="676.5" cy="53.6104" fill="none" rx="12" ry="12" style="stroke:#0A9EFD;stroke-width:0.5;"/><text fill="#000000" font-family="sans-serif" font-size="14" lengthAdjust="spacing" textLength="42" x="644" y="736.7202">Agora</text><path d="M647.5,743.6733 L647.5,767.6733 M647.5,755.6733 L664.5,755.6733 " fill="none" style="stroke:#0A9EFD;stroke-width:0.5;"/><ellipse cx="676.5" cy="755.6733" fill="none" rx="12" ry="12" style="stroke:#0A9EFD;stroke-width:0.5;"/><rect fill="none" height="30.0986" rx="2.5" ry="2.5" style="stroke:#0A9EFD;stroke-width:2.0;" width="109" x="702.5" y="55"/><text fill="#0A9EFD" font-family="Arial" font-size="14" lengthAdjust="spacing" textLength="95" x="709.5" y="75.1318">Agora Platform</text><rect fill="none" height="30.0986" rx="2.5" ry="2.5" style="stroke:#0A9EFD;stroke-width:2.0;" width="109" x="702.5" y="723.1851"/><text fill="#0A9EFD" font-family="Arial" font-size="14" lengthAdjust="spacing" textLength="95" x="709.5" y="743.3169">Agora Platform</text><rect fill="none" height="30.0986" rx="2.5" ry="2.5" style="stroke:#0A9EFD;stroke-width:2.0;" width="142" x="821.5" y="55"/><text fill="#0A9EFD" font-family="Arial" font-size="14" lengthAdjust="spacing" textLength="128" x="828.5" y="75.1318">Agora cloud storage</text><rect fill="none" height="30.0986" rx="2.5" ry="2.5" style="stroke:#0A9EFD;stroke-width:2.0;" width="142" x="821.5" y="723.1851"/><text fill="#0A9EFD" font-family="Arial" font-size="14" lengthAdjust="spacing" textLength="128" x="828.5" y="743.3169">Agora cloud storage</text><polygon fill="#0A9EFD" points="273,130.9961,283,134.9961,273,138.9961,277,134.9961" style="stroke:#0A9EFD;stroke-width:1.0;"/><line style="stroke:#0A9EFD;stroke-width:2.0;" x1="141" x2="279" y1="134.9961" y2="134.9961"/><text fill="#0A9EFD" font-family="Arial" font-size="13" font-weight="bold" lengthAdjust="spacing" textLength="7" x="164.5" y="122.7668">1</text><text fill="#0A9EFD" font-family="Arial" font-size="13" lengthAdjust="spacing" textLength="79" x="179" y="115.2925">Follow upload</text><text fill="#0A9EFD" font-family="Arial" font-size="13" lengthAdjust="spacing" textLength="86" x="175.5" y="130.2412">wizard in client</text><path d="M5,101.0986 L5,140.0986 L136,140.0986 L136,111.0986 L126,101.0986 L5,101.0986 " fill="none" style="stroke:#0A9EFD;stroke-width:1.0;"/><path d="M126,101.0986 L126,111.0986 L136,111.0986 L126,101.0986 " fill="none" style="stroke:#0A9EFD;stroke-width:1.0;"/><text fill="#0A9EFD" font-family="Arial" font-size="13" lengthAdjust="spacing" textLength="87" x="27" y="118.2925">User is already</text><text fill="#0A9EFD" font-family="Arial" font-size="13" lengthAdjust="spacing" textLength="101" x="20" y="133.2412">logged into Agora</text><polygon fill="#0A9EFD" points="453,177.8936,463,181.8936,453,185.8936,457,181.8936" style="stroke:#0A9EFD;stroke-width:1.0;"/><line style="stroke:#0A9EFD;stroke-width:2.0;" x1="285" x2="459" y1="181.8936" y2="181.8936"/><text fill="#0A9EFD" font-family="Arial" font-size="13" font-weight="bold" lengthAdjust="spacing" textLength="7" x="302" y="169.6643">2</text><text fill="#0A9EFD" font-family="Arial" font-size="13" lengthAdjust="spacing" textLength="86" x="337.5" y="162.1899">Upload file and</text><text fill="#0A9EFD" font-family="Arial" font-size="13" lengthAdjust="spacing" textLength="131" x="317" y="177.1387">request file conversion</text><polygon fill="#0A9EFD" points="570,221.791,580,225.791,570,229.791,574,225.791" style="stroke:#0A9EFD;stroke-width:1.0;"/><line style="stroke:#0A9EFD;stroke-width:2.0;" x1="465" x2="576" y1="225.791" y2="225.791"/><text fill="#0A9EFD" font-family="Arial" font-size="13" font-weight="bold" lengthAdjust="spacing" textLength="7" x="477" y="213.5618">3</text><text fill="#0A9EFD" font-family="Arial" font-size="13" lengthAdjust="spacing" textLength="55" x="499.5" y="206.0874">Upload to</text><text fill="#0A9EFD" font-family="Arial" font-size="13" lengthAdjust="spacing" textLength="78" x="492" y="221.0361">cloud storage</text><polygon fill="#0A9EFD" points="476,265.6885,466,269.6885,476,273.6885,472,269.6885" style="stroke:#0A9EFD;stroke-width:1.0;"/><line style="stroke:#0A9EFD;stroke-width:2.0;" x1="470" x2="581" y1="269.6885" y2="269.6885"/><text fill="#0A9EFD" font-family="Arial" font-size="13" font-weight="bold" lengthAdjust="spacing" textLength="7" x="477" y="257.4592">4</text><text fill="#0A9EFD" font-family="Arial" font-size="13" lengthAdjust="spacing" textLength="82" x="488" y="249.9849">Return URL to</text><text fill="#0A9EFD" font-family="Arial" font-size="13" lengthAdjust="spacing" textLength="73" x="494.5" y="264.9336">uploaded file</text><polygon fill="#0A9EFD" points="745,309.5859,755,313.5859,745,317.5859,749,313.5859" style="stroke:#0A9EFD;stroke-width:1.0;"/><line style="stroke:#0A9EFD;stroke-width:2.0;" x1="465" x2="751" y1="313.5859" y2="313.5859"/><text fill="#0A9EFD" font-family="Arial" font-size="13" font-weight="bold" lengthAdjust="spacing" textLength="7" x="498.5" y="301.3567">5</text><text fill="#0A9EFD" font-family="Arial" font-size="13" lengthAdjust="spacing" textLength="140" x="544.5" y="293.8823">Request file conversion:</text><text fill="#0A9EFD" font-family="Arial" font-size="13" font-style="italic" lengthAdjust="spacing" textLength="214" x="509.5" y="308.8311">POST /v5/services/conversion/tasks</text><polygon fill="#0A9EFD" points="476,338.7188,466,342.7188,476,346.7188,472,342.7188" style="stroke:#0A9EFD;stroke-width:1.0;"/><line style="stroke:#0A9EFD;stroke-width:2.0;" x1="470" x2="756" y1="342.7188" y2="342.7188"/><text fill="#0A9EFD" font-family="Arial" font-size="13" font-weight="bold" lengthAdjust="spacing" textLength="7" x="536" y="337.8718">6</text><text fill="#0A9EFD" font-family="Arial" font-size="13" lengthAdjust="spacing" textLength="63" x="547" y="337.9639">conversion</text><text fill="#0A9EFD" font-family="monospace" font-size="13" lengthAdjust="spacing" textLength="72" x="614" y="337.6528">task&#160;uuid</text><path d="M404,357.7188 L955,357.7188 L955,364.8516 L945,374.8516 L404,374.8516 L404,357.7188 " fill="#EEEEEE" style="stroke:#0A9EFD;stroke-width:1.5;"/><rect fill="none" height="204.7739" style="stroke:#0A9EFD;stroke-width:2.0;" width="569.5" x="404" y="357.7188"/><text fill="#000000" font-family="Arial" font-size="13" lengthAdjust="spacing" textLength="133" x="419" y="371.0967">While poll for progress:</text><text fill="#000000" font-family="Arial" font-size="13" font-style="italic" lengthAdjust="spacing" textLength="209" x="556" y="371.0967">GET /v5/services/conversion/tasks/</text><text fill="#000000" font-family="monospace" font-size="13" font-style="italic" lengthAdjust="spacing" textLength="88" x="765" y="370.7856">&lt;task&#160;uuid&gt;</text><text fill="#000000" font-family="Arial" font-size="13" font-style="italic" lengthAdjust="spacing" textLength="72" x="853" y="371.0967">?type=static</text><polygon fill="#0A9EFD" points="593,420.749,583,424.749,593,428.749,589,424.749" style="stroke:#0A9EFD;stroke-width:1.0;"/><polygon fill="#0A9EFD" points="745,420.749,755,424.749,745,428.749,749,424.749" style="stroke:#0A9EFD;stroke-width:1.0;"/><line style="stroke:#0A9EFD;stroke-width:2.0;" x1="587" x2="751" y1="424.749" y2="424.749"/><text fill="#0A9EFD" font-family="Arial" font-size="13" font-weight="bold" lengthAdjust="spacing" textLength="7" x="601.5" y="419.9941">8</text><text fill="#0A9EFD" font-family="Arial" font-size="13" lengthAdjust="spacing" textLength="125" x="612.5" y="419.9941">Retrieve uploaded file</text><line style="stroke:#0A9EFD;stroke-width:2.0;" x1="757" x2="799" y1="453.6978" y2="453.6978"/><line style="stroke:#0A9EFD;stroke-width:2.0;" x1="799" x2="799" y1="453.6978" y2="466.6978"/><line style="stroke:#0A9EFD;stroke-width:2.0;" x1="758" x2="799" y1="466.6978" y2="466.6978"/><polygon fill="#0A9EFD" points="768,462.6978,758,466.6978,768,470.6978,764,466.6978" style="stroke:#0A9EFD;stroke-width:1.0;"/><text fill="#0A9EFD" font-family="Arial" font-size="13" font-weight="bold" lengthAdjust="spacing" textLength="7" x="764" y="448.9429">9</text><text fill="#0A9EFD" font-family="Arial" font-size="13" lengthAdjust="spacing" textLength="45" x="775" y="448.9429">Convert</text><polygon fill="#0A9EFD" points="880.5,506.5952,890.5,510.5952,880.5,514.5952,884.5,510.5952" style="stroke:#0A9EFD;stroke-width:1.0;"/><line style="stroke:#0A9EFD;stroke-width:2.0;" x1="757" x2="886.5" y1="510.5952" y2="510.5952"/><text fill="#0A9EFD" font-family="Arial" font-size="13" font-weight="bold" lengthAdjust="spacing" textLength="14" x="774.75" y="498.366">10</text><text fill="#0A9EFD" font-family="Arial" font-size="13" lengthAdjust="spacing" textLength="55" x="804.25" y="490.8916">Upload to</text><text fill="#0A9EFD" font-family="Arial" font-size="13" lengthAdjust="spacing" textLength="78" x="796.75" y="505.8403">cloud storage</text><polygon fill="#0A9EFD" points="476,550.4927,466,554.4927,476,558.4927,472,554.4927" style="stroke:#0A9EFD;stroke-width:1.0;"/><line style="stroke:#0A9EFD;stroke-width:2.0;" x1="470" x2="756" y1="554.4927" y2="554.4927"/><text fill="#0A9EFD" font-family="Arial" font-size="13" font-weight="bold" lengthAdjust="spacing" textLength="14" x="557.5" y="542.2634">11</text><text fill="#0A9EFD" font-family="Arial" font-size="13" lengthAdjust="spacing" textLength="86" x="577" y="534.7891">Return  URL to</text><text fill="#0A9EFD" font-family="Arial" font-size="13" lengthAdjust="spacing" textLength="85" x="579.5" y="549.7378">converted files</text><polygon fill="#0A9EFD" points="296,601.3901,286,605.3901,296,609.3901,292,605.3901" style="stroke:#0A9EFD;stroke-width:1.0;"/><line style="stroke:#0A9EFD;stroke-width:2.0;" x1="290" x2="464" y1="605.3901" y2="605.3901"/><text fill="#0A9EFD" font-family="Arial" font-size="13" font-weight="bold" lengthAdjust="spacing" textLength="14" x="297" y="593.1609">12</text><text fill="#0A9EFD" font-family="Arial" font-size="13" lengthAdjust="spacing" textLength="132" x="316" y="585.6865">Send JSON containing</text><text fill="#0A9EFD" font-family="Arial" font-size="13" lengthAdjust="spacing" textLength="138" x="315" y="600.6353">URLS to converted files</text><line style="stroke:#0A9EFD;stroke-width:2.0;" x1="285" x2="327" y1="649.2876" y2="649.2876"/><line style="stroke:#0A9EFD;stroke-width:2.0;" x1="327" x2="327" y1="649.2876" y2="662.2876"/><line style="stroke:#0A9EFD;stroke-width:2.0;" x1="286" x2="327" y1="662.2876" y2="662.2876"/><polygon fill="#0A9EFD" points="296,658.2876,286,662.2876,296,666.2876,292,662.2876" style="stroke:#0A9EFD;stroke-width:1.0;"/><text fill="#0A9EFD" font-family="Arial" font-size="13" font-weight="bold" lengthAdjust="spacing" textLength="14" x="292" y="637.0583">13</text><text fill="#0A9EFD" font-family="Arial" font-size="13" lengthAdjust="spacing" textLength="140" x="310" y="629.584">Insert converted images</text><text fill="#0A9EFD" font-family="Arial" font-size="13" lengthAdjust="spacing" textLength="131" x="316.5" y="644.5327">into current whiteboard</text><polygon fill="#0A9EFD" points="152,702.1851,142,706.1851,152,710.1851,148,706.1851" style="stroke:#0A9EFD;stroke-width:1.0;"/><line style="stroke:#0A9EFD;stroke-width:2.0;" x1="146" x2="284" y1="706.1851" y2="706.1851"/><text fill="#0A9EFD" font-family="Arial" font-size="13" font-weight="bold" lengthAdjust="spacing" textLength="14" x="156" y="693.9558">14</text><text fill="#0A9EFD" font-family="Arial" font-size="13" lengthAdjust="spacing" textLength="96" x="174" y="686.4814">Display upldated</text><text fill="#0A9EFD" font-family="Arial" font-size="13" lengthAdjust="spacing" textLength="62" x="193" y="701.4302">whiteboard</text><!--SRC=[XL9BZzem4BxxLqnpNtpg1Mst2ccxegeMH1PLgr9L9Xw2XR5JFw3qrtUS41vRfBrwljTyddVAL3fAXC60xvH4U-VbXelQEl7BRvGPgBZLJCHWJTmkqJ4cgc0TP7EFBWFXOLxE65lQQAHm1yZ69g0p6DhP-EavpVv0bYT5gA8FTaj4rWWNLAKQOK8_BBH2q_6AlBX6lDZeO2cg3HhP8KRNW4BRA87KdQYnGnGbOmG7yhyCs9grYFnnCiilyzsCDTKYhApRTfJfBKZrdtbEvYTlQWZk7j9IG_XYjRPxY8ssGYxCNlqLJe8of96sPyO618shC8JKC2WFGZiKyh0msjOr9d2mq1epHfgjz8ZWhIIib4OGXhJ1uU-8FdHFbJKxT5vPmufHoodA4ua45-Pw3KRpNdg68Je3yzatGXAmIu-T6JlgvTC4lEau97NEfvFo6VZkFQUzTgf2pyy87eJVUCvPFkrDpqF8iZI669NCCiPgPsC3tzV9fA4-WRu76cThXzuFWVF7psyPPTdzIV8Xopw6GuCVV13qinGYBVHZhQH4yxDTBCMwxpkZDfp27RwgeKkUMYXQjz2_lD7pUUDZpUUUkzZXwE3JHR6-xlQQodHZNyl9Ku86eOmoDJcGG9cyNlFxQqdKiQ5smWL4RIcD9tPxNrLqZkuHzciLS6dfI7isNVCGFYdVQ7585KX1R0fxHlu3]--></g></svg>