<?xml version="1.0" encoding="us-ascii" standalone="no"?><svg xmlns="http://www.w3.org/2000/svg" xmlns:xlink="http://www.w3.org/1999/xlink" contentStyleType="text/css" height="900px" preserveAspectRatio="none" style="width:493px;height:900px;" version="1.1" viewBox="0 0 493 900" width="493px" zoomAndPan="magnify"><defs/><g><rect fill="none" height="898.0181" style="stroke:#0A9EFD;stroke-width:1.0;" width="491.5" x="0" y="0"/><rect fill="#999999" fill-opacity="0.33333" height="888.0181" style="stroke:#0A9EFD;stroke-width:0.5;" width="74" x="136.5" y="6"/><text fill="#0A9EFD" font-family="sans-serif" font-size="13" font-weight="bold" lengthAdjust="spacing" textLength="57" x="145" y="19.4951">Your app</text><rect fill="#999999" fill-opacity="0.33333" height="888.0181" style="stroke:#0A9EFD;stroke-width:0.5;" width="74" x="407.5" y="6"/><text fill="#0A9EFD" font-family="sans-serif" font-size="13" font-weight="bold" lengthAdjust="spacing" textLength="38" x="425.5" y="19.4951">Agora</text><rect fill="none" height="158.7437" style="stroke:#0A9EFD;stroke-width:2.0;" width="357" x="130.5" y="103.0986"/><rect fill="none" height="103.7949" style="stroke:#0A9EFD;stroke-width:2.0;" width="477.5" x="10" y="275.8423"/><rect fill="none" height="74.8462" style="stroke:#0A9EFD;stroke-width:2.0;" width="357" x="130.5" y="393.6372"/><rect fill="none" height="132.7437" style="stroke:#0A9EFD;stroke-width:2.0;" width="477.5" x="10" y="482.4834"/><rect fill="none" height="74.8462" style="stroke:#0A9EFD;stroke-width:2.0;" width="477.5" x="10" y="629.2271"/><rect fill="none" height="74.8462" style="stroke:#0A9EFD;stroke-width:2.0;" width="357" x="130.5" y="718.0732"/><line style="stroke:#0A9EFD;stroke-width:0.5;stroke-dasharray:5.0,5.0;" x1="37" x2="37" y1="86.0986" y2="809.9194"/><line style="stroke:#0A9EFD;stroke-width:0.5;stroke-dasharray:5.0,5.0;" x1="173.5" x2="173.5" y1="86.0986" y2="809.9194"/><line style="stroke:#0A9EFD;stroke-width:0.5;stroke-dasharray:5.0,5.0;" x1="444.5" x2="444.5" y1="86.0986" y2="809.9194"/><text fill="#0A9EFD" font-family="Arial" font-size="14" lengthAdjust="spacing" textLength="29" x="20" y="83.1318">User</text><ellipse cx="37.5" cy="16" fill="none" rx="8" ry="8" style="stroke:#0A9EFD;stroke-width:3.0;"/><path d="M37.5,24 L37.5,51 M24.5,32 L50.5,32 M37.5,51 L24.5,66 M37.5,51 L50.5,66 " fill="none" style="stroke:#0A9EFD;stroke-width:3.0;"/><text fill="#0A9EFD" font-family="Arial" font-size="14" lengthAdjust="spacing" textLength="29" x="20" y="822.0513">User</text><ellipse cx="37.5" cy="836.0181" fill="none" rx="8" ry="8" style="stroke:#0A9EFD;stroke-width:3.0;"/><path d="M37.5,844.0181 L37.5,871.0181 M24.5,852.0181 L50.5,852.0181 M37.5,871.0181 L24.5,886.0181 M37.5,871.0181 L50.5,886.0181 " fill="none" style="stroke:#0A9EFD;stroke-width:3.0;"/><rect fill="none" height="30.0986" rx="2.5" ry="2.5" style="stroke:#0A9EFD;stroke-width:2.0;" width="66" x="140.5" y="55"/><text fill="#0A9EFD" font-family="Arial" font-size="14" lengthAdjust="spacing" textLength="52" x="147.5" y="75.1318">IoT SDK</text><rect fill="none" height="30.0986" rx="2.5" ry="2.5" style="stroke:#0A9EFD;stroke-width:2.0;" width="66" x="140.5" y="808.9194"/><text fill="#0A9EFD" font-family="Arial" font-size="14" lengthAdjust="spacing" textLength="52" x="147.5" y="829.0513">IoT SDK</text><rect fill="none" height="30.0986" rx="2.5" ry="2.5" style="stroke:#0A9EFD;stroke-width:2.0;" width="66" x="411.5" y="55"/><text fill="#0A9EFD" font-family="Arial" font-size="14" lengthAdjust="spacing" textLength="52" x="418.5" y="75.1318">SD-RTN</text><rect fill="none" height="30.0986" rx="2.5" ry="2.5" style="stroke:#0A9EFD;stroke-width:2.0;" width="66" x="411.5" y="808.9194"/><text fill="#0A9EFD" font-family="Arial" font-size="14" lengthAdjust="spacing" textLength="52" x="418.5" y="829.0513">SD-RTN</text><path d="M130.5,103.0986 L293.5,103.0986 L293.5,110.0474 L283.5,120.0474 L130.5,120.0474 L130.5,103.0986 " fill="#EEEEEE" style="stroke:#0A9EFD;stroke-width:1.5;"/><rect fill="none" height="158.7437" style="stroke:#0A9EFD;stroke-width:2.0;" width="357" x="130.5" y="103.0986"/><text fill="#000000" font-family="Arial" font-size="13" lengthAdjust="spacing" textLength="118" x="145.5" y="116.2925">Set up Agora engine</text><line style="stroke:#0A9EFD;stroke-width:2.0;" x1="173.5" x2="215.5" y1="140.9961" y2="140.9961"/><line style="stroke:#0A9EFD;stroke-width:2.0;" x1="215.5" x2="215.5" y1="140.9961" y2="153.9961"/><line style="stroke:#0A9EFD;stroke-width:2.0;" x1="174.5" x2="215.5" y1="153.9961" y2="153.9961"/><polygon fill="#0A9EFD" points="184.5,149.9961,174.5,153.9961,184.5,157.9961,180.5,153.9961" style="stroke:#0A9EFD;stroke-width:1.0;"/><text fill="#0A9EFD" font-family="Arial" font-size="13" lengthAdjust="spacing" textLength="162" x="180.5" y="136.2412">Instantiate the Agora engine</text><line style="stroke:#0A9EFD;stroke-width:2.0;" x1="173.5" x2="215.5" y1="182.9448" y2="182.9448"/><line style="stroke:#0A9EFD;stroke-width:2.0;" x1="215.5" x2="215.5" y1="182.9448" y2="195.9448"/><line style="stroke:#0A9EFD;stroke-width:2.0;" x1="174.5" x2="215.5" y1="195.9448" y2="195.9448"/><polygon fill="#0A9EFD" points="184.5,191.9448,174.5,195.9448,184.5,199.9448,180.5,195.9448" style="stroke:#0A9EFD;stroke-width:1.0;"/><text fill="#0A9EFD" font-family="Arial" font-size="13" lengthAdjust="spacing" textLength="108" x="180.5" y="178.1899">Set engine options</text><polygon fill="#0A9EFD" points="432.5,220.8936,442.5,224.8936,432.5,228.8936,436.5,224.8936" style="stroke:#0A9EFD;stroke-width:1.0;"/><line style="stroke:#0A9EFD;stroke-width:2.0;" x1="173.5" x2="438.5" y1="224.8936" y2="224.8936"/><text fill="#0A9EFD" font-family="Arial" font-size="13" lengthAdjust="spacing" textLength="218" x="200" y="220.1387">Verify license and initialize the engine</text><polygon fill="#0A9EFD" points="432.5,249.8423,442.5,253.8423,432.5,257.8423,436.5,253.8423" style="stroke:#0A9EFD;stroke-width:1.0;"/><line style="stroke:#0A9EFD;stroke-width:2.0;" x1="173.5" x2="438.5" y1="253.8423" y2="253.8423"/><text fill="#0A9EFD" font-family="Arial" font-size="13" lengthAdjust="spacing" textLength="116" x="251" y="249.0874">Create a connection</text><path d="M10,275.8423 L138,275.8423 L138,282.791 L128,292.791 L10,292.791 L10,275.8423 " fill="#EEEEEE" style="stroke:#0A9EFD;stroke-width:1.5;"/><rect fill="none" height="103.7949" style="stroke:#0A9EFD;stroke-width:2.0;" width="477.5" x="10" y="275.8423"/><text fill="#000000" font-family="Arial" font-size="13" lengthAdjust="spacing" textLength="83" x="25" y="289.0361">Join a channel</text><polygon fill="#0A9EFD" points="161.5,309.7397,171.5,313.7397,161.5,317.7397,165.5,313.7397" style="stroke:#0A9EFD;stroke-width:1.0;"/><line style="stroke:#0A9EFD;stroke-width:2.0;" x1="37.5" x2="167.5" y1="313.7397" y2="313.7397"/><text fill="#0A9EFD" font-family="Arial" font-size="13" lengthAdjust="spacing" textLength="83" x="64" y="308.9849">Join a channel</text><polygon fill="#0A9EFD" points="432.5,338.6885,442.5,342.6885,432.5,346.6885,436.5,342.6885" style="stroke:#0A9EFD;stroke-width:1.0;"/><line style="stroke:#0A9EFD;stroke-width:2.0;" x1="173.5" x2="438.5" y1="342.6885" y2="342.6885"/><text fill="#0A9EFD" font-family="Arial" font-size="13" lengthAdjust="spacing" textLength="190" x="214" y="337.9336">Call the method to join a channel</text><polygon fill="#0A9EFD" points="184.5,367.6372,174.5,371.6372,184.5,375.6372,180.5,371.6372" style="stroke:#0A9EFD;stroke-width:1.0;"/><line style="stroke:#0A9EFD;stroke-width:2.0;" x1="178.5" x2="443.5" y1="371.6372" y2="371.6372"/><text fill="#0A9EFD" font-family="Arial" font-size="13" lengthAdjust="spacing" textLength="195" x="211.5" y="366.8823">On join channel success callback</text><path d="M130.5,393.6372 L298.5,393.6372 L298.5,400.5859 L288.5,410.5859 L130.5,410.5859 L130.5,393.6372 " fill="#EEEEEE" style="stroke:#0A9EFD;stroke-width:1.5;"/><rect fill="none" height="74.8462" style="stroke:#0A9EFD;stroke-width:2.0;" width="357" x="130.5" y="393.6372"/><text fill="#000000" font-family="Arial" font-size="13" lengthAdjust="spacing" textLength="123" x="145.5" y="406.8311">Send audio and video</text><polygon fill="#0A9EFD" points="432.5,427.5347,442.5,431.5347,432.5,435.5347,436.5,431.5347" style="stroke:#0A9EFD;stroke-width:1.0;"/><line style="stroke:#0A9EFD;stroke-width:2.0;" x1="173.5" x2="438.5" y1="431.5347" y2="431.5347"/><text fill="#0A9EFD" font-family="Arial" font-size="13" lengthAdjust="spacing" textLength="179" x="219.5" y="426.7798">Start thread to send audio data</text><polygon fill="#0A9EFD" points="432.5,456.4834,442.5,460.4834,432.5,464.4834,436.5,460.4834" style="stroke:#0A9EFD;stroke-width:1.0;"/><line style="stroke:#0A9EFD;stroke-width:2.0;" x1="173.5" x2="438.5" y1="460.4834" y2="460.4834"/><text fill="#0A9EFD" font-family="Arial" font-size="13" lengthAdjust="spacing" textLength="177" x="220.5" y="455.7285">Start thread to send video data</text><path d="M10,482.4834 L193,482.4834 L193,489.4321 L183,499.4321 L10,499.4321 L10,482.4834 " fill="#EEEEEE" style="stroke:#0A9EFD;stroke-width:1.5;"/><rect fill="none" height="132.7437" style="stroke:#0A9EFD;stroke-width:2.0;" width="477.5" x="10" y="482.4834"/><text fill="#000000" font-family="Arial" font-size="13" lengthAdjust="spacing" textLength="138" x="25" y="495.6772">Receive audio and video</text><polygon fill="#0A9EFD" points="184.5,516.3809,174.5,520.3809,184.5,524.3809,180.5,520.3809" style="stroke:#0A9EFD;stroke-width:1.0;"/><line style="stroke:#0A9EFD;stroke-width:2.0;" x1="178.5" x2="443.5" y1="520.3809" y2="520.3809"/><text fill="#0A9EFD" font-family="Arial" font-size="13" lengthAdjust="spacing" textLength="133" x="242.5" y="515.626">On audio data callback</text><polygon fill="#0A9EFD" points="48.5,545.3296,38.5,549.3296,48.5,553.3296,44.5,549.3296" style="stroke:#0A9EFD;stroke-width:1.0;"/><line style="stroke:#0A9EFD;stroke-width:2.0;" x1="42.5" x2="172.5" y1="549.3296" y2="549.3296"/><text fill="#0A9EFD" font-family="Arial" font-size="13" lengthAdjust="spacing" textLength="112" x="49.5" y="544.5747">Render audio frame</text><polygon fill="#0A9EFD" points="184.5,574.2783,174.5,578.2783,184.5,582.2783,180.5,578.2783" style="stroke:#0A9EFD;stroke-width:1.0;"/><line style="stroke:#0A9EFD;stroke-width:2.0;" x1="178.5" x2="443.5" y1="578.2783" y2="578.2783"/><text fill="#0A9EFD" font-family="Arial" font-size="13" lengthAdjust="spacing" textLength="131" x="243.5" y="573.5234">On video data callback</text><polygon fill="#0A9EFD" points="48.5,603.2271,38.5,607.2271,48.5,611.2271,44.5,607.2271" style="stroke:#0A9EFD;stroke-width:1.0;"/><line style="stroke:#0A9EFD;stroke-width:2.0;" x1="42.5" x2="172.5" y1="607.2271" y2="607.2271"/><text fill="#0A9EFD" font-family="Arial" font-size="13" lengthAdjust="spacing" textLength="110" x="50.5" y="602.4722">Render video frame</text><path d="M10,629.2271 L137,629.2271 L137,636.1758 L127,646.1758 L10,646.1758 L10,629.2271 " fill="#EEEEEE" style="stroke:#0A9EFD;stroke-width:1.5;"/><rect fill="none" height="74.8462" style="stroke:#0A9EFD;stroke-width:2.0;" width="477.5" x="10" y="629.2271"/><text fill="#000000" font-family="Arial" font-size="13" lengthAdjust="spacing" textLength="82" x="25" y="642.4209">Leave channel</text><polygon fill="#0A9EFD" points="161.5,663.1245,171.5,667.1245,161.5,671.1245,165.5,667.1245" style="stroke:#0A9EFD;stroke-width:1.0;"/><line style="stroke:#0A9EFD;stroke-width:2.0;" x1="37.5" x2="167.5" y1="667.1245" y2="667.1245"/><text fill="#0A9EFD" font-family="Arial" font-size="13" lengthAdjust="spacing" textLength="82" x="64.5" y="662.3696">Leave channel</text><polygon fill="#0A9EFD" points="432.5,692.0732,442.5,696.0732,432.5,700.0732,436.5,696.0732" style="stroke:#0A9EFD;stroke-width:1.0;"/><line style="stroke:#0A9EFD;stroke-width:2.0;" x1="173.5" x2="438.5" y1="696.0732" y2="696.0732"/><text fill="#0A9EFD" font-family="Arial" font-size="13" lengthAdjust="spacing" textLength="173" x="222.5" y="691.3184">Call the leave channel method</text><path d="M130.5,718.0732 L226.5,718.0732 L226.5,725.022 L216.5,735.022 L130.5,735.022 L130.5,718.0732 " fill="#EEEEEE" style="stroke:#0A9EFD;stroke-width:1.5;"/><rect fill="none" height="74.8462" style="stroke:#0A9EFD;stroke-width:2.0;" width="357" x="130.5" y="718.0732"/><text fill="#000000" font-family="Arial" font-size="13" lengthAdjust="spacing" textLength="51" x="145.5" y="731.2671">Clean up</text><polygon fill="#0A9EFD" points="432.5,751.9707,442.5,755.9707,432.5,759.9707,436.5,755.9707" style="stroke:#0A9EFD;stroke-width:1.0;"/><line style="stroke:#0A9EFD;stroke-width:2.0;" x1="173.5" x2="438.5" y1="755.9707" y2="755.9707"/><text fill="#0A9EFD" font-family="Arial" font-size="13" lengthAdjust="spacing" textLength="134" x="242" y="751.2158">Destroy the connection</text><polygon fill="#0A9EFD" points="432.5,780.9194,442.5,784.9194,432.5,788.9194,436.5,784.9194" style="stroke:#0A9EFD;stroke-width:1.0;"/><line style="stroke:#0A9EFD;stroke-width:2.0;" x1="173.5" x2="438.5" y1="784.9194" y2="784.9194"/><text fill="#0A9EFD" font-family="Arial" font-size="13" lengthAdjust="spacing" textLength="247" x="185.5" y="780.1646">Call the finish method to release resources</text><!--SRC=[XPFHRjim34NVzHMStxCF28O1RG8CsOgrYDi1UnfOYKdOAfGhoKNJhnzbUxEJPUrJ7FFot2kH_i1YVUi8S1iY_agFB1-vtNjJdXgCk8UQdbeIIrzYQ9lBu0wNQ1-t-aVS8lWG8KUKf5gIR0pQhA-gkqIn0anmLw-DkGylKFqCRGHicigeDhFb1YL3jGgtK2-_TUABcnj3ua3rGzD5YNNIKIzdwzllGyDgR2YP6esRGN-wHY3Pif1HBim-5_mSLfAoOXWpGTxH_uK5rB-6q6GEaiRoQWu_AFBc09ujITBxqnGih5pFhptvbAbDYqZ55y464RA5MlB_oVuri9JY3hNgZTxTtpGdfICeUjyPxYdlWeCSuE5VzQTPhxwMlZhK8BNMKafWbNAlavtcgSlTOkiuTETxPaVXoBhEEXZrrcDrlcbiS9ZnVMs7xBKJtpLPucSwQpqvnsWqfXySzUhcYX57SP1jT9Vfb33QlqdePJrX4lEAK4EUczPnvUom_5GoZ6uANwX0T9EFkfUKSWo73Z1PeRC66rt7j9iiHIH5wgf6Ilefwj0xkzy0]--></g></svg>