<svg xmlns="http://www.w3.org/2000/svg" xmlns:xlink="http://www.w3.org/1999/xlink" contentStyleType="text/css" data-diagram-type="SEQUENCE" height="1184px" preserveAspectRatio="none" style="width:573px;height:1184px;" version="1.1" viewBox="0 0 573 1184" width="573px" zoomAndPan="magnify"><?plantuml 1.2026.4?><defs/><g><rect fill="none" height="1182.5054" style="stroke:#0A9EFD;stroke-width:1;" width="571.3396" x="0" y="0"/><rect fill="#999999" fill-opacity="0.33333" height="1171.5054" style="stroke:#0A9EFD;stroke-width:0.5;" width="74.9033" x="205.7183" y="6"/><text fill="#0A9EFD" font-family="sans-serif" font-size="13" font-weight="700" lengthAdjust="spacing" textLength="56.3354" x="215.0022" y="19.4951">Your app</text><rect fill="#999999" fill-opacity="0.33333" height="1171.5054" style="stroke:#0A9EFD;stroke-width:0.5;" width="78.3257" x="473.0139" y="6"/><text fill="#0A9EFD" font-family="sans-serif" font-size="13" font-weight="700" lengthAdjust="spacing" textLength="37.5591" x="493.3972" y="19.4951">Agora</text><rect fill="none" height="173.6924" style="stroke:#0A9EFD;stroke-width:2;" width="357.6213" x="199.7183" y="103.0986"/><rect fill="none" height="189.6411" style="stroke:#0A9EFD;stroke-width:2;" width="547.3396" x="10" y="290.791"/><rect fill="none" height="103.7949" style="stroke:#0A9EFD;stroke-width:2;" width="547.3396" x="10" y="494.4321"/><rect fill="none" height="145.7437" style="stroke:#0A9EFD;stroke-width:2;" width="357.6213" x="199.7183" y="612.2271"/><rect fill="none" height="304.436" style="stroke:#0A9EFD;stroke-width:2;" width="547.3396" x="10" y="771.9707"/><g class="participant-lifeline" data-entity-uid="part1" data-qualified-name="USR" data-source-line="4" id="part1-lifeline"><g><title>User</title><rect fill="#000000" fill-opacity="0.00000" height="1007.3081" width="8" x="33.7793" y="86.0986"/><line style="stroke:#0A9EFD;stroke-width:0.5;stroke-dasharray:5,5;" x1="37" x2="37" y1="86.0986" y2="1093.4067"/></g></g><g class="participant-lifeline" data-entity-uid="part2" data-qualified-name="APP" data-source-line="7" id="part2-lifeline"><g><title>IoT SDK</title><rect fill="#000000" fill-opacity="0.00000" height="1007.3081" width="8" x="239.1699" y="86.0986"/><line style="stroke:#0A9EFD;stroke-width:0.5;stroke-dasharray:5,5;" x1="242.7183" x2="242.7183" y1="86.0986" y2="1093.4067"/></g></g><g class="participant-lifeline" data-entity-uid="part3" data-qualified-name="API" data-source-line="11" id="part3-lifeline"><g><title>SDRTN.sup....sup.</title><rect fill="#000000" fill-opacity="0.00000" height="1007.3081" width="8" x="508.1768" y="86.0986"/><line style="stroke:#0A9EFD;stroke-width:0.5;stroke-dasharray:5,5;" x1="512.0139" x2="512.0139" y1="86.0986" y2="1093.4067"/></g></g><g class="participant participant-head" data-entity-uid="part1" data-qualified-name="USR" data-source-line="4" id="part1-head"><text fill="#0A9EFD" font-family="Arial" font-size="14" lengthAdjust="spacing" textLength="29.5586" x="20" y="83.1318">User</text><ellipse cx="37.7793" cy="16" fill="none" rx="8" ry="8" style="stroke:#0A9EFD;stroke-width:3;"/><path d="M37.7793,24 L37.7793,51 M24.7793,32 L50.7793,32 M37.7793,51 L24.7793,66 M37.7793,51 L50.7793,66" fill="none" style="stroke:#0A9EFD;stroke-width:3;"/></g><g class="participant participant-tail" data-entity-uid="part1" data-qualified-name="USR" data-source-line="4" id="part1-tail"><text fill="#0A9EFD" font-family="Arial" font-size="14" lengthAdjust="spacing" textLength="29.5586" x="20" y="1105.5386">User</text><ellipse cx="37.7793" cy="1119.5054" fill="none" rx="8" ry="8" style="stroke:#0A9EFD;stroke-width:3;"/><path d="M37.7793,1127.5054 L37.7793,1154.5054 M24.7793,1135.5054 L50.7793,1135.5054 M37.7793,1154.5054 L24.7793,1169.5054 M37.7793,1154.5054 L50.7793,1169.5054" fill="none" style="stroke:#0A9EFD;stroke-width:3;"/></g><g class="participant participant-head" data-entity-uid="part2" data-qualified-name="APP" data-source-line="7" id="part2-head"><rect fill="none" height="30.0986" rx="2.5" ry="2.5" style="stroke:#0A9EFD;stroke-width:2;" width="66.9033" x="209.7183" y="55"/><text fill="#0A9EFD" font-family="Arial" font-size="14" lengthAdjust="spacing" textLength="52.9033" x="216.7183" y="75.1318">IoT SDK</text></g><g class="participant participant-tail" data-entity-uid="part2" data-qualified-name="APP" data-source-line="7" id="part2-tail"><rect fill="none" height="30.0986" rx="2.5" ry="2.5" style="stroke:#0A9EFD;stroke-width:2;" width="66.9033" x="209.7183" y="1092.4067"/><text fill="#0A9EFD" font-family="Arial" font-size="14" lengthAdjust="spacing" textLength="52.9033" x="216.7183" y="1112.5386">IoT SDK</text></g><g class="participant participant-head" data-entity-uid="part3" data-qualified-name="API" data-source-line="11" id="part3-head"><rect fill="none" height="32.6489" rx="2.5" ry="2.5" style="stroke:#0A9EFD;stroke-width:2;" width="70.3257" x="477.0139" y="52.4497"/><text fill="#0A9EFD" font-family="Arial" font-size="14" lengthAdjust="spacing" textLength="48.2207" x="484.0139" y="75.1318">SDRTN</text><text fill="#0A9EFD" font-family="Arial" font-size="11" lengthAdjust="spacing" textLength="8.105" x="532.2346" y="69.7676">&#174;</text></g><g class="participant participant-tail" data-entity-uid="part3" data-qualified-name="API" data-source-line="11" id="part3-tail"><rect fill="none" height="32.6489" rx="2.5" ry="2.5" style="stroke:#0A9EFD;stroke-width:2;" width="70.3257" x="477.0139" y="1092.4067"/><text fill="#0A9EFD" font-family="Arial" font-size="14" lengthAdjust="spacing" textLength="48.2207" x="484.0139" y="1115.0889">SDRTN</text><text fill="#0A9EFD" font-family="Arial" font-size="11" lengthAdjust="spacing" textLength="8.105" x="532.2346" y="1109.7246">&#174;</text></g><path d="M199.7183,103.0986 L359.6426,103.0986 L359.6426,110.0474 L349.6426,120.0474 L199.7183,120.0474 L199.7183,103.0986" fill="#EEEEEE" style="stroke:#0A9EFD;stroke-width:1.5;"/><rect fill="none" height="173.6924" style="stroke:#0A9EFD;stroke-width:2;" width="357.6213" x="199.7183" y="103.0986"/><text fill="#000000" font-family="Arial" font-size="13" lengthAdjust="spacing" textLength="114.9243" x="214.7183" y="116.2925">Setup Agora engine</text><g class="message" data-entity-1="part2" data-entity-2="part2" data-source-line="15" id="msg1"><line style="stroke:#0A9EFD;stroke-width:2;" x1="243.1699" x2="285.1699" y1="140.9961" y2="140.9961"/><line style="stroke:#0A9EFD;stroke-width:2;" x1="285.1699" x2="285.1699" y1="140.9961" y2="153.9961"/><line style="stroke:#0A9EFD;stroke-width:2;" x1="244.1699" x2="285.1699" y1="153.9961" y2="153.9961"/><polygon fill="#0A9EFD" points="254.1699,149.9961,244.1699,153.9961,254.1699,157.9961,250.1699,153.9961" style="stroke:#0A9EFD;stroke-width:1;stroke-linejoin:miter;stroke-miterlimit:10;"/><text fill="#0A9EFD" font-family="Arial" font-size="13" lengthAdjust="spacing" textLength="192.9497" x="250.1699" y="136.2412">Instantiate the Agora RTC engine</text></g><g class="message" data-entity-1="part2" data-entity-2="part2" data-source-line="16" id="msg2"><line style="stroke:#0A9EFD;stroke-width:2;" x1="243.1699" x2="285.1699" y1="197.8936" y2="197.8936"/><line style="stroke:#0A9EFD;stroke-width:2;" x1="285.1699" x2="285.1699" y1="197.8936" y2="210.8936"/><line style="stroke:#0A9EFD;stroke-width:2;" x1="244.1699" x2="285.1699" y1="210.8936" y2="210.8936"/><polygon fill="#0A9EFD" points="254.1699,206.8936,244.1699,210.8936,254.1699,214.8936,250.1699,210.8936" style="stroke:#0A9EFD;stroke-width:1;stroke-linejoin:miter;stroke-miterlimit:10;"/><text fill="#0A9EFD" font-family="Arial" font-size="13" lengthAdjust="spacing" textLength="119.9707" x="275.8303" y="178.1899">Set options including</text><text fill="#0A9EFD" font-family="Arial" font-size="13" lengthAdjust="spacing" textLength="167.6797" x="253.7817" y="193.1387">log file path and logging level</text></g><g class="message" data-entity-1="part2" data-entity-2="part3" data-source-line="17" id="msg3"><polygon fill="#0A9EFD" points="500.1768,235.8423,510.1768,239.8423,500.1768,243.8423,504.1768,239.8423" style="stroke:#0A9EFD;stroke-width:1;stroke-linejoin:miter;stroke-miterlimit:10;"/><line style="stroke:#0A9EFD;stroke-width:2;" x1="243.1699" x2="506.1768" y1="239.8423" y2="239.8423"/><text fill="#0A9EFD" font-family="Arial" font-size="13" lengthAdjust="spacing" textLength="216.7979" x="269.2744" y="235.0874">Verify license and initialize the engine</text></g><g class="message" data-entity-1="part2" data-entity-2="part3" data-source-line="18" id="msg4"><polygon fill="#0A9EFD" points="500.1768,264.791,510.1768,268.791,500.1768,272.791,504.1768,268.791" style="stroke:#0A9EFD;stroke-width:1;stroke-linejoin:miter;stroke-miterlimit:10;"/><line style="stroke:#0A9EFD;stroke-width:2;" x1="243.1699" x2="506.1768" y1="268.791" y2="268.791"/><text fill="#0A9EFD" font-family="Arial" font-size="13" lengthAdjust="spacing" textLength="116.3525" x="319.4971" y="264.0361">Create a connection</text></g><path d="M10,290.791 L138.8398,290.791 L138.8398,297.7397 L128.8398,307.7397 L10,307.7397 L10,290.791" fill="#EEEEEE" style="stroke:#0A9EFD;stroke-width:1.5;"/><rect fill="none" height="189.6411" style="stroke:#0A9EFD;stroke-width:2;" width="547.3396" x="10" y="290.791"/><text fill="#000000" font-family="Arial" font-size="13" lengthAdjust="spacing" textLength="83.8398" x="25" y="303.9849">Join a channel</text><g class="message" data-entity-1="part1" data-entity-2="part2" data-source-line="22" id="msg5"><polygon fill="#0A9EFD" points="231.1699,324.6885,241.1699,328.6885,231.1699,332.6885,235.1699,328.6885" style="stroke:#0A9EFD;stroke-width:1;stroke-linejoin:miter;stroke-miterlimit:10;"/><line style="stroke:#0A9EFD;stroke-width:2;" x1="37.7793" x2="237.1699" y1="328.6885" y2="328.6885"/><text fill="#0A9EFD" font-family="Arial" font-size="13" lengthAdjust="spacing" textLength="83.8398" x="98.5547" y="323.9336">Join a channel</text></g><g class="message" data-entity-1="part2" data-entity-2="part3" data-source-line="23" id="msg6"><polygon fill="#0A9EFD" points="500.1768,353.6372,510.1768,357.6372,500.1768,361.6372,504.1768,357.6372" style="stroke:#0A9EFD;stroke-width:1;stroke-linejoin:miter;stroke-miterlimit:10;"/><line style="stroke:#0A9EFD;stroke-width:2;" x1="243.1699" x2="506.1768" y1="357.6372" y2="357.6372"/><text fill="#0A9EFD" font-family="Arial" font-size="13" lengthAdjust="spacing" textLength="214.6143" x="270.3662" y="352.8823">Set bandwidth estimation parameters</text></g><g class="message" data-entity-1="part2" data-entity-2="part2" data-source-line="24" id="msg7"><line style="stroke:#0A9EFD;stroke-width:2;" x1="243.1699" x2="285.1699" y1="401.5347" y2="401.5347"/><line style="stroke:#0A9EFD;stroke-width:2;" x1="285.1699" x2="285.1699" y1="401.5347" y2="414.5347"/><line style="stroke:#0A9EFD;stroke-width:2;" x1="244.1699" x2="285.1699" y1="414.5347" y2="414.5347"/><polygon fill="#0A9EFD" points="254.1699,410.5347,244.1699,414.5347,254.1699,418.5347,250.1699,414.5347" style="stroke:#0A9EFD;stroke-width:1;stroke-linejoin:miter;stroke-miterlimit:10;"/><text fill="#0A9EFD" font-family="Arial" font-size="13" lengthAdjust="spacing" textLength="226.9097" x="250.1699" y="381.8311">Specify the audio codec, sampling rate,</text><text fill="#0A9EFD" font-family="Arial" font-size="13" lengthAdjust="spacing" textLength="161.167" x="284.8472" y="396.7798">and the number of channels</text></g><g class="message" data-entity-1="part2" data-entity-2="part3" data-source-line="25" id="msg8"><polygon fill="#0A9EFD" points="500.1768,439.4834,510.1768,443.4834,500.1768,447.4834,504.1768,443.4834" style="stroke:#0A9EFD;stroke-width:1;stroke-linejoin:miter;stroke-miterlimit:10;"/><line style="stroke:#0A9EFD;stroke-width:2;" x1="243.1699" x2="506.1768" y1="443.4834" y2="443.4834"/><text fill="#0A9EFD" font-family="Arial" font-size="13" lengthAdjust="spacing" textLength="164.0488" x="295.6489" y="438.7285">Call the join channel method</text></g><g class="message" data-entity-1="part3" data-entity-2="part2" data-source-line="26" id="msg9"><polygon fill="#0A9EFD" points="254.1699,468.4321,244.1699,472.4321,254.1699,476.4321,250.1699,472.4321" style="stroke:#0A9EFD;stroke-width:1;stroke-linejoin:miter;stroke-miterlimit:10;"/><line style="stroke:#0A9EFD;stroke-width:2;" x1="248.1699" x2="511.1768" y1="472.4321" y2="472.4321"/><text fill="#0A9EFD" font-family="Arial" font-size="13" lengthAdjust="spacing" textLength="188.6079" x="283.3694" y="467.6772">on join channel success callback</text></g><path d="M10,494.4321 L251.5933,494.4321 L251.5933,501.3809 L241.5933,511.3809 L10,511.3809 L10,494.4321" fill="#EEEEEE" style="stroke:#0A9EFD;stroke-width:1.5;"/><rect fill="none" height="103.7949" style="stroke:#0A9EFD;stroke-width:2;" width="547.3396" x="10" y="494.4321"/><text fill="#000000" font-family="Arial" font-size="13" lengthAdjust="spacing" textLength="196.5933" x="25" y="507.626">Send and receive audio and video</text><g class="message" data-entity-1="part2" data-entity-2="part3" data-source-line="30" id="msg10"><polygon fill="#0A9EFD" points="500.1768,528.3296,510.1768,532.3296,500.1768,536.3296,504.1768,532.3296" style="stroke:#0A9EFD;stroke-width:1;stroke-linejoin:miter;stroke-miterlimit:10;"/><line style="stroke:#0A9EFD;stroke-width:2;" x1="243.1699" x2="506.1768" y1="532.3296" y2="532.3296"/><text fill="#0A9EFD" font-family="Arial" font-size="13" lengthAdjust="spacing" textLength="245.0068" x="255.1699" y="527.5747">Start threads to send audio and video data</text></g><g class="message" data-entity-1="part3" data-entity-2="part2" data-source-line="31" id="msg11"><polygon fill="#0A9EFD" points="254.1699,557.2783,244.1699,561.2783,254.1699,565.2783,250.1699,561.2783" style="stroke:#0A9EFD;stroke-width:1;stroke-linejoin:miter;stroke-miterlimit:10;"/><line style="stroke:#0A9EFD;stroke-width:2;" x1="248.1699" x2="511.1768" y1="561.2783" y2="561.2783"/><text fill="#0A9EFD" font-family="Arial" font-size="13" lengthAdjust="spacing" textLength="171.2915" x="292.0276" y="556.5234">Receive audio and video data</text></g><g class="message" data-entity-1="part2" data-entity-2="part1" data-source-line="32" id="msg12"><polygon fill="#0A9EFD" points="48.7793,586.2271,38.7793,590.2271,48.7793,594.2271,44.7793,590.2271" style="stroke:#0A9EFD;stroke-width:1;stroke-linejoin:miter;stroke-miterlimit:10;"/><line style="stroke:#0A9EFD;stroke-width:2;" x1="42.7793" x2="242.1699" y1="590.2271" y2="590.2271"/><text fill="#0A9EFD" font-family="Arial" font-size="13" lengthAdjust="spacing" textLength="181.3906" x="49.7793" y="585.4722">Render audio and video frames</text></g><path d="M199.7183,612.2271 L537.4087,612.2271 L537.4087,619.1758 L527.4087,629.1758 L199.7183,629.1758 L199.7183,612.2271" fill="#EEEEEE" style="stroke:#0A9EFD;stroke-width:1.5;"/><rect fill="none" height="145.7437" style="stroke:#0A9EFD;stroke-width:2;" width="357.6213" x="199.7183" y="612.2271"/><text fill="#000000" font-family="Arial" font-size="13" lengthAdjust="spacing" textLength="292.6904" x="214.7183" y="625.4209">Detect and respond to network bandwidth changes</text><g class="message" data-entity-1="part3" data-entity-2="part2" data-source-line="36" id="msg13"><polygon fill="#0A9EFD" points="254.1699,646.1245,244.1699,650.1245,254.1699,654.1245,250.1699,650.1245" style="stroke:#0A9EFD;stroke-width:1;stroke-linejoin:miter;stroke-miterlimit:10;"/><line style="stroke:#0A9EFD;stroke-width:2;" x1="248.1699" x2="511.1768" y1="650.1245" y2="650.1245"/><text fill="#0A9EFD" font-family="Arial" font-size="13" lengthAdjust="spacing" textLength="198.0088" x="278.6689" y="645.3696">On target bitrate changed callback</text></g><g class="message" data-entity-1="part2" data-entity-2="part2" data-source-line="37" id="msg14"><line style="stroke:#0A9EFD;stroke-width:2;" x1="243.1699" x2="285.1699" y1="679.0732" y2="679.0732"/><line style="stroke:#0A9EFD;stroke-width:2;" x1="285.1699" x2="285.1699" y1="679.0732" y2="692.0732"/><line style="stroke:#0A9EFD;stroke-width:2;" x1="244.1699" x2="285.1699" y1="692.0732" y2="692.0732"/><polygon fill="#0A9EFD" points="254.1699,688.0732,244.1699,692.0732,254.1699,696.0732,250.1699,692.0732" style="stroke:#0A9EFD;stroke-width:1;stroke-linejoin:miter;stroke-miterlimit:10;"/><text fill="#0A9EFD" font-family="Arial" font-size="13" lengthAdjust="spacing" textLength="235.5996" x="250.1699" y="674.3184">Adjust the sending bit rate and resolution</text></g><g class="message" data-entity-1="part3" data-entity-2="part2" data-source-line="38" id="msg15"><polygon fill="#0A9EFD" points="254.1699,717.022,244.1699,721.022,254.1699,725.022,250.1699,721.022" style="stroke:#0A9EFD;stroke-width:1;stroke-linejoin:miter;stroke-miterlimit:10;"/><line style="stroke:#0A9EFD;stroke-width:2;" x1="248.1699" x2="511.1768" y1="721.022" y2="721.022"/><text fill="#0A9EFD" font-family="Arial" font-size="13" lengthAdjust="spacing" textLength="240.627" x="257.3599" y="716.2671">On key frame generation request callback</text></g><g class="message" data-entity-1="part2" data-entity-2="part3" data-source-line="39" id="msg16"><polygon fill="#0A9EFD" points="500.1768,745.9707,510.1768,749.9707,500.1768,753.9707,504.1768,749.9707" style="stroke:#0A9EFD;stroke-width:1;stroke-linejoin:miter;stroke-miterlimit:10;"/><line style="stroke:#0A9EFD;stroke-width:2;" x1="243.1699" x2="506.1768" y1="749.9707" y2="749.9707"/><text fill="#0A9EFD" font-family="Arial" font-size="13" lengthAdjust="spacing" textLength="101.8862" x="326.7302" y="745.2158">Send a key frame</text></g><path d="M10,771.9707 L247.2324,771.9707 L247.2324,778.9194 L237.2324,788.9194 L10,788.9194 L10,771.9707" fill="#EEEEEE" style="stroke:#0A9EFD;stroke-width:1.5;"/><rect fill="none" height="304.436" style="stroke:#0A9EFD;stroke-width:2;" width="547.3396" x="10" y="771.9707"/><text fill="#000000" font-family="Arial" font-size="13" lengthAdjust="spacing" textLength="192.2324" x="25" y="785.1646">Manage audio and video streams</text><g class="message" data-entity-1="part1" data-entity-2="part2" data-source-line="43" id="msg17"><polygon fill="#0A9EFD" points="231.1699,805.8682,241.1699,809.8682,231.1699,813.8682,235.1699,809.8682" style="stroke:#0A9EFD;stroke-width:1;stroke-linejoin:miter;stroke-miterlimit:10;"/><line style="stroke:#0A9EFD;stroke-width:2;" x1="37.7793" x2="237.1699" y1="809.8682" y2="809.8682"/><text fill="#0A9EFD" font-family="Arial" font-size="13" lengthAdjust="spacing" textLength="144.5298" x="68.2097" y="805.1133">Mute local audio or video</text></g><g class="message" data-entity-1="part2" data-entity-2="part3" data-source-line="44" id="msg18"><polygon fill="#0A9EFD" points="500.1768,849.7656,510.1768,853.7656,500.1768,857.7656,504.1768,853.7656" style="stroke:#0A9EFD;stroke-width:1;stroke-linejoin:miter;stroke-miterlimit:10;"/><line style="stroke:#0A9EFD;stroke-width:2;" x1="243.1699" x2="506.1768" y1="853.7656" y2="853.7656"/><text fill="#0A9EFD" font-family="Arial" font-size="13" lengthAdjust="spacing" textLength="135.8462" x="307.9443" y="834.062">Call mute local audio or</text><text fill="#0A9EFD" font-family="Arial" font-size="13" lengthAdjust="spacing" textLength="93.939" x="332.5098" y="849.0107">mute local video</text></g><g class="message" data-entity-1="part1" data-entity-2="part2" data-source-line="45" id="msg19"><polygon fill="#0A9EFD" points="231.1699,878.7144,241.1699,882.7144,231.1699,886.7144,235.1699,882.7144" style="stroke:#0A9EFD;stroke-width:1;stroke-linejoin:miter;stroke-miterlimit:10;"/><line style="stroke:#0A9EFD;stroke-width:2;" x1="37.7793" x2="237.1699" y1="882.7144" y2="882.7144"/><text fill="#0A9EFD" font-family="Arial" font-size="13" lengthAdjust="spacing" textLength="158.2534" x="61.3479" y="877.9595">Mute remote audio or video</text></g><g class="message" data-entity-1="part2" data-entity-2="part3" data-source-line="46" id="msg20"><polygon fill="#0A9EFD" points="500.1768,922.6118,510.1768,926.6118,500.1768,930.6118,504.1768,926.6118" style="stroke:#0A9EFD;stroke-width:1;stroke-linejoin:miter;stroke-miterlimit:10;"/><line style="stroke:#0A9EFD;stroke-width:2;" x1="243.1699" x2="506.1768" y1="926.6118" y2="926.6118"/><text fill="#0A9EFD" font-family="Arial" font-size="13" lengthAdjust="spacing" textLength="149.5698" x="301.0825" y="906.9082">Call mute remote audio or</text><text fill="#0A9EFD" font-family="Arial" font-size="13" lengthAdjust="spacing" textLength="107.6626" x="325.6479" y="921.8569">mute remote video</text></g><g class="message" data-entity-1="part3" data-entity-2="part2" data-source-line="47" id="msg21"><polygon fill="#0A9EFD" points="254.1699,951.5605,244.1699,955.5605,254.1699,959.5605,250.1699,955.5605" style="stroke:#0A9EFD;stroke-width:1;stroke-linejoin:miter;stroke-miterlimit:10;"/><line style="stroke:#0A9EFD;stroke-width:2;" x1="248.1699" x2="511.1768" y1="955.5605" y2="955.5605"/><text fill="#0A9EFD" font-family="Arial" font-size="13" lengthAdjust="spacing" textLength="164.7534" x="295.2966" y="950.8057">On user mute audio callback</text></g><g class="message" data-entity-1="part2" data-entity-2="part2" data-source-line="48" id="msg22"><line style="stroke:#0A9EFD;stroke-width:2;" x1="243.1699" x2="285.1699" y1="984.5093" y2="984.5093"/><line style="stroke:#0A9EFD;stroke-width:2;" x1="285.1699" x2="285.1699" y1="984.5093" y2="997.5093"/><line style="stroke:#0A9EFD;stroke-width:2;" x1="244.1699" x2="285.1699" y1="997.5093" y2="997.5093"/><polygon fill="#0A9EFD" points="254.1699,993.5093,244.1699,997.5093,254.1699,1001.5093,250.1699,997.5093" style="stroke:#0A9EFD;stroke-width:1;stroke-linejoin:miter;stroke-miterlimit:10;"/><text fill="#0A9EFD" font-family="Arial" font-size="13" lengthAdjust="spacing" textLength="177.7852" x="250.1699" y="979.7544">Suspend or resume audio feed</text></g><g class="message" data-entity-1="part3" data-entity-2="part2" data-source-line="49" id="msg23"><polygon fill="#0A9EFD" points="254.1699,1022.458,244.1699,1026.458,254.1699,1030.458,250.1699,1026.458" style="stroke:#0A9EFD;stroke-width:1;stroke-linejoin:miter;stroke-miterlimit:10;"/><line style="stroke:#0A9EFD;stroke-width:2;" x1="248.1699" x2="511.1768" y1="1026.458" y2="1026.458"/><text fill="#0A9EFD" font-family="Arial" font-size="13" lengthAdjust="spacing" textLength="164.0234" x="295.6616" y="1021.7031">On user mute video callback</text></g><g class="message" data-entity-1="part2" data-entity-2="part2" data-source-line="50" id="msg24"><line style="stroke:#0A9EFD;stroke-width:2;" x1="243.1699" x2="285.1699" y1="1055.4067" y2="1055.4067"/><line style="stroke:#0A9EFD;stroke-width:2;" x1="285.1699" x2="285.1699" y1="1055.4067" y2="1068.4067"/><line style="stroke:#0A9EFD;stroke-width:2;" x1="244.1699" x2="285.1699" y1="1068.4067" y2="1068.4067"/><polygon fill="#0A9EFD" points="254.1699,1064.4067,244.1699,1068.4067,254.1699,1072.4067,250.1699,1068.4067" style="stroke:#0A9EFD;stroke-width:1;stroke-linejoin:miter;stroke-miterlimit:10;"/><text fill="#0A9EFD" font-family="Arial" font-size="13" lengthAdjust="spacing" textLength="177.0552" x="250.1699" y="1050.6519">Suspend or resume video feed</text></g><?plantuml-src ZLJBRjim4BphAxO-vt4FWW1E0WHkaJQmam852XGqkPOPKoJBXzFqe_eH_RBkKb8isIwGYn_axEpip4eVj9KcAuIpi_EjLkXEezgSYze5yIDkj3tJkJ4L__8YY0OM-3EZbNWNNFRNJhrU2xcfwOzLDywu02a86mcBDbMLa8cE9ayHmmH4XAV5lAgMxXTClhaSG7W_gGYRjDHUs0IJcNk4nUsd0fu-F5He5H2-AvgohBsAnUtyyVDbpFxgxv_BS_xkYcUxOjRdINgYpy81Q6jjiQ8MS7h5dIvWPcCYHYqIGbfZ1vm_tXm34nSudxIp4Le7jQs_Mp2kXfKs25waDGWIG2TKNOF1BPeTn-m2lcBGgrSmMgADMC3QQX9WzEzMmdvZAhe9o085I6SjIbR0S_OpVdJQykLQqAsfoEytoNjNGrAUPadzNxGYrHYJRWGpGyaS4uOudjwZPEciKT3eZjGeb2SGHUCDJnj8v0dvmKCnokPcYG7SgkyVnrC9OmhkcKLs4A3EQwSAyFAq1PAc4IHcAJ56a4Imf4qSUh7W_5b0G8bwsqlbaxBfOmiIBHL987jLXEGWbkfn1IYHn4ZF_3Zr3aZy5083hI83zd4hzZSELT-ItJ9rkgDtRA03Y-d5XSqW9NQWHhPnzfRB5miqHirfwiGHT2YrysSOurGzvvYAxpmjvqPr9Rk-lpEvhDXUbms-jjAXHekXNPR0hmRYE-nLLepjt1KEHxuNLjI77iP4OJHnjCJtcRGPHoqwEBrU3iCiwzGSWT963exRmWFwW8rB-3x-VMpVe3lVbVOBG-PbUXksgExPEPRD8aVFbX4dnP2R7hn2LFydR8rx9s6tWKp8OVm3?></g></svg>