<?xml version="1.0" encoding="us-ascii" standalone="no"?><svg xmlns="http://www.w3.org/2000/svg" xmlns:xlink="http://www.w3.org/1999/xlink" contentStyleType="text/css" height="1135px" preserveAspectRatio="none" style="width:470px;height:1135px;" version="1.1" viewBox="0 0 470 1135" width="470px" zoomAndPan="magnify"><defs/><g><rect fill="none" height="1133.4028" style="stroke:#0A9EFD;stroke-width:1.0;" width="468" x="0" y="0"/><rect fill="#999999" fill-opacity="0.33333" height="1123.4028" style="stroke:#0A9EFD;stroke-width:0.5;" width="75" x="108.5" y="6"/><text fill="#0A9EFD" font-family="sans-serif" font-size="13" font-weight="bold" lengthAdjust="spacing" textLength="62" x="115" y="18.5684">Your app</text><rect fill="#999999" fill-opacity="0.33333" height="1123.4028" style="stroke:#0A9EFD;stroke-width:0.5;" width="80" x="378" y="6"/><text fill="#0A9EFD" font-family="sans-serif" font-size="13" font-weight="bold" lengthAdjust="spacing" textLength="41" x="397.5" y="18.5684">Agora</text><rect fill="none" height="129.7949" style="stroke:#0A9EFD;stroke-width:2.0;" width="361.5" x="102.5" y="103.0986"/><rect fill="none" height="74.8462" style="stroke:#0A9EFD;stroke-width:2.0;" width="361.5" x="102.5" y="246.8936"/><rect fill="none" height="191.5898" style="stroke:#0A9EFD;stroke-width:2.0;" width="454" x="10" y="335.7397"/><rect fill="none" height="221.4873" style="stroke:#0A9EFD;stroke-width:2.0;" width="454" x="10" y="541.3296"/><rect fill="none" height="103.7949" style="stroke:#0A9EFD;stroke-width:2.0;" width="454" x="10" y="776.8169"/><rect fill="none" height="133.6924" style="stroke:#0A9EFD;stroke-width:2.0;" width="361.5" x="102.5" y="894.6118"/><line style="stroke:#0A9EFD;stroke-width:0.5;stroke-dasharray:5.0,5.0;" x1="38" x2="38" y1="86.0986" y2="1045.3042"/><line style="stroke:#0A9EFD;stroke-width:0.5;stroke-dasharray:5.0,5.0;" x1="145.5" x2="145.5" y1="86.0986" y2="1045.3042"/><line style="stroke:#0A9EFD;stroke-width:0.5;stroke-dasharray:5.0,5.0;" x1="418" x2="418" y1="86.0986" y2="1045.3042"/><text fill="#0A9EFD" font-family="Arial" font-size="14" lengthAdjust="spacing" textLength="30" x="20" y="83.1318">User</text><ellipse cx="38" cy="16" fill="none" rx="8" ry="8" style="stroke:#0A9EFD;stroke-width:3.0;"/><path d="M38,24 L38,51 M25,32 L51,32 M38,51 L25,66 M38,51 L51,66 " fill="none" style="stroke:#0A9EFD;stroke-width:3.0;"/><text fill="#0A9EFD" font-family="Arial" font-size="14" lengthAdjust="spacing" textLength="30" x="20" y="1057.436">User</text><ellipse cx="38" cy="1071.4028" fill="none" rx="8" ry="8" style="stroke:#0A9EFD;stroke-width:3.0;"/><path d="M38,1079.4028 L38,1106.4028 M25,1087.4028 L51,1087.4028 M38,1106.4028 L25,1121.4028 M38,1106.4028 L51,1121.4028 " fill="none" style="stroke:#0A9EFD;stroke-width:3.0;"/><rect fill="none" height="30.0986" rx="2.5" ry="2.5" style="stroke:#0A9EFD;stroke-width:2.0;" width="67" x="112.5" y="55"/><text fill="#0A9EFD" font-family="Arial" font-size="14" lengthAdjust="spacing" textLength="53" x="119.5" y="75.1318">IoT SDK</text><rect fill="none" height="30.0986" rx="2.5" ry="2.5" style="stroke:#0A9EFD;stroke-width:2.0;" width="67" x="112.5" y="1044.3042"/><text fill="#0A9EFD" font-family="Arial" font-size="14" lengthAdjust="spacing" textLength="53" x="119.5" y="1064.436">IoT SDK</text><rect fill="none" height="30.0986" rx="2.5" ry="2.5" style="stroke:#0A9EFD;stroke-width:2.0;" width="72" x="382" y="55"/><text fill="#0A9EFD" font-family="Arial" font-size="14" lengthAdjust="spacing" textLength="58" x="389" y="75.1318">SDRTN&#174;</text><rect fill="none" height="30.0986" rx="2.5" ry="2.5" style="stroke:#0A9EFD;stroke-width:2.0;" width="72" x="382" y="1044.3042"/><text fill="#0A9EFD" font-family="Arial" font-size="14" lengthAdjust="spacing" textLength="58" x="389" y="1064.436">SDRTN&#174;</text><path d="M102.5,103.0986 L261.5,103.0986 L261.5,110.0474 L251.5,120.0474 L102.5,120.0474 L102.5,103.0986 " fill="#EEEEEE" style="stroke:#0A9EFD;stroke-width:1.5;"/><rect fill="none" height="129.7949" style="stroke:#0A9EFD;stroke-width:2.0;" width="361.5" x="102.5" y="103.0986"/><text fill="#000000" font-family="Arial" font-size="13" lengthAdjust="spacing" textLength="114" x="117.5" y="116.2925">Setup Agora engine</text><line style="stroke:#0A9EFD;stroke-width:2.0;" x1="146" x2="188" y1="140.9961" y2="140.9961"/><line style="stroke:#0A9EFD;stroke-width:2.0;" x1="188" x2="188" y1="140.9961" y2="153.9961"/><line style="stroke:#0A9EFD;stroke-width:2.0;" x1="147" x2="188" y1="153.9961" y2="153.9961"/><polygon fill="#0A9EFD" points="157,149.9961,147,153.9961,157,157.9961,153,153.9961" style="stroke:#0A9EFD;stroke-width:1.0;"/><text fill="#0A9EFD" font-family="Arial" font-size="13" lengthAdjust="spacing" textLength="163" x="153" y="136.2412">Instantiate the Agora engine</text><line style="stroke:#0A9EFD;stroke-width:2.0;" x1="146" x2="188" y1="182.9448" y2="182.9448"/><line style="stroke:#0A9EFD;stroke-width:2.0;" x1="188" x2="188" y1="182.9448" y2="195.9448"/><line style="stroke:#0A9EFD;stroke-width:2.0;" x1="147" x2="188" y1="195.9448" y2="195.9448"/><polygon fill="#0A9EFD" points="157,191.9448,147,195.9448,157,199.9448,153,195.9448" style="stroke:#0A9EFD;stroke-width:1.0;"/><text fill="#0A9EFD" font-family="Arial" font-size="13" lengthAdjust="spacing" textLength="108" x="153" y="178.1899">Set engine options</text><polygon fill="#0A9EFD" points="406,220.8936,416,224.8936,406,228.8936,410,224.8936" style="stroke:#0A9EFD;stroke-width:1.0;"/><line style="stroke:#0A9EFD;stroke-width:2.0;" x1="146" x2="412" y1="224.8936" y2="224.8936"/><text fill="#0A9EFD" font-family="Arial" font-size="13" lengthAdjust="spacing" textLength="155" x="204.5" y="220.1387">Verify license and initialize</text><path d="M102.5,246.8936 L308.5,246.8936 L308.5,253.8423 L298.5,263.8423 L102.5,263.8423 L102.5,246.8936 " fill="#EEEEEE" style="stroke:#0A9EFD;stroke-width:1.5;"/><rect fill="none" height="74.8462" style="stroke:#0A9EFD;stroke-width:2.0;" width="361.5" x="102.5" y="246.8936"/><text fill="#000000" font-family="Arial" font-size="13" lengthAdjust="spacing" textLength="161" x="117.5" y="260.0874">Create multiple connections</text><polygon fill="#0A9EFD" points="406,280.791,416,284.791,406,288.791,410,284.791" style="stroke:#0A9EFD;stroke-width:1.0;"/><line style="stroke:#0A9EFD;stroke-width:2.0;" x1="146" x2="412" y1="284.791" y2="284.791"/><text fill="#0A9EFD" font-family="Arial" font-size="13" lengthAdjust="spacing" textLength="116" x="224" y="280.0361">Create connection-1</text><polygon fill="#0A9EFD" points="406,309.7397,416,313.7397,406,317.7397,410,313.7397" style="stroke:#0A9EFD;stroke-width:1.0;"/><line style="stroke:#0A9EFD;stroke-width:2.0;" x1="146" x2="412" y1="313.7397" y2="313.7397"/><text fill="#0A9EFD" font-family="Arial" font-size="13" lengthAdjust="spacing" textLength="116" x="224" y="308.9849">Create connection-2</text><path d="M10,335.7397 L217,335.7397 L217,342.6885 L207,352.6885 L10,352.6885 L10,335.7397 " fill="#EEEEEE" style="stroke:#0A9EFD;stroke-width:1.5;"/><rect fill="none" height="191.5898" style="stroke:#0A9EFD;stroke-width:2.0;" width="454" x="10" y="335.7397"/><text fill="#000000" font-family="Arial" font-size="13" lengthAdjust="spacing" textLength="162" x="25" y="348.9336">Stream to multiple channels</text><polygon fill="#0A9EFD" points="134,369.6372,144,373.6372,134,377.6372,138,373.6372" style="stroke:#0A9EFD;stroke-width:1.0;"/><line style="stroke:#0A9EFD;stroke-width:2.0;" x1="38" x2="140" y1="373.6372" y2="373.6372"/><text fill="#0A9EFD" font-family="Arial" font-size="13" lengthAdjust="spacing" textLength="80" x="52" y="368.8823">Join channels</text><polygon fill="#0A9EFD" points="406,398.5859,416,402.5859,406,406.5859,410,402.5859" style="stroke:#0A9EFD;stroke-width:1.0;"/><line style="stroke:#0A9EFD;stroke-width:2.0;" x1="146" x2="412" y1="402.5859" y2="402.5859"/><text fill="#0A9EFD" font-family="Arial" font-size="13" lengthAdjust="spacing" textLength="208" x="178" y="397.8311">Join channel-1 using connectionId-1</text><polygon fill="#0A9EFD" points="406,427.5347,416,431.5347,406,435.5347,410,431.5347" style="stroke:#0A9EFD;stroke-width:1.0;"/><line style="stroke:#0A9EFD;stroke-width:2.0;" x1="146" x2="412" y1="431.5347" y2="431.5347"/><text fill="#0A9EFD" font-family="Arial" font-size="13" lengthAdjust="spacing" textLength="208" x="178" y="426.7798">Join channel-2 using connectionId-2</text><polygon fill="#0A9EFD" points="406,471.4321,416,475.4321,406,479.4321,410,475.4321" style="stroke:#0A9EFD;stroke-width:1.0;"/><line style="stroke:#0A9EFD;stroke-width:2.0;" x1="146" x2="412" y1="475.4321" y2="475.4321"/><text fill="#0A9EFD" font-family="Arial" font-size="13" lengthAdjust="spacing" textLength="189" x="185.5" y="455.7285">Send audio and video data using</text><text fill="#0A9EFD" font-family="Arial" font-size="13" lengthAdjust="spacing" textLength="219" x="172.5" y="470.6772">connectionId-1 to stream to channel-1</text><polygon fill="#0A9EFD" points="406,515.3296,416,519.3296,406,523.3296,410,519.3296" style="stroke:#0A9EFD;stroke-width:1.0;"/><line style="stroke:#0A9EFD;stroke-width:2.0;" x1="146" x2="412" y1="519.3296" y2="519.3296"/><text fill="#0A9EFD" font-family="Arial" font-size="13" lengthAdjust="spacing" textLength="189" x="185.5" y="499.626">Send audio and video data using</text><text fill="#0A9EFD" font-family="Arial" font-size="13" lengthAdjust="spacing" textLength="219" x="172.5" y="514.5747">connectionId-2 to stream to channel-2</text><path d="M10,541.3296 L298,541.3296 L298,548.2783 L288,558.2783 L10,558.2783 L10,541.3296 " fill="#EEEEEE" style="stroke:#0A9EFD;stroke-width:1.5;"/><rect fill="none" height="221.4873" style="stroke:#0A9EFD;stroke-width:2.0;" width="454" x="10" y="541.3296"/><text fill="#000000" font-family="Arial" font-size="13" lengthAdjust="spacing" textLength="243" x="25" y="554.5234">Push multiple streams to a single channel</text><polygon fill="#0A9EFD" points="134,575.2271,144,579.2271,134,583.2271,138,579.2271" style="stroke:#0A9EFD;stroke-width:1.0;"/><line style="stroke:#0A9EFD;stroke-width:2.0;" x1="38" x2="140" y1="579.2271" y2="579.2271"/><text fill="#0A9EFD" font-family="Arial" font-size="13" lengthAdjust="spacing" textLength="73" x="55.5" y="574.4722">Join channel</text><polygon fill="#0A9EFD" points="406,619.1245,416,623.1245,406,627.1245,410,623.1245" style="stroke:#0A9EFD;stroke-width:1.0;"/><line style="stroke:#0A9EFD;stroke-width:2.0;" x1="146" x2="412" y1="623.1245" y2="623.1245"/><text fill="#0A9EFD" font-family="Arial" font-size="13" lengthAdjust="spacing" textLength="119" x="220.5" y="603.4209">Join channel-1 using</text><text fill="#0A9EFD" font-family="Arial" font-size="13" lengthAdjust="spacing" textLength="161" x="201.5" y="618.3696">connectionId-1 and userId-1</text><polygon fill="#0A9EFD" points="406,663.022,416,667.022,406,671.022,410,667.022" style="stroke:#0A9EFD;stroke-width:1.0;"/><line style="stroke:#0A9EFD;stroke-width:2.0;" x1="146" x2="412" y1="667.022" y2="667.022"/><text fill="#0A9EFD" font-family="Arial" font-size="13" lengthAdjust="spacing" textLength="119" x="220.5" y="647.3184">Join channel-1 using</text><text fill="#0A9EFD" font-family="Arial" font-size="13" lengthAdjust="spacing" textLength="161" x="201.5" y="662.2671">connectionId-2 and userId-2</text><polygon fill="#0A9EFD" points="406,706.9194,416,710.9194,406,714.9194,410,710.9194" style="stroke:#0A9EFD;stroke-width:1.0;"/><line style="stroke:#0A9EFD;stroke-width:2.0;" x1="146" x2="412" y1="710.9194" y2="710.9194"/><text fill="#0A9EFD" font-family="Arial" font-size="13" lengthAdjust="spacing" textLength="154" x="203" y="691.2158">Send audio and video data</text><text fill="#0A9EFD" font-family="Arial" font-size="13" lengthAdjust="spacing" textLength="120" x="222" y="706.1646">using connectionId-1</text><polygon fill="#0A9EFD" points="406,750.8169,416,754.8169,406,758.8169,410,754.8169" style="stroke:#0A9EFD;stroke-width:1.0;"/><line style="stroke:#0A9EFD;stroke-width:2.0;" x1="146" x2="412" y1="754.8169" y2="754.8169"/><text fill="#0A9EFD" font-family="Arial" font-size="13" lengthAdjust="spacing" textLength="154" x="203" y="735.1133">Send audio and video data</text><text fill="#0A9EFD" font-family="Arial" font-size="13" lengthAdjust="spacing" textLength="120" x="222" y="750.062">using connectionId-2</text><path d="M10,776.8169 L154,776.8169 L154,783.7656 L144,793.7656 L10,793.7656 L10,776.8169 " fill="#EEEEEE" style="stroke:#0A9EFD;stroke-width:1.5;"/><rect fill="none" height="103.7949" style="stroke:#0A9EFD;stroke-width:2.0;" width="454" x="10" y="776.8169"/><text fill="#000000" font-family="Arial" font-size="13" lengthAdjust="spacing" textLength="99" x="25" y="790.0107">Leave channel(s)</text><polygon fill="#0A9EFD" points="134,810.7144,144,814.7144,134,818.7144,138,814.7144" style="stroke:#0A9EFD;stroke-width:1.0;"/><line style="stroke:#0A9EFD;stroke-width:2.0;" x1="38" x2="140" y1="814.7144" y2="814.7144"/><text fill="#0A9EFD" font-family="Arial" font-size="13" lengthAdjust="spacing" textLength="84" x="50" y="809.9595">Leave channel</text><polygon fill="#0A9EFD" points="406,839.6631,416,843.6631,406,847.6631,410,843.6631" style="stroke:#0A9EFD;stroke-width:1.0;"/><line style="stroke:#0A9EFD;stroke-width:2.0;" x1="146" x2="412" y1="843.6631" y2="843.6631"/><text fill="#0A9EFD" font-family="Arial" font-size="13" lengthAdjust="spacing" textLength="230" x="167" y="838.9082">Call leave channel using connectionId-1</text><polygon fill="#0A9EFD" points="406,868.6118,416,872.6118,406,876.6118,410,872.6118" style="stroke:#0A9EFD;stroke-width:1.0;"/><line style="stroke:#0A9EFD;stroke-width:2.0;" x1="146" x2="412" y1="872.6118" y2="872.6118"/><text fill="#0A9EFD" font-family="Arial" font-size="13" lengthAdjust="spacing" textLength="230" x="167" y="867.8569">Call leave channel using connectionId-2</text><path d="M102.5,894.6118 L198.5,894.6118 L198.5,901.5605 L188.5,911.5605 L102.5,911.5605 L102.5,894.6118 " fill="#EEEEEE" style="stroke:#0A9EFD;stroke-width:1.5;"/><rect fill="none" height="133.6924" style="stroke:#0A9EFD;stroke-width:2.0;" width="361.5" x="102.5" y="894.6118"/><text fill="#000000" font-family="Arial" font-size="13" lengthAdjust="spacing" textLength="51" x="117.5" y="907.8057">Clean up</text><polygon fill="#0A9EFD" points="406,943.458,416,947.458,406,951.458,410,947.458" style="stroke:#0A9EFD;stroke-width:1.0;"/><line style="stroke:#0A9EFD;stroke-width:2.0;" x1="146" x2="412" y1="947.458" y2="947.458"/><text fill="#0A9EFD" font-family="Arial" font-size="13" lengthAdjust="spacing" textLength="136" x="212" y="927.7544">Call destroy connection</text><text fill="#0A9EFD" font-family="Arial" font-size="13" lengthAdjust="spacing" textLength="120" x="222" y="942.7031">using connectionId-1</text><polygon fill="#0A9EFD" points="406,987.3555,416,991.3555,406,995.3555,410,991.3555" style="stroke:#0A9EFD;stroke-width:1.0;"/><line style="stroke:#0A9EFD;stroke-width:2.0;" x1="146" x2="412" y1="991.3555" y2="991.3555"/><text fill="#0A9EFD" font-family="Arial" font-size="13" lengthAdjust="spacing" textLength="136" x="212" y="971.6519">Call destroy connection</text><text fill="#0A9EFD" font-family="Arial" font-size="13" lengthAdjust="spacing" textLength="120" x="222" y="986.6006">using connectionId-2</text><polygon fill="#0A9EFD" points="406,1016.3042,416,1020.3042,406,1024.3042,410,1020.3042" style="stroke:#0A9EFD;stroke-width:1.0;"/><line style="stroke:#0A9EFD;stroke-width:2.0;" x1="146" x2="412" y1="1020.3042" y2="1020.3042"/><text fill="#0A9EFD" font-family="Arial" font-size="13" lengthAdjust="spacing" textLength="248" x="158" y="1015.5493">Call the finish method to release resources</text><!--SRC=[fLHDRzD04BtxLmm-mI6fucCFI6qgLGQ4ehf5Ggg41kyqMMKpQ_QZ8lmeVWI_Z5bZOfiaJKKlbhtptfkPD-DzfRasKH5CfsUFMf6TUBK-mwLr-CMlDKzrt9WilJNeS0CLVOl4DLqx6vjBgxQNMA-Nyi5gRerr41oo5onno3AiWnpbTvvS3kZXhhh9ig_sE-IVRNI0JPDdWWswrWroWBoqjr1TlM_15uj5Hgn0y1tf8fNr3wEwkhdz-EjdnoXxHYggaNg3F5iY42yrKoQwC7cRvC-XP1z4HcCW22iw3XITxXXi4xHbtuVBS_X4JZzimUYQs1EW5A5PYwxHFoZLzBUUkQEKQnDDq8qXg2qprVk27QuFJsPm0b0CyrH1uXi8Tf1gXO8rFfCfxFfwPpNtaM62OKIIHwzvEKXNgidiEBuuX2z6-2fD2gFIjhMhNJvG6B2ZtlCuMUh5xxhQ5VOIpUAmviZ8HVIhtiC_O9_G24coz_MehQTTtMir5H_bftdQvDcnhWRqvtf-puS632zX5p3qyGFXuywhr_xDoAvHSBpcQ0oOOVZq9ZwFCvhoNE0CiTdNKIGpjzi1zuXN_qyjzgdfBdgG6oJj7eMLLMdZ74cLShiuyd9xrkJR3du3]--></g></svg>