<?xml version="1.0" encoding="us-ascii" standalone="no"?><svg xmlns="http://www.w3.org/2000/svg" xmlns:xlink="http://www.w3.org/1999/xlink" contentStyleType="text/css" height="1183px" preserveAspectRatio="none" style="width:564px;height:1183px;" version="1.1" viewBox="0 0 564 1183" width="564px" zoomAndPan="magnify"><defs/><g><rect fill="none" height="1181.5054" style="stroke:#0A9EFD;stroke-width:1.0;" width="562" x="0" y="0"/><rect fill="#999999" fill-opacity="0.33333" height="1171.5054" style="stroke:#0A9EFD;stroke-width:0.5;" width="75" x="204.5" y="6"/><text fill="#0A9EFD" font-family="sans-serif" font-size="13" font-weight="bold" lengthAdjust="spacing" textLength="62" x="211" y="18.5684">Your app</text><rect fill="#999999" fill-opacity="0.33333" height="1171.5054" style="stroke:#0A9EFD;stroke-width:0.5;" width="80" x="472" y="6"/><text fill="#0A9EFD" font-family="sans-serif" font-size="13" font-weight="bold" lengthAdjust="spacing" textLength="41" x="491.5" y="18.5684">Agora</text><rect fill="none" height="173.6924" style="stroke:#0A9EFD;stroke-width:2.0;" width="359.5" x="198.5" y="103.0986"/><rect fill="none" height="189.6411" style="stroke:#0A9EFD;stroke-width:2.0;" width="548" x="10" y="290.791"/><rect fill="none" height="103.7949" style="stroke:#0A9EFD;stroke-width:2.0;" width="548" x="10" y="494.4321"/><rect fill="none" height="145.7437" style="stroke:#0A9EFD;stroke-width:2.0;" width="359.5" x="198.5" y="612.2271"/><rect fill="none" height="304.436" style="stroke:#0A9EFD;stroke-width:2.0;" width="548" x="10" y="771.9707"/><line style="stroke:#0A9EFD;stroke-width:0.5;stroke-dasharray:5.0,5.0;" x1="38" x2="38" y1="86.0986" y2="1093.4067"/><line style="stroke:#0A9EFD;stroke-width:0.5;stroke-dasharray:5.0,5.0;" x1="241.5" x2="241.5" y1="86.0986" y2="1093.4067"/><line style="stroke:#0A9EFD;stroke-width:0.5;stroke-dasharray:5.0,5.0;" x1="512" x2="512" y1="86.0986" y2="1093.4067"/><text fill="#0A9EFD" font-family="Arial" font-size="14" lengthAdjust="spacing" textLength="30" x="20" y="83.1318">User</text><ellipse cx="38" cy="16" fill="none" rx="8" ry="8" style="stroke:#0A9EFD;stroke-width:3.0;"/><path d="M38,24 L38,51 M25,32 L51,32 M38,51 L25,66 M38,51 L51,66 " fill="none" style="stroke:#0A9EFD;stroke-width:3.0;"/><text fill="#0A9EFD" font-family="Arial" font-size="14" lengthAdjust="spacing" textLength="30" x="20" y="1105.5386">User</text><ellipse cx="38" cy="1119.5054" fill="none" rx="8" ry="8" style="stroke:#0A9EFD;stroke-width:3.0;"/><path d="M38,1127.5054 L38,1154.5054 M25,1135.5054 L51,1135.5054 M38,1154.5054 L25,1169.5054 M38,1154.5054 L51,1169.5054 " fill="none" style="stroke:#0A9EFD;stroke-width:3.0;"/><rect fill="none" height="30.0986" rx="2.5" ry="2.5" style="stroke:#0A9EFD;stroke-width:2.0;" width="67" x="208.5" y="55"/><text fill="#0A9EFD" font-family="Arial" font-size="14" lengthAdjust="spacing" textLength="53" x="215.5" y="75.1318">IoT SDK</text><rect fill="none" height="30.0986" rx="2.5" ry="2.5" style="stroke:#0A9EFD;stroke-width:2.0;" width="67" x="208.5" y="1092.4067"/><text fill="#0A9EFD" font-family="Arial" font-size="14" lengthAdjust="spacing" textLength="53" x="215.5" y="1112.5386">IoT SDK</text><rect fill="none" height="30.0986" rx="2.5" ry="2.5" style="stroke:#0A9EFD;stroke-width:2.0;" width="72" x="476" y="55"/><text fill="#0A9EFD" font-family="Arial" font-size="14" lengthAdjust="spacing" textLength="58" x="483" y="75.1318">SDRTN&#174;</text><rect fill="none" height="30.0986" rx="2.5" ry="2.5" style="stroke:#0A9EFD;stroke-width:2.0;" width="72" x="476" y="1092.4067"/><text fill="#0A9EFD" font-family="Arial" font-size="14" lengthAdjust="spacing" textLength="58" x="483" y="1112.5386">SDRTN&#174;</text><path d="M198.5,103.0986 L357.5,103.0986 L357.5,110.0474 L347.5,120.0474 L198.5,120.0474 L198.5,103.0986 " fill="#EEEEEE" style="stroke:#0A9EFD;stroke-width:1.5;"/><rect fill="none" height="173.6924" style="stroke:#0A9EFD;stroke-width:2.0;" width="359.5" x="198.5" y="103.0986"/><text fill="#000000" font-family="Arial" font-size="13" lengthAdjust="spacing" textLength="114" x="213.5" y="116.2925">Setup Agora engine</text><line style="stroke:#0A9EFD;stroke-width:2.0;" x1="242" x2="284" y1="140.9961" y2="140.9961"/><line style="stroke:#0A9EFD;stroke-width:2.0;" x1="284" x2="284" y1="140.9961" y2="153.9961"/><line style="stroke:#0A9EFD;stroke-width:2.0;" x1="243" x2="284" y1="153.9961" y2="153.9961"/><polygon fill="#0A9EFD" points="253,149.9961,243,153.9961,253,157.9961,249,153.9961" style="stroke:#0A9EFD;stroke-width:1.0;"/><text fill="#0A9EFD" font-family="Arial" font-size="13" lengthAdjust="spacing" textLength="193" x="249" y="136.2412">Instantiate the Agora RTC engine</text><line style="stroke:#0A9EFD;stroke-width:2.0;" x1="242" x2="284" y1="197.8936" y2="197.8936"/><line style="stroke:#0A9EFD;stroke-width:2.0;" x1="284" x2="284" y1="197.8936" y2="210.8936"/><line style="stroke:#0A9EFD;stroke-width:2.0;" x1="243" x2="284" y1="210.8936" y2="210.8936"/><polygon fill="#0A9EFD" points="253,206.8936,243,210.8936,253,214.8936,249,210.8936" style="stroke:#0A9EFD;stroke-width:1.0;"/><text fill="#0A9EFD" font-family="Arial" font-size="13" lengthAdjust="spacing" textLength="121" x="274.5" y="178.1899">Set options including</text><text fill="#0A9EFD" font-family="Arial" font-size="13" lengthAdjust="spacing" textLength="168" x="253" y="193.1387">log file path and logging level</text><polygon fill="#0A9EFD" points="500,235.8423,510,239.8423,500,243.8423,504,239.8423" style="stroke:#0A9EFD;stroke-width:1.0;"/><line style="stroke:#0A9EFD;stroke-width:2.0;" x1="242" x2="506" y1="239.8423" y2="239.8423"/><text fill="#0A9EFD" font-family="Arial" font-size="13" lengthAdjust="spacing" textLength="219" x="267.5" y="235.0874">Verify license and initialize the engine</text><polygon fill="#0A9EFD" points="500,264.791,510,268.791,500,272.791,504,268.791" style="stroke:#0A9EFD;stroke-width:1.0;"/><line style="stroke:#0A9EFD;stroke-width:2.0;" x1="242" x2="506" y1="268.791" y2="268.791"/><text fill="#0A9EFD" font-family="Arial" font-size="13" lengthAdjust="spacing" textLength="116" x="319" y="264.0361">Create a connection</text><path d="M10,290.791 L139,290.791 L139,297.7397 L129,307.7397 L10,307.7397 L10,290.791 " fill="#EEEEEE" style="stroke:#0A9EFD;stroke-width:1.5;"/><rect fill="none" height="189.6411" style="stroke:#0A9EFD;stroke-width:2.0;" width="548" x="10" y="290.791"/><text fill="#000000" font-family="Arial" font-size="13" lengthAdjust="spacing" textLength="84" x="25" y="303.9849">Join a channel</text><polygon fill="#0A9EFD" points="230,324.6885,240,328.6885,230,332.6885,234,328.6885" style="stroke:#0A9EFD;stroke-width:1.0;"/><line style="stroke:#0A9EFD;stroke-width:2.0;" x1="38" x2="236" y1="328.6885" y2="328.6885"/><text fill="#0A9EFD" font-family="Arial" font-size="13" lengthAdjust="spacing" textLength="84" x="98" y="323.9336">Join a channel</text><polygon fill="#0A9EFD" points="500,353.6372,510,357.6372,500,361.6372,504,357.6372" style="stroke:#0A9EFD;stroke-width:1.0;"/><line style="stroke:#0A9EFD;stroke-width:2.0;" x1="242" x2="506" y1="357.6372" y2="357.6372"/><text fill="#0A9EFD" font-family="Arial" font-size="13" lengthAdjust="spacing" textLength="215" x="269.5" y="352.8823">Set bandwidth estimation parameters</text><line style="stroke:#0A9EFD;stroke-width:2.0;" x1="242" x2="284" y1="401.5347" y2="401.5347"/><line style="stroke:#0A9EFD;stroke-width:2.0;" x1="284" x2="284" y1="401.5347" y2="414.5347"/><line style="stroke:#0A9EFD;stroke-width:2.0;" x1="243" x2="284" y1="414.5347" y2="414.5347"/><polygon fill="#0A9EFD" points="253,410.5347,243,414.5347,253,418.5347,249,414.5347" style="stroke:#0A9EFD;stroke-width:1.0;"/><text fill="#0A9EFD" font-family="Arial" font-size="13" lengthAdjust="spacing" textLength="230" x="249" y="381.8311">Specify the audio codec, sampling rate,</text><text fill="#0A9EFD" font-family="Arial" font-size="13" lengthAdjust="spacing" textLength="161" x="285.5" y="396.7798">and the number of channels</text><polygon fill="#0A9EFD" points="500,439.4834,510,443.4834,500,447.4834,504,443.4834" style="stroke:#0A9EFD;stroke-width:1.0;"/><line style="stroke:#0A9EFD;stroke-width:2.0;" x1="242" x2="506" y1="443.4834" y2="443.4834"/><text fill="#0A9EFD" font-family="Arial" font-size="13" lengthAdjust="spacing" textLength="164" x="295" y="438.7285">Call the join channel method</text><polygon fill="#0A9EFD" points="253,468.4321,243,472.4321,253,476.4321,249,472.4321" style="stroke:#0A9EFD;stroke-width:1.0;"/><line style="stroke:#0A9EFD;stroke-width:2.0;" x1="247" x2="511" y1="472.4321" y2="472.4321"/><text fill="#0A9EFD" font-family="Arial" font-size="13" lengthAdjust="spacing" textLength="192" x="281" y="467.6772">on join channel success callback</text><path d="M10,494.4321 L251,494.4321 L251,501.3809 L241,511.3809 L10,511.3809 L10,494.4321 " fill="#EEEEEE" style="stroke:#0A9EFD;stroke-width:1.5;"/><rect fill="none" height="103.7949" style="stroke:#0A9EFD;stroke-width:2.0;" width="548" x="10" y="494.4321"/><text fill="#000000" font-family="Arial" font-size="13" lengthAdjust="spacing" textLength="196" x="25" y="507.626">Send and receive audio and video</text><polygon fill="#0A9EFD" points="500,528.3296,510,532.3296,500,536.3296,504,532.3296" style="stroke:#0A9EFD;stroke-width:1.0;"/><line style="stroke:#0A9EFD;stroke-width:2.0;" x1="242" x2="506" y1="532.3296" y2="532.3296"/><text fill="#0A9EFD" font-family="Arial" font-size="13" lengthAdjust="spacing" textLength="246" x="254" y="527.5747">Start threads to send audio and video data</text><polygon fill="#0A9EFD" points="253,557.2783,243,561.2783,253,565.2783,249,561.2783" style="stroke:#0A9EFD;stroke-width:1.0;"/><line style="stroke:#0A9EFD;stroke-width:2.0;" x1="247" x2="511" y1="561.2783" y2="561.2783"/><text fill="#0A9EFD" font-family="Arial" font-size="13" lengthAdjust="spacing" textLength="171" x="291.5" y="556.5234">Receive audio and video data</text><polygon fill="#0A9EFD" points="49,586.2271,39,590.2271,49,594.2271,45,590.2271" style="stroke:#0A9EFD;stroke-width:1.0;"/><line style="stroke:#0A9EFD;stroke-width:2.0;" x1="43" x2="241" y1="590.2271" y2="590.2271"/><text fill="#0A9EFD" font-family="Arial" font-size="13" lengthAdjust="spacing" textLength="180" x="50" y="585.4722">Render audio and video frames</text><path d="M198.5,612.2271 L535.5,612.2271 L535.5,619.1758 L525.5,629.1758 L198.5,629.1758 L198.5,612.2271 " fill="#EEEEEE" style="stroke:#0A9EFD;stroke-width:1.5;"/><rect fill="none" height="145.7437" style="stroke:#0A9EFD;stroke-width:2.0;" width="359.5" x="198.5" y="612.2271"/><text fill="#000000" font-family="Arial" font-size="13" lengthAdjust="spacing" textLength="292" x="213.5" y="625.4209">Detect and respond to network bandwidth changes</text><polygon fill="#0A9EFD" points="253,646.1245,243,650.1245,253,654.1245,249,650.1245" style="stroke:#0A9EFD;stroke-width:1.0;"/><line style="stroke:#0A9EFD;stroke-width:2.0;" x1="247" x2="511" y1="650.1245" y2="650.1245"/><text fill="#0A9EFD" font-family="Arial" font-size="13" lengthAdjust="spacing" textLength="199" x="277.5" y="645.3696">On target bitrate changed callback</text><line style="stroke:#0A9EFD;stroke-width:2.0;" x1="242" x2="284" y1="679.0732" y2="679.0732"/><line style="stroke:#0A9EFD;stroke-width:2.0;" x1="284" x2="284" y1="679.0732" y2="692.0732"/><line style="stroke:#0A9EFD;stroke-width:2.0;" x1="243" x2="284" y1="692.0732" y2="692.0732"/><polygon fill="#0A9EFD" points="253,688.0732,243,692.0732,253,696.0732,249,692.0732" style="stroke:#0A9EFD;stroke-width:1.0;"/><text fill="#0A9EFD" font-family="Arial" font-size="13" lengthAdjust="spacing" textLength="237" x="249" y="674.3184">Adjust the sending bit rate and resolution</text><polygon fill="#0A9EFD" points="253,717.022,243,721.022,253,725.022,249,721.022" style="stroke:#0A9EFD;stroke-width:1.0;"/><line style="stroke:#0A9EFD;stroke-width:2.0;" x1="247" x2="511" y1="721.022" y2="721.022"/><text fill="#0A9EFD" font-family="Arial" font-size="13" lengthAdjust="spacing" textLength="242" x="256" y="716.2671">On key frame generation request callback</text><polygon fill="#0A9EFD" points="500,745.9707,510,749.9707,500,753.9707,504,749.9707" style="stroke:#0A9EFD;stroke-width:1.0;"/><line style="stroke:#0A9EFD;stroke-width:2.0;" x1="242" x2="506" y1="749.9707" y2="749.9707"/><text fill="#0A9EFD" font-family="Arial" font-size="13" lengthAdjust="spacing" textLength="103" x="325.5" y="745.2158">Send a key frame</text><path d="M10,771.9707 L247,771.9707 L247,778.9194 L237,788.9194 L10,788.9194 L10,771.9707 " fill="#EEEEEE" style="stroke:#0A9EFD;stroke-width:1.5;"/><rect fill="none" height="304.436" style="stroke:#0A9EFD;stroke-width:2.0;" width="548" x="10" y="771.9707"/><text fill="#000000" font-family="Arial" font-size="13" lengthAdjust="spacing" textLength="192" x="25" y="785.1646">Manage audio and video streams</text><polygon fill="#0A9EFD" points="230,805.8682,240,809.8682,230,813.8682,234,809.8682" style="stroke:#0A9EFD;stroke-width:1.0;"/><line style="stroke:#0A9EFD;stroke-width:2.0;" x1="38" x2="236" y1="809.8682" y2="809.8682"/><text fill="#0A9EFD" font-family="Arial" font-size="13" lengthAdjust="spacing" textLength="145" x="67.5" y="805.1133">Mute local audio or video</text><polygon fill="#0A9EFD" points="500,849.7656,510,853.7656,500,857.7656,504,853.7656" style="stroke:#0A9EFD;stroke-width:1.0;"/><line style="stroke:#0A9EFD;stroke-width:2.0;" x1="242" x2="506" y1="853.7656" y2="853.7656"/><text fill="#0A9EFD" font-family="Arial" font-size="13" lengthAdjust="spacing" textLength="136" x="307" y="834.062">Call mute local audio or</text><text fill="#0A9EFD" font-family="Arial" font-size="13" lengthAdjust="spacing" textLength="95" x="331.5" y="849.0107">mute local video</text><polygon fill="#0A9EFD" points="230,878.7144,240,882.7144,230,886.7144,234,882.7144" style="stroke:#0A9EFD;stroke-width:1.0;"/><line style="stroke:#0A9EFD;stroke-width:2.0;" x1="38" x2="236" y1="882.7144" y2="882.7144"/><text fill="#0A9EFD" font-family="Arial" font-size="13" lengthAdjust="spacing" textLength="158" x="61" y="877.9595">Mute remote audio or video</text><polygon fill="#0A9EFD" points="500,922.6118,510,926.6118,500,930.6118,504,926.6118" style="stroke:#0A9EFD;stroke-width:1.0;"/><line style="stroke:#0A9EFD;stroke-width:2.0;" x1="242" x2="506" y1="926.6118" y2="926.6118"/><text fill="#0A9EFD" font-family="Arial" font-size="13" lengthAdjust="spacing" textLength="149" x="300.5" y="906.9082">Call mute remote audio or</text><text fill="#0A9EFD" font-family="Arial" font-size="13" lengthAdjust="spacing" textLength="108" x="325" y="921.8569">mute remote video</text><polygon fill="#0A9EFD" points="253,951.5605,243,955.5605,253,959.5605,249,955.5605" style="stroke:#0A9EFD;stroke-width:1.0;"/><line style="stroke:#0A9EFD;stroke-width:2.0;" x1="247" x2="511" y1="955.5605" y2="955.5605"/><text fill="#0A9EFD" font-family="Arial" font-size="13" lengthAdjust="spacing" textLength="166" x="294" y="950.8057">On user mute audio callback</text><line style="stroke:#0A9EFD;stroke-width:2.0;" x1="242" x2="284" y1="984.5093" y2="984.5093"/><line style="stroke:#0A9EFD;stroke-width:2.0;" x1="284" x2="284" y1="984.5093" y2="997.5093"/><line style="stroke:#0A9EFD;stroke-width:2.0;" x1="243" x2="284" y1="997.5093" y2="997.5093"/><polygon fill="#0A9EFD" points="253,993.5093,243,997.5093,253,1001.5093,249,997.5093" style="stroke:#0A9EFD;stroke-width:1.0;"/><text fill="#0A9EFD" font-family="Arial" font-size="13" lengthAdjust="spacing" textLength="177" x="249" y="979.7544">Suspend or resume audio feed</text><polygon fill="#0A9EFD" points="253,1022.458,243,1026.458,253,1030.458,249,1026.458" style="stroke:#0A9EFD;stroke-width:1.0;"/><line style="stroke:#0A9EFD;stroke-width:2.0;" x1="247" x2="511" y1="1026.458" y2="1026.458"/><text fill="#0A9EFD" font-family="Arial" font-size="13" lengthAdjust="spacing" textLength="166" x="294" y="1021.7031">On user mute video callback</text><line style="stroke:#0A9EFD;stroke-width:2.0;" x1="242" x2="284" y1="1055.4067" y2="1055.4067"/><line style="stroke:#0A9EFD;stroke-width:2.0;" x1="284" x2="284" y1="1055.4067" y2="1068.4067"/><line style="stroke:#0A9EFD;stroke-width:2.0;" x1="243" x2="284" y1="1068.4067" y2="1068.4067"/><polygon fill="#0A9EFD" points="253,1064.4067,243,1068.4067,253,1072.4067,249,1068.4067" style="stroke:#0A9EFD;stroke-width:1.0;"/><text fill="#0A9EFD" font-family="Arial" font-size="13" lengthAdjust="spacing" textLength="177" x="249" y="1050.6519">Suspend or resume video feed</text><!--SRC=[ZLJRRXCn47tVhnZotCjxXP1AAw602bNI8Y4X8SUURDnunuilBUMZ-0Y-Z1dlRhER1AalKMAVENFcd8dVMD8k6uIpi_D7Qz2VHhCzLxKFwaVSMZgpkN6LV6jLK0qiyMT6qlWX-Do-z-RvlTBRcd-GkVBE1qX1KMGiKgegfHCVpUuZXXce2FVBHLMj_2-OVVCvW6hRMSNOPBLj5IMOpVqTBAy_5V3bxMs5P83nVT6boDghM5ulxZx__TDNp7SL8gfblOa_Io4WrPQmObuuVIVq5p2dc9Z6geIGDjW35tTNny3C1RvDrbE4pZPBzNS2vsjOMuVGghG1nGBuXAjhSFY8RiSnlu2l6Epw6PpLI14Bs99b0Sx-xYJiD-QYgu0YK87sHAX5WSmvpFZHMvBBZU9RLx79BvBthiQaCisA-pzPmwen9jieOOOID2OCSJfzYrgaYqR5etjMOr2VG5HDwsJQm29Fs0yPIb2KcnK6yEkXVvnEfPmhk0SHsKE0Es-yAS2tfnsGDKqWCMkDCO9cWXMltzYBfUGl0W9gj8-3L3afwpsr8F4ciGIsrqH87cAfdbQ0KKbDz2oEK- -0pCyX290C6x2FMuk_SQpwcktMgTSTMoy6UY1CJpviHoc90pMAZVENNBuGy1Yrf6cJHD2ZpCwVSOoNvY77L7oNQIKthYlP3VszosN5zhfiyRcJ3ZKIXcvPWhm7p7VOgwoOsBah78zyeqZLXnx6n64qSRB4DvcrESyjUZY_AOTXbdLgZa1v8qV7NU41VS369tmT_pvsQD2Vxqg7XM7pCZ-17Qh_xnpBPfbZAvOn9yUGcm6yHZJ_9-oCUoLXlu52A67y0m00]--></g></svg>