<?xml version="1.0" encoding="us-ascii" standalone="no"?><svg xmlns="http://www.w3.org/2000/svg" xmlns:xlink="http://www.w3.org/1999/xlink" contentStyleType="text/css" height="900px" preserveAspectRatio="none" style="width:499px;height:900px;" version="1.1" viewBox="0 0 499 900" width="499px" zoomAndPan="magnify"><defs/><g><rect fill="none" height="898.0181" style="stroke:#0A9EFD;stroke-width:1.0;" width="497" x="0" y="0"/><rect fill="#999999" fill-opacity="0.33333" height="888.0181" style="stroke:#0A9EFD;stroke-width:0.5;" width="75" x="137.5" y="6"/><text fill="#0A9EFD" font-family="sans-serif" font-size="13" font-weight="bold" lengthAdjust="spacing" textLength="62" x="144" y="18.5684">Your app</text><rect fill="#999999" fill-opacity="0.33333" height="888.0181" style="stroke:#0A9EFD;stroke-width:0.5;" width="80" x="407" y="6"/><text fill="#0A9EFD" font-family="sans-serif" font-size="13" font-weight="bold" lengthAdjust="spacing" textLength="41" x="426.5" y="18.5684">Agora</text><rect fill="none" height="158.7437" style="stroke:#0A9EFD;stroke-width:2.0;" width="361.5" x="131.5" y="103.0986"/><rect fill="none" height="103.7949" style="stroke:#0A9EFD;stroke-width:2.0;" width="483" x="10" y="275.8423"/><rect fill="none" height="74.8462" style="stroke:#0A9EFD;stroke-width:2.0;" width="361.5" x="131.5" y="393.6372"/><rect fill="none" height="132.7437" style="stroke:#0A9EFD;stroke-width:2.0;" width="483" x="10" y="482.4834"/><rect fill="none" height="74.8462" style="stroke:#0A9EFD;stroke-width:2.0;" width="483" x="10" y="629.2271"/><rect fill="none" height="74.8462" style="stroke:#0A9EFD;stroke-width:2.0;" width="361.5" x="131.5" y="718.0732"/><line style="stroke:#0A9EFD;stroke-width:0.5;stroke-dasharray:5.0,5.0;" x1="38" x2="38" y1="86.0986" y2="809.9194"/><line style="stroke:#0A9EFD;stroke-width:0.5;stroke-dasharray:5.0,5.0;" x1="174.5" x2="174.5" y1="86.0986" y2="809.9194"/><line style="stroke:#0A9EFD;stroke-width:0.5;stroke-dasharray:5.0,5.0;" x1="447" x2="447" y1="86.0986" y2="809.9194"/><text fill="#0A9EFD" font-family="Arial" font-size="14" lengthAdjust="spacing" textLength="30" x="20" y="83.1318">User</text><ellipse cx="38" cy="16" fill="none" rx="8" ry="8" style="stroke:#0A9EFD;stroke-width:3.0;"/><path d="M38,24 L38,51 M25,32 L51,32 M38,51 L25,66 M38,51 L51,66 " fill="none" style="stroke:#0A9EFD;stroke-width:3.0;"/><text fill="#0A9EFD" font-family="Arial" font-size="14" lengthAdjust="spacing" textLength="30" x="20" y="822.0513">User</text><ellipse cx="38" cy="836.0181" fill="none" rx="8" ry="8" style="stroke:#0A9EFD;stroke-width:3.0;"/><path d="M38,844.0181 L38,871.0181 M25,852.0181 L51,852.0181 M38,871.0181 L25,886.0181 M38,871.0181 L51,886.0181 " fill="none" style="stroke:#0A9EFD;stroke-width:3.0;"/><rect fill="none" height="30.0986" rx="2.5" ry="2.5" style="stroke:#0A9EFD;stroke-width:2.0;" width="67" x="141.5" y="55"/><text fill="#0A9EFD" font-family="Arial" font-size="14" lengthAdjust="spacing" textLength="53" x="148.5" y="75.1318">IoT SDK</text><rect fill="none" height="30.0986" rx="2.5" ry="2.5" style="stroke:#0A9EFD;stroke-width:2.0;" width="67" x="141.5" y="808.9194"/><text fill="#0A9EFD" font-family="Arial" font-size="14" lengthAdjust="spacing" textLength="53" x="148.5" y="829.0513">IoT SDK</text><rect fill="none" height="30.0986" rx="2.5" ry="2.5" style="stroke:#0A9EFD;stroke-width:2.0;" width="72" x="411" y="55"/><text fill="#0A9EFD" font-family="Arial" font-size="14" lengthAdjust="spacing" textLength="58" x="418" y="75.1318">SDRTN&#174;</text><rect fill="none" height="30.0986" rx="2.5" ry="2.5" style="stroke:#0A9EFD;stroke-width:2.0;" width="72" x="411" y="808.9194"/><text fill="#0A9EFD" font-family="Arial" font-size="14" lengthAdjust="spacing" textLength="58" x="418" y="829.0513">SDRTN&#174;</text><path d="M131.5,103.0986 L294.5,103.0986 L294.5,110.0474 L284.5,120.0474 L131.5,120.0474 L131.5,103.0986 " fill="#EEEEEE" style="stroke:#0A9EFD;stroke-width:1.5;"/><rect fill="none" height="158.7437" style="stroke:#0A9EFD;stroke-width:2.0;" width="361.5" x="131.5" y="103.0986"/><text fill="#000000" font-family="Arial" font-size="13" lengthAdjust="spacing" textLength="118" x="146.5" y="116.2925">Set up Agora engine</text><line style="stroke:#0A9EFD;stroke-width:2.0;" x1="175" x2="217" y1="140.9961" y2="140.9961"/><line style="stroke:#0A9EFD;stroke-width:2.0;" x1="217" x2="217" y1="140.9961" y2="153.9961"/><line style="stroke:#0A9EFD;stroke-width:2.0;" x1="176" x2="217" y1="153.9961" y2="153.9961"/><polygon fill="#0A9EFD" points="186,149.9961,176,153.9961,186,157.9961,182,153.9961" style="stroke:#0A9EFD;stroke-width:1.0;"/><text fill="#0A9EFD" font-family="Arial" font-size="13" lengthAdjust="spacing" textLength="163" x="182" y="136.2412">Instantiate the Agora engine</text><line style="stroke:#0A9EFD;stroke-width:2.0;" x1="175" x2="217" y1="182.9448" y2="182.9448"/><line style="stroke:#0A9EFD;stroke-width:2.0;" x1="217" x2="217" y1="182.9448" y2="195.9448"/><line style="stroke:#0A9EFD;stroke-width:2.0;" x1="176" x2="217" y1="195.9448" y2="195.9448"/><polygon fill="#0A9EFD" points="186,191.9448,176,195.9448,186,199.9448,182,195.9448" style="stroke:#0A9EFD;stroke-width:1.0;"/><text fill="#0A9EFD" font-family="Arial" font-size="13" lengthAdjust="spacing" textLength="108" x="182" y="178.1899">Set engine options</text><polygon fill="#0A9EFD" points="435,220.8936,445,224.8936,435,228.8936,439,224.8936" style="stroke:#0A9EFD;stroke-width:1.0;"/><line style="stroke:#0A9EFD;stroke-width:2.0;" x1="175" x2="441" y1="224.8936" y2="224.8936"/><text fill="#0A9EFD" font-family="Arial" font-size="13" lengthAdjust="spacing" textLength="219" x="201.5" y="220.1387">Verify license and initialize the engine</text><polygon fill="#0A9EFD" points="435,249.8423,445,253.8423,435,257.8423,439,253.8423" style="stroke:#0A9EFD;stroke-width:1.0;"/><line style="stroke:#0A9EFD;stroke-width:2.0;" x1="175" x2="441" y1="253.8423" y2="253.8423"/><text fill="#0A9EFD" font-family="Arial" font-size="13" lengthAdjust="spacing" textLength="116" x="253" y="249.0874">Create a connection</text><path d="M10,275.8423 L139,275.8423 L139,282.791 L129,292.791 L10,292.791 L10,275.8423 " fill="#EEEEEE" style="stroke:#0A9EFD;stroke-width:1.5;"/><rect fill="none" height="103.7949" style="stroke:#0A9EFD;stroke-width:2.0;" width="483" x="10" y="275.8423"/><text fill="#000000" font-family="Arial" font-size="13" lengthAdjust="spacing" textLength="84" x="25" y="289.0361">Join a channel</text><polygon fill="#0A9EFD" points="163,309.7397,173,313.7397,163,317.7397,167,313.7397" style="stroke:#0A9EFD;stroke-width:1.0;"/><line style="stroke:#0A9EFD;stroke-width:2.0;" x1="38" x2="169" y1="313.7397" y2="313.7397"/><text fill="#0A9EFD" font-family="Arial" font-size="13" lengthAdjust="spacing" textLength="84" x="64.5" y="308.9849">Join a channel</text><polygon fill="#0A9EFD" points="435,338.6885,445,342.6885,435,346.6885,439,342.6885" style="stroke:#0A9EFD;stroke-width:1.0;"/><line style="stroke:#0A9EFD;stroke-width:2.0;" x1="175" x2="441" y1="342.6885" y2="342.6885"/><text fill="#0A9EFD" font-family="Arial" font-size="13" lengthAdjust="spacing" textLength="190" x="216" y="337.9336">Call the method to join a channel</text><polygon fill="#0A9EFD" points="186,367.6372,176,371.6372,186,375.6372,182,371.6372" style="stroke:#0A9EFD;stroke-width:1.0;"/><line style="stroke:#0A9EFD;stroke-width:2.0;" x1="180" x2="446" y1="371.6372" y2="371.6372"/><text fill="#0A9EFD" font-family="Arial" font-size="13" lengthAdjust="spacing" textLength="195" x="213.5" y="366.8823">On join channel success callback</text><path d="M131.5,393.6372 L301.5,393.6372 L301.5,400.5859 L291.5,410.5859 L131.5,410.5859 L131.5,393.6372 " fill="#EEEEEE" style="stroke:#0A9EFD;stroke-width:1.5;"/><rect fill="none" height="74.8462" style="stroke:#0A9EFD;stroke-width:2.0;" width="361.5" x="131.5" y="393.6372"/><text fill="#000000" font-family="Arial" font-size="13" lengthAdjust="spacing" textLength="125" x="146.5" y="406.8311">Send audio and video</text><polygon fill="#0A9EFD" points="435,427.5347,445,431.5347,435,435.5347,439,431.5347" style="stroke:#0A9EFD;stroke-width:1.0;"/><line style="stroke:#0A9EFD;stroke-width:2.0;" x1="175" x2="441" y1="431.5347" y2="431.5347"/><text fill="#0A9EFD" font-family="Arial" font-size="13" lengthAdjust="spacing" textLength="179" x="221.5" y="426.7798">Start thread to send audio data</text><polygon fill="#0A9EFD" points="435,456.4834,445,460.4834,435,464.4834,439,460.4834" style="stroke:#0A9EFD;stroke-width:1.0;"/><line style="stroke:#0A9EFD;stroke-width:2.0;" x1="175" x2="441" y1="460.4834" y2="460.4834"/><text fill="#0A9EFD" font-family="Arial" font-size="13" lengthAdjust="spacing" textLength="179" x="221.5" y="455.7285">Start thread to send video data</text><path d="M10,482.4834 L197,482.4834 L197,489.4321 L187,499.4321 L10,499.4321 L10,482.4834 " fill="#EEEEEE" style="stroke:#0A9EFD;stroke-width:1.5;"/><rect fill="none" height="132.7437" style="stroke:#0A9EFD;stroke-width:2.0;" width="483" x="10" y="482.4834"/><text fill="#000000" font-family="Arial" font-size="13" lengthAdjust="spacing" textLength="142" x="25" y="495.6772">Receive audio and video</text><polygon fill="#0A9EFD" points="186,516.3809,176,520.3809,186,524.3809,182,520.3809" style="stroke:#0A9EFD;stroke-width:1.0;"/><line style="stroke:#0A9EFD;stroke-width:2.0;" x1="180" x2="446" y1="520.3809" y2="520.3809"/><text fill="#0A9EFD" font-family="Arial" font-size="13" lengthAdjust="spacing" textLength="133" x="244.5" y="515.626">On audio data callback</text><polygon fill="#0A9EFD" points="49,545.3296,39,549.3296,49,553.3296,45,549.3296" style="stroke:#0A9EFD;stroke-width:1.0;"/><line style="stroke:#0A9EFD;stroke-width:2.0;" x1="43" x2="174" y1="549.3296" y2="549.3296"/><text fill="#0A9EFD" font-family="Arial" font-size="13" lengthAdjust="spacing" textLength="113" x="50" y="544.5747">Render audio frame</text><polygon fill="#0A9EFD" points="186,574.2783,176,578.2783,186,582.2783,182,578.2783" style="stroke:#0A9EFD;stroke-width:1.0;"/><line style="stroke:#0A9EFD;stroke-width:2.0;" x1="180" x2="446" y1="578.2783" y2="578.2783"/><text fill="#0A9EFD" font-family="Arial" font-size="13" lengthAdjust="spacing" textLength="133" x="244.5" y="573.5234">On video data callback</text><polygon fill="#0A9EFD" points="49,603.2271,39,607.2271,49,611.2271,45,607.2271" style="stroke:#0A9EFD;stroke-width:1.0;"/><line style="stroke:#0A9EFD;stroke-width:2.0;" x1="43" x2="174" y1="607.2271" y2="607.2271"/><text fill="#0A9EFD" font-family="Arial" font-size="13" lengthAdjust="spacing" textLength="113" x="50" y="602.4722">Render video frame</text><path d="M10,629.2271 L139,629.2271 L139,636.1758 L129,646.1758 L10,646.1758 L10,629.2271 " fill="#EEEEEE" style="stroke:#0A9EFD;stroke-width:1.5;"/><rect fill="none" height="74.8462" style="stroke:#0A9EFD;stroke-width:2.0;" width="483" x="10" y="629.2271"/><text fill="#000000" font-family="Arial" font-size="13" lengthAdjust="spacing" textLength="84" x="25" y="642.4209">Leave channel</text><polygon fill="#0A9EFD" points="163,663.1245,173,667.1245,163,671.1245,167,667.1245" style="stroke:#0A9EFD;stroke-width:1.0;"/><line style="stroke:#0A9EFD;stroke-width:2.0;" x1="38" x2="169" y1="667.1245" y2="667.1245"/><text fill="#0A9EFD" font-family="Arial" font-size="13" lengthAdjust="spacing" textLength="84" x="64.5" y="662.3696">Leave channel</text><polygon fill="#0A9EFD" points="435,692.0732,445,696.0732,435,700.0732,439,696.0732" style="stroke:#0A9EFD;stroke-width:1.0;"/><line style="stroke:#0A9EFD;stroke-width:2.0;" x1="175" x2="441" y1="696.0732" y2="696.0732"/><text fill="#0A9EFD" font-family="Arial" font-size="13" lengthAdjust="spacing" textLength="175" x="223.5" y="691.3184">Call the leave channel method</text><path d="M131.5,718.0732 L227.5,718.0732 L227.5,725.022 L217.5,735.022 L131.5,735.022 L131.5,718.0732 " fill="#EEEEEE" style="stroke:#0A9EFD;stroke-width:1.5;"/><rect fill="none" height="74.8462" style="stroke:#0A9EFD;stroke-width:2.0;" width="361.5" x="131.5" y="718.0732"/><text fill="#000000" font-family="Arial" font-size="13" lengthAdjust="spacing" textLength="51" x="146.5" y="731.2671">Clean up</text><polygon fill="#0A9EFD" points="435,751.9707,445,755.9707,435,759.9707,439,755.9707" style="stroke:#0A9EFD;stroke-width:1.0;"/><line style="stroke:#0A9EFD;stroke-width:2.0;" x1="175" x2="441" y1="755.9707" y2="755.9707"/><text fill="#0A9EFD" font-family="Arial" font-size="13" lengthAdjust="spacing" textLength="134" x="244" y="751.2158">Destroy the connection</text><polygon fill="#0A9EFD" points="435,780.9194,445,784.9194,435,788.9194,439,784.9194" style="stroke:#0A9EFD;stroke-width:1.0;"/><line style="stroke:#0A9EFD;stroke-width:2.0;" x1="175" x2="441" y1="784.9194" y2="784.9194"/><text fill="#0A9EFD" font-family="Arial" font-size="13" lengthAdjust="spacing" textLength="248" x="187" y="780.1646">Call the finish method to release resources</text><!--SRC=[XPF1Rjim38RlUWhEzwJte1ZG9i2GjTYAk1smqy1AJA96eJn9Bfe-r1vYJpPAzcedoxPJ7FFdz_yIwNUMjMiDmNHwyMmD-KaqkmlS-83VuixorBPxf_9JWm7tKDFtbbZJX-3RvjgRmpNgtKR-i9bxvmEaW1n5IvoKGftaLVKGALI04HxgbLAF_WMghxuDW4rJAT4cgss3dA1Q-dke5pT5V7LtfuWDYBvlkignJZhgnUh-qyyVVSTowCYX6icRG7vA9n1lB9CIC4pUP_uCbXoJS2mcWhIblmipg7iDladMSnpAonbyeM3N1t1M4qS2b1IMhN2TVUt8fqnfcWVAlWZQCvFEr9p_T_QFtd8kRb6gJidblQKvAHr1qRbYkAUqzGQIXwS_rPUJJlsPksfVWzXgJJ625igZZ7QSfyvtYwsnlfolhCkHTPraCk8jnog-SMWmcF3_seBij2FV5McoptJMUdIEmMX8tplArSq4muP2BrlBCjCfOR3_9w6JTOHHp5j22NbkMiULiyDoOqa_kZ5yBWAMJJxgNb1CmHyAOBH2PmtMievnErgAG8AKLGqKvLkKeHUxNm00]--></g></svg>