<svg xmlns="http://www.w3.org/2000/svg" xmlns:xlink="http://www.w3.org/1999/xlink" contentStyleType="text/css" data-diagram-type="SEQUENCE" height="1136px" preserveAspectRatio="none" style="width:477px;height:1136px;" version="1.1" viewBox="0 0 477 1136" width="477px" zoomAndPan="magnify"><?plantuml 1.2026.4?><defs/><g><rect fill="none" height="1134.4028" style="stroke:#0A9EFD;stroke-width:1;" width="475.9153" x="0" y="0"/><rect fill="#999999" fill-opacity="0.33333" height="1123.4028" style="stroke:#0A9EFD;stroke-width:0.5;" width="74.9033" x="108.8975" y="6"/><text fill="#0A9EFD" font-family="sans-serif" font-size="13" font-weight="700" lengthAdjust="spacing" textLength="56.3354" x="118.1814" y="19.4951">Your app</text><rect fill="#999999" fill-opacity="0.33333" height="1123.4028" style="stroke:#0A9EFD;stroke-width:0.5;" width="78.3257" x="377.5896" y="6"/><text fill="#0A9EFD" font-family="sans-serif" font-size="13" font-weight="700" lengthAdjust="spacing" textLength="37.5591" x="397.9729" y="19.4951">Agora</text><rect fill="none" height="129.7949" style="stroke:#0A9EFD;stroke-width:2;" width="359.0178" x="102.8975" y="103.0986"/><rect fill="none" height="74.8462" style="stroke:#0A9EFD;stroke-width:2;" width="359.0178" x="102.8975" y="246.8936"/><rect fill="none" height="191.5898" style="stroke:#0A9EFD;stroke-width:2;" width="451.9153" x="10" y="335.7397"/><rect fill="none" height="221.4873" style="stroke:#0A9EFD;stroke-width:2;" width="451.9153" x="10" y="541.3296"/><rect fill="none" height="103.7949" style="stroke:#0A9EFD;stroke-width:2;" width="451.9153" x="10" y="776.8169"/><rect fill="none" height="133.6924" style="stroke:#0A9EFD;stroke-width:2;" width="359.0178" x="102.8975" y="894.6118"/><g class="participant-lifeline" data-entity-uid="part1" data-qualified-name="USR" data-source-line="4" id="part1-lifeline"><g><title>User</title><rect fill="#000000" fill-opacity="0.00000" height="959.2056" width="8" x="33.7793" y="86.0986"/><line style="stroke:#0A9EFD;stroke-width:0.5;stroke-dasharray:5,5;" x1="37" x2="37" y1="86.0986" y2="1045.3042"/></g></g><g class="participant-lifeline" data-entity-uid="part2" data-qualified-name="APP" data-source-line="7" id="part2-lifeline"><g><title>IoT SDK</title><rect fill="#000000" fill-opacity="0.00000" height="959.2056" width="8" x="142.3491" y="86.0986"/><line style="stroke:#0A9EFD;stroke-width:0.5;stroke-dasharray:5,5;" x1="145.8975" x2="145.8975" y1="86.0986" y2="1045.3042"/></g></g><g class="participant-lifeline" data-entity-uid="part3" data-qualified-name="API" data-source-line="11" id="part3-lifeline"><g><title>SDRTN.sup....sup.</title><rect fill="#000000" fill-opacity="0.00000" height="959.2056" width="8" x="412.7524" y="86.0986"/><line style="stroke:#0A9EFD;stroke-width:0.5;stroke-dasharray:5,5;" x1="416.5896" x2="416.5896" y1="86.0986" y2="1045.3042"/></g></g><g class="participant participant-head" data-entity-uid="part1" data-qualified-name="USR" data-source-line="4" id="part1-head"><text fill="#0A9EFD" font-family="Arial" font-size="14" lengthAdjust="spacing" textLength="29.5586" x="20" y="83.1318">User</text><ellipse cx="37.7793" cy="16" fill="none" rx="8" ry="8" style="stroke:#0A9EFD;stroke-width:3;"/><path d="M37.7793,24 L37.7793,51 M24.7793,32 L50.7793,32 M37.7793,51 L24.7793,66 M37.7793,51 L50.7793,66" fill="none" style="stroke:#0A9EFD;stroke-width:3;"/></g><g class="participant participant-tail" data-entity-uid="part1" data-qualified-name="USR" data-source-line="4" id="part1-tail"><text fill="#0A9EFD" font-family="Arial" font-size="14" lengthAdjust="spacing" textLength="29.5586" x="20" y="1057.436">User</text><ellipse cx="37.7793" cy="1071.4028" fill="none" rx="8" ry="8" style="stroke:#0A9EFD;stroke-width:3;"/><path d="M37.7793,1079.4028 L37.7793,1106.4028 M24.7793,1087.4028 L50.7793,1087.4028 M37.7793,1106.4028 L24.7793,1121.4028 M37.7793,1106.4028 L50.7793,1121.4028" fill="none" style="stroke:#0A9EFD;stroke-width:3;"/></g><g class="participant participant-head" data-entity-uid="part2" data-qualified-name="APP" data-source-line="7" id="part2-head"><rect fill="none" height="30.0986" rx="2.5" ry="2.5" style="stroke:#0A9EFD;stroke-width:2;" width="66.9033" x="112.8975" y="55"/><text fill="#0A9EFD" font-family="Arial" font-size="14" lengthAdjust="spacing" textLength="52.9033" x="119.8975" y="75.1318">IoT SDK</text></g><g class="participant participant-tail" data-entity-uid="part2" data-qualified-name="APP" data-source-line="7" id="part2-tail"><rect fill="none" height="30.0986" rx="2.5" ry="2.5" style="stroke:#0A9EFD;stroke-width:2;" width="66.9033" x="112.8975" y="1044.3042"/><text fill="#0A9EFD" font-family="Arial" font-size="14" lengthAdjust="spacing" textLength="52.9033" x="119.8975" y="1064.436">IoT SDK</text></g><g class="participant participant-head" data-entity-uid="part3" data-qualified-name="API" data-source-line="11" id="part3-head"><rect fill="none" height="32.6489" rx="2.5" ry="2.5" style="stroke:#0A9EFD;stroke-width:2;" width="70.3257" x="381.5896" y="52.4497"/><text fill="#0A9EFD" font-family="Arial" font-size="14" lengthAdjust="spacing" textLength="48.2207" x="388.5896" y="75.1318">SDRTN</text><text fill="#0A9EFD" font-family="Arial" font-size="11" lengthAdjust="spacing" textLength="8.105" x="436.8103" y="69.7676">&#174;</text></g><g class="participant participant-tail" data-entity-uid="part3" data-qualified-name="API" data-source-line="11" id="part3-tail"><rect fill="none" height="32.6489" rx="2.5" ry="2.5" style="stroke:#0A9EFD;stroke-width:2;" width="70.3257" x="381.5896" y="1044.3042"/><text fill="#0A9EFD" font-family="Arial" font-size="14" lengthAdjust="spacing" textLength="48.2207" x="388.5896" y="1066.9863">SDRTN</text><text fill="#0A9EFD" font-family="Arial" font-size="11" lengthAdjust="spacing" textLength="8.105" x="436.8103" y="1061.6221">&#174;</text></g><path d="M102.8975,103.0986 L262.8218,103.0986 L262.8218,110.0474 L252.8218,120.0474 L102.8975,120.0474 L102.8975,103.0986" fill="#EEEEEE" style="stroke:#0A9EFD;stroke-width:1.5;"/><rect fill="none" height="129.7949" style="stroke:#0A9EFD;stroke-width:2;" width="359.0178" x="102.8975" y="103.0986"/><text fill="#000000" font-family="Arial" font-size="13" lengthAdjust="spacing" textLength="114.9243" x="117.8975" y="116.2925">Setup Agora engine</text><g class="message" data-entity-1="part2" data-entity-2="part2" data-source-line="15" id="msg1"><line style="stroke:#0A9EFD;stroke-width:2;" x1="146.3491" x2="188.3491" y1="140.9961" y2="140.9961"/><line style="stroke:#0A9EFD;stroke-width:2;" x1="188.3491" x2="188.3491" y1="140.9961" y2="153.9961"/><line style="stroke:#0A9EFD;stroke-width:2;" x1="147.3491" x2="188.3491" y1="153.9961" y2="153.9961"/><polygon fill="#0A9EFD" points="157.3491,149.9961,147.3491,153.9961,157.3491,157.9961,153.3491,153.9961" style="stroke:#0A9EFD;stroke-width:1;stroke-linejoin:miter;stroke-miterlimit:10;"/><text fill="#0A9EFD" font-family="Arial" font-size="13" lengthAdjust="spacing" textLength="162.6206" x="153.3491" y="136.2412">Instantiate the Agora engine</text></g><g class="message" data-entity-1="part2" data-entity-2="part2" data-source-line="16" id="msg2"><line style="stroke:#0A9EFD;stroke-width:2;" x1="146.3491" x2="188.3491" y1="182.9448" y2="182.9448"/><line style="stroke:#0A9EFD;stroke-width:2;" x1="188.3491" x2="188.3491" y1="182.9448" y2="195.9448"/><line style="stroke:#0A9EFD;stroke-width:2;" x1="147.3491" x2="188.3491" y1="195.9448" y2="195.9448"/><polygon fill="#0A9EFD" points="157.3491,191.9448,147.3491,195.9448,157.3491,199.9448,153.3491,195.9448" style="stroke:#0A9EFD;stroke-width:1;stroke-linejoin:miter;stroke-miterlimit:10;"/><text fill="#0A9EFD" font-family="Arial" font-size="13" lengthAdjust="spacing" textLength="107.6943" x="153.3491" y="178.1899">Set engine options</text></g><g class="message" data-entity-1="part2" data-entity-2="part3" data-source-line="17" id="msg3"><polygon fill="#0A9EFD" points="404.7524,220.8936,414.7524,224.8936,404.7524,228.8936,408.7524,224.8936" style="stroke:#0A9EFD;stroke-width:1;stroke-linejoin:miter;stroke-miterlimit:10;"/><line style="stroke:#0A9EFD;stroke-width:2;" x1="146.3491" x2="410.7524" y1="224.8936" y2="224.8936"/><text fill="#0A9EFD" font-family="Arial" font-size="13" lengthAdjust="spacing" textLength="152.4644" x="205.3186" y="220.1387">Verify license and initialize</text></g><path d="M102.8975,246.8936 L308.3154,246.8936 L308.3154,253.8423 L298.3154,263.8423 L102.8975,263.8423 L102.8975,246.8936" fill="#EEEEEE" style="stroke:#0A9EFD;stroke-width:1.5;"/><rect fill="none" height="74.8462" style="stroke:#0A9EFD;stroke-width:2;" width="359.0178" x="102.8975" y="246.8936"/><text fill="#000000" font-family="Arial" font-size="13" lengthAdjust="spacing" textLength="160.418" x="117.8975" y="260.0874">Create multiple connections</text><g class="message" data-entity-1="part2" data-entity-2="part3" data-source-line="21" id="msg4"><polygon fill="#0A9EFD" points="404.7524,280.791,414.7524,284.791,404.7524,288.791,408.7524,284.791" style="stroke:#0A9EFD;stroke-width:1;stroke-linejoin:miter;stroke-miterlimit:10;"/><line style="stroke:#0A9EFD;stroke-width:2;" x1="146.3491" x2="410.7524" y1="284.791" y2="284.791"/><text fill="#0A9EFD" font-family="Arial" font-size="13" lengthAdjust="spacing" textLength="117.0698" x="223.0159" y="280.0361">Create connection-1</text></g><g class="message" data-entity-1="part2" data-entity-2="part3" data-source-line="22" id="msg5"><polygon fill="#0A9EFD" points="404.7524,309.7397,414.7524,313.7397,404.7524,317.7397,408.7524,313.7397" style="stroke:#0A9EFD;stroke-width:1;stroke-linejoin:miter;stroke-miterlimit:10;"/><line style="stroke:#0A9EFD;stroke-width:2;" x1="146.3491" x2="410.7524" y1="313.7397" y2="313.7397"/><text fill="#0A9EFD" font-family="Arial" font-size="13" lengthAdjust="spacing" textLength="117.0698" x="223.0159" y="308.9849">Create connection-2</text></g><path d="M10,335.7397 L215.4116,335.7397 L215.4116,342.6885 L205.4116,352.6885 L10,352.6885 L10,335.7397" fill="#EEEEEE" style="stroke:#0A9EFD;stroke-width:1.5;"/><rect fill="none" height="191.5898" style="stroke:#0A9EFD;stroke-width:2;" width="451.9153" x="10" y="335.7397"/><text fill="#000000" font-family="Arial" font-size="13" lengthAdjust="spacing" textLength="160.4116" x="25" y="348.9336">Stream to multiple channels</text><g class="message" data-entity-1="part1" data-entity-2="part2" data-source-line="26" id="msg6"><polygon fill="#0A9EFD" points="134.3491,369.6372,144.3491,373.6372,134.3491,377.6372,138.3491,373.6372" style="stroke:#0A9EFD;stroke-width:1;stroke-linejoin:miter;stroke-miterlimit:10;"/><line style="stroke:#0A9EFD;stroke-width:2;" x1="37.7793" x2="140.3491" y1="373.6372" y2="373.6372"/><text fill="#0A9EFD" font-family="Arial" font-size="13" lengthAdjust="spacing" textLength="79.498" x="52.3152" y="368.8823">Join channels</text></g><g class="message" data-entity-1="part2" data-entity-2="part3" data-source-line="27" id="msg7"><polygon fill="#0A9EFD" points="404.7524,398.5859,414.7524,402.5859,404.7524,406.5859,408.7524,402.5859" style="stroke:#0A9EFD;stroke-width:1;stroke-linejoin:miter;stroke-miterlimit:10;"/><line style="stroke:#0A9EFD;stroke-width:2;" x1="146.3491" x2="410.7524" y1="402.5859" y2="402.5859"/><text fill="#0A9EFD" font-family="Arial" font-size="13" lengthAdjust="spacing" textLength="208.1396" x="177.481" y="397.8311">Join channel-1 using connectionId-1</text></g><g class="message" data-entity-1="part2" data-entity-2="part3" data-source-line="28" id="msg8"><polygon fill="#0A9EFD" points="404.7524,427.5347,414.7524,431.5347,404.7524,435.5347,408.7524,431.5347" style="stroke:#0A9EFD;stroke-width:1;stroke-linejoin:miter;stroke-miterlimit:10;"/><line style="stroke:#0A9EFD;stroke-width:2;" x1="146.3491" x2="410.7524" y1="431.5347" y2="431.5347"/><text fill="#0A9EFD" font-family="Arial" font-size="13" lengthAdjust="spacing" textLength="208.1396" x="177.481" y="426.7798">Join channel-2 using connectionId-2</text></g><g class="message" data-entity-1="part2" data-entity-2="part3" data-source-line="29" id="msg9"><polygon fill="#0A9EFD" points="404.7524,471.4321,414.7524,475.4321,404.7524,479.4321,408.7524,475.4321" style="stroke:#0A9EFD;stroke-width:1;stroke-linejoin:miter;stroke-miterlimit:10;"/><line style="stroke:#0A9EFD;stroke-width:2;" x1="146.3491" x2="410.7524" y1="475.4321" y2="475.4321"/><text fill="#0A9EFD" font-family="Arial" font-size="13" lengthAdjust="spacing" textLength="189.376" x="185.0569" y="455.7285">Send audio and video data using</text><text fill="#0A9EFD" font-family="Arial" font-size="13" lengthAdjust="spacing" textLength="218.2388" x="172.4314" y="470.6772">connectionId-1 to stream to channel-1</text></g><g class="message" data-entity-1="part2" data-entity-2="part3" data-source-line="30" id="msg10"><polygon fill="#0A9EFD" points="404.7524,515.3296,414.7524,519.3296,404.7524,523.3296,408.7524,519.3296" style="stroke:#0A9EFD;stroke-width:1;stroke-linejoin:miter;stroke-miterlimit:10;"/><line style="stroke:#0A9EFD;stroke-width:2;" x1="146.3491" x2="410.7524" y1="519.3296" y2="519.3296"/><text fill="#0A9EFD" font-family="Arial" font-size="13" lengthAdjust="spacing" textLength="189.376" x="185.0569" y="499.626">Send audio and video data using</text><text fill="#0A9EFD" font-family="Arial" font-size="13" lengthAdjust="spacing" textLength="218.2388" x="172.4314" y="514.5747">connectionId-2 to stream to channel-2</text></g><path d="M10,541.3296 L294.9033,541.3296 L294.9033,548.2783 L284.9033,558.2783 L10,558.2783 L10,541.3296" fill="#EEEEEE" style="stroke:#0A9EFD;stroke-width:1.5;"/><rect fill="none" height="221.4873" style="stroke:#0A9EFD;stroke-width:2;" width="451.9153" x="10" y="541.3296"/><text fill="#000000" font-family="Arial" font-size="13" lengthAdjust="spacing" textLength="239.9033" x="25" y="554.5234">Push multiple streams to a single channel</text><g class="message" data-entity-1="part1" data-entity-2="part2" data-source-line="34" id="msg11"><polygon fill="#0A9EFD" points="134.3491,575.2271,144.3491,579.2271,134.3491,583.2271,138.3491,579.2271" style="stroke:#0A9EFD;stroke-width:1;stroke-linejoin:miter;stroke-miterlimit:10;"/><line style="stroke:#0A9EFD;stroke-width:2;" x1="37.7793" x2="140.3491" y1="579.2271" y2="579.2271"/><text fill="#0A9EFD" font-family="Arial" font-size="13" lengthAdjust="spacing" textLength="72.998" x="55.5652" y="574.4722">Join channel</text></g><g class="message" data-entity-1="part2" data-entity-2="part3" data-source-line="35" id="msg12"><polygon fill="#0A9EFD" points="404.7524,619.1245,414.7524,623.1245,404.7524,627.1245,408.7524,623.1245" style="stroke:#0A9EFD;stroke-width:1;stroke-linejoin:miter;stroke-miterlimit:10;"/><line style="stroke:#0A9EFD;stroke-width:2;" x1="146.3491" x2="410.7524" y1="623.1245" y2="623.1245"/><text fill="#0A9EFD" font-family="Arial" font-size="13" lengthAdjust="spacing" textLength="119.2471" x="220.1213" y="603.4209">Join channel-1 using</text><text fill="#0A9EFD" font-family="Arial" font-size="13" lengthAdjust="spacing" textLength="161.8843" x="200.6086" y="618.3696">connectionId-1 and userId-1</text></g><g class="message" data-entity-1="part2" data-entity-2="part3" data-source-line="36" id="msg13"><polygon fill="#0A9EFD" points="404.7524,663.022,414.7524,667.022,404.7524,671.022,408.7524,667.022" style="stroke:#0A9EFD;stroke-width:1;stroke-linejoin:miter;stroke-miterlimit:10;"/><line style="stroke:#0A9EFD;stroke-width:2;" x1="146.3491" x2="410.7524" y1="667.022" y2="667.022"/><text fill="#0A9EFD" font-family="Arial" font-size="13" lengthAdjust="spacing" textLength="119.2471" x="220.1213" y="647.3184">Join channel-1 using</text><text fill="#0A9EFD" font-family="Arial" font-size="13" lengthAdjust="spacing" textLength="161.8843" x="200.6086" y="662.2671">connectionId-2 and userId-2</text></g><g class="message" data-entity-1="part2" data-entity-2="part3" data-source-line="37" id="msg14"><polygon fill="#0A9EFD" points="404.7524,706.9194,414.7524,710.9194,404.7524,714.9194,408.7524,710.9194" style="stroke:#0A9EFD;stroke-width:1;stroke-linejoin:miter;stroke-miterlimit:10;"/><line style="stroke:#0A9EFD;stroke-width:2;" x1="146.3491" x2="410.7524" y1="710.9194" y2="710.9194"/><text fill="#0A9EFD" font-family="Arial" font-size="13" lengthAdjust="spacing" textLength="154.686" x="202.4019" y="691.2158">Send audio and video data</text><text fill="#0A9EFD" font-family="Arial" font-size="13" lengthAdjust="spacing" textLength="119.9707" x="221.5654" y="706.1646">using connectionId-1</text></g><g class="message" data-entity-1="part2" data-entity-2="part3" data-source-line="38" id="msg15"><polygon fill="#0A9EFD" points="404.7524,750.8169,414.7524,754.8169,404.7524,758.8169,408.7524,754.8169" style="stroke:#0A9EFD;stroke-width:1;stroke-linejoin:miter;stroke-miterlimit:10;"/><line style="stroke:#0A9EFD;stroke-width:2;" x1="146.3491" x2="410.7524" y1="754.8169" y2="754.8169"/><text fill="#0A9EFD" font-family="Arial" font-size="13" lengthAdjust="spacing" textLength="154.686" x="202.4019" y="735.1133">Send audio and video data</text><text fill="#0A9EFD" font-family="Arial" font-size="13" lengthAdjust="spacing" textLength="119.9707" x="221.5654" y="750.062">using connectionId-2</text></g><path d="M10,776.8169 L154.728,776.8169 L154.728,783.7656 L144.728,793.7656 L10,793.7656 L10,776.8169" fill="#EEEEEE" style="stroke:#0A9EFD;stroke-width:1.5;"/><rect fill="none" height="103.7949" style="stroke:#0A9EFD;stroke-width:2;" width="451.9153" x="10" y="776.8169"/><text fill="#000000" font-family="Arial" font-size="13" lengthAdjust="spacing" textLength="99.728" x="25" y="790.0107">Leave channel(s)</text><g class="message" data-entity-1="part1" data-entity-2="part2" data-source-line="42" id="msg16"><polygon fill="#0A9EFD" points="134.3491,810.7144,144.3491,814.7144,134.3491,818.7144,138.3491,814.7144" style="stroke:#0A9EFD;stroke-width:1;stroke-linejoin:miter;stroke-miterlimit:10;"/><line style="stroke:#0A9EFD;stroke-width:2;" x1="37.7793" x2="140.3491" y1="814.7144" y2="814.7144"/><text fill="#0A9EFD" font-family="Arial" font-size="13" lengthAdjust="spacing" textLength="84.5698" x="49.7793" y="809.9595">Leave channel</text></g><g class="message" data-entity-1="part2" data-entity-2="part3" data-source-line="43" id="msg17"><polygon fill="#0A9EFD" points="404.7524,839.6631,414.7524,843.6631,404.7524,847.6631,408.7524,843.6631" style="stroke:#0A9EFD;stroke-width:1;stroke-linejoin:miter;stroke-miterlimit:10;"/><line style="stroke:#0A9EFD;stroke-width:2;" x1="146.3491" x2="410.7524" y1="843.6631" y2="843.6631"/><text fill="#0A9EFD" font-family="Arial" font-size="13" lengthAdjust="spacing" textLength="229.8169" x="166.6423" y="838.9082">Call leave channel using connectionId-1</text></g><g class="message" data-entity-1="part2" data-entity-2="part3" data-source-line="44" id="msg18"><polygon fill="#0A9EFD" points="404.7524,868.6118,414.7524,872.6118,404.7524,876.6118,408.7524,872.6118" style="stroke:#0A9EFD;stroke-width:1;stroke-linejoin:miter;stroke-miterlimit:10;"/><line style="stroke:#0A9EFD;stroke-width:2;" x1="146.3491" x2="410.7524" y1="872.6118" y2="872.6118"/><text fill="#0A9EFD" font-family="Arial" font-size="13" lengthAdjust="spacing" textLength="229.8169" x="166.6423" y="867.8569">Call leave channel using connectionId-2</text></g><path d="M102.8975,894.6118 L199.9355,894.6118 L199.9355,901.5605 L189.9355,911.5605 L102.8975,911.5605 L102.8975,894.6118" fill="#EEEEEE" style="stroke:#0A9EFD;stroke-width:1.5;"/><rect fill="none" height="133.6924" style="stroke:#0A9EFD;stroke-width:2;" width="359.0178" x="102.8975" y="894.6118"/><text fill="#000000" font-family="Arial" font-size="13" lengthAdjust="spacing" textLength="52.0381" x="117.8975" y="907.8057">Clean up</text><g class="message" data-entity-1="part2" data-entity-2="part3" data-source-line="48" id="msg19"><polygon fill="#0A9EFD" points="404.7524,943.458,414.7524,947.458,404.7524,951.458,408.7524,947.458" style="stroke:#0A9EFD;stroke-width:1;stroke-linejoin:miter;stroke-miterlimit:10;"/><line style="stroke:#0A9EFD;stroke-width:2;" x1="146.3491" x2="410.7524" y1="947.458" y2="947.458"/><text fill="#0A9EFD" font-family="Arial" font-size="13" lengthAdjust="spacing" textLength="135.1289" x="212.1804" y="927.7544">Call destroy connection</text><text fill="#0A9EFD" font-family="Arial" font-size="13" lengthAdjust="spacing" textLength="119.9707" x="221.5654" y="942.7031">using connectionId-1</text></g><g class="message" data-entity-1="part2" data-entity-2="part3" data-source-line="49" id="msg20"><polygon fill="#0A9EFD" points="404.7524,987.3555,414.7524,991.3555,404.7524,995.3555,408.7524,991.3555" style="stroke:#0A9EFD;stroke-width:1;stroke-linejoin:miter;stroke-miterlimit:10;"/><line style="stroke:#0A9EFD;stroke-width:2;" x1="146.3491" x2="410.7524" y1="991.3555" y2="991.3555"/><text fill="#0A9EFD" font-family="Arial" font-size="13" lengthAdjust="spacing" textLength="135.1289" x="212.1804" y="971.6519">Call destroy connection</text><text fill="#0A9EFD" font-family="Arial" font-size="13" lengthAdjust="spacing" textLength="119.9707" x="221.5654" y="986.6006">using connectionId-2</text></g><g class="message" data-entity-1="part2" data-entity-2="part3" data-source-line="50" id="msg21"><polygon fill="#0A9EFD" points="404.7524,1016.3042,414.7524,1020.3042,404.7524,1024.3042,408.7524,1020.3042" style="stroke:#0A9EFD;stroke-width:1;stroke-linejoin:miter;stroke-miterlimit:10;"/><line style="stroke:#0A9EFD;stroke-width:2;" x1="146.3491" x2="410.7524" y1="1020.3042" y2="1020.3042"/><text fill="#0A9EFD" font-family="Arial" font-size="13" lengthAdjust="spacing" textLength="246.4033" x="158.3491" y="1015.5493">Call the finish method to release resources</text></g><?plantuml-src fLJRRjD047ttLmn-WeSaYX-hgbARIiY0K5ItI4YLqEAT9gjiPfUzL8IFuYFuCcPT4zia9XLzyMtEEJDpPhol5DKwIeJfTFQe99g9bvkPM1adllYDegcAMvsb9okSs4A5to9IZM-TYVRAoDsLg3ShVY6vCDeu24wGPonIo39H1_wKttbqEGWFTzLDbdqrto7_RA83OMsUCJQeMbb10VBIt49r_Ru1NowN6P84nhUaorJMNupg-kRsuxcFzkBNp_DPkhVaiYEd-YoN7lZQQ03IIX5cd08c5odJ6PJa0oig4H326iU1hDD-1cE3CkIxS7a6dz2fXnreLIDv1C55A5AigzKFJ3NzgMVXCENQHXsKrGYr8SBwKB35TU7974u0YdwUAd1y2y7qKgq5OxNFU23xljuPHLsadw0VuUJHArhrqfLoCX_75yVmnG1VfKc9A9Lfx6hs4AG8egNUqp1PwiNlkzeNzXBDuhZcmCXbzElEmoUmJsW1IRBpTTJMqwuUj9gAZ_p__Dla-LXNFVfpFR-dOmE6bx0BwFlu0SNZtglN_it0ha5mkEP2Qz3zyEbDV1vdCEK5mmcYFTIHo3CtknvtnAl_fnQ7r7GMFV09adOFmzh8j74EkKe-NHnwFaXhz4q7lm40?></g></svg>