<?xml version="1.0" encoding="UTF-8" standalone="no"?><svg xmlns="http://www.w3.org/2000/svg" xmlns:xlink="http://www.w3.org/1999/xlink" contentStyleType="text/css" height="357px" preserveAspectRatio="none" style="width:513px;height:357px;" version="1.1" viewBox="0 0 513 357" width="513px" zoomAndPan="magnify"><defs/><g><rect fill="none" height="355.2656" style="stroke:#0A9EFD;stroke-width:1.0;" width="511" x="0" y="0"/><rect fill="#F3F3F3" height="345.2656" style="stroke:#0A9EFD;stroke-width:0.5;" width="105" x="209" y="6"/><text fill="#000000" font-family="sans-serif" font-size="13" font-weight="bold" lengthAdjust="spacing" textLength="99" x="212" y="19.4951">Your IoT device</text><rect fill="#F3F3F3" height="345.2656" style="stroke:#0A9EFD;stroke-width:0.5;" width="191" x="316" y="6"/><text fill="#000000" font-family="sans-serif" font-size="13" font-weight="bold" lengthAdjust="spacing" textLength="38" x="392.5" y="19.4951">Agora</text><line style="stroke:#0A9EFD;stroke-width:0.5;stroke-dasharray:5.0,5.0;" x1="22" x2="22" y1="87.6094" y2="265.6563"/><line style="stroke:#0A9EFD;stroke-width:0.5;stroke-dasharray:5.0,5.0;" x1="261.5" x2="261.5" y1="87.6094" y2="265.6563"/><line style="stroke:#0A9EFD;stroke-width:0.5;stroke-dasharray:5.0,5.0;" x1="368" x2="368" y1="87.6094" y2="265.6563"/><line style="stroke:#0A9EFD;stroke-width:0.5;stroke-dasharray:5.0,5.0;" x1="465" x2="465" y1="87.6094" y2="265.6563"/><text fill="#0A9EFD" font-family="Roboto" font-size="14" font-weight="bold" lengthAdjust="spacing" textLength="28" x="5" y="84.5332">You</text><ellipse cx="22" cy="16" fill="none" rx="8" ry="8" style="stroke:#0A9EFD;stroke-width:3.0;"/><path d="M22,24 L22,51 M9,32 L35,32 M22,51 L9,66 M22,51 L35,66 " fill="none" style="stroke:#0A9EFD;stroke-width:3.0;"/><text fill="#0A9EFD" font-family="Roboto" font-size="14" font-weight="bold" lengthAdjust="spacing" textLength="28" x="5" y="279.1895">You</text><ellipse cx="22" cy="293.2656" fill="none" rx="8" ry="8" style="stroke:#0A9EFD;stroke-width:3.0;"/><path d="M22,301.2656 L22,328.2656 M9,309.2656 L35,309.2656 M22,328.2656 L9,343.2656 M22,328.2656 L35,343.2656 " fill="none" style="stroke:#0A9EFD;stroke-width:3.0;"/><rect fill="#FFFFFF" height="31.6094" rx="2.5" ry="2.5" style="stroke:#0A9EFD;stroke-width:2.0;" width="68" x="227.5" y="55"/><text fill="#0A9EFD" font-family="Roboto" font-size="14" font-weight="bold" lengthAdjust="spacing" textLength="54" x="234.5" y="76.5332">IoT SDK</text><rect fill="#FFFFFF" height="31.6094" rx="2.5" ry="2.5" style="stroke:#0A9EFD;stroke-width:2.0;" width="68" x="227.5" y="264.6563"/><text fill="#0A9EFD" font-family="Roboto" font-size="14" font-weight="bold" lengthAdjust="spacing" textLength="54" x="234.5" y="286.1895">IoT SDK</text><rect fill="#FFFFFF" height="31.6094" rx="2.5" ry="2.5" style="stroke:#0A9EFD;stroke-width:2.0;" width="97" x="320" y="55"/><text fill="#0A9EFD" font-family="Roboto" font-size="14" font-weight="bold" lengthAdjust="spacing" textLength="83" x="327" y="76.5332">Agora Sales</text><rect fill="#FFFFFF" height="31.6094" rx="2.5" ry="2.5" style="stroke:#0A9EFD;stroke-width:2.0;" width="97" x="320" y="264.6563"/><text fill="#0A9EFD" font-family="Roboto" font-size="14" font-weight="bold" lengthAdjust="spacing" textLength="83" x="327" y="286.1895">Agora Sales</text><rect fill="#FFFFFF" height="31.6094" rx="2.5" ry="2.5" style="stroke:#0A9EFD;stroke-width:2.0;" width="76" x="427" y="55"/><text fill="#0A9EFD" font-family="Roboto" font-size="14" font-weight="bold" lengthAdjust="spacing" textLength="62" x="434" y="76.5332">REST API</text><rect fill="#FFFFFF" height="31.6094" rx="2.5" ry="2.5" style="stroke:#0A9EFD;stroke-width:2.0;" width="76" x="427" y="264.6563"/><text fill="#0A9EFD" font-family="Roboto" font-size="14" font-weight="bold" lengthAdjust="spacing" textLength="62" x="434" y="286.1895">REST API</text><polygon fill="#0A9EFD" points="356.5,117.2188,366.5,121.2188,356.5,125.2188,360.5,121.2188" style="stroke:#0A9EFD;stroke-width:1.0;"/><line style="stroke:#0A9EFD;stroke-width:2.0;" x1="22" x2="362.5" y1="121.2188" y2="121.2188"/><text fill="#0A9EFD" font-family="Roboto" font-size="14" font-weight="bold" lengthAdjust="spacing" textLength="284" x="53.25" y="116.1426">Contact Agora sales to request a license</text><polygon fill="#0A9EFD" points="33,148.8281,23,152.8281,33,156.8281,29,152.8281" style="stroke:#0A9EFD;stroke-width:1.0;"/><line style="stroke:#0A9EFD;stroke-width:2.0;" x1="27" x2="367.5" y1="152.8281" y2="152.8281"/><text fill="#0A9EFD" font-family="Roboto" font-size="14" font-weight="bold" lengthAdjust="spacing" textLength="175" x="107.75" y="147.752">Send license information</text><polygon fill="#0A9EFD" points="453,180.4375,463,184.4375,453,188.4375,457,184.4375" style="stroke:#0A9EFD;stroke-width:1.0;"/><line style="stroke:#0A9EFD;stroke-width:2.0;" x1="22" x2="459" y1="184.4375" y2="184.4375"/><text fill="#0A9EFD" font-family="Roboto" font-size="14" font-weight="bold" lengthAdjust="spacing" textLength="139" x="174" y="179.3613">Activate the license</text><polygon fill="#0A9EFD" points="33,212.0469,23,216.0469,33,220.0469,29,216.0469" style="stroke:#0A9EFD;stroke-width:1.0;"/><line style="stroke:#0A9EFD;stroke-width:2.0;" x1="27" x2="464" y1="216.0469" y2="216.0469"/><text fill="#0A9EFD" font-family="Roboto" font-size="14" font-weight="bold" lengthAdjust="spacing" textLength="140" x="173.5" y="210.9707">Send activation info</text><polygon fill="#0A9EFD" points="249.5,243.6563,259.5,247.6563,249.5,251.6563,253.5,247.6563" style="stroke:#0A9EFD;stroke-width:1.0;"/><line style="stroke:#0A9EFD;stroke-width:2.0;" x1="22" x2="255.5" y1="247.6563" y2="247.6563"/><text fill="#0A9EFD" font-family="Roboto" font-size="14" font-weight="bold" lengthAdjust="spacing" textLength="201" x="41.25" y="242.5801">Write a license to the device</text><!--SRC=[NP11JiGm34NtESMd- -405KAgW4K5Yseo2B529ZLWqKc6n1rnV9AqC6Aszd_FNxuGxwPvPD1xYFIIFiLVohoVZ26d8Q9v3dC3IdYqMsDUmtUTHFHXXv6FuhWn1uegJWxa5KrPsDlxodJ3ODYFoDZATkNA6L5di3HngfJj7lu7jdTsbrtzwknFpbmAc-j2jBW9NdDdBBfKTD20o5yp9mLXocLzuWfTRHR85jMwWFYt4FUa4lolELzhqJcL8ob3F_ZSKWFLGaigmrLqCWmjdg9a_Az2wLLSomED-G40]--></g></svg>