<?xml version="1.0" encoding="us-ascii" standalone="no"?><svg xmlns="http://www.w3.org/2000/svg" xmlns:xlink="http://www.w3.org/1999/xlink" contentStyleType="text/css" height="1183px" preserveAspectRatio="none" style="width:555px;height:1183px;" version="1.1" viewBox="0 0 555 1183" width="555px" zoomAndPan="magnify"><defs/><g><rect fill="none" height="1181.5054" style="stroke:#0A9EFD;stroke-width:1.0;" width="553.5" x="0" y="0"/><rect fill="#999999" fill-opacity="0.33333" height="1171.5054" style="stroke:#0A9EFD;stroke-width:0.5;" width="74" x="201.5" y="6"/><text fill="#0A9EFD" font-family="sans-serif" font-size="13" font-weight="bold" lengthAdjust="spacing" textLength="57" x="210" y="19.4951">Your app</text><rect fill="#999999" fill-opacity="0.33333" height="1171.5054" style="stroke:#0A9EFD;stroke-width:0.5;" width="74" x="469.5" y="6"/><text fill="#0A9EFD" font-family="sans-serif" font-size="13" font-weight="bold" lengthAdjust="spacing" textLength="38" x="487.5" y="19.4951">Agora</text><rect fill="none" height="173.6924" style="stroke:#0A9EFD;stroke-width:2.0;" width="354" x="195.5" y="103.0986"/><rect fill="none" height="189.6411" style="stroke:#0A9EFD;stroke-width:2.0;" width="539.5" x="10" y="290.791"/><rect fill="none" height="103.7949" style="stroke:#0A9EFD;stroke-width:2.0;" width="539.5" x="10" y="494.4321"/><rect fill="none" height="145.7437" style="stroke:#0A9EFD;stroke-width:2.0;" width="354" x="195.5" y="612.2271"/><rect fill="none" height="304.436" style="stroke:#0A9EFD;stroke-width:2.0;" width="539.5" x="10" y="771.9707"/><line style="stroke:#0A9EFD;stroke-width:0.5;stroke-dasharray:5.0,5.0;" x1="37" x2="37" y1="86.0986" y2="1093.4067"/><line style="stroke:#0A9EFD;stroke-width:0.5;stroke-dasharray:5.0,5.0;" x1="238.5" x2="238.5" y1="86.0986" y2="1093.4067"/><line style="stroke:#0A9EFD;stroke-width:0.5;stroke-dasharray:5.0,5.0;" x1="506.5" x2="506.5" y1="86.0986" y2="1093.4067"/><text fill="#0A9EFD" font-family="Arial" font-size="14" lengthAdjust="spacing" textLength="29" x="20" y="83.1318">User</text><ellipse cx="37.5" cy="16" fill="none" rx="8" ry="8" style="stroke:#0A9EFD;stroke-width:3.0;"/><path d="M37.5,24 L37.5,51 M24.5,32 L50.5,32 M37.5,51 L24.5,66 M37.5,51 L50.5,66 " fill="none" style="stroke:#0A9EFD;stroke-width:3.0;"/><text fill="#0A9EFD" font-family="Arial" font-size="14" lengthAdjust="spacing" textLength="29" x="20" y="1105.5386">User</text><ellipse cx="37.5" cy="1119.5054" fill="none" rx="8" ry="8" style="stroke:#0A9EFD;stroke-width:3.0;"/><path d="M37.5,1127.5054 L37.5,1154.5054 M24.5,1135.5054 L50.5,1135.5054 M37.5,1154.5054 L24.5,1169.5054 M37.5,1154.5054 L50.5,1169.5054 " fill="none" style="stroke:#0A9EFD;stroke-width:3.0;"/><rect fill="none" height="30.0986" rx="2.5" ry="2.5" style="stroke:#0A9EFD;stroke-width:2.0;" width="66" x="205.5" y="55"/><text fill="#0A9EFD" font-family="Arial" font-size="14" lengthAdjust="spacing" textLength="52" x="212.5" y="75.1318">IoT SDK</text><rect fill="none" height="30.0986" rx="2.5" ry="2.5" style="stroke:#0A9EFD;stroke-width:2.0;" width="66" x="205.5" y="1092.4067"/><text fill="#0A9EFD" font-family="Arial" font-size="14" lengthAdjust="spacing" textLength="52" x="212.5" y="1112.5386">IoT SDK</text><rect fill="none" height="30.0986" rx="2.5" ry="2.5" style="stroke:#0A9EFD;stroke-width:2.0;" width="66" x="473.5" y="55"/><text fill="#0A9EFD" font-family="Arial" font-size="14" lengthAdjust="spacing" textLength="52" x="480.5" y="75.1318">SD-RTN</text><rect fill="none" height="30.0986" rx="2.5" ry="2.5" style="stroke:#0A9EFD;stroke-width:2.0;" width="66" x="473.5" y="1092.4067"/><text fill="#0A9EFD" font-family="Arial" font-size="14" lengthAdjust="spacing" textLength="52" x="480.5" y="1112.5386">SD-RTN</text><path d="M195.5,103.0986 L354.5,103.0986 L354.5,110.0474 L344.5,120.0474 L195.5,120.0474 L195.5,103.0986 " fill="#EEEEEE" style="stroke:#0A9EFD;stroke-width:1.5;"/><rect fill="none" height="173.6924" style="stroke:#0A9EFD;stroke-width:2.0;" width="354" x="195.5" y="103.0986"/><text fill="#000000" font-family="Arial" font-size="13" lengthAdjust="spacing" textLength="114" x="210.5" y="116.2925">Setup Agora engine</text><line style="stroke:#0A9EFD;stroke-width:2.0;" x1="238.5" x2="280.5" y1="140.9961" y2="140.9961"/><line style="stroke:#0A9EFD;stroke-width:2.0;" x1="280.5" x2="280.5" y1="140.9961" y2="153.9961"/><line style="stroke:#0A9EFD;stroke-width:2.0;" x1="239.5" x2="280.5" y1="153.9961" y2="153.9961"/><polygon fill="#0A9EFD" points="249.5,149.9961,239.5,153.9961,249.5,157.9961,245.5,153.9961" style="stroke:#0A9EFD;stroke-width:1.0;"/><text fill="#0A9EFD" font-family="Arial" font-size="13" lengthAdjust="spacing" textLength="191" x="245.5" y="136.2412">Instantiate the Agora RTC engine</text><line style="stroke:#0A9EFD;stroke-width:2.0;" x1="238.5" x2="280.5" y1="197.8936" y2="197.8936"/><line style="stroke:#0A9EFD;stroke-width:2.0;" x1="280.5" x2="280.5" y1="197.8936" y2="210.8936"/><line style="stroke:#0A9EFD;stroke-width:2.0;" x1="239.5" x2="280.5" y1="210.8936" y2="210.8936"/><polygon fill="#0A9EFD" points="249.5,206.8936,239.5,210.8936,249.5,214.8936,245.5,210.8936" style="stroke:#0A9EFD;stroke-width:1.0;"/><text fill="#0A9EFD" font-family="Arial" font-size="13" lengthAdjust="spacing" textLength="121" x="269.5" y="178.1899">Set options including</text><text fill="#0A9EFD" font-family="Arial" font-size="13" lengthAdjust="spacing" textLength="165" x="249.5" y="193.1387">log file path and logging level</text><polygon fill="#0A9EFD" points="494.5,235.8423,504.5,239.8423,494.5,243.8423,498.5,239.8423" style="stroke:#0A9EFD;stroke-width:1.0;"/><line style="stroke:#0A9EFD;stroke-width:2.0;" x1="238.5" x2="500.5" y1="239.8423" y2="239.8423"/><text fill="#0A9EFD" font-family="Arial" font-size="13" lengthAdjust="spacing" textLength="218" x="263.5" y="235.0874">Verify license and initialize the engine</text><polygon fill="#0A9EFD" points="494.5,264.791,504.5,268.791,494.5,272.791,498.5,268.791" style="stroke:#0A9EFD;stroke-width:1.0;"/><line style="stroke:#0A9EFD;stroke-width:2.0;" x1="238.5" x2="500.5" y1="268.791" y2="268.791"/><text fill="#0A9EFD" font-family="Arial" font-size="13" lengthAdjust="spacing" textLength="116" x="314.5" y="264.0361">Create a connection</text><path d="M10,290.791 L138,290.791 L138,297.7397 L128,307.7397 L10,307.7397 L10,290.791 " fill="#EEEEEE" style="stroke:#0A9EFD;stroke-width:1.5;"/><rect fill="none" height="189.6411" style="stroke:#0A9EFD;stroke-width:2.0;" width="539.5" x="10" y="290.791"/><text fill="#000000" font-family="Arial" font-size="13" lengthAdjust="spacing" textLength="83" x="25" y="303.9849">Join a channel</text><polygon fill="#0A9EFD" points="226.5,324.6885,236.5,328.6885,226.5,332.6885,230.5,328.6885" style="stroke:#0A9EFD;stroke-width:1.0;"/><line style="stroke:#0A9EFD;stroke-width:2.0;" x1="37.5" x2="232.5" y1="328.6885" y2="328.6885"/><text fill="#0A9EFD" font-family="Arial" font-size="13" lengthAdjust="spacing" textLength="83" x="96.5" y="323.9336">Join a channel</text><polygon fill="#0A9EFD" points="494.5,353.6372,504.5,357.6372,494.5,361.6372,498.5,357.6372" style="stroke:#0A9EFD;stroke-width:1.0;"/><line style="stroke:#0A9EFD;stroke-width:2.0;" x1="238.5" x2="500.5" y1="357.6372" y2="357.6372"/><text fill="#0A9EFD" font-family="Arial" font-size="13" lengthAdjust="spacing" textLength="215" x="265" y="352.8823">Set bandwidth estimation parameters</text><line style="stroke:#0A9EFD;stroke-width:2.0;" x1="238.5" x2="280.5" y1="401.5347" y2="401.5347"/><line style="stroke:#0A9EFD;stroke-width:2.0;" x1="280.5" x2="280.5" y1="401.5347" y2="414.5347"/><line style="stroke:#0A9EFD;stroke-width:2.0;" x1="239.5" x2="280.5" y1="414.5347" y2="414.5347"/><polygon fill="#0A9EFD" points="249.5,410.5347,239.5,414.5347,249.5,418.5347,245.5,414.5347" style="stroke:#0A9EFD;stroke-width:1.0;"/><text fill="#0A9EFD" font-family="Arial" font-size="13" lengthAdjust="spacing" textLength="229" x="245.5" y="381.8311">Specify the audio codec, sampling rate,</text><text fill="#0A9EFD" font-family="Arial" font-size="13" lengthAdjust="spacing" textLength="160" x="282" y="396.7798">and the number of channels</text><polygon fill="#0A9EFD" points="494.5,439.4834,504.5,443.4834,494.5,447.4834,498.5,443.4834" style="stroke:#0A9EFD;stroke-width:1.0;"/><line style="stroke:#0A9EFD;stroke-width:2.0;" x1="238.5" x2="500.5" y1="443.4834" y2="443.4834"/><text fill="#0A9EFD" font-family="Arial" font-size="13" lengthAdjust="spacing" textLength="164" x="290.5" y="438.7285">Call the join channel method</text><polygon fill="#0A9EFD" points="249.5,468.4321,239.5,472.4321,249.5,476.4321,245.5,472.4321" style="stroke:#0A9EFD;stroke-width:1.0;"/><line style="stroke:#0A9EFD;stroke-width:2.0;" x1="243.5" x2="505.5" y1="472.4321" y2="472.4321"/><text fill="#0A9EFD" font-family="Arial" font-size="13" lengthAdjust="spacing" textLength="192" x="276.5" y="467.6772">on join channel success callback</text><path d="M10,494.4321 L247,494.4321 L247,501.3809 L237,511.3809 L10,511.3809 L10,494.4321 " fill="#EEEEEE" style="stroke:#0A9EFD;stroke-width:1.5;"/><rect fill="none" height="103.7949" style="stroke:#0A9EFD;stroke-width:2.0;" width="539.5" x="10" y="494.4321"/><text fill="#000000" font-family="Arial" font-size="13" lengthAdjust="spacing" textLength="192" x="25" y="507.626">Send and receive audio and video</text><polygon fill="#0A9EFD" points="494.5,528.3296,504.5,532.3296,494.5,536.3296,498.5,532.3296" style="stroke:#0A9EFD;stroke-width:1.0;"/><line style="stroke:#0A9EFD;stroke-width:2.0;" x1="238.5" x2="500.5" y1="532.3296" y2="532.3296"/><text fill="#0A9EFD" font-family="Arial" font-size="13" lengthAdjust="spacing" textLength="244" x="250.5" y="527.5747">Start threads to send audio and video data</text><polygon fill="#0A9EFD" points="249.5,557.2783,239.5,561.2783,249.5,565.2783,245.5,561.2783" style="stroke:#0A9EFD;stroke-width:1.0;"/><line style="stroke:#0A9EFD;stroke-width:2.0;" x1="243.5" x2="505.5" y1="561.2783" y2="561.2783"/><text fill="#0A9EFD" font-family="Arial" font-size="13" lengthAdjust="spacing" textLength="167" x="289" y="556.5234">Receive audio and video data</text><polygon fill="#0A9EFD" points="48.5,586.2271,38.5,590.2271,48.5,594.2271,44.5,590.2271" style="stroke:#0A9EFD;stroke-width:1.0;"/><line style="stroke:#0A9EFD;stroke-width:2.0;" x1="42.5" x2="237.5" y1="590.2271" y2="590.2271"/><text fill="#0A9EFD" font-family="Arial" font-size="13" lengthAdjust="spacing" textLength="177" x="49.5" y="585.4722">Render audio and video frames</text><path d="M195.5,612.2271 L532.5,612.2271 L532.5,619.1758 L522.5,629.1758 L195.5,629.1758 L195.5,612.2271 " fill="#EEEEEE" style="stroke:#0A9EFD;stroke-width:1.5;"/><rect fill="none" height="145.7437" style="stroke:#0A9EFD;stroke-width:2.0;" width="354" x="195.5" y="612.2271"/><text fill="#000000" font-family="Arial" font-size="13" lengthAdjust="spacing" textLength="292" x="210.5" y="625.4209">Detect and respond to network bandwidth changes</text><polygon fill="#0A9EFD" points="249.5,646.1245,239.5,650.1245,249.5,654.1245,245.5,650.1245" style="stroke:#0A9EFD;stroke-width:1.0;"/><line style="stroke:#0A9EFD;stroke-width:2.0;" x1="243.5" x2="505.5" y1="650.1245" y2="650.1245"/><text fill="#0A9EFD" font-family="Arial" font-size="13" lengthAdjust="spacing" textLength="199" x="273" y="645.3696">On target bitrate changed callback</text><line style="stroke:#0A9EFD;stroke-width:2.0;" x1="238.5" x2="280.5" y1="679.0732" y2="679.0732"/><line style="stroke:#0A9EFD;stroke-width:2.0;" x1="280.5" x2="280.5" y1="679.0732" y2="692.0732"/><line style="stroke:#0A9EFD;stroke-width:2.0;" x1="239.5" x2="280.5" y1="692.0732" y2="692.0732"/><polygon fill="#0A9EFD" points="249.5,688.0732,239.5,692.0732,249.5,696.0732,245.5,692.0732" style="stroke:#0A9EFD;stroke-width:1.0;"/><text fill="#0A9EFD" font-family="Arial" font-size="13" lengthAdjust="spacing" textLength="237" x="245.5" y="674.3184">Adjust the sending bit rate and resolution</text><polygon fill="#0A9EFD" points="249.5,717.022,239.5,721.022,249.5,725.022,245.5,721.022" style="stroke:#0A9EFD;stroke-width:1.0;"/><line style="stroke:#0A9EFD;stroke-width:2.0;" x1="243.5" x2="505.5" y1="721.022" y2="721.022"/><text fill="#0A9EFD" font-family="Arial" font-size="13" lengthAdjust="spacing" textLength="241" x="252" y="716.2671">On key frame generation request callback</text><polygon fill="#0A9EFD" points="494.5,745.9707,504.5,749.9707,494.5,753.9707,498.5,749.9707" style="stroke:#0A9EFD;stroke-width:1.0;"/><line style="stroke:#0A9EFD;stroke-width:2.0;" x1="238.5" x2="500.5" y1="749.9707" y2="749.9707"/><text fill="#0A9EFD" font-family="Arial" font-size="13" lengthAdjust="spacing" textLength="102" x="321.5" y="745.2158">Send a key frame</text><path d="M10,771.9707 L245,771.9707 L245,778.9194 L235,788.9194 L10,788.9194 L10,771.9707 " fill="#EEEEEE" style="stroke:#0A9EFD;stroke-width:1.5;"/><rect fill="none" height="304.436" style="stroke:#0A9EFD;stroke-width:2.0;" width="539.5" x="10" y="771.9707"/><text fill="#000000" font-family="Arial" font-size="13" lengthAdjust="spacing" textLength="190" x="25" y="785.1646">Manage audio and video streams</text><polygon fill="#0A9EFD" points="226.5,805.8682,236.5,809.8682,226.5,813.8682,230.5,809.8682" style="stroke:#0A9EFD;stroke-width:1.0;"/><line style="stroke:#0A9EFD;stroke-width:2.0;" x1="37.5" x2="232.5" y1="809.8682" y2="809.8682"/><text fill="#0A9EFD" font-family="Arial" font-size="13" lengthAdjust="spacing" textLength="143" x="66.5" y="805.1133">Mute local audio or video</text><polygon fill="#0A9EFD" points="494.5,849.7656,504.5,853.7656,494.5,857.7656,498.5,853.7656" style="stroke:#0A9EFD;stroke-width:1.0;"/><line style="stroke:#0A9EFD;stroke-width:2.0;" x1="238.5" x2="500.5" y1="853.7656" y2="853.7656"/><text fill="#0A9EFD" font-family="Arial" font-size="13" lengthAdjust="spacing" textLength="136" x="302.5" y="834.062">Call mute local audio or</text><text fill="#0A9EFD" font-family="Arial" font-size="13" lengthAdjust="spacing" textLength="93" x="328" y="849.0107">mute local video</text><polygon fill="#0A9EFD" points="226.5,878.7144,236.5,882.7144,226.5,886.7144,230.5,882.7144" style="stroke:#0A9EFD;stroke-width:1.0;"/><line style="stroke:#0A9EFD;stroke-width:2.0;" x1="37.5" x2="232.5" y1="882.7144" y2="882.7144"/><text fill="#0A9EFD" font-family="Arial" font-size="13" lengthAdjust="spacing" textLength="156" x="60" y="877.9595">Mute remote audio or video</text><polygon fill="#0A9EFD" points="494.5,922.6118,504.5,926.6118,494.5,930.6118,498.5,926.6118" style="stroke:#0A9EFD;stroke-width:1.0;"/><line style="stroke:#0A9EFD;stroke-width:2.0;" x1="238.5" x2="500.5" y1="926.6118" y2="926.6118"/><text fill="#0A9EFD" font-family="Arial" font-size="13" lengthAdjust="spacing" textLength="149" x="296" y="906.9082">Call mute remote audio or</text><text fill="#0A9EFD" font-family="Arial" font-size="13" lengthAdjust="spacing" textLength="106" x="321.5" y="921.8569">mute remote video</text><polygon fill="#0A9EFD" points="249.5,951.5605,239.5,955.5605,249.5,959.5605,245.5,955.5605" style="stroke:#0A9EFD;stroke-width:1.0;"/><line style="stroke:#0A9EFD;stroke-width:2.0;" x1="243.5" x2="505.5" y1="955.5605" y2="955.5605"/><text fill="#0A9EFD" font-family="Arial" font-size="13" lengthAdjust="spacing" textLength="166" x="289.5" y="950.8057">On user mute audio callback</text><line style="stroke:#0A9EFD;stroke-width:2.0;" x1="238.5" x2="280.5" y1="984.5093" y2="984.5093"/><line style="stroke:#0A9EFD;stroke-width:2.0;" x1="280.5" x2="280.5" y1="984.5093" y2="997.5093"/><line style="stroke:#0A9EFD;stroke-width:2.0;" x1="239.5" x2="280.5" y1="997.5093" y2="997.5093"/><polygon fill="#0A9EFD" points="249.5,993.5093,239.5,997.5093,249.5,1001.5093,245.5,997.5093" style="stroke:#0A9EFD;stroke-width:1.0;"/><text fill="#0A9EFD" font-family="Arial" font-size="13" lengthAdjust="spacing" textLength="176" x="245.5" y="979.7544">Suspend or resume audio feed</text><polygon fill="#0A9EFD" points="249.5,1022.458,239.5,1026.458,249.5,1030.458,245.5,1026.458" style="stroke:#0A9EFD;stroke-width:1.0;"/><line style="stroke:#0A9EFD;stroke-width:2.0;" x1="243.5" x2="505.5" y1="1026.458" y2="1026.458"/><text fill="#0A9EFD" font-family="Arial" font-size="13" lengthAdjust="spacing" textLength="164" x="290.5" y="1021.7031">On user mute video callback</text><line style="stroke:#0A9EFD;stroke-width:2.0;" x1="238.5" x2="280.5" y1="1055.4067" y2="1055.4067"/><line style="stroke:#0A9EFD;stroke-width:2.0;" x1="280.5" x2="280.5" y1="1055.4067" y2="1068.4067"/><line style="stroke:#0A9EFD;stroke-width:2.0;" x1="239.5" x2="280.5" y1="1068.4067" y2="1068.4067"/><polygon fill="#0A9EFD" points="249.5,1064.4067,239.5,1068.4067,249.5,1072.4067,245.5,1068.4067" style="stroke:#0A9EFD;stroke-width:1.0;"/><text fill="#0A9EFD" font-family="Arial" font-size="13" lengthAdjust="spacing" textLength="174" x="245.5" y="1050.6519">Suspend or resume video feed</text><!--SRC=[ZLJRRXen47tVhvZo7Fe1KLM94AcYLTe8IALAbIfZ3uk3TxprXPH-VMVs4dQ1Idb1O9yvS-QSmUyiQPSDWYfzKB_Ytj9xcojNoBTQ1LN12dzd98sVWi_rdJV7EwNt9VyWC_VE1qX1KMGiKYeAfHCVJPuYXWce24-hPL5i_1-O_F0vWAhhIS7OPBMj5IMOBFmQLlTV6l3iyR50Ci3uhcWciiugLlVJvVfhLx0u5OYcckKc_cpg0AcqX0NJmlIZiD_2Wc9Y5giIGjfX1rokvzV0p0M-JjPJXDOeI-LF0kTBs5g7KAkq0yK2-8IhIt1uG7VYMDp2TmnsUmHdDLB41cp9iW1d_xOIpXjpqJoW25IWFH5gKI1pzZD-zfRaSgVurXNiyQlaiwiXgKopuVulrh1gZCbMIfYXoHaJXZYUlaOjqaMZuj4zgp6eRo2ggdOoRM2HD-o732KeojK60_Xjtp-EfrBEDRXd4Tb1W3lll6c07wOja3MD835hZJ62Pe8DRz_GYvNaBm82QhI7NggS7An1FxOWyIAn1BRNH4WUObCzhW2ZaXhfMLwdFW6PdqCG81asu1ot5N_ZKFKzswrJfplMNWpqG9XUVDWFKX87IXGR5w-vV2FWCKf9qoQ9e4EPap_366VcESVK-2xJIcvSrsJNz_SkDojsrcMFnrOwb4WOscK9yXmmtsMlPiN4pbFXSEG7HQgyz30c3gEAeoL-oApDUMxHmVb9kGopMQVg2fGtSd3S5bxG1wnymhVndsFx1jtvgRHV63OlymlOehh_phLiLZdMOXbpSWovwi5RHFD_mjQuDn9s6oY44iO_]--></g></svg>