<svg xmlns="http://www.w3.org/2000/svg" xmlns:xlink="http://www.w3.org/1999/xlink" contentStyleType="text/css" data-diagram-type="SEQUENCE" height="901px" preserveAspectRatio="none" style="width:508px;height:901px;" version="1.1" viewBox="0 0 508 901" width="508px" zoomAndPan="magnify"><?plantuml 1.2026.4?><defs/><g><rect fill="none" height="899.0181" style="stroke:#0A9EFD;stroke-width:1;" width="506.2444" x="0" y="0"/><rect fill="#999999" fill-opacity="0.33333" height="888.0181" style="stroke:#0A9EFD;stroke-width:0.5;" width="74.9033" x="139.2266" y="6"/><text fill="#0A9EFD" font-family="sans-serif" font-size="13" font-weight="700" lengthAdjust="spacing" textLength="56.3354" x="148.5105" y="19.4951">Your app</text><rect fill="#999999" fill-opacity="0.33333" height="888.0181" style="stroke:#0A9EFD;stroke-width:0.5;" width="78.3257" x="407.9187" y="6"/><text fill="#0A9EFD" font-family="sans-serif" font-size="13" font-weight="700" lengthAdjust="spacing" textLength="37.5591" x="428.302" y="19.4951">Agora</text><rect fill="none" height="158.7437" style="stroke:#0A9EFD;stroke-width:2;" width="359.0178" x="133.2266" y="103.0986"/><rect fill="none" height="103.7949" style="stroke:#0A9EFD;stroke-width:2;" width="482.2444" x="10" y="275.8423"/><rect fill="none" height="74.8462" style="stroke:#0A9EFD;stroke-width:2;" width="359.0178" x="133.2266" y="393.6372"/><rect fill="none" height="132.7437" style="stroke:#0A9EFD;stroke-width:2;" width="482.2444" x="10" y="482.4834"/><rect fill="none" height="74.8462" style="stroke:#0A9EFD;stroke-width:2;" width="482.2444" x="10" y="629.2271"/><rect fill="none" height="74.8462" style="stroke:#0A9EFD;stroke-width:2;" width="359.0178" x="133.2266" y="718.0732"/><g class="participant-lifeline" data-entity-uid="part1" data-qualified-name="USR" data-source-line="4" id="part1-lifeline"><g><title>User</title><rect fill="#000000" fill-opacity="0.00000" height="723.8208" width="8" x="33.7793" y="86.0986"/><line style="stroke:#0A9EFD;stroke-width:0.5;stroke-dasharray:5,5;" x1="37" x2="37" y1="86.0986" y2="809.9194"/></g></g><g class="participant-lifeline" data-entity-uid="part2" data-qualified-name="APP" data-source-line="7" id="part2-lifeline"><g><title>IoT SDK</title><rect fill="#000000" fill-opacity="0.00000" height="723.8208" width="8" x="172.6782" y="86.0986"/><line style="stroke:#0A9EFD;stroke-width:0.5;stroke-dasharray:5,5;" x1="176.2266" x2="176.2266" y1="86.0986" y2="809.9194"/></g></g><g class="participant-lifeline" data-entity-uid="part3" data-qualified-name="API" data-source-line="11" id="part3-lifeline"><g><title>SDRTN.sup....sup.</title><rect fill="#000000" fill-opacity="0.00000" height="723.8208" width="8" x="443.0815" y="86.0986"/><line style="stroke:#0A9EFD;stroke-width:0.5;stroke-dasharray:5,5;" x1="446.9187" x2="446.9187" y1="86.0986" y2="809.9194"/></g></g><g class="participant participant-head" data-entity-uid="part1" data-qualified-name="USR" data-source-line="4" id="part1-head"><text fill="#0A9EFD" font-family="Arial" font-size="14" lengthAdjust="spacing" textLength="29.5586" x="20" y="83.1318">User</text><ellipse cx="37.7793" cy="16" fill="none" rx="8" ry="8" style="stroke:#0A9EFD;stroke-width:3;"/><path d="M37.7793,24 L37.7793,51 M24.7793,32 L50.7793,32 M37.7793,51 L24.7793,66 M37.7793,51 L50.7793,66" fill="none" style="stroke:#0A9EFD;stroke-width:3;"/></g><g class="participant participant-tail" data-entity-uid="part1" data-qualified-name="USR" data-source-line="4" id="part1-tail"><text fill="#0A9EFD" font-family="Arial" font-size="14" lengthAdjust="spacing" textLength="29.5586" x="20" y="822.0513">User</text><ellipse cx="37.7793" cy="836.0181" fill="none" rx="8" ry="8" style="stroke:#0A9EFD;stroke-width:3;"/><path d="M37.7793,844.0181 L37.7793,871.0181 M24.7793,852.0181 L50.7793,852.0181 M37.7793,871.0181 L24.7793,886.0181 M37.7793,871.0181 L50.7793,886.0181" fill="none" style="stroke:#0A9EFD;stroke-width:3;"/></g><g class="participant participant-head" data-entity-uid="part2" data-qualified-name="APP" data-source-line="7" id="part2-head"><rect fill="none" height="30.0986" rx="2.5" ry="2.5" style="stroke:#0A9EFD;stroke-width:2;" width="66.9033" x="143.2266" y="55"/><text fill="#0A9EFD" font-family="Arial" font-size="14" lengthAdjust="spacing" textLength="52.9033" x="150.2266" y="75.1318">IoT SDK</text></g><g class="participant participant-tail" data-entity-uid="part2" data-qualified-name="APP" data-source-line="7" id="part2-tail"><rect fill="none" height="30.0986" rx="2.5" ry="2.5" style="stroke:#0A9EFD;stroke-width:2;" width="66.9033" x="143.2266" y="808.9194"/><text fill="#0A9EFD" font-family="Arial" font-size="14" lengthAdjust="spacing" textLength="52.9033" x="150.2266" y="829.0513">IoT SDK</text></g><g class="participant participant-head" data-entity-uid="part3" data-qualified-name="API" data-source-line="11" id="part3-head"><rect fill="none" height="32.6489" rx="2.5" ry="2.5" style="stroke:#0A9EFD;stroke-width:2;" width="70.3257" x="411.9187" y="52.4497"/><text fill="#0A9EFD" font-family="Arial" font-size="14" lengthAdjust="spacing" textLength="48.2207" x="418.9187" y="75.1318">SDRTN</text><text fill="#0A9EFD" font-family="Arial" font-size="11" lengthAdjust="spacing" textLength="8.105" x="467.1394" y="69.7676">&#174;</text></g><g class="participant participant-tail" data-entity-uid="part3" data-qualified-name="API" data-source-line="11" id="part3-tail"><rect fill="none" height="32.6489" rx="2.5" ry="2.5" style="stroke:#0A9EFD;stroke-width:2;" width="70.3257" x="411.9187" y="808.9194"/><text fill="#0A9EFD" font-family="Arial" font-size="14" lengthAdjust="spacing" textLength="48.2207" x="418.9187" y="831.6016">SDRTN</text><text fill="#0A9EFD" font-family="Arial" font-size="11" lengthAdjust="spacing" textLength="8.105" x="467.1394" y="826.2373">&#174;</text></g><path d="M133.2266,103.0986 L296.7627,103.0986 L296.7627,110.0474 L286.7627,120.0474 L133.2266,120.0474 L133.2266,103.0986" fill="#EEEEEE" style="stroke:#0A9EFD;stroke-width:1.5;"/><rect fill="none" height="158.7437" style="stroke:#0A9EFD;stroke-width:2;" width="359.0178" x="133.2266" y="103.0986"/><text fill="#000000" font-family="Arial" font-size="13" lengthAdjust="spacing" textLength="118.5361" x="148.2266" y="116.2925">Set up Agora engine</text><g class="message" data-entity-1="part2" data-entity-2="part2" data-source-line="15" id="msg1"><line style="stroke:#0A9EFD;stroke-width:2;" x1="176.6782" x2="218.6782" y1="140.9961" y2="140.9961"/><line style="stroke:#0A9EFD;stroke-width:2;" x1="218.6782" x2="218.6782" y1="140.9961" y2="153.9961"/><line style="stroke:#0A9EFD;stroke-width:2;" x1="177.6782" x2="218.6782" y1="153.9961" y2="153.9961"/><polygon fill="#0A9EFD" points="187.6782,149.9961,177.6782,153.9961,187.6782,157.9961,183.6782,153.9961" style="stroke:#0A9EFD;stroke-width:1;stroke-linejoin:miter;stroke-miterlimit:10;"/><text fill="#0A9EFD" font-family="Arial" font-size="13" lengthAdjust="spacing" textLength="162.6206" x="183.6782" y="136.2412">Instantiate the Agora engine</text></g><g class="message" data-entity-1="part2" data-entity-2="part2" data-source-line="16" id="msg2"><line style="stroke:#0A9EFD;stroke-width:2;" x1="176.6782" x2="218.6782" y1="182.9448" y2="182.9448"/><line style="stroke:#0A9EFD;stroke-width:2;" x1="218.6782" x2="218.6782" y1="182.9448" y2="195.9448"/><line style="stroke:#0A9EFD;stroke-width:2;" x1="177.6782" x2="218.6782" y1="195.9448" y2="195.9448"/><polygon fill="#0A9EFD" points="187.6782,191.9448,177.6782,195.9448,187.6782,199.9448,183.6782,195.9448" style="stroke:#0A9EFD;stroke-width:1;stroke-linejoin:miter;stroke-miterlimit:10;"/><text fill="#0A9EFD" font-family="Arial" font-size="13" lengthAdjust="spacing" textLength="107.6943" x="183.6782" y="178.1899">Set engine options</text></g><g class="message" data-entity-1="part2" data-entity-2="part3" data-source-line="17" id="msg3"><polygon fill="#0A9EFD" points="435.0815,220.8936,445.0815,224.8936,435.0815,228.8936,439.0815,224.8936" style="stroke:#0A9EFD;stroke-width:1;stroke-linejoin:miter;stroke-miterlimit:10;"/><line style="stroke:#0A9EFD;stroke-width:2;" x1="176.6782" x2="441.0815" y1="224.8936" y2="224.8936"/><text fill="#0A9EFD" font-family="Arial" font-size="13" lengthAdjust="spacing" textLength="216.7979" x="203.481" y="220.1387">Verify license and initialize the engine</text></g><g class="message" data-entity-1="part2" data-entity-2="part3" data-source-line="18" id="msg4"><polygon fill="#0A9EFD" points="435.0815,249.8423,445.0815,253.8423,435.0815,257.8423,439.0815,253.8423" style="stroke:#0A9EFD;stroke-width:1;stroke-linejoin:miter;stroke-miterlimit:10;"/><line style="stroke:#0A9EFD;stroke-width:2;" x1="176.6782" x2="441.0815" y1="253.8423" y2="253.8423"/><text fill="#0A9EFD" font-family="Arial" font-size="13" lengthAdjust="spacing" textLength="116.3525" x="253.7036" y="249.0874">Create a connection</text></g><path d="M10,275.8423 L138.8398,275.8423 L138.8398,282.791 L128.8398,292.791 L10,292.791 L10,275.8423" fill="#EEEEEE" style="stroke:#0A9EFD;stroke-width:1.5;"/><rect fill="none" height="103.7949" style="stroke:#0A9EFD;stroke-width:2;" width="482.2444" x="10" y="275.8423"/><text fill="#000000" font-family="Arial" font-size="13" lengthAdjust="spacing" textLength="83.8398" x="25" y="289.0361">Join a channel</text><g class="message" data-entity-1="part1" data-entity-2="part2" data-source-line="22" id="msg5"><polygon fill="#0A9EFD" points="164.6782,309.7397,174.6782,313.7397,164.6782,317.7397,168.6782,313.7397" style="stroke:#0A9EFD;stroke-width:1;stroke-linejoin:miter;stroke-miterlimit:10;"/><line style="stroke:#0A9EFD;stroke-width:2;" x1="37.7793" x2="170.6782" y1="313.7397" y2="313.7397"/><text fill="#0A9EFD" font-family="Arial" font-size="13" lengthAdjust="spacing" textLength="83.8398" x="65.3088" y="308.9849">Join a channel</text></g><g class="message" data-entity-1="part2" data-entity-2="part3" data-source-line="23" id="msg6"><polygon fill="#0A9EFD" points="435.0815,338.6885,445.0815,342.6885,435.0815,346.6885,439.0815,342.6885" style="stroke:#0A9EFD;stroke-width:1;stroke-linejoin:miter;stroke-miterlimit:10;"/><line style="stroke:#0A9EFD;stroke-width:2;" x1="176.6782" x2="441.0815" y1="342.6885" y2="342.6885"/><text fill="#0A9EFD" font-family="Arial" font-size="13" lengthAdjust="spacing" textLength="189.3442" x="217.2078" y="337.9336">Call the method to join a channel</text></g><g class="message" data-entity-1="part3" data-entity-2="part2" data-source-line="24" id="msg7"><polygon fill="#0A9EFD" points="187.6782,367.6372,177.6782,371.6372,187.6782,375.6372,183.6782,371.6372" style="stroke:#0A9EFD;stroke-width:1;stroke-linejoin:miter;stroke-miterlimit:10;"/><line style="stroke:#0A9EFD;stroke-width:2;" x1="181.6782" x2="446.0815" y1="371.6372" y2="371.6372"/><text fill="#0A9EFD" font-family="Arial" font-size="13" lengthAdjust="spacing" textLength="191.4897" x="216.135" y="366.8823">On join channel success callback</text></g><path d="M133.2266,393.6372 L303.999,393.6372 L303.999,400.5859 L293.999,410.5859 L133.2266,410.5859 L133.2266,393.6372" fill="#EEEEEE" style="stroke:#0A9EFD;stroke-width:1.5;"/><rect fill="none" height="74.8462" style="stroke:#0A9EFD;stroke-width:2;" width="359.0178" x="133.2266" y="393.6372"/><text fill="#000000" font-family="Arial" font-size="13" lengthAdjust="spacing" textLength="125.7725" x="148.2266" y="406.8311">Send audio and video</text><g class="message" data-entity-1="part2" data-entity-2="part3" data-source-line="28" id="msg8"><polygon fill="#0A9EFD" points="435.0815,427.5347,445.0815,431.5347,435.0815,435.5347,439.0815,431.5347" style="stroke:#0A9EFD;stroke-width:1;stroke-linejoin:miter;stroke-miterlimit:10;"/><line style="stroke:#0A9EFD;stroke-width:2;" x1="176.6782" x2="441.0815" y1="431.5347" y2="431.5347"/><text fill="#0A9EFD" font-family="Arial" font-size="13" lengthAdjust="spacing" textLength="178.5151" x="222.6223" y="426.7798">Start thread to send audio data</text></g><g class="message" data-entity-1="part2" data-entity-2="part3" data-source-line="29" id="msg9"><polygon fill="#0A9EFD" points="435.0815,456.4834,445.0815,460.4834,435.0815,464.4834,439.0815,460.4834" style="stroke:#0A9EFD;stroke-width:1;stroke-linejoin:miter;stroke-miterlimit:10;"/><line style="stroke:#0A9EFD;stroke-width:2;" x1="176.6782" x2="441.0815" y1="460.4834" y2="460.4834"/><text fill="#0A9EFD" font-family="Arial" font-size="13" lengthAdjust="spacing" textLength="177.7852" x="222.9873" y="455.7285">Start thread to send video data</text></g><path d="M10,482.4834 L197.3779,482.4834 L197.3779,489.4321 L187.3779,499.4321 L10,499.4321 L10,482.4834" fill="#EEEEEE" style="stroke:#0A9EFD;stroke-width:1.5;"/><rect fill="none" height="132.7437" style="stroke:#0A9EFD;stroke-width:2;" width="482.2444" x="10" y="482.4834"/><text fill="#000000" font-family="Arial" font-size="13" lengthAdjust="spacing" textLength="142.3779" x="25" y="495.6772">Receive audio and video</text><g class="message" data-entity-1="part3" data-entity-2="part2" data-source-line="33" id="msg10"><polygon fill="#0A9EFD" points="187.6782,516.3809,177.6782,520.3809,187.6782,524.3809,183.6782,520.3809" style="stroke:#0A9EFD;stroke-width:1;stroke-linejoin:miter;stroke-miterlimit:10;"/><line style="stroke:#0A9EFD;stroke-width:2;" x1="181.6782" x2="446.0815" y1="520.3809" y2="520.3809"/><text fill="#0A9EFD" font-family="Arial" font-size="13" lengthAdjust="spacing" textLength="132.2534" x="245.7532" y="515.626">On audio data callback</text></g><g class="message" data-entity-1="part2" data-entity-2="part1" data-source-line="34" id="msg11"><polygon fill="#0A9EFD" points="48.7793,545.3296,38.7793,549.3296,48.7793,553.3296,44.7793,549.3296" style="stroke:#0A9EFD;stroke-width:1;stroke-linejoin:miter;stroke-miterlimit:10;"/><line style="stroke:#0A9EFD;stroke-width:2;" x1="42.7793" x2="175.6782" y1="549.3296" y2="549.3296"/><text fill="#0A9EFD" font-family="Arial" font-size="13" lengthAdjust="spacing" textLength="114.8989" x="49.7793" y="544.5747">Render audio frame</text></g><g class="message" data-entity-1="part3" data-entity-2="part2" data-source-line="35" id="msg12"><polygon fill="#0A9EFD" points="187.6782,574.2783,177.6782,578.2783,187.6782,582.2783,183.6782,578.2783" style="stroke:#0A9EFD;stroke-width:1;stroke-linejoin:miter;stroke-miterlimit:10;"/><line style="stroke:#0A9EFD;stroke-width:2;" x1="181.6782" x2="446.0815" y1="578.2783" y2="578.2783"/><text fill="#0A9EFD" font-family="Arial" font-size="13" lengthAdjust="spacing" textLength="131.5234" x="246.1182" y="573.5234">On video data callback</text></g><g class="message" data-entity-1="part2" data-entity-2="part1" data-source-line="36" id="msg13"><polygon fill="#0A9EFD" points="48.7793,603.2271,38.7793,607.2271,48.7793,611.2271,44.7793,607.2271" style="stroke:#0A9EFD;stroke-width:1;stroke-linejoin:miter;stroke-miterlimit:10;"/><line style="stroke:#0A9EFD;stroke-width:2;" x1="42.7793" x2="175.6782" y1="607.2271" y2="607.2271"/><text fill="#0A9EFD" font-family="Arial" font-size="13" lengthAdjust="spacing" textLength="114.1689" x="50.1443" y="602.4722">Render video frame</text></g><path d="M10,629.2271 L139.5698,629.2271 L139.5698,636.1758 L129.5698,646.1758 L10,646.1758 L10,629.2271" fill="#EEEEEE" style="stroke:#0A9EFD;stroke-width:1.5;"/><rect fill="none" height="74.8462" style="stroke:#0A9EFD;stroke-width:2;" width="482.2444" x="10" y="629.2271"/><text fill="#000000" font-family="Arial" font-size="13" lengthAdjust="spacing" textLength="84.5698" x="25" y="642.4209">Leave channel</text><g class="message" data-entity-1="part1" data-entity-2="part2" data-source-line="40" id="msg14"><polygon fill="#0A9EFD" points="164.6782,663.1245,174.6782,667.1245,164.6782,671.1245,168.6782,667.1245" style="stroke:#0A9EFD;stroke-width:1;stroke-linejoin:miter;stroke-miterlimit:10;"/><line style="stroke:#0A9EFD;stroke-width:2;" x1="37.7793" x2="170.6782" y1="667.1245" y2="667.1245"/><text fill="#0A9EFD" font-family="Arial" font-size="13" lengthAdjust="spacing" textLength="84.5698" x="64.9438" y="662.3696">Leave channel</text></g><g class="message" data-entity-1="part2" data-entity-2="part3" data-source-line="41" id="msg15"><polygon fill="#0A9EFD" points="435.0815,692.0732,445.0815,696.0732,435.0815,700.0732,439.0815,696.0732" style="stroke:#0A9EFD;stroke-width:1;stroke-linejoin:miter;stroke-miterlimit:10;"/><line style="stroke:#0A9EFD;stroke-width:2;" x1="176.6782" x2="441.0815" y1="696.0732" y2="696.0732"/><text fill="#0A9EFD" font-family="Arial" font-size="13" lengthAdjust="spacing" textLength="174.8906" x="224.4346" y="691.3184">Call the leave channel method</text></g><path d="M133.2266,718.0732 L230.2646,718.0732 L230.2646,725.022 L220.2646,735.022 L133.2266,735.022 L133.2266,718.0732" fill="#EEEEEE" style="stroke:#0A9EFD;stroke-width:1.5;"/><rect fill="none" height="74.8462" style="stroke:#0A9EFD;stroke-width:2;" width="359.0178" x="133.2266" y="718.0732"/><text fill="#000000" font-family="Arial" font-size="13" lengthAdjust="spacing" textLength="52.0381" x="148.2266" y="731.2671">Clean up</text><g class="message" data-entity-1="part2" data-entity-2="part3" data-source-line="45" id="msg16"><polygon fill="#0A9EFD" points="435.0815,751.9707,445.0815,755.9707,435.0815,759.9707,439.0815,755.9707" style="stroke:#0A9EFD;stroke-width:1;stroke-linejoin:miter;stroke-miterlimit:10;"/><line style="stroke:#0A9EFD;stroke-width:2;" x1="176.6782" x2="441.0815" y1="755.9707" y2="755.9707"/><text fill="#0A9EFD" font-family="Arial" font-size="13" lengthAdjust="spacing" textLength="132.9644" x="245.3977" y="751.2158">Destroy the connection</text></g><g class="message" data-entity-1="part2" data-entity-2="part3" data-source-line="46" id="msg17"><polygon fill="#0A9EFD" points="435.0815,780.9194,445.0815,784.9194,435.0815,788.9194,439.0815,784.9194" style="stroke:#0A9EFD;stroke-width:1;stroke-linejoin:miter;stroke-miterlimit:10;"/><line style="stroke:#0A9EFD;stroke-width:2;" x1="176.6782" x2="441.0815" y1="784.9194" y2="784.9194"/><text fill="#0A9EFD" font-family="Arial" font-size="13" lengthAdjust="spacing" textLength="246.4033" x="188.6782" y="780.1646">Call the finish method to release resources</text></g><?plantuml-src XPF1ZjCm48RlVeeXzxRtgbffjvLG0S6gsKNYX6RjQMlgZeFjh2WFnKFmP8oTi4bBWLFIp3_V_zipVMLPkzOGJAUpPsl8Jw8vp73d0twE1yjJsnwTocyD1Zn2JLzROaslWs-REszETwWFE_d1PkcT3v02SXGjSL8ATP9FrMEaK056UAmtIZtvRr1zycq0R9fAYJPPRHla1DNQFq2zUbl4j_VtYjY0wFkcsnphegDURHxUBsBRtFpyiPZbPz-y7ffplaQY9v17WG3npZ8fyO39JRQQmvfZ4gJ5H93sz7TX1dMVmJV9Uev3UJs7ZnJizWJEQk98W9B2iXMkizyxyYLJcfQ1iY-2zioaCpNd_vtzZRUSYtkKgbDoZozfBafdK7Ik61ufxRs1vE7Bd-h5f5D_uAxQro2sMbECe8No95CUvwdptM9hh2_dAvjpPbqd6P9uox6ARnmQ32RylxOWE-t8TqEQx3DTjHwTOp0QqlUESdLpmR2XqCksijTqIHZi_qdeP1rX5FCTeOIyDgtpojLXkR6a7zqOlXG1ooQVTQyefk1F1J1QeQi6Mrd7k1yjHI11oge6YlAtbA4Nkry0?></g></svg>