<?xml version="1.0" encoding="UTF-8" standalone="no"?><svg xmlns="http://www.w3.org/2000/svg" xmlns:xlink="http://www.w3.org/1999/xlink" contentStyleType="text/css" height="1231px" preserveAspectRatio="none" style="width:543px;height:1231px;" version="1.1" viewBox="0 0 543 1231" width="543px" zoomAndPan="magnify"><defs/><g><rect fill="none" height="1229.5469" style="stroke:#0A9EFD;stroke-width:1.0;" width="541.5" x="0" y="0"/><rect fill="#F3F3F3" height="1219.5469" style="stroke:#0A9EFD;stroke-width:0.5;" width="150" x="91.5" y="6"/><text fill="#000000" font-family="sans-serif" font-size="13" font-weight="bold" lengthAdjust="spacing" textLength="57" x="138" y="19.4951">Your app</text><rect fill="#F3F3F3" height="1219.5469" style="stroke:#0A9EFD;stroke-width:0.5;" width="74" x="457.5" y="6"/><text fill="#000000" font-family="sans-serif" font-size="13" font-weight="bold" lengthAdjust="spacing" textLength="38" x="475.5" y="19.4951">Agora</text><rect fill="none" height="140.4375" style="stroke:#0A9EFD;stroke-width:2.0;" width="452" x="85.5" y="104.6094"/><rect fill="none" height="82.8281" style="stroke:#0A9EFD;stroke-width:2.0;" width="452" x="85.5" y="259.0469"/><rect fill="none" height="212.875" style="stroke:#0A9EFD;stroke-width:2.0;" width="527.5" x="10" y="355.875"/><rect fill="none" height="248.0938" style="stroke:#0A9EFD;stroke-width:2.0;" width="527.5" x="10" y="582.75"/><rect fill="none" height="114.4375" style="stroke:#0A9EFD;stroke-width:2.0;" width="527.5" x="10" y="844.8438"/><rect fill="none" height="149.6563" style="stroke:#0A9EFD;stroke-width:2.0;" width="452" x="85.5" y="973.2813"/><line style="stroke:#0A9EFD;stroke-width:0.5;stroke-dasharray:5.0,5.0;" x1="39" x2="39" y1="87.6094" y2="1139.9375"/><line style="stroke:#0A9EFD;stroke-width:0.5;stroke-dasharray:5.0,5.0;" x1="166.5" x2="166.5" y1="87.6094" y2="1139.9375"/><line style="stroke:#0A9EFD;stroke-width:0.5;stroke-dasharray:5.0,5.0;" x1="494.5" x2="494.5" y1="87.6094" y2="1139.9375"/><text fill="#0A9EFD" font-family="Roboto" font-size="14" font-weight="bold" lengthAdjust="spacing" textLength="33" x="20" y="84.5332">User</text><ellipse cx="39.5" cy="16" fill="none" rx="8" ry="8" style="stroke:#0A9EFD;stroke-width:3.0;"/><path d="M39.5,24 L39.5,51 M26.5,32 L52.5,32 M39.5,51 L26.5,66 M39.5,51 L52.5,66 " fill="none" style="stroke:#0A9EFD;stroke-width:3.0;"/><text fill="#0A9EFD" font-family="Roboto" font-size="14" font-weight="bold" lengthAdjust="spacing" textLength="33" x="20" y="1153.4707">User</text><ellipse cx="39.5" cy="1167.5469" fill="none" rx="8" ry="8" style="stroke:#0A9EFD;stroke-width:3.0;"/><path d="M39.5,1175.5469 L39.5,1202.5469 M26.5,1183.5469 L52.5,1183.5469 M39.5,1202.5469 L26.5,1217.5469 M39.5,1202.5469 L52.5,1217.5469 " fill="none" style="stroke:#0A9EFD;stroke-width:3.0;"/><rect fill="#FFFFFF" height="49.2188" rx="2.5" ry="2.5" style="stroke:#0A9EFD;stroke-width:2.0;" width="142" x="95.5" y="37.3906"/><text fill="#0A9EFD" font-family="Roboto" font-size="14" font-weight="bold" lengthAdjust="spacing" textLength="128" x="102.5" y="58.9238">Media Accelerator</text><text fill="#0A9EFD" font-family="Roboto" font-size="14" font-weight="bold" lengthAdjust="spacing" textLength="29" x="154" y="76.5332">SDK</text><rect fill="#FFFFFF" height="49.2188" rx="2.5" ry="2.5" style="stroke:#0A9EFD;stroke-width:2.0;" width="142" x="95.5" y="1138.9375"/><text fill="#0A9EFD" font-family="Roboto" font-size="14" font-weight="bold" lengthAdjust="spacing" textLength="128" x="102.5" y="1160.4707">Media Accelerator</text><text fill="#0A9EFD" font-family="Roboto" font-size="14" font-weight="bold" lengthAdjust="spacing" textLength="29" x="154" y="1178.0801">SDK</text><rect fill="#FFFFFF" height="31.6094" rx="2.5" ry="2.5" style="stroke:#0A9EFD;stroke-width:2.0;" width="66" x="461.5" y="55"/><text fill="#0A9EFD" font-family="Roboto" font-size="14" font-weight="bold" lengthAdjust="spacing" textLength="52" x="468.5" y="76.5332">SD-RTN</text><rect fill="#FFFFFF" height="31.6094" rx="2.5" ry="2.5" style="stroke:#0A9EFD;stroke-width:2.0;" width="66" x="461.5" y="1138.9375"/><text fill="#0A9EFD" font-family="Roboto" font-size="14" font-weight="bold" lengthAdjust="spacing" textLength="52" x="468.5" y="1160.4707">SD-RTN</text><path d="M85.5,104.6094 L305.5,104.6094 L305.5,114.2188 L295.5,124.2188 L85.5,124.2188 L85.5,104.6094 " fill="#EEEEEE" style="stroke:#0A9EFD;stroke-width:1.5;"/><rect fill="none" height="140.4375" style="stroke:#0A9EFD;stroke-width:2.0;" width="452" x="85.5" y="104.6094"/><text fill="#0A9EFD" font-family="Roboto" font-size="14" font-weight="bold" lengthAdjust="spacing" textLength="175" x="100.5" y="120.1426">Setup Agora RTC service</text><line style="stroke:#0A9EFD;stroke-width:2.0;" x1="166.5" x2="208.5" y1="147.8281" y2="147.8281"/><line style="stroke:#0A9EFD;stroke-width:2.0;" x1="208.5" x2="208.5" y1="147.8281" y2="160.8281"/><line style="stroke:#0A9EFD;stroke-width:2.0;" x1="167.5" x2="208.5" y1="160.8281" y2="160.8281"/><polygon fill="#0A9EFD" points="177.5,156.8281,167.5,160.8281,177.5,164.8281,173.5,160.8281" style="stroke:#0A9EFD;stroke-width:1.0;"/><text fill="#0A9EFD" font-family="Roboto" font-size="14" font-weight="bold" lengthAdjust="spacing" textLength="283" x="173.5" y="142.752">Instantiate the Agora RTC service object</text><line style="stroke:#0A9EFD;stroke-width:2.0;" x1="166.5" x2="208.5" y1="192.4375" y2="192.4375"/><line style="stroke:#0A9EFD;stroke-width:2.0;" x1="208.5" x2="208.5" y1="192.4375" y2="205.4375"/><line style="stroke:#0A9EFD;stroke-width:2.0;" x1="167.5" x2="208.5" y1="205.4375" y2="205.4375"/><polygon fill="#0A9EFD" points="177.5,201.4375,167.5,205.4375,177.5,209.4375,173.5,205.4375" style="stroke:#0A9EFD;stroke-width:1.0;"/><text fill="#0A9EFD" font-family="Roboto" font-size="14" font-weight="bold" lengthAdjust="spacing" textLength="137" x="173.5" y="187.3613">Set service options</text><polygon fill="#0A9EFD" points="482.5,233.0469,492.5,237.0469,482.5,241.0469,486.5,237.0469" style="stroke:#0A9EFD;stroke-width:1.0;"/><line style="stroke:#0A9EFD;stroke-width:2.0;" x1="166.5" x2="488.5" y1="237.0469" y2="237.0469"/><text fill="#0A9EFD" font-family="Roboto" font-size="14" font-weight="bold" lengthAdjust="spacing" textLength="271" x="195" y="231.9707">Verify license and initialize the service</text><path d="M85.5,259.0469 L328.5,259.0469 L328.5,268.6563 L318.5,278.6563 L85.5,278.6563 L85.5,259.0469 " fill="#EEEEEE" style="stroke:#0A9EFD;stroke-width:1.5;"/><rect fill="none" height="82.8281" style="stroke:#0A9EFD;stroke-width:2.0;" width="452" x="85.5" y="259.0469"/><text fill="#0A9EFD" font-family="Roboto" font-size="14" font-weight="bold" lengthAdjust="spacing" textLength="198" x="100.5" y="274.5801">Create multiple connections</text><polygon fill="#0A9EFD" points="482.5,298.2656,492.5,302.2656,482.5,306.2656,486.5,302.2656" style="stroke:#0A9EFD;stroke-width:1.0;"/><line style="stroke:#0A9EFD;stroke-width:2.0;" x1="166.5" x2="488.5" y1="302.2656" y2="302.2656"/><text fill="#0A9EFD" font-family="Roboto" font-size="14" font-weight="bold" lengthAdjust="spacing" textLength="143" x="259" y="297.1895">Create connection-1</text><polygon fill="#0A9EFD" points="482.5,329.875,492.5,333.875,482.5,337.875,486.5,333.875" style="stroke:#0A9EFD;stroke-width:1.0;"/><line style="stroke:#0A9EFD;stroke-width:2.0;" x1="166.5" x2="488.5" y1="333.875" y2="333.875"/><text fill="#0A9EFD" font-family="Roboto" font-size="14" font-weight="bold" lengthAdjust="spacing" textLength="143" x="259" y="328.7988">Create connection-2</text><path d="M10,355.875 L250,355.875 L250,365.4844 L240,375.4844 L10,375.4844 L10,355.875 " fill="#EEEEEE" style="stroke:#0A9EFD;stroke-width:1.5;"/><rect fill="none" height="212.875" style="stroke:#0A9EFD;stroke-width:2.0;" width="527.5" x="10" y="355.875"/><text fill="#0A9EFD" font-family="Roboto" font-size="14" font-weight="bold" lengthAdjust="spacing" textLength="195" x="25" y="371.4082">Stream to multiple channels</text><polygon fill="#0A9EFD" points="154.5,395.0938,164.5,399.0938,154.5,403.0938,158.5,399.0938" style="stroke:#0A9EFD;stroke-width:1.0;"/><line style="stroke:#0A9EFD;stroke-width:2.0;" x1="39.5" x2="160.5" y1="399.0938" y2="399.0938"/><text fill="#0A9EFD" font-family="Roboto" font-size="14" font-weight="bold" lengthAdjust="spacing" textLength="98" x="54" y="394.0176">Join channels</text><polygon fill="#0A9EFD" points="482.5,426.7031,492.5,430.7031,482.5,434.7031,486.5,430.7031" style="stroke:#0A9EFD;stroke-width:1.0;"/><line style="stroke:#0A9EFD;stroke-width:2.0;" x1="166.5" x2="488.5" y1="430.7031" y2="430.7031"/><text fill="#0A9EFD" font-family="Roboto" font-size="14" font-weight="bold" lengthAdjust="spacing" textLength="255" x="203" y="425.627">Join channel-1 using connectionId-1</text><polygon fill="#0A9EFD" points="482.5,458.3125,492.5,462.3125,482.5,466.3125,486.5,462.3125" style="stroke:#0A9EFD;stroke-width:1.0;"/><line style="stroke:#0A9EFD;stroke-width:2.0;" x1="166.5" x2="488.5" y1="462.3125" y2="462.3125"/><text fill="#0A9EFD" font-family="Roboto" font-size="14" font-weight="bold" lengthAdjust="spacing" textLength="255" x="203" y="457.2363">Join channel-2 using connectionId-2</text><polygon fill="#0A9EFD" points="482.5,507.5313,492.5,511.5313,482.5,515.5313,486.5,511.5313" style="stroke:#0A9EFD;stroke-width:1.0;"/><line style="stroke:#0A9EFD;stroke-width:2.0;" x1="166.5" x2="488.5" y1="511.5313" y2="511.5313"/><text fill="#0A9EFD" font-family="Roboto" font-size="14" font-weight="bold" lengthAdjust="spacing" textLength="230" x="213.5" y="488.8457">Send audio and video data using</text><text fill="#0A9EFD" font-family="Roboto" font-size="14" font-weight="bold" lengthAdjust="spacing" textLength="266" x="197.5" y="506.4551">connectionId-1 to stream to channel-1</text><polygon fill="#0A9EFD" points="482.5,556.75,492.5,560.75,482.5,564.75,486.5,560.75" style="stroke:#0A9EFD;stroke-width:1.0;"/><line style="stroke:#0A9EFD;stroke-width:2.0;" x1="166.5" x2="488.5" y1="560.75" y2="560.75"/><text fill="#0A9EFD" font-family="Roboto" font-size="14" font-weight="bold" lengthAdjust="spacing" textLength="230" x="213.5" y="538.0645">Send audio and video data using</text><text fill="#0A9EFD" font-family="Roboto" font-size="14" font-weight="bold" lengthAdjust="spacing" textLength="266" x="197.5" y="555.6738">connectionId-2 to stream to channel-2</text><path d="M10,582.75 L347,582.75 L347,592.3594 L337,602.3594 L10,602.3594 L10,582.75 " fill="#EEEEEE" style="stroke:#0A9EFD;stroke-width:1.5;"/><rect fill="none" height="248.0938" style="stroke:#0A9EFD;stroke-width:2.0;" width="527.5" x="10" y="582.75"/><text fill="#0A9EFD" font-family="Roboto" font-size="14" font-weight="bold" lengthAdjust="spacing" textLength="292" x="25" y="598.2832">Push multiple streams to a single channel</text><polygon fill="#0A9EFD" points="154.5,621.9688,164.5,625.9688,154.5,629.9688,158.5,625.9688" style="stroke:#0A9EFD;stroke-width:1.0;"/><line style="stroke:#0A9EFD;stroke-width:2.0;" x1="39.5" x2="160.5" y1="625.9688" y2="625.9688"/><text fill="#0A9EFD" font-family="Roboto" font-size="14" font-weight="bold" lengthAdjust="spacing" textLength="90" x="58" y="620.8926">Join channel</text><polygon fill="#0A9EFD" points="482.5,671.1875,492.5,675.1875,482.5,679.1875,486.5,675.1875" style="stroke:#0A9EFD;stroke-width:1.0;"/><line style="stroke:#0A9EFD;stroke-width:2.0;" x1="166.5" x2="488.5" y1="675.1875" y2="675.1875"/><text fill="#0A9EFD" font-family="Roboto" font-size="14" font-weight="bold" lengthAdjust="spacing" textLength="146" x="255.5" y="652.502">Join channel-1 using</text><text fill="#0A9EFD" font-family="Roboto" font-size="14" font-weight="bold" lengthAdjust="spacing" textLength="197" x="232" y="670.1113">connectionId-1 and userId-1</text><polygon fill="#0A9EFD" points="482.5,720.4063,492.5,724.4063,482.5,728.4063,486.5,724.4063" style="stroke:#0A9EFD;stroke-width:1.0;"/><line style="stroke:#0A9EFD;stroke-width:2.0;" x1="166.5" x2="488.5" y1="724.4063" y2="724.4063"/><text fill="#0A9EFD" font-family="Roboto" font-size="14" font-weight="bold" lengthAdjust="spacing" textLength="146" x="255.5" y="701.7207">Join channel-1 using</text><text fill="#0A9EFD" font-family="Roboto" font-size="14" font-weight="bold" lengthAdjust="spacing" textLength="197" x="232" y="719.3301">connectionId-2 and userId-2</text><polygon fill="#0A9EFD" points="482.5,769.625,492.5,773.625,482.5,777.625,486.5,773.625" style="stroke:#0A9EFD;stroke-width:1.0;"/><line style="stroke:#0A9EFD;stroke-width:2.0;" x1="166.5" x2="488.5" y1="773.625" y2="773.625"/><text fill="#0A9EFD" font-family="Roboto" font-size="14" font-weight="bold" lengthAdjust="spacing" textLength="187" x="235" y="750.9395">Send audio and video data</text><text fill="#0A9EFD" font-family="Roboto" font-size="14" font-weight="bold" lengthAdjust="spacing" textLength="148" x="256.5" y="768.5488">using connectionId-1</text><polygon fill="#0A9EFD" points="482.5,818.8438,492.5,822.8438,482.5,826.8438,486.5,822.8438" style="stroke:#0A9EFD;stroke-width:1.0;"/><line style="stroke:#0A9EFD;stroke-width:2.0;" x1="166.5" x2="488.5" y1="822.8438" y2="822.8438"/><text fill="#0A9EFD" font-family="Roboto" font-size="14" font-weight="bold" lengthAdjust="spacing" textLength="187" x="235" y="800.1582">Send audio and video data</text><text fill="#0A9EFD" font-family="Roboto" font-size="14" font-weight="bold" lengthAdjust="spacing" textLength="148" x="256.5" y="817.7676">using connectionId-2</text><path d="M10,844.8438 L176,844.8438 L176,854.4531 L166,864.4531 L10,864.4531 L10,844.8438 " fill="#EEEEEE" style="stroke:#0A9EFD;stroke-width:1.5;"/><rect fill="none" height="114.4375" style="stroke:#0A9EFD;stroke-width:2.0;" width="527.5" x="10" y="844.8438"/><text fill="#0A9EFD" font-family="Roboto" font-size="14" font-weight="bold" lengthAdjust="spacing" textLength="121" x="25" y="860.377">Leave channel(s)</text><polygon fill="#0A9EFD" points="154.5,884.0625,164.5,888.0625,154.5,892.0625,158.5,888.0625" style="stroke:#0A9EFD;stroke-width:1.0;"/><line style="stroke:#0A9EFD;stroke-width:2.0;" x1="39.5" x2="160.5" y1="888.0625" y2="888.0625"/><text fill="#0A9EFD" font-family="Roboto" font-size="14" font-weight="bold" lengthAdjust="spacing" textLength="103" x="51.5" y="882.9863">Leave channel</text><polygon fill="#0A9EFD" points="482.5,915.6719,492.5,919.6719,482.5,923.6719,486.5,919.6719" style="stroke:#0A9EFD;stroke-width:1.0;"/><line style="stroke:#0A9EFD;stroke-width:2.0;" x1="166.5" x2="488.5" y1="919.6719" y2="919.6719"/><text fill="#0A9EFD" font-family="Roboto" font-size="14" font-weight="bold" lengthAdjust="spacing" textLength="283" x="189" y="914.5957">Call leave Channel using connectionId-1</text><polygon fill="#0A9EFD" points="482.5,947.2813,492.5,951.2813,482.5,955.2813,486.5,951.2813" style="stroke:#0A9EFD;stroke-width:1.0;"/><line style="stroke:#0A9EFD;stroke-width:2.0;" x1="166.5" x2="488.5" y1="951.2813" y2="951.2813"/><text fill="#0A9EFD" font-family="Roboto" font-size="14" font-weight="bold" lengthAdjust="spacing" textLength="283" x="189" y="946.2051">Call leave Channel using connectionId-2</text><path d="M85.5,973.2813 L192.5,973.2813 L192.5,982.8906 L182.5,992.8906 L85.5,992.8906 L85.5,973.2813 " fill="#EEEEEE" style="stroke:#0A9EFD;stroke-width:1.5;"/><rect fill="none" height="149.6563" style="stroke:#0A9EFD;stroke-width:2.0;" width="452" x="85.5" y="973.2813"/><text fill="#0A9EFD" font-family="Roboto" font-size="14" font-weight="bold" lengthAdjust="spacing" textLength="62" x="100.5" y="988.8145">Clean up</text><polygon fill="#0A9EFD" points="482.5,1030.1094,492.5,1034.1094,482.5,1038.1094,486.5,1034.1094" style="stroke:#0A9EFD;stroke-width:1.0;"/><line style="stroke:#0A9EFD;stroke-width:2.0;" x1="166.5" x2="488.5" y1="1034.1094" y2="1034.1094"/><text fill="#0A9EFD" font-family="Roboto" font-size="14" font-weight="bold" lengthAdjust="spacing" textLength="168" x="244.5" y="1011.4238">Call destroy Connection</text><text fill="#0A9EFD" font-family="Roboto" font-size="14" font-weight="bold" lengthAdjust="spacing" textLength="148" x="256.5" y="1029.0332">using connectionId-1</text><polygon fill="#0A9EFD" points="482.5,1079.3281,492.5,1083.3281,482.5,1087.3281,486.5,1083.3281" style="stroke:#0A9EFD;stroke-width:1.0;"/><line style="stroke:#0A9EFD;stroke-width:2.0;" x1="166.5" x2="488.5" y1="1083.3281" y2="1083.3281"/><text fill="#0A9EFD" font-family="Roboto" font-size="14" font-weight="bold" lengthAdjust="spacing" textLength="168" x="244.5" y="1060.6426">Call destroy Connection</text><text fill="#0A9EFD" font-family="Roboto" font-size="14" font-weight="bold" lengthAdjust="spacing" textLength="148" x="256.5" y="1078.252">using connectionId-2</text><polygon fill="#0A9EFD" points="482.5,1110.9375,492.5,1114.9375,482.5,1118.9375,486.5,1114.9375" style="stroke:#0A9EFD;stroke-width:1.0;"/><line style="stroke:#0A9EFD;stroke-width:2.0;" x1="166.5" x2="488.5" y1="1114.9375" y2="1114.9375"/><text fill="#0A9EFD" font-family="Roboto" font-size="14" font-weight="bold" lengthAdjust="spacing" textLength="304" x="178.5" y="1109.8613">Call the finish method to release resources</text><!--SRC=[fLJBRXf14BplLtJsb1o8n1vzY8JNKaHUGgmTAH9Ir9vfmyJ3p6OUAEJhqxFWVMGXMF450LrLNLtTcbVA21qb0Qwjm-_-KPctAcvrbhxLw70B5VsCP0IzTpRMrrRkhr4yhlc7aQNLra5mQ3nZoOGiGn7uh_pEayi1FTnLoooxjxyW_sQZ0wphF6DiK4BLQ0BadqagX9aGfCaXarS6gfkF3NcsM6Ha933_A39BDlzIg6ucozilHyAy8oIFDTiF_DdmO7bR0XlRAK4PQyFaNMfn1NFZ0qif30HXGsCqsFiV9CA0nC9TkGxA6j_LvrVmbPnws8Fckl4SCDjIHd4JhNuVsZnPOSTFRaj7oSGswg1gJI2iCTnu97x4TUN952u0YdwVAd1z2y7sMcsGiTfdlB9so0zMcQxIRz2lSFFebLdtsitbP7eUNvp25mDybVQ8KIhRHBTJaYn837YahiomMPh5jrErnbwYMPpM70IvY7xJPNW0-uH6I99ThcTZlPpgQDHaFlBr_3lawRcfUlJdPhuofnOCBs4NqC_n4-6kpUgrVpE8Qr0SdZbg3RefbuVovKjy7cUmvPBX1c8zrf74ExTxA5lkcQp-drgCgUdrUE3N9DqUXOsLwU8Slw38BuqZpq-j8DzCy0S0]--></g></svg>