<?xml version="1.0" encoding="UTF-8" standalone="no"?><svg xmlns="http://www.w3.org/2000/svg" xmlns:xlink="http://www.w3.org/1999/xlink" contentStyleType="text/css" height="357px" preserveAspectRatio="none" style="width:474px;height:357px;" version="1.1" viewBox="0 0 474 357" width="474px" zoomAndPan="magnify"><defs/><g><rect fill="none" height="355.2656" style="stroke:#0A9EFD;stroke-width:1.0;" width="472.5" x="0" y="0"/><rect fill="#F3F3F3" height="345.2656" style="stroke:#0A9EFD;stroke-width:0.5;" width="76" x="117" y="6"/><text fill="#000000" font-family="sans-serif" font-size="13" font-weight="bold" lengthAdjust="spacing" textLength="57" x="126.5" y="19.4951">Your app</text><rect fill="#F3F3F3" height="345.2656" style="stroke:#0A9EFD;stroke-width:0.5;" width="191" x="277.5" y="6"/><text fill="#000000" font-family="sans-serif" font-size="13" font-weight="bold" lengthAdjust="spacing" textLength="38" x="354" y="19.4951">Agora</text><line style="stroke:#0A9EFD;stroke-width:0.5;stroke-dasharray:5.0,5.0;" x1="22" x2="22" y1="87.6094" y2="265.6563"/><line style="stroke:#0A9EFD;stroke-width:0.5;stroke-dasharray:5.0,5.0;" x1="155" x2="155" y1="87.6094" y2="265.6563"/><line style="stroke:#0A9EFD;stroke-width:0.5;stroke-dasharray:5.0,5.0;" x1="329.5" x2="329.5" y1="87.6094" y2="265.6563"/><line style="stroke:#0A9EFD;stroke-width:0.5;stroke-dasharray:5.0,5.0;" x1="426.5" x2="426.5" y1="87.6094" y2="265.6563"/><text fill="#0A9EFD" font-family="Roboto" font-size="14" font-weight="bold" lengthAdjust="spacing" textLength="28" x="5" y="84.5332">You</text><ellipse cx="22" cy="16" fill="none" rx="8" ry="8" style="stroke:#0A9EFD;stroke-width:3.0;"/><path d="M22,24 L22,51 M9,32 L35,32 M22,51 L9,66 M22,51 L35,66 " fill="none" style="stroke:#0A9EFD;stroke-width:3.0;"/><text fill="#0A9EFD" font-family="Roboto" font-size="14" font-weight="bold" lengthAdjust="spacing" textLength="28" x="5" y="279.1895">You</text><ellipse cx="22" cy="293.2656" fill="none" rx="8" ry="8" style="stroke:#0A9EFD;stroke-width:3.0;"/><path d="M22,301.2656 L22,328.2656 M9,309.2656 L35,309.2656 M22,328.2656 L9,343.2656 M22,328.2656 L35,343.2656 " fill="none" style="stroke:#0A9EFD;stroke-width:3.0;"/><rect fill="#FFFFFF" height="31.6094" rx="2.5" ry="2.5" style="stroke:#0A9EFD;stroke-width:2.0;" width="68" x="121" y="55"/><text fill="#0A9EFD" font-family="Roboto" font-size="14" font-weight="bold" lengthAdjust="spacing" textLength="54" x="128" y="76.5332">IoT SDK</text><rect fill="#FFFFFF" height="31.6094" rx="2.5" ry="2.5" style="stroke:#0A9EFD;stroke-width:2.0;" width="68" x="121" y="264.6563"/><text fill="#0A9EFD" font-family="Roboto" font-size="14" font-weight="bold" lengthAdjust="spacing" textLength="54" x="128" y="286.1895">IoT SDK</text><rect fill="#FFFFFF" height="31.6094" rx="2.5" ry="2.5" style="stroke:#0A9EFD;stroke-width:2.0;" width="97" x="281.5" y="55"/><text fill="#0A9EFD" font-family="Roboto" font-size="14" font-weight="bold" lengthAdjust="spacing" textLength="83" x="288.5" y="76.5332">Agora Sales</text><rect fill="#FFFFFF" height="31.6094" rx="2.5" ry="2.5" style="stroke:#0A9EFD;stroke-width:2.0;" width="97" x="281.5" y="264.6563"/><text fill="#0A9EFD" font-family="Roboto" font-size="14" font-weight="bold" lengthAdjust="spacing" textLength="83" x="288.5" y="286.1895">Agora Sales</text><rect fill="#FFFFFF" height="31.6094" rx="2.5" ry="2.5" style="stroke:#0A9EFD;stroke-width:2.0;" width="76" x="388.5" y="55"/><text fill="#0A9EFD" font-family="Roboto" font-size="14" font-weight="bold" lengthAdjust="spacing" textLength="62" x="395.5" y="76.5332">REST API</text><rect fill="#FFFFFF" height="31.6094" rx="2.5" ry="2.5" style="stroke:#0A9EFD;stroke-width:2.0;" width="76" x="388.5" y="264.6563"/><text fill="#0A9EFD" font-family="Roboto" font-size="14" font-weight="bold" lengthAdjust="spacing" textLength="62" x="395.5" y="286.1895">REST API</text><polygon fill="#0A9EFD" points="318,117.2188,328,121.2188,318,125.2188,322,121.2188" style="stroke:#0A9EFD;stroke-width:1.0;"/><line style="stroke:#0A9EFD;stroke-width:2.0;" x1="22" x2="324" y1="121.2188" y2="121.2188"/><text fill="#0A9EFD" font-family="Roboto" font-size="14" font-weight="bold" lengthAdjust="spacing" textLength="284" x="34" y="116.1426">Contact Agora sales to request a license</text><polygon fill="#0A9EFD" points="33,148.8281,23,152.8281,33,156.8281,29,152.8281" style="stroke:#0A9EFD;stroke-width:1.0;"/><line style="stroke:#0A9EFD;stroke-width:2.0;" x1="27" x2="329" y1="152.8281" y2="152.8281"/><text fill="#0A9EFD" font-family="Roboto" font-size="14" font-weight="bold" lengthAdjust="spacing" textLength="175" x="88.5" y="147.752">Send license information</text><polygon fill="#0A9EFD" points="414.5,180.4375,424.5,184.4375,414.5,188.4375,418.5,184.4375" style="stroke:#0A9EFD;stroke-width:1.0;"/><line style="stroke:#0A9EFD;stroke-width:2.0;" x1="22" x2="420.5" y1="184.4375" y2="184.4375"/><text fill="#0A9EFD" font-family="Roboto" font-size="14" font-weight="bold" lengthAdjust="spacing" textLength="139" x="154.75" y="179.3613">Activate the license</text><polygon fill="#0A9EFD" points="33,212.0469,23,216.0469,33,220.0469,29,216.0469" style="stroke:#0A9EFD;stroke-width:1.0;"/><line style="stroke:#0A9EFD;stroke-width:2.0;" x1="27" x2="425.5" y1="216.0469" y2="216.0469"/><text fill="#0A9EFD" font-family="Roboto" font-size="14" font-weight="bold" lengthAdjust="spacing" textLength="187" x="130.75" y="210.9707">Send the activated license</text><polygon fill="#0A9EFD" points="143,243.6563,153,247.6563,143,251.6563,147,247.6563" style="stroke:#0A9EFD;stroke-width:1.0;"/><line style="stroke:#0A9EFD;stroke-width:2.0;" x1="22" x2="149" y1="247.6563" y2="247.6563"/><text fill="#0A9EFD" font-family="Roboto" font-size="14" font-weight="bold" lengthAdjust="spacing" textLength="109" x="34" y="242.5801">Use the license</text><!--SRC=[NOv1JiGm34NtESMd- -405KAgW4K5Yseois25J6eWeXENn4KSdoHJX3fR-xrdN_dWfcLaqBj4UacVFbpxvJGPGqubedcMfG4b7EtUc5VvgPC8ckV6p1JLEpzJK3Iz763l7olS3OFXC2BpgzIL_8LHPx0qSQgMxPwsmFx17dAhNvlzVpD_WzrjCLhSIT3yBCwvL79GGUIlXPE2C7d78N6LRdPdoPRKke0FRn9Ff5x2NpbVQz4vzT-a3FtWoqe5QgKiQIN73LOxGujZsYRCBm00]--></g></svg>