<?xml version="1.0" encoding="us-ascii" standalone="no"?><svg xmlns="http://www.w3.org/2000/svg" xmlns:xlink="http://www.w3.org/1999/xlink" contentStyleType="text/css" height="876px" preserveAspectRatio="none" style="width:342px;height:876px;" version="1.1" viewBox="0 0 342 876" width="342px" zoomAndPan="magnify"><defs/><g><rect fill="none" height="874.7645" style="stroke:#0A9EFD;stroke-width:1.0;" width="340" x="0" y="0"/><rect fill="#999999" fill-opacity="0.33333" height="864.7645" style="stroke:#0A9EFD;stroke-width:0.5;" width="68" x="7.3333" y="6"/><text fill="#0A9EFD" font-family="sans-serif" font-size="13" font-weight="bold" lengthAdjust="spacing" textLength="62" x="10.3333" y="18.5684">Your app</text><rect fill="#999999" fill-opacity="0.33333" height="864.7645" style="stroke:#0A9EFD;stroke-width:0.5;" width="80" x="250" y="6"/><text fill="#0A9EFD" font-family="sans-serif" font-size="13" font-weight="bold" lengthAdjust="spacing" textLength="41" x="269.5" y="18.5684">Agora</text><rect fill="#0A9EFD" fill-opacity="0.06667" height="171.7437" style="stroke:#0A9EFD;stroke-width:2.0;" width="326" x="10" y="299.7682"/><rect fill="#0A9EFD" fill-opacity="0.06667" height="74.8462" style="stroke:#0A9EFD;stroke-width:2.0;" width="326" x="10" y="485.5119"/><rect fill="#0A9EFD" fill-opacity="0.06667" height="116.7949" style="stroke:#0A9EFD;stroke-width:2.0;" width="326" x="10" y="574.3581"/><rect fill="#0A9EFD" fill-opacity="0.06667" height="87.8462" style="stroke:#0A9EFD;stroke-width:2.0;" width="326" x="10" y="705.153"/><line style="stroke:#0A9EFD;stroke-width:0.5;stroke-dasharray:5.0,5.0;" x1="41" x2="41" y1="83.0758" y2="809.9992"/><line style="stroke:#0A9EFD;stroke-width:0.5;stroke-dasharray:5.0,5.0;" x1="290" x2="290" y1="83.0758" y2="809.9992"/><rect fill="none" height="56.7653" rx="2.5" ry="2.5" style="stroke:#0A9EFD;stroke-width:2.0;" width="42.6667" x="20" y="25.3105"/><path d="M28,32.3105 L28,45.6439 L41.3333,45.6439 L41.3333,32.3105 L28,32.3105 M44.6667,38.9772 L44.6667,48.9772 L34.6667,48.9772 L34.6667,52.3105 L48,52.3105 L48,38.9772 L44.6667,38.9772 M51.3333,45.6439 L51.3333,55.6439 L41.3333,55.6439 L41.3333,58.9772 L54.6667,58.9772 L54.6667,45.6439 L51.3333,45.6439 " fill="#0A9EFD" style="stroke:;stroke-width:0.0;stroke-dasharray:;"/><text fill="#0A9EFD" font-family="Arial" font-size="14" lengthAdjust="spacing" textLength="28" x="27.3333" y="72.109">SDK</text><rect fill="none" height="56.7653" rx="2.5" ry="2.5" style="stroke:#0A9EFD;stroke-width:2.0;" width="42.6667" x="20" y="808.9992"/><path d="M28,815.9992 L28,829.3325 L41.3333,829.3325 L41.3333,815.9992 L28,815.9992 M44.6667,822.6659 L44.6667,832.6659 L34.6667,832.6659 L34.6667,835.9992 L48,835.9992 L48,822.6659 L44.6667,822.6659 M51.3333,829.3325 L51.3333,839.3325 L41.3333,839.3325 L41.3333,842.6659 L54.6667,842.6659 L54.6667,829.3325 L51.3333,829.3325 " fill="#0A9EFD" style="stroke:;stroke-width:0.0;stroke-dasharray:;"/><text fill="#0A9EFD" font-family="Arial" font-size="14" lengthAdjust="spacing" textLength="28" x="27.3333" y="855.7977">SDK</text><rect fill="none" height="56.7653" rx="2.5" ry="2.5" style="stroke:#0A9EFD;stroke-width:2.0;" width="72" x="254" y="25.3105"/><path d="M291.6667,32.3105 C287.6333,32.3105 284.1,35.1772 283.3333,38.9772 C279.6667,38.9772 276.6667,41.9772 276.6667,45.6439 C276.6667,49.3105 279.6667,52.3105 283.3333,52.3105 L298.3333,52.3105 C301.1,52.3105 303.3333,50.0772 303.3333,47.3105 C303.3333,45.1439 301.9333,43.0105 300,42.3105 L300,40.6439 C300,36.0439 296.2667,32.3105 291.6667,32.3105 " fill="#0A9EFD" style="stroke:;stroke-width:0.0;stroke-dasharray:;"/><text fill="#0A9EFD" font-family="Arial" font-size="14" lengthAdjust="spacing" textLength="58" x="261" y="72.109">SDRTN&#174;</text><rect fill="none" height="56.7653" rx="2.5" ry="2.5" style="stroke:#0A9EFD;stroke-width:2.0;" width="72" x="254" y="808.9992"/><path d="M291.6667,815.9992 C287.6333,815.9992 284.1,818.8659 283.3333,822.6659 C279.6667,822.6659 276.6667,825.6659 276.6667,829.3325 C276.6667,832.9992 279.6667,835.9992 283.3333,835.9992 L298.3333,835.9992 C301.1,835.9992 303.3333,833.7659 303.3333,830.9992 C303.3333,828.8325 301.9333,826.6992 300,825.9992 L300,824.3325 C300,819.7325 296.2667,815.9992 291.6667,815.9992 " fill="#0A9EFD" style="stroke:;stroke-width:0.0;stroke-dasharray:;"/><text fill="#0A9EFD" font-family="Arial" font-size="14" lengthAdjust="spacing" textLength="58" x="261" y="855.7977">SDRTN&#174;</text><line style="stroke:#0A9EFD;stroke-width:2.0;" x1="41.3333" x2="83.3333" y1="114.0246" y2="114.0246"/><line style="stroke:#0A9EFD;stroke-width:2.0;" x1="83.3333" x2="83.3333" y1="114.0246" y2="127.0246"/><line style="stroke:#0A9EFD;stroke-width:2.0;" x1="42.3333" x2="83.3333" y1="127.0246" y2="127.0246"/><polygon fill="#0A9EFD" points="52.3333,123.0246,42.3333,127.0246,52.3333,131.0246,48.3333,127.0246" style="stroke:#0A9EFD;stroke-width:1.0;"/><text fill="#0A9EFD" font-family="Arial" font-size="13" lengthAdjust="spacing" textLength="164" x="48.3333" y="109.2697">Create SDK engine instance</text><polygon fill="#0A9EFD" points="278,151.9733,288,155.9733,278,159.9733,282,155.9733" style="stroke:#0A9EFD;stroke-width:1.0;"/><line style="stroke:#0A9EFD;stroke-width:2.0;" x1="41.3333" x2="284" y1="155.9733" y2="155.9733"/><text fill="#0A9EFD" font-family="Arial" font-size="13" lengthAdjust="spacing" textLength="79" x="126.1667" y="151.2184">Initialize SDK</text><line style="stroke:#0A9EFD;stroke-width:2.0;" x1="41.3333" x2="83.3333" y1="184.922" y2="184.922"/><line style="stroke:#0A9EFD;stroke-width:2.0;" x1="83.3333" x2="83.3333" y1="184.922" y2="197.922"/><line style="stroke:#0A9EFD;stroke-width:2.0;" x1="42.3333" x2="83.3333" y1="197.922" y2="197.922"/><polygon fill="#0A9EFD" points="52.3333,193.922,42.3333,197.922,52.3333,201.922,48.3333,197.922" style="stroke:#0A9EFD;stroke-width:1.0;"/><text fill="#0A9EFD" font-family="Arial" font-size="13" lengthAdjust="spacing" textLength="144" x="48.3333" y="180.1672">Create connection object</text><polygon fill="#0A9EFD" points="278,222.8708,288,226.8708,278,230.8708,282,226.8708" style="stroke:#0A9EFD;stroke-width:1.0;"/><line style="stroke:#0A9EFD;stroke-width:2.0;" x1="41.3333" x2="284" y1="226.8708" y2="226.8708"/><text fill="#0A9EFD" font-family="Arial" font-size="13" lengthAdjust="spacing" textLength="216" x="57.6667" y="222.1159">Register a connection event observer</text><polygon fill="#0A9EFD" points="278,251.8195,288,255.8195,278,259.8195,282,255.8195" style="stroke:#0A9EFD;stroke-width:1.0;"/><line style="stroke:#0A9EFD;stroke-width:2.0;" x1="41.3333" x2="284" y1="255.8195" y2="255.8195"/><text fill="#0A9EFD" font-family="Arial" font-size="13" lengthAdjust="spacing" textLength="147" x="92.1667" y="251.0646">Connect to Agora service</text><polygon fill="#0A9EFD" points="52.3333,280.7682,42.3333,284.7682,52.3333,288.7682,48.3333,284.7682" style="stroke:#0A9EFD;stroke-width:1.0;"/><line style="stroke:#0A9EFD;stroke-width:2.0;" x1="46.3333" x2="289" y1="284.7682" y2="284.7682"/><text fill="#0A9EFD" font-family="Arial" font-size="13" lengthAdjust="spacing" textLength="135" x="98.1667" y="280.0133">Connection established</text><path d="M10,299.7682 L175,299.7682 L175,306.717 L165,316.717 L10,316.717 L10,299.7682 " fill="#EEEEEE" style="stroke:#0A9EFD;stroke-width:1.5;"/><rect fill="none" height="171.7437" style="stroke:#0A9EFD;stroke-width:2.0;" width="326" x="10" y="299.7682"/><text fill="#000000" font-family="Arial" font-size="13" lengthAdjust="spacing" textLength="120" x="25" y="312.9621">Send media streams</text><line style="stroke:#0A9EFD;stroke-width:2.0;" x1="41.3333" x2="83.3333" y1="337.6657" y2="337.6657"/><line style="stroke:#0A9EFD;stroke-width:2.0;" x1="83.3333" x2="83.3333" y1="337.6657" y2="350.6657"/><line style="stroke:#0A9EFD;stroke-width:2.0;" x1="42.3333" x2="83.3333" y1="350.6657" y2="350.6657"/><polygon fill="#0A9EFD" points="52.3333,346.6657,42.3333,350.6657,52.3333,354.6657,48.3333,350.6657" style="stroke:#0A9EFD;stroke-width:1.0;"/><text fill="#0A9EFD" font-family="Arial" font-size="13" lengthAdjust="spacing" textLength="166" x="48.3333" y="332.9108">Create media sender objects</text><line style="stroke:#0A9EFD;stroke-width:2.0;" x1="41.3333" x2="83.3333" y1="379.6144" y2="379.6144"/><line style="stroke:#0A9EFD;stroke-width:2.0;" x1="83.3333" x2="83.3333" y1="379.6144" y2="392.6144"/><line style="stroke:#0A9EFD;stroke-width:2.0;" x1="42.3333" x2="83.3333" y1="392.6144" y2="392.6144"/><polygon fill="#0A9EFD" points="52.3333,388.6144,42.3333,392.6144,52.3333,396.6144,48.3333,392.6144" style="stroke:#0A9EFD;stroke-width:1.0;"/><text fill="#0A9EFD" font-family="Arial" font-size="13" lengthAdjust="spacing" textLength="173" x="48.3333" y="374.8595">Create audio and video tracks</text><line style="stroke:#0A9EFD;stroke-width:2.0;" x1="41.3333" x2="83.3333" y1="421.5632" y2="421.5632"/><line style="stroke:#0A9EFD;stroke-width:2.0;" x1="83.3333" x2="83.3333" y1="421.5632" y2="434.5632"/><line style="stroke:#0A9EFD;stroke-width:2.0;" x1="42.3333" x2="83.3333" y1="434.5632" y2="434.5632"/><polygon fill="#0A9EFD" points="52.3333,430.5632,42.3333,434.5632,52.3333,438.5632,48.3333,434.5632" style="stroke:#0A9EFD;stroke-width:1.0;"/><text fill="#0A9EFD" font-family="Arial" font-size="13" lengthAdjust="spacing" textLength="119" x="48.3333" y="416.8083">Enable media tracks</text><polygon fill="#0A9EFD" points="278,459.5119,288,463.5119,278,467.5119,282,463.5119" style="stroke:#0A9EFD;stroke-width:1.0;"/><line style="stroke:#0A9EFD;stroke-width:2.0;" x1="41.3333" x2="284" y1="463.5119" y2="463.5119"/><text fill="#0A9EFD" font-family="Arial" font-size="13" lengthAdjust="spacing" textLength="122" x="104.6667" y="458.757">Publish media tracks</text><path d="M10,485.5119 L192,485.5119 L192,492.4606 L182,502.4606 L10,502.4606 L10,485.5119 " fill="#EEEEEE" style="stroke:#0A9EFD;stroke-width:1.5;"/><rect fill="none" height="74.8462" style="stroke:#0A9EFD;stroke-width:2.0;" width="326" x="10" y="485.5119"/><text fill="#000000" font-family="Arial" font-size="13" lengthAdjust="spacing" textLength="137" x="25" y="498.7057">Receive media streams</text><polygon fill="#0A9EFD" points="278,519.4093,288,523.4093,278,527.4093,282,523.4093" style="stroke:#0A9EFD;stroke-width:1.0;"/><line style="stroke:#0A9EFD;stroke-width:2.0;" x1="41.3333" x2="284" y1="523.4093" y2="523.4093"/><text fill="#0A9EFD" font-family="Arial" font-size="13" lengthAdjust="spacing" textLength="185" x="73.1667" y="518.6545">Register media frame observers</text><polygon fill="#0A9EFD" points="52.3333,548.3581,42.3333,552.3581,52.3333,556.3581,48.3333,552.3581" style="stroke:#0A9EFD;stroke-width:1.0;"/><line style="stroke:#0A9EFD;stroke-width:2.0;" x1="46.3333" x2="289" y1="552.3581" y2="552.3581"/><text fill="#0A9EFD" font-family="Arial" font-size="13" lengthAdjust="spacing" textLength="137" x="97.1667" y="547.6032">Receive media streams</text><path d="M10,574.3581 L302,574.3581 L302,581.3068 L292,591.3068 L10,591.3068 L10,574.3581 " fill="#EEEEEE" style="stroke:#0A9EFD;stroke-width:1.5;"/><rect fill="none" height="116.7949" style="stroke:#0A9EFD;stroke-width:2.0;" width="326" x="10" y="574.3581"/><text fill="#000000" font-family="Arial" font-size="13" lengthAdjust="spacing" textLength="247" x="25" y="587.5519">Stop sending and receiving media streams</text><polygon fill="#0A9EFD" points="278,608.2555,288,612.2555,278,616.2555,282,612.2555" style="stroke:#0A9EFD;stroke-width:1.0;"/><line style="stroke:#0A9EFD;stroke-width:2.0;" x1="41.3333" x2="284" y1="612.2555" y2="612.2555"/><text fill="#0A9EFD" font-family="Arial" font-size="13" lengthAdjust="spacing" textLength="179" x="76.1667" y="607.5007">Stop publishing media streams</text><line style="stroke:#0A9EFD;stroke-width:2.0;" x1="41.3333" x2="83.3333" y1="641.2043" y2="641.2043"/><line style="stroke:#0A9EFD;stroke-width:2.0;" x1="83.3333" x2="83.3333" y1="641.2043" y2="654.2043"/><line style="stroke:#0A9EFD;stroke-width:2.0;" x1="42.3333" x2="83.3333" y1="654.2043" y2="654.2043"/><polygon fill="#0A9EFD" points="52.3333,650.2043,42.3333,654.2043,52.3333,658.2043,48.3333,654.2043" style="stroke:#0A9EFD;stroke-width:1.0;"/><text fill="#0A9EFD" font-family="Arial" font-size="13" lengthAdjust="spacing" textLength="129" x="48.3333" y="636.4494">Disable media capture</text><polygon fill="#0A9EFD" points="278,679.153,288,683.153,278,687.153,282,683.153" style="stroke:#0A9EFD;stroke-width:1.0;"/><line style="stroke:#0A9EFD;stroke-width:2.0;" x1="41.3333" x2="284" y1="683.153" y2="683.153"/><text fill="#0A9EFD" font-family="Arial" font-size="13" lengthAdjust="spacing" textLength="159" x="86.1667" y="678.3981">Unregister media observers</text><path d="M10,705.153 L120,705.153 L120,712.1017 L110,722.1017 L10,722.1017 L10,705.153 " fill="#EEEEEE" style="stroke:#0A9EFD;stroke-width:1.5;"/><rect fill="none" height="87.8462" style="stroke:#0A9EFD;stroke-width:2.0;" width="326" x="10" y="705.153"/><text fill="#000000" font-family="Arial" font-size="13" lengthAdjust="spacing" textLength="65" x="25" y="718.3468">Disconnect</text><polygon fill="#0A9EFD" points="278,739.0505,288,743.0505,278,747.0505,282,743.0505" style="stroke:#0A9EFD;stroke-width:1.0;"/><line style="stroke:#0A9EFD;stroke-width:2.0;" x1="41.3333" x2="284" y1="743.0505" y2="743.0505"/><text fill="#0A9EFD" font-family="Arial" font-size="13" lengthAdjust="spacing" textLength="179" x="76.1667" y="738.2956">Disconnect from Agora service</text><line style="stroke:#0A9EFD;stroke-width:2.0;" x1="41.3333" x2="83.3333" y1="771.9992" y2="771.9992"/><line style="stroke:#0A9EFD;stroke-width:2.0;" x1="83.3333" x2="83.3333" y1="771.9992" y2="784.9992"/><line style="stroke:#0A9EFD;stroke-width:2.0;" x1="42.3333" x2="83.3333" y1="784.9992" y2="784.9992"/><polygon fill="#0A9EFD" points="52.3333,780.9992,42.3333,784.9992,52.3333,788.9992,48.3333,784.9992" style="stroke:#0A9EFD;stroke-width:1.0;"/><text fill="#0A9EFD" font-family="Arial" font-size="13" lengthAdjust="spacing" textLength="125" x="48.3333" y="767.2443">Release all resources</text><!--SRC=[VPDDJiCm48NtESMG1JiG2rPLLQagB28a5BMmG492ZZE4eOvj-IS23iKXE1cJf2K9jEpoy-PxxqsS4z9InH91LCQ99xybVKwnLWaaXNc3zC541yBQDB721P9aXGwGpZrzuEpoOZ4_LU8TdLyywitLJGh2mpBF4zGby7pIGvOj-pX1AXFB3h2-k_twt46o0S94E5kqu1ci78g0m6Q0kYADGDe7eIKEicm6cQP0Gh57Apr4a4Phb86C1bEyyjLaVeqL-O3SVIp41ZcxAJow1jraODMh81ZewaAheIvLDbYFK1owKEHVi4oIofbeOTCMhh4a7WuSilQ7Sky4hELqVVA3EX5BCY0OsL291e8JSZjLNckEi2V-Vi-TyjWbd0hOU1zuZHAfmMEPnsli9SzErFYpFp_PpM7Oo6qJZErwawwwNgwRQE-E1-Y6RD_Z7oNxNv4VRKCA6wARdgbxxQPrXYAZcCpPdPZ9yF2Ojs3gFuSa7or2eV3y0PNYYfv_G8czmpS0]--></g></svg>