<svg xmlns="http://www.w3.org/2000/svg" xmlns:xlink="http://www.w3.org/1999/xlink" contentStyleType="text/css" data-diagram-type="SEQUENCE" height="883px" preserveAspectRatio="none" style="width:347px;height:883px;" version="1.1" viewBox="0 0 347 883" width="347px" zoomAndPan="magnify"><?plantuml 1.2026.4?><defs/><g><rect fill="none" height="881.9061" style="stroke:#0A9EFD;stroke-width:1;" width="345.6748" x="0" y="0"/><rect fill="#999999" fill-opacity="0.33333" height="870.9061" style="stroke:#0A9EFD;stroke-width:0.5;" width="62.3354" x="10.2253" y="6"/><text fill="#0A9EFD" font-family="sans-serif" font-size="13" font-weight="700" lengthAdjust="spacing" textLength="56.3354" x="13.2253" y="19.4951">Your app</text><rect fill="#999999" fill-opacity="0.33333" height="870.9061" style="stroke:#0A9EFD;stroke-width:0.5;" width="78.3257" x="247.3491" y="6"/><text fill="#0A9EFD" font-family="sans-serif" font-size="13" font-weight="700" lengthAdjust="spacing" textLength="37.5591" x="267.7324" y="19.4951">Agora</text><rect fill="#0A9EFD" fill-opacity="0.06667" height="171.7437" style="stroke:#0A9EFD;stroke-width:2;" width="321.6748" x="10" y="303.3595"/><rect fill="#0A9EFD" fill-opacity="0.06667" height="74.8462" style="stroke:#0A9EFD;stroke-width:2;" width="321.6748" x="10" y="489.1032"/><rect fill="#0A9EFD" fill-opacity="0.06667" height="116.7949" style="stroke:#0A9EFD;stroke-width:2;" width="321.6748" x="10" y="577.9494"/><rect fill="#0A9EFD" fill-opacity="0.06667" height="87.8462" style="stroke:#0A9EFD;stroke-width:2;" width="321.6748" x="10" y="708.7443"/><g class="participant-lifeline" data-entity-uid="part1" data-qualified-name="APP" data-source-line="5" id="part1-lifeline"><g><title>.size.40...layers.</title><rect fill="#000000" fill-opacity="0.00000" height="726.9233" width="8" x="37.3931" y="86.6672"/><line style="stroke:#0A9EFD;stroke-width:0.5;stroke-dasharray:5,5;" x1="41" x2="41" y1="86.6672" y2="813.5905"/></g></g><g class="participant-lifeline" data-entity-uid="part2" data-qualified-name="API" data-source-line="9" id="part2-lifeline"><g><title>.size.40...cloud.</title><rect fill="#000000" fill-opacity="0.00000" height="726.9233" width="8" x="282.512" y="86.6672"/><line style="stroke:#0A9EFD;stroke-width:0.5;stroke-dasharray:5,5;" x1="286.3491" x2="286.3491" y1="86.6672" y2="813.5905"/></g></g><g class="participant participant-head" data-entity-uid="part1" data-qualified-name="APP" data-source-line="5" id="part1-head"><rect fill="none" height="56.7653" rx="2.5" ry="2.5" style="stroke:#0A9EFD;stroke-width:2;" width="42.7861" x="20" y="28.9019"/><path d="M28.0597,35.9019 L28.0597,49.2352 L41.3931,49.2352 L41.3931,35.9019 L28.0597,35.9019 M44.7264,42.5685 L44.7264,52.5685 L34.7264,52.5685 L34.7264,55.9019 L48.0597,55.9019 L48.0597,42.5685 L44.7264,42.5685 M51.3931,49.2352 L51.3931,59.2352 L41.3931,59.2352 L41.3931,62.5685 L54.7264,62.5685 L54.7264,49.2352 L51.3931,49.2352" fill="#0A9EFD"/><text fill="#0A9EFD" font-family="Arial" font-size="14" lengthAdjust="spacing" textLength="28.7861" x="27" y="75.7004">SDK</text></g><g class="participant participant-tail" data-entity-uid="part1" data-qualified-name="APP" data-source-line="5" id="part1-tail"><rect fill="none" height="56.7653" rx="2.5" ry="2.5" style="stroke:#0A9EFD;stroke-width:2;" width="42.7861" x="20" y="812.5905"/><path d="M28.0597,819.5905 L28.0597,832.9238 L41.3931,832.9238 L41.3931,819.5905 L28.0597,819.5905 M44.7264,826.2572 L44.7264,836.2572 L34.7264,836.2572 L34.7264,839.5905 L48.0597,839.5905 L48.0597,826.2572 L44.7264,826.2572 M51.3931,832.9238 L51.3931,842.9238 L41.3931,842.9238 L41.3931,846.2572 L54.7264,846.2572 L54.7264,832.9238 L51.3931,832.9238" fill="#0A9EFD"/><text fill="#0A9EFD" font-family="Arial" font-size="14" lengthAdjust="spacing" textLength="28.7861" x="27" y="859.389">SDK</text></g><g class="participant participant-head" data-entity-uid="part2" data-qualified-name="API" data-source-line="9" id="part2-head"><rect fill="none" height="59.3156" rx="2.5" ry="2.5" style="stroke:#0A9EFD;stroke-width:2;" width="70.3257" x="251.3491" y="26.3516"/><path d="M288.1786,36.6849 C284.1453,36.6849 280.612,39.5516 279.8453,43.3516 C276.1786,43.3516 273.1786,46.3516 273.1786,50.0182 C273.1786,53.6849 276.1786,56.6849 279.8453,56.6849 L294.8453,56.6849 C297.612,56.6849 299.8453,54.4516 299.8453,51.6849 C299.8453,49.5182 298.4453,47.3849 296.512,46.6849 L296.512,45.0182 C296.512,40.4182 292.7786,36.6849 288.1786,36.6849" fill="#0A9EFD"/><text fill="#0A9EFD" font-family="Arial" font-size="14" lengthAdjust="spacing" textLength="48.2207" x="258.3491" y="75.7004">SDRTN</text><text fill="#0A9EFD" font-family="Arial" font-size="11" lengthAdjust="spacing" textLength="8.105" x="306.5698" y="70.3361">&#174;</text></g><g class="participant participant-tail" data-entity-uid="part2" data-qualified-name="API" data-source-line="9" id="part2-tail"><rect fill="none" height="59.3156" rx="2.5" ry="2.5" style="stroke:#0A9EFD;stroke-width:2;" width="70.3257" x="251.3491" y="812.5905"/><path d="M288.1786,822.9238 C284.1453,822.9238 280.612,825.7905 279.8453,829.5905 C276.1786,829.5905 273.1786,832.5905 273.1786,836.2572 C273.1786,839.9238 276.1786,842.9238 279.8453,842.9238 L294.8453,842.9238 C297.612,842.9238 299.8453,840.6905 299.8453,837.9238 C299.8453,835.7572 298.4453,833.6238 296.512,832.9238 L296.512,831.2572 C296.512,826.6572 292.7786,822.9238 288.1786,822.9238" fill="#0A9EFD"/><text fill="#0A9EFD" font-family="Arial" font-size="14" lengthAdjust="spacing" textLength="48.2207" x="258.3491" y="861.9393">SDRTN</text><text fill="#0A9EFD" font-family="Arial" font-size="11" lengthAdjust="spacing" textLength="8.105" x="306.5698" y="856.575">&#174;</text></g><g class="message" data-entity-1="part1" data-entity-2="part1" data-source-line="12" id="msg1"><line style="stroke:#0A9EFD;stroke-width:2;" x1="41.3931" x2="83.3931" y1="117.6159" y2="117.6159"/><line style="stroke:#0A9EFD;stroke-width:2;" x1="83.3931" x2="83.3931" y1="117.6159" y2="130.6159"/><line style="stroke:#0A9EFD;stroke-width:2;" x1="42.3931" x2="83.3931" y1="130.6159" y2="130.6159"/><polygon fill="#0A9EFD" points="52.3931,126.6159,42.3931,130.6159,52.3931,134.6159,48.3931,130.6159" style="stroke:#0A9EFD;stroke-width:1;stroke-linejoin:miter;stroke-miterlimit:10;"/><text fill="#0A9EFD" font-family="Arial" font-size="13" lengthAdjust="spacing" textLength="164.0425" x="48.3931" y="112.861">Create SDK engine instance</text></g><g class="message" data-entity-1="part1" data-entity-2="part2" data-source-line="13" id="msg2"><polygon fill="#0A9EFD" points="274.512,155.5646,284.512,159.5646,274.512,163.5646,278.512,159.5646" style="stroke:#0A9EFD;stroke-width:1;stroke-linejoin:miter;stroke-miterlimit:10;"/><line style="stroke:#0A9EFD;stroke-width:2;" x1="41.3931" x2="280.512" y1="159.5646" y2="159.5646"/><text fill="#0A9EFD" font-family="Arial" font-size="13" lengthAdjust="spacing" textLength="77.3081" x="125.2985" y="154.8097">Initialize SDK</text></g><g class="message" data-entity-1="part1" data-entity-2="part1" data-source-line="14" id="msg3"><line style="stroke:#0A9EFD;stroke-width:2;" x1="41.3931" x2="83.3931" y1="188.5133" y2="188.5133"/><line style="stroke:#0A9EFD;stroke-width:2;" x1="83.3931" x2="83.3931" y1="188.5133" y2="201.5133"/><line style="stroke:#0A9EFD;stroke-width:2;" x1="42.3931" x2="83.3931" y1="201.5133" y2="201.5133"/><polygon fill="#0A9EFD" points="52.3931,197.5133,42.3931,201.5133,52.3931,205.5133,48.3931,201.5133" style="stroke:#0A9EFD;stroke-width:1;stroke-linejoin:miter;stroke-miterlimit:10;"/><text fill="#0A9EFD" font-family="Arial" font-size="13" lengthAdjust="spacing" textLength="143.8125" x="48.3931" y="183.7585">Create connection object</text></g><g class="message" data-entity-1="part1" data-entity-2="part2" data-source-line="15" id="msg4"><polygon fill="#0A9EFD" points="274.512,226.4621,284.512,230.4621,274.512,234.4621,278.512,230.4621" style="stroke:#0A9EFD;stroke-width:1;stroke-linejoin:miter;stroke-miterlimit:10;"/><line style="stroke:#0A9EFD;stroke-width:2;" x1="41.3931" x2="280.512" y1="230.4621" y2="230.4621"/><text fill="#0A9EFD" font-family="Arial" font-size="13" lengthAdjust="spacing" textLength="215.3442" x="56.2804" y="225.7072">Register a connection event observer</text></g><g class="message" data-entity-1="part1" data-entity-2="part2" data-source-line="16" id="msg5"><polygon fill="#0A9EFD" points="274.512,255.4108,284.512,259.4108,274.512,263.4108,278.512,259.4108" style="stroke:#0A9EFD;stroke-width:1;stroke-linejoin:miter;stroke-miterlimit:10;"/><line style="stroke:#0A9EFD;stroke-width:2;" x1="41.3931" x2="280.512" y1="259.4108" y2="259.4108"/><text fill="#0A9EFD" font-family="Arial" font-size="13" lengthAdjust="spacing" textLength="145.9644" x="90.9703" y="254.6559">Connect to Agora service</text></g><g class="message" data-entity-1="part2" data-entity-2="part1" data-source-line="17" id="msg6"><polygon fill="#0A9EFD" points="52.3931,284.3595,42.3931,288.3595,52.3931,292.3595,48.3931,288.3595" style="stroke:#0A9EFD;stroke-width:1;stroke-linejoin:miter;stroke-miterlimit:10;"/><line style="stroke:#0A9EFD;stroke-width:2;" x1="46.3931" x2="285.512" y1="288.3595" y2="288.3595"/><text fill="#0A9EFD" font-family="Arial" font-size="13" lengthAdjust="spacing" textLength="135.1479" x="96.3785" y="283.6047">Connection established</text></g><path d="M10,303.3595 L174.2217,303.3595 L174.2217,310.3083 L164.2217,320.3083 L10,320.3083 L10,303.3595" fill="#EEEEEE" style="stroke:#0A9EFD;stroke-width:1.5;"/><rect fill="none" height="171.7437" style="stroke:#0A9EFD;stroke-width:2;" width="321.6748" x="10" y="303.3595"/><text fill="#000000" font-family="Arial" font-size="13" lengthAdjust="spacing" textLength="119.2217" x="25" y="316.5534">Send media streams</text><g class="message" data-entity-1="part1" data-entity-2="part1" data-source-line="20" id="msg7"><line style="stroke:#0A9EFD;stroke-width:2;" x1="41.3931" x2="83.3931" y1="341.257" y2="341.257"/><line style="stroke:#0A9EFD;stroke-width:2;" x1="83.3931" x2="83.3931" y1="341.257" y2="354.257"/><line style="stroke:#0A9EFD;stroke-width:2;" x1="42.3931" x2="83.3931" y1="354.257" y2="354.257"/><polygon fill="#0A9EFD" points="52.3931,350.257,42.3931,354.257,52.3931,358.257,48.3931,354.257" style="stroke:#0A9EFD;stroke-width:1;stroke-linejoin:miter;stroke-miterlimit:10;"/><text fill="#0A9EFD" font-family="Arial" font-size="13" lengthAdjust="spacing" textLength="166.2007" x="48.3931" y="336.5021">Create media sender objects</text></g><g class="message" data-entity-1="part1" data-entity-2="part1" data-source-line="21" id="msg8"><line style="stroke:#0A9EFD;stroke-width:2;" x1="41.3931" x2="83.3931" y1="383.2057" y2="383.2057"/><line style="stroke:#0A9EFD;stroke-width:2;" x1="83.3931" x2="83.3931" y1="383.2057" y2="396.2057"/><line style="stroke:#0A9EFD;stroke-width:2;" x1="42.3931" x2="83.3931" y1="396.2057" y2="396.2057"/><polygon fill="#0A9EFD" points="52.3931,392.2057,42.3931,396.2057,52.3931,400.2057,48.3931,396.2057" style="stroke:#0A9EFD;stroke-width:1;stroke-linejoin:miter;stroke-miterlimit:10;"/><text fill="#0A9EFD" font-family="Arial" font-size="13" lengthAdjust="spacing" textLength="172.7134" x="48.3931" y="378.4508">Create audio and video tracks</text></g><g class="message" data-entity-1="part1" data-entity-2="part1" data-source-line="22" id="msg9"><line style="stroke:#0A9EFD;stroke-width:2;" x1="41.3931" x2="83.3931" y1="425.1545" y2="425.1545"/><line style="stroke:#0A9EFD;stroke-width:2;" x1="83.3931" x2="83.3931" y1="425.1545" y2="438.1545"/><line style="stroke:#0A9EFD;stroke-width:2;" x1="42.3931" x2="83.3931" y1="438.1545" y2="438.1545"/><polygon fill="#0A9EFD" points="52.3931,434.1545,42.3931,438.1545,52.3931,442.1545,48.3931,438.1545" style="stroke:#0A9EFD;stroke-width:1;stroke-linejoin:miter;stroke-miterlimit:10;"/><text fill="#0A9EFD" font-family="Arial" font-size="13" lengthAdjust="spacing" textLength="117.7808" x="48.3931" y="420.3996">Enable media tracks</text></g><g class="message" data-entity-1="part1" data-entity-2="part2" data-source-line="23" id="msg10"><polygon fill="#0A9EFD" points="274.512,463.1032,284.512,467.1032,274.512,471.1032,278.512,467.1032" style="stroke:#0A9EFD;stroke-width:1;stroke-linejoin:miter;stroke-miterlimit:10;"/><line style="stroke:#0A9EFD;stroke-width:2;" x1="41.3931" x2="280.512" y1="467.1032" y2="467.1032"/><text fill="#0A9EFD" font-family="Arial" font-size="13" lengthAdjust="spacing" textLength="119.939" x="103.983" y="462.3483">Publish media tracks</text></g><path d="M10,489.1032 L190.8271,489.1032 L190.8271,496.0519 L180.8271,506.0519 L10,506.0519 L10,489.1032" fill="#EEEEEE" style="stroke:#0A9EFD;stroke-width:1.5;"/><rect fill="none" height="74.8462" style="stroke:#0A9EFD;stroke-width:2;" width="321.6748" x="10" y="489.1032"/><text fill="#000000" font-family="Arial" font-size="13" lengthAdjust="spacing" textLength="135.8271" x="25" y="502.297">Receive media streams</text><g class="message" data-entity-1="part1" data-entity-2="part2" data-source-line="27" id="msg11"><polygon fill="#0A9EFD" points="274.512,523.0007,284.512,527.0007,274.512,531.0007,278.512,527.0007" style="stroke:#0A9EFD;stroke-width:1;stroke-linejoin:miter;stroke-miterlimit:10;"/><line style="stroke:#0A9EFD;stroke-width:2;" x1="41.3931" x2="280.512" y1="527.0007" y2="527.0007"/><text fill="#0A9EFD" font-family="Arial" font-size="13" lengthAdjust="spacing" textLength="184.958" x="71.4735" y="522.2458">Register media frame observers</text></g><g class="message" data-entity-1="part2" data-entity-2="part1" data-source-line="28" id="msg12"><polygon fill="#0A9EFD" points="52.3931,551.9494,42.3931,555.9494,52.3931,559.9494,48.3931,555.9494" style="stroke:#0A9EFD;stroke-width:1;stroke-linejoin:miter;stroke-miterlimit:10;"/><line style="stroke:#0A9EFD;stroke-width:2;" x1="46.3931" x2="285.512" y1="555.9494" y2="555.9494"/><text fill="#0A9EFD" font-family="Arial" font-size="13" lengthAdjust="spacing" textLength="135.8271" x="96.0389" y="551.1945">Receive media streams</text></g><path d="M10,577.9494 L300.6924,577.9494 L300.6924,584.8981 L290.6924,594.8981 L10,594.8981 L10,577.9494" fill="#EEEEEE" style="stroke:#0A9EFD;stroke-width:1.5;"/><rect fill="none" height="116.7949" style="stroke:#0A9EFD;stroke-width:2;" width="321.6748" x="10" y="577.9494"/><text fill="#000000" font-family="Arial" font-size="13" lengthAdjust="spacing" textLength="245.6924" x="25" y="591.1432">Stop sending and receiving media streams</text><g class="message" data-entity-1="part1" data-entity-2="part2" data-source-line="32" id="msg13"><polygon fill="#0A9EFD" points="274.512,611.8468,284.512,615.8468,274.512,619.8468,278.512,615.8468" style="stroke:#0A9EFD;stroke-width:1;stroke-linejoin:miter;stroke-miterlimit:10;"/><line style="stroke:#0A9EFD;stroke-width:2;" x1="41.3931" x2="280.512" y1="615.8468" y2="615.8468"/><text fill="#0A9EFD" font-family="Arial" font-size="13" lengthAdjust="spacing" textLength="177.7598" x="75.0726" y="611.092">Stop publishing media streams</text></g><g class="message" data-entity-1="part1" data-entity-2="part1" data-source-line="33" id="msg14"><line style="stroke:#0A9EFD;stroke-width:2;" x1="41.3931" x2="83.3931" y1="644.7956" y2="644.7956"/><line style="stroke:#0A9EFD;stroke-width:2;" x1="83.3931" x2="83.3931" y1="644.7956" y2="657.7956"/><line style="stroke:#0A9EFD;stroke-width:2;" x1="42.3931" x2="83.3931" y1="657.7956" y2="657.7956"/><polygon fill="#0A9EFD" points="52.3931,653.7956,42.3931,657.7956,52.3931,661.7956,48.3931,657.7956" style="stroke:#0A9EFD;stroke-width:1;stroke-linejoin:miter;stroke-miterlimit:10;"/><text fill="#0A9EFD" font-family="Arial" font-size="13" lengthAdjust="spacing" textLength="129.3462" x="48.3931" y="640.0407">Disable media capture</text></g><g class="message" data-entity-1="part1" data-entity-2="part2" data-source-line="34" id="msg15"><polygon fill="#0A9EFD" points="274.512,682.7443,284.512,686.7443,274.512,690.7443,278.512,686.7443" style="stroke:#0A9EFD;stroke-width:1;stroke-linejoin:miter;stroke-miterlimit:10;"/><line style="stroke:#0A9EFD;stroke-width:2;" x1="41.3931" x2="280.512" y1="686.7443" y2="686.7443"/><text fill="#0A9EFD" font-family="Arial" font-size="13" lengthAdjust="spacing" textLength="159.6753" x="84.1149" y="681.9894">Unregister media observers</text></g><path d="M10,708.7443 L119.3081,708.7443 L119.3081,715.693 L109.3081,725.693 L10,725.693 L10,708.7443" fill="#EEEEEE" style="stroke:#0A9EFD;stroke-width:1.5;"/><rect fill="none" height="87.8462" style="stroke:#0A9EFD;stroke-width:2;" width="321.6748" x="10" y="708.7443"/><text fill="#000000" font-family="Arial" font-size="13" lengthAdjust="spacing" textLength="64.3081" x="25" y="721.9382">Disconnect</text><g class="message" data-entity-1="part1" data-entity-2="part2" data-source-line="38" id="msg16"><polygon fill="#0A9EFD" points="274.512,742.6418,284.512,746.6418,274.512,750.6418,278.512,746.6418" style="stroke:#0A9EFD;stroke-width:1;stroke-linejoin:miter;stroke-miterlimit:10;"/><line style="stroke:#0A9EFD;stroke-width:2;" x1="41.3931" x2="280.512" y1="746.6418" y2="746.6418"/><text fill="#0A9EFD" font-family="Arial" font-size="13" lengthAdjust="spacing" textLength="177.0107" x="75.4471" y="741.8869">Disconnect from Agora service</text></g><g class="message" data-entity-1="part1" data-entity-2="part1" data-source-line="39" id="msg17"><line style="stroke:#0A9EFD;stroke-width:2;" x1="41.3931" x2="83.3931" y1="775.5905" y2="775.5905"/><line style="stroke:#0A9EFD;stroke-width:2;" x1="83.3931" x2="83.3931" y1="775.5905" y2="788.5905"/><line style="stroke:#0A9EFD;stroke-width:2;" x1="42.3931" x2="83.3931" y1="788.5905" y2="788.5905"/><polygon fill="#0A9EFD" points="52.3931,784.5905,42.3931,788.5905,52.3931,792.5905,48.3931,788.5905" style="stroke:#0A9EFD;stroke-width:1;stroke-linejoin:miter;stroke-miterlimit:10;"/><text fill="#0A9EFD" font-family="Arial" font-size="13" lengthAdjust="spacing" textLength="125.0044" x="48.3931" y="770.8356">Release all resources</text></g><?plantuml-src VLFDJi904BxtAKOEtW0FdWWX8UA1c1W2UZ0nCTljM4Uskvlz8Uf3-H0-cTCjs5R1K_--tzdf6McfOe4m6ertLA0P-c8x5gLnuiblIOyeLYg3B3TlC7WmqO6mTf1PuG99ia8764mzVU3ayc8sFLVY7PsVFUhDucO0miDyjSfG5y3yh16Przgd5QGoiKW2wxlRgOzszlKv7TVNlTworMDn6CvgZmbSEHG1WNq1TKaQWRGFGajiOSi9B3K54ehjQkWn1McqHXd8Q33vAz_r-6iioGVaCNI1k4EkONAFReUkHxXgK10CfEPGOoYbMhRM7IaEdIloBrXaMUbCjB2f2rTO49C3XwpyiTnx06CvNPFyA4x4WWm8bapd3S49kUqZhpL7E2Z-_iwTLZ4bx0FO-11uZH9fXwSoTyVOG9wTgF1dVhutc-DY7RTDC3Rr9bscNYunwgVJ0HB9DZt-GRB_Wdnd6bBO45r_f-wrwzTfYtHYiiv-OthazZLFmLH_bcJL6OH2uVa0bUAAdlz5YOt3Dm00?></g></svg>