<?xml version="1.0" encoding="us-ascii" standalone="no"?><svg xmlns="http://www.w3.org/2000/svg" xmlns:xlink="http://www.w3.org/1999/xlink" contentStyleType="text/css" height="877px" preserveAspectRatio="none" style="width:332px;height:877px;" version="1.1" viewBox="0 0 332 877" width="332px" zoomAndPan="magnify"><defs/><g><rect fill="none" height="875.8055" style="stroke:#0A9EFD;stroke-width:1.0;" width="330.5" x="0" y="0"/><rect fill="#999999" fill-opacity="0.33333" height="865.8055" style="stroke:#0A9EFD;stroke-width:0.5;" width="63" x="9.8333" y="6"/><text fill="#0A9EFD" font-family="sans-serif" font-size="13" font-weight="bold" lengthAdjust="spacing" textLength="57" x="12.8333" y="19.4951">Your app</text><rect fill="#999999" fill-opacity="0.33333" height="865.8055" style="stroke:#0A9EFD;stroke-width:0.5;" width="74" x="246.5" y="6"/><text fill="#0A9EFD" font-family="sans-serif" font-size="13" font-weight="bold" lengthAdjust="spacing" textLength="38" x="264.5" y="19.4951">Agora</text><rect fill="#0A9EFD" fill-opacity="0.06667" height="171.7437" style="stroke:#0A9EFD;stroke-width:2.0;" width="316.5" x="10" y="300.8092"/><rect fill="#0A9EFD" fill-opacity="0.06667" height="74.8462" style="stroke:#0A9EFD;stroke-width:2.0;" width="316.5" x="10" y="486.5529"/><rect fill="#0A9EFD" fill-opacity="0.06667" height="116.7949" style="stroke:#0A9EFD;stroke-width:2.0;" width="316.5" x="10" y="575.3991"/><rect fill="#0A9EFD" fill-opacity="0.06667" height="87.8462" style="stroke:#0A9EFD;stroke-width:2.0;" width="316.5" x="10" y="706.194"/><line style="stroke:#0A9EFD;stroke-width:0.5;stroke-dasharray:5.0,5.0;" x1="41" x2="41" y1="84.1169" y2="811.0402"/><line style="stroke:#0A9EFD;stroke-width:0.5;stroke-dasharray:5.0,5.0;" x1="283.5" x2="283.5" y1="84.1169" y2="811.0402"/><rect fill="none" height="56.7653" rx="2.5" ry="2.5" style="stroke:#0A9EFD;stroke-width:2.0;" width="42.6667" x="20" y="26.3516"/><path d="M28,33.3516 L28,46.6849 L41.3333,46.6849 L41.3333,33.3516 L28,33.3516 M44.6667,40.0182 L44.6667,50.0182 L34.6667,50.0182 L34.6667,53.3516 L48,53.3516 L48,40.0182 L44.6667,40.0182 M51.3333,46.6849 L51.3333,56.6849 L41.3333,56.6849 L41.3333,60.0182 L54.6667,60.0182 L54.6667,46.6849 L51.3333,46.6849 " fill="#0A9EFD" style="stroke:;stroke-width:0.0;stroke-dasharray:;"/><text fill="#0A9EFD" font-family="Arial" font-size="14" lengthAdjust="spacing" textLength="28" x="27.3333" y="73.1501">SDK</text><rect fill="none" height="56.7653" rx="2.5" ry="2.5" style="stroke:#0A9EFD;stroke-width:2.0;" width="42.6667" x="20" y="810.0402"/><path d="M28,817.0402 L28,830.3735 L41.3333,830.3735 L41.3333,817.0402 L28,817.0402 M44.6667,823.7069 L44.6667,833.7069 L34.6667,833.7069 L34.6667,837.0402 L48,837.0402 L48,823.7069 L44.6667,823.7069 M51.3333,830.3735 L51.3333,840.3735 L41.3333,840.3735 L41.3333,843.7069 L54.6667,843.7069 L54.6667,830.3735 L51.3333,830.3735 " fill="#0A9EFD" style="stroke:;stroke-width:0.0;stroke-dasharray:;"/><text fill="#0A9EFD" font-family="Arial" font-size="14" lengthAdjust="spacing" textLength="28" x="27.3333" y="856.8387">SDK</text><rect fill="none" height="56.7653" rx="2.5" ry="2.5" style="stroke:#0A9EFD;stroke-width:2.0;" width="66" x="250.5" y="26.3516"/><path d="M285.1667,33.3516 C281.1333,33.3516 277.6,36.2182 276.8333,40.0182 C273.1667,40.0182 270.1667,43.0182 270.1667,46.6849 C270.1667,50.3516 273.1667,53.3516 276.8333,53.3516 L291.8333,53.3516 C294.6,53.3516 296.8333,51.1182 296.8333,48.3516 C296.8333,46.1849 295.4333,44.0516 293.5,43.3516 L293.5,41.6849 C293.5,37.0849 289.7667,33.3516 285.1667,33.3516 " fill="#0A9EFD" style="stroke:;stroke-width:0.0;stroke-dasharray:;"/><text fill="#0A9EFD" font-family="Arial" font-size="14" lengthAdjust="spacing" textLength="52" x="257.5" y="73.1501">SD-RTN</text><rect fill="none" height="56.7653" rx="2.5" ry="2.5" style="stroke:#0A9EFD;stroke-width:2.0;" width="66" x="250.5" y="810.0402"/><path d="M285.1667,817.0402 C281.1333,817.0402 277.6,819.9069 276.8333,823.7069 C273.1667,823.7069 270.1667,826.7069 270.1667,830.3735 C270.1667,834.0402 273.1667,837.0402 276.8333,837.0402 L291.8333,837.0402 C294.6,837.0402 296.8333,834.8069 296.8333,832.0402 C296.8333,829.8735 295.4333,827.7402 293.5,827.0402 L293.5,825.3735 C293.5,820.7735 289.7667,817.0402 285.1667,817.0402 " fill="#0A9EFD" style="stroke:;stroke-width:0.0;stroke-dasharray:;"/><text fill="#0A9EFD" font-family="Arial" font-size="14" lengthAdjust="spacing" textLength="52" x="257.5" y="856.8387">SD-RTN</text><line style="stroke:#0A9EFD;stroke-width:2.0;" x1="41.3333" x2="83.3333" y1="115.0656" y2="115.0656"/><line style="stroke:#0A9EFD;stroke-width:2.0;" x1="83.3333" x2="83.3333" y1="115.0656" y2="128.0656"/><line style="stroke:#0A9EFD;stroke-width:2.0;" x1="42.3333" x2="83.3333" y1="128.0656" y2="128.0656"/><polygon fill="#0A9EFD" points="52.3333,124.0656,42.3333,128.0656,52.3333,132.0656,48.3333,128.0656" style="stroke:#0A9EFD;stroke-width:1.0;"/><text fill="#0A9EFD" font-family="Arial" font-size="13" lengthAdjust="spacing" textLength="164" x="48.3333" y="110.3107">Create SDK engine instance</text><polygon fill="#0A9EFD" points="271.5,153.0143,281.5,157.0143,271.5,161.0143,275.5,157.0143" style="stroke:#0A9EFD;stroke-width:1.0;"/><line style="stroke:#0A9EFD;stroke-width:2.0;" x1="41.3333" x2="277.5" y1="157.0143" y2="157.0143"/><text fill="#0A9EFD" font-family="Arial" font-size="13" lengthAdjust="spacing" textLength="78" x="123.4167" y="152.2594">Initialize SDK</text><line style="stroke:#0A9EFD;stroke-width:2.0;" x1="41.3333" x2="83.3333" y1="185.9631" y2="185.9631"/><line style="stroke:#0A9EFD;stroke-width:2.0;" x1="83.3333" x2="83.3333" y1="185.9631" y2="198.9631"/><line style="stroke:#0A9EFD;stroke-width:2.0;" x1="42.3333" x2="83.3333" y1="198.9631" y2="198.9631"/><polygon fill="#0A9EFD" points="52.3333,194.9631,42.3333,198.9631,52.3333,202.9631,48.3333,198.9631" style="stroke:#0A9EFD;stroke-width:1.0;"/><text fill="#0A9EFD" font-family="Arial" font-size="13" lengthAdjust="spacing" textLength="144" x="48.3333" y="181.2082">Create connection object</text><polygon fill="#0A9EFD" points="271.5,223.9118,281.5,227.9118,271.5,231.9118,275.5,227.9118" style="stroke:#0A9EFD;stroke-width:1.0;"/><line style="stroke:#0A9EFD;stroke-width:2.0;" x1="41.3333" x2="277.5" y1="227.9118" y2="227.9118"/><text fill="#0A9EFD" font-family="Arial" font-size="13" lengthAdjust="spacing" textLength="212" x="56.4167" y="223.1569">Register a connection event observer</text><polygon fill="#0A9EFD" points="271.5,252.8605,281.5,256.8605,271.5,260.8605,275.5,256.8605" style="stroke:#0A9EFD;stroke-width:1.0;"/><line style="stroke:#0A9EFD;stroke-width:2.0;" x1="41.3333" x2="277.5" y1="256.8605" y2="256.8605"/><text fill="#0A9EFD" font-family="Arial" font-size="13" lengthAdjust="spacing" textLength="145" x="89.9167" y="252.1056">Connect to Agora service</text><polygon fill="#0A9EFD" points="52.3333,281.8092,42.3333,285.8092,52.3333,289.8092,48.3333,285.8092" style="stroke:#0A9EFD;stroke-width:1.0;"/><line style="stroke:#0A9EFD;stroke-width:2.0;" x1="46.3333" x2="282.5" y1="285.8092" y2="285.8092"/><text fill="#0A9EFD" font-family="Arial" font-size="13" lengthAdjust="spacing" textLength="135" x="94.9167" y="281.0544">Connection established</text><path d="M10,300.8092 L175,300.8092 L175,307.758 L165,317.758 L10,317.758 L10,300.8092 " fill="#EEEEEE" style="stroke:#0A9EFD;stroke-width:1.5;"/><rect fill="none" height="171.7437" style="stroke:#0A9EFD;stroke-width:2.0;" width="316.5" x="10" y="300.8092"/><text fill="#000000" font-family="Arial" font-size="13" lengthAdjust="spacing" textLength="120" x="25" y="314.0031">Send media streams</text><line style="stroke:#0A9EFD;stroke-width:2.0;" x1="41.3333" x2="83.3333" y1="338.7067" y2="338.7067"/><line style="stroke:#0A9EFD;stroke-width:2.0;" x1="83.3333" x2="83.3333" y1="338.7067" y2="351.7067"/><line style="stroke:#0A9EFD;stroke-width:2.0;" x1="42.3333" x2="83.3333" y1="351.7067" y2="351.7067"/><polygon fill="#0A9EFD" points="52.3333,347.7067,42.3333,351.7067,52.3333,355.7067,48.3333,351.7067" style="stroke:#0A9EFD;stroke-width:1.0;"/><text fill="#0A9EFD" font-family="Arial" font-size="13" lengthAdjust="spacing" textLength="166" x="48.3333" y="333.9518">Create media sender objects</text><line style="stroke:#0A9EFD;stroke-width:2.0;" x1="41.3333" x2="83.3333" y1="380.6554" y2="380.6554"/><line style="stroke:#0A9EFD;stroke-width:2.0;" x1="83.3333" x2="83.3333" y1="380.6554" y2="393.6554"/><line style="stroke:#0A9EFD;stroke-width:2.0;" x1="42.3333" x2="83.3333" y1="393.6554" y2="393.6554"/><polygon fill="#0A9EFD" points="52.3333,389.6554,42.3333,393.6554,52.3333,397.6554,48.3333,393.6554" style="stroke:#0A9EFD;stroke-width:1.0;"/><text fill="#0A9EFD" font-family="Arial" font-size="13" lengthAdjust="spacing" textLength="171" x="48.3333" y="375.9006">Create audio and video tracks</text><line style="stroke:#0A9EFD;stroke-width:2.0;" x1="41.3333" x2="83.3333" y1="422.6042" y2="422.6042"/><line style="stroke:#0A9EFD;stroke-width:2.0;" x1="83.3333" x2="83.3333" y1="422.6042" y2="435.6042"/><line style="stroke:#0A9EFD;stroke-width:2.0;" x1="42.3333" x2="83.3333" y1="435.6042" y2="435.6042"/><polygon fill="#0A9EFD" points="52.3333,431.6042,42.3333,435.6042,52.3333,439.6042,48.3333,435.6042" style="stroke:#0A9EFD;stroke-width:1.0;"/><text fill="#0A9EFD" font-family="Arial" font-size="13" lengthAdjust="spacing" textLength="119" x="48.3333" y="417.8493">Enable media tracks</text><polygon fill="#0A9EFD" points="271.5,460.5529,281.5,464.5529,271.5,468.5529,275.5,464.5529" style="stroke:#0A9EFD;stroke-width:1.0;"/><line style="stroke:#0A9EFD;stroke-width:2.0;" x1="41.3333" x2="277.5" y1="464.5529" y2="464.5529"/><text fill="#0A9EFD" font-family="Arial" font-size="13" lengthAdjust="spacing" textLength="122" x="101.4167" y="459.798">Publish media tracks</text><path d="M10,486.5529 L190,486.5529 L190,493.5016 L180,503.5016 L10,503.5016 L10,486.5529 " fill="#EEEEEE" style="stroke:#0A9EFD;stroke-width:1.5;"/><rect fill="none" height="74.8462" style="stroke:#0A9EFD;stroke-width:2.0;" width="316.5" x="10" y="486.5529"/><text fill="#000000" font-family="Arial" font-size="13" lengthAdjust="spacing" textLength="135" x="25" y="499.7467">Receive media streams</text><polygon fill="#0A9EFD" points="271.5,520.4504,281.5,524.4504,271.5,528.4504,275.5,524.4504" style="stroke:#0A9EFD;stroke-width:1.0;"/><line style="stroke:#0A9EFD;stroke-width:2.0;" x1="41.3333" x2="277.5" y1="524.4504" y2="524.4504"/><text fill="#0A9EFD" font-family="Arial" font-size="13" lengthAdjust="spacing" textLength="182" x="71.4167" y="519.6955">Register media frame observers</text><polygon fill="#0A9EFD" points="52.3333,549.3991,42.3333,553.3991,52.3333,557.3991,48.3333,553.3991" style="stroke:#0A9EFD;stroke-width:1.0;"/><line style="stroke:#0A9EFD;stroke-width:2.0;" x1="46.3333" x2="282.5" y1="553.3991" y2="553.3991"/><text fill="#0A9EFD" font-family="Arial" font-size="13" lengthAdjust="spacing" textLength="135" x="94.9167" y="548.6442">Receive media streams</text><path d="M10,575.3991 L300,575.3991 L300,582.3478 L290,592.3478 L10,592.3478 L10,575.3991 " fill="#EEEEEE" style="stroke:#0A9EFD;stroke-width:1.5;"/><rect fill="none" height="116.7949" style="stroke:#0A9EFD;stroke-width:2.0;" width="316.5" x="10" y="575.3991"/><text fill="#000000" font-family="Arial" font-size="13" lengthAdjust="spacing" textLength="245" x="25" y="588.5929">Stop sending and receiving media streams</text><polygon fill="#0A9EFD" points="271.5,609.2965,281.5,613.2965,271.5,617.2965,275.5,613.2965" style="stroke:#0A9EFD;stroke-width:1.0;"/><line style="stroke:#0A9EFD;stroke-width:2.0;" x1="41.3333" x2="277.5" y1="613.2965" y2="613.2965"/><text fill="#0A9EFD" font-family="Arial" font-size="13" lengthAdjust="spacing" textLength="179" x="72.9167" y="608.5417">Stop publishing media streams</text><line style="stroke:#0A9EFD;stroke-width:2.0;" x1="41.3333" x2="83.3333" y1="642.2453" y2="642.2453"/><line style="stroke:#0A9EFD;stroke-width:2.0;" x1="83.3333" x2="83.3333" y1="642.2453" y2="655.2453"/><line style="stroke:#0A9EFD;stroke-width:2.0;" x1="42.3333" x2="83.3333" y1="655.2453" y2="655.2453"/><polygon fill="#0A9EFD" points="52.3333,651.2453,42.3333,655.2453,52.3333,659.2453,48.3333,655.2453" style="stroke:#0A9EFD;stroke-width:1.0;"/><text fill="#0A9EFD" font-family="Arial" font-size="13" lengthAdjust="spacing" textLength="129" x="48.3333" y="637.4904">Disable media capture</text><polygon fill="#0A9EFD" points="271.5,680.194,281.5,684.194,271.5,688.194,275.5,684.194" style="stroke:#0A9EFD;stroke-width:1.0;"/><line style="stroke:#0A9EFD;stroke-width:2.0;" x1="41.3333" x2="277.5" y1="684.194" y2="684.194"/><text fill="#0A9EFD" font-family="Arial" font-size="13" lengthAdjust="spacing" textLength="157" x="83.9167" y="679.4391">Unregister media observers</text><path d="M10,706.194 L120,706.194 L120,713.1427 L110,723.1427 L10,723.1427 L10,706.194 " fill="#EEEEEE" style="stroke:#0A9EFD;stroke-width:1.5;"/><rect fill="none" height="87.8462" style="stroke:#0A9EFD;stroke-width:2.0;" width="316.5" x="10" y="706.194"/><text fill="#000000" font-family="Arial" font-size="13" lengthAdjust="spacing" textLength="65" x="25" y="719.3879">Disconnect</text><polygon fill="#0A9EFD" points="271.5,740.0915,281.5,744.0915,271.5,748.0915,275.5,744.0915" style="stroke:#0A9EFD;stroke-width:1.0;"/><line style="stroke:#0A9EFD;stroke-width:2.0;" x1="41.3333" x2="277.5" y1="744.0915" y2="744.0915"/><text fill="#0A9EFD" font-family="Arial" font-size="13" lengthAdjust="spacing" textLength="176" x="74.4167" y="739.3366">Disconnect from Agora service</text><line style="stroke:#0A9EFD;stroke-width:2.0;" x1="41.3333" x2="83.3333" y1="773.0402" y2="773.0402"/><line style="stroke:#0A9EFD;stroke-width:2.0;" x1="83.3333" x2="83.3333" y1="773.0402" y2="786.0402"/><line style="stroke:#0A9EFD;stroke-width:2.0;" x1="42.3333" x2="83.3333" y1="786.0402" y2="786.0402"/><polygon fill="#0A9EFD" points="52.3333,782.0402,42.3333,786.0402,52.3333,790.0402,48.3333,786.0402" style="stroke:#0A9EFD;stroke-width:1.0;"/><text fill="#0A9EFD" font-family="Arial" font-size="13" lengthAdjust="spacing" textLength="125" x="48.3333" y="768.2853">Release all resources</text><!--SRC=[VPFDJuD04CNl_1KZ1syr7ZmrJPEczK1C36drO69YbcN4iSlkPZ-8-jSxG2kWhJS-tlpUUyDoGLggM2A8oZZnulUahoZMAe6aC1-GFfdeG5YR9bQuG9Aiq07IXQSldDzSBnUNIdoYyyjdlTlSfI0yhF8yGLq2poSzPDMopnEaCh7i0BFjm_s1aGqC1i9isNBdi7Oe0W9x0UgAD09f7uIMECYoEMIQ0Wd55gtq544QhL46CXfCySvNa_ajLkG3SlMn41lawARmw1fqau5rhu9We6iBhOQwLDbWFK9nw4AHVyCoIIfdeeLTMxZ6adWuSCZQdyfz4B2Mq_N9J-f4BCc0O6H39He8JiZzL7chESAH-FizTyfZbt0gOEDZu2rAf0RFPHwliPUyEb7Zp_xyP3UdOIEtNJ2swqswwdgvRgAzEn-W6x9zZt-KxByXFzg653P4DprJZzfDwmn5HZ6PSpWna-7XCM_1r7yEIJvQX4BX-GCgnHKz_tyIUuTl]--></g></svg>