<?xml version="1.0" encoding="us-ascii" standalone="no"?><svg xmlns="http://www.w3.org/2000/svg" xmlns:xlink="http://www.w3.org/1999/xlink" contentStyleType="text/css" height="472px" preserveAspectRatio="none" style="width:461px;height:472px;" version="1.1" viewBox="0 0 461 472" width="461px" zoomAndPan="magnify"><defs/><g><rect fill="none" height="470.0697" style="stroke:#0A9EFD;stroke-width:1.0;" width="459" x="0" y="0"/><rect fill="#999999" fill-opacity="0.33333" height="460.0697" style="stroke:#0A9EFD;stroke-width:0.5;" width="50.6667" x="1" y="6"/><text fill="#0A9EFD" font-family="sans-serif" font-size="13" font-weight="bold" lengthAdjust="spacing" textLength="28" x="12.3333" y="19.4951">User</text><rect fill="#999999" fill-opacity="0.33333" height="460.0697" style="stroke:#0A9EFD;stroke-width:0.5;" width="50.6667" x="161" y="6"/><text fill="#0A9EFD" font-family="sans-serif" font-size="13" font-weight="bold" lengthAdjust="spacing" textLength="25" x="173.8333" y="19.4951">App</text><rect fill="#999999" fill-opacity="0.33333" height="460.0697" style="stroke:#0A9EFD;stroke-width:0.5;" width="96" x="359" y="6"/><text fill="#0A9EFD" font-family="sans-serif" font-size="13" font-weight="bold" lengthAdjust="spacing" textLength="90" x="362" y="19.4951">Agora SD-RTN</text><rect fill="#0A9EFD" fill-opacity="0.06667" height="188.6411" style="stroke:#0A9EFD;stroke-width:2.0;" width="283.3333" x="155" y="113.967"/><line style="stroke:#0A9EFD;stroke-width:0.5;stroke-dasharray:5.0,5.0;" x1="26" x2="26" y1="68.0182" y2="421.403"/><line style="stroke:#0A9EFD;stroke-width:0.5;stroke-dasharray:5.0,5.0;" x1="186" x2="186" y1="68.0182" y2="421.403"/><line style="stroke:#0A9EFD;stroke-width:0.5;stroke-dasharray:5.0,5.0;" x1="406.6667" x2="406.6667" y1="68.0182" y2="421.403"/><rect fill="none" height="40.6667" rx="2.5" ry="2.5" style="stroke:#0A9EFD;stroke-width:2.0;" width="42.6667" x="5" y="26.3516"/><path d="M26.3333,33.3516 C22.6667,33.3516 19.6667,37.0849 19.6667,41.6849 C19.6667,46.2849 22.6667,50.0182 26.3333,50.0182 C30,50.0182 33,46.2849 33,41.6849 C33,37.0849 30,33.3516 26.3333,33.3516 M19.3667,50.0182 C15.8333,50.1849 13,53.0849 13,56.6849 L13,60.0182 L39.6667,60.0182 L39.6667,56.6849 C39.6667,53.0849 36.8667,50.1849 33.3,50.0182 C31.5,52.0516 29.0333,53.3516 26.3333,53.3516 C23.6333,53.3516 21.1667,52.0516 19.3667,50.0182 " fill="#0A9EFD" style="stroke:;stroke-width:0.0;stroke-dasharray:;"/><rect fill="none" height="40.6667" rx="2.5" ry="2.5" style="stroke:#0A9EFD;stroke-width:2.0;" width="42.6667" x="5" y="420.403"/><path d="M26.3333,427.403 C22.6667,427.403 19.6667,431.1363 19.6667,435.7363 C19.6667,440.3363 22.6667,444.0697 26.3333,444.0697 C30,444.0697 33,440.3363 33,435.7363 C33,431.1363 30,427.403 26.3333,427.403 M19.3667,444.0697 C15.8333,444.2363 13,447.1363 13,450.7363 L13,454.0697 L39.6667,454.0697 L39.6667,450.7363 C39.6667,447.1363 36.8667,444.2363 33.3,444.0697 C31.5,446.103 29.0333,447.403 26.3333,447.403 C23.6333,447.403 21.1667,446.103 19.3667,444.0697 " fill="#0A9EFD" style="stroke:;stroke-width:0.0;stroke-dasharray:;"/><rect fill="none" height="40.6667" rx="2.5" ry="2.5" style="stroke:#0A9EFD;stroke-width:2.0;" width="42.6667" x="165" y="26.3516"/><path d="M174.1333,33.3516 C173.5333,33.3516 173,33.8849 173,34.4849 L173,58.8516 C173,59.4516 173.5333,59.9849 174.1333,59.9849 L195.1667,59.9849 C195.7667,59.9849 196.3,59.4516 196.3,58.8516 L196.3,34.4849 C196.3,33.8849 195.7667,33.3516 195.1667,33.3516 L174.1333,33.3516 M176.3333,36.6849 L193,36.6849 L193,53.3516 L176.3333,53.3516 L176.3333,36.6849 M184.6667,55.0182 C185.9333,55.0182 186.7667,56.4182 186.1333,57.5182 C185.5,58.6182 183.8667,58.6182 183.2,57.5182 C182.5667,56.4182 183.3667,55.0182 184.6667,55.0182 " fill="#0A9EFD" style="stroke:;stroke-width:0.0;stroke-dasharray:;"/><rect fill="none" height="40.6667" rx="2.5" ry="2.5" style="stroke:#0A9EFD;stroke-width:2.0;" width="42.6667" x="165" y="420.403"/><path d="M174.1333,427.403 C173.5333,427.403 173,427.9363 173,428.5363 L173,452.903 C173,453.503 173.5333,454.0363 174.1333,454.0363 L195.1667,454.0363 C195.7667,454.0363 196.3,453.503 196.3,452.903 L196.3,428.5363 C196.3,427.9363 195.7667,427.403 195.1667,427.403 L174.1333,427.403 M176.3333,430.7363 L193,430.7363 L193,447.403 L176.3333,447.403 L176.3333,430.7363 M184.6667,449.0697 C185.9333,449.0697 186.7667,450.4697 186.1333,451.5697 C185.5,452.6697 183.8667,452.6697 183.2,451.5697 C182.5667,450.4697 183.3667,449.0697 184.6667,449.0697 " fill="#0A9EFD" style="stroke:;stroke-width:0.0;stroke-dasharray:;"/><rect fill="none" height="40.6667" rx="2.5" ry="2.5" style="stroke:#0A9EFD;stroke-width:2.0;" width="42.6667" x="385.6667" y="26.3516"/><path d="M408.6667,33.3516 C404.6333,33.3516 401.1,36.2182 400.3333,40.0182 C396.6667,40.0182 393.6667,43.0182 393.6667,46.6849 C393.6667,50.3516 396.6667,53.3516 400.3333,53.3516 L415.3333,53.3516 C418.1,53.3516 420.3333,51.1182 420.3333,48.3516 C420.3333,46.1849 418.9333,44.0516 417,43.3516 L417,41.6849 C417,37.0849 413.2667,33.3516 408.6667,33.3516 " fill="#0A9EFD" style="stroke:;stroke-width:0.0;stroke-dasharray:;"/><rect fill="none" height="40.6667" rx="2.5" ry="2.5" style="stroke:#0A9EFD;stroke-width:2.0;" width="42.6667" x="385.6667" y="420.403"/><path d="M408.6667,427.403 C404.6333,427.403 401.1,430.2697 400.3333,434.0697 C396.6667,434.0697 393.6667,437.0697 393.6667,440.7363 C393.6667,444.403 396.6667,447.403 400.3333,447.403 L415.3333,447.403 C418.1,447.403 420.3333,445.1697 420.3333,442.403 C420.3333,440.2363 418.9333,438.103 417,437.403 L417,435.7363 C417,431.1363 413.2667,427.403 408.6667,427.403 " fill="#0A9EFD" style="stroke:;stroke-width:0.0;stroke-dasharray:;"/><polygon fill="#0A9EFD" points="174.3333,94.967,184.3333,98.967,174.3333,102.967,178.3333,98.967" style="stroke:#0A9EFD;stroke-width:1.0;"/><line style="stroke:#0A9EFD;stroke-width:2.0;" x1="26.3333" x2="180.3333" y1="98.967" y2="98.967"/><text fill="#0A9EFD" font-family="Arial" font-size="13" lengthAdjust="spacing" textLength="75" x="68.8333" y="94.2121">Start the app</text><path d="M155,113.967 L320,113.967 L320,120.9157 L310,130.9157 L155,130.9157 L155,113.967 " fill="#EEEEEE" style="stroke:#0A9EFD;stroke-width:1.5;"/><rect fill="none" height="188.6411" style="stroke:#0A9EFD;stroke-width:2.0;" width="283.3333" x="155" y="113.967"/><text fill="#000000" font-family="Arial" font-size="13" lengthAdjust="spacing" textLength="120" x="170" y="127.1608">Restrict area access</text><line style="stroke:#0A9EFD;stroke-width:2.0;" x1="186.3333" x2="228.3333" y1="166.8132" y2="166.8132"/><line style="stroke:#0A9EFD;stroke-width:2.0;" x1="228.3333" x2="228.3333" y1="166.8132" y2="179.8132"/><line style="stroke:#0A9EFD;stroke-width:2.0;" x1="187.3333" x2="228.3333" y1="179.8132" y2="179.8132"/><polygon fill="#0A9EFD" points="197.3333,175.8132,187.3333,179.8132,197.3333,183.8132,193.3333,179.8132" style="stroke:#0A9EFD;stroke-width:1.0;"/><text fill="#0A9EFD" font-family="Arial" font-size="13" lengthAdjust="spacing" textLength="184" x="193.3333" y="147.1095">Set SD-RTN region in the Agora</text><text fill="#0A9EFD" font-family="Arial" font-size="13" lengthAdjust="spacing" textLength="115" x="229.8333" y="162.0583">engine configuration</text><line style="stroke:#0A9EFD;stroke-width:2.0;" x1="186.3333" x2="228.3333" y1="208.7619" y2="208.7619"/><line style="stroke:#0A9EFD;stroke-width:2.0;" x1="228.3333" x2="228.3333" y1="208.7619" y2="221.7619"/><line style="stroke:#0A9EFD;stroke-width:2.0;" x1="187.3333" x2="228.3333" y1="221.7619" y2="221.7619"/><polygon fill="#0A9EFD" points="197.3333,217.7619,187.3333,221.7619,197.3333,225.7619,193.3333,221.7619" style="stroke:#0A9EFD;stroke-width:1.0;"/><text fill="#0A9EFD" font-family="Arial" font-size="13" lengthAdjust="spacing" textLength="140" x="193.3333" y="204.007">Initiate the Agora engine</text><polygon fill="#0A9EFD" points="395,261.6593,405,265.6593,395,269.6593,399,265.6593" style="stroke:#0A9EFD;stroke-width:1.0;"/><line style="stroke:#0A9EFD;stroke-width:2.0;" x1="186.3333" x2="401" y1="265.6593" y2="265.6593"/><text fill="#0A9EFD" font-family="Arial" font-size="13" lengthAdjust="spacing" textLength="139" x="227.1667" y="245.9557">Connect to SD-RTN in a</text><text fill="#0A9EFD" font-family="Arial" font-size="13" lengthAdjust="spacing" textLength="83" x="257.1667" y="260.9045">specific region</text><polygon fill="#0A9EFD" points="197.3333,290.6081,187.3333,294.6081,197.3333,298.6081,193.3333,294.6081" style="stroke:#0A9EFD;stroke-width:1.0;"/><line style="stroke:#0A9EFD;stroke-width:2.0;" x1="191.3333" x2="406" y1="294.6081" y2="294.6081"/><text fill="#0A9EFD" font-family="Arial" font-size="13" lengthAdjust="spacing" textLength="108" x="242.6667" y="289.8532">Success response</text><polygon fill="#0A9EFD" points="174.3333,326.5568,184.3333,330.5568,174.3333,334.5568,178.3333,330.5568" style="stroke:#0A9EFD;stroke-width:1.0;"/><line style="stroke:#0A9EFD;stroke-width:2.0;" x1="26.3333" x2="180.3333" y1="330.5568" y2="330.5568"/><text fill="#0A9EFD" font-family="Arial" font-size="13" lengthAdjust="spacing" textLength="136" x="38.3333" y="325.8019">Select a channel to join</text><polygon fill="#0A9EFD" points="395,370.4543,405,374.4543,395,378.4543,399,374.4543" style="stroke:#0A9EFD;stroke-width:1.0;"/><line style="stroke:#0A9EFD;stroke-width:2.0;" x1="186.3333" x2="401" y1="374.4543" y2="374.4543"/><text fill="#0A9EFD" font-family="Arial" font-size="13" lengthAdjust="spacing" textLength="139" x="225.1667" y="354.7507">Join a channel with user</text><text fill="#0A9EFD" font-family="Arial" font-size="13" lengthAdjust="spacing" textLength="164" x="214.6667" y="369.6994">Id, channel name, and token</text><polygon fill="#0A9EFD" points="197.3333,399.403,187.3333,403.403,197.3333,407.403,193.3333,403.403" style="stroke:#0A9EFD;stroke-width:1.0;"/><line style="stroke:#0A9EFD;stroke-width:2.0;" x1="191.3333" x2="406" y1="403.403" y2="403.403"/><text fill="#0A9EFD" font-family="Arial" font-size="13" lengthAdjust="spacing" textLength="80" x="256.6667" y="398.6481">Join accepted</text><!--SRC=[TP6nRW8n38RtF8NBq0cg3fqGGaBjGeSAGTcGAfCpXylXH8bFhVhqTU00WSIQ-Fl-tya3Ys_QYW3haF0hxrYUkDqtpgt3B_IMcLBFHKpAdYEAGc-K-O-6By_ZqMEab8ECUu0Pbekv8wd0i8wTn7WVLLmtf4TqCflTegKCBDu6yy-F-mxVXBOwAcpkeh0gC1WNxH0MQZ3erXQCqRawXJR2dB8czWgO206zfvoTZLyeqYuT4jKS15WEaaEnbG19pKBWWsouRXEgpLmPfiBAg7IXEkOqPUuXl0OHiXuQJd6MK_mvakSD-oxUbQjpkVPGsAvo39AfB7wpD3N5Yk2tQ05DyNy7bglizr2opYC_h5jexRjX9TEgVpuNt5CVqDvMmuwkcnmLrYOgLUuV]--></g></svg>