<svg width="1498" height="519" xmlns="http://www.w3.org/2000/svg" xmlns:xlink="http://www.w3.org/1999/xlink" overflow="hidden"><defs><clipPath id="clip0"><path d="M-19 107 1479 107 1479 626-19 626Z" fill-rule="evenodd" clip-rule="evenodd"/></clipPath></defs><g clip-path="url(#clip0)" transform="translate(19 -107)"><rect x="-18" y="108" width="1496" height="517" fill="#0C0F14"/><rect x="751" y="162" width="183" height="126" fill="#2F333B"/><text fill="#FFFFFF" font-family="Calibri,Calibri_MSFontService,sans-serif" font-weight="400" font-size="24" transform="translate(783.818 189)">Middleware</text><rect x="22" y="280" width="168" height="144" fill="#2F333B"/><text fill="#FFFFFF" font-family="Calibri,Calibri_MSFontService,sans-serif" font-weight="400" font-size="24" transform="translate(78.3273 307)">Client</text><rect x="39.5001" y="333.5" width="135" height="61" stroke="#2F528F" stroke-width="1.33333" stroke-miterlimit="8" fill="#4472C4"/><text fill="#FFFFFF" font-family="Calibri,Calibri_MSFontService,sans-serif" font-weight="400" font-size="24" transform="translate(50.0807 371)">HTTP Client</text><rect x="505" y="162" width="174" height="375" fill="#2F333B"/><text fill="#FFFFFF" font-family="Calibri,Calibri_MSFontService,sans-serif" font-weight="400" font-size="24" transform="translate(525.458 189)">Token Service</text><rect x="1248" y="277" width="205" height="301" fill="#2F333B"/><text fill="#FFFFFF" font-family="Calibri,Calibri_MSFontService,sans-serif" font-weight="400" font-size="24" transform="translate(1266.62 304)">External Libraries</text><rect x="269" y="280" width="168" height="145" fill="#2F333B"/><text fill="#FFFFFF" font-family="Calibri,Calibri_MSFontService,sans-serif" font-weight="400" font-size="23" transform="translate(281.701 306)">Gin Web Server</text><rect x="286.5" y="333.5" width="134" height="61" stroke="#2F528F" stroke-width="1.33333" stroke-miterlimit="8" fill="#4472C4"/><text fill="#FFFFFF" font-family="Calibri,Calibri_MSFontService,sans-serif" font-weight="400" font-size="24" transform="translate(320.241 371)">Router</text><path d="M180.667 363 279.664 363 279.664 365 180.667 365ZM182 370.667 174 364 182 357.333ZM278.331 357.333 286.331 364 278.331 370.667Z" fill="#B2F0FF"/><text fill="#BDBFC2" font-family="Calibri,Calibri_MSFontService,sans-serif" font-weight="400" font-size="16" transform="translate(196.971 333)">Request/<tspan x="-1.76001" y="19">Response</tspan></text><rect x="761.5" y="216.5" width="163" height="48" stroke="#2F528F" stroke-width="1.33333" stroke-miterlimit="8" fill="#4472C4"/><text fill="#FFFFFF" font-family="Calibri,Calibri_MSFontService,sans-serif" font-weight="400" font-size="24" transform="translate(783.818 248)">Middleware</text><rect x="521.5" y="314.5" width="142" height="101" stroke="#2F528F" stroke-width="1.33333" stroke-miterlimit="8" fill="#4472C4"/><text fill="#FFFFFF" font-family="Calibri,Calibri_MSFontService,sans-serif" font-weight="400" font-size="24" transform="translate(563.238 358)">Token <tspan x="-6.56665" y="29">Service</tspan><tspan fill="#BDBFC2" font-size="16" x="-113.838" y="-4">/toke</tspan><tspan fill="#BDBFC2" font-size="16" x="-79.1711" y="-4">n</tspan></text><path d="M513.575 365.641 426.66 365.046 426.673 363.046 513.589 363.641ZM512.295 357.965 520.249 364.687 512.203 371.298ZM427.954 370.721 420 364 428.045 357.388Z" fill="#B2F0FF"/><rect x="751" y="312" width="183" height="228" fill="#2F333B"/><text fill="#FFFFFF" font-family="Calibri,Calibri_MSFontService,sans-serif" font-weight="400" font-size="24" transform="translate(767.878 338)">Token Handlers</text><rect x="769.5" y="418.5" width="147" height="49" stroke="#2F528F" stroke-width="1.33333" stroke-miterlimit="8" fill="#4472C4"/><text fill="#FFFFFF" font-family="Calibri,Calibri_MSFontService,sans-serif" font-weight="400" font-size="19" transform="translate(806.482 437)">GetToken<tspan x="5.65332" y="23">Handler</tspan></text><rect x="1259.5" y="490.5" width="183" height="50" stroke="#2F528F" stroke-width="1.33333" stroke-miterlimit="8" fill="#4472C4"/><text fill="#FFFFFF" font-family="Calibri,Calibri_MSFontService,sans-serif" font-weight="400" font-size="21" transform="translate(1275.84 522)">chatTokenBuilder</text><rect x="1260.5" y="419.5" width="182" height="50" stroke="#2F528F" stroke-width="1.33333" stroke-miterlimit="8" fill="#4472C4"/><text fill="#FFFFFF" font-family="Calibri,Calibri_MSFontService,sans-serif" font-weight="400" font-size="21" transform="translate(1274.33 451)">rtmtokenbuilder2</text><rect x="1259.5" y="348.5" width="183" height="50" stroke="#2F528F" stroke-width="1.33333" stroke-miterlimit="8" fill="#4472C4"/><text fill="#FFFFFF" font-family="Calibri,Calibri_MSFontService,sans-serif" font-weight="400" font-size="21" transform="translate(1278.36 381)">rtctokenbuilder2</text><path d="M6.66667-1 28.4599-1 28.4599 170.575 26.4599 170.575 26.4599 0 27.4599 1 6.66667 1ZM8 6.66667 0 0 8-6.66667ZM34.1266 169.242 27.4599 177.242 20.7933 169.242Z" fill="#B2F0FF" transform="matrix(-4.37114e-08 1 1 4.37114e-08 592 415)"/><path d="M591 306.572 591 239 754.42 239 754.42 241 592 241 593 240 593 306.572ZM598.667 305.239 592 313.239 585.333 305.239ZM753.087 233.333 761.087 240 753.087 246.667Z" fill="#B2F0FF"/><text fill="#BDBFC2" font-family="Calibri,Calibri_MSFontService,sans-serif" font-weight="400" font-size="16" transform="translate(1209.34 505)">Uses<tspan x="-512.655" y="-274">Uses</tspan><tspan x="-525.285" y="-75">/</tspan>getNew</text><rect x="1013" y="279" width="192" height="297" fill="#2F333B"/><text fill="#FFFFFF" font-family="Calibri,Calibri_MSFontService,sans-serif" font-weight="400" font-size="24" transform="translate(1022.77 306)">Token Generation <tspan x="38.7733" y="29">Functions</tspan></text><rect x="1035.5" y="349.5" width="147" height="49" stroke="#2F528F" stroke-width="1.33333" stroke-miterlimit="8" fill="#4472C4"/><text fill="#FFFFFF" font-family="Calibri,Calibri_MSFontService,sans-serif" font-weight="400" font-size="21" transform="translate(1054.18 381)">GetRtcToken</text><rect x="1036.5" y="418.5" width="146" height="50" stroke="#2F528F" stroke-width="1.33333" stroke-miterlimit="8" fill="#4472C4"/><text fill="#FFFFFF" font-family="Calibri,Calibri_MSFontService,sans-serif" font-weight="400" font-size="21" transform="translate(1050.13 450)">GetRtmToken</text><rect x="1035.5" y="488.5" width="146" height="49" stroke="#2F528F" stroke-width="1.33333" stroke-miterlimit="8" fill="#4472C4"/><text fill="#FFFFFF" font-family="Calibri,Calibri_MSFontService,sans-serif" font-weight="400" font-size="21" transform="translate(1047.25 520)">GetChatToken</text><path d="M6.66666-0.99999 73.4022-0.999895 73.4022 1.0001 6.66665 1.00001ZM7.99999 6.66668 0 0 8.00001-6.66666Z" fill="#B2F0FF" transform="matrix(-1 -8.74228e-08 -8.74228e-08 1 1254.4 513)"/><path d="M6.66775-0.992454 77.182-0.91265 77.1798 1.08735 6.66549 1.00754ZM7.99245 6.67572 0 0 8.00754-6.65761Z" fill="#B2F0FF" transform="matrix(-1 -8.74228e-08 -8.74228e-08 1 1259.18 373)"/><path d="M1252.92 444.721 1186.99 444 1187.01 442 1252.95 442.721ZM1251.67 437.04 1259.6 443.794 1251.53 450.373Z" fill="#B2F0FF"/><path d="M1029 443.52 915.995 443 916.005 441 1029.01 441.52ZM1027.7 435.847 1035.67 442.55 1027.64 449.18Z" fill="#B2F0FF"/><text fill="#BDBFC2" font-family="Calibri,Calibri_MSFontService,sans-serif" font-weight="400" font-size="16" transform="translate(1209.34 435)">Uses<tspan x="0" y="-70">Uses</tspan></text><path d="M841 417.228 841 372 1028.38 372 1028.38 374 842 374 843 373 843 417.228ZM1027.04 366.333 1035.04 373 1027.04 379.667Z" fill="#B2F0FF"/><path d="M0-1 46.3293-1 46.3293 185.471 44.3293 185.471 44.3293 0 45.3293 1 0 1ZM51.996 184.138 45.3293 192.138 38.6627 184.138Z" fill="#B2F0FF" transform="matrix(-4.37114e-08 1 1 4.37114e-08 842 467)"/><text fill="#BDBFC2" font-family="Calibri,Calibri_MSFontService,sans-serif" font-weight="400" font-size="16" transform="translate(940.678 364)">t<tspan x="5.18005" y="0">okenType</tspan><tspan x="20.9867" y="24">‘</tspan>rtc<tspan x="42.46" y="24">’</tspan><tspan x="0" y="70">t</tspan><tspan x="5.18005" y="70">okenType</tspan><tspan x="17.8867" y="94">‘</tspan>rtm<tspan x="45.5533" y="94">’</tspan><tspan x="0" y="141">t</tspan><tspan x="5.18005" y="141">okenType</tspan><tspan x="15.8067" y="165">‘chat’</tspan></text></g></svg>