<?xml version="1.0" encoding="utf-8"?>
<!-- Generator: Adobe Illustrator 19.0.0, SVG Export Plug-In . SVG Version: 6.00 Build 0)  -->
<svg version="1.1" id="Layer_1" xmlns:lucid="lucid"
	 xmlns="http://www.w3.org/2000/svg" xmlns:xlink="http://www.w3.org/1999/xlink" x="0px" y="0px" viewBox="315.6 106.2 1100 480"
	 style="enable-background:new 315.6 106.2 1100 480;" xml:space="preserve">
<style type="text/css">
	.st0{fill:#E5E5E5;}
	.st1{fill:none;stroke:#000000;stroke-width:2;stroke-dasharray:16.1871,16.1871;}
	.st2{fill:none;}
	.st3{fill:#333333;stroke:#000000;stroke-width:0.2;stroke-opacity:0;}
	.st4{fill:#FFECA9;stroke:#000000;stroke-width:3;stroke-opacity:0;}
	.st5{fill:#FFECA9;stroke:#FFFFFF;stroke-width:4;}
	.st6{fill:#FFFFFF;}
	.st7{fill:#444444;}
	.st8{fill:#009EFE;}
	.st9{fill:#56CD64;}
	.st10{fill:#FFFFFF;fill-opacity:0;}
	.st11{fill:#009EFD;}
	.st12{fill:none;stroke:#000000;stroke-width:2;stroke-miterlimit:10;}
</style>
<g>
	<path class="st0" d="M482.8,229.5c0-7.1,2.7-13,6-13h205.3c3.3,0,6,5.8,6,13V560c0,7.1-2.7,13-6,13H488.8c-3.3,0-6-5.8-6-13
		L482.8,229.5z"/>
	<path class="st1" d="M482.8,229.5c0-7.1,2.7-13,6-13h205.3c3.3,0,6,5.8,6,13V560c0,7.1-2.7,13-6,13H488.8c-3.3,0-6-5.8-6-13
		L482.8,229.5z"/>
</g>
<path class="st2" d="M337,280.5h119.8v240.8H337L337,280.5z"/>
<g>
	<path class="st3" d="M581.9,308.2h-25.6c-4.1,0-7.5,3.4-7.5,7.5v54.7c0,4.1,3.4,7.5,7.5,7.5h25.6c4.2,0,7.5-3.4,7.5-7.5v-54.7
		C589.4,311.6,586,308.2,581.9,308.2L581.9,308.2z M569.1,376.3c-1.9,0-3.5-1.6-3.5-3.5c0-1.9,1.6-3.4,3.5-3.4
		c1.9,0,3.5,1.6,3.5,3.4C572.6,374.7,571,376.3,569.1,376.3L569.1,376.3z M585.4,365.7c0,1-0.8,1.9-2,1.9h-28.8
		c-1,0-1.9-0.9-1.9-1.9v-45.4c0-1,0.9-2,1.9-2h28.8c1.1,0,2,0.9,2,2L585.4,365.7L585.4,365.7z"/>
	<path class="st3" d="M635.2,292.7c0-4.1-3.4-7.4-7.4-7.4H577c-4.1,0-7.5,3.3-7.5,7.5v11.4h4.8v-6.5c0-1.3,1-2.3,2.3-2.3H628
		c1.3,0,2.4,1,2.4,2.3v66.2c0,1.3-1.1,2.4-2.4,2.4h-34.6v3.7c0,3.1-1.2,5.8-3.3,7.9h37.7c4.1,0,7.4-3.3,7.4-7.5L635.2,292.7
		L635.2,292.7z M602.4,375.2c-1.8,0-3.4-1.5-3.4-3.3s1.6-3.3,3.4-3.3c1.9,0,3.4,1.5,3.4,3.3C605.7,373.7,604.3,375.2,602.4,375.2
		L602.4,375.2z"/>
</g>
<g>
	<path class="st3" d="M581.9,421.4h-25.6c-4.2,0-7.5,3.4-7.5,7.5v54.7c0,4.1,3.4,7.5,7.5,7.5h25.6c4.1,0,7.5-3.4,7.5-7.5v-54.7
		C589.4,424.8,586,421.4,581.9,421.4z M569.1,489.5c-1.9,0-3.5-1.6-3.5-3.5c0-1.9,1.6-3.4,3.5-3.4c1.9,0,3.5,1.6,3.5,3.4
		C572.6,487.9,571,489.5,569.1,489.5L569.1,489.5z M585.4,479c0,1-0.9,1.9-2,1.9h-28.8c-1,0-1.9-0.9-1.9-1.9v-45.4
		c0-1,0.9-1.9,1.9-1.9h28.8c1.1,0,2,0.9,2,1.9L585.4,479L585.4,479z"/>
	<path class="st3" d="M635.2,406c0-4.1-3.4-7.4-7.4-7.4h-50.7c-4.1,0-7.5,3.3-7.5,7.5v11.4h4.8v-6.5c0-1.3,1-2.3,2.3-2.3H628
		c1.3,0,2.4,1,2.4,2.3v66.2c0,1.3-1.1,2.4-2.4,2.4h-34.6v3.7c0,3.1-1.2,5.8-3.3,7.9h37.7c4,0,7.4-3.3,7.4-7.5L635.2,406L635.2,406z
		 M602.4,488.4c-1.8,0-3.4-1.5-3.4-3.3c0-1.9,1.5-3.3,3.4-3.3c1.9,0,3.4,1.5,3.4,3.3C605.7,486.9,604.3,488.4,602.4,488.4
		L602.4,488.4z"/>
</g>
<path class="st4" d="M404.1,387.8c-3.2,0.8-4.7,3.8-3.2,6.8l13.7,27.8c1.5,3,4.7,3.7,7.3,1.6l67.3-54.1c2.6-2.1,2.1-3.1-1.2-2.4
	L404.1,387.8z"/>
<path class="st4" d="M423.5,369.8c-2.6-2.1-5.9-1.3-7.3,1.6l-13.7,27.8c-1.5,3,0,6,3.2,6.8l83.9,20.2c3.2,0.8,3.7-0.3,1.1-2.3
	L423.5,369.8z"/>
<path class="st5" d="M404.1,387.8c-3.2,0.8-4.7,3.8-3.2,6.8l13.7,27.8c1.5,3,4.7,3.7,7.3,1.6l67.3-54.1c2.6-2.1,2.1-3.1-1.2-2.4
	L404.1,387.8z"/>
<path class="st5" d="M423.5,369.8c-2.6-2.1-5.9-1.3-7.3,1.6l-13.7,27.8c-1.5,3,0,6,3.2,6.8l83.9,20.2c3.2,0.8,3.7-0.3,1.1-2.3
	L423.5,369.8z"/>
<path class="st4" d="M347.1,348.7c0-5,4-9,9-9h81.8c5,0,9,4,9,9v110.4c0,5-4,9-9,9h-81.8c-5,0-9-4-9-9L347.1,348.7z"/>
<path class="st5" d="M347.1,348.7c0-5,4-9,9-9h81.8c5,0,9,4,9,9v110.4c0,5-4,9-9,9h-81.8c-5,0-9-4-9-9L347.1,348.7z"/>
<path class="st6" d="M399.7,417.3l32.8-16.3v-32.6l-32.8,16.3V417.3z M366.9,400.9l32.8,16.3v-32.6l-32.8-16.3V400.9L366.9,400.9z
	 M432.3,368.3l-32.6-16.2l-32.6,16.2l32.6,16.2L432.3,368.3z"/>
<path class="st6" d="M399.7,383.6l30.7-15.2l0,0L399.7,383.6L399.7,383.6z M369,368.3L369,368.3l30.7,15.3L369,368.3L369,368.3z"/>
<path class="st7" d="M432.4,367.3L399.7,351l-32.8,16.3l-1,0.5v33.6l32.8,16.3l1,0.5l1-0.5l32.8-16.3v-33.6L432.4,367.3z
	 M431.4,400.4l-30.7,15.3v-30.5l30.7-15.2L431.4,400.4z M398.6,415.7l-30.7-15.3v-30.5l30.7,15.2V415.7z M369,368.3l30.7-15.2
	l30.7,15.2l-30.7,15.3L369,368.3L369,368.3z"/>
<path class="st8" d="M399.8,402.2l17.6-8.8v-17.5l-17.7,8.8L399.8,402.2L399.8,402.2z M381.9,393.4l17.6,8.8v-17.5l-17.6-8.8V393.4
	L381.9,393.4z M417.3,375.7l-17.6-8.7l-17.6,8.7l17.6,8.8L417.3,375.7L417.3,375.7z"/>
<path class="st9" d="M399.7,383.6l15.8-7.9v0L399.7,383.6L399.7,383.6z M383.9,375.7L383.9,375.7l15.8,7.9L383.9,375.7L383.9,375.7z
	"/>
<path class="st6" d="M417.6,374.7l-17.9-8.9l-17.9,8.9l-1,0.5v18.9l17.9,8.9l1,0.5l1-0.5l17.9-8.9v-18.9L417.6,374.7z M416.6,393
	l-15.9,7.9v-15.8l15.9-7.8V393z M398.6,400.9l-15.8-7.9v-15.7l15.8,7.8V400.9z M383.9,375.7l15.8-7.8l15.8,7.8l-15.8,7.9
	L383.9,375.7L383.9,375.7z"/>
<path class="st6" d="M399.7,417.3l32.8-16.3v-32.6l-32.8,16.3V417.3z M366.9,400.9l32.8,16.3v-32.6l-32.8-16.3V400.9L366.9,400.9z
	 M432.3,368.3l-32.6-16.2l-32.6,16.2l32.6,16.2L432.3,368.3z"/>
<path class="st6" d="M399.7,383.6l30.7-15.2l0,0L399.7,383.6L399.7,383.6z M369,368.3L369,368.3l30.7,15.3L369,368.3L369,368.3z"/>
<path class="st7" d="M432.4,367.3L399.7,351l-32.8,16.3l-1,0.5v33.6l32.8,16.3l1,0.5l1-0.5l32.8-16.3v-33.6L432.4,367.3z
	 M431.4,400.4l-30.7,15.3v-30.5l30.7-15.2L431.4,400.4z M398.6,415.7l-30.7-15.3v-30.5l30.7,15.2V415.7z M369,368.3l30.7-15.2
	l30.7,15.2l-30.7,15.3L369,368.3L369,368.3z"/>
<path class="st8" d="M399.8,402.2l17.6-8.8v-17.5l-17.7,8.8L399.8,402.2L399.8,402.2z M381.9,393.4l17.6,8.8v-17.5l-17.6-8.8V393.4
	L381.9,393.4z M417.3,375.7l-17.6-8.7l-17.6,8.7l17.6,8.8L417.3,375.7L417.3,375.7z"/>
<path class="st9" d="M399.7,383.6l15.8-7.9v0L399.7,383.6L399.7,383.6z M383.9,375.7L383.9,375.7l15.8,7.9L383.9,375.7L383.9,375.7z
	"/>
<path class="st6" d="M417.6,374.7l-17.9-8.9l-17.9,8.9l-1,0.5v18.9l17.9,8.9l1,0.5l1-0.5l17.9-8.9v-18.9L417.6,374.7z M416.6,393
	l-15.9,7.9v-15.8l15.9-7.8V393z M398.6,400.9l-15.8-7.9v-15.7l15.8,7.8V400.9z M383.9,375.7l15.8-7.8l15.8,7.8l-15.8,7.9
	L383.9,375.7L383.9,375.7z"/>
<path class="st10" d="M341.3,413.4h111.2v63.3H341.3V413.4z"/>
<g>
	<path d="M374.3,437l4.7-12.2h1.7l5,12.2h-1.8l-1.4-3.7h-5.1L376,437H374.3z M377.8,432h4.1l-1.3-3.4c-0.4-1-0.7-1.9-0.9-2.5
		c-0.2,0.8-0.4,1.6-0.7,2.3L377.8,432z"/>
	<path d="M386.5,437.7l1.5,0.2c0.1,0.4,0.2,0.8,0.5,1c0.4,0.3,0.9,0.4,1.5,0.4c0.7,0,1.2-0.1,1.6-0.4c0.4-0.3,0.6-0.7,0.8-1.2
		c0.1-0.3,0.1-0.9,0.1-1.9c-0.7,0.8-1.5,1.2-2.4,1.2c-1.2,0-2.1-0.4-2.8-1.3c-0.7-0.9-1-1.9-1-3.1c0-0.8,0.2-1.6,0.5-2.3
		s0.7-1.3,1.3-1.6c0.6-0.4,1.3-0.6,2-0.6c1,0,1.9,0.4,2.6,1.3v-1.1h1.4v7.6c0,1.4-0.1,2.3-0.4,2.9c-0.3,0.6-0.7,1-1.3,1.4
		c-0.6,0.3-1.4,0.5-2.2,0.5c-1.1,0-1.9-0.2-2.5-0.7C386.8,439.3,386.5,438.6,386.5,437.7z M387.7,432.4c0,1.2,0.2,2,0.7,2.5
		s1,0.8,1.7,0.8c0.7,0,1.3-0.3,1.7-0.8c0.5-0.5,0.7-1.4,0.7-2.5c0-1.1-0.2-1.9-0.7-2.4c-0.5-0.5-1.1-0.8-1.7-0.8
		c-0.7,0-1.2,0.3-1.7,0.8C388,430.5,387.7,431.3,387.7,432.4z"/>
	<path d="M395.7,432.5c0-1.6,0.5-2.8,1.4-3.6c0.8-0.7,1.7-1,2.8-1c1.2,0,2.2,0.4,3,1.2c0.8,0.8,1.2,1.9,1.2,3.3c0,1.1-0.2,2-0.5,2.7
		c-0.3,0.7-0.8,1.2-1.5,1.5c-0.6,0.4-1.4,0.5-2.1,0.5c-1.2,0-2.2-0.4-3-1.2C396.1,435.2,395.7,434,395.7,432.5z M397.2,432.5
		c0,1.1,0.2,2,0.7,2.5s1.1,0.8,1.9,0.8c0.7,0,1.4-0.3,1.9-0.8s0.7-1.4,0.7-2.6c0-1.1-0.2-1.9-0.7-2.5c-0.5-0.6-1.1-0.8-1.8-0.8
		c-0.7,0-1.4,0.3-1.9,0.8C397.5,430.6,397.2,431.4,397.2,432.5z"/>
	<path d="M405.7,437v-8.8h1.3v1.3c0.3-0.6,0.7-1,1-1.2c0.3-0.2,0.6-0.3,1-0.3c0.5,0,1,0.2,1.5,0.5l-0.5,1.4
		c-0.4-0.2-0.7-0.3-1.1-0.3c-0.3,0-0.6,0.1-0.9,0.3c-0.3,0.2-0.4,0.5-0.6,0.8c-0.2,0.5-0.2,1.1-0.2,1.7v4.6H405.7z"/>
	<path d="M417.1,435.9c-0.6,0.5-1.1,0.8-1.6,1c-0.5,0.2-1.1,0.3-1.6,0.3c-1,0-1.7-0.2-2.2-0.7c-0.5-0.5-0.8-1.1-0.8-1.8
		c0-0.4,0.1-0.8,0.3-1.2c0.2-0.4,0.5-0.6,0.8-0.9c0.3-0.2,0.7-0.4,1.1-0.5c0.3-0.1,0.7-0.2,1.3-0.2c1.2-0.1,2.1-0.3,2.7-0.5
		c0-0.2,0-0.3,0-0.4c0-0.6-0.1-1-0.4-1.3c-0.4-0.3-0.9-0.5-1.7-0.5c-0.7,0-1.2,0.1-1.6,0.4c-0.3,0.2-0.6,0.7-0.7,1.3l-1.5-0.2
		c0.1-0.6,0.4-1.1,0.7-1.5s0.7-0.7,1.3-0.9c0.6-0.2,1.2-0.3,2-0.3c0.8,0,1.4,0.1,1.8,0.3c0.5,0.2,0.8,0.4,1,0.7s0.4,0.6,0.5,1
		c0,0.3,0.1,0.7,0.1,1.4v2c0,1.4,0,2.3,0.1,2.6c0.1,0.4,0.2,0.7,0.4,1.1h-1.6C417.2,436.6,417.1,436.3,417.1,435.9z M417,432.5
		c-0.5,0.2-1.4,0.4-2.4,0.6c-0.6,0.1-1,0.2-1.3,0.3c-0.3,0.1-0.5,0.3-0.6,0.5c-0.1,0.2-0.2,0.4-0.2,0.7c0,0.4,0.2,0.7,0.5,1
		c0.3,0.3,0.7,0.4,1.3,0.4c0.6,0,1.1-0.1,1.5-0.4c0.4-0.3,0.8-0.6,1-1c0.2-0.3,0.2-0.8,0.2-1.5V432.5z"/>
	<path d="M361.2,457.4l-4.7-12.2h1.7l3.2,8.8c0.3,0.7,0.5,1.4,0.6,2c0.2-0.7,0.4-1.3,0.7-2l3.3-8.8h1.6l-4.8,12.2H361.2z"/>
	<path d="M367.3,452.9c0-1.6,0.5-2.8,1.4-3.6c0.8-0.7,1.7-1,2.8-1c1.2,0,2.2,0.4,3,1.2s1.2,1.9,1.2,3.3c0,1.1-0.2,2-0.5,2.7
		c-0.3,0.7-0.8,1.2-1.5,1.5c-0.6,0.4-1.4,0.5-2.1,0.5c-1.2,0-2.2-0.4-3-1.2C367.7,455.6,367.3,454.4,367.3,452.9z M368.9,452.9
		c0,1.1,0.2,2,0.7,2.5c0.5,0.6,1.1,0.8,1.9,0.8c0.7,0,1.4-0.3,1.9-0.8s0.7-1.4,0.7-2.6c0-1.1-0.2-1.9-0.7-2.5
		c-0.5-0.6-1.1-0.8-1.8-0.8c-0.7,0-1.4,0.3-1.9,0.8C369.1,451,368.9,451.8,368.9,452.9z"/>
	<path d="M377.4,446.9v-1.7h1.5v1.7H377.4z M377.4,457.4v-8.8h1.5v8.8H377.4z"/>
	<path d="M386.9,454.1l1.5,0.2c-0.2,1-0.6,1.8-1.2,2.4c-0.7,0.6-1.5,0.9-2.4,0.9c-1.2,0-2.2-0.4-2.9-1.2c-0.7-0.8-1.1-1.9-1.1-3.4
		c0-1,0.2-1.8,0.5-2.5s0.8-1.2,1.4-1.6c0.6-0.4,1.3-0.5,2.1-0.5c1,0,1.7,0.2,2.3,0.7s1,1.2,1.2,2.1l-1.5,0.2c-0.1-0.6-0.4-1-0.7-1.3
		c-0.4-0.3-0.8-0.4-1.3-0.4c-0.8,0-1.4,0.3-1.8,0.8c-0.5,0.5-0.7,1.4-0.7,2.6c0,1.2,0.2,2,0.7,2.6c0.5,0.5,1,0.8,1.8,0.8
		c0.6,0,1.1-0.2,1.5-0.5C386.5,455.4,386.8,454.9,386.9,454.1z"/>
	<path d="M395.7,454.5l1.5,0.2c-0.2,0.9-0.7,1.6-1.4,2.1s-1.5,0.7-2.5,0.7c-1.3,0-2.3-0.4-3.1-1.2c-0.8-0.8-1.1-1.9-1.1-3.3
		c0-1.5,0.4-2.6,1.1-3.5c0.8-0.8,1.8-1.2,3-1.2c1.2,0,2.1,0.4,2.9,1.2c0.7,0.8,1.1,1.9,1.1,3.4c0,0.1,0,0.2,0,0.4h-6.6
		c0.1,1,0.3,1.7,0.8,2.2s1.1,0.8,1.8,0.8c0.5,0,1-0.1,1.4-0.4C395.1,455.6,395.4,455.1,395.7,454.5z M390.7,452.1h4.9
		c-0.1-0.7-0.3-1.3-0.6-1.7c-0.5-0.6-1.1-0.9-1.9-0.9c-0.7,0-1.3,0.2-1.7,0.7C391.1,450.7,390.8,451.3,390.7,452.1z"/>
	<path d="M403.4,453.4l1.5-0.1c0.1,0.6,0.2,1.1,0.5,1.5c0.3,0.4,0.7,0.7,1.2,0.9c0.6,0.2,1.2,0.4,1.9,0.4c0.6,0,1.2-0.1,1.6-0.3
		s0.8-0.4,1-0.8c0.2-0.3,0.3-0.7,0.3-1c0-0.4-0.1-0.7-0.3-1s-0.6-0.5-1.1-0.7c-0.3-0.1-1-0.3-2.2-0.6s-1.9-0.5-2.3-0.8
		c-0.6-0.3-1-0.7-1.3-1.1c-0.3-0.5-0.4-1-0.4-1.5c0-0.6,0.2-1.2,0.5-1.7s0.9-0.9,1.5-1.2c0.7-0.3,1.4-0.4,2.2-0.4
		c0.9,0,1.7,0.1,2.4,0.4c0.7,0.3,1.2,0.7,1.6,1.3s0.6,1.2,0.6,1.9l-1.5,0.1c-0.1-0.8-0.4-1.4-0.8-1.7c-0.5-0.4-1.2-0.6-2.1-0.6
		c-1,0-1.7,0.2-2.1,0.5c-0.4,0.4-0.7,0.8-0.7,1.3c0,0.4,0.2,0.8,0.5,1.1c0.3,0.3,1.1,0.6,2.4,0.9c1.3,0.3,2.2,0.6,2.7,0.8
		c0.7,0.3,1.2,0.7,1.6,1.2s0.5,1.1,0.5,1.7c0,0.6-0.2,1.3-0.6,1.8c-0.4,0.6-0.9,1-1.6,1.3c-0.7,0.3-1.5,0.5-2.3,0.5
		c-1.1,0-2-0.2-2.8-0.5c-0.7-0.3-1.3-0.8-1.8-1.4C403.7,455,403.5,454.3,403.4,453.4z"/>
	<path d="M415.3,457.4v-12.2h4.2c0.9,0,1.7,0.1,2.2,0.2c0.7,0.2,1.3,0.5,1.8,0.9c0.6,0.5,1.1,1.2,1.4,2.1c0.3,0.8,0.5,1.8,0.5,2.9
		c0,0.9-0.1,1.7-0.3,2.5s-0.5,1.3-0.8,1.8c-0.3,0.5-0.7,0.8-1.1,1.1c-0.4,0.3-0.9,0.5-1.5,0.6c-0.6,0.1-1.2,0.2-2,0.2H415.3z
		 M416.9,455.9h2.6c0.8,0,1.4-0.1,1.9-0.2c0.5-0.1,0.8-0.4,1.1-0.6c0.4-0.4,0.7-0.9,0.9-1.5c0.2-0.6,0.3-1.4,0.3-2.3
		c0-1.3-0.2-2.3-0.6-2.9c-0.4-0.7-0.9-1.1-1.5-1.4c-0.4-0.2-1.1-0.2-2.1-0.2h-2.6V455.9z"/>
	<path d="M427.5,457.4v-12.2h1.6v6l6-6h2.2l-5.1,4.9l5.3,7.2h-2.1l-4.3-6.2l-2,1.9v4.2H427.5z"/>
</g>
<g>
	<path d="M582.8,268l8.2-21.5h3.1l8.8,21.5h-3.2l-2.5-6.5h-9l-2.4,6.5H582.8z M589,259.2h7.3l-2.2-5.9c-0.7-1.8-1.2-3.3-1.5-4.5
		c-0.3,1.4-0.7,2.7-1.2,4.1L589,259.2z"/>
</g>
<g>
	<path d="M584.2,534v-21.5h8.1c1.6,0,3,0.2,3.9,0.7c1,0.4,1.8,1.1,2.3,2c0.6,0.9,0.8,1.8,0.8,2.8c0,0.9-0.2,1.8-0.7,2.6
		s-1.3,1.5-2.3,2c1.3,0.4,2.3,1,3,1.9s1,2,1,3.3c0,1-0.2,1.9-0.6,2.8c-0.4,0.9-0.9,1.5-1.6,2s-1.4,0.8-2.4,1.1
		c-0.9,0.2-2.1,0.4-3.5,0.4H584.2z M587,521.5h4.6c1.3,0,2.2-0.1,2.7-0.2c0.7-0.2,1.3-0.6,1.6-1.1s0.5-1.1,0.5-1.9
		c0-0.7-0.2-1.3-0.5-1.9c-0.3-0.5-0.8-0.9-1.5-1.1c-0.6-0.2-1.7-0.3-3.3-0.3H587V521.5z M587,531.5h5.3c0.9,0,1.6,0,1.9-0.1
		c0.7-0.1,1.2-0.3,1.6-0.6s0.8-0.7,1.1-1.2c0.3-0.5,0.4-1.1,0.4-1.8c0-0.8-0.2-1.5-0.6-2.1c-0.4-0.6-1-1-1.7-1.2
		c-0.7-0.2-1.8-0.4-3.1-0.4h-5V531.5z"/>
</g>
<path class="st11" d="M1047.5,448.5c0,0,286.5,0,286.5,0c18.2-5.7,33.9-12.2,45.6-28.1c14.4-19.5,18.7-46.1,10.6-68.9
	c-9.6-27.3-34.7-45.5-63.3-45.5c-5.4-5.4-4.6-14.5-6.4-21.4c-2.1-8.4-6.5-16.6-11.2-23.8c-9.6-14.6-23.1-27.3-38.8-35.2
	c-23.7-11.9-52.4-13.4-77.1-4.1c-32.2,12.2-51,38.7-60,70.7c-21.3,0-41.9,8.8-57.7,23.2c-9.4,8.5-13.7,17.7-17.3,29.5
	c0,0-1,1.9-1,1.9c-1.5,2-9.1,1.3-11.5,1.6c-5.2,0.8-10.3,2.4-15.1,4.7c-25.6,12.6-35.2,44.3-21.3,69.3
	C1016.4,435,1032.6,448.5,1047.5,448.5z"/>
<g>
	<path class="st6" d="M1106.4,386.3h-4.7l-1.9-4.9h-8.6l-1.8,4.9h-4.6l8.4-21.5h4.6L1106.4,386.3z M1098.4,377.8l-3-8l-2.9,8H1098.4
		z"/>
	<path class="st6" d="M1108.3,387.4l4.7,0.6c0.1,0.5,0.3,0.9,0.5,1.1c0.4,0.3,1,0.4,1.8,0.4c1.1,0,1.9-0.2,2.4-0.5
		c0.4-0.2,0.6-0.6,0.8-1c0.1-0.3,0.2-1,0.2-1.9v-2.3c-1.2,1.7-2.8,2.5-4.7,2.5c-2.1,0-3.7-0.9-5-2.7c-1-1.4-1.4-3.1-1.4-5.2
		c0-2.6,0.6-4.6,1.9-6c1.3-1.4,2.8-2.1,4.7-2.1c1.9,0,3.5,0.8,4.8,2.5v-2.2h3.9v14c0,1.8-0.2,3.2-0.5,4.1s-0.7,1.6-1.3,2.1
		s-1.3,0.9-2.2,1.2c-0.9,0.3-2.1,0.4-3.5,0.4c-2.6,0-4.5-0.5-5.6-1.4s-1.7-2-1.7-3.4C1108.3,387.7,1108.3,387.5,1108.3,387.4z
		 M1111.9,378.2c0,1.7,0.3,2.9,1,3.6c0.6,0.8,1.4,1.1,2.4,1.1c1,0,1.9-0.4,2.5-1.2s1-2,1-3.5c0-1.6-0.3-2.8-1-3.6s-1.5-1.2-2.5-1.2
		c-1,0-1.8,0.4-2.4,1.1C1112.3,375.5,1111.9,376.7,1111.9,378.2z"/>
	<path class="st6" d="M1126,378.3c0-1.4,0.3-2.7,1-4s1.6-2.3,2.9-2.9c1.2-0.7,2.6-1,4.1-1c2.4,0,4.3,0.8,5.8,2.3s2.3,3.5,2.3,5.8
		c0,2.4-0.8,4.3-2.3,5.9c-1.5,1.5-3.4,2.3-5.7,2.3c-1.4,0-2.8-0.3-4.1-1c-1.3-0.6-2.3-1.6-3-2.8S1126,380.1,1126,378.3z
		 M1130.2,378.5c0,1.5,0.4,2.7,1.1,3.5s1.6,1.2,2.7,1.2s2-0.4,2.7-1.2c0.7-0.8,1.1-2,1.1-3.6c0-1.5-0.4-2.7-1.1-3.5
		c-0.7-0.8-1.6-1.2-2.7-1.2s-2,0.4-2.7,1.2S1130.2,377,1130.2,378.5z"/>
	<path class="st6" d="M1149.2,386.3h-4.1v-15.6h3.8v2.2c0.7-1,1.2-1.7,1.8-2.1c0.5-0.3,1.1-0.5,1.8-0.5c0.9,0,1.8,0.3,2.7,0.8
		l-1.3,3.6c-0.7-0.4-1.3-0.7-1.9-0.7c-0.6,0-1.1,0.2-1.5,0.5s-0.7,0.9-0.9,1.7c-0.2,0.8-0.3,2.6-0.3,5.2V386.3z"/>
	<path class="st6" d="M1160.1,375.5l-3.7-0.7c0.4-1.5,1.1-2.6,2.2-3.3s2.5-1.1,4.6-1.1c1.8,0,3.2,0.2,4.1,0.7s1.5,1,1.9,1.7
		c0.4,0.7,0.5,1.9,0.5,3.7l0,4.8c0,1.4,0.1,2.4,0.2,3c0.1,0.6,0.4,1.3,0.7,2.1h-4.1c-0.1-0.3-0.2-0.7-0.4-1.2
		c-0.1-0.2-0.1-0.4-0.1-0.5c-0.7,0.7-1.5,1.2-2.3,1.5s-1.7,0.5-2.6,0.5c-1.6,0-2.9-0.4-3.8-1.3c-0.9-0.9-1.4-2-1.4-3.3
		c0-0.9,0.2-1.7,0.6-2.4s1-1.2,1.8-1.6c0.8-0.4,1.8-0.7,3.3-1c1.9-0.4,3.3-0.7,4-1v-0.4c0-0.8-0.2-1.4-0.6-1.7s-1.1-0.5-2.2-0.5
		c-0.7,0-1.3,0.1-1.7,0.4S1160.3,374.8,1160.1,375.5z M1165.6,378.9c-0.5,0.2-1.4,0.4-2.5,0.6s-1.9,0.5-2.2,0.7
		c-0.5,0.4-0.8,0.9-0.8,1.5c0,0.6,0.2,1.1,0.6,1.5s1,0.6,1.6,0.6c0.7,0,1.5-0.2,2.1-0.7c0.5-0.4,0.8-0.8,1-1.4c0.1-0.4,0.2-1,0.2-2
		V378.9z"/>
	<path class="st6" d="M1180.9,379.3l4.2-0.4c0.3,1.4,0.8,2.5,1.5,3.1c0.8,0.7,1.8,1,3.1,1c1.4,0,2.4-0.3,3.2-0.9
		c0.7-0.6,1.1-1.3,1.1-2.1c0-0.5-0.1-0.9-0.4-1.3c-0.3-0.4-0.8-0.7-1.6-0.9c-0.5-0.2-1.7-0.5-3.5-0.9c-2.3-0.6-4-1.3-4.9-2.1
		c-1.3-1.2-2-2.6-2-4.3c0-1.1,0.3-2.1,0.9-3.1c0.6-1,1.5-1.7,2.7-2.2c1.2-0.5,2.6-0.7,4.2-0.7c2.7,0,4.7,0.6,6.1,1.8
		c1.4,1.2,2.1,2.8,2.1,4.7l-4.3,0.2c-0.2-1.1-0.6-1.9-1.2-2.4c-0.6-0.5-1.5-0.7-2.7-0.7c-1.3,0-2.2,0.3-3,0.8
		c-0.5,0.3-0.7,0.8-0.7,1.3c0,0.5,0.2,0.9,0.6,1.3c0.5,0.5,1.9,0.9,4,1.4s3.7,1,4.7,1.5c1,0.5,1.8,1.3,2.4,2.2
		c0.6,0.9,0.9,2.1,0.9,3.4c0,1.2-0.3,2.4-1,3.5s-1.7,1.9-2.9,2.4s-2.8,0.8-4.7,0.8c-2.7,0-4.8-0.6-6.3-1.9
		S1181.2,381.7,1180.9,379.3z"/>
	<path class="st6" d="M1202,364.9h7.9c1.8,0,3.1,0.1,4.1,0.4c1.3,0.4,2.3,1,3.2,2s1.6,2.1,2.1,3.5s0.7,3.1,0.7,5.1
		c0,1.8-0.2,3.3-0.7,4.6c-0.5,1.6-1.3,2.8-2.3,3.8c-0.8,0.7-1.8,1.3-3,1.7c-1,0.3-2.2,0.5-3.8,0.5h-8.2V364.9z M1206.4,368.5v14.2
		h3.2c1.2,0,2.1-0.1,2.6-0.2c0.7-0.2,1.3-0.5,1.8-0.9c0.5-0.4,0.8-1.1,1.1-2.1s0.4-2.3,0.4-3.9s-0.1-2.9-0.4-3.8s-0.7-1.6-1.2-2.1
		s-1.2-0.8-2-1c-0.6-0.1-1.8-0.2-3.6-0.2H1206.4z"/>
	<path class="st6" d="M1223.2,380.6v-4.1h8.1v4.1H1223.2z"/>
	<path class="st6" d="M1233.7,386.3v-21.5h9.1c2.3,0,4,0.2,5,0.6c1,0.4,1.9,1.1,2.5,2.1s0.9,2.1,0.9,3.4c0,1.6-0.5,2.9-1.4,4
		s-2.4,1.7-4.2,2c0.9,0.5,1.7,1.1,2.3,1.8c0.6,0.7,1.4,1.8,2.5,3.5l2.6,4.2h-5.2l-3.1-4.7c-1.1-1.7-1.9-2.7-2.3-3.2
		s-0.8-0.7-1.3-0.9s-1.2-0.2-2.2-0.2h-0.9v9H1233.7z M1238,373.9h3.2c2.1,0,3.4-0.1,3.9-0.3s0.9-0.5,1.2-0.9s0.4-1,0.4-1.6
		c0-0.7-0.2-1.3-0.6-1.8c-0.4-0.4-0.9-0.7-1.6-0.8c-0.4,0-1.4-0.1-3.2-0.1h-3.4V373.9z"/>
	<path class="st6" d="M1260.2,386.3v-17.8h-6.4v-3.6h17.1v3.6h-6.4v17.8H1260.2z"/>
	<path class="st6" d="M1273.7,386.3v-21.5h4.2l8.8,14.3v-14.3h4v21.5h-4.4l-8.7-14v14H1273.7z"/>
</g>
<g>
	<g>
		<line class="st12" x1="652.9" y1="429.1" x2="985.5" y2="429.1"/>
		<g>
			<polygon points="656.9,434.9 635.2,429.1 656.9,423.3 			"/>
		</g>
		<g>
			<polygon points="981.5,434.9 1003.2,429.1 981.5,423.3 			"/>
		</g>
	</g>
</g>
<g>
	<g>
		<line class="st12" x1="652.9" y1="366.3" x2="985.5" y2="366.3"/>
		<g>
			<polygon points="656.9,372.1 635.2,366.3 656.9,360.5 			"/>
		</g>
		<g>
			<polygon points="981.5,372.1 1003.2,366.3 981.5,360.5 			"/>
		</g>
	</g>
</g>
<g>
	<path d="M709.7,354.3l1.5-0.2c0.2,0.8,0.5,1.5,0.9,1.8c0.4,0.4,0.9,0.6,1.5,0.6c0.7,0,1.3-0.2,1.8-0.7c0.5-0.5,0.7-1.1,0.7-1.8
		c0-0.7-0.2-1.3-0.7-1.7c-0.4-0.4-1-0.7-1.7-0.7c-0.3,0-0.6,0.1-1.1,0.2l0.2-1.3c0.1,0,0.2,0,0.2,0c0.6,0,1.2-0.2,1.7-0.5
		s0.8-0.8,0.8-1.5c0-0.5-0.2-1-0.6-1.4s-0.8-0.5-1.4-0.5c-0.6,0-1.1,0.2-1.5,0.5s-0.6,0.9-0.7,1.6l-1.5-0.3c0.2-1,0.6-1.8,1.2-2.3
		c0.6-0.6,1.5-0.8,2.4-0.8c0.7,0,1.3,0.1,1.8,0.4c0.6,0.3,1,0.7,1.3,1.2c0.3,0.5,0.4,1,0.4,1.6c0,0.5-0.1,1-0.4,1.4s-0.7,0.8-1.3,1
		c0.7,0.2,1.3,0.5,1.7,1c0.4,0.5,0.6,1.2,0.6,2c0,1.1-0.4,2-1.2,2.7c-0.8,0.7-1.8,1.1-2.9,1.1c-1.1,0-2-0.3-2.7-1
		C710.2,356.1,709.8,355.3,709.7,354.3z"/>
	<path d="M720,357.5v-1.7h1.7v1.7H720z"/>
	<path d="M729.2,357.5v-12.2h4.6c0.8,0,1.4,0,1.9,0.1c0.6,0.1,1.1,0.3,1.5,0.6c0.4,0.3,0.7,0.7,1,1.2c0.2,0.5,0.4,1.1,0.4,1.7
		c0,1-0.3,1.9-1,2.6c-0.7,0.7-1.8,1.1-3.6,1.1h-3.1v4.9H729.2z M730.8,351.1h3.1c1,0,1.8-0.2,2.2-0.6s0.7-0.9,0.7-1.6
		c0-0.5-0.1-0.9-0.4-1.3c-0.3-0.4-0.6-0.6-1-0.7c-0.3-0.1-0.8-0.1-1.5-0.1h-3.1V351.1z"/>
	<path d="M746.1,357.5v-1.3c-0.7,1-1.6,1.5-2.8,1.5c-0.5,0-1-0.1-1.5-0.3c-0.5-0.2-0.8-0.4-1-0.8c-0.2-0.3-0.4-0.7-0.5-1.1
		c-0.1-0.3-0.1-0.8-0.1-1.4v-5.5h1.5v4.9c0,0.8,0,1.3,0.1,1.6c0.1,0.4,0.3,0.7,0.6,0.9c0.3,0.2,0.7,0.3,1.1,0.3s0.9-0.1,1.3-0.3
		c0.4-0.2,0.7-0.5,0.8-0.9c0.2-0.4,0.2-1,0.2-1.7v-4.7h1.5v8.8H746.1z"/>
	<path d="M751.2,357.5h-1.4v-12.2h1.5v4.3c0.6-0.8,1.4-1.2,2.4-1.2c0.5,0,1.1,0.1,1.5,0.3c0.5,0.2,0.9,0.5,1.2,0.9
		c0.3,0.4,0.6,0.9,0.7,1.4s0.3,1.2,0.3,1.8c0,1.5-0.4,2.7-1.1,3.5s-1.6,1.2-2.7,1.2c-1,0-1.9-0.4-2.4-1.3V357.5z M751.2,353
		c0,1.1,0.1,1.8,0.4,2.3c0.5,0.8,1.1,1.2,1.9,1.2c0.7,0,1.2-0.3,1.7-0.9c0.5-0.6,0.7-1.4,0.7-2.5c0-1.2-0.2-2-0.7-2.5
		c-0.5-0.5-1-0.8-1.7-0.8c-0.7,0-1.2,0.3-1.7,0.9C751.4,351.1,751.2,351.9,751.2,353z"/>
	<path d="M759.2,357.5v-12.2h1.5v12.2H759.2z"/>
	<path d="M763.1,347v-1.7h1.5v1.7H763.1z M763.1,357.5v-8.8h1.5v8.8H763.1z"/>
	<path d="M766.2,354.8l1.5-0.2c0.1,0.6,0.3,1,0.7,1.4c0.4,0.3,0.9,0.5,1.6,0.5c0.7,0,1.2-0.1,1.5-0.4c0.3-0.3,0.5-0.6,0.5-1
		c0-0.3-0.1-0.6-0.4-0.8c-0.2-0.1-0.7-0.3-1.5-0.5c-1.1-0.3-1.9-0.5-2.3-0.7c-0.4-0.2-0.7-0.5-1-0.8c-0.2-0.4-0.3-0.8-0.3-1.2
		c0-0.4,0.1-0.8,0.3-1.1c0.2-0.3,0.4-0.6,0.7-0.8c0.2-0.2,0.5-0.3,1-0.4c0.4-0.1,0.8-0.2,1.3-0.2c0.7,0,1.3,0.1,1.8,0.3
		c0.5,0.2,0.9,0.5,1.2,0.8c0.2,0.3,0.4,0.8,0.5,1.4l-1.5,0.2c-0.1-0.5-0.3-0.8-0.6-1.1c-0.3-0.3-0.8-0.4-1.3-0.4
		c-0.7,0-1.2,0.1-1.5,0.3s-0.4,0.5-0.4,0.8c0,0.2,0.1,0.4,0.2,0.5c0.1,0.2,0.3,0.3,0.6,0.4c0.1,0.1,0.6,0.2,1.3,0.4
		c1.1,0.3,1.8,0.5,2.2,0.7c0.4,0.2,0.7,0.4,1,0.8s0.4,0.8,0.4,1.3c0,0.5-0.1,1-0.4,1.4c-0.3,0.4-0.7,0.8-1.3,1
		c-0.5,0.2-1.2,0.4-1.9,0.4c-1.1,0-2-0.2-2.6-0.7C766.8,356.5,766.4,355.8,766.2,354.8z"/>
	<path d="M775.3,357.5v-12.2h1.5v4.4c0.7-0.8,1.6-1.2,2.6-1.2c0.7,0,1.2,0.1,1.7,0.4c0.5,0.3,0.8,0.6,1,1.1c0.2,0.5,0.3,1.1,0.3,2
		v5.6H781v-5.6c0-0.7-0.2-1.3-0.5-1.6c-0.3-0.3-0.8-0.5-1.4-0.5c-0.4,0-0.9,0.1-1.2,0.3c-0.4,0.2-0.7,0.5-0.8,0.9s-0.2,0.9-0.2,1.6
		v4.8H775.3z"/>
	<path d="M795.3,356.4c-0.6,0.5-1.1,0.8-1.6,1c-0.5,0.2-1.1,0.3-1.6,0.3c-1,0-1.7-0.2-2.2-0.7c-0.5-0.5-0.8-1.1-0.8-1.8
		c0-0.4,0.1-0.8,0.3-1.2c0.2-0.4,0.5-0.6,0.8-0.9c0.3-0.2,0.7-0.4,1.1-0.5c0.3-0.1,0.7-0.2,1.3-0.2c1.2-0.1,2.1-0.3,2.7-0.5
		c0-0.2,0-0.3,0-0.4c0-0.6-0.1-1-0.4-1.3c-0.4-0.3-0.9-0.5-1.7-0.5c-0.7,0-1.2,0.1-1.6,0.4c-0.3,0.2-0.6,0.7-0.7,1.3l-1.5-0.2
		c0.1-0.6,0.4-1.1,0.7-1.5c0.3-0.4,0.7-0.7,1.3-0.9c0.6-0.2,1.2-0.3,2-0.3c0.8,0,1.4,0.1,1.8,0.3s0.8,0.4,1,0.7
		c0.2,0.3,0.4,0.6,0.5,1c0,0.3,0.1,0.7,0.1,1.4v2c0,1.4,0,2.3,0.1,2.6c0.1,0.4,0.2,0.7,0.4,1.1h-1.6
		C795.4,357.2,795.3,356.8,795.3,356.4z M795.1,353.1c-0.5,0.2-1.4,0.4-2.4,0.6c-0.6,0.1-1,0.2-1.3,0.3s-0.5,0.3-0.6,0.5
		c-0.1,0.2-0.2,0.4-0.2,0.7c0,0.4,0.2,0.7,0.5,1c0.3,0.3,0.7,0.4,1.3,0.4c0.6,0,1.1-0.1,1.5-0.4c0.4-0.3,0.8-0.6,1-1
		c0.2-0.3,0.2-0.8,0.2-1.5V353.1z"/>
	<path d="M804.7,357.5v-1.3c-0.7,1-1.6,1.5-2.8,1.5c-0.5,0-1-0.1-1.5-0.3c-0.5-0.2-0.8-0.4-1-0.8c-0.2-0.3-0.4-0.7-0.5-1.1
		c-0.1-0.3-0.1-0.8-0.1-1.4v-5.5h1.5v4.9c0,0.8,0,1.3,0.1,1.6c0.1,0.4,0.3,0.7,0.6,0.9c0.3,0.2,0.7,0.3,1.1,0.3s0.9-0.1,1.3-0.3
		c0.4-0.2,0.7-0.5,0.8-0.9c0.2-0.4,0.2-1,0.2-1.7v-4.7h1.5v8.8H804.7z"/>
	<path d="M814.1,357.5v-1.1c-0.6,0.9-1.4,1.3-2.5,1.3c-0.7,0-1.3-0.2-1.9-0.6c-0.6-0.4-1-0.9-1.4-1.6c-0.3-0.7-0.5-1.5-0.5-2.4
		c0-0.9,0.1-1.7,0.4-2.4c0.3-0.7,0.7-1.3,1.3-1.6s1.2-0.6,2-0.6c0.5,0,1,0.1,1.4,0.3c0.4,0.2,0.8,0.5,1,0.9v-4.4h1.5v12.2H814.1z
		 M809.4,353.1c0,1.1,0.2,2,0.7,2.5s1,0.8,1.7,0.8c0.7,0,1.2-0.3,1.7-0.8c0.5-0.5,0.7-1.3,0.7-2.4c0-1.2-0.2-2.1-0.7-2.7
		s-1-0.8-1.7-0.8c-0.7,0-1.2,0.3-1.7,0.8C809.6,351.1,809.4,351.9,809.4,353.1z"/>
	<path d="M817.9,347v-1.7h1.5v1.7H817.9z M817.9,357.5v-8.8h1.5v8.8H817.9z"/>
	<path d="M821.1,353.1c0-1.6,0.5-2.8,1.4-3.6c0.8-0.7,1.7-1,2.8-1c1.2,0,2.2,0.4,3,1.2c0.8,0.8,1.2,1.9,1.2,3.3c0,1.1-0.2,2-0.5,2.7
		c-0.3,0.7-0.8,1.2-1.5,1.5c-0.6,0.4-1.4,0.5-2.1,0.5c-1.2,0-2.2-0.4-3-1.2C821.5,355.7,821.1,354.6,821.1,353.1z M822.6,353.1
		c0,1.1,0.2,2,0.7,2.5c0.5,0.6,1.1,0.8,1.9,0.8c0.7,0,1.4-0.3,1.9-0.8s0.7-1.4,0.7-2.6c0-1.1-0.2-1.9-0.7-2.5
		c-0.5-0.6-1.1-0.8-1.8-0.8c-0.7,0-1.4,0.3-1.9,0.8S822.6,351.9,822.6,353.1z"/>
	<path d="M841.6,356.4c-0.6,0.5-1.1,0.8-1.6,1c-0.5,0.2-1.1,0.3-1.6,0.3c-1,0-1.7-0.2-2.2-0.7c-0.5-0.5-0.8-1.1-0.8-1.8
		c0-0.4,0.1-0.8,0.3-1.2c0.2-0.4,0.5-0.6,0.8-0.9c0.3-0.2,0.7-0.4,1.1-0.5c0.3-0.1,0.7-0.2,1.3-0.2c1.2-0.1,2.1-0.3,2.7-0.5
		c0-0.2,0-0.3,0-0.4c0-0.6-0.1-1-0.4-1.3c-0.4-0.3-0.9-0.5-1.7-0.5c-0.7,0-1.2,0.1-1.6,0.4c-0.3,0.2-0.6,0.7-0.7,1.3l-1.5-0.2
		c0.1-0.6,0.4-1.1,0.7-1.5c0.3-0.4,0.7-0.7,1.3-0.9c0.6-0.2,1.2-0.3,2-0.3c0.8,0,1.4,0.1,1.8,0.3s0.8,0.4,1,0.7
		c0.2,0.3,0.4,0.6,0.5,1c0,0.3,0.1,0.7,0.1,1.4v2c0,1.4,0,2.3,0.1,2.6c0.1,0.4,0.2,0.7,0.4,1.1h-1.6
		C841.7,357.2,841.6,356.8,841.6,356.4z M841.4,353.1c-0.5,0.2-1.4,0.4-2.4,0.6c-0.6,0.1-1,0.2-1.3,0.3s-0.5,0.3-0.6,0.5
		c-0.1,0.2-0.2,0.4-0.2,0.7c0,0.4,0.2,0.7,0.5,1c0.3,0.3,0.7,0.4,1.3,0.4c0.6,0,1.1-0.1,1.5-0.4c0.4-0.3,0.8-0.6,1-1
		c0.2-0.3,0.2-0.8,0.2-1.5V353.1z"/>
	<path d="M845.3,357.5v-8.8h1.3v1.3c0.6-1,1.6-1.5,2.8-1.5c0.5,0,1,0.1,1.5,0.3c0.4,0.2,0.8,0.4,1,0.8s0.4,0.7,0.5,1.1
		c0.1,0.3,0.1,0.8,0.1,1.5v5.4h-1.5v-5.4c0-0.6-0.1-1.1-0.2-1.4c-0.1-0.3-0.3-0.5-0.6-0.7c-0.3-0.2-0.6-0.3-1-0.3
		c-0.6,0-1.2,0.2-1.6,0.6c-0.5,0.4-0.7,1.2-0.7,2.3v4.8H845.3z"/>
	<path d="M860.4,357.5v-1.1c-0.6,0.9-1.4,1.3-2.5,1.3c-0.7,0-1.3-0.2-1.9-0.6c-0.6-0.4-1-0.9-1.4-1.6c-0.3-0.7-0.5-1.5-0.5-2.4
		c0-0.9,0.1-1.7,0.4-2.4c0.3-0.7,0.7-1.3,1.3-1.6s1.2-0.6,2-0.6c0.5,0,1,0.1,1.4,0.3c0.4,0.2,0.8,0.5,1,0.9v-4.4h1.5v12.2H860.4z
		 M855.7,353.1c0,1.1,0.2,2,0.7,2.5s1,0.8,1.7,0.8c0.7,0,1.2-0.3,1.7-0.8c0.5-0.5,0.7-1.3,0.7-2.4c0-1.2-0.2-2.1-0.7-2.7
		s-1-0.8-1.7-0.8c-0.7,0-1.2,0.3-1.7,0.8C855.9,351.1,855.7,351.9,855.7,353.1z"/>
	<path d="M868.3,354.8l1.5-0.2c0.1,0.6,0.3,1,0.7,1.4c0.4,0.3,0.9,0.5,1.6,0.5c0.7,0,1.2-0.1,1.5-0.4c0.3-0.3,0.5-0.6,0.5-1
		c0-0.3-0.1-0.6-0.4-0.8c-0.2-0.1-0.7-0.3-1.5-0.5c-1.1-0.3-1.9-0.5-2.3-0.7c-0.4-0.2-0.7-0.5-1-0.8c-0.2-0.4-0.3-0.8-0.3-1.2
		c0-0.4,0.1-0.8,0.3-1.1c0.2-0.3,0.4-0.6,0.7-0.8c0.2-0.2,0.5-0.3,1-0.4c0.4-0.1,0.8-0.2,1.3-0.2c0.7,0,1.3,0.1,1.8,0.3
		c0.5,0.2,0.9,0.5,1.2,0.8c0.2,0.3,0.4,0.8,0.5,1.4l-1.5,0.2c-0.1-0.5-0.3-0.8-0.6-1.1c-0.3-0.3-0.8-0.4-1.3-0.4
		c-0.7,0-1.2,0.1-1.5,0.3s-0.4,0.5-0.4,0.8c0,0.2,0.1,0.4,0.2,0.5c0.1,0.2,0.3,0.3,0.6,0.4c0.1,0.1,0.6,0.2,1.3,0.4
		c1.1,0.3,1.8,0.5,2.2,0.7c0.4,0.2,0.7,0.4,1,0.8s0.4,0.8,0.4,1.3c0,0.5-0.1,1-0.4,1.4c-0.3,0.4-0.7,0.8-1.3,1
		c-0.5,0.2-1.2,0.4-1.9,0.4c-1.1,0-2-0.2-2.6-0.7C868.9,356.5,868.5,355.8,868.3,354.8z"/>
	<path d="M883.2,357.5v-1.3c-0.7,1-1.6,1.5-2.8,1.5c-0.5,0-1-0.1-1.5-0.3c-0.5-0.2-0.8-0.4-1-0.8c-0.2-0.3-0.4-0.7-0.5-1.1
		c-0.1-0.3-0.1-0.8-0.1-1.4v-5.5h1.5v4.9c0,0.8,0,1.3,0.1,1.6c0.1,0.4,0.3,0.7,0.6,0.9c0.3,0.2,0.7,0.3,1.1,0.3s0.9-0.1,1.3-0.3
		c0.4-0.2,0.7-0.5,0.8-0.9c0.2-0.4,0.2-1,0.2-1.7v-4.7h1.5v8.8H883.2z"/>
	<path d="M888.2,357.5h-1.4v-12.2h1.5v4.3c0.6-0.8,1.4-1.2,2.4-1.2c0.5,0,1.1,0.1,1.5,0.3c0.5,0.2,0.9,0.5,1.2,0.9
		c0.3,0.4,0.6,0.9,0.7,1.4s0.3,1.2,0.3,1.8c0,1.5-0.4,2.7-1.1,3.5s-1.6,1.2-2.7,1.2c-1,0-1.9-0.4-2.4-1.3V357.5z M888.2,353
		c0,1.1,0.1,1.8,0.4,2.3c0.5,0.8,1.1,1.2,1.9,1.2c0.7,0,1.2-0.3,1.7-0.9c0.5-0.6,0.7-1.4,0.7-2.5c0-1.2-0.2-2-0.7-2.5
		c-0.5-0.5-1-0.8-1.7-0.8c-0.7,0-1.2,0.3-1.7,0.9C888.5,351.1,888.2,351.9,888.2,353z"/>
	<path d="M895.7,354.8l1.5-0.2c0.1,0.6,0.3,1,0.7,1.4c0.4,0.3,0.9,0.5,1.6,0.5c0.7,0,1.2-0.1,1.5-0.4c0.3-0.3,0.5-0.6,0.5-1
		c0-0.3-0.1-0.6-0.4-0.8c-0.2-0.1-0.7-0.3-1.5-0.5c-1.1-0.3-1.9-0.5-2.3-0.7c-0.4-0.2-0.7-0.5-1-0.8c-0.2-0.4-0.3-0.8-0.3-1.2
		c0-0.4,0.1-0.8,0.3-1.1c0.2-0.3,0.4-0.6,0.7-0.8c0.2-0.2,0.5-0.3,1-0.4c0.4-0.1,0.8-0.2,1.3-0.2c0.7,0,1.3,0.1,1.8,0.3
		c0.5,0.2,0.9,0.5,1.2,0.8c0.2,0.3,0.4,0.8,0.5,1.4l-1.5,0.2c-0.1-0.5-0.3-0.8-0.6-1.1c-0.3-0.3-0.8-0.4-1.3-0.4
		c-0.7,0-1.2,0.1-1.5,0.3s-0.4,0.5-0.4,0.8c0,0.2,0.1,0.4,0.2,0.5c0.1,0.2,0.3,0.3,0.6,0.4c0.1,0.1,0.6,0.2,1.3,0.4
		c1.1,0.3,1.8,0.5,2.2,0.7c0.4,0.2,0.7,0.4,1,0.8s0.4,0.8,0.4,1.3c0,0.5-0.1,1-0.4,1.4c-0.3,0.4-0.7,0.8-1.3,1
		c-0.5,0.2-1.2,0.4-1.9,0.4c-1.1,0-2-0.2-2.6-0.7C896.3,356.5,895.9,355.8,895.7,354.8z"/>
	<path d="M910.6,354.2l1.5,0.2c-0.2,1-0.6,1.8-1.2,2.4c-0.7,0.6-1.5,0.9-2.4,0.9c-1.2,0-2.2-0.4-2.9-1.2c-0.7-0.8-1.1-1.9-1.1-3.4
		c0-1,0.2-1.8,0.5-2.5s0.8-1.2,1.4-1.6c0.6-0.4,1.3-0.5,2.1-0.5c1,0,1.7,0.2,2.3,0.7c0.6,0.5,1,1.2,1.2,2.1l-1.5,0.2
		c-0.1-0.6-0.4-1-0.7-1.3c-0.4-0.3-0.8-0.4-1.3-0.4c-0.8,0-1.4,0.3-1.8,0.8c-0.5,0.5-0.7,1.4-0.7,2.6c0,1.2,0.2,2,0.7,2.6
		s1,0.8,1.8,0.8c0.6,0,1.1-0.2,1.5-0.5S910.5,355,910.6,354.2z"/>
	<path d="M913.3,357.5v-8.8h1.3v1.3c0.3-0.6,0.7-1,1-1.2c0.3-0.2,0.6-0.3,1-0.3c0.5,0,1,0.2,1.5,0.5l-0.5,1.4
		c-0.4-0.2-0.7-0.3-1.1-0.3c-0.3,0-0.6,0.1-0.9,0.3c-0.3,0.2-0.4,0.5-0.6,0.8c-0.2,0.5-0.2,1.1-0.2,1.7v4.6H913.3z"/>
	<path d="M919,347v-1.7h1.5v1.7H919z M919,357.5v-8.8h1.5v8.8H919z"/>
	<path d="M924.1,357.5h-1.4v-12.2h1.5v4.3c0.6-0.8,1.4-1.2,2.4-1.2c0.5,0,1.1,0.1,1.5,0.3c0.5,0.2,0.9,0.5,1.2,0.9
		c0.3,0.4,0.6,0.9,0.7,1.4s0.3,1.2,0.3,1.8c0,1.5-0.4,2.7-1.1,3.5s-1.6,1.2-2.7,1.2c-1,0-1.9-0.4-2.4-1.3V357.5z M924.1,353
		c0,1.1,0.1,1.8,0.4,2.3c0.5,0.8,1.1,1.2,1.9,1.2c0.7,0,1.2-0.3,1.7-0.9c0.5-0.6,0.7-1.4,0.7-2.5c0-1.2-0.2-2-0.7-2.5
		c-0.5-0.5-1-0.8-1.7-0.8c-0.7,0-1.2,0.3-1.7,0.9C924.4,351.1,924.1,351.9,924.1,353z"/>
	<path d="M938.2,354.6l1.5,0.2c-0.2,0.9-0.7,1.6-1.4,2.1s-1.5,0.7-2.5,0.7c-1.3,0-2.3-0.4-3.1-1.2c-0.8-0.8-1.1-1.9-1.1-3.3
		c0-1.5,0.4-2.6,1.1-3.5s1.8-1.2,3-1.2c1.2,0,2.1,0.4,2.9,1.2s1.1,1.9,1.1,3.4c0,0.1,0,0.2,0,0.4h-6.6c0.1,1,0.3,1.7,0.8,2.2
		s1.1,0.8,1.8,0.8c0.5,0,1-0.1,1.4-0.4S938,355.3,938.2,354.6z M933.3,352.2h4.9c-0.1-0.7-0.3-1.3-0.6-1.7c-0.5-0.6-1.1-0.9-1.9-0.9
		c-0.7,0-1.3,0.2-1.7,0.7C933.6,350.8,933.4,351.5,933.3,352.2z"/>
	<path d="M949.6,356.1l0.2,1.3c-0.4,0.1-0.8,0.1-1.1,0.1c-0.5,0-1-0.1-1.3-0.3s-0.5-0.4-0.6-0.7c-0.1-0.3-0.2-0.9-0.2-1.8v-5.1h-1.1
		v-1.2h1.1v-2.2l1.5-0.9v3.1h1.5v1.2h-1.5v5.2c0,0.4,0,0.7,0.1,0.8s0.1,0.2,0.3,0.3c0.1,0.1,0.3,0.1,0.5,0.1
		C949.2,356.2,949.4,356.2,949.6,356.1z"/>
	<path d="M950.6,353.1c0-1.6,0.5-2.8,1.4-3.6c0.8-0.7,1.7-1,2.8-1c1.2,0,2.2,0.4,3,1.2c0.8,0.8,1.2,1.9,1.2,3.3c0,1.1-0.2,2-0.5,2.7
		c-0.3,0.7-0.8,1.2-1.5,1.5c-0.6,0.4-1.4,0.5-2.1,0.5c-1.2,0-2.2-0.4-3-1.2S950.6,354.6,950.6,353.1z M952.1,353.1
		c0,1.1,0.2,2,0.7,2.5c0.5,0.6,1.1,0.8,1.9,0.8c0.7,0,1.4-0.3,1.9-0.8c0.5-0.6,0.7-1.4,0.7-2.6c0-1.1-0.2-1.9-0.7-2.5
		c-0.5-0.6-1.1-0.8-1.8-0.8c-0.7,0-1.4,0.3-1.9,0.8S952.1,351.9,952.1,353.1z"/>
	<path d="M965.4,357.5v-12.2h4.6c0.9,0,1.7,0.1,2.2,0.4c0.6,0.2,1,0.6,1.3,1.1c0.3,0.5,0.5,1,0.5,1.6c0,0.5-0.1,1-0.4,1.5
		c-0.3,0.5-0.7,0.8-1.3,1.1c0.7,0.2,1.3,0.6,1.7,1.1s0.6,1.1,0.6,1.8c0,0.6-0.1,1.1-0.4,1.6c-0.2,0.5-0.5,0.9-0.9,1.1
		s-0.8,0.5-1.3,0.6c-0.5,0.1-1.2,0.2-2,0.2H965.4z M967,350.4h2.6c0.7,0,1.2,0,1.5-0.1c0.4-0.1,0.7-0.3,0.9-0.6
		c0.2-0.3,0.3-0.6,0.3-1.1c0-0.4-0.1-0.8-0.3-1.1c-0.2-0.3-0.5-0.5-0.8-0.6c-0.4-0.1-1-0.2-1.9-0.2H967V350.4z M967,356h3
		c0.5,0,0.9,0,1.1-0.1c0.4-0.1,0.7-0.2,0.9-0.3c0.3-0.2,0.5-0.4,0.6-0.7c0.2-0.3,0.2-0.6,0.2-1c0-0.5-0.1-0.8-0.3-1.2
		c-0.2-0.3-0.6-0.6-1-0.7c-0.4-0.1-1-0.2-1.8-0.2H967V356z"/>
</g>
<g>
	<path d="M714.5,421V418h-5.3v-1.4l5.6-7.9h1.2v7.9h1.6v1.4H716v2.9H714.5z M714.5,416.7v-5.5l-3.8,5.5H714.5z"/>
	<path d="M720,421v-1.7h1.7v1.7H720z"/>
	<path d="M729.2,421v-12.2h4.6c0.8,0,1.4,0,1.9,0.1c0.6,0.1,1.1,0.3,1.5,0.6s0.7,0.7,1,1.2c0.2,0.5,0.4,1.1,0.4,1.7
		c0,1-0.3,1.9-1,2.6s-1.8,1.1-3.6,1.1h-3.1v4.9H729.2z M730.8,414.6h3.1c1,0,1.8-0.2,2.2-0.6c0.4-0.4,0.7-0.9,0.7-1.6
		c0-0.5-0.1-0.9-0.4-1.3c-0.3-0.4-0.6-0.6-1-0.7c-0.3-0.1-0.8-0.1-1.5-0.1h-3.1V414.6z"/>
	<path d="M746.1,421v-1.3c-0.7,1-1.6,1.5-2.8,1.5c-0.5,0-1-0.1-1.5-0.3c-0.5-0.2-0.8-0.5-1-0.8c-0.2-0.3-0.4-0.7-0.5-1.1
		c-0.1-0.3-0.1-0.8-0.1-1.4v-5.5h1.5v4.9c0,0.8,0,1.3,0.1,1.6c0.1,0.4,0.3,0.7,0.6,0.9c0.3,0.2,0.7,0.3,1.1,0.3s0.9-0.1,1.3-0.3
		c0.4-0.2,0.7-0.5,0.8-0.9c0.2-0.4,0.2-1,0.2-1.7v-4.7h1.5v8.8H746.1z"/>
	<path d="M751.2,421h-1.4v-12.2h1.5v4.3c0.6-0.8,1.4-1.2,2.4-1.2c0.5,0,1.1,0.1,1.5,0.3c0.5,0.2,0.9,0.5,1.2,0.9
		c0.3,0.4,0.6,0.9,0.7,1.4c0.2,0.6,0.3,1.2,0.3,1.8c0,1.5-0.4,2.7-1.1,3.5c-0.7,0.8-1.6,1.2-2.7,1.2c-1,0-1.9-0.4-2.4-1.3V421z
		 M751.2,416.5c0,1.1,0.1,1.8,0.4,2.3c0.5,0.8,1.1,1.2,1.9,1.2c0.7,0,1.2-0.3,1.7-0.9c0.5-0.6,0.7-1.4,0.7-2.5c0-1.2-0.2-2-0.7-2.5
		c-0.5-0.5-1-0.8-1.7-0.8c-0.7,0-1.2,0.3-1.7,0.9S751.2,415.4,751.2,416.5z"/>
	<path d="M759.2,421v-12.2h1.5V421H759.2z"/>
	<path d="M763.1,410.5v-1.7h1.5v1.7H763.1z M763.1,421v-8.8h1.5v8.8H763.1z"/>
	<path d="M766.2,418.3l1.5-0.2c0.1,0.6,0.3,1,0.7,1.4c0.4,0.3,0.9,0.5,1.6,0.5c0.7,0,1.2-0.1,1.5-0.4c0.3-0.3,0.5-0.6,0.5-1
		c0-0.3-0.1-0.6-0.4-0.8c-0.2-0.1-0.7-0.3-1.5-0.5c-1.1-0.3-1.9-0.5-2.3-0.7c-0.4-0.2-0.7-0.5-1-0.8c-0.2-0.4-0.3-0.8-0.3-1.2
		c0-0.4,0.1-0.8,0.3-1.1c0.2-0.3,0.4-0.6,0.7-0.8c0.2-0.2,0.5-0.3,1-0.4c0.4-0.1,0.8-0.2,1.3-0.2c0.7,0,1.3,0.1,1.8,0.3
		c0.5,0.2,0.9,0.5,1.2,0.8c0.2,0.3,0.4,0.8,0.5,1.4l-1.5,0.2c-0.1-0.5-0.3-0.8-0.6-1.1c-0.3-0.3-0.8-0.4-1.3-0.4
		c-0.7,0-1.2,0.1-1.5,0.3c-0.3,0.2-0.4,0.5-0.4,0.8c0,0.2,0.1,0.4,0.2,0.5c0.1,0.2,0.3,0.3,0.6,0.4c0.1,0.1,0.6,0.2,1.3,0.4
		c1.1,0.3,1.8,0.5,2.2,0.7c0.4,0.2,0.7,0.4,1,0.8c0.2,0.3,0.4,0.8,0.4,1.3c0,0.5-0.1,1-0.4,1.4c-0.3,0.4-0.7,0.8-1.3,1
		c-0.5,0.2-1.2,0.4-1.9,0.4c-1.1,0-2-0.2-2.6-0.7C766.8,420,766.4,419.3,766.2,418.3z"/>
	<path d="M775.3,421v-12.2h1.5v4.4c0.7-0.8,1.6-1.2,2.6-1.2c0.7,0,1.2,0.1,1.7,0.4c0.5,0.3,0.8,0.6,1,1.1c0.2,0.5,0.3,1.1,0.3,2v5.6
		H781v-5.6c0-0.7-0.2-1.3-0.5-1.6c-0.3-0.3-0.8-0.5-1.4-0.5c-0.4,0-0.9,0.1-1.2,0.3c-0.4,0.2-0.7,0.5-0.8,0.9
		c-0.2,0.4-0.2,0.9-0.2,1.6v4.8H775.3z"/>
	<path d="M795.3,419.9c-0.6,0.5-1.1,0.8-1.6,1c-0.5,0.2-1.1,0.3-1.6,0.3c-1,0-1.7-0.2-2.2-0.7c-0.5-0.5-0.8-1.1-0.8-1.8
		c0-0.4,0.1-0.8,0.3-1.2c0.2-0.4,0.5-0.6,0.8-0.9c0.3-0.2,0.7-0.4,1.1-0.5c0.3-0.1,0.7-0.2,1.3-0.2c1.2-0.1,2.1-0.3,2.7-0.5
		c0-0.2,0-0.3,0-0.4c0-0.6-0.1-1-0.4-1.3c-0.4-0.3-0.9-0.5-1.7-0.5c-0.7,0-1.2,0.1-1.6,0.4c-0.3,0.2-0.6,0.7-0.7,1.3l-1.5-0.2
		c0.1-0.6,0.4-1.1,0.7-1.5s0.7-0.7,1.3-0.9c0.6-0.2,1.2-0.3,2-0.3c0.8,0,1.4,0.1,1.8,0.3c0.5,0.2,0.8,0.4,1,0.7s0.4,0.6,0.5,1
		c0,0.3,0.1,0.7,0.1,1.4v2c0,1.4,0,2.3,0.1,2.6c0.1,0.4,0.2,0.7,0.4,1.1h-1.6C795.4,420.6,795.3,420.3,795.3,419.9z M795.1,416.5
		c-0.5,0.2-1.4,0.4-2.4,0.6c-0.6,0.1-1,0.2-1.3,0.3c-0.3,0.1-0.5,0.3-0.6,0.5c-0.1,0.2-0.2,0.4-0.2,0.7c0,0.4,0.2,0.7,0.5,1
		c0.3,0.3,0.7,0.4,1.3,0.4c0.6,0,1.1-0.1,1.5-0.4c0.4-0.3,0.8-0.6,1-1c0.2-0.3,0.2-0.8,0.2-1.5V416.5z"/>
	<path d="M804.7,421v-1.3c-0.7,1-1.6,1.5-2.8,1.5c-0.5,0-1-0.1-1.5-0.3c-0.5-0.2-0.8-0.5-1-0.8c-0.2-0.3-0.4-0.7-0.5-1.1
		c-0.1-0.3-0.1-0.8-0.1-1.4v-5.5h1.5v4.9c0,0.8,0,1.3,0.1,1.6c0.1,0.4,0.3,0.7,0.6,0.9c0.3,0.2,0.7,0.3,1.1,0.3s0.9-0.1,1.3-0.3
		c0.4-0.2,0.7-0.5,0.8-0.9c0.2-0.4,0.2-1,0.2-1.7v-4.7h1.5v8.8H804.7z"/>
	<path d="M814.1,421v-1.1c-0.6,0.9-1.4,1.3-2.5,1.3c-0.7,0-1.3-0.2-1.9-0.6c-0.6-0.4-1-0.9-1.4-1.6c-0.3-0.7-0.5-1.5-0.5-2.4
		c0-0.9,0.1-1.7,0.4-2.4c0.3-0.7,0.7-1.3,1.3-1.6s1.2-0.6,2-0.6c0.5,0,1,0.1,1.4,0.3c0.4,0.2,0.8,0.5,1,0.9v-4.4h1.5V421H814.1z
		 M809.4,416.6c0,1.1,0.2,2,0.7,2.5c0.5,0.6,1,0.8,1.7,0.8c0.7,0,1.2-0.3,1.7-0.8c0.5-0.5,0.7-1.3,0.7-2.4c0-1.2-0.2-2.1-0.7-2.7
		s-1-0.8-1.7-0.8c-0.7,0-1.2,0.3-1.7,0.8C809.6,414.5,809.4,415.4,809.4,416.6z"/>
	<path d="M817.9,410.5v-1.7h1.5v1.7H817.9z M817.9,421v-8.8h1.5v8.8H817.9z"/>
	<path d="M821.1,416.5c0-1.6,0.5-2.8,1.4-3.6c0.8-0.7,1.7-1,2.8-1c1.2,0,2.2,0.4,3,1.2c0.8,0.8,1.2,1.9,1.2,3.3c0,1.1-0.2,2-0.5,2.7
		c-0.3,0.7-0.8,1.2-1.5,1.5c-0.6,0.4-1.4,0.5-2.1,0.5c-1.2,0-2.2-0.4-3-1.2C821.5,419.2,821.1,418,821.1,416.5z M822.6,416.5
		c0,1.1,0.2,2,0.7,2.5s1.1,0.8,1.9,0.8c0.7,0,1.4-0.3,1.9-0.8s0.7-1.4,0.7-2.6c0-1.1-0.2-1.9-0.7-2.5c-0.5-0.6-1.1-0.8-1.8-0.8
		c-0.7,0-1.4,0.3-1.9,0.8C822.9,414.6,822.6,415.4,822.6,416.5z"/>
	<path d="M841.6,419.9c-0.6,0.5-1.1,0.8-1.6,1c-0.5,0.2-1.1,0.3-1.6,0.3c-1,0-1.7-0.2-2.2-0.7c-0.5-0.5-0.8-1.1-0.8-1.8
		c0-0.4,0.1-0.8,0.3-1.2c0.2-0.4,0.5-0.6,0.8-0.9c0.3-0.2,0.7-0.4,1.1-0.5c0.3-0.1,0.7-0.2,1.3-0.2c1.2-0.1,2.1-0.3,2.7-0.5
		c0-0.2,0-0.3,0-0.4c0-0.6-0.1-1-0.4-1.3c-0.4-0.3-0.9-0.5-1.7-0.5c-0.7,0-1.2,0.1-1.6,0.4c-0.3,0.2-0.6,0.7-0.7,1.3l-1.5-0.2
		c0.1-0.6,0.4-1.1,0.7-1.5s0.7-0.7,1.3-0.9c0.6-0.2,1.2-0.3,2-0.3c0.8,0,1.4,0.1,1.8,0.3c0.5,0.2,0.8,0.4,1,0.7s0.4,0.6,0.5,1
		c0,0.3,0.1,0.7,0.1,1.4v2c0,1.4,0,2.3,0.1,2.6c0.1,0.4,0.2,0.7,0.4,1.1h-1.6C841.7,420.6,841.6,420.3,841.6,419.9z M841.4,416.5
		c-0.5,0.2-1.4,0.4-2.4,0.6c-0.6,0.1-1,0.2-1.3,0.3c-0.3,0.1-0.5,0.3-0.6,0.5c-0.1,0.2-0.2,0.4-0.2,0.7c0,0.4,0.2,0.7,0.5,1
		c0.3,0.3,0.7,0.4,1.3,0.4c0.6,0,1.1-0.1,1.5-0.4c0.4-0.3,0.8-0.6,1-1c0.2-0.3,0.2-0.8,0.2-1.5V416.5z"/>
	<path d="M845.3,421v-8.8h1.3v1.3c0.6-1,1.6-1.5,2.8-1.5c0.5,0,1,0.1,1.5,0.3c0.4,0.2,0.8,0.4,1,0.8c0.2,0.3,0.4,0.7,0.5,1.1
		c0.1,0.3,0.1,0.8,0.1,1.5v5.4h-1.5v-5.4c0-0.6-0.1-1.1-0.2-1.4c-0.1-0.3-0.3-0.5-0.6-0.7c-0.3-0.2-0.6-0.3-1-0.3
		c-0.6,0-1.2,0.2-1.6,0.6c-0.5,0.4-0.7,1.2-0.7,2.3v4.8H845.3z"/>
	<path d="M860.4,421v-1.1c-0.6,0.9-1.4,1.3-2.5,1.3c-0.7,0-1.3-0.2-1.9-0.6c-0.6-0.4-1-0.9-1.4-1.6c-0.3-0.7-0.5-1.5-0.5-2.4
		c0-0.9,0.1-1.7,0.4-2.4c0.3-0.7,0.7-1.3,1.3-1.6s1.2-0.6,2-0.6c0.5,0,1,0.1,1.4,0.3c0.4,0.2,0.8,0.5,1,0.9v-4.4h1.5V421H860.4z
		 M855.7,416.6c0,1.1,0.2,2,0.7,2.5c0.5,0.6,1,0.8,1.7,0.8c0.7,0,1.2-0.3,1.7-0.8c0.5-0.5,0.7-1.3,0.7-2.4c0-1.2-0.2-2.1-0.7-2.7
		s-1-0.8-1.7-0.8c-0.7,0-1.2,0.3-1.7,0.8C855.9,414.5,855.7,415.4,855.7,416.6z"/>
	<path d="M868.3,418.3l1.5-0.2c0.1,0.6,0.3,1,0.7,1.4c0.4,0.3,0.9,0.5,1.6,0.5c0.7,0,1.2-0.1,1.5-0.4c0.3-0.3,0.5-0.6,0.5-1
		c0-0.3-0.1-0.6-0.4-0.8c-0.2-0.1-0.7-0.3-1.5-0.5c-1.1-0.3-1.9-0.5-2.3-0.7c-0.4-0.2-0.7-0.5-1-0.8c-0.2-0.4-0.3-0.8-0.3-1.2
		c0-0.4,0.1-0.8,0.3-1.1c0.2-0.3,0.4-0.6,0.7-0.8c0.2-0.2,0.5-0.3,1-0.4c0.4-0.1,0.8-0.2,1.3-0.2c0.7,0,1.3,0.1,1.8,0.3
		c0.5,0.2,0.9,0.5,1.2,0.8c0.2,0.3,0.4,0.8,0.5,1.4l-1.5,0.2c-0.1-0.5-0.3-0.8-0.6-1.1c-0.3-0.3-0.8-0.4-1.3-0.4
		c-0.7,0-1.2,0.1-1.5,0.3c-0.3,0.2-0.4,0.5-0.4,0.8c0,0.2,0.1,0.4,0.2,0.5c0.1,0.2,0.3,0.3,0.6,0.4c0.1,0.1,0.6,0.2,1.3,0.4
		c1.1,0.3,1.8,0.5,2.2,0.7c0.4,0.2,0.7,0.4,1,0.8c0.2,0.3,0.4,0.8,0.4,1.3c0,0.5-0.1,1-0.4,1.4c-0.3,0.4-0.7,0.8-1.3,1
		c-0.5,0.2-1.2,0.4-1.9,0.4c-1.1,0-2-0.2-2.6-0.7C868.9,420,868.5,419.3,868.3,418.3z"/>
	<path d="M883.2,421v-1.3c-0.7,1-1.6,1.5-2.8,1.5c-0.5,0-1-0.1-1.5-0.3c-0.5-0.2-0.8-0.5-1-0.8c-0.2-0.3-0.4-0.7-0.5-1.1
		c-0.1-0.3-0.1-0.8-0.1-1.4v-5.5h1.5v4.9c0,0.8,0,1.3,0.1,1.6c0.1,0.4,0.3,0.7,0.6,0.9c0.3,0.2,0.7,0.3,1.1,0.3s0.9-0.1,1.3-0.3
		c0.4-0.2,0.7-0.5,0.8-0.9c0.2-0.4,0.2-1,0.2-1.7v-4.7h1.5v8.8H883.2z"/>
	<path d="M888.2,421h-1.4v-12.2h1.5v4.3c0.6-0.8,1.4-1.2,2.4-1.2c0.5,0,1.1,0.1,1.5,0.3c0.5,0.2,0.9,0.5,1.2,0.9
		c0.3,0.4,0.6,0.9,0.7,1.4c0.2,0.6,0.3,1.2,0.3,1.8c0,1.5-0.4,2.7-1.1,3.5c-0.7,0.8-1.6,1.2-2.7,1.2c-1,0-1.9-0.4-2.4-1.3V421z
		 M888.2,416.5c0,1.1,0.1,1.8,0.4,2.3c0.5,0.8,1.1,1.2,1.9,1.2c0.7,0,1.2-0.3,1.7-0.9c0.5-0.6,0.7-1.4,0.7-2.5c0-1.2-0.2-2-0.7-2.5
		c-0.5-0.5-1-0.8-1.7-0.8c-0.7,0-1.2,0.3-1.7,0.9S888.2,415.4,888.2,416.5z"/>
	<path d="M895.7,418.3l1.5-0.2c0.1,0.6,0.3,1,0.7,1.4c0.4,0.3,0.9,0.5,1.6,0.5c0.7,0,1.2-0.1,1.5-0.4c0.3-0.3,0.5-0.6,0.5-1
		c0-0.3-0.1-0.6-0.4-0.8c-0.2-0.1-0.7-0.3-1.5-0.5c-1.1-0.3-1.9-0.5-2.3-0.7c-0.4-0.2-0.7-0.5-1-0.8c-0.2-0.4-0.3-0.8-0.3-1.2
		c0-0.4,0.1-0.8,0.3-1.1c0.2-0.3,0.4-0.6,0.7-0.8c0.2-0.2,0.5-0.3,1-0.4c0.4-0.1,0.8-0.2,1.3-0.2c0.7,0,1.3,0.1,1.8,0.3
		c0.5,0.2,0.9,0.5,1.2,0.8c0.2,0.3,0.4,0.8,0.5,1.4l-1.5,0.2c-0.1-0.5-0.3-0.8-0.6-1.1c-0.3-0.3-0.8-0.4-1.3-0.4
		c-0.7,0-1.2,0.1-1.5,0.3c-0.3,0.2-0.4,0.5-0.4,0.8c0,0.2,0.1,0.4,0.2,0.5c0.1,0.2,0.3,0.3,0.6,0.4c0.1,0.1,0.6,0.2,1.3,0.4
		c1.1,0.3,1.8,0.5,2.2,0.7c0.4,0.2,0.7,0.4,1,0.8c0.2,0.3,0.4,0.8,0.4,1.3c0,0.5-0.1,1-0.4,1.4c-0.3,0.4-0.7,0.8-1.3,1
		c-0.5,0.2-1.2,0.4-1.9,0.4c-1.1,0-2-0.2-2.6-0.7C896.3,420,895.9,419.3,895.7,418.3z"/>
	<path d="M910.6,417.7l1.5,0.2c-0.2,1-0.6,1.8-1.2,2.4c-0.7,0.6-1.5,0.9-2.4,0.9c-1.2,0-2.2-0.4-2.9-1.2c-0.7-0.8-1.1-1.9-1.1-3.4
		c0-1,0.2-1.8,0.5-2.5s0.8-1.2,1.4-1.6c0.6-0.4,1.3-0.5,2.1-0.5c1,0,1.7,0.2,2.3,0.7c0.6,0.5,1,1.2,1.2,2.1l-1.5,0.2
		c-0.1-0.6-0.4-1-0.7-1.3c-0.4-0.3-0.8-0.4-1.3-0.4c-0.8,0-1.4,0.3-1.8,0.8c-0.5,0.5-0.7,1.4-0.7,2.6c0,1.2,0.2,2,0.7,2.6
		c0.5,0.5,1,0.8,1.8,0.8c0.6,0,1.1-0.2,1.5-0.5C910.2,419,910.5,418.5,910.6,417.7z"/>
	<path d="M913.3,421v-8.8h1.3v1.3c0.3-0.6,0.7-1,1-1.2c0.3-0.2,0.6-0.3,1-0.3c0.5,0,1,0.2,1.5,0.5l-0.5,1.4
		c-0.4-0.2-0.7-0.3-1.1-0.3c-0.3,0-0.6,0.1-0.9,0.3c-0.3,0.2-0.4,0.5-0.6,0.8c-0.2,0.5-0.2,1.1-0.2,1.7v4.6H913.3z"/>
	<path d="M919,410.5v-1.7h1.5v1.7H919z M919,421v-8.8h1.5v8.8H919z"/>
	<path d="M924.1,421h-1.4v-12.2h1.5v4.3c0.6-0.8,1.4-1.2,2.4-1.2c0.5,0,1.1,0.1,1.5,0.3c0.5,0.2,0.9,0.5,1.2,0.9
		c0.3,0.4,0.6,0.9,0.7,1.4c0.2,0.6,0.3,1.2,0.3,1.8c0,1.5-0.4,2.7-1.1,3.5c-0.7,0.8-1.6,1.2-2.7,1.2c-1,0-1.9-0.4-2.4-1.3V421z
		 M924.1,416.5c0,1.1,0.1,1.8,0.4,2.3c0.5,0.8,1.1,1.2,1.9,1.2c0.7,0,1.2-0.3,1.7-0.9c0.5-0.6,0.7-1.4,0.7-2.5c0-1.2-0.2-2-0.7-2.5
		c-0.5-0.5-1-0.8-1.7-0.8c-0.7,0-1.2,0.3-1.7,0.9S924.1,415.4,924.1,416.5z"/>
	<path d="M938.2,418.1l1.5,0.2c-0.2,0.9-0.7,1.6-1.4,2.1s-1.5,0.7-2.5,0.7c-1.3,0-2.3-0.4-3.1-1.2c-0.8-0.8-1.1-1.9-1.1-3.3
		c0-1.5,0.4-2.6,1.1-3.5c0.8-0.8,1.8-1.2,3-1.2c1.2,0,2.1,0.4,2.9,1.2c0.7,0.8,1.1,1.9,1.1,3.4c0,0.1,0,0.2,0,0.4h-6.6
		c0.1,1,0.3,1.7,0.8,2.2s1.1,0.8,1.8,0.8c0.5,0,1-0.1,1.4-0.4C937.7,419.2,938,418.7,938.2,418.1z M933.3,415.7h4.9
		c-0.1-0.7-0.3-1.3-0.6-1.7c-0.5-0.6-1.1-0.9-1.9-0.9c-0.7,0-1.3,0.2-1.7,0.7C933.6,414.3,933.4,414.9,933.3,415.7z"/>
	<path d="M949.6,419.6l0.2,1.3c-0.4,0.1-0.8,0.1-1.1,0.1c-0.5,0-1-0.1-1.3-0.3c-0.3-0.2-0.5-0.4-0.6-0.7c-0.1-0.3-0.2-0.9-0.2-1.8
		v-5.1h-1.1v-1.2h1.1V410l1.5-0.9v3.1h1.5v1.2h-1.5v5.2c0,0.4,0,0.7,0.1,0.8c0.1,0.1,0.1,0.2,0.3,0.3c0.1,0.1,0.3,0.1,0.5,0.1
		C949.2,419.7,949.4,419.7,949.6,419.6z"/>
	<path d="M950.6,416.5c0-1.6,0.5-2.8,1.4-3.6c0.8-0.7,1.7-1,2.8-1c1.2,0,2.2,0.4,3,1.2c0.8,0.8,1.2,1.9,1.2,3.3c0,1.1-0.2,2-0.5,2.7
		c-0.3,0.7-0.8,1.2-1.5,1.5c-0.7,0.4-1.4,0.5-2.1,0.5c-1.2,0-2.2-0.4-3-1.2C950.9,419.2,950.6,418,950.6,416.5z M952.1,416.5
		c0,1.1,0.2,2,0.7,2.5c0.5,0.6,1.1,0.8,1.9,0.8c0.7,0,1.4-0.3,1.9-0.8c0.5-0.6,0.7-1.4,0.7-2.6c0-1.1-0.2-1.9-0.7-2.5
		s-1.1-0.8-1.8-0.8c-0.7,0-1.4,0.3-1.9,0.8C952.3,414.6,952.1,415.4,952.1,416.5z"/>
	<path d="M963.2,421l4.7-12.2h1.7l5,12.2h-1.8l-1.4-3.7h-5.1l-1.3,3.7H963.2z M966.7,416h4.1l-1.3-3.4c-0.4-1-0.7-1.9-0.9-2.5
		c-0.2,0.8-0.4,1.6-0.7,2.3L966.7,416z"/>
</g>
<g>
	<path d="M717.6,292.6v1.4h-8c0-0.4,0-0.7,0.2-1c0.2-0.5,0.5-1.1,1-1.6c0.5-0.5,1.1-1.1,2-1.8c1.3-1.1,2.2-1.9,2.7-2.6
		c0.5-0.6,0.7-1.2,0.7-1.8c0-0.6-0.2-1.1-0.6-1.5c-0.4-0.4-1-0.6-1.7-0.6c-0.7,0-1.3,0.2-1.7,0.6s-0.7,1-0.7,1.8l-1.5-0.2
		c0.1-1.1,0.5-2,1.2-2.6c0.7-0.6,1.6-0.9,2.8-0.9c1.2,0,2.1,0.3,2.8,1s1,1.4,1,2.4c0,0.5-0.1,1-0.3,1.4s-0.5,1-1,1.5
		c-0.5,0.5-1.2,1.2-2.3,2.1c-0.9,0.8-1.5,1.3-1.7,1.5c-0.3,0.3-0.5,0.5-0.6,0.8H717.6z"/>
	<path d="M720,294v-1.7h1.7v1.7H720z"/>
	<path d="M728.4,290.5l1.5-0.2c0,0.9,0.2,1.6,0.5,1.9s0.7,0.5,1.3,0.5c0.4,0,0.8-0.1,1-0.3c0.3-0.2,0.5-0.4,0.6-0.8
		c0.1-0.3,0.2-0.8,0.2-1.5v-8.4h1.6v8.3c0,1-0.1,1.8-0.4,2.4c-0.2,0.6-0.6,1-1.2,1.3c-0.5,0.3-1.2,0.4-1.9,0.4
		c-1.1,0-1.9-0.3-2.5-0.9C728.6,292.7,728.4,291.8,728.4,290.5z"/>
	<path d="M737,289.6c0-1.6,0.5-2.8,1.4-3.6c0.8-0.7,1.7-1,2.8-1c1.2,0,2.2,0.4,3,1.2c0.8,0.8,1.2,1.9,1.2,3.3c0,1.1-0.2,2-0.5,2.7
		c-0.3,0.7-0.8,1.2-1.5,1.5c-0.6,0.4-1.4,0.5-2.1,0.5c-1.2,0-2.2-0.4-3-1.2C737.3,292.2,737,291.1,737,289.6z M738.5,289.6
		c0,1.1,0.2,2,0.7,2.5c0.5,0.6,1.1,0.8,1.9,0.8c0.7,0,1.4-0.3,1.9-0.8s0.7-1.4,0.7-2.6c0-1.1-0.2-1.9-0.7-2.5
		c-0.5-0.6-1.1-0.8-1.8-0.8c-0.7,0-1.4,0.3-1.9,0.8S738.5,288.5,738.5,289.6z"/>
	<path d="M747,283.5v-1.7h1.5v1.7H747z M747,294v-8.8h1.5v8.8H747z"/>
	<path d="M750.8,294v-8.8h1.3v1.3c0.6-1,1.6-1.5,2.8-1.5c0.5,0,1,0.1,1.5,0.3c0.4,0.2,0.8,0.4,1,0.8s0.4,0.7,0.5,1.1
		c0.1,0.3,0.1,0.8,0.1,1.5v5.4h-1.5v-5.4c0-0.6-0.1-1.1-0.2-1.4c-0.1-0.3-0.3-0.5-0.6-0.7c-0.3-0.2-0.6-0.3-1-0.3
		c-0.6,0-1.2,0.2-1.6,0.6c-0.5,0.4-0.7,1.2-0.7,2.3v4.8H750.8z"/>
	<path d="M770.7,292.9c-0.6,0.5-1.1,0.8-1.6,1c-0.5,0.2-1.1,0.3-1.6,0.3c-1,0-1.7-0.2-2.2-0.7c-0.5-0.5-0.8-1.1-0.8-1.8
		c0-0.4,0.1-0.8,0.3-1.2c0.2-0.4,0.5-0.6,0.8-0.9c0.3-0.2,0.7-0.4,1.1-0.5c0.3-0.1,0.7-0.2,1.3-0.2c1.2-0.1,2.1-0.3,2.7-0.5
		c0-0.2,0-0.3,0-0.4c0-0.6-0.1-1-0.4-1.3c-0.4-0.3-0.9-0.5-1.7-0.5c-0.7,0-1.2,0.1-1.6,0.4c-0.3,0.2-0.6,0.7-0.7,1.3l-1.5-0.2
		c0.1-0.6,0.4-1.1,0.7-1.5c0.3-0.4,0.7-0.7,1.3-0.9c0.6-0.2,1.2-0.3,2-0.3c0.8,0,1.4,0.1,1.8,0.3s0.8,0.4,1,0.7
		c0.2,0.3,0.4,0.6,0.5,1c0,0.3,0.1,0.7,0.1,1.4v2c0,1.4,0,2.3,0.1,2.6c0.1,0.4,0.2,0.7,0.4,1.1H771
		C770.8,293.7,770.7,293.3,770.7,292.9z M770.6,289.6c-0.5,0.2-1.4,0.4-2.4,0.6c-0.6,0.1-1,0.2-1.3,0.3s-0.5,0.3-0.6,0.5
		c-0.1,0.2-0.2,0.4-0.2,0.7c0,0.4,0.2,0.7,0.5,1c0.3,0.3,0.7,0.4,1.3,0.4c0.6,0,1.1-0.1,1.5-0.4c0.4-0.3,0.8-0.6,1-1
		c0.2-0.3,0.2-0.8,0.2-1.5V289.6z"/>
	<path d="M784.9,290.8l1.5,0.2c-0.2,1-0.6,1.8-1.2,2.4c-0.7,0.6-1.5,0.9-2.4,0.9c-1.2,0-2.2-0.4-2.9-1.2c-0.7-0.8-1.1-1.9-1.1-3.4
		c0-1,0.2-1.8,0.5-2.5s0.8-1.2,1.4-1.6c0.6-0.4,1.3-0.5,2.1-0.5c1,0,1.7,0.2,2.3,0.7c0.6,0.5,1,1.2,1.2,2.1l-1.5,0.2
		c-0.1-0.6-0.4-1-0.7-1.3c-0.4-0.3-0.8-0.4-1.3-0.4c-0.8,0-1.4,0.3-1.8,0.8c-0.5,0.5-0.7,1.4-0.7,2.6c0,1.2,0.2,2,0.7,2.6
		s1,0.8,1.8,0.8c0.6,0,1.1-0.2,1.5-0.5S784.8,291.5,784.9,290.8z"/>
	<path d="M787.6,294v-12.2h1.5v4.4c0.7-0.8,1.6-1.2,2.6-1.2c0.7,0,1.2,0.1,1.7,0.4c0.5,0.3,0.8,0.6,1,1.1c0.2,0.5,0.3,1.1,0.3,2v5.6
		h-1.5v-5.6c0-0.7-0.2-1.3-0.5-1.6c-0.3-0.3-0.8-0.5-1.4-0.5c-0.4,0-0.9,0.1-1.2,0.3c-0.4,0.2-0.7,0.5-0.8,0.9s-0.2,0.9-0.2,1.6v4.8
		H787.6z"/>
	<path d="M802.8,292.9c-0.6,0.5-1.1,0.8-1.6,1c-0.5,0.2-1.1,0.3-1.6,0.3c-1,0-1.7-0.2-2.2-0.7c-0.5-0.5-0.8-1.1-0.8-1.8
		c0-0.4,0.1-0.8,0.3-1.2c0.2-0.4,0.5-0.6,0.8-0.9c0.3-0.2,0.7-0.4,1.1-0.5c0.3-0.1,0.7-0.2,1.3-0.2c1.2-0.1,2.1-0.3,2.7-0.5
		c0-0.2,0-0.3,0-0.4c0-0.6-0.1-1-0.4-1.3c-0.4-0.3-0.9-0.5-1.7-0.5c-0.7,0-1.2,0.1-1.6,0.4c-0.3,0.2-0.6,0.7-0.7,1.3l-1.5-0.2
		c0.1-0.6,0.4-1.1,0.7-1.5c0.3-0.4,0.7-0.7,1.3-0.9c0.6-0.2,1.2-0.3,2-0.3c0.8,0,1.4,0.1,1.8,0.3s0.8,0.4,1,0.7
		c0.2,0.3,0.4,0.6,0.5,1c0,0.3,0.1,0.7,0.1,1.4v2c0,1.4,0,2.3,0.1,2.6c0.1,0.4,0.2,0.7,0.4,1.1h-1.6
		C803,293.7,802.9,293.3,802.8,292.9z M802.7,289.6c-0.5,0.2-1.4,0.4-2.4,0.6c-0.6,0.1-1,0.2-1.3,0.3s-0.5,0.3-0.6,0.5
		c-0.1,0.2-0.2,0.4-0.2,0.7c0,0.4,0.2,0.7,0.5,1c0.3,0.3,0.7,0.4,1.3,0.4c0.6,0,1.1-0.1,1.5-0.4c0.4-0.3,0.8-0.6,1-1
		c0.2-0.3,0.2-0.8,0.2-1.5V289.6z"/>
	<path d="M806.5,294v-8.8h1.3v1.3c0.6-1,1.6-1.5,2.8-1.5c0.5,0,1,0.1,1.5,0.3c0.4,0.2,0.8,0.4,1,0.8s0.4,0.7,0.5,1.1
		c0.1,0.3,0.1,0.8,0.1,1.5v5.4h-1.5v-5.4c0-0.6-0.1-1.1-0.2-1.4c-0.1-0.3-0.3-0.5-0.6-0.7c-0.3-0.2-0.6-0.3-1-0.3
		c-0.6,0-1.2,0.2-1.6,0.6c-0.5,0.4-0.7,1.2-0.7,2.3v4.8H806.5z"/>
	<path d="M816,294v-8.8h1.3v1.3c0.6-1,1.6-1.5,2.8-1.5c0.5,0,1,0.1,1.5,0.3c0.4,0.2,0.8,0.4,1,0.8s0.4,0.7,0.5,1.1
		c0.1,0.3,0.1,0.8,0.1,1.5v5.4h-1.5v-5.4c0-0.6-0.1-1.1-0.2-1.4c-0.1-0.3-0.3-0.5-0.6-0.7c-0.3-0.2-0.6-0.3-1-0.3
		c-0.6,0-1.2,0.2-1.6,0.6c-0.5,0.4-0.7,1.2-0.7,2.3v4.8H816z"/>
	<path d="M831.5,291.2l1.5,0.2c-0.2,0.9-0.7,1.6-1.4,2.1s-1.5,0.7-2.5,0.7c-1.3,0-2.3-0.4-3.1-1.2c-0.8-0.8-1.1-1.9-1.1-3.3
		c0-1.5,0.4-2.6,1.1-3.5s1.8-1.2,3-1.2c1.2,0,2.1,0.4,2.9,1.2s1.1,1.9,1.1,3.4c0,0.1,0,0.2,0,0.4h-6.6c0.1,1,0.3,1.7,0.8,2.2
		s1.1,0.8,1.8,0.8c0.5,0,1-0.1,1.4-0.4S831.2,291.8,831.5,291.2z M826.6,288.7h4.9c-0.1-0.7-0.3-1.3-0.6-1.7
		c-0.5-0.6-1.1-0.9-1.9-0.9c-0.7,0-1.3,0.2-1.7,0.7C826.9,287.4,826.6,288,826.6,288.7z"/>
	<path d="M834.8,294v-12.2h1.5V294H834.8z"/>
</g>
<g>
	<path d="M526.3,133h-1.5v-9.5c-0.4,0.3-0.8,0.7-1.4,1c-0.6,0.3-1.1,0.6-1.6,0.8v-1.4c0.8-0.4,1.6-0.9,2.2-1.4s1.1-1.1,1.3-1.6h1
		V133z"/>
	<path d="M531,133v-1.7h1.7v1.7H531z"/>
	<path d="M539.7,129.1l1.5-0.1c0.1,0.6,0.2,1.1,0.5,1.5c0.3,0.4,0.7,0.7,1.2,0.9c0.6,0.2,1.2,0.4,1.9,0.4c0.6,0,1.2-0.1,1.6-0.3
		s0.8-0.4,1.1-0.8c0.2-0.3,0.3-0.7,0.3-1c0-0.4-0.1-0.7-0.3-1c-0.2-0.3-0.6-0.5-1.1-0.7c-0.3-0.1-1-0.3-2.2-0.6
		c-1.1-0.3-1.9-0.5-2.3-0.8c-0.6-0.3-1-0.7-1.3-1.1c-0.3-0.5-0.4-1-0.4-1.5c0-0.6,0.2-1.2,0.5-1.7c0.3-0.5,0.9-0.9,1.5-1.2
		s1.4-0.4,2.2-0.4c0.9,0,1.7,0.1,2.4,0.4c0.7,0.3,1.2,0.7,1.6,1.3s0.6,1.2,0.6,1.9l-1.5,0.1c-0.1-0.8-0.4-1.4-0.8-1.7
		s-1.2-0.6-2.1-0.6c-1,0-1.7,0.2-2.1,0.5c-0.4,0.4-0.7,0.8-0.7,1.3c0,0.4,0.2,0.8,0.5,1.1c0.3,0.3,1.1,0.6,2.4,0.9
		c1.3,0.3,2.2,0.6,2.7,0.8c0.7,0.3,1.2,0.7,1.6,1.2c0.3,0.5,0.5,1.1,0.5,1.7c0,0.6-0.2,1.3-0.6,1.8c-0.4,0.6-0.9,1-1.6,1.3
		c-0.7,0.3-1.5,0.5-2.3,0.5c-1.1,0-2-0.2-2.8-0.5s-1.3-0.8-1.8-1.4C539.9,130.6,539.7,129.9,539.7,129.1z"/>
	<path d="M557.4,130.2l1.5,0.2c-0.2,0.9-0.7,1.6-1.4,2.1c-0.7,0.5-1.5,0.7-2.5,0.7c-1.3,0-2.3-0.4-3.1-1.2c-0.8-0.8-1.1-1.9-1.1-3.3
		c0-1.5,0.4-2.6,1.1-3.5s1.8-1.2,3-1.2c1.2,0,2.1,0.4,2.9,1.2c0.7,0.8,1.1,1.9,1.1,3.4c0,0.1,0,0.2,0,0.4h-6.6
		c0.1,1,0.3,1.7,0.8,2.2s1.1,0.8,1.8,0.8c0.5,0,1-0.1,1.4-0.4C556.9,131.3,557.2,130.8,557.4,130.2z M552.5,127.7h4.9
		c-0.1-0.7-0.3-1.3-0.6-1.7c-0.5-0.6-1.1-0.9-1.9-0.9c-0.7,0-1.3,0.2-1.7,0.7S552.5,127,552.5,127.7z"/>
	<path d="M564.1,131.7l0.2,1.3c-0.4,0.1-0.8,0.1-1.1,0.1c-0.5,0-1-0.1-1.3-0.3s-0.5-0.4-0.6-0.7c-0.1-0.3-0.2-0.9-0.2-1.8v-5.1H560
		v-1.2h1.1V122l1.5-0.9v3.1h1.5v1.2h-1.5v5.2c0,0.4,0,0.7,0.1,0.8s0.1,0.2,0.3,0.3s0.3,0.1,0.5,0.1
		C563.6,131.7,563.8,131.7,564.1,131.7z"/>
	<path d="M573.5,131.7l0.2,1.3c-0.4,0.1-0.8,0.1-1.1,0.1c-0.5,0-1-0.1-1.3-0.3s-0.5-0.4-0.6-0.7c-0.1-0.3-0.2-0.9-0.2-1.8v-5.1h-1.1
		v-1.2h1.1V122l1.5-0.9v3.1h1.5v1.2H572v5.2c0,0.4,0,0.7,0.1,0.8s0.1,0.2,0.3,0.3s0.3,0.1,0.5,0.1
		C573,131.7,573.3,131.7,573.5,131.7z"/>
	<path d="M575,133v-12.2h1.5v4.4c0.7-0.8,1.6-1.2,2.6-1.2c0.7,0,1.2,0.1,1.7,0.4c0.5,0.3,0.8,0.6,1,1.1c0.2,0.5,0.3,1.1,0.3,2v5.6
		h-1.5v-5.6c0-0.7-0.2-1.3-0.5-1.6c-0.3-0.3-0.8-0.5-1.4-0.5c-0.4,0-0.9,0.1-1.2,0.3c-0.4,0.2-0.7,0.5-0.8,0.9s-0.2,0.9-0.2,1.6v4.8
		H575z"/>
	<path d="M590.5,130.2l1.5,0.2c-0.2,0.9-0.7,1.6-1.4,2.1c-0.7,0.5-1.5,0.7-2.5,0.7c-1.3,0-2.3-0.4-3.1-1.2c-0.8-0.8-1.1-1.9-1.1-3.3
		c0-1.5,0.4-2.6,1.1-3.5s1.8-1.2,3-1.2c1.2,0,2.1,0.4,2.9,1.2c0.7,0.8,1.1,1.9,1.1,3.4c0,0.1,0,0.2,0,0.4h-6.6
		c0.1,1,0.3,1.7,0.8,2.2s1.1,0.8,1.8,0.8c0.5,0,1-0.1,1.4-0.4C589.9,131.3,590.2,130.8,590.5,130.2z M585.6,127.7h4.9
		c-0.1-0.7-0.3-1.3-0.6-1.7c-0.5-0.6-1.1-0.9-1.9-0.9c-0.7,0-1.3,0.2-1.7,0.7S585.6,127,585.6,127.7z"/>
	<path d="M604.4,129.8l1.5,0.2c-0.2,1-0.6,1.8-1.2,2.4c-0.7,0.6-1.5,0.9-2.4,0.9c-1.2,0-2.2-0.4-2.9-1.2c-0.7-0.8-1.1-1.9-1.1-3.4
		c0-1,0.2-1.8,0.5-2.5c0.3-0.7,0.8-1.2,1.4-1.6c0.6-0.4,1.3-0.5,2.1-0.5c1,0,1.7,0.2,2.3,0.7c0.6,0.5,1,1.2,1.2,2.1l-1.5,0.2
		c-0.1-0.6-0.4-1-0.7-1.3s-0.8-0.4-1.3-0.4c-0.8,0-1.4,0.3-1.8,0.8c-0.5,0.5-0.7,1.4-0.7,2.6c0,1.2,0.2,2,0.7,2.6
		c0.5,0.5,1,0.8,1.8,0.8c0.6,0,1.1-0.2,1.5-0.5S604.3,130.5,604.4,129.8z"/>
	<path d="M607.1,133v-12.2h1.5V133H607.1z"/>
	<path d="M610.9,122.5v-1.7h1.5v1.7H610.9z M610.9,133v-8.8h1.5v8.8H610.9z"/>
	<path d="M620.7,130.2l1.5,0.2c-0.2,0.9-0.7,1.6-1.4,2.1c-0.7,0.5-1.5,0.7-2.5,0.7c-1.3,0-2.3-0.4-3.1-1.2c-0.8-0.8-1.1-1.9-1.1-3.3
		c0-1.5,0.4-2.6,1.1-3.5s1.8-1.2,3-1.2c1.2,0,2.1,0.4,2.9,1.2c0.7,0.8,1.1,1.9,1.1,3.4c0,0.1,0,0.2,0,0.4h-6.6
		c0.1,1,0.3,1.7,0.8,2.2s1.1,0.8,1.8,0.8c0.5,0,1-0.1,1.4-0.4C620.2,131.3,620.5,130.8,620.7,130.2z M615.8,127.7h4.9
		c-0.1-0.7-0.3-1.3-0.6-1.7c-0.5-0.6-1.1-0.9-1.9-0.9c-0.7,0-1.3,0.2-1.7,0.7S615.8,127,615.8,127.7z"/>
	<path d="M624.1,133v-8.8h1.3v1.3c0.6-1,1.6-1.5,2.8-1.5c0.5,0,1,0.1,1.5,0.3c0.4,0.2,0.8,0.4,1,0.8s0.4,0.7,0.5,1.1
		c0.1,0.3,0.1,0.8,0.1,1.5v5.4h-1.5v-5.4c0-0.6-0.1-1.1-0.2-1.4c-0.1-0.3-0.3-0.5-0.6-0.7c-0.3-0.2-0.6-0.3-1-0.3
		c-0.6,0-1.2,0.2-1.6,0.6s-0.7,1.2-0.7,2.3v4.8H624.1z"/>
	<path d="M636.8,131.7l0.2,1.3c-0.4,0.1-0.8,0.1-1.1,0.1c-0.5,0-1-0.1-1.3-0.3s-0.5-0.4-0.6-0.7c-0.1-0.3-0.2-0.9-0.2-1.8v-5.1h-1.1
		v-1.2h1.1V122l1.5-0.9v3.1h1.5v1.2h-1.5v5.2c0,0.4,0,0.7,0.1,0.8s0.1,0.2,0.3,0.3s0.3,0.1,0.5,0.1
		C636.4,131.7,636.6,131.7,636.8,131.7z"/>
	<path d="M643,133v-8.8h1.3v1.3c0.3-0.6,0.7-1,1-1.2c0.3-0.2,0.6-0.3,1-0.3c0.5,0,1,0.2,1.5,0.5l-0.5,1.4c-0.4-0.2-0.7-0.3-1.1-0.3
		c-0.3,0-0.6,0.1-0.9,0.3c-0.3,0.2-0.4,0.5-0.6,0.8c-0.2,0.5-0.3,1.1-0.3,1.7v4.6H643z"/>
	<path d="M648.1,128.6c0-1.6,0.5-2.8,1.4-3.6c0.8-0.7,1.7-1,2.8-1c1.2,0,2.2,0.4,3,1.2c0.8,0.8,1.2,1.9,1.2,3.3c0,1.1-0.2,2-0.5,2.7
		c-0.3,0.7-0.8,1.2-1.5,1.5s-1.4,0.5-2.1,0.5c-1.2,0-2.2-0.4-3-1.2S648.1,130.1,648.1,128.6z M649.7,128.6c0,1.1,0.2,2,0.7,2.5
		c0.5,0.6,1.1,0.8,1.9,0.8c0.7,0,1.4-0.3,1.9-0.8c0.5-0.6,0.7-1.4,0.7-2.6c0-1.1-0.2-1.9-0.7-2.5c-0.5-0.6-1.1-0.8-1.8-0.8
		c-0.7,0-1.4,0.3-1.9,0.8S649.7,127.5,649.7,128.6z"/>
	<path d="M658.1,133v-12.2h1.5V133H658.1z"/>
	<path d="M668,130.2l1.5,0.2c-0.2,0.9-0.7,1.6-1.4,2.1c-0.7,0.5-1.5,0.7-2.5,0.7c-1.3,0-2.3-0.4-3.1-1.2c-0.8-0.8-1.1-1.9-1.1-3.3
		c0-1.5,0.4-2.6,1.1-3.5s1.8-1.2,3-1.2c1.2,0,2.1,0.4,2.9,1.2c0.7,0.8,1.1,1.9,1.1,3.4c0,0.1,0,0.2,0,0.4H663c0.1,1,0.3,1.7,0.8,2.2
		s1.1,0.8,1.8,0.8c0.5,0,1-0.1,1.4-0.4C667.4,131.3,667.7,130.8,668,130.2z M663,127.7h4.9c-0.1-0.7-0.3-1.3-0.6-1.7
		c-0.5-0.6-1.1-0.9-1.9-0.9c-0.7,0-1.3,0.2-1.7,0.7S663.1,127,663,127.7z"/>
	<path d="M550.5,152.3c-0.6,0.5-1.1,0.8-1.6,1s-1.1,0.3-1.6,0.3c-1,0-1.7-0.2-2.2-0.7c-0.5-0.5-0.8-1.1-0.8-1.8
		c0-0.4,0.1-0.8,0.3-1.2c0.2-0.4,0.5-0.6,0.8-0.9s0.7-0.4,1.1-0.5c0.3-0.1,0.7-0.2,1.3-0.2c1.2-0.1,2.1-0.3,2.7-0.5
		c0-0.2,0-0.3,0-0.4c0-0.6-0.1-1-0.4-1.3c-0.4-0.3-0.9-0.5-1.7-0.5c-0.7,0-1.2,0.1-1.6,0.4c-0.3,0.2-0.6,0.7-0.7,1.3l-1.5-0.2
		c0.1-0.6,0.4-1.1,0.7-1.5c0.3-0.4,0.7-0.7,1.3-0.9c0.6-0.2,1.2-0.3,2-0.3c0.8,0,1.4,0.1,1.8,0.3c0.5,0.2,0.8,0.4,1,0.7
		c0.2,0.3,0.4,0.6,0.5,1c0,0.3,0.1,0.7,0.1,1.4v2c0,1.4,0,2.3,0.1,2.6c0.1,0.4,0.2,0.7,0.4,1.1h-1.6
		C550.6,153.1,550.5,152.7,550.5,152.3z M550.4,149c-0.5,0.2-1.4,0.4-2.4,0.6c-0.6,0.1-1,0.2-1.3,0.3s-0.5,0.3-0.6,0.5
		c-0.1,0.2-0.2,0.4-0.2,0.7c0,0.4,0.2,0.7,0.5,1s0.7,0.4,1.3,0.4c0.6,0,1.1-0.1,1.5-0.4c0.4-0.3,0.8-0.6,1-1
		c0.2-0.3,0.2-0.8,0.2-1.5V149z"/>
	<path d="M553.6,150.8l1.5-0.2c0.1,0.6,0.3,1,0.7,1.4s0.9,0.5,1.6,0.5c0.7,0,1.2-0.1,1.5-0.4c0.3-0.3,0.5-0.6,0.5-1
		c0-0.3-0.1-0.6-0.4-0.8c-0.2-0.1-0.7-0.3-1.5-0.5c-1.1-0.3-1.9-0.5-2.3-0.7c-0.4-0.2-0.7-0.5-1-0.8c-0.2-0.4-0.3-0.8-0.3-1.2
		c0-0.4,0.1-0.8,0.3-1.1c0.2-0.3,0.4-0.6,0.7-0.8c0.2-0.2,0.5-0.3,1-0.4c0.4-0.1,0.8-0.2,1.3-0.2c0.7,0,1.3,0.1,1.8,0.3
		c0.5,0.2,0.9,0.5,1.2,0.8c0.2,0.3,0.4,0.8,0.5,1.4l-1.5,0.2c-0.1-0.5-0.3-0.8-0.6-1.1s-0.8-0.4-1.3-0.4c-0.7,0-1.2,0.1-1.5,0.3
		s-0.4,0.5-0.4,0.8c0,0.2,0.1,0.4,0.2,0.5c0.1,0.2,0.3,0.3,0.6,0.4c0.1,0.1,0.6,0.2,1.3,0.4c1.1,0.3,1.8,0.5,2.2,0.7
		c0.4,0.2,0.7,0.4,1,0.8s0.4,0.8,0.4,1.3c0,0.5-0.1,1-0.4,1.4c-0.3,0.4-0.7,0.8-1.3,1c-0.5,0.2-1.2,0.4-1.9,0.4
		c-1.1,0-2-0.2-2.6-0.7S553.8,151.7,553.6,150.8z"/>
	<path d="M567.4,153.4v-12.2h1.5v4.4c0.7-0.8,1.6-1.2,2.6-1.2c0.7,0,1.2,0.1,1.7,0.4c0.5,0.3,0.8,0.6,1,1.1c0.2,0.5,0.3,1.1,0.3,2
		v5.6h-1.5v-5.6c0-0.7-0.2-1.3-0.5-1.6c-0.3-0.3-0.8-0.5-1.4-0.5c-0.4,0-0.9,0.1-1.2,0.3c-0.4,0.2-0.7,0.5-0.8,0.9s-0.2,0.9-0.2,1.6
		v4.8H567.4z"/>
	<path d="M576.3,149c0-1.6,0.5-2.8,1.4-3.6c0.8-0.7,1.7-1,2.8-1c1.2,0,2.2,0.4,3,1.2c0.8,0.8,1.2,1.9,1.2,3.3c0,1.1-0.2,2-0.5,2.7
		c-0.3,0.7-0.8,1.2-1.5,1.5s-1.4,0.5-2.1,0.5c-1.2,0-2.2-0.4-3-1.2S576.3,150.5,576.3,149z M577.8,149c0,1.1,0.2,2,0.7,2.5
		c0.5,0.6,1.1,0.8,1.9,0.8c0.7,0,1.4-0.3,1.9-0.8c0.5-0.6,0.7-1.4,0.7-2.6c0-1.1-0.2-1.9-0.7-2.5c-0.5-0.6-1.1-0.8-1.8-0.8
		c-0.7,0-1.4,0.3-1.9,0.8S577.8,147.9,577.8,149z"/>
	<path d="M585.7,150.8l1.5-0.2c0.1,0.6,0.3,1,0.7,1.4s0.9,0.5,1.6,0.5c0.7,0,1.2-0.1,1.5-0.4c0.3-0.3,0.5-0.6,0.5-1
		c0-0.3-0.1-0.6-0.4-0.8c-0.2-0.1-0.7-0.3-1.5-0.5c-1.1-0.3-1.9-0.5-2.3-0.7c-0.4-0.2-0.7-0.5-1-0.8c-0.2-0.4-0.3-0.8-0.3-1.2
		c0-0.4,0.1-0.8,0.3-1.1c0.2-0.3,0.4-0.6,0.7-0.8c0.2-0.2,0.5-0.3,1-0.4c0.4-0.1,0.8-0.2,1.3-0.2c0.7,0,1.3,0.1,1.8,0.3
		c0.5,0.2,0.9,0.5,1.2,0.8c0.2,0.3,0.4,0.8,0.5,1.4l-1.5,0.2c-0.1-0.5-0.3-0.8-0.6-1.1s-0.8-0.4-1.3-0.4c-0.7,0-1.2,0.1-1.5,0.3
		s-0.4,0.5-0.4,0.8c0,0.2,0.1,0.4,0.2,0.5c0.1,0.2,0.3,0.3,0.6,0.4c0.1,0.1,0.6,0.2,1.3,0.4c1.1,0.3,1.8,0.5,2.2,0.7
		c0.4,0.2,0.7,0.4,1,0.8s0.4,0.8,0.4,1.3c0,0.5-0.1,1-0.4,1.4c-0.3,0.4-0.7,0.8-1.3,1c-0.5,0.2-1.2,0.4-1.9,0.4
		c-1.1,0-2-0.2-2.6-0.7S585.9,151.7,585.7,150.8z"/>
	<path d="M598.1,152.1l0.2,1.3c-0.4,0.1-0.8,0.1-1.1,0.1c-0.5,0-1-0.1-1.3-0.3s-0.5-0.4-0.6-0.7c-0.1-0.3-0.2-0.9-0.2-1.8v-5.1H594
		v-1.2h1.1v-2.2l1.5-0.9v3.1h1.5v1.2h-1.5v5.2c0,0.4,0,0.7,0.1,0.8s0.1,0.2,0.3,0.3s0.3,0.1,0.5,0.1
		C597.6,152.1,597.8,152.1,598.1,152.1z"/>
</g>
<g>
	<g>
		<line class="st12" x1="700.1" y1="303.5" x2="996.3" y2="303.5"/>
		<g>
			<polygon points="992.3,309.3 1014,303.5 992.3,297.7 			"/>
		</g>
	</g>
</g>
<g>
	<g>
		<line class="st12" x1="580" y1="161.1" x2="580" y2="197.3"/>
		<g>
			<polygon points="574.2,193.3 580,215 585.8,193.3 			"/>
		</g>
	</g>
</g>
<g>
	<path class="st6" d="M1297.2,370.8v-9.5h-3.4v-1.9h9.1v1.9h-3.4v9.5H1297.2z"/>
	<path class="st6" d="M1304.4,370.8v-11.5h3.5l2.1,7.8l2.1-7.8h3.5v11.5h-2.1v-9l-2.3,9h-2.2l-2.3-9v9H1304.4z"/>
</g>
</svg>