<?xml version="1.0" encoding="us-ascii" standalone="no"?><svg xmlns="http://www.w3.org/2000/svg" xmlns:xlink="http://www.w3.org/1999/xlink" contentStyleType="text/css" height="1143px" preserveAspectRatio="none" style="width:630px;height:1143px;" version="1.1" viewBox="0 0 630 1143" width="630px" zoomAndPan="magnify"><defs/><g><rect fill="none" height="1141.4541" style="stroke:#0A9EFD;stroke-width:1.0;" width="628" x="0" y="0"/><rect fill="#999999" fill-opacity="0.33333" height="1131.4541" style="stroke:#0A9EFD;stroke-width:0.5;" width="89" x="214.5" y="6"/><text fill="#0A9EFD" font-family="sans-serif" font-size="13" font-weight="bold" lengthAdjust="spacing" textLength="62" x="228" y="18.5684">Your app</text><rect fill="#999999" fill-opacity="0.33333" height="1131.4541" style="stroke:#0A9EFD;stroke-width:0.5;" width="80" x="538" y="6"/><text fill="#0A9EFD" font-family="sans-serif" font-size="13" font-weight="bold" lengthAdjust="spacing" textLength="41" x="557.5" y="18.5684">Agora</text><rect fill="#0A9EFD" fill-opacity="0.06667" height="100.8462" style="stroke:#0A9EFD;stroke-width:2.0;" width="374.5" x="208.5" y="132.0474"/><rect fill="#0A9EFD" fill-opacity="0.06667" height="248.4873" style="stroke:#0A9EFD;stroke-width:2.0;" width="614" x="10" y="246.8936"/><rect fill="#0A9EFD" fill-opacity="0.06667" height="117.7437" style="stroke:#0A9EFD;stroke-width:2.0;" width="415.5" x="208.5" y="509.3809"/><rect fill="#0A9EFD" fill-opacity="0.06667" height="174.6924" style="stroke:#0A9EFD;stroke-width:2.0;" width="614" x="10" y="699.022"/><rect fill="#0A9EFD" fill-opacity="0.06667" height="148.6411" style="stroke:#0A9EFD;stroke-width:2.0;" width="614" x="10" y="887.7144"/><line style="stroke:#0A9EFD;stroke-width:0.5;stroke-dasharray:5.0,5.0;" x1="38" x2="38" y1="86.0986" y2="1053.3555"/><line style="stroke:#0A9EFD;stroke-width:0.5;stroke-dasharray:5.0,5.0;" x1="258.5" x2="258.5" y1="86.0986" y2="1053.3555"/><line style="stroke:#0A9EFD;stroke-width:0.5;stroke-dasharray:5.0,5.0;" x1="578" x2="578" y1="86.0986" y2="1053.3555"/><text fill="#0A9EFD" font-family="Arial" font-size="14" lengthAdjust="spacing" textLength="30" x="20" y="83.1318">User</text><ellipse cx="38" cy="16" fill="none" rx="8" ry="8" style="stroke:#0A9EFD;stroke-width:3.0;"/><path d="M38,24 L38,51 M25,32 L51,32 M38,51 L25,66 M38,51 L51,66 " fill="none" style="stroke:#0A9EFD;stroke-width:3.0;"/><text fill="#0A9EFD" font-family="Arial" font-size="14" lengthAdjust="spacing" textLength="30" x="20" y="1065.4873">User</text><ellipse cx="38" cy="1079.4541" fill="none" rx="8" ry="8" style="stroke:#0A9EFD;stroke-width:3.0;"/><path d="M38,1087.4541 L38,1114.4541 M25,1095.4541 L51,1095.4541 M38,1114.4541 L25,1129.4541 M38,1114.4541 L51,1129.4541 " fill="none" style="stroke:#0A9EFD;stroke-width:3.0;"/><rect fill="none" height="30.0986" rx="2.5" ry="2.5" style="stroke:#0A9EFD;stroke-width:2.0;" width="81" x="218.5" y="55"/><text fill="#0A9EFD" font-family="Arial" font-size="14" lengthAdjust="spacing" textLength="67" x="225.5" y="75.1318">Voice SDK</text><rect fill="none" height="30.0986" rx="2.5" ry="2.5" style="stroke:#0A9EFD;stroke-width:2.0;" width="81" x="218.5" y="1052.3555"/><text fill="#0A9EFD" font-family="Arial" font-size="14" lengthAdjust="spacing" textLength="67" x="225.5" y="1072.4873">Voice SDK</text><rect fill="none" height="30.0986" rx="2.5" ry="2.5" style="stroke:#0A9EFD;stroke-width:2.0;" width="72" x="542" y="55"/><text fill="#0A9EFD" font-family="Arial" font-size="14" lengthAdjust="spacing" textLength="58" x="549" y="75.1318">SDRTN&#174;</text><rect fill="none" height="30.0986" rx="2.5" ry="2.5" style="stroke:#0A9EFD;stroke-width:2.0;" width="72" x="542" y="1052.3555"/><text fill="#0A9EFD" font-family="Arial" font-size="14" lengthAdjust="spacing" textLength="58" x="549" y="1072.4873">SDRTN&#174;</text><polygon fill="#0A9EFD" points="247,113.0474,257,117.0474,247,121.0474,251,117.0474" style="stroke:#0A9EFD;stroke-width:1.0;"/><line style="stroke:#0A9EFD;stroke-width:2.0;" x1="38" x2="253" y1="117.0474" y2="117.0474"/><text fill="#0A9EFD" font-family="Arial" font-size="13" lengthAdjust="spacing" textLength="58" x="119.5" y="112.2925">Open App</text><path d="M208.5,132.0474 L500.5,132.0474 L500.5,138.9961 L490.5,148.9961 L208.5,148.9961 L208.5,132.0474 " fill="#EEEEEE" style="stroke:#0A9EFD;stroke-width:1.5;"/><rect fill="none" height="100.8462" style="stroke:#0A9EFD;stroke-width:2.0;" width="374.5" x="208.5" y="132.0474"/><text fill="#000000" font-family="Arial" font-size="13" lengthAdjust="spacing" textLength="247" x="223.5" y="145.2412">Set log file configuration and create engine</text><line style="stroke:#0A9EFD;stroke-width:2.0;" x1="259" x2="301" y1="169.9448" y2="169.9448"/><line style="stroke:#0A9EFD;stroke-width:2.0;" x1="301" x2="301" y1="169.9448" y2="182.9448"/><line style="stroke:#0A9EFD;stroke-width:2.0;" x1="260" x2="301" y1="182.9448" y2="182.9448"/><polygon fill="#0A9EFD" points="270,178.9448,260,182.9448,270,186.9448,266,182.9448" style="stroke:#0A9EFD;stroke-width:1.0;"/><text fill="#0A9EFD" font-family="Arial" font-size="13" lengthAdjust="spacing" textLength="131" x="266" y="165.1899">Set log file parameters</text><line style="stroke:#0A9EFD;stroke-width:2.0;" x1="259" x2="301" y1="211.8936" y2="211.8936"/><line style="stroke:#0A9EFD;stroke-width:2.0;" x1="301" x2="301" y1="211.8936" y2="224.8936"/><line style="stroke:#0A9EFD;stroke-width:2.0;" x1="260" x2="301" y1="224.8936" y2="224.8936"/><polygon fill="#0A9EFD" points="270,220.8936,260,224.8936,270,228.8936,266,224.8936" style="stroke:#0A9EFD;stroke-width:1.0;"/><text fill="#0A9EFD" font-family="Arial" font-size="13" lengthAdjust="spacing" textLength="305" x="266" y="207.1387">Use Voice SK to create an instance of Agora Engine</text><path d="M10,246.8936 L132,246.8936 L132,253.8423 L122,263.8423 L10,263.8423 L10,246.8936 " fill="#EEEEEE" style="stroke:#0A9EFD;stroke-width:1.5;"/><rect fill="none" height="248.4873" style="stroke:#0A9EFD;stroke-width:2.0;" width="614" x="10" y="246.8936"/><text fill="#000000" font-family="Arial" font-size="13" lengthAdjust="spacing" textLength="77" x="25" y="260.0874">Pre-call tests</text><polygon fill="#0A9EFD" points="247,280.791,257,284.791,247,288.791,251,284.791" style="stroke:#0A9EFD;stroke-width:1.0;"/><line style="stroke:#0A9EFD;stroke-width:2.0;" x1="38" x2="253" y1="284.791" y2="284.791"/><text fill="#0A9EFD" font-family="Arial" font-size="13" lengthAdjust="spacing" textLength="108" x="94.5" y="280.0361">Start the echo test</text><polygon fill="#0A9EFD" points="566,309.7397,576,313.7397,566,317.7397,570,313.7397" style="stroke:#0A9EFD;stroke-width:1.0;"/><line style="stroke:#0A9EFD;stroke-width:2.0;" x1="259" x2="572" y1="313.7397" y2="313.7397"/><text fill="#0A9EFD" font-family="Arial" font-size="13" lengthAdjust="spacing" textLength="216" x="310.5" y="308.9849">Call the method to start the echo test</text><polygon fill="#0A9EFD" points="270,368.5859,260,372.5859,270,376.5859,266,372.5859" style="stroke:#0A9EFD;stroke-width:1.0;"/><polygon fill="#0A9EFD" points="566,368.5859,576,372.5859,566,376.5859,570,372.5859" style="stroke:#0A9EFD;stroke-width:1.0;"/><line style="stroke:#0A9EFD;stroke-width:2.0;" x1="264" x2="572" y1="372.5859" y2="372.5859"/><text fill="#0A9EFD" font-family="Arial" font-size="13" lengthAdjust="spacing" textLength="133" x="352" y="337.9336">Send and receive back</text><text fill="#0A9EFD" font-family="Arial" font-size="13" lengthAdjust="spacing" textLength="107" x="367" y="352.8823">audio after a delay</text><text fill="#0A9EFD" font-family="Arial" font-size="13" lengthAdjust="spacing" textLength="209" x="316" y="367.8311">to test hardware and network quality</text><line style="stroke:#0A9EFD;stroke-width:2.0;" x1="259" x2="301" y1="401.5347" y2="401.5347"/><line style="stroke:#0A9EFD;stroke-width:2.0;" x1="301" x2="301" y1="401.5347" y2="414.5347"/><line style="stroke:#0A9EFD;stroke-width:2.0;" x1="260" x2="301" y1="414.5347" y2="414.5347"/><polygon fill="#0A9EFD" points="270,410.5347,260,414.5347,270,418.5347,266,414.5347" style="stroke:#0A9EFD;stroke-width:1.0;"/><text fill="#0A9EFD" font-family="Arial" font-size="13" lengthAdjust="spacing" textLength="161" x="266" y="396.7798">Start the network probe test</text><polygon fill="#0A9EFD" points="566,439.4834,576,443.4834,566,447.4834,570,443.4834" style="stroke:#0A9EFD;stroke-width:1.0;"/><line style="stroke:#0A9EFD;stroke-width:2.0;" x1="259" x2="572" y1="443.4834" y2="443.4834"/><text fill="#0A9EFD" font-family="Arial" font-size="13" lengthAdjust="spacing" textLength="269" x="284" y="438.7285">Call the method to start the network probe test</text><polygon fill="#0A9EFD" points="270,483.3809,260,487.3809,270,491.3809,266,487.3809" style="stroke:#0A9EFD;stroke-width:1.0;"/><line style="stroke:#0A9EFD;stroke-width:2.0;" x1="264" x2="577" y1="487.3809" y2="487.3809"/><text fill="#0A9EFD" font-family="Arial" font-size="13" lengthAdjust="spacing" textLength="167" x="335" y="467.6772">Deliver network quality score</text><text fill="#0A9EFD" font-family="Arial" font-size="13" lengthAdjust="spacing" textLength="127" x="357" y="482.626">and network statistics</text><path d="M208.5,509.3809 L369.5,509.3809 L369.5,516.3296 L359.5,526.3296 L208.5,526.3296 L208.5,509.3809 " fill="#EEEEEE" style="stroke:#0A9EFD;stroke-width:1.5;"/><rect fill="none" height="117.7437" style="stroke:#0A9EFD;stroke-width:2.0;" width="415.5" x="208.5" y="509.3809"/><text fill="#000000" font-family="Arial" font-size="13" lengthAdjust="spacing" textLength="116" x="223.5" y="522.5747">Set the audio profile</text><line style="stroke:#0A9EFD;stroke-width:2.0;" x1="259" x2="301" y1="562.2271" y2="562.2271"/><line style="stroke:#0A9EFD;stroke-width:2.0;" x1="301" x2="301" y1="562.2271" y2="575.2271"/><line style="stroke:#0A9EFD;stroke-width:2.0;" x1="260" x2="301" y1="575.2271" y2="575.2271"/><polygon fill="#0A9EFD" points="270,571.2271,260,575.2271,270,579.2271,266,575.2271" style="stroke:#0A9EFD;stroke-width:1.0;"/><text fill="#0A9EFD" font-family="Arial" font-size="13" lengthAdjust="spacing" textLength="196" x="266" y="542.5234">Specify audio profile and scenario</text><text fill="#0A9EFD" font-family="Arial" font-size="13" lengthAdjust="spacing" textLength="177" x="277.5" y="557.4722">based on the nature of the app</text><polygon fill="#0A9EFD" points="566,615.1245,576,619.1245,566,623.1245,570,619.1245" style="stroke:#0A9EFD;stroke-width:1.0;"/><line style="stroke:#0A9EFD;stroke-width:2.0;" x1="259" x2="572" y1="619.1245" y2="619.1245"/><text fill="#0A9EFD" font-family="Arial" font-size="13" lengthAdjust="spacing" textLength="128" x="354.5" y="599.4209">Call the method to set</text><text fill="#0A9EFD" font-family="Arial" font-size="13" lengthAdjust="spacing" textLength="170" x="335.5" y="614.3696">the audio profile and scenario</text><polygon fill="#0A9EFD" points="247,651.0732,257,655.0732,247,659.0732,251,655.0732" style="stroke:#0A9EFD;stroke-width:1.0;"/><line style="stroke:#0A9EFD;stroke-width:2.0;" x1="38" x2="253" y1="655.0732" y2="655.0732"/><text fill="#0A9EFD" font-family="Arial" font-size="13" lengthAdjust="spacing" textLength="73" x="112" y="650.3184">Join channel</text><polygon fill="#0A9EFD" points="566,680.022,576,684.022,566,688.022,570,684.022" style="stroke:#0A9EFD;stroke-width:1.0;"/><line style="stroke:#0A9EFD;stroke-width:2.0;" x1="259" x2="572" y1="684.022" y2="684.022"/><text fill="#0A9EFD" font-family="Arial" font-size="13" lengthAdjust="spacing" textLength="73" x="382" y="679.2671">Join channel</text><path d="M10,699.022 L178,699.022 L178,705.9707 L168,715.9707 L10,715.9707 L10,699.022 " fill="#EEEEEE" style="stroke:#0A9EFD;stroke-width:1.5;"/><rect fill="none" height="174.6924" style="stroke:#0A9EFD;stroke-width:2.0;" width="614" x="10" y="699.022"/><text fill="#000000" font-family="Arial" font-size="13" lengthAdjust="spacing" textLength="123" x="25" y="712.2158">Monitor in-call quality</text><line style="stroke:#0A9EFD;stroke-width:2.0;" x1="259" x2="301" y1="736.9194" y2="736.9194"/><line style="stroke:#0A9EFD;stroke-width:2.0;" x1="301" x2="301" y1="736.9194" y2="749.9194"/><line style="stroke:#0A9EFD;stroke-width:2.0;" x1="260" x2="301" y1="749.9194" y2="749.9194"/><polygon fill="#0A9EFD" points="270,745.9194,260,749.9194,270,753.9194,266,749.9194" style="stroke:#0A9EFD;stroke-width:1.0;"/><text fill="#0A9EFD" font-family="Arial" font-size="13" lengthAdjust="spacing" textLength="161" x="266" y="732.1646">Enable the quality statistics</text><polygon fill="#0A9EFD" points="270,774.8682,260,778.8682,270,782.8682,266,778.8682" style="stroke:#0A9EFD;stroke-width:1.0;"/><line style="stroke:#0A9EFD;stroke-width:2.0;" x1="264" x2="577" y1="778.8682" y2="778.8682"/><text fill="#0A9EFD" font-family="Arial" font-size="13" lengthAdjust="spacing" textLength="287" x="275" y="774.1133">Recieve network, call, and audio quality statistics</text><polygon fill="#0A9EFD" points="270,803.8169,260,807.8169,270,811.8169,266,807.8169" style="stroke:#0A9EFD;stroke-width:1.0;"/><line style="stroke:#0A9EFD;stroke-width:2.0;" x1="264" x2="577" y1="807.8169" y2="807.8169"/><text fill="#0A9EFD" font-family="Arial" font-size="13" lengthAdjust="spacing" textLength="200" x="318.5" y="803.062">Recieve state change notifications</text><polygon fill="#0A9EFD" points="49,832.7656,39,836.7656,49,840.7656,45,836.7656" style="stroke:#0A9EFD;stroke-width:1.0;"/><line style="stroke:#0A9EFD;stroke-width:2.0;" x1="43" x2="258" y1="836.7656" y2="836.7656"/><text fill="#0A9EFD" font-family="Arial" font-size="13" lengthAdjust="spacing" textLength="85" x="106" y="832.0107">Notify the user</text><polygon fill="#0A9EFD" points="566,861.7144,576,865.7144,566,869.7144,570,865.7144" style="stroke:#0A9EFD;stroke-width:1.0;"/><line style="stroke:#0A9EFD;stroke-width:2.0;" x1="259" x2="572" y1="865.7144" y2="865.7144"/><text fill="#0A9EFD" font-family="Arial" font-size="13" lengthAdjust="spacing" textLength="129" x="354" y="860.9595">Take corrective action</text><path d="M10,887.7144 L158,887.7144 L158,894.6631 L148,904.6631 L10,904.6631 L10,887.7144 " fill="#EEEEEE" style="stroke:#0A9EFD;stroke-width:1.5;"/><rect fill="none" height="148.6411" style="stroke:#0A9EFD;stroke-width:2.0;" width="614" x="10" y="887.7144"/><text fill="#000000" font-family="Arial" font-size="13" lengthAdjust="spacing" textLength="103" x="25" y="900.9082">Echo cancellation</text><polygon fill="#0A9EFD" points="247,936.5605,257,940.5605,247,944.5605,251,940.5605" style="stroke:#0A9EFD;stroke-width:1.0;"/><line style="stroke:#0A9EFD;stroke-width:2.0;" x1="38" x2="253" y1="940.5605" y2="940.5605"/><text fill="#0A9EFD" font-family="Arial" font-size="13" lengthAdjust="spacing" textLength="197" x="50" y="920.8569">Choose the audio file to be played</text><text fill="#0A9EFD" font-family="Arial" font-size="13" lengthAdjust="spacing" textLength="155" x="73" y="935.8057">and specify mixing options</text><polygon fill="#0A9EFD" points="566,980.458,576,984.458,566,988.458,570,984.458" style="stroke:#0A9EFD;stroke-width:1.0;"/><line style="stroke:#0A9EFD;stroke-width:2.0;" x1="259" x2="572" y1="984.458" y2="984.458"/><text fill="#0A9EFD" font-family="Arial" font-size="13" lengthAdjust="spacing" textLength="106" x="363.5" y="964.7544">Call the method to</text><text fill="#0A9EFD" font-family="Arial" font-size="13" lengthAdjust="spacing" textLength="103" x="367" y="979.7031">start audio mixing</text><polygon fill="#0A9EFD" points="270,1024.3555,260,1028.3555,270,1032.3555,266,1028.3555" style="stroke:#0A9EFD;stroke-width:1.0;"/><line style="stroke:#0A9EFD;stroke-width:2.0;" x1="264" x2="577" y1="1028.3555" y2="1028.3555"/><text fill="#0A9EFD" font-family="Arial" font-size="13" lengthAdjust="spacing" textLength="135" x="349" y="1008.6519">Uses echo-cancellation</text><text fill="#0A9EFD" font-family="Arial" font-size="13" lengthAdjust="spacing" textLength="141" x="348" y="1023.6006">features to remove echo</text><!--SRC=[bLJDRXen4BxlKqmvX-IEgaeeS4YZfWYIIfMGgi4xkunOF5lRIy9BzI7wP1rxWU3ygErrxUzlvlD-O6kQhYIulBpQSKaozENc2cjn-CDls5vojssA0aqG1uC7Jsu0wE5XCI-AbJp1uBjq3h1j1qMBBh3X5cs0mJTXGx2OtARhuzci85k28WwmSLHuWLbCvlTtltyT43VF25M3uQV8CeAlBLaOjsrHr4ww5XOKe94QAcu8ZDYAwyvXOB60YZUEC12GhTbIeGmdeWoeFd1BWPpFxcXUE2IvXI17DhJ0rWUqUY0Lf2mmxINKzD7QpD7GODD081zybc8HD3Y4jJepQqaNdeLlHd2TO7gifjPIHct_3kJZ4RE8yugP7HdY7S4ApMQfO-XA5i1Aqm52IGtkzMleAM2Dhdn4HmbfAJoAsy3F3XiE-tnU9_tZhTR9YlxJ-vlOcvF8X1frxbuQ0M_4qT9c9fKqiDVw-FEXnxL6eJwroiJzva5QCbpjynk9sHkow5XKQ8MUIj0I9TCOEfTMdPYrV7_BIs5fNzl8H7hJvwNuB6p1hD5QQZA5xE2GyujOZc-IRT-njrOsjRXIrUZZDCZdePtFVQuZeTrfFHSGEI-Itpx1F-BZCIMhjP99u8fDUeodTwM1Ht0NJ_R9MAU_b2piFMxYGtRQuX1RhByUnP-lU1hxR-BhQvf4datnUYtYwMpuQVAw5ErRgzsdyj0ZV-Z1bf_OrY1jvlEzrIvjN-QUkyTcez1_XazFT7XkKN4LfHhvoE9eAxl-9QTaVm00]--></g></svg>