<?xml version="1.0" encoding="us-ascii" standalone="no"?><svg xmlns="http://www.w3.org/2000/svg" xmlns:xlink="http://www.w3.org/1999/xlink" contentStyleType="text/css" height="529px" preserveAspectRatio="none" style="width:562px;height:529px;" version="1.1" viewBox="0 0 562 529" width="562px" zoomAndPan="magnify"><defs/><g><rect fill="none" height="527.582" style="stroke:#0A9EFD;stroke-width:1.0;" width="560.5" x="0" y="0"/><rect fill="#999999" fill-opacity="0.33333" height="517.582" style="stroke:#0A9EFD;stroke-width:0.5;" width="136" x="159" y="6"/><text fill="#0A9EFD" font-family="sans-serif" font-size="13" font-weight="bold" lengthAdjust="spacing" textLength="130" x="162" y="19.4951">Implemented by you</text><rect fill="#999999" fill-opacity="0.33333" height="517.582" style="stroke:#0A9EFD;stroke-width:0.5;" width="124" x="432.5" y="6"/><text fill="#0A9EFD" font-family="sans-serif" font-size="13" font-weight="bold" lengthAdjust="spacing" textLength="118" x="435.5" y="19.4951">Provided by Agora</text><rect fill="#0A9EFD" fill-opacity="0.06667" height="188.6411" style="stroke:#0A9EFD;stroke-width:2.0;" width="340" x="197.5" y="132.0474"/><line style="stroke:#0A9EFD;stroke-width:0.5;stroke-dasharray:5.0,5.0;" x1="22" x2="22" y1="86.0986" y2="439.4834"/><line style="stroke:#0A9EFD;stroke-width:0.5;stroke-dasharray:5.0,5.0;" x1="226.5" x2="226.5" y1="86.0986" y2="439.4834"/><line style="stroke:#0A9EFD;stroke-width:0.5;stroke-dasharray:5.0,5.0;" x1="494.5" x2="494.5" y1="86.0986" y2="439.4834"/><text fill="#0A9EFD" font-family="Arial" font-size="14" lengthAdjust="spacing" textLength="29" x="5" y="83.1318">User</text><ellipse cx="22.5" cy="16" fill="none" rx="8" ry="8" style="stroke:#0A9EFD;stroke-width:3.0;"/><path d="M22.5,24 L22.5,51 M9.5,32 L35.5,32 M22.5,51 L9.5,66 M22.5,51 L35.5,66 " fill="none" style="stroke:#0A9EFD;stroke-width:3.0;"/><text fill="#0A9EFD" font-family="Arial" font-size="14" lengthAdjust="spacing" textLength="29" x="5" y="451.6152">User</text><ellipse cx="22.5" cy="465.582" fill="none" rx="8" ry="8" style="stroke:#0A9EFD;stroke-width:3.0;"/><path d="M22.5,473.582 L22.5,500.582 M9.5,481.582 L35.5,481.582 M22.5,500.582 L9.5,515.582 M22.5,500.582 L35.5,515.582 " fill="none" style="stroke:#0A9EFD;stroke-width:3.0;"/><rect fill="none" height="30.0986" rx="2.5" ry="2.5" style="stroke:#0A9EFD;stroke-width:2.0;" width="39" x="207.5" y="55"/><text fill="#0A9EFD" font-family="Arial" font-size="14" lengthAdjust="spacing" textLength="25" x="214.5" y="75.1318">App</text><rect fill="none" height="30.0986" rx="2.5" ry="2.5" style="stroke:#0A9EFD;stroke-width:2.0;" width="39" x="207.5" y="438.4834"/><text fill="#0A9EFD" font-family="Arial" font-size="14" lengthAdjust="spacing" textLength="25" x="214.5" y="458.6152">App</text><rect fill="none" height="30.0986" rx="2.5" ry="2.5" style="stroke:#0A9EFD;stroke-width:2.0;" width="66" x="461.5" y="55"/><text fill="#0A9EFD" font-family="Arial" font-size="14" lengthAdjust="spacing" textLength="52" x="468.5" y="75.1318">SD-RTN</text><rect fill="none" height="30.0986" rx="2.5" ry="2.5" style="stroke:#0A9EFD;stroke-width:2.0;" width="66" x="461.5" y="438.4834"/><text fill="#0A9EFD" font-family="Arial" font-size="14" lengthAdjust="spacing" textLength="52" x="468.5" y="458.6152">SD-RTN</text><polygon fill="#0A9EFD" points="215,113.0474,225,117.0474,215,121.0474,219,117.0474" style="stroke:#0A9EFD;stroke-width:1.0;"/><line style="stroke:#0A9EFD;stroke-width:2.0;" x1="22.5" x2="221" y1="117.0474" y2="117.0474"/><text fill="#0A9EFD" font-family="Arial" font-size="13" lengthAdjust="spacing" textLength="75" x="87.25" y="112.2925">Start the app</text><path d="M197.5,132.0474 L307.5,132.0474 L307.5,138.9961 L297.5,148.9961 L197.5,148.9961 L197.5,132.0474 " fill="#EEEEEE" style="stroke:#0A9EFD;stroke-width:1.5;"/><rect fill="none" height="188.6411" style="stroke:#0A9EFD;stroke-width:2.0;" width="340" x="197.5" y="132.0474"/><text fill="#000000" font-family="Arial" font-size="13" lengthAdjust="spacing" textLength="65" x="212.5" y="145.2412">Geofencing</text><line style="stroke:#0A9EFD;stroke-width:2.0;" x1="227" x2="269" y1="184.8936" y2="184.8936"/><line style="stroke:#0A9EFD;stroke-width:2.0;" x1="269" x2="269" y1="184.8936" y2="197.8936"/><line style="stroke:#0A9EFD;stroke-width:2.0;" x1="228" x2="269" y1="197.8936" y2="197.8936"/><polygon fill="#0A9EFD" points="238,193.8936,228,197.8936,238,201.8936,234,197.8936" style="stroke:#0A9EFD;stroke-width:1.0;"/><text fill="#0A9EFD" font-family="Arial" font-size="13" lengthAdjust="spacing" textLength="184" x="234" y="165.1899">Set SD-RTN region in the Agora</text><text fill="#0A9EFD" font-family="Arial" font-size="13" lengthAdjust="spacing" textLength="115" x="270.5" y="180.1387">engine configuration</text><line style="stroke:#0A9EFD;stroke-width:2.0;" x1="227" x2="269" y1="226.8423" y2="226.8423"/><line style="stroke:#0A9EFD;stroke-width:2.0;" x1="269" x2="269" y1="226.8423" y2="239.8423"/><line style="stroke:#0A9EFD;stroke-width:2.0;" x1="228" x2="269" y1="239.8423" y2="239.8423"/><polygon fill="#0A9EFD" points="238,235.8423,228,239.8423,238,243.8423,234,239.8423" style="stroke:#0A9EFD;stroke-width:1.0;"/><text fill="#0A9EFD" font-family="Arial" font-size="13" lengthAdjust="spacing" textLength="140" x="234" y="222.0874">Initiate the Agora engine</text><polygon fill="#0A9EFD" points="482.5,279.7397,492.5,283.7397,482.5,287.7397,486.5,283.7397" style="stroke:#0A9EFD;stroke-width:1.0;"/><line style="stroke:#0A9EFD;stroke-width:2.0;" x1="227" x2="488.5" y1="283.7397" y2="283.7397"/><text fill="#0A9EFD" font-family="Arial" font-size="13" lengthAdjust="spacing" textLength="139" x="291.25" y="264.0361">Connect to SD-RTN in a</text><text fill="#0A9EFD" font-family="Arial" font-size="13" lengthAdjust="spacing" textLength="83" x="321.25" y="278.9849">specific region</text><polygon fill="#0A9EFD" points="238,308.6885,228,312.6885,238,316.6885,234,312.6885" style="stroke:#0A9EFD;stroke-width:1.0;"/><line style="stroke:#0A9EFD;stroke-width:2.0;" x1="232" x2="493.5" y1="312.6885" y2="312.6885"/><text fill="#0A9EFD" font-family="Arial" font-size="13" lengthAdjust="spacing" textLength="108" x="306.75" y="307.9336">Success response</text><polygon fill="#0A9EFD" points="215,344.6372,225,348.6372,215,352.6372,219,348.6372" style="stroke:#0A9EFD;stroke-width:1.0;"/><line style="stroke:#0A9EFD;stroke-width:2.0;" x1="22.5" x2="221" y1="348.6372" y2="348.6372"/><text fill="#0A9EFD" font-family="Arial" font-size="13" lengthAdjust="spacing" textLength="136" x="56.75" y="343.8823">Select a channel to join</text><polygon fill="#0A9EFD" points="482.5,388.5347,492.5,392.5347,482.5,396.5347,486.5,392.5347" style="stroke:#0A9EFD;stroke-width:1.0;"/><line style="stroke:#0A9EFD;stroke-width:2.0;" x1="227" x2="488.5" y1="392.5347" y2="392.5347"/><text fill="#0A9EFD" font-family="Arial" font-size="13" lengthAdjust="spacing" textLength="139" x="289.25" y="372.8311">Join a channel with user</text><text fill="#0A9EFD" font-family="Arial" font-size="13" lengthAdjust="spacing" textLength="164" x="278.75" y="387.7798">Id, channel name, and token</text><polygon fill="#0A9EFD" points="238,417.4834,228,421.4834,238,425.4834,234,421.4834" style="stroke:#0A9EFD;stroke-width:1.0;"/><line style="stroke:#0A9EFD;stroke-width:2.0;" x1="232" x2="493.5" y1="421.4834" y2="421.4834"/><text fill="#0A9EFD" font-family="Arial" font-size="13" lengthAdjust="spacing" textLength="80" x="320.75" y="416.7285">Join accepted</text><!--SRC=[NP7BRi8m44Nt_effrj0FO549jLALBYe4POTK6MS80ycCvKSBVzynf4ImJUwvvzf-8dPTRX1iAy5-noFnC-M-CyQw906gTSHGWOsmNYsDsSe9ghht7VR82HlOdk4ikJBUXaIElEK4rTpx2p9VB0ooXkGqe8iWFzHSkNanFf2hj-dowtE0wn5MEKnVIk4CLaa9I7lTxBqnRP3iuHrbX-o8MwEXCOi9hfqGi2LX8BwW5_c60RabHd32Esfpi4apTmqrKoARSAG6PapLCtWLPdIwIlvrwYdzqQEZ7Rb1hr0zZilEOOpwAthXYEMu3qV5hhHQS7khWgxq7uJuplqXnNMB_5BQGzPNWmtNpUJsdMsF4x1weqcEUB_aMg5hlBwf-GC0]--></g></svg>