<svg xmlns="http://www.w3.org/2000/svg" xmlns:xlink="http://www.w3.org/1999/xlink" contentStyleType="text/css" data-diagram-type="SEQUENCE" height="736px" preserveAspectRatio="none" style="width:550px;height:736px;" version="1.1" viewBox="0 0 550 736" width="550px" zoomAndPan="magnify"><?plantuml 1.2026.4?><defs/><g><rect fill="none" height="734.3257" style="stroke:#0A9EFD;stroke-width:1;" width="548.3269" x="0" y="0"/><rect fill="#999999" fill-opacity="0.33333" height="723.3257" style="stroke:#0A9EFD;stroke-width:0.5;" width="89.6963" x="123.1846" y="6"/><text fill="#0A9EFD" font-family="sans-serif" font-size="13" font-weight="700" lengthAdjust="spacing" textLength="56.3354" x="139.865" y="19.4951">Your app</text><rect fill="#999999" fill-opacity="0.33333" height="723.3257" style="stroke:#0A9EFD;stroke-width:0.5;" width="78.3257" x="450.0012" y="6"/><text fill="#0A9EFD" font-family="sans-serif" font-size="13" font-weight="700" lengthAdjust="spacing" textLength="37.5591" x="470.3845" y="19.4951">Agora</text><rect fill="#0A9EFD" fill-opacity="0.06667" height="58.8975" style="stroke:#0A9EFD;stroke-width:2;" width="251.9561" x="117.1846" y="173.9961"/><rect fill="#0A9EFD" fill-opacity="0.06667" height="174.6924" style="stroke:#0A9EFD;stroke-width:2;" width="524.3269" x="10" y="246.8936"/><rect fill="#0A9EFD" fill-opacity="0.06667" height="74.8462" style="stroke:#0A9EFD;stroke-width:2;" width="417.1423" x="117.1846" y="435.5859"/><rect fill="#0A9EFD" fill-opacity="0.06667" height="103.7949" style="stroke:#0A9EFD;stroke-width:2;" width="524.3269" x="10" y="524.4321"/><g class="participant-lifeline" data-entity-uid="part1" data-qualified-name="USR" data-source-line="3" id="part1-lifeline"><g><title>User</title><rect fill="#000000" fill-opacity="0.00000" height="559.1284" width="8" x="33.7793" y="86.0986"/><line style="stroke:#0A9EFD;stroke-width:0.5;stroke-dasharray:5,5;" x1="37" x2="37" y1="86.0986" y2="645.2271"/></g></g><g class="participant-lifeline" data-entity-uid="part2" data-qualified-name="APP" data-source-line="6" id="part2-lifeline"><g><title>Voice SDK</title><rect fill="#000000" fill-opacity="0.00000" height="559.1284" width="8" x="164.0327" y="86.0986"/><line style="stroke:#0A9EFD;stroke-width:0.5;stroke-dasharray:5,5;" x1="167.1846" x2="167.1846" y1="86.0986" y2="645.2271"/></g></g><g class="participant-lifeline" data-entity-uid="part3" data-qualified-name="API" data-source-line="10" id="part3-lifeline"><g><title>SDRTN.sup....sup.</title><rect fill="#000000" fill-opacity="0.00000" height="559.1284" width="8" x="485.1641" y="86.0986"/><line style="stroke:#0A9EFD;stroke-width:0.5;stroke-dasharray:5,5;" x1="489.0012" x2="489.0012" y1="86.0986" y2="645.2271"/></g></g><g class="participant participant-head" data-entity-uid="part1" data-qualified-name="USR" data-source-line="3" id="part1-head"><text fill="#0A9EFD" font-family="Arial" font-size="14" lengthAdjust="spacing" textLength="29.5586" x="20" y="83.1318">User</text><ellipse cx="37.7793" cy="16" fill="none" rx="8" ry="8" style="stroke:#0A9EFD;stroke-width:3;"/><path d="M37.7793,24 L37.7793,51 M24.7793,32 L50.7793,32 M37.7793,51 L24.7793,66 M37.7793,51 L50.7793,66" fill="none" style="stroke:#0A9EFD;stroke-width:3;"/></g><g class="participant participant-tail" data-entity-uid="part1" data-qualified-name="USR" data-source-line="3" id="part1-tail"><text fill="#0A9EFD" font-family="Arial" font-size="14" lengthAdjust="spacing" textLength="29.5586" x="20" y="657.3589">User</text><ellipse cx="37.7793" cy="671.3257" fill="none" rx="8" ry="8" style="stroke:#0A9EFD;stroke-width:3;"/><path d="M37.7793,679.3257 L37.7793,706.3257 M24.7793,687.3257 L50.7793,687.3257 M37.7793,706.3257 L24.7793,721.3257 M37.7793,706.3257 L50.7793,721.3257" fill="none" style="stroke:#0A9EFD;stroke-width:3;"/></g><g class="participant participant-head" data-entity-uid="part2" data-qualified-name="APP" data-source-line="6" id="part2-head"><rect fill="none" height="30.0986" rx="2.5" ry="2.5" style="stroke:#0A9EFD;stroke-width:2;" width="81.6963" x="127.1846" y="55"/><text fill="#0A9EFD" font-family="Arial" font-size="14" lengthAdjust="spacing" textLength="67.6963" x="134.1846" y="75.1318">Voice SDK</text></g><g class="participant participant-tail" data-entity-uid="part2" data-qualified-name="APP" data-source-line="6" id="part2-tail"><rect fill="none" height="30.0986" rx="2.5" ry="2.5" style="stroke:#0A9EFD;stroke-width:2;" width="81.6963" x="127.1846" y="644.2271"/><text fill="#0A9EFD" font-family="Arial" font-size="14" lengthAdjust="spacing" textLength="67.6963" x="134.1846" y="664.3589">Voice SDK</text></g><g class="participant participant-head" data-entity-uid="part3" data-qualified-name="API" data-source-line="10" id="part3-head"><rect fill="none" height="32.6489" rx="2.5" ry="2.5" style="stroke:#0A9EFD;stroke-width:2;" width="70.3257" x="454.0012" y="52.4497"/><text fill="#0A9EFD" font-family="Arial" font-size="14" lengthAdjust="spacing" textLength="48.2207" x="461.0012" y="75.1318">SDRTN</text><text fill="#0A9EFD" font-family="Arial" font-size="11" lengthAdjust="spacing" textLength="8.105" x="509.2219" y="69.7676">&#174;</text></g><g class="participant participant-tail" data-entity-uid="part3" data-qualified-name="API" data-source-line="10" id="part3-tail"><rect fill="none" height="32.6489" rx="2.5" ry="2.5" style="stroke:#0A9EFD;stroke-width:2;" width="70.3257" x="454.0012" y="644.2271"/><text fill="#0A9EFD" font-family="Arial" font-size="14" lengthAdjust="spacing" textLength="48.2207" x="461.0012" y="666.9092">SDRTN</text><text fill="#0A9EFD" font-family="Arial" font-size="11" lengthAdjust="spacing" textLength="8.105" x="509.2219" y="661.5449">&#174;</text></g><g class="message" data-entity-1="part1" data-entity-2="part2" data-source-line="13" id="msg1"><polygon fill="#0A9EFD" points="156.0327,113.0474,166.0327,117.0474,156.0327,121.0474,160.0327,117.0474" style="stroke:#0A9EFD;stroke-width:1;stroke-linejoin:miter;stroke-miterlimit:10;"/><line style="stroke:#0A9EFD;stroke-width:2;" x1="37.7793" x2="162.0327" y1="117.0474" y2="117.0474"/><text fill="#0A9EFD" font-family="Arial" font-size="13" lengthAdjust="spacing" textLength="58.5444" x="73.6338" y="112.2925">Open App</text></g><g class="message" data-entity-1="part2" data-entity-2="part2" data-source-line="14" id="msg2"><line style="stroke:#0A9EFD;stroke-width:2;" x1="168.0327" x2="210.0327" y1="145.9961" y2="145.9961"/><line style="stroke:#0A9EFD;stroke-width:2;" x1="210.0327" x2="210.0327" y1="145.9961" y2="158.9961"/><line style="stroke:#0A9EFD;stroke-width:2;" x1="169.0327" x2="210.0327" y1="158.9961" y2="158.9961"/><polygon fill="#0A9EFD" points="179.0327,154.9961,169.0327,158.9961,179.0327,162.9961,175.0327,158.9961" style="stroke:#0A9EFD;stroke-width:1;stroke-linejoin:miter;stroke-miterlimit:10;"/><text fill="#0A9EFD" font-family="Arial" font-size="13" lengthAdjust="spacing" textLength="307.1313" x="175.0327" y="141.2412">Create an instance of Agora Engine using Voice SDK</text></g><path d="M117.1846,173.9961 L316.1089,173.9961 L316.1089,180.9448 L306.1089,190.9448 L117.1846,190.9448 L117.1846,173.9961" fill="#EEEEEE" style="stroke:#0A9EFD;stroke-width:1.5;"/><rect fill="none" height="58.8975" style="stroke:#0A9EFD;stroke-width:2;" width="251.9561" x="117.1846" y="173.9961"/><text fill="#000000" font-family="Arial" font-size="13" lengthAdjust="spacing" textLength="153.9243" x="132.1846" y="187.1899">Setup raw data processing</text><g class="message" data-entity-1="part2" data-entity-2="part2" data-source-line="17" id="msg3"><line style="stroke:#0A9EFD;stroke-width:2;" x1="168.0327" x2="210.0327" y1="211.8936" y2="211.8936"/><line style="stroke:#0A9EFD;stroke-width:2;" x1="210.0327" x2="210.0327" y1="211.8936" y2="224.8936"/><line style="stroke:#0A9EFD;stroke-width:2;" x1="169.0327" x2="210.0327" y1="224.8936" y2="224.8936"/><polygon fill="#0A9EFD" points="179.0327,220.8936,169.0327,224.8936,179.0327,228.8936,175.0327,224.8936" style="stroke:#0A9EFD;stroke-width:1;stroke-linejoin:miter;stroke-miterlimit:10;"/><text fill="#0A9EFD" font-family="Arial" font-size="13" lengthAdjust="spacing" textLength="182.1079" x="175.0327" y="207.1387">Setup the audio frame observer</text></g><path d="M10,246.8936 L78.8481,246.8936 L78.8481,253.8423 L68.8481,263.8423 L10,263.8423 L10,246.8936" fill="#EEEEEE" style="stroke:#0A9EFD;stroke-width:1.5;"/><rect fill="none" height="174.6924" style="stroke:#0A9EFD;stroke-width:2;" width="524.3269" x="10" y="246.8936"/><text fill="#000000" font-family="Arial" font-size="13" lengthAdjust="spacing" textLength="23.8481" x="25" y="260.0874">Join</text><g class="message" data-entity-1="part1" data-entity-2="part2" data-source-line="21" id="msg4"><polygon fill="#0A9EFD" points="156.0327,280.791,166.0327,284.791,156.0327,288.791,160.0327,284.791" style="stroke:#0A9EFD;stroke-width:1;stroke-linejoin:miter;stroke-miterlimit:10;"/><line style="stroke:#0A9EFD;stroke-width:2;" x1="37.7793" x2="162.0327" y1="284.791" y2="284.791"/><text fill="#0A9EFD" font-family="Arial" font-size="13" lengthAdjust="spacing" textLength="83.8398" x="60.9861" y="280.0361">Join a channel</text></g><g class="message" data-entity-1="part2" data-entity-2="part3" data-source-line="22" id="msg5"><polygon fill="#0A9EFD" points="477.1641,309.7397,487.1641,313.7397,477.1641,317.7397,481.1641,313.7397" style="stroke:#0A9EFD;stroke-width:1;stroke-linejoin:miter;stroke-miterlimit:10;"/><line style="stroke:#0A9EFD;stroke-width:2;" x1="168.0327" x2="483.1641" y1="313.7397" y2="313.7397"/><text fill="#0A9EFD" font-family="Arial" font-size="13" lengthAdjust="spacing" textLength="196.5425" x="230.3271" y="308.9849">Register the audio frame observer</text></g><g class="message" data-entity-1="part2" data-entity-2="part3" data-source-line="23" id="msg6"><polygon fill="#0A9EFD" points="477.1641,338.6885,487.1641,342.6885,477.1641,346.6885,481.1641,342.6885" style="stroke:#0A9EFD;stroke-width:1;stroke-linejoin:miter;stroke-miterlimit:10;"/><line style="stroke:#0A9EFD;stroke-width:2;" x1="168.0327" x2="483.1641" y1="342.6885" y2="342.6885"/><text fill="#0A9EFD" font-family="Arial" font-size="13" lengthAdjust="spacing" textLength="161.1353" x="248.0308" y="337.9336">Set audio frame parameters</text></g><g class="message" data-entity-1="part2" data-entity-2="part2" data-source-line="24" id="msg7"><line style="stroke:#0A9EFD;stroke-width:2;" x1="168.0327" x2="210.0327" y1="371.6372" y2="371.6372"/><line style="stroke:#0A9EFD;stroke-width:2;" x1="210.0327" x2="210.0327" y1="371.6372" y2="384.6372"/><line style="stroke:#0A9EFD;stroke-width:2;" x1="169.0327" x2="210.0327" y1="384.6372" y2="384.6372"/><polygon fill="#0A9EFD" points="179.0327,380.6372,169.0327,384.6372,179.0327,388.6372,175.0327,384.6372" style="stroke:#0A9EFD;stroke-width:1;stroke-linejoin:miter;stroke-miterlimit:10;"/><text fill="#0A9EFD" font-family="Arial" font-size="13" lengthAdjust="spacing" textLength="266.6777" x="175.0327" y="366.8823">Retrieve authentication token to join a channel</text></g><g class="message" data-entity-1="part2" data-entity-2="part3" data-source-line="25" id="msg8"><polygon fill="#0A9EFD" points="477.1641,409.5859,487.1641,413.5859,477.1641,417.5859,481.1641,413.5859" style="stroke:#0A9EFD;stroke-width:1;stroke-linejoin:miter;stroke-miterlimit:10;"/><line style="stroke:#0A9EFD;stroke-width:2;" x1="168.0327" x2="483.1641" y1="413.5859" y2="413.5859"/><text fill="#0A9EFD" font-family="Arial" font-size="13" lengthAdjust="spacing" textLength="94.6816" x="281.2576" y="408.8311">Join the channel</text></g><path d="M117.1846,435.5859 L298.0371,435.5859 L298.0371,442.5347 L288.0371,452.5347 L117.1846,452.5347 L117.1846,435.5859" fill="#EEEEEE" style="stroke:#0A9EFD;stroke-width:1.5;"/><rect fill="none" height="74.8462" style="stroke:#0A9EFD;stroke-width:2;" width="417.1423" x="117.1846" y="435.5859"/><text fill="#000000" font-family="Arial" font-size="13" lengthAdjust="spacing" textLength="135.8525" x="132.1846" y="448.7798">Process raw audio data</text><g class="message" data-entity-1="part3" data-entity-2="part2" data-source-line="29" id="msg9"><polygon fill="#0A9EFD" points="179.0327,469.4834,169.0327,473.4834,179.0327,477.4834,175.0327,473.4834" style="stroke:#0A9EFD;stroke-width:1;stroke-linejoin:miter;stroke-miterlimit:10;"/><line style="stroke:#0A9EFD;stroke-width:2;" x1="173.0327" x2="488.1641" y1="473.4834" y2="473.4834"/><text fill="#0A9EFD" font-family="Arial" font-size="13" lengthAdjust="spacing" textLength="188.6016" x="234.2976" y="468.7285">Get the raw data in the callbacks</text></g><g class="message" data-entity-1="part2" data-entity-2="part3" data-source-line="30" id="msg10"><polygon fill="#0A9EFD" points="477.1641,498.4321,487.1641,502.4321,477.1641,506.4321,481.1641,502.4321" style="stroke:#0A9EFD;stroke-width:1;stroke-linejoin:miter;stroke-miterlimit:10;"/><line style="stroke:#0A9EFD;stroke-width:2;" x1="168.0327" x2="483.1641" y1="502.4321" y2="502.4321"/><text fill="#0A9EFD" font-family="Arial" font-size="13" lengthAdjust="spacing" textLength="281.1123" x="188.0422" y="497.6772">Send the processed data back with the callbacks</text></g><path d="M10,524.4321 L90.4199,524.4321 L90.4199,531.3809 L80.4199,541.3809 L10,541.3809 L10,524.4321" fill="#EEEEEE" style="stroke:#0A9EFD;stroke-width:1.5;"/><rect fill="none" height="103.7949" style="stroke:#0A9EFD;stroke-width:2;" width="524.3269" x="10" y="524.4321"/><text fill="#000000" font-family="Arial" font-size="13" lengthAdjust="spacing" textLength="35.4199" x="25" y="537.626">Leave</text><g class="message" data-entity-1="part1" data-entity-2="part2" data-source-line="34" id="msg11"><polygon fill="#0A9EFD" points="156.0327,558.3296,166.0327,562.3296,156.0327,566.3296,160.0327,562.3296" style="stroke:#0A9EFD;stroke-width:1;stroke-linejoin:miter;stroke-miterlimit:10;"/><line style="stroke:#0A9EFD;stroke-width:2;" x1="37.7793" x2="162.0327" y1="562.3296" y2="562.3296"/><text fill="#0A9EFD" font-family="Arial" font-size="13" lengthAdjust="spacing" textLength="106.2534" x="49.7793" y="557.5747">Leave the channel</text></g><g class="message" data-entity-1="part2" data-entity-2="part3" data-source-line="35" id="msg12"><polygon fill="#0A9EFD" points="477.1641,587.2783,487.1641,591.2783,477.1641,595.2783,481.1641,591.2783" style="stroke:#0A9EFD;stroke-width:1;stroke-linejoin:miter;stroke-miterlimit:10;"/><line style="stroke:#0A9EFD;stroke-width:2;" x1="168.0327" x2="483.1641" y1="591.2783" y2="591.2783"/><text fill="#0A9EFD" font-family="Arial" font-size="13" lengthAdjust="spacing" textLength="203.7725" x="226.7122" y="586.5234">Unegister the audio frame observer</text></g><g class="message" data-entity-1="part2" data-entity-2="part3" data-source-line="36" id="msg13"><polygon fill="#0A9EFD" points="477.1641,616.2271,487.1641,620.2271,477.1641,624.2271,481.1641,620.2271" style="stroke:#0A9EFD;stroke-width:1;stroke-linejoin:miter;stroke-miterlimit:10;"/><line style="stroke:#0A9EFD;stroke-width:2;" x1="168.0327" x2="483.1641" y1="620.2271" y2="620.2271"/><text fill="#0A9EFD" font-family="Arial" font-size="13" lengthAdjust="spacing" textLength="106.2534" x="275.4717" y="615.4722">Leave the channel</text></g><?plantuml-src bP5DRi8m48NtFiKqUs2F418gLKLRjGXAfQwg8Hc2cp2sR0TwgXwY9-iuuIzKBBgn5NlUUvzVRZIdPPKHTBkzhSx8T7nMz30t3ZzyeRchgqsf5AR1E4WMdbm2w64ndocrD5-Gl9lA0LgRA8ikw5HRv039cz4fmNpyM8-FfbD5d84ezh9HJBZGpCUpr-U1h-pmvtlGY_jUF3c99HWwmsZOXnTB32DhbNmT3syTOI101iq-80k5MK4T1tUSQoQelEOSZeHAvSvK5kOKP7MuWmm3WdKc9Hz7M_xDL5XBH9Lf0ok76ubOIZDRSX193uOFHdCBE1u0Ghf6PYfFjfC-p2ZNFeZ1DUVMj42qXgH6sKJkMwmp2axJDXgABKlJ6BHX2AQWkCBdTQ2QDSBiBrilcpRTr6Kr7B6oMZ_eDFfxGOpoOvy7EopB9QQ5ltYG_E1ulM-TiaOK9s6dm_f2UyRoHBYbLitroJbxAsh1_whwhrdC_WK0?></g></svg>