<?xml version="1.0" encoding="us-ascii" standalone="no"?><svg xmlns="http://www.w3.org/2000/svg" xmlns:xlink="http://www.w3.org/1999/xlink" contentStyleType="text/css" height="735px" preserveAspectRatio="none" style="width:536px;height:735px;" version="1.1" viewBox="0 0 536 735" width="536px" zoomAndPan="magnify"><defs/><g><rect fill="none" height="733.3257" style="stroke:#0A9EFD;stroke-width:1.0;" width="534.5" x="0" y="0"/><rect fill="#999999" fill-opacity="0.33333" height="723.3257" style="stroke:#0A9EFD;stroke-width:0.5;" width="89" x="121" y="6"/><text fill="#0A9EFD" font-family="sans-serif" font-size="13" font-weight="bold" lengthAdjust="spacing" textLength="57" x="137" y="19.4951">Your app</text><rect fill="#999999" fill-opacity="0.33333" height="723.3257" style="stroke:#0A9EFD;stroke-width:0.5;" width="74" x="450.5" y="6"/><text fill="#0A9EFD" font-family="sans-serif" font-size="13" font-weight="bold" lengthAdjust="spacing" textLength="38" x="468.5" y="19.4951">Agora</text><rect fill="#0A9EFD" fill-opacity="0.06667" height="58.8975" style="stroke:#0A9EFD;stroke-width:2.0;" width="248.5" x="115" y="173.9961"/><rect fill="#0A9EFD" fill-opacity="0.06667" height="174.6924" style="stroke:#0A9EFD;stroke-width:2.0;" width="520.5" x="10" y="246.8936"/><rect fill="#0A9EFD" fill-opacity="0.06667" height="74.8462" style="stroke:#0A9EFD;stroke-width:2.0;" width="415.5" x="115" y="435.5859"/><rect fill="#0A9EFD" fill-opacity="0.06667" height="103.7949" style="stroke:#0A9EFD;stroke-width:2.0;" width="520.5" x="10" y="524.4321"/><line style="stroke:#0A9EFD;stroke-width:0.5;stroke-dasharray:5.0,5.0;" x1="37" x2="37" y1="86.0986" y2="645.2271"/><line style="stroke:#0A9EFD;stroke-width:0.5;stroke-dasharray:5.0,5.0;" x1="165" x2="165" y1="86.0986" y2="645.2271"/><line style="stroke:#0A9EFD;stroke-width:0.5;stroke-dasharray:5.0,5.0;" x1="487.5" x2="487.5" y1="86.0986" y2="645.2271"/><text fill="#0A9EFD" font-family="Arial" font-size="14" lengthAdjust="spacing" textLength="29" x="20" y="83.1318">User</text><ellipse cx="37.5" cy="16" fill="none" rx="8" ry="8" style="stroke:#0A9EFD;stroke-width:3.0;"/><path d="M37.5,24 L37.5,51 M24.5,32 L50.5,32 M37.5,51 L24.5,66 M37.5,51 L50.5,66 " fill="none" style="stroke:#0A9EFD;stroke-width:3.0;"/><text fill="#0A9EFD" font-family="Arial" font-size="14" lengthAdjust="spacing" textLength="29" x="20" y="657.3589">User</text><ellipse cx="37.5" cy="671.3257" fill="none" rx="8" ry="8" style="stroke:#0A9EFD;stroke-width:3.0;"/><path d="M37.5,679.3257 L37.5,706.3257 M24.5,687.3257 L50.5,687.3257 M37.5,706.3257 L24.5,721.3257 M37.5,706.3257 L50.5,721.3257 " fill="none" style="stroke:#0A9EFD;stroke-width:3.0;"/><rect fill="none" height="30.0986" rx="2.5" ry="2.5" style="stroke:#0A9EFD;stroke-width:2.0;" width="81" x="125" y="55"/><text fill="#0A9EFD" font-family="Arial" font-size="14" lengthAdjust="spacing" textLength="67" x="132" y="75.1318">Voice SDK</text><rect fill="none" height="30.0986" rx="2.5" ry="2.5" style="stroke:#0A9EFD;stroke-width:2.0;" width="81" x="125" y="644.2271"/><text fill="#0A9EFD" font-family="Arial" font-size="14" lengthAdjust="spacing" textLength="67" x="132" y="664.3589">Voice SDK</text><rect fill="none" height="30.0986" rx="2.5" ry="2.5" style="stroke:#0A9EFD;stroke-width:2.0;" width="66" x="454.5" y="55"/><text fill="#0A9EFD" font-family="Arial" font-size="14" lengthAdjust="spacing" textLength="52" x="461.5" y="75.1318">SD-RTN</text><rect fill="none" height="30.0986" rx="2.5" ry="2.5" style="stroke:#0A9EFD;stroke-width:2.0;" width="66" x="454.5" y="644.2271"/><text fill="#0A9EFD" font-family="Arial" font-size="14" lengthAdjust="spacing" textLength="52" x="461.5" y="664.3589">SD-RTN</text><polygon fill="#0A9EFD" points="153.5,113.0474,163.5,117.0474,153.5,121.0474,157.5,117.0474" style="stroke:#0A9EFD;stroke-width:1.0;"/><line style="stroke:#0A9EFD;stroke-width:2.0;" x1="37.5" x2="159.5" y1="117.0474" y2="117.0474"/><text fill="#0A9EFD" font-family="Arial" font-size="13" lengthAdjust="spacing" textLength="58" x="72.5" y="112.2925">Open App</text><line style="stroke:#0A9EFD;stroke-width:2.0;" x1="165.5" x2="207.5" y1="145.9961" y2="145.9961"/><line style="stroke:#0A9EFD;stroke-width:2.0;" x1="207.5" x2="207.5" y1="145.9961" y2="158.9961"/><line style="stroke:#0A9EFD;stroke-width:2.0;" x1="166.5" x2="207.5" y1="158.9961" y2="158.9961"/><polygon fill="#0A9EFD" points="176.5,154.9961,166.5,158.9961,176.5,162.9961,172.5,158.9961" style="stroke:#0A9EFD;stroke-width:1.0;"/><text fill="#0A9EFD" font-family="Arial" font-size="13" lengthAdjust="spacing" textLength="308" x="172.5" y="141.2412">Create an instance of Agora Engine using Voice SDK</text><path d="M115,173.9961 L314,173.9961 L314,180.9448 L304,190.9448 L115,190.9448 L115,173.9961 " fill="#EEEEEE" style="stroke:#0A9EFD;stroke-width:1.5;"/><rect fill="none" height="58.8975" style="stroke:#0A9EFD;stroke-width:2.0;" width="248.5" x="115" y="173.9961"/><text fill="#000000" font-family="Arial" font-size="13" lengthAdjust="spacing" textLength="154" x="130" y="187.1899">Setup raw data processing</text><line style="stroke:#0A9EFD;stroke-width:2.0;" x1="165.5" x2="207.5" y1="211.8936" y2="211.8936"/><line style="stroke:#0A9EFD;stroke-width:2.0;" x1="207.5" x2="207.5" y1="211.8936" y2="224.8936"/><line style="stroke:#0A9EFD;stroke-width:2.0;" x1="166.5" x2="207.5" y1="224.8936" y2="224.8936"/><polygon fill="#0A9EFD" points="176.5,220.8936,166.5,224.8936,176.5,228.8936,172.5,224.8936" style="stroke:#0A9EFD;stroke-width:1.0;"/><text fill="#0A9EFD" font-family="Arial" font-size="13" lengthAdjust="spacing" textLength="179" x="172.5" y="207.1387">Setup the audio frame observer</text><path d="M10,246.8936 L78,246.8936 L78,253.8423 L68,263.8423 L10,263.8423 L10,246.8936 " fill="#EEEEEE" style="stroke:#0A9EFD;stroke-width:1.5;"/><rect fill="none" height="174.6924" style="stroke:#0A9EFD;stroke-width:2.0;" width="520.5" x="10" y="246.8936"/><text fill="#000000" font-family="Arial" font-size="13" lengthAdjust="spacing" textLength="23" x="25" y="260.0874">Join</text><polygon fill="#0A9EFD" points="153.5,280.791,163.5,284.791,153.5,288.791,157.5,284.791" style="stroke:#0A9EFD;stroke-width:1.0;"/><line style="stroke:#0A9EFD;stroke-width:2.0;" x1="37.5" x2="159.5" y1="284.791" y2="284.791"/><text fill="#0A9EFD" font-family="Arial" font-size="13" lengthAdjust="spacing" textLength="83" x="60" y="280.0361">Join a channel</text><polygon fill="#0A9EFD" points="475.5,309.7397,485.5,313.7397,475.5,317.7397,479.5,313.7397" style="stroke:#0A9EFD;stroke-width:1.0;"/><line style="stroke:#0A9EFD;stroke-width:2.0;" x1="165.5" x2="481.5" y1="313.7397" y2="313.7397"/><text fill="#0A9EFD" font-family="Arial" font-size="13" lengthAdjust="spacing" textLength="193" x="230" y="308.9849">Register the audio frame observer</text><polygon fill="#0A9EFD" points="475.5,338.6885,485.5,342.6885,475.5,346.6885,479.5,342.6885" style="stroke:#0A9EFD;stroke-width:1.0;"/><line style="stroke:#0A9EFD;stroke-width:2.0;" x1="165.5" x2="481.5" y1="342.6885" y2="342.6885"/><text fill="#0A9EFD" font-family="Arial" font-size="13" lengthAdjust="spacing" textLength="160" x="246.5" y="337.9336">Set audio frame parameters</text><line style="stroke:#0A9EFD;stroke-width:2.0;" x1="165.5" x2="207.5" y1="371.6372" y2="371.6372"/><line style="stroke:#0A9EFD;stroke-width:2.0;" x1="207.5" x2="207.5" y1="371.6372" y2="384.6372"/><line style="stroke:#0A9EFD;stroke-width:2.0;" x1="166.5" x2="207.5" y1="384.6372" y2="384.6372"/><polygon fill="#0A9EFD" points="176.5,380.6372,166.5,384.6372,176.5,388.6372,172.5,384.6372" style="stroke:#0A9EFD;stroke-width:1.0;"/><text fill="#0A9EFD" font-family="Arial" font-size="13" lengthAdjust="spacing" textLength="266" x="172.5" y="366.8823">Retrieve authentication token to join a channel</text><polygon fill="#0A9EFD" points="475.5,409.5859,485.5,413.5859,475.5,417.5859,479.5,413.5859" style="stroke:#0A9EFD;stroke-width:1.0;"/><line style="stroke:#0A9EFD;stroke-width:2.0;" x1="165.5" x2="481.5" y1="413.5859" y2="413.5859"/><text fill="#0A9EFD" font-family="Arial" font-size="13" lengthAdjust="spacing" textLength="94" x="279.5" y="408.8311">Join the channel</text><path d="M115,435.5859 L296,435.5859 L296,442.5347 L286,452.5347 L115,452.5347 L115,435.5859 " fill="#EEEEEE" style="stroke:#0A9EFD;stroke-width:1.5;"/><rect fill="none" height="74.8462" style="stroke:#0A9EFD;stroke-width:2.0;" width="415.5" x="115" y="435.5859"/><text fill="#000000" font-family="Arial" font-size="13" lengthAdjust="spacing" textLength="136" x="130" y="448.7798">Process raw audio data</text><polygon fill="#0A9EFD" points="176.5,469.4834,166.5,473.4834,176.5,477.4834,172.5,473.4834" style="stroke:#0A9EFD;stroke-width:1.0;"/><line style="stroke:#0A9EFD;stroke-width:2.0;" x1="170.5" x2="486.5" y1="473.4834" y2="473.4834"/><text fill="#0A9EFD" font-family="Arial" font-size="13" lengthAdjust="spacing" textLength="191" x="231" y="468.7285">Get the raw data in the callbacks</text><polygon fill="#0A9EFD" points="475.5,498.4321,485.5,502.4321,475.5,506.4321,479.5,502.4321" style="stroke:#0A9EFD;stroke-width:1.0;"/><line style="stroke:#0A9EFD;stroke-width:2.0;" x1="165.5" x2="481.5" y1="502.4321" y2="502.4321"/><text fill="#0A9EFD" font-family="Arial" font-size="13" lengthAdjust="spacing" textLength="285" x="184" y="497.6772">Send the processed data back with the callbacks</text><path d="M10,524.4321 L88,524.4321 L88,531.3809 L78,541.3809 L10,541.3809 L10,524.4321 " fill="#EEEEEE" style="stroke:#0A9EFD;stroke-width:1.5;"/><rect fill="none" height="103.7949" style="stroke:#0A9EFD;stroke-width:2.0;" width="520.5" x="10" y="524.4321"/><text fill="#000000" font-family="Arial" font-size="13" lengthAdjust="spacing" textLength="33" x="25" y="537.626">Leave</text><polygon fill="#0A9EFD" points="153.5,558.3296,163.5,562.3296,153.5,566.3296,157.5,562.3296" style="stroke:#0A9EFD;stroke-width:1.0;"/><line style="stroke:#0A9EFD;stroke-width:2.0;" x1="37.5" x2="159.5" y1="562.3296" y2="562.3296"/><text fill="#0A9EFD" font-family="Arial" font-size="13" lengthAdjust="spacing" textLength="104" x="49.5" y="557.5747">Leave the channel</text><polygon fill="#0A9EFD" points="475.5,587.2783,485.5,591.2783,475.5,595.2783,479.5,591.2783" style="stroke:#0A9EFD;stroke-width:1.0;"/><line style="stroke:#0A9EFD;stroke-width:2.0;" x1="165.5" x2="481.5" y1="591.2783" y2="591.2783"/><text fill="#0A9EFD" font-family="Arial" font-size="13" lengthAdjust="spacing" textLength="200" x="226.5" y="586.5234">Unegister the audio frame observer</text><polygon fill="#0A9EFD" points="475.5,616.2271,485.5,620.2271,475.5,624.2271,479.5,620.2271" style="stroke:#0A9EFD;stroke-width:1.0;"/><line style="stroke:#0A9EFD;stroke-width:2.0;" x1="165.5" x2="481.5" y1="620.2271" y2="620.2271"/><text fill="#0A9EFD" font-family="Arial" font-size="13" lengthAdjust="spacing" textLength="104" x="274.5" y="615.4722">Leave the channel</text><!--SRC=[bP7DJiCm48JlVeebz_805KAgA4By2Ag48d52ssIRcgPhotPQ7fzralwug0SkjcBlp7oUN6akcxOYmDeu_F9hpTUwtJHAOHcCWspkoMM07kP5hjJ2_43sQLe7Q6scBBgWIssH0sGVHfS4nVIv6v_CPegu0b4CiabCEDCKqr7-_Ze87ey22OFHRJGPmvibXecrIhuEXtUEC0WrWsOVa2NPBA6BW7kkDHEqNdCD1ogbQcTQ2mK5MHtkeCA0O9qfoSVHnB-V2Yk9Q2jjOEbm8n4BQMDB3YBftl39Q4w0um4Wb2jafkPe-pY6d6hjWnXSSawc1I8Pakfa4xbFM7CAJjCs6eejIxiOj648ParnXU_BG1rhX1akavVD-cwwidgEM5cdlndr-WT1ZF93dtixR9e5bcj_zY3vmV5wQ9sgNXGdOQV3wanxml92kAMavkxab3s9clE_glvh5hD_0G00]--></g></svg>