<?xml version="1.0" encoding="us-ascii" standalone="no"?><svg xmlns="http://www.w3.org/2000/svg" xmlns:xlink="http://www.w3.org/1999/xlink" contentStyleType="text/css" height="735px" preserveAspectRatio="none" style="width:543px;height:735px;" version="1.1" viewBox="0 0 543 735" width="543px" zoomAndPan="magnify"><defs/><g><rect fill="none" height="733.3257" style="stroke:#0A9EFD;stroke-width:1.0;" width="541" x="0" y="0"/><rect fill="#999999" fill-opacity="0.33333" height="723.3257" style="stroke:#0A9EFD;stroke-width:0.5;" width="89" x="123.5" y="6"/><text fill="#0A9EFD" font-family="sans-serif" font-size="13" font-weight="bold" lengthAdjust="spacing" textLength="62" x="137" y="18.5684">Your app</text><rect fill="#999999" fill-opacity="0.33333" height="723.3257" style="stroke:#0A9EFD;stroke-width:0.5;" width="80" x="451" y="6"/><text fill="#0A9EFD" font-family="sans-serif" font-size="13" font-weight="bold" lengthAdjust="spacing" textLength="41" x="470.5" y="18.5684">Agora</text><rect fill="#0A9EFD" fill-opacity="0.06667" height="58.8975" style="stroke:#0A9EFD;stroke-width:2.0;" width="251.5" x="117.5" y="173.9961"/><rect fill="#0A9EFD" fill-opacity="0.06667" height="174.6924" style="stroke:#0A9EFD;stroke-width:2.0;" width="527" x="10" y="246.8936"/><rect fill="#0A9EFD" fill-opacity="0.06667" height="74.8462" style="stroke:#0A9EFD;stroke-width:2.0;" width="419.5" x="117.5" y="435.5859"/><rect fill="#0A9EFD" fill-opacity="0.06667" height="103.7949" style="stroke:#0A9EFD;stroke-width:2.0;" width="527" x="10" y="524.4321"/><line style="stroke:#0A9EFD;stroke-width:0.5;stroke-dasharray:5.0,5.0;" x1="38" x2="38" y1="86.0986" y2="645.2271"/><line style="stroke:#0A9EFD;stroke-width:0.5;stroke-dasharray:5.0,5.0;" x1="167.5" x2="167.5" y1="86.0986" y2="645.2271"/><line style="stroke:#0A9EFD;stroke-width:0.5;stroke-dasharray:5.0,5.0;" x1="491" x2="491" y1="86.0986" y2="645.2271"/><text fill="#0A9EFD" font-family="Arial" font-size="14" lengthAdjust="spacing" textLength="30" x="20" y="83.1318">User</text><ellipse cx="38" cy="16" fill="none" rx="8" ry="8" style="stroke:#0A9EFD;stroke-width:3.0;"/><path d="M38,24 L38,51 M25,32 L51,32 M38,51 L25,66 M38,51 L51,66 " fill="none" style="stroke:#0A9EFD;stroke-width:3.0;"/><text fill="#0A9EFD" font-family="Arial" font-size="14" lengthAdjust="spacing" textLength="30" x="20" y="657.3589">User</text><ellipse cx="38" cy="671.3257" fill="none" rx="8" ry="8" style="stroke:#0A9EFD;stroke-width:3.0;"/><path d="M38,679.3257 L38,706.3257 M25,687.3257 L51,687.3257 M38,706.3257 L25,721.3257 M38,706.3257 L51,721.3257 " fill="none" style="stroke:#0A9EFD;stroke-width:3.0;"/><rect fill="none" height="30.0986" rx="2.5" ry="2.5" style="stroke:#0A9EFD;stroke-width:2.0;" width="81" x="127.5" y="55"/><text fill="#0A9EFD" font-family="Arial" font-size="14" lengthAdjust="spacing" textLength="67" x="134.5" y="75.1318">Voice SDK</text><rect fill="none" height="30.0986" rx="2.5" ry="2.5" style="stroke:#0A9EFD;stroke-width:2.0;" width="81" x="127.5" y="644.2271"/><text fill="#0A9EFD" font-family="Arial" font-size="14" lengthAdjust="spacing" textLength="67" x="134.5" y="664.3589">Voice SDK</text><rect fill="none" height="30.0986" rx="2.5" ry="2.5" style="stroke:#0A9EFD;stroke-width:2.0;" width="72" x="455" y="55"/><text fill="#0A9EFD" font-family="Arial" font-size="14" lengthAdjust="spacing" textLength="58" x="462" y="75.1318">SDRTN&#174;</text><rect fill="none" height="30.0986" rx="2.5" ry="2.5" style="stroke:#0A9EFD;stroke-width:2.0;" width="72" x="455" y="644.2271"/><text fill="#0A9EFD" font-family="Arial" font-size="14" lengthAdjust="spacing" textLength="58" x="462" y="664.3589">SDRTN&#174;</text><polygon fill="#0A9EFD" points="156,113.0474,166,117.0474,156,121.0474,160,117.0474" style="stroke:#0A9EFD;stroke-width:1.0;"/><line style="stroke:#0A9EFD;stroke-width:2.0;" x1="38" x2="162" y1="117.0474" y2="117.0474"/><text fill="#0A9EFD" font-family="Arial" font-size="13" lengthAdjust="spacing" textLength="58" x="74" y="112.2925">Open App</text><line style="stroke:#0A9EFD;stroke-width:2.0;" x1="168" x2="210" y1="145.9961" y2="145.9961"/><line style="stroke:#0A9EFD;stroke-width:2.0;" x1="210" x2="210" y1="145.9961" y2="158.9961"/><line style="stroke:#0A9EFD;stroke-width:2.0;" x1="169" x2="210" y1="158.9961" y2="158.9961"/><polygon fill="#0A9EFD" points="179,154.9961,169,158.9961,179,162.9961,175,158.9961" style="stroke:#0A9EFD;stroke-width:1.0;"/><text fill="#0A9EFD" font-family="Arial" font-size="13" lengthAdjust="spacing" textLength="309" x="175" y="141.2412">Create an instance of Agora Engine using Voice SDK</text><path d="M117.5,173.9961 L316.5,173.9961 L316.5,180.9448 L306.5,190.9448 L117.5,190.9448 L117.5,173.9961 " fill="#EEEEEE" style="stroke:#0A9EFD;stroke-width:1.5;"/><rect fill="none" height="58.8975" style="stroke:#0A9EFD;stroke-width:2.0;" width="251.5" x="117.5" y="173.9961"/><text fill="#000000" font-family="Arial" font-size="13" lengthAdjust="spacing" textLength="154" x="132.5" y="187.1899">Setup raw data processing</text><line style="stroke:#0A9EFD;stroke-width:2.0;" x1="168" x2="210" y1="211.8936" y2="211.8936"/><line style="stroke:#0A9EFD;stroke-width:2.0;" x1="210" x2="210" y1="211.8936" y2="224.8936"/><line style="stroke:#0A9EFD;stroke-width:2.0;" x1="169" x2="210" y1="224.8936" y2="224.8936"/><polygon fill="#0A9EFD" points="179,220.8936,169,224.8936,179,228.8936,175,224.8936" style="stroke:#0A9EFD;stroke-width:1.0;"/><text fill="#0A9EFD" font-family="Arial" font-size="13" lengthAdjust="spacing" textLength="182" x="175" y="207.1387">Setup the audio frame observer</text><path d="M10,246.8936 L79,246.8936 L79,253.8423 L69,263.8423 L10,263.8423 L10,246.8936 " fill="#EEEEEE" style="stroke:#0A9EFD;stroke-width:1.5;"/><rect fill="none" height="174.6924" style="stroke:#0A9EFD;stroke-width:2.0;" width="527" x="10" y="246.8936"/><text fill="#000000" font-family="Arial" font-size="13" lengthAdjust="spacing" textLength="24" x="25" y="260.0874">Join</text><polygon fill="#0A9EFD" points="156,280.791,166,284.791,156,288.791,160,284.791" style="stroke:#0A9EFD;stroke-width:1.0;"/><line style="stroke:#0A9EFD;stroke-width:2.0;" x1="38" x2="162" y1="284.791" y2="284.791"/><text fill="#0A9EFD" font-family="Arial" font-size="13" lengthAdjust="spacing" textLength="84" x="61" y="280.0361">Join a channel</text><polygon fill="#0A9EFD" points="479,309.7397,489,313.7397,479,317.7397,483,313.7397" style="stroke:#0A9EFD;stroke-width:1.0;"/><line style="stroke:#0A9EFD;stroke-width:2.0;" x1="168" x2="485" y1="313.7397" y2="313.7397"/><text fill="#0A9EFD" font-family="Arial" font-size="13" lengthAdjust="spacing" textLength="196" x="231.5" y="308.9849">Register the audio frame observer</text><polygon fill="#0A9EFD" points="479,338.6885,489,342.6885,479,346.6885,483,342.6885" style="stroke:#0A9EFD;stroke-width:1.0;"/><line style="stroke:#0A9EFD;stroke-width:2.0;" x1="168" x2="485" y1="342.6885" y2="342.6885"/><text fill="#0A9EFD" font-family="Arial" font-size="13" lengthAdjust="spacing" textLength="161" x="249" y="337.9336">Set audio frame parameters</text><line style="stroke:#0A9EFD;stroke-width:2.0;" x1="168" x2="210" y1="371.6372" y2="371.6372"/><line style="stroke:#0A9EFD;stroke-width:2.0;" x1="210" x2="210" y1="371.6372" y2="384.6372"/><line style="stroke:#0A9EFD;stroke-width:2.0;" x1="169" x2="210" y1="384.6372" y2="384.6372"/><polygon fill="#0A9EFD" points="179,380.6372,169,384.6372,179,388.6372,175,384.6372" style="stroke:#0A9EFD;stroke-width:1.0;"/><text fill="#0A9EFD" font-family="Arial" font-size="13" lengthAdjust="spacing" textLength="268" x="175" y="366.8823">Retrieve authentication token to join a channel</text><polygon fill="#0A9EFD" points="479,409.5859,489,413.5859,479,417.5859,483,413.5859" style="stroke:#0A9EFD;stroke-width:1.0;"/><line style="stroke:#0A9EFD;stroke-width:2.0;" x1="168" x2="485" y1="413.5859" y2="413.5859"/><text fill="#0A9EFD" font-family="Arial" font-size="13" lengthAdjust="spacing" textLength="95" x="282" y="408.8311">Join the channel</text><path d="M117.5,435.5859 L298.5,435.5859 L298.5,442.5347 L288.5,452.5347 L117.5,452.5347 L117.5,435.5859 " fill="#EEEEEE" style="stroke:#0A9EFD;stroke-width:1.5;"/><rect fill="none" height="74.8462" style="stroke:#0A9EFD;stroke-width:2.0;" width="419.5" x="117.5" y="435.5859"/><text fill="#000000" font-family="Arial" font-size="13" lengthAdjust="spacing" textLength="136" x="132.5" y="448.7798">Process raw audio data</text><polygon fill="#0A9EFD" points="179,469.4834,169,473.4834,179,477.4834,175,473.4834" style="stroke:#0A9EFD;stroke-width:1.0;"/><line style="stroke:#0A9EFD;stroke-width:2.0;" x1="173" x2="490" y1="473.4834" y2="473.4834"/><text fill="#0A9EFD" font-family="Arial" font-size="13" lengthAdjust="spacing" textLength="191" x="234" y="468.7285">Get the raw data in the callbacks</text><polygon fill="#0A9EFD" points="479,498.4321,489,502.4321,479,506.4321,483,502.4321" style="stroke:#0A9EFD;stroke-width:1.0;"/><line style="stroke:#0A9EFD;stroke-width:2.0;" x1="168" x2="485" y1="502.4321" y2="502.4321"/><text fill="#0A9EFD" font-family="Arial" font-size="13" lengthAdjust="spacing" textLength="285" x="187" y="497.6772">Send the processed data back with the callbacks</text><path d="M10,524.4321 L90,524.4321 L90,531.3809 L80,541.3809 L10,541.3809 L10,524.4321 " fill="#EEEEEE" style="stroke:#0A9EFD;stroke-width:1.5;"/><rect fill="none" height="103.7949" style="stroke:#0A9EFD;stroke-width:2.0;" width="527" x="10" y="524.4321"/><text fill="#000000" font-family="Arial" font-size="13" lengthAdjust="spacing" textLength="35" x="25" y="537.626">Leave</text><polygon fill="#0A9EFD" points="156,558.3296,166,562.3296,156,566.3296,160,562.3296" style="stroke:#0A9EFD;stroke-width:1.0;"/><line style="stroke:#0A9EFD;stroke-width:2.0;" x1="38" x2="162" y1="562.3296" y2="562.3296"/><text fill="#0A9EFD" font-family="Arial" font-size="13" lengthAdjust="spacing" textLength="106" x="50" y="557.5747">Leave the channel</text><polygon fill="#0A9EFD" points="479,587.2783,489,591.2783,479,595.2783,483,591.2783" style="stroke:#0A9EFD;stroke-width:1.0;"/><line style="stroke:#0A9EFD;stroke-width:2.0;" x1="168" x2="485" y1="591.2783" y2="591.2783"/><text fill="#0A9EFD" font-family="Arial" font-size="13" lengthAdjust="spacing" textLength="203" x="228" y="586.5234">Unegister the audio frame observer</text><polygon fill="#0A9EFD" points="479,616.2271,489,620.2271,479,624.2271,483,620.2271" style="stroke:#0A9EFD;stroke-width:1.0;"/><line style="stroke:#0A9EFD;stroke-width:2.0;" x1="168" x2="485" y1="620.2271" y2="620.2271"/><text fill="#0A9EFD" font-family="Arial" font-size="13" lengthAdjust="spacing" textLength="106" x="276.5" y="615.4722">Leave the channel</text><!--SRC=[bP5DJiCm48NtFiMGVTjzXP0gYb01GPLG95PecanJqtHisKxBgJW49sESz2z5NR2n5NlUUvzVhZJdLLqGzFk3ZIx8z7on6c1f77xubUQ-hjULKfW7uo2PUN89e8TPbYerDr-Gl9lQ0LgRA8ikw5nRv039cz4vGJP-RCP7qwaYBa0KEzae9fnfid7w-lpplLDCZWf9WzvDT1d2YoM6aRLAlWw7juum4223PX-G9TeieCc0Eour4zHUSma7BALAPseB6GLP7MwXm81WdSd9nz6EVpiLbX9H5zh0mk5Q8kPInuOSHDAzuOFHt06E1u2GBv6PggFjP0WfbTe7CRZat9aMYCwGT2URo7s7DQNWD6sYeTYor8j16uPWLXHN-BmCrB16cDrbvsNJjfkch9OZLjRehtkj_buGe_pGvzuEgsgE-SgVFKX-SBpUjKv5AugJiDLXUQOzONaYt52dvkRabBqJDUD_LVtNB6R_0W00]--></g></svg>