<?xml version="1.0" encoding="us-ascii" standalone="no"?><svg xmlns="http://www.w3.org/2000/svg" xmlns:xlink="http://www.w3.org/1999/xlink" contentStyleType="text/css" height="919px" preserveAspectRatio="none" style="width:540px;height:919px;" version="1.1" viewBox="0 0 540 919" width="540px" zoomAndPan="magnify"><defs/><g><rect fill="none" height="917.9668" style="stroke:#0A9EFD;stroke-width:1.0;" width="538" x="0" y="0"/><rect fill="#999999" fill-opacity="0.33333" height="907.9668" style="stroke:#0A9EFD;stroke-width:0.5;" width="89" x="130.5" y="6"/><text fill="#0A9EFD" font-family="sans-serif" font-size="13" font-weight="bold" lengthAdjust="spacing" textLength="62" x="144" y="18.5684">Your app</text><rect fill="#999999" fill-opacity="0.33333" height="907.9668" style="stroke:#0A9EFD;stroke-width:0.5;" width="80" x="448" y="6"/><text fill="#0A9EFD" font-family="sans-serif" font-size="13" font-weight="bold" lengthAdjust="spacing" textLength="41" x="467.5" y="18.5684">Agora</text><rect fill="#0A9EFD" fill-opacity="0.06667" height="116.7949" style="stroke:#0A9EFD;stroke-width:2.0;" width="524" x="10" y="272.8423"/><rect fill="#0A9EFD" fill-opacity="0.06667" height="103.7949" style="stroke:#0A9EFD;stroke-width:2.0;" width="409.5" x="124.5" y="403.6372"/><rect fill="#0A9EFD" fill-opacity="0.06667" height="233.5386" style="stroke:#0A9EFD;stroke-width:2.0;" width="524" x="10" y="521.4321"/><line style="stroke:#0A9EFD;stroke-width:0.5;stroke-dasharray:5.0,5.0;" x1="38" x2="38" y1="86.0986" y2="829.8682"/><line style="stroke:#0A9EFD;stroke-width:0.5;stroke-dasharray:5.0,5.0;" x1="174.5" x2="174.5" y1="86.0986" y2="829.8682"/><line style="stroke:#0A9EFD;stroke-width:0.5;stroke-dasharray:5.0,5.0;" x1="488" x2="488" y1="86.0986" y2="829.8682"/><text fill="#0A9EFD" font-family="Arial" font-size="14" lengthAdjust="spacing" textLength="30" x="20" y="83.1318">User</text><ellipse cx="38" cy="16" fill="none" rx="8" ry="8" style="stroke:#0A9EFD;stroke-width:3.0;"/><path d="M38,24 L38,51 M25,32 L51,32 M38,51 L25,66 M38,51 L51,66 " fill="none" style="stroke:#0A9EFD;stroke-width:3.0;"/><text fill="#0A9EFD" font-family="Arial" font-size="14" lengthAdjust="spacing" textLength="30" x="20" y="842">User</text><ellipse cx="38" cy="855.9668" fill="none" rx="8" ry="8" style="stroke:#0A9EFD;stroke-width:3.0;"/><path d="M38,863.9668 L38,890.9668 M25,871.9668 L51,871.9668 M38,890.9668 L25,905.9668 M38,890.9668 L51,905.9668 " fill="none" style="stroke:#0A9EFD;stroke-width:3.0;"/><rect fill="none" height="30.0986" rx="2.5" ry="2.5" style="stroke:#0A9EFD;stroke-width:2.0;" width="81" x="134.5" y="55"/><text fill="#0A9EFD" font-family="Arial" font-size="14" lengthAdjust="spacing" textLength="67" x="141.5" y="75.1318">Voice SDK</text><rect fill="none" height="30.0986" rx="2.5" ry="2.5" style="stroke:#0A9EFD;stroke-width:2.0;" width="81" x="134.5" y="828.8682"/><text fill="#0A9EFD" font-family="Arial" font-size="14" lengthAdjust="spacing" textLength="67" x="141.5" y="849">Voice SDK</text><rect fill="none" height="30.0986" rx="2.5" ry="2.5" style="stroke:#0A9EFD;stroke-width:2.0;" width="72" x="452" y="55"/><text fill="#0A9EFD" font-family="Arial" font-size="14" lengthAdjust="spacing" textLength="58" x="459" y="75.1318">SDRTN&#174;</text><rect fill="none" height="30.0986" rx="2.5" ry="2.5" style="stroke:#0A9EFD;stroke-width:2.0;" width="72" x="452" y="828.8682"/><text fill="#0A9EFD" font-family="Arial" font-size="14" lengthAdjust="spacing" textLength="58" x="459" y="849">SDRTN&#174;</text><polygon fill="#0A9EFD" points="163,113.0474,173,117.0474,163,121.0474,167,117.0474" style="stroke:#0A9EFD;stroke-width:1.0;"/><line style="stroke:#0A9EFD;stroke-width:2.0;" x1="38" x2="169" y1="117.0474" y2="117.0474"/><text fill="#0A9EFD" font-family="Arial" font-size="13" lengthAdjust="spacing" textLength="58" x="77.5" y="112.2925">Open App</text><line style="stroke:#0A9EFD;stroke-width:2.0;" x1="175" x2="217" y1="145.9961" y2="145.9961"/><line style="stroke:#0A9EFD;stroke-width:2.0;" x1="217" x2="217" y1="145.9961" y2="158.9961"/><line style="stroke:#0A9EFD;stroke-width:2.0;" x1="176" x2="217" y1="158.9961" y2="158.9961"/><polygon fill="#0A9EFD" points="186,154.9961,176,158.9961,186,162.9961,182,158.9961" style="stroke:#0A9EFD;stroke-width:1.0;"/><text fill="#0A9EFD" font-family="Arial" font-size="13" lengthAdjust="spacing" textLength="299" x="182" y="141.2412">Use Voice SDK to create an Agora Engine instance</text><line style="stroke:#0A9EFD;stroke-width:2.0;" x1="175" x2="217" y1="187.9448" y2="187.9448"/><line style="stroke:#0A9EFD;stroke-width:2.0;" x1="217" x2="217" y1="187.9448" y2="200.9448"/><line style="stroke:#0A9EFD;stroke-width:2.0;" x1="176" x2="217" y1="200.9448" y2="200.9448"/><polygon fill="#0A9EFD" points="186,196.9448,176,200.9448,186,204.9448,182,200.9448" style="stroke:#0A9EFD;stroke-width:1.0;"/><text fill="#0A9EFD" font-family="Arial" font-size="13" lengthAdjust="spacing" textLength="212" x="182" y="183.1899">Create and play the local audio track</text><line style="stroke:#0A9EFD;stroke-width:2.0;" x1="175" x2="217" y1="244.8423" y2="244.8423"/><line style="stroke:#0A9EFD;stroke-width:2.0;" x1="217" x2="217" y1="244.8423" y2="257.8423"/><line style="stroke:#0A9EFD;stroke-width:2.0;" x1="176" x2="217" y1="257.8423" y2="257.8423"/><polygon fill="#0A9EFD" points="186,253.8423,176,257.8423,186,261.8423,182,257.8423" style="stroke:#0A9EFD;stroke-width:1.0;"/><text fill="#0A9EFD" font-family="Arial" font-size="13" lengthAdjust="spacing" textLength="166" x="188.5" y="225.1387">Bypass autoplay block when</text><text fill="#0A9EFD" font-family="Arial" font-size="13" lengthAdjust="spacing" textLength="179" x="186" y="240.0874">onAutoplayFailed event occurs</text><path d="M10,272.8423 L79,272.8423 L79,279.791 L69,289.791 L10,289.791 L10,272.8423 " fill="#EEEEEE" style="stroke:#0A9EFD;stroke-width:1.5;"/><rect fill="none" height="116.7949" style="stroke:#0A9EFD;stroke-width:2.0;" width="524" x="10" y="272.8423"/><text fill="#000000" font-family="Arial" font-size="13" lengthAdjust="spacing" textLength="24" x="25" y="286.0361">Join</text><polygon fill="#0A9EFD" points="163,306.7397,173,310.7397,163,314.7397,167,310.7397" style="stroke:#0A9EFD;stroke-width:1.0;"/><line style="stroke:#0A9EFD;stroke-width:2.0;" x1="38" x2="169" y1="310.7397" y2="310.7397"/><text fill="#0A9EFD" font-family="Arial" font-size="13" lengthAdjust="spacing" textLength="84" x="64.5" y="305.9849">Join a channel</text><line style="stroke:#0A9EFD;stroke-width:2.0;" x1="175" x2="217" y1="339.6885" y2="339.6885"/><line style="stroke:#0A9EFD;stroke-width:2.0;" x1="217" x2="217" y1="339.6885" y2="352.6885"/><line style="stroke:#0A9EFD;stroke-width:2.0;" x1="176" x2="217" y1="352.6885" y2="352.6885"/><polygon fill="#0A9EFD" points="186,348.6885,176,352.6885,186,356.6885,182,352.6885" style="stroke:#0A9EFD;stroke-width:1.0;"/><text fill="#0A9EFD" font-family="Arial" font-size="13" lengthAdjust="spacing" textLength="268" x="182" y="334.9336">Retrieve authentication token to join a channel</text><polygon fill="#0A9EFD" points="476,377.6372,486,381.6372,476,385.6372,480,381.6372" style="stroke:#0A9EFD;stroke-width:1.0;"/><line style="stroke:#0A9EFD;stroke-width:2.0;" x1="175" x2="482" y1="381.6372" y2="381.6372"/><text fill="#0A9EFD" font-family="Arial" font-size="13" lengthAdjust="spacing" textLength="95" x="284" y="376.8823">Join the channel</text><path d="M124.5,403.6372 L299.5,403.6372 L299.5,410.5859 L289.5,420.5859 L124.5,420.5859 L124.5,403.6372 " fill="#EEEEEE" style="stroke:#0A9EFD;stroke-width:1.5;"/><rect fill="none" height="103.7949" style="stroke:#0A9EFD;stroke-width:2.0;" width="409.5" x="124.5" y="403.6372"/><text fill="#000000" font-family="Arial" font-size="13" lengthAdjust="spacing" textLength="130" x="139.5" y="416.8311">Publish and Subscribe</text><polygon fill="#0A9EFD" points="476,437.5347,486,441.5347,476,445.5347,480,441.5347" style="stroke:#0A9EFD;stroke-width:1.0;"/><line style="stroke:#0A9EFD;stroke-width:2.0;" x1="175" x2="482" y1="441.5347" y2="441.5347"/><text fill="#0A9EFD" font-family="Arial" font-size="13" lengthAdjust="spacing" textLength="255" x="204" y="436.7798">Publish the microphone track to the channel</text><polygon fill="#0A9EFD" points="186,466.4834,176,470.4834,186,474.4834,182,470.4834" style="stroke:#0A9EFD;stroke-width:1.0;"/><line style="stroke:#0A9EFD;stroke-width:2.0;" x1="180" x2="487" y1="470.4834" y2="470.4834"/><text fill="#0A9EFD" font-family="Arial" font-size="13" lengthAdjust="spacing" textLength="212" x="225.5" y="465.7285">Subscribe to tracks from other users</text><polygon fill="#0A9EFD" points="476,495.4321,486,499.4321,476,503.4321,480,499.4321" style="stroke:#0A9EFD;stroke-width:1.0;"/><line style="stroke:#0A9EFD;stroke-width:2.0;" x1="175" x2="482" y1="499.4321" y2="499.4321"/><text fill="#0A9EFD" font-family="Arial" font-size="13" lengthAdjust="spacing" textLength="221" x="221" y="494.6772">Manage local and remote audio tracks</text><path d="M10,521.4321 L168,521.4321 L168,528.3809 L158,538.3809 L10,538.3809 L10,521.4321 " fill="#EEEEEE" style="stroke:#0A9EFD;stroke-width:1.5;"/><rect fill="none" height="233.5386" style="stroke:#0A9EFD;stroke-width:2.0;" width="524" x="10" y="521.4321"/><text fill="#000000" font-family="Arial" font-size="13" lengthAdjust="spacing" textLength="113" x="25" y="534.626">Common workflows</text><line style="stroke:#0A9EFD;stroke-width:2.0;" x1="175" x2="217" y1="559.3296" y2="559.3296"/><line style="stroke:#0A9EFD;stroke-width:2.0;" x1="217" x2="217" y1="559.3296" y2="572.3296"/><line style="stroke:#0A9EFD;stroke-width:2.0;" x1="176" x2="217" y1="572.3296" y2="572.3296"/><polygon fill="#0A9EFD" points="186,568.3296,176,572.3296,186,576.3296,182,572.3296" style="stroke:#0A9EFD;stroke-width:1.0;"/><text fill="#0A9EFD" font-family="Arial" font-size="13" lengthAdjust="spacing" textLength="149" x="182" y="554.5747">Bypass autoplay blocking</text><polygon fill="#0A9EFD" points="476,597.2783,486,601.2783,476,605.2783,480,601.2783" style="stroke:#0A9EFD;stroke-width:1.0;"/><line style="stroke:#0A9EFD;stroke-width:2.0;" x1="175" x2="482" y1="601.2783" y2="601.2783"/><text fill="#0A9EFD" font-family="Arial" font-size="13" lengthAdjust="spacing" textLength="178" x="242.5" y="596.5234">Unpublish the local audio track</text><polygon fill="#0A9EFD" points="163,626.2271,173,630.2271,163,634.2271,167,630.2271" style="stroke:#0A9EFD;stroke-width:1.0;"/><line style="stroke:#0A9EFD;stroke-width:2.0;" x1="38" x2="169" y1="630.2271" y2="630.2271"/><text fill="#0A9EFD" font-family="Arial" font-size="13" lengthAdjust="spacing" textLength="83" x="65" y="625.4722">Adjust volume</text><polygon fill="#0A9EFD" points="476,670.1245,486,674.1245,476,678.1245,480,674.1245" style="stroke:#0A9EFD;stroke-width:1.0;"/><line style="stroke:#0A9EFD;stroke-width:2.0;" x1="175" x2="482" y1="674.1245" y2="674.1245"/><text fill="#0A9EFD" font-family="Arial" font-size="13" lengthAdjust="spacing" textLength="204" x="227.5" y="654.4209">Call API methods to adjust or mute</text><text fill="#0A9EFD" font-family="Arial" font-size="13" lengthAdjust="spacing" textLength="176" x="245.5" y="669.3696">the local or remote audio track</text><polygon fill="#0A9EFD" points="163,699.0732,173,703.0732,163,707.0732,167,703.0732" style="stroke:#0A9EFD;stroke-width:1.0;"/><line style="stroke:#0A9EFD;stroke-width:2.0;" x1="38" x2="169" y1="703.0732" y2="703.0732"/><text fill="#0A9EFD" font-family="Arial" font-size="13" lengthAdjust="spacing" textLength="113" x="50" y="698.3184">Mute/Unmute audio</text><polygon fill="#0A9EFD" points="476,742.9707,486,746.9707,476,750.9707,480,746.9707" style="stroke:#0A9EFD;stroke-width:1.0;"/><line style="stroke:#0A9EFD;stroke-width:2.0;" x1="175" x2="482" y1="746.9707" y2="746.9707"/><text fill="#0A9EFD" font-family="Arial" font-size="13" lengthAdjust="spacing" textLength="227" x="216" y="727.2671">Call the API method to mute or unmute</text><text fill="#0A9EFD" font-family="Arial" font-size="13" lengthAdjust="spacing" textLength="117" x="275" y="742.2158">the local audio track</text><polygon fill="#0A9EFD" points="163,778.9194,173,782.9194,163,786.9194,167,782.9194" style="stroke:#0A9EFD;stroke-width:1.0;"/><line style="stroke:#0A9EFD;stroke-width:2.0;" x1="38" x2="169" y1="782.9194" y2="782.9194"/><text fill="#0A9EFD" font-family="Arial" font-size="13" lengthAdjust="spacing" textLength="106" x="53.5" y="778.1646">Leave the channel</text><polygon fill="#0A9EFD" points="476,807.8682,486,811.8682,476,815.8682,480,811.8682" style="stroke:#0A9EFD;stroke-width:1.0;"/><line style="stroke:#0A9EFD;stroke-width:2.0;" x1="175" x2="482" y1="811.8682" y2="811.8682"/><text fill="#0A9EFD" font-family="Arial" font-size="13" lengthAdjust="spacing" textLength="106" x="278.5" y="807.1133">Leave the channel</text><!--SRC=[XPDDZjD048NtFaMHVP8zYv521gG00r52a916GfLsZztZTbMhVnBcKXo2ar7jIHmRBzXOSVTxzTMhSjuOKZQL6XQBvScKckUXR9POiSUVeJ6qCAcrHO4gieVP8MW_0mnmsE-AuiY_OFQ3amTqRbOuzD4euv0YpBwpKHhszvyw-MgxBJIL88wBRPK9_tZszxjlN_xylZWsDuVGO7wNgxo5hquJh9mhvAq_bBwW9q9aK5vZr80YpI1uJvKX3OP2H59wP5vVjIKuYoyGQmsM5Lh0L1g6w54r8yUx5uSXo7Napd4KUGFdMZfx961QNIu-eB6w17tI4e-LIZuKHUKvEVZ8XaQvyW4Wg1g9jCsu-LrtiTFH6ocHSKAGSM4qJ9AoqVa9pnFdQz7DfMZESxc4FDDh2zjqj2RKNV1zEWRbpL6Fx5T5hj0QvTdLB5Fi1fB9WyhYs_HP-cgTAAi3F7bkWSNX8SbN54QW1oIi-gbBFrwtd7ToMq0OzRxcjfKPdDatJvRFuV_hCLIDa0ToWtJJVGztiogVKuXmOflQyOJMQ6t-1QsEDPSX1yPNjVnVsYGP7cb0aCDfj17hGJpB0tNMJZFbvN8tPaPsQgcTQ8eSWhe93ccVDSgNDTxZZJQz_Gi0]--></g></svg>