<?xml version="1.0" encoding="us-ascii" standalone="no"?><svg xmlns="http://www.w3.org/2000/svg" xmlns:xlink="http://www.w3.org/1999/xlink" contentStyleType="text/css" height="662px" preserveAspectRatio="none" style="width:533px;height:662px;" version="1.1" viewBox="0 0 533 662" width="533px" zoomAndPan="magnify"><defs/><g><rect fill="none" height="660.4282" style="stroke:#0A9EFD;stroke-width:1.0;" width="531" x="0" y="0"/><rect fill="#999999" fill-opacity="0.33333" height="650.4282" style="stroke:#0A9EFD;stroke-width:0.5;" width="89" x="123.5" y="6"/><text fill="#0A9EFD" font-family="sans-serif" font-size="13" font-weight="bold" lengthAdjust="spacing" textLength="62" x="137" y="18.5684">Your app</text><rect fill="#999999" fill-opacity="0.33333" height="650.4282" style="stroke:#0A9EFD;stroke-width:0.5;" width="80" x="441" y="6"/><text fill="#0A9EFD" font-family="sans-serif" font-size="13" font-weight="bold" lengthAdjust="spacing" textLength="41" x="460.5" y="18.5684">Agora</text><rect fill="#0A9EFD" fill-opacity="0.06667" height="116.7949" style="stroke:#0A9EFD;stroke-width:2.0;" width="517" x="10" y="173.9961"/><rect fill="#0A9EFD" fill-opacity="0.06667" height="103.7949" style="stroke:#0A9EFD;stroke-width:2.0;" width="409.5" x="117.5" y="304.791"/><rect fill="#0A9EFD" fill-opacity="0.06667" height="74.8462" style="stroke:#0A9EFD;stroke-width:2.0;" width="517" x="10" y="422.5859"/><line style="stroke:#0A9EFD;stroke-width:0.5;stroke-dasharray:5.0,5.0;" x1="38" x2="38" y1="86.0986" y2="572.3296"/><line style="stroke:#0A9EFD;stroke-width:0.5;stroke-dasharray:5.0,5.0;" x1="167.5" x2="167.5" y1="86.0986" y2="572.3296"/><line style="stroke:#0A9EFD;stroke-width:0.5;stroke-dasharray:5.0,5.0;" x1="481" x2="481" y1="86.0986" y2="572.3296"/><text fill="#0A9EFD" font-family="Arial" font-size="14" lengthAdjust="spacing" textLength="30" x="20" y="83.1318">User</text><ellipse cx="38" cy="16" fill="none" rx="8" ry="8" style="stroke:#0A9EFD;stroke-width:3.0;"/><path d="M38,24 L38,51 M25,32 L51,32 M38,51 L25,66 M38,51 L51,66 " fill="none" style="stroke:#0A9EFD;stroke-width:3.0;"/><text fill="#0A9EFD" font-family="Arial" font-size="14" lengthAdjust="spacing" textLength="30" x="20" y="584.4614">User</text><ellipse cx="38" cy="598.4282" fill="none" rx="8" ry="8" style="stroke:#0A9EFD;stroke-width:3.0;"/><path d="M38,606.4282 L38,633.4282 M25,614.4282 L51,614.4282 M38,633.4282 L25,648.4282 M38,633.4282 L51,648.4282 " fill="none" style="stroke:#0A9EFD;stroke-width:3.0;"/><rect fill="none" height="30.0986" rx="2.5" ry="2.5" style="stroke:#0A9EFD;stroke-width:2.0;" width="81" x="127.5" y="55"/><text fill="#0A9EFD" font-family="Arial" font-size="14" lengthAdjust="spacing" textLength="67" x="134.5" y="75.1318">Voice SDK</text><rect fill="none" height="30.0986" rx="2.5" ry="2.5" style="stroke:#0A9EFD;stroke-width:2.0;" width="81" x="127.5" y="571.3296"/><text fill="#0A9EFD" font-family="Arial" font-size="14" lengthAdjust="spacing" textLength="67" x="134.5" y="591.4614">Voice SDK</text><rect fill="none" height="30.0986" rx="2.5" ry="2.5" style="stroke:#0A9EFD;stroke-width:2.0;" width="72" x="445" y="55"/><text fill="#0A9EFD" font-family="Arial" font-size="14" lengthAdjust="spacing" textLength="58" x="452" y="75.1318">SDRTN&#174;</text><rect fill="none" height="30.0986" rx="2.5" ry="2.5" style="stroke:#0A9EFD;stroke-width:2.0;" width="72" x="445" y="571.3296"/><text fill="#0A9EFD" font-family="Arial" font-size="14" lengthAdjust="spacing" textLength="58" x="452" y="591.4614">SDRTN&#174;</text><polygon fill="#0A9EFD" points="156,113.0474,166,117.0474,156,121.0474,160,117.0474" style="stroke:#0A9EFD;stroke-width:1.0;"/><line style="stroke:#0A9EFD;stroke-width:2.0;" x1="38" x2="162" y1="117.0474" y2="117.0474"/><text fill="#0A9EFD" font-family="Arial" font-size="13" lengthAdjust="spacing" textLength="58" x="74" y="112.2925">Open App</text><line style="stroke:#0A9EFD;stroke-width:2.0;" x1="168" x2="210" y1="145.9961" y2="145.9961"/><line style="stroke:#0A9EFD;stroke-width:2.0;" x1="210" x2="210" y1="145.9961" y2="158.9961"/><line style="stroke:#0A9EFD;stroke-width:2.0;" x1="169" x2="210" y1="158.9961" y2="158.9961"/><polygon fill="#0A9EFD" points="179,154.9961,169,158.9961,179,162.9961,175,158.9961" style="stroke:#0A9EFD;stroke-width:1.0;"/><text fill="#0A9EFD" font-family="Arial" font-size="13" lengthAdjust="spacing" textLength="299" x="175" y="141.2412">Use Voice SDK to create an Agora Engine instance</text><path d="M10,173.9961 L79,173.9961 L79,180.9448 L69,190.9448 L10,190.9448 L10,173.9961 " fill="#EEEEEE" style="stroke:#0A9EFD;stroke-width:1.5;"/><rect fill="none" height="116.7949" style="stroke:#0A9EFD;stroke-width:2.0;" width="517" x="10" y="173.9961"/><text fill="#000000" font-family="Arial" font-size="13" lengthAdjust="spacing" textLength="24" x="25" y="187.1899">Join</text><polygon fill="#0A9EFD" points="156,207.8936,166,211.8936,156,215.8936,160,211.8936" style="stroke:#0A9EFD;stroke-width:1.0;"/><line style="stroke:#0A9EFD;stroke-width:2.0;" x1="38" x2="162" y1="211.8936" y2="211.8936"/><text fill="#0A9EFD" font-family="Arial" font-size="13" lengthAdjust="spacing" textLength="84" x="61" y="207.1387">Join a channel</text><line style="stroke:#0A9EFD;stroke-width:2.0;" x1="168" x2="210" y1="240.8423" y2="240.8423"/><line style="stroke:#0A9EFD;stroke-width:2.0;" x1="210" x2="210" y1="240.8423" y2="253.8423"/><line style="stroke:#0A9EFD;stroke-width:2.0;" x1="169" x2="210" y1="253.8423" y2="253.8423"/><polygon fill="#0A9EFD" points="179,249.8423,169,253.8423,179,257.8423,175,253.8423" style="stroke:#0A9EFD;stroke-width:1.0;"/><text fill="#0A9EFD" font-family="Arial" font-size="13" lengthAdjust="spacing" textLength="268" x="175" y="236.0874">Retrieve authentication token to join a channel</text><polygon fill="#0A9EFD" points="469,278.791,479,282.791,469,286.791,473,282.791" style="stroke:#0A9EFD;stroke-width:1.0;"/><line style="stroke:#0A9EFD;stroke-width:2.0;" x1="168" x2="475" y1="282.791" y2="282.791"/><text fill="#0A9EFD" font-family="Arial" font-size="13" lengthAdjust="spacing" textLength="95" x="277" y="278.0361">Join the channel</text><path d="M117.5,304.791 L292.5,304.791 L292.5,311.7397 L282.5,321.7397 L117.5,321.7397 L117.5,304.791 " fill="#EEEEEE" style="stroke:#0A9EFD;stroke-width:1.5;"/><rect fill="none" height="103.7949" style="stroke:#0A9EFD;stroke-width:2.0;" width="409.5" x="117.5" y="304.791"/><text fill="#000000" font-family="Arial" font-size="13" lengthAdjust="spacing" textLength="130" x="132.5" y="317.9849">Publish and Subscribe</text><polygon fill="#0A9EFD" points="469,338.6885,479,342.6885,469,346.6885,473,342.6885" style="stroke:#0A9EFD;stroke-width:1.0;"/><line style="stroke:#0A9EFD;stroke-width:2.0;" x1="168" x2="475" y1="342.6885" y2="342.6885"/><text fill="#0A9EFD" font-family="Arial" font-size="13" lengthAdjust="spacing" textLength="244" x="202.5" y="337.9336">Publish microphone stream to the channel</text><polygon fill="#0A9EFD" points="179,367.6372,169,371.6372,179,375.6372,175,371.6372" style="stroke:#0A9EFD;stroke-width:1.0;"/><line style="stroke:#0A9EFD;stroke-width:2.0;" x1="173" x2="480" y1="371.6372" y2="371.6372"/><text fill="#0A9EFD" font-family="Arial" font-size="13" lengthAdjust="spacing" textLength="223" x="213" y="366.8823">Subscribe to streams from other users</text><polygon fill="#0A9EFD" points="469,396.5859,479,400.5859,469,404.5859,473,400.5859" style="stroke:#0A9EFD;stroke-width:1.0;"/><line style="stroke:#0A9EFD;stroke-width:2.0;" x1="168" x2="475" y1="400.5859" y2="400.5859"/><text fill="#0A9EFD" font-family="Arial" font-size="13" lengthAdjust="spacing" textLength="197" x="226" y="395.8311">Manage local and remote streams</text><path d="M10,422.5859 L168,422.5859 L168,429.5347 L158,439.5347 L10,439.5347 L10,422.5859 " fill="#EEEEEE" style="stroke:#0A9EFD;stroke-width:1.5;"/><rect fill="none" height="74.8462" style="stroke:#0A9EFD;stroke-width:2.0;" width="517" x="10" y="422.5859"/><text fill="#000000" font-family="Arial" font-size="13" lengthAdjust="spacing" textLength="113" x="25" y="435.7798">Common workflows</text><polygon fill="#0A9EFD" points="156,456.4834,166,460.4834,156,464.4834,160,460.4834" style="stroke:#0A9EFD;stroke-width:1.0;"/><line style="stroke:#0A9EFD;stroke-width:2.0;" x1="38" x2="162" y1="460.4834" y2="460.4834"/><text fill="#0A9EFD" font-family="Arial" font-size="13" lengthAdjust="spacing" textLength="83" x="61.5" y="455.7285">Adjust volume</text><polygon fill="#0A9EFD" points="469,485.4321,479,489.4321,469,493.4321,473,489.4321" style="stroke:#0A9EFD;stroke-width:1.0;"/><line style="stroke:#0A9EFD;stroke-width:2.0;" x1="168" x2="475" y1="489.4321" y2="489.4321"/><text fill="#0A9EFD" font-family="Arial" font-size="13" lengthAdjust="spacing" textLength="250" x="199.5" y="484.6772">Call API methods to adjust or mute volume</text><polygon fill="#0A9EFD" points="156,521.3809,166,525.3809,156,529.3809,160,525.3809" style="stroke:#0A9EFD;stroke-width:1.0;"/><line style="stroke:#0A9EFD;stroke-width:2.0;" x1="38" x2="162" y1="525.3809" y2="525.3809"/><text fill="#0A9EFD" font-family="Arial" font-size="13" lengthAdjust="spacing" textLength="106" x="50" y="520.626">Leave the channel</text><polygon fill="#0A9EFD" points="469,550.3296,479,554.3296,469,558.3296,473,554.3296" style="stroke:#0A9EFD;stroke-width:1.0;"/><line style="stroke:#0A9EFD;stroke-width:2.0;" x1="168" x2="475" y1="554.3296" y2="554.3296"/><text fill="#0A9EFD" font-family="Arial" font-size="13" lengthAdjust="spacing" textLength="106" x="271.5" y="549.5747">Leave the channel</text><!--SRC=[PPB9JiCm48RlVeeXzvOx1wGAE9IrQW694vewGsDgUomlXQVY8NWonbr20vV8iUVx5oSdncjRMeBn-7HZMk9HQjUdkEA8hsbj_DWKPvL2dJb2yvGeDe09dXPpfPRy2SqBbmWOGgC2ncoq2UWpDCziDC7YycOxFfdD5FaMXDXZa-hmXrbSpX_llx_snFIN43SOdLULCtW8v64IWfAtVbDoGUy8cK57mao0CbgDuCglZ2SmFcNqcfHQHIu1hjduWNhT00JTeVTagyVeV7imfnmDRKIov8wyXCPis8lNckeJtl-HEz7fNbIemo7KPeS8ixAq9dKIjOL5MIOTpP86-6726HqvT2mzKfP-hjeUoGeqxOlqKdLeDvxWBR835YH2aI-P1ZPtw755O5cZtQQ9v3XJ3n-7lc3dfFm7n_MRvOyqkCD9-rvIXWtRuePDBj3QkW97kUCsrMoucvQ_onLnsrDRhsFHMqAv_67RN-7_fpy0]--></g></svg>