<?xml version="1.0" encoding="us-ascii" standalone="no"?><svg xmlns="http://www.w3.org/2000/svg" xmlns:xlink="http://www.w3.org/1999/xlink" contentStyleType="text/css" height="662px" preserveAspectRatio="none" style="width:527px;height:662px;" version="1.1" viewBox="0 0 527 662" width="527px" zoomAndPan="magnify"><defs/><g><rect fill="none" height="660.4282" style="stroke:#0A9EFD;stroke-width:1.0;" width="525.5" x="0" y="0"/><rect fill="#999999" fill-opacity="0.33333" height="650.4282" style="stroke:#0A9EFD;stroke-width:0.5;" width="89" x="121" y="6"/><text fill="#0A9EFD" font-family="sans-serif" font-size="13" font-weight="bold" lengthAdjust="spacing" textLength="57" x="137" y="19.4951">Your app</text><rect fill="#999999" fill-opacity="0.33333" height="650.4282" style="stroke:#0A9EFD;stroke-width:0.5;" width="74" x="441.5" y="6"/><text fill="#0A9EFD" font-family="sans-serif" font-size="13" font-weight="bold" lengthAdjust="spacing" textLength="38" x="459.5" y="19.4951">Agora</text><rect fill="#0A9EFD" fill-opacity="0.06667" height="116.7949" style="stroke:#0A9EFD;stroke-width:2.0;" width="511.5" x="10" y="173.9961"/><rect fill="#0A9EFD" fill-opacity="0.06667" height="103.7949" style="stroke:#0A9EFD;stroke-width:2.0;" width="406.5" x="115" y="304.791"/><rect fill="#0A9EFD" fill-opacity="0.06667" height="74.8462" style="stroke:#0A9EFD;stroke-width:2.0;" width="511.5" x="10" y="422.5859"/><line style="stroke:#0A9EFD;stroke-width:0.5;stroke-dasharray:5.0,5.0;" x1="37" x2="37" y1="86.0986" y2="572.3296"/><line style="stroke:#0A9EFD;stroke-width:0.5;stroke-dasharray:5.0,5.0;" x1="165" x2="165" y1="86.0986" y2="572.3296"/><line style="stroke:#0A9EFD;stroke-width:0.5;stroke-dasharray:5.0,5.0;" x1="478.5" x2="478.5" y1="86.0986" y2="572.3296"/><text fill="#0A9EFD" font-family="Arial" font-size="14" lengthAdjust="spacing" textLength="29" x="20" y="83.1318">User</text><ellipse cx="37.5" cy="16" fill="none" rx="8" ry="8" style="stroke:#0A9EFD;stroke-width:3.0;"/><path d="M37.5,24 L37.5,51 M24.5,32 L50.5,32 M37.5,51 L24.5,66 M37.5,51 L50.5,66 " fill="none" style="stroke:#0A9EFD;stroke-width:3.0;"/><text fill="#0A9EFD" font-family="Arial" font-size="14" lengthAdjust="spacing" textLength="29" x="20" y="584.4614">User</text><ellipse cx="37.5" cy="598.4282" fill="none" rx="8" ry="8" style="stroke:#0A9EFD;stroke-width:3.0;"/><path d="M37.5,606.4282 L37.5,633.4282 M24.5,614.4282 L50.5,614.4282 M37.5,633.4282 L24.5,648.4282 M37.5,633.4282 L50.5,648.4282 " fill="none" style="stroke:#0A9EFD;stroke-width:3.0;"/><rect fill="none" height="30.0986" rx="2.5" ry="2.5" style="stroke:#0A9EFD;stroke-width:2.0;" width="81" x="125" y="55"/><text fill="#0A9EFD" font-family="Arial" font-size="14" lengthAdjust="spacing" textLength="67" x="132" y="75.1318">Voice SDK</text><rect fill="none" height="30.0986" rx="2.5" ry="2.5" style="stroke:#0A9EFD;stroke-width:2.0;" width="81" x="125" y="571.3296"/><text fill="#0A9EFD" font-family="Arial" font-size="14" lengthAdjust="spacing" textLength="67" x="132" y="591.4614">Voice SDK</text><rect fill="none" height="30.0986" rx="2.5" ry="2.5" style="stroke:#0A9EFD;stroke-width:2.0;" width="66" x="445.5" y="55"/><text fill="#0A9EFD" font-family="Arial" font-size="14" lengthAdjust="spacing" textLength="52" x="452.5" y="75.1318">SD-RTN</text><rect fill="none" height="30.0986" rx="2.5" ry="2.5" style="stroke:#0A9EFD;stroke-width:2.0;" width="66" x="445.5" y="571.3296"/><text fill="#0A9EFD" font-family="Arial" font-size="14" lengthAdjust="spacing" textLength="52" x="452.5" y="591.4614">SD-RTN</text><polygon fill="#0A9EFD" points="153.5,113.0474,163.5,117.0474,153.5,121.0474,157.5,117.0474" style="stroke:#0A9EFD;stroke-width:1.0;"/><line style="stroke:#0A9EFD;stroke-width:2.0;" x1="37.5" x2="159.5" y1="117.0474" y2="117.0474"/><text fill="#0A9EFD" font-family="Arial" font-size="13" lengthAdjust="spacing" textLength="58" x="72.5" y="112.2925">Open App</text><line style="stroke:#0A9EFD;stroke-width:2.0;" x1="165.5" x2="207.5" y1="145.9961" y2="145.9961"/><line style="stroke:#0A9EFD;stroke-width:2.0;" x1="207.5" x2="207.5" y1="145.9961" y2="158.9961"/><line style="stroke:#0A9EFD;stroke-width:2.0;" x1="166.5" x2="207.5" y1="158.9961" y2="158.9961"/><polygon fill="#0A9EFD" points="176.5,154.9961,166.5,158.9961,176.5,162.9961,172.5,158.9961" style="stroke:#0A9EFD;stroke-width:1.0;"/><text fill="#0A9EFD" font-family="Arial" font-size="13" lengthAdjust="spacing" textLength="299" x="172.5" y="141.2412">Use Voice SDK to create an Agora Engine instance</text><path d="M10,173.9961 L78,173.9961 L78,180.9448 L68,190.9448 L10,190.9448 L10,173.9961 " fill="#EEEEEE" style="stroke:#0A9EFD;stroke-width:1.5;"/><rect fill="none" height="116.7949" style="stroke:#0A9EFD;stroke-width:2.0;" width="511.5" x="10" y="173.9961"/><text fill="#000000" font-family="Arial" font-size="13" lengthAdjust="spacing" textLength="23" x="25" y="187.1899">Join</text><polygon fill="#0A9EFD" points="153.5,207.8936,163.5,211.8936,153.5,215.8936,157.5,211.8936" style="stroke:#0A9EFD;stroke-width:1.0;"/><line style="stroke:#0A9EFD;stroke-width:2.0;" x1="37.5" x2="159.5" y1="211.8936" y2="211.8936"/><text fill="#0A9EFD" font-family="Arial" font-size="13" lengthAdjust="spacing" textLength="83" x="60" y="207.1387">Join a channel</text><line style="stroke:#0A9EFD;stroke-width:2.0;" x1="165.5" x2="207.5" y1="240.8423" y2="240.8423"/><line style="stroke:#0A9EFD;stroke-width:2.0;" x1="207.5" x2="207.5" y1="240.8423" y2="253.8423"/><line style="stroke:#0A9EFD;stroke-width:2.0;" x1="166.5" x2="207.5" y1="253.8423" y2="253.8423"/><polygon fill="#0A9EFD" points="176.5,249.8423,166.5,253.8423,176.5,257.8423,172.5,253.8423" style="stroke:#0A9EFD;stroke-width:1.0;"/><text fill="#0A9EFD" font-family="Arial" font-size="13" lengthAdjust="spacing" textLength="266" x="172.5" y="236.0874">Retrieve authentication token to join a channel</text><polygon fill="#0A9EFD" points="466.5,278.791,476.5,282.791,466.5,286.791,470.5,282.791" style="stroke:#0A9EFD;stroke-width:1.0;"/><line style="stroke:#0A9EFD;stroke-width:2.0;" x1="165.5" x2="472.5" y1="282.791" y2="282.791"/><text fill="#0A9EFD" font-family="Arial" font-size="13" lengthAdjust="spacing" textLength="94" x="275" y="278.0361">Join the channel</text><path d="M115,304.791 L290,304.791 L290,311.7397 L280,321.7397 L115,321.7397 L115,304.791 " fill="#EEEEEE" style="stroke:#0A9EFD;stroke-width:1.5;"/><rect fill="none" height="103.7949" style="stroke:#0A9EFD;stroke-width:2.0;" width="406.5" x="115" y="304.791"/><text fill="#000000" font-family="Arial" font-size="13" lengthAdjust="spacing" textLength="130" x="130" y="317.9849">Publish and Subscribe</text><polygon fill="#0A9EFD" points="466.5,338.6885,476.5,342.6885,466.5,346.6885,470.5,342.6885" style="stroke:#0A9EFD;stroke-width:1.0;"/><line style="stroke:#0A9EFD;stroke-width:2.0;" x1="165.5" x2="472.5" y1="342.6885" y2="342.6885"/><text fill="#0A9EFD" font-family="Arial" font-size="13" lengthAdjust="spacing" textLength="244" x="200" y="337.9336">Publish microphone stream to the channel</text><polygon fill="#0A9EFD" points="176.5,367.6372,166.5,371.6372,176.5,375.6372,172.5,371.6372" style="stroke:#0A9EFD;stroke-width:1.0;"/><line style="stroke:#0A9EFD;stroke-width:2.0;" x1="170.5" x2="477.5" y1="371.6372" y2="371.6372"/><text fill="#0A9EFD" font-family="Arial" font-size="13" lengthAdjust="spacing" textLength="222" x="211" y="366.8823">Subscribe to streams from other users</text><polygon fill="#0A9EFD" points="466.5,396.5859,476.5,400.5859,466.5,404.5859,470.5,400.5859" style="stroke:#0A9EFD;stroke-width:1.0;"/><line style="stroke:#0A9EFD;stroke-width:2.0;" x1="165.5" x2="472.5" y1="400.5859" y2="400.5859"/><text fill="#0A9EFD" font-family="Arial" font-size="13" lengthAdjust="spacing" textLength="197" x="223.5" y="395.8311">Manage local and remote streams</text><path d="M10,422.5859 L167,422.5859 L167,429.5347 L157,439.5347 L10,439.5347 L10,422.5859 " fill="#EEEEEE" style="stroke:#0A9EFD;stroke-width:1.5;"/><rect fill="none" height="74.8462" style="stroke:#0A9EFD;stroke-width:2.0;" width="511.5" x="10" y="422.5859"/><text fill="#000000" font-family="Arial" font-size="13" lengthAdjust="spacing" textLength="112" x="25" y="435.7798">Common workflows</text><polygon fill="#0A9EFD" points="153.5,456.4834,163.5,460.4834,153.5,464.4834,157.5,460.4834" style="stroke:#0A9EFD;stroke-width:1.0;"/><line style="stroke:#0A9EFD;stroke-width:2.0;" x1="37.5" x2="159.5" y1="460.4834" y2="460.4834"/><text fill="#0A9EFD" font-family="Arial" font-size="13" lengthAdjust="spacing" textLength="81" x="61" y="455.7285">Adjust volume</text><polygon fill="#0A9EFD" points="466.5,485.4321,476.5,489.4321,466.5,493.4321,470.5,489.4321" style="stroke:#0A9EFD;stroke-width:1.0;"/><line style="stroke:#0A9EFD;stroke-width:2.0;" x1="165.5" x2="472.5" y1="489.4321" y2="489.4321"/><text fill="#0A9EFD" font-family="Arial" font-size="13" lengthAdjust="spacing" textLength="247" x="198.5" y="484.6772">Call API methods to adjust or mute volume</text><polygon fill="#0A9EFD" points="153.5,521.3809,163.5,525.3809,153.5,529.3809,157.5,525.3809" style="stroke:#0A9EFD;stroke-width:1.0;"/><line style="stroke:#0A9EFD;stroke-width:2.0;" x1="37.5" x2="159.5" y1="525.3809" y2="525.3809"/><text fill="#0A9EFD" font-family="Arial" font-size="13" lengthAdjust="spacing" textLength="104" x="49.5" y="520.626">Leave the channel</text><polygon fill="#0A9EFD" points="466.5,550.3296,476.5,554.3296,466.5,558.3296,470.5,554.3296" style="stroke:#0A9EFD;stroke-width:1.0;"/><line style="stroke:#0A9EFD;stroke-width:2.0;" x1="165.5" x2="472.5" y1="554.3296" y2="554.3296"/><text fill="#0A9EFD" font-family="Arial" font-size="13" lengthAdjust="spacing" textLength="104" x="270" y="549.5747">Leave the channel</text><!--SRC=[PPB9JiCm48RlVeeXz_8072fLmA6iLKkHEA6fCstSsXxB2_3uZBka3LmYnvxlNvnS6QzjQGbmmn4_qyxuQrESLGfrvWZDCb5i01Ci5tEbLlm3pGUN21X2emB6RBG9w3CqxsmqmUBkSJy-cSqK-HQ4E6AJwl27MToDvcylHs1w1iGCHkCgSWElWJnCGb3orczABEWD8JFeI9YbXenM7xZt6-C9Z4yPlIQbDf5BW0SsVg1UDm11T-WzsUen6kyFvfIZeI-HBBaZBvan6_RYjQFwXEq_yY0wFOeATJg4skmKOLPMrgHEehQmAAkaerdH03zDEACZXuwbHyhIprNR2rc1fdsHNgeE7SOJh2CxO44Y5FcGQM3pZ1ut19OrsdsQI8upzV1bw5jsJif_SzojBN-dmHrEscr96RxO5ZTiSelMrXKuoXstgMR3mxJyNAw8sv7QUrsAFX7AvG_RdeN_d_u2]--></g></svg>