<svg xmlns="http://www.w3.org/2000/svg" xmlns:xlink="http://www.w3.org/1999/xlink" contentStyleType="text/css" data-diagram-type="SEQUENCE" height="920px" preserveAspectRatio="none" style="width:546px;height:920px;" version="1.1" viewBox="0 0 546 920" width="546px" zoomAndPan="magnify"><?plantuml 1.2026.4?><defs/><g><rect fill="none" height="918.9668" style="stroke:#0A9EFD;stroke-width:1;" width="544.677" x="0" y="0"/><rect fill="#999999" fill-opacity="0.33333" height="907.9668" style="stroke:#0A9EFD;stroke-width:0.5;" width="89.6963" x="130.3828" y="6"/><text fill="#0A9EFD" font-family="sans-serif" font-size="13" font-weight="700" lengthAdjust="spacing" textLength="56.3354" x="147.0632" y="19.4951">Your app</text><rect fill="#999999" fill-opacity="0.33333" height="907.9668" style="stroke:#0A9EFD;stroke-width:0.5;" width="78.3257" x="446.3513" y="6"/><text fill="#0A9EFD" font-family="sans-serif" font-size="13" font-weight="700" lengthAdjust="spacing" textLength="37.5591" x="466.7346" y="19.4951">Agora</text><rect fill="#0A9EFD" fill-opacity="0.06667" height="116.7949" style="stroke:#0A9EFD;stroke-width:2;" width="520.677" x="10" y="272.8423"/><rect fill="#0A9EFD" fill-opacity="0.06667" height="103.7949" style="stroke:#0A9EFD;stroke-width:2;" width="406.2942" x="124.3828" y="403.6372"/><rect fill="#0A9EFD" fill-opacity="0.06667" height="233.5386" style="stroke:#0A9EFD;stroke-width:2;" width="520.677" x="10" y="521.4321"/><g class="participant-lifeline" data-entity-uid="part1" data-qualified-name="USR" data-source-line="3" id="part1-lifeline"><g><title>User</title><rect fill="#000000" fill-opacity="0.00000" height="743.7695" width="8" x="33.7793" y="86.0986"/><line style="stroke:#0A9EFD;stroke-width:0.5;stroke-dasharray:5,5;" x1="37" x2="37" y1="86.0986" y2="829.8682"/></g></g><g class="participant-lifeline" data-entity-uid="part2" data-qualified-name="APP" data-source-line="6" id="part2-lifeline"><g><title>Voice SDK</title><rect fill="#000000" fill-opacity="0.00000" height="743.7695" width="8" x="171.231" y="86.0986"/><line style="stroke:#0A9EFD;stroke-width:0.5;stroke-dasharray:5,5;" x1="174.3828" x2="174.3828" y1="86.0986" y2="829.8682"/></g></g><g class="participant-lifeline" data-entity-uid="part3" data-qualified-name="API" data-source-line="10" id="part3-lifeline"><g><title>SDRTN.sup....sup.</title><rect fill="#000000" fill-opacity="0.00000" height="743.7695" width="8" x="481.5142" y="86.0986"/><line style="stroke:#0A9EFD;stroke-width:0.5;stroke-dasharray:5,5;" x1="485.3513" x2="485.3513" y1="86.0986" y2="829.8682"/></g></g><g class="participant participant-head" data-entity-uid="part1" data-qualified-name="USR" data-source-line="3" id="part1-head"><text fill="#0A9EFD" font-family="Arial" font-size="14" lengthAdjust="spacing" textLength="29.5586" x="20" y="83.1318">User</text><ellipse cx="37.7793" cy="16" fill="none" rx="8" ry="8" style="stroke:#0A9EFD;stroke-width:3;"/><path d="M37.7793,24 L37.7793,51 M24.7793,32 L50.7793,32 M37.7793,51 L24.7793,66 M37.7793,51 L50.7793,66" fill="none" style="stroke:#0A9EFD;stroke-width:3;"/></g><g class="participant participant-tail" data-entity-uid="part1" data-qualified-name="USR" data-source-line="3" id="part1-tail"><text fill="#0A9EFD" font-family="Arial" font-size="14" lengthAdjust="spacing" textLength="29.5586" x="20" y="842">User</text><ellipse cx="37.7793" cy="855.9668" fill="none" rx="8" ry="8" style="stroke:#0A9EFD;stroke-width:3;"/><path d="M37.7793,863.9668 L37.7793,890.9668 M24.7793,871.9668 L50.7793,871.9668 M37.7793,890.9668 L24.7793,905.9668 M37.7793,890.9668 L50.7793,905.9668" fill="none" style="stroke:#0A9EFD;stroke-width:3;"/></g><g class="participant participant-head" data-entity-uid="part2" data-qualified-name="APP" data-source-line="6" id="part2-head"><rect fill="none" height="30.0986" rx="2.5" ry="2.5" style="stroke:#0A9EFD;stroke-width:2;" width="81.6963" x="134.3828" y="55"/><text fill="#0A9EFD" font-family="Arial" font-size="14" lengthAdjust="spacing" textLength="67.6963" x="141.3828" y="75.1318">Voice SDK</text></g><g class="participant participant-tail" data-entity-uid="part2" data-qualified-name="APP" data-source-line="6" id="part2-tail"><rect fill="none" height="30.0986" rx="2.5" ry="2.5" style="stroke:#0A9EFD;stroke-width:2;" width="81.6963" x="134.3828" y="828.8682"/><text fill="#0A9EFD" font-family="Arial" font-size="14" lengthAdjust="spacing" textLength="67.6963" x="141.3828" y="849">Voice SDK</text></g><g class="participant participant-head" data-entity-uid="part3" data-qualified-name="API" data-source-line="10" id="part3-head"><rect fill="none" height="32.6489" rx="2.5" ry="2.5" style="stroke:#0A9EFD;stroke-width:2;" width="70.3257" x="450.3513" y="52.4497"/><text fill="#0A9EFD" font-family="Arial" font-size="14" lengthAdjust="spacing" textLength="48.2207" x="457.3513" y="75.1318">SDRTN</text><text fill="#0A9EFD" font-family="Arial" font-size="11" lengthAdjust="spacing" textLength="8.105" x="505.572" y="69.7676">&#174;</text></g><g class="participant participant-tail" data-entity-uid="part3" data-qualified-name="API" data-source-line="10" id="part3-tail"><rect fill="none" height="32.6489" rx="2.5" ry="2.5" style="stroke:#0A9EFD;stroke-width:2;" width="70.3257" x="450.3513" y="828.8682"/><text fill="#0A9EFD" font-family="Arial" font-size="14" lengthAdjust="spacing" textLength="48.2207" x="457.3513" y="851.5503">SDRTN</text><text fill="#0A9EFD" font-family="Arial" font-size="11" lengthAdjust="spacing" textLength="8.105" x="505.572" y="846.186">&#174;</text></g><g class="message" data-entity-1="part1" data-entity-2="part2" data-source-line="13" id="msg1"><polygon fill="#0A9EFD" points="163.231,113.0474,173.231,117.0474,163.231,121.0474,167.231,117.0474" style="stroke:#0A9EFD;stroke-width:1;stroke-linejoin:miter;stroke-miterlimit:10;"/><line style="stroke:#0A9EFD;stroke-width:2;" x1="37.7793" x2="169.231" y1="117.0474" y2="117.0474"/><text fill="#0A9EFD" font-family="Arial" font-size="13" lengthAdjust="spacing" textLength="58.5444" x="77.2329" y="112.2925">Open App</text></g><g class="message" data-entity-1="part2" data-entity-2="part2" data-source-line="14" id="msg2"><line style="stroke:#0A9EFD;stroke-width:2;" x1="175.231" x2="217.231" y1="145.9961" y2="145.9961"/><line style="stroke:#0A9EFD;stroke-width:2;" x1="217.231" x2="217.231" y1="145.9961" y2="158.9961"/><line style="stroke:#0A9EFD;stroke-width:2;" x1="176.231" x2="217.231" y1="158.9961" y2="158.9961"/><polygon fill="#0A9EFD" points="186.231,154.9961,176.231,158.9961,186.231,162.9961,182.231,158.9961" style="stroke:#0A9EFD;stroke-width:1;stroke-linejoin:miter;stroke-miterlimit:10;"/><text fill="#0A9EFD" font-family="Arial" font-size="13" lengthAdjust="spacing" textLength="296.2832" x="182.231" y="141.2412">Use Voice SDK to create an Agora Engine instance</text></g><g class="message" data-entity-1="part2" data-entity-2="part2" data-source-line="15" id="msg3"><line style="stroke:#0A9EFD;stroke-width:2;" x1="175.231" x2="217.231" y1="187.9448" y2="187.9448"/><line style="stroke:#0A9EFD;stroke-width:2;" x1="217.231" x2="217.231" y1="187.9448" y2="200.9448"/><line style="stroke:#0A9EFD;stroke-width:2;" x1="176.231" x2="217.231" y1="200.9448" y2="200.9448"/><polygon fill="#0A9EFD" points="186.231,196.9448,176.231,200.9448,186.231,204.9448,182.231,200.9448" style="stroke:#0A9EFD;stroke-width:1;stroke-linejoin:miter;stroke-miterlimit:10;"/><text fill="#0A9EFD" font-family="Arial" font-size="13" lengthAdjust="spacing" textLength="211.0151" x="182.231" y="183.1899">Create and play the local audio track</text></g><g class="message" data-entity-1="part2" data-entity-2="part2" data-source-line="16" id="msg4"><line style="stroke:#0A9EFD;stroke-width:2;" x1="175.231" x2="217.231" y1="244.8423" y2="244.8423"/><line style="stroke:#0A9EFD;stroke-width:2;" x1="217.231" x2="217.231" y1="244.8423" y2="257.8423"/><line style="stroke:#0A9EFD;stroke-width:2;" x1="176.231" x2="217.231" y1="257.8423" y2="257.8423"/><polygon fill="#0A9EFD" points="186.231,253.8423,176.231,257.8423,186.231,261.8423,182.231,257.8423" style="stroke:#0A9EFD;stroke-width:1;stroke-linejoin:miter;stroke-miterlimit:10;"/><text fill="#0A9EFD" font-family="Arial" font-size="13" lengthAdjust="spacing" textLength="164.0425" x="189.0959" y="225.1387">Bypass autoplay block when</text><text fill="#0A9EFD" font-family="Arial" font-size="13" lengthAdjust="spacing" textLength="177.7725" x="185.8428" y="240.0874">onAutoplayFailed event occurs</text></g><path d="M10,272.8423 L78.8481,272.8423 L78.8481,279.791 L68.8481,289.791 L10,289.791 L10,272.8423" fill="#EEEEEE" style="stroke:#0A9EFD;stroke-width:1.5;"/><rect fill="none" height="116.7949" style="stroke:#0A9EFD;stroke-width:2;" width="520.677" x="10" y="272.8423"/><text fill="#000000" font-family="Arial" font-size="13" lengthAdjust="spacing" textLength="23.8481" x="25" y="286.0361">Join</text><g class="message" data-entity-1="part1" data-entity-2="part2" data-source-line="19" id="msg5"><polygon fill="#0A9EFD" points="163.231,306.7397,173.231,310.7397,163.231,314.7397,167.231,310.7397" style="stroke:#0A9EFD;stroke-width:1;stroke-linejoin:miter;stroke-miterlimit:10;"/><line style="stroke:#0A9EFD;stroke-width:2;" x1="37.7793" x2="169.231" y1="310.7397" y2="310.7397"/><text fill="#0A9EFD" font-family="Arial" font-size="13" lengthAdjust="spacing" textLength="83.8398" x="64.5852" y="305.9849">Join a channel</text></g><g class="message" data-entity-1="part2" data-entity-2="part2" data-source-line="20" id="msg6"><line style="stroke:#0A9EFD;stroke-width:2;" x1="175.231" x2="217.231" y1="339.6885" y2="339.6885"/><line style="stroke:#0A9EFD;stroke-width:2;" x1="217.231" x2="217.231" y1="339.6885" y2="352.6885"/><line style="stroke:#0A9EFD;stroke-width:2;" x1="176.231" x2="217.231" y1="352.6885" y2="352.6885"/><polygon fill="#0A9EFD" points="186.231,348.6885,176.231,352.6885,186.231,356.6885,182.231,352.6885" style="stroke:#0A9EFD;stroke-width:1;stroke-linejoin:miter;stroke-miterlimit:10;"/><text fill="#0A9EFD" font-family="Arial" font-size="13" lengthAdjust="spacing" textLength="266.6777" x="182.231" y="334.9336">Retrieve authentication token to join a channel</text></g><g class="message" data-entity-1="part2" data-entity-2="part3" data-source-line="21" id="msg7"><polygon fill="#0A9EFD" points="473.5142,377.6372,483.5142,381.6372,473.5142,385.6372,477.5142,381.6372" style="stroke:#0A9EFD;stroke-width:1;stroke-linejoin:miter;stroke-miterlimit:10;"/><line style="stroke:#0A9EFD;stroke-width:2;" x1="175.231" x2="479.5142" y1="381.6372" y2="381.6372"/><text fill="#0A9EFD" font-family="Arial" font-size="13" lengthAdjust="spacing" textLength="94.6816" x="283.0317" y="376.8823">Join the channel</text></g><path d="M124.3828,403.6372 L298.7417,403.6372 L298.7417,410.5859 L288.7417,420.5859 L124.3828,420.5859 L124.3828,403.6372" fill="#EEEEEE" style="stroke:#0A9EFD;stroke-width:1.5;"/><rect fill="none" height="103.7949" style="stroke:#0A9EFD;stroke-width:2;" width="406.2942" x="124.3828" y="403.6372"/><text fill="#000000" font-family="Arial" font-size="13" lengthAdjust="spacing" textLength="129.3589" x="139.3828" y="416.8311">Publish and Subscribe</text><g class="message" data-entity-1="part2" data-entity-2="part3" data-source-line="25" id="msg8"><polygon fill="#0A9EFD" points="473.5142,437.5347,483.5142,441.5347,473.5142,445.5347,477.5142,441.5347" style="stroke:#0A9EFD;stroke-width:1;stroke-linejoin:miter;stroke-miterlimit:10;"/><line style="stroke:#0A9EFD;stroke-width:2;" x1="175.231" x2="479.5142" y1="441.5347" y2="441.5347"/><text fill="#0A9EFD" font-family="Arial" font-size="13" lengthAdjust="spacing" textLength="252.9287" x="203.9082" y="436.7798">Publish the microphone track to the channel</text></g><g class="message" data-entity-1="part3" data-entity-2="part2" data-source-line="26" id="msg9"><polygon fill="#0A9EFD" points="186.231,466.4834,176.231,470.4834,186.231,474.4834,182.231,470.4834" style="stroke:#0A9EFD;stroke-width:1;stroke-linejoin:miter;stroke-miterlimit:10;"/><line style="stroke:#0A9EFD;stroke-width:2;" x1="180.231" x2="484.5142" y1="470.4834" y2="470.4834"/><text fill="#0A9EFD" font-family="Arial" font-size="13" lengthAdjust="spacing" textLength="208.7998" x="225.9727" y="465.7285">Subscribe to tracks from other users</text></g><g class="message" data-entity-1="part2" data-entity-2="part3" data-source-line="27" id="msg10"><polygon fill="#0A9EFD" points="473.5142,495.4321,483.5142,499.4321,473.5142,503.4321,477.5142,499.4321" style="stroke:#0A9EFD;stroke-width:1;stroke-linejoin:miter;stroke-miterlimit:10;"/><line style="stroke:#0A9EFD;stroke-width:2;" x1="175.231" x2="479.5142" y1="499.4321" y2="499.4321"/><text fill="#0A9EFD" font-family="Arial" font-size="13" lengthAdjust="spacing" textLength="220.4033" x="220.1709" y="494.6772">Manage local and remote audio tracks</text></g><path d="M10,521.4321 L168.4136,521.4321 L168.4136,528.3809 L158.4136,538.3809 L10,538.3809 L10,521.4321" fill="#EEEEEE" style="stroke:#0A9EFD;stroke-width:1.5;"/><rect fill="none" height="233.5386" style="stroke:#0A9EFD;stroke-width:2;" width="520.677" x="10" y="521.4321"/><text fill="#000000" font-family="Arial" font-size="13" lengthAdjust="spacing" textLength="113.4136" x="25" y="534.626">Common workflows</text><g class="message" data-entity-1="part2" data-entity-2="part2" data-source-line="31" id="msg11"><line style="stroke:#0A9EFD;stroke-width:2;" x1="175.231" x2="217.231" y1="559.3296" y2="559.3296"/><line style="stroke:#0A9EFD;stroke-width:2;" x1="217.231" x2="217.231" y1="559.3296" y2="572.3296"/><line style="stroke:#0A9EFD;stroke-width:2;" x1="176.231" x2="217.231" y1="572.3296" y2="572.3296"/><polygon fill="#0A9EFD" points="186.231,568.3296,176.231,572.3296,186.231,576.3296,182.231,572.3296" style="stroke:#0A9EFD;stroke-width:1;stroke-linejoin:miter;stroke-miterlimit:10;"/><text fill="#0A9EFD" font-family="Arial" font-size="13" lengthAdjust="spacing" textLength="146.7007" x="182.231" y="554.5747">Bypass autoplay blocking</text></g><g class="message" data-entity-1="part2" data-entity-2="part3" data-source-line="32" id="msg12"><polygon fill="#0A9EFD" points="473.5142,597.2783,483.5142,601.2783,473.5142,605.2783,477.5142,601.2783" style="stroke:#0A9EFD;stroke-width:1;stroke-linejoin:miter;stroke-miterlimit:10;"/><line style="stroke:#0A9EFD;stroke-width:2;" x1="175.231" x2="479.5142" y1="601.2783" y2="601.2783"/><text fill="#0A9EFD" font-family="Arial" font-size="13" lengthAdjust="spacing" textLength="177.0488" x="241.8481" y="596.5234">Unpublish the local audio track</text></g><g class="message" data-entity-1="part1" data-entity-2="part2" data-source-line="33" id="msg13"><polygon fill="#0A9EFD" points="163.231,626.2271,173.231,630.2271,163.231,634.2271,167.231,630.2271" style="stroke:#0A9EFD;stroke-width:1;stroke-linejoin:miter;stroke-miterlimit:10;"/><line style="stroke:#0A9EFD;stroke-width:2;" x1="37.7793" x2="169.231" y1="630.2271" y2="630.2271"/><text fill="#0A9EFD" font-family="Arial" font-size="13" lengthAdjust="spacing" textLength="81.6499" x="65.6802" y="625.4722">Adjust volume</text></g><g class="message" data-entity-1="part2" data-entity-2="part3" data-source-line="34" id="msg14"><polygon fill="#0A9EFD" points="473.5142,670.1245,483.5142,674.1245,473.5142,678.1245,477.5142,674.1245" style="stroke:#0A9EFD;stroke-width:1;stroke-linejoin:miter;stroke-miterlimit:10;"/><line style="stroke:#0A9EFD;stroke-width:2;" x1="175.231" x2="479.5142" y1="674.1245" y2="674.1245"/><text fill="#0A9EFD" font-family="Arial" font-size="13" lengthAdjust="spacing" textLength="200.8716" x="228.1309" y="654.4209">Call API methods to adjust or mute</text><text fill="#0A9EFD" font-family="Arial" font-size="13" lengthAdjust="spacing" textLength="174.8652" x="244.7458" y="669.3696">the local or remote audio track</text></g><g class="message" data-entity-1="part1" data-entity-2="part2" data-source-line="35" id="msg15"><polygon fill="#0A9EFD" points="163.231,699.0732,173.231,703.0732,163.231,707.0732,167.231,703.0732" style="stroke:#0A9EFD;stroke-width:1;stroke-linejoin:miter;stroke-miterlimit:10;"/><line style="stroke:#0A9EFD;stroke-width:2;" x1="37.7793" x2="169.231" y1="703.0732" y2="703.0732"/><text fill="#0A9EFD" font-family="Arial" font-size="13" lengthAdjust="spacing" textLength="113.4517" x="49.7793" y="698.3184">Mute/Unmute audio</text></g><g class="message" data-entity-1="part2" data-entity-2="part3" data-source-line="36" id="msg16"><polygon fill="#0A9EFD" points="473.5142,742.9707,483.5142,746.9707,473.5142,750.9707,477.5142,746.9707" style="stroke:#0A9EFD;stroke-width:1;stroke-linejoin:miter;stroke-miterlimit:10;"/><line style="stroke:#0A9EFD;stroke-width:2;" x1="175.231" x2="479.5142" y1="746.9707" y2="746.9707"/><text fill="#0A9EFD" font-family="Arial" font-size="13" lengthAdjust="spacing" textLength="224.7261" x="216.2036" y="727.2671">Call the API method to mute or unmute</text><text fill="#0A9EFD" font-family="Arial" font-size="13" lengthAdjust="spacing" textLength="115.6226" x="274.3672" y="742.2158">the local audio track</text></g><g class="message" data-entity-1="part1" data-entity-2="part2" data-source-line="39" id="msg17"><polygon fill="#0A9EFD" points="163.231,778.9194,173.231,782.9194,163.231,786.9194,167.231,782.9194" style="stroke:#0A9EFD;stroke-width:1;stroke-linejoin:miter;stroke-miterlimit:10;"/><line style="stroke:#0A9EFD;stroke-width:2;" x1="37.7793" x2="169.231" y1="782.9194" y2="782.9194"/><text fill="#0A9EFD" font-family="Arial" font-size="13" lengthAdjust="spacing" textLength="106.2534" x="53.3784" y="778.1646">Leave the channel</text></g><g class="message" data-entity-1="part2" data-entity-2="part3" data-source-line="40" id="msg18"><polygon fill="#0A9EFD" points="473.5142,807.8682,483.5142,811.8682,473.5142,815.8682,477.5142,811.8682" style="stroke:#0A9EFD;stroke-width:1;stroke-linejoin:miter;stroke-miterlimit:10;"/><line style="stroke:#0A9EFD;stroke-width:2;" x1="175.231" x2="479.5142" y1="811.8682" y2="811.8682"/><text fill="#0A9EFD" font-family="Arial" font-size="13" lengthAdjust="spacing" textLength="106.2534" x="277.2458" y="807.1133">Leave the channel</text></g><?plantuml-src XPFBZjD044Nt_eeY-oHxD8eKCY0568WIWeGq4YgtQ-8UjxjQ_KYOd-8Z-3AgFNdOUC4cZ-vxwzIjijzegqog26Qp-L5NnDDGDNCyiCUVeT5sfbDhYW9LP0-JVI0_0GomtssBekHVCFd1oGCwDoaS-gYLTcWZJBwpLWIx-q-TVBdP56Gh4CVPjio4Vpox--stBtSXkSMVttVp_7qshszc0SDqaGk-XQ-EB2oTA-JVzL1QX2iS8eFoX940HPgPyDuUj2NGDaIqYWRcrKLRWJFu0h4cCApG0APACqIFgXauthqu346k8tUEKkGDd6hfxD42s-NvuWDgGnNGaIGfAvLyA8g3v-JW8sixo9KF047LQ2sPZ9ikkeijHQ-bHCO9GIQ7KRELb0tbJtWUEL-Bhiz5Svxp9UIPNbhOfDBeK7V1TwaCokkI1lQB8bTejVBiQfOfTWF9v5vbyQslMQxLEb5M1tZot0ABmqEI1oeCG0zeyN2TklJZgUMyazi2mg3t5RUjpE34ldaoV0h_Nu-sXm5oRrqltNZV_Tqig-SK8XpPf7OueHKQatz1Ix7cAkJ0-AgMLwTDak7HzWXoE8usO3s8PxwtdRNJZ7cvt8sPaPrQQYSxHlP1tGJxjC-4ycGDztYZZM__0W00?></g></svg>