<svg xmlns="http://www.w3.org/2000/svg" xmlns:xlink="http://www.w3.org/1999/xlink" contentStyleType="text/css" data-diagram-type="SEQUENCE" height="663px" preserveAspectRatio="none" style="width:539px;height:663px;" version="1.1" viewBox="0 0 539 663" width="539px" zoomAndPan="magnify"><?plantuml 1.2026.4?><defs/><g><rect fill="none" height="661.4282" style="stroke:#0A9EFD;stroke-width:1;" width="537.4788" x="0" y="0"/><rect fill="#999999" fill-opacity="0.33333" height="650.4282" style="stroke:#0A9EFD;stroke-width:0.5;" width="89.6963" x="123.1846" y="6"/><text fill="#0A9EFD" font-family="sans-serif" font-size="13" font-weight="700" lengthAdjust="spacing" textLength="56.3354" x="139.865" y="19.4951">Your app</text><rect fill="#999999" fill-opacity="0.33333" height="650.4282" style="stroke:#0A9EFD;stroke-width:0.5;" width="78.3257" x="439.1531" y="6"/><text fill="#0A9EFD" font-family="sans-serif" font-size="13" font-weight="700" lengthAdjust="spacing" textLength="37.5591" x="459.5364" y="19.4951">Agora</text><rect fill="#0A9EFD" fill-opacity="0.06667" height="116.7949" style="stroke:#0A9EFD;stroke-width:2;" width="513.4788" x="10" y="173.9961"/><rect fill="#0A9EFD" fill-opacity="0.06667" height="103.7949" style="stroke:#0A9EFD;stroke-width:2;" width="406.2942" x="117.1846" y="304.791"/><rect fill="#0A9EFD" fill-opacity="0.06667" height="74.8462" style="stroke:#0A9EFD;stroke-width:2;" width="513.4788" x="10" y="422.5859"/><g class="participant-lifeline" data-entity-uid="part1" data-qualified-name="USR" data-source-line="3" id="part1-lifeline"><g><title>User</title><rect fill="#000000" fill-opacity="0.00000" height="486.231" width="8" x="33.7793" y="86.0986"/><line style="stroke:#0A9EFD;stroke-width:0.5;stroke-dasharray:5,5;" x1="37" x2="37" y1="86.0986" y2="572.3296"/></g></g><g class="participant-lifeline" data-entity-uid="part2" data-qualified-name="APP" data-source-line="6" id="part2-lifeline"><g><title>Voice SDK</title><rect fill="#000000" fill-opacity="0.00000" height="486.231" width="8" x="164.0327" y="86.0986"/><line style="stroke:#0A9EFD;stroke-width:0.5;stroke-dasharray:5,5;" x1="167.1846" x2="167.1846" y1="86.0986" y2="572.3296"/></g></g><g class="participant-lifeline" data-entity-uid="part3" data-qualified-name="API" data-source-line="10" id="part3-lifeline"><g><title>SDRTN.sup....sup.</title><rect fill="#000000" fill-opacity="0.00000" height="486.231" width="8" x="474.3159" y="86.0986"/><line style="stroke:#0A9EFD;stroke-width:0.5;stroke-dasharray:5,5;" x1="478.1531" x2="478.1531" y1="86.0986" y2="572.3296"/></g></g><g class="participant participant-head" data-entity-uid="part1" data-qualified-name="USR" data-source-line="3" id="part1-head"><text fill="#0A9EFD" font-family="Arial" font-size="14" lengthAdjust="spacing" textLength="29.5586" x="20" y="83.1318">User</text><ellipse cx="37.7793" cy="16" fill="none" rx="8" ry="8" style="stroke:#0A9EFD;stroke-width:3;"/><path d="M37.7793,24 L37.7793,51 M24.7793,32 L50.7793,32 M37.7793,51 L24.7793,66 M37.7793,51 L50.7793,66" fill="none" style="stroke:#0A9EFD;stroke-width:3;"/></g><g class="participant participant-tail" data-entity-uid="part1" data-qualified-name="USR" data-source-line="3" id="part1-tail"><text fill="#0A9EFD" font-family="Arial" font-size="14" lengthAdjust="spacing" textLength="29.5586" x="20" y="584.4614">User</text><ellipse cx="37.7793" cy="598.4282" fill="none" rx="8" ry="8" style="stroke:#0A9EFD;stroke-width:3;"/><path d="M37.7793,606.4282 L37.7793,633.4282 M24.7793,614.4282 L50.7793,614.4282 M37.7793,633.4282 L24.7793,648.4282 M37.7793,633.4282 L50.7793,648.4282" fill="none" style="stroke:#0A9EFD;stroke-width:3;"/></g><g class="participant participant-head" data-entity-uid="part2" data-qualified-name="APP" data-source-line="6" id="part2-head"><rect fill="none" height="30.0986" rx="2.5" ry="2.5" style="stroke:#0A9EFD;stroke-width:2;" width="81.6963" x="127.1846" y="55"/><text fill="#0A9EFD" font-family="Arial" font-size="14" lengthAdjust="spacing" textLength="67.6963" x="134.1846" y="75.1318">Voice SDK</text></g><g class="participant participant-tail" data-entity-uid="part2" data-qualified-name="APP" data-source-line="6" id="part2-tail"><rect fill="none" height="30.0986" rx="2.5" ry="2.5" style="stroke:#0A9EFD;stroke-width:2;" width="81.6963" x="127.1846" y="571.3296"/><text fill="#0A9EFD" font-family="Arial" font-size="14" lengthAdjust="spacing" textLength="67.6963" x="134.1846" y="591.4614">Voice SDK</text></g><g class="participant participant-head" data-entity-uid="part3" data-qualified-name="API" data-source-line="10" id="part3-head"><rect fill="none" height="32.6489" rx="2.5" ry="2.5" style="stroke:#0A9EFD;stroke-width:2;" width="70.3257" x="443.1531" y="52.4497"/><text fill="#0A9EFD" font-family="Arial" font-size="14" lengthAdjust="spacing" textLength="48.2207" x="450.1531" y="75.1318">SDRTN</text><text fill="#0A9EFD" font-family="Arial" font-size="11" lengthAdjust="spacing" textLength="8.105" x="498.3738" y="69.7676">&#174;</text></g><g class="participant participant-tail" data-entity-uid="part3" data-qualified-name="API" data-source-line="10" id="part3-tail"><rect fill="none" height="32.6489" rx="2.5" ry="2.5" style="stroke:#0A9EFD;stroke-width:2;" width="70.3257" x="443.1531" y="571.3296"/><text fill="#0A9EFD" font-family="Arial" font-size="14" lengthAdjust="spacing" textLength="48.2207" x="450.1531" y="594.0117">SDRTN</text><text fill="#0A9EFD" font-family="Arial" font-size="11" lengthAdjust="spacing" textLength="8.105" x="498.3738" y="588.6475">&#174;</text></g><g class="message" data-entity-1="part1" data-entity-2="part2" data-source-line="13" id="msg1"><polygon fill="#0A9EFD" points="156.0327,113.0474,166.0327,117.0474,156.0327,121.0474,160.0327,117.0474" style="stroke:#0A9EFD;stroke-width:1;stroke-linejoin:miter;stroke-miterlimit:10;"/><line style="stroke:#0A9EFD;stroke-width:2;" x1="37.7793" x2="162.0327" y1="117.0474" y2="117.0474"/><text fill="#0A9EFD" font-family="Arial" font-size="13" lengthAdjust="spacing" textLength="58.5444" x="73.6338" y="112.2925">Open App</text></g><g class="message" data-entity-1="part2" data-entity-2="part2" data-source-line="14" id="msg2"><line style="stroke:#0A9EFD;stroke-width:2;" x1="168.0327" x2="210.0327" y1="145.9961" y2="145.9961"/><line style="stroke:#0A9EFD;stroke-width:2;" x1="210.0327" x2="210.0327" y1="145.9961" y2="158.9961"/><line style="stroke:#0A9EFD;stroke-width:2;" x1="169.0327" x2="210.0327" y1="158.9961" y2="158.9961"/><polygon fill="#0A9EFD" points="179.0327,154.9961,169.0327,158.9961,179.0327,162.9961,175.0327,158.9961" style="stroke:#0A9EFD;stroke-width:1;stroke-linejoin:miter;stroke-miterlimit:10;"/><text fill="#0A9EFD" font-family="Arial" font-size="13" lengthAdjust="spacing" textLength="296.2832" x="175.0327" y="141.2412">Use Voice SDK to create an Agora Engine instance</text></g><path d="M10,173.9961 L78.8481,173.9961 L78.8481,180.9448 L68.8481,190.9448 L10,190.9448 L10,173.9961" fill="#EEEEEE" style="stroke:#0A9EFD;stroke-width:1.5;"/><rect fill="none" height="116.7949" style="stroke:#0A9EFD;stroke-width:2;" width="513.4788" x="10" y="173.9961"/><text fill="#000000" font-family="Arial" font-size="13" lengthAdjust="spacing" textLength="23.8481" x="25" y="187.1899">Join</text><g class="message" data-entity-1="part1" data-entity-2="part2" data-source-line="17" id="msg3"><polygon fill="#0A9EFD" points="156.0327,207.8936,166.0327,211.8936,156.0327,215.8936,160.0327,211.8936" style="stroke:#0A9EFD;stroke-width:1;stroke-linejoin:miter;stroke-miterlimit:10;"/><line style="stroke:#0A9EFD;stroke-width:2;" x1="37.7793" x2="162.0327" y1="211.8936" y2="211.8936"/><text fill="#0A9EFD" font-family="Arial" font-size="13" lengthAdjust="spacing" textLength="83.8398" x="60.9861" y="207.1387">Join a channel</text></g><g class="message" data-entity-1="part2" data-entity-2="part2" data-source-line="18" id="msg4"><line style="stroke:#0A9EFD;stroke-width:2;" x1="168.0327" x2="210.0327" y1="240.8423" y2="240.8423"/><line style="stroke:#0A9EFD;stroke-width:2;" x1="210.0327" x2="210.0327" y1="240.8423" y2="253.8423"/><line style="stroke:#0A9EFD;stroke-width:2;" x1="169.0327" x2="210.0327" y1="253.8423" y2="253.8423"/><polygon fill="#0A9EFD" points="179.0327,249.8423,169.0327,253.8423,179.0327,257.8423,175.0327,253.8423" style="stroke:#0A9EFD;stroke-width:1;stroke-linejoin:miter;stroke-miterlimit:10;"/><text fill="#0A9EFD" font-family="Arial" font-size="13" lengthAdjust="spacing" textLength="266.6777" x="175.0327" y="236.0874">Retrieve authentication token to join a channel</text></g><g class="message" data-entity-1="part2" data-entity-2="part3" data-source-line="19" id="msg5"><polygon fill="#0A9EFD" points="466.3159,278.791,476.3159,282.791,466.3159,286.791,470.3159,282.791" style="stroke:#0A9EFD;stroke-width:1;stroke-linejoin:miter;stroke-miterlimit:10;"/><line style="stroke:#0A9EFD;stroke-width:2;" x1="168.0327" x2="472.3159" y1="282.791" y2="282.791"/><text fill="#0A9EFD" font-family="Arial" font-size="13" lengthAdjust="spacing" textLength="94.6816" x="275.8335" y="278.0361">Join the channel</text></g><path d="M117.1846,304.791 L291.5435,304.791 L291.5435,311.7397 L281.5435,321.7397 L117.1846,321.7397 L117.1846,304.791" fill="#EEEEEE" style="stroke:#0A9EFD;stroke-width:1.5;"/><rect fill="none" height="103.7949" style="stroke:#0A9EFD;stroke-width:2;" width="406.2942" x="117.1846" y="304.791"/><text fill="#000000" font-family="Arial" font-size="13" lengthAdjust="spacing" textLength="129.3589" x="132.1846" y="317.9849">Publish and Subscribe</text><g class="message" data-entity-1="part2" data-entity-2="part3" data-source-line="23" id="msg6"><polygon fill="#0A9EFD" points="466.3159,338.6885,476.3159,342.6885,466.3159,346.6885,470.3159,342.6885" style="stroke:#0A9EFD;stroke-width:1;stroke-linejoin:miter;stroke-miterlimit:10;"/><line style="stroke:#0A9EFD;stroke-width:2;" x1="168.0327" x2="472.3159" y1="342.6885" y2="342.6885"/><text fill="#0A9EFD" font-family="Arial" font-size="13" lengthAdjust="spacing" textLength="242.8042" x="201.7722" y="337.9336">Publish microphone stream to the channel</text></g><g class="message" data-entity-1="part3" data-entity-2="part2" data-source-line="24" id="msg7"><polygon fill="#0A9EFD" points="179.0327,367.6372,169.0327,371.6372,179.0327,375.6372,175.0327,371.6372" style="stroke:#0A9EFD;stroke-width:1;stroke-linejoin:miter;stroke-miterlimit:10;"/><line style="stroke:#0A9EFD;stroke-width:2;" x1="173.0327" x2="477.3159" y1="371.6372" y2="371.6372"/><text fill="#0A9EFD" font-family="Arial" font-size="13" lengthAdjust="spacing" textLength="220.3589" x="212.9949" y="366.8823">Subscribe to streams from other users</text></g><g class="message" data-entity-1="part2" data-entity-2="part3" data-source-line="25" id="msg8"><polygon fill="#0A9EFD" points="466.3159,396.5859,476.3159,400.5859,466.3159,404.5859,470.3159,400.5859" style="stroke:#0A9EFD;stroke-width:1;stroke-linejoin:miter;stroke-miterlimit:10;"/><line style="stroke:#0A9EFD;stroke-width:2;" x1="168.0327" x2="472.3159" y1="400.5859" y2="400.5859"/><text fill="#0A9EFD" font-family="Arial" font-size="13" lengthAdjust="spacing" textLength="196.5425" x="224.9031" y="395.8311">Manage local and remote streams</text></g><path d="M10,422.5859 L168.4136,422.5859 L168.4136,429.5347 L158.4136,439.5347 L10,439.5347 L10,422.5859" fill="#EEEEEE" style="stroke:#0A9EFD;stroke-width:1.5;"/><rect fill="none" height="74.8462" style="stroke:#0A9EFD;stroke-width:2;" width="513.4788" x="10" y="422.5859"/><text fill="#000000" font-family="Arial" font-size="13" lengthAdjust="spacing" textLength="113.4136" x="25" y="435.7798">Common workflows</text><g class="message" data-entity-1="part1" data-entity-2="part2" data-source-line="29" id="msg9"><polygon fill="#0A9EFD" points="156.0327,456.4834,166.0327,460.4834,156.0327,464.4834,160.0327,460.4834" style="stroke:#0A9EFD;stroke-width:1;stroke-linejoin:miter;stroke-miterlimit:10;"/><line style="stroke:#0A9EFD;stroke-width:2;" x1="37.7793" x2="162.0327" y1="460.4834" y2="460.4834"/><text fill="#0A9EFD" font-family="Arial" font-size="13" lengthAdjust="spacing" textLength="81.6499" x="62.0811" y="455.7285">Adjust volume</text></g><g class="message" data-entity-1="part2" data-entity-2="part3" data-source-line="30" id="msg10"><polygon fill="#0A9EFD" points="466.3159,485.4321,476.3159,489.4321,466.3159,493.4321,470.3159,489.4321" style="stroke:#0A9EFD;stroke-width:1;stroke-linejoin:miter;stroke-miterlimit:10;"/><line style="stroke:#0A9EFD;stroke-width:2;" x1="168.0327" x2="472.3159" y1="489.4321" y2="489.4321"/><text fill="#0A9EFD" font-family="Arial" font-size="13" lengthAdjust="spacing" textLength="246.3906" x="199.979" y="484.6772">Call API methods to adjust or mute volume</text></g><g class="message" data-entity-1="part1" data-entity-2="part2" data-source-line="33" id="msg11"><polygon fill="#0A9EFD" points="156.0327,521.3809,166.0327,525.3809,156.0327,529.3809,160.0327,525.3809" style="stroke:#0A9EFD;stroke-width:1;stroke-linejoin:miter;stroke-miterlimit:10;"/><line style="stroke:#0A9EFD;stroke-width:2;" x1="37.7793" x2="162.0327" y1="525.3809" y2="525.3809"/><text fill="#0A9EFD" font-family="Arial" font-size="13" lengthAdjust="spacing" textLength="106.2534" x="49.7793" y="520.626">Leave the channel</text></g><g class="message" data-entity-1="part2" data-entity-2="part3" data-source-line="34" id="msg12"><polygon fill="#0A9EFD" points="466.3159,550.3296,476.3159,554.3296,466.3159,558.3296,470.3159,554.3296" style="stroke:#0A9EFD;stroke-width:1;stroke-linejoin:miter;stroke-miterlimit:10;"/><line style="stroke:#0A9EFD;stroke-width:2;" x1="168.0327" x2="472.3159" y1="554.3296" y2="554.3296"/><text fill="#0A9EFD" font-family="Arial" font-size="13" lengthAdjust="spacing" textLength="106.2534" x="270.0476" y="549.5747">Leave the channel</text></g><?plantuml-src PP99JYin48RtFaNH-oHxX295m2AFDqG98B525NUHDh5TbeV0gJW49wESeKa_DZtOzVs3ko-CrxQq1EFnP6TQub5gjnFSSCJdj3L-R8gpIg7E7A5vI1GRm0GFgwLIQtw7vebB10oXKG5ZDje4z1cQHpQQO7Lpjn-VBHQAV0j27B5PTVYFMTqix_zUfHAcdnzNate_mlDlM8nXDAs2b_0la8TP24hU-aM92BqvP0OT2JC1ocZrX5k_CPx0-9JHQr9g4xa4-CN63zJh0Y3e3hqdMpr6q_t6ad8qj1F9aZloaX-pOIzUMwfNUFr17aJdHr6XJfjGcvqYBChQcjH9r1PMPPrqD6iQuAS9PtJaqB7qI5dwkMfx9YlGl2_IIzMXmtY2byWEM908HJvg6jZyGOyR0iiQxJvD9CUPUlWyz3Kx9-NVE6vVBB-bmHdEsjUICkpO5ZTiSetMrYTmb3jkKys6XsdvqLmHjoErzpeN_KqeXpzi-otyS_SB?></g></svg>