<?xml version="1.0" encoding="us-ascii" standalone="no"?><svg xmlns="http://www.w3.org/2000/svg" xmlns:xlink="http://www.w3.org/1999/xlink" contentStyleType="text/css" height="747px" preserveAspectRatio="none" style="width:426px;height:747px;" version="1.1" viewBox="0 0 426 747" width="426px" zoomAndPan="magnify"><defs/><g><rect fill="none" height="745.1206" style="stroke:#0A9EFD;stroke-width:1.0;" width="424" x="0" y="0"/><rect fill="#999999" fill-opacity="0.33333" height="735.1206" style="stroke:#0A9EFD;stroke-width:0.5;" width="89" x="76.5" y="6"/><text fill="#0A9EFD" font-family="sans-serif" font-size="13" font-weight="bold" lengthAdjust="spacing" textLength="62" x="90" y="18.5684">Your app</text><rect fill="#999999" fill-opacity="0.33333" height="735.1206" style="stroke:#0A9EFD;stroke-width:0.5;" width="80" x="334" y="6"/><text fill="#0A9EFD" font-family="sans-serif" font-size="13" font-weight="bold" lengthAdjust="spacing" textLength="41" x="353.5" y="18.5684">Agora</text><rect fill="#0A9EFD" fill-opacity="0.06667" height="292.3848" style="stroke:#0A9EFD;stroke-width:2.0;" width="410" x="10" y="245.8423"/><line style="stroke:#0A9EFD;stroke-width:0.5;stroke-dasharray:5.0,5.0;" x1="38" x2="38" y1="86.0986" y2="657.022"/><line style="stroke:#0A9EFD;stroke-width:0.5;stroke-dasharray:5.0,5.0;" x1="120.5" x2="120.5" y1="86.0986" y2="657.022"/><line style="stroke:#0A9EFD;stroke-width:0.5;stroke-dasharray:5.0,5.0;" x1="374" x2="374" y1="86.0986" y2="657.022"/><text fill="#0A9EFD" font-family="Arial" font-size="14" lengthAdjust="spacing" textLength="30" x="20" y="83.1318">User</text><ellipse cx="38" cy="16" fill="none" rx="8" ry="8" style="stroke:#0A9EFD;stroke-width:3.0;"/><path d="M38,24 L38,51 M25,32 L51,32 M38,51 L25,66 M38,51 L51,66 " fill="none" style="stroke:#0A9EFD;stroke-width:3.0;"/><text fill="#0A9EFD" font-family="Arial" font-size="14" lengthAdjust="spacing" textLength="30" x="20" y="669.1538">User</text><ellipse cx="38" cy="683.1206" fill="none" rx="8" ry="8" style="stroke:#0A9EFD;stroke-width:3.0;"/><path d="M38,691.1206 L38,718.1206 M25,699.1206 L51,699.1206 M38,718.1206 L25,733.1206 M38,718.1206 L51,733.1206 " fill="none" style="stroke:#0A9EFD;stroke-width:3.0;"/><rect fill="none" height="30.0986" rx="2.5" ry="2.5" style="stroke:#0A9EFD;stroke-width:2.0;" width="81" x="80.5" y="55"/><text fill="#0A9EFD" font-family="Arial" font-size="14" lengthAdjust="spacing" textLength="67" x="87.5" y="75.1318">Voice SDK</text><rect fill="none" height="30.0986" rx="2.5" ry="2.5" style="stroke:#0A9EFD;stroke-width:2.0;" width="81" x="80.5" y="656.022"/><text fill="#0A9EFD" font-family="Arial" font-size="14" lengthAdjust="spacing" textLength="67" x="87.5" y="676.1538">Voice SDK</text><rect fill="none" height="30.0986" rx="2.5" ry="2.5" style="stroke:#0A9EFD;stroke-width:2.0;" width="72" x="338" y="55"/><text fill="#0A9EFD" font-family="Arial" font-size="14" lengthAdjust="spacing" textLength="58" x="345" y="75.1318">SDRTN&#174;</text><rect fill="none" height="30.0986" rx="2.5" ry="2.5" style="stroke:#0A9EFD;stroke-width:2.0;" width="72" x="338" y="656.022"/><text fill="#0A9EFD" font-family="Arial" font-size="14" lengthAdjust="spacing" textLength="58" x="345" y="676.1538">SDRTN&#174;</text><polygon fill="#0A9EFD" points="109,113.0474,119,117.0474,109,121.0474,113,117.0474" style="stroke:#0A9EFD;stroke-width:1.0;"/><line style="stroke:#0A9EFD;stroke-width:2.0;" x1="38" x2="115" y1="117.0474" y2="117.0474"/><text fill="#0A9EFD" font-family="Arial" font-size="13" lengthAdjust="spacing" textLength="56" x="51.5" y="112.2925">Open app</text><line style="stroke:#0A9EFD;stroke-width:2.0;" x1="121" x2="163" y1="160.9448" y2="160.9448"/><line style="stroke:#0A9EFD;stroke-width:2.0;" x1="163" x2="163" y1="160.9448" y2="173.9448"/><line style="stroke:#0A9EFD;stroke-width:2.0;" x1="122" x2="163" y1="173.9448" y2="173.9448"/><polygon fill="#0A9EFD" points="132,169.9448,122,173.9448,132,177.9448,128,173.9448" style="stroke:#0A9EFD;stroke-width:1.0;"/><text fill="#0A9EFD" font-family="Arial" font-size="13" lengthAdjust="spacing" textLength="222" x="130" y="141.2412">Initialize the Agora Voice SDK engine:</text><text fill="#0A9EFD" font-family="Arial" font-size="13" lengthAdjust="spacing" textLength="226" x="132" y="156.1899">agoraEngine = createAgoraRtcEngine()</text><line style="stroke:#0A9EFD;stroke-width:2.0;" x1="121" x2="163" y1="217.8423" y2="217.8423"/><line style="stroke:#0A9EFD;stroke-width:2.0;" x1="163" x2="163" y1="217.8423" y2="230.8423"/><line style="stroke:#0A9EFD;stroke-width:2.0;" x1="122" x2="163" y1="230.8423" y2="230.8423"/><polygon fill="#0A9EFD" points="132,226.8423,122,230.8423,132,234.8423,128,230.8423" style="stroke:#0A9EFD;stroke-width:1.0;"/><text fill="#0A9EFD" font-family="Arial" font-size="13" lengthAdjust="spacing" textLength="156" x="148.5" y="198.1387">Register the event handler:</text><text fill="#0A9EFD" font-family="Arial" font-size="13" lengthAdjust="spacing" textLength="197" x="132" y="213.0874">agoraEngine.registerEventHandler</text><path d="M10,245.8423 L114,245.8423 L114,252.791 L104,262.791 L10,262.791 L10,245.8423 " fill="#EEEEEE" style="stroke:#0A9EFD;stroke-width:1.5;"/><rect fill="none" height="292.3848" style="stroke:#0A9EFD;stroke-width:2.0;" width="410" x="10" y="245.8423"/><text fill="#000000" font-family="Arial" font-size="13" lengthAdjust="spacing" textLength="59" x="25" y="259.0361">Voice Call</text><polygon fill="#0A9EFD" points="109,279.7397,119,283.7397,109,287.7397,113,283.7397" style="stroke:#0A9EFD;stroke-width:1.0;"/><line style="stroke:#0A9EFD;stroke-width:2.0;" x1="38" x2="115" y1="283.7397" y2="283.7397"/><text fill="#0A9EFD" font-family="Arial" font-size="13" lengthAdjust="spacing" textLength="59" x="50" y="278.9849">Join a call</text><polygon fill="#0A9EFD" points="362,323.6372,372,327.6372,362,331.6372,366,327.6372" style="stroke:#0A9EFD;stroke-width:1.0;"/><line style="stroke:#0A9EFD;stroke-width:2.0;" x1="121" x2="368" y1="327.6372" y2="327.6372"/><text fill="#0A9EFD" font-family="Arial" font-size="13" lengthAdjust="spacing" textLength="95" x="198" y="307.9336">Set a client role:</text><text fill="#0A9EFD" font-family="Arial" font-size="13" lengthAdjust="spacing" textLength="153" x="173" y="322.8823">agoraEngine.setClientRole</text><polygon fill="#0A9EFD" points="362,367.5347,372,371.5347,362,375.5347,366,371.5347" style="stroke:#0A9EFD;stroke-width:1.0;"/><line style="stroke:#0A9EFD;stroke-width:2.0;" x1="121" x2="368" y1="371.5347" y2="371.5347"/><text fill="#0A9EFD" font-family="Arial" font-size="13" lengthAdjust="spacing" textLength="123" x="184" y="351.8311">Set a channel profile:</text><text fill="#0A9EFD" font-family="Arial" font-size="13" lengthAdjust="spacing" textLength="178" x="160.5" y="366.7798">agoraEngine.setChannelProfile</text><line style="stroke:#0A9EFD;stroke-width:2.0;" x1="121" x2="163" y1="400.4834" y2="400.4834"/><line style="stroke:#0A9EFD;stroke-width:2.0;" x1="163" x2="163" y1="400.4834" y2="413.4834"/><line style="stroke:#0A9EFD;stroke-width:2.0;" x1="122" x2="163" y1="413.4834" y2="413.4834"/><polygon fill="#0A9EFD" points="132,409.4834,122,413.4834,132,417.4834,128,413.4834" style="stroke:#0A9EFD;stroke-width:1.0;"/><text fill="#0A9EFD" font-family="Arial" font-size="13" lengthAdjust="spacing" textLength="169" x="128" y="395.7285">Retrieve authentication token</text><polygon fill="#0A9EFD" points="362,453.3809,372,457.3809,362,461.3809,366,457.3809" style="stroke:#0A9EFD;stroke-width:1.0;"/><line style="stroke:#0A9EFD;stroke-width:2.0;" x1="121" x2="368" y1="457.3809" y2="457.3809"/><text fill="#0A9EFD" font-family="Arial" font-size="13" lengthAdjust="spacing" textLength="181" x="157" y="437.6772">Join a channel using the token:</text><text fill="#0A9EFD" font-family="Arial" font-size="13" lengthAdjust="spacing" textLength="143" x="178" y="452.626">agoraEngine.joinChannel</text><polygon fill="#0A9EFD" points="132,497.2783,122,501.2783,132,505.2783,128,501.2783" style="stroke:#0A9EFD;stroke-width:1.0;"/><line style="stroke:#0A9EFD;stroke-width:2.0;" x1="126" x2="373" y1="501.2783" y2="501.2783"/><text fill="#0A9EFD" font-family="Arial" font-size="13" lengthAdjust="spacing" textLength="116" x="187.5" y="481.5747">Remote user joined:</text><text fill="#0A9EFD" font-family="Arial" font-size="13" lengthAdjust="spacing" textLength="225" x="137" y="496.5234">RtcEngineEventHandler onUserJoined:</text><polygon fill="#0A9EFD" points="132,526.2271,122,530.2271,132,534.2271,128,530.2271" style="stroke:#0A9EFD;stroke-width:1.0;"/><polygon fill="#0A9EFD" points="362,526.2271,372,530.2271,362,534.2271,366,530.2271" style="stroke:#0A9EFD;stroke-width:1.0;"/><line style="stroke:#0A9EFD;stroke-width:2.0;" x1="126" x2="368" y1="530.2271" y2="530.2271"/><text fill="#0A9EFD" font-family="Arial" font-size="13" lengthAdjust="spacing" textLength="181" x="157" y="525.4722">Send and receive data streams</text><polygon fill="#0A9EFD" points="109,562.1758,119,566.1758,109,570.1758,113,566.1758" style="stroke:#0A9EFD;stroke-width:1.0;"/><line style="stroke:#0A9EFD;stroke-width:2.0;" x1="38" x2="115" y1="566.1758" y2="566.1758"/><text fill="#0A9EFD" font-family="Arial" font-size="13" lengthAdjust="spacing" textLength="59" x="50" y="561.4209">Leave call</text><polygon fill="#0A9EFD" points="362,606.0732,372,610.0732,362,614.0732,366,610.0732" style="stroke:#0A9EFD;stroke-width:1.0;"/><line style="stroke:#0A9EFD;stroke-width:2.0;" x1="121" x2="368" y1="610.0732" y2="610.0732"/><text fill="#0A9EFD" font-family="Arial" font-size="13" lengthAdjust="spacing" textLength="106" x="194.5" y="590.3696">Leave the channel</text><text fill="#0A9EFD" font-family="Arial" font-size="13" lengthAdjust="spacing" textLength="162" x="168.5" y="605.3184">agoraEngine.leaveChannel()</text><polygon fill="#0A9EFD" points="109,635.022,119,639.022,109,643.022,113,639.022" style="stroke:#0A9EFD;stroke-width:1.0;"/><line style="stroke:#0A9EFD;stroke-width:2.0;" x1="38" x2="115" y1="639.022" y2="639.022"/><text fill="#0A9EFD" font-family="Arial" font-size="13" lengthAdjust="spacing" textLength="58" x="50.5" y="634.2671">Close app</text><!--SRC=[TLBDJiCm3BxdAKnFS5YvJu24DYG62AOEa92GK6XDCSkIAaadn4Fn43mPJXhAri4nzlVZp_4UwLAr5KAU7wwfGZDorV9GriRA9xSadLExKaB8qXiBsPr3cu5qSBSeX7Wsxv0zcDQ2R9fCDD9wAgcHsaDsRwX4M4ml8_nqFXUeAs16efq6Xm5dCIrkhxy-4sFsos0t69q4bJ7SDAY3d-1NNvnfyYGLVI3uLuGe3lq8WBecZMDuP6PedSKt74DfKNgCyCANNNd_O4kwm9gSHnk5SOqywAlKbK8xrCjjWfu5r7a74gAsfctIC1Efr5QQ2qEi0MMezwwpCIpGXxAYu6UDsXa-T-WdiLrmzoykJwbHGMFD2_t3xo3p3Z58xIrnMf0jvzRyHzAJqU3D4lMMsq-2PDSwqdNSLOIE1wvlZ4wsKULerAaKk38UcSsB3XYiui3zfsok58mETtZHmP9CdvrlXc5WiKJY-Ilf9JZF_xnouQ2sZ-aA9MDsjj-LGuWKQv12XNwAmUUogJXHnc6ypsy0]--></g></svg>