<?xml version="1.0" encoding="us-ascii" standalone="no"?><svg xmlns="http://www.w3.org/2000/svg" xmlns:xlink="http://www.w3.org/1999/xlink" contentStyleType="text/css" height="630px" preserveAspectRatio="none" style="width:466px;height:630px;" version="1.1" viewBox="0 0 466 630" width="466px" zoomAndPan="magnify"><defs/><g><rect fill="none" height="628.377" style="stroke:#0A9EFD;stroke-width:1.0;" width="464" x="0" y="0"/><rect fill="#999999" fill-opacity="0.33333" height="618.377" style="stroke:#0A9EFD;stroke-width:0.5;" width="89" x="98.5" y="6"/><text fill="#0A9EFD" font-family="sans-serif" font-size="13" font-weight="bold" lengthAdjust="spacing" textLength="62" x="112" y="18.5684">Your app</text><rect fill="#999999" fill-opacity="0.33333" height="618.377" style="stroke:#0A9EFD;stroke-width:0.5;" width="80" x="374" y="6"/><text fill="#0A9EFD" font-family="sans-serif" font-size="13" font-weight="bold" lengthAdjust="spacing" textLength="41" x="393.5" y="18.5684">Agora</text><rect fill="#0A9EFD" fill-opacity="0.06667" height="175.6411" style="stroke:#0A9EFD;stroke-width:2.0;" width="450" x="10" y="188.9448"/><line style="stroke:#0A9EFD;stroke-width:0.5;stroke-dasharray:5.0,5.0;" x1="38" x2="38" y1="86.0986" y2="540.2783"/><line style="stroke:#0A9EFD;stroke-width:0.5;stroke-dasharray:5.0,5.0;" x1="142.5" x2="142.5" y1="86.0986" y2="540.2783"/><line style="stroke:#0A9EFD;stroke-width:0.5;stroke-dasharray:5.0,5.0;" x1="414" x2="414" y1="86.0986" y2="540.2783"/><text fill="#0A9EFD" font-family="Arial" font-size="14" lengthAdjust="spacing" textLength="30" x="20" y="83.1318">User</text><ellipse cx="38" cy="16" fill="none" rx="8" ry="8" style="stroke:#0A9EFD;stroke-width:3.0;"/><path d="M38,24 L38,51 M25,32 L51,32 M38,51 L25,66 M38,51 L51,66 " fill="none" style="stroke:#0A9EFD;stroke-width:3.0;"/><text fill="#0A9EFD" font-family="Arial" font-size="14" lengthAdjust="spacing" textLength="30" x="20" y="552.4102">User</text><ellipse cx="38" cy="566.377" fill="none" rx="8" ry="8" style="stroke:#0A9EFD;stroke-width:3.0;"/><path d="M38,574.377 L38,601.377 M25,582.377 L51,582.377 M38,601.377 L25,616.377 M38,601.377 L51,616.377 " fill="none" style="stroke:#0A9EFD;stroke-width:3.0;"/><rect fill="none" height="30.0986" rx="2.5" ry="2.5" style="stroke:#0A9EFD;stroke-width:2.0;" width="81" x="102.5" y="55"/><text fill="#0A9EFD" font-family="Arial" font-size="14" lengthAdjust="spacing" textLength="67" x="109.5" y="75.1318">Voice SDK</text><rect fill="none" height="30.0986" rx="2.5" ry="2.5" style="stroke:#0A9EFD;stroke-width:2.0;" width="81" x="102.5" y="539.2783"/><text fill="#0A9EFD" font-family="Arial" font-size="14" lengthAdjust="spacing" textLength="67" x="109.5" y="559.4102">Voice SDK</text><rect fill="none" height="30.0986" rx="2.5" ry="2.5" style="stroke:#0A9EFD;stroke-width:2.0;" width="72" x="378" y="55"/><text fill="#0A9EFD" font-family="Arial" font-size="14" lengthAdjust="spacing" textLength="58" x="385" y="75.1318">SDRTN&#174;</text><rect fill="none" height="30.0986" rx="2.5" ry="2.5" style="stroke:#0A9EFD;stroke-width:2.0;" width="72" x="378" y="539.2783"/><text fill="#0A9EFD" font-family="Arial" font-size="14" lengthAdjust="spacing" textLength="58" x="385" y="559.4102">SDRTN&#174;</text><polygon fill="#0A9EFD" points="131,113.0474,141,117.0474,131,121.0474,135,117.0474" style="stroke:#0A9EFD;stroke-width:1.0;"/><line style="stroke:#0A9EFD;stroke-width:2.0;" x1="38" x2="137" y1="117.0474" y2="117.0474"/><text fill="#0A9EFD" font-family="Arial" font-size="13" lengthAdjust="spacing" textLength="58" x="61.5" y="112.2925">Open App</text><line style="stroke:#0A9EFD;stroke-width:2.0;" x1="143" x2="185" y1="160.9448" y2="160.9448"/><line style="stroke:#0A9EFD;stroke-width:2.0;" x1="185" x2="185" y1="160.9448" y2="173.9448"/><line style="stroke:#0A9EFD;stroke-width:2.0;" x1="144" x2="185" y1="173.9448" y2="173.9448"/><polygon fill="#0A9EFD" points="154,169.9448,144,173.9448,154,177.9448,150,173.9448" style="stroke:#0A9EFD;stroke-width:1.0;"/><text fill="#0A9EFD" font-family="Arial" font-size="13" lengthAdjust="spacing" textLength="213" x="150" y="141.2412">Initiate the Agora Voice SDK engine:</text><text fill="#0A9EFD" font-family="Arial" font-size="13" lengthAdjust="spacing" textLength="188" x="166.5" y="156.1899">agoraEngine = RtcEngine.create</text><path d="M10,188.9448 L82,188.9448 L82,195.8936 L72,205.8936 L10,205.8936 L10,188.9448 " fill="#EEEEEE" style="stroke:#0A9EFD;stroke-width:1.5;"/><rect fill="none" height="175.6411" style="stroke:#0A9EFD;stroke-width:2.0;" width="450" x="10" y="188.9448"/><text fill="#000000" font-family="Arial" font-size="13" lengthAdjust="spacing" textLength="27" x="25" y="202.1387">User</text><polygon fill="#0A9EFD" points="131,222.8423,141,226.8423,131,230.8423,135,226.8423" style="stroke:#0A9EFD;stroke-width:1.0;"/><line style="stroke:#0A9EFD;stroke-width:2.0;" x1="38" x2="137" y1="226.8423" y2="226.8423"/><text fill="#0A9EFD" font-family="Arial" font-size="13" lengthAdjust="spacing" textLength="59" x="61" y="222.0874">Join a call</text><line style="stroke:#0A9EFD;stroke-width:2.0;" x1="143" x2="185" y1="255.791" y2="255.791"/><line style="stroke:#0A9EFD;stroke-width:2.0;" x1="185" x2="185" y1="255.791" y2="268.791"/><line style="stroke:#0A9EFD;stroke-width:2.0;" x1="144" x2="185" y1="268.791" y2="268.791"/><polygon fill="#0A9EFD" points="154,264.791,144,268.791,154,272.791,150,268.791" style="stroke:#0A9EFD;stroke-width:1.0;"/><text fill="#0A9EFD" font-family="Arial" font-size="13" lengthAdjust="spacing" textLength="257" x="150" y="251.0361">Retrieve authentication token to join channel</text><polygon fill="#0A9EFD" points="402,308.6885,412,312.6885,402,316.6885,406,312.6885" style="stroke:#0A9EFD;stroke-width:1.0;"/><line style="stroke:#0A9EFD;stroke-width:2.0;" x1="143" x2="408" y1="312.6885" y2="312.6885"/><text fill="#0A9EFD" font-family="Arial" font-size="13" lengthAdjust="spacing" textLength="99" x="229" y="292.9849">Join the channel:</text><text fill="#0A9EFD" font-family="Arial" font-size="13" lengthAdjust="spacing" textLength="151" x="205" y="307.9336">agoraEngine.joinChannel()</text><polygon fill="#0A9EFD" points="154,352.5859,144,356.5859,154,360.5859,150,356.5859" style="stroke:#0A9EFD;stroke-width:1.0;"/><line style="stroke:#0A9EFD;stroke-width:2.0;" x1="148" x2="413" y1="356.5859" y2="356.5859"/><text fill="#0A9EFD" font-family="Arial" font-size="13" lengthAdjust="spacing" textLength="116" x="220.5" y="336.8823">Remote user joined:</text><text fill="#0A9EFD" font-family="Arial" font-size="13" lengthAdjust="spacing" textLength="87" x="237" y="351.8311">onUserJoined()</text><polygon fill="#0A9EFD" points="131,388.5347,141,392.5347,131,396.5347,135,392.5347" style="stroke:#0A9EFD;stroke-width:1.0;"/><line style="stroke:#0A9EFD;stroke-width:2.0;" x1="38" x2="137" y1="392.5347" y2="392.5347"/><text fill="#0A9EFD" font-family="Arial" font-size="13" lengthAdjust="spacing" textLength="81" x="50" y="387.7798">Leave the call</text><polygon fill="#0A9EFD" points="402,432.4321,412,436.4321,402,440.4321,406,436.4321" style="stroke:#0A9EFD;stroke-width:1.0;"/><line style="stroke:#0A9EFD;stroke-width:2.0;" x1="143" x2="408" y1="436.4321" y2="436.4321"/><text fill="#0A9EFD" font-family="Arial" font-size="13" lengthAdjust="spacing" textLength="110" x="221.5" y="416.7285">Leave the channel:</text><text fill="#0A9EFD" font-family="Arial" font-size="13" lengthAdjust="spacing" textLength="162" x="199.5" y="431.6772">agoraEngine.leaveChannel()</text><polygon fill="#0A9EFD" points="131,461.3809,141,465.3809,131,469.3809,135,465.3809" style="stroke:#0A9EFD;stroke-width:1.0;"/><line style="stroke:#0A9EFD;stroke-width:2.0;" x1="38" x2="137" y1="465.3809" y2="465.3809"/><text fill="#0A9EFD" font-family="Arial" font-size="13" lengthAdjust="spacing" textLength="58" x="61.5" y="460.626">Close app</text><line style="stroke:#0A9EFD;stroke-width:2.0;" x1="143" x2="185" y1="509.2783" y2="509.2783"/><line style="stroke:#0A9EFD;stroke-width:2.0;" x1="185" x2="185" y1="509.2783" y2="522.2783"/><line style="stroke:#0A9EFD;stroke-width:2.0;" x1="144" x2="185" y1="522.2783" y2="522.2783"/><polygon fill="#0A9EFD" points="154,518.2783,144,522.2783,154,526.2783,150,522.2783" style="stroke:#0A9EFD;stroke-width:1.0;"/><text fill="#0A9EFD" font-family="Arial" font-size="13" lengthAdjust="spacing" textLength="147" x="150" y="489.5747">Clean up local resources:</text><text fill="#0A9EFD" font-family="Arial" font-size="13" lengthAdjust="spacing" textLength="127" x="166" y="504.5234">agoraEngine.destroy()</text><!--SRC=[NP91JiCm44NtFiMG5IoQxYj0gbeMAGYgb28X8I7ZZ5hJr6FPJWMNuX2SZB4JjRYRAEFn-__F91VQgBPh4CfoVD0DqiWtkx7Sa9FlVgTDgRjzAuHKWHmKQu-k0EbXlQg5-A0lA5wfSo2jBOILBcYbhJG1YXVI2c4rlq_NfykbGDC04mCsZGvdp6fUFp_-_Wn4TIBO3KQtKMK2JnODJAqLN1qFAwE3bW4XR16ID1m309gDDZY1DmDfhhjKmmtKGVNlfNB8j10RHvs5E6NckI3DB2ZPjfbjZS5fF238ZeqDJoA39WE1TXYVy1b1jPN6u3-o6XHZsA4voSEL4PprhSkhH5wFUhB6FV6W7MTCyjX4bamClKWr0xovV6iFA0_zTl8XggmrP3dRLDd66wSqcV2i9O_n-sUBcJ5YW5VP4lk1Gyz_YKAVf3Fj1drmz1rb_m00]--></g></svg>