<?xml version="1.0" encoding="us-ascii" standalone="no"?><svg xmlns="http://www.w3.org/2000/svg" xmlns:xlink="http://www.w3.org/1999/xlink" contentStyleType="text/css" height="615px" preserveAspectRatio="none" style="width:485px;height:615px;" version="1.1" viewBox="0 0 485 615" width="485px" zoomAndPan="magnify"><defs/><g><rect fill="none" height="613.4282" style="stroke:#0A9EFD;stroke-width:1.0;" width="483" x="0" y="0"/><rect fill="#999999" fill-opacity="0.33333" height="603.4282" style="stroke:#0A9EFD;stroke-width:0.5;" width="89" x="76.5" y="6"/><text fill="#0A9EFD" font-family="sans-serif" font-size="13" font-weight="bold" lengthAdjust="spacing" textLength="62" x="90" y="18.5684">Your app</text><rect fill="#999999" fill-opacity="0.33333" height="603.4282" style="stroke:#0A9EFD;stroke-width:0.5;" width="80" x="393" y="6"/><text fill="#0A9EFD" font-family="sans-serif" font-size="13" font-weight="bold" lengthAdjust="spacing" textLength="41" x="412.5" y="18.5684">Agora</text><rect fill="#0A9EFD" fill-opacity="0.06667" height="189.6411" style="stroke:#0A9EFD;stroke-width:2.0;" width="469" x="10" y="245.8423"/><line style="stroke:#0A9EFD;stroke-width:0.5;stroke-dasharray:5.0,5.0;" x1="38" x2="38" y1="86.0986" y2="525.3296"/><line style="stroke:#0A9EFD;stroke-width:0.5;stroke-dasharray:5.0,5.0;" x1="120.5" x2="120.5" y1="86.0986" y2="525.3296"/><line style="stroke:#0A9EFD;stroke-width:0.5;stroke-dasharray:5.0,5.0;" x1="433" x2="433" y1="86.0986" y2="525.3296"/><text fill="#0A9EFD" font-family="Arial" font-size="14" lengthAdjust="spacing" textLength="30" x="20" y="83.1318">User</text><ellipse cx="38" cy="16" fill="none" rx="8" ry="8" style="stroke:#0A9EFD;stroke-width:3.0;"/><path d="M38,24 L38,51 M25,32 L51,32 M38,51 L25,66 M38,51 L51,66 " fill="none" style="stroke:#0A9EFD;stroke-width:3.0;"/><text fill="#0A9EFD" font-family="Arial" font-size="14" lengthAdjust="spacing" textLength="30" x="20" y="537.4614">User</text><ellipse cx="38" cy="551.4282" fill="none" rx="8" ry="8" style="stroke:#0A9EFD;stroke-width:3.0;"/><path d="M38,559.4282 L38,586.4282 M25,567.4282 L51,567.4282 M38,586.4282 L25,601.4282 M38,586.4282 L51,601.4282 " fill="none" style="stroke:#0A9EFD;stroke-width:3.0;"/><rect fill="none" height="30.0986" rx="2.5" ry="2.5" style="stroke:#0A9EFD;stroke-width:2.0;" width="81" x="80.5" y="55"/><text fill="#0A9EFD" font-family="Arial" font-size="14" lengthAdjust="spacing" textLength="67" x="87.5" y="75.1318">Voice SDK</text><rect fill="none" height="30.0986" rx="2.5" ry="2.5" style="stroke:#0A9EFD;stroke-width:2.0;" width="81" x="80.5" y="524.3296"/><text fill="#0A9EFD" font-family="Arial" font-size="14" lengthAdjust="spacing" textLength="67" x="87.5" y="544.4614">Voice SDK</text><rect fill="none" height="30.0986" rx="2.5" ry="2.5" style="stroke:#0A9EFD;stroke-width:2.0;" width="72" x="397" y="55"/><text fill="#0A9EFD" font-family="Arial" font-size="14" lengthAdjust="spacing" textLength="58" x="404" y="75.1318">SDRTN&#174;</text><rect fill="none" height="30.0986" rx="2.5" ry="2.5" style="stroke:#0A9EFD;stroke-width:2.0;" width="72" x="397" y="524.3296"/><text fill="#0A9EFD" font-family="Arial" font-size="14" lengthAdjust="spacing" textLength="58" x="404" y="544.4614">SDRTN&#174;</text><polygon fill="#0A9EFD" points="109,113.0474,119,117.0474,109,121.0474,113,117.0474" style="stroke:#0A9EFD;stroke-width:1.0;"/><line style="stroke:#0A9EFD;stroke-width:2.0;" x1="38" x2="115" y1="117.0474" y2="117.0474"/><text fill="#0A9EFD" font-family="Arial" font-size="13" lengthAdjust="spacing" textLength="58" x="50.5" y="112.2925">Open App</text><line style="stroke:#0A9EFD;stroke-width:2.0;" x1="121" x2="163" y1="160.9448" y2="160.9448"/><line style="stroke:#0A9EFD;stroke-width:2.0;" x1="163" x2="163" y1="160.9448" y2="173.9448"/><line style="stroke:#0A9EFD;stroke-width:2.0;" x1="122" x2="163" y1="173.9448" y2="173.9448"/><polygon fill="#0A9EFD" points="132,169.9448,122,173.9448,132,177.9448,128,173.9448" style="stroke:#0A9EFD;stroke-width:1.0;"/><text fill="#0A9EFD" font-family="Arial" font-size="13" lengthAdjust="spacing" textLength="260" x="147" y="141.2412">Create an instance of the Voice SDK engine:</text><text fill="#0A9EFD" font-family="Arial" font-size="13" lengthAdjust="spacing" textLength="294" x="132" y="156.1899">agoraEngine = agoraEngine.createAgoraRtcEngine</text><line style="stroke:#0A9EFD;stroke-width:2.0;" x1="121" x2="163" y1="217.8423" y2="217.8423"/><line style="stroke:#0A9EFD;stroke-width:2.0;" x1="163" x2="163" y1="217.8423" y2="230.8423"/><line style="stroke:#0A9EFD;stroke-width:2.0;" x1="122" x2="163" y1="230.8423" y2="230.8423"/><polygon fill="#0A9EFD" points="132,226.8423,122,230.8423,132,234.8423,128,230.8423" style="stroke:#0A9EFD;stroke-width:1.0;"/><text fill="#0A9EFD" font-family="Arial" font-size="13" lengthAdjust="spacing" textLength="174" x="128" y="198.1387">Initialize the created instance:</text><text fill="#0A9EFD" font-family="Arial" font-size="13" lengthAdjust="spacing" textLength="123" x="157.5" y="213.0874">agoraEngine.initialize</text><path d="M10,245.8423 L82,245.8423 L82,252.791 L72,262.791 L10,262.791 L10,245.8423 " fill="#EEEEEE" style="stroke:#0A9EFD;stroke-width:1.5;"/><rect fill="none" height="189.6411" style="stroke:#0A9EFD;stroke-width:2.0;" width="469" x="10" y="245.8423"/><text fill="#000000" font-family="Arial" font-size="13" lengthAdjust="spacing" textLength="27" x="25" y="259.0361">User</text><polygon fill="#0A9EFD" points="109,279.7397,119,283.7397,109,287.7397,113,283.7397" style="stroke:#0A9EFD;stroke-width:1.0;"/><line style="stroke:#0A9EFD;stroke-width:2.0;" x1="38" x2="115" y1="283.7397" y2="283.7397"/><text fill="#0A9EFD" font-family="Arial" font-size="13" lengthAdjust="spacing" textLength="52" x="53.5" y="278.9849">Start call</text><line style="stroke:#0A9EFD;stroke-width:2.0;" x1="121" x2="163" y1="312.6885" y2="312.6885"/><line style="stroke:#0A9EFD;stroke-width:2.0;" x1="163" x2="163" y1="312.6885" y2="325.6885"/><line style="stroke:#0A9EFD;stroke-width:2.0;" x1="122" x2="163" y1="325.6885" y2="325.6885"/><polygon fill="#0A9EFD" points="132,321.6885,122,325.6885,132,329.6885,128,325.6885" style="stroke:#0A9EFD;stroke-width:1.0;"/><text fill="#0A9EFD" font-family="Arial" font-size="13" lengthAdjust="spacing" textLength="257" x="128" y="307.9336">Retrieve authentication token to join channel</text><polygon fill="#0A9EFD" points="421,365.5859,431,369.5859,421,373.5859,425,369.5859" style="stroke:#0A9EFD;stroke-width:1.0;"/><line style="stroke:#0A9EFD;stroke-width:2.0;" x1="121" x2="427" y1="369.5859" y2="369.5859"/><text fill="#0A9EFD" font-family="Arial" font-size="13" lengthAdjust="spacing" textLength="88" x="233" y="349.8823">Join a channel:</text><text fill="#0A9EFD" font-family="Arial" font-size="13" lengthAdjust="spacing" textLength="143" x="207.5" y="364.8311">agoraEngine.joinChannel</text><polygon fill="#0A9EFD" points="132,394.5347,122,398.5347,132,402.5347,128,398.5347" style="stroke:#0A9EFD;stroke-width:1.0;"/><line style="stroke:#0A9EFD;stroke-width:2.0;" x1="126" x2="432" y1="398.5347" y2="398.5347"/><text fill="#0A9EFD" font-family="Arial" font-size="13" lengthAdjust="spacing" textLength="81" x="236.5" y="393.7798">Join accepted</text><polygon fill="#0A9EFD" points="132,423.4834,122,427.4834,132,431.4834,128,427.4834" style="stroke:#0A9EFD;stroke-width:1.0;"/><polygon fill="#0A9EFD" points="421,423.4834,431,427.4834,421,431.4834,425,427.4834" style="stroke:#0A9EFD;stroke-width:1.0;"/><line style="stroke:#0A9EFD;stroke-width:2.0;" x1="126" x2="427" y1="427.4834" y2="427.4834"/><text fill="#0A9EFD" font-family="Arial" font-size="13" lengthAdjust="spacing" textLength="183" x="185.5" y="422.7285">Receive and send audio stream</text><polygon fill="#0A9EFD" points="109,459.4321,119,463.4321,109,467.4321,113,463.4321" style="stroke:#0A9EFD;stroke-width:1.0;"/><line style="stroke:#0A9EFD;stroke-width:2.0;" x1="38" x2="115" y1="463.4321" y2="463.4321"/><text fill="#0A9EFD" font-family="Arial" font-size="13" lengthAdjust="spacing" textLength="59" x="50" y="458.6772">Leave call</text><polygon fill="#0A9EFD" points="421,503.3296,431,507.3296,421,511.3296,425,507.3296" style="stroke:#0A9EFD;stroke-width:1.0;"/><line style="stroke:#0A9EFD;stroke-width:2.0;" x1="121" x2="427" y1="507.3296" y2="507.3296"/><text fill="#0A9EFD" font-family="Arial" font-size="13" lengthAdjust="spacing" textLength="106" x="224" y="487.626">leave the channel:</text><text fill="#0A9EFD" font-family="Arial" font-size="13" lengthAdjust="spacing" textLength="154" x="202" y="502.5747">agoraEngine.leaveChannel</text><!--SRC=[RL71JiCm3BtdAqplw-uLJ9es3WK4KykGa92GISrcrZbHcqw8Z-8Z-3AIR2tRn2MIxVVytdCkM7JTLGHfEjvnHMRKLfinhao3h-s69ULkMok5sfa6acLBJGBOmh8ib7epdv0ycwu1j3PHocBZMBD5SP0y6TO4vVmsugUBXL8a5NZEWJWD6kUiSbuytlzy7pZv4SShmcWI5cNmO4bWQgtorT2SDOIE00LOMeVYrSqxk3N1O0L8LYoKlGZ4XDUnXAlZAjLnJtHNEBrldWZbmewnvY-As_VuQb3Du7HzoWDUgLLZEWlXZ2U1IkUF01hhEYYD9h5Pa6kOTZvIvtN47maT6m5dDXHU-30ieDSeGlMVmpo3cp30VdGMDmsqsS3A3oQWfsbDrkU9eylUO46QE5Zntz66Fy6kOWEjy-6tuPDEujmHUcmVPx1LntQysV_E8g2tzWi0]--></g></svg>