<?xml version="1.0" encoding="us-ascii" standalone="no"?><svg xmlns="http://www.w3.org/2000/svg" xmlns:xlink="http://www.w3.org/1999/xlink" contentStyleType="text/css" height="615px" preserveAspectRatio="none" style="width:480px;height:615px;" version="1.1" viewBox="0 0 480 615" width="480px" zoomAndPan="magnify"><defs/><g><rect fill="none" height="613.4282" style="stroke:#0A9EFD;stroke-width:1.0;" width="478.5" x="0" y="0"/><rect fill="#999999" fill-opacity="0.33333" height="603.4282" style="stroke:#0A9EFD;stroke-width:0.5;" width="89" x="75" y="6"/><text fill="#0A9EFD" font-family="sans-serif" font-size="13" font-weight="bold" lengthAdjust="spacing" textLength="57" x="91" y="19.4951">Your app</text><rect fill="#999999" fill-opacity="0.33333" height="603.4282" style="stroke:#0A9EFD;stroke-width:0.5;" width="74" x="394.5" y="6"/><text fill="#0A9EFD" font-family="sans-serif" font-size="13" font-weight="bold" lengthAdjust="spacing" textLength="38" x="412.5" y="19.4951">Agora</text><rect fill="#0A9EFD" fill-opacity="0.06667" height="189.6411" style="stroke:#0A9EFD;stroke-width:2.0;" width="464.5" x="10" y="245.8423"/><line style="stroke:#0A9EFD;stroke-width:0.5;stroke-dasharray:5.0,5.0;" x1="37" x2="37" y1="86.0986" y2="525.3296"/><line style="stroke:#0A9EFD;stroke-width:0.5;stroke-dasharray:5.0,5.0;" x1="119" x2="119" y1="86.0986" y2="525.3296"/><line style="stroke:#0A9EFD;stroke-width:0.5;stroke-dasharray:5.0,5.0;" x1="431.5" x2="431.5" y1="86.0986" y2="525.3296"/><text fill="#0A9EFD" font-family="Arial" font-size="14" lengthAdjust="spacing" textLength="29" x="20" y="83.1318">User</text><ellipse cx="37.5" cy="16" fill="none" rx="8" ry="8" style="stroke:#0A9EFD;stroke-width:3.0;"/><path d="M37.5,24 L37.5,51 M24.5,32 L50.5,32 M37.5,51 L24.5,66 M37.5,51 L50.5,66 " fill="none" style="stroke:#0A9EFD;stroke-width:3.0;"/><text fill="#0A9EFD" font-family="Arial" font-size="14" lengthAdjust="spacing" textLength="29" x="20" y="537.4614">User</text><ellipse cx="37.5" cy="551.4282" fill="none" rx="8" ry="8" style="stroke:#0A9EFD;stroke-width:3.0;"/><path d="M37.5,559.4282 L37.5,586.4282 M24.5,567.4282 L50.5,567.4282 M37.5,586.4282 L24.5,601.4282 M37.5,586.4282 L50.5,601.4282 " fill="none" style="stroke:#0A9EFD;stroke-width:3.0;"/><rect fill="none" height="30.0986" rx="2.5" ry="2.5" style="stroke:#0A9EFD;stroke-width:2.0;" width="81" x="79" y="55"/><text fill="#0A9EFD" font-family="Arial" font-size="14" lengthAdjust="spacing" textLength="67" x="86" y="75.1318">Voice SDK</text><rect fill="none" height="30.0986" rx="2.5" ry="2.5" style="stroke:#0A9EFD;stroke-width:2.0;" width="81" x="79" y="524.3296"/><text fill="#0A9EFD" font-family="Arial" font-size="14" lengthAdjust="spacing" textLength="67" x="86" y="544.4614">Voice SDK</text><rect fill="none" height="30.0986" rx="2.5" ry="2.5" style="stroke:#0A9EFD;stroke-width:2.0;" width="66" x="398.5" y="55"/><text fill="#0A9EFD" font-family="Arial" font-size="14" lengthAdjust="spacing" textLength="52" x="405.5" y="75.1318">SD-RTN</text><rect fill="none" height="30.0986" rx="2.5" ry="2.5" style="stroke:#0A9EFD;stroke-width:2.0;" width="66" x="398.5" y="524.3296"/><text fill="#0A9EFD" font-family="Arial" font-size="14" lengthAdjust="spacing" textLength="52" x="405.5" y="544.4614">SD-RTN</text><polygon fill="#0A9EFD" points="107.5,113.0474,117.5,117.0474,107.5,121.0474,111.5,117.0474" style="stroke:#0A9EFD;stroke-width:1.0;"/><line style="stroke:#0A9EFD;stroke-width:2.0;" x1="37.5" x2="113.5" y1="117.0474" y2="117.0474"/><text fill="#0A9EFD" font-family="Arial" font-size="13" lengthAdjust="spacing" textLength="58" x="49.5" y="112.2925">Open App</text><line style="stroke:#0A9EFD;stroke-width:2.0;" x1="119.5" x2="161.5" y1="160.9448" y2="160.9448"/><line style="stroke:#0A9EFD;stroke-width:2.0;" x1="161.5" x2="161.5" y1="160.9448" y2="173.9448"/><line style="stroke:#0A9EFD;stroke-width:2.0;" x1="120.5" x2="161.5" y1="173.9448" y2="173.9448"/><polygon fill="#0A9EFD" points="130.5,169.9448,120.5,173.9448,130.5,177.9448,126.5,173.9448" style="stroke:#0A9EFD;stroke-width:1.0;"/><text fill="#0A9EFD" font-family="Arial" font-size="13" lengthAdjust="spacing" textLength="259" x="146" y="141.2412">Create an instance of the Voice SDK engine:</text><text fill="#0A9EFD" font-family="Arial" font-size="13" lengthAdjust="spacing" textLength="294" x="130.5" y="156.1899">agoraEngine = agoraEngine.createAgoraRtcEngine</text><line style="stroke:#0A9EFD;stroke-width:2.0;" x1="119.5" x2="161.5" y1="217.8423" y2="217.8423"/><line style="stroke:#0A9EFD;stroke-width:2.0;" x1="161.5" x2="161.5" y1="217.8423" y2="230.8423"/><line style="stroke:#0A9EFD;stroke-width:2.0;" x1="120.5" x2="161.5" y1="230.8423" y2="230.8423"/><polygon fill="#0A9EFD" points="130.5,226.8423,120.5,230.8423,130.5,234.8423,126.5,230.8423" style="stroke:#0A9EFD;stroke-width:1.0;"/><text fill="#0A9EFD" font-family="Arial" font-size="13" lengthAdjust="spacing" textLength="173" x="126.5" y="198.1387">Initialize the created instance:</text><text fill="#0A9EFD" font-family="Arial" font-size="13" lengthAdjust="spacing" textLength="123" x="155.5" y="213.0874">agoraEngine.initialize</text><path d="M10,245.8423 L82,245.8423 L82,252.791 L72,262.791 L10,262.791 L10,245.8423 " fill="#EEEEEE" style="stroke:#0A9EFD;stroke-width:1.5;"/><rect fill="none" height="189.6411" style="stroke:#0A9EFD;stroke-width:2.0;" width="464.5" x="10" y="245.8423"/><text fill="#000000" font-family="Arial" font-size="13" lengthAdjust="spacing" textLength="27" x="25" y="259.0361">User</text><polygon fill="#0A9EFD" points="107.5,279.7397,117.5,283.7397,107.5,287.7397,111.5,283.7397" style="stroke:#0A9EFD;stroke-width:1.0;"/><line style="stroke:#0A9EFD;stroke-width:2.0;" x1="37.5" x2="113.5" y1="283.7397" y2="283.7397"/><text fill="#0A9EFD" font-family="Arial" font-size="13" lengthAdjust="spacing" textLength="52" x="52.5" y="278.9849">Start call</text><line style="stroke:#0A9EFD;stroke-width:2.0;" x1="119.5" x2="161.5" y1="312.6885" y2="312.6885"/><line style="stroke:#0A9EFD;stroke-width:2.0;" x1="161.5" x2="161.5" y1="312.6885" y2="325.6885"/><line style="stroke:#0A9EFD;stroke-width:2.0;" x1="120.5" x2="161.5" y1="325.6885" y2="325.6885"/><polygon fill="#0A9EFD" points="130.5,321.6885,120.5,325.6885,130.5,329.6885,126.5,325.6885" style="stroke:#0A9EFD;stroke-width:1.0;"/><text fill="#0A9EFD" font-family="Arial" font-size="13" lengthAdjust="spacing" textLength="255" x="126.5" y="307.9336">Retrieve authentication token to join channel</text><polygon fill="#0A9EFD" points="419.5,365.5859,429.5,369.5859,419.5,373.5859,423.5,369.5859" style="stroke:#0A9EFD;stroke-width:1.0;"/><line style="stroke:#0A9EFD;stroke-width:2.0;" x1="119.5" x2="425.5" y1="369.5859" y2="369.5859"/><text fill="#0A9EFD" font-family="Arial" font-size="13" lengthAdjust="spacing" textLength="87" x="232" y="349.8823">Join a channel:</text><text fill="#0A9EFD" font-family="Arial" font-size="13" lengthAdjust="spacing" textLength="143" x="206" y="364.8311">agoraEngine.joinChannel</text><polygon fill="#0A9EFD" points="130.5,394.5347,120.5,398.5347,130.5,402.5347,126.5,398.5347" style="stroke:#0A9EFD;stroke-width:1.0;"/><line style="stroke:#0A9EFD;stroke-width:2.0;" x1="124.5" x2="430.5" y1="398.5347" y2="398.5347"/><text fill="#0A9EFD" font-family="Arial" font-size="13" lengthAdjust="spacing" textLength="80" x="235.5" y="393.7798">Join accepted</text><polygon fill="#0A9EFD" points="130.5,423.4834,120.5,427.4834,130.5,431.4834,126.5,427.4834" style="stroke:#0A9EFD;stroke-width:1.0;"/><polygon fill="#0A9EFD" points="419.5,423.4834,429.5,427.4834,419.5,431.4834,423.5,427.4834" style="stroke:#0A9EFD;stroke-width:1.0;"/><line style="stroke:#0A9EFD;stroke-width:2.0;" x1="124.5" x2="425.5" y1="427.4834" y2="427.4834"/><text fill="#0A9EFD" font-family="Arial" font-size="13" lengthAdjust="spacing" textLength="181" x="185" y="422.7285">Receive and send audio stream</text><polygon fill="#0A9EFD" points="107.5,459.4321,117.5,463.4321,107.5,467.4321,111.5,463.4321" style="stroke:#0A9EFD;stroke-width:1.0;"/><line style="stroke:#0A9EFD;stroke-width:2.0;" x1="37.5" x2="113.5" y1="463.4321" y2="463.4321"/><text fill="#0A9EFD" font-family="Arial" font-size="13" lengthAdjust="spacing" textLength="57" x="50" y="458.6772">Leave call</text><polygon fill="#0A9EFD" points="419.5,503.3296,429.5,507.3296,419.5,511.3296,423.5,507.3296" style="stroke:#0A9EFD;stroke-width:1.0;"/><line style="stroke:#0A9EFD;stroke-width:2.0;" x1="119.5" x2="425.5" y1="507.3296" y2="507.3296"/><text fill="#0A9EFD" font-family="Arial" font-size="13" lengthAdjust="spacing" textLength="104" x="223.5" y="487.626">leave the channel:</text><text fill="#0A9EFD" font-family="Arial" font-size="13" lengthAdjust="spacing" textLength="152" x="201.5" y="502.5747">agoraEngine.leaveChannel</text><!--SRC=[RL7HJiCm37pFLvY-hnzGmQHfuw60O6eP4X8ICgdPp3edIbE4-7gIR2rquYMIxJlVdNF1ejk-8S2jSVZQxLboxW-jKgYzSP1jEd8PO0URkbBgpNn1zcnw1sXjffH5vrcpHV6GFHdM1FNgDk4NwxLI90q4pecuY1hdh7ergnxlJvJo3oK8mcmUznJmO4bWOQqArTXSEa8Vd0kmT1ubY9jty3k2qGcGR5ceU95ZmEjKmjNVAjTfJp9NUNriJeHAOS_OyZUbxKTyCweMC5sVyuXNQkjCRo5USHAezk46eB5jez9idfeLUSVq6IBrGKV2ZT2p4V1cJ_653yC2UeSYrFuwB0kuYGCSHcTnyqXRZgpoP086cjPaGvuqkXmCLgI9evNm7Lty4-mRDj3v4FuGFsaIvuumO8SuewqsjTFD_dUM08Er7m00]--></g></svg>