<?xml version="1.0" encoding="us-ascii" standalone="no"?><svg xmlns="http://www.w3.org/2000/svg" xmlns:xlink="http://www.w3.org/1999/xlink" contentStyleType="text/css" height="776px" preserveAspectRatio="none" style="width:690px;height:776px;" version="1.1" viewBox="0 0 690 776" width="690px" zoomAndPan="magnify"><defs/><g><rect fill="none" height="774.0181" style="stroke:#0A9EFD;stroke-width:1.0;" width="688.5" x="0" y="0"/><rect fill="#999999" fill-opacity="0.33333" height="764.0181" style="stroke:#0A9EFD;stroke-width:0.5;" width="89" x="96" y="6"/><text fill="#0A9EFD" font-family="sans-serif" font-size="13" font-weight="bold" lengthAdjust="spacing" textLength="57" x="112" y="19.4951">Your app</text><rect fill="#999999" fill-opacity="0.33333" height="764.0181" style="stroke:#0A9EFD;stroke-width:0.5;" width="74" x="604.5" y="6"/><text fill="#0A9EFD" font-family="sans-serif" font-size="13" font-weight="bold" lengthAdjust="spacing" textLength="38" x="622.5" y="19.4951">Agora</text><rect fill="#0A9EFD" fill-opacity="0.06667" height="190.5898" style="stroke:#0A9EFD;stroke-width:2.0;" width="674.5" x="10" y="319.6372"/><line style="stroke:#0A9EFD;stroke-width:0.5;stroke-dasharray:5.0,5.0;" x1="37" x2="37" y1="86.0986" y2="685.9194"/><line style="stroke:#0A9EFD;stroke-width:0.5;stroke-dasharray:5.0,5.0;" x1="140" x2="140" y1="86.0986" y2="685.9194"/><line style="stroke:#0A9EFD;stroke-width:0.5;stroke-dasharray:5.0,5.0;" x1="641.5" x2="641.5" y1="86.0986" y2="685.9194"/><text fill="#0A9EFD" font-family="Arial" font-size="14" lengthAdjust="spacing" textLength="29" x="20" y="83.1318">User</text><ellipse cx="37.5" cy="16" fill="none" rx="8" ry="8" style="stroke:#0A9EFD;stroke-width:3.0;"/><path d="M37.5,24 L37.5,51 M24.5,32 L50.5,32 M37.5,51 L24.5,66 M37.5,51 L50.5,66 " fill="none" style="stroke:#0A9EFD;stroke-width:3.0;"/><text fill="#0A9EFD" font-family="Arial" font-size="14" lengthAdjust="spacing" textLength="29" x="20" y="698.0513">User</text><ellipse cx="37.5" cy="712.0181" fill="none" rx="8" ry="8" style="stroke:#0A9EFD;stroke-width:3.0;"/><path d="M37.5,720.0181 L37.5,747.0181 M24.5,728.0181 L50.5,728.0181 M37.5,747.0181 L24.5,762.0181 M37.5,747.0181 L50.5,762.0181 " fill="none" style="stroke:#0A9EFD;stroke-width:3.0;"/><rect fill="none" height="30.0986" rx="2.5" ry="2.5" style="stroke:#0A9EFD;stroke-width:2.0;" width="81" x="100" y="55"/><text fill="#0A9EFD" font-family="Arial" font-size="14" lengthAdjust="spacing" textLength="67" x="107" y="75.1318">Voice SDK</text><rect fill="none" height="30.0986" rx="2.5" ry="2.5" style="stroke:#0A9EFD;stroke-width:2.0;" width="81" x="100" y="684.9194"/><text fill="#0A9EFD" font-family="Arial" font-size="14" lengthAdjust="spacing" textLength="67" x="107" y="705.0513">Voice SDK</text><rect fill="none" height="30.0986" rx="2.5" ry="2.5" style="stroke:#0A9EFD;stroke-width:2.0;" width="66" x="608.5" y="55"/><text fill="#0A9EFD" font-family="Arial" font-size="14" lengthAdjust="spacing" textLength="52" x="615.5" y="75.1318">SD-RTN</text><rect fill="none" height="30.0986" rx="2.5" ry="2.5" style="stroke:#0A9EFD;stroke-width:2.0;" width="66" x="608.5" y="684.9194"/><text fill="#0A9EFD" font-family="Arial" font-size="14" lengthAdjust="spacing" textLength="52" x="615.5" y="705.0513">SD-RTN</text><polygon fill="#0A9EFD" points="128.5,113.0474,138.5,117.0474,128.5,121.0474,132.5,117.0474" style="stroke:#0A9EFD;stroke-width:1.0;"/><line style="stroke:#0A9EFD;stroke-width:2.0;" x1="37.5" x2="134.5" y1="117.0474" y2="117.0474"/><text fill="#0A9EFD" font-family="Arial" font-size="13" lengthAdjust="spacing" textLength="56" x="61" y="112.2925">Open app</text><line style="stroke:#0A9EFD;stroke-width:2.0;" x1="140.5" x2="182.5" y1="160.9448" y2="160.9448"/><line style="stroke:#0A9EFD;stroke-width:2.0;" x1="182.5" x2="182.5" y1="160.9448" y2="173.9448"/><line style="stroke:#0A9EFD;stroke-width:2.0;" x1="141.5" x2="182.5" y1="173.9448" y2="173.9448"/><polygon fill="#0A9EFD" points="151.5,169.9448,141.5,173.9448,151.5,177.9448,147.5,173.9448" style="stroke:#0A9EFD;stroke-width:1.0;"/><text fill="#0A9EFD" font-family="Arial" font-size="13" lengthAdjust="spacing" textLength="261" x="188" y="141.2412">Create an Agora Voice SDK engine instance:</text><text fill="#0A9EFD" font-family="Arial" font-size="13" lengthAdjust="spacing" textLength="342" x="151.5" y="156.1899">RtcEngine = Agora.Rtc.RtcEngine.CreateAgoraRtcEngine()</text><polygon fill="#0A9EFD" points="629.5,243.7397,639.5,247.7397,629.5,251.7397,633.5,247.7397" style="stroke:#0A9EFD;stroke-width:1.0;"/><line style="stroke:#0A9EFD;stroke-width:2.0;" x1="140.5" x2="635.5" y1="247.7397" y2="247.7397"/><text fill="#0A9EFD" font-family="Arial" font-size="13" lengthAdjust="spacing" textLength="93" x="342.5" y="198.1387">Set the context:</text><text fill="#0A9EFD" font-family="Arial" font-size="13" lengthAdjust="spacing" textLength="393" x="194.5" y="213.0874">RtcEngineContext context = new RtcEngineContext(_appID, 0, true,</text><text fill="#0A9EFD" font-family="Arial" font-size="13" lengthAdjust="spacing" textLength="439" x="171.5" y="228.0361">CHANNEL_PROFILE_TYPE.CHANNEL_PROFILE_LIVE_BROADCASTING,</text><text fill="#0A9EFD" font-family="Arial" font-size="13" lengthAdjust="spacing" textLength="342" x="222" y="242.9849">AUDIO_SCENARIO_TYPE.AUDIO_SCENARIO_DEFAULT)</text><line style="stroke:#0A9EFD;stroke-width:2.0;" x1="140.5" x2="182.5" y1="291.6372" y2="291.6372"/><line style="stroke:#0A9EFD;stroke-width:2.0;" x1="182.5" x2="182.5" y1="291.6372" y2="304.6372"/><line style="stroke:#0A9EFD;stroke-width:2.0;" x1="141.5" x2="182.5" y1="304.6372" y2="304.6372"/><polygon fill="#0A9EFD" points="151.5,300.6372,141.5,304.6372,151.5,308.6372,147.5,304.6372" style="stroke:#0A9EFD;stroke-width:1.0;"/><text fill="#0A9EFD" font-family="Arial" font-size="13" lengthAdjust="spacing" textLength="115" x="171" y="271.9336">Initialize RtcEngine:</text><text fill="#0A9EFD" font-family="Arial" font-size="13" lengthAdjust="spacing" textLength="162" x="151.5" y="286.8823">RtcEngine.Initialize(context)</text><path d="M10,319.6372 L114,319.6372 L114,326.5859 L104,336.5859 L10,336.5859 L10,319.6372 " fill="#EEEEEE" style="stroke:#0A9EFD;stroke-width:1.5;"/><rect fill="none" height="190.5898" style="stroke:#0A9EFD;stroke-width:2.0;" width="674.5" x="10" y="319.6372"/><text fill="#000000" font-family="Arial" font-size="13" lengthAdjust="spacing" textLength="59" x="25" y="332.8311">Audio Call</text><polygon fill="#0A9EFD" points="128.5,353.5347,138.5,357.5347,128.5,361.5347,132.5,357.5347" style="stroke:#0A9EFD;stroke-width:1.0;"/><line style="stroke:#0A9EFD;stroke-width:2.0;" x1="37.5" x2="134.5" y1="357.5347" y2="357.5347"/><text fill="#0A9EFD" font-family="Arial" font-size="13" lengthAdjust="spacing" textLength="52" x="63" y="352.7798">Start call</text><line style="stroke:#0A9EFD;stroke-width:2.0;" x1="140.5" x2="182.5" y1="401.4321" y2="401.4321"/><line style="stroke:#0A9EFD;stroke-width:2.0;" x1="182.5" x2="182.5" y1="401.4321" y2="414.4321"/><line style="stroke:#0A9EFD;stroke-width:2.0;" x1="141.5" x2="182.5" y1="414.4321" y2="414.4321"/><polygon fill="#0A9EFD" points="151.5,410.4321,141.5,414.4321,151.5,418.4321,147.5,414.4321" style="stroke:#0A9EFD;stroke-width:1.0;"/><text fill="#0A9EFD" font-family="Arial" font-size="13" lengthAdjust="spacing" textLength="147" x="147.5" y="381.7285">Enable the audio module:</text><text fill="#0A9EFD" font-family="Arial" font-size="13" lengthAdjust="spacing" textLength="145" x="152.5" y="396.6772">RtcEngine.EnableAudio()</text><polygon fill="#0A9EFD" points="629.5,454.3296,639.5,458.3296,629.5,462.3296,633.5,458.3296" style="stroke:#0A9EFD;stroke-width:1.0;"/><line style="stroke:#0A9EFD;stroke-width:2.0;" x1="140.5" x2="635.5" y1="458.3296" y2="458.3296"/><text fill="#0A9EFD" font-family="Arial" font-size="13" lengthAdjust="spacing" textLength="190" x="294" y="438.626">Set the user role as broadcaster:</text><text fill="#0A9EFD" font-family="Arial" font-size="13" lengthAdjust="spacing" textLength="473" x="156.5" y="453.5747">RtcEngine.SetClientRole(CLIENT_ROLE_TYPE.CLIENT_ROLE_BROADCASTER)</text><polygon fill="#0A9EFD" points="629.5,498.2271,639.5,502.2271,629.5,506.2271,633.5,502.2271" style="stroke:#0A9EFD;stroke-width:1.0;"/><line style="stroke:#0A9EFD;stroke-width:2.0;" x1="140.5" x2="635.5" y1="502.2271" y2="502.2271"/><text fill="#0A9EFD" font-family="Arial" font-size="13" lengthAdjust="spacing" textLength="98" x="340" y="482.5234">Join the channel:</text><text fill="#0A9EFD" font-family="Arial" font-size="13" lengthAdjust="spacing" textLength="142" x="322" y="497.4722">RtcEngine.JoinChannel()</text><polygon fill="#0A9EFD" points="128.5,534.1758,138.5,538.1758,128.5,542.1758,132.5,538.1758" style="stroke:#0A9EFD;stroke-width:1.0;"/><line style="stroke:#0A9EFD;stroke-width:2.0;" x1="37.5" x2="134.5" y1="538.1758" y2="538.1758"/><text fill="#0A9EFD" font-family="Arial" font-size="13" lengthAdjust="spacing" textLength="79" x="49.5" y="533.4209">Leave the call</text><polygon fill="#0A9EFD" points="629.5,578.0732,639.5,582.0732,629.5,586.0732,633.5,582.0732" style="stroke:#0A9EFD;stroke-width:1.0;"/><line style="stroke:#0A9EFD;stroke-width:2.0;" x1="140.5" x2="635.5" y1="582.0732" y2="582.0732"/><text fill="#0A9EFD" font-family="Arial" font-size="13" lengthAdjust="spacing" textLength="108" x="335" y="562.3696">Leave the channel:</text><text fill="#0A9EFD" font-family="Arial" font-size="13" lengthAdjust="spacing" textLength="152" x="317" y="577.3184">RtcEngine.LeaveChannel()</text><polygon fill="#0A9EFD" points="128.5,607.022,138.5,611.022,128.5,615.022,132.5,611.022" style="stroke:#0A9EFD;stroke-width:1.0;"/><line style="stroke:#0A9EFD;stroke-width:2.0;" x1="37.5" x2="134.5" y1="611.022" y2="611.022"/><text fill="#0A9EFD" font-family="Arial" font-size="13" lengthAdjust="spacing" textLength="58" x="60" y="606.2671">Close app</text><line style="stroke:#0A9EFD;stroke-width:2.0;" x1="140.5" x2="182.5" y1="654.9194" y2="654.9194"/><line style="stroke:#0A9EFD;stroke-width:2.0;" x1="182.5" x2="182.5" y1="654.9194" y2="667.9194"/><line style="stroke:#0A9EFD;stroke-width:2.0;" x1="141.5" x2="182.5" y1="667.9194" y2="667.9194"/><polygon fill="#0A9EFD" points="151.5,663.9194,141.5,667.9194,151.5,671.9194,147.5,667.9194" style="stroke:#0A9EFD;stroke-width:1.0;"/><text fill="#0A9EFD" font-family="Arial" font-size="13" lengthAdjust="spacing" textLength="157" x="147.5" y="635.2158">Disable the audio modules:</text><text fill="#0A9EFD" font-family="Arial" font-size="13" lengthAdjust="spacing" textLength="148" x="158" y="650.1646">RtcEngine.DisableAudio()</text><!--SRC=[TLFHZfim47ptLsnvIgGSwdEaLgB6rxf5404vwQHAo85LpYfd8sFQKx- -nkH8uAvlU7PdnZjUFaXLjqE38CxQYAh_9LKeX-UM455RRI0uzcW243qSYvoGatw1u54F1aJN1OHqmbXPoque2y63bZL24V_m_T7XG0Yg1XpdGen6ZpMhYE_oChrG-0t56SBTvr5d3rc7QhGaxZI3rA2mxkOAl33C_e3gB1M2LBqLgiOz_5IGsvfDyAUfFtH8EAFXfEOhCxZPNWtv7WgqO9yGQgqiljYbB9t0rw9pKVZdJNbJkIbul8EFEx1cmDseGRz5QSgIwf1dzpnXLVbuOE4QJFW3gxxaMHJJg2Xv-jLJesFCiwgWB8roz-6PAonczz4nARUBxBYILefM_iNh5PVpXDUMpMMcBI5deuSEeg6H6gXesyKh5TOzBDGZVEl5b3Yrw9CJdlYicw5TsqrTNla_iGzk5S5e9-LsvMIqQ6hHMpGh8TTEMudAvgvrGnFEqhBAipdN6s2Ea-LBo-zQgkcfduHIsAuinZATAkwkRcENsvgW-3tDkyo2BqhlAllwLNeXIrlTuvk_89Rzk_7sNlb6-jBucl0_]--></g></svg>
