<?xml version="1.0" encoding="us-ascii" standalone="no"?><svg xmlns="http://www.w3.org/2000/svg" xmlns:xlink="http://www.w3.org/1999/xlink" contentStyleType="text/css" height="776px" preserveAspectRatio="none" style="width:702px;height:776px;" version="1.1" viewBox="0 0 702 776" width="702px" zoomAndPan="magnify"><defs/><g><rect fill="none" height="774.0181" style="stroke:#0A9EFD;stroke-width:1.0;" width="700" x="0" y="0"/><rect fill="#999999" fill-opacity="0.33333" height="764.0181" style="stroke:#0A9EFD;stroke-width:0.5;" width="89" x="98.5" y="6"/><text fill="#0A9EFD" font-family="sans-serif" font-size="13" font-weight="bold" lengthAdjust="spacing" textLength="62" x="112" y="18.5684">Your app</text><rect fill="#999999" fill-opacity="0.33333" height="764.0181" style="stroke:#0A9EFD;stroke-width:0.5;" width="80" x="610" y="6"/><text fill="#0A9EFD" font-family="sans-serif" font-size="13" font-weight="bold" lengthAdjust="spacing" textLength="41" x="629.5" y="18.5684">Agora</text><rect fill="#0A9EFD" fill-opacity="0.06667" height="190.5898" style="stroke:#0A9EFD;stroke-width:2.0;" width="686" x="10" y="319.6372"/><line style="stroke:#0A9EFD;stroke-width:0.5;stroke-dasharray:5.0,5.0;" x1="38" x2="38" y1="86.0986" y2="685.9194"/><line style="stroke:#0A9EFD;stroke-width:0.5;stroke-dasharray:5.0,5.0;" x1="142.5" x2="142.5" y1="86.0986" y2="685.9194"/><line style="stroke:#0A9EFD;stroke-width:0.5;stroke-dasharray:5.0,5.0;" x1="650" x2="650" y1="86.0986" y2="685.9194"/><text fill="#0A9EFD" font-family="Arial" font-size="14" lengthAdjust="spacing" textLength="30" x="20" y="83.1318">User</text><ellipse cx="38" cy="16" fill="none" rx="8" ry="8" style="stroke:#0A9EFD;stroke-width:3.0;"/><path d="M38,24 L38,51 M25,32 L51,32 M38,51 L25,66 M38,51 L51,66 " fill="none" style="stroke:#0A9EFD;stroke-width:3.0;"/><text fill="#0A9EFD" font-family="Arial" font-size="14" lengthAdjust="spacing" textLength="30" x="20" y="698.0513">User</text><ellipse cx="38" cy="712.0181" fill="none" rx="8" ry="8" style="stroke:#0A9EFD;stroke-width:3.0;"/><path d="M38,720.0181 L38,747.0181 M25,728.0181 L51,728.0181 M38,747.0181 L25,762.0181 M38,747.0181 L51,762.0181 " fill="none" style="stroke:#0A9EFD;stroke-width:3.0;"/><rect fill="none" height="30.0986" rx="2.5" ry="2.5" style="stroke:#0A9EFD;stroke-width:2.0;" width="81" x="102.5" y="55"/><text fill="#0A9EFD" font-family="Arial" font-size="14" lengthAdjust="spacing" textLength="67" x="109.5" y="75.1318">Voice SDK</text><rect fill="none" height="30.0986" rx="2.5" ry="2.5" style="stroke:#0A9EFD;stroke-width:2.0;" width="81" x="102.5" y="684.9194"/><text fill="#0A9EFD" font-family="Arial" font-size="14" lengthAdjust="spacing" textLength="67" x="109.5" y="705.0513">Voice SDK</text><rect fill="none" height="30.0986" rx="2.5" ry="2.5" style="stroke:#0A9EFD;stroke-width:2.0;" width="72" x="614" y="55"/><text fill="#0A9EFD" font-family="Arial" font-size="14" lengthAdjust="spacing" textLength="58" x="621" y="75.1318">SDRTN&#174;</text><rect fill="none" height="30.0986" rx="2.5" ry="2.5" style="stroke:#0A9EFD;stroke-width:2.0;" width="72" x="614" y="684.9194"/><text fill="#0A9EFD" font-family="Arial" font-size="14" lengthAdjust="spacing" textLength="58" x="621" y="705.0513">SDRTN&#174;</text><polygon fill="#0A9EFD" points="131,113.0474,141,117.0474,131,121.0474,135,117.0474" style="stroke:#0A9EFD;stroke-width:1.0;"/><line style="stroke:#0A9EFD;stroke-width:2.0;" x1="38" x2="137" y1="117.0474" y2="117.0474"/><text fill="#0A9EFD" font-family="Arial" font-size="13" lengthAdjust="spacing" textLength="56" x="62.5" y="112.2925">Open app</text><line style="stroke:#0A9EFD;stroke-width:2.0;" x1="143" x2="185" y1="160.9448" y2="160.9448"/><line style="stroke:#0A9EFD;stroke-width:2.0;" x1="185" x2="185" y1="160.9448" y2="173.9448"/><line style="stroke:#0A9EFD;stroke-width:2.0;" x1="144" x2="185" y1="173.9448" y2="173.9448"/><polygon fill="#0A9EFD" points="154,169.9448,144,173.9448,154,177.9448,150,173.9448" style="stroke:#0A9EFD;stroke-width:1.0;"/><text fill="#0A9EFD" font-family="Arial" font-size="13" lengthAdjust="spacing" textLength="261" x="190.5" y="141.2412">Create an Agora Voice SDK engine instance:</text><text fill="#0A9EFD" font-family="Arial" font-size="13" lengthAdjust="spacing" textLength="342" x="154" y="156.1899">RtcEngine = Agora.Rtc.RtcEngine.CreateAgoraRtcEngine()</text><polygon fill="#0A9EFD" points="638,243.7397,648,247.7397,638,251.7397,642,247.7397" style="stroke:#0A9EFD;stroke-width:1.0;"/><line style="stroke:#0A9EFD;stroke-width:2.0;" x1="143" x2="644" y1="247.7397" y2="247.7397"/><text fill="#0A9EFD" font-family="Arial" font-size="13" lengthAdjust="spacing" textLength="93" x="348" y="198.1387">Set the context:</text><text fill="#0A9EFD" font-family="Arial" font-size="13" lengthAdjust="spacing" textLength="394" x="199.5" y="213.0874">RtcEngineContext context = new RtcEngineContext(_appID, 0, true,</text><text fill="#0A9EFD" font-family="Arial" font-size="13" lengthAdjust="spacing" textLength="445" x="174" y="228.0361">CHANNEL_PROFILE_TYPE.CHANNEL_PROFILE_LIVE_BROADCASTING,</text><text fill="#0A9EFD" font-family="Arial" font-size="13" lengthAdjust="spacing" textLength="348" x="224.5" y="242.9849">AUDIO_SCENARIO_TYPE.AUDIO_SCENARIO_DEFAULT)</text><line style="stroke:#0A9EFD;stroke-width:2.0;" x1="143" x2="185" y1="291.6372" y2="291.6372"/><line style="stroke:#0A9EFD;stroke-width:2.0;" x1="185" x2="185" y1="291.6372" y2="304.6372"/><line style="stroke:#0A9EFD;stroke-width:2.0;" x1="144" x2="185" y1="304.6372" y2="304.6372"/><polygon fill="#0A9EFD" points="154,300.6372,144,304.6372,154,308.6372,150,304.6372" style="stroke:#0A9EFD;stroke-width:1.0;"/><text fill="#0A9EFD" font-family="Arial" font-size="13" lengthAdjust="spacing" textLength="116" x="173.5" y="271.9336">Initialize RtcEngine:</text><text fill="#0A9EFD" font-family="Arial" font-size="13" lengthAdjust="spacing" textLength="163" x="154" y="286.8823">RtcEngine.Initialize(context)</text><path d="M10,319.6372 L114,319.6372 L114,326.5859 L104,336.5859 L10,336.5859 L10,319.6372 " fill="#EEEEEE" style="stroke:#0A9EFD;stroke-width:1.5;"/><rect fill="none" height="190.5898" style="stroke:#0A9EFD;stroke-width:2.0;" width="686" x="10" y="319.6372"/><text fill="#000000" font-family="Arial" font-size="13" lengthAdjust="spacing" textLength="59" x="25" y="332.8311">Audio Call</text><polygon fill="#0A9EFD" points="131,353.5347,141,357.5347,131,361.5347,135,357.5347" style="stroke:#0A9EFD;stroke-width:1.0;"/><line style="stroke:#0A9EFD;stroke-width:2.0;" x1="38" x2="137" y1="357.5347" y2="357.5347"/><text fill="#0A9EFD" font-family="Arial" font-size="13" lengthAdjust="spacing" textLength="52" x="64.5" y="352.7798">Start call</text><line style="stroke:#0A9EFD;stroke-width:2.0;" x1="143" x2="185" y1="401.4321" y2="401.4321"/><line style="stroke:#0A9EFD;stroke-width:2.0;" x1="185" x2="185" y1="401.4321" y2="414.4321"/><line style="stroke:#0A9EFD;stroke-width:2.0;" x1="144" x2="185" y1="414.4321" y2="414.4321"/><polygon fill="#0A9EFD" points="154,410.4321,144,414.4321,154,418.4321,150,414.4321" style="stroke:#0A9EFD;stroke-width:1.0;"/><text fill="#0A9EFD" font-family="Arial" font-size="13" lengthAdjust="spacing" textLength="147" x="150" y="381.7285">Enable the audio module:</text><text fill="#0A9EFD" font-family="Arial" font-size="13" lengthAdjust="spacing" textLength="145" x="155" y="396.6772">RtcEngine.EnableAudio()</text><polygon fill="#0A9EFD" points="638,454.3296,648,458.3296,638,462.3296,642,458.3296" style="stroke:#0A9EFD;stroke-width:1.0;"/><line style="stroke:#0A9EFD;stroke-width:2.0;" x1="143" x2="644" y1="458.3296" y2="458.3296"/><text fill="#0A9EFD" font-family="Arial" font-size="13" lengthAdjust="spacing" textLength="190" x="299.5" y="438.626">Set the user role as broadcaster:</text><text fill="#0A9EFD" font-family="Arial" font-size="13" lengthAdjust="spacing" textLength="479" x="159" y="453.5747">RtcEngine.SetClientRole(CLIENT_ROLE_TYPE.CLIENT_ROLE_BROADCASTER)</text><polygon fill="#0A9EFD" points="638,498.2271,648,502.2271,638,506.2271,642,502.2271" style="stroke:#0A9EFD;stroke-width:1.0;"/><line style="stroke:#0A9EFD;stroke-width:2.0;" x1="143" x2="644" y1="502.2271" y2="502.2271"/><text fill="#0A9EFD" font-family="Arial" font-size="13" lengthAdjust="spacing" textLength="99" x="345" y="482.5234">Join the channel:</text><text fill="#0A9EFD" font-family="Arial" font-size="13" lengthAdjust="spacing" textLength="143" x="327" y="497.4722">RtcEngine.JoinChannel()</text><polygon fill="#0A9EFD" points="131,534.1758,141,538.1758,131,542.1758,135,538.1758" style="stroke:#0A9EFD;stroke-width:1.0;"/><line style="stroke:#0A9EFD;stroke-width:2.0;" x1="38" x2="137" y1="538.1758" y2="538.1758"/><text fill="#0A9EFD" font-family="Arial" font-size="13" lengthAdjust="spacing" textLength="81" x="50" y="533.4209">Leave the call</text><polygon fill="#0A9EFD" points="638,578.0732,648,582.0732,638,586.0732,642,582.0732" style="stroke:#0A9EFD;stroke-width:1.0;"/><line style="stroke:#0A9EFD;stroke-width:2.0;" x1="143" x2="644" y1="582.0732" y2="582.0732"/><text fill="#0A9EFD" font-family="Arial" font-size="13" lengthAdjust="spacing" textLength="110" x="339.5" y="562.3696">Leave the channel:</text><text fill="#0A9EFD" font-family="Arial" font-size="13" lengthAdjust="spacing" textLength="154" x="321.5" y="577.3184">RtcEngine.LeaveChannel()</text><polygon fill="#0A9EFD" points="131,607.022,141,611.022,131,615.022,135,611.022" style="stroke:#0A9EFD;stroke-width:1.0;"/><line style="stroke:#0A9EFD;stroke-width:2.0;" x1="38" x2="137" y1="611.022" y2="611.022"/><text fill="#0A9EFD" font-family="Arial" font-size="13" lengthAdjust="spacing" textLength="58" x="61.5" y="606.2671">Close app</text><line style="stroke:#0A9EFD;stroke-width:2.0;" x1="143" x2="185" y1="654.9194" y2="654.9194"/><line style="stroke:#0A9EFD;stroke-width:2.0;" x1="185" x2="185" y1="654.9194" y2="667.9194"/><line style="stroke:#0A9EFD;stroke-width:2.0;" x1="144" x2="185" y1="667.9194" y2="667.9194"/><polygon fill="#0A9EFD" points="154,663.9194,144,667.9194,154,671.9194,150,667.9194" style="stroke:#0A9EFD;stroke-width:1.0;"/><text fill="#0A9EFD" font-family="Arial" font-size="13" lengthAdjust="spacing" textLength="157" x="150" y="635.2158">Disable the audio modules:</text><text fill="#0A9EFD" font-family="Arial" font-size="13" lengthAdjust="spacing" textLength="148" x="160.5" y="650.1646">RtcEngine.DisableAudio()</text><!--SRC=[TLFHRfmm47ptLsnvkfCk9CydjH8rf76Bu0HSf4YLa0zM5ol4HiQaKJ-g7z4lgp4NxY3f6vxTcV6Ebqz2LarV8_Z-zOkeKLrrzTCrFohDo-v9I5_qpmqXl39AWxVlK7l0EzZd6I47zGhUW-eryBRr26cvDg8IBPS6l7ibAeGy_E7wWzsE49GrMCw960mUIrOUPaNozy-9mouurX6klWn2MqXRb8CdiQS9f1gvGU0Id39C5m2KHo4HXEmCbnLkuQU4p5JH27yU-tsB-1FgZsgkCe6hzTcGRI570-OHeLBIuAkPoz8HV2jQ5uc_tfLNfPs2XHkusO3HFMu63NeN94aKbxiilMLnL1OFkyXVWZ6xZyglMHg4DCWBbdnpr60VihJCQPG4cVrmp0KMHhV1FYxMi-oO54RmHlp6ynNdy_ZdbjLffZKXHwtw5eA-5WeeRvhPA-N6lYnK0tpf5Kb-QD0bnntnMTLzixGRkvpoVsBlxIw2LbRAxif1ArvNl3Ee5qAsdJO2fSbiwuh6B4gACakdN2-0ASuecrj-LqAEJ_t8fSHcOJ6KwLYnTxKREz_M6FdBEEyy2pOhVQZiwcVfcInjL8Vl_e9GT1_6spdb2-bJurl2_m00]--></g></svg>