<?xml version="1.0" encoding="us-ascii" standalone="no"?><svg xmlns="http://www.w3.org/2000/svg" xmlns:xlink="http://www.w3.org/1999/xlink" contentStyleType="text/css" height="747px" preserveAspectRatio="none" style="width:418px;height:747px;" version="1.1" viewBox="0 0 418 747" width="418px" zoomAndPan="magnify"><defs/><g><rect fill="none" height="745.1206" style="stroke:#0A9EFD;stroke-width:1.0;" width="416.5" x="0" y="0"/><rect fill="#999999" fill-opacity="0.33333" height="735.1206" style="stroke:#0A9EFD;stroke-width:0.5;" width="89" x="75" y="6"/><text fill="#0A9EFD" font-family="sans-serif" font-size="13" font-weight="bold" lengthAdjust="spacing" textLength="57" x="91" y="19.4951">Your app</text><rect fill="#999999" fill-opacity="0.33333" height="735.1206" style="stroke:#0A9EFD;stroke-width:0.5;" width="74" x="332.5" y="6"/><text fill="#0A9EFD" font-family="sans-serif" font-size="13" font-weight="bold" lengthAdjust="spacing" textLength="38" x="350.5" y="19.4951">Agora</text><rect fill="#0A9EFD" fill-opacity="0.06667" height="292.3848" style="stroke:#0A9EFD;stroke-width:2.0;" width="402.5" x="10" y="245.8423"/><line style="stroke:#0A9EFD;stroke-width:0.5;stroke-dasharray:5.0,5.0;" x1="37" x2="37" y1="86.0986" y2="657.022"/><line style="stroke:#0A9EFD;stroke-width:0.5;stroke-dasharray:5.0,5.0;" x1="119" x2="119" y1="86.0986" y2="657.022"/><line style="stroke:#0A9EFD;stroke-width:0.5;stroke-dasharray:5.0,5.0;" x1="369.5" x2="369.5" y1="86.0986" y2="657.022"/><text fill="#0A9EFD" font-family="Arial" font-size="14" lengthAdjust="spacing" textLength="29" x="20" y="83.1318">User</text><ellipse cx="37.5" cy="16" fill="none" rx="8" ry="8" style="stroke:#0A9EFD;stroke-width:3.0;"/><path d="M37.5,24 L37.5,51 M24.5,32 L50.5,32 M37.5,51 L24.5,66 M37.5,51 L50.5,66 " fill="none" style="stroke:#0A9EFD;stroke-width:3.0;"/><text fill="#0A9EFD" font-family="Arial" font-size="14" lengthAdjust="spacing" textLength="29" x="20" y="669.1538">User</text><ellipse cx="37.5" cy="683.1206" fill="none" rx="8" ry="8" style="stroke:#0A9EFD;stroke-width:3.0;"/><path d="M37.5,691.1206 L37.5,718.1206 M24.5,699.1206 L50.5,699.1206 M37.5,718.1206 L24.5,733.1206 M37.5,718.1206 L50.5,733.1206 " fill="none" style="stroke:#0A9EFD;stroke-width:3.0;"/><rect fill="none" height="30.0986" rx="2.5" ry="2.5" style="stroke:#0A9EFD;stroke-width:2.0;" width="81" x="79" y="55"/><text fill="#0A9EFD" font-family="Arial" font-size="14" lengthAdjust="spacing" textLength="67" x="86" y="75.1318">Voice SDK</text><rect fill="none" height="30.0986" rx="2.5" ry="2.5" style="stroke:#0A9EFD;stroke-width:2.0;" width="81" x="79" y="656.022"/><text fill="#0A9EFD" font-family="Arial" font-size="14" lengthAdjust="spacing" textLength="67" x="86" y="676.1538">Voice SDK</text><rect fill="none" height="30.0986" rx="2.5" ry="2.5" style="stroke:#0A9EFD;stroke-width:2.0;" width="66" x="336.5" y="55"/><text fill="#0A9EFD" font-family="Arial" font-size="14" lengthAdjust="spacing" textLength="52" x="343.5" y="75.1318">SD-RTN</text><rect fill="none" height="30.0986" rx="2.5" ry="2.5" style="stroke:#0A9EFD;stroke-width:2.0;" width="66" x="336.5" y="656.022"/><text fill="#0A9EFD" font-family="Arial" font-size="14" lengthAdjust="spacing" textLength="52" x="343.5" y="676.1538">SD-RTN</text><polygon fill="#0A9EFD" points="107.5,113.0474,117.5,117.0474,107.5,121.0474,111.5,117.0474" style="stroke:#0A9EFD;stroke-width:1.0;"/><line style="stroke:#0A9EFD;stroke-width:2.0;" x1="37.5" x2="113.5" y1="117.0474" y2="117.0474"/><text fill="#0A9EFD" font-family="Arial" font-size="13" lengthAdjust="spacing" textLength="56" x="50.5" y="112.2925">Open app</text><line style="stroke:#0A9EFD;stroke-width:2.0;" x1="119.5" x2="161.5" y1="160.9448" y2="160.9448"/><line style="stroke:#0A9EFD;stroke-width:2.0;" x1="161.5" x2="161.5" y1="160.9448" y2="173.9448"/><line style="stroke:#0A9EFD;stroke-width:2.0;" x1="120.5" x2="161.5" y1="173.9448" y2="173.9448"/><polygon fill="#0A9EFD" points="130.5,169.9448,120.5,173.9448,130.5,177.9448,126.5,173.9448" style="stroke:#0A9EFD;stroke-width:1.0;"/><text fill="#0A9EFD" font-family="Arial" font-size="13" lengthAdjust="spacing" textLength="221" x="129" y="141.2412">Initialize the Agora Voice SDK engine:</text><text fill="#0A9EFD" font-family="Arial" font-size="13" lengthAdjust="spacing" textLength="226" x="130.5" y="156.1899">agoraEngine = createAgoraRtcEngine()</text><line style="stroke:#0A9EFD;stroke-width:2.0;" x1="119.5" x2="161.5" y1="217.8423" y2="217.8423"/><line style="stroke:#0A9EFD;stroke-width:2.0;" x1="161.5" x2="161.5" y1="217.8423" y2="230.8423"/><line style="stroke:#0A9EFD;stroke-width:2.0;" x1="120.5" x2="161.5" y1="230.8423" y2="230.8423"/><polygon fill="#0A9EFD" points="130.5,226.8423,120.5,230.8423,130.5,234.8423,126.5,230.8423" style="stroke:#0A9EFD;stroke-width:1.0;"/><text fill="#0A9EFD" font-family="Arial" font-size="13" lengthAdjust="spacing" textLength="154" x="147" y="198.1387">Register the event handler:</text><text fill="#0A9EFD" font-family="Arial" font-size="13" lengthAdjust="spacing" textLength="195" x="130.5" y="213.0874">agoraEngine.registerEventHandler</text><path d="M10,245.8423 L114,245.8423 L114,252.791 L104,262.791 L10,262.791 L10,245.8423 " fill="#EEEEEE" style="stroke:#0A9EFD;stroke-width:1.5;"/><rect fill="none" height="292.3848" style="stroke:#0A9EFD;stroke-width:2.0;" width="402.5" x="10" y="245.8423"/><text fill="#000000" font-family="Arial" font-size="13" lengthAdjust="spacing" textLength="59" x="25" y="259.0361">Voice Call</text><polygon fill="#0A9EFD" points="107.5,279.7397,117.5,283.7397,107.5,287.7397,111.5,283.7397" style="stroke:#0A9EFD;stroke-width:1.0;"/><line style="stroke:#0A9EFD;stroke-width:2.0;" x1="37.5" x2="113.5" y1="283.7397" y2="283.7397"/><text fill="#0A9EFD" font-family="Arial" font-size="13" lengthAdjust="spacing" textLength="58" x="49.5" y="278.9849">Join a call</text><polygon fill="#0A9EFD" points="357.5,323.6372,367.5,327.6372,357.5,331.6372,361.5,327.6372" style="stroke:#0A9EFD;stroke-width:1.0;"/><line style="stroke:#0A9EFD;stroke-width:2.0;" x1="119.5" x2="363.5" y1="327.6372" y2="327.6372"/><text fill="#0A9EFD" font-family="Arial" font-size="13" lengthAdjust="spacing" textLength="95" x="195" y="307.9336">Set a client role:</text><text fill="#0A9EFD" font-family="Arial" font-size="13" lengthAdjust="spacing" textLength="153" x="170" y="322.8823">agoraEngine.setClientRole</text><polygon fill="#0A9EFD" points="357.5,367.5347,367.5,371.5347,357.5,375.5347,361.5,371.5347" style="stroke:#0A9EFD;stroke-width:1.0;"/><line style="stroke:#0A9EFD;stroke-width:2.0;" x1="119.5" x2="363.5" y1="371.5347" y2="371.5347"/><text fill="#0A9EFD" font-family="Arial" font-size="13" lengthAdjust="spacing" textLength="122" x="181.5" y="351.8311">Set a channel profile:</text><text fill="#0A9EFD" font-family="Arial" font-size="13" lengthAdjust="spacing" textLength="177" x="158" y="366.7798">agoraEngine.setChannelProfile</text><line style="stroke:#0A9EFD;stroke-width:2.0;" x1="119.5" x2="161.5" y1="400.4834" y2="400.4834"/><line style="stroke:#0A9EFD;stroke-width:2.0;" x1="161.5" x2="161.5" y1="400.4834" y2="413.4834"/><line style="stroke:#0A9EFD;stroke-width:2.0;" x1="120.5" x2="161.5" y1="413.4834" y2="413.4834"/><polygon fill="#0A9EFD" points="130.5,409.4834,120.5,413.4834,130.5,417.4834,126.5,413.4834" style="stroke:#0A9EFD;stroke-width:1.0;"/><text fill="#0A9EFD" font-family="Arial" font-size="13" lengthAdjust="spacing" textLength="167" x="126.5" y="395.7285">Retrieve authentication token</text><polygon fill="#0A9EFD" points="357.5,453.3809,367.5,457.3809,357.5,461.3809,361.5,457.3809" style="stroke:#0A9EFD;stroke-width:1.0;"/><line style="stroke:#0A9EFD;stroke-width:2.0;" x1="119.5" x2="363.5" y1="457.3809" y2="457.3809"/><text fill="#0A9EFD" font-family="Arial" font-size="13" lengthAdjust="spacing" textLength="180" x="154.5" y="437.6772">Join a channel using the token:</text><text fill="#0A9EFD" font-family="Arial" font-size="13" lengthAdjust="spacing" textLength="143" x="175" y="452.626">agoraEngine.joinChannel</text><polygon fill="#0A9EFD" points="130.5,497.2783,120.5,501.2783,130.5,505.2783,126.5,501.2783" style="stroke:#0A9EFD;stroke-width:1.0;"/><line style="stroke:#0A9EFD;stroke-width:2.0;" x1="124.5" x2="368.5" y1="501.2783" y2="501.2783"/><text fill="#0A9EFD" font-family="Arial" font-size="13" lengthAdjust="spacing" textLength="116" x="184.5" y="481.5747">Remote user joined:</text><text fill="#0A9EFD" font-family="Arial" font-size="13" lengthAdjust="spacing" textLength="222" x="135.5" y="496.5234">RtcEngineEventHandler onUserJoined:</text><polygon fill="#0A9EFD" points="130.5,526.2271,120.5,530.2271,130.5,534.2271,126.5,530.2271" style="stroke:#0A9EFD;stroke-width:1.0;"/><polygon fill="#0A9EFD" points="357.5,526.2271,367.5,530.2271,357.5,534.2271,361.5,530.2271" style="stroke:#0A9EFD;stroke-width:1.0;"/><line style="stroke:#0A9EFD;stroke-width:2.0;" x1="124.5" x2="363.5" y1="530.2271" y2="530.2271"/><text fill="#0A9EFD" font-family="Arial" font-size="13" lengthAdjust="spacing" textLength="179" x="155" y="525.4722">Send and receive data streams</text><polygon fill="#0A9EFD" points="107.5,562.1758,117.5,566.1758,107.5,570.1758,111.5,566.1758" style="stroke:#0A9EFD;stroke-width:1.0;"/><line style="stroke:#0A9EFD;stroke-width:2.0;" x1="37.5" x2="113.5" y1="566.1758" y2="566.1758"/><text fill="#0A9EFD" font-family="Arial" font-size="13" lengthAdjust="spacing" textLength="57" x="50" y="561.4209">Leave call</text><polygon fill="#0A9EFD" points="357.5,606.0732,367.5,610.0732,357.5,614.0732,361.5,610.0732" style="stroke:#0A9EFD;stroke-width:1.0;"/><line style="stroke:#0A9EFD;stroke-width:2.0;" x1="119.5" x2="363.5" y1="610.0732" y2="610.0732"/><text fill="#0A9EFD" font-family="Arial" font-size="13" lengthAdjust="spacing" textLength="104" x="192.5" y="590.3696">Leave the channel</text><text fill="#0A9EFD" font-family="Arial" font-size="13" lengthAdjust="spacing" textLength="160" x="166.5" y="605.3184">agoraEngine.leaveChannel()</text><polygon fill="#0A9EFD" points="107.5,635.022,117.5,639.022,107.5,643.022,111.5,639.022" style="stroke:#0A9EFD;stroke-width:1.0;"/><line style="stroke:#0A9EFD;stroke-width:2.0;" x1="37.5" x2="113.5" y1="639.022" y2="639.022"/><text fill="#0A9EFD" font-family="Arial" font-size="13" lengthAdjust="spacing" textLength="58" x="49.5" y="634.2671">Close app</text><!--SRC=[TLBDJiCm3BxdAKnFSDWUO0AaQPl41eAfOqX8I2YqfZFBaYf94UBfST9GrWB7ED-FFzidf0lLb0YoCbO-kptfCJK79OGilB6GRHtQ3AI3xIONuiLyGFPe6WkohZDHI-kfe5fg3zc3eG9XCx-EyEbwBL2Nm8n4cmQ70MSp7-Ntjucm_26m6OmkWyW4xchKmKxmgoikDNcIYZuH_0uXQaFN0Q2kIEC4ddGRR17VS065HUanmdDVjENJivvqZXKvZpOAupjodpkfIuLsg3Us2Re8gAiM94HbJLEdPcPIgLwQbI7MW2BKEzVb13ReGrbHyBD6_Mf-xD3FudVEltznkKkD2cfhNkaVVWjPjuX1Qc-9qu9iEBVc5KbFHeCtUzGzj-y4oQvnfAiugmYT35pV69rieyhvg5N9yM0yCfi77J1OneQxfHoF58mEPxXgOKccoyutmp2mM21n_wNq4fpdFHzSEAZ-CTsWPColwRVb42B56gHGuJ_5u7CvLfmfup3UvnS0]--></g></svg>