<svg width="1680" height="345" viewBox="0 0 1680 345" fill="none" xmlns="http://www.w3.org/2000/svg">
<g clip-path="url(#clip0_570_13531)">
<rect x="1.35602" y="0.356017" width="1678.29" height="346.288" rx="19.644" fill="#1C1F26" stroke="#2F333B" stroke-width="0.712034"/>
<path d="M0.345703 0.120117L560.345 0.120142" stroke="white" stroke-opacity="0.01" stroke-width="1.33333" stroke-linecap="round" stroke-linejoin="round"/>
<path d="M0.335938 26.7866L560.335 26.7866" stroke="white" stroke-opacity="0.01" stroke-width="1.33333" stroke-linecap="round" stroke-linejoin="round"/>
<path d="M0.327148 53.4536L560.327 53.4536" stroke="white" stroke-opacity="0.01" stroke-width="1.33333" stroke-linecap="round" stroke-linejoin="round"/>
<path d="M0.317383 80.1201L560.317 80.1201" stroke="white" stroke-opacity="0.01" stroke-width="1.33333" stroke-linecap="round" stroke-linejoin="round"/>
<path d="M0.307617 106.787L560.307 106.787" stroke="white" stroke-opacity="0.01" stroke-width="1.33333" stroke-linecap="round" stroke-linejoin="round"/>
<path d="M0.298828 133.454L560.298 133.454" stroke="white" stroke-opacity="0.01" stroke-width="1.33333" stroke-linecap="round" stroke-linejoin="round"/>
<path d="M0.289062 160.12L560.289 160.12" stroke="white" stroke-opacity="0.01" stroke-width="1.33333" stroke-linecap="round" stroke-linejoin="round"/>
<path d="M0.280273 186.787L560.28 186.787" stroke="white" stroke-opacity="0.01" stroke-width="1.33333" stroke-linecap="round" stroke-linejoin="round"/>
<path d="M0.270508 213.454L560.27 213.454" stroke="white" stroke-opacity="0.01" stroke-width="1.33333" stroke-linecap="round" stroke-linejoin="round"/>
<path d="M0.260742 240.12L560.26 240.12" stroke="white" stroke-opacity="0.01" stroke-width="1.33333" stroke-linecap="round" stroke-linejoin="round"/>
<path d="M0.251953 266.787L560.251 266.787" stroke="white" stroke-opacity="0.01" stroke-width="1.33333" stroke-linecap="round" stroke-linejoin="round"/>
<path d="M0.242188 293.454L560.242 293.454" stroke="white" stroke-opacity="0.01" stroke-width="1.33333" stroke-linecap="round" stroke-linejoin="round"/>
<path d="M0.232422 320.12L560.232 320.12" stroke="white" stroke-opacity="0.01" stroke-width="1.33333" stroke-linecap="round" stroke-linejoin="round"/>
<path d="M-0.125171 1332.47L0.402344 -159.88" stroke="white" stroke-opacity="0.01" stroke-width="1.33333" stroke-linecap="round" stroke-linejoin="round"/>
<path d="M26.5418 1332.47L27.0693 -159.88" stroke="white" stroke-opacity="0.01" stroke-width="1.33333" stroke-linecap="round" stroke-linejoin="round"/>
<path d="M53.2078 1332.47L53.7354 -159.88" stroke="white" stroke-opacity="0.01" stroke-width="1.33333" stroke-linecap="round" stroke-linejoin="round"/>
<path d="M79.8748 1332.47L80.4023 -159.88" stroke="white" stroke-opacity="0.01" stroke-width="1.33333" stroke-linecap="round" stroke-linejoin="round"/>
<path d="M106.542 1332.47L107.069 -159.88" stroke="white" stroke-opacity="0.01" stroke-width="1.33333" stroke-linecap="round" stroke-linejoin="round"/>
<path d="M133.208 1332.47L133.735 -159.88" stroke="white" stroke-opacity="0.01" stroke-width="1.33333" stroke-linecap="round" stroke-linejoin="round"/>
<path d="M159.875 1332.47L160.402 -159.88" stroke="white" stroke-opacity="0.01" stroke-width="1.33333" stroke-linecap="round" stroke-linejoin="round"/>
<path d="M186.541 1332.47L187.068 -159.88" stroke="white" stroke-opacity="0.01" stroke-width="1.33333" stroke-linecap="round" stroke-linejoin="round"/>
<path d="M213.208 1332.47L213.735 -159.88" stroke="white" stroke-opacity="0.01" stroke-width="1.33333" stroke-linecap="round" stroke-linejoin="round"/>
<path d="M239.875 1332.47L240.402 -159.88" stroke="white" stroke-opacity="0.01" stroke-width="1.33333" stroke-linecap="round" stroke-linejoin="round"/>
<path d="M266.541 1332.47L267.068 -159.88" stroke="white" stroke-opacity="0.01" stroke-width="1.33333" stroke-linecap="round" stroke-linejoin="round"/>
<path d="M293.208 1332.47L293.735 -159.88" stroke="white" stroke-opacity="0.01" stroke-width="1.33333" stroke-linecap="round" stroke-linejoin="round"/>
<path d="M319.875 1332.47L320.402 -159.88" stroke="white" stroke-opacity="0.01" stroke-width="1.33333" stroke-linecap="round" stroke-linejoin="round"/>
<path d="M346.541 1332.47L347.068 -159.88" stroke="white" stroke-opacity="0.01" stroke-width="1.33333" stroke-linecap="round" stroke-linejoin="round"/>
<path d="M373.208 1332.47L373.735 -159.88" stroke="white" stroke-opacity="0.01" stroke-width="1.33333" stroke-linecap="round" stroke-linejoin="round"/>
<path d="M399.875 1332.47L400.402 -159.88" stroke="white" stroke-opacity="0.01" stroke-width="1.33333" stroke-linecap="round" stroke-linejoin="round"/>
<path d="M426.541 1332.47L427.068 -159.88" stroke="white" stroke-opacity="0.01" stroke-width="1.33333" stroke-linecap="round" stroke-linejoin="round"/>
<path d="M453.208 1332.47L453.735 -159.88" stroke="white" stroke-opacity="0.01" stroke-width="1.33333" stroke-linecap="round" stroke-linejoin="round"/>
<path d="M479.875 1332.47L480.402 -159.88" stroke="white" stroke-opacity="0.01" stroke-width="1.33333" stroke-linecap="round" stroke-linejoin="round"/>
<path d="M506.541 1332.47L507.068 -159.88" stroke="white" stroke-opacity="0.01" stroke-width="1.33333" stroke-linecap="round" stroke-linejoin="round"/>
<path d="M533.208 1332.47L533.735 -159.88" stroke="white" stroke-opacity="0.01" stroke-width="1.33333" stroke-linecap="round" stroke-linejoin="round"/>
<path d="M559.875 1332.47L560.402 -159.88" stroke="white" stroke-opacity="0.01" stroke-width="1.33333" stroke-linecap="round" stroke-linejoin="round"/>
<path d="M560.906 0L1120.91 2.44673e-05" stroke="white" stroke-opacity="0.01" stroke-width="1.33333" stroke-linecap="round" stroke-linejoin="round"/>
<path d="M560.896 26.6665L1120.9 26.6665" stroke="white" stroke-opacity="0.01" stroke-width="1.33333" stroke-linecap="round" stroke-linejoin="round"/>
<path d="M560.888 53.3335L1120.89 53.3335" stroke="white" stroke-opacity="0.01" stroke-width="1.33333" stroke-linecap="round" stroke-linejoin="round"/>
<path d="M560.878 80L1120.88 80" stroke="white" stroke-opacity="0.01" stroke-width="1.33333" stroke-linecap="round" stroke-linejoin="round"/>
<path d="M560.868 106.667L1120.87 106.667" stroke="white" stroke-opacity="0.01" stroke-width="1.33333" stroke-linecap="round" stroke-linejoin="round"/>
<path d="M560.859 133.333L1120.86 133.334" stroke="white" stroke-opacity="0.01" stroke-width="1.33333" stroke-linecap="round" stroke-linejoin="round"/>
<path d="M560.85 160L1120.85 160" stroke="white" stroke-opacity="0.01" stroke-width="1.33333" stroke-linecap="round" stroke-linejoin="round"/>
<path d="M560.841 186.667L1120.84 186.667" stroke="white" stroke-opacity="0.01" stroke-width="1.33333" stroke-linecap="round" stroke-linejoin="round"/>
<path d="M560.831 213.333L1120.83 213.334" stroke="white" stroke-opacity="0.01" stroke-width="1.33333" stroke-linecap="round" stroke-linejoin="round"/>
<path d="M560.821 240L1120.82 240" stroke="white" stroke-opacity="0.01" stroke-width="1.33333" stroke-linecap="round" stroke-linejoin="round"/>
<path d="M560.812 266.667L1120.81 266.667" stroke="white" stroke-opacity="0.01" stroke-width="1.33333" stroke-linecap="round" stroke-linejoin="round"/>
<path d="M560.803 293.333L1120.8 293.334" stroke="white" stroke-opacity="0.01" stroke-width="1.33333" stroke-linecap="round" stroke-linejoin="round"/>
<path d="M560.793 320L1120.79 320" stroke="white" stroke-opacity="0.01" stroke-width="1.33333" stroke-linecap="round" stroke-linejoin="round"/>
<path d="M560.402 1425.78L560.963 -160" stroke="white" stroke-opacity="0.01" stroke-width="1.33333" stroke-linecap="round" stroke-linejoin="round"/>
<path d="M587.069 1425.78L587.63 -160" stroke="white" stroke-opacity="0.01" stroke-width="1.33333" stroke-linecap="round" stroke-linejoin="round"/>
<path d="M613.735 1425.78L614.296 -160" stroke="white" stroke-opacity="0.01" stroke-width="1.33333" stroke-linecap="round" stroke-linejoin="round"/>
<path d="M640.402 1425.78L640.963 -160" stroke="white" stroke-opacity="0.01" stroke-width="1.33333" stroke-linecap="round" stroke-linejoin="round"/>
<path d="M667.069 1425.78L667.63 -160" stroke="white" stroke-opacity="0.01" stroke-width="1.33333" stroke-linecap="round" stroke-linejoin="round"/>
<path d="M693.735 1425.78L694.296 -160" stroke="white" stroke-opacity="0.01" stroke-width="1.33333" stroke-linecap="round" stroke-linejoin="round"/>
<path d="M720.402 1425.78L720.963 -160" stroke="white" stroke-opacity="0.01" stroke-width="1.33333" stroke-linecap="round" stroke-linejoin="round"/>
<path d="M747.068 1425.78L747.629 -160" stroke="white" stroke-opacity="0.01" stroke-width="1.33333" stroke-linecap="round" stroke-linejoin="round"/>
<path d="M773.735 1425.78L774.296 -160" stroke="white" stroke-opacity="0.01" stroke-width="1.33333" stroke-linecap="round" stroke-linejoin="round"/>
<path d="M800.402 1425.78L800.963 -160" stroke="white" stroke-opacity="0.01" stroke-width="1.33333" stroke-linecap="round" stroke-linejoin="round"/>
<path d="M827.068 1425.78L827.629 -160" stroke="white" stroke-opacity="0.01" stroke-width="1.33333" stroke-linecap="round" stroke-linejoin="round"/>
<path d="M853.735 1425.78L854.296 -160" stroke="white" stroke-opacity="0.01" stroke-width="1.33333" stroke-linecap="round" stroke-linejoin="round"/>
<path d="M880.402 1425.78L880.963 -160" stroke="white" stroke-opacity="0.01" stroke-width="1.33333" stroke-linecap="round" stroke-linejoin="round"/>
<path d="M907.068 1425.78L907.629 -160" stroke="white" stroke-opacity="0.01" stroke-width="1.33333" stroke-linecap="round" stroke-linejoin="round"/>
<path d="M933.735 1425.78L934.296 -160" stroke="white" stroke-opacity="0.01" stroke-width="1.33333" stroke-linecap="round" stroke-linejoin="round"/>
<path d="M960.402 1425.78L960.963 -160" stroke="white" stroke-opacity="0.01" stroke-width="1.33333" stroke-linecap="round" stroke-linejoin="round"/>
<path d="M987.068 1425.78L987.629 -160" stroke="white" stroke-opacity="0.01" stroke-width="1.33333" stroke-linecap="round" stroke-linejoin="round"/>
<path d="M1013.74 1425.78L1014.3 -160" stroke="white" stroke-opacity="0.01" stroke-width="1.33333" stroke-linecap="round" stroke-linejoin="round"/>
<path d="M1040.4 1425.78L1040.96 -160" stroke="white" stroke-opacity="0.01" stroke-width="1.33333" stroke-linecap="round" stroke-linejoin="round"/>
<path d="M1067.07 1425.78L1067.63 -160" stroke="white" stroke-opacity="0.01" stroke-width="1.33333" stroke-linecap="round" stroke-linejoin="round"/>
<path d="M1093.74 1425.78L1094.3 -160" stroke="white" stroke-opacity="0.01" stroke-width="1.33333" stroke-linecap="round" stroke-linejoin="round"/>
<path d="M1120.76 25.9302L1680.76 25.36" stroke="white" stroke-opacity="0.01" stroke-width="1.33333" stroke-linecap="round" stroke-linejoin="round"/>
<path d="M1120.78 52.5972L1680.78 52.027" stroke="white" stroke-opacity="0.01" stroke-width="1.33333" stroke-linecap="round" stroke-linejoin="round"/>
<path d="M1120.8 79.2637L1680.8 78.6935" stroke="white" stroke-opacity="0.01" stroke-width="1.33333" stroke-linecap="round" stroke-linejoin="round"/>
<path d="M1120.82 105.93L1680.82 105.36" stroke="white" stroke-opacity="0.01" stroke-width="1.33333" stroke-linecap="round" stroke-linejoin="round"/>
<path d="M1120.83 132.597L1680.83 132.026" stroke="white" stroke-opacity="0.01" stroke-width="1.33333" stroke-linecap="round" stroke-linejoin="round"/>
<path d="M1120.85 159.264L1680.85 158.693" stroke="white" stroke-opacity="0.01" stroke-width="1.33333" stroke-linecap="round" stroke-linejoin="round"/>
<path d="M1120.87 185.93L1680.87 185.36" stroke="white" stroke-opacity="0.01" stroke-width="1.33333" stroke-linecap="round" stroke-linejoin="round"/>
<path d="M1120.89 212.597L1680.89 212.026" stroke="white" stroke-opacity="0.01" stroke-width="1.33333" stroke-linecap="round" stroke-linejoin="round"/>
<path d="M1120.9 239.264L1680.9 238.693" stroke="white" stroke-opacity="0.01" stroke-width="1.33333" stroke-linecap="round" stroke-linejoin="round"/>
<path d="M1120.92 265.93L1680.92 265.36" stroke="white" stroke-opacity="0.01" stroke-width="1.33333" stroke-linecap="round" stroke-linejoin="round"/>
<path d="M1120.94 292.597L1680.94 292.027" stroke="white" stroke-opacity="0.01" stroke-width="1.33333" stroke-linecap="round" stroke-linejoin="round"/>
<path d="M1120.96 319.264L1680.96 318.693" stroke="white" stroke-opacity="0.01" stroke-width="1.33333" stroke-linecap="round" stroke-linejoin="round"/>
<path d="M1120.98 345.93L1680.97 345.36" stroke="white" stroke-opacity="0.01" stroke-width="1.33333" stroke-linecap="round" stroke-linejoin="round"/>
<path d="M1121.67 1396.82L1120.64 -160.736" stroke="white" stroke-opacity="0.01" stroke-width="1.33333" stroke-linecap="round" stroke-linejoin="round"/>
<path d="M1148.34 1396.79L1147.31 -160.764" stroke="white" stroke-opacity="0.01" stroke-width="1.33333" stroke-linecap="round" stroke-linejoin="round"/>
<path d="M1175.01 1396.77L1173.97 -160.791" stroke="white" stroke-opacity="0.01" stroke-width="1.33333" stroke-linecap="round" stroke-linejoin="round"/>
<path d="M1201.67 1396.74L1200.64 -160.818" stroke="white" stroke-opacity="0.01" stroke-width="1.33333" stroke-linecap="round" stroke-linejoin="round"/>
<path d="M1228.34 1396.71L1227.31 -160.845" stroke="white" stroke-opacity="0.01" stroke-width="1.33333" stroke-linecap="round" stroke-linejoin="round"/>
<path d="M1255.01 1396.69L1253.97 -160.872" stroke="white" stroke-opacity="0.01" stroke-width="1.33333" stroke-linecap="round" stroke-linejoin="round"/>
<path d="M1281.67 1396.66L1280.64 -160.899" stroke="white" stroke-opacity="0.01" stroke-width="1.33333" stroke-linecap="round" stroke-linejoin="round"/>
<path d="M1308.34 1396.63L1307.3 -160.926" stroke="white" stroke-opacity="0.01" stroke-width="1.33333" stroke-linecap="round" stroke-linejoin="round"/>
<path d="M1335.01 1396.6L1333.97 -160.954" stroke="white" stroke-opacity="0.01" stroke-width="1.33333" stroke-linecap="round" stroke-linejoin="round"/>
<path d="M1361.67 1396.58L1360.64 -160.981" stroke="white" stroke-opacity="0.01" stroke-width="1.33333" stroke-linecap="round" stroke-linejoin="round"/>
<path d="M1388.34 1396.55L1387.3 -161.008" stroke="white" stroke-opacity="0.01" stroke-width="1.33333" stroke-linecap="round" stroke-linejoin="round"/>
<path d="M1415.01 1396.52L1413.97 -161.035" stroke="white" stroke-opacity="0.01" stroke-width="1.33333" stroke-linecap="round" stroke-linejoin="round"/>
<path d="M1441.67 1396.5L1440.64 -161.062" stroke="white" stroke-opacity="0.01" stroke-width="1.33333" stroke-linecap="round" stroke-linejoin="round"/>
<path d="M1468.34 1396.47L1467.3 -161.089" stroke="white" stroke-opacity="0.01" stroke-width="1.33333" stroke-linecap="round" stroke-linejoin="round"/>
<path d="M1495.01 1396.44L1493.97 -161.117" stroke="white" stroke-opacity="0.01" stroke-width="1.33333" stroke-linecap="round" stroke-linejoin="round"/>
<path d="M1521.67 1396.41L1520.64 -161.144" stroke="white" stroke-opacity="0.01" stroke-width="1.33333" stroke-linecap="round" stroke-linejoin="round"/>
<path d="M1548.34 1396.39L1547.3 -161.171" stroke="white" stroke-opacity="0.01" stroke-width="1.33333" stroke-linecap="round" stroke-linejoin="round"/>
<path d="M1575.01 1396.36L1573.97 -161.198" stroke="white" stroke-opacity="0.01" stroke-width="1.33333" stroke-linecap="round" stroke-linejoin="round"/>
<path d="M1601.67 1396.33L1600.64 -161.225" stroke="white" stroke-opacity="0.01" stroke-width="1.33333" stroke-linecap="round" stroke-linejoin="round"/>
<path d="M1628.34 1396.31L1627.3 -161.252" stroke="white" stroke-opacity="0.01" stroke-width="1.33333" stroke-linecap="round" stroke-linejoin="round"/>
<path d="M1655.01 1396.28L1653.97 -161.279" stroke="white" stroke-opacity="0.01" stroke-width="1.33333" stroke-linecap="round" stroke-linejoin="round"/>
<rect x="1195.59" y="120.5" width="254.995" height="105.781" rx="7.5" transform="rotate(0.0471412 1195.59 120.5)" fill="#2F333B"/>
<rect x="1195.59" y="120.5" width="254.995" height="105.781" rx="7.5" transform="rotate(0.0471412 1195.59 120.5)" stroke="#373B42"/>
<path opacity="0.8" d="M1312.29 170.263C1312.21 169.59 1311.9 169.069 1311.35 168.699C1310.8 168.325 1310.11 168.137 1309.28 168.137C1308.68 168.136 1308.17 168.23 1307.73 168.419C1307.29 168.604 1306.95 168.859 1306.71 169.186C1306.48 169.507 1306.36 169.874 1306.36 170.286C1306.36 170.632 1306.44 170.93 1306.6 171.181C1306.76 171.432 1306.98 171.643 1307.24 171.814C1307.51 171.98 1307.8 172.12 1308.11 172.234C1308.42 172.343 1308.71 172.433 1309 172.504L1310.42 172.875C1310.88 172.989 1311.36 173.143 1311.84 173.338C1312.33 173.532 1312.78 173.788 1313.2 174.106C1313.62 174.423 1313.95 174.817 1314.21 175.285C1314.47 175.754 1314.6 176.316 1314.6 176.969C1314.6 177.793 1314.38 178.524 1313.96 179.163C1313.53 179.802 1312.92 180.306 1312.12 180.674C1311.32 181.043 1310.35 181.227 1309.21 181.226C1308.12 181.225 1307.18 181.051 1306.38 180.705C1305.59 180.359 1304.97 179.868 1304.52 179.233C1304.07 178.594 1303.82 177.836 1303.77 176.96L1305.98 176.962C1306.02 177.488 1306.19 177.926 1306.49 178.276C1306.79 178.622 1307.17 178.881 1307.64 179.051C1308.12 179.217 1308.63 179.301 1309.2 179.301C1309.82 179.302 1310.37 179.205 1310.85 179.011C1311.34 178.813 1311.72 178.539 1312 178.188C1312.28 177.834 1312.42 177.419 1312.42 176.946C1312.42 176.515 1312.3 176.162 1312.06 175.887C1311.81 175.613 1311.49 175.385 1311.07 175.205C1310.66 175.024 1310.19 174.865 1309.67 174.728L1307.95 174.258C1306.79 173.939 1305.86 173.472 1305.18 172.856C1304.51 172.24 1304.17 171.425 1304.17 170.412C1304.17 169.574 1304.4 168.843 1304.85 168.218C1305.31 167.593 1305.92 167.109 1306.7 166.764C1307.48 166.414 1308.35 166.239 1309.33 166.24C1310.31 166.241 1311.18 166.415 1311.94 166.761C1312.69 167.107 1313.29 167.583 1313.72 168.19C1314.16 168.792 1314.39 169.483 1314.4 170.264L1312.29 170.263ZM1321.93 180.995L1317.22 180.991L1317.23 166.446L1322.09 166.45C1323.51 166.451 1324.74 166.743 1325.76 167.326C1326.78 167.905 1327.56 168.736 1328.11 169.821C1328.65 170.901 1328.93 172.196 1328.93 173.707C1328.93 175.222 1328.65 176.524 1328.09 177.612C1327.54 178.701 1326.75 179.538 1325.7 180.124C1324.66 180.706 1323.4 180.996 1321.93 180.995ZM1319.41 179.075L1321.81 179.077C1322.91 179.078 1323.84 178.871 1324.57 178.455C1325.3 178.034 1325.85 177.426 1326.22 176.631C1326.58 175.831 1326.77 174.855 1326.77 173.705C1326.77 172.564 1326.59 171.595 1326.22 170.8C1325.86 170.004 1325.33 169.4 1324.61 168.987C1323.9 168.575 1323.01 168.368 1321.95 168.367L1319.42 168.365L1319.41 179.075ZM1331.65 181.003L1331.66 166.457L1333.86 166.459L1333.85 173.405L1334.03 173.405L1340.14 166.464L1342.9 166.467L1337.03 173.01L1342.91 181.012L1340.27 181.01L1335.57 174.508L1333.85 176.481L1333.84 181.005L1331.65 181.003Z" fill="white"/>
<rect x="567.5" y="121.57" width="299" height="105.781" rx="7.5" fill="#2F333B"/>
<rect x="567.5" y="121.57" width="299" height="105.781" rx="7.5" stroke="#373B42"/>
<path opacity="0.8" d="M644.351 172.145H642.135C642.05 171.672 641.891 171.255 641.659 170.895C641.427 170.535 641.143 170.23 640.807 169.979C640.471 169.728 640.094 169.539 639.678 169.411C639.266 169.283 638.828 169.219 638.364 169.219C637.526 169.219 636.775 169.43 636.112 169.851C635.454 170.272 634.933 170.89 634.55 171.705C634.171 172.519 633.982 173.513 633.982 174.688C633.982 175.871 634.171 176.87 634.55 177.685C634.933 178.499 635.456 179.115 636.119 179.531C636.782 179.948 637.528 180.156 638.357 180.156C638.816 180.156 639.251 180.095 639.663 179.972C640.08 179.844 640.456 179.657 640.793 179.411C641.129 179.165 641.413 178.864 641.645 178.509C641.882 178.149 642.045 177.737 642.135 177.273L644.351 177.28C644.232 177.995 644.003 178.653 643.662 179.254C643.326 179.851 642.893 180.367 642.362 180.803C641.837 181.234 641.235 181.567 640.558 181.804C639.881 182.041 639.143 182.159 638.342 182.159C637.083 182.159 635.961 181.861 634.976 181.264C633.991 180.663 633.214 179.804 632.646 178.686C632.083 177.569 631.801 176.236 631.801 174.688C631.801 173.135 632.085 171.802 632.653 170.689C633.222 169.572 633.998 168.715 634.983 168.118C635.968 167.517 637.088 167.216 638.342 167.216C639.114 167.216 639.834 167.327 640.501 167.55C641.174 167.768 641.777 168.09 642.312 168.516C642.848 168.937 643.29 169.453 643.641 170.064C643.991 170.67 644.228 171.364 644.351 172.145ZM651.402 182.181C650.379 182.181 649.486 181.946 648.724 181.477C647.962 181.009 647.37 180.353 646.949 179.51C646.527 178.667 646.316 177.683 646.316 176.556C646.316 175.424 646.527 174.434 646.949 173.587C647.37 172.739 647.962 172.081 648.724 171.612C649.486 171.144 650.379 170.909 651.402 170.909C652.424 170.909 653.317 171.144 654.079 171.612C654.842 172.081 655.433 172.739 655.855 173.587C656.276 174.434 656.487 175.424 656.487 176.556C656.487 177.683 656.276 178.667 655.855 179.51C655.433 180.353 654.842 181.009 654.079 181.477C653.317 181.946 652.424 182.181 651.402 182.181ZM651.409 180.398C652.072 180.398 652.621 180.223 653.056 179.872C653.492 179.522 653.814 179.056 654.022 178.473C654.235 177.891 654.342 177.249 654.342 176.549C654.342 175.852 654.235 175.213 654.022 174.631C653.814 174.044 653.492 173.573 653.056 173.218C652.621 172.862 652.072 172.685 651.409 172.685C650.741 172.685 650.187 172.862 649.747 173.218C649.311 173.573 648.987 174.044 648.774 174.631C648.565 175.213 648.461 175.852 648.461 176.549C648.461 177.249 648.565 177.891 648.774 178.473C648.987 179.056 649.311 179.522 649.747 179.872C650.187 180.223 650.741 180.398 651.409 180.398ZM660.981 167.415V181.96H658.857V167.415H660.981ZM665.961 167.415V181.96H663.838V167.415H665.961ZM673.52 182.181C672.445 182.181 671.519 181.951 670.743 181.492C669.971 181.028 669.375 180.377 668.953 179.539C668.536 178.696 668.328 177.709 668.328 176.577C668.328 175.46 668.536 174.475 668.953 173.622C669.375 172.77 669.962 172.105 670.714 171.627C671.472 171.148 672.357 170.909 673.371 170.909C673.986 170.909 674.583 171.011 675.161 171.215C675.738 171.418 676.257 171.738 676.716 172.174C677.175 172.609 677.537 173.175 677.803 173.871C678.068 174.562 678.2 175.403 678.2 176.392V177.145H669.528V175.554H676.119C676.119 174.995 676.006 174.501 675.778 174.07C675.551 173.634 675.232 173.291 674.82 173.04C674.412 172.789 673.934 172.664 673.385 172.664C672.788 172.664 672.268 172.81 671.822 173.104C671.382 173.393 671.041 173.772 670.8 174.24C670.563 174.704 670.445 175.209 670.445 175.753V176.996C670.445 177.725 670.572 178.345 670.828 178.857C671.089 179.368 671.451 179.759 671.915 180.029C672.379 180.294 672.921 180.426 673.541 180.426C673.944 180.426 674.311 180.37 674.642 180.256C674.973 180.138 675.26 179.962 675.501 179.73C675.743 179.498 675.928 179.212 676.055 178.871L678.065 179.233C677.904 179.825 677.616 180.343 677.199 180.789C676.787 181.229 676.268 181.572 675.643 181.818C675.023 182.06 674.315 182.181 673.52 182.181ZM685.152 182.181C684.096 182.181 683.187 181.942 682.424 181.463C681.667 180.98 681.084 180.315 680.677 179.468C680.27 178.62 680.066 177.649 680.066 176.556C680.066 175.448 680.275 174.47 680.691 173.622C681.108 172.77 681.695 172.105 682.453 171.627C683.21 171.148 684.103 170.909 685.13 170.909C685.959 170.909 686.698 171.063 687.346 171.371C687.995 171.674 688.518 172.1 688.916 172.649C689.318 173.199 689.557 173.84 689.633 174.574H687.566C687.453 174.063 687.192 173.622 686.785 173.253C686.383 172.884 685.843 172.699 685.166 172.699C684.574 172.699 684.056 172.855 683.61 173.168C683.17 173.476 682.827 173.916 682.581 174.489C682.334 175.057 682.211 175.729 682.211 176.506C682.211 177.301 682.332 177.988 682.574 178.566C682.815 179.143 683.156 179.591 683.596 179.908C684.041 180.225 684.565 180.384 685.166 180.384C685.568 180.384 685.933 180.31 686.26 180.164C686.591 180.012 686.868 179.797 687.091 179.517C687.318 179.238 687.476 178.902 687.566 178.509H689.633C689.557 179.214 689.328 179.844 688.944 180.398C688.561 180.952 688.047 181.388 687.403 181.705C686.764 182.022 686.013 182.181 685.152 182.181ZM696.996 171.051V172.756H691.038V171.051H696.996ZM692.636 168.438H694.759V178.757C694.759 179.169 694.821 179.479 694.944 179.688C695.067 179.891 695.226 180.031 695.42 180.107C695.619 180.178 695.834 180.213 696.066 180.213C696.237 180.213 696.386 180.201 696.513 180.178C696.641 180.154 696.741 180.135 696.812 180.121L697.195 181.875C697.072 181.923 696.897 181.97 696.67 182.017C696.442 182.069 696.158 182.098 695.817 182.102C695.259 182.112 694.738 182.013 694.255 181.804C693.772 181.596 693.381 181.274 693.083 180.838C692.785 180.403 692.636 179.856 692.636 179.198V168.438ZM699.346 181.96V171.051H701.469V181.96H699.346ZM700.418 169.368C700.049 169.368 699.731 169.245 699.466 168.999C699.206 168.748 699.076 168.45 699.076 168.104C699.076 167.754 699.206 167.455 699.466 167.209C699.731 166.958 700.049 166.833 700.418 166.833C700.787 166.833 701.102 166.958 701.363 167.209C701.628 167.455 701.76 167.754 701.76 168.104C701.76 168.45 701.628 168.748 701.363 168.999C701.102 169.245 700.787 169.368 700.418 169.368ZM708.921 182.181C707.898 182.181 707.006 181.946 706.244 181.477C705.481 181.009 704.889 180.353 704.468 179.51C704.047 178.667 703.836 177.683 703.836 176.556C703.836 175.424 704.047 174.434 704.468 173.587C704.889 172.739 705.481 172.081 706.244 171.612C707.006 171.144 707.898 170.909 708.921 170.909C709.944 170.909 710.836 171.144 711.599 171.612C712.361 172.081 712.953 172.739 713.374 173.587C713.796 174.434 714.006 175.424 714.006 176.556C714.006 177.683 713.796 178.667 713.374 179.51C712.953 180.353 712.361 181.009 711.599 181.477C710.836 181.946 709.944 182.181 708.921 182.181ZM708.928 180.398C709.591 180.398 710.14 180.223 710.576 179.872C711.012 179.522 711.334 179.056 711.542 178.473C711.755 177.891 711.862 177.249 711.862 176.549C711.862 175.852 711.755 175.213 711.542 174.631C711.334 174.044 711.012 173.573 710.576 173.218C710.14 172.862 709.591 172.685 708.928 172.685C708.261 172.685 707.707 172.862 707.266 173.218C706.831 173.573 706.506 174.044 706.293 174.631C706.085 175.213 705.981 175.852 705.981 176.549C705.981 177.249 706.085 177.891 706.293 178.473C706.506 179.056 706.831 179.522 707.266 179.872C707.707 180.223 708.261 180.398 708.928 180.398ZM718.5 175.483V181.96H716.377V171.051H718.415V172.827H718.55C718.801 172.249 719.194 171.785 719.729 171.435C720.269 171.085 720.948 170.909 721.767 170.909C722.511 170.909 723.162 171.066 723.721 171.378C724.279 171.686 724.712 172.145 725.02 172.756C725.328 173.367 725.482 174.122 725.482 175.022V181.96H723.358V175.277C723.358 174.486 723.152 173.869 722.74 173.424C722.328 172.974 721.763 172.749 721.043 172.749C720.551 172.749 720.113 172.855 719.729 173.068C719.35 173.281 719.05 173.594 718.827 174.006C718.609 174.413 718.5 174.906 718.5 175.483ZM733.793 167.415H736.457L741.087 178.722H741.258L745.888 167.415H748.552V181.96H746.464V171.435H746.329L742.039 181.939H740.306L736.016 171.428H735.881V181.96H733.793V167.415ZM756.167 182.181C755.145 182.181 754.252 181.946 753.49 181.477C752.727 181.009 752.136 180.353 751.714 179.51C751.293 178.667 751.082 177.683 751.082 176.556C751.082 175.424 751.293 174.434 751.714 173.587C752.136 172.739 752.727 172.081 753.49 171.612C754.252 171.144 755.145 170.909 756.167 170.909C757.19 170.909 758.083 171.144 758.845 171.612C759.607 172.081 760.199 172.739 760.62 173.587C761.042 174.434 761.252 175.424 761.252 176.556C761.252 177.683 761.042 178.667 760.62 179.51C760.199 180.353 759.607 181.009 758.845 181.477C758.083 181.946 757.19 182.181 756.167 182.181ZM756.174 180.398C756.837 180.398 757.386 180.223 757.822 179.872C758.258 179.522 758.58 179.056 758.788 178.473C759.001 177.891 759.108 177.249 759.108 176.549C759.108 175.852 759.001 175.213 758.788 174.631C758.58 174.044 758.258 173.573 757.822 173.218C757.386 172.862 756.837 172.685 756.174 172.685C755.507 172.685 754.953 172.862 754.512 173.218C754.077 173.573 753.752 174.044 753.539 174.631C753.331 175.213 753.227 175.852 753.227 176.549C753.227 177.249 753.331 177.891 753.539 178.473C753.752 179.056 754.077 179.522 754.512 179.872C754.953 180.223 755.507 180.398 756.174 180.398ZM767.707 182.174C766.826 182.174 766.04 181.949 765.349 181.499C764.662 181.044 764.122 180.398 763.729 179.56C763.341 178.717 763.147 177.706 763.147 176.527C763.147 175.348 763.344 174.34 763.737 173.502C764.134 172.664 764.679 172.022 765.37 171.577C766.061 171.132 766.845 170.909 767.721 170.909C768.398 170.909 768.942 171.023 769.354 171.25C769.771 171.473 770.093 171.733 770.32 172.031C770.552 172.33 770.732 172.593 770.86 172.82H770.988V167.415H773.112V181.96H771.038V180.263H770.86C770.732 180.495 770.548 180.76 770.306 181.058C770.069 181.357 769.743 181.617 769.326 181.84C768.909 182.062 768.37 182.174 767.707 182.174ZM768.175 180.362C768.786 180.362 769.302 180.201 769.724 179.879C770.15 179.553 770.472 179.101 770.69 178.523C770.912 177.945 771.023 177.273 771.023 176.506C771.023 175.748 770.915 175.085 770.697 174.517C770.479 173.949 770.159 173.506 769.738 173.189C769.317 172.872 768.796 172.713 768.175 172.713C767.536 172.713 767.004 172.879 766.577 173.21C766.151 173.542 765.829 173.994 765.612 174.567C765.398 175.14 765.292 175.786 765.292 176.506C765.292 177.235 765.401 177.891 765.619 178.473C765.836 179.056 766.158 179.517 766.585 179.858C767.015 180.194 767.546 180.362 768.175 180.362ZM783.053 177.436V171.051H785.184V181.96H783.096V180.071H782.982C782.731 180.654 782.328 181.139 781.775 181.527C781.225 181.911 780.541 182.102 779.722 182.102C779.021 182.102 778.401 181.949 777.861 181.641C777.326 181.328 776.905 180.867 776.597 180.256C776.294 179.645 776.142 178.89 776.142 177.99V171.051H778.266V177.735C778.266 178.478 778.472 179.07 778.884 179.51C779.296 179.951 779.831 180.171 780.489 180.171C780.887 180.171 781.282 180.071 781.675 179.872C782.073 179.674 782.402 179.373 782.662 178.97C782.927 178.568 783.058 178.057 783.053 177.436ZM790.161 167.415V181.96H788.037V167.415H790.161ZM797.719 182.181C796.644 182.181 795.719 181.951 794.942 181.492C794.17 181.028 793.574 180.377 793.152 179.539C792.736 178.696 792.527 177.709 792.527 176.577C792.527 175.46 792.736 174.475 793.152 173.622C793.574 172.77 794.161 172.105 794.914 171.627C795.671 171.148 796.557 170.909 797.57 170.909C798.185 170.909 798.782 171.011 799.36 171.215C799.937 171.418 800.456 171.738 800.915 172.174C801.374 172.609 801.737 173.175 802.002 173.871C802.267 174.562 802.4 175.403 802.4 176.392V177.145H793.728V175.554H800.319C800.319 174.995 800.205 174.501 799.978 174.07C799.75 173.634 799.431 173.291 799.019 173.04C798.612 172.789 798.133 172.664 797.584 172.664C796.988 172.664 796.467 172.81 796.022 173.104C795.581 173.393 795.24 173.772 794.999 174.24C794.762 174.704 794.644 175.209 794.644 175.753V176.996C794.644 177.725 794.772 178.345 795.027 178.857C795.288 179.368 795.65 179.759 796.114 180.029C796.578 180.294 797.12 180.426 797.74 180.426C798.143 180.426 798.51 180.37 798.841 180.256C799.173 180.138 799.459 179.962 799.701 179.73C799.942 179.498 800.127 179.212 800.255 178.871L802.265 179.233C802.104 179.825 801.815 180.343 801.398 180.789C800.986 181.229 800.468 181.572 799.843 181.818C799.222 182.06 798.515 182.181 797.719 182.181Z" fill="white"/>
<path opacity="0.8" d="M933.681 144.185H931.465C931.38 143.711 931.221 143.295 930.989 142.935C930.757 142.575 930.473 142.269 930.137 142.018C929.801 141.768 929.424 141.578 929.008 141.45C928.596 141.322 928.158 141.259 927.694 141.259C926.856 141.259 926.105 141.469 925.442 141.891C924.784 142.312 924.263 142.93 923.88 143.744C923.501 144.559 923.312 145.553 923.312 146.727C923.312 147.911 923.501 148.91 923.88 149.724C924.263 150.539 924.787 151.154 925.449 151.571C926.112 151.988 926.858 152.196 927.687 152.196C928.146 152.196 928.581 152.134 928.993 152.011C929.41 151.884 929.787 151.696 930.123 151.45C930.459 151.204 930.743 150.903 930.975 150.548C931.212 150.188 931.375 149.777 931.465 149.312L933.681 149.32C933.563 150.035 933.333 150.693 932.992 151.294C932.656 151.891 932.223 152.407 931.692 152.842C931.167 153.273 930.565 153.607 929.888 153.844C929.211 154.08 928.473 154.199 927.672 154.199C926.413 154.199 925.291 153.901 924.306 153.304C923.321 152.703 922.545 151.843 921.976 150.726C921.413 149.608 921.131 148.276 921.131 146.727C921.131 145.174 921.415 143.841 921.983 142.729C922.552 141.611 923.328 140.754 924.313 140.158C925.298 139.556 926.418 139.256 927.672 139.256C928.444 139.256 929.164 139.367 929.831 139.589C930.504 139.807 931.108 140.129 931.643 140.555C932.178 140.977 932.62 141.493 932.971 142.104C933.321 142.71 933.558 143.403 933.681 144.185ZM940.732 154.22C939.709 154.22 938.816 153.986 938.054 153.517C937.292 153.048 936.7 152.393 936.279 151.55C935.857 150.707 935.646 149.722 935.646 148.595C935.646 147.464 935.857 146.474 936.279 145.626C936.7 144.779 937.292 144.121 938.054 143.652C938.816 143.183 939.709 142.949 940.732 142.949C941.754 142.949 942.647 143.183 943.409 143.652C944.172 144.121 944.763 144.779 945.185 145.626C945.606 146.474 945.817 147.464 945.817 148.595C945.817 149.722 945.606 150.707 945.185 151.55C944.763 152.393 944.172 153.048 943.409 153.517C942.647 153.986 941.754 154.22 940.732 154.22ZM940.739 152.438C941.402 152.438 941.951 152.262 942.387 151.912C942.822 151.562 943.144 151.095 943.352 150.513C943.566 149.93 943.672 149.289 943.672 148.588C943.672 147.892 943.566 147.253 943.352 146.67C943.144 146.083 942.822 145.612 942.387 145.257C941.951 144.902 941.402 144.724 940.739 144.724C940.071 144.724 939.517 144.902 939.077 145.257C938.641 145.612 938.317 146.083 938.104 146.67C937.896 147.253 937.791 147.892 937.791 148.588C937.791 149.289 937.896 149.93 938.104 150.513C938.317 151.095 938.641 151.562 939.077 151.912C939.517 152.262 940.071 152.438 940.739 152.438ZM950.311 139.455V154H948.187V139.455H950.311ZM955.291 139.455V154H953.168V139.455H955.291ZM962.85 154.22C961.775 154.22 960.849 153.991 960.073 153.531C959.301 153.067 958.705 152.416 958.283 151.578C957.867 150.735 957.658 149.748 957.658 148.616C957.658 147.499 957.867 146.514 958.283 145.662C958.705 144.81 959.292 144.144 960.045 143.666C960.802 143.188 961.688 142.949 962.701 142.949C963.316 142.949 963.913 143.051 964.491 143.254C965.068 143.458 965.587 143.777 966.046 144.213C966.505 144.649 966.867 145.214 967.133 145.911C967.398 146.602 967.53 147.442 967.53 148.432V149.185H958.858V147.594H965.449C965.449 147.035 965.336 146.54 965.108 146.109C964.881 145.674 964.562 145.33 964.15 145.08C963.742 144.829 963.264 144.703 962.715 144.703C962.118 144.703 961.598 144.85 961.153 145.143C960.712 145.432 960.371 145.811 960.13 146.28C959.893 146.744 959.775 147.248 959.775 147.793V149.036C959.775 149.765 959.903 150.385 960.158 150.896C960.419 151.408 960.781 151.798 961.245 152.068C961.709 152.333 962.251 152.466 962.871 152.466C963.274 152.466 963.641 152.409 963.972 152.295C964.304 152.177 964.59 152.002 964.831 151.77C965.073 151.538 965.258 151.251 965.385 150.911L967.395 151.273C967.234 151.865 966.946 152.383 966.529 152.828C966.117 153.268 965.599 153.612 964.974 153.858C964.353 154.099 963.645 154.22 962.85 154.22ZM974.482 154.22C973.426 154.22 972.517 153.981 971.754 153.503C970.997 153.02 970.414 152.355 970.007 151.507C969.6 150.66 969.396 149.689 969.396 148.595C969.396 147.487 969.605 146.509 970.021 145.662C970.438 144.81 971.025 144.144 971.783 143.666C972.54 143.188 973.433 142.949 974.46 142.949C975.289 142.949 976.028 143.103 976.676 143.411C977.325 143.714 977.848 144.14 978.246 144.689C978.648 145.238 978.887 145.88 978.963 146.614H976.896C976.783 146.102 976.522 145.662 976.115 145.293C975.713 144.923 975.173 144.739 974.496 144.739C973.904 144.739 973.386 144.895 972.941 145.207C972.5 145.515 972.157 145.955 971.911 146.528C971.664 147.097 971.541 147.769 971.541 148.545C971.541 149.341 971.662 150.027 971.904 150.605C972.145 151.183 972.486 151.63 972.926 151.947C973.371 152.265 973.895 152.423 974.496 152.423C974.898 152.423 975.263 152.35 975.59 152.203C975.921 152.052 976.198 151.836 976.421 151.557C976.648 151.277 976.807 150.941 976.896 150.548H978.963C978.887 151.254 978.658 151.884 978.274 152.438C977.891 152.991 977.377 153.427 976.733 153.744C976.094 154.062 975.343 154.22 974.482 154.22ZM986.327 143.091V144.795H980.368V143.091H986.327ZM981.966 140.477H984.089V150.797C984.089 151.209 984.151 151.519 984.274 151.727C984.397 151.931 984.556 152.071 984.75 152.146C984.949 152.217 985.164 152.253 985.396 152.253C985.567 152.253 985.716 152.241 985.844 152.217C985.971 152.194 986.071 152.175 986.142 152.161L986.525 153.915C986.402 153.962 986.227 154.009 986 154.057C985.773 154.109 985.488 154.137 985.148 154.142C984.589 154.152 984.068 154.052 983.585 153.844C983.102 153.635 982.711 153.313 982.413 152.878C982.115 152.442 981.966 151.895 981.966 151.237V140.477ZM993.26 154.22C992.185 154.22 991.26 153.991 990.483 153.531C989.711 153.067 989.115 152.416 988.693 151.578C988.277 150.735 988.068 149.748 988.068 148.616C988.068 147.499 988.277 146.514 988.693 145.662C989.115 144.81 989.702 144.144 990.455 143.666C991.212 143.188 992.098 142.949 993.111 142.949C993.727 142.949 994.323 143.051 994.901 143.254C995.478 143.458 995.997 143.777 996.456 144.213C996.915 144.649 997.278 145.214 997.543 145.911C997.808 146.602 997.941 147.442 997.941 148.432V149.185H989.269V147.594H995.86C995.86 147.035 995.746 146.54 995.519 146.109C995.291 145.674 994.972 145.33 994.56 145.08C994.153 144.829 993.674 144.703 993.125 144.703C992.529 144.703 992.008 144.85 991.563 145.143C991.122 145.432 990.781 145.811 990.54 146.28C990.303 146.744 990.185 147.248 990.185 147.793V149.036C990.185 149.765 990.313 150.385 990.568 150.896C990.829 151.408 991.191 151.798 991.655 152.068C992.119 152.333 992.661 152.466 993.281 152.466C993.684 152.466 994.051 152.409 994.382 152.295C994.714 152.177 995 152.002 995.242 151.77C995.483 151.538 995.668 151.251 995.796 150.911L997.806 151.273C997.645 151.865 997.356 152.383 996.939 152.828C996.527 153.268 996.009 153.612 995.384 153.858C994.763 154.099 994.056 154.22 993.26 154.22ZM1004.38 154.213C1003.5 154.213 1002.71 153.988 1002.02 153.538C1001.34 153.084 1000.8 152.437 1000.4 151.599C1000.01 150.757 999.821 149.746 999.821 148.567C999.821 147.388 1000.02 146.379 1000.41 145.541C1000.81 144.703 1001.35 144.062 1002.04 143.616C1002.74 143.171 1003.52 142.949 1004.39 142.949C1005.07 142.949 1005.62 143.062 1006.03 143.29C1006.44 143.512 1006.77 143.773 1006.99 144.071C1007.23 144.369 1007.41 144.632 1007.53 144.859H1007.66V139.455H1009.79V154H1007.71V152.303H1007.53C1007.41 152.535 1007.22 152.8 1006.98 153.098C1006.74 153.396 1006.42 153.657 1006 153.879C1005.58 154.102 1005.04 154.213 1004.38 154.213ZM1004.85 152.402C1005.46 152.402 1005.98 152.241 1006.4 151.919C1006.82 151.592 1007.15 151.14 1007.36 150.562C1007.59 149.985 1007.7 149.312 1007.7 148.545C1007.7 147.788 1007.59 147.125 1007.37 146.557C1007.15 145.989 1006.83 145.546 1006.41 145.229C1005.99 144.911 1005.47 144.753 1004.85 144.753C1004.21 144.753 1003.68 144.919 1003.25 145.25C1002.83 145.581 1002.5 146.034 1002.29 146.607C1002.07 147.179 1001.97 147.826 1001.97 148.545C1001.97 149.275 1002.07 149.93 1002.29 150.513C1002.51 151.095 1002.83 151.557 1003.26 151.898C1003.69 152.234 1004.22 152.402 1004.85 152.402ZM1021.28 154.241C1020.59 154.241 1019.97 154.114 1019.41 153.858C1018.85 153.598 1018.41 153.221 1018.08 152.729C1017.76 152.236 1017.6 151.633 1017.6 150.918C1017.6 150.302 1017.72 149.795 1017.95 149.398C1018.19 149 1018.51 148.685 1018.91 148.453C1019.31 148.221 1019.76 148.046 1020.26 147.928C1020.76 147.809 1021.26 147.719 1021.78 147.658C1022.43 147.582 1022.96 147.52 1023.37 147.473C1023.78 147.421 1024.08 147.338 1024.26 147.224C1024.44 147.111 1024.54 146.926 1024.54 146.67V146.621C1024.54 146 1024.36 145.52 1024.01 145.179C1023.67 144.838 1023.15 144.668 1022.46 144.668C1021.75 144.668 1021.18 144.826 1020.77 145.143C1020.37 145.456 1020.08 145.804 1019.93 146.188L1017.93 145.733C1018.17 145.07 1018.51 144.535 1018.97 144.128C1019.43 143.716 1019.96 143.418 1020.55 143.233C1021.15 143.044 1021.78 142.949 1022.43 142.949C1022.87 142.949 1023.33 143.001 1023.82 143.105C1024.31 143.205 1024.77 143.389 1025.2 143.659C1025.63 143.929 1025.98 144.315 1026.26 144.817C1026.53 145.314 1026.67 145.96 1026.67 146.756V154H1024.59V152.509H1024.51C1024.37 152.783 1024.17 153.053 1023.89 153.318C1023.62 153.583 1023.26 153.804 1022.83 153.979C1022.4 154.154 1021.89 154.241 1021.28 154.241ZM1021.75 152.537C1022.33 152.537 1022.83 152.421 1023.25 152.189C1023.67 151.957 1023.99 151.654 1024.21 151.28C1024.43 150.901 1024.54 150.496 1024.54 150.065V148.659C1024.47 148.735 1024.32 148.806 1024.1 148.872C1023.89 148.934 1023.65 148.988 1023.37 149.036C1023.1 149.078 1022.83 149.118 1022.57 149.156C1022.31 149.189 1022.09 149.218 1021.92 149.241C1021.5 149.294 1021.13 149.381 1020.79 149.504C1020.45 149.627 1020.18 149.805 1019.98 150.037C1019.78 150.264 1019.68 150.567 1019.68 150.946C1019.68 151.472 1019.87 151.869 1020.26 152.139C1020.65 152.404 1021.14 152.537 1021.75 152.537ZM1036.41 149.476V143.091H1038.54V154H1036.45V152.111H1036.34C1036.08 152.693 1035.68 153.179 1035.13 153.567C1034.58 153.95 1033.89 154.142 1033.08 154.142C1032.37 154.142 1031.75 153.988 1031.21 153.68C1030.68 153.368 1030.26 152.906 1029.95 152.295C1029.65 151.685 1029.5 150.929 1029.5 150.03V143.091H1031.62V149.774C1031.62 150.518 1031.83 151.109 1032.24 151.55C1032.65 151.99 1033.18 152.21 1033.84 152.21C1034.24 152.21 1034.64 152.111 1035.03 151.912C1035.43 151.713 1035.76 151.412 1036.02 151.01C1036.28 150.607 1036.41 150.096 1036.41 149.476ZM1045.47 154.213C1044.59 154.213 1043.81 153.988 1043.12 153.538C1042.43 153.084 1041.89 152.437 1041.5 151.599C1041.11 150.757 1040.91 149.746 1040.91 148.567C1040.91 147.388 1041.11 146.379 1041.5 145.541C1041.9 144.703 1042.45 144.062 1043.14 143.616C1043.83 143.171 1044.61 142.949 1045.49 142.949C1046.17 142.949 1046.71 143.062 1047.12 143.29C1047.54 143.512 1047.86 143.773 1048.09 144.071C1048.32 144.369 1048.5 144.632 1048.63 144.859H1048.76V139.455H1050.88V154H1048.81V152.303H1048.63C1048.5 152.535 1048.32 152.8 1048.07 153.098C1047.84 153.396 1047.51 153.657 1047.09 153.879C1046.68 154.102 1046.14 154.213 1045.47 154.213ZM1045.94 152.402C1046.55 152.402 1047.07 152.241 1047.49 151.919C1047.92 151.592 1048.24 151.14 1048.46 150.562C1048.68 149.985 1048.79 149.312 1048.79 148.545C1048.79 147.788 1048.68 147.125 1048.46 146.557C1048.25 145.989 1047.93 145.546 1047.51 145.229C1047.08 144.911 1046.56 144.753 1045.94 144.753C1045.3 144.753 1044.77 144.919 1044.34 145.25C1043.92 145.581 1043.6 146.034 1043.38 146.607C1043.17 147.179 1043.06 147.826 1043.06 148.545C1043.06 149.275 1043.17 149.93 1043.39 150.513C1043.6 151.095 1043.93 151.557 1044.35 151.898C1044.78 152.234 1045.31 152.402 1045.94 152.402ZM1053.91 154V143.091H1056.03V154H1053.91ZM1054.98 141.408C1054.61 141.408 1054.3 141.285 1054.03 141.038C1053.77 140.787 1053.64 140.489 1053.64 140.143C1053.64 139.793 1053.77 139.495 1054.03 139.249C1054.3 138.998 1054.61 138.872 1054.98 138.872C1055.35 138.872 1055.67 138.998 1055.93 139.249C1056.19 139.495 1056.32 139.793 1056.32 140.143C1056.32 140.489 1056.19 140.787 1055.93 141.038C1055.67 141.285 1055.35 141.408 1054.98 141.408ZM1063.49 154.22C1062.46 154.22 1061.57 153.986 1060.81 153.517C1060.05 153.048 1059.45 152.393 1059.03 151.55C1058.61 150.707 1058.4 149.722 1058.4 148.595C1058.4 147.464 1058.61 146.474 1059.03 145.626C1059.45 144.779 1060.05 144.121 1060.81 143.652C1061.57 143.183 1062.46 142.949 1063.49 142.949C1064.51 142.949 1065.4 143.183 1066.16 143.652C1066.93 144.121 1067.52 144.779 1067.94 145.626C1068.36 146.474 1068.57 147.464 1068.57 148.595C1068.57 149.722 1068.36 150.707 1067.94 151.55C1067.52 152.393 1066.93 153.048 1066.16 153.517C1065.4 153.986 1064.51 154.22 1063.49 154.22ZM1063.49 152.438C1064.16 152.438 1064.7 152.262 1065.14 151.912C1065.58 151.562 1065.9 151.095 1066.11 150.513C1066.32 149.93 1066.43 149.289 1066.43 148.588C1066.43 147.892 1066.32 147.253 1066.11 146.67C1065.9 146.083 1065.58 145.612 1065.14 145.257C1064.7 144.902 1064.16 144.724 1063.49 144.724C1062.83 144.724 1062.27 144.902 1061.83 145.257C1061.4 145.612 1061.07 146.083 1060.86 146.67C1060.65 147.253 1060.55 147.892 1060.55 148.588C1060.55 149.289 1060.65 149.93 1060.86 150.513C1061.07 151.095 1061.4 151.562 1061.83 151.912C1062.27 152.262 1062.83 152.438 1063.49 152.438ZM1081.43 143.091V144.795H1075.26V143.091H1081.43ZM1076.95 154V141.827C1076.95 141.145 1077.1 140.579 1077.4 140.129C1077.7 139.675 1078.09 139.336 1078.59 139.114C1079.08 138.886 1079.61 138.773 1080.19 138.773C1080.62 138.773 1080.98 138.808 1081.28 138.879C1081.59 138.946 1081.81 139.007 1081.96 139.064L1081.46 140.783C1081.36 140.754 1081.23 140.721 1081.08 140.683C1080.92 140.641 1080.73 140.619 1080.51 140.619C1079.99 140.619 1079.62 140.747 1079.4 141.003C1079.18 141.259 1079.08 141.628 1079.08 142.111V154H1076.95ZM1083.62 154V143.091H1085.67V144.824H1085.78C1085.98 144.237 1086.33 143.775 1086.83 143.439C1087.34 143.098 1087.91 142.928 1088.55 142.928C1088.69 142.928 1088.84 142.932 1089.02 142.942C1089.21 142.951 1089.35 142.963 1089.46 142.977V145.009C1089.37 144.985 1089.22 144.959 1089 144.93C1088.78 144.897 1088.56 144.881 1088.35 144.881C1087.85 144.881 1087.4 144.987 1087 145.2C1086.62 145.409 1086.31 145.7 1086.08 146.074C1085.85 146.443 1085.74 146.865 1085.74 147.338V154H1083.62ZM1094.37 154.241C1093.68 154.241 1093.05 154.114 1092.49 153.858C1091.94 153.598 1091.49 153.221 1091.17 152.729C1090.84 152.236 1090.68 151.633 1090.68 150.918C1090.68 150.302 1090.8 149.795 1091.04 149.398C1091.28 149 1091.6 148.685 1092 148.453C1092.4 148.221 1092.85 148.046 1093.35 147.928C1093.84 147.809 1094.35 147.719 1094.87 147.658C1095.52 147.582 1096.05 147.52 1096.46 147.473C1096.87 147.421 1097.16 147.338 1097.35 147.224C1097.53 147.111 1097.62 146.926 1097.62 146.67V146.621C1097.62 146 1097.45 145.52 1097.1 145.179C1096.75 144.838 1096.24 144.668 1095.55 144.668C1094.83 144.668 1094.27 144.826 1093.86 145.143C1093.45 145.456 1093.17 145.804 1093.01 146.188L1091.02 145.733C1091.25 145.07 1091.6 144.535 1092.05 144.128C1092.51 143.716 1093.04 143.418 1093.64 143.233C1094.23 143.044 1094.86 142.949 1095.52 142.949C1095.96 142.949 1096.42 143.001 1096.91 143.105C1097.4 143.205 1097.86 143.389 1098.28 143.659C1098.71 143.929 1099.07 144.315 1099.34 144.817C1099.62 145.314 1099.75 145.96 1099.75 146.756V154H1097.68V152.509H1097.59C1097.46 152.783 1097.25 153.053 1096.98 153.318C1096.7 153.583 1096.35 153.804 1095.92 153.979C1095.49 154.154 1094.97 154.241 1094.37 154.241ZM1094.83 152.537C1095.42 152.537 1095.92 152.421 1096.34 152.189C1096.76 151.957 1097.08 151.654 1097.3 151.28C1097.52 150.901 1097.63 150.496 1097.63 150.065V148.659C1097.55 148.735 1097.41 148.806 1097.19 148.872C1096.98 148.934 1096.73 148.988 1096.46 149.036C1096.18 149.078 1095.92 149.118 1095.66 149.156C1095.39 149.189 1095.18 149.218 1095 149.241C1094.59 149.294 1094.21 149.381 1093.87 149.504C1093.54 149.627 1093.27 149.805 1093.06 150.037C1092.86 150.264 1092.76 150.567 1092.76 150.946C1092.76 151.472 1092.96 151.869 1093.35 152.139C1093.74 152.404 1094.23 152.537 1094.83 152.537ZM1102.58 154V143.091H1104.62V144.866H1104.76C1104.98 144.265 1105.35 143.796 1105.87 143.46C1106.39 143.119 1107 142.949 1107.72 142.949C1108.45 142.949 1109.06 143.119 1109.56 143.46C1110.05 143.801 1110.42 144.27 1110.66 144.866H1110.77C1111.03 144.284 1111.45 143.82 1112.01 143.474C1112.58 143.124 1113.26 142.949 1114.04 142.949C1115.03 142.949 1115.84 143.259 1116.47 143.879C1117.1 144.5 1117.41 145.435 1117.41 146.685V154H1115.29V146.884C1115.29 146.145 1115.09 145.61 1114.68 145.278C1114.28 144.947 1113.8 144.781 1113.24 144.781C1112.55 144.781 1112.01 144.994 1111.63 145.42C1111.25 145.842 1111.05 146.384 1111.05 147.047V154H1108.94V146.749C1108.94 146.157 1108.75 145.681 1108.38 145.321C1108.02 144.961 1107.53 144.781 1106.94 144.781C1106.54 144.781 1106.17 144.888 1105.83 145.101C1105.49 145.309 1105.22 145.6 1105.01 145.974C1104.81 146.348 1104.71 146.782 1104.71 147.274V154H1102.58ZM1124.96 154.22C1123.88 154.22 1122.96 153.991 1122.18 153.531C1121.41 153.067 1120.81 152.416 1120.39 151.578C1119.98 150.735 1119.77 149.748 1119.77 148.616C1119.77 147.499 1119.98 146.514 1120.39 145.662C1120.81 144.81 1121.4 144.144 1122.15 143.666C1122.91 143.188 1123.8 142.949 1124.81 142.949C1125.43 142.949 1126.02 143.051 1126.6 143.254C1127.18 143.458 1127.7 143.777 1128.16 144.213C1128.61 144.649 1128.98 145.214 1129.24 145.911C1129.51 146.602 1129.64 147.442 1129.64 148.432V149.185H1120.97V147.594H1127.56C1127.56 147.035 1127.45 146.54 1127.22 146.109C1126.99 145.674 1126.67 145.33 1126.26 145.08C1125.85 144.829 1125.37 144.703 1124.82 144.703C1124.23 144.703 1123.71 144.85 1123.26 145.143C1122.82 145.432 1122.48 145.811 1122.24 146.28C1122 146.744 1121.88 147.248 1121.88 147.793V149.036C1121.88 149.765 1122.01 150.385 1122.27 150.896C1122.53 151.408 1122.89 151.798 1123.35 152.068C1123.82 152.333 1124.36 152.466 1124.98 152.466C1125.38 152.466 1125.75 152.409 1126.08 152.295C1126.41 152.177 1126.7 152.002 1126.94 151.77C1127.18 151.538 1127.37 151.251 1127.49 150.911L1129.5 151.273C1129.34 151.865 1129.05 152.383 1128.64 152.828C1128.23 153.268 1127.71 153.612 1127.08 153.858C1126.46 154.099 1125.75 154.22 1124.96 154.22ZM1140.17 145.754L1138.25 146.095C1138.17 145.849 1138.04 145.615 1137.86 145.392C1137.69 145.17 1137.46 144.987 1137.17 144.845C1136.87 144.703 1136.51 144.632 1136.07 144.632C1135.46 144.632 1134.96 144.767 1134.56 145.037C1134.16 145.302 1133.96 145.645 1133.96 146.067C1133.96 146.431 1134.09 146.725 1134.36 146.947C1134.63 147.17 1135.07 147.352 1135.67 147.494L1137.4 147.892C1138.4 148.124 1139.15 148.482 1139.65 148.964C1140.14 149.447 1140.38 150.075 1140.38 150.847C1140.38 151.5 1140.19 152.082 1139.82 152.594C1139.44 153.1 1138.92 153.498 1138.25 153.787C1137.58 154.076 1136.8 154.22 1135.92 154.22C1134.7 154.22 1133.71 153.96 1132.93 153.439C1132.16 152.913 1131.69 152.168 1131.51 151.202L1133.57 150.889C1133.69 151.424 1133.96 151.829 1134.35 152.104C1134.75 152.374 1135.27 152.509 1135.91 152.509C1136.61 152.509 1137.16 152.364 1137.58 152.075C1137.99 151.782 1138.2 151.424 1138.2 151.003C1138.2 150.662 1138.08 150.375 1137.82 150.143C1137.57 149.911 1137.18 149.736 1136.66 149.618L1134.82 149.213C1133.8 148.981 1133.04 148.612 1132.56 148.105C1132.07 147.598 1131.83 146.957 1131.83 146.18C1131.83 145.536 1132.01 144.973 1132.37 144.49C1132.73 144.007 1133.23 143.631 1133.86 143.361C1134.5 143.086 1135.23 142.949 1136.04 142.949C1137.22 142.949 1138.15 143.205 1138.83 143.716C1139.51 144.223 1139.95 144.902 1140.17 145.754Z" fill="white"/>
<path opacity="0.8" d="M302.531 143.276C302.455 142.603 302.143 142.082 301.594 141.713C301.045 141.339 300.353 141.152 299.52 141.152C298.923 141.152 298.407 141.247 297.972 141.436C297.536 141.621 297.197 141.876 296.956 142.203C296.719 142.525 296.601 142.892 296.601 143.304C296.601 143.65 296.681 143.948 296.842 144.199C297.008 144.45 297.223 144.661 297.489 144.831C297.759 144.997 298.047 145.136 298.355 145.25C298.663 145.359 298.959 145.449 299.243 145.52L300.663 145.889C301.127 146.003 301.603 146.157 302.091 146.351C302.579 146.545 303.031 146.801 303.447 147.118C303.864 147.435 304.2 147.828 304.456 148.297C304.716 148.766 304.847 149.327 304.847 149.98C304.847 150.804 304.634 151.536 304.207 152.175C303.786 152.814 303.173 153.318 302.368 153.688C301.568 154.057 300.599 154.241 299.463 154.241C298.374 154.241 297.432 154.069 296.636 153.723C295.841 153.377 295.218 152.887 294.768 152.253C294.319 151.614 294.07 150.856 294.023 149.98H296.224C296.267 150.506 296.438 150.944 296.736 151.294C297.039 151.64 297.425 151.898 297.893 152.068C298.367 152.234 298.885 152.317 299.449 152.317C300.069 152.317 300.621 152.22 301.104 152.026C301.591 151.827 301.975 151.552 302.254 151.202C302.534 150.847 302.673 150.432 302.673 149.959C302.673 149.528 302.55 149.175 302.304 148.901C302.063 148.626 301.733 148.399 301.317 148.219C300.905 148.039 300.438 147.88 299.918 147.743L298.199 147.274C297.034 146.957 296.111 146.491 295.429 145.875C294.752 145.259 294.413 144.445 294.413 143.432C294.413 142.594 294.641 141.862 295.095 141.237C295.55 140.612 296.165 140.127 296.942 139.781C297.718 139.431 298.594 139.256 299.57 139.256C300.554 139.256 301.423 139.429 302.176 139.774C302.934 140.12 303.53 140.596 303.966 141.202C304.402 141.803 304.629 142.494 304.648 143.276H302.531ZM307.299 158.091V143.091H309.373V144.859H309.55C309.673 144.632 309.851 144.369 310.083 144.071C310.315 143.773 310.637 143.512 311.049 143.29C311.461 143.062 312.005 142.949 312.682 142.949C313.563 142.949 314.349 143.171 315.04 143.616C315.731 144.062 316.274 144.703 316.667 145.541C317.064 146.379 317.263 147.388 317.263 148.567C317.263 149.746 317.067 150.757 316.674 151.599C316.281 152.437 315.741 153.084 315.054 153.538C314.368 153.988 313.584 154.213 312.703 154.213C312.041 154.213 311.498 154.102 311.077 153.879C310.66 153.657 310.334 153.396 310.097 153.098C309.86 152.8 309.678 152.535 309.55 152.303H309.422V158.091H307.299ZM309.38 148.545C309.38 149.312 309.491 149.985 309.713 150.562C309.936 151.14 310.258 151.592 310.679 151.919C311.101 152.241 311.617 152.402 312.228 152.402C312.862 152.402 313.392 152.234 313.819 151.898C314.245 151.557 314.567 151.095 314.784 150.513C315.007 149.93 315.118 149.275 315.118 148.545C315.118 147.826 315.009 147.179 314.792 146.607C314.578 146.034 314.257 145.581 313.826 145.25C313.4 144.919 312.867 144.753 312.228 144.753C311.612 144.753 311.091 144.911 310.665 145.229C310.244 145.546 309.924 145.989 309.706 146.557C309.489 147.125 309.38 147.788 309.38 148.545ZM324.344 154.22C323.269 154.22 322.344 153.991 321.567 153.531C320.795 153.067 320.199 152.416 319.777 151.578C319.361 150.735 319.152 149.748 319.152 148.616C319.152 147.499 319.361 146.514 319.777 145.662C320.199 144.81 320.786 144.144 321.539 143.666C322.296 143.188 323.182 142.949 324.195 142.949C324.81 142.949 325.407 143.051 325.985 143.254C326.562 143.458 327.081 143.777 327.54 144.213C327.999 144.649 328.362 145.214 328.627 145.911C328.892 146.602 329.025 147.442 329.025 148.432V149.185H320.353V147.594H326.944C326.944 147.035 326.83 146.54 326.603 146.109C326.375 145.674 326.056 145.33 325.644 145.08C325.237 144.829 324.758 144.703 324.209 144.703C323.613 144.703 323.092 144.85 322.647 145.143C322.206 145.432 321.865 145.811 321.624 146.28C321.387 146.744 321.269 147.248 321.269 147.793V149.036C321.269 149.765 321.397 150.385 321.652 150.896C321.913 151.408 322.275 151.798 322.739 152.068C323.203 152.333 323.745 152.466 324.365 152.466C324.768 152.466 325.135 152.409 325.466 152.295C325.798 152.177 326.084 152.002 326.326 151.77C326.567 151.538 326.752 151.251 326.88 150.911L328.89 151.273C328.729 151.865 328.44 152.383 328.023 152.828C327.611 153.268 327.093 153.612 326.468 153.858C325.847 154.099 325.14 154.22 324.344 154.22ZM335.976 154.22C334.92 154.22 334.011 153.981 333.249 153.503C332.491 153.02 331.909 152.355 331.501 151.507C331.094 150.66 330.891 149.689 330.891 148.595C330.891 147.487 331.099 146.509 331.516 145.662C331.932 144.81 332.519 144.144 333.277 143.666C334.035 143.188 334.927 142.949 335.955 142.949C336.783 142.949 337.522 143.103 338.17 143.411C338.819 143.714 339.342 144.14 339.74 144.689C340.143 145.238 340.382 145.88 340.457 146.614H338.391C338.277 146.102 338.017 145.662 337.609 145.293C337.207 144.923 336.667 144.739 335.99 144.739C335.398 144.739 334.88 144.895 334.435 145.207C333.994 145.515 333.651 145.955 333.405 146.528C333.159 147.097 333.036 147.769 333.036 148.545C333.036 149.341 333.156 150.027 333.398 150.605C333.639 151.183 333.98 151.63 334.42 151.947C334.866 152.265 335.389 152.423 335.99 152.423C336.393 152.423 336.757 152.35 337.084 152.203C337.415 152.052 337.692 151.836 337.915 151.557C338.142 151.277 338.301 150.941 338.391 150.548H340.457C340.382 151.254 340.152 151.884 339.768 152.438C339.385 152.991 338.871 153.427 338.227 153.744C337.588 154.062 336.838 154.22 335.976 154.22ZM342.728 154V143.091H344.852V154H342.728ZM343.801 141.408C343.431 141.408 343.114 141.285 342.849 141.038C342.589 140.787 342.458 140.489 342.458 140.143C342.458 139.793 342.589 139.495 342.849 139.249C343.114 138.998 343.431 138.872 343.801 138.872C344.17 138.872 344.485 138.998 344.745 139.249C345.011 139.495 345.143 139.793 345.143 140.143C345.143 140.489 345.011 140.787 344.745 141.038C344.485 141.285 344.17 141.408 343.801 141.408ZM350.884 154.241C350.192 154.241 349.567 154.114 349.009 153.858C348.45 153.598 348.007 153.221 347.68 152.729C347.358 152.236 347.197 151.633 347.197 150.918C347.197 150.302 347.316 149.795 347.553 149.398C347.789 149 348.109 148.685 348.511 148.453C348.914 148.221 349.364 148.046 349.861 147.928C350.358 147.809 350.865 147.719 351.381 147.658C352.034 147.582 352.564 147.52 352.972 147.473C353.379 147.421 353.675 147.338 353.859 147.224C354.044 147.111 354.136 146.926 354.136 146.67V146.621C354.136 146 353.961 145.52 353.611 145.179C353.265 144.838 352.749 144.668 352.062 144.668C351.348 144.668 350.784 144.826 350.372 145.143C349.965 145.456 349.683 145.804 349.527 146.188L347.531 145.733C347.768 145.07 348.114 144.535 348.568 144.128C349.027 143.716 349.555 143.418 350.152 143.233C350.749 143.044 351.376 142.949 352.034 142.949C352.47 142.949 352.931 143.001 353.419 143.105C353.911 143.205 354.371 143.389 354.797 143.659C355.228 143.929 355.58 144.315 355.855 144.817C356.13 145.314 356.267 145.96 356.267 146.756V154H354.193V152.509H354.108C353.971 152.783 353.765 153.053 353.49 153.318C353.215 153.583 352.863 153.804 352.432 153.979C352.001 154.154 351.485 154.241 350.884 154.241ZM351.345 152.537C351.932 152.537 352.434 152.421 352.851 152.189C353.272 151.957 353.592 151.654 353.81 151.28C354.032 150.901 354.143 150.496 354.143 150.065V148.659C354.068 148.735 353.921 148.806 353.703 148.872C353.49 148.934 353.246 148.988 352.972 149.036C352.697 149.078 352.429 149.118 352.169 149.156C351.909 149.189 351.691 149.218 351.516 149.241C351.104 149.294 350.727 149.381 350.386 149.504C350.05 149.627 349.78 149.805 349.577 150.037C349.378 150.264 349.278 150.567 349.278 150.946C349.278 151.472 349.473 151.869 349.861 152.139C350.249 152.404 350.744 152.537 351.345 152.537ZM361.219 139.455V154H359.096V139.455H361.219ZM366.2 139.455V154H364.076V139.455H366.2ZM370.399 158.091C370.082 158.091 369.793 158.065 369.532 158.013C369.272 157.965 369.078 157.913 368.95 157.857L369.461 156.116C369.85 156.221 370.195 156.266 370.498 156.251C370.801 156.237 371.069 156.124 371.301 155.911C371.538 155.697 371.746 155.349 371.926 154.866L372.189 154.142L368.197 143.091H370.47L373.233 151.557H373.346L376.109 143.091H378.389L373.893 155.456C373.685 156.024 373.42 156.505 373.098 156.898C372.776 157.295 372.392 157.594 371.947 157.793C371.502 157.991 370.986 158.091 370.399 158.091ZM390.273 154.22C389.217 154.22 388.308 153.981 387.545 153.503C386.788 153.02 386.205 152.355 385.798 151.507C385.391 150.66 385.188 149.689 385.188 148.595C385.188 147.487 385.396 146.509 385.812 145.662C386.229 144.81 386.816 144.144 387.574 143.666C388.331 143.188 389.224 142.949 390.251 142.949C391.08 142.949 391.819 143.103 392.467 143.411C393.116 143.714 393.639 144.14 394.037 144.689C394.439 145.238 394.679 145.88 394.754 146.614H392.688C392.574 146.102 392.313 145.662 391.906 145.293C391.504 144.923 390.964 144.739 390.287 144.739C389.695 144.739 389.177 144.895 388.732 145.207C388.291 145.515 387.948 145.955 387.702 146.528C387.455 147.097 387.332 147.769 387.332 148.545C387.332 149.341 387.453 150.027 387.695 150.605C387.936 151.183 388.277 151.63 388.717 151.947C389.162 152.265 389.686 152.423 390.287 152.423C390.689 152.423 391.054 152.35 391.381 152.203C391.712 152.052 391.989 151.836 392.212 151.557C392.439 151.277 392.598 150.941 392.688 150.548H394.754C394.679 151.254 394.449 151.884 394.065 152.438C393.682 152.991 393.168 153.427 392.524 153.744C391.885 154.062 391.134 154.22 390.273 154.22ZM401.62 154.22C400.598 154.22 399.705 153.986 398.943 153.517C398.181 153.048 397.589 152.393 397.167 151.55C396.746 150.707 396.535 149.722 396.535 148.595C396.535 147.464 396.746 146.474 397.167 145.626C397.589 144.779 398.181 144.121 398.943 143.652C399.705 143.183 400.598 142.949 401.62 142.949C402.643 142.949 403.536 143.183 404.298 143.652C405.06 144.121 405.652 144.779 406.074 145.626C406.495 146.474 406.706 147.464 406.706 148.595C406.706 149.722 406.495 150.707 406.074 151.55C405.652 152.393 405.06 153.048 404.298 153.517C403.536 153.986 402.643 154.22 401.62 154.22ZM401.627 152.438C402.29 152.438 402.84 152.262 403.275 151.912C403.711 151.562 404.033 151.095 404.241 150.513C404.454 149.93 404.561 149.289 404.561 148.588C404.561 147.892 404.454 147.253 404.241 146.67C404.033 146.083 403.711 145.612 403.275 145.257C402.84 144.902 402.29 144.724 401.627 144.724C400.96 144.724 400.406 144.902 399.966 145.257C399.53 145.612 399.206 146.083 398.993 146.67C398.784 147.253 398.68 147.892 398.68 148.588C398.68 149.289 398.784 149.93 398.993 150.513C399.206 151.095 399.53 151.562 399.966 151.912C400.406 152.262 400.96 152.438 401.627 152.438ZM411.2 139.455V154H409.076V139.455H411.2ZM416.18 139.455V154H414.056V139.455H416.18ZM423.739 154.22C422.664 154.22 421.738 153.991 420.962 153.531C420.19 153.067 419.593 152.416 419.172 151.578C418.755 150.735 418.547 149.748 418.547 148.616C418.547 147.499 418.755 146.514 419.172 145.662C419.593 144.81 420.18 144.144 420.933 143.666C421.691 143.188 422.576 142.949 423.589 142.949C424.205 142.949 424.802 143.051 425.379 143.254C425.957 143.458 426.475 143.777 426.935 144.213C427.394 144.649 427.756 145.214 428.021 145.911C428.286 146.602 428.419 147.442 428.419 148.432V149.185H419.747V147.594H426.338C426.338 147.035 426.224 146.54 425.997 146.109C425.77 145.674 425.45 145.33 425.038 145.08C424.631 144.829 424.153 144.703 423.604 144.703C423.007 144.703 422.486 144.85 422.041 145.143C421.601 145.432 421.26 145.811 421.018 146.28C420.782 146.744 420.663 147.248 420.663 147.793V149.036C420.663 149.765 420.791 150.385 421.047 150.896C421.307 151.408 421.67 151.798 422.134 152.068C422.598 152.333 423.14 152.466 423.76 152.466C424.162 152.466 424.529 152.409 424.861 152.295C425.192 152.177 425.479 152.002 425.72 151.77C425.962 151.538 426.146 151.251 426.274 150.911L428.284 151.273C428.123 151.865 427.834 152.383 427.418 152.828C427.006 153.268 426.487 153.612 425.862 153.858C425.242 154.099 424.534 154.22 423.739 154.22ZM435.37 154.22C434.315 154.22 433.405 153.981 432.643 153.503C431.886 153.02 431.303 152.355 430.896 151.507C430.489 150.66 430.285 149.689 430.285 148.595C430.285 147.487 430.493 146.509 430.91 145.662C431.327 144.81 431.914 144.144 432.672 143.666C433.429 143.188 434.322 142.949 435.349 142.949C436.178 142.949 436.916 143.103 437.565 143.411C438.214 143.714 438.737 144.14 439.135 144.689C439.537 145.238 439.776 145.88 439.852 146.614H437.785C437.672 146.102 437.411 145.662 437.004 145.293C436.601 144.923 436.062 144.739 435.385 144.739C434.793 144.739 434.274 144.895 433.829 145.207C433.389 145.515 433.046 145.955 432.799 146.528C432.553 147.097 432.43 147.769 432.43 148.545C432.43 149.341 432.551 150.027 432.792 150.605C433.034 151.183 433.375 151.63 433.815 151.947C434.26 152.265 434.783 152.423 435.385 152.423C435.787 152.423 436.152 152.35 436.478 152.203C436.81 152.052 437.087 151.836 437.309 151.557C437.537 151.277 437.695 150.941 437.785 150.548H439.852C439.776 151.254 439.547 151.884 439.163 152.438C438.779 152.991 438.266 153.427 437.622 153.744C436.983 154.062 436.232 154.22 435.37 154.22ZM447.215 143.091V144.795H441.256V143.091H447.215ZM442.854 140.477H444.978V150.797C444.978 151.209 445.04 151.519 445.163 151.727C445.286 151.931 445.444 152.071 445.638 152.146C445.837 152.217 446.053 152.253 446.285 152.253C446.455 152.253 446.604 152.241 446.732 152.217C446.86 152.194 446.96 152.175 447.031 152.161L447.414 153.915C447.291 153.962 447.116 154.009 446.888 154.057C446.661 154.109 446.377 154.137 446.036 154.142C445.478 154.152 444.957 154.052 444.474 153.844C443.991 153.635 443.6 153.313 443.302 152.878C443.004 152.442 442.854 151.895 442.854 151.237V140.477ZM454.149 154.22C453.074 154.22 452.148 153.991 451.372 153.531C450.6 153.067 450.003 152.416 449.582 151.578C449.165 150.735 448.957 149.748 448.957 148.616C448.957 147.499 449.165 146.514 449.582 145.662C450.003 144.81 450.591 144.144 451.343 143.666C452.101 143.188 452.986 142.949 454 142.949C454.615 142.949 455.212 143.051 455.789 143.254C456.367 143.458 456.886 143.777 457.345 144.213C457.804 144.649 458.166 145.214 458.431 145.911C458.697 146.602 458.829 147.442 458.829 148.432V149.185H450.157V147.594H456.748C456.748 147.035 456.635 146.54 456.407 146.109C456.18 145.674 455.86 145.33 455.449 145.08C455.041 144.829 454.563 144.703 454.014 144.703C453.417 144.703 452.896 144.85 452.451 145.143C452.011 145.432 451.67 145.811 451.429 146.28C451.192 146.744 451.074 147.248 451.074 147.793V149.036C451.074 149.765 451.201 150.385 451.457 150.896C451.717 151.408 452.08 151.798 452.544 152.068C453.008 152.333 453.55 152.466 454.17 152.466C454.573 152.466 454.94 152.409 455.271 152.295C455.602 152.177 455.889 152.002 456.13 151.77C456.372 151.538 456.556 151.251 456.684 150.911L458.694 151.273C458.533 151.865 458.244 152.383 457.828 152.828C457.416 153.268 456.897 153.612 456.272 153.858C455.652 154.099 454.944 154.22 454.149 154.22ZM465.269 154.213C464.388 154.213 463.603 153.988 462.911 153.538C462.225 153.084 461.685 152.437 461.292 151.599C460.904 150.757 460.71 149.746 460.71 148.567C460.71 147.388 460.906 146.379 461.299 145.541C461.697 144.703 462.241 144.062 462.933 143.616C463.624 143.171 464.407 142.949 465.283 142.949C465.96 142.949 466.505 143.062 466.917 143.29C467.334 143.512 467.656 143.773 467.883 144.071C468.115 144.369 468.295 144.632 468.423 144.859H468.55V139.455H470.674V154H468.6V152.303H468.423C468.295 152.535 468.11 152.8 467.869 153.098C467.632 153.396 467.305 153.657 466.888 153.879C466.472 154.102 465.932 154.213 465.269 154.213ZM465.738 152.402C466.349 152.402 466.865 152.241 467.286 151.919C467.712 151.592 468.034 151.14 468.252 150.562C468.475 149.985 468.586 149.312 468.586 148.545C468.586 147.788 468.477 147.125 468.259 146.557C468.041 145.989 467.722 145.546 467.3 145.229C466.879 144.911 466.358 144.753 465.738 144.753C465.099 144.753 464.566 144.919 464.14 145.25C463.714 145.581 463.392 146.034 463.174 146.607C462.961 147.179 462.854 147.826 462.854 148.545C462.854 149.275 462.963 149.93 463.181 150.513C463.399 151.095 463.721 151.557 464.147 151.898C464.578 152.234 465.108 152.402 465.738 152.402ZM482.173 154.241C481.481 154.241 480.856 154.114 480.298 153.858C479.739 153.598 479.296 153.221 478.969 152.729C478.647 152.236 478.487 151.633 478.487 150.918C478.487 150.302 478.605 149.795 478.842 149.398C479.078 149 479.398 148.685 479.8 148.453C480.203 148.221 480.653 148.046 481.15 147.928C481.647 147.809 482.154 147.719 482.67 147.658C483.323 147.582 483.853 147.52 484.261 147.473C484.668 147.421 484.964 147.338 485.148 147.224C485.333 147.111 485.425 146.926 485.425 146.67V146.621C485.425 146 485.25 145.52 484.9 145.179C484.554 144.838 484.038 144.668 483.352 144.668C482.637 144.668 482.073 144.826 481.661 145.143C481.254 145.456 480.972 145.804 480.816 146.188L478.82 145.733C479.057 145.07 479.403 144.535 479.857 144.128C480.317 143.716 480.844 143.418 481.441 143.233C482.038 143.044 482.665 142.949 483.323 142.949C483.759 142.949 484.22 143.001 484.708 143.105C485.201 143.205 485.66 143.389 486.086 143.659C486.517 143.929 486.87 144.315 487.144 144.817C487.419 145.314 487.556 145.96 487.556 146.756V154H485.482V152.509H485.397C485.26 152.783 485.054 153.053 484.779 153.318C484.504 153.583 484.152 153.804 483.721 153.979C483.29 154.154 482.774 154.241 482.173 154.241ZM482.634 152.537C483.221 152.537 483.723 152.421 484.14 152.189C484.561 151.957 484.881 151.654 485.099 151.28C485.321 150.901 485.433 150.496 485.433 150.065V148.659C485.357 148.735 485.21 148.806 484.992 148.872C484.779 148.934 484.535 148.988 484.261 149.036C483.986 149.078 483.719 149.118 483.458 149.156C483.198 149.189 482.98 149.218 482.805 149.241C482.393 149.294 482.016 149.381 481.675 149.504C481.339 149.627 481.069 149.805 480.866 150.037C480.667 150.264 480.567 150.567 480.567 150.946C480.567 151.472 480.762 151.869 481.15 152.139C481.538 152.404 482.033 152.537 482.634 152.537ZM497.295 149.476V143.091H499.426V154H497.338V152.111H497.224C496.973 152.693 496.571 153.179 496.017 153.567C495.467 153.95 494.783 154.142 493.964 154.142C493.263 154.142 492.643 153.988 492.103 153.68C491.568 153.368 491.147 152.906 490.839 152.295C490.536 151.685 490.385 150.929 490.385 150.03V143.091H492.508V149.774C492.508 150.518 492.714 151.109 493.126 151.55C493.538 151.99 494.073 152.21 494.731 152.21C495.129 152.21 495.524 152.111 495.917 151.912C496.315 151.713 496.644 151.412 496.904 151.01C497.17 150.607 497.3 150.096 497.295 149.476ZM506.363 154.213C505.482 154.213 504.696 153.988 504.005 153.538C503.318 153.084 502.779 152.437 502.386 151.599C501.997 150.757 501.803 149.746 501.803 148.567C501.803 147.388 502 146.379 502.393 145.541C502.79 144.703 503.335 144.062 504.026 143.616C504.718 143.171 505.501 142.949 506.377 142.949C507.054 142.949 507.599 143.062 508.011 143.29C508.427 143.512 508.749 143.773 508.977 144.071C509.209 144.369 509.388 144.632 509.516 144.859H509.644V139.455H511.768V154H509.694V152.303H509.516C509.388 152.535 509.204 152.8 508.962 153.098C508.726 153.396 508.399 153.657 507.982 153.879C507.566 154.102 507.026 154.213 506.363 154.213ZM506.832 152.402C507.442 152.402 507.959 152.241 508.38 151.919C508.806 151.592 509.128 151.14 509.346 150.562C509.568 149.985 509.68 149.312 509.68 148.545C509.68 147.788 509.571 147.125 509.353 146.557C509.135 145.989 508.816 145.546 508.394 145.229C507.973 144.911 507.452 144.753 506.832 144.753C506.192 144.753 505.66 144.919 505.234 145.25C504.808 145.581 504.486 146.034 504.268 146.607C504.055 147.179 503.948 147.826 503.948 148.545C503.948 149.275 504.057 149.93 504.275 150.513C504.493 151.095 504.815 151.557 505.241 151.898C505.672 152.234 506.202 152.402 506.832 152.402ZM514.799 154V143.091H516.922V154H514.799ZM515.871 141.408C515.502 141.408 515.185 141.285 514.919 141.038C514.659 140.787 514.529 140.489 514.529 140.143C514.529 139.793 514.659 139.495 514.919 139.249C515.185 138.998 515.502 138.872 515.871 138.872C516.24 138.872 516.555 138.998 516.816 139.249C517.081 139.495 517.213 139.793 517.213 140.143C517.213 140.489 517.081 140.787 516.816 141.038C516.555 141.285 516.24 141.408 515.871 141.408ZM524.374 154.22C523.352 154.22 522.459 153.986 521.697 153.517C520.934 153.048 520.343 152.393 519.921 151.55C519.5 150.707 519.289 149.722 519.289 148.595C519.289 147.464 519.5 146.474 519.921 145.626C520.343 144.779 520.934 144.121 521.697 143.652C522.459 143.183 523.352 142.949 524.374 142.949C525.397 142.949 526.29 143.183 527.052 143.652C527.814 144.121 528.406 144.779 528.827 145.626C529.249 146.474 529.46 147.464 529.46 148.595C529.46 149.722 529.249 150.707 528.827 151.55C528.406 152.393 527.814 153.048 527.052 153.517C526.29 153.986 525.397 154.22 524.374 154.22ZM524.381 152.438C525.044 152.438 525.594 152.262 526.029 151.912C526.465 151.562 526.787 151.095 526.995 150.513C527.208 149.93 527.315 149.289 527.315 148.588C527.315 147.892 527.208 147.253 526.995 146.67C526.787 146.083 526.465 145.612 526.029 145.257C525.594 144.902 525.044 144.724 524.381 144.724C523.714 144.724 523.16 144.902 522.719 145.257C522.284 145.612 521.96 146.083 521.746 146.67C521.538 147.253 521.434 147.892 521.434 148.588C521.434 149.289 521.538 149.93 521.746 150.513C521.96 151.095 522.284 151.562 522.719 151.912C523.16 152.262 523.714 152.438 524.381 152.438Z" fill="white"/>
<path d="M567 174.07L557 168.296L557 179.843L567 174.07ZM257 175.07L558 175.07L558 173.07L257 173.07L257 175.07Z" fill="#A8E2FB"/>
<path d="M1195 175.07L1185 169.296L1185 180.843L1195 175.07ZM867 176.07L1186 176.07L1186 174.07L867 174.07L867 176.07Z" fill="#A8E2FB"/>
</g>
<defs>
<clipPath id="clip0_570_13531">
<rect width="1680" height="345" rx="20" fill="white"/>
</clipPath>
</defs>
</svg>
