<?xml version="1.0" encoding="us-ascii" standalone="no"?><svg xmlns="http://www.w3.org/2000/svg" xmlns:xlink="http://www.w3.org/1999/xlink" contentStyleType="text/css" height="937px" preserveAspectRatio="none" style="width:540px;height:937px;" version="1.1" viewBox="0 0 540 937" width="540px" zoomAndPan="magnify"><defs/><g><rect fill="none" height="935.9668" style="stroke:#0A9EFD;stroke-width:1.0;" width="538" x="0" y="0"/><rect fill="#999999" fill-opacity="0.33333" height="925.9668" style="stroke:#0A9EFD;stroke-width:0.5;" width="90" x="135" y="6"/><text fill="#0A9EFD" font-family="sans-serif" font-size="13" font-weight="bold" lengthAdjust="spacing" textLength="62" x="149" y="18.5684">Your app</text><rect fill="#999999" fill-opacity="0.33333" height="925.9668" style="stroke:#0A9EFD;stroke-width:0.5;" width="80" x="448" y="6"/><text fill="#0A9EFD" font-family="sans-serif" font-size="13" font-weight="bold" lengthAdjust="spacing" textLength="41" x="467.5" y="18.5684">Agora</text><rect fill="#0A9EFD" fill-opacity="0.06667" height="116.7949" style="stroke:#0A9EFD;stroke-width:2.0;" width="524" x="10" y="215.9448"/><rect fill="#0A9EFD" fill-opacity="0.06667" height="190.6411" style="stroke:#0A9EFD;stroke-width:2.0;" width="524" x="10" y="346.7397"/><rect fill="#0A9EFD" fill-opacity="0.06667" height="103.7949" style="stroke:#0A9EFD;stroke-width:2.0;" width="524" x="10" y="551.3809"/><rect fill="#0A9EFD" fill-opacity="0.06667" height="103.7949" style="stroke:#0A9EFD;stroke-width:2.0;" width="524" x="10" y="669.1758"/><line style="stroke:#0A9EFD;stroke-width:0.5;stroke-dasharray:5.0,5.0;" x1="38" x2="38" y1="86.0986" y2="847.8682"/><line style="stroke:#0A9EFD;stroke-width:0.5;stroke-dasharray:5.0,5.0;" x1="180" x2="180" y1="86.0986" y2="847.8682"/><line style="stroke:#0A9EFD;stroke-width:0.5;stroke-dasharray:5.0,5.0;" x1="488" x2="488" y1="86.0986" y2="847.8682"/><text fill="#0A9EFD" font-family="Arial" font-size="14" lengthAdjust="spacing" textLength="30" x="20" y="83.1318">User</text><ellipse cx="38" cy="16" fill="none" rx="8" ry="8" style="stroke:#0A9EFD;stroke-width:3.0;"/><path d="M38,24 L38,51 M25,32 L51,32 M38,51 L25,66 M38,51 L51,66 " fill="none" style="stroke:#0A9EFD;stroke-width:3.0;"/><text fill="#0A9EFD" font-family="Arial" font-size="14" lengthAdjust="spacing" textLength="30" x="20" y="860">User</text><ellipse cx="38" cy="873.9668" fill="none" rx="8" ry="8" style="stroke:#0A9EFD;stroke-width:3.0;"/><path d="M38,881.9668 L38,908.9668 M25,889.9668 L51,889.9668 M38,908.9668 L25,923.9668 M38,908.9668 L51,923.9668 " fill="none" style="stroke:#0A9EFD;stroke-width:3.0;"/><rect fill="none" height="30.0986" rx="2.5" ry="2.5" style="stroke:#0A9EFD;stroke-width:2.0;" width="82" x="139" y="55"/><text fill="#0A9EFD" font-family="Arial" font-size="14" lengthAdjust="spacing" textLength="68" x="146" y="75.1318">Video SDK</text><rect fill="none" height="30.0986" rx="2.5" ry="2.5" style="stroke:#0A9EFD;stroke-width:2.0;" width="82" x="139" y="846.8682"/><text fill="#0A9EFD" font-family="Arial" font-size="14" lengthAdjust="spacing" textLength="68" x="146" y="867">Video SDK</text><rect fill="none" height="30.0986" rx="2.5" ry="2.5" style="stroke:#0A9EFD;stroke-width:2.0;" width="72" x="452" y="55"/><text fill="#0A9EFD" font-family="Arial" font-size="14" lengthAdjust="spacing" textLength="58" x="459" y="75.1318">SDRTN&#174;</text><rect fill="none" height="30.0986" rx="2.5" ry="2.5" style="stroke:#0A9EFD;stroke-width:2.0;" width="72" x="452" y="846.8682"/><text fill="#0A9EFD" font-family="Arial" font-size="14" lengthAdjust="spacing" textLength="58" x="459" y="867">SDRTN&#174;</text><polygon fill="#0A9EFD" points="168,113.0474,178,117.0474,168,121.0474,172,117.0474" style="stroke:#0A9EFD;stroke-width:1.0;"/><line style="stroke:#0A9EFD;stroke-width:2.0;" x1="38" x2="174" y1="117.0474" y2="117.0474"/><text fill="#0A9EFD" font-family="Arial" font-size="13" lengthAdjust="spacing" textLength="58" x="80" y="112.2925">Open App</text><line style="stroke:#0A9EFD;stroke-width:2.0;" x1="180" x2="222" y1="145.9961" y2="145.9961"/><line style="stroke:#0A9EFD;stroke-width:2.0;" x1="222" x2="222" y1="145.9961" y2="158.9961"/><line style="stroke:#0A9EFD;stroke-width:2.0;" x1="181" x2="222" y1="158.9961" y2="158.9961"/><polygon fill="#0A9EFD" points="191,154.9961,181,158.9961,191,162.9961,187,158.9961" style="stroke:#0A9EFD;stroke-width:1.0;"/><text fill="#0A9EFD" font-family="Arial" font-size="13" lengthAdjust="spacing" textLength="294" x="187" y="141.2412">Create an Agora Engine instance using Video SDK</text><line style="stroke:#0A9EFD;stroke-width:2.0;" x1="180" x2="222" y1="187.9448" y2="187.9448"/><line style="stroke:#0A9EFD;stroke-width:2.0;" x1="222" x2="222" y1="187.9448" y2="200.9448"/><line style="stroke:#0A9EFD;stroke-width:2.0;" x1="181" x2="222" y1="200.9448" y2="200.9448"/><polygon fill="#0A9EFD" points="191,196.9448,181,200.9448,191,204.9448,187,200.9448" style="stroke:#0A9EFD;stroke-width:1.0;"/><text fill="#0A9EFD" font-family="Arial" font-size="13" lengthAdjust="spacing" textLength="231" x="187" y="183.1899">Enable audio and video in Agora Engine</text><path d="M10,215.9448 L79,215.9448 L79,222.8936 L69,232.8936 L10,232.8936 L10,215.9448 " fill="#EEEEEE" style="stroke:#0A9EFD;stroke-width:1.5;"/><rect fill="none" height="116.7949" style="stroke:#0A9EFD;stroke-width:2.0;" width="524" x="10" y="215.9448"/><text fill="#000000" font-family="Arial" font-size="13" lengthAdjust="spacing" textLength="24" x="25" y="229.1387">Join</text><polygon fill="#0A9EFD" points="168,249.8423,178,253.8423,168,257.8423,172,253.8423" style="stroke:#0A9EFD;stroke-width:1.0;"/><line style="stroke:#0A9EFD;stroke-width:2.0;" x1="38" x2="174" y1="253.8423" y2="253.8423"/><text fill="#0A9EFD" font-family="Arial" font-size="13" lengthAdjust="spacing" textLength="84" x="67" y="249.0874">Join a channel</text><line style="stroke:#0A9EFD;stroke-width:2.0;" x1="180" x2="222" y1="282.791" y2="282.791"/><line style="stroke:#0A9EFD;stroke-width:2.0;" x1="222" x2="222" y1="282.791" y2="295.791"/><line style="stroke:#0A9EFD;stroke-width:2.0;" x1="181" x2="222" y1="295.791" y2="295.791"/><polygon fill="#0A9EFD" points="191,291.791,181,295.791,191,299.791,187,295.791" style="stroke:#0A9EFD;stroke-width:1.0;"/><text fill="#0A9EFD" font-family="Arial" font-size="13" lengthAdjust="spacing" textLength="268" x="187" y="278.0361">Retrieve authentication token to join a channel</text><polygon fill="#0A9EFD" points="476,320.7397,486,324.7397,476,328.7397,480,324.7397" style="stroke:#0A9EFD;stroke-width:1.0;"/><line style="stroke:#0A9EFD;stroke-width:2.0;" x1="180" x2="482" y1="324.7397" y2="324.7397"/><text fill="#0A9EFD" font-family="Arial" font-size="13" lengthAdjust="spacing" textLength="95" x="286.5" y="319.9849">Join the channel</text><path d="M10,346.7397 L153,346.7397 L153,353.6885 L143,363.6885 L10,363.6885 L10,346.7397 " fill="#EEEEEE" style="stroke:#0A9EFD;stroke-width:1.5;"/><rect fill="none" height="190.6411" style="stroke:#0A9EFD;stroke-width:2.0;" width="524" x="10" y="346.7397"/><text fill="#000000" font-family="Arial" font-size="13" lengthAdjust="spacing" textLength="98" x="25" y="359.9336">Play audio effect</text><polygon fill="#0A9EFD" points="168,380.6372,178,384.6372,168,388.6372,172,384.6372" style="stroke:#0A9EFD;stroke-width:1.0;"/><line style="stroke:#0A9EFD;stroke-width:2.0;" x1="38" x2="174" y1="384.6372" y2="384.6372"/><text fill="#0A9EFD" font-family="Arial" font-size="13" lengthAdjust="spacing" textLength="116" x="51" y="379.8823">Trigger sound effect</text><polygon fill="#0A9EFD" points="476,409.5859,486,413.5859,476,417.5859,480,413.5859" style="stroke:#0A9EFD;stroke-width:1.0;"/><line style="stroke:#0A9EFD;stroke-width:2.0;" x1="180" x2="482" y1="413.5859" y2="413.5859"/><text fill="#0A9EFD" font-family="Arial" font-size="13" lengthAdjust="spacing" textLength="63" x="302.5" y="408.8311">Play effect</text><polygon fill="#0A9EFD" points="476,438.5347,486,442.5347,476,446.5347,480,442.5347" style="stroke:#0A9EFD;stroke-width:1.0;"/><line style="stroke:#0A9EFD;stroke-width:2.0;" x1="180" x2="482" y1="442.5347" y2="442.5347"/><text fill="#0A9EFD" font-family="Arial" font-size="13" lengthAdjust="spacing" textLength="146" x="261" y="437.7798">Pause and resume effect</text><polygon fill="#0A9EFD" points="476,467.4834,486,471.4834,476,475.4834,480,471.4834" style="stroke:#0A9EFD;stroke-width:1.0;"/><line style="stroke:#0A9EFD;stroke-width:2.0;" x1="180" x2="482" y1="471.4834" y2="471.4834"/><text fill="#0A9EFD" font-family="Arial" font-size="13" lengthAdjust="spacing" textLength="106" x="281" y="466.7285">Set effect position</text><polygon fill="#0A9EFD" points="476,496.4321,486,500.4321,476,504.4321,480,500.4321" style="stroke:#0A9EFD;stroke-width:1.0;"/><line style="stroke:#0A9EFD;stroke-width:2.0;" x1="180" x2="482" y1="500.4321" y2="500.4321"/><text fill="#0A9EFD" font-family="Arial" font-size="13" lengthAdjust="spacing" textLength="103" x="282.5" y="495.6772">Set effect volume</text><polygon fill="#0A9EFD" points="191,525.3809,181,529.3809,191,533.3809,187,529.3809" style="stroke:#0A9EFD;stroke-width:1.0;"/><line style="stroke:#0A9EFD;stroke-width:2.0;" x1="185" x2="487" y1="529.3809" y2="529.3809"/><text fill="#0A9EFD" font-family="Arial" font-size="13" lengthAdjust="spacing" textLength="138" x="265" y="524.626">On audio effect finished</text><path d="M10,551.3809 L130,551.3809 L130,558.3296 L120,568.3296 L10,568.3296 L10,551.3809 " fill="#EEEEEE" style="stroke:#0A9EFD;stroke-width:1.5;"/><rect fill="none" height="103.7949" style="stroke:#0A9EFD;stroke-width:2.0;" width="524" x="10" y="551.3809"/><text fill="#000000" font-family="Arial" font-size="13" lengthAdjust="spacing" textLength="75" x="25" y="564.5747">Audio mixing</text><polygon fill="#0A9EFD" points="168,585.2783,178,589.2783,168,593.2783,172,589.2783" style="stroke:#0A9EFD;stroke-width:1.0;"/><line style="stroke:#0A9EFD;stroke-width:2.0;" x1="38" x2="174" y1="589.2783" y2="589.2783"/><text fill="#0A9EFD" font-family="Arial" font-size="13" lengthAdjust="spacing" textLength="118" x="50" y="584.5234">Control audio mixing</text><polygon fill="#0A9EFD" points="476,614.2271,486,618.2271,476,622.2271,480,618.2271" style="stroke:#0A9EFD;stroke-width:1.0;"/><line style="stroke:#0A9EFD;stroke-width:2.0;" x1="180" x2="482" y1="618.2271" y2="618.2271"/><text fill="#0A9EFD" font-family="Arial" font-size="13" lengthAdjust="spacing" textLength="105" x="281.5" y="613.4722">Start audio mixing</text><polygon fill="#0A9EFD" points="476,643.1758,486,647.1758,476,651.1758,480,647.1758" style="stroke:#0A9EFD;stroke-width:1.0;"/><line style="stroke:#0A9EFD;stroke-width:2.0;" x1="180" x2="482" y1="647.1758" y2="647.1758"/><text fill="#0A9EFD" font-family="Arial" font-size="13" lengthAdjust="spacing" textLength="104" x="282" y="642.4209">Stop audio mixing</text><path d="M10,669.1758 L132,669.1758 L132,676.1245 L122,686.1245 L10,686.1245 L10,669.1758 " fill="#EEEEEE" style="stroke:#0A9EFD;stroke-width:1.5;"/><rect fill="none" height="103.7949" style="stroke:#0A9EFD;stroke-width:2.0;" width="524" x="10" y="669.1758"/><text fill="#000000" font-family="Arial" font-size="13" lengthAdjust="spacing" textLength="77" x="25" y="682.3696">Voice effects</text><polygon fill="#0A9EFD" points="168,703.0732,178,707.0732,168,711.0732,172,707.0732" style="stroke:#0A9EFD;stroke-width:1.0;"/><line style="stroke:#0A9EFD;stroke-width:2.0;" x1="38" x2="174" y1="707.0732" y2="707.0732"/><text fill="#0A9EFD" font-family="Arial" font-size="13" lengthAdjust="spacing" textLength="116" x="51" y="702.3184">Apply a voice effect</text><polygon fill="#0A9EFD" points="476,732.022,486,736.022,476,740.022,480,736.022" style="stroke:#0A9EFD;stroke-width:1.0;"/><line style="stroke:#0A9EFD;stroke-width:2.0;" x1="180" x2="482" y1="736.022" y2="736.022"/><text fill="#0A9EFD" font-family="Arial" font-size="13" lengthAdjust="spacing" textLength="132" x="268" y="731.2671">Set preset voice effect</text><polygon fill="#0A9EFD" points="476,760.9707,486,764.9707,476,768.9707,480,764.9707" style="stroke:#0A9EFD;stroke-width:1.0;"/><line style="stroke:#0A9EFD;stroke-width:2.0;" x1="180" x2="482" y1="764.9707" y2="764.9707"/><text fill="#0A9EFD" font-family="Arial" font-size="13" lengthAdjust="spacing" textLength="137" x="265.5" y="760.2158">Disable the voice effect</text><polygon fill="#0A9EFD" points="168,796.9194,178,800.9194,168,804.9194,172,800.9194" style="stroke:#0A9EFD;stroke-width:1.0;"/><line style="stroke:#0A9EFD;stroke-width:2.0;" x1="38" x2="174" y1="800.9194" y2="800.9194"/><text fill="#0A9EFD" font-family="Arial" font-size="13" lengthAdjust="spacing" textLength="106" x="56" y="796.1646">Leave the channel</text><polygon fill="#0A9EFD" points="476,825.8682,486,829.8682,476,833.8682,480,829.8682" style="stroke:#0A9EFD;stroke-width:1.0;"/><line style="stroke:#0A9EFD;stroke-width:2.0;" x1="180" x2="482" y1="829.8682" y2="829.8682"/><text fill="#0A9EFD" font-family="Arial" font-size="13" lengthAdjust="spacing" textLength="106" x="281" y="825.1133">Leave the channel</text><!--SRC=[VL9BJiCm4Dtx54FsS024a2hAWe-WQW695JB9D1r8Pon_AhWKX-1aZ4CACL0saUBtcVV6tYEkkzGWs5QyVGZFn0UKrfqnjexYeReDw2km0MuNSsCUvGMgUqaUh7ELSTP7gibPZb3TKOC2Y-b5Jv_CPWQv0LKCiacUy4EpcCvlhjxV1iNPjqAdmVvnTZc4QuSC4-UC_dqTddYqKMChadtXb5jY1E8GBTS8AH2ty9Mfq9woVUnKcneITMXWqzEez3AczP8Sd0jnaISVW8LwPPcnAvpd63tX9dl75R8MjP648SepvYyyxT2U3RQgseAGjx4DCUliwn0ObqkiOv7enbFReeSWITiCXB5tB__htAQ0_GeyXhJ6lpWBZCCnE0cK- -p2DzAfIOyUxN-Yrrp4XYKnXHKsutAJdh2c5xsoejU9SFJI3Gu3ePWTzJNz1uihqT7KEw5wMpWKO_MjTRfjhVFD-5NPwSOmxkPCAVIlBDzeGUeZZCTTejtW-EOBdz_e1m00]--></g></svg>