<svg xmlns="http://www.w3.org/2000/svg" xmlns:xlink="http://www.w3.org/1999/xlink" contentStyleType="text/css" data-diagram-type="SEQUENCE" height="937px" preserveAspectRatio="none" style="width:533px;height:937px;" version="1.1" viewBox="0 0 533 937" width="533px" zoomAndPan="magnify"><defs/><g><rect fill="none" height="935.9668" style="stroke:#0A9EFD;stroke-width:1;" width="531.4277" x="0" y="0"/><rect fill="#999999" fill-opacity="0.33333" height="925.9668" style="stroke:#0A9EFD;stroke-width:0.5;" width="83.4482" x="138.5596" y="6"/><text fill="#0A9EFD" font-family="sans-serif" font-size="13" font-weight="bold" lengthAdjust="spacing" textLength="56.3354" x="152.116" y="19.4951">Your app</text><rect fill="#999999" fill-opacity="0.33333" height="925.9668" style="stroke:#0A9EFD;stroke-width:0.5;" width="80.5361" x="440.8916" y="6"/><text fill="#0A9EFD" font-family="sans-serif" font-size="13" font-weight="bold" lengthAdjust="spacing" textLength="37.5591" x="462.3801" y="19.4951">Agora</text><rect fill="#0A9EFD" fill-opacity="0.06667" height="116.7949" style="stroke:#0A9EFD;stroke-width:2;" width="517.4277" x="10" y="215.9448"/><rect fill="#0A9EFD" fill-opacity="0.06667" height="190.6411" style="stroke:#0A9EFD;stroke-width:2;" width="517.4277" x="10" y="346.7397"/><rect fill="#0A9EFD" fill-opacity="0.06667" height="103.7949" style="stroke:#0A9EFD;stroke-width:2;" width="517.4277" x="10" y="551.3809"/><rect fill="#0A9EFD" fill-opacity="0.06667" height="103.7949" style="stroke:#0A9EFD;stroke-width:2;" width="517.4277" x="10" y="669.1758"/><g><title>User</title><rect fill="#000000" fill-opacity="0.00000" height="761.7695" width="8" x="33.7793" y="86.0986"/><line style="stroke:#0A9EFD;stroke-width:0.5;stroke-dasharray:5.0,5.0;" x1="37" x2="37" y1="86.0986" y2="847.8682"/></g><g><title>RTC SDK</title><rect fill="#000000" fill-opacity="0.00000" height="761.7695" width="8" x="176.2837" y="86.0986"/><line style="stroke:#0A9EFD;stroke-width:0.5;stroke-dasharray:5.0,5.0;" x1="179.5596" x2="179.5596" y1="86.0986" y2="847.8682"/></g><g><title>SDRTN&#174;</title><rect fill="#000000" fill-opacity="0.00000" height="761.7695" width="8" x="477.1597" y="86.0986"/><line style="stroke:#0A9EFD;stroke-width:0.5;stroke-dasharray:5.0,5.0;" x1="480.8916" x2="480.8916" y1="86.0986" y2="847.8682"/></g><g class="participant participant-head" data-participant="USR"><text fill="#0A9EFD" font-family="Arial" font-size="14" lengthAdjust="spacing" textLength="29.5586" x="20" y="83.1318">User</text><ellipse cx="37.7793" cy="16" fill="none" rx="8" ry="8" style="stroke:#0A9EFD;stroke-width:3;"/><path d="M37.7793,24 L37.7793,51 M24.7793,32 L50.7793,32 M37.7793,51 L24.7793,66 M37.7793,51 L50.7793,66" fill="none" style="stroke:#0A9EFD;stroke-width:3;"/></g><g class="participant participant-tail" data-participant="USR"><text fill="#0A9EFD" font-family="Arial" font-size="14" lengthAdjust="spacing" textLength="29.5586" x="20" y="860">User</text><ellipse cx="37.7793" cy="873.9668" fill="none" rx="8" ry="8" style="stroke:#0A9EFD;stroke-width:3;"/><path d="M37.7793,881.9668 L37.7793,908.9668 M24.7793,889.9668 L50.7793,889.9668 M37.7793,908.9668 L24.7793,923.9668 M37.7793,908.9668 L50.7793,923.9668" fill="none" style="stroke:#0A9EFD;stroke-width:3;"/></g><g class="participant participant-head" data-participant="APP"><rect fill="none" height="30.0986" rx="2.5" ry="2.5" style="stroke:#0A9EFD;stroke-width:2;" width="75.4482" x="142.5596" y="55"/><text fill="#0A9EFD" font-family="Arial" font-size="14" lengthAdjust="spacing" textLength="61.4482" x="149.5596" y="75.1318">RTC SDK</text></g><g class="participant participant-tail" data-participant="APP"><rect fill="none" height="30.0986" rx="2.5" ry="2.5" style="stroke:#0A9EFD;stroke-width:2;" width="75.4482" x="142.5596" y="846.8682"/><text fill="#0A9EFD" font-family="Arial" font-size="14" lengthAdjust="spacing" textLength="61.4482" x="149.5596" y="867">RTC SDK</text></g><g class="participant participant-head" data-participant="API"><rect fill="none" height="30.0986" rx="2.5" ry="2.5" style="stroke:#0A9EFD;stroke-width:2;" width="72.5361" x="444.8916" y="55"/><text fill="#0A9EFD" font-family="Arial" font-size="14" lengthAdjust="spacing" textLength="58.5361" x="451.8916" y="75.1318">SDRTN&#174;</text></g><g class="participant participant-tail" data-participant="API"><rect fill="none" height="30.0986" rx="2.5" ry="2.5" style="stroke:#0A9EFD;stroke-width:2;" width="72.5361" x="444.8916" y="846.8682"/><text fill="#0A9EFD" font-family="Arial" font-size="14" lengthAdjust="spacing" textLength="58.5361" x="451.8916" y="867">SDRTN&#174;</text></g><g class="message" data-participant-1="USR" data-participant-2="APP"><polygon fill="#0A9EFD" points="168.2837,113.0474,178.2837,117.0474,168.2837,121.0474,172.2837,117.0474" style="stroke:#0A9EFD;stroke-width:1;"/><line style="stroke:#0A9EFD;stroke-width:2;" x1="37.7793" x2="174.2837" y1="117.0474" y2="117.0474"/><text fill="#0A9EFD" font-family="Arial" font-size="13" lengthAdjust="spacing" textLength="58.5444" x="79.7593" y="112.2925">Open App</text></g><g class="message" data-participant-1="APP" data-participant-2="APP"><line style="stroke:#0A9EFD;stroke-width:2;" x1="180.2837" x2="222.2837" y1="145.9961" y2="145.9961"/><line style="stroke:#0A9EFD;stroke-width:2;" x1="222.2837" x2="222.2837" y1="145.9961" y2="158.9961"/><line style="stroke:#0A9EFD;stroke-width:2;" x1="181.2837" x2="222.2837" y1="158.9961" y2="158.9961"/><polygon fill="#0A9EFD" points="191.2837,154.9961,181.2837,158.9961,191.2837,162.9961,187.2837,158.9961" style="stroke:#0A9EFD;stroke-width:1;"/><text fill="#0A9EFD" font-family="Arial" font-size="13" lengthAdjust="spacing" textLength="286.876" x="187.2837" y="141.2412">Create an Agora Engine instance using RTC SDK</text></g><g class="message" data-participant-1="APP" data-participant-2="APP"><line style="stroke:#0A9EFD;stroke-width:2;" x1="180.2837" x2="222.2837" y1="187.9448" y2="187.9448"/><line style="stroke:#0A9EFD;stroke-width:2;" x1="222.2837" x2="222.2837" y1="187.9448" y2="200.9448"/><line style="stroke:#0A9EFD;stroke-width:2;" x1="181.2837" x2="222.2837" y1="200.9448" y2="200.9448"/><polygon fill="#0A9EFD" points="191.2837,196.9448,181.2837,200.9448,191.2837,204.9448,187.2837,200.9448" style="stroke:#0A9EFD;stroke-width:1;"/><text fill="#0A9EFD" font-family="Arial" font-size="13" lengthAdjust="spacing" textLength="232.0132" x="187.2837" y="183.1899">Enable audio and video in Agora Engine</text></g><path d="M10,215.9448 L78.8481,215.9448 L78.8481,222.8936 L68.8481,232.8936 L10,232.8936 L10,215.9448" fill="#EEEEEE" style="stroke:#0A9EFD;stroke-width:1.5;"/><rect fill="none" height="116.7949" style="stroke:#0A9EFD;stroke-width:2;" width="517.4277" x="10" y="215.9448"/><text fill="#000000" font-family="Arial" font-size="13" lengthAdjust="spacing" textLength="23.8481" x="25" y="229.1387">Join</text><g class="message" data-participant-1="USR" data-participant-2="APP"><polygon fill="#0A9EFD" points="168.2837,249.8423,178.2837,253.8423,168.2837,257.8423,172.2837,253.8423" style="stroke:#0A9EFD;stroke-width:1;"/><line style="stroke:#0A9EFD;stroke-width:2;" x1="37.7793" x2="174.2837" y1="253.8423" y2="253.8423"/><text fill="#0A9EFD" font-family="Arial" font-size="13" lengthAdjust="spacing" textLength="83.8398" x="67.1116" y="249.0874">Join a channel</text></g><g class="message" data-participant-1="APP" data-participant-2="APP"><line style="stroke:#0A9EFD;stroke-width:2;" x1="180.2837" x2="222.2837" y1="282.791" y2="282.791"/><line style="stroke:#0A9EFD;stroke-width:2;" x1="222.2837" x2="222.2837" y1="282.791" y2="295.791"/><line style="stroke:#0A9EFD;stroke-width:2;" x1="181.2837" x2="222.2837" y1="295.791" y2="295.791"/><polygon fill="#0A9EFD" points="191.2837,291.791,181.2837,295.791,191.2837,299.791,187.2837,295.791" style="stroke:#0A9EFD;stroke-width:1;"/><text fill="#0A9EFD" font-family="Arial" font-size="13" lengthAdjust="spacing" textLength="266.6777" x="187.2837" y="278.0361">Retrieve authentication token to join a channel</text></g><g class="message" data-participant-1="APP" data-participant-2="API"><polygon fill="#0A9EFD" points="469.1597,320.7397,479.1597,324.7397,469.1597,328.7397,473.1597,324.7397" style="stroke:#0A9EFD;stroke-width:1;"/><line style="stroke:#0A9EFD;stroke-width:2;" x1="180.2837" x2="475.1597" y1="324.7397" y2="324.7397"/><text fill="#0A9EFD" font-family="Arial" font-size="13" lengthAdjust="spacing" textLength="94.6816" x="283.3809" y="319.9849">Join the channel</text></g><path d="M10,346.7397 L151.1162,346.7397 L151.1162,353.6885 L141.1162,363.6885 L10,363.6885 L10,346.7397" fill="#EEEEEE" style="stroke:#0A9EFD;stroke-width:1.5;"/><rect fill="none" height="190.6411" style="stroke:#0A9EFD;stroke-width:2;" width="517.4277" x="10" y="346.7397"/><text fill="#000000" font-family="Arial" font-size="13" lengthAdjust="spacing" textLength="96.1162" x="25" y="359.9336">Play audio effect</text><g class="message" data-participant-1="USR" data-participant-2="APP"><polygon fill="#0A9EFD" points="168.2837,380.6372,178.2837,384.6372,168.2837,388.6372,172.2837,384.6372" style="stroke:#0A9EFD;stroke-width:1;"/><line style="stroke:#0A9EFD;stroke-width:2;" x1="37.7793" x2="174.2837" y1="384.6372" y2="384.6372"/><text fill="#0A9EFD" font-family="Arial" font-size="13" lengthAdjust="spacing" textLength="115.6162" x="51.2234" y="379.8823">Trigger sound effect</text></g><g class="message" data-participant-1="APP" data-participant-2="API"><polygon fill="#0A9EFD" points="469.1597,409.5859,479.1597,413.5859,469.1597,417.5859,473.1597,413.5859" style="stroke:#0A9EFD;stroke-width:1;"/><line style="stroke:#0A9EFD;stroke-width:2;" x1="180.2837" x2="475.1597" y1="413.5859" y2="413.5859"/><text fill="#0A9EFD" font-family="Arial" font-size="13" lengthAdjust="spacing" textLength="60.6963" x="300.3735" y="408.8311">Play effect</text></g><g class="message" data-participant-1="APP" data-participant-2="API"><polygon fill="#0A9EFD" points="469.1597,438.5347,479.1597,442.5347,469.1597,446.5347,473.1597,442.5347" style="stroke:#0A9EFD;stroke-width:1;"/><line style="stroke:#0A9EFD;stroke-width:2;" x1="180.2837" x2="475.1597" y1="442.5347" y2="442.5347"/><text fill="#0A9EFD" font-family="Arial" font-size="13" lengthAdjust="spacing" textLength="144.5298" x="258.4568" y="437.7798">Pause and resume effect</text></g><g class="message" data-participant-1="APP" data-participant-2="API"><polygon fill="#0A9EFD" points="469.1597,467.4834,479.1597,471.4834,469.1597,475.4834,473.1597,471.4834" style="stroke:#0A9EFD;stroke-width:1;"/><line style="stroke:#0A9EFD;stroke-width:2;" x1="180.2837" x2="475.1597" y1="471.4834" y2="471.4834"/><text fill="#0A9EFD" font-family="Arial" font-size="13" lengthAdjust="spacing" textLength="103.3398" x="279.0518" y="466.7285">Set effect position</text></g><g class="message" data-participant-1="APP" data-participant-2="API"><polygon fill="#0A9EFD" points="469.1597,496.4321,479.1597,500.4321,469.1597,504.4321,473.1597,500.4321" style="stroke:#0A9EFD;stroke-width:1;"/><line style="stroke:#0A9EFD;stroke-width:2;" x1="180.2837" x2="475.1597" y1="500.4321" y2="500.4321"/><text fill="#0A9EFD" font-family="Arial" font-size="13" lengthAdjust="spacing" textLength="100.439" x="280.5022" y="495.6772">Set effect volume</text></g><g class="message" data-participant-1="API" data-participant-2="APP"><polygon fill="#0A9EFD" points="191.2837,525.3809,181.2837,529.3809,191.2837,533.3809,187.2837,529.3809" style="stroke:#0A9EFD;stroke-width:1;"/><line style="stroke:#0A9EFD;stroke-width:2;" x1="185.2837" x2="480.1597" y1="529.3809" y2="529.3809"/><text fill="#0A9EFD" font-family="Arial" font-size="13" lengthAdjust="spacing" textLength="136.5889" x="262.4272" y="524.626">On audio effect finished</text></g><path d="M10,551.3809 L129.4263,551.3809 L129.4263,558.3296 L119.4263,568.3296 L10,568.3296 L10,551.3809" fill="#EEEEEE" style="stroke:#0A9EFD;stroke-width:1.5;"/><rect fill="none" height="103.7949" style="stroke:#0A9EFD;stroke-width:2;" width="517.4277" x="10" y="551.3809"/><text fill="#000000" font-family="Arial" font-size="13" lengthAdjust="spacing" textLength="74.4263" x="25" y="564.5747">Audio mixing</text><g class="message" data-participant-1="USR" data-participant-2="APP"><polygon fill="#0A9EFD" points="168.2837,585.2783,178.2837,589.2783,168.2837,593.2783,172.2837,589.2783" style="stroke:#0A9EFD;stroke-width:1;"/><line style="stroke:#0A9EFD;stroke-width:2;" x1="37.7793" x2="174.2837" y1="589.2783" y2="589.2783"/><text fill="#0A9EFD" font-family="Arial" font-size="13" lengthAdjust="spacing" textLength="118.5044" x="49.7793" y="584.5234">Control audio mixing</text></g><g class="message" data-participant-1="APP" data-participant-2="API"><polygon fill="#0A9EFD" points="469.1597,614.2271,479.1597,618.2271,469.1597,622.2271,473.1597,618.2271" style="stroke:#0A9EFD;stroke-width:1;"/><line style="stroke:#0A9EFD;stroke-width:2;" x1="180.2837" x2="475.1597" y1="618.2271" y2="618.2271"/><text fill="#0A9EFD" font-family="Arial" font-size="13" lengthAdjust="spacing" textLength="104.0508" x="278.6963" y="613.4722">Start audio mixing</text></g><g class="message" data-participant-1="APP" data-participant-2="API"><polygon fill="#0A9EFD" points="469.1597,643.1758,479.1597,647.1758,469.1597,651.1758,473.1597,647.1758" style="stroke:#0A9EFD;stroke-width:1;"/><line style="stroke:#0A9EFD;stroke-width:2;" x1="180.2837" x2="475.1597" y1="647.1758" y2="647.1758"/><text fill="#0A9EFD" font-family="Arial" font-size="13" lengthAdjust="spacing" textLength="103.3398" x="279.0518" y="642.4209">Stop audio mixing</text></g><path d="M10,669.1758 L129.4263,669.1758 L129.4263,676.1245 L119.4263,686.1245 L10,686.1245 L10,669.1758" fill="#EEEEEE" style="stroke:#0A9EFD;stroke-width:1.5;"/><rect fill="none" height="103.7949" style="stroke:#0A9EFD;stroke-width:2;" width="517.4277" x="10" y="669.1758"/><text fill="#000000" font-family="Arial" font-size="13" lengthAdjust="spacing" textLength="74.4263" x="25" y="682.3696">Voice effects</text><g class="message" data-participant-1="USR" data-participant-2="APP"><polygon fill="#0A9EFD" points="168.2837,703.0732,178.2837,707.0732,168.2837,711.0732,172.2837,707.0732" style="stroke:#0A9EFD;stroke-width:1;"/><line style="stroke:#0A9EFD;stroke-width:2;" x1="37.7793" x2="174.2837" y1="707.0732" y2="707.0732"/><text fill="#0A9EFD" font-family="Arial" font-size="13" lengthAdjust="spacing" textLength="112.728" x="52.6675" y="702.3184">Apply a voice effect</text></g><g class="message" data-participant-1="APP" data-participant-2="API"><polygon fill="#0A9EFD" points="469.1597,732.022,479.1597,736.022,469.1597,740.022,473.1597,736.022" style="stroke:#0A9EFD;stroke-width:1;"/><line style="stroke:#0A9EFD;stroke-width:2;" x1="180.2837" x2="475.1597" y1="736.022" y2="736.022"/><text fill="#0A9EFD" font-family="Arial" font-size="13" lengthAdjust="spacing" textLength="128.6226" x="266.4104" y="731.2671">Set preset voice effect</text></g><g class="message" data-participant-1="APP" data-participant-2="API"><polygon fill="#0A9EFD" points="469.1597,760.9707,479.1597,764.9707,469.1597,768.9707,473.1597,764.9707" style="stroke:#0A9EFD;stroke-width:1;"/><line style="stroke:#0A9EFD;stroke-width:2;" x1="180.2837" x2="475.1597" y1="764.9707" y2="764.9707"/><text fill="#0A9EFD" font-family="Arial" font-size="13" lengthAdjust="spacing" textLength="134.4053" x="263.519" y="760.2158">Disable the voice effect</text></g><g class="message" data-participant-1="USR" data-participant-2="APP"><polygon fill="#0A9EFD" points="168.2837,796.9194,178.2837,800.9194,168.2837,804.9194,172.2837,800.9194" style="stroke:#0A9EFD;stroke-width:1;"/><line style="stroke:#0A9EFD;stroke-width:2;" x1="37.7793" x2="174.2837" y1="800.9194" y2="800.9194"/><text fill="#0A9EFD" font-family="Arial" font-size="13" lengthAdjust="spacing" textLength="106.2534" x="55.9048" y="796.1646">Leave the channel</text></g><g class="message" data-participant-1="APP" data-participant-2="API"><polygon fill="#0A9EFD" points="469.1597,825.8682,479.1597,829.8682,469.1597,833.8682,473.1597,829.8682" style="stroke:#0A9EFD;stroke-width:1;"/><line style="stroke:#0A9EFD;stroke-width:2;" x1="180.2837" x2="475.1597" y1="829.8682" y2="829.8682"/><text fill="#0A9EFD" font-family="Arial" font-size="13" lengthAdjust="spacing" textLength="106.2534" x="277.595" y="825.1133">Leave the channel</text></g><!--SRC=[VL9BJXj14DttAOhPamCW5CcoMP0Wi6o3b5NKp9J71UEgLdyiSYaEaPEbUj8Equ2p6MdwVUgzwZuZReVK8TXUlFqPdec_KDeFnjWsYeVcFg1lm0QuNw-CUPGNQ7v8yc2TQuopFb9BpdA4PhMPmthnVIJFbak3t87oYsYM_TyfrelLvlRtQr5Slobq5fn_pIuNSEUGOUQSqRz_XtEFDcfeHR8lN75FZ40SekKM8GNY7agYIdd5zd5GPUf8LD_1WJeKLLPEnlHUaeDlGboboGTWeTrPPXmgvnL6JtZ8td67h3Lj9668yepv2qydjDV5LbL74F8kZY6MW_rL0kDsYssi4cqyzJrw29AqJI5ClKVvP-Ss1HnNu36aFNx6MMCin-0aKEvp2Z_8e2OZUdd-5xtZAZPiYIdii9kMcus4FRteXLMzviBHor0S2g6Q7VKj_GyMLwEJgGz2xR5mgCRgInjqsrhdZV6XijEDOJpDML0ONrc-qOeqHfYEkq5xmEdDLpuVqJy0]--></g></svg>