<svg xmlns="http://www.w3.org/2000/svg" xmlns:xlink="http://www.w3.org/1999/xlink" contentStyleType="text/css" data-diagram-type="SEQUENCE" height="791px" preserveAspectRatio="none" style="width:524px;height:791px;" version="1.1" viewBox="0 0 524 791" width="524px" zoomAndPan="magnify"><defs/><g><rect fill="none" height="789.2231" style="stroke:#0A9EFD;stroke-width:1;" width="522.7759" x="0" y="0"/><rect fill="#999999" fill-opacity="0.33333" height="779.2231" style="stroke:#0A9EFD;stroke-width:0.5;" width="83.4482" x="129.9077" y="6"/><text fill="#0A9EFD" font-family="sans-serif" font-size="13" font-weight="bold" lengthAdjust="spacing" textLength="56.3354" x="143.4641" y="19.4951">Your app</text><rect fill="#999999" fill-opacity="0.33333" height="779.2231" style="stroke:#0A9EFD;stroke-width:0.5;" width="80.5361" x="432.2397" y="6"/><text fill="#0A9EFD" font-family="sans-serif" font-size="13" font-weight="bold" lengthAdjust="spacing" textLength="37.5591" x="453.7283" y="19.4951">Agora</text><rect fill="#0A9EFD" fill-opacity="0.06667" height="116.7949" style="stroke:#0A9EFD;stroke-width:2;" width="508.7759" x="10" y="215.9448"/><rect fill="#0A9EFD" fill-opacity="0.06667" height="190.6411" style="stroke:#0A9EFD;stroke-width:2;" width="508.7759" x="10" y="346.7397"/><rect fill="#0A9EFD" fill-opacity="0.06667" height="74.8462" style="stroke:#0A9EFD;stroke-width:2;" width="394.8682" x="123.9077" y="551.3809"/><g><title>User</title><rect fill="#000000" fill-opacity="0.00000" height="615.0259" width="8" x="33.7793" y="86.0986"/><line style="stroke:#0A9EFD;stroke-width:0.5;stroke-dasharray:5.0,5.0;" x1="37" x2="37" y1="86.0986" y2="701.1245"/></g><g><title>RTC SDK</title><rect fill="#000000" fill-opacity="0.00000" height="615.0259" width="8" x="167.6318" y="86.0986"/><line style="stroke:#0A9EFD;stroke-width:0.5;stroke-dasharray:5.0,5.0;" x1="170.9077" x2="170.9077" y1="86.0986" y2="701.1245"/></g><g><title>SDRTN&#174;</title><rect fill="#000000" fill-opacity="0.00000" height="615.0259" width="8" x="468.5078" y="86.0986"/><line style="stroke:#0A9EFD;stroke-width:0.5;stroke-dasharray:5.0,5.0;" x1="472.2397" x2="472.2397" y1="86.0986" y2="701.1245"/></g><g class="participant participant-head" data-participant="USR"><text fill="#0A9EFD" font-family="Arial" font-size="14" lengthAdjust="spacing" textLength="29.5586" x="20" y="83.1318">User</text><ellipse cx="37.7793" cy="16" fill="none" rx="8" ry="8" style="stroke:#0A9EFD;stroke-width:3;"/><path d="M37.7793,24 L37.7793,51 M24.7793,32 L50.7793,32 M37.7793,51 L24.7793,66 M37.7793,51 L50.7793,66" fill="none" style="stroke:#0A9EFD;stroke-width:3;"/></g><g class="participant participant-tail" data-participant="USR"><text fill="#0A9EFD" font-family="Arial" font-size="14" lengthAdjust="spacing" textLength="29.5586" x="20" y="713.2563">User</text><ellipse cx="37.7793" cy="727.2231" fill="none" rx="8" ry="8" style="stroke:#0A9EFD;stroke-width:3;"/><path d="M37.7793,735.2231 L37.7793,762.2231 M24.7793,743.2231 L50.7793,743.2231 M37.7793,762.2231 L24.7793,777.2231 M37.7793,762.2231 L50.7793,777.2231" fill="none" style="stroke:#0A9EFD;stroke-width:3;"/></g><g class="participant participant-head" data-participant="APP"><rect fill="none" height="30.0986" rx="2.5" ry="2.5" style="stroke:#0A9EFD;stroke-width:2;" width="75.4482" x="133.9077" y="55"/><text fill="#0A9EFD" font-family="Arial" font-size="14" lengthAdjust="spacing" textLength="61.4482" x="140.9077" y="75.1318">RTC SDK</text></g><g class="participant participant-tail" data-participant="APP"><rect fill="none" height="30.0986" rx="2.5" ry="2.5" style="stroke:#0A9EFD;stroke-width:2;" width="75.4482" x="133.9077" y="700.1245"/><text fill="#0A9EFD" font-family="Arial" font-size="14" lengthAdjust="spacing" textLength="61.4482" x="140.9077" y="720.2563">RTC SDK</text></g><g class="participant participant-head" data-participant="API"><rect fill="none" height="30.0986" rx="2.5" ry="2.5" style="stroke:#0A9EFD;stroke-width:2;" width="72.5361" x="436.2397" y="55"/><text fill="#0A9EFD" font-family="Arial" font-size="14" lengthAdjust="spacing" textLength="58.5361" x="443.2397" y="75.1318">SDRTN&#174;</text></g><g class="participant participant-tail" data-participant="API"><rect fill="none" height="30.0986" rx="2.5" ry="2.5" style="stroke:#0A9EFD;stroke-width:2;" width="72.5361" x="436.2397" y="700.1245"/><text fill="#0A9EFD" font-family="Arial" font-size="14" lengthAdjust="spacing" textLength="58.5361" x="443.2397" y="720.2563">SDRTN&#174;</text></g><g class="message" data-participant-1="USR" data-participant-2="APP"><polygon fill="#0A9EFD" points="159.6318,113.0474,169.6318,117.0474,159.6318,121.0474,163.6318,117.0474" style="stroke:#0A9EFD;stroke-width:1;"/><line style="stroke:#0A9EFD;stroke-width:2;" x1="37.7793" x2="165.6318" y1="117.0474" y2="117.0474"/><text fill="#0A9EFD" font-family="Arial" font-size="13" lengthAdjust="spacing" textLength="58.5444" x="75.4333" y="112.2925">Open App</text></g><g class="message" data-participant-1="APP" data-participant-2="APP"><line style="stroke:#0A9EFD;stroke-width:2;" x1="171.6318" x2="213.6318" y1="145.9961" y2="145.9961"/><line style="stroke:#0A9EFD;stroke-width:2;" x1="213.6318" x2="213.6318" y1="145.9961" y2="158.9961"/><line style="stroke:#0A9EFD;stroke-width:2;" x1="172.6318" x2="213.6318" y1="158.9961" y2="158.9961"/><polygon fill="#0A9EFD" points="182.6318,154.9961,172.6318,158.9961,182.6318,162.9961,178.6318,158.9961" style="stroke:#0A9EFD;stroke-width:1;"/><text fill="#0A9EFD" font-family="Arial" font-size="13" lengthAdjust="spacing" textLength="286.876" x="178.6318" y="141.2412">Create an Agora Engine instance using RTC SDK</text></g><g class="message" data-participant-1="APP" data-participant-2="APP"><line style="stroke:#0A9EFD;stroke-width:2;" x1="171.6318" x2="213.6318" y1="187.9448" y2="187.9448"/><line style="stroke:#0A9EFD;stroke-width:2;" x1="213.6318" x2="213.6318" y1="187.9448" y2="200.9448"/><line style="stroke:#0A9EFD;stroke-width:2;" x1="172.6318" x2="213.6318" y1="200.9448" y2="200.9448"/><polygon fill="#0A9EFD" points="182.6318,196.9448,172.6318,200.9448,182.6318,204.9448,178.6318,200.9448" style="stroke:#0A9EFD;stroke-width:1;"/><text fill="#0A9EFD" font-family="Arial" font-size="13" lengthAdjust="spacing" textLength="232.0132" x="178.6318" y="183.1899">Enable audio and video in Agora Engine</text></g><path d="M10,215.9448 L78.8481,215.9448 L78.8481,222.8936 L68.8481,232.8936 L10,232.8936 L10,215.9448" fill="#EEEEEE" style="stroke:#0A9EFD;stroke-width:1.5;"/><rect fill="none" height="116.7949" style="stroke:#0A9EFD;stroke-width:2;" width="508.7759" x="10" y="215.9448"/><text fill="#000000" font-family="Arial" font-size="13" lengthAdjust="spacing" textLength="23.8481" x="25" y="229.1387">Join</text><g class="message" data-participant-1="USR" data-participant-2="APP"><polygon fill="#0A9EFD" points="159.6318,249.8423,169.6318,253.8423,159.6318,257.8423,163.6318,253.8423" style="stroke:#0A9EFD;stroke-width:1;"/><line style="stroke:#0A9EFD;stroke-width:2;" x1="37.7793" x2="165.6318" y1="253.8423" y2="253.8423"/><text fill="#0A9EFD" font-family="Arial" font-size="13" lengthAdjust="spacing" textLength="83.8398" x="62.7856" y="249.0874">Join a channel</text></g><g class="message" data-participant-1="APP" data-participant-2="APP"><line style="stroke:#0A9EFD;stroke-width:2;" x1="171.6318" x2="213.6318" y1="282.791" y2="282.791"/><line style="stroke:#0A9EFD;stroke-width:2;" x1="213.6318" x2="213.6318" y1="282.791" y2="295.791"/><line style="stroke:#0A9EFD;stroke-width:2;" x1="172.6318" x2="213.6318" y1="295.791" y2="295.791"/><polygon fill="#0A9EFD" points="182.6318,291.791,172.6318,295.791,182.6318,299.791,178.6318,295.791" style="stroke:#0A9EFD;stroke-width:1;"/><text fill="#0A9EFD" font-family="Arial" font-size="13" lengthAdjust="spacing" textLength="266.6777" x="178.6318" y="278.0361">Retrieve authentication token to join a channel</text></g><g class="message" data-participant-1="APP" data-participant-2="API"><polygon fill="#0A9EFD" points="460.5078,320.7397,470.5078,324.7397,460.5078,328.7397,464.5078,324.7397" style="stroke:#0A9EFD;stroke-width:1;"/><line style="stroke:#0A9EFD;stroke-width:2;" x1="171.6318" x2="466.5078" y1="324.7397" y2="324.7397"/><text fill="#0A9EFD" font-family="Arial" font-size="13" lengthAdjust="spacing" textLength="94.6816" x="274.729" y="319.9849">Join the channel</text></g><path d="M10,346.7397 L129.4263,346.7397 L129.4263,353.6885 L119.4263,363.6885 L10,363.6885 L10,346.7397" fill="#EEEEEE" style="stroke:#0A9EFD;stroke-width:1.5;"/><rect fill="none" height="190.6411" style="stroke:#0A9EFD;stroke-width:2;" width="508.7759" x="10" y="346.7397"/><text fill="#000000" font-family="Arial" font-size="13" lengthAdjust="spacing" textLength="74.4263" x="25" y="359.9336">Audio mixing</text><g class="message" data-participant-1="USR" data-participant-2="APP"><polygon fill="#0A9EFD" points="159.6318,380.6372,169.6318,384.6372,159.6318,388.6372,163.6318,384.6372" style="stroke:#0A9EFD;stroke-width:1;"/><line style="stroke:#0A9EFD;stroke-width:2;" x1="37.7793" x2="165.6318" y1="384.6372" y2="384.6372"/><text fill="#0A9EFD" font-family="Arial" font-size="13" lengthAdjust="spacing" textLength="109.8525" x="49.7793" y="379.8823">Select an audio file</text></g><g class="message" data-participant-1="APP" data-participant-2="API"><polygon fill="#0A9EFD" points="460.5078,409.5859,470.5078,413.5859,460.5078,417.5859,464.5078,413.5859" style="stroke:#0A9EFD;stroke-width:1;"/><line style="stroke:#0A9EFD;stroke-width:2;" x1="171.6318" x2="466.5078" y1="413.5859" y2="413.5859"/><text fill="#0A9EFD" font-family="Arial" font-size="13" lengthAdjust="spacing" textLength="124.2935" x="259.9231" y="408.8311">Process the audio file</text></g><g class="message" data-participant-1="USR" data-participant-2="APP"><polygon fill="#0A9EFD" points="159.6318,438.5347,169.6318,442.5347,159.6318,446.5347,163.6318,442.5347" style="stroke:#0A9EFD;stroke-width:1;"/><line style="stroke:#0A9EFD;stroke-width:2;" x1="37.7793" x2="165.6318" y1="442.5347" y2="442.5347"/><text fill="#0A9EFD" font-family="Arial" font-size="13" lengthAdjust="spacing" textLength="104.0508" x="52.6802" y="437.7798">Start audio mixing</text></g><g class="message" data-participant-1="APP" data-participant-2="API"><polygon fill="#0A9EFD" points="460.5078,467.4834,470.5078,471.4834,460.5078,475.4834,464.5078,471.4834" style="stroke:#0A9EFD;stroke-width:1;"/><line style="stroke:#0A9EFD;stroke-width:2;" x1="171.6318" x2="466.5078" y1="471.4834" y2="471.4834"/><text fill="#0A9EFD" font-family="Arial" font-size="13" lengthAdjust="spacing" textLength="102.6226" x="270.7585" y="466.7285">Play the audio file</text></g><g class="message" data-participant-1="USR" data-participant-2="APP"><polygon fill="#0A9EFD" points="159.6318,496.4321,169.6318,500.4321,159.6318,504.4321,163.6318,500.4321" style="stroke:#0A9EFD;stroke-width:1;"/><line style="stroke:#0A9EFD;stroke-width:2;" x1="37.7793" x2="165.6318" y1="500.4321" y2="500.4321"/><text fill="#0A9EFD" font-family="Arial" font-size="13" lengthAdjust="spacing" textLength="67.9199" x="70.7456" y="495.6772">Stop mixing</text></g><g class="message" data-participant-1="APP" data-participant-2="API"><polygon fill="#0A9EFD" points="460.5078,525.3809,470.5078,529.3809,460.5078,533.3809,464.5078,529.3809" style="stroke:#0A9EFD;stroke-width:1;"/><line style="stroke:#0A9EFD;stroke-width:2;" x1="171.6318" x2="466.5078" y1="529.3809" y2="529.3809"/><text fill="#0A9EFD" font-family="Arial" font-size="13" lengthAdjust="spacing" textLength="104.0762" x="270.0317" y="524.626">Stop the audio file</text></g><path d="M123.9077,551.3809 L283.1084,551.3809 L283.1084,558.3296 L273.1084,568.3296 L123.9077,568.3296 L123.9077,551.3809" fill="#EEEEEE" style="stroke:#0A9EFD;stroke-width:1.5;"/><rect fill="none" height="74.8462" style="stroke:#0A9EFD;stroke-width:2;" width="394.8682" x="123.9077" y="551.3809"/><text fill="#000000" font-family="Arial" font-size="13" lengthAdjust="spacing" textLength="114.2007" x="138.9077" y="564.5747">Change audio route</text><g class="message" data-participant-1="APP" data-participant-2="API"><polygon fill="#0A9EFD" points="460.5078,585.2783,470.5078,589.2783,460.5078,593.2783,464.5078,589.2783" style="stroke:#0A9EFD;stroke-width:1;"/><line style="stroke:#0A9EFD;stroke-width:2;" x1="171.6318" x2="466.5078" y1="589.2783" y2="589.2783"/><text fill="#0A9EFD" font-family="Arial" font-size="13" lengthAdjust="spacing" textLength="130.8188" x="256.6604" y="584.5234">Set default audio route</text></g><g class="message" data-participant-1="APP" data-participant-2="API"><polygon fill="#0A9EFD" points="460.5078,614.2271,470.5078,618.2271,460.5078,622.2271,464.5078,618.2271" style="stroke:#0A9EFD;stroke-width:1;"/><line style="stroke:#0A9EFD;stroke-width:2;" x1="171.6318" x2="466.5078" y1="618.2271" y2="618.2271"/><text fill="#0A9EFD" font-family="Arial" font-size="13" lengthAdjust="spacing" textLength="203.7915" x="220.1741" y="613.4722">Change the audio route temporarily</text></g><g class="message" data-participant-1="USR" data-participant-2="APP"><polygon fill="#0A9EFD" points="159.6318,650.1758,169.6318,654.1758,159.6318,658.1758,163.6318,654.1758" style="stroke:#0A9EFD;stroke-width:1;"/><line style="stroke:#0A9EFD;stroke-width:2;" x1="37.7793" x2="165.6318" y1="654.1758" y2="654.1758"/><text fill="#0A9EFD" font-family="Arial" font-size="13" lengthAdjust="spacing" textLength="106.2534" x="51.5789" y="649.4209">Leave the channel</text></g><g class="message" data-participant-1="APP" data-participant-2="API"><polygon fill="#0A9EFD" points="460.5078,679.1245,470.5078,683.1245,460.5078,687.1245,464.5078,683.1245" style="stroke:#0A9EFD;stroke-width:1;"/><line style="stroke:#0A9EFD;stroke-width:2;" x1="171.6318" x2="466.5078" y1="683.1245" y2="683.1245"/><text fill="#0A9EFD" font-family="Arial" font-size="13" lengthAdjust="spacing" textLength="106.2534" x="268.9431" y="678.3696">Leave the channel</text></g><!--SRC=[VP71Ki8m48RlUOgrTtq03yvqW0FgADF2mPEpj4jP2PjCcZBmKZw4JsPQYZGeNZhJx7xV_flSi1IwAGcmCWxVwmtB7JTRhHGMtZX85ZMv1B26HPufjJHxIDvCum2jJPH5vxbWY-8XoUOZoCTFNNCwcocI4a9_3wMj_uB8nzdyvUkp9wPd8io2suVMSW-lbWHIQrNu-paSEK8VGeTAwuM9L2m4BBL7AGYQcgM2Fb54JWINEf1DoIRm9Uou91F8oAHKvKnZuT6mH6dQ0q0erYX2EZ9dv1tJhdNxDKbO4pqR0Mysr7xXumexxRM1EXMXlOjJYBJBkkLzs2aAavEcmhUtS5ndnPeYxSoPWkgwCmzQ8eSFBz8N-n6HGUFXVzpOlxZk_88Rh3GAQrQdOZZnSUwSF9IqmaRxgpszuZoZQm5FMnlUqR4-70SEqpuJxcXupv7nT_KR]--></g></svg>