<svg xmlns="http://www.w3.org/2000/svg" xmlns:xlink="http://www.w3.org/1999/xlink" contentStyleType="text/css" data-diagram-type="SEQUENCE" height="422px" preserveAspectRatio="none" style="width:677px;height:422px;" version="1.1" viewBox="0 0 677 422" width="677px" zoomAndPan="magnify"><defs/><g><rect fill="none" height="420.1722" style="stroke:#0A9EFD;stroke-width:1;" width="675.1953" x="0" y="0"/><rect fill="#999999" fill-opacity="0.33333" height="410.1722" style="stroke:#0A9EFD;stroke-width:0.5;" width="50.6667" x="169" y="6"/><text fill="#0A9EFD" font-family="sans-serif" font-size="13" font-weight="bold" lengthAdjust="spacing" textLength="25.27" x="181.6983" y="19.4951">App</text><rect fill="#999999" fill-opacity="0.33333" height="410.1722" style="stroke:#0A9EFD;stroke-width:0.5;" width="50.6667" x="377.2725" y="6"/><text fill="#0A9EFD" font-family="sans-serif" font-size="13" font-weight="bold" lengthAdjust="spacing" textLength="27.4473" x="388.8822" y="19.4951">SDK</text><rect fill="#999999" fill-opacity="0.33333" height="410.1722" style="stroke:#0A9EFD;stroke-width:0.5;" width="101.5259" x="569.6694" y="6"/><text fill="#0A9EFD" font-family="sans-serif" font-size="13" font-weight="bold" lengthAdjust="spacing" textLength="95.5259" x="572.6694" y="19.4951">Agora SDRTN&#174;</text><rect fill="#0A9EFD" fill-opacity="0.06667" height="153.6924" style="stroke:#0A9EFD;stroke-width:2;" width="642.7657" x="9" y="113.967"/><g><title>&lt;size:40&gt;&lt;&amp;tablet&gt;</title><rect fill="#000000" fill-opacity="0.00000" height="303.4873" width="8" x="190.3333" y="68.0182"/><line style="stroke:#0A9EFD;stroke-width:0.5;stroke-dasharray:5.0,5.0;" x1="194" x2="194" y1="68.0182" y2="371.5055"/></g><g><title>&lt;size:40&gt;&lt;&amp;layers&gt;</title><rect fill="#000000" fill-opacity="0.00000" height="303.4873" width="8" x="398.6058" y="68.0182"/><line style="stroke:#0A9EFD;stroke-width:0.5;stroke-dasharray:5.0,5.0;" x1="402.2725" x2="402.2725" y1="68.0182" y2="371.5055"/></g><g><title>&lt;size:40&gt;&lt;&amp;cloud&gt;</title><rect fill="#000000" fill-opacity="0.00000" height="303.4873" width="8" x="616.4324" y="68.0182"/><line style="stroke:#0A9EFD;stroke-width:0.5;stroke-dasharray:5.0,5.0;" x1="620.099" x2="620.099" y1="68.0182" y2="371.5055"/></g><g class="participant participant-head" data-participant="APP"><rect fill="none" height="40.6667" rx="2.5" ry="2.5" style="stroke:#0A9EFD;stroke-width:2;" width="42.6667" x="173" y="26.3516"/><path d="M182.1333,33.3516 C181.5333,33.3516 181,33.8849 181,34.4849 L181,58.8516 C181,59.4516 181.5333,59.9849 182.1333,59.9849 L203.1667,59.9849 C203.7667,59.9849 204.3,59.4516 204.3,58.8516 L204.3,34.4849 C204.3,33.8849 203.7667,33.3516 203.1667,33.3516 L182.1333,33.3516 M184.3333,36.6849 L201,36.6849 L201,53.3516 L184.3333,53.3516 L184.3333,36.6849 M192.6667,55.0182 C193.9333,55.0182 194.7667,56.4182 194.1333,57.5182 C193.5,58.6182 191.8667,58.6182 191.2,57.5182 C190.5667,56.4182 191.3667,55.0182 192.6667,55.0182" fill="#0A9EFD"/></g><g class="participant participant-tail" data-participant="APP"><rect fill="none" height="40.6667" rx="2.5" ry="2.5" style="stroke:#0A9EFD;stroke-width:2;" width="42.6667" x="173" y="370.5055"/><path d="M182.1333,377.5055 C181.5333,377.5055 181,378.0389 181,378.6389 L181,403.0055 C181,403.6055 181.5333,404.1389 182.1333,404.1389 L203.1667,404.1389 C203.7667,404.1389 204.3,403.6055 204.3,403.0055 L204.3,378.6389 C204.3,378.0389 203.7667,377.5055 203.1667,377.5055 L182.1333,377.5055 M184.3333,380.8389 L201,380.8389 L201,397.5055 L184.3333,397.5055 L184.3333,380.8389 M192.6667,399.1722 C193.9333,399.1722 194.7667,400.5722 194.1333,401.6722 C193.5,402.7722 191.8667,402.7722 191.2,401.6722 C190.5667,400.5722 191.3667,399.1722 192.6667,399.1722" fill="#0A9EFD"/></g><g class="participant participant-head" data-participant="SDK"><rect fill="none" height="40.6667" rx="2.5" ry="2.5" style="stroke:#0A9EFD;stroke-width:2;" width="42.6667" x="381.2725" y="26.3516"/><path d="M389.2725,33.3516 L389.2725,46.6849 L402.6058,46.6849 L402.6058,33.3516 L389.2725,33.3516 M405.9391,40.0182 L405.9391,50.0182 L395.9391,50.0182 L395.9391,53.3516 L409.2725,53.3516 L409.2725,40.0182 L405.9391,40.0182 M412.6058,46.6849 L412.6058,56.6849 L402.6058,56.6849 L402.6058,60.0182 L415.9391,60.0182 L415.9391,46.6849 L412.6058,46.6849" fill="#0A9EFD"/></g><g class="participant participant-tail" data-participant="SDK"><rect fill="none" height="40.6667" rx="2.5" ry="2.5" style="stroke:#0A9EFD;stroke-width:2;" width="42.6667" x="381.2725" y="370.5055"/><path d="M389.2725,377.5055 L389.2725,390.8389 L402.6058,390.8389 L402.6058,377.5055 L389.2725,377.5055 M405.9391,384.1722 L405.9391,394.1722 L395.9391,394.1722 L395.9391,397.5055 L409.2725,397.5055 L409.2725,384.1722 L405.9391,384.1722 M412.6058,390.8389 L412.6058,400.8389 L402.6058,400.8389 L402.6058,404.1722 L415.9391,404.1722 L415.9391,390.8389 L412.6058,390.8389" fill="#0A9EFD"/></g><g class="participant participant-head" data-participant="RTN"><rect fill="none" height="40.6667" rx="2.5" ry="2.5" style="stroke:#0A9EFD;stroke-width:2;" width="42.6667" x="599.099" y="26.3516"/><path d="M622.099,36.6849 C618.0657,36.6849 614.5324,39.5516 613.7657,43.3516 C610.099,43.3516 607.099,46.3516 607.099,50.0182 C607.099,53.6849 610.099,56.6849 613.7657,56.6849 L628.7657,56.6849 C631.5324,56.6849 633.7657,54.4516 633.7657,51.6849 C633.7657,49.5182 632.3657,47.3849 630.4324,46.6849 L630.4324,45.0182 C630.4324,40.4182 626.699,36.6849 622.099,36.6849" fill="#0A9EFD"/></g><g class="participant participant-tail" data-participant="RTN"><rect fill="none" height="40.6667" rx="2.5" ry="2.5" style="stroke:#0A9EFD;stroke-width:2;" width="42.6667" x="599.099" y="370.5055"/><path d="M622.099,380.8389 C618.0657,380.8389 614.5324,383.7055 613.7657,387.5055 C610.099,387.5055 607.099,390.5055 607.099,394.1722 C607.099,397.8389 610.099,400.8389 613.7657,400.8389 L628.7657,400.8389 C631.5324,400.8389 633.7657,398.6055 633.7657,395.8389 C633.7657,393.6722 632.3657,391.5389 630.4324,390.8389 L630.4324,389.1722 C630.4324,384.5722 626.699,380.8389 622.099,380.8389" fill="#0A9EFD"/></g><g class="message" data-participant-1="APP" data-participant-2="SDK"><polygon fill="#0A9EFD" points="390.6058,94.967,400.6058,98.967,390.6058,102.967,394.6058,98.967" style="stroke:#0A9EFD;stroke-width:1;"/><line style="stroke:#0A9EFD;stroke-width:2;" x1="194.3333" x2="396.6058" y1="98.967" y2="98.967"/><text fill="#0A9EFD" font-family="Arial" font-size="13" lengthAdjust="spacing" textLength="178.5088" x="209.2152" y="94.2121">Create and initialize the engine</text></g><path d="M9,113.967 L192.7471,113.967 L192.7471,120.9157 L182.7471,130.9157 L9,130.9157 L9,113.967" fill="#EEEEEE" style="stroke:#0A9EFD;stroke-width:1.5;"/><rect fill="none" height="153.6924" style="stroke:#0A9EFD;stroke-width:2;" width="642.7657" x="9" y="113.967"/><text fill="#000000" font-family="Arial" font-size="13" lengthAdjust="spacing" textLength="138.7471" x="24" y="127.1608">Custom audio rendering</text><g class="message" data-participant-1="APP" data-participant-2="SDK"><polygon fill="#0A9EFD" points="390.6058,147.8644,400.6058,151.8644,390.6058,155.8644,394.6058,151.8644" style="stroke:#0A9EFD;stroke-width:1;"/><line style="stroke:#0A9EFD;stroke-width:2;" x1="194.3333" x2="396.6058" y1="151.8644" y2="151.8644"/><text fill="#0A9EFD" font-family="Arial" font-size="13" lengthAdjust="spacing" textLength="184.2725" x="206.3333" y="147.1095">Turn on custom audio rendering</text></g><g class="message" data-participant-1="APP" data-participant-2="SDK"><polygon fill="#0A9EFD" points="390.6058,176.8132,400.6058,180.8132,390.6058,184.8132,394.6058,180.8132" style="stroke:#0A9EFD;stroke-width:1;"/><line style="stroke:#0A9EFD;stroke-width:2;" x1="194.3333" x2="396.6058" y1="180.8132" y2="180.8132"/><text fill="#0A9EFD" font-family="Arial" font-size="13" lengthAdjust="spacing" textLength="83.8398" x="256.5496" y="176.0583">Join a channel</text></g><g class="message" data-participant-1="SDK" data-participant-2="RTN"><polygon fill="#0A9EFD" points="608.4324,205.7619,618.4324,209.7619,608.4324,213.7619,612.4324,209.7619" style="stroke:#0A9EFD;stroke-width:1;"/><line style="stroke:#0A9EFD;stroke-width:2;" x1="402.6058" x2="614.4324" y1="209.7619" y2="209.7619"/><text fill="#0A9EFD" font-family="Arial" font-size="13" lengthAdjust="spacing" textLength="157.5552" x="432.7415" y="205.007">Request to join the channel</text></g><g class="message" data-participant-1="APP" data-participant-2="SDK"><polygon fill="#0A9EFD" points="390.6058,245.185,400.6058,249.185,390.6058,253.185,394.6058,249.185" style="stroke:#0A9EFD;stroke-width:1;"/><line style="stroke:#0A9EFD;stroke-width:2;" x1="194.3333" x2="396.6058" y1="249.185" y2="249.185"/><text fill="#0A9EFD" font-family="Arial" font-size="13" lengthAdjust="spacing" textLength="130.0825" x="233.4283" y="244.4301">Pull remote audio data</text></g><path d="M19,222.7619 L19,261.7619 L188,261.7619 L188,232.7619 L178,222.7619 L19,222.7619" fill="none" style="stroke:#0A9EFD;stroke-width:1;"/><path d="M178,222.7619 L178,232.7619 L188,232.7619 L178,222.7619" fill="none" style="stroke:#0A9EFD;stroke-width:1;"/><text fill="#0A9EFD" font-family="Arial" font-size="13" lengthAdjust="spacing" textLength="139.4961" x="34" y="239.9557">You render the obtained</text><text fill="#0A9EFD" font-family="Arial" font-size="13" lengthAdjust="spacing" textLength="109.8525" x="50.6277" y="254.9045">audio data yourself</text><g class="message" data-participant-1="APP" data-participant-2="SDK"><polygon fill="#0A9EFD" points="390.6058,291.6081,400.6058,295.6081,390.6058,299.6081,394.6058,295.6081" style="stroke:#0A9EFD;stroke-width:1;"/><line style="stroke:#0A9EFD;stroke-width:2;" x1="194.3333" x2="396.6058" y1="295.6081" y2="295.6081"/><text fill="#0A9EFD" font-family="Arial" font-size="13" lengthAdjust="spacing" textLength="106.2534" x="245.3429" y="290.8532">Leave the channel</text></g><g class="message" data-participant-1="SDK" data-participant-2="RTN"><polygon fill="#0A9EFD" points="608.4324,320.5568,618.4324,324.5568,608.4324,328.5568,612.4324,324.5568" style="stroke:#0A9EFD;stroke-width:1;"/><line style="stroke:#0A9EFD;stroke-width:2;" x1="402.6058" x2="614.4324" y1="324.5568" y2="324.5568"/><text fill="#0A9EFD" font-family="Arial" font-size="13" lengthAdjust="spacing" textLength="168.397" x="427.3206" y="319.8019">Request to leave the channel</text></g><g class="message" data-participant-1="APP" data-participant-2="SDK"><polygon fill="#0A9EFD" points="390.6058,349.5055,400.6058,353.5055,390.6058,357.5055,394.6058,353.5055" style="stroke:#0A9EFD;stroke-width:1;"/><line style="stroke:#0A9EFD;stroke-width:2;" x1="194.3333" x2="396.6058" y1="353.5055" y2="353.5055"/><text fill="#0A9EFD" font-family="Arial" font-size="13" lengthAdjust="spacing" textLength="109.1226" x="243.9083" y="348.7507">Destroy the engine</text></g><!--SRC=[XP3BJiCm44Nt_eeX2tP5B5X5LQIgNG52KUa62GbDasbgS6U27uZmKNm4NyQaBMfuL2njdtlcZayiLoxL1DY8nuVmPFdCfeqpPYcla4tQDZCj-cWhso97oCR1lb5-SLwCJoCk7SKY0mmmAKj3N8Eczj7RsTNngCEEVDX55VmHdVHTz7w-kFbuFowfdAHwvr3ouD0keqAjEKmzOTJTzCMoZHQTXY6k2OWRosHCuoMrC4qXoWOmrLR0guYyvMOWMYJF80pLV-2bM0Q4QetCv8pUZGejbyESdXE5257WiMVw4b_K8LucvzIxaRxrTaYD4GttPqUhcCETfFtWhKAM4NMH-fu7F7IIV22twlzaOBycVA5la__ivtvX1yLC6I_Ty0y_0G00]--></g></svg>