<svg xmlns="http://www.w3.org/2000/svg" xmlns:xlink="http://www.w3.org/1999/xlink" contentStyleType="text/css" data-diagram-type="SEQUENCE" height="490px" preserveAspectRatio="none" style="width:659px;height:490px;" version="1.1" viewBox="0 0 659 490" width="659px" zoomAndPan="magnify"><defs/><g><rect fill="none" height="488.0697" style="stroke:#0A9EFD;stroke-width:1;" width="657.2798" x="0" y="0"/><rect fill="#999999" fill-opacity="0.33333" height="478.0697" style="stroke:#0A9EFD;stroke-width:0.5;" width="50.6667" x="16" y="6"/><text fill="#0A9EFD" font-family="sans-serif" font-size="13" font-weight="bold" lengthAdjust="spacing" textLength="25.27" x="28.6983" y="19.4951">App</text><rect fill="#999999" fill-opacity="0.33333" height="478.0697" style="stroke:#0A9EFD;stroke-width:0.5;" width="50.6667" x="353.606" y="6"/><text fill="#0A9EFD" font-family="sans-serif" font-size="13" font-weight="bold" lengthAdjust="spacing" textLength="27.4473" x="365.2157" y="19.4951">SDK</text><rect fill="#999999" fill-opacity="0.33333" height="478.0697" style="stroke:#0A9EFD;stroke-width:0.5;" width="101.5259" x="551.7539" y="6"/><text fill="#0A9EFD" font-family="sans-serif" font-size="13" font-weight="bold" lengthAdjust="spacing" textLength="95.5259" x="554.7539" y="19.4951">Agora SDRTN&#174;</text><rect fill="#0A9EFD" fill-opacity="0.06667" height="161.6924" style="stroke:#0A9EFD;stroke-width:2;" width="623.8502" x="10" y="113.967"/><rect fill="#0A9EFD" fill-opacity="0.06667" height="132.7437" style="stroke:#0A9EFD;stroke-width:2;" width="623.8502" x="10" y="289.6593"/><g><title>&lt;size:40&gt;&lt;&amp;tablet&gt;</title><rect fill="#000000" fill-opacity="0.00000" height="371.3848" width="8" x="37.3333" y="68.0182"/><line style="stroke:#0A9EFD;stroke-width:0.5;stroke-dasharray:5.0,5.0;" x1="41" x2="41" y1="68.0182" y2="439.403"/></g><g><title>&lt;size:40&gt;&lt;&amp;layers&gt;</title><rect fill="#000000" fill-opacity="0.00000" height="371.3848" width="8" x="374.9393" y="68.0182"/><line style="stroke:#0A9EFD;stroke-width:0.5;stroke-dasharray:5.0,5.0;" x1="378.606" x2="378.606" y1="68.0182" y2="439.403"/></g><g><title>&lt;size:40&gt;&lt;&amp;cloud&gt;</title><rect fill="#000000" fill-opacity="0.00000" height="371.3848" width="8" x="598.5168" y="68.0182"/><line style="stroke:#0A9EFD;stroke-width:0.5;stroke-dasharray:5.0,5.0;" x1="602.1835" x2="602.1835" y1="68.0182" y2="439.403"/></g><g class="participant participant-head" data-participant="APP"><rect fill="none" height="40.6667" rx="2.5" ry="2.5" style="stroke:#0A9EFD;stroke-width:2;" width="42.6667" x="20" y="26.3516"/><path d="M29.1333,33.3516 C28.5333,33.3516 28,33.8849 28,34.4849 L28,58.8516 C28,59.4516 28.5333,59.9849 29.1333,59.9849 L50.1667,59.9849 C50.7667,59.9849 51.3,59.4516 51.3,58.8516 L51.3,34.4849 C51.3,33.8849 50.7667,33.3516 50.1667,33.3516 L29.1333,33.3516 M31.3333,36.6849 L48,36.6849 L48,53.3516 L31.3333,53.3516 L31.3333,36.6849 M39.6667,55.0182 C40.9333,55.0182 41.7667,56.4182 41.1333,57.5182 C40.5,58.6182 38.8667,58.6182 38.2,57.5182 C37.5667,56.4182 38.3667,55.0182 39.6667,55.0182" fill="#0A9EFD"/></g><g class="participant participant-tail" data-participant="APP"><rect fill="none" height="40.6667" rx="2.5" ry="2.5" style="stroke:#0A9EFD;stroke-width:2;" width="42.6667" x="20" y="438.403"/><path d="M29.1333,445.403 C28.5333,445.403 28,445.9363 28,446.5363 L28,470.903 C28,471.503 28.5333,472.0363 29.1333,472.0363 L50.1667,472.0363 C50.7667,472.0363 51.3,471.503 51.3,470.903 L51.3,446.5363 C51.3,445.9363 50.7667,445.403 50.1667,445.403 L29.1333,445.403 M31.3333,448.7363 L48,448.7363 L48,465.403 L31.3333,465.403 L31.3333,448.7363 M39.6667,467.0697 C40.9333,467.0697 41.7667,468.4697 41.1333,469.5697 C40.5,470.6697 38.8667,470.6697 38.2,469.5697 C37.5667,468.4697 38.3667,467.0697 39.6667,467.0697" fill="#0A9EFD"/></g><g class="participant participant-head" data-participant="SDK"><rect fill="none" height="40.6667" rx="2.5" ry="2.5" style="stroke:#0A9EFD;stroke-width:2;" width="42.6667" x="357.606" y="26.3516"/><path d="M365.606,33.3516 L365.606,46.6849 L378.9393,46.6849 L378.9393,33.3516 L365.606,33.3516 M382.2726,40.0182 L382.2726,50.0182 L372.2726,50.0182 L372.2726,53.3516 L385.606,53.3516 L385.606,40.0182 L382.2726,40.0182 M388.9393,46.6849 L388.9393,56.6849 L378.9393,56.6849 L378.9393,60.0182 L392.2726,60.0182 L392.2726,46.6849 L388.9393,46.6849" fill="#0A9EFD"/></g><g class="participant participant-tail" data-participant="SDK"><rect fill="none" height="40.6667" rx="2.5" ry="2.5" style="stroke:#0A9EFD;stroke-width:2;" width="42.6667" x="357.606" y="438.403"/><path d="M365.606,445.403 L365.606,458.7363 L378.9393,458.7363 L378.9393,445.403 L365.606,445.403 M382.2726,452.0697 L382.2726,462.0697 L372.2726,462.0697 L372.2726,465.403 L385.606,465.403 L385.606,452.0697 L382.2726,452.0697 M388.9393,458.7363 L388.9393,468.7363 L378.9393,468.7363 L378.9393,472.0697 L392.2726,472.0697 L392.2726,458.7363 L388.9393,458.7363" fill="#0A9EFD"/></g><g class="participant participant-head" data-participant="RTN"><rect fill="none" height="40.6667" rx="2.5" ry="2.5" style="stroke:#0A9EFD;stroke-width:2;" width="42.6667" x="581.1835" y="26.3516"/><path d="M604.1835,36.6849 C600.1502,36.6849 596.6168,39.5516 595.8502,43.3516 C592.1835,43.3516 589.1835,46.3516 589.1835,50.0182 C589.1835,53.6849 592.1835,56.6849 595.8502,56.6849 L610.8502,56.6849 C613.6168,56.6849 615.8502,54.4516 615.8502,51.6849 C615.8502,49.5182 614.4502,47.3849 612.5168,46.6849 L612.5168,45.0182 C612.5168,40.4182 608.7835,36.6849 604.1835,36.6849" fill="#0A9EFD"/></g><g class="participant participant-tail" data-participant="RTN"><rect fill="none" height="40.6667" rx="2.5" ry="2.5" style="stroke:#0A9EFD;stroke-width:2;" width="42.6667" x="581.1835" y="438.403"/><path d="M604.1835,448.7363 C600.1502,448.7363 596.6168,451.603 595.8502,455.403 C592.1835,455.403 589.1835,458.403 589.1835,462.0697 C589.1835,465.7363 592.1835,468.7363 595.8502,468.7363 L610.8502,468.7363 C613.6168,468.7363 615.8502,466.503 615.8502,463.7363 C615.8502,461.5697 614.4502,459.4363 612.5168,458.7363 L612.5168,457.0697 C612.5168,452.4697 608.7835,448.7363 604.1835,448.7363" fill="#0A9EFD"/></g><g class="message" data-participant-1="APP" data-participant-2="SDK"><polygon fill="#0A9EFD" points="366.9393,94.967,376.9393,98.967,366.9393,102.967,370.9393,98.967" style="stroke:#0A9EFD;stroke-width:1;"/><line style="stroke:#0A9EFD;stroke-width:2;" x1="41.3333" x2="372.9393" y1="98.967" y2="98.967"/><text fill="#0A9EFD" font-family="Arial" font-size="13" lengthAdjust="spacing" textLength="178.5088" x="120.8819" y="94.2121">Create and initialize the engine</text></g><path d="M10,113.967 L182.1816,113.967 L182.1816,120.9157 L172.1816,130.9157 L10,130.9157 L10,113.967" fill="#EEEEEE" style="stroke:#0A9EFD;stroke-width:1.5;"/><rect fill="none" height="161.6924" style="stroke:#0A9EFD;stroke-width:2;" width="623.8502" x="10" y="113.967"/><text fill="#000000" font-family="Arial" font-size="13" lengthAdjust="spacing" textLength="127.1816" x="25" y="127.1608">Custom audio capture</text><g class="message" data-participant-1="APP" data-participant-2="SDK"><polygon fill="#0A9EFD" points="366.9393,147.8644,376.9393,151.8644,366.9393,155.8644,370.9393,151.8644" style="stroke:#0A9EFD;stroke-width:1;"/><line style="stroke:#0A9EFD;stroke-width:2;" x1="41.3333" x2="372.9393" y1="151.8644" y2="151.8644"/><text fill="#0A9EFD" font-family="Arial" font-size="13" lengthAdjust="spacing" textLength="162.5762" x="128.8482" y="147.1095">Create a custom audio track</text></g><g class="message" data-participant-1="APP" data-participant-2="SDK"><polygon fill="#0A9EFD" points="366.9393,176.8132,376.9393,180.8132,366.9393,184.8132,370.9393,180.8132" style="stroke:#0A9EFD;stroke-width:1;"/><line style="stroke:#0A9EFD;stroke-width:2;" x1="41.3333" x2="372.9393" y1="180.8132" y2="180.8132"/><text fill="#0A9EFD" font-family="Arial" font-size="13" lengthAdjust="spacing" textLength="83.8398" x="168.2164" y="176.0583">Join a channel</text></g><g class="message" data-participant-1="SDK" data-participant-2="RTN"><polygon fill="#0A9EFD" points="590.5168,205.7619,600.5168,209.7619,590.5168,213.7619,594.5168,209.7619" style="stroke:#0A9EFD;stroke-width:1;"/><line style="stroke:#0A9EFD;stroke-width:2;" x1="378.9393" x2="596.5168" y1="209.7619" y2="209.7619"/><text fill="#0A9EFD" font-family="Arial" font-size="13" lengthAdjust="spacing" textLength="157.5552" x="411.9505" y="205.007">Request to join the channel</text></g><g class="message" data-participant-1="SDK" data-participant-2="RTN"><polygon fill="#0A9EFD" points="590.5168,234.7106,600.5168,238.7106,590.5168,242.7106,594.5168,238.7106" style="stroke:#0A9EFD;stroke-width:1;"/><line style="stroke:#0A9EFD;stroke-width:2;" x1="378.9393" x2="596.5168" y1="238.7106" y2="238.7106"/><text fill="#0A9EFD" font-family="Arial" font-size="13" lengthAdjust="spacing" textLength="174.1479" x="403.6541" y="233.9557">Pubish the custom audio track</text></g><g class="message" data-participant-1="APP" data-participant-2="SDK"><polygon fill="#0A9EFD" points="366.9393,263.6593,376.9393,267.6593,366.9393,271.6593,370.9393,267.6593" style="stroke:#0A9EFD;stroke-width:1;"/><line style="stroke:#0A9EFD;stroke-width:2;" x1="41.3333" x2="372.9393" y1="267.6593" y2="267.6593"/><text fill="#0A9EFD" font-family="Arial" font-size="13" lengthAdjust="spacing" textLength="313.606" x="53.3333" y="262.9045">Push audio frames to SDK through custom audio track</text></g><path d="M10,289.6593 L167.0298,289.6593 L167.0298,296.6081 L157.0298,306.6081 L10,306.6081 L10,289.6593" fill="#EEEEEE" style="stroke:#0A9EFD;stroke-width:1.5;"/><rect fill="none" height="132.7437" style="stroke:#0A9EFD;stroke-width:2;" width="623.8502" x="10" y="289.6593"/><text fill="#000000" font-family="Arial" font-size="13" lengthAdjust="spacing" textLength="112.0298" x="25" y="302.8532">Clean up and leave</text><g class="message" data-participant-1="APP" data-participant-2="SDK"><polygon fill="#0A9EFD" points="366.9393,323.5568,376.9393,327.5568,366.9393,331.5568,370.9393,327.5568" style="stroke:#0A9EFD;stroke-width:1;"/><line style="stroke:#0A9EFD;stroke-width:2;" x1="41.3333" x2="372.9393" y1="327.5568" y2="327.5568"/><text fill="#0A9EFD" font-family="Arial" font-size="13" lengthAdjust="spacing" textLength="157.5044" x="131.3841" y="322.8019">Destroy custom audio track</text></g><g class="message" data-participant-1="APP" data-participant-2="SDK"><polygon fill="#0A9EFD" points="366.9393,352.5055,376.9393,356.5055,366.9393,360.5055,370.9393,356.5055" style="stroke:#0A9EFD;stroke-width:1;"/><line style="stroke:#0A9EFD;stroke-width:2;" x1="41.3333" x2="372.9393" y1="356.5055" y2="356.5055"/><text fill="#0A9EFD" font-family="Arial" font-size="13" lengthAdjust="spacing" textLength="106.2534" x="157.0096" y="351.7507">Leave the channel</text></g><g class="message" data-participant-1="SDK" data-participant-2="RTN"><polygon fill="#0A9EFD" points="590.5168,381.4543,600.5168,385.4543,590.5168,389.4543,594.5168,385.4543" style="stroke:#0A9EFD;stroke-width:1;"/><line style="stroke:#0A9EFD;stroke-width:2;" x1="378.9393" x2="596.5168" y1="385.4543" y2="385.4543"/><text fill="#0A9EFD" font-family="Arial" font-size="13" lengthAdjust="spacing" textLength="168.397" x="406.5296" y="380.6994">Request to leave the channel</text></g><g class="message" data-participant-1="APP" data-participant-2="SDK"><polygon fill="#0A9EFD" points="366.9393,410.403,376.9393,414.403,366.9393,418.403,370.9393,414.403" style="stroke:#0A9EFD;stroke-width:1;"/><line style="stroke:#0A9EFD;stroke-width:2;" x1="41.3333" x2="372.9393" y1="414.403" y2="414.403"/><text fill="#0A9EFD" font-family="Arial" font-size="13" lengthAdjust="spacing" textLength="109.1226" x="155.575" y="409.6481">Destroy the engine</text></g><!--SRC=[VP5DJiCm48NtFiMG1RiW5gogAbBKhW2XgB17qsH8XZfsy0-Y78f3S3B616YWBJlByxqtxzadR6eT6m9ihSDxls5pnh7NIgtj2sJbC6HgG1UuvW5DW6pk-PLc5-V5_3JWMbCeCa0FPLKfCWs8wajwkxmwBjMu9UT7gO1_f6NA8lUhkvltj-CcjRQn6Js4t7b8bhmGrnai766GRZ9Xmu5HYnX2Hq2cPKDAjSx60HRH1zi3neOjr3Y4wEY03THJBZYiDnFgqh99J8V6a5PobnUIQmOhUeha0mGBZub9-_UfAgxPT-Fmu1h82_XSL4NXnk63mvvySfQ9QALDsntIo-FybDM41kIGdaNEp_JBVIbHdTt-t_KwoOuKcTJLUzZEudlFv3TIo0y0]--></g></svg>