<svg xmlns="http://www.w3.org/2000/svg" xmlns:xlink="http://www.w3.org/1999/xlink" contentStyleType="text/css" data-diagram-type="SEQUENCE" height="546px" preserveAspectRatio="none" style="width:597px;height:546px;" version="1.1" viewBox="0 0 597 546" width="597px" zoomAndPan="magnify"><defs/><g><rect fill="none" height="544.9671" style="stroke:#0A9EFD;stroke-width:1;" width="595.6821" x="0" y="0"/><rect fill="#999999" fill-opacity="0.33333" height="534.9671" style="stroke:#0A9EFD;stroke-width:0.5;" width="50.6667" x="16" y="6"/><text fill="#0A9EFD" font-family="sans-serif" font-size="13" font-weight="bold" lengthAdjust="spacing" textLength="25.27" x="28.6983" y="19.4951">App</text><rect fill="#999999" fill-opacity="0.33333" height="534.9671" style="stroke:#0A9EFD;stroke-width:0.5;" width="50.6667" x="309.5342" y="6"/><text fill="#0A9EFD" font-family="sans-serif" font-size="13" font-weight="bold" lengthAdjust="spacing" textLength="27.4473" x="321.1439" y="19.4951">SDK</text><rect fill="#999999" fill-opacity="0.33333" height="534.9671" style="stroke:#0A9EFD;stroke-width:0.5;" width="96.2764" x="495.4058" y="6"/><text fill="#0A9EFD" font-family="sans-serif" font-size="13" font-weight="bold" lengthAdjust="spacing" textLength="90.2764" x="498.4058" y="19.4951">Agora SD-RTN</text><rect fill="#0A9EFD" fill-opacity="0.06667" height="74.8462" style="stroke:#0A9EFD;stroke-width:2;" width="564.8773" x="10" y="142.9157"/><rect fill="#0A9EFD" fill-opacity="0.06667" height="131.7437" style="stroke:#0A9EFD;stroke-width:2;" width="564.8773" x="10" y="231.7619"/><g><title>&lt;size:40&gt;&lt;&amp;tablet&gt;</title><rect fill="#000000" fill-opacity="0.00000" height="428.2822" width="8" x="37.3333" y="68.0182"/><line style="stroke:#0A9EFD;stroke-width:0.5;stroke-dasharray:5.0,5.0;" x1="41" x2="41" y1="68.0182" y2="496.3005"/></g><g><title>&lt;size:40&gt;&lt;&amp;layers&gt;</title><rect fill="#000000" fill-opacity="0.00000" height="428.2822" width="8" x="330.8675" y="68.0182"/><line style="stroke:#0A9EFD;stroke-width:0.5;stroke-dasharray:5.0,5.0;" x1="334.5342" x2="334.5342" y1="68.0182" y2="496.3005"/></g><g><title>&lt;size:40&gt;&lt;&amp;cloud&gt;</title><rect fill="#000000" fill-opacity="0.00000" height="428.2822" width="8" x="539.5439" y="68.0182"/><line style="stroke:#0A9EFD;stroke-width:0.5;stroke-dasharray:5.0,5.0;" x1="543.2106" x2="543.2106" y1="68.0182" y2="496.3005"/></g><g class="participant participant-head" data-participant="APP"><rect fill="none" height="40.6667" rx="2.5" ry="2.5" style="stroke:#0A9EFD;stroke-width:2;" width="42.6667" x="20" y="26.3516"/><path d="M29.1333,33.3516 C28.5333,33.3516 28,33.8849 28,34.4849 L28,58.8516 C28,59.4516 28.5333,59.9849 29.1333,59.9849 L50.1667,59.9849 C50.7667,59.9849 51.3,59.4516 51.3,58.8516 L51.3,34.4849 C51.3,33.8849 50.7667,33.3516 50.1667,33.3516 L29.1333,33.3516 M31.3333,36.6849 L48,36.6849 L48,53.3516 L31.3333,53.3516 L31.3333,36.6849 M39.6667,55.0182 C40.9333,55.0182 41.7667,56.4182 41.1333,57.5182 C40.5,58.6182 38.8667,58.6182 38.2,57.5182 C37.5667,56.4182 38.3667,55.0182 39.6667,55.0182" fill="#0A9EFD"/></g><g class="participant participant-tail" data-participant="APP"><rect fill="none" height="40.6667" rx="2.5" ry="2.5" style="stroke:#0A9EFD;stroke-width:2;" width="42.6667" x="20" y="495.3005"/><path d="M29.1333,502.3005 C28.5333,502.3005 28,502.8338 28,503.4338 L28,527.8005 C28,528.4005 28.5333,528.9338 29.1333,528.9338 L50.1667,528.9338 C50.7667,528.9338 51.3,528.4005 51.3,527.8005 L51.3,503.4338 C51.3,502.8338 50.7667,502.3005 50.1667,502.3005 L29.1333,502.3005 M31.3333,505.6338 L48,505.6338 L48,522.3005 L31.3333,522.3005 L31.3333,505.6338 M39.6667,523.9671 C40.9333,523.9671 41.7667,525.3671 41.1333,526.4671 C40.5,527.5671 38.8667,527.5671 38.2,526.4671 C37.5667,525.3671 38.3667,523.9671 39.6667,523.9671" fill="#0A9EFD"/></g><g class="participant participant-head" data-participant="SDK"><rect fill="none" height="40.6667" rx="2.5" ry="2.5" style="stroke:#0A9EFD;stroke-width:2;" width="42.6667" x="313.5342" y="26.3516"/><path d="M321.5342,33.3516 L321.5342,46.6849 L334.8675,46.6849 L334.8675,33.3516 L321.5342,33.3516 M338.2008,40.0182 L338.2008,50.0182 L328.2008,50.0182 L328.2008,53.3516 L341.5342,53.3516 L341.5342,40.0182 L338.2008,40.0182 M344.8675,46.6849 L344.8675,56.6849 L334.8675,56.6849 L334.8675,60.0182 L348.2008,60.0182 L348.2008,46.6849 L344.8675,46.6849" fill="#0A9EFD"/></g><g class="participant participant-tail" data-participant="SDK"><rect fill="none" height="40.6667" rx="2.5" ry="2.5" style="stroke:#0A9EFD;stroke-width:2;" width="42.6667" x="313.5342" y="495.3005"/><path d="M321.5342,502.3005 L321.5342,515.6338 L334.8675,515.6338 L334.8675,502.3005 L321.5342,502.3005 M338.2008,508.9671 L338.2008,518.9671 L328.2008,518.9671 L328.2008,522.3005 L341.5342,522.3005 L341.5342,508.9671 L338.2008,508.9671 M344.8675,515.6338 L344.8675,525.6338 L334.8675,525.6338 L334.8675,528.9671 L348.2008,528.9671 L348.2008,515.6338 L344.8675,515.6338" fill="#0A9EFD"/></g><g class="participant participant-head" data-participant="RTN"><rect fill="none" height="40.6667" rx="2.5" ry="2.5" style="stroke:#0A9EFD;stroke-width:2;" width="42.6667" x="522.2106" y="26.3516"/><path d="M545.2106,36.6849 C541.1773,36.6849 537.6439,39.5516 536.8773,43.3516 C533.2106,43.3516 530.2106,46.3516 530.2106,50.0182 C530.2106,53.6849 533.2106,56.6849 536.8773,56.6849 L551.8773,56.6849 C554.6439,56.6849 556.8773,54.4516 556.8773,51.6849 C556.8773,49.5182 555.4773,47.3849 553.5439,46.6849 L553.5439,45.0182 C553.5439,40.4182 549.8106,36.6849 545.2106,36.6849" fill="#0A9EFD"/></g><g class="participant participant-tail" data-participant="RTN"><rect fill="none" height="40.6667" rx="2.5" ry="2.5" style="stroke:#0A9EFD;stroke-width:2;" width="42.6667" x="522.2106" y="495.3005"/><path d="M545.2106,505.6338 C541.1773,505.6338 537.6439,508.5005 536.8773,512.3005 C533.2106,512.3005 530.2106,515.3005 530.2106,518.9671 C530.2106,522.6338 533.2106,525.6338 536.8773,525.6338 L551.8773,525.6338 C554.6439,525.6338 556.8773,523.4005 556.8773,520.6338 C556.8773,518.4671 555.4773,516.3338 553.5439,515.6338 L553.5439,513.9671 C553.5439,509.3671 549.8106,505.6338 545.2106,505.6338" fill="#0A9EFD"/></g><g class="message" data-participant-1="APP" data-participant-2="SDK"><polygon fill="#0A9EFD" points="322.8675,94.967,332.8675,98.967,322.8675,102.967,326.8675,98.967" style="stroke:#0A9EFD;stroke-width:1;"/><line style="stroke:#0A9EFD;stroke-width:2;" x1="41.3333" x2="328.8675" y1="98.967" y2="98.967"/><text fill="#0A9EFD" font-family="Arial" font-size="13" lengthAdjust="spacing" textLength="178.5088" x="98.846" y="94.2121">Create and initialize the engine</text></g><g class="message" data-participant-1="APP" data-participant-2="SDK"><polygon fill="#0A9EFD" points="322.8675,123.9157,332.8675,127.9157,322.8675,131.9157,326.8675,127.9157" style="stroke:#0A9EFD;stroke-width:1;"/><line style="stroke:#0A9EFD;stroke-width:2;" x1="41.3333" x2="328.8675" y1="127.9157" y2="127.9157"/><text fill="#0A9EFD" font-family="Arial" font-size="13" lengthAdjust="spacing" textLength="186.4497" x="94.8756" y="123.1608">Set up the external video source</text></g><path d="M10,142.9157 L134.498,142.9157 L134.498,149.8644 L124.498,159.8644 L10,159.8644 L10,142.9157" fill="#EEEEEE" style="stroke:#0A9EFD;stroke-width:1.5;"/><rect fill="none" height="74.8462" style="stroke:#0A9EFD;stroke-width:2;" width="564.8773" x="10" y="142.9157"/><text fill="#000000" font-family="Arial" font-size="13" lengthAdjust="spacing" textLength="79.498" x="25" y="156.1095">Join channels</text><g class="message" data-participant-1="APP" data-participant-2="SDK"><polygon fill="#0A9EFD" points="322.8675,176.8132,332.8675,180.8132,322.8675,184.8132,326.8675,180.8132" style="stroke:#0A9EFD;stroke-width:1;"/><line style="stroke:#0A9EFD;stroke-width:2;" x1="41.3333" x2="328.8675" y1="180.8132" y2="180.8132"/><text fill="#0A9EFD" font-family="Arial" font-size="13" lengthAdjust="spacing" textLength="88.1563" x="144.0223" y="176.0583">Join channel(s)</text></g><g class="message" data-participant-1="SDK" data-participant-2="RTN"><polygon fill="#0A9EFD" points="531.5439,205.7619,541.5439,209.7619,531.5439,213.7619,535.5439,209.7619" style="stroke:#0A9EFD;stroke-width:1;"/><line style="stroke:#0A9EFD;stroke-width:2;" x1="334.8675" x2="537.5439" y1="209.7619" y2="209.7619"/><text fill="#0A9EFD" font-family="Arial" font-size="13" lengthAdjust="spacing" textLength="151.0298" x="363.6908" y="205.007">Request to join channel(s)</text></g><path d="M10,231.7619 L162.6626,231.7619 L162.6626,238.7106 L152.6626,248.7106 L10,248.7106 L10,231.7619" fill="#EEEEEE" style="stroke:#0A9EFD;stroke-width:1.5;"/><rect fill="none" height="131.7437" style="stroke:#0A9EFD;stroke-width:2;" width="564.8773" x="10" y="231.7619"/><text fill="#000000" font-family="Arial" font-size="13" lengthAdjust="spacing" textLength="107.6626" x="25" y="244.9557">Push video frames</text><g class="message" data-participant-1="APP" data-participant-2="APP"><line style="stroke:#0A9EFD;stroke-width:2;" x1="41.3333" x2="83.3333" y1="284.6081" y2="284.6081"/><line style="stroke:#0A9EFD;stroke-width:2;" x1="83.3333" x2="83.3333" y1="284.6081" y2="297.6081"/><line style="stroke:#0A9EFD;stroke-width:2;" x1="42.3333" x2="83.3333" y1="297.6081" y2="297.6081"/><polygon fill="#0A9EFD" points="52.3333,293.6081,42.3333,297.6081,52.3333,301.6081,48.3333,297.6081" style="stroke:#0A9EFD;stroke-width:1;"/><text fill="#0A9EFD" font-family="Arial" font-size="13" lengthAdjust="spacing" textLength="165.5024" x="55.9061" y="264.9045">Load the video data from the</text><text fill="#0A9EFD" font-family="Arial" font-size="13" lengthAdjust="spacing" textLength="184.2598" x="48.3333" y="279.8532">local video file into video frames</text></g><g class="message" data-participant-1="APP" data-participant-2="SDK"><polygon fill="#0A9EFD" points="322.8675,322.5568,332.8675,326.5568,322.8675,330.5568,326.8675,326.5568" style="stroke:#0A9EFD;stroke-width:1;"/><line style="stroke:#0A9EFD;stroke-width:2;" x1="41.3333" x2="328.8675" y1="326.5568" y2="326.5568"/><text fill="#0A9EFD" font-family="Arial" font-size="13" lengthAdjust="spacing" textLength="223.2788" x="76.461" y="321.8019">Triggers a thread to push video frames</text></g><g class="message" data-participant-1="SDK" data-participant-2="RTN"><polygon fill="#0A9EFD" points="531.5439,351.5055,541.5439,355.5055,531.5439,359.5055,535.5439,355.5055" style="stroke:#0A9EFD;stroke-width:1;"/><line style="stroke:#0A9EFD;stroke-width:2;" x1="334.8675" x2="537.5439" y1="355.5055" y2="355.5055"/><text fill="#0A9EFD" font-family="Arial" font-size="13" lengthAdjust="spacing" textLength="152.458" x="362.9767" y="350.7507">Push video frames to SDK</text></g><g class="message" data-participant-1="APP" data-participant-2="SDK"><polygon fill="#0A9EFD" points="322.8675,387.4543,332.8675,391.4543,322.8675,395.4543,326.8675,391.4543" style="stroke:#0A9EFD;stroke-width:1;"/><line style="stroke:#0A9EFD;stroke-width:2;" x1="41.3333" x2="328.8675" y1="391.4543" y2="391.4543"/><text fill="#0A9EFD" font-family="Arial" font-size="13" lengthAdjust="spacing" textLength="269.5342" x="53.3333" y="386.6994">Terminate the thread that pushes video frames</text></g><g class="message" data-participant-1="APP" data-participant-2="SDK"><polygon fill="#0A9EFD" points="322.8675,416.403,332.8675,420.403,322.8675,424.403,326.8675,420.403" style="stroke:#0A9EFD;stroke-width:1;"/><line style="stroke:#0A9EFD;stroke-width:2;" x1="41.3333" x2="328.8675" y1="420.403" y2="420.403"/><text fill="#0A9EFD" font-family="Arial" font-size="13" lengthAdjust="spacing" textLength="99.728" x="138.2364" y="415.6481">Leave channel(s)</text></g><g class="message" data-participant-1="SDK" data-participant-2="RTN"><polygon fill="#0A9EFD" points="531.5439,445.3517,541.5439,449.3517,531.5439,453.3517,535.5439,449.3517" style="stroke:#0A9EFD;stroke-width:1;"/><line style="stroke:#0A9EFD;stroke-width:2;" x1="334.8675" x2="537.5439" y1="449.3517" y2="449.3517"/><text fill="#0A9EFD" font-family="Arial" font-size="13" lengthAdjust="spacing" textLength="161.8716" x="358.2699" y="444.5968">Request to leave channel(s)</text></g><g class="message" data-participant-1="APP" data-participant-2="SDK"><polygon fill="#0A9EFD" points="322.8675,474.3005,332.8675,478.3005,322.8675,482.3005,326.8675,478.3005" style="stroke:#0A9EFD;stroke-width:1;"/><line style="stroke:#0A9EFD;stroke-width:2;" x1="41.3333" x2="328.8675" y1="478.3005" y2="478.3005"/><text fill="#0A9EFD" font-family="Arial" font-size="13" lengthAdjust="spacing" textLength="109.1226" x="133.5391" y="473.5456">Destroy the engine</text></g><!--SRC=[XP5DJy9048Rl_HLZ3qOF60-U6jA4o4c98S3Hn0pjq8vkT-j-4F3NE_r0AeHmsSFC-xxppEmDwqo5d00BO_73VR5-u52fA5gR7SIJkewZ6gtdZ6lK7kAnunzAdXxJyQt7jIAVne0E9lDvH3e7SVNMvVJribNXdgphh28yiKuQ5gcF5gktoncPCY7l8aHtZ12KKIgX2JnRGY-hIOSrUqObPl0b0Uc2DGsaI_8GwgwtysGrAjXoJWQS2JQZA2gi4S6BOGrPYLgJSWF_i7xdxYCfZbB1Ic11tu6S1s_WyqGao8VSUN1bFt1ZiQ8-Mvu4PWRpbgphv-XHHAPgQ-zQcUmFTiEAP5UPTPxLSgui5uMS7b3SSfwyuQhFXX_npy0QG_zbmrklo5QictCtL8Vi4dsRBhP_-GFZZ71BLq-dJbN7WAb8hDaF__KN]--></g></svg>