<svg xmlns="http://www.w3.org/2000/svg" xmlns:xlink="http://www.w3.org/1999/xlink" contentStyleType="text/css" data-diagram-type="SEQUENCE" height="476px" preserveAspectRatio="none" style="width:516px;height:476px;" version="1.1" viewBox="0 0 516 476" width="516px" zoomAndPan="magnify"><defs/><g><rect fill="none" height="474.0697" style="stroke:#0A9EFD;stroke-width:1;" width="514.9146" x="0" y="0"/><rect fill="#999999" fill-opacity="0.33333" height="464.0697" style="stroke:#0A9EFD;stroke-width:0.5;" width="50.6667" x="16" y="6"/><text fill="#0A9EFD" font-family="sans-serif" font-size="13" font-weight="bold" lengthAdjust="spacing" textLength="25.27" x="28.6983" y="19.4951">App</text><rect fill="#999999" fill-opacity="0.33333" height="464.0697" style="stroke:#0A9EFD;stroke-width:0.5;" width="50.6667" x="223.5171" y="6"/><text fill="#0A9EFD" font-family="sans-serif" font-size="13" font-weight="bold" lengthAdjust="spacing" textLength="27.4473" x="235.1268" y="19.4951">SDK</text><rect fill="#999999" fill-opacity="0.33333" height="464.0697" style="stroke:#0A9EFD;stroke-width:0.5;" width="101.5259" x="409.3887" y="6"/><text fill="#0A9EFD" font-family="sans-serif" font-size="13" font-weight="bold" lengthAdjust="spacing" textLength="95.5259" x="412.3887" y="19.4951">Agora SDRTN&#174;</text><rect fill="#0A9EFD" fill-opacity="0.06667" height="74.8462" style="stroke:#0A9EFD;stroke-width:2;" width="481.4849" x="10" y="142.9157"/><rect fill="#0A9EFD" fill-opacity="0.06667" height="60.8462" style="stroke:#0A9EFD;stroke-width:2;" width="270.1838" x="10" y="231.7619"/><g><title>&lt;size:40&gt;&lt;&amp;tablet&gt;</title><rect fill="#000000" fill-opacity="0.00000" height="357.3848" width="8" x="37.3333" y="68.0182"/><line style="stroke:#0A9EFD;stroke-width:0.5;stroke-dasharray:5.0,5.0;" x1="41" x2="41" y1="68.0182" y2="425.403"/></g><g><title>&lt;size:40&gt;&lt;&amp;layers&gt;</title><rect fill="#000000" fill-opacity="0.00000" height="357.3848" width="8" x="244.8504" y="68.0182"/><line style="stroke:#0A9EFD;stroke-width:0.5;stroke-dasharray:5.0,5.0;" x1="248.5171" x2="248.5171" y1="68.0182" y2="425.403"/></g><g><title>&lt;size:40&gt;&lt;&amp;cloud&gt;</title><rect fill="#000000" fill-opacity="0.00000" height="357.3848" width="8" x="456.1516" y="68.0182"/><line style="stroke:#0A9EFD;stroke-width:0.5;stroke-dasharray:5.0,5.0;" x1="459.8183" x2="459.8183" y1="68.0182" y2="425.403"/></g><g class="participant participant-head" data-participant="APP"><rect fill="none" height="40.6667" rx="2.5" ry="2.5" style="stroke:#0A9EFD;stroke-width:2;" width="42.6667" x="20" y="26.3516"/><path d="M29.1333,33.3516 C28.5333,33.3516 28,33.8849 28,34.4849 L28,58.8516 C28,59.4516 28.5333,59.9849 29.1333,59.9849 L50.1667,59.9849 C50.7667,59.9849 51.3,59.4516 51.3,58.8516 L51.3,34.4849 C51.3,33.8849 50.7667,33.3516 50.1667,33.3516 L29.1333,33.3516 M31.3333,36.6849 L48,36.6849 L48,53.3516 L31.3333,53.3516 L31.3333,36.6849 M39.6667,55.0182 C40.9333,55.0182 41.7667,56.4182 41.1333,57.5182 C40.5,58.6182 38.8667,58.6182 38.2,57.5182 C37.5667,56.4182 38.3667,55.0182 39.6667,55.0182" fill="#0A9EFD"/></g><g class="participant participant-tail" data-participant="APP"><rect fill="none" height="40.6667" rx="2.5" ry="2.5" style="stroke:#0A9EFD;stroke-width:2;" width="42.6667" x="20" y="424.403"/><path d="M29.1333,431.403 C28.5333,431.403 28,431.9363 28,432.5363 L28,456.903 C28,457.503 28.5333,458.0363 29.1333,458.0363 L50.1667,458.0363 C50.7667,458.0363 51.3,457.503 51.3,456.903 L51.3,432.5363 C51.3,431.9363 50.7667,431.403 50.1667,431.403 L29.1333,431.403 M31.3333,434.7363 L48,434.7363 L48,451.403 L31.3333,451.403 L31.3333,434.7363 M39.6667,453.0697 C40.9333,453.0697 41.7667,454.4697 41.1333,455.5697 C40.5,456.6697 38.8667,456.6697 38.2,455.5697 C37.5667,454.4697 38.3667,453.0697 39.6667,453.0697" fill="#0A9EFD"/></g><g class="participant participant-head" data-participant="SDK"><rect fill="none" height="40.6667" rx="2.5" ry="2.5" style="stroke:#0A9EFD;stroke-width:2;" width="42.6667" x="227.5171" y="26.3516"/><path d="M235.5171,33.3516 L235.5171,46.6849 L248.8504,46.6849 L248.8504,33.3516 L235.5171,33.3516 M252.1838,40.0182 L252.1838,50.0182 L242.1838,50.0182 L242.1838,53.3516 L255.5171,53.3516 L255.5171,40.0182 L252.1838,40.0182 M258.8504,46.6849 L258.8504,56.6849 L248.8504,56.6849 L248.8504,60.0182 L262.1838,60.0182 L262.1838,46.6849 L258.8504,46.6849" fill="#0A9EFD"/></g><g class="participant participant-tail" data-participant="SDK"><rect fill="none" height="40.6667" rx="2.5" ry="2.5" style="stroke:#0A9EFD;stroke-width:2;" width="42.6667" x="227.5171" y="424.403"/><path d="M235.5171,431.403 L235.5171,444.7363 L248.8504,444.7363 L248.8504,431.403 L235.5171,431.403 M252.1838,438.0697 L252.1838,448.0697 L242.1838,448.0697 L242.1838,451.403 L255.5171,451.403 L255.5171,438.0697 L252.1838,438.0697 M258.8504,444.7363 L258.8504,454.7363 L248.8504,454.7363 L248.8504,458.0697 L262.1838,458.0697 L262.1838,444.7363 L258.8504,444.7363" fill="#0A9EFD"/></g><g class="participant participant-head" data-participant="RTN"><rect fill="none" height="40.6667" rx="2.5" ry="2.5" style="stroke:#0A9EFD;stroke-width:2;" width="42.6667" x="438.8183" y="26.3516"/><path d="M461.8183,36.6849 C457.7849,36.6849 454.2516,39.5516 453.4849,43.3516 C449.8183,43.3516 446.8183,46.3516 446.8183,50.0182 C446.8183,53.6849 449.8183,56.6849 453.4849,56.6849 L468.4849,56.6849 C471.2516,56.6849 473.4849,54.4516 473.4849,51.6849 C473.4849,49.5182 472.0849,47.3849 470.1516,46.6849 L470.1516,45.0182 C470.1516,40.4182 466.4183,36.6849 461.8183,36.6849" fill="#0A9EFD"/></g><g class="participant participant-tail" data-participant="RTN"><rect fill="none" height="40.6667" rx="2.5" ry="2.5" style="stroke:#0A9EFD;stroke-width:2;" width="42.6667" x="438.8183" y="424.403"/><path d="M461.8183,434.7363 C457.7849,434.7363 454.2516,437.603 453.4849,441.403 C449.8183,441.403 446.8183,444.403 446.8183,448.0697 C446.8183,451.7363 449.8183,454.7363 453.4849,454.7363 L468.4849,454.7363 C471.2516,454.7363 473.4849,452.503 473.4849,449.7363 C473.4849,447.5697 472.0849,445.4363 470.1516,444.7363 L470.1516,443.0697 C470.1516,438.4697 466.4183,434.7363 461.8183,434.7363" fill="#0A9EFD"/></g><g class="message" data-participant-1="APP" data-participant-2="SDK"><polygon fill="#0A9EFD" points="236.8504,94.967,246.8504,98.967,236.8504,102.967,240.8504,98.967" style="stroke:#0A9EFD;stroke-width:1;"/><line style="stroke:#0A9EFD;stroke-width:2;" x1="41.3333" x2="242.8504" y1="98.967" y2="98.967"/><text fill="#0A9EFD" font-family="Arial" font-size="13" lengthAdjust="spacing" textLength="178.5088" x="55.8375" y="94.2121">Create and initialize the engine</text></g><g class="message" data-participant-1="APP" data-participant-2="SDK"><polygon fill="#0A9EFD" points="236.8504,123.9157,246.8504,127.9157,236.8504,131.9157,240.8504,127.9157" style="stroke:#0A9EFD;stroke-width:1;"/><line style="stroke:#0A9EFD;stroke-width:2;" x1="41.3333" x2="242.8504" y1="127.9157" y2="127.9157"/><text fill="#0A9EFD" font-family="Arial" font-size="13" lengthAdjust="spacing" textLength="166.1626" x="62.0106" y="123.1608">Create custom video track(s)</text></g><path d="M10,142.9157 L134.498,142.9157 L134.498,149.8644 L124.498,159.8644 L10,159.8644 L10,142.9157" fill="#EEEEEE" style="stroke:#0A9EFD;stroke-width:1.5;"/><rect fill="none" height="74.8462" style="stroke:#0A9EFD;stroke-width:2;" width="481.4849" x="10" y="142.9157"/><text fill="#000000" font-family="Arial" font-size="13" lengthAdjust="spacing" textLength="79.498" x="25" y="156.1095">Join channels</text><g class="message" data-participant-1="APP" data-participant-2="SDK"><polygon fill="#0A9EFD" points="236.8504,176.8132,246.8504,180.8132,236.8504,184.8132,240.8504,180.8132" style="stroke:#0A9EFD;stroke-width:1;"/><line style="stroke:#0A9EFD;stroke-width:2;" x1="41.3333" x2="242.8504" y1="180.8132" y2="180.8132"/><text fill="#0A9EFD" font-family="Arial" font-size="13" lengthAdjust="spacing" textLength="88.1563" x="101.0138" y="176.0583">Join channel(s)</text></g><g class="message" data-participant-1="SDK" data-participant-2="RTN"><polygon fill="#0A9EFD" points="448.1516,205.7619,458.1516,209.7619,448.1516,213.7619,452.1516,209.7619" style="stroke:#0A9EFD;stroke-width:1;"/><line style="stroke:#0A9EFD;stroke-width:2;" x1="248.8504" x2="454.1516" y1="209.7619" y2="209.7619"/><text fill="#0A9EFD" font-family="Arial" font-size="13" lengthAdjust="spacing" textLength="151.0298" x="278.9861" y="205.007">Request to join channel(s)</text></g><path d="M10,231.7619 L162.6626,231.7619 L162.6626,238.7106 L152.6626,248.7106 L10,248.7106 L10,231.7619" fill="#EEEEEE" style="stroke:#0A9EFD;stroke-width:1.5;"/><rect fill="none" height="60.8462" style="stroke:#0A9EFD;stroke-width:2;" width="270.1838" x="10" y="231.7619"/><text fill="#000000" font-family="Arial" font-size="13" lengthAdjust="spacing" textLength="107.6626" x="25" y="244.9557">Push video frames</text><g class="message" data-participant-1="APP" data-participant-2="SDK"><polygon fill="#0A9EFD" points="236.8504,280.6081,246.8504,284.6081,236.8504,288.6081,240.8504,284.6081" style="stroke:#0A9EFD;stroke-width:1;"/><line style="stroke:#0A9EFD;stroke-width:2;" x1="41.3333" x2="242.8504" y1="284.6081" y2="284.6081"/><text fill="#0A9EFD" font-family="Arial" font-size="13" lengthAdjust="spacing" textLength="152.458" x="68.8629" y="264.9045">Push video frames to SDK</text><text fill="#0A9EFD" font-family="Arial" font-size="13" lengthAdjust="spacing" textLength="179.9053" x="56.9451" y="279.8532">using the custom video track(s)</text></g><g class="message" data-participant-1="APP" data-participant-2="SDK"><polygon fill="#0A9EFD" points="236.8504,316.5568,246.8504,320.5568,236.8504,324.5568,240.8504,320.5568" style="stroke:#0A9EFD;stroke-width:1;"/><line style="stroke:#0A9EFD;stroke-width:2;" x1="41.3333" x2="242.8504" y1="320.5568" y2="320.5568"/><text fill="#0A9EFD" font-family="Arial" font-size="13" lengthAdjust="spacing" textLength="171.9326" x="59.1256" y="315.8019">Destroy custom video track(s)</text></g><g class="message" data-participant-1="APP" data-participant-2="SDK"><polygon fill="#0A9EFD" points="236.8504,345.5055,246.8504,349.5055,236.8504,353.5055,240.8504,349.5055" style="stroke:#0A9EFD;stroke-width:1;"/><line style="stroke:#0A9EFD;stroke-width:2;" x1="41.3333" x2="242.8504" y1="349.5055" y2="349.5055"/><text fill="#0A9EFD" font-family="Arial" font-size="13" lengthAdjust="spacing" textLength="99.728" x="95.2279" y="344.7507">Leave channel(s)</text></g><g class="message" data-participant-1="SDK" data-participant-2="RTN"><polygon fill="#0A9EFD" points="448.1516,374.4543,458.1516,378.4543,448.1516,382.4543,452.1516,378.4543" style="stroke:#0A9EFD;stroke-width:1;"/><line style="stroke:#0A9EFD;stroke-width:2;" x1="248.8504" x2="454.1516" y1="378.4543" y2="378.4543"/><text fill="#0A9EFD" font-family="Arial" font-size="13" lengthAdjust="spacing" textLength="161.8716" x="273.5652" y="373.6994">Request to leave channel(s)</text></g><g class="message" data-participant-1="APP" data-participant-2="SDK"><polygon fill="#0A9EFD" points="236.8504,403.403,246.8504,407.403,236.8504,411.403,240.8504,407.403" style="stroke:#0A9EFD;stroke-width:1;"/><line style="stroke:#0A9EFD;stroke-width:2;" x1="41.3333" x2="242.8504" y1="407.403" y2="407.403"/><text fill="#0A9EFD" font-family="Arial" font-size="13" lengthAdjust="spacing" textLength="109.1226" x="90.5306" y="402.6481">Destroy the engine</text></g><!--SRC=[XP1DJiD038NtEON90i6YY0Mhg8eKqHKW51MMICXDtCHqCXFcfw8SYaDmCfosg552nDP-x_DxFcDTg50IO6KilheDwoiEZOgYbVc0E6lRE6hHUYwuHUqXdZl-fEJcEfsVUrmfycaCw23ByuXq2U8wMfyMzzDMXJkoxc0LuS2QTLbaldn-_FwQXXJAXFB04EM98LbcgL0JkBM4Nhh9XZLxHYLcy3K1wOerZQL5SDuqiEMI37YBnUR2NKPHPKreuSwmXg96hKcvdhS_x-GodAKIAO4blGTo7ho1ju58ulvoy-3guycrnORwxD6kOydcHKDmhAjzcxzJxo-SI0i9Oirkgk99-42ufN_xgA5gVAdtw1y0]--></g></svg>