<svg xmlns="http://www.w3.org/2000/svg" xmlns:xlink="http://www.w3.org/1999/xlink" contentStyleType="text/css" data-diagram-type="SEQUENCE" height="747px" preserveAspectRatio="none" style="width:500px;height:747px;" version="1.1" viewBox="0 0 500 747" width="500px" zoomAndPan="magnify"><defs/><g><rect fill="none" height="745.3257" style="stroke:#0A9EFD;stroke-width:1;" width="498.9785" x="0" y="0"/><rect fill="#999999" fill-opacity="0.33333" height="735.3257" style="stroke:#0A9EFD;stroke-width:0.5;" width="83.4482" x="126.3086" y="6"/><text fill="#0A9EFD" font-family="sans-serif" font-size="13" font-weight="bold" lengthAdjust="spacing" textLength="56.3354" x="139.865" y="19.4951">Your app</text><rect fill="#999999" fill-opacity="0.33333" height="735.3257" style="stroke:#0A9EFD;stroke-width:0.5;" width="80.5361" x="408.4424" y="6"/><text fill="#0A9EFD" font-family="sans-serif" font-size="13" font-weight="bold" lengthAdjust="spacing" textLength="37.5591" x="429.9309" y="19.4951">Agora</text><rect fill="#0A9EFD" fill-opacity="0.06667" height="87.8462" style="stroke:#0A9EFD;stroke-width:2;" width="374.6699" x="120.3086" y="215.9448"/><rect fill="#0A9EFD" fill-opacity="0.06667" height="116.7949" style="stroke:#0A9EFD;stroke-width:2;" width="484.9785" x="10" y="317.791"/><rect fill="#0A9EFD" fill-opacity="0.06667" height="73.8462" style="stroke:#0A9EFD;stroke-width:2;" width="266.1865" x="120.3086" y="448.5859"/><rect fill="#0A9EFD" fill-opacity="0.06667" height="45.8975" style="stroke:#0A9EFD;stroke-width:2;" width="374.6699" x="120.3086" y="536.4321"/><g><title>User</title><rect fill="#000000" fill-opacity="0.00000" height="571.1284" width="8" x="33.7793" y="86.0986"/><line style="stroke:#0A9EFD;stroke-width:0.5;stroke-dasharray:5.0,5.0;" x1="37" x2="37" y1="86.0986" y2="657.2271"/></g><g><title>RTC SDK</title><rect fill="#000000" fill-opacity="0.00000" height="571.1284" width="8" x="164.0327" y="86.0986"/><line style="stroke:#0A9EFD;stroke-width:0.5;stroke-dasharray:5.0,5.0;" x1="167.3086" x2="167.3086" y1="86.0986" y2="657.2271"/></g><g><title>SDRTN&#174;</title><rect fill="#000000" fill-opacity="0.00000" height="571.1284" width="8" x="444.7104" y="86.0986"/><line style="stroke:#0A9EFD;stroke-width:0.5;stroke-dasharray:5.0,5.0;" x1="448.4424" x2="448.4424" y1="86.0986" y2="657.2271"/></g><g class="participant participant-head" data-participant="USR"><text fill="#0A9EFD" font-family="Arial" font-size="14" lengthAdjust="spacing" textLength="29.5586" x="20" y="83.1318">User</text><ellipse cx="37.7793" cy="16" fill="none" rx="8" ry="8" style="stroke:#0A9EFD;stroke-width:3;"/><path d="M37.7793,24 L37.7793,51 M24.7793,32 L50.7793,32 M37.7793,51 L24.7793,66 M37.7793,51 L50.7793,66" fill="none" style="stroke:#0A9EFD;stroke-width:3;"/></g><g class="participant participant-tail" data-participant="USR"><text fill="#0A9EFD" font-family="Arial" font-size="14" lengthAdjust="spacing" textLength="29.5586" x="20" y="669.3589">User</text><ellipse cx="37.7793" cy="683.3257" fill="none" rx="8" ry="8" style="stroke:#0A9EFD;stroke-width:3;"/><path d="M37.7793,691.3257 L37.7793,718.3257 M24.7793,699.3257 L50.7793,699.3257 M37.7793,718.3257 L24.7793,733.3257 M37.7793,718.3257 L50.7793,733.3257" fill="none" style="stroke:#0A9EFD;stroke-width:3;"/></g><g class="participant participant-head" data-participant="APP"><rect fill="none" height="30.0986" rx="2.5" ry="2.5" style="stroke:#0A9EFD;stroke-width:2;" width="75.4482" x="130.3086" y="55"/><text fill="#0A9EFD" font-family="Arial" font-size="14" lengthAdjust="spacing" textLength="61.4482" x="137.3086" y="75.1318">RTC SDK</text></g><g class="participant participant-tail" data-participant="APP"><rect fill="none" height="30.0986" rx="2.5" ry="2.5" style="stroke:#0A9EFD;stroke-width:2;" width="75.4482" x="130.3086" y="656.2271"/><text fill="#0A9EFD" font-family="Arial" font-size="14" lengthAdjust="spacing" textLength="61.4482" x="137.3086" y="676.3589">RTC SDK</text></g><g class="participant participant-head" data-participant="API"><rect fill="none" height="30.0986" rx="2.5" ry="2.5" style="stroke:#0A9EFD;stroke-width:2;" width="72.5361" x="412.4424" y="55"/><text fill="#0A9EFD" font-family="Arial" font-size="14" lengthAdjust="spacing" textLength="58.5361" x="419.4424" y="75.1318">SDRTN&#174;</text></g><g class="participant participant-tail" data-participant="API"><rect fill="none" height="30.0986" rx="2.5" ry="2.5" style="stroke:#0A9EFD;stroke-width:2;" width="72.5361" x="412.4424" y="656.2271"/><text fill="#0A9EFD" font-family="Arial" font-size="14" lengthAdjust="spacing" textLength="58.5361" x="419.4424" y="676.3589">SDRTN&#174;</text></g><g class="message" data-participant-1="USR" data-participant-2="APP"><polygon fill="#0A9EFD" points="156.0327,113.0474,166.0327,117.0474,156.0327,121.0474,160.0327,117.0474" style="stroke:#0A9EFD;stroke-width:1;"/><line style="stroke:#0A9EFD;stroke-width:2;" x1="37.7793" x2="162.0327" y1="117.0474" y2="117.0474"/><text fill="#0A9EFD" font-family="Arial" font-size="13" lengthAdjust="spacing" textLength="58.5444" x="73.6338" y="112.2925">Open App</text></g><g class="message" data-participant-1="APP" data-participant-2="APP"><line style="stroke:#0A9EFD;stroke-width:2;" x1="168.0327" x2="210.0327" y1="145.9961" y2="145.9961"/><line style="stroke:#0A9EFD;stroke-width:2;" x1="210.0327" x2="210.0327" y1="145.9961" y2="158.9961"/><line style="stroke:#0A9EFD;stroke-width:2;" x1="169.0327" x2="210.0327" y1="158.9961" y2="158.9961"/><polygon fill="#0A9EFD" points="179.0327,154.9961,169.0327,158.9961,179.0327,162.9961,175.0327,158.9961" style="stroke:#0A9EFD;stroke-width:1;"/><text fill="#0A9EFD" font-family="Arial" font-size="13" lengthAdjust="spacing" textLength="248.5806" x="175.0327" y="141.2412">Create an instance of the RTC SDK engine</text></g><g class="message" data-participant-1="APP" data-participant-2="APP"><line style="stroke:#0A9EFD;stroke-width:2;" x1="168.0327" x2="210.0327" y1="187.9448" y2="187.9448"/><line style="stroke:#0A9EFD;stroke-width:2;" x1="210.0327" x2="210.0327" y1="187.9448" y2="200.9448"/><line style="stroke:#0A9EFD;stroke-width:2;" x1="169.0327" x2="210.0327" y1="200.9448" y2="200.9448"/><polygon fill="#0A9EFD" points="179.0327,196.9448,169.0327,200.9448,179.0327,204.9448,175.0327,200.9448" style="stroke:#0A9EFD;stroke-width:1;"/><text fill="#0A9EFD" font-family="Arial" font-size="13" lengthAdjust="spacing" textLength="213.9541" x="175.0327" y="183.1899">Enable audio and video in the engine</text></g><path d="M120.3086,215.9448 L291.7729,215.9448 L291.7729,222.8936 L281.7729,232.8936 L120.3086,232.8936 L120.3086,215.9448" fill="#EEEEEE" style="stroke:#0A9EFD;stroke-width:1.5;"/><rect fill="none" height="87.8462" style="stroke:#0A9EFD;stroke-width:2;" width="374.6699" x="120.3086" y="215.9448"/><text fill="#000000" font-family="Arial" font-size="13" lengthAdjust="spacing" textLength="126.4644" x="135.3086" y="229.1387">Setup external source</text><g class="message" data-participant-1="APP" data-participant-2="APP"><line style="stroke:#0A9EFD;stroke-width:2;" x1="168.0327" x2="210.0327" y1="253.8423" y2="253.8423"/><line style="stroke:#0A9EFD;stroke-width:2;" x1="210.0327" x2="210.0327" y1="253.8423" y2="266.8423"/><line style="stroke:#0A9EFD;stroke-width:2;" x1="169.0327" x2="210.0327" y1="266.8423" y2="266.8423"/><polygon fill="#0A9EFD" points="179.0327,262.8423,169.0327,266.8423,179.0327,270.8423,175.0327,266.8423" style="stroke:#0A9EFD;stroke-width:1;"/><text fill="#0A9EFD" font-family="Arial" font-size="13" lengthAdjust="spacing" textLength="244.9434" x="175.0327" y="249.0874">Check the external source for compatibility</text></g><g class="message" data-participant-1="APP" data-participant-2="API"><polygon fill="#0A9EFD" points="436.7104,291.791,446.7104,295.791,436.7104,299.791,440.7104,295.791" style="stroke:#0A9EFD;stroke-width:1;"/><line style="stroke:#0A9EFD;stroke-width:2;" x1="168.0327" x2="442.7104" y1="295.791" y2="295.791"/><text fill="#0A9EFD" font-family="Arial" font-size="13" lengthAdjust="spacing" textLength="197.2852" x="209.729" y="291.0361">Set external video or audio source</text></g><path d="M10,317.791 L78.8481,317.791 L78.8481,324.7397 L68.8481,334.7397 L10,334.7397 L10,317.791" fill="#EEEEEE" style="stroke:#0A9EFD;stroke-width:1.5;"/><rect fill="none" height="116.7949" style="stroke:#0A9EFD;stroke-width:2;" width="484.9785" x="10" y="317.791"/><text fill="#000000" font-family="Arial" font-size="13" lengthAdjust="spacing" textLength="23.8481" x="25" y="330.9849">Join</text><g class="message" data-participant-1="USR" data-participant-2="APP"><polygon fill="#0A9EFD" points="156.0327,351.6885,166.0327,355.6885,156.0327,359.6885,160.0327,355.6885" style="stroke:#0A9EFD;stroke-width:1;"/><line style="stroke:#0A9EFD;stroke-width:2;" x1="37.7793" x2="162.0327" y1="355.6885" y2="355.6885"/><text fill="#0A9EFD" font-family="Arial" font-size="13" lengthAdjust="spacing" textLength="83.8398" x="60.9861" y="350.9336">Join a channel</text></g><g class="message" data-participant-1="APP" data-participant-2="APP"><line style="stroke:#0A9EFD;stroke-width:2;" x1="168.0327" x2="210.0327" y1="384.6372" y2="384.6372"/><line style="stroke:#0A9EFD;stroke-width:2;" x1="210.0327" x2="210.0327" y1="384.6372" y2="397.6372"/><line style="stroke:#0A9EFD;stroke-width:2;" x1="169.0327" x2="210.0327" y1="397.6372" y2="397.6372"/><polygon fill="#0A9EFD" points="179.0327,393.6372,169.0327,397.6372,179.0327,401.6372,175.0327,397.6372" style="stroke:#0A9EFD;stroke-width:1;"/><text fill="#0A9EFD" font-family="Arial" font-size="13" lengthAdjust="spacing" textLength="266.6777" x="175.0327" y="379.8823">Retrieve authentication token to join a channel</text></g><g class="message" data-participant-1="APP" data-participant-2="API"><polygon fill="#0A9EFD" points="436.7104,422.5859,446.7104,426.5859,436.7104,430.5859,440.7104,426.5859" style="stroke:#0A9EFD;stroke-width:1;"/><line style="stroke:#0A9EFD;stroke-width:2;" x1="168.0327" x2="442.7104" y1="426.5859" y2="426.5859"/><text fill="#0A9EFD" font-family="Arial" font-size="13" lengthAdjust="spacing" textLength="94.6816" x="261.0308" y="421.8311">Join the channel</text></g><path d="M120.3086,448.5859 L241.1821,448.5859 L241.1821,455.5347 L231.1821,465.5347 L120.3086,465.5347 L120.3086,448.5859" fill="#EEEEEE" style="stroke:#0A9EFD;stroke-width:1.5;"/><rect fill="none" height="73.8462" style="stroke:#0A9EFD;stroke-width:2;" width="266.1865" x="120.3086" y="448.5859"/><text fill="#000000" font-family="Arial" font-size="13" lengthAdjust="spacing" textLength="75.8735" x="135.3086" y="461.7798">Process data</text><g class="message" data-participant-1="APP" data-participant-2="APP"><line style="stroke:#0A9EFD;stroke-width:2;" x1="168.0327" x2="210.0327" y1="501.4321" y2="501.4321"/><line style="stroke:#0A9EFD;stroke-width:2;" x1="210.0327" x2="210.0327" y1="501.4321" y2="514.4321"/><line style="stroke:#0A9EFD;stroke-width:2;" x1="169.0327" x2="210.0327" y1="514.4321" y2="514.4321"/><polygon fill="#0A9EFD" points="179.0327,510.4321,169.0327,514.4321,179.0327,518.4321,175.0327,514.4321" style="stroke:#0A9EFD;stroke-width:1;"/><text fill="#0A9EFD" font-family="Arial" font-size="13" lengthAdjust="spacing" textLength="195.8506" x="175.0327" y="481.7285">Manage capturing and processing</text><text fill="#0A9EFD" font-family="Arial" font-size="13" lengthAdjust="spacing" textLength="134.4116" x="207.5581" y="496.6772">using external methods</text></g><path d="M120.3086,536.4321 L236.123,536.4321 L236.123,543.3809 L226.123,553.3809 L120.3086,553.3809 L120.3086,536.4321" fill="#EEEEEE" style="stroke:#0A9EFD;stroke-width:1.5;"/><rect fill="none" height="45.8975" style="stroke:#0A9EFD;stroke-width:2;" width="374.6699" x="120.3086" y="536.4321"/><text fill="#000000" font-family="Arial" font-size="13" lengthAdjust="spacing" textLength="70.8145" x="135.3086" y="549.626">Stream data</text><g class="message" data-participant-1="APP" data-participant-2="API"><polygon fill="#0A9EFD" points="436.7104,570.3296,446.7104,574.3296,436.7104,578.3296,440.7104,574.3296" style="stroke:#0A9EFD;stroke-width:1;"/><line style="stroke:#0A9EFD;stroke-width:2;" x1="168.0327" x2="442.7104" y1="574.3296" y2="574.3296"/><text fill="#0A9EFD" font-family="Arial" font-size="13" lengthAdjust="spacing" textLength="201.6143" x="207.5645" y="569.5747">Push external video or audio frame</text></g><g class="message" data-participant-1="USR" data-participant-2="APP"><polygon fill="#0A9EFD" points="156.0327,606.2783,166.0327,610.2783,156.0327,614.2783,160.0327,610.2783" style="stroke:#0A9EFD;stroke-width:1;"/><line style="stroke:#0A9EFD;stroke-width:2;" x1="37.7793" x2="162.0327" y1="610.2783" y2="610.2783"/><text fill="#0A9EFD" font-family="Arial" font-size="13" lengthAdjust="spacing" textLength="106.2534" x="49.7793" y="605.5234">Leave the channel</text></g><g class="message" data-participant-1="APP" data-participant-2="API"><polygon fill="#0A9EFD" points="436.7104,635.2271,446.7104,639.2271,436.7104,643.2271,440.7104,639.2271" style="stroke:#0A9EFD;stroke-width:1;"/><line style="stroke:#0A9EFD;stroke-width:2;" x1="168.0327" x2="442.7104" y1="639.2271" y2="639.2271"/><text fill="#0A9EFD" font-family="Arial" font-size="13" lengthAdjust="spacing" textLength="106.2534" x="255.2449" y="634.4722">Leave the channel</text></g><!--SRC=[TP5DJiCm48NtESMGFHo01LBLiYY_KT8ka93Gr9acfidOifsgN8f3S38cFxH9KJUERC_t_DxBbMPLDJa15iRXXzzflj5DNKKHgc0Sn6jFBWRqiCxIADgO0yHlfd60riQHHHUqqXOvG9okvf0j7hlXMP94n3d8_03DMlqp8bkagvUVxu5OdWXv2wxlMfLRUBN4CBCsajtnSEu8WvXcqEm3iY8mMmWbmU02Y0lDD87k6JULG4skZQ0vx7LEHXGwS02Ymfd6GaP1LZe4SemLU8cifchpajIk9wTJi9NUbAaj1htHbGvV9svvsogVYDw1pFUcXcUaXpyV3qRpf8xs011KYSnKJHob59ocVPjGRB7qB0wCf3CxQbVulC0k1zasp709OnE9CugyXnm3JbvyHiP26BIXSPgBhbNRJxVRTswwxp5lJQ4qkH-BPq7-PNscBOwInfSNYzewh8UUnkKy4KhyKOo9ul_RNm00]--></g></svg>