<?xml version="1.0" encoding="us-ascii" standalone="no"?><svg xmlns="http://www.w3.org/2000/svg" xmlns:xlink="http://www.w3.org/1999/xlink" contentStyleType="text/css" height="747px" preserveAspectRatio="none" style="width:502px;height:747px;" version="1.1" viewBox="0 0 502 747" width="502px" zoomAndPan="magnify"><defs/><g><rect fill="none" height="745.3257" style="stroke:#0A9EFD;stroke-width:1.0;" width="500" x="0" y="0"/><rect fill="#999999" fill-opacity="0.33333" height="735.3257" style="stroke:#0A9EFD;stroke-width:0.5;" width="90" x="123" y="6"/><text fill="#0A9EFD" font-family="sans-serif" font-size="13" font-weight="bold" lengthAdjust="spacing" textLength="62" x="137" y="18.5684">Your app</text><rect fill="#999999" fill-opacity="0.33333" height="735.3257" style="stroke:#0A9EFD;stroke-width:0.5;" width="80" x="410" y="6"/><text fill="#0A9EFD" font-family="sans-serif" font-size="13" font-weight="bold" lengthAdjust="spacing" textLength="41" x="429.5" y="18.5684">Agora</text><rect fill="#0A9EFD" fill-opacity="0.06667" height="87.8462" style="stroke:#0A9EFD;stroke-width:2.0;" width="379" x="117" y="215.9448"/><rect fill="#0A9EFD" fill-opacity="0.06667" height="116.7949" style="stroke:#0A9EFD;stroke-width:2.0;" width="486" x="10" y="317.791"/><rect fill="#0A9EFD" fill-opacity="0.06667" height="73.8462" style="stroke:#0A9EFD;stroke-width:2.0;" width="269" x="117" y="448.5859"/><rect fill="#0A9EFD" fill-opacity="0.06667" height="45.8975" style="stroke:#0A9EFD;stroke-width:2.0;" width="379" x="117" y="536.4321"/><line style="stroke:#0A9EFD;stroke-width:0.5;stroke-dasharray:5.0,5.0;" x1="38" x2="38" y1="86.0986" y2="657.2271"/><line style="stroke:#0A9EFD;stroke-width:0.5;stroke-dasharray:5.0,5.0;" x1="168" x2="168" y1="86.0986" y2="657.2271"/><line style="stroke:#0A9EFD;stroke-width:0.5;stroke-dasharray:5.0,5.0;" x1="450" x2="450" y1="86.0986" y2="657.2271"/><text fill="#0A9EFD" font-family="Arial" font-size="14" lengthAdjust="spacing" textLength="30" x="20" y="83.1318">User</text><ellipse cx="38" cy="16" fill="none" rx="8" ry="8" style="stroke:#0A9EFD;stroke-width:3.0;"/><path d="M38,24 L38,51 M25,32 L51,32 M38,51 L25,66 M38,51 L51,66 " fill="none" style="stroke:#0A9EFD;stroke-width:3.0;"/><text fill="#0A9EFD" font-family="Arial" font-size="14" lengthAdjust="spacing" textLength="30" x="20" y="669.3589">User</text><ellipse cx="38" cy="683.3257" fill="none" rx="8" ry="8" style="stroke:#0A9EFD;stroke-width:3.0;"/><path d="M38,691.3257 L38,718.3257 M25,699.3257 L51,699.3257 M38,718.3257 L25,733.3257 M38,718.3257 L51,733.3257 " fill="none" style="stroke:#0A9EFD;stroke-width:3.0;"/><rect fill="none" height="30.0986" rx="2.5" ry="2.5" style="stroke:#0A9EFD;stroke-width:2.0;" width="82" x="127" y="55"/><text fill="#0A9EFD" font-family="Arial" font-size="14" lengthAdjust="spacing" textLength="68" x="134" y="75.1318">Video SDK</text><rect fill="none" height="30.0986" rx="2.5" ry="2.5" style="stroke:#0A9EFD;stroke-width:2.0;" width="82" x="127" y="656.2271"/><text fill="#0A9EFD" font-family="Arial" font-size="14" lengthAdjust="spacing" textLength="68" x="134" y="676.3589">Video SDK</text><rect fill="none" height="30.0986" rx="2.5" ry="2.5" style="stroke:#0A9EFD;stroke-width:2.0;" width="72" x="414" y="55"/><text fill="#0A9EFD" font-family="Arial" font-size="14" lengthAdjust="spacing" textLength="58" x="421" y="75.1318">SDRTN&#174;</text><rect fill="none" height="30.0986" rx="2.5" ry="2.5" style="stroke:#0A9EFD;stroke-width:2.0;" width="72" x="414" y="656.2271"/><text fill="#0A9EFD" font-family="Arial" font-size="14" lengthAdjust="spacing" textLength="58" x="421" y="676.3589">SDRTN&#174;</text><polygon fill="#0A9EFD" points="156,113.0474,166,117.0474,156,121.0474,160,117.0474" style="stroke:#0A9EFD;stroke-width:1.0;"/><line style="stroke:#0A9EFD;stroke-width:2.0;" x1="38" x2="162" y1="117.0474" y2="117.0474"/><text fill="#0A9EFD" font-family="Arial" font-size="13" lengthAdjust="spacing" textLength="58" x="74" y="112.2925">Open App</text><line style="stroke:#0A9EFD;stroke-width:2.0;" x1="168" x2="210" y1="145.9961" y2="145.9961"/><line style="stroke:#0A9EFD;stroke-width:2.0;" x1="210" x2="210" y1="145.9961" y2="158.9961"/><line style="stroke:#0A9EFD;stroke-width:2.0;" x1="169" x2="210" y1="158.9961" y2="158.9961"/><polygon fill="#0A9EFD" points="179,154.9961,169,158.9961,179,162.9961,175,158.9961" style="stroke:#0A9EFD;stroke-width:1.0;"/><text fill="#0A9EFD" font-family="Arial" font-size="13" lengthAdjust="spacing" textLength="256" x="175" y="141.2412">Create an instance of the Video SDK engine</text><line style="stroke:#0A9EFD;stroke-width:2.0;" x1="168" x2="210" y1="187.9448" y2="187.9448"/><line style="stroke:#0A9EFD;stroke-width:2.0;" x1="210" x2="210" y1="187.9448" y2="200.9448"/><line style="stroke:#0A9EFD;stroke-width:2.0;" x1="169" x2="210" y1="200.9448" y2="200.9448"/><polygon fill="#0A9EFD" points="179,196.9448,169,200.9448,179,204.9448,175,200.9448" style="stroke:#0A9EFD;stroke-width:1.0;"/><text fill="#0A9EFD" font-family="Arial" font-size="13" lengthAdjust="spacing" textLength="213" x="175" y="183.1899">Enable audio and video in the engine</text><path d="M117,215.9448 L289,215.9448 L289,222.8936 L279,232.8936 L117,232.8936 L117,215.9448 " fill="#EEEEEE" style="stroke:#0A9EFD;stroke-width:1.5;"/><rect fill="none" height="87.8462" style="stroke:#0A9EFD;stroke-width:2.0;" width="379" x="117" y="215.9448"/><text fill="#000000" font-family="Arial" font-size="13" lengthAdjust="spacing" textLength="127" x="132" y="229.1387">Setup external source</text><line style="stroke:#0A9EFD;stroke-width:2.0;" x1="168" x2="210" y1="253.8423" y2="253.8423"/><line style="stroke:#0A9EFD;stroke-width:2.0;" x1="210" x2="210" y1="253.8423" y2="266.8423"/><line style="stroke:#0A9EFD;stroke-width:2.0;" x1="169" x2="210" y1="266.8423" y2="266.8423"/><polygon fill="#0A9EFD" points="179,262.8423,169,266.8423,179,270.8423,175,266.8423" style="stroke:#0A9EFD;stroke-width:1.0;"/><text fill="#0A9EFD" font-family="Arial" font-size="13" lengthAdjust="spacing" textLength="248" x="175" y="249.0874">Check the external source for compatibility</text><polygon fill="#0A9EFD" points="438,291.791,448,295.791,438,299.791,442,295.791" style="stroke:#0A9EFD;stroke-width:1.0;"/><line style="stroke:#0A9EFD;stroke-width:2.0;" x1="168" x2="444" y1="295.791" y2="295.791"/><text fill="#0A9EFD" font-family="Arial" font-size="13" lengthAdjust="spacing" textLength="198" x="210" y="291.0361">Set external video or audio source</text><path d="M10,317.791 L79,317.791 L79,324.7397 L69,334.7397 L10,334.7397 L10,317.791 " fill="#EEEEEE" style="stroke:#0A9EFD;stroke-width:1.5;"/><rect fill="none" height="116.7949" style="stroke:#0A9EFD;stroke-width:2.0;" width="486" x="10" y="317.791"/><text fill="#000000" font-family="Arial" font-size="13" lengthAdjust="spacing" textLength="24" x="25" y="330.9849">Join</text><polygon fill="#0A9EFD" points="156,351.6885,166,355.6885,156,359.6885,160,355.6885" style="stroke:#0A9EFD;stroke-width:1.0;"/><line style="stroke:#0A9EFD;stroke-width:2.0;" x1="38" x2="162" y1="355.6885" y2="355.6885"/><text fill="#0A9EFD" font-family="Arial" font-size="13" lengthAdjust="spacing" textLength="84" x="61" y="350.9336">Join a channel</text><line style="stroke:#0A9EFD;stroke-width:2.0;" x1="168" x2="210" y1="384.6372" y2="384.6372"/><line style="stroke:#0A9EFD;stroke-width:2.0;" x1="210" x2="210" y1="384.6372" y2="397.6372"/><line style="stroke:#0A9EFD;stroke-width:2.0;" x1="169" x2="210" y1="397.6372" y2="397.6372"/><polygon fill="#0A9EFD" points="179,393.6372,169,397.6372,179,401.6372,175,397.6372" style="stroke:#0A9EFD;stroke-width:1.0;"/><text fill="#0A9EFD" font-family="Arial" font-size="13" lengthAdjust="spacing" textLength="268" x="175" y="379.8823">Retrieve authentication token to join a channel</text><polygon fill="#0A9EFD" points="438,422.5859,448,426.5859,438,430.5859,442,426.5859" style="stroke:#0A9EFD;stroke-width:1.0;"/><line style="stroke:#0A9EFD;stroke-width:2.0;" x1="168" x2="444" y1="426.5859" y2="426.5859"/><text fill="#0A9EFD" font-family="Arial" font-size="13" lengthAdjust="spacing" textLength="95" x="261.5" y="421.8311">Join the channel</text><path d="M117,448.5859 L239,448.5859 L239,455.5347 L229,465.5347 L117,465.5347 L117,448.5859 " fill="#EEEEEE" style="stroke:#0A9EFD;stroke-width:1.5;"/><rect fill="none" height="73.8462" style="stroke:#0A9EFD;stroke-width:2.0;" width="269" x="117" y="448.5859"/><text fill="#000000" font-family="Arial" font-size="13" lengthAdjust="spacing" textLength="77" x="132" y="461.7798">Process data</text><line style="stroke:#0A9EFD;stroke-width:2.0;" x1="168" x2="210" y1="501.4321" y2="501.4321"/><line style="stroke:#0A9EFD;stroke-width:2.0;" x1="210" x2="210" y1="501.4321" y2="514.4321"/><line style="stroke:#0A9EFD;stroke-width:2.0;" x1="169" x2="210" y1="514.4321" y2="514.4321"/><polygon fill="#0A9EFD" points="179,510.4321,169,514.4321,179,518.4321,175,514.4321" style="stroke:#0A9EFD;stroke-width:1.0;"/><text fill="#0A9EFD" font-family="Arial" font-size="13" lengthAdjust="spacing" textLength="195" x="175" y="481.7285">Manage capturing and processing</text><text fill="#0A9EFD" font-family="Arial" font-size="13" lengthAdjust="spacing" textLength="135" x="207" y="496.6772">using external methods</text><path d="M117,536.4321 L233,536.4321 L233,543.3809 L223,553.3809 L117,553.3809 L117,536.4321 " fill="#EEEEEE" style="stroke:#0A9EFD;stroke-width:1.5;"/><rect fill="none" height="45.8975" style="stroke:#0A9EFD;stroke-width:2.0;" width="379" x="117" y="536.4321"/><text fill="#000000" font-family="Arial" font-size="13" lengthAdjust="spacing" textLength="71" x="132" y="549.626">Stream data</text><polygon fill="#0A9EFD" points="438,570.3296,448,574.3296,438,578.3296,442,574.3296" style="stroke:#0A9EFD;stroke-width:1.0;"/><line style="stroke:#0A9EFD;stroke-width:2.0;" x1="168" x2="444" y1="574.3296" y2="574.3296"/><text fill="#0A9EFD" font-family="Arial" font-size="13" lengthAdjust="spacing" textLength="202" x="208" y="569.5747">Push external video or audio frame</text><polygon fill="#0A9EFD" points="156,606.2783,166,610.2783,156,614.2783,160,610.2783" style="stroke:#0A9EFD;stroke-width:1.0;"/><line style="stroke:#0A9EFD;stroke-width:2.0;" x1="38" x2="162" y1="610.2783" y2="610.2783"/><text fill="#0A9EFD" font-family="Arial" font-size="13" lengthAdjust="spacing" textLength="106" x="50" y="605.5234">Leave the channel</text><polygon fill="#0A9EFD" points="438,635.2271,448,639.2271,438,643.2271,442,639.2271" style="stroke:#0A9EFD;stroke-width:1.0;"/><line style="stroke:#0A9EFD;stroke-width:2.0;" x1="168" x2="444" y1="639.2271" y2="639.2271"/><text fill="#0A9EFD" font-family="Arial" font-size="13" lengthAdjust="spacing" textLength="106" x="256" y="634.4722">Leave the channel</text><!--SRC=[TP5DJiCm48NtFiMGFHo01LBLiYY_KKEHa93Gr9acfidOifsgN8f3S38cFxHDKJUERC_t_DxBXM5TDJa15jRZHzWOlZ9DNIc5EbeFoJAGJm03BBE5KYkxW-JDDXxGkKGvzD5euv0Z9Ayc9mlPxBuRdwIf8iv1Y06Rj2-SCDbiyVBqypqGymCXhy7bJQjo3S-E62REATdj3wUUC8fj1iCX8ci2kuPO4knz075Xc4ROBUEg4gp9ZHKuXsqtRRX31q0LtZOECegoqYwIPwmWI6mzLfkMf3SzEPw2jNIdRUqmcfMfJFmwSFFhLlb0z0valZSrF2DD_FcuiuP7XRG7WA1BPAPgv6X1qHlQjWd55alJui1AEhkXTeNFC-nya6t339TmR2BrLbC8a6F4qOkFo5W8Woustd3HjUhwwNRxpatttUUjAPOs3yVYMPI_MPzeYwEq2UNPejOUww6dut8U22N-KOoHul_RNm00]--></g></svg>