<svg xmlns="http://www.w3.org/2000/svg" xmlns:xlink="http://www.w3.org/1999/xlink" contentStyleType="text/css" data-diagram-type="SEQUENCE" height="422px" preserveAspectRatio="none" style="width:566px;height:422px;" version="1.1" viewBox="0 0 566 422" width="566px" zoomAndPan="magnify"><defs/><g><rect fill="none" height="420.1722" style="stroke:#0A9EFD;stroke-width:1;" width="564.8452" x="0" y="0"/><rect fill="#999999" fill-opacity="0.33333" height="410.1722" style="stroke:#0A9EFD;stroke-width:0.5;" width="50.6667" x="16" y="6"/><text fill="#0A9EFD" font-family="sans-serif" font-size="13" font-weight="bold" lengthAdjust="spacing" textLength="25.27" x="28.6983" y="19.4951">App</text><rect fill="#999999" fill-opacity="0.33333" height="410.1722" style="stroke:#0A9EFD;stroke-width:0.5;" width="50.6667" x="266.9224" y="6"/><text fill="#0A9EFD" font-family="sans-serif" font-size="13" font-weight="bold" lengthAdjust="spacing" textLength="27.4473" x="278.5321" y="19.4951">SDK</text><rect fill="#999999" fill-opacity="0.33333" height="410.1722" style="stroke:#0A9EFD;stroke-width:0.5;" width="101.5259" x="459.3193" y="6"/><text fill="#0A9EFD" font-family="sans-serif" font-size="13" font-weight="bold" lengthAdjust="spacing" textLength="95.5259" x="462.3193" y="19.4951">Agora SDRTN&#174;</text><rect fill="#0A9EFD" fill-opacity="0.06667" height="153.6924" style="stroke:#0A9EFD;stroke-width:2;" width="531.4156" x="10" y="113.967"/><g><title>&lt;size:40&gt;&lt;&amp;tablet&gt;</title><rect fill="#000000" fill-opacity="0.00000" height="303.4873" width="8" x="37.3333" y="68.0182"/><line style="stroke:#0A9EFD;stroke-width:0.5;stroke-dasharray:5.0,5.0;" x1="41" x2="41" y1="68.0182" y2="371.5055"/></g><g><title>&lt;size:40&gt;&lt;&amp;layers&gt;</title><rect fill="#000000" fill-opacity="0.00000" height="303.4873" width="8" x="288.2557" y="68.0182"/><line style="stroke:#0A9EFD;stroke-width:0.5;stroke-dasharray:5.0,5.0;" x1="291.9224" x2="291.9224" y1="68.0182" y2="371.5055"/></g><g><title>&lt;size:40&gt;&lt;&amp;cloud&gt;</title><rect fill="#000000" fill-opacity="0.00000" height="303.4873" width="8" x="506.0823" y="68.0182"/><line style="stroke:#0A9EFD;stroke-width:0.5;stroke-dasharray:5.0,5.0;" x1="509.7489" x2="509.7489" y1="68.0182" y2="371.5055"/></g><g class="participant participant-head" data-participant="APP"><rect fill="none" height="40.6667" rx="2.5" ry="2.5" style="stroke:#0A9EFD;stroke-width:2;" width="42.6667" x="20" y="26.3516"/><path d="M29.1333,33.3516 C28.5333,33.3516 28,33.8849 28,34.4849 L28,58.8516 C28,59.4516 28.5333,59.9849 29.1333,59.9849 L50.1667,59.9849 C50.7667,59.9849 51.3,59.4516 51.3,58.8516 L51.3,34.4849 C51.3,33.8849 50.7667,33.3516 50.1667,33.3516 L29.1333,33.3516 M31.3333,36.6849 L48,36.6849 L48,53.3516 L31.3333,53.3516 L31.3333,36.6849 M39.6667,55.0182 C40.9333,55.0182 41.7667,56.4182 41.1333,57.5182 C40.5,58.6182 38.8667,58.6182 38.2,57.5182 C37.5667,56.4182 38.3667,55.0182 39.6667,55.0182" fill="#0A9EFD"/></g><g class="participant participant-tail" data-participant="APP"><rect fill="none" height="40.6667" rx="2.5" ry="2.5" style="stroke:#0A9EFD;stroke-width:2;" width="42.6667" x="20" y="370.5055"/><path d="M29.1333,377.5055 C28.5333,377.5055 28,378.0389 28,378.6389 L28,403.0055 C28,403.6055 28.5333,404.1389 29.1333,404.1389 L50.1667,404.1389 C50.7667,404.1389 51.3,403.6055 51.3,403.0055 L51.3,378.6389 C51.3,378.0389 50.7667,377.5055 50.1667,377.5055 L29.1333,377.5055 M31.3333,380.8389 L48,380.8389 L48,397.5055 L31.3333,397.5055 L31.3333,380.8389 M39.6667,399.1722 C40.9333,399.1722 41.7667,400.5722 41.1333,401.6722 C40.5,402.7722 38.8667,402.7722 38.2,401.6722 C37.5667,400.5722 38.3667,399.1722 39.6667,399.1722" fill="#0A9EFD"/></g><g class="participant participant-head" data-participant="SDK"><rect fill="none" height="40.6667" rx="2.5" ry="2.5" style="stroke:#0A9EFD;stroke-width:2;" width="42.6667" x="270.9224" y="26.3516"/><path d="M278.9224,33.3516 L278.9224,46.6849 L292.2557,46.6849 L292.2557,33.3516 L278.9224,33.3516 M295.589,40.0182 L295.589,50.0182 L285.589,50.0182 L285.589,53.3516 L298.9224,53.3516 L298.9224,40.0182 L295.589,40.0182 M302.2557,46.6849 L302.2557,56.6849 L292.2557,56.6849 L292.2557,60.0182 L305.589,60.0182 L305.589,46.6849 L302.2557,46.6849" fill="#0A9EFD"/></g><g class="participant participant-tail" data-participant="SDK"><rect fill="none" height="40.6667" rx="2.5" ry="2.5" style="stroke:#0A9EFD;stroke-width:2;" width="42.6667" x="270.9224" y="370.5055"/><path d="M278.9224,377.5055 L278.9224,390.8389 L292.2557,390.8389 L292.2557,377.5055 L278.9224,377.5055 M295.589,384.1722 L295.589,394.1722 L285.589,394.1722 L285.589,397.5055 L298.9224,397.5055 L298.9224,384.1722 L295.589,384.1722 M302.2557,390.8389 L302.2557,400.8389 L292.2557,400.8389 L292.2557,404.1722 L305.589,404.1722 L305.589,390.8389 L302.2557,390.8389" fill="#0A9EFD"/></g><g class="participant participant-head" data-participant="RTN"><rect fill="none" height="40.6667" rx="2.5" ry="2.5" style="stroke:#0A9EFD;stroke-width:2;" width="42.6667" x="488.7489" y="26.3516"/><path d="M511.7489,36.6849 C507.7156,36.6849 504.1823,39.5516 503.4156,43.3516 C499.7489,43.3516 496.7489,46.3516 496.7489,50.0182 C496.7489,53.6849 499.7489,56.6849 503.4156,56.6849 L518.4156,56.6849 C521.1823,56.6849 523.4156,54.4516 523.4156,51.6849 C523.4156,49.5182 522.0156,47.3849 520.0823,46.6849 L520.0823,45.0182 C520.0823,40.4182 516.3489,36.6849 511.7489,36.6849" fill="#0A9EFD"/></g><g class="participant participant-tail" data-participant="RTN"><rect fill="none" height="40.6667" rx="2.5" ry="2.5" style="stroke:#0A9EFD;stroke-width:2;" width="42.6667" x="488.7489" y="370.5055"/><path d="M511.7489,380.8389 C507.7156,380.8389 504.1823,383.7055 503.4156,387.5055 C499.7489,387.5055 496.7489,390.5055 496.7489,394.1722 C496.7489,397.8389 499.7489,400.8389 503.4156,400.8389 L518.4156,400.8389 C521.1823,400.8389 523.4156,398.6055 523.4156,395.8389 C523.4156,393.6722 522.0156,391.5389 520.0823,390.8389 L520.0823,389.1722 C520.0823,384.5722 516.3489,380.8389 511.7489,380.8389" fill="#0A9EFD"/></g><g class="message" data-participant-1="APP" data-participant-2="SDK"><polygon fill="#0A9EFD" points="280.2557,94.967,290.2557,98.967,280.2557,102.967,284.2557,98.967" style="stroke:#0A9EFD;stroke-width:1;"/><line style="stroke:#0A9EFD;stroke-width:2;" x1="41.3333" x2="286.2557" y1="98.967" y2="98.967"/><text fill="#0A9EFD" font-family="Arial" font-size="13" lengthAdjust="spacing" textLength="178.5088" x="77.5401" y="94.2121">Create and initialize the engine</text></g><path d="M10,113.967 L182.1816,113.967 L182.1816,120.9157 L172.1816,130.9157 L10,130.9157 L10,113.967" fill="#EEEEEE" style="stroke:#0A9EFD;stroke-width:1.5;"/><rect fill="none" height="153.6924" style="stroke:#0A9EFD;stroke-width:2;" width="531.4156" x="10" y="113.967"/><text fill="#000000" font-family="Arial" font-size="13" lengthAdjust="spacing" textLength="127.1816" x="25" y="127.1608">Custom audio capture</text><g class="message" data-participant-1="APP" data-participant-2="SDK"><polygon fill="#0A9EFD" points="280.2557,158.3388,290.2557,162.3388,280.2557,166.3388,284.2557,162.3388" style="stroke:#0A9EFD;stroke-width:1;"/><line style="stroke:#0A9EFD;stroke-width:2;" x1="41.3333" x2="286.2557" y1="162.3388" y2="162.3388"/><text fill="#0A9EFD" font-family="Arial" font-size="13" lengthAdjust="spacing" textLength="226.9224" x="53.3333" y="157.5839">Set up an external audio source for use</text></g><path d="M297,135.9157 L297,174.9157 L512,174.9157 L512,145.9157 L502,135.9157 L297,135.9157" fill="none" style="stroke:#0A9EFD;stroke-width:1;"/><path d="M502,135.9157 L502,145.9157 L512,145.9157 L502,135.9157" fill="none" style="stroke:#0A9EFD;stroke-width:1;"/><text fill="#0A9EFD" font-family="Arial" font-size="13" lengthAdjust="spacing" textLength="185.0278" x="312" y="153.1095">You manage audio data capture</text><text fill="#0A9EFD" font-family="Arial" font-size="13" lengthAdjust="spacing" textLength="162.6016" x="325.019" y="168.0583">and processing on your own</text><g class="message" data-participant-1="APP" data-participant-2="SDK"><polygon fill="#0A9EFD" points="280.2557,197.7619,290.2557,201.7619,280.2557,205.7619,284.2557,201.7619" style="stroke:#0A9EFD;stroke-width:1;"/><line style="stroke:#0A9EFD;stroke-width:2;" x1="41.3333" x2="286.2557" y1="201.7619" y2="201.7619"/><text fill="#0A9EFD" font-family="Arial" font-size="13" lengthAdjust="spacing" textLength="83.8398" x="124.8746" y="197.007">Join a channel</text></g><g class="message" data-participant-1="SDK" data-participant-2="RTN"><polygon fill="#0A9EFD" points="498.0823,226.7106,508.0823,230.7106,498.0823,234.7106,502.0823,230.7106" style="stroke:#0A9EFD;stroke-width:1;"/><line style="stroke:#0A9EFD;stroke-width:2;" x1="292.2557" x2="504.0823" y1="230.7106" y2="230.7106"/><text fill="#0A9EFD" font-family="Arial" font-size="13" lengthAdjust="spacing" textLength="157.5552" x="322.3914" y="225.9557">Request to join the channel</text></g><g class="message" data-participant-1="APP" data-participant-2="SDK"><polygon fill="#0A9EFD" points="280.2557,255.6593,290.2557,259.6593,280.2557,263.6593,284.2557,259.6593" style="stroke:#0A9EFD;stroke-width:1;"/><line style="stroke:#0A9EFD;stroke-width:2;" x1="41.3333" x2="286.2557" y1="259.6593" y2="259.6593"/><text fill="#0A9EFD" font-family="Arial" font-size="13" lengthAdjust="spacing" textLength="179.9688" x="76.8101" y="254.9045">Send the processed audio data</text></g><g class="message" data-participant-1="APP" data-participant-2="SDK"><polygon fill="#0A9EFD" points="280.2557,291.6081,290.2557,295.6081,280.2557,299.6081,284.2557,295.6081" style="stroke:#0A9EFD;stroke-width:1;"/><line style="stroke:#0A9EFD;stroke-width:2;" x1="41.3333" x2="286.2557" y1="295.6081" y2="295.6081"/><text fill="#0A9EFD" font-family="Arial" font-size="13" lengthAdjust="spacing" textLength="106.2534" x="113.6678" y="290.8532">Leave the channel</text></g><g class="message" data-participant-1="SDK" data-participant-2="RTN"><polygon fill="#0A9EFD" points="498.0823,320.5568,508.0823,324.5568,498.0823,328.5568,502.0823,324.5568" style="stroke:#0A9EFD;stroke-width:1;"/><line style="stroke:#0A9EFD;stroke-width:2;" x1="292.2557" x2="504.0823" y1="324.5568" y2="324.5568"/><text fill="#0A9EFD" font-family="Arial" font-size="13" lengthAdjust="spacing" textLength="168.397" x="316.9705" y="319.8019">Request to leave the channel</text></g><g class="message" data-participant-1="APP" data-participant-2="SDK"><polygon fill="#0A9EFD" points="280.2557,349.5055,290.2557,353.5055,280.2557,357.5055,284.2557,353.5055" style="stroke:#0A9EFD;stroke-width:1;"/><line style="stroke:#0A9EFD;stroke-width:2;" x1="41.3333" x2="286.2557" y1="353.5055" y2="353.5055"/><text fill="#0A9EFD" font-family="Arial" font-size="13" lengthAdjust="spacing" textLength="109.1226" x="112.2332" y="348.7507">Destroy the engine</text></g><!--SRC=[TP1BJiD038RtSmgJ1RiY5goYAbBLhW2XgcM3X8JSnAG34plC0reEnI4u6GvDrV3erlx-XtrYkNIf8i1QF3w4PyjdDZNEc9Li89kqRMPQzD6MjaMEa8s3VQVyuhmOdqPSEOf51XXWCfyRuWfKrKkNiwlZKeTRyc4dLV2NTD9rqVdYzkRpuxX9wIHLEmyb3nxQPLIeQmvJJnZrDjrOjj6YKp74DG5nRPcCgRsa5gOfH6a0KsK5IcnZyZImML84fP21Df4ye-lH8CcN18_Y8GKoB1hcRRsEETn9WWOPQ-hP2YFklU_vkrFhfQGGBDSW35ir0tdZGV2bM2MXN2CpEQEpKQ6dvh2WbqGXGXHuwfZkf3qrxAqXtQeFechGfVlNWBqcVAKVFl-ckJ_OmMAcZ9VjyBzV]--></g></svg>