<?xml version="1.0" encoding="us-ascii" standalone="no"?><svg xmlns="http://www.w3.org/2000/svg" xmlns:xlink="http://www.w3.org/1999/xlink" contentStyleType="text/css" height="475px" preserveAspectRatio="none" style="width:526px;height:475px;" version="1.1" viewBox="0 0 526 475" width="526px" zoomAndPan="magnify"><defs/><g><rect fill="none" height="473.0286" style="stroke:#0A9EFD;stroke-width:1.0;" width="524" x="0" y="0"/><rect fill="#999999" fill-opacity="0.33333" height="463.0286" style="stroke:#0A9EFD;stroke-width:0.5;" width="50.6667" x="16" y="6"/><text fill="#0A9EFD" font-family="sans-serif" font-size="13" font-weight="bold" lengthAdjust="spacing" textLength="28" x="27.3333" y="18.5684">App</text><rect fill="#999999" fill-opacity="0.33333" height="463.0286" style="stroke:#0A9EFD;stroke-width:0.5;" width="50.6667" x="227" y="6"/><text fill="#0A9EFD" font-family="sans-serif" font-size="13" font-weight="bold" lengthAdjust="spacing" textLength="26" x="239.3333" y="18.5684">SDK</text><rect fill="#999999" fill-opacity="0.33333" height="463.0286" style="stroke:#0A9EFD;stroke-width:0.5;" width="107" x="413" y="6"/><text fill="#0A9EFD" font-family="sans-serif" font-size="13" font-weight="bold" lengthAdjust="spacing" textLength="101" x="416" y="18.5684">Agora SDRTN&#174;</text><rect fill="#0A9EFD" fill-opacity="0.06667" height="74.8462" style="stroke:#0A9EFD;stroke-width:2.0;" width="487.8333" x="10" y="141.8747"/><rect fill="#0A9EFD" fill-opacity="0.06667" height="60.8462" style="stroke:#0A9EFD;stroke-width:2.0;" width="273.6667" x="10" y="230.7209"/><line style="stroke:#0A9EFD;stroke-width:0.5;stroke-dasharray:5.0,5.0;" x1="41" x2="41" y1="66.9772" y2="424.362"/><line style="stroke:#0A9EFD;stroke-width:0.5;stroke-dasharray:5.0,5.0;" x1="252" x2="252" y1="66.9772" y2="424.362"/><line style="stroke:#0A9EFD;stroke-width:0.5;stroke-dasharray:5.0,5.0;" x1="466.1667" x2="466.1667" y1="66.9772" y2="424.362"/><rect fill="none" height="40.6667" rx="2.5" ry="2.5" style="stroke:#0A9EFD;stroke-width:2.0;" width="42.6667" x="20" y="25.3105"/><path d="M29.1333,32.3105 C28.5333,32.3105 28,32.8439 28,33.4439 L28,57.8105 C28,58.4105 28.5333,58.9439 29.1333,58.9439 L50.1667,58.9439 C50.7667,58.9439 51.3,58.4105 51.3,57.8105 L51.3,33.4439 C51.3,32.8439 50.7667,32.3105 50.1667,32.3105 L29.1333,32.3105 M31.3333,35.6439 L48,35.6439 L48,52.3105 L31.3333,52.3105 L31.3333,35.6439 M39.6667,53.9772 C40.9333,53.9772 41.7667,55.3772 41.1333,56.4772 C40.5,57.5772 38.8667,57.5772 38.2,56.4772 C37.5667,55.3772 38.3667,53.9772 39.6667,53.9772 " fill="#0A9EFD" style="stroke:;stroke-width:0.0;stroke-dasharray:;"/><rect fill="none" height="40.6667" rx="2.5" ry="2.5" style="stroke:#0A9EFD;stroke-width:2.0;" width="42.6667" x="20" y="423.362"/><path d="M29.1333,430.362 C28.5333,430.362 28,430.8953 28,431.4953 L28,455.862 C28,456.462 28.5333,456.9953 29.1333,456.9953 L50.1667,456.9953 C50.7667,456.9953 51.3,456.462 51.3,455.862 L51.3,431.4953 C51.3,430.8953 50.7667,430.362 50.1667,430.362 L29.1333,430.362 M31.3333,433.6953 L48,433.6953 L48,450.362 L31.3333,450.362 L31.3333,433.6953 M39.6667,452.0286 C40.9333,452.0286 41.7667,453.4286 41.1333,454.5286 C40.5,455.6286 38.8667,455.6286 38.2,454.5286 C37.5667,453.4286 38.3667,452.0286 39.6667,452.0286 " fill="#0A9EFD" style="stroke:;stroke-width:0.0;stroke-dasharray:;"/><rect fill="none" height="40.6667" rx="2.5" ry="2.5" style="stroke:#0A9EFD;stroke-width:2.0;" width="42.6667" x="231" y="25.3105"/><path d="M239,32.3105 L239,45.6439 L252.3333,45.6439 L252.3333,32.3105 L239,32.3105 M255.6667,38.9772 L255.6667,48.9772 L245.6667,48.9772 L245.6667,52.3105 L259,52.3105 L259,38.9772 L255.6667,38.9772 M262.3333,45.6439 L262.3333,55.6439 L252.3333,55.6439 L252.3333,58.9772 L265.6667,58.9772 L265.6667,45.6439 L262.3333,45.6439 " fill="#0A9EFD" style="stroke:;stroke-width:0.0;stroke-dasharray:;"/><rect fill="none" height="40.6667" rx="2.5" ry="2.5" style="stroke:#0A9EFD;stroke-width:2.0;" width="42.6667" x="231" y="423.362"/><path d="M239,430.362 L239,443.6953 L252.3333,443.6953 L252.3333,430.362 L239,430.362 M255.6667,437.0286 L255.6667,447.0286 L245.6667,447.0286 L245.6667,450.362 L259,450.362 L259,437.0286 L255.6667,437.0286 M262.3333,443.6953 L262.3333,453.6953 L252.3333,453.6953 L252.3333,457.0286 L265.6667,457.0286 L265.6667,443.6953 L262.3333,443.6953 " fill="#0A9EFD" style="stroke:;stroke-width:0.0;stroke-dasharray:;"/><rect fill="none" height="40.6667" rx="2.5" ry="2.5" style="stroke:#0A9EFD;stroke-width:2.0;" width="42.6667" x="445.1667" y="25.3105"/><path d="M468.1667,32.3105 C464.1333,32.3105 460.6,35.1772 459.8333,38.9772 C456.1667,38.9772 453.1667,41.9772 453.1667,45.6439 C453.1667,49.3105 456.1667,52.3105 459.8333,52.3105 L474.8333,52.3105 C477.6,52.3105 479.8333,50.0772 479.8333,47.3105 C479.8333,45.1439 478.4333,43.0105 476.5,42.3105 L476.5,40.6439 C476.5,36.0439 472.7667,32.3105 468.1667,32.3105 " fill="#0A9EFD" style="stroke:;stroke-width:0.0;stroke-dasharray:;"/><rect fill="none" height="40.6667" rx="2.5" ry="2.5" style="stroke:#0A9EFD;stroke-width:2.0;" width="42.6667" x="445.1667" y="423.362"/><path d="M468.1667,430.362 C464.1333,430.362 460.6,433.2286 459.8333,437.0286 C456.1667,437.0286 453.1667,440.0286 453.1667,443.6953 C453.1667,447.362 456.1667,450.362 459.8333,450.362 L474.8333,450.362 C477.6,450.362 479.8333,448.1286 479.8333,445.362 C479.8333,443.1953 478.4333,441.062 476.5,440.362 L476.5,438.6953 C476.5,434.0953 472.7667,430.362 468.1667,430.362 " fill="#0A9EFD" style="stroke:;stroke-width:0.0;stroke-dasharray:;"/><polygon fill="#0A9EFD" points="240.3333,93.9259,250.3333,97.9259,240.3333,101.9259,244.3333,97.9259" style="stroke:#0A9EFD;stroke-width:1.0;"/><line style="stroke:#0A9EFD;stroke-width:2.0;" x1="41.3333" x2="246.3333" y1="97.9259" y2="97.9259"/><text fill="#0A9EFD" font-family="Arial" font-size="13" lengthAdjust="spacing" textLength="178" x="57.8333" y="93.1711">Create and initialize the engine</text><polygon fill="#0A9EFD" points="240.3333,122.8747,250.3333,126.8747,240.3333,130.8747,244.3333,126.8747" style="stroke:#0A9EFD;stroke-width:1.0;"/><line style="stroke:#0A9EFD;stroke-width:2.0;" x1="41.3333" x2="246.3333" y1="126.8747" y2="126.8747"/><text fill="#0A9EFD" font-family="Arial" font-size="13" lengthAdjust="spacing" textLength="168" x="62.8333" y="122.1198">Create custom video track(s)</text><path d="M10,141.8747 L135,141.8747 L135,148.8234 L125,158.8234 L10,158.8234 L10,141.8747 " fill="#EEEEEE" style="stroke:#0A9EFD;stroke-width:1.5;"/><rect fill="none" height="74.8462" style="stroke:#0A9EFD;stroke-width:2.0;" width="487.8333" x="10" y="141.8747"/><text fill="#000000" font-family="Arial" font-size="13" lengthAdjust="spacing" textLength="80" x="25" y="155.0685">Join channels</text><polygon fill="#0A9EFD" points="240.3333,175.7721,250.3333,179.7721,240.3333,183.7721,244.3333,179.7721" style="stroke:#0A9EFD;stroke-width:1.0;"/><line style="stroke:#0A9EFD;stroke-width:2.0;" x1="41.3333" x2="246.3333" y1="179.7721" y2="179.7721"/><text fill="#0A9EFD" font-family="Arial" font-size="13" lengthAdjust="spacing" textLength="88" x="102.8333" y="175.0173">Join channel(s)</text><polygon fill="#0A9EFD" points="454.5,204.7209,464.5,208.7209,454.5,212.7209,458.5,208.7209" style="stroke:#0A9EFD;stroke-width:1.0;"/><line style="stroke:#0A9EFD;stroke-width:2.0;" x1="252.3333" x2="460.5" y1="208.7209" y2="208.7209"/><text fill="#0A9EFD" font-family="Arial" font-size="13" lengthAdjust="spacing" textLength="151" x="283.9167" y="203.966">Request to join channel(s)</text><path d="M10,230.7209 L164,230.7209 L164,237.6696 L154,247.6696 L10,247.6696 L10,230.7209 " fill="#EEEEEE" style="stroke:#0A9EFD;stroke-width:1.5;"/><rect fill="none" height="60.8462" style="stroke:#0A9EFD;stroke-width:2.0;" width="273.6667" x="10" y="230.7209"/><text fill="#000000" font-family="Arial" font-size="13" lengthAdjust="spacing" textLength="109" x="25" y="243.9147">Push video frames</text><polygon fill="#0A9EFD" points="240.3333,279.5671,250.3333,283.5671,240.3333,287.5671,244.3333,283.5671" style="stroke:#0A9EFD;stroke-width:1.0;"/><line style="stroke:#0A9EFD;stroke-width:2.0;" x1="41.3333" x2="246.3333" y1="283.5671" y2="283.5671"/><text fill="#0A9EFD" font-family="Arial" font-size="13" lengthAdjust="spacing" textLength="155" x="69.3333" y="263.8634">Push video frames to SDK</text><text fill="#0A9EFD" font-family="Arial" font-size="13" lengthAdjust="spacing" textLength="183" x="57.3333" y="278.8122">using the custom video track(s)</text><polygon fill="#0A9EFD" points="240.3333,315.5158,250.3333,319.5158,240.3333,323.5158,244.3333,319.5158" style="stroke:#0A9EFD;stroke-width:1.0;"/><line style="stroke:#0A9EFD;stroke-width:2.0;" x1="41.3333" x2="246.3333" y1="319.5158" y2="319.5158"/><text fill="#0A9EFD" font-family="Arial" font-size="13" lengthAdjust="spacing" textLength="175" x="59.3333" y="314.7609">Destroy custom video track(s)</text><polygon fill="#0A9EFD" points="240.3333,344.4645,250.3333,348.4645,240.3333,352.4645,244.3333,348.4645" style="stroke:#0A9EFD;stroke-width:1.0;"/><line style="stroke:#0A9EFD;stroke-width:2.0;" x1="41.3333" x2="246.3333" y1="348.4645" y2="348.4645"/><text fill="#0A9EFD" font-family="Arial" font-size="13" lengthAdjust="spacing" textLength="99" x="97.3333" y="343.7096">Leave channel(s)</text><polygon fill="#0A9EFD" points="454.5,373.4132,464.5,377.4132,454.5,381.4132,458.5,377.4132" style="stroke:#0A9EFD;stroke-width:1.0;"/><line style="stroke:#0A9EFD;stroke-width:2.0;" x1="252.3333" x2="460.5" y1="377.4132" y2="377.4132"/><text fill="#0A9EFD" font-family="Arial" font-size="13" lengthAdjust="spacing" textLength="162" x="278.4167" y="372.6584">Request to leave channel(s)</text><polygon fill="#0A9EFD" points="240.3333,402.362,250.3333,406.362,240.3333,410.362,244.3333,406.362" style="stroke:#0A9EFD;stroke-width:1.0;"/><line style="stroke:#0A9EFD;stroke-width:2.0;" x1="41.3333" x2="246.3333" y1="406.362" y2="406.362"/><text fill="#0A9EFD" font-family="Arial" font-size="13" lengthAdjust="spacing" textLength="109" x="92.3333" y="401.6071">Destroy the engine</text><!--SRC=[XP1DJiD038NtEON90i6YY0Mhg8eKqHKW51MMICXDtCHqCXFcfw8SYaDmCfosg552nDP-x_DxFcDTg50IO6KilheDwoiEZOgYbVc0E6lRE6hHUYwuHUqXdZl-fEJcEfsVUrmfycaCw23ByuXq2U8wMfyMzzDMXJkoxc0LuS2QTLbaldn-_FwQXXJAXFB04EM98LbcgL0JkBM4Nhh9XZLxHYLcy3K1wOerZQL5SDuqiEMI37YBnUR2NKPHPKreuSwmXg96hKcvdhS_x-GodAKIAO4blGTo7ho1ju58ulvoy-3guycrnORwxD6kOydcHKDmhAjzcxzJxo-SI0i9Oirkgk99-42ufN_xgA5gVAdtw1y0]--></g></svg>