<svg xmlns="http://www.w3.org/2000/svg" xmlns:xlink="http://www.w3.org/1999/xlink" contentStyleType="text/css" data-diagram-type="SEQUENCE" height="908px" preserveAspectRatio="none" style="width:538px;height:908px;" version="1.1" viewBox="0 0 538 908" width="538px" zoomAndPan="magnify"><defs/><g><rect fill="none" height="906.9668" style="stroke:#0A9EFD;stroke-width:1;" width="536.375" x="0" y="0"/><rect fill="#999999" fill-opacity="0.33333" height="896.9668" style="stroke:#0A9EFD;stroke-width:0.5;" width="83.4482" x="103.8696" y="6"/><text fill="#0A9EFD" font-family="sans-serif" font-size="13" font-weight="bold" lengthAdjust="spacing" textLength="56.3354" x="117.426" y="19.4951">Your app</text><rect fill="#999999" fill-opacity="0.33333" height="896.9668" style="stroke:#0A9EFD;stroke-width:0.5;" width="80.5361" x="445.8389" y="6"/><text fill="#0A9EFD" font-family="sans-serif" font-size="13" font-weight="bold" lengthAdjust="spacing" textLength="37.5591" x="467.3274" y="19.4951">Agora</text><rect fill="#0A9EFD" fill-opacity="0.06667" height="100.8462" style="stroke:#0A9EFD;stroke-width:2;" width="283.522" x="97.8696" y="132.0474"/><rect fill="#0A9EFD" fill-opacity="0.06667" height="89.7949" style="stroke:#0A9EFD;stroke-width:2;" width="434.5054" x="97.8696" y="246.8936"/><rect fill="#0A9EFD" fill-opacity="0.06667" height="162.6411" style="stroke:#0A9EFD;stroke-width:2;" width="434.5054" x="97.8696" y="350.6885"/><rect fill="#0A9EFD" fill-opacity="0.06667" height="174.6924" style="stroke:#0A9EFD;stroke-width:2;" width="522.375" x="10" y="627.1758"/><g><title>User</title><rect fill="#000000" fill-opacity="0.00000" height="732.7695" width="8" x="33.7793" y="86.0986"/><line style="stroke:#0A9EFD;stroke-width:0.5;stroke-dasharray:5.0,5.0;" x1="37" x2="37" y1="86.0986" y2="818.8682"/></g><g><title>RTC SDK</title><rect fill="#000000" fill-opacity="0.00000" height="732.7695" width="8" x="141.5938" y="86.0986"/><line style="stroke:#0A9EFD;stroke-width:0.5;stroke-dasharray:5.0,5.0;" x1="144.8696" x2="144.8696" y1="86.0986" y2="818.8682"/></g><g><title>SDRTN&#174;</title><rect fill="#000000" fill-opacity="0.00000" height="732.7695" width="8" x="482.1069" y="86.0986"/><line style="stroke:#0A9EFD;stroke-width:0.5;stroke-dasharray:5.0,5.0;" x1="485.8389" x2="485.8389" y1="86.0986" y2="818.8682"/></g><g class="participant participant-head" data-participant="USR"><text fill="#0A9EFD" font-family="Arial" font-size="14" lengthAdjust="spacing" textLength="29.5586" x="20" y="83.1318">User</text><ellipse cx="37.7793" cy="16" fill="none" rx="8" ry="8" style="stroke:#0A9EFD;stroke-width:3;"/><path d="M37.7793,24 L37.7793,51 M24.7793,32 L50.7793,32 M37.7793,51 L24.7793,66 M37.7793,51 L50.7793,66" fill="none" style="stroke:#0A9EFD;stroke-width:3;"/></g><g class="participant participant-tail" data-participant="USR"><text fill="#0A9EFD" font-family="Arial" font-size="14" lengthAdjust="spacing" textLength="29.5586" x="20" y="831">User</text><ellipse cx="37.7793" cy="844.9668" fill="none" rx="8" ry="8" style="stroke:#0A9EFD;stroke-width:3;"/><path d="M37.7793,852.9668 L37.7793,879.9668 M24.7793,860.9668 L50.7793,860.9668 M37.7793,879.9668 L24.7793,894.9668 M37.7793,879.9668 L50.7793,894.9668" fill="none" style="stroke:#0A9EFD;stroke-width:3;"/></g><g class="participant participant-head" data-participant="APP"><rect fill="none" height="30.0986" rx="2.5" ry="2.5" style="stroke:#0A9EFD;stroke-width:2;" width="75.4482" x="107.8696" y="55"/><text fill="#0A9EFD" font-family="Arial" font-size="14" lengthAdjust="spacing" textLength="61.4482" x="114.8696" y="75.1318">RTC SDK</text></g><g class="participant participant-tail" data-participant="APP"><rect fill="none" height="30.0986" rx="2.5" ry="2.5" style="stroke:#0A9EFD;stroke-width:2;" width="75.4482" x="107.8696" y="817.8682"/><text fill="#0A9EFD" font-family="Arial" font-size="14" lengthAdjust="spacing" textLength="61.4482" x="114.8696" y="838">RTC SDK</text></g><g class="participant participant-head" data-participant="API"><rect fill="none" height="30.0986" rx="2.5" ry="2.5" style="stroke:#0A9EFD;stroke-width:2;" width="72.5361" x="449.8389" y="55"/><text fill="#0A9EFD" font-family="Arial" font-size="14" lengthAdjust="spacing" textLength="58.5361" x="456.8389" y="75.1318">SDRTN&#174;</text></g><g class="participant participant-tail" data-participant="API"><rect fill="none" height="30.0986" rx="2.5" ry="2.5" style="stroke:#0A9EFD;stroke-width:2;" width="72.5361" x="449.8389" y="817.8682"/><text fill="#0A9EFD" font-family="Arial" font-size="14" lengthAdjust="spacing" textLength="58.5361" x="456.8389" y="838">SDRTN&#174;</text></g><g class="message" data-participant-1="USR" data-participant-2="APP"><polygon fill="#0A9EFD" points="133.5938,113.0474,143.5938,117.0474,133.5938,121.0474,137.5938,117.0474" style="stroke:#0A9EFD;stroke-width:1;"/><line style="stroke:#0A9EFD;stroke-width:2;" x1="37.7793" x2="139.5938" y1="117.0474" y2="117.0474"/><text fill="#0A9EFD" font-family="Arial" font-size="13" lengthAdjust="spacing" textLength="58.5444" x="62.4143" y="112.2925">Open App</text></g><path d="M97.8696,132.0474 L262.8403,132.0474 L262.8403,138.9961 L252.8403,148.9961 L97.8696,148.9961 L97.8696,132.0474" fill="#EEEEEE" style="stroke:#0A9EFD;stroke-width:1.5;"/><rect fill="none" height="100.8462" style="stroke:#0A9EFD;stroke-width:2;" width="283.522" x="97.8696" y="132.0474"/><text fill="#000000" font-family="Arial" font-size="13" lengthAdjust="spacing" textLength="119.9707" x="112.8696" y="145.2412">Create Agora engine</text><g class="message" data-participant-1="APP" data-participant-2="APP"><line style="stroke:#0A9EFD;stroke-width:2;" x1="145.5938" x2="187.5938" y1="169.9448" y2="169.9448"/><line style="stroke:#0A9EFD;stroke-width:2;" x1="187.5938" x2="187.5938" y1="169.9448" y2="182.9448"/><line style="stroke:#0A9EFD;stroke-width:2;" x1="146.5938" x2="187.5938" y1="182.9448" y2="182.9448"/><polygon fill="#0A9EFD" points="156.5938,178.9448,146.5938,182.9448,156.5938,186.9448,152.5938,182.9448" style="stroke:#0A9EFD;stroke-width:1;"/><text fill="#0A9EFD" font-family="Arial" font-size="13" lengthAdjust="spacing" textLength="216.7979" x="152.5938" y="165.1899">Set log file path, log level and file size</text></g><g class="message" data-participant-1="APP" data-participant-2="APP"><line style="stroke:#0A9EFD;stroke-width:2;" x1="145.5938" x2="187.5938" y1="211.8936" y2="211.8936"/><line style="stroke:#0A9EFD;stroke-width:2;" x1="187.5938" x2="187.5938" y1="211.8936" y2="224.8936"/><line style="stroke:#0A9EFD;stroke-width:2;" x1="146.5938" x2="187.5938" y1="224.8936" y2="224.8936"/><polygon fill="#0A9EFD" points="156.5938,220.8936,146.5938,224.8936,156.5938,228.8936,152.5938,224.8936" style="stroke:#0A9EFD;stroke-width:1;"/><text fill="#0A9EFD" font-family="Arial" font-size="13" lengthAdjust="spacing" textLength="121.4116" x="152.5938" y="207.1387">Create Agora Engine</text></g><path d="M97.8696,246.8936 L313.4058,246.8936 L313.4058,253.8423 L303.4058,263.8423 L97.8696,263.8423 L97.8696,246.8936" fill="#EEEEEE" style="stroke:#0A9EFD;stroke-width:1.5;"/><rect fill="none" height="89.7949" style="stroke:#0A9EFD;stroke-width:2;" width="434.5054" x="97.8696" y="246.8936"/><text fill="#000000" font-family="Arial" font-size="13" lengthAdjust="spacing" textLength="170.5361" x="112.8696" y="260.0874">Best practice for app initiation</text><g class="message" data-participant-1="APP" data-participant-2="API"><polygon fill="#0A9EFD" points="474.1069,295.7397,484.1069,299.7397,474.1069,303.7397,478.1069,299.7397" style="stroke:#0A9EFD;stroke-width:1;"/><line style="stroke:#0A9EFD;stroke-width:2;" x1="145.5938" x2="480.1069" y1="299.7397" y2="299.7397"/><text fill="#0A9EFD" font-family="Arial" font-size="13" lengthAdjust="spacing" textLength="148.8589" x="241.4209" y="280.0361">Enable dual-stream mode</text><text fill="#0A9EFD" font-family="Arial" font-size="13" lengthAdjust="spacing" textLength="265.9033" x="184.7046" y="294.9849">to allow remote users to choose a stream type</text></g><g class="message" data-participant-1="APP" data-participant-2="API"><polygon fill="#0A9EFD" points="474.1069,324.6885,484.1069,328.6885,474.1069,332.6885,478.1069,328.6885" style="stroke:#0A9EFD;stroke-width:1;"/><line style="stroke:#0A9EFD;stroke-width:2;" x1="145.5938" x2="480.1069" y1="328.6885" y2="328.6885"/><text fill="#0A9EFD" font-family="Arial" font-size="13" lengthAdjust="spacing" textLength="316.5132" x="157.5938" y="323.9336">Set local publish and remote subscribe fallback options</text></g><path d="M97.8696,350.6885 L227.4141,350.6885 L227.4141,357.6372 L217.4141,367.6372 L97.8696,367.6372 L97.8696,350.6885" fill="#EEEEEE" style="stroke:#0A9EFD;stroke-width:1.5;"/><rect fill="none" height="162.6411" style="stroke:#0A9EFD;stroke-width:2;" width="434.5054" x="97.8696" y="350.6885"/><text fill="#000000" font-family="Arial" font-size="13" lengthAdjust="spacing" textLength="84.5444" x="112.8696" y="363.8823">Settings check</text><g class="message" data-participant-1="APP" data-participant-2="API"><polygon fill="#0A9EFD" points="474.1069,399.5347,484.1069,403.5347,474.1069,407.5347,478.1069,403.5347" style="stroke:#0A9EFD;stroke-width:1;"/><line style="stroke:#0A9EFD;stroke-width:2;" x1="145.5938" x2="480.1069" y1="403.5347" y2="403.5347"/><text fill="#0A9EFD" font-family="Arial" font-size="13" lengthAdjust="spacing" textLength="195.1206" x="218.29" y="383.8311">Specify audio profile and scenario</text><text fill="#0A9EFD" font-family="Arial" font-size="13" lengthAdjust="spacing" textLength="177.0869" x="229.1128" y="398.7798">based on the nature of the app</text></g><g class="message" data-participant-1="APP" data-participant-2="API"><polygon fill="#0A9EFD" points="474.1069,428.4834,484.1069,432.4834,474.1069,436.4834,478.1069,432.4834" style="stroke:#0A9EFD;stroke-width:1;"/><line style="stroke:#0A9EFD;stroke-width:2;" x1="145.5938" x2="480.1069" y1="432.4834" y2="432.4834"/><text fill="#0A9EFD" font-family="Arial" font-size="13" lengthAdjust="spacing" textLength="182.8442" x="224.4282" y="427.7285">Set video encoder configuration</text></g><g class="message" data-participant-1="APP" data-participant-2="API"><polygon fill="#0A9EFD" points="474.1069,457.4321,484.1069,461.4321,474.1069,465.4321,478.1069,461.4321" style="stroke:#0A9EFD;stroke-width:1;"/><line style="stroke:#0A9EFD;stroke-width:2;" x1="145.5938" x2="480.1069" y1="461.4321" y2="461.4321"/><text fill="#0A9EFD" font-family="Arial" font-size="13" lengthAdjust="spacing" textLength="266.6396" x="182.5305" y="456.6772">Call the method to start the network probe test</text></g><g class="message" data-participant-1="API" data-participant-2="APP"><polygon fill="#0A9EFD" points="156.5938,501.3296,146.5938,505.3296,156.5938,509.3296,152.5938,505.3296" style="stroke:#0A9EFD;stroke-width:1;"/><line style="stroke:#0A9EFD;stroke-width:2;" x1="150.5938" x2="485.1069" y1="505.3296" y2="505.3296"/><text fill="#0A9EFD" font-family="Arial" font-size="13" lengthAdjust="spacing" textLength="166.1753" x="232.7627" y="485.626">Deliver network quality score</text><text fill="#0A9EFD" font-family="Arial" font-size="13" lengthAdjust="spacing" textLength="124.2744" x="255.519" y="500.5747">and network statistics</text></g><g class="message" data-participant-1="USR" data-participant-2="APP"><polygon fill="#0A9EFD" points="133.5938,537.2783,143.5938,541.2783,133.5938,545.2783,137.5938,541.2783" style="stroke:#0A9EFD;stroke-width:1;"/><line style="stroke:#0A9EFD;stroke-width:2;" x1="37.7793" x2="139.5938" y1="541.2783" y2="541.2783"/><text fill="#0A9EFD" font-family="Arial" font-size="13" lengthAdjust="spacing" textLength="72.998" x="55.1875" y="536.5234">Join channel</text></g><g class="message" data-participant-1="APP" data-participant-2="APP"><line style="stroke:#0A9EFD;stroke-width:2;" x1="145.5938" x2="187.5938" y1="570.2271" y2="570.2271"/><line style="stroke:#0A9EFD;stroke-width:2;" x1="187.5938" x2="187.5938" y1="570.2271" y2="583.2271"/><line style="stroke:#0A9EFD;stroke-width:2;" x1="146.5938" x2="187.5938" y1="583.2271" y2="583.2271"/><polygon fill="#0A9EFD" points="156.5938,579.2271,146.5938,583.2271,156.5938,587.2271,152.5938,583.2271" style="stroke:#0A9EFD;stroke-width:1;"/><text fill="#0A9EFD" font-family="Arial" font-size="13" lengthAdjust="spacing" textLength="75.1689" x="152.5938" y="565.4722">Enable video</text></g><g class="message" data-participant-1="APP" data-participant-2="API"><polygon fill="#0A9EFD" points="474.1069,608.1758,484.1069,612.1758,474.1069,616.1758,478.1069,612.1758" style="stroke:#0A9EFD;stroke-width:1;"/><line style="stroke:#0A9EFD;stroke-width:2;" x1="145.5938" x2="480.1069" y1="612.1758" y2="612.1758"/><text fill="#0A9EFD" font-family="Arial" font-size="13" lengthAdjust="spacing" textLength="72.998" x="279.3513" y="607.4209">Join channel</text></g><path d="M10,627.1758 L195.1753,627.1758 L195.1753,634.1245 L185.1753,644.1245 L10,644.1245 L10,627.1758" fill="#EEEEEE" style="stroke:#0A9EFD;stroke-width:1.5;"/><rect fill="none" height="174.6924" style="stroke:#0A9EFD;stroke-width:2;" width="522.375" x="10" y="627.1758"/><text fill="#000000" font-family="Arial" font-size="13" lengthAdjust="spacing" textLength="140.1753" x="25" y="640.3696">In-call quality monitoring</text><g class="message" data-participant-1="APP" data-participant-2="APP"><line style="stroke:#0A9EFD;stroke-width:2;" x1="145.5938" x2="187.5938" y1="665.0732" y2="665.0732"/><line style="stroke:#0A9EFD;stroke-width:2;" x1="187.5938" x2="187.5938" y1="665.0732" y2="678.0732"/><line style="stroke:#0A9EFD;stroke-width:2;" x1="146.5938" x2="187.5938" y1="678.0732" y2="678.0732"/><polygon fill="#0A9EFD" points="156.5938,674.0732,146.5938,678.0732,156.5938,682.0732,152.5938,678.0732" style="stroke:#0A9EFD;stroke-width:1;"/><text fill="#0A9EFD" font-family="Arial" font-size="13" lengthAdjust="spacing" textLength="156.8062" x="152.5938" y="660.3184">Enable the quality statistics</text></g><g class="message" data-participant-1="API" data-participant-2="APP"><polygon fill="#0A9EFD" points="156.5938,703.022,146.5938,707.022,156.5938,711.022,152.5938,707.022" style="stroke:#0A9EFD;stroke-width:1;"/><line style="stroke:#0A9EFD;stroke-width:2;" x1="150.5938" x2="485.1069" y1="707.022" y2="707.022"/><text fill="#0A9EFD" font-family="Arial" font-size="13" lengthAdjust="spacing" textLength="316.4941" x="157.6033" y="702.2671">Receive network, call, audio and video quality statistics</text></g><g class="message" data-participant-1="API" data-participant-2="APP"><polygon fill="#0A9EFD" points="156.5938,731.9707,146.5938,735.9707,156.5938,739.9707,152.5938,735.9707" style="stroke:#0A9EFD;stroke-width:1;"/><line style="stroke:#0A9EFD;stroke-width:2;" x1="150.5938" x2="485.1069" y1="735.9707" y2="735.9707"/><text fill="#0A9EFD" font-family="Arial" font-size="13" lengthAdjust="spacing" textLength="197.2852" x="217.2078" y="731.2158">Receive state change notifications</text></g><g class="message" data-participant-1="APP" data-participant-2="USR"><polygon fill="#0A9EFD" points="48.7793,760.9194,38.7793,764.9194,48.7793,768.9194,44.7793,764.9194" style="stroke:#0A9EFD;stroke-width:1;"/><line style="stroke:#0A9EFD;stroke-width:2;" x1="42.7793" x2="144.5938" y1="764.9194" y2="764.9194"/><text fill="#0A9EFD" font-family="Arial" font-size="13" lengthAdjust="spacing" textLength="83.8145" x="49.7793" y="760.1646">Notify the user</text></g><g class="message" data-participant-1="APP" data-participant-2="API"><polygon fill="#0A9EFD" points="474.1069,789.8682,484.1069,793.8682,474.1069,797.8682,478.1069,793.8682" style="stroke:#0A9EFD;stroke-width:1;"/><line style="stroke:#0A9EFD;stroke-width:2;" x1="145.5938" x2="480.1069" y1="793.8682" y2="793.8682"/><text fill="#0A9EFD" font-family="Arial" font-size="13" lengthAdjust="spacing" textLength="127.1626" x="252.269" y="789.1133">Take corrective action</text></g><!--SRC=[ZPF1ZXen38RlynGkP-W3SAX4eGTQQRi2zb2fKkN9cC4Y4wT9XYrzg3v4dwnE65YcsqEFcSIV__-tvmqxO_k605i9-2qUsRtblhDLXIP9WCbJf301ZF2qtLHLBJzWyaNw0EZzfF8O4Xlsw19CDhibR5UVokF5usD5hW5zFnGjCl-lYkrgitlu_MkeMBzKQ2-OlSkKENpsv63XVLMrGNeFoq2O20eFoBNi22fzUIlOKW8hBUpP4dXCXsavMZgH1TGMvIBoJngLZRWV2ZSBkhPzJp613veA6uAzb0I07IV6nE9UMEkvbcEjFPeUxImc1NVGIKDV7IG1j5QU8L0dsgxNU6F-QWuYKSS0m_jqzZHYNcmPjE3xsd8y52y39lPrD85hLQRu6iqHn6TPyTw38XAxDcepCiSntPFX_HcmRrZKfvIGSeTeo65WKV4rHcf0rCM1m67g0u7ioqd3UANsn0s9ZiYezG16t9xRFhnEQwcI2wIZT90cfn6Jxicb3QLd2SSiITqbdOBMhczJMv7bazAlpxvhv9pEgbf2pZixkDufD77K-GsXt6_PHs6diQ1pP4ThCOooU1cf7bKC0Q_Tp6GpLnMTw7v8qCp_nSpsRdfVjDtRsv0XzNUrC8MCdmvJojuk6Vyd9LzJqTmgKXBlsU1bImPv6iaS7lBDkSZBwpbolSEZ4YG4qXz1aVb_q77cFFy0]--></g></svg>