<svg xmlns="http://www.w3.org/2000/svg" xmlns:xlink="http://www.w3.org/1999/xlink" contentStyleType="text/css" data-diagram-type="SEQUENCE" height="1021px" preserveAspectRatio="none" style="width:749px;height:1021px;" version="1.1" viewBox="0 0 749 1021" width="749px" zoomAndPan="magnify"><defs/><g><rect fill="none" height="1019.6079" style="stroke:#0A9EFD;stroke-width:1;" width="747.4893" x="0" y="0"/><rect fill="#999999" fill-opacity="0.33333" height="1009.6079" style="stroke:#0A9EFD;stroke-width:0.5;" width="83.4482" x="177.5723" y="6"/><text fill="#0A9EFD" font-family="sans-serif" font-size="13" font-weight="bold" lengthAdjust="spacing" textLength="56.3354" x="191.1287" y="19.4951">Your app</text><rect fill="#999999" fill-opacity="0.33333" height="1009.6079" style="stroke:#0A9EFD;stroke-width:0.5;" width="80.5361" x="656.9531" y="6"/><text fill="#0A9EFD" font-family="sans-serif" font-size="13" font-weight="bold" lengthAdjust="spacing" textLength="37.5591" x="678.4417" y="19.4951">Agora</text><rect fill="#0A9EFD" fill-opacity="0.06667" height="232.5386" style="stroke:#0A9EFD;stroke-width:2;" width="733.4893" x="10" y="245.8423"/><rect fill="#0A9EFD" fill-opacity="0.06667" height="219.5386" style="stroke:#0A9EFD;stroke-width:2;" width="733.4893" x="10" y="492.3809"/><g><title>User</title><rect fill="#000000" fill-opacity="0.00000" height="845.4106" width="8" x="33.7793" y="86.0986"/><line style="stroke:#0A9EFD;stroke-width:0.5;stroke-dasharray:5.0,5.0;" x1="37" x2="37" y1="86.0986" y2="931.5093"/></g><g><title>RTC SDK</title><rect fill="#000000" fill-opacity="0.00000" height="845.4106" width="8" x="215.2964" y="86.0986"/><line style="stroke:#0A9EFD;stroke-width:0.5;stroke-dasharray:5.0,5.0;" x1="218.5723" x2="218.5723" y1="86.0986" y2="931.5093"/></g><g><title>SDRTN&#174;</title><rect fill="#000000" fill-opacity="0.00000" height="845.4106" width="8" x="693.2212" y="86.0986"/><line style="stroke:#0A9EFD;stroke-width:0.5;stroke-dasharray:5.0,5.0;" x1="696.9531" x2="696.9531" y1="86.0986" y2="931.5093"/></g><g class="participant participant-head" data-participant="USR"><text fill="#0A9EFD" font-family="Arial" font-size="14" lengthAdjust="spacing" textLength="29.5586" x="20" y="83.1318">User</text><ellipse cx="37.7793" cy="16" fill="none" rx="8" ry="8" style="stroke:#0A9EFD;stroke-width:3;"/><path d="M37.7793,24 L37.7793,51 M24.7793,32 L50.7793,32 M37.7793,51 L24.7793,66 M37.7793,51 L50.7793,66" fill="none" style="stroke:#0A9EFD;stroke-width:3;"/></g><g class="participant participant-tail" data-participant="USR"><text fill="#0A9EFD" font-family="Arial" font-size="14" lengthAdjust="spacing" textLength="29.5586" x="20" y="943.6411">User</text><ellipse cx="37.7793" cy="957.6079" fill="none" rx="8" ry="8" style="stroke:#0A9EFD;stroke-width:3;"/><path d="M37.7793,965.6079 L37.7793,992.6079 M24.7793,973.6079 L50.7793,973.6079 M37.7793,992.6079 L24.7793,1007.6079 M37.7793,992.6079 L50.7793,1007.6079" fill="none" style="stroke:#0A9EFD;stroke-width:3;"/></g><g class="participant participant-head" data-participant="APP"><rect fill="none" height="30.0986" rx="2.5" ry="2.5" style="stroke:#0A9EFD;stroke-width:2;" width="75.4482" x="181.5723" y="55"/><text fill="#0A9EFD" font-family="Arial" font-size="14" lengthAdjust="spacing" textLength="61.4482" x="188.5723" y="75.1318">RTC SDK</text></g><g class="participant participant-tail" data-participant="APP"><rect fill="none" height="30.0986" rx="2.5" ry="2.5" style="stroke:#0A9EFD;stroke-width:2;" width="75.4482" x="181.5723" y="930.5093"/><text fill="#0A9EFD" font-family="Arial" font-size="14" lengthAdjust="spacing" textLength="61.4482" x="188.5723" y="950.6411">RTC SDK</text></g><g class="participant participant-head" data-participant="API"><rect fill="none" height="30.0986" rx="2.5" ry="2.5" style="stroke:#0A9EFD;stroke-width:2;" width="72.5361" x="660.9531" y="55"/><text fill="#0A9EFD" font-family="Arial" font-size="14" lengthAdjust="spacing" textLength="58.5361" x="667.9531" y="75.1318">SDRTN&#174;</text></g><g class="participant participant-tail" data-participant="API"><rect fill="none" height="30.0986" rx="2.5" ry="2.5" style="stroke:#0A9EFD;stroke-width:2;" width="72.5361" x="660.9531" y="930.5093"/><text fill="#0A9EFD" font-family="Arial" font-size="14" lengthAdjust="spacing" textLength="58.5361" x="667.9531" y="950.6411">SDRTN&#174;</text></g><g class="message" data-participant-1="USR" data-participant-2="APP"><polygon fill="#0A9EFD" points="207.2964,113.0474,217.2964,117.0474,207.2964,121.0474,211.2964,117.0474" style="stroke:#0A9EFD;stroke-width:1;"/><line style="stroke:#0A9EFD;stroke-width:2;" x1="37.7793" x2="213.2964" y1="117.0474" y2="117.0474"/><text fill="#0A9EFD" font-family="Arial" font-size="13" lengthAdjust="spacing" textLength="57.1035" x="99.9861" y="112.2925">Open app</text></g><g class="message" data-participant-1="APP" data-participant-2="APP"><line style="stroke:#0A9EFD;stroke-width:2;" x1="219.2964" x2="261.2964" y1="160.9448" y2="160.9448"/><line style="stroke:#0A9EFD;stroke-width:2;" x1="261.2964" x2="261.2964" y1="160.9448" y2="173.9448"/><line style="stroke:#0A9EFD;stroke-width:2;" x1="220.2964" x2="261.2964" y1="173.9448" y2="173.9448"/><polygon fill="#0A9EFD" points="230.2964,169.9448,220.2964,173.9448,230.2964,177.9448,226.2964,173.9448" style="stroke:#0A9EFD;stroke-width:1;"/><text fill="#0A9EFD" font-family="Arial" font-size="13" lengthAdjust="spacing" textLength="166.918" x="287.5608" y="141.2412">Initiate the RTC SDK engine:</text><text fill="#0A9EFD" font-family="Arial" font-size="13" lengthAdjust="spacing" textLength="282.2231" x="233.52" y="156.1899">agoraEngine = AgoraRtcEngineKit.sharedEngine</text></g><g class="message" data-participant-1="APP" data-participant-2="APP"><line style="stroke:#0A9EFD;stroke-width:2;" x1="219.2964" x2="261.2964" y1="217.8423" y2="217.8423"/><line style="stroke:#0A9EFD;stroke-width:2;" x1="261.2964" x2="261.2964" y1="217.8423" y2="230.8423"/><line style="stroke:#0A9EFD;stroke-width:2;" x1="220.2964" x2="261.2964" y1="230.8423" y2="230.8423"/><polygon fill="#0A9EFD" points="230.2964,226.8423,220.2964,230.8423,230.2964,234.8423,226.2964,230.8423" style="stroke:#0A9EFD;stroke-width:1;"/><text fill="#0A9EFD" font-family="Arial" font-size="13" lengthAdjust="spacing" textLength="143.8188" x="237.1414" y="198.1387">Start video in the engine:</text><text fill="#0A9EFD" font-family="Arial" font-size="13" lengthAdjust="spacing" textLength="158.2852" x="233.52" y="213.0874">agoraEngine.enableVideo()</text></g><path d="M10,245.8423 L81.73,245.8423 L81.73,252.791 L71.73,262.791 L10,262.791 L10,245.8423" fill="#EEEEEE" style="stroke:#0A9EFD;stroke-width:1.5;"/><rect fill="none" height="232.5386" style="stroke:#0A9EFD;stroke-width:2;" width="733.4893" x="10" y="245.8423"/><text fill="#000000" font-family="Arial" font-size="13" lengthAdjust="spacing" textLength="26.73" x="25" y="259.0361">Host</text><g class="message" data-participant-1="USR" data-participant-2="APP"><polygon fill="#0A9EFD" points="207.2964,279.7397,217.2964,283.7397,207.2964,287.7397,211.2964,283.7397" style="stroke:#0A9EFD;stroke-width:1;"/><line style="stroke:#0A9EFD;stroke-width:2;" x1="37.7793" x2="213.2964" y1="283.7397" y2="283.7397"/><text fill="#0A9EFD" font-family="Arial" font-size="13" lengthAdjust="spacing" textLength="157.5171" x="49.7793" y="278.9849">Start a live streaming event</text></g><g class="message" data-participant-1="APP" data-participant-2="APP"><line style="stroke:#0A9EFD;stroke-width:2;" x1="219.2964" x2="261.2964" y1="327.6372" y2="327.6372"/><line style="stroke:#0A9EFD;stroke-width:2;" x1="261.2964" x2="261.2964" y1="327.6372" y2="340.6372"/><line style="stroke:#0A9EFD;stroke-width:2;" x1="220.2964" x2="261.2964" y1="340.6372" y2="340.6372"/><polygon fill="#0A9EFD" points="230.2964,336.6372,220.2964,340.6372,230.2964,344.6372,226.2964,340.6372" style="stroke:#0A9EFD;stroke-width:1;"/><text fill="#0A9EFD" font-family="Arial" font-size="13" lengthAdjust="spacing" textLength="385.1758" x="226.2964" y="307.9336">In an live streaming event, only the hosts broadcast to the channel:</text><text fill="#0A9EFD" font-family="Arial" font-size="13" lengthAdjust="spacing" textLength="235.5742" x="302.9031" y="322.8823">agoraEngine.setClientRole(.broadcaster)</text></g><g class="message" data-participant-1="APP" data-participant-2="APP"><line style="stroke:#0A9EFD;stroke-width:2;" x1="219.2964" x2="261.2964" y1="384.5347" y2="384.5347"/><line style="stroke:#0A9EFD;stroke-width:2;" x1="261.2964" x2="261.2964" y1="384.5347" y2="397.5347"/><line style="stroke:#0A9EFD;stroke-width:2;" x1="220.2964" x2="261.2964" y1="397.5347" y2="397.5347"/><polygon fill="#0A9EFD" points="230.2964,393.5347,220.2964,397.5347,230.2964,401.5347,226.2964,397.5347" style="stroke:#0A9EFD;stroke-width:1;"/><text fill="#0A9EFD" font-family="Arial" font-size="13" lengthAdjust="spacing" textLength="96.1035" x="310.498" y="364.8311">Start local video:</text><text fill="#0A9EFD" font-family="Arial" font-size="13" lengthAdjust="spacing" textLength="257.2832" x="233.52" y="379.7798">agoraEngine.setupLocalVideo(videoCanvas)</text></g><g class="message" data-participant-1="APP" data-participant-2="API"><polygon fill="#0A9EFD" points="685.2212,437.4321,695.2212,441.4321,685.2212,445.4321,689.2212,441.4321" style="stroke:#0A9EFD;stroke-width:1;"/><line style="stroke:#0A9EFD;stroke-width:2;" x1="219.2964" x2="691.2212" y1="441.4321" y2="441.4321"/><text fill="#0A9EFD" font-family="Arial" font-size="13" lengthAdjust="spacing" textLength="98.2935" x="409.1121" y="421.7285">Join the channel:</text><text fill="#0A9EFD" font-family="Arial" font-size="13" lengthAdjust="spacing" textLength="153.2324" x="383.4485" y="436.6772">agoraEngine?.joinChannel</text></g><g class="message" data-participant-1="APP" data-participant-2="API"><polygon fill="#0A9EFD" points="685.2212,466.3809,695.2212,470.3809,685.2212,474.3809,689.2212,470.3809" style="stroke:#0A9EFD;stroke-width:1;"/><line style="stroke:#0A9EFD;stroke-width:2;" x1="219.2964" x2="691.2212" y1="470.3809" y2="470.3809"/><text fill="#0A9EFD" font-family="Arial" font-size="13" lengthAdjust="spacing" textLength="102.6162" x="406.9507" y="465.626">Send data stream</text></g><path d="M10,492.3809 L109.209,492.3809 L109.209,499.3296 L99.209,509.3296 L10,509.3296 L10,492.3809" fill="#EEEEEE" style="stroke:#0A9EFD;stroke-width:1.5;"/><rect fill="none" height="219.5386" style="stroke:#0A9EFD;stroke-width:2;" width="733.4893" x="10" y="492.3809"/><text fill="#000000" font-family="Arial" font-size="13" lengthAdjust="spacing" textLength="54.209" x="25" y="505.5747">Audience</text><g class="message" data-participant-1="USR" data-participant-2="APP"><polygon fill="#0A9EFD" points="207.2964,526.2783,217.2964,530.2783,207.2964,534.2783,211.2964,530.2783" style="stroke:#0A9EFD;stroke-width:1;"/><line style="stroke:#0A9EFD;stroke-width:2;" x1="37.7793" x2="213.2964" y1="530.2783" y2="530.2783"/><text fill="#0A9EFD" font-family="Arial" font-size="13" lengthAdjust="spacing" textLength="143.0698" x="57.0029" y="525.5234">Join live streaming event</text></g><g class="message" data-participant-1="APP" data-participant-2="APP"><line style="stroke:#0A9EFD;stroke-width:2;" x1="219.2964" x2="261.2964" y1="574.1758" y2="574.1758"/><line style="stroke:#0A9EFD;stroke-width:2;" x1="261.2964" x2="261.2964" y1="574.1758" y2="587.1758"/><line style="stroke:#0A9EFD;stroke-width:2;" x1="220.2964" x2="261.2964" y1="587.1758" y2="587.1758"/><polygon fill="#0A9EFD" points="230.2964,583.1758,220.2964,587.1758,230.2964,591.1758,226.2964,587.1758" style="stroke:#0A9EFD;stroke-width:1;"/><text fill="#0A9EFD" font-family="Arial" font-size="13" lengthAdjust="spacing" textLength="463.9248" x="226.2964" y="554.4722">In an live streaming event, the audience views the stream sent by channel hosts:</text><text fill="#0A9EFD" font-family="Arial" font-size="13" lengthAdjust="spacing" textLength="219.6924" x="350.2185" y="569.4209">agoraEngine.setClientRole(.audience)</text></g><g class="message" data-participant-1="APP" data-participant-2="API"><polygon fill="#0A9EFD" points="685.2212,627.0732,695.2212,631.0732,685.2212,635.0732,689.2212,631.0732" style="stroke:#0A9EFD;stroke-width:1;"/><line style="stroke:#0A9EFD;stroke-width:2;" x1="219.2964" x2="691.2212" y1="631.0732" y2="631.0732"/><text fill="#0A9EFD" font-family="Arial" font-size="13" lengthAdjust="spacing" textLength="98.2935" x="409.1121" y="611.3696">Join the channel:</text><text fill="#0A9EFD" font-family="Arial" font-size="13" lengthAdjust="spacing" textLength="153.2324" x="383.4485" y="626.3184">agoraEngine?.joinChannel</text></g><g class="message" data-participant-1="APP" data-participant-2="API"><polygon fill="#0A9EFD" points="685.2212,670.9707,695.2212,674.9707,685.2212,678.9707,689.2212,674.9707" style="stroke:#0A9EFD;stroke-width:1;"/><line style="stroke:#0A9EFD;stroke-width:2;" x1="219.2964" x2="691.2212" y1="674.9707" y2="674.9707"/><text fill="#0A9EFD" font-family="Arial" font-size="13" lengthAdjust="spacing" textLength="198.688" x="357.1089" y="655.2671">Retrieve streaming from the hosts:</text><text fill="#0A9EFD" font-family="Arial" font-size="13" lengthAdjust="spacing" textLength="271.7241" x="324.2026" y="670.2158">agoraEngine.setupRemoteVideo(videoCanvas)</text></g><g class="message" data-participant-1="API" data-participant-2="APP"><polygon fill="#0A9EFD" points="230.2964,699.9194,220.2964,703.9194,230.2964,707.9194,226.2964,703.9194" style="stroke:#0A9EFD;stroke-width:1;"/><polygon fill="#0A9EFD" points="685.2212,699.9194,695.2212,703.9194,685.2212,707.9194,689.2212,703.9194" style="stroke:#0A9EFD;stroke-width:1;"/><line style="stroke:#0A9EFD;stroke-width:2;" x1="224.2964" x2="691.2212" y1="703.9194" y2="703.9194"/><text fill="#0A9EFD" font-family="Arial" font-size="13" lengthAdjust="spacing" textLength="125.7217" x="395.3979" y="699.1646">Receive data streams</text></g><g class="message" data-participant-1="USR" data-participant-2="APP"><polygon fill="#0A9EFD" points="207.2964,735.8682,217.2964,739.8682,207.2964,743.8682,211.2964,739.8682" style="stroke:#0A9EFD;stroke-width:1;"/><line style="stroke:#0A9EFD;stroke-width:2;" x1="37.7793" x2="213.2964" y1="739.8682" y2="739.8682"/><text fill="#0A9EFD" font-family="Arial" font-size="13" lengthAdjust="spacing" textLength="154.6416" x="51.217" y="735.1133">Leave live streaming event</text></g><g class="message" data-participant-1="APP" data-participant-2="API"><polygon fill="#0A9EFD" points="685.2212,779.7656,695.2212,783.7656,685.2212,787.7656,689.2212,783.7656" style="stroke:#0A9EFD;stroke-width:1;"/><line style="stroke:#0A9EFD;stroke-width:2;" x1="219.2964" x2="691.2212" y1="783.7656" y2="783.7656"/><text fill="#0A9EFD" font-family="Arial" font-size="13" lengthAdjust="spacing" textLength="95.3926" x="410.5625" y="764.062">Stop local video:</text><text fill="#0A9EFD" font-family="Arial" font-size="13" lengthAdjust="spacing" textLength="156.8062" x="381.6616" y="779.0107">agoraEngine.stopPreview()</text></g><g class="message" data-participant-1="APP" data-participant-2="API"><polygon fill="#0A9EFD" points="685.2212,823.6631,695.2212,827.6631,685.2212,831.6631,689.2212,827.6631" style="stroke:#0A9EFD;stroke-width:1;"/><line style="stroke:#0A9EFD;stroke-width:2;" x1="219.2964" x2="691.2212" y1="827.6631" y2="827.6631"/><text fill="#0A9EFD" font-family="Arial" font-size="13" lengthAdjust="spacing" textLength="109.8652" x="401.5203" y="807.9595">Leave the channel:</text><text fill="#0A9EFD" font-family="Arial" font-size="13" lengthAdjust="spacing" textLength="178.5088" x="370.8103" y="822.9082">agoraEngine.leaveChannel(nil)</text></g><g class="message" data-participant-1="USR" data-participant-2="APP"><polygon fill="#0A9EFD" points="207.2964,852.6118,217.2964,856.6118,207.2964,860.6118,211.2964,856.6118" style="stroke:#0A9EFD;stroke-width:1;"/><line style="stroke:#0A9EFD;stroke-width:2;" x1="37.7793" x2="213.2964" y1="856.6118" y2="856.6118"/><text fill="#0A9EFD" font-family="Arial" font-size="13" lengthAdjust="spacing" textLength="58.5381" x="99.2688" y="851.8569">Close app</text></g><g class="message" data-participant-1="APP" data-participant-2="APP"><line style="stroke:#0A9EFD;stroke-width:2;" x1="219.2964" x2="261.2964" y1="900.5093" y2="900.5093"/><line style="stroke:#0A9EFD;stroke-width:2;" x1="261.2964" x2="261.2964" y1="900.5093" y2="913.5093"/><line style="stroke:#0A9EFD;stroke-width:2;" x1="220.2964" x2="261.2964" y1="913.5093" y2="913.5093"/><polygon fill="#0A9EFD" points="230.2964,909.5093,220.2964,913.5093,230.2964,917.5093,226.2964,913.5093" style="stroke:#0A9EFD;stroke-width:1;"/><text fill="#0A9EFD" font-family="Arial" font-size="13" lengthAdjust="spacing" textLength="146.688" x="235.3228" y="880.8057">Clean up local resources:</text><text fill="#0A9EFD" font-family="Arial" font-size="13" lengthAdjust="spacing" textLength="164.7407" x="229.9082" y="895.7544">AgoraRtcEngineKit.destroy()</text></g><!--SRC=[hLJRZjCm57ptLnpor4gG3wYugCgkHDaLLEakqaf8wDGvj0RtEBATGd-AZ-3BiEDaITfeUO17spDpPiQMdocMkga8S6SiVdRV5EUgEMWXK7fZ8RjtP3D01_URKeYj-G7PWsaiO5rdGjHelPAgHlQGbNS5RAvkMlHolHQ2k8B0w6ZBEE6Sixagxzx_-jbnLWDEc0SlNaUX1NoeYUD44LQFcojMNg4dy7k2RZOGxnJJuXD3IdJThk4LjDDBBzF6ZVAvswEbAgr7mXiV7C9HLMH0SIi_BPiJurRJnuYSpONOMTFKyDOuFtAVz12qEX8uRmaFYdT0Hs9_bWYG9s7FmR0-jLRsGTx1rXgi93eFthJRSe_CfAF5eKD7lj0gA9H6qon_f96TJsJMHg9EoI-o1gMcles0bBT55SX7T0EfrGBUcQwqQKjlygy1KAIp4N4Jxxv2Zrtw-1RwKfTD5L986XNRJlgdLgDDxAH3Rlhksgs40nSmi3trGLBrVscuL_jFdPJahQAHzI_M7FwyX0LS-cdgaWx6q-H5hU1btqn9ac8jWywTIAqFQxub3A2dUuxNvqrz_e96niBvsb9iUJPk9mqOrdCUIaT4ry-CbPwF7HRQEBhu88h0OcXwKvPS-BWafSek_uEAGZfp2jv-0m00]--></g></svg>