<?xml version="1.0" encoding="us-ascii" standalone="no"?><svg xmlns="http://www.w3.org/2000/svg" xmlns:xlink="http://www.w3.org/1999/xlink" contentStyleType="text/css" height="1069px" preserveAspectRatio="none" style="width:618px;height:1069px;" version="1.1" viewBox="0 0 618 1069" width="618px" zoomAndPan="magnify"><defs/><g><rect fill="none" height="1067.6956" style="stroke:#0A9EFD;stroke-width:1.0;" width="616.3333" x="0" y="0"/><rect fill="#999999" fill-opacity="0.33333" height="1057.6956" style="stroke:#0A9EFD;stroke-width:0.5;" width="50.6667" x="26" y="6"/><text fill="#0A9EFD" font-family="sans-serif" font-size="13" font-weight="bold" lengthAdjust="spacing" textLength="28" x="37.3333" y="18.5684">App</text><rect fill="#999999" fill-opacity="0.33333" height="1057.6956" style="stroke:#0A9EFD;stroke-width:0.5;" width="74" x="287" y="6"/><text fill="#0A9EFD" font-family="sans-serif" font-size="13" font-weight="bold" lengthAdjust="spacing" textLength="68" x="290" y="18.5684">Video SDK</text><rect fill="#999999" fill-opacity="0.33333" height="1057.6956" style="stroke:#0A9EFD;stroke-width:0.5;" width="107" x="505.3333" y="6"/><text fill="#0A9EFD" font-family="sans-serif" font-size="13" font-weight="bold" lengthAdjust="spacing" textLength="101" x="508.3333" y="18.5684">Agora SDRTN&#174;</text><rect fill="#0A9EFD" fill-opacity="0.06667" height="60.8462" style="stroke:#0A9EFD;stroke-width:2.0;" width="335.3333" x="20" y="83.9772"/><rect fill="#0A9EFD" fill-opacity="0.06667" height="60.8462" style="stroke:#0A9EFD;stroke-width:2.0;" width="335.3333" x="20" y="158.8234"/><rect fill="#0A9EFD" fill-opacity="0.06667" height="74.8462" style="stroke:#0A9EFD;stroke-width:2.0;" width="570.1667" x="20" y="233.6696"/><rect fill="#0A9EFD" fill-opacity="0.06667" height="208.5386" style="stroke:#0A9EFD;stroke-width:2.0;" width="590.1667" x="10" y="322.5158"/><rect fill="#0A9EFD" fill-opacity="0.06667" height="177.5898" style="stroke:#0A9EFD;stroke-width:2.0;" width="570.1667" x="20" y="346.4645"/><rect fill="#0A9EFD" fill-opacity="0.06667" height="265.3848" style="stroke:#0A9EFD;stroke-width:2.0;" width="570.1667" x="20" y="545.0544"/><rect fill="#0A9EFD" fill-opacity="0.06667" height="177.5898" style="stroke:#0A9EFD;stroke-width:2.0;" width="570.1667" x="20" y="824.4391"/><line style="stroke:#0A9EFD;stroke-width:0.5;stroke-dasharray:5.0,5.0;" x1="51" x2="51" y1="66.9772" y2="1019.029"/><line style="stroke:#0A9EFD;stroke-width:0.5;stroke-dasharray:5.0,5.0;" x1="323.6667" x2="323.6667" y1="66.9772" y2="1019.029"/><line style="stroke:#0A9EFD;stroke-width:0.5;stroke-dasharray:5.0,5.0;" x1="558.5" x2="558.5" y1="66.9772" y2="1019.029"/><rect fill="none" height="40.6667" rx="2.5" ry="2.5" style="stroke:#0A9EFD;stroke-width:2.0;" width="42.6667" x="30" y="25.3105"/><path d="M39.1333,32.3105 C38.5333,32.3105 38,32.8439 38,33.4439 L38,57.8105 C38,58.4105 38.5333,58.9439 39.1333,58.9439 L60.1667,58.9439 C60.7667,58.9439 61.3,58.4105 61.3,57.8105 L61.3,33.4439 C61.3,32.8439 60.7667,32.3105 60.1667,32.3105 L39.1333,32.3105 M41.3333,35.6439 L58,35.6439 L58,52.3105 L41.3333,52.3105 L41.3333,35.6439 M49.6667,53.9772 C50.9333,53.9772 51.7667,55.3772 51.1333,56.4772 C50.5,57.5772 48.8667,57.5772 48.2,56.4772 C47.5667,55.3772 48.3667,53.9772 49.6667,53.9772 " fill="#0A9EFD" style="stroke:;stroke-width:0.0;stroke-dasharray:;"/><rect fill="none" height="40.6667" rx="2.5" ry="2.5" style="stroke:#0A9EFD;stroke-width:2.0;" width="42.6667" x="30" y="1018.029"/><path d="M39.1333,1025.029 C38.5333,1025.029 38,1025.5623 38,1026.1623 L38,1050.529 C38,1051.129 38.5333,1051.6623 39.1333,1051.6623 L60.1667,1051.6623 C60.7667,1051.6623 61.3,1051.129 61.3,1050.529 L61.3,1026.1623 C61.3,1025.5623 60.7667,1025.029 60.1667,1025.029 L39.1333,1025.029 M41.3333,1028.3623 L58,1028.3623 L58,1045.029 L41.3333,1045.029 L41.3333,1028.3623 M49.6667,1046.6956 C50.9333,1046.6956 51.7667,1048.0956 51.1333,1049.1956 C50.5,1050.2956 48.8667,1050.2956 48.2,1049.1956 C47.5667,1048.0956 48.3667,1046.6956 49.6667,1046.6956 " fill="#0A9EFD" style="stroke:;stroke-width:0.0;stroke-dasharray:;"/><rect fill="none" height="40.6667" rx="2.5" ry="2.5" style="stroke:#0A9EFD;stroke-width:2.0;" width="42.6667" x="302.6667" y="25.3105"/><path d="M310.6667,32.3105 L310.6667,45.6439 L324,45.6439 L324,32.3105 L310.6667,32.3105 M327.3333,38.9772 L327.3333,48.9772 L317.3333,48.9772 L317.3333,52.3105 L330.6667,52.3105 L330.6667,38.9772 L327.3333,38.9772 M334,45.6439 L334,55.6439 L324,55.6439 L324,58.9772 L337.3333,58.9772 L337.3333,45.6439 L334,45.6439 " fill="#0A9EFD" style="stroke:;stroke-width:0.0;stroke-dasharray:;"/><rect fill="none" height="40.6667" rx="2.5" ry="2.5" style="stroke:#0A9EFD;stroke-width:2.0;" width="42.6667" x="302.6667" y="1018.029"/><path d="M310.6667,1025.029 L310.6667,1038.3623 L324,1038.3623 L324,1025.029 L310.6667,1025.029 M327.3333,1031.6956 L327.3333,1041.6956 L317.3333,1041.6956 L317.3333,1045.029 L330.6667,1045.029 L330.6667,1031.6956 L327.3333,1031.6956 M334,1038.3623 L334,1048.3623 L324,1048.3623 L324,1051.6956 L337.3333,1051.6956 L337.3333,1038.3623 L334,1038.3623 " fill="#0A9EFD" style="stroke:;stroke-width:0.0;stroke-dasharray:;"/><rect fill="none" height="40.6667" rx="2.5" ry="2.5" style="stroke:#0A9EFD;stroke-width:2.0;" width="42.6667" x="537.5" y="25.3105"/><path d="M560.5,32.3105 C556.4667,32.3105 552.9333,35.1772 552.1667,38.9772 C548.5,38.9772 545.5,41.9772 545.5,45.6439 C545.5,49.3105 548.5,52.3105 552.1667,52.3105 L567.1667,52.3105 C569.9333,52.3105 572.1667,50.0772 572.1667,47.3105 C572.1667,45.1439 570.7667,43.0105 568.8333,42.3105 L568.8333,40.6439 C568.8333,36.0439 565.1,32.3105 560.5,32.3105 " fill="#0A9EFD" style="stroke:;stroke-width:0.0;stroke-dasharray:;"/><rect fill="none" height="40.6667" rx="2.5" ry="2.5" style="stroke:#0A9EFD;stroke-width:2.0;" width="42.6667" x="537.5" y="1018.029"/><path d="M560.5,1025.029 C556.4667,1025.029 552.9333,1027.8956 552.1667,1031.6956 C548.5,1031.6956 545.5,1034.6956 545.5,1038.3623 C545.5,1042.029 548.5,1045.029 552.1667,1045.029 L567.1667,1045.029 C569.9333,1045.029 572.1667,1042.7956 572.1667,1040.029 C572.1667,1037.8623 570.7667,1035.729 568.8333,1035.029 L568.8333,1033.3623 C568.8333,1028.7623 565.1,1025.029 560.5,1025.029 " fill="#0A9EFD" style="stroke:;stroke-width:0.0;stroke-dasharray:;"/><path d="M20,83.9772 L180,83.9772 L180,90.9259 L170,100.9259 L20,100.9259 L20,83.9772 " fill="#EEEEEE" style="stroke:#0A9EFD;stroke-width:1.5;"/><rect fill="none" height="60.8462" style="stroke:#0A9EFD;stroke-width:2.0;" width="335.3333" x="20" y="83.9772"/><text fill="#000000" font-family="Arial" font-size="13" lengthAdjust="spacing" textLength="115" x="35" y="97.1711">Create a local client</text><polygon fill="#0A9EFD" points="312,132.8234,322,136.8234,312,140.8234,316,136.8234" style="stroke:#0A9EFD;stroke-width:1.0;"/><line style="stroke:#0A9EFD;stroke-width:2.0;" x1="51.3333" x2="318" y1="136.8234" y2="136.8234"/><text fill="#0A9EFD" font-family="Arial" font-size="13" lengthAdjust="spacing" textLength="133" x="121.1667" y="117.1198">AgoraRTC.createClient</text><text fill="#0A9EFD" font-family="Arial" font-size="13" lengthAdjust="spacing" textLength="99" x="140.1667" y="132.0685">Set mode to 'live'</text><path d="M20,158.8234 L139,158.8234 L139,165.7721 L129,175.7721 L20,175.7721 L20,158.8234 " fill="#EEEEEE" style="stroke:#0A9EFD;stroke-width:1.5;"/><rect fill="none" height="60.8462" style="stroke:#0A9EFD;stroke-width:2.0;" width="335.3333" x="20" y="158.8234"/><text fill="#000000" font-family="Arial" font-size="13" lengthAdjust="spacing" textLength="74" x="35" y="172.0173">Set user role</text><polygon fill="#0A9EFD" points="312,207.6696,322,211.6696,312,215.6696,316,211.6696" style="stroke:#0A9EFD;stroke-width:1.0;"/><line style="stroke:#0A9EFD;stroke-width:2.0;" x1="51.3333" x2="318" y1="211.6696" y2="211.6696"/><text fill="#0A9EFD" font-family="Arial" font-size="13" lengthAdjust="spacing" textLength="190" x="92.6667" y="191.966">Set the role to 'host' or 'audience'</text><text fill="#0A9EFD" font-family="Arial" font-size="13" lengthAdjust="spacing" textLength="174" x="102.6667" y="206.9147">AgoraRTCClient.setClientRole</text><path d="M20,233.6696 L138,233.6696 L138,240.6183 L128,250.6183 L20,250.6183 L20,233.6696 " fill="#EEEEEE" style="stroke:#0A9EFD;stroke-width:1.5;"/><rect fill="none" height="74.8462" style="stroke:#0A9EFD;stroke-width:2.0;" width="570.1667" x="20" y="233.6696"/><text fill="#000000" font-family="Arial" font-size="13" lengthAdjust="spacing" textLength="73" x="35" y="246.8634">Join channel</text><polygon fill="#0A9EFD" points="312,267.5671,322,271.5671,312,275.5671,316,271.5671" style="stroke:#0A9EFD;stroke-width:1.0;"/><line style="stroke:#0A9EFD;stroke-width:2.0;" x1="51.3333" x2="318" y1="271.5671" y2="271.5671"/><text fill="#0A9EFD" font-family="Arial" font-size="13" lengthAdjust="spacing" textLength="117" x="129.1667" y="266.8122">AgoraRTCClient.join</text><polygon fill="#0A9EFD" points="546.8333,296.5158,556.8333,300.5158,546.8333,304.5158,550.8333,300.5158" style="stroke:#0A9EFD;stroke-width:1.0;"/><line style="stroke:#0A9EFD;stroke-width:2.0;" x1="324" x2="552.8333" y1="300.5158" y2="300.5158"/><text fill="#0A9EFD" font-family="Arial" font-size="13" lengthAdjust="spacing" textLength="120" x="381.4167" y="295.7609">Join channel request</text><path d="M10,322.5158 L186,322.5158 L186,329.4645 L176,339.4645 L10,339.4645 L10,322.5158 " fill="#EEEEEE" style="stroke:#0A9EFD;stroke-width:1.5;"/><rect fill="none" height="208.5386" style="stroke:#0A9EFD;stroke-width:2.0;" width="590.1667" x="10" y="322.5158"/><text fill="#000000" font-family="Arial" font-size="13" lengthAdjust="spacing" textLength="131" x="25" y="335.7096">If the user role is 'host'</text><path d="M20,346.4645 L339,346.4645 L339,353.4132 L329,363.4132 L20,363.4132 L20,346.4645 " fill="#EEEEEE" style="stroke:#0A9EFD;stroke-width:1.5;"/><rect fill="none" height="177.5898" style="stroke:#0A9EFD;stroke-width:2.0;" width="570.1667" x="20" y="346.4645"/><text fill="#000000" font-family="Arial" font-size="13" lengthAdjust="spacing" textLength="274" x="35" y="359.6584">Create and publish local audio and video tracks</text><polygon fill="#0A9EFD" points="312,395.3107,322,399.3107,312,403.3107,316,399.3107" style="stroke:#0A9EFD;stroke-width:1.0;"/><line style="stroke:#0A9EFD;stroke-width:2.0;" x1="51.3333" x2="318" y1="399.3107" y2="399.3107"/><text fill="#0A9EFD" font-family="Arial" font-size="13" lengthAdjust="spacing" textLength="137" x="119.1667" y="379.6071">Create local audio track</text><text fill="#0A9EFD" font-family="Arial" font-size="13" lengthAdjust="spacing" textLength="233" x="73.1667" y="394.5558">AgoraRTC.createMicrophoneAudioTrack</text><polygon fill="#0A9EFD" points="312,439.2082,322,443.2082,312,447.2082,316,443.2082" style="stroke:#0A9EFD;stroke-width:1.0;"/><line style="stroke:#0A9EFD;stroke-width:2.0;" x1="51.3333" x2="318" y1="443.2082" y2="443.2082"/><text fill="#0A9EFD" font-family="Arial" font-size="13" lengthAdjust="spacing" textLength="137" x="119.1667" y="423.5046">Create local video track</text><text fill="#0A9EFD" font-family="Arial" font-size="13" lengthAdjust="spacing" textLength="211" x="84.1667" y="438.4533">AgoraRTC.createCameraVideoTrack</text><polygon fill="#0A9EFD" points="312,483.1056,322,487.1056,312,491.1056,316,487.1056" style="stroke:#0A9EFD;stroke-width:1.0;"/><line style="stroke:#0A9EFD;stroke-width:2.0;" x1="51.3333" x2="318" y1="487.1056" y2="487.1056"/><text fill="#0A9EFD" font-family="Arial" font-size="13" lengthAdjust="spacing" textLength="209" x="83.1667" y="467.402">Publish local audio and video tracks</text><text fill="#0A9EFD" font-family="Arial" font-size="13" lengthAdjust="spacing" textLength="138" x="120.6667" y="482.3507">AgoraRTCClient.publish</text><polygon fill="#0A9EFD" points="546.8333,512.0544,556.8333,516.0544,546.8333,520.0544,550.8333,516.0544" style="stroke:#0A9EFD;stroke-width:1.0;"/><line style="stroke:#0A9EFD;stroke-width:2.0;" x1="324" x2="552.8333" y1="516.0544" y2="516.0544"/><text fill="#0A9EFD" font-family="Arial" font-size="13" lengthAdjust="spacing" textLength="154" x="364.4167" y="511.2995">Send audio and video data</text><path d="M20,545.0544 L218,545.0544 L218,552.0031 L208,562.0031 L20,562.0031 L20,545.0544 " fill="#EEEEEE" style="stroke:#0A9EFD;stroke-width:1.5;"/><rect fill="none" height="265.3848" style="stroke:#0A9EFD;stroke-width:2.0;" width="570.1667" x="20" y="545.0544"/><text fill="#000000" font-family="Arial" font-size="13" lengthAdjust="spacing" textLength="153" x="35" y="558.2482">Subscribe to remote users</text><polygon fill="#0A9EFD" points="62.3333,593.9006,52.3333,597.9006,62.3333,601.9006,58.3333,597.9006" style="stroke:#0A9EFD;stroke-width:1.0;"/><line style="stroke:#0A9EFD;stroke-width:2.0;stroke-dasharray:2.0,2.0;" x1="56.3333" x2="557.8333" y1="597.9006" y2="597.9006"/><text fill="#0A9EFD" font-family="Arial" font-size="13" lengthAdjust="spacing" textLength="261" x="174.5833" y="578.1969">Remote users publish audio and video tracks</text><text fill="#0A9EFD" font-family="Arial" font-size="13" lengthAdjust="spacing" textLength="151" x="231.5833" y="593.1457">client.on("user-published")</text><polygon fill="#0A9EFD" points="312,637.798,322,641.798,312,645.798,316,641.798" style="stroke:#0A9EFD;stroke-width:1.0;"/><line style="stroke:#0A9EFD;stroke-width:2.0;" x1="51.3333" x2="318" y1="641.798" y2="641.798"/><text fill="#0A9EFD" font-family="Arial" font-size="13" lengthAdjust="spacing" textLength="133" x="121.1667" y="622.0944">Get remote user object</text><text fill="#0A9EFD" font-family="Arial" font-size="13" lengthAdjust="spacing" textLength="171" x="104.1667" y="637.0431">AgoraRTCClient.remoteUsers</text><polygon fill="#0A9EFD" points="312,681.6955,322,685.6955,312,689.6955,316,685.6955" style="stroke:#0A9EFD;stroke-width:1.0;"/><line style="stroke:#0A9EFD;stroke-width:2.0;" x1="51.3333" x2="318" y1="685.6955" y2="685.6955"/><text fill="#0A9EFD" font-family="Arial" font-size="13" lengthAdjust="spacing" textLength="185" x="95.1667" y="665.9919">Subscribe to remote user object</text><text fill="#0A9EFD" font-family="Arial" font-size="13" lengthAdjust="spacing" textLength="153" x="113.1667" y="680.9406">AgoraRTCClient.subscribe</text><polygon fill="#0A9EFD" points="335,710.6442,325,714.6442,335,718.6442,331,714.6442" style="stroke:#0A9EFD;stroke-width:1.0;"/><line style="stroke:#0A9EFD;stroke-width:2.0;" x1="329" x2="557.8333" y1="714.6442" y2="714.6442"/><text fill="#0A9EFD" font-family="Arial" font-size="13" lengthAdjust="spacing" textLength="171" x="355.9167" y="709.8893">Receive audio and video data</text><polygon fill="#0A9EFD" points="312,754.5417,322,758.5417,312,762.5417,316,758.5417" style="stroke:#0A9EFD;stroke-width:1.0;"/><line style="stroke:#0A9EFD;stroke-width:2.0;" x1="51.3333" x2="318" y1="758.5417" y2="758.5417"/><text fill="#0A9EFD" font-family="Arial" font-size="13" lengthAdjust="spacing" textLength="139" x="118.1667" y="738.8381">Get remote audio object</text><text fill="#0A9EFD" font-family="Arial" font-size="13" lengthAdjust="spacing" textLength="200" x="89.6667" y="753.7868">AgoraRTCRemoteUser.audioTrack</text><polygon fill="#0A9EFD" points="312,798.4391,322,802.4391,312,806.4391,316,802.4391" style="stroke:#0A9EFD;stroke-width:1.0;"/><line style="stroke:#0A9EFD;stroke-width:2.0;" x1="51.3333" x2="318" y1="802.4391" y2="802.4391"/><text fill="#0A9EFD" font-family="Arial" font-size="13" lengthAdjust="spacing" textLength="139" x="118.1667" y="782.7355">Get remote video object</text><text fill="#0A9EFD" font-family="Arial" font-size="13" lengthAdjust="spacing" textLength="200" x="89.6667" y="797.6842">AgoraRTCRemoteUser.videoTrack</text><path d="M20,824.4391 L171,824.4391 L171,831.3879 L161,841.3879 L20,841.3879 L20,824.4391 " fill="#EEEEEE" style="stroke:#0A9EFD;stroke-width:1.5;"/><rect fill="none" height="177.5898" style="stroke:#0A9EFD;stroke-width:2.0;" width="570.1667" x="20" y="824.4391"/><text fill="#000000" font-family="Arial" font-size="13" lengthAdjust="spacing" textLength="106" x="35" y="837.633">Leave the channel</text><polygon fill="#0A9EFD" points="312,873.2853,322,877.2853,312,881.2853,316,877.2853" style="stroke:#0A9EFD;stroke-width:1.0;"/><line style="stroke:#0A9EFD;stroke-width:2.0;" x1="51.3333" x2="318" y1="877.2853" y2="877.2853"/><text fill="#0A9EFD" font-family="Arial" font-size="13" lengthAdjust="spacing" textLength="166" x="104.6667" y="857.5817">Turn off the local audio track</text><text fill="#0A9EFD" font-family="Arial" font-size="13" lengthAdjust="spacing" textLength="168" x="105.6667" y="872.5304">MicrophoneAudioTrack.close</text><polygon fill="#0A9EFD" points="312,917.1828,322,921.1828,312,925.1828,316,921.1828" style="stroke:#0A9EFD;stroke-width:1.0;"/><line style="stroke:#0A9EFD;stroke-width:2.0;" x1="51.3333" x2="318" y1="921.1828" y2="921.1828"/><text fill="#0A9EFD" font-family="Arial" font-size="13" lengthAdjust="spacing" textLength="166" x="104.6667" y="901.4792">Turn off the local video track</text><text fill="#0A9EFD" font-family="Arial" font-size="13" lengthAdjust="spacing" textLength="146" x="116.6667" y="916.4279">CameraVideoTrack.close</text><polygon fill="#0A9EFD" points="312,961.0802,322,965.0802,312,969.0802,316,965.0802" style="stroke:#0A9EFD;stroke-width:1.0;"/><line style="stroke:#0A9EFD;stroke-width:2.0;" x1="51.3333" x2="318" y1="965.0802" y2="965.0802"/><text fill="#0A9EFD" font-family="Arial" font-size="13" lengthAdjust="spacing" textLength="106" x="134.6667" y="945.3766">Leave the channel</text><text fill="#0A9EFD" font-family="Arial" font-size="13" lengthAdjust="spacing" textLength="128" x="125.6667" y="960.3254">AgoraRTCClient.leave</text><polygon fill="#0A9EFD" points="546.8333,990.029,556.8333,994.029,546.8333,998.029,550.8333,994.029" style="stroke:#0A9EFD;stroke-width:1.0;"/><line style="stroke:#0A9EFD;stroke-width:2.0;" x1="324" x2="552.8333" y1="994.029" y2="994.029"/><text fill="#0A9EFD" font-family="Arial" font-size="13" lengthAdjust="spacing" textLength="169" x="356.9167" y="989.2741">Request to leave the channel</text><!--SRC=[ZLJBZjCm5DtdAovP45WqOi6ggYfLHK8yLQM55H9od3iJpxXsyAC2FegFuClm8-buyXYnY-nppptttECyOu9oso2GMwd8TttFHCdicMTPBNz2lkkwFEk8CeooZWW3-KQptxX-_MgxUMv8pT5iSo0QTeT3Xg81LzMNVcKDIZY- -R1CmCalL3eIEE28OESLkVFgzFdldsKIogLj8eT3Fd3SAcaxs2ianaq7N5B2WNA6mcHExMhhEguXDAbE-v86u3xSVnDmH0DdwNmn4WhEBbXuve7LtrgD2fJacB3vSzDYE0wLhTIc0AcW8BPnr1GBHpuqZTrAZIP-LPujQVDUCW6q9K8Wdz7SbzyvLEOkLbit__fH4IZyOL6RbFJTJP1ubGzCzpf7bZaZErjpfjlUF3-23EUNi5kZ2BtNYR2-CaK7J39ox_CdHfNiMYbmvs4dZreYIffDYVRaZ8g4h8r93lyXVhgCVkJ4qAEFrBYy8OO4LzDKs5fJnUgmUeLdQQBDmQBDQXNOgkJywk-Yk9ZNKeeNkQzOzGNOv2-JIT-ws2NzGDPtICrqjeZvCaWQGhiWUv563mNUfCqm5aNtIkPzcbKQaPCUrLLZIUQYaJ343aynN1voaUpf8nAdr3-2wTiwMIL0tiGtCXVakUIMxX-ayMcMnoaUntR2CD4uNGFta2IdLNphVejyCg4V_ny0]--></g></svg>