<svg xmlns="http://www.w3.org/2000/svg" xmlns:xlink="http://www.w3.org/1999/xlink" contentStyleType="text/css" data-diagram-type="SEQUENCE" height="1293px" preserveAspectRatio="none" style="width:717px;height:1293px;" version="1.1" viewBox="0 0 717 1293" width="717px" zoomAndPan="magnify"><defs/><g><rect fill="none" height="1291.1465" style="stroke:#0A9EFD;stroke-width:1;" width="715.5757" x="0" y="0"/><rect fill="#999999" fill-opacity="0.33333" height="1281.1465" style="stroke:#0A9EFD;stroke-width:0.5;" width="83.4482" x="177.5723" y="6"/><text fill="#0A9EFD" font-family="sans-serif" font-size="13" font-weight="bold" lengthAdjust="spacing" textLength="56.3354" x="191.1287" y="19.4951">Your app</text><rect fill="#999999" fill-opacity="0.33333" height="1281.1465" style="stroke:#0A9EFD;stroke-width:0.5;" width="80.5361" x="625.0396" y="6"/><text fill="#0A9EFD" font-family="sans-serif" font-size="13" font-weight="bold" lengthAdjust="spacing" textLength="37.5591" x="646.5281" y="19.4951">Agora</text><rect fill="#0A9EFD" fill-opacity="0.06667" height="391.231" style="stroke:#0A9EFD;stroke-width:2;" width="701.5757" x="10" y="359.6372"/><rect fill="#0A9EFD" fill-opacity="0.06667" height="334.3335" style="stroke:#0A9EFD;stroke-width:2;" width="701.5757" x="10" y="764.8682"/><g><title>User</title><rect fill="#000000" fill-opacity="0.00000" height="1116.9492" width="8" x="33.7793" y="86.0986"/><line style="stroke:#0A9EFD;stroke-width:0.5;stroke-dasharray:5.0,5.0;" x1="37" x2="37" y1="86.0986" y2="1203.0479"/></g><g><title>RTC SDK</title><rect fill="#000000" fill-opacity="0.00000" height="1116.9492" width="8" x="215.2964" y="86.0986"/><line style="stroke:#0A9EFD;stroke-width:0.5;stroke-dasharray:5.0,5.0;" x1="218.5723" x2="218.5723" y1="86.0986" y2="1203.0479"/></g><g><title>SDRTN&#174;</title><rect fill="#000000" fill-opacity="0.00000" height="1116.9492" width="8" x="661.3076" y="86.0986"/><line style="stroke:#0A9EFD;stroke-width:0.5;stroke-dasharray:5.0,5.0;" x1="665.0396" x2="665.0396" y1="86.0986" y2="1203.0479"/></g><g class="participant participant-head" data-participant="USR"><text fill="#0A9EFD" font-family="Arial" font-size="14" lengthAdjust="spacing" textLength="29.5586" x="20" y="83.1318">User</text><ellipse cx="37.7793" cy="16" fill="none" rx="8" ry="8" style="stroke:#0A9EFD;stroke-width:3;"/><path d="M37.7793,24 L37.7793,51 M24.7793,32 L50.7793,32 M37.7793,51 L24.7793,66 M37.7793,51 L50.7793,66" fill="none" style="stroke:#0A9EFD;stroke-width:3;"/></g><g class="participant participant-tail" data-participant="USR"><text fill="#0A9EFD" font-family="Arial" font-size="14" lengthAdjust="spacing" textLength="29.5586" x="20" y="1215.1797">User</text><ellipse cx="37.7793" cy="1229.1465" fill="none" rx="8" ry="8" style="stroke:#0A9EFD;stroke-width:3;"/><path d="M37.7793,1237.1465 L37.7793,1264.1465 M24.7793,1245.1465 L50.7793,1245.1465 M37.7793,1264.1465 L24.7793,1279.1465 M37.7793,1264.1465 L50.7793,1279.1465" fill="none" style="stroke:#0A9EFD;stroke-width:3;"/></g><g class="participant participant-head" data-participant="APP"><rect fill="none" height="30.0986" rx="2.5" ry="2.5" style="stroke:#0A9EFD;stroke-width:2;" width="75.4482" x="181.5723" y="55"/><text fill="#0A9EFD" font-family="Arial" font-size="14" lengthAdjust="spacing" textLength="61.4482" x="188.5723" y="75.1318">RTC SDK</text></g><g class="participant participant-tail" data-participant="APP"><rect fill="none" height="30.0986" rx="2.5" ry="2.5" style="stroke:#0A9EFD;stroke-width:2;" width="75.4482" x="181.5723" y="1202.0479"/><text fill="#0A9EFD" font-family="Arial" font-size="14" lengthAdjust="spacing" textLength="61.4482" x="188.5723" y="1222.1797">RTC SDK</text></g><g class="participant participant-head" data-participant="API"><rect fill="none" height="30.0986" rx="2.5" ry="2.5" style="stroke:#0A9EFD;stroke-width:2;" width="72.5361" x="629.0396" y="55"/><text fill="#0A9EFD" font-family="Arial" font-size="14" lengthAdjust="spacing" textLength="58.5361" x="636.0396" y="75.1318">SDRTN&#174;</text></g><g class="participant participant-tail" data-participant="API"><rect fill="none" height="30.0986" rx="2.5" ry="2.5" style="stroke:#0A9EFD;stroke-width:2;" width="72.5361" x="629.0396" y="1202.0479"/><text fill="#0A9EFD" font-family="Arial" font-size="14" lengthAdjust="spacing" textLength="58.5361" x="636.0396" y="1222.1797">SDRTN&#174;</text></g><g class="message" data-participant-1="USR" data-participant-2="APP"><polygon fill="#0A9EFD" points="207.2964,113.0474,217.2964,117.0474,207.2964,121.0474,211.2964,117.0474" style="stroke:#0A9EFD;stroke-width:1;"/><line style="stroke:#0A9EFD;stroke-width:2;" x1="37.7793" x2="213.2964" y1="117.0474" y2="117.0474"/><text fill="#0A9EFD" font-family="Arial" font-size="13" lengthAdjust="spacing" textLength="58.5444" x="99.2656" y="112.2925">Open App</text></g><g class="message" data-participant-1="APP" data-participant-2="APP"><line style="stroke:#0A9EFD;stroke-width:2;" x1="219.2964" x2="261.2964" y1="160.9448" y2="160.9448"/><line style="stroke:#0A9EFD;stroke-width:2;" x1="261.2964" x2="261.2964" y1="160.9448" y2="173.9448"/><line style="stroke:#0A9EFD;stroke-width:2;" x1="220.2964" x2="261.2964" y1="173.9448" y2="173.9448"/><polygon fill="#0A9EFD" points="230.2964,169.9448,220.2964,173.9448,230.2964,177.9448,226.2964,173.9448" style="stroke:#0A9EFD;stroke-width:1;"/><text fill="#0A9EFD" font-family="Arial" font-size="13" lengthAdjust="spacing" textLength="213.8843" x="233.355" y="141.2412">Initialize the Agora RTC SDK engine:</text><text fill="#0A9EFD" font-family="Arial" font-size="13" lengthAdjust="spacing" textLength="228.0015" x="229.9082" y="156.1899">agoraEngine = createAgoraRtcEngine()</text></g><g class="message" data-participant-1="APP" data-participant-2="APP"><line style="stroke:#0A9EFD;stroke-width:2;" x1="219.2964" x2="261.2964" y1="217.8423" y2="217.8423"/><line style="stroke:#0A9EFD;stroke-width:2;" x1="261.2964" x2="261.2964" y1="217.8423" y2="230.8423"/><line style="stroke:#0A9EFD;stroke-width:2;" x1="220.2964" x2="261.2964" y1="230.8423" y2="230.8423"/><polygon fill="#0A9EFD" points="230.2964,226.8423,220.2964,230.8423,230.2964,234.8423,226.2964,230.8423" style="stroke:#0A9EFD;stroke-width:1;"/><text fill="#0A9EFD" font-family="Arial" font-size="13" lengthAdjust="spacing" textLength="146.7134" x="229.5591" y="198.1387">Enable the video module:</text><text fill="#0A9EFD" font-family="Arial" font-size="13" lengthAdjust="spacing" textLength="149.627" x="229.9082" y="213.0874">agoraEngine.enableVideo</text></g><g class="message" data-participant-1="APP" data-participant-2="APP"><line style="stroke:#0A9EFD;stroke-width:2;" x1="219.2964" x2="261.2964" y1="274.7397" y2="274.7397"/><line style="stroke:#0A9EFD;stroke-width:2;" x1="261.2964" x2="261.2964" y1="274.7397" y2="287.7397"/><line style="stroke:#0A9EFD;stroke-width:2;" x1="220.2964" x2="261.2964" y1="287.7397" y2="287.7397"/><polygon fill="#0A9EFD" points="230.2964,283.7397,220.2964,287.7397,230.2964,291.7397,226.2964,287.7397" style="stroke:#0A9EFD;stroke-width:1;"/><text fill="#0A9EFD" font-family="Arial" font-size="13" lengthAdjust="spacing" textLength="156.0952" x="247.9768" y="255.0361">Register the event handler:</text><text fill="#0A9EFD" font-family="Arial" font-size="13" lengthAdjust="spacing" textLength="199.4561" x="229.9082" y="269.9849">agoraEngine.registerEventHandler</text></g><g class="message" data-participant-1="APP" data-participant-2="APP"><line style="stroke:#0A9EFD;stroke-width:2;" x1="219.2964" x2="261.2964" y1="331.6372" y2="331.6372"/><line style="stroke:#0A9EFD;stroke-width:2;" x1="261.2964" x2="261.2964" y1="331.6372" y2="344.6372"/><line style="stroke:#0A9EFD;stroke-width:2;" x1="220.2964" x2="261.2964" y1="344.6372" y2="344.6372"/><polygon fill="#0A9EFD" points="230.2964,340.6372,220.2964,344.6372,230.2964,348.6372,226.2964,344.6372" style="stroke:#0A9EFD;stroke-width:1;"/><text fill="#0A9EFD" font-family="Arial" font-size="13" lengthAdjust="spacing" textLength="174.8906" x="226.2964" y="311.9336">Setup AgoraVideoView widget</text><text fill="#0A9EFD" font-family="Arial" font-size="13" lengthAdjust="spacing" textLength="139.4517" x="247.6277" y="326.8823">for local or remote video</text></g><path d="M10,359.6372 L81.73,359.6372 L81.73,366.5859 L71.73,376.5859 L10,376.5859 L10,359.6372" fill="#EEEEEE" style="stroke:#0A9EFD;stroke-width:1.5;"/><rect fill="none" height="391.231" style="stroke:#0A9EFD;stroke-width:2;" width="701.5757" x="10" y="359.6372"/><text fill="#000000" font-family="Arial" font-size="13" lengthAdjust="spacing" textLength="26.73" x="25" y="372.8311">Host</text><g class="message" data-participant-1="USR" data-participant-2="APP"><polygon fill="#0A9EFD" points="207.2964,393.5347,217.2964,397.5347,207.2964,401.5347,211.2964,397.5347" style="stroke:#0A9EFD;stroke-width:1;"/><line style="stroke:#0A9EFD;stroke-width:2;" x1="37.7793" x2="213.2964" y1="397.5347" y2="397.5347"/><text fill="#0A9EFD" font-family="Arial" font-size="13" lengthAdjust="spacing" textLength="157.5171" x="49.7793" y="392.7798">Start a live streaming event</text></g><g class="message" data-participant-1="APP" data-participant-2="API"><polygon fill="#0A9EFD" points="653.3076,437.4321,663.3076,441.4321,653.3076,445.4321,657.3076,441.4321" style="stroke:#0A9EFD;stroke-width:1;"/><line style="stroke:#0A9EFD;stroke-width:2;" x1="219.2964" x2="659.3076" y1="441.4321" y2="441.4321"/><text fill="#0A9EFD" font-family="Arial" font-size="13" lengthAdjust="spacing" textLength="151.7407" x="364.6257" y="421.7285">Set the client role as Host:</text><text fill="#0A9EFD" font-family="Arial" font-size="13" lengthAdjust="spacing" textLength="415.4858" x="236.365" y="436.6772">agoraEngine.setClientRole(role: ClientRoleType.clientRoleBroadcaster);</text></g><g class="message" data-participant-1="APP" data-participant-2="API"><polygon fill="#0A9EFD" points="653.3076,481.3296,663.3076,485.3296,653.3076,489.3296,657.3076,485.3296" style="stroke:#0A9EFD;stroke-width:1;"/><line style="stroke:#0A9EFD;stroke-width:2;" x1="219.2964" x2="659.3076" y1="485.3296" y2="485.3296"/><text fill="#0A9EFD" font-family="Arial" font-size="13" lengthAdjust="spacing" textLength="122.1353" x="379.4285" y="465.626">Set a channel profile:</text><text fill="#0A9EFD" font-family="Arial" font-size="13" lengthAdjust="spacing" textLength="418.3994" x="234.9082" y="480.5747">.setChannelProfile(ChannelProfileType.channelProfileLiveBroadcasting);</text></g><g class="message" data-participant-1="APP" data-participant-2="APP"><line style="stroke:#0A9EFD;stroke-width:2;" x1="219.2964" x2="261.2964" y1="514.2783" y2="514.2783"/><line style="stroke:#0A9EFD;stroke-width:2;" x1="261.2964" x2="261.2964" y1="514.2783" y2="527.2783"/><line style="stroke:#0A9EFD;stroke-width:2;" x1="220.2964" x2="261.2964" y1="527.2783" y2="527.2783"/><polygon fill="#0A9EFD" points="230.2964,523.2783,220.2964,527.2783,230.2964,531.2783,226.2964,527.2783" style="stroke:#0A9EFD;stroke-width:1;"/><text fill="#0A9EFD" font-family="Arial" font-size="13" lengthAdjust="spacing" textLength="168.3843" x="226.2964" y="509.5234">Retrieve authentication token</text></g><g class="message" data-participant-1="APP" data-participant-2="API"><polygon fill="#0A9EFD" points="653.3076,567.1758,663.3076,571.1758,653.3076,575.1758,657.3076,571.1758" style="stroke:#0A9EFD;stroke-width:1;"/><line style="stroke:#0A9EFD;stroke-width:2;" x1="219.2964" x2="659.3076" y1="571.1758" y2="571.1758"/><text fill="#0A9EFD" font-family="Arial" font-size="13" lengthAdjust="spacing" textLength="179.2388" x="352.6826" y="551.4722">Join a channel using the token:</text><text fill="#0A9EFD" font-family="Arial" font-size="13" lengthAdjust="spacing" textLength="146.0024" x="371.1067" y="566.4209">agoraEngine.joinChannel</text></g><g class="message" data-participant-1="APP" data-participant-2="API"><polygon fill="#0A9EFD" points="653.3076,596.1245,663.3076,600.1245,653.3076,604.1245,657.3076,600.1245" style="stroke:#0A9EFD;stroke-width:1;"/><line style="stroke:#0A9EFD;stroke-width:2;" x1="219.2964" x2="659.3076" y1="600.1245" y2="600.1245"/><text fill="#0A9EFD" font-family="Arial" font-size="13" lengthAdjust="spacing" textLength="109.1162" x="387.7439" y="595.3696">Send data streams</text></g><g class="message" data-participant-1="API" data-participant-2="APP"><polygon fill="#0A9EFD" points="230.2964,640.022,220.2964,644.022,230.2964,648.022,226.2964,644.022" style="stroke:#0A9EFD;stroke-width:1;"/><line style="stroke:#0A9EFD;stroke-width:2;" x1="224.2964" x2="664.3076" y1="644.022" y2="644.022"/><text fill="#0A9EFD" font-family="Arial" font-size="13" lengthAdjust="spacing" textLength="116.3398" x="382.3262" y="624.3184">Remote user joined:</text><text fill="#0A9EFD" font-family="Arial" font-size="13" lengthAdjust="spacing" textLength="226.186" x="331.0149" y="639.2671">RtcEngineEventHandler onUserJoined:</text></g><g class="message" data-participant-1="APP" data-participant-2="APP"><line style="stroke:#0A9EFD;stroke-width:2;" x1="219.2964" x2="261.2964" y1="687.9194" y2="687.9194"/><line style="stroke:#0A9EFD;stroke-width:2;" x1="261.2964" x2="261.2964" y1="687.9194" y2="700.9194"/><line style="stroke:#0A9EFD;stroke-width:2;" x1="220.2964" x2="261.2964" y1="700.9194" y2="700.9194"/><polygon fill="#0A9EFD" points="230.2964,696.9194,220.2964,700.9194,230.2964,704.9194,226.2964,700.9194" style="stroke:#0A9EFD;stroke-width:1;"/><text fill="#0A9EFD" font-family="Arial" font-size="13" lengthAdjust="spacing" textLength="105.4917" x="252.3091" y="668.2158">Start local peview:</text><text fill="#0A9EFD" font-family="Arial" font-size="13" lengthAdjust="spacing" textLength="157.5171" x="229.9082" y="683.1646">agoraEngine.startPreview()</text></g><g class="message" data-participant-1="APP" data-participant-2="APP"><line style="stroke:#0A9EFD;stroke-width:2;" x1="219.2964" x2="261.2964" y1="729.8682" y2="729.8682"/><line style="stroke:#0A9EFD;stroke-width:2;" x1="261.2964" x2="261.2964" y1="729.8682" y2="742.8682"/><line style="stroke:#0A9EFD;stroke-width:2;" x1="220.2964" x2="261.2964" y1="742.8682" y2="742.8682"/><polygon fill="#0A9EFD" points="230.2964,738.8682,220.2964,742.8682,230.2964,746.8682,226.2964,742.8682" style="stroke:#0A9EFD;stroke-width:1;"/><text fill="#0A9EFD" font-family="Arial" font-size="13" lengthAdjust="spacing" textLength="242.0806" x="226.2964" y="725.1133">Display local video using AgoraVideoView</text></g><path d="M10,764.8682 L109.209,764.8682 L109.209,771.8169 L99.209,781.8169 L10,781.8169 L10,764.8682" fill="#EEEEEE" style="stroke:#0A9EFD;stroke-width:1.5;"/><rect fill="none" height="334.3335" style="stroke:#0A9EFD;stroke-width:2;" width="701.5757" x="10" y="764.8682"/><text fill="#000000" font-family="Arial" font-size="13" lengthAdjust="spacing" textLength="54.209" x="25" y="778.062">Audience</text><g class="message" data-participant-1="USR" data-participant-2="APP"><polygon fill="#0A9EFD" points="207.2964,798.7656,217.2964,802.7656,207.2964,806.7656,211.2964,802.7656" style="stroke:#0A9EFD;stroke-width:1;"/><line style="stroke:#0A9EFD;stroke-width:2;" x1="37.7793" x2="213.2964" y1="802.7656" y2="802.7656"/><text fill="#0A9EFD" font-family="Arial" font-size="13" lengthAdjust="spacing" textLength="153.9116" x="51.582" y="798.0107">Join a live streaming event</text></g><g class="message" data-participant-1="APP" data-participant-2="API"><polygon fill="#0A9EFD" points="653.3076,842.6631,663.3076,846.6631,653.3076,850.6631,657.3076,846.6631" style="stroke:#0A9EFD;stroke-width:1;"/><line style="stroke:#0A9EFD;stroke-width:2;" x1="219.2964" x2="659.3076" y1="846.6631" y2="846.6631"/><text fill="#0A9EFD" font-family="Arial" font-size="13" lengthAdjust="spacing" textLength="179.2197" x="350.8862" y="826.9595">Set the client role as Audience:</text><text fill="#0A9EFD" font-family="Arial" font-size="13" lengthAdjust="spacing" textLength="399.604" x="244.3059" y="841.9082">agoraEngine.setClientRole(role: ClientRoleType.clientRoleAudience);</text></g><g class="message" data-participant-1="APP" data-participant-2="API"><polygon fill="#0A9EFD" points="653.3076,886.5605,663.3076,890.5605,653.3076,894.5605,657.3076,890.5605" style="stroke:#0A9EFD;stroke-width:1;"/><line style="stroke:#0A9EFD;stroke-width:2;" x1="219.2964" x2="659.3076" y1="890.5605" y2="890.5605"/><text fill="#0A9EFD" font-family="Arial" font-size="13" lengthAdjust="spacing" textLength="122.1353" x="379.4285" y="870.8569">Set a channel profile:</text><text fill="#0A9EFD" font-family="Arial" font-size="13" lengthAdjust="spacing" textLength="418.3994" x="234.9082" y="885.8057">.setChannelProfile(ChannelProfileType.channelProfileLiveBroadcasting);</text></g><g class="message" data-participant-1="APP" data-participant-2="APP"><line style="stroke:#0A9EFD;stroke-width:2;" x1="219.2964" x2="261.2964" y1="919.5093" y2="919.5093"/><line style="stroke:#0A9EFD;stroke-width:2;" x1="261.2964" x2="261.2964" y1="919.5093" y2="932.5093"/><line style="stroke:#0A9EFD;stroke-width:2;" x1="220.2964" x2="261.2964" y1="932.5093" y2="932.5093"/><polygon fill="#0A9EFD" points="230.2964,928.5093,220.2964,932.5093,230.2964,936.5093,226.2964,932.5093" style="stroke:#0A9EFD;stroke-width:1;"/><text fill="#0A9EFD" font-family="Arial" font-size="13" lengthAdjust="spacing" textLength="168.3843" x="226.2964" y="914.7544">Retrieve authentication token</text></g><g class="message" data-participant-1="APP" data-participant-2="API"><polygon fill="#0A9EFD" points="653.3076,972.4067,663.3076,976.4067,653.3076,980.4067,657.3076,976.4067" style="stroke:#0A9EFD;stroke-width:1;"/><line style="stroke:#0A9EFD;stroke-width:2;" x1="219.2964" x2="659.3076" y1="976.4067" y2="976.4067"/><text fill="#0A9EFD" font-family="Arial" font-size="13" lengthAdjust="spacing" textLength="179.2388" x="352.6826" y="956.7031">Join a channel using the token:</text><text fill="#0A9EFD" font-family="Arial" font-size="13" lengthAdjust="spacing" textLength="146.0024" x="371.1067" y="971.6519">agoraEngine.joinChannel</text></g><g class="message" data-participant-1="API" data-participant-2="APP"><polygon fill="#0A9EFD" points="230.2964,1016.3042,220.2964,1020.3042,230.2964,1024.3042,226.2964,1020.3042" style="stroke:#0A9EFD;stroke-width:1;"/><line style="stroke:#0A9EFD;stroke-width:2;" x1="224.2964" x2="664.3076" y1="1020.3042" y2="1020.3042"/><text fill="#0A9EFD" font-family="Arial" font-size="13" lengthAdjust="spacing" textLength="116.3398" x="382.3262" y="1000.6006">Remote user joined:</text><text fill="#0A9EFD" font-family="Arial" font-size="13" lengthAdjust="spacing" textLength="226.186" x="331.0149" y="1015.5493">RtcEngineEventHandler onUserJoined:</text></g><g class="message" data-participant-1="API" data-participant-2="APP"><polygon fill="#0A9EFD" points="230.2964,1045.2529,220.2964,1049.2529,230.2964,1053.2529,226.2964,1049.2529" style="stroke:#0A9EFD;stroke-width:1;"/><line style="stroke:#0A9EFD;stroke-width:2;" x1="224.2964" x2="664.3076" y1="1049.2529" y2="1049.2529"/><text fill="#0A9EFD" font-family="Arial" font-size="13" lengthAdjust="spacing" textLength="125.7217" x="379.4412" y="1044.498">Receive data streams</text></g><g class="message" data-participant-1="APP" data-participant-2="APP"><line style="stroke:#0A9EFD;stroke-width:2;" x1="219.2964" x2="261.2964" y1="1078.2017" y2="1078.2017"/><line style="stroke:#0A9EFD;stroke-width:2;" x1="261.2964" x2="261.2964" y1="1078.2017" y2="1091.2017"/><line style="stroke:#0A9EFD;stroke-width:2;" x1="220.2964" x2="261.2964" y1="1091.2017" y2="1091.2017"/><polygon fill="#0A9EFD" points="230.2964,1087.2017,220.2964,1091.2017,230.2964,1095.2017,226.2964,1091.2017" style="stroke:#0A9EFD;stroke-width:1;"/><text fill="#0A9EFD" font-family="Arial" font-size="13" lengthAdjust="spacing" textLength="255.8169" x="226.2964" y="1073.4468">Render remote video using AgoraVideoView</text></g><g class="message" data-participant-1="USR" data-participant-2="APP"><polygon fill="#0A9EFD" points="207.2964,1123.1504,217.2964,1127.1504,207.2964,1131.1504,211.2964,1127.1504" style="stroke:#0A9EFD;stroke-width:1;"/><line style="stroke:#0A9EFD;stroke-width:2;" x1="37.7793" x2="213.2964" y1="1127.1504" y2="1127.1504"/><text fill="#0A9EFD" font-family="Arial" font-size="13" lengthAdjust="spacing" textLength="96.1226" x="80.4766" y="1122.3955">Leave broadcast</text></g><g class="message" data-participant-1="APP" data-participant-2="API"><polygon fill="#0A9EFD" points="653.3076,1152.0991,663.3076,1156.0991,653.3076,1160.0991,657.3076,1156.0991" style="stroke:#0A9EFD;stroke-width:1;"/><line style="stroke:#0A9EFD;stroke-width:2;" x1="219.2964" x2="659.3076" y1="1156.0991" y2="1156.0991"/><text fill="#0A9EFD" font-family="Arial" font-size="13" lengthAdjust="spacing" textLength="165.5024" x="359.5508" y="1151.3442">agoraEngine.leaveChannel()</text></g><g class="message" data-participant-1="USR" data-participant-2="APP"><polygon fill="#0A9EFD" points="207.2964,1181.0479,217.2964,1185.0479,207.2964,1189.0479,211.2964,1185.0479" style="stroke:#0A9EFD;stroke-width:1;"/><line style="stroke:#0A9EFD;stroke-width:2;" x1="37.7793" x2="213.2964" y1="1185.0479" y2="1185.0479"/><text fill="#0A9EFD" font-family="Arial" font-size="13" lengthAdjust="spacing" textLength="58.5381" x="99.2688" y="1180.293">Close app</text></g><!--SRC=[vLNDRXen4BxlKqmvaKDu0FeZKK0AQTIYXKIALAaozcJZnjYMxILD7weFqIVhs5vO358FRM-zuV4ttymtyvbz9JLNhK1WZN7iYt-IUYJRhQegneDnCBZrw0R0FDokwghQc6ymk3Uj0sRjeBBC1ScbPJh0e5vFOJNxaC2JvR92BO3mNT8ayfzah6Rr-kFF7rt6ei-WMd3vBhACuPD53HDhApeTWWijWsHAVaS8ZmY97Be607KZDOxXiywgvkaCRu4xP04Jk0uyXuSN1V5SiutAf3ifqC3MY5RXkEGQOOBTHKIHNcCZVK2N2727fFAHQQ7GdROpSXrq7b5N6LHmhJ2qDajBXUuaFiEp50s6oFL0sr66CmNqm-7MXAxbgcgSeSmhuqCnoLMWuGC39NS8Fj0mjb8tkSs-yY9LJWAuab61CpGHMb4aF9FXCKmJh2RKC4B7q0VMBnP7_71yxmmJd4NP5w_FIZBWD2oD2gmp3rBb5QOAERxCuM5vp3MAq0qfFDGYZSV5qfQ2aoGRM4ioDHcI1Maq1FE4kcZhsaXzr5Vhuy3YQ1Bqr1LV2TtrTYAEZ2rOODtKVRfzSvblwxoxbXuQH0OKIVV1eSS60QFZWxpEiD8kQRlP4HPtP9RpNKN8qgNB4z_FfBUAlNJvsVfPRMd0-4Rt1fkqWXRBiJ1PDx4_zTYUy-zyjcVv7qpsZspKqt2CkpkpQwzB2op_SNxZb6Dht20Zuir-PCKCZXMgYEiaaaqBZgao7kF7f_e5]--></g></svg>