<svg xmlns="http://www.w3.org/2000/svg" xmlns:xlink="http://www.w3.org/1999/xlink" contentStyleType="text/css" data-diagram-type="SEQUENCE" height="1133px" preserveAspectRatio="none" style="width:787px;height:1133px;" version="1.1" viewBox="0 0 787 1133" width="787px" zoomAndPan="magnify"><defs/><g><rect fill="none" height="1131.4541" style="stroke:#0A9EFD;stroke-width:1;" width="785.7046" x="0" y="0"/><rect fill="#999999" fill-opacity="0.33333" height="1121.4541" style="stroke:#0A9EFD;stroke-width:0.5;" width="83.4482" x="174.6968" y="6"/><text fill="#0A9EFD" font-family="sans-serif" font-size="13" font-weight="bold" lengthAdjust="spacing" textLength="56.3354" x="188.2532" y="19.4951">Your app</text><rect fill="#999999" fill-opacity="0.33333" height="1121.4541" style="stroke:#0A9EFD;stroke-width:0.5;" width="80.5361" x="695.1685" y="6"/><text fill="#0A9EFD" font-family="sans-serif" font-size="13" font-weight="bold" lengthAdjust="spacing" textLength="37.5591" x="716.657" y="19.4951">Agora</text><rect fill="#0A9EFD" fill-opacity="0.06667" height="375.2822" style="stroke:#0A9EFD;stroke-width:2;" width="771.7046" x="10" y="359.6372"/><rect fill="#0A9EFD" fill-opacity="0.06667" height="219.5386" style="stroke:#0A9EFD;stroke-width:2;" width="771.7046" x="10" y="748.9194"/><g><title>User</title><rect fill="#000000" fill-opacity="0.00000" height="957.2568" width="8" x="33.7793" y="86.0986"/><line style="stroke:#0A9EFD;stroke-width:0.5;stroke-dasharray:5.0,5.0;" x1="37" x2="37" y1="86.0986" y2="1043.3555"/></g><g><title>RTC SDK</title><rect fill="#000000" fill-opacity="0.00000" height="957.2568" width="8" x="212.4209" y="86.0986"/><line style="stroke:#0A9EFD;stroke-width:0.5;stroke-dasharray:5.0,5.0;" x1="215.6968" x2="215.6968" y1="86.0986" y2="1043.3555"/></g><g><title>SDRTN&#174;</title><rect fill="#000000" fill-opacity="0.00000" height="957.2568" width="8" x="731.4365" y="86.0986"/><line style="stroke:#0A9EFD;stroke-width:0.5;stroke-dasharray:5.0,5.0;" x1="735.1685" x2="735.1685" y1="86.0986" y2="1043.3555"/></g><g class="participant participant-head" data-participant="USR"><text fill="#0A9EFD" font-family="Arial" font-size="14" lengthAdjust="spacing" textLength="29.5586" x="20" y="83.1318">User</text><ellipse cx="37.7793" cy="16" fill="none" rx="8" ry="8" style="stroke:#0A9EFD;stroke-width:3;"/><path d="M37.7793,24 L37.7793,51 M24.7793,32 L50.7793,32 M37.7793,51 L24.7793,66 M37.7793,51 L50.7793,66" fill="none" style="stroke:#0A9EFD;stroke-width:3;"/></g><g class="participant participant-tail" data-participant="USR"><text fill="#0A9EFD" font-family="Arial" font-size="14" lengthAdjust="spacing" textLength="29.5586" x="20" y="1055.4873">User</text><ellipse cx="37.7793" cy="1069.4541" fill="none" rx="8" ry="8" style="stroke:#0A9EFD;stroke-width:3;"/><path d="M37.7793,1077.4541 L37.7793,1104.4541 M24.7793,1085.4541 L50.7793,1085.4541 M37.7793,1104.4541 L24.7793,1119.4541 M37.7793,1104.4541 L50.7793,1119.4541" fill="none" style="stroke:#0A9EFD;stroke-width:3;"/></g><g class="participant participant-head" data-participant="APP"><rect fill="none" height="30.0986" rx="2.5" ry="2.5" style="stroke:#0A9EFD;stroke-width:2;" width="75.4482" x="178.6968" y="55"/><text fill="#0A9EFD" font-family="Arial" font-size="14" lengthAdjust="spacing" textLength="61.4482" x="185.6968" y="75.1318">RTC SDK</text></g><g class="participant participant-tail" data-participant="APP"><rect fill="none" height="30.0986" rx="2.5" ry="2.5" style="stroke:#0A9EFD;stroke-width:2;" width="75.4482" x="178.6968" y="1042.3555"/><text fill="#0A9EFD" font-family="Arial" font-size="14" lengthAdjust="spacing" textLength="61.4482" x="185.6968" y="1062.4873">RTC SDK</text></g><g class="participant participant-head" data-participant="API"><rect fill="none" height="30.0986" rx="2.5" ry="2.5" style="stroke:#0A9EFD;stroke-width:2;" width="72.5361" x="699.1685" y="55"/><text fill="#0A9EFD" font-family="Arial" font-size="14" lengthAdjust="spacing" textLength="58.5361" x="706.1685" y="75.1318">SDRTN&#174;</text></g><g class="participant participant-tail" data-participant="API"><rect fill="none" height="30.0986" rx="2.5" ry="2.5" style="stroke:#0A9EFD;stroke-width:2;" width="72.5361" x="699.1685" y="1042.3555"/><text fill="#0A9EFD" font-family="Arial" font-size="14" lengthAdjust="spacing" textLength="58.5361" x="706.1685" y="1062.4873">SDRTN&#174;</text></g><g class="message" data-participant-1="USR" data-participant-2="APP"><polygon fill="#0A9EFD" points="204.4209,113.0474,214.4209,117.0474,204.4209,121.0474,208.4209,117.0474" style="stroke:#0A9EFD;stroke-width:1;"/><line style="stroke:#0A9EFD;stroke-width:2;" x1="37.7793" x2="210.4209" y1="117.0474" y2="117.0474"/><text fill="#0A9EFD" font-family="Arial" font-size="13" lengthAdjust="spacing" textLength="58.5444" x="97.8279" y="112.2925">Open App</text></g><g class="message" data-participant-1="APP" data-participant-2="APP"><line style="stroke:#0A9EFD;stroke-width:2;" x1="216.4209" x2="258.4209" y1="160.9448" y2="160.9448"/><line style="stroke:#0A9EFD;stroke-width:2;" x1="258.4209" x2="258.4209" y1="160.9448" y2="173.9448"/><line style="stroke:#0A9EFD;stroke-width:2;" x1="217.4209" x2="258.4209" y1="173.9448" y2="173.9448"/><polygon fill="#0A9EFD" points="227.4209,169.9448,217.4209,173.9448,227.4209,177.9448,223.4209,173.9448" style="stroke:#0A9EFD;stroke-width:1;"/><text fill="#0A9EFD" font-family="Arial" font-size="13" lengthAdjust="spacing" textLength="252.1924" x="247.4722" y="141.2412">Create an instance of the RTC SDK engine:</text><text fill="#0A9EFD" font-family="Arial" font-size="13" lengthAdjust="spacing" textLength="296.6831" x="227.0327" y="156.1899">agoraEngine = agoraEngine.createAgoraRtcEngine</text></g><g class="message" data-participant-1="APP" data-participant-2="APP"><line style="stroke:#0A9EFD;stroke-width:2;" x1="216.4209" x2="258.4209" y1="217.8423" y2="217.8423"/><line style="stroke:#0A9EFD;stroke-width:2;" x1="258.4209" x2="258.4209" y1="217.8423" y2="230.8423"/><line style="stroke:#0A9EFD;stroke-width:2;" x1="217.4209" x2="258.4209" y1="230.8423" y2="230.8423"/><polygon fill="#0A9EFD" points="227.4209,226.8423,217.4209,230.8423,227.4209,234.8423,223.4209,230.8423" style="stroke:#0A9EFD;stroke-width:1;"/><text fill="#0A9EFD" font-family="Arial" font-size="13" lengthAdjust="spacing" textLength="171.2661" x="223.4209" y="198.1387">Initialize the created instance:</text><text fill="#0A9EFD" font-family="Arial" font-size="13" lengthAdjust="spacing" textLength="123.5825" x="250.8745" y="213.0874">agoraEngine.initialize</text></g><g class="message" data-participant-1="APP" data-participant-2="APP"><line style="stroke:#0A9EFD;stroke-width:2;" x1="216.4209" x2="258.4209" y1="274.7397" y2="274.7397"/><line style="stroke:#0A9EFD;stroke-width:2;" x1="258.4209" x2="258.4209" y1="274.7397" y2="287.7397"/><line style="stroke:#0A9EFD;stroke-width:2;" x1="217.4209" x2="258.4209" y1="287.7397" y2="287.7397"/><polygon fill="#0A9EFD" points="227.4209,283.7397,217.4209,287.7397,227.4209,291.7397,223.4209,287.7397" style="stroke:#0A9EFD;stroke-width:1;"/><text fill="#0A9EFD" font-family="Arial" font-size="13" lengthAdjust="spacing" textLength="165.4897" x="240.4041" y="255.0361">Setup the callback functions:</text><text fill="#0A9EFD" font-family="Arial" font-size="13" lengthAdjust="spacing" textLength="199.4561" x="227.0327" y="269.9849">agoraEngine.registerEventHandler</text></g><g class="message" data-participant-1="APP" data-participant-2="APP"><line style="stroke:#0A9EFD;stroke-width:2;" x1="216.4209" x2="258.4209" y1="331.6372" y2="331.6372"/><line style="stroke:#0A9EFD;stroke-width:2;" x1="258.4209" x2="258.4209" y1="331.6372" y2="344.6372"/><line style="stroke:#0A9EFD;stroke-width:2;" x1="217.4209" x2="258.4209" y1="344.6372" y2="344.6372"/><polygon fill="#0A9EFD" points="227.4209,340.6372,217.4209,344.6372,227.4209,348.6372,223.4209,344.6372" style="stroke:#0A9EFD;stroke-width:1;"/><text fill="#0A9EFD" font-family="Arial" font-size="13" lengthAdjust="spacing" textLength="132.9771" x="246.9104" y="311.9336">Set the channel profile:</text><text fill="#0A9EFD" font-family="Arial" font-size="13" lengthAdjust="spacing" textLength="179.9561" x="227.0327" y="326.8823">agoraEngine.setChannelProfile</text></g><path d="M10,359.6372 L81.73,359.6372 L81.73,366.5859 L71.73,376.5859 L10,376.5859 L10,359.6372" fill="#EEEEEE" style="stroke:#0A9EFD;stroke-width:1.5;"/><rect fill="none" height="375.2822" style="stroke:#0A9EFD;stroke-width:2;" width="771.7046" x="10" y="359.6372"/><text fill="#000000" font-family="Arial" font-size="13" lengthAdjust="spacing" textLength="26.73" x="25" y="372.8311">Host</text><g class="message" data-participant-1="USR" data-participant-2="APP"><polygon fill="#0A9EFD" points="204.4209,393.5347,214.4209,397.5347,204.4209,401.5347,208.4209,397.5347" style="stroke:#0A9EFD;stroke-width:1;"/><line style="stroke:#0A9EFD;stroke-width:2;" x1="37.7793" x2="210.4209" y1="397.5347" y2="397.5347"/><text fill="#0A9EFD" font-family="Arial" font-size="13" lengthAdjust="spacing" textLength="146.6753" x="53.7625" y="392.7798">Start live streaming event</text></g><g class="message" data-participant-1="APP" data-participant-2="APP"><line style="stroke:#0A9EFD;stroke-width:2;" x1="216.4209" x2="258.4209" y1="441.4321" y2="441.4321"/><line style="stroke:#0A9EFD;stroke-width:2;" x1="258.4209" x2="258.4209" y1="441.4321" y2="454.4321"/><line style="stroke:#0A9EFD;stroke-width:2;" x1="217.4209" x2="258.4209" y1="454.4321" y2="454.4321"/><polygon fill="#0A9EFD" points="227.4209,450.4321,217.4209,454.4321,227.4209,458.4321,223.4209,454.4321" style="stroke:#0A9EFD;stroke-width:1;"/><text fill="#0A9EFD" font-family="Arial" font-size="13" lengthAdjust="spacing" textLength="102.6226" x="260.6499" y="421.7285">Setup local video:</text><text fill="#0A9EFD" font-family="Arial" font-size="13" lengthAdjust="spacing" textLength="173.4688" x="230.6445" y="436.6772">agoraEngine.setupLocalVideo</text></g><g class="message" data-participant-1="APP" data-participant-2="APP"><line style="stroke:#0A9EFD;stroke-width:2;" x1="216.4209" x2="258.4209" y1="498.3296" y2="498.3296"/><line style="stroke:#0A9EFD;stroke-width:2;" x1="258.4209" x2="258.4209" y1="498.3296" y2="511.3296"/><line style="stroke:#0A9EFD;stroke-width:2;" x1="217.4209" x2="258.4209" y1="511.3296" y2="511.3296"/><polygon fill="#0A9EFD" points="227.4209,507.3296,217.4209,511.3296,227.4209,515.3296,223.4209,511.3296" style="stroke:#0A9EFD;stroke-width:1;"/><text fill="#0A9EFD" font-family="Arial" font-size="13" lengthAdjust="spacing" textLength="160.4307" x="223.4209" y="478.626">Enable local video capturer:</text><text fill="#0A9EFD" font-family="Arial" font-size="13" lengthAdjust="spacing" textLength="149.627" x="232.4346" y="493.5747">agoraEngine.enableVideo</text></g><g class="message" data-participant-1="APP" data-participant-2="APP"><line style="stroke:#0A9EFD;stroke-width:2;" x1="216.4209" x2="258.4209" y1="555.2271" y2="555.2271"/><line style="stroke:#0A9EFD;stroke-width:2;" x1="258.4209" x2="258.4209" y1="555.2271" y2="568.2271"/><line style="stroke:#0A9EFD;stroke-width:2;" x1="217.4209" x2="258.4209" y1="568.2271" y2="568.2271"/><polygon fill="#0A9EFD" points="227.4209,564.2271,217.4209,568.2271,227.4209,572.2271,223.4209,568.2271" style="stroke:#0A9EFD;stroke-width:1;"/><text fill="#0A9EFD" font-family="Arial" font-size="13" lengthAdjust="spacing" textLength="109.8208" x="242.9399" y="535.5234">Start local preview:</text><text fill="#0A9EFD" font-family="Arial" font-size="13" lengthAdjust="spacing" textLength="148.8589" x="227.0327" y="550.4722">agoraEngine.startPreview</text></g><g class="message" data-participant-1="APP" data-participant-2="API"><polygon fill="#0A9EFD" points="723.4365,608.1245,733.4365,612.1245,723.4365,616.1245,727.4365,612.1245" style="stroke:#0A9EFD;stroke-width:1;"/><line style="stroke:#0A9EFD;stroke-width:2;" x1="216.4209" x2="729.4365" y1="612.1245" y2="612.1245"/><text fill="#0A9EFD" font-family="Arial" font-size="13" lengthAdjust="spacing" textLength="144.5234" x="400.0552" y="592.4209">Set the user role as host:</text><text fill="#0A9EFD" font-family="Arial" font-size="13" lengthAdjust="spacing" textLength="491.4038" x="232.0327" y="607.3696">agoraEngine.setChannelProfile(ChannelProfileType.ChannelProfileLiveBroadcasting)</text></g><g class="message" data-participant-1="APP" data-participant-2="APP"><line style="stroke:#0A9EFD;stroke-width:2;" x1="216.4209" x2="258.4209" y1="641.0732" y2="641.0732"/><line style="stroke:#0A9EFD;stroke-width:2;" x1="258.4209" x2="258.4209" y1="641.0732" y2="654.0732"/><line style="stroke:#0A9EFD;stroke-width:2;" x1="217.4209" x2="258.4209" y1="654.0732" y2="654.0732"/><polygon fill="#0A9EFD" points="227.4209,650.0732,217.4209,654.0732,227.4209,658.0732,223.4209,654.0732" style="stroke:#0A9EFD;stroke-width:1;"/><text fill="#0A9EFD" font-family="Arial" font-size="13" lengthAdjust="spacing" textLength="255.8359" x="223.4209" y="636.3184">Retrieve authentication token to join channel</text></g><g class="message" data-participant-1="APP" data-participant-2="API"><polygon fill="#0A9EFD" points="723.4365,693.9707,733.4365,697.9707,723.4365,701.9707,727.4365,697.9707" style="stroke:#0A9EFD;stroke-width:1;"/><line style="stroke:#0A9EFD;stroke-width:2;" x1="216.4209" x2="729.4365" y1="697.9707" y2="697.9707"/><text fill="#0A9EFD" font-family="Arial" font-size="13" lengthAdjust="spacing" textLength="132.9771" x="409.4402" y="678.2671">Join a channel as host:</text><text fill="#0A9EFD" font-family="Arial" font-size="13" lengthAdjust="spacing" textLength="146.0024" x="404.7334" y="693.2158">agoraEngine.joinChannel</text></g><g class="message" data-participant-1="APP" data-participant-2="API"><polygon fill="#0A9EFD" points="723.4365,722.9194,733.4365,726.9194,723.4365,730.9194,727.4365,726.9194" style="stroke:#0A9EFD;stroke-width:1;"/><line style="stroke:#0A9EFD;stroke-width:2;" x1="216.4209" x2="729.4365" y1="726.9194" y2="726.9194"/><text fill="#0A9EFD" font-family="Arial" font-size="13" lengthAdjust="spacing" textLength="102.6162" x="424.6206" y="722.1646">Send data stream</text></g><path d="M10,748.9194 L109.209,748.9194 L109.209,755.8682 L99.209,765.8682 L10,765.8682 L10,748.9194" fill="#EEEEEE" style="stroke:#0A9EFD;stroke-width:1.5;"/><rect fill="none" height="219.5386" style="stroke:#0A9EFD;stroke-width:2;" width="771.7046" x="10" y="748.9194"/><text fill="#000000" font-family="Arial" font-size="13" lengthAdjust="spacing" textLength="54.209" x="25" y="762.1133">Audience</text><g class="message" data-participant-1="USR" data-participant-2="APP"><polygon fill="#0A9EFD" points="204.4209,782.8169,214.4209,786.8169,204.4209,790.8169,208.4209,786.8169" style="stroke:#0A9EFD;stroke-width:1;"/><line style="stroke:#0A9EFD;stroke-width:2;" x1="37.7793" x2="210.4209" y1="786.8169" y2="786.8169"/><text fill="#0A9EFD" font-family="Arial" font-size="13" lengthAdjust="spacing" textLength="143.0698" x="55.5652" y="782.062">Join live streaming event</text></g><g class="message" data-participant-1="APP" data-participant-2="APP"><line style="stroke:#0A9EFD;stroke-width:2;" x1="216.4209" x2="258.4209" y1="815.7656" y2="815.7656"/><line style="stroke:#0A9EFD;stroke-width:2;" x1="258.4209" x2="258.4209" y1="815.7656" y2="828.7656"/><line style="stroke:#0A9EFD;stroke-width:2;" x1="217.4209" x2="258.4209" y1="828.7656" y2="828.7656"/><polygon fill="#0A9EFD" points="227.4209,824.7656,217.4209,828.7656,227.4209,832.7656,223.4209,828.7656" style="stroke:#0A9EFD;stroke-width:1;"/><text fill="#0A9EFD" font-family="Arial" font-size="13" lengthAdjust="spacing" textLength="255.8359" x="223.4209" y="811.0107">Retrieve authentication token to join channel</text></g><g class="message" data-participant-1="APP" data-participant-2="API"><polygon fill="#0A9EFD" points="723.4365,868.6631,733.4365,872.6631,723.4365,876.6631,727.4365,872.6631" style="stroke:#0A9EFD;stroke-width:1;"/><line style="stroke:#0A9EFD;stroke-width:2;" x1="216.4209" x2="729.4365" y1="872.6631" y2="872.6631"/><text fill="#0A9EFD" font-family="Arial" font-size="13" lengthAdjust="spacing" textLength="172.7197" x="387.7629" y="852.9595">Set the user role as audience:</text><text fill="#0A9EFD" font-family="Arial" font-size="13" lengthAdjust="spacing" textLength="395.2813" x="280.094" y="867.9082">agoraEngine.setChannelProfile(ClientRoleType.ClientRoleAudience)</text></g><g class="message" data-participant-1="APP" data-participant-2="API"><polygon fill="#0A9EFD" points="723.4365,912.5605,733.4365,916.5605,723.4365,920.5605,727.4365,916.5605" style="stroke:#0A9EFD;stroke-width:1;"/><line style="stroke:#0A9EFD;stroke-width:2;" x1="216.4209" x2="729.4365" y1="916.5605" y2="916.5605"/><text fill="#0A9EFD" font-family="Arial" font-size="13" lengthAdjust="spacing" textLength="168.3652" x="391.7461" y="896.8569">Join the live streaming event:</text><text fill="#0A9EFD" font-family="Arial" font-size="13" lengthAdjust="spacing" textLength="146.0024" x="404.7334" y="911.8057">agoraEngine.joinChannel</text></g><g class="message" data-participant-1="API" data-participant-2="APP"><polygon fill="#0A9EFD" points="227.4209,956.458,217.4209,960.458,227.4209,964.458,223.4209,960.458" style="stroke:#0A9EFD;stroke-width:1;"/><line style="stroke:#0A9EFD;stroke-width:2;" x1="221.4209" x2="734.4365" y1="960.458" y2="960.458"/><text fill="#0A9EFD" font-family="Arial" font-size="13" lengthAdjust="spacing" textLength="226.1479" x="361.0488" y="940.7544">Retrieve streaming from the other user:</text><text fill="#0A9EFD" font-family="Arial" font-size="13" lengthAdjust="spacing" textLength="187.9097" x="383.7798" y="955.7031">agoraEngine.setupRemoteVideo</text></g><g class="message" data-participant-1="USR" data-participant-2="APP"><polygon fill="#0A9EFD" points="204.4209,992.4067,214.4209,996.4067,204.4209,1000.4067,208.4209,996.4067" style="stroke:#0A9EFD;stroke-width:1;"/><line style="stroke:#0A9EFD;stroke-width:2;" x1="37.7793" x2="210.4209" y1="996.4067" y2="996.4067"/><text fill="#0A9EFD" font-family="Arial" font-size="13" lengthAdjust="spacing" textLength="154.6416" x="49.7793" y="991.6519">Leave live streaming event</text></g><g class="message" data-participant-1="APP" data-participant-2="API"><polygon fill="#0A9EFD" points="723.4365,1021.3555,733.4365,1025.3555,723.4365,1029.3555,727.4365,1025.3555" style="stroke:#0A9EFD;stroke-width:1;"/><line style="stroke:#0A9EFD;stroke-width:2;" x1="216.4209" x2="729.4365" y1="1025.3555" y2="1025.3555"/><text fill="#0A9EFD" font-family="Arial" font-size="13" lengthAdjust="spacing" textLength="156.8442" x="397.5066" y="1020.6006">agoraEngine.leaveChannel</text></g><!--SRC=[fLDTZjem47xtAQOyTH-M0o1r9SeYBLtKeeIjLAbIDIG3U36svOpfpw5wY9wijfC08RHRgI-HxCptCz-CNqbTA5yIuCOu_5Bjf1vAlrT2OC76mU2f8ZS0hE0fpuHOcMym-6Iy0xHs88H5nxAG5ZN385jE8Bz_JDNZnK88qYK4H0CRHuLBJ7wVBT__-jbWPcUOe0UtTv5e11yiQHXRAyBfU3bnX1oCQv2wOjG5WLa3RmaQ8q1w8pMDFkkwksawmflpqx18BCbRnaLzsP6PQSaIbVn1YRkkBu-Q8-ZI3-MnlaEJ4tjRCw1IAonsiFQwO6bqrUDmj94LaviUIFC3wbAHksIhkRQeDIcmpgobwfkfY2TroQAk41jdWey7Kt4duPp3L4390q75eSMzr1kWA7-b2sL23t2G9PcaU2dfxJnMV8m57VXKuqhHEJwaOTaxSZthb6hx78tJH64T7IHzxRSTQnRrpnDuTihDXwq6PuANi7VR4CO8NepkTVUu_6vfsBsQX_ZUEeDbWHM706-YTkix8tOo90heWmCTdW36uGER7SKlF1kfsu5sJB-BF_0uwzRnXTy8drn1v_55bSZO33Q-CD6imTYNai8ITrOXoVrf4sxl_hEPgnF0niVe7uQWGYLdfXt0yTZsSjFFBkfTQ-Zl4SwWDxeJVktCFl6Qy76fcslclSreRxXPuvJyUTHpmWEzyEf24-UaAa9Qaxy1]--></g></svg>