<svg xmlns="http://www.w3.org/2000/svg" xmlns:xlink="http://www.w3.org/1999/xlink" contentStyleType="text/css" data-diagram-type="SEQUENCE" height="1009px" preserveAspectRatio="none" style="width:538px;height:1009px;" version="1.1" viewBox="0 0 538 1009" width="538px" zoomAndPan="magnify"><defs/><g><rect fill="none" height="1007.5566" style="stroke:#0A9EFD;stroke-width:1;" width="536.5249" x="0" y="0"/><rect fill="#999999" fill-opacity="0.33333" height="997.5566" style="stroke:#0A9EFD;stroke-width:0.5;" width="83.4482" x="174.6968" y="6"/><text fill="#0A9EFD" font-family="sans-serif" font-size="13" font-weight="bold" lengthAdjust="spacing" textLength="56.3354" x="188.2532" y="19.4951">Your app</text><rect fill="#999999" fill-opacity="0.33333" height="997.5566" style="stroke:#0A9EFD;stroke-width:0.5;" width="80.5361" x="445.9888" y="6"/><text fill="#0A9EFD" font-family="sans-serif" font-size="13" font-weight="bold" lengthAdjust="spacing" textLength="37.5591" x="467.4773" y="19.4951">Agora</text><rect fill="#0A9EFD" fill-opacity="0.06667" height="219.5386" style="stroke:#0A9EFD;stroke-width:2;" width="522.5249" x="10" y="332.6372"/><rect fill="#0A9EFD" fill-opacity="0.06667" height="278.3848" style="stroke:#0A9EFD;stroke-width:2;" width="522.5249" x="10" y="566.1758"/><g><title>User</title><rect fill="#000000" fill-opacity="0.00000" height="833.3594" width="8" x="33.7793" y="86.0986"/><line style="stroke:#0A9EFD;stroke-width:0.5;stroke-dasharray:5.0,5.0;" x1="37" x2="37" y1="86.0986" y2="919.458"/></g><g><title>RTC SDK</title><rect fill="#000000" fill-opacity="0.00000" height="833.3594" width="8" x="212.4209" y="86.0986"/><line style="stroke:#0A9EFD;stroke-width:0.5;stroke-dasharray:5.0,5.0;" x1="215.6968" x2="215.6968" y1="86.0986" y2="919.458"/></g><g><title>SDRTN&#174;</title><rect fill="#000000" fill-opacity="0.00000" height="833.3594" width="8" x="482.2568" y="86.0986"/><line style="stroke:#0A9EFD;stroke-width:0.5;stroke-dasharray:5.0,5.0;" x1="485.9888" x2="485.9888" y1="86.0986" y2="919.458"/></g><g class="participant participant-head" data-participant="USR"><text fill="#0A9EFD" font-family="Arial" font-size="14" lengthAdjust="spacing" textLength="29.5586" x="20" y="83.1318">User</text><ellipse cx="37.7793" cy="16" fill="none" rx="8" ry="8" style="stroke:#0A9EFD;stroke-width:3;"/><path d="M37.7793,24 L37.7793,51 M24.7793,32 L50.7793,32 M37.7793,51 L24.7793,66 M37.7793,51 L50.7793,66" fill="none" style="stroke:#0A9EFD;stroke-width:3;"/></g><g class="participant participant-tail" data-participant="USR"><text fill="#0A9EFD" font-family="Arial" font-size="14" lengthAdjust="spacing" textLength="29.5586" x="20" y="931.5898">User</text><ellipse cx="37.7793" cy="945.5566" fill="none" rx="8" ry="8" style="stroke:#0A9EFD;stroke-width:3;"/><path d="M37.7793,953.5566 L37.7793,980.5566 M24.7793,961.5566 L50.7793,961.5566 M37.7793,980.5566 L24.7793,995.5566 M37.7793,980.5566 L50.7793,995.5566" fill="none" style="stroke:#0A9EFD;stroke-width:3;"/></g><g class="participant participant-head" data-participant="APP"><rect fill="none" height="30.0986" rx="2.5" ry="2.5" style="stroke:#0A9EFD;stroke-width:2;" width="75.4482" x="178.6968" y="55"/><text fill="#0A9EFD" font-family="Arial" font-size="14" lengthAdjust="spacing" textLength="61.4482" x="185.6968" y="75.1318">RTC SDK</text></g><g class="participant participant-tail" data-participant="APP"><rect fill="none" height="30.0986" rx="2.5" ry="2.5" style="stroke:#0A9EFD;stroke-width:2;" width="75.4482" x="178.6968" y="918.458"/><text fill="#0A9EFD" font-family="Arial" font-size="14" lengthAdjust="spacing" textLength="61.4482" x="185.6968" y="938.5898">RTC SDK</text></g><g class="participant participant-head" data-participant="API"><rect fill="none" height="30.0986" rx="2.5" ry="2.5" style="stroke:#0A9EFD;stroke-width:2;" width="72.5361" x="449.9888" y="55"/><text fill="#0A9EFD" font-family="Arial" font-size="14" lengthAdjust="spacing" textLength="58.5361" x="456.9888" y="75.1318">SDRTN&#174;</text></g><g class="participant participant-tail" data-participant="API"><rect fill="none" height="30.0986" rx="2.5" ry="2.5" style="stroke:#0A9EFD;stroke-width:2;" width="72.5361" x="449.9888" y="918.458"/><text fill="#0A9EFD" font-family="Arial" font-size="14" lengthAdjust="spacing" textLength="58.5361" x="456.9888" y="938.5898">SDRTN&#174;</text></g><g class="message" data-participant-1="USR" data-participant-2="APP"><polygon fill="#0A9EFD" points="204.4209,113.0474,214.4209,117.0474,204.4209,121.0474,208.4209,117.0474" style="stroke:#0A9EFD;stroke-width:1;"/><line style="stroke:#0A9EFD;stroke-width:2;" x1="37.7793" x2="210.4209" y1="117.0474" y2="117.0474"/><text fill="#0A9EFD" font-family="Arial" font-size="13" lengthAdjust="spacing" textLength="58.5444" x="97.8279" y="112.2925">Open App</text></g><g class="message" data-participant-1="APP" data-participant-2="APP"><line style="stroke:#0A9EFD;stroke-width:2;" x1="216.4209" x2="258.4209" y1="160.9448" y2="160.9448"/><line style="stroke:#0A9EFD;stroke-width:2;" x1="258.4209" x2="258.4209" y1="160.9448" y2="173.9448"/><line style="stroke:#0A9EFD;stroke-width:2;" x1="217.4209" x2="258.4209" y1="173.9448" y2="173.9448"/><polygon fill="#0A9EFD" points="227.4209,169.9448,217.4209,173.9448,227.4209,177.9448,223.4209,173.9448" style="stroke:#0A9EFD;stroke-width:1;"/><text fill="#0A9EFD" font-family="Arial" font-size="13" lengthAdjust="spacing" textLength="166.918" x="253.2327" y="141.2412">Initiate the RTC SDK engine:</text><text fill="#0A9EFD" font-family="Arial" font-size="13" lengthAdjust="spacing" textLength="222.9297" x="227.0327" y="156.1899">agoraEngine = AgoraRTC.createClient</text></g><g class="message" data-participant-1="APP" data-participant-2="APP"><line style="stroke:#0A9EFD;stroke-width:2;" x1="216.4209" x2="258.4209" y1="217.8423" y2="217.8423"/><line style="stroke:#0A9EFD;stroke-width:2;" x1="258.4209" x2="258.4209" y1="217.8423" y2="230.8423"/><line style="stroke:#0A9EFD;stroke-width:2;" x1="217.4209" x2="258.4209" y1="230.8423" y2="230.8423"/><polygon fill="#0A9EFD" points="227.4209,226.8423,217.4209,230.8423,227.4209,234.8423,223.4209,230.8423" style="stroke:#0A9EFD;stroke-width:1;"/><text fill="#0A9EFD" font-family="Arial" font-size="13" lengthAdjust="spacing" textLength="143.8188" x="223.4209" y="198.1387">Start video in the engine:</text><text fill="#0A9EFD" font-family="Arial" font-size="13" lengthAdjust="spacing" textLength="43.3608" x="275.4558" y="213.0874">App.init</text></g><g class="message" data-participant-1="APP" data-participant-2="APP"><line style="stroke:#0A9EFD;stroke-width:2;" x1="216.4209" x2="258.4209" y1="304.6372" y2="304.6372"/><line style="stroke:#0A9EFD;stroke-width:2;" x1="258.4209" x2="258.4209" y1="304.6372" y2="317.6372"/><line style="stroke:#0A9EFD;stroke-width:2;" x1="217.4209" x2="258.4209" y1="317.6372" y2="317.6372"/><polygon fill="#0A9EFD" points="227.4209,313.6372,217.4209,317.6372,227.4209,321.6372,223.4209,317.6372" style="stroke:#0A9EFD;stroke-width:1;"/><text fill="#0A9EFD" font-family="Arial" font-size="13" lengthAdjust="spacing" textLength="100.4326" x="273.8086" y="255.0361">Start local media:</text><text fill="#0A9EFD" font-family="Arial" font-size="13" lengthAdjust="spacing" textLength="197.5962" x="227.0327" y="269.9849">stream = AgoraRTC.createStream</text><text fill="#0A9EFD" font-family="Arial" font-size="13" lengthAdjust="spacing" textLength="59.96" x="294.0449" y="284.9336">stream.init</text><text fill="#0A9EFD" font-family="Arial" font-size="13" lengthAdjust="spacing" textLength="67.1899" x="292.2358" y="299.8823">stream.play</text></g><path d="M10,332.6372 L81.73,332.6372 L81.73,339.5859 L71.73,349.5859 L10,349.5859 L10,332.6372" fill="#EEEEEE" style="stroke:#0A9EFD;stroke-width:1.5;"/><rect fill="none" height="219.5386" style="stroke:#0A9EFD;stroke-width:2;" width="522.5249" x="10" y="332.6372"/><text fill="#000000" font-family="Arial" font-size="13" lengthAdjust="spacing" textLength="26.73" x="25" y="345.8311">Host</text><g class="message" data-participant-1="USR" data-participant-2="APP"><polygon fill="#0A9EFD" points="204.4209,366.5347,214.4209,370.5347,204.4209,374.5347,208.4209,370.5347" style="stroke:#0A9EFD;stroke-width:1;"/><line style="stroke:#0A9EFD;stroke-width:2;" x1="37.7793" x2="210.4209" y1="370.5347" y2="370.5347"/><text fill="#0A9EFD" font-family="Arial" font-size="13" lengthAdjust="spacing" textLength="146.6753" x="53.7625" y="365.7798">Start live streaming event</text></g><g class="message" data-participant-1="APP" data-participant-2="APP"><line style="stroke:#0A9EFD;stroke-width:2;" x1="216.4209" x2="258.4209" y1="399.4834" y2="399.4834"/><line style="stroke:#0A9EFD;stroke-width:2;" x1="258.4209" x2="258.4209" y1="399.4834" y2="412.4834"/><line style="stroke:#0A9EFD;stroke-width:2;" x1="217.4209" x2="258.4209" y1="412.4834" y2="412.4834"/><polygon fill="#0A9EFD" points="227.4209,408.4834,217.4209,412.4834,227.4209,416.4834,223.4209,412.4834" style="stroke:#0A9EFD;stroke-width:1;"/><text fill="#0A9EFD" font-family="Arial" font-size="13" lengthAdjust="spacing" textLength="255.8359" x="223.4209" y="394.7285">Retrieve authentication token to join channel</text></g><g class="message" data-participant-1="APP" data-participant-2="API"><polygon fill="#0A9EFD" points="474.2568,452.3809,484.2568,456.3809,474.2568,460.3809,478.2568,456.3809" style="stroke:#0A9EFD;stroke-width:1;"/><line style="stroke:#0A9EFD;stroke-width:2;" x1="216.4209" x2="480.2568" y1="456.3809" y2="456.3809"/><text fill="#0A9EFD" font-family="Arial" font-size="13" lengthAdjust="spacing" textLength="144.5234" x="275.4653" y="436.6772">Set the user role as host:</text><text fill="#0A9EFD" font-family="Arial" font-size="13" lengthAdjust="spacing" textLength="197.1138" x="254.5879" y="451.626">agoraEngine.setClientRole("host")</text></g><g class="message" data-participant-1="APP" data-participant-2="API"><polygon fill="#0A9EFD" points="474.2568,496.2783,484.2568,500.2783,474.2568,504.2783,478.2568,500.2783" style="stroke:#0A9EFD;stroke-width:1;"/><line style="stroke:#0A9EFD;stroke-width:2;" x1="216.4209" x2="480.2568" y1="500.2783" y2="500.2783"/><text fill="#0A9EFD" font-family="Arial" font-size="13" lengthAdjust="spacing" textLength="132.9771" x="284.8503" y="480.5747">Join a channel as host:</text><text fill="#0A9EFD" font-family="Arial" font-size="13" lengthAdjust="spacing" textLength="97.5762" x="304.3567" y="495.5234">agoraEngine.join</text></g><g class="message" data-participant-1="APP" data-participant-2="API"><polygon fill="#0A9EFD" points="474.2568,540.1758,484.2568,544.1758,474.2568,548.1758,478.2568,544.1758" style="stroke:#0A9EFD;stroke-width:1;"/><line style="stroke:#0A9EFD;stroke-width:2;" x1="216.4209" x2="480.2568" y1="544.1758" y2="544.1758"/><text fill="#0A9EFD" font-family="Arial" font-size="13" lengthAdjust="spacing" textLength="187.897" x="257.3904" y="524.4722">Push local media to the channel:</text><text fill="#0A9EFD" font-family="Arial" font-size="13" lengthAdjust="spacing" textLength="118.5361" x="293.8767" y="539.4209">agoraEngine.publish</text></g><path d="M10,566.1758 L109.209,566.1758 L109.209,573.1245 L99.209,583.1245 L10,583.1245 L10,566.1758" fill="#EEEEEE" style="stroke:#0A9EFD;stroke-width:1.5;"/><rect fill="none" height="278.3848" style="stroke:#0A9EFD;stroke-width:2;" width="522.5249" x="10" y="566.1758"/><text fill="#000000" font-family="Arial" font-size="13" lengthAdjust="spacing" textLength="54.209" x="25" y="579.3696">Audience</text><g class="message" data-participant-1="USR" data-participant-2="APP"><polygon fill="#0A9EFD" points="204.4209,600.0732,214.4209,604.0732,204.4209,608.0732,208.4209,604.0732" style="stroke:#0A9EFD;stroke-width:1;"/><line style="stroke:#0A9EFD;stroke-width:2;" x1="37.7793" x2="210.4209" y1="604.0732" y2="604.0732"/><text fill="#0A9EFD" font-family="Arial" font-size="13" lengthAdjust="spacing" textLength="143.0698" x="55.5652" y="599.3184">Join live streaming event</text></g><g class="message" data-participant-1="APP" data-participant-2="APP"><line style="stroke:#0A9EFD;stroke-width:2;" x1="216.4209" x2="258.4209" y1="633.022" y2="633.022"/><line style="stroke:#0A9EFD;stroke-width:2;" x1="258.4209" x2="258.4209" y1="633.022" y2="646.022"/><line style="stroke:#0A9EFD;stroke-width:2;" x1="217.4209" x2="258.4209" y1="646.022" y2="646.022"/><polygon fill="#0A9EFD" points="227.4209,642.022,217.4209,646.022,227.4209,650.022,223.4209,646.022" style="stroke:#0A9EFD;stroke-width:1;"/><text fill="#0A9EFD" font-family="Arial" font-size="13" lengthAdjust="spacing" textLength="255.8359" x="223.4209" y="628.2671">Retrieve authentication token to join channel</text></g><g class="message" data-participant-1="APP" data-participant-2="API"><polygon fill="#0A9EFD" points="474.2568,685.9194,484.2568,689.9194,474.2568,693.9194,478.2568,689.9194" style="stroke:#0A9EFD;stroke-width:1;"/><line style="stroke:#0A9EFD;stroke-width:2;" x1="216.4209" x2="480.2568" y1="689.9194" y2="689.9194"/><text fill="#0A9EFD" font-family="Arial" font-size="13" lengthAdjust="spacing" textLength="172.7197" x="263.1731" y="670.2158">Set the user role as audience:</text><text fill="#0A9EFD" font-family="Arial" font-size="13" lengthAdjust="spacing" textLength="225.3101" x="240.4897" y="685.1646">agoraEngine.setClientRole("audience")</text></g><g class="message" data-participant-1="APP" data-participant-2="API"><polygon fill="#0A9EFD" points="474.2568,729.8169,484.2568,733.8169,474.2568,737.8169,478.2568,733.8169" style="stroke:#0A9EFD;stroke-width:1;"/><line style="stroke:#0A9EFD;stroke-width:2;" x1="216.4209" x2="480.2568" y1="733.8169" y2="733.8169"/><text fill="#0A9EFD" font-family="Arial" font-size="13" lengthAdjust="spacing" textLength="168.3652" x="267.1563" y="714.1133">Join the live streaming event:</text><text fill="#0A9EFD" font-family="Arial" font-size="13" lengthAdjust="spacing" textLength="97.5762" x="304.3567" y="729.062">agoraEngine.join</text></g><g class="message" data-participant-1="API" data-participant-2="APP"><polygon fill="#0A9EFD" points="227.4209,803.6118,217.4209,807.6118,227.4209,811.6118,223.4209,807.6118" style="stroke:#0A9EFD;stroke-width:1;"/><line style="stroke:#0A9EFD;stroke-width:2;" x1="221.4209" x2="485.2568" y1="807.6118" y2="807.6118"/><text fill="#0A9EFD" font-family="Arial" font-size="13" lengthAdjust="spacing" textLength="226.1479" x="236.459" y="758.0107">Retrieve streaming from the other user:</text><text fill="#0A9EFD" font-family="Arial" font-size="13" lengthAdjust="spacing" textLength="189.8965" x="258.1965" y="772.9595">agoraEngine.on("stream-added")</text><text fill="#0A9EFD" font-family="Arial" font-size="13" lengthAdjust="spacing" textLength="132.9771" x="286.6563" y="787.9082">agoraEngine.subscribe</text><text fill="#0A9EFD" font-family="Arial" font-size="13" lengthAdjust="spacing" textLength="216.6138" x="246.6438" y="802.8569">agoraEngine.on("stream-subscribed")</text></g><g class="message" data-participant-1="API" data-participant-2="APP"><polygon fill="#0A9EFD" points="227.4209,832.5605,217.4209,836.5605,227.4209,840.5605,223.4209,836.5605" style="stroke:#0A9EFD;stroke-width:1;"/><line style="stroke:#0A9EFD;stroke-width:2;" x1="221.4209" x2="485.2568" y1="836.5605" y2="836.5605"/><text fill="#0A9EFD" font-family="Arial" font-size="13" lengthAdjust="spacing" textLength="119.2217" x="291.728" y="831.8057">Receive data stream</text></g><g class="message" data-participant-1="USR" data-participant-2="APP"><polygon fill="#0A9EFD" points="204.4209,868.5093,214.4209,872.5093,204.4209,876.5093,208.4209,872.5093" style="stroke:#0A9EFD;stroke-width:1;"/><line style="stroke:#0A9EFD;stroke-width:2;" x1="37.7793" x2="210.4209" y1="872.5093" y2="872.5093"/><text fill="#0A9EFD" font-family="Arial" font-size="13" lengthAdjust="spacing" textLength="154.6416" x="49.7793" y="867.7544">Leave live streaming event</text></g><g class="message" data-participant-1="APP" data-participant-2="API"><polygon fill="#0A9EFD" points="474.2568,897.458,484.2568,901.458,474.2568,905.458,478.2568,901.458" style="stroke:#0A9EFD;stroke-width:1;"/><line style="stroke:#0A9EFD;stroke-width:2;" x1="216.4209" x2="480.2568" y1="901.458" y2="901.458"/><text fill="#0A9EFD" font-family="Arial" font-size="13" lengthAdjust="spacing" textLength="108.418" x="297.1299" y="896.7031">agoraEngine.leave</text></g><!--SRC=[lL9DQXin5Dxh5A-pIXRs0GmDcAGGDwKrCycYK2ZFerUF4baI6iaab-eXUh8-oSfund7ehfi1YUzVyq6PLaT9W5lhyMV_fCnSnPqM0jjWFLGFFVaAi8U7fXPYOv-X-cwZ1tIk4iAX3wfL3as0ghw_XkRcBgENwxKGP2Gmez2MoU6KqzpKzr___2wSrOZ3VZ2xIa8B-ER8mD8vmQVXScLKK1W8GaTGl87CLXbQ_327Gf_o4Jv2DcVGlFN4d6kjo8I9N1Cu5-oL90lAPD6Z67lF5VkTOMZReeOTIOK9sGSssBrrRFBz0CXgS3mwZIzYwsrqS6lxC6bVVDIU2bgPBT2-59XTPL1DmIk-18mStV3269Jb7lQ9qXSUBRTgEpI6zB76YkKfvBQHNngyrPJUekCG2u3fZlEUmc6vcc4NLG9LbnEnpya5Ntq6fHETb4LCUElOT-CfK-8KgWYT2hYuqQhlqjyYocpBA3bPIvFfSfp_knoM78j_ZFUAEpTW4ZsN-koEJ1lw3bsEn5_UxhAWvO_FMTz4i-QYEZ1cA2N9wl8qUzpqhLSRulltc0D6vahZK2sbCX83bc27Xnk_r1V2FRtxLCCyOs-TAE8l]--></g></svg>