<svg xmlns="http://www.w3.org/2000/svg" xmlns:xlink="http://www.w3.org/1999/xlink" contentStyleType="text/css" data-diagram-type="SEQUENCE" height="1070px" preserveAspectRatio="none" style="width:604px;height:1070px;" version="1.1" viewBox="0 0 604 1070" width="604px" zoomAndPan="magnify"><defs/><g><rect fill="none" height="1068.7367" style="stroke:#0A9EFD;stroke-width:1;" width="602.3641" x="0" y="0"/><rect fill="#999999" fill-opacity="0.33333" height="1058.7367" style="stroke:#0A9EFD;stroke-width:0.5;" width="50.6667" x="26" y="6"/><text fill="#0A9EFD" font-family="sans-serif" font-size="13" font-weight="bold" lengthAdjust="spacing" textLength="25.27" x="38.6983" y="19.4951">App</text><rect fill="#999999" fill-opacity="0.33333" height="1058.7367" style="stroke:#0A9EFD;stroke-width:0.5;" width="63.7764" x="288.437" y="6"/><text fill="#0A9EFD" font-family="sans-serif" font-size="13" font-weight="bold" lengthAdjust="spacing" textLength="57.7764" x="291.437" y="19.4951">RTC SDK</text><rect fill="#999999" fill-opacity="0.33333" height="1058.7367" style="stroke:#0A9EFD;stroke-width:0.5;" width="101.5259" x="496.8382" y="6"/><text fill="#0A9EFD" font-family="sans-serif" font-size="13" font-weight="bold" lengthAdjust="spacing" textLength="95.5259" x="499.8382" y="19.4951">Agora SDRTN&#174;</text><rect fill="#0A9EFD" fill-opacity="0.06667" height="60.8462" style="stroke:#0A9EFD;stroke-width:2;" width="331.6585" x="20" y="85.0182"/><rect fill="#0A9EFD" fill-opacity="0.06667" height="60.8462" style="stroke:#0A9EFD;stroke-width:2;" width="331.6585" x="20" y="159.8644"/><rect fill="#0A9EFD" fill-opacity="0.06667" height="74.8462" style="stroke:#0A9EFD;stroke-width:2;" width="558.9345" x="20" y="234.7106"/><rect fill="#0A9EFD" fill-opacity="0.06667" height="208.5386" style="stroke:#0A9EFD;stroke-width:2;" width="578.9345" x="10" y="323.5568"/><rect fill="#0A9EFD" fill-opacity="0.06667" height="177.5898" style="stroke:#0A9EFD;stroke-width:2;" width="558.9345" x="20" y="347.5055"/><rect fill="#0A9EFD" fill-opacity="0.06667" height="265.3848" style="stroke:#0A9EFD;stroke-width:2;" width="558.9345" x="20" y="546.0954"/><rect fill="#0A9EFD" fill-opacity="0.06667" height="177.5898" style="stroke:#0A9EFD;stroke-width:2;" width="558.9345" x="20" y="825.4801"/><g><title>&lt;size:40&gt;&lt;&amp;tablet&gt;</title><rect fill="#000000" fill-opacity="0.00000" height="952.0518" width="8" x="47.3333" y="68.0182"/><line style="stroke:#0A9EFD;stroke-width:0.5;stroke-dasharray:5.0,5.0;" x1="51" x2="51" y1="68.0182" y2="1020.07"/></g><g><title>&lt;size:40&gt;&lt;&amp;layers&gt;</title><rect fill="#000000" fill-opacity="0.00000" height="952.0518" width="8" x="316.3252" y="68.0182"/><line style="stroke:#0A9EFD;stroke-width:0.5;stroke-dasharray:5.0,5.0;" x1="319.9919" x2="319.9919" y1="68.0182" y2="1020.07"/></g><g><title>&lt;size:40&gt;&lt;&amp;cloud&gt;</title><rect fill="#000000" fill-opacity="0.00000" height="952.0518" width="8" x="543.6012" y="68.0182"/><line style="stroke:#0A9EFD;stroke-width:0.5;stroke-dasharray:5.0,5.0;" x1="547.2678" x2="547.2678" y1="68.0182" y2="1020.07"/></g><g class="participant participant-head" data-participant="APP"><rect fill="none" height="40.6667" rx="2.5" ry="2.5" style="stroke:#0A9EFD;stroke-width:2;" width="42.6667" x="30" y="26.3516"/><path d="M39.1333,33.3516 C38.5333,33.3516 38,33.8849 38,34.4849 L38,58.8516 C38,59.4516 38.5333,59.9849 39.1333,59.9849 L60.1667,59.9849 C60.7667,59.9849 61.3,59.4516 61.3,58.8516 L61.3,34.4849 C61.3,33.8849 60.7667,33.3516 60.1667,33.3516 L39.1333,33.3516 M41.3333,36.6849 L58,36.6849 L58,53.3516 L41.3333,53.3516 L41.3333,36.6849 M49.6667,55.0182 C50.9333,55.0182 51.7667,56.4182 51.1333,57.5182 C50.5,58.6182 48.8667,58.6182 48.2,57.5182 C47.5667,56.4182 48.3667,55.0182 49.6667,55.0182" fill="#0A9EFD"/></g><g class="participant participant-tail" data-participant="APP"><rect fill="none" height="40.6667" rx="2.5" ry="2.5" style="stroke:#0A9EFD;stroke-width:2;" width="42.6667" x="30" y="1019.07"/><path d="M39.1333,1026.07 C38.5333,1026.07 38,1026.6033 38,1027.2033 L38,1051.57 C38,1052.17 38.5333,1052.7033 39.1333,1052.7033 L60.1667,1052.7033 C60.7667,1052.7033 61.3,1052.17 61.3,1051.57 L61.3,1027.2033 C61.3,1026.6033 60.7667,1026.07 60.1667,1026.07 L39.1333,1026.07 M41.3333,1029.4033 L58,1029.4033 L58,1046.07 L41.3333,1046.07 L41.3333,1029.4033 M49.6667,1047.7367 C50.9333,1047.7367 51.7667,1049.1367 51.1333,1050.2367 C50.5,1051.3367 48.8667,1051.3367 48.2,1050.2367 C47.5667,1049.1367 48.3667,1047.7367 49.6667,1047.7367" fill="#0A9EFD"/></g><g class="participant participant-head" data-participant="SDK"><rect fill="none" height="40.6667" rx="2.5" ry="2.5" style="stroke:#0A9EFD;stroke-width:2;" width="42.6667" x="298.9919" y="26.3516"/><path d="M306.9919,33.3516 L306.9919,46.6849 L320.3252,46.6849 L320.3252,33.3516 L306.9919,33.3516 M323.6585,40.0182 L323.6585,50.0182 L313.6585,50.0182 L313.6585,53.3516 L326.9919,53.3516 L326.9919,40.0182 L323.6585,40.0182 M330.3252,46.6849 L330.3252,56.6849 L320.3252,56.6849 L320.3252,60.0182 L333.6585,60.0182 L333.6585,46.6849 L330.3252,46.6849" fill="#0A9EFD"/></g><g class="participant participant-tail" data-participant="SDK"><rect fill="none" height="40.6667" rx="2.5" ry="2.5" style="stroke:#0A9EFD;stroke-width:2;" width="42.6667" x="298.9919" y="1019.07"/><path d="M306.9919,1026.07 L306.9919,1039.4033 L320.3252,1039.4033 L320.3252,1026.07 L306.9919,1026.07 M323.6585,1032.7367 L323.6585,1042.7367 L313.6585,1042.7367 L313.6585,1046.07 L326.9919,1046.07 L326.9919,1032.7367 L323.6585,1032.7367 M330.3252,1039.4033 L330.3252,1049.4033 L320.3252,1049.4033 L320.3252,1052.7367 L333.6585,1052.7367 L333.6585,1039.4033 L330.3252,1039.4033" fill="#0A9EFD"/></g><g class="participant participant-head" data-participant="RTN"><rect fill="none" height="40.6667" rx="2.5" ry="2.5" style="stroke:#0A9EFD;stroke-width:2;" width="42.6667" x="526.2678" y="26.3516"/><path d="M549.2678,36.6849 C545.2345,36.6849 541.7012,39.5516 540.9345,43.3516 C537.2678,43.3516 534.2678,46.3516 534.2678,50.0182 C534.2678,53.6849 537.2678,56.6849 540.9345,56.6849 L555.9345,56.6849 C558.7012,56.6849 560.9345,54.4516 560.9345,51.6849 C560.9345,49.5182 559.5345,47.3849 557.6012,46.6849 L557.6012,45.0182 C557.6012,40.4182 553.8678,36.6849 549.2678,36.6849" fill="#0A9EFD"/></g><g class="participant participant-tail" data-participant="RTN"><rect fill="none" height="40.6667" rx="2.5" ry="2.5" style="stroke:#0A9EFD;stroke-width:2;" width="42.6667" x="526.2678" y="1019.07"/><path d="M549.2678,1029.4033 C545.2345,1029.4033 541.7012,1032.27 540.9345,1036.07 C537.2678,1036.07 534.2678,1039.07 534.2678,1042.7367 C534.2678,1046.4033 537.2678,1049.4033 540.9345,1049.4033 L555.9345,1049.4033 C558.7012,1049.4033 560.9345,1047.17 560.9345,1044.4033 C560.9345,1042.2367 559.5345,1040.1033 557.6012,1039.4033 L557.6012,1037.7367 C557.6012,1033.1367 553.8678,1029.4033 549.2678,1029.4033" fill="#0A9EFD"/></g><path d="M20,85.0182 L179.1689,85.0182 L179.1689,91.967 L169.1689,101.967 L20,101.967 L20,85.0182" fill="#EEEEEE" style="stroke:#0A9EFD;stroke-width:1.5;"/><rect fill="none" height="60.8462" style="stroke:#0A9EFD;stroke-width:2;" width="331.6585" x="20" y="85.0182"/><text fill="#000000" font-family="Arial" font-size="13" lengthAdjust="spacing" textLength="114.1689" x="35" y="98.2121">Create a local client</text><g class="message" data-participant-1="APP" data-participant-2="SDK"><polygon fill="#0A9EFD" points="308.3252,133.8644,318.3252,137.8644,308.3252,141.8644,312.3252,137.8644" style="stroke:#0A9EFD;stroke-width:1;"/><line style="stroke:#0A9EFD;stroke-width:2;" x1="51.3333" x2="314.3252" y1="137.8644" y2="137.8644"/><text fill="#0A9EFD" font-family="Arial" font-size="13" lengthAdjust="spacing" textLength="134.3862" x="118.6361" y="118.1608">AgoraRTC.createClient</text><text fill="#0A9EFD" font-family="Arial" font-size="13" lengthAdjust="spacing" textLength="98.1792" x="138.5456" y="133.1095">Set mode to 'live'</text></g><path d="M20,159.8644 L138.7026,159.8644 L138.7026,166.8132 L128.7026,176.8132 L20,176.8132 L20,159.8644" fill="#EEEEEE" style="stroke:#0A9EFD;stroke-width:1.5;"/><rect fill="none" height="60.8462" style="stroke:#0A9EFD;stroke-width:2;" width="331.6585" x="20" y="159.8644"/><text fill="#000000" font-family="Arial" font-size="13" lengthAdjust="spacing" textLength="73.7026" x="35" y="173.0583">Set user role</text><g class="message" data-participant-1="APP" data-participant-2="SDK"><polygon fill="#0A9EFD" points="308.3252,208.7106,318.3252,212.7106,308.3252,216.7106,312.3252,212.7106" style="stroke:#0A9EFD;stroke-width:1;"/><line style="stroke:#0A9EFD;stroke-width:2;" x1="51.3333" x2="314.3252" y1="212.7106" y2="212.7106"/><text fill="#0A9EFD" font-family="Arial" font-size="13" lengthAdjust="spacing" textLength="190.6011" x="90.5287" y="193.007">Set the role to 'host' or 'audience'</text><text fill="#0A9EFD" font-family="Arial" font-size="13" lengthAdjust="spacing" textLength="175.5698" x="99.8503" y="207.9557">AgoraRTCClient.setClientRole</text></g><path d="M20,234.7106 L137.998,234.7106 L137.998,241.6593 L127.998,251.6593 L20,251.6593 L20,234.7106" fill="#EEEEEE" style="stroke:#0A9EFD;stroke-width:1.5;"/><rect fill="none" height="74.8462" style="stroke:#0A9EFD;stroke-width:2;" width="558.9345" x="20" y="234.7106"/><text fill="#000000" font-family="Arial" font-size="13" lengthAdjust="spacing" textLength="72.998" x="35" y="247.9045">Join channel</text><g class="message" data-participant-1="APP" data-participant-2="SDK"><polygon fill="#0A9EFD" points="308.3252,268.6081,318.3252,272.6081,308.3252,276.6081,312.3252,272.6081" style="stroke:#0A9EFD;stroke-width:1;"/><line style="stroke:#0A9EFD;stroke-width:2;" x1="51.3333" x2="314.3252" y1="272.6081" y2="272.6081"/><text fill="#0A9EFD" font-family="Arial" font-size="13" lengthAdjust="spacing" textLength="118.4917" x="126.5834" y="267.8532">AgoraRTCClient.join</text></g><g class="message" data-participant-1="SDK" data-participant-2="RTN"><polygon fill="#0A9EFD" points="535.6012,297.5568,545.6012,301.5568,535.6012,305.5568,539.6012,301.5568" style="stroke:#0A9EFD;stroke-width:1;"/><line style="stroke:#0A9EFD;stroke-width:2;" x1="320.3252" x2="541.6012" y1="301.5568" y2="301.5568"/><text fill="#0A9EFD" font-family="Arial" font-size="13" lengthAdjust="spacing" textLength="119.9707" x="373.9778" y="296.8019">Join channel request</text></g><path d="M10,323.5568 L184.2446,323.5568 L184.2446,330.5055 L174.2446,340.5055 L10,340.5055 L10,323.5568" fill="#EEEEEE" style="stroke:#0A9EFD;stroke-width:1.5;"/><rect fill="none" height="208.5386" style="stroke:#0A9EFD;stroke-width:2;" width="578.9345" x="10" y="323.5568"/><text fill="#000000" font-family="Arial" font-size="13" lengthAdjust="spacing" textLength="129.2446" x="25" y="336.7507">If the user role is 'host'</text><path d="M20,347.5055 L338.1714,347.5055 L338.1714,354.4543 L328.1714,364.4543 L20,364.4543 L20,347.5055" fill="#EEEEEE" style="stroke:#0A9EFD;stroke-width:1.5;"/><rect fill="none" height="177.5898" style="stroke:#0A9EFD;stroke-width:2;" width="558.9345" x="20" y="347.5055"/><text fill="#000000" font-family="Arial" font-size="13" lengthAdjust="spacing" textLength="273.1714" x="35" y="360.6994">Create and publish local audio and video tracks</text><g class="message" data-participant-1="APP" data-participant-2="SDK"><polygon fill="#0A9EFD" points="308.3252,396.3517,318.3252,400.3517,308.3252,404.3517,312.3252,400.3517" style="stroke:#0A9EFD;stroke-width:1;"/><line style="stroke:#0A9EFD;stroke-width:2;" x1="51.3333" x2="314.3252" y1="400.3517" y2="400.3517"/><text fill="#0A9EFD" font-family="Arial" font-size="13" lengthAdjust="spacing" textLength="136.5698" x="117.5444" y="380.6481">Create local audio track</text><text fill="#0A9EFD" font-family="Arial" font-size="13" lengthAdjust="spacing" textLength="234.8252" x="70.2226" y="395.5968">AgoraRTC.createMicrophoneAudioTrack</text></g><g class="message" data-participant-1="APP" data-participant-2="SDK"><polygon fill="#0A9EFD" points="308.3252,440.2492,318.3252,444.2492,308.3252,448.2492,312.3252,444.2492" style="stroke:#0A9EFD;stroke-width:1;"/><line style="stroke:#0A9EFD;stroke-width:2;" x1="51.3333" x2="314.3252" y1="444.2492" y2="444.2492"/><text fill="#0A9EFD" font-family="Arial" font-size="13" lengthAdjust="spacing" textLength="135.8398" x="117.9093" y="424.5456">Create local video track</text><text fill="#0A9EFD" font-family="Arial" font-size="13" lengthAdjust="spacing" textLength="213.1353" x="81.0675" y="439.4943">AgoraRTC.createCameraVideoTrack</text></g><g class="message" data-participant-1="APP" data-participant-2="SDK"><polygon fill="#0A9EFD" points="308.3252,484.1466,318.3252,488.1466,308.3252,492.1466,312.3252,488.1466" style="stroke:#0A9EFD;stroke-width:1;"/><line style="stroke:#0A9EFD;stroke-width:2;" x1="51.3333" x2="314.3252" y1="488.1466" y2="488.1466"/><text fill="#0A9EFD" font-family="Arial" font-size="13" lengthAdjust="spacing" textLength="206.6797" x="82.4894" y="468.443">Publish local audio and video tracks</text><text fill="#0A9EFD" font-family="Arial" font-size="13" lengthAdjust="spacing" textLength="139.4517" x="117.9093" y="483.3918">AgoraRTCClient.publish</text></g><g class="message" data-participant-1="SDK" data-participant-2="RTN"><polygon fill="#0A9EFD" points="535.6012,513.0954,545.6012,517.0954,535.6012,521.0954,539.6012,517.0954" style="stroke:#0A9EFD;stroke-width:1;"/><line style="stroke:#0A9EFD;stroke-width:2;" x1="320.3252" x2="541.6012" y1="517.0954" y2="517.0954"/><text fill="#0A9EFD" font-family="Arial" font-size="13" lengthAdjust="spacing" textLength="154.686" x="356.6202" y="512.3405">Send audio and video data</text></g><path d="M20,546.0954 L216.7344,546.0954 L216.7344,553.0441 L206.7344,563.0441 L20,563.0441 L20,546.0954" fill="#EEEEEE" style="stroke:#0A9EFD;stroke-width:1.5;"/><rect fill="none" height="265.3848" style="stroke:#0A9EFD;stroke-width:2;" width="558.9345" x="20" y="546.0954"/><text fill="#000000" font-family="Arial" font-size="13" lengthAdjust="spacing" textLength="151.7344" x="35" y="559.2892">Subscribe to remote users</text><g class="message" data-participant-1="RTN" data-participant-2="APP"><polygon fill="#0A9EFD" points="62.3333,594.9416,52.3333,598.9416,62.3333,602.9416,58.3333,598.9416" style="stroke:#0A9EFD;stroke-width:1;"/><line style="stroke:#0A9EFD;stroke-width:2;stroke-dasharray:2.0,2.0;" x1="56.3333" x2="546.6012" y1="598.9416" y2="598.9416"/><text fill="#0A9EFD" font-family="Arial" font-size="13" lengthAdjust="spacing" textLength="259.4224" x="169.7561" y="579.238">Remote users publish audio and video tracks</text><text fill="#0A9EFD" font-family="Arial" font-size="13" lengthAdjust="spacing" textLength="151.582" x="225.4821" y="594.1867">client.on("user-published")</text></g><g class="message" data-participant-1="APP" data-participant-2="SDK"><polygon fill="#0A9EFD" points="308.3252,638.839,318.3252,642.839,308.3252,646.839,312.3252,642.839" style="stroke:#0A9EFD;stroke-width:1;"/><line style="stroke:#0A9EFD;stroke-width:2;" x1="51.3333" x2="314.3252" y1="642.839" y2="642.839"/><text fill="#0A9EFD" font-family="Arial" font-size="13" lengthAdjust="spacing" textLength="132.228" x="119.7153" y="623.1354">Get remote user object</text><text fill="#0A9EFD" font-family="Arial" font-size="13" lengthAdjust="spacing" textLength="172.6626" x="101.3039" y="638.0841">AgoraRTCClient.remoteUsers</text></g><g class="message" data-participant-1="APP" data-participant-2="SDK"><polygon fill="#0A9EFD" points="308.3252,682.7365,318.3252,686.7365,308.3252,690.7365,312.3252,686.7365" style="stroke:#0A9EFD;stroke-width:1;"/><line style="stroke:#0A9EFD;stroke-width:2;" x1="51.3333" x2="314.3252" y1="686.7365" y2="686.7365"/><text fill="#0A9EFD" font-family="Arial" font-size="13" lengthAdjust="spacing" textLength="183.5361" x="94.0612" y="667.0329">Subscribe to remote user object</text><text fill="#0A9EFD" font-family="Arial" font-size="13" lengthAdjust="spacing" textLength="153.8926" x="110.6889" y="681.9816">AgoraRTCClient.subscribe</text></g><g class="message" data-participant-1="RTN" data-participant-2="SDK"><polygon fill="#0A9EFD" points="331.3252,711.6852,321.3252,715.6852,331.3252,719.6852,327.3252,715.6852" style="stroke:#0A9EFD;stroke-width:1;"/><line style="stroke:#0A9EFD;stroke-width:2;" x1="325.3252" x2="546.6012" y1="715.6852" y2="715.6852"/><text fill="#0A9EFD" font-family="Arial" font-size="13" lengthAdjust="spacing" textLength="171.2915" x="348.3174" y="710.9303">Receive audio and video data</text></g><g class="message" data-participant-1="APP" data-participant-2="SDK"><polygon fill="#0A9EFD" points="308.3252,755.5827,318.3252,759.5827,308.3252,763.5827,312.3252,759.5827" style="stroke:#0A9EFD;stroke-width:1;"/><line style="stroke:#0A9EFD;stroke-width:2;" x1="51.3333" x2="314.3252" y1="759.5827" y2="759.5827"/><text fill="#0A9EFD" font-family="Arial" font-size="13" lengthAdjust="spacing" textLength="138.7471" x="116.4557" y="739.8791">Get remote audio object</text><text fill="#0A9EFD" font-family="Arial" font-size="13" lengthAdjust="spacing" textLength="202.2935" x="86.4884" y="754.8278">AgoraRTCRemoteUser.audioTrack</text></g><g class="message" data-participant-1="APP" data-participant-2="SDK"><polygon fill="#0A9EFD" points="308.3252,799.4801,318.3252,803.4801,308.3252,807.4801,312.3252,803.4801" style="stroke:#0A9EFD;stroke-width:1;"/><line style="stroke:#0A9EFD;stroke-width:2;" x1="51.3333" x2="314.3252" y1="803.4801" y2="803.4801"/><text fill="#0A9EFD" font-family="Arial" font-size="13" lengthAdjust="spacing" textLength="138.0171" x="116.8207" y="783.7765">Get remote video object</text><text fill="#0A9EFD" font-family="Arial" font-size="13" lengthAdjust="spacing" textLength="201.5635" x="86.8534" y="798.7253">AgoraRTCRemoteUser.videoTrack</text></g><path d="M20,825.4801 L171.2534,825.4801 L171.2534,832.4289 L161.2534,842.4289 L20,842.4289 L20,825.4801" fill="#EEEEEE" style="stroke:#0A9EFD;stroke-width:1.5;"/><rect fill="none" height="177.5898" style="stroke:#0A9EFD;stroke-width:2;" width="558.9345" x="20" y="825.4801"/><text fill="#000000" font-family="Arial" font-size="13" lengthAdjust="spacing" textLength="106.2534" x="35" y="838.674">Leave the channel</text><g class="message" data-participant-1="APP" data-participant-2="SDK"><polygon fill="#0A9EFD" points="308.3252,874.3263,318.3252,878.3263,308.3252,882.3263,312.3252,878.3263" style="stroke:#0A9EFD;stroke-width:1;"/><line style="stroke:#0A9EFD;stroke-width:2;" x1="51.3333" x2="314.3252" y1="878.3263" y2="878.3263"/><text fill="#0A9EFD" font-family="Arial" font-size="13" lengthAdjust="spacing" textLength="164.0298" x="103.8144" y="858.6227">Turn off the local audio track</text><text fill="#0A9EFD" font-family="Arial" font-size="13" lengthAdjust="spacing" textLength="167.6353" x="103.8175" y="873.5715">MicrophoneAudioTrack.close</text></g><g class="message" data-participant-1="APP" data-participant-2="SDK"><polygon fill="#0A9EFD" points="308.3252,918.2238,318.3252,922.2238,308.3252,926.2238,312.3252,922.2238" style="stroke:#0A9EFD;stroke-width:1;"/><line style="stroke:#0A9EFD;stroke-width:2;" x1="51.3333" x2="314.3252" y1="922.2238" y2="922.2238"/><text fill="#0A9EFD" font-family="Arial" font-size="13" lengthAdjust="spacing" textLength="163.2998" x="104.1794" y="902.5202">Turn off the local video track</text><text fill="#0A9EFD" font-family="Arial" font-size="13" lengthAdjust="spacing" textLength="145.9453" x="114.6625" y="917.4689">CameraVideoTrack.close</text></g><g class="message" data-participant-1="APP" data-participant-2="SDK"><polygon fill="#0A9EFD" points="308.3252,962.1213,318.3252,966.1213,308.3252,970.1213,312.3252,966.1213" style="stroke:#0A9EFD;stroke-width:1;"/><line style="stroke:#0A9EFD;stroke-width:2;" x1="51.3333" x2="314.3252" y1="966.1213" y2="966.1213"/><text fill="#0A9EFD" font-family="Arial" font-size="13" lengthAdjust="spacing" textLength="106.2534" x="132.7026" y="946.4176">Leave the channel</text><text fill="#0A9EFD" font-family="Arial" font-size="13" lengthAdjust="spacing" textLength="129.3335" x="122.9684" y="961.3664">AgoraRTCClient.leave</text></g><g class="message" data-participant-1="SDK" data-participant-2="RTN"><polygon fill="#0A9EFD" points="535.6012,991.07,545.6012,995.07,535.6012,999.07,539.6012,995.07" style="stroke:#0A9EFD;stroke-width:1;"/><line style="stroke:#0A9EFD;stroke-width:2;" x1="320.3252" x2="541.6012" y1="995.07" y2="995.07"/><text fill="#0A9EFD" font-family="Arial" font-size="13" lengthAdjust="spacing" textLength="168.397" x="349.7647" y="990.3151">Request to leave the channel</text></g><!--SRC=[ZLJBZjCm5DtdAovP45WqOi6ggYfLHK8yLQM55H9od3iJpxXsyAC2FegFuClm8-buyXYngvnppZtt-BZFcA3SDWZaLYhoNTypKJ9xvbbMov-GxxekppgY3AEi8y90lj7iDwvVlzfkdXjISpJR78Y6tU6GeMZ0iNfgTTh3ySs7PJedlr3fI7V04Ntd_RZpwlJvxvzb4SgbRQA6Gpvet2ffEzWh9CRj1bnIme5oXi9apkjgwoQk8GnnHaiQWFlm_Pk08neuIvUAaL1mTi72Am-g_glLg419ZecQFpSjXkF0RAKs1KW51R6DawPOEF5XQ9nMQZJnL-NLaZ7l9HD0Mo84yXdFFVtEeJBtORLr-wyVaK3X3ulQfABlReB5gtrWklSvYim5sTcQCztsuVaLP3Y_i0Ob64NelKwCzSmK7J39odtEdnXLickbm9s7dJngIIWPDXNQapCgyjL3nYA7_p0_lOn-vIJGew_KcDuGGqAgQIjihQbYTRXwXMTfOimXeirg5TIgvFoQxwAvsDTIYXUvPwnw0ZRvosJJjwvsoJoGzHrICzqjOhuCbeRIBjXUbD43mOUq6TQYw5x9V4wpJYDoCgEwUYp9N3KIXJZXAONBGo-IU_g8n3drZs3wjavM2P0tyOtC5NckkQNx3zBujChZ5ezhEr6OU9nU0_UGfATLVEl-5lbaGx_-Fm00]--></g></svg>