<?xml version="1.0" encoding="us-ascii" standalone="no"?><svg xmlns="http://www.w3.org/2000/svg" xmlns:xlink="http://www.w3.org/1999/xlink" contentStyleType="text/css" height="632px" preserveAspectRatio="none" style="width:706px;height:632px;" version="1.1" viewBox="0 0 706 632" width="706px" zoomAndPan="magnify"><defs/><g><rect fill="none" height="630.8848" style="stroke:#0A9EFD;stroke-width:1.0;" width="704.5" x="0" y="0"/><rect fill="#999999" fill-opacity="0.33333" height="620.8848" style="stroke:#0A9EFD;stroke-width:0.5;" width="369.5" x="135.5" y="6"/><text fill="#0A9EFD" font-family="sans-serif" font-size="13" font-weight="bold" lengthAdjust="spacing" textLength="140" x="250.25" y="18.5684">Implemented by you</text><rect fill="#999999" fill-opacity="0.33333" height="620.8848" style="stroke:#0A9EFD;stroke-width:0.5;" width="91" x="582" y="6"/><text fill="#0A9EFD" font-family="sans-serif" font-size="13" font-weight="bold" lengthAdjust="spacing" textLength="81" x="585" y="18.5684">Provided by</text><text fill="#0A9EFD" font-family="sans-serif" font-size="13" font-weight="bold" lengthAdjust="spacing" textLength="41" x="607" y="33.8789">Agora</text><rect fill="#0A9EFD" fill-opacity="0.06667" height="420.1797" style="stroke:#0A9EFD;stroke-width:2.0;" width="690.5" x="10" y="105.6064"/><line style="stroke:#0A9EFD;stroke-width:0.5;stroke-dasharray:5.0,5.0;" x1="38" x2="38" y1="88.6064" y2="542.7861"/><line style="stroke:#0A9EFD;stroke-width:0.5;stroke-dasharray:5.0,5.0;" x1="158.5" x2="158.5" y1="88.6064" y2="542.7861"/><line style="stroke:#0A9EFD;stroke-width:0.5;stroke-dasharray:5.0,5.0;" x1="447" x2="447" y1="88.6064" y2="542.7861"/><line style="stroke:#0A9EFD;stroke-width:0.5;stroke-dasharray:5.0,5.0;" x1="627.5" x2="627.5" y1="88.6064" y2="542.7861"/><text fill="#0A9EFD" font-family="Arial" font-size="14" lengthAdjust="spacing" textLength="30" x="20" y="85.6396">User</text><ellipse cx="38" cy="18.5078" fill="none" rx="8" ry="8" style="stroke:#0A9EFD;stroke-width:3.0;"/><path d="M38,26.5078 L38,53.5078 M25,34.5078 L51,34.5078 M38,53.5078 L25,68.5078 M38,53.5078 L51,68.5078 " fill="none" style="stroke:#0A9EFD;stroke-width:3.0;"/><text fill="#0A9EFD" font-family="Arial" font-size="14" lengthAdjust="spacing" textLength="30" x="20" y="554.918">User</text><ellipse cx="38" cy="568.8848" fill="none" rx="8" ry="8" style="stroke:#0A9EFD;stroke-width:3.0;"/><path d="M38,576.8848 L38,603.8848 M25,584.8848 L51,584.8848 M38,603.8848 L25,618.8848 M38,603.8848 L51,618.8848 " fill="none" style="stroke:#0A9EFD;stroke-width:3.0;"/><rect fill="none" height="30.0986" rx="2.5" ry="2.5" style="stroke:#0A9EFD;stroke-width:2.0;" width="39" x="139.5" y="57.5078"/><text fill="#0A9EFD" font-family="Arial" font-size="14" lengthAdjust="spacing" textLength="25" x="146.5" y="77.6396">App</text><rect fill="none" height="30.0986" rx="2.5" ry="2.5" style="stroke:#0A9EFD;stroke-width:2.0;" width="39" x="139.5" y="541.7861"/><text fill="#0A9EFD" font-family="Arial" font-size="14" lengthAdjust="spacing" textLength="25" x="146.5" y="561.918">App</text><rect fill="none" height="62.2959" rx="2.5" ry="2.5" style="stroke:#0A9EFD;stroke-width:2.0;" width="108" x="393" y="25.3105"/><text fill="#0A9EFD" font-family="Arial" font-size="14" lengthAdjust="spacing" textLength="75" x="407.5" y="45.4424">Developer's</text><text fill="#0A9EFD" font-family="Arial" font-size="14" lengthAdjust="spacing" textLength="90" x="400" y="61.541">Authentication</text><text fill="#0A9EFD" font-family="Arial" font-size="14" lengthAdjust="spacing" textLength="47" x="423.5" y="77.6396">System</text><rect fill="none" height="62.2959" rx="2.5" ry="2.5" style="stroke:#0A9EFD;stroke-width:2.0;" width="108" x="393" y="541.7861"/><text fill="#0A9EFD" font-family="Arial" font-size="14" lengthAdjust="spacing" textLength="75" x="407.5" y="561.918">Developer's</text><text fill="#0A9EFD" font-family="Arial" font-size="14" lengthAdjust="spacing" textLength="90" x="400" y="578.0166">Authentication</text><text fill="#0A9EFD" font-family="Arial" font-size="14" lengthAdjust="spacing" textLength="47" x="423.5" y="594.1152">System</text><rect fill="none" height="30.0986" rx="2.5" ry="2.5" style="stroke:#0A9EFD;stroke-width:2.0;" width="72" x="591.5" y="57.5078"/><text fill="#0A9EFD" font-family="Arial" font-size="14" lengthAdjust="spacing" textLength="58" x="598.5" y="77.6396">SDRTN&#174;</text><rect fill="none" height="30.0986" rx="2.5" ry="2.5" style="stroke:#0A9EFD;stroke-width:2.0;" width="72" x="591.5" y="541.7861"/><text fill="#0A9EFD" font-family="Arial" font-size="14" lengthAdjust="spacing" textLength="58" x="598.5" y="561.918">SDRTN&#174;</text><path d="M10,105.6064 L255,105.6064 L255,112.5552 L245,122.5552 L10,122.5552 L10,105.6064 " fill="#EEEEEE" style="stroke:#0A9EFD;stroke-width:1.5;"/><rect fill="none" height="420.1797" style="stroke:#0A9EFD;stroke-width:2.0;" width="690.5" x="10" y="105.6064"/><text fill="#000000" font-family="Arial" font-size="13" lengthAdjust="spacing" textLength="200" x="25" y="118.8003">Join a Channel with Authentication</text><polygon fill="#0A9EFD" points="147,139.5039,157,143.5039,147,147.5039,151,143.5039" style="stroke:#0A9EFD;stroke-width:1.0;"/><line style="stroke:#0A9EFD;stroke-width:2.0;" x1="38" x2="153" y1="143.5039" y2="143.5039"/><text fill="#0A9EFD" font-family="Arial" font-size="13" lengthAdjust="spacing" textLength="75" x="61" y="138.749">Start the app</text><polygon fill="#0A9EFD" points="435,183.4014,445,187.4014,435,191.4014,439,187.4014" style="stroke:#0A9EFD;stroke-width:1.0;"/><line style="stroke:#0A9EFD;stroke-width:2.0;" x1="159" x2="441" y1="187.4014" y2="187.4014"/><text fill="#0A9EFD" font-family="Arial" font-size="13" lengthAdjust="spacing" textLength="75" x="263.5" y="167.6978">Login to your</text><text fill="#0A9EFD" font-family="Arial" font-size="13" lengthAdjust="spacing" textLength="172" x="217" y="182.6465">identity management system.</text><polygon fill="#0A9EFD" points="147,212.3501,157,216.3501,147,220.3501,151,216.3501" style="stroke:#0A9EFD;stroke-width:1.0;"/><line style="stroke:#0A9EFD;stroke-width:2.0;" x1="38" x2="153" y1="216.3501" y2="216.3501"/><text fill="#0A9EFD" font-family="Arial" font-size="13" lengthAdjust="spacing" textLength="97" x="50" y="211.5952">Select a channel</text><polygon fill="#0A9EFD" points="435,256.2476,445,260.2476,435,264.2476,439,260.2476" style="stroke:#0A9EFD;stroke-width:1.0;"/><line style="stroke:#0A9EFD;stroke-width:2.0;" x1="159" x2="441" y1="260.2476" y2="260.2476"/><text fill="#0A9EFD" font-family="Arial" font-size="13" lengthAdjust="spacing" textLength="260" x="171" y="240.5439">Request an Agora authentication token using</text><text fill="#0A9EFD" font-family="Arial" font-size="13" lengthAdjust="spacing" textLength="248" x="179" y="255.4927">channel name, role, token type and user Id</text><line style="stroke:#0A9EFD;stroke-width:2.0;" x1="447" x2="489" y1="304.145" y2="304.145"/><line style="stroke:#0A9EFD;stroke-width:2.0;" x1="489" x2="489" y1="304.145" y2="317.145"/><line style="stroke:#0A9EFD;stroke-width:2.0;" x1="448" x2="489" y1="317.145" y2="317.145"/><polygon fill="#0A9EFD" points="458,313.145,448,317.145,458,321.145,454,317.145" style="stroke:#0A9EFD;stroke-width:1.0;"/><text fill="#0A9EFD" font-family="Arial" font-size="13" lengthAdjust="spacing" textLength="123" x="459.5" y="284.4414">Validate user request</text><text fill="#0A9EFD" font-family="Arial" font-size="13" lengthAdjust="spacing" textLength="138" x="454" y="299.3901">against internal security</text><line style="stroke:#0A9EFD;stroke-width:2.0;" x1="447" x2="489" y1="361.0425" y2="361.0425"/><line style="stroke:#0A9EFD;stroke-width:2.0;" x1="489" x2="489" y1="361.0425" y2="374.0425"/><line style="stroke:#0A9EFD;stroke-width:2.0;" x1="448" x2="489" y1="374.0425" y2="374.0425"/><polygon fill="#0A9EFD" points="458,370.0425,448,374.0425,458,378.0425,454,374.0425" style="stroke:#0A9EFD;stroke-width:1.0;"/><text fill="#0A9EFD" font-family="Arial" font-size="13" lengthAdjust="spacing" textLength="161" x="454" y="341.3389">Use integrated Agora library</text><text fill="#0A9EFD" font-family="Arial" font-size="13" lengthAdjust="spacing" textLength="112" x="480.5" y="356.2876">to generate a token</text><polygon fill="#0A9EFD" points="170,398.9912,160,402.9912,170,406.9912,166,402.9912" style="stroke:#0A9EFD;stroke-width:1.0;"/><line style="stroke:#0A9EFD;stroke-width:2.0;" x1="164" x2="446" y1="402.9912" y2="402.9912"/><text fill="#0A9EFD" font-family="Arial" font-size="13" lengthAdjust="spacing" textLength="168" x="219" y="398.2363">Return the token to the client</text><polygon fill="#0A9EFD" points="615.5,427.9399,625.5,431.9399,615.5,435.9399,619.5,431.9399" style="stroke:#0A9EFD;stroke-width:1.0;"/><line style="stroke:#0A9EFD;stroke-width:2.0;" x1="159" x2="621.5" y1="431.9399" y2="431.9399"/><text fill="#0A9EFD" font-family="Arial" font-size="13" lengthAdjust="spacing" textLength="309" x="238.75" y="427.1851">Join a channel with user Id, channel name, and token</text><line style="stroke:#0A9EFD;stroke-width:2.0;" x1="627.5" x2="669.5" y1="475.8374" y2="475.8374"/><line style="stroke:#0A9EFD;stroke-width:2.0;" x1="669.5" x2="669.5" y1="475.8374" y2="488.8374"/><line style="stroke:#0A9EFD;stroke-width:2.0;" x1="628.5" x2="669.5" y1="488.8374" y2="488.8374"/><polygon fill="#0A9EFD" points="638.5,484.8374,628.5,488.8374,638.5,492.8374,634.5,488.8374" style="stroke:#0A9EFD;stroke-width:1.0;"/><text fill="#0A9EFD" font-family="Arial" font-size="13" lengthAdjust="spacing" textLength="47" x="636" y="456.1338">Validate</text><text fill="#0A9EFD" font-family="Arial" font-size="13" lengthAdjust="spacing" textLength="54" x="634.5" y="471.0825">the token</text><polygon fill="#0A9EFD" points="170,513.7861,160,517.7861,170,521.7861,166,517.7861" style="stroke:#0A9EFD;stroke-width:1.0;"/><line style="stroke:#0A9EFD;stroke-width:2.0;" x1="164" x2="626.5" y1="517.7861" y2="517.7861"/><text fill="#0A9EFD" font-family="Arial" font-size="13" lengthAdjust="spacing" textLength="301" x="242.75" y="513.0313">Trigger the callback after adding user to the channel</text><!--SRC=[NL9BRjim4Dtp55Djkabo02C8O3GR1q5XM4bM1e8nDQ49KqEMdpIwL0_HasL4oKxLZI1nEE-hRvQrAnq16X_nDPqitzZIEwLGPn-XUKuK6y04p-rEgOF_W6RJ1qSzSQOE3WCClZGgOCnMsu2SeLc7K5VMs-roS4_lv7oW-3t1djSb7mN5QipMinoqGyhKrzNsPQU81Tz_pApRwDzjDr7AxYZtFzhsVlVqy- -VcNhpjM-YBm4Ul6L0-754PdBms-OZB2KeyGZNTwFk5RHPi476W24eEHed8ci5Zzu8KlQZyoXQH9L0v05wP3Gr6KZLoiqIaHpfB1Bq9641kgDVXP9C6Qetm6KwsP-8eIJBHYXd163iwGgYT_ASRkGXY69nNgGus7HAq2yaB-XiXvccOPmfzw8QBSkRbKuZeuD4kaInjDYMNw7UC177wYUPpXuYnc5V0p74D0x5uwIcMhozFblC9NADTDRgwuTsLeogSnnItUfSblwthDdH5IpTZsOhdW1iBW0Ngtk-47vTa3QUeZL60Ai2TEw0-WJu9W40TjqOS-KxQvmhatzAVG80]--></g></svg>