<?xml version="1.0" encoding="us-ascii" standalone="no"?><svg xmlns="http://www.w3.org/2000/svg" xmlns:xlink="http://www.w3.org/1999/xlink" contentStyleType="text/css" height="677px" preserveAspectRatio="none" style="width:609px;height:677px;" version="1.1" viewBox="0 0 609 677" width="609px" zoomAndPan="magnify"><defs/><g><rect fill="none" height="675.721" style="stroke:#0A9EFD;stroke-width:1.0;" width="607.3333" x="0" y="0"/><rect fill="#999999" fill-opacity="0.33333" height="665.721" style="stroke:#0A9EFD;stroke-width:0.5;" width="50.6667" x="16" y="6"/><text fill="#0A9EFD" font-family="sans-serif" font-size="13" font-weight="bold" lengthAdjust="spacing" textLength="28" x="27.3333" y="18.5684">App</text><rect fill="#999999" fill-opacity="0.33333" height="665.721" style="stroke:#0A9EFD;stroke-width:0.5;" width="74" x="246" y="6"/><text fill="#0A9EFD" font-family="sans-serif" font-size="13" font-weight="bold" lengthAdjust="spacing" textLength="68" x="249" y="18.5684">Video SDK</text><rect fill="#999999" fill-opacity="0.33333" height="665.721" style="stroke:#0A9EFD;stroke-width:0.5;" width="107" x="496.3333" y="6"/><text fill="#0A9EFD" font-family="sans-serif" font-size="13" font-weight="bold" lengthAdjust="spacing" textLength="101" x="499.3333" y="18.5684">Agora SDRTN&#174;</text><rect fill="#0A9EFD" fill-opacity="0.06667" height="132.7437" style="stroke:#0A9EFD;stroke-width:2.0;" width="571.1667" x="10" y="141.8747"/><rect fill="#0A9EFD" fill-opacity="0.06667" height="132.7437" style="stroke:#0A9EFD;stroke-width:2.0;" width="571.1667" x="10" y="288.6183"/><rect fill="#0A9EFD" fill-opacity="0.06667" height="174.6924" style="stroke:#0A9EFD;stroke-width:2.0;" width="571.1667" x="10" y="435.362"/><line style="stroke:#0A9EFD;stroke-width:0.5;stroke-dasharray:5.0,5.0;" x1="41" x2="41" y1="66.9772" y2="627.0544"/><line style="stroke:#0A9EFD;stroke-width:0.5;stroke-dasharray:5.0,5.0;" x1="282.6667" x2="282.6667" y1="66.9772" y2="627.0544"/><line style="stroke:#0A9EFD;stroke-width:0.5;stroke-dasharray:5.0,5.0;" x1="549.5" x2="549.5" y1="66.9772" y2="627.0544"/><rect fill="none" height="40.6667" rx="2.5" ry="2.5" style="stroke:#0A9EFD;stroke-width:2.0;" width="42.6667" x="20" y="25.3105"/><path d="M29.1333,32.3105 C28.5333,32.3105 28,32.8439 28,33.4439 L28,57.8105 C28,58.4105 28.5333,58.9439 29.1333,58.9439 L50.1667,58.9439 C50.7667,58.9439 51.3,58.4105 51.3,57.8105 L51.3,33.4439 C51.3,32.8439 50.7667,32.3105 50.1667,32.3105 L29.1333,32.3105 M31.3333,35.6439 L48,35.6439 L48,52.3105 L31.3333,52.3105 L31.3333,35.6439 M39.6667,53.9772 C40.9333,53.9772 41.7667,55.3772 41.1333,56.4772 C40.5,57.5772 38.8667,57.5772 38.2,56.4772 C37.5667,55.3772 38.3667,53.9772 39.6667,53.9772 " fill="#0A9EFD" style="stroke:;stroke-width:0.0;stroke-dasharray:;"/><rect fill="none" height="40.6667" rx="2.5" ry="2.5" style="stroke:#0A9EFD;stroke-width:2.0;" width="42.6667" x="20" y="626.0544"/><path d="M29.1333,633.0544 C28.5333,633.0544 28,633.5877 28,634.1877 L28,658.5544 C28,659.1544 28.5333,659.6877 29.1333,659.6877 L50.1667,659.6877 C50.7667,659.6877 51.3,659.1544 51.3,658.5544 L51.3,634.1877 C51.3,633.5877 50.7667,633.0544 50.1667,633.0544 L29.1333,633.0544 M31.3333,636.3877 L48,636.3877 L48,653.0544 L31.3333,653.0544 L31.3333,636.3877 M39.6667,654.721 C40.9333,654.721 41.7667,656.121 41.1333,657.221 C40.5,658.321 38.8667,658.321 38.2,657.221 C37.5667,656.121 38.3667,654.721 39.6667,654.721 " fill="#0A9EFD" style="stroke:;stroke-width:0.0;stroke-dasharray:;"/><rect fill="none" height="40.6667" rx="2.5" ry="2.5" style="stroke:#0A9EFD;stroke-width:2.0;" width="42.6667" x="261.6667" y="25.3105"/><path d="M269.6667,32.3105 L269.6667,45.6439 L283,45.6439 L283,32.3105 L269.6667,32.3105 M286.3333,38.9772 L286.3333,48.9772 L276.3333,48.9772 L276.3333,52.3105 L289.6667,52.3105 L289.6667,38.9772 L286.3333,38.9772 M293,45.6439 L293,55.6439 L283,55.6439 L283,58.9772 L296.3333,58.9772 L296.3333,45.6439 L293,45.6439 " fill="#0A9EFD" style="stroke:;stroke-width:0.0;stroke-dasharray:;"/><rect fill="none" height="40.6667" rx="2.5" ry="2.5" style="stroke:#0A9EFD;stroke-width:2.0;" width="42.6667" x="261.6667" y="626.0544"/><path d="M269.6667,633.0544 L269.6667,646.3877 L283,646.3877 L283,633.0544 L269.6667,633.0544 M286.3333,639.721 L286.3333,649.721 L276.3333,649.721 L276.3333,653.0544 L289.6667,653.0544 L289.6667,639.721 L286.3333,639.721 M293,646.3877 L293,656.3877 L283,656.3877 L283,659.721 L296.3333,659.721 L296.3333,646.3877 L293,646.3877 " fill="#0A9EFD" style="stroke:;stroke-width:0.0;stroke-dasharray:;"/><rect fill="none" height="40.6667" rx="2.5" ry="2.5" style="stroke:#0A9EFD;stroke-width:2.0;" width="42.6667" x="528.5" y="25.3105"/><path d="M551.5,32.3105 C547.4667,32.3105 543.9333,35.1772 543.1667,38.9772 C539.5,38.9772 536.5,41.9772 536.5,45.6439 C536.5,49.3105 539.5,52.3105 543.1667,52.3105 L558.1667,52.3105 C560.9333,52.3105 563.1667,50.0772 563.1667,47.3105 C563.1667,45.1439 561.7667,43.0105 559.8333,42.3105 L559.8333,40.6439 C559.8333,36.0439 556.1,32.3105 551.5,32.3105 " fill="#0A9EFD" style="stroke:;stroke-width:0.0;stroke-dasharray:;"/><rect fill="none" height="40.6667" rx="2.5" ry="2.5" style="stroke:#0A9EFD;stroke-width:2.0;" width="42.6667" x="528.5" y="626.0544"/><path d="M551.5,633.0544 C547.4667,633.0544 543.9333,635.921 543.1667,639.721 C539.5,639.721 536.5,642.721 536.5,646.3877 C536.5,650.0544 539.5,653.0544 543.1667,653.0544 L558.1667,653.0544 C560.9333,653.0544 563.1667,650.821 563.1667,648.0544 C563.1667,645.8877 561.7667,643.7544 559.8333,643.0544 L559.8333,641.3877 C559.8333,636.7877 556.1,633.0544 551.5,633.0544 " fill="#0A9EFD" style="stroke:;stroke-width:0.0;stroke-dasharray:;"/><polygon fill="#0A9EFD" points="271,93.9259,281,97.9259,271,101.9259,275,97.9259" style="stroke:#0A9EFD;stroke-width:1.0;"/><line style="stroke:#0A9EFD;stroke-width:2.0;" x1="41.3333" x2="277" y1="97.9259" y2="97.9259"/><text fill="#0A9EFD" font-family="Arial" font-size="13" lengthAdjust="spacing" textLength="206" x="59.1667" y="93.1711">Create an instance of Agora Engine</text><polygon fill="#0A9EFD" points="537.8333,122.8747,547.8333,126.8747,537.8333,130.8747,541.8333,126.8747" style="stroke:#0A9EFD;stroke-width:1.0;"/><line style="stroke:#0A9EFD;stroke-width:2.0;" x1="283" x2="543.8333" y1="126.8747" y2="126.8747"/><text fill="#0A9EFD" font-family="Arial" font-size="13" lengthAdjust="spacing" textLength="165" x="333.9167" y="122.1198">Initialize the engine instance</text><path d="M10,141.8747 L216,141.8747 L216,148.8234 L206,158.8234 L10,158.8234 L10,141.8747 " fill="#EEEEEE" style="stroke:#0A9EFD;stroke-width:1.5;"/><rect fill="none" height="132.7437" style="stroke:#0A9EFD;stroke-width:2.0;" width="571.1667" x="10" y="141.8747"/><text fill="#000000" font-family="Arial" font-size="13" lengthAdjust="spacing" textLength="161" x="25" y="155.0685">Accelerated video rendering</text><polygon fill="#0A9EFD" points="271,175.7721,281,179.7721,271,183.7721,275,179.7721" style="stroke:#0A9EFD;stroke-width:1.0;"/><line style="stroke:#0A9EFD;stroke-width:2.0;" x1="41.3333" x2="277" y1="179.7721" y2="179.7721"/><text fill="#0A9EFD" font-family="Arial" font-size="13" lengthAdjust="spacing" textLength="203" x="60.6667" y="175.0173">Enable accelerated video rendering</text><polygon fill="#0A9EFD" points="537.8333,204.7209,547.8333,208.7209,537.8333,212.7209,541.8333,208.7209" style="stroke:#0A9EFD;stroke-width:1.0;"/><line style="stroke:#0A9EFD;stroke-width:2.0;" x1="283" x2="543.8333" y1="208.7209" y2="208.7209"/><text fill="#0A9EFD" font-family="Arial" font-size="13" lengthAdjust="spacing" textLength="203" x="314.9167" y="203.966">Enable accelerated video rendering</text><polygon fill="#0A9EFD" points="271,233.6696,281,237.6696,271,241.6696,275,237.6696" style="stroke:#0A9EFD;stroke-width:1.0;"/><line style="stroke:#0A9EFD;stroke-width:2.0;" x1="41.3333" x2="277" y1="237.6696" y2="237.6696"/><text fill="#0A9EFD" font-family="Arial" font-size="13" lengthAdjust="spacing" textLength="108" x="108.1667" y="232.9147">Set video scenario</text><polygon fill="#0A9EFD" points="537.8333,262.6183,547.8333,266.6183,537.8333,270.6183,541.8333,266.6183" style="stroke:#0A9EFD;stroke-width:1.0;"/><line style="stroke:#0A9EFD;stroke-width:2.0;" x1="283" x2="543.8333" y1="266.6183" y2="266.6183"/><text fill="#0A9EFD" font-family="Arial" font-size="13" lengthAdjust="spacing" textLength="108" x="362.4167" y="261.8634">Set video scenario</text><path d="M10,288.6183 L139,288.6183 L139,295.5671 L129,305.5671 L10,305.5671 L10,288.6183 " fill="#EEEEEE" style="stroke:#0A9EFD;stroke-width:1.5;"/><rect fill="none" height="132.7437" style="stroke:#0A9EFD;stroke-width:2.0;" width="571.1667" x="10" y="288.6183"/><text fill="#000000" font-family="Arial" font-size="13" lengthAdjust="spacing" textLength="84" x="25" y="301.8122">Join a channel</text><polygon fill="#0A9EFD" points="271,322.5158,281,326.5158,271,330.5158,275,326.5158" style="stroke:#0A9EFD;stroke-width:1.0;"/><line style="stroke:#0A9EFD;stroke-width:2.0;" x1="41.3333" x2="277" y1="326.5158" y2="326.5158"/><text fill="#0A9EFD" font-family="Arial" font-size="13" lengthAdjust="spacing" textLength="84" x="120.1667" y="321.7609">Join a channel</text><polygon fill="#0A9EFD" points="537.8333,351.4645,547.8333,355.4645,537.8333,359.4645,541.8333,355.4645" style="stroke:#0A9EFD;stroke-width:1.0;"/><line style="stroke:#0A9EFD;stroke-width:2.0;" x1="283" x2="543.8333" y1="355.4645" y2="355.4645"/><text fill="#0A9EFD" font-family="Arial" font-size="13" lengthAdjust="spacing" textLength="95" x="368.9167" y="350.7096">Join the channel</text><polygon fill="#0A9EFD" points="294,380.4132,284,384.4132,294,388.4132,290,384.4132" style="stroke:#0A9EFD;stroke-width:1.0;"/><line style="stroke:#0A9EFD;stroke-width:2.0;" x1="288" x2="548.8333" y1="384.4132" y2="384.4132"/><text fill="#0A9EFD" font-family="Arial" font-size="13" lengthAdjust="spacing" textLength="121" x="355.9167" y="379.6584">Notify channel joined</text><polygon fill="#0A9EFD" points="294,409.362,284,413.362,294,417.362,290,413.362" style="stroke:#0A9EFD;stroke-width:1.0;"/><line style="stroke:#0A9EFD;stroke-width:2.0;" x1="288" x2="548.8333" y1="413.362" y2="413.362"/><text fill="#0A9EFD" font-family="Arial" font-size="13" lengthAdjust="spacing" textLength="112" x="360.4167" y="408.6071">Remote user joined</text><path d="M10,435.362 L289,435.362 L289,442.3107 L279,452.3107 L10,452.3107 L10,435.362 " fill="#EEEEEE" style="stroke:#0A9EFD;stroke-width:1.5;"/><rect fill="none" height="174.6924" style="stroke:#0A9EFD;stroke-width:2.0;" width="571.1667" x="10" y="435.362"/><text fill="#000000" font-family="Arial" font-size="13" lengthAdjust="spacing" textLength="234" x="25" y="448.5558">Decode and display the first video frame</text><polygon fill="#0A9EFD" points="271,469.2594,281,473.2594,271,477.2594,275,473.2594" style="stroke:#0A9EFD;stroke-width:1.0;"/><line style="stroke:#0A9EFD;stroke-width:2.0;" x1="41.3333" x2="277" y1="473.2594" y2="473.2594"/><text fill="#0A9EFD" font-family="Arial" font-size="13" lengthAdjust="spacing" textLength="143" x="90.6667" y="468.5046">Setup remote video view</text><polygon fill="#0A9EFD" points="537.8333,498.2082,547.8333,502.2082,537.8333,506.2082,541.8333,502.2082" style="stroke:#0A9EFD;stroke-width:1.0;"/><line style="stroke:#0A9EFD;stroke-width:2.0;" x1="283" x2="543.8333" y1="502.2082" y2="502.2082"/><text fill="#0A9EFD" font-family="Arial" font-size="13" lengthAdjust="spacing" textLength="152" x="340.4167" y="497.4533">Subscribe to remote video</text><polygon fill="#0A9EFD" points="294,527.1569,284,531.1569,294,535.1569,290,531.1569" style="stroke:#0A9EFD;stroke-width:1.0;"/><line style="stroke:#0A9EFD;stroke-width:2.0;" x1="288" x2="548.8333" y1="531.1569" y2="531.1569"/><text fill="#0A9EFD" font-family="Arial" font-size="13" lengthAdjust="spacing" textLength="170" x="331.4167" y="526.402">Receive remote video stream</text><line style="stroke:#0A9EFD;stroke-width:2.0;" x1="283" x2="325" y1="560.1056" y2="560.1056"/><line style="stroke:#0A9EFD;stroke-width:2.0;" x1="325" x2="325" y1="560.1056" y2="573.1056"/><line style="stroke:#0A9EFD;stroke-width:2.0;" x1="284" x2="325" y1="573.1056" y2="573.1056"/><polygon fill="#0A9EFD" points="294,569.1056,284,573.1056,294,577.1056,290,573.1056" style="stroke:#0A9EFD;stroke-width:1.0;"/><text fill="#0A9EFD" font-family="Arial" font-size="13" lengthAdjust="spacing" textLength="164" x="290" y="555.3507">Decode the first video frame</text><polygon fill="#0A9EFD" points="52.3333,598.0544,42.3333,602.0544,52.3333,606.0544,48.3333,602.0544" style="stroke:#0A9EFD;stroke-width:1.0;"/><line style="stroke:#0A9EFD;stroke-width:2.0;" x1="46.3333" x2="282" y1="602.0544" y2="602.0544"/><text fill="#0A9EFD" font-family="Arial" font-size="13" lengthAdjust="spacing" textLength="124" x="100.1667" y="597.2995">Shows the first frame</text><!--SRC=[ZP9BJiCm443tFiMG1JiG2rPLLIc2BW2fgbh45hdE91rmxCXsMigXE0GdO_9fI095R3rltlnyHaRfCa6GcNNosR-IkQGorq9ix1j4SL54ef0kaA92cW3HrDCxJgwlPjFp83SQmom2wI5UBWMQ13YhJNsY12siRnzE2xGyeFEDWC6H8AuwulVLu-BpuxH4QLicZOF9RmTt11UpoZk16uSoy8m6oFWWZKAmAJG5vYOZWuAv2cV51EuC1PAQIq3O8c1DTAb2PCwM1SHAeKR7uWHszR2EYwCZamsApqsr9v1_uFtY_y3xzZM6DkuL6kd8ma3tCrwjw3Z3lIK34jHM6eDw81w5-iuwL6sc3OBWvovnOGEbXoxsmZ0c0sA5kULpb1xTCTphwHQLhJua7p8XN_0dgMkbvFnnbDJ97CThu5JNY1jeHxWVhgBSUELemrUr0tJKd4BQuT3b0_-WlDji3RPz_jvR2tABN7Thzxx7DKGryHS0]--></g></svg>