<svg xmlns="http://www.w3.org/2000/svg" xmlns:xlink="http://www.w3.org/1999/xlink" contentStyleType="text/css" data-diagram-type="SEQUENCE" height="589px" preserveAspectRatio="none" style="width:595px;height:589px;" version="1.1" viewBox="0 0 595 589" width="595px" zoomAndPan="magnify"><defs/><g><rect fill="none" height="587.9159" style="stroke:#0A9EFD;stroke-width:1;" width="593.8304" x="0" y="0"/><rect fill="#999999" fill-opacity="0.33333" height="577.9159" style="stroke:#0A9EFD;stroke-width:0.5;" width="50.6667" x="16" y="6"/><text fill="#0A9EFD" font-family="sans-serif" font-size="13" font-weight="bold" lengthAdjust="spacing" textLength="25.27" x="28.6983" y="19.4951">App</text><rect fill="#999999" fill-opacity="0.33333" height="577.9159" style="stroke:#0A9EFD;stroke-width:0.5;" width="63.7764" x="245.9688" y="6"/><text fill="#0A9EFD" font-family="sans-serif" font-size="13" font-weight="bold" lengthAdjust="spacing" textLength="57.7764" x="248.9688" y="19.4951">RTC SDK</text><rect fill="#999999" fill-opacity="0.33333" height="577.9159" style="stroke:#0A9EFD;stroke-width:0.5;" width="101.5259" x="488.3045" y="6"/><text fill="#0A9EFD" font-family="sans-serif" font-size="13" font-weight="bold" lengthAdjust="spacing" textLength="95.5259" x="491.3045" y="19.4951">Agora SDRTN&#174;</text><rect fill="#0A9EFD" fill-opacity="0.06667" height="161.6924" style="stroke:#0A9EFD;stroke-width:2;" width="560.4008" x="10" y="142.9157"/><rect fill="#0A9EFD" fill-opacity="0.06667" height="203.6411" style="stroke:#0A9EFD;stroke-width:2;" width="560.4008" x="10" y="318.6081"/><g><title>&lt;size:40&gt;&lt;&amp;tablet&gt;</title><rect fill="#000000" fill-opacity="0.00000" height="471.231" width="8" x="37.3333" y="68.0182"/><line style="stroke:#0A9EFD;stroke-width:0.5;stroke-dasharray:5.0,5.0;" x1="41" x2="41" y1="68.0182" y2="539.2492"/></g><g><title>&lt;size:40&gt;&lt;&amp;layers&gt;</title><rect fill="#000000" fill-opacity="0.00000" height="471.231" width="8" x="273.8569" y="68.0182"/><line style="stroke:#0A9EFD;stroke-width:0.5;stroke-dasharray:5.0,5.0;" x1="277.5236" x2="277.5236" y1="68.0182" y2="539.2492"/></g><g><title>&lt;size:40&gt;&lt;&amp;cloud&gt;</title><rect fill="#000000" fill-opacity="0.00000" height="471.231" width="8" x="535.0675" y="68.0182"/><line style="stroke:#0A9EFD;stroke-width:0.5;stroke-dasharray:5.0,5.0;" x1="538.7341" x2="538.7341" y1="68.0182" y2="539.2492"/></g><g class="participant participant-head" data-participant="APP"><rect fill="none" height="40.6667" rx="2.5" ry="2.5" style="stroke:#0A9EFD;stroke-width:2;" width="42.6667" x="20" y="26.3516"/><path d="M29.1333,33.3516 C28.5333,33.3516 28,33.8849 28,34.4849 L28,58.8516 C28,59.4516 28.5333,59.9849 29.1333,59.9849 L50.1667,59.9849 C50.7667,59.9849 51.3,59.4516 51.3,58.8516 L51.3,34.4849 C51.3,33.8849 50.7667,33.3516 50.1667,33.3516 L29.1333,33.3516 M31.3333,36.6849 L48,36.6849 L48,53.3516 L31.3333,53.3516 L31.3333,36.6849 M39.6667,55.0182 C40.9333,55.0182 41.7667,56.4182 41.1333,57.5182 C40.5,58.6182 38.8667,58.6182 38.2,57.5182 C37.5667,56.4182 38.3667,55.0182 39.6667,55.0182" fill="#0A9EFD"/></g><g class="participant participant-tail" data-participant="APP"><rect fill="none" height="40.6667" rx="2.5" ry="2.5" style="stroke:#0A9EFD;stroke-width:2;" width="42.6667" x="20" y="538.2492"/><path d="M29.1333,545.2492 C28.5333,545.2492 28,545.7825 28,546.3825 L28,570.7492 C28,571.3492 28.5333,571.8825 29.1333,571.8825 L50.1667,571.8825 C50.7667,571.8825 51.3,571.3492 51.3,570.7492 L51.3,546.3825 C51.3,545.7825 50.7667,545.2492 50.1667,545.2492 L29.1333,545.2492 M31.3333,548.5825 L48,548.5825 L48,565.2492 L31.3333,565.2492 L31.3333,548.5825 M39.6667,566.9159 C40.9333,566.9159 41.7667,568.3159 41.1333,569.4159 C40.5,570.5159 38.8667,570.5159 38.2,569.4159 C37.5667,568.3159 38.3667,566.9159 39.6667,566.9159" fill="#0A9EFD"/></g><g class="participant participant-head" data-participant="SDK"><rect fill="none" height="40.6667" rx="2.5" ry="2.5" style="stroke:#0A9EFD;stroke-width:2;" width="42.6667" x="256.5236" y="26.3516"/><path d="M264.5236,33.3516 L264.5236,46.6849 L277.8569,46.6849 L277.8569,33.3516 L264.5236,33.3516 M281.1903,40.0182 L281.1903,50.0182 L271.1903,50.0182 L271.1903,53.3516 L284.5236,53.3516 L284.5236,40.0182 L281.1903,40.0182 M287.8569,46.6849 L287.8569,56.6849 L277.8569,56.6849 L277.8569,60.0182 L291.1903,60.0182 L291.1903,46.6849 L287.8569,46.6849" fill="#0A9EFD"/></g><g class="participant participant-tail" data-participant="SDK"><rect fill="none" height="40.6667" rx="2.5" ry="2.5" style="stroke:#0A9EFD;stroke-width:2;" width="42.6667" x="256.5236" y="538.2492"/><path d="M264.5236,545.2492 L264.5236,558.5825 L277.8569,558.5825 L277.8569,545.2492 L264.5236,545.2492 M281.1903,551.9159 L281.1903,561.9159 L271.1903,561.9159 L271.1903,565.2492 L284.5236,565.2492 L284.5236,551.9159 L281.1903,551.9159 M287.8569,558.5825 L287.8569,568.5825 L277.8569,568.5825 L277.8569,571.9159 L291.1903,571.9159 L291.1903,558.5825 L287.8569,558.5825" fill="#0A9EFD"/></g><g class="participant participant-head" data-participant="RTN"><rect fill="none" height="40.6667" rx="2.5" ry="2.5" style="stroke:#0A9EFD;stroke-width:2;" width="42.6667" x="517.7341" y="26.3516"/><path d="M540.7341,36.6849 C536.7008,36.6849 533.1675,39.5516 532.4008,43.3516 C528.7341,43.3516 525.7341,46.3516 525.7341,50.0182 C525.7341,53.6849 528.7341,56.6849 532.4008,56.6849 L547.4008,56.6849 C550.1675,56.6849 552.4008,54.4516 552.4008,51.6849 C552.4008,49.5182 551.0008,47.3849 549.0675,46.6849 L549.0675,45.0182 C549.0675,40.4182 545.3341,36.6849 540.7341,36.6849" fill="#0A9EFD"/></g><g class="participant participant-tail" data-participant="RTN"><rect fill="none" height="40.6667" rx="2.5" ry="2.5" style="stroke:#0A9EFD;stroke-width:2;" width="42.6667" x="517.7341" y="538.2492"/><path d="M540.7341,548.5825 C536.7008,548.5825 533.1675,551.4492 532.4008,555.2492 C528.7341,555.2492 525.7341,558.2492 525.7341,561.9159 C525.7341,565.5825 528.7341,568.5825 532.4008,568.5825 L547.4008,568.5825 C550.1675,568.5825 552.4008,566.3492 552.4008,563.5825 C552.4008,561.4159 551.0008,559.2825 549.0675,558.5825 L549.0675,556.9159 C549.0675,552.3159 545.3341,548.5825 540.7341,548.5825" fill="#0A9EFD"/></g><g class="message" data-participant-1="APP" data-participant-2="SDK"><polygon fill="#0A9EFD" points="265.8569,94.967,275.8569,98.967,265.8569,102.967,269.8569,98.967" style="stroke:#0A9EFD;stroke-width:1;"/><line style="stroke:#0A9EFD;stroke-width:2;" x1="41.3333" x2="271.8569" y1="98.967" y2="98.967"/><text fill="#0A9EFD" font-family="Arial" font-size="13" lengthAdjust="spacing" textLength="205.9688" x="56.6108" y="94.2121">Create an instance of Agora Engine</text></g><g class="message" data-participant-1="SDK" data-participant-2="RTN"><polygon fill="#0A9EFD" points="527.0675,123.9157,537.0675,127.9157,527.0675,131.9157,531.0675,127.9157" style="stroke:#0A9EFD;stroke-width:1;"/><line style="stroke:#0A9EFD;stroke-width:2;" x1="277.8569" x2="533.0675" y1="127.9157" y2="127.9157"/><text fill="#0A9EFD" font-family="Arial" font-size="13" lengthAdjust="spacing" textLength="163.3315" x="326.7964" y="123.1608">Initialize the engine instance</text></g><path d="M10,142.9157 L199.5171,142.9157 L199.5171,149.8644 L189.5171,159.8644 L10,159.8644 L10,142.9157" fill="#EEEEEE" style="stroke:#0A9EFD;stroke-width:1.5;"/><rect fill="none" height="161.6924" style="stroke:#0A9EFD;stroke-width:2;" width="560.4008" x="10" y="142.9157"/><text fill="#000000" font-family="Arial" font-size="13" lengthAdjust="spacing" textLength="144.5171" x="25" y="156.1095">Optimize video rendering</text><g class="message" data-participant-1="APP" data-participant-2="SDK"><polygon fill="#0A9EFD" points="265.8569,176.8132,275.8569,180.8132,265.8569,184.8132,269.8569,180.8132" style="stroke:#0A9EFD;stroke-width:1;"/><line style="stroke:#0A9EFD;stroke-width:2;" x1="41.3333" x2="271.8569" y1="180.8132" y2="180.8132"/><text fill="#0A9EFD" font-family="Arial" font-size="13" lengthAdjust="spacing" textLength="204.5278" x="57.3312" y="176.0583">Enable accelerated video rendering</text></g><g class="message" data-participant-1="APP" data-participant-2="SDK"><polygon fill="#0A9EFD" points="265.8569,205.7619,275.8569,209.7619,265.8569,213.7619,269.8569,209.7619" style="stroke:#0A9EFD;stroke-width:1;"/><line style="stroke:#0A9EFD;stroke-width:2;" x1="41.3333" x2="271.8569" y1="209.7619" y2="209.7619"/><text fill="#0A9EFD" font-family="Arial" font-size="13" lengthAdjust="spacing" textLength="117.7935" x="100.6984" y="205.007">Set a video scenario</text></g><g class="message" data-participant-1="APP" data-participant-2="SDK"><polygon fill="#0A9EFD" points="265.8569,234.7106,275.8569,238.7106,265.8569,242.7106,269.8569,238.7106" style="stroke:#0A9EFD;stroke-width:1;"/><line style="stroke:#0A9EFD;stroke-width:2;" x1="41.3333" x2="271.8569" y1="238.7106" y2="238.7106"/><text fill="#0A9EFD" font-family="Arial" font-size="13" lengthAdjust="spacing" textLength="104.7998" x="107.1952" y="233.9557">Preload a channel</text></g><g class="message" data-participant-1="APP" data-participant-2="SDK"><polygon fill="#0A9EFD" points="265.8569,263.6593,275.8569,267.6593,265.8569,271.6593,269.8569,267.6593" style="stroke:#0A9EFD;stroke-width:1;"/><line style="stroke:#0A9EFD;stroke-width:2;" x1="41.3333" x2="271.8569" y1="267.6593" y2="267.6593"/><text fill="#0A9EFD" font-family="Arial" font-size="13" lengthAdjust="spacing" textLength="156.8062" x="81.1921" y="262.9045">Set up a remote video view</text></g><g class="message" data-participant-1="SDK" data-participant-2="RTN"><polygon fill="#0A9EFD" points="527.0675,292.6081,537.0675,296.6081,527.0675,300.6081,531.0675,296.6081" style="stroke:#0A9EFD;stroke-width:1;"/><line style="stroke:#0A9EFD;stroke-width:2;" x1="277.8569" x2="533.0675" y1="296.6081" y2="296.6081"/><text fill="#0A9EFD" font-family="Arial" font-size="13" lengthAdjust="spacing" textLength="205.2261" x="305.8492" y="291.8532">Apply video rendering optimizations</text></g><path d="M10,318.6081 L138.8398,318.6081 L138.8398,325.5568 L128.8398,335.5568 L10,335.5568 L10,318.6081" fill="#EEEEEE" style="stroke:#0A9EFD;stroke-width:1.5;"/><rect fill="none" height="203.6411" style="stroke:#0A9EFD;stroke-width:2;" width="560.4008" x="10" y="318.6081"/><text fill="#000000" font-family="Arial" font-size="13" lengthAdjust="spacing" textLength="83.8398" x="25" y="331.8019">Join a channel</text><g class="message" data-participant-1="APP" data-participant-2="SDK"><polygon fill="#0A9EFD" points="265.8569,352.5055,275.8569,356.5055,265.8569,360.5055,269.8569,356.5055" style="stroke:#0A9EFD;stroke-width:1;"/><line style="stroke:#0A9EFD;stroke-width:2;" x1="41.3333" x2="271.8569" y1="356.5055" y2="356.5055"/><text fill="#0A9EFD" font-family="Arial" font-size="13" lengthAdjust="spacing" textLength="83.8398" x="117.6752" y="351.7507">Join a channel</text></g><g class="message" data-participant-1="SDK" data-participant-2="RTN"><polygon fill="#0A9EFD" points="527.0675,381.4543,537.0675,385.4543,527.0675,389.4543,531.0675,385.4543" style="stroke:#0A9EFD;stroke-width:1;"/><line style="stroke:#0A9EFD;stroke-width:2;" x1="277.8569" x2="533.0675" y1="385.4543" y2="385.4543"/><text fill="#0A9EFD" font-family="Arial" font-size="13" lengthAdjust="spacing" textLength="156.1206" x="330.4019" y="380.6994">Join the preloaded channel</text></g><g class="message" data-participant-1="RTN" data-participant-2="SDK"><polygon fill="#0A9EFD" points="288.8569,410.403,278.8569,414.403,288.8569,418.403,284.8569,414.403" style="stroke:#0A9EFD;stroke-width:1;"/><line style="stroke:#0A9EFD;stroke-width:2;" x1="282.8569" x2="538.0675" y1="414.403" y2="414.403"/><text fill="#0A9EFD" font-family="Arial" font-size="13" lengthAdjust="spacing" textLength="120.688" x="348.1182" y="409.6481">Notify channel joined</text></g><g class="message" data-participant-1="RTN" data-participant-2="SDK"><polygon fill="#0A9EFD" points="288.8569,439.3517,278.8569,443.3517,288.8569,447.3517,284.8569,443.3517" style="stroke:#0A9EFD;stroke-width:1;"/><line style="stroke:#0A9EFD;stroke-width:2;" x1="282.8569" x2="538.0675" y1="443.3517" y2="443.3517"/><text fill="#0A9EFD" font-family="Arial" font-size="13" lengthAdjust="spacing" textLength="112.728" x="352.0982" y="438.5968">Remote user joined</text></g><g class="message" data-participant-1="SDK" data-participant-2="SDK"><line style="stroke:#0A9EFD;stroke-width:2;" x1="277.8569" x2="319.8569" y1="472.3005" y2="472.3005"/><line style="stroke:#0A9EFD;stroke-width:2;" x1="319.8569" x2="319.8569" y1="472.3005" y2="485.3005"/><line style="stroke:#0A9EFD;stroke-width:2;" x1="278.8569" x2="319.8569" y1="485.3005" y2="485.3005"/><polygon fill="#0A9EFD" points="288.8569,481.3005,278.8569,485.3005,288.8569,489.3005,284.8569,485.3005" style="stroke:#0A9EFD;stroke-width:1;"/><text fill="#0A9EFD" font-family="Arial" font-size="13" lengthAdjust="spacing" textLength="162.5762" x="284.8569" y="467.5456">Decode the first video frame</text></g><g class="message" data-participant-1="SDK" data-participant-2="APP"><polygon fill="#0A9EFD" points="52.3333,510.2492,42.3333,514.2492,52.3333,518.2492,48.3333,514.2492" style="stroke:#0A9EFD;stroke-width:1;"/><line style="stroke:#0A9EFD;stroke-width:2;" x1="46.3333" x2="276.8569" y1="514.2492" y2="514.2492"/><text fill="#0A9EFD" font-family="Arial" font-size="13" lengthAdjust="spacing" textLength="122.0972" x="98.5465" y="509.4943">Shows the first frame</text></g><!--SRC=[VP51JW9144NtSugIXJkD2rU4a11aeIP8WBqfkWiexQcUTFU0U2WFuSciOOOHCBZjUl_N_zLNBCQLbW1NFk1hV6UvvJ9tMRRm7z0P54KdAp0aDboW9EZq8dzIz_wktxjEk72K-Xt028F992EneAf6EfqFOVRmV5dkS4SXrd85p-I3Ae- -J-VZxw_B9iRvqjOUIlvwQ1wuwLU-NHW6mgGD1LXYGZ44VWdrWf6iM2XJhiBLeWkFmedHwGf8QmBQ4wqqorR1bmMy58dpYjcm9Gz1DrDWMPri7abr8a1Zo57G4FPVV4O9i26Y8S707aw8II3dqIfbrYX2xezUew7QvpuTecsOjYS5zLFTxZm8-BeG9lOIgqCUcZvvbWiBpqR7I_QZwdv57LchDnXa2hGMOvzukMjdRoeZUq9Cwp9bf70ODulsumSotjPVjUGGKrDi6J1l_rKpwtNMVXkFk9geYlu0]--></g></svg>