<?xml version="1.0" encoding="us-ascii" standalone="no"?><svg xmlns="http://www.w3.org/2000/svg" xmlns:xlink="http://www.w3.org/1999/xlink" contentStyleType="text/css" height="588px" preserveAspectRatio="none" style="width:612px;height:588px;" version="1.1" viewBox="0 0 612 588" width="612px" zoomAndPan="magnify"><defs/><g><rect fill="none" height="586.8748" style="stroke:#0A9EFD;stroke-width:1.0;" width="610.3333" x="0" y="0"/><rect fill="#999999" fill-opacity="0.33333" height="576.8748" style="stroke:#0A9EFD;stroke-width:0.5;" width="50.6667" x="16" y="6"/><text fill="#0A9EFD" font-family="sans-serif" font-size="13" font-weight="bold" lengthAdjust="spacing" textLength="28" x="27.3333" y="18.5684">App</text><rect fill="#999999" fill-opacity="0.33333" height="576.8748" style="stroke:#0A9EFD;stroke-width:0.5;" width="74" x="246" y="6"/><text fill="#0A9EFD" font-family="sans-serif" font-size="13" font-weight="bold" lengthAdjust="spacing" textLength="68" x="249" y="18.5684">Video SDK</text><rect fill="#999999" fill-opacity="0.33333" height="576.8748" style="stroke:#0A9EFD;stroke-width:0.5;" width="107" x="499.3333" y="6"/><text fill="#0A9EFD" font-family="sans-serif" font-size="13" font-weight="bold" lengthAdjust="spacing" textLength="101" x="502.3333" y="18.5684">Agora SDRTN&#174;</text><rect fill="#0A9EFD" fill-opacity="0.06667" height="161.6924" style="stroke:#0A9EFD;stroke-width:2.0;" width="574.1667" x="10" y="141.8747"/><rect fill="#0A9EFD" fill-opacity="0.06667" height="203.6411" style="stroke:#0A9EFD;stroke-width:2.0;" width="574.1667" x="10" y="317.5671"/><line style="stroke:#0A9EFD;stroke-width:0.5;stroke-dasharray:5.0,5.0;" x1="41" x2="41" y1="66.9772" y2="538.2082"/><line style="stroke:#0A9EFD;stroke-width:0.5;stroke-dasharray:5.0,5.0;" x1="282.6667" x2="282.6667" y1="66.9772" y2="538.2082"/><line style="stroke:#0A9EFD;stroke-width:0.5;stroke-dasharray:5.0,5.0;" x1="552.5" x2="552.5" y1="66.9772" y2="538.2082"/><rect fill="none" height="40.6667" rx="2.5" ry="2.5" style="stroke:#0A9EFD;stroke-width:2.0;" width="42.6667" x="20" y="25.3105"/><path d="M29.1333,32.3105 C28.5333,32.3105 28,32.8439 28,33.4439 L28,57.8105 C28,58.4105 28.5333,58.9439 29.1333,58.9439 L50.1667,58.9439 C50.7667,58.9439 51.3,58.4105 51.3,57.8105 L51.3,33.4439 C51.3,32.8439 50.7667,32.3105 50.1667,32.3105 L29.1333,32.3105 M31.3333,35.6439 L48,35.6439 L48,52.3105 L31.3333,52.3105 L31.3333,35.6439 M39.6667,53.9772 C40.9333,53.9772 41.7667,55.3772 41.1333,56.4772 C40.5,57.5772 38.8667,57.5772 38.2,56.4772 C37.5667,55.3772 38.3667,53.9772 39.6667,53.9772 " fill="#0A9EFD" style="stroke:;stroke-width:0.0;stroke-dasharray:;"/><rect fill="none" height="40.6667" rx="2.5" ry="2.5" style="stroke:#0A9EFD;stroke-width:2.0;" width="42.6667" x="20" y="537.2082"/><path d="M29.1333,544.2082 C28.5333,544.2082 28,544.7415 28,545.3415 L28,569.7082 C28,570.3082 28.5333,570.8415 29.1333,570.8415 L50.1667,570.8415 C50.7667,570.8415 51.3,570.3082 51.3,569.7082 L51.3,545.3415 C51.3,544.7415 50.7667,544.2082 50.1667,544.2082 L29.1333,544.2082 M31.3333,547.5415 L48,547.5415 L48,564.2082 L31.3333,564.2082 L31.3333,547.5415 M39.6667,565.8748 C40.9333,565.8748 41.7667,567.2748 41.1333,568.3748 C40.5,569.4748 38.8667,569.4748 38.2,568.3748 C37.5667,567.2748 38.3667,565.8748 39.6667,565.8748 " fill="#0A9EFD" style="stroke:;stroke-width:0.0;stroke-dasharray:;"/><rect fill="none" height="40.6667" rx="2.5" ry="2.5" style="stroke:#0A9EFD;stroke-width:2.0;" width="42.6667" x="261.6667" y="25.3105"/><path d="M269.6667,32.3105 L269.6667,45.6439 L283,45.6439 L283,32.3105 L269.6667,32.3105 M286.3333,38.9772 L286.3333,48.9772 L276.3333,48.9772 L276.3333,52.3105 L289.6667,52.3105 L289.6667,38.9772 L286.3333,38.9772 M293,45.6439 L293,55.6439 L283,55.6439 L283,58.9772 L296.3333,58.9772 L296.3333,45.6439 L293,45.6439 " fill="#0A9EFD" style="stroke:;stroke-width:0.0;stroke-dasharray:;"/><rect fill="none" height="40.6667" rx="2.5" ry="2.5" style="stroke:#0A9EFD;stroke-width:2.0;" width="42.6667" x="261.6667" y="537.2082"/><path d="M269.6667,544.2082 L269.6667,557.5415 L283,557.5415 L283,544.2082 L269.6667,544.2082 M286.3333,550.8748 L286.3333,560.8748 L276.3333,560.8748 L276.3333,564.2082 L289.6667,564.2082 L289.6667,550.8748 L286.3333,550.8748 M293,557.5415 L293,567.5415 L283,567.5415 L283,570.8748 L296.3333,570.8748 L296.3333,557.5415 L293,557.5415 " fill="#0A9EFD" style="stroke:;stroke-width:0.0;stroke-dasharray:;"/><rect fill="none" height="40.6667" rx="2.5" ry="2.5" style="stroke:#0A9EFD;stroke-width:2.0;" width="42.6667" x="531.5" y="25.3105"/><path d="M554.5,32.3105 C550.4667,32.3105 546.9333,35.1772 546.1667,38.9772 C542.5,38.9772 539.5,41.9772 539.5,45.6439 C539.5,49.3105 542.5,52.3105 546.1667,52.3105 L561.1667,52.3105 C563.9333,52.3105 566.1667,50.0772 566.1667,47.3105 C566.1667,45.1439 564.7667,43.0105 562.8333,42.3105 L562.8333,40.6439 C562.8333,36.0439 559.1,32.3105 554.5,32.3105 " fill="#0A9EFD" style="stroke:;stroke-width:0.0;stroke-dasharray:;"/><rect fill="none" height="40.6667" rx="2.5" ry="2.5" style="stroke:#0A9EFD;stroke-width:2.0;" width="42.6667" x="531.5" y="537.2082"/><path d="M554.5,544.2082 C550.4667,544.2082 546.9333,547.0748 546.1667,550.8748 C542.5,550.8748 539.5,553.8748 539.5,557.5415 C539.5,561.2082 542.5,564.2082 546.1667,564.2082 L561.1667,564.2082 C563.9333,564.2082 566.1667,561.9748 566.1667,559.2082 C566.1667,557.0415 564.7667,554.9082 562.8333,554.2082 L562.8333,552.5415 C562.8333,547.9415 559.1,544.2082 554.5,544.2082 " fill="#0A9EFD" style="stroke:;stroke-width:0.0;stroke-dasharray:;"/><polygon fill="#0A9EFD" points="271,93.9259,281,97.9259,271,101.9259,275,97.9259" style="stroke:#0A9EFD;stroke-width:1.0;"/><line style="stroke:#0A9EFD;stroke-width:2.0;" x1="41.3333" x2="277" y1="97.9259" y2="97.9259"/><text fill="#0A9EFD" font-family="Arial" font-size="13" lengthAdjust="spacing" textLength="206" x="59.1667" y="93.1711">Create an instance of Agora Engine</text><polygon fill="#0A9EFD" points="540.8333,122.8747,550.8333,126.8747,540.8333,130.8747,544.8333,126.8747" style="stroke:#0A9EFD;stroke-width:1.0;"/><line style="stroke:#0A9EFD;stroke-width:2.0;" x1="283" x2="546.8333" y1="126.8747" y2="126.8747"/><text fill="#0A9EFD" font-family="Arial" font-size="13" lengthAdjust="spacing" textLength="165" x="335.4167" y="122.1198">Initialize the engine instance</text><path d="M10,141.8747 L199,141.8747 L199,148.8234 L189,158.8234 L10,158.8234 L10,141.8747 " fill="#EEEEEE" style="stroke:#0A9EFD;stroke-width:1.5;"/><rect fill="none" height="161.6924" style="stroke:#0A9EFD;stroke-width:2.0;" width="574.1667" x="10" y="141.8747"/><text fill="#000000" font-family="Arial" font-size="13" lengthAdjust="spacing" textLength="144" x="25" y="155.0685">Optimize video rendering</text><polygon fill="#0A9EFD" points="271,175.7721,281,179.7721,271,183.7721,275,179.7721" style="stroke:#0A9EFD;stroke-width:1.0;"/><line style="stroke:#0A9EFD;stroke-width:2.0;" x1="41.3333" x2="277" y1="179.7721" y2="179.7721"/><text fill="#0A9EFD" font-family="Arial" font-size="13" lengthAdjust="spacing" textLength="203" x="60.6667" y="175.0173">Enable accelerated video rendering</text><polygon fill="#0A9EFD" points="271,204.7209,281,208.7209,271,212.7209,275,208.7209" style="stroke:#0A9EFD;stroke-width:1.0;"/><line style="stroke:#0A9EFD;stroke-width:2.0;" x1="41.3333" x2="277" y1="208.7209" y2="208.7209"/><text fill="#0A9EFD" font-family="Arial" font-size="13" lengthAdjust="spacing" textLength="119" x="102.6667" y="203.966">Set a video scenario</text><polygon fill="#0A9EFD" points="271,233.6696,281,237.6696,271,241.6696,275,237.6696" style="stroke:#0A9EFD;stroke-width:1.0;"/><line style="stroke:#0A9EFD;stroke-width:2.0;" x1="41.3333" x2="277" y1="237.6696" y2="237.6696"/><text fill="#0A9EFD" font-family="Arial" font-size="13" lengthAdjust="spacing" textLength="104" x="110.1667" y="232.9147">Preload a channel</text><polygon fill="#0A9EFD" points="271,262.6183,281,266.6183,271,270.6183,275,266.6183" style="stroke:#0A9EFD;stroke-width:1.0;"/><line style="stroke:#0A9EFD;stroke-width:2.0;" x1="41.3333" x2="277" y1="266.6183" y2="266.6183"/><text fill="#0A9EFD" font-family="Arial" font-size="13" lengthAdjust="spacing" textLength="158" x="83.1667" y="261.8634">Set up a remote video view</text><polygon fill="#0A9EFD" points="540.8333,291.5671,550.8333,295.5671,540.8333,299.5671,544.8333,295.5671" style="stroke:#0A9EFD;stroke-width:1.0;"/><line style="stroke:#0A9EFD;stroke-width:2.0;" x1="283" x2="546.8333" y1="295.5671" y2="295.5671"/><text fill="#0A9EFD" font-family="Arial" font-size="13" lengthAdjust="spacing" textLength="206" x="314.9167" y="290.8122">Apply video rendering optimizations</text><path d="M10,317.5671 L139,317.5671 L139,324.5158 L129,334.5158 L10,334.5158 L10,317.5671 " fill="#EEEEEE" style="stroke:#0A9EFD;stroke-width:1.5;"/><rect fill="none" height="203.6411" style="stroke:#0A9EFD;stroke-width:2.0;" width="574.1667" x="10" y="317.5671"/><text fill="#000000" font-family="Arial" font-size="13" lengthAdjust="spacing" textLength="84" x="25" y="330.7609">Join a channel</text><polygon fill="#0A9EFD" points="271,351.4645,281,355.4645,271,359.4645,275,355.4645" style="stroke:#0A9EFD;stroke-width:1.0;"/><line style="stroke:#0A9EFD;stroke-width:2.0;" x1="41.3333" x2="277" y1="355.4645" y2="355.4645"/><text fill="#0A9EFD" font-family="Arial" font-size="13" lengthAdjust="spacing" textLength="84" x="120.1667" y="350.7096">Join a channel</text><polygon fill="#0A9EFD" points="540.8333,380.4132,550.8333,384.4132,540.8333,388.4132,544.8333,384.4132" style="stroke:#0A9EFD;stroke-width:1.0;"/><line style="stroke:#0A9EFD;stroke-width:2.0;" x1="283" x2="546.8333" y1="384.4132" y2="384.4132"/><text fill="#0A9EFD" font-family="Arial" font-size="13" lengthAdjust="spacing" textLength="155" x="340.4167" y="379.6584">Join the preloaded channel</text><polygon fill="#0A9EFD" points="294,409.362,284,413.362,294,417.362,290,413.362" style="stroke:#0A9EFD;stroke-width:1.0;"/><line style="stroke:#0A9EFD;stroke-width:2.0;" x1="288" x2="551.8333" y1="413.362" y2="413.362"/><text fill="#0A9EFD" font-family="Arial" font-size="13" lengthAdjust="spacing" textLength="121" x="357.4167" y="408.6071">Notify channel joined</text><polygon fill="#0A9EFD" points="294,438.3107,284,442.3107,294,446.3107,290,442.3107" style="stroke:#0A9EFD;stroke-width:1.0;"/><line style="stroke:#0A9EFD;stroke-width:2.0;" x1="288" x2="551.8333" y1="442.3107" y2="442.3107"/><text fill="#0A9EFD" font-family="Arial" font-size="13" lengthAdjust="spacing" textLength="112" x="361.9167" y="437.5558">Remote user joined</text><line style="stroke:#0A9EFD;stroke-width:2.0;" x1="283" x2="325" y1="471.2594" y2="471.2594"/><line style="stroke:#0A9EFD;stroke-width:2.0;" x1="325" x2="325" y1="471.2594" y2="484.2594"/><line style="stroke:#0A9EFD;stroke-width:2.0;" x1="284" x2="325" y1="484.2594" y2="484.2594"/><polygon fill="#0A9EFD" points="294,480.2594,284,484.2594,294,488.2594,290,484.2594" style="stroke:#0A9EFD;stroke-width:1.0;"/><text fill="#0A9EFD" font-family="Arial" font-size="13" lengthAdjust="spacing" textLength="164" x="290" y="466.5046">Decode the first video frame</text><polygon fill="#0A9EFD" points="52.3333,509.2082,42.3333,513.2082,52.3333,517.2082,48.3333,513.2082" style="stroke:#0A9EFD;stroke-width:1.0;"/><line style="stroke:#0A9EFD;stroke-width:2.0;" x1="46.3333" x2="282" y1="513.2082" y2="513.2082"/><text fill="#0A9EFD" font-family="Arial" font-size="13" lengthAdjust="spacing" textLength="124" x="100.1667" y="508.4533">Shows the first frame</text><!--SRC=[VP7DJW8n4CVl-nJZ7hnfF7WYX8G81pL10iQh6RgpC5gccxOBuaFv43wPitH1mE2ryvl_n_I2nTYw8C2vy_WQtbckkLxQB9kv3yZxLPLd5Vh8XYkK27aty2TrRczwtSk8CqknbmC6w8_76Ka1kjMkld113gQ3n_C25ZVaGn9Gy4IWtoJIzydpwFlhl8YnhYwIXfA_6fe8hdgDRWVkF67KZW8i8Q8O0bT2CXZAd8KovHfS9JfmBnmPhLf0N13GbjYlPjdSkxg2fohoic5MswPUdScpp8-SXz8S2T0OikGrHF4lFgK8s1B1aA1d1qV4s9DrM2Xb5YX2zi- -HaELNxguYxPYMXyLr6-rczCWu58XZEmaD8VSDNrmB6SCJqQ79jjHSxygHTRgBGQP0dk9aOjSRlQpDrsZueYOf39r8ByRjqRRyO2CAz9NbUn3R8kL7fVxVzNCUfs5MuS3BX5DqHy0]--></g></svg>