<svg xmlns="http://www.w3.org/2000/svg" xmlns:xlink="http://www.w3.org/1999/xlink" contentStyleType="text/css" data-diagram-type="SEQUENCE" height="678px" preserveAspectRatio="none" style="width:595px;height:678px;" version="1.1" viewBox="0 0 595 678" width="595px" zoomAndPan="magnify"><defs/><g><rect fill="none" height="676.762" style="stroke:#0A9EFD;stroke-width:1;" width="593.1322" x="0" y="0"/><rect fill="#999999" fill-opacity="0.33333" height="666.762" style="stroke:#0A9EFD;stroke-width:0.5;" width="50.6667" x="16" y="6"/><text fill="#0A9EFD" font-family="sans-serif" font-size="13" font-weight="bold" lengthAdjust="spacing" textLength="25.27" x="28.6983" y="19.4951">App</text><rect fill="#999999" fill-opacity="0.33333" height="666.762" style="stroke:#0A9EFD;stroke-width:0.5;" width="63.7764" x="245.9688" y="6"/><text fill="#0A9EFD" font-family="sans-serif" font-size="13" font-weight="bold" lengthAdjust="spacing" textLength="57.7764" x="248.9688" y="19.4951">RTC SDK</text><rect fill="#999999" fill-opacity="0.33333" height="666.762" style="stroke:#0A9EFD;stroke-width:0.5;" width="101.5259" x="487.6063" y="6"/><text fill="#0A9EFD" font-family="sans-serif" font-size="13" font-weight="bold" lengthAdjust="spacing" textLength="95.5259" x="490.6063" y="19.4951">Agora SDRTN&#174;</text><rect fill="#0A9EFD" fill-opacity="0.06667" height="132.7437" style="stroke:#0A9EFD;stroke-width:2;" width="559.7026" x="10" y="142.9157"/><rect fill="#0A9EFD" fill-opacity="0.06667" height="132.7437" style="stroke:#0A9EFD;stroke-width:2;" width="559.7026" x="10" y="289.6593"/><rect fill="#0A9EFD" fill-opacity="0.06667" height="174.6924" style="stroke:#0A9EFD;stroke-width:2;" width="559.7026" x="10" y="436.403"/><g><title>&lt;size:40&gt;&lt;&amp;tablet&gt;</title><rect fill="#000000" fill-opacity="0.00000" height="560.0771" width="8" x="37.3333" y="68.0182"/><line style="stroke:#0A9EFD;stroke-width:0.5;stroke-dasharray:5.0,5.0;" x1="41" x2="41" y1="68.0182" y2="628.0954"/></g><g><title>&lt;size:40&gt;&lt;&amp;layers&gt;</title><rect fill="#000000" fill-opacity="0.00000" height="560.0771" width="8" x="273.8569" y="68.0182"/><line style="stroke:#0A9EFD;stroke-width:0.5;stroke-dasharray:5.0,5.0;" x1="277.5236" x2="277.5236" y1="68.0182" y2="628.0954"/></g><g><title>&lt;size:40&gt;&lt;&amp;cloud&gt;</title><rect fill="#000000" fill-opacity="0.00000" height="560.0771" width="8" x="534.3692" y="68.0182"/><line style="stroke:#0A9EFD;stroke-width:0.5;stroke-dasharray:5.0,5.0;" x1="538.0359" x2="538.0359" y1="68.0182" y2="628.0954"/></g><g class="participant participant-head" data-participant="APP"><rect fill="none" height="40.6667" rx="2.5" ry="2.5" style="stroke:#0A9EFD;stroke-width:2;" width="42.6667" x="20" y="26.3516"/><path d="M29.1333,33.3516 C28.5333,33.3516 28,33.8849 28,34.4849 L28,58.8516 C28,59.4516 28.5333,59.9849 29.1333,59.9849 L50.1667,59.9849 C50.7667,59.9849 51.3,59.4516 51.3,58.8516 L51.3,34.4849 C51.3,33.8849 50.7667,33.3516 50.1667,33.3516 L29.1333,33.3516 M31.3333,36.6849 L48,36.6849 L48,53.3516 L31.3333,53.3516 L31.3333,36.6849 M39.6667,55.0182 C40.9333,55.0182 41.7667,56.4182 41.1333,57.5182 C40.5,58.6182 38.8667,58.6182 38.2,57.5182 C37.5667,56.4182 38.3667,55.0182 39.6667,55.0182" fill="#0A9EFD"/></g><g class="participant participant-tail" data-participant="APP"><rect fill="none" height="40.6667" rx="2.5" ry="2.5" style="stroke:#0A9EFD;stroke-width:2;" width="42.6667" x="20" y="627.0954"/><path d="M29.1333,634.0954 C28.5333,634.0954 28,634.6287 28,635.2287 L28,659.5954 C28,660.1954 28.5333,660.7287 29.1333,660.7287 L50.1667,660.7287 C50.7667,660.7287 51.3,660.1954 51.3,659.5954 L51.3,635.2287 C51.3,634.6287 50.7667,634.0954 50.1667,634.0954 L29.1333,634.0954 M31.3333,637.4287 L48,637.4287 L48,654.0954 L31.3333,654.0954 L31.3333,637.4287 M39.6667,655.762 C40.9333,655.762 41.7667,657.162 41.1333,658.262 C40.5,659.362 38.8667,659.362 38.2,658.262 C37.5667,657.162 38.3667,655.762 39.6667,655.762" fill="#0A9EFD"/></g><g class="participant participant-head" data-participant="SDK"><rect fill="none" height="40.6667" rx="2.5" ry="2.5" style="stroke:#0A9EFD;stroke-width:2;" width="42.6667" x="256.5236" y="26.3516"/><path d="M264.5236,33.3516 L264.5236,46.6849 L277.8569,46.6849 L277.8569,33.3516 L264.5236,33.3516 M281.1903,40.0182 L281.1903,50.0182 L271.1903,50.0182 L271.1903,53.3516 L284.5236,53.3516 L284.5236,40.0182 L281.1903,40.0182 M287.8569,46.6849 L287.8569,56.6849 L277.8569,56.6849 L277.8569,60.0182 L291.1903,60.0182 L291.1903,46.6849 L287.8569,46.6849" fill="#0A9EFD"/></g><g class="participant participant-tail" data-participant="SDK"><rect fill="none" height="40.6667" rx="2.5" ry="2.5" style="stroke:#0A9EFD;stroke-width:2;" width="42.6667" x="256.5236" y="627.0954"/><path d="M264.5236,634.0954 L264.5236,647.4287 L277.8569,647.4287 L277.8569,634.0954 L264.5236,634.0954 M281.1903,640.762 L281.1903,650.762 L271.1903,650.762 L271.1903,654.0954 L284.5236,654.0954 L284.5236,640.762 L281.1903,640.762 M287.8569,647.4287 L287.8569,657.4287 L277.8569,657.4287 L277.8569,660.762 L291.1903,660.762 L291.1903,647.4287 L287.8569,647.4287" fill="#0A9EFD"/></g><g class="participant participant-head" data-participant="RTN"><rect fill="none" height="40.6667" rx="2.5" ry="2.5" style="stroke:#0A9EFD;stroke-width:2;" width="42.6667" x="517.0359" y="26.3516"/><path d="M540.0359,36.6849 C536.0026,36.6849 532.4692,39.5516 531.7026,43.3516 C528.0359,43.3516 525.0359,46.3516 525.0359,50.0182 C525.0359,53.6849 528.0359,56.6849 531.7026,56.6849 L546.7026,56.6849 C549.4692,56.6849 551.7026,54.4516 551.7026,51.6849 C551.7026,49.5182 550.3026,47.3849 548.3692,46.6849 L548.3692,45.0182 C548.3692,40.4182 544.6359,36.6849 540.0359,36.6849" fill="#0A9EFD"/></g><g class="participant participant-tail" data-participant="RTN"><rect fill="none" height="40.6667" rx="2.5" ry="2.5" style="stroke:#0A9EFD;stroke-width:2;" width="42.6667" x="517.0359" y="627.0954"/><path d="M540.0359,637.4287 C536.0026,637.4287 532.4692,640.2954 531.7026,644.0954 C528.0359,644.0954 525.0359,647.0954 525.0359,650.762 C525.0359,654.4287 528.0359,657.4287 531.7026,657.4287 L546.7026,657.4287 C549.4692,657.4287 551.7026,655.1954 551.7026,652.4287 C551.7026,650.262 550.3026,648.1287 548.3692,647.4287 L548.3692,645.762 C548.3692,641.162 544.6359,637.4287 540.0359,637.4287" fill="#0A9EFD"/></g><g class="message" data-participant-1="APP" data-participant-2="SDK"><polygon fill="#0A9EFD" points="265.8569,94.967,275.8569,98.967,265.8569,102.967,269.8569,98.967" style="stroke:#0A9EFD;stroke-width:1;"/><line style="stroke:#0A9EFD;stroke-width:2;" x1="41.3333" x2="271.8569" y1="98.967" y2="98.967"/><text fill="#0A9EFD" font-family="Arial" font-size="13" lengthAdjust="spacing" textLength="205.9688" x="56.6108" y="94.2121">Create an instance of Agora Engine</text></g><g class="message" data-participant-1="SDK" data-participant-2="RTN"><polygon fill="#0A9EFD" points="526.3692,123.9157,536.3692,127.9157,526.3692,131.9157,530.3692,127.9157" style="stroke:#0A9EFD;stroke-width:1;"/><line style="stroke:#0A9EFD;stroke-width:2;" x1="277.8569" x2="532.3692" y1="127.9157" y2="127.9157"/><text fill="#0A9EFD" font-family="Arial" font-size="13" lengthAdjust="spacing" textLength="163.3315" x="326.4473" y="123.1608">Initialize the engine instance</text></g><path d="M10,142.9157 L216.8779,142.9157 L216.8779,149.8644 L206.8779,159.8644 L10,159.8644 L10,142.9157" fill="#EEEEEE" style="stroke:#0A9EFD;stroke-width:1.5;"/><rect fill="none" height="132.7437" style="stroke:#0A9EFD;stroke-width:2;" width="559.7026" x="10" y="142.9157"/><text fill="#000000" font-family="Arial" font-size="13" lengthAdjust="spacing" textLength="161.8779" x="25" y="156.1095">Accelerated video rendering</text><g class="message" data-participant-1="APP" data-participant-2="SDK"><polygon fill="#0A9EFD" points="265.8569,176.8132,275.8569,180.8132,265.8569,184.8132,269.8569,180.8132" style="stroke:#0A9EFD;stroke-width:1;"/><line style="stroke:#0A9EFD;stroke-width:2;" x1="41.3333" x2="271.8569" y1="180.8132" y2="180.8132"/><text fill="#0A9EFD" font-family="Arial" font-size="13" lengthAdjust="spacing" textLength="204.5278" x="57.3312" y="176.0583">Enable accelerated video rendering</text></g><g class="message" data-participant-1="SDK" data-participant-2="RTN"><polygon fill="#0A9EFD" points="526.3692,205.7619,536.3692,209.7619,526.3692,213.7619,530.3692,209.7619" style="stroke:#0A9EFD;stroke-width:1;"/><line style="stroke:#0A9EFD;stroke-width:2;" x1="277.8569" x2="532.3692" y1="209.7619" y2="209.7619"/><text fill="#0A9EFD" font-family="Arial" font-size="13" lengthAdjust="spacing" textLength="204.5278" x="305.8492" y="205.007">Enable accelerated video rendering</text></g><g class="message" data-participant-1="APP" data-participant-2="SDK"><polygon fill="#0A9EFD" points="265.8569,234.7106,275.8569,238.7106,265.8569,242.7106,269.8569,238.7106" style="stroke:#0A9EFD;stroke-width:1;"/><line style="stroke:#0A9EFD;stroke-width:2;" x1="41.3333" x2="271.8569" y1="238.7106" y2="238.7106"/><text fill="#0A9EFD" font-family="Arial" font-size="13" lengthAdjust="spacing" textLength="106.9517" x="106.1193" y="233.9557">Set video scenario</text></g><g class="message" data-participant-1="SDK" data-participant-2="RTN"><polygon fill="#0A9EFD" points="526.3692,263.6593,536.3692,267.6593,526.3692,271.6593,530.3692,267.6593" style="stroke:#0A9EFD;stroke-width:1;"/><line style="stroke:#0A9EFD;stroke-width:2;" x1="277.8569" x2="532.3692" y1="267.6593" y2="267.6593"/><text fill="#0A9EFD" font-family="Arial" font-size="13" lengthAdjust="spacing" textLength="106.9517" x="354.6372" y="262.9045">Set video scenario</text></g><path d="M10,289.6593 L138.8398,289.6593 L138.8398,296.6081 L128.8398,306.6081 L10,306.6081 L10,289.6593" fill="#EEEEEE" style="stroke:#0A9EFD;stroke-width:1.5;"/><rect fill="none" height="132.7437" style="stroke:#0A9EFD;stroke-width:2;" width="559.7026" x="10" y="289.6593"/><text fill="#000000" font-family="Arial" font-size="13" lengthAdjust="spacing" textLength="83.8398" x="25" y="302.8532">Join a channel</text><g class="message" data-participant-1="APP" data-participant-2="SDK"><polygon fill="#0A9EFD" points="265.8569,323.5568,275.8569,327.5568,265.8569,331.5568,269.8569,327.5568" style="stroke:#0A9EFD;stroke-width:1;"/><line style="stroke:#0A9EFD;stroke-width:2;" x1="41.3333" x2="271.8569" y1="327.5568" y2="327.5568"/><text fill="#0A9EFD" font-family="Arial" font-size="13" lengthAdjust="spacing" textLength="83.8398" x="117.6752" y="322.8019">Join a channel</text></g><g class="message" data-participant-1="SDK" data-participant-2="RTN"><polygon fill="#0A9EFD" points="526.3692,352.5055,536.3692,356.5055,526.3692,360.5055,530.3692,356.5055" style="stroke:#0A9EFD;stroke-width:1;"/><line style="stroke:#0A9EFD;stroke-width:2;" x1="277.8569" x2="532.3692" y1="356.5055" y2="356.5055"/><text fill="#0A9EFD" font-family="Arial" font-size="13" lengthAdjust="spacing" textLength="94.6816" x="360.7723" y="351.7507">Join the channel</text></g><g class="message" data-participant-1="RTN" data-participant-2="SDK"><polygon fill="#0A9EFD" points="288.8569,381.4543,278.8569,385.4543,288.8569,389.4543,284.8569,385.4543" style="stroke:#0A9EFD;stroke-width:1;"/><line style="stroke:#0A9EFD;stroke-width:2;" x1="282.8569" x2="537.3692" y1="385.4543" y2="385.4543"/><text fill="#0A9EFD" font-family="Arial" font-size="13" lengthAdjust="spacing" textLength="120.688" x="347.7691" y="380.6994">Notify channel joined</text></g><g class="message" data-participant-1="RTN" data-participant-2="SDK"><polygon fill="#0A9EFD" points="288.8569,410.403,278.8569,414.403,288.8569,418.403,284.8569,414.403" style="stroke:#0A9EFD;stroke-width:1;"/><line style="stroke:#0A9EFD;stroke-width:2;" x1="282.8569" x2="537.3692" y1="414.403" y2="414.403"/><text fill="#0A9EFD" font-family="Arial" font-size="13" lengthAdjust="spacing" textLength="112.728" x="351.7491" y="409.6481">Remote user joined</text></g><path d="M10,436.403 L286.9561,436.403 L286.9561,443.3517 L276.9561,453.3517 L10,453.3517 L10,436.403" fill="#EEEEEE" style="stroke:#0A9EFD;stroke-width:1.5;"/><rect fill="none" height="174.6924" style="stroke:#0A9EFD;stroke-width:2;" width="559.7026" x="10" y="436.403"/><text fill="#000000" font-family="Arial" font-size="13" lengthAdjust="spacing" textLength="231.9561" x="25" y="449.5968">Decode and display the first video frame</text><g class="message" data-participant-1="APP" data-participant-2="SDK"><polygon fill="#0A9EFD" points="265.8569,470.3005,275.8569,474.3005,265.8569,478.3005,269.8569,474.3005" style="stroke:#0A9EFD;stroke-width:1;"/><line style="stroke:#0A9EFD;stroke-width:2;" x1="41.3333" x2="271.8569" y1="474.3005" y2="474.3005"/><text fill="#0A9EFD" font-family="Arial" font-size="13" lengthAdjust="spacing" textLength="142.3525" x="88.4189" y="469.5456">Setup remote video view</text></g><g class="message" data-participant-1="SDK" data-participant-2="RTN"><polygon fill="#0A9EFD" points="526.3692,499.2492,536.3692,503.2492,526.3692,507.2492,530.3692,503.2492" style="stroke:#0A9EFD;stroke-width:1;"/><line style="stroke:#0A9EFD;stroke-width:2;" x1="277.8569" x2="532.3692" y1="503.2492" y2="503.2492"/><text fill="#0A9EFD" font-family="Arial" font-size="13" lengthAdjust="spacing" textLength="151.0234" x="332.6014" y="498.4943">Subscribe to remote video</text></g><g class="message" data-participant-1="RTN" data-participant-2="SDK"><polygon fill="#0A9EFD" points="288.8569,528.1979,278.8569,532.1979,288.8569,536.1979,284.8569,532.1979" style="stroke:#0A9EFD;stroke-width:1;"/><line style="stroke:#0A9EFD;stroke-width:2;" x1="282.8569" x2="537.3692" y1="532.1979" y2="532.1979"/><text fill="#0A9EFD" font-family="Arial" font-size="13" lengthAdjust="spacing" textLength="169.0698" x="323.5782" y="527.443">Receive remote video stream</text></g><g class="message" data-participant-1="SDK" data-participant-2="SDK"><line style="stroke:#0A9EFD;stroke-width:2;" x1="277.8569" x2="319.8569" y1="561.1466" y2="561.1466"/><line style="stroke:#0A9EFD;stroke-width:2;" x1="319.8569" x2="319.8569" y1="561.1466" y2="574.1466"/><line style="stroke:#0A9EFD;stroke-width:2;" x1="278.8569" x2="319.8569" y1="574.1466" y2="574.1466"/><polygon fill="#0A9EFD" points="288.8569,570.1466,278.8569,574.1466,288.8569,578.1466,284.8569,574.1466" style="stroke:#0A9EFD;stroke-width:1;"/><text fill="#0A9EFD" font-family="Arial" font-size="13" lengthAdjust="spacing" textLength="162.5762" x="284.8569" y="556.3918">Decode the first video frame</text></g><g class="message" data-participant-1="SDK" data-participant-2="APP"><polygon fill="#0A9EFD" points="52.3333,599.0954,42.3333,603.0954,52.3333,607.0954,48.3333,603.0954" style="stroke:#0A9EFD;stroke-width:1;"/><line style="stroke:#0A9EFD;stroke-width:2;" x1="46.3333" x2="276.8569" y1="603.0954" y2="603.0954"/><text fill="#0A9EFD" font-family="Arial" font-size="13" lengthAdjust="spacing" textLength="122.0972" x="98.5465" y="598.3405">Shows the first frame</text></g><!--SRC=[ZP9DJiCm48NtFiMG1JiG2rPLLIbgkm2agcgxHuupIGSIExATbd8e3i79cFmq984YjdxVU_FdAz8gAsC4cHehdzqhwLigyqo8oBn141P580ffFIagfFOGJ1szu-J-RZQzzZBAqCy2a0x2zLgWZe5ThNMpcyDsyNJPdiaJMjVO6HpPmweVVj_iLfyVbqDKPiguoM3oEuFxWPjPbJk1kKNfUK8Df9sNMY6O19e2IvsIHi5SXNF411uqUP8Pbm2_Hy2QwAn2fDQK1OHAOOQMWsCuK8m6B1T7IpeT55_gQaiW_y3xnV-1zzEtw5lTATJIae51t4-zMj5vXaT36YIelTGQiq7mIEfdrbArcLO4mS-TSMKy9QTEUs4Oum6nmTpmEKg7zYptUbgWCjLtv4F6v0h-97MjXAmxZv9OcUDu3MorJN037GYFmrMKaLEM8hwg6Q2ZvXJI0OTPplCFohlDrc3Rv- -zjI2to7NtvkXwN4DK4ty1]--></g></svg>