<?xml version="1.0" encoding="us-ascii" standalone="no"?><svg xmlns="http://www.w3.org/2000/svg" xmlns:xlink="http://www.w3.org/1999/xlink" contentStyleType="text/css" height="675px" preserveAspectRatio="none" style="width:486px;height:675px;" version="1.1" viewBox="0 0 486 675" width="486px" zoomAndPan="magnify"><defs/><g><rect fill="none" height="673.4282" style="stroke:#0A9EFD;stroke-width:1.0;" width="484" x="0" y="0"/><rect fill="#999999" fill-opacity="0.33333" height="663.4282" style="stroke:#0A9EFD;stroke-width:0.5;" width="90" x="85" y="6"/><text fill="#0A9EFD" font-family="sans-serif" font-size="13" font-weight="bold" lengthAdjust="spacing" textLength="62" x="99" y="18.5684">Your app</text><rect fill="#999999" fill-opacity="0.33333" height="663.4282" style="stroke:#0A9EFD;stroke-width:0.5;" width="80" x="394" y="6"/><text fill="#0A9EFD" font-family="sans-serif" font-size="13" font-weight="bold" lengthAdjust="spacing" textLength="41" x="413.5" y="18.5684">Agora</text><rect fill="#0A9EFD" fill-opacity="0.06667" height="129.7949" style="stroke:#0A9EFD;stroke-width:2.0;" width="401" x="79" y="103.0986"/><rect fill="#0A9EFD" fill-opacity="0.06667" height="161.6924" style="stroke:#0A9EFD;stroke-width:2.0;" width="470" x="10" y="246.8936"/><rect fill="#0A9EFD" fill-opacity="0.06667" height="145.7437" style="stroke:#0A9EFD;stroke-width:2.0;" width="470" x="10" y="422.5859"/><line style="stroke:#0A9EFD;stroke-width:0.5;stroke-dasharray:5.0,5.0;" x1="38" x2="38" y1="86.0986" y2="585.3296"/><line style="stroke:#0A9EFD;stroke-width:0.5;stroke-dasharray:5.0,5.0;" x1="130" x2="130" y1="86.0986" y2="585.3296"/><line style="stroke:#0A9EFD;stroke-width:0.5;stroke-dasharray:5.0,5.0;" x1="434" x2="434" y1="86.0986" y2="585.3296"/><text fill="#0A9EFD" font-family="Arial" font-size="14" lengthAdjust="spacing" textLength="30" x="20" y="83.1318">User</text><ellipse cx="38" cy="16" fill="none" rx="8" ry="8" style="stroke:#0A9EFD;stroke-width:3.0;"/><path d="M38,24 L38,51 M25,32 L51,32 M38,51 L25,66 M38,51 L51,66 " fill="none" style="stroke:#0A9EFD;stroke-width:3.0;"/><text fill="#0A9EFD" font-family="Arial" font-size="14" lengthAdjust="spacing" textLength="30" x="20" y="597.4614">User</text><ellipse cx="38" cy="611.4282" fill="none" rx="8" ry="8" style="stroke:#0A9EFD;stroke-width:3.0;"/><path d="M38,619.4282 L38,646.4282 M25,627.4282 L51,627.4282 M38,646.4282 L25,661.4282 M38,646.4282 L51,661.4282 " fill="none" style="stroke:#0A9EFD;stroke-width:3.0;"/><rect fill="none" height="30.0986" rx="2.5" ry="2.5" style="stroke:#0A9EFD;stroke-width:2.0;" width="82" x="89" y="55"/><text fill="#0A9EFD" font-family="Arial" font-size="14" lengthAdjust="spacing" textLength="68" x="96" y="75.1318">Video SDK</text><rect fill="none" height="30.0986" rx="2.5" ry="2.5" style="stroke:#0A9EFD;stroke-width:2.0;" width="82" x="89" y="584.3296"/><text fill="#0A9EFD" font-family="Arial" font-size="14" lengthAdjust="spacing" textLength="68" x="96" y="604.4614">Video SDK</text><rect fill="none" height="30.0986" rx="2.5" ry="2.5" style="stroke:#0A9EFD;stroke-width:2.0;" width="72" x="398" y="55"/><text fill="#0A9EFD" font-family="Arial" font-size="14" lengthAdjust="spacing" textLength="58" x="405" y="75.1318">SDRTN&#174;</text><rect fill="none" height="30.0986" rx="2.5" ry="2.5" style="stroke:#0A9EFD;stroke-width:2.0;" width="72" x="398" y="584.3296"/><text fill="#0A9EFD" font-family="Arial" font-size="14" lengthAdjust="spacing" textLength="58" x="405" y="604.4614">SDRTN&#174;</text><path d="M79,103.0986 L310,103.0986 L310,110.0474 L300,120.0474 L79,120.0474 L79,103.0986 " fill="#EEEEEE" style="stroke:#0A9EFD;stroke-width:1.5;"/><rect fill="none" height="129.7949" style="stroke:#0A9EFD;stroke-width:2.0;" width="401" x="79" y="103.0986"/><text fill="#000000" font-family="Arial" font-size="13" lengthAdjust="spacing" textLength="186" x="94" y="116.2925">Set up the music content center</text><line style="stroke:#0A9EFD;stroke-width:2.0;" x1="130" x2="172" y1="140.9961" y2="140.9961"/><line style="stroke:#0A9EFD;stroke-width:2.0;" x1="172" x2="172" y1="140.9961" y2="153.9961"/><line style="stroke:#0A9EFD;stroke-width:2.0;" x1="131" x2="172" y1="153.9961" y2="153.9961"/><polygon fill="#0A9EFD" points="141,149.9961,131,153.9961,141,157.9961,137,153.9961" style="stroke:#0A9EFD;stroke-width:1.0;"/><text fill="#0A9EFD" font-family="Arial" font-size="13" lengthAdjust="spacing" textLength="211" x="137" y="136.2412">Load the DRM extension framework.</text><line style="stroke:#0A9EFD;stroke-width:2.0;" x1="130" x2="172" y1="182.9448" y2="182.9448"/><line style="stroke:#0A9EFD;stroke-width:2.0;" x1="172" x2="172" y1="182.9448" y2="195.9448"/><line style="stroke:#0A9EFD;stroke-width:2.0;" x1="131" x2="172" y1="195.9448" y2="195.9448"/><polygon fill="#0A9EFD" points="141,191.9448,131,195.9448,141,199.9448,137,195.9448" style="stroke:#0A9EFD;stroke-width:1.0;"/><text fill="#0A9EFD" font-family="Arial" font-size="13" lengthAdjust="spacing" textLength="276" x="137" y="178.1899">Create an instance of the music content center.</text><polygon fill="#0A9EFD" points="422,220.8936,432,224.8936,422,228.8936,426,224.8936" style="stroke:#0A9EFD;stroke-width:1.0;"/><line style="stroke:#0A9EFD;stroke-width:2.0;" x1="130" x2="428" y1="224.8936" y2="224.8936"/><text fill="#0A9EFD" font-family="Arial" font-size="13" lengthAdjust="spacing" textLength="200" x="182" y="220.1387">Initialize the music content center.</text><path d="M10,246.8936 L258,246.8936 L258,253.8423 L248,263.8423 L10,263.8423 L10,246.8936 " fill="#EEEEEE" style="stroke:#0A9EFD;stroke-width:1.5;"/><rect fill="none" height="161.6924" style="stroke:#0A9EFD;stroke-width:2.0;" width="470" x="10" y="246.8936"/><text fill="#000000" font-family="Arial" font-size="13" lengthAdjust="spacing" textLength="203" x="25" y="260.0874">Find music from the content center</text><polygon fill="#0A9EFD" points="118,280.791,128,284.791,118,288.791,122,284.791" style="stroke:#0A9EFD;stroke-width:1.0;"/><line style="stroke:#0A9EFD;stroke-width:2.0;" x1="38" x2="124" y1="284.791" y2="284.791"/><text fill="#0A9EFD" font-family="Arial" font-size="13" lengthAdjust="spacing" textLength="68" x="50" y="280.0361">Find music.</text><polygon fill="#0A9EFD" points="422,309.7397,432,313.7397,422,317.7397,426,313.7397" style="stroke:#0A9EFD;stroke-width:1.0;"/><line style="stroke:#0A9EFD;stroke-width:2.0;" x1="130" x2="428" y1="313.7397" y2="313.7397"/><text fill="#0A9EFD" font-family="Arial" font-size="13" lengthAdjust="spacing" textLength="211" x="176.5" y="308.9849">Call the method to search for music.</text><polygon fill="#0A9EFD" points="141,338.6885,131,342.6885,141,346.6885,137,342.6885" style="stroke:#0A9EFD;stroke-width:1.0;"/><line style="stroke:#0A9EFD;stroke-width:2.0;" x1="135" x2="433" y1="342.6885" y2="342.6885"/><text fill="#0A9EFD" font-family="Arial" font-size="13" lengthAdjust="spacing" textLength="258" x="153" y="337.9336">Receive search results through the callback.</text><polygon fill="#0A9EFD" points="422,367.6372,432,371.6372,422,375.6372,426,371.6372" style="stroke:#0A9EFD;stroke-width:1.0;"/><line style="stroke:#0A9EFD;stroke-width:2.0;" x1="130" x2="428" y1="371.6372" y2="371.6372"/><text fill="#0A9EFD" font-family="Arial" font-size="13" lengthAdjust="spacing" textLength="247" x="158.5" y="366.8823">Call the method to download music charts.</text><polygon fill="#0A9EFD" points="141,396.5859,131,400.5859,141,404.5859,137,400.5859" style="stroke:#0A9EFD;stroke-width:1.0;"/><line style="stroke:#0A9EFD;stroke-width:2.0;" x1="135" x2="433" y1="400.5859" y2="400.5859"/><text fill="#0A9EFD" font-family="Arial" font-size="13" lengthAdjust="spacing" textLength="280" x="142" y="395.8311">Receive music charts data through the callback.</text><path d="M10,422.5859 L153,422.5859 L153,429.5347 L143,439.5347 L10,439.5347 L10,422.5859 " fill="#EEEEEE" style="stroke:#0A9EFD;stroke-width:1.5;"/><rect fill="none" height="145.7437" style="stroke:#0A9EFD;stroke-width:2.0;" width="470" x="10" y="422.5859"/><text fill="#000000" font-family="Arial" font-size="13" lengthAdjust="spacing" textLength="98" x="25" y="435.7798">Play DRM music</text><polygon fill="#0A9EFD" points="118,456.4834,128,460.4834,118,464.4834,122,460.4834" style="stroke:#0A9EFD;stroke-width:1.0;"/><line style="stroke:#0A9EFD;stroke-width:2.0;" x1="38" x2="124" y1="460.4834" y2="460.4834"/><text fill="#0A9EFD" font-family="Arial" font-size="13" lengthAdjust="spacing" textLength="62" x="53" y="455.7285">Press play</text><polygon fill="#0A9EFD" points="141,485.4321,131,489.4321,141,493.4321,137,489.4321" style="stroke:#0A9EFD;stroke-width:1.0;"/><polygon fill="#0A9EFD" points="422,485.4321,432,489.4321,422,493.4321,426,489.4321" style="stroke:#0A9EFD;stroke-width:1.0;"/><line style="stroke:#0A9EFD;stroke-width:2.0;" x1="135" x2="428" y1="489.4321" y2="489.4321"/><text fill="#0A9EFD" font-family="Arial" font-size="13" lengthAdjust="spacing" textLength="140" x="212" y="484.6772">Preload selected music.</text><line style="stroke:#0A9EFD;stroke-width:2.0;" x1="130" x2="172" y1="518.3809" y2="518.3809"/><line style="stroke:#0A9EFD;stroke-width:2.0;" x1="172" x2="172" y1="518.3809" y2="531.3809"/><line style="stroke:#0A9EFD;stroke-width:2.0;" x1="131" x2="172" y1="531.3809" y2="531.3809"/><polygon fill="#0A9EFD" points="141,527.3809,131,531.3809,141,535.3809,137,531.3809" style="stroke:#0A9EFD;stroke-width:1.0;"/><text fill="#0A9EFD" font-family="Arial" font-size="13" lengthAdjust="spacing" textLength="206" x="137" y="513.626">Create an instance of music player.</text><polygon fill="#0A9EFD" points="141,556.3296,131,560.3296,141,564.3296,137,560.3296" style="stroke:#0A9EFD;stroke-width:1.0;"/><polygon fill="#0A9EFD" points="422,556.3296,432,560.3296,422,564.3296,426,560.3296" style="stroke:#0A9EFD;stroke-width:1.0;"/><line style="stroke:#0A9EFD;stroke-width:2.0;" x1="135" x2="428" y1="560.3296" y2="560.3296"/><text fill="#0A9EFD" font-family="Arial" font-size="13" lengthAdjust="spacing" textLength="155" x="204.5" y="555.5747">Open and play music files.</text><!--SRC=[XP7TJi9048Nl-nHZx-41Y34X41FYNzEAYLTcs4xfXkrkixiLzA5y29_CwHyK1Brfa_PySywPkP9Qg2ebmBMn-EOsKezbLQWWGE6DXN3fo8Q03fP970GhiuFmrLGMi2p3e4JhfP0bQW_XYqp9G3A_Q-JJA0f8fy14XqrhXnCccSVFZzzV7R4u46jhgX8Iyi0ldnCKbPC2XD6U61Jy81km2OnkQgy9t1jC6-KyVW3QiSn9eo6pMD3MsCtuI3spX9vRQv3QUTI2m6GNZGRiOW8BBRr49J_f3u2Rz2rk9RTgLParHGET5E7bxgCTvCUsCrIgDIIV6-vgm15QaKF6Xne0rwCMY4cGVATUPSbLoZiUmQdMUHk3PwvGRFvrIirMgth3NTkSh-ZEsmqLaAB72uw33KKAFvgxDUpHDYAExQ1aGMVMPUJlJHv7YeIdtnkxUEGsNpsnF-n-w5D9ckLfyxS_cLJakhG_]--></g></svg>