<svg xmlns="http://www.w3.org/2000/svg" xmlns:xlink="http://www.w3.org/1999/xlink" contentStyleType="text/css" data-diagram-type="SEQUENCE" height="789px" preserveAspectRatio="none" style="width:762px;height:789px;" version="1.1" viewBox="0 0 762 789" width="762px" zoomAndPan="magnify"><defs/><g><rect fill="none" height="787.9085" style="stroke:#0A9EFD;stroke-width:1;" width="760.2457" x="0" y="0"/><rect fill="#999999" fill-opacity="0.33333" height="777.9085" style="stroke:#0A9EFD;stroke-width:0.5;" width="50.6667" x="198" y="6"/><text fill="#0A9EFD" font-family="sans-serif" font-size="13" font-weight="bold" lengthAdjust="spacing" textLength="25.27" x="210.6983" y="19.4951">App</text><rect fill="#999999" fill-opacity="0.33333" height="777.9085" style="stroke:#0A9EFD;stroke-width:0.5;" width="50.6667" x="499.4434" y="6"/><text fill="#0A9EFD" font-family="sans-serif" font-size="13" font-weight="bold" lengthAdjust="spacing" textLength="27.4473" x="511.0531" y="19.4951">SDK</text><rect fill="#999999" fill-opacity="0.33333" height="777.9085" style="stroke:#0A9EFD;stroke-width:0.5;" width="60.355" x="694.7349" y="6"/><text fill="#0A9EFD" font-family="sans-serif" font-size="13" font-weight="bold" lengthAdjust="spacing" textLength="37.5591" x="706.1328" y="19.4951">Agora</text><text fill="#0A9EFD" font-family="sans-serif" font-size="13" font-weight="bold" lengthAdjust="spacing" textLength="54.355" x="697.7349" y="35.8467">SDRTN&#174;</text><rect fill="#0A9EFD" fill-opacity="0.06667" height="103.7949" style="stroke:#0A9EFD;stroke-width:2;" width="564.2457" x="192" y="267.0622"/><rect fill="#0A9EFD" fill-opacity="0.06667" height="132.7437" style="stroke:#0A9EFD;stroke-width:2;" width="564.2457" x="192" y="384.8571"/><rect fill="#0A9EFD" fill-opacity="0.06667" height="190.6411" style="stroke:#0A9EFD;stroke-width:2;" width="364.11" x="192" y="531.6007"/><g><title>&lt;size:40&gt;&lt;&amp;tablet&gt;</title><rect fill="#000000" fill-opacity="0.00000" height="654.8721" width="8" x="219.3333" y="84.3698"/><line style="stroke:#0A9EFD;stroke-width:0.5;stroke-dasharray:5.0,5.0;" x1="223" x2="223" y1="84.3698" y2="739.2419"/></g><g><title>&lt;size:40&gt;&lt;&amp;layers&gt;</title><rect fill="#000000" fill-opacity="0.00000" height="654.8721" width="8" x="520.7767" y="84.3698"/><line style="stroke:#0A9EFD;stroke-width:0.5;stroke-dasharray:5.0,5.0;" x1="524.4434" x2="524.4434" y1="84.3698" y2="739.2419"/></g><g><title>&lt;size:40&gt;&lt;&amp;cloud&gt;</title><rect fill="#000000" fill-opacity="0.00000" height="654.8721" width="8" x="720.9124" y="84.3698"/><line style="stroke:#0A9EFD;stroke-width:0.5;stroke-dasharray:5.0,5.0;" x1="724.579" x2="724.579" y1="84.3698" y2="739.2419"/></g><g class="participant participant-head" data-participant="APP"><rect fill="none" height="40.6667" rx="2.5" ry="2.5" style="stroke:#0A9EFD;stroke-width:2;" width="42.6667" x="202" y="42.7031"/><path d="M211.1333,49.7031 C210.5333,49.7031 210,50.2365 210,50.8365 L210,75.2031 C210,75.8031 210.5333,76.3365 211.1333,76.3365 L232.1667,76.3365 C232.7667,76.3365 233.3,75.8031 233.3,75.2031 L233.3,50.8365 C233.3,50.2365 232.7667,49.7031 232.1667,49.7031 L211.1333,49.7031 M213.3333,53.0365 L230,53.0365 L230,69.7031 L213.3333,69.7031 L213.3333,53.0365 M221.6667,71.3698 C222.9333,71.3698 223.7667,72.7698 223.1333,73.8698 C222.5,74.9698 220.8667,74.9698 220.2,73.8698 C219.5667,72.7698 220.3667,71.3698 221.6667,71.3698" fill="#0A9EFD"/></g><g class="participant participant-tail" data-participant="APP"><rect fill="none" height="40.6667" rx="2.5" ry="2.5" style="stroke:#0A9EFD;stroke-width:2;" width="42.6667" x="202" y="738.2419"/><path d="M211.1333,745.2419 C210.5333,745.2419 210,745.7752 210,746.3752 L210,770.7419 C210,771.3419 210.5333,771.8752 211.1333,771.8752 L232.1667,771.8752 C232.7667,771.8752 233.3,771.3419 233.3,770.7419 L233.3,746.3752 C233.3,745.7752 232.7667,745.2419 232.1667,745.2419 L211.1333,745.2419 M213.3333,748.5752 L230,748.5752 L230,765.2419 L213.3333,765.2419 L213.3333,748.5752 M221.6667,766.9085 C222.9333,766.9085 223.7667,768.3085 223.1333,769.4085 C222.5,770.5085 220.8667,770.5085 220.2,769.4085 C219.5667,768.3085 220.3667,766.9085 221.6667,766.9085" fill="#0A9EFD"/></g><g class="participant participant-head" data-participant="SDK"><rect fill="none" height="40.6667" rx="2.5" ry="2.5" style="stroke:#0A9EFD;stroke-width:2;" width="42.6667" x="503.4434" y="42.7031"/><path d="M511.4434,49.7031 L511.4434,63.0365 L524.7767,63.0365 L524.7767,49.7031 L511.4434,49.7031 M528.11,56.3698 L528.11,66.3698 L518.11,66.3698 L518.11,69.7031 L531.4434,69.7031 L531.4434,56.3698 L528.11,56.3698 M534.7767,63.0365 L534.7767,73.0365 L524.7767,73.0365 L524.7767,76.3698 L538.11,76.3698 L538.11,63.0365 L534.7767,63.0365" fill="#0A9EFD"/></g><g class="participant participant-tail" data-participant="SDK"><rect fill="none" height="40.6667" rx="2.5" ry="2.5" style="stroke:#0A9EFD;stroke-width:2;" width="42.6667" x="503.4434" y="738.2419"/><path d="M511.4434,745.2419 L511.4434,758.5752 L524.7767,758.5752 L524.7767,745.2419 L511.4434,745.2419 M528.11,751.9085 L528.11,761.9085 L518.11,761.9085 L518.11,765.2419 L531.4434,765.2419 L531.4434,751.9085 L528.11,751.9085 M534.7767,758.5752 L534.7767,768.5752 L524.7767,768.5752 L524.7767,771.9085 L538.11,771.9085 L538.11,758.5752 L534.7767,758.5752" fill="#0A9EFD"/></g><g class="participant participant-head" data-participant="RTN"><rect fill="none" height="40.6667" rx="2.5" ry="2.5" style="stroke:#0A9EFD;stroke-width:2;" width="42.6667" x="703.579" y="42.7031"/><path d="M726.579,53.0365 C722.5457,53.0365 719.0124,55.9031 718.2457,59.7031 C714.579,59.7031 711.579,62.7031 711.579,66.3698 C711.579,70.0365 714.579,73.0365 718.2457,73.0365 L733.2457,73.0365 C736.0124,73.0365 738.2457,70.8031 738.2457,68.0365 C738.2457,65.8698 736.8457,63.7365 734.9124,63.0365 L734.9124,61.3698 C734.9124,56.7698 731.179,53.0365 726.579,53.0365" fill="#0A9EFD"/></g><g class="participant participant-tail" data-participant="RTN"><rect fill="none" height="40.6667" rx="2.5" ry="2.5" style="stroke:#0A9EFD;stroke-width:2;" width="42.6667" x="703.579" y="738.2419"/><path d="M726.579,748.5752 C722.5457,748.5752 719.0124,751.4419 718.2457,755.2419 C714.579,755.2419 711.579,758.2419 711.579,761.9085 C711.579,765.5752 714.579,768.5752 718.2457,768.5752 L733.2457,768.5752 C736.0124,768.5752 738.2457,766.3419 738.2457,763.5752 C738.2457,761.4085 736.8457,759.2752 734.9124,758.5752 L734.9124,756.9085 C734.9124,752.3085 731.179,748.5752 726.579,748.5752" fill="#0A9EFD"/></g><g class="message" data-participant-1="APP" data-participant-2="SDK"><polygon fill="#0A9EFD" points="512.7767,121.7929,522.7767,125.7929,512.7767,129.7929,516.7767,125.7929" style="stroke:#0A9EFD;stroke-width:1;"/><line style="stroke:#0A9EFD;stroke-width:2;" x1="223.3333" x2="518.7767" y1="125.7929" y2="125.7929"/><text fill="#0A9EFD" font-family="Arial" font-size="13" lengthAdjust="spacing" textLength="134.3862" x="306.8619" y="121.038">AgoraRTC.createClient</text></g><path d="M5,99.3698 L5,138.3698 L218,138.3698 L218,109.3698 L208,99.3698 L5,99.3698" fill="none" style="stroke:#0A9EFD;stroke-width:1;"/><path d="M208,99.3698 L208,109.3698 L218,109.3698 L208,99.3698" fill="none" style="stroke:#0A9EFD;stroke-width:1;"/><text fill="#0A9EFD" font-family="Arial" font-size="13" lengthAdjust="spacing" textLength="106.9326" x="58.3081" y="116.5636">Create two clients:</text><text fill="#0A9EFD" font-family="Arial" font-size="13" lengthAdjust="spacing" textLength="179.937" x="23.6118" y="131.5124">uplinkClient and downlinkClient</text><g class="message" data-participant-1="APP" data-participant-2="SDK"><polygon fill="#0A9EFD" points="512.7767,161.216,522.7767,165.216,512.7767,169.216,516.7767,165.216" style="stroke:#0A9EFD;stroke-width:1;"/><line style="stroke:#0A9EFD;stroke-width:2;" x1="223.3333" x2="518.7767" y1="165.216" y2="165.216"/><text fill="#0A9EFD" font-family="Arial" font-size="13" lengthAdjust="spacing" textLength="91.0508" x="328.5296" y="160.4611">uplinkClient.join</text></g><g class="message" data-participant-1="SDK" data-participant-2="RTN"><polygon fill="#0A9EFD" points="712.9124,190.1647,722.9124,194.1647,712.9124,198.1647,716.9124,194.1647" style="stroke:#0A9EFD;stroke-width:1;"/><line style="stroke:#0A9EFD;stroke-width:2;" x1="524.7767" x2="718.9124" y1="194.1647" y2="194.1647"/><text fill="#0A9EFD" font-family="Arial" font-size="13" lengthAdjust="spacing" textLength="119.9707" x="564.8592" y="189.4098">Join channel request</text></g><g class="message" data-participant-1="APP" data-participant-2="SDK"><polygon fill="#0A9EFD" points="512.7767,219.1134,522.7767,223.1134,512.7767,227.1134,516.7767,223.1134" style="stroke:#0A9EFD;stroke-width:1;"/><line style="stroke:#0A9EFD;stroke-width:2;" x1="223.3333" x2="518.7767" y1="223.1134" y2="223.1134"/><text fill="#0A9EFD" font-family="Arial" font-size="13" lengthAdjust="spacing" textLength="107.6689" x="320.2205" y="218.3586">downlinkClient.join</text></g><g class="message" data-participant-1="SDK" data-participant-2="RTN"><polygon fill="#0A9EFD" points="712.9124,248.0622,722.9124,252.0622,712.9124,256.0622,716.9124,252.0622" style="stroke:#0A9EFD;stroke-width:1;"/><line style="stroke:#0A9EFD;stroke-width:2;" x1="524.7767" x2="718.9124" y1="252.0622" y2="252.0622"/><text fill="#0A9EFD" font-family="Arial" font-size="13" lengthAdjust="spacing" textLength="119.9707" x="564.8592" y="247.3073">Join channel request</text></g><path d="M192,267.0622 L510.1714,267.0622 L510.1714,274.0109 L500.1714,284.0109 L192,284.0109 L192,267.0622" fill="#EEEEEE" style="stroke:#0A9EFD;stroke-width:1.5;"/><rect fill="none" height="103.7949" style="stroke:#0A9EFD;stroke-width:2;" width="564.2457" x="192" y="267.0622"/><text fill="#000000" font-family="Arial" font-size="13" lengthAdjust="spacing" textLength="273.1714" x="207" y="280.256">Create and publish local audio and video tracks</text><g class="message" data-participant-1="APP" data-participant-2="SDK"><polygon fill="#0A9EFD" points="512.7767,300.9596,522.7767,304.9596,512.7767,308.9596,516.7767,304.9596" style="stroke:#0A9EFD;stroke-width:1;"/><line style="stroke:#0A9EFD;stroke-width:2;" x1="223.3333" x2="518.7767" y1="304.9596" y2="304.9596"/><text fill="#0A9EFD" font-family="Arial" font-size="13" lengthAdjust="spacing" textLength="277.4434" x="235.3333" y="300.2048">AgoraRTC.createMicrophoneAndCameraTracks</text></g><g class="message" data-participant-1="APP" data-participant-2="SDK"><polygon fill="#0A9EFD" points="512.7767,329.9084,522.7767,333.9084,512.7767,337.9084,516.7767,333.9084" style="stroke:#0A9EFD;stroke-width:1;"/><line style="stroke:#0A9EFD;stroke-width:2;" x1="223.3333" x2="518.7767" y1="333.9084" y2="333.9084"/><text fill="#0A9EFD" font-family="Arial" font-size="13" lengthAdjust="spacing" textLength="112.0107" x="318.0496" y="329.1535">uplinkClient.publish</text></g><g class="message" data-participant-1="SDK" data-participant-2="RTN"><polygon fill="#0A9EFD" points="712.9124,358.8571,722.9124,362.8571,712.9124,366.8571,716.9124,362.8571" style="stroke:#0A9EFD;stroke-width:1;"/><line style="stroke:#0A9EFD;stroke-width:2;" x1="524.7767" x2="718.9124" y1="362.8571" y2="362.8571"/><text fill="#0A9EFD" font-family="Arial" font-size="13" lengthAdjust="spacing" textLength="154.686" x="547.5015" y="358.1022">Send audio and video data</text></g><path d="M192,384.8571 L442.9561,384.8571 L442.9561,391.8058 L432.9561,401.8058 L192,401.8058 L192,384.8571" fill="#EEEEEE" style="stroke:#0A9EFD;stroke-width:1.5;"/><rect fill="none" height="132.7437" style="stroke:#0A9EFD;stroke-width:2;" width="564.2457" x="192" y="384.8571"/><text fill="#000000" font-family="Arial" font-size="13" lengthAdjust="spacing" textLength="205.9561" x="207" y="398.0509">Subscribe to audio and video tracks</text><g class="message" data-participant-1="RTN" data-participant-2="APP"><polygon fill="#0A9EFD" points="234.3333,418.7546,224.3333,422.7546,234.3333,426.7546,230.3333,422.7546" style="stroke:#0A9EFD;stroke-width:1;"/><line style="stroke:#0A9EFD;stroke-width:2;stroke-dasharray:2.0,2.0;" x1="228.3333" x2="723.9124" y1="422.7546" y2="422.7546"/><text fill="#0A9EFD" font-family="Arial" font-size="13" lengthAdjust="spacing" textLength="205.0547" x="371.5955" y="417.9997">downlinkClient.on("user-published")</text></g><g class="message" data-participant-1="APP" data-participant-2="SDK"><polygon fill="#0A9EFD" points="512.7767,447.7033,522.7767,451.7033,512.7767,455.7033,516.7767,451.7033" style="stroke:#0A9EFD;stroke-width:1;"/><line style="stroke:#0A9EFD;stroke-width:2;" x1="223.3333" x2="518.7767" y1="451.7033" y2="451.7033"/><text fill="#0A9EFD" font-family="Arial" font-size="13" lengthAdjust="spacing" textLength="143.0698" x="302.5201" y="446.9484">downlinkClient.subscribe</text></g><g class="message" data-participant-1="RTN" data-participant-2="SDK"><polygon fill="#0A9EFD" points="535.7767,476.652,525.7767,480.652,535.7767,484.652,531.7767,480.652" style="stroke:#0A9EFD;stroke-width:1;"/><line style="stroke:#0A9EFD;stroke-width:2;stroke-dasharray:2.0,2.0;" x1="529.7767" x2="723.9124" y1="480.652" y2="480.652"/><text fill="#0A9EFD" font-family="Arial" font-size="13" lengthAdjust="spacing" textLength="171.2915" x="539.1988" y="475.8971">Receive audio and video data</text></g><g class="message" data-participant-1="APP" data-participant-2="SDK"><polygon fill="#0A9EFD" points="512.7767,505.6007,522.7767,509.6007,512.7767,513.6007,516.7767,509.6007" style="stroke:#0A9EFD;stroke-width:1;"/><line style="stroke:#0A9EFD;stroke-width:2;" x1="223.3333" x2="518.7767" y1="509.6007" y2="509.6007"/><text fill="#0A9EFD" font-family="Arial" font-size="13" lengthAdjust="spacing" textLength="55.6309" x="346.2396" y="504.8459">track.play</text></g><path d="M192,531.6007 L335.998,531.6007 L335.998,538.5495 L325.998,548.5495 L192,548.5495 L192,531.6007" fill="#EEEEEE" style="stroke:#0A9EFD;stroke-width:1.5;"/><rect fill="none" height="190.6411" style="stroke:#0A9EFD;stroke-width:2;" width="364.11" x="192" y="531.6007"/><text fill="#000000" font-family="Arial" font-size="13" lengthAdjust="spacing" textLength="98.998" x="207" y="544.7946">Get network data</text><g class="message" data-participant-1="SDK" data-participant-2="APP"><polygon fill="#0A9EFD" points="234.3333,565.4982,224.3333,569.4982,234.3333,573.4982,230.3333,569.4982" style="stroke:#0A9EFD;stroke-width:1;"/><line style="stroke:#0A9EFD;stroke-width:2;stroke-dasharray:2.0,2.0;" x1="228.3333" x2="523.7767" y1="569.4982" y2="569.4982"/><text fill="#0A9EFD" font-family="Arial" font-size="13" lengthAdjust="spacing" textLength="207.2065" x="270.4517" y="564.7433">downlinkClient.on("network-quality")</text></g><g class="message" data-participant-1="SDK" data-participant-2="APP"><polygon fill="#0A9EFD" points="234.3333,594.4469,224.3333,598.4469,234.3333,602.4469,230.3333,598.4469" style="stroke:#0A9EFD;stroke-width:1;"/><line style="stroke:#0A9EFD;stroke-width:2;stroke-dasharray:2.0,2.0;" x1="228.3333" x2="523.7767" y1="598.4469" y2="598.4469"/><text fill="#0A9EFD" font-family="Arial" font-size="13" lengthAdjust="spacing" textLength="190.5884" x="278.7608" y="593.6921">uplinkClient.on("network-quality")</text></g><g class="message" data-participant-1="APP" data-participant-2="SDK"><polygon fill="#0A9EFD" points="512.7767,623.3957,522.7767,627.3957,512.7767,631.3957,516.7767,627.3957" style="stroke:#0A9EFD;stroke-width:1;"/><line style="stroke:#0A9EFD;stroke-width:2;" x1="223.3333" x2="518.7767" y1="627.3957" y2="627.3957"/><text fill="#0A9EFD" font-family="Arial" font-size="13" lengthAdjust="spacing" textLength="182.8379" x="282.6361" y="622.6408">uplinkClient.getLocalAudioStats</text></g><g class="message" data-participant-1="APP" data-participant-2="SDK"><polygon fill="#0A9EFD" points="512.7767,652.3444,522.7767,656.3444,512.7767,660.3444,516.7767,656.3444" style="stroke:#0A9EFD;stroke-width:1;"/><line style="stroke:#0A9EFD;stroke-width:2;" x1="223.3333" x2="518.7767" y1="656.3444" y2="656.3444"/><text fill="#0A9EFD" font-family="Arial" font-size="13" lengthAdjust="spacing" textLength="182.8379" x="282.6361" y="651.5895">uplinkClient.getLocalVideoStats</text></g><g class="message" data-participant-1="APP" data-participant-2="SDK"><polygon fill="#0A9EFD" points="512.7767,681.2931,522.7767,685.2931,512.7767,689.2931,516.7767,685.2931" style="stroke:#0A9EFD;stroke-width:1;"/><line style="stroke:#0A9EFD;stroke-width:2;" x1="223.3333" x2="518.7767" y1="685.2931" y2="685.2931"/><text fill="#0A9EFD" font-family="Arial" font-size="13" lengthAdjust="spacing" textLength="213.897" x="267.1065" y="680.5382">downlinkClient.getRemoteAudioStats</text></g><g class="message" data-participant-1="APP" data-participant-2="SDK"><polygon fill="#0A9EFD" points="512.7767,710.2419,522.7767,714.2419,512.7767,718.2419,516.7767,714.2419" style="stroke:#0A9EFD;stroke-width:1;"/><line style="stroke:#0A9EFD;stroke-width:2;" x1="223.3333" x2="518.7767" y1="714.2419" y2="714.2419"/><text fill="#0A9EFD" font-family="Arial" font-size="13" lengthAdjust="spacing" textLength="213.897" x="267.1065" y="709.487">downlinkClient.getRemoteVideoStats</text></g><!--SRC=[ZPDDRjim48NtEiLKYw9ToEWYAo4G83X0WRGD0ileAa0n8gSsOvfa-9CqFLGFqPDr9Ckmh5febwBUU_FDe_H66Q6J9C2DzVWjx9HPgBJNMTRQ7v3NpkMPGn-LK0vDXFmwg9zKNdsehjz6R3N5AWSCKD_VPsGai6kmDZUVvgqQNyc7WvM54slTiJoOvcQrlllzQpv5Q9la8OILfn26AIgEBQ5FMgsN2-498osr8XCpOoE1fk-nX6L_3l75WkXVXlB1G79QcTr13SYnqhwOqz5em5YvUBJAP7nSL8nJmYq_WjYYCQJ1qrEYCBQUP_wNETjuczmHkWDpgTKgR45RWHemIMNxysSboKBqA7PXleylIdZhjjPGRUGIz-HnFRMSRJYC6t4sNUlJkH8ZTjTn16vI6uHNBHTjvo0vhIWgdljNCzQyorCWNmpJIURlvtiCnrb3OgzPaI3rJ9T1Jr4zoiBnrpcc_qWH3F4dudS7GxVzFEeWBPuIQXLVcNMaFslpidgc-Wt5pzqbrzqAJSGO_gNysgquLKw0MRkYFVyF5sFdnADaxkaF]--></g></svg>