<?xml version="1.0" encoding="us-ascii" standalone="no"?><svg xmlns="http://www.w3.org/2000/svg" xmlns:xlink="http://www.w3.org/1999/xlink" contentStyleType="text/css" height="787px" preserveAspectRatio="none" style="width:759px;height:787px;" version="1.1" viewBox="0 0 759 787" width="759px" zoomAndPan="magnify"><defs/><g><rect fill="none" height="785.8265" style="stroke:#0A9EFD;stroke-width:1.0;" width="757.3333" x="0" y="0"/><rect fill="#999999" fill-opacity="0.33333" height="775.8265" style="stroke:#0A9EFD;stroke-width:0.5;" width="50.6667" x="197" y="6"/><text fill="#0A9EFD" font-family="sans-serif" font-size="13" font-weight="bold" lengthAdjust="spacing" textLength="28" x="208.3333" y="18.5684">App</text><rect fill="#999999" fill-opacity="0.33333" height="775.8265" style="stroke:#0A9EFD;stroke-width:0.5;" width="50.6667" x="496" y="6"/><text fill="#0A9EFD" font-family="sans-serif" font-size="13" font-weight="bold" lengthAdjust="spacing" textLength="26" x="508.3333" y="18.5684">SDK</text><rect fill="#999999" fill-opacity="0.33333" height="775.8265" style="stroke:#0A9EFD;stroke-width:0.5;" width="62" x="691" y="6"/><text fill="#0A9EFD" font-family="sans-serif" font-size="13" font-weight="bold" lengthAdjust="spacing" textLength="41" x="701.5" y="18.5684">Agora</text><text fill="#0A9EFD" font-family="sans-serif" font-size="13" font-weight="bold" lengthAdjust="spacing" textLength="56" x="694" y="33.8789">SDRTN&#174;</text><rect fill="#0A9EFD" fill-opacity="0.06667" height="103.7949" style="stroke:#0A9EFD;stroke-width:2.0;" width="562.3333" x="191" y="264.9801"/><rect fill="#0A9EFD" fill-opacity="0.06667" height="132.7437" style="stroke:#0A9EFD;stroke-width:2.0;" width="562.3333" x="191" y="382.7751"/><rect fill="#0A9EFD" fill-opacity="0.06667" height="190.6411" style="stroke:#0A9EFD;stroke-width:2.0;" width="361.6667" x="191" y="529.5187"/><line style="stroke:#0A9EFD;stroke-width:0.5;stroke-dasharray:5.0,5.0;" x1="222" x2="222" y1="82.2878" y2="737.1598"/><line style="stroke:#0A9EFD;stroke-width:0.5;stroke-dasharray:5.0,5.0;" x1="521" x2="521" y1="82.2878" y2="737.1598"/><line style="stroke:#0A9EFD;stroke-width:0.5;stroke-dasharray:5.0,5.0;" x1="721.6667" x2="721.6667" y1="82.2878" y2="737.1598"/><rect fill="none" height="40.6667" rx="2.5" ry="2.5" style="stroke:#0A9EFD;stroke-width:2.0;" width="42.6667" x="201" y="40.6211"/><path d="M210.1333,47.6211 C209.5333,47.6211 209,48.1544 209,48.7544 L209,73.1211 C209,73.7211 209.5333,74.2544 210.1333,74.2544 L231.1667,74.2544 C231.7667,74.2544 232.3,73.7211 232.3,73.1211 L232.3,48.7544 C232.3,48.1544 231.7667,47.6211 231.1667,47.6211 L210.1333,47.6211 M212.3333,50.9544 L229,50.9544 L229,67.6211 L212.3333,67.6211 L212.3333,50.9544 M220.6667,69.2878 C221.9333,69.2878 222.7667,70.6878 222.1333,71.7878 C221.5,72.8878 219.8667,72.8878 219.2,71.7878 C218.5667,70.6878 219.3667,69.2878 220.6667,69.2878 " fill="#0A9EFD" style="stroke:;stroke-width:0.0;stroke-dasharray:;"/><rect fill="none" height="40.6667" rx="2.5" ry="2.5" style="stroke:#0A9EFD;stroke-width:2.0;" width="42.6667" x="201" y="736.1598"/><path d="M210.1333,743.1598 C209.5333,743.1598 209,743.6932 209,744.2932 L209,768.6598 C209,769.2598 209.5333,769.7932 210.1333,769.7932 L231.1667,769.7932 C231.7667,769.7932 232.3,769.2598 232.3,768.6598 L232.3,744.2932 C232.3,743.6932 231.7667,743.1598 231.1667,743.1598 L210.1333,743.1598 M212.3333,746.4932 L229,746.4932 L229,763.1598 L212.3333,763.1598 L212.3333,746.4932 M220.6667,764.8265 C221.9333,764.8265 222.7667,766.2265 222.1333,767.3265 C221.5,768.4265 219.8667,768.4265 219.2,767.3265 C218.5667,766.2265 219.3667,764.8265 220.6667,764.8265 " fill="#0A9EFD" style="stroke:;stroke-width:0.0;stroke-dasharray:;"/><rect fill="none" height="40.6667" rx="2.5" ry="2.5" style="stroke:#0A9EFD;stroke-width:2.0;" width="42.6667" x="500" y="40.6211"/><path d="M508,47.6211 L508,60.9544 L521.3333,60.9544 L521.3333,47.6211 L508,47.6211 M524.6667,54.2878 L524.6667,64.2878 L514.6667,64.2878 L514.6667,67.6211 L528,67.6211 L528,54.2878 L524.6667,54.2878 M531.3333,60.9544 L531.3333,70.9544 L521.3333,70.9544 L521.3333,74.2878 L534.6667,74.2878 L534.6667,60.9544 L531.3333,60.9544 " fill="#0A9EFD" style="stroke:;stroke-width:0.0;stroke-dasharray:;"/><rect fill="none" height="40.6667" rx="2.5" ry="2.5" style="stroke:#0A9EFD;stroke-width:2.0;" width="42.6667" x="500" y="736.1598"/><path d="M508,743.1598 L508,756.4932 L521.3333,756.4932 L521.3333,743.1598 L508,743.1598 M524.6667,749.8265 L524.6667,759.8265 L514.6667,759.8265 L514.6667,763.1598 L528,763.1598 L528,749.8265 L524.6667,749.8265 M531.3333,756.4932 L531.3333,766.4932 L521.3333,766.4932 L521.3333,769.8265 L534.6667,769.8265 L534.6667,756.4932 L531.3333,756.4932 " fill="#0A9EFD" style="stroke:;stroke-width:0.0;stroke-dasharray:;"/><rect fill="none" height="40.6667" rx="2.5" ry="2.5" style="stroke:#0A9EFD;stroke-width:2.0;" width="42.6667" x="700.6667" y="40.6211"/><path d="M723.6667,47.6211 C719.6333,47.6211 716.1,50.4878 715.3333,54.2878 C711.6667,54.2878 708.6667,57.2878 708.6667,60.9544 C708.6667,64.6211 711.6667,67.6211 715.3333,67.6211 L730.3333,67.6211 C733.1,67.6211 735.3333,65.3878 735.3333,62.6211 C735.3333,60.4544 733.9333,58.3211 732,57.6211 L732,55.9544 C732,51.3544 728.2667,47.6211 723.6667,47.6211 " fill="#0A9EFD" style="stroke:;stroke-width:0.0;stroke-dasharray:;"/><rect fill="none" height="40.6667" rx="2.5" ry="2.5" style="stroke:#0A9EFD;stroke-width:2.0;" width="42.6667" x="700.6667" y="736.1598"/><path d="M723.6667,743.1598 C719.6333,743.1598 716.1,746.0265 715.3333,749.8265 C711.6667,749.8265 708.6667,752.8265 708.6667,756.4932 C708.6667,760.1598 711.6667,763.1598 715.3333,763.1598 L730.3333,763.1598 C733.1,763.1598 735.3333,760.9265 735.3333,758.1598 C735.3333,755.9932 733.9333,753.8598 732,753.1598 L732,751.4932 C732,746.8932 728.2667,743.1598 723.6667,743.1598 " fill="#0A9EFD" style="stroke:;stroke-width:0.0;stroke-dasharray:;"/><polygon fill="#0A9EFD" points="509.3333,119.7109,519.3333,123.7109,509.3333,127.7109,513.3333,123.7109" style="stroke:#0A9EFD;stroke-width:1.0;"/><line style="stroke:#0A9EFD;stroke-width:2.0;" x1="222.3333" x2="515.3333" y1="123.7109" y2="123.7109"/><text fill="#0A9EFD" font-family="Arial" font-size="13" lengthAdjust="spacing" textLength="133" x="305.3333" y="118.956">AgoraRTC.createClient</text><path d="M5,97.2878 L5,136.2878 L218,136.2878 L218,107.2878 L208,97.2878 L5,97.2878 " fill="none" style="stroke:#0A9EFD;stroke-width:1.0;"/><path d="M208,97.2878 L208,107.2878 L218,107.2878 L208,97.2878 " fill="none" style="stroke:#0A9EFD;stroke-width:1.0;"/><text fill="#0A9EFD" font-family="Arial" font-size="13" lengthAdjust="spacing" textLength="108" x="57.5" y="114.4816">Create two clients:</text><text fill="#0A9EFD" font-family="Arial" font-size="13" lengthAdjust="spacing" textLength="179" x="24" y="129.4303">uplinkClient and downlinkClient</text><polygon fill="#0A9EFD" points="509.3333,159.134,519.3333,163.134,509.3333,167.134,513.3333,163.134" style="stroke:#0A9EFD;stroke-width:1.0;"/><line style="stroke:#0A9EFD;stroke-width:2.0;" x1="222.3333" x2="515.3333" y1="163.134" y2="163.134"/><text fill="#0A9EFD" font-family="Arial" font-size="13" lengthAdjust="spacing" textLength="91" x="326.3333" y="158.3791">uplinkClient.join</text><polygon fill="#0A9EFD" points="710,188.0827,720,192.0827,710,196.0827,714,192.0827" style="stroke:#0A9EFD;stroke-width:1.0;"/><line style="stroke:#0A9EFD;stroke-width:2.0;" x1="521.3333" x2="716" y1="192.0827" y2="192.0827"/><text fill="#0A9EFD" font-family="Arial" font-size="13" lengthAdjust="spacing" textLength="120" x="561.6667" y="187.3278">Join channel request</text><polygon fill="#0A9EFD" points="509.3333,217.0314,519.3333,221.0314,509.3333,225.0314,513.3333,221.0314" style="stroke:#0A9EFD;stroke-width:1.0;"/><line style="stroke:#0A9EFD;stroke-width:2.0;" x1="222.3333" x2="515.3333" y1="221.0314" y2="221.0314"/><text fill="#0A9EFD" font-family="Arial" font-size="13" lengthAdjust="spacing" textLength="107" x="318.3333" y="216.2765">downlinkClient.join</text><polygon fill="#0A9EFD" points="710,245.9801,720,249.9801,710,253.9801,714,249.9801" style="stroke:#0A9EFD;stroke-width:1.0;"/><line style="stroke:#0A9EFD;stroke-width:2.0;" x1="521.3333" x2="716" y1="249.9801" y2="249.9801"/><text fill="#0A9EFD" font-family="Arial" font-size="13" lengthAdjust="spacing" textLength="120" x="561.6667" y="245.2253">Join channel request</text><path d="M191,264.9801 L510,264.9801 L510,271.9289 L500,281.9289 L191,281.9289 L191,264.9801 " fill="#EEEEEE" style="stroke:#0A9EFD;stroke-width:1.5;"/><rect fill="none" height="103.7949" style="stroke:#0A9EFD;stroke-width:2.0;" width="562.3333" x="191" y="264.9801"/><text fill="#000000" font-family="Arial" font-size="13" lengthAdjust="spacing" textLength="274" x="206" y="278.174">Create and publish local audio and video tracks</text><polygon fill="#0A9EFD" points="509.3333,298.8776,519.3333,302.8776,509.3333,306.8776,513.3333,302.8776" style="stroke:#0A9EFD;stroke-width:1.0;"/><line style="stroke:#0A9EFD;stroke-width:2.0;" x1="222.3333" x2="515.3333" y1="302.8776" y2="302.8776"/><text fill="#0A9EFD" font-family="Arial" font-size="13" lengthAdjust="spacing" textLength="275" x="234.3333" y="298.1227">AgoraRTC.createMicrophoneAndCameraTracks</text><polygon fill="#0A9EFD" points="509.3333,327.8263,519.3333,331.8263,509.3333,335.8263,513.3333,331.8263" style="stroke:#0A9EFD;stroke-width:1.0;"/><line style="stroke:#0A9EFD;stroke-width:2.0;" x1="222.3333" x2="515.3333" y1="331.8263" y2="331.8263"/><text fill="#0A9EFD" font-family="Arial" font-size="13" lengthAdjust="spacing" textLength="112" x="315.8333" y="327.0715">uplinkClient.publish</text><polygon fill="#0A9EFD" points="710,356.7751,720,360.7751,710,364.7751,714,360.7751" style="stroke:#0A9EFD;stroke-width:1.0;"/><line style="stroke:#0A9EFD;stroke-width:2.0;" x1="521.3333" x2="716" y1="360.7751" y2="360.7751"/><text fill="#0A9EFD" font-family="Arial" font-size="13" lengthAdjust="spacing" textLength="154" x="544.6667" y="356.0202">Send audio and video data</text><path d="M191,382.7751 L444,382.7751 L444,389.7238 L434,399.7238 L191,399.7238 L191,382.7751 " fill="#EEEEEE" style="stroke:#0A9EFD;stroke-width:1.5;"/><rect fill="none" height="132.7437" style="stroke:#0A9EFD;stroke-width:2.0;" width="562.3333" x="191" y="382.7751"/><text fill="#000000" font-family="Arial" font-size="13" lengthAdjust="spacing" textLength="208" x="206" y="395.9689">Subscribe to audio and video tracks</text><polygon fill="#0A9EFD" points="233.3333,416.6725,223.3333,420.6725,233.3333,424.6725,229.3333,420.6725" style="stroke:#0A9EFD;stroke-width:1.0;"/><line style="stroke:#0A9EFD;stroke-width:2.0;stroke-dasharray:2.0,2.0;" x1="227.3333" x2="721" y1="420.6725" y2="420.6725"/><text fill="#0A9EFD" font-family="Arial" font-size="13" lengthAdjust="spacing" textLength="203" x="370.6667" y="415.9176">downlinkClient.on("user-published")</text><polygon fill="#0A9EFD" points="509.3333,445.6213,519.3333,449.6213,509.3333,453.6213,513.3333,449.6213" style="stroke:#0A9EFD;stroke-width:1.0;"/><line style="stroke:#0A9EFD;stroke-width:2.0;" x1="222.3333" x2="515.3333" y1="449.6213" y2="449.6213"/><text fill="#0A9EFD" font-family="Arial" font-size="13" lengthAdjust="spacing" textLength="143" x="300.3333" y="444.8664">downlinkClient.subscribe</text><polygon fill="#0A9EFD" points="532.3333,474.57,522.3333,478.57,532.3333,482.57,528.3333,478.57" style="stroke:#0A9EFD;stroke-width:1.0;"/><line style="stroke:#0A9EFD;stroke-width:2.0;stroke-dasharray:2.0,2.0;" x1="526.3333" x2="721" y1="478.57" y2="478.57"/><text fill="#0A9EFD" font-family="Arial" font-size="13" lengthAdjust="spacing" textLength="171" x="536.1667" y="473.8151">Receive audio and video data</text><polygon fill="#0A9EFD" points="509.3333,503.5187,519.3333,507.5187,509.3333,511.5187,513.3333,507.5187" style="stroke:#0A9EFD;stroke-width:1.0;"/><line style="stroke:#0A9EFD;stroke-width:2.0;" x1="222.3333" x2="515.3333" y1="507.5187" y2="507.5187"/><text fill="#0A9EFD" font-family="Arial" font-size="13" lengthAdjust="spacing" textLength="57" x="343.3333" y="502.7638">track.play</text><path d="M191,529.5187 L335,529.5187 L335,536.4674 L325,546.4674 L191,546.4674 L191,529.5187 " fill="#EEEEEE" style="stroke:#0A9EFD;stroke-width:1.5;"/><rect fill="none" height="190.6411" style="stroke:#0A9EFD;stroke-width:2.0;" width="361.6667" x="191" y="529.5187"/><text fill="#000000" font-family="Arial" font-size="13" lengthAdjust="spacing" textLength="99" x="206" y="542.7126">Get network data</text><polygon fill="#0A9EFD" points="233.3333,563.4162,223.3333,567.4162,233.3333,571.4162,229.3333,567.4162" style="stroke:#0A9EFD;stroke-width:1.0;"/><line style="stroke:#0A9EFD;stroke-width:2.0;stroke-dasharray:2.0,2.0;" x1="227.3333" x2="520.3333" y1="567.4162" y2="567.4162"/><text fill="#0A9EFD" font-family="Arial" font-size="13" lengthAdjust="spacing" textLength="206" x="268.8333" y="562.6613">downlinkClient.on("network-quality")</text><polygon fill="#0A9EFD" points="233.3333,592.3649,223.3333,596.3649,233.3333,600.3649,229.3333,596.3649" style="stroke:#0A9EFD;stroke-width:1.0;"/><line style="stroke:#0A9EFD;stroke-width:2.0;stroke-dasharray:2.0,2.0;" x1="227.3333" x2="520.3333" y1="596.3649" y2="596.3649"/><text fill="#0A9EFD" font-family="Arial" font-size="13" lengthAdjust="spacing" textLength="190" x="276.8333" y="591.61">uplinkClient.on("network-quality")</text><polygon fill="#0A9EFD" points="509.3333,621.3136,519.3333,625.3136,509.3333,629.3136,513.3333,625.3136" style="stroke:#0A9EFD;stroke-width:1.0;"/><line style="stroke:#0A9EFD;stroke-width:2.0;" x1="222.3333" x2="515.3333" y1="625.3136" y2="625.3136"/><text fill="#0A9EFD" font-family="Arial" font-size="13" lengthAdjust="spacing" textLength="184" x="279.8333" y="620.5588">uplinkClient.getLocalAudioStats</text><polygon fill="#0A9EFD" points="509.3333,650.2624,519.3333,654.2624,509.3333,658.2624,513.3333,654.2624" style="stroke:#0A9EFD;stroke-width:1.0;"/><line style="stroke:#0A9EFD;stroke-width:2.0;" x1="222.3333" x2="515.3333" y1="654.2624" y2="654.2624"/><text fill="#0A9EFD" font-family="Arial" font-size="13" lengthAdjust="spacing" textLength="184" x="279.8333" y="649.5075">uplinkClient.getLocalVideoStats</text><polygon fill="#0A9EFD" points="509.3333,679.2111,519.3333,683.2111,509.3333,687.2111,513.3333,683.2111" style="stroke:#0A9EFD;stroke-width:1.0;"/><line style="stroke:#0A9EFD;stroke-width:2.0;" x1="222.3333" x2="515.3333" y1="683.2111" y2="683.2111"/><text fill="#0A9EFD" font-family="Arial" font-size="13" lengthAdjust="spacing" textLength="214" x="264.8333" y="678.4562">downlinkClient.getRemoteAudioStats</text><polygon fill="#0A9EFD" points="509.3333,708.1598,519.3333,712.1598,509.3333,716.1598,513.3333,712.1598" style="stroke:#0A9EFD;stroke-width:1.0;"/><line style="stroke:#0A9EFD;stroke-width:2.0;" x1="222.3333" x2="515.3333" y1="712.1598" y2="712.1598"/><text fill="#0A9EFD" font-family="Arial" font-size="13" lengthAdjust="spacing" textLength="214" x="264.8333" y="707.4049">downlinkClient.getRemoteVideoStats</text><!--SRC=[ZPDDRjim48NtEiLKYw9ToEWYAo4G83X0WRGD0ileAa0n8gSsOvfa-9CqFLGFqPDr9Ckmh5febwBUU_FDe_H66Q6J9C2DzVWjx9HPgBJNMTRQ7v3NpkMPGn-LK0vDXFmwg9zKNdsehjz6R3N5AWSCKD_VPsGai6kmDZUVvgqQNyc7WvM54slTiJoOvcQrlllzQpv5Q9la8OILfn26AIgEBQ5FMgsN2-498osr8XCpOoE1fk-nX6L_3l75WkXVXlB1G79QcTr13SYnqhwOqz5em5YvUBJAP7nSL8nJmYq_WjYYCQJ1qrEYCBQUP_wNETjuczmHkWDpgTKgR45RWHemIMNxysSboKBqA7PXleylIdZhjjPGRUGIz-HnFRMSRJYC6t4sNUlJkH8ZTjTn16vI6uHNBHTjvo0vhIWgdljNCzQyorCWNmpJIURlvtiCnrb3OgzPaI3rJ9T1Jr4zoiBnrpcc_qWH3F4dudS7GxVzFEeWBPuIQXLVcNMaFslpidgc-Wt5pzqbrzqAJSGO_gNysgquLKw0MRkYFVyF5sFdnADaxkaF]--></g></svg>