<svg xmlns="http://www.w3.org/2000/svg" xmlns:xlink="http://www.w3.org/1999/xlink" contentStyleType="text/css" data-diagram-type="ACTIVITY" height="607px" preserveAspectRatio="none" style="width:687px;height:607px;" version="1.1" viewBox="0 0 687 607" width="687px" zoomAndPan="magnify"><defs/><g><rect fill="none" height="605.3848" style="stroke:#0A9EFD;stroke-width:1;" width="685.1812" x="0" y="0"/><ellipse cx="244.466" cy="20" fill="#0A9EFD" rx="10" ry="10" style="stroke:#222222;stroke-width:1;"/><rect fill="none" height="54.9487" rx="12.5" ry="12.5" style="stroke:#0A9EFD;stroke-width:4;" width="186.7007" x="151.1157" y="50"/><text fill="#0A9EFD" font-family="Arial" font-size="13" lengthAdjust="spacing" textLength="146.7007" x="171.1157" y="82.1938">Your subscribed package</text><rect fill="none" height="69.8975" rx="12.5" ry="12.5" style="stroke:#0A9EFD;stroke-width:4;" width="184.5298" x="152.2011" y="124.9487"/><text fill="#0A9EFD" font-family="Arial" font-size="13" lengthAdjust="spacing" textLength="124.2935" x="180.5134" y="157.1426">Usage deducted from</text><text fill="#0A9EFD" font-family="Arial" font-size="13" lengthAdjust="spacing" textLength="144.5298" x="172.2011" y="172.0913">your subscribed package</text><polygon fill="none" points="175.2138,214.8462,313.7182,214.8462,325.7182,239.7949,313.7182,264.7437,175.2138,264.7437,163.2138,239.7949,175.2138,214.8462" style="stroke:#0A9EFD;stroke-width:4;"/><text fill="#0A9EFD" font-family="Arial" font-size="13" lengthAdjust="spacing" textLength="114.8926" x="185.2138" y="237.04">Is your usage within</text><text fill="#0A9EFD" font-family="Arial" font-size="13" lengthAdjust="spacing" textLength="111.998" x="188.467" y="251.9888">your package limit?</text><text fill="#0A9EFD" font-family="Arial" font-size="13" lengthAdjust="spacing" textLength="22.4009" x="130.8129" y="227.04">Yes</text><text fill="#0A9EFD" font-family="Arial" font-size="13" lengthAdjust="spacing" textLength="16.6182" x="335.7182" y="227.04">No</text><rect fill="none" height="54.9487" rx="12.5" ry="12.5" style="stroke:#0A9EFD;stroke-width:4;" width="106.4854" x="11" y="274.7437"/><text fill="#0A9EFD" font-family="Arial" font-size="13" lengthAdjust="spacing" textLength="66.4854" x="31" y="306.9375">Billing ends</text><ellipse cx="64.2427" cy="375.6924" fill="none" rx="11" ry="11" style="stroke:#0A9EFD;stroke-width:1;"/><ellipse cx="64.2427" cy="375.6924" fill="#222222" rx="6" ry="6" style="stroke:#0A9EFD;stroke-width:1;"/><polygon fill="none" points="383.2631,274.7437,526.1156,274.7437,538.1156,299.6924,526.1156,324.6411,383.2631,324.6411,371.2631,299.6924,383.2631,274.7437" style="stroke:#0A9EFD;stroke-width:4;"/><text fill="#0A9EFD" font-family="Arial" font-size="13" lengthAdjust="spacing" textLength="119.2407" x="393.2631" y="296.9375">Have you purchased</text><text fill="#0A9EFD" font-family="Arial" font-size="13" lengthAdjust="spacing" textLength="107.6943" x="400.8422" y="311.8862">a top-up package?</text><text fill="#0A9EFD" font-family="Arial" font-size="13" lengthAdjust="spacing" textLength="22.4009" x="338.8622" y="286.9375">Yes</text><text fill="#0A9EFD" font-family="Arial" font-size="13" lengthAdjust="spacing" textLength="16.6182" x="548.1156" y="286.9375">No</text><polygon fill="none" points="234.1616,334.6411,401.5859,334.6411,413.5859,359.5898,401.5859,384.5386,234.1616,384.5386,222.1616,359.5898,234.1616,334.6411" style="stroke:#0A9EFD;stroke-width:4;"/><text fill="#0A9EFD" font-family="Arial" font-size="13" lengthAdjust="spacing" textLength="143.8125" x="244.1616" y="356.835">Does your usage exceed</text><text fill="#0A9EFD" font-family="Arial" font-size="13" lengthAdjust="spacing" textLength="145.2534" x="245.2471" y="371.7837">the top-up package limit?</text><text fill="#0A9EFD" font-family="Arial" font-size="13" lengthAdjust="spacing" textLength="22.4009" x="189.7607" y="346.835">Yes</text><text fill="#0A9EFD" font-family="Arial" font-size="13" lengthAdjust="spacing" textLength="16.6182" x="423.5859" y="346.835">No</text><rect fill="none" height="69.8975" rx="12.5" ry="12.5" style="stroke:#0A9EFD;stroke-width:4;" width="169.3525" x="127.4854" y="394.5386"/><text fill="#0A9EFD" font-family="Arial" font-size="13" lengthAdjust="spacing" textLength="95.4053" x="164.459" y="426.7324">You pay through</text><text fill="#0A9EFD" font-family="Arial" font-size="13" lengthAdjust="spacing" textLength="129.3525" x="147.4854" y="441.6812">overage post-payment</text><rect fill="none" height="54.9487" rx="12.5" ry="12.5" style="stroke:#0A9EFD;stroke-width:4;" width="106.4854" x="158.9189" y="499.436"/><text fill="#0A9EFD" font-family="Arial" font-size="13" lengthAdjust="spacing" textLength="66.4854" x="178.9189" y="531.6299">Billing ends</text><ellipse cx="212.1616" cy="585.3848" fill="none" rx="11" ry="11" style="stroke:#0A9EFD;stroke-width:1;"/><ellipse cx="212.1616" cy="585.3848" fill="#222222" rx="6" ry="6" style="stroke:#0A9EFD;stroke-width:1;"/><rect fill="none" height="54.9487" rx="12.5" ry="12.5" style="stroke:#0A9EFD;stroke-width:4;" width="106.4854" x="370.3433" y="394.5386"/><text fill="#0A9EFD" font-family="Arial" font-size="13" lengthAdjust="spacing" textLength="66.4854" x="390.3433" y="426.7324">Billing ends</text><ellipse cx="423.5859" cy="495.4873" fill="none" rx="11" ry="11" style="stroke:#0A9EFD;stroke-width:1;"/><ellipse cx="423.5859" cy="495.4873" fill="#222222" rx="6" ry="6" style="stroke:#0A9EFD;stroke-width:1;"/><rect fill="none" height="69.8975" rx="12.5" ry="12.5" style="stroke:#0A9EFD;stroke-width:4;" width="169.3525" x="506.8286" y="334.6411"/><text fill="#0A9EFD" font-family="Arial" font-size="13" lengthAdjust="spacing" textLength="95.4053" x="543.8022" y="366.835">You pay through</text><text fill="#0A9EFD" font-family="Arial" font-size="13" lengthAdjust="spacing" textLength="129.3525" x="526.8286" y="381.7837">overage post-payment</text><rect fill="none" height="54.9487" rx="12.5" ry="12.5" style="stroke:#0A9EFD;stroke-width:4;" width="106.4854" x="538.2622" y="439.5386"/><text fill="#0A9EFD" font-family="Arial" font-size="13" lengthAdjust="spacing" textLength="66.4854" x="558.2622" y="471.7324">Billing ends</text><ellipse cx="591.5049" cy="540.4873" fill="none" rx="11" ry="11" style="stroke:#0A9EFD;stroke-width:1;"/><ellipse cx="591.5049" cy="540.4873" fill="#222222" rx="6" ry="6" style="stroke:#0A9EFD;stroke-width:1;"/><line style="stroke:#0A9EFD;stroke-width:2;" x1="244.466" x2="244.466" y1="30" y2="50"/><polygon fill="#0A9EFD" points="240.466,40,244.466,50,248.466,40,244.466,44" style="stroke:#0A9EFD;stroke-width:1;"/><line style="stroke:#0A9EFD;stroke-width:2;" x1="244.466" x2="244.466" y1="104.9487" y2="124.9487"/><polygon fill="#0A9EFD" points="240.466,114.9487,244.466,124.9487,248.466,114.9487,244.466,118.9487" style="stroke:#0A9EFD;stroke-width:1;"/><line style="stroke:#0A9EFD;stroke-width:2;" x1="64.2427" x2="64.2427" y1="329.6924" y2="364.6924"/><polygon fill="#0A9EFD" points="60.2427,354.6924,64.2427,364.6924,68.2427,354.6924,64.2427,358.6924" style="stroke:#0A9EFD;stroke-width:1;"/><line style="stroke:#0A9EFD;stroke-width:2;" x1="212.1616" x2="212.1616" y1="464.436" y2="499.436"/><polygon fill="#0A9EFD" points="208.1616,489.436,212.1616,499.436,216.1616,489.436,212.1616,493.436" style="stroke:#0A9EFD;stroke-width:1;"/><line style="stroke:#0A9EFD;stroke-width:2;" x1="212.1616" x2="212.1616" y1="554.3848" y2="574.3848"/><polygon fill="#0A9EFD" points="208.1616,564.3848,212.1616,574.3848,216.1616,564.3848,212.1616,568.3848" style="stroke:#0A9EFD;stroke-width:1;"/><line style="stroke:#0A9EFD;stroke-width:2;" x1="423.5859" x2="423.5859" y1="449.4873" y2="484.4873"/><polygon fill="#0A9EFD" points="419.5859,474.4873,423.5859,484.4873,427.5859,474.4873,423.5859,478.4873" style="stroke:#0A9EFD;stroke-width:1;"/><line style="stroke:#0A9EFD;stroke-width:2;" x1="222.1616" x2="212.1616" y1="359.5898" y2="359.5898"/><line style="stroke:#0A9EFD;stroke-width:2;" x1="212.1616" x2="212.1616" y1="359.5898" y2="394.5386"/><polygon fill="#0A9EFD" points="208.1616,384.5386,212.1616,394.5386,216.1616,384.5386,212.1616,388.5386" style="stroke:#0A9EFD;stroke-width:1;"/><line style="stroke:#0A9EFD;stroke-width:2;" x1="413.5859" x2="423.5859" y1="359.5898" y2="359.5898"/><line style="stroke:#0A9EFD;stroke-width:2;" x1="423.5859" x2="423.5859" y1="359.5898" y2="394.5386"/><polygon fill="#0A9EFD" points="419.5859,384.5386,423.5859,394.5386,427.5859,384.5386,423.5859,388.5386" style="stroke:#0A9EFD;stroke-width:1;"/><line style="stroke:#0A9EFD;stroke-width:2;" x1="591.5049" x2="591.5049" y1="404.5386" y2="439.5386"/><polygon fill="#0A9EFD" points="587.5049,429.5386,591.5049,439.5386,595.5049,429.5386,591.5049,433.5386" style="stroke:#0A9EFD;stroke-width:1;"/><line style="stroke:#0A9EFD;stroke-width:2;" x1="591.5049" x2="591.5049" y1="494.4873" y2="529.4873"/><polygon fill="#0A9EFD" points="587.5049,519.4873,591.5049,529.4873,595.5049,519.4873,591.5049,523.4873" style="stroke:#0A9EFD;stroke-width:1;"/><line style="stroke:#0A9EFD;stroke-width:2;" x1="371.2631" x2="317.8738" y1="299.6924" y2="299.6924"/><line style="stroke:#0A9EFD;stroke-width:2;" x1="317.8738" x2="317.8738" y1="299.6924" y2="334.6411"/><polygon fill="#0A9EFD" points="313.8738,324.6411,317.8738,334.6411,321.8738,324.6411,317.8738,328.6411" style="stroke:#0A9EFD;stroke-width:1;"/><line style="stroke:#0A9EFD;stroke-width:2;" x1="538.1156" x2="591.5049" y1="299.6924" y2="299.6924"/><line style="stroke:#0A9EFD;stroke-width:2;" x1="591.5049" x2="591.5049" y1="299.6924" y2="334.6411"/><polygon fill="#0A9EFD" points="587.5049,324.6411,591.5049,334.6411,595.5049,324.6411,591.5049,328.6411" style="stroke:#0A9EFD;stroke-width:1;"/><line style="stroke:#0A9EFD;stroke-width:2;" x1="163.2138" x2="64.2427" y1="239.7949" y2="239.7949"/><line style="stroke:#0A9EFD;stroke-width:2;" x1="64.2427" x2="64.2427" y1="239.7949" y2="274.7437"/><polygon fill="#0A9EFD" points="60.2427,264.7437,64.2427,274.7437,68.2427,264.7437,64.2427,268.7437" style="stroke:#0A9EFD;stroke-width:1;"/><line style="stroke:#0A9EFD;stroke-width:2;" x1="325.7182" x2="454.6893" y1="239.7949" y2="239.7949"/><line style="stroke:#0A9EFD;stroke-width:2;" x1="454.6893" x2="454.6893" y1="239.7949" y2="274.7437"/><polygon fill="#0A9EFD" points="450.6893,264.7437,454.6893,274.7437,458.6893,264.7437,454.6893,268.7437" style="stroke:#0A9EFD;stroke-width:1;"/><line style="stroke:#0A9EFD;stroke-width:2;" x1="244.466" x2="244.466" y1="194.8462" y2="214.8462"/><polygon fill="#0A9EFD" points="240.466,204.8462,244.466,214.8462,248.466,204.8462,244.466,208.8462" style="stroke:#0A9EFD;stroke-width:1;"/><!--SRC=[bL0xJyCm4DxzAuuj7OhAcWn8m50Mn89GfKZ8ZQ_9gNx9PnVwxx7JHYfHaS23VRhlST_vXcodaqAGlGloW_TaRoaPBKhbPP063Db7BPdVISK1xbQh2-nLAaMsprqXECeGHRrnAG2dBNU1jgZ0osulUsn4_SRv1OKgTJ43k-0CjFRu6vzsK3qpZ7WQfPyK1xAJvam4JORY_GBYW1Qg3V920DGFf7L9XbPnaniSdHUe6Q5wSOLHxDVoW6K0-1IwGN8Utre9cRfCVXemjpv9dnp-o8PV7Oxop9qPN4zOJlcip3fc9BZK3wrr1mn5uXt7PKOCsjXCxFbEvOnxbU9ojp-mhQATcAl-a-UA_zdzv3tUtm00]--></g></svg>