<svg xmlns="http://www.w3.org/2000/svg" xmlns:xlink="http://www.w3.org/1999/xlink" contentStyleType="text/css" data-diagram-type="SEQUENCE" height="605px" preserveAspectRatio="none" style="width:616px;height:605px;" version="1.1" viewBox="0 0 616 605" width="616px" zoomAndPan="magnify"><defs/><g><rect fill="none" height="603.8133" style="stroke:#0A9EFD;stroke-width:1;" width="614.8031" x="0" y="0"/><rect fill="#999999" fill-opacity="0.33333" height="593.8133" style="stroke:#0A9EFD;stroke-width:0.5;" width="50.6667" x="16" y="6"/><text fill="#0A9EFD" font-family="sans-serif" font-size="13" font-weight="bold" lengthAdjust="spacing" textLength="25.27" x="28.6983" y="19.4951">App</text><rect fill="#999999" fill-opacity="0.33333" height="593.8133" style="stroke:#0A9EFD;stroke-width:0.5;" width="63.7764" x="251.0405" y="6"/><text fill="#0A9EFD" font-family="sans-serif" font-size="13" font-weight="bold" lengthAdjust="spacing" textLength="57.7764" x="254.0405" y="19.4951">RTC SDK</text><rect fill="#999999" fill-opacity="0.33333" height="593.8133" style="stroke:#0A9EFD;stroke-width:0.5;" width="101.5259" x="509.2772" y="6"/><text fill="#0A9EFD" font-family="sans-serif" font-size="13" font-weight="bold" lengthAdjust="spacing" textLength="95.5259" x="512.2772" y="19.4951">Agora SDRTN&#174;</text><rect fill="#0A9EFD" fill-opacity="0.06667" height="277.436" style="stroke:#0A9EFD;stroke-width:2;" width="581.3735" x="10" y="113.967"/><rect fill="#0A9EFD" fill-opacity="0.06667" height="132.7437" style="stroke:#0A9EFD;stroke-width:2;" width="581.3735" x="10" y="405.403"/><g><title>&lt;size:40&gt;&lt;&amp;tablet&gt;</title><rect fill="#000000" fill-opacity="0.00000" height="487.1284" width="8" x="37.3333" y="68.0182"/><line style="stroke:#0A9EFD;stroke-width:0.5;stroke-dasharray:5.0,5.0;" x1="41" x2="41" y1="68.0182" y2="555.1466"/></g><g><title>&lt;size:40&gt;&lt;&amp;layers&gt;</title><rect fill="#000000" fill-opacity="0.00000" height="487.1284" width="8" x="278.9287" y="68.0182"/><line style="stroke:#0A9EFD;stroke-width:0.5;stroke-dasharray:5.0,5.0;" x1="282.5954" x2="282.5954" y1="68.0182" y2="555.1466"/></g><g><title>&lt;size:40&gt;&lt;&amp;cloud&gt;</title><rect fill="#000000" fill-opacity="0.00000" height="487.1284" width="8" x="556.0401" y="68.0182"/><line style="stroke:#0A9EFD;stroke-width:0.5;stroke-dasharray:5.0,5.0;" x1="559.7068" x2="559.7068" y1="68.0182" y2="555.1466"/></g><g class="participant participant-head" data-participant="APP"><rect fill="none" height="40.6667" rx="2.5" ry="2.5" style="stroke:#0A9EFD;stroke-width:2;" width="42.6667" x="20" y="26.3516"/><path d="M29.1333,33.3516 C28.5333,33.3516 28,33.8849 28,34.4849 L28,58.8516 C28,59.4516 28.5333,59.9849 29.1333,59.9849 L50.1667,59.9849 C50.7667,59.9849 51.3,59.4516 51.3,58.8516 L51.3,34.4849 C51.3,33.8849 50.7667,33.3516 50.1667,33.3516 L29.1333,33.3516 M31.3333,36.6849 L48,36.6849 L48,53.3516 L31.3333,53.3516 L31.3333,36.6849 M39.6667,55.0182 C40.9333,55.0182 41.7667,56.4182 41.1333,57.5182 C40.5,58.6182 38.8667,58.6182 38.2,57.5182 C37.5667,56.4182 38.3667,55.0182 39.6667,55.0182" fill="#0A9EFD"/></g><g class="participant participant-tail" data-participant="APP"><rect fill="none" height="40.6667" rx="2.5" ry="2.5" style="stroke:#0A9EFD;stroke-width:2;" width="42.6667" x="20" y="554.1466"/><path d="M29.1333,561.1466 C28.5333,561.1466 28,561.68 28,562.28 L28,586.6466 C28,587.2466 28.5333,587.78 29.1333,587.78 L50.1667,587.78 C50.7667,587.78 51.3,587.2466 51.3,586.6466 L51.3,562.28 C51.3,561.68 50.7667,561.1466 50.1667,561.1466 L29.1333,561.1466 M31.3333,564.48 L48,564.48 L48,581.1466 L31.3333,581.1466 L31.3333,564.48 M39.6667,582.8133 C40.9333,582.8133 41.7667,584.2133 41.1333,585.3133 C40.5,586.4133 38.8667,586.4133 38.2,585.3133 C37.5667,584.2133 38.3667,582.8133 39.6667,582.8133" fill="#0A9EFD"/></g><g class="participant participant-head" data-participant="SDK"><rect fill="none" height="40.6667" rx="2.5" ry="2.5" style="stroke:#0A9EFD;stroke-width:2;" width="42.6667" x="261.5954" y="26.3516"/><path d="M269.5954,33.3516 L269.5954,46.6849 L282.9287,46.6849 L282.9287,33.3516 L269.5954,33.3516 M286.262,40.0182 L286.262,50.0182 L276.262,50.0182 L276.262,53.3516 L289.5954,53.3516 L289.5954,40.0182 L286.262,40.0182 M292.9287,46.6849 L292.9287,56.6849 L282.9287,56.6849 L282.9287,60.0182 L296.262,60.0182 L296.262,46.6849 L292.9287,46.6849" fill="#0A9EFD"/></g><g class="participant participant-tail" data-participant="SDK"><rect fill="none" height="40.6667" rx="2.5" ry="2.5" style="stroke:#0A9EFD;stroke-width:2;" width="42.6667" x="261.5954" y="554.1466"/><path d="M269.5954,561.1466 L269.5954,574.48 L282.9287,574.48 L282.9287,561.1466 L269.5954,561.1466 M286.262,567.8133 L286.262,577.8133 L276.262,577.8133 L276.262,581.1466 L289.5954,581.1466 L289.5954,567.8133 L286.262,567.8133 M292.9287,574.48 L292.9287,584.48 L282.9287,584.48 L282.9287,587.8133 L296.262,587.8133 L296.262,574.48 L292.9287,574.48" fill="#0A9EFD"/></g><g class="participant participant-head" data-participant="RTN"><rect fill="none" height="40.6667" rx="2.5" ry="2.5" style="stroke:#0A9EFD;stroke-width:2;" width="42.6667" x="538.7068" y="26.3516"/><path d="M561.7068,36.6849 C557.6735,36.6849 554.1401,39.5516 553.3735,43.3516 C549.7068,43.3516 546.7068,46.3516 546.7068,50.0182 C546.7068,53.6849 549.7068,56.6849 553.3735,56.6849 L568.3735,56.6849 C571.1401,56.6849 573.3735,54.4516 573.3735,51.6849 C573.3735,49.5182 571.9735,47.3849 570.0401,46.6849 L570.0401,45.0182 C570.0401,40.4182 566.3068,36.6849 561.7068,36.6849" fill="#0A9EFD"/></g><g class="participant participant-tail" data-participant="RTN"><rect fill="none" height="40.6667" rx="2.5" ry="2.5" style="stroke:#0A9EFD;stroke-width:2;" width="42.6667" x="538.7068" y="554.1466"/><path d="M561.7068,564.48 C557.6735,564.48 554.1401,567.3466 553.3735,571.1466 C549.7068,571.1466 546.7068,574.1466 546.7068,577.8133 C546.7068,581.48 549.7068,584.48 553.3735,584.48 L568.3735,584.48 C571.1401,584.48 573.3735,582.2466 573.3735,579.48 C573.3735,577.3133 571.9735,575.18 570.0401,574.48 L570.0401,572.8133 C570.0401,568.2133 566.3068,564.48 561.7068,564.48" fill="#0A9EFD"/></g><g class="message" data-participant-1="APP" data-participant-2="SDK"><polygon fill="#0A9EFD" points="270.9287,94.967,280.9287,98.967,270.9287,102.967,274.9287,98.967" style="stroke:#0A9EFD;stroke-width:1;"/><line style="stroke:#0A9EFD;stroke-width:2;" x1="41.3333" x2="276.9287" y1="98.967" y2="98.967"/><text fill="#0A9EFD" font-family="Arial" font-size="13" lengthAdjust="spacing" textLength="205.9688" x="59.1466" y="94.2121">Create an instance of Agora Engine</text></g><path d="M10,113.967 L190.8525,113.967 L190.8525,120.9157 L180.8525,130.9157 L10,130.9157 L10,113.967" fill="#EEEEEE" style="stroke:#0A9EFD;stroke-width:1.5;"/><rect fill="none" height="277.436" style="stroke:#0A9EFD;stroke-width:2;" width="581.3735" x="10" y="113.967"/><text fill="#000000" font-family="Arial" font-size="13" lengthAdjust="spacing" textLength="135.8525" x="25" y="127.1608">Process raw audio data</text><g class="message" data-participant-1="APP" data-participant-2="SDK"><polygon fill="#0A9EFD" points="270.9287,147.8644,280.9287,151.8644,270.9287,155.8644,274.9287,151.8644" style="stroke:#0A9EFD;stroke-width:1;"/><line style="stroke:#0A9EFD;stroke-width:2;" x1="41.3333" x2="276.9287" y1="151.8644" y2="151.8644"/><text fill="#0A9EFD" font-family="Arial" font-size="13" lengthAdjust="spacing" textLength="159.7007" x="82.2807" y="147.1095">Register the audio observer</text></g><g class="message" data-participant-1="SDK" data-participant-2="RTN"><polygon fill="#0A9EFD" points="548.0401,176.8132,558.0401,180.8132,548.0401,184.8132,552.0401,180.8132" style="stroke:#0A9EFD;stroke-width:1;"/><line style="stroke:#0A9EFD;stroke-width:2;" x1="282.9287" x2="554.0401" y1="180.8132" y2="180.8132"/><text fill="#0A9EFD" font-family="Arial" font-size="13" lengthAdjust="spacing" textLength="221.127" x="310.9209" y="176.0583">Request to register the audio observer</text></g><g class="message" data-participant-1="APP" data-participant-2="SDK"><polygon fill="#0A9EFD" points="270.9287,205.7619,280.9287,209.7619,270.9287,213.7619,274.9287,209.7619" style="stroke:#0A9EFD;stroke-width:1;"/><line style="stroke:#0A9EFD;stroke-width:2;" x1="41.3333" x2="276.9287" y1="209.7619" y2="209.7619"/><text fill="#0A9EFD" font-family="Arial" font-size="13" lengthAdjust="spacing" textLength="94.6816" x="114.7902" y="205.007">Join the channel</text></g><g class="message" data-participant-1="SDK" data-participant-2="RTN"><polygon fill="#0A9EFD" points="548.0401,234.7106,558.0401,238.7106,548.0401,242.7106,552.0401,238.7106" style="stroke:#0A9EFD;stroke-width:1;"/><line style="stroke:#0A9EFD;stroke-width:2;" x1="282.9287" x2="554.0401" y1="238.7106" y2="238.7106"/><text fill="#0A9EFD" font-family="Arial" font-size="13" lengthAdjust="spacing" textLength="135.8716" x="353.5486" y="233.9557">Request to join channel</text></g><g class="message" data-participant-1="SDK" data-participant-2="APP"><polygon fill="#0A9EFD" points="52.3333,278.6081,42.3333,282.6081,52.3333,286.6081,48.3333,282.6081" style="stroke:#0A9EFD;stroke-width:1;"/><line style="stroke:#0A9EFD;stroke-width:2;stroke-dasharray:2.0,2.0;" x1="46.3333" x2="281.9287" y1="282.6081" y2="282.6081"/><text fill="#0A9EFD" font-family="Arial" font-size="13" lengthAdjust="spacing" textLength="169.7998" x="77.2311" y="262.9045">Get raw audio data from SDK</text><text fill="#0A9EFD" font-family="Arial" font-size="13" lengthAdjust="spacing" textLength="156.0889" x="85.8925" y="277.8532">through registered callback</text></g><g class="message" data-participant-1="APP" data-participant-2="APP"><line style="stroke:#0A9EFD;stroke-width:2;" x1="41.3333" x2="83.3333" y1="326.5055" y2="326.5055"/><line style="stroke:#0A9EFD;stroke-width:2;" x1="83.3333" x2="83.3333" y1="326.5055" y2="339.5055"/><line style="stroke:#0A9EFD;stroke-width:2;" x1="42.3333" x2="83.3333" y1="339.5055" y2="339.5055"/><polygon fill="#0A9EFD" points="52.3333,335.5055,42.3333,339.5055,52.3333,343.5055,48.3333,339.5055" style="stroke:#0A9EFD;stroke-width:1;"/><text fill="#0A9EFD" font-family="Arial" font-size="13" lengthAdjust="spacing" textLength="215.3442" x="48.3333" y="306.8019">Process audio data for local playback</text><text fill="#0A9EFD" font-family="Arial" font-size="13" lengthAdjust="spacing" textLength="158.2598" x="78.6815" y="321.7507">or sending back to the SDK</text></g><g class="message" data-participant-1="APP" data-participant-2="SDK"><polygon fill="#0A9EFD" points="270.9287,379.403,280.9287,383.403,270.9287,387.403,274.9287,383.403" style="stroke:#0A9EFD;stroke-width:1;"/><line style="stroke:#0A9EFD;stroke-width:2;" x1="41.3333" x2="276.9287" y1="383.403" y2="383.403"/><text fill="#0A9EFD" font-family="Arial" font-size="13" lengthAdjust="spacing" textLength="211.0405" x="56.6108" y="363.6994">Send the processed audio data back</text><text fill="#0A9EFD" font-family="Arial" font-size="13" lengthAdjust="spacing" textLength="177.7725" x="75.0507" y="378.6481">through the registered callback</text></g><path d="M10,405.403 L161.2534,405.403 L161.2534,412.3517 L151.2534,422.3517 L10,422.3517 L10,405.403" fill="#EEEEEE" style="stroke:#0A9EFD;stroke-width:1.5;"/><rect fill="none" height="132.7437" style="stroke:#0A9EFD;stroke-width:2;" width="581.3735" x="10" y="405.403"/><text fill="#000000" font-family="Arial" font-size="13" lengthAdjust="spacing" textLength="106.2534" x="25" y="418.5968">Leave the channel</text><g class="message" data-participant-1="APP" data-participant-2="SDK"><polygon fill="#0A9EFD" points="270.9287,439.3005,280.9287,443.3005,270.9287,447.3005,274.9287,443.3005" style="stroke:#0A9EFD;stroke-width:1;"/><line style="stroke:#0A9EFD;stroke-width:2;" x1="41.3333" x2="276.9287" y1="443.3005" y2="443.3005"/><text fill="#0A9EFD" font-family="Arial" font-size="13" lengthAdjust="spacing" textLength="171.2598" x="76.5011" y="438.5456">Unregister the audio observer</text></g><g class="message" data-participant-1="APP" data-participant-2="SDK"><polygon fill="#0A9EFD" points="270.9287,468.2492,280.9287,472.2492,270.9287,476.2492,274.9287,472.2492" style="stroke:#0A9EFD;stroke-width:1;"/><line style="stroke:#0A9EFD;stroke-width:2;" x1="41.3333" x2="276.9287" y1="472.2492" y2="472.2492"/><text fill="#0A9EFD" font-family="Arial" font-size="13" lengthAdjust="spacing" textLength="106.2534" x="109.0043" y="467.4943">Leave the channel</text></g><g class="message" data-participant-1="SDK" data-participant-2="RTN"><polygon fill="#0A9EFD" points="548.0401,497.1979,558.0401,501.1979,548.0401,505.1979,552.0401,501.1979" style="stroke:#0A9EFD;stroke-width:1;"/><line style="stroke:#0A9EFD;stroke-width:2;" x1="282.9287" x2="554.0401" y1="501.1979" y2="501.1979"/><text fill="#0A9EFD" font-family="Arial" font-size="13" lengthAdjust="spacing" textLength="168.397" x="337.2859" y="496.443">Request to leave the channel</text></g><g class="message" data-participant-1="APP" data-participant-2="SDK"><polygon fill="#0A9EFD" points="270.9287,526.1466,280.9287,530.1466,270.9287,534.1466,274.9287,530.1466" style="stroke:#0A9EFD;stroke-width:1;"/><line style="stroke:#0A9EFD;stroke-width:2;" x1="41.3333" x2="276.9287" y1="530.1466" y2="530.1466"/><text fill="#0A9EFD" font-family="Arial" font-size="13" lengthAdjust="spacing" textLength="109.1226" x="107.5697" y="525.3918">Destroy the engine</text></g><!--SRC=[ZPB1Ji9048RlVOgn1syO3vu88I5WJDGO0dWpCTDsA2lBRjtTelXGFeHFvWobMD0IJqrc__-RVsPwfaogoum0S-lmsI-LkL3bIaTHOjyX7XH571NeWafLWIP0tFFgWxfNb_tUUS14K-Z7W1u6ut549WDsxQoJsH2cexjskyODEL_PMNXa7qWUhazc3r-VxP1KspAh6ApyON0UwFI5suMX8mmyeG5bV42J4jWvL0skJQuCHL7kR5d0sDcKl0U7Ru1bfYna6F00Dg5S-K0Eme9s6fjuScjo4Gj4nq54zrgI3n0ik1EM9lhMAhFLf0iqXdGRxqLqjKO0lKwd8jnGECeESsTNylWaQ1uoN-ppK0OfQfrWkgnpyAUxtqAJOXreosee-6pYO1xNF2zScHoa8j4alTooETPKZY8FHSNbjWtoZbLd4zrV-PXH7-cUS4q7UsfsUpJ_NVTlJik-zSc68rOvkzc-K_KtITXl]--></g></svg>