<svg xmlns="http://www.w3.org/2000/svg" xmlns:xlink="http://www.w3.org/1999/xlink" contentStyleType="text/css" data-diagram-type="SEQUENCE" height="371px" preserveAspectRatio="none" style="width:624px;height:371px;" version="1.1" viewBox="0 0 624 371" width="624px" zoomAndPan="magnify"><defs/><g><rect fill="none" height="369.2747" style="stroke:#0A9EFD;stroke-width:1;" width="622.014" x="0" y="0"/><rect fill="#999999" fill-opacity="0.33333" height="359.2747" style="stroke:#0A9EFD;stroke-width:0.5;" width="50.6667" x="16" y="6"/><text fill="#0A9EFD" font-family="sans-serif" font-size="13" font-weight="bold" lengthAdjust="spacing" textLength="25.27" x="28.6983" y="19.4951">App</text><rect fill="#999999" fill-opacity="0.33333" height="359.2747" style="stroke:#0A9EFD;stroke-width:0.5;" width="63.7764" x="287.1587" y="6"/><text fill="#0A9EFD" font-family="sans-serif" font-size="13" font-weight="bold" lengthAdjust="spacing" textLength="57.7764" x="290.1587" y="19.4951">RTC SDK</text><rect fill="#999999" fill-opacity="0.33333" height="359.2747" style="stroke:#0A9EFD;stroke-width:0.5;" width="101.5259" x="516.4881" y="6"/><text fill="#0A9EFD" font-family="sans-serif" font-size="13" font-weight="bold" lengthAdjust="spacing" textLength="95.5259" x="519.4881" y="19.4951">Agora SDRTN&#174;</text><rect fill="#0A9EFD" fill-opacity="0.06667" height="189.6411" style="stroke:#0A9EFD;stroke-width:2;" width="588.5844" x="10" y="113.967"/><g><title>&lt;size:40&gt;&lt;&amp;tablet&gt;</title><rect fill="#000000" fill-opacity="0.00000" height="252.5898" width="8" x="37.3333" y="68.0182"/><line style="stroke:#0A9EFD;stroke-width:0.5;stroke-dasharray:5.0,5.0;" x1="41" x2="41" y1="68.0182" y2="320.6081"/></g><g><title>&lt;size:40&gt;&lt;&amp;layers&gt;</title><rect fill="#000000" fill-opacity="0.00000" height="252.5898" width="8" x="315.0469" y="68.0182"/><line style="stroke:#0A9EFD;stroke-width:0.5;stroke-dasharray:5.0,5.0;" x1="318.7135" x2="318.7135" y1="68.0182" y2="320.6081"/></g><g><title>&lt;size:40&gt;&lt;&amp;cloud&gt;</title><rect fill="#000000" fill-opacity="0.00000" height="252.5898" width="8" x="563.2511" y="68.0182"/><line style="stroke:#0A9EFD;stroke-width:0.5;stroke-dasharray:5.0,5.0;" x1="566.9177" x2="566.9177" y1="68.0182" y2="320.6081"/></g><g class="participant participant-head" data-participant="APP"><rect fill="none" height="40.6667" rx="2.5" ry="2.5" style="stroke:#0A9EFD;stroke-width:2;" width="42.6667" x="20" y="26.3516"/><path d="M29.1333,33.3516 C28.5333,33.3516 28,33.8849 28,34.4849 L28,58.8516 C28,59.4516 28.5333,59.9849 29.1333,59.9849 L50.1667,59.9849 C50.7667,59.9849 51.3,59.4516 51.3,58.8516 L51.3,34.4849 C51.3,33.8849 50.7667,33.3516 50.1667,33.3516 L29.1333,33.3516 M31.3333,36.6849 L48,36.6849 L48,53.3516 L31.3333,53.3516 L31.3333,36.6849 M39.6667,55.0182 C40.9333,55.0182 41.7667,56.4182 41.1333,57.5182 C40.5,58.6182 38.8667,58.6182 38.2,57.5182 C37.5667,56.4182 38.3667,55.0182 39.6667,55.0182" fill="#0A9EFD"/></g><g class="participant participant-tail" data-participant="APP"><rect fill="none" height="40.6667" rx="2.5" ry="2.5" style="stroke:#0A9EFD;stroke-width:2;" width="42.6667" x="20" y="319.6081"/><path d="M29.1333,326.6081 C28.5333,326.6081 28,327.1414 28,327.7414 L28,352.1081 C28,352.7081 28.5333,353.2414 29.1333,353.2414 L50.1667,353.2414 C50.7667,353.2414 51.3,352.7081 51.3,352.1081 L51.3,327.7414 C51.3,327.1414 50.7667,326.6081 50.1667,326.6081 L29.1333,326.6081 M31.3333,329.9414 L48,329.9414 L48,346.6081 L31.3333,346.6081 L31.3333,329.9414 M39.6667,348.2747 C40.9333,348.2747 41.7667,349.6747 41.1333,350.7747 C40.5,351.8747 38.8667,351.8747 38.2,350.7747 C37.5667,349.6747 38.3667,348.2747 39.6667,348.2747" fill="#0A9EFD"/></g><g class="participant participant-head" data-participant="SDK"><rect fill="none" height="40.6667" rx="2.5" ry="2.5" style="stroke:#0A9EFD;stroke-width:2;" width="42.6667" x="297.7135" y="26.3516"/><path d="M305.7135,33.3516 L305.7135,46.6849 L319.0469,46.6849 L319.0469,33.3516 L305.7135,33.3516 M322.3802,40.0182 L322.3802,50.0182 L312.3802,50.0182 L312.3802,53.3516 L325.7135,53.3516 L325.7135,40.0182 L322.3802,40.0182 M329.0469,46.6849 L329.0469,56.6849 L319.0469,56.6849 L319.0469,60.0182 L332.3802,60.0182 L332.3802,46.6849 L329.0469,46.6849" fill="#0A9EFD"/></g><g class="participant participant-tail" data-participant="SDK"><rect fill="none" height="40.6667" rx="2.5" ry="2.5" style="stroke:#0A9EFD;stroke-width:2;" width="42.6667" x="297.7135" y="319.6081"/><path d="M305.7135,326.6081 L305.7135,339.9414 L319.0469,339.9414 L319.0469,326.6081 L305.7135,326.6081 M322.3802,333.2747 L322.3802,343.2747 L312.3802,343.2747 L312.3802,346.6081 L325.7135,346.6081 L325.7135,333.2747 L322.3802,333.2747 M329.0469,339.9414 L329.0469,349.9414 L319.0469,349.9414 L319.0469,353.2747 L332.3802,353.2747 L332.3802,339.9414 L329.0469,339.9414" fill="#0A9EFD"/></g><g class="participant participant-head" data-participant="RTN"><rect fill="none" height="40.6667" rx="2.5" ry="2.5" style="stroke:#0A9EFD;stroke-width:2;" width="42.6667" x="545.9177" y="26.3516"/><path d="M568.9177,36.6849 C564.8844,36.6849 561.3511,39.5516 560.5844,43.3516 C556.9177,43.3516 553.9177,46.3516 553.9177,50.0182 C553.9177,53.6849 556.9177,56.6849 560.5844,56.6849 L575.5844,56.6849 C578.3511,56.6849 580.5844,54.4516 580.5844,51.6849 C580.5844,49.5182 579.1844,47.3849 577.2511,46.6849 L577.2511,45.0182 C577.2511,40.4182 573.5177,36.6849 568.9177,36.6849" fill="#0A9EFD"/></g><g class="participant participant-tail" data-participant="RTN"><rect fill="none" height="40.6667" rx="2.5" ry="2.5" style="stroke:#0A9EFD;stroke-width:2;" width="42.6667" x="545.9177" y="319.6081"/><path d="M568.9177,329.9414 C564.8844,329.9414 561.3511,332.8081 560.5844,336.6081 C556.9177,336.6081 553.9177,339.6081 553.9177,343.2747 C553.9177,346.9414 556.9177,349.9414 560.5844,349.9414 L575.5844,349.9414 C578.3511,349.9414 580.5844,347.7081 580.5844,344.9414 C580.5844,342.7747 579.1844,340.6414 577.2511,339.9414 L577.2511,338.2747 C577.2511,333.6747 573.5177,329.9414 568.9177,329.9414" fill="#0A9EFD"/></g><g class="message" data-participant-1="APP" data-participant-2="SDK"><polygon fill="#0A9EFD" points="307.0469,94.967,317.0469,98.967,307.0469,102.967,311.0469,98.967" style="stroke:#0A9EFD;stroke-width:1;"/><line style="stroke:#0A9EFD;stroke-width:2;" x1="41.3333" x2="313.0469" y1="98.967" y2="98.967"/><text fill="#0A9EFD" font-family="Arial" font-size="13" lengthAdjust="spacing" textLength="205.9688" x="77.2057" y="94.2121">Create an instance of Agora Engine</text></g><path d="M10,113.967 L190.8525,113.967 L190.8525,120.9157 L180.8525,130.9157 L10,130.9157 L10,113.967" fill="#EEEEEE" style="stroke:#0A9EFD;stroke-width:1.5;"/><rect fill="none" height="189.6411" style="stroke:#0A9EFD;stroke-width:2;" width="588.5844" x="10" y="113.967"/><text fill="#000000" font-family="Arial" font-size="13" lengthAdjust="spacing" textLength="135.8525" x="25" y="127.1608">Process raw audio data</text><g class="message" data-participant-1="APP" data-participant-2="SDK"><polygon fill="#0A9EFD" points="307.0469,147.8644,317.0469,151.8644,307.0469,155.8644,311.0469,151.8644" style="stroke:#0A9EFD;stroke-width:1;"/><line style="stroke:#0A9EFD;stroke-width:2;" x1="41.3333" x2="313.0469" y1="151.8644" y2="151.8644"/><text fill="#0A9EFD" font-family="Arial" font-size="13" lengthAdjust="spacing" textLength="147.4116" x="106.4843" y="147.1095">Create a local audio track</text></g><g class="message" data-participant-1="SDK" data-participant-2="APP"><polygon fill="#0A9EFD" points="52.3333,176.8132,42.3333,180.8132,52.3333,184.8132,48.3333,180.8132" style="stroke:#0A9EFD;stroke-width:1;"/><line style="stroke:#0A9EFD;stroke-width:2;" x1="46.3333" x2="318.0469" y1="180.8132" y2="180.8132"/><text fill="#0A9EFD" font-family="Arial" font-size="13" lengthAdjust="spacing" textLength="98.2808" x="131.0497" y="176.0583">Local audio track</text></g><g class="message" data-participant-1="APP" data-participant-2="APP"><line style="stroke:#0A9EFD;stroke-width:2;" x1="41.3333" x2="83.3333" y1="224.7106" y2="224.7106"/><line style="stroke:#0A9EFD;stroke-width:2;" x1="83.3333" x2="83.3333" y1="224.7106" y2="237.7106"/><line style="stroke:#0A9EFD;stroke-width:2;" x1="42.3333" x2="83.3333" y1="237.7106" y2="237.7106"/><polygon fill="#0A9EFD" points="52.3333,233.7106,42.3333,237.7106,52.3333,241.7106,48.3333,237.7106" style="stroke:#0A9EFD;stroke-width:1;"/><text fill="#0A9EFD" font-family="Arial" font-size="13" lengthAdjust="spacing" textLength="218.207" x="48.3333" y="205.007">Extract and process raw audio frames</text><text fill="#0A9EFD" font-family="Arial" font-size="13" lengthAdjust="spacing" textLength="122.8462" x="97.8197" y="219.9557">using Web Audio API</text></g><g class="message" data-participant-1="APP" data-participant-2="SDK"><polygon fill="#0A9EFD" points="307.0469,262.6593,317.0469,266.6593,307.0469,270.6593,311.0469,266.6593" style="stroke:#0A9EFD;stroke-width:1;"/><line style="stroke:#0A9EFD;stroke-width:2;" x1="41.3333" x2="313.0469" y1="266.6593" y2="266.6593"/><text fill="#0A9EFD" font-family="Arial" font-size="13" lengthAdjust="spacing" textLength="247.1587" x="56.6108" y="261.9045">Publish the local audio track to the channel</text></g><g class="message" data-participant-1="SDK" data-participant-2="RTN"><polygon fill="#0A9EFD" points="555.2511,291.6081,565.2511,295.6081,555.2511,299.6081,559.2511,295.6081" style="stroke:#0A9EFD;stroke-width:1;"/><line style="stroke:#0A9EFD;stroke-width:2;" x1="319.0469" x2="561.2511" y1="295.6081" y2="295.6081"/><text fill="#0A9EFD" font-family="Arial" font-size="13" lengthAdjust="spacing" textLength="192.2197" x="347.0391" y="290.8532">Send audio stream to other users</text></g><!--SRC=[TP5DIWD148NtVOfo5kuK5ww641XY5gB8a0JS25BJKvbfqgaU-WUZX_8GdipgJ4GqoRRVzrwzghumh6rg2R1p7b_3nl2rILkhLEDsK5J3KAW1VJJQ3CWHYaam7rJUtamdbn4RIt5Q00QewbeHjo2kWtMnci7oxk6ytU8x-J3Q1Vndht8VUL-idhu-puTewr8xPWZvco5zu6gQSqkOUS8e6p8O3X5P4xWrZ0Fct1acfJhlqW2rTvf208zlWAar3bgCU38ChDDe3rJqg3TAz8m9NSBZaNe8sQlpNNwBKgc5uMZcskEMmWj32eOxUAO6ghrGrVT_kjIfiIRq47iwhWFHxGNT8pFPdtPofHAM-KuZ6w8ijCsm4zhBJFcKV4Vr3G00]--></g></svg>