<?xml version="1.0" encoding="us-ascii" standalone="no"?><svg xmlns="http://www.w3.org/2000/svg" xmlns:xlink="http://www.w3.org/1999/xlink" contentStyleType="text/css" height="604px" preserveAspectRatio="none" style="width:633px;height:604px;" version="1.1" viewBox="0 0 633 604" width="633px" zoomAndPan="magnify"><defs/><g><rect fill="none" height="602.7723" style="stroke:#0A9EFD;stroke-width:1.0;" width="631.3333" x="0" y="0"/><rect fill="#999999" fill-opacity="0.33333" height="592.7723" style="stroke:#0A9EFD;stroke-width:0.5;" width="50.6667" x="16" y="6"/><text fill="#0A9EFD" font-family="sans-serif" font-size="13" font-weight="bold" lengthAdjust="spacing" textLength="28" x="27.3333" y="18.5684">App</text><rect fill="#999999" fill-opacity="0.33333" height="592.7723" style="stroke:#0A9EFD;stroke-width:0.5;" width="74" x="252" y="6"/><text fill="#0A9EFD" font-family="sans-serif" font-size="13" font-weight="bold" lengthAdjust="spacing" textLength="68" x="255" y="18.5684">Video SDK</text><rect fill="#999999" fill-opacity="0.33333" height="592.7723" style="stroke:#0A9EFD;stroke-width:0.5;" width="107" x="520.3333" y="6"/><text fill="#0A9EFD" font-family="sans-serif" font-size="13" font-weight="bold" lengthAdjust="spacing" textLength="101" x="523.3333" y="18.5684">Agora SDRTN&#174;</text><rect fill="#0A9EFD" fill-opacity="0.06667" height="277.436" style="stroke:#0A9EFD;stroke-width:2.0;" width="595.1667" x="10" y="112.9259"/><rect fill="#0A9EFD" fill-opacity="0.06667" height="132.7437" style="stroke:#0A9EFD;stroke-width:2.0;" width="595.1667" x="10" y="404.362"/><line style="stroke:#0A9EFD;stroke-width:0.5;stroke-dasharray:5.0,5.0;" x1="41" x2="41" y1="66.9772" y2="554.1056"/><line style="stroke:#0A9EFD;stroke-width:0.5;stroke-dasharray:5.0,5.0;" x1="288.6667" x2="288.6667" y1="66.9772" y2="554.1056"/><line style="stroke:#0A9EFD;stroke-width:0.5;stroke-dasharray:5.0,5.0;" x1="573.5" x2="573.5" y1="66.9772" y2="554.1056"/><rect fill="none" height="40.6667" rx="2.5" ry="2.5" style="stroke:#0A9EFD;stroke-width:2.0;" width="42.6667" x="20" y="25.3105"/><path d="M29.1333,32.3105 C28.5333,32.3105 28,32.8439 28,33.4439 L28,57.8105 C28,58.4105 28.5333,58.9439 29.1333,58.9439 L50.1667,58.9439 C50.7667,58.9439 51.3,58.4105 51.3,57.8105 L51.3,33.4439 C51.3,32.8439 50.7667,32.3105 50.1667,32.3105 L29.1333,32.3105 M31.3333,35.6439 L48,35.6439 L48,52.3105 L31.3333,52.3105 L31.3333,35.6439 M39.6667,53.9772 C40.9333,53.9772 41.7667,55.3772 41.1333,56.4772 C40.5,57.5772 38.8667,57.5772 38.2,56.4772 C37.5667,55.3772 38.3667,53.9772 39.6667,53.9772 " fill="#0A9EFD" style="stroke:;stroke-width:0.0;stroke-dasharray:;"/><rect fill="none" height="40.6667" rx="2.5" ry="2.5" style="stroke:#0A9EFD;stroke-width:2.0;" width="42.6667" x="20" y="553.1056"/><path d="M29.1333,560.1056 C28.5333,560.1056 28,560.639 28,561.239 L28,585.6056 C28,586.2056 28.5333,586.739 29.1333,586.739 L50.1667,586.739 C50.7667,586.739 51.3,586.2056 51.3,585.6056 L51.3,561.239 C51.3,560.639 50.7667,560.1056 50.1667,560.1056 L29.1333,560.1056 M31.3333,563.439 L48,563.439 L48,580.1056 L31.3333,580.1056 L31.3333,563.439 M39.6667,581.7723 C40.9333,581.7723 41.7667,583.1723 41.1333,584.2723 C40.5,585.3723 38.8667,585.3723 38.2,584.2723 C37.5667,583.1723 38.3667,581.7723 39.6667,581.7723 " fill="#0A9EFD" style="stroke:;stroke-width:0.0;stroke-dasharray:;"/><rect fill="none" height="40.6667" rx="2.5" ry="2.5" style="stroke:#0A9EFD;stroke-width:2.0;" width="42.6667" x="267.6667" y="25.3105"/><path d="M275.6667,32.3105 L275.6667,45.6439 L289,45.6439 L289,32.3105 L275.6667,32.3105 M292.3333,38.9772 L292.3333,48.9772 L282.3333,48.9772 L282.3333,52.3105 L295.6667,52.3105 L295.6667,38.9772 L292.3333,38.9772 M299,45.6439 L299,55.6439 L289,55.6439 L289,58.9772 L302.3333,58.9772 L302.3333,45.6439 L299,45.6439 " fill="#0A9EFD" style="stroke:;stroke-width:0.0;stroke-dasharray:;"/><rect fill="none" height="40.6667" rx="2.5" ry="2.5" style="stroke:#0A9EFD;stroke-width:2.0;" width="42.6667" x="267.6667" y="553.1056"/><path d="M275.6667,560.1056 L275.6667,573.439 L289,573.439 L289,560.1056 L275.6667,560.1056 M292.3333,566.7723 L292.3333,576.7723 L282.3333,576.7723 L282.3333,580.1056 L295.6667,580.1056 L295.6667,566.7723 L292.3333,566.7723 M299,573.439 L299,583.439 L289,583.439 L289,586.7723 L302.3333,586.7723 L302.3333,573.439 L299,573.439 " fill="#0A9EFD" style="stroke:;stroke-width:0.0;stroke-dasharray:;"/><rect fill="none" height="40.6667" rx="2.5" ry="2.5" style="stroke:#0A9EFD;stroke-width:2.0;" width="42.6667" x="552.5" y="25.3105"/><path d="M575.5,32.3105 C571.4667,32.3105 567.9333,35.1772 567.1667,38.9772 C563.5,38.9772 560.5,41.9772 560.5,45.6439 C560.5,49.3105 563.5,52.3105 567.1667,52.3105 L582.1667,52.3105 C584.9333,52.3105 587.1667,50.0772 587.1667,47.3105 C587.1667,45.1439 585.7667,43.0105 583.8333,42.3105 L583.8333,40.6439 C583.8333,36.0439 580.1,32.3105 575.5,32.3105 " fill="#0A9EFD" style="stroke:;stroke-width:0.0;stroke-dasharray:;"/><rect fill="none" height="40.6667" rx="2.5" ry="2.5" style="stroke:#0A9EFD;stroke-width:2.0;" width="42.6667" x="552.5" y="553.1056"/><path d="M575.5,560.1056 C571.4667,560.1056 567.9333,562.9723 567.1667,566.7723 C563.5,566.7723 560.5,569.7723 560.5,573.439 C560.5,577.1056 563.5,580.1056 567.1667,580.1056 L582.1667,580.1056 C584.9333,580.1056 587.1667,577.8723 587.1667,575.1056 C587.1667,572.939 585.7667,570.8056 583.8333,570.1056 L583.8333,568.439 C583.8333,563.839 580.1,560.1056 575.5,560.1056 " fill="#0A9EFD" style="stroke:;stroke-width:0.0;stroke-dasharray:;"/><polygon fill="#0A9EFD" points="277,93.9259,287,97.9259,277,101.9259,281,97.9259" style="stroke:#0A9EFD;stroke-width:1.0;"/><line style="stroke:#0A9EFD;stroke-width:2.0;" x1="41.3333" x2="283" y1="97.9259" y2="97.9259"/><text fill="#0A9EFD" font-family="Arial" font-size="13" lengthAdjust="spacing" textLength="206" x="62.1667" y="93.1711">Create an instance of Agora Engine</text><path d="M10,112.9259 L191,112.9259 L191,119.8747 L181,129.8747 L10,129.8747 L10,112.9259 " fill="#EEEEEE" style="stroke:#0A9EFD;stroke-width:1.5;"/><rect fill="none" height="277.436" style="stroke:#0A9EFD;stroke-width:2.0;" width="595.1667" x="10" y="112.9259"/><text fill="#000000" font-family="Arial" font-size="13" lengthAdjust="spacing" textLength="136" x="25" y="126.1198">Process raw audio data</text><polygon fill="#0A9EFD" points="277,146.8234,287,150.8234,277,154.8234,281,150.8234" style="stroke:#0A9EFD;stroke-width:1.0;"/><line style="stroke:#0A9EFD;stroke-width:2.0;" x1="41.3333" x2="283" y1="150.8234" y2="150.8234"/><text fill="#0A9EFD" font-family="Arial" font-size="13" lengthAdjust="spacing" textLength="159" x="85.6667" y="146.0685">Register the audio observer</text><polygon fill="#0A9EFD" points="561.8333,175.7721,571.8333,179.7721,561.8333,183.7721,565.8333,179.7721" style="stroke:#0A9EFD;stroke-width:1.0;"/><line style="stroke:#0A9EFD;stroke-width:2.0;" x1="289" x2="567.8333" y1="179.7721" y2="179.7721"/><text fill="#0A9EFD" font-family="Arial" font-size="13" lengthAdjust="spacing" textLength="221" x="320.9167" y="175.0173">Request to register the audio observer</text><polygon fill="#0A9EFD" points="277,204.7209,287,208.7209,277,212.7209,281,208.7209" style="stroke:#0A9EFD;stroke-width:1.0;"/><line style="stroke:#0A9EFD;stroke-width:2.0;" x1="41.3333" x2="283" y1="208.7209" y2="208.7209"/><text fill="#0A9EFD" font-family="Arial" font-size="13" lengthAdjust="spacing" textLength="95" x="117.6667" y="203.966">Join the channel</text><polygon fill="#0A9EFD" points="561.8333,233.6696,571.8333,237.6696,561.8333,241.6696,565.8333,237.6696" style="stroke:#0A9EFD;stroke-width:1.0;"/><line style="stroke:#0A9EFD;stroke-width:2.0;" x1="289" x2="567.8333" y1="237.6696" y2="237.6696"/><text fill="#0A9EFD" font-family="Arial" font-size="13" lengthAdjust="spacing" textLength="136" x="363.4167" y="232.9147">Request to join channel</text><polygon fill="#0A9EFD" points="52.3333,277.5671,42.3333,281.5671,52.3333,285.5671,48.3333,281.5671" style="stroke:#0A9EFD;stroke-width:1.0;"/><line style="stroke:#0A9EFD;stroke-width:2.0;stroke-dasharray:2.0,2.0;" x1="46.3333" x2="288" y1="281.5671" y2="281.5671"/><text fill="#0A9EFD" font-family="Arial" font-size="13" lengthAdjust="spacing" textLength="170" x="80.1667" y="261.8634">Get raw audio data from SDK</text><text fill="#0A9EFD" font-family="Arial" font-size="13" lengthAdjust="spacing" textLength="156" x="89.1667" y="276.8122">through registered callback</text><line style="stroke:#0A9EFD;stroke-width:2.0;" x1="41.3333" x2="83.3333" y1="325.4645" y2="325.4645"/><line style="stroke:#0A9EFD;stroke-width:2.0;" x1="83.3333" x2="83.3333" y1="325.4645" y2="338.4645"/><line style="stroke:#0A9EFD;stroke-width:2.0;" x1="42.3333" x2="83.3333" y1="338.4645" y2="338.4645"/><polygon fill="#0A9EFD" points="52.3333,334.4645,42.3333,338.4645,52.3333,342.4645,48.3333,338.4645" style="stroke:#0A9EFD;stroke-width:1.0;"/><text fill="#0A9EFD" font-family="Arial" font-size="13" lengthAdjust="spacing" textLength="218" x="48.3333" y="305.7609">Process audio data for local playback</text><text fill="#0A9EFD" font-family="Arial" font-size="13" lengthAdjust="spacing" textLength="160" x="79.3333" y="320.7096">or sending back to the SDK</text><polygon fill="#0A9EFD" points="277,378.362,287,382.362,277,386.362,281,382.362" style="stroke:#0A9EFD;stroke-width:1.0;"/><line style="stroke:#0A9EFD;stroke-width:2.0;" x1="41.3333" x2="283" y1="382.362" y2="382.362"/><text fill="#0A9EFD" font-family="Arial" font-size="13" lengthAdjust="spacing" textLength="212" x="59.1667" y="362.6584">Send the processed audio data back</text><text fill="#0A9EFD" font-family="Arial" font-size="13" lengthAdjust="spacing" textLength="178" x="78.1667" y="377.6071">through the registered callback</text><path d="M10,404.362 L161,404.362 L161,411.3107 L151,421.3107 L10,421.3107 L10,404.362 " fill="#EEEEEE" style="stroke:#0A9EFD;stroke-width:1.5;"/><rect fill="none" height="132.7437" style="stroke:#0A9EFD;stroke-width:2.0;" width="595.1667" x="10" y="404.362"/><text fill="#000000" font-family="Arial" font-size="13" lengthAdjust="spacing" textLength="106" x="25" y="417.5558">Leave the channel</text><polygon fill="#0A9EFD" points="277,438.2594,287,442.2594,277,446.2594,281,442.2594" style="stroke:#0A9EFD;stroke-width:1.0;"/><line style="stroke:#0A9EFD;stroke-width:2.0;" x1="41.3333" x2="283" y1="442.2594" y2="442.2594"/><text fill="#0A9EFD" font-family="Arial" font-size="13" lengthAdjust="spacing" textLength="170" x="80.1667" y="437.5046">Unregister the audio observer</text><polygon fill="#0A9EFD" points="277,467.2082,287,471.2082,277,475.2082,281,471.2082" style="stroke:#0A9EFD;stroke-width:1.0;"/><line style="stroke:#0A9EFD;stroke-width:2.0;" x1="41.3333" x2="283" y1="471.2082" y2="471.2082"/><text fill="#0A9EFD" font-family="Arial" font-size="13" lengthAdjust="spacing" textLength="106" x="112.1667" y="466.4533">Leave the channel</text><polygon fill="#0A9EFD" points="561.8333,496.1569,571.8333,500.1569,561.8333,504.1569,565.8333,500.1569" style="stroke:#0A9EFD;stroke-width:1.0;"/><line style="stroke:#0A9EFD;stroke-width:2.0;" x1="289" x2="567.8333" y1="500.1569" y2="500.1569"/><text fill="#0A9EFD" font-family="Arial" font-size="13" lengthAdjust="spacing" textLength="169" x="346.9167" y="495.402">Request to leave the channel</text><polygon fill="#0A9EFD" points="277,525.1056,287,529.1056,277,533.1056,281,529.1056" style="stroke:#0A9EFD;stroke-width:1.0;"/><line style="stroke:#0A9EFD;stroke-width:2.0;" x1="41.3333" x2="283" y1="529.1056" y2="529.1056"/><text fill="#0A9EFD" font-family="Arial" font-size="13" lengthAdjust="spacing" textLength="109" x="110.6667" y="524.3507">Destroy the engine</text><!--SRC=[ZPB1Ji9048RlVOgn1syO3vu88I5gJDGO0kh9n4otGrbPTklk5iM7yY5yCcSenO92F3NP_UQRVsTwfAqoLKw0XVFu76RQdkXgRf8aS- -G3ieoJKhqKIjTeesGzeB-eExPQRzt734p5FifO831S9YGpO6hrgMFEYS7uukR_GA3I_AX5Z2u8nX88ZuVtTzzVUwNAEEgl7Om-UFWHD3fYxSBvvumyXijQ1iYMaNW9b0tkBI5jfGaXNTL2KFl58K07jy0grmxo37Ybcn4XGwHFCGfhHcN1V8ByWa3md4GuLuh2X6Y0t-WfAs-Tjgk63L5Qydiyxq8rp0Yw7KwjU6Auavsc7WtbyidKVCZY-ac3-MWq9WCrQp9mP_kPWfjY_DW7DDGyjgaWdry5dZWsXOW9n9DqiiksyyQorBaegoztBPbNhkQRCBzbOyTpP9k2HUqDQTsjmVxtt7_zkoPjpdOy88fxvQhUwh_9Wdx3G00]--></g></svg>