<svg xmlns="http://www.w3.org/2000/svg" xmlns:xlink="http://www.w3.org/1999/xlink" contentStyleType="text/css" data-diagram-type="SEQUENCE" height="356px" preserveAspectRatio="none" style="width:657px;height:356px;" version="1.1" viewBox="0 0 657 356" width="657px" zoomAndPan="magnify"><defs/><g><rect fill="none" height="354.326" style="stroke:#0A9EFD;stroke-width:1;" width="655.2923" x="0" y="0"/><rect fill="#999999" fill-opacity="0.33333" height="344.326" style="stroke:#0A9EFD;stroke-width:0.5;" width="50.6667" x="16" y="6"/><text fill="#0A9EFD" font-family="sans-serif" font-size="13" font-weight="bold" lengthAdjust="spacing" textLength="25.27" x="28.6983" y="19.4951">App</text><rect fill="#999999" fill-opacity="0.33333" height="344.326" style="stroke:#0A9EFD;stroke-width:0.5;" width="63.7764" x="347.1924" y="6"/><text fill="#0A9EFD" font-family="sans-serif" font-size="13" font-weight="bold" lengthAdjust="spacing" textLength="57.7764" x="350.1924" y="19.4951">RTC SDK</text><rect fill="#999999" fill-opacity="0.33333" height="344.326" style="stroke:#0A9EFD;stroke-width:0.5;" width="101.5259" x="549.7664" y="6"/><text fill="#0A9EFD" font-family="sans-serif" font-size="13" font-weight="bold" lengthAdjust="spacing" textLength="95.5259" x="552.7664" y="19.4951">Agora SDRTN&#174;</text><rect fill="#0A9EFD" fill-opacity="0.06667" height="174.6924" style="stroke:#0A9EFD;stroke-width:2;" width="621.8627" x="10" y="113.967"/><g><title>&lt;size:40&gt;&lt;&amp;tablet&gt;</title><rect fill="#000000" fill-opacity="0.00000" height="237.6411" width="8" x="37.3333" y="68.0182"/><line style="stroke:#0A9EFD;stroke-width:0.5;stroke-dasharray:5.0,5.0;" x1="41" x2="41" y1="68.0182" y2="305.6593"/></g><g><title>&lt;size:40&gt;&lt;&amp;layers&gt;</title><rect fill="#000000" fill-opacity="0.00000" height="237.6411" width="8" x="375.0806" y="68.0182"/><line style="stroke:#0A9EFD;stroke-width:0.5;stroke-dasharray:5.0,5.0;" x1="378.7472" x2="378.7472" y1="68.0182" y2="305.6593"/></g><g><title>&lt;size:40&gt;&lt;&amp;cloud&gt;</title><rect fill="#000000" fill-opacity="0.00000" height="237.6411" width="8" x="596.5294" y="68.0182"/><line style="stroke:#0A9EFD;stroke-width:0.5;stroke-dasharray:5.0,5.0;" x1="600.196" x2="600.196" y1="68.0182" y2="305.6593"/></g><g class="participant participant-head" data-participant="APP"><rect fill="none" height="40.6667" rx="2.5" ry="2.5" style="stroke:#0A9EFD;stroke-width:2;" width="42.6667" x="20" y="26.3516"/><path d="M29.1333,33.3516 C28.5333,33.3516 28,33.8849 28,34.4849 L28,58.8516 C28,59.4516 28.5333,59.9849 29.1333,59.9849 L50.1667,59.9849 C50.7667,59.9849 51.3,59.4516 51.3,58.8516 L51.3,34.4849 C51.3,33.8849 50.7667,33.3516 50.1667,33.3516 L29.1333,33.3516 M31.3333,36.6849 L48,36.6849 L48,53.3516 L31.3333,53.3516 L31.3333,36.6849 M39.6667,55.0182 C40.9333,55.0182 41.7667,56.4182 41.1333,57.5182 C40.5,58.6182 38.8667,58.6182 38.2,57.5182 C37.5667,56.4182 38.3667,55.0182 39.6667,55.0182" fill="#0A9EFD"/></g><g class="participant participant-tail" data-participant="APP"><rect fill="none" height="40.6667" rx="2.5" ry="2.5" style="stroke:#0A9EFD;stroke-width:2;" width="42.6667" x="20" y="304.6593"/><path d="M29.1333,311.6593 C28.5333,311.6593 28,312.1927 28,312.7927 L28,337.1593 C28,337.7593 28.5333,338.2927 29.1333,338.2927 L50.1667,338.2927 C50.7667,338.2927 51.3,337.7593 51.3,337.1593 L51.3,312.7927 C51.3,312.1927 50.7667,311.6593 50.1667,311.6593 L29.1333,311.6593 M31.3333,314.9927 L48,314.9927 L48,331.6593 L31.3333,331.6593 L31.3333,314.9927 M39.6667,333.326 C40.9333,333.326 41.7667,334.726 41.1333,335.826 C40.5,336.926 38.8667,336.926 38.2,335.826 C37.5667,334.726 38.3667,333.326 39.6667,333.326" fill="#0A9EFD"/></g><g class="participant participant-head" data-participant="SDK"><rect fill="none" height="40.6667" rx="2.5" ry="2.5" style="stroke:#0A9EFD;stroke-width:2;" width="42.6667" x="357.7472" y="26.3516"/><path d="M365.7472,33.3516 L365.7472,46.6849 L379.0806,46.6849 L379.0806,33.3516 L365.7472,33.3516 M382.4139,40.0182 L382.4139,50.0182 L372.4139,50.0182 L372.4139,53.3516 L385.7472,53.3516 L385.7472,40.0182 L382.4139,40.0182 M389.0806,46.6849 L389.0806,56.6849 L379.0806,56.6849 L379.0806,60.0182 L392.4139,60.0182 L392.4139,46.6849 L389.0806,46.6849" fill="#0A9EFD"/></g><g class="participant participant-tail" data-participant="SDK"><rect fill="none" height="40.6667" rx="2.5" ry="2.5" style="stroke:#0A9EFD;stroke-width:2;" width="42.6667" x="357.7472" y="304.6593"/><path d="M365.7472,311.6593 L365.7472,324.9927 L379.0806,324.9927 L379.0806,311.6593 L365.7472,311.6593 M382.4139,318.326 L382.4139,328.326 L372.4139,328.326 L372.4139,331.6593 L385.7472,331.6593 L385.7472,318.326 L382.4139,318.326 M389.0806,324.9927 L389.0806,334.9927 L379.0806,334.9927 L379.0806,338.326 L392.4139,338.326 L392.4139,324.9927 L389.0806,324.9927" fill="#0A9EFD"/></g><g class="participant participant-head" data-participant="RTN"><rect fill="none" height="40.6667" rx="2.5" ry="2.5" style="stroke:#0A9EFD;stroke-width:2;" width="42.6667" x="579.196" y="26.3516"/><path d="M602.196,36.6849 C598.1627,36.6849 594.6294,39.5516 593.8627,43.3516 C590.196,43.3516 587.196,46.3516 587.196,50.0182 C587.196,53.6849 590.196,56.6849 593.8627,56.6849 L608.8627,56.6849 C611.6294,56.6849 613.8627,54.4516 613.8627,51.6849 C613.8627,49.5182 612.4627,47.3849 610.5294,46.6849 L610.5294,45.0182 C610.5294,40.4182 606.796,36.6849 602.196,36.6849" fill="#0A9EFD"/></g><g class="participant participant-tail" data-participant="RTN"><rect fill="none" height="40.6667" rx="2.5" ry="2.5" style="stroke:#0A9EFD;stroke-width:2;" width="42.6667" x="579.196" y="304.6593"/><path d="M602.196,314.9927 C598.1627,314.9927 594.6294,317.8593 593.8627,321.6593 C590.196,321.6593 587.196,324.6593 587.196,328.326 C587.196,331.9927 590.196,334.9927 593.8627,334.9927 L608.8627,334.9927 C611.6294,334.9927 613.8627,332.7593 613.8627,329.9927 C613.8627,327.826 612.4627,325.6927 610.5294,324.9927 L610.5294,323.326 C610.5294,318.726 606.796,314.9927 602.196,314.9927" fill="#0A9EFD"/></g><g class="message" data-participant-1="APP" data-participant-2="SDK"><polygon fill="#0A9EFD" points="367.0806,94.967,377.0806,98.967,367.0806,102.967,371.0806,98.967" style="stroke:#0A9EFD;stroke-width:1;"/><line style="stroke:#0A9EFD;stroke-width:2;" x1="41.3333" x2="373.0806" y1="98.967" y2="98.967"/><text fill="#0A9EFD" font-family="Arial" font-size="13" lengthAdjust="spacing" textLength="205.9688" x="107.2226" y="94.2121">Create an instance of Agora Engine</text></g><path d="M10,113.967 L190.1226,113.967 L190.1226,120.9157 L180.1226,130.9157 L10,130.9157 L10,113.967" fill="#EEEEEE" style="stroke:#0A9EFD;stroke-width:1.5;"/><rect fill="none" height="174.6924" style="stroke:#0A9EFD;stroke-width:2;" width="621.8627" x="10" y="113.967"/><text fill="#000000" font-family="Arial" font-size="13" lengthAdjust="spacing" textLength="135.1226" x="25" y="127.1608">Process raw video data</text><g class="message" data-participant-1="APP" data-participant-2="SDK"><polygon fill="#0A9EFD" points="367.0806,147.8644,377.0806,151.8644,367.0806,155.8644,371.0806,151.8644" style="stroke:#0A9EFD;stroke-width:1;"/><line style="stroke:#0A9EFD;stroke-width:2;" x1="41.3333" x2="373.0806" y1="151.8644" y2="151.8644"/><text fill="#0A9EFD" font-family="Arial" font-size="13" lengthAdjust="spacing" textLength="146.6816" x="136.8661" y="147.1095">Create a local video track</text></g><g class="message" data-participant-1="SDK" data-participant-2="APP"><polygon fill="#0A9EFD" points="52.3333,176.8132,42.3333,180.8132,52.3333,184.8132,48.3333,180.8132" style="stroke:#0A9EFD;stroke-width:1;"/><line style="stroke:#0A9EFD;stroke-width:2;" x1="46.3333" x2="378.0806" y1="180.8132" y2="180.8132"/><text fill="#0A9EFD" font-family="Arial" font-size="13" lengthAdjust="spacing" textLength="97.5508" x="161.4316" y="176.0583">Local video track</text></g><g class="message" data-participant-1="APP" data-participant-2="APP"><line style="stroke:#0A9EFD;stroke-width:2;" x1="41.3333" x2="83.3333" y1="209.7619" y2="209.7619"/><line style="stroke:#0A9EFD;stroke-width:2;" x1="83.3333" x2="83.3333" y1="209.7619" y2="222.7619"/><line style="stroke:#0A9EFD;stroke-width:2;" x1="42.3333" x2="83.3333" y1="222.7619" y2="222.7619"/><polygon fill="#0A9EFD" points="52.3333,218.7619,42.3333,222.7619,52.3333,226.7619,48.3333,222.7619" style="stroke:#0A9EFD;stroke-width:1;"/><text fill="#0A9EFD" font-family="Arial" font-size="13" lengthAdjust="spacing" textLength="317.1924" x="48.3333" y="205.007">Extract and modify raw video frames using Canvas API</text></g><g class="message" data-participant-1="APP" data-participant-2="SDK"><polygon fill="#0A9EFD" points="367.0806,247.7106,377.0806,251.7106,367.0806,255.7106,371.0806,251.7106" style="stroke:#0A9EFD;stroke-width:1;"/><line style="stroke:#0A9EFD;stroke-width:2;" x1="41.3333" x2="373.0806" y1="251.7106" y2="251.7106"/><text fill="#0A9EFD" font-family="Arial" font-size="13" lengthAdjust="spacing" textLength="234.1333" x="93.1403" y="246.9557">Publish processed frames in the channel</text></g><g class="message" data-participant-1="SDK" data-participant-2="RTN"><polygon fill="#0A9EFD" points="588.5294,276.6593,598.5294,280.6593,588.5294,284.6593,592.5294,280.6593" style="stroke:#0A9EFD;stroke-width:1;"/><line style="stroke:#0A9EFD;stroke-width:2;" x1="379.0806" x2="594.5294" y1="280.6593" y2="280.6593"/><text fill="#0A9EFD" font-family="Arial" font-size="13" lengthAdjust="spacing" textLength="165.4644" x="407.0728" y="275.9045">Publish a custom video track</text></g><!--SRC=[TP1DJW9144RtVOfo5kuqBbnDo2G4MHYDcI1xKtGNGuMUwad_87We3-79x64WYCgswdjVlwuh5csJ8S36UNmBQvPRJgrLQk6sK8oxhb0T-iYQEvG8nIZm1vNtTzNeEkB2KgmAm03ZkbOa1Z9rG6Vp2Rm-F5t6BUx8Xm7FmL_ukFV9yzdyvUlpSecsBfcX8oTF7Ta7Rgg-juI99upvXm8i8Q9e0hU4uO6fD2oaLEDTwg3sJbC8uF4TDcp8WS68_vQ1THhj8HKzwhNA-pwMqoKy_zaUIlRRwRQVnQnae7M6bxiVJouzjXGW1PO69YYR_NaVpopgjB0SLj0DmcIE50l45O5UeGZPer8-pOb1q2b4rvxPvSEfRm00]--></g></svg>