<svg xmlns="http://www.w3.org/2000/svg" xmlns:xlink="http://www.w3.org/1999/xlink" contentStyleType="text/css" data-diagram-type="SEQUENCE" height="1019px" preserveAspectRatio="none" style="width:564px;height:1019px;" version="1.1" viewBox="0 0 564 1019" width="564px" zoomAndPan="magnify"><defs/><g><rect fill="none" height="1017.813" style="stroke:#0A9EFD;stroke-width:1;" width="562.3877" x="0" y="0"/><rect fill="#999999" fill-opacity="0.33333" height="1007.813" style="stroke:#0A9EFD;stroke-width:0.5;" width="83.4482" x="136.3887" y="6"/><text fill="#0A9EFD" font-family="sans-serif" font-size="13" font-weight="bold" lengthAdjust="spacing" textLength="56.3354" x="149.9451" y="19.4951">Your app</text><rect fill="#999999" fill-opacity="0.33333" height="1007.813" style="stroke:#0A9EFD;stroke-width:0.5;" width="80.5361" x="471.8516" y="6"/><text fill="#0A9EFD" font-family="sans-serif" font-size="13" font-weight="bold" lengthAdjust="spacing" textLength="37.5591" x="493.3401" y="19.4951">Agora</text><rect fill="#0A9EFD" fill-opacity="0.06667" height="116.7949" style="stroke:#0A9EFD;stroke-width:2;" width="548.3877" x="10" y="272.8423"/><rect fill="#0A9EFD" fill-opacity="0.06667" height="103.7949" style="stroke:#0A9EFD;stroke-width:2;" width="427.999" x="130.3887" y="403.6372"/><rect fill="#0A9EFD" fill-opacity="0.06667" height="333.3848" style="stroke:#0A9EFD;stroke-width:2;" width="548.3877" x="10" y="521.4321"/><g><title>User</title><rect fill="#000000" fill-opacity="0.00000" height="843.6157" width="8" x="33.7793" y="86.0986"/><line style="stroke:#0A9EFD;stroke-width:0.5;stroke-dasharray:5.0,5.0;" x1="37" x2="37" y1="86.0986" y2="929.7144"/></g><g><title>RTC SDK</title><rect fill="#000000" fill-opacity="0.00000" height="843.6157" width="8" x="174.1128" y="86.0986"/><line style="stroke:#0A9EFD;stroke-width:0.5;stroke-dasharray:5.0,5.0;" x1="177.3887" x2="177.3887" y1="86.0986" y2="929.7144"/></g><g><title>SDRTN&#174;</title><rect fill="#000000" fill-opacity="0.00000" height="843.6157" width="8" x="508.1196" y="86.0986"/><line style="stroke:#0A9EFD;stroke-width:0.5;stroke-dasharray:5.0,5.0;" x1="511.8516" x2="511.8516" y1="86.0986" y2="929.7144"/></g><g class="participant participant-head" data-participant="USR"><text fill="#0A9EFD" font-family="Arial" font-size="14" lengthAdjust="spacing" textLength="29.5586" x="20" y="83.1318">User</text><ellipse cx="37.7793" cy="16" fill="none" rx="8" ry="8" style="stroke:#0A9EFD;stroke-width:3;"/><path d="M37.7793,24 L37.7793,51 M24.7793,32 L50.7793,32 M37.7793,51 L24.7793,66 M37.7793,51 L50.7793,66" fill="none" style="stroke:#0A9EFD;stroke-width:3;"/></g><g class="participant participant-tail" data-participant="USR"><text fill="#0A9EFD" font-family="Arial" font-size="14" lengthAdjust="spacing" textLength="29.5586" x="20" y="941.8462">User</text><ellipse cx="37.7793" cy="955.813" fill="none" rx="8" ry="8" style="stroke:#0A9EFD;stroke-width:3;"/><path d="M37.7793,963.813 L37.7793,990.813 M24.7793,971.813 L50.7793,971.813 M37.7793,990.813 L24.7793,1005.813 M37.7793,990.813 L50.7793,1005.813" fill="none" style="stroke:#0A9EFD;stroke-width:3;"/></g><g class="participant participant-head" data-participant="APP"><rect fill="none" height="30.0986" rx="2.5" ry="2.5" style="stroke:#0A9EFD;stroke-width:2;" width="75.4482" x="140.3887" y="55"/><text fill="#0A9EFD" font-family="Arial" font-size="14" lengthAdjust="spacing" textLength="61.4482" x="147.3887" y="75.1318">RTC SDK</text></g><g class="participant participant-tail" data-participant="APP"><rect fill="none" height="30.0986" rx="2.5" ry="2.5" style="stroke:#0A9EFD;stroke-width:2;" width="75.4482" x="140.3887" y="928.7144"/><text fill="#0A9EFD" font-family="Arial" font-size="14" lengthAdjust="spacing" textLength="61.4482" x="147.3887" y="948.8462">RTC SDK</text></g><g class="participant participant-head" data-participant="API"><rect fill="none" height="30.0986" rx="2.5" ry="2.5" style="stroke:#0A9EFD;stroke-width:2;" width="72.5361" x="475.8516" y="55"/><text fill="#0A9EFD" font-family="Arial" font-size="14" lengthAdjust="spacing" textLength="58.5361" x="482.8516" y="75.1318">SDRTN&#174;</text></g><g class="participant participant-tail" data-participant="API"><rect fill="none" height="30.0986" rx="2.5" ry="2.5" style="stroke:#0A9EFD;stroke-width:2;" width="72.5361" x="475.8516" y="928.7144"/><text fill="#0A9EFD" font-family="Arial" font-size="14" lengthAdjust="spacing" textLength="58.5361" x="482.8516" y="948.8462">SDRTN&#174;</text></g><g class="message" data-participant-1="USR" data-participant-2="APP"><polygon fill="#0A9EFD" points="166.1128,113.0474,176.1128,117.0474,166.1128,121.0474,170.1128,117.0474" style="stroke:#0A9EFD;stroke-width:1;"/><line style="stroke:#0A9EFD;stroke-width:2;" x1="37.7793" x2="172.1128" y1="117.0474" y2="117.0474"/><text fill="#0A9EFD" font-family="Arial" font-size="13" lengthAdjust="spacing" textLength="58.5444" x="78.6738" y="112.2925">Open App</text></g><g class="message" data-participant-1="APP" data-participant-2="APP"><line style="stroke:#0A9EFD;stroke-width:2;" x1="178.1128" x2="220.1128" y1="145.9961" y2="145.9961"/><line style="stroke:#0A9EFD;stroke-width:2;" x1="220.1128" x2="220.1128" y1="145.9961" y2="158.9961"/><line style="stroke:#0A9EFD;stroke-width:2;" x1="179.1128" x2="220.1128" y1="158.9961" y2="158.9961"/><polygon fill="#0A9EFD" points="189.1128,154.9961,179.1128,158.9961,189.1128,162.9961,185.1128,158.9961" style="stroke:#0A9EFD;stroke-width:1;"/><text fill="#0A9EFD" font-family="Arial" font-size="13" lengthAdjust="spacing" textLength="290.4814" x="185.1128" y="141.2412">Use RTC SDK to create an Agora Engine instance</text></g><g class="message" data-participant-1="APP" data-participant-2="APP"><line style="stroke:#0A9EFD;stroke-width:2;" x1="178.1128" x2="220.1128" y1="187.9448" y2="187.9448"/><line style="stroke:#0A9EFD;stroke-width:2;" x1="220.1128" x2="220.1128" y1="187.9448" y2="200.9448"/><line style="stroke:#0A9EFD;stroke-width:2;" x1="179.1128" x2="220.1128" y1="200.9448" y2="200.9448"/><polygon fill="#0A9EFD" points="189.1128,196.9448,179.1128,200.9448,189.1128,204.9448,185.1128,200.9448" style="stroke:#0A9EFD;stroke-width:1;"/><text fill="#0A9EFD" font-family="Arial" font-size="13" lengthAdjust="spacing" textLength="252.2051" x="185.1128" y="183.1899">Create and play the local audio/video tracks</text></g><g class="message" data-participant-1="APP" data-participant-2="APP"><line style="stroke:#0A9EFD;stroke-width:2;" x1="178.1128" x2="220.1128" y1="244.8423" y2="244.8423"/><line style="stroke:#0A9EFD;stroke-width:2;" x1="220.1128" x2="220.1128" y1="244.8423" y2="257.8423"/><line style="stroke:#0A9EFD;stroke-width:2;" x1="179.1128" x2="220.1128" y1="257.8423" y2="257.8423"/><polygon fill="#0A9EFD" points="189.1128,253.8423,179.1128,257.8423,189.1128,261.8423,185.1128,257.8423" style="stroke:#0A9EFD;stroke-width:1;"/><text fill="#0A9EFD" font-family="Arial" font-size="13" lengthAdjust="spacing" textLength="164.0425" x="191.9778" y="225.1387">Bypass autoplay block when</text><text fill="#0A9EFD" font-family="Arial" font-size="13" lengthAdjust="spacing" textLength="177.7725" x="188.7246" y="240.0874">onAutoplayFailed event occurs</text></g><path d="M10,272.8423 L78.8481,272.8423 L78.8481,279.791 L68.8481,289.791 L10,289.791 L10,272.8423" fill="#EEEEEE" style="stroke:#0A9EFD;stroke-width:1.5;"/><rect fill="none" height="116.7949" style="stroke:#0A9EFD;stroke-width:2;" width="548.3877" x="10" y="272.8423"/><text fill="#000000" font-family="Arial" font-size="13" lengthAdjust="spacing" textLength="23.8481" x="25" y="286.0361">Join</text><g class="message" data-participant-1="USR" data-participant-2="APP"><polygon fill="#0A9EFD" points="166.1128,306.7397,176.1128,310.7397,166.1128,314.7397,170.1128,310.7397" style="stroke:#0A9EFD;stroke-width:1;"/><line style="stroke:#0A9EFD;stroke-width:2;" x1="37.7793" x2="172.1128" y1="310.7397" y2="310.7397"/><text fill="#0A9EFD" font-family="Arial" font-size="13" lengthAdjust="spacing" textLength="83.8398" x="66.0261" y="305.9849">Join a channel</text></g><g class="message" data-participant-1="APP" data-participant-2="APP"><line style="stroke:#0A9EFD;stroke-width:2;" x1="178.1128" x2="220.1128" y1="339.6885" y2="339.6885"/><line style="stroke:#0A9EFD;stroke-width:2;" x1="220.1128" x2="220.1128" y1="339.6885" y2="352.6885"/><line style="stroke:#0A9EFD;stroke-width:2;" x1="179.1128" x2="220.1128" y1="352.6885" y2="352.6885"/><polygon fill="#0A9EFD" points="189.1128,348.6885,179.1128,352.6885,189.1128,356.6885,185.1128,352.6885" style="stroke:#0A9EFD;stroke-width:1;"/><text fill="#0A9EFD" font-family="Arial" font-size="13" lengthAdjust="spacing" textLength="266.6777" x="185.1128" y="334.9336">Retrieve authentication token to join a channel</text></g><g class="message" data-participant-1="APP" data-participant-2="API"><polygon fill="#0A9EFD" points="500.1196,377.6372,510.1196,381.6372,500.1196,385.6372,504.1196,381.6372" style="stroke:#0A9EFD;stroke-width:1;"/><line style="stroke:#0A9EFD;stroke-width:2;" x1="178.1128" x2="506.1196" y1="381.6372" y2="381.6372"/><text fill="#0A9EFD" font-family="Arial" font-size="13" lengthAdjust="spacing" textLength="94.6816" x="297.7754" y="376.8823">Join the channel</text></g><path d="M130.3887,403.6372 L304.7476,403.6372 L304.7476,410.5859 L294.7476,420.5859 L130.3887,420.5859 L130.3887,403.6372" fill="#EEEEEE" style="stroke:#0A9EFD;stroke-width:1.5;"/><rect fill="none" height="103.7949" style="stroke:#0A9EFD;stroke-width:2;" width="427.999" x="130.3887" y="403.6372"/><text fill="#000000" font-family="Arial" font-size="13" lengthAdjust="spacing" textLength="129.3589" x="145.3887" y="416.8311">Publish and Subscribe</text><g class="message" data-participant-1="APP" data-participant-2="API"><polygon fill="#0A9EFD" points="500.1196,437.5347,510.1196,441.5347,500.1196,445.5347,504.1196,441.5347" style="stroke:#0A9EFD;stroke-width:1;"/><line style="stroke:#0A9EFD;stroke-width:2;" x1="178.1128" x2="506.1196" y1="441.5347" y2="441.5347"/><text fill="#0A9EFD" font-family="Arial" font-size="13" lengthAdjust="spacing" textLength="310.0068" x="190.1128" y="436.7798">Publish camera and microphone tracks to the channel</text></g><g class="message" data-participant-1="API" data-participant-2="APP"><polygon fill="#0A9EFD" points="189.1128,466.4834,179.1128,470.4834,189.1128,474.4834,185.1128,470.4834" style="stroke:#0A9EFD;stroke-width:1;"/><line style="stroke:#0A9EFD;stroke-width:2;" x1="183.1128" x2="511.1196" y1="470.4834" y2="470.4834"/><text fill="#0A9EFD" font-family="Arial" font-size="13" lengthAdjust="spacing" textLength="208.7998" x="240.7163" y="465.7285">Subscribe to tracks from other users</text></g><g class="message" data-participant-1="APP" data-participant-2="API"><polygon fill="#0A9EFD" points="500.1196,495.4321,510.1196,499.4321,500.1196,503.4321,504.1196,499.4321" style="stroke:#0A9EFD;stroke-width:1;"/><line style="stroke:#0A9EFD;stroke-width:2;" x1="178.1128" x2="506.1196" y1="499.4321" y2="499.4321"/><text fill="#0A9EFD" font-family="Arial" font-size="13" lengthAdjust="spacing" textLength="255.0933" x="217.5696" y="494.6772">Manage local and remote audio/video tracks</text></g><path d="M10,521.4321 L168.4136,521.4321 L168.4136,528.3809 L158.4136,538.3809 L10,538.3809 L10,521.4321" fill="#EEEEEE" style="stroke:#0A9EFD;stroke-width:1.5;"/><rect fill="none" height="333.3848" style="stroke:#0A9EFD;stroke-width:2;" width="548.3877" x="10" y="521.4321"/><text fill="#000000" font-family="Arial" font-size="13" lengthAdjust="spacing" textLength="113.4136" x="25" y="534.626">Common workflows</text><g class="message" data-participant-1="APP" data-participant-2="APP"><line style="stroke:#0A9EFD;stroke-width:2;" x1="178.1128" x2="220.1128" y1="559.3296" y2="559.3296"/><line style="stroke:#0A9EFD;stroke-width:2;" x1="220.1128" x2="220.1128" y1="559.3296" y2="572.3296"/><line style="stroke:#0A9EFD;stroke-width:2;" x1="179.1128" x2="220.1128" y1="572.3296" y2="572.3296"/><polygon fill="#0A9EFD" points="189.1128,568.3296,179.1128,572.3296,189.1128,576.3296,185.1128,572.3296" style="stroke:#0A9EFD;stroke-width:1;"/><text fill="#0A9EFD" font-family="Arial" font-size="13" lengthAdjust="spacing" textLength="146.7007" x="185.1128" y="554.5747">Bypass autoplay blocking</text></g><g class="message" data-participant-1="USR" data-participant-2="APP"><polygon fill="#0A9EFD" points="166.1128,597.2783,176.1128,601.2783,166.1128,605.2783,170.1128,601.2783" style="stroke:#0A9EFD;stroke-width:1;"/><line style="stroke:#0A9EFD;stroke-width:2;" x1="37.7793" x2="172.1128" y1="601.2783" y2="601.2783"/><text fill="#0A9EFD" font-family="Arial" font-size="13" lengthAdjust="spacing" textLength="116.3335" x="49.7793" y="596.5234">Start screen sharing</text></g><g class="message" data-participant-1="APP" data-participant-2="APP"><line style="stroke:#0A9EFD;stroke-width:2;" x1="178.1128" x2="220.1128" y1="630.2271" y2="630.2271"/><line style="stroke:#0A9EFD;stroke-width:2;" x1="220.1128" x2="220.1128" y1="630.2271" y2="643.2271"/><line style="stroke:#0A9EFD;stroke-width:2;" x1="179.1128" x2="220.1128" y1="643.2271" y2="643.2271"/><polygon fill="#0A9EFD" points="189.1128,639.2271,179.1128,643.2271,189.1128,647.2271,185.1128,643.2271" style="stroke:#0A9EFD;stroke-width:1;"/><text fill="#0A9EFD" font-family="Arial" font-size="13" lengthAdjust="spacing" textLength="124.2744" x="185.1128" y="625.4722">Create a screen track</text></g><g class="message" data-participant-1="APP" data-participant-2="API"><polygon fill="#0A9EFD" points="500.1196,668.1758,510.1196,672.1758,500.1196,676.1758,504.1196,672.1758" style="stroke:#0A9EFD;stroke-width:1;"/><line style="stroke:#0A9EFD;stroke-width:2;" x1="178.1128" x2="506.1196" y1="672.1758" y2="672.1758"/><text fill="#0A9EFD" font-family="Arial" font-size="13" lengthAdjust="spacing" textLength="176.3188" x="256.9568" y="667.4209">Unpublish the local video track</text></g><g class="message" data-participant-1="APP" data-participant-2="API"><polygon fill="#0A9EFD" points="500.1196,697.1245,510.1196,701.1245,500.1196,705.1245,504.1196,701.1245" style="stroke:#0A9EFD;stroke-width:1;"/><line style="stroke:#0A9EFD;stroke-width:2;" x1="178.1128" x2="506.1196" y1="701.1245" y2="701.1245"/><text fill="#0A9EFD" font-family="Arial" font-size="13" lengthAdjust="spacing" textLength="138.7344" x="275.749" y="696.3696">Publish the screen track</text></g><g class="message" data-participant-1="USR" data-participant-2="APP"><polygon fill="#0A9EFD" points="166.1128,726.0732,176.1128,730.0732,166.1128,734.0732,170.1128,730.0732" style="stroke:#0A9EFD;stroke-width:1;"/><line style="stroke:#0A9EFD;stroke-width:2;" x1="37.7793" x2="172.1128" y1="730.0732" y2="730.0732"/><text fill="#0A9EFD" font-family="Arial" font-size="13" lengthAdjust="spacing" textLength="81.6499" x="67.1211" y="725.3184">Adjust volume</text></g><g class="message" data-participant-1="APP" data-participant-2="API"><polygon fill="#0A9EFD" points="500.1196,769.9707,510.1196,773.9707,500.1196,777.9707,504.1196,773.9707" style="stroke:#0A9EFD;stroke-width:1;"/><line style="stroke:#0A9EFD;stroke-width:2;" x1="178.1128" x2="506.1196" y1="773.9707" y2="773.9707"/><text fill="#0A9EFD" font-family="Arial" font-size="13" lengthAdjust="spacing" textLength="200.8716" x="242.8745" y="754.2671">Call API methods to adjust or mute</text><text fill="#0A9EFD" font-family="Arial" font-size="13" lengthAdjust="spacing" textLength="174.8652" x="259.4895" y="769.2158">the local or remote audio track</text></g><g class="message" data-participant-1="USR" data-participant-2="APP"><polygon fill="#0A9EFD" points="166.1128,798.9194,176.1128,802.9194,166.1128,806.9194,170.1128,802.9194" style="stroke:#0A9EFD;stroke-width:1;"/><line style="stroke:#0A9EFD;stroke-width:2;" x1="37.7793" x2="172.1128" y1="802.9194" y2="802.9194"/><text fill="#0A9EFD" font-family="Arial" font-size="13" lengthAdjust="spacing" textLength="112.7217" x="51.5852" y="798.1646">Mute/Unmute video</text></g><g class="message" data-participant-1="APP" data-participant-2="API"><polygon fill="#0A9EFD" points="500.1196,842.8169,510.1196,846.8169,500.1196,850.8169,504.1196,846.8169" style="stroke:#0A9EFD;stroke-width:1;"/><line style="stroke:#0A9EFD;stroke-width:2;" x1="178.1128" x2="506.1196" y1="846.8169" y2="846.8169"/><text fill="#0A9EFD" font-family="Arial" font-size="13" lengthAdjust="spacing" textLength="224.7261" x="230.9473" y="827.1133">Call the API method to mute or unmute</text><text fill="#0A9EFD" font-family="Arial" font-size="13" lengthAdjust="spacing" textLength="114.8926" x="289.4758" y="842.062">the local video track</text></g><g class="message" data-participant-1="USR" data-participant-2="APP"><polygon fill="#0A9EFD" points="166.1128,878.7656,176.1128,882.7656,166.1128,886.7656,170.1128,882.7656" style="stroke:#0A9EFD;stroke-width:1;"/><line style="stroke:#0A9EFD;stroke-width:2;" x1="37.7793" x2="172.1128" y1="882.7656" y2="882.7656"/><text fill="#0A9EFD" font-family="Arial" font-size="13" lengthAdjust="spacing" textLength="106.2534" x="54.8193" y="878.0107">Leave the channel</text></g><g class="message" data-participant-1="APP" data-participant-2="API"><polygon fill="#0A9EFD" points="500.1196,907.7144,510.1196,911.7144,500.1196,915.7144,504.1196,911.7144" style="stroke:#0A9EFD;stroke-width:1;"/><line style="stroke:#0A9EFD;stroke-width:2;" x1="178.1128" x2="506.1196" y1="911.7144" y2="911.7144"/><text fill="#0A9EFD" font-family="Arial" font-size="13" lengthAdjust="spacing" textLength="106.2534" x="291.9895" y="906.9595">Leave the channel</text></g><!--SRC=[ZLFBRjim4BphAxQ-fxdt4C1rMi1jqnfMV2WGe5XJZCI8uX9ysCrFzIFwPLtIiYt6FlGYIEJCpkpiwfqoGiT60hRay9VlbNclug2h2aKW1xEDbsu6w65JhwjgIxzXzfEY0xHsLbbqGGbbqGIOhHyNKDz_pU3vQbL9qm3ZHz8yrN_3gE_NZz___XaPopE3jU3cBbNv03-iD32tjkAlqo6xWb4F0e5m4WFtmC0a0vzCgum4PNn08sH1NHon3LYDhn0w2Pe4Qi3OABhTgKOI18UYzmNnuwj5xnaLA1EtpEfXtx6z9mDavkF5PrHQDY1tadia8QBpLTKwYXQ-a395S-a044I7naYTv6xkyiLQ1gUuH99Z1SuCWoB3pVOoFU7bWdaekXoBfhR6IqZ17YsiubOht-N-wxZrmgcjBEX7XC11SfO9E2ZXo7R4cHw2IGuc2inVddewLSsW0_pPqG3430UH5yeNWWzei3qDWUMS72YDw68UHISB6WPEP4-kVzQq_uzXATCMwTU1jn7OhEHCVOSk0QxjoX6JNHJUDyQESPttQEBuQh09MHISUfetBz47s96EGpcN1MgTtc2GeQCcpm0FQFvHXyX6dyp41XzEWxoYzS2Ssut9r6pwKY-LEsicoOpcsj5SIauxpvEQgdsJoFjSRirPxVBs7m00]--></g></svg>