<?xml version="1.0" encoding="us-ascii" standalone="no"?><svg xmlns="http://www.w3.org/2000/svg" xmlns:xlink="http://www.w3.org/1999/xlink" contentStyleType="text/css" height="762px" preserveAspectRatio="none" style="width:578px;height:762px;" version="1.1" viewBox="0 0 578 762" width="578px" zoomAndPan="magnify"><defs/><g><rect fill="none" height="760.2744" style="stroke:#0A9EFD;stroke-width:1.0;" width="576" x="0" y="0"/><rect fill="#999999" fill-opacity="0.33333" height="750.2744" style="stroke:#0A9EFD;stroke-width:0.5;" width="90" x="134" y="6"/><text fill="#0A9EFD" font-family="sans-serif" font-size="13" font-weight="bold" lengthAdjust="spacing" textLength="62" x="148" y="18.5684">Your app</text><rect fill="#999999" fill-opacity="0.33333" height="750.2744" style="stroke:#0A9EFD;stroke-width:0.5;" width="80" x="486" y="6"/><text fill="#0A9EFD" font-family="sans-serif" font-size="13" font-weight="bold" lengthAdjust="spacing" textLength="41" x="505.5" y="18.5684">Agora</text><rect fill="#0A9EFD" fill-opacity="0.06667" height="116.7949" style="stroke:#0A9EFD;stroke-width:2.0;" width="562" x="10" y="215.9448"/><rect fill="#0A9EFD" fill-opacity="0.06667" height="103.7949" style="stroke:#0A9EFD;stroke-width:2.0;" width="444" x="128" y="346.7397"/><rect fill="#0A9EFD" fill-opacity="0.06667" height="132.7437" style="stroke:#0A9EFD;stroke-width:2.0;" width="562" x="10" y="464.5347"/><line style="stroke:#0A9EFD;stroke-width:0.5;stroke-dasharray:5.0,5.0;" x1="38" x2="38" y1="86.0986" y2="672.1758"/><line style="stroke:#0A9EFD;stroke-width:0.5;stroke-dasharray:5.0,5.0;" x1="179" x2="179" y1="86.0986" y2="672.1758"/><line style="stroke:#0A9EFD;stroke-width:0.5;stroke-dasharray:5.0,5.0;" x1="526" x2="526" y1="86.0986" y2="672.1758"/><text fill="#0A9EFD" font-family="Arial" font-size="14" lengthAdjust="spacing" textLength="30" x="20" y="83.1318">User</text><ellipse cx="38" cy="16" fill="none" rx="8" ry="8" style="stroke:#0A9EFD;stroke-width:3.0;"/><path d="M38,24 L38,51 M25,32 L51,32 M38,51 L25,66 M38,51 L51,66 " fill="none" style="stroke:#0A9EFD;stroke-width:3.0;"/><text fill="#0A9EFD" font-family="Arial" font-size="14" lengthAdjust="spacing" textLength="30" x="20" y="684.3076">User</text><ellipse cx="38" cy="698.2744" fill="none" rx="8" ry="8" style="stroke:#0A9EFD;stroke-width:3.0;"/><path d="M38,706.2744 L38,733.2744 M25,714.2744 L51,714.2744 M38,733.2744 L25,748.2744 M38,733.2744 L51,748.2744 " fill="none" style="stroke:#0A9EFD;stroke-width:3.0;"/><rect fill="none" height="30.0986" rx="2.5" ry="2.5" style="stroke:#0A9EFD;stroke-width:2.0;" width="82" x="138" y="55"/><text fill="#0A9EFD" font-family="Arial" font-size="14" lengthAdjust="spacing" textLength="68" x="145" y="75.1318">Video SDK</text><rect fill="none" height="30.0986" rx="2.5" ry="2.5" style="stroke:#0A9EFD;stroke-width:2.0;" width="82" x="138" y="671.1758"/><text fill="#0A9EFD" font-family="Arial" font-size="14" lengthAdjust="spacing" textLength="68" x="145" y="691.3076">Video SDK</text><rect fill="none" height="30.0986" rx="2.5" ry="2.5" style="stroke:#0A9EFD;stroke-width:2.0;" width="72" x="490" y="55"/><text fill="#0A9EFD" font-family="Arial" font-size="14" lengthAdjust="spacing" textLength="58" x="497" y="75.1318">SDRTN&#174;</text><rect fill="none" height="30.0986" rx="2.5" ry="2.5" style="stroke:#0A9EFD;stroke-width:2.0;" width="72" x="490" y="671.1758"/><text fill="#0A9EFD" font-family="Arial" font-size="14" lengthAdjust="spacing" textLength="58" x="497" y="691.3076">SDRTN&#174;</text><polygon fill="#0A9EFD" points="167,113.0474,177,117.0474,167,121.0474,171,117.0474" style="stroke:#0A9EFD;stroke-width:1.0;"/><line style="stroke:#0A9EFD;stroke-width:2.0;" x1="38" x2="173" y1="117.0474" y2="117.0474"/><text fill="#0A9EFD" font-family="Arial" font-size="13" lengthAdjust="spacing" textLength="58" x="79.5" y="112.2925">Open App</text><line style="stroke:#0A9EFD;stroke-width:2.0;" x1="179" x2="221" y1="145.9961" y2="145.9961"/><line style="stroke:#0A9EFD;stroke-width:2.0;" x1="221" x2="221" y1="145.9961" y2="158.9961"/><line style="stroke:#0A9EFD;stroke-width:2.0;" x1="180" x2="221" y1="158.9961" y2="158.9961"/><polygon fill="#0A9EFD" points="190,154.9961,180,158.9961,190,162.9961,186,158.9961" style="stroke:#0A9EFD;stroke-width:1.0;"/><text fill="#0A9EFD" font-family="Arial" font-size="13" lengthAdjust="spacing" textLength="299" x="186" y="141.2412">Use Video SDK to create an Agora Engine instance</text><line style="stroke:#0A9EFD;stroke-width:2.0;" x1="179" x2="221" y1="187.9448" y2="187.9448"/><line style="stroke:#0A9EFD;stroke-width:2.0;" x1="221" x2="221" y1="187.9448" y2="200.9448"/><line style="stroke:#0A9EFD;stroke-width:2.0;" x1="180" x2="221" y1="200.9448" y2="200.9448"/><polygon fill="#0A9EFD" points="190,196.9448,180,200.9448,190,204.9448,186,200.9448" style="stroke:#0A9EFD;stroke-width:1.0;"/><text fill="#0A9EFD" font-family="Arial" font-size="13" lengthAdjust="spacing" textLength="213" x="186" y="183.1899">Enable audio and video in the engine</text><path d="M10,215.9448 L79,215.9448 L79,222.8936 L69,232.8936 L10,232.8936 L10,215.9448 " fill="#EEEEEE" style="stroke:#0A9EFD;stroke-width:1.5;"/><rect fill="none" height="116.7949" style="stroke:#0A9EFD;stroke-width:2.0;" width="562" x="10" y="215.9448"/><text fill="#000000" font-family="Arial" font-size="13" lengthAdjust="spacing" textLength="24" x="25" y="229.1387">Join</text><polygon fill="#0A9EFD" points="167,249.8423,177,253.8423,167,257.8423,171,253.8423" style="stroke:#0A9EFD;stroke-width:1.0;"/><line style="stroke:#0A9EFD;stroke-width:2.0;" x1="38" x2="173" y1="253.8423" y2="253.8423"/><text fill="#0A9EFD" font-family="Arial" font-size="13" lengthAdjust="spacing" textLength="84" x="66.5" y="249.0874">Join a channel</text><line style="stroke:#0A9EFD;stroke-width:2.0;" x1="179" x2="221" y1="282.791" y2="282.791"/><line style="stroke:#0A9EFD;stroke-width:2.0;" x1="221" x2="221" y1="282.791" y2="295.791"/><line style="stroke:#0A9EFD;stroke-width:2.0;" x1="180" x2="221" y1="295.791" y2="295.791"/><polygon fill="#0A9EFD" points="190,291.791,180,295.791,190,299.791,186,295.791" style="stroke:#0A9EFD;stroke-width:1.0;"/><text fill="#0A9EFD" font-family="Arial" font-size="13" lengthAdjust="spacing" textLength="268" x="186" y="278.0361">Retrieve authentication token to join a channel</text><polygon fill="#0A9EFD" points="514,320.7397,524,324.7397,514,328.7397,518,324.7397" style="stroke:#0A9EFD;stroke-width:1.0;"/><line style="stroke:#0A9EFD;stroke-width:2.0;" x1="179" x2="520" y1="324.7397" y2="324.7397"/><text fill="#0A9EFD" font-family="Arial" font-size="13" lengthAdjust="spacing" textLength="95" x="305" y="319.9849">Join the channel</text><path d="M128,346.7397 L303,346.7397 L303,353.6885 L293,363.6885 L128,363.6885 L128,346.7397 " fill="#EEEEEE" style="stroke:#0A9EFD;stroke-width:1.5;"/><rect fill="none" height="103.7949" style="stroke:#0A9EFD;stroke-width:2.0;" width="444" x="128" y="346.7397"/><text fill="#000000" font-family="Arial" font-size="13" lengthAdjust="spacing" textLength="130" x="143" y="359.9336">Publish and Subscribe</text><polygon fill="#0A9EFD" points="514,380.6372,524,384.6372,514,388.6372,518,384.6372" style="stroke:#0A9EFD;stroke-width:1.0;"/><line style="stroke:#0A9EFD;stroke-width:2.0;" x1="179" x2="520" y1="384.6372" y2="384.6372"/><text fill="#0A9EFD" font-family="Arial" font-size="13" lengthAdjust="spacing" textLength="323" x="191" y="379.8823">Publish camera and microphone streams to the channel</text><polygon fill="#0A9EFD" points="190,409.5859,180,413.5859,190,417.5859,186,413.5859" style="stroke:#0A9EFD;stroke-width:1.0;"/><line style="stroke:#0A9EFD;stroke-width:2.0;" x1="184" x2="525" y1="413.5859" y2="413.5859"/><text fill="#0A9EFD" font-family="Arial" font-size="13" lengthAdjust="spacing" textLength="223" x="241" y="408.8311">Subscribe to streams from other users</text><polygon fill="#0A9EFD" points="514,438.5347,524,442.5347,514,446.5347,518,442.5347" style="stroke:#0A9EFD;stroke-width:1.0;"/><line style="stroke:#0A9EFD;stroke-width:2.0;" x1="179" x2="520" y1="442.5347" y2="442.5347"/><text fill="#0A9EFD" font-family="Arial" font-size="13" lengthAdjust="spacing" textLength="197" x="254" y="437.7798">Manage local and remote streams</text><path d="M10,464.5347 L168,464.5347 L168,471.4834 L158,481.4834 L10,481.4834 L10,464.5347 " fill="#EEEEEE" style="stroke:#0A9EFD;stroke-width:1.5;"/><rect fill="none" height="132.7437" style="stroke:#0A9EFD;stroke-width:2.0;" width="562" x="10" y="464.5347"/><text fill="#000000" font-family="Arial" font-size="13" lengthAdjust="spacing" textLength="113" x="25" y="477.7285">Common workflows</text><polygon fill="#0A9EFD" points="167,498.4321,177,502.4321,167,506.4321,171,502.4321" style="stroke:#0A9EFD;stroke-width:1.0;"/><line style="stroke:#0A9EFD;stroke-width:2.0;" x1="38" x2="173" y1="502.4321" y2="502.4321"/><text fill="#0A9EFD" font-family="Arial" font-size="13" lengthAdjust="spacing" textLength="117" x="50" y="497.6772">Start screen sharing</text><polygon fill="#0A9EFD" points="514,527.3809,524,531.3809,514,535.3809,518,531.3809" style="stroke:#0A9EFD;stroke-width:1.0;"/><line style="stroke:#0A9EFD;stroke-width:2.0;" x1="179" x2="520" y1="531.3809" y2="531.3809"/><text fill="#0A9EFD" font-family="Arial" font-size="13" lengthAdjust="spacing" textLength="273" x="216" y="526.626">Capture and publish your screen to the channel</text><polygon fill="#0A9EFD" points="167,556.3296,177,560.3296,167,564.3296,171,560.3296" style="stroke:#0A9EFD;stroke-width:1.0;"/><line style="stroke:#0A9EFD;stroke-width:2.0;" x1="38" x2="173" y1="560.3296" y2="560.3296"/><text fill="#0A9EFD" font-family="Arial" font-size="13" lengthAdjust="spacing" textLength="83" x="67" y="555.5747">Adjust volume</text><polygon fill="#0A9EFD" points="514,585.2783,524,589.2783,514,593.2783,518,589.2783" style="stroke:#0A9EFD;stroke-width:1.0;"/><line style="stroke:#0A9EFD;stroke-width:2.0;" x1="179" x2="520" y1="589.2783" y2="589.2783"/><text fill="#0A9EFD" font-family="Arial" font-size="13" lengthAdjust="spacing" textLength="250" x="227.5" y="584.5234">Call API methods to adjust or mute volume</text><polygon fill="#0A9EFD" points="167,621.2271,177,625.2271,167,629.2271,171,625.2271" style="stroke:#0A9EFD;stroke-width:1.0;"/><line style="stroke:#0A9EFD;stroke-width:2.0;" x1="38" x2="173" y1="625.2271" y2="625.2271"/><text fill="#0A9EFD" font-family="Arial" font-size="13" lengthAdjust="spacing" textLength="106" x="55.5" y="620.4722">Leave the channel</text><polygon fill="#0A9EFD" points="514,650.1758,524,654.1758,514,658.1758,518,654.1758" style="stroke:#0A9EFD;stroke-width:1.0;"/><line style="stroke:#0A9EFD;stroke-width:2.0;" x1="179" x2="520" y1="654.1758" y2="654.1758"/><text fill="#0A9EFD" font-family="Arial" font-size="13" lengthAdjust="spacing" textLength="106" x="299.5" y="649.4209">Leave the channel</text><!--SRC=[PL9BRjim4Dtp55FjqmDq4S18id2_XjKKoAeOKHE9CSaX-77QI-KGELc6YloHin4aydtcFSqduxKjFG4E7F5lsXd_sHHdbKATEK9pdoWsW0dkswrI7V-3ve5B10oXKG5ZDje4z1cQFwOdXlRssmHVRJQAV0_2c6chwd31QM-tlt- -lioCzOaXRd1rNLM-mAz07bOXAFaw7ifSS7I4pA0ZOPOS0gr6SES7umcCJnczfWNvpcDd1LjwmyBeOJyf6Gzv9A29gTGGkGJuoiOlnga7WA17z9virRswdYwsbAEXVTKL6IyfCHiMJTvHVSBJ1-Qxw7eMhURp9TGg3YDiIcTD6gT9sz8b7Kr72_e1eT6HPAz0PtJaCB9qaB9qur8TuSn21DR7K4VP2ZhW7oCxOA54AB86QM7v0pqE19OrsiamakDyCZiFSCFEIH7F77UFbf_JeiysoqQ0k9Eqb4QCnWyBfniCkKIQJC8Sz7_TmPbp4UjSUzK_bPHXpxOukX2rjhw1epnoFvM3xsXPUrSaoSoQSfoBVYUKdxniyYJyyVOD]--></g></svg>