<svg xmlns="http://www.w3.org/2000/svg" xmlns:xlink="http://www.w3.org/1999/xlink" contentStyleType="text/css" data-diagram-type="SEQUENCE" height="771px" preserveAspectRatio="none" style="width:767px;height:771px;" version="1.1" viewBox="0 0 767 771" width="767px" zoomAndPan="magnify"><defs/><g><rect fill="none" height="769.4544" style="stroke:#0A9EFD;stroke-width:1;" width="765.0212" x="0" y="0"/><rect fill="#999999" fill-opacity="0.33333" height="759.4544" style="stroke:#0A9EFD;stroke-width:0.5;" width="68.0991" x="7.2838" y="6"/><text fill="#0A9EFD" font-family="sans-serif" font-size="13" font-weight="bold" lengthAdjust="spacing" textLength="62.0991" x="10.2838" y="19.4951">App: Host</text><rect fill="#999999" fill-opacity="0.33333" height="759.4544" style="stroke:#0A9EFD;stroke-width:0.5;" width="63.7764" x="323.3539" y="6"/><text fill="#0A9EFD" font-family="sans-serif" font-size="13" font-weight="bold" lengthAdjust="spacing" textLength="57.7764" x="326.3539" y="19.4951">RTC SDK</text><rect fill="#999999" fill-opacity="0.33333" height="759.4544" style="stroke:#0A9EFD;stroke-width:0.5;" width="97.7236" x="663.2976" y="6"/><text fill="#0A9EFD" font-family="sans-serif" font-size="13" font-weight="bold" lengthAdjust="spacing" textLength="91.7236" x="666.2976" y="19.4951">App: Audience</text><rect fill="#0A9EFD" fill-opacity="0.06667" height="74.8462" style="stroke:#0A9EFD;stroke-width:2;" width="733.4928" x="10" y="85.0182"/><rect fill="#0A9EFD" fill-opacity="0.06667" height="162.6411" style="stroke:#0A9EFD;stroke-width:2;" width="733.4928" x="10" y="173.8644"/><rect fill="#0A9EFD" fill-opacity="0.06667" height="74.8462" style="stroke:#0A9EFD;stroke-width:2;" width="733.4928" x="10" y="350.5055"/><rect fill="#0A9EFD" fill-opacity="0.06667" height="264.436" style="stroke:#0A9EFD;stroke-width:2;" width="733.4928" x="10" y="439.3517"/><g><title>&lt;size:40&gt;&lt;&amp;tablet&gt;</title><rect fill="#000000" fill-opacity="0.00000" height="652.7695" width="8" x="37.3333" y="68.0182"/><line style="stroke:#0A9EFD;stroke-width:0.5;stroke-dasharray:5.0,5.0;" x1="41" x2="41" y1="68.0182" y2="720.7878"/></g><g><title>&lt;size:40&gt;&lt;&amp;layers&gt;</title><rect fill="#000000" fill-opacity="0.00000" height="652.7695" width="8" x="351.2421" y="68.0182"/><line style="stroke:#0A9EFD;stroke-width:0.5;stroke-dasharray:5.0,5.0;" x1="354.9088" x2="354.9088" y1="68.0182" y2="720.7878"/></g><g><title>&lt;size:40&gt;&lt;&amp;tablet&gt;</title><rect fill="#000000" fill-opacity="0.00000" height="652.7695" width="8" x="708.1594" y="68.0182"/><line style="stroke:#0A9EFD;stroke-width:0.5;stroke-dasharray:5.0,5.0;" x1="711.8261" x2="711.8261" y1="68.0182" y2="720.7878"/></g><g class="participant participant-head" data-participant="HST"><rect fill="none" height="40.6667" rx="2.5" ry="2.5" style="stroke:#0A9EFD;stroke-width:2;" width="42.6667" x="20" y="26.3516"/><path d="M29.1333,33.3516 C28.5333,33.3516 28,33.8849 28,34.4849 L28,58.8516 C28,59.4516 28.5333,59.9849 29.1333,59.9849 L50.1667,59.9849 C50.7667,59.9849 51.3,59.4516 51.3,58.8516 L51.3,34.4849 C51.3,33.8849 50.7667,33.3516 50.1667,33.3516 L29.1333,33.3516 M31.3333,36.6849 L48,36.6849 L48,53.3516 L31.3333,53.3516 L31.3333,36.6849 M39.6667,55.0182 C40.9333,55.0182 41.7667,56.4182 41.1333,57.5182 C40.5,58.6182 38.8667,58.6182 38.2,57.5182 C37.5667,56.4182 38.3667,55.0182 39.6667,55.0182" fill="#0A9EFD"/></g><g class="participant participant-tail" data-participant="HST"><rect fill="none" height="40.6667" rx="2.5" ry="2.5" style="stroke:#0A9EFD;stroke-width:2;" width="42.6667" x="20" y="719.7878"/><path d="M29.1333,726.7878 C28.5333,726.7878 28,727.3211 28,727.9211 L28,752.2878 C28,752.8878 28.5333,753.4211 29.1333,753.4211 L50.1667,753.4211 C50.7667,753.4211 51.3,752.8878 51.3,752.2878 L51.3,727.9211 C51.3,727.3211 50.7667,726.7878 50.1667,726.7878 L29.1333,726.7878 M31.3333,730.1211 L48,730.1211 L48,746.7878 L31.3333,746.7878 L31.3333,730.1211 M39.6667,748.4544 C40.9333,748.4544 41.7667,749.8544 41.1333,750.9544 C40.5,752.0544 38.8667,752.0544 38.2,750.9544 C37.5667,749.8544 38.3667,748.4544 39.6667,748.4544" fill="#0A9EFD"/></g><g class="participant participant-head" data-participant="SDK"><rect fill="none" height="40.6667" rx="2.5" ry="2.5" style="stroke:#0A9EFD;stroke-width:2;" width="42.6667" x="333.9088" y="26.3516"/><path d="M341.9088,33.3516 L341.9088,46.6849 L355.2421,46.6849 L355.2421,33.3516 L341.9088,33.3516 M358.5754,40.0182 L358.5754,50.0182 L348.5754,50.0182 L348.5754,53.3516 L361.9088,53.3516 L361.9088,40.0182 L358.5754,40.0182 M365.2421,46.6849 L365.2421,56.6849 L355.2421,56.6849 L355.2421,60.0182 L368.5754,60.0182 L368.5754,46.6849 L365.2421,46.6849" fill="#0A9EFD"/></g><g class="participant participant-tail" data-participant="SDK"><rect fill="none" height="40.6667" rx="2.5" ry="2.5" style="stroke:#0A9EFD;stroke-width:2;" width="42.6667" x="333.9088" y="719.7878"/><path d="M341.9088,726.7878 L341.9088,740.1211 L355.2421,740.1211 L355.2421,726.7878 L341.9088,726.7878 M358.5754,733.4544 L358.5754,743.4544 L348.5754,743.4544 L348.5754,746.7878 L361.9088,746.7878 L361.9088,733.4544 L358.5754,733.4544 M365.2421,740.1211 L365.2421,750.1211 L355.2421,750.1211 L355.2421,753.4544 L368.5754,753.4544 L368.5754,740.1211 L365.2421,740.1211" fill="#0A9EFD"/></g><g class="participant participant-head" data-participant="AUD"><rect fill="none" height="40.6667" rx="2.5" ry="2.5" style="stroke:#0A9EFD;stroke-width:2;" width="42.6667" x="690.8261" y="26.3516"/><path d="M699.9594,33.3516 C699.3594,33.3516 698.8261,33.8849 698.8261,34.4849 L698.8261,58.8516 C698.8261,59.4516 699.3594,59.9849 699.9594,59.9849 L720.9928,59.9849 C721.5928,59.9849 722.1261,59.4516 722.1261,58.8516 L722.1261,34.4849 C722.1261,33.8849 721.5928,33.3516 720.9928,33.3516 L699.9594,33.3516 M702.1594,36.6849 L718.8261,36.6849 L718.8261,53.3516 L702.1594,53.3516 L702.1594,36.6849 M710.4928,55.0182 C711.7594,55.0182 712.5928,56.4182 711.9594,57.5182 C711.3261,58.6182 709.6928,58.6182 709.0261,57.5182 C708.3928,56.4182 709.1928,55.0182 710.4928,55.0182" fill="#0A9EFD"/></g><g class="participant participant-tail" data-participant="AUD"><rect fill="none" height="40.6667" rx="2.5" ry="2.5" style="stroke:#0A9EFD;stroke-width:2;" width="42.6667" x="690.8261" y="719.7878"/><path d="M699.9594,726.7878 C699.3594,726.7878 698.8261,727.3211 698.8261,727.9211 L698.8261,752.2878 C698.8261,752.8878 699.3594,753.4211 699.9594,753.4211 L720.9928,753.4211 C721.5928,753.4211 722.1261,752.8878 722.1261,752.2878 L722.1261,727.9211 C722.1261,727.3211 721.5928,726.7878 720.9928,726.7878 L699.9594,726.7878 M702.1594,730.1211 L718.8261,730.1211 L718.8261,746.7878 L702.1594,746.7878 L702.1594,730.1211 M710.4928,748.4544 C711.7594,748.4544 712.5928,749.8544 711.9594,750.9544 C711.3261,752.0544 709.6928,752.0544 709.0261,750.9544 C708.3928,749.8544 709.1928,748.4544 710.4928,748.4544" fill="#0A9EFD"/></g><path d="M10,85.0182 L166.2998,85.0182 L166.2998,91.967 L156.2998,101.967 L10,101.967 L10,85.0182" fill="#EEEEEE" style="stroke:#0A9EFD;stroke-width:1.5;"/><rect fill="none" height="74.8462" style="stroke:#0A9EFD;stroke-width:2;" width="733.4928" x="10" y="85.0182"/><text fill="#000000" font-family="Arial" font-size="13" lengthAdjust="spacing" textLength="111.2998" x="25" y="98.2121">Initialize the engine</text><g class="message" data-participant-1="HST" data-participant-2="SDK"><polygon fill="#0A9EFD" points="343.2421,118.9157,353.2421,122.9157,343.2421,126.9157,347.2421,122.9157" style="stroke:#0A9EFD;stroke-width:1;"/><line style="stroke:#0A9EFD;stroke-width:2;" x1="41.3333" x2="349.2421" y1="122.9157" y2="122.9157"/><text fill="#0A9EFD" font-family="Arial" font-size="13" lengthAdjust="spacing" textLength="178.5088" x="109.0333" y="118.1608">Create and initialize the engine</text></g><g class="message" data-participant-1="AUD" data-participant-2="SDK"><polygon fill="#0A9EFD" points="366.2421,147.8644,356.2421,151.8644,366.2421,155.8644,362.2421,151.8644" style="stroke:#0A9EFD;stroke-width:1;"/><line style="stroke:#0A9EFD;stroke-width:2;" x1="360.2421" x2="711.1594" y1="151.8644" y2="151.8644"/><text fill="#0A9EFD" font-family="Arial" font-size="13" lengthAdjust="spacing" textLength="178.5088" x="444.4464" y="147.1095">Create and initialize the engine</text></g><path d="M10,173.8644 L127.998,173.8644 L127.998,180.8132 L117.998,190.8132 L10,190.8132 L10,173.8644" fill="#EEEEEE" style="stroke:#0A9EFD;stroke-width:1.5;"/><rect fill="none" height="162.6411" style="stroke:#0A9EFD;stroke-width:2;" width="733.4928" x="10" y="173.8644"/><text fill="#000000" font-family="Arial" font-size="13" lengthAdjust="spacing" textLength="72.998" x="25" y="187.0583">Join channel</text><g class="message" data-participant-1="HST" data-participant-2="SDK"><polygon fill="#0A9EFD" points="343.2421,222.7106,353.2421,226.7106,343.2421,230.7106,347.2421,226.7106" style="stroke:#0A9EFD;stroke-width:1;"/><line style="stroke:#0A9EFD;stroke-width:2;" x1="41.3333" x2="349.2421" y1="226.7106" y2="226.7106"/><text fill="#0A9EFD" font-family="Arial" font-size="13" lengthAdjust="spacing" textLength="119.9834" x="138.296" y="207.007">Join the channel and</text><text fill="#0A9EFD" font-family="Arial" font-size="13" lengthAdjust="spacing" textLength="138.7407" x="130.7233" y="221.9557">set the user role as host</text></g><g class="message" data-participant-1="AUD" data-participant-2="SDK"><polygon fill="#0A9EFD" points="366.2421,266.6081,356.2421,270.6081,366.2421,274.6081,362.2421,270.6081" style="stroke:#0A9EFD;stroke-width:1;"/><line style="stroke:#0A9EFD;stroke-width:2;" x1="360.2421" x2="711.1594" y1="270.6081" y2="270.6081"/><text fill="#0A9EFD" font-family="Arial" font-size="13" lengthAdjust="spacing" textLength="119.9834" x="473.7091" y="250.9045">Join the channel and</text><text fill="#0A9EFD" font-family="Arial" font-size="13" lengthAdjust="spacing" textLength="166.937" x="452.0382" y="265.8532">set the user role as audience</text></g><g class="message" data-participant-1="SDK" data-participant-2="HST"><polygon fill="#0A9EFD" points="52.3333,295.5568,42.3333,299.5568,52.3333,303.5568,48.3333,299.5568" style="stroke:#0A9EFD;stroke-width:1;"/><line style="stroke:#0A9EFD;stroke-width:2;stroke-dasharray:2.0,2.0;" x1="46.3333" x2="354.2421" y1="299.5568" y2="299.5568"/><text fill="#0A9EFD" font-family="Arial" font-size="13" lengthAdjust="spacing" textLength="274.6377" x="60.9689" y="294.8019">Notify the host that the channel has been joined</text></g><g class="message" data-participant-1="SDK" data-participant-2="AUD"><polygon fill="#0A9EFD" points="700.1594,324.5055,710.1594,328.5055,700.1594,332.5055,704.1594,328.5055" style="stroke:#0A9EFD;stroke-width:1;"/><line style="stroke:#0A9EFD;stroke-width:2;stroke-dasharray:2.0,2.0;" x1="355.2421" x2="706.1594" y1="328.5055" y2="328.5055"/><text fill="#0A9EFD" font-family="Arial" font-size="13" lengthAdjust="spacing" textLength="302.834" x="382.2838" y="323.7507">Notify the audience that the channel has been joined</text></g><path d="M10,350.5055 L181.4644,350.5055 L181.4644,357.4543 L171.4644,367.4543 L10,367.4543 L10,350.5055" fill="#EEEEEE" style="stroke:#0A9EFD;stroke-width:1.5;"/><rect fill="none" height="74.8462" style="stroke:#0A9EFD;stroke-width:2;" width="733.4928" x="10" y="350.5055"/><text fill="#000000" font-family="Arial" font-size="13" lengthAdjust="spacing" textLength="126.4644" x="25" y="363.6994">Start audio interaction</text><g class="message" data-participant-1="SDK" data-participant-2="AUD"><polygon fill="#0A9EFD" points="700.1594,384.403,710.1594,388.403,700.1594,392.403,704.1594,388.403" style="stroke:#0A9EFD;stroke-width:1;"/><line style="stroke:#0A9EFD;stroke-width:2;" x1="355.2421" x2="706.1594" y1="388.403" y2="388.403"/><text fill="#0A9EFD" font-family="Arial" font-size="13" lengthAdjust="spacing" textLength="82.3862" x="492.5076" y="383.6481">Receive audio</text></g><g class="message" data-participant-1="HST" data-participant-2="SDK"><polygon fill="#0A9EFD" points="343.2421,413.3517,353.2421,417.3517,343.2421,421.3517,347.2421,417.3517" style="stroke:#0A9EFD;stroke-width:1;"/><line style="stroke:#0A9EFD;stroke-width:2;" x1="41.3333" x2="349.2421" y1="417.3517" y2="417.3517"/><text fill="#0A9EFD" font-family="Arial" font-size="13" lengthAdjust="spacing" textLength="65.7808" x="165.3973" y="412.5968">Send audio</text></g><path d="M10,439.3517 L177.1416,439.3517 L177.1416,446.3005 L167.1416,456.3005 L10,456.3005 L10,439.3517" fill="#EEEEEE" style="stroke:#0A9EFD;stroke-width:1.5;"/><rect fill="none" height="264.436" style="stroke:#0A9EFD;stroke-width:2;" width="733.4928" x="10" y="439.3517"/><text fill="#000000" font-family="Arial" font-size="13" lengthAdjust="spacing" textLength="122.1416" x="25" y="452.5456">End audio interaction</text><g class="message" data-participant-1="HST" data-participant-2="SDK"><polygon fill="#0A9EFD" points="343.2421,473.2492,353.2421,477.2492,343.2421,481.2492,347.2421,477.2492" style="stroke:#0A9EFD;stroke-width:1;"/><line style="stroke:#0A9EFD;stroke-width:2;" x1="41.3333" x2="349.2421" y1="477.2492" y2="477.2492"/><text fill="#0A9EFD" font-family="Arial" font-size="13" lengthAdjust="spacing" textLength="106.2534" x="145.161" y="472.4943">Leave the channel</text></g><g class="message" data-participant-1="SDK" data-participant-2="HST"><polygon fill="#0A9EFD" points="52.3333,517.1466,42.3333,521.1466,52.3333,525.1466,48.3333,521.1466" style="stroke:#0A9EFD;stroke-width:1;"/><line style="stroke:#0A9EFD;stroke-width:2;stroke-dasharray:2.0,2.0;" x1="46.3333" x2="354.2421" y1="521.1466" y2="521.1466"/><text fill="#0A9EFD" font-family="Arial" font-size="13" lengthAdjust="spacing" textLength="108.3926" x="142.2855" y="501.443">Notify the host that</text><text fill="#0A9EFD" font-family="Arial" font-size="13" lengthAdjust="spacing" textLength="122.8589" x="136.8583" y="516.3918">it has left the channel</text></g><g class="message" data-participant-1="SDK" data-participant-2="AUD"><polygon fill="#0A9EFD" points="700.1594,561.0441,710.1594,565.0441,700.1594,569.0441,704.1594,565.0441" style="stroke:#0A9EFD;stroke-width:1;"/><line style="stroke:#0A9EFD;stroke-width:2;stroke-dasharray:2.0,2.0;" x1="355.2421" x2="706.1594" y1="565.0441" y2="565.0441"/><text fill="#0A9EFD" font-family="Arial" font-size="13" lengthAdjust="spacing" textLength="136.5889" x="463.6004" y="545.3405">Notify the audience that</text><text fill="#0A9EFD" font-family="Arial" font-size="13" lengthAdjust="spacing" textLength="162.6143" x="452.3936" y="560.2892">the host has left the channel</text></g><g class="message" data-participant-1="AUD" data-participant-2="SDK"><polygon fill="#0A9EFD" points="366.2421,589.9928,356.2421,593.9928,366.2421,597.9928,362.2421,593.9928" style="stroke:#0A9EFD;stroke-width:1;"/><line style="stroke:#0A9EFD;stroke-width:2;" x1="360.2421" x2="711.1594" y1="593.9928" y2="593.9928"/><text fill="#0A9EFD" font-family="Arial" font-size="13" lengthAdjust="spacing" textLength="106.2534" x="480.5741" y="589.238">Leave the channel</text></g><g class="message" data-participant-1="SDK" data-participant-2="AUD"><polygon fill="#0A9EFD" points="700.1594,633.8903,710.1594,637.8903,700.1594,641.8903,704.1594,637.8903" style="stroke:#0A9EFD;stroke-width:1;"/><line style="stroke:#0A9EFD;stroke-width:2;stroke-dasharray:2.0,2.0;" x1="355.2421" x2="706.1594" y1="637.8903" y2="637.8903"/><text fill="#0A9EFD" font-family="Arial" font-size="13" lengthAdjust="spacing" textLength="136.5889" x="463.6004" y="618.1867">Notify the audience that</text><text fill="#0A9EFD" font-family="Arial" font-size="13" lengthAdjust="spacing" textLength="122.8589" x="472.2713" y="633.1354">it has left the channel</text></g><g class="message" data-participant-1="HST" data-participant-2="SDK"><polygon fill="#0A9EFD" points="343.2421,662.839,353.2421,666.839,343.2421,670.839,347.2421,666.839" style="stroke:#0A9EFD;stroke-width:1;"/><line style="stroke:#0A9EFD;stroke-width:2;" x1="41.3333" x2="349.2421" y1="666.839" y2="666.839"/><text fill="#0A9EFD" font-family="Arial" font-size="13" lengthAdjust="spacing" textLength="109.1226" x="143.7264" y="662.0841">Destroy the engine</text></g><g class="message" data-participant-1="AUD" data-participant-2="SDK"><polygon fill="#0A9EFD" points="366.2421,691.7878,356.2421,695.7878,366.2421,699.7878,362.2421,695.7878" style="stroke:#0A9EFD;stroke-width:1;"/><line style="stroke:#0A9EFD;stroke-width:2;" x1="360.2421" x2="711.1594" y1="695.7878" y2="695.7878"/><text fill="#0A9EFD" font-family="Arial" font-size="13" lengthAdjust="spacing" textLength="109.1226" x="479.1395" y="691.0329">Destroy the engine</text></g><!--SRC=[bL8xJyCm4DxpAuuCR44CJ55KgMgHoaCCJTag8JUvDWPpZcodelnwBcvQOcX4sIBVVS_BXQH2DIM2s6WZNkoRf2lPlAieMkaFYCTrdS9CMnT7jJ1E5h8Mv23EhFp4zEPwb5qwiLBeHZ482xDy4I6LmDYEOBwOG3vz68OhiKDZzt1U_07t-kEcb4W5nd2MYV7pz9jbOtHJmnr99uNYTN0L0j964aRi5f9Hgvh2nA1mt0BZvCbbPZr_cUKFqlTQ4XIL848LAFf1Y-c6BTsImABphur50qOhR2DLV870mN_0egilOYGapC0kKdZIJgvtVhjbvm_X0iQAeIj4WbVMmlA8PXi1-a3_DqElbTpn8JrKSuKEZIYSrEGpPia-unmBbDkzW0wgozlpxfzxdBU7nu2nZtj4iSM-HJ_DaaxmP2LBFh1Fed0TnEky_iQ6XIpfo3V8CkpllDA7FVRJJz4wetT3F_M9SLlk5m00]--></g></svg>