<svg xmlns="http://www.w3.org/2000/svg" xmlns:xlink="http://www.w3.org/1999/xlink" contentStyleType="text/css" data-diagram-type="SEQUENCE" height="964px" preserveAspectRatio="none" style="width:594px;height:964px;" version="1.1" viewBox="0 0 594 964" width="594px" zoomAndPan="magnify"><defs/><g><rect fill="none" height="962.9417" style="stroke:#0A9EFD;stroke-width:1;" width="592.3641" x="0" y="0"/><rect fill="#999999" fill-opacity="0.33333" height="952.9417" style="stroke:#0A9EFD;stroke-width:0.5;" width="50.6667" x="16" y="6"/><text fill="#0A9EFD" font-family="sans-serif" font-size="13" font-weight="bold" lengthAdjust="spacing" textLength="25.27" x="28.6983" y="19.4951">App</text><rect fill="#999999" fill-opacity="0.33333" height="952.9417" style="stroke:#0A9EFD;stroke-width:0.5;" width="63.7764" x="278.437" y="6"/><text fill="#0A9EFD" font-family="sans-serif" font-size="13" font-weight="bold" lengthAdjust="spacing" textLength="57.7764" x="281.437" y="19.4951">RTC SDK</text><rect fill="#999999" fill-opacity="0.33333" height="952.9417" style="stroke:#0A9EFD;stroke-width:0.5;" width="101.5259" x="486.8382" y="6"/><text fill="#0A9EFD" font-family="sans-serif" font-size="13" font-weight="bold" lengthAdjust="spacing" textLength="95.5259" x="489.8382" y="19.4951">Agora SDRTN&#174;</text><rect fill="#0A9EFD" fill-opacity="0.06667" height="60.8462" style="stroke:#0A9EFD;stroke-width:2;" width="331.6585" x="10" y="85.0182"/><rect fill="#0A9EFD" fill-opacity="0.06667" height="74.8462" style="stroke:#0A9EFD;stroke-width:2;" width="558.9345" x="10" y="159.8644"/><rect fill="#0A9EFD" fill-opacity="0.06667" height="177.5898" style="stroke:#0A9EFD;stroke-width:2;" width="558.9345" x="10" y="248.7106"/><rect fill="#0A9EFD" fill-opacity="0.06667" height="265.3848" style="stroke:#0A9EFD;stroke-width:2;" width="558.9345" x="10" y="440.3005"/><rect fill="#0A9EFD" fill-opacity="0.06667" height="177.5898" style="stroke:#0A9EFD;stroke-width:2;" width="558.9345" x="10" y="719.6852"/><g><title>&lt;size:40&gt;&lt;&amp;tablet&gt;</title><rect fill="#000000" fill-opacity="0.00000" height="846.2568" width="8" x="37.3333" y="68.0182"/><line style="stroke:#0A9EFD;stroke-width:0.5;stroke-dasharray:5.0,5.0;" x1="41" x2="41" y1="68.0182" y2="914.2751"/></g><g><title>&lt;size:40&gt;&lt;&amp;layers&gt;</title><rect fill="#000000" fill-opacity="0.00000" height="846.2568" width="8" x="306.3252" y="68.0182"/><line style="stroke:#0A9EFD;stroke-width:0.5;stroke-dasharray:5.0,5.0;" x1="309.9919" x2="309.9919" y1="68.0182" y2="914.2751"/></g><g><title>&lt;size:40&gt;&lt;&amp;cloud&gt;</title><rect fill="#000000" fill-opacity="0.00000" height="846.2568" width="8" x="533.6012" y="68.0182"/><line style="stroke:#0A9EFD;stroke-width:0.5;stroke-dasharray:5.0,5.0;" x1="537.2678" x2="537.2678" y1="68.0182" y2="914.2751"/></g><g class="participant participant-head" data-participant="APP"><rect fill="none" height="40.6667" rx="2.5" ry="2.5" style="stroke:#0A9EFD;stroke-width:2;" width="42.6667" x="20" y="26.3516"/><path d="M29.1333,33.3516 C28.5333,33.3516 28,33.8849 28,34.4849 L28,58.8516 C28,59.4516 28.5333,59.9849 29.1333,59.9849 L50.1667,59.9849 C50.7667,59.9849 51.3,59.4516 51.3,58.8516 L51.3,34.4849 C51.3,33.8849 50.7667,33.3516 50.1667,33.3516 L29.1333,33.3516 M31.3333,36.6849 L48,36.6849 L48,53.3516 L31.3333,53.3516 L31.3333,36.6849 M39.6667,55.0182 C40.9333,55.0182 41.7667,56.4182 41.1333,57.5182 C40.5,58.6182 38.8667,58.6182 38.2,57.5182 C37.5667,56.4182 38.3667,55.0182 39.6667,55.0182" fill="#0A9EFD"/></g><g class="participant participant-tail" data-participant="APP"><rect fill="none" height="40.6667" rx="2.5" ry="2.5" style="stroke:#0A9EFD;stroke-width:2;" width="42.6667" x="20" y="913.2751"/><path d="M29.1333,920.2751 C28.5333,920.2751 28,920.8084 28,921.4084 L28,945.7751 C28,946.3751 28.5333,946.9084 29.1333,946.9084 L50.1667,946.9084 C50.7667,946.9084 51.3,946.3751 51.3,945.7751 L51.3,921.4084 C51.3,920.8084 50.7667,920.2751 50.1667,920.2751 L29.1333,920.2751 M31.3333,923.6084 L48,923.6084 L48,940.2751 L31.3333,940.2751 L31.3333,923.6084 M39.6667,941.9417 C40.9333,941.9417 41.7667,943.3417 41.1333,944.4417 C40.5,945.5417 38.8667,945.5417 38.2,944.4417 C37.5667,943.3417 38.3667,941.9417 39.6667,941.9417" fill="#0A9EFD"/></g><g class="participant participant-head" data-participant="SDK"><rect fill="none" height="40.6667" rx="2.5" ry="2.5" style="stroke:#0A9EFD;stroke-width:2;" width="42.6667" x="288.9919" y="26.3516"/><path d="M296.9919,33.3516 L296.9919,46.6849 L310.3252,46.6849 L310.3252,33.3516 L296.9919,33.3516 M313.6585,40.0182 L313.6585,50.0182 L303.6585,50.0182 L303.6585,53.3516 L316.9919,53.3516 L316.9919,40.0182 L313.6585,40.0182 M320.3252,46.6849 L320.3252,56.6849 L310.3252,56.6849 L310.3252,60.0182 L323.6585,60.0182 L323.6585,46.6849 L320.3252,46.6849" fill="#0A9EFD"/></g><g class="participant participant-tail" data-participant="SDK"><rect fill="none" height="40.6667" rx="2.5" ry="2.5" style="stroke:#0A9EFD;stroke-width:2;" width="42.6667" x="288.9919" y="913.2751"/><path d="M296.9919,920.2751 L296.9919,933.6084 L310.3252,933.6084 L310.3252,920.2751 L296.9919,920.2751 M313.6585,926.9417 L313.6585,936.9417 L303.6585,936.9417 L303.6585,940.2751 L316.9919,940.2751 L316.9919,926.9417 L313.6585,926.9417 M320.3252,933.6084 L320.3252,943.6084 L310.3252,943.6084 L310.3252,946.9417 L323.6585,946.9417 L323.6585,933.6084 L320.3252,933.6084" fill="#0A9EFD"/></g><g class="participant participant-head" data-participant="RTN"><rect fill="none" height="40.6667" rx="2.5" ry="2.5" style="stroke:#0A9EFD;stroke-width:2;" width="42.6667" x="516.2678" y="26.3516"/><path d="M539.2678,36.6849 C535.2345,36.6849 531.7012,39.5516 530.9345,43.3516 C527.2678,43.3516 524.2678,46.3516 524.2678,50.0182 C524.2678,53.6849 527.2678,56.6849 530.9345,56.6849 L545.9345,56.6849 C548.7012,56.6849 550.9345,54.4516 550.9345,51.6849 C550.9345,49.5182 549.5345,47.3849 547.6012,46.6849 L547.6012,45.0182 C547.6012,40.4182 543.8678,36.6849 539.2678,36.6849" fill="#0A9EFD"/></g><g class="participant participant-tail" data-participant="RTN"><rect fill="none" height="40.6667" rx="2.5" ry="2.5" style="stroke:#0A9EFD;stroke-width:2;" width="42.6667" x="516.2678" y="913.2751"/><path d="M539.2678,923.6084 C535.2345,923.6084 531.7012,926.4751 530.9345,930.2751 C527.2678,930.2751 524.2678,933.2751 524.2678,936.9417 C524.2678,940.6084 527.2678,943.6084 530.9345,943.6084 L545.9345,943.6084 C548.7012,943.6084 550.9345,941.3751 550.9345,938.6084 C550.9345,936.4417 549.5345,934.3084 547.6012,933.6084 L547.6012,931.9417 C547.6012,927.3417 543.8678,923.6084 539.2678,923.6084" fill="#0A9EFD"/></g><path d="M10,85.0182 L169.1689,85.0182 L169.1689,91.967 L159.1689,101.967 L10,101.967 L10,85.0182" fill="#EEEEEE" style="stroke:#0A9EFD;stroke-width:1.5;"/><rect fill="none" height="60.8462" style="stroke:#0A9EFD;stroke-width:2;" width="331.6585" x="10" y="85.0182"/><text fill="#000000" font-family="Arial" font-size="13" lengthAdjust="spacing" textLength="114.1689" x="25" y="98.2121">Create a local client</text><g class="message" data-participant-1="APP" data-participant-2="SDK"><polygon fill="#0A9EFD" points="298.3252,133.8644,308.3252,137.8644,298.3252,141.8644,302.3252,137.8644" style="stroke:#0A9EFD;stroke-width:1;"/><line style="stroke:#0A9EFD;stroke-width:2;" x1="41.3333" x2="304.3252" y1="137.8644" y2="137.8644"/><text fill="#0A9EFD" font-family="Arial" font-size="13" lengthAdjust="spacing" textLength="134.3862" x="108.6361" y="118.1608">AgoraRTC.createClient</text><text fill="#0A9EFD" font-family="Arial" font-size="13" lengthAdjust="spacing" textLength="93.1138" x="131.0783" y="133.1095">Set mode to 'rtc'</text></g><path d="M10,159.8644 L127.998,159.8644 L127.998,166.8132 L117.998,176.8132 L10,176.8132 L10,159.8644" fill="#EEEEEE" style="stroke:#0A9EFD;stroke-width:1.5;"/><rect fill="none" height="74.8462" style="stroke:#0A9EFD;stroke-width:2;" width="558.9345" x="10" y="159.8644"/><text fill="#000000" font-family="Arial" font-size="13" lengthAdjust="spacing" textLength="72.998" x="25" y="173.0583">Join channel</text><g class="message" data-participant-1="APP" data-participant-2="SDK"><polygon fill="#0A9EFD" points="298.3252,193.7619,308.3252,197.7619,298.3252,201.7619,302.3252,197.7619" style="stroke:#0A9EFD;stroke-width:1;"/><line style="stroke:#0A9EFD;stroke-width:2;" x1="41.3333" x2="304.3252" y1="197.7619" y2="197.7619"/><text fill="#0A9EFD" font-family="Arial" font-size="13" lengthAdjust="spacing" textLength="118.4917" x="116.5834" y="193.007">AgoraRTCClient.join</text></g><g class="message" data-participant-1="SDK" data-participant-2="RTN"><polygon fill="#0A9EFD" points="525.6012,222.7106,535.6012,226.7106,525.6012,230.7106,529.6012,226.7106" style="stroke:#0A9EFD;stroke-width:1;"/><line style="stroke:#0A9EFD;stroke-width:2;" x1="310.3252" x2="531.6012" y1="226.7106" y2="226.7106"/><text fill="#0A9EFD" font-family="Arial" font-size="13" lengthAdjust="spacing" textLength="119.9707" x="363.9778" y="221.9557">Join channel request</text></g><path d="M10,248.7106 L328.1714,248.7106 L328.1714,255.6593 L318.1714,265.6593 L10,265.6593 L10,248.7106" fill="#EEEEEE" style="stroke:#0A9EFD;stroke-width:1.5;"/><rect fill="none" height="177.5898" style="stroke:#0A9EFD;stroke-width:2;" width="558.9345" x="10" y="248.7106"/><text fill="#000000" font-family="Arial" font-size="13" lengthAdjust="spacing" textLength="273.1714" x="25" y="261.9045">Create and publish local audio and video tracks</text><g class="message" data-participant-1="APP" data-participant-2="SDK"><polygon fill="#0A9EFD" points="298.3252,297.5568,308.3252,301.5568,298.3252,305.5568,302.3252,301.5568" style="stroke:#0A9EFD;stroke-width:1;"/><line style="stroke:#0A9EFD;stroke-width:2;" x1="41.3333" x2="304.3252" y1="301.5568" y2="301.5568"/><text fill="#0A9EFD" font-family="Arial" font-size="13" lengthAdjust="spacing" textLength="136.5698" x="107.5444" y="281.8532">Create local audio track</text><text fill="#0A9EFD" font-family="Arial" font-size="13" lengthAdjust="spacing" textLength="234.8252" x="60.2226" y="296.8019">AgoraRTC.createMicrophoneAudioTrack</text></g><g class="message" data-participant-1="APP" data-participant-2="SDK"><polygon fill="#0A9EFD" points="298.3252,341.4543,308.3252,345.4543,298.3252,349.4543,302.3252,345.4543" style="stroke:#0A9EFD;stroke-width:1;"/><line style="stroke:#0A9EFD;stroke-width:2;" x1="41.3333" x2="304.3252" y1="345.4543" y2="345.4543"/><text fill="#0A9EFD" font-family="Arial" font-size="13" lengthAdjust="spacing" textLength="135.8398" x="107.9093" y="325.7507">Create local video track</text><text fill="#0A9EFD" font-family="Arial" font-size="13" lengthAdjust="spacing" textLength="213.1353" x="71.0675" y="340.6994">AgoraRTC.createCameraVideoTrack</text></g><g class="message" data-participant-1="APP" data-participant-2="SDK"><polygon fill="#0A9EFD" points="298.3252,385.3517,308.3252,389.3517,298.3252,393.3517,302.3252,389.3517" style="stroke:#0A9EFD;stroke-width:1;"/><line style="stroke:#0A9EFD;stroke-width:2;" x1="41.3333" x2="304.3252" y1="389.3517" y2="389.3517"/><text fill="#0A9EFD" font-family="Arial" font-size="13" lengthAdjust="spacing" textLength="206.6797" x="72.4894" y="369.6481">Publish local audio and video tracks</text><text fill="#0A9EFD" font-family="Arial" font-size="13" lengthAdjust="spacing" textLength="139.4517" x="107.9093" y="384.5968">AgoraRTCClient.publish</text></g><g class="message" data-participant-1="SDK" data-participant-2="RTN"><polygon fill="#0A9EFD" points="525.6012,414.3005,535.6012,418.3005,525.6012,422.3005,529.6012,418.3005" style="stroke:#0A9EFD;stroke-width:1;"/><line style="stroke:#0A9EFD;stroke-width:2;" x1="310.3252" x2="531.6012" y1="418.3005" y2="418.3005"/><text fill="#0A9EFD" font-family="Arial" font-size="13" lengthAdjust="spacing" textLength="154.686" x="346.6202" y="413.5456">Send audio and video data</text></g><path d="M10,440.3005 L206.7344,440.3005 L206.7344,447.2492 L196.7344,457.2492 L10,457.2492 L10,440.3005" fill="#EEEEEE" style="stroke:#0A9EFD;stroke-width:1.5;"/><rect fill="none" height="265.3848" style="stroke:#0A9EFD;stroke-width:2;" width="558.9345" x="10" y="440.3005"/><text fill="#000000" font-family="Arial" font-size="13" lengthAdjust="spacing" textLength="151.7344" x="25" y="453.4943">Subscribe to remote users</text><g class="message" data-participant-1="RTN" data-participant-2="APP"><polygon fill="#0A9EFD" points="52.3333,489.1466,42.3333,493.1466,52.3333,497.1466,48.3333,493.1466" style="stroke:#0A9EFD;stroke-width:1;"/><line style="stroke:#0A9EFD;stroke-width:2;stroke-dasharray:2.0,2.0;" x1="46.3333" x2="536.6012" y1="493.1466" y2="493.1466"/><text fill="#0A9EFD" font-family="Arial" font-size="13" lengthAdjust="spacing" textLength="259.4224" x="159.7561" y="473.443">Remote users publish audio and video tracks</text><text fill="#0A9EFD" font-family="Arial" font-size="13" lengthAdjust="spacing" textLength="151.582" x="215.4821" y="488.3918">client.on("user-published")</text></g><g class="message" data-participant-1="APP" data-participant-2="SDK"><polygon fill="#0A9EFD" points="298.3252,533.0441,308.3252,537.0441,298.3252,541.0441,302.3252,537.0441" style="stroke:#0A9EFD;stroke-width:1;"/><line style="stroke:#0A9EFD;stroke-width:2;" x1="41.3333" x2="304.3252" y1="537.0441" y2="537.0441"/><text fill="#0A9EFD" font-family="Arial" font-size="13" lengthAdjust="spacing" textLength="132.228" x="109.7153" y="517.3405">Get remote user object</text><text fill="#0A9EFD" font-family="Arial" font-size="13" lengthAdjust="spacing" textLength="172.6626" x="91.3039" y="532.2892">AgoraRTCClient.remoteUsers</text></g><g class="message" data-participant-1="APP" data-participant-2="SDK"><polygon fill="#0A9EFD" points="298.3252,576.9416,308.3252,580.9416,298.3252,584.9416,302.3252,580.9416" style="stroke:#0A9EFD;stroke-width:1;"/><line style="stroke:#0A9EFD;stroke-width:2;" x1="41.3333" x2="304.3252" y1="580.9416" y2="580.9416"/><text fill="#0A9EFD" font-family="Arial" font-size="13" lengthAdjust="spacing" textLength="183.5361" x="84.0612" y="561.238">Subscribe to remote user object</text><text fill="#0A9EFD" font-family="Arial" font-size="13" lengthAdjust="spacing" textLength="153.8926" x="100.6889" y="576.1867">AgoraRTCClient.subscribe</text></g><g class="message" data-participant-1="RTN" data-participant-2="SDK"><polygon fill="#0A9EFD" points="321.3252,605.8903,311.3252,609.8903,321.3252,613.8903,317.3252,609.8903" style="stroke:#0A9EFD;stroke-width:1;"/><line style="stroke:#0A9EFD;stroke-width:2;" x1="315.3252" x2="536.6012" y1="609.8903" y2="609.8903"/><text fill="#0A9EFD" font-family="Arial" font-size="13" lengthAdjust="spacing" textLength="171.2915" x="338.3174" y="605.1354">Receive audio and video data</text></g><g class="message" data-participant-1="APP" data-participant-2="SDK"><polygon fill="#0A9EFD" points="298.3252,649.7878,308.3252,653.7878,298.3252,657.7878,302.3252,653.7878" style="stroke:#0A9EFD;stroke-width:1;"/><line style="stroke:#0A9EFD;stroke-width:2;" x1="41.3333" x2="304.3252" y1="653.7878" y2="653.7878"/><text fill="#0A9EFD" font-family="Arial" font-size="13" lengthAdjust="spacing" textLength="138.7471" x="106.4557" y="634.0841">Get remote audio object</text><text fill="#0A9EFD" font-family="Arial" font-size="13" lengthAdjust="spacing" textLength="202.2935" x="76.4884" y="649.0329">AgoraRTCRemoteUser.audioTrack</text></g><g class="message" data-participant-1="APP" data-participant-2="SDK"><polygon fill="#0A9EFD" points="298.3252,693.6852,308.3252,697.6852,298.3252,701.6852,302.3252,697.6852" style="stroke:#0A9EFD;stroke-width:1;"/><line style="stroke:#0A9EFD;stroke-width:2;" x1="41.3333" x2="304.3252" y1="697.6852" y2="697.6852"/><text fill="#0A9EFD" font-family="Arial" font-size="13" lengthAdjust="spacing" textLength="138.0171" x="106.8207" y="677.9816">Get remote video object</text><text fill="#0A9EFD" font-family="Arial" font-size="13" lengthAdjust="spacing" textLength="201.5635" x="76.8534" y="692.9303">AgoraRTCRemoteUser.videoTrack</text></g><path d="M10,719.6852 L161.2534,719.6852 L161.2534,726.634 L151.2534,736.634 L10,736.634 L10,719.6852" fill="#EEEEEE" style="stroke:#0A9EFD;stroke-width:1.5;"/><rect fill="none" height="177.5898" style="stroke:#0A9EFD;stroke-width:2;" width="558.9345" x="10" y="719.6852"/><text fill="#000000" font-family="Arial" font-size="13" lengthAdjust="spacing" textLength="106.2534" x="25" y="732.8791">Leave the channel</text><g class="message" data-participant-1="APP" data-participant-2="SDK"><polygon fill="#0A9EFD" points="298.3252,768.5314,308.3252,772.5314,298.3252,776.5314,302.3252,772.5314" style="stroke:#0A9EFD;stroke-width:1;"/><line style="stroke:#0A9EFD;stroke-width:2;" x1="41.3333" x2="304.3252" y1="772.5314" y2="772.5314"/><text fill="#0A9EFD" font-family="Arial" font-size="13" lengthAdjust="spacing" textLength="164.0298" x="93.8144" y="752.8278">Turn off the local audio track</text><text fill="#0A9EFD" font-family="Arial" font-size="13" lengthAdjust="spacing" textLength="167.6353" x="93.8175" y="767.7765">MicrophoneAudioTrack.close</text></g><g class="message" data-participant-1="APP" data-participant-2="SDK"><polygon fill="#0A9EFD" points="298.3252,812.4289,308.3252,816.4289,298.3252,820.4289,302.3252,816.4289" style="stroke:#0A9EFD;stroke-width:1;"/><line style="stroke:#0A9EFD;stroke-width:2;" x1="41.3333" x2="304.3252" y1="816.4289" y2="816.4289"/><text fill="#0A9EFD" font-family="Arial" font-size="13" lengthAdjust="spacing" textLength="163.2998" x="94.1794" y="796.7253">Turn off the local video track</text><text fill="#0A9EFD" font-family="Arial" font-size="13" lengthAdjust="spacing" textLength="145.9453" x="104.6625" y="811.674">CameraVideoTrack.close</text></g><g class="message" data-participant-1="APP" data-participant-2="SDK"><polygon fill="#0A9EFD" points="298.3252,856.3263,308.3252,860.3263,298.3252,864.3263,302.3252,860.3263" style="stroke:#0A9EFD;stroke-width:1;"/><line style="stroke:#0A9EFD;stroke-width:2;" x1="41.3333" x2="304.3252" y1="860.3263" y2="860.3263"/><text fill="#0A9EFD" font-family="Arial" font-size="13" lengthAdjust="spacing" textLength="106.2534" x="122.7026" y="840.6227">Leave the channel</text><text fill="#0A9EFD" font-family="Arial" font-size="13" lengthAdjust="spacing" textLength="129.3335" x="112.9684" y="855.5715">AgoraRTCClient.leave</text></g><g class="message" data-participant-1="SDK" data-participant-2="RTN"><polygon fill="#0A9EFD" points="525.6012,885.2751,535.6012,889.2751,525.6012,893.2751,529.6012,889.2751" style="stroke:#0A9EFD;stroke-width:1;"/><line style="stroke:#0A9EFD;stroke-width:2;" x1="310.3252" x2="531.6012" y1="889.2751" y2="889.2751"/><text fill="#0A9EFD" font-family="Arial" font-size="13" lengthAdjust="spacing" textLength="168.397" x="339.7647" y="884.5202">Request to leave the channel</text></g><!--SRC=[ZLFBRjim4BphAxOwDCr1GWyv6OO1mm4Az14OijjJWO2YDZ4JcbJuC99yL3-YNzQb7WcZHz0hEJCxinn-48fBNo6mMstOjRqNAXV-A9Ear8-GhkiwJMfcdE2YPif1khJY6HSNdrVBZuwL4jqg1MPXlTqcg2eWLaSjzXlONNwRfqlsXCQsT08EwElWXywB_TNVF_CYN6fVjHg4VDMuDThNi37876K3gJcJmAL0vHBocgreuWAQ8MGqvmrmqzp_Lh131qTDMt4QpepZPq6u5_sgXG9-O4gXdD1gHV8xGYLqaQt8r-8D2Gm-UBGk5ksTal_QbrBOG-UP-KhevlmaAjJW3EFtDfhRCMDqWw4OWtW_13UwFcY5wm3R1zISK3HiBBHXHpJiLu0CHRR_OJuIx9RLHOxsjGilEQHNpB5uQJjVMcv4sRoJmQCc-zvIgOAXPPOrIaLq_hBRMMDjHNAjFgM1aNK4hDBpAEKNwaSq3tHvXzoDSxMOdxsbZZrdUrR6zeIme6KVYwCuuVIE9fssoD6CuiLZpgPg4Icq4zvJEBrs8dgdxyZ8gJlWnBVPUwD0tzmqrrCbdcfjJj_UuligRniyhEn8OUHn_0moGAAE5kqt3gyeHmb3_7y0]--></g></svg>