<svg xmlns="http://www.w3.org/2000/svg" xmlns:xlink="http://www.w3.org/1999/xlink" contentStyleType="text/css" data-diagram-type="SEQUENCE" height="787px" preserveAspectRatio="none" style="width:811px;height:787px;" version="1.1" viewBox="0 0 811 787" width="811px" zoomAndPan="magnify"><defs/><g><rect fill="none" height="785.557" style="stroke:#0A9EFD;stroke-width:1;" width="809.0232" x="0" y="0"/><rect fill="#999999" fill-opacity="0.33333" height="775.557" style="stroke:#0A9EFD;stroke-width:0.5;" width="68.0991" x="7.2838" y="6"/><text fill="#0A9EFD" font-family="sans-serif" font-size="13" font-weight="bold" lengthAdjust="spacing" textLength="62.0991" x="10.2838" y="19.4951">App: Host</text><rect fill="#999999" fill-opacity="0.33333" height="775.557" style="stroke:#0A9EFD;stroke-width:0.5;" width="63.7764" x="359.453" y="6"/><text fill="#0A9EFD" font-family="sans-serif" font-size="13" font-weight="bold" lengthAdjust="spacing" textLength="57.7764" x="362.453" y="19.4951">RTC SDK</text><rect fill="#999999" fill-opacity="0.33333" height="775.557" style="stroke:#0A9EFD;stroke-width:0.5;" width="97.7236" x="707.2996" y="6"/><text fill="#0A9EFD" font-family="sans-serif" font-size="13" font-weight="bold" lengthAdjust="spacing" textLength="91.7236" x="710.2996" y="19.4951">App: Audience</text><rect fill="#0A9EFD" fill-opacity="0.06667" height="74.8462" style="stroke:#0A9EFD;stroke-width:2;" width="777.4947" x="10" y="85.0182"/><rect fill="#0A9EFD" fill-opacity="0.06667" height="103.7949" style="stroke:#0A9EFD;stroke-width:2;" width="412.6746" x="10" y="173.8644"/><rect fill="#0A9EFD" fill-opacity="0.06667" height="132.7437" style="stroke:#0A9EFD;stroke-width:2;" width="777.4947" x="10" y="291.6593"/><rect fill="#0A9EFD" fill-opacity="0.06667" height="132.7437" style="stroke:#0A9EFD;stroke-width:2;" width="777.4947" x="10" y="438.403"/><rect fill="#0A9EFD" fill-opacity="0.06667" height="45.8975" style="stroke:#0A9EFD;stroke-width:2;" width="427.4868" x="360.0079" y="585.1466"/><rect fill="#0A9EFD" fill-opacity="0.06667" height="74.8462" style="stroke:#0A9EFD;stroke-width:2;" width="777.4947" x="10" y="645.0441"/><g><title>&lt;size:40&gt;&lt;&amp;tablet&gt;</title><rect fill="#000000" fill-opacity="0.00000" height="668.8721" width="8" x="37.3333" y="68.0182"/><line style="stroke:#0A9EFD;stroke-width:0.5;stroke-dasharray:5.0,5.0;" x1="41" x2="41" y1="68.0182" y2="736.8903"/></g><g><title>&lt;size:40&gt;&lt;&amp;layers&gt;</title><rect fill="#000000" fill-opacity="0.00000" height="668.8721" width="8" x="387.3412" y="68.0182"/><line style="stroke:#0A9EFD;stroke-width:0.5;stroke-dasharray:5.0,5.0;" x1="391.0079" x2="391.0079" y1="68.0182" y2="736.8903"/></g><g><title>&lt;size:40&gt;&lt;&amp;tablet&gt;</title><rect fill="#000000" fill-opacity="0.00000" height="668.8721" width="8" x="752.1614" y="68.0182"/><line style="stroke:#0A9EFD;stroke-width:0.5;stroke-dasharray:5.0,5.0;" x1="755.828" x2="755.828" y1="68.0182" y2="736.8903"/></g><g class="participant participant-head" data-participant="HST"><rect fill="none" height="40.6667" rx="2.5" ry="2.5" style="stroke:#0A9EFD;stroke-width:2;" width="42.6667" x="20" y="26.3516"/><path d="M29.1333,33.3516 C28.5333,33.3516 28,33.8849 28,34.4849 L28,58.8516 C28,59.4516 28.5333,59.9849 29.1333,59.9849 L50.1667,59.9849 C50.7667,59.9849 51.3,59.4516 51.3,58.8516 L51.3,34.4849 C51.3,33.8849 50.7667,33.3516 50.1667,33.3516 L29.1333,33.3516 M31.3333,36.6849 L48,36.6849 L48,53.3516 L31.3333,53.3516 L31.3333,36.6849 M39.6667,55.0182 C40.9333,55.0182 41.7667,56.4182 41.1333,57.5182 C40.5,58.6182 38.8667,58.6182 38.2,57.5182 C37.5667,56.4182 38.3667,55.0182 39.6667,55.0182" fill="#0A9EFD"/></g><g class="participant participant-tail" data-participant="HST"><rect fill="none" height="40.6667" rx="2.5" ry="2.5" style="stroke:#0A9EFD;stroke-width:2;" width="42.6667" x="20" y="735.8903"/><path d="M29.1333,742.8903 C28.5333,742.8903 28,743.4236 28,744.0236 L28,768.3903 C28,768.9903 28.5333,769.5236 29.1333,769.5236 L50.1667,769.5236 C50.7667,769.5236 51.3,768.9903 51.3,768.3903 L51.3,744.0236 C51.3,743.4236 50.7667,742.8903 50.1667,742.8903 L29.1333,742.8903 M31.3333,746.2236 L48,746.2236 L48,762.8903 L31.3333,762.8903 L31.3333,746.2236 M39.6667,764.557 C40.9333,764.557 41.7667,765.957 41.1333,767.057 C40.5,768.157 38.8667,768.157 38.2,767.057 C37.5667,765.957 38.3667,764.557 39.6667,764.557" fill="#0A9EFD"/></g><g class="participant participant-head" data-participant="SDK"><rect fill="none" height="40.6667" rx="2.5" ry="2.5" style="stroke:#0A9EFD;stroke-width:2;" width="42.6667" x="370.0079" y="26.3516"/><path d="M378.0079,33.3516 L378.0079,46.6849 L391.3412,46.6849 L391.3412,33.3516 L378.0079,33.3516 M394.6746,40.0182 L394.6746,50.0182 L384.6746,50.0182 L384.6746,53.3516 L398.0079,53.3516 L398.0079,40.0182 L394.6746,40.0182 M401.3412,46.6849 L401.3412,56.6849 L391.3412,56.6849 L391.3412,60.0182 L404.6746,60.0182 L404.6746,46.6849 L401.3412,46.6849" fill="#0A9EFD"/></g><g class="participant participant-tail" data-participant="SDK"><rect fill="none" height="40.6667" rx="2.5" ry="2.5" style="stroke:#0A9EFD;stroke-width:2;" width="42.6667" x="370.0079" y="735.8903"/><path d="M378.0079,742.8903 L378.0079,756.2236 L391.3412,756.2236 L391.3412,742.8903 L378.0079,742.8903 M394.6746,749.557 L394.6746,759.557 L384.6746,759.557 L384.6746,762.8903 L398.0079,762.8903 L398.0079,749.557 L394.6746,749.557 M401.3412,756.2236 L401.3412,766.2236 L391.3412,766.2236 L391.3412,769.557 L404.6746,769.557 L404.6746,756.2236 L401.3412,756.2236" fill="#0A9EFD"/></g><g class="participant participant-head" data-participant="AUD"><rect fill="none" height="40.6667" rx="2.5" ry="2.5" style="stroke:#0A9EFD;stroke-width:2;" width="42.6667" x="734.828" y="26.3516"/><path d="M743.9614,33.3516 C743.3614,33.3516 742.828,33.8849 742.828,34.4849 L742.828,58.8516 C742.828,59.4516 743.3614,59.9849 743.9614,59.9849 L764.9947,59.9849 C765.5947,59.9849 766.128,59.4516 766.128,58.8516 L766.128,34.4849 C766.128,33.8849 765.5947,33.3516 764.9947,33.3516 L743.9614,33.3516 M746.1614,36.6849 L762.828,36.6849 L762.828,53.3516 L746.1614,53.3516 L746.1614,36.6849 M754.4947,55.0182 C755.7614,55.0182 756.5947,56.4182 755.9614,57.5182 C755.328,58.6182 753.6947,58.6182 753.028,57.5182 C752.3947,56.4182 753.1947,55.0182 754.4947,55.0182" fill="#0A9EFD"/></g><g class="participant participant-tail" data-participant="AUD"><rect fill="none" height="40.6667" rx="2.5" ry="2.5" style="stroke:#0A9EFD;stroke-width:2;" width="42.6667" x="734.828" y="735.8903"/><path d="M743.9614,742.8903 C743.3614,742.8903 742.828,743.4236 742.828,744.0236 L742.828,768.3903 C742.828,768.9903 743.3614,769.5236 743.9614,769.5236 L764.9947,769.5236 C765.5947,769.5236 766.128,768.9903 766.128,768.3903 L766.128,744.0236 C766.128,743.4236 765.5947,742.8903 764.9947,742.8903 L743.9614,742.8903 M746.1614,746.2236 L762.828,746.2236 L762.828,762.8903 L746.1614,762.8903 L746.1614,746.2236 M754.4947,764.557 C755.7614,764.557 756.5947,765.957 755.9614,767.057 C755.328,768.157 753.6947,768.157 753.028,767.057 C752.3947,765.957 753.1947,764.557 754.4947,764.557" fill="#0A9EFD"/></g><path d="M10,85.0182 L215.418,85.0182 L215.418,91.967 L205.418,101.967 L10,101.967 L10,85.0182" fill="#EEEEEE" style="stroke:#0A9EFD;stroke-width:1.5;"/><rect fill="none" height="74.8462" style="stroke:#0A9EFD;stroke-width:2;" width="777.4947" x="10" y="85.0182"/><text fill="#000000" font-family="Arial" font-size="13" lengthAdjust="spacing" textLength="160.418" x="25" y="98.2121">Initialize AgoraRtcEngineKit</text><g class="message" data-participant-1="HST" data-participant-2="SDK"><polygon fill="#0A9EFD" points="379.3412,118.9157,389.3412,122.9157,379.3412,126.9157,383.3412,122.9157" style="stroke:#0A9EFD;stroke-width:1;"/><line style="stroke:#0A9EFD;stroke-width:2;" x1="41.3333" x2="385.3412" y1="122.9157" y2="122.9157"/><text fill="#0A9EFD" font-family="Arial" font-size="13" lengthAdjust="spacing" textLength="140.2007" x="146.2369" y="118.1608">sharedEngineWithAppId</text></g><g class="message" data-participant-1="AUD" data-participant-2="SDK"><polygon fill="#0A9EFD" points="402.3412,147.8644,392.3412,151.8644,402.3412,155.8644,398.3412,151.8644" style="stroke:#0A9EFD;stroke-width:1;"/><line style="stroke:#0A9EFD;stroke-width:2;" x1="396.3412" x2="755.1614" y1="151.8644" y2="151.8644"/><text fill="#0A9EFD" font-family="Arial" font-size="13" lengthAdjust="spacing" textLength="140.2007" x="503.651" y="147.1095">sharedEngineWithAppId</text></g><path d="M10,173.8644 L134.479,173.8644 L134.479,180.8132 L124.479,190.8132 L10,190.8132 L10,173.8644" fill="#EEEEEE" style="stroke:#0A9EFD;stroke-width:1.5;"/><rect fill="none" height="103.7949" style="stroke:#0A9EFD;stroke-width:2;" width="412.6746" x="10" y="173.8644"/><text fill="#000000" font-family="Arial" font-size="13" lengthAdjust="spacing" textLength="79.479" x="25" y="187.0583">Set local view</text><g class="message" data-participant-1="HST" data-participant-2="SDK"><polygon fill="#0A9EFD" points="379.3412,207.7619,389.3412,211.7619,379.3412,215.7619,383.3412,211.7619" style="stroke:#0A9EFD;stroke-width:1;"/><line style="stroke:#0A9EFD;stroke-width:2;" x1="41.3333" x2="385.3412" y1="211.7619" y2="211.7619"/><text fill="#0A9EFD" font-family="Arial" font-size="13" lengthAdjust="spacing" textLength="72.2871" x="180.1937" y="207.007">enableVideo</text></g><g class="message" data-participant-1="HST" data-participant-2="SDK"><polygon fill="#0A9EFD" points="379.3412,236.7106,389.3412,240.7106,379.3412,244.7106,383.3412,240.7106" style="stroke:#0A9EFD;stroke-width:1;"/><line style="stroke:#0A9EFD;stroke-width:2;" x1="41.3333" x2="385.3412" y1="240.7106" y2="240.7106"/><text fill="#0A9EFD" font-family="Arial" font-size="13" lengthAdjust="spacing" textLength="71.519" x="180.5778" y="235.9557">startPreview</text></g><g class="message" data-participant-1="HST" data-participant-2="SDK"><polygon fill="#0A9EFD" points="379.3412,265.6593,389.3412,269.6593,379.3412,273.6593,383.3412,269.6593" style="stroke:#0A9EFD;stroke-width:1;"/><line style="stroke:#0A9EFD;stroke-width:2;" x1="41.3333" x2="385.3412" y1="269.6593" y2="269.6593"/><text fill="#0A9EFD" font-family="Arial" font-size="13" lengthAdjust="spacing" textLength="96.1289" x="168.2728" y="264.9045">setupLocalVideo</text></g><path d="M10,291.6593 L243.6143,291.6593 L243.6143,298.6081 L233.6143,308.6081 L10,308.6081 L10,291.6593" fill="#EEEEEE" style="stroke:#0A9EFD;stroke-width:1.5;"/><rect fill="none" height="132.7437" style="stroke:#0A9EFD;stroke-width:2;" width="777.4947" x="10" y="291.6593"/><text fill="#000000" font-family="Arial" font-size="13" lengthAdjust="spacing" textLength="188.6143" x="25" y="304.8532">Configure ChannelMediaOptions</text><g class="message" data-participant-1="HST" data-participant-2="SDK"><polygon fill="#0A9EFD" points="379.3412,325.5568,389.3412,329.5568,379.3412,333.5568,383.3412,329.5568" style="stroke:#0A9EFD;stroke-width:1;"/><line style="stroke:#0A9EFD;stroke-width:2;" x1="41.3333" x2="385.3412" y1="329.5568" y2="329.5568"/><text fill="#0A9EFD" font-family="Arial" font-size="13" lengthAdjust="spacing" textLength="310.7368" x="60.9689" y="324.8019">channelProfile(AgoraChannelProfileLiveBroadcasting)</text></g><g class="message" data-participant-1="AUD" data-participant-2="SDK"><polygon fill="#0A9EFD" points="402.3412,354.5055,392.3412,358.5055,402.3412,362.5055,398.3412,358.5055" style="stroke:#0A9EFD;stroke-width:1;"/><line style="stroke:#0A9EFD;stroke-width:2;" x1="396.3412" x2="755.1614" y1="358.5055" y2="358.5055"/><text fill="#0A9EFD" font-family="Arial" font-size="13" lengthAdjust="spacing" textLength="310.7368" x="418.3829" y="353.7507">channelProfile(AgoraChannelProfileLiveBroadcasting)</text></g><g class="message" data-participant-1="HST" data-participant-2="SDK"><polygon fill="#0A9EFD" points="379.3412,383.4543,389.3412,387.4543,379.3412,391.4543,383.3412,387.4543" style="stroke:#0A9EFD;stroke-width:1;"/><line style="stroke:#0A9EFD;stroke-width:2;" x1="41.3333" x2="385.3412" y1="387.4543" y2="387.4543"/><text fill="#0A9EFD" font-family="Arial" font-size="13" lengthAdjust="spacing" textLength="259.397" x="86.6388" y="382.6994">clientRoleType(AgoraClientRoleBroadcaster)</text></g><g class="message" data-participant-1="AUD" data-participant-2="SDK"><polygon fill="#0A9EFD" points="402.3412,412.403,392.3412,416.403,402.3412,420.403,398.3412,416.403" style="stroke:#0A9EFD;stroke-width:1;"/><line style="stroke:#0A9EFD;stroke-width:2;" x1="396.3412" x2="755.1614" y1="416.403" y2="416.403"/><text fill="#0A9EFD" font-family="Arial" font-size="13" lengthAdjust="spacing" textLength="243.5151" x="451.9937" y="411.6481">clientRoleType(AgoraClientRoleAudience)</text></g><path d="M10,438.403 L138.8398,438.403 L138.8398,445.3517 L128.8398,455.3517 L10,455.3517 L10,438.403" fill="#EEEEEE" style="stroke:#0A9EFD;stroke-width:1.5;"/><rect fill="none" height="132.7437" style="stroke:#0A9EFD;stroke-width:2;" width="777.4947" x="10" y="438.403"/><text fill="#000000" font-family="Arial" font-size="13" lengthAdjust="spacing" textLength="83.8398" x="25" y="451.5968">Join a channel</text><g class="message" data-participant-1="HST" data-participant-2="SDK"><polygon fill="#0A9EFD" points="379.3412,472.3005,389.3412,476.3005,379.3412,480.3005,383.3412,476.3005" style="stroke:#0A9EFD;stroke-width:1;"/><line style="stroke:#0A9EFD;stroke-width:2;" x1="41.3333" x2="385.3412" y1="476.3005" y2="476.3005"/><text fill="#0A9EFD" font-family="Arial" font-size="13" lengthAdjust="spacing" textLength="158.2661" x="137.2042" y="471.5456">joinChannel(demoChannel)</text></g><g class="message" data-participant-1="SDK" data-participant-2="AUD"><polygon fill="#0A9EFD" points="744.1614,501.2492,754.1614,505.2492,744.1614,509.2492,748.1614,505.2492" style="stroke:#0A9EFD;stroke-width:1;"/><line style="stroke:#0A9EFD;stroke-width:2;stroke-dasharray:2.0,2.0;" x1="391.3412" x2="750.1614" y1="505.2492" y2="505.2492"/><text fill="#0A9EFD" font-family="Arial" font-size="13" lengthAdjust="spacing" textLength="122.8525" x="512.325" y="500.4943">didJoinChannel(host)</text></g><g class="message" data-participant-1="AUD" data-participant-2="SDK"><polygon fill="#0A9EFD" points="402.3412,530.1979,392.3412,534.1979,402.3412,538.1979,398.3412,534.1979" style="stroke:#0A9EFD;stroke-width:1;"/><line style="stroke:#0A9EFD;stroke-width:2;" x1="396.3412" x2="755.1614" y1="534.1979" y2="534.1979"/><text fill="#0A9EFD" font-family="Arial" font-size="13" lengthAdjust="spacing" textLength="158.2661" x="494.6182" y="529.443">joinChannel(demoChannel)</text></g><g class="message" data-participant-1="SDK" data-participant-2="HST"><polygon fill="#0A9EFD" points="52.3333,559.1466,42.3333,563.1466,52.3333,567.1466,48.3333,563.1466" style="stroke:#0A9EFD;stroke-width:1;"/><line style="stroke:#0A9EFD;stroke-width:2;stroke-dasharray:2.0,2.0;" x1="46.3333" x2="390.3412" y1="563.1466" y2="563.1466"/><text fill="#0A9EFD" font-family="Arial" font-size="13" lengthAdjust="spacing" textLength="151.0488" x="140.8129" y="558.3918">didJoinChannel(audience)</text></g><path d="M360.0079,585.1466 L516.2823,585.1466 L516.2823,592.0954 L506.2823,602.0954 L360.0079,602.0954 L360.0079,585.1466" fill="#EEEEEE" style="stroke:#0A9EFD;stroke-width:1.5;"/><rect fill="none" height="45.8975" style="stroke:#0A9EFD;stroke-width:2;" width="427.4868" x="360.0079" y="585.1466"/><text fill="#000000" font-family="Arial" font-size="13" lengthAdjust="spacing" textLength="111.2744" x="375.0079" y="598.3405">Set up remote view</text><g class="message" data-participant-1="AUD" data-participant-2="SDK"><polygon fill="#0A9EFD" points="402.3412,619.0441,392.3412,623.0441,402.3412,627.0441,398.3412,623.0441" style="stroke:#0A9EFD;stroke-width:1;"/><line style="stroke:#0A9EFD;stroke-width:2;" x1="396.3412" x2="755.1614" y1="623.0441" y2="623.0441"/><text fill="#0A9EFD" font-family="Arial" font-size="13" lengthAdjust="spacing" textLength="110.5698" x="518.4664" y="618.2892">setupRemoteVideo</text></g><path d="M10,645.0441 L241.4561,645.0441 L241.4561,651.9928 L231.4561,661.9928 L10,661.9928 L10,645.0441" fill="#EEEEEE" style="stroke:#0A9EFD;stroke-width:1.5;"/><rect fill="none" height="74.8462" style="stroke:#0A9EFD;stroke-width:2;" width="777.4947" x="10" y="645.0441"/><text fill="#000000" font-family="Arial" font-size="13" lengthAdjust="spacing" textLength="186.4561" x="25" y="658.238">Start audio and video interaction</text><g class="message" data-participant-1="SDK" data-participant-2="AUD"><polygon fill="#0A9EFD" points="744.1614,678.9416,754.1614,682.9416,744.1614,686.9416,748.1614,682.9416" style="stroke:#0A9EFD;stroke-width:1;"/><line style="stroke:#0A9EFD;stroke-width:2;stroke-dasharray:2.0,2.0;" x1="391.3412" x2="750.1614" y1="682.9416" y2="682.9416"/><text fill="#0A9EFD" font-family="Arial" font-size="13" lengthAdjust="spacing" textLength="142.3779" x="502.5623" y="678.1867">Receive audio and video</text></g><g class="message" data-participant-1="HST" data-participant-2="SDK"><polygon fill="#0A9EFD" points="379.3412,707.8903,389.3412,711.8903,379.3412,715.8903,383.3412,711.8903" style="stroke:#0A9EFD;stroke-width:1;"/><line style="stroke:#0A9EFD;stroke-width:2;stroke-dasharray:2.0,2.0;" x1="41.3333" x2="385.3412" y1="711.8903" y2="711.8903"/><text fill="#0A9EFD" font-family="Arial" font-size="13" lengthAdjust="spacing" textLength="125.7725" x="153.451" y="707.1354">Send audio and video</text></g><!--SRC=[dLDBJnin4BxlhvZcK95348UUeYXI24Wy1TfDuLWDzh2PrjWhsvkM_lgEiraQ9r0gJcjvlfTdPZ-nLQRL15WxZz_23xQ7t3wPedXmls0mQvendBaG1qM3FhBY1cs4mIJmRnf_EPfEFaTyC1Id0y00PzMY8Aj1k1k1SZ67wkJoRRh1P_AXemjmXxxsdxMQoIhwlmophoT_HMhlsWREBKT68t2OfMUMKPtQcYrTSYmaCuocoNiCOOcUT5UxvxWK-tDTYE8x2F7hlIgAO9n20okcdvawsHJpZZMvt3NAisuzxH42nRQvIc8TQSjcxkmZrwqdc2_HMZBNf1blciZEXan4TVLRxnxPqC6w0VFixefNTEmTQeKXigs7sOi_mi_yZGmlbixGuhdf-IztBppoExR_fFKhCTpkoOLZ2zW7pa9ybz8cz86c9xSv3mkfmaXGOZq6pVfY2xYKlSz3lIiZddio-5hMj2RoyI8IgLkLRCtIvCjrSM_qLLeNIAeEK1PzbG30Lbg8Air_hJGPZJgfaXJ9W7O9NNjwlohzCRk8vFa7]--></g></svg>