<?xml version="1.0" encoding="us-ascii" standalone="no"?><svg xmlns="http://www.w3.org/2000/svg" xmlns:xlink="http://www.w3.org/1999/xlink" contentStyleType="text/css" height="963px" preserveAspectRatio="none" style="width:608px;height:963px;" version="1.1" viewBox="0 0 608 963" width="608px" zoomAndPan="magnify"><defs/><g><rect fill="none" height="961.9007" style="stroke:#0A9EFD;stroke-width:1.0;" width="606.3333" x="0" y="0"/><rect fill="#999999" fill-opacity="0.33333" height="951.9007" style="stroke:#0A9EFD;stroke-width:0.5;" width="50.6667" x="16" y="6"/><text fill="#0A9EFD" font-family="sans-serif" font-size="13" font-weight="bold" lengthAdjust="spacing" textLength="28" x="27.3333" y="18.5684">App</text><rect fill="#999999" fill-opacity="0.33333" height="951.9007" style="stroke:#0A9EFD;stroke-width:0.5;" width="74" x="277" y="6"/><text fill="#0A9EFD" font-family="sans-serif" font-size="13" font-weight="bold" lengthAdjust="spacing" textLength="68" x="280" y="18.5684">Video SDK</text><rect fill="#999999" fill-opacity="0.33333" height="951.9007" style="stroke:#0A9EFD;stroke-width:0.5;" width="107" x="495.3333" y="6"/><text fill="#0A9EFD" font-family="sans-serif" font-size="13" font-weight="bold" lengthAdjust="spacing" textLength="101" x="498.3333" y="18.5684">Agora SDRTN&#174;</text><rect fill="#0A9EFD" fill-opacity="0.06667" height="60.8462" style="stroke:#0A9EFD;stroke-width:2.0;" width="335.3333" x="10" y="83.9772"/><rect fill="#0A9EFD" fill-opacity="0.06667" height="74.8462" style="stroke:#0A9EFD;stroke-width:2.0;" width="570.1667" x="10" y="158.8234"/><rect fill="#0A9EFD" fill-opacity="0.06667" height="177.5898" style="stroke:#0A9EFD;stroke-width:2.0;" width="570.1667" x="10" y="247.6696"/><rect fill="#0A9EFD" fill-opacity="0.06667" height="265.3848" style="stroke:#0A9EFD;stroke-width:2.0;" width="570.1667" x="10" y="439.2594"/><rect fill="#0A9EFD" fill-opacity="0.06667" height="177.5898" style="stroke:#0A9EFD;stroke-width:2.0;" width="570.1667" x="10" y="718.6442"/><line style="stroke:#0A9EFD;stroke-width:0.5;stroke-dasharray:5.0,5.0;" x1="41" x2="41" y1="66.9772" y2="913.234"/><line style="stroke:#0A9EFD;stroke-width:0.5;stroke-dasharray:5.0,5.0;" x1="313.6667" x2="313.6667" y1="66.9772" y2="913.234"/><line style="stroke:#0A9EFD;stroke-width:0.5;stroke-dasharray:5.0,5.0;" x1="548.5" x2="548.5" y1="66.9772" y2="913.234"/><rect fill="none" height="40.6667" rx="2.5" ry="2.5" style="stroke:#0A9EFD;stroke-width:2.0;" width="42.6667" x="20" y="25.3105"/><path d="M29.1333,32.3105 C28.5333,32.3105 28,32.8439 28,33.4439 L28,57.8105 C28,58.4105 28.5333,58.9439 29.1333,58.9439 L50.1667,58.9439 C50.7667,58.9439 51.3,58.4105 51.3,57.8105 L51.3,33.4439 C51.3,32.8439 50.7667,32.3105 50.1667,32.3105 L29.1333,32.3105 M31.3333,35.6439 L48,35.6439 L48,52.3105 L31.3333,52.3105 L31.3333,35.6439 M39.6667,53.9772 C40.9333,53.9772 41.7667,55.3772 41.1333,56.4772 C40.5,57.5772 38.8667,57.5772 38.2,56.4772 C37.5667,55.3772 38.3667,53.9772 39.6667,53.9772 " fill="#0A9EFD" style="stroke:;stroke-width:0.0;stroke-dasharray:;"/><rect fill="none" height="40.6667" rx="2.5" ry="2.5" style="stroke:#0A9EFD;stroke-width:2.0;" width="42.6667" x="20" y="912.234"/><path d="M29.1333,919.234 C28.5333,919.234 28,919.7674 28,920.3674 L28,944.734 C28,945.334 28.5333,945.8674 29.1333,945.8674 L50.1667,945.8674 C50.7667,945.8674 51.3,945.334 51.3,944.734 L51.3,920.3674 C51.3,919.7674 50.7667,919.234 50.1667,919.234 L29.1333,919.234 M31.3333,922.5674 L48,922.5674 L48,939.234 L31.3333,939.234 L31.3333,922.5674 M39.6667,940.9007 C40.9333,940.9007 41.7667,942.3007 41.1333,943.4007 C40.5,944.5007 38.8667,944.5007 38.2,943.4007 C37.5667,942.3007 38.3667,940.9007 39.6667,940.9007 " fill="#0A9EFD" style="stroke:;stroke-width:0.0;stroke-dasharray:;"/><rect fill="none" height="40.6667" rx="2.5" ry="2.5" style="stroke:#0A9EFD;stroke-width:2.0;" width="42.6667" x="292.6667" y="25.3105"/><path d="M300.6667,32.3105 L300.6667,45.6439 L314,45.6439 L314,32.3105 L300.6667,32.3105 M317.3333,38.9772 L317.3333,48.9772 L307.3333,48.9772 L307.3333,52.3105 L320.6667,52.3105 L320.6667,38.9772 L317.3333,38.9772 M324,45.6439 L324,55.6439 L314,55.6439 L314,58.9772 L327.3333,58.9772 L327.3333,45.6439 L324,45.6439 " fill="#0A9EFD" style="stroke:;stroke-width:0.0;stroke-dasharray:;"/><rect fill="none" height="40.6667" rx="2.5" ry="2.5" style="stroke:#0A9EFD;stroke-width:2.0;" width="42.6667" x="292.6667" y="912.234"/><path d="M300.6667,919.234 L300.6667,932.5674 L314,932.5674 L314,919.234 L300.6667,919.234 M317.3333,925.9007 L317.3333,935.9007 L307.3333,935.9007 L307.3333,939.234 L320.6667,939.234 L320.6667,925.9007 L317.3333,925.9007 M324,932.5674 L324,942.5674 L314,942.5674 L314,945.9007 L327.3333,945.9007 L327.3333,932.5674 L324,932.5674 " fill="#0A9EFD" style="stroke:;stroke-width:0.0;stroke-dasharray:;"/><rect fill="none" height="40.6667" rx="2.5" ry="2.5" style="stroke:#0A9EFD;stroke-width:2.0;" width="42.6667" x="527.5" y="25.3105"/><path d="M550.5,32.3105 C546.4667,32.3105 542.9333,35.1772 542.1667,38.9772 C538.5,38.9772 535.5,41.9772 535.5,45.6439 C535.5,49.3105 538.5,52.3105 542.1667,52.3105 L557.1667,52.3105 C559.9333,52.3105 562.1667,50.0772 562.1667,47.3105 C562.1667,45.1439 560.7667,43.0105 558.8333,42.3105 L558.8333,40.6439 C558.8333,36.0439 555.1,32.3105 550.5,32.3105 " fill="#0A9EFD" style="stroke:;stroke-width:0.0;stroke-dasharray:;"/><rect fill="none" height="40.6667" rx="2.5" ry="2.5" style="stroke:#0A9EFD;stroke-width:2.0;" width="42.6667" x="527.5" y="912.234"/><path d="M550.5,919.234 C546.4667,919.234 542.9333,922.1007 542.1667,925.9007 C538.5,925.9007 535.5,928.9007 535.5,932.5674 C535.5,936.234 538.5,939.234 542.1667,939.234 L557.1667,939.234 C559.9333,939.234 562.1667,937.0007 562.1667,934.234 C562.1667,932.0674 560.7667,929.934 558.8333,929.234 L558.8333,927.5674 C558.8333,922.9674 555.1,919.234 550.5,919.234 " fill="#0A9EFD" style="stroke:;stroke-width:0.0;stroke-dasharray:;"/><path d="M10,83.9772 L170,83.9772 L170,90.9259 L160,100.9259 L10,100.9259 L10,83.9772 " fill="#EEEEEE" style="stroke:#0A9EFD;stroke-width:1.5;"/><rect fill="none" height="60.8462" style="stroke:#0A9EFD;stroke-width:2.0;" width="335.3333" x="10" y="83.9772"/><text fill="#000000" font-family="Arial" font-size="13" lengthAdjust="spacing" textLength="115" x="25" y="97.1711">Create a local client</text><polygon fill="#0A9EFD" points="302,132.8234,312,136.8234,302,140.8234,306,136.8234" style="stroke:#0A9EFD;stroke-width:1.0;"/><line style="stroke:#0A9EFD;stroke-width:2.0;" x1="41.3333" x2="308" y1="136.8234" y2="136.8234"/><text fill="#0A9EFD" font-family="Arial" font-size="13" lengthAdjust="spacing" textLength="133" x="111.1667" y="117.1198">AgoraRTC.createClient</text><text fill="#0A9EFD" font-family="Arial" font-size="13" lengthAdjust="spacing" textLength="94" x="132.6667" y="132.0685">Set mode to 'rtc'</text><path d="M10,158.8234 L128,158.8234 L128,165.7721 L118,175.7721 L10,175.7721 L10,158.8234 " fill="#EEEEEE" style="stroke:#0A9EFD;stroke-width:1.5;"/><rect fill="none" height="74.8462" style="stroke:#0A9EFD;stroke-width:2.0;" width="570.1667" x="10" y="158.8234"/><text fill="#000000" font-family="Arial" font-size="13" lengthAdjust="spacing" textLength="73" x="25" y="172.0173">Join channel</text><polygon fill="#0A9EFD" points="302,192.7209,312,196.7209,302,200.7209,306,196.7209" style="stroke:#0A9EFD;stroke-width:1.0;"/><line style="stroke:#0A9EFD;stroke-width:2.0;" x1="41.3333" x2="308" y1="196.7209" y2="196.7209"/><text fill="#0A9EFD" font-family="Arial" font-size="13" lengthAdjust="spacing" textLength="117" x="119.1667" y="191.966">AgoraRTCClient.join</text><polygon fill="#0A9EFD" points="536.8333,221.6696,546.8333,225.6696,536.8333,229.6696,540.8333,225.6696" style="stroke:#0A9EFD;stroke-width:1.0;"/><line style="stroke:#0A9EFD;stroke-width:2.0;" x1="314" x2="542.8333" y1="225.6696" y2="225.6696"/><text fill="#0A9EFD" font-family="Arial" font-size="13" lengthAdjust="spacing" textLength="120" x="371.4167" y="220.9147">Join channel request</text><path d="M10,247.6696 L329,247.6696 L329,254.6183 L319,264.6183 L10,264.6183 L10,247.6696 " fill="#EEEEEE" style="stroke:#0A9EFD;stroke-width:1.5;"/><rect fill="none" height="177.5898" style="stroke:#0A9EFD;stroke-width:2.0;" width="570.1667" x="10" y="247.6696"/><text fill="#000000" font-family="Arial" font-size="13" lengthAdjust="spacing" textLength="274" x="25" y="260.8634">Create and publish local audio and video tracks</text><polygon fill="#0A9EFD" points="302,296.5158,312,300.5158,302,304.5158,306,300.5158" style="stroke:#0A9EFD;stroke-width:1.0;"/><line style="stroke:#0A9EFD;stroke-width:2.0;" x1="41.3333" x2="308" y1="300.5158" y2="300.5158"/><text fill="#0A9EFD" font-family="Arial" font-size="13" lengthAdjust="spacing" textLength="137" x="109.1667" y="280.8122">Create local audio track</text><text fill="#0A9EFD" font-family="Arial" font-size="13" lengthAdjust="spacing" textLength="233" x="63.1667" y="295.7609">AgoraRTC.createMicrophoneAudioTrack</text><polygon fill="#0A9EFD" points="302,340.4132,312,344.4132,302,348.4132,306,344.4132" style="stroke:#0A9EFD;stroke-width:1.0;"/><line style="stroke:#0A9EFD;stroke-width:2.0;" x1="41.3333" x2="308" y1="344.4132" y2="344.4132"/><text fill="#0A9EFD" font-family="Arial" font-size="13" lengthAdjust="spacing" textLength="137" x="109.1667" y="324.7096">Create local video track</text><text fill="#0A9EFD" font-family="Arial" font-size="13" lengthAdjust="spacing" textLength="211" x="74.1667" y="339.6584">AgoraRTC.createCameraVideoTrack</text><polygon fill="#0A9EFD" points="302,384.3107,312,388.3107,302,392.3107,306,388.3107" style="stroke:#0A9EFD;stroke-width:1.0;"/><line style="stroke:#0A9EFD;stroke-width:2.0;" x1="41.3333" x2="308" y1="388.3107" y2="388.3107"/><text fill="#0A9EFD" font-family="Arial" font-size="13" lengthAdjust="spacing" textLength="209" x="73.1667" y="368.6071">Publish local audio and video tracks</text><text fill="#0A9EFD" font-family="Arial" font-size="13" lengthAdjust="spacing" textLength="138" x="110.6667" y="383.5558">AgoraRTCClient.publish</text><polygon fill="#0A9EFD" points="536.8333,413.2594,546.8333,417.2594,536.8333,421.2594,540.8333,417.2594" style="stroke:#0A9EFD;stroke-width:1.0;"/><line style="stroke:#0A9EFD;stroke-width:2.0;" x1="314" x2="542.8333" y1="417.2594" y2="417.2594"/><text fill="#0A9EFD" font-family="Arial" font-size="13" lengthAdjust="spacing" textLength="154" x="354.4167" y="412.5046">Send audio and video data</text><path d="M10,439.2594 L208,439.2594 L208,446.2082 L198,456.2082 L10,456.2082 L10,439.2594 " fill="#EEEEEE" style="stroke:#0A9EFD;stroke-width:1.5;"/><rect fill="none" height="265.3848" style="stroke:#0A9EFD;stroke-width:2.0;" width="570.1667" x="10" y="439.2594"/><text fill="#000000" font-family="Arial" font-size="13" lengthAdjust="spacing" textLength="153" x="25" y="452.4533">Subscribe to remote users</text><polygon fill="#0A9EFD" points="52.3333,488.1056,42.3333,492.1056,52.3333,496.1056,48.3333,492.1056" style="stroke:#0A9EFD;stroke-width:1.0;"/><line style="stroke:#0A9EFD;stroke-width:2.0;stroke-dasharray:2.0,2.0;" x1="46.3333" x2="547.8333" y1="492.1056" y2="492.1056"/><text fill="#0A9EFD" font-family="Arial" font-size="13" lengthAdjust="spacing" textLength="261" x="164.5833" y="472.402">Remote users publish audio and video tracks</text><text fill="#0A9EFD" font-family="Arial" font-size="13" lengthAdjust="spacing" textLength="151" x="221.5833" y="487.3507">client.on("user-published")</text><polygon fill="#0A9EFD" points="302,532.0031,312,536.0031,302,540.0031,306,536.0031" style="stroke:#0A9EFD;stroke-width:1.0;"/><line style="stroke:#0A9EFD;stroke-width:2.0;" x1="41.3333" x2="308" y1="536.0031" y2="536.0031"/><text fill="#0A9EFD" font-family="Arial" font-size="13" lengthAdjust="spacing" textLength="133" x="111.1667" y="516.2995">Get remote user object</text><text fill="#0A9EFD" font-family="Arial" font-size="13" lengthAdjust="spacing" textLength="171" x="94.1667" y="531.2482">AgoraRTCClient.remoteUsers</text><polygon fill="#0A9EFD" points="302,575.9006,312,579.9006,302,583.9006,306,579.9006" style="stroke:#0A9EFD;stroke-width:1.0;"/><line style="stroke:#0A9EFD;stroke-width:2.0;" x1="41.3333" x2="308" y1="579.9006" y2="579.9006"/><text fill="#0A9EFD" font-family="Arial" font-size="13" lengthAdjust="spacing" textLength="185" x="85.1667" y="560.1969">Subscribe to remote user object</text><text fill="#0A9EFD" font-family="Arial" font-size="13" lengthAdjust="spacing" textLength="153" x="103.1667" y="575.1457">AgoraRTCClient.subscribe</text><polygon fill="#0A9EFD" points="325,604.8493,315,608.8493,325,612.8493,321,608.8493" style="stroke:#0A9EFD;stroke-width:1.0;"/><line style="stroke:#0A9EFD;stroke-width:2.0;" x1="319" x2="547.8333" y1="608.8493" y2="608.8493"/><text fill="#0A9EFD" font-family="Arial" font-size="13" lengthAdjust="spacing" textLength="171" x="345.9167" y="604.0944">Receive audio and video data</text><polygon fill="#0A9EFD" points="302,648.7467,312,652.7467,302,656.7467,306,652.7467" style="stroke:#0A9EFD;stroke-width:1.0;"/><line style="stroke:#0A9EFD;stroke-width:2.0;" x1="41.3333" x2="308" y1="652.7467" y2="652.7467"/><text fill="#0A9EFD" font-family="Arial" font-size="13" lengthAdjust="spacing" textLength="139" x="108.1667" y="633.0431">Get remote audio object</text><text fill="#0A9EFD" font-family="Arial" font-size="13" lengthAdjust="spacing" textLength="200" x="79.6667" y="647.9919">AgoraRTCRemoteUser.audioTrack</text><polygon fill="#0A9EFD" points="302,692.6442,312,696.6442,302,700.6442,306,696.6442" style="stroke:#0A9EFD;stroke-width:1.0;"/><line style="stroke:#0A9EFD;stroke-width:2.0;" x1="41.3333" x2="308" y1="696.6442" y2="696.6442"/><text fill="#0A9EFD" font-family="Arial" font-size="13" lengthAdjust="spacing" textLength="139" x="108.1667" y="676.9406">Get remote video object</text><text fill="#0A9EFD" font-family="Arial" font-size="13" lengthAdjust="spacing" textLength="200" x="79.6667" y="691.8893">AgoraRTCRemoteUser.videoTrack</text><path d="M10,718.6442 L161,718.6442 L161,725.5929 L151,735.5929 L10,735.5929 L10,718.6442 " fill="#EEEEEE" style="stroke:#0A9EFD;stroke-width:1.5;"/><rect fill="none" height="177.5898" style="stroke:#0A9EFD;stroke-width:2.0;" width="570.1667" x="10" y="718.6442"/><text fill="#000000" font-family="Arial" font-size="13" lengthAdjust="spacing" textLength="106" x="25" y="731.8381">Leave the channel</text><polygon fill="#0A9EFD" points="302,767.4904,312,771.4904,302,775.4904,306,771.4904" style="stroke:#0A9EFD;stroke-width:1.0;"/><line style="stroke:#0A9EFD;stroke-width:2.0;" x1="41.3333" x2="308" y1="771.4904" y2="771.4904"/><text fill="#0A9EFD" font-family="Arial" font-size="13" lengthAdjust="spacing" textLength="166" x="94.6667" y="751.7868">Turn off the local audio track</text><text fill="#0A9EFD" font-family="Arial" font-size="13" lengthAdjust="spacing" textLength="168" x="95.6667" y="766.7355">MicrophoneAudioTrack.close</text><polygon fill="#0A9EFD" points="302,811.3879,312,815.3879,302,819.3879,306,815.3879" style="stroke:#0A9EFD;stroke-width:1.0;"/><line style="stroke:#0A9EFD;stroke-width:2.0;" x1="41.3333" x2="308" y1="815.3879" y2="815.3879"/><text fill="#0A9EFD" font-family="Arial" font-size="13" lengthAdjust="spacing" textLength="166" x="94.6667" y="795.6842">Turn off the local video track</text><text fill="#0A9EFD" font-family="Arial" font-size="13" lengthAdjust="spacing" textLength="146" x="106.6667" y="810.633">CameraVideoTrack.close</text><polygon fill="#0A9EFD" points="302,855.2853,312,859.2853,302,863.2853,306,859.2853" style="stroke:#0A9EFD;stroke-width:1.0;"/><line style="stroke:#0A9EFD;stroke-width:2.0;" x1="41.3333" x2="308" y1="859.2853" y2="859.2853"/><text fill="#0A9EFD" font-family="Arial" font-size="13" lengthAdjust="spacing" textLength="106" x="124.6667" y="839.5817">Leave the channel</text><text fill="#0A9EFD" font-family="Arial" font-size="13" lengthAdjust="spacing" textLength="128" x="115.6667" y="854.5304">AgoraRTCClient.leave</text><polygon fill="#0A9EFD" points="536.8333,884.234,546.8333,888.234,536.8333,892.234,540.8333,888.234" style="stroke:#0A9EFD;stroke-width:1.0;"/><line style="stroke:#0A9EFD;stroke-width:2.0;" x1="314" x2="542.8333" y1="888.234" y2="888.234"/><text fill="#0A9EFD" font-family="Arial" font-size="13" lengthAdjust="spacing" textLength="169" x="346.9167" y="883.4792">Request to leave the channel</text><!--SRC=[ZPFBRjim44Nt-WfMYwPTIEYYAyCmOBX0WRvWo6vN1O8HDOcPqAJAXz7se_eH_R8EAIbXz0Yw9U-SkJEyV24Kbxv11hVQmBMz5weK_YophDO_MRvjspnhmJZ1HGlAiNnjnMzSlNspMRzqK4jqcvo1PTlzFaFLCAhgIx-91ZKxlFku393m2utj02GS0RR14PrNnoz__on3kDI-wHYaV6JS6krRjZC8ZgPZKdEGZ4k1ocNajjXGnnMBJQhZhkHHk8lttnKxe6DdJNjncbqPnwy2U81-q48nVWAbKCwmEaXvHwgCBeeD-LezAM86VtYqBeKEJib_wsifxAdt3BuHEfvVuagT0NvlaxvzPQgE6XfZDDvdmOrkJrhXDiYEGRK4IffDGJiueu7un6F8_Z_C9y1-MVt8oRuEuIN7vGquI9TsyBNbHjJndGoUDTdtba8L3AsB8fAgvFnXjul6keYKMhtAGqNH5s2JlqwcV4_vIFenNTyXTzEvEitNmL9VlMHx4ME7Wh2WzJ0MHt71-HtDEksKanxLWySIvcAH4BeEpn4kZvb8tkaJ0Zbr9vpvDaTl5DCtD_5wBiHpgItfsrjydl8qmUF8JWWJZzDda46IPBJgld5uHJcPC8p_3m00]--></g></svg>