<svg xmlns="http://www.w3.org/2000/svg" xmlns:xlink="http://www.w3.org/1999/xlink" contentStyleType="text/css" data-diagram-type="SEQUENCE" height="833px" preserveAspectRatio="none" style="width:591px;height:833px;" version="1.1" viewBox="0 0 591 833" width="591px" zoomAndPan="magnify"><defs/><g><rect fill="none" height="831.2493" style="stroke:#0A9EFD;stroke-width:1;" width="589.4696" x="0" y="0"/><rect fill="#999999" fill-opacity="0.33333" height="821.2493" style="stroke:#0A9EFD;stroke-width:0.5;" width="50.6667" x="16" y="6"/><text fill="#0A9EFD" font-family="sans-serif" font-size="13" font-weight="bold" lengthAdjust="spacing" textLength="25.27" x="28.6983" y="19.4951">App</text><rect fill="#999999" fill-opacity="0.33333" height="821.2493" style="stroke:#0A9EFD;stroke-width:0.5;" width="63.7764" x="278.437" y="6"/><text fill="#0A9EFD" font-family="sans-serif" font-size="13" font-weight="bold" lengthAdjust="spacing" textLength="57.7764" x="281.437" y="19.4951">RTC SDK</text><rect fill="#999999" fill-opacity="0.33333" height="821.2493" style="stroke:#0A9EFD;stroke-width:0.5;" width="101.5259" x="483.9437" y="6"/><text fill="#0A9EFD" font-family="sans-serif" font-size="13" font-weight="bold" lengthAdjust="spacing" textLength="95.5259" x="486.9437" y="19.4951">Agora SDRTN&#174;</text><rect fill="#0A9EFD" fill-opacity="0.06667" height="60.8462" style="stroke:#0A9EFD;stroke-width:2;" width="331.6585" x="10" y="85.0182"/><rect fill="#0A9EFD" fill-opacity="0.06667" height="74.8462" style="stroke:#0A9EFD;stroke-width:2;" width="556.04" x="10" y="159.8644"/><rect fill="#0A9EFD" fill-opacity="0.06667" height="133.6924" style="stroke:#0A9EFD;stroke-width:2;" width="556.04" x="10" y="248.7106"/><rect fill="#0A9EFD" fill-opacity="0.06667" height="221.4873" style="stroke:#0A9EFD;stroke-width:2;" width="556.04" x="10" y="396.403"/><rect fill="#0A9EFD" fill-opacity="0.06667" height="133.6924" style="stroke:#0A9EFD;stroke-width:2;" width="556.04" x="10" y="631.8903"/><g><title>&lt;size:40&gt;&lt;&amp;tablet&gt;</title><rect fill="#000000" fill-opacity="0.00000" height="714.5645" width="8" x="37.3333" y="68.0182"/><line style="stroke:#0A9EFD;stroke-width:0.5;stroke-dasharray:5.0,5.0;" x1="41" x2="41" y1="68.0182" y2="782.5827"/></g><g><title>&lt;size:40&gt;&lt;&amp;layers&gt;</title><rect fill="#000000" fill-opacity="0.00000" height="714.5645" width="8" x="306.3252" y="68.0182"/><line style="stroke:#0A9EFD;stroke-width:0.5;stroke-dasharray:5.0,5.0;" x1="309.9919" x2="309.9919" y1="68.0182" y2="782.5827"/></g><g><title>&lt;size:40&gt;&lt;&amp;cloud&gt;</title><rect fill="#000000" fill-opacity="0.00000" height="714.5645" width="8" x="530.7066" y="68.0182"/><line style="stroke:#0A9EFD;stroke-width:0.5;stroke-dasharray:5.0,5.0;" x1="534.3733" x2="534.3733" y1="68.0182" y2="782.5827"/></g><g class="participant participant-head" data-participant="APP"><rect fill="none" height="40.6667" rx="2.5" ry="2.5" style="stroke:#0A9EFD;stroke-width:2;" width="42.6667" x="20" y="26.3516"/><path d="M29.1333,33.3516 C28.5333,33.3516 28,33.8849 28,34.4849 L28,58.8516 C28,59.4516 28.5333,59.9849 29.1333,59.9849 L50.1667,59.9849 C50.7667,59.9849 51.3,59.4516 51.3,58.8516 L51.3,34.4849 C51.3,33.8849 50.7667,33.3516 50.1667,33.3516 L29.1333,33.3516 M31.3333,36.6849 L48,36.6849 L48,53.3516 L31.3333,53.3516 L31.3333,36.6849 M39.6667,55.0182 C40.9333,55.0182 41.7667,56.4182 41.1333,57.5182 C40.5,58.6182 38.8667,58.6182 38.2,57.5182 C37.5667,56.4182 38.3667,55.0182 39.6667,55.0182" fill="#0A9EFD"/></g><g class="participant participant-tail" data-participant="APP"><rect fill="none" height="40.6667" rx="2.5" ry="2.5" style="stroke:#0A9EFD;stroke-width:2;" width="42.6667" x="20" y="781.5827"/><path d="M29.1333,788.5827 C28.5333,788.5827 28,789.116 28,789.716 L28,814.0827 C28,814.6827 28.5333,815.216 29.1333,815.216 L50.1667,815.216 C50.7667,815.216 51.3,814.6827 51.3,814.0827 L51.3,789.716 C51.3,789.116 50.7667,788.5827 50.1667,788.5827 L29.1333,788.5827 M31.3333,791.916 L48,791.916 L48,808.5827 L31.3333,808.5827 L31.3333,791.916 M39.6667,810.2493 C40.9333,810.2493 41.7667,811.6493 41.1333,812.7493 C40.5,813.8493 38.8667,813.8493 38.2,812.7493 C37.5667,811.6493 38.3667,810.2493 39.6667,810.2493" fill="#0A9EFD"/></g><g class="participant participant-head" data-participant="SDK"><rect fill="none" height="40.6667" rx="2.5" ry="2.5" style="stroke:#0A9EFD;stroke-width:2;" width="42.6667" x="288.9919" y="26.3516"/><path d="M296.9919,33.3516 L296.9919,46.6849 L310.3252,46.6849 L310.3252,33.3516 L296.9919,33.3516 M313.6585,40.0182 L313.6585,50.0182 L303.6585,50.0182 L303.6585,53.3516 L316.9919,53.3516 L316.9919,40.0182 L313.6585,40.0182 M320.3252,46.6849 L320.3252,56.6849 L310.3252,56.6849 L310.3252,60.0182 L323.6585,60.0182 L323.6585,46.6849 L320.3252,46.6849" fill="#0A9EFD"/></g><g class="participant participant-tail" data-participant="SDK"><rect fill="none" height="40.6667" rx="2.5" ry="2.5" style="stroke:#0A9EFD;stroke-width:2;" width="42.6667" x="288.9919" y="781.5827"/><path d="M296.9919,788.5827 L296.9919,801.916 L310.3252,801.916 L310.3252,788.5827 L296.9919,788.5827 M313.6585,795.2493 L313.6585,805.2493 L303.6585,805.2493 L303.6585,808.5827 L316.9919,808.5827 L316.9919,795.2493 L313.6585,795.2493 M320.3252,801.916 L320.3252,811.916 L310.3252,811.916 L310.3252,815.2493 L323.6585,815.2493 L323.6585,801.916 L320.3252,801.916" fill="#0A9EFD"/></g><g class="participant participant-head" data-participant="RTN"><rect fill="none" height="40.6667" rx="2.5" ry="2.5" style="stroke:#0A9EFD;stroke-width:2;" width="42.6667" x="513.3733" y="26.3516"/><path d="M536.3733,36.6849 C532.34,36.6849 528.8066,39.5516 528.04,43.3516 C524.3733,43.3516 521.3733,46.3516 521.3733,50.0182 C521.3733,53.6849 524.3733,56.6849 528.04,56.6849 L543.04,56.6849 C545.8066,56.6849 548.04,54.4516 548.04,51.6849 C548.04,49.5182 546.64,47.3849 544.7066,46.6849 L544.7066,45.0182 C544.7066,40.4182 540.9733,36.6849 536.3733,36.6849" fill="#0A9EFD"/></g><g class="participant participant-tail" data-participant="RTN"><rect fill="none" height="40.6667" rx="2.5" ry="2.5" style="stroke:#0A9EFD;stroke-width:2;" width="42.6667" x="513.3733" y="781.5827"/><path d="M536.3733,791.916 C532.34,791.916 528.8066,794.7827 528.04,798.5827 C524.3733,798.5827 521.3733,801.5827 521.3733,805.2493 C521.3733,808.916 524.3733,811.916 528.04,811.916 L543.04,811.916 C545.8066,811.916 548.04,809.6827 548.04,806.916 C548.04,804.7493 546.64,802.616 544.7066,801.916 L544.7066,800.2493 C544.7066,795.6493 540.9733,791.916 536.3733,791.916" fill="#0A9EFD"/></g><path d="M10,85.0182 L169.1689,85.0182 L169.1689,91.967 L159.1689,101.967 L10,101.967 L10,85.0182" fill="#EEEEEE" style="stroke:#0A9EFD;stroke-width:1.5;"/><rect fill="none" height="60.8462" style="stroke:#0A9EFD;stroke-width:2;" width="331.6585" x="10" y="85.0182"/><text fill="#000000" font-family="Arial" font-size="13" lengthAdjust="spacing" textLength="114.1689" x="25" y="98.2121">Create a local client</text><g class="message" data-participant-1="APP" data-participant-2="SDK"><polygon fill="#0A9EFD" points="298.3252,133.8644,308.3252,137.8644,298.3252,141.8644,302.3252,137.8644" style="stroke:#0A9EFD;stroke-width:1;"/><line style="stroke:#0A9EFD;stroke-width:2;" x1="41.3333" x2="304.3252" y1="137.8644" y2="137.8644"/><text fill="#0A9EFD" font-family="Arial" font-size="13" lengthAdjust="spacing" textLength="134.3862" x="108.6361" y="118.1608">AgoraRTC.createClient</text><text fill="#0A9EFD" font-family="Arial" font-size="13" lengthAdjust="spacing" textLength="93.1138" x="131.0783" y="133.1095">Set mode to 'rtc'</text></g><path d="M10,159.8644 L127.998,159.8644 L127.998,166.8132 L117.998,176.8132 L10,176.8132 L10,159.8644" fill="#EEEEEE" style="stroke:#0A9EFD;stroke-width:1.5;"/><rect fill="none" height="74.8462" style="stroke:#0A9EFD;stroke-width:2;" width="556.04" x="10" y="159.8644"/><text fill="#000000" font-family="Arial" font-size="13" lengthAdjust="spacing" textLength="72.998" x="25" y="173.0583">Join channel</text><g class="message" data-participant-1="APP" data-participant-2="SDK"><polygon fill="#0A9EFD" points="298.3252,193.7619,308.3252,197.7619,298.3252,201.7619,302.3252,197.7619" style="stroke:#0A9EFD;stroke-width:1;"/><line style="stroke:#0A9EFD;stroke-width:2;" x1="41.3333" x2="304.3252" y1="197.7619" y2="197.7619"/><text fill="#0A9EFD" font-family="Arial" font-size="13" lengthAdjust="spacing" textLength="118.4917" x="116.5834" y="193.007">AgoraRTCClient.join</text></g><g class="message" data-participant-1="SDK" data-participant-2="RTN"><polygon fill="#0A9EFD" points="522.7066,222.7106,532.7066,226.7106,522.7066,230.7106,526.7066,226.7106" style="stroke:#0A9EFD;stroke-width:1;"/><line style="stroke:#0A9EFD;stroke-width:2;" x1="310.3252" x2="528.7066" y1="226.7106" y2="226.7106"/><text fill="#0A9EFD" font-family="Arial" font-size="13" lengthAdjust="spacing" textLength="119.9707" x="362.5306" y="221.9557">Join channel request</text></g><path d="M10,248.7106 L261.6797,248.7106 L261.6797,255.6593 L251.6797,265.6593 L10,265.6593 L10,248.7106" fill="#EEEEEE" style="stroke:#0A9EFD;stroke-width:1.5;"/><rect fill="none" height="133.6924" style="stroke:#0A9EFD;stroke-width:2;" width="556.04" x="10" y="248.7106"/><text fill="#000000" font-family="Arial" font-size="13" lengthAdjust="spacing" textLength="206.6797" x="25" y="261.9045">Create and publish local audio track</text><g class="message" data-participant-1="APP" data-participant-2="SDK"><polygon fill="#0A9EFD" points="298.3252,297.5568,308.3252,301.5568,298.3252,305.5568,302.3252,301.5568" style="stroke:#0A9EFD;stroke-width:1;"/><line style="stroke:#0A9EFD;stroke-width:2;" x1="41.3333" x2="304.3252" y1="301.5568" y2="301.5568"/><text fill="#0A9EFD" font-family="Arial" font-size="13" lengthAdjust="spacing" textLength="136.5698" x="107.5444" y="281.8532">Create local audio track</text><text fill="#0A9EFD" font-family="Arial" font-size="13" lengthAdjust="spacing" textLength="234.8252" x="60.2226" y="296.8019">AgoraRTC.createMicrophoneAudioTrack</text></g><g class="message" data-participant-1="APP" data-participant-2="SDK"><polygon fill="#0A9EFD" points="298.3252,341.4543,308.3252,345.4543,298.3252,349.4543,302.3252,345.4543" style="stroke:#0A9EFD;stroke-width:1;"/><line style="stroke:#0A9EFD;stroke-width:2;" x1="41.3333" x2="304.3252" y1="345.4543" y2="345.4543"/><text fill="#0A9EFD" font-family="Arial" font-size="13" lengthAdjust="spacing" textLength="140.188" x="105.7353" y="325.7507">Publish local audio track</text><text fill="#0A9EFD" font-family="Arial" font-size="13" lengthAdjust="spacing" textLength="139.4517" x="107.9093" y="340.6994">AgoraRTCClient.publish</text></g><g class="message" data-participant-1="SDK" data-participant-2="RTN"><polygon fill="#0A9EFD" points="522.7066,370.403,532.7066,374.403,522.7066,378.403,526.7066,374.403" style="stroke:#0A9EFD;stroke-width:1;"/><line style="stroke:#0A9EFD;stroke-width:2;" x1="310.3252" x2="528.7066" y1="374.403" y2="374.403"/><text fill="#0A9EFD" font-family="Arial" font-size="13" lengthAdjust="spacing" textLength="94.6943" x="375.1687" y="369.6481">Send audio data</text></g><path d="M10,396.403 L206.7344,396.403 L206.7344,403.3517 L196.7344,413.3517 L10,413.3517 L10,396.403" fill="#EEEEEE" style="stroke:#0A9EFD;stroke-width:1.5;"/><rect fill="none" height="221.4873" style="stroke:#0A9EFD;stroke-width:2;" width="556.04" x="10" y="396.403"/><text fill="#000000" font-family="Arial" font-size="13" lengthAdjust="spacing" textLength="151.7344" x="25" y="409.5968">Subscribe to remote users</text><g class="message" data-participant-1="RTN" data-participant-2="APP"><polygon fill="#0A9EFD" points="52.3333,445.2492,42.3333,449.2492,52.3333,453.2492,48.3333,449.2492" style="stroke:#0A9EFD;stroke-width:1;"/><line style="stroke:#0A9EFD;stroke-width:2;stroke-dasharray:2.0,2.0;" x1="46.3333" x2="533.7066" y1="449.2492" y2="449.2492"/><text fill="#0A9EFD" font-family="Arial" font-size="13" lengthAdjust="spacing" textLength="192.9307" x="191.5546" y="429.5456">Remote users publish audio track</text><text fill="#0A9EFD" font-family="Arial" font-size="13" lengthAdjust="spacing" textLength="151.582" x="214.0349" y="444.4943">client.on("user-published")</text></g><g class="message" data-participant-1="APP" data-participant-2="SDK"><polygon fill="#0A9EFD" points="298.3252,489.1466,308.3252,493.1466,298.3252,497.1466,302.3252,493.1466" style="stroke:#0A9EFD;stroke-width:1;"/><line style="stroke:#0A9EFD;stroke-width:2;" x1="41.3333" x2="304.3252" y1="493.1466" y2="493.1466"/><text fill="#0A9EFD" font-family="Arial" font-size="13" lengthAdjust="spacing" textLength="132.228" x="109.7153" y="473.443">Get remote user object</text><text fill="#0A9EFD" font-family="Arial" font-size="13" lengthAdjust="spacing" textLength="172.6626" x="91.3039" y="488.3918">AgoraRTCClient.remoteUsers</text></g><g class="message" data-participant-1="APP" data-participant-2="SDK"><polygon fill="#0A9EFD" points="298.3252,533.0441,308.3252,537.0441,298.3252,541.0441,302.3252,537.0441" style="stroke:#0A9EFD;stroke-width:1;"/><line style="stroke:#0A9EFD;stroke-width:2;" x1="41.3333" x2="304.3252" y1="537.0441" y2="537.0441"/><text fill="#0A9EFD" font-family="Arial" font-size="13" lengthAdjust="spacing" textLength="183.5361" x="84.0612" y="517.3405">Subscribe to remote user object</text><text fill="#0A9EFD" font-family="Arial" font-size="13" lengthAdjust="spacing" textLength="153.8926" x="100.6889" y="532.2892">AgoraRTCClient.subscribe</text></g><g class="message" data-participant-1="RTN" data-participant-2="SDK"><polygon fill="#0A9EFD" points="321.3252,561.9928,311.3252,565.9928,321.3252,569.9928,317.3252,565.9928" style="stroke:#0A9EFD;stroke-width:1;"/><line style="stroke:#0A9EFD;stroke-width:2;" x1="315.3252" x2="533.7066" y1="565.9928" y2="565.9928"/><text fill="#0A9EFD" font-family="Arial" font-size="13" lengthAdjust="spacing" textLength="111.2998" x="366.866" y="561.238">Receive audio data</text></g><g class="message" data-participant-1="APP" data-participant-2="SDK"><polygon fill="#0A9EFD" points="298.3252,605.8903,308.3252,609.8903,298.3252,613.8903,302.3252,609.8903" style="stroke:#0A9EFD;stroke-width:1;"/><line style="stroke:#0A9EFD;stroke-width:2;" x1="41.3333" x2="304.3252" y1="609.8903" y2="609.8903"/><text fill="#0A9EFD" font-family="Arial" font-size="13" lengthAdjust="spacing" textLength="138.7471" x="106.4557" y="590.1867">Get remote audio object</text><text fill="#0A9EFD" font-family="Arial" font-size="13" lengthAdjust="spacing" textLength="202.2935" x="76.4884" y="605.1354">AgoraRTCRemoteUser.audioTrack</text></g><path d="M10,631.8903 L161.2534,631.8903 L161.2534,638.839 L151.2534,648.839 L10,648.839 L10,631.8903" fill="#EEEEEE" style="stroke:#0A9EFD;stroke-width:1.5;"/><rect fill="none" height="133.6924" style="stroke:#0A9EFD;stroke-width:2;" width="556.04" x="10" y="631.8903"/><text fill="#000000" font-family="Arial" font-size="13" lengthAdjust="spacing" textLength="106.2534" x="25" y="645.0841">Leave the channel</text><g class="message" data-participant-1="APP" data-participant-2="SDK"><polygon fill="#0A9EFD" points="298.3252,680.7365,308.3252,684.7365,298.3252,688.7365,302.3252,684.7365" style="stroke:#0A9EFD;stroke-width:1;"/><line style="stroke:#0A9EFD;stroke-width:2;" x1="41.3333" x2="304.3252" y1="684.7365" y2="684.7365"/><text fill="#0A9EFD" font-family="Arial" font-size="13" lengthAdjust="spacing" textLength="164.0298" x="93.8144" y="665.0329">Turn off the local audio track</text><text fill="#0A9EFD" font-family="Arial" font-size="13" lengthAdjust="spacing" textLength="167.6353" x="93.8175" y="679.9816">MicrophoneAudioTrack.close</text></g><g class="message" data-participant-1="APP" data-participant-2="SDK"><polygon fill="#0A9EFD" points="298.3252,724.634,308.3252,728.634,298.3252,732.634,302.3252,728.634" style="stroke:#0A9EFD;stroke-width:1;"/><line style="stroke:#0A9EFD;stroke-width:2;" x1="41.3333" x2="304.3252" y1="728.634" y2="728.634"/><text fill="#0A9EFD" font-family="Arial" font-size="13" lengthAdjust="spacing" textLength="106.2534" x="122.7026" y="708.9303">Leave the channel</text><text fill="#0A9EFD" font-family="Arial" font-size="13" lengthAdjust="spacing" textLength="129.3335" x="112.9684" y="723.8791">AgoraRTCClient.leave</text></g><g class="message" data-participant-1="SDK" data-participant-2="RTN"><polygon fill="#0A9EFD" points="522.7066,753.5827,532.7066,757.5827,522.7066,761.5827,526.7066,757.5827" style="stroke:#0A9EFD;stroke-width:1;"/><line style="stroke:#0A9EFD;stroke-width:2;" x1="310.3252" x2="528.7066" y1="757.5827" y2="757.5827"/><text fill="#0A9EFD" font-family="Arial" font-size="13" lengthAdjust="spacing" textLength="168.397" x="338.3174" y="752.8278">Request to leave the channel</text></g><!--SRC=[TPFDJkCm58NtUOfB5lmi4h6OLLLLgeeqqimmgjAoGqAESsbTN3lu1m4FDGynJyPrVi0qoJO-vzplN3jdGd7fAmIsquOzs2UXSk6FCabA_GhfigxJf6R62IvgfXoaSolUSVRZUZ4_TwoKw1OfC0lBzJf1LG6vEcknNS7cvlUqNR8tDBQra_34lWmyzBtO_lt_Rpg4I-shDeEKNnaxetqDAuFCKJUGcZC9N0fKBY7MR44JPz0C8T2SDy9LStwlO8CEZfgsuZHS6CSlGd0V-aiB1NpFb48vajM6v0TI9NIGBOXhziq41fyzMXU7zgJ4N_jI2hllc9clX0Pd67-AXdNoWOJOJphT2cvqlTSAbq6sFGbQJmsBahf67LTKQXFMtNegvbZSP-DBouqecnKQF6gYzPRkEyoUPrdZBwBldxM_CxHNbcjrcGPPrgcmIg-Y5Z_flg8XeCi3SZUiq6hkUexEFSKw6MDxGzZ5lE_2KRnWl8vHllPya5nyakNiwvwYXVv1HkbkZoDFR-kD0ltus1oFtUJO8yZfrx4OfGmc38lB88aUGD4-vB0tEU0By1y0]--></g></svg>