<svg xmlns="http://www.w3.org/2000/svg" xmlns:xlink="http://www.w3.org/1999/xlink" contentStyleType="text/css" data-diagram-type="SEQUENCE" height="978px" preserveAspectRatio="none" style="width:767px;height:978px;" version="1.1" viewBox="0 0 767 978" width="767px" zoomAndPan="magnify"><defs/><g><rect fill="none" height="976.0955" style="stroke:#0A9EFD;stroke-width:1;" width="765.0212" x="0" y="0"/><rect fill="#999999" fill-opacity="0.33333" height="966.0955" style="stroke:#0A9EFD;stroke-width:0.5;" width="68.0991" x="7.2838" y="6"/><text fill="#0A9EFD" font-family="sans-serif" font-size="13" font-weight="bold" lengthAdjust="spacing" textLength="62.0991" x="10.2838" y="19.4951">App: Host</text><rect fill="#999999" fill-opacity="0.33333" height="966.0955" style="stroke:#0A9EFD;stroke-width:0.5;" width="63.7764" x="323.3539" y="6"/><text fill="#0A9EFD" font-family="sans-serif" font-size="13" font-weight="bold" lengthAdjust="spacing" textLength="57.7764" x="326.3539" y="19.4951">RTC SDK</text><rect fill="#999999" fill-opacity="0.33333" height="966.0955" style="stroke:#0A9EFD;stroke-width:0.5;" width="97.7236" x="663.2976" y="6"/><text fill="#0A9EFD" font-family="sans-serif" font-size="13" font-weight="bold" lengthAdjust="spacing" textLength="91.7236" x="666.2976" y="19.4951">App: Audience</text><rect fill="#0A9EFD" fill-opacity="0.06667" height="74.8462" style="stroke:#0A9EFD;stroke-width:2;" width="733.4928" x="10" y="85.0182"/><rect fill="#0A9EFD" fill-opacity="0.06667" height="132.7437" style="stroke:#0A9EFD;stroke-width:2;" width="733.4928" x="10" y="173.8644"/><rect fill="#0A9EFD" fill-opacity="0.06667" height="162.6411" style="stroke:#0A9EFD;stroke-width:2;" width="733.4928" x="10" y="320.6081"/><rect fill="#0A9EFD" fill-opacity="0.06667" height="45.8975" style="stroke:#0A9EFD;stroke-width:2;" width="419.584" x="323.9088" y="497.2492"/><rect fill="#0A9EFD" fill-opacity="0.06667" height="74.8462" style="stroke:#0A9EFD;stroke-width:2;" width="733.4928" x="10" y="557.1466"/><rect fill="#0A9EFD" fill-opacity="0.06667" height="264.436" style="stroke:#0A9EFD;stroke-width:2;" width="733.4928" x="10" y="645.9928"/><g><title>&lt;size:40&gt;&lt;&amp;tablet&gt;</title><rect fill="#000000" fill-opacity="0.00000" height="859.4106" width="8" x="37.3333" y="68.0182"/><line style="stroke:#0A9EFD;stroke-width:0.5;stroke-dasharray:5.0,5.0;" x1="41" x2="41" y1="68.0182" y2="927.4289"/></g><g><title>&lt;size:40&gt;&lt;&amp;layers&gt;</title><rect fill="#000000" fill-opacity="0.00000" height="859.4106" width="8" x="351.2421" y="68.0182"/><line style="stroke:#0A9EFD;stroke-width:0.5;stroke-dasharray:5.0,5.0;" x1="354.9088" x2="354.9088" y1="68.0182" y2="927.4289"/></g><g><title>&lt;size:40&gt;&lt;&amp;tablet&gt;</title><rect fill="#000000" fill-opacity="0.00000" height="859.4106" width="8" x="708.1594" y="68.0182"/><line style="stroke:#0A9EFD;stroke-width:0.5;stroke-dasharray:5.0,5.0;" x1="711.8261" x2="711.8261" y1="68.0182" y2="927.4289"/></g><g class="participant participant-head" data-participant="HST"><rect fill="none" height="40.6667" rx="2.5" ry="2.5" style="stroke:#0A9EFD;stroke-width:2;" width="42.6667" x="20" y="26.3516"/><path d="M29.1333,33.3516 C28.5333,33.3516 28,33.8849 28,34.4849 L28,58.8516 C28,59.4516 28.5333,59.9849 29.1333,59.9849 L50.1667,59.9849 C50.7667,59.9849 51.3,59.4516 51.3,58.8516 L51.3,34.4849 C51.3,33.8849 50.7667,33.3516 50.1667,33.3516 L29.1333,33.3516 M31.3333,36.6849 L48,36.6849 L48,53.3516 L31.3333,53.3516 L31.3333,36.6849 M39.6667,55.0182 C40.9333,55.0182 41.7667,56.4182 41.1333,57.5182 C40.5,58.6182 38.8667,58.6182 38.2,57.5182 C37.5667,56.4182 38.3667,55.0182 39.6667,55.0182" fill="#0A9EFD"/></g><g class="participant participant-tail" data-participant="HST"><rect fill="none" height="40.6667" rx="2.5" ry="2.5" style="stroke:#0A9EFD;stroke-width:2;" width="42.6667" x="20" y="926.4289"/><path d="M29.1333,933.4289 C28.5333,933.4289 28,933.9622 28,934.5622 L28,958.9289 C28,959.5289 28.5333,960.0622 29.1333,960.0622 L50.1667,960.0622 C50.7667,960.0622 51.3,959.5289 51.3,958.9289 L51.3,934.5622 C51.3,933.9622 50.7667,933.4289 50.1667,933.4289 L29.1333,933.4289 M31.3333,936.7622 L48,936.7622 L48,953.4289 L31.3333,953.4289 L31.3333,936.7622 M39.6667,955.0955 C40.9333,955.0955 41.7667,956.4955 41.1333,957.5955 C40.5,958.6955 38.8667,958.6955 38.2,957.5955 C37.5667,956.4955 38.3667,955.0955 39.6667,955.0955" fill="#0A9EFD"/></g><g class="participant participant-head" data-participant="SDK"><rect fill="none" height="40.6667" rx="2.5" ry="2.5" style="stroke:#0A9EFD;stroke-width:2;" width="42.6667" x="333.9088" y="26.3516"/><path d="M341.9088,33.3516 L341.9088,46.6849 L355.2421,46.6849 L355.2421,33.3516 L341.9088,33.3516 M358.5754,40.0182 L358.5754,50.0182 L348.5754,50.0182 L348.5754,53.3516 L361.9088,53.3516 L361.9088,40.0182 L358.5754,40.0182 M365.2421,46.6849 L365.2421,56.6849 L355.2421,56.6849 L355.2421,60.0182 L368.5754,60.0182 L368.5754,46.6849 L365.2421,46.6849" fill="#0A9EFD"/></g><g class="participant participant-tail" data-participant="SDK"><rect fill="none" height="40.6667" rx="2.5" ry="2.5" style="stroke:#0A9EFD;stroke-width:2;" width="42.6667" x="333.9088" y="926.4289"/><path d="M341.9088,933.4289 L341.9088,946.7622 L355.2421,946.7622 L355.2421,933.4289 L341.9088,933.4289 M358.5754,940.0955 L358.5754,950.0955 L348.5754,950.0955 L348.5754,953.4289 L361.9088,953.4289 L361.9088,940.0955 L358.5754,940.0955 M365.2421,946.7622 L365.2421,956.7622 L355.2421,956.7622 L355.2421,960.0955 L368.5754,960.0955 L368.5754,946.7622 L365.2421,946.7622" fill="#0A9EFD"/></g><g class="participant participant-head" data-participant="AUD"><rect fill="none" height="40.6667" rx="2.5" ry="2.5" style="stroke:#0A9EFD;stroke-width:2;" width="42.6667" x="690.8261" y="26.3516"/><path d="M699.9594,33.3516 C699.3594,33.3516 698.8261,33.8849 698.8261,34.4849 L698.8261,58.8516 C698.8261,59.4516 699.3594,59.9849 699.9594,59.9849 L720.9928,59.9849 C721.5928,59.9849 722.1261,59.4516 722.1261,58.8516 L722.1261,34.4849 C722.1261,33.8849 721.5928,33.3516 720.9928,33.3516 L699.9594,33.3516 M702.1594,36.6849 L718.8261,36.6849 L718.8261,53.3516 L702.1594,53.3516 L702.1594,36.6849 M710.4928,55.0182 C711.7594,55.0182 712.5928,56.4182 711.9594,57.5182 C711.3261,58.6182 709.6928,58.6182 709.0261,57.5182 C708.3928,56.4182 709.1928,55.0182 710.4928,55.0182" fill="#0A9EFD"/></g><g class="participant participant-tail" data-participant="AUD"><rect fill="none" height="40.6667" rx="2.5" ry="2.5" style="stroke:#0A9EFD;stroke-width:2;" width="42.6667" x="690.8261" y="926.4289"/><path d="M699.9594,933.4289 C699.3594,933.4289 698.8261,933.9622 698.8261,934.5622 L698.8261,958.9289 C698.8261,959.5289 699.3594,960.0622 699.9594,960.0622 L720.9928,960.0622 C721.5928,960.0622 722.1261,959.5289 722.1261,958.9289 L722.1261,934.5622 C722.1261,933.9622 721.5928,933.4289 720.9928,933.4289 L699.9594,933.4289 M702.1594,936.7622 L718.8261,936.7622 L718.8261,953.4289 L702.1594,953.4289 L702.1594,936.7622 M710.4928,955.0955 C711.7594,955.0955 712.5928,956.4955 711.9594,957.5955 C711.3261,958.6955 709.6928,958.6955 709.0261,957.5955 C708.3928,956.4955 709.1928,955.0955 710.4928,955.0955" fill="#0A9EFD"/></g><path d="M10,85.0182 L166.2998,85.0182 L166.2998,91.967 L156.2998,101.967 L10,101.967 L10,85.0182" fill="#EEEEEE" style="stroke:#0A9EFD;stroke-width:1.5;"/><rect fill="none" height="74.8462" style="stroke:#0A9EFD;stroke-width:2;" width="733.4928" x="10" y="85.0182"/><text fill="#000000" font-family="Arial" font-size="13" lengthAdjust="spacing" textLength="111.2998" x="25" y="98.2121">Initialize the engine</text><g class="message" data-participant-1="HST" data-participant-2="SDK"><polygon fill="#0A9EFD" points="343.2421,118.9157,353.2421,122.9157,343.2421,126.9157,347.2421,122.9157" style="stroke:#0A9EFD;stroke-width:1;"/><line style="stroke:#0A9EFD;stroke-width:2;" x1="41.3333" x2="349.2421" y1="122.9157" y2="122.9157"/><text fill="#0A9EFD" font-family="Arial" font-size="13" lengthAdjust="spacing" textLength="178.5088" x="109.0333" y="118.1608">Create and initialize the engine</text></g><g class="message" data-participant-1="AUD" data-participant-2="SDK"><polygon fill="#0A9EFD" points="366.2421,147.8644,356.2421,151.8644,366.2421,155.8644,362.2421,151.8644" style="stroke:#0A9EFD;stroke-width:1;"/><line style="stroke:#0A9EFD;stroke-width:2;" x1="360.2421" x2="711.1594" y1="151.8644" y2="151.8644"/><text fill="#0A9EFD" font-family="Arial" font-size="13" lengthAdjust="spacing" textLength="178.5088" x="444.4464" y="147.1095">Create and initialize the engine</text></g><path d="M10,173.8644 L170.6226,173.8644 L170.6226,180.8132 L160.6226,190.8132 L10,190.8132 L10,173.8644" fill="#EEEEEE" style="stroke:#0A9EFD;stroke-width:1.5;"/><rect fill="none" height="132.7437" style="stroke:#0A9EFD;stroke-width:2;" width="733.4928" x="10" y="173.8644"/><text fill="#000000" font-family="Arial" font-size="13" lengthAdjust="spacing" textLength="115.6226" x="25" y="187.0583">Set video properties</text><g class="message" data-participant-1="HST" data-participant-2="SDK"><polygon fill="#0A9EFD" points="343.2421,207.7619,353.2421,211.7619,343.2421,215.7619,347.2421,211.7619" style="stroke:#0A9EFD;stroke-width:1;"/><line style="stroke:#0A9EFD;stroke-width:2;" x1="41.3333" x2="349.2421" y1="211.7619" y2="211.7619"/><text fill="#0A9EFD" font-family="Arial" font-size="13" lengthAdjust="spacing" textLength="143.1016" x="126.7369" y="207.007">Enable the video module</text></g><g class="message" data-participant-1="AUD" data-participant-2="SDK"><polygon fill="#0A9EFD" points="366.2421,236.7106,356.2421,240.7106,366.2421,244.7106,362.2421,240.7106" style="stroke:#0A9EFD;stroke-width:1;"/><line style="stroke:#0A9EFD;stroke-width:2;" x1="360.2421" x2="711.1594" y1="240.7106" y2="240.7106"/><text fill="#0A9EFD" font-family="Arial" font-size="13" lengthAdjust="spacing" textLength="143.1016" x="462.15" y="235.9557">Enable the video module</text></g><g class="message" data-participant-1="HST" data-participant-2="SDK"><polygon fill="#0A9EFD" points="343.2421,265.6593,353.2421,269.6593,343.2421,273.6593,347.2421,269.6593" style="stroke:#0A9EFD;stroke-width:1;"/><line style="stroke:#0A9EFD;stroke-width:2;" x1="41.3333" x2="349.2421" y1="269.6593" y2="269.6593"/><text fill="#0A9EFD" font-family="Arial" font-size="13" lengthAdjust="spacing" textLength="128.6162" x="133.9796" y="264.9045">Initialize the local view</text></g><g class="message" data-participant-1="HST" data-participant-2="SDK"><polygon fill="#0A9EFD" points="343.2421,294.6081,353.2421,298.6081,343.2421,302.6081,347.2421,298.6081" style="stroke:#0A9EFD;stroke-width:1;"/><line style="stroke:#0A9EFD;stroke-width:2;" x1="41.3333" x2="349.2421" y1="298.6081" y2="298.6081"/><text fill="#0A9EFD" font-family="Arial" font-size="13" lengthAdjust="spacing" textLength="156.0698" x="120.2528" y="293.8532">Display local video preview</text></g><path d="M10,320.6081 L127.998,320.6081 L127.998,327.5568 L117.998,337.5568 L10,337.5568 L10,320.6081" fill="#EEEEEE" style="stroke:#0A9EFD;stroke-width:1.5;"/><rect fill="none" height="162.6411" style="stroke:#0A9EFD;stroke-width:2;" width="733.4928" x="10" y="320.6081"/><text fill="#000000" font-family="Arial" font-size="13" lengthAdjust="spacing" textLength="72.998" x="25" y="333.8019">Join channel</text><g class="message" data-participant-1="HST" data-participant-2="SDK"><polygon fill="#0A9EFD" points="343.2421,369.4543,353.2421,373.4543,343.2421,377.4543,347.2421,373.4543" style="stroke:#0A9EFD;stroke-width:1;"/><line style="stroke:#0A9EFD;stroke-width:2;" x1="41.3333" x2="349.2421" y1="373.4543" y2="373.4543"/><text fill="#0A9EFD" font-family="Arial" font-size="13" lengthAdjust="spacing" textLength="119.9834" x="138.296" y="353.7507">Join the channel and</text><text fill="#0A9EFD" font-family="Arial" font-size="13" lengthAdjust="spacing" textLength="138.7407" x="130.7233" y="368.6994">set the user role as host</text></g><g class="message" data-participant-1="AUD" data-participant-2="SDK"><polygon fill="#0A9EFD" points="366.2421,413.3517,356.2421,417.3517,366.2421,421.3517,362.2421,417.3517" style="stroke:#0A9EFD;stroke-width:1;"/><line style="stroke:#0A9EFD;stroke-width:2;" x1="360.2421" x2="711.1594" y1="417.3517" y2="417.3517"/><text fill="#0A9EFD" font-family="Arial" font-size="13" lengthAdjust="spacing" textLength="119.9834" x="473.7091" y="397.6481">Join the channel and</text><text fill="#0A9EFD" font-family="Arial" font-size="13" lengthAdjust="spacing" textLength="166.937" x="452.0382" y="412.5968">set the user role as audience</text></g><g class="message" data-participant-1="SDK" data-participant-2="HST"><polygon fill="#0A9EFD" points="52.3333,442.3005,42.3333,446.3005,52.3333,450.3005,48.3333,446.3005" style="stroke:#0A9EFD;stroke-width:1;"/><line style="stroke:#0A9EFD;stroke-width:2;stroke-dasharray:2.0,2.0;" x1="46.3333" x2="354.2421" y1="446.3005" y2="446.3005"/><text fill="#0A9EFD" font-family="Arial" font-size="13" lengthAdjust="spacing" textLength="274.6377" x="60.9689" y="441.5456">Notify the host that the channel has been joined</text></g><g class="message" data-participant-1="SDK" data-participant-2="AUD"><polygon fill="#0A9EFD" points="700.1594,471.2492,710.1594,475.2492,700.1594,479.2492,704.1594,475.2492" style="stroke:#0A9EFD;stroke-width:1;"/><line style="stroke:#0A9EFD;stroke-width:2;stroke-dasharray:2.0,2.0;" x1="355.2421" x2="706.1594" y1="475.2492" y2="475.2492"/><text fill="#0A9EFD" font-family="Arial" font-size="13" lengthAdjust="spacing" textLength="302.834" x="382.2838" y="470.4943">Notify the audience that the channel has been joined</text></g><path d="M323.9088,497.2492 L462.1114,497.2492 L462.1114,504.1979 L452.1114,514.1979 L323.9088,514.1979 L323.9088,497.2492" fill="#EEEEEE" style="stroke:#0A9EFD;stroke-width:1.5;"/><rect fill="none" height="45.8975" style="stroke:#0A9EFD;stroke-width:2;" width="419.584" x="323.9088" y="497.2492"/><text fill="#000000" font-family="Arial" font-size="13" lengthAdjust="spacing" textLength="93.2026" x="338.9088" y="510.443">Set remote view</text><g class="message" data-participant-1="AUD" data-participant-2="SDK"><polygon fill="#0A9EFD" points="366.2421,531.1466,356.2421,535.1466,366.2421,539.1466,362.2421,535.1466" style="stroke:#0A9EFD;stroke-width:1;"/><line style="stroke:#0A9EFD;stroke-width:2;" x1="360.2421" x2="711.1594" y1="535.1466" y2="535.1466"/><text fill="#0A9EFD" font-family="Arial" font-size="13" lengthAdjust="spacing" textLength="142.3398" x="462.5308" y="530.3918">Initialize the remote view</text></g><path d="M10,557.1466 L241.4561,557.1466 L241.4561,564.0954 L231.4561,574.0954 L10,574.0954 L10,557.1466" fill="#EEEEEE" style="stroke:#0A9EFD;stroke-width:1.5;"/><rect fill="none" height="74.8462" style="stroke:#0A9EFD;stroke-width:2;" width="733.4928" x="10" y="557.1466"/><text fill="#000000" font-family="Arial" font-size="13" lengthAdjust="spacing" textLength="186.4561" x="25" y="570.3405">Start audio and video interaction</text><g class="message" data-participant-1="SDK" data-participant-2="AUD"><polygon fill="#0A9EFD" points="700.1594,591.0441,710.1594,595.0441,700.1594,599.0441,704.1594,595.0441" style="stroke:#0A9EFD;stroke-width:1;"/><line style="stroke:#0A9EFD;stroke-width:2;" x1="355.2421" x2="706.1594" y1="595.0441" y2="595.0441"/><text fill="#0A9EFD" font-family="Arial" font-size="13" lengthAdjust="spacing" textLength="142.3779" x="462.5118" y="590.2892">Receive audio and video</text></g><g class="message" data-participant-1="HST" data-participant-2="SDK"><polygon fill="#0A9EFD" points="343.2421,619.9928,353.2421,623.9928,343.2421,627.9928,347.2421,623.9928" style="stroke:#0A9EFD;stroke-width:1;"/><line style="stroke:#0A9EFD;stroke-width:2;" x1="41.3333" x2="349.2421" y1="623.9928" y2="623.9928"/><text fill="#0A9EFD" font-family="Arial" font-size="13" lengthAdjust="spacing" textLength="125.7725" x="135.4015" y="619.238">Send audio and video</text></g><path d="M10,645.9928 L237.1333,645.9928 L237.1333,652.9416 L227.1333,662.9416 L10,662.9416 L10,645.9928" fill="#EEEEEE" style="stroke:#0A9EFD;stroke-width:1.5;"/><rect fill="none" height="264.436" style="stroke:#0A9EFD;stroke-width:2;" width="733.4928" x="10" y="645.9928"/><text fill="#000000" font-family="Arial" font-size="13" lengthAdjust="spacing" textLength="182.1333" x="25" y="659.1867">End audio and video interaction</text><g class="message" data-participant-1="HST" data-participant-2="SDK"><polygon fill="#0A9EFD" points="343.2421,679.8903,353.2421,683.8903,343.2421,687.8903,347.2421,683.8903" style="stroke:#0A9EFD;stroke-width:1;"/><line style="stroke:#0A9EFD;stroke-width:2;" x1="41.3333" x2="349.2421" y1="683.8903" y2="683.8903"/><text fill="#0A9EFD" font-family="Arial" font-size="13" lengthAdjust="spacing" textLength="106.2534" x="145.161" y="679.1354">Leave the channel</text></g><g class="message" data-participant-1="SDK" data-participant-2="HST"><polygon fill="#0A9EFD" points="52.3333,723.7878,42.3333,727.7878,52.3333,731.7878,48.3333,727.7878" style="stroke:#0A9EFD;stroke-width:1;"/><line style="stroke:#0A9EFD;stroke-width:2;stroke-dasharray:2.0,2.0;" x1="46.3333" x2="354.2421" y1="727.7878" y2="727.7878"/><text fill="#0A9EFD" font-family="Arial" font-size="13" lengthAdjust="spacing" textLength="108.3926" x="142.2855" y="708.0841">Notify the host that</text><text fill="#0A9EFD" font-family="Arial" font-size="13" lengthAdjust="spacing" textLength="122.8589" x="136.8583" y="723.0329">it has left the channel</text></g><g class="message" data-participant-1="SDK" data-participant-2="AUD"><polygon fill="#0A9EFD" points="700.1594,767.6852,710.1594,771.6852,700.1594,775.6852,704.1594,771.6852" style="stroke:#0A9EFD;stroke-width:1;"/><line style="stroke:#0A9EFD;stroke-width:2;stroke-dasharray:2.0,2.0;" x1="355.2421" x2="706.1594" y1="771.6852" y2="771.6852"/><text fill="#0A9EFD" font-family="Arial" font-size="13" lengthAdjust="spacing" textLength="136.5889" x="463.6004" y="751.9816">Notify the audience that</text><text fill="#0A9EFD" font-family="Arial" font-size="13" lengthAdjust="spacing" textLength="162.6143" x="452.3936" y="766.9303">the host has left the channel</text></g><g class="message" data-participant-1="AUD" data-participant-2="SDK"><polygon fill="#0A9EFD" points="366.2421,796.634,356.2421,800.634,366.2421,804.634,362.2421,800.634" style="stroke:#0A9EFD;stroke-width:1;"/><line style="stroke:#0A9EFD;stroke-width:2;" x1="360.2421" x2="711.1594" y1="800.634" y2="800.634"/><text fill="#0A9EFD" font-family="Arial" font-size="13" lengthAdjust="spacing" textLength="106.2534" x="480.5741" y="795.8791">Leave the channel</text></g><g class="message" data-participant-1="SDK" data-participant-2="AUD"><polygon fill="#0A9EFD" points="700.1594,840.5314,710.1594,844.5314,700.1594,848.5314,704.1594,844.5314" style="stroke:#0A9EFD;stroke-width:1;"/><line style="stroke:#0A9EFD;stroke-width:2;stroke-dasharray:2.0,2.0;" x1="355.2421" x2="706.1594" y1="844.5314" y2="844.5314"/><text fill="#0A9EFD" font-family="Arial" font-size="13" lengthAdjust="spacing" textLength="136.5889" x="463.6004" y="824.8278">Notify the audience that</text><text fill="#0A9EFD" font-family="Arial" font-size="13" lengthAdjust="spacing" textLength="122.8589" x="472.2713" y="839.7765">it has left the channel</text></g><g class="message" data-participant-1="HST" data-participant-2="SDK"><polygon fill="#0A9EFD" points="343.2421,869.4801,353.2421,873.4801,343.2421,877.4801,347.2421,873.4801" style="stroke:#0A9EFD;stroke-width:1;"/><line style="stroke:#0A9EFD;stroke-width:2;" x1="41.3333" x2="349.2421" y1="873.4801" y2="873.4801"/><text fill="#0A9EFD" font-family="Arial" font-size="13" lengthAdjust="spacing" textLength="109.1226" x="143.7264" y="868.7253">Destroy the engine</text></g><g class="message" data-participant-1="AUD" data-participant-2="SDK"><polygon fill="#0A9EFD" points="366.2421,898.4289,356.2421,902.4289,366.2421,906.4289,362.2421,902.4289" style="stroke:#0A9EFD;stroke-width:1;"/><line style="stroke:#0A9EFD;stroke-width:2;" x1="360.2421" x2="711.1594" y1="902.4289" y2="902.4289"/><text fill="#0A9EFD" font-family="Arial" font-size="13" lengthAdjust="spacing" textLength="109.1226" x="479.1395" y="897.674">Destroy the engine</text></g><!--SRC=[bLDBJy904BxtLumSl64yU2A4X8Y9htW0l96OfHrXT9bjThSe_dgdsuhTGYFU2FEzvflj6N6gYmn1hOnLB-wT-8AAZKwIfVc4tZZF1t1hdEybkRAUKieLU-WD7NtXuEfoD3ptQgdHZtgW7DpEvWbo1iAj1QRpQvXD7hhfMktGkeekm1Oz-8-BZ91JF2t3-7doAxAofiZXZicJqW87lqP0NX5Z8c6XFofD1t1jKNafGNXq52ogfuF5_iTwXXwsbA61t9eS9JwwoFc6o-o1NU4s9YjqRDY5QUgqTjGcLLhG-16X9kHoQNm_he9Xm3LItnjYIDUA6NN43uDIlnwM9ImOd6nP_biuj62DP9L3hENPH6lyXwpgcoV2XBueI8e1F1bFhxk0BjNbX_AHubgeIqI6D_72RC-M617xH_vlXTOjBMwCnwhOvcwj-fkmfeAN1npCJNW-rG68FLgLUZ8SD8VzIdEAAT8Ms_Ze8BFogRS13SURmt7arzHwHBN5PXbXEkpNSOwMlv2zGsSQNwCYwqqEkN7r2zxhTQfqvpljlDqPeqy3dRTcr_NH7ncNDNy3]--></g></svg>