<?xml version="1.0" encoding="us-ascii" standalone="no"?><svg xmlns="http://www.w3.org/2000/svg" xmlns:xlink="http://www.w3.org/1999/xlink" contentStyleType="text/css" height="786px" preserveAspectRatio="none" style="width:824px;height:786px;" version="1.1" viewBox="0 0 824 786" width="824px" zoomAndPan="magnify"><defs/><g><rect fill="none" height="784.516" style="stroke:#0A9EFD;stroke-width:1.0;" width="822.5" x="0" y="0"/><rect fill="#999999" fill-opacity="0.33333" height="774.516" style="stroke:#0A9EFD;stroke-width:0.5;" width="71" x="5.8333" y="6"/><text fill="#0A9EFD" font-family="sans-serif" font-size="13" font-weight="bold" lengthAdjust="spacing" textLength="65" x="8.8333" y="18.5684">App: Host</text><rect fill="#999999" fill-opacity="0.33333" height="774.516" style="stroke:#0A9EFD;stroke-width:0.5;" width="74" x="358.1667" y="6"/><text fill="#0A9EFD" font-family="sans-serif" font-size="13" font-weight="bold" lengthAdjust="spacing" textLength="68" x="361.1667" y="18.5684">Video SDK</text><rect fill="#999999" fill-opacity="0.33333" height="774.516" style="stroke:#0A9EFD;stroke-width:0.5;" width="105" x="713.5" y="6"/><text fill="#0A9EFD" font-family="sans-serif" font-size="13" font-weight="bold" lengthAdjust="spacing" textLength="99" x="716.5" y="18.5684">App: Audience</text><rect fill="#0A9EFD" fill-opacity="0.06667" height="74.8462" style="stroke:#0A9EFD;stroke-width:2.0;" width="787.3333" x="10" y="83.9772"/><rect fill="#0A9EFD" fill-opacity="0.06667" height="103.7949" style="stroke:#0A9EFD;stroke-width:2.0;" width="416.5" x="10" y="172.8234"/><rect fill="#0A9EFD" fill-opacity="0.06667" height="132.7437" style="stroke:#0A9EFD;stroke-width:2.0;" width="787.3333" x="10" y="290.6183"/><rect fill="#0A9EFD" fill-opacity="0.06667" height="132.7437" style="stroke:#0A9EFD;stroke-width:2.0;" width="787.3333" x="10" y="437.362"/><rect fill="#0A9EFD" fill-opacity="0.06667" height="45.8975" style="stroke:#0A9EFD;stroke-width:2.0;" width="433.5" x="363.8333" y="584.1056"/><rect fill="#0A9EFD" fill-opacity="0.06667" height="74.8462" style="stroke:#0A9EFD;stroke-width:2.0;" width="787.3333" x="10" y="644.0031"/><line style="stroke:#0A9EFD;stroke-width:0.5;stroke-dasharray:5.0,5.0;" x1="41" x2="41" y1="66.9772" y2="735.8493"/><line style="stroke:#0A9EFD;stroke-width:0.5;stroke-dasharray:5.0,5.0;" x1="394.8333" x2="394.8333" y1="66.9772" y2="735.8493"/><line style="stroke:#0A9EFD;stroke-width:0.5;stroke-dasharray:5.0,5.0;" x1="765.6667" x2="765.6667" y1="66.9772" y2="735.8493"/><rect fill="none" height="40.6667" rx="2.5" ry="2.5" style="stroke:#0A9EFD;stroke-width:2.0;" width="42.6667" x="20" y="25.3105"/><path d="M29.1333,32.3105 C28.5333,32.3105 28,32.8439 28,33.4439 L28,57.8105 C28,58.4105 28.5333,58.9439 29.1333,58.9439 L50.1667,58.9439 C50.7667,58.9439 51.3,58.4105 51.3,57.8105 L51.3,33.4439 C51.3,32.8439 50.7667,32.3105 50.1667,32.3105 L29.1333,32.3105 M31.3333,35.6439 L48,35.6439 L48,52.3105 L31.3333,52.3105 L31.3333,35.6439 M39.6667,53.9772 C40.9333,53.9772 41.7667,55.3772 41.1333,56.4772 C40.5,57.5772 38.8667,57.5772 38.2,56.4772 C37.5667,55.3772 38.3667,53.9772 39.6667,53.9772 " fill="#0A9EFD" style="stroke:;stroke-width:0.0;stroke-dasharray:;"/><rect fill="none" height="40.6667" rx="2.5" ry="2.5" style="stroke:#0A9EFD;stroke-width:2.0;" width="42.6667" x="20" y="734.8493"/><path d="M29.1333,741.8493 C28.5333,741.8493 28,742.3826 28,742.9826 L28,767.3493 C28,767.9493 28.5333,768.4826 29.1333,768.4826 L50.1667,768.4826 C50.7667,768.4826 51.3,767.9493 51.3,767.3493 L51.3,742.9826 C51.3,742.3826 50.7667,741.8493 50.1667,741.8493 L29.1333,741.8493 M31.3333,745.1826 L48,745.1826 L48,761.8493 L31.3333,761.8493 L31.3333,745.1826 M39.6667,763.516 C40.9333,763.516 41.7667,764.916 41.1333,766.016 C40.5,767.116 38.8667,767.116 38.2,766.016 C37.5667,764.916 38.3667,763.516 39.6667,763.516 " fill="#0A9EFD" style="stroke:;stroke-width:0.0;stroke-dasharray:;"/><rect fill="none" height="40.6667" rx="2.5" ry="2.5" style="stroke:#0A9EFD;stroke-width:2.0;" width="42.6667" x="373.8333" y="25.3105"/><path d="M381.8333,32.3105 L381.8333,45.6439 L395.1667,45.6439 L395.1667,32.3105 L381.8333,32.3105 M398.5,38.9772 L398.5,48.9772 L388.5,48.9772 L388.5,52.3105 L401.8333,52.3105 L401.8333,38.9772 L398.5,38.9772 M405.1667,45.6439 L405.1667,55.6439 L395.1667,55.6439 L395.1667,58.9772 L408.5,58.9772 L408.5,45.6439 L405.1667,45.6439 " fill="#0A9EFD" style="stroke:;stroke-width:0.0;stroke-dasharray:;"/><rect fill="none" height="40.6667" rx="2.5" ry="2.5" style="stroke:#0A9EFD;stroke-width:2.0;" width="42.6667" x="373.8333" y="734.8493"/><path d="M381.8333,741.8493 L381.8333,755.1826 L395.1667,755.1826 L395.1667,741.8493 L381.8333,741.8493 M398.5,748.516 L398.5,758.516 L388.5,758.516 L388.5,761.8493 L401.8333,761.8493 L401.8333,748.516 L398.5,748.516 M405.1667,755.1826 L405.1667,765.1826 L395.1667,765.1826 L395.1667,768.516 L408.5,768.516 L408.5,755.1826 L405.1667,755.1826 " fill="#0A9EFD" style="stroke:;stroke-width:0.0;stroke-dasharray:;"/><rect fill="none" height="40.6667" rx="2.5" ry="2.5" style="stroke:#0A9EFD;stroke-width:2.0;" width="42.6667" x="744.6667" y="25.3105"/><path d="M753.8,32.3105 C753.2,32.3105 752.6667,32.8439 752.6667,33.4439 L752.6667,57.8105 C752.6667,58.4105 753.2,58.9439 753.8,58.9439 L774.8333,58.9439 C775.4333,58.9439 775.9667,58.4105 775.9667,57.8105 L775.9667,33.4439 C775.9667,32.8439 775.4333,32.3105 774.8333,32.3105 L753.8,32.3105 M756,35.6439 L772.6667,35.6439 L772.6667,52.3105 L756,52.3105 L756,35.6439 M764.3333,53.9772 C765.6,53.9772 766.4333,55.3772 765.8,56.4772 C765.1667,57.5772 763.5333,57.5772 762.8667,56.4772 C762.2333,55.3772 763.0333,53.9772 764.3333,53.9772 " fill="#0A9EFD" style="stroke:;stroke-width:0.0;stroke-dasharray:;"/><rect fill="none" height="40.6667" rx="2.5" ry="2.5" style="stroke:#0A9EFD;stroke-width:2.0;" width="42.6667" x="744.6667" y="734.8493"/><path d="M753.8,741.8493 C753.2,741.8493 752.6667,742.3826 752.6667,742.9826 L752.6667,767.3493 C752.6667,767.9493 753.2,768.4826 753.8,768.4826 L774.8333,768.4826 C775.4333,768.4826 775.9667,767.9493 775.9667,767.3493 L775.9667,742.9826 C775.9667,742.3826 775.4333,741.8493 774.8333,741.8493 L753.8,741.8493 M756,745.1826 L772.6667,745.1826 L772.6667,761.8493 L756,761.8493 L756,745.1826 M764.3333,763.516 C765.6,763.516 766.4333,764.916 765.8,766.016 C765.1667,767.116 763.5333,767.116 762.8667,766.016 C762.2333,764.916 763.0333,763.516 764.3333,763.516 " fill="#0A9EFD" style="stroke:;stroke-width:0.0;stroke-dasharray:;"/><path d="M10,83.9772 L217,83.9772 L217,90.9259 L207,100.9259 L10,100.9259 L10,83.9772 " fill="#EEEEEE" style="stroke:#0A9EFD;stroke-width:1.5;"/><rect fill="none" height="74.8462" style="stroke:#0A9EFD;stroke-width:2.0;" width="787.3333" x="10" y="83.9772"/><text fill="#000000" font-family="Arial" font-size="13" lengthAdjust="spacing" textLength="162" x="25" y="97.1711">Initialize AgoraRtcEngineKit</text><polygon fill="#0A9EFD" points="383.1667,117.8747,393.1667,121.8747,383.1667,125.8747,387.1667,121.8747" style="stroke:#0A9EFD;stroke-width:1.0;"/><line style="stroke:#0A9EFD;stroke-width:2.0;" x1="41.3333" x2="389.1667" y1="121.8747" y2="121.8747"/><text fill="#0A9EFD" font-family="Arial" font-size="13" lengthAdjust="spacing" textLength="139" x="148.75" y="117.1198">sharedEngineWithAppId</text><polygon fill="#0A9EFD" points="406.1667,146.8234,396.1667,150.8234,406.1667,154.8234,402.1667,150.8234" style="stroke:#0A9EFD;stroke-width:1.0;"/><line style="stroke:#0A9EFD;stroke-width:2.0;" x1="400.1667" x2="765" y1="150.8234" y2="150.8234"/><text fill="#0A9EFD" font-family="Arial" font-size="13" lengthAdjust="spacing" textLength="139" x="511.0833" y="146.0685">sharedEngineWithAppId</text><path d="M10,172.8234 L136,172.8234 L136,179.7721 L126,189.7721 L10,189.7721 L10,172.8234 " fill="#EEEEEE" style="stroke:#0A9EFD;stroke-width:1.5;"/><rect fill="none" height="103.7949" style="stroke:#0A9EFD;stroke-width:2.0;" width="416.5" x="10" y="172.8234"/><text fill="#000000" font-family="Arial" font-size="13" lengthAdjust="spacing" textLength="81" x="25" y="186.0173">Set local view</text><polygon fill="#0A9EFD" points="383.1667,206.7209,393.1667,210.7209,383.1667,214.7209,387.1667,210.7209" style="stroke:#0A9EFD;stroke-width:1.0;"/><line style="stroke:#0A9EFD;stroke-width:2.0;" x1="41.3333" x2="389.1667" y1="210.7209" y2="210.7209"/><text fill="#0A9EFD" font-family="Arial" font-size="13" lengthAdjust="spacing" textLength="71" x="182.75" y="205.966">enableVideo</text><polygon fill="#0A9EFD" points="383.1667,235.6696,393.1667,239.6696,383.1667,243.6696,387.1667,239.6696" style="stroke:#0A9EFD;stroke-width:1.0;"/><line style="stroke:#0A9EFD;stroke-width:2.0;" x1="41.3333" x2="389.1667" y1="239.6696" y2="239.6696"/><text fill="#0A9EFD" font-family="Arial" font-size="13" lengthAdjust="spacing" textLength="72" x="182.25" y="234.9147">startPreview</text><polygon fill="#0A9EFD" points="383.1667,264.6183,393.1667,268.6183,383.1667,272.6183,387.1667,268.6183" style="stroke:#0A9EFD;stroke-width:1.0;"/><line style="stroke:#0A9EFD;stroke-width:2.0;" x1="41.3333" x2="389.1667" y1="268.6183" y2="268.6183"/><text fill="#0A9EFD" font-family="Arial" font-size="13" lengthAdjust="spacing" textLength="96" x="170.25" y="263.8634">setupLocalVideo</text><path d="M10,290.6183 L241,290.6183 L241,297.5671 L231,307.5671 L10,307.5671 L10,290.6183 " fill="#EEEEEE" style="stroke:#0A9EFD;stroke-width:1.5;"/><rect fill="none" height="132.7437" style="stroke:#0A9EFD;stroke-width:2.0;" width="787.3333" x="10" y="290.6183"/><text fill="#000000" font-family="Arial" font-size="13" lengthAdjust="spacing" textLength="186" x="25" y="303.8122">Configure ChannelMediaOptions</text><polygon fill="#0A9EFD" points="383.1667,324.5158,393.1667,328.5158,383.1667,332.5158,387.1667,328.5158" style="stroke:#0A9EFD;stroke-width:1.0;"/><line style="stroke:#0A9EFD;stroke-width:2.0;" x1="41.3333" x2="389.1667" y1="328.5158" y2="328.5158"/><text fill="#0A9EFD" font-family="Arial" font-size="13" lengthAdjust="spacing" textLength="308" x="64.25" y="323.7609">channelProfile(AgoraChannelProfileLiveBroadcasting)</text><polygon fill="#0A9EFD" points="406.1667,353.4645,396.1667,357.4645,406.1667,361.4645,402.1667,357.4645" style="stroke:#0A9EFD;stroke-width:1.0;"/><line style="stroke:#0A9EFD;stroke-width:2.0;" x1="400.1667" x2="765" y1="357.4645" y2="357.4645"/><text fill="#0A9EFD" font-family="Arial" font-size="13" lengthAdjust="spacing" textLength="308" x="426.5833" y="352.7096">channelProfile(AgoraChannelProfileLiveBroadcasting)</text><polygon fill="#0A9EFD" points="383.1667,382.4132,393.1667,386.4132,383.1667,390.4132,387.1667,386.4132" style="stroke:#0A9EFD;stroke-width:1.0;"/><line style="stroke:#0A9EFD;stroke-width:2.0;" x1="41.3333" x2="389.1667" y1="386.4132" y2="386.4132"/><text fill="#0A9EFD" font-family="Arial" font-size="13" lengthAdjust="spacing" textLength="257" x="89.75" y="381.6584">clientRoleType(AgoraClientRoleBroadcaster)</text><polygon fill="#0A9EFD" points="406.1667,411.362,396.1667,415.362,406.1667,419.362,402.1667,415.362" style="stroke:#0A9EFD;stroke-width:1.0;"/><line style="stroke:#0A9EFD;stroke-width:2.0;" x1="400.1667" x2="765" y1="415.362" y2="415.362"/><text fill="#0A9EFD" font-family="Arial" font-size="13" lengthAdjust="spacing" textLength="241" x="460.0833" y="410.6071">clientRoleType(AgoraClientRoleAudience)</text><path d="M10,437.362 L139,437.362 L139,444.3107 L129,454.3107 L10,454.3107 L10,437.362 " fill="#EEEEEE" style="stroke:#0A9EFD;stroke-width:1.5;"/><rect fill="none" height="132.7437" style="stroke:#0A9EFD;stroke-width:2.0;" width="787.3333" x="10" y="437.362"/><text fill="#000000" font-family="Arial" font-size="13" lengthAdjust="spacing" textLength="84" x="25" y="450.5558">Join a channel</text><polygon fill="#0A9EFD" points="383.1667,471.2594,393.1667,475.2594,383.1667,479.2594,387.1667,475.2594" style="stroke:#0A9EFD;stroke-width:1.0;"/><line style="stroke:#0A9EFD;stroke-width:2.0;" x1="41.3333" x2="389.1667" y1="475.2594" y2="475.2594"/><text fill="#0A9EFD" font-family="Arial" font-size="13" lengthAdjust="spacing" textLength="154" x="141.25" y="470.5046">joinChannel(demoChannel)</text><polygon fill="#0A9EFD" points="754,500.2082,764,504.2082,754,508.2082,758,504.2082" style="stroke:#0A9EFD;stroke-width:1.0;"/><line style="stroke:#0A9EFD;stroke-width:2.0;stroke-dasharray:2.0,2.0;" x1="395.1667" x2="760" y1="504.2082" y2="504.2082"/><text fill="#0A9EFD" font-family="Arial" font-size="13" lengthAdjust="spacing" textLength="121" x="520.0833" y="499.4533">didJoinChannel(host)</text><polygon fill="#0A9EFD" points="406.1667,529.1569,396.1667,533.1569,406.1667,537.1569,402.1667,533.1569" style="stroke:#0A9EFD;stroke-width:1.0;"/><line style="stroke:#0A9EFD;stroke-width:2.0;" x1="400.1667" x2="765" y1="533.1569" y2="533.1569"/><text fill="#0A9EFD" font-family="Arial" font-size="13" lengthAdjust="spacing" textLength="154" x="503.5833" y="528.402">joinChannel(demoChannel)</text><polygon fill="#0A9EFD" points="52.3333,558.1056,42.3333,562.1056,52.3333,566.1056,48.3333,562.1056" style="stroke:#0A9EFD;stroke-width:1.0;"/><line style="stroke:#0A9EFD;stroke-width:2.0;stroke-dasharray:2.0,2.0;" x1="46.3333" x2="394.1667" y1="562.1056" y2="562.1056"/><text fill="#0A9EFD" font-family="Arial" font-size="13" lengthAdjust="spacing" textLength="148" x="144.25" y="557.3507">didJoinChannel(audience)</text><path d="M363.8333,584.1056 L520.8333,584.1056 L520.8333,591.0544 L510.8333,601.0544 L363.8333,601.0544 L363.8333,584.1056 " fill="#EEEEEE" style="stroke:#0A9EFD;stroke-width:1.5;"/><rect fill="none" height="45.8975" style="stroke:#0A9EFD;stroke-width:2.0;" width="433.5" x="363.8333" y="584.1056"/><text fill="#000000" font-family="Arial" font-size="13" lengthAdjust="spacing" textLength="112" x="378.8333" y="597.2995">Set up remote view</text><polygon fill="#0A9EFD" points="406.1667,618.0031,396.1667,622.0031,406.1667,626.0031,402.1667,622.0031" style="stroke:#0A9EFD;stroke-width:1.0;"/><line style="stroke:#0A9EFD;stroke-width:2.0;" x1="400.1667" x2="765" y1="622.0031" y2="622.0031"/><text fill="#0A9EFD" font-family="Arial" font-size="13" lengthAdjust="spacing" textLength="110" x="525.5833" y="617.2482">setupRemoteVideo</text><path d="M10,644.0031 L242,644.0031 L242,650.9518 L232,660.9518 L10,660.9518 L10,644.0031 " fill="#EEEEEE" style="stroke:#0A9EFD;stroke-width:1.5;"/><rect fill="none" height="74.8462" style="stroke:#0A9EFD;stroke-width:2.0;" width="787.3333" x="10" y="644.0031"/><text fill="#000000" font-family="Arial" font-size="13" lengthAdjust="spacing" textLength="187" x="25" y="657.1969">Start audio and video interaction</text><polygon fill="#0A9EFD" points="754,677.9006,764,681.9006,754,685.9006,758,681.9006" style="stroke:#0A9EFD;stroke-width:1.0;"/><line style="stroke:#0A9EFD;stroke-width:2.0;stroke-dasharray:2.0,2.0;" x1="395.1667" x2="760" y1="681.9006" y2="681.9006"/><text fill="#0A9EFD" font-family="Arial" font-size="13" lengthAdjust="spacing" textLength="142" x="509.5833" y="677.1457">Receive audio and video</text><polygon fill="#0A9EFD" points="383.1667,706.8493,393.1667,710.8493,383.1667,714.8493,387.1667,710.8493" style="stroke:#0A9EFD;stroke-width:1.0;"/><line style="stroke:#0A9EFD;stroke-width:2.0;stroke-dasharray:2.0,2.0;" x1="41.3333" x2="389.1667" y1="710.8493" y2="710.8493"/><text fill="#0A9EFD" font-family="Arial" font-size="13" lengthAdjust="spacing" textLength="125" x="155.75" y="706.0944">Send audio and video</text><!--SRC=[dLDBJnin4BxlhvZcWCWXY0EdA8gK1YIU0cKfFLQ3FMm6ZBsolMdfh-zuDqlZf0N4QLUU-HwU-Vo5hJAD9i3AUVmHdjWUSFDiYkBU_OB1hAx7SEf271Gr-iYAQxGH1fF0lsbyT3YTx4MyDnId0y00f-LjGLQ3ODS4Twp9GNbyyNy2Wo_aGqSWZLi4hODPevciee-vc7qx_ajIUTVKS6OvCXffXrcww2Ag4rknfGkEXRY6qJHfZo4iqPFkQjyvBaN-J1V2-4w7wFLQ9KKmJg615TFFZ9riijdE95UDSgqRJpk0GB6fBnDP1zgGcJlxm5NZ2UPBj9RC5Md6wpgoio4ZKLtznhi7DhJV3c2UdLtoYhvwXrfXY6ohONRZp-0pVIFBYmjdwFQbxl6lPwyuybkoRyBwI0mtPtBks0BsXZCJZr9QczxNzEpM_yD2gZ2IBf4UWsPzlj6ubEJdfjwb4SqT6loNrnGJ-NWXYTH59OjPsloYBUwilannWSJg02Neg_QHiPKHeahxRvacer57jI15ig1jG3UUNgzCBsQx8sd-0G00]--></g></svg>