<svg xmlns="http://www.w3.org/2000/svg" xmlns:xlink="http://www.w3.org/1999/xlink" contentStyleType="text/css" data-diagram-type="SEQUENCE" height="472px" preserveAspectRatio="none" style="width:544px;height:472px;" version="1.1" viewBox="0 0 544 472" width="544px" zoomAndPan="magnify"><defs/><g><rect fill="none" height="470.0697" style="stroke:#0A9EFD;stroke-width:1;" width="542.0034" x="0" y="0"/><rect fill="#999999" fill-opacity="0.33333" height="460.0697" style="stroke:#0A9EFD;stroke-width:0.5;" width="50.6667" x="1" y="6"/><text fill="#0A9EFD" font-family="sans-serif" font-size="13" font-weight="bold" lengthAdjust="spacing" textLength="28.9072" x="11.8797" y="19.4951">User</text><rect fill="#999999" fill-opacity="0.33333" height="460.0697" style="stroke:#0A9EFD;stroke-width:0.5;" width="50.6667" x="159.4243" y="6"/><text fill="#0A9EFD" font-family="sans-serif" font-size="13" font-weight="bold" lengthAdjust="spacing" textLength="25.27" x="172.1226" y="19.4951">App</text><rect fill="#999999" fill-opacity="0.33333" height="460.0697" style="stroke:#0A9EFD;stroke-width:0.5;" width="101.5259" x="436.4775" y="6"/><text fill="#0A9EFD" font-family="sans-serif" font-size="13" font-weight="bold" lengthAdjust="spacing" textLength="95.5259" x="439.4775" y="19.4951">Agora SDRTN&#174;</text><rect fill="#0A9EFD" fill-opacity="0.06667" height="188.6411" style="stroke:#0A9EFD;stroke-width:2;" width="365.1495" x="153.4243" y="113.967"/><g><title>&lt;size:40&gt;&lt;&amp;person&gt;</title><rect fill="#000000" fill-opacity="0.00000" height="353.3848" width="8" x="22.3333" y="68.0182"/><line style="stroke:#0A9EFD;stroke-width:0.5;stroke-dasharray:5.0,5.0;" x1="26" x2="26" y1="68.0182" y2="421.403"/></g><g><title>&lt;size:40&gt;&lt;&amp;tablet&gt;</title><rect fill="#000000" fill-opacity="0.00000" height="353.3848" width="8" x="180.7576" y="68.0182"/><line style="stroke:#0A9EFD;stroke-width:0.5;stroke-dasharray:5.0,5.0;" x1="184.4243" x2="184.4243" y1="68.0182" y2="421.403"/></g><g><title>&lt;size:40&gt;&lt;&amp;cloud&gt;</title><rect fill="#000000" fill-opacity="0.00000" height="353.3848" width="8" x="483.2405" y="68.0182"/><line style="stroke:#0A9EFD;stroke-width:0.5;stroke-dasharray:5.0,5.0;" x1="486.9071" x2="486.9071" y1="68.0182" y2="421.403"/></g><g class="participant participant-head" data-participant="USR"><rect fill="none" height="40.6667" rx="2.5" ry="2.5" style="stroke:#0A9EFD;stroke-width:2;" width="42.6667" x="5" y="26.3516"/><path d="M26.3333,33.3516 C22.6667,33.3516 19.6667,37.0849 19.6667,41.6849 C19.6667,46.2849 22.6667,50.0182 26.3333,50.0182 C30,50.0182 33,46.2849 33,41.6849 C33,37.0849 30,33.3516 26.3333,33.3516 M19.3667,50.0182 C15.8333,50.1849 13,53.0849 13,56.6849 L13,60.0182 L39.6667,60.0182 L39.6667,56.6849 C39.6667,53.0849 36.8667,50.1849 33.3,50.0182 C31.5,52.0516 29.0333,53.3516 26.3333,53.3516 C23.6333,53.3516 21.1667,52.0516 19.3667,50.0182" fill="#0A9EFD"/></g><g class="participant participant-tail" data-participant="USR"><rect fill="none" height="40.6667" rx="2.5" ry="2.5" style="stroke:#0A9EFD;stroke-width:2;" width="42.6667" x="5" y="420.403"/><path d="M26.3333,427.403 C22.6667,427.403 19.6667,431.1363 19.6667,435.7363 C19.6667,440.3363 22.6667,444.0697 26.3333,444.0697 C30,444.0697 33,440.3363 33,435.7363 C33,431.1363 30,427.403 26.3333,427.403 M19.3667,444.0697 C15.8333,444.2363 13,447.1363 13,450.7363 L13,454.0697 L39.6667,454.0697 L39.6667,450.7363 C39.6667,447.1363 36.8667,444.2363 33.3,444.0697 C31.5,446.103 29.0333,447.403 26.3333,447.403 C23.6333,447.403 21.1667,446.103 19.3667,444.0697" fill="#0A9EFD"/></g><g class="participant participant-head" data-participant="APP"><rect fill="none" height="40.6667" rx="2.5" ry="2.5" style="stroke:#0A9EFD;stroke-width:2;" width="42.6667" x="163.4243" y="26.3516"/><path d="M172.5576,33.3516 C171.9576,33.3516 171.4243,33.8849 171.4243,34.4849 L171.4243,58.8516 C171.4243,59.4516 171.9576,59.9849 172.5576,59.9849 L193.591,59.9849 C194.191,59.9849 194.7243,59.4516 194.7243,58.8516 L194.7243,34.4849 C194.7243,33.8849 194.191,33.3516 193.591,33.3516 L172.5576,33.3516 M174.7576,36.6849 L191.4243,36.6849 L191.4243,53.3516 L174.7576,53.3516 L174.7576,36.6849 M183.091,55.0182 C184.3576,55.0182 185.191,56.4182 184.5576,57.5182 C183.9243,58.6182 182.291,58.6182 181.6243,57.5182 C180.991,56.4182 181.791,55.0182 183.091,55.0182" fill="#0A9EFD"/></g><g class="participant participant-tail" data-participant="APP"><rect fill="none" height="40.6667" rx="2.5" ry="2.5" style="stroke:#0A9EFD;stroke-width:2;" width="42.6667" x="163.4243" y="420.403"/><path d="M172.5576,427.403 C171.9576,427.403 171.4243,427.9363 171.4243,428.5363 L171.4243,452.903 C171.4243,453.503 171.9576,454.0363 172.5576,454.0363 L193.591,454.0363 C194.191,454.0363 194.7243,453.503 194.7243,452.903 L194.7243,428.5363 C194.7243,427.9363 194.191,427.403 193.591,427.403 L172.5576,427.403 M174.7576,430.7363 L191.4243,430.7363 L191.4243,447.403 L174.7576,447.403 L174.7576,430.7363 M183.091,449.0697 C184.3576,449.0697 185.191,450.4697 184.5576,451.5697 C183.9243,452.6697 182.291,452.6697 181.6243,451.5697 C180.991,450.4697 181.791,449.0697 183.091,449.0697" fill="#0A9EFD"/></g><g class="participant participant-head" data-participant="RTN"><rect fill="none" height="40.6667" rx="2.5" ry="2.5" style="stroke:#0A9EFD;stroke-width:2;" width="42.6667" x="465.9071" y="26.3516"/><path d="M488.9071,36.6849 C484.8738,36.6849 481.3405,39.5516 480.5738,43.3516 C476.9071,43.3516 473.9071,46.3516 473.9071,50.0182 C473.9071,53.6849 476.9071,56.6849 480.5738,56.6849 L495.5738,56.6849 C498.3405,56.6849 500.5738,54.4516 500.5738,51.6849 C500.5738,49.5182 499.1738,47.3849 497.2405,46.6849 L497.2405,45.0182 C497.2405,40.4182 493.5071,36.6849 488.9071,36.6849" fill="#0A9EFD"/></g><g class="participant participant-tail" data-participant="RTN"><rect fill="none" height="40.6667" rx="2.5" ry="2.5" style="stroke:#0A9EFD;stroke-width:2;" width="42.6667" x="465.9071" y="420.403"/><path d="M488.9071,430.7363 C484.8738,430.7363 481.3405,433.603 480.5738,437.403 C476.9071,437.403 473.9071,440.403 473.9071,444.0697 C473.9071,447.7363 476.9071,450.7363 480.5738,450.7363 L495.5738,450.7363 C498.3405,450.7363 500.5738,448.503 500.5738,445.7363 C500.5738,443.5697 499.1738,441.4363 497.2405,440.7363 L497.2405,439.0697 C497.2405,434.4697 493.5071,430.7363 488.9071,430.7363" fill="#0A9EFD"/></g><g class="message" data-participant-1="USR" data-participant-2="APP"><polygon fill="#0A9EFD" points="172.7576,94.967,182.7576,98.967,172.7576,102.967,176.7576,98.967" style="stroke:#0A9EFD;stroke-width:1;"/><line style="stroke:#0A9EFD;stroke-width:2;" x1="26.3333" x2="178.7576" y1="98.967" y2="98.967"/><text fill="#0A9EFD" font-family="Arial" font-size="13" lengthAdjust="spacing" textLength="74.439" x="68.326" y="94.2121">Start the app</text></g><path d="M153.4243,113.967 L319.8042,113.967 L319.8042,120.9157 L309.8042,130.9157 L153.4243,130.9157 L153.4243,113.967" fill="#EEEEEE" style="stroke:#0A9EFD;stroke-width:1.5;"/><rect fill="none" height="188.6411" style="stroke:#0A9EFD;stroke-width:2;" width="365.1495" x="153.4243" y="113.967"/><text fill="#000000" font-family="Arial" font-size="13" lengthAdjust="spacing" textLength="121.3799" x="168.4243" y="127.1608">Restrict media zones</text><g class="message" data-participant-1="APP" data-participant-2="APP"><line style="stroke:#0A9EFD;stroke-width:2;" x1="184.7576" x2="226.7576" y1="166.8132" y2="166.8132"/><line style="stroke:#0A9EFD;stroke-width:2;" x1="226.7576" x2="226.7576" y1="166.8132" y2="179.8132"/><line style="stroke:#0A9EFD;stroke-width:2;" x1="185.7576" x2="226.7576" y1="179.8132" y2="179.8132"/><polygon fill="#0A9EFD" points="195.7576,175.8132,185.7576,179.8132,195.7576,183.8132,191.7576,179.8132" style="stroke:#0A9EFD;stroke-width:1;"/><text fill="#0A9EFD" font-family="Arial" font-size="13" lengthAdjust="spacing" textLength="196.5869" x="224.9908" y="147.1095">Set areaCode in the Agora engine</text><text fill="#0A9EFD" font-family="Arial" font-size="13" lengthAdjust="spacing" textLength="259.4414" x="195.3695" y="162.0583">configuration to include/exclude media zones</text></g><g class="message" data-participant-1="APP" data-participant-2="APP"><line style="stroke:#0A9EFD;stroke-width:2;" x1="184.7576" x2="226.7576" y1="208.7619" y2="208.7619"/><line style="stroke:#0A9EFD;stroke-width:2;" x1="226.7576" x2="226.7576" y1="208.7619" y2="221.7619"/><line style="stroke:#0A9EFD;stroke-width:2;" x1="185.7576" x2="226.7576" y1="221.7619" y2="221.7619"/><polygon fill="#0A9EFD" points="195.7576,217.7619,185.7576,221.7619,195.7576,225.7619,191.7576,221.7619" style="stroke:#0A9EFD;stroke-width:1;"/><text fill="#0A9EFD" font-family="Arial" font-size="13" lengthAdjust="spacing" textLength="149.6016" x="191.7576" y="204.007">Initialize the Agora engine</text></g><g class="message" data-participant-1="APP" data-participant-2="RTN"><polygon fill="#0A9EFD" points="475.2405,261.6593,485.2405,265.6593,475.2405,269.6593,479.2405,265.6593" style="stroke:#0A9EFD;stroke-width:1;"/><line style="stroke:#0A9EFD;stroke-width:2;" x1="184.7576" x2="481.2405" y1="265.6593" y2="265.6593"/><text fill="#0A9EFD" font-family="Arial" font-size="13" lengthAdjust="spacing" textLength="156.2539" x="257.8721" y="245.9557">Connect to SDRTN&#174; in the</text><text fill="#0A9EFD" font-family="Arial" font-size="13" lengthAdjust="spacing" textLength="137.2871" x="269.1614" y="260.9045">specified media zone(s)</text></g><g class="message" data-participant-1="RTN" data-participant-2="APP"><polygon fill="#0A9EFD" points="195.7576,290.6081,185.7576,294.6081,195.7576,298.6081,191.7576,294.6081" style="stroke:#0A9EFD;stroke-width:1;"/><line style="stroke:#0A9EFD;stroke-width:2;" x1="189.7576" x2="486.2405" y1="294.6081" y2="294.6081"/><text fill="#0A9EFD" font-family="Arial" font-size="13" lengthAdjust="spacing" textLength="106.2217" x="282.8882" y="289.8532">Success response</text></g><g class="message" data-participant-1="USR" data-participant-2="APP"><polygon fill="#0A9EFD" points="172.7576,326.5568,182.7576,330.5568,172.7576,334.5568,176.7576,330.5568" style="stroke:#0A9EFD;stroke-width:1;"/><line style="stroke:#0A9EFD;stroke-width:2;" x1="26.3333" x2="178.7576" y1="330.5568" y2="330.5568"/><text fill="#0A9EFD" font-family="Arial" font-size="13" lengthAdjust="spacing" textLength="134.4243" x="38.3333" y="325.8019">Select a channel to join</text></g><g class="message" data-participant-1="APP" data-participant-2="RTN"><polygon fill="#0A9EFD" points="475.2405,370.4543,485.2405,374.4543,475.2405,378.4543,479.2405,374.4543" style="stroke:#0A9EFD;stroke-width:1;"/><line style="stroke:#0A9EFD;stroke-width:2;" x1="184.7576" x2="481.2405" y1="374.4543" y2="374.4543"/><text fill="#0A9EFD" font-family="Arial" font-size="13" lengthAdjust="spacing" textLength="139.4707" x="264.4578" y="354.7507">Join a channel with user</text><text fill="#0A9EFD" font-family="Arial" font-size="13" lengthAdjust="spacing" textLength="164.0615" x="253.9683" y="369.6994">Id, channel name, and token</text></g><g class="message" data-participant-1="RTN" data-participant-2="APP"><polygon fill="#0A9EFD" points="195.7576,399.403,185.7576,403.403,195.7576,407.403,191.7576,403.403" style="stroke:#0A9EFD;stroke-width:1;"/><line style="stroke:#0A9EFD;stroke-width:2;" x1="189.7576" x2="486.2405" y1="403.403" y2="403.403"/><text fill="#0A9EFD" font-family="Arial" font-size="13" lengthAdjust="spacing" textLength="80.2217" x="295.8882" y="398.6481">Join accepted</text></g><!--SRC=[TLBDJW8n4BxtASOz64tmv-2941A25pmO0d8ZCKDtM4QMQTDs8-6XV0YVp5btbRzmdNp_xHMBBQkS00iNy3skMUwvsfJ6BDmMibcaa1cF8R5bZv8WwqNUKVVfiT-xzXIYatu6664sdHYI79JMSWVUNwOcN9IK6kfWF3wbrc5W-ZnvU_t-kYnYIrVbZOOYzngQ1UxwjMuNfad9a5RQq7jZYk0g3nEAAR1DiA6S4NPEA1g5xrcK00FXqEaqBB_y9XH9mK9p0UjaoKKLCB5JW8DsoGVQDejUqXu99yPIMvp9_k6qJHU6JeGqeqgtIxH9r3nwihnaoWzSRkAjKTY-GsKjnGY1edSIgTxdP1igQmC4kqBrAckh3yTo5ED53mUGJquhgFHRm5n6UUV_BhYX3g0-GN9hagCaZOIcyOboymC0]--></g></svg>