<?xml version="1.0" encoding="us-ascii" standalone="no"?><svg xmlns="http://www.w3.org/2000/svg" xmlns:xlink="http://www.w3.org/1999/xlink" contentStyleType="text/css" height="284px" preserveAspectRatio="none" style="width:643px;height:284px;" version="1.1" viewBox="0 0 643 284" width="643px" zoomAndPan="magnify"><defs/><g><rect fill="none" height="282.3875" style="stroke:#0A9EFD;stroke-width:1.0;" width="641.6667" x="0" y="0"/><rect fill="#999999" fill-opacity="0.33333" height="272.3875" style="stroke:#0A9EFD;stroke-width:0.5;" width="128" x="1" y="6"/><text fill="#0A9EFD" font-family="sans-serif" font-size="13" font-weight="bold" lengthAdjust="spacing" textLength="122" x="4" y="18.5684">Extension process</text><rect fill="#999999" fill-opacity="0.33333" height="272.3875" style="stroke:#0A9EFD;stroke-width:0.5;" width="95" x="289.3333" y="6"/><text fill="#0A9EFD" font-family="sans-serif" font-size="13" font-weight="bold" lengthAdjust="spacing" textLength="89" x="292.3333" y="18.5684">Main process</text><rect fill="#999999" fill-opacity="0.33333" height="272.3875" style="stroke:#0A9EFD;stroke-width:0.5;" width="104" x="533.6667" y="6"/><text fill="#0A9EFD" font-family="sans-serif" font-size="13" font-weight="bold" lengthAdjust="spacing" textLength="98" x="536.6667" y="18.5684">Agora SD-RTN</text><rect fill="#0A9EFD" fill-opacity="0.06667" height="132.7437" style="stroke:#0A9EFD;stroke-width:2.0;" width="583.3333" x="33.6667" y="83.9772"/><line style="stroke:#0A9EFD;stroke-width:0.5;stroke-dasharray:5.0,5.0;" x1="64.6667" x2="64.6667" y1="66.9772" y2="233.7209"/><line style="stroke:#0A9EFD;stroke-width:0.5;stroke-dasharray:5.0,5.0;" x1="336.5" x2="336.5" y1="66.9772" y2="233.7209"/><line style="stroke:#0A9EFD;stroke-width:0.5;stroke-dasharray:5.0,5.0;" x1="585.3333" x2="585.3333" y1="66.9772" y2="233.7209"/><rect fill="none" height="40.6667" rx="2.5" ry="2.5" style="stroke:#0A9EFD;stroke-width:2.0;" width="42.6667" x="43.6667" y="25.3105"/><path d="M61.6667,32.3105 L61.6667,42.3105 L51.6667,42.3105 L51.6667,48.9772 L61.6667,48.9772 L61.6667,58.9772 L68.3333,58.9772 L68.3333,48.9772 L78.3333,48.9772 L78.3333,42.3105 L68.3333,42.3105 L68.3333,32.3105 L61.6667,32.3105 " fill="#0A9EFD" style="stroke:;stroke-width:0.0;stroke-dasharray:;"/><rect fill="none" height="40.6667" rx="2.5" ry="2.5" style="stroke:#0A9EFD;stroke-width:2.0;" width="42.6667" x="43.6667" y="232.7209"/><path d="M61.6667,239.7209 L61.6667,249.7209 L51.6667,249.7209 L51.6667,256.3875 L61.6667,256.3875 L61.6667,266.3875 L68.3333,266.3875 L68.3333,256.3875 L78.3333,256.3875 L78.3333,249.7209 L68.3333,249.7209 L68.3333,239.7209 L61.6667,239.7209 " fill="#0A9EFD" style="stroke:;stroke-width:0.0;stroke-dasharray:;"/><rect fill="none" height="40.6667" rx="2.5" ry="2.5" style="stroke:#0A9EFD;stroke-width:2.0;" width="42.6667" x="315.5" y="25.3105"/><path d="M323.5,32.3105 L323.5,45.6439 L336.8333,45.6439 L336.8333,32.3105 L323.5,32.3105 M340.1667,38.9772 L340.1667,48.9772 L330.1667,48.9772 L330.1667,52.3105 L343.5,52.3105 L343.5,38.9772 L340.1667,38.9772 M346.8333,45.6439 L346.8333,55.6439 L336.8333,55.6439 L336.8333,58.9772 L350.1667,58.9772 L350.1667,45.6439 L346.8333,45.6439 " fill="#0A9EFD" style="stroke:;stroke-width:0.0;stroke-dasharray:;"/><rect fill="none" height="40.6667" rx="2.5" ry="2.5" style="stroke:#0A9EFD;stroke-width:2.0;" width="42.6667" x="315.5" y="232.7209"/><path d="M323.5,239.7209 L323.5,253.0542 L336.8333,253.0542 L336.8333,239.7209 L323.5,239.7209 M340.1667,246.3875 L340.1667,256.3875 L330.1667,256.3875 L330.1667,259.7209 L343.5,259.7209 L343.5,246.3875 L340.1667,246.3875 M346.8333,253.0542 L346.8333,263.0542 L336.8333,263.0542 L336.8333,266.3875 L350.1667,266.3875 L350.1667,253.0542 L346.8333,253.0542 " fill="#0A9EFD" style="stroke:;stroke-width:0.0;stroke-dasharray:;"/><rect fill="none" height="40.6667" rx="2.5" ry="2.5" style="stroke:#0A9EFD;stroke-width:2.0;" width="42.6667" x="564.3333" y="25.3105"/><path d="M587.3333,32.3105 C583.3,32.3105 579.7667,35.1772 579,38.9772 C575.3333,38.9772 572.3333,41.9772 572.3333,45.6439 C572.3333,49.3105 575.3333,52.3105 579,52.3105 L594,52.3105 C596.7667,52.3105 599,50.0772 599,47.3105 C599,45.1439 597.6,43.0105 595.6667,42.3105 L595.6667,40.6439 C595.6667,36.0439 591.9333,32.3105 587.3333,32.3105 " fill="#0A9EFD" style="stroke:;stroke-width:0.0;stroke-dasharray:;"/><rect fill="none" height="40.6667" rx="2.5" ry="2.5" style="stroke:#0A9EFD;stroke-width:2.0;" width="42.6667" x="564.3333" y="232.7209"/><path d="M587.3333,239.7209 C583.3,239.7209 579.7667,242.5875 579,246.3875 C575.3333,246.3875 572.3333,249.3875 572.3333,253.0542 C572.3333,256.7209 575.3333,259.7209 579,259.7209 L594,259.7209 C596.7667,259.7209 599,257.4875 599,254.7209 C599,252.5542 597.6,250.4209 595.6667,249.7209 L595.6667,248.0542 C595.6667,243.4542 591.9333,239.7209 587.3333,239.7209 " fill="#0A9EFD" style="stroke:;stroke-width:0.0;stroke-dasharray:;"/><path d="M33.6667,83.9772 L165.6667,83.9772 L165.6667,90.9259 L155.6667,100.9259 L33.6667,100.9259 L33.6667,83.9772 " fill="#EEEEEE" style="stroke:#0A9EFD;stroke-width:1.5;"/><rect fill="none" height="132.7437" style="stroke:#0A9EFD;stroke-width:2.0;" width="583.3333" x="33.6667" y="83.9772"/><text fill="#000000" font-family="Arial" font-size="13" lengthAdjust="spacing" textLength="87" x="48.6667" y="97.1711">Screen sharing</text><polygon fill="#0A9EFD" points="76,117.8747,66,121.8747,76,125.8747,72,121.8747" style="stroke:#0A9EFD;stroke-width:1.0;"/><line style="stroke:#0A9EFD;stroke-width:2.0;" x1="70" x2="335.8333" y1="121.8747" y2="121.8747"/><text fill="#0A9EFD" font-family="Arial" font-size="13" lengthAdjust="spacing" textLength="180" x="110.9167" y="117.1198">Send screen sharing command</text><polygon fill="#0A9EFD" points="324.8333,146.8234,334.8333,150.8234,324.8333,154.8234,328.8333,150.8234" style="stroke:#0A9EFD;stroke-width:1.0;"/><line style="stroke:#0A9EFD;stroke-width:2.0;" x1="65" x2="330.8333" y1="150.8234" y2="150.8234"/><text fill="#0A9EFD" font-family="Arial" font-size="13" lengthAdjust="spacing" textLength="187" x="107.4167" y="146.0685">Publish a screen sharing stream</text><polygon fill="#0A9EFD" points="347.8333,175.7721,337.8333,179.7721,347.8333,183.7721,343.8333,179.7721" style="stroke:#0A9EFD;stroke-width:1.0;"/><line style="stroke:#0A9EFD;stroke-width:2.0;" x1="341.8333" x2="584.6667" y1="179.7721" y2="179.7721"/><text fill="#0A9EFD" font-family="Arial" font-size="13" lengthAdjust="spacing" textLength="157" x="382.75" y="175.0173">Subscribe to other streams</text><polygon fill="#0A9EFD" points="573.6667,204.7209,583.6667,208.7209,573.6667,212.7209,577.6667,208.7209" style="stroke:#0A9EFD;stroke-width:1.0;"/><line style="stroke:#0A9EFD;stroke-width:2.0;" x1="336.8333" x2="579.6667" y1="208.7209" y2="208.7209"/><text fill="#0A9EFD" font-family="Arial" font-size="13" lengthAdjust="spacing" textLength="176" x="373.25" y="203.966">Publish screen sharing stream</text><!--SRC=[ZSunQyCm48RXNR_YwY6RIuPE9XW2pP0XeTGPifMpVDX7P4de94ZxwojHbz3GGkTxURvxOAjD6WXmT07VvCBsaTDibEhT5QhTDP8LTXPyS9f4AkKnHDRiqKQeDi8Vr3ojsytAcoHj1IYmEvyKsG6oi307v7y81jyfBCPXkp_U8Tlo8NJFzUlf-3UYZKl3bv6x6p46bpnqEX1Pa0a3sr6LbRhD_pRGbL9-d46xUKOxg1pKRMaRU4czOPa0xrk9WN1MUVCxxLAV6-u9eWCN9mfB9CjkRc_WxrpvNtq2]--></g></svg>