<svg xmlns="http://www.w3.org/2000/svg" xmlns:xlink="http://www.w3.org/1999/xlink" contentStyleType="text/css" data-diagram-type="SEQUENCE" height="561px" preserveAspectRatio="none" style="width:655px;height:561px;" version="1.1" viewBox="0 0 655 561" width="655px" zoomAndPan="magnify"><defs/><g><rect fill="none" height="559.8646" style="stroke:#0A9EFD;stroke-width:1;" width="653.0858" x="0" y="0"/><rect fill="#999999" fill-opacity="0.33333" height="549.8646" style="stroke:#0A9EFD;stroke-width:0.5;" width="50.6667" x="16" y="6"/><text fill="#0A9EFD" font-family="sans-serif" font-size="13" font-weight="bold" lengthAdjust="spacing" textLength="25.27" x="28.6983" y="19.4951">App</text><rect fill="#999999" fill-opacity="0.33333" height="549.8646" style="stroke:#0A9EFD;stroke-width:0.5;" width="63.7764" x="306.646" y="6"/><text fill="#0A9EFD" font-family="sans-serif" font-size="13" font-weight="bold" lengthAdjust="spacing" textLength="57.7764" x="309.646" y="19.4951">RTC SDK</text><rect fill="#999999" fill-opacity="0.33333" height="549.8646" style="stroke:#0A9EFD;stroke-width:0.5;" width="101.5259" x="547.5599" y="6"/><text fill="#0A9EFD" font-family="sans-serif" font-size="13" font-weight="bold" lengthAdjust="spacing" textLength="95.5259" x="550.5599" y="19.4951">Agora SDRTN&#174;</text><rect fill="#0A9EFD" fill-opacity="0.06667" height="409.1797" style="stroke:#0A9EFD;stroke-width:2;" width="619.6562" x="10" y="85.0182"/><g><title>&lt;size:40&gt;&lt;&amp;tablet&gt;</title><rect fill="#000000" fill-opacity="0.00000" height="443.1797" width="8" x="37.3333" y="68.0182"/><line style="stroke:#0A9EFD;stroke-width:0.5;stroke-dasharray:5.0,5.0;" x1="41" x2="41" y1="68.0182" y2="511.1979"/></g><g><title>&lt;size:40&gt;&lt;&amp;layers&gt;</title><rect fill="#000000" fill-opacity="0.00000" height="443.1797" width="8" x="334.5342" y="68.0182"/><line style="stroke:#0A9EFD;stroke-width:0.5;stroke-dasharray:5.0,5.0;" x1="338.2008" x2="338.2008" y1="68.0182" y2="511.1979"/></g><g><title>&lt;size:40&gt;&lt;&amp;cloud&gt;</title><rect fill="#000000" fill-opacity="0.00000" height="443.1797" width="8" x="594.3228" y="68.0182"/><line style="stroke:#0A9EFD;stroke-width:0.5;stroke-dasharray:5.0,5.0;" x1="597.9895" x2="597.9895" y1="68.0182" y2="511.1979"/></g><g class="participant participant-head" data-participant="APP"><rect fill="none" height="40.6667" rx="2.5" ry="2.5" style="stroke:#0A9EFD;stroke-width:2;" width="42.6667" x="20" y="26.3516"/><path d="M29.1333,33.3516 C28.5333,33.3516 28,33.8849 28,34.4849 L28,58.8516 C28,59.4516 28.5333,59.9849 29.1333,59.9849 L50.1667,59.9849 C50.7667,59.9849 51.3,59.4516 51.3,58.8516 L51.3,34.4849 C51.3,33.8849 50.7667,33.3516 50.1667,33.3516 L29.1333,33.3516 M31.3333,36.6849 L48,36.6849 L48,53.3516 L31.3333,53.3516 L31.3333,36.6849 M39.6667,55.0182 C40.9333,55.0182 41.7667,56.4182 41.1333,57.5182 C40.5,58.6182 38.8667,58.6182 38.2,57.5182 C37.5667,56.4182 38.3667,55.0182 39.6667,55.0182" fill="#0A9EFD"/></g><g class="participant participant-tail" data-participant="APP"><rect fill="none" height="40.6667" rx="2.5" ry="2.5" style="stroke:#0A9EFD;stroke-width:2;" width="42.6667" x="20" y="510.1979"/><path d="M29.1333,517.1979 C28.5333,517.1979 28,517.7313 28,518.3313 L28,542.6979 C28,543.2979 28.5333,543.8313 29.1333,543.8313 L50.1667,543.8313 C50.7667,543.8313 51.3,543.2979 51.3,542.6979 L51.3,518.3313 C51.3,517.7313 50.7667,517.1979 50.1667,517.1979 L29.1333,517.1979 M31.3333,520.5313 L48,520.5313 L48,537.1979 L31.3333,537.1979 L31.3333,520.5313 M39.6667,538.8646 C40.9333,538.8646 41.7667,540.2646 41.1333,541.3646 C40.5,542.4646 38.8667,542.4646 38.2,541.3646 C37.5667,540.2646 38.3667,538.8646 39.6667,538.8646" fill="#0A9EFD"/></g><g class="participant participant-head" data-participant="SDK"><rect fill="none" height="40.6667" rx="2.5" ry="2.5" style="stroke:#0A9EFD;stroke-width:2;" width="42.6667" x="317.2008" y="26.3516"/><path d="M325.2008,33.3516 L325.2008,46.6849 L338.5342,46.6849 L338.5342,33.3516 L325.2008,33.3516 M341.8675,40.0182 L341.8675,50.0182 L331.8675,50.0182 L331.8675,53.3516 L345.2008,53.3516 L345.2008,40.0182 L341.8675,40.0182 M348.5342,46.6849 L348.5342,56.6849 L338.5342,56.6849 L338.5342,60.0182 L351.8675,60.0182 L351.8675,46.6849 L348.5342,46.6849" fill="#0A9EFD"/></g><g class="participant participant-tail" data-participant="SDK"><rect fill="none" height="40.6667" rx="2.5" ry="2.5" style="stroke:#0A9EFD;stroke-width:2;" width="42.6667" x="317.2008" y="510.1979"/><path d="M325.2008,517.1979 L325.2008,530.5313 L338.5342,530.5313 L338.5342,517.1979 L325.2008,517.1979 M341.8675,523.8646 L341.8675,533.8646 L331.8675,533.8646 L331.8675,537.1979 L345.2008,537.1979 L345.2008,523.8646 L341.8675,523.8646 M348.5342,530.5313 L348.5342,540.5313 L338.5342,540.5313 L338.5342,543.8646 L351.8675,543.8646 L351.8675,530.5313 L348.5342,530.5313" fill="#0A9EFD"/></g><g class="participant participant-head" data-participant="RTN"><rect fill="none" height="40.6667" rx="2.5" ry="2.5" style="stroke:#0A9EFD;stroke-width:2;" width="42.6667" x="576.9895" y="26.3516"/><path d="M599.9895,36.6849 C595.9562,36.6849 592.4228,39.5516 591.6562,43.3516 C587.9895,43.3516 584.9895,46.3516 584.9895,50.0182 C584.9895,53.6849 587.9895,56.6849 591.6562,56.6849 L606.6562,56.6849 C609.4228,56.6849 611.6562,54.4516 611.6562,51.6849 C611.6562,49.5182 610.2562,47.3849 608.3228,46.6849 L608.3228,45.0182 C608.3228,40.4182 604.5895,36.6849 599.9895,36.6849" fill="#0A9EFD"/></g><g class="participant participant-tail" data-participant="RTN"><rect fill="none" height="40.6667" rx="2.5" ry="2.5" style="stroke:#0A9EFD;stroke-width:2;" width="42.6667" x="576.9895" y="510.1979"/><path d="M599.9895,520.5313 C595.9562,520.5313 592.4228,523.3979 591.6562,527.1979 C587.9895,527.1979 584.9895,530.1979 584.9895,533.8646 C584.9895,537.5313 587.9895,540.5313 591.6562,540.5313 L606.6562,540.5313 C609.4228,540.5313 611.6562,538.2979 611.6562,535.5313 C611.6562,533.3646 610.2562,531.2313 608.3228,530.5313 L608.3228,528.8646 C608.3228,524.2646 604.5895,520.5313 599.9895,520.5313" fill="#0A9EFD"/></g><path d="M10,85.0182 L142.439,85.0182 L142.439,91.967 L132.439,101.967 L10,101.967 L10,85.0182" fill="#EEEEEE" style="stroke:#0A9EFD;stroke-width:1.5;"/><rect fill="none" height="409.1797" style="stroke:#0A9EFD;stroke-width:2;" width="619.6562" x="10" y="85.0182"/><text fill="#000000" font-family="Arial" font-size="13" lengthAdjust="spacing" textLength="87.439" x="25" y="98.2121">Screen sharing</text><g class="message" data-participant-1="APP" data-participant-2="SDK"><polygon fill="#0A9EFD" points="326.5342,118.9157,336.5342,122.9157,326.5342,126.9157,330.5342,122.9157" style="stroke:#0A9EFD;stroke-width:1;"/><line style="stroke:#0A9EFD;stroke-width:2;" x1="41.3333" x2="332.5342" y1="122.9157" y2="122.9157"/><text fill="#0A9EFD" font-family="Arial" font-size="13" lengthAdjust="spacing" textLength="248.5679" x="65.6498" y="118.1608">Get available screen or window information</text></g><g class="message" data-participant-1="SDK" data-participant-2="APP"><polygon fill="#0A9EFD" points="52.3333,147.8644,42.3333,151.8644,52.3333,155.8644,48.3333,151.8644" style="stroke:#0A9EFD;stroke-width:1;"/><line style="stroke:#0A9EFD;stroke-width:2;" x1="46.3333" x2="337.5342" y1="151.8644" y2="151.8644"/><text fill="#0A9EFD" font-family="Arial" font-size="13" lengthAdjust="spacing" textLength="266.6333" x="56.6171" y="147.1095">Return available screen or window information</text></g><g class="message" data-participant-1="APP" data-participant-2="SDK"><polygon fill="#0A9EFD" points="326.5342,176.8132,336.5342,180.8132,326.5342,184.8132,330.5342,180.8132" style="stroke:#0A9EFD;stroke-width:1;"/><line style="stroke:#0A9EFD;stroke-width:2;" x1="41.3333" x2="332.5342" y1="180.8132" y2="180.8132"/><text fill="#0A9EFD" font-family="Arial" font-size="13" lengthAdjust="spacing" textLength="117.0571" x="131.4052" y="176.0583">Start screen capture</text></g><g class="message" data-participant-1="APP" data-participant-2="SDK"><polygon fill="#0A9EFD" points="326.5342,205.7619,336.5342,209.7619,326.5342,213.7619,330.5342,209.7619" style="stroke:#0A9EFD;stroke-width:1;"/><line style="stroke:#0A9EFD;stroke-width:2;" x1="41.3333" x2="332.5342" y1="209.7619" y2="209.7619"/><text fill="#0A9EFD" font-family="Arial" font-size="13" lengthAdjust="spacing" textLength="226.186" x="76.8407" y="205.007">Set the screen sharing scene (optional)</text></g><g class="message" data-participant-1="APP" data-participant-2="SDK"><polygon fill="#0A9EFD" points="326.5342,234.7106,336.5342,238.7106,326.5342,242.7106,330.5342,238.7106" style="stroke:#0A9EFD;stroke-width:1;"/><line style="stroke:#0A9EFD;stroke-width:2;" x1="41.3333" x2="332.5342" y1="238.7106" y2="238.7106"/><text fill="#0A9EFD" font-family="Arial" font-size="13" lengthAdjust="spacing" textLength="94.6816" x="142.5929" y="233.9557">Join the channel</text></g><g class="message" data-participant-1="SDK" data-participant-2="RTN"><polygon fill="#0A9EFD" points="586.3228,278.6081,596.3228,282.6081,586.3228,286.6081,590.3228,282.6081" style="stroke:#0A9EFD;stroke-width:1;"/><line style="stroke:#0A9EFD;stroke-width:2;" x1="338.5342" x2="592.3228" y1="282.6081" y2="282.6081"/><text fill="#0A9EFD" font-family="Arial" font-size="13" lengthAdjust="spacing" textLength="153.2007" x="391.8282" y="262.9045">Publish the screen sharing</text><text fill="#0A9EFD" font-family="Arial" font-size="13" lengthAdjust="spacing" textLength="124.2935" x="408.0877" y="277.8532">stream in the channel</text></g><g class="message" data-participant-1="APP" data-participant-2="SDK"><polygon fill="#0A9EFD" points="326.5342,307.5568,336.5342,311.5568,326.5342,315.5568,330.5342,311.5568" style="stroke:#0A9EFD;stroke-width:1;"/><line style="stroke:#0A9EFD;stroke-width:2;" x1="41.3333" x2="332.5342" y1="311.5568" y2="311.5568"/><text fill="#0A9EFD" font-family="Arial" font-size="13" lengthAdjust="spacing" textLength="266.646" x="56.6108" y="306.8019">Update the screen sharing area or parameters</text></g><g class="message" data-participant-1="APP" data-participant-2="SDK"><polygon fill="#0A9EFD" points="326.5342,336.5055,336.5342,340.5055,326.5342,344.5055,330.5342,340.5055" style="stroke:#0A9EFD;stroke-width:1;"/><line style="stroke:#0A9EFD;stroke-width:2;" x1="41.3333" x2="332.5342" y1="340.5055" y2="340.5055"/><text fill="#0A9EFD" font-family="Arial" font-size="13" lengthAdjust="spacing" textLength="265.1924" x="57.3376" y="335.7507">Display stroke on the shared screen (optional)</text></g><g class="message" data-participant-1="APP" data-participant-2="SDK"><polygon fill="#0A9EFD" points="326.5342,365.4543,336.5342,369.4543,326.5342,373.4543,330.5342,369.4543" style="stroke:#0A9EFD;stroke-width:1;"/><line style="stroke:#0A9EFD;stroke-width:2;" x1="41.3333" x2="332.5342" y1="369.4543" y2="369.4543"/><text fill="#0A9EFD" font-family="Arial" font-size="13" lengthAdjust="spacing" textLength="136.5635" x="121.652" y="364.6994">Block window (optional)</text></g><g class="message" data-participant-1="SDK" data-participant-2="RTN"><polygon fill="#0A9EFD" points="586.3228,409.3517,596.3228,413.3517,586.3228,417.3517,590.3228,413.3517" style="stroke:#0A9EFD;stroke-width:1;"/><line style="stroke:#0A9EFD;stroke-width:2;" x1="338.5342" x2="592.3228" y1="413.3517" y2="413.3517"/><text fill="#0A9EFD" font-family="Arial" font-size="13" lengthAdjust="spacing" textLength="203.8042" x="366.5264" y="393.6481">Publish the updated screen sharing</text><text fill="#0A9EFD" font-family="Arial" font-size="13" lengthAdjust="spacing" textLength="124.2935" x="408.0877" y="408.5968">stream in the channel</text></g><g class="message" data-participant-1="APP" data-participant-2="SDK"><polygon fill="#0A9EFD" points="326.5342,438.3005,336.5342,442.3005,326.5342,446.3005,330.5342,442.3005" style="stroke:#0A9EFD;stroke-width:1;"/><line style="stroke:#0A9EFD;stroke-width:2;" x1="41.3333" x2="332.5342" y1="442.3005" y2="442.3005"/><text fill="#0A9EFD" font-family="Arial" font-size="13" lengthAdjust="spacing" textLength="115.6226" x="132.1225" y="437.5456">Stop screen sahring</text></g><g class="message" data-participant-1="SDK" data-participant-2="RTN"><polygon fill="#0A9EFD" points="586.3228,482.1979,596.3228,486.1979,586.3228,490.1979,590.3228,486.1979" style="stroke:#0A9EFD;stroke-width:1;"/><line style="stroke:#0A9EFD;stroke-width:2;" x1="338.5342" x2="592.3228" y1="486.1979" y2="486.1979"/><text fill="#0A9EFD" font-family="Arial" font-size="13" lengthAdjust="spacing" textLength="199.4624" x="368.6973" y="466.4943">Stop publishing the screen sharing</text><text fill="#0A9EFD" font-family="Arial" font-size="13" lengthAdjust="spacing" textLength="124.2935" x="408.0877" y="481.443">stream in the channel</text></g><!--SRC=[bP9DJiCm48NtFiMG1O954GjMLHMfK0a995GrPOU4fidGM7LiotOeS2WEmSaO9sqJLUcYE__Cz-OzZo-apbLT4E3QE7pt6wblP5qf8LRc2vAfjOcmw8BCfKKT89bu-KFZkzjqSXbmfIYa2Q27wNmkI1V0r0vTB1yWcpsVnXL-a_CjpeL7-3JwuVF5ykNlzxH8hanTj1fSsMcidQajPBaZqk1BT5Al1PiSfTng38yK03zHgXW1V5jc76obBimMfFumhi8WZOxGPDH02mgrqsTmksPPOFFxuXmjgr3_chs4yg2sCyjRqWHNnaOrLDSzuib8tI1vYLgJ4dmwIZd_6ERrIabV3WY-yIeumWgEu4xtrHOOQCWCCXXpyXYmei1pws4pwIqFCygR3O5fvIDAnLveCCUzClbc_tQzYk4uTUEkE3zM5emzK5WsNw5hqTpQja-CUiRByMyJ_m00]--></g></svg>