<svg xmlns="http://www.w3.org/2000/svg" xmlns:xlink="http://www.w3.org/1999/xlink" contentStyleType="text/css" data-diagram-type="SEQUENCE" height="475px" preserveAspectRatio="none" style="width:646px;height:475px;" version="1.1" viewBox="0 0 646 475" width="646px" zoomAndPan="magnify"><defs/><g><rect fill="none" height="473.0184" style="stroke:#0A9EFD;stroke-width:1;" width="644.4085" x="0" y="0"/><rect fill="#999999" fill-opacity="0.33333" height="463.0184" style="stroke:#0A9EFD;stroke-width:0.5;" width="50.6667" x="16" y="6"/><text fill="#0A9EFD" font-family="sans-serif" font-size="13" font-weight="bold" lengthAdjust="spacing" textLength="25.27" x="28.6983" y="19.4951">App</text><rect fill="#999999" fill-opacity="0.33333" height="463.0184" style="stroke:#0A9EFD;stroke-width:0.5;" width="63.7764" x="297.9688" y="6"/><text fill="#0A9EFD" font-family="sans-serif" font-size="13" font-weight="bold" lengthAdjust="spacing" textLength="57.7764" x="300.9688" y="19.4951">RTC SDK</text><rect fill="#999999" fill-opacity="0.33333" height="463.0184" style="stroke:#0A9EFD;stroke-width:0.5;" width="101.5259" x="538.8826" y="6"/><text fill="#0A9EFD" font-family="sans-serif" font-size="13" font-weight="bold" lengthAdjust="spacing" textLength="95.5259" x="541.8826" y="19.4951">Agora SDRTN&#174;</text><rect fill="#0A9EFD" fill-opacity="0.06667" height="322.3335" style="stroke:#0A9EFD;stroke-width:2;" width="610.9789" x="10" y="85.0182"/><g><title>&lt;size:40&gt;&lt;&amp;tablet&gt;</title><rect fill="#000000" fill-opacity="0.00000" height="356.3335" width="8" x="37.3333" y="68.0182"/><line style="stroke:#0A9EFD;stroke-width:0.5;stroke-dasharray:5.0,5.0;" x1="41" x2="41" y1="68.0182" y2="424.3517"/></g><g><title>&lt;size:40&gt;&lt;&amp;layers&gt;</title><rect fill="#000000" fill-opacity="0.00000" height="356.3335" width="8" x="325.8569" y="68.0182"/><line style="stroke:#0A9EFD;stroke-width:0.5;stroke-dasharray:5.0,5.0;" x1="329.5236" x2="329.5236" y1="68.0182" y2="424.3517"/></g><g><title>&lt;size:40&gt;&lt;&amp;cloud&gt;</title><rect fill="#000000" fill-opacity="0.00000" height="356.3335" width="8" x="585.6456" y="68.0182"/><line style="stroke:#0A9EFD;stroke-width:0.5;stroke-dasharray:5.0,5.0;" x1="589.3123" x2="589.3123" y1="68.0182" y2="424.3517"/></g><g class="participant participant-head" data-participant="APP"><rect fill="none" height="40.6667" rx="2.5" ry="2.5" style="stroke:#0A9EFD;stroke-width:2;" width="42.6667" x="20" y="26.3516"/><path d="M29.1333,33.3516 C28.5333,33.3516 28,33.8849 28,34.4849 L28,58.8516 C28,59.4516 28.5333,59.9849 29.1333,59.9849 L50.1667,59.9849 C50.7667,59.9849 51.3,59.4516 51.3,58.8516 L51.3,34.4849 C51.3,33.8849 50.7667,33.3516 50.1667,33.3516 L29.1333,33.3516 M31.3333,36.6849 L48,36.6849 L48,53.3516 L31.3333,53.3516 L31.3333,36.6849 M39.6667,55.0182 C40.9333,55.0182 41.7667,56.4182 41.1333,57.5182 C40.5,58.6182 38.8667,58.6182 38.2,57.5182 C37.5667,56.4182 38.3667,55.0182 39.6667,55.0182" fill="#0A9EFD"/></g><g class="participant participant-tail" data-participant="APP"><rect fill="none" height="40.6667" rx="2.5" ry="2.5" style="stroke:#0A9EFD;stroke-width:2;" width="42.6667" x="20" y="423.3517"/><path d="M29.1333,430.3517 C28.5333,430.3517 28,430.8851 28,431.4851 L28,455.8517 C28,456.4517 28.5333,456.9851 29.1333,456.9851 L50.1667,456.9851 C50.7667,456.9851 51.3,456.4517 51.3,455.8517 L51.3,431.4851 C51.3,430.8851 50.7667,430.3517 50.1667,430.3517 L29.1333,430.3517 M31.3333,433.6851 L48,433.6851 L48,450.3517 L31.3333,450.3517 L31.3333,433.6851 M39.6667,452.0184 C40.9333,452.0184 41.7667,453.4184 41.1333,454.5184 C40.5,455.6184 38.8667,455.6184 38.2,454.5184 C37.5667,453.4184 38.3667,452.0184 39.6667,452.0184" fill="#0A9EFD"/></g><g class="participant participant-head" data-participant="SDK"><rect fill="none" height="40.6667" rx="2.5" ry="2.5" style="stroke:#0A9EFD;stroke-width:2;" width="42.6667" x="308.5236" y="26.3516"/><path d="M316.5236,33.3516 L316.5236,46.6849 L329.8569,46.6849 L329.8569,33.3516 L316.5236,33.3516 M333.1903,40.0182 L333.1903,50.0182 L323.1903,50.0182 L323.1903,53.3516 L336.5236,53.3516 L336.5236,40.0182 L333.1903,40.0182 M339.8569,46.6849 L339.8569,56.6849 L329.8569,56.6849 L329.8569,60.0182 L343.1903,60.0182 L343.1903,46.6849 L339.8569,46.6849" fill="#0A9EFD"/></g><g class="participant participant-tail" data-participant="SDK"><rect fill="none" height="40.6667" rx="2.5" ry="2.5" style="stroke:#0A9EFD;stroke-width:2;" width="42.6667" x="308.5236" y="423.3517"/><path d="M316.5236,430.3517 L316.5236,443.6851 L329.8569,443.6851 L329.8569,430.3517 L316.5236,430.3517 M333.1903,437.0184 L333.1903,447.0184 L323.1903,447.0184 L323.1903,450.3517 L336.5236,450.3517 L336.5236,437.0184 L333.1903,437.0184 M339.8569,443.6851 L339.8569,453.6851 L329.8569,453.6851 L329.8569,457.0184 L343.1903,457.0184 L343.1903,443.6851 L339.8569,443.6851" fill="#0A9EFD"/></g><g class="participant participant-head" data-participant="RTN"><rect fill="none" height="40.6667" rx="2.5" ry="2.5" style="stroke:#0A9EFD;stroke-width:2;" width="42.6667" x="568.3123" y="26.3516"/><path d="M591.3123,36.6849 C587.2789,36.6849 583.7456,39.5516 582.9789,43.3516 C579.3123,43.3516 576.3123,46.3516 576.3123,50.0182 C576.3123,53.6849 579.3123,56.6849 582.9789,56.6849 L597.9789,56.6849 C600.7456,56.6849 602.9789,54.4516 602.9789,51.6849 C602.9789,49.5182 601.5789,47.3849 599.6456,46.6849 L599.6456,45.0182 C599.6456,40.4182 595.9123,36.6849 591.3123,36.6849" fill="#0A9EFD"/></g><g class="participant participant-tail" data-participant="RTN"><rect fill="none" height="40.6667" rx="2.5" ry="2.5" style="stroke:#0A9EFD;stroke-width:2;" width="42.6667" x="568.3123" y="423.3517"/><path d="M591.3123,433.6851 C587.2789,433.6851 583.7456,436.5517 582.9789,440.3517 C579.3123,440.3517 576.3123,443.3517 576.3123,447.0184 C576.3123,450.6851 579.3123,453.6851 582.9789,453.6851 L597.9789,453.6851 C600.7456,453.6851 602.9789,451.4517 602.9789,448.6851 C602.9789,446.5184 601.5789,444.3851 599.6456,443.6851 L599.6456,442.0184 C599.6456,437.4184 595.9123,433.6851 591.3123,433.6851" fill="#0A9EFD"/></g><path d="M10,85.0182 L142.439,85.0182 L142.439,91.967 L132.439,101.967 L10,101.967 L10,85.0182" fill="#EEEEEE" style="stroke:#0A9EFD;stroke-width:1.5;"/><rect fill="none" height="322.3335" style="stroke:#0A9EFD;stroke-width:2;" width="610.9789" x="10" y="85.0182"/><text fill="#000000" font-family="Arial" font-size="13" lengthAdjust="spacing" textLength="87.439" x="25" y="98.2121">Screen sharing</text><g class="message" data-participant-1="APP" data-participant-2="SDK"><polygon fill="#0A9EFD" points="317.8569,118.9157,327.8569,122.9157,317.8569,126.9157,321.8569,122.9157" style="stroke:#0A9EFD;stroke-width:1;"/><line style="stroke:#0A9EFD;stroke-width:2;" x1="41.3333" x2="323.8569" y1="122.9157" y2="122.9157"/><text fill="#0A9EFD" font-family="Arial" font-size="13" lengthAdjust="spacing" textLength="207.4033" x="81.8935" y="118.1608">Set the high-quality scene (optional)</text></g><g class="message" data-participant-1="APP" data-participant-2="SDK"><polygon fill="#0A9EFD" points="317.8569,147.8644,327.8569,151.8644,317.8569,155.8644,321.8569,151.8644" style="stroke:#0A9EFD;stroke-width:1;"/><line style="stroke:#0A9EFD;stroke-width:2;" x1="41.3333" x2="323.8569" y1="151.8644" y2="151.8644"/><text fill="#0A9EFD" font-family="Arial" font-size="13" lengthAdjust="spacing" textLength="117.0571" x="127.0666" y="147.1095">Start screen capture</text></g><g class="message" data-participant-1="APP" data-participant-2="SDK"><polygon fill="#0A9EFD" points="317.8569,176.8132,327.8569,180.8132,317.8569,184.8132,321.8569,180.8132" style="stroke:#0A9EFD;stroke-width:1;"/><line style="stroke:#0A9EFD;stroke-width:2;" x1="41.3333" x2="323.8569" y1="180.8132" y2="180.8132"/><text fill="#0A9EFD" font-family="Arial" font-size="13" lengthAdjust="spacing" textLength="226.186" x="72.5021" y="176.0583">Set the screen sharing scene (optional)</text></g><g class="message" data-participant-1="APP" data-participant-2="SDK"><polygon fill="#0A9EFD" points="317.8569,205.7619,327.8569,209.7619,317.8569,213.7619,321.8569,209.7619" style="stroke:#0A9EFD;stroke-width:1;"/><line style="stroke:#0A9EFD;stroke-width:2;" x1="41.3333" x2="323.8569" y1="209.7619" y2="209.7619"/><text fill="#0A9EFD" font-family="Arial" font-size="13" lengthAdjust="spacing" textLength="94.6816" x="138.2543" y="205.007">Join the channel</text></g><g class="message" data-participant-1="SDK" data-participant-2="RTN"><polygon fill="#0A9EFD" points="577.6456,249.6593,587.6456,253.6593,577.6456,257.6593,581.6456,253.6593" style="stroke:#0A9EFD;stroke-width:1;"/><line style="stroke:#0A9EFD;stroke-width:2;" x1="329.8569" x2="583.6456" y1="253.6593" y2="253.6593"/><text fill="#0A9EFD" font-family="Arial" font-size="13" lengthAdjust="spacing" textLength="153.2007" x="383.1509" y="233.9557">Publish the screen sharing</text><text fill="#0A9EFD" font-family="Arial" font-size="13" lengthAdjust="spacing" textLength="124.2935" x="399.4104" y="248.9045">stream in the channel</text></g><g class="message" data-participant-1="APP" data-participant-2="SDK"><polygon fill="#0A9EFD" points="317.8569,278.6081,327.8569,282.6081,317.8569,286.6081,321.8569,282.6081" style="stroke:#0A9EFD;stroke-width:1;"/><line style="stroke:#0A9EFD;stroke-width:2;" x1="41.3333" x2="323.8569" y1="282.6081" y2="282.6081"/><text fill="#0A9EFD" font-family="Arial" font-size="13" lengthAdjust="spacing" textLength="257.9688" x="56.6108" y="277.8532">Update screen sharing parameters (optional)</text></g><g class="message" data-participant-1="SDK" data-participant-2="RTN"><polygon fill="#0A9EFD" points="577.6456,322.5055,587.6456,326.5055,577.6456,330.5055,581.6456,326.5055" style="stroke:#0A9EFD;stroke-width:1;"/><line style="stroke:#0A9EFD;stroke-width:2;" x1="329.8569" x2="583.6456" y1="326.5055" y2="326.5055"/><text fill="#0A9EFD" font-family="Arial" font-size="13" lengthAdjust="spacing" textLength="203.8042" x="357.8492" y="306.8019">Publish the updated screen sharing</text><text fill="#0A9EFD" font-family="Arial" font-size="13" lengthAdjust="spacing" textLength="124.2935" x="399.4104" y="321.7507">stream in the channel</text></g><g class="message" data-participant-1="APP" data-participant-2="SDK"><polygon fill="#0A9EFD" points="317.8569,351.4543,327.8569,355.4543,317.8569,359.4543,321.8569,355.4543" style="stroke:#0A9EFD;stroke-width:1;"/><line style="stroke:#0A9EFD;stroke-width:2;" x1="41.3333" x2="323.8569" y1="355.4543" y2="355.4543"/><text fill="#0A9EFD" font-family="Arial" font-size="13" lengthAdjust="spacing" textLength="115.6226" x="127.7839" y="350.6994">Stop screen sahring</text></g><g class="message" data-participant-1="SDK" data-participant-2="RTN"><polygon fill="#0A9EFD" points="577.6456,395.3517,587.6456,399.3517,577.6456,403.3517,581.6456,399.3517" style="stroke:#0A9EFD;stroke-width:1;"/><line style="stroke:#0A9EFD;stroke-width:2;" x1="329.8569" x2="583.6456" y1="399.3517" y2="399.3517"/><text fill="#0A9EFD" font-family="Arial" font-size="13" lengthAdjust="spacing" textLength="199.4624" x="360.0201" y="379.6481">Stop publishing the screen sharing</text><text fill="#0A9EFD" font-family="Arial" font-size="13" lengthAdjust="spacing" textLength="124.2935" x="399.4104" y="394.5968">stream in the channel</text></g><!--SRC=[bP71IWCn48RlUOfn3wA7YWTFfImKFIb8wTQR8DFii0ccIKmcO7qe7y8dSxeLMsjRw2qa___z_qpEhDUkj0JOXOGl-TNwAriMJgbvU8Tg76Eb8YQssaRq3DKesmyQtbpNetF6kIEkAy0Cuyb4aMz1N3_MwUmMchk7mtQ7IqfvRHVXZdsywYFtqzdZr-TXY7QXj6k6A3UCBeKIeT69o4CscAplb9GSr18rX8OOs10Osvd1Mq5dUGbPaoUu295jyEWkj_Ki-IBeSHeZbqHxSFbFtZ7WVR2-jsY3tfDJSZkePOGXJChSsMps09_bn8bm0Jlc3VSfjiZ_YiZsS44iwzvkip-oz8JszEY6G_nreUatledeN-CwPrNfXEdaKzKt]--></g></svg>