<svg xmlns="http://www.w3.org/2000/svg" xmlns:xlink="http://www.w3.org/1999/xlink" contentStyleType="text/css" data-diagram-type="SEQUENCE" height="910px" preserveAspectRatio="none" style="width:559px;height:910px;" version="1.1" viewBox="0 0 559 910" width="559px" zoomAndPan="magnify"><defs/><g><rect fill="none" height="908.6522" style="stroke:#0A9EFD;stroke-width:1;" width="557.0851" x="0" y="0"/><rect fill="#999999" fill-opacity="0.33333" height="898.6522" style="stroke:#0A9EFD;stroke-width:0.5;" width="50.6667" x="26" y="6"/><text fill="#0A9EFD" font-family="sans-serif" font-size="13" font-weight="bold" lengthAdjust="spacing" textLength="25.27" x="38.6983" y="19.4951">App</text><rect fill="#999999" fill-opacity="0.33333" height="898.6522" style="stroke:#0A9EFD;stroke-width:0.5;" width="50.6667" x="413.5176" y="6"/><text fill="#0A9EFD" font-family="sans-serif" font-size="13" font-weight="bold" lengthAdjust="spacing" textLength="37.5591" x="420.0714" y="19.4951">Agora</text><text fill="#0A9EFD" font-family="sans-serif" font-size="13" font-weight="bold" lengthAdjust="spacing" textLength="27.4473" x="425.1273" y="35.8467">SDK</text><rect fill="#999999" fill-opacity="0.33333" height="898.6522" style="stroke:#0A9EFD;stroke-width:0.5;" width="86.9009" x="466.1842" y="6"/><text fill="#0A9EFD" font-family="sans-serif" font-size="13" font-weight="bold" lengthAdjust="spacing" textLength="80.9009" x="469.1842" y="19.4951">Spatial audio</text><text fill="#0A9EFD" font-family="sans-serif" font-size="13" font-weight="bold" lengthAdjust="spacing" textLength="41.8945" x="488.6874" y="35.8467">engine</text><rect fill="#0A9EFD" fill-opacity="0.06667" height="74.8462" style="stroke:#0A9EFD;stroke-width:2;" width="520.968" x="20" y="101.3698"/><rect fill="#0A9EFD" fill-opacity="0.06667" height="74.8462" style="stroke:#0A9EFD;stroke-width:2;" width="450.1842" x="20" y="190.216"/><rect fill="#0A9EFD" fill-opacity="0.06667" height="45.8975" style="stroke:#0A9EFD;stroke-width:2;" width="450.1842" x="20" y="279.0622"/><rect fill="#0A9EFD" fill-opacity="0.06667" height="89.7949" style="stroke:#0A9EFD;stroke-width:2;" width="520.968" x="20" y="338.9596"/><rect fill="#0A9EFD" fill-opacity="0.06667" height="89.7949" style="stroke:#0A9EFD;stroke-width:2;" width="520.968" x="20" y="442.7546"/><rect fill="#0A9EFD" fill-opacity="0.06667" height="178.6411" style="stroke:#0A9EFD;stroke-width:2;" width="540.968" x="10" y="546.5495"/><rect fill="#0A9EFD" fill-opacity="0.06667" height="74.8462" style="stroke:#0A9EFD;stroke-width:2;" width="520.968" x="20" y="643.3444"/><rect fill="#0A9EFD" fill-opacity="0.06667" height="103.7949" style="stroke:#0A9EFD;stroke-width:2;" width="520.968" x="20" y="739.1906"/><g><title>&lt;size:40&gt;&lt;&amp;tablet&gt;</title><rect fill="#000000" fill-opacity="0.00000" height="775.6157" width="8" x="47.3333" y="84.3698"/><line style="stroke:#0A9EFD;stroke-width:0.5;stroke-dasharray:5.0,5.0;" x1="51" x2="51" y1="84.3698" y2="859.9855"/></g><g><title>&lt;size:40&gt;&lt;&amp;layers&gt;</title><rect fill="#000000" fill-opacity="0.00000" height="775.6157" width="8" x="434.8509" y="84.3698"/><line style="stroke:#0A9EFD;stroke-width:0.5;stroke-dasharray:5.0,5.0;" x1="438.5176" x2="438.5176" y1="84.3698" y2="859.9855"/></g><g><title>&lt;size:40&gt;&lt;&amp;map&gt;</title><rect fill="#000000" fill-opacity="0.00000" height="775.6157" width="8" x="505.6347" y="84.3698"/><line style="stroke:#0A9EFD;stroke-width:0.5;stroke-dasharray:5.0,5.0;" x1="509.3014" x2="509.3014" y1="84.3698" y2="859.9855"/></g><g class="participant participant-head" data-participant="APP"><rect fill="none" height="40.6667" rx="2.5" ry="2.5" style="stroke:#0A9EFD;stroke-width:2;" width="42.6667" x="30" y="42.7031"/><path d="M39.1333,49.7031 C38.5333,49.7031 38,50.2365 38,50.8365 L38,75.2031 C38,75.8031 38.5333,76.3365 39.1333,76.3365 L60.1667,76.3365 C60.7667,76.3365 61.3,75.8031 61.3,75.2031 L61.3,50.8365 C61.3,50.2365 60.7667,49.7031 60.1667,49.7031 L39.1333,49.7031 M41.3333,53.0365 L58,53.0365 L58,69.7031 L41.3333,69.7031 L41.3333,53.0365 M49.6667,71.3698 C50.9333,71.3698 51.7667,72.7698 51.1333,73.8698 C50.5,74.9698 48.8667,74.9698 48.2,73.8698 C47.5667,72.7698 48.3667,71.3698 49.6667,71.3698" fill="#0A9EFD"/></g><g class="participant participant-tail" data-participant="APP"><rect fill="none" height="40.6667" rx="2.5" ry="2.5" style="stroke:#0A9EFD;stroke-width:2;" width="42.6667" x="30" y="858.9855"/><path d="M39.1333,865.9855 C38.5333,865.9855 38,866.5188 38,867.1188 L38,891.4855 C38,892.0855 38.5333,892.6188 39.1333,892.6188 L60.1667,892.6188 C60.7667,892.6188 61.3,892.0855 61.3,891.4855 L61.3,867.1188 C61.3,866.5188 60.7667,865.9855 60.1667,865.9855 L39.1333,865.9855 M41.3333,869.3188 L58,869.3188 L58,885.9855 L41.3333,885.9855 L41.3333,869.3188 M49.6667,887.6522 C50.9333,887.6522 51.7667,889.0522 51.1333,890.1522 C50.5,891.2522 48.8667,891.2522 48.2,890.1522 C47.5667,889.0522 48.3667,887.6522 49.6667,887.6522" fill="#0A9EFD"/></g><g class="participant participant-head" data-participant="SDK"><rect fill="none" height="40.6667" rx="2.5" ry="2.5" style="stroke:#0A9EFD;stroke-width:2;" width="42.6667" x="417.5176" y="42.7031"/><path d="M425.5176,49.7031 L425.5176,63.0365 L438.8509,63.0365 L438.8509,49.7031 L425.5176,49.7031 M442.1842,56.3698 L442.1842,66.3698 L432.1842,66.3698 L432.1842,69.7031 L445.5176,69.7031 L445.5176,56.3698 L442.1842,56.3698 M448.8509,63.0365 L448.8509,73.0365 L438.8509,73.0365 L438.8509,76.3698 L452.1842,76.3698 L452.1842,63.0365 L448.8509,63.0365" fill="#0A9EFD"/></g><g class="participant participant-tail" data-participant="SDK"><rect fill="none" height="40.6667" rx="2.5" ry="2.5" style="stroke:#0A9EFD;stroke-width:2;" width="42.6667" x="417.5176" y="858.9855"/><path d="M425.5176,865.9855 L425.5176,879.3188 L438.8509,879.3188 L438.8509,865.9855 L425.5176,865.9855 M442.1842,872.6522 L442.1842,882.6522 L432.1842,882.6522 L432.1842,885.9855 L445.5176,885.9855 L445.5176,872.6522 L442.1842,872.6522 M448.8509,879.3188 L448.8509,889.3188 L438.8509,889.3188 L438.8509,892.6522 L452.1842,892.6522 L452.1842,879.3188 L448.8509,879.3188" fill="#0A9EFD"/></g><g class="participant participant-head" data-participant="SPAT"><rect fill="none" height="40.6667" rx="2.5" ry="2.5" style="stroke:#0A9EFD;stroke-width:2;" width="42.6667" x="488.3014" y="42.7031"/><path d="M496.3014,49.7031 L496.3014,76.3698 L522.968,76.3698 L522.968,68.4365 A1.6667,1.6667 0 0 0 522.968,67.7031 L522.968,49.6698 L496.3014,49.6698 M499.6347,53.0365 L519.6347,53.0365 L519.6347,66.3698 L514.6347,66.3698 A1.6667,1.6667 0 0 0 514.3347,66.3698 A1.6667,1.6667 0 1 0 514.6347,69.7031 L519.6347,69.7031 L519.6347,73.0365 L499.6347,73.0365 L499.6347,53.0365 M507.968,56.3698 C505.2014,56.3698 502.968,58.6031 502.968,61.3698 C502.968,64.7031 507.968,69.7031 507.968,69.7031 C507.968,69.7031 512.968,64.7031 512.968,61.3698 C512.968,58.6031 510.7347,56.3698 507.968,56.3698 M507.968,59.7031 C508.9014,59.7031 509.6347,60.4365 509.6347,61.3698 C509.6347,62.3031 508.9014,63.0365 507.968,63.0365 C507.0347,63.0365 506.3014,62.3031 506.3014,61.3698 C506.3014,60.4365 507.0347,59.7031 507.968,59.7031" fill="#0A9EFD"/></g><g class="participant participant-tail" data-participant="SPAT"><rect fill="none" height="40.6667" rx="2.5" ry="2.5" style="stroke:#0A9EFD;stroke-width:2;" width="42.6667" x="488.3014" y="858.9855"/><path d="M496.3014,865.9855 L496.3014,892.6522 L522.968,892.6522 L522.968,884.7188 A1.6667,1.6667 0 0 0 522.968,883.9855 L522.968,865.9522 L496.3014,865.9522 M499.6347,869.3188 L519.6347,869.3188 L519.6347,882.6522 L514.6347,882.6522 A1.6667,1.6667 0 0 0 514.3347,882.6522 A1.6667,1.6667 0 1 0 514.6347,885.9855 L519.6347,885.9855 L519.6347,889.3188 L499.6347,889.3188 L499.6347,869.3188 M507.968,872.6522 C505.2014,872.6522 502.968,874.8855 502.968,877.6522 C502.968,880.9855 507.968,885.9855 507.968,885.9855 C507.968,885.9855 512.968,880.9855 512.968,877.6522 C512.968,874.8855 510.7347,872.6522 507.968,872.6522 M507.968,875.9855 C508.9014,875.9855 509.6347,876.7188 509.6347,877.6522 C509.6347,878.5855 508.9014,879.3188 507.968,879.3188 C507.0347,879.3188 506.3014,878.5855 506.3014,877.6522 C506.3014,876.7188 507.0347,875.9855 507.968,875.9855" fill="#0A9EFD"/></g><path d="M20,101.3698 L154.6162,101.3698 L154.6162,108.3185 L144.6162,118.3185 L20,118.3185 L20,101.3698" fill="#EEEEEE" style="stroke:#0A9EFD;stroke-width:1.5;"/><rect fill="none" height="74.8462" style="stroke:#0A9EFD;stroke-width:2;" width="520.968" x="20" y="101.3698"/><text fill="#000000" font-family="Arial" font-size="13" lengthAdjust="spacing" textLength="89.6162" x="35" y="114.5636">Initialize engine</text><g class="message" data-participant-1="APP" data-participant-2="SDK"><polygon fill="#0A9EFD" points="426.8509,135.2673,436.8509,139.2673,426.8509,143.2673,430.8509,139.2673" style="stroke:#0A9EFD;stroke-width:1;"/><line style="stroke:#0A9EFD;stroke-width:2;" x1="51.3333" x2="432.8509" y1="139.2673" y2="139.2673"/><text fill="#0A9EFD" font-family="Arial" font-size="13" lengthAdjust="spacing" textLength="195.127" x="147.5286" y="134.5124">Create and initialize Agora engine</text></g><g class="message" data-participant-1="APP" data-participant-2="SPAT"><polygon fill="#0A9EFD" points="497.6347,164.216,507.6347,168.216,497.6347,172.216,501.6347,168.216" style="stroke:#0A9EFD;stroke-width:1;"/><line style="stroke:#0A9EFD;stroke-width:2;" x1="51.3333" x2="503.6347" y1="168.216" y2="168.216"/><text fill="#0A9EFD" font-family="Arial" font-size="13" lengthAdjust="spacing" textLength="255.1187" x="152.9247" y="163.4611">Create and initialize the spatial audio engine</text></g><path d="M20,190.216 L255.0742,190.216 L255.0742,197.1647 L245.0742,207.1647 L20,207.1647 L20,190.216" fill="#EEEEEE" style="stroke:#0A9EFD;stroke-width:1.5;"/><rect fill="none" height="74.8462" style="stroke:#0A9EFD;stroke-width:2;" width="450.1842" x="20" y="190.216"/><text fill="#000000" font-family="Arial" font-size="13" lengthAdjust="spacing" textLength="190.0742" x="35" y="203.4098">Set an audio profile and scenario</text><g class="message" data-participant-1="APP" data-participant-2="SDK"><polygon fill="#0A9EFD" points="426.8509,224.1134,436.8509,228.1134,426.8509,232.1134,430.8509,228.1134" style="stroke:#0A9EFD;stroke-width:1;"/><line style="stroke:#0A9EFD;stroke-width:2;" x1="51.3333" x2="432.8509" y1="228.1134" y2="228.1134"/><text fill="#0A9EFD" font-family="Arial" font-size="13" lengthAdjust="spacing" textLength="130.0952" x="180.0445" y="223.3586">Set up an audio profile</text></g><g class="message" data-participant-1="APP" data-participant-2="SDK"><polygon fill="#0A9EFD" points="426.8509,253.0622,436.8509,257.0622,426.8509,261.0622,430.8509,257.0622" style="stroke:#0A9EFD;stroke-width:1;"/><line style="stroke:#0A9EFD;stroke-width:2;" x1="51.3333" x2="432.8509" y1="257.0622" y2="257.0622"/><text fill="#0A9EFD" font-family="Arial" font-size="13" lengthAdjust="spacing" textLength="125.7534" x="182.2154" y="252.3073">Set up audio scenario</text></g><path d="M20,279.0622 L137.998,279.0622 L137.998,286.0109 L127.998,296.0109 L20,296.0109 L20,279.0622" fill="#EEEEEE" style="stroke:#0A9EFD;stroke-width:1.5;"/><rect fill="none" height="45.8975" style="stroke:#0A9EFD;stroke-width:2;" width="450.1842" x="20" y="279.0622"/><text fill="#000000" font-family="Arial" font-size="13" lengthAdjust="spacing" textLength="72.998" x="35" y="292.256">Join channel</text><g class="message" data-participant-1="APP" data-participant-2="SDK"><polygon fill="#0A9EFD" points="426.8509,312.9596,436.8509,316.9596,426.8509,320.9596,430.8509,316.9596" style="stroke:#0A9EFD;stroke-width:1;"/><line style="stroke:#0A9EFD;stroke-width:2;" x1="51.3333" x2="432.8509" y1="316.9596" y2="316.9596"/><text fill="#0A9EFD" font-family="Arial" font-size="13" lengthAdjust="spacing" textLength="363.5176" x="63.3333" y="312.2048">Join a channel and set channel usage scenarios and user roles</text></g><path d="M20,338.9596 L231.9561,338.9596 L231.9561,345.9084 L221.9561,355.9084 L20,355.9084 L20,338.9596" fill="#EEEEEE" style="stroke:#0A9EFD;stroke-width:1.5;"/><rect fill="none" height="89.7949" style="stroke:#0A9EFD;stroke-width:2;" width="520.968" x="20" y="338.9596"/><text fill="#000000" font-family="Arial" font-size="13" lengthAdjust="spacing" textLength="166.9561" x="35" y="352.1535">Set an audio reception range</text><g class="message" data-participant-1="APP" data-participant-2="SPAT"><polygon fill="#0A9EFD" points="497.6347,387.8058,507.6347,391.8058,497.6347,395.8058,501.6347,391.8058" style="stroke:#0A9EFD;stroke-width:1;"/><line style="stroke:#0A9EFD;stroke-width:2;" x1="51.3333" x2="503.6347" y1="391.8058" y2="391.8058"/><text fill="#0A9EFD" font-family="Arial" font-size="13" lengthAdjust="spacing" textLength="263.0024" x="148.9828" y="372.1022">Set the maximum number of audio streams to</text><text fill="#0A9EFD" font-family="Arial" font-size="13" lengthAdjust="spacing" textLength="228.3569" x="168.1115" y="387.0509">receive within the audio receiving range</text></g><g class="message" data-participant-1="APP" data-participant-2="SPAT"><polygon fill="#0A9EFD" points="497.6347,416.7546,507.6347,420.7546,497.6347,424.7546,501.6347,420.7546" style="stroke:#0A9EFD;stroke-width:1;"/><line style="stroke:#0A9EFD;stroke-width:2;" x1="51.3333" x2="503.6347" y1="420.7546" y2="420.7546"/><text fill="#0A9EFD" font-family="Arial" font-size="13" lengthAdjust="spacing" textLength="247.8442" x="156.5619" y="415.9997">Set the maximum range for receiving audio</text></g><path d="M20,442.7546 L196.5298,442.7546 L196.5298,449.7033 L186.5298,459.7033 L20,459.7033 L20,442.7546" fill="#EEEEEE" style="stroke:#0A9EFD;stroke-width:1.5;"/><rect fill="none" height="89.7949" style="stroke:#0A9EFD;stroke-width:2;" width="520.968" x="20" y="442.7546"/><text fill="#000000" font-family="Arial" font-size="13" lengthAdjust="spacing" textLength="131.5298" x="35" y="455.9484">Update spatial position</text><g class="message" data-participant-1="APP" data-participant-2="SPAT"><polygon fill="#0A9EFD" points="497.6347,476.652,507.6347,480.652,497.6347,484.652,501.6347,480.652" style="stroke:#0A9EFD;stroke-width:1;"/><line style="stroke:#0A9EFD;stroke-width:2;" x1="51.3333" x2="503.6347" y1="480.652" y2="480.652"/><text fill="#0A9EFD" font-family="Arial" font-size="13" lengthAdjust="spacing" textLength="248.5996" x="156.1842" y="475.8971">Update the spatial position of the local user</text></g><g class="message" data-participant-1="APP" data-participant-2="SPAT"><polygon fill="#0A9EFD" points="497.6347,520.5495,507.6347,524.5495,497.6347,528.5495,501.6347,524.5495" style="stroke:#0A9EFD;stroke-width:1;"/><line style="stroke:#0A9EFD;stroke-width:2;" x1="51.3333" x2="503.6347" y1="524.5495" y2="524.5495"/><text fill="#0A9EFD" font-family="Arial" font-size="13" lengthAdjust="spacing" textLength="167.667" x="196.6505" y="504.8459">Update the spatial position of</text><text fill="#0A9EFD" font-family="Arial" font-size="13" lengthAdjust="spacing" textLength="184.2534" x="190.1632" y="519.7946">the remote user or media player</text></g><path d="M10,546.5495 L211.1016,546.5495 L211.1016,553.4982 L201.1016,563.4982 L10,563.4982 L10,546.5495" fill="#EEEEEE" style="stroke:#0A9EFD;stroke-width:1.5;"/><rect fill="none" height="178.6411" style="stroke:#0A9EFD;stroke-width:2;" width="540.968" x="10" y="546.5495"/><text fill="#000000" font-family="Arial" font-size="13" lengthAdjust="spacing" textLength="156.1016" x="25" y="559.7433">Set up spatial audio effects</text><g class="message" data-participant-1="APP" data-participant-2="SDK"><polygon fill="#0A9EFD" points="426.8509,595.3957,436.8509,599.3957,426.8509,603.3957,430.8509,599.3957" style="stroke:#0A9EFD;stroke-width:1;"/><line style="stroke:#0A9EFD;stroke-width:2;" x1="51.3333" x2="432.8509" y1="599.3957" y2="599.3957"/><text fill="#0A9EFD" font-family="Arial" font-size="13" lengthAdjust="spacing" textLength="201.6206" x="144.2818" y="579.6921">Set the spatial audio parameters of</text><text fill="#0A9EFD" font-family="Arial" font-size="13" lengthAdjust="spacing" textLength="223.9897" x="134.9032" y="594.6408">the remote user or media player locally</text></g><g class="message" data-participant-1="APP" data-participant-2="SDK"><polygon fill="#0A9EFD" points="426.8509,624.3444,436.8509,628.3444,426.8509,632.3444,430.8509,628.3444" style="stroke:#0A9EFD;stroke-width:1;"/><line style="stroke:#0A9EFD;stroke-width:2;" x1="51.3333" x2="432.8509" y1="628.3444" y2="628.3444"/><text fill="#0A9EFD" font-family="Arial" font-size="13" lengthAdjust="spacing" textLength="236.3169" x="126.9337" y="623.5895">Set up a sound insulation area (Optional)</text></g><path d="M20,643.3444 L343.9731,643.3444 L343.9731,650.2931 L333.9731,660.2931 L20,660.2931 L20,643.3444" fill="#EEEEEE" style="stroke:#0A9EFD;stroke-width:1.5;"/><rect fill="none" height="74.8462" style="stroke:#0A9EFD;stroke-width:2;" width="520.968" x="20" y="643.3444"/><text fill="#000000" font-family="Arial" font-size="13" lengthAdjust="spacing" textLength="278.9731" x="35" y="656.5382">Set the headphone equalization effect (Optional)</text><g class="message" data-participant-1="APP" data-participant-2="SPAT"><polygon fill="#0A9EFD" points="497.6347,677.2419,507.6347,681.2419,497.6347,685.2419,501.6347,681.2419" style="stroke:#0A9EFD;stroke-width:1;"/><line style="stroke:#0A9EFD;stroke-width:2;" x1="51.3333" x2="503.6347" y1="681.2419" y2="681.2419"/><text fill="#0A9EFD" font-family="Arial" font-size="13" lengthAdjust="spacing" textLength="245.0005" x="157.9838" y="676.487">Use the preset headphone equalizer effect</text></g><g class="message" data-participant-1="APP" data-participant-2="SPAT"><polygon fill="#0A9EFD" points="497.6347,706.1906,507.6347,710.1906,497.6347,714.1906,501.6347,710.1906" style="stroke:#0A9EFD;stroke-width:1;"/><line style="stroke:#0A9EFD;stroke-width:2;" x1="51.3333" x2="503.6347" y1="710.1906" y2="710.1906"/><text fill="#0A9EFD" font-family="Arial" font-size="13" lengthAdjust="spacing" textLength="284.0322" x="138.4679" y="705.4357">Adjust the headphone equalization effect yourself</text></g><path d="M20,739.1906 L186.4053,739.1906 L186.4053,746.1393 L176.4053,756.1393 L20,756.1393 L20,739.1906" fill="#EEEEEE" style="stroke:#0A9EFD;stroke-width:1.5;"/><rect fill="none" height="103.7949" style="stroke:#0A9EFD;stroke-width:2;" width="520.968" x="20" y="739.1906"/><text fill="#000000" font-family="Arial" font-size="13" lengthAdjust="spacing" textLength="121.4053" x="35" y="752.3844">Turn off spatial audio</text><g class="message" data-participant-1="APP" data-participant-2="SPAT"><polygon fill="#0A9EFD" points="497.6347,773.0881,507.6347,777.0881,497.6347,781.0881,501.6347,777.0881" style="stroke:#0A9EFD;stroke-width:1;"/><line style="stroke:#0A9EFD;stroke-width:2;" x1="51.3333" x2="503.6347" y1="777.0881" y2="777.0881"/><text fill="#0A9EFD" font-family="Arial" font-size="13" lengthAdjust="spacing" textLength="113.4707" x="223.7487" y="772.3332">Pause spatial audio</text></g><g class="message" data-participant-1="APP" data-participant-2="SPAT"><polygon fill="#0A9EFD" points="497.6347,802.0368,507.6347,806.0368,497.6347,810.0368,501.6347,806.0368" style="stroke:#0A9EFD;stroke-width:1;"/><line style="stroke:#0A9EFD;stroke-width:2;" x1="51.3333" x2="503.6347" y1="806.0368" y2="806.0368"/><text fill="#0A9EFD" font-family="Arial" font-size="13" lengthAdjust="spacing" textLength="121.4053" x="219.7814" y="801.2819">Turn off spatial audio</text></g><g class="message" data-participant-1="APP" data-participant-2="SPAT"><polygon fill="#0A9EFD" points="497.6347,830.9855,507.6347,834.9855,497.6347,838.9855,501.6347,834.9855" style="stroke:#0A9EFD;stroke-width:1;"/><line style="stroke:#0A9EFD;stroke-width:2;" x1="51.3333" x2="503.6347" y1="834.9855" y2="834.9855"/><text fill="#0A9EFD" font-family="Arial" font-size="13" lengthAdjust="spacing" textLength="185.7324" x="187.6178" y="830.2306">Destroy the spatial audio engine</text></g><!--SRC=[ZLHDZzCm4BtdLmmz83Y0E71QhIfLx0KuKAdBhHAQ9fDamB6DFvOjlvwnqspTTiFs52NptfldD-EyObshs11WPnp-yBzOl-SugAhQcKTOhAnTL1PTu9ejwW2BMyz_wURZX-Njwu0xHM6v0FImMgyhqWq8Qw8cmQtUt7sTLr2u9-T71G6UAMmi1aO561isMqswOqtpOWFQWz9wTN-Kwfo95ZvhJbe2Xb6d4iVlbjBq1ZuvmY0928EFiEp_52owS-ZG4_ZIxyGK7vE73GMX7ShMcPRLgEDhqkZO59uILYWNy6SWkVuaKVJxObX3tQFMf0fU_enJOJGWKjDxzDZHavxFzUZ9WJEA_Env7DLa0niD3dLtabZ2fNm6VEGX3g3Zi1CzqqxUWqGwU0WovAp33mH_EFJYC_6E3VY1TVToWmo0rhY2b4LAzzzja-Ou3SqQpyb-gNk0bBETOCbz-gvCZIhdSprnEnxBqM04bBCLgmCrZ63pbJXFMHvdozMsL0T_jWsNIoXt1GSASickwZiUH-sVsJBm9kQLzr5XFWZArE3DjpnqL6zBlwbDJzZOtcYvSBzZkYGZQtHUyihS_1YQTPHMya9278xyahHgVaP_JS-zYSwJQdEwHSBtqQMnjAVPbItMA6dDbryMk2DPShF__s_Y7m00]--></g></svg>