<svg xmlns="http://www.w3.org/2000/svg" xmlns:xlink="http://www.w3.org/1999/xlink" contentStyleType="text/css" data-diagram-type="SEQUENCE" height="927px" preserveAspectRatio="none" style="width:686px;height:927px;" version="1.1" viewBox="0 0 686 927" width="686px" zoomAndPan="magnify"><defs/><g><rect fill="none" height="925.9155" style="stroke:#0A9EFD;stroke-width:1;" width="684.7217" x="0" y="0"/><rect fill="#999999" fill-opacity="0.33333" height="915.9155" style="stroke:#0A9EFD;stroke-width:0.5;" width="83.4482" x="104.5933" y="6"/><text fill="#0A9EFD" font-family="sans-serif" font-size="13" font-weight="bold" lengthAdjust="spacing" textLength="56.3354" x="118.1497" y="19.4951">Your app</text><rect fill="#999999" fill-opacity="0.33333" height="915.9155" style="stroke:#0A9EFD;stroke-width:0.5;" width="187.0391" x="487.6826" y="6"/><text fill="#0A9EFD" font-family="sans-serif" font-size="13" font-weight="bold" lengthAdjust="spacing" textLength="37.5591" x="562.4226" y="19.4951">Agora</text><rect fill="#0A9EFD" fill-opacity="0.06667" height="74.8462" style="stroke:#0A9EFD;stroke-width:2;" width="582.1284" x="98.5933" y="132.0474"/><rect fill="#0A9EFD" fill-opacity="0.06667" height="190.6411" style="stroke:#0A9EFD;stroke-width:2;" width="582.1284" x="98.5933" y="278.791"/><rect fill="#0A9EFD" fill-opacity="0.06667" height="190.6411" style="stroke:#0A9EFD;stroke-width:2;" width="670.7217" x="10" y="483.4321"/><rect fill="#0A9EFD" fill-opacity="0.06667" height="132.7437" style="stroke:#0A9EFD;stroke-width:2;" width="582.1284" x="98.5933" y="688.0732"/><g><title>User</title><rect fill="#000000" fill-opacity="0.00000" height="751.7183" width="8" x="33.7793" y="86.0986"/><line style="stroke:#0A9EFD;stroke-width:0.5;stroke-dasharray:5.0,5.0;" x1="37" x2="37" y1="86.0986" y2="837.8169"/></g><g><title>RTC SDK</title><rect fill="#000000" fill-opacity="0.00000" height="751.7183" width="8" x="142.3174" y="86.0986"/><line style="stroke:#0A9EFD;stroke-width:0.5;stroke-dasharray:5.0,5.0;" x1="145.5933" x2="145.5933" y1="86.0986" y2="837.8169"/></g><g><title>SDRTN&#174;</title><rect fill="#000000" fill-opacity="0.00000" height="751.7183" width="8" x="523.9507" y="86.0986"/><line style="stroke:#0A9EFD;stroke-width:0.5;stroke-dasharray:5.0,5.0;" x1="527.6826" x2="527.6826" y1="86.0986" y2="837.8169"/></g><g><title>Spatial Audio</title><rect fill="#000000" fill-opacity="0.00000" height="751.7183" width="8" x="618.4702" y="86.0986"/><line style="stroke:#0A9EFD;stroke-width:0.5;stroke-dasharray:5.0,5.0;" x1="622.2188" x2="622.2188" y1="86.0986" y2="837.8169"/></g><g class="participant participant-head" data-participant="USR"><text fill="#0A9EFD" font-family="Arial" font-size="14" lengthAdjust="spacing" textLength="29.5586" x="20" y="83.1318">User</text><ellipse cx="37.7793" cy="16" fill="none" rx="8" ry="8" style="stroke:#0A9EFD;stroke-width:3;"/><path d="M37.7793,24 L37.7793,51 M24.7793,32 L50.7793,32 M37.7793,51 L24.7793,66 M37.7793,51 L50.7793,66" fill="none" style="stroke:#0A9EFD;stroke-width:3;"/></g><g class="participant participant-tail" data-participant="USR"><text fill="#0A9EFD" font-family="Arial" font-size="14" lengthAdjust="spacing" textLength="29.5586" x="20" y="849.9487">User</text><ellipse cx="37.7793" cy="863.9155" fill="none" rx="8" ry="8" style="stroke:#0A9EFD;stroke-width:3;"/><path d="M37.7793,871.9155 L37.7793,898.9155 M24.7793,879.9155 L50.7793,879.9155 M37.7793,898.9155 L24.7793,913.9155 M37.7793,898.9155 L50.7793,913.9155" fill="none" style="stroke:#0A9EFD;stroke-width:3;"/></g><g class="participant participant-head" data-participant="APP"><rect fill="none" height="30.0986" rx="2.5" ry="2.5" style="stroke:#0A9EFD;stroke-width:2;" width="75.4482" x="108.5933" y="55"/><text fill="#0A9EFD" font-family="Arial" font-size="14" lengthAdjust="spacing" textLength="61.4482" x="115.5933" y="75.1318">RTC SDK</text></g><g class="participant participant-tail" data-participant="APP"><rect fill="none" height="30.0986" rx="2.5" ry="2.5" style="stroke:#0A9EFD;stroke-width:2;" width="75.4482" x="108.5933" y="836.8169"/><text fill="#0A9EFD" font-family="Arial" font-size="14" lengthAdjust="spacing" textLength="61.4482" x="115.5933" y="856.9487">RTC SDK</text></g><g class="participant participant-head" data-participant="API"><rect fill="none" height="30.0986" rx="2.5" ry="2.5" style="stroke:#0A9EFD;stroke-width:2;" width="72.5361" x="491.6826" y="55"/><text fill="#0A9EFD" font-family="Arial" font-size="14" lengthAdjust="spacing" textLength="58.5361" x="498.6826" y="75.1318">SDRTN&#174;</text></g><g class="participant participant-tail" data-participant="API"><rect fill="none" height="30.0986" rx="2.5" ry="2.5" style="stroke:#0A9EFD;stroke-width:2;" width="72.5361" x="491.6826" y="836.8169"/><text fill="#0A9EFD" font-family="Arial" font-size="14" lengthAdjust="spacing" textLength="58.5361" x="498.6826" y="856.9487">SDRTN&#174;</text></g><g class="participant participant-head" data-participant="EXT"><rect fill="none" height="46.1973" rx="2.5" ry="2.5" style="stroke:#0A9EFD;stroke-width:2;" width="96.5029" x="574.2188" y="38.9014"/><text fill="#0A9EFD" font-family="Arial" font-size="14" lengthAdjust="spacing" textLength="82.5029" x="581.2188" y="59.0332">Spatial Audio</text><text fill="#0A9EFD" font-family="Arial" font-size="14" lengthAdjust="spacing" textLength="61.4824" x="593.6738" y="75.1318">Extension</text></g><g class="participant participant-tail" data-participant="EXT"><rect fill="none" height="46.1973" rx="2.5" ry="2.5" style="stroke:#0A9EFD;stroke-width:2;" width="96.5029" x="574.2188" y="836.8169"/><text fill="#0A9EFD" font-family="Arial" font-size="14" lengthAdjust="spacing" textLength="82.5029" x="581.2188" y="856.9487">Spatial Audio</text><text fill="#0A9EFD" font-family="Arial" font-size="14" lengthAdjust="spacing" textLength="61.4824" x="593.6738" y="873.0474">Extension</text></g><g class="message" data-participant-1="APP" data-participant-2="API"><polygon fill="#0A9EFD" points="515.9507,113.0474,525.9507,117.0474,515.9507,121.0474,519.9507,117.0474" style="stroke:#0A9EFD;stroke-width:1;"/><line style="stroke:#0A9EFD;stroke-width:2;" x1="146.3174" x2="521.9507" y1="117.0474" y2="117.0474"/><text fill="#0A9EFD" font-family="Arial" font-size="13" lengthAdjust="spacing" textLength="134.3862" x="269.9409" y="112.2925">AgoraRTC.createClient</text></g><path d="M98.5933,132.0474 L335.1211,132.0474 L335.1211,138.9961 L325.1211,148.9961 L98.5933,148.9961 L98.5933,132.0474" fill="#EEEEEE" style="stroke:#0A9EFD;stroke-width:1.5;"/><rect fill="none" height="74.8462" style="stroke:#0A9EFD;stroke-width:2;" width="582.1284" x="98.5933" y="132.0474"/><text fill="#000000" font-family="Arial" font-size="13" lengthAdjust="spacing" textLength="191.5278" x="113.5933" y="145.2412">Setup the spatial audio extension</text><g class="message" data-participant-1="APP" data-participant-2="API"><polygon fill="#0A9EFD" points="515.9507,165.9448,525.9507,169.9448,515.9507,173.9448,519.9507,169.9448" style="stroke:#0A9EFD;stroke-width:1;"/><line style="stroke:#0A9EFD;stroke-width:2;" x1="146.3174" x2="521.9507" y1="169.9448" y2="169.9448"/><text fill="#0A9EFD" font-family="Arial" font-size="13" lengthAdjust="spacing" textLength="165.458" x="254.405" y="165.1899">AgoraRTC.registerExtension</text></g><g class="message" data-participant-1="APP" data-participant-2="EXT"><polygon fill="#0A9EFD" points="610.4702,194.8936,620.4702,198.8936,610.4702,202.8936,614.4702,198.8936" style="stroke:#0A9EFD;stroke-width:1;"/><line style="stroke:#0A9EFD;stroke-width:2;" x1="146.3174" x2="616.4702" y1="198.8936" y2="198.8936"/><text fill="#0A9EFD" font-family="Arial" font-size="13" lengthAdjust="spacing" textLength="239.9414" x="264.4231" y="194.1387">spatialAudioExtension.updateSelfPosition</text></g><g class="message" data-participant-1="USR" data-participant-2="APP"><polygon fill="#0A9EFD" points="134.3174,230.8423,144.3174,234.8423,134.3174,238.8423,138.3174,234.8423" style="stroke:#0A9EFD;stroke-width:1;"/><line style="stroke:#0A9EFD;stroke-width:2;" x1="37.7793" x2="140.3174" y1="234.8423" y2="234.8423"/><text fill="#0A9EFD" font-family="Arial" font-size="13" lengthAdjust="spacing" textLength="75.8862" x="54.1052" y="230.0874">Join Channel</text></g><g class="message" data-participant-1="APP" data-participant-2="API"><polygon fill="#0A9EFD" points="515.9507,259.791,525.9507,263.791,515.9507,267.791,519.9507,263.791" style="stroke:#0A9EFD;stroke-width:1;"/><line style="stroke:#0A9EFD;stroke-width:2;" x1="146.3174" x2="521.9507" y1="263.791" y2="263.791"/><text fill="#0A9EFD" font-family="Arial" font-size="13" lengthAdjust="spacing" textLength="118.4917" x="277.8882" y="259.0361">AgoraRTCClient.join</text></g><path d="M98.5933,278.791 L345.5122,278.791 L345.5122,285.7397 L335.5122,295.7397 L98.5933,295.7397 L98.5933,278.791" fill="#EEEEEE" style="stroke:#0A9EFD;stroke-width:1.5;"/><rect fill="none" height="190.6411" style="stroke:#0A9EFD;stroke-width:2;" width="582.1284" x="98.5933" y="278.791"/><text fill="#000000" font-family="Arial" font-size="13" lengthAdjust="spacing" textLength="201.9189" x="113.5933" y="291.9849">Realize remote user's spatial audio</text><g class="message" data-participant-1="API" data-participant-2="APP"><polygon fill="#0A9EFD" points="157.3174,312.6885,147.3174,316.6885,157.3174,320.6885,153.3174,316.6885" style="stroke:#0A9EFD;stroke-width:1;"/><line style="stroke:#0A9EFD;stroke-width:2;" x1="151.3174" x2="526.9507" y1="316.6885" y2="316.6885"/><text fill="#0A9EFD" font-family="Arial" font-size="13" lengthAdjust="spacing" textLength="151.582" x="261.343" y="311.9336">client.on("user-published")</text></g><g class="message" data-participant-1="APP" data-participant-2="API"><polygon fill="#0A9EFD" points="515.9507,341.6372,525.9507,345.6372,515.9507,349.6372,519.9507,345.6372" style="stroke:#0A9EFD;stroke-width:1;"/><line style="stroke:#0A9EFD;stroke-width:2;" x1="146.3174" x2="521.9507" y1="345.6372" y2="345.6372"/><text fill="#0A9EFD" font-family="Arial" font-size="13" lengthAdjust="spacing" textLength="153.8926" x="260.1877" y="340.8823">AgoraRTCClient.subscribe</text></g><g class="message" data-participant-1="APP" data-participant-2="EXT"><polygon fill="#0A9EFD" points="610.4702,370.5859,620.4702,374.5859,610.4702,378.5859,614.4702,374.5859" style="stroke:#0A9EFD;stroke-width:1;"/><line style="stroke:#0A9EFD;stroke-width:2;" x1="146.3174" x2="616.4702" y1="374.5859" y2="374.5859"/><text fill="#0A9EFD" font-family="Arial" font-size="13" lengthAdjust="spacing" textLength="226.1797" x="271.304" y="369.8311">spatialAudioExtension.createProcessor</text></g><g class="message" data-participant-1="APP" data-participant-2="API"><polygon fill="#0A9EFD" points="515.9507,399.5347,525.9507,403.5347,515.9507,407.5347,519.9507,403.5347" style="stroke:#0A9EFD;stroke-width:1;"/><line style="stroke:#0A9EFD;stroke-width:2;" x1="146.3174" x2="521.9507" y1="403.5347" y2="403.5347"/><text fill="#0A9EFD" font-family="Arial" font-size="13" lengthAdjust="spacing" textLength="357.6333" x="158.3174" y="398.7798">remoteTrack.pipe(processor).pipe(track.processorDestination)</text></g><g class="message" data-participant-1="APP" data-participant-2="API"><polygon fill="#0A9EFD" points="515.9507,428.4834,525.9507,432.4834,515.9507,436.4834,519.9507,432.4834" style="stroke:#0A9EFD;stroke-width:1;"/><line style="stroke:#0A9EFD;stroke-width:2;" x1="146.3174" x2="521.9507" y1="432.4834" y2="432.4834"/><text fill="#0A9EFD" font-family="Arial" font-size="13" lengthAdjust="spacing" textLength="101.8608" x="286.2036" y="427.7285">remoteTrack.Play</text></g><g class="message" data-participant-1="APP" data-participant-2="EXT"><polygon fill="#0A9EFD" points="610.4702,457.4321,620.4702,461.4321,610.4702,465.4321,614.4702,461.4321" style="stroke:#0A9EFD;stroke-width:1;"/><line style="stroke:#0A9EFD;stroke-width:2;" x1="146.3174" x2="616.4702" y1="461.4321" y2="461.4321"/><text fill="#0A9EFD" font-family="Arial" font-size="13" lengthAdjust="spacing" textLength="192.2197" x="288.2839" y="456.6772">processor.updateRemotePosition</text></g><path d="M10,483.4321 L262.397,483.4321 L262.397,490.3809 L252.397,500.3809 L10,500.3809 L10,483.4321" fill="#EEEEEE" style="stroke:#0A9EFD;stroke-width:1.5;"/><rect fill="none" height="190.6411" style="stroke:#0A9EFD;stroke-width:2;" width="670.7217" x="10" y="483.4321"/><text fill="#000000" font-family="Arial" font-size="13" lengthAdjust="spacing" textLength="207.397" x="25" y="496.626">Spatial audio effect for media player</text><g class="message" data-participant-1="USR" data-participant-2="APP"><polygon fill="#0A9EFD" points="134.3174,517.3296,144.3174,521.3296,134.3174,525.3296,138.3174,521.3296" style="stroke:#0A9EFD;stroke-width:1;"/><line style="stroke:#0A9EFD;stroke-width:2;" x1="37.7793" x2="140.3174" y1="521.3296" y2="521.3296"/><text fill="#0A9EFD" font-family="Arial" font-size="13" lengthAdjust="spacing" textLength="84.5381" x="49.7793" y="516.5747">Play media file</text></g><g class="message" data-participant-1="APP" data-participant-2="API"><polygon fill="#0A9EFD" points="515.9507,546.2783,525.9507,550.2783,515.9507,554.2783,519.9507,550.2783" style="stroke:#0A9EFD;stroke-width:1;"/><line style="stroke:#0A9EFD;stroke-width:2;" x1="146.3174" x2="521.9507" y1="550.2783" y2="550.2783"/><text fill="#0A9EFD" font-family="Arial" font-size="13" lengthAdjust="spacing" textLength="242.7725" x="215.7478" y="545.5234">AgoraRTC.createBufferSourceAudioTrack</text></g><g class="message" data-participant-1="APP" data-participant-2="EXT"><polygon fill="#0A9EFD" points="610.4702,575.2271,620.4702,579.2271,610.4702,583.2271,614.4702,579.2271" style="stroke:#0A9EFD;stroke-width:1;"/><line style="stroke:#0A9EFD;stroke-width:2;" x1="146.3174" x2="616.4702" y1="579.2271" y2="579.2271"/><text fill="#0A9EFD" font-family="Arial" font-size="13" lengthAdjust="spacing" textLength="226.1797" x="271.304" y="574.4722">spatialAudioExtension.createProcessor</text></g><g class="message" data-participant-1="APP" data-participant-2="API"><polygon fill="#0A9EFD" points="515.9507,604.1758,525.9507,608.1758,515.9507,612.1758,519.9507,608.1758" style="stroke:#0A9EFD;stroke-width:1;"/><line style="stroke:#0A9EFD;stroke-width:2;" x1="146.3174" x2="521.9507" y1="608.1758" y2="608.1758"/><text fill="#0A9EFD" font-family="Arial" font-size="13" lengthAdjust="spacing" textLength="312.8442" x="180.7119" y="603.4209">track.pipe(processor).pipe(track.processorDestination)</text></g><g class="message" data-participant-1="APP" data-participant-2="API"><polygon fill="#0A9EFD" points="515.9507,633.1245,525.9507,637.1245,515.9507,641.1245,519.9507,637.1245" style="stroke:#0A9EFD;stroke-width:1;"/><line style="stroke:#0A9EFD;stroke-width:2;" x1="146.3174" x2="521.9507" y1="637.1245" y2="637.1245"/><text fill="#0A9EFD" font-family="Arial" font-size="13" lengthAdjust="spacing" textLength="57.0718" x="308.5981" y="632.3696">track.Play</text></g><g class="message" data-participant-1="APP" data-participant-2="EXT"><polygon fill="#0A9EFD" points="610.4702,662.0732,620.4702,666.0732,610.4702,670.0732,614.4702,666.0732" style="stroke:#0A9EFD;stroke-width:1;"/><line style="stroke:#0A9EFD;stroke-width:2;" x1="146.3174" x2="616.4702" y1="666.0732" y2="666.0732"/><text fill="#0A9EFD" font-family="Arial" font-size="13" lengthAdjust="spacing" textLength="205.2324" x="281.7776" y="661.3184">processor.updatePlayerPositionInfo</text></g><path d="M98.5933,688.0732 L192.0195,688.0732 L192.0195,695.022 L182.0195,705.022 L98.5933,705.022 L98.5933,688.0732" fill="#EEEEEE" style="stroke:#0A9EFD;stroke-width:1.5;"/><rect fill="none" height="132.7437" style="stroke:#0A9EFD;stroke-width:2;" width="582.1284" x="98.5933" y="688.0732"/><text fill="#000000" font-family="Arial" font-size="13" lengthAdjust="spacing" textLength="48.4263" x="113.5933" y="701.2671">Cleanup</text><g class="message" data-participant-1="API" data-participant-2="APP"><polygon fill="#0A9EFD" points="157.3174,721.9707,147.3174,725.9707,157.3174,729.9707,153.3174,725.9707" style="stroke:#0A9EFD;stroke-width:1;"/><line style="stroke:#0A9EFD;stroke-width:2;" x1="151.3174" x2="526.9507" y1="725.9707" y2="725.9707"/><text fill="#0A9EFD" font-family="Arial" font-size="13" lengthAdjust="spacing" textLength="166.042" x="254.113" y="721.2158">client.on("user-unpublished")</text></g><g class="message" data-participant-1="APP" data-participant-2="EXT"><polygon fill="#0A9EFD" points="610.4702,750.9194,620.4702,754.9194,610.4702,758.9194,614.4702,754.9194" style="stroke:#0A9EFD;stroke-width:1;"/><line style="stroke:#0A9EFD;stroke-width:2;" x1="146.3174" x2="616.4702" y1="754.9194" y2="754.9194"/><text fill="#0A9EFD" font-family="Arial" font-size="13" lengthAdjust="spacing" textLength="195.8062" x="286.4907" y="750.1646">processor.removeRemotePosition</text></g><g class="message" data-participant-1="API" data-participant-2="APP"><polygon fill="#0A9EFD" points="157.3174,779.8682,147.3174,783.8682,157.3174,787.8682,153.3174,783.8682" style="stroke:#0A9EFD;stroke-width:1;"/><line style="stroke:#0A9EFD;stroke-width:2;" x1="151.3174" x2="526.9507" y1="783.8682" y2="783.8682"/><text fill="#0A9EFD" font-family="Arial" font-size="13" lengthAdjust="spacing" textLength="96.0972" x="289.0854" y="779.1133">AgoraRTC.leave</text></g><g class="message" data-participant-1="APP" data-participant-2="EXT"><polygon fill="#0A9EFD" points="610.4702,808.8169,620.4702,812.8169,610.4702,816.8169,614.4702,812.8169" style="stroke:#0A9EFD;stroke-width:1;"/><line style="stroke:#0A9EFD;stroke-width:2;" x1="146.3174" x2="616.4702" y1="812.8169" y2="812.8169"/><text fill="#0A9EFD" font-family="Arial" font-size="13" lengthAdjust="spacing" textLength="180.6353" x="294.0762" y="808.062">processor.clearRemotePosition</text></g><!--SRC=[fLFBYjj04BpFLtHqoVfW4SZDX83Nzc4J24BoGWA1fJrgsPqTpmppM9nyL3uYNvRHmqval6PXBqPMLrTLLxVUi9OgrWIuDGuV_2FhdEDUYVR9eiCzt9f3WNNDUWlltmc1CXW7sRqdbm5wkAzA8JRc0Dat4nsWjPb8ZO4bMzG1idAzW6hvkGFFYqAGhY7XXwPvgtlMKItBzPS_luUEkxEYnS2eO1vhDjyrh0w1j6UZE_Zgw_gVG5A3wSUMOWQTJhAIIqSOQA6OT11RPwA5YaBw3Ji2Fv1ZImvqfBxCv6ZBFf1RdSEIYTcHghDvGkJHracz8jKKndDecv9T8LAAlK0nWq-6DInsg3MfYygz-Vn7mebXX99GyIy2HtiJ26BQpbi_7gUZ-Z3jgMHFOVHDrcAdDcuK-ntLsUIQf8yRBnrlw0MZza4NpaZothWHRMzpxL0-vfOjtTWZRDB_3ttf-7P9Fh36Dg_9iqI5mfyZNwVs8VQo0u-37ovWlFUc8HcWINU-fveHR68cDrfIApPK6rPqxTPkO-9pLVew97KPTNPVcM1uVNRXPQaLtV37rEvqO_vFRg48TRHNZolg2-TrfjKkykbyGoFMKwf9yOcUeP6fw2xi-Iy0]--></g></svg>