<svg xmlns="http://www.w3.org/2000/svg" xmlns:xlink="http://www.w3.org/1999/xlink" contentStyleType="text/css" data-diagram-type="SEQUENCE" height="667px" preserveAspectRatio="none" style="width:737px;height:667px;" version="1.1" viewBox="0 0 737 667" width="737px" zoomAndPan="magnify"><defs/><g><rect fill="none" height="665.377" style="stroke:#0A9EFD;stroke-width:1;" width="735.2021" x="0" y="0"/><rect fill="#999999" fill-opacity="0.33333" height="655.377" style="stroke:#0A9EFD;stroke-width:0.5;" width="357.5259" x="117.8511" y="6"/><text fill="#0A9EFD" font-family="sans-serif" font-size="13" font-weight="bold" lengthAdjust="spacing" textLength="136.5508" x="228.3386" y="19.4951">Your client and server</text><rect fill="#999999" fill-opacity="0.33333" height="655.377" style="stroke:#0A9EFD;stroke-width:0.5;" width="187.8252" x="537.377" y="6"/><text fill="#0A9EFD" font-family="sans-serif" font-size="13" font-weight="bold" lengthAdjust="spacing" textLength="37.5591" x="612.51" y="19.4951">Agora</text><rect fill="#0A9EFD" fill-opacity="0.06667" height="74.8462" style="stroke:#0A9EFD;stroke-width:2;" width="619.3511" x="111.8511" y="132.0474"/><rect fill="#0A9EFD" fill-opacity="0.06667" height="132.7437" style="stroke:#0A9EFD;stroke-width:2;" width="619.3511" x="111.8511" y="220.8936"/><rect fill="#0A9EFD" fill-opacity="0.06667" height="74.8462" style="stroke:#0A9EFD;stroke-width:2;" width="619.3511" x="111.8511" y="367.6372"/><rect fill="#0A9EFD" fill-opacity="0.06667" height="74.8462" style="stroke:#0A9EFD;stroke-width:2;" width="619.3511" x="111.8511" y="485.4321"/><g><title>User</title><rect fill="#000000" fill-opacity="0.00000" height="491.1797" width="8" x="18.7793" y="86.0986"/><line style="stroke:#0A9EFD;stroke-width:0.5;stroke-dasharray:5.0,5.0;" x1="22" x2="22" y1="86.0986" y2="577.2783"/></g><g><title>Agora SDK</title><rect fill="#000000" fill-opacity="0.00000" height="491.1797" width="8" x="159.8682" y="86.0986"/><line style="stroke:#0A9EFD;stroke-width:0.5;stroke-dasharray:5.0,5.0;" x1="163.8511" x2="163.8511" y1="86.0986" y2="577.2783"/></g><g><title>Your Server</title><rect fill="#000000" fill-opacity="0.00000" height="491.1797" width="8" x="423.0288" y="86.0986"/><line style="stroke:#0A9EFD;stroke-width:0.5;stroke-dasharray:5.0,5.0;" x1="426.6807" x2="426.6807" y1="86.0986" y2="577.2783"/></g><g><title>SDRTN&#174;</title><rect fill="#000000" fill-opacity="0.00000" height="491.1797" width="8" x="573.645" y="86.0986"/><line style="stroke:#0A9EFD;stroke-width:0.5;stroke-dasharray:5.0,5.0;" x1="577.377" x2="577.377" y1="86.0986" y2="577.2783"/></g><g><title>Local Spatial</title><rect fill="#000000" fill-opacity="0.00000" height="491.1797" width="8" x="668.5576" y="86.0986"/><line style="stroke:#0A9EFD;stroke-width:0.5;stroke-dasharray:5.0,5.0;" x1="671.9131" x2="671.9131" y1="86.0986" y2="577.2783"/></g><g class="participant participant-head" data-participant="USR"><text fill="#0A9EFD" font-family="Arial" font-size="14" lengthAdjust="spacing" textLength="29.5586" x="5" y="83.1318">User</text><ellipse cx="22.7793" cy="16" fill="none" rx="8" ry="8" style="stroke:#0A9EFD;stroke-width:3;"/><path d="M22.7793,24 L22.7793,51 M9.7793,32 L35.7793,32 M22.7793,51 L9.7793,66 M22.7793,51 L35.7793,66" fill="none" style="stroke:#0A9EFD;stroke-width:3;"/></g><g class="participant participant-tail" data-participant="USR"><text fill="#0A9EFD" font-family="Arial" font-size="14" lengthAdjust="spacing" textLength="29.5586" x="5" y="589.4102">User</text><ellipse cx="22.7793" cy="603.377" fill="none" rx="8" ry="8" style="stroke:#0A9EFD;stroke-width:3;"/><path d="M22.7793,611.377 L22.7793,638.377 M9.7793,619.377 L35.7793,619.377 M22.7793,638.377 L9.7793,653.377 M22.7793,638.377 L35.7793,653.377" fill="none" style="stroke:#0A9EFD;stroke-width:3;"/></g><g class="participant participant-head" data-participant="APP"><rect fill="none" height="30.0986" rx="2.5" ry="2.5" style="stroke:#0A9EFD;stroke-width:2;" width="84.0342" x="121.8511" y="55"/><text fill="#0A9EFD" font-family="Arial" font-size="14" lengthAdjust="spacing" textLength="70.0342" x="128.8511" y="75.1318">Agora SDK</text></g><g class="participant participant-tail" data-participant="APP"><rect fill="none" height="30.0986" rx="2.5" ry="2.5" style="stroke:#0A9EFD;stroke-width:2;" width="84.0342" x="121.8511" y="576.2783"/><text fill="#0A9EFD" font-family="Arial" font-size="14" lengthAdjust="spacing" textLength="70.0342" x="128.8511" y="596.4102">Agora SDK</text></g><g class="participant participant-head" data-participant="SVR"><rect fill="none" height="30.0986" rx="2.5" ry="2.5" style="stroke:#0A9EFD;stroke-width:2;" width="88.6963" x="382.6807" y="55"/><text fill="#0A9EFD" font-family="Arial" font-size="14" lengthAdjust="spacing" textLength="74.6963" x="389.6807" y="75.1318">Your Server</text></g><g class="participant participant-tail" data-participant="SVR"><rect fill="none" height="30.0986" rx="2.5" ry="2.5" style="stroke:#0A9EFD;stroke-width:2;" width="88.6963" x="382.6807" y="576.2783"/><text fill="#0A9EFD" font-family="Arial" font-size="14" lengthAdjust="spacing" textLength="74.6963" x="389.6807" y="596.4102">Your Server</text></g><g class="participant participant-head" data-participant="API"><rect fill="none" height="30.0986" rx="2.5" ry="2.5" style="stroke:#0A9EFD;stroke-width:2;" width="72.5361" x="541.377" y="55"/><text fill="#0A9EFD" font-family="Arial" font-size="14" lengthAdjust="spacing" textLength="58.5361" x="548.377" y="75.1318">SDRTN&#174;</text></g><g class="participant participant-tail" data-participant="API"><rect fill="none" height="30.0986" rx="2.5" ry="2.5" style="stroke:#0A9EFD;stroke-width:2;" width="72.5361" x="541.377" y="576.2783"/><text fill="#0A9EFD" font-family="Arial" font-size="14" lengthAdjust="spacing" textLength="58.5361" x="548.377" y="596.4102">SDRTN&#174;</text></g><g class="participant participant-head" data-participant="LSA"><rect fill="none" height="46.1973" rx="2.5" ry="2.5" style="stroke:#0A9EFD;stroke-width:2;" width="97.2891" x="623.9131" y="38.9014"/><text fill="#0A9EFD" font-family="Arial" font-size="14" lengthAdjust="spacing" textLength="80.165" x="632.4751" y="59.0332">Local Spatial</text><text fill="#0A9EFD" font-family="Arial" font-size="14" lengthAdjust="spacing" textLength="83.2891" x="630.9131" y="75.1318">Audio Engine</text></g><g class="participant participant-tail" data-participant="LSA"><rect fill="none" height="46.1973" rx="2.5" ry="2.5" style="stroke:#0A9EFD;stroke-width:2;" width="97.2891" x="623.9131" y="576.2783"/><text fill="#0A9EFD" font-family="Arial" font-size="14" lengthAdjust="spacing" textLength="80.165" x="632.4751" y="596.4102">Local Spatial</text><text fill="#0A9EFD" font-family="Arial" font-size="14" lengthAdjust="spacing" textLength="83.2891" x="630.9131" y="612.5088">Audio Engine</text></g><g class="message" data-participant-1="USR" data-participant-2="APP"><polygon fill="#0A9EFD" points="151.8682,113.0474,161.8682,117.0474,151.8682,121.0474,155.8682,117.0474" style="stroke:#0A9EFD;stroke-width:1;"/><line style="stroke:#0A9EFD;stroke-width:2;" x1="22.7793" x2="157.8682" y1="117.0474" y2="117.0474"/><text fill="#0A9EFD" font-family="Arial" font-size="13" lengthAdjust="spacing" textLength="117.0889" x="34.7793" y="112.2925">Enable spatial audio</text></g><path d="M111.8511,132.0474 L362.8198,132.0474 L362.8198,138.9961 L352.8198,148.9961 L111.8511,148.9961 L111.8511,132.0474" fill="#EEEEEE" style="stroke:#0A9EFD;stroke-width:1.5;"/><rect fill="none" height="74.8462" style="stroke:#0A9EFD;stroke-width:2;" width="619.3511" x="111.8511" y="132.0474"/><text fill="#000000" font-family="Arial" font-size="13" lengthAdjust="spacing" textLength="205.9688" x="126.8511" y="145.2412">Initialize Local Spatial Audio Engine</text><g class="message" data-participant-1="APP" data-participant-2="LSA"><polygon fill="#0A9EFD" points="660.5576,165.9448,670.5576,169.9448,660.5576,173.9448,664.5576,169.9448" style="stroke:#0A9EFD;stroke-width:1;"/><line style="stroke:#0A9EFD;stroke-width:2;" x1="163.8682" x2="666.5576" y1="169.9448" y2="169.9448"/><text fill="#0A9EFD" font-family="Arial" font-size="13" lengthAdjust="spacing" textLength="188.627" x="323.8994" y="165.1899">Create local spatial audio engine</text></g><g class="message" data-participant-1="APP" data-participant-2="LSA"><polygon fill="#0A9EFD" points="660.5576,194.8936,670.5576,198.8936,660.5576,202.8936,664.5576,198.8936" style="stroke:#0A9EFD;stroke-width:1;"/><line style="stroke:#0A9EFD;stroke-width:2;" x1="163.8682" x2="666.5576" y1="198.8936" y2="198.8936"/><text fill="#0A9EFD" font-family="Arial" font-size="13" lengthAdjust="spacing" textLength="111.2998" x="362.563" y="194.1387">Initialize the engine</text></g><path d="M111.8511,220.8936 L328.1108,220.8936 L328.1108,227.8423 L318.1108,237.8423 L111.8511,237.8423 L111.8511,220.8936" fill="#EEEEEE" style="stroke:#0A9EFD;stroke-width:1.5;"/><rect fill="none" height="132.7437" style="stroke:#0A9EFD;stroke-width:2;" width="619.3511" x="111.8511" y="220.8936"/><text fill="#000000" font-family="Arial" font-size="13" lengthAdjust="spacing" textLength="171.2598" x="126.8511" y="234.0874">Spatial audio effects for users</text><g class="message" data-participant-1="APP" data-participant-2="SVR"><polygon fill="#0A9EFD" points="415.0288,254.791,425.0288,258.791,415.0288,262.791,419.0288,258.791" style="stroke:#0A9EFD;stroke-width:1;"/><line style="stroke:#0A9EFD;stroke-width:2;" x1="163.8682" x2="421.0288" y1="258.791" y2="258.791"/><text fill="#0A9EFD" font-family="Arial" font-size="13" lengthAdjust="spacing" textLength="150.3188" x="220.2891" y="254.0361">Send local spatial position</text></g><g class="message" data-participant-1="SVR" data-participant-2="APP"><polygon fill="#0A9EFD" points="174.8682,283.7397,164.8682,287.7397,174.8682,291.7397,170.8682,287.7397" style="stroke:#0A9EFD;stroke-width:1;"/><line style="stroke:#0A9EFD;stroke-width:2;" x1="168.8682" x2="426.0288" y1="287.7397" y2="287.7397"/><text fill="#0A9EFD" font-family="Arial" font-size="13" lengthAdjust="spacing" textLength="239.1606" x="175.8682" y="282.9849">Receive spatial position of remote user(s)</text></g><g class="message" data-participant-1="APP" data-participant-2="LSA"><polygon fill="#0A9EFD" points="660.5576,312.6885,670.5576,316.6885,660.5576,320.6885,664.5576,316.6885" style="stroke:#0A9EFD;stroke-width:1;"/><line style="stroke:#0A9EFD;stroke-width:2;" x1="163.8682" x2="666.5576" y1="316.6885" y2="316.6885"/><text fill="#0A9EFD" font-family="Arial" font-size="13" lengthAdjust="spacing" textLength="138.0298" x="349.198" y="311.9336">Call update self position</text></g><g class="message" data-participant-1="APP" data-participant-2="LSA"><polygon fill="#0A9EFD" points="660.5576,341.6372,670.5576,345.6372,660.5576,349.6372,664.5576,345.6372" style="stroke:#0A9EFD;stroke-width:1;"/><line style="stroke:#0A9EFD;stroke-width:2;" x1="163.8682" x2="666.5576" y1="345.6372" y2="345.6372"/><text fill="#0A9EFD" font-family="Arial" font-size="13" lengthAdjust="spacing" textLength="158.2598" x="339.083" y="340.8823">Call update remote position</text></g><path d="M111.8511,367.6372 L370.748,367.6372 L370.748,374.5859 L360.748,384.5859 L111.8511,384.5859 L111.8511,367.6372" fill="#EEEEEE" style="stroke:#0A9EFD;stroke-width:1.5;"/><rect fill="none" height="74.8462" style="stroke:#0A9EFD;stroke-width:2;" width="619.3511" x="111.8511" y="367.6372"/><text fill="#000000" font-family="Arial" font-size="13" lengthAdjust="spacing" textLength="213.897" x="126.8511" y="380.8311">Spatial audio effects for media player</text><g class="message" data-participant-1="APP" data-participant-2="LSA"><polygon fill="#0A9EFD" points="660.5576,401.5347,670.5576,405.5347,660.5576,409.5347,664.5576,405.5347" style="stroke:#0A9EFD;stroke-width:1;"/><line style="stroke:#0A9EFD;stroke-width:2;" x1="163.8682" x2="666.5576" y1="405.5347" y2="405.5347"/><text fill="#0A9EFD" font-family="Arial" font-size="13" lengthAdjust="spacing" textLength="174.1606" x="331.1326" y="400.7798">Set spatial position of the user</text></g><g class="message" data-participant-1="APP" data-participant-2="LSA"><polygon fill="#0A9EFD" points="660.5576,430.4834,670.5576,434.4834,660.5576,438.4834,664.5576,434.4834" style="stroke:#0A9EFD;stroke-width:1;"/><line style="stroke:#0A9EFD;stroke-width:2;" x1="163.8682" x2="666.5576" y1="434.4834" y2="434.4834"/><text fill="#0A9EFD" font-family="Arial" font-size="13" lengthAdjust="spacing" textLength="223.2979" x="306.564" y="429.7285">Set spatial position of the media player</text></g><g class="message" data-participant-1="APP" data-participant-2="API"><polygon fill="#0A9EFD" points="174.8682,466.4321,164.8682,470.4321,174.8682,474.4321,170.8682,470.4321" style="stroke:#0A9EFD;stroke-width:1;"/><polygon fill="#0A9EFD" points="565.645,466.4321,575.645,470.4321,565.645,474.4321,569.645,470.4321" style="stroke:#0A9EFD;stroke-width:1;"/><line style="stroke:#0A9EFD;stroke-width:2;" x1="168.8682" x2="571.645" y1="470.4321" y2="470.4321"/><text fill="#0A9EFD" font-family="Arial" font-size="13" lengthAdjust="spacing" textLength="177.7915" x="281.8608" y="465.6772">Send and receive spatial audio</text></g><path d="M111.8511,485.4321 L208.8892,485.4321 L208.8892,492.3809 L198.8892,502.3809 L111.8511,502.3809 L111.8511,485.4321" fill="#EEEEEE" style="stroke:#0A9EFD;stroke-width:1.5;"/><rect fill="none" height="74.8462" style="stroke:#0A9EFD;stroke-width:2;" width="619.3511" x="111.8511" y="485.4321"/><text fill="#000000" font-family="Arial" font-size="13" lengthAdjust="spacing" textLength="52.0381" x="126.8511" y="498.626">Clean up</text><g class="message" data-participant-1="APP" data-participant-2="LSA"><polygon fill="#0A9EFD" points="660.5576,519.3296,670.5576,523.3296,660.5576,527.3296,664.5576,523.3296" style="stroke:#0A9EFD;stroke-width:1;"/><line style="stroke:#0A9EFD;stroke-width:2;" x1="163.8682" x2="666.5576" y1="523.3296" y2="523.3296"/><text fill="#0A9EFD" font-family="Arial" font-size="13" lengthAdjust="spacing" textLength="130.0571" x="353.1843" y="518.5747">Clear remote positions</text></g><g class="message" data-participant-1="APP" data-participant-2="LSA"><polygon fill="#0A9EFD" points="660.5576,548.2783,670.5576,552.2783,660.5576,556.2783,664.5576,552.2783" style="stroke:#0A9EFD;stroke-width:1;"/><line style="stroke:#0A9EFD;stroke-width:2;" x1="163.8682" x2="666.5576" y1="552.2783" y2="552.2783"/><text fill="#0A9EFD" font-family="Arial" font-size="13" lengthAdjust="spacing" textLength="150.3125" x="343.0566" y="547.5234">Destroy the spatial engine</text></g><!--SRC=[ZPB1JW8n48RlVOgHanum9jw8CK7mG2I6K34nCJ73xYmsbdRJTWduK3w4J-QqW50WqTkc-y_t__-qPyeKkYa9S6OTllaFPIvLCzSYVjNeS0vtTZd2ibHc1jTNGc0Hh8FMn9Dh0NgOoB4GKxk4rejj71HQaGc0fWHMB5Wa61DKeMhayrOt-e3iFwJXxcYK_quCkHwC0ldCT68OEsni4k60AllZfyVlhmrpaFySsW8ro1g3GlrgkasfBDoRcJAK1eQokxFWEj2-ZS4whC6f9l3hIS0uACJCsQQ6WL7nK7qIP7pOnml6H1exTA3d20E1JkgC2NIitkE7TzegEEOsWCm9LKL5y53ntJIyUB-5yG8xl52kbnlNrhE1DKbtqrxhnbIGMj2H26m5ZkQMuqVukR_8cw7MqDHbhET9Lpdyb6e3-zMbNdyMcrEf46gDAt8PMb8ucJbkBWR-jpXpIA7MwuaFOh3POtpQxc1HsTFeQKB3JVFsVEWEU_jCqYSVd5sb85lmxjv_0000]--></g></svg>