<svg xmlns="http://www.w3.org/2000/svg" xmlns:xlink="http://www.w3.org/1999/xlink" contentStyleType="text/css" data-diagram-type="SEQUENCE" height="344px" preserveAspectRatio="none" style="width:624px;height:344px;" version="1.1" viewBox="0 0 624 344" width="624px" zoomAndPan="magnify"><defs/><g><rect fill="none" height="342.2747" style="stroke:#0A9EFD;stroke-width:1;" width="622.8727" x="0" y="0"/><rect fill="#999999" fill-opacity="0.33333" height="332.2747" style="stroke:#0A9EFD;stroke-width:0.5;" width="50.6667" x="16" y="6"/><text fill="#0A9EFD" font-family="sans-serif" font-size="13" font-weight="bold" lengthAdjust="spacing" textLength="25.27" x="28.6983" y="19.4951">App</text><rect fill="#999999" fill-opacity="0.33333" height="332.2747" style="stroke:#0A9EFD;stroke-width:0.5;" width="79.7026" x="205.5024" y="6"/><text fill="#0A9EFD" font-family="sans-serif" font-size="13" font-weight="bold" lengthAdjust="spacing" textLength="73.7026" x="208.5024" y="19.4951">Your Server</text><rect fill="#999999" fill-opacity="0.33333" height="332.2747" style="stroke:#0A9EFD;stroke-width:0.5;" width="63.7764" x="389.91" y="6"/><text fill="#0A9EFD" font-family="sans-serif" font-size="13" font-weight="bold" lengthAdjust="spacing" textLength="57.7764" x="392.91" y="19.4951">RTC SDK</text><rect fill="#999999" fill-opacity="0.33333" height="332.2747" style="stroke:#0A9EFD;stroke-width:0.5;" width="101.5259" x="517.3468" y="6"/><text fill="#0A9EFD" font-family="sans-serif" font-size="13" font-weight="bold" lengthAdjust="spacing" textLength="95.5259" x="520.3468" y="19.4951">Agora SDRTN&#174;</text><rect fill="#0A9EFD" fill-opacity="0.06667" height="191.5898" style="stroke:#0A9EFD;stroke-width:2;" width="589.4431" x="10" y="85.0182"/><g><title>&lt;size:40&gt;&lt;&amp;tablet&gt;</title><rect fill="#000000" fill-opacity="0.00000" height="225.5898" width="8" x="37.3333" y="68.0182"/><line style="stroke:#0A9EFD;stroke-width:0.5;stroke-dasharray:5.0,5.0;" x1="41" x2="41" y1="68.0182" y2="293.6081"/></g><g><title>&lt;size:40&gt;&lt;&amp;hard-drive&gt;</title><rect fill="#000000" fill-opacity="0.00000" height="225.5898" width="8" x="241.3538" y="68.0182"/><line style="stroke:#0A9EFD;stroke-width:0.5;stroke-dasharray:5.0,5.0;" x1="245.0204" x2="245.0204" y1="68.0182" y2="293.6081"/></g><g><title>&lt;size:40&gt;&lt;&amp;layers&gt;</title><rect fill="#000000" fill-opacity="0.00000" height="225.5898" width="8" x="417.7982" y="68.0182"/><line style="stroke:#0A9EFD;stroke-width:0.5;stroke-dasharray:5.0,5.0;" x1="421.4648" x2="421.4648" y1="68.0182" y2="293.6081"/></g><g><title>&lt;size:40&gt;&lt;&amp;cloud&gt;</title><rect fill="#000000" fill-opacity="0.00000" height="225.5898" width="8" x="564.1098" y="68.0182"/><line style="stroke:#0A9EFD;stroke-width:0.5;stroke-dasharray:5.0,5.0;" x1="567.7764" x2="567.7764" y1="68.0182" y2="293.6081"/></g><g class="participant participant-head" data-participant="APP"><rect fill="none" height="40.6667" rx="2.5" ry="2.5" style="stroke:#0A9EFD;stroke-width:2;" width="42.6667" x="20" y="26.3516"/><path d="M29.1333,33.3516 C28.5333,33.3516 28,33.8849 28,34.4849 L28,58.8516 C28,59.4516 28.5333,59.9849 29.1333,59.9849 L50.1667,59.9849 C50.7667,59.9849 51.3,59.4516 51.3,58.8516 L51.3,34.4849 C51.3,33.8849 50.7667,33.3516 50.1667,33.3516 L29.1333,33.3516 M31.3333,36.6849 L48,36.6849 L48,53.3516 L31.3333,53.3516 L31.3333,36.6849 M39.6667,55.0182 C40.9333,55.0182 41.7667,56.4182 41.1333,57.5182 C40.5,58.6182 38.8667,58.6182 38.2,57.5182 C37.5667,56.4182 38.3667,55.0182 39.6667,55.0182" fill="#0A9EFD"/></g><g class="participant participant-tail" data-participant="APP"><rect fill="none" height="40.6667" rx="2.5" ry="2.5" style="stroke:#0A9EFD;stroke-width:2;" width="42.6667" x="20" y="292.6081"/><path d="M29.1333,299.6081 C28.5333,299.6081 28,300.1414 28,300.7414 L28,325.1081 C28,325.7081 28.5333,326.2414 29.1333,326.2414 L50.1667,326.2414 C50.7667,326.2414 51.3,325.7081 51.3,325.1081 L51.3,300.7414 C51.3,300.1414 50.7667,299.6081 50.1667,299.6081 L29.1333,299.6081 M31.3333,302.9414 L48,302.9414 L48,319.6081 L31.3333,319.6081 L31.3333,302.9414 M39.6667,321.2747 C40.9333,321.2747 41.7667,322.6747 41.1333,323.7747 C40.5,324.8747 38.8667,324.8747 38.2,323.7747 C37.5667,322.6747 38.3667,321.2747 39.6667,321.2747" fill="#0A9EFD"/></g><g class="participant participant-head" data-participant="SVR"><rect fill="none" height="40.6667" rx="2.5" ry="2.5" style="stroke:#0A9EFD;stroke-width:2;" width="42.6667" x="224.0204" y="26.3516"/><path d="M232.6538,33.3516 C232.2871,33.3516 232.0204,33.6182 232.0204,33.9849 L232.0204,45.0182 C232.0204,45.9516 232.7538,46.6849 233.6871,46.6849 L253.6871,46.6849 C254.6204,46.6849 255.3538,45.9516 255.3538,45.0182 L255.3538,33.9849 C255.3538,33.6182 255.0871,33.3516 254.7204,33.3516 L232.6204,33.3516 M232.0204,49.7182 L232.0204,59.4182 C232.0204,59.7849 232.2871,60.0516 232.6538,60.0516 L254.7538,60.0516 C255.1204,60.0516 255.3871,59.7849 255.3871,59.4182 L255.3871,49.7182 C254.8538,49.9182 254.3204,50.0182 253.7204,50.0182 L233.7204,50.0182 C233.1204,50.0182 232.5871,49.8849 232.0538,49.7182 M250.3538,53.3516 C251.2871,53.3516 252.0204,54.0849 252.0204,55.0182 C252.0204,55.9516 251.2871,56.6849 250.3538,56.6849 C249.4204,56.6849 248.6871,55.9516 248.6871,55.0182 C248.6871,54.0849 249.4204,53.3516 250.3538,53.3516" fill="#0A9EFD"/></g><g class="participant participant-tail" data-participant="SVR"><rect fill="none" height="40.6667" rx="2.5" ry="2.5" style="stroke:#0A9EFD;stroke-width:2;" width="42.6667" x="224.0204" y="292.6081"/><path d="M232.6538,299.6081 C232.2871,299.6081 232.0204,299.8747 232.0204,300.2414 L232.0204,311.2747 C232.0204,312.2081 232.7538,312.9414 233.6871,312.9414 L253.6871,312.9414 C254.6204,312.9414 255.3538,312.2081 255.3538,311.2747 L255.3538,300.2414 C255.3538,299.8747 255.0871,299.6081 254.7204,299.6081 L232.6204,299.6081 M232.0204,315.9747 L232.0204,325.6747 C232.0204,326.0414 232.2871,326.3081 232.6538,326.3081 L254.7538,326.3081 C255.1204,326.3081 255.3871,326.0414 255.3871,325.6747 L255.3871,315.9747 C254.8538,316.1747 254.3204,316.2747 253.7204,316.2747 L233.7204,316.2747 C233.1204,316.2747 232.5871,316.1414 232.0538,315.9747 M250.3538,319.6081 C251.2871,319.6081 252.0204,320.3414 252.0204,321.2747 C252.0204,322.2081 251.2871,322.9414 250.3538,322.9414 C249.4204,322.9414 248.6871,322.2081 248.6871,321.2747 C248.6871,320.3414 249.4204,319.6081 250.3538,319.6081" fill="#0A9EFD"/></g><g class="participant participant-head" data-participant="SDK"><rect fill="none" height="40.6667" rx="2.5" ry="2.5" style="stroke:#0A9EFD;stroke-width:2;" width="42.6667" x="400.4648" y="26.3516"/><path d="M408.4648,33.3516 L408.4648,46.6849 L421.7982,46.6849 L421.7982,33.3516 L408.4648,33.3516 M425.1315,40.0182 L425.1315,50.0182 L415.1315,50.0182 L415.1315,53.3516 L428.4648,53.3516 L428.4648,40.0182 L425.1315,40.0182 M431.7982,46.6849 L431.7982,56.6849 L421.7982,56.6849 L421.7982,60.0182 L435.1315,60.0182 L435.1315,46.6849 L431.7982,46.6849" fill="#0A9EFD"/></g><g class="participant participant-tail" data-participant="SDK"><rect fill="none" height="40.6667" rx="2.5" ry="2.5" style="stroke:#0A9EFD;stroke-width:2;" width="42.6667" x="400.4648" y="292.6081"/><path d="M408.4648,299.6081 L408.4648,312.9414 L421.7982,312.9414 L421.7982,299.6081 L408.4648,299.6081 M425.1315,306.2747 L425.1315,316.2747 L415.1315,316.2747 L415.1315,319.6081 L428.4648,319.6081 L428.4648,306.2747 L425.1315,306.2747 M431.7982,312.9414 L431.7982,322.9414 L421.7982,322.9414 L421.7982,326.2747 L435.1315,326.2747 L435.1315,312.9414 L431.7982,312.9414" fill="#0A9EFD"/></g><g class="participant participant-head" data-participant="RTN"><rect fill="none" height="40.6667" rx="2.5" ry="2.5" style="stroke:#0A9EFD;stroke-width:2;" width="42.6667" x="546.7764" y="26.3516"/><path d="M569.7764,36.6849 C565.7431,36.6849 562.2098,39.5516 561.4431,43.3516 C557.7764,43.3516 554.7764,46.3516 554.7764,50.0182 C554.7764,53.6849 557.7764,56.6849 561.4431,56.6849 L576.4431,56.6849 C579.2098,56.6849 581.4431,54.4516 581.4431,51.6849 C581.4431,49.5182 580.0431,47.3849 578.1098,46.6849 L578.1098,45.0182 C578.1098,40.4182 574.3764,36.6849 569.7764,36.6849" fill="#0A9EFD"/></g><g class="participant participant-tail" data-participant="RTN"><rect fill="none" height="40.6667" rx="2.5" ry="2.5" style="stroke:#0A9EFD;stroke-width:2;" width="42.6667" x="546.7764" y="292.6081"/><path d="M569.7764,302.9414 C565.7431,302.9414 562.2098,305.8081 561.4431,309.6081 C557.7764,309.6081 554.7764,312.6081 554.7764,316.2747 C554.7764,319.9414 557.7764,322.9414 561.4431,322.9414 L576.4431,322.9414 C579.2098,322.9414 581.4431,320.7081 581.4431,317.9414 C581.4431,315.7747 580.0431,313.6414 578.1098,312.9414 L578.1098,311.2747 C578.1098,306.6747 574.3764,302.9414 569.7764,302.9414" fill="#0A9EFD"/></g><path d="M10,85.0182 L175.6943,85.0182 L175.6943,91.967 L165.6943,101.967 L10,101.967 L10,85.0182" fill="#EEEEEE" style="stroke:#0A9EFD;stroke-width:1.5;"/><rect fill="none" height="191.5898" style="stroke:#0A9EFD;stroke-width:2;" width="589.4431" x="10" y="85.0182"/><text fill="#000000" font-family="Arial" font-size="13" lengthAdjust="spacing" textLength="120.6943" x="25" y="98.2121">Token authentication</text><g class="message" data-participant-1="APP" data-participant-2="SVR"><polygon fill="#0A9EFD" points="233.3538,133.8644,243.3538,137.8644,233.3538,141.8644,237.3538,137.8644" style="stroke:#0A9EFD;stroke-width:1;"/><line style="stroke:#0A9EFD;stroke-width:2;" x1="41.3333" x2="239.3538" y1="137.8644" y2="137.8644"/><text fill="#0A9EFD" font-family="Arial" font-size="13" lengthAdjust="spacing" textLength="94.6753" x="96.0059" y="118.1608">Request a token</text><text fill="#0A9EFD" font-family="Arial" font-size="13" lengthAdjust="spacing" textLength="165.5024" x="60.5923" y="133.1095">with a uid and channel name</text></g><g class="message" data-participant-1="SVR" data-participant-2="APP"><polygon fill="#0A9EFD" points="52.3333,162.8132,42.3333,166.8132,52.3333,170.8132,48.3333,166.8132" style="stroke:#0A9EFD;stroke-width:1;"/><line style="stroke:#0A9EFD;stroke-width:2;stroke-dasharray:2.0,2.0;" x1="46.3333" x2="244.3538" y1="166.8132" y2="166.8132"/><text fill="#0A9EFD" font-family="Arial" font-size="13" lengthAdjust="spacing" textLength="163.3315" x="61.6778" y="162.0583">Generate and return a token</text></g><g class="message" data-participant-1="APP" data-participant-2="SDK"><polygon fill="#0A9EFD" points="409.7982,206.7106,419.7982,210.7106,409.7982,214.7106,413.7982,210.7106" style="stroke:#0A9EFD;stroke-width:1;"/><line style="stroke:#0A9EFD;stroke-width:2;" x1="41.3333" x2="415.7982" y1="210.7106" y2="210.7106"/><text fill="#0A9EFD" font-family="Arial" font-size="13" lengthAdjust="spacing" textLength="320.874" x="71.1287" y="191.007">Join the corresponding channel with uid, channel name,</text><text fill="#0A9EFD" font-family="Arial" font-size="13" lengthAdjust="spacing" textLength="57.1035" x="204.8199" y="205.9557">and token</text></g><g class="message" data-participant-1="SDK" data-participant-2="RTN"><polygon fill="#0A9EFD" points="432.7982,235.6593,422.7982,239.6593,432.7982,243.6593,428.7982,239.6593" style="stroke:#0A9EFD;stroke-width:1;"/><polygon fill="#0A9EFD" points="556.1098,235.6593,566.1098,239.6593,556.1098,243.6593,560.1098,239.6593" style="stroke:#0A9EFD;stroke-width:1;"/><line style="stroke:#0A9EFD;stroke-width:2;stroke-dasharray:2.0,2.0;" x1="426.7982" x2="562.1098" y1="239.6593" y2="239.6593"/><text fill="#0A9EFD" font-family="Arial" font-size="13" lengthAdjust="spacing" textLength="90.3271" x="449.7904" y="234.9045">Verify the token</text></g><g class="message" data-participant-1="SDK" data-participant-2="APP"><polygon fill="#0A9EFD" points="52.3333,264.6081,42.3333,268.6081,52.3333,272.6081,48.3333,268.6081" style="stroke:#0A9EFD;stroke-width:1;"/><line style="stroke:#0A9EFD;stroke-width:2;stroke-dasharray:2.0,2.0;" x1="46.3333" x2="420.7982" y1="268.6081" y2="268.6081"/><text fill="#0A9EFD" font-family="Arial" font-size="13" lengthAdjust="spacing" textLength="181.3906" x="140.8704" y="263.8532">Successfully joined the channel</text></g><!--SRC=[TT3FIiD040RmUvvYpC5J8nuyXH8e5WGBKf9I40eopKwRjTlPk7-gzQ5y29_CQL8h5dhStVb-NoPNcciJ5G6khSCNlz5ye-FM9CdIVa0wQjiqQT45NUiMEK0wzFgJyhlROdWTS6ae52cWXz5qcX0haDGn-coZWuhSZjnbea6dCkNqZdgccfTdJ3cxXseykKmOt9Fpn_XuSXOV7TQI-tBszFrr6QcDZQetPFBFM3iRMvZP3J5W30snn35eoubid1NolJcKz1R91q08Xy45l-lGo2bg1IXItI0p6M3SqY4spB8kzq1C3WDrGuv2TFnh7FNn98T7gnca6Mhh7FdMijAyFg5TbpGD_jKC5jofFIQET1QoMGvpSdgrxy3Jexn9NmvLh6loVXMDsSEhz9Bgctlvy5kI7m00]--></g></svg>