<svg xmlns="http://www.w3.org/2000/svg" xmlns:xlink="http://www.w3.org/1999/xlink" contentStyleType="text/css" data-diagram-type="SEQUENCE" height="844px" preserveAspectRatio="none" style="width:495px;height:844px;" version="1.1" viewBox="0 0 495 844" width="495px" zoomAndPan="magnify"><defs/><g><rect fill="none" height="842.9668" style="stroke:#0A9EFD;stroke-width:1;" width="493.7759" x="0" y="0"/><rect fill="#999999" fill-opacity="0.33333" height="832.9668" style="stroke:#0A9EFD;stroke-width:0.5;" width="83.4482" x="100.2769" y="6"/><text fill="#0A9EFD" font-family="sans-serif" font-size="13" font-weight="bold" lengthAdjust="spacing" textLength="56.3354" x="113.8333" y="19.4951">Your app</text><rect fill="#999999" fill-opacity="0.33333" height="832.9668" style="stroke:#0A9EFD;stroke-width:0.5;" width="80.5361" x="403.2397" y="6"/><text fill="#0A9EFD" font-family="sans-serif" font-size="13" font-weight="bold" lengthAdjust="spacing" textLength="37.5591" x="424.7283" y="19.4951">Agora</text><rect fill="#0A9EFD" fill-opacity="0.06667" height="333.3335" style="stroke:#0A9EFD;stroke-width:2;" width="479.7759" x="10" y="245.8423"/><g><title>User</title><rect fill="#000000" fill-opacity="0.00000" height="668.7695" width="8" x="33.7793" y="86.0986"/><line style="stroke:#0A9EFD;stroke-width:0.5;stroke-dasharray:5.0,5.0;" x1="37" x2="37" y1="86.0986" y2="754.8682"/></g><g><title>RTC SDK</title><rect fill="#000000" fill-opacity="0.00000" height="668.7695" width="8" x="138.001" y="86.0986"/><line style="stroke:#0A9EFD;stroke-width:0.5;stroke-dasharray:5.0,5.0;" x1="141.2769" x2="141.2769" y1="86.0986" y2="754.8682"/></g><g><title>SDRTN&#174;</title><rect fill="#000000" fill-opacity="0.00000" height="668.7695" width="8" x="439.5078" y="86.0986"/><line style="stroke:#0A9EFD;stroke-width:0.5;stroke-dasharray:5.0,5.0;" x1="443.2397" x2="443.2397" y1="86.0986" y2="754.8682"/></g><g class="participant participant-head" data-participant="USR"><text fill="#0A9EFD" font-family="Arial" font-size="14" lengthAdjust="spacing" textLength="29.5586" x="20" y="83.1318">User</text><ellipse cx="37.7793" cy="16" fill="none" rx="8" ry="8" style="stroke:#0A9EFD;stroke-width:3;"/><path d="M37.7793,24 L37.7793,51 M24.7793,32 L50.7793,32 M37.7793,51 L24.7793,66 M37.7793,51 L50.7793,66" fill="none" style="stroke:#0A9EFD;stroke-width:3;"/></g><g class="participant participant-tail" data-participant="USR"><text fill="#0A9EFD" font-family="Arial" font-size="14" lengthAdjust="spacing" textLength="29.5586" x="20" y="767">User</text><ellipse cx="37.7793" cy="780.9668" fill="none" rx="8" ry="8" style="stroke:#0A9EFD;stroke-width:3;"/><path d="M37.7793,788.9668 L37.7793,815.9668 M24.7793,796.9668 L50.7793,796.9668 M37.7793,815.9668 L24.7793,830.9668 M37.7793,815.9668 L50.7793,830.9668" fill="none" style="stroke:#0A9EFD;stroke-width:3;"/></g><g class="participant participant-head" data-participant="APP"><rect fill="none" height="30.0986" rx="2.5" ry="2.5" style="stroke:#0A9EFD;stroke-width:2;" width="75.4482" x="104.2769" y="55"/><text fill="#0A9EFD" font-family="Arial" font-size="14" lengthAdjust="spacing" textLength="61.4482" x="111.2769" y="75.1318">RTC SDK</text></g><g class="participant participant-tail" data-participant="APP"><rect fill="none" height="30.0986" rx="2.5" ry="2.5" style="stroke:#0A9EFD;stroke-width:2;" width="75.4482" x="104.2769" y="753.8682"/><text fill="#0A9EFD" font-family="Arial" font-size="14" lengthAdjust="spacing" textLength="61.4482" x="111.2769" y="774">RTC SDK</text></g><g class="participant participant-head" data-participant="API"><rect fill="none" height="30.0986" rx="2.5" ry="2.5" style="stroke:#0A9EFD;stroke-width:2;" width="72.5361" x="407.2397" y="55"/><text fill="#0A9EFD" font-family="Arial" font-size="14" lengthAdjust="spacing" textLength="58.5361" x="414.2397" y="75.1318">SDRTN&#174;</text></g><g class="participant participant-tail" data-participant="API"><rect fill="none" height="30.0986" rx="2.5" ry="2.5" style="stroke:#0A9EFD;stroke-width:2;" width="72.5361" x="407.2397" y="753.8682"/><text fill="#0A9EFD" font-family="Arial" font-size="14" lengthAdjust="spacing" textLength="58.5361" x="414.2397" y="774">SDRTN&#174;</text></g><g class="message" data-participant-1="USR" data-participant-2="APP"><polygon fill="#0A9EFD" points="130.001,113.0474,140.001,117.0474,130.001,121.0474,134.001,117.0474" style="stroke:#0A9EFD;stroke-width:1;"/><line style="stroke:#0A9EFD;stroke-width:2;" x1="37.7793" x2="136.001" y1="117.0474" y2="117.0474"/><text fill="#0A9EFD" font-family="Arial" font-size="13" lengthAdjust="spacing" textLength="58.5444" x="60.6179" y="112.2925">Open App</text></g><g class="message" data-participant-1="APP" data-participant-2="APP"><line style="stroke:#0A9EFD;stroke-width:2;" x1="142.001" x2="184.001" y1="160.9448" y2="160.9448"/><line style="stroke:#0A9EFD;stroke-width:2;" x1="184.001" x2="184.001" y1="160.9448" y2="173.9448"/><line style="stroke:#0A9EFD;stroke-width:2;" x1="143.001" x2="184.001" y1="173.9448" y2="173.9448"/><polygon fill="#0A9EFD" points="153.001,169.9448,143.001,173.9448,153.001,177.9448,149.001,173.9448" style="stroke:#0A9EFD;stroke-width:1;"/><text fill="#0A9EFD" font-family="Arial" font-size="13" lengthAdjust="spacing" textLength="205.2197" x="149.001" y="141.2412">Initiate the Agora RTC SDK engine:</text><text fill="#0A9EFD" font-family="Arial" font-size="13" lengthAdjust="spacing" textLength="188.2651" x="161.0901" y="156.1899">agoraEngine = RtcEngine.create</text></g><g class="message" data-participant-1="APP" data-participant-2="APP"><line style="stroke:#0A9EFD;stroke-width:2;" x1="142.001" x2="184.001" y1="217.8423" y2="217.8423"/><line style="stroke:#0A9EFD;stroke-width:2;" x1="184.001" x2="184.001" y1="217.8423" y2="230.8423"/><line style="stroke:#0A9EFD;stroke-width:2;" x1="143.001" x2="184.001" y1="230.8423" y2="230.8423"/><polygon fill="#0A9EFD" points="153.001,226.8423,143.001,230.8423,153.001,234.8423,149.001,230.8423" style="stroke:#0A9EFD;stroke-width:1;"/><text fill="#0A9EFD" font-family="Arial" font-size="13" lengthAdjust="spacing" textLength="146.7134" x="154.7869" y="198.1387">Enable the video module:</text><text fill="#0A9EFD" font-family="Arial" font-size="13" lengthAdjust="spacing" textLength="158.2852" x="152.6128" y="213.0874">agoraEngine.enableVideo()</text></g><path d="M10,245.8423 L82.4473,245.8423 L82.4473,252.791 L72.4473,262.791 L10,262.791 L10,245.8423" fill="#EEEEEE" style="stroke:#0A9EFD;stroke-width:1.5;"/><rect fill="none" height="333.3335" style="stroke:#0A9EFD;stroke-width:2;" width="479.7759" x="10" y="245.8423"/><text fill="#000000" font-family="Arial" font-size="13" lengthAdjust="spacing" textLength="27.4473" x="25" y="259.0361">User</text><g class="message" data-participant-1="USR" data-participant-2="APP"><polygon fill="#0A9EFD" points="130.001,279.7397,140.001,283.7397,130.001,287.7397,134.001,283.7397" style="stroke:#0A9EFD;stroke-width:1;"/><line style="stroke:#0A9EFD;stroke-width:2;" x1="37.7793" x2="136.001" y1="283.7397" y2="283.7397"/><text fill="#0A9EFD" font-family="Arial" font-size="13" lengthAdjust="spacing" textLength="57.8081" x="60.9861" y="278.9849">Join a call</text></g><g class="message" data-participant-1="APP" data-participant-2="APP"><line style="stroke:#0A9EFD;stroke-width:2;" x1="142.001" x2="184.001" y1="327.6372" y2="327.6372"/><line style="stroke:#0A9EFD;stroke-width:2;" x1="184.001" x2="184.001" y1="327.6372" y2="340.6372"/><line style="stroke:#0A9EFD;stroke-width:2;" x1="143.001" x2="184.001" y1="340.6372" y2="340.6372"/><polygon fill="#0A9EFD" points="153.001,336.6372,143.001,340.6372,153.001,344.6372,149.001,340.6372" style="stroke:#0A9EFD;stroke-width:1;"/><text fill="#0A9EFD" font-family="Arial" font-size="13" lengthAdjust="spacing" textLength="102.6226" x="229.2227" y="307.9336">Setup local video:</text><text fill="#0A9EFD" font-family="Arial" font-size="13" lengthAdjust="spacing" textLength="259.4541" x="152.6128" y="322.8823">agoraEngine.setupLocalVideo(VideoCanvas)</text></g><g class="message" data-participant-1="APP" data-participant-2="APP"><line style="stroke:#0A9EFD;stroke-width:2;" x1="142.001" x2="184.001" y1="384.5347" y2="384.5347"/><line style="stroke:#0A9EFD;stroke-width:2;" x1="184.001" x2="184.001" y1="384.5347" y2="397.5347"/><line style="stroke:#0A9EFD;stroke-width:2;" x1="143.001" x2="184.001" y1="397.5347" y2="397.5347"/><polygon fill="#0A9EFD" points="153.001,393.5347,143.001,397.5347,153.001,401.5347,149.001,397.5347" style="stroke:#0A9EFD;stroke-width:1;"/><text fill="#0A9EFD" font-family="Arial" font-size="13" lengthAdjust="spacing" textLength="109.8208" x="174.655" y="364.8311">Start local preview:</text><text fill="#0A9EFD" font-family="Arial" font-size="13" lengthAdjust="spacing" textLength="157.5171" x="152.6128" y="379.7798">agoraEngine.startPreview()</text></g><g class="message" data-participant-1="APP" data-participant-2="APP"><line style="stroke:#0A9EFD;stroke-width:2;" x1="142.001" x2="184.001" y1="426.4834" y2="426.4834"/><line style="stroke:#0A9EFD;stroke-width:2;" x1="184.001" x2="184.001" y1="426.4834" y2="439.4834"/><line style="stroke:#0A9EFD;stroke-width:2;" x1="143.001" x2="184.001" y1="439.4834" y2="439.4834"/><polygon fill="#0A9EFD" points="153.001,435.4834,143.001,439.4834,153.001,443.4834,149.001,439.4834" style="stroke:#0A9EFD;stroke-width:1;"/><text fill="#0A9EFD" font-family="Arial" font-size="13" lengthAdjust="spacing" textLength="255.8359" x="149.001" y="421.7285">Retrieve authentication token to join channel</text></g><g class="message" data-participant-1="APP" data-participant-2="API"><polygon fill="#0A9EFD" points="431.5078,479.3809,441.5078,483.3809,431.5078,487.3809,435.5078,483.3809" style="stroke:#0A9EFD;stroke-width:1;"/><line style="stroke:#0A9EFD;stroke-width:2;" x1="142.001" x2="437.5078" y1="483.3809" y2="483.3809"/><text fill="#0A9EFD" font-family="Arial" font-size="13" lengthAdjust="spacing" textLength="98.2935" x="243.6077" y="463.6772">Join the channel:</text><text fill="#0A9EFD" font-family="Arial" font-size="13" lengthAdjust="spacing" textLength="154.6606" x="217.23" y="478.626">agoraEngine.joinChannel()</text></g><g class="message" data-participant-1="API" data-participant-2="APP"><polygon fill="#0A9EFD" points="153.001,523.2783,143.001,527.2783,153.001,531.2783,149.001,527.2783" style="stroke:#0A9EFD;stroke-width:1;"/><line style="stroke:#0A9EFD;stroke-width:2;" x1="147.001" x2="442.5078" y1="527.2783" y2="527.2783"/><text fill="#0A9EFD" font-family="Arial" font-size="13" lengthAdjust="spacing" textLength="116.3398" x="234.5845" y="507.5747">Remote user joined:</text><text fill="#0A9EFD" font-family="Arial" font-size="13" lengthAdjust="spacing" textLength="88.8735" x="250.1235" y="522.5234">onUserJoined()</text></g><g class="message" data-participant-1="APP" data-participant-2="API"><polygon fill="#0A9EFD" points="431.5078,567.1758,441.5078,571.1758,431.5078,575.1758,435.5078,571.1758" style="stroke:#0A9EFD;stroke-width:1;"/><line style="stroke:#0A9EFD;stroke-width:2;" x1="142.001" x2="437.5078" y1="571.1758" y2="571.1758"/><text fill="#0A9EFD" font-family="Arial" font-size="13" lengthAdjust="spacing" textLength="194.3525" x="193.7722" y="551.4722">Display video from a remote user:</text><text fill="#0A9EFD" font-family="Arial" font-size="13" lengthAdjust="spacing" textLength="273.895" x="157.6128" y="566.4209">agoraEngine.setupRemoteVideo(VideoCanvas)</text></g><g class="message" data-participant-1="USR" data-participant-2="APP"><polygon fill="#0A9EFD" points="130.001,603.1245,140.001,607.1245,130.001,611.1245,134.001,607.1245" style="stroke:#0A9EFD;stroke-width:1;"/><line style="stroke:#0A9EFD;stroke-width:2;" x1="37.7793" x2="136.001" y1="607.1245" y2="607.1245"/><text fill="#0A9EFD" font-family="Arial" font-size="13" lengthAdjust="spacing" textLength="80.2217" x="49.7793" y="602.3696">Leave the call</text></g><g class="message" data-participant-1="APP" data-participant-2="API"><polygon fill="#0A9EFD" points="431.5078,647.022,441.5078,651.022,431.5078,655.022,435.5078,651.022" style="stroke:#0A9EFD;stroke-width:1;"/><line style="stroke:#0A9EFD;stroke-width:2;" x1="142.001" x2="437.5078" y1="651.022" y2="651.022"/><text fill="#0A9EFD" font-family="Arial" font-size="13" lengthAdjust="spacing" textLength="109.8652" x="236.0159" y="631.3184">Leave the channel:</text><text fill="#0A9EFD" font-family="Arial" font-size="13" lengthAdjust="spacing" textLength="165.5024" x="211.8091" y="646.2671">agoraEngine.leaveChannel()</text></g><g class="message" data-participant-1="USR" data-participant-2="APP"><polygon fill="#0A9EFD" points="130.001,675.9707,140.001,679.9707,130.001,683.9707,134.001,679.9707" style="stroke:#0A9EFD;stroke-width:1;"/><line style="stroke:#0A9EFD;stroke-width:2;" x1="37.7793" x2="136.001" y1="679.9707" y2="679.9707"/><text fill="#0A9EFD" font-family="Arial" font-size="13" lengthAdjust="spacing" textLength="58.5381" x="60.6211" y="675.2158">Close app</text></g><g class="message" data-participant-1="APP" data-participant-2="APP"><line style="stroke:#0A9EFD;stroke-width:2;" x1="142.001" x2="184.001" y1="723.8682" y2="723.8682"/><line style="stroke:#0A9EFD;stroke-width:2;" x1="184.001" x2="184.001" y1="723.8682" y2="736.8682"/><line style="stroke:#0A9EFD;stroke-width:2;" x1="143.001" x2="184.001" y1="736.8682" y2="736.8682"/><polygon fill="#0A9EFD" points="153.001,732.8682,143.001,736.8682,153.001,740.8682,149.001,736.8682" style="stroke:#0A9EFD;stroke-width:1;"/><text fill="#0A9EFD" font-family="Arial" font-size="13" lengthAdjust="spacing" textLength="146.688" x="149.001" y="704.1646">Clean up local resources:</text><text fill="#0A9EFD" font-family="Arial" font-size="13" lengthAdjust="spacing" textLength="128.6289" x="163.4482" y="719.1133">agoraEngine.destroy()</text></g><!--SRC=[PLFBJYCn4BpxAvevmO5yGBIxKZJX41QnqGIGa92GcUaD1gTjsPu1Vce_Oh-CzaCG9nThFDrLvQwoJnJrUXmGvDOu-UXV5StKkDD2o3uO1ysjHzU0z72xwOHuCk_Gt9lHWRIs4S9A5rIlhAG0JNVJmcRvEtKlrciXa0PWH84jei8XPhFiRgx__okOrHw6zU3yLoIQmn-B10jh1U- -Vgv81IK3GdX6IEHGJW18MqKuXmVASrsaFVo4BlJvUzOxP6n5U47oIMUwIGreO6U6KH_Hp33rtSMMqpCXjiwC5g9FrPalZM8Oz5BhIcM3WTkruKAMcH_G-zXm5UjP8gsjf4dwivefi9E5oJgS5BuTSSMMTQwTrkWEWrCuSV8ZJqmSYGpA40JpYd65bpX0_oo9S6-2LPaikbIAXw8HsEPIqVnndf4TxWm7Dh9NYHw7Y3KKpRjC-_r3Cc2flDNoe-JnrvaTM-g-MOwoIUPbcMFt8Dwk-cPTePnov7LGgwfKvZmKqx7ZUzAAkDN6OtmbbUajGmY-ydVe-Itrw1DrnJsW3yvyHDfF]--></g></svg>