<svg xmlns="http://www.w3.org/2000/svg" xmlns:xlink="http://www.w3.org/1999/xlink" contentStyleType="text/css" data-diagram-type="SEQUENCE" height="760px" preserveAspectRatio="none" style="width:653px;height:760px;" version="1.1" viewBox="0 0 653 760" width="653px" zoomAndPan="magnify"><defs/><g><rect fill="none" height="758.1206" style="stroke:#0A9EFD;stroke-width:1;" width="651.7222" x="0" y="0"/><rect fill="#999999" fill-opacity="0.33333" height="748.1206" style="stroke:#0A9EFD;stroke-width:0.5;" width="83.4482" x="78.5996" y="6"/><text fill="#0A9EFD" font-family="sans-serif" font-size="13" font-weight="bold" lengthAdjust="spacing" textLength="56.3354" x="92.156" y="19.4951">Your app</text><rect fill="#999999" fill-opacity="0.33333" height="748.1206" style="stroke:#0A9EFD;stroke-width:0.5;" width="80.5361" x="561.186" y="6"/><text fill="#0A9EFD" font-family="sans-serif" font-size="13" font-weight="bold" lengthAdjust="spacing" textLength="37.5591" x="582.6746" y="19.4951">Agora</text><rect fill="#0A9EFD" fill-opacity="0.06667" height="406.1797" style="stroke:#0A9EFD;stroke-width:2;" width="637.7222" x="10" y="173.9961"/><g><title>User</title><rect fill="#000000" fill-opacity="0.00000" height="583.9233" width="8" x="33.7793" y="86.0986"/><line style="stroke:#0A9EFD;stroke-width:0.5;stroke-dasharray:5.0,5.0;" x1="37" x2="37" y1="86.0986" y2="670.022"/></g><g><title>RTC SDK</title><rect fill="#000000" fill-opacity="0.00000" height="583.9233" width="8" x="116.3237" y="86.0986"/><line style="stroke:#0A9EFD;stroke-width:0.5;stroke-dasharray:5.0,5.0;" x1="119.5996" x2="119.5996" y1="86.0986" y2="670.022"/></g><g><title>SDRTN&#174;</title><rect fill="#000000" fill-opacity="0.00000" height="583.9233" width="8" x="597.4541" y="86.0986"/><line style="stroke:#0A9EFD;stroke-width:0.5;stroke-dasharray:5.0,5.0;" x1="601.186" x2="601.186" y1="86.0986" y2="670.022"/></g><g class="participant participant-head" data-participant="USR"><text fill="#0A9EFD" font-family="Arial" font-size="14" lengthAdjust="spacing" textLength="29.5586" x="20" y="83.1318">User</text><ellipse cx="37.7793" cy="16" fill="none" rx="8" ry="8" style="stroke:#0A9EFD;stroke-width:3;"/><path d="M37.7793,24 L37.7793,51 M24.7793,32 L50.7793,32 M37.7793,51 L24.7793,66 M37.7793,51 L50.7793,66" fill="none" style="stroke:#0A9EFD;stroke-width:3;"/></g><g class="participant participant-tail" data-participant="USR"><text fill="#0A9EFD" font-family="Arial" font-size="14" lengthAdjust="spacing" textLength="29.5586" x="20" y="682.1538">User</text><ellipse cx="37.7793" cy="696.1206" fill="none" rx="8" ry="8" style="stroke:#0A9EFD;stroke-width:3;"/><path d="M37.7793,704.1206 L37.7793,731.1206 M24.7793,712.1206 L50.7793,712.1206 M37.7793,731.1206 L24.7793,746.1206 M37.7793,731.1206 L50.7793,746.1206" fill="none" style="stroke:#0A9EFD;stroke-width:3;"/></g><g class="participant participant-head" data-participant="APP"><rect fill="none" height="30.0986" rx="2.5" ry="2.5" style="stroke:#0A9EFD;stroke-width:2;" width="75.4482" x="82.5996" y="55"/><text fill="#0A9EFD" font-family="Arial" font-size="14" lengthAdjust="spacing" textLength="61.4482" x="89.5996" y="75.1318">RTC SDK</text></g><g class="participant participant-tail" data-participant="APP"><rect fill="none" height="30.0986" rx="2.5" ry="2.5" style="stroke:#0A9EFD;stroke-width:2;" width="75.4482" x="82.5996" y="669.022"/><text fill="#0A9EFD" font-family="Arial" font-size="14" lengthAdjust="spacing" textLength="61.4482" x="89.5996" y="689.1538">RTC SDK</text></g><g class="participant participant-head" data-participant="API"><rect fill="none" height="30.0986" rx="2.5" ry="2.5" style="stroke:#0A9EFD;stroke-width:2;" width="72.5361" x="565.186" y="55"/><text fill="#0A9EFD" font-family="Arial" font-size="14" lengthAdjust="spacing" textLength="58.5361" x="572.186" y="75.1318">SDRTN&#174;</text></g><g class="participant participant-tail" data-participant="API"><rect fill="none" height="30.0986" rx="2.5" ry="2.5" style="stroke:#0A9EFD;stroke-width:2;" width="72.5361" x="565.186" y="669.022"/><text fill="#0A9EFD" font-family="Arial" font-size="14" lengthAdjust="spacing" textLength="58.5361" x="572.186" y="689.1538">SDRTN&#174;</text></g><g class="message" data-participant-1="USR" data-participant-2="APP"><polygon fill="#0A9EFD" points="108.3237,113.0474,118.3237,117.0474,108.3237,121.0474,112.3237,117.0474" style="stroke:#0A9EFD;stroke-width:1;"/><line style="stroke:#0A9EFD;stroke-width:2;" x1="37.7793" x2="114.3237" y1="117.0474" y2="117.0474"/><text fill="#0A9EFD" font-family="Arial" font-size="13" lengthAdjust="spacing" textLength="58.5444" x="49.7793" y="112.2925">Open App</text></g><g class="message" data-participant-1="APP" data-participant-2="APP"><line style="stroke:#0A9EFD;stroke-width:2;" x1="120.3237" x2="162.3237" y1="145.9961" y2="145.9961"/><line style="stroke:#0A9EFD;stroke-width:2;" x1="162.3237" x2="162.3237" y1="145.9961" y2="158.9961"/><line style="stroke:#0A9EFD;stroke-width:2;" x1="121.3237" x2="162.3237" y1="158.9961" y2="158.9961"/><polygon fill="#0A9EFD" points="131.3237,154.9961,121.3237,158.9961,131.3237,162.9961,127.3237,158.9961" style="stroke:#0A9EFD;stroke-width:1;"/><text fill="#0A9EFD" font-family="Arial" font-size="13" lengthAdjust="spacing" textLength="294.1377" x="127.3237" y="141.2412">Setup app to handle local hardware and streaming.</text></g><path d="M10,173.9961 L82.4473,173.9961 L82.4473,180.9448 L72.4473,190.9448 L10,190.9448 L10,173.9961" fill="#EEEEEE" style="stroke:#0A9EFD;stroke-width:1.5;"/><rect fill="none" height="406.1797" style="stroke:#0A9EFD;stroke-width:2;" width="637.7222" x="10" y="173.9961"/><text fill="#000000" font-family="Arial" font-size="13" lengthAdjust="spacing" textLength="27.4473" x="25" y="187.1899">User</text><g class="message" data-participant-1="USR" data-participant-2="APP"><polygon fill="#0A9EFD" points="108.3237,207.8936,118.3237,211.8936,108.3237,215.8936,112.3237,211.8936" style="stroke:#0A9EFD;stroke-width:1;"/><line style="stroke:#0A9EFD;stroke-width:2;" x1="37.7793" x2="114.3237" y1="211.8936" y2="211.8936"/><text fill="#0A9EFD" font-family="Arial" font-size="13" lengthAdjust="spacing" textLength="50.5718" x="53.7656" y="207.1387">Start call</text></g><g class="message" data-participant-1="APP" data-participant-2="APP"><line style="stroke:#0A9EFD;stroke-width:2;" x1="120.3237" x2="162.3237" y1="255.791" y2="255.791"/><line style="stroke:#0A9EFD;stroke-width:2;" x1="162.3237" x2="162.3237" y1="255.791" y2="268.791"/><line style="stroke:#0A9EFD;stroke-width:2;" x1="121.3237" x2="162.3237" y1="268.791" y2="268.791"/><polygon fill="#0A9EFD" points="131.3237,264.791,121.3237,268.791,131.3237,272.791,127.3237,268.791" style="stroke:#0A9EFD;stroke-width:1;"/><text fill="#0A9EFD" font-family="Arial" font-size="13" lengthAdjust="spacing" textLength="138.0425" x="231.895" y="236.0874">Create the agoraEngine</text><text fill="#0A9EFD" font-family="Arial" font-size="13" lengthAdjust="spacing" textLength="347.1851" x="127.3237" y="251.0361">const agoraEngine = useRTCClient(AgoraRTC.createClient)</text></g><g class="message" data-participant-1="APP" data-participant-2="APP"><line style="stroke:#0A9EFD;stroke-width:2;" x1="120.3237" x2="162.3237" y1="297.7397" y2="297.7397"/><line style="stroke:#0A9EFD;stroke-width:2;" x1="162.3237" x2="162.3237" y1="297.7397" y2="310.7397"/><line style="stroke:#0A9EFD;stroke-width:2;" x1="121.3237" x2="162.3237" y1="310.7397" y2="310.7397"/><polygon fill="#0A9EFD" points="131.3237,306.7397,121.3237,310.7397,131.3237,314.7397,127.3237,310.7397" style="stroke:#0A9EFD;stroke-width:1;"/><text fill="#0A9EFD" font-family="Arial" font-size="13" lengthAdjust="spacing" textLength="255.8359" x="127.3237" y="292.9849">Retrieve authentication token to join channel</text></g><g class="message" data-participant-1="APP" data-participant-2="API"><polygon fill="#0A9EFD" points="589.4541,350.6372,599.4541,354.6372,589.4541,358.6372,593.4541,354.6372" style="stroke:#0A9EFD;stroke-width:1;"/><line style="stroke:#0A9EFD;stroke-width:2;" x1="120.3237" x2="595.4541" y1="354.6372" y2="354.6372"/><text fill="#0A9EFD" font-family="Arial" font-size="13" lengthAdjust="spacing" textLength="87.4517" x="317.1631" y="334.9336">Join a channel:</text><text fill="#0A9EFD" font-family="Arial" font-size="13" lengthAdjust="spacing" textLength="44.8081" x="340.2908" y="349.8823">useJoin</text></g><g class="message" data-participant-1="API" data-participant-2="APP"><polygon fill="#0A9EFD" points="131.3237,379.5859,121.3237,383.5859,131.3237,387.5859,127.3237,383.5859" style="stroke:#0A9EFD;stroke-width:1;"/><line style="stroke:#0A9EFD;stroke-width:2;" x1="125.3237" x2="600.4541" y1="383.5859" y2="383.5859"/><text fill="#0A9EFD" font-family="Arial" font-size="13" lengthAdjust="spacing" textLength="80.2217" x="320.7781" y="378.8311">Join accepted</text></g><g class="message" data-participant-1="APP" data-participant-2="APP"><line style="stroke:#0A9EFD;stroke-width:2;" x1="120.3237" x2="162.3237" y1="442.4321" y2="442.4321"/><line style="stroke:#0A9EFD;stroke-width:2;" x1="162.3237" x2="162.3237" y1="442.4321" y2="455.4321"/><line style="stroke:#0A9EFD;stroke-width:2;" x1="121.3237" x2="162.3237" y1="455.4321" y2="455.4321"/><polygon fill="#0A9EFD" points="131.3237,451.4321,121.3237,455.4321,131.3237,459.4321,127.3237,455.4321" style="stroke:#0A9EFD;stroke-width:1;"/><text fill="#0A9EFD" font-family="Arial" font-size="13" lengthAdjust="spacing" textLength="153.8926" x="283.9426" y="407.7798">Create local media tracks :</text><text fill="#0A9EFD" font-family="Arial" font-size="13" lengthAdjust="spacing" textLength="467.1304" x="127.3237" y="422.7285">const { isLoading: isLoadingCam, localCameraTrack } = useLocalCameraTrack();</text><text fill="#0A9EFD" font-family="Arial" font-size="13" lengthAdjust="spacing" textLength="436.8203" x="142.4788" y="437.6772">const { isLoading: isLoadingMic, localMicrophoneTrack } = useLocalMicroph</text></g><g class="message" data-participant-1="APP" data-participant-2="API"><polygon fill="#0A9EFD" points="589.4541,495.3296,599.4541,499.3296,589.4541,503.3296,593.4541,499.3296" style="stroke:#0A9EFD;stroke-width:1;"/><line style="stroke:#0A9EFD;stroke-width:2;" x1="120.3237" x2="595.4541" y1="499.3296" y2="499.3296"/><text fill="#0A9EFD" font-family="Arial" font-size="13" lengthAdjust="spacing" textLength="226.1797" x="247.7991" y="479.626">Push local media tracks to the channel:</text><text fill="#0A9EFD" font-family="Arial" font-size="13" lengthAdjust="spacing" textLength="322.9497" x="201.22" y="494.5747">usePublish([localMicrophoneTrack, localCameraTrack]);</text></g><g class="message" data-participant-1="API" data-participant-2="APP"><polygon fill="#0A9EFD" points="131.3237,539.2271,121.3237,543.2271,131.3237,547.2271,127.3237,543.2271" style="stroke:#0A9EFD;stroke-width:1;"/><line style="stroke:#0A9EFD;stroke-width:2;" x1="125.3237" x2="600.4541" y1="543.2271" y2="543.2271"/><text fill="#0A9EFD" font-family="Arial" font-size="13" lengthAdjust="spacing" textLength="226.1479" x="246.009" y="523.5234">Retrieve streaming from the other user:</text><text fill="#0A9EFD" font-family="Arial" font-size="13" lengthAdjust="spacing" textLength="407.2275" x="162.6929" y="538.4722">&lt;RemoteUser user={remoteUser} playVideo={true} playAudio={true} /&gt;</text></g><g class="message" data-participant-1="API" data-participant-2="APP"><polygon fill="#0A9EFD" points="131.3237,568.1758,121.3237,572.1758,131.3237,576.1758,127.3237,572.1758" style="stroke:#0A9EFD;stroke-width:1;"/><polygon fill="#0A9EFD" points="589.4541,568.1758,599.4541,572.1758,589.4541,576.1758,593.4541,572.1758" style="stroke:#0A9EFD;stroke-width:1;"/><line style="stroke:#0A9EFD;stroke-width:2;" x1="125.3237" x2="595.4541" y1="572.1758" y2="572.1758"/><text fill="#0A9EFD" font-family="Arial" font-size="13" lengthAdjust="spacing" textLength="182.8252" x="269.4763" y="567.4209">Receive and send data streams</text></g><g class="message" data-participant-1="USR" data-participant-2="APP"><polygon fill="#0A9EFD" points="108.3237,604.1245,118.3237,608.1245,108.3237,612.1245,112.3237,608.1245" style="stroke:#0A9EFD;stroke-width:1;"/><line style="stroke:#0A9EFD;stroke-width:2;" x1="37.7793" x2="114.3237" y1="608.1245" y2="608.1245"/><text fill="#0A9EFD" font-family="Arial" font-size="13" lengthAdjust="spacing" textLength="58.5381" x="49.7825" y="603.3696">Leave call</text></g><g class="message" data-participant-1="APP" data-participant-2="API"><polygon fill="#0A9EFD" points="589.4541,648.022,599.4541,652.022,589.4541,656.022,593.4541,652.022" style="stroke:#0A9EFD;stroke-width:1;"/><line style="stroke:#0A9EFD;stroke-width:2;" x1="120.3237" x2="595.4541" y1="652.022" y2="652.022"/><text fill="#0A9EFD" font-family="Arial" font-size="13" lengthAdjust="spacing" textLength="109.8652" x="305.9563" y="632.3184">Leave the channel:</text><text fill="#0A9EFD" font-family="Arial" font-size="13" lengthAdjust="spacing" textLength="44.8081" x="340.2908" y="647.2671">useJoin</text></g><!--SRC=[VLFRZjCm47tFLmnvQYKexzdjIbMNXqA1AkaY8HQXMNjeJ1FRifq5LEqlyH5y6UCalMHRyMBPnpFdp1cFNoWjgaOIuCOu_EQtIazKKrT9WY8O1-cT9vS2UhWhyYHvCByW_MmQ1sXjcbXqGGbbKGT8y_KSYjjtRV1ijKf8I-3uFcaM-Pzb5BVv-iFVFtt6ufZ1Ml3g9h9ayD6IXfcr2PyEO46XiR4620PArB8Yg8p0YWzE_aJ7XfZC1qTOAxsP9Cd66Kw9TWRqHU2AW3EhWS2S4mD1AFlElD4RfUbU2wDzE8LW2eqdzZwl5EamQdtoSI9QXWuT3xXp2axH8pCtpA-v7nYKqMnbIt657qPf46nBqqbLYmpUnWlSNsNtEcf7aACMFJ_imuGW6qXUijMrgYQf4893iVMGxRtjGFcbGSbTouxRETOlkpJUaSDrp8Adplto6JuQN_sVxRqIFHlldB6bqNJEsDyDEW2hnfUNwkUsnSSQjcRLF5JAbwClbxJE_NmTNvqqykIX3dC4tvsfMo73YuiQBWCM0xZEgJQ1ue2ry7Jd3i0Js0f_VrAIp7GNN4CTC6kaEW2lRrhjwwEu8FNOpt7y6H83zfNu-5M6tsH9oC73ELxiuVFEj4Fp3m00]--></g></svg>