<svg xmlns="http://www.w3.org/2000/svg" xmlns:xlink="http://www.w3.org/1999/xlink" contentStyleType="text/css" data-diagram-type="SEQUENCE" height="833px" preserveAspectRatio="none" style="width:487px;height:833px;" version="1.1" viewBox="0 0 487 833" width="487px" zoomAndPan="magnify"><defs/><g><rect fill="none" height="831.9155" style="stroke:#0A9EFD;stroke-width:1;" width="485.7588" x="0" y="0"/><rect fill="#999999" fill-opacity="0.33333" height="821.9155" style="stroke:#0A9EFD;stroke-width:0.5;" width="83.4482" x="78.5996" y="6"/><text fill="#0A9EFD" font-family="sans-serif" font-size="13" font-weight="bold" lengthAdjust="spacing" textLength="56.3354" x="92.156" y="19.4951">Your app</text><rect fill="#999999" fill-opacity="0.33333" height="821.9155" style="stroke:#0A9EFD;stroke-width:0.5;" width="80.5361" x="395.2227" y="6"/><text fill="#0A9EFD" font-family="sans-serif" font-size="13" font-weight="bold" lengthAdjust="spacing" textLength="37.5591" x="416.7112" y="19.4951">Agora</text><rect fill="#0A9EFD" fill-opacity="0.06667" height="393.1797" style="stroke:#0A9EFD;stroke-width:2;" width="471.7588" x="10" y="260.791"/><g><title>User</title><rect fill="#000000" fill-opacity="0.00000" height="657.7183" width="8" x="33.7793" y="86.0986"/><line style="stroke:#0A9EFD;stroke-width:0.5;stroke-dasharray:5.0,5.0;" x1="37" x2="37" y1="86.0986" y2="743.8169"/></g><g><title>RTC SDK</title><rect fill="#000000" fill-opacity="0.00000" height="657.7183" width="8" x="116.3237" y="86.0986"/><line style="stroke:#0A9EFD;stroke-width:0.5;stroke-dasharray:5.0,5.0;" x1="119.5996" x2="119.5996" y1="86.0986" y2="743.8169"/></g><g><title>SDRTN&#174;</title><rect fill="#000000" fill-opacity="0.00000" height="657.7183" width="8" x="431.4907" y="86.0986"/><line style="stroke:#0A9EFD;stroke-width:0.5;stroke-dasharray:5.0,5.0;" x1="435.2227" x2="435.2227" y1="86.0986" y2="743.8169"/></g><g class="participant participant-head" data-participant="USR"><text fill="#0A9EFD" font-family="Arial" font-size="14" lengthAdjust="spacing" textLength="29.5586" x="20" y="83.1318">User</text><ellipse cx="37.7793" cy="16" fill="none" rx="8" ry="8" style="stroke:#0A9EFD;stroke-width:3;"/><path d="M37.7793,24 L37.7793,51 M24.7793,32 L50.7793,32 M37.7793,51 L24.7793,66 M37.7793,51 L50.7793,66" fill="none" style="stroke:#0A9EFD;stroke-width:3;"/></g><g class="participant participant-tail" data-participant="USR"><text fill="#0A9EFD" font-family="Arial" font-size="14" lengthAdjust="spacing" textLength="29.5586" x="20" y="755.9487">User</text><ellipse cx="37.7793" cy="769.9155" fill="none" rx="8" ry="8" style="stroke:#0A9EFD;stroke-width:3;"/><path d="M37.7793,777.9155 L37.7793,804.9155 M24.7793,785.9155 L50.7793,785.9155 M37.7793,804.9155 L24.7793,819.9155 M37.7793,804.9155 L50.7793,819.9155" fill="none" style="stroke:#0A9EFD;stroke-width:3;"/></g><g class="participant participant-head" data-participant="APP"><rect fill="none" height="30.0986" rx="2.5" ry="2.5" style="stroke:#0A9EFD;stroke-width:2;" width="75.4482" x="82.5996" y="55"/><text fill="#0A9EFD" font-family="Arial" font-size="14" lengthAdjust="spacing" textLength="61.4482" x="89.5996" y="75.1318">RTC SDK</text></g><g class="participant participant-tail" data-participant="APP"><rect fill="none" height="30.0986" rx="2.5" ry="2.5" style="stroke:#0A9EFD;stroke-width:2;" width="75.4482" x="82.5996" y="742.8169"/><text fill="#0A9EFD" font-family="Arial" font-size="14" lengthAdjust="spacing" textLength="61.4482" x="89.5996" y="762.9487">RTC SDK</text></g><g class="participant participant-head" data-participant="API"><rect fill="none" height="30.0986" rx="2.5" ry="2.5" style="stroke:#0A9EFD;stroke-width:2;" width="72.5361" x="399.2227" y="55"/><text fill="#0A9EFD" font-family="Arial" font-size="14" lengthAdjust="spacing" textLength="58.5361" x="406.2227" y="75.1318">SDRTN&#174;</text></g><g class="participant participant-tail" data-participant="API"><rect fill="none" height="30.0986" rx="2.5" ry="2.5" style="stroke:#0A9EFD;stroke-width:2;" width="72.5361" x="399.2227" y="742.8169"/><text fill="#0A9EFD" font-family="Arial" font-size="14" lengthAdjust="spacing" textLength="58.5361" x="406.2227" y="762.9487">SDRTN&#174;</text></g><g class="message" data-participant-1="USR" data-participant-2="APP"><polygon fill="#0A9EFD" points="108.3237,113.0474,118.3237,117.0474,108.3237,121.0474,112.3237,117.0474" style="stroke:#0A9EFD;stroke-width:1;"/><line style="stroke:#0A9EFD;stroke-width:2;" x1="37.7793" x2="114.3237" y1="117.0474" y2="117.0474"/><text fill="#0A9EFD" font-family="Arial" font-size="13" lengthAdjust="spacing" textLength="58.5444" x="49.7793" y="112.2925">Open App</text></g><g class="message" data-participant-1="APP" data-participant-2="APP"><line style="stroke:#0A9EFD;stroke-width:2;" x1="120.3237" x2="162.3237" y1="160.9448" y2="160.9448"/><line style="stroke:#0A9EFD;stroke-width:2;" x1="162.3237" x2="162.3237" y1="160.9448" y2="173.9448"/><line style="stroke:#0A9EFD;stroke-width:2;" x1="121.3237" x2="162.3237" y1="173.9448" y2="173.9448"/><polygon fill="#0A9EFD" points="131.3237,169.9448,121.3237,173.9448,131.3237,177.9448,127.3237,173.9448" style="stroke:#0A9EFD;stroke-width:1;"/><text fill="#0A9EFD" font-family="Arial" font-size="13" lengthAdjust="spacing" textLength="166.918" x="160.7473" y="141.2412">Initiate the RTC SDK engine:</text><text fill="#0A9EFD" font-family="Arial" font-size="13" lengthAdjust="spacing" textLength="222.9297" x="138.1592" y="156.1899">agoraEngine = AgoraRTC.createClient</text></g><g class="message" data-participant-1="APP" data-participant-2="APP"><line style="stroke:#0A9EFD;stroke-width:2;" x1="120.3237" x2="162.3237" y1="232.791" y2="232.791"/><line style="stroke:#0A9EFD;stroke-width:2;" x1="162.3237" x2="162.3237" y1="232.791" y2="245.791"/><line style="stroke:#0A9EFD;stroke-width:2;" x1="121.3237" x2="162.3237" y1="245.791" y2="245.791"/><polygon fill="#0A9EFD" points="131.3237,241.791,121.3237,245.791,131.3237,249.791,127.3237,245.791" style="stroke:#0A9EFD;stroke-width:1;"/><text fill="#0A9EFD" font-family="Arial" font-size="13" lengthAdjust="spacing" textLength="176.3188" x="145.6812" y="198.1387">Set the required event listners:</text><text fill="#0A9EFD" font-family="Arial" font-size="13" lengthAdjust="spacing" textLength="194.9619" x="136.3596" y="213.0874">agoraEngine.on("user-published")</text><text fill="#0A9EFD" font-family="Arial" font-size="13" lengthAdjust="spacing" textLength="209.4219" x="130.9355" y="228.0361">agoraEngine.on("user-unpublished")</text></g><path d="M10,260.791 L82.4473,260.791 L82.4473,267.7397 L72.4473,277.7397 L10,277.7397 L10,260.791" fill="#EEEEEE" style="stroke:#0A9EFD;stroke-width:1.5;"/><rect fill="none" height="393.1797" style="stroke:#0A9EFD;stroke-width:2;" width="471.7588" x="10" y="260.791"/><text fill="#000000" font-family="Arial" font-size="13" lengthAdjust="spacing" textLength="27.4473" x="25" y="273.9849">User</text><g class="message" data-participant-1="USR" data-participant-2="APP"><polygon fill="#0A9EFD" points="108.3237,294.6885,118.3237,298.6885,108.3237,302.6885,112.3237,298.6885" style="stroke:#0A9EFD;stroke-width:1;"/><line style="stroke:#0A9EFD;stroke-width:2;" x1="37.7793" x2="114.3237" y1="298.6885" y2="298.6885"/><text fill="#0A9EFD" font-family="Arial" font-size="13" lengthAdjust="spacing" textLength="50.5718" x="53.7656" y="293.9336">Start call</text></g><g class="message" data-participant-1="APP" data-participant-2="APP"><line style="stroke:#0A9EFD;stroke-width:2;" x1="120.3237" x2="162.3237" y1="327.6372" y2="327.6372"/><line style="stroke:#0A9EFD;stroke-width:2;" x1="162.3237" x2="162.3237" y1="327.6372" y2="340.6372"/><line style="stroke:#0A9EFD;stroke-width:2;" x1="121.3237" x2="162.3237" y1="340.6372" y2="340.6372"/><polygon fill="#0A9EFD" points="131.3237,336.6372,121.3237,340.6372,131.3237,344.6372,127.3237,340.6372" style="stroke:#0A9EFD;stroke-width:1;"/><text fill="#0A9EFD" font-family="Arial" font-size="13" lengthAdjust="spacing" textLength="255.8359" x="127.3237" y="322.8823">Retrieve authentication token to join channel</text></g><g class="message" data-participant-1="APP" data-participant-2="API"><polygon fill="#0A9EFD" points="423.4907,380.5347,433.4907,384.5347,423.4907,388.5347,427.4907,384.5347" style="stroke:#0A9EFD;stroke-width:1;"/><line style="stroke:#0A9EFD;stroke-width:2;" x1="120.3237" x2="429.4907" y1="384.5347" y2="384.5347"/><text fill="#0A9EFD" font-family="Arial" font-size="13" lengthAdjust="spacing" textLength="87.4517" x="234.1814" y="364.8311">Join a channel:</text><text fill="#0A9EFD" font-family="Arial" font-size="13" lengthAdjust="spacing" textLength="97.5762" x="230.925" y="379.7798">agoraEngine.join</text></g><g class="message" data-participant-1="API" data-participant-2="APP"><polygon fill="#0A9EFD" points="131.3237,409.4834,121.3237,413.4834,131.3237,417.4834,127.3237,413.4834" style="stroke:#0A9EFD;stroke-width:1;"/><line style="stroke:#0A9EFD;stroke-width:2;" x1="125.3237" x2="434.4907" y1="413.4834" y2="413.4834"/><text fill="#0A9EFD" font-family="Arial" font-size="13" lengthAdjust="spacing" textLength="80.2217" x="237.7964" y="408.7285">Join accepted</text></g><g class="message" data-participant-1="APP" data-participant-2="APP"><line style="stroke:#0A9EFD;stroke-width:2;" x1="120.3237" x2="162.3237" y1="472.3296" y2="472.3296"/><line style="stroke:#0A9EFD;stroke-width:2;" x1="162.3237" x2="162.3237" y1="472.3296" y2="485.3296"/><line style="stroke:#0A9EFD;stroke-width:2;" x1="121.3237" x2="162.3237" y1="485.3296" y2="485.3296"/><polygon fill="#0A9EFD" points="131.3237,481.3296,121.3237,485.3296,131.3237,489.3296,127.3237,485.3296" style="stroke:#0A9EFD;stroke-width:1;"/><text fill="#0A9EFD" font-family="Arial" font-size="13" lengthAdjust="spacing" textLength="153.8926" x="171.4019" y="437.6772">Create local media tracks :</text><text fill="#0A9EFD" font-family="Arial" font-size="13" lengthAdjust="spacing" textLength="234.8252" x="130.9355" y="452.626">AgoraRTC.createMicrophoneAudioTrack</text><text fill="#0A9EFD" font-family="Arial" font-size="13" lengthAdjust="spacing" textLength="213.1353" x="143.5864" y="467.5747">AgoraRTC.createCameraVideoTrack</text></g><g class="message" data-participant-1="APP" data-participant-2="API"><polygon fill="#0A9EFD" points="423.4907,525.2271,433.4907,529.2271,423.4907,533.2271,427.4907,529.2271" style="stroke:#0A9EFD;stroke-width:1;"/><line style="stroke:#0A9EFD;stroke-width:2;" x1="120.3237" x2="429.4907" y1="529.2271" y2="529.2271"/><text fill="#0A9EFD" font-family="Arial" font-size="13" lengthAdjust="spacing" textLength="226.1797" x="164.8174" y="509.5234">Push local media tracks to the channel:</text><text fill="#0A9EFD" font-family="Arial" font-size="13" lengthAdjust="spacing" textLength="118.5361" x="220.4451" y="524.4722">agoraEngine.publish</text></g><g class="message" data-participant-1="API" data-participant-2="APP"><polygon fill="#0A9EFD" points="131.3237,569.1245,121.3237,573.1245,131.3237,577.1245,127.3237,573.1245" style="stroke:#0A9EFD;stroke-width:1;"/><line style="stroke:#0A9EFD;stroke-width:2;" x1="125.3237" x2="434.4907" y1="573.1245" y2="573.1245"/><text fill="#0A9EFD" font-family="Arial" font-size="13" lengthAdjust="spacing" textLength="226.1479" x="163.0273" y="553.4209">Retrieve streaming from the other user:</text><text fill="#0A9EFD" font-family="Arial" font-size="13" lengthAdjust="spacing" textLength="194.9619" x="182.2322" y="568.3696">agoraEngine.on("user-published")</text></g><g class="message" data-participant-1="API" data-participant-2="APP"><polygon fill="#0A9EFD" points="131.3237,613.022,121.3237,617.022,131.3237,621.022,127.3237,617.022" style="stroke:#0A9EFD;stroke-width:1;"/><line style="stroke:#0A9EFD;stroke-width:2;" x1="125.3237" x2="434.4907" y1="617.022" y2="617.022"/><text fill="#0A9EFD" font-family="Arial" font-size="13" lengthAdjust="spacing" textLength="287.5552" x="132.3237" y="597.3184">Play remote media tracks: remoteVideoTrack.play</text><text fill="#0A9EFD" font-family="Arial" font-size="13" lengthAdjust="spacing" textLength="133.6689" x="212.8787" y="612.2671">remoteAudioTrack.play</text></g><g class="message" data-participant-1="API" data-participant-2="APP"><polygon fill="#0A9EFD" points="131.3237,641.9707,121.3237,645.9707,131.3237,649.9707,127.3237,645.9707" style="stroke:#0A9EFD;stroke-width:1;"/><polygon fill="#0A9EFD" points="423.4907,641.9707,433.4907,645.9707,423.4907,649.9707,427.4907,645.9707" style="stroke:#0A9EFD;stroke-width:1;"/><line style="stroke:#0A9EFD;stroke-width:2;" x1="125.3237" x2="429.4907" y1="645.9707" y2="645.9707"/><text fill="#0A9EFD" font-family="Arial" font-size="13" lengthAdjust="spacing" textLength="182.8252" x="186.4946" y="641.2158">Receive and send data streams</text></g><g class="message" data-participant-1="USR" data-participant-2="APP"><polygon fill="#0A9EFD" points="108.3237,677.9194,118.3237,681.9194,108.3237,685.9194,112.3237,681.9194" style="stroke:#0A9EFD;stroke-width:1;"/><line style="stroke:#0A9EFD;stroke-width:2;" x1="37.7793" x2="114.3237" y1="681.9194" y2="681.9194"/><text fill="#0A9EFD" font-family="Arial" font-size="13" lengthAdjust="spacing" textLength="58.5381" x="49.7825" y="677.1646">Leave call</text></g><g class="message" data-participant-1="APP" data-participant-2="API"><polygon fill="#0A9EFD" points="423.4907,721.8169,433.4907,725.8169,423.4907,729.8169,427.4907,725.8169" style="stroke:#0A9EFD;stroke-width:1;"/><line style="stroke:#0A9EFD;stroke-width:2;" x1="120.3237" x2="429.4907" y1="725.8169" y2="725.8169"/><text fill="#0A9EFD" font-family="Arial" font-size="13" lengthAdjust="spacing" textLength="105.5234" x="225.1455" y="706.1133">leave the channel:</text><text fill="#0A9EFD" font-family="Arial" font-size="13" lengthAdjust="spacing" textLength="108.418" x="225.5042" y="721.062">agoraEngine.leave</text></g><!--SRC=[ZLFRZXCn37tFLvXvWeVs0qQmKjNbeSkjQhj8I4WhRyRRCSqa8PCW-2a-WY_3IQVRcS8YNYB5FZu-FawUiTKcDGIuTm7l-WFREQVEA8KwkW3LRK-X0kpXThjHwjvzX-gJIm7G-qefZo6oPeysGhNPBM5x_QQW5-krKcGRa8gXR94xNDPihpUxzxz-3ZMhKOtqWzbL9ghXWoSB2- -Lt1w3AykHCHB4bc3e3MJtRAd-R06E8xqk0NW5fRt0vZgGL2qDauqJmYt5mXNeQ-903T0tWO3XFbeAVIOTKSwTVLubSMVcqxrWMcgg5_0K9jaHIgbzSCb3zdOovpQADw3Hc2niTbM26ug1HGfW4dLMlCF8pa9q1yedV75iGRTeBPdpGAiQRd82JwbB_RbCuAkXEvpmMfEFr4oiMHRFm3ZH1XqrZ103waCFcVN2sdUiW_EjixH83RjT1iAVi2Ls5F0ZDtI4JAJ3ElNjt_h9l7b7Jymqc3mQQ-HV7wLlntOF3y5rXSR94I1lg8R_ME-4TstmXxoLpeanOudr43nFDlSPAlp7nDcLaYYaByzgDN5Ujlo3Fd-61YCEqllyEoOFvYsXO4yFvj4zKyB_yAa0bFeD]--></g></svg>