<?xml version="1.0" encoding="us-ascii" standalone="no"?><svg xmlns="http://www.w3.org/2000/svg" xmlns:xlink="http://www.w3.org/1999/xlink" contentStyleType="text/css" height="847px" preserveAspectRatio="none" style="width:797px;height:847px;" version="1.1" viewBox="0 0 797 847" width="797px" zoomAndPan="magnify"><defs/><g><rect fill="none" height="845.4312" style="stroke:#0A9EFD;stroke-width:1.0;" width="795.5" x="0" y="0"/><rect fill="#999999" fill-opacity="0.33333" height="835.4312" style="stroke:#0A9EFD;stroke-width:0.5;" width="527" x="16" y="6"/><text fill="#0A9EFD" font-family="sans-serif" font-size="13" font-weight="bold" lengthAdjust="spacing" textLength="116" x="221.5" y="18.5684">Call implementer</text><rect fill="#999999" fill-opacity="0.33333" height="835.4312" style="stroke:#0A9EFD;stroke-width:0.5;" width="117" x="668.5" y="6"/><text fill="#0A9EFD" font-family="sans-serif" font-size="13" font-weight="bold" lengthAdjust="spacing" textLength="41" x="706.5" y="18.5684">Agora</text><rect fill="#0A9EFD" fill-opacity="0.06667" height="326.5386" style="stroke:#0A9EFD;stroke-width:2.0;" width="721" x="10" y="73.4092"/><rect fill="#0A9EFD" fill-opacity="0.06667" height="203.6411" style="stroke:#0A9EFD;stroke-width:2.0;" width="781.5" x="10" y="413.9478"/><rect fill="#0A9EFD" fill-opacity="0.06667" height="158.7437" style="stroke:#0A9EFD;stroke-width:2.0;" width="781.5" x="10" y="631.5889"/><line style="stroke:#0A9EFD;stroke-width:0.5;stroke-dasharray:5.0,5.0;" x1="45" x2="45" y1="56.4092" y2="807.3325"/><line style="stroke:#0A9EFD;stroke-width:0.5;stroke-dasharray:5.0,5.0;" x1="309" x2="309" y1="56.4092" y2="807.3325"/><line style="stroke:#0A9EFD;stroke-width:0.5;stroke-dasharray:5.0,5.0;" x1="514" x2="514" y1="56.4092" y2="807.3325"/><line style="stroke:#0A9EFD;stroke-width:0.5;stroke-dasharray:5.0,5.0;" x1="726.5" x2="726.5" y1="56.4092" y2="807.3325"/><rect fill="none" height="30.0986" rx="2.5" ry="2.5" style="stroke:#0A9EFD;stroke-width:2.0;" width="50" x="20" y="25.3105"/><text fill="#0A9EFD" font-family="Arial" font-size="14" lengthAdjust="spacing" textLength="36" x="27" y="45.4424">Client</text><rect fill="none" height="30.0986" rx="2.5" ry="2.5" style="stroke:#0A9EFD;stroke-width:2.0;" width="50" x="20" y="806.3325"/><text fill="#0A9EFD" font-family="Arial" font-size="14" lengthAdjust="spacing" textLength="36" x="27" y="826.4644">Client</text><rect fill="none" height="30.0986" rx="2.5" ry="2.5" style="stroke:#0A9EFD;stroke-width:2.0;" width="100" x="259" y="25.3105"/><text fill="#0A9EFD" font-family="Arial" font-size="14" lengthAdjust="spacing" textLength="86" x="266" y="45.4424">Token Server</text><rect fill="none" height="30.0986" rx="2.5" ry="2.5" style="stroke:#0A9EFD;stroke-width:2.0;" width="100" x="259" y="806.3325"/><text fill="#0A9EFD" font-family="Arial" font-size="14" lengthAdjust="spacing" textLength="86" x="266" y="826.4644">Token Server</text><rect fill="none" height="30.0986" rx="2.5" ry="2.5" style="stroke:#0A9EFD;stroke-width:2.0;" width="50" x="489" y="25.3105"/><text fill="#0A9EFD" font-family="Arial" font-size="14" lengthAdjust="spacing" textLength="36" x="496" y="45.4424">Client</text><rect fill="none" height="30.0986" rx="2.5" ry="2.5" style="stroke:#0A9EFD;stroke-width:2.0;" width="50" x="489" y="806.3325"/><text fill="#0A9EFD" font-family="Arial" font-size="14" lengthAdjust="spacing" textLength="36" x="496" y="826.4644">Client</text><rect fill="none" height="30.0986" rx="2.5" ry="2.5" style="stroke:#0A9EFD;stroke-width:2.0;" width="109" x="672.5" y="25.3105"/><text fill="#0A9EFD" font-family="Arial" font-size="14" lengthAdjust="spacing" textLength="95" x="679.5" y="45.4424">Agora Platform</text><rect fill="none" height="30.0986" rx="2.5" ry="2.5" style="stroke:#0A9EFD;stroke-width:2.0;" width="109" x="672.5" y="806.3325"/><text fill="#0A9EFD" font-family="Arial" font-size="14" lengthAdjust="spacing" textLength="95" x="679.5" y="826.4644">Agora Platform</text><path d="M10,73.4092 L124,73.4092 L124,80.3579 L114,90.3579 L10,90.3579 L10,73.4092 " fill="#EEEEEE" style="stroke:#0A9EFD;stroke-width:1.5;"/><rect fill="none" height="326.5386" style="stroke:#0A9EFD;stroke-width:2.0;" width="721" x="10" y="73.4092"/><text fill="#000000" font-family="Arial" font-size="13" lengthAdjust="spacing" textLength="69" x="25" y="86.603">Setup client</text><line style="stroke:#0A9EFD;stroke-width:2.0;" x1="45" x2="87" y1="111.3066" y2="111.3066"/><line style="stroke:#0A9EFD;stroke-width:2.0;" x1="87" x2="87" y1="111.3066" y2="124.3066"/><line style="stroke:#0A9EFD;stroke-width:2.0;" x1="46" x2="87" y1="124.3066" y2="124.3066"/><polygon fill="#0A9EFD" points="56,120.3066,46,124.3066,56,128.3066,52,124.3066" style="stroke:#0A9EFD;stroke-width:1.0;"/><text fill="#0A9EFD" font-family="Arial" font-size="13" lengthAdjust="spacing" textLength="198" x="52" y="106.5518">User login to implementor security</text><polygon fill="#0A9EFD" points="56,149.2554,46,153.2554,56,157.2554,52,153.2554" style="stroke:#0A9EFD;stroke-width:1.0;"/><polygon fill="#0A9EFD" points="297,149.2554,307,153.2554,297,157.2554,301,153.2554" style="stroke:#0A9EFD;stroke-width:1.0;"/><line style="stroke:#0A9EFD;stroke-width:2.0;" x1="50" x2="303" y1="153.2554" y2="153.2554"/><text fill="#0A9EFD" font-family="Arial" font-size="13" lengthAdjust="spacing" textLength="181" x="86.5" y="148.5005">Authenticate and retrieve token</text><line style="stroke:#0A9EFD;stroke-width:2.0;" x1="514" x2="556" y1="182.2041" y2="182.2041"/><line style="stroke:#0A9EFD;stroke-width:2.0;" x1="556" x2="556" y1="182.2041" y2="195.2041"/><line style="stroke:#0A9EFD;stroke-width:2.0;" x1="515" x2="556" y1="195.2041" y2="195.2041"/><polygon fill="#0A9EFD" points="525,191.2041,515,195.2041,525,199.2041,521,195.2041" style="stroke:#0A9EFD;stroke-width:1.0;"/><text fill="#0A9EFD" font-family="Arial" font-size="13" lengthAdjust="spacing" textLength="198" x="521" y="177.4492">User login to implementor security</text><polygon fill="#0A9EFD" points="320,220.1528,310,224.1528,320,228.1528,316,224.1528" style="stroke:#0A9EFD;stroke-width:1.0;"/><polygon fill="#0A9EFD" points="502,220.1528,512,224.1528,502,228.1528,506,224.1528" style="stroke:#0A9EFD;stroke-width:1.0;"/><line style="stroke:#0A9EFD;stroke-width:2.0;" x1="314" x2="508" y1="224.1528" y2="224.1528"/><text fill="#0A9EFD" font-family="Arial" font-size="13" lengthAdjust="spacing" textLength="181" x="321" y="219.3979">Authenticate and retrieve token</text><line style="stroke:#0A9EFD;stroke-width:2.0;" x1="45" x2="87" y1="253.1016" y2="253.1016"/><line style="stroke:#0A9EFD;stroke-width:2.0;" x1="87" x2="87" y1="253.1016" y2="266.1016"/><line style="stroke:#0A9EFD;stroke-width:2.0;" x1="46" x2="87" y1="266.1016" y2="266.1016"/><polygon fill="#0A9EFD" points="56,262.1016,46,266.1016,56,270.1016,52,266.1016" style="stroke:#0A9EFD;stroke-width:1.0;"/><text fill="#0A9EFD" font-family="Arial" font-size="13" lengthAdjust="spacing" textLength="126" x="52" y="248.3467">Create client instance</text><line style="stroke:#0A9EFD;stroke-width:2.0;" x1="45" x2="87" y1="295.0503" y2="295.0503"/><line style="stroke:#0A9EFD;stroke-width:2.0;" x1="87" x2="87" y1="295.0503" y2="308.0503"/><line style="stroke:#0A9EFD;stroke-width:2.0;" x1="46" x2="87" y1="308.0503" y2="308.0503"/><polygon fill="#0A9EFD" points="56,304.0503,46,308.0503,56,312.0503,52,308.0503" style="stroke:#0A9EFD;stroke-width:1.0;"/><text fill="#0A9EFD" font-family="Arial" font-size="13" lengthAdjust="spacing" textLength="113" x="52" y="290.2954">Set client role: host</text><line style="stroke:#0A9EFD;stroke-width:2.0;" x1="514" x2="556" y1="336.999" y2="336.999"/><line style="stroke:#0A9EFD;stroke-width:2.0;" x1="556" x2="556" y1="336.999" y2="349.999"/><line style="stroke:#0A9EFD;stroke-width:2.0;" x1="515" x2="556" y1="349.999" y2="349.999"/><polygon fill="#0A9EFD" points="525,345.999,515,349.999,525,353.999,521,349.999" style="stroke:#0A9EFD;stroke-width:1.0;"/><text fill="#0A9EFD" font-family="Arial" font-size="13" lengthAdjust="spacing" textLength="130" x="521" y="332.2441">Create  client instance</text><line style="stroke:#0A9EFD;stroke-width:2.0;" x1="514" x2="556" y1="378.9478" y2="378.9478"/><line style="stroke:#0A9EFD;stroke-width:2.0;" x1="556" x2="556" y1="378.9478" y2="391.9478"/><line style="stroke:#0A9EFD;stroke-width:2.0;" x1="515" x2="556" y1="391.9478" y2="391.9478"/><polygon fill="#0A9EFD" points="525,387.9478,515,391.9478,525,395.9478,521,391.9478" style="stroke:#0A9EFD;stroke-width:1.0;"/><text fill="#0A9EFD" font-family="Arial" font-size="13" lengthAdjust="spacing" textLength="140" x="521" y="374.1929">Set client role: audience</text><path d="M10,413.9478 L102,413.9478 L102,420.8965 L92,430.8965 L10,430.8965 L10,413.9478 " fill="#EEEEEE" style="stroke:#0A9EFD;stroke-width:1.5;"/><rect fill="none" height="203.6411" style="stroke:#0A9EFD;stroke-width:2.0;" width="781.5" x="10" y="413.9478"/><text fill="#000000" font-family="Arial" font-size="13" lengthAdjust="spacing" textLength="47" x="25" y="427.1416">Run call</text><line style="stroke:#0A9EFD;stroke-width:2.0;" x1="45" x2="87" y1="451.8452" y2="451.8452"/><line style="stroke:#0A9EFD;stroke-width:2.0;" x1="87" x2="87" y1="451.8452" y2="464.8452"/><line style="stroke:#0A9EFD;stroke-width:2.0;" x1="46" x2="87" y1="464.8452" y2="464.8452"/><polygon fill="#0A9EFD" points="56,460.8452,46,464.8452,56,468.8452,52,464.8452" style="stroke:#0A9EFD;stroke-width:1.0;"/><text fill="#0A9EFD" font-family="Arial" font-size="13" lengthAdjust="spacing" textLength="250" x="52" y="447.0903">Connect to local audio and video resources</text><polygon fill="#0A9EFD" points="715,489.7939,725,493.7939,715,497.7939,719,493.7939" style="stroke:#0A9EFD;stroke-width:1.0;"/><line style="stroke:#0A9EFD;stroke-width:2.0;" x1="45" x2="721" y1="493.7939" y2="493.7939"/><text fill="#0A9EFD" font-family="Arial" font-size="13" lengthAdjust="spacing" textLength="73" x="349.5" y="489.0391">Join channel</text><polygon fill="#0A9EFD" points="715,518.7427,725,522.7427,715,526.7427,719,522.7427" style="stroke:#0A9EFD;stroke-width:1.0;"/><line style="stroke:#0A9EFD;stroke-width:2.0;" x1="45" x2="721" y1="522.7427" y2="522.7427"/><text fill="#0A9EFD" font-family="Arial" font-size="13" lengthAdjust="spacing" textLength="189" x="291.5" y="517.9878">Send audio and video to channel</text><polygon fill="#0A9EFD" points="715,547.6914,725,551.6914,715,555.6914,719,551.6914" style="stroke:#0A9EFD;stroke-width:1.0;"/><line style="stroke:#0A9EFD;stroke-width:2.0;" x1="514" x2="721" y1="551.6914" y2="551.6914"/><text fill="#0A9EFD" font-family="Arial" font-size="13" lengthAdjust="spacing" textLength="73" x="584" y="546.9365">Join channel</text><polygon fill="#0A9EFD" points="525,576.6401,515,580.6401,525,584.6401,521,580.6401" style="stroke:#0A9EFD;stroke-width:1.0;"/><line style="stroke:#0A9EFD;stroke-width:2.0;" x1="519" x2="726" y1="580.6401" y2="580.6401"/><text fill="#0A9EFD" font-family="Arial" font-size="13" lengthAdjust="spacing" textLength="189" x="526" y="575.8853">Send audio and video to channel</text><polygon fill="#0A9EFD" points="56,605.5889,46,609.5889,56,613.5889,52,609.5889" style="stroke:#0A9EFD;stroke-width:1.0;"/><polygon fill="#0A9EFD" points="502,605.5889,512,609.5889,502,613.5889,506,609.5889" style="stroke:#0A9EFD;stroke-width:1.0;"/><line style="stroke:#0A9EFD;stroke-width:2.0;" x1="50" x2="508" y1="609.5889" y2="609.5889"/><text fill="#0A9EFD" font-family="Arial" font-size="13" lengthAdjust="spacing" textLength="80" x="239.5" y="604.834">Communicate</text><path d="M10,631.5889 L102,631.5889 L102,638.5376 L92,648.5376 L10,648.5376 L10,631.5889 " fill="#EEEEEE" style="stroke:#0A9EFD;stroke-width:1.5;"/><rect fill="none" height="158.7437" style="stroke:#0A9EFD;stroke-width:2.0;" width="781.5" x="10" y="631.5889"/><text fill="#000000" font-family="Arial" font-size="13" lengthAdjust="spacing" textLength="47" x="25" y="644.7827">End call</text><line style="stroke:#0A9EFD;stroke-width:2.0;" x1="514" x2="556" y1="669.4863" y2="669.4863"/><line style="stroke:#0A9EFD;stroke-width:2.0;" x1="556" x2="556" y1="669.4863" y2="682.4863"/><line style="stroke:#0A9EFD;stroke-width:2.0;" x1="515" x2="556" y1="682.4863" y2="682.4863"/><polygon fill="#0A9EFD" points="525,678.4863,515,682.4863,525,686.4863,521,682.4863" style="stroke:#0A9EFD;stroke-width:1.0;"/><text fill="#0A9EFD" font-family="Arial" font-size="13" lengthAdjust="spacing" textLength="128" x="521" y="664.7314">Close audio and video</text><polygon fill="#0A9EFD" points="715,707.4351,725,711.4351,715,715.4351,719,711.4351" style="stroke:#0A9EFD;stroke-width:1.0;"/><line style="stroke:#0A9EFD;stroke-width:2.0;" x1="514" x2="721" y1="711.4351" y2="711.4351"/><text fill="#0A9EFD" font-family="Arial" font-size="13" lengthAdjust="spacing" textLength="59" x="591" y="706.6802">Leave call</text><line style="stroke:#0A9EFD;stroke-width:2.0;" x1="45" x2="87" y1="740.3838" y2="740.3838"/><line style="stroke:#0A9EFD;stroke-width:2.0;" x1="87" x2="87" y1="740.3838" y2="753.3838"/><line style="stroke:#0A9EFD;stroke-width:2.0;" x1="46" x2="87" y1="753.3838" y2="753.3838"/><polygon fill="#0A9EFD" points="56,749.3838,46,753.3838,56,757.3838,52,753.3838" style="stroke:#0A9EFD;stroke-width:1.0;"/><text fill="#0A9EFD" font-family="Arial" font-size="13" lengthAdjust="spacing" textLength="128" x="52" y="735.6289">Close audio and video</text><polygon fill="#0A9EFD" points="715,778.3325,725,782.3325,715,786.3325,719,782.3325" style="stroke:#0A9EFD;stroke-width:1.0;"/><line style="stroke:#0A9EFD;stroke-width:2.0;" x1="45" x2="721" y1="782.3325" y2="782.3325"/><text fill="#0A9EFD" font-family="Arial" font-size="13" lengthAdjust="spacing" textLength="59" x="356.5" y="777.5776">Leave call</text><!--SRC=[bLBBJiCm4BpxAvRUuP1ZX92YY0lY43NbZ8opj5OTR-H71N_FncbQzy7hKYdUcTcPsTvegqpi4EIQd7prMstlTEoD46_q0OjQ6WEw7mpsQ0EwXHYa2rhfGTh0OwFvUG7IGrMVZbQqHGijkXspHi2g_O5R2BGTy4gnNroDTiwsfJTeZ0plvFg9sMJ4jQCuyCh0logf2r7LSFl02qfuyUZ0q5fR27JCH0uygkXq-1p1zunUjILKCMnugfKCt0slS1YSnXqocOCnj9Y4Ypyg5_-GdYtN3aVCb0MqzK5QXHc0iyvJHmPBs91FeO_czXfNH8wO2naPE_vYrDZkNEmoMb3yVyWDahMemXZR4CyIaLAedUwGE9gdw1JwcTIKy4HSbDf8ffhikHqFUSvduHbvS7mXqMH1VjL8PvYQeRwFDfqXZ_d8n1Jpj4P37i-bSqlFAFc2C_5Gq3UqQwpauGi0]--></g></svg>