<svg xmlns="http://www.w3.org/2000/svg" xmlns:xlink="http://www.w3.org/1999/xlink" contentStyleType="text/css" data-diagram-type="SEQUENCE" height="831px" preserveAspectRatio="none" style="width:523px;height:831px;" version="1.1" viewBox="0 0 523 831" width="523px" zoomAndPan="magnify"><defs/><g><rect fill="none" height="829.9668" style="stroke:#0A9EFD;stroke-width:1;" width="521.7031" x="0" y="0"/><rect fill="#999999" fill-opacity="0.33333" height="819.9668" style="stroke:#0A9EFD;stroke-width:0.5;" width="83.4482" x="100.2769" y="6"/><text fill="#0A9EFD" font-family="sans-serif" font-size="13" font-weight="bold" lengthAdjust="spacing" textLength="56.3354" x="113.8333" y="19.4951">Your app</text><rect fill="#999999" fill-opacity="0.33333" height="819.9668" style="stroke:#0A9EFD;stroke-width:0.5;" width="80.5361" x="431.167" y="6"/><text fill="#0A9EFD" font-family="sans-serif" font-size="13" font-weight="bold" lengthAdjust="spacing" textLength="37.5591" x="452.6555" y="19.4951">Agora</text><rect fill="#0A9EFD" fill-opacity="0.06667" height="305.3848" style="stroke:#0A9EFD;stroke-width:2;" width="507.7031" x="10" y="260.791"/><g><title>User</title><rect fill="#000000" fill-opacity="0.00000" height="655.7695" width="8" x="33.7793" y="86.0986"/><line style="stroke:#0A9EFD;stroke-width:0.5;stroke-dasharray:5.0,5.0;" x1="37" x2="37" y1="86.0986" y2="741.8682"/></g><g><title>RTC SDK</title><rect fill="#000000" fill-opacity="0.00000" height="655.7695" width="8" x="138.001" y="86.0986"/><line style="stroke:#0A9EFD;stroke-width:0.5;stroke-dasharray:5.0,5.0;" x1="141.2769" x2="141.2769" y1="86.0986" y2="741.8682"/></g><g><title>SDRTN&#174;</title><rect fill="#000000" fill-opacity="0.00000" height="655.7695" width="8" x="467.4351" y="86.0986"/><line style="stroke:#0A9EFD;stroke-width:0.5;stroke-dasharray:5.0,5.0;" x1="471.167" x2="471.167" y1="86.0986" y2="741.8682"/></g><g class="participant participant-head" data-participant="USR"><text fill="#0A9EFD" font-family="Arial" font-size="14" lengthAdjust="spacing" textLength="29.5586" x="20" y="83.1318">User</text><ellipse cx="37.7793" cy="16" fill="none" rx="8" ry="8" style="stroke:#0A9EFD;stroke-width:3;"/><path d="M37.7793,24 L37.7793,51 M24.7793,32 L50.7793,32 M37.7793,51 L24.7793,66 M37.7793,51 L50.7793,66" fill="none" style="stroke:#0A9EFD;stroke-width:3;"/></g><g class="participant participant-tail" data-participant="USR"><text fill="#0A9EFD" font-family="Arial" font-size="14" lengthAdjust="spacing" textLength="29.5586" x="20" y="754">User</text><ellipse cx="37.7793" cy="767.9668" fill="none" rx="8" ry="8" style="stroke:#0A9EFD;stroke-width:3;"/><path d="M37.7793,775.9668 L37.7793,802.9668 M24.7793,783.9668 L50.7793,783.9668 M37.7793,802.9668 L24.7793,817.9668 M37.7793,802.9668 L50.7793,817.9668" fill="none" style="stroke:#0A9EFD;stroke-width:3;"/></g><g class="participant participant-head" data-participant="APP"><rect fill="none" height="30.0986" rx="2.5" ry="2.5" style="stroke:#0A9EFD;stroke-width:2;" width="75.4482" x="104.2769" y="55"/><text fill="#0A9EFD" font-family="Arial" font-size="14" lengthAdjust="spacing" textLength="61.4482" x="111.2769" y="75.1318">RTC SDK</text></g><g class="participant participant-tail" data-participant="APP"><rect fill="none" height="30.0986" rx="2.5" ry="2.5" style="stroke:#0A9EFD;stroke-width:2;" width="75.4482" x="104.2769" y="740.8682"/><text fill="#0A9EFD" font-family="Arial" font-size="14" lengthAdjust="spacing" textLength="61.4482" x="111.2769" y="761">RTC SDK</text></g><g class="participant participant-head" data-participant="API"><rect fill="none" height="30.0986" rx="2.5" ry="2.5" style="stroke:#0A9EFD;stroke-width:2;" width="72.5361" x="435.167" y="55"/><text fill="#0A9EFD" font-family="Arial" font-size="14" lengthAdjust="spacing" textLength="58.5361" x="442.167" y="75.1318">SDRTN&#174;</text></g><g class="participant participant-tail" data-participant="API"><rect fill="none" height="30.0986" rx="2.5" ry="2.5" style="stroke:#0A9EFD;stroke-width:2;" width="72.5361" x="435.167" y="740.8682"/><text fill="#0A9EFD" font-family="Arial" font-size="14" lengthAdjust="spacing" textLength="58.5361" x="442.167" y="761">SDRTN&#174;</text></g><g class="message" data-participant-1="USR" data-participant-2="APP"><polygon fill="#0A9EFD" points="130.001,113.0474,140.001,117.0474,130.001,121.0474,134.001,117.0474" style="stroke:#0A9EFD;stroke-width:1;"/><line style="stroke:#0A9EFD;stroke-width:2;" x1="37.7793" x2="136.001" y1="117.0474" y2="117.0474"/><text fill="#0A9EFD" font-family="Arial" font-size="13" lengthAdjust="spacing" textLength="58.5444" x="60.6179" y="112.2925">Open App</text></g><g class="message" data-participant-1="APP" data-participant-2="APP"><line style="stroke:#0A9EFD;stroke-width:2;" x1="142.001" x2="184.001" y1="160.9448" y2="160.9448"/><line style="stroke:#0A9EFD;stroke-width:2;" x1="184.001" x2="184.001" y1="160.9448" y2="173.9448"/><line style="stroke:#0A9EFD;stroke-width:2;" x1="143.001" x2="184.001" y1="173.9448" y2="173.9448"/><polygon fill="#0A9EFD" points="153.001,169.9448,143.001,173.9448,153.001,177.9448,149.001,173.9448" style="stroke:#0A9EFD;stroke-width:1;"/><text fill="#0A9EFD" font-family="Arial" font-size="13" lengthAdjust="spacing" textLength="205.2197" x="202.3022" y="141.2412">Initiate the Agora RTC SDK engine:</text><text fill="#0A9EFD" font-family="Arial" font-size="13" lengthAdjust="spacing" textLength="311.8223" x="152.6128" y="156.1899">agoraEngine = agora::rtc::ue::createAgoraRtcEngine()</text></g><g class="message" data-participant-1="APP" data-participant-2="APP"><line style="stroke:#0A9EFD;stroke-width:2;" x1="142.001" x2="184.001" y1="232.791" y2="232.791"/><line style="stroke:#0A9EFD;stroke-width:2;" x1="184.001" x2="184.001" y1="232.791" y2="245.791"/><line style="stroke:#0A9EFD;stroke-width:2;" x1="143.001" x2="184.001" y1="245.791" y2="245.791"/><polygon fill="#0A9EFD" points="153.001,241.791,143.001,245.791,153.001,249.791,149.001,245.791" style="stroke:#0A9EFD;stroke-width:1;"/><text fill="#0A9EFD" font-family="Arial" font-size="13" lengthAdjust="spacing" textLength="213.9351" x="149.001" y="198.1387">Enable the audio and video modules:</text><text fill="#0A9EFD" font-family="Arial" font-size="13" lengthAdjust="spacing" textLength="166.5942" x="174.4773" y="213.0874">agoraEngine-&gt;enableVideo()</text><text fill="#0A9EFD" font-family="Arial" font-size="13" lengthAdjust="spacing" textLength="170.2061" x="174.4773" y="228.0361">agoraEngine-&gt;enableAudio();</text></g><path d="M10,260.791 L82.4473,260.791 L82.4473,267.7397 L72.4473,277.7397 L10,277.7397 L10,260.791" fill="#EEEEEE" style="stroke:#0A9EFD;stroke-width:1.5;"/><rect fill="none" height="305.3848" style="stroke:#0A9EFD;stroke-width:2;" width="507.7031" x="10" y="260.791"/><text fill="#000000" font-family="Arial" font-size="13" lengthAdjust="spacing" textLength="27.4473" x="25" y="273.9849">User</text><g class="message" data-participant-1="USR" data-participant-2="APP"><polygon fill="#0A9EFD" points="130.001,294.6885,140.001,298.6885,130.001,302.6885,134.001,298.6885" style="stroke:#0A9EFD;stroke-width:1;"/><line style="stroke:#0A9EFD;stroke-width:2;" x1="37.7793" x2="136.001" y1="298.6885" y2="298.6885"/><text fill="#0A9EFD" font-family="Arial" font-size="13" lengthAdjust="spacing" textLength="57.8081" x="60.9861" y="293.9336">Join a call</text></g><g class="message" data-participant-1="APP" data-participant-2="APP"><line style="stroke:#0A9EFD;stroke-width:2;" x1="142.001" x2="184.001" y1="342.5859" y2="342.5859"/><line style="stroke:#0A9EFD;stroke-width:2;" x1="184.001" x2="184.001" y1="342.5859" y2="355.5859"/><line style="stroke:#0A9EFD;stroke-width:2;" x1="143.001" x2="184.001" y1="355.5859" y2="355.5859"/><polygon fill="#0A9EFD" points="153.001,351.5859,143.001,355.5859,153.001,359.5859,149.001,355.5859" style="stroke:#0A9EFD;stroke-width:1;"/><text fill="#0A9EFD" font-family="Arial" font-size="13" lengthAdjust="spacing" textLength="102.6226" x="232.2917" y="322.8823">Setup local video:</text><text fill="#0A9EFD" font-family="Arial" font-size="13" lengthAdjust="spacing" textLength="265.5923" x="152.6128" y="337.8311">agoraEngine-&gt;setupLocalVideo(videoCanvas)</text></g><g class="message" data-participant-1="APP" data-participant-2="APP"><line style="stroke:#0A9EFD;stroke-width:2;" x1="142.001" x2="184.001" y1="384.5347" y2="384.5347"/><line style="stroke:#0A9EFD;stroke-width:2;" x1="184.001" x2="184.001" y1="384.5347" y2="397.5347"/><line style="stroke:#0A9EFD;stroke-width:2;" x1="143.001" x2="184.001" y1="397.5347" y2="397.5347"/><polygon fill="#0A9EFD" points="153.001,393.5347,143.001,397.5347,153.001,401.5347,149.001,397.5347" style="stroke:#0A9EFD;stroke-width:1;"/><text fill="#0A9EFD" font-family="Arial" font-size="13" lengthAdjust="spacing" textLength="255.8359" x="149.001" y="379.7798">Retrieve authentication token to join channel</text></g><g class="message" data-participant-1="APP" data-participant-2="API"><polygon fill="#0A9EFD" points="459.4351,437.4321,469.4351,441.4321,459.4351,445.4321,463.4351,441.4321" style="stroke:#0A9EFD;stroke-width:1;"/><line style="stroke:#0A9EFD;stroke-width:2;" x1="142.001" x2="465.4351" y1="441.4321" y2="441.4321"/><text fill="#0A9EFD" font-family="Arial" font-size="13" lengthAdjust="spacing" textLength="98.2935" x="257.5713" y="421.7285">Join the channel:</text><text fill="#0A9EFD" font-family="Arial" font-size="13" lengthAdjust="spacing" textLength="162.9697" x="227.0391" y="436.6772">agoraEngine-&gt;joinChannel()</text></g><g class="message" data-participant-1="API" data-participant-2="APP"><polygon fill="#0A9EFD" points="153.001,481.3296,143.001,485.3296,153.001,489.3296,149.001,485.3296" style="stroke:#0A9EFD;stroke-width:1;"/><line style="stroke:#0A9EFD;stroke-width:2;" x1="147.001" x2="470.4351" y1="485.3296" y2="485.3296"/><text fill="#0A9EFD" font-family="Arial" font-size="13" lengthAdjust="spacing" textLength="116.3398" x="248.5481" y="465.626">Remote user joined:</text><text fill="#0A9EFD" font-family="Arial" font-size="13" lengthAdjust="spacing" textLength="88.8735" x="264.0872" y="480.5747">onUserJoined()</text></g><g class="message" data-participant-1="APP" data-participant-2="API"><polygon fill="#0A9EFD" points="459.4351,525.2271,469.4351,529.2271,459.4351,533.2271,463.4351,529.2271" style="stroke:#0A9EFD;stroke-width:1;"/><line style="stroke:#0A9EFD;stroke-width:2;" x1="142.001" x2="465.4351" y1="529.2271" y2="529.2271"/><text fill="#0A9EFD" font-family="Arial" font-size="13" lengthAdjust="spacing" textLength="236.9771" x="186.4236" y="509.5234">Retrieve streaming from the remote user:</text><text fill="#0A9EFD" font-family="Arial" font-size="13" lengthAdjust="spacing" textLength="280.0332" x="168.5073" y="524.4722">agoraEngine-&gt;setupRemoteVideo(videoCanvas)</text></g><g class="message" data-participant-1="API" data-participant-2="APP"><polygon fill="#0A9EFD" points="153.001,554.1758,143.001,558.1758,153.001,562.1758,149.001,558.1758" style="stroke:#0A9EFD;stroke-width:1;"/><polygon fill="#0A9EFD" points="459.4351,554.1758,469.4351,558.1758,459.4351,562.1758,463.4351,558.1758" style="stroke:#0A9EFD;stroke-width:1;"/><line style="stroke:#0A9EFD;stroke-width:2;" x1="147.001" x2="465.4351" y1="558.1758" y2="558.1758"/><text fill="#0A9EFD" font-family="Arial" font-size="13" lengthAdjust="spacing" textLength="182.8252" x="215.3054" y="553.4209">Receive and send data streams</text></g><g class="message" data-participant-1="USR" data-participant-2="APP"><polygon fill="#0A9EFD" points="130.001,590.1245,140.001,594.1245,130.001,598.1245,134.001,594.1245" style="stroke:#0A9EFD;stroke-width:1;"/><line style="stroke:#0A9EFD;stroke-width:2;" x1="37.7793" x2="136.001" y1="594.1245" y2="594.1245"/><text fill="#0A9EFD" font-family="Arial" font-size="13" lengthAdjust="spacing" textLength="80.2217" x="49.7793" y="589.3696">Leave the call</text></g><g class="message" data-participant-1="APP" data-participant-2="API"><polygon fill="#0A9EFD" points="459.4351,634.022,469.4351,638.022,459.4351,642.022,463.4351,638.022" style="stroke:#0A9EFD;stroke-width:1;"/><line style="stroke:#0A9EFD;stroke-width:2;" x1="142.001" x2="465.4351" y1="638.022" y2="638.022"/><text fill="#0A9EFD" font-family="Arial" font-size="13" lengthAdjust="spacing" textLength="109.8652" x="249.9795" y="618.3184">Leave the channel:</text><text fill="#0A9EFD" font-family="Arial" font-size="13" lengthAdjust="spacing" textLength="173.8115" x="221.6182" y="633.2671">agoraEngine-&gt;leaveChannel()</text></g><g class="message" data-participant-1="USR" data-participant-2="APP"><polygon fill="#0A9EFD" points="130.001,662.9707,140.001,666.9707,130.001,670.9707,134.001,666.9707" style="stroke:#0A9EFD;stroke-width:1;"/><line style="stroke:#0A9EFD;stroke-width:2;" x1="37.7793" x2="136.001" y1="666.9707" y2="666.9707"/><text fill="#0A9EFD" font-family="Arial" font-size="13" lengthAdjust="spacing" textLength="58.5381" x="60.6211" y="662.2158">Close app</text></g><g class="message" data-participant-1="APP" data-participant-2="APP"><line style="stroke:#0A9EFD;stroke-width:2;" x1="142.001" x2="184.001" y1="710.8682" y2="710.8682"/><line style="stroke:#0A9EFD;stroke-width:2;" x1="184.001" x2="184.001" y1="710.8682" y2="723.8682"/><line style="stroke:#0A9EFD;stroke-width:2;" x1="143.001" x2="184.001" y1="723.8682" y2="723.8682"/><polygon fill="#0A9EFD" points="153.001,719.8682,143.001,723.8682,153.001,727.8682,149.001,723.8682" style="stroke:#0A9EFD;stroke-width:1;"/><text fill="#0A9EFD" font-family="Arial" font-size="13" lengthAdjust="spacing" textLength="146.688" x="149.001" y="691.1646">Clean up local resources:</text><text fill="#0A9EFD" font-family="Arial" font-size="13" lengthAdjust="spacing" textLength="136.9443" x="159.2905" y="706.1133">agoraEngine-&gt;release()</text></g><!--SRC=[TLD1Rjim4Bpp5LkTx8Fx0BODO2WvA0tQG4uA52XGRAYjmqOY1P8o-ge-eYyhboGSqsul1kYTsPcTNRtHHetBG81xw_2xVz7chLwcKGXKmJfe7Zsv1j33uwuNuid-WkQhNHpWF3T2pEY2Ldf64w3f7rhONNzCwEtzlH1a1eYCGjkomZbdTzq_VFhpkt2w4qxKWyqLDvBmUIO3staMyNNyipCwQ0m4uPaWDOVY0CZijI49tqoUwoQzuKD-IUc2ad8XAPMZs26H-w0oRBMkP6uCFerP19T1My3eyA07iZ3POHd9d-jihYXnlZ1ejVvFTSlDLkjtGkoTNMRWeAkXRwsEH50uZfMX7OK87sqiP1_oNC0pueu1sK92jMWEwElPUWfEqu4dY_EPk1OCsXe8zeNu5two1_MCnj29YQwOuqnAyS83CzjSAu6-tsHgJvEDMrlYlAa_3KosXWEuJU_J3NGdBds8wvgqsSCFPwSaxrwRNQuXvP3b_Xb45pqTar2aEOYuNCytE6308kZvAEk3l2Cyv9kerzDLfHBDXQ-H8Q_XL9tRqNhYhwjQL1if1evhT-JZDwZAwTND7KMivol-2m00]--></g></svg>