<svg xmlns="http://www.w3.org/2000/svg" xmlns:xlink="http://www.w3.org/1999/xlink" contentStyleType="text/css" data-diagram-type="SEQUENCE" height="946px" preserveAspectRatio="none" style="width:442px;height:946px;" version="1.1" viewBox="0 0 442 946" width="442px" zoomAndPan="magnify"><defs/><g><rect fill="none" height="944.7617" style="stroke:#0A9EFD;stroke-width:1;" width="440.3896" x="0" y="0"/><rect fill="#999999" fill-opacity="0.33333" height="934.7617" style="stroke:#0A9EFD;stroke-width:0.5;" width="83.4482" x="78.5933" y="6"/><text fill="#0A9EFD" font-family="sans-serif" font-size="13" font-weight="bold" lengthAdjust="spacing" textLength="56.3354" x="92.1497" y="19.4951">Your app</text><rect fill="#999999" fill-opacity="0.33333" height="934.7617" style="stroke:#0A9EFD;stroke-width:0.5;" width="80.5361" x="349.8535" y="6"/><text fill="#0A9EFD" font-family="sans-serif" font-size="13" font-weight="bold" lengthAdjust="spacing" textLength="37.5591" x="371.342" y="19.4951">Agora</text><rect fill="#0A9EFD" fill-opacity="0.06667" height="391.231" style="stroke:#0A9EFD;stroke-width:2;" width="426.3896" x="10" y="346.6372"/><g><title>User</title><rect fill="#000000" fill-opacity="0.00000" height="770.5645" width="8" x="33.7793" y="86.0986"/><line style="stroke:#0A9EFD;stroke-width:0.5;stroke-dasharray:5.0,5.0;" x1="37" x2="37" y1="86.0986" y2="856.6631"/></g><g><title>RTC SDK</title><rect fill="#000000" fill-opacity="0.00000" height="770.5645" width="8" x="116.3174" y="86.0986"/><line style="stroke:#0A9EFD;stroke-width:0.5;stroke-dasharray:5.0,5.0;" x1="119.5933" x2="119.5933" y1="86.0986" y2="856.6631"/></g><g><title>SDRTN&#174;</title><rect fill="#000000" fill-opacity="0.00000" height="770.5645" width="8" x="386.1216" y="86.0986"/><line style="stroke:#0A9EFD;stroke-width:0.5;stroke-dasharray:5.0,5.0;" x1="389.8535" x2="389.8535" y1="86.0986" y2="856.6631"/></g><g class="participant participant-head" data-participant="USR"><text fill="#0A9EFD" font-family="Arial" font-size="14" lengthAdjust="spacing" textLength="29.5586" x="20" y="83.1318">User</text><ellipse cx="37.7793" cy="16" fill="none" rx="8" ry="8" style="stroke:#0A9EFD;stroke-width:3;"/><path d="M37.7793,24 L37.7793,51 M24.7793,32 L50.7793,32 M37.7793,51 L24.7793,66 M37.7793,51 L50.7793,66" fill="none" style="stroke:#0A9EFD;stroke-width:3;"/></g><g class="participant participant-tail" data-participant="USR"><text fill="#0A9EFD" font-family="Arial" font-size="14" lengthAdjust="spacing" textLength="29.5586" x="20" y="868.7949">User</text><ellipse cx="37.7793" cy="882.7617" fill="none" rx="8" ry="8" style="stroke:#0A9EFD;stroke-width:3;"/><path d="M37.7793,890.7617 L37.7793,917.7617 M24.7793,898.7617 L50.7793,898.7617 M37.7793,917.7617 L24.7793,932.7617 M37.7793,917.7617 L50.7793,932.7617" fill="none" style="stroke:#0A9EFD;stroke-width:3;"/></g><g class="participant participant-head" data-participant="APP"><rect fill="none" height="30.0986" rx="2.5" ry="2.5" style="stroke:#0A9EFD;stroke-width:2;" width="75.4482" x="82.5933" y="55"/><text fill="#0A9EFD" font-family="Arial" font-size="14" lengthAdjust="spacing" textLength="61.4482" x="89.5933" y="75.1318">RTC SDK</text></g><g class="participant participant-tail" data-participant="APP"><rect fill="none" height="30.0986" rx="2.5" ry="2.5" style="stroke:#0A9EFD;stroke-width:2;" width="75.4482" x="82.5933" y="855.6631"/><text fill="#0A9EFD" font-family="Arial" font-size="14" lengthAdjust="spacing" textLength="61.4482" x="89.5933" y="875.7949">RTC SDK</text></g><g class="participant participant-head" data-participant="API"><rect fill="none" height="30.0986" rx="2.5" ry="2.5" style="stroke:#0A9EFD;stroke-width:2;" width="72.5361" x="353.8535" y="55"/><text fill="#0A9EFD" font-family="Arial" font-size="14" lengthAdjust="spacing" textLength="58.5361" x="360.8535" y="75.1318">SDRTN&#174;</text></g><g class="participant participant-tail" data-participant="API"><rect fill="none" height="30.0986" rx="2.5" ry="2.5" style="stroke:#0A9EFD;stroke-width:2;" width="72.5361" x="353.8535" y="855.6631"/><text fill="#0A9EFD" font-family="Arial" font-size="14" lengthAdjust="spacing" textLength="58.5361" x="360.8535" y="875.7949">SDRTN&#174;</text></g><g class="message" data-participant-1="USR" data-participant-2="APP"><polygon fill="#0A9EFD" points="108.3174,113.0474,118.3174,117.0474,108.3174,121.0474,112.3174,117.0474" style="stroke:#0A9EFD;stroke-width:1;"/><line style="stroke:#0A9EFD;stroke-width:2;" x1="37.7793" x2="114.3174" y1="117.0474" y2="117.0474"/><text fill="#0A9EFD" font-family="Arial" font-size="13" lengthAdjust="spacing" textLength="57.1035" x="50.4966" y="112.2925">Open app</text></g><g class="message" data-participant-1="APP" data-participant-2="APP"><line style="stroke:#0A9EFD;stroke-width:2;" x1="120.3174" x2="162.3174" y1="160.9448" y2="160.9448"/><line style="stroke:#0A9EFD;stroke-width:2;" x1="162.3174" x2="162.3174" y1="160.9448" y2="173.9448"/><line style="stroke:#0A9EFD;stroke-width:2;" x1="121.3174" x2="162.3174" y1="173.9448" y2="173.9448"/><polygon fill="#0A9EFD" points="131.3174,169.9448,121.3174,173.9448,131.3174,177.9448,127.3174,173.9448" style="stroke:#0A9EFD;stroke-width:1;"/><text fill="#0A9EFD" font-family="Arial" font-size="13" lengthAdjust="spacing" textLength="213.8843" x="134.376" y="141.2412">Initialize the Agora RTC SDK engine:</text><text fill="#0A9EFD" font-family="Arial" font-size="13" lengthAdjust="spacing" textLength="228.0015" x="130.9292" y="156.1899">agoraEngine = createAgoraRtcEngine()</text></g><g class="message" data-participant-1="APP" data-participant-2="API"><polygon fill="#0A9EFD" points="378.1216,213.8423,388.1216,217.8423,378.1216,221.8423,382.1216,217.8423" style="stroke:#0A9EFD;stroke-width:1;"/><line style="stroke:#0A9EFD;stroke-width:2;" x1="120.3174" x2="384.1216" y1="217.8423" y2="217.8423"/><text fill="#0A9EFD" font-family="Arial" font-size="13" lengthAdjust="spacing" textLength="146.7134" x="180.0569" y="198.1387">Enable the video module:</text><text fill="#0A9EFD" font-family="Arial" font-size="13" lengthAdjust="spacing" textLength="158.2852" x="177.8828" y="213.0874">agoraEngine.enableVideo()</text></g><g class="message" data-participant-1="APP" data-participant-2="APP"><line style="stroke:#0A9EFD;stroke-width:2;" x1="120.3174" x2="162.3174" y1="261.7397" y2="261.7397"/><line style="stroke:#0A9EFD;stroke-width:2;" x1="162.3174" x2="162.3174" y1="261.7397" y2="274.7397"/><line style="stroke:#0A9EFD;stroke-width:2;" x1="121.3174" x2="162.3174" y1="274.7397" y2="274.7397"/><polygon fill="#0A9EFD" points="131.3174,270.7397,121.3174,274.7397,131.3174,278.7397,127.3174,274.7397" style="stroke:#0A9EFD;stroke-width:1;"/><text fill="#0A9EFD" font-family="Arial" font-size="13" lengthAdjust="spacing" textLength="156.0952" x="148.9978" y="242.0361">Register the event handler:</text><text fill="#0A9EFD" font-family="Arial" font-size="13" lengthAdjust="spacing" textLength="199.4561" x="130.9292" y="256.9849">agoraEngine.registerEventHandler</text></g><g class="message" data-participant-1="APP" data-participant-2="APP"><line style="stroke:#0A9EFD;stroke-width:2;" x1="120.3174" x2="162.3174" y1="318.6372" y2="318.6372"/><line style="stroke:#0A9EFD;stroke-width:2;" x1="162.3174" x2="162.3174" y1="318.6372" y2="331.6372"/><line style="stroke:#0A9EFD;stroke-width:2;" x1="121.3174" x2="162.3174" y1="331.6372" y2="331.6372"/><polygon fill="#0A9EFD" points="131.3174,327.6372,121.3174,331.6372,131.3174,335.6372,127.3174,331.6372" style="stroke:#0A9EFD;stroke-width:1;"/><text fill="#0A9EFD" font-family="Arial" font-size="13" lengthAdjust="spacing" textLength="181.3906" x="127.3174" y="298.9336">Setup AgoraVideoView widgets</text><text fill="#0A9EFD" font-family="Arial" font-size="13" lengthAdjust="spacing" textLength="156.0825" x="143.5833" y="313.8823">for local and remote videos</text></g><path d="M10,346.6372 L114.2554,346.6372 L114.2554,353.5859 L104.2554,363.5859 L10,363.5859 L10,346.6372" fill="#EEEEEE" style="stroke:#0A9EFD;stroke-width:1.5;"/><rect fill="none" height="391.231" style="stroke:#0A9EFD;stroke-width:2;" width="426.3896" x="10" y="346.6372"/><text fill="#000000" font-family="Arial" font-size="13" lengthAdjust="spacing" textLength="59.2554" x="25" y="359.8311">Video Call</text><g class="message" data-participant-1="USR" data-participant-2="APP"><polygon fill="#0A9EFD" points="108.3174,380.5347,118.3174,384.5347,108.3174,388.5347,112.3174,384.5347" style="stroke:#0A9EFD;stroke-width:1;"/><line style="stroke:#0A9EFD;stroke-width:2;" x1="37.7793" x2="114.3174" y1="384.5347" y2="384.5347"/><text fill="#0A9EFD" font-family="Arial" font-size="13" lengthAdjust="spacing" textLength="57.8081" x="50.1443" y="379.7798">Join a call</text></g><g class="message" data-participant-1="APP" data-participant-2="API"><polygon fill="#0A9EFD" points="378.1216,424.4321,388.1216,428.4321,378.1216,432.4321,382.1216,428.4321" style="stroke:#0A9EFD;stroke-width:1;"/><line style="stroke:#0A9EFD;stroke-width:2;" x1="120.3174" x2="384.1216" y1="428.4321" y2="428.4321"/><text fill="#0A9EFD" font-family="Arial" font-size="13" lengthAdjust="spacing" textLength="93.2153" x="206.8059" y="408.7285">Set a client role:</text><text fill="#0A9EFD" font-family="Arial" font-size="13" lengthAdjust="spacing" textLength="154.6543" x="179.6982" y="423.6772">agoraEngine.setClientRole</text></g><g class="message" data-participant-1="APP" data-participant-2="API"><polygon fill="#0A9EFD" points="378.1216,468.3296,388.1216,472.3296,378.1216,476.3296,382.1216,472.3296" style="stroke:#0A9EFD;stroke-width:1;"/><line style="stroke:#0A9EFD;stroke-width:2;" x1="120.3174" x2="384.1216" y1="472.3296" y2="472.3296"/><text fill="#0A9EFD" font-family="Arial" font-size="13" lengthAdjust="spacing" textLength="122.1353" x="192.3459" y="452.626">Set a channel profile:</text><text fill="#0A9EFD" font-family="Arial" font-size="13" lengthAdjust="spacing" textLength="179.9561" x="167.0474" y="467.5747">agoraEngine.setChannelProfile</text></g><g class="message" data-participant-1="APP" data-participant-2="APP"><line style="stroke:#0A9EFD;stroke-width:2;" x1="120.3174" x2="162.3174" y1="501.2783" y2="501.2783"/><line style="stroke:#0A9EFD;stroke-width:2;" x1="162.3174" x2="162.3174" y1="501.2783" y2="514.2783"/><line style="stroke:#0A9EFD;stroke-width:2;" x1="121.3174" x2="162.3174" y1="514.2783" y2="514.2783"/><polygon fill="#0A9EFD" points="131.3174,510.2783,121.3174,514.2783,131.3174,518.2783,127.3174,514.2783" style="stroke:#0A9EFD;stroke-width:1;"/><text fill="#0A9EFD" font-family="Arial" font-size="13" lengthAdjust="spacing" textLength="168.3843" x="127.3174" y="496.5234">Retrieve authentication token</text></g><g class="message" data-participant-1="APP" data-participant-2="API"><polygon fill="#0A9EFD" points="378.1216,554.1758,388.1216,558.1758,378.1216,562.1758,382.1216,558.1758" style="stroke:#0A9EFD;stroke-width:1;"/><line style="stroke:#0A9EFD;stroke-width:2;" x1="120.3174" x2="384.1216" y1="558.1758" y2="558.1758"/><text fill="#0A9EFD" font-family="Arial" font-size="13" lengthAdjust="spacing" textLength="179.2388" x="165.6001" y="538.4722">Join a channel using the token:</text><text fill="#0A9EFD" font-family="Arial" font-size="13" lengthAdjust="spacing" textLength="146.0024" x="184.0242" y="553.4209">agoraEngine.joinChannel</text></g><g class="message" data-participant-1="APP" data-participant-2="APP"><line style="stroke:#0A9EFD;stroke-width:2;" x1="120.3174" x2="162.3174" y1="602.0732" y2="602.0732"/><line style="stroke:#0A9EFD;stroke-width:2;" x1="162.3174" x2="162.3174" y1="602.0732" y2="615.0732"/><line style="stroke:#0A9EFD;stroke-width:2;" x1="121.3174" x2="162.3174" y1="615.0732" y2="615.0732"/><polygon fill="#0A9EFD" points="131.3174,611.0732,121.3174,615.0732,131.3174,619.0732,127.3174,615.0732" style="stroke:#0A9EFD;stroke-width:1;"/><text fill="#0A9EFD" font-family="Arial" font-size="13" lengthAdjust="spacing" textLength="105.4917" x="153.3301" y="582.3696">Start local peview:</text><text fill="#0A9EFD" font-family="Arial" font-size="13" lengthAdjust="spacing" textLength="157.5171" x="130.9292" y="597.3184">agoraEngine.startPreview()</text></g><g class="message" data-participant-1="API" data-participant-2="APP"><polygon fill="#0A9EFD" points="131.3174,654.9707,121.3174,658.9707,131.3174,662.9707,127.3174,658.9707" style="stroke:#0A9EFD;stroke-width:1;"/><line style="stroke:#0A9EFD;stroke-width:2;" x1="125.3174" x2="389.1216" y1="658.9707" y2="658.9707"/><text fill="#0A9EFD" font-family="Arial" font-size="13" lengthAdjust="spacing" textLength="116.3398" x="195.2437" y="639.2671">Remote user joined:</text><text fill="#0A9EFD" font-family="Arial" font-size="13" lengthAdjust="spacing" textLength="226.186" x="143.9324" y="654.2158">RtcEngineEventHandler onUserJoined:</text></g><g class="message" data-participant-1="APP" data-participant-2="API"><polygon fill="#0A9EFD" points="131.3174,683.9194,121.3174,687.9194,131.3174,691.9194,127.3174,687.9194" style="stroke:#0A9EFD;stroke-width:1;"/><polygon fill="#0A9EFD" points="378.1216,683.9194,388.1216,687.9194,378.1216,691.9194,382.1216,687.9194" style="stroke:#0A9EFD;stroke-width:1;"/><line style="stroke:#0A9EFD;stroke-width:2;" x1="125.3174" x2="384.1216" y1="687.9194" y2="687.9194"/><text fill="#0A9EFD" font-family="Arial" font-size="13" lengthAdjust="spacing" textLength="179.937" x="165.251" y="683.1646">Send and receive data streams</text></g><g class="message" data-participant-1="APP" data-participant-2="APP"><line style="stroke:#0A9EFD;stroke-width:2;" x1="120.3174" x2="162.3174" y1="716.8682" y2="716.8682"/><line style="stroke:#0A9EFD;stroke-width:2;" x1="162.3174" x2="162.3174" y1="716.8682" y2="729.8682"/><line style="stroke:#0A9EFD;stroke-width:2;" x1="121.3174" x2="162.3174" y1="729.8682" y2="729.8682"/><polygon fill="#0A9EFD" points="131.3174,725.8682,121.3174,729.8682,131.3174,733.8682,127.3174,729.8682" style="stroke:#0A9EFD;stroke-width:1;"/><text fill="#0A9EFD" font-family="Arial" font-size="13" lengthAdjust="spacing" textLength="255.8042" x="127.3174" y="712.1133">Display remote video using AgoraVideoView</text></g><g class="message" data-participant-1="USR" data-participant-2="APP"><polygon fill="#0A9EFD" points="108.3174,761.8169,118.3174,765.8169,108.3174,769.8169,112.3174,765.8169" style="stroke:#0A9EFD;stroke-width:1;"/><line style="stroke:#0A9EFD;stroke-width:2;" x1="37.7793" x2="114.3174" y1="765.8169" y2="765.8169"/><text fill="#0A9EFD" font-family="Arial" font-size="13" lengthAdjust="spacing" textLength="58.5381" x="49.7793" y="761.062">Leave call</text></g><g class="message" data-participant-1="APP" data-participant-2="API"><polygon fill="#0A9EFD" points="378.1216,805.7144,388.1216,809.7144,378.1216,813.7144,382.1216,809.7144" style="stroke:#0A9EFD;stroke-width:1;"/><line style="stroke:#0A9EFD;stroke-width:2;" x1="120.3174" x2="384.1216" y1="809.7144" y2="809.7144"/><text fill="#0A9EFD" font-family="Arial" font-size="13" lengthAdjust="spacing" textLength="106.2534" x="202.0928" y="790.0107">Leave the channel</text><text fill="#0A9EFD" font-family="Arial" font-size="13" lengthAdjust="spacing" textLength="165.5024" x="174.2742" y="804.9595">agoraEngine.leaveChannel()</text></g><g class="message" data-participant-1="USR" data-participant-2="APP"><polygon fill="#0A9EFD" points="108.3174,834.6631,118.3174,838.6631,108.3174,842.6631,112.3174,838.6631" style="stroke:#0A9EFD;stroke-width:1;"/><line style="stroke:#0A9EFD;stroke-width:2;" x1="37.7793" x2="114.3174" y1="838.6631" y2="838.6631"/><text fill="#0A9EFD" font-family="Arial" font-size="13" lengthAdjust="spacing" textLength="58.5381" x="49.7793" y="833.9082">Close app</text></g><!--SRC=[TLFRRXD137sVhp3x10_j1qI0L2MHI44GRTfAI4YLk-jkJISpevdP5FWeFe8lmtCXpIRbSJp7npx7zYisdHvx0XoinzlmoEQSnwrM2hjeFJJNWNm36E1wqofrPtz0yzME7j2vHZdqaJjsQ28qxTKSDekF6NonNYioFGY-9bqa_gECpQAz-lpdTyrOFMT8BJXxdrXcyCMHITMKlFR1bU78gFaNGNmWoEHG6m0o0nkQmJTJL2tp6zv1vmaZPN0Rkn9-_UQPU3M3fS4xNKXtt9E5hUr7VK9sJXbtao273D9QImE7I3vpq8v4w0EQNfC_8V4Lkaoe3mKquTfG75rHbqlTC3t14_S3nP38xcL2sdQeGPB1qzR6sdTGQl1MadCUp57hYQkNbgKNw5ByKBzKJ67DgMzlNr0UACxpTok_B-MAMaCQdBVt_9_y0baNn95xqREu1ZYAVqPs1IDR0z4-afbK-wUWbXi3co5xdg6pewhV1LtBJXsEif3LGqSxyVUquGHP-_nPP_tshFJG5iT7kH585QZFsVlbEXmiM9DkwRB0AitUEHbV6M57BEfxZ0WXohvkmwJV1GUdyUTarbNxT4tICKqFwHEXC9zCl8IJSTNA8_aw_LVhHFuXurpRGFas_m80]--></g></svg>