<svg xmlns="http://www.w3.org/2000/svg" xmlns:xlink="http://www.w3.org/1999/xlink" contentStyleType="text/css" data-diagram-type="SEQUENCE" height="697px" preserveAspectRatio="none" style="width:436px;height:697px;" version="1.1" viewBox="0 0 436 697" width="436px" zoomAndPan="magnify"><defs/><g><rect fill="none" height="695.4282" style="stroke:#0A9EFD;stroke-width:1;" width="434.6196" x="0" y="0"/><rect fill="#999999" fill-opacity="0.33333" height="685.4282" style="stroke:#0A9EFD;stroke-width:0.5;" width="83.4482" x="78.5933" y="6"/><text fill="#0A9EFD" font-family="sans-serif" font-size="13" font-weight="bold" lengthAdjust="spacing" textLength="56.3354" x="92.1497" y="19.4951">Your app</text><rect fill="#999999" fill-opacity="0.33333" height="685.4282" style="stroke:#0A9EFD;stroke-width:0.5;" width="80.5361" x="344.0835" y="6"/><text fill="#0A9EFD" font-family="sans-serif" font-size="13" font-weight="bold" lengthAdjust="spacing" textLength="37.5591" x="365.572" y="19.4951">Agora</text><rect fill="#0A9EFD" fill-opacity="0.06667" height="216.6411" style="stroke:#0A9EFD;stroke-width:2;" width="420.6196" x="10" y="215.9448"/><g><title>User</title><rect fill="#000000" fill-opacity="0.00000" height="521.231" width="8" x="33.7793" y="86.0986"/><line style="stroke:#0A9EFD;stroke-width:0.5;stroke-dasharray:5.0,5.0;" x1="37" x2="37" y1="86.0986" y2="607.3296"/></g><g><title>RTC SDK</title><rect fill="#000000" fill-opacity="0.00000" height="521.231" width="8" x="116.3174" y="86.0986"/><line style="stroke:#0A9EFD;stroke-width:0.5;stroke-dasharray:5.0,5.0;" x1="119.5933" x2="119.5933" y1="86.0986" y2="607.3296"/></g><g><title>SDRTN&#174;</title><rect fill="#000000" fill-opacity="0.00000" height="521.231" width="8" x="380.3516" y="86.0986"/><line style="stroke:#0A9EFD;stroke-width:0.5;stroke-dasharray:5.0,5.0;" x1="384.0835" x2="384.0835" y1="86.0986" y2="607.3296"/></g><g class="participant participant-head" data-participant="USR"><text fill="#0A9EFD" font-family="Arial" font-size="14" lengthAdjust="spacing" textLength="29.5586" x="20" y="83.1318">User</text><ellipse cx="37.7793" cy="16" fill="none" rx="8" ry="8" style="stroke:#0A9EFD;stroke-width:3;"/><path d="M37.7793,24 L37.7793,51 M24.7793,32 L50.7793,32 M37.7793,51 L24.7793,66 M37.7793,51 L50.7793,66" fill="none" style="stroke:#0A9EFD;stroke-width:3;"/></g><g class="participant participant-tail" data-participant="USR"><text fill="#0A9EFD" font-family="Arial" font-size="14" lengthAdjust="spacing" textLength="29.5586" x="20" y="619.4614">User</text><ellipse cx="37.7793" cy="633.4282" fill="none" rx="8" ry="8" style="stroke:#0A9EFD;stroke-width:3;"/><path d="M37.7793,641.4282 L37.7793,668.4282 M24.7793,649.4282 L50.7793,649.4282 M37.7793,668.4282 L24.7793,683.4282 M37.7793,668.4282 L50.7793,683.4282" fill="none" style="stroke:#0A9EFD;stroke-width:3;"/></g><g class="participant participant-head" data-participant="APP"><rect fill="none" height="30.0986" rx="2.5" ry="2.5" style="stroke:#0A9EFD;stroke-width:2;" width="75.4482" x="82.5933" y="55"/><text fill="#0A9EFD" font-family="Arial" font-size="14" lengthAdjust="spacing" textLength="61.4482" x="89.5933" y="75.1318">RTC SDK</text></g><g class="participant participant-tail" data-participant="APP"><rect fill="none" height="30.0986" rx="2.5" ry="2.5" style="stroke:#0A9EFD;stroke-width:2;" width="75.4482" x="82.5933" y="606.3296"/><text fill="#0A9EFD" font-family="Arial" font-size="14" lengthAdjust="spacing" textLength="61.4482" x="89.5933" y="626.4614">RTC SDK</text></g><g class="participant participant-head" data-participant="API"><rect fill="none" height="30.0986" rx="2.5" ry="2.5" style="stroke:#0A9EFD;stroke-width:2;" width="72.5361" x="348.0835" y="55"/><text fill="#0A9EFD" font-family="Arial" font-size="14" lengthAdjust="spacing" textLength="58.5361" x="355.0835" y="75.1318">SDRTN&#174;</text></g><g class="participant participant-tail" data-participant="API"><rect fill="none" height="30.0986" rx="2.5" ry="2.5" style="stroke:#0A9EFD;stroke-width:2;" width="72.5361" x="348.0835" y="606.3296"/><text fill="#0A9EFD" font-family="Arial" font-size="14" lengthAdjust="spacing" textLength="58.5361" x="355.0835" y="626.4614">SDRTN&#174;</text></g><g class="message" data-participant-1="USR" data-participant-2="APP"><polygon fill="#0A9EFD" points="108.3174,113.0474,118.3174,117.0474,108.3174,121.0474,112.3174,117.0474" style="stroke:#0A9EFD;stroke-width:1;"/><line style="stroke:#0A9EFD;stroke-width:2;" x1="37.7793" x2="114.3174" y1="117.0474" y2="117.0474"/><text fill="#0A9EFD" font-family="Arial" font-size="13" lengthAdjust="spacing" textLength="57.1035" x="50.4966" y="112.2925">Open app</text></g><g class="message" data-participant-1="APP" data-participant-2="APP"><line style="stroke:#0A9EFD;stroke-width:2;" x1="120.3174" x2="162.3174" y1="145.9961" y2="145.9961"/><line style="stroke:#0A9EFD;stroke-width:2;" x1="162.3174" x2="162.3174" y1="145.9961" y2="158.9961"/><line style="stroke:#0A9EFD;stroke-width:2;" x1="121.3174" x2="162.3174" y1="158.9961" y2="158.9961"/><polygon fill="#0A9EFD" points="131.3174,154.9961,121.3174,158.9961,131.3174,162.9961,127.3174,158.9961" style="stroke:#0A9EFD;stroke-width:1;"/><text fill="#0A9EFD" font-family="Arial" font-size="13" lengthAdjust="spacing" textLength="166.918" x="127.3174" y="141.2412">Initiate the RTC SDK engine.</text></g><g class="message" data-participant-1="APP" data-participant-2="APP"><line style="stroke:#0A9EFD;stroke-width:2;" x1="120.3174" x2="162.3174" y1="187.9448" y2="187.9448"/><line style="stroke:#0A9EFD;stroke-width:2;" x1="162.3174" x2="162.3174" y1="187.9448" y2="200.9448"/><line style="stroke:#0A9EFD;stroke-width:2;" x1="121.3174" x2="162.3174" y1="200.9448" y2="200.9448"/><polygon fill="#0A9EFD" points="131.3174,196.9448,121.3174,200.9448,131.3174,204.9448,127.3174,200.9448" style="stroke:#0A9EFD;stroke-width:1;"/><text fill="#0A9EFD" font-family="Arial" font-size="13" lengthAdjust="spacing" textLength="143.8188" x="127.3174" y="183.1899">Start video in the engine.</text></g><path d="M10,215.9448 L81.73,215.9448 L81.73,222.8936 L71.73,232.8936 L10,232.8936 L10,215.9448" fill="#EEEEEE" style="stroke:#0A9EFD;stroke-width:1.5;"/><rect fill="none" height="216.6411" style="stroke:#0A9EFD;stroke-width:2;" width="420.6196" x="10" y="215.9448"/><text fill="#000000" font-family="Arial" font-size="13" lengthAdjust="spacing" textLength="26.73" x="25" y="229.1387">Host</text><g class="message" data-participant-1="USR" data-participant-2="APP"><polygon fill="#0A9EFD" points="108.3174,249.8423,118.3174,253.8423,108.3174,257.8423,112.3174,253.8423" style="stroke:#0A9EFD;stroke-width:1;"/><line style="stroke:#0A9EFD;stroke-width:2;" x1="37.7793" x2="114.3174" y1="253.8423" y2="253.8423"/><text fill="#0A9EFD" font-family="Arial" font-size="13" lengthAdjust="spacing" textLength="50.5718" x="53.7625" y="249.0874">Start call</text></g><g class="message" data-participant-1="APP" data-participant-2="APP"><line style="stroke:#0A9EFD;stroke-width:2;" x1="120.3174" x2="162.3174" y1="282.791" y2="282.791"/><line style="stroke:#0A9EFD;stroke-width:2;" x1="162.3174" x2="162.3174" y1="282.791" y2="295.791"/><line style="stroke:#0A9EFD;stroke-width:2;" x1="121.3174" x2="162.3174" y1="295.791" y2="295.791"/><polygon fill="#0A9EFD" points="131.3174,291.791,121.3174,295.791,131.3174,299.791,127.3174,295.791" style="stroke:#0A9EFD;stroke-width:1;"/><text fill="#0A9EFD" font-family="Arial" font-size="13" lengthAdjust="spacing" textLength="250.0342" x="127.3174" y="278.0361">In a call, all users broadcast to the channel.</text></g><g class="message" data-participant-1="APP" data-participant-2="APP"><line style="stroke:#0A9EFD;stroke-width:2;" x1="120.3174" x2="162.3174" y1="324.7397" y2="324.7397"/><line style="stroke:#0A9EFD;stroke-width:2;" x1="162.3174" x2="162.3174" y1="324.7397" y2="337.7397"/><line style="stroke:#0A9EFD;stroke-width:2;" x1="121.3174" x2="162.3174" y1="337.7397" y2="337.7397"/><polygon fill="#0A9EFD" points="131.3174,333.7397,121.3174,337.7397,131.3174,341.7397,127.3174,337.7397" style="stroke:#0A9EFD;stroke-width:1;"/><text fill="#0A9EFD" font-family="Arial" font-size="13" lengthAdjust="spacing" textLength="96.1035" x="127.3174" y="319.9849">Start local video.</text></g><g class="message" data-participant-1="APP" data-participant-2="API"><polygon fill="#0A9EFD" points="372.3516,362.6885,382.3516,366.6885,372.3516,370.6885,376.3516,366.6885" style="stroke:#0A9EFD;stroke-width:1;"/><line style="stroke:#0A9EFD;stroke-width:2;" x1="120.3174" x2="378.3516" y1="366.6885" y2="366.6885"/><text fill="#0A9EFD" font-family="Arial" font-size="13" lengthAdjust="spacing" textLength="98.2935" x="203.1877" y="361.9336">Join the channel.</text></g><g class="message" data-participant-1="APP" data-participant-2="API"><polygon fill="#0A9EFD" points="372.3516,391.6372,382.3516,395.6372,372.3516,399.6372,376.3516,395.6372" style="stroke:#0A9EFD;stroke-width:1;"/><line style="stroke:#0A9EFD;stroke-width:2;" x1="120.3174" x2="378.3516" y1="395.6372" y2="395.6372"/><text fill="#0A9EFD" font-family="Arial" font-size="13" lengthAdjust="spacing" textLength="226.1479" x="139.2605" y="390.8823">Retrieve streaming from the other user.</text></g><g class="message" data-participant-1="API" data-participant-2="APP"><polygon fill="#0A9EFD" points="131.3174,420.5859,121.3174,424.5859,131.3174,428.5859,127.3174,424.5859" style="stroke:#0A9EFD;stroke-width:1;"/><polygon fill="#0A9EFD" points="372.3516,420.5859,382.3516,424.5859,372.3516,428.5859,376.3516,424.5859" style="stroke:#0A9EFD;stroke-width:1;"/><line style="stroke:#0A9EFD;stroke-width:2;" x1="125.3174" x2="378.3516" y1="424.5859" y2="424.5859"/><text fill="#0A9EFD" font-family="Arial" font-size="13" lengthAdjust="spacing" textLength="182.8252" x="160.9219" y="419.8311">Receive and send data streams</text></g><g class="message" data-participant-1="USR" data-participant-2="APP"><polygon fill="#0A9EFD" points="108.3174,456.5347,118.3174,460.5347,108.3174,464.5347,112.3174,460.5347" style="stroke:#0A9EFD;stroke-width:1;"/><line style="stroke:#0A9EFD;stroke-width:2;" x1="37.7793" x2="114.3174" y1="460.5347" y2="460.5347"/><text fill="#0A9EFD" font-family="Arial" font-size="13" lengthAdjust="spacing" textLength="58.5381" x="49.7793" y="455.7798">Leave call</text></g><g class="message" data-participant-1="APP" data-participant-2="API"><polygon fill="#0A9EFD" points="372.3516,485.4834,382.3516,489.4834,372.3516,493.4834,376.3516,489.4834" style="stroke:#0A9EFD;stroke-width:1;"/><line style="stroke:#0A9EFD;stroke-width:2;" x1="120.3174" x2="378.3516" y1="489.4834" y2="489.4834"/><text fill="#0A9EFD" font-family="Arial" font-size="13" lengthAdjust="spacing" textLength="95.3926" x="204.6382" y="484.7285">Stop local video.</text></g><g class="message" data-participant-1="APP" data-participant-2="API"><polygon fill="#0A9EFD" points="372.3516,514.4321,382.3516,518.4321,372.3516,522.4321,376.3516,518.4321" style="stroke:#0A9EFD;stroke-width:1;"/><line style="stroke:#0A9EFD;stroke-width:2;" x1="120.3174" x2="378.3516" y1="518.4321" y2="518.4321"/><text fill="#0A9EFD" font-family="Arial" font-size="13" lengthAdjust="spacing" textLength="109.8652" x="197.4019" y="513.6772">Leave the channel.</text></g><g class="message" data-participant-1="USR" data-participant-2="APP"><polygon fill="#0A9EFD" points="108.3174,543.3809,118.3174,547.3809,108.3174,551.3809,112.3174,547.3809" style="stroke:#0A9EFD;stroke-width:1;"/><line style="stroke:#0A9EFD;stroke-width:2;" x1="37.7793" x2="114.3174" y1="547.3809" y2="547.3809"/><text fill="#0A9EFD" font-family="Arial" font-size="13" lengthAdjust="spacing" textLength="58.5381" x="49.7793" y="542.626">Close app</text></g><g class="message" data-participant-1="APP" data-participant-2="APP"><line style="stroke:#0A9EFD;stroke-width:2;" x1="120.3174" x2="162.3174" y1="576.3296" y2="576.3296"/><line style="stroke:#0A9EFD;stroke-width:2;" x1="162.3174" x2="162.3174" y1="576.3296" y2="589.3296"/><line style="stroke:#0A9EFD;stroke-width:2;" x1="121.3174" x2="162.3174" y1="589.3296" y2="589.3296"/><polygon fill="#0A9EFD" points="131.3174,585.3296,121.3174,589.3296,131.3174,593.3296,127.3174,589.3296" style="stroke:#0A9EFD;stroke-width:1;"/><text fill="#0A9EFD" font-family="Arial" font-size="13" lengthAdjust="spacing" textLength="146.688" x="127.3174" y="571.5747">Clean up local resources.</text></g><!--SRC=[TP91JiCm44NtFiMGDVG05KAgsWK115NIBbYXgJEa8roFPJiLf-8Gd0mxJL7JmiPIx7d__tpxYgqsNKE0hNXy2nzi9zpjZ5AeetWere5y0HXWNLTARUGJYbVfFA1pXL8EVMJD3cs4ebhDeLuyzjEpvL8fiWqaOi1csU6SgHVLwldxQs3A4oRvmSrT5fh2YoER7LNw-jqiBKV6I12t18Cta6tPqcGqMCVa27jkI81jFtuSQxrq3kubn97VWT1ep9aZOBzx3Mc1BbKJOEC56uqXGfHUMs_HMZ9_PJ2Iw4EIa-Do2Wyo1Bk4qsb5qJFj2KBqX3ksBRnxsVM0fCNtKJ9JmktHiI9Dd1XCXORSQeCH1uMGQrRZZfy8q_JudyiSNDp_kG_GAFX8T6uaqCNDpGsXXUwewoca5wKfJDGF]--></g></svg>