<svg xmlns="http://www.w3.org/2000/svg" xmlns:xlink="http://www.w3.org/1999/xlink" contentStyleType="text/css" data-diagram-type="SEQUENCE" height="832px" preserveAspectRatio="none" style="width:691px;height:832px;" version="1.1" viewBox="0 0 691 832" width="691px" zoomAndPan="magnify"><defs/><g><rect fill="none" height="830.9155" style="stroke:#0A9EFD;stroke-width:1;" width="689.4678" x="0" y="0"/><rect fill="#999999" fill-opacity="0.33333" height="820.9155" style="stroke:#0A9EFD;stroke-width:0.5;" width="83.4482" x="89.4224" y="6"/><text fill="#0A9EFD" font-family="sans-serif" font-size="13" font-weight="bold" lengthAdjust="spacing" textLength="67.1836" x="97.5547" y="19.4951">Your game</text><rect fill="#999999" fill-opacity="0.33333" height="820.9155" style="stroke:#0A9EFD;stroke-width:0.5;" width="80.5361" x="598.9316" y="6"/><text fill="#0A9EFD" font-family="sans-serif" font-size="13" font-weight="bold" lengthAdjust="spacing" textLength="37.5591" x="620.4202" y="19.4951">Agora</text><rect fill="#0A9EFD" fill-opacity="0.06667" height="190.5898" style="stroke:#0A9EFD;stroke-width:2;" width="675.4678" x="10" y="319.6372"/><g><title>User</title><rect fill="#000000" fill-opacity="0.00000" height="656.7183" width="8" x="33.7793" y="86.0986"/><line style="stroke:#0A9EFD;stroke-width:0.5;stroke-dasharray:5.0,5.0;" x1="37" x2="37" y1="86.0986" y2="742.8169"/></g><g><title>RTC SDK</title><rect fill="#000000" fill-opacity="0.00000" height="656.7183" width="8" x="127.1465" y="86.0986"/><line style="stroke:#0A9EFD;stroke-width:0.5;stroke-dasharray:5.0,5.0;" x1="130.4224" x2="130.4224" y1="86.0986" y2="742.8169"/></g><g><title>SDRTN&#174;</title><rect fill="#000000" fill-opacity="0.00000" height="656.7183" width="8" x="635.1997" y="86.0986"/><line style="stroke:#0A9EFD;stroke-width:0.5;stroke-dasharray:5.0,5.0;" x1="638.9316" x2="638.9316" y1="86.0986" y2="742.8169"/></g><g class="participant participant-head" data-participant="USR"><text fill="#0A9EFD" font-family="Arial" font-size="14" lengthAdjust="spacing" textLength="29.5586" x="20" y="83.1318">User</text><ellipse cx="37.7793" cy="16" fill="none" rx="8" ry="8" style="stroke:#0A9EFD;stroke-width:3;"/><path d="M37.7793,24 L37.7793,51 M24.7793,32 L50.7793,32 M37.7793,51 L24.7793,66 M37.7793,51 L50.7793,66" fill="none" style="stroke:#0A9EFD;stroke-width:3;"/></g><g class="participant participant-tail" data-participant="USR"><text fill="#0A9EFD" font-family="Arial" font-size="14" lengthAdjust="spacing" textLength="29.5586" x="20" y="754.9487">User</text><ellipse cx="37.7793" cy="768.9155" fill="none" rx="8" ry="8" style="stroke:#0A9EFD;stroke-width:3;"/><path d="M37.7793,776.9155 L37.7793,803.9155 M24.7793,784.9155 L50.7793,784.9155 M37.7793,803.9155 L24.7793,818.9155 M37.7793,803.9155 L50.7793,818.9155" fill="none" style="stroke:#0A9EFD;stroke-width:3;"/></g><g class="participant participant-head" data-participant="APP"><rect fill="none" height="30.0986" rx="2.5" ry="2.5" style="stroke:#0A9EFD;stroke-width:2;" width="75.4482" x="93.4224" y="55"/><text fill="#0A9EFD" font-family="Arial" font-size="14" lengthAdjust="spacing" textLength="61.4482" x="100.4224" y="75.1318">RTC SDK</text></g><g class="participant participant-tail" data-participant="APP"><rect fill="none" height="30.0986" rx="2.5" ry="2.5" style="stroke:#0A9EFD;stroke-width:2;" width="75.4482" x="93.4224" y="741.8169"/><text fill="#0A9EFD" font-family="Arial" font-size="14" lengthAdjust="spacing" textLength="61.4482" x="100.4224" y="761.9487">RTC SDK</text></g><g class="participant participant-head" data-participant="API"><rect fill="none" height="30.0986" rx="2.5" ry="2.5" style="stroke:#0A9EFD;stroke-width:2;" width="72.5361" x="602.9316" y="55"/><text fill="#0A9EFD" font-family="Arial" font-size="14" lengthAdjust="spacing" textLength="58.5361" x="609.9316" y="75.1318">SDRTN&#174;</text></g><g class="participant participant-tail" data-participant="API"><rect fill="none" height="30.0986" rx="2.5" ry="2.5" style="stroke:#0A9EFD;stroke-width:2;" width="72.5361" x="602.9316" y="741.8169"/><text fill="#0A9EFD" font-family="Arial" font-size="14" lengthAdjust="spacing" textLength="58.5361" x="609.9316" y="761.9487">SDRTN&#174;</text></g><g class="message" data-participant-1="USR" data-participant-2="APP"><polygon fill="#0A9EFD" points="119.1465,113.0474,129.1465,117.0474,119.1465,121.0474,123.1465,117.0474" style="stroke:#0A9EFD;stroke-width:1;"/><line style="stroke:#0A9EFD;stroke-width:2;" x1="37.7793" x2="125.1465" y1="117.0474" y2="117.0474"/><text fill="#0A9EFD" font-family="Arial" font-size="13" lengthAdjust="spacing" textLength="67.9326" x="50.4966" y="112.2925">Open game</text></g><g class="message" data-participant-1="APP" data-participant-2="APP"><line style="stroke:#0A9EFD;stroke-width:2;" x1="131.1465" x2="173.1465" y1="160.9448" y2="160.9448"/><line style="stroke:#0A9EFD;stroke-width:2;" x1="173.1465" x2="173.1465" y1="160.9448" y2="173.9448"/><line style="stroke:#0A9EFD;stroke-width:2;" x1="132.1465" x2="173.1465" y1="173.9448" y2="173.9448"/><polygon fill="#0A9EFD" points="142.1465,169.9448,132.1465,173.9448,142.1465,177.9448,138.1465,173.9448" style="stroke:#0A9EFD;stroke-width:1;"/><text fill="#0A9EFD" font-family="Arial" font-size="13" lengthAdjust="spacing" textLength="176.3252" x="221.0564" y="141.2412">Create an RtcEngine instance:</text><text fill="#0A9EFD" font-family="Arial" font-size="13" lengthAdjust="spacing" textLength="342.145" x="141.7583" y="156.1899">RtcEngine = Agora.Rtc.RtcEngine.CreateAgoraRtcEngine()</text></g><g class="message" data-participant-1="APP" data-participant-2="API"><polygon fill="#0A9EFD" points="627.1997,243.7397,637.1997,247.7397,627.1997,251.7397,631.1997,247.7397" style="stroke:#0A9EFD;stroke-width:1;"/><line style="stroke:#0A9EFD;stroke-width:2;" x1="131.1465" x2="633.1997" y1="247.7397" y2="247.7397"/><text fill="#0A9EFD" font-family="Arial" font-size="13" lengthAdjust="spacing" textLength="90.3335" x="338.2004" y="198.1387">Set the context:</text><text fill="#0A9EFD" font-family="Arial" font-size="13" lengthAdjust="spacing" textLength="391.3013" x="189.5225" y="213.0874">RtcEngineContext context = new RtcEngineContext(_appID, 0, true,</text><text fill="#0A9EFD" font-family="Arial" font-size="13" lengthAdjust="spacing" textLength="445.0215" x="162.6624" y="228.0361">CHANNEL_PROFILE_TYPE.CHANNEL_PROFILE_LIVE_BROADCASTING,</text><text fill="#0A9EFD" font-family="Arial" font-size="13" lengthAdjust="spacing" textLength="348.188" x="211.0791" y="242.9849">AUDIO_SCENARIO_TYPE.AUDIO_SCENARIO_DEFAULT)</text></g><g class="message" data-participant-1="APP" data-participant-2="APP"><line style="stroke:#0A9EFD;stroke-width:2;" x1="131.1465" x2="173.1465" y1="291.6372" y2="291.6372"/><line style="stroke:#0A9EFD;stroke-width:2;" x1="173.1465" x2="173.1465" y1="291.6372" y2="304.6372"/><line style="stroke:#0A9EFD;stroke-width:2;" x1="132.1465" x2="173.1465" y1="304.6372" y2="304.6372"/><polygon fill="#0A9EFD" points="142.1465,300.6372,132.1465,304.6372,142.1465,308.6372,138.1465,304.6372" style="stroke:#0A9EFD;stroke-width:1;"/><text fill="#0A9EFD" font-family="Arial" font-size="13" lengthAdjust="spacing" textLength="114.1689" x="161.6265" y="271.9336">Initialize RtcEngine:</text><text fill="#0A9EFD" font-family="Arial" font-size="13" lengthAdjust="spacing" textLength="161.1289" x="141.7583" y="286.8823">RtcEngine.Initialize(context)</text></g><path d="M10,319.6372 L114.2554,319.6372 L114.2554,326.5859 L104.2554,336.5859 L10,336.5859 L10,319.6372" fill="#EEEEEE" style="stroke:#0A9EFD;stroke-width:1.5;"/><rect fill="none" height="190.5898" style="stroke:#0A9EFD;stroke-width:2;" width="675.4678" x="10" y="319.6372"/><text fill="#000000" font-family="Arial" font-size="13" lengthAdjust="spacing" textLength="59.2554" x="25" y="332.8311">Video Call</text><g class="message" data-participant-1="USR" data-participant-2="APP"><polygon fill="#0A9EFD" points="119.1465,353.5347,129.1465,357.5347,119.1465,361.5347,123.1465,357.5347" style="stroke:#0A9EFD;stroke-width:1;"/><line style="stroke:#0A9EFD;stroke-width:2;" x1="37.7793" x2="125.1465" y1="357.5347" y2="357.5347"/><text fill="#0A9EFD" font-family="Arial" font-size="13" lengthAdjust="spacing" textLength="50.5718" x="59.177" y="352.7798">Start call</text></g><g class="message" data-participant-1="APP" data-participant-2="APP"><line style="stroke:#0A9EFD;stroke-width:2;" x1="131.1465" x2="173.1465" y1="401.4321" y2="401.4321"/><line style="stroke:#0A9EFD;stroke-width:2;" x1="173.1465" x2="173.1465" y1="401.4321" y2="414.4321"/><line style="stroke:#0A9EFD;stroke-width:2;" x1="132.1465" x2="173.1465" y1="414.4321" y2="414.4321"/><polygon fill="#0A9EFD" points="142.1465,410.4321,132.1465,414.4321,142.1465,418.4321,138.1465,414.4321" style="stroke:#0A9EFD;stroke-width:1;"/><text fill="#0A9EFD" font-family="Arial" font-size="13" lengthAdjust="spacing" textLength="146.7134" x="138.1465" y="381.7285">Enable the video module:</text><text fill="#0A9EFD" font-family="Arial" font-size="13" lengthAdjust="spacing" textLength="145.9771" x="142.1265" y="396.6772">RtcEngine.EnableVideo()</text></g><g class="message" data-participant-1="APP" data-participant-2="API"><polygon fill="#0A9EFD" points="627.1997,454.3296,637.1997,458.3296,627.1997,462.3296,631.1997,458.3296" style="stroke:#0A9EFD;stroke-width:1;"/><line style="stroke:#0A9EFD;stroke-width:2;" x1="131.1465" x2="633.1997" y1="458.3296" y2="458.3296"/><text fill="#0A9EFD" font-family="Arial" font-size="13" lengthAdjust="spacing" textLength="188.6016" x="289.0664" y="438.626">Set the user role as broadcaster:</text><text fill="#0A9EFD" font-family="Arial" font-size="13" lengthAdjust="spacing" textLength="480.4414" x="146.7583" y="453.5747">RtcEngine.SetClientRole(CLIENT_ROLE_TYPE.CLIENT_ROLE_BROADCASTER)</text></g><g class="message" data-participant-1="APP" data-participant-2="API"><polygon fill="#0A9EFD" points="627.1997,498.2271,637.1997,502.2271,627.1997,506.2271,631.1997,502.2271" style="stroke:#0A9EFD;stroke-width:1;"/><line style="stroke:#0A9EFD;stroke-width:2;" x1="131.1465" x2="633.1997" y1="502.2271" y2="502.2271"/><text fill="#0A9EFD" font-family="Arial" font-size="13" lengthAdjust="spacing" textLength="50.5781" x="358.0781" y="482.5234">Join call:</text><text fill="#0A9EFD" font-family="Arial" font-size="13" lengthAdjust="spacing" textLength="144.5234" x="314.7173" y="497.4722">RtcEngine.JoinChannel()</text></g><g class="message" data-participant-1="USR" data-participant-2="APP"><polygon fill="#0A9EFD" points="119.1465,534.1758,129.1465,538.1758,119.1465,542.1758,123.1465,538.1758" style="stroke:#0A9EFD;stroke-width:1;"/><line style="stroke:#0A9EFD;stroke-width:2;" x1="37.7793" x2="125.1465" y1="538.1758" y2="538.1758"/><text fill="#0A9EFD" font-family="Arial" font-size="13" lengthAdjust="spacing" textLength="58.5381" x="55.1938" y="533.4209">Leave call</text></g><g class="message" data-participant-1="APP" data-participant-2="API"><polygon fill="#0A9EFD" points="627.1997,578.0732,637.1997,582.0732,627.1997,586.0732,631.1997,582.0732" style="stroke:#0A9EFD;stroke-width:1;"/><line style="stroke:#0A9EFD;stroke-width:2;" x1="131.1465" x2="633.1997" y1="582.0732" y2="582.0732"/><text fill="#0A9EFD" font-family="Arial" font-size="13" lengthAdjust="spacing" textLength="109.8652" x="328.4346" y="562.3696">Leave the channel:</text><text fill="#0A9EFD" font-family="Arial" font-size="13" lengthAdjust="spacing" textLength="156.0952" x="308.9314" y="577.3184">RtcEngine.LeaveChannel()</text></g><g class="message" data-participant-1="APP" data-participant-2="APP"><line style="stroke:#0A9EFD;stroke-width:2;" x1="131.1465" x2="173.1465" y1="625.9707" y2="625.9707"/><line style="stroke:#0A9EFD;stroke-width:2;" x1="173.1465" x2="173.1465" y1="625.9707" y2="638.9707"/><line style="stroke:#0A9EFD;stroke-width:2;" x1="132.1465" x2="173.1465" y1="638.9707" y2="638.9707"/><polygon fill="#0A9EFD" points="142.1465,634.9707,132.1465,638.9707,142.1465,642.9707,138.1465,638.9707" style="stroke:#0A9EFD;stroke-width:1;"/><text fill="#0A9EFD" font-family="Arial" font-size="13" lengthAdjust="spacing" textLength="156.0889" x="138.1465" y="606.2671">Disable the video modules:</text><text fill="#0A9EFD" font-family="Arial" font-size="13" lengthAdjust="spacing" textLength="148.8525" x="145.3765" y="621.2158">RtcEngine.DisableVideo()</text></g><g class="message" data-participant-1="USR" data-participant-2="APP"><polygon fill="#0A9EFD" points="119.1465,663.9194,129.1465,667.9194,119.1465,671.9194,123.1465,667.9194" style="stroke:#0A9EFD;stroke-width:1;"/><line style="stroke:#0A9EFD;stroke-width:2;" x1="37.7793" x2="125.1465" y1="667.9194" y2="667.9194"/><text fill="#0A9EFD" font-family="Arial" font-size="13" lengthAdjust="spacing" textLength="69.3672" x="49.7793" y="663.1646">Close game</text></g><g class="message" data-participant-1="APP" data-participant-2="APP"><line style="stroke:#0A9EFD;stroke-width:2;" x1="131.1465" x2="173.1465" y1="711.8169" y2="711.8169"/><line style="stroke:#0A9EFD;stroke-width:2;" x1="173.1465" x2="173.1465" y1="711.8169" y2="724.8169"/><line style="stroke:#0A9EFD;stroke-width:2;" x1="132.1465" x2="173.1465" y1="724.8169" y2="724.8169"/><polygon fill="#0A9EFD" points="142.1465,720.8169,132.1465,724.8169,142.1465,728.8169,138.1465,724.8169" style="stroke:#0A9EFD;stroke-width:1;"/><text fill="#0A9EFD" font-family="Arial" font-size="13" lengthAdjust="spacing" textLength="146.688" x="138.1465" y="692.1133">Clean up local resources:</text><text fill="#0A9EFD" font-family="Arial" font-size="13" lengthAdjust="spacing" textLength="119.2153" x="157.3005" y="707.062">RtcEngine.Dispose()</text></g><!--SRC=[TLFHZfim47ptLsnvIgGKzJbIAr73NMaHH41EEkaavC0gPzMnaJ7NKp-g7z4lgt4I0lJk3MPtPjRZzGSkQz4t2EoeDAkwdrpwl3y9GbXjb0Pltw7sW7MmBt923keLl4VLQpYo4tg4j4mRNlEMIGDUNb8emX-kFTZj247PWALSUC5WiUGKOLwcV_zSEF64OmtXuvT1Q0jPYz9P4lixebGZCtPq2Rcf8tda4e7BpZ1PunQUfl1dSEw-HVmHzSy2hZA2g_ND8zv2WGRCCqAjfC5NCvUbP_1Qj2uIV_rNNbMiRUDm0vysO7IFcq63VWlID4ggNPxTnKbKbO-xo5-2IVmGLL_pB0XfK9HnUZzGWtqOPrL1epJ8xOSZBh0mkWlsIRcUfHLBRZWJ_3VU9fmVnx-rh2v7MXDorAfluO4tg80o8MONKnXxcL0FyDGhakmWq0NtueWdrVHYQNVkSihlfDxRxGEjh9HTZuDMhAbPPr0lX6mx5HoboMthYYPnb9PLdesnJe0npIYVMtvNNBg3BBG7d3upAL7O8UrspZSpGVQ2Ym3YA-mMvynTgBhwJNQQNSYxDyFh5XANlcjyiwceK1s-yM04siTYRrCeEp5exEnJhY_AS-dM2Wog_m00]--></g></svg>