<svg xmlns="http://www.w3.org/2000/svg" xmlns:xlink="http://www.w3.org/1999/xlink" contentStyleType="text/css" data-diagram-type="SEQUENCE" height="848px" preserveAspectRatio="none" style="width:795px;height:848px;" version="1.1" viewBox="0 0 795 848" width="795px" zoomAndPan="magnify"><defs/><g><rect fill="none" height="846.4722" style="stroke:#0A9EFD;stroke-width:1;" width="793.2314" x="0" y="0"/><rect fill="#999999" fill-opacity="0.33333" height="836.4722" style="stroke:#0A9EFD;stroke-width:0.5;" width="525.0659" x="16" y="6"/><text fill="#0A9EFD" font-family="sans-serif" font-size="13" font-weight="bold" lengthAdjust="spacing" textLength="104.7554" x="226.1553" y="19.4951">Call implementer</text><rect fill="#999999" fill-opacity="0.33333" height="836.4722" style="stroke:#0A9EFD;stroke-width:0.5;" width="115.3721" x="667.8594" y="6"/><text fill="#0A9EFD" font-family="sans-serif" font-size="13" font-weight="bold" lengthAdjust="spacing" textLength="37.5591" x="706.7659" y="19.4951">Agora</text><rect fill="#0A9EFD" fill-opacity="0.06667" height="326.5386" style="stroke:#0A9EFD;stroke-width:2;" width="717.6865" x="10" y="74.4502"/><rect fill="#0A9EFD" fill-opacity="0.06667" height="203.6411" style="stroke:#0A9EFD;stroke-width:2;" width="779.2314" x="10" y="414.9888"/><rect fill="#0A9EFD" fill-opacity="0.06667" height="158.7437" style="stroke:#0A9EFD;stroke-width:2;" width="779.2314" x="10" y="632.6299"/><g><title>Client</title><rect fill="#000000" fill-opacity="0.00000" height="750.9233" width="8" x="40.8965" y="57.4502"/><line style="stroke:#0A9EFD;stroke-width:0.5;stroke-dasharray:5.0,5.0;" x1="44" x2="44" y1="57.4502" y2="808.3735"/></g><g><title>Token Server</title><rect fill="#000000" fill-opacity="0.00000" height="750.9233" width="8" x="304.2197" y="57.4502"/><line style="stroke:#0A9EFD;stroke-width:0.5;stroke-dasharray:5.0,5.0;" x1="308.2026" x2="308.2026" y1="57.4502" y2="808.3735"/></g><g><title>Client</title><rect fill="#000000" fill-opacity="0.00000" height="750.9233" width="8" x="508.1694" y="57.4502"/><line style="stroke:#0A9EFD;stroke-width:0.5;stroke-dasharray:5.0,5.0;" x1="511.2729" x2="511.2729" y1="57.4502" y2="808.3735"/></g><g><title>Agora Platform</title><rect fill="#000000" fill-opacity="0.00000" height="750.9233" width="8" x="721.5454" y="57.4502"/><line style="stroke:#0A9EFD;stroke-width:0.5;stroke-dasharray:5.0,5.0;" x1="724.8594" x2="724.8594" y1="57.4502" y2="808.3735"/></g><g class="participant participant-head" data-participant="AC"><rect fill="none" height="30.0986" rx="2.5" ry="2.5" style="stroke:#0A9EFD;stroke-width:2;" width="49.793" x="20" y="26.3516"/><text fill="#0A9EFD" font-family="Arial" font-size="14" lengthAdjust="spacing" textLength="35.793" x="27" y="46.4834">Client</text></g><g class="participant participant-tail" data-participant="AC"><rect fill="none" height="30.0986" rx="2.5" ry="2.5" style="stroke:#0A9EFD;stroke-width:2;" width="49.793" x="20" y="807.3735"/><text fill="#0A9EFD" font-family="Arial" font-size="14" lengthAdjust="spacing" textLength="35.793" x="27" y="827.5054">Client</text></g><g class="participant participant-head" data-participant="TS"><rect fill="none" height="30.0986" rx="2.5" ry="2.5" style="stroke:#0A9EFD;stroke-width:2;" width="98.0342" x="259.2026" y="26.3516"/><text fill="#0A9EFD" font-family="Arial" font-size="14" lengthAdjust="spacing" textLength="84.0342" x="266.2026" y="46.4834">Token Server</text></g><g class="participant participant-tail" data-participant="TS"><rect fill="none" height="30.0986" rx="2.5" ry="2.5" style="stroke:#0A9EFD;stroke-width:2;" width="98.0342" x="259.2026" y="807.3735"/><text fill="#0A9EFD" font-family="Arial" font-size="14" lengthAdjust="spacing" textLength="84.0342" x="266.2026" y="827.5054">Token Server</text></g><g class="participant participant-head" data-participant="AC2"><rect fill="none" height="30.0986" rx="2.5" ry="2.5" style="stroke:#0A9EFD;stroke-width:2;" width="49.793" x="487.2729" y="26.3516"/><text fill="#0A9EFD" font-family="Arial" font-size="14" lengthAdjust="spacing" textLength="35.793" x="494.2729" y="46.4834">Client</text></g><g class="participant participant-tail" data-participant="AC2"><rect fill="none" height="30.0986" rx="2.5" ry="2.5" style="stroke:#0A9EFD;stroke-width:2;" width="49.793" x="487.2729" y="807.3735"/><text fill="#0A9EFD" font-family="Arial" font-size="14" lengthAdjust="spacing" textLength="35.793" x="494.2729" y="827.5054">Client</text></g><g class="participant participant-head" data-participant="AP"><rect fill="none" height="30.0986" rx="2.5" ry="2.5" style="stroke:#0A9EFD;stroke-width:2;" width="107.3721" x="671.8594" y="26.3516"/><text fill="#0A9EFD" font-family="Arial" font-size="14" lengthAdjust="spacing" textLength="93.3721" x="678.8594" y="46.4834">Agora Platform</text></g><g class="participant participant-tail" data-participant="AP"><rect fill="none" height="30.0986" rx="2.5" ry="2.5" style="stroke:#0A9EFD;stroke-width:2;" width="107.3721" x="671.8594" y="807.3735"/><text fill="#0A9EFD" font-family="Arial" font-size="14" lengthAdjust="spacing" textLength="93.3721" x="678.8594" y="827.5054">Agora Platform</text></g><path d="M10,74.4502 L122.9326,74.4502 L122.9326,81.3989 L112.9326,91.3989 L10,91.3989 L10,74.4502" fill="#EEEEEE" style="stroke:#0A9EFD;stroke-width:1.5;"/><rect fill="none" height="326.5386" style="stroke:#0A9EFD;stroke-width:2;" width="717.6865" x="10" y="74.4502"/><text fill="#000000" font-family="Arial" font-size="13" lengthAdjust="spacing" textLength="67.9326" x="25" y="87.644">Setup client</text><g class="message" data-participant-1="AC" data-participant-2="AC"><line style="stroke:#0A9EFD;stroke-width:2;" x1="44.8965" x2="86.8965" y1="112.3477" y2="112.3477"/><line style="stroke:#0A9EFD;stroke-width:2;" x1="86.8965" x2="86.8965" y1="112.3477" y2="125.3477"/><line style="stroke:#0A9EFD;stroke-width:2;" x1="45.8965" x2="86.8965" y1="125.3477" y2="125.3477"/><polygon fill="#0A9EFD" points="55.8965,121.3477,45.8965,125.3477,55.8965,129.3477,51.8965,125.3477" style="stroke:#0A9EFD;stroke-width:1;"/><text fill="#0A9EFD" font-family="Arial" font-size="13" lengthAdjust="spacing" textLength="196.5171" x="51.8965" y="107.5928">User login to implementor security</text></g><g class="message" data-participant-1="AC" data-participant-2="TS"><polygon fill="#0A9EFD" points="55.8965,150.2964,45.8965,154.2964,55.8965,158.2964,51.8965,154.2964" style="stroke:#0A9EFD;stroke-width:1;"/><polygon fill="#0A9EFD" points="296.2197,150.2964,306.2197,154.2964,296.2197,158.2964,300.2197,154.2964" style="stroke:#0A9EFD;stroke-width:1;"/><line style="stroke:#0A9EFD;stroke-width:2;" x1="49.8965" x2="302.2197" y1="154.2964" y2="154.2964"/><text fill="#0A9EFD" font-family="Arial" font-size="13" lengthAdjust="spacing" textLength="179.9497" x="86.5833" y="149.5415">Authenticate and retrieve token</text></g><g class="message" data-participant-1="AC2" data-participant-2="AC2"><line style="stroke:#0A9EFD;stroke-width:2;" x1="512.1694" x2="554.1694" y1="183.2451" y2="183.2451"/><line style="stroke:#0A9EFD;stroke-width:2;" x1="554.1694" x2="554.1694" y1="183.2451" y2="196.2451"/><line style="stroke:#0A9EFD;stroke-width:2;" x1="513.1694" x2="554.1694" y1="196.2451" y2="196.2451"/><polygon fill="#0A9EFD" points="523.1694,192.2451,513.1694,196.2451,523.1694,200.2451,519.1694,196.2451" style="stroke:#0A9EFD;stroke-width:1;"/><text fill="#0A9EFD" font-family="Arial" font-size="13" lengthAdjust="spacing" textLength="196.5171" x="519.1694" y="178.4902">User login to implementor security</text></g><g class="message" data-participant-1="AC2" data-participant-2="TS"><polygon fill="#0A9EFD" points="319.2197,221.1938,309.2197,225.1938,319.2197,229.1938,315.2197,225.1938" style="stroke:#0A9EFD;stroke-width:1;"/><polygon fill="#0A9EFD" points="500.1694,221.1938,510.1694,225.1938,500.1694,229.1938,504.1694,225.1938" style="stroke:#0A9EFD;stroke-width:1;"/><line style="stroke:#0A9EFD;stroke-width:2;" x1="313.2197" x2="506.1694" y1="225.1938" y2="225.1938"/><text fill="#0A9EFD" font-family="Arial" font-size="13" lengthAdjust="spacing" textLength="179.9497" x="320.2197" y="220.439">Authenticate and retrieve token</text></g><g class="message" data-participant-1="AC" data-participant-2="AC"><line style="stroke:#0A9EFD;stroke-width:2;" x1="44.8965" x2="86.8965" y1="254.1426" y2="254.1426"/><line style="stroke:#0A9EFD;stroke-width:2;" x1="86.8965" x2="86.8965" y1="254.1426" y2="267.1426"/><line style="stroke:#0A9EFD;stroke-width:2;" x1="45.8965" x2="86.8965" y1="267.1426" y2="267.1426"/><polygon fill="#0A9EFD" points="55.8965,263.1426,45.8965,267.1426,55.8965,271.1426,51.8965,267.1426" style="stroke:#0A9EFD;stroke-width:1;"/><text fill="#0A9EFD" font-family="Arial" font-size="13" lengthAdjust="spacing" textLength="125.0107" x="51.8965" y="249.3877">Create client instance</text></g><g class="message" data-participant-1="AC" data-participant-2="AC"><line style="stroke:#0A9EFD;stroke-width:2;" x1="44.8965" x2="86.8965" y1="296.0913" y2="296.0913"/><line style="stroke:#0A9EFD;stroke-width:2;" x1="86.8965" x2="86.8965" y1="296.0913" y2="309.0913"/><line style="stroke:#0A9EFD;stroke-width:2;" x1="45.8965" x2="86.8965" y1="309.0913" y2="309.0913"/><polygon fill="#0A9EFD" points="55.8965,305.0913,45.8965,309.0913,55.8965,313.0913,51.8965,309.0913" style="stroke:#0A9EFD;stroke-width:1;"/><text fill="#0A9EFD" font-family="Arial" font-size="13" lengthAdjust="spacing" textLength="110.5571" x="51.8965" y="291.3364">Set client role: host</text></g><g class="message" data-participant-1="AC2" data-participant-2="AC2"><line style="stroke:#0A9EFD;stroke-width:2;" x1="512.1694" x2="554.1694" y1="338.04" y2="338.04"/><line style="stroke:#0A9EFD;stroke-width:2;" x1="554.1694" x2="554.1694" y1="338.04" y2="351.04"/><line style="stroke:#0A9EFD;stroke-width:2;" x1="513.1694" x2="554.1694" y1="351.04" y2="351.04"/><polygon fill="#0A9EFD" points="523.1694,347.04,513.1694,351.04,523.1694,355.04,519.1694,351.04" style="stroke:#0A9EFD;stroke-width:1;"/><text fill="#0A9EFD" font-family="Arial" font-size="13" lengthAdjust="spacing" textLength="128.6226" x="519.1694" y="333.2852">Create  client instance</text></g><g class="message" data-participant-1="AC2" data-participant-2="AC2"><line style="stroke:#0A9EFD;stroke-width:2;" x1="512.1694" x2="554.1694" y1="379.9888" y2="379.9888"/><line style="stroke:#0A9EFD;stroke-width:2;" x1="554.1694" x2="554.1694" y1="379.9888" y2="392.9888"/><line style="stroke:#0A9EFD;stroke-width:2;" x1="513.1694" x2="554.1694" y1="392.9888" y2="392.9888"/><polygon fill="#0A9EFD" points="523.1694,388.9888,513.1694,392.9888,523.1694,396.9888,519.1694,392.9888" style="stroke:#0A9EFD;stroke-width:1;"/><text fill="#0A9EFD" font-family="Arial" font-size="13" lengthAdjust="spacing" textLength="138.7534" x="519.1694" y="375.2339">Set client role: audience</text></g><path d="M10,414.9888 L101.9663,414.9888 L101.9663,421.9375 L91.9663,431.9375 L10,431.9375 L10,414.9888" fill="#EEEEEE" style="stroke:#0A9EFD;stroke-width:1.5;"/><rect fill="none" height="203.6411" style="stroke:#0A9EFD;stroke-width:2;" width="779.2314" x="10" y="414.9888"/><text fill="#000000" font-family="Arial" font-size="13" lengthAdjust="spacing" textLength="46.9663" x="25" y="428.1826">Run call</text><g class="message" data-participant-1="AC" data-participant-2="AC"><line style="stroke:#0A9EFD;stroke-width:2;" x1="44.8965" x2="86.8965" y1="452.8862" y2="452.8862"/><line style="stroke:#0A9EFD;stroke-width:2;" x1="86.8965" x2="86.8965" y1="452.8862" y2="465.8862"/><line style="stroke:#0A9EFD;stroke-width:2;" x1="45.8965" x2="86.8965" y1="465.8862" y2="465.8862"/><polygon fill="#0A9EFD" points="55.8965,461.8862,45.8965,465.8862,55.8965,469.8862,51.8965,465.8862" style="stroke:#0A9EFD;stroke-width:1;"/><text fill="#0A9EFD" font-family="Arial" font-size="13" lengthAdjust="spacing" textLength="249.3232" x="51.8965" y="448.1313">Connect to local audio and video resources</text></g><g class="message" data-participant-1="AC" data-participant-2="AP"><polygon fill="#0A9EFD" points="713.5454,490.835,723.5454,494.835,713.5454,498.835,717.5454,494.835" style="stroke:#0A9EFD;stroke-width:1;"/><line style="stroke:#0A9EFD;stroke-width:2;" x1="44.8965" x2="719.5454" y1="494.835" y2="494.835"/><text fill="#0A9EFD" font-family="Arial" font-size="13" lengthAdjust="spacing" textLength="72.998" x="348.7219" y="490.0801">Join channel</text></g><g class="message" data-participant-1="AC" data-participant-2="AP"><polygon fill="#0A9EFD" points="713.5454,519.7837,723.5454,523.7837,713.5454,527.7837,717.5454,523.7837" style="stroke:#0A9EFD;stroke-width:1;"/><line style="stroke:#0A9EFD;stroke-width:2;" x1="44.8965" x2="719.5454" y1="523.7837" y2="523.7837"/><text fill="#0A9EFD" font-family="Arial" font-size="13" lengthAdjust="spacing" textLength="189.376" x="290.533" y="519.0288">Send audio and video to channel</text></g><g class="message" data-participant-1="AC2" data-participant-2="AP"><polygon fill="#0A9EFD" points="713.5454,548.7324,723.5454,552.7324,713.5454,556.7324,717.5454,552.7324" style="stroke:#0A9EFD;stroke-width:1;"/><line style="stroke:#0A9EFD;stroke-width:2;" x1="512.1694" x2="719.5454" y1="552.7324" y2="552.7324"/><text fill="#0A9EFD" font-family="Arial" font-size="13" lengthAdjust="spacing" textLength="72.998" x="582.3584" y="547.9775">Join channel</text></g><g class="message" data-participant-1="AP" data-participant-2="AC2"><polygon fill="#0A9EFD" points="523.1694,577.6812,513.1694,581.6812,523.1694,585.6812,519.1694,581.6812" style="stroke:#0A9EFD;stroke-width:1;"/><line style="stroke:#0A9EFD;stroke-width:2;" x1="517.1694" x2="724.5454" y1="581.6812" y2="581.6812"/><text fill="#0A9EFD" font-family="Arial" font-size="13" lengthAdjust="spacing" textLength="189.376" x="524.1694" y="576.9263">Send audio and video to channel</text></g><g class="message" data-participant-1="AC" data-participant-2="AC2"><polygon fill="#0A9EFD" points="55.8965,606.6299,45.8965,610.6299,55.8965,614.6299,51.8965,610.6299" style="stroke:#0A9EFD;stroke-width:1;"/><polygon fill="#0A9EFD" points="500.1694,606.6299,510.1694,610.6299,500.1694,614.6299,504.1694,610.6299" style="stroke:#0A9EFD;stroke-width:1;"/><line style="stroke:#0A9EFD;stroke-width:2;" x1="49.8965" x2="506.1694" y1="610.6299" y2="610.6299"/><text fill="#0A9EFD" font-family="Arial" font-size="13" lengthAdjust="spacing" textLength="80.1963" x="238.4348" y="605.875">Communicate</text></g><path d="M10,632.6299 L101.249,632.6299 L101.249,639.5786 L91.249,649.5786 L10,649.5786 L10,632.6299" fill="#EEEEEE" style="stroke:#0A9EFD;stroke-width:1.5;"/><rect fill="none" height="158.7437" style="stroke:#0A9EFD;stroke-width:2;" width="779.2314" x="10" y="632.6299"/><text fill="#000000" font-family="Arial" font-size="13" lengthAdjust="spacing" textLength="46.249" x="25" y="645.8237">End call</text><g class="message" data-participant-1="AC2" data-participant-2="AC2"><line style="stroke:#0A9EFD;stroke-width:2;" x1="512.1694" x2="554.1694" y1="670.5273" y2="670.5273"/><line style="stroke:#0A9EFD;stroke-width:2;" x1="554.1694" x2="554.1694" y1="670.5273" y2="683.5273"/><line style="stroke:#0A9EFD;stroke-width:2;" x1="513.1694" x2="554.1694" y1="683.5273" y2="683.5273"/><polygon fill="#0A9EFD" points="523.1694,679.5273,513.1694,683.5273,523.1694,687.5273,519.1694,683.5273" style="stroke:#0A9EFD;stroke-width:1;"/><text fill="#0A9EFD" font-family="Arial" font-size="13" lengthAdjust="spacing" textLength="128.6479" x="519.1694" y="665.7725">Close audio and video</text></g><g class="message" data-participant-1="AC2" data-participant-2="AP"><polygon fill="#0A9EFD" points="713.5454,708.4761,723.5454,712.4761,713.5454,716.4761,717.5454,712.4761" style="stroke:#0A9EFD;stroke-width:1;"/><line style="stroke:#0A9EFD;stroke-width:2;" x1="512.1694" x2="719.5454" y1="712.4761" y2="712.4761"/><text fill="#0A9EFD" font-family="Arial" font-size="13" lengthAdjust="spacing" textLength="58.5381" x="589.5884" y="707.7212">Leave call</text></g><g class="message" data-participant-1="AC" data-participant-2="AC"><line style="stroke:#0A9EFD;stroke-width:2;" x1="44.8965" x2="86.8965" y1="741.4248" y2="741.4248"/><line style="stroke:#0A9EFD;stroke-width:2;" x1="86.8965" x2="86.8965" y1="741.4248" y2="754.4248"/><line style="stroke:#0A9EFD;stroke-width:2;" x1="45.8965" x2="86.8965" y1="754.4248" y2="754.4248"/><polygon fill="#0A9EFD" points="55.8965,750.4248,45.8965,754.4248,55.8965,758.4248,51.8965,754.4248" style="stroke:#0A9EFD;stroke-width:1;"/><text fill="#0A9EFD" font-family="Arial" font-size="13" lengthAdjust="spacing" textLength="128.6479" x="51.8965" y="736.6699">Close audio and video</text></g><g class="message" data-participant-1="AC" data-participant-2="AP"><polygon fill="#0A9EFD" points="713.5454,779.3735,723.5454,783.3735,713.5454,787.3735,717.5454,783.3735" style="stroke:#0A9EFD;stroke-width:1;"/><line style="stroke:#0A9EFD;stroke-width:2;" x1="44.8965" x2="719.5454" y1="783.3735" y2="783.3735"/><text fill="#0A9EFD" font-family="Arial" font-size="13" lengthAdjust="spacing" textLength="58.5381" x="355.9519" y="778.6187">Leave call</text></g><!--SRC=[bLBBJiCm4BpxAvRUuP1ZX92YY0lY43NbZ8opj5OTR-H71N_FncbQzy7hKYdUcTcPsTvegqpi4EIQd7prMstlTEoD46_q0OjQ6WEw7mpsQ0EwXHYa2rhfGTh0OwFvUG7IGrMVZbQqHGijkXspHi2g_O5R2BGTy4gnNroDTiwsfJTeZ0plvFg9sMJ4jQCuyCh0logf2r7LSFl02qfuyUZ0q5fR27JCH0uygkXq-1p1zunUjILKCMnugfKCt0slS1YSnXqocOCnj9Y4Ypyg5_-GdYtN3aVCb0MqzK5QXHc0iyvJHmPBs91FeO_czXfNH8wO2naPE_vYrDZkNEmoMb3yVyWDahMemXZR4CyIaLAedUwGE9gdw1JwcTIKy4HSbDf8ffhikHqFUSvduHbvS7mXqMH1VjL8PvYQeRwFDfqXZ_d8n1Jpj4P37i-bSqlFAFc2C_5Gq3UqQwpauGi0]--></g></svg>