<svg xmlns="http://www.w3.org/2000/svg" xmlns:xlink="http://www.w3.org/1999/xlink" contentStyleType="text/css" data-diagram-type="SEQUENCE" height="549px" preserveAspectRatio="none" style="width:641px;height:549px;" version="1.1" viewBox="0 0 641 549" width="641px" zoomAndPan="magnify"><defs/><g><rect fill="none" height="547.8823" style="stroke:#0A9EFD;stroke-width:1;" width="639.229" x="0" y="0"/><rect fill="#999999" fill-opacity="0.33333" height="537.8823" style="stroke:#0A9EFD;stroke-width:0.5;" width="321.1162" x="16" y="6"/><text fill="#0A9EFD" font-family="sans-serif" font-size="13" font-weight="bold" lengthAdjust="spacing" textLength="104.7554" x="124.1804" y="19.4951">Call implementer</text><rect fill="#999999" fill-opacity="0.33333" height="537.8823" style="stroke:#0A9EFD;stroke-width:0.5;" width="115.3721" x="513.8569" y="6"/><text fill="#0A9EFD" font-family="sans-serif" font-size="13" font-weight="bold" lengthAdjust="spacing" textLength="37.5591" x="552.7634" y="19.4951">Agora</text><rect fill="#0A9EFD" fill-opacity="0.06667" height="245.5898" style="stroke:#0A9EFD;stroke-width:2;" width="625.229" x="10" y="74.4502"/><rect fill="#0A9EFD" fill-opacity="0.06667" height="158.7437" style="stroke:#0A9EFD;stroke-width:2;" width="625.229" x="10" y="334.04"/><g><title>Client</title><rect fill="#000000" fill-opacity="0.00000" height="452.3335" width="8" x="40.8965" y="57.4502"/><line style="stroke:#0A9EFD;stroke-width:0.5;stroke-dasharray:5.0,5.0;" x1="44" x2="44" y1="57.4502" y2="509.7837"/></g><g><title>Client</title><rect fill="#000000" fill-opacity="0.00000" height="452.3335" width="8" x="304.2197" y="57.4502"/><line style="stroke:#0A9EFD;stroke-width:0.5;stroke-dasharray:5.0,5.0;" x1="307.3232" x2="307.3232" y1="57.4502" y2="509.7837"/></g><g><title>Agora Platform</title><rect fill="#000000" fill-opacity="0.00000" height="452.3335" width="8" x="567.543" y="57.4502"/><line style="stroke:#0A9EFD;stroke-width:0.5;stroke-dasharray:5.0,5.0;" x1="570.8569" x2="570.8569" y1="57.4502" y2="509.7837"/></g><g class="participant participant-head" data-participant="AC"><rect fill="none" height="30.0986" rx="2.5" ry="2.5" style="stroke:#0A9EFD;stroke-width:2;" width="49.793" x="20" y="26.3516"/><text fill="#0A9EFD" font-family="Arial" font-size="14" lengthAdjust="spacing" textLength="35.793" x="27" y="46.4834">Client</text></g><g class="participant participant-tail" data-participant="AC"><rect fill="none" height="30.0986" rx="2.5" ry="2.5" style="stroke:#0A9EFD;stroke-width:2;" width="49.793" x="20" y="508.7837"/><text fill="#0A9EFD" font-family="Arial" font-size="14" lengthAdjust="spacing" textLength="35.793" x="27" y="528.9155">Client</text></g><g class="participant participant-head" data-participant="AC2"><rect fill="none" height="30.0986" rx="2.5" ry="2.5" style="stroke:#0A9EFD;stroke-width:2;" width="49.793" x="283.3232" y="26.3516"/><text fill="#0A9EFD" font-family="Arial" font-size="14" lengthAdjust="spacing" textLength="35.793" x="290.3232" y="46.4834">Client</text></g><g class="participant participant-tail" data-participant="AC2"><rect fill="none" height="30.0986" rx="2.5" ry="2.5" style="stroke:#0A9EFD;stroke-width:2;" width="49.793" x="283.3232" y="508.7837"/><text fill="#0A9EFD" font-family="Arial" font-size="14" lengthAdjust="spacing" textLength="35.793" x="290.3232" y="528.9155">Client</text></g><g class="participant participant-head" data-participant="AP"><rect fill="none" height="30.0986" rx="2.5" ry="2.5" style="stroke:#0A9EFD;stroke-width:2;" width="107.3721" x="517.8569" y="26.3516"/><text fill="#0A9EFD" font-family="Arial" font-size="14" lengthAdjust="spacing" textLength="93.3721" x="524.8569" y="46.4834">Agora Platform</text></g><g class="participant participant-tail" data-participant="AP"><rect fill="none" height="30.0986" rx="2.5" ry="2.5" style="stroke:#0A9EFD;stroke-width:2;" width="107.3721" x="517.8569" y="508.7837"/><text fill="#0A9EFD" font-family="Arial" font-size="14" lengthAdjust="spacing" textLength="93.3721" x="524.8569" y="528.9155">Agora Platform</text></g><path d="M10,74.4502 L101.9663,74.4502 L101.9663,81.3989 L91.9663,91.3989 L10,91.3989 L10,74.4502" fill="#EEEEEE" style="stroke:#0A9EFD;stroke-width:1.5;"/><rect fill="none" height="245.5898" style="stroke:#0A9EFD;stroke-width:2;" width="625.229" x="10" y="74.4502"/><text fill="#000000" font-family="Arial" font-size="13" lengthAdjust="spacing" textLength="46.9663" x="25" y="87.644">Run call</text><g class="message" data-participant-1="AC" data-participant-2="AC"><line style="stroke:#0A9EFD;stroke-width:2;" x1="44.8965" x2="86.8965" y1="112.3477" y2="112.3477"/><line style="stroke:#0A9EFD;stroke-width:2;" x1="86.8965" x2="86.8965" y1="112.3477" y2="125.3477"/><line style="stroke:#0A9EFD;stroke-width:2;" x1="45.8965" x2="86.8965" y1="125.3477" y2="125.3477"/><polygon fill="#0A9EFD" points="55.8965,121.3477,45.8965,125.3477,55.8965,129.3477,51.8965,125.3477" style="stroke:#0A9EFD;stroke-width:1;"/><text fill="#0A9EFD" font-family="Arial" font-size="13" lengthAdjust="spacing" textLength="249.3232" x="51.8965" y="107.5928">Connect to local audio and video resources</text></g><g class="message" data-participant-1="AC" data-participant-2="AP"><polygon fill="#0A9EFD" points="559.543,150.2964,569.543,154.2964,559.543,158.2964,563.543,154.2964" style="stroke:#0A9EFD;stroke-width:1;"/><line style="stroke:#0A9EFD;stroke-width:2;" x1="44.8965" x2="565.543" y1="154.2964" y2="154.2964"/><text fill="#0A9EFD" font-family="Arial" font-size="13" lengthAdjust="spacing" textLength="72.998" x="271.7207" y="149.5415">Join channel</text></g><g class="message" data-participant-1="AC" data-participant-2="AP"><polygon fill="#0A9EFD" points="559.543,179.2451,569.543,183.2451,559.543,187.2451,563.543,183.2451" style="stroke:#0A9EFD;stroke-width:1;"/><line style="stroke:#0A9EFD;stroke-width:2;" x1="44.8965" x2="565.543" y1="183.2451" y2="183.2451"/><text fill="#0A9EFD" font-family="Arial" font-size="13" lengthAdjust="spacing" textLength="189.376" x="213.5317" y="178.4902">Send audio and video to channel</text></g><g class="message" data-participant-1="AC2" data-participant-2="AC2"><line style="stroke:#0A9EFD;stroke-width:2;" x1="308.2197" x2="350.2197" y1="212.1938" y2="212.1938"/><line style="stroke:#0A9EFD;stroke-width:2;" x1="350.2197" x2="350.2197" y1="212.1938" y2="225.1938"/><line style="stroke:#0A9EFD;stroke-width:2;" x1="309.2197" x2="350.2197" y1="225.1938" y2="225.1938"/><polygon fill="#0A9EFD" points="319.2197,221.1938,309.2197,225.1938,319.2197,229.1938,315.2197,225.1938" style="stroke:#0A9EFD;stroke-width:1;"/><text fill="#0A9EFD" font-family="Arial" font-size="13" lengthAdjust="spacing" textLength="249.3232" x="315.2197" y="207.439">Connect to local audio and video resources</text></g><g class="message" data-participant-1="AC2" data-participant-2="AP"><polygon fill="#0A9EFD" points="559.543,250.1426,569.543,254.1426,559.543,258.1426,563.543,254.1426" style="stroke:#0A9EFD;stroke-width:1;"/><line style="stroke:#0A9EFD;stroke-width:2;" x1="308.2197" x2="565.543" y1="254.1426" y2="254.1426"/><text fill="#0A9EFD" font-family="Arial" font-size="13" lengthAdjust="spacing" textLength="72.998" x="403.3823" y="249.3877">Join channel</text></g><g class="message" data-participant-1="AP" data-participant-2="AC2"><polygon fill="#0A9EFD" points="319.2197,279.0913,309.2197,283.0913,319.2197,287.0913,315.2197,283.0913" style="stroke:#0A9EFD;stroke-width:1;"/><line style="stroke:#0A9EFD;stroke-width:2;" x1="313.2197" x2="570.543" y1="283.0913" y2="283.0913"/><text fill="#0A9EFD" font-family="Arial" font-size="13" lengthAdjust="spacing" textLength="189.376" x="345.1934" y="278.3364">Send audio and video to channel</text></g><g class="message" data-participant-1="AC" data-participant-2="AC2"><polygon fill="#0A9EFD" points="55.8965,308.04,45.8965,312.04,55.8965,316.04,51.8965,312.04" style="stroke:#0A9EFD;stroke-width:1;"/><polygon fill="#0A9EFD" points="296.2197,308.04,306.2197,312.04,296.2197,316.04,300.2197,312.04" style="stroke:#0A9EFD;stroke-width:1;"/><line style="stroke:#0A9EFD;stroke-width:2;" x1="49.8965" x2="302.2197" y1="312.04" y2="312.04"/><text fill="#0A9EFD" font-family="Arial" font-size="13" lengthAdjust="spacing" textLength="80.1963" x="136.46" y="307.2852">Communicate</text></g><path d="M10,334.04 L101.249,334.04 L101.249,340.9888 L91.249,350.9888 L10,350.9888 L10,334.04" fill="#EEEEEE" style="stroke:#0A9EFD;stroke-width:1.5;"/><rect fill="none" height="158.7437" style="stroke:#0A9EFD;stroke-width:2;" width="625.229" x="10" y="334.04"/><text fill="#000000" font-family="Arial" font-size="13" lengthAdjust="spacing" textLength="46.249" x="25" y="347.2339">End call</text><g class="message" data-participant-1="AC2" data-participant-2="AC2"><line style="stroke:#0A9EFD;stroke-width:2;" x1="308.2197" x2="350.2197" y1="371.9375" y2="371.9375"/><line style="stroke:#0A9EFD;stroke-width:2;" x1="350.2197" x2="350.2197" y1="371.9375" y2="384.9375"/><line style="stroke:#0A9EFD;stroke-width:2;" x1="309.2197" x2="350.2197" y1="384.9375" y2="384.9375"/><polygon fill="#0A9EFD" points="319.2197,380.9375,309.2197,384.9375,319.2197,388.9375,315.2197,384.9375" style="stroke:#0A9EFD;stroke-width:1;"/><text fill="#0A9EFD" font-family="Arial" font-size="13" lengthAdjust="spacing" textLength="128.6479" x="315.2197" y="367.1826">Close audio and video</text></g><g class="message" data-participant-1="AC2" data-participant-2="AP"><polygon fill="#0A9EFD" points="559.543,409.8862,569.543,413.8862,559.543,417.8862,563.543,413.8862" style="stroke:#0A9EFD;stroke-width:1;"/><line style="stroke:#0A9EFD;stroke-width:2;" x1="308.2197" x2="565.543" y1="413.8862" y2="413.8862"/><text fill="#0A9EFD" font-family="Arial" font-size="13" lengthAdjust="spacing" textLength="84.5698" x="397.5964" y="409.1313">Leave channel</text></g><g class="message" data-participant-1="AC" data-participant-2="AC"><line style="stroke:#0A9EFD;stroke-width:2;" x1="44.8965" x2="86.8965" y1="442.835" y2="442.835"/><line style="stroke:#0A9EFD;stroke-width:2;" x1="86.8965" x2="86.8965" y1="442.835" y2="455.835"/><line style="stroke:#0A9EFD;stroke-width:2;" x1="45.8965" x2="86.8965" y1="455.835" y2="455.835"/><polygon fill="#0A9EFD" points="55.8965,451.835,45.8965,455.835,55.8965,459.835,51.8965,455.835" style="stroke:#0A9EFD;stroke-width:1;"/><text fill="#0A9EFD" font-family="Arial" font-size="13" lengthAdjust="spacing" textLength="128.6479" x="51.8965" y="438.0801">Close audio and video</text></g><g class="message" data-participant-1="AC" data-participant-2="AP"><polygon fill="#0A9EFD" points="559.543,480.7837,569.543,484.7837,559.543,488.7837,563.543,484.7837" style="stroke:#0A9EFD;stroke-width:1;"/><line style="stroke:#0A9EFD;stroke-width:2;" x1="44.8965" x2="565.543" y1="484.7837" y2="484.7837"/><text fill="#0A9EFD" font-family="Arial" font-size="13" lengthAdjust="spacing" textLength="84.5698" x="265.9348" y="480.0288">Leave channel</text></g><!--SRC=[bP31IiH038RlynInTptqk8XGYXVnKFG194xZ6inCodHcyV5DkrQxnHMz9lc-F_mN7BsKdW3tcl1fVEDunIM8Sy_w3bMB8i1X40eKCwNA3PWoUnumPbiBsxW27A5ftI-xsb7imPJkKznCSHlRF8DECBze2aUoMu5kdxGCy50YUFlBDIrStfXy1wt6I3v3LX2r7M3fMG4DFN1F2eb6BSdJk43T3kwKJVIAXifg_3W5RdaJBvTsMXzpwty6rpydTr-sFqJ3zNTq22MonqnJHqixjmRExPp-AJhILhr-wPxmG2T1IxLdo3FW_Ca7]--></g></svg>