<svg xmlns="http://www.w3.org/2000/svg" xmlns:xlink="http://www.w3.org/1999/xlink" contentStyleType="text/css" data-diagram-type="SEQUENCE" height="972px" preserveAspectRatio="none" style="width:589px;height:972px;" version="1.1" viewBox="0 0 589 972" width="589px" zoomAndPan="magnify"><defs/><g><rect fill="none" height="970.7617" style="stroke:#0A9EFD;stroke-width:1;" width="587.6768" x="0" y="0"/><rect fill="#999999" fill-opacity="0.33333" height="960.7617" style="stroke:#0A9EFD;stroke-width:0.5;" width="83.4482" x="78.5996" y="6"/><text fill="#0A9EFD" font-family="sans-serif" font-size="13" font-weight="bold" lengthAdjust="spacing" textLength="56.3354" x="92.156" y="19.4951">Your app</text><rect fill="#999999" fill-opacity="0.33333" height="960.7617" style="stroke:#0A9EFD;stroke-width:0.5;" width="80.5361" x="497.1406" y="6"/><text fill="#0A9EFD" font-family="sans-serif" font-size="13" font-weight="bold" lengthAdjust="spacing" textLength="37.5591" x="518.6292" y="19.4951">Agora</text><rect fill="#0A9EFD" fill-opacity="0.06667" height="389.2822" style="stroke:#0A9EFD;stroke-width:2;" width="573.6768" x="10" y="346.6372"/><g><title>User</title><rect fill="#000000" fill-opacity="0.00000" height="796.5645" width="8" x="33.7793" y="86.0986"/><line style="stroke:#0A9EFD;stroke-width:0.5;stroke-dasharray:5.0,5.0;" x1="37" x2="37" y1="86.0986" y2="882.6631"/></g><g><title>RTC SDK</title><rect fill="#000000" fill-opacity="0.00000" height="796.5645" width="8" x="116.3237" y="86.0986"/><line style="stroke:#0A9EFD;stroke-width:0.5;stroke-dasharray:5.0,5.0;" x1="119.5996" x2="119.5996" y1="86.0986" y2="882.6631"/></g><g><title>SDRTN&#174;</title><rect fill="#000000" fill-opacity="0.00000" height="796.5645" width="8" x="533.4087" y="86.0986"/><line style="stroke:#0A9EFD;stroke-width:0.5;stroke-dasharray:5.0,5.0;" x1="537.1406" x2="537.1406" y1="86.0986" y2="882.6631"/></g><g class="participant participant-head" data-participant="USR"><text fill="#0A9EFD" font-family="Arial" font-size="14" lengthAdjust="spacing" textLength="29.5586" x="20" y="83.1318">User</text><ellipse cx="37.7793" cy="16" fill="none" rx="8" ry="8" style="stroke:#0A9EFD;stroke-width:3;"/><path d="M37.7793,24 L37.7793,51 M24.7793,32 L50.7793,32 M37.7793,51 L24.7793,66 M37.7793,51 L50.7793,66" fill="none" style="stroke:#0A9EFD;stroke-width:3;"/></g><g class="participant participant-tail" data-participant="USR"><text fill="#0A9EFD" font-family="Arial" font-size="14" lengthAdjust="spacing" textLength="29.5586" x="20" y="894.7949">User</text><ellipse cx="37.7793" cy="908.7617" fill="none" rx="8" ry="8" style="stroke:#0A9EFD;stroke-width:3;"/><path d="M37.7793,916.7617 L37.7793,943.7617 M24.7793,924.7617 L50.7793,924.7617 M37.7793,943.7617 L24.7793,958.7617 M37.7793,943.7617 L50.7793,958.7617" fill="none" style="stroke:#0A9EFD;stroke-width:3;"/></g><g class="participant participant-head" data-participant="APP"><rect fill="none" height="30.0986" rx="2.5" ry="2.5" style="stroke:#0A9EFD;stroke-width:2;" width="75.4482" x="82.5996" y="55"/><text fill="#0A9EFD" font-family="Arial" font-size="14" lengthAdjust="spacing" textLength="61.4482" x="89.5996" y="75.1318">RTC SDK</text></g><g class="participant participant-tail" data-participant="APP"><rect fill="none" height="30.0986" rx="2.5" ry="2.5" style="stroke:#0A9EFD;stroke-width:2;" width="75.4482" x="82.5996" y="881.6631"/><text fill="#0A9EFD" font-family="Arial" font-size="14" lengthAdjust="spacing" textLength="61.4482" x="89.5996" y="901.7949">RTC SDK</text></g><g class="participant participant-head" data-participant="API"><rect fill="none" height="30.0986" rx="2.5" ry="2.5" style="stroke:#0A9EFD;stroke-width:2;" width="72.5361" x="501.1406" y="55"/><text fill="#0A9EFD" font-family="Arial" font-size="14" lengthAdjust="spacing" textLength="58.5361" x="508.1406" y="75.1318">SDRTN&#174;</text></g><g class="participant participant-tail" data-participant="API"><rect fill="none" height="30.0986" rx="2.5" ry="2.5" style="stroke:#0A9EFD;stroke-width:2;" width="72.5361" x="501.1406" y="881.6631"/><text fill="#0A9EFD" font-family="Arial" font-size="14" lengthAdjust="spacing" textLength="58.5361" x="508.1406" y="901.7949">SDRTN&#174;</text></g><g class="message" data-participant-1="USR" data-participant-2="APP"><polygon fill="#0A9EFD" points="108.3237,113.0474,118.3237,117.0474,108.3237,121.0474,112.3237,117.0474" style="stroke:#0A9EFD;stroke-width:1;"/><line style="stroke:#0A9EFD;stroke-width:2;" x1="37.7793" x2="114.3237" y1="117.0474" y2="117.0474"/><text fill="#0A9EFD" font-family="Arial" font-size="13" lengthAdjust="spacing" textLength="58.5444" x="49.7793" y="112.2925">Open App</text></g><g class="message" data-participant-1="APP" data-participant-2="APP"><line style="stroke:#0A9EFD;stroke-width:2;" x1="120.3237" x2="162.3237" y1="160.9448" y2="160.9448"/><line style="stroke:#0A9EFD;stroke-width:2;" x1="162.3237" x2="162.3237" y1="160.9448" y2="173.9448"/><line style="stroke:#0A9EFD;stroke-width:2;" x1="121.3237" x2="162.3237" y1="173.9448" y2="173.9448"/><polygon fill="#0A9EFD" points="131.3237,169.9448,121.3237,173.9448,131.3237,177.9448,127.3237,173.9448" style="stroke:#0A9EFD;stroke-width:1;"/><text fill="#0A9EFD" font-family="Arial" font-size="13" lengthAdjust="spacing" textLength="252.1924" x="151.375" y="141.2412">Create an instance of the RTC SDK engine:</text><text fill="#0A9EFD" font-family="Arial" font-size="13" lengthAdjust="spacing" textLength="296.6831" x="130.9355" y="156.1899">agoraEngine = agoraEngine.createAgoraRtcEngine</text></g><g class="message" data-participant-1="APP" data-participant-2="APP"><line style="stroke:#0A9EFD;stroke-width:2;" x1="120.3237" x2="162.3237" y1="217.8423" y2="217.8423"/><line style="stroke:#0A9EFD;stroke-width:2;" x1="162.3237" x2="162.3237" y1="217.8423" y2="230.8423"/><line style="stroke:#0A9EFD;stroke-width:2;" x1="121.3237" x2="162.3237" y1="230.8423" y2="230.8423"/><polygon fill="#0A9EFD" points="131.3237,226.8423,121.3237,230.8423,131.3237,234.8423,127.3237,230.8423" style="stroke:#0A9EFD;stroke-width:1;"/><text fill="#0A9EFD" font-family="Arial" font-size="13" lengthAdjust="spacing" textLength="171.2661" x="127.3237" y="198.1387">Initialize the created instance:</text><text fill="#0A9EFD" font-family="Arial" font-size="13" lengthAdjust="spacing" textLength="123.5825" x="154.7773" y="213.0874">agoraEngine.initialize</text></g><g class="message" data-participant-1="APP" data-participant-2="API"><polygon fill="#0A9EFD" points="525.4087,270.7397,535.4087,274.7397,525.4087,278.7397,529.4087,274.7397" style="stroke:#0A9EFD;stroke-width:1;"/><line style="stroke:#0A9EFD;stroke-width:2;" x1="120.3237" x2="531.4087" y1="274.7397" y2="274.7397"/><text fill="#0A9EFD" font-family="Arial" font-size="13" lengthAdjust="spacing" textLength="115.6226" x="271.0549" y="255.0361">Set the role as host:</text><text fill="#0A9EFD" font-family="Arial" font-size="13" lengthAdjust="spacing" textLength="385.8613" x="139.5474" y="269.9849">agoraEngine.setClientRole(ClientRoleType.ClientRoleBroadcaster)</text></g><g class="message" data-participant-1="APP" data-participant-2="APP"><line style="stroke:#0A9EFD;stroke-width:2;" x1="120.3237" x2="162.3237" y1="318.6372" y2="318.6372"/><line style="stroke:#0A9EFD;stroke-width:2;" x1="162.3237" x2="162.3237" y1="318.6372" y2="331.6372"/><line style="stroke:#0A9EFD;stroke-width:2;" x1="121.3237" x2="162.3237" y1="331.6372" y2="331.6372"/><polygon fill="#0A9EFD" points="131.3237,327.6372,121.3237,331.6372,131.3237,335.6372,127.3237,331.6372" style="stroke:#0A9EFD;stroke-width:1;"/><text fill="#0A9EFD" font-family="Arial" font-size="13" lengthAdjust="spacing" textLength="165.4897" x="144.3069" y="298.9336">Setup the callback functions:</text><text fill="#0A9EFD" font-family="Arial" font-size="13" lengthAdjust="spacing" textLength="199.4561" x="130.9355" y="313.8823">agoraEngine.registerEventHandler</text></g><path d="M10,346.6372 L82.4473,346.6372 L82.4473,353.5859 L72.4473,363.5859 L10,363.5859 L10,346.6372" fill="#EEEEEE" style="stroke:#0A9EFD;stroke-width:1.5;"/><rect fill="none" height="389.2822" style="stroke:#0A9EFD;stroke-width:2;" width="573.6768" x="10" y="346.6372"/><text fill="#000000" font-family="Arial" font-size="13" lengthAdjust="spacing" textLength="27.4473" x="25" y="359.8311">User</text><g class="message" data-participant-1="USR" data-participant-2="APP"><polygon fill="#0A9EFD" points="108.3237,380.5347,118.3237,384.5347,108.3237,388.5347,112.3237,384.5347" style="stroke:#0A9EFD;stroke-width:1;"/><line style="stroke:#0A9EFD;stroke-width:2;" x1="37.7793" x2="114.3237" y1="384.5347" y2="384.5347"/><text fill="#0A9EFD" font-family="Arial" font-size="13" lengthAdjust="spacing" textLength="50.5718" x="53.7656" y="379.7798">Start call</text></g><g class="message" data-participant-1="APP" data-participant-2="APP"><line style="stroke:#0A9EFD;stroke-width:2;" x1="120.3237" x2="162.3237" y1="413.4834" y2="413.4834"/><line style="stroke:#0A9EFD;stroke-width:2;" x1="162.3237" x2="162.3237" y1="413.4834" y2="426.4834"/><line style="stroke:#0A9EFD;stroke-width:2;" x1="121.3237" x2="162.3237" y1="426.4834" y2="426.4834"/><polygon fill="#0A9EFD" points="131.3237,422.4834,121.3237,426.4834,131.3237,430.4834,127.3237,426.4834" style="stroke:#0A9EFD;stroke-width:1;"/><text fill="#0A9EFD" font-family="Arial" font-size="13" lengthAdjust="spacing" textLength="255.8359" x="127.3237" y="408.7285">Retrieve authentication token to join channel</text></g><g class="message" data-participant-1="APP" data-participant-2="APP"><line style="stroke:#0A9EFD;stroke-width:2;" x1="120.3237" x2="162.3237" y1="455.4321" y2="455.4321"/><line style="stroke:#0A9EFD;stroke-width:2;" x1="162.3237" x2="162.3237" y1="455.4321" y2="468.4321"/><line style="stroke:#0A9EFD;stroke-width:2;" x1="121.3237" x2="162.3237" y1="468.4321" y2="468.4321"/><polygon fill="#0A9EFD" points="131.3237,464.4321,121.3237,468.4321,131.3237,472.4321,127.3237,468.4321" style="stroke:#0A9EFD;stroke-width:1;"/><text fill="#0A9EFD" font-family="Arial" font-size="13" lengthAdjust="spacing" textLength="279.7031" x="127.3237" y="450.6772">Setup local video: agoraEngine.setupLocalVideo</text></g><g class="message" data-participant-1="APP" data-participant-2="APP"><line style="stroke:#0A9EFD;stroke-width:2;" x1="120.3237" x2="162.3237" y1="512.3296" y2="512.3296"/><line style="stroke:#0A9EFD;stroke-width:2;" x1="162.3237" x2="162.3237" y1="512.3296" y2="525.3296"/><line style="stroke:#0A9EFD;stroke-width:2;" x1="121.3237" x2="162.3237" y1="525.3296" y2="525.3296"/><polygon fill="#0A9EFD" points="131.3237,521.3296,121.3237,525.3296,131.3237,529.3296,127.3237,525.3296" style="stroke:#0A9EFD;stroke-width:1;"/><text fill="#0A9EFD" font-family="Arial" font-size="13" lengthAdjust="spacing" textLength="182.1143" x="127.3237" y="492.626">Enable the local video capturer:</text><text fill="#0A9EFD" font-family="Arial" font-size="13" lengthAdjust="spacing" textLength="149.627" x="147.1792" y="507.5747">agoraEngine.enableVideo</text></g><g class="message" data-participant-1="APP" data-participant-2="APP"><line style="stroke:#0A9EFD;stroke-width:2;" x1="120.3237" x2="162.3237" y1="569.2271" y2="569.2271"/><line style="stroke:#0A9EFD;stroke-width:2;" x1="162.3237" x2="162.3237" y1="569.2271" y2="582.2271"/><line style="stroke:#0A9EFD;stroke-width:2;" x1="121.3237" x2="162.3237" y1="582.2271" y2="582.2271"/><polygon fill="#0A9EFD" points="131.3237,578.2271,121.3237,582.2271,131.3237,586.2271,127.3237,582.2271" style="stroke:#0A9EFD;stroke-width:1;"/><text fill="#0A9EFD" font-family="Arial" font-size="13" lengthAdjust="spacing" textLength="113.4326" x="148.6487" y="549.5234">Start local preview :</text><text fill="#0A9EFD" font-family="Arial" font-size="13" lengthAdjust="spacing" textLength="148.8589" x="134.5474" y="564.4722">agoraEngine.startPreview</text></g><g class="message" data-participant-1="APP" data-participant-2="API"><polygon fill="#0A9EFD" points="525.4087,622.1245,535.4087,626.1245,525.4087,630.1245,529.4087,626.1245" style="stroke:#0A9EFD;stroke-width:1;"/><line style="stroke:#0A9EFD;stroke-width:2;" x1="120.3237" x2="531.4087" y1="626.1245" y2="626.1245"/><text fill="#0A9EFD" font-family="Arial" font-size="13" lengthAdjust="spacing" textLength="87.4517" x="285.1404" y="606.4209">Join a channel:</text><text fill="#0A9EFD" font-family="Arial" font-size="13" lengthAdjust="spacing" textLength="146.0024" x="257.6709" y="621.3696">agoraEngine.joinChannel</text></g><g class="message" data-participant-1="API" data-participant-2="APP"><polygon fill="#0A9EFD" points="131.3237,651.0732,121.3237,655.0732,131.3237,659.0732,127.3237,655.0732" style="stroke:#0A9EFD;stroke-width:1;"/><line style="stroke:#0A9EFD;stroke-width:2;" x1="125.3237" x2="536.4087" y1="655.0732" y2="655.0732"/><text fill="#0A9EFD" font-family="Arial" font-size="13" lengthAdjust="spacing" textLength="80.2217" x="288.7554" y="650.3184">Join accepted</text></g><g class="message" data-participant-1="APP" data-participant-2="API"><polygon fill="#0A9EFD" points="525.4087,694.9707,535.4087,698.9707,525.4087,702.9707,529.4087,698.9707" style="stroke:#0A9EFD;stroke-width:1;"/><line style="stroke:#0A9EFD;stroke-width:2;" x1="120.3237" x2="531.4087" y1="698.9707" y2="698.9707"/><text fill="#0A9EFD" font-family="Arial" font-size="13" lengthAdjust="spacing" textLength="226.1479" x="213.9863" y="679.2671">Retrieve streaming from the other user:</text><text fill="#0A9EFD" font-family="Arial" font-size="13" lengthAdjust="spacing" textLength="187.9097" x="236.7173" y="694.2158">agoraEngine.setupRemoteVideo</text></g><g class="message" data-participant-1="API" data-participant-2="APP"><polygon fill="#0A9EFD" points="131.3237,723.9194,121.3237,727.9194,131.3237,731.9194,127.3237,727.9194" style="stroke:#0A9EFD;stroke-width:1;"/><polygon fill="#0A9EFD" points="525.4087,723.9194,535.4087,727.9194,525.4087,731.9194,529.4087,727.9194" style="stroke:#0A9EFD;stroke-width:1;"/><line style="stroke:#0A9EFD;stroke-width:2;" x1="125.3237" x2="531.4087" y1="727.9194" y2="727.9194"/><text fill="#0A9EFD" font-family="Arial" font-size="13" lengthAdjust="spacing" textLength="182.8252" x="237.4536" y="723.1646">Receive and send data streams</text></g><g class="message" data-participant-1="USR" data-participant-2="APP"><polygon fill="#0A9EFD" points="108.3237,759.8682,118.3237,763.8682,108.3237,767.8682,112.3237,763.8682" style="stroke:#0A9EFD;stroke-width:1;"/><line style="stroke:#0A9EFD;stroke-width:2;" x1="37.7793" x2="114.3237" y1="763.8682" y2="763.8682"/><text fill="#0A9EFD" font-family="Arial" font-size="13" lengthAdjust="spacing" textLength="58.5381" x="49.7825" y="759.1133">Leave call</text></g><g class="message" data-participant-1="APP" data-participant-2="APP"><line style="stroke:#0A9EFD;stroke-width:2;" x1="120.3237" x2="162.3237" y1="807.7656" y2="807.7656"/><line style="stroke:#0A9EFD;stroke-width:2;" x1="162.3237" x2="162.3237" y1="807.7656" y2="820.7656"/><line style="stroke:#0A9EFD;stroke-width:2;" x1="121.3237" x2="162.3237" y1="820.7656" y2="820.7656"/><polygon fill="#0A9EFD" points="131.3237,816.7656,121.3237,820.7656,131.3237,824.7656,127.3237,820.7656" style="stroke:#0A9EFD;stroke-width:1;"/><text fill="#0A9EFD" font-family="Arial" font-size="13" lengthAdjust="spacing" textLength="130.7935" x="127.3237" y="788.062">Stop the local preview:</text><text fill="#0A9EFD" font-family="Arial" font-size="13" lengthAdjust="spacing" textLength="70.8081" x="160.9282" y="803.0107">stopPreview</text></g><g class="message" data-participant-1="APP" data-participant-2="API"><polygon fill="#0A9EFD" points="525.4087,860.6631,535.4087,864.6631,525.4087,868.6631,529.4087,864.6631" style="stroke:#0A9EFD;stroke-width:1;"/><line style="stroke:#0A9EFD;stroke-width:2;" x1="120.3237" x2="531.4087" y1="864.6631" y2="864.6631"/><text fill="#0A9EFD" font-family="Arial" font-size="13" lengthAdjust="spacing" textLength="105.5234" x="276.1045" y="844.9595">leave the channel:</text><text fill="#0A9EFD" font-family="Arial" font-size="13" lengthAdjust="spacing" textLength="156.8442" x="252.25" y="859.9082">agoraEngine.leaveChannel</text></g><!--SRC=[RLDTZjem47xtAQOyjG-R0qJjIfH5AjjLYm9RgT9ArU0CuCMCBTkXFuVg8NgosWw417Y9Odlc-vdFVgDOwgOcm8rn-CFl51UgsMiXK0RZOFJioOq0FJmlAY5MvXUClfl60Lex4iAY2qegYnnWL2qdi7ZudAl7yxaGn3N4ZcFRE35SzYmUgkMNVt-FFRDUJ-I3k_i4LC9NImnZQqLSTPiJHnYYS0R5FY1B0hE6i2Ku2W7YZM8gNxXrDyrB-D1V5JAZP6rLaEtcW6R6AYZKwWzbxBQ-xZXB6C8Nggi_mynAM538_SveIcQtneUaRD3hAKoq8WvLh7fx_bt-jbISbn-TmLgY3-JU3RH6aiQsCb7h5SeTh1kMGHdsLq8TRLI2c1uYx2VaMfCJOkDCX4Yf3n9OX9XQHas4T_TviwBW51sYdoPoSamL4nK4iwFqXLUZ6EGMcKdV4AfD18I3gicKbtDex5Cw_POEUwrGmfHnfTimUW1HcmsD8tVbatBz3Q3MKujX7HqK_OJhI5BHl3qT1FgOlE79tSKbAvBpIMTyTYPjswGa6s_H0B2RfW_nZkqLRs3jp3uRDV7ZeF4txELPLRGteVCuW_UdGLSaIQM4uhFowMtL6F38uDDZ6wJyH7YWBkLU-CRsvdsSLLRYuz6jwUYCb6_YxG7bWjE4_WC0]--></g></svg>