<?xml version="1.0" encoding="us-ascii" standalone="no"?><svg xmlns="http://www.w3.org/2000/svg" xmlns:xlink="http://www.w3.org/1999/xlink" contentStyleType="text/css" height="1014px" preserveAspectRatio="none" style="width:723px;height:1014px;" version="1.1" viewBox="0 0 723 1014" width="723px" zoomAndPan="magnify"><defs/><g><rect fill="none" height="1012.8159" style="stroke:#0A9EFD;stroke-width:1.0;" width="721" x="0" y="0"/><rect fill="#999999" fill-opacity="0.33333" height="1002.8159" style="stroke:#0A9EFD;stroke-width:0.5;" width="343" x="16" y="6"/><text fill="#0A9EFD" font-family="sans-serif" font-size="13" font-weight="bold" lengthAdjust="spacing" textLength="140" x="117.5" y="18.5684">Implemented by you</text><rect fill="#999999" fill-opacity="0.33333" height="1002.8159" style="stroke:#0A9EFD;stroke-width:0.5;" width="80" x="553" y="6"/><text fill="#0A9EFD" font-family="sans-serif" font-size="13" font-weight="bold" lengthAdjust="spacing" textLength="41" x="572.5" y="18.5684">Agora</text><rect fill="#0A9EFD" fill-opacity="0.06667" height="360.3335" style="stroke:#0A9EFD;stroke-width:2.0;" width="707" x="10" y="73.4092"/><rect fill="#0A9EFD" fill-opacity="0.06667" height="190.5898" style="stroke:#0A9EFD;stroke-width:2.0;" width="629" x="10" y="447.7427"/><rect fill="#0A9EFD" fill-opacity="0.06667" height="305.3848" style="stroke:#0A9EFD;stroke-width:2.0;" width="707" x="10" y="652.3325"/><line style="stroke:#0A9EFD;stroke-width:0.5;stroke-dasharray:5.0,5.0;" x1="69" x2="69" y1="56.4092" y2="974.7173"/><line style="stroke:#0A9EFD;stroke-width:0.5;stroke-dasharray:5.0,5.0;" x1="319" x2="319" y1="56.4092" y2="974.7173"/><line style="stroke:#0A9EFD;stroke-width:0.5;stroke-dasharray:5.0,5.0;" x1="593" x2="593" y1="56.4092" y2="974.7173"/><rect fill="none" height="30.0986" rx="2.5" ry="2.5" style="stroke:#0A9EFD;stroke-width:2.0;" width="98" x="20" y="25.3105"/><text fill="#0A9EFD" font-family="Arial" font-size="14" lengthAdjust="spacing" textLength="84" x="27" y="45.4424">Token server</text><rect fill="none" height="30.0986" rx="2.5" ry="2.5" style="stroke:#0A9EFD;stroke-width:2.0;" width="98" x="20" y="973.7173"/><text fill="#0A9EFD" font-family="Arial" font-size="14" lengthAdjust="spacing" textLength="84" x="27" y="993.8491">Token server</text><rect fill="none" height="30.0986" rx="2.5" ry="2.5" style="stroke:#0A9EFD;stroke-width:2.0;" width="72" x="283" y="25.3105"/><text fill="#0A9EFD" font-family="Arial" font-size="14" lengthAdjust="spacing" textLength="58" x="290" y="45.4424">Your app</text><rect fill="none" height="30.0986" rx="2.5" ry="2.5" style="stroke:#0A9EFD;stroke-width:2.0;" width="72" x="283" y="973.7173"/><text fill="#0A9EFD" font-family="Arial" font-size="14" lengthAdjust="spacing" textLength="58" x="290" y="993.8491">Your app</text><rect fill="none" height="30.0986" rx="2.5" ry="2.5" style="stroke:#0A9EFD;stroke-width:2.0;" width="72" x="557" y="25.3105"/><text fill="#0A9EFD" font-family="Arial" font-size="14" lengthAdjust="spacing" textLength="58" x="564" y="45.4424">Signaling</text><rect fill="none" height="30.0986" rx="2.5" ry="2.5" style="stroke:#0A9EFD;stroke-width:2.0;" width="72" x="557" y="973.7173"/><text fill="#0A9EFD" font-family="Arial" font-size="14" lengthAdjust="spacing" textLength="58" x="564" y="993.8491">Signaling</text><path d="M10,73.4092 L282,73.4092 L282,80.3579 L272,90.3579 L10,90.3579 L10,73.4092 " fill="#EEEEEE" style="stroke:#0A9EFD;stroke-width:1.5;"/><rect fill="none" height="360.3335" style="stroke:#0A9EFD;stroke-width:2.0;" width="707" x="10" y="73.4092"/><text fill="#000000" font-family="Arial" font-size="13" lengthAdjust="spacing" textLength="227" x="25" y="86.603">Log in to Signaling using authentication</text><line style="stroke:#0A9EFD;stroke-width:2.0;" x1="69" x2="111" y1="126.2554" y2="126.2554"/><line style="stroke:#0A9EFD;stroke-width:2.0;" x1="111" x2="111" y1="126.2554" y2="139.2554"/><line style="stroke:#0A9EFD;stroke-width:2.0;" x1="70" x2="111" y1="139.2554" y2="139.2554"/><polygon fill="#0A9EFD" points="80,135.2554,70,139.2554,80,143.2554,76,139.2554" style="stroke:#0A9EFD;stroke-width:1.0;"/><text fill="#0A9EFD" font-family="Arial" font-size="13" lengthAdjust="spacing" textLength="195" x="76" y="106.5518">Configure your token server using</text><text fill="#0A9EFD" font-family="Arial" font-size="13" lengthAdjust="spacing" textLength="182" x="84.5" y="121.5005">your App Id and App Certificate</text><polygon fill="#0A9EFD" points="80,164.2041,70,168.2041,80,172.2041,76,168.2041" style="stroke:#0A9EFD;stroke-width:1.0;"/><line style="stroke:#0A9EFD;stroke-width:2.0;" x1="74" x2="318" y1="168.2041" y2="168.2041"/><text fill="#0A9EFD" font-family="Arial" font-size="13" lengthAdjust="spacing" textLength="224" x="82" y="163.4492">Request an RTM token using a user Id</text><line style="stroke:#0A9EFD;stroke-width:2.0;" x1="69" x2="111" y1="212.1016" y2="212.1016"/><line style="stroke:#0A9EFD;stroke-width:2.0;" x1="111" x2="111" y1="212.1016" y2="225.1016"/><line style="stroke:#0A9EFD;stroke-width:2.0;" x1="70" x2="111" y1="225.1016" y2="225.1016"/><polygon fill="#0A9EFD" points="80,221.1016,70,225.1016,80,229.1016,76,225.1016" style="stroke:#0A9EFD;stroke-width:1.0;"/><text fill="#0A9EFD" font-family="Arial" font-size="13" lengthAdjust="spacing" textLength="236" x="76" y="192.3979">Validate request against internal security</text><text fill="#0A9EFD" font-family="Arial" font-size="13" lengthAdjust="spacing" textLength="122" x="135" y="207.3467">and generate a token</text><polygon fill="#0A9EFD" points="307,250.0503,317,254.0503,307,258.0503,311,254.0503" style="stroke:#0A9EFD;stroke-width:1.0;"/><line style="stroke:#0A9EFD;stroke-width:2.0;" x1="69" x2="313" y1="254.0503" y2="254.0503"/><text fill="#0A9EFD" font-family="Arial" font-size="13" lengthAdjust="spacing" textLength="148" x="120" y="249.2954">Return RTM token to App</text><line style="stroke:#0A9EFD;stroke-width:2.0;" x1="319" x2="361" y1="297.9478" y2="297.9478"/><line style="stroke:#0A9EFD;stroke-width:2.0;" x1="361" x2="361" y1="297.9478" y2="310.9478"/><line style="stroke:#0A9EFD;stroke-width:2.0;" x1="320" x2="361" y1="310.9478" y2="310.9478"/><polygon fill="#0A9EFD" points="330,306.9478,320,310.9478,330,314.9478,326,310.9478" style="stroke:#0A9EFD;stroke-width:1.0;"/><text fill="#0A9EFD" font-family="Arial" font-size="13" lengthAdjust="spacing" textLength="197" x="326" y="278.2441">Initiate the Signaling Engine using</text><text fill="#0A9EFD" font-family="Arial" font-size="13" lengthAdjust="spacing" textLength="60" x="396.5" y="293.1929">the App Id</text><polygon fill="#0A9EFD" points="581,350.8452,591,354.8452,581,358.8452,585,354.8452" style="stroke:#0A9EFD;stroke-width:1.0;"/><line style="stroke:#0A9EFD;stroke-width:2.0;" x1="319" x2="587" y1="354.8452" y2="354.8452"/><text fill="#0A9EFD" font-family="Arial" font-size="13" lengthAdjust="spacing" textLength="142" x="385" y="335.1416">Log in to Signaling using</text><text fill="#0A9EFD" font-family="Arial" font-size="13" lengthAdjust="spacing" textLength="177" x="369.5" y="350.0903">the user Id and the RTM token</text><line style="stroke:#0A9EFD;stroke-width:2.0;" x1="593" x2="635" y1="383.7939" y2="383.7939"/><line style="stroke:#0A9EFD;stroke-width:2.0;" x1="635" x2="635" y1="383.7939" y2="396.7939"/><line style="stroke:#0A9EFD;stroke-width:2.0;" x1="594" x2="635" y1="396.7939" y2="396.7939"/><polygon fill="#0A9EFD" points="604,392.7939,594,396.7939,604,400.7939,600,396.7939" style="stroke:#0A9EFD;stroke-width:1.0;"/><text fill="#0A9EFD" font-family="Arial" font-size="13" lengthAdjust="spacing" textLength="105" x="600" y="379.0391">Validate the token</text><polygon fill="#0A9EFD" points="330,421.7427,320,425.7427,330,429.7427,326,425.7427" style="stroke:#0A9EFD;stroke-width:1.0;"/><line style="stroke:#0A9EFD;stroke-width:2.0;" x1="324" x2="592" y1="425.7427" y2="425.7427"/><text fill="#0A9EFD" font-family="Arial" font-size="13" lengthAdjust="spacing" textLength="189" x="361.5" y="420.9878">Log in user, then trigger callback</text><path d="M10,447.7427 L183,447.7427 L183,454.6914 L173,464.6914 L10,464.6914 L10,447.7427 " fill="#EEEEEE" style="stroke:#0A9EFD;stroke-width:1.5;"/><rect fill="none" height="190.5898" style="stroke:#0A9EFD;stroke-width:2.0;" width="629" x="10" y="447.7427"/><text fill="#000000" font-family="Arial" font-size="13" lengthAdjust="spacing" textLength="128" x="25" y="460.9365">Join a stream channel</text><polygon fill="#0A9EFD" points="80,496.5889,70,500.5889,80,504.5889,76,500.5889" style="stroke:#0A9EFD;stroke-width:1.0;"/><line style="stroke:#0A9EFD;stroke-width:2.0;" x1="74" x2="318" y1="500.5889" y2="500.5889"/><text fill="#0A9EFD" font-family="Arial" font-size="13" lengthAdjust="spacing" textLength="167" x="110.5" y="480.8853">Request an RTC token using</text><text fill="#0A9EFD" font-family="Arial" font-size="13" lengthAdjust="spacing" textLength="220" x="86" y="495.834">a user Id, and a stream channel name</text><line style="stroke:#0A9EFD;stroke-width:2.0;" x1="69" x2="111" y1="544.4863" y2="544.4863"/><line style="stroke:#0A9EFD;stroke-width:2.0;" x1="111" x2="111" y1="544.4863" y2="557.4863"/><line style="stroke:#0A9EFD;stroke-width:2.0;" x1="70" x2="111" y1="557.4863" y2="557.4863"/><polygon fill="#0A9EFD" points="80,553.4863,70,557.4863,80,561.4863,76,557.4863" style="stroke:#0A9EFD;stroke-width:1.0;"/><text fill="#0A9EFD" font-family="Arial" font-size="13" lengthAdjust="spacing" textLength="236" x="76" y="524.7827">Validate request against internal security</text><text fill="#0A9EFD" font-family="Arial" font-size="13" lengthAdjust="spacing" textLength="111" x="140.5" y="539.7314">and generate token</text><polygon fill="#0A9EFD" points="307,582.4351,317,586.4351,307,590.4351,311,586.4351" style="stroke:#0A9EFD;stroke-width:1.0;"/><line style="stroke:#0A9EFD;stroke-width:2.0;" x1="69" x2="313" y1="586.4351" y2="586.4351"/><text fill="#0A9EFD" font-family="Arial" font-size="13" lengthAdjust="spacing" textLength="146" x="121" y="581.6802">Return RTC token to App</text><polygon fill="#0A9EFD" points="581,626.3325,591,630.3325,581,634.3325,585,630.3325" style="stroke:#0A9EFD;stroke-width:1.0;"/><line style="stroke:#0A9EFD;stroke-width:2.0;" x1="319" x2="587" y1="630.3325" y2="630.3325"/><text fill="#0A9EFD" font-family="Arial" font-size="13" lengthAdjust="spacing" textLength="163" x="374.5" y="610.6289">Join a stream channel using</text><text fill="#0A9EFD" font-family="Arial" font-size="13" lengthAdjust="spacing" textLength="246" x="335" y="625.5776">channel name, user Id, and the RTC token</text><path d="M10,652.3325 L130,652.3325 L130,659.2813 L120,669.2813 L10,669.2813 L10,652.3325 " fill="#EEEEEE" style="stroke:#0A9EFD;stroke-width:1.5;"/><rect fill="none" height="305.3848" style="stroke:#0A9EFD;stroke-width:2.0;" width="707" x="10" y="652.3325"/><text fill="#000000" font-family="Arial" font-size="13" lengthAdjust="spacing" textLength="75" x="25" y="665.5264">Renew token</text><polygon fill="#0A9EFD" points="330,701.1787,320,705.1787,330,709.1787,326,705.1787" style="stroke:#0A9EFD;stroke-width:1.0;"/><line style="stroke:#0A9EFD;stroke-width:2.0;" x1="324" x2="592" y1="705.1787" y2="705.1787"/><text fill="#0A9EFD" font-family="Arial" font-size="13" lengthAdjust="spacing" textLength="80" x="416" y="685.4751">Trigger event:</text><text fill="#0A9EFD" font-family="Arial" font-size="13" lengthAdjust="spacing" textLength="145" x="385.5" y="700.4238">token privilege will expire</text><polygon fill="#0A9EFD" points="80,745.0762,70,749.0762,80,753.0762,76,749.0762" style="stroke:#0A9EFD;stroke-width:1.0;"/><line style="stroke:#0A9EFD;stroke-width:2.0;" x1="74" x2="318" y1="749.0762" y2="749.0762"/><text fill="#0A9EFD" font-family="Arial" font-size="13" lengthAdjust="spacing" textLength="169" x="109.5" y="729.3726">Request an RTM token using</text><text fill="#0A9EFD" font-family="Arial" font-size="13" lengthAdjust="spacing" textLength="64" x="164" y="744.3213">the user ID</text><line style="stroke:#0A9EFD;stroke-width:2.0;" x1="69" x2="111" y1="792.9736" y2="792.9736"/><line style="stroke:#0A9EFD;stroke-width:2.0;" x1="111" x2="111" y1="792.9736" y2="805.9736"/><line style="stroke:#0A9EFD;stroke-width:2.0;" x1="70" x2="111" y1="805.9736" y2="805.9736"/><polygon fill="#0A9EFD" points="80,801.9736,70,805.9736,80,809.9736,76,805.9736" style="stroke:#0A9EFD;stroke-width:1.0;"/><text fill="#0A9EFD" font-family="Arial" font-size="13" lengthAdjust="spacing" textLength="236" x="76" y="773.27">Validate request against internal security</text><text fill="#0A9EFD" font-family="Arial" font-size="13" lengthAdjust="spacing" textLength="122" x="135" y="788.2188">and generate a token</text><polygon fill="#0A9EFD" points="307,830.9224,317,834.9224,307,838.9224,311,834.9224" style="stroke:#0A9EFD;stroke-width:1.0;"/><line style="stroke:#0A9EFD;stroke-width:2.0;" x1="69" x2="313" y1="834.9224" y2="834.9224"/><text fill="#0A9EFD" font-family="Arial" font-size="13" lengthAdjust="spacing" textLength="148" x="120" y="830.1675">Return RTM token to App</text><polygon fill="#0A9EFD" points="581,874.8198,591,878.8198,581,882.8198,585,878.8198" style="stroke:#0A9EFD;stroke-width:1.0;"/><line style="stroke:#0A9EFD;stroke-width:2.0;" x1="319" x2="587" y1="878.8198" y2="878.8198"/><text fill="#0A9EFD" font-family="Arial" font-size="13" lengthAdjust="spacing" textLength="208" x="350" y="859.1162">Send RTM token to Signaling with a</text><text fill="#0A9EFD" font-family="Arial" font-size="13" lengthAdjust="spacing" textLength="109" x="401.5" y="874.0649">call to renew token</text><line style="stroke:#0A9EFD;stroke-width:2.0;" x1="593" x2="635" y1="907.7686" y2="907.7686"/><line style="stroke:#0A9EFD;stroke-width:2.0;" x1="635" x2="635" y1="907.7686" y2="920.7686"/><line style="stroke:#0A9EFD;stroke-width:2.0;" x1="594" x2="635" y1="920.7686" y2="920.7686"/><polygon fill="#0A9EFD" points="604,916.7686,594,920.7686,604,924.7686,600,920.7686" style="stroke:#0A9EFD;stroke-width:1.0;"/><text fill="#0A9EFD" font-family="Arial" font-size="13" lengthAdjust="spacing" textLength="105" x="600" y="903.0137">Validate the token</text><polygon fill="#0A9EFD" points="330,945.7173,320,949.7173,330,953.7173,326,949.7173" style="stroke:#0A9EFD;stroke-width:1.0;"/><line style="stroke:#0A9EFD;stroke-width:2.0;" x1="324" x2="592" y1="949.7173" y2="949.7173"/><text fill="#0A9EFD" font-family="Arial" font-size="13" lengthAdjust="spacing" textLength="92" x="410" y="944.9624">Trigger callback</text><!--SRC=[lPHDYzj038Rl_XMgpqds7aeXf3sux498JA6mK2QsTY9YQzpnJ3x-VJN-YhqaR0-bbpX1qgj7hnH_8iuAdoCi5aydoj7Cw_pufBInwbTz95wGBuieYlRc0d5ILWMMo0vps5_XQdmSHPMoZZAg53k0E3L7PAZHdj36e6f8TzEK-AVn5bHLDT7LPXD5o29dBdsNLMWUJujsf5aLnBghIcv5sXfVmRFHG0pEm90AlWwVohk385Ec71cEqXtClmZL4jQ6tqXxYs4GAwKtyhRqbTl8ggeWoK59n_1rZGBs5lGm4lvURek_FTPEqc2RldHo7O8yHJJ9Hzr_26Ck4c3xEgs8vKbYhvK912NpbjnLC49hZOms5AXMkzCIWj3RUJlkApu8Qe_Nv2HCZaAzs34owHjhOXm63i5stbjnidniRrVIpTU0Xjy3YQWaWyemSqXv5zuCJOBMBAI8j2MjHJbJHR5NsJ5ilT_uToEv2cfdKPMG7HGp5WyNiXul93ZQ8yyQvlSwmAh4VxAjnxjQFzYL67Ltje5zp3YRpj5wtocFtTeAp_cEvsddC9xaFx8CssoOAaidAb0ZdAae02yLsR-yzib5VFt_5v_0vtcRimllY4d6xNZFv0wY-yhXj4B8tZFeuvjDxrte7m00]--></g></svg>