<?xml version="1.0" encoding="UTF-8" standalone="no"?><svg xmlns="http://www.w3.org/2000/svg" xmlns:xlink="http://www.w3.org/1999/xlink" contentStyleType="text/css" height="1106px" preserveAspectRatio="none" style="width:848px;height:1106px;background:#FFFFFF;" version="1.1" viewBox="0 0 848 1106" width="848px" zoomAndPan="magnify"><defs/><g><rect fill="none" height="1104.6797" style="stroke:#0A9EFD;stroke-width:1.0;" width="846" x="0" y="0"/><rect fill="#F3F3F3" height="1094.6797" style="stroke:#0A9EFD;stroke-width:0.5;" width="403" x="16" y="6"/><text fill="#000000" font-family="sans-serif" font-size="13" font-weight="bold" lengthAdjust="spacing" textLength="130" x="152.5" y="19.4951">Implemented by you</text><rect fill="#F3F3F3" height="1094.6797" style="stroke:#0A9EFD;stroke-width:0.5;" width="87" x="652.5" y="6"/><text fill="#000000" font-family="sans-serif" font-size="13" font-weight="bold" lengthAdjust="spacing" textLength="38" x="677" y="19.4951">Agora</text><rect fill="#FFFFFF" height="394.9219" style="stroke:#0A9EFD;stroke-width:2.0;" width="832" x="10" y="75.9609"/><rect fill="#FFFFFF" height="211.875" style="stroke:#0A9EFD;stroke-width:2.0;" width="735.5" x="10" y="484.8828"/><rect fill="#FFFFFF" height="337.3125" style="stroke:#0A9EFD;stroke-width:2.0;" width="832" x="10" y="710.7578"/><line style="stroke:#0A9EFD;stroke-width:0.5;stroke-dasharray:5.0,5.0;" x1="74" x2="74" y1="58.9609" y2="1065.0703"/><line style="stroke:#0A9EFD;stroke-width:0.5;stroke-dasharray:5.0,5.0;" x1="376" x2="376" y1="58.9609" y2="1065.0703"/><line style="stroke:#0A9EFD;stroke-width:0.5;stroke-dasharray:5.0,5.0;" x1="695.5" x2="695.5" y1="58.9609" y2="1065.0703"/><rect fill="#FFFFFF" height="31.6094" rx="2.5" ry="2.5" style="stroke:#0A9EFD;stroke-width:2.0;" width="108" x="20" y="26.3516"/><text fill="#0A9EFD" font-family="Roboto" font-size="14" font-weight="bold" lengthAdjust="spacing" textLength="94" x="27" y="47.8848">Token server</text><rect fill="#FFFFFF" height="31.6094" rx="2.5" ry="2.5" style="stroke:#0A9EFD;stroke-width:2.0;" width="108" x="20" y="1064.0703"/><text fill="#0A9EFD" font-family="Roboto" font-size="14" font-weight="bold" lengthAdjust="spacing" textLength="94" x="27" y="1085.6035">Token server</text><rect fill="#FFFFFF" height="31.6094" rx="2.5" ry="2.5" style="stroke:#0A9EFD;stroke-width:2.0;" width="78" x="337" y="26.3516"/><text fill="#0A9EFD" font-family="Roboto" font-size="14" font-weight="bold" lengthAdjust="spacing" textLength="64" x="344" y="47.8848">Your app</text><rect fill="#FFFFFF" height="31.6094" rx="2.5" ry="2.5" style="stroke:#0A9EFD;stroke-width:2.0;" width="78" x="337" y="1064.0703"/><text fill="#0A9EFD" font-family="Roboto" font-size="14" font-weight="bold" lengthAdjust="spacing" textLength="64" x="344" y="1085.6035">Your app</text><rect fill="#FFFFFF" height="31.6094" rx="2.5" ry="2.5" style="stroke:#0A9EFD;stroke-width:2.0;" width="79" x="656.5" y="26.3516"/><text fill="#0A9EFD" font-family="Roboto" font-size="14" font-weight="bold" lengthAdjust="spacing" textLength="65" x="663.5" y="47.8848">Signaling</text><rect fill="#FFFFFF" height="31.6094" rx="2.5" ry="2.5" style="stroke:#0A9EFD;stroke-width:2.0;" width="79" x="656.5" y="1064.0703"/><text fill="#0A9EFD" font-family="Roboto" font-size="14" font-weight="bold" lengthAdjust="spacing" textLength="65" x="663.5" y="1085.6035">Signaling</text><path d="M10,75.9609 L333,75.9609 L333,85.5703 L323,95.5703 L10,95.5703 L10,75.9609 " fill="#EEEEEE" style="stroke:#0A9EFD;stroke-width:1.5;"/><rect fill="none" height="394.9219" style="stroke:#0A9EFD;stroke-width:2.0;" width="832" x="10" y="75.9609"/><text fill="#0A9EFD" font-family="Roboto" font-size="14" font-weight="bold" lengthAdjust="spacing" textLength="278" x="25" y="91.4941">Log in to Signaling using authentication</text><line style="stroke:#0A9EFD;stroke-width:2.0;" x1="74" x2="116" y1="136.7891" y2="136.7891"/><line style="stroke:#0A9EFD;stroke-width:2.0;" x1="116" x2="116" y1="136.7891" y2="149.7891"/><line style="stroke:#0A9EFD;stroke-width:2.0;" x1="75" x2="116" y1="149.7891" y2="149.7891"/><polygon fill="#0A9EFD" points="85,145.7891,75,149.7891,85,153.7891,81,149.7891" style="stroke:#0A9EFD;stroke-width:1.0;"/><text fill="#0A9EFD" font-family="Roboto" font-size="14" font-weight="bold" lengthAdjust="spacing" textLength="243" x="81" y="114.1035">Configure your token server using</text><text fill="#0A9EFD" font-family="Roboto" font-size="14" font-weight="bold" lengthAdjust="spacing" textLength="217" x="96" y="131.7129">your App Id and App Certificate</text><polygon fill="#0A9EFD" points="85,177.3984,75,181.3984,85,185.3984,81,181.3984" style="stroke:#0A9EFD;stroke-width:1.0;"/><line style="stroke:#0A9EFD;stroke-width:2.0;" x1="79" x2="375" y1="181.3984" y2="181.3984"/><text fill="#0A9EFD" font-family="Roboto" font-size="14" font-weight="bold" lengthAdjust="spacing" textLength="267" x="91.5" y="176.3223">Request an RTM token using a user Id</text><line style="stroke:#0A9EFD;stroke-width:2.0;" x1="74" x2="116" y1="230.6172" y2="230.6172"/><line style="stroke:#0A9EFD;stroke-width:2.0;" x1="116" x2="116" y1="230.6172" y2="243.6172"/><line style="stroke:#0A9EFD;stroke-width:2.0;" x1="75" x2="116" y1="243.6172" y2="243.6172"/><polygon fill="#0A9EFD" points="85,239.6172,75,243.6172,85,247.6172,81,243.6172" style="stroke:#0A9EFD;stroke-width:1.0;"/><text fill="#0A9EFD" font-family="Roboto" font-size="14" font-weight="bold" lengthAdjust="spacing" textLength="288" x="81" y="207.9316">Validate request against internal security</text><text fill="#0A9EFD" font-family="Roboto" font-size="14" font-weight="bold" lengthAdjust="spacing" textLength="150" x="152" y="225.541">and generate a token</text><polygon fill="#0A9EFD" points="364,271.2266,374,275.2266,364,279.2266,368,275.2266" style="stroke:#0A9EFD;stroke-width:1.0;"/><line style="stroke:#0A9EFD;stroke-width:2.0;" x1="74" x2="370" y1="275.2266" y2="275.2266"/><text fill="#0A9EFD" font-family="Roboto" font-size="14" font-weight="bold" lengthAdjust="spacing" textLength="176" x="137" y="270.1504">Return RTM token to App</text><line style="stroke:#0A9EFD;stroke-width:2.0;" x1="376" x2="418" y1="324.4453" y2="324.4453"/><line style="stroke:#0A9EFD;stroke-width:2.0;" x1="418" x2="418" y1="324.4453" y2="337.4453"/><line style="stroke:#0A9EFD;stroke-width:2.0;" x1="377" x2="418" y1="337.4453" y2="337.4453"/><polygon fill="#0A9EFD" points="387,333.4453,377,337.4453,387,341.4453,383,337.4453" style="stroke:#0A9EFD;stroke-width:1.0;"/><text fill="#0A9EFD" font-family="Roboto" font-size="14" font-weight="bold" lengthAdjust="spacing" textLength="240" x="383" y="301.7598">Initiate the Signaling Engine using</text><text fill="#0A9EFD" font-family="Roboto" font-size="14" font-weight="bold" lengthAdjust="spacing" textLength="71" x="469.5" y="319.3691">the App Id</text><polygon fill="#0A9EFD" points="684,382.6641,694,386.6641,684,390.6641,688,386.6641" style="stroke:#0A9EFD;stroke-width:1.0;"/><line style="stroke:#0A9EFD;stroke-width:2.0;" x1="376" x2="690" y1="386.6641" y2="386.6641"/><text fill="#0A9EFD" font-family="Roboto" font-size="14" font-weight="bold" lengthAdjust="spacing" textLength="173" x="449.5" y="363.9785">Log in to Signaling using</text><text fill="#0A9EFD" font-family="Roboto" font-size="14" font-weight="bold" lengthAdjust="spacing" textLength="212" x="432" y="381.5879">the user Id and the RTM token</text><line style="stroke:#0A9EFD;stroke-width:2.0;" x1="696" x2="738" y1="418.2734" y2="418.2734"/><line style="stroke:#0A9EFD;stroke-width:2.0;" x1="738" x2="738" y1="418.2734" y2="431.2734"/><line style="stroke:#0A9EFD;stroke-width:2.0;" x1="697" x2="738" y1="431.2734" y2="431.2734"/><polygon fill="#0A9EFD" points="707,427.2734,697,431.2734,707,435.2734,703,431.2734" style="stroke:#0A9EFD;stroke-width:1.0;"/><text fill="#0A9EFD" font-family="Roboto" font-size="14" font-weight="bold" lengthAdjust="spacing" textLength="127" x="703" y="413.1973">Validate the token</text><polygon fill="#0A9EFD" points="387,458.8828,377,462.8828,387,466.8828,383,462.8828" style="stroke:#0A9EFD;stroke-width:1.0;"/><line style="stroke:#0A9EFD;stroke-width:2.0;" x1="381" x2="695" y1="462.8828" y2="462.8828"/><text fill="#0A9EFD" font-family="Roboto" font-size="14" font-weight="bold" lengthAdjust="spacing" textLength="232" x="420" y="457.8066">Log in user, then trigger callback</text><path d="M10,484.8828 L209,484.8828 L209,494.4922 L199,504.4922 L10,504.4922 L10,484.8828 " fill="#EEEEEE" style="stroke:#0A9EFD;stroke-width:1.5;"/><rect fill="none" height="211.875" style="stroke:#0A9EFD;stroke-width:2.0;" width="735.5" x="10" y="484.8828"/><text fill="#0A9EFD" font-family="Roboto" font-size="14" font-weight="bold" lengthAdjust="spacing" textLength="154" x="25" y="500.416">Join a stream channel</text><polygon fill="#0A9EFD" points="85,541.7109,75,545.7109,85,549.7109,81,545.7109" style="stroke:#0A9EFD;stroke-width:1.0;"/><line style="stroke:#0A9EFD;stroke-width:2.0;" x1="79" x2="375" y1="545.7109" y2="545.7109"/><text fill="#0A9EFD" font-family="Roboto" font-size="14" font-weight="bold" lengthAdjust="spacing" textLength="199" x="125.5" y="523.0254">Request an RTC token using</text><text fill="#0A9EFD" font-family="Roboto" font-size="14" font-weight="bold" lengthAdjust="spacing" textLength="261" x="96.5" y="540.6348">a user Id, and a stream channel name</text><line style="stroke:#0A9EFD;stroke-width:2.0;" x1="74" x2="116" y1="594.9297" y2="594.9297"/><line style="stroke:#0A9EFD;stroke-width:2.0;" x1="116" x2="116" y1="594.9297" y2="607.9297"/><line style="stroke:#0A9EFD;stroke-width:2.0;" x1="75" x2="116" y1="607.9297" y2="607.9297"/><polygon fill="#0A9EFD" points="85,603.9297,75,607.9297,85,611.9297,81,607.9297" style="stroke:#0A9EFD;stroke-width:1.0;"/><text fill="#0A9EFD" font-family="Roboto" font-size="14" font-weight="bold" lengthAdjust="spacing" textLength="288" x="81" y="572.2441">Validate request against internal security</text><text fill="#0A9EFD" font-family="Roboto" font-size="14" font-weight="bold" lengthAdjust="spacing" textLength="138" x="158" y="589.8535">and generate token</text><polygon fill="#0A9EFD" points="364,635.5391,374,639.5391,364,643.5391,368,639.5391" style="stroke:#0A9EFD;stroke-width:1.0;"/><line style="stroke:#0A9EFD;stroke-width:2.0;" x1="74" x2="370" y1="639.5391" y2="639.5391"/><text fill="#0A9EFD" font-family="Roboto" font-size="14" font-weight="bold" lengthAdjust="spacing" textLength="173" x="138.5" y="634.4629">Return RTC token to App</text><polygon fill="#0A9EFD" points="684,684.7578,694,688.7578,684,692.7578,688,688.7578" style="stroke:#0A9EFD;stroke-width:1.0;"/><line style="stroke:#0A9EFD;stroke-width:2.0;" x1="376" x2="690" y1="688.7578" y2="688.7578"/><text fill="#0A9EFD" font-family="Roboto" font-size="14" font-weight="bold" lengthAdjust="spacing" textLength="197" x="437.5" y="666.0723">Join a stream channel using</text><text fill="#0A9EFD" font-family="Roboto" font-size="14" font-weight="bold" lengthAdjust="spacing" textLength="292" x="392" y="683.6816">channel name, user Id, and the RTC token</text><path d="M10,710.7578 L147,710.7578 L147,720.3672 L137,730.3672 L10,730.3672 L10,710.7578 " fill="#EEEEEE" style="stroke:#0A9EFD;stroke-width:1.5;"/><rect fill="none" height="337.3125" style="stroke:#0A9EFD;stroke-width:2.0;" width="832" x="10" y="710.7578"/><text fill="#0A9EFD" font-family="Roboto" font-size="14" font-weight="bold" lengthAdjust="spacing" textLength="92" x="25" y="726.291">Renew token</text><polygon fill="#0A9EFD" points="387,767.5859,377,771.5859,387,775.5859,383,771.5859" style="stroke:#0A9EFD;stroke-width:1.0;"/><line style="stroke:#0A9EFD;stroke-width:2.0;" x1="381" x2="695" y1="771.5859" y2="771.5859"/><text fill="#0A9EFD" font-family="Roboto" font-size="14" font-weight="bold" lengthAdjust="spacing" textLength="100" x="486" y="748.9004">Trigger event:</text><text fill="#0A9EFD" font-family="Roboto" font-size="14" font-weight="bold" lengthAdjust="spacing" textLength="183" x="446.5" y="766.5098">token privilege will expire</text><polygon fill="#0A9EFD" points="85,816.8047,75,820.8047,85,824.8047,81,820.8047" style="stroke:#0A9EFD;stroke-width:1.0;"/><line style="stroke:#0A9EFD;stroke-width:2.0;" x1="79" x2="375" y1="820.8047" y2="820.8047"/><text fill="#0A9EFD" font-family="Roboto" font-size="14" font-weight="bold" lengthAdjust="spacing" textLength="202" x="124" y="798.1191">Request an RTM token using</text><text fill="#0A9EFD" font-family="Roboto" font-size="14" font-weight="bold" lengthAdjust="spacing" textLength="77" x="188.5" y="815.7285">the user ID</text><line style="stroke:#0A9EFD;stroke-width:2.0;" x1="74" x2="116" y1="870.0234" y2="870.0234"/><line style="stroke:#0A9EFD;stroke-width:2.0;" x1="116" x2="116" y1="870.0234" y2="883.0234"/><line style="stroke:#0A9EFD;stroke-width:2.0;" x1="75" x2="116" y1="883.0234" y2="883.0234"/><polygon fill="#0A9EFD" points="85,879.0234,75,883.0234,85,887.0234,81,883.0234" style="stroke:#0A9EFD;stroke-width:1.0;"/><text fill="#0A9EFD" font-family="Roboto" font-size="14" font-weight="bold" lengthAdjust="spacing" textLength="288" x="81" y="847.3379">Validate request against internal security</text><text fill="#0A9EFD" font-family="Roboto" font-size="14" font-weight="bold" lengthAdjust="spacing" textLength="150" x="152" y="864.9473">and generate a token</text><polygon fill="#0A9EFD" points="364,910.6328,374,914.6328,364,918.6328,368,914.6328" style="stroke:#0A9EFD;stroke-width:1.0;"/><line style="stroke:#0A9EFD;stroke-width:2.0;" x1="74" x2="370" y1="914.6328" y2="914.6328"/><text fill="#0A9EFD" font-family="Roboto" font-size="14" font-weight="bold" lengthAdjust="spacing" textLength="176" x="137" y="909.5566">Return RTM token to App</text><polygon fill="#0A9EFD" points="684,959.8516,694,963.8516,684,967.8516,688,963.8516" style="stroke:#0A9EFD;stroke-width:1.0;"/><line style="stroke:#0A9EFD;stroke-width:2.0;" x1="376" x2="690" y1="963.8516" y2="963.8516"/><text fill="#0A9EFD" font-family="Roboto" font-size="14" font-weight="bold" lengthAdjust="spacing" textLength="247" x="410.5" y="941.166">Send RTM token to Signaling with a</text><text fill="#0A9EFD" font-family="Roboto" font-size="14" font-weight="bold" lengthAdjust="spacing" textLength="134" x="469" y="958.7754">call to renew token</text><line style="stroke:#0A9EFD;stroke-width:2.0;" x1="696" x2="738" y1="995.4609" y2="995.4609"/><line style="stroke:#0A9EFD;stroke-width:2.0;" x1="738" x2="738" y1="995.4609" y2="1008.4609"/><line style="stroke:#0A9EFD;stroke-width:2.0;" x1="697" x2="738" y1="1008.4609" y2="1008.4609"/><polygon fill="#0A9EFD" points="707,1004.4609,697,1008.4609,707,1012.4609,703,1008.4609" style="stroke:#0A9EFD;stroke-width:1.0;"/><text fill="#0A9EFD" font-family="Roboto" font-size="14" font-weight="bold" lengthAdjust="spacing" textLength="127" x="703" y="990.3848">Validate the token</text><polygon fill="#0A9EFD" points="387,1036.0703,377,1040.0703,387,1044.0703,383,1040.0703" style="stroke:#0A9EFD;stroke-width:1.0;"/><line style="stroke:#0A9EFD;stroke-width:2.0;" x1="381" x2="695" y1="1040.0703" y2="1040.0703"/><text fill="#0A9EFD" font-family="Roboto" font-size="14" font-weight="bold" lengthAdjust="spacing" textLength="112" x="480" y="1034.9941">Trigger callback</text><!--SRC=[lPHDYzj038Rl_XMgpqds7aeXf3sux498JA6mK2QsTY9YQzpnJ3x-VJN-YhqaR0-bbpX1qgj7hnH_8iuAdoCi5aydoj7Cw_pufBInwbTz95wGBuieYlRc0d5ILWMMo0vps5_XQdmSHPMoZZAg53k0E3L7PAZHdj36e6f8TzEK-AVn5bHLDT7LPXD5o29dBdsNLMWUJujsf5aLnBghIcv5sXfVmRFHG0pEm90AlWwVohk385Ec71cEqXtClmZL4jQ6tqXxYs4GAwKtyhRqbTl8ggeWoK59n_1rZGBs5lGm4lvURek_FTPEqc2RldHo7O8yHJJ9Hzr_26Ck4c3xEgs8vKbYhvK912NpbjnLC49hZOms5AXMkzCIWj3RUJlkApu8Qe_Nv2HCZaAzs34owHjhOXm63i5stbjnidniRrVIpTU0Xjy3YQWaWyemSqXv5zuCJOBMBAI8j2MjHJbJHR5NsJ5ilT_uToEv2cfdKPMG7HGp5WyNiXul93ZQ8yyQvlSwmAh4VxAjnxjQFzYL67Ltje5zp3YRpj5wtocFtTeAp_cEvsddC9xaFx8CssoOAaidAb0ZdAae02yLsR-yzib5VFt_5v_0vtcRimllY4d6xNZFv0wY-yhXj4B8tZFeuvjDxrte7m00]--></g></svg>