<?xml version="1.0" encoding="us-ascii" standalone="no"?><svg xmlns="http://www.w3.org/2000/svg" xmlns:xlink="http://www.w3.org/1999/xlink" contentStyleType="text/css" height="773px" preserveAspectRatio="none" style="width:805px;height:773px;background:#FFFFFF;" version="1.1" viewBox="0 0 805 773" width="805px" zoomAndPan="magnify"><defs><style type="text/css">@import url('https://fonts.googleapis.com/css?family=Roboto:400,100,100italic,300,300italic,400italic,500,500italic,700,700italic,900,900italic');</style></defs><g><rect fill="none" height="771.0293" style="stroke:#0A9EFD;stroke-width:1.0;" width="803" x="0" y="0"/><rect fill="#F3F3F3" height="761.0293" style="stroke:#0A9EFD;stroke-width:0.5;" width="355.5" x="16" y="6"/><text fill="#0A9EFD" font-family="sans-serif" font-size="13" font-weight="bold" lengthAdjust="spacing" textLength="140" x="123.75" y="18.5684">Implemented by you</text><rect fill="#F3F3F3" height="761.0293" style="stroke:#0A9EFD;stroke-width:0.5;" width="89" x="602.5" y="6"/><text fill="#0A9EFD" font-family="sans-serif" font-size="13" font-weight="bold" lengthAdjust="spacing" textLength="41" x="626.5" y="18.5684">Agora</text><rect fill="#FFFFFF" height="276.8828" style="stroke:#0A9EFD;stroke-width:2.0;" width="789" x="10" y="117.2871"/><rect fill="#FFFFFF" height="307.3711" style="stroke:#0A9EFD;stroke-width:2.0;" width="789" x="10" y="408.1699"/><line style="stroke:#0A9EFD;stroke-width:0.5;stroke-dasharray:5.0,5.0;" x1="74" x2="74" y1="56.7988" y2="732.541"/><line style="stroke:#0A9EFD;stroke-width:0.5;stroke-dasharray:5.0,5.0;" x1="327.5" x2="327.5" y1="56.7988" y2="732.541"/><line style="stroke:#0A9EFD;stroke-width:0.5;stroke-dasharray:5.0,5.0;" x1="646.5" x2="646.5" y1="56.7988" y2="732.541"/><rect fill="#FFFFFF" height="30.4883" rx="2.5" ry="2.5" style="stroke:#0A9EFD;stroke-width:2.0;" width="108" x="20" y="25.3105"/><text fill="#0A9EFD" font-family="Roboto" font-size="14" font-weight="bold" lengthAdjust="spacing" textLength="94" x="27" y="45.8457">Token Server</text><rect fill="#FFFFFF" height="30.4883" rx="2.5" ry="2.5" style="stroke:#0A9EFD;stroke-width:2.0;" width="108" x="20" y="731.541"/><text fill="#0A9EFD" font-family="Roboto" font-size="14" font-weight="bold" lengthAdjust="spacing" textLength="94" x="27" y="752.0762">Token Server</text><rect fill="#FFFFFF" height="30.4883" rx="2.5" ry="2.5" style="stroke:#0A9EFD;stroke-width:2.0;" width="79" x="288.5" y="25.3105"/><text fill="#0A9EFD" font-family="Roboto" font-size="14" font-weight="bold" lengthAdjust="spacing" textLength="65" x="295.5" y="45.8457">Your app</text><rect fill="#FFFFFF" height="30.4883" rx="2.5" ry="2.5" style="stroke:#0A9EFD;stroke-width:2.0;" width="79" x="288.5" y="731.541"/><text fill="#0A9EFD" font-family="Roboto" font-size="14" font-weight="bold" lengthAdjust="spacing" textLength="65" x="295.5" y="752.0762">Your app</text><rect fill="#FFFFFF" height="30.4883" rx="2.5" ry="2.5" style="stroke:#0A9EFD;stroke-width:2.0;" width="81" x="606.5" y="25.3105"/><text fill="#0A9EFD" font-family="Roboto" font-size="14" font-weight="bold" lengthAdjust="spacing" textLength="67" x="613.5" y="45.8457">Signaling</text><rect fill="#FFFFFF" height="30.4883" rx="2.5" ry="2.5" style="stroke:#0A9EFD;stroke-width:2.0;" width="81" x="606.5" y="731.541"/><text fill="#0A9EFD" font-family="Roboto" font-size="14" font-weight="bold" lengthAdjust="spacing" textLength="67" x="613.5" y="752.0762">Signaling</text><line style="stroke:#0A9EFD;stroke-width:2.0;" x1="328" x2="370" y1="89.2871" y2="89.2871"/><line style="stroke:#0A9EFD;stroke-width:2.0;" x1="370" x2="370" y1="89.2871" y2="102.2871"/><line style="stroke:#0A9EFD;stroke-width:2.0;" x1="329" x2="370" y1="102.2871" y2="102.2871"/><polygon fill="#0A9EFD" points="339,98.2871,329,102.2871,339,106.2871,335,102.2871" style="stroke:#0A9EFD;stroke-width:1.0;"/><text fill="#0A9EFD" font-family="Roboto" font-size="14" font-weight="bold" lengthAdjust="spacing" textLength="205" x="335" y="84.334">Initiate the Signaling Engine</text><path d="M10,117.2871 L298,117.2871 L298,125.7754 L288,135.7754 L10,135.7754 L10,117.2871 " fill="#EEEEEE" style="stroke:#0A9EFD;stroke-width:1.5;"/><rect fill="none" height="276.8828" style="stroke:#0A9EFD;stroke-width:2.0;" width="789" x="10" y="117.2871"/><text fill="#0A9EFD" font-family="Roboto" font-size="14" font-weight="bold" lengthAdjust="spacing" textLength="243" x="25" y="131.8223">Join channel using authentication</text><polygon fill="#0A9EFD" points="85,170.752,75,174.752,85,178.752,81,174.752" style="stroke:#0A9EFD;stroke-width:1.0;"/><line style="stroke:#0A9EFD;stroke-width:2.0;" x1="79" x2="327" y1="174.752" y2="174.752"/><text fill="#0A9EFD" font-family="Roboto" font-size="14" font-weight="bold" lengthAdjust="spacing" textLength="165" x="118.5" y="153.3105">Request a token using:</text><text fill="#0A9EFD" font-family="Roboto" font-size="14" font-weight="bold" lengthAdjust="spacing" textLength="107" x="150" y="169.7988">App Id, user ID</text><line style="stroke:#0A9EFD;stroke-width:2.0;" x1="74" x2="116" y1="221.7285" y2="221.7285"/><line style="stroke:#0A9EFD;stroke-width:2.0;" x1="116" x2="116" y1="221.7285" y2="234.7285"/><line style="stroke:#0A9EFD;stroke-width:2.0;" x1="75" x2="116" y1="234.7285" y2="234.7285"/><polygon fill="#0A9EFD" points="85,230.7285,75,234.7285,85,238.7285,81,234.7285" style="stroke:#0A9EFD;stroke-width:1.0;"/><text fill="#0A9EFD" font-family="Roboto" font-size="14" font-weight="bold" lengthAdjust="spacing" textLength="240" x="81" y="200.2871">Validate against internal security</text><text fill="#0A9EFD" font-family="Roboto" font-size="14" font-weight="bold" lengthAdjust="spacing" textLength="139" x="134" y="216.7754">and generate token</text><polygon fill="#0A9EFD" points="316,261.2168,326,265.2168,316,269.2168,320,265.2168" style="stroke:#0A9EFD;stroke-width:1.0;"/><line style="stroke:#0A9EFD;stroke-width:2.0;" x1="74" x2="322" y1="265.2168" y2="265.2168"/><text fill="#0A9EFD" font-family="Roboto" font-size="14" font-weight="bold" lengthAdjust="spacing" textLength="147" x="127.5" y="260.2637">Return token to App</text><polygon fill="#0A9EFD" points="635,308.1934,645,312.1934,635,316.1934,639,312.1934" style="stroke:#0A9EFD;stroke-width:1.0;"/><line style="stroke:#0A9EFD;stroke-width:2.0;" x1="328" x2="641" y1="312.1934" y2="312.1934"/><text fill="#0A9EFD" font-family="Roboto" font-size="14" font-weight="bold" lengthAdjust="spacing" textLength="182" x="396.5" y="290.752">Log in to Signaling using</text><text fill="#0A9EFD" font-family="Roboto" font-size="14" font-weight="bold" lengthAdjust="spacing" textLength="106" x="437" y="307.2402">UID and token.</text><line style="stroke:#0A9EFD;stroke-width:2.0;" x1="647" x2="689" y1="342.6816" y2="342.6816"/><line style="stroke:#0A9EFD;stroke-width:2.0;" x1="689" x2="689" y1="342.6816" y2="355.6816"/><line style="stroke:#0A9EFD;stroke-width:2.0;" x1="648" x2="689" y1="355.6816" y2="355.6816"/><polygon fill="#0A9EFD" points="658,351.6816,648,355.6816,658,359.6816,654,355.6816" style="stroke:#0A9EFD;stroke-width:1.0;"/><text fill="#0A9EFD" font-family="Roboto" font-size="14" font-weight="bold" lengthAdjust="spacing" textLength="133" x="654" y="337.7285">Validate the token</text><polygon fill="#0A9EFD" points="339,382.1699,329,386.1699,339,390.1699,335,386.1699" style="stroke:#0A9EFD;stroke-width:1.0;"/><line style="stroke:#0A9EFD;stroke-width:2.0;" x1="333" x2="646" y1="386.1699" y2="386.1699"/><text fill="#0A9EFD" font-family="Roboto" font-size="14" font-weight="bold" lengthAdjust="spacing" textLength="238" x="368.5" y="381.2168">Log in user, then trigger callback</text><path d="M10,408.1699 L148,408.1699 L148,416.6582 L138,426.6582 L10,426.6582 L10,408.1699 " fill="#EEEEEE" style="stroke:#0A9EFD;stroke-width:1.5;"/><rect fill="none" height="307.3711" style="stroke:#0A9EFD;stroke-width:2.0;" width="789" x="10" y="408.1699"/><text fill="#0A9EFD" font-family="Roboto" font-size="14" font-weight="bold" lengthAdjust="spacing" textLength="93" x="25" y="422.7051">Renew token</text><polygon fill="#0A9EFD" points="339,445.1465,329,449.1465,339,453.1465,335,449.1465" style="stroke:#0A9EFD;stroke-width:1.0;"/><line style="stroke:#0A9EFD;stroke-width:2.0;" x1="333" x2="646" y1="449.1465" y2="449.1465"/><text fill="#0A9EFD" font-family="Roboto" font-size="14" font-weight="bold" lengthAdjust="spacing" textLength="295" x="340" y="444.1934">Trigger event: token privilege will expire</text><polygon fill="#0A9EFD" points="85,492.123,75,496.123,85,500.123,81,496.123" style="stroke:#0A9EFD;stroke-width:1.0;"/><line style="stroke:#0A9EFD;stroke-width:2.0;" x1="79" x2="327" y1="496.123" y2="496.123"/><text fill="#0A9EFD" font-family="Roboto" font-size="14" font-weight="bold" lengthAdjust="spacing" textLength="165" x="118.5" y="474.6816">Request a token using:</text><text fill="#0A9EFD" font-family="Roboto" font-size="14" font-weight="bold" lengthAdjust="spacing" textLength="107" x="150" y="491.1699">App Id, user ID</text><line style="stroke:#0A9EFD;stroke-width:2.0;" x1="74" x2="116" y1="543.0996" y2="543.0996"/><line style="stroke:#0A9EFD;stroke-width:2.0;" x1="116" x2="116" y1="543.0996" y2="556.0996"/><line style="stroke:#0A9EFD;stroke-width:2.0;" x1="75" x2="116" y1="556.0996" y2="556.0996"/><polygon fill="#0A9EFD" points="85,552.0996,75,556.0996,85,560.0996,81,556.0996" style="stroke:#0A9EFD;stroke-width:1.0;"/><text fill="#0A9EFD" font-family="Roboto" font-size="14" font-weight="bold" lengthAdjust="spacing" textLength="240" x="81" y="521.6582">Validate against internal security</text><text fill="#0A9EFD" font-family="Roboto" font-size="14" font-weight="bold" lengthAdjust="spacing" textLength="139" x="134" y="538.1465">and generate token</text><polygon fill="#0A9EFD" points="316,582.5879,326,586.5879,316,590.5879,320,586.5879" style="stroke:#0A9EFD;stroke-width:1.0;"/><line style="stroke:#0A9EFD;stroke-width:2.0;" x1="74" x2="322" y1="586.5879" y2="586.5879"/><text fill="#0A9EFD" font-family="Roboto" font-size="14" font-weight="bold" lengthAdjust="spacing" textLength="147" x="127.5" y="581.6348">Return token to App</text><polygon fill="#0A9EFD" points="339,629.5645,329,633.5645,339,637.5645,335,633.5645" style="stroke:#0A9EFD;stroke-width:1.0;"/><line style="stroke:#0A9EFD;stroke-width:2.0;" x1="333" x2="646" y1="633.5645" y2="633.5645"/><text fill="#0A9EFD" font-family="Roboto" font-size="14" font-weight="bold" lengthAdjust="spacing" textLength="222" x="374" y="612.123">Send token to Signaling with a</text><text fill="#0A9EFD" font-family="Roboto" font-size="14" font-weight="bold" lengthAdjust="spacing" textLength="139" x="418" y="628.6113">call to renew token</text><line style="stroke:#0A9EFD;stroke-width:2.0;" x1="647" x2="689" y1="664.0527" y2="664.0527"/><line style="stroke:#0A9EFD;stroke-width:2.0;" x1="689" x2="689" y1="664.0527" y2="677.0527"/><line style="stroke:#0A9EFD;stroke-width:2.0;" x1="648" x2="689" y1="677.0527" y2="677.0527"/><polygon fill="#0A9EFD" points="658,673.0527,648,677.0527,658,681.0527,654,677.0527" style="stroke:#0A9EFD;stroke-width:1.0;"/><text fill="#0A9EFD" font-family="Roboto" font-size="14" font-weight="bold" lengthAdjust="spacing" textLength="133" x="654" y="659.0996">Validate the token</text><polygon fill="#0A9EFD" points="339,703.541,329,707.541,339,711.541,335,707.541" style="stroke:#0A9EFD;stroke-width:1.0;"/><line style="stroke:#0A9EFD;stroke-width:2.0;" x1="333" x2="646" y1="707.541" y2="707.541"/><text fill="#0A9EFD" font-family="Roboto" font-size="14" font-weight="bold" lengthAdjust="spacing" textLength="116" x="429.5" y="702.5879">Trigger callback</text><!--SRC=[pP1DQzj048Rl-XLJdHFdhaF1a1vKUZ2M6WW4obWQreFNizlLhZ_-VMTLIOd1a6jqrCxxzNnZwMpg2LQhfnFtv1w7_l24nWNyCnnOLfoEjj1lvovGraTlwKWIgOVT5QukbKNXCKJksAD4WB9r1n9eA9meb803jCtjIVdgKW3qVdnTRpP5GQ9sxZAdh7DwUIjgs0XQ5ZEfwdUHMi3Zz-nKGIqS6ID1t1Ci6lWXXeMAmWINFFnqBD3jKOGif24VO5A1Q1n6TZ9Rjaq5M_gRQ8Y04CTbuttr9h3s7kh-GNzGWFgvQ9jPygAXVIw11bbKomeiQ1KOg4k1urNbgFKD2OMnRRQU7COTMuefo1GPNGxxCBIku9SpQfkVtbUErTJwT_qyse_gbShgHRPKotp-foxFcyKrJth89neGs1WTsA6rE-mE6VlCSQlrptTSsab39qLQJIDyu1DRCWHdjXReuZdGrmJzSKj3CyXRrcUEUwtw9XbCVWhtO7nElBt7zny0]--></g></svg>
