<?xml version="1.0" encoding="UTF-8" standalone="no"?><svg xmlns="http://www.w3.org/2000/svg" xmlns:xlink="http://www.w3.org/1999/xlink" contentStyleType="text/css" height="1001px" preserveAspectRatio="none" style="width:721px;height:1001px;" version="1.1" viewBox="0 0 721 1001" width="721px" zoomAndPan="magnify"><defs/><g><rect fill="none" height="999.8457" style="stroke:#0A9EFD;stroke-width:1.0;" width="719" x="0" y="0"/><rect fill="#999999" fill-opacity="0.33333" height="989.8457" style="stroke:#0A9EFD;stroke-width:0.5;" width="343" x="16" y="6"/><text fill="#0A9EFD" font-family="sans-serif" font-size="13" font-weight="bold" lengthAdjust="spacing" textLength="130" x="122.5" y="20.0283">Implemented by you</text><rect fill="#999999" fill-opacity="0.33333" height="989.8457" style="stroke:#0A9EFD;stroke-width:0.5;" width="80" x="551" y="6"/><text fill="#0A9EFD" font-family="sans-serif" font-size="13" font-weight="bold" lengthAdjust="spacing" textLength="38" x="572" y="20.0283">Agora</text><rect fill="#0A9EFD" fill-opacity="0.06667" height="354.8047" style="stroke:#0A9EFD;stroke-width:2.0;" width="705" x="10" y="74.9316"/><rect fill="#0A9EFD" fill-opacity="0.06667" height="187.1875" style="stroke:#0A9EFD;stroke-width:2.0;" width="627" x="10" y="443.7363"/><rect fill="#0A9EFD" fill-opacity="0.06667" height="300.2813" style="stroke:#0A9EFD;stroke-width:2.0;" width="705" x="10" y="644.9238"/><line style="stroke:#0A9EFD;stroke-width:0.5;stroke-dasharray:5.0,5.0;" x1="69" x2="69" y1="57.9316" y2="962.2051"/><line style="stroke:#0A9EFD;stroke-width:0.5;stroke-dasharray:5.0,5.0;" x1="319" x2="319" y1="57.9316" y2="962.2051"/><line style="stroke:#0A9EFD;stroke-width:0.5;stroke-dasharray:5.0,5.0;" x1="591" x2="591" y1="57.9316" y2="962.2051"/><rect fill="none" height="29.6406" rx="2.5" ry="2.5" style="stroke:#0A9EFD;stroke-width:2.0;" width="98" x="20" y="27.291"/><text fill="#0A9EFD" font-family="Arial" font-size="14" lengthAdjust="spacing" textLength="84" x="27" y="46.9648">Token server</text><rect fill="none" height="29.6406" rx="2.5" ry="2.5" style="stroke:#0A9EFD;stroke-width:2.0;" width="98" x="20" y="961.2051"/><text fill="#0A9EFD" font-family="Arial" font-size="14" lengthAdjust="spacing" textLength="84" x="27" y="980.8789">Token server</text><rect fill="none" height="29.6406" rx="2.5" ry="2.5" style="stroke:#0A9EFD;stroke-width:2.0;" width="72" x="283" y="27.291"/><text fill="#0A9EFD" font-family="Arial" font-size="14" lengthAdjust="spacing" textLength="58" x="290" y="46.9648">Your app</text><rect fill="none" height="29.6406" rx="2.5" ry="2.5" style="stroke:#0A9EFD;stroke-width:2.0;" width="72" x="283" y="961.2051"/><text fill="#0A9EFD" font-family="Arial" font-size="14" lengthAdjust="spacing" textLength="58" x="290" y="980.8789">Your app</text><rect fill="none" height="29.6406" rx="2.5" ry="2.5" style="stroke:#0A9EFD;stroke-width:2.0;" width="72" x="555" y="27.291"/><text fill="#0A9EFD" font-family="Arial" font-size="14" lengthAdjust="spacing" textLength="58" x="562" y="46.9648">Signaling</text><rect fill="none" height="29.6406" rx="2.5" ry="2.5" style="stroke:#0A9EFD;stroke-width:2.0;" width="72" x="555" y="961.2051"/><text fill="#0A9EFD" font-family="Arial" font-size="14" lengthAdjust="spacing" textLength="58" x="562" y="980.8789">Signaling</text><path d="M10,74.9316 L282,74.9316 L282,81.4551 L272,91.4551 L10,91.4551 L10,74.9316 " fill="#EEEEEE" style="stroke:#0A9EFD;stroke-width:1.5;"/><rect fill="none" height="354.8047" style="stroke:#0A9EFD;stroke-width:2.0;" width="705" x="10" y="74.9316"/><text fill="#000000" font-family="Arial" font-size="13" lengthAdjust="spacing" textLength="227" x="25" y="87.7002">Log in to Signaling using authentication</text><line style="stroke:#0A9EFD;stroke-width:2.0;" x1="69" x2="111" y1="126.502" y2="126.502"/><line style="stroke:#0A9EFD;stroke-width:2.0;" x1="111" x2="111" y1="126.502" y2="139.502"/><line style="stroke:#0A9EFD;stroke-width:2.0;" x1="70" x2="111" y1="139.502" y2="139.502"/><polygon fill="#0A9EFD" points="80,135.502,70,139.502,80,143.502,76,139.502" style="stroke:#0A9EFD;stroke-width:1.0;"/><text fill="#0A9EFD" font-family="Arial" font-size="13" lengthAdjust="spacing" textLength="192" x="76" y="107.2236">Configure your token server using</text><text fill="#0A9EFD" font-family="Arial" font-size="13" lengthAdjust="spacing" textLength="180" x="84" y="121.7471">your App Id and App Certificate</text><polygon fill="#0A9EFD" points="80,164.0254,70,168.0254,80,172.0254,76,168.0254" style="stroke:#0A9EFD;stroke-width:1.0;"/><line style="stroke:#0A9EFD;stroke-width:2.0;" x1="74" x2="318" y1="168.0254" y2="168.0254"/><text fill="#0A9EFD" font-family="Arial" font-size="13" lengthAdjust="spacing" textLength="222" x="83" y="163.2705">Request an RTM token using a user Id</text><line style="stroke:#0A9EFD;stroke-width:2.0;" x1="69" x2="111" y1="211.0723" y2="211.0723"/><line style="stroke:#0A9EFD;stroke-width:2.0;" x1="111" x2="111" y1="211.0723" y2="224.0723"/><line style="stroke:#0A9EFD;stroke-width:2.0;" x1="70" x2="111" y1="224.0723" y2="224.0723"/><polygon fill="#0A9EFD" points="80,220.0723,70,224.0723,80,228.0723,76,224.0723" style="stroke:#0A9EFD;stroke-width:1.0;"/><text fill="#0A9EFD" font-family="Arial" font-size="13" lengthAdjust="spacing" textLength="236" x="76" y="191.7939">Validate request against internal security</text><text fill="#0A9EFD" font-family="Arial" font-size="13" lengthAdjust="spacing" textLength="122" x="135" y="206.3174">and generate a token</text><polygon fill="#0A9EFD" points="307,248.5957,317,252.5957,307,256.5957,311,252.5957" style="stroke:#0A9EFD;stroke-width:1.0;"/><line style="stroke:#0A9EFD;stroke-width:2.0;" x1="69" x2="313" y1="252.5957" y2="252.5957"/><text fill="#0A9EFD" font-family="Arial" font-size="13" lengthAdjust="spacing" textLength="147" x="120.5" y="247.8408">Return RTM token to App</text><line style="stroke:#0A9EFD;stroke-width:2.0;" x1="319" x2="361" y1="295.6426" y2="295.6426"/><line style="stroke:#0A9EFD;stroke-width:2.0;" x1="361" x2="361" y1="295.6426" y2="308.6426"/><line style="stroke:#0A9EFD;stroke-width:2.0;" x1="320" x2="361" y1="308.6426" y2="308.6426"/><polygon fill="#0A9EFD" points="330,304.6426,320,308.6426,330,312.6426,326,308.6426" style="stroke:#0A9EFD;stroke-width:1.0;"/><text fill="#0A9EFD" font-family="Arial" font-size="13" lengthAdjust="spacing" textLength="196" x="326" y="276.3643">Initiate the Signaling Engine using</text><text fill="#0A9EFD" font-family="Arial" font-size="13" lengthAdjust="spacing" textLength="59" x="396.5" y="290.8877">the App Id</text><polygon fill="#0A9EFD" points="579,347.6895,589,351.6895,579,355.6895,583,351.6895" style="stroke:#0A9EFD;stroke-width:1.0;"/><line style="stroke:#0A9EFD;stroke-width:2.0;" x1="319" x2="585" y1="351.6895" y2="351.6895"/><text fill="#0A9EFD" font-family="Arial" font-size="13" lengthAdjust="spacing" textLength="142" x="384" y="332.4111">Log in to Signaling using</text><text fill="#0A9EFD" font-family="Arial" font-size="13" lengthAdjust="spacing" textLength="175" x="369.5" y="346.9346">the user Id and the RTM token</text><line style="stroke:#0A9EFD;stroke-width:2.0;" x1="591" x2="633" y1="380.2129" y2="380.2129"/><line style="stroke:#0A9EFD;stroke-width:2.0;" x1="633" x2="633" y1="380.2129" y2="393.2129"/><line style="stroke:#0A9EFD;stroke-width:2.0;" x1="592" x2="633" y1="393.2129" y2="393.2129"/><polygon fill="#0A9EFD" points="602,389.2129,592,393.2129,602,397.2129,598,393.2129" style="stroke:#0A9EFD;stroke-width:1.0;"/><text fill="#0A9EFD" font-family="Arial" font-size="13" lengthAdjust="spacing" textLength="105" x="598" y="375.458">Validate the token</text><polygon fill="#0A9EFD" points="330,417.7363,320,421.7363,330,425.7363,326,421.7363" style="stroke:#0A9EFD;stroke-width:1.0;"/><line style="stroke:#0A9EFD;stroke-width:2.0;" x1="324" x2="590" y1="421.7363" y2="421.7363"/><text fill="#0A9EFD" font-family="Arial" font-size="13" lengthAdjust="spacing" textLength="189" x="360.5" y="416.9814">Log in user, then trigger callback</text><path d="M10,443.7363 L182,443.7363 L182,450.2598 L172,460.2598 L10,460.2598 L10,443.7363 " fill="#EEEEEE" style="stroke:#0A9EFD;stroke-width:1.5;"/><rect fill="none" height="187.1875" style="stroke:#0A9EFD;stroke-width:2.0;" width="627" x="10" y="443.7363"/><text fill="#000000" font-family="Arial" font-size="13" lengthAdjust="spacing" textLength="127" x="25" y="456.5049">Join a stream channel</text><polygon fill="#0A9EFD" points="80,491.3066,70,495.3066,80,499.3066,76,495.3066" style="stroke:#0A9EFD;stroke-width:1.0;"/><line style="stroke:#0A9EFD;stroke-width:2.0;" x1="74" x2="318" y1="495.3066" y2="495.3066"/><text fill="#0A9EFD" font-family="Arial" font-size="13" lengthAdjust="spacing" textLength="166" x="111" y="476.0283">Request an RTC token using</text><text fill="#0A9EFD" font-family="Arial" font-size="13" lengthAdjust="spacing" textLength="219" x="86.5" y="490.5518">a user Id, and a stream channel name</text><line style="stroke:#0A9EFD;stroke-width:2.0;" x1="69" x2="111" y1="538.3535" y2="538.3535"/><line style="stroke:#0A9EFD;stroke-width:2.0;" x1="111" x2="111" y1="538.3535" y2="551.3535"/><line style="stroke:#0A9EFD;stroke-width:2.0;" x1="70" x2="111" y1="551.3535" y2="551.3535"/><polygon fill="#0A9EFD" points="80,547.3535,70,551.3535,80,555.3535,76,551.3535" style="stroke:#0A9EFD;stroke-width:1.0;"/><text fill="#0A9EFD" font-family="Arial" font-size="13" lengthAdjust="spacing" textLength="236" x="76" y="519.0752">Validate request against internal security</text><text fill="#0A9EFD" font-family="Arial" font-size="13" lengthAdjust="spacing" textLength="111" x="140.5" y="533.5986">and generate token</text><polygon fill="#0A9EFD" points="307,575.877,317,579.877,307,583.877,311,579.877" style="stroke:#0A9EFD;stroke-width:1.0;"/><line style="stroke:#0A9EFD;stroke-width:2.0;" x1="69" x2="313" y1="579.877" y2="579.877"/><text fill="#0A9EFD" font-family="Arial" font-size="13" lengthAdjust="spacing" textLength="145" x="121.5" y="575.1221">Return RTC token to App</text><polygon fill="#0A9EFD" points="579,618.9238,589,622.9238,579,626.9238,583,622.9238" style="stroke:#0A9EFD;stroke-width:1.0;"/><line style="stroke:#0A9EFD;stroke-width:2.0;" x1="319" x2="585" y1="622.9238" y2="622.9238"/><text fill="#0A9EFD" font-family="Arial" font-size="13" lengthAdjust="spacing" textLength="162" x="374" y="603.6455">Join a stream channel using</text><text fill="#0A9EFD" font-family="Arial" font-size="13" lengthAdjust="spacing" textLength="244" x="335" y="618.1689">channel name, user Id, and the RTC token</text><path d="M10,644.9238 L130,644.9238 L130,651.4473 L120,661.4473 L10,661.4473 L10,644.9238 " fill="#EEEEEE" style="stroke:#0A9EFD;stroke-width:1.5;"/><rect fill="none" height="300.2813" style="stroke:#0A9EFD;stroke-width:2.0;" width="705" x="10" y="644.9238"/><text fill="#000000" font-family="Arial" font-size="13" lengthAdjust="spacing" textLength="75" x="25" y="657.6924">Renew token</text><polygon fill="#0A9EFD" points="330,692.4941,320,696.4941,330,700.4941,326,696.4941" style="stroke:#0A9EFD;stroke-width:1.0;"/><line style="stroke:#0A9EFD;stroke-width:2.0;" x1="324" x2="590" y1="696.4941" y2="696.4941"/><text fill="#0A9EFD" font-family="Arial" font-size="13" lengthAdjust="spacing" textLength="77" x="416.5" y="677.2158">Trigger event:</text><text fill="#0A9EFD" font-family="Arial" font-size="13" lengthAdjust="spacing" textLength="143" x="385.5" y="691.7393">token privilege will expire</text><polygon fill="#0A9EFD" points="80,735.541,70,739.541,80,743.541,76,739.541" style="stroke:#0A9EFD;stroke-width:1.0;"/><line style="stroke:#0A9EFD;stroke-width:2.0;" x1="74" x2="318" y1="739.541" y2="739.541"/><text fill="#0A9EFD" font-family="Arial" font-size="13" lengthAdjust="spacing" textLength="168" x="110" y="720.2627">Request an RTM token using</text><text fill="#0A9EFD" font-family="Arial" font-size="13" lengthAdjust="spacing" textLength="63" x="164.5" y="734.7861">the user ID</text><line style="stroke:#0A9EFD;stroke-width:2.0;" x1="69" x2="111" y1="782.5879" y2="782.5879"/><line style="stroke:#0A9EFD;stroke-width:2.0;" x1="111" x2="111" y1="782.5879" y2="795.5879"/><line style="stroke:#0A9EFD;stroke-width:2.0;" x1="70" x2="111" y1="795.5879" y2="795.5879"/><polygon fill="#0A9EFD" points="80,791.5879,70,795.5879,80,799.5879,76,795.5879" style="stroke:#0A9EFD;stroke-width:1.0;"/><text fill="#0A9EFD" font-family="Arial" font-size="13" lengthAdjust="spacing" textLength="236" x="76" y="763.3096">Validate request against internal security</text><text fill="#0A9EFD" font-family="Arial" font-size="13" lengthAdjust="spacing" textLength="122" x="135" y="777.833">and generate a token</text><polygon fill="#0A9EFD" points="307,820.1113,317,824.1113,307,828.1113,311,824.1113" style="stroke:#0A9EFD;stroke-width:1.0;"/><line style="stroke:#0A9EFD;stroke-width:2.0;" x1="69" x2="313" y1="824.1113" y2="824.1113"/><text fill="#0A9EFD" font-family="Arial" font-size="13" lengthAdjust="spacing" textLength="147" x="120.5" y="819.3564">Return RTM token to App</text><polygon fill="#0A9EFD" points="579,863.1582,589,867.1582,579,871.1582,583,867.1582" style="stroke:#0A9EFD;stroke-width:1.0;"/><line style="stroke:#0A9EFD;stroke-width:2.0;" x1="319" x2="585" y1="867.1582" y2="867.1582"/><text fill="#0A9EFD" font-family="Arial" font-size="13" lengthAdjust="spacing" textLength="207" x="349.5" y="847.8799">Send RTM token to Signaling with a</text><text fill="#0A9EFD" font-family="Arial" font-size="13" lengthAdjust="spacing" textLength="109" x="400.5" y="862.4033">call to renew token</text><line style="stroke:#0A9EFD;stroke-width:2.0;" x1="591" x2="633" y1="895.6816" y2="895.6816"/><line style="stroke:#0A9EFD;stroke-width:2.0;" x1="633" x2="633" y1="895.6816" y2="908.6816"/><line style="stroke:#0A9EFD;stroke-width:2.0;" x1="592" x2="633" y1="908.6816" y2="908.6816"/><polygon fill="#0A9EFD" points="602,904.6816,592,908.6816,602,912.6816,598,908.6816" style="stroke:#0A9EFD;stroke-width:1.0;"/><text fill="#0A9EFD" font-family="Arial" font-size="13" lengthAdjust="spacing" textLength="105" x="598" y="890.9268">Validate the token</text><polygon fill="#0A9EFD" points="330,933.2051,320,937.2051,330,941.2051,326,937.2051" style="stroke:#0A9EFD;stroke-width:1.0;"/><line style="stroke:#0A9EFD;stroke-width:2.0;" x1="324" x2="590" y1="937.2051" y2="937.2051"/><text fill="#0A9EFD" font-family="Arial" font-size="13" lengthAdjust="spacing" textLength="91" x="409.5" y="932.4502">Trigger callback</text><!--SRC=[lPHDYzj038Rl_XMgpqds7aeXf3sux498JA6mK2QsTY9YQzpnJ3x-VJN-YhqaR0-bbpX1qgj7hnH_8iuAdoCi5aydoj7Cw_pufBInwbTz95wGBuieYlRc0d5ILWMMo0vps5_XQdmSHPMoZZAg53k0E3L7PAZHdj36e6f8TzEK-AVn5bHLDT7LPXD5o29dBdsNLMWUJujsf5aLnBghIcv5sXfVmRFHG0pEm90AlWwVohk385Ec71cEqXtClmZL4jQ6tqXxYs4GAwKtyhRqbTl8ggeWoK59n_1rZGBs5lGm4lvURek_FTPEqc2RldHo7O8yHJJ9Hzr_26Ck4c3xEgs8vKbYhvK912NpbjnLC49hZOms5AXMkzCIWj3RUJlkApu8Qe_Nv2HCZaAzs34owHjhOXm63i5stbjnidniRrVIpTU0Xjy3YQWaWyemSqXv5zuCJOBMBAI8j2MjHJbJHR5NsJ5ilT_uToEv2cfdKPMG7HGp5WyNiXul93ZQ8yyQvlSwmAh4VxAjnxjQFzYL67Ltje5zp3YRpj5wtocFtTeAp_cEvsddC9xaFx8CssoOAaidAb0ZdAae02yLsR-yzib5VFt_5v_0vtcRimllY4d6xNZFv0wY-yhXj4B8tZFeuvjDxrte7m00]--></g></svg>