<?xml version="1.0" encoding="UTF-8" standalone="no"?><svg xmlns="http://www.w3.org/2000/svg" xmlns:xlink="http://www.w3.org/1999/xlink" contentStyleType="text/css" height="1026px" preserveAspectRatio="none" style="width:863px;height:1026px;" version="1.1" viewBox="0 0 863 1026" width="863px" zoomAndPan="magnify"><defs/><g><rect fill="none" height="1024.8516" style="stroke:#0A9EFD;stroke-width:1.0;" width="861" x="0" y="0"/><rect fill="#F3F3F3" height="1014.8516" style="stroke:#0A9EFD;stroke-width:0.5;" width="418" x="16" y="6"/><text fill="#000000" font-family="sans-serif" font-size="13" font-weight="bold" lengthAdjust="spacing" textLength="130" x="160" y="19.4951">Implemented by you</text><rect fill="#F3F3F3" height="1014.8516" style="stroke:#0A9EFD;stroke-width:0.5;" width="87" x="667.5" y="6"/><text fill="#000000" font-family="sans-serif" font-size="13" font-weight="bold" lengthAdjust="spacing" textLength="38" x="692" y="19.4951">Agora</text><rect fill="#FFFFFF" height="332.7031" style="stroke:#0A9EFD;stroke-width:2.0;" width="847" x="10" y="75.9609"/><rect fill="#FFFFFF" height="211.875" style="stroke:#0A9EFD;stroke-width:2.0;" width="750.5" x="10" y="422.6641"/><rect fill="#FFFFFF" height="319.7031" style="stroke:#0A9EFD;stroke-width:2.0;" width="847" x="10" y="648.5391"/><line style="stroke:#0A9EFD;stroke-width:0.5;stroke-dasharray:5.0,5.0;" x1="74" x2="74" y1="58.9609" y2="985.2422"/><line style="stroke:#0A9EFD;stroke-width:0.5;stroke-dasharray:5.0,5.0;" x1="391" x2="391" y1="58.9609" y2="985.2422"/><line style="stroke:#0A9EFD;stroke-width:0.5;stroke-dasharray:5.0,5.0;" x1="710.5" x2="710.5" y1="58.9609" y2="985.2422"/><rect fill="#FFFFFF" height="31.6094" rx="2.5" ry="2.5" style="stroke:#0A9EFD;stroke-width:2.0;" width="108" x="20" y="26.3516"/><text fill="#0A9EFD" font-family="Roboto" font-size="14" font-weight="bold" lengthAdjust="spacing" textLength="94" x="27" y="47.8848">Token server</text><rect fill="#FFFFFF" height="31.6094" rx="2.5" ry="2.5" style="stroke:#0A9EFD;stroke-width:2.0;" width="108" x="20" y="984.2422"/><text fill="#0A9EFD" font-family="Roboto" font-size="14" font-weight="bold" lengthAdjust="spacing" textLength="94" x="27" y="1005.7754">Token server</text><rect fill="#FFFFFF" height="31.6094" rx="2.5" ry="2.5" style="stroke:#0A9EFD;stroke-width:2.0;" width="78" x="352" y="26.3516"/><text fill="#0A9EFD" font-family="Roboto" font-size="14" font-weight="bold" lengthAdjust="spacing" textLength="64" x="359" y="47.8848">Your app</text><rect fill="#FFFFFF" height="31.6094" rx="2.5" ry="2.5" style="stroke:#0A9EFD;stroke-width:2.0;" width="78" x="352" y="984.2422"/><text fill="#0A9EFD" font-family="Roboto" font-size="14" font-weight="bold" lengthAdjust="spacing" textLength="64" x="359" y="1005.7754">Your app</text><rect fill="#FFFFFF" height="31.6094" rx="2.5" ry="2.5" style="stroke:#0A9EFD;stroke-width:2.0;" width="79" x="671.5" y="26.3516"/><text fill="#0A9EFD" font-family="Roboto" font-size="14" font-weight="bold" lengthAdjust="spacing" textLength="65" x="678.5" y="47.8848">Signaling</text><rect fill="#FFFFFF" height="31.6094" rx="2.5" ry="2.5" style="stroke:#0A9EFD;stroke-width:2.0;" width="79" x="671.5" y="984.2422"/><text fill="#0A9EFD" font-family="Roboto" font-size="14" font-weight="bold" lengthAdjust="spacing" textLength="65" x="678.5" y="1005.7754">Signaling</text><path d="M10,75.9609 L333,75.9609 L333,85.5703 L323,95.5703 L10,95.5703 L10,75.9609 " fill="#EEEEEE" style="stroke:#0A9EFD;stroke-width:1.5;"/><rect fill="none" height="332.7031" style="stroke:#0A9EFD;stroke-width:2.0;" width="847" x="10" y="75.9609"/><text fill="#0A9EFD" font-family="Roboto" font-size="14" font-weight="bold" lengthAdjust="spacing" textLength="278" x="25" y="91.4941">Log in to Signaling using authentication</text><polygon fill="#0A9EFD" points="85,132.7891,75,136.7891,85,140.7891,81,136.7891" style="stroke:#0A9EFD;stroke-width:1.0;"/><line style="stroke:#0A9EFD;stroke-width:2.0;" x1="79" x2="390" y1="136.7891" y2="136.7891"/><text fill="#0A9EFD" font-family="Roboto" font-size="14" font-weight="bold" lengthAdjust="spacing" textLength="206" x="129.5" y="114.1035">Request an RTM token using:</text><text fill="#0A9EFD" font-family="Roboto" font-size="14" font-weight="bold" lengthAdjust="spacing" textLength="101" x="184" y="131.7129">App Id, user Id</text><line style="stroke:#0A9EFD;stroke-width:2.0;" x1="74" x2="116" y1="186.0078" y2="186.0078"/><line style="stroke:#0A9EFD;stroke-width:2.0;" x1="116" x2="116" y1="186.0078" y2="199.0078"/><line style="stroke:#0A9EFD;stroke-width:2.0;" x1="75" x2="116" y1="199.0078" y2="199.0078"/><polygon fill="#0A9EFD" points="85,195.0078,75,199.0078,85,203.0078,81,199.0078" style="stroke:#0A9EFD;stroke-width:1.0;"/><text fill="#0A9EFD" font-family="Roboto" font-size="14" font-weight="bold" lengthAdjust="spacing" textLength="288" x="81" y="163.3223">Validate request against internal security</text><text fill="#0A9EFD" font-family="Roboto" font-size="14" font-weight="bold" lengthAdjust="spacing" textLength="138" x="158" y="180.9316">and generate token</text><polygon fill="#0A9EFD" points="379,226.6172,389,230.6172,379,234.6172,383,230.6172" style="stroke:#0A9EFD;stroke-width:1.0;"/><line style="stroke:#0A9EFD;stroke-width:2.0;" x1="74" x2="385" y1="230.6172" y2="230.6172"/><text fill="#0A9EFD" font-family="Roboto" font-size="14" font-weight="bold" lengthAdjust="spacing" textLength="176" x="144.5" y="225.541">Return RTM token to App</text><line style="stroke:#0A9EFD;stroke-width:2.0;" x1="391" x2="433" y1="279.8359" y2="279.8359"/><line style="stroke:#0A9EFD;stroke-width:2.0;" x1="433" x2="433" y1="279.8359" y2="292.8359"/><line style="stroke:#0A9EFD;stroke-width:2.0;" x1="392" x2="433" y1="292.8359" y2="292.8359"/><polygon fill="#0A9EFD" points="402,288.8359,392,292.8359,402,296.8359,398,292.8359" style="stroke:#0A9EFD;stroke-width:1.0;"/><text fill="#0A9EFD" font-family="Roboto" font-size="14" font-weight="bold" lengthAdjust="spacing" textLength="240" x="398.5" y="257.1504">Initiate the Signaling Engine using</text><text fill="#0A9EFD" font-family="Roboto" font-size="14" font-weight="bold" lengthAdjust="spacing" textLength="237" x="402" y="274.7598">App Id, user Id and the RTM token</text><polygon fill="#0A9EFD" points="699,320.4453,709,324.4453,699,328.4453,703,324.4453" style="stroke:#0A9EFD;stroke-width:1.0;"/><line style="stroke:#0A9EFD;stroke-width:2.0;" x1="391" x2="705" y1="324.4453" y2="324.4453"/><text fill="#0A9EFD" font-family="Roboto" font-size="14" font-weight="bold" lengthAdjust="spacing" textLength="130" x="486" y="319.3691">Log in to Signaling</text><line style="stroke:#0A9EFD;stroke-width:2.0;" x1="711" x2="753" y1="356.0547" y2="356.0547"/><line style="stroke:#0A9EFD;stroke-width:2.0;" x1="753" x2="753" y1="356.0547" y2="369.0547"/><line style="stroke:#0A9EFD;stroke-width:2.0;" x1="712" x2="753" y1="369.0547" y2="369.0547"/><polygon fill="#0A9EFD" points="722,365.0547,712,369.0547,722,373.0547,718,369.0547" style="stroke:#0A9EFD;stroke-width:1.0;"/><text fill="#0A9EFD" font-family="Roboto" font-size="14" font-weight="bold" lengthAdjust="spacing" textLength="127" x="718" y="350.9785">Validate the token</text><polygon fill="#0A9EFD" points="402,396.6641,392,400.6641,402,404.6641,398,400.6641" style="stroke:#0A9EFD;stroke-width:1.0;"/><line style="stroke:#0A9EFD;stroke-width:2.0;" x1="396" x2="710" y1="400.6641" y2="400.6641"/><text fill="#0A9EFD" font-family="Roboto" font-size="14" font-weight="bold" lengthAdjust="spacing" textLength="232" x="435" y="395.5879">Log in user, then trigger callback</text><path d="M10,422.6641 L209,422.6641 L209,432.2734 L199,442.2734 L10,442.2734 L10,422.6641 " fill="#EEEEEE" style="stroke:#0A9EFD;stroke-width:1.5;"/><rect fill="none" height="211.875" style="stroke:#0A9EFD;stroke-width:2.0;" width="750.5" x="10" y="422.6641"/><text fill="#0A9EFD" font-family="Roboto" font-size="14" font-weight="bold" lengthAdjust="spacing" textLength="154" x="25" y="438.1973">Join a stream channel</text><polygon fill="#0A9EFD" points="85,479.4922,75,483.4922,85,487.4922,81,483.4922" style="stroke:#0A9EFD;stroke-width:1.0;"/><line style="stroke:#0A9EFD;stroke-width:2.0;" x1="79" x2="390" y1="483.4922" y2="483.4922"/><text fill="#0A9EFD" font-family="Roboto" font-size="14" font-weight="bold" lengthAdjust="spacing" textLength="203" x="131" y="460.8066">Request an RTC token using:</text><text fill="#0A9EFD" font-family="Roboto" font-size="14" font-weight="bold" lengthAdjust="spacing" textLength="289" x="90" y="478.416">App Id, user Id, and stream channel name</text><line style="stroke:#0A9EFD;stroke-width:2.0;" x1="74" x2="116" y1="532.7109" y2="532.7109"/><line style="stroke:#0A9EFD;stroke-width:2.0;" x1="116" x2="116" y1="532.7109" y2="545.7109"/><line style="stroke:#0A9EFD;stroke-width:2.0;" x1="75" x2="116" y1="545.7109" y2="545.7109"/><polygon fill="#0A9EFD" points="85,541.7109,75,545.7109,85,549.7109,81,545.7109" style="stroke:#0A9EFD;stroke-width:1.0;"/><text fill="#0A9EFD" font-family="Roboto" font-size="14" font-weight="bold" lengthAdjust="spacing" textLength="288" x="81" y="510.0254">Validate request against internal security</text><text fill="#0A9EFD" font-family="Roboto" font-size="14" font-weight="bold" lengthAdjust="spacing" textLength="138" x="158" y="527.6348">and generate token</text><polygon fill="#0A9EFD" points="379,573.3203,389,577.3203,379,581.3203,383,577.3203" style="stroke:#0A9EFD;stroke-width:1.0;"/><line style="stroke:#0A9EFD;stroke-width:2.0;" x1="74" x2="385" y1="577.3203" y2="577.3203"/><text fill="#0A9EFD" font-family="Roboto" font-size="14" font-weight="bold" lengthAdjust="spacing" textLength="173" x="146" y="572.2441">Return RTC token to App</text><polygon fill="#0A9EFD" points="699,622.5391,709,626.5391,699,630.5391,703,626.5391" style="stroke:#0A9EFD;stroke-width:1.0;"/><line style="stroke:#0A9EFD;stroke-width:2.0;" x1="391" x2="705" y1="626.5391" y2="626.5391"/><text fill="#0A9EFD" font-family="Roboto" font-size="14" font-weight="bold" lengthAdjust="spacing" textLength="197" x="452.5" y="603.8535">Join a stream channel using</text><text fill="#0A9EFD" font-family="Roboto" font-size="14" font-weight="bold" lengthAdjust="spacing" textLength="292" x="407" y="621.4629">channel name, user Id, and the RTC token</text><path d="M10,648.5391 L147,648.5391 L147,658.1484 L137,668.1484 L10,668.1484 L10,648.5391 " fill="#EEEEEE" style="stroke:#0A9EFD;stroke-width:1.5;"/><rect fill="none" height="319.7031" style="stroke:#0A9EFD;stroke-width:2.0;" width="847" x="10" y="648.5391"/><text fill="#0A9EFD" font-family="Roboto" font-size="14" font-weight="bold" lengthAdjust="spacing" textLength="92" x="25" y="664.0723">Renew token</text><polygon fill="#0A9EFD" points="402,687.7578,392,691.7578,402,695.7578,398,691.7578" style="stroke:#0A9EFD;stroke-width:1.0;"/><line style="stroke:#0A9EFD;stroke-width:2.0;" x1="396" x2="710" y1="691.7578" y2="691.7578"/><text fill="#0A9EFD" font-family="Roboto" font-size="14" font-weight="bold" lengthAdjust="spacing" textLength="287" x="407.5" y="686.6816">Trigger event: token privilege will expire</text><polygon fill="#0A9EFD" points="85,736.9766,75,740.9766,85,744.9766,81,740.9766" style="stroke:#0A9EFD;stroke-width:1.0;"/><line style="stroke:#0A9EFD;stroke-width:2.0;" x1="79" x2="390" y1="740.9766" y2="740.9766"/><text fill="#0A9EFD" font-family="Roboto" font-size="14" font-weight="bold" lengthAdjust="spacing" textLength="206" x="129.5" y="718.291">Request an RTM token using:</text><text fill="#0A9EFD" font-family="Roboto" font-size="14" font-weight="bold" lengthAdjust="spacing" textLength="102" x="183.5" y="735.9004">App Id, user ID</text><line style="stroke:#0A9EFD;stroke-width:2.0;" x1="74" x2="116" y1="790.1953" y2="790.1953"/><line style="stroke:#0A9EFD;stroke-width:2.0;" x1="116" x2="116" y1="790.1953" y2="803.1953"/><line style="stroke:#0A9EFD;stroke-width:2.0;" x1="75" x2="116" y1="803.1953" y2="803.1953"/><polygon fill="#0A9EFD" points="85,799.1953,75,803.1953,85,807.1953,81,803.1953" style="stroke:#0A9EFD;stroke-width:1.0;"/><text fill="#0A9EFD" font-family="Roboto" font-size="14" font-weight="bold" lengthAdjust="spacing" textLength="288" x="81" y="767.5098">Validate request against internal security</text><text fill="#0A9EFD" font-family="Roboto" font-size="14" font-weight="bold" lengthAdjust="spacing" textLength="138" x="158" y="785.1191">and generate token</text><polygon fill="#0A9EFD" points="379,830.8047,389,834.8047,379,838.8047,383,834.8047" style="stroke:#0A9EFD;stroke-width:1.0;"/><line style="stroke:#0A9EFD;stroke-width:2.0;" x1="74" x2="385" y1="834.8047" y2="834.8047"/><text fill="#0A9EFD" font-family="Roboto" font-size="14" font-weight="bold" lengthAdjust="spacing" textLength="176" x="144.5" y="829.7285">Return RTM token to App</text><polygon fill="#0A9EFD" points="699,880.0234,709,884.0234,699,888.0234,703,884.0234" style="stroke:#0A9EFD;stroke-width:1.0;"/><line style="stroke:#0A9EFD;stroke-width:2.0;" x1="391" x2="705" y1="884.0234" y2="884.0234"/><text fill="#0A9EFD" font-family="Roboto" font-size="14" font-weight="bold" lengthAdjust="spacing" textLength="247" x="425.5" y="861.3379">Send RTM token to Signaling with a</text><text fill="#0A9EFD" font-family="Roboto" font-size="14" font-weight="bold" lengthAdjust="spacing" textLength="134" x="484" y="878.9473">call to renew token</text><line style="stroke:#0A9EFD;stroke-width:2.0;" x1="711" x2="753" y1="915.6328" y2="915.6328"/><line style="stroke:#0A9EFD;stroke-width:2.0;" x1="753" x2="753" y1="915.6328" y2="928.6328"/><line style="stroke:#0A9EFD;stroke-width:2.0;" x1="712" x2="753" y1="928.6328" y2="928.6328"/><polygon fill="#0A9EFD" points="722,924.6328,712,928.6328,722,932.6328,718,928.6328" style="stroke:#0A9EFD;stroke-width:1.0;"/><text fill="#0A9EFD" font-family="Roboto" font-size="14" font-weight="bold" lengthAdjust="spacing" textLength="127" x="718" y="910.5566">Validate the token</text><polygon fill="#0A9EFD" points="402,956.2422,392,960.2422,402,964.2422,398,960.2422" style="stroke:#0A9EFD;stroke-width:1.0;"/><line style="stroke:#0A9EFD;stroke-width:2.0;" x1="396" x2="710" y1="960.2422" y2="960.2422"/><text fill="#0A9EFD" font-family="Roboto" font-size="14" font-weight="bold" lengthAdjust="spacing" textLength="112" x="495" y="955.166">Trigger callback</text><!--SRC=[lLFRYjj037ttLwX-plO3GYc4RHzSMbWIKoWi5CKH4v6nPZgUoUNlgt5i9scpB1IsBt6mT2uwaj-nD3Pj2D2uW3-x7SjxJgqjYcBjZb1MhRVKaaJQmFe49vVAel0O8ZViKI90MRiT2NGKzXHAm0xgrMrB-SEb0EXzNrqyFHK5YTAvuwYooEBbBMZ5Hj2oc05LNK0ckEJXgpF00j71r0gfox-OubOjSuEHdHIg20yVrTOSblGhKHS11PRrDyLcwpre_Yomy1wgpKnVKD0_HRqQST-LVeEH88m41bdqoPfCK76Tlqc1uqbfK7qQ4WePq4iCJ6eaMuWfNClh02eykknxAk78FNfBLzDz5iD2Pxz_s-rrCs2Yld1MytjnQRsQwjE8cMA4LvEb0PwrPhb5cG8ReyeDMhl6PfVtC-xcYzDUX2u6mXQQBOgGVN4HZwyiOjQFTai6WYszyOOUNzYGfdLtm6aprnx_cEAye87vEhAb-ZdS2RuUOgQzdlHySEG3xzcI8JYmjK17pu7-zT0__Uz3h-33mxbdbR_fcuxBjHyuRZNYPya7balXNaAlNsvzxqv_0m00]--></g></svg>