<?xml version="1.0" encoding="us-ascii" standalone="no"?><svg xmlns="http://www.w3.org/2000/svg" xmlns:xlink="http://www.w3.org/1999/xlink" contentStyleType="text/css" height="911px" preserveAspectRatio="none" style="width:721px;height:911px;" version="1.1" viewBox="0 0 721 911" width="721px" zoomAndPan="magnify"><defs/><g><rect fill="none" height="909.2261" style="stroke:#0A9EFD;stroke-width:1.0;" width="719" x="0" y="0"/><rect fill="#999999" fill-opacity="0.33333" height="899.2261" style="stroke:#0A9EFD;stroke-width:0.5;" width="350" x="47" y="6"/><text fill="#0A9EFD" font-family="sans-serif" font-size="13" font-weight="bold" lengthAdjust="spacing" textLength="140" x="152" y="18.5684">Implemented by you</text><rect fill="#999999" fill-opacity="0.33333" height="899.2261" style="stroke:#0A9EFD;stroke-width:0.5;" width="287.5" x="427.5" y="6"/><text fill="#0A9EFD" font-family="sans-serif" font-size="13" font-weight="bold" lengthAdjust="spacing" textLength="126" x="508.25" y="18.5684">Provided by Agora</text><rect fill="#0A9EFD" fill-opacity="0.06667" height="247.4873" style="stroke:#0A9EFD;stroke-width:2.0;" width="420" x="112.5" y="238.2041"/><line style="stroke:#0A9EFD;stroke-width:0.5;stroke-dasharray:5.0,5.0;" x1="23" x2="23" y1="106.4092" y2="821.1274"/><line style="stroke:#0A9EFD;stroke-width:0.5;stroke-dasharray:5.0,5.0;" x1="74" x2="74" y1="106.4092" y2="821.1274"/><line style="stroke:#0A9EFD;stroke-width:0.5;stroke-dasharray:5.0,5.0;" x1="141.5" x2="141.5" y1="106.4092" y2="821.1274"/><line style="stroke:#0A9EFD;stroke-width:0.5;stroke-dasharray:5.0,5.0;" x1="327" x2="327" y1="106.4092" y2="821.1274"/><line style="stroke:#0A9EFD;stroke-width:0.5;stroke-dasharray:5.0,5.0;" x1="476.5" x2="476.5" y1="106.4092" y2="821.1274"/><line style="stroke:#0A9EFD;stroke-width:0.5;stroke-dasharray:5.0,5.0;" x1="675" x2="675" y1="106.4092" y2="821.1274"/><text fill="#0A9EFD" font-family="Arial" font-size="14" lengthAdjust="spacing" textLength="30" x="5" y="103.4424">User</text><ellipse cx="23" cy="36.3105" fill="none" rx="8" ry="8" style="stroke:#0A9EFD;stroke-width:3.0;"/><path d="M23,44.3105 L23,71.3105 M10,52.3105 L36,52.3105 M23,71.3105 L10,86.3105 M23,71.3105 L36,86.3105 " fill="none" style="stroke:#0A9EFD;stroke-width:3.0;"/><text fill="#0A9EFD" font-family="Arial" font-size="14" lengthAdjust="spacing" textLength="30" x="5" y="833.2593">User</text><ellipse cx="23" cy="847.2261" fill="none" rx="8" ry="8" style="stroke:#0A9EFD;stroke-width:3.0;"/><path d="M23,855.2261 L23,882.2261 M10,863.2261 L36,863.2261 M23,882.2261 L10,897.2261 M23,882.2261 L36,897.2261 " fill="none" style="stroke:#0A9EFD;stroke-width:3.0;"/><text fill="#0A9EFD" font-family="Arial" font-size="14" lengthAdjust="spacing" textLength="40" x="51" y="103.4424">Admin</text><ellipse cx="74" cy="36.3105" fill="none" rx="8" ry="8" style="stroke:#0A9EFD;stroke-width:3.0;"/><path d="M74,44.3105 L74,71.3105 M61,52.3105 L87,52.3105 M74,71.3105 L61,86.3105 M74,71.3105 L87,86.3105 " fill="none" style="stroke:#0A9EFD;stroke-width:3.0;"/><text fill="#0A9EFD" font-family="Arial" font-size="14" lengthAdjust="spacing" textLength="40" x="51" y="833.2593">Admin</text><ellipse cx="74" cy="847.2261" fill="none" rx="8" ry="8" style="stroke:#0A9EFD;stroke-width:3.0;"/><path d="M74,855.2261 L74,882.2261 M61,863.2261 L87,863.2261 M74,882.2261 L61,897.2261 M74,882.2261 L87,897.2261 " fill="none" style="stroke:#0A9EFD;stroke-width:3.0;"/><rect fill="none" height="30.0986" rx="2.5" ry="2.5" style="stroke:#0A9EFD;stroke-width:2.0;" width="39" x="122.5" y="75.3105"/><text fill="#0A9EFD" font-family="Arial" font-size="14" lengthAdjust="spacing" textLength="25" x="129.5" y="95.4424">App</text><rect fill="none" height="30.0986" rx="2.5" ry="2.5" style="stroke:#0A9EFD;stroke-width:2.0;" width="39" x="122.5" y="820.1274"/><text fill="#0A9EFD" font-family="Arial" font-size="14" lengthAdjust="spacing" textLength="25" x="129.5" y="840.2593">App</text><rect fill="none" height="30.0986" rx="2.5" ry="2.5" style="stroke:#0A9EFD;stroke-width:2.0;" width="132" x="261" y="75.3105"/><text fill="#0A9EFD" font-family="Arial" font-size="14" lengthAdjust="spacing" textLength="118" x="268" y="95.4424">Enterprise Firewall</text><rect fill="none" height="30.0986" rx="2.5" ry="2.5" style="stroke:#0A9EFD;stroke-width:2.0;" width="132" x="261" y="820.1274"/><text fill="#0A9EFD" font-family="Arial" font-size="14" lengthAdjust="spacing" textLength="118" x="268" y="840.2593">Enterprise Firewall</text><rect fill="none" height="30.0986" rx="2.5" ry="2.5" style="stroke:#0A9EFD;stroke-width:2.0;" width="91" x="431.5" y="75.3105"/><text fill="#0A9EFD" font-family="Arial" font-size="14" lengthAdjust="spacing" textLength="77" x="438.5" y="95.4424">Cloud Proxy</text><rect fill="none" height="30.0986" rx="2.5" ry="2.5" style="stroke:#0A9EFD;stroke-width:2.0;" width="91" x="431.5" y="820.1274"/><text fill="#0A9EFD" font-family="Arial" font-size="14" lengthAdjust="spacing" textLength="77" x="438.5" y="840.2593">Cloud Proxy</text><rect fill="none" height="30.0986" rx="2.5" ry="2.5" style="stroke:#0A9EFD;stroke-width:2.0;" width="72" x="639" y="75.3105"/><text fill="#0A9EFD" font-family="Arial" font-size="14" lengthAdjust="spacing" textLength="58" x="646" y="95.4424">SDRTN&#174;</text><rect fill="none" height="30.0986" rx="2.5" ry="2.5" style="stroke:#0A9EFD;stroke-width:2.0;" width="72" x="639" y="820.1274"/><text fill="#0A9EFD" font-family="Arial" font-size="14" lengthAdjust="spacing" textLength="58" x="646" y="840.2593">SDRTN&#174;</text><polygon fill="#0A9EFD" points="315,148.3066,325,152.3066,315,156.3066,319,152.3066" style="stroke:#0A9EFD;stroke-width:1.0;"/><line style="stroke:#0A9EFD;stroke-width:2.0;" x1="74" x2="321" y1="152.3066" y2="152.3066"/><text fill="#0A9EFD" font-family="Arial" font-size="13" lengthAdjust="spacing" textLength="189" x="106" y="132.603">Whitelist IP addresses and ports</text><text fill="#0A9EFD" font-family="Arial" font-size="13" lengthAdjust="spacing" textLength="174" x="115.5" y="147.5518">for Cloud Proxy in the firewall.</text><polygon fill="#0A9EFD" points="130,177.2554,140,181.2554,130,185.2554,134,181.2554" style="stroke:#0A9EFD;stroke-width:1.0;"/><line style="stroke:#0A9EFD;stroke-width:2.0;" x1="23" x2="136" y1="181.2554" y2="181.2554"/><text fill="#0A9EFD" font-family="Arial" font-size="13" lengthAdjust="spacing" textLength="78" x="43.5" y="176.5005">Open the app</text><line style="stroke:#0A9EFD;stroke-width:2.0;" x1="142" x2="184" y1="210.2041" y2="210.2041"/><line style="stroke:#0A9EFD;stroke-width:2.0;" x1="184" x2="184" y1="210.2041" y2="223.2041"/><line style="stroke:#0A9EFD;stroke-width:2.0;" x1="143" x2="184" y1="223.2041" y2="223.2041"/><polygon fill="#0A9EFD" points="153,219.2041,143,223.2041,153,227.2041,149,223.2041" style="stroke:#0A9EFD;stroke-width:1.0;"/><text fill="#0A9EFD" font-family="Arial" font-size="13" lengthAdjust="spacing" textLength="171" x="149" y="205.4492">Initialize the Signaling Engine</text><path d="M112.5,238.2041 L268.5,238.2041 L268.5,245.1528 L258.5,255.1528 L112.5,255.1528 L112.5,238.2041 " fill="#EEEEEE" style="stroke:#0A9EFD;stroke-width:1.5;"/><rect fill="none" height="247.4873" style="stroke:#0A9EFD;stroke-width:2.0;" width="420" x="112.5" y="238.2041"/><text fill="#000000" font-family="Arial" font-size="13" lengthAdjust="spacing" textLength="111" x="127.5" y="251.3979">Enable cloud proxy</text><line style="stroke:#0A9EFD;stroke-width:2.0;" x1="142" x2="184" y1="291.0503" y2="291.0503"/><line style="stroke:#0A9EFD;stroke-width:2.0;" x1="184" x2="184" y1="291.0503" y2="304.0503"/><line style="stroke:#0A9EFD;stroke-width:2.0;" x1="143" x2="184" y1="304.0503" y2="304.0503"/><polygon fill="#0A9EFD" points="153,300.0503,143,304.0503,153,308.0503,149,304.0503" style="stroke:#0A9EFD;stroke-width:1.0;"/><text fill="#0A9EFD" font-family="Arial" font-size="13" lengthAdjust="spacing" textLength="148" x="149.5" y="271.3467">Call the method to enable</text><text fill="#0A9EFD" font-family="Arial" font-size="13" lengthAdjust="spacing" textLength="149" x="149" y="286.2954">a Cloud Proxy connection</text><polygon fill="#0A9EFD" points="315,343.9478,325,347.9478,315,351.9478,319,347.9478" style="stroke:#0A9EFD;stroke-width:1.0;"/><line style="stroke:#0A9EFD;stroke-width:2.0;" x1="142" x2="321" y1="347.9478" y2="347.9478"/><text fill="#0A9EFD" font-family="Arial" font-size="13" lengthAdjust="spacing" textLength="109" x="178" y="328.2441">Request access to</text><text fill="#0A9EFD" font-family="Arial" font-size="13" lengthAdjust="spacing" textLength="71" x="201" y="343.1929">Cloud Proxy</text><line style="stroke:#0A9EFD;stroke-width:2.0;" x1="327" x2="369" y1="391.8452" y2="391.8452"/><line style="stroke:#0A9EFD;stroke-width:2.0;" x1="369" x2="369" y1="391.8452" y2="404.8452"/><line style="stroke:#0A9EFD;stroke-width:2.0;" x1="328" x2="369" y1="404.8452" y2="404.8452"/><polygon fill="#0A9EFD" points="338,400.8452,328,404.8452,338,408.8452,334,404.8452" style="stroke:#0A9EFD;stroke-width:1.0;"/><text fill="#0A9EFD" font-family="Arial" font-size="13" lengthAdjust="spacing" textLength="136" x="334" y="372.1416">Check whitelist to grant</text><text fill="#0A9EFD" font-family="Arial" font-size="13" lengthAdjust="spacing" textLength="42" x="383" y="387.0903">access</text><polygon fill="#0A9EFD" points="465,444.7427,475,448.7427,465,452.7427,469,448.7427" style="stroke:#0A9EFD;stroke-width:1.0;"/><line style="stroke:#0A9EFD;stroke-width:2.0;" x1="327" x2="471" y1="448.7427" y2="448.7427"/><text fill="#0A9EFD" font-family="Arial" font-size="13" lengthAdjust="spacing" textLength="109" x="345.5" y="429.0391">Request access to</text><text fill="#0A9EFD" font-family="Arial" font-size="13" lengthAdjust="spacing" textLength="71" x="368.5" y="443.9878">Cloud Proxy</text><polygon fill="#0A9EFD" points="153,473.6914,143,477.6914,153,481.6914,149,477.6914" style="stroke:#0A9EFD;stroke-width:1.0;"/><line style="stroke:#0A9EFD;stroke-width:2.0;" x1="147" x2="476" y1="477.6914" y2="477.6914"/><text fill="#0A9EFD" font-family="Arial" font-size="13" lengthAdjust="spacing" textLength="102" x="258.5" y="472.9365">Proxy information</text><polygon fill="#0A9EFD" points="130,509.6401,140,513.6401,130,517.6401,134,513.6401" style="stroke:#0A9EFD;stroke-width:1.0;"/><line style="stroke:#0A9EFD;stroke-width:2.0;" x1="23" x2="136" y1="513.6401" y2="513.6401"/><text fill="#0A9EFD" font-family="Arial" font-size="13" lengthAdjust="spacing" textLength="84" x="40.5" y="508.8853">Join a channel</text><polygon fill="#0A9EFD" points="465,538.5889,475,542.5889,465,546.5889,469,542.5889" style="stroke:#0A9EFD;stroke-width:1.0;"/><line style="stroke:#0A9EFD;stroke-width:2.0;" x1="142" x2="471" y1="542.5889" y2="542.5889"/><text fill="#0A9EFD" font-family="Arial" font-size="13" lengthAdjust="spacing" textLength="84" x="267.5" y="537.834">Join a channel</text><polygon fill="#0A9EFD" points="663,567.5376,673,571.5376,663,575.5376,667,571.5376" style="stroke:#0A9EFD;stroke-width:1.0;"/><line style="stroke:#0A9EFD;stroke-width:2.0;" x1="477" x2="669" y1="571.5376" y2="571.5376"/><text fill="#0A9EFD" font-family="Arial" font-size="13" lengthAdjust="spacing" textLength="122" x="515" y="566.7827">Ask to join a channel</text><polygon fill="#0A9EFD" points="488,596.4863,478,600.4863,488,604.4863,484,600.4863" style="stroke:#0A9EFD;stroke-width:1.0;"/><line style="stroke:#0A9EFD;stroke-width:2.0;" x1="482" x2="674" y1="600.4863" y2="600.4863"/><text fill="#0A9EFD" font-family="Arial" font-size="13" lengthAdjust="spacing" textLength="77" x="537.5" y="595.7314">Join success</text><polygon fill="#0A9EFD" points="153,625.4351,143,629.4351,153,633.4351,149,629.4351" style="stroke:#0A9EFD;stroke-width:1.0;"/><line style="stroke:#0A9EFD;stroke-width:2.0;" x1="147" x2="476" y1="629.4351" y2="629.4351"/><text fill="#0A9EFD" font-family="Arial" font-size="13" lengthAdjust="spacing" textLength="77" x="271" y="624.6802">Join success</text><polygon fill="#0A9EFD" points="465,654.3838,475,658.3838,465,662.3838,469,658.3838" style="stroke:#0A9EFD;stroke-width:1.0;"/><line style="stroke:#0A9EFD;stroke-width:2.0;" x1="142" x2="471" y1="658.3838" y2="658.3838"/><text fill="#0A9EFD" font-family="Arial" font-size="13" lengthAdjust="spacing" textLength="103" x="258" y="653.6289">Send data stream</text><polygon fill="#0A9EFD" points="488,683.3325,478,687.3325,488,691.3325,484,687.3325" style="stroke:#0A9EFD;stroke-width:1.0;"/><polygon fill="#0A9EFD" points="663,683.3325,673,687.3325,663,691.3325,667,687.3325" style="stroke:#0A9EFD;stroke-width:1.0;"/><line style="stroke:#0A9EFD;stroke-width:2.0;" x1="482" x2="669" y1="687.3325" y2="687.3325"/><text fill="#0A9EFD" font-family="Arial" font-size="13" lengthAdjust="spacing" textLength="174" x="489" y="682.5776">Send and receive data stream</text><polygon fill="#0A9EFD" points="153,712.2813,143,716.2813,153,720.2813,149,716.2813" style="stroke:#0A9EFD;stroke-width:1.0;"/><line style="stroke:#0A9EFD;stroke-width:2.0;" x1="147" x2="476" y1="716.2813" y2="716.2813"/><text fill="#0A9EFD" font-family="Arial" font-size="13" lengthAdjust="spacing" textLength="120" x="249.5" y="711.5264">Receive data stream</text><polygon fill="#0A9EFD" points="130,741.23,140,745.23,130,749.23,134,745.23" style="stroke:#0A9EFD;stroke-width:1.0;"/><line style="stroke:#0A9EFD;stroke-width:2.0;" x1="23" x2="136" y1="745.23" y2="745.23"/><text fill="#0A9EFD" font-family="Arial" font-size="13" lengthAdjust="spacing" textLength="95" x="35" y="740.4751">Leave a channel</text><polygon fill="#0A9EFD" points="465,770.1787,475,774.1787,465,778.1787,469,774.1787" style="stroke:#0A9EFD;stroke-width:1.0;"/><line style="stroke:#0A9EFD;stroke-width:2.0;" x1="142" x2="471" y1="774.1787" y2="774.1787"/><text fill="#0A9EFD" font-family="Arial" font-size="13" lengthAdjust="spacing" textLength="106" x="256.5" y="769.4238">Leave the channel</text><polygon fill="#0A9EFD" points="663,799.1274,673,803.1274,663,807.1274,667,803.1274" style="stroke:#0A9EFD;stroke-width:1.0;"/><line style="stroke:#0A9EFD;stroke-width:2.0;" x1="477" x2="669" y1="803.1274" y2="803.1274"/><text fill="#0A9EFD" font-family="Arial" font-size="13" lengthAdjust="spacing" textLength="82" x="535" y="798.3726">Channel leave</text><!--SRC=[ZLBBRjim4BppAxQ-nxaRHG71SG0LRYB83T820GgQsiYi9P8bgSJkH_KZ-cLTKe-8WGyzaZEpCxFa1wb4qrK8o-NrYwnGNxdgUCrhRVaFTvHgARksOOmBhoqi7XpQ1N073xkIiRq-mI9lJOCjAeyLxCzmrjrYP6TLArMaPpTVyZjckFLIICEL9z2O7YgA5DZGA6kiT0Ytqk8hRvf8lCtBpMEstJ9KvAHFWtzXTSWTpRCGUv6EMpUwgu1OftCSKvJttxwdbDrD-VNkxvyXJlvc46F3rQV9UmMF1-cnaSv3NW2lAelEeGDE4gEjTqyAdgdxp1Ma0dz0U1xAB1cZxOMfL7q5zmPxd1l3w6O2SYMzv8tyZH7UoLhHITMmKRLKo5XjTMVenFSDWeY69XWcKzRa6FKj-eEkm6l0g7XIF4afj58elDHgrB-LBl5NXrIP2q5rmmogEHEpaJfJ0NaVK1pXTTeOwMfB6oTnFsdI1RluCF_X5NbJlt75jFIMX_GGdYzTyMTDJy1173XLfCyyz1iCtw6pyVaACdSC4Nwc78BU3t1TtoXDbq2fxIxyiefx3ivRvEsW_3WwHpnyAui2vGjUu8ukvGL6ie0jSeBd-UT9UZJyaSixMFUtq0GUO_y0]--></g></svg>