<?xml version="1.0" encoding="us-ascii" standalone="no"?><svg xmlns="http://www.w3.org/2000/svg" xmlns:xlink="http://www.w3.org/1999/xlink" contentStyleType="text/css" height="631px" preserveAspectRatio="none" style="width:645px;height:631px;" version="1.1" viewBox="0 0 645 631" width="645px" zoomAndPan="magnify"><defs/><g><rect fill="none" height="629.377" style="stroke:#0A9EFD;stroke-width:1.0;" width="643.5" x="0" y="0"/><rect fill="#999999" fill-opacity="0.33333" height="619.377" style="stroke:#0A9EFD;stroke-width:0.5;" width="280" x="47" y="6"/><text fill="#0A9EFD" font-family="sans-serif" font-size="13" font-weight="bold" lengthAdjust="spacing" textLength="140" x="117" y="18.5684">Implemented by you</text><rect fill="#999999" fill-opacity="0.33333" height="619.377" style="stroke:#0A9EFD;stroke-width:0.5;" width="132" x="507.5" y="6"/><text fill="#0A9EFD" font-family="sans-serif" font-size="13" font-weight="bold" lengthAdjust="spacing" textLength="126" x="510.5" y="18.5684">Provided by Agora</text><rect fill="#0A9EFD" fill-opacity="0.06667" height="219.5386" style="stroke:#0A9EFD;stroke-width:2.0;" width="578.5" x="41" y="132.0474"/><line style="stroke:#0A9EFD;stroke-width:0.5;stroke-dasharray:5.0,5.0;" x1="23" x2="23" y1="86.0986" y2="541.2783"/><line style="stroke:#0A9EFD;stroke-width:0.5;stroke-dasharray:5.0,5.0;" x1="127" x2="127" y1="86.0986" y2="541.2783"/><line style="stroke:#0A9EFD;stroke-width:0.5;stroke-dasharray:5.0,5.0;" x1="303" x2="303" y1="86.0986" y2="541.2783"/><line style="stroke:#0A9EFD;stroke-width:0.5;stroke-dasharray:5.0,5.0;" x1="573.5" x2="573.5" y1="86.0986" y2="541.2783"/><text fill="#0A9EFD" font-family="Arial" font-size="14" lengthAdjust="spacing" textLength="30" x="5" y="83.1318">User</text><ellipse cx="23" cy="16" fill="none" rx="8" ry="8" style="stroke:#0A9EFD;stroke-width:3.0;"/><path d="M23,24 L23,51 M10,32 L36,32 M23,51 L10,66 M23,51 L36,66 " fill="none" style="stroke:#0A9EFD;stroke-width:3.0;"/><text fill="#0A9EFD" font-family="Arial" font-size="14" lengthAdjust="spacing" textLength="30" x="5" y="553.4102">User</text><ellipse cx="23" cy="567.377" fill="none" rx="8" ry="8" style="stroke:#0A9EFD;stroke-width:3.0;"/><path d="M23,575.377 L23,602.377 M10,583.377 L36,583.377 M23,602.377 L10,617.377 M23,602.377 L36,617.377 " fill="none" style="stroke:#0A9EFD;stroke-width:3.0;"/><rect fill="none" height="30.0986" rx="2.5" ry="2.5" style="stroke:#0A9EFD;stroke-width:2.0;" width="153" x="51" y="55"/><text fill="#0A9EFD" font-family="Arial" font-size="14" lengthAdjust="spacing" textLength="139" x="58" y="75.1318">Authentication system</text><rect fill="none" height="30.0986" rx="2.5" ry="2.5" style="stroke:#0A9EFD;stroke-width:2.0;" width="153" x="51" y="540.2783"/><text fill="#0A9EFD" font-family="Arial" font-size="14" lengthAdjust="spacing" textLength="139" x="58" y="560.4102">Authentication system</text><rect fill="none" height="30.0986" rx="2.5" ry="2.5" style="stroke:#0A9EFD;stroke-width:2.0;" width="39" x="284" y="55"/><text fill="#0A9EFD" font-family="Arial" font-size="14" lengthAdjust="spacing" textLength="25" x="291" y="75.1318">App</text><rect fill="none" height="30.0986" rx="2.5" ry="2.5" style="stroke:#0A9EFD;stroke-width:2.0;" width="39" x="284" y="540.2783"/><text fill="#0A9EFD" font-family="Arial" font-size="14" lengthAdjust="spacing" textLength="25" x="291" y="560.4102">App</text><rect fill="none" height="30.0986" rx="2.5" ry="2.5" style="stroke:#0A9EFD;stroke-width:2.0;" width="72" x="537.5" y="55"/><text fill="#0A9EFD" font-family="Arial" font-size="14" lengthAdjust="spacing" textLength="58" x="544.5" y="75.1318">SDRTN&#174;</text><rect fill="none" height="30.0986" rx="2.5" ry="2.5" style="stroke:#0A9EFD;stroke-width:2.0;" width="72" x="537.5" y="540.2783"/><text fill="#0A9EFD" font-family="Arial" font-size="14" lengthAdjust="spacing" textLength="58" x="544.5" y="560.4102">SDRTN&#174;</text><polygon fill="#0A9EFD" points="291.5,113.0474,301.5,117.0474,291.5,121.0474,295.5,117.0474" style="stroke:#0A9EFD;stroke-width:1.0;"/><line style="stroke:#0A9EFD;stroke-width:2.0;" x1="23" x2="297.5" y1="117.0474" y2="117.0474"/><text fill="#0A9EFD" font-family="Arial" font-size="13" lengthAdjust="spacing" textLength="75" x="125.75" y="112.2925">Start the app</text><path d="M41,132.0474 L267,132.0474 L267,138.9961 L257,148.9961 L41,148.9961 L41,132.0474 " fill="#EEEEEE" style="stroke:#0A9EFD;stroke-width:1.5;"/><rect fill="none" height="219.5386" style="stroke:#0A9EFD;stroke-width:2.0;" width="578.5" x="41" y="132.0474"/><text fill="#000000" font-family="Arial" font-size="13" lengthAdjust="spacing" textLength="181" x="56" y="145.2412">Setup media stream encryption</text><polygon fill="#0A9EFD" points="138.5,180.8936,128.5,184.8936,138.5,188.8936,134.5,184.8936" style="stroke:#0A9EFD;stroke-width:1.0;"/><line style="stroke:#0A9EFD;stroke-width:2.0;" x1="132.5" x2="302.5" y1="184.8936" y2="184.8936"/><text fill="#0A9EFD" font-family="Arial" font-size="13" lengthAdjust="spacing" textLength="68" x="179.5" y="165.1899">Login to the</text><text fill="#0A9EFD" font-family="Arial" font-size="13" lengthAdjust="spacing" textLength="128" x="151.5" y="180.1387">authentication system</text><polygon fill="#0A9EFD" points="138.5,209.8423,128.5,213.8423,138.5,217.8423,134.5,213.8423" style="stroke:#0A9EFD;stroke-width:1.0;"/><polygon fill="#0A9EFD" points="291.5,209.8423,301.5,213.8423,291.5,217.8423,295.5,213.8423" style="stroke:#0A9EFD;stroke-width:1.0;"/><line style="stroke:#0A9EFD;stroke-width:2.0;" x1="132.5" x2="297.5" y1="213.8423" y2="213.8423"/><text fill="#0A9EFD" font-family="Arial" font-size="13" lengthAdjust="spacing" textLength="131" x="150" y="209.0874">Retrieve a 32-byte key</text><polygon fill="#0A9EFD" points="138.5,253.7397,128.5,257.7397,138.5,261.7397,134.5,257.7397" style="stroke:#0A9EFD;stroke-width:1.0;"/><polygon fill="#0A9EFD" points="291.5,253.7397,301.5,257.7397,291.5,261.7397,295.5,257.7397" style="stroke:#0A9EFD;stroke-width:1.0;"/><line style="stroke:#0A9EFD;stroke-width:2.0;" x1="132.5" x2="297.5" y1="257.7397" y2="257.7397"/><text fill="#0A9EFD" font-family="Arial" font-size="13" lengthAdjust="spacing" textLength="145" x="141" y="238.0361">Retrieve a 32-byte salt in</text><text fill="#0A9EFD" font-family="Arial" font-size="13" lengthAdjust="spacing" textLength="85" x="173" y="252.9849">Base64 format</text><line style="stroke:#0A9EFD;stroke-width:2.0;" x1="303.5" x2="345.5" y1="301.6372" y2="301.6372"/><line style="stroke:#0A9EFD;stroke-width:2.0;" x1="345.5" x2="345.5" y1="301.6372" y2="314.6372"/><line style="stroke:#0A9EFD;stroke-width:2.0;" x1="304.5" x2="345.5" y1="314.6372" y2="314.6372"/><polygon fill="#0A9EFD" points="314.5,310.6372,304.5,314.6372,314.5,318.6372,310.5,314.6372" style="stroke:#0A9EFD;stroke-width:1.0;"/><text fill="#0A9EFD" font-family="Arial" font-size="13" lengthAdjust="spacing" textLength="226" x="310.5" y="281.9336">Create a encryption configuration using</text><text fill="#0A9EFD" font-family="Arial" font-size="13" lengthAdjust="spacing" textLength="93" x="379" y="296.8823">the key and salt</text><polygon fill="#0A9EFD" points="561.5,339.5859,571.5,343.5859,561.5,347.5859,565.5,343.5859" style="stroke:#0A9EFD;stroke-width:1.0;"/><line style="stroke:#0A9EFD;stroke-width:2.0;" x1="303.5" x2="567.5" y1="343.5859" y2="343.5859"/><text fill="#0A9EFD" font-family="Arial" font-size="13" lengthAdjust="spacing" textLength="184" x="346.5" y="338.8311">Set the encryption configuration</text><line style="stroke:#0A9EFD;stroke-width:2.0;" x1="303.5" x2="345.5" y1="379.5347" y2="379.5347"/><line style="stroke:#0A9EFD;stroke-width:2.0;" x1="345.5" x2="345.5" y1="379.5347" y2="392.5347"/><line style="stroke:#0A9EFD;stroke-width:2.0;" x1="304.5" x2="345.5" y1="392.5347" y2="392.5347"/><polygon fill="#0A9EFD" points="314.5,388.5347,304.5,392.5347,314.5,396.5347,310.5,392.5347" style="stroke:#0A9EFD;stroke-width:1.0;"/><text fill="#0A9EFD" font-family="Arial" font-size="13" lengthAdjust="spacing" textLength="162" x="310.5" y="374.7798">Initiate the Signaling Engine</text><polygon fill="#0A9EFD" points="291.5,417.4834,301.5,421.4834,291.5,425.4834,295.5,421.4834" style="stroke:#0A9EFD;stroke-width:1.0;"/><line style="stroke:#0A9EFD;stroke-width:2.0;" x1="23" x2="297.5" y1="421.4834" y2="421.4834"/><text fill="#0A9EFD" font-family="Arial" font-size="13" lengthAdjust="spacing" textLength="136" x="95.25" y="416.7285">Select a channel to join</text><polygon fill="#0A9EFD" points="138.5,446.4321,128.5,450.4321,138.5,454.4321,134.5,450.4321" style="stroke:#0A9EFD;stroke-width:1.0;"/><polygon fill="#0A9EFD" points="291.5,446.4321,301.5,450.4321,291.5,454.4321,295.5,450.4321" style="stroke:#0A9EFD;stroke-width:1.0;"/><line style="stroke:#0A9EFD;stroke-width:2.0;" x1="132.5" x2="297.5" y1="450.4321" y2="450.4321"/><text fill="#0A9EFD" font-family="Arial" font-size="13" lengthAdjust="spacing" textLength="152" x="139.5" y="445.6772">Retrieve an access token.</text><polygon fill="#0A9EFD" points="314.5,475.3809,304.5,479.3809,314.5,483.3809,310.5,479.3809" style="stroke:#0A9EFD;stroke-width:1.0;"/><polygon fill="#0A9EFD" points="561.5,475.3809,571.5,479.3809,561.5,483.3809,565.5,479.3809" style="stroke:#0A9EFD;stroke-width:1.0;"/><line style="stroke:#0A9EFD;stroke-width:2.0;" x1="308.5" x2="567.5" y1="479.3809" y2="479.3809"/><text fill="#0A9EFD" font-family="Arial" font-size="13" lengthAdjust="spacing" textLength="84" x="396.5" y="474.626">Join a channel</text><polygon fill="#0A9EFD" points="314.5,519.2783,304.5,523.2783,314.5,527.2783,310.5,523.2783" style="stroke:#0A9EFD;stroke-width:1.0;"/><polygon fill="#0A9EFD" points="561.5,519.2783,571.5,523.2783,561.5,527.2783,565.5,523.2783" style="stroke:#0A9EFD;stroke-width:1.0;"/><line style="stroke:#0A9EFD;stroke-width:2.0;" x1="308.5" x2="567.5" y1="523.2783" y2="523.2783"/><text fill="#0A9EFD" font-family="Arial" font-size="13" lengthAdjust="spacing" textLength="127" x="375" y="503.5747">Communicate over an</text><text fill="#0A9EFD" font-family="Arial" font-size="13" lengthAdjust="spacing" textLength="130" x="375.5" y="518.5234">encrypted data stream</text><!--SRC=[XPB1Jjj048Rl-nI3xmaIL1oY2Ya53a4LYkBIKoGqMGzcYNTsjJkEy4lr8VfadJMa4H68Yoyp__z__wnF7DkkRmYcqzETQoXCShCznJOaVCXRnrFN-yuOj18ILFUPKWMOuRvU6RC9Br0jVEp84miri1bW27rb8YPnraLaWMhUovEEdKLnWI4FMSYF9lNlrT5gZEDWlbmQOlKBBsyfonGAtHWnBt178VNrwjVTtpzlwiL1RPGK9fV5SWQrg0OK1p16OzeK-WWrYNuzDGuXIoBqG6pJ40kkKLsHA-eCVeRMCKWO7TQC7nKR1T_tYXL9ShJJF3W_csm68TZIyELEnav0ezRy0pDTV8F7a3pA7cRiSgMaKaG7MB217rtRfrUWFZjkrQFGQYgWtgGu7smMiz9-hFEPIxdakzm5Et4bkQXgrp9s9UQ6zJPqT6xgo8eYsYTafgwSxZau_gm_0rfBEUlUbdZwVsq4lLNXmUhzx2futtDv28AmewHMQzvNqf-cGTc_hJ7_0000]--></g></svg>