<?xml version="1.0" encoding="UTF-8" standalone="no"?><svg xmlns="http://www.w3.org/2000/svg" xmlns:xlink="http://www.w3.org/1999/xlink" contentStyleType="text/css" height="695px" preserveAspectRatio="none" style="width:735px;height:695px;" version="1.1" viewBox="0 0 735 695" width="735px" zoomAndPan="magnify"><defs/><g><rect fill="none" height="693.1797" style="stroke:#0A9EFD;stroke-width:1.0;" width="733.5" x="0" y="0"/><rect fill="#F3F3F3" height="683.1797" style="stroke:#0A9EFD;stroke-width:0.5;" width="320" x="50" y="6"/><text fill="#0A9EFD" font-family="sans-serif" font-size="13" font-weight="bold" lengthAdjust="spacing" textLength="130" x="145" y="20.0283">Implemented by you</text><rect fill="#F3F3F3" height="683.1797" style="stroke:#0A9EFD;stroke-width:0.5;" width="124" x="605.5" y="6"/><text fill="#0A9EFD" font-family="sans-serif" font-size="13" font-weight="bold" lengthAdjust="spacing" textLength="118" x="608.5" y="20.0283">Provided by Agora</text><rect fill="#FFFFFF" height="252.5898" style="stroke:#0A9EFD;stroke-width:2.0;" width="666.5" x="44" y="138.2422"/><line style="stroke:#0A9EFD;stroke-width:0.5;stroke-dasharray:5.0,5.0;" x1="24" x2="24" y1="88.6211" y2="602.5586"/><line style="stroke:#0A9EFD;stroke-width:0.5;stroke-dasharray:5.0,5.0;" x1="138" x2="138" y1="88.6211" y2="602.5586"/><line style="stroke:#0A9EFD;stroke-width:0.5;stroke-dasharray:5.0,5.0;" x1="345" x2="345" y1="88.6211" y2="602.5586"/><line style="stroke:#0A9EFD;stroke-width:0.5;stroke-dasharray:5.0,5.0;" x1="667.5" x2="667.5" y1="88.6211" y2="602.5586"/><text fill="#0A9EFD" font-family="Roboto" font-size="14" font-weight="bold" lengthAdjust="spacing" textLength="33" x="5" y="85.1074">User</text><ellipse cx="24.5" cy="16" fill="none" rx="8" ry="8" style="stroke:#0A9EFD;stroke-width:3.0;"/><path d="M24.5,24 L24.5,51 M11.5,32 L37.5,32 M24.5,51 L11.5,66 M24.5,51 L37.5,66 " fill="none" style="stroke:#0A9EFD;stroke-width:3.0;"/><text fill="#0A9EFD" font-family="Roboto" font-size="14" font-weight="bold" lengthAdjust="spacing" textLength="33" x="5" y="616.666">User</text><ellipse cx="24.5" cy="631.1797" fill="none" rx="8" ry="8" style="stroke:#0A9EFD;stroke-width:3.0;"/><path d="M24.5,639.1797 L24.5,666.1797 M11.5,647.1797 L37.5,647.1797 M24.5,666.1797 L11.5,681.1797 M24.5,666.1797 L37.5,681.1797 " fill="none" style="stroke:#0A9EFD;stroke-width:3.0;"/><rect fill="#FFFFFF" height="32.6211" rx="2.5" ry="2.5" style="stroke:#0A9EFD;stroke-width:2.0;" width="169" x="54" y="55"/><text fill="#0A9EFD" font-family="Roboto" font-size="14" font-weight="bold" lengthAdjust="spacing" textLength="155" x="61" y="77.1074">Authentication system</text><rect fill="#FFFFFF" height="32.6211" rx="2.5" ry="2.5" style="stroke:#0A9EFD;stroke-width:2.0;" width="169" x="54" y="601.5586"/><text fill="#0A9EFD" font-family="Roboto" font-size="14" font-weight="bold" lengthAdjust="spacing" textLength="155" x="61" y="623.666">Authentication system</text><rect fill="#FFFFFF" height="32.6211" rx="2.5" ry="2.5" style="stroke:#0A9EFD;stroke-width:2.0;" width="41" x="325" y="55"/><text fill="#0A9EFD" font-family="Roboto" font-size="14" font-weight="bold" lengthAdjust="spacing" textLength="27" x="332" y="77.1074">App</text><rect fill="#FFFFFF" height="32.6211" rx="2.5" ry="2.5" style="stroke:#0A9EFD;stroke-width:2.0;" width="41" x="325" y="601.5586"/><text fill="#0A9EFD" font-family="Roboto" font-size="14" font-weight="bold" lengthAdjust="spacing" textLength="27" x="332" y="623.666">App</text><rect fill="#FFFFFF" height="32.6211" rx="2.5" ry="2.5" style="stroke:#0A9EFD;stroke-width:2.0;" width="66" x="634.5" y="55"/><text fill="#0A9EFD" font-family="Roboto" font-size="14" font-weight="bold" lengthAdjust="spacing" textLength="52" x="641.5" y="77.1074">SD-RTN</text><rect fill="#FFFFFF" height="32.6211" rx="2.5" ry="2.5" style="stroke:#0A9EFD;stroke-width:2.0;" width="66" x="634.5" y="601.5586"/><text fill="#0A9EFD" font-family="Roboto" font-size="14" font-weight="bold" lengthAdjust="spacing" textLength="52" x="641.5" y="623.666">SD-RTN</text><polygon fill="#0A9EFD" points="333.5,119.2422,343.5,123.2422,333.5,127.2422,337.5,123.2422" style="stroke:#0A9EFD;stroke-width:1.0;"/><line style="stroke:#0A9EFD;stroke-width:2.0;" x1="24.5" x2="339.5" y1="123.2422" y2="123.2422"/><text fill="#0A9EFD" font-family="Roboto" font-size="14" font-weight="bold" lengthAdjust="spacing" textLength="90" x="140" y="117.7285">Start the app</text><path d="M44,138.2422 L307,138.2422 L307,148.8633 L297,158.8633 L44,158.8633 L44,138.2422 " fill="#EEEEEE" style="stroke:#0A9EFD;stroke-width:1.5;"/><rect fill="none" height="252.5898" style="stroke:#0A9EFD;stroke-width:2.0;" width="666.5" x="44" y="138.2422"/><text fill="#0A9EFD" font-family="Roboto" font-size="14" font-weight="bold" lengthAdjust="spacing" textLength="218" x="59" y="154.3496">Setup media stream encryption</text><polygon fill="#0A9EFD" points="149.5,198.1055,139.5,202.1055,149.5,206.1055,145.5,202.1055" style="stroke:#0A9EFD;stroke-width:1.0;"/><line style="stroke:#0A9EFD;stroke-width:2.0;" x1="143.5" x2="344.5" y1="202.1055" y2="202.1055"/><text fill="#0A9EFD" font-family="Roboto" font-size="14" font-weight="bold" lengthAdjust="spacing" textLength="84" x="198" y="177.9707">Login to the</text><text fill="#0A9EFD" font-family="Roboto" font-size="14" font-weight="bold" lengthAdjust="spacing" textLength="154" x="165" y="196.5918">authentication system</text><polygon fill="#0A9EFD" points="149.5,230.7266,139.5,234.7266,149.5,238.7266,145.5,234.7266" style="stroke:#0A9EFD;stroke-width:1.0;"/><polygon fill="#0A9EFD" points="333.5,230.7266,343.5,234.7266,333.5,238.7266,337.5,234.7266" style="stroke:#0A9EFD;stroke-width:1.0;"/><line style="stroke:#0A9EFD;stroke-width:2.0;" x1="143.5" x2="339.5" y1="234.7266" y2="234.7266"/><text fill="#0A9EFD" font-family="Roboto" font-size="14" font-weight="bold" lengthAdjust="spacing" textLength="156" x="164" y="229.2129">Retrieve a 32-byte key</text><polygon fill="#0A9EFD" points="149.5,281.9688,139.5,285.9688,149.5,289.9688,145.5,285.9688" style="stroke:#0A9EFD;stroke-width:1.0;"/><polygon fill="#0A9EFD" points="333.5,281.9688,343.5,285.9688,333.5,289.9688,337.5,285.9688" style="stroke:#0A9EFD;stroke-width:1.0;"/><line style="stroke:#0A9EFD;stroke-width:2.0;" x1="143.5" x2="339.5" y1="285.9688" y2="285.9688"/><text fill="#0A9EFD" font-family="Roboto" font-size="14" font-weight="bold" lengthAdjust="spacing" textLength="174" x="153" y="261.834">Retrieve a 32-byte salt in</text><text fill="#0A9EFD" font-family="Roboto" font-size="14" font-weight="bold" lengthAdjust="spacing" textLength="100" x="192" y="280.4551">Base64 format</text><line style="stroke:#0A9EFD;stroke-width:2.0;" x1="345.5" x2="387.5" y1="337.2109" y2="337.2109"/><line style="stroke:#0A9EFD;stroke-width:2.0;" x1="387.5" x2="387.5" y1="337.2109" y2="350.2109"/><line style="stroke:#0A9EFD;stroke-width:2.0;" x1="346.5" x2="387.5" y1="350.2109" y2="350.2109"/><polygon fill="#0A9EFD" points="356.5,346.2109,346.5,350.2109,356.5,354.2109,352.5,350.2109" style="stroke:#0A9EFD;stroke-width:1.0;"/><text fill="#0A9EFD" font-family="Roboto" font-size="14" font-weight="bold" lengthAdjust="spacing" textLength="279" x="352.5" y="313.0762">Create a encryption configuration using</text><text fill="#0A9EFD" font-family="Roboto" font-size="14" font-weight="bold" lengthAdjust="spacing" textLength="110" x="439" y="331.6973">the key and salt</text><polygon fill="#0A9EFD" points="655.5,378.832,665.5,382.832,655.5,386.832,659.5,382.832" style="stroke:#0A9EFD;stroke-width:1.0;"/><line style="stroke:#0A9EFD;stroke-width:2.0;" x1="345.5" x2="661.5" y1="382.832" y2="382.832"/><text fill="#0A9EFD" font-family="Roboto" font-size="14" font-weight="bold" lengthAdjust="spacing" textLength="227" x="393" y="377.3184">Set the encryption configuration</text><line style="stroke:#0A9EFD;stroke-width:2.0;" x1="345.5" x2="387.5" y1="422.4531" y2="422.4531"/><line style="stroke:#0A9EFD;stroke-width:2.0;" x1="387.5" x2="387.5" y1="422.4531" y2="435.4531"/><line style="stroke:#0A9EFD;stroke-width:2.0;" x1="346.5" x2="387.5" y1="435.4531" y2="435.4531"/><polygon fill="#0A9EFD" points="356.5,431.4531,346.5,435.4531,356.5,439.4531,352.5,435.4531" style="stroke:#0A9EFD;stroke-width:1.0;"/><text fill="#0A9EFD" font-family="Roboto" font-size="14" font-weight="bold" lengthAdjust="spacing" textLength="197" x="352.5" y="416.9395">Initiate the Signaling Engine</text><polygon fill="#0A9EFD" points="333.5,464.0742,343.5,468.0742,333.5,472.0742,337.5,468.0742" style="stroke:#0A9EFD;stroke-width:1.0;"/><line style="stroke:#0A9EFD;stroke-width:2.0;" x1="24.5" x2="339.5" y1="468.0742" y2="468.0742"/><text fill="#0A9EFD" font-family="Roboto" font-size="14" font-weight="bold" lengthAdjust="spacing" textLength="164" x="103" y="462.5605">Select a channel to join</text><polygon fill="#0A9EFD" points="149.5,496.6953,139.5,500.6953,149.5,504.6953,145.5,500.6953" style="stroke:#0A9EFD;stroke-width:1.0;"/><polygon fill="#0A9EFD" points="333.5,496.6953,343.5,500.6953,333.5,504.6953,337.5,500.6953" style="stroke:#0A9EFD;stroke-width:1.0;"/><line style="stroke:#0A9EFD;stroke-width:2.0;" x1="143.5" x2="339.5" y1="500.6953" y2="500.6953"/><text fill="#0A9EFD" font-family="Roboto" font-size="14" font-weight="bold" lengthAdjust="spacing" textLength="183" x="150.5" y="495.1816">Retrieve an access token.</text><polygon fill="#0A9EFD" points="356.5,529.3164,346.5,533.3164,356.5,537.3164,352.5,533.3164" style="stroke:#0A9EFD;stroke-width:1.0;"/><polygon fill="#0A9EFD" points="655.5,529.3164,665.5,533.3164,655.5,537.3164,659.5,533.3164" style="stroke:#0A9EFD;stroke-width:1.0;"/><line style="stroke:#0A9EFD;stroke-width:2.0;" x1="350.5" x2="661.5" y1="533.3164" y2="533.3164"/><text fill="#0A9EFD" font-family="Roboto" font-size="14" font-weight="bold" lengthAdjust="spacing" textLength="102" x="455.5" y="527.8027">Join a channel</text><polygon fill="#0A9EFD" points="356.5,580.5586,346.5,584.5586,356.5,588.5586,352.5,584.5586" style="stroke:#0A9EFD;stroke-width:1.0;"/><polygon fill="#0A9EFD" points="655.5,580.5586,665.5,584.5586,655.5,588.5586,659.5,584.5586" style="stroke:#0A9EFD;stroke-width:1.0;"/><line style="stroke:#0A9EFD;stroke-width:2.0;" x1="350.5" x2="661.5" y1="584.5586" y2="584.5586"/><text fill="#0A9EFD" font-family="Roboto" font-size="14" font-weight="bold" lengthAdjust="spacing" textLength="153" x="430" y="560.4238">Communicate over an</text><text fill="#0A9EFD" font-family="Roboto" font-size="14" font-weight="bold" lengthAdjust="spacing" textLength="157" x="430" y="579.0449">encrypted data stream</text><!--SRC=[XP9FJ-Cm4CNl_XIpkRT8W3XKgvNAdqCHGbK3UwgqcZf3C8t7bZsfoBTd7EXML20kaIpFU-_tnldbs7PzGp2TdWHvffHFi0q9_-MjuwdhVMSCMWa9giTCgGBCy5YlZDc4LwWMFdRaYOKQs0mmXBuo4PCuwoAoG3NlrPFrZE82Gnwoa1zDwh-hez4OnulvScc8rI-yVgGiKzYvvZrYNk2EGkhhoUhX_aEyE8YDWiBaJt6SGIqg0QK1ZD6ODeK-GasYNq-DGyYI23qGspJ4GcjKL-HAEeExq3e62QF3cl6hNgFWzrwn8acETfe7PwUJpI04Mnf-dCdO2MZKcYynqyKvF8NaKVOmOvSh9PKYEi223VpasZwz0_NPSQiUXLPJ0NKdnVbWivYLzcETxrpA9Z_bBjY9Ayb5LRkMiIinDwoxeQDrKqTM5D4-8pDrPNKlmV5t_HdGMifPvxR4q_zZ8-Yj2WzMd- -kWlSzbuSW23jAQhNcVINzPngK_TiQymO0]--></g></svg>