<?xml version="1.0" encoding="us-ascii" standalone="no"?><svg xmlns="http://www.w3.org/2000/svg" xmlns:xlink="http://www.w3.org/1999/xlink" contentStyleType="text/css" height="878px" preserveAspectRatio="none" style="width:539px;height:878px;" version="1.1" viewBox="0 0 539 878" width="539px" zoomAndPan="magnify"><defs/><g><rect fill="none" height="876.0693" style="stroke:#0A9EFD;stroke-width:1.0;" width="537.5" x="0" y="0"/><rect fill="#999999" fill-opacity="0.33333" height="866.0693" style="stroke:#0A9EFD;stroke-width:0.5;" width="116" x="136.5" y="6"/><text fill="#0A9EFD" font-family="sans-serif" font-size="13" font-weight="bold" lengthAdjust="spacing" textLength="57" x="166" y="19.4951">Your app</text><rect fill="#999999" fill-opacity="0.33333" height="866.0693" style="stroke:#0A9EFD;stroke-width:0.5;" width="84" x="443.5" y="6"/><text fill="#0A9EFD" font-family="sans-serif" font-size="13" font-weight="bold" lengthAdjust="spacing" textLength="38" x="466.5" y="19.4951">Agora</text><rect fill="#0A9EFD" fill-opacity="0.06667" height="144.7437" style="stroke:#0A9EFD;stroke-width:2.0;" width="480.5" x="10" y="103.0986"/><rect fill="#0A9EFD" fill-opacity="0.06667" height="116.7949" style="stroke:#0A9EFD;stroke-width:2.0;" width="523.5" x="10" y="261.8423"/><rect fill="#0A9EFD" fill-opacity="0.06667" height="232.5898" style="stroke:#0A9EFD;stroke-width:2.0;" width="523.5" x="10" y="392.6372"/><rect fill="#0A9EFD" fill-opacity="0.06667" height="131.7437" style="stroke:#0A9EFD;stroke-width:2.0;" width="523.5" x="10" y="639.2271"/><line style="stroke:#0A9EFD;stroke-width:0.5;stroke-dasharray:5.0,5.0;" x1="37" x2="37" y1="86.0986" y2="787.9707"/><line style="stroke:#0A9EFD;stroke-width:0.5;stroke-dasharray:5.0,5.0;" x1="194.5" x2="194.5" y1="86.0986" y2="787.9707"/><line style="stroke:#0A9EFD;stroke-width:0.5;stroke-dasharray:5.0,5.0;" x1="485.5" x2="485.5" y1="86.0986" y2="787.9707"/><text fill="#0A9EFD" font-family="Arial" font-size="14" lengthAdjust="spacing" textLength="29" x="20" y="83.1318">User</text><ellipse cx="37.5" cy="16" fill="none" rx="8" ry="8" style="stroke:#0A9EFD;stroke-width:3.0;"/><path d="M37.5,24 L37.5,51 M24.5,32 L50.5,32 M37.5,51 L24.5,66 M37.5,51 L50.5,66 " fill="none" style="stroke:#0A9EFD;stroke-width:3.0;"/><text fill="#0A9EFD" font-family="Arial" font-size="14" lengthAdjust="spacing" textLength="29" x="20" y="800.1025">User</text><ellipse cx="37.5" cy="814.0693" fill="none" rx="8" ry="8" style="stroke:#0A9EFD;stroke-width:3.0;"/><path d="M37.5,822.0693 L37.5,849.0693 M24.5,830.0693 L50.5,830.0693 M37.5,849.0693 L24.5,864.0693 M37.5,849.0693 L50.5,864.0693 " fill="none" style="stroke:#0A9EFD;stroke-width:3.0;"/><rect fill="none" height="56.7653" rx="2.5" ry="2.5" style="stroke:#0A9EFD;stroke-width:2.0;" width="108" x="140.5" y="28.3333"/><path d="M181.1667,35.3333 L181.1667,48.6667 L194.5,48.6667 L194.5,35.3333 L181.1667,35.3333 M197.8333,42 L197.8333,52 L187.8333,52 L187.8333,55.3333 L201.1667,55.3333 L201.1667,42 L197.8333,42 M204.5,48.6667 L204.5,58.6667 L194.5,58.6667 L194.5,62 L207.8333,62 L207.8333,48.6667 L204.5,48.6667 " fill="#0A9EFD" style="stroke:;stroke-width:0.0;stroke-dasharray:;"/><text fill="#0A9EFD" font-family="Arial" font-size="14" lengthAdjust="spacing" textLength="90" x="151.5" y="75.1318">Signaling SDK</text><rect fill="none" height="56.7653" rx="2.5" ry="2.5" style="stroke:#0A9EFD;stroke-width:2.0;" width="108" x="140.5" y="786.9707"/><path d="M181.1667,793.9707 L181.1667,807.304 L194.5,807.304 L194.5,793.9707 L181.1667,793.9707 M197.8333,800.6374 L197.8333,810.6374 L187.8333,810.6374 L187.8333,813.9707 L201.1667,813.9707 L201.1667,800.6374 L197.8333,800.6374 M204.5,807.304 L204.5,817.304 L194.5,817.304 L194.5,820.6374 L207.8333,820.6374 L207.8333,807.304 L204.5,807.304 " fill="#0A9EFD" style="stroke:;stroke-width:0.0;stroke-dasharray:;"/><text fill="#0A9EFD" font-family="Arial" font-size="14" lengthAdjust="spacing" textLength="90" x="151.5" y="833.7692">Signaling SDK</text><rect fill="none" height="56.7653" rx="2.5" ry="2.5" style="stroke:#0A9EFD;stroke-width:2.0;" width="76" x="447.5" y="28.3333"/><path d="M487.1667,35.3333 C483.1333,35.3333 479.6,38.2 478.8333,42 C475.1667,42 472.1667,45 472.1667,48.6667 C472.1667,52.3333 475.1667,55.3333 478.8333,55.3333 L493.8333,55.3333 C496.6,55.3333 498.8333,53.1 498.8333,50.3333 C498.8333,48.1667 497.4333,46.0333 495.5,45.3333 L495.5,43.6667 C495.5,39.0667 491.7667,35.3333 487.1667,35.3333 " fill="#0A9EFD" style="stroke:;stroke-width:0.0;stroke-dasharray:;"/><text fill="#0A9EFD" font-family="Arial" font-size="14" lengthAdjust="spacing" textLength="58" x="458.5" y="75.1318">Signaling</text><rect fill="none" height="56.7653" rx="2.5" ry="2.5" style="stroke:#0A9EFD;stroke-width:2.0;" width="76" x="447.5" y="786.9707"/><path d="M487.1667,793.9707 C483.1333,793.9707 479.6,796.8374 478.8333,800.6374 C475.1667,800.6374 472.1667,803.6374 472.1667,807.304 C472.1667,810.9707 475.1667,813.9707 478.8333,813.9707 L493.8333,813.9707 C496.6,813.9707 498.8333,811.7374 498.8333,808.9707 C498.8333,806.804 497.4333,804.6707 495.5,803.9707 L495.5,802.304 C495.5,797.704 491.7667,793.9707 487.1667,793.9707 " fill="#0A9EFD" style="stroke:;stroke-width:0.0;stroke-dasharray:;"/><text fill="#0A9EFD" font-family="Arial" font-size="14" lengthAdjust="spacing" textLength="58" x="458.5" y="833.7692">Signaling</text><path d="M10,103.0986 L102,103.0986 L102,110.0474 L92,120.0474 L10,120.0474 L10,103.0986 " fill="#EEEEEE" style="stroke:#0A9EFD;stroke-width:1.5;"/><rect fill="none" height="144.7437" style="stroke:#0A9EFD;stroke-width:2.0;" width="480.5" x="10" y="103.0986"/><text fill="#000000" font-family="Arial" font-size="13" lengthAdjust="spacing" textLength="47" x="25" y="116.2925">Initialize</text><polygon fill="#0A9EFD" points="182.5,136.9961,192.5,140.9961,182.5,144.9961,186.5,140.9961" style="stroke:#0A9EFD;stroke-width:1.0;"/><line style="stroke:#0A9EFD;stroke-width:2.0;" x1="37.5" x2="188.5" y1="140.9961" y2="140.9961"/><text fill="#0A9EFD" font-family="Arial" font-size="13" lengthAdjust="spacing" textLength="56" x="88" y="136.2412">Open app</text><line style="stroke:#0A9EFD;stroke-width:2.0;" x1="194.5" x2="236.5" y1="184.8936" y2="184.8936"/><line style="stroke:#0A9EFD;stroke-width:2.0;" x1="236.5" x2="236.5" y1="184.8936" y2="197.8936"/><line style="stroke:#0A9EFD;stroke-width:2.0;" x1="195.5" x2="236.5" y1="197.8936" y2="197.8936"/><polygon fill="#0A9EFD" points="205.5,193.8936,195.5,197.8936,205.5,201.8936,201.5,197.8936" style="stroke:#0A9EFD;stroke-width:1.0;"/><text fill="#0A9EFD" font-family="Arial" font-size="13" lengthAdjust="spacing" textLength="167" x="254.5" y="165.1899">Create a RtmClient instance:</text><text fill="#0A9EFD" font-family="Arial" font-size="13" lengthAdjust="spacing" textLength="273" x="205.5" y="180.1387">final (status, client) = await RTM(appId, userId);</text><line style="stroke:#0A9EFD;stroke-width:2.0;" x1="194.5" x2="236.5" y1="226.8423" y2="226.8423"/><line style="stroke:#0A9EFD;stroke-width:2.0;" x1="236.5" x2="236.5" y1="226.8423" y2="239.8423"/><line style="stroke:#0A9EFD;stroke-width:2.0;" x1="195.5" x2="236.5" y1="239.8423" y2="239.8423"/><polygon fill="#0A9EFD" points="205.5,235.8423,195.5,239.8423,205.5,243.8423,201.5,239.8423" style="stroke:#0A9EFD;stroke-width:1.0;"/><text fill="#0A9EFD" font-family="Arial" font-size="13" lengthAdjust="spacing" textLength="110" x="201.5" y="222.0874">Add event listeners</text><path d="M10,261.8423 L86,261.8423 L86,268.791 L76,278.791 L10,278.791 L10,261.8423 " fill="#EEEEEE" style="stroke:#0A9EFD;stroke-width:1.5;"/><rect fill="none" height="116.7949" style="stroke:#0A9EFD;stroke-width:2.0;" width="523.5" x="10" y="261.8423"/><text fill="#000000" font-family="Arial" font-size="13" lengthAdjust="spacing" textLength="31" x="25" y="275.0361">Login</text><polygon fill="#0A9EFD" points="182.5,295.7397,192.5,299.7397,182.5,303.7397,186.5,299.7397" style="stroke:#0A9EFD;stroke-width:1.0;"/><line style="stroke:#0A9EFD;stroke-width:2.0;" x1="37.5" x2="188.5" y1="299.7397" y2="299.7397"/><text fill="#0A9EFD" font-family="Arial" font-size="13" lengthAdjust="spacing" textLength="111" x="60.5" y="294.9849">Log in to Signaling:</text><line style="stroke:#0A9EFD;stroke-width:2.0;" x1="194.5" x2="236.5" y1="328.6885" y2="328.6885"/><line style="stroke:#0A9EFD;stroke-width:2.0;" x1="236.5" x2="236.5" y1="328.6885" y2="341.6885"/><line style="stroke:#0A9EFD;stroke-width:2.0;" x1="195.5" x2="236.5" y1="341.6885" y2="341.6885"/><polygon fill="#0A9EFD" points="205.5,337.6885,195.5,341.6885,205.5,345.6885,201.5,341.6885" style="stroke:#0A9EFD;stroke-width:1.0;"/><text fill="#0A9EFD" font-family="Arial" font-size="13" lengthAdjust="spacing" textLength="164" x="201.5" y="323.9336">Get the authentication token</text><polygon fill="#0A9EFD" points="473.5,366.6372,483.5,370.6372,473.5,374.6372,477.5,370.6372" style="stroke:#0A9EFD;stroke-width:1.0;"/><line style="stroke:#0A9EFD;stroke-width:2.0;" x1="194.5" x2="479.5" y1="370.6372" y2="370.6372"/><text fill="#0A9EFD" font-family="Arial" font-size="13" lengthAdjust="spacing" textLength="123" x="278.5" y="365.8823">rtmClient.login(token)</text><path d="M10,392.6372 L115,392.6372 L115,399.5859 L105,409.5859 L10,409.5859 L10,392.6372 " fill="#EEEEEE" style="stroke:#0A9EFD;stroke-width:1.5;"/><rect fill="none" height="232.5898" style="stroke:#0A9EFD;stroke-width:2.0;" width="523.5" x="10" y="392.6372"/><text fill="#000000" font-family="Arial" font-size="13" lengthAdjust="spacing" textLength="60" x="25" y="405.8311">Messages</text><polygon fill="#0A9EFD" points="182.5,426.5347,192.5,430.5347,182.5,434.5347,186.5,430.5347" style="stroke:#0A9EFD;stroke-width:1.0;"/><line style="stroke:#0A9EFD;stroke-width:2.0;" x1="37.5" x2="188.5" y1="430.5347" y2="430.5347"/><text fill="#0A9EFD" font-family="Arial" font-size="13" lengthAdjust="spacing" textLength="100" x="66" y="425.7798">Publish message</text><polygon fill="#0A9EFD" points="473.5,455.4834,483.5,459.4834,473.5,463.4834,477.5,459.4834" style="stroke:#0A9EFD;stroke-width:1.0;"/><line style="stroke:#0A9EFD;stroke-width:2.0;" x1="194.5" x2="479.5" y1="459.4834" y2="459.4834"/><text fill="#0A9EFD" font-family="Arial" font-size="13" lengthAdjust="spacing" textLength="97" x="291.5" y="454.7285">rtmClient.publish</text><polygon fill="#0A9EFD" points="182.5,484.4321,192.5,488.4321,182.5,492.4321,186.5,488.4321" style="stroke:#0A9EFD;stroke-width:1.0;"/><line style="stroke:#0A9EFD;stroke-width:2.0;" x1="37.5" x2="188.5" y1="488.4321" y2="488.4321"/><text fill="#0A9EFD" font-family="Arial" font-size="13" lengthAdjust="spacing" textLength="133" x="49.5" y="483.6772">Subscribe to a channel</text><polygon fill="#0A9EFD" points="473.5,513.3809,483.5,517.3809,473.5,521.3809,477.5,517.3809" style="stroke:#0A9EFD;stroke-width:1.0;"/><line style="stroke:#0A9EFD;stroke-width:2.0;" x1="194.5" x2="479.5" y1="517.3809" y2="517.3809"/><text fill="#0A9EFD" font-family="Arial" font-size="13" lengthAdjust="spacing" textLength="112" x="284" y="512.626">rtmClient.subscribe</text><line style="stroke:#0A9EFD;stroke-width:2.0;" x1="194.5" x2="236.5" y1="546.3296" y2="546.3296"/><line style="stroke:#0A9EFD;stroke-width:2.0;" x1="236.5" x2="236.5" y1="546.3296" y2="559.3296"/><line style="stroke:#0A9EFD;stroke-width:2.0;" x1="195.5" x2="236.5" y1="559.3296" y2="559.3296"/><polygon fill="#0A9EFD" points="205.5,555.3296,195.5,559.3296,205.5,563.3296,201.5,559.3296" style="stroke:#0A9EFD;stroke-width:1.0;"/><text fill="#0A9EFD" font-family="Arial" font-size="13" lengthAdjust="spacing" textLength="151" x="201.5" y="541.5747">Listen for message events</text><polygon fill="#0A9EFD" points="205.5,584.2783,195.5,588.2783,205.5,592.2783,201.5,588.2783" style="stroke:#0A9EFD;stroke-width:1.0;"/><line style="stroke:#0A9EFD;stroke-width:2.0;" x1="199.5" x2="484.5" y1="588.2783" y2="588.2783"/><text fill="#0A9EFD" font-family="Arial" font-size="13" lengthAdjust="spacing" textLength="160" x="260" y="583.5234">message: onMessageEvent</text><polygon fill="#0A9EFD" points="48.5,613.2271,38.5,617.2271,48.5,621.2271,44.5,617.2271" style="stroke:#0A9EFD;stroke-width:1.0;"/><line style="stroke:#0A9EFD;stroke-width:2.0;" x1="42.5" x2="193.5" y1="617.2271" y2="617.2271"/><text fill="#0A9EFD" font-family="Arial" font-size="13" lengthAdjust="spacing" textLength="102" x="65" y="612.4722">Receive message</text><path d="M10,639.2271 L88,639.2271 L88,646.1758 L78,656.1758 L10,656.1758 L10,639.2271 " fill="#EEEEEE" style="stroke:#0A9EFD;stroke-width:1.5;"/><rect fill="none" height="131.7437" style="stroke:#0A9EFD;stroke-width:2.0;" width="523.5" x="10" y="639.2271"/><text fill="#000000" font-family="Arial" font-size="13" lengthAdjust="spacing" textLength="33" x="25" y="652.4209">Close</text><polygon fill="#0A9EFD" points="182.5,673.1245,192.5,677.1245,182.5,681.1245,186.5,677.1245" style="stroke:#0A9EFD;stroke-width:1.0;"/><line style="stroke:#0A9EFD;stroke-width:2.0;" x1="37.5" x2="188.5" y1="677.1245" y2="677.1245"/><text fill="#0A9EFD" font-family="Arial" font-size="13" lengthAdjust="spacing" textLength="43" x="94.5" y="672.3696">Log out</text><polygon fill="#0A9EFD" points="473.5,702.0732,483.5,706.0732,473.5,710.0732,477.5,706.0732" style="stroke:#0A9EFD;stroke-width:1.0;"/><line style="stroke:#0A9EFD;stroke-width:2.0;" x1="194.5" x2="479.5" y1="706.0732" y2="706.0732"/><text fill="#0A9EFD" font-family="Arial" font-size="13" lengthAdjust="spacing" textLength="91" x="294.5" y="701.3184">rtmClient.logout</text><line style="stroke:#0A9EFD;stroke-width:2.0;" x1="194.5" x2="236.5" y1="749.9707" y2="749.9707"/><line style="stroke:#0A9EFD;stroke-width:2.0;" x1="236.5" x2="236.5" y1="749.9707" y2="762.9707"/><line style="stroke:#0A9EFD;stroke-width:2.0;" x1="195.5" x2="236.5" y1="762.9707" y2="762.9707"/><polygon fill="#0A9EFD" points="205.5,758.9707,195.5,762.9707,205.5,766.9707,201.5,762.9707" style="stroke:#0A9EFD;stroke-width:1.0;"/><text fill="#0A9EFD" font-family="Arial" font-size="13" lengthAdjust="spacing" textLength="55" x="223" y="730.2671">Clean up:</text><text fill="#0A9EFD" font-family="Arial" font-size="13" lengthAdjust="spacing" textLength="98" x="205.5" y="745.2158">rtmClient.release</text><!--SRC=[TP9FQzj04CNl-XHJ7O8DQSWX9pKr6BSKaOGQkpa42cMyciX3rhDY_wHjFdrdPTcEABu8DFlszzuRzWEBiQaXmDPv_1LUMAuuxMnHe8dEG_aOo9U00HxNgwBOk3zGFhda0RkkB3hqaGrtA17Asy1lLDrSpsulBFub7sO_1TRS2bgM5jPVxdhEVBaiI1fGrC2RP-lpC6DTQaQiWLEVEArtgODQEB8gtgZGjF1nbiqg-DwHvBo5_Xs72qyOjJQiucvXcTIK9KGKGnMesJEh5qnq4bEu1DDBfl0Py3ToXDMFXuaYw-OIacweRgQVHlXvqm2zPghb44bq7Jdj8UczQrb68NMY0I2wKyqAHiXl525kDNBIh-YgCBBBDrv8JiAw0dzeT6MppQHNJD_RFr08s58O9LYcZMRTmcv_U0RPxLMZc-kq2SRpXd9y1BD54R9d0E4W7fMxxxS4p_ha1l_z-eAgwgDgEAh0oL3XQnOTI9gfWXKPubSwrdXNUs5TeF-sxb8ylxxHONusbb0WTVqREIazwJpipVu1]--></g></svg>