<?xml version="1.0" encoding="us-ascii" standalone="no"?><svg xmlns="http://www.w3.org/2000/svg" xmlns:xlink="http://www.w3.org/1999/xlink" contentStyleType="text/css" height="762px" preserveAspectRatio="none" style="width:419px;height:762px;" version="1.1" viewBox="0 0 419 762" width="419px" zoomAndPan="magnify"><defs/><g><rect fill="none" height="760.2231" style="stroke:#0A9EFD;stroke-width:1.0;" width="417" x="0" y="0"/><rect fill="#999999" fill-opacity="0.33333" height="750.2231" style="stroke:#0A9EFD;stroke-width:0.5;" width="116" x="108" y="6"/><text fill="#0A9EFD" font-family="sans-serif" font-size="13" font-weight="bold" lengthAdjust="spacing" textLength="62" x="135" y="18.5684">Your app</text><rect fill="#999999" fill-opacity="0.33333" height="750.2231" style="stroke:#0A9EFD;stroke-width:0.5;" width="84" x="323" y="6"/><text fill="#0A9EFD" font-family="sans-serif" font-size="13" font-weight="bold" lengthAdjust="spacing" textLength="41" x="344.5" y="18.5684">Agora</text><rect fill="#0A9EFD" fill-opacity="0.06667" height="188.6411" style="stroke:#0A9EFD;stroke-width:2.0;" width="403" x="10" y="103.0986"/><rect fill="#0A9EFD" fill-opacity="0.06667" height="203.6411" style="stroke:#0A9EFD;stroke-width:2.0;" width="403" x="10" y="305.7397"/><rect fill="#0A9EFD" fill-opacity="0.06667" height="131.7437" style="stroke:#0A9EFD;stroke-width:2.0;" width="403" x="10" y="523.3809"/><line style="stroke:#0A9EFD;stroke-width:0.5;stroke-dasharray:5.0,5.0;" x1="38" x2="38" y1="86.0986" y2="672.1245"/><line style="stroke:#0A9EFD;stroke-width:0.5;stroke-dasharray:5.0,5.0;" x1="166" x2="166" y1="86.0986" y2="672.1245"/><line style="stroke:#0A9EFD;stroke-width:0.5;stroke-dasharray:5.0,5.0;" x1="365" x2="365" y1="86.0986" y2="672.1245"/><text fill="#0A9EFD" font-family="Arial" font-size="14" lengthAdjust="spacing" textLength="30" x="20" y="83.1318">User</text><ellipse cx="38" cy="16" fill="none" rx="8" ry="8" style="stroke:#0A9EFD;stroke-width:3.0;"/><path d="M38,24 L38,51 M25,32 L51,32 M38,51 L25,66 M38,51 L51,66 " fill="none" style="stroke:#0A9EFD;stroke-width:3.0;"/><text fill="#0A9EFD" font-family="Arial" font-size="14" lengthAdjust="spacing" textLength="30" x="20" y="684.2563">User</text><ellipse cx="38" cy="698.2231" fill="none" rx="8" ry="8" style="stroke:#0A9EFD;stroke-width:3.0;"/><path d="M38,706.2231 L38,733.2231 M25,714.2231 L51,714.2231 M38,733.2231 L25,748.2231 M38,733.2231 L51,748.2231 " fill="none" style="stroke:#0A9EFD;stroke-width:3.0;"/><rect fill="none" height="56.7653" rx="2.5" ry="2.5" style="stroke:#0A9EFD;stroke-width:2.0;" width="108" x="112" y="28.3333"/><path d="M152.6667,35.3333 L152.6667,48.6667 L166,48.6667 L166,35.3333 L152.6667,35.3333 M169.3333,42 L169.3333,52 L159.3333,52 L159.3333,55.3333 L172.6667,55.3333 L172.6667,42 L169.3333,42 M176,48.6667 L176,58.6667 L166,58.6667 L166,62 L179.3333,62 L179.3333,48.6667 L176,48.6667 " fill="#0A9EFD" style="stroke:;stroke-width:0.0;stroke-dasharray:;"/><text fill="#0A9EFD" font-family="Arial" font-size="14" lengthAdjust="spacing" textLength="90" x="123" y="75.1318">Signaling SDK</text><rect fill="none" height="56.7653" rx="2.5" ry="2.5" style="stroke:#0A9EFD;stroke-width:2.0;" width="108" x="112" y="671.1245"/><path d="M152.6667,678.1245 L152.6667,691.4578 L166,691.4578 L166,678.1245 L152.6667,678.1245 M169.3333,684.7912 L169.3333,694.7912 L159.3333,694.7912 L159.3333,698.1245 L172.6667,698.1245 L172.6667,684.7912 L169.3333,684.7912 M176,691.4578 L176,701.4578 L166,701.4578 L166,704.7912 L179.3333,704.7912 L179.3333,691.4578 L176,691.4578 " fill="#0A9EFD" style="stroke:;stroke-width:0.0;stroke-dasharray:;"/><text fill="#0A9EFD" font-family="Arial" font-size="14" lengthAdjust="spacing" textLength="90" x="123" y="717.923">Signaling SDK</text><rect fill="none" height="56.7653" rx="2.5" ry="2.5" style="stroke:#0A9EFD;stroke-width:2.0;" width="76" x="327" y="28.3333"/><path d="M366.6667,35.3333 C362.6333,35.3333 359.1,38.2 358.3333,42 C354.6667,42 351.6667,45 351.6667,48.6667 C351.6667,52.3333 354.6667,55.3333 358.3333,55.3333 L373.3333,55.3333 C376.1,55.3333 378.3333,53.1 378.3333,50.3333 C378.3333,48.1667 376.9333,46.0333 375,45.3333 L375,43.6667 C375,39.0667 371.2667,35.3333 366.6667,35.3333 " fill="#0A9EFD" style="stroke:;stroke-width:0.0;stroke-dasharray:;"/><text fill="#0A9EFD" font-family="Arial" font-size="14" lengthAdjust="spacing" textLength="58" x="338" y="75.1318">Signaling</text><rect fill="none" height="56.7653" rx="2.5" ry="2.5" style="stroke:#0A9EFD;stroke-width:2.0;" width="76" x="327" y="671.1245"/><path d="M366.6667,678.1245 C362.6333,678.1245 359.1,680.9912 358.3333,684.7912 C354.6667,684.7912 351.6667,687.7912 351.6667,691.4578 C351.6667,695.1245 354.6667,698.1245 358.3333,698.1245 L373.3333,698.1245 C376.1,698.1245 378.3333,695.8912 378.3333,693.1245 C378.3333,690.9578 376.9333,688.8245 375,688.1245 L375,686.4578 C375,681.8578 371.2667,678.1245 366.6667,678.1245 " fill="#0A9EFD" style="stroke:;stroke-width:0.0;stroke-dasharray:;"/><text fill="#0A9EFD" font-family="Arial" font-size="14" lengthAdjust="spacing" textLength="58" x="338" y="717.923">Signaling</text><path d="M10,103.0986 L103,103.0986 L103,110.0474 L93,120.0474 L10,120.0474 L10,103.0986 " fill="#EEEEEE" style="stroke:#0A9EFD;stroke-width:1.5;"/><rect fill="none" height="188.6411" style="stroke:#0A9EFD;stroke-width:2.0;" width="403" x="10" y="103.0986"/><text fill="#000000" font-family="Arial" font-size="13" lengthAdjust="spacing" textLength="48" x="25" y="116.2925">Initialize</text><polygon fill="#0A9EFD" points="154,136.9961,164,140.9961,154,144.9961,158,140.9961" style="stroke:#0A9EFD;stroke-width:1.0;"/><line style="stroke:#0A9EFD;stroke-width:2.0;" x1="38" x2="160" y1="140.9961" y2="140.9961"/><text fill="#0A9EFD" font-family="Arial" font-size="13" lengthAdjust="spacing" textLength="56" x="74" y="136.2412">Open app</text><line style="stroke:#0A9EFD;stroke-width:2.0;" x1="166" x2="208" y1="184.8936" y2="184.8936"/><line style="stroke:#0A9EFD;stroke-width:2.0;" x1="208" x2="208" y1="184.8936" y2="197.8936"/><line style="stroke:#0A9EFD;stroke-width:2.0;" x1="167" x2="208" y1="197.8936" y2="197.8936"/><polygon fill="#0A9EFD" points="177,193.8936,167,197.8936,177,201.8936,173,197.8936" style="stroke:#0A9EFD;stroke-width:1.0;"/><text fill="#0A9EFD" font-family="Arial" font-size="13" lengthAdjust="spacing" textLength="171" x="178" y="165.1899">Create a RTMClient instance:</text><text fill="#0A9EFD" font-family="Arial" font-size="13" lengthAdjust="spacing" textLength="181" x="177" y="180.1387">engine = createAgoraRtmClient</text><line style="stroke:#0A9EFD;stroke-width:2.0;" x1="166" x2="208" y1="241.791" y2="241.791"/><line style="stroke:#0A9EFD;stroke-width:2.0;" x1="208" x2="208" y1="241.791" y2="254.791"/><line style="stroke:#0A9EFD;stroke-width:2.0;" x1="167" x2="208" y1="254.791" y2="254.791"/><polygon fill="#0A9EFD" points="177,250.791,167,254.791,177,258.791,173,254.791" style="stroke:#0A9EFD;stroke-width:1.0;"/><text fill="#0A9EFD" font-family="Arial" font-size="13" lengthAdjust="spacing" textLength="116" x="173" y="222.0874">Add event listeners:</text><text fill="#0A9EFD" font-family="Arial" font-size="13" lengthAdjust="spacing" textLength="79" x="195.5" y="237.0361">useRtmEvent</text><polygon fill="#0A9EFD" points="353,279.7397,363,283.7397,353,287.7397,357,283.7397" style="stroke:#0A9EFD;stroke-width:1.0;"/><line style="stroke:#0A9EFD;stroke-width:2.0;" x1="166" x2="359" y1="283.7397" y2="283.7397"/><text fill="#0A9EFD" font-family="Arial" font-size="13" lengthAdjust="spacing" textLength="95" x="218" y="278.9849">Log in: useLogin</text><path d="M10,305.7397 L115,305.7397 L115,312.6885 L105,322.6885 L10,322.6885 L10,305.7397 " fill="#EEEEEE" style="stroke:#0A9EFD;stroke-width:1.5;"/><rect fill="none" height="203.6411" style="stroke:#0A9EFD;stroke-width:2.0;" width="403" x="10" y="305.7397"/><text fill="#000000" font-family="Arial" font-size="13" lengthAdjust="spacing" textLength="60" x="25" y="318.9336">Messages</text><polygon fill="#0A9EFD" points="154,339.6372,164,343.6372,154,347.6372,158,343.6372" style="stroke:#0A9EFD;stroke-width:1.0;"/><line style="stroke:#0A9EFD;stroke-width:2.0;" x1="38" x2="160" y1="343.6372" y2="343.6372"/><text fill="#0A9EFD" font-family="Arial" font-size="13" lengthAdjust="spacing" textLength="100" x="52" y="338.8823">Publish message</text><polygon fill="#0A9EFD" points="353,368.5859,363,372.5859,353,376.5859,357,372.5859" style="stroke:#0A9EFD;stroke-width:1.0;"/><line style="stroke:#0A9EFD;stroke-width:2.0;" x1="166" x2="359" y1="372.5859" y2="372.5859"/><text fill="#0A9EFD" font-family="Arial" font-size="13" lengthAdjust="spacing" textLength="133" x="199" y="367.8311">Subscribe to a channel</text><polygon fill="#0A9EFD" points="353,397.5347,363,401.5347,353,405.5347,357,401.5347" style="stroke:#0A9EFD;stroke-width:1.0;"/><line style="stroke:#0A9EFD;stroke-width:2.0;" x1="166" x2="359" y1="401.5347" y2="401.5347"/><text fill="#0A9EFD" font-family="Arial" font-size="13" lengthAdjust="spacing" textLength="83" x="224" y="396.7798">engine.publish</text><line style="stroke:#0A9EFD;stroke-width:2.0;" x1="166" x2="208" y1="430.4834" y2="430.4834"/><line style="stroke:#0A9EFD;stroke-width:2.0;" x1="208" x2="208" y1="430.4834" y2="443.4834"/><line style="stroke:#0A9EFD;stroke-width:2.0;" x1="167" x2="208" y1="443.4834" y2="443.4834"/><polygon fill="#0A9EFD" points="177,439.4834,167,443.4834,177,447.4834,173,443.4834" style="stroke:#0A9EFD;stroke-width:1.0;"/><text fill="#0A9EFD" font-family="Arial" font-size="13" lengthAdjust="spacing" textLength="154" x="173" y="425.7285">Listen for message events</text><polygon fill="#0A9EFD" points="177,468.4321,167,472.4321,177,476.4321,173,472.4321" style="stroke:#0A9EFD;stroke-width:1.0;"/><line style="stroke:#0A9EFD;stroke-width:2.0;" x1="171" x2="364" y1="472.4321" y2="472.4321"/><text fill="#0A9EFD" font-family="Arial" font-size="13" lengthAdjust="spacing" textLength="148" x="191.5" y="467.6772">message: MessageEvent</text><polygon fill="#0A9EFD" points="49,497.3809,39,501.3809,49,505.3809,45,501.3809" style="stroke:#0A9EFD;stroke-width:1.0;"/><line style="stroke:#0A9EFD;stroke-width:2.0;" x1="43" x2="165" y1="501.3809" y2="501.3809"/><text fill="#0A9EFD" font-family="Arial" font-size="13" lengthAdjust="spacing" textLength="104" x="50" y="496.626">Receive message</text><path d="M10,523.3809 L88,523.3809 L88,530.3296 L78,540.3296 L10,540.3296 L10,523.3809 " fill="#EEEEEE" style="stroke:#0A9EFD;stroke-width:1.5;"/><rect fill="none" height="131.7437" style="stroke:#0A9EFD;stroke-width:2.0;" width="403" x="10" y="523.3809"/><text fill="#000000" font-family="Arial" font-size="13" lengthAdjust="spacing" textLength="33" x="25" y="536.5747">Close</text><polygon fill="#0A9EFD" points="154,557.2783,164,561.2783,154,565.2783,158,561.2783" style="stroke:#0A9EFD;stroke-width:1.0;"/><line style="stroke:#0A9EFD;stroke-width:2.0;" x1="38" x2="160" y1="561.2783" y2="561.2783"/><text fill="#0A9EFD" font-family="Arial" font-size="13" lengthAdjust="spacing" textLength="43" x="80.5" y="556.5234">Log out</text><polygon fill="#0A9EFD" points="353,586.2271,363,590.2271,353,594.2271,357,590.2271" style="stroke:#0A9EFD;stroke-width:1.0;"/><line style="stroke:#0A9EFD;stroke-width:2.0;" x1="166" x2="359" y1="590.2271" y2="590.2271"/><text fill="#0A9EFD" font-family="Arial" font-size="13" lengthAdjust="spacing" textLength="77" x="227" y="585.4722">engine.logout</text><line style="stroke:#0A9EFD;stroke-width:2.0;" x1="166" x2="208" y1="634.1245" y2="634.1245"/><line style="stroke:#0A9EFD;stroke-width:2.0;" x1="208" x2="208" y1="634.1245" y2="647.1245"/><line style="stroke:#0A9EFD;stroke-width:2.0;" x1="167" x2="208" y1="647.1245" y2="647.1245"/><polygon fill="#0A9EFD" points="177,643.1245,167,647.1245,177,651.1245,173,647.1245" style="stroke:#0A9EFD;stroke-width:1.0;"/><text fill="#0A9EFD" font-family="Arial" font-size="13" lengthAdjust="spacing" textLength="55" x="187.5" y="614.4209">Clean up:</text><text fill="#0A9EFD" font-family="Arial" font-size="13" lengthAdjust="spacing" textLength="84" x="177" y="629.3696">engine.release</text><!--SRC=[TP7DJy904CNl_Il67hn9F7Xga8IWXqQ81EHWOcAMxLWcBhFDVX3bhtVw0RA9thOxRt_llSuLiJQnGb2rTUhTVnAFAEvDbYaTh8Dyuz7be3nirgiiszelo5zjTA2Q9iyQvG9fQXG7oCUUZbZStKx6rqPze_EJDuOrrQmCSGthXwUECrqkC-GA13Nmfgtr_p1jRAmIri0fVpcrix61aYcGA8wOILgucRHc1Jmto6tUJBxEbpE7AaXjMBqiPePGJ8bzKAon0353heaHxa5tmYxZAknxQKAQLXNWeGKOyW5PcdU4w54UF1uIVLd0tDPYLRHpEHAtBKuD5kYzgj4d-PTnA-GTxFjX0bl7hTUEjWZ1IXczKyne4adVPDJqb2Jwl0iC7xBe0TutyQ8gpwfXL9pI9PKaQ04hr4W7F2UyQ3GprgVhQFlR6FxAQ6oTJDez6LJoBvkBfOmSogNlRNu0]--></g></svg>