<svg xmlns="http://www.w3.org/2000/svg" xmlns:xlink="http://www.w3.org/1999/xlink" contentStyleType="text/css" data-diagram-type="SEQUENCE" height="1167px" preserveAspectRatio="none" style="width:645px;height:1167px;" version="1.1" viewBox="0 0 645 1167" width="645px" zoomAndPan="magnify"><defs/><g><rect fill="none" height="1165.4028" style="stroke:#0A9EFD;stroke-width:1;" width="643.3433" x="0" y="0"/><rect fill="#999999" fill-opacity="0.33333" height="1155.4028" style="stroke:#0A9EFD;stroke-width:0.5;" width="116.165" x="191.5938" y="6"/><text fill="#0A9EFD" font-family="sans-serif" font-size="13" font-weight="bold" lengthAdjust="spacing" textLength="56.3354" x="221.5085" y="19.4951">Your app</text><rect fill="#999999" fill-opacity="0.33333" height="1155.4028" style="stroke:#0A9EFD;stroke-width:0.5;" width="83.4893" x="549.854" y="6"/><text fill="#0A9EFD" font-family="sans-serif" font-size="13" font-weight="bold" lengthAdjust="spacing" textLength="37.5591" x="572.8191" y="19.4951">Agora</text><rect fill="#0A9EFD" fill-opacity="0.06667" height="273.4873" style="stroke:#0A9EFD;stroke-width:2;" width="460.2397" x="10" y="103.0986"/><rect fill="#0A9EFD" fill-opacity="0.06667" height="219.5386" style="stroke:#0A9EFD;stroke-width:2;" width="453.7495" x="185.5938" y="390.5859"/><rect fill="#0A9EFD" fill-opacity="0.06667" height="261.4873" style="stroke:#0A9EFD;stroke-width:2;" width="629.3433" x="10" y="624.1245"/><rect fill="#0A9EFD" fill-opacity="0.06667" height="160.6924" style="stroke:#0A9EFD;stroke-width:2;" width="629.3433" x="10" y="899.6118"/><g><title>User</title><rect fill="#000000" fill-opacity="0.00000" height="991.2056" width="8" x="33.7793" y="86.0986"/><line style="stroke:#0A9EFD;stroke-width:0.5;stroke-dasharray:5.0,5.0;" x1="37" x2="37" y1="86.0986" y2="1077.3042"/></g><g><title>&lt;size:40&gt;&lt;&amp;layers&gt;</title><rect fill="#000000" fill-opacity="0.00000" height="991.2056" width="8" x="245.6763" y="86.0986"/><line style="stroke:#0A9EFD;stroke-width:0.5;stroke-dasharray:5.0,5.0;" x1="249.5938" x2="249.5938" y1="86.0986" y2="1077.3042"/></g><g><title>&lt;size:40&gt;&lt;&amp;cloud&gt;</title><rect fill="#000000" fill-opacity="0.00000" height="991.2056" width="8" x="587.5986" y="86.0986"/><line style="stroke:#0A9EFD;stroke-width:0.5;stroke-dasharray:5.0,5.0;" x1="590.854" x2="590.854" y1="86.0986" y2="1077.3042"/></g><g class="participant participant-head" data-participant="USR"><text fill="#0A9EFD" font-family="Arial" font-size="14" lengthAdjust="spacing" textLength="29.5586" x="20" y="83.1318">User</text><ellipse cx="37.7793" cy="16" fill="none" rx="8" ry="8" style="stroke:#0A9EFD;stroke-width:3;"/><path d="M37.7793,24 L37.7793,51 M24.7793,32 L50.7793,32 M37.7793,51 L24.7793,66 M37.7793,51 L50.7793,66" fill="none" style="stroke:#0A9EFD;stroke-width:3;"/></g><g class="participant participant-tail" data-participant="USR"><text fill="#0A9EFD" font-family="Arial" font-size="14" lengthAdjust="spacing" textLength="29.5586" x="20" y="1089.436">User</text><ellipse cx="37.7793" cy="1103.4028" fill="none" rx="8" ry="8" style="stroke:#0A9EFD;stroke-width:3;"/><path d="M37.7793,1111.4028 L37.7793,1138.4028 M24.7793,1119.4028 L50.7793,1119.4028 M37.7793,1138.4028 L24.7793,1153.4028 M37.7793,1138.4028 L50.7793,1153.4028" fill="none" style="stroke:#0A9EFD;stroke-width:3;"/></g><g class="participant participant-head" data-participant="APP"><rect fill="none" height="56.7653" rx="2.5" ry="2.5" style="stroke:#0A9EFD;stroke-width:2;" width="108.165" x="195.5938" y="28.3333"/><path d="M236.3429,35.3333 L236.3429,48.6667 L249.6763,48.6667 L249.6763,35.3333 L236.3429,35.3333 M253.0096,42 L253.0096,52 L243.0096,52 L243.0096,55.3333 L256.3429,55.3333 L256.3429,42 L253.0096,42 M259.6763,48.6667 L259.6763,58.6667 L249.6763,58.6667 L249.6763,62 L263.0096,62 L263.0096,48.6667 L259.6763,48.6667" fill="#0A9EFD"/><text fill="#0A9EFD" font-family="Arial" font-size="14" lengthAdjust="spacing" textLength="90.2754" x="206.4834" y="75.1318">Signaling SDK</text></g><g class="participant participant-tail" data-participant="APP"><rect fill="none" height="56.7653" rx="2.5" ry="2.5" style="stroke:#0A9EFD;stroke-width:2;" width="108.165" x="195.5938" y="1076.3042"/><path d="M236.3429,1083.3042 L236.3429,1096.6375 L249.6763,1096.6375 L249.6763,1083.3042 L236.3429,1083.3042 M253.0096,1089.9709 L253.0096,1099.9709 L243.0096,1099.9709 L243.0096,1103.3042 L256.3429,1103.3042 L256.3429,1089.9709 L253.0096,1089.9709 M259.6763,1096.6375 L259.6763,1106.6375 L249.6763,1106.6375 L249.6763,1109.9709 L263.0096,1109.9709 L263.0096,1096.6375 L259.6763,1096.6375" fill="#0A9EFD"/><text fill="#0A9EFD" font-family="Arial" font-size="14" lengthAdjust="spacing" textLength="90.2754" x="206.4834" y="1123.1027">Signaling SDK</text></g><g class="participant participant-head" data-participant="API"><rect fill="none" height="56.7653" rx="2.5" ry="2.5" style="stroke:#0A9EFD;stroke-width:2;" width="75.4893" x="553.854" y="28.3333"/><path d="M593.2653,38.6667 C589.232,38.6667 585.6986,41.5333 584.932,45.3333 C581.2653,45.3333 578.2653,48.3333 578.2653,52 C578.2653,55.6667 581.2653,58.6667 584.932,58.6667 L599.932,58.6667 C602.6986,58.6667 604.932,56.4333 604.932,53.6667 C604.932,51.5 603.532,49.3667 601.5986,48.6667 L601.5986,47 C601.5986,42.4 597.8653,38.6667 593.2653,38.6667" fill="#0A9EFD"/><text fill="#0A9EFD" font-family="Arial" font-size="14" lengthAdjust="spacing" textLength="57.5996" x="564.7437" y="75.1318">Signaling</text></g><g class="participant participant-tail" data-participant="API"><rect fill="none" height="56.7653" rx="2.5" ry="2.5" style="stroke:#0A9EFD;stroke-width:2;" width="75.4893" x="553.854" y="1076.3042"/><path d="M593.2653,1086.6375 C589.232,1086.6375 585.6986,1089.5042 584.932,1093.3042 C581.2653,1093.3042 578.2653,1096.3042 578.2653,1099.9709 C578.2653,1103.6375 581.2653,1106.6375 584.932,1106.6375 L599.932,1106.6375 C602.6986,1106.6375 604.932,1104.4042 604.932,1101.6375 C604.932,1099.4709 603.532,1097.3375 601.5986,1096.6375 L601.5986,1094.9709 C601.5986,1090.3709 597.8653,1086.6375 593.2653,1086.6375" fill="#0A9EFD"/><text fill="#0A9EFD" font-family="Arial" font-size="14" lengthAdjust="spacing" textLength="57.5996" x="564.7437" y="1123.1027">Signaling</text></g><path d="M10,103.0986 L101.9663,103.0986 L101.9663,110.0474 L91.9663,120.0474 L10,120.0474 L10,103.0986" fill="#EEEEEE" style="stroke:#0A9EFD;stroke-width:1.5;"/><rect fill="none" height="273.4873" style="stroke:#0A9EFD;stroke-width:2;" width="460.2397" x="10" y="103.0986"/><text fill="#000000" font-family="Arial" font-size="13" lengthAdjust="spacing" textLength="46.9663" x="25" y="116.2925">Initialize</text><g class="message" data-participant-1="USR" data-participant-2="APP"><polygon fill="#0A9EFD" points="237.6763,136.9961,247.6763,140.9961,237.6763,144.9961,241.6763,140.9961" style="stroke:#0A9EFD;stroke-width:1;"/><line style="stroke:#0A9EFD;stroke-width:2;" x1="37.7793" x2="243.6763" y1="140.9961" y2="140.9961"/><text fill="#0A9EFD" font-family="Arial" font-size="13" lengthAdjust="spacing" textLength="57.1035" x="115.176" y="136.2412">Open app</text></g><g class="message" data-participant-1="APP" data-participant-2="APP"><line style="stroke:#0A9EFD;stroke-width:2;" x1="249.6763" x2="291.6763" y1="184.8936" y2="184.8936"/><line style="stroke:#0A9EFD;stroke-width:2;" x1="291.6763" x2="291.6763" y1="184.8936" y2="197.8936"/><line style="stroke:#0A9EFD;stroke-width:2;" x1="250.6763" x2="291.6763" y1="197.8936" y2="197.8936"/><polygon fill="#0A9EFD" points="260.6763,193.8936,250.6763,197.8936,260.6763,201.8936,256.6763,197.8936" style="stroke:#0A9EFD;stroke-width:1;"/><text fill="#0A9EFD" font-family="Arial" font-size="13" lengthAdjust="spacing" textLength="159.6689" x="275.8176" y="165.1899">Create RTMClient instance:</text><text fill="#0A9EFD" font-family="Arial" font-size="13" lengthAdjust="spacing" textLength="197.9517" x="260.2881" y="180.1387">createAgoraRtmClient(RtmConfig)</text></g><g class="message" data-participant-1="APP" data-participant-2="APP"><line style="stroke:#0A9EFD;stroke-width:2;" x1="249.6763" x2="291.6763" y1="226.8423" y2="226.8423"/><line style="stroke:#0A9EFD;stroke-width:2;" x1="291.6763" x2="291.6763" y1="226.8423" y2="239.8423"/><line style="stroke:#0A9EFD;stroke-width:2;" x1="250.6763" x2="291.6763" y1="239.8423" y2="239.8423"/><polygon fill="#0A9EFD" points="260.6763,235.8423,250.6763,239.8423,260.6763,243.8423,256.6763,239.8423" style="stroke:#0A9EFD;stroke-width:1;"/><text fill="#0A9EFD" font-family="Arial" font-size="13" lengthAdjust="spacing" textLength="137.9663" x="256.6763" y="222.0874">Wrap with RTMProvider</text></g><g class="message" data-participant-1="APP" data-participant-2="APP"><line style="stroke:#0A9EFD;stroke-width:2;" x1="249.6763" x2="291.6763" y1="283.7397" y2="283.7397"/><line style="stroke:#0A9EFD;stroke-width:2;" x1="291.6763" x2="291.6763" y1="283.7397" y2="296.7397"/><line style="stroke:#0A9EFD;stroke-width:2;" x1="250.6763" x2="291.6763" y1="296.7397" y2="296.7397"/><polygon fill="#0A9EFD" points="260.6763,292.7397,250.6763,296.7397,260.6763,300.7397,256.6763,296.7397" style="stroke:#0A9EFD;stroke-width:1;"/><text fill="#0A9EFD" font-family="Arial" font-size="13" lengthAdjust="spacing" textLength="119.2471" x="256.6763" y="264.0361">Get engine instance:</text><text fill="#0A9EFD" font-family="Arial" font-size="13" lengthAdjust="spacing" textLength="53.4473" x="293.188" y="278.9849">useRtm()</text></g><g class="message" data-participant-1="APP" data-participant-2="APP"><line style="stroke:#0A9EFD;stroke-width:2;" x1="249.6763" x2="291.6763" y1="355.5859" y2="355.5859"/><line style="stroke:#0A9EFD;stroke-width:2;" x1="291.6763" x2="291.6763" y1="355.5859" y2="368.5859"/><line style="stroke:#0A9EFD;stroke-width:2;" x1="250.6763" x2="291.6763" y1="368.5859" y2="368.5859"/><polygon fill="#0A9EFD" points="260.6763,364.5859,250.6763,368.5859,260.6763,372.5859,256.6763,368.5859" style="stroke:#0A9EFD;stroke-width:1;"/><text fill="#0A9EFD" font-family="Arial" font-size="13" lengthAdjust="spacing" textLength="114.1753" x="296.7268" y="320.9336">Add event listeners:</text><text fill="#0A9EFD" font-family="Arial" font-size="13" lengthAdjust="spacing" textLength="190.6646" x="260.2881" y="335.8823">useRtmEvent(engine, 'message')</text><text fill="#0A9EFD" font-family="Arial" font-size="13" lengthAdjust="spacing" textLength="187.7764" x="263.5381" y="350.8311">useRtmEvent(engine, 'linkState')</text></g><path d="M185.5938,390.5859 L262.4019,390.5859 L262.4019,397.5347 L252.4019,407.5347 L185.5938,407.5347 L185.5938,390.5859" fill="#EEEEEE" style="stroke:#0A9EFD;stroke-width:1.5;"/><rect fill="none" height="219.5386" style="stroke:#0A9EFD;stroke-width:2;" width="453.7495" x="185.5938" y="390.5859"/><text fill="#000000" font-family="Arial" font-size="13" lengthAdjust="spacing" textLength="31.8081" x="200.5938" y="403.7798">Login</text><g class="message" data-participant-1="APP" data-participant-2="API"><polygon fill="#0A9EFD" points="579.5986,424.4834,589.5986,428.4834,579.5986,432.4834,583.5986,428.4834" style="stroke:#0A9EFD;stroke-width:1;"/><line style="stroke:#0A9EFD;stroke-width:2;" x1="249.6763" x2="585.5986" y1="428.4834" y2="428.4834"/><text fill="#0A9EFD" font-family="Arial" font-size="13" lengthAdjust="spacing" textLength="126.4834" x="357.3958" y="423.7285">engine.login({ token })</text></g><g class="message" data-participant-1="API" data-participant-2="APP"><polygon fill="#0A9EFD" points="260.6763,468.3809,250.6763,472.3809,260.6763,476.3809,256.6763,472.3809" style="stroke:#0A9EFD;stroke-width:1;"/><line style="stroke:#0A9EFD;stroke-width:2;" x1="254.6763" x2="590.5986" y1="472.3809" y2="472.3809"/><text fill="#0A9EFD" font-family="Arial" font-size="13" lengthAdjust="spacing" textLength="88.8862" x="374.3884" y="452.6772">linkState event:</text><text fill="#0A9EFD" font-family="Arial" font-size="13" lengthAdjust="spacing" textLength="144.5234" x="350.1816" y="467.626">RtmLinkState.connecting</text></g><g class="message" data-participant-1="API" data-participant-2="APP"><polygon fill="#0A9EFD" points="260.6763,512.2783,250.6763,516.2783,260.6763,520.2783,256.6763,516.2783" style="stroke:#0A9EFD;stroke-width:1;"/><line style="stroke:#0A9EFD;stroke-width:2;" x1="254.6763" x2="590.5986" y1="516.2783" y2="516.2783"/><text fill="#0A9EFD" font-family="Arial" font-size="13" lengthAdjust="spacing" textLength="88.8862" x="374.3884" y="496.5747">linkState event:</text><text fill="#0A9EFD" font-family="Arial" font-size="13" lengthAdjust="spacing" textLength="141.6353" x="351.6257" y="511.5234">RtmLinkState.connected</text></g><g class="message" data-participant-1="APP" data-participant-2="APP"><line style="stroke:#0A9EFD;stroke-width:2;" x1="249.6763" x2="291.6763" y1="560.1758" y2="560.1758"/><line style="stroke:#0A9EFD;stroke-width:2;" x1="291.6763" x2="291.6763" y1="560.1758" y2="573.1758"/><line style="stroke:#0A9EFD;stroke-width:2;" x1="250.6763" x2="291.6763" y1="573.1758" y2="573.1758"/><polygon fill="#0A9EFD" points="260.6763,569.1758,250.6763,573.1758,260.6763,577.1758,256.6763,573.1758" style="stroke:#0A9EFD;stroke-width:1;"/><text fill="#0A9EFD" font-family="Arial" font-size="13" lengthAdjust="spacing" textLength="174.8843" x="256.6763" y="540.4722">Auto-subscribe on connection:</text><text fill="#0A9EFD" font-family="Arial" font-size="13" lengthAdjust="spacing" textLength="127.8926" x="283.7839" y="555.4209">subscribeToChannel()</text></g><g class="message" data-participant-1="APP" data-participant-2="API"><polygon fill="#0A9EFD" points="579.5986,598.1245,589.5986,602.1245,579.5986,606.1245,583.5986,602.1245" style="stroke:#0A9EFD;stroke-width:1;"/><line style="stroke:#0A9EFD;stroke-width:2;" x1="249.6763" x2="585.5986" y1="602.1245" y2="602.1245"/><text fill="#0A9EFD" font-family="Arial" font-size="13" lengthAdjust="spacing" textLength="317.9224" x="261.6763" y="597.3696">engine.subscribe(CHANNEL_ID, { withMessage: true })</text></g><path d="M10,624.1245 L114.249,624.1245 L114.249,631.0732 L104.249,641.0732 L10,641.0732 L10,624.1245" fill="#EEEEEE" style="stroke:#0A9EFD;stroke-width:1.5;"/><rect fill="none" height="261.4873" style="stroke:#0A9EFD;stroke-width:2;" width="629.3433" x="10" y="624.1245"/><text fill="#000000" font-family="Arial" font-size="13" lengthAdjust="spacing" textLength="59.249" x="25" y="637.3184">Messages</text><g class="message" data-participant-1="USR" data-participant-2="APP"><polygon fill="#0A9EFD" points="237.6763,658.022,247.6763,662.022,237.6763,666.022,241.6763,662.022" style="stroke:#0A9EFD;stroke-width:1;"/><line style="stroke:#0A9EFD;stroke-width:2;" x1="37.7793" x2="243.6763" y1="662.022" y2="662.022"/><text fill="#0A9EFD" font-family="Arial" font-size="13" lengthAdjust="spacing" textLength="142.3652" x="72.5452" y="657.2671">Type and send message</text></g><g class="message" data-participant-1="APP" data-participant-2="API"><polygon fill="#0A9EFD" points="579.5986,716.8682,589.5986,720.8682,579.5986,724.8682,583.5986,720.8682" style="stroke:#0A9EFD;stroke-width:1;"/><line style="stroke:#0A9EFD;stroke-width:2;" x1="249.6763" x2="585.5986" y1="720.8682" y2="720.8682"/><text fill="#0A9EFD" font-family="Arial" font-size="13" lengthAdjust="spacing" textLength="242.0679" x="299.6035" y="686.2158">engine.publish(CHANNEL_ID, message, {</text><text fill="#0A9EFD" font-family="Arial" font-size="13" lengthAdjust="spacing" textLength="242.7915" x="301.0476" y="701.1646">channelType: RtmChannelType.message,</text><text fill="#0A9EFD" font-family="Arial" font-size="13" lengthAdjust="spacing" textLength="242.0361" x="301.4253" y="716.1133">messageType: RtmMessageType.string })</text></g><g class="message" data-participant-1="APP" data-participant-2="APP"><line style="stroke:#0A9EFD;stroke-width:2;" x1="249.6763" x2="291.6763" y1="749.8169" y2="749.8169"/><line style="stroke:#0A9EFD;stroke-width:2;" x1="291.6763" x2="291.6763" y1="749.8169" y2="762.8169"/><line style="stroke:#0A9EFD;stroke-width:2;" x1="250.6763" x2="291.6763" y1="762.8169" y2="762.8169"/><polygon fill="#0A9EFD" points="260.6763,758.8169,250.6763,762.8169,260.6763,766.8169,256.6763,762.8169" style="stroke:#0A9EFD;stroke-width:1;"/><text fill="#0A9EFD" font-family="Arial" font-size="13" lengthAdjust="spacing" textLength="184.2725" x="256.6763" y="745.062">Add sent message to local state</text></g><g class="message" data-participant-1="API" data-participant-2="APP"><polygon fill="#0A9EFD" points="260.6763,787.7656,250.6763,791.7656,260.6763,795.7656,256.6763,791.7656" style="stroke:#0A9EFD;stroke-width:1;"/><line style="stroke:#0A9EFD;stroke-width:2;" x1="254.6763" x2="590.5986" y1="791.7656" y2="791.7656"/><text fill="#0A9EFD" font-family="Arial" font-size="13" lengthAdjust="spacing" textLength="186.418" x="327.4285" y="787.0107">message event from other users</text></g><g class="message" data-participant-1="APP" data-participant-2="APP"><line style="stroke:#0A9EFD;stroke-width:2;" x1="249.6763" x2="291.6763" y1="835.6631" y2="835.6631"/><line style="stroke:#0A9EFD;stroke-width:2;" x1="291.6763" x2="291.6763" y1="835.6631" y2="848.6631"/><line style="stroke:#0A9EFD;stroke-width:2;" x1="250.6763" x2="291.6763" y1="848.6631" y2="848.6631"/><polygon fill="#0A9EFD" points="260.6763,844.6631,250.6763,848.6631,260.6763,852.6631,256.6763,848.6631" style="stroke:#0A9EFD;stroke-width:1;"/><text fill="#0A9EFD" font-family="Arial" font-size="13" lengthAdjust="spacing" textLength="136.5825" x="258.1108" y="815.9595">Handle message event:</text><text fill="#0A9EFD" font-family="Arial" font-size="13" lengthAdjust="spacing" textLength="139.4517" x="260.2881" y="830.9082">new MessageEvent(evt)</text></g><g class="message" data-participant-1="APP" data-participant-2="USR"><polygon fill="#0A9EFD" points="48.7793,873.6118,38.7793,877.6118,48.7793,881.6118,44.7793,877.6118" style="stroke:#0A9EFD;stroke-width:1;"/><line style="stroke:#0A9EFD;stroke-width:2;" x1="42.7793" x2="248.6763" y1="877.6118" y2="877.6118"/><text fill="#0A9EFD" font-family="Arial" font-size="13" lengthAdjust="spacing" textLength="151.7344" x="67.8606" y="872.8569">Display received message</text></g><path d="M10,899.6118 L88.2363,899.6118 L88.2363,906.5605 L78.2363,916.5605 L10,916.5605 L10,899.6118" fill="#EEEEEE" style="stroke:#0A9EFD;stroke-width:1.5;"/><rect fill="none" height="160.6924" style="stroke:#0A9EFD;stroke-width:2;" width="629.3433" x="10" y="899.6118"/><text fill="#000000" font-family="Arial" font-size="13" lengthAdjust="spacing" textLength="33.2363" x="25" y="912.8057">Close</text><g class="message" data-participant-1="USR" data-participant-2="APP"><polygon fill="#0A9EFD" points="237.6763,933.5093,247.6763,937.5093,237.6763,941.5093,241.6763,937.5093" style="stroke:#0A9EFD;stroke-width:1;"/><line style="stroke:#0A9EFD;stroke-width:2;" x1="37.7793" x2="243.6763" y1="937.5093" y2="937.5093"/><text fill="#0A9EFD" font-family="Arial" font-size="13" lengthAdjust="spacing" textLength="187.897" x="49.7793" y="932.7544">Close app / component unmount</text></g><g class="message" data-participant-1="APP" data-participant-2="API"><polygon fill="#0A9EFD" points="579.5986,962.458,589.5986,966.458,579.5986,970.458,583.5986,966.458" style="stroke:#0A9EFD;stroke-width:1;"/><line style="stroke:#0A9EFD;stroke-width:2;" x1="249.6763" x2="585.5986" y1="966.458" y2="966.458"/><text fill="#0A9EFD" font-family="Arial" font-size="13" lengthAdjust="spacing" textLength="203.7598" x="318.7576" y="961.7031">engine.unsubscribe(CHANNEL_ID)</text></g><g class="message" data-participant-1="APP" data-participant-2="API"><polygon fill="#0A9EFD" points="579.5986,991.4067,589.5986,995.4067,579.5986,999.4067,583.5986,995.4067" style="stroke:#0A9EFD;stroke-width:1;"/><line style="stroke:#0A9EFD;stroke-width:2;" x1="249.6763" x2="585.5986" y1="995.4067" y2="995.4067"/><text fill="#0A9EFD" font-family="Arial" font-size="13" lengthAdjust="spacing" textLength="86.728" x="377.2734" y="990.6519">engine.logout()</text></g><g class="message" data-participant-1="APP" data-participant-2="APP"><line style="stroke:#0A9EFD;stroke-width:2;" x1="249.6763" x2="291.6763" y1="1039.3042" y2="1039.3042"/><line style="stroke:#0A9EFD;stroke-width:2;" x1="291.6763" x2="291.6763" y1="1039.3042" y2="1052.3042"/><line style="stroke:#0A9EFD;stroke-width:2;" x1="250.6763" x2="291.6763" y1="1052.3042" y2="1052.3042"/><polygon fill="#0A9EFD" points="260.6763,1048.3042,250.6763,1052.3042,260.6763,1056.3042,256.6763,1052.3042" style="stroke:#0A9EFD;stroke-width:1;"/><text fill="#0A9EFD" font-family="Arial" font-size="13" lengthAdjust="spacing" textLength="55.6499" x="275.824" y="1019.6006">Clean up:</text><text fill="#0A9EFD" font-family="Arial" font-size="13" lengthAdjust="spacing" textLength="93.9453" x="260.2881" y="1034.5493">engine.release()</text></g><!--SRC=[dLHDRzf04BtxLqmv52Cbj8UUh0W9cQX1XHG1KLMfKhJO4xDYsRNsWpI9yjyxQnkRRU7IctVdxPitRsRyWSjCk1o15KgpHxFZSiZTNaGHowpIq7img7l033oibb6qKR-XzrCv3QmiUr79jEKPBvcqqBin_1MJBvz7Dny5Uq5jHhyah7WXcU2oWDNaMyKpNYmYb3aGLSCtzgalasL2kJpWQdYc7K-XbIjXAhdbX7Z5YDJ2zSWdI-1xYTBhZUZKNgOQcKLOhkUfu4WfkJIMoGmJe5HP5Qs4BUs-HiJ-IyadNWm2fX-QbV3CxTQJBRGwy1nrWFYA5b0MN6AOnHaapZYa6-SvuC4h4jnOb6Ja2VZMH-AQx0hwUpI65TWVN4IGNxkLfMBw0s_NqQgPedYNTveq0eV21-8ti6f7hhrxRTDMMqjMAwnqKShPyNgOAIanizIZ_tg7UMY5i-hQk8t9DDyWAEfBmwzanT76rYhTCWg9KpExebfSdDwDx-zlPu_JoHMyLLsRrnOcOBL3N_29IqtC1EEqVYbfNMZoZ1-_fWFdifPkGotS1ZaRE2NtKrPhzeI9zoFjpiCZa63DPmkRT-UXiTelr_k_CsJy23LFgPiWLCO466ztq9iZf9wv9wtseEmMjHydRGBQEwfQOFYYweF4vwDNpVWTRAk8l4jWmar9VmNGc24_OEVRYTkfK2RStEh6hovyejRlIoMzHYVtoabxpd8dpxLwS67GbRD_BLygaD4YbLLL3L0ZNHgCwydu0m00]--></g></svg>