<?xml version="1.0" encoding="us-ascii" standalone="no"?><svg xmlns="http://www.w3.org/2000/svg" xmlns:xlink="http://www.w3.org/1999/xlink" contentStyleType="text/css" height="746px" preserveAspectRatio="none" style="width:458px;height:746px;" version="1.1" viewBox="0 0 458 746" width="458px" zoomAndPan="magnify"><defs/><g><rect fill="none" height="744.3257" style="stroke:#0A9EFD;stroke-width:1.0;" width="456" x="0" y="0"/><rect fill="#999999" fill-opacity="0.33333" height="734.3257" style="stroke:#0A9EFD;stroke-width:0.5;" width="112" x="139" y="6"/><text fill="#0A9EFD" font-family="sans-serif" font-size="13" font-weight="bold" lengthAdjust="spacing" textLength="62" x="164" y="18.5684">Your app</text><rect fill="#999999" fill-opacity="0.33333" height="734.3257" style="stroke:#0A9EFD;stroke-width:0.5;" width="80" x="366" y="6"/><text fill="#0A9EFD" font-family="sans-serif" font-size="13" font-weight="bold" lengthAdjust="spacing" textLength="41" x="385.5" y="18.5684">Agora</text><rect fill="#0A9EFD" fill-opacity="0.06667" height="200.6924" style="stroke:#0A9EFD;stroke-width:2.0;" width="442" x="10" y="103.0986"/><rect fill="#0A9EFD" fill-opacity="0.06667" height="232.5898" style="stroke:#0A9EFD;stroke-width:2.0;" width="442" x="10" y="317.791"/><rect fill="#0A9EFD" fill-opacity="0.06667" height="74.8462" style="stroke:#0A9EFD;stroke-width:2.0;" width="442" x="10" y="564.3809"/><line style="stroke:#0A9EFD;stroke-width:0.5;stroke-dasharray:5.0,5.0;" x1="38" x2="38" y1="86.0986" y2="656.2271"/><line style="stroke:#0A9EFD;stroke-width:0.5;stroke-dasharray:5.0,5.0;" x1="195" x2="195" y1="86.0986" y2="656.2271"/><line style="stroke:#0A9EFD;stroke-width:0.5;stroke-dasharray:5.0,5.0;" x1="406" x2="406" y1="86.0986" y2="656.2271"/><text fill="#0A9EFD" font-family="Arial" font-size="14" lengthAdjust="spacing" textLength="30" x="20" y="83.1318">User</text><ellipse cx="38" cy="16" fill="none" rx="8" ry="8" style="stroke:#0A9EFD;stroke-width:3.0;"/><path d="M38,24 L38,51 M25,32 L51,32 M38,51 L25,66 M38,51 L51,66 " fill="none" style="stroke:#0A9EFD;stroke-width:3.0;"/><text fill="#0A9EFD" font-family="Arial" font-size="14" lengthAdjust="spacing" textLength="30" x="20" y="668.3589">User</text><ellipse cx="38" cy="682.3257" fill="none" rx="8" ry="8" style="stroke:#0A9EFD;stroke-width:3.0;"/><path d="M38,690.3257 L38,717.3257 M25,698.3257 L51,698.3257 M38,717.3257 L25,732.3257 M38,717.3257 L51,732.3257 " fill="none" style="stroke:#0A9EFD;stroke-width:3.0;"/><rect fill="none" height="30.0986" rx="2.5" ry="2.5" style="stroke:#0A9EFD;stroke-width:2.0;" width="104" x="143" y="55"/><text fill="#0A9EFD" font-family="Arial" font-size="14" lengthAdjust="spacing" textLength="90" x="150" y="75.1318">Signaling SDK</text><rect fill="none" height="30.0986" rx="2.5" ry="2.5" style="stroke:#0A9EFD;stroke-width:2.0;" width="104" x="143" y="655.2271"/><text fill="#0A9EFD" font-family="Arial" font-size="14" lengthAdjust="spacing" textLength="90" x="150" y="675.3589">Signaling SDK</text><rect fill="none" height="30.0986" rx="2.5" ry="2.5" style="stroke:#0A9EFD;stroke-width:2.0;" width="72" x="370" y="55"/><text fill="#0A9EFD" font-family="Arial" font-size="14" lengthAdjust="spacing" textLength="58" x="377" y="75.1318">Signaling</text><rect fill="none" height="30.0986" rx="2.5" ry="2.5" style="stroke:#0A9EFD;stroke-width:2.0;" width="72" x="370" y="655.2271"/><text fill="#0A9EFD" font-family="Arial" font-size="14" lengthAdjust="spacing" textLength="58" x="377" y="675.3589">Signaling</text><path d="M10,103.0986 L103,103.0986 L103,110.0474 L93,120.0474 L10,120.0474 L10,103.0986 " fill="#EEEEEE" style="stroke:#0A9EFD;stroke-width:1.5;"/><rect fill="none" height="200.6924" style="stroke:#0A9EFD;stroke-width:2.0;" width="442" x="10" y="103.0986"/><text fill="#000000" font-family="Arial" font-size="13" lengthAdjust="spacing" textLength="48" x="25" y="116.2925">Initialize</text><polygon fill="#0A9EFD" points="183,136.9961,193,140.9961,183,144.9961,187,140.9961" style="stroke:#0A9EFD;stroke-width:1.0;"/><line style="stroke:#0A9EFD;stroke-width:2.0;" x1="38" x2="189" y1="140.9961" y2="140.9961"/><text fill="#0A9EFD" font-family="Arial" font-size="13" lengthAdjust="spacing" textLength="56" x="88.5" y="136.2412">Open app</text><line style="stroke:#0A9EFD;stroke-width:2.0;" x1="195" x2="237" y1="169.9448" y2="169.9448"/><line style="stroke:#0A9EFD;stroke-width:2.0;" x1="237" x2="237" y1="169.9448" y2="182.9448"/><line style="stroke:#0A9EFD;stroke-width:2.0;" x1="196" x2="237" y1="182.9448" y2="182.9448"/><polygon fill="#0A9EFD" points="206,178.9448,196,182.9448,206,186.9448,202,182.9448" style="stroke:#0A9EFD;stroke-width:1.0;"/><text fill="#0A9EFD" font-family="Arial" font-size="13" lengthAdjust="spacing" textLength="197" x="202" y="165.1899">Create a signalingEngine instance</text><line style="stroke:#0A9EFD;stroke-width:2.0;" x1="195" x2="237" y1="211.8936" y2="211.8936"/><line style="stroke:#0A9EFD;stroke-width:2.0;" x1="237" x2="237" y1="211.8936" y2="224.8936"/><line style="stroke:#0A9EFD;stroke-width:2.0;" x1="196" x2="237" y1="224.8936" y2="224.8936"/><polygon fill="#0A9EFD" points="206,220.8936,196,224.8936,206,228.8936,202,224.8936" style="stroke:#0A9EFD;stroke-width:1.0;"/><text fill="#0A9EFD" font-family="Arial" font-size="13" lengthAdjust="spacing" textLength="112" x="202" y="207.1387">Add event listeners</text><line style="stroke:#0A9EFD;stroke-width:2.0;" x1="195" x2="237" y1="253.8423" y2="253.8423"/><line style="stroke:#0A9EFD;stroke-width:2.0;" x1="237" x2="237" y1="253.8423" y2="266.8423"/><line style="stroke:#0A9EFD;stroke-width:2.0;" x1="196" x2="237" y1="266.8423" y2="266.8423"/><polygon fill="#0A9EFD" points="206,262.8423,196,266.8423,206,270.8423,202,266.8423" style="stroke:#0A9EFD;stroke-width:1.0;"/><text fill="#0A9EFD" font-family="Arial" font-size="13" lengthAdjust="spacing" textLength="163" x="202" y="249.0874">Set the authentication token</text><polygon fill="#0A9EFD" points="394,291.791,404,295.791,394,299.791,398,295.791" style="stroke:#0A9EFD;stroke-width:1.0;"/><line style="stroke:#0A9EFD;stroke-width:2.0;" x1="195" x2="400" y1="295.791" y2="295.791"/><text fill="#0A9EFD" font-family="Arial" font-size="13" lengthAdjust="spacing" textLength="107" x="247" y="291.0361">Log in to Signaling</text><path d="M10,317.791 L115,317.791 L115,324.7397 L105,334.7397 L10,334.7397 L10,317.791 " fill="#EEEEEE" style="stroke:#0A9EFD;stroke-width:1.5;"/><rect fill="none" height="232.5898" style="stroke:#0A9EFD;stroke-width:2.0;" width="442" x="10" y="317.791"/><text fill="#000000" font-family="Arial" font-size="13" lengthAdjust="spacing" textLength="60" x="25" y="330.9849">Messages</text><polygon fill="#0A9EFD" points="183,351.6885,193,355.6885,183,359.6885,187,355.6885" style="stroke:#0A9EFD;stroke-width:1.0;"/><line style="stroke:#0A9EFD;stroke-width:2.0;" x1="38" x2="189" y1="355.6885" y2="355.6885"/><text fill="#0A9EFD" font-family="Arial" font-size="13" lengthAdjust="spacing" textLength="133" x="50" y="350.9336">Subscribe to a channel</text><polygon fill="#0A9EFD" points="394,380.6372,404,384.6372,394,388.6372,398,384.6372" style="stroke:#0A9EFD;stroke-width:1.0;"/><line style="stroke:#0A9EFD;stroke-width:2.0;" x1="195" x2="400" y1="384.6372" y2="384.6372"/><text fill="#0A9EFD" font-family="Arial" font-size="13" lengthAdjust="spacing" textLength="151" x="225" y="379.8823">signalingEngine.subscribe</text><polygon fill="#0A9EFD" points="183,409.5859,193,413.5859,183,417.5859,187,413.5859" style="stroke:#0A9EFD;stroke-width:1.0;"/><line style="stroke:#0A9EFD;stroke-width:2.0;" x1="38" x2="189" y1="413.5859" y2="413.5859"/><text fill="#0A9EFD" font-family="Arial" font-size="13" lengthAdjust="spacing" textLength="100" x="66.5" y="408.8311">Publish message</text><polygon fill="#0A9EFD" points="394,438.5347,404,442.5347,394,446.5347,398,442.5347" style="stroke:#0A9EFD;stroke-width:1.0;"/><line style="stroke:#0A9EFD;stroke-width:2.0;" x1="195" x2="400" y1="442.5347" y2="442.5347"/><text fill="#0A9EFD" font-family="Arial" font-size="13" lengthAdjust="spacing" textLength="136" x="232.5" y="437.7798">signalingEngine.publish</text><line style="stroke:#0A9EFD;stroke-width:2.0;" x1="195" x2="237" y1="471.4834" y2="471.4834"/><line style="stroke:#0A9EFD;stroke-width:2.0;" x1="237" x2="237" y1="471.4834" y2="484.4834"/><line style="stroke:#0A9EFD;stroke-width:2.0;" x1="196" x2="237" y1="484.4834" y2="484.4834"/><polygon fill="#0A9EFD" points="206,480.4834,196,484.4834,206,488.4834,202,484.4834" style="stroke:#0A9EFD;stroke-width:1.0;"/><text fill="#0A9EFD" font-family="Arial" font-size="13" lengthAdjust="spacing" textLength="154" x="202" y="466.7285">Listen for message events</text><polygon fill="#0A9EFD" points="206,509.4321,196,513.4321,206,517.4321,202,513.4321" style="stroke:#0A9EFD;stroke-width:1.0;"/><line style="stroke:#0A9EFD;stroke-width:2.0;" x1="200" x2="405" y1="513.4321" y2="513.4321"/><text fill="#0A9EFD" font-family="Arial" font-size="13" lengthAdjust="spacing" textLength="53" x="274" y="508.6772">message</text><polygon fill="#0A9EFD" points="49,538.3809,39,542.3809,49,546.3809,45,542.3809" style="stroke:#0A9EFD;stroke-width:1.0;"/><line style="stroke:#0A9EFD;stroke-width:2.0;" x1="43" x2="194" y1="542.3809" y2="542.3809"/><text fill="#0A9EFD" font-family="Arial" font-size="13" lengthAdjust="spacing" textLength="104" x="64.5" y="537.626">Receive message</text><path d="M10,564.3809 L88,564.3809 L88,571.3296 L78,581.3296 L10,581.3296 L10,564.3809 " fill="#EEEEEE" style="stroke:#0A9EFD;stroke-width:1.5;"/><rect fill="none" height="74.8462" style="stroke:#0A9EFD;stroke-width:2.0;" width="442" x="10" y="564.3809"/><text fill="#000000" font-family="Arial" font-size="13" lengthAdjust="spacing" textLength="33" x="25" y="577.5747">Close</text><polygon fill="#0A9EFD" points="183,598.2783,193,602.2783,183,606.2783,187,602.2783" style="stroke:#0A9EFD;stroke-width:1.0;"/><line style="stroke:#0A9EFD;stroke-width:2.0;" x1="38" x2="189" y1="602.2783" y2="602.2783"/><text fill="#0A9EFD" font-family="Arial" font-size="13" lengthAdjust="spacing" textLength="43" x="95" y="597.5234">Log out</text><polygon fill="#0A9EFD" points="394,627.2271,404,631.2271,394,635.2271,398,631.2271" style="stroke:#0A9EFD;stroke-width:1.0;"/><line style="stroke:#0A9EFD;stroke-width:2.0;" x1="195" x2="400" y1="631.2271" y2="631.2271"/><text fill="#0A9EFD" font-family="Arial" font-size="13" lengthAdjust="spacing" textLength="115" x="243" y="626.4722">Log out of Signaling</text><!--SRC=[VL7BRi8m4BpxAxQv4-uSAY7QGrIg8Y8EFLKRPp4hmZho0rNz-jeyGaFLNYpPEpCxCtvWqLri2SfoUkIMxCIt-oaQw_33xrbAZeTEATJ1EYWsdbm1w65JhvLgx2SKxpOwmBulL8ykiEOU9K1Hin7iM0pKJoydodorKYGj9DQ5EizR_k9TEDMDOvoDFLJ2WHFYYrGo0PF7B3o3jvuasr3fDZmk764WGF1NrMSnB0GiFg1e6g7dRGjqfEIYOnz8oFdHlAO0OPVaOZebMSR0LY3OFSaDMCrWQKtQa0OmfCafhWbUoNiqv4V-wzXuxRYXJ4FGEnIXRYHx5wBqLyf8Q1MRP7y7X_EMVnNwCtQKSddA3jlqtHU9SocvYsf0tQad0pDOaoO-qZ3x4NdHMJ-scJkoCVpgBRs1tTuLzmq0]--></g></svg>