<?xml version="1.0" encoding="us-ascii" standalone="no"?><svg xmlns="http://www.w3.org/2000/svg" xmlns:xlink="http://www.w3.org/1999/xlink" contentStyleType="text/css" height="836px" preserveAspectRatio="none" style="width:425px;height:836px;" version="1.1" viewBox="0 0 425 836" width="425px" zoomAndPan="magnify"><defs/><g><rect fill="none" height="834.1206" style="stroke:#0A9EFD;stroke-width:1.0;" width="423.5" x="0" y="0"/><rect fill="#999999" fill-opacity="0.33333" height="824.1206" style="stroke:#0A9EFD;stroke-width:0.5;" width="116" x="136.5" y="6"/><text fill="#0A9EFD" font-family="sans-serif" font-size="13" font-weight="bold" lengthAdjust="spacing" textLength="57" x="166" y="19.4951">Your app</text><rect fill="#999999" fill-opacity="0.33333" height="824.1206" style="stroke:#0A9EFD;stroke-width:0.5;" width="84" x="329.5" y="6"/><text fill="#0A9EFD" font-family="sans-serif" font-size="13" font-weight="bold" lengthAdjust="spacing" textLength="38" x="352.5" y="19.4951">Agora</text><rect fill="#0A9EFD" fill-opacity="0.06667" height="159.6924" style="stroke:#0A9EFD;stroke-width:2.0;" width="344.5" x="10" y="103.0986"/><rect fill="#0A9EFD" fill-opacity="0.06667" height="116.7949" style="stroke:#0A9EFD;stroke-width:2.0;" width="409.5" x="10" y="276.791"/><rect fill="#0A9EFD" fill-opacity="0.06667" height="232.5898" style="stroke:#0A9EFD;stroke-width:2.0;" width="409.5" x="10" y="407.5859"/><rect fill="#0A9EFD" fill-opacity="0.06667" height="74.8462" style="stroke:#0A9EFD;stroke-width:2.0;" width="409.5" x="10" y="654.1758"/><line style="stroke:#0A9EFD;stroke-width:0.5;stroke-dasharray:5.0,5.0;" x1="37" x2="37" y1="86.0986" y2="746.022"/><line style="stroke:#0A9EFD;stroke-width:0.5;stroke-dasharray:5.0,5.0;" x1="194.5" x2="194.5" y1="86.0986" y2="746.022"/><line style="stroke:#0A9EFD;stroke-width:0.5;stroke-dasharray:5.0,5.0;" x1="371.5" x2="371.5" y1="86.0986" y2="746.022"/><text fill="#0A9EFD" font-family="Arial" font-size="14" lengthAdjust="spacing" textLength="29" x="20" y="83.1318">User</text><ellipse cx="37.5" cy="16" fill="none" rx="8" ry="8" style="stroke:#0A9EFD;stroke-width:3.0;"/><path d="M37.5,24 L37.5,51 M24.5,32 L50.5,32 M37.5,51 L24.5,66 M37.5,51 L50.5,66 " fill="none" style="stroke:#0A9EFD;stroke-width:3.0;"/><text fill="#0A9EFD" font-family="Arial" font-size="14" lengthAdjust="spacing" textLength="29" x="20" y="758.1538">User</text><ellipse cx="37.5" cy="772.1206" fill="none" rx="8" ry="8" style="stroke:#0A9EFD;stroke-width:3.0;"/><path d="M37.5,780.1206 L37.5,807.1206 M24.5,788.1206 L50.5,788.1206 M37.5,807.1206 L24.5,822.1206 M37.5,807.1206 L50.5,822.1206 " fill="none" style="stroke:#0A9EFD;stroke-width:3.0;"/><rect fill="none" height="56.7653" rx="2.5" ry="2.5" style="stroke:#0A9EFD;stroke-width:2.0;" width="108" x="140.5" y="28.3333"/><path d="M181.1667,35.3333 L181.1667,48.6667 L194.5,48.6667 L194.5,35.3333 L181.1667,35.3333 M197.8333,42 L197.8333,52 L187.8333,52 L187.8333,55.3333 L201.1667,55.3333 L201.1667,42 L197.8333,42 M204.5,48.6667 L204.5,58.6667 L194.5,58.6667 L194.5,62 L207.8333,62 L207.8333,48.6667 L204.5,48.6667 " fill="#0A9EFD" style="stroke:;stroke-width:0.0;stroke-dasharray:;"/><text fill="#0A9EFD" font-family="Arial" font-size="14" lengthAdjust="spacing" textLength="90" x="151.5" y="75.1318">Signaling SDK</text><rect fill="none" height="56.7653" rx="2.5" ry="2.5" style="stroke:#0A9EFD;stroke-width:2.0;" width="108" x="140.5" y="745.022"/><path d="M181.1667,752.022 L181.1667,765.3553 L194.5,765.3553 L194.5,752.022 L181.1667,752.022 M197.8333,758.6886 L197.8333,768.6886 L187.8333,768.6886 L187.8333,772.022 L201.1667,772.022 L201.1667,758.6886 L197.8333,758.6886 M204.5,765.3553 L204.5,775.3553 L194.5,775.3553 L194.5,778.6886 L207.8333,778.6886 L207.8333,765.3553 L204.5,765.3553 " fill="#0A9EFD" style="stroke:;stroke-width:0.0;stroke-dasharray:;"/><text fill="#0A9EFD" font-family="Arial" font-size="14" lengthAdjust="spacing" textLength="90" x="151.5" y="791.8205">Signaling SDK</text><rect fill="none" height="56.7653" rx="2.5" ry="2.5" style="stroke:#0A9EFD;stroke-width:2.0;" width="76" x="333.5" y="28.3333"/><path d="M373.1667,35.3333 C369.1333,35.3333 365.6,38.2 364.8333,42 C361.1667,42 358.1667,45 358.1667,48.6667 C358.1667,52.3333 361.1667,55.3333 364.8333,55.3333 L379.8333,55.3333 C382.6,55.3333 384.8333,53.1 384.8333,50.3333 C384.8333,48.1667 383.4333,46.0333 381.5,45.3333 L381.5,43.6667 C381.5,39.0667 377.7667,35.3333 373.1667,35.3333 " fill="#0A9EFD" style="stroke:;stroke-width:0.0;stroke-dasharray:;"/><text fill="#0A9EFD" font-family="Arial" font-size="14" lengthAdjust="spacing" textLength="58" x="344.5" y="75.1318">Signaling</text><rect fill="none" height="56.7653" rx="2.5" ry="2.5" style="stroke:#0A9EFD;stroke-width:2.0;" width="76" x="333.5" y="745.022"/><path d="M373.1667,752.022 C369.1333,752.022 365.6,754.8886 364.8333,758.6886 C361.1667,758.6886 358.1667,761.6886 358.1667,765.3553 C358.1667,769.022 361.1667,772.022 364.8333,772.022 L379.8333,772.022 C382.6,772.022 384.8333,769.7886 384.8333,767.022 C384.8333,764.8553 383.4333,762.722 381.5,762.022 L381.5,760.3553 C381.5,755.7553 377.7667,752.022 373.1667,752.022 " fill="#0A9EFD" style="stroke:;stroke-width:0.0;stroke-dasharray:;"/><text fill="#0A9EFD" font-family="Arial" font-size="14" lengthAdjust="spacing" textLength="58" x="344.5" y="791.8205">Signaling</text><path d="M10,103.0986 L102,103.0986 L102,110.0474 L92,120.0474 L10,120.0474 L10,103.0986 " fill="#EEEEEE" style="stroke:#0A9EFD;stroke-width:1.5;"/><rect fill="none" height="159.6924" style="stroke:#0A9EFD;stroke-width:2.0;" width="344.5" x="10" y="103.0986"/><text fill="#000000" font-family="Arial" font-size="13" lengthAdjust="spacing" textLength="47" x="25" y="116.2925">Initialize</text><polygon fill="#0A9EFD" points="182.5,136.9961,192.5,140.9961,182.5,144.9961,186.5,140.9961" style="stroke:#0A9EFD;stroke-width:1.0;"/><line style="stroke:#0A9EFD;stroke-width:2.0;" x1="37.5" x2="188.5" y1="140.9961" y2="140.9961"/><text fill="#0A9EFD" font-family="Arial" font-size="13" lengthAdjust="spacing" textLength="56" x="88" y="136.2412">Open app</text><line style="stroke:#0A9EFD;stroke-width:2.0;" x1="194.5" x2="236.5" y1="184.8936" y2="184.8936"/><line style="stroke:#0A9EFD;stroke-width:2.0;" x1="236.5" x2="236.5" y1="184.8936" y2="197.8936"/><line style="stroke:#0A9EFD;stroke-width:2.0;" x1="195.5" x2="236.5" y1="197.8936" y2="197.8936"/><polygon fill="#0A9EFD" points="205.5,193.8936,195.5,197.8936,205.5,201.8936,201.5,197.8936" style="stroke:#0A9EFD;stroke-width:1.0;"/><text fill="#0A9EFD" font-family="Arial" font-size="13" lengthAdjust="spacing" textLength="137" x="201.5" y="165.1899">Create a SDK instance:</text><text fill="#0A9EFD" font-family="Arial" font-size="13" lengthAdjust="spacing" textLength="109" x="219.5" y="180.1387">rtm = new RTM(...)</text><line style="stroke:#0A9EFD;stroke-width:2.0;" x1="194.5" x2="236.5" y1="241.791" y2="241.791"/><line style="stroke:#0A9EFD;stroke-width:2.0;" x1="236.5" x2="236.5" y1="241.791" y2="254.791"/><line style="stroke:#0A9EFD;stroke-width:2.0;" x1="195.5" x2="236.5" y1="254.791" y2="254.791"/><polygon fill="#0A9EFD" points="205.5,250.791,195.5,254.791,205.5,258.791,201.5,254.791" style="stroke:#0A9EFD;stroke-width:1.0;"/><text fill="#0A9EFD" font-family="Arial" font-size="13" lengthAdjust="spacing" textLength="118" x="203.5" y="222.0874">Add event listeners :</text><text fill="#0A9EFD" font-family="Arial" font-size="13" lengthAdjust="spacing" textLength="122" x="205.5" y="237.0361">rtm.addEventListener</text><path d="M10,276.791 L86,276.791 L86,283.7397 L76,293.7397 L10,293.7397 L10,276.791 " fill="#EEEEEE" style="stroke:#0A9EFD;stroke-width:1.5;"/><rect fill="none" height="116.7949" style="stroke:#0A9EFD;stroke-width:2.0;" width="409.5" x="10" y="276.791"/><text fill="#000000" font-family="Arial" font-size="13" lengthAdjust="spacing" textLength="31" x="25" y="289.9849">Login</text><polygon fill="#0A9EFD" points="182.5,310.6885,192.5,314.6885,182.5,318.6885,186.5,314.6885" style="stroke:#0A9EFD;stroke-width:1.0;"/><line style="stroke:#0A9EFD;stroke-width:2.0;" x1="37.5" x2="188.5" y1="314.6885" y2="314.6885"/><text fill="#0A9EFD" font-family="Arial" font-size="13" lengthAdjust="spacing" textLength="111" x="60.5" y="309.9336">Log in to Signaling:</text><line style="stroke:#0A9EFD;stroke-width:2.0;" x1="194.5" x2="236.5" y1="343.6372" y2="343.6372"/><line style="stroke:#0A9EFD;stroke-width:2.0;" x1="236.5" x2="236.5" y1="343.6372" y2="356.6372"/><line style="stroke:#0A9EFD;stroke-width:2.0;" x1="195.5" x2="236.5" y1="356.6372" y2="356.6372"/><polygon fill="#0A9EFD" points="205.5,352.6372,195.5,356.6372,205.5,360.6372,201.5,356.6372" style="stroke:#0A9EFD;stroke-width:1.0;"/><text fill="#0A9EFD" font-family="Arial" font-size="13" lengthAdjust="spacing" textLength="163" x="201.5" y="338.8823">Set the authentication token</text><polygon fill="#0A9EFD" points="359.5,381.5859,369.5,385.5859,359.5,389.5859,363.5,385.5859" style="stroke:#0A9EFD;stroke-width:1.0;"/><line style="stroke:#0A9EFD;stroke-width:2.0;" x1="194.5" x2="365.5" y1="385.5859" y2="385.5859"/><text fill="#0A9EFD" font-family="Arial" font-size="13" lengthAdjust="spacing" textLength="50" x="258" y="380.8311">rtm.login</text><path d="M10,407.5859 L115,407.5859 L115,414.5347 L105,424.5347 L10,424.5347 L10,407.5859 " fill="#EEEEEE" style="stroke:#0A9EFD;stroke-width:1.5;"/><rect fill="none" height="232.5898" style="stroke:#0A9EFD;stroke-width:2.0;" width="409.5" x="10" y="407.5859"/><text fill="#000000" font-family="Arial" font-size="13" lengthAdjust="spacing" textLength="60" x="25" y="420.7798">Messages</text><polygon fill="#0A9EFD" points="182.5,441.4834,192.5,445.4834,182.5,449.4834,186.5,445.4834" style="stroke:#0A9EFD;stroke-width:1.0;"/><line style="stroke:#0A9EFD;stroke-width:2.0;" x1="37.5" x2="188.5" y1="445.4834" y2="445.4834"/><text fill="#0A9EFD" font-family="Arial" font-size="13" lengthAdjust="spacing" textLength="100" x="66" y="440.7285">Publish message</text><polygon fill="#0A9EFD" points="359.5,470.4321,369.5,474.4321,359.5,478.4321,363.5,474.4321" style="stroke:#0A9EFD;stroke-width:1.0;"/><line style="stroke:#0A9EFD;stroke-width:2.0;" x1="194.5" x2="365.5" y1="474.4321" y2="474.4321"/><text fill="#0A9EFD" font-family="Arial" font-size="13" lengthAdjust="spacing" textLength="64" x="251" y="469.6772">rtm.publish</text><polygon fill="#0A9EFD" points="182.5,499.3809,192.5,503.3809,182.5,507.3809,186.5,503.3809" style="stroke:#0A9EFD;stroke-width:1.0;"/><line style="stroke:#0A9EFD;stroke-width:2.0;" x1="37.5" x2="188.5" y1="503.3809" y2="503.3809"/><text fill="#0A9EFD" font-family="Arial" font-size="13" lengthAdjust="spacing" textLength="133" x="49.5" y="498.626">Subscribe to a channel</text><polygon fill="#0A9EFD" points="359.5,528.3296,369.5,532.3296,359.5,536.3296,363.5,532.3296" style="stroke:#0A9EFD;stroke-width:1.0;"/><line style="stroke:#0A9EFD;stroke-width:2.0;" x1="194.5" x2="365.5" y1="532.3296" y2="532.3296"/><text fill="#0A9EFD" font-family="Arial" font-size="13" lengthAdjust="spacing" textLength="79" x="243.5" y="527.5747">rtm.subscribe</text><line style="stroke:#0A9EFD;stroke-width:2.0;" x1="194.5" x2="236.5" y1="561.2783" y2="561.2783"/><line style="stroke:#0A9EFD;stroke-width:2.0;" x1="236.5" x2="236.5" y1="561.2783" y2="574.2783"/><line style="stroke:#0A9EFD;stroke-width:2.0;" x1="195.5" x2="236.5" y1="574.2783" y2="574.2783"/><polygon fill="#0A9EFD" points="205.5,570.2783,195.5,574.2783,205.5,578.2783,201.5,574.2783" style="stroke:#0A9EFD;stroke-width:1.0;"/><text fill="#0A9EFD" font-family="Arial" font-size="13" lengthAdjust="spacing" textLength="151" x="201.5" y="556.5234">Listen for message events</text><polygon fill="#0A9EFD" points="205.5,599.2271,195.5,603.2271,205.5,607.2271,201.5,603.2271" style="stroke:#0A9EFD;stroke-width:1.0;"/><line style="stroke:#0A9EFD;stroke-width:2.0;" x1="199.5" x2="370.5" y1="603.2271" y2="603.2271"/><text fill="#0A9EFD" font-family="Arial" font-size="13" lengthAdjust="spacing" textLength="105" x="230.5" y="598.4722">message callback</text><polygon fill="#0A9EFD" points="48.5,628.1758,38.5,632.1758,48.5,636.1758,44.5,632.1758" style="stroke:#0A9EFD;stroke-width:1.0;"/><line style="stroke:#0A9EFD;stroke-width:2.0;" x1="42.5" x2="193.5" y1="632.1758" y2="632.1758"/><text fill="#0A9EFD" font-family="Arial" font-size="13" lengthAdjust="spacing" textLength="102" x="65" y="627.4209">Receive message</text><path d="M10,654.1758 L88,654.1758 L88,661.1245 L78,671.1245 L10,671.1245 L10,654.1758 " fill="#EEEEEE" style="stroke:#0A9EFD;stroke-width:1.5;"/><rect fill="none" height="74.8462" style="stroke:#0A9EFD;stroke-width:2.0;" width="409.5" x="10" y="654.1758"/><text fill="#000000" font-family="Arial" font-size="13" lengthAdjust="spacing" textLength="33" x="25" y="667.3696">Close</text><polygon fill="#0A9EFD" points="182.5,688.0732,192.5,692.0732,182.5,696.0732,186.5,692.0732" style="stroke:#0A9EFD;stroke-width:1.0;"/><line style="stroke:#0A9EFD;stroke-width:2.0;" x1="37.5" x2="188.5" y1="692.0732" y2="692.0732"/><text fill="#0A9EFD" font-family="Arial" font-size="13" lengthAdjust="spacing" textLength="43" x="94.5" y="687.3184">Log out</text><polygon fill="#0A9EFD" points="359.5,717.022,369.5,721.022,359.5,725.022,363.5,721.022" style="stroke:#0A9EFD;stroke-width:1.0;"/><line style="stroke:#0A9EFD;stroke-width:2.0;" x1="194.5" x2="365.5" y1="721.022" y2="721.022"/><text fill="#0A9EFD" font-family="Arial" font-size="13" lengthAdjust="spacing" textLength="58" x="254" y="716.2671">rtm.logout</text><!--SRC=[TP9DIyD048Rl-HLZ3g87WmTFGGj5FHHRB8qU144ccp5TkfqD- -7NhtUsRLf3yHBOcNdVzvaX9vgLYGq1jjRXcrzfBdHScon35Qo3_DcJom4zF5UBBAlj5-GlDZh0hikp3btGIdV80V9hht-elBeSNPyQ_2RdHwyCbMuPZUOMghk7ZSzuFi-86n2hdTyuHVzlfeoDpS1hvpCv-BJEnWuch8EMYH_AX1OkHYciXCUEEF5cyjeNRnrXaBKJ5sZs0LbH2HBZmXfkWEaJ5a-piw8epWV2STC0VP106kq3iImAlQx0fhbFlUckbGXxkgbjDG_0f2BH4EnXjH86OHK524l1ZF9bEGy6RPDYHNmOd9IRSBC9-9Cu8- -n9Jy8dSTQm9UmtZQFNBfjVw2fOksLqpKbLWIrH6OoHrBVZmrssDu2tkLlscLkx-TbQhAVwbiAZQbHhNeBmIXXGOhq1-sP_-nuQwodewlQ60Pq_NrIFOb_0G00]--></g></svg>