<?xml version="1.0" encoding="us-ascii" standalone="no"?><svg xmlns="http://www.w3.org/2000/svg" xmlns:xlink="http://www.w3.org/1999/xlink" contentStyleType="text/css" height="879px" preserveAspectRatio="none" style="width:499px;height:879px;background:#FFFFFF;" version="1.1" viewBox="0 0 499 879" width="499px" zoomAndPan="magnify"><defs><style type="text/css">@import url('https://fonts.googleapis.com/css?family=Roboto:400,100,100italic,300,300italic,400italic,500,500italic,700,700italic,900,900italic');</style></defs><g><rect fill="none" height="877.7422" style="stroke:#0A9EFD;stroke-width:1.0;" width="497.5" x="0" y="0"/><rect fill="#F3F3F3" height="867.7422" style="stroke:#0A9EFD;stroke-width:0.5;" width="123" x="123.5" y="6"/><text fill="#0A9EFD" font-family="sans-serif" font-size="13" font-weight="bold" lengthAdjust="spacing" textLength="62" x="154" y="18.5684">Your app</text><rect fill="#F3F3F3" height="867.7422" style="stroke:#0A9EFD;stroke-width:0.5;" width="89" x="398.5" y="6"/><text fill="#0A9EFD" font-family="sans-serif" font-size="13" font-weight="bold" lengthAdjust="spacing" textLength="41" x="422.5" y="18.5684">Agora</text><rect fill="#FFFFFF" height="209.9297" style="stroke:#0A9EFD;stroke-width:2.0;" width="483.5" x="10" y="103.4883"/><rect fill="#FFFFFF" height="183.9297" style="stroke:#0A9EFD;stroke-width:2.0;" width="483.5" x="10" y="327.418"/><rect fill="#FFFFFF" height="153.4414" style="stroke:#0A9EFD;stroke-width:2.0;" width="483.5" x="10" y="525.3477"/><rect fill="#FFFFFF" height="79.4648" style="stroke:#0A9EFD;stroke-width:2.0;" width="483.5" x="10" y="692.7891"/><line style="stroke:#0A9EFD;stroke-width:0.5;stroke-dasharray:5.0,5.0;" x1="39" x2="39" y1="86.4883" y2="789.2539"/><line style="stroke:#0A9EFD;stroke-width:0.5;stroke-dasharray:5.0,5.0;" x1="184.5" x2="184.5" y1="86.4883" y2="789.2539"/><line style="stroke:#0A9EFD;stroke-width:0.5;stroke-dasharray:5.0,5.0;" x1="442.5" x2="442.5" y1="86.4883" y2="789.2539"/><text fill="#0A9EFD" font-family="Roboto" font-size="14" font-weight="bold" lengthAdjust="spacing" textLength="32" x="20" y="83.5352">User</text><ellipse cx="39" cy="16" fill="none" rx="8" ry="8" style="stroke:#0A9EFD;stroke-width:3.0;"/><path d="M39,24 L39,51 M26,32 L52,32 M39,51 L26,66 M39,51 L52,66 " fill="none" style="stroke:#0A9EFD;stroke-width:3.0;"/><text fill="#0A9EFD" font-family="Roboto" font-size="14" font-weight="bold" lengthAdjust="spacing" textLength="32" x="20" y="801.7891">User</text><ellipse cx="39" cy="815.7422" fill="none" rx="8" ry="8" style="stroke:#0A9EFD;stroke-width:3.0;"/><path d="M39,823.7422 L39,850.7422 M26,831.7422 L52,831.7422 M39,850.7422 L26,865.7422 M39,850.7422 L52,865.7422 " fill="none" style="stroke:#0A9EFD;stroke-width:3.0;"/><rect fill="#FFFFFF" height="30.4883" rx="2.5" ry="2.5" style="stroke:#0A9EFD;stroke-width:2.0;" width="115" x="127.5" y="55"/><text fill="#0A9EFD" font-family="Roboto" font-size="14" font-weight="bold" lengthAdjust="spacing" textLength="101" x="134.5" y="75.5352">Signaling SDK</text><rect fill="#FFFFFF" height="30.4883" rx="2.5" ry="2.5" style="stroke:#0A9EFD;stroke-width:2.0;" width="115" x="127.5" y="788.2539"/><text fill="#0A9EFD" font-family="Roboto" font-size="14" font-weight="bold" lengthAdjust="spacing" textLength="101" x="134.5" y="808.7891">Signaling SDK</text><rect fill="#FFFFFF" height="30.4883" rx="2.5" ry="2.5" style="stroke:#0A9EFD;stroke-width:2.0;" width="81" x="402.5" y="55"/><text fill="#0A9EFD" font-family="Roboto" font-size="14" font-weight="bold" lengthAdjust="spacing" textLength="67" x="409.5" y="75.5352">Signaling</text><rect fill="#FFFFFF" height="30.4883" rx="2.5" ry="2.5" style="stroke:#0A9EFD;stroke-width:2.0;" width="81" x="402.5" y="788.2539"/><text fill="#0A9EFD" font-family="Roboto" font-size="14" font-weight="bold" lengthAdjust="spacing" textLength="67" x="409.5" y="808.7891">Signaling</text><path d="M10,103.4883 L119,103.4883 L119,111.9766 L109,121.9766 L10,121.9766 L10,103.4883 " fill="#EEEEEE" style="stroke:#0A9EFD;stroke-width:1.5;"/><rect fill="none" height="209.9297" style="stroke:#0A9EFD;stroke-width:2.0;" width="483.5" x="10" y="103.4883"/><text fill="#0A9EFD" font-family="Roboto" font-size="14" font-weight="bold" lengthAdjust="spacing" textLength="64" x="25" y="118.0234">Initialize</text><polygon fill="#0A9EFD" points="173,140.4648,183,144.4648,173,148.4648,177,144.4648" style="stroke:#0A9EFD;stroke-width:1.0;"/><line style="stroke:#0A9EFD;stroke-width:2.0;" x1="39" x2="179" y1="144.4648" y2="144.4648"/><text fill="#0A9EFD" font-family="Roboto" font-size="14" font-weight="bold" lengthAdjust="spacing" textLength="69" x="77.5" y="139.5117">Open app</text><line style="stroke:#0A9EFD;stroke-width:2.0;" x1="185" x2="227" y1="174.9531" y2="174.9531"/><line style="stroke:#0A9EFD;stroke-width:2.0;" x1="227" x2="227" y1="174.9531" y2="187.9531"/><line style="stroke:#0A9EFD;stroke-width:2.0;" x1="186" x2="227" y1="187.9531" y2="187.9531"/><polygon fill="#0A9EFD" points="196,183.9531,186,187.9531,196,191.9531,192,187.9531" style="stroke:#0A9EFD;stroke-width:1.0;"/><text fill="#0A9EFD" font-family="Roboto" font-size="14" font-weight="bold" lengthAdjust="spacing" textLength="244" x="192" y="170">Create a signalingEngine instance</text><line style="stroke:#0A9EFD;stroke-width:2.0;" x1="185" x2="227" y1="218.4414" y2="218.4414"/><line style="stroke:#0A9EFD;stroke-width:2.0;" x1="227" x2="227" y1="218.4414" y2="231.4414"/><line style="stroke:#0A9EFD;stroke-width:2.0;" x1="186" x2="227" y1="231.4414" y2="231.4414"/><polygon fill="#0A9EFD" points="196,227.4414,186,231.4414,196,235.4414,192,231.4414" style="stroke:#0A9EFD;stroke-width:1.0;"/><text fill="#0A9EFD" font-family="Roboto" font-size="14" font-weight="bold" lengthAdjust="spacing" textLength="143" x="192" y="213.4883">Add event callbacks</text><line style="stroke:#0A9EFD;stroke-width:2.0;" x1="185" x2="227" y1="261.9297" y2="261.9297"/><line style="stroke:#0A9EFD;stroke-width:2.0;" x1="227" x2="227" y1="261.9297" y2="274.9297"/><line style="stroke:#0A9EFD;stroke-width:2.0;" x1="186" x2="227" y1="274.9297" y2="274.9297"/><polygon fill="#0A9EFD" points="196,270.9297,186,274.9297,196,278.9297,192,274.9297" style="stroke:#0A9EFD;stroke-width:1.0;"/><text fill="#0A9EFD" font-family="Roboto" font-size="14" font-weight="bold" lengthAdjust="spacing" textLength="205" x="192" y="256.9766">Set the authentication token</text><polygon fill="#0A9EFD" points="431,301.418,441,305.418,431,309.418,435,305.418" style="stroke:#0A9EFD;stroke-width:1.0;"/><line style="stroke:#0A9EFD;stroke-width:2.0;" x1="185" x2="437" y1="305.418" y2="305.418"/><text fill="#0A9EFD" font-family="Roboto" font-size="14" font-weight="bold" lengthAdjust="spacing" textLength="137" x="245.5" y="300.4648">Log in to Signaling</text><path d="M10,327.418 L125,327.418 L125,335.9063 L115,345.9063 L10,345.9063 L10,327.418 " fill="#EEEEEE" style="stroke:#0A9EFD;stroke-width:1.5;"/><rect fill="none" height="183.9297" style="stroke:#0A9EFD;stroke-width:2.0;" width="483.5" x="10" y="327.418"/><text fill="#0A9EFD" font-family="Roboto" font-size="14" font-weight="bold" lengthAdjust="spacing" textLength="70" x="25" y="341.9531">Messages</text><polygon fill="#0A9EFD" points="173,364.3945,183,368.3945,173,372.3945,177,368.3945" style="stroke:#0A9EFD;stroke-width:1.0;"/><line style="stroke:#0A9EFD;stroke-width:2.0;" x1="39" x2="179" y1="368.3945" y2="368.3945"/><text fill="#0A9EFD" font-family="Roboto" font-size="14" font-weight="bold" lengthAdjust="spacing" textLength="122" x="51" y="363.4414">Publish message</text><polygon fill="#0A9EFD" points="431,394.8828,441,398.8828,431,402.8828,435,398.8828" style="stroke:#0A9EFD;stroke-width:1.0;"/><line style="stroke:#0A9EFD;stroke-width:2.0;" x1="185" x2="437" y1="398.8828" y2="398.8828"/><text fill="#0A9EFD" font-family="Roboto" font-size="14" font-weight="bold" lengthAdjust="spacing" textLength="172" x="228" y="393.9297">signalingEngine.publish</text><line style="stroke:#0A9EFD;stroke-width:2.0;" x1="185" x2="227" y1="429.3711" y2="429.3711"/><line style="stroke:#0A9EFD;stroke-width:2.0;" x1="227" x2="227" y1="429.3711" y2="442.3711"/><line style="stroke:#0A9EFD;stroke-width:2.0;" x1="186" x2="227" y1="442.3711" y2="442.3711"/><polygon fill="#0A9EFD" points="196,438.3711,186,442.3711,196,446.3711,192,442.3711" style="stroke:#0A9EFD;stroke-width:1.0;"/><text fill="#0A9EFD" font-family="Roboto" font-size="14" font-weight="bold" lengthAdjust="spacing" textLength="190" x="192" y="424.418">Listen for message events</text><polygon fill="#0A9EFD" points="196,468.8594,186,472.8594,196,476.8594,192,472.8594" style="stroke:#0A9EFD;stroke-width:1.0;"/><line style="stroke:#0A9EFD;stroke-width:2.0;" x1="190" x2="442" y1="472.8594" y2="472.8594"/><text fill="#0A9EFD" font-family="Roboto" font-size="14" font-weight="bold" lengthAdjust="spacing" textLength="63" x="282.5" y="467.9063">message</text><polygon fill="#0A9EFD" points="50,499.3477,40,503.3477,50,507.3477,46,503.3477" style="stroke:#0A9EFD;stroke-width:1.0;"/><line style="stroke:#0A9EFD;stroke-width:2.0;" x1="44" x2="184" y1="503.3477" y2="503.3477"/><text fill="#0A9EFD" font-family="Roboto" font-size="14" font-weight="bold" lengthAdjust="spacing" textLength="122" x="51" y="498.3945">Receive message</text><path d="M10,525.3477 L118,525.3477 L118,533.8359 L108,543.8359 L10,543.8359 L10,525.3477 " fill="#EEEEEE" style="stroke:#0A9EFD;stroke-width:1.5;"/><rect fill="none" height="153.4414" style="stroke:#0A9EFD;stroke-width:2.0;" width="483.5" x="10" y="525.3477"/><text fill="#0A9EFD" font-family="Roboto" font-size="14" font-weight="bold" lengthAdjust="spacing" textLength="63" x="25" y="539.8828">Presence</text><polygon fill="#0A9EFD" points="173,562.3242,183,566.3242,173,570.3242,177,566.3242" style="stroke:#0A9EFD;stroke-width:1.0;"/><line style="stroke:#0A9EFD;stroke-width:2.0;" x1="39" x2="179" y1="566.3242" y2="566.3242"/><text fill="#0A9EFD" font-family="Roboto" font-size="14" font-weight="bold" lengthAdjust="spacing" textLength="103" x="60.5" y="561.3711">Change status</text><line style="stroke:#0A9EFD;stroke-width:2.0;" x1="185" x2="227" y1="596.8125" y2="596.8125"/><line style="stroke:#0A9EFD;stroke-width:2.0;" x1="227" x2="227" y1="596.8125" y2="609.8125"/><line style="stroke:#0A9EFD;stroke-width:2.0;" x1="186" x2="227" y1="609.8125" y2="609.8125"/><polygon fill="#0A9EFD" points="196,605.8125,186,609.8125,196,613.8125,192,609.8125" style="stroke:#0A9EFD;stroke-width:1.0;"/><text fill="#0A9EFD" font-family="Roboto" font-size="14" font-weight="bold" lengthAdjust="spacing" textLength="155" x="192" y="591.8594">listen for user events</text><polygon fill="#0A9EFD" points="196,636.3008,186,640.3008,196,644.3008,192,640.3008" style="stroke:#0A9EFD;stroke-width:1.0;"/><line style="stroke:#0A9EFD;stroke-width:2.0;" x1="190" x2="442" y1="640.3008" y2="640.3008"/><text fill="#0A9EFD" font-family="Roboto" font-size="14" font-weight="bold" lengthAdjust="spacing" textLength="179" x="224.5" y="635.3477">ConnectionStateChanged</text><polygon fill="#0A9EFD" points="50,666.7891,40,670.7891,50,674.7891,46,670.7891" style="stroke:#0A9EFD;stroke-width:1.0;"/><line style="stroke:#0A9EFD;stroke-width:2.0;" x1="44" x2="184" y1="670.7891" y2="670.7891"/><text fill="#0A9EFD" font-family="Roboto" font-size="14" font-weight="bold" lengthAdjust="spacing" textLength="93" x="65.5" y="665.8359">Inform users</text><path d="M10,692.7891 L95,692.7891 L95,701.2773 L85,711.2773 L10,711.2773 L10,692.7891 " fill="#EEEEEE" style="stroke:#0A9EFD;stroke-width:1.5;"/><rect fill="none" height="79.4648" style="stroke:#0A9EFD;stroke-width:2.0;" width="483.5" x="10" y="692.7891"/><text fill="#0A9EFD" font-family="Roboto" font-size="14" font-weight="bold" lengthAdjust="spacing" textLength="40" x="25" y="707.3242">Close</text><polygon fill="#0A9EFD" points="173,729.7656,183,733.7656,173,737.7656,177,733.7656" style="stroke:#0A9EFD;stroke-width:1.0;"/><line style="stroke:#0A9EFD;stroke-width:2.0;" x1="39" x2="179" y1="733.7656" y2="733.7656"/><text fill="#0A9EFD" font-family="Roboto" font-size="14" font-weight="bold" lengthAdjust="spacing" textLength="55" x="84.5" y="728.8125">Log out</text><polygon fill="#0A9EFD" points="431,760.2539,441,764.2539,431,768.2539,435,764.2539" style="stroke:#0A9EFD;stroke-width:1.0;"/><line style="stroke:#0A9EFD;stroke-width:2.0;" x1="185" x2="437" y1="764.2539" y2="764.2539"/><text fill="#0A9EFD" font-family="Roboto" font-size="14" font-weight="bold" lengthAdjust="spacing" textLength="147" x="240.5" y="759.3008">Log out of Signaling</text><!--SRC=[TP9BJyCm48Jl_XLBxatlFI1LWKD44L6Z7ZWXrrbIA-uwygD2_7hMJLykS8cKxCxuct4UD2aJEuIod1zqXtRcks4kU-laXnyqbJhkZH1I1UkWs7Xq1KWFctOjnDP-GV5kemCvZeKOfGjQwL5IWABLFKcZgOVswUKeMJQDGEg0LIVfCftod-wagQ-QtjauGaqwQDxuHi4GC7jCnWju6v4IXk2toyVAeGm84lpPzPbwJGYQV92aCDjUTXtW0Pb2IMEsKWq-cxSO8EpOBlAJ65a6RGc27P2kY_K2LhRd4tW0bpGfnJd1AtelU_GY2z34hT5-1_jfcXdUuPVZj9lHhRGFNC4dNzF9OWgJCjINhJjt1bZ06XNg0rvcDwYDGu-ffmorsabYUwumnBmYSuM8_AlyHL1P8bIfkPRrE7br6L1DRB0_Ed19DpYLiJw_zbIrZU5N_VmDxETT_py0]--></g></svg>