<?xml version="1.0" encoding="us-ascii" standalone="no"?><svg xmlns="http://www.w3.org/2000/svg" xmlns:xlink="http://www.w3.org/1999/xlink" contentStyleType="text/css" height="878px" preserveAspectRatio="none" style="width:525px;height:878px;" version="1.1" viewBox="0 0 525 878" width="525px" zoomAndPan="magnify"><defs/><g><rect fill="none" height="876.0693" style="stroke:#0A9EFD;stroke-width:1.0;" width="523" x="0" y="0"/><rect fill="#999999" fill-opacity="0.33333" height="866.0693" style="stroke:#0A9EFD;stroke-width:0.5;" width="116" x="137" y="6"/><text fill="#0A9EFD" font-family="sans-serif" font-size="13" font-weight="bold" lengthAdjust="spacing" textLength="62" x="164" y="18.5684">Your app</text><rect fill="#999999" fill-opacity="0.33333" height="866.0693" style="stroke:#0A9EFD;stroke-width:0.5;" width="84" x="429" y="6"/><text fill="#0A9EFD" font-family="sans-serif" font-size="13" font-weight="bold" lengthAdjust="spacing" textLength="41" x="450.5" y="18.5684">Agora</text><rect fill="#0A9EFD" fill-opacity="0.06667" height="144.7437" style="stroke:#0A9EFD;stroke-width:2.0;" width="466" x="10" y="103.0986"/><rect fill="#0A9EFD" fill-opacity="0.06667" height="116.7949" style="stroke:#0A9EFD;stroke-width:2.0;" width="509" x="10" y="261.8423"/><rect fill="#0A9EFD" fill-opacity="0.06667" height="232.5898" style="stroke:#0A9EFD;stroke-width:2.0;" width="509" x="10" y="392.6372"/><rect fill="#0A9EFD" fill-opacity="0.06667" height="131.7437" style="stroke:#0A9EFD;stroke-width:2.0;" width="509" x="10" y="639.2271"/><line style="stroke:#0A9EFD;stroke-width:0.5;stroke-dasharray:5.0,5.0;" x1="38" x2="38" y1="86.0986" y2="787.9707"/><line style="stroke:#0A9EFD;stroke-width:0.5;stroke-dasharray:5.0,5.0;" x1="195" x2="195" y1="86.0986" y2="787.9707"/><line style="stroke:#0A9EFD;stroke-width:0.5;stroke-dasharray:5.0,5.0;" x1="471" x2="471" y1="86.0986" y2="787.9707"/><text fill="#0A9EFD" font-family="Arial" font-size="14" lengthAdjust="spacing" textLength="30" x="20" y="83.1318">User</text><ellipse cx="38" cy="16" fill="none" rx="8" ry="8" style="stroke:#0A9EFD;stroke-width:3.0;"/><path d="M38,24 L38,51 M25,32 L51,32 M38,51 L25,66 M38,51 L51,66 " fill="none" style="stroke:#0A9EFD;stroke-width:3.0;"/><text fill="#0A9EFD" font-family="Arial" font-size="14" lengthAdjust="spacing" textLength="30" x="20" y="800.1025">User</text><ellipse cx="38" cy="814.0693" fill="none" rx="8" ry="8" style="stroke:#0A9EFD;stroke-width:3.0;"/><path d="M38,822.0693 L38,849.0693 M25,830.0693 L51,830.0693 M38,849.0693 L25,864.0693 M38,849.0693 L51,864.0693 " fill="none" style="stroke:#0A9EFD;stroke-width:3.0;"/><rect fill="none" height="56.7653" rx="2.5" ry="2.5" style="stroke:#0A9EFD;stroke-width:2.0;" width="108" x="141" y="28.3333"/><path d="M181.6667,35.3333 L181.6667,48.6667 L195,48.6667 L195,35.3333 L181.6667,35.3333 M198.3333,42 L198.3333,52 L188.3333,52 L188.3333,55.3333 L201.6667,55.3333 L201.6667,42 L198.3333,42 M205,48.6667 L205,58.6667 L195,58.6667 L195,62 L208.3333,62 L208.3333,48.6667 L205,48.6667 " fill="#0A9EFD" style="stroke:;stroke-width:0.0;stroke-dasharray:;"/><text fill="#0A9EFD" font-family="Arial" font-size="14" lengthAdjust="spacing" textLength="90" x="152" y="75.1318">Signaling SDK</text><rect fill="none" height="56.7653" rx="2.5" ry="2.5" style="stroke:#0A9EFD;stroke-width:2.0;" width="108" x="141" y="786.9707"/><path d="M181.6667,793.9707 L181.6667,807.304 L195,807.304 L195,793.9707 L181.6667,793.9707 M198.3333,800.6374 L198.3333,810.6374 L188.3333,810.6374 L188.3333,813.9707 L201.6667,813.9707 L201.6667,800.6374 L198.3333,800.6374 M205,807.304 L205,817.304 L195,817.304 L195,820.6374 L208.3333,820.6374 L208.3333,807.304 L205,807.304 " fill="#0A9EFD" style="stroke:;stroke-width:0.0;stroke-dasharray:;"/><text fill="#0A9EFD" font-family="Arial" font-size="14" lengthAdjust="spacing" textLength="90" x="152" y="833.7692">Signaling SDK</text><rect fill="none" height="56.7653" rx="2.5" ry="2.5" style="stroke:#0A9EFD;stroke-width:2.0;" width="76" x="433" y="28.3333"/><path d="M472.6667,35.3333 C468.6333,35.3333 465.1,38.2 464.3333,42 C460.6667,42 457.6667,45 457.6667,48.6667 C457.6667,52.3333 460.6667,55.3333 464.3333,55.3333 L479.3333,55.3333 C482.1,55.3333 484.3333,53.1 484.3333,50.3333 C484.3333,48.1667 482.9333,46.0333 481,45.3333 L481,43.6667 C481,39.0667 477.2667,35.3333 472.6667,35.3333 " fill="#0A9EFD" style="stroke:;stroke-width:0.0;stroke-dasharray:;"/><text fill="#0A9EFD" font-family="Arial" font-size="14" lengthAdjust="spacing" textLength="58" x="444" y="75.1318">Signaling</text><rect fill="none" height="56.7653" rx="2.5" ry="2.5" style="stroke:#0A9EFD;stroke-width:2.0;" width="76" x="433" y="786.9707"/><path d="M472.6667,793.9707 C468.6333,793.9707 465.1,796.8374 464.3333,800.6374 C460.6667,800.6374 457.6667,803.6374 457.6667,807.304 C457.6667,810.9707 460.6667,813.9707 464.3333,813.9707 L479.3333,813.9707 C482.1,813.9707 484.3333,811.7374 484.3333,808.9707 C484.3333,806.804 482.9333,804.6707 481,803.9707 L481,802.304 C481,797.704 477.2667,793.9707 472.6667,793.9707 " fill="#0A9EFD" style="stroke:;stroke-width:0.0;stroke-dasharray:;"/><text fill="#0A9EFD" font-family="Arial" font-size="14" lengthAdjust="spacing" textLength="58" x="444" y="833.7692">Signaling</text><path d="M10,103.0986 L103,103.0986 L103,110.0474 L93,120.0474 L10,120.0474 L10,103.0986 " fill="#EEEEEE" style="stroke:#0A9EFD;stroke-width:1.5;"/><rect fill="none" height="144.7437" style="stroke:#0A9EFD;stroke-width:2.0;" width="466" x="10" y="103.0986"/><text fill="#000000" font-family="Arial" font-size="13" lengthAdjust="spacing" textLength="48" x="25" y="116.2925">Initialize</text><polygon fill="#0A9EFD" points="183,136.9961,193,140.9961,183,144.9961,187,140.9961" style="stroke:#0A9EFD;stroke-width:1.0;"/><line style="stroke:#0A9EFD;stroke-width:2.0;" x1="38" x2="189" y1="140.9961" y2="140.9961"/><text fill="#0A9EFD" font-family="Arial" font-size="13" lengthAdjust="spacing" textLength="56" x="88.5" y="136.2412">Open app</text><line style="stroke:#0A9EFD;stroke-width:2.0;" x1="195" x2="237" y1="184.8936" y2="184.8936"/><line style="stroke:#0A9EFD;stroke-width:2.0;" x1="237" x2="237" y1="184.8936" y2="197.8936"/><line style="stroke:#0A9EFD;stroke-width:2.0;" x1="196" x2="237" y1="197.8936" y2="197.8936"/><polygon fill="#0A9EFD" points="206,193.8936,196,197.8936,206,201.8936,202,197.8936" style="stroke:#0A9EFD;stroke-width:1.0;"/><text fill="#0A9EFD" font-family="Arial" font-size="13" lengthAdjust="spacing" textLength="167" x="247.5" y="165.1899">Create a RtmClient instance:</text><text fill="#0A9EFD" font-family="Arial" font-size="13" lengthAdjust="spacing" textLength="258" x="206" y="180.1387">rtmClient = RtmClient.CreateAgoraRtmClient</text><line style="stroke:#0A9EFD;stroke-width:2.0;" x1="195" x2="237" y1="226.8423" y2="226.8423"/><line style="stroke:#0A9EFD;stroke-width:2.0;" x1="237" x2="237" y1="226.8423" y2="239.8423"/><line style="stroke:#0A9EFD;stroke-width:2.0;" x1="196" x2="237" y1="239.8423" y2="239.8423"/><polygon fill="#0A9EFD" points="206,235.8423,196,239.8423,206,243.8423,202,239.8423" style="stroke:#0A9EFD;stroke-width:1.0;"/><text fill="#0A9EFD" font-family="Arial" font-size="13" lengthAdjust="spacing" textLength="112" x="202" y="222.0874">Add event listeners</text><path d="M10,261.8423 L86,261.8423 L86,268.791 L76,278.791 L10,278.791 L10,261.8423 " fill="#EEEEEE" style="stroke:#0A9EFD;stroke-width:1.5;"/><rect fill="none" height="116.7949" style="stroke:#0A9EFD;stroke-width:2.0;" width="509" x="10" y="261.8423"/><text fill="#000000" font-family="Arial" font-size="13" lengthAdjust="spacing" textLength="31" x="25" y="275.0361">Login</text><polygon fill="#0A9EFD" points="183,295.7397,193,299.7397,183,303.7397,187,299.7397" style="stroke:#0A9EFD;stroke-width:1.0;"/><line style="stroke:#0A9EFD;stroke-width:2.0;" x1="38" x2="189" y1="299.7397" y2="299.7397"/><text fill="#0A9EFD" font-family="Arial" font-size="13" lengthAdjust="spacing" textLength="111" x="61" y="294.9849">Log in to Signaling:</text><line style="stroke:#0A9EFD;stroke-width:2.0;" x1="195" x2="237" y1="328.6885" y2="328.6885"/><line style="stroke:#0A9EFD;stroke-width:2.0;" x1="237" x2="237" y1="328.6885" y2="341.6885"/><line style="stroke:#0A9EFD;stroke-width:2.0;" x1="196" x2="237" y1="341.6885" y2="341.6885"/><polygon fill="#0A9EFD" points="206,337.6885,196,341.6885,206,345.6885,202,341.6885" style="stroke:#0A9EFD;stroke-width:1.0;"/><text fill="#0A9EFD" font-family="Arial" font-size="13" lengthAdjust="spacing" textLength="163" x="202" y="323.9336">Set the authentication token</text><polygon fill="#0A9EFD" points="459,366.6372,469,370.6372,459,374.6372,463,370.6372" style="stroke:#0A9EFD;stroke-width:1.0;"/><line style="stroke:#0A9EFD;stroke-width:2.0;" x1="195" x2="465" y1="370.6372" y2="370.6372"/><text fill="#0A9EFD" font-family="Arial" font-size="13" lengthAdjust="spacing" textLength="124" x="271" y="365.8823">rtmClient.LoginAsync</text><path d="M10,392.6372 L115,392.6372 L115,399.5859 L105,409.5859 L10,409.5859 L10,392.6372 " fill="#EEEEEE" style="stroke:#0A9EFD;stroke-width:1.5;"/><rect fill="none" height="232.5898" style="stroke:#0A9EFD;stroke-width:2.0;" width="509" x="10" y="392.6372"/><text fill="#000000" font-family="Arial" font-size="13" lengthAdjust="spacing" textLength="60" x="25" y="405.8311">Messages</text><polygon fill="#0A9EFD" points="183,426.5347,193,430.5347,183,434.5347,187,430.5347" style="stroke:#0A9EFD;stroke-width:1.0;"/><line style="stroke:#0A9EFD;stroke-width:2.0;" x1="38" x2="189" y1="430.5347" y2="430.5347"/><text fill="#0A9EFD" font-family="Arial" font-size="13" lengthAdjust="spacing" textLength="100" x="66.5" y="425.7798">Publish message</text><polygon fill="#0A9EFD" points="459,455.4834,469,459.4834,459,463.4834,463,459.4834" style="stroke:#0A9EFD;stroke-width:1.0;"/><line style="stroke:#0A9EFD;stroke-width:2.0;" x1="195" x2="465" y1="459.4834" y2="459.4834"/><text fill="#0A9EFD" font-family="Arial" font-size="13" lengthAdjust="spacing" textLength="136" x="265" y="454.7285">rtmClient.PublishAsync</text><polygon fill="#0A9EFD" points="183,484.4321,193,488.4321,183,492.4321,187,488.4321" style="stroke:#0A9EFD;stroke-width:1.0;"/><line style="stroke:#0A9EFD;stroke-width:2.0;" x1="38" x2="189" y1="488.4321" y2="488.4321"/><text fill="#0A9EFD" font-family="Arial" font-size="13" lengthAdjust="spacing" textLength="133" x="50" y="483.6772">Subscribe to a channel</text><polygon fill="#0A9EFD" points="459,513.3809,469,517.3809,459,521.3809,463,517.3809" style="stroke:#0A9EFD;stroke-width:1.0;"/><line style="stroke:#0A9EFD;stroke-width:2.0;" x1="195" x2="465" y1="517.3809" y2="517.3809"/><text fill="#0A9EFD" font-family="Arial" font-size="13" lengthAdjust="spacing" textLength="151" x="257.5" y="512.626">rtmClient.SubscribeAsync</text><line style="stroke:#0A9EFD;stroke-width:2.0;" x1="195" x2="237" y1="546.3296" y2="546.3296"/><line style="stroke:#0A9EFD;stroke-width:2.0;" x1="237" x2="237" y1="546.3296" y2="559.3296"/><line style="stroke:#0A9EFD;stroke-width:2.0;" x1="196" x2="237" y1="559.3296" y2="559.3296"/><polygon fill="#0A9EFD" points="206,555.3296,196,559.3296,206,563.3296,202,559.3296" style="stroke:#0A9EFD;stroke-width:1.0;"/><text fill="#0A9EFD" font-family="Arial" font-size="13" lengthAdjust="spacing" textLength="154" x="202" y="541.5747">Listen for message events</text><polygon fill="#0A9EFD" points="206,584.2783,196,588.2783,206,592.2783,202,588.2783" style="stroke:#0A9EFD;stroke-width:1.0;"/><line style="stroke:#0A9EFD;stroke-width:2.0;" x1="200" x2="470" y1="588.2783" y2="588.2783"/><text fill="#0A9EFD" font-family="Arial" font-size="13" lengthAdjust="spacing" textLength="165" x="250.5" y="583.5234">message: OnMessageEvent</text><polygon fill="#0A9EFD" points="49,613.2271,39,617.2271,49,621.2271,45,617.2271" style="stroke:#0A9EFD;stroke-width:1.0;"/><line style="stroke:#0A9EFD;stroke-width:2.0;" x1="43" x2="194" y1="617.2271" y2="617.2271"/><text fill="#0A9EFD" font-family="Arial" font-size="13" lengthAdjust="spacing" textLength="104" x="64.5" y="612.4722">Receive message</text><path d="M10,639.2271 L88,639.2271 L88,646.1758 L78,656.1758 L10,656.1758 L10,639.2271 " fill="#EEEEEE" style="stroke:#0A9EFD;stroke-width:1.5;"/><rect fill="none" height="131.7437" style="stroke:#0A9EFD;stroke-width:2.0;" width="509" x="10" y="639.2271"/><text fill="#000000" font-family="Arial" font-size="13" lengthAdjust="spacing" textLength="33" x="25" y="652.4209">Close</text><polygon fill="#0A9EFD" points="183,673.1245,193,677.1245,183,681.1245,187,677.1245" style="stroke:#0A9EFD;stroke-width:1.0;"/><line style="stroke:#0A9EFD;stroke-width:2.0;" x1="38" x2="189" y1="677.1245" y2="677.1245"/><text fill="#0A9EFD" font-family="Arial" font-size="13" lengthAdjust="spacing" textLength="43" x="95" y="672.3696">Log out</text><polygon fill="#0A9EFD" points="459,702.0732,469,706.0732,459,710.0732,463,706.0732" style="stroke:#0A9EFD;stroke-width:1.0;"/><line style="stroke:#0A9EFD;stroke-width:2.0;" x1="195" x2="465" y1="706.0732" y2="706.0732"/><text fill="#0A9EFD" font-family="Arial" font-size="13" lengthAdjust="spacing" textLength="132" x="267" y="701.3184">rtmClient.LogoutAsync</text><line style="stroke:#0A9EFD;stroke-width:2.0;" x1="195" x2="237" y1="749.9707" y2="749.9707"/><line style="stroke:#0A9EFD;stroke-width:2.0;" x1="237" x2="237" y1="749.9707" y2="762.9707"/><line style="stroke:#0A9EFD;stroke-width:2.0;" x1="196" x2="237" y1="762.9707" y2="762.9707"/><polygon fill="#0A9EFD" points="206,758.9707,196,762.9707,206,766.9707,202,762.9707" style="stroke:#0A9EFD;stroke-width:1.0;"/><text fill="#0A9EFD" font-family="Arial" font-size="13" lengthAdjust="spacing" textLength="55" x="226" y="730.2671">Clean up:</text><text fill="#0A9EFD" font-family="Arial" font-size="13" lengthAdjust="spacing" textLength="103" x="206" y="745.2158">rtmClient.Dispose</text><!--SRC=[TP9DQ-D038Rl_XMg3tkhsyEUJ1i8wHv2kso8wQ5GA9EnrX6PQCnyX6r__MfYrn-4N0pMIC_xwfsv8TOcrWX5SNUY6ksjhmztgh5EVVW3SK7nQB9CwM0TvAyUNGxAmskrpRAT_GVvcuqELDlcMQjS84sjuW3vWwSlB7_UBnv-6FM9pY_U6IfgM1dY1ggdvpDdkTbao3K8gkSja_Hrc3OsrZDMprcFdCRPsCAQAP1qV64cRk5saSHA-DCY9x-P_0t5bKCL41Himt5b24MKs0V56aiGCJUK7yUMefiw6nwAC-oohW5FQSoG3yWIGtBvxV35DiGpSr8HOGXsNA-46RB2064lLgDyMI9IWMoQE22FZUjoj5oSPPR-a_LK_3TwhnhqC_rDt8dJFHoxmol0lgj3JiUhkFFQqGxJ1WhqNZ6ZkK8PcZlETCcNSrhmLvvSxwIBqKlNUkZgZ-HAkL_crsbo0sAiX2rgf1CE2qq2M1dhyI9z6yFr6ENmqkpAe6A8xVoX54_asoIG5Fy3]--></g></svg>