<?xml version="1.0" encoding="us-ascii" standalone="no"?><svg xmlns="http://www.w3.org/2000/svg" xmlns:xlink="http://www.w3.org/1999/xlink" contentStyleType="text/css" height="863px" preserveAspectRatio="none" style="width:527px;height:863px;" version="1.1" viewBox="0 0 527 863" width="527px" zoomAndPan="magnify"><defs/><g><rect fill="none" height="861.1206" style="stroke:#0A9EFD;stroke-width:1.0;" width="525" x="0" y="0"/><rect fill="#999999" fill-opacity="0.33333" height="851.1206" style="stroke:#0A9EFD;stroke-width:0.5;" width="116" x="137" y="6"/><text fill="#0A9EFD" font-family="sans-serif" font-size="13" font-weight="bold" lengthAdjust="spacing" textLength="62" x="164" y="18.5684">Your app</text><rect fill="#999999" fill-opacity="0.33333" height="851.1206" style="stroke:#0A9EFD;stroke-width:0.5;" width="84" x="431" y="6"/><text fill="#0A9EFD" font-family="sans-serif" font-size="13" font-weight="bold" lengthAdjust="spacing" textLength="41" x="452.5" y="18.5684">Agora</text><rect fill="#0A9EFD" fill-opacity="0.06667" height="144.7437" style="stroke:#0A9EFD;stroke-width:2.0;" width="468" x="10" y="103.0986"/><rect fill="#0A9EFD" fill-opacity="0.06667" height="116.7949" style="stroke:#0A9EFD;stroke-width:2.0;" width="511" x="10" y="261.8423"/><rect fill="#0A9EFD" fill-opacity="0.06667" height="232.5898" style="stroke:#0A9EFD;stroke-width:2.0;" width="511" x="10" y="392.6372"/><rect fill="#0A9EFD" fill-opacity="0.06667" height="116.7949" style="stroke:#0A9EFD;stroke-width:2.0;" width="511" x="10" y="639.2271"/><line style="stroke:#0A9EFD;stroke-width:0.5;stroke-dasharray:5.0,5.0;" x1="38" x2="38" y1="86.0986" y2="773.022"/><line style="stroke:#0A9EFD;stroke-width:0.5;stroke-dasharray:5.0,5.0;" x1="195" x2="195" y1="86.0986" y2="773.022"/><line style="stroke:#0A9EFD;stroke-width:0.5;stroke-dasharray:5.0,5.0;" x1="473" x2="473" y1="86.0986" y2="773.022"/><text fill="#0A9EFD" font-family="Arial" font-size="14" lengthAdjust="spacing" textLength="30" x="20" y="83.1318">User</text><ellipse cx="38" cy="16" fill="none" rx="8" ry="8" style="stroke:#0A9EFD;stroke-width:3.0;"/><path d="M38,24 L38,51 M25,32 L51,32 M38,51 L25,66 M38,51 L51,66 " fill="none" style="stroke:#0A9EFD;stroke-width:3.0;"/><text fill="#0A9EFD" font-family="Arial" font-size="14" lengthAdjust="spacing" textLength="30" x="20" y="785.1538">User</text><ellipse cx="38" cy="799.1206" fill="none" rx="8" ry="8" style="stroke:#0A9EFD;stroke-width:3.0;"/><path d="M38,807.1206 L38,834.1206 M25,815.1206 L51,815.1206 M38,834.1206 L25,849.1206 M38,834.1206 L51,849.1206 " fill="none" style="stroke:#0A9EFD;stroke-width:3.0;"/><rect fill="none" height="56.7653" rx="2.5" ry="2.5" style="stroke:#0A9EFD;stroke-width:2.0;" width="108" x="141" y="28.3333"/><path d="M181.6667,35.3333 L181.6667,48.6667 L195,48.6667 L195,35.3333 L181.6667,35.3333 M198.3333,42 L198.3333,52 L188.3333,52 L188.3333,55.3333 L201.6667,55.3333 L201.6667,42 L198.3333,42 M205,48.6667 L205,58.6667 L195,58.6667 L195,62 L208.3333,62 L208.3333,48.6667 L205,48.6667 " fill="#0A9EFD" style="stroke:;stroke-width:0.0;stroke-dasharray:;"/><text fill="#0A9EFD" font-family="Arial" font-size="14" lengthAdjust="spacing" textLength="90" x="152" y="75.1318">Signaling SDK</text><rect fill="none" height="56.7653" rx="2.5" ry="2.5" style="stroke:#0A9EFD;stroke-width:2.0;" width="108" x="141" y="772.022"/><path d="M181.6667,779.022 L181.6667,792.3553 L195,792.3553 L195,779.022 L181.6667,779.022 M198.3333,785.6886 L198.3333,795.6886 L188.3333,795.6886 L188.3333,799.022 L201.6667,799.022 L201.6667,785.6886 L198.3333,785.6886 M205,792.3553 L205,802.3553 L195,802.3553 L195,805.6886 L208.3333,805.6886 L208.3333,792.3553 L205,792.3553 " fill="#0A9EFD" style="stroke:;stroke-width:0.0;stroke-dasharray:;"/><text fill="#0A9EFD" font-family="Arial" font-size="14" lengthAdjust="spacing" textLength="90" x="152" y="818.8205">Signaling SDK</text><rect fill="none" height="56.7653" rx="2.5" ry="2.5" style="stroke:#0A9EFD;stroke-width:2.0;" width="76" x="435" y="28.3333"/><path d="M474.6667,35.3333 C470.6333,35.3333 467.1,38.2 466.3333,42 C462.6667,42 459.6667,45 459.6667,48.6667 C459.6667,52.3333 462.6667,55.3333 466.3333,55.3333 L481.3333,55.3333 C484.1,55.3333 486.3333,53.1 486.3333,50.3333 C486.3333,48.1667 484.9333,46.0333 483,45.3333 L483,43.6667 C483,39.0667 479.2667,35.3333 474.6667,35.3333 " fill="#0A9EFD" style="stroke:;stroke-width:0.0;stroke-dasharray:;"/><text fill="#0A9EFD" font-family="Arial" font-size="14" lengthAdjust="spacing" textLength="58" x="446" y="75.1318">Signaling</text><rect fill="none" height="56.7653" rx="2.5" ry="2.5" style="stroke:#0A9EFD;stroke-width:2.0;" width="76" x="435" y="772.022"/><path d="M474.6667,779.022 C470.6333,779.022 467.1,781.8886 466.3333,785.6886 C462.6667,785.6886 459.6667,788.6886 459.6667,792.3553 C459.6667,796.022 462.6667,799.022 466.3333,799.022 L481.3333,799.022 C484.1,799.022 486.3333,796.7886 486.3333,794.022 C486.3333,791.8553 484.9333,789.722 483,789.022 L483,787.3553 C483,782.7553 479.2667,779.022 474.6667,779.022 " fill="#0A9EFD" style="stroke:;stroke-width:0.0;stroke-dasharray:;"/><text fill="#0A9EFD" font-family="Arial" font-size="14" lengthAdjust="spacing" textLength="58" x="446" y="818.8205">Signaling</text><path d="M10,103.0986 L103,103.0986 L103,110.0474 L93,120.0474 L10,120.0474 L10,103.0986 " fill="#EEEEEE" style="stroke:#0A9EFD;stroke-width:1.5;"/><rect fill="none" height="144.7437" style="stroke:#0A9EFD;stroke-width:2.0;" width="468" x="10" y="103.0986"/><text fill="#000000" font-family="Arial" font-size="13" lengthAdjust="spacing" textLength="48" x="25" y="116.2925">Initialize</text><polygon fill="#0A9EFD" points="183,136.9961,193,140.9961,183,144.9961,187,140.9961" style="stroke:#0A9EFD;stroke-width:1.0;"/><line style="stroke:#0A9EFD;stroke-width:2.0;" x1="38" x2="189" y1="140.9961" y2="140.9961"/><text fill="#0A9EFD" font-family="Arial" font-size="13" lengthAdjust="spacing" textLength="56" x="88.5" y="136.2412">Open app</text><line style="stroke:#0A9EFD;stroke-width:2.0;" x1="195" x2="237" y1="184.8936" y2="184.8936"/><line style="stroke:#0A9EFD;stroke-width:2.0;" x1="237" x2="237" y1="184.8936" y2="197.8936"/><line style="stroke:#0A9EFD;stroke-width:2.0;" x1="196" x2="237" y1="197.8936" y2="197.8936"/><polygon fill="#0A9EFD" points="206,193.8936,196,197.8936,206,201.8936,202,197.8936" style="stroke:#0A9EFD;stroke-width:1.0;"/><text fill="#0A9EFD" font-family="Arial" font-size="13" lengthAdjust="spacing" textLength="167" x="202" y="165.1899">Create a RtmClient instance:</text><text fill="#0A9EFD" font-family="Arial" font-size="13" lengthAdjust="spacing" textLength="80" x="249.5" y="180.1387">initWithConfig</text><line style="stroke:#0A9EFD;stroke-width:2.0;" x1="195" x2="237" y1="226.8423" y2="226.8423"/><line style="stroke:#0A9EFD;stroke-width:2.0;" x1="237" x2="237" y1="226.8423" y2="239.8423"/><line style="stroke:#0A9EFD;stroke-width:2.0;" x1="196" x2="237" y1="239.8423" y2="239.8423"/><polygon fill="#0A9EFD" points="206,235.8423,196,239.8423,206,243.8423,202,239.8423" style="stroke:#0A9EFD;stroke-width:1.0;"/><text fill="#0A9EFD" font-family="Arial" font-size="13" lengthAdjust="spacing" textLength="264" x="202" y="222.0874">Add event listener: didReceiveMessageEvent</text><path d="M10,261.8423 L86,261.8423 L86,268.791 L76,278.791 L10,278.791 L10,261.8423 " fill="#EEEEEE" style="stroke:#0A9EFD;stroke-width:1.5;"/><rect fill="none" height="116.7949" style="stroke:#0A9EFD;stroke-width:2.0;" width="511" x="10" y="261.8423"/><text fill="#000000" font-family="Arial" font-size="13" lengthAdjust="spacing" textLength="31" x="25" y="275.0361">Login</text><polygon fill="#0A9EFD" points="183,295.7397,193,299.7397,183,303.7397,187,299.7397" style="stroke:#0A9EFD;stroke-width:1.0;"/><line style="stroke:#0A9EFD;stroke-width:2.0;" x1="38" x2="189" y1="299.7397" y2="299.7397"/><text fill="#0A9EFD" font-family="Arial" font-size="13" lengthAdjust="spacing" textLength="111" x="61" y="294.9849">Log in to Signaling:</text><line style="stroke:#0A9EFD;stroke-width:2.0;" x1="195" x2="237" y1="328.6885" y2="328.6885"/><line style="stroke:#0A9EFD;stroke-width:2.0;" x1="237" x2="237" y1="328.6885" y2="341.6885"/><line style="stroke:#0A9EFD;stroke-width:2.0;" x1="196" x2="237" y1="341.6885" y2="341.6885"/><polygon fill="#0A9EFD" points="206,337.6885,196,341.6885,206,345.6885,202,341.6885" style="stroke:#0A9EFD;stroke-width:1.0;"/><text fill="#0A9EFD" font-family="Arial" font-size="13" lengthAdjust="spacing" textLength="163" x="202" y="323.9336">Set the authentication token</text><polygon fill="#0A9EFD" points="461,366.6372,471,370.6372,461,374.6372,465,370.6372" style="stroke:#0A9EFD;stroke-width:1.0;"/><line style="stroke:#0A9EFD;stroke-width:2.0;" x1="195" x2="467" y1="370.6372" y2="370.6372"/><text fill="#0A9EFD" font-family="Arial" font-size="13" lengthAdjust="spacing" textLength="79" x="294.5" y="365.8823">loginByToken</text><path d="M10,392.6372 L115,392.6372 L115,399.5859 L105,409.5859 L10,409.5859 L10,392.6372 " fill="#EEEEEE" style="stroke:#0A9EFD;stroke-width:1.5;"/><rect fill="none" height="232.5898" style="stroke:#0A9EFD;stroke-width:2.0;" width="511" x="10" y="392.6372"/><text fill="#000000" font-family="Arial" font-size="13" lengthAdjust="spacing" textLength="60" x="25" y="405.8311">Messages</text><polygon fill="#0A9EFD" points="183,426.5347,193,430.5347,183,434.5347,187,430.5347" style="stroke:#0A9EFD;stroke-width:1.0;"/><line style="stroke:#0A9EFD;stroke-width:2.0;" x1="38" x2="189" y1="430.5347" y2="430.5347"/><text fill="#0A9EFD" font-family="Arial" font-size="13" lengthAdjust="spacing" textLength="100" x="66.5" y="425.7798">Publish message</text><polygon fill="#0A9EFD" points="461,455.4834,471,459.4834,461,463.4834,465,459.4834" style="stroke:#0A9EFD;stroke-width:1.0;"/><line style="stroke:#0A9EFD;stroke-width:2.0;" x1="195" x2="467" y1="459.4834" y2="459.4834"/><text fill="#0A9EFD" font-family="Arial" font-size="13" lengthAdjust="spacing" textLength="41" x="313.5" y="454.7285">publish</text><polygon fill="#0A9EFD" points="183,484.4321,193,488.4321,183,492.4321,187,488.4321" style="stroke:#0A9EFD;stroke-width:1.0;"/><line style="stroke:#0A9EFD;stroke-width:2.0;" x1="38" x2="189" y1="488.4321" y2="488.4321"/><text fill="#0A9EFD" font-family="Arial" font-size="13" lengthAdjust="spacing" textLength="133" x="50" y="483.6772">Subscribe to a channel</text><polygon fill="#0A9EFD" points="461,513.3809,471,517.3809,461,521.3809,465,517.3809" style="stroke:#0A9EFD;stroke-width:1.0;"/><line style="stroke:#0A9EFD;stroke-width:2.0;" x1="195" x2="467" y1="517.3809" y2="517.3809"/><text fill="#0A9EFD" font-family="Arial" font-size="13" lengthAdjust="spacing" textLength="129" x="269.5" y="512.626">subscribeWithChannel</text><line style="stroke:#0A9EFD;stroke-width:2.0;" x1="195" x2="237" y1="546.3296" y2="546.3296"/><line style="stroke:#0A9EFD;stroke-width:2.0;" x1="237" x2="237" y1="546.3296" y2="559.3296"/><line style="stroke:#0A9EFD;stroke-width:2.0;" x1="196" x2="237" y1="559.3296" y2="559.3296"/><polygon fill="#0A9EFD" points="206,555.3296,196,559.3296,206,563.3296,202,559.3296" style="stroke:#0A9EFD;stroke-width:1.0;"/><text fill="#0A9EFD" font-family="Arial" font-size="13" lengthAdjust="spacing" textLength="154" x="202" y="541.5747">Listen for message events</text><polygon fill="#0A9EFD" points="206,584.2783,196,588.2783,206,592.2783,202,588.2783" style="stroke:#0A9EFD;stroke-width:1.0;"/><line style="stroke:#0A9EFD;stroke-width:2.0;" x1="200" x2="472" y1="588.2783" y2="588.2783"/><text fill="#0A9EFD" font-family="Arial" font-size="13" lengthAdjust="spacing" textLength="212" x="228" y="583.5234">message: didReceiveMessageEvent</text><polygon fill="#0A9EFD" points="49,613.2271,39,617.2271,49,621.2271,45,617.2271" style="stroke:#0A9EFD;stroke-width:1.0;"/><line style="stroke:#0A9EFD;stroke-width:2.0;" x1="43" x2="194" y1="617.2271" y2="617.2271"/><text fill="#0A9EFD" font-family="Arial" font-size="13" lengthAdjust="spacing" textLength="104" x="64.5" y="612.4722">Receive message</text><path d="M10,639.2271 L88,639.2271 L88,646.1758 L78,656.1758 L10,656.1758 L10,639.2271 " fill="#EEEEEE" style="stroke:#0A9EFD;stroke-width:1.5;"/><rect fill="none" height="116.7949" style="stroke:#0A9EFD;stroke-width:2.0;" width="511" x="10" y="639.2271"/><text fill="#000000" font-family="Arial" font-size="13" lengthAdjust="spacing" textLength="33" x="25" y="652.4209">Close</text><polygon fill="#0A9EFD" points="183,673.1245,193,677.1245,183,681.1245,187,677.1245" style="stroke:#0A9EFD;stroke-width:1.0;"/><line style="stroke:#0A9EFD;stroke-width:2.0;" x1="38" x2="189" y1="677.1245" y2="677.1245"/><text fill="#0A9EFD" font-family="Arial" font-size="13" lengthAdjust="spacing" textLength="43" x="95" y="672.3696">Log out</text><polygon fill="#0A9EFD" points="461,702.0732,471,706.0732,461,710.0732,465,706.0732" style="stroke:#0A9EFD;stroke-width:1.0;"/><line style="stroke:#0A9EFD;stroke-width:2.0;" x1="195" x2="467" y1="706.0732" y2="706.0732"/><text fill="#0A9EFD" font-family="Arial" font-size="13" lengthAdjust="spacing" textLength="35" x="316.5" y="701.3184">logout</text><line style="stroke:#0A9EFD;stroke-width:2.0;" x1="195" x2="237" y1="735.022" y2="735.022"/><line style="stroke:#0A9EFD;stroke-width:2.0;" x1="237" x2="237" y1="735.022" y2="748.022"/><line style="stroke:#0A9EFD;stroke-width:2.0;" x1="196" x2="237" y1="748.022" y2="748.022"/><polygon fill="#0A9EFD" points="206,744.022,196,748.022,206,752.022,202,748.022" style="stroke:#0A9EFD;stroke-width:1.0;"/><text fill="#0A9EFD" font-family="Arial" font-size="13" lengthAdjust="spacing" textLength="102" x="202" y="730.2671">Clean up: destroy</text><!--SRC=[TL9DQzj04BthLqnrw2rE3ps9O73T7anRQgo6KYY4iNOY3rxFYlqmTNvzPsN5pgRa8j2yD- -zUUmxbiucGp2RtHxPaBi9Pd-BlVFu4FOiCqu7MrNOHUUXlW_aQy00z-scghRkBzI_NVA0mr1N0_h87Gye4Ugxm4_KVFmmltjlyKG-pFy8jDmBMfOUsizVHvt5UbsH652fIM-HhTyMwwnBfj2QT5PNdTwxDC1AEB8odgZIj70ppsOD_1X8SjvA_ox3fIUC10YRU5XQ9ZLb2H6bemRKZ5Nh5yVTqiaZzyNgmXYWOzwm7289-GOCcmrrn4VwJY5WJryo8GTy3lVDzIn5Bfse3KHtlQo1mgcb276dAPD-HTl1o2vlx4ckn5K3Dej_ElqSWHUcKvXG-AxJLeFlu7062w7XZ1NyDcr3vtbBEIf2jqCHiiLQUAQCbRqcv5l7fk1HdzHaUwumA6jrOKtGctLEYXgkWGc_NF7YwgLrWVwhsgNukhDYb1-59HH8WmQW4BqxZQh_0000]--></g></svg>