<?xml version="1.0" encoding="us-ascii" standalone="no"?><svg xmlns="http://www.w3.org/2000/svg" xmlns:xlink="http://www.w3.org/1999/xlink" contentStyleType="text/css" height="863px" preserveAspectRatio="none" style="width:520px;height:863px;" version="1.1" viewBox="0 0 520 863" width="520px" zoomAndPan="magnify"><defs/><g><rect fill="none" height="861.1206" style="stroke:#0A9EFD;stroke-width:1.0;" width="518.5" x="0" y="0"/><rect fill="#999999" fill-opacity="0.33333" height="851.1206" style="stroke:#0A9EFD;stroke-width:0.5;" width="116" x="136.5" y="6"/><text fill="#0A9EFD" font-family="sans-serif" font-size="13" font-weight="bold" lengthAdjust="spacing" textLength="57" x="166" y="19.4951">Your app</text><rect fill="#999999" fill-opacity="0.33333" height="851.1206" style="stroke:#0A9EFD;stroke-width:0.5;" width="84" x="424.5" y="6"/><text fill="#0A9EFD" font-family="sans-serif" font-size="13" font-weight="bold" lengthAdjust="spacing" textLength="38" x="447.5" y="19.4951">Agora</text><rect fill="#0A9EFD" fill-opacity="0.06667" height="144.7437" style="stroke:#0A9EFD;stroke-width:2.0;" width="461.5" x="10" y="103.0986"/><rect fill="#0A9EFD" fill-opacity="0.06667" height="116.7949" style="stroke:#0A9EFD;stroke-width:2.0;" width="504.5" x="10" y="261.8423"/><rect fill="#0A9EFD" fill-opacity="0.06667" height="232.5898" style="stroke:#0A9EFD;stroke-width:2.0;" width="504.5" x="10" y="392.6372"/><rect fill="#0A9EFD" fill-opacity="0.06667" height="116.7949" style="stroke:#0A9EFD;stroke-width:2.0;" width="504.5" x="10" y="639.2271"/><line style="stroke:#0A9EFD;stroke-width:0.5;stroke-dasharray:5.0,5.0;" x1="37" x2="37" y1="86.0986" y2="773.022"/><line style="stroke:#0A9EFD;stroke-width:0.5;stroke-dasharray:5.0,5.0;" x1="194.5" x2="194.5" y1="86.0986" y2="773.022"/><line style="stroke:#0A9EFD;stroke-width:0.5;stroke-dasharray:5.0,5.0;" x1="466.5" x2="466.5" y1="86.0986" y2="773.022"/><text fill="#0A9EFD" font-family="Arial" font-size="14" lengthAdjust="spacing" textLength="29" x="20" y="83.1318">User</text><ellipse cx="37.5" cy="16" fill="none" rx="8" ry="8" style="stroke:#0A9EFD;stroke-width:3.0;"/><path d="M37.5,24 L37.5,51 M24.5,32 L50.5,32 M37.5,51 L24.5,66 M37.5,51 L50.5,66 " fill="none" style="stroke:#0A9EFD;stroke-width:3.0;"/><text fill="#0A9EFD" font-family="Arial" font-size="14" lengthAdjust="spacing" textLength="29" x="20" y="785.1538">User</text><ellipse cx="37.5" cy="799.1206" fill="none" rx="8" ry="8" style="stroke:#0A9EFD;stroke-width:3.0;"/><path d="M37.5,807.1206 L37.5,834.1206 M24.5,815.1206 L50.5,815.1206 M37.5,834.1206 L24.5,849.1206 M37.5,834.1206 L50.5,849.1206 " fill="none" style="stroke:#0A9EFD;stroke-width:3.0;"/><rect fill="none" height="56.7653" rx="2.5" ry="2.5" style="stroke:#0A9EFD;stroke-width:2.0;" width="108" x="140.5" y="28.3333"/><path d="M181.1667,35.3333 L181.1667,48.6667 L194.5,48.6667 L194.5,35.3333 L181.1667,35.3333 M197.8333,42 L197.8333,52 L187.8333,52 L187.8333,55.3333 L201.1667,55.3333 L201.1667,42 L197.8333,42 M204.5,48.6667 L204.5,58.6667 L194.5,58.6667 L194.5,62 L207.8333,62 L207.8333,48.6667 L204.5,48.6667 " fill="#0A9EFD" style="stroke:;stroke-width:0.0;stroke-dasharray:;"/><text fill="#0A9EFD" font-family="Arial" font-size="14" lengthAdjust="spacing" textLength="90" x="151.5" y="75.1318">Signaling SDK</text><rect fill="none" height="56.7653" rx="2.5" ry="2.5" style="stroke:#0A9EFD;stroke-width:2.0;" width="108" x="140.5" y="772.022"/><path d="M181.1667,779.022 L181.1667,792.3553 L194.5,792.3553 L194.5,779.022 L181.1667,779.022 M197.8333,785.6886 L197.8333,795.6886 L187.8333,795.6886 L187.8333,799.022 L201.1667,799.022 L201.1667,785.6886 L197.8333,785.6886 M204.5,792.3553 L204.5,802.3553 L194.5,802.3553 L194.5,805.6886 L207.8333,805.6886 L207.8333,792.3553 L204.5,792.3553 " fill="#0A9EFD" style="stroke:;stroke-width:0.0;stroke-dasharray:;"/><text fill="#0A9EFD" font-family="Arial" font-size="14" lengthAdjust="spacing" textLength="90" x="151.5" y="818.8205">Signaling SDK</text><rect fill="none" height="56.7653" rx="2.5" ry="2.5" style="stroke:#0A9EFD;stroke-width:2.0;" width="76" x="428.5" y="28.3333"/><path d="M468.1667,35.3333 C464.1333,35.3333 460.6,38.2 459.8333,42 C456.1667,42 453.1667,45 453.1667,48.6667 C453.1667,52.3333 456.1667,55.3333 459.8333,55.3333 L474.8333,55.3333 C477.6,55.3333 479.8333,53.1 479.8333,50.3333 C479.8333,48.1667 478.4333,46.0333 476.5,45.3333 L476.5,43.6667 C476.5,39.0667 472.7667,35.3333 468.1667,35.3333 " fill="#0A9EFD" style="stroke:;stroke-width:0.0;stroke-dasharray:;"/><text fill="#0A9EFD" font-family="Arial" font-size="14" lengthAdjust="spacing" textLength="58" x="439.5" y="75.1318">Signaling</text><rect fill="none" height="56.7653" rx="2.5" ry="2.5" style="stroke:#0A9EFD;stroke-width:2.0;" width="76" x="428.5" y="772.022"/><path d="M468.1667,779.022 C464.1333,779.022 460.6,781.8886 459.8333,785.6886 C456.1667,785.6886 453.1667,788.6886 453.1667,792.3553 C453.1667,796.022 456.1667,799.022 459.8333,799.022 L474.8333,799.022 C477.6,799.022 479.8333,796.7886 479.8333,794.022 C479.8333,791.8553 478.4333,789.722 476.5,789.022 L476.5,787.3553 C476.5,782.7553 472.7667,779.022 468.1667,779.022 " fill="#0A9EFD" style="stroke:;stroke-width:0.0;stroke-dasharray:;"/><text fill="#0A9EFD" font-family="Arial" font-size="14" lengthAdjust="spacing" textLength="58" x="439.5" y="818.8205">Signaling</text><path d="M10,103.0986 L102,103.0986 L102,110.0474 L92,120.0474 L10,120.0474 L10,103.0986 " fill="#EEEEEE" style="stroke:#0A9EFD;stroke-width:1.5;"/><rect fill="none" height="144.7437" style="stroke:#0A9EFD;stroke-width:2.0;" width="461.5" x="10" y="103.0986"/><text fill="#000000" font-family="Arial" font-size="13" lengthAdjust="spacing" textLength="47" x="25" y="116.2925">Initialize</text><polygon fill="#0A9EFD" points="182.5,136.9961,192.5,140.9961,182.5,144.9961,186.5,140.9961" style="stroke:#0A9EFD;stroke-width:1.0;"/><line style="stroke:#0A9EFD;stroke-width:2.0;" x1="37.5" x2="188.5" y1="140.9961" y2="140.9961"/><text fill="#0A9EFD" font-family="Arial" font-size="13" lengthAdjust="spacing" textLength="56" x="88" y="136.2412">Open app</text><line style="stroke:#0A9EFD;stroke-width:2.0;" x1="194.5" x2="236.5" y1="184.8936" y2="184.8936"/><line style="stroke:#0A9EFD;stroke-width:2.0;" x1="236.5" x2="236.5" y1="184.8936" y2="197.8936"/><line style="stroke:#0A9EFD;stroke-width:2.0;" x1="195.5" x2="236.5" y1="197.8936" y2="197.8936"/><polygon fill="#0A9EFD" points="205.5,193.8936,195.5,197.8936,205.5,201.8936,201.5,197.8936" style="stroke:#0A9EFD;stroke-width:1.0;"/><text fill="#0A9EFD" font-family="Arial" font-size="13" lengthAdjust="spacing" textLength="167" x="201.5" y="165.1899">Create a RtmClient instance:</text><text fill="#0A9EFD" font-family="Arial" font-size="13" lengthAdjust="spacing" textLength="80" x="249" y="180.1387">initWithConfig</text><line style="stroke:#0A9EFD;stroke-width:2.0;" x1="194.5" x2="236.5" y1="226.8423" y2="226.8423"/><line style="stroke:#0A9EFD;stroke-width:2.0;" x1="236.5" x2="236.5" y1="226.8423" y2="239.8423"/><line style="stroke:#0A9EFD;stroke-width:2.0;" x1="195.5" x2="236.5" y1="239.8423" y2="239.8423"/><polygon fill="#0A9EFD" points="205.5,235.8423,195.5,239.8423,205.5,243.8423,201.5,239.8423" style="stroke:#0A9EFD;stroke-width:1.0;"/><text fill="#0A9EFD" font-family="Arial" font-size="13" lengthAdjust="spacing" textLength="258" x="201.5" y="222.0874">Add event listener: didReceiveMessageEvent</text><path d="M10,261.8423 L86,261.8423 L86,268.791 L76,278.791 L10,278.791 L10,261.8423 " fill="#EEEEEE" style="stroke:#0A9EFD;stroke-width:1.5;"/><rect fill="none" height="116.7949" style="stroke:#0A9EFD;stroke-width:2.0;" width="504.5" x="10" y="261.8423"/><text fill="#000000" font-family="Arial" font-size="13" lengthAdjust="spacing" textLength="31" x="25" y="275.0361">Login</text><polygon fill="#0A9EFD" points="182.5,295.7397,192.5,299.7397,182.5,303.7397,186.5,299.7397" style="stroke:#0A9EFD;stroke-width:1.0;"/><line style="stroke:#0A9EFD;stroke-width:2.0;" x1="37.5" x2="188.5" y1="299.7397" y2="299.7397"/><text fill="#0A9EFD" font-family="Arial" font-size="13" lengthAdjust="spacing" textLength="111" x="60.5" y="294.9849">Log in to Signaling:</text><line style="stroke:#0A9EFD;stroke-width:2.0;" x1="194.5" x2="236.5" y1="328.6885" y2="328.6885"/><line style="stroke:#0A9EFD;stroke-width:2.0;" x1="236.5" x2="236.5" y1="328.6885" y2="341.6885"/><line style="stroke:#0A9EFD;stroke-width:2.0;" x1="195.5" x2="236.5" y1="341.6885" y2="341.6885"/><polygon fill="#0A9EFD" points="205.5,337.6885,195.5,341.6885,205.5,345.6885,201.5,341.6885" style="stroke:#0A9EFD;stroke-width:1.0;"/><text fill="#0A9EFD" font-family="Arial" font-size="13" lengthAdjust="spacing" textLength="163" x="201.5" y="323.9336">Set the authentication token</text><polygon fill="#0A9EFD" points="454.5,366.6372,464.5,370.6372,454.5,374.6372,458.5,370.6372" style="stroke:#0A9EFD;stroke-width:1.0;"/><line style="stroke:#0A9EFD;stroke-width:2.0;" x1="194.5" x2="460.5" y1="370.6372" y2="370.6372"/><text fill="#0A9EFD" font-family="Arial" font-size="13" lengthAdjust="spacing" textLength="78" x="291.5" y="365.8823">loginByToken</text><path d="M10,392.6372 L115,392.6372 L115,399.5859 L105,409.5859 L10,409.5859 L10,392.6372 " fill="#EEEEEE" style="stroke:#0A9EFD;stroke-width:1.5;"/><rect fill="none" height="232.5898" style="stroke:#0A9EFD;stroke-width:2.0;" width="504.5" x="10" y="392.6372"/><text fill="#000000" font-family="Arial" font-size="13" lengthAdjust="spacing" textLength="60" x="25" y="405.8311">Messages</text><polygon fill="#0A9EFD" points="182.5,426.5347,192.5,430.5347,182.5,434.5347,186.5,430.5347" style="stroke:#0A9EFD;stroke-width:1.0;"/><line style="stroke:#0A9EFD;stroke-width:2.0;" x1="37.5" x2="188.5" y1="430.5347" y2="430.5347"/><text fill="#0A9EFD" font-family="Arial" font-size="13" lengthAdjust="spacing" textLength="100" x="66" y="425.7798">Publish message</text><polygon fill="#0A9EFD" points="454.5,455.4834,464.5,459.4834,454.5,463.4834,458.5,459.4834" style="stroke:#0A9EFD;stroke-width:1.0;"/><line style="stroke:#0A9EFD;stroke-width:2.0;" x1="194.5" x2="460.5" y1="459.4834" y2="459.4834"/><text fill="#0A9EFD" font-family="Arial" font-size="13" lengthAdjust="spacing" textLength="41" x="310" y="454.7285">publish</text><polygon fill="#0A9EFD" points="182.5,484.4321,192.5,488.4321,182.5,492.4321,186.5,488.4321" style="stroke:#0A9EFD;stroke-width:1.0;"/><line style="stroke:#0A9EFD;stroke-width:2.0;" x1="37.5" x2="188.5" y1="488.4321" y2="488.4321"/><text fill="#0A9EFD" font-family="Arial" font-size="13" lengthAdjust="spacing" textLength="133" x="49.5" y="483.6772">Subscribe to a channel</text><polygon fill="#0A9EFD" points="454.5,513.3809,464.5,517.3809,454.5,521.3809,458.5,517.3809" style="stroke:#0A9EFD;stroke-width:1.0;"/><line style="stroke:#0A9EFD;stroke-width:2.0;" x1="194.5" x2="460.5" y1="517.3809" y2="517.3809"/><text fill="#0A9EFD" font-family="Arial" font-size="13" lengthAdjust="spacing" textLength="130" x="265.5" y="512.626">subscribeWithChannel</text><line style="stroke:#0A9EFD;stroke-width:2.0;" x1="194.5" x2="236.5" y1="546.3296" y2="546.3296"/><line style="stroke:#0A9EFD;stroke-width:2.0;" x1="236.5" x2="236.5" y1="546.3296" y2="559.3296"/><line style="stroke:#0A9EFD;stroke-width:2.0;" x1="195.5" x2="236.5" y1="559.3296" y2="559.3296"/><polygon fill="#0A9EFD" points="205.5,555.3296,195.5,559.3296,205.5,563.3296,201.5,559.3296" style="stroke:#0A9EFD;stroke-width:1.0;"/><text fill="#0A9EFD" font-family="Arial" font-size="13" lengthAdjust="spacing" textLength="151" x="201.5" y="541.5747">Listen for message events</text><polygon fill="#0A9EFD" points="205.5,584.2783,195.5,588.2783,205.5,592.2783,201.5,588.2783" style="stroke:#0A9EFD;stroke-width:1.0;"/><line style="stroke:#0A9EFD;stroke-width:2.0;" x1="199.5" x2="465.5" y1="588.2783" y2="588.2783"/><text fill="#0A9EFD" font-family="Arial" font-size="13" lengthAdjust="spacing" textLength="208" x="226.5" y="583.5234">message: didReceiveMessageEvent</text><polygon fill="#0A9EFD" points="48.5,613.2271,38.5,617.2271,48.5,621.2271,44.5,617.2271" style="stroke:#0A9EFD;stroke-width:1.0;"/><line style="stroke:#0A9EFD;stroke-width:2.0;" x1="42.5" x2="193.5" y1="617.2271" y2="617.2271"/><text fill="#0A9EFD" font-family="Arial" font-size="13" lengthAdjust="spacing" textLength="102" x="65" y="612.4722">Receive message</text><path d="M10,639.2271 L88,639.2271 L88,646.1758 L78,656.1758 L10,656.1758 L10,639.2271 " fill="#EEEEEE" style="stroke:#0A9EFD;stroke-width:1.5;"/><rect fill="none" height="116.7949" style="stroke:#0A9EFD;stroke-width:2.0;" width="504.5" x="10" y="639.2271"/><text fill="#000000" font-family="Arial" font-size="13" lengthAdjust="spacing" textLength="33" x="25" y="652.4209">Close</text><polygon fill="#0A9EFD" points="182.5,673.1245,192.5,677.1245,182.5,681.1245,186.5,677.1245" style="stroke:#0A9EFD;stroke-width:1.0;"/><line style="stroke:#0A9EFD;stroke-width:2.0;" x1="37.5" x2="188.5" y1="677.1245" y2="677.1245"/><text fill="#0A9EFD" font-family="Arial" font-size="13" lengthAdjust="spacing" textLength="43" x="94.5" y="672.3696">Log out</text><polygon fill="#0A9EFD" points="454.5,702.0732,464.5,706.0732,454.5,710.0732,458.5,706.0732" style="stroke:#0A9EFD;stroke-width:1.0;"/><line style="stroke:#0A9EFD;stroke-width:2.0;" x1="194.5" x2="460.5" y1="706.0732" y2="706.0732"/><text fill="#0A9EFD" font-family="Arial" font-size="13" lengthAdjust="spacing" textLength="35" x="313" y="701.3184">logout</text><line style="stroke:#0A9EFD;stroke-width:2.0;" x1="194.5" x2="236.5" y1="735.022" y2="735.022"/><line style="stroke:#0A9EFD;stroke-width:2.0;" x1="236.5" x2="236.5" y1="735.022" y2="748.022"/><line style="stroke:#0A9EFD;stroke-width:2.0;" x1="195.5" x2="236.5" y1="748.022" y2="748.022"/><polygon fill="#0A9EFD" points="205.5,744.022,195.5,748.022,205.5,752.022,201.5,748.022" style="stroke:#0A9EFD;stroke-width:1.0;"/><text fill="#0A9EFD" font-family="Arial" font-size="13" lengthAdjust="spacing" textLength="102" x="201.5" y="730.2671">Clean up: destroy</text><!--SRC=[TL9DIyD04BtdLumvU5CyU0gbKAk7e69fB288iat6TEXsDko7M7-zisdwiOgNGEQzUU_DOy-8QnqQ1DKQgzxTclYImaPdcQgziP0l7DeSb8D5DS-ofVc2_DK42whhygnJrbDDdM8F-SZHDnRNL-FHkLPRj6xynb1HoqeJjr3TtlSwazaiGsv0f0QzIRJ-NwpM9ZI9rg1J7dLQQq879PCdONnZ9cdXOXpD2dZga6FUJFuEmwb5vULicFlDL1EAAR7pYciiGCn8j5x8hwQ6FwXDLYTD0_WPDpGvZuosW8QQETP8d_Y8pgaMxo8X1jo7Up0jSP9B9c83tXmlAo1ngj23NqdA85-MTfGd4pVMo4TYMO2EuZVRvnuuCHt2kCHt5fOIV0MR7PW8TJiiuLTXwMfBIunH5TGhnOmwMNDxIb_PRqAyjMyAFkH93RQx2fsmoWDhWFwjSr2KS0KC-E6AawkdsZZyKxK9_dTdoIW-2esA8NGI09stPjkh_W00]--></g></svg>