<?xml version="1.0" encoding="us-ascii" standalone="no"?><svg xmlns="http://www.w3.org/2000/svg" xmlns:xlink="http://www.w3.org/1999/xlink" contentStyleType="text/css" height="1167px" preserveAspectRatio="none" style="width:645px;height:1167px;" version="1.1" viewBox="0 0 645 1167" width="645px" zoomAndPan="magnify"><defs/><g><rect fill="none" height="1165.4028" style="stroke:#0A9EFD;stroke-width:1.0;" width="643" x="0" y="0"/><rect fill="#999999" fill-opacity="0.33333" height="1155.4028" style="stroke:#0A9EFD;stroke-width:0.5;" width="116" x="192" y="6"/><text fill="#0A9EFD" font-family="sans-serif" font-size="13" font-weight="bold" lengthAdjust="spacing" textLength="62" x="219" y="18.5684">Your app</text><rect fill="#999999" fill-opacity="0.33333" height="1155.4028" style="stroke:#0A9EFD;stroke-width:0.5;" width="84" x="549" y="6"/><text fill="#0A9EFD" font-family="sans-serif" font-size="13" font-weight="bold" lengthAdjust="spacing" textLength="41" x="570.5" y="18.5684">Agora</text><rect fill="#0A9EFD" fill-opacity="0.06667" height="273.4873" style="stroke:#0A9EFD;stroke-width:2.0;" width="459" x="10" y="103.0986"/><rect fill="#0A9EFD" fill-opacity="0.06667" height="219.5386" style="stroke:#0A9EFD;stroke-width:2.0;" width="453" x="186" y="390.5859"/><rect fill="#0A9EFD" fill-opacity="0.06667" height="261.4873" style="stroke:#0A9EFD;stroke-width:2.0;" width="629" x="10" y="624.1245"/><rect fill="#0A9EFD" fill-opacity="0.06667" height="160.6924" style="stroke:#0A9EFD;stroke-width:2.0;" width="629" x="10" y="899.6118"/><line style="stroke:#0A9EFD;stroke-width:0.5;stroke-dasharray:5.0,5.0;" x1="38" x2="38" y1="86.0986" y2="1077.3042"/><line style="stroke:#0A9EFD;stroke-width:0.5;stroke-dasharray:5.0,5.0;" x1="250" x2="250" y1="86.0986" y2="1077.3042"/><line style="stroke:#0A9EFD;stroke-width:0.5;stroke-dasharray:5.0,5.0;" x1="591" x2="591" y1="86.0986" y2="1077.3042"/><text fill="#0A9EFD" font-family="Arial" font-size="14" lengthAdjust="spacing" textLength="30" x="20" y="83.1318">User</text><ellipse cx="38" cy="16" fill="none" rx="8" ry="8" style="stroke:#0A9EFD;stroke-width:3.0;"/><path d="M38,24 L38,51 M25,32 L51,32 M38,51 L25,66 M38,51 L51,66 " fill="none" style="stroke:#0A9EFD;stroke-width:3.0;"/><text fill="#0A9EFD" font-family="Arial" font-size="14" lengthAdjust="spacing" textLength="30" x="20" y="1089.436">User</text><ellipse cx="38" cy="1103.4028" fill="none" rx="8" ry="8" style="stroke:#0A9EFD;stroke-width:3.0;"/><path d="M38,1111.4028 L38,1138.4028 M25,1119.4028 L51,1119.4028 M38,1138.4028 L25,1153.4028 M38,1138.4028 L51,1153.4028 " fill="none" style="stroke:#0A9EFD;stroke-width:3.0;"/><rect fill="none" height="56.7653" rx="2.5" ry="2.5" style="stroke:#0A9EFD;stroke-width:2.0;" width="108" x="196" y="28.3333"/><path d="M236.6667,35.3333 L236.6667,48.6667 L250,48.6667 L250,35.3333 L236.6667,35.3333 M253.3333,42 L253.3333,52 L243.3333,52 L243.3333,55.3333 L256.6667,55.3333 L256.6667,42 L253.3333,42 M260,48.6667 L260,58.6667 L250,58.6667 L250,62 L263.3333,62 L263.3333,48.6667 L260,48.6667 " fill="#0A9EFD" style="stroke:;stroke-width:0.0;stroke-dasharray:;"/><text fill="#0A9EFD" font-family="Arial" font-size="14" lengthAdjust="spacing" textLength="90" x="207" y="75.1318">Signaling SDK</text><rect fill="none" height="56.7653" rx="2.5" ry="2.5" style="stroke:#0A9EFD;stroke-width:2.0;" width="108" x="196" y="1076.3042"/><path d="M236.6667,1083.3042 L236.6667,1096.6375 L250,1096.6375 L250,1083.3042 L236.6667,1083.3042 M253.3333,1089.9709 L253.3333,1099.9709 L243.3333,1099.9709 L243.3333,1103.3042 L256.6667,1103.3042 L256.6667,1089.9709 L253.3333,1089.9709 M260,1096.6375 L260,1106.6375 L250,1106.6375 L250,1109.9709 L263.3333,1109.9709 L263.3333,1096.6375 L260,1096.6375 " fill="#0A9EFD" style="stroke:;stroke-width:0.0;stroke-dasharray:;"/><text fill="#0A9EFD" font-family="Arial" font-size="14" lengthAdjust="spacing" textLength="90" x="207" y="1123.1027">Signaling SDK</text><rect fill="none" height="56.7653" rx="2.5" ry="2.5" style="stroke:#0A9EFD;stroke-width:2.0;" width="76" x="553" y="28.3333"/><path d="M592.6667,35.3333 C588.6333,35.3333 585.1,38.2 584.3333,42 C580.6667,42 577.6667,45 577.6667,48.6667 C577.6667,52.3333 580.6667,55.3333 584.3333,55.3333 L599.3333,55.3333 C602.1,55.3333 604.3333,53.1 604.3333,50.3333 C604.3333,48.1667 602.9333,46.0333 601,45.3333 L601,43.6667 C601,39.0667 597.2667,35.3333 592.6667,35.3333 " fill="#0A9EFD" style="stroke:;stroke-width:0.0;stroke-dasharray:;"/><text fill="#0A9EFD" font-family="Arial" font-size="14" lengthAdjust="spacing" textLength="58" x="564" y="75.1318">Signaling</text><rect fill="none" height="56.7653" rx="2.5" ry="2.5" style="stroke:#0A9EFD;stroke-width:2.0;" width="76" x="553" y="1076.3042"/><path d="M592.6667,1083.3042 C588.6333,1083.3042 585.1,1086.1709 584.3333,1089.9709 C580.6667,1089.9709 577.6667,1092.9709 577.6667,1096.6375 C577.6667,1100.3042 580.6667,1103.3042 584.3333,1103.3042 L599.3333,1103.3042 C602.1,1103.3042 604.3333,1101.0709 604.3333,1098.3042 C604.3333,1096.1375 602.9333,1094.0042 601,1093.3042 L601,1091.6375 C601,1087.0375 597.2667,1083.3042 592.6667,1083.3042 " fill="#0A9EFD" style="stroke:;stroke-width:0.0;stroke-dasharray:;"/><text fill="#0A9EFD" font-family="Arial" font-size="14" lengthAdjust="spacing" textLength="58" x="564" y="1123.1027">Signaling</text><path d="M10,103.0986 L103,103.0986 L103,110.0474 L93,120.0474 L10,120.0474 L10,103.0986 " fill="#EEEEEE" style="stroke:#0A9EFD;stroke-width:1.5;"/><rect fill="none" height="273.4873" style="stroke:#0A9EFD;stroke-width:2.0;" width="459" x="10" y="103.0986"/><text fill="#000000" font-family="Arial" font-size="13" lengthAdjust="spacing" textLength="48" x="25" y="116.2925">Initialize</text><polygon fill="#0A9EFD" points="238,136.9961,248,140.9961,238,144.9961,242,140.9961" style="stroke:#0A9EFD;stroke-width:1.0;"/><line style="stroke:#0A9EFD;stroke-width:2.0;" x1="38" x2="244" y1="140.9961" y2="140.9961"/><text fill="#0A9EFD" font-family="Arial" font-size="13" lengthAdjust="spacing" textLength="56" x="116" y="136.2412">Open app</text><line style="stroke:#0A9EFD;stroke-width:2.0;" x1="250" x2="292" y1="184.8936" y2="184.8936"/><line style="stroke:#0A9EFD;stroke-width:2.0;" x1="292" x2="292" y1="184.8936" y2="197.8936"/><line style="stroke:#0A9EFD;stroke-width:2.0;" x1="251" x2="292" y1="197.8936" y2="197.8936"/><polygon fill="#0A9EFD" points="261,193.8936,251,197.8936,261,201.8936,257,197.8936" style="stroke:#0A9EFD;stroke-width:1.0;"/><text fill="#0A9EFD" font-family="Arial" font-size="13" lengthAdjust="spacing" textLength="160" x="275" y="165.1899">Create RTMClient instance:</text><text fill="#0A9EFD" font-family="Arial" font-size="13" lengthAdjust="spacing" textLength="196" x="261" y="180.1387">createAgoraRtmClient(RtmConfig)</text><line style="stroke:#0A9EFD;stroke-width:2.0;" x1="250" x2="292" y1="226.8423" y2="226.8423"/><line style="stroke:#0A9EFD;stroke-width:2.0;" x1="292" x2="292" y1="226.8423" y2="239.8423"/><line style="stroke:#0A9EFD;stroke-width:2.0;" x1="251" x2="292" y1="239.8423" y2="239.8423"/><polygon fill="#0A9EFD" points="261,235.8423,251,239.8423,261,243.8423,257,239.8423" style="stroke:#0A9EFD;stroke-width:1.0;"/><text fill="#0A9EFD" font-family="Arial" font-size="13" lengthAdjust="spacing" textLength="137" x="257" y="222.0874">Wrap with RTMProvider</text><line style="stroke:#0A9EFD;stroke-width:2.0;" x1="250" x2="292" y1="283.7397" y2="283.7397"/><line style="stroke:#0A9EFD;stroke-width:2.0;" x1="292" x2="292" y1="283.7397" y2="296.7397"/><line style="stroke:#0A9EFD;stroke-width:2.0;" x1="251" x2="292" y1="296.7397" y2="296.7397"/><polygon fill="#0A9EFD" points="261,292.7397,251,296.7397,261,300.7397,257,296.7397" style="stroke:#0A9EFD;stroke-width:1.0;"/><text fill="#0A9EFD" font-family="Arial" font-size="13" lengthAdjust="spacing" textLength="120" x="257" y="264.0361">Get engine instance:</text><text fill="#0A9EFD" font-family="Arial" font-size="13" lengthAdjust="spacing" textLength="53" x="294.5" y="278.9849">useRtm()</text><line style="stroke:#0A9EFD;stroke-width:2.0;" x1="250" x2="292" y1="355.5859" y2="355.5859"/><line style="stroke:#0A9EFD;stroke-width:2.0;" x1="292" x2="292" y1="355.5859" y2="368.5859"/><line style="stroke:#0A9EFD;stroke-width:2.0;" x1="251" x2="292" y1="368.5859" y2="368.5859"/><polygon fill="#0A9EFD" points="261,364.5859,251,368.5859,261,372.5859,257,368.5859" style="stroke:#0A9EFD;stroke-width:1.0;"/><text fill="#0A9EFD" font-family="Arial" font-size="13" lengthAdjust="spacing" textLength="116" x="296" y="320.9336">Add event listeners:</text><text fill="#0A9EFD" font-family="Arial" font-size="13" lengthAdjust="spacing" textLength="190" x="261" y="335.8823">useRtmEvent(engine, 'message')</text><text fill="#0A9EFD" font-family="Arial" font-size="13" lengthAdjust="spacing" textLength="188" x="264" y="350.8311">useRtmEvent(engine, 'linkState')</text><path d="M186,390.5859 L262,390.5859 L262,397.5347 L252,407.5347 L186,407.5347 L186,390.5859 " fill="#EEEEEE" style="stroke:#0A9EFD;stroke-width:1.5;"/><rect fill="none" height="219.5386" style="stroke:#0A9EFD;stroke-width:2.0;" width="453" x="186" y="390.5859"/><text fill="#000000" font-family="Arial" font-size="13" lengthAdjust="spacing" textLength="31" x="201" y="403.7798">Login</text><polygon fill="#0A9EFD" points="579,424.4834,589,428.4834,579,432.4834,583,428.4834" style="stroke:#0A9EFD;stroke-width:1.0;"/><line style="stroke:#0A9EFD;stroke-width:2.0;" x1="250" x2="585" y1="428.4834" y2="428.4834"/><text fill="#0A9EFD" font-family="Arial" font-size="13" lengthAdjust="spacing" textLength="125" x="358" y="423.7285">engine.login({ token })</text><polygon fill="#0A9EFD" points="261,468.3809,251,472.3809,261,476.3809,257,472.3809" style="stroke:#0A9EFD;stroke-width:1.0;"/><line style="stroke:#0A9EFD;stroke-width:2.0;" x1="255" x2="590" y1="472.3809" y2="472.3809"/><text fill="#0A9EFD" font-family="Arial" font-size="13" lengthAdjust="spacing" textLength="91" x="373" y="452.6772">linkState event:</text><text fill="#0A9EFD" font-family="Arial" font-size="13" lengthAdjust="spacing" textLength="146" x="349.5" y="467.626">RtmLinkState.connecting</text><polygon fill="#0A9EFD" points="261,512.2783,251,516.2783,261,520.2783,257,516.2783" style="stroke:#0A9EFD;stroke-width:1.0;"/><line style="stroke:#0A9EFD;stroke-width:2.0;" x1="255" x2="590" y1="516.2783" y2="516.2783"/><text fill="#0A9EFD" font-family="Arial" font-size="13" lengthAdjust="spacing" textLength="91" x="373" y="496.5747">linkState event:</text><text fill="#0A9EFD" font-family="Arial" font-size="13" lengthAdjust="spacing" textLength="143" x="351" y="511.5234">RtmLinkState.connected</text><line style="stroke:#0A9EFD;stroke-width:2.0;" x1="250" x2="292" y1="560.1758" y2="560.1758"/><line style="stroke:#0A9EFD;stroke-width:2.0;" x1="292" x2="292" y1="560.1758" y2="573.1758"/><line style="stroke:#0A9EFD;stroke-width:2.0;" x1="251" x2="292" y1="573.1758" y2="573.1758"/><polygon fill="#0A9EFD" points="261,569.1758,251,573.1758,261,577.1758,257,573.1758" style="stroke:#0A9EFD;stroke-width:1.0;"/><text fill="#0A9EFD" font-family="Arial" font-size="13" lengthAdjust="spacing" textLength="176" x="257" y="540.4722">Auto-subscribe on connection:</text><text fill="#0A9EFD" font-family="Arial" font-size="13" lengthAdjust="spacing" textLength="126" x="286" y="555.4209">subscribeToChannel()</text><polygon fill="#0A9EFD" points="579,598.1245,589,602.1245,579,606.1245,583,602.1245" style="stroke:#0A9EFD;stroke-width:1.0;"/><line style="stroke:#0A9EFD;stroke-width:2.0;" x1="250" x2="585" y1="602.1245" y2="602.1245"/><text fill="#0A9EFD" font-family="Arial" font-size="13" lengthAdjust="spacing" textLength="317" x="262" y="597.3696">engine.subscribe(CHANNEL_ID, { withMessage: true })</text><path d="M10,624.1245 L115,624.1245 L115,631.0732 L105,641.0732 L10,641.0732 L10,624.1245 " fill="#EEEEEE" style="stroke:#0A9EFD;stroke-width:1.5;"/><rect fill="none" height="261.4873" style="stroke:#0A9EFD;stroke-width:2.0;" width="629" x="10" y="624.1245"/><text fill="#000000" font-family="Arial" font-size="13" lengthAdjust="spacing" textLength="60" x="25" y="637.3184">Messages</text><polygon fill="#0A9EFD" points="238,658.022,248,662.022,238,666.022,242,662.022" style="stroke:#0A9EFD;stroke-width:1.0;"/><line style="stroke:#0A9EFD;stroke-width:2.0;" x1="38" x2="244" y1="662.022" y2="662.022"/><text fill="#0A9EFD" font-family="Arial" font-size="13" lengthAdjust="spacing" textLength="143" x="72.5" y="657.2671">Type and send message</text><polygon fill="#0A9EFD" points="579,716.8682,589,720.8682,579,724.8682,583,720.8682" style="stroke:#0A9EFD;stroke-width:1.0;"/><line style="stroke:#0A9EFD;stroke-width:2.0;" x1="250" x2="585" y1="720.8682" y2="720.8682"/><text fill="#0A9EFD" font-family="Arial" font-size="13" lengthAdjust="spacing" textLength="241" x="300" y="686.2158">engine.publish(CHANNEL_ID, message, {</text><text fill="#0A9EFD" font-family="Arial" font-size="13" lengthAdjust="spacing" textLength="243" x="301" y="701.1646">channelType: RtmChannelType.message,</text><text fill="#0A9EFD" font-family="Arial" font-size="13" lengthAdjust="spacing" textLength="244" x="300.5" y="716.1133">messageType: RtmMessageType.string })</text><line style="stroke:#0A9EFD;stroke-width:2.0;" x1="250" x2="292" y1="749.8169" y2="749.8169"/><line style="stroke:#0A9EFD;stroke-width:2.0;" x1="292" x2="292" y1="749.8169" y2="762.8169"/><line style="stroke:#0A9EFD;stroke-width:2.0;" x1="251" x2="292" y1="762.8169" y2="762.8169"/><polygon fill="#0A9EFD" points="261,758.8169,251,762.8169,261,766.8169,257,762.8169" style="stroke:#0A9EFD;stroke-width:1.0;"/><text fill="#0A9EFD" font-family="Arial" font-size="13" lengthAdjust="spacing" textLength="188" x="257" y="745.062">Add sent message to local state</text><polygon fill="#0A9EFD" points="261,787.7656,251,791.7656,261,795.7656,257,791.7656" style="stroke:#0A9EFD;stroke-width:1.0;"/><line style="stroke:#0A9EFD;stroke-width:2.0;" x1="255" x2="590" y1="791.7656" y2="791.7656"/><text fill="#0A9EFD" font-family="Arial" font-size="13" lengthAdjust="spacing" textLength="188" x="326.5" y="787.0107">message event from other users</text><line style="stroke:#0A9EFD;stroke-width:2.0;" x1="250" x2="292" y1="835.6631" y2="835.6631"/><line style="stroke:#0A9EFD;stroke-width:2.0;" x1="292" x2="292" y1="835.6631" y2="848.6631"/><line style="stroke:#0A9EFD;stroke-width:2.0;" x1="251" x2="292" y1="848.6631" y2="848.6631"/><polygon fill="#0A9EFD" points="261,844.6631,251,848.6631,261,852.6631,257,848.6631" style="stroke:#0A9EFD;stroke-width:1.0;"/><text fill="#0A9EFD" font-family="Arial" font-size="13" lengthAdjust="spacing" textLength="137" x="258.5" y="815.9595">Handle message event:</text><text fill="#0A9EFD" font-family="Arial" font-size="13" lengthAdjust="spacing" textLength="140" x="261" y="830.9082">new MessageEvent(evt)</text><polygon fill="#0A9EFD" points="49,873.6118,39,877.6118,49,881.6118,45,877.6118" style="stroke:#0A9EFD;stroke-width:1.0;"/><line style="stroke:#0A9EFD;stroke-width:2.0;" x1="43" x2="249" y1="877.6118" y2="877.6118"/><text fill="#0A9EFD" font-family="Arial" font-size="13" lengthAdjust="spacing" textLength="153" x="67.5" y="872.8569">Display received message</text><path d="M10,899.6118 L88,899.6118 L88,906.5605 L78,916.5605 L10,916.5605 L10,899.6118 " fill="#EEEEEE" style="stroke:#0A9EFD;stroke-width:1.5;"/><rect fill="none" height="160.6924" style="stroke:#0A9EFD;stroke-width:2.0;" width="629" x="10" y="899.6118"/><text fill="#000000" font-family="Arial" font-size="13" lengthAdjust="spacing" textLength="33" x="25" y="912.8057">Close</text><polygon fill="#0A9EFD" points="238,933.5093,248,937.5093,238,941.5093,242,937.5093" style="stroke:#0A9EFD;stroke-width:1.0;"/><line style="stroke:#0A9EFD;stroke-width:2.0;" x1="38" x2="244" y1="937.5093" y2="937.5093"/><text fill="#0A9EFD" font-family="Arial" font-size="13" lengthAdjust="spacing" textLength="188" x="50" y="932.7544">Close app / component unmount</text><polygon fill="#0A9EFD" points="579,962.458,589,966.458,579,970.458,583,966.458" style="stroke:#0A9EFD;stroke-width:1.0;"/><line style="stroke:#0A9EFD;stroke-width:2.0;" x1="250" x2="585" y1="966.458" y2="966.458"/><text fill="#0A9EFD" font-family="Arial" font-size="13" lengthAdjust="spacing" textLength="201" x="320" y="961.7031">engine.unsubscribe(CHANNEL_ID)</text><polygon fill="#0A9EFD" points="579,991.4067,589,995.4067,579,999.4067,583,995.4067" style="stroke:#0A9EFD;stroke-width:1.0;"/><line style="stroke:#0A9EFD;stroke-width:2.0;" x1="250" x2="585" y1="995.4067" y2="995.4067"/><text fill="#0A9EFD" font-family="Arial" font-size="13" lengthAdjust="spacing" textLength="85" x="378" y="990.6519">engine.logout()</text><line style="stroke:#0A9EFD;stroke-width:2.0;" x1="250" x2="292" y1="1039.3042" y2="1039.3042"/><line style="stroke:#0A9EFD;stroke-width:2.0;" x1="292" x2="292" y1="1039.3042" y2="1052.3042"/><line style="stroke:#0A9EFD;stroke-width:2.0;" x1="251" x2="292" y1="1052.3042" y2="1052.3042"/><polygon fill="#0A9EFD" points="261,1048.3042,251,1052.3042,261,1056.3042,257,1052.3042" style="stroke:#0A9EFD;stroke-width:1.0;"/><text fill="#0A9EFD" font-family="Arial" font-size="13" lengthAdjust="spacing" textLength="55" x="275.5" y="1019.6006">Clean up:</text><text fill="#0A9EFD" font-family="Arial" font-size="13" lengthAdjust="spacing" textLength="92" x="261" y="1034.5493">engine.release()</text><!--SRC=[dLHDRzf04BtxLqmv590IqqDFLeI4JDIWGeg0gAfKALhiYLcnthNsWpI9yjypQniRjt3fpRlpzitRDs_zYSj4k1GX34S7dgAwDkb-n3AbsQFPSnbobuiWO8bL6deF1dKFc867zIe8jkeFz7uffu4LHIyecBOyuGMJ5detXhzYzFNB-EQpO2-epVYtX3NF91DSPh2UVYzv9ijbW385eghv9hxrPR94A9Tsk6gUMSkJQUKAc4bkEI5UCI2rS3tspIBuKQ3qUWDQDPknHcOHLfj5B3XIIowDPJB12AXLKbPBOIkRLuY1_rBoYMV33jDFpGfuvdRdoPPQUKzr1_4DBQ3CkCHk5sUGE0TTkacQ0Xwy8i6DHKb6de1lVMLGaLr1FqTZM8RzuKK4-RLVMxfCV-ZjEberLrHl-ywYMc0eV67m1bRjoRLthstMQ6l8AeMbBcevFsw7YP8I4qip-gzpc7QjS9R2wROcqNoBe6WkDR-I9KTJswXunwWaJiriBzNW1l7TvFx-Tluucrx1MpcrHMLX15Oxz1S-SQckcKwSDYy50gFa6H-_UWBdkXPkIoFSTNhMS6hkKrPfzeIHzoDkr-4HIB3wiu4jsdLehFQFw_tV31aVeVeeJHE4IfW0u-tkpEO8gJBtf5KEokvG-pXfqw6zeriBx9uevo3n-UXL7R-3RHIHTn5CkIdehm0Q4-G7R7qxSJiModHVRhdZdowCQFHveQJNw6IkdBJdB7VotAY75uAkdFthySK26JsaehnL3TH8cmO7LJ8-0000]--></g></svg>