<?xml version="1.0" encoding="UTF-8" standalone="no"?><svg xmlns="http://www.w3.org/2000/svg" xmlns:xlink="http://www.w3.org/1999/xlink" contentStyleType="text/css" height="731px" preserveAspectRatio="none" style="width:498px;height:731px;background:#FFFFFF;" version="1.1" viewBox="0 0 498 731" width="498px" zoomAndPan="magnify"><defs/><g><rect fill="none" height="729.3594" style="stroke:#0A9EFD;stroke-width:1.0;" width="496" x="0" y="0"/><rect fill="#F3F3F3" height="719.3594" style="stroke:#0A9EFD;stroke-width:0.5;" width="120" x="128.5" y="6"/><text fill="#000000" font-family="sans-serif" font-size="13" font-weight="bold" lengthAdjust="spacing" textLength="57" x="160" y="19.4951">Your app</text><rect fill="#F3F3F3" height="719.3594" style="stroke:#0A9EFD;stroke-width:0.5;" width="87" x="399" y="6"/><text fill="#000000" font-family="sans-serif" font-size="13" font-weight="bold" lengthAdjust="spacing" textLength="38" x="423.5" y="19.4951">Agora</text><rect fill="#FFFFFF" height="216.6563" style="stroke:#0A9EFD;stroke-width:2.0;" width="482" x="10" y="104.6094"/><rect fill="#FFFFFF" height="190.6563" style="stroke:#0A9EFD;stroke-width:2.0;" width="482" x="10" y="335.2656"/><rect fill="#FFFFFF" height="82.8281" style="stroke:#0A9EFD;stroke-width:2.0;" width="482" x="10" y="539.9219"/><line style="stroke:#0A9EFD;stroke-width:0.5;stroke-dasharray:5.0,5.0;" x1="39" x2="39" y1="87.6094" y2="639.75"/><line style="stroke:#0A9EFD;stroke-width:0.5;stroke-dasharray:5.0,5.0;" x1="188.5" x2="188.5" y1="87.6094" y2="639.75"/><line style="stroke:#0A9EFD;stroke-width:0.5;stroke-dasharray:5.0,5.0;" x1="442" x2="442" y1="87.6094" y2="639.75"/><text fill="#0A9EFD" font-family="Roboto" font-size="14" font-weight="bold" lengthAdjust="spacing" textLength="33" x="20" y="84.5332">User</text><ellipse cx="39.5" cy="16" fill="none" rx="8" ry="8" style="stroke:#0A9EFD;stroke-width:3.0;"/><path d="M39.5,24 L39.5,51 M26.5,32 L52.5,32 M39.5,51 L26.5,66 M39.5,51 L52.5,66 " fill="none" style="stroke:#0A9EFD;stroke-width:3.0;"/><text fill="#0A9EFD" font-family="Roboto" font-size="14" font-weight="bold" lengthAdjust="spacing" textLength="33" x="20" y="653.2832">User</text><ellipse cx="39.5" cy="667.3594" fill="none" rx="8" ry="8" style="stroke:#0A9EFD;stroke-width:3.0;"/><path d="M39.5,675.3594 L39.5,702.3594 M26.5,683.3594 L52.5,683.3594 M39.5,702.3594 L26.5,717.3594 M39.5,702.3594 L52.5,717.3594 " fill="none" style="stroke:#0A9EFD;stroke-width:3.0;"/><rect fill="#FFFFFF" height="31.6094" rx="2.5" ry="2.5" style="stroke:#0A9EFD;stroke-width:2.0;" width="112" x="132.5" y="55"/><text fill="#0A9EFD" font-family="Roboto" font-size="14" font-weight="bold" lengthAdjust="spacing" textLength="98" x="139.5" y="76.5332">Signaling SDK</text><rect fill="#FFFFFF" height="31.6094" rx="2.5" ry="2.5" style="stroke:#0A9EFD;stroke-width:2.0;" width="112" x="132.5" y="638.75"/><text fill="#0A9EFD" font-family="Roboto" font-size="14" font-weight="bold" lengthAdjust="spacing" textLength="98" x="139.5" y="660.2832">Signaling SDK</text><rect fill="#FFFFFF" height="31.6094" rx="2.5" ry="2.5" style="stroke:#0A9EFD;stroke-width:2.0;" width="79" x="403" y="55"/><text fill="#0A9EFD" font-family="Roboto" font-size="14" font-weight="bold" lengthAdjust="spacing" textLength="65" x="410" y="76.5332">Signaling</text><rect fill="#FFFFFF" height="31.6094" rx="2.5" ry="2.5" style="stroke:#0A9EFD;stroke-width:2.0;" width="79" x="403" y="638.75"/><text fill="#0A9EFD" font-family="Roboto" font-size="14" font-weight="bold" lengthAdjust="spacing" textLength="65" x="410" y="660.2832">Signaling</text><path d="M10,104.6094 L113,104.6094 L113,114.2188 L103,124.2188 L10,124.2188 L10,104.6094 " fill="#EEEEEE" style="stroke:#0A9EFD;stroke-width:1.5;"/><rect fill="none" height="216.6563" style="stroke:#0A9EFD;stroke-width:2.0;" width="482" x="10" y="104.6094"/><text fill="#0A9EFD" font-family="Roboto" font-size="14" font-weight="bold" lengthAdjust="spacing" textLength="58" x="25" y="120.1426">Initialize</text><polygon fill="#0A9EFD" points="176.5,143.8281,186.5,147.8281,176.5,151.8281,180.5,147.8281" style="stroke:#0A9EFD;stroke-width:1.0;"/><line style="stroke:#0A9EFD;stroke-width:2.0;" x1="39.5" x2="182.5" y1="147.8281" y2="147.8281"/><text fill="#0A9EFD" font-family="Roboto" font-size="14" font-weight="bold" lengthAdjust="spacing" textLength="68" x="80" y="142.752">Open app</text><line style="stroke:#0A9EFD;stroke-width:2.0;" x1="188.5" x2="230.5" y1="179.4375" y2="179.4375"/><line style="stroke:#0A9EFD;stroke-width:2.0;" x1="230.5" x2="230.5" y1="179.4375" y2="192.4375"/><line style="stroke:#0A9EFD;stroke-width:2.0;" x1="189.5" x2="230.5" y1="192.4375" y2="192.4375"/><polygon fill="#0A9EFD" points="199.5,188.4375,189.5,192.4375,199.5,196.4375,195.5,192.4375" style="stroke:#0A9EFD;stroke-width:1.0;"/><text fill="#0A9EFD" font-family="Roboto" font-size="14" font-weight="bold" lengthAdjust="spacing" textLength="240" x="195.5" y="174.3613">Create a signalingEngine instance</text><line style="stroke:#0A9EFD;stroke-width:2.0;" x1="188.5" x2="230.5" y1="224.0469" y2="224.0469"/><line style="stroke:#0A9EFD;stroke-width:2.0;" x1="230.5" x2="230.5" y1="224.0469" y2="237.0469"/><line style="stroke:#0A9EFD;stroke-width:2.0;" x1="189.5" x2="230.5" y1="237.0469" y2="237.0469"/><polygon fill="#0A9EFD" points="199.5,233.0469,189.5,237.0469,199.5,241.0469,195.5,237.0469" style="stroke:#0A9EFD;stroke-width:1.0;"/><text fill="#0A9EFD" font-family="Roboto" font-size="14" font-weight="bold" lengthAdjust="spacing" textLength="138" x="195.5" y="218.9707">Add event listeners</text><line style="stroke:#0A9EFD;stroke-width:2.0;" x1="188.5" x2="230.5" y1="268.6563" y2="268.6563"/><line style="stroke:#0A9EFD;stroke-width:2.0;" x1="230.5" x2="230.5" y1="268.6563" y2="281.6563"/><line style="stroke:#0A9EFD;stroke-width:2.0;" x1="189.5" x2="230.5" y1="281.6563" y2="281.6563"/><polygon fill="#0A9EFD" points="199.5,277.6563,189.5,281.6563,199.5,285.6563,195.5,281.6563" style="stroke:#0A9EFD;stroke-width:1.0;"/><text fill="#0A9EFD" font-family="Roboto" font-size="14" font-weight="bold" lengthAdjust="spacing" textLength="199" x="195.5" y="263.5801">Set the authentication token</text><polygon fill="#0A9EFD" points="430.5,309.2656,440.5,313.2656,430.5,317.2656,434.5,313.2656" style="stroke:#0A9EFD;stroke-width:1.0;"/><line style="stroke:#0A9EFD;stroke-width:2.0;" x1="188.5" x2="436.5" y1="313.2656" y2="313.2656"/><text fill="#0A9EFD" font-family="Roboto" font-size="14" font-weight="bold" lengthAdjust="spacing" textLength="130" x="250.5" y="308.1895">Log in to Signaling</text><path d="M10,335.2656 L127,335.2656 L127,344.875 L117,354.875 L10,354.875 L10,335.2656 " fill="#EEEEEE" style="stroke:#0A9EFD;stroke-width:1.5;"/><rect fill="none" height="190.6563" style="stroke:#0A9EFD;stroke-width:2.0;" width="482" x="10" y="335.2656"/><text fill="#0A9EFD" font-family="Roboto" font-size="14" font-weight="bold" lengthAdjust="spacing" textLength="72" x="25" y="350.7988">Messages</text><polygon fill="#0A9EFD" points="176.5,374.4844,186.5,378.4844,176.5,382.4844,180.5,378.4844" style="stroke:#0A9EFD;stroke-width:1.0;"/><line style="stroke:#0A9EFD;stroke-width:2.0;" x1="39.5" x2="182.5" y1="378.4844" y2="378.4844"/><text fill="#0A9EFD" font-family="Roboto" font-size="14" font-weight="bold" lengthAdjust="spacing" textLength="119" x="54.5" y="373.4082">Publish message</text><polygon fill="#0A9EFD" points="430.5,406.0938,440.5,410.0938,430.5,414.0938,434.5,410.0938" style="stroke:#0A9EFD;stroke-width:1.0;"/><line style="stroke:#0A9EFD;stroke-width:2.0;" x1="188.5" x2="436.5" y1="410.0938" y2="410.0938"/><text fill="#0A9EFD" font-family="Roboto" font-size="14" font-weight="bold" lengthAdjust="spacing" textLength="169" x="231" y="405.0176">signalingEngine.publish</text><line style="stroke:#0A9EFD;stroke-width:2.0;" x1="188.5" x2="230.5" y1="441.7031" y2="441.7031"/><line style="stroke:#0A9EFD;stroke-width:2.0;" x1="230.5" x2="230.5" y1="441.7031" y2="454.7031"/><line style="stroke:#0A9EFD;stroke-width:2.0;" x1="189.5" x2="230.5" y1="454.7031" y2="454.7031"/><polygon fill="#0A9EFD" points="199.5,450.7031,189.5,454.7031,199.5,458.7031,195.5,454.7031" style="stroke:#0A9EFD;stroke-width:1.0;"/><text fill="#0A9EFD" font-family="Roboto" font-size="14" font-weight="bold" lengthAdjust="spacing" textLength="187" x="195.5" y="436.627">Listen for message events</text><polygon fill="#0A9EFD" points="199.5,482.3125,189.5,486.3125,199.5,490.3125,195.5,486.3125" style="stroke:#0A9EFD;stroke-width:1.0;"/><line style="stroke:#0A9EFD;stroke-width:2.0;" x1="193.5" x2="441.5" y1="486.3125" y2="486.3125"/><text fill="#0A9EFD" font-family="Roboto" font-size="14" font-weight="bold" lengthAdjust="spacing" textLength="63" x="284" y="481.2363">message</text><polygon fill="#0A9EFD" points="50.5,513.9219,40.5,517.9219,50.5,521.9219,46.5,517.9219" style="stroke:#0A9EFD;stroke-width:1.0;"/><line style="stroke:#0A9EFD;stroke-width:2.0;" x1="44.5" x2="187.5" y1="517.9219" y2="517.9219"/><text fill="#0A9EFD" font-family="Roboto" font-size="14" font-weight="bold" lengthAdjust="spacing" textLength="125" x="51.5" y="512.8457">Receive message</text><path d="M10,539.9219 L95,539.9219 L95,549.5313 L85,559.5313 L10,559.5313 L10,539.9219 " fill="#EEEEEE" style="stroke:#0A9EFD;stroke-width:1.5;"/><rect fill="none" height="82.8281" style="stroke:#0A9EFD;stroke-width:2.0;" width="482" x="10" y="539.9219"/><text fill="#0A9EFD" font-family="Roboto" font-size="14" font-weight="bold" lengthAdjust="spacing" textLength="40" x="25" y="555.4551">Close</text><polygon fill="#0A9EFD" points="176.5,579.1406,186.5,583.1406,176.5,587.1406,180.5,583.1406" style="stroke:#0A9EFD;stroke-width:1.0;"/><line style="stroke:#0A9EFD;stroke-width:2.0;" x1="39.5" x2="182.5" y1="583.1406" y2="583.1406"/><text fill="#0A9EFD" font-family="Roboto" font-size="14" font-weight="bold" lengthAdjust="spacing" textLength="53" x="87.5" y="578.0645">Log out</text><polygon fill="#0A9EFD" points="430.5,610.75,440.5,614.75,430.5,618.75,434.5,614.75" style="stroke:#0A9EFD;stroke-width:1.0;"/><line style="stroke:#0A9EFD;stroke-width:2.0;" x1="188.5" x2="436.5" y1="614.75" y2="614.75"/><text fill="#0A9EFD" font-family="Roboto" font-size="14" font-weight="bold" lengthAdjust="spacing" textLength="140" x="245.5" y="609.6738">Log out of Signaling</text><!--SRC=[TP5BRy9038Jl-olSt4dl72eXsaDKgY8Y3ZrL9Z6BHV2kze6g_lewF493rSjAMS-Cvyi-i3HTRWdAyl78BRb9RFUFQ5t0pxXdAJaVEcEmIIv0iOuK2i08wtfbpCPzGV7XSW3qlZ0UG-A6FKg2ecOhsB5Og9zVJvRPScb8Mb3NnJhhj_pdktYgcyS6bprKmebLyKr6Iy3agG-UmhidwMiO_Hekvu4m4I34Q-gBM1O2bfXG6XgfPsqBT2HjqN5C91JYQ5vJWhJJkAodQ6LCx0IIsvFSXDKK5ixg1Xt0GDDJN0dUA4Qq5Cq8O9atkdO7X_Dq57XNl_HdxQZTujGPjlfCbuWpJCzG3QgxT2qmXHKrn4SQPh-gpZiNn_-vPtCv_U7LEt3RE-0V]--></g></svg>