<?xml version="1.0" encoding="UTF-8" standalone="no"?><svg xmlns="http://www.w3.org/2000/svg" xmlns:xlink="http://www.w3.org/1999/xlink" contentStyleType="text/css" height="794px" preserveAspectRatio="none" style="width:534px;height:794px;background:#FFFFFF;" version="1.1" viewBox="0 0 534 794" width="534px" zoomAndPan="magnify"><defs/><g><rect fill="none" height="792.5781" style="stroke:#0A9EFD;stroke-width:1.0;" width="532" x="0" y="0"/><rect fill="#F3F3F3" height="782.5781" style="stroke:#0A9EFD;stroke-width:0.5;" width="120" x="164.5" y="6"/><text fill="#000000" font-family="sans-serif" font-size="13" font-weight="bold" lengthAdjust="spacing" textLength="57" x="196" y="19.4951">Your app</text><rect fill="#F3F3F3" height="782.5781" style="stroke:#0A9EFD;stroke-width:0.5;" width="87" x="435" y="6"/><text fill="#000000" font-family="sans-serif" font-size="13" font-weight="bold" lengthAdjust="spacing" textLength="38" x="459.5" y="19.4951">Agora</text><rect fill="#FFFFFF" height="216.6563" style="stroke:#0A9EFD;stroke-width:2.0;" width="518" x="10" y="104.6094"/><rect fill="#FFFFFF" height="253.875" style="stroke:#0A9EFD;stroke-width:2.0;" width="518" x="10" y="335.2656"/><rect fill="#FFFFFF" height="82.8281" style="stroke:#0A9EFD;stroke-width:2.0;" width="518" x="10" y="603.1406"/><line style="stroke:#0A9EFD;stroke-width:0.5;stroke-dasharray:5.0,5.0;" x1="39" x2="39" y1="87.6094" y2="702.9688"/><line style="stroke:#0A9EFD;stroke-width:0.5;stroke-dasharray:5.0,5.0;" x1="224.5" x2="224.5" y1="87.6094" y2="702.9688"/><line style="stroke:#0A9EFD;stroke-width:0.5;stroke-dasharray:5.0,5.0;" x1="478" x2="478" y1="87.6094" y2="702.9688"/><text fill="#0A9EFD" font-family="Roboto" font-size="14" font-weight="bold" lengthAdjust="spacing" textLength="33" x="20" y="84.5332">User</text><ellipse cx="39.5" cy="16" fill="none" rx="8" ry="8" style="stroke:#0A9EFD;stroke-width:3.0;"/><path d="M39.5,24 L39.5,51 M26.5,32 L52.5,32 M39.5,51 L26.5,66 M39.5,51 L52.5,66 " fill="none" style="stroke:#0A9EFD;stroke-width:3.0;"/><text fill="#0A9EFD" font-family="Roboto" font-size="14" font-weight="bold" lengthAdjust="spacing" textLength="33" x="20" y="716.502">User</text><ellipse cx="39.5" cy="730.5781" fill="none" rx="8" ry="8" style="stroke:#0A9EFD;stroke-width:3.0;"/><path d="M39.5,738.5781 L39.5,765.5781 M26.5,746.5781 L52.5,746.5781 M39.5,765.5781 L26.5,780.5781 M39.5,765.5781 L52.5,780.5781 " fill="none" style="stroke:#0A9EFD;stroke-width:3.0;"/><rect fill="#FFFFFF" height="31.6094" rx="2.5" ry="2.5" style="stroke:#0A9EFD;stroke-width:2.0;" width="112" x="168.5" y="55"/><text fill="#0A9EFD" font-family="Roboto" font-size="14" font-weight="bold" lengthAdjust="spacing" textLength="98" x="175.5" y="76.5332">Signaling SDK</text><rect fill="#FFFFFF" height="31.6094" rx="2.5" ry="2.5" style="stroke:#0A9EFD;stroke-width:2.0;" width="112" x="168.5" y="701.9688"/><text fill="#0A9EFD" font-family="Roboto" font-size="14" font-weight="bold" lengthAdjust="spacing" textLength="98" x="175.5" y="723.502">Signaling SDK</text><rect fill="#FFFFFF" height="31.6094" rx="2.5" ry="2.5" style="stroke:#0A9EFD;stroke-width:2.0;" width="79" x="439" y="55"/><text fill="#0A9EFD" font-family="Roboto" font-size="14" font-weight="bold" lengthAdjust="spacing" textLength="65" x="446" y="76.5332">Signaling</text><rect fill="#FFFFFF" height="31.6094" rx="2.5" ry="2.5" style="stroke:#0A9EFD;stroke-width:2.0;" width="79" x="439" y="701.9688"/><text fill="#0A9EFD" font-family="Roboto" font-size="14" font-weight="bold" lengthAdjust="spacing" textLength="65" x="446" y="723.502">Signaling</text><path d="M10,104.6094 L113,104.6094 L113,114.2188 L103,124.2188 L10,124.2188 L10,104.6094 " fill="#EEEEEE" style="stroke:#0A9EFD;stroke-width:1.5;"/><rect fill="none" height="216.6563" style="stroke:#0A9EFD;stroke-width:2.0;" width="518" x="10" y="104.6094"/><text fill="#0A9EFD" font-family="Roboto" font-size="14" font-weight="bold" lengthAdjust="spacing" textLength="58" x="25" y="120.1426">Initialize</text><polygon fill="#0A9EFD" points="212.5,143.8281,222.5,147.8281,212.5,151.8281,216.5,147.8281" style="stroke:#0A9EFD;stroke-width:1.0;"/><line style="stroke:#0A9EFD;stroke-width:2.0;" x1="39.5" x2="218.5" y1="147.8281" y2="147.8281"/><text fill="#0A9EFD" font-family="Roboto" font-size="14" font-weight="bold" lengthAdjust="spacing" textLength="68" x="98" y="142.752">Open app</text><line style="stroke:#0A9EFD;stroke-width:2.0;" x1="224.5" x2="266.5" y1="179.4375" y2="179.4375"/><line style="stroke:#0A9EFD;stroke-width:2.0;" x1="266.5" x2="266.5" y1="179.4375" y2="192.4375"/><line style="stroke:#0A9EFD;stroke-width:2.0;" x1="225.5" x2="266.5" y1="192.4375" y2="192.4375"/><polygon fill="#0A9EFD" points="235.5,188.4375,225.5,192.4375,235.5,196.4375,231.5,192.4375" style="stroke:#0A9EFD;stroke-width:1.0;"/><text fill="#0A9EFD" font-family="Roboto" font-size="14" font-weight="bold" lengthAdjust="spacing" textLength="240" x="231.5" y="174.3613">Create a signalingEngine instance</text><line style="stroke:#0A9EFD;stroke-width:2.0;" x1="224.5" x2="266.5" y1="224.0469" y2="224.0469"/><line style="stroke:#0A9EFD;stroke-width:2.0;" x1="266.5" x2="266.5" y1="224.0469" y2="237.0469"/><line style="stroke:#0A9EFD;stroke-width:2.0;" x1="225.5" x2="266.5" y1="237.0469" y2="237.0469"/><polygon fill="#0A9EFD" points="235.5,233.0469,225.5,237.0469,235.5,241.0469,231.5,237.0469" style="stroke:#0A9EFD;stroke-width:1.0;"/><text fill="#0A9EFD" font-family="Roboto" font-size="14" font-weight="bold" lengthAdjust="spacing" textLength="138" x="231.5" y="218.9707">Add event listeners</text><line style="stroke:#0A9EFD;stroke-width:2.0;" x1="224.5" x2="266.5" y1="268.6563" y2="268.6563"/><line style="stroke:#0A9EFD;stroke-width:2.0;" x1="266.5" x2="266.5" y1="268.6563" y2="281.6563"/><line style="stroke:#0A9EFD;stroke-width:2.0;" x1="225.5" x2="266.5" y1="281.6563" y2="281.6563"/><polygon fill="#0A9EFD" points="235.5,277.6563,225.5,281.6563,235.5,285.6563,231.5,281.6563" style="stroke:#0A9EFD;stroke-width:1.0;"/><text fill="#0A9EFD" font-family="Roboto" font-size="14" font-weight="bold" lengthAdjust="spacing" textLength="199" x="231.5" y="263.5801">Set the authentication token</text><polygon fill="#0A9EFD" points="466.5,309.2656,476.5,313.2656,466.5,317.2656,470.5,313.2656" style="stroke:#0A9EFD;stroke-width:1.0;"/><line style="stroke:#0A9EFD;stroke-width:2.0;" x1="224.5" x2="472.5" y1="313.2656" y2="313.2656"/><text fill="#0A9EFD" font-family="Roboto" font-size="14" font-weight="bold" lengthAdjust="spacing" textLength="130" x="286.5" y="308.1895">Log in to Signaling</text><path d="M10,335.2656 L127,335.2656 L127,344.875 L117,354.875 L10,354.875 L10,335.2656 " fill="#EEEEEE" style="stroke:#0A9EFD;stroke-width:1.5;"/><rect fill="none" height="253.875" style="stroke:#0A9EFD;stroke-width:2.0;" width="518" x="10" y="335.2656"/><text fill="#0A9EFD" font-family="Roboto" font-size="14" font-weight="bold" lengthAdjust="spacing" textLength="72" x="25" y="350.7988">Messages</text><polygon fill="#0A9EFD" points="212.5,374.4844,222.5,378.4844,212.5,382.4844,216.5,378.4844" style="stroke:#0A9EFD;stroke-width:1.0;"/><line style="stroke:#0A9EFD;stroke-width:2.0;" x1="39.5" x2="218.5" y1="378.4844" y2="378.4844"/><text fill="#0A9EFD" font-family="Roboto" font-size="14" font-weight="bold" lengthAdjust="spacing" textLength="161" x="51.5" y="373.4082">Subscribe to a channel</text><polygon fill="#0A9EFD" points="466.5,406.0938,476.5,410.0938,466.5,414.0938,470.5,410.0938" style="stroke:#0A9EFD;stroke-width:1.0;"/><line style="stroke:#0A9EFD;stroke-width:2.0;" x1="224.5" x2="472.5" y1="410.0938" y2="410.0938"/><text fill="#0A9EFD" font-family="Roboto" font-size="14" font-weight="bold" lengthAdjust="spacing" textLength="187" x="258" y="405.0176">signalingEngine.subscribe</text><polygon fill="#0A9EFD" points="212.5,437.7031,222.5,441.7031,212.5,445.7031,216.5,441.7031" style="stroke:#0A9EFD;stroke-width:1.0;"/><line style="stroke:#0A9EFD;stroke-width:2.0;" x1="39.5" x2="218.5" y1="441.7031" y2="441.7031"/><text fill="#0A9EFD" font-family="Roboto" font-size="14" font-weight="bold" lengthAdjust="spacing" textLength="119" x="72.5" y="436.627">Publish message</text><polygon fill="#0A9EFD" points="466.5,469.3125,476.5,473.3125,466.5,477.3125,470.5,473.3125" style="stroke:#0A9EFD;stroke-width:1.0;"/><line style="stroke:#0A9EFD;stroke-width:2.0;" x1="224.5" x2="472.5" y1="473.3125" y2="473.3125"/><text fill="#0A9EFD" font-family="Roboto" font-size="14" font-weight="bold" lengthAdjust="spacing" textLength="169" x="267" y="468.2363">signalingEngine.publish</text><line style="stroke:#0A9EFD;stroke-width:2.0;" x1="224.5" x2="266.5" y1="504.9219" y2="504.9219"/><line style="stroke:#0A9EFD;stroke-width:2.0;" x1="266.5" x2="266.5" y1="504.9219" y2="517.9219"/><line style="stroke:#0A9EFD;stroke-width:2.0;" x1="225.5" x2="266.5" y1="517.9219" y2="517.9219"/><polygon fill="#0A9EFD" points="235.5,513.9219,225.5,517.9219,235.5,521.9219,231.5,517.9219" style="stroke:#0A9EFD;stroke-width:1.0;"/><text fill="#0A9EFD" font-family="Roboto" font-size="14" font-weight="bold" lengthAdjust="spacing" textLength="187" x="231.5" y="499.8457">Listen for message events</text><polygon fill="#0A9EFD" points="235.5,545.5313,225.5,549.5313,235.5,553.5313,231.5,549.5313" style="stroke:#0A9EFD;stroke-width:1.0;"/><line style="stroke:#0A9EFD;stroke-width:2.0;" x1="229.5" x2="477.5" y1="549.5313" y2="549.5313"/><text fill="#0A9EFD" font-family="Roboto" font-size="14" font-weight="bold" lengthAdjust="spacing" textLength="63" x="320" y="544.4551">message</text><polygon fill="#0A9EFD" points="50.5,577.1406,40.5,581.1406,50.5,585.1406,46.5,581.1406" style="stroke:#0A9EFD;stroke-width:1.0;"/><line style="stroke:#0A9EFD;stroke-width:2.0;" x1="44.5" x2="223.5" y1="581.1406" y2="581.1406"/><text fill="#0A9EFD" font-family="Roboto" font-size="14" font-weight="bold" lengthAdjust="spacing" textLength="125" x="69.5" y="576.0645">Receive message</text><path d="M10,603.1406 L95,603.1406 L95,612.75 L85,622.75 L10,622.75 L10,603.1406 " fill="#EEEEEE" style="stroke:#0A9EFD;stroke-width:1.5;"/><rect fill="none" height="82.8281" style="stroke:#0A9EFD;stroke-width:2.0;" width="518" x="10" y="603.1406"/><text fill="#0A9EFD" font-family="Roboto" font-size="14" font-weight="bold" lengthAdjust="spacing" textLength="40" x="25" y="618.6738">Close</text><polygon fill="#0A9EFD" points="212.5,642.3594,222.5,646.3594,212.5,650.3594,216.5,646.3594" style="stroke:#0A9EFD;stroke-width:1.0;"/><line style="stroke:#0A9EFD;stroke-width:2.0;" x1="39.5" x2="218.5" y1="646.3594" y2="646.3594"/><text fill="#0A9EFD" font-family="Roboto" font-size="14" font-weight="bold" lengthAdjust="spacing" textLength="53" x="105.5" y="641.2832">Log out</text><polygon fill="#0A9EFD" points="466.5,673.9688,476.5,677.9688,466.5,681.9688,470.5,677.9688" style="stroke:#0A9EFD;stroke-width:1.0;"/><line style="stroke:#0A9EFD;stroke-width:2.0;" x1="224.5" x2="472.5" y1="677.9688" y2="677.9688"/><text fill="#0A9EFD" font-family="Roboto" font-size="14" font-weight="bold" lengthAdjust="spacing" textLength="140" x="281.5" y="672.8926">Log out of Signaling</text><!--SRC=[VL7BRi8m4BpxAxQv4-uSAY7QGrIg8Y8EFLKRPp4hmZho0rNz-jeyGaFLNYpPEpCxCtvWqLri2SfoUkIMxCIt-oaQw_33xrbAZeTEATJ1EYWsdbm1w65JhvLgx2SKxpOwmBulL8ykiEOU9K1Hin7iM0pKJoydodorKYGj9DQ5EizR_k9TEDMDOvoDFLJ2WHFYYrGo0PF7B3o3jvuasr3fDZmk764WGF1NrMSnB0GiFg1e6g7dRGjqfEIYOnz8oFdHlAO0OPVaOZebMSR0LY3OFSaDMCrWQKtQa0OmfCafhWbUoNiqv4V-wzXuxRYXJ4FGEnIXRYHx5wBqLyf8Q1MRP7y7X_EMVnNwCtQKSddA3jlqtHU9SocvYsf0tQad0pDOaoO-qZ3x4NdHMJ-scJkoCVpgBRs1tTuLzmq0]--></g></svg>