<?xml version="1.0" encoding="UTF-8" standalone="no"?><svg xmlns="http://www.w3.org/2000/svg" xmlns:xlink="http://www.w3.org/1999/xlink" contentStyleType="text/css" height="738px" preserveAspectRatio="none" style="width:457px;height:738px;" version="1.1" viewBox="0 0 457 738" width="457px" zoomAndPan="magnify"><defs/><g><rect fill="none" height="736.1797" style="stroke:#0A9EFD;stroke-width:1.0;" width="455.5" x="0" y="0"/><rect fill="#999999" fill-opacity="0.33333" height="726.1797" style="stroke:#0A9EFD;stroke-width:0.5;" width="112" x="138.5" y="6"/><text fill="#0A9EFD" font-family="sans-serif" font-size="13" font-weight="bold" lengthAdjust="spacing" textLength="57" x="166" y="20.0283">Your app</text><rect fill="#999999" fill-opacity="0.33333" height="726.1797" style="stroke:#0A9EFD;stroke-width:0.5;" width="80" x="365.5" y="6"/><text fill="#0A9EFD" font-family="sans-serif" font-size="13" font-weight="bold" lengthAdjust="spacing" textLength="38" x="386.5" y="20.0283">Agora</text><rect fill="#0A9EFD" fill-opacity="0.06667" height="198.1406" style="stroke:#0A9EFD;stroke-width:2.0;" width="441.5" x="10" y="102.6406"/><rect fill="#0A9EFD" fill-opacity="0.06667" height="229.1875" style="stroke:#0A9EFD;stroke-width:2.0;" width="441.5" x="10" y="314.7813"/><rect fill="#0A9EFD" fill-opacity="0.06667" height="73.5703" style="stroke:#0A9EFD;stroke-width:2.0;" width="441.5" x="10" y="557.9688"/><line style="stroke:#0A9EFD;stroke-width:0.5;stroke-dasharray:5.0,5.0;" x1="37" x2="37" y1="85.6406" y2="648.5391"/><line style="stroke:#0A9EFD;stroke-width:0.5;stroke-dasharray:5.0,5.0;" x1="194.5" x2="194.5" y1="85.6406" y2="648.5391"/><line style="stroke:#0A9EFD;stroke-width:0.5;stroke-dasharray:5.0,5.0;" x1="405.5" x2="405.5" y1="85.6406" y2="648.5391"/><text fill="#0A9EFD" font-family="Arial" font-size="14" lengthAdjust="spacing" textLength="29" x="20" y="82.6738">User</text><ellipse cx="37.5" cy="16" fill="none" rx="8" ry="8" style="stroke:#0A9EFD;stroke-width:3.0;"/><path d="M37.5,24 L37.5,51 M24.5,32 L50.5,32 M37.5,51 L24.5,66 M37.5,51 L50.5,66 " fill="none" style="stroke:#0A9EFD;stroke-width:3.0;"/><text fill="#0A9EFD" font-family="Arial" font-size="14" lengthAdjust="spacing" textLength="29" x="20" y="660.2129">User</text><ellipse cx="37.5" cy="674.1797" fill="none" rx="8" ry="8" style="stroke:#0A9EFD;stroke-width:3.0;"/><path d="M37.5,682.1797 L37.5,709.1797 M24.5,690.1797 L50.5,690.1797 M37.5,709.1797 L24.5,724.1797 M37.5,709.1797 L50.5,724.1797 " fill="none" style="stroke:#0A9EFD;stroke-width:3.0;"/><rect fill="none" height="29.6406" rx="2.5" ry="2.5" style="stroke:#0A9EFD;stroke-width:2.0;" width="104" x="142.5" y="55"/><text fill="#0A9EFD" font-family="Arial" font-size="14" lengthAdjust="spacing" textLength="90" x="149.5" y="74.6738">Signaling SDK</text><rect fill="none" height="29.6406" rx="2.5" ry="2.5" style="stroke:#0A9EFD;stroke-width:2.0;" width="104" x="142.5" y="647.5391"/><text fill="#0A9EFD" font-family="Arial" font-size="14" lengthAdjust="spacing" textLength="90" x="149.5" y="667.2129">Signaling SDK</text><rect fill="none" height="29.6406" rx="2.5" ry="2.5" style="stroke:#0A9EFD;stroke-width:2.0;" width="72" x="369.5" y="55"/><text fill="#0A9EFD" font-family="Arial" font-size="14" lengthAdjust="spacing" textLength="58" x="376.5" y="74.6738">Signaling</text><rect fill="none" height="29.6406" rx="2.5" ry="2.5" style="stroke:#0A9EFD;stroke-width:2.0;" width="72" x="369.5" y="647.5391"/><text fill="#0A9EFD" font-family="Arial" font-size="14" lengthAdjust="spacing" textLength="58" x="376.5" y="667.2129">Signaling</text><path d="M10,102.6406 L102,102.6406 L102,109.1641 L92,119.1641 L10,119.1641 L10,102.6406 " fill="#EEEEEE" style="stroke:#0A9EFD;stroke-width:1.5;"/><rect fill="none" height="198.1406" style="stroke:#0A9EFD;stroke-width:2.0;" width="441.5" x="10" y="102.6406"/><text fill="#000000" font-family="Arial" font-size="13" lengthAdjust="spacing" textLength="47" x="25" y="115.4092">Initialize</text><polygon fill="#0A9EFD" points="182.5,135.6875,192.5,139.6875,182.5,143.6875,186.5,139.6875" style="stroke:#0A9EFD;stroke-width:1.0;"/><line style="stroke:#0A9EFD;stroke-width:2.0;" x1="37.5" x2="188.5" y1="139.6875" y2="139.6875"/><text fill="#0A9EFD" font-family="Arial" font-size="13" lengthAdjust="spacing" textLength="56" x="88" y="134.9326">Open app</text><line style="stroke:#0A9EFD;stroke-width:2.0;" x1="194.5" x2="236.5" y1="168.2109" y2="168.2109"/><line style="stroke:#0A9EFD;stroke-width:2.0;" x1="236.5" x2="236.5" y1="168.2109" y2="181.2109"/><line style="stroke:#0A9EFD;stroke-width:2.0;" x1="195.5" x2="236.5" y1="181.2109" y2="181.2109"/><polygon fill="#0A9EFD" points="205.5,177.2109,195.5,181.2109,205.5,185.2109,201.5,181.2109" style="stroke:#0A9EFD;stroke-width:1.0;"/><text fill="#0A9EFD" font-family="Arial" font-size="13" lengthAdjust="spacing" textLength="197" x="201.5" y="163.4561">Create a signalingEngine instance</text><line style="stroke:#0A9EFD;stroke-width:2.0;" x1="194.5" x2="236.5" y1="209.7344" y2="209.7344"/><line style="stroke:#0A9EFD;stroke-width:2.0;" x1="236.5" x2="236.5" y1="209.7344" y2="222.7344"/><line style="stroke:#0A9EFD;stroke-width:2.0;" x1="195.5" x2="236.5" y1="222.7344" y2="222.7344"/><polygon fill="#0A9EFD" points="205.5,218.7344,195.5,222.7344,205.5,226.7344,201.5,222.7344" style="stroke:#0A9EFD;stroke-width:1.0;"/><text fill="#0A9EFD" font-family="Arial" font-size="13" lengthAdjust="spacing" textLength="110" x="201.5" y="204.9795">Add event listeners</text><line style="stroke:#0A9EFD;stroke-width:2.0;" x1="194.5" x2="236.5" y1="251.2578" y2="251.2578"/><line style="stroke:#0A9EFD;stroke-width:2.0;" x1="236.5" x2="236.5" y1="251.2578" y2="264.2578"/><line style="stroke:#0A9EFD;stroke-width:2.0;" x1="195.5" x2="236.5" y1="264.2578" y2="264.2578"/><polygon fill="#0A9EFD" points="205.5,260.2578,195.5,264.2578,205.5,268.2578,201.5,264.2578" style="stroke:#0A9EFD;stroke-width:1.0;"/><text fill="#0A9EFD" font-family="Arial" font-size="13" lengthAdjust="spacing" textLength="163" x="201.5" y="246.5029">Set the authentication token</text><polygon fill="#0A9EFD" points="393.5,288.7813,403.5,292.7813,393.5,296.7813,397.5,292.7813" style="stroke:#0A9EFD;stroke-width:1.0;"/><line style="stroke:#0A9EFD;stroke-width:2.0;" x1="194.5" x2="399.5" y1="292.7813" y2="292.7813"/><text fill="#0A9EFD" font-family="Arial" font-size="13" lengthAdjust="spacing" textLength="107" x="246.5" y="288.0264">Log in to Signaling</text><path d="M10,314.7813 L115,314.7813 L115,321.3047 L105,331.3047 L10,331.3047 L10,314.7813 " fill="#EEEEEE" style="stroke:#0A9EFD;stroke-width:1.5;"/><rect fill="none" height="229.1875" style="stroke:#0A9EFD;stroke-width:2.0;" width="441.5" x="10" y="314.7813"/><text fill="#000000" font-family="Arial" font-size="13" lengthAdjust="spacing" textLength="60" x="25" y="327.5498">Messages</text><polygon fill="#0A9EFD" points="182.5,347.8281,192.5,351.8281,182.5,355.8281,186.5,351.8281" style="stroke:#0A9EFD;stroke-width:1.0;"/><line style="stroke:#0A9EFD;stroke-width:2.0;" x1="37.5" x2="188.5" y1="351.8281" y2="351.8281"/><text fill="#0A9EFD" font-family="Arial" font-size="13" lengthAdjust="spacing" textLength="133" x="49.5" y="347.0732">Subscribe to a channel</text><polygon fill="#0A9EFD" points="393.5,376.3516,403.5,380.3516,393.5,384.3516,397.5,380.3516" style="stroke:#0A9EFD;stroke-width:1.0;"/><line style="stroke:#0A9EFD;stroke-width:2.0;" x1="194.5" x2="399.5" y1="380.3516" y2="380.3516"/><text fill="#0A9EFD" font-family="Arial" font-size="13" lengthAdjust="spacing" textLength="151" x="224.5" y="375.5967">signalingEngine.subscribe</text><polygon fill="#0A9EFD" points="182.5,404.875,192.5,408.875,182.5,412.875,186.5,408.875" style="stroke:#0A9EFD;stroke-width:1.0;"/><line style="stroke:#0A9EFD;stroke-width:2.0;" x1="37.5" x2="188.5" y1="408.875" y2="408.875"/><text fill="#0A9EFD" font-family="Arial" font-size="13" lengthAdjust="spacing" textLength="100" x="66" y="404.1201">Publish message</text><polygon fill="#0A9EFD" points="393.5,433.3984,403.5,437.3984,393.5,441.3984,397.5,437.3984" style="stroke:#0A9EFD;stroke-width:1.0;"/><line style="stroke:#0A9EFD;stroke-width:2.0;" x1="194.5" x2="399.5" y1="437.3984" y2="437.3984"/><text fill="#0A9EFD" font-family="Arial" font-size="13" lengthAdjust="spacing" textLength="136" x="232" y="432.6436">signalingEngine.publish</text><line style="stroke:#0A9EFD;stroke-width:2.0;" x1="194.5" x2="236.5" y1="465.9219" y2="465.9219"/><line style="stroke:#0A9EFD;stroke-width:2.0;" x1="236.5" x2="236.5" y1="465.9219" y2="478.9219"/><line style="stroke:#0A9EFD;stroke-width:2.0;" x1="195.5" x2="236.5" y1="478.9219" y2="478.9219"/><polygon fill="#0A9EFD" points="205.5,474.9219,195.5,478.9219,205.5,482.9219,201.5,478.9219" style="stroke:#0A9EFD;stroke-width:1.0;"/><text fill="#0A9EFD" font-family="Arial" font-size="13" lengthAdjust="spacing" textLength="151" x="201.5" y="461.167">Listen for message events</text><polygon fill="#0A9EFD" points="205.5,503.4453,195.5,507.4453,205.5,511.4453,201.5,507.4453" style="stroke:#0A9EFD;stroke-width:1.0;"/><line style="stroke:#0A9EFD;stroke-width:2.0;" x1="199.5" x2="404.5" y1="507.4453" y2="507.4453"/><text fill="#0A9EFD" font-family="Arial" font-size="13" lengthAdjust="spacing" textLength="53" x="273.5" y="502.6904">message</text><polygon fill="#0A9EFD" points="48.5,531.9688,38.5,535.9688,48.5,539.9688,44.5,535.9688" style="stroke:#0A9EFD;stroke-width:1.0;"/><line style="stroke:#0A9EFD;stroke-width:2.0;" x1="42.5" x2="193.5" y1="535.9688" y2="535.9688"/><text fill="#0A9EFD" font-family="Arial" font-size="13" lengthAdjust="spacing" textLength="102" x="65" y="531.2139">Receive message</text><path d="M10,557.9688 L88,557.9688 L88,564.4922 L78,574.4922 L10,574.4922 L10,557.9688 " fill="#EEEEEE" style="stroke:#0A9EFD;stroke-width:1.5;"/><rect fill="none" height="73.5703" style="stroke:#0A9EFD;stroke-width:2.0;" width="441.5" x="10" y="557.9688"/><text fill="#000000" font-family="Arial" font-size="13" lengthAdjust="spacing" textLength="33" x="25" y="570.7373">Close</text><polygon fill="#0A9EFD" points="182.5,591.0156,192.5,595.0156,182.5,599.0156,186.5,595.0156" style="stroke:#0A9EFD;stroke-width:1.0;"/><line style="stroke:#0A9EFD;stroke-width:2.0;" x1="37.5" x2="188.5" y1="595.0156" y2="595.0156"/><text fill="#0A9EFD" font-family="Arial" font-size="13" lengthAdjust="spacing" textLength="43" x="94.5" y="590.2607">Log out</text><polygon fill="#0A9EFD" points="393.5,619.5391,403.5,623.5391,393.5,627.5391,397.5,623.5391" style="stroke:#0A9EFD;stroke-width:1.0;"/><line style="stroke:#0A9EFD;stroke-width:2.0;" x1="194.5" x2="399.5" y1="623.5391" y2="623.5391"/><text fill="#0A9EFD" font-family="Arial" font-size="13" lengthAdjust="spacing" textLength="114" x="243" y="618.7842">Log out of Signaling</text><!--SRC=[VL7BRi8m4BpxAxQv4-uSAY7QGrIg8Y8EFLKRPp4hmZho0rNz-jeyGaFLNYpPEpCxCtvWqLri2SfoUkIMxCIt-oaQw_33xrbAZeTEATJ1EYWsdbm1w65JhvLgx2SKxpOwmBulL8ykiEOU9K1Hin7iM0pKJoydodorKYGj9DQ5EizR_k9TEDMDOvoDFLJ2WHFYYrGo0PF7B3o3jvuasr3fDZmk764WGF1NrMSnB0GiFg1e6g7dRGjqfEIYOnz8oFdHlAO0OPVaOZebMSR0LY3OFSaDMCrWQKtQa0OmfCafhWbUoNiqv4V-wzXuxRYXJ4FGEnIXRYHx5wBqLyf8Q1MRP7y7X_EMVnNwCtQKSddA3jlqtHU9SocvYsf0tQad0pDOaoO-qZ3x4NdHMJ-scJkoCVpgBRs1tTuLzmq0]--></g></svg>