<?xml version="1.0" encoding="us-ascii" standalone="no"?><svg xmlns="http://www.w3.org/2000/svg" xmlns:xlink="http://www.w3.org/1999/xlink" contentStyleType="text/css" height="1002px" preserveAspectRatio="none" style="width:576px;height:1002px;" version="1.1" viewBox="0 0 576 1002" width="576px" zoomAndPan="magnify"><defs/><g><rect fill="none" height="1000.6079" style="stroke:#0A9EFD;stroke-width:1.0;" width="574.5" x="0" y="0"/><rect fill="#0A9EFD" fill-opacity="0.06667" height="74.8462" style="stroke:#0A9EFD;stroke-width:2.0;" width="246" x="10" y="53.0986"/><rect fill="#0A9EFD" fill-opacity="0.06667" height="103.7949" style="stroke:#0A9EFD;stroke-width:2.0;" width="467" x="56" y="141.9448"/><rect fill="#0A9EFD" fill-opacity="0.06667" height="161.6924" style="stroke:#0A9EFD;stroke-width:2.0;" width="481" x="56" y="259.7397"/><rect fill="#0A9EFD" fill-opacity="0.06667" height="161.6924" style="stroke:#0A9EFD;stroke-width:2.0;" width="497.5" x="10" y="435.4321"/><rect fill="#0A9EFD" fill-opacity="0.06667" height="132.7437" style="stroke:#0A9EFD;stroke-width:2.0;" width="451.5" x="56" y="611.1245"/><rect fill="#0A9EFD" fill-opacity="0.06667" height="132.7437" style="stroke:#0A9EFD;stroke-width:2.0;" width="560.5" x="10" y="757.8682"/><rect fill="#0A9EFD" fill-opacity="0.06667" height="45.8975" style="stroke:#0A9EFD;stroke-width:2.0;" width="252" x="10" y="904.6118"/><line style="stroke:#0A9EFD;stroke-width:0.5;stroke-dasharray:5.0,5.0;" x1="38" x2="38" y1="36.0986" y2="967.5093"/><line style="stroke:#0A9EFD;stroke-width:0.5;stroke-dasharray:5.0,5.0;" x1="109" x2="109" y1="36.0986" y2="967.5093"/><line style="stroke:#0A9EFD;stroke-width:0.5;stroke-dasharray:5.0,5.0;" x1="203" x2="203" y1="36.0986" y2="967.5093"/><line style="stroke:#0A9EFD;stroke-width:0.5;stroke-dasharray:5.0,5.0;" x1="342.5" x2="342.5" y1="36.0986" y2="967.5093"/><line style="stroke:#0A9EFD;stroke-width:0.5;stroke-dasharray:5.0,5.0;" x1="454.5" x2="454.5" y1="36.0986" y2="967.5093"/><line style="stroke:#0A9EFD;stroke-width:0.5;stroke-dasharray:5.0,5.0;" x1="533.5" x2="533.5" y1="36.0986" y2="967.5093"/><rect fill="none" height="30.0986" rx="2.5" ry="2.5" style="stroke:#0A9EFD;stroke-width:2.0;" width="36" x="20" y="5"/><text fill="#0A9EFD" font-family="Arial" font-size="14" lengthAdjust="spacing" textLength="22" x="27" y="25.1318">Idle</text><rect fill="none" height="30.0986" rx="2.5" ry="2.5" style="stroke:#0A9EFD;stroke-width:2.0;" width="36" x="20" y="966.5093"/><text fill="#0A9EFD" font-family="Arial" font-size="14" lengthAdjust="spacing" textLength="22" x="27" y="986.6411">Idle</text><rect fill="none" height="30.0986" rx="2.5" ry="2.5" style="stroke:#0A9EFD;stroke-width:2.0;" width="86" x="66" y="5"/><text fill="#0A9EFD" font-family="Arial" font-size="14" lengthAdjust="spacing" textLength="72" x="73" y="25.1318">Connecting</text><rect fill="none" height="30.0986" rx="2.5" ry="2.5" style="stroke:#0A9EFD;stroke-width:2.0;" width="86" x="66" y="966.5093"/><text fill="#0A9EFD" font-family="Arial" font-size="14" lengthAdjust="spacing" textLength="72" x="73" y="986.6411">Connecting</text><rect fill="none" height="30.0986" rx="2.5" ry="2.5" style="stroke:#0A9EFD;stroke-width:2.0;" width="83" x="162" y="5"/><text fill="#0A9EFD" font-family="Arial" font-size="14" lengthAdjust="spacing" textLength="69" x="169" y="25.1318">Connected</text><rect fill="none" height="30.0986" rx="2.5" ry="2.5" style="stroke:#0A9EFD;stroke-width:2.0;" width="83" x="162" y="966.5093"/><text fill="#0A9EFD" font-family="Arial" font-size="14" lengthAdjust="spacing" textLength="69" x="169" y="986.6411">Connected</text><rect fill="none" height="30.0986" rx="2.5" ry="2.5" style="stroke:#0A9EFD;stroke-width:2.0;" width="100" x="292.5" y="5"/><text fill="#0A9EFD" font-family="Arial" font-size="14" lengthAdjust="spacing" textLength="86" x="299.5" y="25.1318">Disconnected</text><rect fill="none" height="30.0986" rx="2.5" ry="2.5" style="stroke:#0A9EFD;stroke-width:2.0;" width="100" x="292.5" y="966.5093"/><text fill="#0A9EFD" font-family="Arial" font-size="14" lengthAdjust="spacing" textLength="86" x="299.5" y="986.6411">Disconnected</text><rect fill="none" height="30.0986" rx="2.5" ry="2.5" style="stroke:#0A9EFD;stroke-width:2.0;" width="86" x="411.5" y="5"/><text fill="#0A9EFD" font-family="Arial" font-size="14" lengthAdjust="spacing" textLength="72" x="418.5" y="25.1318">Suspended</text><rect fill="none" height="30.0986" rx="2.5" ry="2.5" style="stroke:#0A9EFD;stroke-width:2.0;" width="86" x="411.5" y="966.5093"/><text fill="#0A9EFD" font-family="Arial" font-size="14" lengthAdjust="spacing" textLength="72" x="418.5" y="986.6411">Suspended</text><rect fill="none" height="30.0986" rx="2.5" ry="2.5" style="stroke:#0A9EFD;stroke-width:2.0;" width="53" x="507.5" y="5"/><text fill="#0A9EFD" font-family="Arial" font-size="14" lengthAdjust="spacing" textLength="39" x="514.5" y="25.1318">Failed</text><rect fill="none" height="30.0986" rx="2.5" ry="2.5" style="stroke:#0A9EFD;stroke-width:2.0;" width="53" x="507.5" y="966.5093"/><text fill="#0A9EFD" font-family="Arial" font-size="14" lengthAdjust="spacing" textLength="39" x="514.5" y="986.6411">Failed</text><path d="M10,53.0986 L251,53.0986 L251,60.0474 L241,70.0474 L10,70.0474 L10,53.0986 " fill="#EEEEEE" style="stroke:#0A9EFD;stroke-width:1.5;"/><rect fill="none" height="74.8462" style="stroke:#0A9EFD;stroke-width:2.0;" width="246" x="10" y="53.0986"/><text fill="#000000" font-family="Arial" font-size="13" lengthAdjust="spacing" textLength="196" x="25" y="66.2925">Successful login after initialization</text><polygon fill="#0A9EFD" points="97,86.9961,107,90.9961,97,94.9961,101,90.9961" style="stroke:#0A9EFD;stroke-width:1.0;"/><line style="stroke:#0A9EFD;stroke-width:2.0;" x1="38" x2="103" y1="90.9961" y2="90.9961"/><text fill="#0A9EFD" font-family="Arial" font-size="13" lengthAdjust="spacing" textLength="27" x="60" y="86.2412">login</text><polygon fill="#0A9EFD" points="191.5,115.9448,201.5,119.9448,191.5,123.9448,195.5,119.9448" style="stroke:#0A9EFD;stroke-width:1.0;"/><line style="stroke:#0A9EFD;stroke-width:2.0;" x1="109" x2="197.5" y1="119.9448" y2="119.9448"/><text fill="#0A9EFD" font-family="Arial" font-size="13" lengthAdjust="spacing" textLength="51" x="130.75" y="115.1899">Success</text><path d="M56,141.9448 L518,141.9448 L518,148.8936 L508,158.8936 L56,158.8936 L56,141.9448 " fill="#EEEEEE" style="stroke:#0A9EFD;stroke-width:1.5;"/><rect fill="none" height="103.7949" style="stroke:#0A9EFD;stroke-width:2.0;" width="467" x="56" y="141.9448"/><text fill="#000000" font-family="Arial" font-size="13" lengthAdjust="spacing" textLength="417" x="71" y="155.1387">An established connection is dropped and restored after the first attempt</text><polygon fill="#0A9EFD" points="330.5,175.8423,340.5,179.8423,330.5,183.8423,334.5,179.8423" style="stroke:#0A9EFD;stroke-width:1.0;"/><line style="stroke:#0A9EFD;stroke-width:2.0;" x1="203.5" x2="336.5" y1="179.8423" y2="179.8423"/><text fill="#0A9EFD" font-family="Arial" font-size="13" lengthAdjust="spacing" textLength="115" x="215.5" y="175.0874">Connection dropped</text><polygon fill="#0A9EFD" points="120,204.791,110,208.791,120,212.791,116,208.791" style="stroke:#0A9EFD;stroke-width:1.0;"/><line style="stroke:#0A9EFD;stroke-width:2.0;" x1="114" x2="341.5" y1="208.791" y2="208.791"/><text fill="#0A9EFD" font-family="Arial" font-size="13" lengthAdjust="spacing" textLength="105" x="173.25" y="204.0361">Auto-reconnecting</text><polygon fill="#0A9EFD" points="191.5,233.7397,201.5,237.7397,191.5,241.7397,195.5,237.7397" style="stroke:#0A9EFD;stroke-width:1.0;"/><line style="stroke:#0A9EFD;stroke-width:2.0;" x1="109" x2="197.5" y1="237.7397" y2="237.7397"/><text fill="#0A9EFD" font-family="Arial" font-size="13" lengthAdjust="spacing" textLength="51" x="130.75" y="232.9849">Success</text><path d="M56,259.7397 L532,259.7397 L532,266.6885 L522,276.6885 L56,276.6885 L56,259.7397 " fill="#EEEEEE" style="stroke:#0A9EFD;stroke-width:1.5;"/><rect fill="none" height="161.6924" style="stroke:#0A9EFD;stroke-width:2.0;" width="481" x="56" y="259.7397"/><text fill="#000000" font-family="Arial" font-size="13" lengthAdjust="spacing" textLength="431" x="71" y="272.9336">An established connection is dropped and restored on the second attempt:</text><polygon fill="#0A9EFD" points="330.5,293.6372,340.5,297.6372,330.5,301.6372,334.5,297.6372" style="stroke:#0A9EFD;stroke-width:1.0;"/><line style="stroke:#0A9EFD;stroke-width:2.0;" x1="203.5" x2="336.5" y1="297.6372" y2="297.6372"/><text fill="#0A9EFD" font-family="Arial" font-size="13" lengthAdjust="spacing" textLength="115" x="215.5" y="292.8823">Connection dropped</text><polygon fill="#0A9EFD" points="120,322.5859,110,326.5859,120,330.5859,116,326.5859" style="stroke:#0A9EFD;stroke-width:1.0;"/><line style="stroke:#0A9EFD;stroke-width:2.0;" x1="114" x2="341.5" y1="326.5859" y2="326.5859"/><text fill="#0A9EFD" font-family="Arial" font-size="13" lengthAdjust="spacing" textLength="105" x="173.25" y="321.8311">Auto-reconnecting</text><polygon fill="#0A9EFD" points="330.5,351.5347,340.5,355.5347,330.5,359.5347,334.5,355.5347" style="stroke:#0A9EFD;stroke-width:1.0;"/><line style="stroke:#0A9EFD;stroke-width:2.0;" x1="109" x2="336.5" y1="355.5347" y2="355.5347"/><text fill="#0A9EFD" font-family="Arial" font-size="13" lengthAdjust="spacing" textLength="39" x="206.25" y="350.7798">Failure</text><polygon fill="#0A9EFD" points="120,380.4834,110,384.4834,120,388.4834,116,384.4834" style="stroke:#0A9EFD;stroke-width:1.0;"/><line style="stroke:#0A9EFD;stroke-width:2.0;" x1="114" x2="341.5" y1="384.4834" y2="384.4834"/><text fill="#0A9EFD" font-family="Arial" font-size="13" lengthAdjust="spacing" textLength="105" x="173.25" y="379.7285">Auto-reconnecting</text><polygon fill="#0A9EFD" points="191.5,409.4321,201.5,413.4321,191.5,417.4321,195.5,413.4321" style="stroke:#0A9EFD;stroke-width:1.0;"/><line style="stroke:#0A9EFD;stroke-width:2.0;" x1="109" x2="197.5" y1="413.4321" y2="413.4321"/><text fill="#0A9EFD" font-family="Arial" font-size="13" lengthAdjust="spacing" textLength="51" x="130.75" y="408.6772">Success</text><path d="M10,435.4321 L299,435.4321 L299,442.3809 L289,452.3809 L10,452.3809 L10,435.4321 " fill="#EEEEEE" style="stroke:#0A9EFD;stroke-width:1.5;"/><rect fill="none" height="161.6924" style="stroke:#0A9EFD;stroke-width:2.0;" width="497.5" x="10" y="435.4321"/><text fill="#000000" font-family="Arial" font-size="13" lengthAdjust="spacing" textLength="244" x="25" y="448.626">Reconnection attempts fail after 2 minutes</text><polygon fill="#0A9EFD" points="97,469.3296,107,473.3296,97,477.3296,101,473.3296" style="stroke:#0A9EFD;stroke-width:1.0;"/><line style="stroke:#0A9EFD;stroke-width:2.0;" x1="38" x2="103" y1="473.3296" y2="473.3296"/><text fill="#0A9EFD" font-family="Arial" font-size="13" lengthAdjust="spacing" textLength="31" x="58" y="468.5747">Login</text><polygon fill="#0A9EFD" points="330.5,498.2783,340.5,502.2783,330.5,506.2783,334.5,502.2783" style="stroke:#0A9EFD;stroke-width:1.0;"/><line style="stroke:#0A9EFD;stroke-width:2.0;" x1="109" x2="336.5" y1="502.2783" y2="502.2783"/><text fill="#0A9EFD" font-family="Arial" font-size="13" lengthAdjust="spacing" textLength="39" x="206.25" y="497.5234">Failure</text><polygon fill="#0A9EFD" points="120,527.2271,110,531.2271,120,535.2271,116,531.2271" style="stroke:#0A9EFD;stroke-width:1.0;"/><line style="stroke:#0A9EFD;stroke-width:2.0;" x1="114" x2="341.5" y1="531.2271" y2="531.2271"/><text fill="#0A9EFD" font-family="Arial" font-size="13" lengthAdjust="spacing" textLength="105" x="173.25" y="526.4722">Auto-reconnecting</text><polygon fill="#0A9EFD" points="330.5,556.1758,340.5,560.1758,330.5,564.1758,334.5,560.1758" style="stroke:#0A9EFD;stroke-width:1.0;"/><line style="stroke:#0A9EFD;stroke-width:2.0;" x1="109" x2="336.5" y1="560.1758" y2="560.1758"/><text fill="#0A9EFD" font-family="Arial" font-size="13" lengthAdjust="spacing" textLength="39" x="206.25" y="555.4209">Failure</text><polygon fill="#0A9EFD" points="442.5,585.1245,452.5,589.1245,442.5,593.1245,446.5,589.1245" style="stroke:#0A9EFD;stroke-width:1.0;"/><line style="stroke:#0A9EFD;stroke-width:2.0;" x1="342.5" x2="448.5" y1="589.1245" y2="589.1245"/><text fill="#0A9EFD" font-family="Arial" font-size="13" lengthAdjust="spacing" textLength="88" x="354.5" y="584.3696">After 2 minutes</text><path d="M56,611.1245 L443,611.1245 L443,618.0732 L433,628.0732 L56,628.0732 L56,611.1245 " fill="#EEEEEE" style="stroke:#0A9EFD;stroke-width:1.5;"/><rect fill="none" height="132.7437" style="stroke:#0A9EFD;stroke-width:2.0;" width="451.5" x="56" y="611.1245"/><text fill="#000000" font-family="Arial" font-size="13" lengthAdjust="spacing" textLength="342" x="71" y="624.3184">Successful reconnection after being in the suspended state</text><polygon fill="#0A9EFD" points="120,645.022,110,649.022,120,653.022,116,649.022" style="stroke:#0A9EFD;stroke-width:1.0;"/><line style="stroke:#0A9EFD;stroke-width:2.0;" x1="114" x2="453.5" y1="649.022" y2="649.022"/><text fill="#0A9EFD" font-family="Arial" font-size="13" lengthAdjust="spacing" textLength="105" x="229.25" y="644.2671">Auto-reconnecting</text><polygon fill="#0A9EFD" points="442.5,673.9707,452.5,677.9707,442.5,681.9707,446.5,677.9707" style="stroke:#0A9EFD;stroke-width:1.0;"/><line style="stroke:#0A9EFD;stroke-width:2.0;" x1="109" x2="448.5" y1="677.9707" y2="677.9707"/><text fill="#0A9EFD" font-family="Arial" font-size="13" lengthAdjust="spacing" textLength="39" x="262.25" y="673.2158">Failure</text><polygon fill="#0A9EFD" points="120,702.9194,110,706.9194,120,710.9194,116,706.9194" style="stroke:#0A9EFD;stroke-width:1.0;"/><line style="stroke:#0A9EFD;stroke-width:2.0;" x1="114" x2="453.5" y1="706.9194" y2="706.9194"/><text fill="#0A9EFD" font-family="Arial" font-size="13" lengthAdjust="spacing" textLength="105" x="229.25" y="702.1646">Auto-reconnecting</text><polygon fill="#0A9EFD" points="191.5,731.8682,201.5,735.8682,191.5,739.8682,195.5,735.8682" style="stroke:#0A9EFD;stroke-width:1.0;"/><line style="stroke:#0A9EFD;stroke-width:2.0;" x1="109" x2="197.5" y1="735.8682" y2="735.8682"/><text fill="#0A9EFD" font-family="Arial" font-size="13" lengthAdjust="spacing" textLength="51" x="130.75" y="731.1133">Success</text><path d="M10,757.8682 L417,757.8682 L417,764.8169 L407,774.8169 L10,774.8169 L10,757.8682 " fill="#EEEEEE" style="stroke:#0A9EFD;stroke-width:1.5;"/><rect fill="none" height="132.7437" style="stroke:#0A9EFD;stroke-width:2.0;" width="560.5" x="10" y="757.8682"/><text fill="#000000" font-family="Arial" font-size="13" lengthAdjust="spacing" textLength="362" x="25" y="771.062">Login fails due to a fatal error, followed by a successful re-login</text><polygon fill="#0A9EFD" points="97,791.7656,107,795.7656,97,799.7656,101,795.7656" style="stroke:#0A9EFD;stroke-width:1.0;"/><line style="stroke:#0A9EFD;stroke-width:2.0;" x1="38" x2="103" y1="795.7656" y2="795.7656"/><text fill="#0A9EFD" font-family="Arial" font-size="13" lengthAdjust="spacing" textLength="31" x="58" y="791.0107">Login</text><polygon fill="#0A9EFD" points="522,820.7144,532,824.7144,522,828.7144,526,824.7144" style="stroke:#0A9EFD;stroke-width:1.0;"/><line style="stroke:#0A9EFD;stroke-width:2.0;" x1="109" x2="528" y1="824.7144" y2="824.7144"/><text fill="#0A9EFD" font-family="Arial" font-size="13" lengthAdjust="spacing" textLength="59" x="292" y="819.9595">Fatal error</text><polygon fill="#0A9EFD" points="120,849.6631,110,853.6631,120,857.6631,116,853.6631" style="stroke:#0A9EFD;stroke-width:1.0;"/><line style="stroke:#0A9EFD;stroke-width:2.0;" x1="114" x2="533" y1="853.6631" y2="853.6631"/><text fill="#0A9EFD" font-family="Arial" font-size="13" lengthAdjust="spacing" textLength="258" x="192.5" y="848.9082">Re-login after removing the cause of the error</text><polygon fill="#0A9EFD" points="191.5,878.6118,201.5,882.6118,191.5,886.6118,195.5,882.6118" style="stroke:#0A9EFD;stroke-width:1.0;"/><line style="stroke:#0A9EFD;stroke-width:2.0;" x1="109" x2="197.5" y1="882.6118" y2="882.6118"/><text fill="#0A9EFD" font-family="Arial" font-size="13" lengthAdjust="spacing" textLength="51" x="130.75" y="877.8569">Success</text><path d="M10,904.6118 L257,904.6118 L257,911.5605 L247,921.5605 L10,921.5605 L10,904.6118 " fill="#EEEEEE" style="stroke:#0A9EFD;stroke-width:1.5;"/><rect fill="none" height="45.8975" style="stroke:#0A9EFD;stroke-width:2.0;" width="252" x="10" y="904.6118"/><text fill="#000000" font-family="Arial" font-size="13" lengthAdjust="spacing" textLength="202" x="25" y="917.8057">A logout operation while connected</text><polygon fill="#0A9EFD" points="49,938.5093,39,942.5093,49,946.5093,45,942.5093" style="stroke:#0A9EFD;stroke-width:1.0;"/><line style="stroke:#0A9EFD;stroke-width:2.0;" x1="43" x2="202.5" y1="942.5093" y2="942.5093"/><text fill="#0A9EFD" font-family="Arial" font-size="13" lengthAdjust="spacing" textLength="39" x="101.25" y="937.7544">Logout</text><!--SRC=[lLJBJWCn3BpdAqpFb0F77f0G20c94tm0IZVUrYADLub31LzFadqqMrK8472BuydOOpi-8zVOQ13qXhr-3Y_aBYZkh5ATza8DTTe9BEwDnGNe09GESzSDEuUDaDiKG3EP9s5eQXIQEUYMGZF3cUfY3dsAeKDd1bmOhJdeJfCT46qvAhNn73juYas38RJHWkKDET2je0To9AGjlMiXTYgBXULLfMdLmzNXflAZMOt4AYKpnhfsW47qsbBOefd8s04bWPwxBjrgPy0d6Fjib6HaYz2I3m9Q17UTg2bE3bgNPWKt1zQ1KjM0OnNNKNZfiMhMtofAhYmdv8XcrBFwHq5pyZmNqUCVbkWHgweCUliX7Bfx2JjoKJ2SdBA74rFs-nA-nZZzhKHub7ebkFfHVgQzF5bZ3ad358o4a8P8K1tiR-PVPJOc_sEkpzjP-b7QbmOy8WY3JgPe2-Wz-tDesLhUfxZhj-GATJMM_SxuQf_xJPKbJVIglpj-_JXG3qNskEFNJ9ABtEWO4BWjHa_ohI-U5nr70UxGbsq8-stAeThSio79uegSzARmV000]--></g></svg>