<?xml version="1.0" encoding="us-ascii" standalone="no"?><svg xmlns="http://www.w3.org/2000/svg" xmlns:xlink="http://www.w3.org/1999/xlink" contentStyleType="text/css" height="1026px" preserveAspectRatio="none" style="width:598px;height:1026px;" version="1.1" viewBox="0 0 598 1026" width="598px" zoomAndPan="magnify"><defs/><g><rect fill="none" height="1024.7617" style="stroke:#0A9EFD;stroke-width:1.0;" width="596" x="0" y="0"/><rect fill="#999999" fill-opacity="0.33333" height="1014.7617" style="stroke:#0A9EFD;stroke-width:0.5;" width="112" x="213" y="6"/><text fill="#0A9EFD" font-family="sans-serif" font-size="13" font-weight="bold" lengthAdjust="spacing" textLength="62" x="238" y="18.5684">Your app</text><rect fill="#999999" fill-opacity="0.33333" height="1014.7617" style="stroke:#0A9EFD;stroke-width:0.5;" width="80" x="506" y="6"/><text fill="#0A9EFD" font-family="sans-serif" font-size="13" font-weight="bold" lengthAdjust="spacing" textLength="41" x="525.5" y="18.5684">Agora</text><rect fill="#0A9EFD" fill-opacity="0.06667" height="200.6924" style="stroke:#0A9EFD;stroke-width:2.0;" width="582" x="10" y="103.0986"/><rect fill="#0A9EFD" fill-opacity="0.06667" height="219.5386" style="stroke:#0A9EFD;stroke-width:2.0;" width="582" x="10" y="317.791"/><rect fill="#0A9EFD" fill-opacity="0.06667" height="132.7437" style="stroke:#0A9EFD;stroke-width:2.0;" width="582" x="10" y="551.3296"/><rect fill="#0A9EFD" fill-opacity="0.06667" height="132.7437" style="stroke:#0A9EFD;stroke-width:2.0;" width="582" x="10" y="698.0732"/><rect fill="#0A9EFD" fill-opacity="0.06667" height="74.8462" style="stroke:#0A9EFD;stroke-width:2.0;" width="582" x="10" y="844.8169"/><line style="stroke:#0A9EFD;stroke-width:0.5;stroke-dasharray:5.0,5.0;" x1="38" x2="38" y1="86.0986" y2="936.6631"/><line style="stroke:#0A9EFD;stroke-width:0.5;stroke-dasharray:5.0,5.0;" x1="269" x2="269" y1="86.0986" y2="936.6631"/><line style="stroke:#0A9EFD;stroke-width:0.5;stroke-dasharray:5.0,5.0;" x1="546" x2="546" y1="86.0986" y2="936.6631"/><text fill="#0A9EFD" font-family="Arial" font-size="14" lengthAdjust="spacing" textLength="30" x="20" y="83.1318">User</text><ellipse cx="38" cy="16" fill="none" rx="8" ry="8" style="stroke:#0A9EFD;stroke-width:3.0;"/><path d="M38,24 L38,51 M25,32 L51,32 M38,51 L25,66 M38,51 L51,66 " fill="none" style="stroke:#0A9EFD;stroke-width:3.0;"/><text fill="#0A9EFD" font-family="Arial" font-size="14" lengthAdjust="spacing" textLength="30" x="20" y="948.7949">User</text><ellipse cx="38" cy="962.7617" fill="none" rx="8" ry="8" style="stroke:#0A9EFD;stroke-width:3.0;"/><path d="M38,970.7617 L38,997.7617 M25,978.7617 L51,978.7617 M38,997.7617 L25,1012.7617 M38,997.7617 L51,1012.7617 " fill="none" style="stroke:#0A9EFD;stroke-width:3.0;"/><rect fill="none" height="30.0986" rx="2.5" ry="2.5" style="stroke:#0A9EFD;stroke-width:2.0;" width="104" x="217" y="55"/><text fill="#0A9EFD" font-family="Arial" font-size="14" lengthAdjust="spacing" textLength="90" x="224" y="75.1318">Signaling SDK</text><rect fill="none" height="30.0986" rx="2.5" ry="2.5" style="stroke:#0A9EFD;stroke-width:2.0;" width="104" x="217" y="935.6631"/><text fill="#0A9EFD" font-family="Arial" font-size="14" lengthAdjust="spacing" textLength="90" x="224" y="955.7949">Signaling SDK</text><rect fill="none" height="30.0986" rx="2.5" ry="2.5" style="stroke:#0A9EFD;stroke-width:2.0;" width="72" x="510" y="55"/><text fill="#0A9EFD" font-family="Arial" font-size="14" lengthAdjust="spacing" textLength="58" x="517" y="75.1318">Signaling</text><rect fill="none" height="30.0986" rx="2.5" ry="2.5" style="stroke:#0A9EFD;stroke-width:2.0;" width="72" x="510" y="935.6631"/><text fill="#0A9EFD" font-family="Arial" font-size="14" lengthAdjust="spacing" textLength="58" x="517" y="955.7949">Signaling</text><path d="M10,103.0986 L103,103.0986 L103,110.0474 L93,120.0474 L10,120.0474 L10,103.0986 " fill="#EEEEEE" style="stroke:#0A9EFD;stroke-width:1.5;"/><rect fill="none" height="200.6924" style="stroke:#0A9EFD;stroke-width:2.0;" width="582" x="10" y="103.0986"/><text fill="#000000" font-family="Arial" font-size="13" lengthAdjust="spacing" textLength="48" x="25" y="116.2925">Initialize</text><polygon fill="#0A9EFD" points="257,136.9961,267,140.9961,257,144.9961,261,140.9961" style="stroke:#0A9EFD;stroke-width:1.0;"/><line style="stroke:#0A9EFD;stroke-width:2.0;" x1="38" x2="263" y1="140.9961" y2="140.9961"/><text fill="#0A9EFD" font-family="Arial" font-size="13" lengthAdjust="spacing" textLength="56" x="125.5" y="136.2412">Open app</text><line style="stroke:#0A9EFD;stroke-width:2.0;" x1="269" x2="311" y1="169.9448" y2="169.9448"/><line style="stroke:#0A9EFD;stroke-width:2.0;" x1="311" x2="311" y1="169.9448" y2="182.9448"/><line style="stroke:#0A9EFD;stroke-width:2.0;" x1="270" x2="311" y1="182.9448" y2="182.9448"/><polygon fill="#0A9EFD" points="280,178.9448,270,182.9448,280,186.9448,276,182.9448" style="stroke:#0A9EFD;stroke-width:1.0;"/><text fill="#0A9EFD" font-family="Arial" font-size="13" lengthAdjust="spacing" textLength="197" x="276" y="165.1899">Create a signalingEngine instance</text><line style="stroke:#0A9EFD;stroke-width:2.0;" x1="269" x2="311" y1="211.8936" y2="211.8936"/><line style="stroke:#0A9EFD;stroke-width:2.0;" x1="311" x2="311" y1="211.8936" y2="224.8936"/><line style="stroke:#0A9EFD;stroke-width:2.0;" x1="270" x2="311" y1="224.8936" y2="224.8936"/><polygon fill="#0A9EFD" points="280,220.8936,270,224.8936,280,228.8936,276,224.8936" style="stroke:#0A9EFD;stroke-width:1.0;"/><text fill="#0A9EFD" font-family="Arial" font-size="13" lengthAdjust="spacing" textLength="184" x="276" y="207.1387">Add the presence event listener</text><line style="stroke:#0A9EFD;stroke-width:2.0;" x1="269" x2="311" y1="253.8423" y2="253.8423"/><line style="stroke:#0A9EFD;stroke-width:2.0;" x1="311" x2="311" y1="253.8423" y2="266.8423"/><line style="stroke:#0A9EFD;stroke-width:2.0;" x1="270" x2="311" y1="266.8423" y2="266.8423"/><polygon fill="#0A9EFD" points="280,262.8423,270,266.8423,280,270.8423,276,266.8423" style="stroke:#0A9EFD;stroke-width:1.0;"/><text fill="#0A9EFD" font-family="Arial" font-size="13" lengthAdjust="spacing" textLength="163" x="276" y="249.0874">Set the authentication token</text><polygon fill="#0A9EFD" points="534,291.791,544,295.791,534,299.791,538,295.791" style="stroke:#0A9EFD;stroke-width:1.0;"/><line style="stroke:#0A9EFD;stroke-width:2.0;" x1="269" x2="540" y1="295.791" y2="295.791"/><text fill="#0A9EFD" font-family="Arial" font-size="13" lengthAdjust="spacing" textLength="107" x="354" y="291.0361">Log in to Signaling</text><path d="M10,317.791 L184,317.791 L184,324.7397 L174,334.7397 L10,334.7397 L10,317.791 " fill="#EEEEEE" style="stroke:#0A9EFD;stroke-width:1.5;"/><rect fill="none" height="219.5386" style="stroke:#0A9EFD;stroke-width:2.0;" width="582" x="10" y="317.791"/><text fill="#000000" font-family="Arial" font-size="13" lengthAdjust="spacing" textLength="129" x="25" y="330.9849">Presence notifications</text><polygon fill="#0A9EFD" points="257,351.6885,267,355.6885,257,359.6885,261,355.6885" style="stroke:#0A9EFD;stroke-width:1.0;"/><line style="stroke:#0A9EFD;stroke-width:2.0;" x1="38" x2="263" y1="355.6885" y2="355.6885"/><text fill="#0A9EFD" font-family="Arial" font-size="13" lengthAdjust="spacing" textLength="84" x="111.5" y="350.9336">Join a channel</text><polygon fill="#0A9EFD" points="534,395.5859,544,399.5859,534,403.5859,538,399.5859" style="stroke:#0A9EFD;stroke-width:1.0;"/><line style="stroke:#0A9EFD;stroke-width:2.0;" x1="269" x2="540" y1="399.5859" y2="399.5859"/><text fill="#0A9EFD" font-family="Arial" font-size="13" lengthAdjust="spacing" textLength="133" x="339" y="379.8823">Subscribe to a channel</text><text fill="#0A9EFD" font-family="Arial" font-size="13" lengthAdjust="spacing" textLength="253" x="281" y="394.8311">and enable presence events for the channel</text><polygon fill="#0A9EFD" points="280,454.4321,270,458.4321,280,462.4321,276,458.4321" style="stroke:#0A9EFD;stroke-width:1.0;"/><line style="stroke:#0A9EFD;stroke-width:2.0;" x1="274" x2="545" y1="458.4321" y2="458.4321"/><text fill="#0A9EFD" font-family="Arial" font-size="13" lengthAdjust="spacing" textLength="95" x="360" y="423.7798">Presence event:</text><text fill="#0A9EFD" font-family="Arial" font-size="13" lengthAdjust="spacing" textLength="159" x="328" y="438.7285">A remote user joins, leaves</text><text fill="#0A9EFD" font-family="Arial" font-size="13" lengthAdjust="spacing" textLength="189" x="313" y="453.6772">or changes status in the channel</text><line style="stroke:#0A9EFD;stroke-width:2.0;" x1="269" x2="311" y1="487.3809" y2="487.3809"/><line style="stroke:#0A9EFD;stroke-width:2.0;" x1="311" x2="311" y1="487.3809" y2="500.3809"/><line style="stroke:#0A9EFD;stroke-width:2.0;" x1="270" x2="311" y1="500.3809" y2="500.3809"/><polygon fill="#0A9EFD" points="280,496.3809,270,500.3809,280,504.3809,276,500.3809" style="stroke:#0A9EFD;stroke-width:1.0;"/><text fill="#0A9EFD" font-family="Arial" font-size="13" lengthAdjust="spacing" textLength="153" x="276" y="482.626">Read the event arguments</text><polygon fill="#0A9EFD" points="49,525.3296,39,529.3296,49,533.3296,45,529.3296" style="stroke:#0A9EFD;stroke-width:1.0;"/><line style="stroke:#0A9EFD;stroke-width:2.0;" x1="43" x2="268" y1="529.3296" y2="529.3296"/><text fill="#0A9EFD" font-family="Arial" font-size="13" lengthAdjust="spacing" textLength="73" x="117" y="524.5747">Inform users</text><path d="M10,551.3296 L156,551.3296 L156,558.2783 L146,568.2783 L10,568.2783 L10,551.3296 " fill="#EEEEEE" style="stroke:#0A9EFD;stroke-width:1.5;"/><rect fill="none" height="132.7437" style="stroke:#0A9EFD;stroke-width:2.0;" width="582" x="10" y="551.3296"/><text fill="#000000" font-family="Arial" font-size="13" lengthAdjust="spacing" textLength="101" x="25" y="564.5234">Presence queries</text><polygon fill="#0A9EFD" points="257,585.2271,267,589.2271,257,593.2271,261,589.2271" style="stroke:#0A9EFD;stroke-width:1.0;"/><line style="stroke:#0A9EFD;stroke-width:2.0;" x1="38" x2="263" y1="589.2271" y2="589.2271"/><text fill="#0A9EFD" font-family="Arial" font-size="13" lengthAdjust="spacing" textLength="207" x="50" y="584.4722">Load the list of users in the channel</text><polygon fill="#0A9EFD" points="280,614.1758,270,618.1758,280,622.1758,276,618.1758" style="stroke:#0A9EFD;stroke-width:1.0;"/><polygon fill="#0A9EFD" points="534,614.1758,544,618.1758,534,622.1758,538,618.1758" style="stroke:#0A9EFD;stroke-width:1.0;"/><line style="stroke:#0A9EFD;stroke-width:2.0;" x1="274" x2="540" y1="618.1758" y2="618.1758"/><text fill="#0A9EFD" font-family="Arial" font-size="13" lengthAdjust="spacing" textLength="115" x="350" y="613.4209">Call getOnlineUsers</text><polygon fill="#0A9EFD" points="257,643.1245,267,647.1245,257,651.1245,261,647.1245" style="stroke:#0A9EFD;stroke-width:1.0;"/><line style="stroke:#0A9EFD;stroke-width:2.0;" x1="38" x2="263" y1="647.1245" y2="647.1245"/><text fill="#0A9EFD" font-family="Arial" font-size="13" lengthAdjust="spacing" textLength="179" x="64" y="642.3696">Load the channel list for a user</text><polygon fill="#0A9EFD" points="280,672.0732,270,676.0732,280,680.0732,276,676.0732" style="stroke:#0A9EFD;stroke-width:1.0;"/><polygon fill="#0A9EFD" points="534,672.0732,544,676.0732,534,680.0732,538,676.0732" style="stroke:#0A9EFD;stroke-width:1.0;"/><line style="stroke:#0A9EFD;stroke-width:2.0;" x1="274" x2="540" y1="676.0732" y2="676.0732"/><text fill="#0A9EFD" font-family="Arial" font-size="13" lengthAdjust="spacing" textLength="125" x="345" y="671.3184">Call getUserChannels</text><path d="M10,698.0732 L122,698.0732 L122,705.022 L112,715.022 L10,715.022 L10,698.0732 " fill="#EEEEEE" style="stroke:#0A9EFD;stroke-width:1.5;"/><rect fill="none" height="132.7437" style="stroke:#0A9EFD;stroke-width:2.0;" width="582" x="10" y="698.0732"/><text fill="#000000" font-family="Arial" font-size="13" lengthAdjust="spacing" textLength="67" x="25" y="711.2671">User status</text><polygon fill="#0A9EFD" points="257,731.9707,267,735.9707,257,739.9707,261,735.9707" style="stroke:#0A9EFD;stroke-width:1.0;"/><line style="stroke:#0A9EFD;stroke-width:2.0;" x1="38" x2="263" y1="735.9707" y2="735.9707"/><text fill="#0A9EFD" font-family="Arial" font-size="13" lengthAdjust="spacing" textLength="87" x="110" y="731.2158">Set own status</text><polygon fill="#0A9EFD" points="534,760.9194,544,764.9194,534,768.9194,538,764.9194" style="stroke:#0A9EFD;stroke-width:1.0;"/><line style="stroke:#0A9EFD;stroke-width:2.0;" x1="269" x2="540" y1="764.9194" y2="764.9194"/><text fill="#0A9EFD" font-family="Arial" font-size="13" lengthAdjust="spacing" textLength="75" x="370" y="760.1646">Call setState</text><polygon fill="#0A9EFD" points="257,789.8682,267,793.8682,257,797.8682,261,793.8682" style="stroke:#0A9EFD;stroke-width:1.0;"/><line style="stroke:#0A9EFD;stroke-width:2.0;" x1="38" x2="263" y1="793.8682" y2="793.8682"/><text fill="#0A9EFD" font-family="Arial" font-size="13" lengthAdjust="spacing" textLength="196" x="55.5" y="789.1133">Query the status of a remote user</text><polygon fill="#0A9EFD" points="280,818.8169,270,822.8169,280,826.8169,276,822.8169" style="stroke:#0A9EFD;stroke-width:1.0;"/><polygon fill="#0A9EFD" points="534,818.8169,544,822.8169,534,826.8169,538,822.8169" style="stroke:#0A9EFD;stroke-width:1.0;"/><line style="stroke:#0A9EFD;stroke-width:2.0;" x1="274" x2="540" y1="822.8169" y2="822.8169"/><text fill="#0A9EFD" font-family="Arial" font-size="13" lengthAdjust="spacing" textLength="75" x="370" y="818.062">Call getState</text><path d="M10,844.8169 L88,844.8169 L88,851.7656 L78,861.7656 L10,861.7656 L10,844.8169 " fill="#EEEEEE" style="stroke:#0A9EFD;stroke-width:1.5;"/><rect fill="none" height="74.8462" style="stroke:#0A9EFD;stroke-width:2.0;" width="582" x="10" y="844.8169"/><text fill="#000000" font-family="Arial" font-size="13" lengthAdjust="spacing" textLength="33" x="25" y="858.0107">Close</text><polygon fill="#0A9EFD" points="257,878.7144,267,882.7144,257,886.7144,261,882.7144" style="stroke:#0A9EFD;stroke-width:1.0;"/><line style="stroke:#0A9EFD;stroke-width:2.0;" x1="38" x2="263" y1="882.7144" y2="882.7144"/><text fill="#0A9EFD" font-family="Arial" font-size="13" lengthAdjust="spacing" textLength="43" x="132" y="877.9595">Log out</text><polygon fill="#0A9EFD" points="534,907.6631,544,911.6631,534,915.6631,538,911.6631" style="stroke:#0A9EFD;stroke-width:1.0;"/><line style="stroke:#0A9EFD;stroke-width:2.0;" x1="269" x2="540" y1="911.6631" y2="911.6631"/><text fill="#0A9EFD" font-family="Arial" font-size="13" lengthAdjust="spacing" textLength="115" x="350" y="906.9082">Log out of Signaling</text><!--SRC=[TL9DRzim3BtxLt0-h-az60O4sGxP2ZIhqSE00WDZCweMXV94AVluzQCSEudQz6B08j_ZUuzyPxbrgIEOpMuFjYD_8ztk5eqF-4DsbcSsxLrLOHjzWFfHADI00e_DGrLj_1-el_iK0Fk-hdeCqRQsHuvGDzOmEii6cazV1yXYlQw8Er3K25taAM_XHipgZ371fnvMRAFLZdzKgGYu-PY9vt3V4sSPbVwT7fU1C18WoCJwcOrb0iiIaLigkXTT1_6Pe0yaf4MW0waaPoKIKoXw6uf3BoRziih7Q3r3z3lYS-Dg3dVUw3GjmCbPTZIvMK-ps4Ux7McaSFR5AnwXVKPcSWLvapRI1hkXp7zgWIT6pOmOD-wb6u6jxZ4hF_EjJgFMHU_yYM41WVPUCqowUVYfKkGzEC83YOvHganZz4VpZ4a6gmNvER87mcE-nrWncBJFYgOczJpNxQg-_J1Du6fGln85IsL4Ttwaphi2lntnLyHycA9RedDWADwpheJoNRz1EOKwKEVmS62_pfPvbaU0NAhFxsD4nPHyHlutJwNBtGwKGh7HKddgtpI1luEsCNGrZ9TxkgxjI7GXQkcyq0lJ1doAhmvOt_AGyeB_0m00]--></g></svg>