<?xml version="1.0" encoding="UTF-8" standalone="no"?><svg xmlns="http://www.w3.org/2000/svg" xmlns:xlink="http://www.w3.org/1999/xlink" contentStyleType="text/css" height="1013px" preserveAspectRatio="none" style="width:593px;height:1013px;" version="1.1" viewBox="0 0 593 1013" width="593px" zoomAndPan="magnify"><defs/><g><rect fill="none" height="1011.9375" style="stroke:#0A9EFD;stroke-width:1.0;" width="591.5" x="0" y="0"/><rect fill="#999999" fill-opacity="0.33333" height="1001.9375" style="stroke:#0A9EFD;stroke-width:0.5;" width="112" x="211.5" y="6"/><text fill="#0A9EFD" font-family="sans-serif" font-size="13" font-weight="bold" lengthAdjust="spacing" textLength="57" x="239" y="20.0283">Your app</text><rect fill="#999999" fill-opacity="0.33333" height="1001.9375" style="stroke:#0A9EFD;stroke-width:0.5;" width="80" x="501.5" y="6"/><text fill="#0A9EFD" font-family="sans-serif" font-size="13" font-weight="bold" lengthAdjust="spacing" textLength="38" x="522.5" y="20.0283">Agora</text><rect fill="#0A9EFD" fill-opacity="0.06667" height="198.1406" style="stroke:#0A9EFD;stroke-width:2.0;" width="577.5" x="10" y="102.6406"/><rect fill="#0A9EFD" fill-opacity="0.06667" height="215.7109" style="stroke:#0A9EFD;stroke-width:2.0;" width="577.5" x="10" y="314.7813"/><rect fill="#0A9EFD" fill-opacity="0.06667" height="130.6172" style="stroke:#0A9EFD;stroke-width:2.0;" width="577.5" x="10" y="544.4922"/><rect fill="#0A9EFD" fill-opacity="0.06667" height="130.6172" style="stroke:#0A9EFD;stroke-width:2.0;" width="577.5" x="10" y="689.1094"/><rect fill="#0A9EFD" fill-opacity="0.06667" height="73.5703" style="stroke:#0A9EFD;stroke-width:2.0;" width="577.5" x="10" y="833.7266"/><line style="stroke:#0A9EFD;stroke-width:0.5;stroke-dasharray:5.0,5.0;" x1="37" x2="37" y1="85.6406" y2="924.2969"/><line style="stroke:#0A9EFD;stroke-width:0.5;stroke-dasharray:5.0,5.0;" x1="267.5" x2="267.5" y1="85.6406" y2="924.2969"/><line style="stroke:#0A9EFD;stroke-width:0.5;stroke-dasharray:5.0,5.0;" x1="541.5" x2="541.5" y1="85.6406" y2="924.2969"/><text fill="#0A9EFD" font-family="Arial" font-size="14" lengthAdjust="spacing" textLength="29" x="20" y="82.6738">User</text><ellipse cx="37.5" cy="16" fill="none" rx="8" ry="8" style="stroke:#0A9EFD;stroke-width:3.0;"/><path d="M37.5,24 L37.5,51 M24.5,32 L50.5,32 M37.5,51 L24.5,66 M37.5,51 L50.5,66 " fill="none" style="stroke:#0A9EFD;stroke-width:3.0;"/><text fill="#0A9EFD" font-family="Arial" font-size="14" lengthAdjust="spacing" textLength="29" x="20" y="935.9707">User</text><ellipse cx="37.5" cy="949.9375" fill="none" rx="8" ry="8" style="stroke:#0A9EFD;stroke-width:3.0;"/><path d="M37.5,957.9375 L37.5,984.9375 M24.5,965.9375 L50.5,965.9375 M37.5,984.9375 L24.5,999.9375 M37.5,984.9375 L50.5,999.9375 " fill="none" style="stroke:#0A9EFD;stroke-width:3.0;"/><rect fill="none" height="29.6406" rx="2.5" ry="2.5" style="stroke:#0A9EFD;stroke-width:2.0;" width="104" x="215.5" y="55"/><text fill="#0A9EFD" font-family="Arial" font-size="14" lengthAdjust="spacing" textLength="90" x="222.5" y="74.6738">Signaling SDK</text><rect fill="none" height="29.6406" rx="2.5" ry="2.5" style="stroke:#0A9EFD;stroke-width:2.0;" width="104" x="215.5" y="923.2969"/><text fill="#0A9EFD" font-family="Arial" font-size="14" lengthAdjust="spacing" textLength="90" x="222.5" y="942.9707">Signaling SDK</text><rect fill="none" height="29.6406" rx="2.5" ry="2.5" style="stroke:#0A9EFD;stroke-width:2.0;" width="72" x="505.5" y="55"/><text fill="#0A9EFD" font-family="Arial" font-size="14" lengthAdjust="spacing" textLength="58" x="512.5" y="74.6738">Signaling</text><rect fill="none" height="29.6406" rx="2.5" ry="2.5" style="stroke:#0A9EFD;stroke-width:2.0;" width="72" x="505.5" y="923.2969"/><text fill="#0A9EFD" font-family="Arial" font-size="14" lengthAdjust="spacing" textLength="58" x="512.5" y="942.9707">Signaling</text><path d="M10,102.6406 L102,102.6406 L102,109.1641 L92,119.1641 L10,119.1641 L10,102.6406 " fill="#EEEEEE" style="stroke:#0A9EFD;stroke-width:1.5;"/><rect fill="none" height="198.1406" style="stroke:#0A9EFD;stroke-width:2.0;" width="577.5" x="10" y="102.6406"/><text fill="#000000" font-family="Arial" font-size="13" lengthAdjust="spacing" textLength="47" x="25" y="115.4092">Initialize</text><polygon fill="#0A9EFD" points="255.5,135.6875,265.5,139.6875,255.5,143.6875,259.5,139.6875" style="stroke:#0A9EFD;stroke-width:1.0;"/><line style="stroke:#0A9EFD;stroke-width:2.0;" x1="37.5" x2="261.5" y1="139.6875" y2="139.6875"/><text fill="#0A9EFD" font-family="Arial" font-size="13" lengthAdjust="spacing" textLength="56" x="124.5" y="134.9326">Open app</text><line style="stroke:#0A9EFD;stroke-width:2.0;" x1="267.5" x2="309.5" y1="168.2109" y2="168.2109"/><line style="stroke:#0A9EFD;stroke-width:2.0;" x1="309.5" x2="309.5" y1="168.2109" y2="181.2109"/><line style="stroke:#0A9EFD;stroke-width:2.0;" x1="268.5" x2="309.5" y1="181.2109" y2="181.2109"/><polygon fill="#0A9EFD" points="278.5,177.2109,268.5,181.2109,278.5,185.2109,274.5,181.2109" style="stroke:#0A9EFD;stroke-width:1.0;"/><text fill="#0A9EFD" font-family="Arial" font-size="13" lengthAdjust="spacing" textLength="197" x="274.5" y="163.4561">Create a signalingEngine instance</text><line style="stroke:#0A9EFD;stroke-width:2.0;" x1="267.5" x2="309.5" y1="209.7344" y2="209.7344"/><line style="stroke:#0A9EFD;stroke-width:2.0;" x1="309.5" x2="309.5" y1="209.7344" y2="222.7344"/><line style="stroke:#0A9EFD;stroke-width:2.0;" x1="268.5" x2="309.5" y1="222.7344" y2="222.7344"/><polygon fill="#0A9EFD" points="278.5,218.7344,268.5,222.7344,278.5,226.7344,274.5,222.7344" style="stroke:#0A9EFD;stroke-width:1.0;"/><text fill="#0A9EFD" font-family="Arial" font-size="13" lengthAdjust="spacing" textLength="182" x="274.5" y="204.9795">Add the presence event listener</text><line style="stroke:#0A9EFD;stroke-width:2.0;" x1="267.5" x2="309.5" y1="251.2578" y2="251.2578"/><line style="stroke:#0A9EFD;stroke-width:2.0;" x1="309.5" x2="309.5" y1="251.2578" y2="264.2578"/><line style="stroke:#0A9EFD;stroke-width:2.0;" x1="268.5" x2="309.5" y1="264.2578" y2="264.2578"/><polygon fill="#0A9EFD" points="278.5,260.2578,268.5,264.2578,278.5,268.2578,274.5,264.2578" style="stroke:#0A9EFD;stroke-width:1.0;"/><text fill="#0A9EFD" font-family="Arial" font-size="13" lengthAdjust="spacing" textLength="163" x="274.5" y="246.5029">Set the authentication token</text><polygon fill="#0A9EFD" points="529.5,288.7813,539.5,292.7813,529.5,296.7813,533.5,292.7813" style="stroke:#0A9EFD;stroke-width:1.0;"/><line style="stroke:#0A9EFD;stroke-width:2.0;" x1="267.5" x2="535.5" y1="292.7813" y2="292.7813"/><text fill="#0A9EFD" font-family="Arial" font-size="13" lengthAdjust="spacing" textLength="107" x="351" y="288.0264">Log in to Signaling</text><path d="M10,314.7813 L183,314.7813 L183,321.3047 L173,331.3047 L10,331.3047 L10,314.7813 " fill="#EEEEEE" style="stroke:#0A9EFD;stroke-width:1.5;"/><rect fill="none" height="215.7109" style="stroke:#0A9EFD;stroke-width:2.0;" width="577.5" x="10" y="314.7813"/><text fill="#000000" font-family="Arial" font-size="13" lengthAdjust="spacing" textLength="128" x="25" y="327.5498">Presence notifications</text><polygon fill="#0A9EFD" points="255.5,347.8281,265.5,351.8281,255.5,355.8281,259.5,351.8281" style="stroke:#0A9EFD;stroke-width:1.0;"/><line style="stroke:#0A9EFD;stroke-width:2.0;" x1="37.5" x2="261.5" y1="351.8281" y2="351.8281"/><text fill="#0A9EFD" font-family="Arial" font-size="13" lengthAdjust="spacing" textLength="83" x="111" y="347.0732">Join a channel</text><polygon fill="#0A9EFD" points="529.5,390.875,539.5,394.875,529.5,398.875,533.5,394.875" style="stroke:#0A9EFD;stroke-width:1.0;"/><line style="stroke:#0A9EFD;stroke-width:2.0;" x1="267.5" x2="535.5" y1="394.875" y2="394.875"/><text fill="#0A9EFD" font-family="Arial" font-size="13" lengthAdjust="spacing" textLength="133" x="336" y="375.5967">Subscribe to a channel</text><text fill="#0A9EFD" font-family="Arial" font-size="13" lengthAdjust="spacing" textLength="250" x="279.5" y="390.1201">and enable presence events for the channel</text><polygon fill="#0A9EFD" points="278.5,448.4453,268.5,452.4453,278.5,456.4453,274.5,452.4453" style="stroke:#0A9EFD;stroke-width:1.0;"/><line style="stroke:#0A9EFD;stroke-width:2.0;" x1="272.5" x2="540.5" y1="452.4453" y2="452.4453"/><text fill="#0A9EFD" font-family="Arial" font-size="13" lengthAdjust="spacing" textLength="93" x="358" y="418.6436">Presence event:</text><text fill="#0A9EFD" font-family="Arial" font-size="13" lengthAdjust="spacing" textLength="157" x="326" y="433.167">A remote user joins, leaves</text><text fill="#0A9EFD" font-family="Arial" font-size="13" lengthAdjust="spacing" textLength="189" x="310" y="447.6904">or changes status in the channel</text><line style="stroke:#0A9EFD;stroke-width:2.0;" x1="267.5" x2="309.5" y1="480.9688" y2="480.9688"/><line style="stroke:#0A9EFD;stroke-width:2.0;" x1="309.5" x2="309.5" y1="480.9688" y2="493.9688"/><line style="stroke:#0A9EFD;stroke-width:2.0;" x1="268.5" x2="309.5" y1="493.9688" y2="493.9688"/><polygon fill="#0A9EFD" points="278.5,489.9688,268.5,493.9688,278.5,497.9688,274.5,493.9688" style="stroke:#0A9EFD;stroke-width:1.0;"/><text fill="#0A9EFD" font-family="Arial" font-size="13" lengthAdjust="spacing" textLength="151" x="274.5" y="476.2139">Read the event arguments</text><polygon fill="#0A9EFD" points="48.5,518.4922,38.5,522.4922,48.5,526.4922,44.5,522.4922" style="stroke:#0A9EFD;stroke-width:1.0;"/><line style="stroke:#0A9EFD;stroke-width:2.0;" x1="42.5" x2="266.5" y1="522.4922" y2="522.4922"/><text fill="#0A9EFD" font-family="Arial" font-size="13" lengthAdjust="spacing" textLength="71" x="117" y="517.7373">Inform users</text><path d="M10,544.4922 L156,544.4922 L156,551.0156 L146,561.0156 L10,561.0156 L10,544.4922 " fill="#EEEEEE" style="stroke:#0A9EFD;stroke-width:1.5;"/><rect fill="none" height="130.6172" style="stroke:#0A9EFD;stroke-width:2.0;" width="577.5" x="10" y="544.4922"/><text fill="#000000" font-family="Arial" font-size="13" lengthAdjust="spacing" textLength="101" x="25" y="557.2607">Presence queries</text><polygon fill="#0A9EFD" points="255.5,577.5391,265.5,581.5391,255.5,585.5391,259.5,581.5391" style="stroke:#0A9EFD;stroke-width:1.0;"/><line style="stroke:#0A9EFD;stroke-width:2.0;" x1="37.5" x2="261.5" y1="581.5391" y2="581.5391"/><text fill="#0A9EFD" font-family="Arial" font-size="13" lengthAdjust="spacing" textLength="206" x="49.5" y="576.7842">Load the list of users in the channel</text><polygon fill="#0A9EFD" points="278.5,606.0625,268.5,610.0625,278.5,614.0625,274.5,610.0625" style="stroke:#0A9EFD;stroke-width:1.0;"/><polygon fill="#0A9EFD" points="529.5,606.0625,539.5,610.0625,529.5,614.0625,533.5,610.0625" style="stroke:#0A9EFD;stroke-width:1.0;"/><line style="stroke:#0A9EFD;stroke-width:2.0;" x1="272.5" x2="535.5" y1="610.0625" y2="610.0625"/><text fill="#0A9EFD" font-family="Arial" font-size="13" lengthAdjust="spacing" textLength="115" x="347" y="605.3076">Call getOnlineUsers</text><polygon fill="#0A9EFD" points="255.5,634.5859,265.5,638.5859,255.5,642.5859,259.5,638.5859" style="stroke:#0A9EFD;stroke-width:1.0;"/><line style="stroke:#0A9EFD;stroke-width:2.0;" x1="37.5" x2="261.5" y1="638.5859" y2="638.5859"/><text fill="#0A9EFD" font-family="Arial" font-size="13" lengthAdjust="spacing" textLength="178" x="63.5" y="633.8311">Load the channel list for a user</text><polygon fill="#0A9EFD" points="278.5,663.1094,268.5,667.1094,278.5,671.1094,274.5,667.1094" style="stroke:#0A9EFD;stroke-width:1.0;"/><polygon fill="#0A9EFD" points="529.5,663.1094,539.5,667.1094,529.5,671.1094,533.5,667.1094" style="stroke:#0A9EFD;stroke-width:1.0;"/><line style="stroke:#0A9EFD;stroke-width:2.0;" x1="272.5" x2="535.5" y1="667.1094" y2="667.1094"/><text fill="#0A9EFD" font-family="Arial" font-size="13" lengthAdjust="spacing" textLength="125" x="342" y="662.3545">Call getUserChannels</text><path d="M10,689.1094 L122,689.1094 L122,695.6328 L112,705.6328 L10,705.6328 L10,689.1094 " fill="#EEEEEE" style="stroke:#0A9EFD;stroke-width:1.5;"/><rect fill="none" height="130.6172" style="stroke:#0A9EFD;stroke-width:2.0;" width="577.5" x="10" y="689.1094"/><text fill="#000000" font-family="Arial" font-size="13" lengthAdjust="spacing" textLength="67" x="25" y="701.8779">User status</text><polygon fill="#0A9EFD" points="255.5,722.1563,265.5,726.1563,255.5,730.1563,259.5,726.1563" style="stroke:#0A9EFD;stroke-width:1.0;"/><line style="stroke:#0A9EFD;stroke-width:2.0;" x1="37.5" x2="261.5" y1="726.1563" y2="726.1563"/><text fill="#0A9EFD" font-family="Arial" font-size="13" lengthAdjust="spacing" textLength="87" x="109" y="721.4014">Set own status</text><polygon fill="#0A9EFD" points="529.5,750.6797,539.5,754.6797,529.5,758.6797,533.5,754.6797" style="stroke:#0A9EFD;stroke-width:1.0;"/><line style="stroke:#0A9EFD;stroke-width:2.0;" x1="267.5" x2="535.5" y1="754.6797" y2="754.6797"/><text fill="#0A9EFD" font-family="Arial" font-size="13" lengthAdjust="spacing" textLength="75" x="367" y="749.9248">Call setState</text><polygon fill="#0A9EFD" points="255.5,779.2031,265.5,783.2031,255.5,787.2031,259.5,783.2031" style="stroke:#0A9EFD;stroke-width:1.0;"/><line style="stroke:#0A9EFD;stroke-width:2.0;" x1="37.5" x2="261.5" y1="783.2031" y2="783.2031"/><text fill="#0A9EFD" font-family="Arial" font-size="13" lengthAdjust="spacing" textLength="195" x="55" y="778.4482">Query the status of a remote user</text><polygon fill="#0A9EFD" points="278.5,807.7266,268.5,811.7266,278.5,815.7266,274.5,811.7266" style="stroke:#0A9EFD;stroke-width:1.0;"/><polygon fill="#0A9EFD" points="529.5,807.7266,539.5,811.7266,529.5,815.7266,533.5,811.7266" style="stroke:#0A9EFD;stroke-width:1.0;"/><line style="stroke:#0A9EFD;stroke-width:2.0;" x1="272.5" x2="535.5" y1="811.7266" y2="811.7266"/><text fill="#0A9EFD" font-family="Arial" font-size="13" lengthAdjust="spacing" textLength="75" x="367" y="806.9717">Call getState</text><path d="M10,833.7266 L88,833.7266 L88,840.25 L78,850.25 L10,850.25 L10,833.7266 " fill="#EEEEEE" style="stroke:#0A9EFD;stroke-width:1.5;"/><rect fill="none" height="73.5703" style="stroke:#0A9EFD;stroke-width:2.0;" width="577.5" x="10" y="833.7266"/><text fill="#000000" font-family="Arial" font-size="13" lengthAdjust="spacing" textLength="33" x="25" y="846.4951">Close</text><polygon fill="#0A9EFD" points="255.5,866.7734,265.5,870.7734,255.5,874.7734,259.5,870.7734" style="stroke:#0A9EFD;stroke-width:1.0;"/><line style="stroke:#0A9EFD;stroke-width:2.0;" x1="37.5" x2="261.5" y1="870.7734" y2="870.7734"/><text fill="#0A9EFD" font-family="Arial" font-size="13" lengthAdjust="spacing" textLength="43" x="131" y="866.0186">Log out</text><polygon fill="#0A9EFD" points="529.5,895.2969,539.5,899.2969,529.5,903.2969,533.5,899.2969" style="stroke:#0A9EFD;stroke-width:1.0;"/><line style="stroke:#0A9EFD;stroke-width:2.0;" x1="267.5" x2="535.5" y1="899.2969" y2="899.2969"/><text fill="#0A9EFD" font-family="Arial" font-size="13" lengthAdjust="spacing" textLength="114" x="347.5" y="894.542">Log out of Signaling</text><!--SRC=[TL9DRzim3BtxLt0-h-az60O4sGxP2ZIhqSE00WDZCweMXV94AVluzQCSEudQz6B08j_ZUuzyPxbrgIEOpMuFjYD_8ztk5eqF-4DsbcSsxLrLOHjzWFfHADI00e_DGrLj_1-el_iK0Fk-hdeCqRQsHuvGDzOmEii6cazV1yXYlQw8Er3K25taAM_XHipgZ371fnvMRAFLZdzKgGYu-PY9vt3V4sSPbVwT7fU1C18WoCJwcOrb0iiIaLigkXTT1_6Pe0yaf4MW0waaPoKIKoXw6uf3BoRziih7Q3r3z3lYS-Dg3dVUw3GjmCbPTZIvMK-ps4Ux7McaSFR5AnwXVKPcSWLvapRI1hkXp7zgWIT6pOmOD-wb6u6jxZ4hF_EjJgFMHU_yYM41WVPUCqowUVYfKkGzEC83YOvHganZz4VpZ4a6gmNvER87mcE-nrWncBJFYgOczJpNxQg-_J1Du6fGln85IsL4Ttwaphi2lntnLyHycA9RedDWADwpheJoNRz1EOKwKEVmS62_pfPvbaU0NAhFxsD4nPHyHlutJwNBtGwKGh7HKddgtpI1luEsCNGrZ9TxkgxjI7GXQkcyq0lJ1doAhmvOt_AGyeB_0m00]--></g></svg>