<?xml version="1.0" encoding="us-ascii" standalone="no"?><svg xmlns="http://www.w3.org/2000/svg" xmlns:xlink="http://www.w3.org/1999/xlink" contentStyleType="text/css" height="1019px" preserveAspectRatio="none" style="width:731px;height:1019px;" version="1.1" viewBox="0 0 731 1019" width="731px" zoomAndPan="magnify"><defs><style type="text/css">@import url('https://fonts.googleapis.com/css?family=Roboto:400,100,100italic,300,300italic,400italic,500,500italic,700,700italic,900,900italic');</style></defs><g><rect fill="none" height="1017.1836" style="stroke:#0A9EFD;stroke-width:1.0;" width="729.5" x="0" y="0"/><rect fill="#F3F3F3" height="1007.1836" style="stroke:#0A9EFD;stroke-width:0.5;" width="123" x="202.5" y="6"/><text fill="#0A9EFD" font-family="sans-serif" font-size="13" font-weight="bold" lengthAdjust="spacing" textLength="62" x="233" y="18.5684">Your app</text><rect fill="#F3F3F3" height="1007.1836" style="stroke:#0A9EFD;stroke-width:0.5;" width="89" x="630.5" y="6"/><text fill="#0A9EFD" font-family="sans-serif" font-size="13" font-weight="bold" lengthAdjust="spacing" textLength="41" x="654.5" y="18.5684">Agora</text><rect fill="#FFFFFF" height="283.9063" style="stroke:#0A9EFD;stroke-width:2.0;" width="715.5" x="10" y="103.4883"/><rect fill="#FFFFFF" height="201.418" style="stroke:#0A9EFD;stroke-width:2.0;" width="715.5" x="10" y="401.3945"/><rect fill="#FFFFFF" height="170.9297" style="stroke:#0A9EFD;stroke-width:2.0;" width="715.5" x="10" y="616.8125"/><rect fill="#FFFFFF" height="109.9531" style="stroke:#0A9EFD;stroke-width:2.0;" width="715.5" x="10" y="801.7422"/><line style="stroke:#0A9EFD;stroke-width:0.5;stroke-dasharray:5.0,5.0;" x1="39" x2="39" y1="86.4883" y2="928.6953"/><line style="stroke:#0A9EFD;stroke-width:0.5;stroke-dasharray:5.0,5.0;" x1="263.5" x2="263.5" y1="86.4883" y2="928.6953"/><line style="stroke:#0A9EFD;stroke-width:0.5;stroke-dasharray:5.0,5.0;" x1="674.5" x2="674.5" y1="86.4883" y2="928.6953"/><text fill="#0A9EFD" font-family="Roboto" font-size="14" font-weight="bold" lengthAdjust="spacing" textLength="32" x="20" y="83.5352">User</text><ellipse cx="39" cy="16" fill="none" rx="8" ry="8" style="stroke:#0A9EFD;stroke-width:3.0;"/><path d="M39,24 L39,51 M26,32 L52,32 M39,51 L26,66 M39,51 L52,66 " fill="none" style="stroke:#0A9EFD;stroke-width:3.0;"/><text fill="#0A9EFD" font-family="Roboto" font-size="14" font-weight="bold" lengthAdjust="spacing" textLength="32" x="20" y="941.2305">User</text><ellipse cx="39" cy="955.1836" fill="none" rx="8" ry="8" style="stroke:#0A9EFD;stroke-width:3.0;"/><path d="M39,963.1836 L39,990.1836 M26,971.1836 L52,971.1836 M39,990.1836 L26,1005.1836 M39,990.1836 L52,1005.1836 " fill="none" style="stroke:#0A9EFD;stroke-width:3.0;"/><rect fill="#FFFFFF" height="30.4883" rx="2.5" ry="2.5" style="stroke:#0A9EFD;stroke-width:2.0;" width="115" x="206.5" y="55"/><text fill="#0A9EFD" font-family="Roboto" font-size="14" font-weight="bold" lengthAdjust="spacing" textLength="101" x="213.5" y="75.5352">Signaling SDK</text><rect fill="#FFFFFF" height="30.4883" rx="2.5" ry="2.5" style="stroke:#0A9EFD;stroke-width:2.0;" width="115" x="206.5" y="927.6953"/><text fill="#0A9EFD" font-family="Roboto" font-size="14" font-weight="bold" lengthAdjust="spacing" textLength="101" x="213.5" y="948.2305">Signaling SDK</text><rect fill="#FFFFFF" height="30.4883" rx="2.5" ry="2.5" style="stroke:#0A9EFD;stroke-width:2.0;" width="81" x="634.5" y="55"/><text fill="#0A9EFD" font-family="Roboto" font-size="14" font-weight="bold" lengthAdjust="spacing" textLength="67" x="641.5" y="75.5352">Signaling</text><rect fill="#FFFFFF" height="30.4883" rx="2.5" ry="2.5" style="stroke:#0A9EFD;stroke-width:2.0;" width="81" x="634.5" y="927.6953"/><text fill="#0A9EFD" font-family="Roboto" font-size="14" font-weight="bold" lengthAdjust="spacing" textLength="67" x="641.5" y="948.2305">Signaling</text><path d="M10,103.4883 L119,103.4883 L119,111.9766 L109,121.9766 L10,121.9766 L10,103.4883 " fill="#EEEEEE" style="stroke:#0A9EFD;stroke-width:1.5;"/><rect fill="none" height="283.9063" style="stroke:#0A9EFD;stroke-width:2.0;" width="715.5" x="10" y="103.4883"/><text fill="#0A9EFD" font-family="Roboto" font-size="14" font-weight="bold" lengthAdjust="spacing" textLength="64" x="25" y="118.0234">Initialize</text><polygon fill="#0A9EFD" points="252,140.4648,262,144.4648,252,148.4648,256,144.4648" style="stroke:#0A9EFD;stroke-width:1.0;"/><line style="stroke:#0A9EFD;stroke-width:2.0;" x1="39" x2="258" y1="144.4648" y2="144.4648"/><text fill="#0A9EFD" font-family="Roboto" font-size="14" font-weight="bold" lengthAdjust="spacing" textLength="69" x="117" y="139.5117">Open app</text><line style="stroke:#0A9EFD;stroke-width:2.0;" x1="264" x2="306" y1="174.9531" y2="174.9531"/><line style="stroke:#0A9EFD;stroke-width:2.0;" x1="306" x2="306" y1="174.9531" y2="187.9531"/><line style="stroke:#0A9EFD;stroke-width:2.0;" x1="265" x2="306" y1="187.9531" y2="187.9531"/><polygon fill="#0A9EFD" points="275,183.9531,265,187.9531,275,191.9531,271,187.9531" style="stroke:#0A9EFD;stroke-width:1.0;"/><text fill="#0A9EFD" font-family="Roboto" font-size="14" font-weight="bold" lengthAdjust="spacing" textLength="176" x="271" y="170">Create a Signaling client</text><line style="stroke:#0A9EFD;stroke-width:2.0;" x1="264" x2="306" y1="218.4414" y2="218.4414"/><line style="stroke:#0A9EFD;stroke-width:2.0;" x1="306" x2="306" y1="218.4414" y2="231.4414"/><line style="stroke:#0A9EFD;stroke-width:2.0;" x1="265" x2="306" y1="231.4414" y2="231.4414"/><polygon fill="#0A9EFD" points="275,227.4414,265,231.4414,275,235.4414,271,231.4414" style="stroke:#0A9EFD;stroke-width:1.0;"/><text fill="#0A9EFD" font-family="Roboto" font-size="14" font-weight="bold" lengthAdjust="spacing" textLength="188" x="271" y="213.4883">Add client event callbacks</text><line style="stroke:#0A9EFD;stroke-width:2.0;" x1="264" x2="306" y1="261.9297" y2="261.9297"/><line style="stroke:#0A9EFD;stroke-width:2.0;" x1="306" x2="306" y1="261.9297" y2="274.9297"/><line style="stroke:#0A9EFD;stroke-width:2.0;" x1="265" x2="306" y1="274.9297" y2="274.9297"/><polygon fill="#0A9EFD" points="275,270.9297,265,274.9297,275,278.9297,271,274.9297" style="stroke:#0A9EFD;stroke-width:1.0;"/><text fill="#0A9EFD" font-family="Roboto" font-size="14" font-weight="bold" lengthAdjust="spacing" textLength="191" x="271" y="256.9766">Create a Signaling channel</text><line style="stroke:#0A9EFD;stroke-width:2.0;" x1="264" x2="306" y1="305.418" y2="305.418"/><line style="stroke:#0A9EFD;stroke-width:2.0;" x1="306" x2="306" y1="305.418" y2="318.418"/><line style="stroke:#0A9EFD;stroke-width:2.0;" x1="265" x2="306" y1="318.418" y2="318.418"/><polygon fill="#0A9EFD" points="275,314.418,265,318.418,275,322.418,271,318.418" style="stroke:#0A9EFD;stroke-width:1.0;"/><text fill="#0A9EFD" font-family="Roboto" font-size="14" font-weight="bold" lengthAdjust="spacing" textLength="203" x="271" y="300.4648">Add channel event callbacks</text><polygon fill="#0A9EFD" points="663,344.9063,673,348.9063,663,352.9063,667,348.9063" style="stroke:#0A9EFD;stroke-width:1.0;"/><line style="stroke:#0A9EFD;stroke-width:2.0;" x1="264" x2="669" y1="348.9063" y2="348.9063"/><text fill="#0A9EFD" font-family="Roboto" font-size="14" font-weight="bold" lengthAdjust="spacing" textLength="137" x="401" y="343.9531">Log in to Signaling</text><polygon fill="#0A9EFD" points="663,375.3945,673,379.3945,663,383.3945,667,379.3945" style="stroke:#0A9EFD;stroke-width:1.0;"/><line style="stroke:#0A9EFD;stroke-width:2.0;" x1="264" x2="669" y1="379.3945" y2="379.3945"/><text fill="#0A9EFD" font-family="Roboto" font-size="14" font-weight="bold" lengthAdjust="spacing" textLength="102" x="418.5" y="374.4414">Join a channel</text><path d="M10,401.3945 L271,401.3945 L271,409.8828 L261,419.8828 L10,419.8828 L10,401.3945 " fill="#EEEEEE" style="stroke:#0A9EFD;stroke-width:1.5;"/><rect fill="none" height="201.418" style="stroke:#0A9EFD;stroke-width:2.0;" width="715.5" x="10" y="401.3945"/><text fill="#0A9EFD" font-family="Roboto" font-size="14" font-weight="bold" lengthAdjust="spacing" textLength="216" x="25" y="415.9297">Read and write user metadata</text><polygon fill="#0A9EFD" points="663,438.3711,673,442.3711,663,446.3711,667,442.3711" style="stroke:#0A9EFD;stroke-width:1.0;"/><line style="stroke:#0A9EFD;stroke-width:2.0;" x1="264" x2="669" y1="442.3711" y2="442.3711"/><text fill="#0A9EFD" font-family="Roboto" font-size="14" font-weight="bold" lengthAdjust="spacing" textLength="169" x="385" y="437.418">Set local user metadata</text><polygon fill="#0A9EFD" points="252,468.8594,262,472.8594,252,476.8594,256,472.8594" style="stroke:#0A9EFD;stroke-width:1.0;"/><line style="stroke:#0A9EFD;stroke-width:2.0;" x1="39" x2="258" y1="472.8594" y2="472.8594"/><text fill="#0A9EFD" font-family="Roboto" font-size="14" font-weight="bold" lengthAdjust="spacing" textLength="180" x="61.5" y="467.9063">Change user information</text><polygon fill="#0A9EFD" points="663,499.3477,673,503.3477,663,507.3477,667,503.3477" style="stroke:#0A9EFD;stroke-width:1.0;"/><line style="stroke:#0A9EFD;stroke-width:2.0;" x1="264" x2="669" y1="503.3477" y2="503.3477"/><text fill="#0A9EFD" font-family="Roboto" font-size="14" font-weight="bold" lengthAdjust="spacing" textLength="304" x="317.5" y="498.3945">Add, update, or delete local user metadata</text><polygon fill="#0A9EFD" points="663,529.8359,673,533.8359,663,537.8359,667,533.8359" style="stroke:#0A9EFD;stroke-width:1.0;"/><line style="stroke:#0A9EFD;stroke-width:2.0;" x1="264" x2="669" y1="533.8359" y2="533.8359"/><text fill="#0A9EFD" font-family="Roboto" font-size="14" font-weight="bold" lengthAdjust="spacing" textLength="281" x="329" y="528.8828">Subscribe to metadata of remote users</text><polygon fill="#0A9EFD" points="275,560.3242,265,564.3242,275,568.3242,271,564.3242" style="stroke:#0A9EFD;stroke-width:1.0;"/><line style="stroke:#0A9EFD;stroke-width:2.0;" x1="269" x2="674" y1="564.3242" y2="564.3242"/><text fill="#0A9EFD" font-family="Roboto" font-size="14" font-weight="bold" lengthAdjust="spacing" textLength="255" x="342" y="559.3711">On user metadata updated callback</text><polygon fill="#0A9EFD" points="275,590.8125,265,594.8125,275,598.8125,271,594.8125" style="stroke:#0A9EFD;stroke-width:1.0;"/><line style="stroke:#0A9EFD;stroke-width:2.0;" x1="269" x2="674" y1="594.8125" y2="594.8125"/><text fill="#0A9EFD" font-family="Roboto" font-size="14" font-weight="bold" lengthAdjust="spacing" textLength="256" x="341.5" y="589.8594">Retrieve metadata of a remote user</text><path d="M10,616.8125 L295,616.8125 L295,625.3008 L285,635.3008 L10,635.3008 L10,616.8125 " fill="#EEEEEE" style="stroke:#0A9EFD;stroke-width:1.5;"/><rect fill="none" height="170.9297" style="stroke:#0A9EFD;stroke-width:2.0;" width="715.5" x="10" y="616.8125"/><text fill="#0A9EFD" font-family="Roboto" font-size="14" font-weight="bold" lengthAdjust="spacing" textLength="240" x="25" y="631.3477">Read and write channel metadata</text><polygon fill="#0A9EFD" points="663,653.7891,673,657.7891,663,661.7891,667,657.7891" style="stroke:#0A9EFD;stroke-width:1.0;"/><line style="stroke:#0A9EFD;stroke-width:2.0;" x1="264" x2="669" y1="657.7891" y2="657.7891"/><text fill="#0A9EFD" font-family="Roboto" font-size="14" font-weight="bold" lengthAdjust="spacing" textLength="154" x="392.5" y="652.8359">Set channel metadata</text><polygon fill="#0A9EFD" points="252,684.2773,262,688.2773,252,692.2773,256,688.2773" style="stroke:#0A9EFD;stroke-width:1.0;"/><line style="stroke:#0A9EFD;stroke-width:2.0;" x1="39" x2="258" y1="688.2773" y2="688.2773"/><text fill="#0A9EFD" font-family="Roboto" font-size="14" font-weight="bold" lengthAdjust="spacing" textLength="201" x="51" y="683.3242">Update channel information</text><polygon fill="#0A9EFD" points="663,714.7656,673,718.7656,663,722.7656,667,718.7656" style="stroke:#0A9EFD;stroke-width:1.0;"/><line style="stroke:#0A9EFD;stroke-width:2.0;" x1="264" x2="669" y1="718.7656" y2="718.7656"/><text fill="#0A9EFD" font-family="Roboto" font-size="14" font-weight="bold" lengthAdjust="spacing" textLength="289" x="325" y="713.8125">Add, update, or delete channel metadata</text><polygon fill="#0A9EFD" points="275,745.2539,265,749.2539,275,753.2539,271,749.2539" style="stroke:#0A9EFD;stroke-width:1.0;"/><line style="stroke:#0A9EFD;stroke-width:2.0;" x1="269" x2="674" y1="749.2539" y2="749.2539"/><text fill="#0A9EFD" font-family="Roboto" font-size="14" font-weight="bold" lengthAdjust="spacing" textLength="279" x="330" y="744.3008">On channel metadata updated callback</text><polygon fill="#0A9EFD" points="275,775.7422,265,779.7422,275,783.7422,271,779.7422" style="stroke:#0A9EFD;stroke-width:1.0;"/><line style="stroke:#0A9EFD;stroke-width:2.0;" x1="269" x2="674" y1="779.7422" y2="779.7422"/><text fill="#0A9EFD" font-family="Roboto" font-size="14" font-weight="bold" lengthAdjust="spacing" textLength="191" x="374" y="774.7891">Retrieve channel metadata</text><path d="M10,801.7422 L95,801.7422 L95,810.2305 L85,820.2305 L10,820.2305 L10,801.7422 " fill="#EEEEEE" style="stroke:#0A9EFD;stroke-width:1.5;"/><rect fill="none" height="109.9531" style="stroke:#0A9EFD;stroke-width:2.0;" width="715.5" x="10" y="801.7422"/><text fill="#0A9EFD" font-family="Roboto" font-size="14" font-weight="bold" lengthAdjust="spacing" textLength="40" x="25" y="816.2773">Close</text><polygon fill="#0A9EFD" points="252,838.7188,262,842.7188,252,846.7188,256,842.7188" style="stroke:#0A9EFD;stroke-width:1.0;"/><line style="stroke:#0A9EFD;stroke-width:2.0;" x1="39" x2="258" y1="842.7188" y2="842.7188"/><text fill="#0A9EFD" font-family="Roboto" font-size="14" font-weight="bold" lengthAdjust="spacing" textLength="128" x="87.5" y="837.7656">Leave the channel</text><polygon fill="#0A9EFD" points="663,869.207,673,873.207,663,877.207,667,873.207" style="stroke:#0A9EFD;stroke-width:1.0;"/><line style="stroke:#0A9EFD;stroke-width:2.0;" x1="264" x2="669" y1="873.207" y2="873.207"/><text fill="#0A9EFD" font-family="Roboto" font-size="14" font-weight="bold" lengthAdjust="spacing" textLength="387" x="276" y="868.2539">Unsubscribe from user metadata update notifications</text><polygon fill="#0A9EFD" points="663,899.6953,673,903.6953,663,907.6953,667,903.6953" style="stroke:#0A9EFD;stroke-width:1.0;"/><line style="stroke:#0A9EFD;stroke-width:2.0;" x1="264" x2="669" y1="903.6953" y2="903.6953"/><text fill="#0A9EFD" font-family="Roboto" font-size="14" font-weight="bold" lengthAdjust="spacing" textLength="147" x="396" y="898.7422">Log out of Signaling</text><!--SRC=[bPDDRzim38Rl_XMSpqrwBuO1GNR9Lg15WXns6XYBSOd8f27BRR5VFpfn7AjEzd4n88dlG_8b_OcbyAqZcC_lNzcHpXftkCTI0_vi3YnpRYkVPLX43P1l6mevO0FRpJhBTleE-Gzj0s1TvrcD8NB1DKg4VCEbe6SfOVFr-r6oU7xEI1oOgfSkkYotTBrcTT6KGTiQLiAHBU8NPLO4pBvqu0TugacwCZ8x3PVBG1W942xL59v9OXArSAw_1dhjlWLwlyFYqFmLze8YvAUqq_rjtEe17hK45eXwuINltzHUSKXXBfmTM1CwG7FbBR0LrDfCeAA83YCcY0r5y6hfFyICVLiQl-mXB7iD5KPMIJZMqXsqjMdf3cmD77conDVGIVfsrnI1TzGrUOu0tKEWIll2JvvydfqKJvBY-gHki329NbCCR1OdR1pJ_-3QUKGtZPi4Z5tR7kiQOlxJkAkvHnvyVFz76oROKVTBhqtwmpmIcYQ-q7IB3RgLPfZUFcXrTIuW6ddFnR7nwNPh6xk9NDQxg-St]--></g></svg>