<?xml version="1.0" encoding="UTF-8" standalone="no"?><svg xmlns="http://www.w3.org/2000/svg" xmlns:xlink="http://www.w3.org/1999/xlink" contentStyleType="text/css" height="1141px" preserveAspectRatio="none" style="width:661px;height:1141px;" version="1.1" viewBox="0 0 661 1141" width="661px" zoomAndPan="magnify"><defs/><g><rect fill="none" height="1139.5078" style="stroke:#0A9EFD;stroke-width:1.0;" width="659.5" x="0" y="0"/><rect fill="#999999" fill-opacity="0.33333" height="1129.5078" style="stroke:#0A9EFD;stroke-width:0.5;" width="112" x="225.5" y="6"/><text fill="#0A9EFD" font-family="sans-serif" font-size="13" font-weight="bold" lengthAdjust="spacing" textLength="57" x="253" y="20.0283">Your app</text><rect fill="#999999" fill-opacity="0.33333" height="1129.5078" style="stroke:#0A9EFD;stroke-width:0.5;" width="80" x="569.5" y="6"/><text fill="#0A9EFD" font-family="sans-serif" font-size="13" font-weight="bold" lengthAdjust="spacing" textLength="38" x="590.5" y="20.0283">Agora</text><rect fill="#0A9EFD" fill-opacity="0.06667" height="268.1875" style="stroke:#0A9EFD;stroke-width:2.0;" width="645.5" x="10" y="102.6406"/><rect fill="#0A9EFD" fill-opacity="0.06667" height="187.6641" style="stroke:#0A9EFD;stroke-width:2.0;" width="645.5" x="10" y="384.8281"/><rect fill="#0A9EFD" fill-opacity="0.06667" height="159.1406" style="stroke:#0A9EFD;stroke-width:2.0;" width="645.5" x="10" y="586.4922"/><rect fill="#0A9EFD" fill-opacity="0.06667" height="130.6172" style="stroke:#0A9EFD;stroke-width:2.0;" width="645.5" x="10" y="759.6328"/><rect fill="#0A9EFD" fill-opacity="0.06667" height="130.6172" style="stroke:#0A9EFD;stroke-width:2.0;" width="645.5" x="10" y="904.25"/><line style="stroke:#0A9EFD;stroke-width:0.5;stroke-dasharray:5.0,5.0;" x1="37" x2="37" y1="85.6406" y2="1051.8672"/><line style="stroke:#0A9EFD;stroke-width:0.5;stroke-dasharray:5.0,5.0;" x1="281.5" x2="281.5" y1="85.6406" y2="1051.8672"/><line style="stroke:#0A9EFD;stroke-width:0.5;stroke-dasharray:5.0,5.0;" x1="609.5" x2="609.5" y1="85.6406" y2="1051.8672"/><text fill="#0A9EFD" font-family="Arial" font-size="14" lengthAdjust="spacing" textLength="29" x="20" y="82.6738">User</text><ellipse cx="37.5" cy="16" fill="none" rx="8" ry="8" style="stroke:#0A9EFD;stroke-width:3.0;"/><path d="M37.5,24 L37.5,51 M24.5,32 L50.5,32 M37.5,51 L24.5,66 M37.5,51 L50.5,66 " fill="none" style="stroke:#0A9EFD;stroke-width:3.0;"/><text fill="#0A9EFD" font-family="Arial" font-size="14" lengthAdjust="spacing" textLength="29" x="20" y="1063.541">User</text><ellipse cx="37.5" cy="1077.5078" fill="none" rx="8" ry="8" style="stroke:#0A9EFD;stroke-width:3.0;"/><path d="M37.5,1085.5078 L37.5,1112.5078 M24.5,1093.5078 L50.5,1093.5078 M37.5,1112.5078 L24.5,1127.5078 M37.5,1112.5078 L50.5,1127.5078 " fill="none" style="stroke:#0A9EFD;stroke-width:3.0;"/><rect fill="none" height="29.6406" rx="2.5" ry="2.5" style="stroke:#0A9EFD;stroke-width:2.0;" width="104" x="229.5" y="55"/><text fill="#0A9EFD" font-family="Arial" font-size="14" lengthAdjust="spacing" textLength="90" x="236.5" y="74.6738">Signaling SDK</text><rect fill="none" height="29.6406" rx="2.5" ry="2.5" style="stroke:#0A9EFD;stroke-width:2.0;" width="104" x="229.5" y="1050.8672"/><text fill="#0A9EFD" font-family="Arial" font-size="14" lengthAdjust="spacing" textLength="90" x="236.5" y="1070.541">Signaling SDK</text><rect fill="none" height="29.6406" rx="2.5" ry="2.5" style="stroke:#0A9EFD;stroke-width:2.0;" width="72" x="573.5" y="55"/><text fill="#0A9EFD" font-family="Arial" font-size="14" lengthAdjust="spacing" textLength="58" x="580.5" y="74.6738">Signaling</text><rect fill="none" height="29.6406" rx="2.5" ry="2.5" style="stroke:#0A9EFD;stroke-width:2.0;" width="72" x="573.5" y="1050.8672"/><text fill="#0A9EFD" font-family="Arial" font-size="14" lengthAdjust="spacing" textLength="58" x="580.5" y="1070.541">Signaling</text><path d="M10,102.6406 L102,102.6406 L102,109.1641 L92,119.1641 L10,119.1641 L10,102.6406 " fill="#EEEEEE" style="stroke:#0A9EFD;stroke-width:1.5;"/><rect fill="none" height="268.1875" style="stroke:#0A9EFD;stroke-width:2.0;" width="645.5" x="10" y="102.6406"/><text fill="#000000" font-family="Arial" font-size="13" lengthAdjust="spacing" textLength="47" x="25" y="115.4092">Initialize</text><polygon fill="#0A9EFD" points="269.5,135.6875,279.5,139.6875,269.5,143.6875,273.5,139.6875" style="stroke:#0A9EFD;stroke-width:1.0;"/><line style="stroke:#0A9EFD;stroke-width:2.0;" x1="37.5" x2="275.5" y1="139.6875" y2="139.6875"/><text fill="#0A9EFD" font-family="Arial" font-size="13" lengthAdjust="spacing" textLength="56" x="131.5" y="134.9326">Open app</text><line style="stroke:#0A9EFD;stroke-width:2.0;" x1="281.5" x2="323.5" y1="168.2109" y2="168.2109"/><line style="stroke:#0A9EFD;stroke-width:2.0;" x1="323.5" x2="323.5" y1="168.2109" y2="181.2109"/><line style="stroke:#0A9EFD;stroke-width:2.0;" x1="282.5" x2="323.5" y1="181.2109" y2="181.2109"/><polygon fill="#0A9EFD" points="292.5,177.2109,282.5,181.2109,292.5,185.2109,288.5,181.2109" style="stroke:#0A9EFD;stroke-width:1.0;"/><text fill="#0A9EFD" font-family="Arial" font-size="13" lengthAdjust="spacing" textLength="141" x="288.5" y="163.4561">Create a Signaling client</text><line style="stroke:#0A9EFD;stroke-width:2.0;" x1="281.5" x2="323.5" y1="209.7344" y2="209.7344"/><line style="stroke:#0A9EFD;stroke-width:2.0;" x1="323.5" x2="323.5" y1="209.7344" y2="222.7344"/><line style="stroke:#0A9EFD;stroke-width:2.0;" x1="282.5" x2="323.5" y1="222.7344" y2="222.7344"/><polygon fill="#0A9EFD" points="292.5,218.7344,282.5,222.7344,292.5,226.7344,288.5,222.7344" style="stroke:#0A9EFD;stroke-width:1.0;"/><text fill="#0A9EFD" font-family="Arial" font-size="13" lengthAdjust="spacing" textLength="151" x="288.5" y="204.9795">Add client event callbacks</text><line style="stroke:#0A9EFD;stroke-width:2.0;" x1="281.5" x2="323.5" y1="251.2578" y2="251.2578"/><line style="stroke:#0A9EFD;stroke-width:2.0;" x1="323.5" x2="323.5" y1="251.2578" y2="264.2578"/><line style="stroke:#0A9EFD;stroke-width:2.0;" x1="282.5" x2="323.5" y1="264.2578" y2="264.2578"/><polygon fill="#0A9EFD" points="292.5,260.2578,282.5,264.2578,292.5,268.2578,288.5,264.2578" style="stroke:#0A9EFD;stroke-width:1.0;"/><text fill="#0A9EFD" font-family="Arial" font-size="13" lengthAdjust="spacing" textLength="155" x="288.5" y="246.5029">Create a Signaling channel</text><line style="stroke:#0A9EFD;stroke-width:2.0;" x1="281.5" x2="323.5" y1="292.7813" y2="292.7813"/><line style="stroke:#0A9EFD;stroke-width:2.0;" x1="323.5" x2="323.5" y1="292.7813" y2="305.7813"/><line style="stroke:#0A9EFD;stroke-width:2.0;" x1="282.5" x2="323.5" y1="305.7813" y2="305.7813"/><polygon fill="#0A9EFD" points="292.5,301.7813,282.5,305.7813,292.5,309.7813,288.5,305.7813" style="stroke:#0A9EFD;stroke-width:1.0;"/><text fill="#0A9EFD" font-family="Arial" font-size="13" lengthAdjust="spacing" textLength="165" x="288.5" y="288.0264">Add channel event callbacks</text><polygon fill="#0A9EFD" points="597.5,330.3047,607.5,334.3047,597.5,338.3047,601.5,334.3047" style="stroke:#0A9EFD;stroke-width:1.0;"/><line style="stroke:#0A9EFD;stroke-width:2.0;" x1="281.5" x2="603.5" y1="334.3047" y2="334.3047"/><text fill="#0A9EFD" font-family="Arial" font-size="13" lengthAdjust="spacing" textLength="107" x="392" y="329.5498">Log in to Signaling</text><polygon fill="#0A9EFD" points="597.5,358.8281,607.5,362.8281,597.5,366.8281,601.5,362.8281" style="stroke:#0A9EFD;stroke-width:1.0;"/><line style="stroke:#0A9EFD;stroke-width:2.0;" x1="281.5" x2="603.5" y1="362.8281" y2="362.8281"/><text fill="#0A9EFD" font-family="Arial" font-size="13" lengthAdjust="spacing" textLength="83" x="404" y="358.0732">Join a channel</text><path d="M10,384.8281 L228,384.8281 L228,391.3516 L218,401.3516 L10,401.3516 L10,384.8281 " fill="#EEEEEE" style="stroke:#0A9EFD;stroke-width:1.5;"/><rect fill="none" height="187.6641" style="stroke:#0A9EFD;stroke-width:2.0;" width="645.5" x="10" y="384.8281"/><text fill="#000000" font-family="Arial" font-size="13" lengthAdjust="spacing" textLength="173" x="25" y="397.5967">Read and write user metadata</text><polygon fill="#0A9EFD" points="597.5,417.875,607.5,421.875,597.5,425.875,601.5,421.875" style="stroke:#0A9EFD;stroke-width:1.0;"/><line style="stroke:#0A9EFD;stroke-width:2.0;" x1="281.5" x2="603.5" y1="421.875" y2="421.875"/><text fill="#0A9EFD" font-family="Arial" font-size="13" lengthAdjust="spacing" textLength="138" x="376.5" y="417.1201">Set local user metadata</text><polygon fill="#0A9EFD" points="269.5,446.3984,279.5,450.3984,269.5,454.3984,273.5,450.3984" style="stroke:#0A9EFD;stroke-width:1.0;"/><line style="stroke:#0A9EFD;stroke-width:2.0;" x1="37.5" x2="275.5" y1="450.3984" y2="450.3984"/><text fill="#0A9EFD" font-family="Arial" font-size="13" lengthAdjust="spacing" textLength="140" x="89.5" y="445.6436">Change user information</text><polygon fill="#0A9EFD" points="597.5,474.9219,607.5,478.9219,597.5,482.9219,601.5,478.9219" style="stroke:#0A9EFD;stroke-width:1.0;"/><line style="stroke:#0A9EFD;stroke-width:2.0;" x1="281.5" x2="603.5" y1="478.9219" y2="478.9219"/><text fill="#0A9EFD" font-family="Arial" font-size="13" lengthAdjust="spacing" textLength="246" x="322.5" y="474.167">Add, update, or delete local user metadata</text><polygon fill="#0A9EFD" points="597.5,503.4453,607.5,507.4453,597.5,511.4453,601.5,507.4453" style="stroke:#0A9EFD;stroke-width:1.0;"/><line style="stroke:#0A9EFD;stroke-width:2.0;" x1="281.5" x2="603.5" y1="507.4453" y2="507.4453"/><text fill="#0A9EFD" font-family="Arial" font-size="13" lengthAdjust="spacing" textLength="225" x="333" y="502.6904">Subscribe to metadata of remote users</text><polygon fill="#0A9EFD" points="292.5,531.9688,282.5,535.9688,292.5,539.9688,288.5,535.9688" style="stroke:#0A9EFD;stroke-width:1.0;"/><line style="stroke:#0A9EFD;stroke-width:2.0;" x1="286.5" x2="608.5" y1="535.9688" y2="535.9688"/><text fill="#0A9EFD" font-family="Arial" font-size="13" lengthAdjust="spacing" textLength="206" x="342.5" y="531.2139">On user metadata updated callback</text><polygon fill="#0A9EFD" points="292.5,560.4922,282.5,564.4922,292.5,568.4922,288.5,564.4922" style="stroke:#0A9EFD;stroke-width:1.0;"/><line style="stroke:#0A9EFD;stroke-width:2.0;" x1="286.5" x2="608.5" y1="564.4922" y2="564.4922"/><text fill="#0A9EFD" font-family="Arial" font-size="13" lengthAdjust="spacing" textLength="202" x="344.5" y="559.7373">Retrieve metadata of a remote user</text><path d="M10,586.4922 L248,586.4922 L248,593.0156 L238,603.0156 L10,603.0156 L10,586.4922 " fill="#EEEEEE" style="stroke:#0A9EFD;stroke-width:1.5;"/><rect fill="none" height="159.1406" style="stroke:#0A9EFD;stroke-width:2.0;" width="645.5" x="10" y="586.4922"/><text fill="#000000" font-family="Arial" font-size="13" lengthAdjust="spacing" textLength="193" x="25" y="599.2607">Read and write channel metadata</text><polygon fill="#0A9EFD" points="597.5,619.5391,607.5,623.5391,597.5,627.5391,601.5,623.5391" style="stroke:#0A9EFD;stroke-width:1.0;"/><line style="stroke:#0A9EFD;stroke-width:2.0;" x1="281.5" x2="603.5" y1="623.5391" y2="623.5391"/><text fill="#0A9EFD" font-family="Arial" font-size="13" lengthAdjust="spacing" textLength="127" x="382" y="618.7842">Set channel metadata</text><polygon fill="#0A9EFD" points="269.5,648.0625,279.5,652.0625,269.5,656.0625,273.5,652.0625" style="stroke:#0A9EFD;stroke-width:1.0;"/><line style="stroke:#0A9EFD;stroke-width:2.0;" x1="37.5" x2="275.5" y1="652.0625" y2="652.0625"/><text fill="#0A9EFD" font-family="Arial" font-size="13" lengthAdjust="spacing" textLength="157" x="81" y="647.3076">Update channel information</text><polygon fill="#0A9EFD" points="597.5,676.5859,607.5,680.5859,597.5,684.5859,601.5,680.5859" style="stroke:#0A9EFD;stroke-width:1.0;"/><line style="stroke:#0A9EFD;stroke-width:2.0;" x1="281.5" x2="603.5" y1="680.5859" y2="680.5859"/><text fill="#0A9EFD" font-family="Arial" font-size="13" lengthAdjust="spacing" textLength="235" x="328" y="675.8311">Add, update, or delete channel metadata</text><polygon fill="#0A9EFD" points="292.5,705.1094,282.5,709.1094,292.5,713.1094,288.5,709.1094" style="stroke:#0A9EFD;stroke-width:1.0;"/><line style="stroke:#0A9EFD;stroke-width:2.0;" x1="286.5" x2="608.5" y1="709.1094" y2="709.1094"/><text fill="#0A9EFD" font-family="Arial" font-size="13" lengthAdjust="spacing" textLength="226" x="332.5" y="704.3545">On channel metadata updated callback</text><polygon fill="#0A9EFD" points="292.5,733.6328,282.5,737.6328,292.5,741.6328,288.5,737.6328" style="stroke:#0A9EFD;stroke-width:1.0;"/><line style="stroke:#0A9EFD;stroke-width:2.0;" x1="286.5" x2="608.5" y1="737.6328" y2="737.6328"/><text fill="#0A9EFD" font-family="Arial" font-size="13" lengthAdjust="spacing" textLength="153" x="369" y="732.8779">Retrieve channel metadata</text><path d="M10,759.6328 L113,759.6328 L113,766.1563 L103,776.1563 L10,776.1563 L10,759.6328 " fill="#EEEEEE" style="stroke:#0A9EFD;stroke-width:1.5;"/><rect fill="none" height="130.6172" style="stroke:#0A9EFD;stroke-width:2.0;" width="645.5" x="10" y="759.6328"/><text fill="#000000" font-family="Arial" font-size="13" lengthAdjust="spacing" textLength="58" x="25" y="772.4014">Use locks</text><polygon fill="#0A9EFD" points="597.5,792.6797,607.5,796.6797,597.5,800.6797,601.5,796.6797" style="stroke:#0A9EFD;stroke-width:1.0;"/><line style="stroke:#0A9EFD;stroke-width:2.0;" x1="281.5" x2="603.5" y1="796.6797" y2="796.6797"/><text fill="#0A9EFD" font-family="Arial" font-size="13" lengthAdjust="spacing" textLength="59" x="416" y="791.9248">Set a lock</text><polygon fill="#0A9EFD" points="269.5,821.2031,279.5,825.2031,269.5,829.2031,273.5,825.2031" style="stroke:#0A9EFD;stroke-width:1.0;"/><line style="stroke:#0A9EFD;stroke-width:2.0;" x1="37.5" x2="275.5" y1="825.2031" y2="825.2031"/><text fill="#0A9EFD" font-family="Arial" font-size="13" lengthAdjust="spacing" textLength="220" x="49.5" y="820.4482">Update channel metadata with locking</text><polygon fill="#0A9EFD" points="597.5,849.7266,607.5,853.7266,597.5,857.7266,601.5,853.7266" style="stroke:#0A9EFD;stroke-width:1.0;"/><line style="stroke:#0A9EFD;stroke-width:2.0;" x1="281.5" x2="603.5" y1="853.7266" y2="853.7266"/><text fill="#0A9EFD" font-family="Arial" font-size="13" lengthAdjust="spacing" textLength="94" x="398.5" y="848.9717">Acquire the lock</text><polygon fill="#0A9EFD" points="597.5,878.25,607.5,882.25,597.5,886.25,601.5,882.25" style="stroke:#0A9EFD;stroke-width:1.0;"/><line style="stroke:#0A9EFD;stroke-width:2.0;" x1="281.5" x2="603.5" y1="882.25" y2="882.25"/><text fill="#0A9EFD" font-family="Arial" font-size="13" lengthAdjust="spacing" textLength="274" x="308.5" y="877.4951">Specify the lock name when updating metadata</text><path d="M10,904.25 L88,904.25 L88,910.7734 L78,920.7734 L10,920.7734 L10,904.25 " fill="#EEEEEE" style="stroke:#0A9EFD;stroke-width:1.5;"/><rect fill="none" height="130.6172" style="stroke:#0A9EFD;stroke-width:2.0;" width="645.5" x="10" y="904.25"/><text fill="#000000" font-family="Arial" font-size="13" lengthAdjust="spacing" textLength="33" x="25" y="917.0186">Close</text><polygon fill="#0A9EFD" points="269.5,937.2969,279.5,941.2969,269.5,945.2969,273.5,941.2969" style="stroke:#0A9EFD;stroke-width:1.0;"/><line style="stroke:#0A9EFD;stroke-width:2.0;" x1="37.5" x2="275.5" y1="941.2969" y2="941.2969"/><text fill="#0A9EFD" font-family="Arial" font-size="13" lengthAdjust="spacing" textLength="104" x="107.5" y="936.542">Leave the channel</text><polygon fill="#0A9EFD" points="597.5,965.8203,607.5,969.8203,597.5,973.8203,601.5,969.8203" style="stroke:#0A9EFD;stroke-width:1.0;"/><line style="stroke:#0A9EFD;stroke-width:2.0;" x1="281.5" x2="603.5" y1="969.8203" y2="969.8203"/><text fill="#0A9EFD" font-family="Arial" font-size="13" lengthAdjust="spacing" textLength="82" x="404.5" y="965.0654">Release locks</text><polygon fill="#0A9EFD" points="597.5,994.3438,607.5,998.3438,597.5,1002.3438,601.5,998.3438" style="stroke:#0A9EFD;stroke-width:1.0;"/><line style="stroke:#0A9EFD;stroke-width:2.0;" x1="281.5" x2="603.5" y1="998.3438" y2="998.3438"/><text fill="#0A9EFD" font-family="Arial" font-size="13" lengthAdjust="spacing" textLength="304" x="293.5" y="993.5889">Unsubscribe from user metadata update notifications</text><polygon fill="#0A9EFD" points="597.5,1022.8672,607.5,1026.8672,597.5,1030.8672,601.5,1026.8672" style="stroke:#0A9EFD;stroke-width:1.0;"/><line style="stroke:#0A9EFD;stroke-width:2.0;" x1="281.5" x2="603.5" y1="1026.8672" y2="1026.8672"/><text fill="#0A9EFD" font-family="Arial" font-size="13" lengthAdjust="spacing" textLength="114" x="388.5" y="1022.1123">Log out of Signaling</text><!--SRC=[bLF1Rjim3BtxArYVc_HU30E2z9ArG8i4EUmqC1Bj494bLvQJTby_oNOSAtQwxMB08ldUuoDvnrgeMXBCvmz7bcHcbJmyO6ui_geEhETS5of9K3XZ8TrMP5F02hQRTPBip0UaFqrj0SioJKgqZWMNg1sa6yurAjOvR9wUcvB5srj2MeAlwaeNWULMNLUpkjJarjGbh3GxzXc_AV4YOFOz03_2Qqawo4ZyN_-uj8IE0E6YHYWcxQAiXPJTCz0nV0KgjKDngFuAjaUjIOtHslVRSAj7U34vi0PdBdXH_8VnKUmfl0jd1zQ44j2xShBi1TL-9b2GGuaE8uWDEL36qr_b37rRUloy0s6T6LkWOwCZ7D_IFTIbhwLxy6iWIP4ddeAEwEjT9IplA3HvpW2JWQN2TC9RJxxDsefN7SDrfBAtCCfUaxFiBOwmSOZ-XMld4TqqRfGmT6tRwEfp_jEuIUw11zVnVxHX13letXzkcDVL3eO-iNd_ghjUnedTlic-tjM5UA_P-ZdlMvQOf2J1sMSV18q5mMdlxxNfAnpIbEIbCbLyuo-4nvPaT7YD3ufmiisjhlfLpAmf9fSCj76SiMYcE3vLKxkmNfTR3Kh_0000]--></g></svg>