<?xml version="1.0" encoding="UTF-8" standalone="no"?><svg xmlns="http://www.w3.org/2000/svg" xmlns:xlink="http://www.w3.org/1999/xlink" contentStyleType="text/css" height="1241px" preserveAspectRatio="none" style="width:782px;height:1241px;background:#FFFFFF;" version="1.1" viewBox="0 0 782 1241" width="782px" zoomAndPan="magnify"><defs/><g><rect fill="none" height="1239.1094" style="stroke:#0A9EFD;stroke-width:1.0;" width="780" x="0" y="0"/><rect fill="#F3F3F3" height="1229.1094" style="stroke:#0A9EFD;stroke-width:0.5;" width="120" x="269.5" y="6"/><text fill="#000000" font-family="sans-serif" font-size="13" font-weight="bold" lengthAdjust="spacing" textLength="57" x="301" y="19.4951">Your app</text><rect fill="#F3F3F3" height="1229.1094" style="stroke:#0A9EFD;stroke-width:0.5;" width="87" x="683" y="6"/><text fill="#000000" font-family="sans-serif" font-size="13" font-weight="bold" lengthAdjust="spacing" textLength="38" x="707.5" y="19.4951">Agora</text><rect fill="#FFFFFF" height="292.875" style="stroke:#0A9EFD;stroke-width:2.0;" width="766" x="10" y="104.6094"/><rect fill="#FFFFFF" height="209.2656" style="stroke:#0A9EFD;stroke-width:2.0;" width="766" x="10" y="411.4844"/><rect fill="#FFFFFF" height="177.6563" style="stroke:#0A9EFD;stroke-width:2.0;" width="766" x="10" y="634.75"/><rect fill="#FFFFFF" height="146.0469" style="stroke:#0A9EFD;stroke-width:2.0;" width="766" x="10" y="826.4063"/><rect fill="#FFFFFF" height="146.0469" style="stroke:#0A9EFD;stroke-width:2.0;" width="766" x="10" y="986.4531"/><line style="stroke:#0A9EFD;stroke-width:0.5;stroke-dasharray:5.0,5.0;" x1="39" x2="39" y1="87.6094" y2="1149.5"/><line style="stroke:#0A9EFD;stroke-width:0.5;stroke-dasharray:5.0,5.0;" x1="329.5" x2="329.5" y1="87.6094" y2="1149.5"/><line style="stroke:#0A9EFD;stroke-width:0.5;stroke-dasharray:5.0,5.0;" x1="726" x2="726" y1="87.6094" y2="1149.5"/><text fill="#0A9EFD" font-family="Roboto" font-size="14" font-weight="bold" lengthAdjust="spacing" textLength="33" x="20" y="84.5332">User</text><ellipse cx="39.5" cy="16" fill="none" rx="8" ry="8" style="stroke:#0A9EFD;stroke-width:3.0;"/><path d="M39.5,24 L39.5,51 M26.5,32 L52.5,32 M39.5,51 L26.5,66 M39.5,51 L52.5,66 " fill="none" style="stroke:#0A9EFD;stroke-width:3.0;"/><text fill="#0A9EFD" font-family="Roboto" font-size="14" font-weight="bold" lengthAdjust="spacing" textLength="33" x="20" y="1163.0332">User</text><ellipse cx="39.5" cy="1177.1094" fill="none" rx="8" ry="8" style="stroke:#0A9EFD;stroke-width:3.0;"/><path d="M39.5,1185.1094 L39.5,1212.1094 M26.5,1193.1094 L52.5,1193.1094 M39.5,1212.1094 L26.5,1227.1094 M39.5,1212.1094 L52.5,1227.1094 " fill="none" style="stroke:#0A9EFD;stroke-width:3.0;"/><rect fill="#FFFFFF" height="31.6094" rx="2.5" ry="2.5" style="stroke:#0A9EFD;stroke-width:2.0;" width="112" x="273.5" y="55"/><text fill="#0A9EFD" font-family="Roboto" font-size="14" font-weight="bold" lengthAdjust="spacing" textLength="98" x="280.5" y="76.5332">Signaling SDK</text><rect fill="#FFFFFF" height="31.6094" rx="2.5" ry="2.5" style="stroke:#0A9EFD;stroke-width:2.0;" width="112" x="273.5" y="1148.5"/><text fill="#0A9EFD" font-family="Roboto" font-size="14" font-weight="bold" lengthAdjust="spacing" textLength="98" x="280.5" y="1170.0332">Signaling SDK</text><rect fill="#FFFFFF" height="31.6094" rx="2.5" ry="2.5" style="stroke:#0A9EFD;stroke-width:2.0;" width="79" x="687" y="55"/><text fill="#0A9EFD" font-family="Roboto" font-size="14" font-weight="bold" lengthAdjust="spacing" textLength="65" x="694" y="76.5332">Signaling</text><rect fill="#FFFFFF" height="31.6094" rx="2.5" ry="2.5" style="stroke:#0A9EFD;stroke-width:2.0;" width="79" x="687" y="1148.5"/><text fill="#0A9EFD" font-family="Roboto" font-size="14" font-weight="bold" lengthAdjust="spacing" textLength="65" x="694" y="1170.0332">Signaling</text><path d="M10,104.6094 L113,104.6094 L113,114.2188 L103,124.2188 L10,124.2188 L10,104.6094 " fill="#EEEEEE" style="stroke:#0A9EFD;stroke-width:1.5;"/><rect fill="none" height="292.875" style="stroke:#0A9EFD;stroke-width:2.0;" width="766" x="10" y="104.6094"/><text fill="#0A9EFD" font-family="Roboto" font-size="14" font-weight="bold" lengthAdjust="spacing" textLength="58" x="25" y="120.1426">Initialize</text><polygon fill="#0A9EFD" points="317.5,143.8281,327.5,147.8281,317.5,151.8281,321.5,147.8281" style="stroke:#0A9EFD;stroke-width:1.0;"/><line style="stroke:#0A9EFD;stroke-width:2.0;" x1="39.5" x2="323.5" y1="147.8281" y2="147.8281"/><text fill="#0A9EFD" font-family="Roboto" font-size="14" font-weight="bold" lengthAdjust="spacing" textLength="68" x="150.5" y="142.752">Open app</text><line style="stroke:#0A9EFD;stroke-width:2.0;" x1="329.5" x2="371.5" y1="179.4375" y2="179.4375"/><line style="stroke:#0A9EFD;stroke-width:2.0;" x1="371.5" x2="371.5" y1="179.4375" y2="192.4375"/><line style="stroke:#0A9EFD;stroke-width:2.0;" x1="330.5" x2="371.5" y1="192.4375" y2="192.4375"/><polygon fill="#0A9EFD" points="340.5,188.4375,330.5,192.4375,340.5,196.4375,336.5,192.4375" style="stroke:#0A9EFD;stroke-width:1.0;"/><text fill="#0A9EFD" font-family="Roboto" font-size="14" font-weight="bold" lengthAdjust="spacing" textLength="171" x="336.5" y="174.3613">Create a Signaling client</text><line style="stroke:#0A9EFD;stroke-width:2.0;" x1="329.5" x2="371.5" y1="224.0469" y2="224.0469"/><line style="stroke:#0A9EFD;stroke-width:2.0;" x1="371.5" x2="371.5" y1="224.0469" y2="237.0469"/><line style="stroke:#0A9EFD;stroke-width:2.0;" x1="330.5" x2="371.5" y1="237.0469" y2="237.0469"/><polygon fill="#0A9EFD" points="340.5,233.0469,330.5,237.0469,340.5,241.0469,336.5,237.0469" style="stroke:#0A9EFD;stroke-width:1.0;"/><text fill="#0A9EFD" font-family="Roboto" font-size="14" font-weight="bold" lengthAdjust="spacing" textLength="184" x="336.5" y="218.9707">Add client event callbacks</text><line style="stroke:#0A9EFD;stroke-width:2.0;" x1="329.5" x2="371.5" y1="268.6563" y2="268.6563"/><line style="stroke:#0A9EFD;stroke-width:2.0;" x1="371.5" x2="371.5" y1="268.6563" y2="281.6563"/><line style="stroke:#0A9EFD;stroke-width:2.0;" x1="330.5" x2="371.5" y1="281.6563" y2="281.6563"/><polygon fill="#0A9EFD" points="340.5,277.6563,330.5,281.6563,340.5,285.6563,336.5,281.6563" style="stroke:#0A9EFD;stroke-width:1.0;"/><text fill="#0A9EFD" font-family="Roboto" font-size="14" font-weight="bold" lengthAdjust="spacing" textLength="188" x="336.5" y="263.5801">Create a Signaling channel</text><line style="stroke:#0A9EFD;stroke-width:2.0;" x1="329.5" x2="371.5" y1="313.2656" y2="313.2656"/><line style="stroke:#0A9EFD;stroke-width:2.0;" x1="371.5" x2="371.5" y1="313.2656" y2="326.2656"/><line style="stroke:#0A9EFD;stroke-width:2.0;" x1="330.5" x2="371.5" y1="326.2656" y2="326.2656"/><polygon fill="#0A9EFD" points="340.5,322.2656,330.5,326.2656,340.5,330.2656,336.5,326.2656" style="stroke:#0A9EFD;stroke-width:1.0;"/><text fill="#0A9EFD" font-family="Roboto" font-size="14" font-weight="bold" lengthAdjust="spacing" textLength="201" x="336.5" y="308.1895">Add channel event callbacks</text><polygon fill="#0A9EFD" points="714.5,353.875,724.5,357.875,714.5,361.875,718.5,357.875" style="stroke:#0A9EFD;stroke-width:1.0;"/><line style="stroke:#0A9EFD;stroke-width:2.0;" x1="329.5" x2="720.5" y1="357.875" y2="357.875"/><text fill="#0A9EFD" font-family="Roboto" font-size="14" font-weight="bold" lengthAdjust="spacing" textLength="130" x="463" y="352.7988">Log in to Signaling</text><polygon fill="#0A9EFD" points="714.5,385.4844,724.5,389.4844,714.5,393.4844,718.5,389.4844" style="stroke:#0A9EFD;stroke-width:1.0;"/><line style="stroke:#0A9EFD;stroke-width:2.0;" x1="329.5" x2="720.5" y1="389.4844" y2="389.4844"/><text fill="#0A9EFD" font-family="Roboto" font-size="14" font-weight="bold" lengthAdjust="spacing" textLength="102" x="477" y="384.4082">Join a channel</text><path d="M10,411.4844 L264,411.4844 L264,421.0938 L254,431.0938 L10,431.0938 L10,411.4844 " fill="#EEEEEE" style="stroke:#0A9EFD;stroke-width:1.5;"/><rect fill="none" height="209.2656" style="stroke:#0A9EFD;stroke-width:2.0;" width="766" x="10" y="411.4844"/><text fill="#0A9EFD" font-family="Roboto" font-size="14" font-weight="bold" lengthAdjust="spacing" textLength="209" x="25" y="427.0176">Read and write user metadata</text><polygon fill="#0A9EFD" points="714.5,450.7031,724.5,454.7031,714.5,458.7031,718.5,454.7031" style="stroke:#0A9EFD;stroke-width:1.0;"/><line style="stroke:#0A9EFD;stroke-width:2.0;" x1="329.5" x2="720.5" y1="454.7031" y2="454.7031"/><text fill="#0A9EFD" font-family="Roboto" font-size="14" font-weight="bold" lengthAdjust="spacing" textLength="164" x="446" y="449.627">Set local user metadata</text><polygon fill="#0A9EFD" points="317.5,482.3125,327.5,486.3125,317.5,490.3125,321.5,486.3125" style="stroke:#0A9EFD;stroke-width:1.0;"/><line style="stroke:#0A9EFD;stroke-width:2.0;" x1="39.5" x2="323.5" y1="486.3125" y2="486.3125"/><text fill="#0A9EFD" font-family="Roboto" font-size="14" font-weight="bold" lengthAdjust="spacing" textLength="174" x="97.5" y="481.2363">Change user information</text><polygon fill="#0A9EFD" points="714.5,513.9219,724.5,517.9219,714.5,521.9219,718.5,517.9219" style="stroke:#0A9EFD;stroke-width:1.0;"/><line style="stroke:#0A9EFD;stroke-width:2.0;" x1="329.5" x2="720.5" y1="517.9219" y2="517.9219"/><text fill="#0A9EFD" font-family="Roboto" font-size="14" font-weight="bold" lengthAdjust="spacing" textLength="297" x="379.5" y="512.8457">Add, update, or delete local user metadata</text><polygon fill="#0A9EFD" points="714.5,545.5313,724.5,549.5313,714.5,553.5313,718.5,549.5313" style="stroke:#0A9EFD;stroke-width:1.0;"/><line style="stroke:#0A9EFD;stroke-width:2.0;" x1="329.5" x2="720.5" y1="549.5313" y2="549.5313"/><text fill="#0A9EFD" font-family="Roboto" font-size="14" font-weight="bold" lengthAdjust="spacing" textLength="273" x="391.5" y="544.4551">Subscribe to metadata of remote users</text><polygon fill="#0A9EFD" points="340.5,577.1406,330.5,581.1406,340.5,585.1406,336.5,581.1406" style="stroke:#0A9EFD;stroke-width:1.0;"/><line style="stroke:#0A9EFD;stroke-width:2.0;" x1="334.5" x2="725.5" y1="581.1406" y2="581.1406"/><text fill="#0A9EFD" font-family="Roboto" font-size="14" font-weight="bold" lengthAdjust="spacing" textLength="247" x="404.5" y="576.0645">On user metadata updated callback</text><polygon fill="#0A9EFD" points="340.5,608.75,330.5,612.75,340.5,616.75,336.5,612.75" style="stroke:#0A9EFD;stroke-width:1.0;"/><line style="stroke:#0A9EFD;stroke-width:2.0;" x1="334.5" x2="725.5" y1="612.75" y2="612.75"/><text fill="#0A9EFD" font-family="Roboto" font-size="14" font-weight="bold" lengthAdjust="spacing" textLength="249" x="403.5" y="607.6738">Retrieve metadata of a remote user</text><path d="M10,634.75 L288,634.75 L288,644.3594 L278,654.3594 L10,654.3594 L10,634.75 " fill="#EEEEEE" style="stroke:#0A9EFD;stroke-width:1.5;"/><rect fill="none" height="177.6563" style="stroke:#0A9EFD;stroke-width:2.0;" width="766" x="10" y="634.75"/><text fill="#0A9EFD" font-family="Roboto" font-size="14" font-weight="bold" lengthAdjust="spacing" textLength="233" x="25" y="650.2832">Read and write channel metadata</text><polygon fill="#0A9EFD" points="714.5,673.9688,724.5,677.9688,714.5,681.9688,718.5,677.9688" style="stroke:#0A9EFD;stroke-width:1.0;"/><line style="stroke:#0A9EFD;stroke-width:2.0;" x1="329.5" x2="720.5" y1="677.9688" y2="677.9688"/><text fill="#0A9EFD" font-family="Roboto" font-size="14" font-weight="bold" lengthAdjust="spacing" textLength="151" x="452.5" y="672.8926">Set channel metadata</text><polygon fill="#0A9EFD" points="317.5,705.5781,327.5,709.5781,317.5,713.5781,321.5,709.5781" style="stroke:#0A9EFD;stroke-width:1.0;"/><line style="stroke:#0A9EFD;stroke-width:2.0;" x1="39.5" x2="323.5" y1="709.5781" y2="709.5781"/><text fill="#0A9EFD" font-family="Roboto" font-size="14" font-weight="bold" lengthAdjust="spacing" textLength="194" x="87.5" y="704.502">Update channel information</text><polygon fill="#0A9EFD" points="714.5,737.1875,724.5,741.1875,714.5,745.1875,718.5,741.1875" style="stroke:#0A9EFD;stroke-width:1.0;"/><line style="stroke:#0A9EFD;stroke-width:2.0;" x1="329.5" x2="720.5" y1="741.1875" y2="741.1875"/><text fill="#0A9EFD" font-family="Roboto" font-size="14" font-weight="bold" lengthAdjust="spacing" textLength="284" x="386" y="736.1113">Add, update, or delete channel metadata</text><polygon fill="#0A9EFD" points="340.5,768.7969,330.5,772.7969,340.5,776.7969,336.5,772.7969" style="stroke:#0A9EFD;stroke-width:1.0;"/><line style="stroke:#0A9EFD;stroke-width:2.0;" x1="334.5" x2="725.5" y1="772.7969" y2="772.7969"/><text fill="#0A9EFD" font-family="Roboto" font-size="14" font-weight="bold" lengthAdjust="spacing" textLength="271" x="392.5" y="767.7207">On channel metadata updated callback</text><polygon fill="#0A9EFD" points="340.5,800.4063,330.5,804.4063,340.5,808.4063,336.5,804.4063" style="stroke:#0A9EFD;stroke-width:1.0;"/><line style="stroke:#0A9EFD;stroke-width:2.0;" x1="334.5" x2="725.5" y1="804.4063" y2="804.4063"/><text fill="#0A9EFD" font-family="Roboto" font-size="14" font-weight="bold" lengthAdjust="spacing" textLength="189" x="433.5" y="799.3301">Retrieve channel metadata</text><path d="M10,826.4063 L123,826.4063 L123,836.0156 L113,846.0156 L10,846.0156 L10,826.4063 " fill="#EEEEEE" style="stroke:#0A9EFD;stroke-width:1.5;"/><rect fill="none" height="146.0469" style="stroke:#0A9EFD;stroke-width:2.0;" width="766" x="10" y="826.4063"/><text fill="#0A9EFD" font-family="Roboto" font-size="14" font-weight="bold" lengthAdjust="spacing" textLength="68" x="25" y="841.9395">Use locks</text><polygon fill="#0A9EFD" points="714.5,865.625,724.5,869.625,714.5,873.625,718.5,869.625" style="stroke:#0A9EFD;stroke-width:1.0;"/><line style="stroke:#0A9EFD;stroke-width:2.0;" x1="329.5" x2="720.5" y1="869.625" y2="869.625"/><text fill="#0A9EFD" font-family="Roboto" font-size="14" font-weight="bold" lengthAdjust="spacing" textLength="68" x="494" y="864.5488">Set a lock</text><polygon fill="#0A9EFD" points="317.5,897.2344,327.5,901.2344,317.5,905.2344,321.5,901.2344" style="stroke:#0A9EFD;stroke-width:1.0;"/><line style="stroke:#0A9EFD;stroke-width:2.0;" x1="39.5" x2="323.5" y1="901.2344" y2="901.2344"/><text fill="#0A9EFD" font-family="Roboto" font-size="14" font-weight="bold" lengthAdjust="spacing" textLength="266" x="51.5" y="896.1582">Update channel metadata with locking</text><polygon fill="#0A9EFD" points="714.5,928.8438,724.5,932.8438,714.5,936.8438,718.5,932.8438" style="stroke:#0A9EFD;stroke-width:1.0;"/><line style="stroke:#0A9EFD;stroke-width:2.0;" x1="329.5" x2="720.5" y1="932.8438" y2="932.8438"/><text fill="#0A9EFD" font-family="Roboto" font-size="14" font-weight="bold" lengthAdjust="spacing" textLength="114" x="471" y="927.7676">Acquire the lock</text><polygon fill="#0A9EFD" points="714.5,960.4531,724.5,964.4531,714.5,968.4531,718.5,964.4531" style="stroke:#0A9EFD;stroke-width:1.0;"/><line style="stroke:#0A9EFD;stroke-width:2.0;" x1="329.5" x2="720.5" y1="964.4531" y2="964.4531"/><text fill="#0A9EFD" font-family="Roboto" font-size="14" font-weight="bold" lengthAdjust="spacing" textLength="329" x="363.5" y="959.377">Specify the lock name when updating metadata</text><path d="M10,986.4531 L95,986.4531 L95,996.0625 L85,1006.0625 L10,1006.0625 L10,986.4531 " fill="#EEEEEE" style="stroke:#0A9EFD;stroke-width:1.5;"/><rect fill="none" height="146.0469" style="stroke:#0A9EFD;stroke-width:2.0;" width="766" x="10" y="986.4531"/><text fill="#0A9EFD" font-family="Roboto" font-size="14" font-weight="bold" lengthAdjust="spacing" textLength="40" x="25" y="1001.9863">Close</text><polygon fill="#0A9EFD" points="317.5,1025.6719,327.5,1029.6719,317.5,1033.6719,321.5,1029.6719" style="stroke:#0A9EFD;stroke-width:1.0;"/><line style="stroke:#0A9EFD;stroke-width:2.0;" x1="39.5" x2="323.5" y1="1029.6719" y2="1029.6719"/><text fill="#0A9EFD" font-family="Roboto" font-size="14" font-weight="bold" lengthAdjust="spacing" textLength="130" x="119.5" y="1024.5957">Leave the channel</text><polygon fill="#0A9EFD" points="714.5,1057.2813,724.5,1061.2813,714.5,1065.2813,718.5,1061.2813" style="stroke:#0A9EFD;stroke-width:1.0;"/><line style="stroke:#0A9EFD;stroke-width:2.0;" x1="329.5" x2="720.5" y1="1061.2813" y2="1061.2813"/><text fill="#0A9EFD" font-family="Roboto" font-size="14" font-weight="bold" lengthAdjust="spacing" textLength="98" x="479" y="1056.2051">Release locks</text><polygon fill="#0A9EFD" points="714.5,1088.8906,724.5,1092.8906,714.5,1096.8906,718.5,1092.8906" style="stroke:#0A9EFD;stroke-width:1.0;"/><line style="stroke:#0A9EFD;stroke-width:2.0;" x1="329.5" x2="720.5" y1="1092.8906" y2="1092.8906"/><text fill="#0A9EFD" font-family="Roboto" font-size="14" font-weight="bold" lengthAdjust="spacing" textLength="373" x="341.5" y="1087.8145">Unsubscribe from user metadata update notifications</text><polygon fill="#0A9EFD" points="714.5,1120.5,724.5,1124.5,714.5,1128.5,718.5,1124.5" style="stroke:#0A9EFD;stroke-width:1.0;"/><line style="stroke:#0A9EFD;stroke-width:2.0;" x1="329.5" x2="720.5" y1="1124.5" y2="1124.5"/><text fill="#0A9EFD" font-family="Roboto" font-size="14" font-weight="bold" lengthAdjust="spacing" textLength="140" x="458" y="1119.4238">Log out of Signaling</text><!--SRC=[bLF1Rjim3BtxArYVc_HU30E2z9ArG8i4EUmqC1Bj494bLvQJTby_oNOSAtQwxMB08ldUuoDvnrgeMXBCvmz7bcHcbJmyO6ui_geEhETS5of9K3XZ8TrMP5F02hQRTPBip0UaFqrj0SioJKgqZWMNg1sa6yurAjOvR9wUcvB5srj2MeAlwaeNWULMNLUpkjJarjGbh3GxzXc_AV4YOFOz03_2Qqawo4ZyN_-uj8IE0E6YHYWcxQAiXPJTCz0nV0KgjKDngFuAjaUjIOtHslVRSAj7U34vi0PdBdXH_8VnKUmfl0jd1zQ44j2xShBi1TL-9b2GGuaE8uWDEL36qr_b37rRUloy0s6T6LkWOwCZ7D_IFTIbhwLxy6iWIP4ddeAEwEjT9IplA3HvpW2JWQN2TC9RJxxDsefN7SDrfBAtCCfUaxFiBOwmSOZ-XMld4TqqRfGmT6tRwEfp_jEuIUw11zVnVxHX13letXzkcDVL3eO-iNd_ghjUnedTlic-tjM5UA_P-ZdlMvQOf2J1sMSV18q5mMdlxxNfAnpIbEIbCbLyuo-4nvPaT7YD3ufmiisjhlfLpAmf9fSCj76SiMYcE3vLKxkmNfTR3Kh_0000]--></g></svg>