<?xml version="1.0" encoding="UTF-8" standalone="no"?><svg xmlns="http://www.w3.org/2000/svg" xmlns:xlink="http://www.w3.org/1999/xlink" contentStyleType="text/css" height="1049px" preserveAspectRatio="none" style="width:712px;height:1049px;" version="1.1" viewBox="0 0 712 1049" width="712px" zoomAndPan="magnify"><defs/><g><rect fill="none" height="1047.4531" style="stroke:#0A9EFD;stroke-width:1.0;" width="710" x="0" y="0"/><rect fill="#F3F3F3" height="1037.4531" style="stroke:#0A9EFD;stroke-width:0.5;" width="120" x="197.5" y="6"/><text fill="#000000" font-family="sans-serif" font-size="13" font-weight="bold" lengthAdjust="spacing" textLength="57" x="229" y="19.4951">Your app</text><rect fill="#F3F3F3" height="1037.4531" style="stroke:#0A9EFD;stroke-width:0.5;" width="91" x="609" y="6"/><text fill="#000000" font-family="sans-serif" font-size="13" font-weight="bold" lengthAdjust="spacing" textLength="38" x="635.5" y="19.4951">Agora</text><rect fill="#FFFFFF" height="292.875" style="stroke:#0A9EFD;stroke-width:2.0;" width="696" x="10" y="104.6094"/><rect fill="#FFFFFF" height="209.2656" style="stroke:#0A9EFD;stroke-width:2.0;" width="696" x="10" y="411.4844"/><rect fill="#FFFFFF" height="177.6563" style="stroke:#0A9EFD;stroke-width:2.0;" width="696" x="10" y="634.75"/><rect fill="#FFFFFF" height="114.4375" style="stroke:#0A9EFD;stroke-width:2.0;" width="696" x="10" y="826.4063"/><line style="stroke:#0A9EFD;stroke-width:0.5;stroke-dasharray:5.0,5.0;" x1="39" x2="39" y1="87.6094" y2="957.8438"/><line style="stroke:#0A9EFD;stroke-width:0.5;stroke-dasharray:5.0,5.0;" x1="257.5" x2="257.5" y1="87.6094" y2="957.8438"/><line style="stroke:#0A9EFD;stroke-width:0.5;stroke-dasharray:5.0,5.0;" x1="654" x2="654" y1="87.6094" y2="957.8438"/><text fill="#0A9EFD" font-family="Roboto" font-size="14" font-weight="bold" lengthAdjust="spacing" textLength="33" x="20" y="84.5332">User</text><ellipse cx="39.5" cy="16" fill="none" rx="8" ry="8" style="stroke:#0A9EFD;stroke-width:3.0;"/><path d="M39.5,24 L39.5,51 M26.5,32 L52.5,32 M39.5,51 L26.5,66 M39.5,51 L52.5,66 " fill="none" style="stroke:#0A9EFD;stroke-width:3.0;"/><text fill="#0A9EFD" font-family="Roboto" font-size="14" font-weight="bold" lengthAdjust="spacing" textLength="33" x="20" y="971.377">User</text><ellipse cx="39.5" cy="985.4531" fill="none" rx="8" ry="8" style="stroke:#0A9EFD;stroke-width:3.0;"/><path d="M39.5,993.4531 L39.5,1020.4531 M26.5,1001.4531 L52.5,1001.4531 M39.5,1020.4531 L26.5,1035.4531 M39.5,1020.4531 L52.5,1035.4531 " fill="none" style="stroke:#0A9EFD;stroke-width:3.0;"/><rect fill="#FFFFFF" height="31.6094" rx="2.5" ry="2.5" style="stroke:#0A9EFD;stroke-width:2.0;" width="112" x="201.5" y="55"/><text fill="#0A9EFD" font-family="Roboto" font-size="14" font-weight="bold" lengthAdjust="spacing" textLength="98" x="208.5" y="76.5332">Signaling SDK</text><rect fill="#FFFFFF" height="31.6094" rx="2.5" ry="2.5" style="stroke:#0A9EFD;stroke-width:2.0;" width="112" x="201.5" y="956.8438"/><text fill="#0A9EFD" font-family="Roboto" font-size="14" font-weight="bold" lengthAdjust="spacing" textLength="98" x="208.5" y="978.377">Signaling SDK</text><rect fill="#FFFFFF" height="49.2188" rx="2.5" ry="2.5" style="stroke:#0A9EFD;stroke-width:2.0;" width="83" x="613" y="37.3906"/><text fill="#0A9EFD" font-family="Roboto" font-size="14" font-weight="bold" lengthAdjust="spacing" textLength="65" x="620" y="58.9238">Signaling</text><text fill="#0A9EFD" font-family="Roboto" font-size="14" font-weight="bold" lengthAdjust="spacing" textLength="48" x="630.5" y="76.5332">Server</text><rect fill="#FFFFFF" height="49.2188" rx="2.5" ry="2.5" style="stroke:#0A9EFD;stroke-width:2.0;" width="83" x="613" y="956.8438"/><text fill="#0A9EFD" font-family="Roboto" font-size="14" font-weight="bold" lengthAdjust="spacing" textLength="65" x="620" y="978.377">Signaling</text><text fill="#0A9EFD" font-family="Roboto" font-size="14" font-weight="bold" lengthAdjust="spacing" textLength="48" x="630.5" y="995.9863">Server</text><path d="M10,104.6094 L113,104.6094 L113,114.2188 L103,124.2188 L10,124.2188 L10,104.6094 " fill="#EEEEEE" style="stroke:#0A9EFD;stroke-width:1.5;"/><rect fill="none" height="292.875" style="stroke:#0A9EFD;stroke-width:2.0;" width="696" x="10" y="104.6094"/><text fill="#0A9EFD" font-family="Roboto" font-size="14" font-weight="bold" lengthAdjust="spacing" textLength="58" x="25" y="120.1426">Initialize</text><polygon fill="#0A9EFD" points="245.5,143.8281,255.5,147.8281,245.5,151.8281,249.5,147.8281" style="stroke:#0A9EFD;stroke-width:1.0;"/><line style="stroke:#0A9EFD;stroke-width:2.0;" x1="39.5" x2="251.5" y1="147.8281" y2="147.8281"/><text fill="#0A9EFD" font-family="Roboto" font-size="14" font-weight="bold" lengthAdjust="spacing" textLength="68" x="114.5" y="142.752">Open app</text><line style="stroke:#0A9EFD;stroke-width:2.0;" x1="257.5" x2="299.5" y1="179.4375" y2="179.4375"/><line style="stroke:#0A9EFD;stroke-width:2.0;" x1="299.5" x2="299.5" y1="179.4375" y2="192.4375"/><line style="stroke:#0A9EFD;stroke-width:2.0;" x1="258.5" x2="299.5" y1="192.4375" y2="192.4375"/><polygon fill="#0A9EFD" points="268.5,188.4375,258.5,192.4375,268.5,196.4375,264.5,192.4375" style="stroke:#0A9EFD;stroke-width:1.0;"/><text fill="#0A9EFD" font-family="Roboto" font-size="14" font-weight="bold" lengthAdjust="spacing" textLength="171" x="264.5" y="174.3613">Create a Signaling client</text><line style="stroke:#0A9EFD;stroke-width:2.0;" x1="257.5" x2="299.5" y1="224.0469" y2="224.0469"/><line style="stroke:#0A9EFD;stroke-width:2.0;" x1="299.5" x2="299.5" y1="224.0469" y2="237.0469"/><line style="stroke:#0A9EFD;stroke-width:2.0;" x1="258.5" x2="299.5" y1="237.0469" y2="237.0469"/><polygon fill="#0A9EFD" points="268.5,233.0469,258.5,237.0469,268.5,241.0469,264.5,237.0469" style="stroke:#0A9EFD;stroke-width:1.0;"/><text fill="#0A9EFD" font-family="Roboto" font-size="14" font-weight="bold" lengthAdjust="spacing" textLength="184" x="264.5" y="218.9707">Add client event callbacks</text><line style="stroke:#0A9EFD;stroke-width:2.0;" x1="257.5" x2="299.5" y1="268.6563" y2="268.6563"/><line style="stroke:#0A9EFD;stroke-width:2.0;" x1="299.5" x2="299.5" y1="268.6563" y2="281.6563"/><line style="stroke:#0A9EFD;stroke-width:2.0;" x1="258.5" x2="299.5" y1="281.6563" y2="281.6563"/><polygon fill="#0A9EFD" points="268.5,277.6563,258.5,281.6563,268.5,285.6563,264.5,281.6563" style="stroke:#0A9EFD;stroke-width:1.0;"/><text fill="#0A9EFD" font-family="Roboto" font-size="14" font-weight="bold" lengthAdjust="spacing" textLength="188" x="264.5" y="263.5801">Create a Signaling channel</text><line style="stroke:#0A9EFD;stroke-width:2.0;" x1="257.5" x2="299.5" y1="313.2656" y2="313.2656"/><line style="stroke:#0A9EFD;stroke-width:2.0;" x1="299.5" x2="299.5" y1="313.2656" y2="326.2656"/><line style="stroke:#0A9EFD;stroke-width:2.0;" x1="258.5" x2="299.5" y1="326.2656" y2="326.2656"/><polygon fill="#0A9EFD" points="268.5,322.2656,258.5,326.2656,268.5,330.2656,264.5,326.2656" style="stroke:#0A9EFD;stroke-width:1.0;"/><text fill="#0A9EFD" font-family="Roboto" font-size="14" font-weight="bold" lengthAdjust="spacing" textLength="201" x="264.5" y="308.1895">Add channel event callbacks</text><polygon fill="#0A9EFD" points="642.5,353.875,652.5,357.875,642.5,361.875,646.5,357.875" style="stroke:#0A9EFD;stroke-width:1.0;"/><line style="stroke:#0A9EFD;stroke-width:2.0;" x1="257.5" x2="648.5" y1="357.875" y2="357.875"/><text fill="#0A9EFD" font-family="Roboto" font-size="14" font-weight="bold" lengthAdjust="spacing" textLength="208" x="352" y="352.7988">Log in to the Signaling server</text><polygon fill="#0A9EFD" points="642.5,385.4844,652.5,389.4844,642.5,393.4844,646.5,389.4844" style="stroke:#0A9EFD;stroke-width:1.0;"/><line style="stroke:#0A9EFD;stroke-width:2.0;" x1="257.5" x2="648.5" y1="389.4844" y2="389.4844"/><text fill="#0A9EFD" font-family="Roboto" font-size="14" font-weight="bold" lengthAdjust="spacing" textLength="102" x="405" y="384.4082">Join a channel</text><path d="M10,411.4844 L264,411.4844 L264,421.0938 L254,431.0938 L10,431.0938 L10,411.4844 " fill="#EEEEEE" style="stroke:#0A9EFD;stroke-width:1.5;"/><rect fill="none" height="209.2656" style="stroke:#0A9EFD;stroke-width:2.0;" width="696" x="10" y="411.4844"/><text fill="#0A9EFD" font-family="Roboto" font-size="14" font-weight="bold" lengthAdjust="spacing" textLength="209" x="25" y="427.0176">Read and write user metadata</text><polygon fill="#0A9EFD" points="642.5,450.7031,652.5,454.7031,642.5,458.7031,646.5,454.7031" style="stroke:#0A9EFD;stroke-width:1.0;"/><line style="stroke:#0A9EFD;stroke-width:2.0;" x1="257.5" x2="648.5" y1="454.7031" y2="454.7031"/><text fill="#0A9EFD" font-family="Roboto" font-size="14" font-weight="bold" lengthAdjust="spacing" textLength="164" x="374" y="449.627">Set local user metadata</text><polygon fill="#0A9EFD" points="245.5,482.3125,255.5,486.3125,245.5,490.3125,249.5,486.3125" style="stroke:#0A9EFD;stroke-width:1.0;"/><line style="stroke:#0A9EFD;stroke-width:2.0;" x1="39.5" x2="251.5" y1="486.3125" y2="486.3125"/><text fill="#0A9EFD" font-family="Roboto" font-size="14" font-weight="bold" lengthAdjust="spacing" textLength="174" x="61.5" y="481.2363">Change user information</text><polygon fill="#0A9EFD" points="642.5,513.9219,652.5,517.9219,642.5,521.9219,646.5,517.9219" style="stroke:#0A9EFD;stroke-width:1.0;"/><line style="stroke:#0A9EFD;stroke-width:2.0;" x1="257.5" x2="648.5" y1="517.9219" y2="517.9219"/><text fill="#0A9EFD" font-family="Roboto" font-size="14" font-weight="bold" lengthAdjust="spacing" textLength="297" x="307.5" y="512.8457">Add, update, or delete local user metadata</text><polygon fill="#0A9EFD" points="642.5,545.5313,652.5,549.5313,642.5,553.5313,646.5,549.5313" style="stroke:#0A9EFD;stroke-width:1.0;"/><line style="stroke:#0A9EFD;stroke-width:2.0;" x1="257.5" x2="648.5" y1="549.5313" y2="549.5313"/><text fill="#0A9EFD" font-family="Roboto" font-size="14" font-weight="bold" lengthAdjust="spacing" textLength="273" x="319.5" y="544.4551">Subscribe to metadata of remote users</text><polygon fill="#0A9EFD" points="268.5,577.1406,258.5,581.1406,268.5,585.1406,264.5,581.1406" style="stroke:#0A9EFD;stroke-width:1.0;"/><line style="stroke:#0A9EFD;stroke-width:2.0;" x1="262.5" x2="653.5" y1="581.1406" y2="581.1406"/><text fill="#0A9EFD" font-family="Roboto" font-size="14" font-weight="bold" lengthAdjust="spacing" textLength="247" x="332.5" y="576.0645">On user metadata updated callback</text><polygon fill="#0A9EFD" points="268.5,608.75,258.5,612.75,268.5,616.75,264.5,612.75" style="stroke:#0A9EFD;stroke-width:1.0;"/><line style="stroke:#0A9EFD;stroke-width:2.0;" x1="262.5" x2="653.5" y1="612.75" y2="612.75"/><text fill="#0A9EFD" font-family="Roboto" font-size="14" font-weight="bold" lengthAdjust="spacing" textLength="249" x="331.5" y="607.6738">Retrieve metadata of a remote user</text><path d="M10,634.75 L288,634.75 L288,644.3594 L278,654.3594 L10,654.3594 L10,634.75 " fill="#EEEEEE" style="stroke:#0A9EFD;stroke-width:1.5;"/><rect fill="none" height="177.6563" style="stroke:#0A9EFD;stroke-width:2.0;" width="696" x="10" y="634.75"/><text fill="#0A9EFD" font-family="Roboto" font-size="14" font-weight="bold" lengthAdjust="spacing" textLength="233" x="25" y="650.2832">Read and write channel metadata</text><polygon fill="#0A9EFD" points="642.5,673.9688,652.5,677.9688,642.5,681.9688,646.5,677.9688" style="stroke:#0A9EFD;stroke-width:1.0;"/><line style="stroke:#0A9EFD;stroke-width:2.0;" x1="257.5" x2="648.5" y1="677.9688" y2="677.9688"/><text fill="#0A9EFD" font-family="Roboto" font-size="14" font-weight="bold" lengthAdjust="spacing" textLength="151" x="380.5" y="672.8926">Set channel metadata</text><polygon fill="#0A9EFD" points="245.5,705.5781,255.5,709.5781,245.5,713.5781,249.5,709.5781" style="stroke:#0A9EFD;stroke-width:1.0;"/><line style="stroke:#0A9EFD;stroke-width:2.0;" x1="39.5" x2="251.5" y1="709.5781" y2="709.5781"/><text fill="#0A9EFD" font-family="Roboto" font-size="14" font-weight="bold" lengthAdjust="spacing" textLength="194" x="51.5" y="704.502">Update channel information</text><polygon fill="#0A9EFD" points="642.5,737.1875,652.5,741.1875,642.5,745.1875,646.5,741.1875" style="stroke:#0A9EFD;stroke-width:1.0;"/><line style="stroke:#0A9EFD;stroke-width:2.0;" x1="257.5" x2="648.5" y1="741.1875" y2="741.1875"/><text fill="#0A9EFD" font-family="Roboto" font-size="14" font-weight="bold" lengthAdjust="spacing" textLength="284" x="314" y="736.1113">Add, update, or delete channel metadata</text><polygon fill="#0A9EFD" points="268.5,768.7969,258.5,772.7969,268.5,776.7969,264.5,772.7969" style="stroke:#0A9EFD;stroke-width:1.0;"/><line style="stroke:#0A9EFD;stroke-width:2.0;" x1="262.5" x2="653.5" y1="772.7969" y2="772.7969"/><text fill="#0A9EFD" font-family="Roboto" font-size="14" font-weight="bold" lengthAdjust="spacing" textLength="271" x="320.5" y="767.7207">On channel metadata updated callback</text><polygon fill="#0A9EFD" points="268.5,800.4063,258.5,804.4063,268.5,808.4063,264.5,804.4063" style="stroke:#0A9EFD;stroke-width:1.0;"/><line style="stroke:#0A9EFD;stroke-width:2.0;" x1="262.5" x2="653.5" y1="804.4063" y2="804.4063"/><text fill="#0A9EFD" font-family="Roboto" font-size="14" font-weight="bold" lengthAdjust="spacing" textLength="189" x="361.5" y="799.3301">Retrieve channel metadata</text><path d="M10,826.4063 L95,826.4063 L95,836.0156 L85,846.0156 L10,846.0156 L10,826.4063 " fill="#EEEEEE" style="stroke:#0A9EFD;stroke-width:1.5;"/><rect fill="none" height="114.4375" style="stroke:#0A9EFD;stroke-width:2.0;" width="696" x="10" y="826.4063"/><text fill="#0A9EFD" font-family="Roboto" font-size="14" font-weight="bold" lengthAdjust="spacing" textLength="40" x="25" y="841.9395">Close</text><polygon fill="#0A9EFD" points="245.5,865.625,255.5,869.625,245.5,873.625,249.5,869.625" style="stroke:#0A9EFD;stroke-width:1.0;"/><line style="stroke:#0A9EFD;stroke-width:2.0;" x1="39.5" x2="251.5" y1="869.625" y2="869.625"/><text fill="#0A9EFD" font-family="Roboto" font-size="14" font-weight="bold" lengthAdjust="spacing" textLength="130" x="83.5" y="864.5488">Leave the channel</text><polygon fill="#0A9EFD" points="642.5,897.2344,652.5,901.2344,642.5,905.2344,646.5,901.2344" style="stroke:#0A9EFD;stroke-width:1.0;"/><line style="stroke:#0A9EFD;stroke-width:2.0;" x1="257.5" x2="648.5" y1="901.2344" y2="901.2344"/><text fill="#0A9EFD" font-family="Roboto" font-size="14" font-weight="bold" lengthAdjust="spacing" textLength="373" x="269.5" y="896.1582">Unsubscribe from user metadata update notifications</text><polygon fill="#0A9EFD" points="642.5,928.8438,652.5,932.8438,642.5,936.8438,646.5,932.8438" style="stroke:#0A9EFD;stroke-width:1.0;"/><line style="stroke:#0A9EFD;stroke-width:2.0;" x1="257.5" x2="648.5" y1="932.8438" y2="932.8438"/><text fill="#0A9EFD" font-family="Roboto" font-size="14" font-weight="bold" lengthAdjust="spacing" textLength="218" x="347" y="927.7676">Log out of the Signaling server</text><!--SRC=[bLFBJkDG3DtdApnPmtm0GaXLsHIGg1frWJJIo4tSO75ZHpStWFXwd3ODkQJbiOaKvppiO-SFI-xQWW1BzVY_UMBvostbaWJpe1xITKC-1MnWdQsIPAEla3vewm7hEargz85phb42f1cNWewbXEpwTaUPBPS9IG76wgcppkKaxvzav9zxlzboyK4klROrB8G36_ID4ki6pgywXmkuhqcwVX9x6ufpJnXiBFYGpnsJX0WrAug-3FJSFNDqReFvK_Ejs2EAa9kgxUkdvHONSASbi41G28yqqcnsqqVG6pKW3cuMo26C5M41Q06zUBRUMYD3HG4B31X9P1J0gNNo2JEES6xwPI_2ibLVOM2LICUcEuEsDYwTWPr6GOxC-9XqPDzkcjppXhfv3mZGBNYgj6zy7y_b-PvnBx5SRreCQKRe5GNFbdQaZMFrBr8xREjaS1F0EBNrhgy1yylWZdgFClZy_OSnJ6H7qy-TDl6_SqTedEuC9mTjecjfXkrjlLP7zmAYWRUSxmQV7hgseTl8qKllMdi7]--></g></svg>