<?xml version="1.0" encoding="UTF-8" standalone="no"?><svg xmlns="http://www.w3.org/2000/svg" xmlns:xlink="http://www.w3.org/1999/xlink" contentStyleType="text/css" height="1054px" preserveAspectRatio="none" style="width:701px;height:1054px;" version="1.1" viewBox="0 0 701 1054" width="701px" zoomAndPan="magnify"><defs/><g><rect fill="none" height="1052.0625" style="stroke:#0A9EFD;stroke-width:1.0;" width="699" x="0" y="0"/><rect fill="#F3F3F3" height="1042.0625" style="stroke:#0A9EFD;stroke-width:0.5;" width="120" x="241.5" y="6"/><text fill="#000000" font-family="sans-serif" font-size="13" font-weight="bold" lengthAdjust="spacing" textLength="57" x="273" y="19.4951">Your app</text><rect fill="#F3F3F3" height="1042.0625" style="stroke:#0A9EFD;stroke-width:0.5;" width="87" x="602" y="6"/><text fill="#000000" font-family="sans-serif" font-size="13" font-weight="bold" lengthAdjust="spacing" textLength="38" x="626.5" y="19.4951">Agora</text><rect fill="#FFFFFF" height="234.2656" style="stroke:#0A9EFD;stroke-width:2.0;" width="685" x="10" y="104.6094"/><rect fill="#FFFFFF" height="240.875" style="stroke:#0A9EFD;stroke-width:2.0;" width="685" x="10" y="352.875"/><rect fill="#FFFFFF" height="209.2656" style="stroke:#0A9EFD;stroke-width:2.0;" width="685" x="10" y="607.75"/><rect fill="#FFFFFF" height="114.4375" style="stroke:#0A9EFD;stroke-width:2.0;" width="685" x="10" y="831.0156"/><line style="stroke:#0A9EFD;stroke-width:0.5;stroke-dasharray:5.0,5.0;" x1="39" x2="39" y1="87.6094" y2="962.4531"/><line style="stroke:#0A9EFD;stroke-width:0.5;stroke-dasharray:5.0,5.0;" x1="301.5" x2="301.5" y1="87.6094" y2="962.4531"/><line style="stroke:#0A9EFD;stroke-width:0.5;stroke-dasharray:5.0,5.0;" x1="645" x2="645" y1="87.6094" y2="962.4531"/><text fill="#0A9EFD" font-family="Roboto" font-size="14" font-weight="bold" lengthAdjust="spacing" textLength="33" x="20" y="84.5332">User</text><ellipse cx="39.5" cy="16" fill="none" rx="8" ry="8" style="stroke:#0A9EFD;stroke-width:3.0;"/><path d="M39.5,24 L39.5,51 M26.5,32 L52.5,32 M39.5,51 L26.5,66 M39.5,51 L52.5,66 " fill="none" style="stroke:#0A9EFD;stroke-width:3.0;"/><text fill="#0A9EFD" font-family="Roboto" font-size="14" font-weight="bold" lengthAdjust="spacing" textLength="33" x="20" y="975.9863">User</text><ellipse cx="39.5" cy="990.0625" fill="none" rx="8" ry="8" style="stroke:#0A9EFD;stroke-width:3.0;"/><path d="M39.5,998.0625 L39.5,1025.0625 M26.5,1006.0625 L52.5,1006.0625 M39.5,1025.0625 L26.5,1040.0625 M39.5,1025.0625 L52.5,1040.0625 " fill="none" style="stroke:#0A9EFD;stroke-width:3.0;"/><rect fill="#FFFFFF" height="31.6094" rx="2.5" ry="2.5" style="stroke:#0A9EFD;stroke-width:2.0;" width="112" x="245.5" y="55"/><text fill="#0A9EFD" font-family="Roboto" font-size="14" font-weight="bold" lengthAdjust="spacing" textLength="98" x="252.5" y="76.5332">Signaling SDK</text><rect fill="#FFFFFF" height="31.6094" rx="2.5" ry="2.5" style="stroke:#0A9EFD;stroke-width:2.0;" width="112" x="245.5" y="961.4531"/><text fill="#0A9EFD" font-family="Roboto" font-size="14" font-weight="bold" lengthAdjust="spacing" textLength="98" x="252.5" y="982.9863">Signaling SDK</text><rect fill="#FFFFFF" height="31.6094" rx="2.5" ry="2.5" style="stroke:#0A9EFD;stroke-width:2.0;" width="79" x="606" y="55"/><text fill="#0A9EFD" font-family="Roboto" font-size="14" font-weight="bold" lengthAdjust="spacing" textLength="65" x="613" y="76.5332">Signaling</text><rect fill="#FFFFFF" height="31.6094" rx="2.5" ry="2.5" style="stroke:#0A9EFD;stroke-width:2.0;" width="79" x="606" y="961.4531"/><text fill="#0A9EFD" font-family="Roboto" font-size="14" font-weight="bold" lengthAdjust="spacing" textLength="65" x="613" y="982.9863">Signaling</text><path d="M10,104.6094 L113,104.6094 L113,114.2188 L103,124.2188 L10,124.2188 L10,104.6094 " fill="#EEEEEE" style="stroke:#0A9EFD;stroke-width:1.5;"/><rect fill="none" height="234.2656" style="stroke:#0A9EFD;stroke-width:2.0;" width="685" x="10" y="104.6094"/><text fill="#0A9EFD" font-family="Roboto" font-size="14" font-weight="bold" lengthAdjust="spacing" textLength="58" x="25" y="120.1426">Initialize</text><polygon fill="#0A9EFD" points="289.5,143.8281,299.5,147.8281,289.5,151.8281,293.5,147.8281" style="stroke:#0A9EFD;stroke-width:1.0;"/><line style="stroke:#0A9EFD;stroke-width:2.0;" x1="39.5" x2="295.5" y1="147.8281" y2="147.8281"/><text fill="#0A9EFD" font-family="Roboto" font-size="14" font-weight="bold" lengthAdjust="spacing" textLength="68" x="136.5" y="142.752">Open app</text><line style="stroke:#0A9EFD;stroke-width:2.0;" x1="301.5" x2="343.5" y1="179.4375" y2="179.4375"/><line style="stroke:#0A9EFD;stroke-width:2.0;" x1="343.5" x2="343.5" y1="179.4375" y2="192.4375"/><line style="stroke:#0A9EFD;stroke-width:2.0;" x1="302.5" x2="343.5" y1="192.4375" y2="192.4375"/><polygon fill="#0A9EFD" points="312.5,188.4375,302.5,192.4375,312.5,196.4375,308.5,192.4375" style="stroke:#0A9EFD;stroke-width:1.0;"/><text fill="#0A9EFD" font-family="Roboto" font-size="14" font-weight="bold" lengthAdjust="spacing" textLength="242" x="308.5" y="174.3613">Initiate the Agora Signaling engine</text><line style="stroke:#0A9EFD;stroke-width:2.0;" x1="301.5" x2="343.5" y1="224.0469" y2="224.0469"/><line style="stroke:#0A9EFD;stroke-width:2.0;" x1="343.5" x2="343.5" y1="224.0469" y2="237.0469"/><line style="stroke:#0A9EFD;stroke-width:2.0;" x1="302.5" x2="343.5" y1="237.0469" y2="237.0469"/><polygon fill="#0A9EFD" points="312.5,233.0469,302.5,237.0469,312.5,241.0469,308.5,237.0469" style="stroke:#0A9EFD;stroke-width:1.0;"/><text fill="#0A9EFD" font-family="Roboto" font-size="14" font-weight="bold" lengthAdjust="spacing" textLength="318" x="308.5" y="218.9707">Add an event listener to the Signaling engine</text><polygon fill="#0A9EFD" points="633.5,264.6563,643.5,268.6563,633.5,272.6563,637.5,268.6563" style="stroke:#0A9EFD;stroke-width:1.0;"/><line style="stroke:#0A9EFD;stroke-width:2.0;" x1="301.5" x2="639.5" y1="268.6563" y2="268.6563"/><text fill="#0A9EFD" font-family="Roboto" font-size="14" font-weight="bold" lengthAdjust="spacing" textLength="130" x="408.5" y="263.5801">Log in to Signaling</text><line style="stroke:#0A9EFD;stroke-width:2.0;" x1="301.5" x2="343.5" y1="317.875" y2="317.875"/><line style="stroke:#0A9EFD;stroke-width:2.0;" x1="343.5" x2="343.5" y1="317.875" y2="330.875"/><line style="stroke:#0A9EFD;stroke-width:2.0;" x1="302.5" x2="343.5" y1="330.875" y2="330.875"/><polygon fill="#0A9EFD" points="312.5,326.875,302.5,330.875,312.5,334.875,308.5,330.875" style="stroke:#0A9EFD;stroke-width:1.0;"/><text fill="#0A9EFD" font-family="Roboto" font-size="14" font-weight="bold" lengthAdjust="spacing" textLength="241" x="308.5" y="295.1895">Subscribe to a messaging channel</text><text fill="#0A9EFD" font-family="Roboto" font-size="14" font-weight="bold" lengthAdjust="spacing" textLength="191" x="335.5" y="312.7988">or join a streaming channel</text><path d="M10,352.875 L264,352.875 L264,362.4844 L254,372.4844 L10,372.4844 L10,352.875 " fill="#EEEEEE" style="stroke:#0A9EFD;stroke-width:1.5;"/><rect fill="none" height="240.875" style="stroke:#0A9EFD;stroke-width:2.0;" width="685" x="10" y="352.875"/><text fill="#0A9EFD" font-family="Roboto" font-size="14" font-weight="bold" lengthAdjust="spacing" textLength="209" x="25" y="368.4082">Read and write user metadata</text><polygon fill="#0A9EFD" points="633.5,392.0938,643.5,396.0938,633.5,400.0938,637.5,396.0938" style="stroke:#0A9EFD;stroke-width:1.0;"/><line style="stroke:#0A9EFD;stroke-width:2.0;" x1="301.5" x2="639.5" y1="396.0938" y2="396.0938"/><text fill="#0A9EFD" font-family="Roboto" font-size="14" font-weight="bold" lengthAdjust="spacing" textLength="164" x="391.5" y="391.0176">Set local user metadata</text><polygon fill="#0A9EFD" points="289.5,423.7031,299.5,427.7031,289.5,431.7031,293.5,427.7031" style="stroke:#0A9EFD;stroke-width:1.0;"/><line style="stroke:#0A9EFD;stroke-width:2.0;" x1="39.5" x2="295.5" y1="427.7031" y2="427.7031"/><text fill="#0A9EFD" font-family="Roboto" font-size="14" font-weight="bold" lengthAdjust="spacing" textLength="174" x="83.5" y="422.627">Change user information</text><polygon fill="#0A9EFD" points="633.5,455.3125,643.5,459.3125,633.5,463.3125,637.5,459.3125" style="stroke:#0A9EFD;stroke-width:1.0;"/><line style="stroke:#0A9EFD;stroke-width:2.0;" x1="301.5" x2="639.5" y1="459.3125" y2="459.3125"/><text fill="#0A9EFD" font-family="Roboto" font-size="14" font-weight="bold" lengthAdjust="spacing" textLength="297" x="325" y="454.2363">Add, update, or delete local user metadata</text><polygon fill="#0A9EFD" points="633.5,486.9219,643.5,490.9219,633.5,494.9219,637.5,490.9219" style="stroke:#0A9EFD;stroke-width:1.0;"/><line style="stroke:#0A9EFD;stroke-width:2.0;" x1="301.5" x2="639.5" y1="490.9219" y2="490.9219"/><text fill="#0A9EFD" font-family="Roboto" font-size="14" font-weight="bold" lengthAdjust="spacing" textLength="273" x="337" y="485.8457">Subscribe to metadata of remote users</text><polygon fill="#0A9EFD" points="312.5,518.5313,302.5,522.5313,312.5,526.5313,308.5,522.5313" style="stroke:#0A9EFD;stroke-width:1.0;"/><line style="stroke:#0A9EFD;stroke-width:2.0;" x1="306.5" x2="644.5" y1="522.5313" y2="522.5313"/><text fill="#0A9EFD" font-family="Roboto" font-size="14" font-weight="bold" lengthAdjust="spacing" textLength="247" x="350" y="517.4551">On user metadata updated callback</text><polygon fill="#0A9EFD" points="312.5,550.1406,302.5,554.1406,312.5,558.1406,308.5,554.1406" style="stroke:#0A9EFD;stroke-width:1.0;"/><line style="stroke:#0A9EFD;stroke-width:2.0;" x1="306.5" x2="644.5" y1="554.1406" y2="554.1406"/><text fill="#0A9EFD" font-family="Roboto" font-size="14" font-weight="bold" lengthAdjust="spacing" textLength="189" x="379" y="549.0645">Retrieve channel metadata</text><polygon fill="#0A9EFD" points="50.5,581.75,40.5,585.75,50.5,589.75,46.5,585.75" style="stroke:#0A9EFD;stroke-width:1.0;"/><line style="stroke:#0A9EFD;stroke-width:2.0;" x1="44.5" x2="300.5" y1="585.75" y2="585.75"/><text fill="#0A9EFD" font-family="Roboto" font-size="14" font-weight="bold" lengthAdjust="spacing" textLength="195" x="73" y="580.6738">Update the UI or client logic</text><path d="M10,607.75 L288,607.75 L288,617.3594 L278,627.3594 L10,627.3594 L10,607.75 " fill="#EEEEEE" style="stroke:#0A9EFD;stroke-width:1.5;"/><rect fill="none" height="209.2656" style="stroke:#0A9EFD;stroke-width:2.0;" width="685" x="10" y="607.75"/><text fill="#0A9EFD" font-family="Roboto" font-size="14" font-weight="bold" lengthAdjust="spacing" textLength="233" x="25" y="623.2832">Read and write channel metadata</text><polygon fill="#0A9EFD" points="633.5,646.9688,643.5,650.9688,633.5,654.9688,637.5,650.9688" style="stroke:#0A9EFD;stroke-width:1.0;"/><line style="stroke:#0A9EFD;stroke-width:2.0;" x1="301.5" x2="639.5" y1="650.9688" y2="650.9688"/><text fill="#0A9EFD" font-family="Roboto" font-size="14" font-weight="bold" lengthAdjust="spacing" textLength="151" x="398" y="645.8926">Set channel metadata</text><polygon fill="#0A9EFD" points="289.5,678.5781,299.5,682.5781,289.5,686.5781,293.5,682.5781" style="stroke:#0A9EFD;stroke-width:1.0;"/><line style="stroke:#0A9EFD;stroke-width:2.0;" x1="39.5" x2="295.5" y1="682.5781" y2="682.5781"/><text fill="#0A9EFD" font-family="Roboto" font-size="14" font-weight="bold" lengthAdjust="spacing" textLength="194" x="73.5" y="677.502">Update channel information</text><polygon fill="#0A9EFD" points="633.5,710.1875,643.5,714.1875,633.5,718.1875,637.5,714.1875" style="stroke:#0A9EFD;stroke-width:1.0;"/><line style="stroke:#0A9EFD;stroke-width:2.0;" x1="301.5" x2="639.5" y1="714.1875" y2="714.1875"/><text fill="#0A9EFD" font-family="Roboto" font-size="14" font-weight="bold" lengthAdjust="spacing" textLength="284" x="331.5" y="709.1113">Add, update, or delete channel metadata</text><polygon fill="#0A9EFD" points="312.5,741.7969,302.5,745.7969,312.5,749.7969,308.5,745.7969" style="stroke:#0A9EFD;stroke-width:1.0;"/><line style="stroke:#0A9EFD;stroke-width:2.0;" x1="306.5" x2="644.5" y1="745.7969" y2="745.7969"/><text fill="#0A9EFD" font-family="Roboto" font-size="14" font-weight="bold" lengthAdjust="spacing" textLength="271" x="338" y="740.7207">On channel metadata updated callback</text><polygon fill="#0A9EFD" points="312.5,773.4063,302.5,777.4063,312.5,781.4063,308.5,777.4063" style="stroke:#0A9EFD;stroke-width:1.0;"/><line style="stroke:#0A9EFD;stroke-width:2.0;" x1="306.5" x2="644.5" y1="777.4063" y2="777.4063"/><text fill="#0A9EFD" font-family="Roboto" font-size="14" font-weight="bold" lengthAdjust="spacing" textLength="189" x="379" y="772.3301">Retrieve channel metadata</text><polygon fill="#0A9EFD" points="50.5,805.0156,40.5,809.0156,50.5,813.0156,46.5,809.0156" style="stroke:#0A9EFD;stroke-width:1.0;"/><line style="stroke:#0A9EFD;stroke-width:2.0;" x1="44.5" x2="300.5" y1="809.0156" y2="809.0156"/><text fill="#0A9EFD" font-family="Roboto" font-size="14" font-weight="bold" lengthAdjust="spacing" textLength="195" x="73" y="803.9395">Update the UI or client logic</text><path d="M10,831.0156 L95,831.0156 L95,840.625 L85,850.625 L10,850.625 L10,831.0156 " fill="#EEEEEE" style="stroke:#0A9EFD;stroke-width:1.5;"/><rect fill="none" height="114.4375" style="stroke:#0A9EFD;stroke-width:2.0;" width="685" x="10" y="831.0156"/><text fill="#0A9EFD" font-family="Roboto" font-size="14" font-weight="bold" lengthAdjust="spacing" textLength="40" x="25" y="846.5488">Close</text><polygon fill="#0A9EFD" points="289.5,870.2344,299.5,874.2344,289.5,878.2344,293.5,874.2344" style="stroke:#0A9EFD;stroke-width:1.0;"/><line style="stroke:#0A9EFD;stroke-width:2.0;" x1="39.5" x2="295.5" y1="874.2344" y2="874.2344"/><text fill="#0A9EFD" font-family="Roboto" font-size="14" font-weight="bold" lengthAdjust="spacing" textLength="238" x="51.5" y="869.1582">Unsubscribe or leave the channel</text><polygon fill="#0A9EFD" points="633.5,901.8438,643.5,905.8438,633.5,909.8438,637.5,905.8438" style="stroke:#0A9EFD;stroke-width:1.0;"/><line style="stroke:#0A9EFD;stroke-width:2.0;" x1="301.5" x2="639.5" y1="905.8438" y2="905.8438"/><text fill="#0A9EFD" font-family="Roboto" font-size="14" font-weight="bold" lengthAdjust="spacing" textLength="320" x="313.5" y="900.7676">Unsubscribe from user metadata notifications</text><polygon fill="#0A9EFD" points="633.5,933.4531,643.5,937.4531,633.5,941.4531,637.5,937.4531" style="stroke:#0A9EFD;stroke-width:1.0;"/><line style="stroke:#0A9EFD;stroke-width:2.0;" x1="301.5" x2="639.5" y1="937.4531" y2="937.4531"/><text fill="#0A9EFD" font-family="Roboto" font-size="14" font-weight="bold" lengthAdjust="spacing" textLength="140" x="403.5" y="932.377">Log out of Signaling</text><!--SRC=[lLFDQjmm4BxxAQO-9ts0K0fBUbbQI5ZZGw5GPkLPPnfvP2GvBNtwZhJshhNP57hfqTRtDzz8xrYCdJe2x9t7x-6PvJrFWwqgDD5vgDj0lWOCq3QxgjgxNr1_TPC77CUw6j57DZoYHAWRxWKjIm_Dfy-Pidbyh4WwKDPCtIINjtWpPtlczDvD8so58olYDrKQ0cu_9k4xU1X9KenAlqu_ZzX849y8iXkSSv7qB5JWDrq7A40lf54iXqX27gBB_BUPspluudfWIT0Jh51kfdqmdlUK80W3XO1zqZ9FA4Bscu3s-yEf1aA8dd1OdQOEblbtX2ba1pyzwsIJRaJb8dOOiOZKaCxW3DeBpBgrUzNlPn6MW_C3HdPIw6WfDp2DogMR5B8ZIsfyJRgmNq-y8C0TmDFWvk0XCpxS7XaFKihDfXseaTsZUIxGEugUTLDBH-M06QK3jbaYxw_TflJ6SbwkwzdyfTPNefVDNdLTQfrT5ym_DdlLUrNIvVb_xUdUkb2-l5R2QTLAj8GlHw7bygv7NeCFtWqN6nSN-S0cLnLUFJ0tnNI1pYyivVe3]--></g></svg>