<?xml version="1.0" encoding="us-ascii" standalone="no"?><svg xmlns="http://www.w3.org/2000/svg" xmlns:xlink="http://www.w3.org/1999/xlink" contentStyleType="text/css" height="1257px" preserveAspectRatio="none" style="width:531px;height:1257px;" version="1.1" viewBox="0 0 531 1257" width="531px" zoomAndPan="magnify"><defs/><g><rect fill="none" height="1255.4541" style="stroke:#0A9EFD;stroke-width:1.0;" width="529" x="0" y="0"/><rect fill="#999999" fill-opacity="0.33333" height="1245.4541" style="stroke:#0A9EFD;stroke-width:0.5;" width="112" x="159" y="6"/><text fill="#0A9EFD" font-family="sans-serif" font-size="13" font-weight="bold" lengthAdjust="spacing" textLength="62" x="184" y="18.5684">Your app</text><rect fill="#999999" fill-opacity="0.33333" height="1245.4541" style="stroke:#0A9EFD;stroke-width:0.5;" width="80" x="419" y="6"/><text fill="#0A9EFD" font-family="sans-serif" font-size="13" font-weight="bold" lengthAdjust="spacing" textLength="41" x="438.5" y="18.5684">Agora</text><rect fill="#0A9EFD" fill-opacity="0.06667" height="200.6924" style="stroke:#0A9EFD;stroke-width:2.0;" width="475" x="30" y="103.0986"/><rect fill="#0A9EFD" fill-opacity="0.06667" height="583.9746" style="stroke:#0A9EFD;stroke-width:2.0;" width="515" x="10" y="317.791"/><rect fill="#0A9EFD" fill-opacity="0.06667" height="379.3335" style="stroke:#0A9EFD;stroke-width:2.0;" width="495" x="20" y="457.5347"/><rect fill="#0A9EFD" fill-opacity="0.06667" height="174.6924" style="stroke:#0A9EFD;stroke-width:2.0;" width="475" x="30" y="597.2783"/><rect fill="#0A9EFD" fill-opacity="0.06667" height="145.7437" style="stroke:#0A9EFD;stroke-width:2.0;" width="475" x="30" y="915.7656"/><rect fill="#0A9EFD" fill-opacity="0.06667" height="74.8462" style="stroke:#0A9EFD;stroke-width:2.0;" width="475" x="30" y="1075.5093"/><line style="stroke:#0A9EFD;stroke-width:0.5;stroke-dasharray:5.0,5.0;" x1="58" x2="58" y1="86.0986" y2="1167.3555"/><line style="stroke:#0A9EFD;stroke-width:0.5;stroke-dasharray:5.0,5.0;" x1="215" x2="215" y1="86.0986" y2="1167.3555"/><line style="stroke:#0A9EFD;stroke-width:0.5;stroke-dasharray:5.0,5.0;" x1="459" x2="459" y1="86.0986" y2="1167.3555"/><text fill="#0A9EFD" font-family="Arial" font-size="14" lengthAdjust="spacing" textLength="30" x="40" y="83.1318">User</text><ellipse cx="58" cy="16" fill="none" rx="8" ry="8" style="stroke:#0A9EFD;stroke-width:3.0;"/><path d="M58,24 L58,51 M45,32 L71,32 M58,51 L45,66 M58,51 L71,66 " fill="none" style="stroke:#0A9EFD;stroke-width:3.0;"/><text fill="#0A9EFD" font-family="Arial" font-size="14" lengthAdjust="spacing" textLength="30" x="40" y="1179.4873">User</text><ellipse cx="58" cy="1193.4541" fill="none" rx="8" ry="8" style="stroke:#0A9EFD;stroke-width:3.0;"/><path d="M58,1201.4541 L58,1228.4541 M45,1209.4541 L71,1209.4541 M58,1228.4541 L45,1243.4541 M58,1228.4541 L71,1243.4541 " fill="none" style="stroke:#0A9EFD;stroke-width:3.0;"/><rect fill="none" height="30.0986" rx="2.5" ry="2.5" style="stroke:#0A9EFD;stroke-width:2.0;" width="104" x="163" y="55"/><text fill="#0A9EFD" font-family="Arial" font-size="14" lengthAdjust="spacing" textLength="90" x="170" y="75.1318">Signaling SDK</text><rect fill="none" height="30.0986" rx="2.5" ry="2.5" style="stroke:#0A9EFD;stroke-width:2.0;" width="104" x="163" y="1166.3555"/><text fill="#0A9EFD" font-family="Arial" font-size="14" lengthAdjust="spacing" textLength="90" x="170" y="1186.4873">Signaling SDK</text><rect fill="none" height="30.0986" rx="2.5" ry="2.5" style="stroke:#0A9EFD;stroke-width:2.0;" width="72" x="423" y="55"/><text fill="#0A9EFD" font-family="Arial" font-size="14" lengthAdjust="spacing" textLength="58" x="430" y="75.1318">Signaling</text><rect fill="none" height="30.0986" rx="2.5" ry="2.5" style="stroke:#0A9EFD;stroke-width:2.0;" width="72" x="423" y="1166.3555"/><text fill="#0A9EFD" font-family="Arial" font-size="14" lengthAdjust="spacing" textLength="58" x="430" y="1186.4873">Signaling</text><path d="M30,103.0986 L123,103.0986 L123,110.0474 L113,120.0474 L30,120.0474 L30,103.0986 " fill="#EEEEEE" style="stroke:#0A9EFD;stroke-width:1.5;"/><rect fill="none" height="200.6924" style="stroke:#0A9EFD;stroke-width:2.0;" width="475" x="30" y="103.0986"/><text fill="#000000" font-family="Arial" font-size="13" lengthAdjust="spacing" textLength="48" x="45" y="116.2925">Initialize</text><polygon fill="#0A9EFD" points="203,136.9961,213,140.9961,203,144.9961,207,140.9961" style="stroke:#0A9EFD;stroke-width:1.0;"/><line style="stroke:#0A9EFD;stroke-width:2.0;" x1="58" x2="209" y1="140.9961" y2="140.9961"/><text fill="#0A9EFD" font-family="Arial" font-size="13" lengthAdjust="spacing" textLength="56" x="108.5" y="136.2412">Open app</text><line style="stroke:#0A9EFD;stroke-width:2.0;" x1="215" x2="257" y1="169.9448" y2="169.9448"/><line style="stroke:#0A9EFD;stroke-width:2.0;" x1="257" x2="257" y1="169.9448" y2="182.9448"/><line style="stroke:#0A9EFD;stroke-width:2.0;" x1="216" x2="257" y1="182.9448" y2="182.9448"/><polygon fill="#0A9EFD" points="226,178.9448,216,182.9448,226,186.9448,222,182.9448" style="stroke:#0A9EFD;stroke-width:1.0;"/><text fill="#0A9EFD" font-family="Arial" font-size="13" lengthAdjust="spacing" textLength="197" x="222" y="165.1899">Create a signalingEngine instance</text><line style="stroke:#0A9EFD;stroke-width:2.0;" x1="215" x2="257" y1="211.8936" y2="211.8936"/><line style="stroke:#0A9EFD;stroke-width:2.0;" x1="257" x2="257" y1="211.8936" y2="224.8936"/><line style="stroke:#0A9EFD;stroke-width:2.0;" x1="216" x2="257" y1="224.8936" y2="224.8936"/><polygon fill="#0A9EFD" points="226,220.8936,216,224.8936,226,228.8936,222,224.8936" style="stroke:#0A9EFD;stroke-width:1.0;"/><text fill="#0A9EFD" font-family="Arial" font-size="13" lengthAdjust="spacing" textLength="147" x="222" y="207.1387">Add user event callbacks</text><line style="stroke:#0A9EFD;stroke-width:2.0;" x1="215" x2="257" y1="253.8423" y2="253.8423"/><line style="stroke:#0A9EFD;stroke-width:2.0;" x1="257" x2="257" y1="253.8423" y2="266.8423"/><line style="stroke:#0A9EFD;stroke-width:2.0;" x1="216" x2="257" y1="266.8423" y2="266.8423"/><polygon fill="#0A9EFD" points="226,262.8423,216,266.8423,226,270.8423,222,266.8423" style="stroke:#0A9EFD;stroke-width:1.0;"/><text fill="#0A9EFD" font-family="Arial" font-size="13" lengthAdjust="spacing" textLength="163" x="222" y="249.0874">Set the authentication token</text><polygon fill="#0A9EFD" points="447,291.791,457,295.791,447,299.791,451,295.791" style="stroke:#0A9EFD;stroke-width:1.0;"/><line style="stroke:#0A9EFD;stroke-width:2.0;" x1="215" x2="453" y1="295.791" y2="295.791"/><text fill="#0A9EFD" font-family="Arial" font-size="13" lengthAdjust="spacing" textLength="107" x="283.5" y="291.0361">Log in to Signaling</text><path d="M10,317.791 L102,317.791 L102,324.7397 L92,334.7397 L10,334.7397 L10,317.791 " fill="#EEEEEE" style="stroke:#0A9EFD;stroke-width:1.5;"/><rect fill="none" height="583.9746" style="stroke:#0A9EFD;stroke-width:2.0;" width="515" x="10" y="317.791"/><text fill="#000000" font-family="Arial" font-size="13" lengthAdjust="spacing" textLength="47" x="25" y="330.9849">Channel</text><polygon fill="#0A9EFD" points="203,351.6885,213,355.6885,203,359.6885,207,355.6885" style="stroke:#0A9EFD;stroke-width:1.0;"/><line style="stroke:#0A9EFD;stroke-width:2.0;" x1="58" x2="209" y1="355.6885" y2="355.6885"/><text fill="#0A9EFD" font-family="Arial" font-size="13" lengthAdjust="spacing" textLength="131" x="71" y="350.9336">Create stream channel</text><polygon fill="#0A9EFD" points="226,380.6372,216,384.6372,226,388.6372,222,384.6372" style="stroke:#0A9EFD;stroke-width:1.0;"/><polygon fill="#0A9EFD" points="447,380.6372,457,384.6372,447,388.6372,451,384.6372" style="stroke:#0A9EFD;stroke-width:1.0;"/><line style="stroke:#0A9EFD;stroke-width:2.0;" x1="220" x2="453" y1="384.6372" y2="384.6372"/><text fill="#0A9EFD" font-family="Arial" font-size="13" lengthAdjust="spacing" textLength="220" x="227" y="379.8823">Create channel or add user to channel</text><polygon fill="#0A9EFD" points="203,409.5859,213,413.5859,203,417.5859,207,413.5859" style="stroke:#0A9EFD;stroke-width:1.0;"/><line style="stroke:#0A9EFD;stroke-width:2.0;" x1="58" x2="209" y1="413.5859" y2="413.5859"/><text fill="#0A9EFD" font-family="Arial" font-size="13" lengthAdjust="spacing" textLength="133" x="70" y="408.8311">Subscribe to a channel</text><polygon fill="#0A9EFD" points="226,438.5347,216,442.5347,226,446.5347,222,442.5347" style="stroke:#0A9EFD;stroke-width:1.0;"/><polygon fill="#0A9EFD" points="447,438.5347,457,442.5347,447,446.5347,451,442.5347" style="stroke:#0A9EFD;stroke-width:1.0;"/><line style="stroke:#0A9EFD;stroke-width:2.0;" x1="220" x2="453" y1="442.5347" y2="442.5347"/><text fill="#0A9EFD" font-family="Arial" font-size="13" lengthAdjust="spacing" textLength="90" x="292" y="437.7798">Channel events</text><path d="M20,457.5347 L97,457.5347 L97,464.4834 L87,474.4834 L20,474.4834 L20,457.5347 " fill="#EEEEEE" style="stroke:#0A9EFD;stroke-width:1.5;"/><rect fill="none" height="379.3335" style="stroke:#0A9EFD;stroke-width:2.0;" width="495" x="20" y="457.5347"/><text fill="#000000" font-family="Arial" font-size="13" lengthAdjust="spacing" textLength="32" x="35" y="470.7285">Topic</text><polygon fill="#0A9EFD" points="203,491.4321,213,495.4321,203,499.4321,207,495.4321" style="stroke:#0A9EFD;stroke-width:1.0;"/><line style="stroke:#0A9EFD;stroke-width:2.0;" x1="58" x2="209" y1="495.4321" y2="495.4321"/><text fill="#0A9EFD" font-family="Arial" font-size="13" lengthAdjust="spacing" textLength="56" x="108.5" y="490.6772">Join topic</text><polygon fill="#0A9EFD" points="226,520.3809,216,524.3809,226,528.3809,222,524.3809" style="stroke:#0A9EFD;stroke-width:1.0;"/><polygon fill="#0A9EFD" points="447,520.3809,457,524.3809,447,528.3809,451,524.3809" style="stroke:#0A9EFD;stroke-width:1.0;"/><line style="stroke:#0A9EFD;stroke-width:2.0;" x1="220" x2="453" y1="524.3809" y2="524.3809"/><text fill="#0A9EFD" font-family="Arial" font-size="13" lengthAdjust="spacing" textLength="186" x="244" y="519.626">Create topic or add user to topic</text><polygon fill="#0A9EFD" points="203,549.3296,213,553.3296,203,557.3296,207,553.3296" style="stroke:#0A9EFD;stroke-width:1.0;"/><line style="stroke:#0A9EFD;stroke-width:2.0;" x1="58" x2="209" y1="553.3296" y2="553.3296"/><text fill="#0A9EFD" font-family="Arial" font-size="13" lengthAdjust="spacing" textLength="105" x="84" y="548.5747">Subscribe to topic</text><polygon fill="#0A9EFD" points="226,578.2783,216,582.2783,226,586.2783,222,582.2783" style="stroke:#0A9EFD;stroke-width:1.0;"/><polygon fill="#0A9EFD" points="447,578.2783,457,582.2783,447,586.2783,451,582.2783" style="stroke:#0A9EFD;stroke-width:1.0;"/><line style="stroke:#0A9EFD;stroke-width:2.0;" x1="220" x2="453" y1="582.2783" y2="582.2783"/><text fill="#0A9EFD" font-family="Arial" font-size="13" lengthAdjust="spacing" textLength="75" x="299.5" y="577.5234">Topic events</text><path d="M30,597.2783 L135,597.2783 L135,604.2271 L125,614.2271 L30,614.2271 L30,597.2783 " fill="#EEEEEE" style="stroke:#0A9EFD;stroke-width:1.5;"/><rect fill="none" height="174.6924" style="stroke:#0A9EFD;stroke-width:2.0;" width="475" x="30" y="597.2783"/><text fill="#000000" font-family="Arial" font-size="13" lengthAdjust="spacing" textLength="60" x="45" y="610.4722">Messages</text><polygon fill="#0A9EFD" points="203,631.1758,213,635.1758,203,639.1758,207,635.1758" style="stroke:#0A9EFD;stroke-width:1.0;"/><line style="stroke:#0A9EFD;stroke-width:2.0;" x1="58" x2="209" y1="635.1758" y2="635.1758"/><text fill="#0A9EFD" font-family="Arial" font-size="13" lengthAdjust="spacing" textLength="87" x="93" y="630.4209">Send message</text><polygon fill="#0A9EFD" points="447,660.1245,457,664.1245,447,668.1245,451,664.1245" style="stroke:#0A9EFD;stroke-width:1.0;"/><line style="stroke:#0A9EFD;stroke-width:2.0;" x1="215" x2="453" y1="664.1245" y2="664.1245"/><text fill="#0A9EFD" font-family="Arial" font-size="13" lengthAdjust="spacing" textLength="147" x="263.5" y="659.3696">Publish message to topic</text><polygon fill="#0A9EFD" points="226,689.0732,216,693.0732,226,697.0732,222,693.0732" style="stroke:#0A9EFD;stroke-width:1.0;"/><line style="stroke:#0A9EFD;stroke-width:2.0;" x1="220" x2="458" y1="693.0732" y2="693.0732"/><text fill="#0A9EFD" font-family="Arial" font-size="13" lengthAdjust="spacing" textLength="115" x="279.5" y="688.3184">Message from topic</text><line style="stroke:#0A9EFD;stroke-width:2.0;" x1="215" x2="257" y1="722.022" y2="722.022"/><line style="stroke:#0A9EFD;stroke-width:2.0;" x1="257" x2="257" y1="722.022" y2="735.022"/><line style="stroke:#0A9EFD;stroke-width:2.0;" x1="216" x2="257" y1="735.022" y2="735.022"/><polygon fill="#0A9EFD" points="226,731.022,216,735.022,226,739.022,222,735.022" style="stroke:#0A9EFD;stroke-width:1.0;"/><text fill="#0A9EFD" font-family="Arial" font-size="13" lengthAdjust="spacing" textLength="154" x="222" y="717.2671">Listen for message events</text><polygon fill="#0A9EFD" points="69,759.9707,59,763.9707,69,767.9707,65,763.9707" style="stroke:#0A9EFD;stroke-width:1.0;"/><line style="stroke:#0A9EFD;stroke-width:2.0;" x1="63" x2="214" y1="763.9707" y2="763.9707"/><text fill="#0A9EFD" font-family="Arial" font-size="13" lengthAdjust="spacing" textLength="104" x="84.5" y="759.2158">Receive message</text><polygon fill="#0A9EFD" points="203,795.9194,213,799.9194,203,803.9194,207,799.9194" style="stroke:#0A9EFD;stroke-width:1.0;"/><line style="stroke:#0A9EFD;stroke-width:2.0;" x1="58" x2="209" y1="799.9194" y2="799.9194"/><text fill="#0A9EFD" font-family="Arial" font-size="13" lengthAdjust="spacing" textLength="67" x="103" y="795.1646">Leave topic</text><polygon fill="#0A9EFD" points="226,824.8682,216,828.8682,226,832.8682,222,828.8682" style="stroke:#0A9EFD;stroke-width:1.0;"/><polygon fill="#0A9EFD" points="447,824.8682,457,828.8682,447,832.8682,451,828.8682" style="stroke:#0A9EFD;stroke-width:1.0;"/><line style="stroke:#0A9EFD;stroke-width:2.0;" x1="220" x2="453" y1="828.8682" y2="828.8682"/><text fill="#0A9EFD" font-family="Arial" font-size="13" lengthAdjust="spacing" textLength="67" x="303.5" y="824.1133">Leave topic</text><polygon fill="#0A9EFD" points="203,860.8169,213,864.8169,203,868.8169,207,864.8169" style="stroke:#0A9EFD;stroke-width:1.0;"/><line style="stroke:#0A9EFD;stroke-width:2.0;" x1="58" x2="209" y1="864.8169" y2="864.8169"/><text fill="#0A9EFD" font-family="Arial" font-size="13" lengthAdjust="spacing" textLength="84" x="94.5" y="860.062">Leave channel</text><polygon fill="#0A9EFD" points="226,889.7656,216,893.7656,226,897.7656,222,893.7656" style="stroke:#0A9EFD;stroke-width:1.0;"/><polygon fill="#0A9EFD" points="447,889.7656,457,893.7656,447,897.7656,451,893.7656" style="stroke:#0A9EFD;stroke-width:1.0;"/><line style="stroke:#0A9EFD;stroke-width:2.0;" x1="220" x2="453" y1="893.7656" y2="893.7656"/><text fill="#0A9EFD" font-family="Arial" font-size="13" lengthAdjust="spacing" textLength="84" x="295" y="889.0107">Leave channel</text><path d="M30,915.7656 L130,915.7656 L130,922.7144 L120,932.7144 L30,932.7144 L30,915.7656 " fill="#EEEEEE" style="stroke:#0A9EFD;stroke-width:1.5;"/><rect fill="none" height="145.7437" style="stroke:#0A9EFD;stroke-width:2.0;" width="475" x="30" y="915.7656"/><text fill="#000000" font-family="Arial" font-size="13" lengthAdjust="spacing" textLength="55" x="45" y="928.9595">Presence</text><polygon fill="#0A9EFD" points="203,949.6631,213,953.6631,203,957.6631,207,953.6631" style="stroke:#0A9EFD;stroke-width:1.0;"/><line style="stroke:#0A9EFD;stroke-width:2.0;" x1="58" x2="209" y1="953.6631" y2="953.6631"/><text fill="#0A9EFD" font-family="Arial" font-size="13" lengthAdjust="spacing" textLength="84" x="94.5" y="948.9082">Change status</text><line style="stroke:#0A9EFD;stroke-width:2.0;" x1="215" x2="257" y1="982.6118" y2="982.6118"/><line style="stroke:#0A9EFD;stroke-width:2.0;" x1="257" x2="257" y1="982.6118" y2="995.6118"/><line style="stroke:#0A9EFD;stroke-width:2.0;" x1="216" x2="257" y1="995.6118" y2="995.6118"/><polygon fill="#0A9EFD" points="226,991.6118,216,995.6118,226,999.6118,222,995.6118" style="stroke:#0A9EFD;stroke-width:1.0;"/><text fill="#0A9EFD" font-family="Arial" font-size="13" lengthAdjust="spacing" textLength="122" x="222" y="977.8569">listen for user events</text><polygon fill="#0A9EFD" points="226,1020.5605,216,1024.5605,226,1028.5605,222,1024.5605" style="stroke:#0A9EFD;stroke-width:1.0;"/><line style="stroke:#0A9EFD;stroke-width:2.0;" x1="220" x2="458" y1="1024.5605" y2="1024.5605"/><text fill="#0A9EFD" font-family="Arial" font-size="13" lengthAdjust="spacing" textLength="147" x="263.5" y="1019.8057">ConnectionStateChanged</text><polygon fill="#0A9EFD" points="69,1049.5093,59,1053.5093,69,1057.5093,65,1053.5093" style="stroke:#0A9EFD;stroke-width:1.0;"/><line style="stroke:#0A9EFD;stroke-width:2.0;" x1="63" x2="214" y1="1053.5093" y2="1053.5093"/><text fill="#0A9EFD" font-family="Arial" font-size="13" lengthAdjust="spacing" textLength="73" x="100" y="1048.7544">Inform users</text><path d="M30,1075.5093 L108,1075.5093 L108,1082.458 L98,1092.458 L30,1092.458 L30,1075.5093 " fill="#EEEEEE" style="stroke:#0A9EFD;stroke-width:1.5;"/><rect fill="none" height="74.8462" style="stroke:#0A9EFD;stroke-width:2.0;" width="475" x="30" y="1075.5093"/><text fill="#000000" font-family="Arial" font-size="13" lengthAdjust="spacing" textLength="33" x="45" y="1088.7031">Close</text><polygon fill="#0A9EFD" points="203,1109.4067,213,1113.4067,203,1117.4067,207,1113.4067" style="stroke:#0A9EFD;stroke-width:1.0;"/><line style="stroke:#0A9EFD;stroke-width:2.0;" x1="58" x2="209" y1="1113.4067" y2="1113.4067"/><text fill="#0A9EFD" font-family="Arial" font-size="13" lengthAdjust="spacing" textLength="43" x="115" y="1108.6519">Log out</text><polygon fill="#0A9EFD" points="447,1138.3555,457,1142.3555,447,1146.3555,451,1142.3555" style="stroke:#0A9EFD;stroke-width:1.0;"/><line style="stroke:#0A9EFD;stroke-width:2.0;" x1="215" x2="453" y1="1142.3555" y2="1142.3555"/><text fill="#0A9EFD" font-family="Arial" font-size="13" lengthAdjust="spacing" textLength="115" x="279.5" y="1137.6006">Log out of Signaling</text><!--SRC=[TLDDRwCm4BtpAsQvDxr7rKfHkWUwMJKgsqDFrM0cn0hOo1_HQdzznyGEk4ql83ppthmtFF-GIlI-9LYjxi-o9NrdszCzTjhWkpr9jP9-w8i2XTC6obTBfWIqy5g_54MZ_q7vfhq17CUo6D4uAUI8oa5PoqvXBrK7zUFl2RBPxmjIBJ0gGZTXodUuYAbcJ6Uq7w5Iqadk-4y5Yu2xdu5u3SyZgI2ZuA_huTOGEW84crX_gKug0gciGoKewzwqBNWs27GcbYAmxniK9virrUJ07PdJyrEnRdHIAt3wH6fkhDQmqnsFuG9SBGKhoSRsY4eHRtPf8kgrZjy3YDWIM1yIRMo9DU2VWaasZqgG9Mdj6okCR2Wqu8ArYgnXSAIRdDkayQyUfSYudlHaAHpVKZLLFcjoNrWoHObjeMQQcxHSfFmXQx4Zc- -h3jaOBgLi-NlVzD8UKssUCmrAy4WA1wE7XQjKtadhE5G7zfDuegROnLBMy4A2v9ckCi8_NchS4PxfriwMXMzGDnEGbnQHsXko54ATPueRkv0fT3wFSZ_xcsDlimrjDGyH8U4ru-d2rMR-AyK4myHWBpvYm7jjyoiQReJsxiijuJFGXq_Nv0C0]--></g></svg>