<?xml version="1.0" encoding="us-ascii" standalone="no"?><svg xmlns="http://www.w3.org/2000/svg" xmlns:xlink="http://www.w3.org/1999/xlink" contentStyleType="text/css" height="1003px" preserveAspectRatio="none" style="width:527px;height:1003px;background:#FFFFFF;" version="1.1" viewBox="0 0 527 1003" width="527px" zoomAndPan="magnify"><defs><style type="text/css">@import url('https://fonts.googleapis.com/css?family=Roboto:400,100,100italic,300,300italic,400italic,500,500italic,700,700italic,900,900italic');</style></defs><g><rect fill="none" height="1001.6953" style="stroke:#0A9EFD;stroke-width:1.0;" width="525.5" x="0" y="0"/><rect fill="#F3F3F3" height="991.6953" style="stroke:#0A9EFD;stroke-width:0.5;" width="123" x="141.5" y="6"/><text fill="#0A9EFD" font-family="sans-serif" font-size="13" font-weight="bold" lengthAdjust="spacing" textLength="62" x="172" y="18.5684">Your app</text><rect fill="#F3F3F3" height="991.6953" style="stroke:#0A9EFD;stroke-width:0.5;" width="89" x="416.5" y="6"/><text fill="#0A9EFD" font-family="sans-serif" font-size="13" font-weight="bold" lengthAdjust="spacing" textLength="41" x="440.5" y="18.5684">Agora</text><rect fill="#FFFFFF" height="209.9297" style="stroke:#0A9EFD;stroke-width:2.0;" width="491.5" x="20" y="103.4883"/><rect fill="#FFFFFF" height="307.8828" style="stroke:#0A9EFD;stroke-width:2.0;" width="511.5" x="10" y="327.418"/><rect fill="#FFFFFF" height="183.9297" style="stroke:#0A9EFD;stroke-width:2.0;" width="491.5" x="20" y="413.8828"/><rect fill="#FFFFFF" height="153.4414" style="stroke:#0A9EFD;stroke-width:2.0;" width="491.5" x="20" y="649.3008"/><rect fill="#FFFFFF" height="79.4648" style="stroke:#0A9EFD;stroke-width:2.0;" width="491.5" x="20" y="816.7422"/><line style="stroke:#0A9EFD;stroke-width:0.5;stroke-dasharray:5.0,5.0;" x1="49" x2="49" y1="86.4883" y2="913.207"/><line style="stroke:#0A9EFD;stroke-width:0.5;stroke-dasharray:5.0,5.0;" x1="202.5" x2="202.5" y1="86.4883" y2="913.207"/><line style="stroke:#0A9EFD;stroke-width:0.5;stroke-dasharray:5.0,5.0;" x1="460.5" x2="460.5" y1="86.4883" y2="913.207"/><text fill="#0A9EFD" font-family="Roboto" font-size="14" font-weight="bold" lengthAdjust="spacing" textLength="32" x="30" y="83.5352">User</text><ellipse cx="49" cy="16" fill="none" rx="8" ry="8" style="stroke:#0A9EFD;stroke-width:3.0;"/><path d="M49,24 L49,51 M36,32 L62,32 M49,51 L36,66 M49,51 L62,66 " fill="none" style="stroke:#0A9EFD;stroke-width:3.0;"/><text fill="#0A9EFD" font-family="Roboto" font-size="14" font-weight="bold" lengthAdjust="spacing" textLength="32" x="30" y="925.7422">User</text><ellipse cx="49" cy="939.6953" fill="none" rx="8" ry="8" style="stroke:#0A9EFD;stroke-width:3.0;"/><path d="M49,947.6953 L49,974.6953 M36,955.6953 L62,955.6953 M49,974.6953 L36,989.6953 M49,974.6953 L62,989.6953 " fill="none" style="stroke:#0A9EFD;stroke-width:3.0;"/><rect fill="#FFFFFF" height="30.4883" rx="2.5" ry="2.5" style="stroke:#0A9EFD;stroke-width:2.0;" width="115" x="145.5" y="55"/><text fill="#0A9EFD" font-family="Roboto" font-size="14" font-weight="bold" lengthAdjust="spacing" textLength="101" x="152.5" y="75.5352">Signaling SDK</text><rect fill="#FFFFFF" height="30.4883" rx="2.5" ry="2.5" style="stroke:#0A9EFD;stroke-width:2.0;" width="115" x="145.5" y="912.207"/><text fill="#0A9EFD" font-family="Roboto" font-size="14" font-weight="bold" lengthAdjust="spacing" textLength="101" x="152.5" y="932.7422">Signaling SDK</text><rect fill="#FFFFFF" height="30.4883" rx="2.5" ry="2.5" style="stroke:#0A9EFD;stroke-width:2.0;" width="81" x="420.5" y="55"/><text fill="#0A9EFD" font-family="Roboto" font-size="14" font-weight="bold" lengthAdjust="spacing" textLength="67" x="427.5" y="75.5352">Signaling</text><rect fill="#FFFFFF" height="30.4883" rx="2.5" ry="2.5" style="stroke:#0A9EFD;stroke-width:2.0;" width="81" x="420.5" y="912.207"/><text fill="#0A9EFD" font-family="Roboto" font-size="14" font-weight="bold" lengthAdjust="spacing" textLength="67" x="427.5" y="932.7422">Signaling</text><path d="M20,103.4883 L129,103.4883 L129,111.9766 L119,121.9766 L20,121.9766 L20,103.4883 " fill="#EEEEEE" style="stroke:#0A9EFD;stroke-width:1.5;"/><rect fill="none" height="209.9297" style="stroke:#0A9EFD;stroke-width:2.0;" width="491.5" x="20" y="103.4883"/><text fill="#0A9EFD" font-family="Roboto" font-size="14" font-weight="bold" lengthAdjust="spacing" textLength="64" x="35" y="118.0234">Initialize</text><polygon fill="#0A9EFD" points="191,140.4648,201,144.4648,191,148.4648,195,144.4648" style="stroke:#0A9EFD;stroke-width:1.0;"/><line style="stroke:#0A9EFD;stroke-width:2.0;" x1="49" x2="197" y1="144.4648" y2="144.4648"/><text fill="#0A9EFD" font-family="Roboto" font-size="14" font-weight="bold" lengthAdjust="spacing" textLength="69" x="91.5" y="139.5117">Open app</text><line style="stroke:#0A9EFD;stroke-width:2.0;" x1="203" x2="245" y1="174.9531" y2="174.9531"/><line style="stroke:#0A9EFD;stroke-width:2.0;" x1="245" x2="245" y1="174.9531" y2="187.9531"/><line style="stroke:#0A9EFD;stroke-width:2.0;" x1="204" x2="245" y1="187.9531" y2="187.9531"/><polygon fill="#0A9EFD" points="214,183.9531,204,187.9531,214,191.9531,210,187.9531" style="stroke:#0A9EFD;stroke-width:1.0;"/><text fill="#0A9EFD" font-family="Roboto" font-size="14" font-weight="bold" lengthAdjust="spacing" textLength="244" x="210" y="170">Create a signalingEngine instance</text><line style="stroke:#0A9EFD;stroke-width:2.0;" x1="203" x2="245" y1="218.4414" y2="218.4414"/><line style="stroke:#0A9EFD;stroke-width:2.0;" x1="245" x2="245" y1="218.4414" y2="231.4414"/><line style="stroke:#0A9EFD;stroke-width:2.0;" x1="204" x2="245" y1="231.4414" y2="231.4414"/><polygon fill="#0A9EFD" points="214,227.4414,204,231.4414,214,235.4414,210,231.4414" style="stroke:#0A9EFD;stroke-width:1.0;"/><text fill="#0A9EFD" font-family="Roboto" font-size="14" font-weight="bold" lengthAdjust="spacing" textLength="179" x="210" y="213.4883">Add user event callbacks</text><line style="stroke:#0A9EFD;stroke-width:2.0;" x1="203" x2="245" y1="261.9297" y2="261.9297"/><line style="stroke:#0A9EFD;stroke-width:2.0;" x1="245" x2="245" y1="261.9297" y2="274.9297"/><line style="stroke:#0A9EFD;stroke-width:2.0;" x1="204" x2="245" y1="274.9297" y2="274.9297"/><polygon fill="#0A9EFD" points="214,270.9297,204,274.9297,214,278.9297,210,274.9297" style="stroke:#0A9EFD;stroke-width:1.0;"/><text fill="#0A9EFD" font-family="Roboto" font-size="14" font-weight="bold" lengthAdjust="spacing" textLength="205" x="210" y="256.9766">Set the authentication token</text><polygon fill="#0A9EFD" points="449,301.418,459,305.418,449,309.418,453,305.418" style="stroke:#0A9EFD;stroke-width:1.0;"/><line style="stroke:#0A9EFD;stroke-width:2.0;" x1="203" x2="455" y1="305.418" y2="305.418"/><text fill="#0A9EFD" font-family="Roboto" font-size="14" font-weight="bold" lengthAdjust="spacing" textLength="137" x="263.5" y="300.4648">Log in to Signaling</text><path d="M10,327.418 L95,327.418 L95,335.9063 L85,345.9063 L10,345.9063 L10,327.418 " fill="#EEEEEE" style="stroke:#0A9EFD;stroke-width:1.5;"/><rect fill="none" height="307.8828" style="stroke:#0A9EFD;stroke-width:2.0;" width="511.5" x="10" y="327.418"/><text fill="#0A9EFD" font-family="Roboto" font-size="14" font-weight="bold" lengthAdjust="spacing" textLength="40" x="25" y="341.9531">Topic</text><polygon fill="#0A9EFD" points="191,364.3945,201,368.3945,191,372.3945,195,368.3945" style="stroke:#0A9EFD;stroke-width:1.0;"/><line style="stroke:#0A9EFD;stroke-width:2.0;" x1="49" x2="197" y1="368.3945" y2="368.3945"/><text fill="#0A9EFD" font-family="Roboto" font-size="14" font-weight="bold" lengthAdjust="spacing" textLength="70" x="91" y="363.4414">Join topic</text><polygon fill="#0A9EFD" points="191,394.8828,201,398.8828,191,402.8828,195,398.8828" style="stroke:#0A9EFD;stroke-width:1.0;"/><line style="stroke:#0A9EFD;stroke-width:2.0;" x1="49" x2="197" y1="398.8828" y2="398.8828"/><text fill="#0A9EFD" font-family="Roboto" font-size="14" font-weight="bold" lengthAdjust="spacing" textLength="130" x="61" y="393.9297">Subscribe to topic</text><path d="M20,413.8828 L135,413.8828 L135,422.3711 L125,432.3711 L20,432.3711 L20,413.8828 " fill="#EEEEEE" style="stroke:#0A9EFD;stroke-width:1.5;"/><rect fill="none" height="183.9297" style="stroke:#0A9EFD;stroke-width:2.0;" width="491.5" x="20" y="413.8828"/><text fill="#0A9EFD" font-family="Roboto" font-size="14" font-weight="bold" lengthAdjust="spacing" textLength="70" x="35" y="428.418">Messages</text><polygon fill="#0A9EFD" points="191,450.8594,201,454.8594,191,458.8594,195,454.8594" style="stroke:#0A9EFD;stroke-width:1.0;"/><line style="stroke:#0A9EFD;stroke-width:2.0;" x1="49" x2="197" y1="454.8594" y2="454.8594"/><text fill="#0A9EFD" font-family="Roboto" font-size="14" font-weight="bold" lengthAdjust="spacing" textLength="102" x="75" y="449.9063">Send message</text><polygon fill="#0A9EFD" points="449,481.3477,459,485.3477,449,489.3477,453,485.3477" style="stroke:#0A9EFD;stroke-width:1.0;"/><line style="stroke:#0A9EFD;stroke-width:2.0;" x1="203" x2="455" y1="485.3477" y2="485.3477"/><text fill="#0A9EFD" font-family="Roboto" font-size="14" font-weight="bold" lengthAdjust="spacing" textLength="155" x="254.5" y="480.3945">sendMessageToTopic</text><polygon fill="#0A9EFD" points="214,511.8359,204,515.8359,214,519.8359,210,515.8359" style="stroke:#0A9EFD;stroke-width:1.0;"/><line style="stroke:#0A9EFD;stroke-width:2.0;" x1="208" x2="460" y1="515.8359" y2="515.8359"/><text fill="#0A9EFD" font-family="Roboto" font-size="14" font-weight="bold" lengthAdjust="spacing" textLength="139" x="262.5" y="510.8828">MessageFromTopic</text><line style="stroke:#0A9EFD;stroke-width:2.0;" x1="203" x2="245" y1="546.3242" y2="546.3242"/><line style="stroke:#0A9EFD;stroke-width:2.0;" x1="245" x2="245" y1="546.3242" y2="559.3242"/><line style="stroke:#0A9EFD;stroke-width:2.0;" x1="204" x2="245" y1="559.3242" y2="559.3242"/><polygon fill="#0A9EFD" points="214,555.3242,204,559.3242,214,563.3242,210,559.3242" style="stroke:#0A9EFD;stroke-width:1.0;"/><text fill="#0A9EFD" font-family="Roboto" font-size="14" font-weight="bold" lengthAdjust="spacing" textLength="187" x="210" y="541.3711">listen for message events</text><polygon fill="#0A9EFD" points="60,585.8125,50,589.8125,60,593.8125,56,589.8125" style="stroke:#0A9EFD;stroke-width:1.0;"/><line style="stroke:#0A9EFD;stroke-width:2.0;" x1="54" x2="202" y1="589.8125" y2="589.8125"/><text fill="#0A9EFD" font-family="Roboto" font-size="14" font-weight="bold" lengthAdjust="spacing" textLength="122" x="65" y="584.8594">Receive message</text><polygon fill="#0A9EFD" points="191,623.3008,201,627.3008,191,631.3008,195,627.3008" style="stroke:#0A9EFD;stroke-width:1.0;"/><line style="stroke:#0A9EFD;stroke-width:2.0;" x1="49" x2="197" y1="627.3008" y2="627.3008"/><text fill="#0A9EFD" font-family="Roboto" font-size="14" font-weight="bold" lengthAdjust="spacing" textLength="81" x="85.5" y="622.3477">Leave topic</text><path d="M20,649.3008 L128,649.3008 L128,657.7891 L118,667.7891 L20,667.7891 L20,649.3008 " fill="#EEEEEE" style="stroke:#0A9EFD;stroke-width:1.5;"/><rect fill="none" height="153.4414" style="stroke:#0A9EFD;stroke-width:2.0;" width="491.5" x="20" y="649.3008"/><text fill="#0A9EFD" font-family="Roboto" font-size="14" font-weight="bold" lengthAdjust="spacing" textLength="63" x="35" y="663.8359">Presence</text><polygon fill="#0A9EFD" points="191,686.2773,201,690.2773,191,694.2773,195,690.2773" style="stroke:#0A9EFD;stroke-width:1.0;"/><line style="stroke:#0A9EFD;stroke-width:2.0;" x1="49" x2="197" y1="690.2773" y2="690.2773"/><text fill="#0A9EFD" font-family="Roboto" font-size="14" font-weight="bold" lengthAdjust="spacing" textLength="103" x="74.5" y="685.3242">Change status</text><line style="stroke:#0A9EFD;stroke-width:2.0;" x1="203" x2="245" y1="720.7656" y2="720.7656"/><line style="stroke:#0A9EFD;stroke-width:2.0;" x1="245" x2="245" y1="720.7656" y2="733.7656"/><line style="stroke:#0A9EFD;stroke-width:2.0;" x1="204" x2="245" y1="733.7656" y2="733.7656"/><polygon fill="#0A9EFD" points="214,729.7656,204,733.7656,214,737.7656,210,733.7656" style="stroke:#0A9EFD;stroke-width:1.0;"/><text fill="#0A9EFD" font-family="Roboto" font-size="14" font-weight="bold" lengthAdjust="spacing" textLength="155" x="210" y="715.8125">listen for user events</text><polygon fill="#0A9EFD" points="214,760.2539,204,764.2539,214,768.2539,210,764.2539" style="stroke:#0A9EFD;stroke-width:1.0;"/><line style="stroke:#0A9EFD;stroke-width:2.0;" x1="208" x2="460" y1="764.2539" y2="764.2539"/><text fill="#0A9EFD" font-family="Roboto" font-size="14" font-weight="bold" lengthAdjust="spacing" textLength="179" x="242.5" y="759.3008">ConnectionStateChanged</text><polygon fill="#0A9EFD" points="60,790.7422,50,794.7422,60,798.7422,56,794.7422" style="stroke:#0A9EFD;stroke-width:1.0;"/><line style="stroke:#0A9EFD;stroke-width:2.0;" x1="54" x2="202" y1="794.7422" y2="794.7422"/><text fill="#0A9EFD" font-family="Roboto" font-size="14" font-weight="bold" lengthAdjust="spacing" textLength="93" x="79.5" y="789.7891">Inform users</text><path d="M20,816.7422 L105,816.7422 L105,825.2305 L95,835.2305 L20,835.2305 L20,816.7422 " fill="#EEEEEE" style="stroke:#0A9EFD;stroke-width:1.5;"/><rect fill="none" height="79.4648" style="stroke:#0A9EFD;stroke-width:2.0;" width="491.5" x="20" y="816.7422"/><text fill="#0A9EFD" font-family="Roboto" font-size="14" font-weight="bold" lengthAdjust="spacing" textLength="40" x="35" y="831.2773">Close</text><polygon fill="#0A9EFD" points="191,853.7188,201,857.7188,191,861.7188,195,857.7188" style="stroke:#0A9EFD;stroke-width:1.0;"/><line style="stroke:#0A9EFD;stroke-width:2.0;" x1="49" x2="197" y1="857.7188" y2="857.7188"/><text fill="#0A9EFD" font-family="Roboto" font-size="14" font-weight="bold" lengthAdjust="spacing" textLength="55" x="98.5" y="852.7656">Log out</text><polygon fill="#0A9EFD" points="449,884.207,459,888.207,449,892.207,453,888.207" style="stroke:#0A9EFD;stroke-width:1.0;"/><line style="stroke:#0A9EFD;stroke-width:2.0;" x1="203" x2="455" y1="888.207" y2="888.207"/><text fill="#0A9EFD" font-family="Roboto" font-size="14" font-weight="bold" lengthAdjust="spacing" textLength="147" x="258.5" y="883.2539">Log out of Signaling</text><!--SRC=[TLBBRjj03BplLp2wnxdx4C1m4q1fYXYMS-Yfe5UCGbZc2limYdvzkPOYUnFa8a0aPpZ3sHiMswUMOB6uEt5BxZQqXplidCS_uS2ou7JiZK4RdOVgDP2l00EyDbjZzkulLBzTye33K9a1VMJB0qg4gk5Ei6VfeFdnymnPRJQ6f0L5JT1Ltl8TRiBK5qpdNHgW5ewi4__8g0YulS_4ItWPIB8CetzpSUq98m52-61za8w5W2L454l5zAfj8Qb1e1Ef58jzlqTx2CLGGn7Ykt8c_OhgniXE8Be3oMMmNiApwtIDDc2sbArysDYvWMtXuCcTnp-NcxGFrlEUCjNO7Xb-KGZOKJ3bU3xNSMmLUe8s9iZEZTkrNy_0gVVetN7iNhlkEKIzxvk-WObxFD9y6vMmX2rPuXFDwxFTQstFX2UQF8otcAniFAayZQCONx-Zw29DAgRmdPnBOA6mitOYP7CsZU9fv6eBkRKemV7C4CnrDklUXV9rvJ1TYby2rXgujqy9_mS0]--></g></svg>