<?xml version="1.0" encoding="us-ascii" standalone="no"?><svg xmlns="http://www.w3.org/2000/svg" xmlns:xlink="http://www.w3.org/1999/xlink" contentStyleType="text/css" height="1310px" preserveAspectRatio="none" style="width:618px;height:1310px;background:#FFFFFF;" version="1.1" viewBox="0 0 618 1310" width="618px" zoomAndPan="magnify"><defs><style type="text/css">@import url('https://fonts.googleapis.com/css?family=Roboto:400,100,100italic,300,300italic,400italic,500,500italic,700,700italic,900,900italic');</style></defs><g><rect fill="none" height="1308.5781" style="stroke:#0A9EFD;stroke-width:1.0;" width="616.5" x="0" y="0"/><rect fill="#F3F3F3" height="1298.5781" style="stroke:#0A9EFD;stroke-width:0.5;" width="123" x="183.5" y="6"/><text fill="#0A9EFD" font-family="sans-serif" font-size="13" font-weight="bold" lengthAdjust="spacing" textLength="62" x="214" y="18.5684">Your app</text><rect fill="#F3F3F3" height="1298.5781" style="stroke:#0A9EFD;stroke-width:0.5;" width="89" x="497.5" y="6"/><text fill="#0A9EFD" font-family="sans-serif" font-size="13" font-weight="bold" lengthAdjust="spacing" textLength="41" x="521.5" y="18.5684">Agora</text><rect fill="#FFFFFF" height="209.9297" style="stroke:#0A9EFD;stroke-width:2.0;" width="562.5" x="30" y="103.4883"/><rect fill="#FFFFFF" height="614.7656" style="stroke:#0A9EFD;stroke-width:2.0;" width="602.5" x="10" y="327.418"/><rect fill="#FFFFFF" height="399.3477" style="stroke:#0A9EFD;stroke-width:2.0;" width="582.5" x="20" y="474.8594"/><rect fill="#FFFFFF" height="183.9297" style="stroke:#0A9EFD;stroke-width:2.0;" width="562.5" x="30" y="622.3008"/><rect fill="#FFFFFF" height="153.4414" style="stroke:#0A9EFD;stroke-width:2.0;" width="562.5" x="30" y="956.1836"/><rect fill="#FFFFFF" height="79.4648" style="stroke:#0A9EFD;stroke-width:2.0;" width="562.5" x="30" y="1123.625"/><line style="stroke:#0A9EFD;stroke-width:0.5;stroke-dasharray:5.0,5.0;" x1="59" x2="59" y1="86.4883" y2="1220.0898"/><line style="stroke:#0A9EFD;stroke-width:0.5;stroke-dasharray:5.0,5.0;" x1="244.5" x2="244.5" y1="86.4883" y2="1220.0898"/><line style="stroke:#0A9EFD;stroke-width:0.5;stroke-dasharray:5.0,5.0;" x1="541.5" x2="541.5" y1="86.4883" y2="1220.0898"/><text fill="#0A9EFD" font-family="Roboto" font-size="14" font-weight="bold" lengthAdjust="spacing" textLength="32" x="40" y="83.5352">User</text><ellipse cx="59" cy="16" fill="none" rx="8" ry="8" style="stroke:#0A9EFD;stroke-width:3.0;"/><path d="M59,24 L59,51 M46,32 L72,32 M59,51 L46,66 M59,51 L72,66 " fill="none" style="stroke:#0A9EFD;stroke-width:3.0;"/><text fill="#0A9EFD" font-family="Roboto" font-size="14" font-weight="bold" lengthAdjust="spacing" textLength="32" x="40" y="1232.625">User</text><ellipse cx="59" cy="1246.5781" fill="none" rx="8" ry="8" style="stroke:#0A9EFD;stroke-width:3.0;"/><path d="M59,1254.5781 L59,1281.5781 M46,1262.5781 L72,1262.5781 M59,1281.5781 L46,1296.5781 M59,1281.5781 L72,1296.5781 " fill="none" style="stroke:#0A9EFD;stroke-width:3.0;"/><rect fill="#FFFFFF" height="30.4883" rx="2.5" ry="2.5" style="stroke:#0A9EFD;stroke-width:2.0;" width="115" x="187.5" y="55"/><text fill="#0A9EFD" font-family="Roboto" font-size="14" font-weight="bold" lengthAdjust="spacing" textLength="101" x="194.5" y="75.5352">Signaling SDK</text><rect fill="#FFFFFF" height="30.4883" rx="2.5" ry="2.5" style="stroke:#0A9EFD;stroke-width:2.0;" width="115" x="187.5" y="1219.0898"/><text fill="#0A9EFD" font-family="Roboto" font-size="14" font-weight="bold" lengthAdjust="spacing" textLength="101" x="194.5" y="1239.625">Signaling SDK</text><rect fill="#FFFFFF" height="30.4883" rx="2.5" ry="2.5" style="stroke:#0A9EFD;stroke-width:2.0;" width="81" x="501.5" y="55"/><text fill="#0A9EFD" font-family="Roboto" font-size="14" font-weight="bold" lengthAdjust="spacing" textLength="67" x="508.5" y="75.5352">Signaling</text><rect fill="#FFFFFF" height="30.4883" rx="2.5" ry="2.5" style="stroke:#0A9EFD;stroke-width:2.0;" width="81" x="501.5" y="1219.0898"/><text fill="#0A9EFD" font-family="Roboto" font-size="14" font-weight="bold" lengthAdjust="spacing" textLength="67" x="508.5" y="1239.625">Signaling</text><path d="M30,103.4883 L139,103.4883 L139,111.9766 L129,121.9766 L30,121.9766 L30,103.4883 " fill="#EEEEEE" style="stroke:#0A9EFD;stroke-width:1.5;"/><rect fill="none" height="209.9297" style="stroke:#0A9EFD;stroke-width:2.0;" width="562.5" x="30" y="103.4883"/><text fill="#0A9EFD" font-family="Roboto" font-size="14" font-weight="bold" lengthAdjust="spacing" textLength="64" x="45" y="118.0234">Initialize</text><polygon fill="#0A9EFD" points="233,140.4648,243,144.4648,233,148.4648,237,144.4648" style="stroke:#0A9EFD;stroke-width:1.0;"/><line style="stroke:#0A9EFD;stroke-width:2.0;" x1="59" x2="239" y1="144.4648" y2="144.4648"/><text fill="#0A9EFD" font-family="Roboto" font-size="14" font-weight="bold" lengthAdjust="spacing" textLength="69" x="117.5" y="139.5117">Open app</text><line style="stroke:#0A9EFD;stroke-width:2.0;" x1="245" x2="287" y1="174.9531" y2="174.9531"/><line style="stroke:#0A9EFD;stroke-width:2.0;" x1="287" x2="287" y1="174.9531" y2="187.9531"/><line style="stroke:#0A9EFD;stroke-width:2.0;" x1="246" x2="287" y1="187.9531" y2="187.9531"/><polygon fill="#0A9EFD" points="256,183.9531,246,187.9531,256,191.9531,252,187.9531" style="stroke:#0A9EFD;stroke-width:1.0;"/><text fill="#0A9EFD" font-family="Roboto" font-size="14" font-weight="bold" lengthAdjust="spacing" textLength="244" x="252" y="170">Create a signalingEngine instance</text><line style="stroke:#0A9EFD;stroke-width:2.0;" x1="245" x2="287" y1="218.4414" y2="218.4414"/><line style="stroke:#0A9EFD;stroke-width:2.0;" x1="287" x2="287" y1="218.4414" y2="231.4414"/><line style="stroke:#0A9EFD;stroke-width:2.0;" x1="246" x2="287" y1="231.4414" y2="231.4414"/><polygon fill="#0A9EFD" points="256,227.4414,246,231.4414,256,235.4414,252,231.4414" style="stroke:#0A9EFD;stroke-width:1.0;"/><text fill="#0A9EFD" font-family="Roboto" font-size="14" font-weight="bold" lengthAdjust="spacing" textLength="179" x="252" y="213.4883">Add user event callbacks</text><line style="stroke:#0A9EFD;stroke-width:2.0;" x1="245" x2="287" y1="261.9297" y2="261.9297"/><line style="stroke:#0A9EFD;stroke-width:2.0;" x1="287" x2="287" y1="261.9297" y2="274.9297"/><line style="stroke:#0A9EFD;stroke-width:2.0;" x1="246" x2="287" y1="274.9297" y2="274.9297"/><polygon fill="#0A9EFD" points="256,270.9297,246,274.9297,256,278.9297,252,274.9297" style="stroke:#0A9EFD;stroke-width:1.0;"/><text fill="#0A9EFD" font-family="Roboto" font-size="14" font-weight="bold" lengthAdjust="spacing" textLength="205" x="252" y="256.9766">Set the authentication token</text><polygon fill="#0A9EFD" points="530,301.418,540,305.418,530,309.418,534,305.418" style="stroke:#0A9EFD;stroke-width:1.0;"/><line style="stroke:#0A9EFD;stroke-width:2.0;" x1="245" x2="536" y1="305.418" y2="305.418"/><text fill="#0A9EFD" font-family="Roboto" font-size="14" font-weight="bold" lengthAdjust="spacing" textLength="137" x="325" y="300.4648">Log in to Signaling</text><path d="M10,327.418 L113,327.418 L113,335.9063 L103,345.9063 L10,345.9063 L10,327.418 " fill="#EEEEEE" style="stroke:#0A9EFD;stroke-width:1.5;"/><rect fill="none" height="614.7656" style="stroke:#0A9EFD;stroke-width:2.0;" width="602.5" x="10" y="327.418"/><text fill="#0A9EFD" font-family="Roboto" font-size="14" font-weight="bold" lengthAdjust="spacing" textLength="58" x="25" y="341.9531">Channel</text><polygon fill="#0A9EFD" points="233,364.3945,243,368.3945,233,372.3945,237,368.3945" style="stroke:#0A9EFD;stroke-width:1.0;"/><line style="stroke:#0A9EFD;stroke-width:2.0;" x1="59" x2="239" y1="368.3945" y2="368.3945"/><text fill="#0A9EFD" font-family="Roboto" font-size="14" font-weight="bold" lengthAdjust="spacing" textLength="159" x="72.5" y="363.4414">Create or join channel</text><polygon fill="#0A9EFD" points="256,394.8828,246,398.8828,256,402.8828,252,398.8828" style="stroke:#0A9EFD;stroke-width:1.0;"/><polygon fill="#0A9EFD" points="530,394.8828,540,398.8828,530,402.8828,534,398.8828" style="stroke:#0A9EFD;stroke-width:1.0;"/><line style="stroke:#0A9EFD;stroke-width:2.0;" x1="250" x2="536" y1="398.8828" y2="398.8828"/><text fill="#0A9EFD" font-family="Roboto" font-size="14" font-weight="bold" lengthAdjust="spacing" textLength="273" x="257" y="393.9297">Create channel or add user to channel</text><polygon fill="#0A9EFD" points="233,425.3711,243,429.3711,233,433.3711,237,429.3711" style="stroke:#0A9EFD;stroke-width:1.0;"/><line style="stroke:#0A9EFD;stroke-width:2.0;" x1="59" x2="239" y1="429.3711" y2="429.3711"/><text fill="#0A9EFD" font-family="Roboto" font-size="14" font-weight="bold" lengthAdjust="spacing" textLength="162" x="71" y="424.418">Subscribe to a channel</text><polygon fill="#0A9EFD" points="256,455.8594,246,459.8594,256,463.8594,252,459.8594" style="stroke:#0A9EFD;stroke-width:1.0;"/><polygon fill="#0A9EFD" points="530,455.8594,540,459.8594,530,463.8594,534,459.8594" style="stroke:#0A9EFD;stroke-width:1.0;"/><line style="stroke:#0A9EFD;stroke-width:2.0;" x1="250" x2="536" y1="459.8594" y2="459.8594"/><text fill="#0A9EFD" font-family="Roboto" font-size="14" font-weight="bold" lengthAdjust="spacing" textLength="110" x="338.5" y="454.9063">Channel events</text><path d="M20,474.8594 L105,474.8594 L105,483.3477 L95,493.3477 L20,493.3477 L20,474.8594 " fill="#EEEEEE" style="stroke:#0A9EFD;stroke-width:1.5;"/><rect fill="none" height="399.3477" style="stroke:#0A9EFD;stroke-width:2.0;" width="582.5" x="20" y="474.8594"/><text fill="#0A9EFD" font-family="Roboto" font-size="14" font-weight="bold" lengthAdjust="spacing" textLength="40" x="35" y="489.3945">Topic</text><polygon fill="#0A9EFD" points="233,511.8359,243,515.8359,233,519.8359,237,515.8359" style="stroke:#0A9EFD;stroke-width:1.0;"/><line style="stroke:#0A9EFD;stroke-width:2.0;" x1="59" x2="239" y1="515.8359" y2="515.8359"/><text fill="#0A9EFD" font-family="Roboto" font-size="14" font-weight="bold" lengthAdjust="spacing" textLength="70" x="117" y="510.8828">Join topic</text><polygon fill="#0A9EFD" points="256,542.3242,246,546.3242,256,550.3242,252,546.3242" style="stroke:#0A9EFD;stroke-width:1.0;"/><polygon fill="#0A9EFD" points="530,542.3242,540,546.3242,530,550.3242,534,546.3242" style="stroke:#0A9EFD;stroke-width:1.0;"/><line style="stroke:#0A9EFD;stroke-width:2.0;" x1="250" x2="536" y1="546.3242" y2="546.3242"/><text fill="#0A9EFD" font-family="Roboto" font-size="14" font-weight="bold" lengthAdjust="spacing" textLength="235" x="276" y="541.3711">Create topic or add user to topic</text><polygon fill="#0A9EFD" points="233,572.8125,243,576.8125,233,580.8125,237,576.8125" style="stroke:#0A9EFD;stroke-width:1.0;"/><line style="stroke:#0A9EFD;stroke-width:2.0;" x1="59" x2="239" y1="576.8125" y2="576.8125"/><text fill="#0A9EFD" font-family="Roboto" font-size="14" font-weight="bold" lengthAdjust="spacing" textLength="130" x="87" y="571.8594">Subscribe to topic</text><polygon fill="#0A9EFD" points="256,603.3008,246,607.3008,256,611.3008,252,607.3008" style="stroke:#0A9EFD;stroke-width:1.0;"/><polygon fill="#0A9EFD" points="530,603.3008,540,607.3008,530,611.3008,534,607.3008" style="stroke:#0A9EFD;stroke-width:1.0;"/><line style="stroke:#0A9EFD;stroke-width:2.0;" x1="250" x2="536" y1="607.3008" y2="607.3008"/><text fill="#0A9EFD" font-family="Roboto" font-size="14" font-weight="bold" lengthAdjust="spacing" textLength="92" x="347.5" y="602.3477">Topic events</text><path d="M30,622.3008 L145,622.3008 L145,630.7891 L135,640.7891 L30,640.7891 L30,622.3008 " fill="#EEEEEE" style="stroke:#0A9EFD;stroke-width:1.5;"/><rect fill="none" height="183.9297" style="stroke:#0A9EFD;stroke-width:2.0;" width="562.5" x="30" y="622.3008"/><text fill="#0A9EFD" font-family="Roboto" font-size="14" font-weight="bold" lengthAdjust="spacing" textLength="70" x="45" y="636.8359">Messages</text><polygon fill="#0A9EFD" points="233,659.2773,243,663.2773,233,667.2773,237,663.2773" style="stroke:#0A9EFD;stroke-width:1.0;"/><line style="stroke:#0A9EFD;stroke-width:2.0;" x1="59" x2="239" y1="663.2773" y2="663.2773"/><text fill="#0A9EFD" font-family="Roboto" font-size="14" font-weight="bold" lengthAdjust="spacing" textLength="102" x="101" y="658.3242">Send message</text><polygon fill="#0A9EFD" points="530,689.7656,540,693.7656,530,697.7656,534,693.7656" style="stroke:#0A9EFD;stroke-width:1.0;"/><line style="stroke:#0A9EFD;stroke-width:2.0;" x1="245" x2="536" y1="693.7656" y2="693.7656"/><text fill="#0A9EFD" font-family="Roboto" font-size="14" font-weight="bold" lengthAdjust="spacing" textLength="155" x="316" y="688.8125">sendMessageToTopic</text><polygon fill="#0A9EFD" points="256,720.2539,246,724.2539,256,728.2539,252,724.2539" style="stroke:#0A9EFD;stroke-width:1.0;"/><line style="stroke:#0A9EFD;stroke-width:2.0;" x1="250" x2="541" y1="724.2539" y2="724.2539"/><text fill="#0A9EFD" font-family="Roboto" font-size="14" font-weight="bold" lengthAdjust="spacing" textLength="139" x="324" y="719.3008">MessageFromTopic</text><line style="stroke:#0A9EFD;stroke-width:2.0;" x1="245" x2="287" y1="754.7422" y2="754.7422"/><line style="stroke:#0A9EFD;stroke-width:2.0;" x1="287" x2="287" y1="754.7422" y2="767.7422"/><line style="stroke:#0A9EFD;stroke-width:2.0;" x1="246" x2="287" y1="767.7422" y2="767.7422"/><polygon fill="#0A9EFD" points="256,763.7422,246,767.7422,256,771.7422,252,767.7422" style="stroke:#0A9EFD;stroke-width:1.0;"/><text fill="#0A9EFD" font-family="Roboto" font-size="14" font-weight="bold" lengthAdjust="spacing" textLength="187" x="252" y="749.7891">listen for message events</text><polygon fill="#0A9EFD" points="70,794.2305,60,798.2305,70,802.2305,66,798.2305" style="stroke:#0A9EFD;stroke-width:1.0;"/><line style="stroke:#0A9EFD;stroke-width:2.0;" x1="64" x2="244" y1="798.2305" y2="798.2305"/><text fill="#0A9EFD" font-family="Roboto" font-size="14" font-weight="bold" lengthAdjust="spacing" textLength="122" x="91" y="793.2773">Receive message</text><polygon fill="#0A9EFD" points="233,831.7188,243,835.7188,233,839.7188,237,835.7188" style="stroke:#0A9EFD;stroke-width:1.0;"/><line style="stroke:#0A9EFD;stroke-width:2.0;" x1="59" x2="239" y1="835.7188" y2="835.7188"/><text fill="#0A9EFD" font-family="Roboto" font-size="14" font-weight="bold" lengthAdjust="spacing" textLength="81" x="111.5" y="830.7656">Leave topic</text><polygon fill="#0A9EFD" points="256,862.207,246,866.207,256,870.207,252,866.207" style="stroke:#0A9EFD;stroke-width:1.0;"/><polygon fill="#0A9EFD" points="530,862.207,540,866.207,530,870.207,534,866.207" style="stroke:#0A9EFD;stroke-width:1.0;"/><line style="stroke:#0A9EFD;stroke-width:2.0;" x1="250" x2="536" y1="866.207" y2="866.207"/><text fill="#0A9EFD" font-family="Roboto" font-size="14" font-weight="bold" lengthAdjust="spacing" textLength="81" x="353" y="861.2539">Leave topic</text><polygon fill="#0A9EFD" points="233,899.6953,243,903.6953,233,907.6953,237,903.6953" style="stroke:#0A9EFD;stroke-width:1.0;"/><line style="stroke:#0A9EFD;stroke-width:2.0;" x1="59" x2="239" y1="903.6953" y2="903.6953"/><text fill="#0A9EFD" font-family="Roboto" font-size="14" font-weight="bold" lengthAdjust="spacing" textLength="100" x="102" y="898.7422">Leave channel</text><polygon fill="#0A9EFD" points="256,930.1836,246,934.1836,256,938.1836,252,934.1836" style="stroke:#0A9EFD;stroke-width:1.0;"/><polygon fill="#0A9EFD" points="530,930.1836,540,934.1836,530,938.1836,534,934.1836" style="stroke:#0A9EFD;stroke-width:1.0;"/><line style="stroke:#0A9EFD;stroke-width:2.0;" x1="250" x2="536" y1="934.1836" y2="934.1836"/><text fill="#0A9EFD" font-family="Roboto" font-size="14" font-weight="bold" lengthAdjust="spacing" textLength="100" x="343.5" y="929.2305">Leave channel</text><path d="M30,956.1836 L138,956.1836 L138,964.6719 L128,974.6719 L30,974.6719 L30,956.1836 " fill="#EEEEEE" style="stroke:#0A9EFD;stroke-width:1.5;"/><rect fill="none" height="153.4414" style="stroke:#0A9EFD;stroke-width:2.0;" width="562.5" x="30" y="956.1836"/><text fill="#0A9EFD" font-family="Roboto" font-size="14" font-weight="bold" lengthAdjust="spacing" textLength="63" x="45" y="970.7188">Presence</text><polygon fill="#0A9EFD" points="233,993.1602,243,997.1602,233,1001.1602,237,997.1602" style="stroke:#0A9EFD;stroke-width:1.0;"/><line style="stroke:#0A9EFD;stroke-width:2.0;" x1="59" x2="239" y1="997.1602" y2="997.1602"/><text fill="#0A9EFD" font-family="Roboto" font-size="14" font-weight="bold" lengthAdjust="spacing" textLength="103" x="100.5" y="992.207">Change status</text><line style="stroke:#0A9EFD;stroke-width:2.0;" x1="245" x2="287" y1="1027.6484" y2="1027.6484"/><line style="stroke:#0A9EFD;stroke-width:2.0;" x1="287" x2="287" y1="1027.6484" y2="1040.6484"/><line style="stroke:#0A9EFD;stroke-width:2.0;" x1="246" x2="287" y1="1040.6484" y2="1040.6484"/><polygon fill="#0A9EFD" points="256,1036.6484,246,1040.6484,256,1044.6484,252,1040.6484" style="stroke:#0A9EFD;stroke-width:1.0;"/><text fill="#0A9EFD" font-family="Roboto" font-size="14" font-weight="bold" lengthAdjust="spacing" textLength="155" x="252" y="1022.6953">listen for user events</text><polygon fill="#0A9EFD" points="256,1067.1367,246,1071.1367,256,1075.1367,252,1071.1367" style="stroke:#0A9EFD;stroke-width:1.0;"/><line style="stroke:#0A9EFD;stroke-width:2.0;" x1="250" x2="541" y1="1071.1367" y2="1071.1367"/><text fill="#0A9EFD" font-family="Roboto" font-size="14" font-weight="bold" lengthAdjust="spacing" textLength="179" x="304" y="1066.1836">ConnectionStateChanged</text><polygon fill="#0A9EFD" points="70,1097.625,60,1101.625,70,1105.625,66,1101.625" style="stroke:#0A9EFD;stroke-width:1.0;"/><line style="stroke:#0A9EFD;stroke-width:2.0;" x1="64" x2="244" y1="1101.625" y2="1101.625"/><text fill="#0A9EFD" font-family="Roboto" font-size="14" font-weight="bold" lengthAdjust="spacing" textLength="93" x="105.5" y="1096.6719">Inform users</text><path d="M30,1123.625 L115,1123.625 L115,1132.1133 L105,1142.1133 L30,1142.1133 L30,1123.625 " fill="#EEEEEE" style="stroke:#0A9EFD;stroke-width:1.5;"/><rect fill="none" height="79.4648" style="stroke:#0A9EFD;stroke-width:2.0;" width="562.5" x="30" y="1123.625"/><text fill="#0A9EFD" font-family="Roboto" font-size="14" font-weight="bold" lengthAdjust="spacing" textLength="40" x="45" y="1138.1602">Close</text><polygon fill="#0A9EFD" points="233,1160.6016,243,1164.6016,233,1168.6016,237,1164.6016" style="stroke:#0A9EFD;stroke-width:1.0;"/><line style="stroke:#0A9EFD;stroke-width:2.0;" x1="59" x2="239" y1="1164.6016" y2="1164.6016"/><text fill="#0A9EFD" font-family="Roboto" font-size="14" font-weight="bold" lengthAdjust="spacing" textLength="55" x="124.5" y="1159.6484">Log out</text><polygon fill="#0A9EFD" points="530,1191.0898,540,1195.0898,530,1199.0898,534,1195.0898" style="stroke:#0A9EFD;stroke-width:1.0;"/><line style="stroke:#0A9EFD;stroke-width:2.0;" x1="245" x2="536" y1="1195.0898" y2="1195.0898"/><text fill="#0A9EFD" font-family="Roboto" font-size="14" font-weight="bold" lengthAdjust="spacing" textLength="147" x="320" y="1190.1367">Log out of Signaling</text><!--SRC=[TLF1Rjim3BtxApZVczw3Oa2GTe2t3WlgzD1JmSYigyQX34aEXdtzA5jAh3Qv6B3utkDx5FLDi-g6Xc2nk3tgXioDQ_Qts1gBhswlUQ67GrSKgBonK3uxiYMWW-VwgIXsvY-KBsQmW7rV5ZrQhvNkaJsKjMuPEyqjrFU_Hifgioc86n1MfAv2bskyoAdEdDQQeOUAjTU2-4U5c82Rxq5u2Nzwuc2ZaB_JuTeIUW84brGVkDLCeDbvP4KPUjKqC4X0e2E95OLTjqErTnce9W_-NJG7-RBuHgyDWpTxuZEmMiAZQQMD5E0KAKH9CTRlo4mosNc8w5Sc_M64go8coDubtOY9jO35v5jw9SfSjHvsJbczem30cMeLLKFdA3T6TydarlHQPLe_pPWf75zoDLO-U_9VL397IMtcPkoRl4nMVfDps9BB1rQ7vJXCfMpwJWgHiZLJZB558iRQ3siEsrEQLEoqyx9DRv8ZQYSl4IKMbl14YlIHJkt3vSwzFH8UwTAiveKhh8itdvTckxIn97bbc_Db4g0ubqNtWxkMxxplBflFsaWJ5LQx5ZvDMasMls8HE8mARieHDxipBd-RuIcOmNzv7d86vktJ-_WF]--></g></svg>