<?xml version="1.0" encoding="us-ascii" standalone="no"?><svg xmlns="http://www.w3.org/2000/svg" xmlns:xlink="http://www.w3.org/1999/xlink" contentStyleType="text/css" height="821px" preserveAspectRatio="none" style="width:543px;height:821px;" version="1.1" viewBox="0 0 543 821" width="543px" zoomAndPan="magnify"><defs/><g><rect fill="none" height="819.0181" style="stroke:#0A9EFD;stroke-width:1.0;" width="541" x="0" y="0"/><rect fill="#0A9EFD" fill-opacity="0.06667" height="74.8462" style="stroke:#0A9EFD;stroke-width:2.0;" width="323" x="10" y="53.0986"/><rect fill="#0A9EFD" fill-opacity="0.06667" height="74.8462" style="stroke:#0A9EFD;stroke-width:2.0;" width="467" x="56" y="141.9448"/><rect fill="#0A9EFD" fill-opacity="0.06667" height="116.7949" style="stroke:#0A9EFD;stroke-width:2.0;" width="481" x="56" y="230.791"/><rect fill="#0A9EFD" fill-opacity="0.06667" height="158.7437" style="stroke:#0A9EFD;stroke-width:2.0;" width="410.5" x="10" y="361.5859"/><rect fill="#0A9EFD" fill-opacity="0.06667" height="174.6924" style="stroke:#0A9EFD;stroke-width:2.0;" width="410.5" x="10" y="534.3296"/><rect fill="#0A9EFD" fill-opacity="0.06667" height="45.8975" style="stroke:#0A9EFD;stroke-width:2.0;" width="289.5" x="10" y="723.022"/><line style="stroke:#0A9EFD;stroke-width:0.5;stroke-dasharray:5.0,5.0;" x1="38" x2="38" y1="36.0986" y2="785.9194"/><line style="stroke:#0A9EFD;stroke-width:0.5;stroke-dasharray:5.0,5.0;" x1="109" x2="109" y1="36.0986" y2="785.9194"/><line style="stroke:#0A9EFD;stroke-width:0.5;stroke-dasharray:5.0,5.0;" x1="247.5" x2="247.5" y1="36.0986" y2="785.9194"/><line style="stroke:#0A9EFD;stroke-width:0.5;stroke-dasharray:5.0,5.0;" x1="383.5" x2="383.5" y1="36.0986" y2="785.9194"/><rect fill="none" height="30.0986" rx="2.5" ry="2.5" style="stroke:#0A9EFD;stroke-width:2.0;" width="36" x="20" y="5"/><text fill="#0A9EFD" font-family="Arial" font-size="14" lengthAdjust="spacing" textLength="22" x="27" y="25.1318">Idle</text><rect fill="none" height="30.0986" rx="2.5" ry="2.5" style="stroke:#0A9EFD;stroke-width:2.0;" width="36" x="20" y="784.9194"/><text fill="#0A9EFD" font-family="Arial" font-size="14" lengthAdjust="spacing" textLength="22" x="27" y="805.0513">Idle</text><rect fill="none" height="30.0986" rx="2.5" ry="2.5" style="stroke:#0A9EFD;stroke-width:2.0;" width="86" x="66" y="5"/><text fill="#0A9EFD" font-family="Arial" font-size="14" lengthAdjust="spacing" textLength="72" x="73" y="25.1318">Connecting</text><rect fill="none" height="30.0986" rx="2.5" ry="2.5" style="stroke:#0A9EFD;stroke-width:2.0;" width="86" x="66" y="784.9194"/><text fill="#0A9EFD" font-family="Arial" font-size="14" lengthAdjust="spacing" textLength="72" x="73" y="805.0513">Connecting</text><rect fill="none" height="30.0986" rx="2.5" ry="2.5" style="stroke:#0A9EFD;stroke-width:2.0;" width="83" x="206.5" y="5"/><text fill="#0A9EFD" font-family="Arial" font-size="14" lengthAdjust="spacing" textLength="69" x="213.5" y="25.1318">Connected</text><rect fill="none" height="30.0986" rx="2.5" ry="2.5" style="stroke:#0A9EFD;stroke-width:2.0;" width="83" x="206.5" y="784.9194"/><text fill="#0A9EFD" font-family="Arial" font-size="14" lengthAdjust="spacing" textLength="69" x="213.5" y="805.0513">Connected</text><rect fill="none" height="30.0986" rx="2.5" ry="2.5" style="stroke:#0A9EFD;stroke-width:2.0;" width="53" x="357.5" y="5"/><text fill="#0A9EFD" font-family="Arial" font-size="14" lengthAdjust="spacing" textLength="39" x="364.5" y="25.1318">Failed</text><rect fill="none" height="30.0986" rx="2.5" ry="2.5" style="stroke:#0A9EFD;stroke-width:2.0;" width="53" x="357.5" y="784.9194"/><text fill="#0A9EFD" font-family="Arial" font-size="14" lengthAdjust="spacing" textLength="39" x="364.5" y="805.0513">Failed</text><path d="M10,53.0986 L328,53.0986 L328,60.0474 L318,70.0474 L10,70.0474 L10,53.0986 " fill="#EEEEEE" style="stroke:#0A9EFD;stroke-width:1.5;"/><rect fill="none" height="74.8462" style="stroke:#0A9EFD;stroke-width:2.0;" width="323" x="10" y="53.0986"/><text fill="#000000" font-family="Arial" font-size="13" lengthAdjust="spacing" textLength="273" x="25" y="66.2925">Successfully joined a channel after initialization</text><polygon fill="#0A9EFD" points="97,86.9961,107,90.9961,97,94.9961,101,90.9961" style="stroke:#0A9EFD;stroke-width:1.0;"/><line style="stroke:#0A9EFD;stroke-width:2.0;" x1="38" x2="103" y1="90.9961" y2="90.9961"/><text fill="#0A9EFD" font-family="Arial" font-size="13" lengthAdjust="spacing" textLength="23" x="62" y="86.2412">Join</text><polygon fill="#0A9EFD" points="236,115.9448,246,119.9448,236,123.9448,240,119.9448" style="stroke:#0A9EFD;stroke-width:1.0;"/><line style="stroke:#0A9EFD;stroke-width:2.0;" x1="109" x2="242" y1="119.9448" y2="119.9448"/><text fill="#0A9EFD" font-family="Arial" font-size="13" lengthAdjust="spacing" textLength="51" x="153" y="115.1899">Success</text><path d="M56,141.9448 L518,141.9448 L518,148.8936 L508,158.8936 L56,158.8936 L56,141.9448 " fill="#EEEEEE" style="stroke:#0A9EFD;stroke-width:1.5;"/><rect fill="none" height="74.8462" style="stroke:#0A9EFD;stroke-width:2.0;" width="467" x="56" y="141.9448"/><text fill="#000000" font-family="Arial" font-size="13" lengthAdjust="spacing" textLength="417" x="71" y="155.1387">An established connection is dropped and restored after the first attempt</text><polygon fill="#0A9EFD" points="120,175.8423,110,179.8423,120,183.8423,116,179.8423" style="stroke:#0A9EFD;stroke-width:1.0;"/><line style="stroke:#0A9EFD;stroke-width:2.0;" x1="114" x2="247" y1="179.8423" y2="179.8423"/><text fill="#0A9EFD" font-family="Arial" font-size="13" lengthAdjust="spacing" textLength="115" x="121" y="175.0874">Connection dropped</text><polygon fill="#0A9EFD" points="236,204.791,246,208.791,236,212.791,240,208.791" style="stroke:#0A9EFD;stroke-width:1.0;"/><line style="stroke:#0A9EFD;stroke-width:2.0;" x1="109" x2="242" y1="208.791" y2="208.791"/><text fill="#0A9EFD" font-family="Arial" font-size="13" lengthAdjust="spacing" textLength="51" x="153" y="204.0361">Success</text><path d="M56,230.791 L532,230.791 L532,237.7397 L522,247.7397 L56,247.7397 L56,230.791 " fill="#EEEEEE" style="stroke:#0A9EFD;stroke-width:1.5;"/><rect fill="none" height="116.7949" style="stroke:#0A9EFD;stroke-width:2.0;" width="481" x="56" y="230.791"/><text fill="#000000" font-family="Arial" font-size="13" lengthAdjust="spacing" textLength="431" x="71" y="243.9849">An established connection is dropped and restored on the second attempt:</text><polygon fill="#0A9EFD" points="120,264.6885,110,268.6885,120,272.6885,116,268.6885" style="stroke:#0A9EFD;stroke-width:1.0;"/><line style="stroke:#0A9EFD;stroke-width:2.0;" x1="114" x2="247" y1="268.6885" y2="268.6885"/><text fill="#0A9EFD" font-family="Arial" font-size="13" lengthAdjust="spacing" textLength="115" x="121" y="263.9336">Connection dropped</text><line style="stroke:#0A9EFD;stroke-width:2.0;" x1="109" x2="151" y1="297.6372" y2="297.6372"/><line style="stroke:#0A9EFD;stroke-width:2.0;" x1="151" x2="151" y1="297.6372" y2="310.6372"/><line style="stroke:#0A9EFD;stroke-width:2.0;" x1="110" x2="151" y1="310.6372" y2="310.6372"/><polygon fill="#0A9EFD" points="120,306.6372,110,310.6372,120,314.6372,116,310.6372" style="stroke:#0A9EFD;stroke-width:1.0;"/><text fill="#0A9EFD" font-family="Arial" font-size="13" lengthAdjust="spacing" textLength="105" x="116" y="292.8823">Auto-reconnecting</text><polygon fill="#0A9EFD" points="236,335.5859,246,339.5859,236,343.5859,240,339.5859" style="stroke:#0A9EFD;stroke-width:1.0;"/><line style="stroke:#0A9EFD;stroke-width:2.0;" x1="109" x2="242" y1="339.5859" y2="339.5859"/><text fill="#0A9EFD" font-family="Arial" font-size="13" lengthAdjust="spacing" textLength="51" x="153" y="334.8311">Success</text><path d="M10,361.5859 L306,361.5859 L306,368.5347 L296,378.5347 L10,378.5347 L10,361.5859 " fill="#EEEEEE" style="stroke:#0A9EFD;stroke-width:1.5;"/><rect fill="none" height="158.7437" style="stroke:#0A9EFD;stroke-width:2.0;" width="410.5" x="10" y="361.5859"/><text fill="#000000" font-family="Arial" font-size="13" lengthAdjust="spacing" textLength="251" x="25" y="374.7798">Reconnection attempts fail after 20 minutes</text><polygon fill="#0A9EFD" points="97,395.4834,107,399.4834,97,403.4834,101,399.4834" style="stroke:#0A9EFD;stroke-width:1.0;"/><line style="stroke:#0A9EFD;stroke-width:2.0;" x1="38" x2="103" y1="399.4834" y2="399.4834"/><text fill="#0A9EFD" font-family="Arial" font-size="13" lengthAdjust="spacing" textLength="23" x="62" y="394.7285">Join</text><line style="stroke:#0A9EFD;stroke-width:2.0;" x1="109" x2="151" y1="428.4321" y2="428.4321"/><line style="stroke:#0A9EFD;stroke-width:2.0;" x1="151" x2="151" y1="428.4321" y2="441.4321"/><line style="stroke:#0A9EFD;stroke-width:2.0;" x1="110" x2="151" y1="441.4321" y2="441.4321"/><polygon fill="#0A9EFD" points="120,437.4321,110,441.4321,120,445.4321,116,441.4321" style="stroke:#0A9EFD;stroke-width:1.0;"/><text fill="#0A9EFD" font-family="Arial" font-size="13" lengthAdjust="spacing" textLength="105" x="116" y="423.6772">Auto-reconnecting</text><line style="stroke:#0A9EFD;stroke-width:2.0;" x1="109" x2="151" y1="470.3809" y2="470.3809"/><line style="stroke:#0A9EFD;stroke-width:2.0;" x1="151" x2="151" y1="470.3809" y2="483.3809"/><line style="stroke:#0A9EFD;stroke-width:2.0;" x1="110" x2="151" y1="483.3809" y2="483.3809"/><polygon fill="#0A9EFD" points="120,479.3809,110,483.3809,120,487.3809,116,483.3809" style="stroke:#0A9EFD;stroke-width:1.0;"/><text fill="#0A9EFD" font-family="Arial" font-size="13" lengthAdjust="spacing" textLength="105" x="116" y="465.626">Auto-reconnecting</text><polygon fill="#0A9EFD" points="372,508.3296,382,512.3296,372,516.3296,376,512.3296" style="stroke:#0A9EFD;stroke-width:1.0;"/><line style="stroke:#0A9EFD;stroke-width:2.0;" x1="109" x2="378" y1="512.3296" y2="512.3296"/><text fill="#0A9EFD" font-family="Arial" font-size="13" lengthAdjust="spacing" textLength="95" x="199" y="507.5747">After 20 minutes</text><path d="M10,534.3296 L409,534.3296 L409,541.2783 L399,551.2783 L10,551.2783 L10,534.3296 " fill="#EEEEEE" style="stroke:#0A9EFD;stroke-width:1.5;"/><rect fill="none" height="174.6924" style="stroke:#0A9EFD;stroke-width:2.0;" width="410.5" x="10" y="534.3296"/><text fill="#000000" font-family="Arial" font-size="13" lengthAdjust="spacing" textLength="354" x="25" y="547.5234">Join fails due to a fatal error, followed by a successful re-login</text><polygon fill="#0A9EFD" points="97,568.2271,107,572.2271,97,576.2271,101,572.2271" style="stroke:#0A9EFD;stroke-width:1.0;"/><line style="stroke:#0A9EFD;stroke-width:2.0;" x1="38" x2="103" y1="572.2271" y2="572.2271"/><text fill="#0A9EFD" font-family="Arial" font-size="13" lengthAdjust="spacing" textLength="23" x="62" y="567.4722">Join</text><line style="stroke:#0A9EFD;stroke-width:2.0;" x1="109" x2="151" y1="601.1758" y2="601.1758"/><line style="stroke:#0A9EFD;stroke-width:2.0;" x1="151" x2="151" y1="601.1758" y2="614.1758"/><line style="stroke:#0A9EFD;stroke-width:2.0;" x1="110" x2="151" y1="614.1758" y2="614.1758"/><polygon fill="#0A9EFD" points="120,610.1758,110,614.1758,120,618.1758,116,614.1758" style="stroke:#0A9EFD;stroke-width:1.0;"/><text fill="#0A9EFD" font-family="Arial" font-size="13" lengthAdjust="spacing" textLength="105" x="116" y="596.4209">Auto-reconnecting</text><polygon fill="#0A9EFD" points="372,639.1245,382,643.1245,372,647.1245,376,643.1245" style="stroke:#0A9EFD;stroke-width:1.0;"/><line style="stroke:#0A9EFD;stroke-width:2.0;" x1="109" x2="378" y1="643.1245" y2="643.1245"/><text fill="#0A9EFD" font-family="Arial" font-size="13" lengthAdjust="spacing" textLength="59" x="217" y="638.3696">Fatal error</text><polygon fill="#0A9EFD" points="120,668.0732,110,672.0732,120,676.0732,116,672.0732" style="stroke:#0A9EFD;stroke-width:1.0;"/><line style="stroke:#0A9EFD;stroke-width:2.0;" x1="114" x2="383" y1="672.0732" y2="672.0732"/><text fill="#0A9EFD" font-family="Arial" font-size="13" lengthAdjust="spacing" textLength="251" x="121" y="667.3184">Re-join after removing the cause of the error</text><polygon fill="#0A9EFD" points="236,697.022,246,701.022,236,705.022,240,701.022" style="stroke:#0A9EFD;stroke-width:1.0;"/><line style="stroke:#0A9EFD;stroke-width:2.0;" x1="109" x2="242" y1="701.022" y2="701.022"/><text fill="#0A9EFD" font-family="Arial" font-size="13" lengthAdjust="spacing" textLength="51" x="153" y="696.2671">Success</text><path d="M10,723.022 L257,723.022 L257,729.9707 L247,739.9707 L10,739.9707 L10,723.022 " fill="#EEEEEE" style="stroke:#0A9EFD;stroke-width:1.5;"/><rect fill="none" height="45.8975" style="stroke:#0A9EFD;stroke-width:2.0;" width="289.5" x="10" y="723.022"/><text fill="#000000" font-family="Arial" font-size="13" lengthAdjust="spacing" textLength="202" x="25" y="736.2158">A logout operation while connected</text><polygon fill="#0A9EFD" points="49,756.9194,39,760.9194,49,764.9194,45,760.9194" style="stroke:#0A9EFD;stroke-width:1.0;"/><line style="stroke:#0A9EFD;stroke-width:2.0;" x1="43" x2="247" y1="760.9194" y2="760.9194"/><text fill="#0A9EFD" font-family="Arial" font-size="13" lengthAdjust="spacing" textLength="33" x="126.5" y="756.1646">Leave</text><!--SRC=[jPJ1Ri8m38RlUGgFyvYc7JbCGaX8ctPY3p2PnWLlQLmb3eWz_P9IeA0TXYPkJVp7_kpywHtxoYLBW2i9-16_s3zmQfmnBGRbYblq2gCNwsW4687pntbe9jvJfUnNdQ0wBd-LaHsgo9wBviYkLzJTfp6h8Ac5zrHL56ETdDl1fx0d2mZL6dCQ1rWh1M3FokZu6vN5cq8Au-S1q0HUyqbpsXY4oKuEHGpvOzsf1ugAIyTndKiUZee7Zc23j6q1yHP2baaeYuv5rmGrXwY0gjIqQevrBfbcfvnzmXiJvb31YvIrzi0t-JzW9vucbN6WWGkkQMP10_wUR6-5VgvFZz2mJqhnolkz1kvFshq_i-wIQz1EmUc4-IOIWKhsR8sA3YW42VTGYtEopIDVxd8e7asUBsliPCN-5bqUoESd4hFVkyoqe75vQ_ti0pMoAJcAUofCaK3gRh7FSPLh8RSdIK5Q2jrxXUqw8mn-36T-B6EOm1lXXheqFm00]--></g></svg>