<?xml version="1.0" encoding="UTF-8" standalone="no"?><svg xmlns="http://www.w3.org/2000/svg" xmlns:xlink="http://www.w3.org/1999/xlink" contentStyleType="text/css" height="1350px" preserveAspectRatio="none" style="width:614px;height:1350px;background:#FFFFFF;" version="1.1" viewBox="0 0 614 1350" width="614px" zoomAndPan="magnify"><defs/><g><rect fill="none" height="1348.9375" style="stroke:#0A9EFD;stroke-width:1.0;" width="612" x="0" y="0"/><rect fill="#F3F3F3" height="1338.9375" style="stroke:#0A9EFD;stroke-width:0.5;" width="120" x="184.5" y="6"/><text fill="#000000" font-family="sans-serif" font-size="13" font-weight="bold" lengthAdjust="spacing" textLength="57" x="216" y="19.4951">Your app</text><rect fill="#F3F3F3" height="1338.9375" style="stroke:#0A9EFD;stroke-width:0.5;" width="87" x="495" y="6"/><text fill="#000000" font-family="sans-serif" font-size="13" font-weight="bold" lengthAdjust="spacing" textLength="38" x="519.5" y="19.4951">Agora</text><rect fill="#FFFFFF" height="216.6563" style="stroke:#0A9EFD;stroke-width:2.0;" width="558" x="30" y="104.6094"/><rect fill="#FFFFFF" height="637.1875" style="stroke:#0A9EFD;stroke-width:2.0;" width="598" x="10" y="335.2656"/><rect fill="#FFFFFF" height="413.9219" style="stroke:#0A9EFD;stroke-width:2.0;" width="578" x="20" y="488.3125"/><rect fill="#FFFFFF" height="190.6563" style="stroke:#0A9EFD;stroke-width:2.0;" width="558" x="30" y="641.3594"/><rect fill="#FFFFFF" height="159.0469" style="stroke:#0A9EFD;stroke-width:2.0;" width="558" x="30" y="986.4531"/><rect fill="#FFFFFF" height="82.8281" style="stroke:#0A9EFD;stroke-width:2.0;" width="558" x="30" y="1159.5"/><line style="stroke:#0A9EFD;stroke-width:0.5;stroke-dasharray:5.0,5.0;" x1="59" x2="59" y1="87.6094" y2="1259.3281"/><line style="stroke:#0A9EFD;stroke-width:0.5;stroke-dasharray:5.0,5.0;" x1="244.5" x2="244.5" y1="87.6094" y2="1259.3281"/><line style="stroke:#0A9EFD;stroke-width:0.5;stroke-dasharray:5.0,5.0;" x1="538" x2="538" y1="87.6094" y2="1259.3281"/><text fill="#0A9EFD" font-family="Roboto" font-size="14" font-weight="bold" lengthAdjust="spacing" textLength="33" x="40" y="84.5332">User</text><ellipse cx="59.5" cy="16" fill="none" rx="8" ry="8" style="stroke:#0A9EFD;stroke-width:3.0;"/><path d="M59.5,24 L59.5,51 M46.5,32 L72.5,32 M59.5,51 L46.5,66 M59.5,51 L72.5,66 " fill="none" style="stroke:#0A9EFD;stroke-width:3.0;"/><text fill="#0A9EFD" font-family="Roboto" font-size="14" font-weight="bold" lengthAdjust="spacing" textLength="33" x="40" y="1272.8613">User</text><ellipse cx="59.5" cy="1286.9375" fill="none" rx="8" ry="8" style="stroke:#0A9EFD;stroke-width:3.0;"/><path d="M59.5,1294.9375 L59.5,1321.9375 M46.5,1302.9375 L72.5,1302.9375 M59.5,1321.9375 L46.5,1336.9375 M59.5,1321.9375 L72.5,1336.9375 " fill="none" style="stroke:#0A9EFD;stroke-width:3.0;"/><rect fill="#FFFFFF" height="31.6094" rx="2.5" ry="2.5" style="stroke:#0A9EFD;stroke-width:2.0;" width="112" x="188.5" y="55"/><text fill="#0A9EFD" font-family="Roboto" font-size="14" font-weight="bold" lengthAdjust="spacing" textLength="98" x="195.5" y="76.5332">Signaling SDK</text><rect fill="#FFFFFF" height="31.6094" rx="2.5" ry="2.5" style="stroke:#0A9EFD;stroke-width:2.0;" width="112" x="188.5" y="1258.3281"/><text fill="#0A9EFD" font-family="Roboto" font-size="14" font-weight="bold" lengthAdjust="spacing" textLength="98" x="195.5" y="1279.8613">Signaling SDK</text><rect fill="#FFFFFF" height="31.6094" rx="2.5" ry="2.5" style="stroke:#0A9EFD;stroke-width:2.0;" width="79" x="499" y="55"/><text fill="#0A9EFD" font-family="Roboto" font-size="14" font-weight="bold" lengthAdjust="spacing" textLength="65" x="506" y="76.5332">Signaling</text><rect fill="#FFFFFF" height="31.6094" rx="2.5" ry="2.5" style="stroke:#0A9EFD;stroke-width:2.0;" width="79" x="499" y="1258.3281"/><text fill="#0A9EFD" font-family="Roboto" font-size="14" font-weight="bold" lengthAdjust="spacing" textLength="65" x="506" y="1279.8613">Signaling</text><path d="M30,104.6094 L133,104.6094 L133,114.2188 L123,124.2188 L30,124.2188 L30,104.6094 " fill="#EEEEEE" style="stroke:#0A9EFD;stroke-width:1.5;"/><rect fill="none" height="216.6563" style="stroke:#0A9EFD;stroke-width:2.0;" width="558" x="30" y="104.6094"/><text fill="#0A9EFD" font-family="Roboto" font-size="14" font-weight="bold" lengthAdjust="spacing" textLength="58" x="45" y="120.1426">Initialize</text><polygon fill="#0A9EFD" points="232.5,143.8281,242.5,147.8281,232.5,151.8281,236.5,147.8281" style="stroke:#0A9EFD;stroke-width:1.0;"/><line style="stroke:#0A9EFD;stroke-width:2.0;" x1="59.5" x2="238.5" y1="147.8281" y2="147.8281"/><text fill="#0A9EFD" font-family="Roboto" font-size="14" font-weight="bold" lengthAdjust="spacing" textLength="68" x="118" y="142.752">Open app</text><line style="stroke:#0A9EFD;stroke-width:2.0;" x1="244.5" x2="286.5" y1="179.4375" y2="179.4375"/><line style="stroke:#0A9EFD;stroke-width:2.0;" x1="286.5" x2="286.5" y1="179.4375" y2="192.4375"/><line style="stroke:#0A9EFD;stroke-width:2.0;" x1="245.5" x2="286.5" y1="192.4375" y2="192.4375"/><polygon fill="#0A9EFD" points="255.5,188.4375,245.5,192.4375,255.5,196.4375,251.5,192.4375" style="stroke:#0A9EFD;stroke-width:1.0;"/><text fill="#0A9EFD" font-family="Roboto" font-size="14" font-weight="bold" lengthAdjust="spacing" textLength="240" x="251.5" y="174.3613">Create a signalingEngine instance</text><line style="stroke:#0A9EFD;stroke-width:2.0;" x1="244.5" x2="286.5" y1="224.0469" y2="224.0469"/><line style="stroke:#0A9EFD;stroke-width:2.0;" x1="286.5" x2="286.5" y1="224.0469" y2="237.0469"/><line style="stroke:#0A9EFD;stroke-width:2.0;" x1="245.5" x2="286.5" y1="237.0469" y2="237.0469"/><polygon fill="#0A9EFD" points="255.5,233.0469,245.5,237.0469,255.5,241.0469,251.5,237.0469" style="stroke:#0A9EFD;stroke-width:1.0;"/><text fill="#0A9EFD" font-family="Roboto" font-size="14" font-weight="bold" lengthAdjust="spacing" textLength="177" x="251.5" y="218.9707">Add user event callbacks</text><line style="stroke:#0A9EFD;stroke-width:2.0;" x1="244.5" x2="286.5" y1="268.6563" y2="268.6563"/><line style="stroke:#0A9EFD;stroke-width:2.0;" x1="286.5" x2="286.5" y1="268.6563" y2="281.6563"/><line style="stroke:#0A9EFD;stroke-width:2.0;" x1="245.5" x2="286.5" y1="281.6563" y2="281.6563"/><polygon fill="#0A9EFD" points="255.5,277.6563,245.5,281.6563,255.5,285.6563,251.5,281.6563" style="stroke:#0A9EFD;stroke-width:1.0;"/><text fill="#0A9EFD" font-family="Roboto" font-size="14" font-weight="bold" lengthAdjust="spacing" textLength="199" x="251.5" y="263.5801">Set the authentication token</text><polygon fill="#0A9EFD" points="526.5,309.2656,536.5,313.2656,526.5,317.2656,530.5,313.2656" style="stroke:#0A9EFD;stroke-width:1.0;"/><line style="stroke:#0A9EFD;stroke-width:2.0;" x1="244.5" x2="532.5" y1="313.2656" y2="313.2656"/><text fill="#0A9EFD" font-family="Roboto" font-size="14" font-weight="bold" lengthAdjust="spacing" textLength="130" x="326.5" y="308.1895">Log in to Signaling</text><path d="M10,335.2656 L113,335.2656 L113,344.875 L103,354.875 L10,354.875 L10,335.2656 " fill="#EEEEEE" style="stroke:#0A9EFD;stroke-width:1.5;"/><rect fill="none" height="637.1875" style="stroke:#0A9EFD;stroke-width:2.0;" width="598" x="10" y="335.2656"/><text fill="#0A9EFD" font-family="Roboto" font-size="14" font-weight="bold" lengthAdjust="spacing" textLength="58" x="25" y="350.7988">Channel</text><polygon fill="#0A9EFD" points="232.5,374.4844,242.5,378.4844,232.5,382.4844,236.5,378.4844" style="stroke:#0A9EFD;stroke-width:1.0;"/><line style="stroke:#0A9EFD;stroke-width:2.0;" x1="59.5" x2="238.5" y1="378.4844" y2="378.4844"/><text fill="#0A9EFD" font-family="Roboto" font-size="14" font-weight="bold" lengthAdjust="spacing" textLength="159" x="72.5" y="373.4082">Create stream channel</text><polygon fill="#0A9EFD" points="255.5,406.0938,245.5,410.0938,255.5,414.0938,251.5,410.0938" style="stroke:#0A9EFD;stroke-width:1.0;"/><polygon fill="#0A9EFD" points="526.5,406.0938,536.5,410.0938,526.5,414.0938,530.5,410.0938" style="stroke:#0A9EFD;stroke-width:1.0;"/><line style="stroke:#0A9EFD;stroke-width:2.0;" x1="249.5" x2="532.5" y1="410.0938" y2="410.0938"/><text fill="#0A9EFD" font-family="Roboto" font-size="14" font-weight="bold" lengthAdjust="spacing" textLength="270" x="256.5" y="405.0176">Create channel or add user to channel</text><polygon fill="#0A9EFD" points="232.5,437.7031,242.5,441.7031,232.5,445.7031,236.5,441.7031" style="stroke:#0A9EFD;stroke-width:1.0;"/><line style="stroke:#0A9EFD;stroke-width:2.0;" x1="59.5" x2="238.5" y1="441.7031" y2="441.7031"/><text fill="#0A9EFD" font-family="Roboto" font-size="14" font-weight="bold" lengthAdjust="spacing" textLength="161" x="71.5" y="436.627">Subscribe to a channel</text><polygon fill="#0A9EFD" points="255.5,469.3125,245.5,473.3125,255.5,477.3125,251.5,473.3125" style="stroke:#0A9EFD;stroke-width:1.0;"/><polygon fill="#0A9EFD" points="526.5,469.3125,536.5,473.3125,526.5,477.3125,530.5,473.3125" style="stroke:#0A9EFD;stroke-width:1.0;"/><line style="stroke:#0A9EFD;stroke-width:2.0;" x1="249.5" x2="532.5" y1="473.3125" y2="473.3125"/><text fill="#0A9EFD" font-family="Roboto" font-size="14" font-weight="bold" lengthAdjust="spacing" textLength="111" x="336" y="468.2363">Channel events</text><path d="M20,488.3125 L103,488.3125 L103,497.9219 L93,507.9219 L20,507.9219 L20,488.3125 " fill="#EEEEEE" style="stroke:#0A9EFD;stroke-width:1.5;"/><rect fill="none" height="413.9219" style="stroke:#0A9EFD;stroke-width:2.0;" width="578" x="20" y="488.3125"/><text fill="#0A9EFD" font-family="Roboto" font-size="14" font-weight="bold" lengthAdjust="spacing" textLength="38" x="35" y="503.8457">Topic</text><polygon fill="#0A9EFD" points="232.5,527.5313,242.5,531.5313,232.5,535.5313,236.5,531.5313" style="stroke:#0A9EFD;stroke-width:1.0;"/><line style="stroke:#0A9EFD;stroke-width:2.0;" x1="59.5" x2="238.5" y1="531.5313" y2="531.5313"/><text fill="#0A9EFD" font-family="Roboto" font-size="14" font-weight="bold" lengthAdjust="spacing" textLength="69" x="117.5" y="526.4551">Join topic</text><polygon fill="#0A9EFD" points="255.5,559.1406,245.5,563.1406,255.5,567.1406,251.5,563.1406" style="stroke:#0A9EFD;stroke-width:1.0;"/><polygon fill="#0A9EFD" points="526.5,559.1406,536.5,563.1406,526.5,567.1406,530.5,563.1406" style="stroke:#0A9EFD;stroke-width:1.0;"/><line style="stroke:#0A9EFD;stroke-width:2.0;" x1="249.5" x2="532.5" y1="563.1406" y2="563.1406"/><text fill="#0A9EFD" font-family="Roboto" font-size="14" font-weight="bold" lengthAdjust="spacing" textLength="228" x="277.5" y="558.0645">Create topic or add user to topic</text><polygon fill="#0A9EFD" points="232.5,590.75,242.5,594.75,232.5,598.75,236.5,594.75" style="stroke:#0A9EFD;stroke-width:1.0;"/><line style="stroke:#0A9EFD;stroke-width:2.0;" x1="59.5" x2="238.5" y1="594.75" y2="594.75"/><text fill="#0A9EFD" font-family="Roboto" font-size="14" font-weight="bold" lengthAdjust="spacing" textLength="128" x="88" y="589.6738">Subscribe to topic</text><polygon fill="#0A9EFD" points="255.5,622.3594,245.5,626.3594,255.5,630.3594,251.5,626.3594" style="stroke:#0A9EFD;stroke-width:1.0;"/><polygon fill="#0A9EFD" points="526.5,622.3594,536.5,626.3594,526.5,630.3594,530.5,626.3594" style="stroke:#0A9EFD;stroke-width:1.0;"/><line style="stroke:#0A9EFD;stroke-width:2.0;" x1="249.5" x2="532.5" y1="626.3594" y2="626.3594"/><text fill="#0A9EFD" font-family="Roboto" font-size="14" font-weight="bold" lengthAdjust="spacing" textLength="91" x="346" y="621.2832">Topic events</text><path d="M30,641.3594 L147,641.3594 L147,650.9688 L137,660.9688 L30,660.9688 L30,641.3594 " fill="#EEEEEE" style="stroke:#0A9EFD;stroke-width:1.5;"/><rect fill="none" height="190.6563" style="stroke:#0A9EFD;stroke-width:2.0;" width="558" x="30" y="641.3594"/><text fill="#0A9EFD" font-family="Roboto" font-size="14" font-weight="bold" lengthAdjust="spacing" textLength="72" x="45" y="656.8926">Messages</text><polygon fill="#0A9EFD" points="232.5,680.5781,242.5,684.5781,232.5,688.5781,236.5,684.5781" style="stroke:#0A9EFD;stroke-width:1.0;"/><line style="stroke:#0A9EFD;stroke-width:2.0;" x1="59.5" x2="238.5" y1="684.5781" y2="684.5781"/><text fill="#0A9EFD" font-family="Roboto" font-size="14" font-weight="bold" lengthAdjust="spacing" textLength="103" x="100.5" y="679.502">Send message</text><polygon fill="#0A9EFD" points="526.5,712.1875,536.5,716.1875,526.5,720.1875,530.5,716.1875" style="stroke:#0A9EFD;stroke-width:1.0;"/><line style="stroke:#0A9EFD;stroke-width:2.0;" x1="244.5" x2="532.5" y1="716.1875" y2="716.1875"/><text fill="#0A9EFD" font-family="Roboto" font-size="14" font-weight="bold" lengthAdjust="spacing" textLength="176" x="303.5" y="711.1113">Publish message to topic</text><polygon fill="#0A9EFD" points="255.5,743.7969,245.5,747.7969,255.5,751.7969,251.5,747.7969" style="stroke:#0A9EFD;stroke-width:1.0;"/><line style="stroke:#0A9EFD;stroke-width:2.0;" x1="249.5" x2="537.5" y1="747.7969" y2="747.7969"/><text fill="#0A9EFD" font-family="Roboto" font-size="14" font-weight="bold" lengthAdjust="spacing" textLength="139" x="322" y="742.7207">Message from topic</text><line style="stroke:#0A9EFD;stroke-width:2.0;" x1="244.5" x2="286.5" y1="779.4063" y2="779.4063"/><line style="stroke:#0A9EFD;stroke-width:2.0;" x1="286.5" x2="286.5" y1="779.4063" y2="792.4063"/><line style="stroke:#0A9EFD;stroke-width:2.0;" x1="245.5" x2="286.5" y1="792.4063" y2="792.4063"/><polygon fill="#0A9EFD" points="255.5,788.4063,245.5,792.4063,255.5,796.4063,251.5,792.4063" style="stroke:#0A9EFD;stroke-width:1.0;"/><text fill="#0A9EFD" font-family="Roboto" font-size="14" font-weight="bold" lengthAdjust="spacing" textLength="187" x="251.5" y="774.3301">Listen for message events</text><polygon fill="#0A9EFD" points="70.5,820.0156,60.5,824.0156,70.5,828.0156,66.5,824.0156" style="stroke:#0A9EFD;stroke-width:1.0;"/><line style="stroke:#0A9EFD;stroke-width:2.0;" x1="64.5" x2="243.5" y1="824.0156" y2="824.0156"/><text fill="#0A9EFD" font-family="Roboto" font-size="14" font-weight="bold" lengthAdjust="spacing" textLength="125" x="89.5" y="818.9395">Receive message</text><polygon fill="#0A9EFD" points="232.5,858.625,242.5,862.625,232.5,866.625,236.5,862.625" style="stroke:#0A9EFD;stroke-width:1.0;"/><line style="stroke:#0A9EFD;stroke-width:2.0;" x1="59.5" x2="238.5" y1="862.625" y2="862.625"/><text fill="#0A9EFD" font-family="Roboto" font-size="14" font-weight="bold" lengthAdjust="spacing" textLength="82" x="111" y="857.5488">Leave topic</text><polygon fill="#0A9EFD" points="255.5,890.2344,245.5,894.2344,255.5,898.2344,251.5,894.2344" style="stroke:#0A9EFD;stroke-width:1.0;"/><polygon fill="#0A9EFD" points="526.5,890.2344,536.5,894.2344,526.5,898.2344,530.5,894.2344" style="stroke:#0A9EFD;stroke-width:1.0;"/><line style="stroke:#0A9EFD;stroke-width:2.0;" x1="249.5" x2="532.5" y1="894.2344" y2="894.2344"/><text fill="#0A9EFD" font-family="Roboto" font-size="14" font-weight="bold" lengthAdjust="spacing" textLength="82" x="350.5" y="889.1582">Leave topic</text><polygon fill="#0A9EFD" points="232.5,928.8438,242.5,932.8438,232.5,936.8438,236.5,932.8438" style="stroke:#0A9EFD;stroke-width:1.0;"/><line style="stroke:#0A9EFD;stroke-width:2.0;" x1="59.5" x2="238.5" y1="932.8438" y2="932.8438"/><text fill="#0A9EFD" font-family="Roboto" font-size="14" font-weight="bold" lengthAdjust="spacing" textLength="103" x="100.5" y="927.7676">Leave channel</text><polygon fill="#0A9EFD" points="255.5,960.4531,245.5,964.4531,255.5,968.4531,251.5,964.4531" style="stroke:#0A9EFD;stroke-width:1.0;"/><polygon fill="#0A9EFD" points="526.5,960.4531,536.5,964.4531,526.5,968.4531,530.5,964.4531" style="stroke:#0A9EFD;stroke-width:1.0;"/><line style="stroke:#0A9EFD;stroke-width:2.0;" x1="249.5" x2="532.5" y1="964.4531" y2="964.4531"/><text fill="#0A9EFD" font-family="Roboto" font-size="14" font-weight="bold" lengthAdjust="spacing" textLength="103" x="340" y="959.377">Leave channel</text><path d="M30,986.4531 L142,986.4531 L142,996.0625 L132,1006.0625 L30,1006.0625 L30,986.4531 " fill="#EEEEEE" style="stroke:#0A9EFD;stroke-width:1.5;"/><rect fill="none" height="159.0469" style="stroke:#0A9EFD;stroke-width:2.0;" width="558" x="30" y="986.4531"/><text fill="#0A9EFD" font-family="Roboto" font-size="14" font-weight="bold" lengthAdjust="spacing" textLength="67" x="45" y="1001.9863">Presence</text><polygon fill="#0A9EFD" points="232.5,1025.6719,242.5,1029.6719,232.5,1033.6719,236.5,1029.6719" style="stroke:#0A9EFD;stroke-width:1.0;"/><line style="stroke:#0A9EFD;stroke-width:2.0;" x1="59.5" x2="238.5" y1="1029.6719" y2="1029.6719"/><text fill="#0A9EFD" font-family="Roboto" font-size="14" font-weight="bold" lengthAdjust="spacing" textLength="101" x="101.5" y="1024.5957">Change status</text><line style="stroke:#0A9EFD;stroke-width:2.0;" x1="244.5" x2="286.5" y1="1061.2813" y2="1061.2813"/><line style="stroke:#0A9EFD;stroke-width:2.0;" x1="286.5" x2="286.5" y1="1061.2813" y2="1074.2813"/><line style="stroke:#0A9EFD;stroke-width:2.0;" x1="245.5" x2="286.5" y1="1074.2813" y2="1074.2813"/><polygon fill="#0A9EFD" points="255.5,1070.2813,245.5,1074.2813,255.5,1078.2813,251.5,1074.2813" style="stroke:#0A9EFD;stroke-width:1.0;"/><text fill="#0A9EFD" font-family="Roboto" font-size="14" font-weight="bold" lengthAdjust="spacing" textLength="152" x="251.5" y="1056.2051">listen for user events</text><polygon fill="#0A9EFD" points="255.5,1101.8906,245.5,1105.8906,255.5,1109.8906,251.5,1105.8906" style="stroke:#0A9EFD;stroke-width:1.0;"/><line style="stroke:#0A9EFD;stroke-width:2.0;" x1="249.5" x2="537.5" y1="1105.8906" y2="1105.8906"/><text fill="#0A9EFD" font-family="Roboto" font-size="14" font-weight="bold" lengthAdjust="spacing" textLength="180" x="301.5" y="1100.8145">ConnectionStateChanged</text><polygon fill="#0A9EFD" points="70.5,1133.5,60.5,1137.5,70.5,1141.5,66.5,1137.5" style="stroke:#0A9EFD;stroke-width:1.0;"/><line style="stroke:#0A9EFD;stroke-width:2.0;" x1="64.5" x2="243.5" y1="1137.5" y2="1137.5"/><text fill="#0A9EFD" font-family="Roboto" font-size="14" font-weight="bold" lengthAdjust="spacing" textLength="89" x="107.5" y="1132.4238">Inform users</text><path d="M30,1159.5 L115,1159.5 L115,1169.1094 L105,1179.1094 L30,1179.1094 L30,1159.5 " fill="#EEEEEE" style="stroke:#0A9EFD;stroke-width:1.5;"/><rect fill="none" height="82.8281" style="stroke:#0A9EFD;stroke-width:2.0;" width="558" x="30" y="1159.5"/><text fill="#0A9EFD" font-family="Roboto" font-size="14" font-weight="bold" lengthAdjust="spacing" textLength="40" x="45" y="1175.0332">Close</text><polygon fill="#0A9EFD" points="232.5,1198.7188,242.5,1202.7188,232.5,1206.7188,236.5,1202.7188" style="stroke:#0A9EFD;stroke-width:1.0;"/><line style="stroke:#0A9EFD;stroke-width:2.0;" x1="59.5" x2="238.5" y1="1202.7188" y2="1202.7188"/><text fill="#0A9EFD" font-family="Roboto" font-size="14" font-weight="bold" lengthAdjust="spacing" textLength="53" x="125.5" y="1197.6426">Log out</text><polygon fill="#0A9EFD" points="526.5,1230.3281,536.5,1234.3281,526.5,1238.3281,530.5,1234.3281" style="stroke:#0A9EFD;stroke-width:1.0;"/><line style="stroke:#0A9EFD;stroke-width:2.0;" x1="244.5" x2="532.5" y1="1234.3281" y2="1234.3281"/><text fill="#0A9EFD" font-family="Roboto" font-size="14" font-weight="bold" lengthAdjust="spacing" textLength="140" x="321.5" y="1229.252">Log out of Signaling</text><!--SRC=[TLDDRwCm4BtpAsQvDxr7rKfHkWUwMJKgsqDFrM0cn0hOo1_HQdzznyGEk4ql83ppthmtFF-GIlI-9LYjxi-o9NrdszCzTjhWkpr9jP9-w8i2XTC6obTBfWIqy5g_54MZ_q7vfhq17CUo6D4uAUI8oa5PoqvXBrK7zUFl2RBPxmjIBJ0gGZTXodUuYAbcJ6Uq7w5Iqadk-4y5Yu2xdu5u3SyZgI2ZuA_huTOGEW84crX_gKug0gciGoKewzwqBNWs27GcbYAmxniK9virrUJ07PdJyrEnRdHIAt3wH6fkhDQmqnsFuG9SBGKhoSRsY4eHRtPf8kgrZjy3YDWIM1yIRMo9DU2VWaasZqgG9Mdj6okCR2Wqu8ArYgnXSAIRdDkayQyUfSYudlHaAHpVKZLLFcjoNrWoHObjeMQQcxHSfFmXQx4Zc- -h3jaOBgLi-NlVzD8UKssUCmrAy4WA1wE7XQjKtadhE5G7zfDuegROnLBMy4A2v9ckCi8_NchS4PxfriwMXMzGDnEGbnQHsXko54ATPueRkv0fT3wFSZ_xcsDlimrjDGyH8U4ru-d2rMR-AyK4myHWBpvYm7jjyoiQReJsxiijuJFGXq_Nv0C0]--></g></svg>