<?xml version="1.0" encoding="UTF-8" standalone="no"?><svg xmlns="http://www.w3.org/2000/svg" xmlns:xlink="http://www.w3.org/1999/xlink" contentStyleType="text/css" height="1242px" preserveAspectRatio="none" style="width:530px;height:1242px;" version="1.1" viewBox="0 0 530 1242" width="530px" zoomAndPan="magnify"><defs/><g><rect fill="none" height="1240.0781" style="stroke:#0A9EFD;stroke-width:1.0;" width="528.5" x="0" y="0"/><rect fill="#999999" fill-opacity="0.33333" height="1230.0781" style="stroke:#0A9EFD;stroke-width:0.5;" width="112" x="158.5" y="6"/><text fill="#0A9EFD" font-family="sans-serif" font-size="13" font-weight="bold" lengthAdjust="spacing" textLength="57" x="186" y="20.0283">Your app</text><rect fill="#999999" fill-opacity="0.33333" height="1230.0781" style="stroke:#0A9EFD;stroke-width:0.5;" width="80" x="418.5" y="6"/><text fill="#0A9EFD" font-family="sans-serif" font-size="13" font-weight="bold" lengthAdjust="spacing" textLength="38" x="439.5" y="20.0283">Agora</text><rect fill="#0A9EFD" fill-opacity="0.06667" height="198.1406" style="stroke:#0A9EFD;stroke-width:2.0;" width="474.5" x="30" y="102.6406"/><rect fill="#0A9EFD" fill-opacity="0.06667" height="575.4688" style="stroke:#0A9EFD;stroke-width:2.0;" width="514.5" x="10" y="314.7813"/><rect fill="#0A9EFD" fill-opacity="0.06667" height="373.8047" style="stroke:#0A9EFD;stroke-width:2.0;" width="494.5" x="20" y="452.3984"/><rect fill="#0A9EFD" fill-opacity="0.06667" height="172.1406" style="stroke:#0A9EFD;stroke-width:2.0;" width="474.5" x="30" y="590.0156"/><rect fill="#0A9EFD" fill-opacity="0.06667" height="143.6172" style="stroke:#0A9EFD;stroke-width:2.0;" width="474.5" x="30" y="904.25"/><rect fill="#0A9EFD" fill-opacity="0.06667" height="73.5703" style="stroke:#0A9EFD;stroke-width:2.0;" width="474.5" x="30" y="1061.8672"/><line style="stroke:#0A9EFD;stroke-width:0.5;stroke-dasharray:5.0,5.0;" x1="57" x2="57" y1="85.6406" y2="1152.4375"/><line style="stroke:#0A9EFD;stroke-width:0.5;stroke-dasharray:5.0,5.0;" x1="214.5" x2="214.5" y1="85.6406" y2="1152.4375"/><line style="stroke:#0A9EFD;stroke-width:0.5;stroke-dasharray:5.0,5.0;" x1="458.5" x2="458.5" y1="85.6406" y2="1152.4375"/><text fill="#0A9EFD" font-family="Arial" font-size="14" lengthAdjust="spacing" textLength="29" x="40" y="82.6738">User</text><ellipse cx="57.5" cy="16" fill="none" rx="8" ry="8" style="stroke:#0A9EFD;stroke-width:3.0;"/><path d="M57.5,24 L57.5,51 M44.5,32 L70.5,32 M57.5,51 L44.5,66 M57.5,51 L70.5,66 " fill="none" style="stroke:#0A9EFD;stroke-width:3.0;"/><text fill="#0A9EFD" font-family="Arial" font-size="14" lengthAdjust="spacing" textLength="29" x="40" y="1164.1113">User</text><ellipse cx="57.5" cy="1178.0781" fill="none" rx="8" ry="8" style="stroke:#0A9EFD;stroke-width:3.0;"/><path d="M57.5,1186.0781 L57.5,1213.0781 M44.5,1194.0781 L70.5,1194.0781 M57.5,1213.0781 L44.5,1228.0781 M57.5,1213.0781 L70.5,1228.0781 " fill="none" style="stroke:#0A9EFD;stroke-width:3.0;"/><rect fill="none" height="29.6406" rx="2.5" ry="2.5" style="stroke:#0A9EFD;stroke-width:2.0;" width="104" x="162.5" y="55"/><text fill="#0A9EFD" font-family="Arial" font-size="14" lengthAdjust="spacing" textLength="90" x="169.5" y="74.6738">Signaling SDK</text><rect fill="none" height="29.6406" rx="2.5" ry="2.5" style="stroke:#0A9EFD;stroke-width:2.0;" width="104" x="162.5" y="1151.4375"/><text fill="#0A9EFD" font-family="Arial" font-size="14" lengthAdjust="spacing" textLength="90" x="169.5" y="1171.1113">Signaling SDK</text><rect fill="none" height="29.6406" rx="2.5" ry="2.5" style="stroke:#0A9EFD;stroke-width:2.0;" width="72" x="422.5" y="55"/><text fill="#0A9EFD" font-family="Arial" font-size="14" lengthAdjust="spacing" textLength="58" x="429.5" y="74.6738">Signaling</text><rect fill="none" height="29.6406" rx="2.5" ry="2.5" style="stroke:#0A9EFD;stroke-width:2.0;" width="72" x="422.5" y="1151.4375"/><text fill="#0A9EFD" font-family="Arial" font-size="14" lengthAdjust="spacing" textLength="58" x="429.5" y="1171.1113">Signaling</text><path d="M30,102.6406 L122,102.6406 L122,109.1641 L112,119.1641 L30,119.1641 L30,102.6406 " fill="#EEEEEE" style="stroke:#0A9EFD;stroke-width:1.5;"/><rect fill="none" height="198.1406" style="stroke:#0A9EFD;stroke-width:2.0;" width="474.5" x="30" y="102.6406"/><text fill="#000000" font-family="Arial" font-size="13" lengthAdjust="spacing" textLength="47" x="45" y="115.4092">Initialize</text><polygon fill="#0A9EFD" points="202.5,135.6875,212.5,139.6875,202.5,143.6875,206.5,139.6875" style="stroke:#0A9EFD;stroke-width:1.0;"/><line style="stroke:#0A9EFD;stroke-width:2.0;" x1="57.5" x2="208.5" y1="139.6875" y2="139.6875"/><text fill="#0A9EFD" font-family="Arial" font-size="13" lengthAdjust="spacing" textLength="56" x="108" y="134.9326">Open app</text><line style="stroke:#0A9EFD;stroke-width:2.0;" x1="214.5" x2="256.5" y1="168.2109" y2="168.2109"/><line style="stroke:#0A9EFD;stroke-width:2.0;" x1="256.5" x2="256.5" y1="168.2109" y2="181.2109"/><line style="stroke:#0A9EFD;stroke-width:2.0;" x1="215.5" x2="256.5" y1="181.2109" y2="181.2109"/><polygon fill="#0A9EFD" points="225.5,177.2109,215.5,181.2109,225.5,185.2109,221.5,181.2109" style="stroke:#0A9EFD;stroke-width:1.0;"/><text fill="#0A9EFD" font-family="Arial" font-size="13" lengthAdjust="spacing" textLength="197" x="221.5" y="163.4561">Create a signalingEngine instance</text><line style="stroke:#0A9EFD;stroke-width:2.0;" x1="214.5" x2="256.5" y1="209.7344" y2="209.7344"/><line style="stroke:#0A9EFD;stroke-width:2.0;" x1="256.5" x2="256.5" y1="209.7344" y2="222.7344"/><line style="stroke:#0A9EFD;stroke-width:2.0;" x1="215.5" x2="256.5" y1="222.7344" y2="222.7344"/><polygon fill="#0A9EFD" points="225.5,218.7344,215.5,222.7344,225.5,226.7344,221.5,222.7344" style="stroke:#0A9EFD;stroke-width:1.0;"/><text fill="#0A9EFD" font-family="Arial" font-size="13" lengthAdjust="spacing" textLength="145" x="221.5" y="204.9795">Add user event callbacks</text><line style="stroke:#0A9EFD;stroke-width:2.0;" x1="214.5" x2="256.5" y1="251.2578" y2="251.2578"/><line style="stroke:#0A9EFD;stroke-width:2.0;" x1="256.5" x2="256.5" y1="251.2578" y2="264.2578"/><line style="stroke:#0A9EFD;stroke-width:2.0;" x1="215.5" x2="256.5" y1="264.2578" y2="264.2578"/><polygon fill="#0A9EFD" points="225.5,260.2578,215.5,264.2578,225.5,268.2578,221.5,264.2578" style="stroke:#0A9EFD;stroke-width:1.0;"/><text fill="#0A9EFD" font-family="Arial" font-size="13" lengthAdjust="spacing" textLength="163" x="221.5" y="246.5029">Set the authentication token</text><polygon fill="#0A9EFD" points="446.5,288.7813,456.5,292.7813,446.5,296.7813,450.5,292.7813" style="stroke:#0A9EFD;stroke-width:1.0;"/><line style="stroke:#0A9EFD;stroke-width:2.0;" x1="214.5" x2="452.5" y1="292.7813" y2="292.7813"/><text fill="#0A9EFD" font-family="Arial" font-size="13" lengthAdjust="spacing" textLength="107" x="283" y="288.0264">Log in to Signaling</text><path d="M10,314.7813 L102,314.7813 L102,321.3047 L92,331.3047 L10,331.3047 L10,314.7813 " fill="#EEEEEE" style="stroke:#0A9EFD;stroke-width:1.5;"/><rect fill="none" height="575.4688" style="stroke:#0A9EFD;stroke-width:2.0;" width="514.5" x="10" y="314.7813"/><text fill="#000000" font-family="Arial" font-size="13" lengthAdjust="spacing" textLength="47" x="25" y="327.5498">Channel</text><polygon fill="#0A9EFD" points="202.5,347.8281,212.5,351.8281,202.5,355.8281,206.5,351.8281" style="stroke:#0A9EFD;stroke-width:1.0;"/><line style="stroke:#0A9EFD;stroke-width:2.0;" x1="57.5" x2="208.5" y1="351.8281" y2="351.8281"/><text fill="#0A9EFD" font-family="Arial" font-size="13" lengthAdjust="spacing" textLength="131" x="70.5" y="347.0732">Create stream channel</text><polygon fill="#0A9EFD" points="225.5,376.3516,215.5,380.3516,225.5,384.3516,221.5,380.3516" style="stroke:#0A9EFD;stroke-width:1.0;"/><polygon fill="#0A9EFD" points="446.5,376.3516,456.5,380.3516,446.5,384.3516,450.5,380.3516" style="stroke:#0A9EFD;stroke-width:1.0;"/><line style="stroke:#0A9EFD;stroke-width:2.0;" x1="219.5" x2="452.5" y1="380.3516" y2="380.3516"/><text fill="#0A9EFD" font-family="Arial" font-size="13" lengthAdjust="spacing" textLength="220" x="226.5" y="375.5967">Create channel or add user to channel</text><polygon fill="#0A9EFD" points="202.5,404.875,212.5,408.875,202.5,412.875,206.5,408.875" style="stroke:#0A9EFD;stroke-width:1.0;"/><line style="stroke:#0A9EFD;stroke-width:2.0;" x1="57.5" x2="208.5" y1="408.875" y2="408.875"/><text fill="#0A9EFD" font-family="Arial" font-size="13" lengthAdjust="spacing" textLength="133" x="69.5" y="404.1201">Subscribe to a channel</text><polygon fill="#0A9EFD" points="225.5,433.3984,215.5,437.3984,225.5,441.3984,221.5,437.3984" style="stroke:#0A9EFD;stroke-width:1.0;"/><polygon fill="#0A9EFD" points="446.5,433.3984,456.5,437.3984,446.5,441.3984,450.5,437.3984" style="stroke:#0A9EFD;stroke-width:1.0;"/><line style="stroke:#0A9EFD;stroke-width:2.0;" x1="219.5" x2="452.5" y1="437.3984" y2="437.3984"/><text fill="#0A9EFD" font-family="Arial" font-size="13" lengthAdjust="spacing" textLength="88" x="292.5" y="432.6436">Channel events</text><path d="M20,452.3984 L96,452.3984 L96,458.9219 L86,468.9219 L20,468.9219 L20,452.3984 " fill="#EEEEEE" style="stroke:#0A9EFD;stroke-width:1.5;"/><rect fill="none" height="373.8047" style="stroke:#0A9EFD;stroke-width:2.0;" width="494.5" x="20" y="452.3984"/><text fill="#000000" font-family="Arial" font-size="13" lengthAdjust="spacing" textLength="31" x="35" y="465.167">Topic</text><polygon fill="#0A9EFD" points="202.5,485.4453,212.5,489.4453,202.5,493.4453,206.5,489.4453" style="stroke:#0A9EFD;stroke-width:1.0;"/><line style="stroke:#0A9EFD;stroke-width:2.0;" x1="57.5" x2="208.5" y1="489.4453" y2="489.4453"/><text fill="#0A9EFD" font-family="Arial" font-size="13" lengthAdjust="spacing" textLength="55" x="108.5" y="484.6904">Join topic</text><polygon fill="#0A9EFD" points="225.5,513.9688,215.5,517.9688,225.5,521.9688,221.5,517.9688" style="stroke:#0A9EFD;stroke-width:1.0;"/><polygon fill="#0A9EFD" points="446.5,513.9688,456.5,517.9688,446.5,521.9688,450.5,517.9688" style="stroke:#0A9EFD;stroke-width:1.0;"/><line style="stroke:#0A9EFD;stroke-width:2.0;" x1="219.5" x2="452.5" y1="517.9688" y2="517.9688"/><text fill="#0A9EFD" font-family="Arial" font-size="13" lengthAdjust="spacing" textLength="186" x="243.5" y="513.2139">Create topic or add user to topic</text><polygon fill="#0A9EFD" points="202.5,542.4922,212.5,546.4922,202.5,550.4922,206.5,546.4922" style="stroke:#0A9EFD;stroke-width:1.0;"/><line style="stroke:#0A9EFD;stroke-width:2.0;" x1="57.5" x2="208.5" y1="546.4922" y2="546.4922"/><text fill="#0A9EFD" font-family="Arial" font-size="13" lengthAdjust="spacing" textLength="105" x="83.5" y="541.7373">Subscribe to topic</text><polygon fill="#0A9EFD" points="225.5,571.0156,215.5,575.0156,225.5,579.0156,221.5,575.0156" style="stroke:#0A9EFD;stroke-width:1.0;"/><polygon fill="#0A9EFD" points="446.5,571.0156,456.5,575.0156,446.5,579.0156,450.5,575.0156" style="stroke:#0A9EFD;stroke-width:1.0;"/><line style="stroke:#0A9EFD;stroke-width:2.0;" x1="219.5" x2="452.5" y1="575.0156" y2="575.0156"/><text fill="#0A9EFD" font-family="Arial" font-size="13" lengthAdjust="spacing" textLength="72" x="300.5" y="570.2607">Topic events</text><path d="M30,590.0156 L135,590.0156 L135,596.5391 L125,606.5391 L30,606.5391 L30,590.0156 " fill="#EEEEEE" style="stroke:#0A9EFD;stroke-width:1.5;"/><rect fill="none" height="172.1406" style="stroke:#0A9EFD;stroke-width:2.0;" width="474.5" x="30" y="590.0156"/><text fill="#000000" font-family="Arial" font-size="13" lengthAdjust="spacing" textLength="60" x="45" y="602.7842">Messages</text><polygon fill="#0A9EFD" points="202.5,623.0625,212.5,627.0625,202.5,631.0625,206.5,627.0625" style="stroke:#0A9EFD;stroke-width:1.0;"/><line style="stroke:#0A9EFD;stroke-width:2.0;" x1="57.5" x2="208.5" y1="627.0625" y2="627.0625"/><text fill="#0A9EFD" font-family="Arial" font-size="13" lengthAdjust="spacing" textLength="87" x="92.5" y="622.3076">Send message</text><polygon fill="#0A9EFD" points="446.5,651.5859,456.5,655.5859,446.5,659.5859,450.5,655.5859" style="stroke:#0A9EFD;stroke-width:1.0;"/><line style="stroke:#0A9EFD;stroke-width:2.0;" x1="214.5" x2="452.5" y1="655.5859" y2="655.5859"/><text fill="#0A9EFD" font-family="Arial" font-size="13" lengthAdjust="spacing" textLength="147" x="263" y="650.8311">Publish message to topic</text><polygon fill="#0A9EFD" points="225.5,680.1094,215.5,684.1094,225.5,688.1094,221.5,684.1094" style="stroke:#0A9EFD;stroke-width:1.0;"/><line style="stroke:#0A9EFD;stroke-width:2.0;" x1="219.5" x2="457.5" y1="684.1094" y2="684.1094"/><text fill="#0A9EFD" font-family="Arial" font-size="13" lengthAdjust="spacing" textLength="114" x="279.5" y="679.3545">Message from topic</text><line style="stroke:#0A9EFD;stroke-width:2.0;" x1="214.5" x2="256.5" y1="712.6328" y2="712.6328"/><line style="stroke:#0A9EFD;stroke-width:2.0;" x1="256.5" x2="256.5" y1="712.6328" y2="725.6328"/><line style="stroke:#0A9EFD;stroke-width:2.0;" x1="215.5" x2="256.5" y1="725.6328" y2="725.6328"/><polygon fill="#0A9EFD" points="225.5,721.6328,215.5,725.6328,225.5,729.6328,221.5,725.6328" style="stroke:#0A9EFD;stroke-width:1.0;"/><text fill="#0A9EFD" font-family="Arial" font-size="13" lengthAdjust="spacing" textLength="151" x="221.5" y="707.8779">Listen for message events</text><polygon fill="#0A9EFD" points="68.5,750.1563,58.5,754.1563,68.5,758.1563,64.5,754.1563" style="stroke:#0A9EFD;stroke-width:1.0;"/><line style="stroke:#0A9EFD;stroke-width:2.0;" x1="62.5" x2="213.5" y1="754.1563" y2="754.1563"/><text fill="#0A9EFD" font-family="Arial" font-size="13" lengthAdjust="spacing" textLength="102" x="85" y="749.4014">Receive message</text><polygon fill="#0A9EFD" points="202.5,785.6797,212.5,789.6797,202.5,793.6797,206.5,789.6797" style="stroke:#0A9EFD;stroke-width:1.0;"/><line style="stroke:#0A9EFD;stroke-width:2.0;" x1="57.5" x2="208.5" y1="789.6797" y2="789.6797"/><text fill="#0A9EFD" font-family="Arial" font-size="13" lengthAdjust="spacing" textLength="65" x="103.5" y="784.9248">Leave topic</text><polygon fill="#0A9EFD" points="225.5,814.2031,215.5,818.2031,225.5,822.2031,221.5,818.2031" style="stroke:#0A9EFD;stroke-width:1.0;"/><polygon fill="#0A9EFD" points="446.5,814.2031,456.5,818.2031,446.5,822.2031,450.5,818.2031" style="stroke:#0A9EFD;stroke-width:1.0;"/><line style="stroke:#0A9EFD;stroke-width:2.0;" x1="219.5" x2="452.5" y1="818.2031" y2="818.2031"/><text fill="#0A9EFD" font-family="Arial" font-size="13" lengthAdjust="spacing" textLength="65" x="304" y="813.4482">Leave topic</text><polygon fill="#0A9EFD" points="202.5,849.7266,212.5,853.7266,202.5,857.7266,206.5,853.7266" style="stroke:#0A9EFD;stroke-width:1.0;"/><line style="stroke:#0A9EFD;stroke-width:2.0;" x1="57.5" x2="208.5" y1="853.7266" y2="853.7266"/><text fill="#0A9EFD" font-family="Arial" font-size="13" lengthAdjust="spacing" textLength="82" x="95" y="848.9717">Leave channel</text><polygon fill="#0A9EFD" points="225.5,878.25,215.5,882.25,225.5,886.25,221.5,882.25" style="stroke:#0A9EFD;stroke-width:1.0;"/><polygon fill="#0A9EFD" points="446.5,878.25,456.5,882.25,446.5,886.25,450.5,882.25" style="stroke:#0A9EFD;stroke-width:1.0;"/><line style="stroke:#0A9EFD;stroke-width:2.0;" x1="219.5" x2="452.5" y1="882.25" y2="882.25"/><text fill="#0A9EFD" font-family="Arial" font-size="13" lengthAdjust="spacing" textLength="82" x="295.5" y="877.4951">Leave channel</text><path d="M30,904.25 L130,904.25 L130,910.7734 L120,920.7734 L30,920.7734 L30,904.25 " fill="#EEEEEE" style="stroke:#0A9EFD;stroke-width:1.5;"/><rect fill="none" height="143.6172" style="stroke:#0A9EFD;stroke-width:2.0;" width="474.5" x="30" y="904.25"/><text fill="#000000" font-family="Arial" font-size="13" lengthAdjust="spacing" textLength="55" x="45" y="917.0186">Presence</text><polygon fill="#0A9EFD" points="202.5,937.2969,212.5,941.2969,202.5,945.2969,206.5,941.2969" style="stroke:#0A9EFD;stroke-width:1.0;"/><line style="stroke:#0A9EFD;stroke-width:2.0;" x1="57.5" x2="208.5" y1="941.2969" y2="941.2969"/><text fill="#0A9EFD" font-family="Arial" font-size="13" lengthAdjust="spacing" textLength="84" x="94" y="936.542">Change status</text><line style="stroke:#0A9EFD;stroke-width:2.0;" x1="214.5" x2="256.5" y1="969.8203" y2="969.8203"/><line style="stroke:#0A9EFD;stroke-width:2.0;" x1="256.5" x2="256.5" y1="969.8203" y2="982.8203"/><line style="stroke:#0A9EFD;stroke-width:2.0;" x1="215.5" x2="256.5" y1="982.8203" y2="982.8203"/><polygon fill="#0A9EFD" points="225.5,978.8203,215.5,982.8203,225.5,986.8203,221.5,982.8203" style="stroke:#0A9EFD;stroke-width:1.0;"/><text fill="#0A9EFD" font-family="Arial" font-size="13" lengthAdjust="spacing" textLength="119" x="221.5" y="965.0654">listen for user events</text><polygon fill="#0A9EFD" points="225.5,1007.3438,215.5,1011.3438,225.5,1015.3438,221.5,1011.3438" style="stroke:#0A9EFD;stroke-width:1.0;"/><line style="stroke:#0A9EFD;stroke-width:2.0;" x1="219.5" x2="457.5" y1="1011.3438" y2="1011.3438"/><text fill="#0A9EFD" font-family="Arial" font-size="13" lengthAdjust="spacing" textLength="147" x="263" y="1006.5889">ConnectionStateChanged</text><polygon fill="#0A9EFD" points="68.5,1035.8672,58.5,1039.8672,68.5,1043.8672,64.5,1039.8672" style="stroke:#0A9EFD;stroke-width:1.0;"/><line style="stroke:#0A9EFD;stroke-width:2.0;" x1="62.5" x2="213.5" y1="1039.8672" y2="1039.8672"/><text fill="#0A9EFD" font-family="Arial" font-size="13" lengthAdjust="spacing" textLength="71" x="100.5" y="1035.1123">Inform users</text><path d="M30,1061.8672 L108,1061.8672 L108,1068.3906 L98,1078.3906 L30,1078.3906 L30,1061.8672 " fill="#EEEEEE" style="stroke:#0A9EFD;stroke-width:1.5;"/><rect fill="none" height="73.5703" style="stroke:#0A9EFD;stroke-width:2.0;" width="474.5" x="30" y="1061.8672"/><text fill="#000000" font-family="Arial" font-size="13" lengthAdjust="spacing" textLength="33" x="45" y="1074.6357">Close</text><polygon fill="#0A9EFD" points="202.5,1094.9141,212.5,1098.9141,202.5,1102.9141,206.5,1098.9141" style="stroke:#0A9EFD;stroke-width:1.0;"/><line style="stroke:#0A9EFD;stroke-width:2.0;" x1="57.5" x2="208.5" y1="1098.9141" y2="1098.9141"/><text fill="#0A9EFD" font-family="Arial" font-size="13" lengthAdjust="spacing" textLength="43" x="114.5" y="1094.1592">Log out</text><polygon fill="#0A9EFD" points="446.5,1123.4375,456.5,1127.4375,446.5,1131.4375,450.5,1127.4375" style="stroke:#0A9EFD;stroke-width:1.0;"/><line style="stroke:#0A9EFD;stroke-width:2.0;" x1="214.5" x2="452.5" y1="1127.4375" y2="1127.4375"/><text fill="#0A9EFD" font-family="Arial" font-size="13" lengthAdjust="spacing" textLength="114" x="279.5" y="1122.6826">Log out of Signaling</text><!--SRC=[TLDDRwCm4BtpAsQvDxr7rKfHkWUwMJKgsqDFrM0cn0hOo1_HQdzznyGEk4ql83ppthmtFF-GIlI-9LYjxi-o9NrdszCzTjhWkpr9jP9-w8i2XTC6obTBfWIqy5g_54MZ_q7vfhq17CUo6D4uAUI8oa5PoqvXBrK7zUFl2RBPxmjIBJ0gGZTXodUuYAbcJ6Uq7w5Iqadk-4y5Yu2xdu5u3SyZgI2ZuA_huTOGEW84crX_gKug0gciGoKewzwqBNWs27GcbYAmxniK9virrUJ07PdJyrEnRdHIAt3wH6fkhDQmqnsFuG9SBGKhoSRsY4eHRtPf8kgrZjy3YDWIM1yIRMo9DU2VWaasZqgG9Mdj6okCR2Wqu8ArYgnXSAIRdDkayQyUfSYudlHaAHpVKZLLFcjoNrWoHObjeMQQcxHSfFmXQx4Zc- -h3jaOBgLi-NlVzD8UKssUCmrAy4WA1wE7XQjKtadhE5G7zfDuegROnLBMy4A2v9ckCi8_NchS4PxfriwMXMzGDnEGbnQHsXko54ATPueRkv0fT3wFSZ_xcsDlimrjDGyH8U4ru-d2rMR-AyK4myHWBpvYm7jjyoiQReJsxiijuJFGXq_Nv0C0]--></g></svg>