<svg xmlns="http://www.w3.org/2000/svg" xmlns:xlink="http://www.w3.org/1999/xlink" contentStyleType="text/css" data-diagram-type="SEQUENCE" height="793px" preserveAspectRatio="none" style="width:456px;height:793px;" version="1.1" viewBox="0 0 456 793" width="456px" zoomAndPan="magnify"><?plantuml 1.2026.4?><defs/><g><rect fill="none" height="791.1206" style="stroke:#0A9EFD;stroke-width:1;" width="454.3799" x="0" y="0"/><rect fill="#999999" fill-opacity="0.33333" height="780.1206" style="stroke:#0A9EFD;stroke-width:0.5;" width="225.8892" x="46.5586" y="6"/><text fill="#0A9EFD" font-family="sans-serif" font-size="13" font-weight="700" lengthAdjust="spacing" textLength="125.6899" x="96.6582" y="19.4951">Implemented by you</text><rect fill="#999999" fill-opacity="0.33333" height="780.1206" style="stroke:#0A9EFD;stroke-width:0.5;" width="78.3257" x="350.2014" y="6"/><text fill="#0A9EFD" font-family="sans-serif" font-size="13" font-weight="700" lengthAdjust="spacing" textLength="37.5591" x="370.5847" y="19.4951">Agora</text><g class="participant-lifeline" data-entity-uid="part1" data-qualified-name="USR" data-source-line="3" id="part1-lifeline"><g><title>User</title><rect fill="#000000" fill-opacity="0.00000" height="615.9233" width="8" x="18.7793" y="86.0986"/><line style="stroke:#0A9EFD;stroke-width:0.5;stroke-dasharray:5,5;" x1="22" x2="22" y1="86.0986" y2="702.022"/></g></g><g class="participant-lifeline" data-entity-uid="part2" data-qualified-name="SVR" data-source-line="6" id="part2-lifeline"><g><title>Web server</title><rect fill="#000000" fill-opacity="0.00000" height="615.9233" width="8" x="89.3447" y="86.0986"/><line style="stroke:#0A9EFD;stroke-width:0.5;stroke-dasharray:5,5;" x1="92.5586" x2="92.5586" y1="86.0986" y2="702.022"/></g></g><g class="participant-lifeline" data-entity-uid="part3" data-qualified-name="APP" data-source-line="7" id="part3-lifeline"><g><title>App</title><rect fill="#000000" fill-opacity="0.00000" height="615.9233" width="8" x="244.9927" y="86.0986"/><line style="stroke:#0A9EFD;stroke-width:0.5;stroke-dasharray:5,5;" x1="248.5376" x2="248.5376" y1="86.0986" y2="702.022"/></g></g><g class="participant-lifeline" data-entity-uid="part4" data-qualified-name="API" data-source-line="11" id="part4-lifeline"><g><title>SDRTN.sup....sup.</title><rect fill="#000000" fill-opacity="0.00000" height="615.9233" width="8" x="385.3643" y="86.0986"/><line style="stroke:#0A9EFD;stroke-width:0.5;stroke-dasharray:5,5;" x1="389.2014" x2="389.2014" y1="86.0986" y2="702.022"/></g></g><g class="participant participant-head" data-entity-uid="part1" data-qualified-name="USR" data-source-line="3" id="part1-head"><text fill="#0A9EFD" font-family="Arial" font-size="14" lengthAdjust="spacing" textLength="29.5586" x="5" y="83.1318">User</text><ellipse cx="22.7793" cy="16" fill="none" rx="8" ry="8" style="stroke:#0A9EFD;stroke-width:3;"/><path d="M22.7793,24 L22.7793,51 M9.7793,32 L35.7793,32 M22.7793,51 L9.7793,66 M22.7793,51 L35.7793,66" fill="none" style="stroke:#0A9EFD;stroke-width:3;"/></g><g class="participant participant-tail" data-entity-uid="part1" data-qualified-name="USR" data-source-line="3" id="part1-tail"><text fill="#0A9EFD" font-family="Arial" font-size="14" lengthAdjust="spacing" textLength="29.5586" x="5" y="714.1538">User</text><ellipse cx="22.7793" cy="728.1206" fill="none" rx="8" ry="8" style="stroke:#0A9EFD;stroke-width:3;"/><path d="M22.7793,736.1206 L22.7793,763.1206 M9.7793,744.1206 L35.7793,744.1206 M22.7793,763.1206 L9.7793,778.1206 M22.7793,763.1206 L35.7793,778.1206" fill="none" style="stroke:#0A9EFD;stroke-width:3;"/></g><g class="participant participant-head" data-entity-uid="part2" data-qualified-name="SVR" data-source-line="6" id="part2-head"><rect fill="none" height="30.0986" rx="2.5" ry="2.5" style="stroke:#0A9EFD;stroke-width:2;" width="85.5723" x="50.5586" y="55"/><text fill="#0A9EFD" font-family="Arial" font-size="14" lengthAdjust="spacing" textLength="71.5723" x="57.5586" y="75.1318">Web server</text></g><g class="participant participant-tail" data-entity-uid="part2" data-qualified-name="SVR" data-source-line="6" id="part2-tail"><rect fill="none" height="30.0986" rx="2.5" ry="2.5" style="stroke:#0A9EFD;stroke-width:2;" width="85.5723" x="50.5586" y="701.022"/><text fill="#0A9EFD" font-family="Arial" font-size="14" lengthAdjust="spacing" textLength="71.5723" x="57.5586" y="721.1538">Web server</text></g><g class="participant participant-head" data-entity-uid="part3" data-qualified-name="APP" data-source-line="7" id="part3-head"><rect fill="none" height="30.0986" rx="2.5" ry="2.5" style="stroke:#0A9EFD;stroke-width:2;" width="38.9102" x="229.5376" y="55"/><text fill="#0A9EFD" font-family="Arial" font-size="14" lengthAdjust="spacing" textLength="24.9102" x="236.5376" y="75.1318">App</text></g><g class="participant participant-tail" data-entity-uid="part3" data-qualified-name="APP" data-source-line="7" id="part3-tail"><rect fill="none" height="30.0986" rx="2.5" ry="2.5" style="stroke:#0A9EFD;stroke-width:2;" width="38.9102" x="229.5376" y="701.022"/><text fill="#0A9EFD" font-family="Arial" font-size="14" lengthAdjust="spacing" textLength="24.9102" x="236.5376" y="721.1538">App</text></g><g class="participant participant-head" data-entity-uid="part4" data-qualified-name="API" data-source-line="11" id="part4-head"><rect fill="none" height="32.6489" rx="2.5" ry="2.5" style="stroke:#0A9EFD;stroke-width:2;" width="70.3257" x="354.2014" y="52.4497"/><text fill="#0A9EFD" font-family="Arial" font-size="14" lengthAdjust="spacing" textLength="48.2207" x="361.2014" y="75.1318">SDRTN</text><text fill="#0A9EFD" font-family="Arial" font-size="11" lengthAdjust="spacing" textLength="8.105" x="409.4221" y="69.7676">&#174;</text></g><g class="participant participant-tail" data-entity-uid="part4" data-qualified-name="API" data-source-line="11" id="part4-tail"><rect fill="none" height="32.6489" rx="2.5" ry="2.5" style="stroke:#0A9EFD;stroke-width:2;" width="70.3257" x="354.2014" y="701.022"/><text fill="#0A9EFD" font-family="Arial" font-size="14" lengthAdjust="spacing" textLength="48.2207" x="361.2014" y="723.7041">SDRTN</text><text fill="#0A9EFD" font-family="Arial" font-size="11" lengthAdjust="spacing" textLength="8.105" x="409.4221" y="718.3398">&#174;</text></g><g class="message" data-entity-1="part1" data-entity-2="part3" data-source-line="13" id="msg1"><polygon fill="#0A9EFD" points="236.9927,113.0474,246.9927,117.0474,236.9927,121.0474,240.9927,117.0474" style="stroke:#0A9EFD;stroke-width:1;stroke-linejoin:miter;stroke-miterlimit:10;"/><line style="stroke:#0A9EFD;stroke-width:2;" x1="22.7793" x2="242.9927" y1="117.0474" y2="117.0474"/><text fill="#0A9EFD" font-family="Arial" font-size="13" lengthAdjust="spacing" textLength="31.8081" x="119.9819" y="112.2925">Login</text></g><g class="message" data-entity-1="part3" data-entity-2="part4" data-source-line="14" id="msg2"><polygon fill="#0A9EFD" points="259.9927,141.9961,249.9927,145.9961,259.9927,149.9961,255.9927,145.9961" style="stroke:#0A9EFD;stroke-width:1;stroke-linejoin:miter;stroke-miterlimit:10;"/><polygon fill="#0A9EFD" points="377.3643,141.9961,387.3643,145.9961,377.3643,149.9961,381.3643,145.9961" style="stroke:#0A9EFD;stroke-width:1;stroke-linejoin:miter;stroke-miterlimit:10;"/><line style="stroke:#0A9EFD;stroke-width:2;" x1="253.9927" x2="383.3643" y1="145.9961" y2="145.9961"/><text fill="#0A9EFD" font-family="Arial" font-size="13" lengthAdjust="spacing" textLength="116.3716" x="260.9927" y="141.2412">Login authentication</text></g><path d="M333,158.9961 L333,182.9961 L445,182.9961 L445,168.9961 L435,158.9961 L333,158.9961" fill="none" style="stroke:#0A9EFD;stroke-width:1;"/><path d="M435,158.9961 L435,168.9961 L445,168.9961 L435,158.9961" fill="none" style="stroke:#0A9EFD;stroke-width:1;"/><text fill="#0A9EFD" font-family="Arial" font-size="13" lengthAdjust="spacing" textLength="82.3799" x="348" y="176.1899">No notification</text><g class="message" data-entity-1="part1" data-entity-2="part3" data-source-line="16" id="msg3"><polygon fill="#0A9EFD" points="236.9927,205.8936,246.9927,209.8936,236.9927,213.8936,240.9927,209.8936" style="stroke:#0A9EFD;stroke-width:1;stroke-linejoin:miter;stroke-miterlimit:10;"/><line style="stroke:#0A9EFD;stroke-width:2;" x1="22.7793" x2="242.9927" y1="209.8936" y2="209.8936"/><text fill="#0A9EFD" font-family="Arial" font-size="13" lengthAdjust="spacing" textLength="88.1689" x="91.8015" y="205.1387">Create channel</text></g><g class="message" data-entity-1="part3" data-entity-2="part4" data-source-line="17" id="msg4"><polygon fill="#0A9EFD" points="377.3643,234.8423,387.3643,238.8423,377.3643,242.8423,381.3643,238.8423" style="stroke:#0A9EFD;stroke-width:1;stroke-linejoin:miter;stroke-miterlimit:10;"/><line style="stroke:#0A9EFD;stroke-width:2;" x1="248.9927" x2="383.3643" y1="238.8423" y2="238.8423"/><text fill="#0A9EFD" font-family="Arial" font-size="13" lengthAdjust="spacing" textLength="88.1689" x="275.094" y="234.0874">Create channel</text></g><g class="message" data-entity-1="part4" data-entity-2="part3" data-source-line="18" id="msg5"><polygon fill="#0A9EFD" points="259.9927,263.791,249.9927,267.791,259.9927,271.791,255.9927,267.791" style="stroke:#0A9EFD;stroke-width:1;stroke-linejoin:miter;stroke-miterlimit:10;"/><line style="stroke:#0A9EFD;stroke-width:2;" x1="253.9927" x2="388.3643" y1="267.791" y2="267.791"/><text fill="#0A9EFD" font-family="Arial" font-size="13" lengthAdjust="spacing" textLength="80.9517" x="278.7026" y="263.0361">Open channel</text></g><g class="message" data-entity-1="part4" data-entity-2="part2" data-source-line="19" id="msg6"><polygon fill="#0A9EFD" points="104.3447,307.6885,94.3447,311.6885,104.3447,315.6885,100.3447,311.6885" style="stroke:#0A9EFD;stroke-width:1;stroke-linejoin:miter;stroke-miterlimit:10;"/><line style="stroke:#0A9EFD;stroke-width:2;" x1="98.3447" x2="388.3643" y1="311.6885" y2="311.6885"/><text fill="#0A9EFD" font-family="Arial" font-size="13" lengthAdjust="spacing" textLength="93.2217" x="192.9377" y="291.9849">Notification 101:</text><text fill="#0A9EFD" font-family="Arial" font-size="13" lengthAdjust="spacing" textLength="192.2134" x="147.0537" y="306.9336">`channel name` opened at `time`.</text></g><g class="message" data-entity-1="part2" data-entity-2="part2" data-source-line="20" id="msg7"><line style="stroke:#0A9EFD;stroke-width:2;" x1="93.3447" x2="135.3447" y1="355.5859" y2="355.5859"/><line style="stroke:#0A9EFD;stroke-width:2;" x1="135.3447" x2="135.3447" y1="355.5859" y2="368.5859"/><line style="stroke:#0A9EFD;stroke-width:2;" x1="94.3447" x2="135.3447" y1="368.5859" y2="368.5859"/><polygon fill="#0A9EFD" points="104.3447,364.5859,94.3447,368.5859,104.3447,372.5859,100.3447,368.5859" style="stroke:#0A9EFD;stroke-width:1;stroke-linejoin:miter;stroke-miterlimit:10;"/><text fill="#0A9EFD" font-family="Arial" font-size="13" lengthAdjust="spacing" textLength="138.0361" x="100.3447" y="335.8823">Authenticate notification</text><text fill="#0A9EFD" font-family="Arial" font-size="13" lengthAdjust="spacing" textLength="53.479" x="144.4292" y="350.8311">signature</text></g><g class="message" data-entity-1="part2" data-entity-2="part4" data-source-line="21" id="msg8"><polygon fill="#0A9EFD" points="377.3643,393.5347,387.3643,397.5347,377.3643,401.5347,381.3643,397.5347" style="stroke:#0A9EFD;stroke-width:1;stroke-linejoin:miter;stroke-miterlimit:10;"/><line style="stroke:#0A9EFD;stroke-width:2;" x1="93.3447" x2="383.3643" y1="397.5347" y2="397.5347"/><text fill="#0A9EFD" font-family="Arial" font-size="13" lengthAdjust="spacing" textLength="44.0845" x="219.3123" y="392.7798">200 OK</text></g><path d="M65,410.5347 L65,434.5347 L432,434.5347 L432,420.5347 L422,410.5347 L65,410.5347" fill="none" style="stroke:#0A9EFD;stroke-width:1;"/><path d="M422,410.5347 L422,420.5347 L432,420.5347 L422,410.5347" fill="none" style="stroke:#0A9EFD;stroke-width:1;"/><text fill="#0A9EFD" font-family="Arial" font-size="13" lengthAdjust="spacing" textLength="337.4858" x="80" y="427.7285">Notifications sent and acknowledged for all channel events</text><g class="message" data-entity-1="part4" data-entity-2="part3" data-source-line="25" id="msg9"><polygon fill="#0A9EFD" points="259.9927,457.4321,249.9927,461.4321,259.9927,465.4321,255.9927,461.4321" style="stroke:#0A9EFD;stroke-width:1;stroke-linejoin:miter;stroke-miterlimit:10;"/><line style="stroke:#0A9EFD;stroke-width:2;" x1="253.9927" x2="388.3643" y1="461.4321" y2="461.4321"/><text fill="#0A9EFD" font-family="Arial" font-size="13" lengthAdjust="spacing" textLength="82.3862" x="277.9854" y="456.6772">Close channel</text></g><g class="message" data-entity-1="part4" data-entity-2="part2" data-source-line="26" id="msg10"><polygon fill="#0A9EFD" points="104.3447,501.3296,94.3447,505.3296,104.3447,509.3296,100.3447,505.3296" style="stroke:#0A9EFD;stroke-width:1;stroke-linejoin:miter;stroke-miterlimit:10;"/><line style="stroke:#0A9EFD;stroke-width:2;" x1="98.3447" x2="388.3643" y1="505.3296" y2="505.3296"/><text fill="#0A9EFD" font-family="Arial" font-size="13" lengthAdjust="spacing" textLength="93.2217" x="192.9377" y="485.626">Notification 102:</text><text fill="#0A9EFD" font-family="Arial" font-size="13" lengthAdjust="spacing" textLength="205.9243" x="140.1982" y="500.5747">`channel name` destroyed at `time`.</text></g><g class="message" data-entity-1="part2" data-entity-2="part2" data-source-line="27" id="msg11"><line style="stroke:#0A9EFD;stroke-width:2;" x1="93.3447" x2="135.3447" y1="549.2271" y2="549.2271"/><line style="stroke:#0A9EFD;stroke-width:2;" x1="135.3447" x2="135.3447" y1="549.2271" y2="562.2271"/><line style="stroke:#0A9EFD;stroke-width:2;" x1="94.3447" x2="135.3447" y1="562.2271" y2="562.2271"/><polygon fill="#0A9EFD" points="104.3447,558.2271,94.3447,562.2271,104.3447,566.2271,100.3447,562.2271" style="stroke:#0A9EFD;stroke-width:1;stroke-linejoin:miter;stroke-miterlimit:10;"/><text fill="#0A9EFD" font-family="Arial" font-size="13" lengthAdjust="spacing" textLength="138.0361" x="100.3447" y="529.5234">Authenticate notification</text><text fill="#0A9EFD" font-family="Arial" font-size="13" lengthAdjust="spacing" textLength="53.479" x="144.4292" y="544.4722">signature</text></g><g class="message" data-entity-1="part2" data-entity-2="part4" data-source-line="28" id="msg12"><polygon fill="#0A9EFD" points="377.3643,587.1758,387.3643,591.1758,377.3643,595.1758,381.3643,591.1758" style="stroke:#0A9EFD;stroke-width:1;stroke-linejoin:miter;stroke-miterlimit:10;"/><line style="stroke:#0A9EFD;stroke-width:2;" x1="93.3447" x2="383.3643" y1="591.1758" y2="591.1758"/><text fill="#0A9EFD" font-family="Arial" font-size="13" lengthAdjust="spacing" textLength="44.0845" x="219.3123" y="586.4209">200 OK</text></g><g class="message" data-entity-1="part1" data-entity-2="part3" data-source-line="29" id="msg13"><polygon fill="#0A9EFD" points="236.9927,616.1245,246.9927,620.1245,236.9927,624.1245,240.9927,620.1245" style="stroke:#0A9EFD;stroke-width:1;stroke-linejoin:miter;stroke-miterlimit:10;"/><line style="stroke:#0A9EFD;stroke-width:2;" x1="22.7793" x2="242.9927" y1="620.1245" y2="620.1245"/><text fill="#0A9EFD" font-family="Arial" font-size="13" lengthAdjust="spacing" textLength="39.7617" x="116.0051" y="615.3696">Logout</text></g><g class="message" data-entity-1="part3" data-entity-2="part4" data-source-line="30" id="msg14"><polygon fill="#0A9EFD" points="377.3643,645.0732,387.3643,649.0732,377.3643,653.0732,381.3643,649.0732" style="stroke:#0A9EFD;stroke-width:1;stroke-linejoin:miter;stroke-miterlimit:10;"/><line style="stroke:#0A9EFD;stroke-width:2;" x1="248.9927" x2="383.3643" y1="649.0732" y2="649.0732"/><text fill="#0A9EFD" font-family="Arial" font-size="13" lengthAdjust="spacing" textLength="39.7617" x="299.2976" y="644.3184">Logout</text></g><path d="M333,662.0732 L333,686.0732 L445,686.0732 L445,672.0732 L435,662.0732 L333,662.0732" fill="none" style="stroke:#0A9EFD;stroke-width:1;"/><path d="M435,662.0732 L435,672.0732 L445,672.0732 L435,662.0732" fill="none" style="stroke:#0A9EFD;stroke-width:1;"/><text fill="#0A9EFD" font-family="Arial" font-size="13" lengthAdjust="spacing" textLength="82.3799" x="348" y="679.2671">No notification</text><?plantuml-src jLBBRi8m4BpxAxQv4nv7X90YUebQ0OBINYgL9Lc2XMD7iKFXf_eH_R9kqWGQMbMzz6HhPsSyizuRgIDLn0I-tpt8c4p7nlik9YR75xkNsfT5geJ0o9aSl9Mbt0Eqi5ekXDYO8tXXcYbAIJkAONE2aoayaM7kP2Gpr0wy9ze0qmurS_cuQED1bbL0C9yBqYnYZhLqKBguKblUBXwc8rjau_UtKRSyQt9u9hCtw8nBlI7ScqHgmLSOLQMmBW4MRiUcPOHE6YsqSGI6FNxsJ0rmHMuR-Ala92VavcY7MfEgj1lfRr1uPiqoqjS0Zw9ywl8Ez7lz8JnhMDUTe36bDHWcytZHmTf9BlY2gMU5u1A5MhPPoSf4eojoQXYLpq6l1xCxqKezRrkn_6SyR-IPOhJNvbLHdB27BQy1AjL40JfmcnMjh1DbBFqbxE2di35PbvlJF-IzMWnJkDRlrQNVL-43?></g></svg>