<?xml version="1.0" encoding="us-ascii" standalone="no"?><svg xmlns="http://www.w3.org/2000/svg" xmlns:xlink="http://www.w3.org/1999/xlink" contentStyleType="text/css" height="792px" preserveAspectRatio="none" style="width:490px;height:792px;" version="1.1" viewBox="0 0 490 792" width="490px" zoomAndPan="magnify"><defs/><g><rect fill="none" height="790.1206" style="stroke:#0A9EFD;stroke-width:1.0;" width="488.5" x="0" y="0"/><rect fill="#999999" fill-opacity="0.33333" height="780.1206" style="stroke:#0A9EFD;stroke-width:0.5;" width="229" x="47" y="6"/><text fill="#0A9EFD" font-family="sans-serif" font-size="13" font-weight="bold" lengthAdjust="spacing" textLength="140" x="91.5" y="18.5684">Implemented by you</text><rect fill="#999999" fill-opacity="0.33333" height="780.1206" style="stroke:#0A9EFD;stroke-width:0.5;" width="132" x="352.5" y="6"/><text fill="#0A9EFD" font-family="sans-serif" font-size="13" font-weight="bold" lengthAdjust="spacing" textLength="126" x="355.5" y="18.5684">Provided by Agora</text><line style="stroke:#0A9EFD;stroke-width:0.5;stroke-dasharray:5.0,5.0;" x1="23" x2="23" y1="86.0986" y2="702.022"/><line style="stroke:#0A9EFD;stroke-width:0.5;stroke-dasharray:5.0,5.0;" x1="94" x2="94" y1="86.0986" y2="702.022"/><line style="stroke:#0A9EFD;stroke-width:0.5;stroke-dasharray:5.0,5.0;" x1="252" x2="252" y1="86.0986" y2="702.022"/><line style="stroke:#0A9EFD;stroke-width:0.5;stroke-dasharray:5.0,5.0;" x1="418.5" x2="418.5" y1="86.0986" y2="702.022"/><text fill="#0A9EFD" font-family="Arial" font-size="14" lengthAdjust="spacing" textLength="30" x="5" y="83.1318">User</text><ellipse cx="23" cy="16" fill="none" rx="8" ry="8" style="stroke:#0A9EFD;stroke-width:3.0;"/><path d="M23,24 L23,51 M10,32 L36,32 M23,51 L10,66 M23,51 L36,66 " fill="none" style="stroke:#0A9EFD;stroke-width:3.0;"/><text fill="#0A9EFD" font-family="Arial" font-size="14" lengthAdjust="spacing" textLength="30" x="5" y="714.1538">User</text><ellipse cx="23" cy="728.1206" fill="none" rx="8" ry="8" style="stroke:#0A9EFD;stroke-width:3.0;"/><path d="M23,736.1206 L23,763.1206 M10,744.1206 L36,744.1206 M23,763.1206 L10,778.1206 M23,763.1206 L36,778.1206 " fill="none" style="stroke:#0A9EFD;stroke-width:3.0;"/><rect fill="none" height="30.0986" rx="2.5" ry="2.5" style="stroke:#0A9EFD;stroke-width:2.0;" width="87" x="51" y="55"/><text fill="#0A9EFD" font-family="Arial" font-size="14" lengthAdjust="spacing" textLength="73" x="58" y="75.1318">Web server</text><rect fill="none" height="30.0986" rx="2.5" ry="2.5" style="stroke:#0A9EFD;stroke-width:2.0;" width="87" x="51" y="701.022"/><text fill="#0A9EFD" font-family="Arial" font-size="14" lengthAdjust="spacing" textLength="73" x="58" y="721.1538">Web server</text><rect fill="none" height="30.0986" rx="2.5" ry="2.5" style="stroke:#0A9EFD;stroke-width:2.0;" width="39" x="233" y="55"/><text fill="#0A9EFD" font-family="Arial" font-size="14" lengthAdjust="spacing" textLength="25" x="240" y="75.1318">App</text><rect fill="none" height="30.0986" rx="2.5" ry="2.5" style="stroke:#0A9EFD;stroke-width:2.0;" width="39" x="233" y="701.022"/><text fill="#0A9EFD" font-family="Arial" font-size="14" lengthAdjust="spacing" textLength="25" x="240" y="721.1538">App</text><rect fill="none" height="30.0986" rx="2.5" ry="2.5" style="stroke:#0A9EFD;stroke-width:2.0;" width="72" x="382.5" y="55"/><text fill="#0A9EFD" font-family="Arial" font-size="14" lengthAdjust="spacing" textLength="58" x="389.5" y="75.1318">SDRTN&#174;</text><rect fill="none" height="30.0986" rx="2.5" ry="2.5" style="stroke:#0A9EFD;stroke-width:2.0;" width="72" x="382.5" y="701.022"/><text fill="#0A9EFD" font-family="Arial" font-size="14" lengthAdjust="spacing" textLength="58" x="389.5" y="721.1538">SDRTN&#174;</text><polygon fill="#0A9EFD" points="240.5,113.0474,250.5,117.0474,240.5,121.0474,244.5,117.0474" style="stroke:#0A9EFD;stroke-width:1.0;"/><line style="stroke:#0A9EFD;stroke-width:2.0;" x1="23" x2="246.5" y1="117.0474" y2="117.0474"/><text fill="#0A9EFD" font-family="Arial" font-size="13" lengthAdjust="spacing" textLength="31" x="122.25" y="112.2925">Login</text><polygon fill="#0A9EFD" points="263.5,141.9961,253.5,145.9961,263.5,149.9961,259.5,145.9961" style="stroke:#0A9EFD;stroke-width:1.0;"/><polygon fill="#0A9EFD" points="406.5,141.9961,416.5,145.9961,406.5,149.9961,410.5,145.9961" style="stroke:#0A9EFD;stroke-width:1.0;"/><line style="stroke:#0A9EFD;stroke-width:2.0;" x1="257.5" x2="412.5" y1="145.9961" y2="145.9961"/><text fill="#0A9EFD" font-family="Arial" font-size="13" lengthAdjust="spacing" textLength="116" x="277.5" y="141.2412">Login authentication</text><path d="M362,158.9961 L362,182.9961 L475,182.9961 L475,168.9961 L465,158.9961 L362,158.9961 " fill="none" style="stroke:#0A9EFD;stroke-width:1.0;"/><path d="M465,158.9961 L465,168.9961 L475,168.9961 L465,158.9961 " fill="none" style="stroke:#0A9EFD;stroke-width:1.0;"/><text fill="#0A9EFD" font-family="Arial" font-size="13" lengthAdjust="spacing" textLength="83" x="377" y="176.1899">No notification</text><polygon fill="#0A9EFD" points="240.5,205.8936,250.5,209.8936,240.5,213.8936,244.5,209.8936" style="stroke:#0A9EFD;stroke-width:1.0;"/><line style="stroke:#0A9EFD;stroke-width:2.0;" x1="23" x2="246.5" y1="209.8936" y2="209.8936"/><text fill="#0A9EFD" font-family="Arial" font-size="13" lengthAdjust="spacing" textLength="87" x="94.25" y="205.1387">Create channel</text><polygon fill="#0A9EFD" points="406.5,234.8423,416.5,238.8423,406.5,242.8423,410.5,238.8423" style="stroke:#0A9EFD;stroke-width:1.0;"/><line style="stroke:#0A9EFD;stroke-width:2.0;" x1="252.5" x2="412.5" y1="238.8423" y2="238.8423"/><text fill="#0A9EFD" font-family="Arial" font-size="13" lengthAdjust="spacing" textLength="87" x="292" y="234.0874">Create channel</text><polygon fill="#0A9EFD" points="263.5,263.791,253.5,267.791,263.5,271.791,259.5,267.791" style="stroke:#0A9EFD;stroke-width:1.0;"/><line style="stroke:#0A9EFD;stroke-width:2.0;" x1="257.5" x2="417.5" y1="267.791" y2="267.791"/><text fill="#0A9EFD" font-family="Arial" font-size="13" lengthAdjust="spacing" textLength="80" x="295.5" y="263.0361">Open channel</text><polygon fill="#0A9EFD" points="105.5,307.6885,95.5,311.6885,105.5,315.6885,101.5,311.6885" style="stroke:#0A9EFD;stroke-width:1.0;"/><line style="stroke:#0A9EFD;stroke-width:2.0;" x1="99.5" x2="417.5" y1="311.6885" y2="311.6885"/><text fill="#0A9EFD" font-family="Arial" font-size="13" lengthAdjust="spacing" textLength="94" x="207.5" y="291.9849">Notification 101:</text><text fill="#0A9EFD" font-family="Arial" font-size="13" lengthAdjust="spacing" textLength="191" x="163" y="306.9336">`channel name` opened at `time`.</text><line style="stroke:#0A9EFD;stroke-width:2.0;" x1="94.5" x2="136.5" y1="355.5859" y2="355.5859"/><line style="stroke:#0A9EFD;stroke-width:2.0;" x1="136.5" x2="136.5" y1="355.5859" y2="368.5859"/><line style="stroke:#0A9EFD;stroke-width:2.0;" x1="95.5" x2="136.5" y1="368.5859" y2="368.5859"/><polygon fill="#0A9EFD" points="105.5,364.5859,95.5,368.5859,105.5,372.5859,101.5,368.5859" style="stroke:#0A9EFD;stroke-width:1.0;"/><text fill="#0A9EFD" font-family="Arial" font-size="13" lengthAdjust="spacing" textLength="140" x="101.5" y="335.8823">Authenticate notification</text><text fill="#0A9EFD" font-family="Arial" font-size="13" lengthAdjust="spacing" textLength="53" x="147" y="350.8311">signature</text><polygon fill="#0A9EFD" points="406.5,393.5347,416.5,397.5347,406.5,401.5347,410.5,397.5347" style="stroke:#0A9EFD;stroke-width:1.0;"/><line style="stroke:#0A9EFD;stroke-width:2.0;" x1="94.5" x2="412.5" y1="397.5347" y2="397.5347"/><text fill="#0A9EFD" font-family="Arial" font-size="13" lengthAdjust="spacing" textLength="44" x="234.5" y="392.7798">200 OK</text><path d="M67,410.5347 L67,434.5347 L437,434.5347 L437,420.5347 L427,410.5347 L67,410.5347 " fill="none" style="stroke:#0A9EFD;stroke-width:1.0;"/><path d="M427,410.5347 L427,420.5347 L437,420.5347 L427,410.5347 " fill="none" style="stroke:#0A9EFD;stroke-width:1.0;"/><text fill="#0A9EFD" font-family="Arial" font-size="13" lengthAdjust="spacing" textLength="340" x="82" y="427.7285">Notifications sent and acknowledged for all channel events</text><polygon fill="#0A9EFD" points="263.5,457.4321,253.5,461.4321,263.5,465.4321,259.5,461.4321" style="stroke:#0A9EFD;stroke-width:1.0;"/><line style="stroke:#0A9EFD;stroke-width:2.0;" x1="257.5" x2="417.5" y1="461.4321" y2="461.4321"/><text fill="#0A9EFD" font-family="Arial" font-size="13" lengthAdjust="spacing" textLength="82" x="294.5" y="456.6772">Close channel</text><polygon fill="#0A9EFD" points="105.5,501.3296,95.5,505.3296,105.5,509.3296,101.5,505.3296" style="stroke:#0A9EFD;stroke-width:1.0;"/><line style="stroke:#0A9EFD;stroke-width:2.0;" x1="99.5" x2="417.5" y1="505.3296" y2="505.3296"/><text fill="#0A9EFD" font-family="Arial" font-size="13" lengthAdjust="spacing" textLength="94" x="207.5" y="485.626">Notification 102:</text><text fill="#0A9EFD" font-family="Arial" font-size="13" lengthAdjust="spacing" textLength="206" x="155.5" y="500.5747">`channel name` destroyed at `time`.</text><line style="stroke:#0A9EFD;stroke-width:2.0;" x1="94.5" x2="136.5" y1="549.2271" y2="549.2271"/><line style="stroke:#0A9EFD;stroke-width:2.0;" x1="136.5" x2="136.5" y1="549.2271" y2="562.2271"/><line style="stroke:#0A9EFD;stroke-width:2.0;" x1="95.5" x2="136.5" y1="562.2271" y2="562.2271"/><polygon fill="#0A9EFD" points="105.5,558.2271,95.5,562.2271,105.5,566.2271,101.5,562.2271" style="stroke:#0A9EFD;stroke-width:1.0;"/><text fill="#0A9EFD" font-family="Arial" font-size="13" lengthAdjust="spacing" textLength="140" x="101.5" y="529.5234">Authenticate notification</text><text fill="#0A9EFD" font-family="Arial" font-size="13" lengthAdjust="spacing" textLength="53" x="147" y="544.4722">signature</text><polygon fill="#0A9EFD" points="406.5,587.1758,416.5,591.1758,406.5,595.1758,410.5,591.1758" style="stroke:#0A9EFD;stroke-width:1.0;"/><line style="stroke:#0A9EFD;stroke-width:2.0;" x1="94.5" x2="412.5" y1="591.1758" y2="591.1758"/><text fill="#0A9EFD" font-family="Arial" font-size="13" lengthAdjust="spacing" textLength="44" x="234.5" y="586.4209">200 OK</text><polygon fill="#0A9EFD" points="240.5,616.1245,250.5,620.1245,240.5,624.1245,244.5,620.1245" style="stroke:#0A9EFD;stroke-width:1.0;"/><line style="stroke:#0A9EFD;stroke-width:2.0;" x1="23" x2="246.5" y1="620.1245" y2="620.1245"/><text fill="#0A9EFD" font-family="Arial" font-size="13" lengthAdjust="spacing" textLength="39" x="118.25" y="615.3696">Logout</text><polygon fill="#0A9EFD" points="406.5,645.0732,416.5,649.0732,406.5,653.0732,410.5,649.0732" style="stroke:#0A9EFD;stroke-width:1.0;"/><line style="stroke:#0A9EFD;stroke-width:2.0;" x1="252.5" x2="412.5" y1="649.0732" y2="649.0732"/><text fill="#0A9EFD" font-family="Arial" font-size="13" lengthAdjust="spacing" textLength="39" x="316" y="644.3184">Logout</text><path d="M362,662.0732 L362,686.0732 L475,686.0732 L475,672.0732 L465,662.0732 L362,662.0732 " fill="none" style="stroke:#0A9EFD;stroke-width:1.0;"/><path d="M465,662.0732 L465,672.0732 L475,672.0732 L465,662.0732 " fill="none" style="stroke:#0A9EFD;stroke-width:1.0;"/><text fill="#0A9EFD" font-family="Arial" font-size="13" lengthAdjust="spacing" textLength="83" x="377" y="679.2671">No notification</text><!--SRC=[jL9DJy904BtlhnXxftmSYJ5fyD9ee07HYuaixL0sj3lDxXRXJ_aZ_6LEQmiMZV7YRVDctjltPkPAwJWh4mJVx-zLWjIpoQulKpBonUwKzbMPPqB8s941RsdHU20jB1Tp8TPq02_CYmnpr0uJM1_XIAKd2ccSYbKXjGFl2TV0j7t3N3pEk_MWAEf244K2DOlGeP6E35MMQjsWSdIXlBYTFqpVtnfsU6ApEUZTL89ZkATKQS5FkAwXi850bcxBhbKidI8jD3a4OfEVFLC2HjIcBN-Ld1YKt1nlfTQOrTgjzBTIU6BD2jIN1Pv5zTNv7nWEXcDurh1gEa7B75T0JEOvI0ShfnZm1LDF2i4v2dPiiv9LgPQkDDWoQf-ZmG1cTwAJEkfQiRmq7hBacSfuf-armoHb3nk-0vbbRHJ0FRTPqSawoSZYNyAEVWgRe7M6Zl-Gz-8mg7ITxJNGxwVm0G00]--></g></svg>