<?xml version="1.0" encoding="us-ascii" standalone="no"?><svg xmlns="http://www.w3.org/2000/svg" xmlns:xlink="http://www.w3.org/1999/xlink" contentStyleType="text/css" height="877px" preserveAspectRatio="none" style="width:543px;height:877px;" version="1.1" viewBox="0 0 543 877" width="543px" zoomAndPan="magnify"><defs/><g><rect fill="none" height="875.1206" style="stroke:#0A9EFD;stroke-width:1.0;" width="541" x="0" y="0"/><rect fill="#999999" fill-opacity="0.33333" height="865.1206" style="stroke:#0A9EFD;stroke-width:0.5;" width="90" x="123" y="6"/><text fill="#0A9EFD" font-family="sans-serif" font-size="13" font-weight="bold" lengthAdjust="spacing" textLength="62" x="137" y="18.5684">Your app</text><rect fill="#999999" fill-opacity="0.33333" height="865.1206" style="stroke:#0A9EFD;stroke-width:0.5;" width="80" x="451" y="6"/><text fill="#0A9EFD" font-family="sans-serif" font-size="13" font-weight="bold" lengthAdjust="spacing" textLength="41" x="470.5" y="18.5684">Agora</text><rect fill="#0A9EFD" fill-opacity="0.06667" height="100.8462" style="stroke:#0A9EFD;stroke-width:2.0;" width="252" x="117" y="215.9448"/><rect fill="#0A9EFD" fill-opacity="0.06667" height="203.6411" style="stroke:#0A9EFD;stroke-width:2.0;" width="527" x="10" y="330.791"/><rect fill="#0A9EFD" fill-opacity="0.06667" height="74.8462" style="stroke:#0A9EFD;stroke-width:2.0;" width="420" x="117" y="548.4321"/><rect fill="#0A9EFD" fill-opacity="0.06667" height="132.7437" style="stroke:#0A9EFD;stroke-width:2.0;" width="527" x="10" y="637.2783"/><line style="stroke:#0A9EFD;stroke-width:0.5;stroke-dasharray:5.0,5.0;" x1="38" x2="38" y1="86.0986" y2="787.022"/><line style="stroke:#0A9EFD;stroke-width:0.5;stroke-dasharray:5.0,5.0;" x1="168" x2="168" y1="86.0986" y2="787.022"/><line style="stroke:#0A9EFD;stroke-width:0.5;stroke-dasharray:5.0,5.0;" x1="491" x2="491" y1="86.0986" y2="787.022"/><text fill="#0A9EFD" font-family="Arial" font-size="14" lengthAdjust="spacing" textLength="30" x="20" y="83.1318">User</text><ellipse cx="38" cy="16" fill="none" rx="8" ry="8" style="stroke:#0A9EFD;stroke-width:3.0;"/><path d="M38,24 L38,51 M25,32 L51,32 M38,51 L25,66 M38,51 L51,66 " fill="none" style="stroke:#0A9EFD;stroke-width:3.0;"/><text fill="#0A9EFD" font-family="Arial" font-size="14" lengthAdjust="spacing" textLength="30" x="20" y="799.1538">User</text><ellipse cx="38" cy="813.1206" fill="none" rx="8" ry="8" style="stroke:#0A9EFD;stroke-width:3.0;"/><path d="M38,821.1206 L38,848.1206 M25,829.1206 L51,829.1206 M38,848.1206 L25,863.1206 M38,848.1206 L51,863.1206 " fill="none" style="stroke:#0A9EFD;stroke-width:3.0;"/><rect fill="none" height="30.0986" rx="2.5" ry="2.5" style="stroke:#0A9EFD;stroke-width:2.0;" width="82" x="127" y="55"/><text fill="#0A9EFD" font-family="Arial" font-size="14" lengthAdjust="spacing" textLength="68" x="134" y="75.1318">Video SDK</text><rect fill="none" height="30.0986" rx="2.5" ry="2.5" style="stroke:#0A9EFD;stroke-width:2.0;" width="82" x="127" y="786.022"/><text fill="#0A9EFD" font-family="Arial" font-size="14" lengthAdjust="spacing" textLength="68" x="134" y="806.1538">Video SDK</text><rect fill="none" height="30.0986" rx="2.5" ry="2.5" style="stroke:#0A9EFD;stroke-width:2.0;" width="72" x="455" y="55"/><text fill="#0A9EFD" font-family="Arial" font-size="14" lengthAdjust="spacing" textLength="58" x="462" y="75.1318">SDRTN&#174;</text><rect fill="none" height="30.0986" rx="2.5" ry="2.5" style="stroke:#0A9EFD;stroke-width:2.0;" width="72" x="455" y="786.022"/><text fill="#0A9EFD" font-family="Arial" font-size="14" lengthAdjust="spacing" textLength="58" x="462" y="806.1538">SDRTN&#174;</text><polygon fill="#0A9EFD" points="156,113.0474,166,117.0474,156,121.0474,160,117.0474" style="stroke:#0A9EFD;stroke-width:1.0;"/><line style="stroke:#0A9EFD;stroke-width:2.0;" x1="38" x2="162" y1="117.0474" y2="117.0474"/><text fill="#0A9EFD" font-family="Arial" font-size="13" lengthAdjust="spacing" textLength="58" x="74" y="112.2925">Open App</text><line style="stroke:#0A9EFD;stroke-width:2.0;" x1="168" x2="210" y1="145.9961" y2="145.9961"/><line style="stroke:#0A9EFD;stroke-width:2.0;" x1="210" x2="210" y1="145.9961" y2="158.9961"/><line style="stroke:#0A9EFD;stroke-width:2.0;" x1="169" x2="210" y1="158.9961" y2="158.9961"/><polygon fill="#0A9EFD" points="179,154.9961,169,158.9961,179,162.9961,175,158.9961" style="stroke:#0A9EFD;stroke-width:1.0;"/><text fill="#0A9EFD" font-family="Arial" font-size="13" lengthAdjust="spacing" textLength="309" x="175" y="141.2412">Create an instance of Agora Engine using Video SDK</text><line style="stroke:#0A9EFD;stroke-width:2.0;" x1="168" x2="210" y1="187.9448" y2="187.9448"/><line style="stroke:#0A9EFD;stroke-width:2.0;" x1="210" x2="210" y1="187.9448" y2="200.9448"/><line style="stroke:#0A9EFD;stroke-width:2.0;" x1="169" x2="210" y1="200.9448" y2="200.9448"/><polygon fill="#0A9EFD" points="179,196.9448,169,200.9448,179,204.9448,175,200.9448" style="stroke:#0A9EFD;stroke-width:1.0;"/><text fill="#0A9EFD" font-family="Arial" font-size="13" lengthAdjust="spacing" textLength="231" x="175" y="183.1899">Enable audio and video in Agora Engine</text><path d="M117,215.9448 L316,215.9448 L316,222.8936 L306,232.8936 L117,232.8936 L117,215.9448 " fill="#EEEEEE" style="stroke:#0A9EFD;stroke-width:1.5;"/><rect fill="none" height="100.8462" style="stroke:#0A9EFD;stroke-width:2.0;" width="252" x="117" y="215.9448"/><text fill="#000000" font-family="Arial" font-size="13" lengthAdjust="spacing" textLength="154" x="132" y="229.1387">Setup raw data processing</text><line style="stroke:#0A9EFD;stroke-width:2.0;" x1="168" x2="210" y1="253.8423" y2="253.8423"/><line style="stroke:#0A9EFD;stroke-width:2.0;" x1="210" x2="210" y1="253.8423" y2="266.8423"/><line style="stroke:#0A9EFD;stroke-width:2.0;" x1="169" x2="210" y1="266.8423" y2="266.8423"/><polygon fill="#0A9EFD" points="179,262.8423,169,266.8423,179,270.8423,175,266.8423" style="stroke:#0A9EFD;stroke-width:1.0;"/><text fill="#0A9EFD" font-family="Arial" font-size="13" lengthAdjust="spacing" textLength="182" x="175" y="249.0874">Setup the audio frame observer</text><line style="stroke:#0A9EFD;stroke-width:2.0;" x1="168" x2="210" y1="295.791" y2="295.791"/><line style="stroke:#0A9EFD;stroke-width:2.0;" x1="210" x2="210" y1="295.791" y2="308.791"/><line style="stroke:#0A9EFD;stroke-width:2.0;" x1="169" x2="210" y1="308.791" y2="308.791"/><polygon fill="#0A9EFD" points="179,304.791,169,308.791,179,312.791,175,308.791" style="stroke:#0A9EFD;stroke-width:1.0;"/><text fill="#0A9EFD" font-family="Arial" font-size="13" lengthAdjust="spacing" textLength="182" x="175" y="291.0361">Setup the video frame observer</text><path d="M10,330.791 L79,330.791 L79,337.7397 L69,347.7397 L10,347.7397 L10,330.791 " fill="#EEEEEE" style="stroke:#0A9EFD;stroke-width:1.5;"/><rect fill="none" height="203.6411" style="stroke:#0A9EFD;stroke-width:2.0;" width="527" x="10" y="330.791"/><text fill="#000000" font-family="Arial" font-size="13" lengthAdjust="spacing" textLength="24" x="25" y="343.9849">Join</text><polygon fill="#0A9EFD" points="156,364.6885,166,368.6885,156,372.6885,160,368.6885" style="stroke:#0A9EFD;stroke-width:1.0;"/><line style="stroke:#0A9EFD;stroke-width:2.0;" x1="38" x2="162" y1="368.6885" y2="368.6885"/><text fill="#0A9EFD" font-family="Arial" font-size="13" lengthAdjust="spacing" textLength="84" x="61" y="363.9336">Join a channel</text><polygon fill="#0A9EFD" points="479,393.6372,489,397.6372,479,401.6372,483,397.6372" style="stroke:#0A9EFD;stroke-width:1.0;"/><line style="stroke:#0A9EFD;stroke-width:2.0;" x1="168" x2="485" y1="397.6372" y2="397.6372"/><text fill="#0A9EFD" font-family="Arial" font-size="13" lengthAdjust="spacing" textLength="196" x="231.5" y="392.8823">Register the video frame observer</text><polygon fill="#0A9EFD" points="479,422.5859,489,426.5859,479,430.5859,483,426.5859" style="stroke:#0A9EFD;stroke-width:1.0;"/><line style="stroke:#0A9EFD;stroke-width:2.0;" x1="168" x2="485" y1="426.5859" y2="426.5859"/><text fill="#0A9EFD" font-family="Arial" font-size="13" lengthAdjust="spacing" textLength="196" x="231.5" y="421.8311">Register the audio frame observer</text><polygon fill="#0A9EFD" points="479,451.5347,489,455.5347,479,459.5347,483,455.5347" style="stroke:#0A9EFD;stroke-width:1.0;"/><line style="stroke:#0A9EFD;stroke-width:2.0;" x1="168" x2="485" y1="455.5347" y2="455.5347"/><text fill="#0A9EFD" font-family="Arial" font-size="13" lengthAdjust="spacing" textLength="161" x="249" y="450.7798">Set audio frame parameters</text><line style="stroke:#0A9EFD;stroke-width:2.0;" x1="168" x2="210" y1="484.4834" y2="484.4834"/><line style="stroke:#0A9EFD;stroke-width:2.0;" x1="210" x2="210" y1="484.4834" y2="497.4834"/><line style="stroke:#0A9EFD;stroke-width:2.0;" x1="169" x2="210" y1="497.4834" y2="497.4834"/><polygon fill="#0A9EFD" points="179,493.4834,169,497.4834,179,501.4834,175,497.4834" style="stroke:#0A9EFD;stroke-width:1.0;"/><text fill="#0A9EFD" font-family="Arial" font-size="13" lengthAdjust="spacing" textLength="268" x="175" y="479.7285">Retrieve authentication token to join a channel</text><polygon fill="#0A9EFD" points="479,522.4321,489,526.4321,479,530.4321,483,526.4321" style="stroke:#0A9EFD;stroke-width:1.0;"/><line style="stroke:#0A9EFD;stroke-width:2.0;" x1="168" x2="485" y1="526.4321" y2="526.4321"/><text fill="#0A9EFD" font-family="Arial" font-size="13" lengthAdjust="spacing" textLength="95" x="282" y="521.6772">Join the channel</text><path d="M117,548.4321 L358,548.4321 L358,555.3809 L348,565.3809 L117,565.3809 L117,548.4321 " fill="#EEEEEE" style="stroke:#0A9EFD;stroke-width:1.5;"/><rect fill="none" height="74.8462" style="stroke:#0A9EFD;stroke-width:2.0;" width="420" x="117" y="548.4321"/><text fill="#000000" font-family="Arial" font-size="13" lengthAdjust="spacing" textLength="196" x="132" y="561.626">Process raw audio and video data</text><polygon fill="#0A9EFD" points="179,582.3296,169,586.3296,179,590.3296,175,586.3296" style="stroke:#0A9EFD;stroke-width:1.0;"/><line style="stroke:#0A9EFD;stroke-width:2.0;" x1="173" x2="490" y1="586.3296" y2="586.3296"/><text fill="#0A9EFD" font-family="Arial" font-size="13" lengthAdjust="spacing" textLength="191" x="234" y="581.5747">Get the raw data in the callbacks</text><polygon fill="#0A9EFD" points="479,611.2783,489,615.2783,479,619.2783,483,615.2783" style="stroke:#0A9EFD;stroke-width:1.0;"/><line style="stroke:#0A9EFD;stroke-width:2.0;" x1="168" x2="485" y1="615.2783" y2="615.2783"/><text fill="#0A9EFD" font-family="Arial" font-size="13" lengthAdjust="spacing" textLength="285" x="187" y="610.5234">Send the processed data back with the callbacks</text><path d="M10,637.2783 L90,637.2783 L90,644.2271 L80,654.2271 L10,654.2271 L10,637.2783 " fill="#EEEEEE" style="stroke:#0A9EFD;stroke-width:1.5;"/><rect fill="none" height="132.7437" style="stroke:#0A9EFD;stroke-width:2.0;" width="527" x="10" y="637.2783"/><text fill="#000000" font-family="Arial" font-size="13" lengthAdjust="spacing" textLength="35" x="25" y="650.4722">Leave</text><polygon fill="#0A9EFD" points="156,671.1758,166,675.1758,156,679.1758,160,675.1758" style="stroke:#0A9EFD;stroke-width:1.0;"/><line style="stroke:#0A9EFD;stroke-width:2.0;" x1="38" x2="162" y1="675.1758" y2="675.1758"/><text fill="#0A9EFD" font-family="Arial" font-size="13" lengthAdjust="spacing" textLength="106" x="50" y="670.4209">Leave the channel</text><polygon fill="#0A9EFD" points="479,700.1245,489,704.1245,479,708.1245,483,704.1245" style="stroke:#0A9EFD;stroke-width:1.0;"/><line style="stroke:#0A9EFD;stroke-width:2.0;" x1="168" x2="485" y1="704.1245" y2="704.1245"/><text fill="#0A9EFD" font-family="Arial" font-size="13" lengthAdjust="spacing" textLength="203" x="228" y="699.3696">Unegister the video frame observer</text><polygon fill="#0A9EFD" points="479,729.0732,489,733.0732,479,737.0732,483,733.0732" style="stroke:#0A9EFD;stroke-width:1.0;"/><line style="stroke:#0A9EFD;stroke-width:2.0;" x1="168" x2="485" y1="733.0732" y2="733.0732"/><text fill="#0A9EFD" font-family="Arial" font-size="13" lengthAdjust="spacing" textLength="203" x="228" y="728.3184">Unegister the audio frame observer</text><polygon fill="#0A9EFD" points="479,758.022,489,762.022,479,766.022,483,762.022" style="stroke:#0A9EFD;stroke-width:1.0;"/><line style="stroke:#0A9EFD;stroke-width:2.0;" x1="168" x2="485" y1="762.022" y2="762.022"/><text fill="#0A9EFD" font-family="Arial" font-size="13" lengthAdjust="spacing" textLength="106" x="276.5" y="757.2671">Leave the channel</text><!--SRC=[bP5DJiCm48NtFiMGVSk-GaWLL8WVGTLI95PecanJqp2sRATmAWx1oHWd_NEWGcmInNdlc-Tv9vhpgYu8-ltJjIx8z7onEiNIE7pnAyrzNRzLIc4UZ8DivibbW1vcqubIS_C1sREf7Q2rcRBeWiwrHGwGFKKMJ2zl6_bmF5R41OXZOnl62HtFz7BoUF_rkN5Sxnqo3NhdaJA01qiCGskLVEqEBnnX8406pJuWvmHc0SqC676fcQ3scalOnKhi8yPv9VQwq4OW1JIR45Q2KAfqfhOmfI1FX-zGO42mpkJa8prXjggmt68N3jyarLmsk2O7HxJjuAvM5h4TVcCq9_k81u2GBv6PgZtsUW0JAhKF0ZX6Fgx-BNEYbiY9I8gKbzXzShC91QTf7O62PUaQWpOCmQmeFk7rUFpcPZ7CvcUoXt6xzQQ6Rc-nbePqrcj9Ln8sWdQTRS5OLNFCLxvpDI75tvjcgMXDKGdlEYmxteDKTuHhIkffJWvlaOoQyRygIkL_TlHpTepw3G00]--></g></svg>