<?xml version="1.0" encoding="us-ascii" standalone="no"?><svg xmlns="http://www.w3.org/2000/svg" xmlns:xlink="http://www.w3.org/1999/xlink" contentStyleType="text/css" height="758px" preserveAspectRatio="none" style="width:444px;height:758px;" version="1.1" viewBox="0 0 444 758" width="444px" zoomAndPan="magnify"><defs/><g><rect fill="none" height="756.1719" style="stroke:#0A9EFD;stroke-width:1.0;" width="442" x="0" y="0"/><rect fill="#999999" fill-opacity="0.33333" height="746.1719" style="stroke:#0A9EFD;stroke-width:0.5;" width="90" x="76" y="6"/><text fill="#0A9EFD" font-family="sans-serif" font-size="13" font-weight="bold" lengthAdjust="spacing" textLength="62" x="90" y="18.5684">Your app</text><rect fill="#999999" fill-opacity="0.33333" height="746.1719" style="stroke:#0A9EFD;stroke-width:0.5;" width="80" x="352" y="6"/><text fill="#0A9EFD" font-family="sans-serif" font-size="13" font-weight="bold" lengthAdjust="spacing" textLength="41" x="371.5" y="18.5684">Agora</text><rect fill="#0A9EFD" fill-opacity="0.06667" height="204.5898" style="stroke:#0A9EFD;stroke-width:2.0;" width="428" x="10" y="287.791"/><line style="stroke:#0A9EFD;stroke-width:0.5;stroke-dasharray:5.0,5.0;" x1="38" x2="38" y1="86.0986" y2="668.0732"/><line style="stroke:#0A9EFD;stroke-width:0.5;stroke-dasharray:5.0,5.0;" x1="121" x2="121" y1="86.0986" y2="668.0732"/><line style="stroke:#0A9EFD;stroke-width:0.5;stroke-dasharray:5.0,5.0;" x1="392" x2="392" y1="86.0986" y2="668.0732"/><text fill="#0A9EFD" font-family="Arial" font-size="14" lengthAdjust="spacing" textLength="30" x="20" y="83.1318">User</text><ellipse cx="38" cy="16" fill="none" rx="8" ry="8" style="stroke:#0A9EFD;stroke-width:3.0;"/><path d="M38,24 L38,51 M25,32 L51,32 M38,51 L25,66 M38,51 L51,66 " fill="none" style="stroke:#0A9EFD;stroke-width:3.0;"/><text fill="#0A9EFD" font-family="Arial" font-size="14" lengthAdjust="spacing" textLength="30" x="20" y="680.2051">User</text><ellipse cx="38" cy="694.1719" fill="none" rx="8" ry="8" style="stroke:#0A9EFD;stroke-width:3.0;"/><path d="M38,702.1719 L38,729.1719 M25,710.1719 L51,710.1719 M38,729.1719 L25,744.1719 M38,729.1719 L51,744.1719 " fill="none" style="stroke:#0A9EFD;stroke-width:3.0;"/><rect fill="none" height="30.0986" rx="2.5" ry="2.5" style="stroke:#0A9EFD;stroke-width:2.0;" width="82" x="80" y="55"/><text fill="#0A9EFD" font-family="Arial" font-size="14" lengthAdjust="spacing" textLength="68" x="87" y="75.1318">Video SDK</text><rect fill="none" height="30.0986" rx="2.5" ry="2.5" style="stroke:#0A9EFD;stroke-width:2.0;" width="82" x="80" y="667.0732"/><text fill="#0A9EFD" font-family="Arial" font-size="14" lengthAdjust="spacing" textLength="68" x="87" y="687.2051">Video SDK</text><rect fill="none" height="30.0986" rx="2.5" ry="2.5" style="stroke:#0A9EFD;stroke-width:2.0;" width="72" x="356" y="55"/><text fill="#0A9EFD" font-family="Arial" font-size="14" lengthAdjust="spacing" textLength="58" x="363" y="75.1318">SDRTN&#174;</text><rect fill="none" height="30.0986" rx="2.5" ry="2.5" style="stroke:#0A9EFD;stroke-width:2.0;" width="72" x="356" y="667.0732"/><text fill="#0A9EFD" font-family="Arial" font-size="14" lengthAdjust="spacing" textLength="58" x="363" y="687.2051">SDRTN&#174;</text><polygon fill="#0A9EFD" points="109,113.0474,119,117.0474,109,121.0474,113,117.0474" style="stroke:#0A9EFD;stroke-width:1.0;"/><line style="stroke:#0A9EFD;stroke-width:2.0;" x1="38" x2="115" y1="117.0474" y2="117.0474"/><text fill="#0A9EFD" font-family="Arial" font-size="13" lengthAdjust="spacing" textLength="58" x="50.5" y="112.2925">Open App</text><line style="stroke:#0A9EFD;stroke-width:2.0;" x1="121" x2="163" y1="160.9448" y2="160.9448"/><line style="stroke:#0A9EFD;stroke-width:2.0;" x1="163" x2="163" y1="160.9448" y2="173.9448"/><line style="stroke:#0A9EFD;stroke-width:2.0;" x1="122" x2="163" y1="173.9448" y2="173.9448"/><polygon fill="#0A9EFD" points="132,169.9448,122,173.9448,132,177.9448,128,173.9448" style="stroke:#0A9EFD;stroke-width:1.0;"/><text fill="#0A9EFD" font-family="Arial" font-size="13" lengthAdjust="spacing" textLength="213" x="128" y="141.2412">Initiate the Agora Video SDK engine:</text><text fill="#0A9EFD" font-family="Arial" font-size="13" lengthAdjust="spacing" textLength="188" x="144.5" y="156.1899">agoraEngine = RtcEngine.create</text><line style="stroke:#0A9EFD;stroke-width:2.0;" x1="121" x2="163" y1="217.8423" y2="217.8423"/><line style="stroke:#0A9EFD;stroke-width:2.0;" x1="163" x2="163" y1="217.8423" y2="230.8423"/><line style="stroke:#0A9EFD;stroke-width:2.0;" x1="122" x2="163" y1="230.8423" y2="230.8423"/><polygon fill="#0A9EFD" points="132,226.8423,122,230.8423,132,234.8423,128,230.8423" style="stroke:#0A9EFD;stroke-width:1.0;"/><text fill="#0A9EFD" font-family="Arial" font-size="13" lengthAdjust="spacing" textLength="170" x="128" y="198.1387">Setup the local video stream:</text><text fill="#0A9EFD" font-family="Arial" font-size="13" lengthAdjust="spacing" textLength="147" x="145.5" y="213.0874">agoraEngine.enableVideo</text><line style="stroke:#0A9EFD;stroke-width:2.0;" x1="121" x2="163" y1="259.791" y2="259.791"/><line style="stroke:#0A9EFD;stroke-width:2.0;" x1="163" x2="163" y1="259.791" y2="272.791"/><line style="stroke:#0A9EFD;stroke-width:2.0;" x1="122" x2="163" y1="272.791" y2="272.791"/><polygon fill="#0A9EFD" points="132,268.791,122,272.791,132,276.791,128,272.791" style="stroke:#0A9EFD;stroke-width:1.0;"/><text fill="#0A9EFD" font-family="Arial" font-size="13" lengthAdjust="spacing" textLength="220" x="128" y="255.0361">Widget = RtcLocalView.SurfaceView()</text><path d="M10,287.791 L82,287.791 L82,294.7397 L72,304.7397 L10,304.7397 L10,287.791 " fill="#EEEEEE" style="stroke:#0A9EFD;stroke-width:1.5;"/><rect fill="none" height="204.5898" style="stroke:#0A9EFD;stroke-width:2.0;" width="428" x="10" y="287.791"/><text fill="#000000" font-family="Arial" font-size="13" lengthAdjust="spacing" textLength="27" x="25" y="300.9849">User</text><polygon fill="#0A9EFD" points="109,321.6885,119,325.6885,109,329.6885,113,325.6885" style="stroke:#0A9EFD;stroke-width:1.0;"/><line style="stroke:#0A9EFD;stroke-width:2.0;" x1="38" x2="115" y1="325.6885" y2="325.6885"/><text fill="#0A9EFD" font-family="Arial" font-size="13" lengthAdjust="spacing" textLength="59" x="50" y="320.9336">Join a call</text><line style="stroke:#0A9EFD;stroke-width:2.0;" x1="121" x2="163" y1="354.6372" y2="354.6372"/><line style="stroke:#0A9EFD;stroke-width:2.0;" x1="163" x2="163" y1="354.6372" y2="367.6372"/><line style="stroke:#0A9EFD;stroke-width:2.0;" x1="122" x2="163" y1="367.6372" y2="367.6372"/><polygon fill="#0A9EFD" points="132,363.6372,122,367.6372,132,371.6372,128,367.6372" style="stroke:#0A9EFD;stroke-width:1.0;"/><text fill="#0A9EFD" font-family="Arial" font-size="13" lengthAdjust="spacing" textLength="257" x="128" y="349.8823">Retrieve authentication token to join channel</text><polygon fill="#0A9EFD" points="380,407.5347,390,411.5347,380,415.5347,384,411.5347" style="stroke:#0A9EFD;stroke-width:1.0;"/><line style="stroke:#0A9EFD;stroke-width:2.0;" x1="121" x2="386" y1="411.5347" y2="411.5347"/><text fill="#0A9EFD" font-family="Arial" font-size="13" lengthAdjust="spacing" textLength="99" x="207" y="391.8311">Join the channel:</text><text fill="#0A9EFD" font-family="Arial" font-size="13" lengthAdjust="spacing" textLength="143" x="187" y="406.7798">agoraEngine.joinChannel</text><polygon fill="#0A9EFD" points="380,451.4321,390,455.4321,380,459.4321,384,455.4321" style="stroke:#0A9EFD;stroke-width:1.0;"/><line style="stroke:#0A9EFD;stroke-width:2.0;" x1="121" x2="386" y1="455.4321" y2="455.4321"/><text fill="#0A9EFD" font-family="Arial" font-size="13" lengthAdjust="spacing" textLength="227" x="141" y="435.7285">Retrieve streaming from the other user:</text><text fill="#0A9EFD" font-family="Arial" font-size="13" lengthAdjust="spacing" textLength="234" x="139.5" y="450.6772">Widget = RtcRemoteView.SurfaceView()</text><polygon fill="#0A9EFD" points="132,480.3809,122,484.3809,132,488.3809,128,484.3809" style="stroke:#0A9EFD;stroke-width:1.0;"/><polygon fill="#0A9EFD" points="380,480.3809,390,484.3809,380,488.3809,384,484.3809" style="stroke:#0A9EFD;stroke-width:1.0;"/><line style="stroke:#0A9EFD;stroke-width:2.0;" x1="126" x2="386" y1="484.3809" y2="484.3809"/><text fill="#0A9EFD" font-family="Arial" font-size="13" lengthAdjust="spacing" textLength="177" x="168" y="479.626">Receive and send data stream</text><polygon fill="#0A9EFD" points="109,516.3296,119,520.3296,109,524.3296,113,520.3296" style="stroke:#0A9EFD;stroke-width:1.0;"/><line style="stroke:#0A9EFD;stroke-width:2.0;" x1="38" x2="115" y1="520.3296" y2="520.3296"/><text fill="#0A9EFD" font-family="Arial" font-size="13" lengthAdjust="spacing" textLength="59" x="50" y="515.5747">Leave call</text><polygon fill="#0A9EFD" points="380,560.2271,390,564.2271,380,568.2271,384,564.2271" style="stroke:#0A9EFD;stroke-width:1.0;"/><line style="stroke:#0A9EFD;stroke-width:2.0;" x1="121" x2="386" y1="564.2271" y2="564.2271"/><text fill="#0A9EFD" font-family="Arial" font-size="13" lengthAdjust="spacing" textLength="106" x="203.5" y="544.5234">Leave the channel</text><text fill="#0A9EFD" font-family="Arial" font-size="13" lengthAdjust="spacing" textLength="154" x="181.5" y="559.4722">agoraEngine.leaveChannel</text><polygon fill="#0A9EFD" points="109,589.1758,119,593.1758,109,597.1758,113,593.1758" style="stroke:#0A9EFD;stroke-width:1.0;"/><line style="stroke:#0A9EFD;stroke-width:2.0;" x1="38" x2="115" y1="593.1758" y2="593.1758"/><text fill="#0A9EFD" font-family="Arial" font-size="13" lengthAdjust="spacing" textLength="58" x="50.5" y="588.4209">Close app</text><line style="stroke:#0A9EFD;stroke-width:2.0;" x1="121" x2="163" y1="637.0732" y2="637.0732"/><line style="stroke:#0A9EFD;stroke-width:2.0;" x1="163" x2="163" y1="637.0732" y2="650.0732"/><line style="stroke:#0A9EFD;stroke-width:2.0;" x1="122" x2="163" y1="650.0732" y2="650.0732"/><polygon fill="#0A9EFD" points="132,646.0732,122,650.0732,132,654.0732,128,650.0732" style="stroke:#0A9EFD;stroke-width:1.0;"/><text fill="#0A9EFD" font-family="Arial" font-size="13" lengthAdjust="spacing" textLength="147" x="128" y="617.3696">Clean up local resources:</text><text fill="#0A9EFD" font-family="Arial" font-size="13" lengthAdjust="spacing" textLength="127" x="144" y="632.3184">agoraEngine.destroy()</text><!--SRC=[RLBBJiCm4BpxAvQSuD1mhm2fQZaK4A24Xv2GqE8imTIr8zlXyLDy15_6sabB0bmiFtPcPtQyeupKRKMGv_klgY8xyTLg7slhyC6lbCbLkzP2e0pMGNRjoMM07gxBGeX7-mxPdMqTODDaGZJeWfAgGHCWkubaK2vEK_tiyb88CXKmfWVEOe_Vg79HN9r_VVQOvG337M5o58ccSD6GWLdJ23vjBvT61OM183mJ97BOQW0ojJ8qXNi3oTjnEiCX545s-rmwOlI8igJGDebFMuaQqe301wvS9wuXMKu67pMbdYEMMrNL5BfUPv7dHj5RNhRk2IN5_UwU4BMpt2hET-Jqn2fM30pIaNDob6uB2axHAm6sBCxm-30eQo3O5SKLNY9CFgCnf7-qB7k-QAX_d8u7aaVW_1_SjcDdNfaQdfnT9ohBYuEMfSUP3DqMjBQ1_h7Bd72myLYG91NDSDG-vbrXmBvH-W3ZyCy8kNWpaQt2xdfWxPSp7TytrePySsqznHyy2ctEzGOuaYvvHvx_kIJ_D_QAMAhzO5VV]--></g></svg>