<?xml version="1.0" encoding="us-ascii" standalone="no"?><svg xmlns="http://www.w3.org/2000/svg" xmlns:xlink="http://www.w3.org/1999/xlink" contentStyleType="text/css" height="697px" preserveAspectRatio="none" style="width:441px;height:697px;" version="1.1" viewBox="0 0 441 697" width="441px" zoomAndPan="magnify"><defs/><g><rect fill="none" height="695.4282" style="stroke:#0A9EFD;stroke-width:1.0;" width="439" x="0" y="0"/><rect fill="#999999" fill-opacity="0.33333" height="685.4282" style="stroke:#0A9EFD;stroke-width:0.5;" width="90" x="76" y="6"/><text fill="#0A9EFD" font-family="sans-serif" font-size="13" font-weight="bold" lengthAdjust="spacing" textLength="62" x="90" y="18.5684">Your app</text><rect fill="#999999" fill-opacity="0.33333" height="685.4282" style="stroke:#0A9EFD;stroke-width:0.5;" width="80" x="349" y="6"/><text fill="#0A9EFD" font-family="sans-serif" font-size="13" font-weight="bold" lengthAdjust="spacing" textLength="41" x="368.5" y="18.5684">Agora</text><rect fill="#0A9EFD" fill-opacity="0.06667" height="216.6411" style="stroke:#0A9EFD;stroke-width:2.0;" width="425" x="10" y="215.9448"/><line style="stroke:#0A9EFD;stroke-width:0.5;stroke-dasharray:5.0,5.0;" x1="38" x2="38" y1="86.0986" y2="607.3296"/><line style="stroke:#0A9EFD;stroke-width:0.5;stroke-dasharray:5.0,5.0;" x1="121" x2="121" y1="86.0986" y2="607.3296"/><line style="stroke:#0A9EFD;stroke-width:0.5;stroke-dasharray:5.0,5.0;" x1="389" x2="389" y1="86.0986" y2="607.3296"/><text fill="#0A9EFD" font-family="Arial" font-size="14" lengthAdjust="spacing" textLength="30" x="20" y="83.1318">User</text><ellipse cx="38" cy="16" fill="none" rx="8" ry="8" style="stroke:#0A9EFD;stroke-width:3.0;"/><path d="M38,24 L38,51 M25,32 L51,32 M38,51 L25,66 M38,51 L51,66 " fill="none" style="stroke:#0A9EFD;stroke-width:3.0;"/><text fill="#0A9EFD" font-family="Arial" font-size="14" lengthAdjust="spacing" textLength="30" x="20" y="619.4614">User</text><ellipse cx="38" cy="633.4282" fill="none" rx="8" ry="8" style="stroke:#0A9EFD;stroke-width:3.0;"/><path d="M38,641.4282 L38,668.4282 M25,649.4282 L51,649.4282 M38,668.4282 L25,683.4282 M38,668.4282 L51,683.4282 " fill="none" style="stroke:#0A9EFD;stroke-width:3.0;"/><rect fill="none" height="30.0986" rx="2.5" ry="2.5" style="stroke:#0A9EFD;stroke-width:2.0;" width="82" x="80" y="55"/><text fill="#0A9EFD" font-family="Arial" font-size="14" lengthAdjust="spacing" textLength="68" x="87" y="75.1318">Video SDK</text><rect fill="none" height="30.0986" rx="2.5" ry="2.5" style="stroke:#0A9EFD;stroke-width:2.0;" width="82" x="80" y="606.3296"/><text fill="#0A9EFD" font-family="Arial" font-size="14" lengthAdjust="spacing" textLength="68" x="87" y="626.4614">Video SDK</text><rect fill="none" height="30.0986" rx="2.5" ry="2.5" style="stroke:#0A9EFD;stroke-width:2.0;" width="72" x="353" y="55"/><text fill="#0A9EFD" font-family="Arial" font-size="14" lengthAdjust="spacing" textLength="58" x="360" y="75.1318">SDRTN&#174;</text><rect fill="none" height="30.0986" rx="2.5" ry="2.5" style="stroke:#0A9EFD;stroke-width:2.0;" width="72" x="353" y="606.3296"/><text fill="#0A9EFD" font-family="Arial" font-size="14" lengthAdjust="spacing" textLength="58" x="360" y="626.4614">SDRTN&#174;</text><polygon fill="#0A9EFD" points="109,113.0474,119,117.0474,109,121.0474,113,117.0474" style="stroke:#0A9EFD;stroke-width:1.0;"/><line style="stroke:#0A9EFD;stroke-width:2.0;" x1="38" x2="115" y1="117.0474" y2="117.0474"/><text fill="#0A9EFD" font-family="Arial" font-size="13" lengthAdjust="spacing" textLength="56" x="51.5" y="112.2925">Open app</text><line style="stroke:#0A9EFD;stroke-width:2.0;" x1="121" x2="163" y1="145.9961" y2="145.9961"/><line style="stroke:#0A9EFD;stroke-width:2.0;" x1="163" x2="163" y1="145.9961" y2="158.9961"/><line style="stroke:#0A9EFD;stroke-width:2.0;" x1="122" x2="163" y1="158.9961" y2="158.9961"/><polygon fill="#0A9EFD" points="132,154.9961,122,158.9961,132,162.9961,128,158.9961" style="stroke:#0A9EFD;stroke-width:1.0;"/><text fill="#0A9EFD" font-family="Arial" font-size="13" lengthAdjust="spacing" textLength="175" x="128" y="141.2412">Initiate the Video SDK engine.</text><line style="stroke:#0A9EFD;stroke-width:2.0;" x1="121" x2="163" y1="187.9448" y2="187.9448"/><line style="stroke:#0A9EFD;stroke-width:2.0;" x1="163" x2="163" y1="187.9448" y2="200.9448"/><line style="stroke:#0A9EFD;stroke-width:2.0;" x1="122" x2="163" y1="200.9448" y2="200.9448"/><polygon fill="#0A9EFD" points="132,196.9448,122,200.9448,132,204.9448,128,200.9448" style="stroke:#0A9EFD;stroke-width:1.0;"/><text fill="#0A9EFD" font-family="Arial" font-size="13" lengthAdjust="spacing" textLength="145" x="128" y="183.1899">Start video in the engine.</text><path d="M10,215.9448 L82,215.9448 L82,222.8936 L72,232.8936 L10,232.8936 L10,215.9448 " fill="#EEEEEE" style="stroke:#0A9EFD;stroke-width:1.5;"/><rect fill="none" height="216.6411" style="stroke:#0A9EFD;stroke-width:2.0;" width="425" x="10" y="215.9448"/><text fill="#000000" font-family="Arial" font-size="13" lengthAdjust="spacing" textLength="27" x="25" y="229.1387">Host</text><polygon fill="#0A9EFD" points="109,249.8423,119,253.8423,109,257.8423,113,253.8423" style="stroke:#0A9EFD;stroke-width:1.0;"/><line style="stroke:#0A9EFD;stroke-width:2.0;" x1="38" x2="115" y1="253.8423" y2="253.8423"/><text fill="#0A9EFD" font-family="Arial" font-size="13" lengthAdjust="spacing" textLength="52" x="53.5" y="249.0874">Start call</text><line style="stroke:#0A9EFD;stroke-width:2.0;" x1="121" x2="163" y1="282.791" y2="282.791"/><line style="stroke:#0A9EFD;stroke-width:2.0;" x1="163" x2="163" y1="282.791" y2="295.791"/><line style="stroke:#0A9EFD;stroke-width:2.0;" x1="122" x2="163" y1="295.791" y2="295.791"/><polygon fill="#0A9EFD" points="132,291.791,122,295.791,132,299.791,128,295.791" style="stroke:#0A9EFD;stroke-width:1.0;"/><text fill="#0A9EFD" font-family="Arial" font-size="13" lengthAdjust="spacing" textLength="254" x="128" y="278.0361">In a call, all users broadcast to the channel.</text><line style="stroke:#0A9EFD;stroke-width:2.0;" x1="121" x2="163" y1="324.7397" y2="324.7397"/><line style="stroke:#0A9EFD;stroke-width:2.0;" x1="163" x2="163" y1="324.7397" y2="337.7397"/><line style="stroke:#0A9EFD;stroke-width:2.0;" x1="122" x2="163" y1="337.7397" y2="337.7397"/><polygon fill="#0A9EFD" points="132,333.7397,122,337.7397,132,341.7397,128,337.7397" style="stroke:#0A9EFD;stroke-width:1.0;"/><text fill="#0A9EFD" font-family="Arial" font-size="13" lengthAdjust="spacing" textLength="98" x="128" y="319.9849">Start local video.</text><polygon fill="#0A9EFD" points="377,362.6885,387,366.6885,377,370.6885,381,366.6885" style="stroke:#0A9EFD;stroke-width:1.0;"/><line style="stroke:#0A9EFD;stroke-width:2.0;" x1="121" x2="383" y1="366.6885" y2="366.6885"/><text fill="#0A9EFD" font-family="Arial" font-size="13" lengthAdjust="spacing" textLength="99" x="205.5" y="361.9336">Join the channel.</text><polygon fill="#0A9EFD" points="377,391.6372,387,395.6372,377,399.6372,381,395.6372" style="stroke:#0A9EFD;stroke-width:1.0;"/><line style="stroke:#0A9EFD;stroke-width:2.0;" x1="121" x2="383" y1="395.6372" y2="395.6372"/><text fill="#0A9EFD" font-family="Arial" font-size="13" lengthAdjust="spacing" textLength="227" x="141.5" y="390.8823">Retrieve streaming from the other user.</text><polygon fill="#0A9EFD" points="132,420.5859,122,424.5859,132,428.5859,128,424.5859" style="stroke:#0A9EFD;stroke-width:1.0;"/><polygon fill="#0A9EFD" points="377,420.5859,387,424.5859,377,428.5859,381,424.5859" style="stroke:#0A9EFD;stroke-width:1.0;"/><line style="stroke:#0A9EFD;stroke-width:2.0;" x1="126" x2="383" y1="424.5859" y2="424.5859"/><text fill="#0A9EFD" font-family="Arial" font-size="13" lengthAdjust="spacing" textLength="184" x="163" y="419.8311">Receive and send data streams</text><polygon fill="#0A9EFD" points="109,456.5347,119,460.5347,109,464.5347,113,460.5347" style="stroke:#0A9EFD;stroke-width:1.0;"/><line style="stroke:#0A9EFD;stroke-width:2.0;" x1="38" x2="115" y1="460.5347" y2="460.5347"/><text fill="#0A9EFD" font-family="Arial" font-size="13" lengthAdjust="spacing" textLength="59" x="50" y="455.7798">Leave call</text><polygon fill="#0A9EFD" points="377,485.4834,387,489.4834,377,493.4834,381,489.4834" style="stroke:#0A9EFD;stroke-width:1.0;"/><line style="stroke:#0A9EFD;stroke-width:2.0;" x1="121" x2="383" y1="489.4834" y2="489.4834"/><text fill="#0A9EFD" font-family="Arial" font-size="13" lengthAdjust="spacing" textLength="97" x="206.5" y="484.7285">Stop local video.</text><polygon fill="#0A9EFD" points="377,514.4321,387,518.4321,377,522.4321,381,518.4321" style="stroke:#0A9EFD;stroke-width:1.0;"/><line style="stroke:#0A9EFD;stroke-width:2.0;" x1="121" x2="383" y1="518.4321" y2="518.4321"/><text fill="#0A9EFD" font-family="Arial" font-size="13" lengthAdjust="spacing" textLength="110" x="200" y="513.6772">Leave the channel.</text><polygon fill="#0A9EFD" points="109,543.3809,119,547.3809,109,551.3809,113,547.3809" style="stroke:#0A9EFD;stroke-width:1.0;"/><line style="stroke:#0A9EFD;stroke-width:2.0;" x1="38" x2="115" y1="547.3809" y2="547.3809"/><text fill="#0A9EFD" font-family="Arial" font-size="13" lengthAdjust="spacing" textLength="58" x="50.5" y="542.626">Close app</text><line style="stroke:#0A9EFD;stroke-width:2.0;" x1="121" x2="163" y1="576.3296" y2="576.3296"/><line style="stroke:#0A9EFD;stroke-width:2.0;" x1="163" x2="163" y1="576.3296" y2="589.3296"/><line style="stroke:#0A9EFD;stroke-width:2.0;" x1="122" x2="163" y1="589.3296" y2="589.3296"/><polygon fill="#0A9EFD" points="132,585.3296,122,589.3296,132,593.3296,128,589.3296" style="stroke:#0A9EFD;stroke-width:1.0;"/><text fill="#0A9EFD" font-family="Arial" font-size="13" lengthAdjust="spacing" textLength="147" x="128" y="571.5747">Clean up local resources.</text><!--SRC=[TP91JiCm44NtFiMGDKtt5KAgsWK115L2aLYXgJEaLbsFPJiLf-8Gd0mxJQkcBHjBjkVz__sJ6sMaRck2F1_lL4qyylLcZ0qx_FGRPNBLRhKGA0Cxo9QUN0ReOLcLGgpu6x8FRXsWjPaG5brGKbaq0RBt90RL_AcRdouMGf2f8J8zE4qUvrGrBzzUVdzwfZXXeYECxfFG15ujcUGfukvuM1WL50Q2i2OukWEPHXdA1wDLY9xGFHUKwO33MEEujV30FWmSzuH4hSyy0RlJMuWBjB4U3ol7M4lq0G9tsdADnf2-ba5pfFT9JgwB2Jno7-mIZhSb1QTeH-238zmgqy2Nusq7S5nS5oKn1TmT74kIf2A3iLAVUgqnOA_WKz5YsF8pOPmUlhb8mTd-dtiF3O8FH6UQFLrykvacDD0UT1tv-5T9yhdu0m00]--></g></svg>