<?xml version="1.0" encoding="us-ascii" standalone="no"?><svg xmlns="http://www.w3.org/2000/svg" xmlns:xlink="http://www.w3.org/1999/xlink" contentStyleType="text/css" height="902px" preserveAspectRatio="none" style="width:438px;height:902px;" version="1.1" viewBox="0 0 438 902" width="438px" zoomAndPan="magnify"><defs/><g><rect fill="none" height="900.8643" style="stroke:#0A9EFD;stroke-width:1.0;" width="436" x="0" y="0"/><rect fill="#999999" fill-opacity="0.33333" height="890.8643" style="stroke:#0A9EFD;stroke-width:0.5;" width="90" x="86" y="6"/><text fill="#0A9EFD" font-family="sans-serif" font-size="13" font-weight="bold" lengthAdjust="spacing" textLength="62" x="100" y="18.5684">Your app</text><rect fill="#999999" fill-opacity="0.33333" height="890.8643" style="stroke:#0A9EFD;stroke-width:0.5;" width="80" x="346" y="6"/><text fill="#0A9EFD" font-family="sans-serif" font-size="13" font-weight="bold" lengthAdjust="spacing" textLength="41" x="365.5" y="18.5684">Agora</text><rect fill="#0A9EFD" fill-opacity="0.06667" height="235.4873" style="stroke:#0A9EFD;stroke-width:2.0;" width="422" x="10" y="287.791"/><line style="stroke:#0A9EFD;stroke-width:0.5;stroke-dasharray:5.0,5.0;" x1="38" x2="38" y1="86.0986" y2="812.7656"/><line style="stroke:#0A9EFD;stroke-width:0.5;stroke-dasharray:5.0,5.0;" x1="131" x2="131" y1="86.0986" y2="812.7656"/><line style="stroke:#0A9EFD;stroke-width:0.5;stroke-dasharray:5.0,5.0;" x1="386" x2="386" y1="86.0986" y2="812.7656"/><text fill="#0A9EFD" font-family="Arial" font-size="14" lengthAdjust="spacing" textLength="30" x="20" y="83.1318">User</text><ellipse cx="38" cy="16" fill="none" rx="8" ry="8" style="stroke:#0A9EFD;stroke-width:3.0;"/><path d="M38,24 L38,51 M25,32 L51,32 M38,51 L25,66 M38,51 L51,66 " fill="none" style="stroke:#0A9EFD;stroke-width:3.0;"/><text fill="#0A9EFD" font-family="Arial" font-size="14" lengthAdjust="spacing" textLength="30" x="20" y="824.8975">User</text><ellipse cx="38" cy="838.8643" fill="none" rx="8" ry="8" style="stroke:#0A9EFD;stroke-width:3.0;"/><path d="M38,846.8643 L38,873.8643 M25,854.8643 L51,854.8643 M38,873.8643 L25,888.8643 M38,873.8643 L51,888.8643 " fill="none" style="stroke:#0A9EFD;stroke-width:3.0;"/><rect fill="none" height="30.0986" rx="2.5" ry="2.5" style="stroke:#0A9EFD;stroke-width:2.0;" width="82" x="90" y="55"/><text fill="#0A9EFD" font-family="Arial" font-size="14" lengthAdjust="spacing" textLength="68" x="97" y="75.1318">Video SDK</text><rect fill="none" height="30.0986" rx="2.5" ry="2.5" style="stroke:#0A9EFD;stroke-width:2.0;" width="82" x="90" y="811.7656"/><text fill="#0A9EFD" font-family="Arial" font-size="14" lengthAdjust="spacing" textLength="68" x="97" y="831.8975">Video SDK</text><rect fill="none" height="30.0986" rx="2.5" ry="2.5" style="stroke:#0A9EFD;stroke-width:2.0;" width="72" x="350" y="55"/><text fill="#0A9EFD" font-family="Arial" font-size="14" lengthAdjust="spacing" textLength="58" x="357" y="75.1318">SDRTN&#174;</text><rect fill="none" height="30.0986" rx="2.5" ry="2.5" style="stroke:#0A9EFD;stroke-width:2.0;" width="72" x="350" y="811.7656"/><text fill="#0A9EFD" font-family="Arial" font-size="14" lengthAdjust="spacing" textLength="58" x="357" y="831.8975">SDRTN&#174;</text><polygon fill="#0A9EFD" points="119,113.0474,129,117.0474,119,121.0474,123,117.0474" style="stroke:#0A9EFD;stroke-width:1.0;"/><line style="stroke:#0A9EFD;stroke-width:2.0;" x1="38" x2="125" y1="117.0474" y2="117.0474"/><text fill="#0A9EFD" font-family="Arial" font-size="13" lengthAdjust="spacing" textLength="67" x="51" y="112.2925">Open game</text><line style="stroke:#0A9EFD;stroke-width:2.0;" x1="131" x2="173" y1="160.9448" y2="160.9448"/><line style="stroke:#0A9EFD;stroke-width:2.0;" x1="173" x2="173" y1="160.9448" y2="173.9448"/><line style="stroke:#0A9EFD;stroke-width:2.0;" x1="132" x2="173" y1="173.9448" y2="173.9448"/><polygon fill="#0A9EFD" points="142,169.9448,132,173.9448,142,177.9448,138,173.9448" style="stroke:#0A9EFD;stroke-width:1.0;"/><text fill="#0A9EFD" font-family="Arial" font-size="13" lengthAdjust="spacing" textLength="213" x="140" y="141.2412">Initiate the Agora Video SDK engine:</text><text fill="#0A9EFD" font-family="Arial" font-size="13" lengthAdjust="spacing" textLength="217" x="142" y="156.1899">agoraEngine=IRtcEngine.GetEngine()</text><line style="stroke:#0A9EFD;stroke-width:2.0;" x1="131" x2="173" y1="217.8423" y2="217.8423"/><line style="stroke:#0A9EFD;stroke-width:2.0;" x1="173" x2="173" y1="217.8423" y2="230.8423"/><line style="stroke:#0A9EFD;stroke-width:2.0;" x1="132" x2="173" y1="230.8423" y2="230.8423"/><polygon fill="#0A9EFD" points="142,226.8423,132,230.8423,142,234.8423,138,230.8423" style="stroke:#0A9EFD;stroke-width:1.0;"/><text fill="#0A9EFD" font-family="Arial" font-size="13" lengthAdjust="spacing" textLength="170" x="138" y="198.1387">Setup the local video stream:</text><text fill="#0A9EFD" font-family="Arial" font-size="13" lengthAdjust="spacing" textLength="157" x="146.5" y="213.0874">agoraEngine.EnableVideo()</text><line style="stroke:#0A9EFD;stroke-width:2.0;" x1="131" x2="173" y1="259.791" y2="259.791"/><line style="stroke:#0A9EFD;stroke-width:2.0;" x1="173" x2="173" y1="259.791" y2="272.791"/><line style="stroke:#0A9EFD;stroke-width:2.0;" x1="132" x2="173" y1="272.791" y2="272.791"/><polygon fill="#0A9EFD" points="142,268.791,132,272.791,142,276.791,138,272.791" style="stroke:#0A9EFD;stroke-width:1.0;"/><text fill="#0A9EFD" font-family="Arial" font-size="13" lengthAdjust="spacing" textLength="210" x="138" y="255.0361">agoraEngine.EnableVideoObserver()</text><path d="M10,287.791 L82,287.791 L82,294.7397 L72,304.7397 L10,304.7397 L10,287.791 " fill="#EEEEEE" style="stroke:#0A9EFD;stroke-width:1.5;"/><rect fill="none" height="235.4873" style="stroke:#0A9EFD;stroke-width:2.0;" width="422" x="10" y="287.791"/><text fill="#000000" font-family="Arial" font-size="13" lengthAdjust="spacing" textLength="27" x="25" y="300.9849">User</text><polygon fill="#0A9EFD" points="119,321.6885,129,325.6885,119,329.6885,123,325.6885" style="stroke:#0A9EFD;stroke-width:1.0;"/><line style="stroke:#0A9EFD;stroke-width:2.0;" x1="38" x2="125" y1="325.6885" y2="325.6885"/><text fill="#0A9EFD" font-family="Arial" font-size="13" lengthAdjust="spacing" textLength="52" x="58.5" y="320.9336">Start call</text><polygon fill="#0A9EFD" points="374,365.5859,384,369.5859,374,373.5859,378,369.5859" style="stroke:#0A9EFD;stroke-width:1.0;"/><line style="stroke:#0A9EFD;stroke-width:2.0;" x1="131" x2="380" y1="369.5859" y2="369.5859"/><text fill="#0A9EFD" font-family="Arial" font-size="13" lengthAdjust="spacing" textLength="99" x="207" y="349.8823">Join the channel:</text><text fill="#0A9EFD" font-family="Arial" font-size="13" lengthAdjust="spacing" textLength="194" x="163.5" y="364.8311">agoraEngine.JoinChannelByKey()</text><polygon fill="#0A9EFD" points="119,394.5347,129,398.5347,119,402.5347,123,398.5347" style="stroke:#0A9EFD;stroke-width:1.0;"/><line style="stroke:#0A9EFD;stroke-width:2.0;" x1="38" x2="125" y1="398.5347" y2="398.5347"/><text fill="#0A9EFD" font-family="Arial" font-size="13" lengthAdjust="spacing" textLength="48" x="60.5" y="393.7798">Join call</text><polygon fill="#0A9EFD" points="142,438.4321,132,442.4321,142,446.4321,138,442.4321" style="stroke:#0A9EFD;stroke-width:1.0;"/><line style="stroke:#0A9EFD;stroke-width:2.0;" x1="136" x2="385" y1="442.4321" y2="442.4321"/><text fill="#0A9EFD" font-family="Arial" font-size="13" lengthAdjust="spacing" textLength="189" x="162" y="422.7285">A callback to start remote video:</text><text fill="#0A9EFD" font-family="Arial" font-size="13" lengthAdjust="spacing" textLength="90" x="215.5" y="437.6772">OnUserJoined()</text><polygon fill="#0A9EFD" points="374,482.3296,384,486.3296,374,490.3296,378,486.3296" style="stroke:#0A9EFD;stroke-width:1.0;"/><line style="stroke:#0A9EFD;stroke-width:2.0;" x1="131" x2="380" y1="486.3296" y2="486.3296"/><text fill="#0A9EFD" font-family="Arial" font-size="13" lengthAdjust="spacing" textLength="227" x="143" y="466.626">Retrieve streaming from the other user:</text><text fill="#0A9EFD" font-family="Arial" font-size="13" lengthAdjust="spacing" textLength="168" x="176.5" y="481.5747">RemoteView.SetForUser(uid)</text><polygon fill="#0A9EFD" points="142,511.2783,132,515.2783,142,519.2783,138,515.2783" style="stroke:#0A9EFD;stroke-width:1.0;"/><polygon fill="#0A9EFD" points="374,511.2783,384,515.2783,374,519.2783,378,515.2783" style="stroke:#0A9EFD;stroke-width:1.0;"/><line style="stroke:#0A9EFD;stroke-width:2.0;" x1="136" x2="380" y1="515.2783" y2="515.2783"/><text fill="#0A9EFD" font-family="Arial" font-size="13" lengthAdjust="spacing" textLength="177" x="170" y="510.5234">Receive and send data stream</text><polygon fill="#0A9EFD" points="119,547.2271,129,551.2271,119,555.2271,123,551.2271" style="stroke:#0A9EFD;stroke-width:1.0;"/><line style="stroke:#0A9EFD;stroke-width:2.0;" x1="38" x2="125" y1="551.2271" y2="551.2271"/><text fill="#0A9EFD" font-family="Arial" font-size="13" lengthAdjust="spacing" textLength="59" x="55" y="546.4722">Leave call</text><polygon fill="#0A9EFD" points="374,591.1245,384,595.1245,374,599.1245,378,595.1245" style="stroke:#0A9EFD;stroke-width:1.0;"/><line style="stroke:#0A9EFD;stroke-width:2.0;" x1="131" x2="380" y1="595.1245" y2="595.1245"/><text fill="#0A9EFD" font-family="Arial" font-size="13" lengthAdjust="spacing" textLength="110" x="203.5" y="575.4209">Leave the channel:</text><text fill="#0A9EFD" font-family="Arial" font-size="13" lengthAdjust="spacing" textLength="162" x="179.5" y="590.3696">agoraEngine.leaveChannel()</text><line style="stroke:#0A9EFD;stroke-width:2.0;" x1="131" x2="173" y1="639.022" y2="639.022"/><line style="stroke:#0A9EFD;stroke-width:2.0;" x1="173" x2="173" y1="639.022" y2="652.022"/><line style="stroke:#0A9EFD;stroke-width:2.0;" x1="132" x2="173" y1="652.022" y2="652.022"/><polygon fill="#0A9EFD" points="142,648.022,132,652.022,142,656.022,138,652.022" style="stroke:#0A9EFD;stroke-width:1.0;"/><text fill="#0A9EFD" font-family="Arial" font-size="13" lengthAdjust="spacing" textLength="141" x="149.5" y="619.3184">Stop local video stream:</text><text fill="#0A9EFD" font-family="Arial" font-size="13" lengthAdjust="spacing" textLength="160" x="142" y="634.2671">agoraEngine.DisableVideo()</text><line style="stroke:#0A9EFD;stroke-width:2.0;" x1="131" x2="173" y1="695.9194" y2="695.9194"/><line style="stroke:#0A9EFD;stroke-width:2.0;" x1="173" x2="173" y1="695.9194" y2="708.9194"/><line style="stroke:#0A9EFD;stroke-width:2.0;" x1="132" x2="173" y1="708.9194" y2="708.9194"/><polygon fill="#0A9EFD" points="142,704.9194,132,708.9194,142,712.9194,138,708.9194" style="stroke:#0A9EFD;stroke-width:1.0;"/><text fill="#0A9EFD" font-family="Arial" font-size="13" lengthAdjust="spacing" textLength="158" x="165.5" y="676.2158">Disable the video observer:</text><text fill="#0A9EFD" font-family="Arial" font-size="13" lengthAdjust="spacing" textLength="213" x="142" y="691.1646">agoraEngine.DisableVideoObserver()</text><polygon fill="#0A9EFD" points="119,733.8682,129,737.8682,119,741.8682,123,737.8682" style="stroke:#0A9EFD;stroke-width:1.0;"/><line style="stroke:#0A9EFD;stroke-width:2.0;" x1="38" x2="125" y1="737.8682" y2="737.8682"/><text fill="#0A9EFD" font-family="Arial" font-size="13" lengthAdjust="spacing" textLength="69" x="50" y="733.1133">Close game</text><line style="stroke:#0A9EFD;stroke-width:2.0;" x1="131" x2="173" y1="781.7656" y2="781.7656"/><line style="stroke:#0A9EFD;stroke-width:2.0;" x1="173" x2="173" y1="781.7656" y2="794.7656"/><line style="stroke:#0A9EFD;stroke-width:2.0;" x1="132" x2="173" y1="794.7656" y2="794.7656"/><polygon fill="#0A9EFD" points="142,790.7656,132,794.7656,142,798.7656,138,794.7656" style="stroke:#0A9EFD;stroke-width:1.0;"/><text fill="#0A9EFD" font-family="Arial" font-size="13" lengthAdjust="spacing" textLength="147" x="138" y="762.062">Clean up local resources:</text><text fill="#0A9EFD" font-family="Arial" font-size="13" lengthAdjust="spacing" textLength="127" x="152" y="777.0107">agoraEngine.destroy()</text><!--SRC=[ZPF1RjGm48RlVeeXf_RGzBu2f6Mte534LWcjX8I4PfqXjTQn8zjPw4ln43mPOoTTagmgSLabpiptp_zxzfKoKlSrGPvV7rLDzihNXsjihCFl_g1ChlfM2u4oM0VPlIUN0NguhqeXzlONP5zjxm2xBXEYGnUKL1sQ0Db3X46rlKtrwxix8SZKm3rZupfgBBkgRVdbyv_VOqynwM55k7eRGIlOTMIWmPO4lvvE2wE2ma0G7WaI7Kv309b66Lh1DmF9t4rwVrEKGGwF-GSAmzF5vGnRKUYxnDHMeeQK4lZW2DlL79VV6DnhIgeBoWjLkpqdUYJ7rQ9nbeLYn3EpLU20W9NrFs2nWezMcJILV4HZI2-jvR5WCtnxztHBJomnnQR-aLgSJjVfQ8_o026QZDAEMikf9jz9PMVYa150zTGcJrLIS8gEDEQZJ0C_d6tJe9P_7FJScYXbmZue-fbpnE-jYz2BNjMNQQBNpoEL94an4NaJV5o76WEE_BWUyzNuHCYrPsaDnzEu5cdfM336jLo0OBl_kFkjyYzT_lWfwGy8EzxxsQrDATFbc7hSQElfVFytxC50_poh8yz_JKa-3ZhJg8aTsBWGuYy0]--></g></svg>