<?xml version="1.0" encoding="utf-8"?>
<!-- Generator: Adobe Illustrator 19.0.0, SVG Export Plug-In . SVG Version: 6.00 Build 0)  -->
<svg version="1.1" id="Layer_1" xmlns="http://www.w3.org/2000/svg" xmlns:xlink="http://www.w3.org/1999/xlink" x="0px" y="0px"
	 viewBox="-64.5 344.5 320 105" style="enable-background:new -64.5 344.5 320 105;" xml:space="preserve">
<style type="text/css">
	.st0{display:none;fill:#1C1F26;}
	.st1{fill:#099DFD;}
	.st2{fill:#FFFFFF;}
	.st3{display:none;fill:url(#SVGID_1_);}
	.st4{display:none;fill:url(#SVGID_2_);}
	.st5{display:none;fill:url(#SVGID_3_);}
	.st6{display:none;fill:url(#SVGID_4_);}
</style>
<path class="st0" d="M-209.5,574c0-11,9-20,20-20h380v240h-380c-11,0-20-9-20-20V574z"/>
<path class="st1" d="M1.5,347.7L1.5,347.7c27.1,0,49,21.9,49,49l0,0c0,27.1-21.9,49-49,49l0,0c-27.1,0-49-21.9-49-49l0,0
	C-47.5,369.6-25.6,347.7,1.5,347.7z"/>
<path class="st2" d="M1.5,402.7c-2.2,0-4.1-0.8-5.6-2.3s-2.3-3.4-2.3-5.6v-19.1c0-2.2,0.8-4.1,2.3-5.6s3.4-2.3,5.6-2.3
	s4.1,0.8,5.6,2.3s2.3,3.4,2.3,5.6v19c0,2.2-0.8,4.1-2.3,5.6C5.6,401.9,3.7,402.7,1.5,402.7z M1.5,425.7c-0.7,0-1.3-0.2-1.7-0.7
	c-0.5-0.5-0.7-1-0.7-1.7v-8.1c-4.8-0.5-8.9-2.5-12.3-5.8c-3.4-3.4-5.3-7.4-5.8-12.1c-0.1-0.7,0.1-1.3,0.6-1.8s1.1-0.8,1.8-0.8
	c0.6,0,1.1,0.2,1.5,0.6c0.5,0.4,0.7,1,0.8,1.6c0.5,3.9,2.3,7.1,5.2,9.7c3,2.6,6.5,3.9,10.5,3.9s7.5-1.3,10.5-3.9s4.7-5.9,5.2-9.7
	c0.1-0.6,0.4-1.2,0.8-1.6c0.5-0.4,1-0.6,1.5-0.6c0.7,0,1.3,0.3,1.8,0.8s0.7,1.1,0.6,1.8c-0.5,4.7-2.5,8.8-5.8,12.1
	c-3.4,3.4-7.4,5.3-12.3,5.8v8.1c0,0.7-0.2,1.3-0.7,1.7C2.8,425.5,2.2,425.7,1.5,425.7z"/>
<linearGradient id="SVGID_1_" gradientUnits="userSpaceOnUse" x1="-16.7" y1="622.2895" x2="-16.7" y2="710.869" gradientTransform="matrix(1 0 0 1 0 4)">
	<stop  offset="0" style="stop-color:#00C2FF"/>
	<stop  offset="0.33" style="stop-color:#A0FAFF"/>
	<stop  offset="0.66" style="stop-color:#FCF9F8"/>
	<stop  offset="1" style="stop-color:#C46FFB"/>
</linearGradient>
<path class="st3" d="M-16.7,646.5L-16.7,646.5c10.9,0,19.7,8.8,19.7,19.7v15.7c0,10.9-8.8,19.7-19.7,19.7l0,0
	c-10.9,0-19.7-8.8-19.7-19.7v-15.7C-36.4,655.3-27.6,646.5-16.7,646.5z"/>
<g>
	<g>
		<path class="st1" d="M96.3,423.6c-10.5,0-19.1-8.6-19.1-19.1v-15.7c0-10.5,8.6-19.1,19.1-19.1s19.1,8.6,19.1,19.1v15.7
			C115.3,415.1,106.8,423.6,96.3,423.6z"/>
		<path class="st1" d="M96.3,370.4c10.2,0,18.5,8.3,18.5,18.5v15.7c0,10.2-8.3,18.5-18.5,18.5s-18.5-8.3-18.5-18.5v-15.7
			C77.8,378.6,86.1,370.4,96.3,370.4 M96.3,369.2L96.3,369.2c-10.9,0-19.7,8.8-19.7,19.7v15.7c0,10.9,8.8,19.7,19.7,19.7l0,0
			c10.9,0,19.7-8.8,19.7-19.7v-15.7C115.9,378,107.1,369.2,96.3,369.2L96.3,369.2z"/>
	</g>
</g>
<linearGradient id="SVGID_2_" gradientUnits="userSpaceOnUse" x1="24.1" y1="584.8024" x2="24.1" y2="742.98" gradientTransform="matrix(1 0 0 1 0 4)">
	<stop  offset="0" style="stop-color:#00C2FF"/>
	<stop  offset="0.33" style="stop-color:#A0FAFF"/>
	<stop  offset="0.66" style="stop-color:#FCF9F8"/>
	<stop  offset="1" style="stop-color:#C46FFB"/>
</linearGradient>
<path class="st4" d="M24.1,624.8L24.1,624.8c10.9,0,19.7,8.8,19.7,19.7v59c0,10.9-8.8,19.7-19.7,19.7l0,0
	c-10.9,0-19.7-8.8-19.7-19.7v-59C4.4,633.6,13.2,624.8,24.1,624.8z"/>
<g>
	<g>
		<path class="st1" d="M137.1,445.3c-10.5,0-19.1-8.6-19.1-19.1v-59c0-10.5,8.6-19.1,19.1-19.1s19.1,8.6,19.1,19.1v59
			C156.2,436.7,147.6,445.3,137.1,445.3z"/>
		<path class="st1" d="M137.1,348.7c10.2,0,18.5,8.3,18.5,18.5v59c0,10.2-8.3,18.5-18.5,18.5s-18.5-8.3-18.5-18.5v-59
			C118.6,357,126.9,348.7,137.1,348.7 M137.1,347.5L137.1,347.5c-10.9,0-19.7,8.8-19.7,19.7v59c0,10.9,8.8,19.7,19.7,19.7l0,0
			c10.9,0,19.7-8.8,19.7-19.7v-59C156.8,356.3,148,347.5,137.1,347.5L137.1,347.5z"/>
	</g>
</g>
<linearGradient id="SVGID_3_" gradientUnits="userSpaceOnUse" x1="64.9" y1="610.3614" x2="64.9" y2="721.086" gradientTransform="matrix(1 0 0 1 0 4)">
	<stop  offset="0" style="stop-color:#00C2FF"/>
	<stop  offset="0.33" style="stop-color:#A0FAFF"/>
	<stop  offset="0.66" style="stop-color:#FCF9F8"/>
	<stop  offset="1" style="stop-color:#C46FFB"/>
</linearGradient>
<path class="st5" d="M64.9,639.6L64.9,639.6c10.9,0,19.7,8.8,19.7,19.7v29.5c0,10.9-8.8,19.7-19.7,19.7l0,0
	c-10.9,0-19.7-8.8-19.7-19.7v-29.5C45.2,648.4,54,639.6,64.9,639.6z"/>
<g>
	<g>
		<path class="st1" d="M177.9,430.5c-10.5,0-19.1-8.6-19.1-19.1v-29.5c0-10.5,8.6-19.1,19.1-19.1s19.1,8.6,19.1,19.1v29.5
			C197,422,188.4,430.5,177.9,430.5z"/>
		<path class="st1" d="M177.9,363.5c10.2,0,18.5,8.3,18.5,18.5v29.5c0,10.2-8.3,18.5-18.5,18.5s-18.5-8.3-18.5-18.5V382
			C159.4,371.8,167.7,363.5,177.9,363.5 M177.9,362.3L177.9,362.3c-10.9,0-19.7,8.8-19.7,19.7v29.5c0,10.9,8.8,19.7,19.7,19.7l0,0
			c10.9,0,19.7-8.8,19.7-19.7V382C197.6,371.1,188.8,362.3,177.9,362.3L177.9,362.3z"/>
	</g>
</g>
<linearGradient id="SVGID_4_" gradientUnits="userSpaceOnUse" x1="105.7" y1="627.4007" x2="105.7" y2="706.489" gradientTransform="matrix(1 0 0 1 0 4)">
	<stop  offset="0" style="stop-color:#00C2FF"/>
	<stop  offset="0.33" style="stop-color:#A0FAFF"/>
	<stop  offset="0.66" style="stop-color:#FCF9F8"/>
	<stop  offset="1" style="stop-color:#C46FFB"/>
</linearGradient>
<path class="st6" d="M105.7,649.4L105.7,649.4c10.9,0,19.7,8.8,19.7,19.7v9.8c0,10.9-8.8,19.7-19.7,19.7l0,0
	c-10.9,0-19.7-8.8-19.7-19.7v-9.8C86.1,658.2,94.9,649.4,105.7,649.4z"/>
<g>
	<g>
		<path class="st1" d="M218.7,420.7c-10.5,0-19.1-8.6-19.1-19.1v-9.8c0-10.5,8.6-19.1,19.1-19.1s19.1,8.6,19.1,19.1v9.8
			C237.8,412.1,229.2,420.7,218.7,420.7z"/>
		<path class="st1" d="M218.7,373.3c10.2,0,18.5,8.3,18.5,18.5v9.8c0,10.2-8.3,18.5-18.5,18.5s-18.5-8.3-18.5-18.5v-9.8
			C200.3,381.6,208.5,373.3,218.7,373.3 M218.7,372.1L218.7,372.1c-10.9,0-19.7,8.8-19.7,19.7v9.8c0,10.9,8.8,19.7,19.7,19.7l0,0
			c10.9,0,19.7-8.8,19.7-19.7v-9.8C238.4,380.9,229.6,372.1,218.7,372.1L218.7,372.1z"/>
	</g>
</g>
</svg>
