<?xml version="1.0" encoding="us-ascii" standalone="no"?><svg xmlns="http://www.w3.org/2000/svg" xmlns:xlink="http://www.w3.org/1999/xlink" contentStyleType="text/css" height="868px" preserveAspectRatio="none" style="width:674px;height:868px;" version="1.1" viewBox="0 0 674 868" width="674px" zoomAndPan="magnify"><defs/><g><rect fill="none" height="866.0181" style="stroke:#0A9EFD;stroke-width:1.0;" width="672.5" x="0" y="0"/><rect fill="#999999" fill-opacity="0.33333" height="856.0181" style="stroke:#0A9EFD;stroke-width:0.5;" width="84" x="119.5" y="6"/><text fill="#0A9EFD" font-family="sans-serif" font-size="13" font-weight="bold" lengthAdjust="spacing" textLength="57" x="133" y="19.4951">Your app</text><rect fill="#999999" fill-opacity="0.33333" height="856.0181" style="stroke:#0A9EFD;stroke-width:0.5;" width="64" x="598.5" y="6"/><text fill="#0A9EFD" font-family="sans-serif" font-size="13" font-weight="bold" lengthAdjust="spacing" textLength="38" x="611.5" y="19.4951">Agora</text><rect fill="#0A9EFD" fill-opacity="0.06667" height="159.6924" style="stroke:#0A9EFD;stroke-width:2.0;" width="556.5" x="10" y="103.0986"/><rect fill="#0A9EFD" fill-opacity="0.06667" height="160.6924" style="stroke:#0A9EFD;stroke-width:2.0;" width="658.5" x="10" y="276.791"/><rect fill="#0A9EFD" fill-opacity="0.06667" height="116.7949" style="stroke:#0A9EFD;stroke-width:2.0;" width="658.5" x="10" y="451.4834"/><rect fill="#0A9EFD" fill-opacity="0.06667" height="74.8462" style="stroke:#0A9EFD;stroke-width:2.0;" width="658.5" x="10" y="582.2783"/><rect fill="#0A9EFD" fill-opacity="0.06667" height="89.7949" style="stroke:#0A9EFD;stroke-width:2.0;" width="658.5" x="10" y="671.1245"/><line style="stroke:#0A9EFD;stroke-width:0.5;stroke-dasharray:5.0,5.0;" x1="37" x2="37" y1="86.0986" y2="777.9194"/><line style="stroke:#0A9EFD;stroke-width:0.5;stroke-dasharray:5.0,5.0;" x1="161.5" x2="161.5" y1="86.0986" y2="777.9194"/><line style="stroke:#0A9EFD;stroke-width:0.5;stroke-dasharray:5.0,5.0;" x1="630.5" x2="630.5" y1="86.0986" y2="777.9194"/><text fill="#0A9EFD" font-family="Arial" font-size="14" lengthAdjust="spacing" textLength="29" x="20" y="83.1318">User</text><ellipse cx="37.5" cy="16" fill="none" rx="8" ry="8" style="stroke:#0A9EFD;stroke-width:3.0;"/><path d="M37.5,24 L37.5,51 M24.5,32 L50.5,32 M37.5,51 L24.5,66 M37.5,51 L50.5,66 " fill="none" style="stroke:#0A9EFD;stroke-width:3.0;"/><text fill="#0A9EFD" font-family="Arial" font-size="14" lengthAdjust="spacing" textLength="29" x="20" y="790.0513">User</text><ellipse cx="37.5" cy="804.0181" fill="none" rx="8" ry="8" style="stroke:#0A9EFD;stroke-width:3.0;"/><path d="M37.5,812.0181 L37.5,839.0181 M24.5,820.0181 L50.5,820.0181 M37.5,839.0181 L24.5,854.0181 M37.5,839.0181 L50.5,854.0181 " fill="none" style="stroke:#0A9EFD;stroke-width:3.0;"/><rect fill="none" height="30.0986" rx="2.5" ry="2.5" style="stroke:#0A9EFD;stroke-width:2.0;" width="76" x="123.5" y="55"/><text fill="#0A9EFD" font-family="Arial" font-size="14" lengthAdjust="spacing" textLength="62" x="130.5" y="75.1318">Chat SDK</text><rect fill="none" height="30.0986" rx="2.5" ry="2.5" style="stroke:#0A9EFD;stroke-width:2.0;" width="76" x="123.5" y="776.9194"/><text fill="#0A9EFD" font-family="Arial" font-size="14" lengthAdjust="spacing" textLength="62" x="130.5" y="797.0513">Chat SDK</text><rect fill="none" height="46.1973" rx="2.5" ry="2.5" style="stroke:#0A9EFD;stroke-width:2.0;" width="56" x="602.5" y="38.9014"/><text fill="#0A9EFD" font-family="Arial" font-size="14" lengthAdjust="spacing" textLength="30" x="613.5" y="59.0332">Chat</text><text fill="#0A9EFD" font-family="Arial" font-size="14" lengthAdjust="spacing" textLength="42" x="609.5" y="75.1318">Server</text><rect fill="none" height="46.1973" rx="2.5" ry="2.5" style="stroke:#0A9EFD;stroke-width:2.0;" width="56" x="602.5" y="776.9194"/><text fill="#0A9EFD" font-family="Arial" font-size="14" lengthAdjust="spacing" textLength="30" x="613.5" y="797.0513">Chat</text><text fill="#0A9EFD" font-family="Arial" font-size="14" lengthAdjust="spacing" textLength="42" x="609.5" y="813.1499">Server</text><path d="M10,103.0986 L102,103.0986 L102,110.0474 L92,120.0474 L10,120.0474 L10,103.0986 " fill="#EEEEEE" style="stroke:#0A9EFD;stroke-width:1.5;"/><rect fill="none" height="159.6924" style="stroke:#0A9EFD;stroke-width:2.0;" width="556.5" x="10" y="103.0986"/><text fill="#000000" font-family="Arial" font-size="13" lengthAdjust="spacing" textLength="47" x="25" y="116.2925">Initialize</text><polygon fill="#0A9EFD" points="149.5,136.9961,159.5,140.9961,149.5,144.9961,153.5,140.9961" style="stroke:#0A9EFD;stroke-width:1.0;"/><line style="stroke:#0A9EFD;stroke-width:2.0;" x1="37.5" x2="155.5" y1="140.9961" y2="140.9961"/><text fill="#0A9EFD" font-family="Arial" font-size="13" lengthAdjust="spacing" textLength="56" x="71.5" y="136.2412">Open app</text><line style="stroke:#0A9EFD;stroke-width:2.0;" x1="161.5" x2="203.5" y1="184.8936" y2="184.8936"/><line style="stroke:#0A9EFD;stroke-width:2.0;" x1="203.5" x2="203.5" y1="184.8936" y2="197.8936"/><line style="stroke:#0A9EFD;stroke-width:2.0;" x1="162.5" x2="203.5" y1="197.8936" y2="197.8936"/><polygon fill="#0A9EFD" points="172.5,193.8936,162.5,197.8936,172.5,201.8936,168.5,197.8936" style="stroke:#0A9EFD;stroke-width:1.0;"/><text fill="#0A9EFD" font-family="Arial" font-size="13" lengthAdjust="spacing" textLength="145" x="226" y="165.1899">Init a chat SDK instance:</text><text fill="#0A9EFD" font-family="Arial" font-size="13" lengthAdjust="spacing" textLength="260" x="172.5" y="180.1387">SDKClient.Instance.InitWithOptions(options);</text><line style="stroke:#0A9EFD;stroke-width:2.0;" x1="161.5" x2="203.5" y1="241.791" y2="241.791"/><line style="stroke:#0A9EFD;stroke-width:2.0;" x1="203.5" x2="203.5" y1="241.791" y2="254.791"/><line style="stroke:#0A9EFD;stroke-width:2.0;" x1="162.5" x2="203.5" y1="254.791" y2="254.791"/><polygon fill="#0A9EFD" points="172.5,250.791,162.5,254.791,172.5,258.791,168.5,254.791" style="stroke:#0A9EFD;stroke-width:1.0;"/><text fill="#0A9EFD" font-family="Arial" font-size="13" lengthAdjust="spacing" textLength="177" x="271" y="222.0874">Add message event callbacks:</text><text fill="#0A9EFD" font-family="Arial" font-size="13" lengthAdjust="spacing" textLength="382" x="172.5" y="237.0361">SDKClient.Instance.ChatManager.AddChatManagerDelegate(this);</text><path d="M10,276.791 L90,276.791 L90,283.7397 L80,293.7397 L10,293.7397 L10,276.791 " fill="#EEEEEE" style="stroke:#0A9EFD;stroke-width:1.5;"/><rect fill="none" height="160.6924" style="stroke:#0A9EFD;stroke-width:2.0;" width="658.5" x="10" y="276.791"/><text fill="#000000" font-family="Arial" font-size="13" lengthAdjust="spacing" textLength="35" x="25" y="289.9849">Log in</text><polygon fill="#0A9EFD" points="149.5,310.6885,159.5,314.6885,149.5,318.6885,153.5,314.6885" style="stroke:#0A9EFD;stroke-width:1.0;"/><line style="stroke:#0A9EFD;stroke-width:2.0;" x1="37.5" x2="155.5" y1="314.6885" y2="314.6885"/><text fill="#0A9EFD" font-family="Arial" font-size="13" lengthAdjust="spacing" textLength="63" x="68" y="309.9336">Join a chat</text><line style="stroke:#0A9EFD;stroke-width:2.0;" x1="161.5" x2="203.5" y1="343.6372" y2="343.6372"/><line style="stroke:#0A9EFD;stroke-width:2.0;" x1="203.5" x2="203.5" y1="343.6372" y2="356.6372"/><line style="stroke:#0A9EFD;stroke-width:2.0;" x1="162.5" x2="203.5" y1="356.6372" y2="356.6372"/><polygon fill="#0A9EFD" points="172.5,352.6372,162.5,356.6372,172.5,360.6372,168.5,356.6372" style="stroke:#0A9EFD;stroke-width:1.0;"/><text fill="#0A9EFD" font-family="Arial" font-size="13" lengthAdjust="spacing" textLength="236" x="168.5" y="338.8823">Retrieve authentication token for the user</text><polygon fill="#0A9EFD" points="618.5,396.5347,628.5,400.5347,618.5,404.5347,622.5,400.5347" style="stroke:#0A9EFD;stroke-width:1.0;"/><line style="stroke:#0A9EFD;stroke-width:2.0;" x1="161.5" x2="624.5" y1="400.5347" y2="400.5347"/><text fill="#0A9EFD" font-family="Arial" font-size="13" lengthAdjust="spacing" textLength="143" x="324.5" y="380.8311">Log in to the chat server:</text><text fill="#0A9EFD" font-family="Arial" font-size="13" lengthAdjust="spacing" textLength="264" x="266" y="395.7798">SDKClient.Instance.LoginWithAgoraToken(...)</text><polygon fill="#0A9EFD" points="172.5,425.4834,162.5,429.4834,172.5,433.4834,168.5,429.4834" style="stroke:#0A9EFD;stroke-width:1.0;"/><line style="stroke:#0A9EFD;stroke-width:2.0;" x1="166.5" x2="629.5" y1="429.4834" y2="429.4834"/><text fill="#0A9EFD" font-family="Arial" font-size="13" lengthAdjust="spacing" textLength="136" x="328" y="424.7285">onConnected() callback</text><path d="M10,451.4834 L149,451.4834 L149,458.4321 L139,468.4321 L10,468.4321 L10,451.4834 " fill="#EEEEEE" style="stroke:#0A9EFD;stroke-width:1.5;"/><rect fill="none" height="116.7949" style="stroke:#0A9EFD;stroke-width:2.0;" width="658.5" x="10" y="451.4834"/><text fill="#000000" font-family="Arial" font-size="13" lengthAdjust="spacing" textLength="94" x="25" y="464.6772">Send messages</text><polygon fill="#0A9EFD" points="149.5,485.3809,159.5,489.3809,149.5,493.3809,153.5,489.3809" style="stroke:#0A9EFD;stroke-width:1.0;"/><line style="stroke:#0A9EFD;stroke-width:2.0;" x1="37.5" x2="155.5" y1="489.3809" y2="489.3809"/><text fill="#0A9EFD" font-family="Arial" font-size="13" lengthAdjust="spacing" textLength="98" x="50.5" y="484.626">Send a message</text><line style="stroke:#0A9EFD;stroke-width:2.0;" x1="161.5" x2="203.5" y1="518.3296" y2="518.3296"/><line style="stroke:#0A9EFD;stroke-width:2.0;" x1="203.5" x2="203.5" y1="518.3296" y2="531.3296"/><line style="stroke:#0A9EFD;stroke-width:2.0;" x1="162.5" x2="203.5" y1="531.3296" y2="531.3296"/><polygon fill="#0A9EFD" points="172.5,527.3296,162.5,531.3296,172.5,535.3296,168.5,531.3296" style="stroke:#0A9EFD;stroke-width:1.0;"/><text fill="#0A9EFD" font-family="Arial" font-size="13" lengthAdjust="spacing" textLength="133" x="168.5" y="513.5747">Create a ChatMessage</text><polygon fill="#0A9EFD" points="618.5,556.2783,628.5,560.2783,618.5,564.2783,622.5,560.2783" style="stroke:#0A9EFD;stroke-width:1.0;"/><line style="stroke:#0A9EFD;stroke-width:2.0;" x1="161.5" x2="624.5" y1="560.2783" y2="560.2783"/><text fill="#0A9EFD" font-family="Arial" font-size="13" lengthAdjust="spacing" textLength="445" x="173.5" y="555.5234">Send the ChatMessage: SDKClient.Instance.ChatManager.SendMessage(...)</text><path d="M10,582.2783 L164,582.2783 L164,589.2271 L154,599.2271 L10,599.2271 L10,582.2783 " fill="#EEEEEE" style="stroke:#0A9EFD;stroke-width:1.5;"/><rect fill="none" height="74.8462" style="stroke:#0A9EFD;stroke-width:2.0;" width="658.5" x="10" y="582.2783"/><text fill="#000000" font-family="Arial" font-size="13" lengthAdjust="spacing" textLength="109" x="25" y="595.4722">Receive messages</text><polygon fill="#0A9EFD" points="172.5,616.1758,162.5,620.1758,172.5,624.1758,168.5,620.1758" style="stroke:#0A9EFD;stroke-width:1.0;"/><line style="stroke:#0A9EFD;stroke-width:2.0;" x1="166.5" x2="629.5" y1="620.1758" y2="620.1758"/><text fill="#0A9EFD" font-family="Arial" font-size="13" lengthAdjust="spacing" textLength="239" x="276.5" y="615.4209">onMessageReceived(messages) callback</text><polygon fill="#0A9EFD" points="48.5,645.1245,38.5,649.1245,48.5,653.1245,44.5,649.1245" style="stroke:#0A9EFD;stroke-width:1.0;"/><line style="stroke:#0A9EFD;stroke-width:2.0;" x1="42.5" x2="160.5" y1="649.1245" y2="649.1245"/><text fill="#0A9EFD" font-family="Arial" font-size="13" lengthAdjust="spacing" textLength="100" x="49.5" y="644.3696">Display message</text><path d="M10,671.1245 L88,671.1245 L88,678.0732 L78,688.0732 L10,688.0732 L10,671.1245 " fill="#EEEEEE" style="stroke:#0A9EFD;stroke-width:1.5;"/><rect fill="none" height="89.7949" style="stroke:#0A9EFD;stroke-width:2.0;" width="658.5" x="10" y="671.1245"/><text fill="#000000" font-family="Arial" font-size="13" lengthAdjust="spacing" textLength="33" x="25" y="684.3184">Close</text><polygon fill="#0A9EFD" points="149.5,705.022,159.5,709.022,149.5,713.022,153.5,709.022" style="stroke:#0A9EFD;stroke-width:1.0;"/><line style="stroke:#0A9EFD;stroke-width:2.0;" x1="37.5" x2="155.5" y1="709.022" y2="709.022"/><text fill="#0A9EFD" font-family="Arial" font-size="13" lengthAdjust="spacing" textLength="84" x="57.5" y="704.2671">Leave the chat</text><polygon fill="#0A9EFD" points="618.5,748.9194,628.5,752.9194,618.5,756.9194,622.5,752.9194" style="stroke:#0A9EFD;stroke-width:1.0;"/><line style="stroke:#0A9EFD;stroke-width:2.0;" x1="161.5" x2="624.5" y1="752.9194" y2="752.9194"/><text fill="#0A9EFD" font-family="Arial" font-size="13" lengthAdjust="spacing" textLength="47" x="370.5" y="733.2158">Log out:</text><text fill="#0A9EFD" font-family="Arial" font-size="13" lengthAdjust="spacing" textLength="155" x="322.5" y="748.1646">agoraChatClient.Logout(...)</text><!--SRC=[XLFBRjim4BphAxOwoOVe0zIWW25VrAI8OJSe2XGeDjH6NfWX1P8Aqdvzbp8jItcW9u7ScPsPNUeJ6wM7bW0xw_2tFx8fUNZIMOOgM0VvlIUN0tgut- -oxC6-GFxJ3Wwmx_EiHnTOSOycG5uVCC1-SpEYrzjjHgO58IJMEWgyH_bbzkIUayfwsrnudRD33utXmAZvBsNY0Qw-nEOLtFLaeejCJjDbn0A2IbQ0ZGze55MY4YzgpMH2sQJhCk9_S3ZSzO6jyOKzVLUV5rtNRGjFv3rs1FGi3K2XrW-eZlwZnZ7PDpJ2SANGPySDQUemK14E78KaxJdfhUt4yIBbLyic1LfOsb5mB5u0Xt0GPLOOdKEmHndBesnEhc6GvLreJPKK13MMnp7vSVZL-p44poOEQDpUzzYyACjo9KsRoOirjJM6LA2sM4sZcGVRnvMc2Vf5lh62vzeYOkr8nYJ5SNYl0KtYnXmpGFM_PKHImfwIp6pkI17BJ2UdKUtwwgHcJQ8bL5kSORFCoPuah633ljVuPyes4wgrzSlNV4iemkUblDcP7SBuqaw_QSoJCafHQfSa_m00]--></g></svg>