<?xml version="1.0" encoding="UTF-8" standalone="no"?><svg xmlns="http://www.w3.org/2000/svg" xmlns:xlink="http://www.w3.org/1999/xlink" contentStyleType="text/css" height="1012px" preserveAspectRatio="none" style="width:646px;height:1012px;" version="1.1" viewBox="0 0 646 1012" width="646px" zoomAndPan="magnify"><defs/><g><rect fill="none" height="1010.0625" style="stroke:#0A9EFD;stroke-width:1.0;" width="644.5" x="0" y="0"/><rect fill="#F3F3F3" height="1000.0625" style="stroke:#0A9EFD;stroke-width:0.5;" width="87" x="137" y="6"/><text fill="#000000" font-family="sans-serif" font-size="13" font-weight="bold" lengthAdjust="spacing" textLength="57" x="152" y="19.4951">Your app</text><rect fill="#F3F3F3" height="1000.0625" style="stroke:#0A9EFD;stroke-width:0.5;" width="70" x="564.5" y="6"/><text fill="#000000" font-family="sans-serif" font-size="13" font-weight="bold" lengthAdjust="spacing" textLength="38" x="580.5" y="19.4951">Agora</text><rect fill="#FFFFFF" height="237.875" style="stroke:#0A9EFD;stroke-width:2.0;" width="582.5" x="10" y="104.6094"/><rect fill="#FFFFFF" height="176.6563" style="stroke:#0A9EFD;stroke-width:2.0;" width="630.5" x="10" y="356.4844"/><rect fill="#FFFFFF" height="145.0469" style="stroke:#0A9EFD;stroke-width:2.0;" width="630.5" x="10" y="547.1406"/><rect fill="#FFFFFF" height="82.8281" style="stroke:#0A9EFD;stroke-width:2.0;" width="630.5" x="10" y="706.1875"/><rect fill="#FFFFFF" height="100.4375" style="stroke:#0A9EFD;stroke-width:2.0;" width="630.5" x="10" y="803.0156"/><line style="stroke:#0A9EFD;stroke-width:0.5;stroke-dasharray:5.0,5.0;" x1="39" x2="39" y1="87.6094" y2="920.4531"/><line style="stroke:#0A9EFD;stroke-width:0.5;stroke-dasharray:5.0,5.0;" x1="180" x2="180" y1="87.6094" y2="920.4531"/><line style="stroke:#0A9EFD;stroke-width:0.5;stroke-dasharray:5.0,5.0;" x1="599.5" x2="599.5" y1="87.6094" y2="920.4531"/><text fill="#0A9EFD" font-family="Roboto" font-size="14" font-weight="bold" lengthAdjust="spacing" textLength="33" x="20" y="84.5332">User</text><ellipse cx="39.5" cy="16" fill="none" rx="8" ry="8" style="stroke:#0A9EFD;stroke-width:3.0;"/><path d="M39.5,24 L39.5,51 M26.5,32 L52.5,32 M39.5,51 L26.5,66 M39.5,51 L52.5,66 " fill="none" style="stroke:#0A9EFD;stroke-width:3.0;"/><text fill="#0A9EFD" font-family="Roboto" font-size="14" font-weight="bold" lengthAdjust="spacing" textLength="33" x="20" y="933.9863">User</text><ellipse cx="39.5" cy="948.0625" fill="none" rx="8" ry="8" style="stroke:#0A9EFD;stroke-width:3.0;"/><path d="M39.5,956.0625 L39.5,983.0625 M26.5,964.0625 L52.5,964.0625 M39.5,983.0625 L26.5,998.0625 M39.5,983.0625 L52.5,998.0625 " fill="none" style="stroke:#0A9EFD;stroke-width:3.0;"/><rect fill="#FFFFFF" height="49.2188" rx="2.5" ry="2.5" style="stroke:#0A9EFD;stroke-width:2.0;" width="79" x="141" y="37.3906"/><text fill="#0A9EFD" font-family="Roboto" font-size="14" font-weight="bold" lengthAdjust="spacing" textLength="41" x="158" y="58.9238">Agora</text><text fill="#0A9EFD" font-family="Roboto" font-size="14" font-weight="bold" lengthAdjust="spacing" textLength="65" x="148" y="76.5332">Chat SDK</text><rect fill="#FFFFFF" height="49.2188" rx="2.5" ry="2.5" style="stroke:#0A9EFD;stroke-width:2.0;" width="79" x="141" y="919.4531"/><text fill="#0A9EFD" font-family="Roboto" font-size="14" font-weight="bold" lengthAdjust="spacing" textLength="41" x="158" y="940.9863">Agora</text><text fill="#0A9EFD" font-family="Roboto" font-size="14" font-weight="bold" lengthAdjust="spacing" textLength="65" x="148" y="958.5957">Chat SDK</text><rect fill="#FFFFFF" height="49.2188" rx="2.5" ry="2.5" style="stroke:#0A9EFD;stroke-width:2.0;" width="62" x="568.5" y="37.3906"/><text fill="#0A9EFD" font-family="Roboto" font-size="14" font-weight="bold" lengthAdjust="spacing" textLength="32" x="581.5" y="58.9238">Chat</text><text fill="#0A9EFD" font-family="Roboto" font-size="14" font-weight="bold" lengthAdjust="spacing" textLength="48" x="575.5" y="76.5332">Server</text><rect fill="#FFFFFF" height="49.2188" rx="2.5" ry="2.5" style="stroke:#0A9EFD;stroke-width:2.0;" width="62" x="568.5" y="919.4531"/><text fill="#0A9EFD" font-family="Roboto" font-size="14" font-weight="bold" lengthAdjust="spacing" textLength="32" x="581.5" y="940.9863">Chat</text><text fill="#0A9EFD" font-family="Roboto" font-size="14" font-weight="bold" lengthAdjust="spacing" textLength="48" x="575.5" y="958.5957">Server</text><path d="M10,104.6094 L113,104.6094 L113,114.2188 L103,124.2188 L10,124.2188 L10,104.6094 " fill="#EEEEEE" style="stroke:#0A9EFD;stroke-width:1.5;"/><rect fill="none" height="237.875" style="stroke:#0A9EFD;stroke-width:2.0;" width="582.5" x="10" y="104.6094"/><text fill="#0A9EFD" font-family="Roboto" font-size="14" font-weight="bold" lengthAdjust="spacing" textLength="58" x="25" y="120.1426">Initialize</text><polygon fill="#0A9EFD" points="168.5,143.8281,178.5,147.8281,168.5,151.8281,172.5,147.8281" style="stroke:#0A9EFD;stroke-width:1.0;"/><line style="stroke:#0A9EFD;stroke-width:2.0;" x1="39.5" x2="174.5" y1="147.8281" y2="147.8281"/><text fill="#0A9EFD" font-family="Roboto" font-size="14" font-weight="bold" lengthAdjust="spacing" textLength="69" x="75.5" y="142.752">Open App</text><line style="stroke:#0A9EFD;stroke-width:2.0;" x1="180.5" x2="222.5" y1="197.0469" y2="197.0469"/><line style="stroke:#0A9EFD;stroke-width:2.0;" x1="222.5" x2="222.5" y1="197.0469" y2="210.0469"/><line style="stroke:#0A9EFD;stroke-width:2.0;" x1="181.5" x2="222.5" y1="210.0469" y2="210.0469"/><polygon fill="#0A9EFD" points="191.5,206.0469,181.5,210.0469,191.5,214.0469,187.5,210.0469" style="stroke:#0A9EFD;stroke-width:1.0;"/><text fill="#0A9EFD" font-family="Roboto" font-size="14" font-weight="bold" lengthAdjust="spacing" textLength="215" x="211.5" y="174.3613">Initialize a ChatClient instance:</text><text fill="#0A9EFD" font-family="Roboto" font-size="14" font-weight="bold" lengthAdjust="spacing" textLength="263" x="191.5" y="191.9707">agoraChatClient.init(context, options)</text><line style="stroke:#0A9EFD;stroke-width:2.0;" x1="180.5" x2="222.5" y1="259.2656" y2="259.2656"/><line style="stroke:#0A9EFD;stroke-width:2.0;" x1="222.5" x2="222.5" y1="259.2656" y2="272.2656"/><line style="stroke:#0A9EFD;stroke-width:2.0;" x1="181.5" x2="222.5" y1="272.2656" y2="272.2656"/><polygon fill="#0A9EFD" points="191.5,268.2656,181.5,272.2656,191.5,276.2656,187.5,272.2656" style="stroke:#0A9EFD;stroke-width:1.0;"/><text fill="#0A9EFD" font-family="Roboto" font-size="14" font-weight="bold" lengthAdjust="spacing" textLength="212" x="276" y="236.5801">Add message event callbacks:</text><text fill="#0A9EFD" font-family="Roboto" font-size="14" font-weight="bold" lengthAdjust="spacing" textLength="393" x="187.5" y="254.1895">agoraChatClient.chatManager().addMessageListener(...)</text><line style="stroke:#0A9EFD;stroke-width:2.0;" x1="180.5" x2="222.5" y1="321.4844" y2="321.4844"/><line style="stroke:#0A9EFD;stroke-width:2.0;" x1="222.5" x2="222.5" y1="321.4844" y2="334.4844"/><line style="stroke:#0A9EFD;stroke-width:2.0;" x1="181.5" x2="222.5" y1="334.4844" y2="334.4844"/><polygon fill="#0A9EFD" points="191.5,330.4844,181.5,334.4844,191.5,338.4844,187.5,334.4844" style="stroke:#0A9EFD;stroke-width:1.0;"/><text fill="#0A9EFD" font-family="Roboto" font-size="14" font-weight="bold" lengthAdjust="spacing" textLength="228" x="223.5" y="298.7988">Add connection event callbacks:</text><text fill="#0A9EFD" font-family="Roboto" font-size="14" font-weight="bold" lengthAdjust="spacing" textLength="304" x="187.5" y="316.4082">agoraChatClient.addConnectionListener(...)</text><path d="M10,356.4844 L98,356.4844 L98,366.0938 L88,376.0938 L10,376.0938 L10,356.4844 " fill="#EEEEEE" style="stroke:#0A9EFD;stroke-width:1.5;"/><rect fill="none" height="176.6563" style="stroke:#0A9EFD;stroke-width:2.0;" width="630.5" x="10" y="356.4844"/><text fill="#0A9EFD" font-family="Roboto" font-size="14" font-weight="bold" lengthAdjust="spacing" textLength="43" x="25" y="372.0176">Log in</text><polygon fill="#0A9EFD" points="168.5,395.7031,178.5,399.7031,168.5,403.7031,172.5,399.7031" style="stroke:#0A9EFD;stroke-width:1.0;"/><line style="stroke:#0A9EFD;stroke-width:2.0;" x1="39.5" x2="174.5" y1="399.7031" y2="399.7031"/><text fill="#0A9EFD" font-family="Roboto" font-size="14" font-weight="bold" lengthAdjust="spacing" textLength="76" x="72" y="394.627">Join a chat</text><line style="stroke:#0A9EFD;stroke-width:2.0;" x1="180.5" x2="222.5" y1="431.3125" y2="431.3125"/><line style="stroke:#0A9EFD;stroke-width:2.0;" x1="222.5" x2="222.5" y1="431.3125" y2="444.3125"/><line style="stroke:#0A9EFD;stroke-width:2.0;" x1="181.5" x2="222.5" y1="444.3125" y2="444.3125"/><polygon fill="#0A9EFD" points="191.5,440.3125,181.5,444.3125,191.5,448.3125,187.5,444.3125" style="stroke:#0A9EFD;stroke-width:1.0;"/><text fill="#0A9EFD" font-family="Roboto" font-size="14" font-weight="bold" lengthAdjust="spacing" textLength="297" x="187.5" y="426.2363">Retrieve authentication token for the user</text><polygon fill="#0A9EFD" points="587.5,489.5313,597.5,493.5313,587.5,497.5313,591.5,493.5313" style="stroke:#0A9EFD;stroke-width:1.0;"/><line style="stroke:#0A9EFD;stroke-width:2.0;" x1="180.5" x2="593.5" y1="493.5313" y2="493.5313"/><text fill="#0A9EFD" font-family="Roboto" font-size="14" font-weight="bold" lengthAdjust="spacing" textLength="173" x="303.5" y="470.8457">Login to the chat server:</text><text fill="#0A9EFD" font-family="Roboto" font-size="14" font-weight="bold" lengthAdjust="spacing" textLength="289" x="247.5" y="488.4551">agoraChatClient.loginWithAgoraToken(...)</text><polygon fill="#0A9EFD" points="191.5,521.1406,181.5,525.1406,191.5,529.1406,187.5,525.1406" style="stroke:#0A9EFD;stroke-width:1.0;"/><line style="stroke:#0A9EFD;stroke-width:2.0;" x1="185.5" x2="598.5" y1="525.1406" y2="525.1406"/><text fill="#0A9EFD" font-family="Roboto" font-size="14" font-weight="bold" lengthAdjust="spacing" textLength="166" x="307" y="520.0645">onConnected() callback</text><path d="M10,547.1406 L166,547.1406 L166,556.75 L156,566.75 L10,566.75 L10,547.1406 " fill="#EEEEEE" style="stroke:#0A9EFD;stroke-width:1.5;"/><rect fill="none" height="145.0469" style="stroke:#0A9EFD;stroke-width:2.0;" width="630.5" x="10" y="547.1406"/><text fill="#0A9EFD" font-family="Roboto" font-size="14" font-weight="bold" lengthAdjust="spacing" textLength="111" x="25" y="562.6738">Send messages</text><polygon fill="#0A9EFD" points="168.5,586.3594,178.5,590.3594,168.5,594.3594,172.5,590.3594" style="stroke:#0A9EFD;stroke-width:1.0;"/><line style="stroke:#0A9EFD;stroke-width:2.0;" x1="39.5" x2="174.5" y1="590.3594" y2="590.3594"/><text fill="#0A9EFD" font-family="Roboto" font-size="14" font-weight="bold" lengthAdjust="spacing" textLength="115" x="52.5" y="585.2832">Send a message</text><line style="stroke:#0A9EFD;stroke-width:2.0;" x1="180.5" x2="222.5" y1="621.9688" y2="621.9688"/><line style="stroke:#0A9EFD;stroke-width:2.0;" x1="222.5" x2="222.5" y1="621.9688" y2="634.9688"/><line style="stroke:#0A9EFD;stroke-width:2.0;" x1="181.5" x2="222.5" y1="634.9688" y2="634.9688"/><polygon fill="#0A9EFD" points="191.5,630.9688,181.5,634.9688,191.5,638.9688,187.5,634.9688" style="stroke:#0A9EFD;stroke-width:1.0;"/><text fill="#0A9EFD" font-family="Roboto" font-size="14" font-weight="bold" lengthAdjust="spacing" textLength="159" x="187.5" y="616.8926">Create a ChatMessage</text><polygon fill="#0A9EFD" points="587.5,680.1875,597.5,684.1875,587.5,688.1875,591.5,684.1875" style="stroke:#0A9EFD;stroke-width:1.0;"/><line style="stroke:#0A9EFD;stroke-width:2.0;" x1="180.5" x2="593.5" y1="684.1875" y2="684.1875"/><text fill="#0A9EFD" font-family="Roboto" font-size="14" font-weight="bold" lengthAdjust="spacing" textLength="167" x="304.5" y="661.502">Send the ChatMessage:</text><text fill="#0A9EFD" font-family="Roboto" font-size="14" font-weight="bold" lengthAdjust="spacing" textLength="395" x="192.5" y="679.1113">agoraChatClient.chatManager().sendMessage(message)</text><path d="M10,706.1875 L188,706.1875 L188,715.7969 L178,725.7969 L10,725.7969 L10,706.1875 " fill="#EEEEEE" style="stroke:#0A9EFD;stroke-width:1.5;"/><rect fill="none" height="82.8281" style="stroke:#0A9EFD;stroke-width:2.0;" width="630.5" x="10" y="706.1875"/><text fill="#0A9EFD" font-family="Roboto" font-size="14" font-weight="bold" lengthAdjust="spacing" textLength="133" x="25" y="721.7207">Receive messages</text><polygon fill="#0A9EFD" points="191.5,745.4063,181.5,749.4063,191.5,753.4063,187.5,749.4063" style="stroke:#0A9EFD;stroke-width:1.0;"/><line style="stroke:#0A9EFD;stroke-width:2.0;" x1="185.5" x2="598.5" y1="749.4063" y2="749.4063"/><text fill="#0A9EFD" font-family="Roboto" font-size="14" font-weight="bold" lengthAdjust="spacing" textLength="291" x="244.5" y="744.3301">onMessageReceived(messages) callback</text><polygon fill="#0A9EFD" points="50.5,777.0156,40.5,781.0156,50.5,785.0156,46.5,781.0156" style="stroke:#0A9EFD;stroke-width:1.0;"/><line style="stroke:#0A9EFD;stroke-width:2.0;" x1="44.5" x2="179.5" y1="781.0156" y2="781.0156"/><text fill="#0A9EFD" font-family="Roboto" font-size="14" font-weight="bold" lengthAdjust="spacing" textLength="117" x="51.5" y="775.9395">Display message</text><path d="M10,803.0156 L95,803.0156 L95,812.625 L85,822.625 L10,822.625 L10,803.0156 " fill="#EEEEEE" style="stroke:#0A9EFD;stroke-width:1.5;"/><rect fill="none" height="100.4375" style="stroke:#0A9EFD;stroke-width:2.0;" width="630.5" x="10" y="803.0156"/><text fill="#0A9EFD" font-family="Roboto" font-size="14" font-weight="bold" lengthAdjust="spacing" textLength="40" x="25" y="818.5488">Close</text><polygon fill="#0A9EFD" points="168.5,842.2344,178.5,846.2344,168.5,850.2344,172.5,846.2344" style="stroke:#0A9EFD;stroke-width:1.0;"/><line style="stroke:#0A9EFD;stroke-width:2.0;" x1="39.5" x2="174.5" y1="846.2344" y2="846.2344"/><text fill="#0A9EFD" font-family="Roboto" font-size="14" font-weight="bold" lengthAdjust="spacing" textLength="104" x="58" y="841.1582">Leave the chat</text><polygon fill="#0A9EFD" points="587.5,891.4531,597.5,895.4531,587.5,899.4531,591.5,895.4531" style="stroke:#0A9EFD;stroke-width:1.0;"/><line style="stroke:#0A9EFD;stroke-width:2.0;" x1="180.5" x2="593.5" y1="895.4531" y2="895.4531"/><text fill="#0A9EFD" font-family="Roboto" font-size="14" font-weight="bold" lengthAdjust="spacing" textLength="57" x="359.5" y="872.7676">Log out:</text><text fill="#0A9EFD" font-family="Roboto" font-size="14" font-weight="bold" lengthAdjust="spacing" textLength="184" x="302" y="890.377">agoraChatClient.logout(...)</text><!--SRC=[ZLFHYjim47ptLspzb43F7s1AmVXUt2Oq93rAuQ3ioTjaYKyIadnS-_LTER8TfmVjMwBTcTcPNRzZhRg-9S2ZSVZ3draNt3ztMOOg60VvWoUN0tfuEEopxCcyGlxTz0xGsZopw08hjgW3v5LaW4TTdp30uVxpWAfskunq2m9CwA7j1Zf07lM1t4jIgtRDZ3iwqrjeD0V6ZdzJ9hF0tST8Ni8NInegQpFvDptElO0GsUkEIPHO-u1QKIbg5yjpiM01hPJHWLx3Up0siD5-lU2jsXQUoNiy4j1BP5JOTK-epZvItZ8g-Rb5UIQtMXVOjjiBTiC-a9R7eYZ-5f0HDAce_ZyQmbfFW2Mn13Y6jp57CRy8xfDXoG3YZ8iHzXGSYp1W7qwYm0g7MO8vIz8_vIZa6NgvYndMb561OzDGZQJWXtMMRoJTnTvl74x3CNoDn6CKpJI7qSaNjQlrbC6rgKEyaBGEl_0sL72iBUpLZZ2CPx6zRMWIDfguQlZtShsWKlCgoIuMi2T5BA5EuqR93tSNIQCJD7Mr8uM_Cfvc59ibtBEt7VwQ35u9rPtnoozaGoZ2urfkbmQc3yFdyDQMf3QVqXy0]--></g></svg>