<?xml version="1.0" encoding="us-ascii" standalone="no"?><svg xmlns="http://www.w3.org/2000/svg" xmlns:xlink="http://www.w3.org/1999/xlink" contentStyleType="text/css" height="465px" preserveAspectRatio="none" style="width:815px;height:465px;" version="1.1" viewBox="0 0 815 465" width="815px" zoomAndPan="magnify"><defs/><g><rect fill="none" height="463.6333" style="stroke:#0A9EFD;stroke-width:1.0;" width="813" x="0" y="0"/><line style="stroke:#0A9EFD;stroke-width:0.5;stroke-dasharray:5.0,5.0;" x1="22" x2="22" y1="86.0986" y2="382.5347"/><line style="stroke:#0A9EFD;stroke-width:0.5;stroke-dasharray:5.0,5.0;" x1="265" x2="265" y1="86.0986" y2="382.5347"/><line style="stroke:#0A9EFD;stroke-width:0.5;stroke-dasharray:5.0,5.0;" x1="597" x2="597" y1="86.0986" y2="382.5347"/><line style="stroke:#0A9EFD;stroke-width:0.5;stroke-dasharray:5.0,5.0;" x1="743" x2="743" y1="86.0986" y2="382.5347"/><text fill="#0A9EFD" font-family="Arial" font-size="14" lengthAdjust="spacing" textLength="29" x="5" y="83.1318">User</text><ellipse cx="22.5" cy="16" fill="none" rx="8" ry="8" style="stroke:#0A9EFD;stroke-width:3.0;"/><path d="M22.5,24 L22.5,51 M9.5,32 L35.5,32 M22.5,51 L9.5,66 M22.5,51 L35.5,66 " fill="none" style="stroke:#0A9EFD;stroke-width:3.0;"/><text fill="#0A9EFD" font-family="Arial" font-size="14" lengthAdjust="spacing" textLength="29" x="5" y="394.6665">User</text><ellipse cx="22.5" cy="408.6333" fill="none" rx="8" ry="8" style="stroke:#0A9EFD;stroke-width:3.0;"/><path d="M22.5,416.6333 L22.5,443.6333 M9.5,424.6333 L35.5,424.6333 M22.5,443.6333 L9.5,458.6333 M22.5,443.6333 L35.5,458.6333 " fill="none" style="stroke:#0A9EFD;stroke-width:3.0;"/><rect fill="none" height="30.0986" rx="2.5" ry="2.5" style="stroke:#0A9EFD;stroke-width:2.0;" width="119" x="206" y="55"/><text fill="#0A9EFD" font-family="Arial" font-size="14" lengthAdjust="spacing" textLength="105" x="213" y="75.1318">Your App Server</text><rect fill="none" height="30.0986" rx="2.5" ry="2.5" style="stroke:#0A9EFD;stroke-width:2.0;" width="119" x="206" y="381.5347"/><text fill="#0A9EFD" font-family="Arial" font-size="14" lengthAdjust="spacing" textLength="105" x="213" y="401.6665">Your App Server</text><rect fill="none" height="46.1973" rx="2.5" ry="2.5" style="stroke:#0A9EFD;stroke-width:2.0;" width="139" x="528" y="38.9014"/><text fill="#0A9EFD" font-family="Arial" font-size="14" lengthAdjust="spacing" textLength="77" x="559" y="59.0332">Agora Tools</text><text fill="#0A9EFD" font-family="Arial" font-size="14" lengthAdjust="spacing" textLength="125" x="535" y="75.1318">(in your app server)</text><rect fill="none" height="46.1973" rx="2.5" ry="2.5" style="stroke:#0A9EFD;stroke-width:2.0;" width="139" x="528" y="381.5347"/><text fill="#0A9EFD" font-family="Arial" font-size="14" lengthAdjust="spacing" textLength="77" x="559" y="401.6665">Agora Tools</text><text fill="#0A9EFD" font-family="Arial" font-size="14" lengthAdjust="spacing" textLength="125" x="535" y="417.7651">(in your app server)</text><rect fill="none" height="30.0986" rx="2.5" ry="2.5" style="stroke:#0A9EFD;stroke-width:2.0;" width="132" x="677" y="55"/><text fill="#0A9EFD" font-family="Arial" font-size="14" lengthAdjust="spacing" textLength="118" x="684" y="75.1318">Agora Chat Server</text><rect fill="none" height="30.0986" rx="2.5" ry="2.5" style="stroke:#0A9EFD;stroke-width:2.0;" width="132" x="677" y="381.5347"/><text fill="#0A9EFD" font-family="Arial" font-size="14" lengthAdjust="spacing" textLength="118" x="684" y="401.6665">Agora Chat Server</text><polygon fill="#0A9EFD" points="585.5,127.9961,595.5,131.9961,585.5,135.9961,589.5,131.9961" style="stroke:#0A9EFD;stroke-width:1.0;"/><line style="stroke:#0A9EFD;stroke-width:2.0;" x1="265.5" x2="591.5" y1="131.9961" y2="131.9961"/><text fill="#0A9EFD" font-family="Arial" font-size="13" lengthAdjust="spacing" textLength="115" x="372" y="112.2925">1. Generate a token</text><text fill="#0A9EFD" font-family="Arial" font-size="13" lengthAdjust="spacing" textLength="180" x="341.5" y="127.2412">with app privileges and cache it</text><polygon fill="#0A9EFD" points="276.5,171.8936,266.5,175.8936,276.5,179.8936,272.5,175.8936" style="stroke:#0A9EFD;stroke-width:1.0;"/><line style="stroke:#0A9EFD;stroke-width:2.0;" x1="270.5" x2="596.5" y1="175.8936" y2="175.8936"/><text fill="#0A9EFD" font-family="Arial" font-size="13" lengthAdjust="spacing" textLength="85" x="387" y="156.1899">Return a token</text><text fill="#0A9EFD" font-family="Arial" font-size="13" lengthAdjust="spacing" textLength="105" x="379" y="171.1387">with app privileges</text><polygon fill="#0A9EFD" points="253.5,200.8423,263.5,204.8423,253.5,208.8423,257.5,204.8423" style="stroke:#0A9EFD;stroke-width:1.0;"/><line style="stroke:#0A9EFD;stroke-width:2.0;" x1="22.5" x2="259.5" y1="204.8423" y2="204.8423"/><text fill="#0A9EFD" font-family="Arial" font-size="13" lengthAdjust="spacing" textLength="219" x="34.5" y="200.0874">2. Request a token with user priviliges</text><polygon fill="#0A9EFD" points="731,244.7397,741,248.7397,731,252.7397,735,248.7397" style="stroke:#0A9EFD;stroke-width:1.0;"/><line style="stroke:#0A9EFD;stroke-width:2.0;" x1="265.5" x2="737" y1="248.7397" y2="248.7397"/><text fill="#0A9EFD" font-family="Arial" font-size="13" lengthAdjust="spacing" textLength="184" x="412.25" y="229.0361">Get the token with app priviliges</text><text fill="#0A9EFD" font-family="Arial" font-size="13" lengthAdjust="spacing" textLength="245" x="383.75" y="243.9849">from cache and create an Agora Chat user</text><polygon fill="#0A9EFD" points="276.5,273.6885,266.5,277.6885,276.5,281.6885,272.5,277.6885" style="stroke:#0A9EFD;stroke-width:1.0;"/><line style="stroke:#0A9EFD;stroke-width:2.0;stroke-dasharray:2.0,2.0;" x1="270.5" x2="742" y1="277.6885" y2="277.6885"/><text fill="#0A9EFD" font-family="Arial" font-size="13" lengthAdjust="spacing" textLength="228" x="390.25" y="272.9336">Return the UUID of the Agora Chat user</text><polygon fill="#0A9EFD" points="585.5,302.6372,595.5,306.6372,585.5,310.6372,589.5,306.6372" style="stroke:#0A9EFD;stroke-width:1.0;"/><line style="stroke:#0A9EFD;stroke-width:2.0;" x1="265.5" x2="591.5" y1="306.6372" y2="306.6372"/><text fill="#0A9EFD" font-family="Arial" font-size="13" lengthAdjust="spacing" textLength="308" x="277.5" y="301.8823">Use the UUID to generate a token with user privileges</text><polygon fill="#0A9EFD" points="276.5,331.5859,266.5,335.5859,276.5,339.5859,272.5,335.5859" style="stroke:#0A9EFD;stroke-width:1.0;"/><line style="stroke:#0A9EFD;stroke-width:2.0;stroke-dasharray:2.0,2.0;" x1="270.5" x2="596.5" y1="335.5859" y2="335.5859"/><text fill="#0A9EFD" font-family="Arial" font-size="13" lengthAdjust="spacing" textLength="198" x="332.5" y="330.8311">Return a token with user privileges</text><polygon fill="#0A9EFD" points="33.5,360.5347,23.5,364.5347,33.5,368.5347,29.5,364.5347" style="stroke:#0A9EFD;stroke-width:1.0;"/><line style="stroke:#0A9EFD;stroke-width:2.0;" x1="27.5" x2="264.5" y1="364.5347" y2="364.5347"/><text fill="#0A9EFD" font-family="Arial" font-size="13" lengthAdjust="spacing" textLength="198" x="45" y="359.7798">Return a token with user privileges</text><!--SRC=[VP51IyGm58Jl-HNFdlJGWXxB8fGLL11ssRO7eI2X-xODsqrgyhhYlpU9SLjBsLiEyysycTm8MNV37e4tIlCFSnGo4SEfOupNf3H4fK4T0JTGvZlMSqsY5ZsN1D6x6ZHaVGyvwdCGPTljVr7cRA5GgZELl1KIlXt5BMKyTUUnOhDvovV0TSjfwhz-oGh6c8s1-F4NI-4-WMUKg3dP6a3gY18g-IMezK6z5cVHOOC6kDn3pUiMGH3pjBEnRYdia0Ojh_FCRd017XBBV0vew09vPB350YCS4svrbwVsJWAoyHFz6E7abOI3LgTmfRzNeoycOJA92_7EgpWErg60So_BroTG1_zUWiRfxE-E12bevZlEA-5V9HSSJ6RJBI9kkLMyEFMY_WS0]--></g></svg>