<?xml version="1.0" encoding="UTF-8" standalone="no"?><svg xmlns="http://www.w3.org/2000/svg" xmlns:xlink="http://www.w3.org/1999/xlink" contentStyleType="text/css" height="932px" preserveAspectRatio="none" style="width:780px;height:932px;" version="1.1" viewBox="0 0 780 932" width="780px" zoomAndPan="magnify"><defs/><g><rect fill="none" height="930.2344" style="stroke:#0A9EFD;stroke-width:1.0;" width="778.5" x="0" y="0"/><rect fill="#F3F3F3" height="920.2344" style="stroke:#0A9EFD;stroke-width:0.5;" width="87" x="137" y="6"/><text fill="#000000" font-family="sans-serif" font-size="13" font-weight="bold" lengthAdjust="spacing" textLength="57" x="152" y="19.4951">Your app</text><rect fill="#F3F3F3" height="920.2344" style="stroke:#0A9EFD;stroke-width:0.5;" width="70" x="698.5" y="6"/><text fill="#000000" font-family="sans-serif" font-size="13" font-weight="bold" lengthAdjust="spacing" textLength="38" x="714.5" y="19.4951">Agora</text><rect fill="#FFFFFF" height="175.6563" style="stroke:#0A9EFD;stroke-width:2.0;" width="653.5" x="10" y="104.6094"/><rect fill="#FFFFFF" height="176.6563" style="stroke:#0A9EFD;stroke-width:2.0;" width="764.5" x="10" y="294.2656"/><rect fill="#FFFFFF" height="127.4375" style="stroke:#0A9EFD;stroke-width:2.0;" width="764.5" x="10" y="484.9219"/><rect fill="#FFFFFF" height="82.8281" style="stroke:#0A9EFD;stroke-width:2.0;" width="764.5" x="10" y="626.3594"/><rect fill="#FFFFFF" height="100.4375" style="stroke:#0A9EFD;stroke-width:2.0;" width="764.5" x="10" y="723.1875"/><line style="stroke:#0A9EFD;stroke-width:0.5;stroke-dasharray:5.0,5.0;" x1="39" x2="39" y1="87.6094" y2="840.625"/><line style="stroke:#0A9EFD;stroke-width:0.5;stroke-dasharray:5.0,5.0;" x1="180" x2="180" y1="87.6094" y2="840.625"/><line style="stroke:#0A9EFD;stroke-width:0.5;stroke-dasharray:5.0,5.0;" x1="733.5" x2="733.5" y1="87.6094" y2="840.625"/><text fill="#0A9EFD" font-family="Roboto" font-size="14" font-weight="bold" lengthAdjust="spacing" textLength="33" x="20" y="84.5332">User</text><ellipse cx="39.5" cy="16" fill="none" rx="8" ry="8" style="stroke:#0A9EFD;stroke-width:3.0;"/><path d="M39.5,24 L39.5,51 M26.5,32 L52.5,32 M39.5,51 L26.5,66 M39.5,51 L52.5,66 " fill="none" style="stroke:#0A9EFD;stroke-width:3.0;"/><text fill="#0A9EFD" font-family="Roboto" font-size="14" font-weight="bold" lengthAdjust="spacing" textLength="33" x="20" y="854.1582">User</text><ellipse cx="39.5" cy="868.2344" fill="none" rx="8" ry="8" style="stroke:#0A9EFD;stroke-width:3.0;"/><path d="M39.5,876.2344 L39.5,903.2344 M26.5,884.2344 L52.5,884.2344 M39.5,903.2344 L26.5,918.2344 M39.5,903.2344 L52.5,918.2344 " fill="none" style="stroke:#0A9EFD;stroke-width:3.0;"/><rect fill="#FFFFFF" height="31.6094" rx="2.5" ry="2.5" style="stroke:#0A9EFD;stroke-width:2.0;" width="79" x="141" y="55"/><text fill="#0A9EFD" font-family="Roboto" font-size="14" font-weight="bold" lengthAdjust="spacing" textLength="65" x="148" y="76.5332">Chat SDK</text><rect fill="#FFFFFF" height="31.6094" rx="2.5" ry="2.5" style="stroke:#0A9EFD;stroke-width:2.0;" width="79" x="141" y="839.625"/><text fill="#0A9EFD" font-family="Roboto" font-size="14" font-weight="bold" lengthAdjust="spacing" textLength="65" x="148" y="861.1582">Chat SDK</text><rect fill="#FFFFFF" height="49.2188" rx="2.5" ry="2.5" style="stroke:#0A9EFD;stroke-width:2.0;" width="62" x="702.5" y="37.3906"/><text fill="#0A9EFD" font-family="Roboto" font-size="14" font-weight="bold" lengthAdjust="spacing" textLength="32" x="715.5" y="58.9238">Chat</text><text fill="#0A9EFD" font-family="Roboto" font-size="14" font-weight="bold" lengthAdjust="spacing" textLength="48" x="709.5" y="76.5332">Server</text><rect fill="#FFFFFF" height="49.2188" rx="2.5" ry="2.5" style="stroke:#0A9EFD;stroke-width:2.0;" width="62" x="702.5" y="839.625"/><text fill="#0A9EFD" font-family="Roboto" font-size="14" font-weight="bold" lengthAdjust="spacing" textLength="32" x="715.5" y="861.1582">Chat</text><text fill="#0A9EFD" font-family="Roboto" font-size="14" font-weight="bold" lengthAdjust="spacing" textLength="48" x="709.5" y="878.7676">Server</text><path d="M10,104.6094 L113,104.6094 L113,114.2188 L103,124.2188 L10,124.2188 L10,104.6094 " fill="#EEEEEE" style="stroke:#0A9EFD;stroke-width:1.5;"/><rect fill="none" height="175.6563" style="stroke:#0A9EFD;stroke-width:2.0;" width="653.5" x="10" y="104.6094"/><text fill="#0A9EFD" font-family="Roboto" font-size="14" font-weight="bold" lengthAdjust="spacing" textLength="58" x="25" y="120.1426">Initialize</text><polygon fill="#0A9EFD" points="168.5,143.8281,178.5,147.8281,168.5,151.8281,172.5,147.8281" style="stroke:#0A9EFD;stroke-width:1.0;"/><line style="stroke:#0A9EFD;stroke-width:2.0;" x1="39.5" x2="174.5" y1="147.8281" y2="147.8281"/><text fill="#0A9EFD" font-family="Roboto" font-size="14" font-weight="bold" lengthAdjust="spacing" textLength="68" x="76" y="142.752">Open app</text><line style="stroke:#0A9EFD;stroke-width:2.0;" x1="180.5" x2="222.5" y1="197.0469" y2="197.0469"/><line style="stroke:#0A9EFD;stroke-width:2.0;" x1="222.5" x2="222.5" y1="197.0469" y2="210.0469"/><line style="stroke:#0A9EFD;stroke-width:2.0;" x1="181.5" x2="222.5" y1="210.0469" y2="210.0469"/><polygon fill="#0A9EFD" points="191.5,206.0469,181.5,210.0469,191.5,214.0469,187.5,210.0469" style="stroke:#0A9EFD;stroke-width:1.0;"/><text fill="#0A9EFD" font-family="Roboto" font-size="14" font-weight="bold" lengthAdjust="spacing" textLength="169" x="259.5" y="174.3613">Init a chat SDK instance:</text><text fill="#0A9EFD" font-family="Roboto" font-size="14" font-weight="bold" lengthAdjust="spacing" textLength="313" x="191.5" y="191.9707">SDKClient.Instance.InitWithOptions(options);</text><line style="stroke:#0A9EFD;stroke-width:2.0;" x1="180.5" x2="222.5" y1="259.2656" y2="259.2656"/><line style="stroke:#0A9EFD;stroke-width:2.0;" x1="222.5" x2="222.5" y1="259.2656" y2="272.2656"/><line style="stroke:#0A9EFD;stroke-width:2.0;" x1="181.5" x2="222.5" y1="272.2656" y2="272.2656"/><polygon fill="#0A9EFD" points="191.5,268.2656,181.5,272.2656,191.5,276.2656,187.5,272.2656" style="stroke:#0A9EFD;stroke-width:1.0;"/><text fill="#0A9EFD" font-family="Roboto" font-size="14" font-weight="bold" lengthAdjust="spacing" textLength="212" x="311.5" y="236.5801">Add message event callbacks:</text><text fill="#0A9EFD" font-family="Roboto" font-size="14" font-weight="bold" lengthAdjust="spacing" textLength="460" x="191.5" y="254.1895">SDKClient.Instance.ChatManager.AddChatManagerDelegate(this);</text><path d="M10,294.2656 L98,294.2656 L98,303.875 L88,313.875 L10,313.875 L10,294.2656 " fill="#EEEEEE" style="stroke:#0A9EFD;stroke-width:1.5;"/><rect fill="none" height="176.6563" style="stroke:#0A9EFD;stroke-width:2.0;" width="764.5" x="10" y="294.2656"/><text fill="#0A9EFD" font-family="Roboto" font-size="14" font-weight="bold" lengthAdjust="spacing" textLength="43" x="25" y="309.7988">Log in</text><polygon fill="#0A9EFD" points="168.5,333.4844,178.5,337.4844,168.5,341.4844,172.5,337.4844" style="stroke:#0A9EFD;stroke-width:1.0;"/><line style="stroke:#0A9EFD;stroke-width:2.0;" x1="39.5" x2="174.5" y1="337.4844" y2="337.4844"/><text fill="#0A9EFD" font-family="Roboto" font-size="14" font-weight="bold" lengthAdjust="spacing" textLength="76" x="72" y="332.4082">Join a chat</text><line style="stroke:#0A9EFD;stroke-width:2.0;" x1="180.5" x2="222.5" y1="369.0938" y2="369.0938"/><line style="stroke:#0A9EFD;stroke-width:2.0;" x1="222.5" x2="222.5" y1="369.0938" y2="382.0938"/><line style="stroke:#0A9EFD;stroke-width:2.0;" x1="181.5" x2="222.5" y1="382.0938" y2="382.0938"/><polygon fill="#0A9EFD" points="191.5,378.0938,181.5,382.0938,191.5,386.0938,187.5,382.0938" style="stroke:#0A9EFD;stroke-width:1.0;"/><text fill="#0A9EFD" font-family="Roboto" font-size="14" font-weight="bold" lengthAdjust="spacing" textLength="297" x="187.5" y="364.0176">Retrieve authentication token for the user</text><polygon fill="#0A9EFD" points="721.5,427.3125,731.5,431.3125,721.5,435.3125,725.5,431.3125" style="stroke:#0A9EFD;stroke-width:1.0;"/><line style="stroke:#0A9EFD;stroke-width:2.0;" x1="180.5" x2="727.5" y1="431.3125" y2="431.3125"/><text fill="#0A9EFD" font-family="Roboto" font-size="14" font-weight="bold" lengthAdjust="spacing" textLength="177" x="368.5" y="408.627">Log in to the chat server:</text><text fill="#0A9EFD" font-family="Roboto" font-size="14" font-weight="bold" lengthAdjust="spacing" textLength="314" x="302" y="426.2363">SDKClient.Instance.LoginWithAgoraToken(...)</text><polygon fill="#0A9EFD" points="191.5,458.9219,181.5,462.9219,191.5,466.9219,187.5,462.9219" style="stroke:#0A9EFD;stroke-width:1.0;"/><line style="stroke:#0A9EFD;stroke-width:2.0;" x1="185.5" x2="732.5" y1="462.9219" y2="462.9219"/><text fill="#0A9EFD" font-family="Roboto" font-size="14" font-weight="bold" lengthAdjust="spacing" textLength="166" x="374" y="457.8457">onConnected() callback</text><path d="M10,484.9219 L166,484.9219 L166,494.5313 L156,504.5313 L10,504.5313 L10,484.9219 " fill="#EEEEEE" style="stroke:#0A9EFD;stroke-width:1.5;"/><rect fill="none" height="127.4375" style="stroke:#0A9EFD;stroke-width:2.0;" width="764.5" x="10" y="484.9219"/><text fill="#0A9EFD" font-family="Roboto" font-size="14" font-weight="bold" lengthAdjust="spacing" textLength="111" x="25" y="500.4551">Send messages</text><polygon fill="#0A9EFD" points="168.5,524.1406,178.5,528.1406,168.5,532.1406,172.5,528.1406" style="stroke:#0A9EFD;stroke-width:1.0;"/><line style="stroke:#0A9EFD;stroke-width:2.0;" x1="39.5" x2="174.5" y1="528.1406" y2="528.1406"/><text fill="#0A9EFD" font-family="Roboto" font-size="14" font-weight="bold" lengthAdjust="spacing" textLength="115" x="52.5" y="523.0645">Send a message</text><line style="stroke:#0A9EFD;stroke-width:2.0;" x1="180.5" x2="222.5" y1="559.75" y2="559.75"/><line style="stroke:#0A9EFD;stroke-width:2.0;" x1="222.5" x2="222.5" y1="559.75" y2="572.75"/><line style="stroke:#0A9EFD;stroke-width:2.0;" x1="181.5" x2="222.5" y1="572.75" y2="572.75"/><polygon fill="#0A9EFD" points="191.5,568.75,181.5,572.75,191.5,576.75,187.5,572.75" style="stroke:#0A9EFD;stroke-width:1.0;"/><text fill="#0A9EFD" font-family="Roboto" font-size="14" font-weight="bold" lengthAdjust="spacing" textLength="159" x="187.5" y="554.6738">Create a ChatMessage</text><polygon fill="#0A9EFD" points="721.5,600.3594,731.5,604.3594,721.5,608.3594,725.5,604.3594" style="stroke:#0A9EFD;stroke-width:1.0;"/><line style="stroke:#0A9EFD;stroke-width:2.0;" x1="180.5" x2="727.5" y1="604.3594" y2="604.3594"/><text fill="#0A9EFD" font-family="Roboto" font-size="14" font-weight="bold" lengthAdjust="spacing" textLength="529" x="192.5" y="599.2832">Send the ChatMessage: SDKClient.Instance.ChatManager.SendMessage(...)</text><path d="M10,626.3594 L188,626.3594 L188,635.9688 L178,645.9688 L10,645.9688 L10,626.3594 " fill="#EEEEEE" style="stroke:#0A9EFD;stroke-width:1.5;"/><rect fill="none" height="82.8281" style="stroke:#0A9EFD;stroke-width:2.0;" width="764.5" x="10" y="626.3594"/><text fill="#0A9EFD" font-family="Roboto" font-size="14" font-weight="bold" lengthAdjust="spacing" textLength="133" x="25" y="641.8926">Receive messages</text><polygon fill="#0A9EFD" points="191.5,665.5781,181.5,669.5781,191.5,673.5781,187.5,669.5781" style="stroke:#0A9EFD;stroke-width:1.0;"/><line style="stroke:#0A9EFD;stroke-width:2.0;" x1="185.5" x2="732.5" y1="669.5781" y2="669.5781"/><text fill="#0A9EFD" font-family="Roboto" font-size="14" font-weight="bold" lengthAdjust="spacing" textLength="291" x="311.5" y="664.502">onMessageReceived(messages) callback</text><polygon fill="#0A9EFD" points="50.5,697.1875,40.5,701.1875,50.5,705.1875,46.5,701.1875" style="stroke:#0A9EFD;stroke-width:1.0;"/><line style="stroke:#0A9EFD;stroke-width:2.0;" x1="44.5" x2="179.5" y1="701.1875" y2="701.1875"/><text fill="#0A9EFD" font-family="Roboto" font-size="14" font-weight="bold" lengthAdjust="spacing" textLength="117" x="51.5" y="696.1113">Display message</text><path d="M10,723.1875 L95,723.1875 L95,732.7969 L85,742.7969 L10,742.7969 L10,723.1875 " fill="#EEEEEE" style="stroke:#0A9EFD;stroke-width:1.5;"/><rect fill="none" height="100.4375" style="stroke:#0A9EFD;stroke-width:2.0;" width="764.5" x="10" y="723.1875"/><text fill="#0A9EFD" font-family="Roboto" font-size="14" font-weight="bold" lengthAdjust="spacing" textLength="40" x="25" y="738.7207">Close</text><polygon fill="#0A9EFD" points="168.5,762.4063,178.5,766.4063,168.5,770.4063,172.5,766.4063" style="stroke:#0A9EFD;stroke-width:1.0;"/><line style="stroke:#0A9EFD;stroke-width:2.0;" x1="39.5" x2="174.5" y1="766.4063" y2="766.4063"/><text fill="#0A9EFD" font-family="Roboto" font-size="14" font-weight="bold" lengthAdjust="spacing" textLength="104" x="58" y="761.3301">Leave the chat</text><polygon fill="#0A9EFD" points="721.5,811.625,731.5,815.625,721.5,819.625,725.5,815.625" style="stroke:#0A9EFD;stroke-width:1.0;"/><line style="stroke:#0A9EFD;stroke-width:2.0;" x1="180.5" x2="727.5" y1="815.625" y2="815.625"/><text fill="#0A9EFD" font-family="Roboto" font-size="14" font-weight="bold" lengthAdjust="spacing" textLength="57" x="426.5" y="792.9395">Log out:</text><text fill="#0A9EFD" font-family="Roboto" font-size="14" font-weight="bold" lengthAdjust="spacing" textLength="188" x="367" y="810.5488">agoraChatClient.Logout(...)</text><!--SRC=[XLFBRjim4BphAxOwoOVe0zIWW25VrAI8OJSe2XGeDjH6NfWX1P8Aqdvzbp8jItcW9u7ScPsPNUeJ6wM7bW0xw_2tFx8fUNZIMOOgM0VvlIUN0tgut- -oxC6-GFxJ3Wwmx_EiHnTOSOycG5uVCC1-SpEYrzjjHgO58IJMEWgyH_bbzkIUayfwsrnudRD33utXmAZvBsNY0Qw-nEOLtFLaeejCJjDbn0A2IbQ0ZGze55MY4YzgpMH2sQJhCk9_S3ZSzO6jyOKzVLUV5rtNRGjFv3rs1FGi3K2XrW-eZlwZnZ7PDpJ2SANGPySDQUemK14E78KaxJdfhUt4yIBbLyic1LfOsb5mB5u0Xt0GPLOOdKEmHndBesnEhc6GvLreJPKK13MMnp7vSVZL-p44poOEQDpUzzYyACjo9KsRoOirjJM6LA2sM4sZcGVRnvMc2Vf5lh62vzeYOkr8nYJ5SNYl0KtYnXmpGFM_PKHImfwIp6pkI17BJ2UdKUtwwgHcJQ8bL5kSORFCoPuah633ljVuPyes4wgrzSlNV4iemkUblDcP7SBuqaw_QSoJCafHQfSa_m00]--></g></svg>