<?xml version="1.0" encoding="us-ascii" standalone="no"?><svg xmlns="http://www.w3.org/2000/svg" xmlns:xlink="http://www.w3.org/1999/xlink" contentStyleType="text/css" height="996px" preserveAspectRatio="none" style="width:599px;height:996px;" version="1.1" viewBox="0 0 599 996" width="599px" zoomAndPan="magnify"><defs/><g><rect fill="none" height="994.7617" style="stroke:#0A9EFD;stroke-width:1.0;" width="597" x="0" y="0"/><rect fill="#999999" fill-opacity="0.33333" height="984.7617" style="stroke:#0A9EFD;stroke-width:0.5;" width="84" x="120" y="6"/><text fill="#0A9EFD" font-family="sans-serif" font-size="13" font-weight="bold" lengthAdjust="spacing" textLength="62" x="131" y="18.5684">Your app</text><rect fill="#999999" fill-opacity="0.33333" height="984.7617" style="stroke:#0A9EFD;stroke-width:0.5;" width="64" x="523" y="6"/><text fill="#0A9EFD" font-family="sans-serif" font-size="13" font-weight="bold" lengthAdjust="spacing" textLength="41" x="534.5" y="18.5684">Agora</text><rect fill="#0A9EFD" fill-opacity="0.06667" height="273.4873" style="stroke:#0A9EFD;stroke-width:2.0;" width="469" x="10" y="103.0986"/><rect fill="#0A9EFD" fill-opacity="0.06667" height="160.6924" style="stroke:#0A9EFD;stroke-width:2.0;" width="583" x="10" y="390.5859"/><rect fill="#0A9EFD" fill-opacity="0.06667" height="131.7437" style="stroke:#0A9EFD;stroke-width:2.0;" width="583" x="10" y="565.2783"/><rect fill="#0A9EFD" fill-opacity="0.06667" height="74.8462" style="stroke:#0A9EFD;stroke-width:2.0;" width="583" x="10" y="711.022"/><rect fill="#0A9EFD" fill-opacity="0.06667" height="89.7949" style="stroke:#0A9EFD;stroke-width:2.0;" width="583" x="10" y="799.8682"/><line style="stroke:#0A9EFD;stroke-width:0.5;stroke-dasharray:5.0,5.0;" x1="38" x2="38" y1="86.0986" y2="906.6631"/><line style="stroke:#0A9EFD;stroke-width:0.5;stroke-dasharray:5.0,5.0;" x1="162" x2="162" y1="86.0986" y2="906.6631"/><line style="stroke:#0A9EFD;stroke-width:0.5;stroke-dasharray:5.0,5.0;" x1="555" x2="555" y1="86.0986" y2="906.6631"/><text fill="#0A9EFD" font-family="Arial" font-size="14" lengthAdjust="spacing" textLength="30" x="20" y="83.1318">User</text><ellipse cx="38" cy="16" fill="none" rx="8" ry="8" style="stroke:#0A9EFD;stroke-width:3.0;"/><path d="M38,24 L38,51 M25,32 L51,32 M38,51 L25,66 M38,51 L51,66 " fill="none" style="stroke:#0A9EFD;stroke-width:3.0;"/><text fill="#0A9EFD" font-family="Arial" font-size="14" lengthAdjust="spacing" textLength="30" x="20" y="918.7949">User</text><ellipse cx="38" cy="932.7617" fill="none" rx="8" ry="8" style="stroke:#0A9EFD;stroke-width:3.0;"/><path d="M38,940.7617 L38,967.7617 M25,948.7617 L51,948.7617 M38,967.7617 L25,982.7617 M38,967.7617 L51,982.7617 " fill="none" style="stroke:#0A9EFD;stroke-width:3.0;"/><rect fill="none" height="30.0986" rx="2.5" ry="2.5" style="stroke:#0A9EFD;stroke-width:2.0;" width="76" x="124" y="55"/><text fill="#0A9EFD" font-family="Arial" font-size="14" lengthAdjust="spacing" textLength="62" x="131" y="75.1318">Chat SDK</text><rect fill="none" height="30.0986" rx="2.5" ry="2.5" style="stroke:#0A9EFD;stroke-width:2.0;" width="76" x="124" y="905.6631"/><text fill="#0A9EFD" font-family="Arial" font-size="14" lengthAdjust="spacing" textLength="62" x="131" y="925.7949">Chat SDK</text><rect fill="none" height="46.1973" rx="2.5" ry="2.5" style="stroke:#0A9EFD;stroke-width:2.0;" width="56" x="527" y="38.9014"/><text fill="#0A9EFD" font-family="Arial" font-size="14" lengthAdjust="spacing" textLength="30" x="538" y="59.0332">Chat</text><text fill="#0A9EFD" font-family="Arial" font-size="14" lengthAdjust="spacing" textLength="42" x="534" y="75.1318">Server</text><rect fill="none" height="46.1973" rx="2.5" ry="2.5" style="stroke:#0A9EFD;stroke-width:2.0;" width="56" x="527" y="905.6631"/><text fill="#0A9EFD" font-family="Arial" font-size="14" lengthAdjust="spacing" textLength="30" x="538" y="925.7949">Chat</text><text fill="#0A9EFD" font-family="Arial" font-size="14" lengthAdjust="spacing" textLength="42" x="534" y="941.8936">Server</text><path d="M10,103.0986 L103,103.0986 L103,110.0474 L93,120.0474 L10,120.0474 L10,103.0986 " fill="#EEEEEE" style="stroke:#0A9EFD;stroke-width:1.5;"/><rect fill="none" height="273.4873" style="stroke:#0A9EFD;stroke-width:2.0;" width="469" x="10" y="103.0986"/><text fill="#000000" font-family="Arial" font-size="13" lengthAdjust="spacing" textLength="48" x="25" y="116.2925">Initialize</text><polygon fill="#0A9EFD" points="150,136.9961,160,140.9961,150,144.9961,154,140.9961" style="stroke:#0A9EFD;stroke-width:1.0;"/><line style="stroke:#0A9EFD;stroke-width:2.0;" x1="38" x2="156" y1="140.9961" y2="140.9961"/><text fill="#0A9EFD" font-family="Arial" font-size="13" lengthAdjust="spacing" textLength="56" x="72" y="136.2412">Open app</text><line style="stroke:#0A9EFD;stroke-width:2.0;" x1="162" x2="204" y1="184.8936" y2="184.8936"/><line style="stroke:#0A9EFD;stroke-width:2.0;" x1="204" x2="204" y1="184.8936" y2="197.8936"/><line style="stroke:#0A9EFD;stroke-width:2.0;" x1="163" x2="204" y1="197.8936" y2="197.8936"/><polygon fill="#0A9EFD" points="173,193.8936,163,197.8936,173,201.8936,169,197.8936" style="stroke:#0A9EFD;stroke-width:1.0;"/><text fill="#0A9EFD" font-family="Arial" font-size="13" lengthAdjust="spacing" textLength="149" x="214.5" y="165.1899">Get a ChatClient instance</text><text fill="#0A9EFD" font-family="Arial" font-size="13" lengthAdjust="spacing" textLength="240" x="173" y="180.1387">agoraChatClient = ChatClient.getInstance</text><line style="stroke:#0A9EFD;stroke-width:2.0;" x1="162" x2="204" y1="241.791" y2="241.791"/><line style="stroke:#0A9EFD;stroke-width:2.0;" x1="204" x2="204" y1="241.791" y2="254.791"/><line style="stroke:#0A9EFD;stroke-width:2.0;" x1="163" x2="204" y1="254.791" y2="254.791"/><polygon fill="#0A9EFD" points="173,250.791,163,254.791,173,258.791,169,254.791" style="stroke:#0A9EFD;stroke-width:1.0;"/><text fill="#0A9EFD" font-family="Arial" font-size="13" lengthAdjust="spacing" textLength="127" x="187" y="222.0874">Initialize the instance:</text><text fill="#0A9EFD" font-family="Arial" font-size="13" lengthAdjust="spacing" textLength="163" x="173" y="237.0361">agoraChatClient.init(options)</text><line style="stroke:#0A9EFD;stroke-width:2.0;" x1="162" x2="204" y1="298.6885" y2="298.6885"/><line style="stroke:#0A9EFD;stroke-width:2.0;" x1="204" x2="204" y1="298.6885" y2="311.6885"/><line style="stroke:#0A9EFD;stroke-width:2.0;" x1="163" x2="204" y1="311.6885" y2="311.6885"/><polygon fill="#0A9EFD" points="173,307.6885,163,311.6885,173,315.6885,169,311.6885" style="stroke:#0A9EFD;stroke-width:1.0;"/><text fill="#0A9EFD" font-family="Arial" font-size="13" lengthAdjust="spacing" textLength="179" x="226.5" y="278.9849">Add message event callbacks:</text><text fill="#0A9EFD" font-family="Arial" font-size="13" lengthAdjust="spacing" textLength="294" x="173" y="293.9336">agoraChatClient.chatManager.addEventHandler(...)</text><line style="stroke:#0A9EFD;stroke-width:2.0;" x1="162" x2="204" y1="355.5859" y2="355.5859"/><line style="stroke:#0A9EFD;stroke-width:2.0;" x1="204" x2="204" y1="355.5859" y2="368.5859"/><line style="stroke:#0A9EFD;stroke-width:2.0;" x1="163" x2="204" y1="368.5859" y2="368.5859"/><polygon fill="#0A9EFD" points="173,364.5859,163,368.5859,173,372.5859,169,368.5859" style="stroke:#0A9EFD;stroke-width:1.0;"/><text fill="#0A9EFD" font-family="Arial" font-size="13" lengthAdjust="spacing" textLength="189" x="214.5" y="335.8823">Add connection event callbacks:</text><text fill="#0A9EFD" font-family="Arial" font-size="13" lengthAdjust="spacing" textLength="280" x="173" y="350.8311">agoraChatClient.addConnectionEventHandler(...)</text><path d="M10,390.5859 L90,390.5859 L90,397.5347 L80,407.5347 L10,407.5347 L10,390.5859 " fill="#EEEEEE" style="stroke:#0A9EFD;stroke-width:1.5;"/><rect fill="none" height="160.6924" style="stroke:#0A9EFD;stroke-width:2.0;" width="583" x="10" y="390.5859"/><text fill="#000000" font-family="Arial" font-size="13" lengthAdjust="spacing" textLength="35" x="25" y="403.7798">Log in</text><polygon fill="#0A9EFD" points="150,424.4834,160,428.4834,150,432.4834,154,428.4834" style="stroke:#0A9EFD;stroke-width:1.0;"/><line style="stroke:#0A9EFD;stroke-width:2.0;" x1="38" x2="156" y1="428.4834" y2="428.4834"/><text fill="#0A9EFD" font-family="Arial" font-size="13" lengthAdjust="spacing" textLength="64" x="68" y="423.7285">Join a chat</text><line style="stroke:#0A9EFD;stroke-width:2.0;" x1="162" x2="204" y1="457.4321" y2="457.4321"/><line style="stroke:#0A9EFD;stroke-width:2.0;" x1="204" x2="204" y1="457.4321" y2="470.4321"/><line style="stroke:#0A9EFD;stroke-width:2.0;" x1="163" x2="204" y1="470.4321" y2="470.4321"/><polygon fill="#0A9EFD" points="173,466.4321,163,470.4321,173,474.4321,169,470.4321" style="stroke:#0A9EFD;stroke-width:1.0;"/><text fill="#0A9EFD" font-family="Arial" font-size="13" lengthAdjust="spacing" textLength="239" x="169" y="452.6772">Retrieve authentication token for the user</text><polygon fill="#0A9EFD" points="543,510.3296,553,514.3296,543,518.3296,547,514.3296" style="stroke:#0A9EFD;stroke-width:1.0;"/><line style="stroke:#0A9EFD;stroke-width:2.0;" x1="162" x2="549" y1="514.3296" y2="514.3296"/><text fill="#0A9EFD" font-family="Arial" font-size="13" lengthAdjust="spacing" textLength="145" x="286" y="494.626">Log in to the chat server:</text><text fill="#0A9EFD" font-family="Arial" font-size="13" lengthAdjust="spacing" textLength="303" x="209" y="509.5747">agoraChatClient.loginWithAgoraToken(userId, token)</text><polygon fill="#0A9EFD" points="173,539.2783,163,543.2783,173,547.2783,169,543.2783" style="stroke:#0A9EFD;stroke-width:1.0;"/><line style="stroke:#0A9EFD;stroke-width:2.0;" x1="167" x2="554" y1="543.2783" y2="543.2783"/><text fill="#0A9EFD" font-family="Arial" font-size="13" lengthAdjust="spacing" textLength="136" x="290.5" y="538.5234">onConnected() callback</text><path d="M10,565.2783 L149,565.2783 L149,572.2271 L139,582.2271 L10,582.2271 L10,565.2783 " fill="#EEEEEE" style="stroke:#0A9EFD;stroke-width:1.5;"/><rect fill="none" height="131.7437" style="stroke:#0A9EFD;stroke-width:2.0;" width="583" x="10" y="565.2783"/><text fill="#000000" font-family="Arial" font-size="13" lengthAdjust="spacing" textLength="94" x="25" y="578.4722">Send messages</text><polygon fill="#0A9EFD" points="150,599.1758,160,603.1758,150,607.1758,154,603.1758" style="stroke:#0A9EFD;stroke-width:1.0;"/><line style="stroke:#0A9EFD;stroke-width:2.0;" x1="38" x2="156" y1="603.1758" y2="603.1758"/><text fill="#0A9EFD" font-family="Arial" font-size="13" lengthAdjust="spacing" textLength="98" x="51" y="598.4209">Send a message</text><line style="stroke:#0A9EFD;stroke-width:2.0;" x1="162" x2="204" y1="632.1245" y2="632.1245"/><line style="stroke:#0A9EFD;stroke-width:2.0;" x1="204" x2="204" y1="632.1245" y2="645.1245"/><line style="stroke:#0A9EFD;stroke-width:2.0;" x1="163" x2="204" y1="645.1245" y2="645.1245"/><polygon fill="#0A9EFD" points="173,641.1245,163,645.1245,173,649.1245,169,645.1245" style="stroke:#0A9EFD;stroke-width:1.0;"/><text fill="#0A9EFD" font-family="Arial" font-size="13" lengthAdjust="spacing" textLength="133" x="169" y="627.3696">Create a ChatMessage</text><polygon fill="#0A9EFD" points="543,685.022,553,689.022,543,693.022,547,689.022" style="stroke:#0A9EFD;stroke-width:1.0;"/><line style="stroke:#0A9EFD;stroke-width:2.0;" x1="162" x2="549" y1="689.022" y2="689.022"/><text fill="#0A9EFD" font-family="Arial" font-size="13" lengthAdjust="spacing" textLength="140" x="286.5" y="669.3184">Send the ChatMessage:</text><text fill="#0A9EFD" font-family="Arial" font-size="13" lengthAdjust="spacing" textLength="317" x="202" y="684.2671">agoraChatClient.chatManager.sendMessage(message)</text><path d="M10,711.022 L166,711.022 L166,717.9707 L156,727.9707 L10,727.9707 L10,711.022 " fill="#EEEEEE" style="stroke:#0A9EFD;stroke-width:1.5;"/><rect fill="none" height="74.8462" style="stroke:#0A9EFD;stroke-width:2.0;" width="583" x="10" y="711.022"/><text fill="#000000" font-family="Arial" font-size="13" lengthAdjust="spacing" textLength="111" x="25" y="724.2158">Receive messages</text><polygon fill="#0A9EFD" points="173,744.9194,163,748.9194,173,752.9194,169,748.9194" style="stroke:#0A9EFD;stroke-width:1.0;"/><line style="stroke:#0A9EFD;stroke-width:2.0;" x1="167" x2="554" y1="748.9194" y2="748.9194"/><text fill="#0A9EFD" font-family="Arial" font-size="13" lengthAdjust="spacing" textLength="369" x="174" y="744.1646">onMessagesReceived(List&lt;ChatMessage&gt; messages) callback</text><polygon fill="#0A9EFD" points="49,773.8682,39,777.8682,49,781.8682,45,777.8682" style="stroke:#0A9EFD;stroke-width:1.0;"/><line style="stroke:#0A9EFD;stroke-width:2.0;" x1="43" x2="161" y1="777.8682" y2="777.8682"/><text fill="#0A9EFD" font-family="Arial" font-size="13" lengthAdjust="spacing" textLength="100" x="50" y="773.1133">Display message</text><path d="M10,799.8682 L88,799.8682 L88,806.8169 L78,816.8169 L10,816.8169 L10,799.8682 " fill="#EEEEEE" style="stroke:#0A9EFD;stroke-width:1.5;"/><rect fill="none" height="89.7949" style="stroke:#0A9EFD;stroke-width:2.0;" width="583" x="10" y="799.8682"/><text fill="#000000" font-family="Arial" font-size="13" lengthAdjust="spacing" textLength="33" x="25" y="813.062">Close</text><polygon fill="#0A9EFD" points="150,833.7656,160,837.7656,150,841.7656,154,837.7656" style="stroke:#0A9EFD;stroke-width:1.0;"/><line style="stroke:#0A9EFD;stroke-width:2.0;" x1="38" x2="156" y1="837.7656" y2="837.7656"/><text fill="#0A9EFD" font-family="Arial" font-size="13" lengthAdjust="spacing" textLength="86" x="57" y="833.0107">Leave the chat</text><polygon fill="#0A9EFD" points="543,877.6631,553,881.6631,543,885.6631,547,881.6631" style="stroke:#0A9EFD;stroke-width:1.0;"/><line style="stroke:#0A9EFD;stroke-width:2.0;" x1="162" x2="549" y1="881.6631" y2="881.6631"/><text fill="#0A9EFD" font-family="Arial" font-size="13" lengthAdjust="spacing" textLength="47" x="333" y="861.9595">Log out:</text><text fill="#0A9EFD" font-family="Arial" font-size="13" lengthAdjust="spacing" textLength="151" x="287" y="876.9082">agoraChatClient.logout(...)</text><!--SRC=[ZLDVRzCm47_FfpZob4aqUu_6f2f34EX4rJ8X92Hqiu_KgcT7jbC1dvvpvgK9ZGHlRVtxUtTzfOpGlIGeo-kJacHNNXwliRKEl_kZCgNgdtIMeGZMGVxWoUM07Xxskonxj3yX_sfx1zXrUTQX2qge3as0l3vWWFtTnm6ztcupCXAOa5ZhQB14-MRsv4x9PRrjphpMsRw3ngYWKAlVb746MDr6yGe-TMHYYeo_ZJ- -em08KRRMYjX26H_G268N62fEtjvCW6LBeKdOcUBP7SA1HhrgGR1KZ2ri5vGr_cgcifOIdiXxR0de5Cq5Qls8ukWNbGH_l4V3S5UYb6yZvJqQgSaLPLbUYWjh38de_5_wh5cFZ4jrti3Bz3UsvTApoN-mYXKXPfpbs55mYjq1UnwLuJNZ42ZO8w_g1rzJd63F1tMcDLLoODJm75N13mTHBGJNjbNcYmg7uPm-H-KYAZRozRDF74qpHh8crIHPN8qpcVRRnsjBg_6pciCBlhpDcjQEC52wjFk_0KtYnZeJm3yNxPcKi4LodQrYHu8KZtTC6nrlLi-ErYIgJp1PR9GFDvC0joDpCegKcejNSATyf_7NM7dYNMlhv_-_3U69nfLTRDJsOIYyj45-Ez_P7m00]--></g></svg>