<?xml version="1.0" encoding="UTF-8" standalone="no"?><svg xmlns="http://www.w3.org/2000/svg" xmlns:xlink="http://www.w3.org/1999/xlink" contentStyleType="text/css" height="1025px" preserveAspectRatio="none" style="width:701px;height:1025px;" version="1.1" viewBox="0 0 701 1025" width="701px" zoomAndPan="magnify"><defs/><g><rect fill="none" height="1023.0625" style="stroke:#0A9EFD;stroke-width:1.0;" width="699.5" x="0" y="0"/><rect fill="#F3F3F3" height="1013.0625" style="stroke:#0A9EFD;stroke-width:0.5;" width="87" x="135" y="6"/><text fill="#000000" font-family="sans-serif" font-size="13" font-weight="bold" lengthAdjust="spacing" textLength="57" x="150" y="19.4951">Your app</text><rect fill="#F3F3F3" height="1013.0625" style="stroke:#0A9EFD;stroke-width:0.5;" width="70" x="619.5" y="6"/><text fill="#000000" font-family="sans-serif" font-size="13" font-weight="bold" lengthAdjust="spacing" textLength="38" x="635.5" y="19.4951">Agora</text><rect fill="#FFFFFF" height="237.875" style="stroke:#0A9EFD;stroke-width:2.0;" width="637.5" x="10" y="104.6094"/><rect fill="#FFFFFF" height="176.6563" style="stroke:#0A9EFD;stroke-width:2.0;" width="685.5" x="10" y="356.4844"/><rect fill="#FFFFFF" height="145.0469" style="stroke:#0A9EFD;stroke-width:2.0;" width="685.5" x="10" y="547.1406"/><rect fill="#FFFFFF" height="95.8281" style="stroke:#0A9EFD;stroke-width:2.0;" width="566.5" x="129" y="706.1875"/><rect fill="#FFFFFF" height="100.4375" style="stroke:#0A9EFD;stroke-width:2.0;" width="685.5" x="10" y="816.0156"/><line style="stroke:#0A9EFD;stroke-width:0.5;stroke-dasharray:5.0,5.0;" x1="39" x2="39" y1="87.6094" y2="933.4531"/><line style="stroke:#0A9EFD;stroke-width:0.5;stroke-dasharray:5.0,5.0;" x1="178" x2="178" y1="87.6094" y2="933.4531"/><line style="stroke:#0A9EFD;stroke-width:0.5;stroke-dasharray:5.0,5.0;" x1="654.5" x2="654.5" y1="87.6094" y2="933.4531"/><text fill="#0A9EFD" font-family="Roboto" font-size="14" font-weight="bold" lengthAdjust="spacing" textLength="33" x="20" y="84.5332">User</text><ellipse cx="39.5" cy="16" fill="none" rx="8" ry="8" style="stroke:#0A9EFD;stroke-width:3.0;"/><path d="M39.5,24 L39.5,51 M26.5,32 L52.5,32 M39.5,51 L26.5,66 M39.5,51 L52.5,66 " fill="none" style="stroke:#0A9EFD;stroke-width:3.0;"/><text fill="#0A9EFD" font-family="Roboto" font-size="14" font-weight="bold" lengthAdjust="spacing" textLength="33" x="20" y="946.9863">User</text><ellipse cx="39.5" cy="961.0625" fill="none" rx="8" ry="8" style="stroke:#0A9EFD;stroke-width:3.0;"/><path d="M39.5,969.0625 L39.5,996.0625 M26.5,977.0625 L52.5,977.0625 M39.5,996.0625 L26.5,1011.0625 M39.5,996.0625 L52.5,1011.0625 " fill="none" style="stroke:#0A9EFD;stroke-width:3.0;"/><rect fill="#FFFFFF" height="49.2188" rx="2.5" ry="2.5" style="stroke:#0A9EFD;stroke-width:2.0;" width="79" x="139" y="37.3906"/><text fill="#0A9EFD" font-family="Roboto" font-size="14" font-weight="bold" lengthAdjust="spacing" textLength="41" x="156" y="58.9238">Agora</text><text fill="#0A9EFD" font-family="Roboto" font-size="14" font-weight="bold" lengthAdjust="spacing" textLength="65" x="146" y="76.5332">Chat SDK</text><rect fill="#FFFFFF" height="49.2188" rx="2.5" ry="2.5" style="stroke:#0A9EFD;stroke-width:2.0;" width="79" x="139" y="932.4531"/><text fill="#0A9EFD" font-family="Roboto" font-size="14" font-weight="bold" lengthAdjust="spacing" textLength="41" x="156" y="953.9863">Agora</text><text fill="#0A9EFD" font-family="Roboto" font-size="14" font-weight="bold" lengthAdjust="spacing" textLength="65" x="146" y="971.5957">Chat SDK</text><rect fill="#FFFFFF" height="49.2188" rx="2.5" ry="2.5" style="stroke:#0A9EFD;stroke-width:2.0;" width="62" x="623.5" y="37.3906"/><text fill="#0A9EFD" font-family="Roboto" font-size="14" font-weight="bold" lengthAdjust="spacing" textLength="32" x="636.5" y="58.9238">Chat</text><text fill="#0A9EFD" font-family="Roboto" font-size="14" font-weight="bold" lengthAdjust="spacing" textLength="48" x="630.5" y="76.5332">Server</text><rect fill="#FFFFFF" height="49.2188" rx="2.5" ry="2.5" style="stroke:#0A9EFD;stroke-width:2.0;" width="62" x="623.5" y="932.4531"/><text fill="#0A9EFD" font-family="Roboto" font-size="14" font-weight="bold" lengthAdjust="spacing" textLength="32" x="636.5" y="953.9863">Chat</text><text fill="#0A9EFD" font-family="Roboto" font-size="14" font-weight="bold" lengthAdjust="spacing" textLength="48" x="630.5" y="971.5957">Server</text><path d="M10,104.6094 L113,104.6094 L113,114.2188 L103,124.2188 L10,124.2188 L10,104.6094 " fill="#EEEEEE" style="stroke:#0A9EFD;stroke-width:1.5;"/><rect fill="none" height="237.875" style="stroke:#0A9EFD;stroke-width:2.0;" width="637.5" x="10" y="104.6094"/><text fill="#0A9EFD" font-family="Roboto" font-size="14" font-weight="bold" lengthAdjust="spacing" textLength="58" x="25" y="120.1426">Initialize</text><polygon fill="#0A9EFD" points="166.5,143.8281,176.5,147.8281,166.5,151.8281,170.5,147.8281" style="stroke:#0A9EFD;stroke-width:1.0;"/><line style="stroke:#0A9EFD;stroke-width:2.0;" x1="39.5" x2="172.5" y1="147.8281" y2="147.8281"/><text fill="#0A9EFD" font-family="Roboto" font-size="14" font-weight="bold" lengthAdjust="spacing" textLength="69" x="74.5" y="142.752">Open App</text><line style="stroke:#0A9EFD;stroke-width:2.0;" x1="178.5" x2="220.5" y1="197.0469" y2="197.0469"/><line style="stroke:#0A9EFD;stroke-width:2.0;" x1="220.5" x2="220.5" y1="197.0469" y2="210.0469"/><line style="stroke:#0A9EFD;stroke-width:2.0;" x1="179.5" x2="220.5" y1="210.0469" y2="210.0469"/><polygon fill="#0A9EFD" points="189.5,206.0469,179.5,210.0469,189.5,214.0469,185.5,210.0469" style="stroke:#0A9EFD;stroke-width:1.0;"/><text fill="#0A9EFD" font-family="Roboto" font-size="14" font-weight="bold" lengthAdjust="spacing" textLength="215" x="238" y="174.3613">Initialize a ChatClient instance:</text><text fill="#0A9EFD" font-family="Roboto" font-size="14" font-weight="bold" lengthAdjust="spacing" textLength="320" x="189.5" y="191.9707">ChatClient.getInstance().init(context, options)</text><line style="stroke:#0A9EFD;stroke-width:2.0;" x1="178.5" x2="220.5" y1="259.2656" y2="259.2656"/><line style="stroke:#0A9EFD;stroke-width:2.0;" x1="220.5" x2="220.5" y1="259.2656" y2="272.2656"/><line style="stroke:#0A9EFD;stroke-width:2.0;" x1="179.5" x2="220.5" y1="272.2656" y2="272.2656"/><polygon fill="#0A9EFD" points="189.5,268.2656,179.5,272.2656,189.5,276.2656,185.5,272.2656" style="stroke:#0A9EFD;stroke-width:1.0;"/><text fill="#0A9EFD" font-family="Roboto" font-size="14" font-weight="bold" lengthAdjust="spacing" textLength="212" x="302.5" y="236.5801">Add message event callbacks:</text><text fill="#0A9EFD" font-family="Roboto" font-size="14" font-weight="bold" lengthAdjust="spacing" textLength="450" x="185.5" y="254.1895">ChatClient.getInstance().chatManager().addMessageListener(...)</text><line style="stroke:#0A9EFD;stroke-width:2.0;" x1="178.5" x2="220.5" y1="321.4844" y2="321.4844"/><line style="stroke:#0A9EFD;stroke-width:2.0;" x1="220.5" x2="220.5" y1="321.4844" y2="334.4844"/><line style="stroke:#0A9EFD;stroke-width:2.0;" x1="179.5" x2="220.5" y1="334.4844" y2="334.4844"/><polygon fill="#0A9EFD" points="189.5,330.4844,179.5,334.4844,189.5,338.4844,185.5,334.4844" style="stroke:#0A9EFD;stroke-width:1.0;"/><text fill="#0A9EFD" font-family="Roboto" font-size="14" font-weight="bold" lengthAdjust="spacing" textLength="228" x="250" y="298.7988">Add connection event callbacks:</text><text fill="#0A9EFD" font-family="Roboto" font-size="14" font-weight="bold" lengthAdjust="spacing" textLength="361" x="185.5" y="316.4082">ChatClient.getInstance().addConnectionListener(...)</text><path d="M10,356.4844 L98,356.4844 L98,366.0938 L88,376.0938 L10,376.0938 L10,356.4844 " fill="#EEEEEE" style="stroke:#0A9EFD;stroke-width:1.5;"/><rect fill="none" height="176.6563" style="stroke:#0A9EFD;stroke-width:2.0;" width="685.5" x="10" y="356.4844"/><text fill="#0A9EFD" font-family="Roboto" font-size="14" font-weight="bold" lengthAdjust="spacing" textLength="43" x="25" y="372.0176">Log in</text><polygon fill="#0A9EFD" points="166.5,395.7031,176.5,399.7031,166.5,403.7031,170.5,399.7031" style="stroke:#0A9EFD;stroke-width:1.0;"/><line style="stroke:#0A9EFD;stroke-width:2.0;" x1="39.5" x2="172.5" y1="399.7031" y2="399.7031"/><text fill="#0A9EFD" font-family="Roboto" font-size="14" font-weight="bold" lengthAdjust="spacing" textLength="76" x="71" y="394.627">Join a chat</text><line style="stroke:#0A9EFD;stroke-width:2.0;" x1="178.5" x2="220.5" y1="431.3125" y2="431.3125"/><line style="stroke:#0A9EFD;stroke-width:2.0;" x1="220.5" x2="220.5" y1="431.3125" y2="444.3125"/><line style="stroke:#0A9EFD;stroke-width:2.0;" x1="179.5" x2="220.5" y1="444.3125" y2="444.3125"/><polygon fill="#0A9EFD" points="189.5,440.3125,179.5,444.3125,189.5,448.3125,185.5,444.3125" style="stroke:#0A9EFD;stroke-width:1.0;"/><text fill="#0A9EFD" font-family="Roboto" font-size="14" font-weight="bold" lengthAdjust="spacing" textLength="297" x="185.5" y="426.2363">Retrieve authentication token for the user</text><polygon fill="#0A9EFD" points="642.5,489.5313,652.5,493.5313,642.5,497.5313,646.5,493.5313" style="stroke:#0A9EFD;stroke-width:1.0;"/><line style="stroke:#0A9EFD;stroke-width:2.0;" x1="178.5" x2="648.5" y1="493.5313" y2="493.5313"/><text fill="#0A9EFD" font-family="Roboto" font-size="14" font-weight="bold" lengthAdjust="spacing" textLength="173" x="330" y="470.8457">Login to the chat server:</text><text fill="#0A9EFD" font-family="Roboto" font-size="14" font-weight="bold" lengthAdjust="spacing" textLength="346" x="245.5" y="488.4551">ChatClient.getInstance().loginWithAgoraToken(...)</text><polygon fill="#0A9EFD" points="189.5,521.1406,179.5,525.1406,189.5,529.1406,185.5,525.1406" style="stroke:#0A9EFD;stroke-width:1.0;"/><line style="stroke:#0A9EFD;stroke-width:2.0;" x1="183.5" x2="653.5" y1="525.1406" y2="525.1406"/><text fill="#0A9EFD" font-family="Roboto" font-size="14" font-weight="bold" lengthAdjust="spacing" textLength="166" x="333.5" y="520.0645">onConnected() callback</text><path d="M10,547.1406 L91,547.1406 L91,556.75 L81,566.75 L10,566.75 L10,547.1406 " fill="#EEEEEE" style="stroke:#0A9EFD;stroke-width:1.5;"/><rect fill="none" height="145.0469" style="stroke:#0A9EFD;stroke-width:2.0;" width="685.5" x="10" y="547.1406"/><text fill="#0A9EFD" font-family="Roboto" font-size="14" font-weight="bold" lengthAdjust="spacing" textLength="36" x="25" y="562.6738">Send</text><polygon fill="#0A9EFD" points="166.5,586.3594,176.5,590.3594,166.5,594.3594,170.5,590.3594" style="stroke:#0A9EFD;stroke-width:1.0;"/><line style="stroke:#0A9EFD;stroke-width:2.0;" x1="39.5" x2="172.5" y1="590.3594" y2="590.3594"/><text fill="#0A9EFD" font-family="Roboto" font-size="14" font-weight="bold" lengthAdjust="spacing" textLength="115" x="51.5" y="585.2832">Send a message</text><line style="stroke:#0A9EFD;stroke-width:2.0;" x1="178.5" x2="220.5" y1="621.9688" y2="621.9688"/><line style="stroke:#0A9EFD;stroke-width:2.0;" x1="220.5" x2="220.5" y1="621.9688" y2="634.9688"/><line style="stroke:#0A9EFD;stroke-width:2.0;" x1="179.5" x2="220.5" y1="634.9688" y2="634.9688"/><polygon fill="#0A9EFD" points="189.5,630.9688,179.5,634.9688,189.5,638.9688,185.5,634.9688" style="stroke:#0A9EFD;stroke-width:1.0;"/><text fill="#0A9EFD" font-family="Roboto" font-size="14" font-weight="bold" lengthAdjust="spacing" textLength="159" x="185.5" y="616.8926">Create a ChatMessage</text><polygon fill="#0A9EFD" points="642.5,680.1875,652.5,684.1875,642.5,688.1875,646.5,684.1875" style="stroke:#0A9EFD;stroke-width:1.0;"/><line style="stroke:#0A9EFD;stroke-width:2.0;" x1="178.5" x2="648.5" y1="684.1875" y2="684.1875"/><text fill="#0A9EFD" font-family="Roboto" font-size="14" font-weight="bold" lengthAdjust="spacing" textLength="167" x="331" y="661.502">Send the ChatMessage:</text><text fill="#0A9EFD" font-family="Roboto" font-size="14" font-weight="bold" lengthAdjust="spacing" textLength="452" x="190.5" y="679.1113">ChatClient.getInstance().chatManager().sendMessage(message)</text><path d="M129,706.1875 L307,706.1875 L307,715.7969 L297,725.7969 L129,725.7969 L129,706.1875 " fill="#EEEEEE" style="stroke:#0A9EFD;stroke-width:1.5;"/><rect fill="none" height="95.8281" style="stroke:#0A9EFD;stroke-width:2.0;" width="566.5" x="129" y="706.1875"/><text fill="#0A9EFD" font-family="Roboto" font-size="14" font-weight="bold" lengthAdjust="spacing" textLength="133" x="144" y="721.7207">Receive messages</text><polygon fill="#0A9EFD" points="189.5,745.4063,179.5,749.4063,189.5,753.4063,185.5,749.4063" style="stroke:#0A9EFD;stroke-width:1.0;"/><line style="stroke:#0A9EFD;stroke-width:2.0;" x1="183.5" x2="653.5" y1="749.4063" y2="749.4063"/><text fill="#0A9EFD" font-family="Roboto" font-size="14" font-weight="bold" lengthAdjust="spacing" textLength="232" x="300.5" y="744.3301">onMessageReceived(...) callback</text><line style="stroke:#0A9EFD;stroke-width:2.0;" x1="178.5" x2="220.5" y1="781.0156" y2="781.0156"/><line style="stroke:#0A9EFD;stroke-width:2.0;" x1="220.5" x2="220.5" y1="781.0156" y2="794.0156"/><line style="stroke:#0A9EFD;stroke-width:2.0;" x1="179.5" x2="220.5" y1="794.0156" y2="794.0156"/><polygon fill="#0A9EFD" points="189.5,790.0156,179.5,794.0156,189.5,798.0156,185.5,794.0156" style="stroke:#0A9EFD;stroke-width:1.0;"/><text fill="#0A9EFD" font-family="Roboto" font-size="14" font-weight="bold" lengthAdjust="spacing" textLength="117" x="185.5" y="775.9395">Display message</text><path d="M10,816.0156 L95,816.0156 L95,825.625 L85,835.625 L10,835.625 L10,816.0156 " fill="#EEEEEE" style="stroke:#0A9EFD;stroke-width:1.5;"/><rect fill="none" height="100.4375" style="stroke:#0A9EFD;stroke-width:2.0;" width="685.5" x="10" y="816.0156"/><text fill="#0A9EFD" font-family="Roboto" font-size="14" font-weight="bold" lengthAdjust="spacing" textLength="40" x="25" y="831.5488">Close</text><polygon fill="#0A9EFD" points="166.5,855.2344,176.5,859.2344,166.5,863.2344,170.5,859.2344" style="stroke:#0A9EFD;stroke-width:1.0;"/><line style="stroke:#0A9EFD;stroke-width:2.0;" x1="39.5" x2="172.5" y1="859.2344" y2="859.2344"/><text fill="#0A9EFD" font-family="Roboto" font-size="14" font-weight="bold" lengthAdjust="spacing" textLength="104" x="57" y="854.1582">Leave the chat</text><polygon fill="#0A9EFD" points="642.5,904.4531,652.5,908.4531,642.5,912.4531,646.5,908.4531" style="stroke:#0A9EFD;stroke-width:1.0;"/><line style="stroke:#0A9EFD;stroke-width:2.0;" x1="178.5" x2="648.5" y1="908.4531" y2="908.4531"/><text fill="#0A9EFD" font-family="Roboto" font-size="14" font-weight="bold" lengthAdjust="spacing" textLength="57" x="386" y="885.7676">Log out:</text><text fill="#0A9EFD" font-family="Roboto" font-size="14" font-weight="bold" lengthAdjust="spacing" textLength="241" x="300" y="903.377">ChatClient.getInstance().logout(...)</text><!--SRC=[bLFRQjmm47ttLqpzj0kDFy2KWd5UtExIPRUX509b8a-zOXr9I798-_KTAV9jKm9vrCoSEJFdZ3v89VgX9S1EM_pbBb8LSdZiimo5rnRoEqSs1tHmTpfcsOD-Xlod7YoWCNbcq7eff47b8Qz21xXNzHazd6w_HbHrE6IaMc1WGiUoAsY4tAiJsQV4LXsQ6TTPFHXebFGIU_cNCfu5RZw7vYLyCwIWCYRZrnISQm4XTAzxISmabVEe19NCjeWN7VacfJRRGZ9w8xJozEm_WZPUQkMsAuAgRU6HdCEEW9v2Qu5z_u3YuigamNzR2qxiKJ7CyWlRTl_IP2UT9yN1eYXUC_4iYaGOurratBwUa6i6rdRKTQSxrcMbwHSj5GiNXbtDSYHl9Ky0EFWpyqc1SIYlBsp2RxuN3iF09pF3cZ8mo50Kiw4fkEXq-PO9VG3zaFuS3-PxO1Z5QQQ1j4eBKhlPJgeijpk5Arej5oCukhVQhxQ4VZoP_NL1ax1XYqN1E_ns34-eJU9VMN4aGPBbJJaNkJ_Tl71hbQ2fgerop4il5xcLplJuPrfomL7tsgr_q8wGEKTlhfq3FVZuNTwqYelcm_e7]--></g></svg>