<?xml version="1.0" encoding="UTF-8" standalone="no"?><svg xmlns="http://www.w3.org/2000/svg" xmlns:xlink="http://www.w3.org/1999/xlink" contentStyleType="text/css" height="1074px" preserveAspectRatio="none" style="width:691px;height:1074px;" version="1.1" viewBox="0 0 691 1074" width="691px" zoomAndPan="magnify"><defs/><g><rect fill="none" height="1072.2813" style="stroke:#0A9EFD;stroke-width:1.0;" width="689.5" x="0" y="0"/><rect fill="#F3F3F3" height="1062.2813" style="stroke:#0A9EFD;stroke-width:0.5;" width="87" x="137" y="6"/><text fill="#000000" font-family="sans-serif" font-size="13" font-weight="bold" lengthAdjust="spacing" textLength="57" x="152" y="19.4951">Your app</text><rect fill="#F3F3F3" height="1062.2813" style="stroke:#0A9EFD;stroke-width:0.5;" width="70" x="609.5" y="6"/><text fill="#000000" font-family="sans-serif" font-size="13" font-weight="bold" lengthAdjust="spacing" textLength="38" x="625.5" y="19.4951">Agora</text><rect fill="#FFFFFF" height="300.0938" style="stroke:#0A9EFD;stroke-width:2.0;" width="550.5" x="10" y="104.6094"/><rect fill="#FFFFFF" height="176.6563" style="stroke:#0A9EFD;stroke-width:2.0;" width="675.5" x="10" y="418.7031"/><rect fill="#FFFFFF" height="145.0469" style="stroke:#0A9EFD;stroke-width:2.0;" width="675.5" x="10" y="609.3594"/><rect fill="#FFFFFF" height="82.8281" style="stroke:#0A9EFD;stroke-width:2.0;" width="675.5" x="10" y="768.4063"/><rect fill="#FFFFFF" height="100.4375" style="stroke:#0A9EFD;stroke-width:2.0;" width="675.5" x="10" y="865.2344"/><line style="stroke:#0A9EFD;stroke-width:0.5;stroke-dasharray:5.0,5.0;" x1="39" x2="39" y1="87.6094" y2="982.6719"/><line style="stroke:#0A9EFD;stroke-width:0.5;stroke-dasharray:5.0,5.0;" x1="180" x2="180" y1="87.6094" y2="982.6719"/><line style="stroke:#0A9EFD;stroke-width:0.5;stroke-dasharray:5.0,5.0;" x1="644.5" x2="644.5" y1="87.6094" y2="982.6719"/><text fill="#0A9EFD" font-family="Roboto" font-size="14" font-weight="bold" lengthAdjust="spacing" textLength="33" x="20" y="84.5332">User</text><ellipse cx="39.5" cy="16" fill="none" rx="8" ry="8" style="stroke:#0A9EFD;stroke-width:3.0;"/><path d="M39.5,24 L39.5,51 M26.5,32 L52.5,32 M39.5,51 L26.5,66 M39.5,51 L52.5,66 " fill="none" style="stroke:#0A9EFD;stroke-width:3.0;"/><text fill="#0A9EFD" font-family="Roboto" font-size="14" font-weight="bold" lengthAdjust="spacing" textLength="33" x="20" y="996.2051">User</text><ellipse cx="39.5" cy="1010.2813" fill="none" rx="8" ry="8" style="stroke:#0A9EFD;stroke-width:3.0;"/><path d="M39.5,1018.2813 L39.5,1045.2813 M26.5,1026.2813 L52.5,1026.2813 M39.5,1045.2813 L26.5,1060.2813 M39.5,1045.2813 L52.5,1060.2813 " fill="none" style="stroke:#0A9EFD;stroke-width:3.0;"/><rect fill="#FFFFFF" height="31.6094" rx="2.5" ry="2.5" style="stroke:#0A9EFD;stroke-width:2.0;" width="79" x="141" y="55"/><text fill="#0A9EFD" font-family="Roboto" font-size="14" font-weight="bold" lengthAdjust="spacing" textLength="65" x="148" y="76.5332">Chat SDK</text><rect fill="#FFFFFF" height="31.6094" rx="2.5" ry="2.5" style="stroke:#0A9EFD;stroke-width:2.0;" width="79" x="141" y="981.6719"/><text fill="#0A9EFD" font-family="Roboto" font-size="14" font-weight="bold" lengthAdjust="spacing" textLength="65" x="148" y="1003.2051">Chat SDK</text><rect fill="#FFFFFF" height="49.2188" rx="2.5" ry="2.5" style="stroke:#0A9EFD;stroke-width:2.0;" width="62" x="613.5" y="37.3906"/><text fill="#0A9EFD" font-family="Roboto" font-size="14" font-weight="bold" lengthAdjust="spacing" textLength="32" x="626.5" y="58.9238">Chat</text><text fill="#0A9EFD" font-family="Roboto" font-size="14" font-weight="bold" lengthAdjust="spacing" textLength="48" x="620.5" y="76.5332">Server</text><rect fill="#FFFFFF" height="49.2188" rx="2.5" ry="2.5" style="stroke:#0A9EFD;stroke-width:2.0;" width="62" x="613.5" y="981.6719"/><text fill="#0A9EFD" font-family="Roboto" font-size="14" font-weight="bold" lengthAdjust="spacing" textLength="32" x="626.5" y="1003.2051">Chat</text><text fill="#0A9EFD" font-family="Roboto" font-size="14" font-weight="bold" lengthAdjust="spacing" textLength="48" x="620.5" y="1020.8145">Server</text><path d="M10,104.6094 L113,104.6094 L113,114.2188 L103,124.2188 L10,124.2188 L10,104.6094 " fill="#EEEEEE" style="stroke:#0A9EFD;stroke-width:1.5;"/><rect fill="none" height="300.0938" style="stroke:#0A9EFD;stroke-width:2.0;" width="550.5" x="10" y="104.6094"/><text fill="#0A9EFD" font-family="Roboto" font-size="14" font-weight="bold" lengthAdjust="spacing" textLength="58" x="25" y="120.1426">Initialize</text><polygon fill="#0A9EFD" points="168.5,143.8281,178.5,147.8281,168.5,151.8281,172.5,147.8281" style="stroke:#0A9EFD;stroke-width:1.0;"/><line style="stroke:#0A9EFD;stroke-width:2.0;" x1="39.5" x2="174.5" y1="147.8281" y2="147.8281"/><text fill="#0A9EFD" font-family="Roboto" font-size="14" font-weight="bold" lengthAdjust="spacing" textLength="68" x="76" y="142.752">Open app</text><line style="stroke:#0A9EFD;stroke-width:2.0;" x1="180.5" x2="222.5" y1="197.0469" y2="197.0469"/><line style="stroke:#0A9EFD;stroke-width:2.0;" x1="222.5" x2="222.5" y1="197.0469" y2="210.0469"/><line style="stroke:#0A9EFD;stroke-width:2.0;" x1="181.5" x2="222.5" y1="210.0469" y2="210.0469"/><polygon fill="#0A9EFD" points="191.5,206.0469,181.5,210.0469,191.5,214.0469,187.5,210.0469" style="stroke:#0A9EFD;stroke-width:1.0;"/><text fill="#0A9EFD" font-family="Roboto" font-size="14" font-weight="bold" lengthAdjust="spacing" textLength="178" x="243" y="174.3613">Get a ChatClient instance</text><text fill="#0A9EFD" font-family="Roboto" font-size="14" font-weight="bold" lengthAdjust="spacing" textLength="289" x="191.5" y="191.9707">agoraChatClient = ChatClient.getInstance</text><line style="stroke:#0A9EFD;stroke-width:2.0;" x1="180.5" x2="222.5" y1="259.2656" y2="259.2656"/><line style="stroke:#0A9EFD;stroke-width:2.0;" x1="222.5" x2="222.5" y1="259.2656" y2="272.2656"/><line style="stroke:#0A9EFD;stroke-width:2.0;" x1="181.5" x2="222.5" y1="272.2656" y2="272.2656"/><polygon fill="#0A9EFD" points="191.5,268.2656,181.5,272.2656,191.5,276.2656,187.5,272.2656" style="stroke:#0A9EFD;stroke-width:1.0;"/><text fill="#0A9EFD" font-family="Roboto" font-size="14" font-weight="bold" lengthAdjust="spacing" textLength="153" x="212" y="236.5801">Initialize the instance:</text><text fill="#0A9EFD" font-family="Roboto" font-size="14" font-weight="bold" lengthAdjust="spacing" textLength="202" x="191.5" y="254.1895">agoraChatClient.init(options)</text><line style="stroke:#0A9EFD;stroke-width:2.0;" x1="180.5" x2="222.5" y1="321.4844" y2="321.4844"/><line style="stroke:#0A9EFD;stroke-width:2.0;" x1="222.5" x2="222.5" y1="321.4844" y2="334.4844"/><line style="stroke:#0A9EFD;stroke-width:2.0;" x1="181.5" x2="222.5" y1="334.4844" y2="334.4844"/><polygon fill="#0A9EFD" points="191.5,330.4844,181.5,334.4844,191.5,338.4844,187.5,334.4844" style="stroke:#0A9EFD;stroke-width:1.0;"/><text fill="#0A9EFD" font-family="Roboto" font-size="14" font-weight="bold" lengthAdjust="spacing" textLength="212" x="260" y="298.7988">Add message event callbacks:</text><text fill="#0A9EFD" font-family="Roboto" font-size="14" font-weight="bold" lengthAdjust="spacing" textLength="357" x="191.5" y="316.4082">agoraChatClient.chatManager.addEventHandler(...)</text><line style="stroke:#0A9EFD;stroke-width:2.0;" x1="180.5" x2="222.5" y1="383.7031" y2="383.7031"/><line style="stroke:#0A9EFD;stroke-width:2.0;" x1="222.5" x2="222.5" y1="383.7031" y2="396.7031"/><line style="stroke:#0A9EFD;stroke-width:2.0;" x1="181.5" x2="222.5" y1="396.7031" y2="396.7031"/><polygon fill="#0A9EFD" points="191.5,392.7031,181.5,396.7031,191.5,400.7031,187.5,396.7031" style="stroke:#0A9EFD;stroke-width:1.0;"/><text fill="#0A9EFD" font-family="Roboto" font-size="14" font-weight="bold" lengthAdjust="spacing" textLength="228" x="244.5" y="361.0176">Add connection event callbacks:</text><text fill="#0A9EFD" font-family="Roboto" font-size="14" font-weight="bold" lengthAdjust="spacing" textLength="342" x="191.5" y="378.627">agoraChatClient.addConnectionEventHandler(...)</text><path d="M10,418.7031 L98,418.7031 L98,428.3125 L88,438.3125 L10,438.3125 L10,418.7031 " fill="#EEEEEE" style="stroke:#0A9EFD;stroke-width:1.5;"/><rect fill="none" height="176.6563" style="stroke:#0A9EFD;stroke-width:2.0;" width="675.5" x="10" y="418.7031"/><text fill="#0A9EFD" font-family="Roboto" font-size="14" font-weight="bold" lengthAdjust="spacing" textLength="43" x="25" y="434.2363">Log in</text><polygon fill="#0A9EFD" points="168.5,457.9219,178.5,461.9219,168.5,465.9219,172.5,461.9219" style="stroke:#0A9EFD;stroke-width:1.0;"/><line style="stroke:#0A9EFD;stroke-width:2.0;" x1="39.5" x2="174.5" y1="461.9219" y2="461.9219"/><text fill="#0A9EFD" font-family="Roboto" font-size="14" font-weight="bold" lengthAdjust="spacing" textLength="76" x="72" y="456.8457">Join a chat</text><line style="stroke:#0A9EFD;stroke-width:2.0;" x1="180.5" x2="222.5" y1="493.5313" y2="493.5313"/><line style="stroke:#0A9EFD;stroke-width:2.0;" x1="222.5" x2="222.5" y1="493.5313" y2="506.5313"/><line style="stroke:#0A9EFD;stroke-width:2.0;" x1="181.5" x2="222.5" y1="506.5313" y2="506.5313"/><polygon fill="#0A9EFD" points="191.5,502.5313,181.5,506.5313,191.5,510.5313,187.5,506.5313" style="stroke:#0A9EFD;stroke-width:1.0;"/><text fill="#0A9EFD" font-family="Roboto" font-size="14" font-weight="bold" lengthAdjust="spacing" textLength="297" x="187.5" y="488.4551">Retrieve authentication token for the user</text><polygon fill="#0A9EFD" points="632.5,551.75,642.5,555.75,632.5,559.75,636.5,555.75" style="stroke:#0A9EFD;stroke-width:1.0;"/><line style="stroke:#0A9EFD;stroke-width:2.0;" x1="180.5" x2="638.5" y1="555.75" y2="555.75"/><text fill="#0A9EFD" font-family="Roboto" font-size="14" font-weight="bold" lengthAdjust="spacing" textLength="177" x="324" y="533.0645">Log in to the chat server:</text><text fill="#0A9EFD" font-family="Roboto" font-size="14" font-weight="bold" lengthAdjust="spacing" textLength="370" x="229.5" y="550.6738">agoraChatClient.loginWithAgoraToken(userId, token)</text><polygon fill="#0A9EFD" points="191.5,583.3594,181.5,587.3594,191.5,591.3594,187.5,587.3594" style="stroke:#0A9EFD;stroke-width:1.0;"/><line style="stroke:#0A9EFD;stroke-width:2.0;" x1="185.5" x2="643.5" y1="587.3594" y2="587.3594"/><text fill="#0A9EFD" font-family="Roboto" font-size="14" font-weight="bold" lengthAdjust="spacing" textLength="166" x="329.5" y="582.2832">onConnected() callback</text><path d="M10,609.3594 L166,609.3594 L166,618.9688 L156,628.9688 L10,628.9688 L10,609.3594 " fill="#EEEEEE" style="stroke:#0A9EFD;stroke-width:1.5;"/><rect fill="none" height="145.0469" style="stroke:#0A9EFD;stroke-width:2.0;" width="675.5" x="10" y="609.3594"/><text fill="#0A9EFD" font-family="Roboto" font-size="14" font-weight="bold" lengthAdjust="spacing" textLength="111" x="25" y="624.8926">Send messages</text><polygon fill="#0A9EFD" points="168.5,648.5781,178.5,652.5781,168.5,656.5781,172.5,652.5781" style="stroke:#0A9EFD;stroke-width:1.0;"/><line style="stroke:#0A9EFD;stroke-width:2.0;" x1="39.5" x2="174.5" y1="652.5781" y2="652.5781"/><text fill="#0A9EFD" font-family="Roboto" font-size="14" font-weight="bold" lengthAdjust="spacing" textLength="115" x="52.5" y="647.502">Send a message</text><line style="stroke:#0A9EFD;stroke-width:2.0;" x1="180.5" x2="222.5" y1="684.1875" y2="684.1875"/><line style="stroke:#0A9EFD;stroke-width:2.0;" x1="222.5" x2="222.5" y1="684.1875" y2="697.1875"/><line style="stroke:#0A9EFD;stroke-width:2.0;" x1="181.5" x2="222.5" y1="697.1875" y2="697.1875"/><polygon fill="#0A9EFD" points="191.5,693.1875,181.5,697.1875,191.5,701.1875,187.5,697.1875" style="stroke:#0A9EFD;stroke-width:1.0;"/><text fill="#0A9EFD" font-family="Roboto" font-size="14" font-weight="bold" lengthAdjust="spacing" textLength="159" x="187.5" y="679.1113">Create a ChatMessage</text><polygon fill="#0A9EFD" points="632.5,742.4063,642.5,746.4063,632.5,750.4063,636.5,746.4063" style="stroke:#0A9EFD;stroke-width:1.0;"/><line style="stroke:#0A9EFD;stroke-width:2.0;" x1="180.5" x2="638.5" y1="746.4063" y2="746.4063"/><text fill="#0A9EFD" font-family="Roboto" font-size="14" font-weight="bold" lengthAdjust="spacing" textLength="167" x="327" y="723.7207">Send the ChatMessage:</text><text fill="#0A9EFD" font-family="Roboto" font-size="14" font-weight="bold" lengthAdjust="spacing" textLength="385" x="222" y="741.3301">agoraChatClient.chatManager.sendMessage(message)</text><path d="M10,768.4063 L188,768.4063 L188,778.0156 L178,788.0156 L10,788.0156 L10,768.4063 " fill="#EEEEEE" style="stroke:#0A9EFD;stroke-width:1.5;"/><rect fill="none" height="82.8281" style="stroke:#0A9EFD;stroke-width:2.0;" width="675.5" x="10" y="768.4063"/><text fill="#0A9EFD" font-family="Roboto" font-size="14" font-weight="bold" lengthAdjust="spacing" textLength="133" x="25" y="783.9395">Receive messages</text><polygon fill="#0A9EFD" points="191.5,807.625,181.5,811.625,191.5,815.625,187.5,811.625" style="stroke:#0A9EFD;stroke-width:1.0;"/><line style="stroke:#0A9EFD;stroke-width:2.0;" x1="185.5" x2="643.5" y1="811.625" y2="811.625"/><text fill="#0A9EFD" font-family="Roboto" font-size="14" font-weight="bold" lengthAdjust="spacing" textLength="440" x="192.5" y="806.5488">onMessagesReceived(List&lt;ChatMessage&gt; messages) callback</text><polygon fill="#0A9EFD" points="50.5,839.2344,40.5,843.2344,50.5,847.2344,46.5,843.2344" style="stroke:#0A9EFD;stroke-width:1.0;"/><line style="stroke:#0A9EFD;stroke-width:2.0;" x1="44.5" x2="179.5" y1="843.2344" y2="843.2344"/><text fill="#0A9EFD" font-family="Roboto" font-size="14" font-weight="bold" lengthAdjust="spacing" textLength="117" x="51.5" y="838.1582">Display message</text><path d="M10,865.2344 L95,865.2344 L95,874.8438 L85,884.8438 L10,884.8438 L10,865.2344 " fill="#EEEEEE" style="stroke:#0A9EFD;stroke-width:1.5;"/><rect fill="none" height="100.4375" style="stroke:#0A9EFD;stroke-width:2.0;" width="675.5" x="10" y="865.2344"/><text fill="#0A9EFD" font-family="Roboto" font-size="14" font-weight="bold" lengthAdjust="spacing" textLength="40" x="25" y="880.7676">Close</text><polygon fill="#0A9EFD" points="168.5,904.4531,178.5,908.4531,168.5,912.4531,172.5,908.4531" style="stroke:#0A9EFD;stroke-width:1.0;"/><line style="stroke:#0A9EFD;stroke-width:2.0;" x1="39.5" x2="174.5" y1="908.4531" y2="908.4531"/><text fill="#0A9EFD" font-family="Roboto" font-size="14" font-weight="bold" lengthAdjust="spacing" textLength="104" x="58" y="903.377">Leave the chat</text><polygon fill="#0A9EFD" points="632.5,953.6719,642.5,957.6719,632.5,961.6719,636.5,957.6719" style="stroke:#0A9EFD;stroke-width:1.0;"/><line style="stroke:#0A9EFD;stroke-width:2.0;" x1="180.5" x2="638.5" y1="957.6719" y2="957.6719"/><text fill="#0A9EFD" font-family="Roboto" font-size="14" font-weight="bold" lengthAdjust="spacing" textLength="57" x="382" y="934.9863">Log out:</text><text fill="#0A9EFD" font-family="Roboto" font-size="14" font-weight="bold" lengthAdjust="spacing" textLength="184" x="324.5" y="952.5957">agoraChatClient.logout(...)</text><!--SRC=[ZLDVQzim47_tfxZvoONL7y1qXU2MpLlAGh8o1eDnbMwEY2ePIGxRFlrEZkhOYw5xIwBVtxlB6sM4xYK1jjRX3tzGfbJziyuo5C4wo1yzkHpGm-DkcsLFzXVatspl0BikppfqGGdLeGcGrtiCiBlxDA1Ncqr6HW8J4ciL3POetysEt36vh3RDcTSwstVG61KKQlM7Ciu0rxTHl8BF7PcO8kDluu_lAG12bAsr8hPGnWSqWjZbL77ozcu2B5iAJSBE5C_k4FOqwbKBWgLYR66xeApnLpELbPJmJDvZIq37Q2vGwoSK1x-e9FZZ0ng6knAbl8-K3sYa9bUKPNafBgmn9ABpV-cpPZqoBjLv0o_JNzkMIyyc_z4gLeIOSPPZIy4fTWViULI6run3e60FlAgVV4rnWZqVr9dMLCc1KSDpL0K_74Ir45pRLfclAko7S_eIbOkesCYt9vyuccQCP4sgIRAu6cSoxRUBrvPMusSrXnTyUPirhHrXe7Hf3_y2ciIDTIQ0LnVjcPImHNAThM9BWXIFTqmR7M-kJuxM9AfFC5cibGytam2t8tCoYfIQYrTmftodyVTOUU9TQ-ld_xyruP76bLrirFPXABoqGNuxtzbV]--></g></svg>