<?xml version="1.0" encoding="us-ascii" standalone="no"?><svg xmlns="http://www.w3.org/2000/svg" xmlns:xlink="http://www.w3.org/1999/xlink" contentStyleType="text/css" height="465px" preserveAspectRatio="none" style="width:820px;height:465px;" version="1.1" viewBox="0 0 820 465" width="820px" zoomAndPan="magnify"><defs/><g><rect fill="none" height="463.6333" style="stroke:#0A9EFD;stroke-width:1.0;" width="818.5" x="0" y="0"/><line style="stroke:#0A9EFD;stroke-width:0.5;stroke-dasharray:5.0,5.0;" x1="23" x2="23" y1="86.0986" y2="382.5347"/><line style="stroke:#0A9EFD;stroke-width:0.5;stroke-dasharray:5.0,5.0;" x1="267.5" x2="267.5" y1="86.0986" y2="382.5347"/><line style="stroke:#0A9EFD;stroke-width:0.5;stroke-dasharray:5.0,5.0;" x1="602.5" x2="602.5" y1="86.0986" y2="382.5347"/><line style="stroke:#0A9EFD;stroke-width:0.5;stroke-dasharray:5.0,5.0;" x1="748.5" x2="748.5" y1="86.0986" y2="382.5347"/><text fill="#0A9EFD" font-family="Arial" font-size="14" lengthAdjust="spacing" textLength="30" x="5" y="83.1318">User</text><ellipse cx="23" cy="16" fill="none" rx="8" ry="8" style="stroke:#0A9EFD;stroke-width:3.0;"/><path d="M23,24 L23,51 M10,32 L36,32 M23,51 L10,66 M23,51 L36,66 " fill="none" style="stroke:#0A9EFD;stroke-width:3.0;"/><text fill="#0A9EFD" font-family="Arial" font-size="14" lengthAdjust="spacing" textLength="30" x="5" y="394.6665">User</text><ellipse cx="23" cy="408.6333" fill="none" rx="8" ry="8" style="stroke:#0A9EFD;stroke-width:3.0;"/><path d="M23,416.6333 L23,443.6333 M10,424.6333 L36,424.6333 M23,443.6333 L10,458.6333 M23,443.6333 L36,458.6333 " fill="none" style="stroke:#0A9EFD;stroke-width:3.0;"/><rect fill="none" height="30.0986" rx="2.5" ry="2.5" style="stroke:#0A9EFD;stroke-width:2.0;" width="119" x="208.5" y="55"/><text fill="#0A9EFD" font-family="Arial" font-size="14" lengthAdjust="spacing" textLength="105" x="215.5" y="75.1318">Your App Server</text><rect fill="none" height="30.0986" rx="2.5" ry="2.5" style="stroke:#0A9EFD;stroke-width:2.0;" width="119" x="208.5" y="381.5347"/><text fill="#0A9EFD" font-family="Arial" font-size="14" lengthAdjust="spacing" textLength="105" x="215.5" y="401.6665">Your App Server</text><rect fill="none" height="46.1973" rx="2.5" ry="2.5" style="stroke:#0A9EFD;stroke-width:2.0;" width="139" x="533.5" y="38.9014"/><text fill="#0A9EFD" font-family="Arial" font-size="14" lengthAdjust="spacing" textLength="77" x="564.5" y="59.0332">Agora Tools</text><text fill="#0A9EFD" font-family="Arial" font-size="14" lengthAdjust="spacing" textLength="125" x="540.5" y="75.1318">(in your app server)</text><rect fill="none" height="46.1973" rx="2.5" ry="2.5" style="stroke:#0A9EFD;stroke-width:2.0;" width="139" x="533.5" y="381.5347"/><text fill="#0A9EFD" font-family="Arial" font-size="14" lengthAdjust="spacing" textLength="77" x="564.5" y="401.6665">Agora Tools</text><text fill="#0A9EFD" font-family="Arial" font-size="14" lengthAdjust="spacing" textLength="125" x="540.5" y="417.7651">(in your app server)</text><rect fill="none" height="30.0986" rx="2.5" ry="2.5" style="stroke:#0A9EFD;stroke-width:2.0;" width="132" x="682.5" y="55"/><text fill="#0A9EFD" font-family="Arial" font-size="14" lengthAdjust="spacing" textLength="118" x="689.5" y="75.1318">Agora Chat Server</text><rect fill="none" height="30.0986" rx="2.5" ry="2.5" style="stroke:#0A9EFD;stroke-width:2.0;" width="132" x="682.5" y="381.5347"/><text fill="#0A9EFD" font-family="Arial" font-size="14" lengthAdjust="spacing" textLength="118" x="689.5" y="401.6665">Agora Chat Server</text><polygon fill="#0A9EFD" points="591,127.9961,601,131.9961,591,135.9961,595,131.9961" style="stroke:#0A9EFD;stroke-width:1.0;"/><line style="stroke:#0A9EFD;stroke-width:2.0;" x1="268" x2="597" y1="131.9961" y2="131.9961"/><text fill="#0A9EFD" font-family="Arial" font-size="13" lengthAdjust="spacing" textLength="115" x="376" y="112.2925">1. Generate a token</text><text fill="#0A9EFD" font-family="Arial" font-size="13" lengthAdjust="spacing" textLength="182" x="344.5" y="127.2412">with app privileges and cache it</text><polygon fill="#0A9EFD" points="279,171.8936,269,175.8936,279,179.8936,275,175.8936" style="stroke:#0A9EFD;stroke-width:1.0;"/><line style="stroke:#0A9EFD;stroke-width:2.0;" x1="273" x2="602" y1="175.8936" y2="175.8936"/><text fill="#0A9EFD" font-family="Arial" font-size="13" lengthAdjust="spacing" textLength="85" x="391" y="156.1899">Return a token</text><text fill="#0A9EFD" font-family="Arial" font-size="13" lengthAdjust="spacing" textLength="107" x="382" y="171.1387">with app privileges</text><polygon fill="#0A9EFD" points="256,200.8423,266,204.8423,256,208.8423,260,204.8423" style="stroke:#0A9EFD;stroke-width:1.0;"/><line style="stroke:#0A9EFD;stroke-width:2.0;" x1="23" x2="262" y1="204.8423" y2="204.8423"/><text fill="#0A9EFD" font-family="Arial" font-size="13" lengthAdjust="spacing" textLength="221" x="35" y="200.0874">2. Request a token with user priviliges</text><polygon fill="#0A9EFD" points="736.5,244.7397,746.5,248.7397,736.5,252.7397,740.5,248.7397" style="stroke:#0A9EFD;stroke-width:1.0;"/><line style="stroke:#0A9EFD;stroke-width:2.0;" x1="268" x2="742.5" y1="248.7397" y2="248.7397"/><text fill="#0A9EFD" font-family="Arial" font-size="13" lengthAdjust="spacing" textLength="186" x="415.25" y="229.0361">Get the token with app priviliges</text><text fill="#0A9EFD" font-family="Arial" font-size="13" lengthAdjust="spacing" textLength="246" x="387.25" y="243.9849">from cache and create an Agora Chat user</text><polygon fill="#0A9EFD" points="279,273.6885,269,277.6885,279,281.6885,275,277.6885" style="stroke:#0A9EFD;stroke-width:1.0;"/><line style="stroke:#0A9EFD;stroke-width:2.0;stroke-dasharray:2.0,2.0;" x1="273" x2="747.5" y1="277.6885" y2="277.6885"/><text fill="#0A9EFD" font-family="Arial" font-size="13" lengthAdjust="spacing" textLength="230" x="393.25" y="272.9336">Return the UUID of the Agora Chat user</text><polygon fill="#0A9EFD" points="591,302.6372,601,306.6372,591,310.6372,595,306.6372" style="stroke:#0A9EFD;stroke-width:1.0;"/><line style="stroke:#0A9EFD;stroke-width:2.0;" x1="268" x2="597" y1="306.6372" y2="306.6372"/><text fill="#0A9EFD" font-family="Arial" font-size="13" lengthAdjust="spacing" textLength="311" x="280" y="301.8823">Use the UUID to generate a token with user privileges</text><polygon fill="#0A9EFD" points="279,331.5859,269,335.5859,279,339.5859,275,335.5859" style="stroke:#0A9EFD;stroke-width:1.0;"/><line style="stroke:#0A9EFD;stroke-width:2.0;stroke-dasharray:2.0,2.0;" x1="273" x2="602" y1="335.5859" y2="335.5859"/><text fill="#0A9EFD" font-family="Arial" font-size="13" lengthAdjust="spacing" textLength="200" x="335.5" y="330.8311">Return a token with user privileges</text><polygon fill="#0A9EFD" points="34,360.5347,24,364.5347,34,368.5347,30,364.5347" style="stroke:#0A9EFD;stroke-width:1.0;"/><line style="stroke:#0A9EFD;stroke-width:2.0;" x1="28" x2="267" y1="364.5347" y2="364.5347"/><text fill="#0A9EFD" font-family="Arial" font-size="13" lengthAdjust="spacing" textLength="200" x="45.5" y="359.7798">Return a token with user privileges</text><!--SRC=[VP71QiCm44Jl-efjJkt13kqnX899eIqK4kBuK0WKOMyS4MVbIkkK_dqbLKrSOtBJOTxCxEX6KTbq5KAQJa-gGftOwZ2LjJRomnuKfQexDaB8ahM1IM7HJ41QAFArQALXLQfM4iFaNNS6ihQ57CqfYhBLwhyeyxQmqRgnMxfL1D-UaewoWReBs6QvVCl7mCLUSjz_yP9jX10k1fB7Nsm6zoay8w6HZ221zG49jlIbU1-2MgDEgi4QBKYge9Jb7a6n2BItSMupM2DtXgxpmcrm1XvIntnsQFaC1QHpXqL6UIPszSrdhYS3k_YU_XBXvLk2dT77s3BqDHWE8-XDuaE2ypn9edKymBiNnUiJw5ruZq6NwTplNWZMK0zt79w4VoVvu6Woc6uKySlDaz6fH_K_]--></g></svg>