<svg width="1001" height="574" xmlns="http://www.w3.org/2000/svg" xmlns:xlink="http://www.w3.org/1999/xlink" overflow="hidden"><defs><clipPath id="clip0"><path d="M161 106 1162 106 1162 680 161 680Z" fill-rule="evenodd" clip-rule="evenodd"/></clipPath></defs><g clip-path="url(#clip0)" transform="translate(-161 -106)"><rect x="162" y="106" width="999" height="573" fill="#0C0F14"/><rect x="240.5" y="160.5" width="444" height="230" stroke="#2F528F" stroke-width="1.33333" stroke-miterlimit="8" fill="#4472C4"/><text fill="#FFFFFF" font-family="Calibri,Calibri_MSFontService,sans-serif" font-weight="400" font-size="24" transform="translate(404.74 254)">Sub<tspan x="36.3333" y="0">-</tspan><tspan x="43.6667" y="0">video 1</tspan><tspan x="-3.33334" y="29">userId</tspan><tspan x="57.6667" y="29">: 1234</tspan><tspan x="10.3333" y="58">640 x 360</tspan></text><rect x="240" y="160" width="889" height="461" stroke="#2F528F" stroke-width="2" stroke-miterlimit="8" fill="none"/><rect x="740.5" y="333.5" width="375" height="195" stroke="#2F528F" stroke-width="1.33333" stroke-miterlimit="8" fill="#4472C4"/><text fill="#FFFFFF" font-family="Calibri,Calibri_MSFontService,sans-serif" font-weight="400" font-size="24" transform="translate(869.86 409)">Sub<tspan x="36.3334" y="0">-</tspan><tspan x="43.6667" y="0">video 2</tspan><tspan x="-3.33331" y="29">userId</tspan><tspan x="57.6667" y="29">: 5678</tspan><tspan x="10.3334" y="58">540 x 320</tspan><tspan font-size="21" x="-61.619" y="-137">The vertical offset of </tspan><tspan font-size="21" x="-58.5189" y="-111">Sub</tspan><tspan font-size="21" x="-26.3523" y="-111">-</tspan><tspan font-size="21" x="-19.8523" y="-111">video 2 relative </tspan><tspan font-size="21" x="-57.6656" y="-86">to the canvas is 270</tspan><tspan font-size="21" x="-342.368" y="43">The horizontal offset of </tspan><tspan font-size="21" x="-369.501" y="69">Sub</tspan><tspan font-size="21" x="-337.334" y="69">-</tspan><tspan font-size="21" x="-330.834" y="69">video 2 relative to the </tspan><tspan font-size="21" x="-253.881" y="94">canvas is 720</tspan><tspan font-size="21" x="-250.89" y="243">Canvas width: 1280</tspan></text><text fill="#FFFFFF" font-family="Calibri,Calibri_MSFontService,sans-serif" font-weight="400" font-size="21" transform="matrix(-1.83697e-16 -1 1 -1.83697e-16 220.321 479)">Canvas height: 720</text><path d="M240.5 333.5 1129.09 333.5" stroke="#FFFFFF" stroke-width="1.33333" stroke-miterlimit="8" stroke-dasharray="5.33333 4" fill="none" fill-rule="evenodd"/><path d="M740.5 160.5 740.5 621.139" stroke="#FFFFFF" stroke-width="1.33333" stroke-miterlimit="8" stroke-dasharray="5.33333 4" fill="none" fill-rule="evenodd"/></g></svg>