<?xml version="1.0" encoding="us-ascii" standalone="no"?><svg xmlns="http://www.w3.org/2000/svg" xmlns:xlink="http://www.w3.org/1999/xlink" contentStyleType="text/css" height="1089px" preserveAspectRatio="none" style="width:478px;height:1089px;" version="1.1" viewBox="0 0 478 1089" width="478px" zoomAndPan="magnify"><defs/><g><rect fill="none" height="1087.5566" style="stroke:#0A9EFD;stroke-width:1.0;" width="476.5" x="0" y="0"/><rect fill="#999999" fill-opacity="0.33333" height="1077.5566" style="stroke:#0A9EFD;stroke-width:0.5;" width="119" x="87.5" y="6"/><text fill="#0A9EFD" font-family="sans-serif" font-size="13" font-weight="bold" lengthAdjust="spacing" textLength="62" x="116" y="18.5684">Your app</text><rect fill="#999999" fill-opacity="0.33333" height="1077.5566" style="stroke:#0A9EFD;stroke-width:0.5;" width="75" x="391.5" y="6"/><text fill="#0A9EFD" font-family="sans-serif" font-size="13" font-weight="bold" lengthAdjust="spacing" textLength="41" x="408.5" y="18.5684">Agora</text><rect fill="#0A9EFD" fill-opacity="0.06667" height="192.5386" style="stroke:#0A9EFD;stroke-width:2.0;" width="391" x="81.5" y="283.791"/><rect fill="#0A9EFD" fill-opacity="0.06667" height="187.6411" style="stroke:#0A9EFD;stroke-width:2.0;" width="297.5" x="81.5" y="519.2783"/><rect fill="#0A9EFD" fill-opacity="0.06667" height="73.8462" style="stroke:#0A9EFD;stroke-width:2.0;" width="237.5" x="81.5" y="720.9194"/><rect fill="#0A9EFD" fill-opacity="0.06667" height="73.8462" style="stroke:#0A9EFD;stroke-width:2.0;" width="236.5" x="81.5" y="837.7144"/><line style="stroke:#0A9EFD;stroke-width:0.5;stroke-dasharray:5.0,5.0;" x1="38" x2="38" y1="86.0986" y2="999.458"/><line style="stroke:#0A9EFD;stroke-width:0.5;stroke-dasharray:5.0,5.0;" x1="146.5" x2="146.5" y1="86.0986" y2="999.458"/><line style="stroke:#0A9EFD;stroke-width:0.5;stroke-dasharray:5.0,5.0;" x1="428.5" x2="428.5" y1="86.0986" y2="999.458"/><text fill="#0A9EFD" font-family="Arial" font-size="14" lengthAdjust="spacing" textLength="30" x="20" y="83.1318">User</text><ellipse cx="38" cy="16" fill="none" rx="8" ry="8" style="stroke:#0A9EFD;stroke-width:3.0;"/><path d="M38,24 L38,51 M25,32 L51,32 M38,51 L25,66 M38,51 L51,66 " fill="none" style="stroke:#0A9EFD;stroke-width:3.0;"/><text fill="#0A9EFD" font-family="Arial" font-size="14" lengthAdjust="spacing" textLength="30" x="20" y="1011.5898">User</text><ellipse cx="38" cy="1025.5566" fill="none" rx="8" ry="8" style="stroke:#0A9EFD;stroke-width:3.0;"/><path d="M38,1033.5566 L38,1060.5566 M25,1041.5566 L51,1041.5566 M38,1060.5566 L25,1075.5566 M38,1060.5566 L51,1075.5566 " fill="none" style="stroke:#0A9EFD;stroke-width:3.0;"/><rect fill="none" height="30.0986" rx="2.5" ry="2.5" style="stroke:#0A9EFD;stroke-width:2.0;" width="111" x="91.5" y="55"/><text fill="#0A9EFD" font-family="Arial" font-size="14" lengthAdjust="spacing" textLength="97" x="98.5" y="75.1318">Recording SDK</text><rect fill="none" height="30.0986" rx="2.5" ry="2.5" style="stroke:#0A9EFD;stroke-width:2.0;" width="111" x="91.5" y="998.458"/><text fill="#0A9EFD" font-family="Arial" font-size="14" lengthAdjust="spacing" textLength="97" x="98.5" y="1018.5898">Recording SDK</text><rect fill="none" height="30.0986" rx="2.5" ry="2.5" style="stroke:#0A9EFD;stroke-width:2.0;" width="67" x="395.5" y="55"/><text fill="#0A9EFD" font-family="Arial" font-size="14" lengthAdjust="spacing" textLength="53" x="402.5" y="75.1318">SD-RTN</text><rect fill="none" height="30.0986" rx="2.5" ry="2.5" style="stroke:#0A9EFD;stroke-width:2.0;" width="67" x="395.5" y="998.458"/><text fill="#0A9EFD" font-family="Arial" font-size="14" lengthAdjust="spacing" textLength="53" x="402.5" y="1018.5898">SD-RTN</text><polygon fill="#0A9EFD" points="135,113.0474,145,117.0474,135,121.0474,139,117.0474" style="stroke:#0A9EFD;stroke-width:1.0;"/><line style="stroke:#0A9EFD;stroke-width:2.0;" x1="38" x2="141" y1="117.0474" y2="117.0474"/><text fill="#0A9EFD" font-family="Arial" font-size="13" lengthAdjust="spacing" textLength="58" x="63.5" y="112.2925">Open App</text><line style="stroke:#0A9EFD;stroke-width:2.0;" x1="147" x2="189" y1="145.9961" y2="145.9961"/><line style="stroke:#0A9EFD;stroke-width:2.0;" x1="189" x2="189" y1="145.9961" y2="158.9961"/><line style="stroke:#0A9EFD;stroke-width:2.0;" x1="148" x2="189" y1="158.9961" y2="158.9961"/><polygon fill="#0A9EFD" points="158,154.9961,148,158.9961,158,162.9961,154,158.9961" style="stroke:#0A9EFD;stroke-width:1.0;"/><text fill="#0A9EFD" font-family="Arial" font-size="13" lengthAdjust="spacing" textLength="176" x="154" y="141.2412">Create and initialize a recorder</text><line style="stroke:#0A9EFD;stroke-width:2.0;" x1="147" x2="189" y1="226.8423" y2="226.8423"/><line style="stroke:#0A9EFD;stroke-width:2.0;" x1="189" x2="189" y1="226.8423" y2="239.8423"/><line style="stroke:#0A9EFD;stroke-width:2.0;" x1="148" x2="189" y1="239.8423" y2="239.8423"/><polygon fill="#0A9EFD" points="158,235.8423,148,239.8423,158,243.8423,154,239.8423" style="stroke:#0A9EFD;stroke-width:1.0;"/><text fill="#0A9EFD" font-family="Arial" font-size="13" lengthAdjust="spacing" textLength="165" x="203.5" y="207.1387">initialize(agoraService, true):</text><text fill="#0A9EFD" font-family="Arial" font-size="13" lengthAdjust="spacing" textLength="264" x="158" y="222.0874">Set enableMix to true for composite recording</text><polygon fill="#0A9EFD" points="135,264.791,145,268.791,135,272.791,139,268.791" style="stroke:#0A9EFD;stroke-width:1.0;"/><line style="stroke:#0A9EFD;stroke-width:2.0;" x1="38" x2="141" y1="268.791" y2="268.791"/><text fill="#0A9EFD" font-family="Arial" font-size="13" lengthAdjust="spacing" textLength="84" x="50.5" y="264.0361">Join a channel</text><path d="M81.5,283.791 L210.5,283.791 L210.5,290.7397 L200.5,300.7397 L81.5,300.7397 L81.5,283.791 " fill="#EEEEEE" style="stroke:#0A9EFD;stroke-width:1.5;"/><rect fill="none" height="192.5386" style="stroke:#0A9EFD;stroke-width:2.0;" width="391" x="81.5" y="283.791"/><text fill="#000000" font-family="Arial" font-size="13" lengthAdjust="spacing" textLength="84" x="96.5" y="296.9849">Join a channel</text><polygon fill="#0A9EFD" points="417,332.6372,427,336.6372,417,340.6372,421,336.6372" style="stroke:#0A9EFD;stroke-width:1.0;"/><line style="stroke:#0A9EFD;stroke-width:2.0;" x1="147" x2="423" y1="336.6372" y2="336.6372"/><text fill="#0A9EFD" font-family="Arial" font-size="13" lengthAdjust="spacing" textLength="116" x="228" y="316.9336">subscribeAllAudio():</text><text fill="#0A9EFD" font-family="Arial" font-size="13" lengthAdjust="spacing" textLength="161" x="209.5" y="331.8823">Subscribe all audio streams</text><polygon fill="#0A9EFD" points="417,376.5347,427,380.5347,417,384.5347,421,380.5347" style="stroke:#0A9EFD;stroke-width:1.0;"/><line style="stroke:#0A9EFD;stroke-width:2.0;" x1="147" x2="423" y1="380.5347" y2="380.5347"/><text fill="#0A9EFD" font-family="Arial" font-size="13" lengthAdjust="spacing" textLength="116" x="228" y="360.8311">subscribeAllVideo():</text><text fill="#0A9EFD" font-family="Arial" font-size="13" lengthAdjust="spacing" textLength="161" x="209.5" y="375.7798">Subscribe all video streams</text><polygon fill="#0A9EFD" points="417,420.4321,427,424.4321,417,428.4321,421,424.4321" style="stroke:#0A9EFD;stroke-width:1.0;"/><line style="stroke:#0A9EFD;stroke-width:2.0;" x1="147" x2="423" y1="424.4321" y2="424.4321"/><text fill="#0A9EFD" font-family="Arial" font-size="13" lengthAdjust="spacing" textLength="79" x="246.5" y="404.7285">joinChannel():</text><text fill="#0A9EFD" font-family="Arial" font-size="13" lengthAdjust="spacing" textLength="84" x="248" y="419.6772">Join a channel</text><polygon fill="#0A9EFD" points="158,464.3296,148,468.3296,158,472.3296,154,468.3296" style="stroke:#0A9EFD;stroke-width:1.0;"/><line style="stroke:#0A9EFD;stroke-width:2.0;" x1="152" x2="428" y1="468.3296" y2="468.3296"/><text fill="#0A9EFD" font-family="Arial" font-size="13" lengthAdjust="spacing" textLength="83" x="244.5" y="448.626">onUserJoined:</text><text fill="#0A9EFD" font-family="Arial" font-size="13" lengthAdjust="spacing" textLength="86" x="247" y="463.5747">media streams</text><polygon fill="#0A9EFD" points="135,500.2783,145,504.2783,135,508.2783,139,504.2783" style="stroke:#0A9EFD;stroke-width:1.0;"/><line style="stroke:#0A9EFD;stroke-width:2.0;" x1="38" x2="141" y1="504.2783" y2="504.2783"/><text fill="#0A9EFD" font-family="Arial" font-size="13" lengthAdjust="spacing" textLength="85" x="50" y="499.5234">Start recording</text><path d="M81.5,519.2783 L342.5,519.2783 L342.5,526.2271 L332.5,536.2271 L81.5,536.2271 L81.5,519.2783 " fill="#EEEEEE" style="stroke:#0A9EFD;stroke-width:1.5;"/><rect fill="none" height="187.6411" style="stroke:#0A9EFD;stroke-width:2.0;" width="297.5" x="81.5" y="519.2783"/><text fill="#000000" font-family="Arial" font-size="13" lengthAdjust="spacing" textLength="216" x="96.5" y="532.4722">Set a watermark and recording layout</text><line style="stroke:#0A9EFD;stroke-width:2.0;" x1="147" x2="189" y1="572.1245" y2="572.1245"/><line style="stroke:#0A9EFD;stroke-width:2.0;" x1="189" x2="189" y1="572.1245" y2="585.1245"/><line style="stroke:#0A9EFD;stroke-width:2.0;" x1="148" x2="189" y1="585.1245" y2="585.1245"/><polygon fill="#0A9EFD" points="158,581.1245,148,585.1245,158,589.1245,154,585.1245" style="stroke:#0A9EFD;stroke-width:1.0;"/><text fill="#0A9EFD" font-family="Arial" font-size="13" lengthAdjust="spacing" textLength="119" x="155" y="552.4209">setRecorderConfig():</text><text fill="#0A9EFD" font-family="Arial" font-size="13" lengthAdjust="spacing" textLength="121" x="158" y="567.3696">Set recorder settings</text><line style="stroke:#0A9EFD;stroke-width:2.0;" x1="147" x2="189" y1="629.022" y2="629.022"/><line style="stroke:#0A9EFD;stroke-width:2.0;" x1="189" x2="189" y1="629.022" y2="642.022"/><line style="stroke:#0A9EFD;stroke-width:2.0;" x1="148" x2="189" y1="642.022" y2="642.022"/><polygon fill="#0A9EFD" points="158,638.022,148,642.022,158,646.022,154,642.022" style="stroke:#0A9EFD;stroke-width:1.0;"/><text fill="#0A9EFD" font-family="Arial" font-size="13" lengthAdjust="spacing" textLength="140" x="179" y="609.3184">setVideoMixingLayout():</text><text fill="#0A9EFD" font-family="Arial" font-size="13" lengthAdjust="spacing" textLength="190" x="158" y="624.2671">Set the video size and resolution</text><line style="stroke:#0A9EFD;stroke-width:2.0;" x1="147" x2="189" y1="685.9194" y2="685.9194"/><line style="stroke:#0A9EFD;stroke-width:2.0;" x1="189" x2="189" y1="685.9194" y2="698.9194"/><line style="stroke:#0A9EFD;stroke-width:2.0;" x1="148" x2="189" y1="698.9194" y2="698.9194"/><polygon fill="#0A9EFD" points="158,694.9194,148,698.9194,158,702.9194,154,698.9194" style="stroke:#0A9EFD;stroke-width:1.0;"/><text fill="#0A9EFD" font-family="Arial" font-size="13" lengthAdjust="spacing" textLength="209" x="154" y="666.2158">enableAndUpdateVideoWatermarks:</text><text fill="#0A9EFD" font-family="Arial" font-size="13" lengthAdjust="spacing" textLength="105" x="210" y="681.1646">Update watermark</text><path d="M81.5,720.9194 L211.5,720.9194 L211.5,727.8682 L201.5,737.8682 L81.5,737.8682 L81.5,720.9194 " fill="#EEEEEE" style="stroke:#0A9EFD;stroke-width:1.5;"/><rect fill="none" height="73.8462" style="stroke:#0A9EFD;stroke-width:2.0;" width="237.5" x="81.5" y="720.9194"/><text fill="#000000" font-family="Arial" font-size="13" lengthAdjust="spacing" textLength="85" x="96.5" y="734.1133">Start recording</text><line style="stroke:#0A9EFD;stroke-width:2.0;" x1="147" x2="189" y1="773.7656" y2="773.7656"/><line style="stroke:#0A9EFD;stroke-width:2.0;" x1="189" x2="189" y1="773.7656" y2="786.7656"/><line style="stroke:#0A9EFD;stroke-width:2.0;" x1="148" x2="189" y1="786.7656" y2="786.7656"/><polygon fill="#0A9EFD" points="158,782.7656,148,786.7656,158,790.7656,154,786.7656" style="stroke:#0A9EFD;stroke-width:1.0;"/><text fill="#0A9EFD" font-family="Arial" font-size="13" lengthAdjust="spacing" textLength="96" x="180.5" y="754.062">startRecording():</text><text fill="#0A9EFD" font-family="Arial" font-size="13" lengthAdjust="spacing" textLength="149" x="158" y="769.0107">Start composite recording</text><polygon fill="#0A9EFD" points="135,818.7144,145,822.7144,135,826.7144,139,822.7144" style="stroke:#0A9EFD;stroke-width:1.0;"/><line style="stroke:#0A9EFD;stroke-width:2.0;" x1="38" x2="141" y1="822.7144" y2="822.7144"/><text fill="#0A9EFD" font-family="Arial" font-size="13" lengthAdjust="spacing" textLength="85" x="50" y="817.9595">Start recording</text><path d="M81.5,837.7144 L210.5,837.7144 L210.5,844.6631 L200.5,854.6631 L81.5,854.6631 L81.5,837.7144 " fill="#EEEEEE" style="stroke:#0A9EFD;stroke-width:1.5;"/><rect fill="none" height="73.8462" style="stroke:#0A9EFD;stroke-width:2.0;" width="236.5" x="81.5" y="837.7144"/><text fill="#000000" font-family="Arial" font-size="13" lengthAdjust="spacing" textLength="84" x="96.5" y="850.9082">Stop recording</text><line style="stroke:#0A9EFD;stroke-width:2.0;" x1="147" x2="189" y1="890.5605" y2="890.5605"/><line style="stroke:#0A9EFD;stroke-width:2.0;" x1="189" x2="189" y1="890.5605" y2="903.5605"/><line style="stroke:#0A9EFD;stroke-width:2.0;" x1="148" x2="189" y1="903.5605" y2="903.5605"/><polygon fill="#0A9EFD" points="158,899.5605,148,903.5605,158,907.5605,154,903.5605" style="stroke:#0A9EFD;stroke-width:1.0;"/><text fill="#0A9EFD" font-family="Arial" font-size="13" lengthAdjust="spacing" textLength="95" x="180.5" y="870.8569">stopRecording():</text><text fill="#0A9EFD" font-family="Arial" font-size="13" lengthAdjust="spacing" textLength="148" x="158" y="885.8057">Stop composite recording</text><polygon fill="#0A9EFD" points="135,935.5093,145,939.5093,135,943.5093,139,939.5093" style="stroke:#0A9EFD;stroke-width:1.0;"/><line style="stroke:#0A9EFD;stroke-width:2.0;" x1="38" x2="141" y1="939.5093" y2="939.5093"/><text fill="#0A9EFD" font-family="Arial" font-size="13" lengthAdjust="spacing" textLength="60" x="62.5" y="934.7544">Close App</text><line style="stroke:#0A9EFD;stroke-width:2.0;" x1="147" x2="189" y1="968.458" y2="968.458"/><line style="stroke:#0A9EFD;stroke-width:2.0;" x1="189" x2="189" y1="968.458" y2="981.458"/><line style="stroke:#0A9EFD;stroke-width:2.0;" x1="148" x2="189" y1="981.458" y2="981.458"/><polygon fill="#0A9EFD" points="158,977.458,148,981.458,158,985.458,154,981.458" style="stroke:#0A9EFD;stroke-width:1.0;"/><text fill="#0A9EFD" font-family="Arial" font-size="13" lengthAdjust="spacing" textLength="112" x="154" y="963.7031">Clean up resources</text><!--SRC=[ZLDTRnCn47pthrZkAKYqFo0FIAUKXq21AaT0I4YLSzwcItrUon-byElPSowNNf9AVRJNCpixitv3hhNP8EWj1tqR7yXTKkwiKhfD7A1QHmmLw0ZhPgNKXf-W-iavWFQ-Kbw7H2rvxH9KAsmv679RQAu-5KXzSwFG6H3K0AtxBaUuvkfYzUtB05WU0D8GBjxt97Fuwj51xRsIqtYv2AYJA1S0EKgaBVsJ8uGY10CejGsSFNnmUcCHqZr2ovtdI08BezoE3Kw83sopOak3uP5QV0SfP7mxXryE6ao0XVOpFK7YKe8xSUnCXyae7vcSY6pljNDeznAFRaSropd4l8bje0tMrjRP4Cy62VjxqDQ2xYiGatZInHVntydWUVnZNpcB_otI5ZjT0_94x7ASZbs_CFq3DELjXuRqo2lXJeDjagp2CwS6EtfxDVoHU4EdmqF9-12OrNyvfqba4TDgY7t1xewsiqDEupx8eoJuU8mihaYEKhikrC_0_T8CtfJjAa8Ysvo8tOHejmwrCsjlH7WX_R6V81R2NUKmrywFOUGZ9oOQ-zhul_Rg2k3SkhtQvSJ-nOxiJnlAyrVrMrYEUFfVBMe7sHS3SsWngly0]--></g></svg>