<svg xmlns="http://www.w3.org/2000/svg" xmlns:xlink="http://www.w3.org/1999/xlink" contentStyleType="text/css" data-diagram-type="SEQUENCE" height="1090px" preserveAspectRatio="none" style="width:498px;height:1090px;" version="1.1" viewBox="0 0 498 1090" width="498px" zoomAndPan="magnify"><?plantuml 1.2026.4?><defs/><g><rect fill="none" height="1088.5566" style="stroke:#0A9EFD;stroke-width:1;" width="496.1135" x="0" y="0"/><rect fill="#999999" fill-opacity="0.33333" height="1077.5566" style="stroke:#0A9EFD;stroke-width:0.5;" width="118.4893" x="87.7964" y="6"/><text fill="#0A9EFD" font-family="sans-serif" font-size="13" font-weight="700" lengthAdjust="spacing" textLength="56.3354" x="118.8733" y="19.4951">Your app</text><rect fill="#999999" fill-opacity="0.33333" height="1077.5566" style="stroke:#0A9EFD;stroke-width:0.5;" width="78.3257" x="387.7878" y="6"/><text fill="#0A9EFD" font-family="sans-serif" font-size="13" font-weight="700" lengthAdjust="spacing" textLength="37.5591" x="408.1711" y="19.4951">Agora</text><rect fill="#0A9EFD" fill-opacity="0.06667" height="192.5386" style="stroke:#0A9EFD;stroke-width:2;" width="390.3171" x="81.7964" y="283.791"/><rect fill="#0A9EFD" fill-opacity="0.06667" height="187.6411" style="stroke:#0A9EFD;stroke-width:2;" width="298.8652" x="81.7964" y="519.2783"/><rect fill="#0A9EFD" fill-opacity="0.06667" height="73.8462" style="stroke:#0A9EFD;stroke-width:2;" width="235.979" x="81.7964" y="720.9194"/><rect fill="#0A9EFD" fill-opacity="0.06667" height="73.8462" style="stroke:#0A9EFD;stroke-width:2;" width="235.2681" x="81.7964" y="837.7144"/><g class="participant-lifeline" data-entity-uid="part1" data-qualified-name="USR" data-source-line="3" id="part1-lifeline"><g><title>User</title><rect fill="#000000" fill-opacity="0.00000" height="913.3594" width="8" x="33.7793" y="86.0986"/><line style="stroke:#0A9EFD;stroke-width:0.5;stroke-dasharray:5,5;" x1="37" x2="37" y1="86.0986" y2="999.458"/></g></g><g class="participant-lifeline" data-entity-uid="part2" data-qualified-name="APP" data-source-line="6" id="part2-lifeline"><g><title>Recording SDK</title><rect fill="#000000" fill-opacity="0.00000" height="913.3594" width="8" x="143.041" y="86.0986"/><line style="stroke:#0A9EFD;stroke-width:0.5;stroke-dasharray:5,5;" x1="146.7964" x2="146.7964" y1="86.0986" y2="999.458"/></g></g><g class="participant-lifeline" data-entity-uid="part3" data-qualified-name="API" data-source-line="10" id="part3-lifeline"><g><title>SDRTN.sup....sup.</title><rect fill="#000000" fill-opacity="0.00000" height="913.3594" width="8" x="422.9507" y="86.0986"/><line style="stroke:#0A9EFD;stroke-width:0.5;stroke-dasharray:5,5;" x1="426.7878" x2="426.7878" y1="86.0986" y2="999.458"/></g></g><g class="participant participant-head" data-entity-uid="part1" data-qualified-name="USR" data-source-line="3" id="part1-head"><text fill="#0A9EFD" font-family="Arial" font-size="14" lengthAdjust="spacing" textLength="29.5586" x="20" y="83.1318">User</text><ellipse cx="37.7793" cy="16" fill="none" rx="8" ry="8" style="stroke:#0A9EFD;stroke-width:3;"/><path d="M37.7793,24 L37.7793,51 M24.7793,32 L50.7793,32 M37.7793,51 L24.7793,66 M37.7793,51 L50.7793,66" fill="none" style="stroke:#0A9EFD;stroke-width:3;"/></g><g class="participant participant-tail" data-entity-uid="part1" data-qualified-name="USR" data-source-line="3" id="part1-tail"><text fill="#0A9EFD" font-family="Arial" font-size="14" lengthAdjust="spacing" textLength="29.5586" x="20" y="1011.5898">User</text><ellipse cx="37.7793" cy="1025.5566" fill="none" rx="8" ry="8" style="stroke:#0A9EFD;stroke-width:3;"/><path d="M37.7793,1033.5566 L37.7793,1060.5566 M24.7793,1041.5566 L50.7793,1041.5566 M37.7793,1060.5566 L24.7793,1075.5566 M37.7793,1060.5566 L50.7793,1075.5566" fill="none" style="stroke:#0A9EFD;stroke-width:3;"/></g><g class="participant participant-head" data-entity-uid="part2" data-qualified-name="APP" data-source-line="6" id="part2-head"><rect fill="none" height="30.0986" rx="2.5" ry="2.5" style="stroke:#0A9EFD;stroke-width:2;" width="110.4893" x="91.7964" y="55"/><text fill="#0A9EFD" font-family="Arial" font-size="14" lengthAdjust="spacing" textLength="96.4893" x="98.7964" y="75.1318">Recording SDK</text></g><g class="participant participant-tail" data-entity-uid="part2" data-qualified-name="APP" data-source-line="6" id="part2-tail"><rect fill="none" height="30.0986" rx="2.5" ry="2.5" style="stroke:#0A9EFD;stroke-width:2;" width="110.4893" x="91.7964" y="998.458"/><text fill="#0A9EFD" font-family="Arial" font-size="14" lengthAdjust="spacing" textLength="96.4893" x="98.7964" y="1018.5898">Recording SDK</text></g><g class="participant participant-head" data-entity-uid="part3" data-qualified-name="API" data-source-line="10" id="part3-head"><rect fill="none" height="32.6489" rx="2.5" ry="2.5" style="stroke:#0A9EFD;stroke-width:2;" width="70.3257" x="391.7878" y="52.4497"/><text fill="#0A9EFD" font-family="Arial" font-size="14" lengthAdjust="spacing" textLength="48.2207" x="398.7878" y="75.1318">SDRTN</text><text fill="#0A9EFD" font-family="Arial" font-size="11" lengthAdjust="spacing" textLength="8.105" x="447.0085" y="69.7676">&#174;</text></g><g class="participant participant-tail" data-entity-uid="part3" data-qualified-name="API" data-source-line="10" id="part3-tail"><rect fill="none" height="32.6489" rx="2.5" ry="2.5" style="stroke:#0A9EFD;stroke-width:2;" width="70.3257" x="391.7878" y="998.458"/><text fill="#0A9EFD" font-family="Arial" font-size="14" lengthAdjust="spacing" textLength="48.2207" x="398.7878" y="1021.1401">SDRTN</text><text fill="#0A9EFD" font-family="Arial" font-size="11" lengthAdjust="spacing" textLength="8.105" x="447.0085" y="1015.7759">&#174;</text></g><g class="message" data-entity-1="part1" data-entity-2="part2" data-source-line="13" id="msg1"><polygon fill="#0A9EFD" points="135.041,113.0474,145.041,117.0474,135.041,121.0474,139.041,117.0474" style="stroke:#0A9EFD;stroke-width:1;stroke-linejoin:miter;stroke-miterlimit:10;"/><line style="stroke:#0A9EFD;stroke-width:2;" x1="37.7793" x2="141.041" y1="117.0474" y2="117.0474"/><text fill="#0A9EFD" font-family="Arial" font-size="13" lengthAdjust="spacing" textLength="58.5444" x="63.1379" y="112.2925">Open App</text></g><g class="message" data-entity-1="part2" data-entity-2="part2" data-source-line="14" id="msg2"><line style="stroke:#0A9EFD;stroke-width:2;" x1="147.041" x2="189.041" y1="145.9961" y2="145.9961"/><line style="stroke:#0A9EFD;stroke-width:2;" x1="189.041" x2="189.041" y1="145.9961" y2="158.9961"/><line style="stroke:#0A9EFD;stroke-width:2;" x1="148.041" x2="189.041" y1="158.9961" y2="158.9961"/><polygon fill="#0A9EFD" points="158.041,154.9961,148.041,158.9961,158.041,162.9961,154.041,158.9961" style="stroke:#0A9EFD;stroke-width:1;stroke-linejoin:miter;stroke-miterlimit:10;"/><text fill="#0A9EFD" font-family="Arial" font-size="13" lengthAdjust="spacing" textLength="177.0361" x="154.041" y="141.2412">Create and initialize a recorder</text></g><g class="message" data-entity-1="part2" data-entity-2="part2" data-source-line="17" id="msg3"><line style="stroke:#0A9EFD;stroke-width:2;" x1="147.041" x2="189.041" y1="226.8423" y2="226.8423"/><line style="stroke:#0A9EFD;stroke-width:2;" x1="189.041" x2="189.041" y1="226.8423" y2="239.8423"/><line style="stroke:#0A9EFD;stroke-width:2;" x1="148.041" x2="189.041" y1="239.8423" y2="239.8423"/><polygon fill="#0A9EFD" points="158.041,235.8423,148.041,239.8423,158.041,243.8423,154.041,239.8423" style="stroke:#0A9EFD;stroke-width:1;stroke-linejoin:miter;stroke-miterlimit:10;"/><text fill="#0A9EFD" font-family="Arial" font-size="13" lengthAdjust="spacing" textLength="164.7344" x="202.8228" y="207.1387">initialize(agoraService, true):</text><text fill="#0A9EFD" font-family="Arial" font-size="13" lengthAdjust="spacing" textLength="262.2979" x="157.6528" y="222.0874">Set enableMix to true for composite recording</text></g><g class="message" data-entity-1="part1" data-entity-2="part2" data-source-line="18" id="msg4"><polygon fill="#0A9EFD" points="135.041,264.791,145.041,268.791,135.041,272.791,139.041,268.791" style="stroke:#0A9EFD;stroke-width:1;stroke-linejoin:miter;stroke-miterlimit:10;"/><line style="stroke:#0A9EFD;stroke-width:2;" x1="37.7793" x2="141.041" y1="268.791" y2="268.791"/><text fill="#0A9EFD" font-family="Arial" font-size="13" lengthAdjust="spacing" textLength="83.8398" x="50.4902" y="264.0361">Join a channel</text></g><path d="M81.7964,283.791 L210.6362,283.791 L210.6362,290.7397 L200.6362,300.7397 L81.7964,300.7397 L81.7964,283.791" fill="#EEEEEE" style="stroke:#0A9EFD;stroke-width:1.5;"/><rect fill="none" height="192.5386" style="stroke:#0A9EFD;stroke-width:2;" width="390.3171" x="81.7964" y="283.791"/><text fill="#000000" font-family="Arial" font-size="13" lengthAdjust="spacing" textLength="83.8398" x="96.7964" y="296.9849">Join a channel</text><g class="message" data-entity-1="part2" data-entity-2="part3" data-source-line="21" id="msg5"><polygon fill="#0A9EFD" points="414.9507,332.6372,424.9507,336.6372,414.9507,340.6372,418.9507,336.6372" style="stroke:#0A9EFD;stroke-width:1;stroke-linejoin:miter;stroke-miterlimit:10;"/><line style="stroke:#0A9EFD;stroke-width:2;" x1="147.041" x2="420.9507" y1="336.6372" y2="336.6372"/><text fill="#0A9EFD" font-family="Arial" font-size="13" lengthAdjust="spacing" textLength="115.6035" x="227.3882" y="316.9336">subscribeAllAudio():</text><text fill="#0A9EFD" font-family="Arial" font-size="13" lengthAdjust="spacing" textLength="159.688" x="208.9578" y="331.8823">Subscribe all audio streams</text></g><g class="message" data-entity-1="part2" data-entity-2="part3" data-source-line="22" id="msg6"><polygon fill="#0A9EFD" points="414.9507,376.5347,424.9507,380.5347,414.9507,384.5347,418.9507,380.5347" style="stroke:#0A9EFD;stroke-width:1;stroke-linejoin:miter;stroke-miterlimit:10;"/><line style="stroke:#0A9EFD;stroke-width:2;" x1="147.041" x2="420.9507" y1="380.5347" y2="380.5347"/><text fill="#0A9EFD" font-family="Arial" font-size="13" lengthAdjust="spacing" textLength="115.6035" x="227.3882" y="360.8311">subscribeAllVideo():</text><text fill="#0A9EFD" font-family="Arial" font-size="13" lengthAdjust="spacing" textLength="158.958" x="209.3228" y="375.7798">Subscribe all video streams</text></g><g class="message" data-entity-1="part2" data-entity-2="part3" data-source-line="23" id="msg7"><polygon fill="#0A9EFD" points="414.9507,420.4321,424.9507,424.4321,414.9507,428.4321,418.9507,424.4321" style="stroke:#0A9EFD;stroke-width:1;stroke-linejoin:miter;stroke-miterlimit:10;"/><line style="stroke:#0A9EFD;stroke-width:2;" x1="147.041" x2="420.9507" y1="424.4321" y2="424.4321"/><text fill="#0A9EFD" font-family="Arial" font-size="13" lengthAdjust="spacing" textLength="80.9326" x="244.7236" y="404.7285">joinChannel():</text><text fill="#0A9EFD" font-family="Arial" font-size="13" lengthAdjust="spacing" textLength="83.8398" x="246.8818" y="419.6772">Join a channel</text></g><g class="message" data-entity-1="part3" data-entity-2="part2" data-source-line="24" id="msg8"><polygon fill="#0A9EFD" points="158.041,464.3296,148.041,468.3296,158.041,472.3296,154.041,468.3296" style="stroke:#0A9EFD;stroke-width:1;stroke-linejoin:miter;stroke-miterlimit:10;"/><line style="stroke:#0A9EFD;stroke-width:2;" x1="152.041" x2="425.9507" y1="468.3296" y2="468.3296"/><text fill="#0A9EFD" font-family="Arial" font-size="13" lengthAdjust="spacing" textLength="83.8271" x="243.2764" y="448.626">onUserJoined:</text><text fill="#0A9EFD" font-family="Arial" font-size="13" lengthAdjust="spacing" textLength="85.249" x="246.1772" y="463.5747">media streams</text></g><g class="message" data-entity-1="part1" data-entity-2="part2" data-source-line="27" id="msg9"><polygon fill="#0A9EFD" points="135.041,500.2783,145.041,504.2783,135.041,508.2783,139.041,504.2783" style="stroke:#0A9EFD;stroke-width:1;stroke-linejoin:miter;stroke-miterlimit:10;"/><line style="stroke:#0A9EFD;stroke-width:2;" x1="37.7793" x2="141.041" y1="504.2783" y2="504.2783"/><text fill="#0A9EFD" font-family="Arial" font-size="13" lengthAdjust="spacing" textLength="85.2617" x="49.7793" y="499.5234">Start recording</text></g><path d="M81.7964,519.2783 L342.8516,519.2783 L342.8516,526.2271 L332.8516,536.2271 L81.7964,536.2271 L81.7964,519.2783" fill="#EEEEEE" style="stroke:#0A9EFD;stroke-width:1.5;"/><rect fill="none" height="187.6411" style="stroke:#0A9EFD;stroke-width:2;" width="298.8652" x="81.7964" y="519.2783"/><text fill="#000000" font-family="Arial" font-size="13" lengthAdjust="spacing" textLength="216.0552" x="96.7964" y="532.4722">Set a watermark and recording layout</text><g class="message" data-entity-1="part2" data-entity-2="part2" data-source-line="30" id="msg10"><line style="stroke:#0A9EFD;stroke-width:2;" x1="147.041" x2="189.041" y1="572.1245" y2="572.1245"/><line style="stroke:#0A9EFD;stroke-width:2;" x1="189.041" x2="189.041" y1="572.1245" y2="585.1245"/><line style="stroke:#0A9EFD;stroke-width:2;" x1="148.041" x2="189.041" y1="585.1245" y2="585.1245"/><polygon fill="#0A9EFD" points="158.041,581.1245,148.041,585.1245,158.041,589.1245,154.041,585.1245" style="stroke:#0A9EFD;stroke-width:1;stroke-linejoin:miter;stroke-miterlimit:10;"/><text fill="#0A9EFD" font-family="Arial" font-size="13" lengthAdjust="spacing" textLength="120.6563" x="154.041" y="552.4209">setRecorderConfig():</text><text fill="#0A9EFD" font-family="Arial" font-size="13" lengthAdjust="spacing" textLength="119.9453" x="158.0083" y="567.3696">Set recorder settings</text></g><g class="message" data-entity-1="part2" data-entity-2="part2" data-source-line="31" id="msg11"><line style="stroke:#0A9EFD;stroke-width:2;" x1="147.041" x2="189.041" y1="629.022" y2="629.022"/><line style="stroke:#0A9EFD;stroke-width:2;" x1="189.041" x2="189.041" y1="629.022" y2="642.022"/><line style="stroke:#0A9EFD;stroke-width:2;" x1="148.041" x2="189.041" y1="642.022" y2="642.022"/><polygon fill="#0A9EFD" points="158.041,638.022,148.041,642.022,158.041,646.022,154.041,642.022" style="stroke:#0A9EFD;stroke-width:1;stroke-linejoin:miter;stroke-miterlimit:10;"/><text fill="#0A9EFD" font-family="Arial" font-size="13" lengthAdjust="spacing" textLength="139.458" x="178.2605" y="609.3184">setVideoMixingLayout():</text><text fill="#0A9EFD" font-family="Arial" font-size="13" lengthAdjust="spacing" textLength="187.897" x="157.6528" y="624.2671">Set the video size and resolution</text></g><g class="message" data-entity-1="part2" data-entity-2="part2" data-source-line="32" id="msg12"><line style="stroke:#0A9EFD;stroke-width:2;" x1="147.041" x2="189.041" y1="685.9194" y2="685.9194"/><line style="stroke:#0A9EFD;stroke-width:2;" x1="189.041" x2="189.041" y1="685.9194" y2="698.9194"/><line style="stroke:#0A9EFD;stroke-width:2;" x1="148.041" x2="189.041" y1="698.9194" y2="698.9194"/><polygon fill="#0A9EFD" points="158.041,694.9194,148.041,698.9194,158.041,702.9194,154.041,698.9194" style="stroke:#0A9EFD;stroke-width:1;stroke-linejoin:miter;stroke-miterlimit:10;"/><text fill="#0A9EFD" font-family="Arial" font-size="13" lengthAdjust="spacing" textLength="211.0088" x="154.041" y="666.2158">enableAndUpdateVideoWatermarks:</text><text fill="#0A9EFD" font-family="Arial" font-size="13" lengthAdjust="spacing" textLength="106.209" x="210.0527" y="681.1646">Update watermark</text></g><path d="M81.7964,720.9194 L212.0581,720.9194 L212.0581,727.8682 L202.0581,737.8682 L81.7964,737.8682 L81.7964,720.9194" fill="#EEEEEE" style="stroke:#0A9EFD;stroke-width:1.5;"/><rect fill="none" height="73.8462" style="stroke:#0A9EFD;stroke-width:2;" width="235.979" x="81.7964" y="720.9194"/><text fill="#000000" font-family="Arial" font-size="13" lengthAdjust="spacing" textLength="85.2617" x="96.7964" y="734.1133">Start recording</text><g class="message" data-entity-1="part2" data-entity-2="part2" data-source-line="36" id="msg13"><line style="stroke:#0A9EFD;stroke-width:2;" x1="147.041" x2="189.041" y1="773.7656" y2="773.7656"/><line style="stroke:#0A9EFD;stroke-width:2;" x1="189.041" x2="189.041" y1="773.7656" y2="786.7656"/><line style="stroke:#0A9EFD;stroke-width:2;" x1="148.041" x2="189.041" y1="786.7656" y2="786.7656"/><polygon fill="#0A9EFD" points="158.041,782.7656,148.041,786.7656,158.041,790.7656,154.041,786.7656" style="stroke:#0A9EFD;stroke-width:1;stroke-linejoin:miter;stroke-miterlimit:10;"/><text fill="#0A9EFD" font-family="Arial" font-size="13" lengthAdjust="spacing" textLength="96.8081" x="179.6982" y="754.062">startRecording():</text><text fill="#0A9EFD" font-family="Arial" font-size="13" lengthAdjust="spacing" textLength="148.1226" x="157.6528" y="769.0107">Start composite recording</text></g><g class="message" data-entity-1="part1" data-entity-2="part2" data-source-line="39" id="msg14"><polygon fill="#0A9EFD" points="135.041,818.7144,145.041,822.7144,135.041,826.7144,139.041,822.7144" style="stroke:#0A9EFD;stroke-width:1;stroke-linejoin:miter;stroke-miterlimit:10;"/><line style="stroke:#0A9EFD;stroke-width:2;" x1="37.7793" x2="141.041" y1="822.7144" y2="822.7144"/><text fill="#0A9EFD" font-family="Arial" font-size="13" lengthAdjust="spacing" textLength="85.2617" x="49.7793" y="817.9595">Start recording</text></g><path d="M81.7964,837.7144 L211.3472,837.7144 L211.3472,844.6631 L201.3472,854.6631 L81.7964,854.6631 L81.7964,837.7144" fill="#EEEEEE" style="stroke:#0A9EFD;stroke-width:1.5;"/><rect fill="none" height="73.8462" style="stroke:#0A9EFD;stroke-width:2;" width="235.2681" x="81.7964" y="837.7144"/><text fill="#000000" font-family="Arial" font-size="13" lengthAdjust="spacing" textLength="84.5508" x="96.7964" y="850.9082">Stop recording</text><g class="message" data-entity-1="part2" data-entity-2="part2" data-source-line="42" id="msg15"><line style="stroke:#0A9EFD;stroke-width:2;" x1="147.041" x2="189.041" y1="890.5605" y2="890.5605"/><line style="stroke:#0A9EFD;stroke-width:2;" x1="189.041" x2="189.041" y1="890.5605" y2="903.5605"/><line style="stroke:#0A9EFD;stroke-width:2;" x1="148.041" x2="189.041" y1="903.5605" y2="903.5605"/><polygon fill="#0A9EFD" points="158.041,899.5605,148.041,903.5605,158.041,907.5605,154.041,903.5605" style="stroke:#0A9EFD;stroke-width:1;stroke-linejoin:miter;stroke-miterlimit:10;"/><text fill="#0A9EFD" font-family="Arial" font-size="13" lengthAdjust="spacing" textLength="96.0972" x="179.6982" y="870.8569">stopRecording():</text><text fill="#0A9EFD" font-family="Arial" font-size="13" lengthAdjust="spacing" textLength="147.4116" x="157.6528" y="885.8057">Stop composite recording</text></g><g class="message" data-entity-1="part1" data-entity-2="part2" data-source-line="45" id="msg16"><polygon fill="#0A9EFD" points="135.041,935.5093,145.041,939.5093,135.041,943.5093,139.041,939.5093" style="stroke:#0A9EFD;stroke-width:1;stroke-linejoin:miter;stroke-miterlimit:10;"/><line style="stroke:#0A9EFD;stroke-width:2;" x1="37.7793" x2="141.041" y1="939.5093" y2="939.5093"/><text fill="#0A9EFD" font-family="Arial" font-size="13" lengthAdjust="spacing" textLength="59.979" x="62.4207" y="934.7544">Close App</text></g><g class="message" data-entity-1="part2" data-entity-2="part2" data-source-line="46" id="msg17"><line style="stroke:#0A9EFD;stroke-width:2;" x1="147.041" x2="189.041" y1="968.458" y2="968.458"/><line style="stroke:#0A9EFD;stroke-width:2;" x1="189.041" x2="189.041" y1="968.458" y2="981.458"/><line style="stroke:#0A9EFD;stroke-width:2;" x1="148.041" x2="189.041" y1="981.458" y2="981.458"/><polygon fill="#0A9EFD" points="158.041,977.458,148.041,981.458,158.041,985.458,154.041,981.458" style="stroke:#0A9EFD;stroke-width:1;stroke-linejoin:miter;stroke-miterlimit:10;"/><text fill="#0A9EFD" font-family="Arial" font-size="13" lengthAdjust="spacing" textLength="112.728" x="154.041" y="963.7031">Clean up resources</text></g><?plantuml-src ZLFBRjim4BppAxOwkK3JteqWWE3quFGLM7MB0WKAMjmusr1SWeyqxKVr8_fb9MbPYcm7o4aWbpCxExDwGQRLKI78BJlvmz-HUKsnqqB8Dh23QktHLI0zh9kL41j-WEeRHmVIsafOwGArPAK9KAsmPQV8RA6vV5SWzVMrGACWeNfedRiSu9hBrUUFvpxQYtz_pz_aRmzUZk3K7CukCk4SFbaqK5ihqccuN3YK8KsH06GeaDJq9nt15L7eG8YjusZXhP4RZH1k4LhkB7jAC3T8xrZXX7XacnMB6dJtrE8h22xYopbyDz1W02oq7-W10fSIt2JtJdIOZ7B5P9B8zbOQWtelyU1sKBESWuyRtphQOArr7HNnh9UmlmUfDSXS0H-I9vr_4l-559x6t-VAIVpF96snqzKZZyGkX-dOvEN93r2LjnqgaWDl2dSQR1FIMZnoghSZsolXLuhNTTBTbOp7mBJypJ5C8lCOLdti2pOtj9sDEGtxa1w5XFU7oE9AoZ7LtXVgH-2yDBqtPRkA4Cyw1c8p8TgjGstKsgeal91-tK_W2-6kCiwrywCV-S29YSPS6_wrlRe2EBLkptOvi7so8zlZXkdvi_ejD7iy_byrIWFH5WEZQz6B_m00?></g></svg>