<svg xmlns="http://www.w3.org/2000/svg" xmlns:xlink="http://www.w3.org/1999/xlink" contentStyleType="text/css" data-diagram-type="SEQUENCE" height="1033px" preserveAspectRatio="none" style="width:518px;height:1033px;" version="1.1" viewBox="0 0 518 1033" width="518px" zoomAndPan="magnify"><?plantuml 1.2026.4?><defs/><g><rect fill="none" height="1031.6592" style="stroke:#0A9EFD;stroke-width:1;" width="516.7502" x="0" y="0"/><rect fill="#999999" fill-opacity="0.33333" height="1020.6592" style="stroke:#0A9EFD;stroke-width:0.5;" width="118.4893" x="87.7964" y="6"/><text fill="#0A9EFD" font-family="sans-serif" font-size="13" font-weight="700" lengthAdjust="spacing" textLength="56.3354" x="118.8733" y="19.4951">Your app</text><rect fill="#999999" fill-opacity="0.33333" height="1020.6592" style="stroke:#0A9EFD;stroke-width:0.5;" width="119.5737" x="367.1765" y="6"/><text fill="#0A9EFD" font-family="sans-serif" font-size="13" font-weight="700" lengthAdjust="spacing" textLength="37.5591" x="408.1838" y="19.4951">Agora</text><rect fill="#0A9EFD" fill-opacity="0.06667" height="192.5386" style="stroke:#0A9EFD;stroke-width:2;" width="410.9539" x="81.7964" y="283.791"/><rect fill="#0A9EFD" fill-opacity="0.06667" height="130.7437" style="stroke:#0A9EFD;stroke-width:2;" width="333.5425" x="81.7964" y="519.2783"/><rect fill="#0A9EFD" fill-opacity="0.06667" height="73.8462" style="stroke:#0A9EFD;stroke-width:2;" width="230.9326" x="81.7964" y="664.022"/><rect fill="#0A9EFD" fill-opacity="0.06667" height="73.8462" style="stroke:#0A9EFD;stroke-width:2;" width="301.7725" x="81.7964" y="780.8169"/><g class="participant-lifeline" data-entity-uid="part1" data-qualified-name="USR" data-source-line="3" id="part1-lifeline"><g><title>User</title><rect fill="#000000" fill-opacity="0.00000" height="856.4619" width="8" x="33.7793" y="86.0986"/><line style="stroke:#0A9EFD;stroke-width:0.5;stroke-dasharray:5,5;" x1="37" x2="37" y1="86.0986" y2="942.5605"/></g></g><g class="participant-lifeline" data-entity-uid="part2" data-qualified-name="APP" data-source-line="6" id="part2-lifeline"><g><title>Recording SDK</title><rect fill="#000000" fill-opacity="0.00000" height="856.4619" width="8" x="143.041" y="86.0986"/><line style="stroke:#0A9EFD;stroke-width:0.5;stroke-dasharray:5,5;" x1="146.7964" x2="146.7964" y1="86.0986" y2="942.5605"/></g></g><g class="participant-lifeline" data-entity-uid="part3" data-qualified-name="API" data-source-line="10" id="part3-lifeline"><g><title>Agora SDRTN.sup....sup.</title><rect fill="#000000" fill-opacity="0.00000" height="856.4619" width="8" x="422.9634" y="86.0986"/><line style="stroke:#0A9EFD;stroke-width:0.5;stroke-dasharray:5,5;" x1="426.1765" x2="426.1765" y1="86.0986" y2="942.5605"/></g></g><g class="participant participant-head" data-entity-uid="part1" data-qualified-name="USR" data-source-line="3" id="part1-head"><text fill="#0A9EFD" font-family="Arial" font-size="14" lengthAdjust="spacing" textLength="29.5586" x="20" y="83.1318">User</text><ellipse cx="37.7793" cy="16" fill="none" rx="8" ry="8" style="stroke:#0A9EFD;stroke-width:3;"/><path d="M37.7793,24 L37.7793,51 M24.7793,32 L50.7793,32 M37.7793,51 L24.7793,66 M37.7793,51 L50.7793,66" fill="none" style="stroke:#0A9EFD;stroke-width:3;"/></g><g class="participant participant-tail" data-entity-uid="part1" data-qualified-name="USR" data-source-line="3" id="part1-tail"><text fill="#0A9EFD" font-family="Arial" font-size="14" lengthAdjust="spacing" textLength="29.5586" x="20" y="954.6924">User</text><ellipse cx="37.7793" cy="968.6592" fill="none" rx="8" ry="8" style="stroke:#0A9EFD;stroke-width:3;"/><path d="M37.7793,976.6592 L37.7793,1003.6592 M24.7793,984.6592 L50.7793,984.6592 M37.7793,1003.6592 L24.7793,1018.6592 M37.7793,1003.6592 L50.7793,1018.6592" fill="none" style="stroke:#0A9EFD;stroke-width:3;"/></g><g class="participant participant-head" data-entity-uid="part2" data-qualified-name="APP" data-source-line="6" id="part2-head"><rect fill="none" height="30.0986" rx="2.5" ry="2.5" style="stroke:#0A9EFD;stroke-width:2;" width="110.4893" x="91.7964" y="55"/><text fill="#0A9EFD" font-family="Arial" font-size="14" lengthAdjust="spacing" textLength="96.4893" x="98.7964" y="75.1318">Recording SDK</text></g><g class="participant participant-tail" data-entity-uid="part2" data-qualified-name="APP" data-source-line="6" id="part2-tail"><rect fill="none" height="30.0986" rx="2.5" ry="2.5" style="stroke:#0A9EFD;stroke-width:2;" width="110.4893" x="91.7964" y="941.5605"/><text fill="#0A9EFD" font-family="Arial" font-size="14" lengthAdjust="spacing" textLength="96.4893" x="98.7964" y="961.6924">Recording SDK</text></g><g class="participant participant-head" data-entity-uid="part3" data-qualified-name="API" data-source-line="10" id="part3-head"><rect fill="none" height="32.6489" rx="2.5" ry="2.5" style="stroke:#0A9EFD;stroke-width:2;" width="111.5737" x="371.1765" y="52.4497"/><text fill="#0A9EFD" font-family="Arial" font-size="14" lengthAdjust="spacing" textLength="89.4688" x="378.1765" y="75.1318">Agora SDRTN</text><text fill="#0A9EFD" font-family="Arial" font-size="11" lengthAdjust="spacing" textLength="8.105" x="467.6453" y="69.7676">&#174;</text></g><g class="participant participant-tail" data-entity-uid="part3" data-qualified-name="API" data-source-line="10" id="part3-tail"><rect fill="none" height="32.6489" rx="2.5" ry="2.5" style="stroke:#0A9EFD;stroke-width:2;" width="111.5737" x="371.1765" y="941.5605"/><text fill="#0A9EFD" font-family="Arial" font-size="14" lengthAdjust="spacing" textLength="89.4688" x="378.1765" y="964.2427">Agora SDRTN</text><text fill="#0A9EFD" font-family="Arial" font-size="11" lengthAdjust="spacing" textLength="8.105" x="467.6453" y="958.8784">&#174;</text></g><g class="message" data-entity-1="part1" data-entity-2="part2" data-source-line="13" id="msg1"><polygon fill="#0A9EFD" points="135.041,113.0474,145.041,117.0474,135.041,121.0474,139.041,117.0474" style="stroke:#0A9EFD;stroke-width:1;stroke-linejoin:miter;stroke-miterlimit:10;"/><line style="stroke:#0A9EFD;stroke-width:2;" x1="37.7793" x2="141.041" y1="117.0474" y2="117.0474"/><text fill="#0A9EFD" font-family="Arial" font-size="13" lengthAdjust="spacing" textLength="58.5444" x="63.1379" y="112.2925">Open App</text></g><g class="message" data-entity-1="part2" data-entity-2="part2" data-source-line="14" id="msg2"><line style="stroke:#0A9EFD;stroke-width:2;" x1="147.041" x2="189.041" y1="145.9961" y2="145.9961"/><line style="stroke:#0A9EFD;stroke-width:2;" x1="189.041" x2="189.041" y1="145.9961" y2="158.9961"/><line style="stroke:#0A9EFD;stroke-width:2;" x1="148.041" x2="189.041" y1="158.9961" y2="158.9961"/><polygon fill="#0A9EFD" points="158.041,154.9961,148.041,158.9961,158.041,162.9961,154.041,158.9961" style="stroke:#0A9EFD;stroke-width:1;stroke-linejoin:miter;stroke-miterlimit:10;"/><text fill="#0A9EFD" font-family="Arial" font-size="13" lengthAdjust="spacing" textLength="177.0361" x="154.041" y="141.2412">Create and initialize a recorder</text></g><g class="message" data-entity-1="part2" data-entity-2="part2" data-source-line="17" id="msg3"><line style="stroke:#0A9EFD;stroke-width:2;" x1="147.041" x2="189.041" y1="226.8423" y2="226.8423"/><line style="stroke:#0A9EFD;stroke-width:2;" x1="189.041" x2="189.041" y1="226.8423" y2="239.8423"/><line style="stroke:#0A9EFD;stroke-width:2;" x1="148.041" x2="189.041" y1="239.8423" y2="239.8423"/><polygon fill="#0A9EFD" points="158.041,235.8423,148.041,239.8423,158.041,243.8423,154.041,239.8423" style="stroke:#0A9EFD;stroke-width:1;stroke-linejoin:miter;stroke-miterlimit:10;"/><text fill="#0A9EFD" font-family="Arial" font-size="13" lengthAdjust="spacing" textLength="169.7935" x="200.2996" y="207.1387">initialize(agoraService, false):</text><text fill="#0A9EFD" font-family="Arial" font-size="13" lengthAdjust="spacing" textLength="262.3105" x="157.6528" y="222.0874">Set enableMix to false for individual recording</text></g><g class="message" data-entity-1="part1" data-entity-2="part2" data-source-line="18" id="msg4"><polygon fill="#0A9EFD" points="135.041,264.791,145.041,268.791,135.041,272.791,139.041,268.791" style="stroke:#0A9EFD;stroke-width:1;stroke-linejoin:miter;stroke-miterlimit:10;"/><line style="stroke:#0A9EFD;stroke-width:2;" x1="37.7793" x2="141.041" y1="268.791" y2="268.791"/><text fill="#0A9EFD" font-family="Arial" font-size="13" lengthAdjust="spacing" textLength="83.8398" x="50.4902" y="264.0361">Join a channel</text></g><path d="M81.7964,283.791 L210.6362,283.791 L210.6362,290.7397 L200.6362,300.7397 L81.7964,300.7397 L81.7964,283.791" fill="#EEEEEE" style="stroke:#0A9EFD;stroke-width:1.5;"/><rect fill="none" height="192.5386" style="stroke:#0A9EFD;stroke-width:2;" width="410.9539" x="81.7964" y="283.791"/><text fill="#000000" font-family="Arial" font-size="13" lengthAdjust="spacing" textLength="83.8398" x="96.7964" y="296.9849">Join a channel</text><g class="message" data-entity-1="part2" data-entity-2="part3" data-source-line="21" id="msg5"><polygon fill="#0A9EFD" points="414.9634,332.6372,424.9634,336.6372,414.9634,340.6372,418.9634,336.6372" style="stroke:#0A9EFD;stroke-width:1;stroke-linejoin:miter;stroke-miterlimit:10;"/><line style="stroke:#0A9EFD;stroke-width:2;" x1="147.041" x2="420.9634" y1="336.6372" y2="336.6372"/><text fill="#0A9EFD" font-family="Arial" font-size="13" lengthAdjust="spacing" textLength="115.6035" x="227.3945" y="316.9336">subscribeAllAudio():</text><text fill="#0A9EFD" font-family="Arial" font-size="13" lengthAdjust="spacing" textLength="159.688" x="208.9641" y="331.8823">Subscribe all audio streams</text></g><g class="message" data-entity-1="part2" data-entity-2="part3" data-source-line="22" id="msg6"><polygon fill="#0A9EFD" points="414.9634,376.5347,424.9634,380.5347,414.9634,384.5347,418.9634,380.5347" style="stroke:#0A9EFD;stroke-width:1;stroke-linejoin:miter;stroke-miterlimit:10;"/><line style="stroke:#0A9EFD;stroke-width:2;" x1="147.041" x2="420.9634" y1="380.5347" y2="380.5347"/><text fill="#0A9EFD" font-family="Arial" font-size="13" lengthAdjust="spacing" textLength="115.6035" x="227.3945" y="360.8311">subscribeAllVideo():</text><text fill="#0A9EFD" font-family="Arial" font-size="13" lengthAdjust="spacing" textLength="158.958" x="209.3291" y="375.7798">Subscribe all video streams</text></g><g class="message" data-entity-1="part2" data-entity-2="part3" data-source-line="23" id="msg7"><polygon fill="#0A9EFD" points="414.9634,420.4321,424.9634,424.4321,414.9634,428.4321,418.9634,424.4321" style="stroke:#0A9EFD;stroke-width:1;stroke-linejoin:miter;stroke-miterlimit:10;"/><line style="stroke:#0A9EFD;stroke-width:2;" x1="147.041" x2="420.9634" y1="424.4321" y2="424.4321"/><text fill="#0A9EFD" font-family="Arial" font-size="13" lengthAdjust="spacing" textLength="80.9326" x="244.73" y="404.7285">joinChannel():</text><text fill="#0A9EFD" font-family="Arial" font-size="13" lengthAdjust="spacing" textLength="83.8398" x="246.8882" y="419.6772">Join a channel</text></g><g class="message" data-entity-1="part3" data-entity-2="part2" data-source-line="24" id="msg8"><polygon fill="#0A9EFD" points="158.041,464.3296,148.041,468.3296,158.041,472.3296,154.041,468.3296" style="stroke:#0A9EFD;stroke-width:1;stroke-linejoin:miter;stroke-miterlimit:10;"/><line style="stroke:#0A9EFD;stroke-width:2;" x1="152.041" x2="425.9634" y1="468.3296" y2="468.3296"/><text fill="#0A9EFD" font-family="Arial" font-size="13" lengthAdjust="spacing" textLength="83.8271" x="243.2827" y="448.626">onUserJoined:</text><text fill="#0A9EFD" font-family="Arial" font-size="13" lengthAdjust="spacing" textLength="85.249" x="246.1836" y="463.5747">media streams</text></g><g class="message" data-entity-1="part1" data-entity-2="part2" data-source-line="27" id="msg9"><polygon fill="#0A9EFD" points="135.041,500.2783,145.041,504.2783,135.041,508.2783,139.041,504.2783" style="stroke:#0A9EFD;stroke-width:1;stroke-linejoin:miter;stroke-miterlimit:10;"/><line style="stroke:#0A9EFD;stroke-width:2;" x1="37.7793" x2="141.041" y1="504.2783" y2="504.2783"/><text fill="#0A9EFD" font-family="Arial" font-size="13" lengthAdjust="spacing" textLength="85.2617" x="49.7793" y="499.5234">Start recording</text></g><path d="M81.7964,519.2783 L221.4399,519.2783 L221.4399,526.2271 L211.4399,536.2271 L81.7964,536.2271 L81.7964,519.2783" fill="#EEEEEE" style="stroke:#0A9EFD;stroke-width:1.5;"/><rect fill="none" height="130.7437" style="stroke:#0A9EFD;stroke-width:2;" width="333.5425" x="81.7964" y="519.2783"/><text fill="#000000" font-family="Arial" font-size="13" lengthAdjust="spacing" textLength="94.6436" x="96.7964" y="532.4722">Set a watermark</text><g class="message" data-entity-1="part2" data-entity-2="part2" data-source-line="30" id="msg10"><line style="stroke:#0A9EFD;stroke-width:2;" x1="147.041" x2="189.041" y1="572.1245" y2="572.1245"/><line style="stroke:#0A9EFD;stroke-width:2;" x1="189.041" x2="189.041" y1="572.1245" y2="585.1245"/><line style="stroke:#0A9EFD;stroke-width:2;" x1="148.041" x2="189.041" y1="585.1245" y2="585.1245"/><polygon fill="#0A9EFD" points="158.041,581.1245,148.041,585.1245,158.041,589.1245,154.041,585.1245" style="stroke:#0A9EFD;stroke-width:1;stroke-linejoin:miter;stroke-miterlimit:10;"/><text fill="#0A9EFD" font-family="Arial" font-size="13" lengthAdjust="spacing" textLength="155.3335" x="154.041" y="552.4209">setRecorderConfigByUid():</text><text fill="#0A9EFD" font-family="Arial" font-size="13" lengthAdjust="spacing" textLength="119.9453" x="175.3469" y="567.3696">Set recorder settings</text></g><g class="message" data-entity-1="part2" data-entity-2="part2" data-source-line="31" id="msg11"><line style="stroke:#0A9EFD;stroke-width:2;" x1="147.041" x2="189.041" y1="629.022" y2="629.022"/><line style="stroke:#0A9EFD;stroke-width:2;" x1="189.041" x2="189.041" y1="629.022" y2="642.022"/><line style="stroke:#0A9EFD;stroke-width:2;" x1="148.041" x2="189.041" y1="642.022" y2="642.022"/><polygon fill="#0A9EFD" points="158.041,638.022,148.041,642.022,158.041,646.022,154.041,642.022" style="stroke:#0A9EFD;stroke-width:1;stroke-linejoin:miter;stroke-miterlimit:10;"/><text fill="#0A9EFD" font-family="Arial" font-size="13" lengthAdjust="spacing" textLength="245.686" x="154.041" y="609.3184">enableAndUpdateVideoWatermarksByUid:</text><text fill="#0A9EFD" font-family="Arial" font-size="13" lengthAdjust="spacing" textLength="106.209" x="227.3914" y="624.2671">Update watermark</text></g><path d="M81.7964,664.022 L212.0581,664.022 L212.0581,670.9707 L202.0581,680.9707 L81.7964,680.9707 L81.7964,664.022" fill="#EEEEEE" style="stroke:#0A9EFD;stroke-width:1.5;"/><rect fill="none" height="73.8462" style="stroke:#0A9EFD;stroke-width:2;" width="230.9326" x="81.7964" y="664.022"/><text fill="#000000" font-family="Arial" font-size="13" lengthAdjust="spacing" textLength="85.2617" x="96.7964" y="677.2158">Start recording</text><g class="message" data-entity-1="part2" data-entity-2="part2" data-source-line="35" id="msg12"><line style="stroke:#0A9EFD;stroke-width:2;" x1="147.041" x2="189.041" y1="716.8682" y2="716.8682"/><line style="stroke:#0A9EFD;stroke-width:2;" x1="189.041" x2="189.041" y1="716.8682" y2="729.8682"/><line style="stroke:#0A9EFD;stroke-width:2;" x1="148.041" x2="189.041" y1="729.8682" y2="729.8682"/><polygon fill="#0A9EFD" points="158.041,725.8682,148.041,729.8682,158.041,733.8682,154.041,729.8682" style="stroke:#0A9EFD;stroke-width:1;stroke-linejoin:miter;stroke-miterlimit:10;"/><text fill="#0A9EFD" font-family="Arial" font-size="13" lengthAdjust="spacing" textLength="131.4854" x="159.8364" y="697.1646">startRecordingByUid():</text><text fill="#0A9EFD" font-family="Arial" font-size="13" lengthAdjust="spacing" textLength="143.0762" x="157.6528" y="712.1133">Start individual recording</text></g><g class="message" data-entity-1="part1" data-entity-2="part2" data-source-line="38" id="msg13"><polygon fill="#0A9EFD" points="135.041,761.8169,145.041,765.8169,135.041,769.8169,139.041,765.8169" style="stroke:#0A9EFD;stroke-width:1;stroke-linejoin:miter;stroke-miterlimit:10;"/><line style="stroke:#0A9EFD;stroke-width:2;" x1="37.7793" x2="141.041" y1="765.8169" y2="765.8169"/><text fill="#0A9EFD" font-family="Arial" font-size="13" lengthAdjust="spacing" textLength="85.2617" x="49.7793" y="761.062">Start recording</text></g><path d="M81.7964,780.8169 L211.3472,780.8169 L211.3472,787.7656 L201.3472,797.7656 L81.7964,797.7656 L81.7964,780.8169" fill="#EEEEEE" style="stroke:#0A9EFD;stroke-width:1.5;"/><rect fill="none" height="73.8462" style="stroke:#0A9EFD;stroke-width:2;" width="301.7725" x="81.7964" y="780.8169"/><text fill="#000000" font-family="Arial" font-size="13" lengthAdjust="spacing" textLength="84.5508" x="96.7964" y="794.0107">Stop recording</text><g class="message" data-entity-1="part2" data-entity-2="part2" data-source-line="41" id="msg14"><line style="stroke:#0A9EFD;stroke-width:2;" x1="147.041" x2="189.041" y1="833.6631" y2="833.6631"/><line style="stroke:#0A9EFD;stroke-width:2;" x1="189.041" x2="189.041" y1="833.6631" y2="846.6631"/><line style="stroke:#0A9EFD;stroke-width:2;" x1="148.041" x2="189.041" y1="846.6631" y2="846.6631"/><polygon fill="#0A9EFD" points="158.041,842.6631,148.041,846.6631,158.041,850.6631,154.041,846.6631" style="stroke:#0A9EFD;stroke-width:1;stroke-linejoin:miter;stroke-miterlimit:10;"/><text fill="#0A9EFD" font-family="Arial" font-size="13" lengthAdjust="spacing" textLength="130.7744" x="195.6118" y="813.9595">stopRecordingByUid():</text><text fill="#0A9EFD" font-family="Arial" font-size="13" lengthAdjust="spacing" textLength="213.916" x="157.6528" y="828.9082">Enable the individual recording mode</text></g><g class="message" data-entity-1="part1" data-entity-2="part2" data-source-line="44" id="msg15"><polygon fill="#0A9EFD" points="135.041,878.6118,145.041,882.6118,135.041,886.6118,139.041,882.6118" style="stroke:#0A9EFD;stroke-width:1;stroke-linejoin:miter;stroke-miterlimit:10;"/><line style="stroke:#0A9EFD;stroke-width:2;" x1="37.7793" x2="141.041" y1="882.6118" y2="882.6118"/><text fill="#0A9EFD" font-family="Arial" font-size="13" lengthAdjust="spacing" textLength="59.979" x="62.4207" y="877.8569">Close App</text></g><g class="message" data-entity-1="part2" data-entity-2="part2" data-source-line="45" id="msg16"><line style="stroke:#0A9EFD;stroke-width:2;" x1="147.041" x2="189.041" y1="911.5605" y2="911.5605"/><line style="stroke:#0A9EFD;stroke-width:2;" x1="189.041" x2="189.041" y1="911.5605" y2="924.5605"/><line style="stroke:#0A9EFD;stroke-width:2;" x1="148.041" x2="189.041" y1="924.5605" y2="924.5605"/><polygon fill="#0A9EFD" points="158.041,920.5605,148.041,924.5605,158.041,928.5605,154.041,924.5605" style="stroke:#0A9EFD;stroke-width:1;stroke-linejoin:miter;stroke-miterlimit:10;"/><text fill="#0A9EFD" font-family="Arial" font-size="13" lengthAdjust="spacing" textLength="112.728" x="154.041" y="906.8057">Clean up resources</text></g><?plantuml-src ZPJ1Rjim38RlUWhEfmpOkdjG5F2o7hAXNH4l6meKA1IBIRdAaY39MRU7saFioKOfZbCdBj1JO97_pqyabJTaQjqg1BcnNjw7Hp9dr3PQ25b7ww5O1lG5o03BQY74oZv1SMjR3zAvGZZf8zNaf8bGBB2sNf7PGFNfIvQKDpS2ZG9MTT8oLJdIvJFMBBvTduVMNVpxU_uX_NOMyuC58y3xYsGxXQyE3PJE2Vxg3sSUPUIxi80CHPAQ_l0d-8o67eJOUDiwk3HofH7Y0tAYeYsfLkekBTsWiGe7pWUxIUvKXNvBDRw3jTG1tqxXpa254J0RNz4JHBkBmPhRE5PaS9tFbWo3rW_I6DHxpAFJ7cW-XT2kGkrfXQNMPQl8JZg8_Jb8hK6c28J8VMd2Y_hlf71SlqsHKVrFHfljk3hb2UoylvqrQOrI0ggSsw0YsVloW8V3hI8loBDETUr83PRmYqVi6-aV1mCA61VTb6VMh6dpyVUIrEGmcNu7E3EoQHZ8TtChZLewnVwv8p_sXKBsoawxy3E6pDxX7L4Fy5AiVo43jgmQNP1NzoLQzs9TwqRBlke5d03CjEMDFdbs6gM1DZ44_c-eCOZ_?></g></svg>