<?xml version="1.0" encoding="us-ascii" standalone="no"?><svg xmlns="http://www.w3.org/2000/svg" xmlns:xlink="http://www.w3.org/1999/xlink" contentStyleType="text/css" height="1032px" preserveAspectRatio="none" style="width:478px;height:1032px;" version="1.1" viewBox="0 0 478 1032" width="478px" zoomAndPan="magnify"><defs/><g><rect fill="none" height="1030.6592" style="stroke:#0A9EFD;stroke-width:1.0;" width="476.5" x="0" y="0"/><rect fill="#999999" fill-opacity="0.33333" height="1020.6592" style="stroke:#0A9EFD;stroke-width:0.5;" width="119" x="87.5" y="6"/><text fill="#0A9EFD" font-family="sans-serif" font-size="13" font-weight="bold" lengthAdjust="spacing" textLength="62" x="116" y="18.5684">Your app</text><rect fill="#999999" fill-opacity="0.33333" height="1020.6592" style="stroke:#0A9EFD;stroke-width:0.5;" width="75" x="391.5" y="6"/><text fill="#0A9EFD" font-family="sans-serif" font-size="13" font-weight="bold" lengthAdjust="spacing" textLength="41" x="408.5" y="18.5684">Agora</text><rect fill="#0A9EFD" fill-opacity="0.06667" height="192.5386" style="stroke:#0A9EFD;stroke-width:2.0;" width="391" x="81.5" y="283.791"/><rect fill="#0A9EFD" fill-opacity="0.06667" height="130.7437" style="stroke:#0A9EFD;stroke-width:2.0;" width="332.5" x="81.5" y="519.2783"/><rect fill="#0A9EFD" fill-opacity="0.06667" height="73.8462" style="stroke:#0A9EFD;stroke-width:2.0;" width="231.5" x="81.5" y="664.022"/><rect fill="#0A9EFD" fill-opacity="0.06667" height="73.8462" style="stroke:#0A9EFD;stroke-width:2.0;" width="301.5" x="81.5" y="780.8169"/><line style="stroke:#0A9EFD;stroke-width:0.5;stroke-dasharray:5.0,5.0;" x1="38" x2="38" y1="86.0986" y2="942.5605"/><line style="stroke:#0A9EFD;stroke-width:0.5;stroke-dasharray:5.0,5.0;" x1="146.5" x2="146.5" y1="86.0986" y2="942.5605"/><line style="stroke:#0A9EFD;stroke-width:0.5;stroke-dasharray:5.0,5.0;" x1="428.5" x2="428.5" y1="86.0986" y2="942.5605"/><text fill="#0A9EFD" font-family="Arial" font-size="14" lengthAdjust="spacing" textLength="30" x="20" y="83.1318">User</text><ellipse cx="38" cy="16" fill="none" rx="8" ry="8" style="stroke:#0A9EFD;stroke-width:3.0;"/><path d="M38,24 L38,51 M25,32 L51,32 M38,51 L25,66 M38,51 L51,66 " fill="none" style="stroke:#0A9EFD;stroke-width:3.0;"/><text fill="#0A9EFD" font-family="Arial" font-size="14" lengthAdjust="spacing" textLength="30" x="20" y="954.6924">User</text><ellipse cx="38" cy="968.6592" fill="none" rx="8" ry="8" style="stroke:#0A9EFD;stroke-width:3.0;"/><path d="M38,976.6592 L38,1003.6592 M25,984.6592 L51,984.6592 M38,1003.6592 L25,1018.6592 M38,1003.6592 L51,1018.6592 " fill="none" style="stroke:#0A9EFD;stroke-width:3.0;"/><rect fill="none" height="30.0986" rx="2.5" ry="2.5" style="stroke:#0A9EFD;stroke-width:2.0;" width="111" x="91.5" y="55"/><text fill="#0A9EFD" font-family="Arial" font-size="14" lengthAdjust="spacing" textLength="97" x="98.5" y="75.1318">Recording SDK</text><rect fill="none" height="30.0986" rx="2.5" ry="2.5" style="stroke:#0A9EFD;stroke-width:2.0;" width="111" x="91.5" y="941.5605"/><text fill="#0A9EFD" font-family="Arial" font-size="14" lengthAdjust="spacing" textLength="97" x="98.5" y="961.6924">Recording SDK</text><rect fill="none" height="30.0986" rx="2.5" ry="2.5" style="stroke:#0A9EFD;stroke-width:2.0;" width="67" x="395.5" y="55"/><text fill="#0A9EFD" font-family="Arial" font-size="14" lengthAdjust="spacing" textLength="53" x="402.5" y="75.1318">SD-RTN</text><rect fill="none" height="30.0986" rx="2.5" ry="2.5" style="stroke:#0A9EFD;stroke-width:2.0;" width="67" x="395.5" y="941.5605"/><text fill="#0A9EFD" font-family="Arial" font-size="14" lengthAdjust="spacing" textLength="53" x="402.5" y="961.6924">SD-RTN</text><polygon fill="#0A9EFD" points="135,113.0474,145,117.0474,135,121.0474,139,117.0474" style="stroke:#0A9EFD;stroke-width:1.0;"/><line style="stroke:#0A9EFD;stroke-width:2.0;" x1="38" x2="141" y1="117.0474" y2="117.0474"/><text fill="#0A9EFD" font-family="Arial" font-size="13" lengthAdjust="spacing" textLength="58" x="63.5" y="112.2925">Open App</text><line style="stroke:#0A9EFD;stroke-width:2.0;" x1="147" x2="189" y1="145.9961" y2="145.9961"/><line style="stroke:#0A9EFD;stroke-width:2.0;" x1="189" x2="189" y1="145.9961" y2="158.9961"/><line style="stroke:#0A9EFD;stroke-width:2.0;" x1="148" x2="189" y1="158.9961" y2="158.9961"/><polygon fill="#0A9EFD" points="158,154.9961,148,158.9961,158,162.9961,154,158.9961" style="stroke:#0A9EFD;stroke-width:1.0;"/><text fill="#0A9EFD" font-family="Arial" font-size="13" lengthAdjust="spacing" textLength="176" x="154" y="141.2412">Create and initialize a recorder</text><line style="stroke:#0A9EFD;stroke-width:2.0;" x1="147" x2="189" y1="226.8423" y2="226.8423"/><line style="stroke:#0A9EFD;stroke-width:2.0;" x1="189" x2="189" y1="226.8423" y2="239.8423"/><line style="stroke:#0A9EFD;stroke-width:2.0;" x1="148" x2="189" y1="239.8423" y2="239.8423"/><polygon fill="#0A9EFD" points="158,235.8423,148,239.8423,158,243.8423,154,239.8423" style="stroke:#0A9EFD;stroke-width:1.0;"/><text fill="#0A9EFD" font-family="Arial" font-size="13" lengthAdjust="spacing" textLength="171" x="200.5" y="207.1387">initialize(agoraService, false):</text><text fill="#0A9EFD" font-family="Arial" font-size="13" lengthAdjust="spacing" textLength="264" x="158" y="222.0874">Set enableMix to false for individual recording</text><polygon fill="#0A9EFD" points="135,264.791,145,268.791,135,272.791,139,268.791" style="stroke:#0A9EFD;stroke-width:1.0;"/><line style="stroke:#0A9EFD;stroke-width:2.0;" x1="38" x2="141" y1="268.791" y2="268.791"/><text fill="#0A9EFD" font-family="Arial" font-size="13" lengthAdjust="spacing" textLength="84" x="50.5" y="264.0361">Join a channel</text><path d="M81.5,283.791 L210.5,283.791 L210.5,290.7397 L200.5,300.7397 L81.5,300.7397 L81.5,283.791 " fill="#EEEEEE" style="stroke:#0A9EFD;stroke-width:1.5;"/><rect fill="none" height="192.5386" style="stroke:#0A9EFD;stroke-width:2.0;" width="391" x="81.5" y="283.791"/><text fill="#000000" font-family="Arial" font-size="13" lengthAdjust="spacing" textLength="84" x="96.5" y="296.9849">Join a channel</text><polygon fill="#0A9EFD" points="417,332.6372,427,336.6372,417,340.6372,421,336.6372" style="stroke:#0A9EFD;stroke-width:1.0;"/><line style="stroke:#0A9EFD;stroke-width:2.0;" x1="147" x2="423" y1="336.6372" y2="336.6372"/><text fill="#0A9EFD" font-family="Arial" font-size="13" lengthAdjust="spacing" textLength="116" x="228" y="316.9336">subscribeAllAudio():</text><text fill="#0A9EFD" font-family="Arial" font-size="13" lengthAdjust="spacing" textLength="161" x="209.5" y="331.8823">Subscribe all audio streams</text><polygon fill="#0A9EFD" points="417,376.5347,427,380.5347,417,384.5347,421,380.5347" style="stroke:#0A9EFD;stroke-width:1.0;"/><line style="stroke:#0A9EFD;stroke-width:2.0;" x1="147" x2="423" y1="380.5347" y2="380.5347"/><text fill="#0A9EFD" font-family="Arial" font-size="13" lengthAdjust="spacing" textLength="116" x="228" y="360.8311">subscribeAllVideo():</text><text fill="#0A9EFD" font-family="Arial" font-size="13" lengthAdjust="spacing" textLength="161" x="209.5" y="375.7798">Subscribe all video streams</text><polygon fill="#0A9EFD" points="417,420.4321,427,424.4321,417,428.4321,421,424.4321" style="stroke:#0A9EFD;stroke-width:1.0;"/><line style="stroke:#0A9EFD;stroke-width:2.0;" x1="147" x2="423" y1="424.4321" y2="424.4321"/><text fill="#0A9EFD" font-family="Arial" font-size="13" lengthAdjust="spacing" textLength="79" x="246.5" y="404.7285">joinChannel():</text><text fill="#0A9EFD" font-family="Arial" font-size="13" lengthAdjust="spacing" textLength="84" x="248" y="419.6772">Join a channel</text><polygon fill="#0A9EFD" points="158,464.3296,148,468.3296,158,472.3296,154,468.3296" style="stroke:#0A9EFD;stroke-width:1.0;"/><line style="stroke:#0A9EFD;stroke-width:2.0;" x1="152" x2="428" y1="468.3296" y2="468.3296"/><text fill="#0A9EFD" font-family="Arial" font-size="13" lengthAdjust="spacing" textLength="83" x="244.5" y="448.626">onUserJoined:</text><text fill="#0A9EFD" font-family="Arial" font-size="13" lengthAdjust="spacing" textLength="86" x="247" y="463.5747">media streams</text><polygon fill="#0A9EFD" points="135,500.2783,145,504.2783,135,508.2783,139,504.2783" style="stroke:#0A9EFD;stroke-width:1.0;"/><line style="stroke:#0A9EFD;stroke-width:2.0;" x1="38" x2="141" y1="504.2783" y2="504.2783"/><text fill="#0A9EFD" font-family="Arial" font-size="13" lengthAdjust="spacing" textLength="85" x="50" y="499.5234">Start recording</text><path d="M81.5,519.2783 L221.5,519.2783 L221.5,526.2271 L211.5,536.2271 L81.5,536.2271 L81.5,519.2783 " fill="#EEEEEE" style="stroke:#0A9EFD;stroke-width:1.5;"/><rect fill="none" height="130.7437" style="stroke:#0A9EFD;stroke-width:2.0;" width="332.5" x="81.5" y="519.2783"/><text fill="#000000" font-family="Arial" font-size="13" lengthAdjust="spacing" textLength="95" x="96.5" y="532.4722">Set a watermark</text><line style="stroke:#0A9EFD;stroke-width:2.0;" x1="147" x2="189" y1="572.1245" y2="572.1245"/><line style="stroke:#0A9EFD;stroke-width:2.0;" x1="189" x2="189" y1="572.1245" y2="585.1245"/><line style="stroke:#0A9EFD;stroke-width:2.0;" x1="148" x2="189" y1="585.1245" y2="585.1245"/><polygon fill="#0A9EFD" points="158,581.1245,148,585.1245,158,589.1245,154,585.1245" style="stroke:#0A9EFD;stroke-width:1.0;"/><text fill="#0A9EFD" font-family="Arial" font-size="13" lengthAdjust="spacing" textLength="154" x="154" y="552.4209">setRecorderConfigByUid():</text><text fill="#0A9EFD" font-family="Arial" font-size="13" lengthAdjust="spacing" textLength="121" x="174.5" y="567.3696">Set recorder settings</text><line style="stroke:#0A9EFD;stroke-width:2.0;" x1="147" x2="189" y1="629.022" y2="629.022"/><line style="stroke:#0A9EFD;stroke-width:2.0;" x1="189" x2="189" y1="629.022" y2="642.022"/><line style="stroke:#0A9EFD;stroke-width:2.0;" x1="148" x2="189" y1="642.022" y2="642.022"/><polygon fill="#0A9EFD" points="158,638.022,148,642.022,158,646.022,154,642.022" style="stroke:#0A9EFD;stroke-width:1.0;"/><text fill="#0A9EFD" font-family="Arial" font-size="13" lengthAdjust="spacing" textLength="244" x="154" y="609.3184">enableAndUpdateVideoWatermarksByUid:</text><text fill="#0A9EFD" font-family="Arial" font-size="13" lengthAdjust="spacing" textLength="105" x="227.5" y="624.2671">Update watermark</text><path d="M81.5,664.022 L211.5,664.022 L211.5,670.9707 L201.5,680.9707 L81.5,680.9707 L81.5,664.022 " fill="#EEEEEE" style="stroke:#0A9EFD;stroke-width:1.5;"/><rect fill="none" height="73.8462" style="stroke:#0A9EFD;stroke-width:2.0;" width="231.5" x="81.5" y="664.022"/><text fill="#000000" font-family="Arial" font-size="13" lengthAdjust="spacing" textLength="85" x="96.5" y="677.2158">Start recording</text><line style="stroke:#0A9EFD;stroke-width:2.0;" x1="147" x2="189" y1="716.8682" y2="716.8682"/><line style="stroke:#0A9EFD;stroke-width:2.0;" x1="189" x2="189" y1="716.8682" y2="729.8682"/><line style="stroke:#0A9EFD;stroke-width:2.0;" x1="148" x2="189" y1="729.8682" y2="729.8682"/><polygon fill="#0A9EFD" points="158,725.8682,148,729.8682,158,733.8682,154,729.8682" style="stroke:#0A9EFD;stroke-width:1.0;"/><text fill="#0A9EFD" font-family="Arial" font-size="13" lengthAdjust="spacing" textLength="131" x="160" y="697.1646">startRecordingByUid():</text><text fill="#0A9EFD" font-family="Arial" font-size="13" lengthAdjust="spacing" textLength="143" x="158" y="712.1133">Start individual recording</text><polygon fill="#0A9EFD" points="135,761.8169,145,765.8169,135,769.8169,139,765.8169" style="stroke:#0A9EFD;stroke-width:1.0;"/><line style="stroke:#0A9EFD;stroke-width:2.0;" x1="38" x2="141" y1="765.8169" y2="765.8169"/><text fill="#0A9EFD" font-family="Arial" font-size="13" lengthAdjust="spacing" textLength="85" x="50" y="761.062">Start recording</text><path d="M81.5,780.8169 L210.5,780.8169 L210.5,787.7656 L200.5,797.7656 L81.5,797.7656 L81.5,780.8169 " fill="#EEEEEE" style="stroke:#0A9EFD;stroke-width:1.5;"/><rect fill="none" height="73.8462" style="stroke:#0A9EFD;stroke-width:2.0;" width="301.5" x="81.5" y="780.8169"/><text fill="#000000" font-family="Arial" font-size="13" lengthAdjust="spacing" textLength="84" x="96.5" y="794.0107">Stop recording</text><line style="stroke:#0A9EFD;stroke-width:2.0;" x1="147" x2="189" y1="833.6631" y2="833.6631"/><line style="stroke:#0A9EFD;stroke-width:2.0;" x1="189" x2="189" y1="833.6631" y2="846.6631"/><line style="stroke:#0A9EFD;stroke-width:2.0;" x1="148" x2="189" y1="846.6631" y2="846.6631"/><polygon fill="#0A9EFD" points="158,842.6631,148,846.6631,158,850.6631,154,846.6631" style="stroke:#0A9EFD;stroke-width:1.0;"/><text fill="#0A9EFD" font-family="Arial" font-size="13" lengthAdjust="spacing" textLength="130" x="195.5" y="813.9595">stopRecordingByUid():</text><text fill="#0A9EFD" font-family="Arial" font-size="13" lengthAdjust="spacing" textLength="213" x="158" y="828.9082">Enable the individual recording mode</text><polygon fill="#0A9EFD" points="135,878.6118,145,882.6118,135,886.6118,139,882.6118" style="stroke:#0A9EFD;stroke-width:1.0;"/><line style="stroke:#0A9EFD;stroke-width:2.0;" x1="38" x2="141" y1="882.6118" y2="882.6118"/><text fill="#0A9EFD" font-family="Arial" font-size="13" lengthAdjust="spacing" textLength="60" x="62.5" y="877.8569">Close App</text><line style="stroke:#0A9EFD;stroke-width:2.0;" x1="147" x2="189" y1="911.5605" y2="911.5605"/><line style="stroke:#0A9EFD;stroke-width:2.0;" x1="189" x2="189" y1="911.5605" y2="924.5605"/><line style="stroke:#0A9EFD;stroke-width:2.0;" x1="148" x2="189" y1="924.5605" y2="924.5605"/><polygon fill="#0A9EFD" points="158,920.5605,148,924.5605,158,928.5605,154,924.5605" style="stroke:#0A9EFD;stroke-width:1.0;"/><text fill="#0A9EFD" font-family="Arial" font-size="13" lengthAdjust="spacing" textLength="112" x="154" y="906.8057">Clean up resources</text><!--SRC=[ZPJ1Rjim38RlUWhEfmnO-m0v3F3I7R9YMn4l6mOCA1YBIRdAaY39MRUd7wquJfsuG8yM-V_yH59-mxOshIR0dGju7n_PNdFR6AMmJYv0iOuK2i08wsgbrCOzGV7JjG7G-q9v38bhzcWJ52kgNT1iTr3Tt6P9UNUdo6eGLIyjkofdkkhcQlNjIozOdWHI4AxUToPp-Eh9Gkczag_XS148av2BW2qdHiF_v1D21g40Iks2QpryjBWn1Ec1957pddMBfa_hU1kdQUHyiflblbGKzbpJEzYYYVHs3hyiL9I0il5dVeBa3Z7OIjEcYeokyycn5T3w0QqbSyGyEns0bdE8xIRMWJTK6bEscjsiXpYU0ne3s4KW9kbB4r_KVsTDq_fz5vdK_nQqnO6hLrx0BeVRETijJPT0EkSsf1a7NndmUBXLadLurgc-7Ls34Vx8Y4E3uN4qe4XfrKzvuUoMTn_-hbdFJfCPTa0oavZ6aVmmjzBgjTVYdplourWePg_iT0W_OyZiFTuPzGYlYmtlOSIMLPCBykg-9ETVhElyPDbNlO0BW8Lnij4NpyuGMcWxXYX_WfgY-Wy0]--></g></svg>