<svg xmlns="http://www.w3.org/2000/svg" xmlns:xlink="http://www.w3.org/1999/xlink" contentStyleType="text/css" data-diagram-type="SEQUENCE" height="1313px" preserveAspectRatio="none" style="width:434px;height:1313px;" version="1.1" viewBox="0 0 434 1313" width="434px" zoomAndPan="magnify"><?plantuml 1.2026.4?><defs/><g><rect fill="none" height="1311.0439" style="stroke:#0A9EFD;stroke-width:1;" width="432.8308" x="0" y="0"/><rect fill="#999999" fill-opacity="0.33333" height="1300.0439" style="stroke:#0A9EFD;stroke-width:0.5;" width="118.4893" x="71.3745" y="6"/><text fill="#0A9EFD" font-family="sans-serif" font-size="13" font-weight="700" lengthAdjust="spacing" textLength="56.3354" x="102.4514" y="19.4951">Your app</text><rect fill="#999999" fill-opacity="0.33333" height="1300.0439" style="stroke:#0A9EFD;stroke-width:0.5;" width="78.3257" x="334.5051" y="6"/><text fill="#0A9EFD" font-family="sans-serif" font-size="13" font-weight="700" lengthAdjust="spacing" textLength="37.5591" x="354.8884" y="19.4951">Agora</text><rect fill="#0A9EFD" fill-opacity="0.06667" height="130.7437" style="stroke:#0A9EFD;stroke-width:2;" width="204.9263" x="65.3745" y="132.0474"/><rect fill="#0A9EFD" fill-opacity="0.06667" height="244.5386" style="stroke:#0A9EFD;stroke-width:2;" width="313.2935" x="65.3745" y="276.791"/><rect fill="#0A9EFD" fill-opacity="0.06667" height="278.3848" style="stroke:#0A9EFD;stroke-width:2;" width="353.4563" x="65.3745" y="564.2783"/><rect fill="#0A9EFD" fill-opacity="0.06667" height="319.3335" style="stroke:#0A9EFD;stroke-width:2;" width="353.4563" x="65.3745" y="885.6118"/><g class="participant-lifeline" data-entity-uid="part1" data-qualified-name="USR" data-source-line="3" id="part1-lifeline"><g><title>User</title><rect fill="#000000" fill-opacity="0.00000" height="1135.8467" width="8" x="18.7793" y="86.0986"/><line style="stroke:#0A9EFD;stroke-width:0.5;stroke-dasharray:5,5;" x1="22" x2="22" y1="86.0986" y2="1221.9453"/></g></g><g class="participant-lifeline" data-entity-uid="part2" data-qualified-name="APP" data-source-line="6" id="part2-lifeline"><g><title>Recording SDK</title><rect fill="#000000" fill-opacity="0.00000" height="1135.8467" width="8" x="126.6191" y="86.0986"/><line style="stroke:#0A9EFD;stroke-width:0.5;stroke-dasharray:5,5;" x1="130.3745" x2="130.3745" y1="86.0986" y2="1221.9453"/></g></g><g class="participant-lifeline" data-entity-uid="part3" data-qualified-name="API" data-source-line="10" id="part3-lifeline"><g><title>SDRTN.sup....sup.</title><rect fill="#000000" fill-opacity="0.00000" height="1135.8467" width="8" x="369.668" y="86.0986"/><line style="stroke:#0A9EFD;stroke-width:0.5;stroke-dasharray:5,5;" x1="373.5051" x2="373.5051" y1="86.0986" y2="1221.9453"/></g></g><g class="participant participant-head" data-entity-uid="part1" data-qualified-name="USR" data-source-line="3" id="part1-head"><text fill="#0A9EFD" font-family="Arial" font-size="14" lengthAdjust="spacing" textLength="29.5586" x="5" y="83.1318">User</text><ellipse cx="22.7793" cy="16" fill="none" rx="8" ry="8" style="stroke:#0A9EFD;stroke-width:3;"/><path d="M22.7793,24 L22.7793,51 M9.7793,32 L35.7793,32 M22.7793,51 L9.7793,66 M22.7793,51 L35.7793,66" fill="none" style="stroke:#0A9EFD;stroke-width:3;"/></g><g class="participant participant-tail" data-entity-uid="part1" data-qualified-name="USR" data-source-line="3" id="part1-tail"><text fill="#0A9EFD" font-family="Arial" font-size="14" lengthAdjust="spacing" textLength="29.5586" x="5" y="1234.0771">User</text><ellipse cx="22.7793" cy="1248.0439" fill="none" rx="8" ry="8" style="stroke:#0A9EFD;stroke-width:3;"/><path d="M22.7793,1256.0439 L22.7793,1283.0439 M9.7793,1264.0439 L35.7793,1264.0439 M22.7793,1283.0439 L9.7793,1298.0439 M22.7793,1283.0439 L35.7793,1298.0439" fill="none" style="stroke:#0A9EFD;stroke-width:3;"/></g><g class="participant participant-head" data-entity-uid="part2" data-qualified-name="APP" data-source-line="6" id="part2-head"><rect fill="none" height="30.0986" rx="2.5" ry="2.5" style="stroke:#0A9EFD;stroke-width:2;" width="110.4893" x="75.3745" y="55"/><text fill="#0A9EFD" font-family="Arial" font-size="14" lengthAdjust="spacing" textLength="96.4893" x="82.3745" y="75.1318">Recording SDK</text></g><g class="participant participant-tail" data-entity-uid="part2" data-qualified-name="APP" data-source-line="6" id="part2-tail"><rect fill="none" height="30.0986" rx="2.5" ry="2.5" style="stroke:#0A9EFD;stroke-width:2;" width="110.4893" x="75.3745" y="1220.9453"/><text fill="#0A9EFD" font-family="Arial" font-size="14" lengthAdjust="spacing" textLength="96.4893" x="82.3745" y="1241.0771">Recording SDK</text></g><g class="participant participant-head" data-entity-uid="part3" data-qualified-name="API" data-source-line="10" id="part3-head"><rect fill="none" height="32.6489" rx="2.5" ry="2.5" style="stroke:#0A9EFD;stroke-width:2;" width="70.3257" x="338.5051" y="52.4497"/><text fill="#0A9EFD" font-family="Arial" font-size="14" lengthAdjust="spacing" textLength="48.2207" x="345.5051" y="75.1318">SDRTN</text><text fill="#0A9EFD" font-family="Arial" font-size="11" lengthAdjust="spacing" textLength="8.105" x="393.7258" y="69.7676">&#174;</text></g><g class="participant participant-tail" data-entity-uid="part3" data-qualified-name="API" data-source-line="10" id="part3-tail"><rect fill="none" height="32.6489" rx="2.5" ry="2.5" style="stroke:#0A9EFD;stroke-width:2;" width="70.3257" x="338.5051" y="1220.9453"/><text fill="#0A9EFD" font-family="Arial" font-size="14" lengthAdjust="spacing" textLength="48.2207" x="345.5051" y="1243.6274">SDRTN</text><text fill="#0A9EFD" font-family="Arial" font-size="11" lengthAdjust="spacing" textLength="8.105" x="393.7258" y="1238.2632">&#174;</text></g><g class="message" data-entity-1="part1" data-entity-2="part2" data-source-line="13" id="msg1"><polygon fill="#0A9EFD" points="118.6191,113.0474,128.6191,117.0474,118.6191,121.0474,122.6191,117.0474" style="stroke:#0A9EFD;stroke-width:1;stroke-linejoin:miter;stroke-miterlimit:10;"/><line style="stroke:#0A9EFD;stroke-width:2;" x1="22.7793" x2="124.6191" y1="117.0474" y2="117.0474"/><text fill="#0A9EFD" font-family="Arial" font-size="13" lengthAdjust="spacing" textLength="58.5444" x="47.427" y="112.2925">Open App</text></g><path d="M65.3745,132.0474 L232.4844,132.0474 L232.4844,138.9961 L222.4844,148.9961 L65.3745,148.9961 L65.3745,132.0474" fill="#EEEEEE" style="stroke:#0A9EFD;stroke-width:1.5;"/><rect fill="none" height="130.7437" style="stroke:#0A9EFD;stroke-width:2;" width="204.9263" x="65.3745" y="132.0474"/><text fill="#000000" font-family="Arial" font-size="13" lengthAdjust="spacing" textLength="122.1099" x="80.3745" y="145.2412">Create Agora service</text><g class="message" data-entity-1="part2" data-entity-2="part2" data-source-line="16" id="msg2"><line style="stroke:#0A9EFD;stroke-width:2;" x1="130.6191" x2="172.6191" y1="184.8936" y2="184.8936"/><line style="stroke:#0A9EFD;stroke-width:2;" x1="172.6191" x2="172.6191" y1="184.8936" y2="197.8936"/><line style="stroke:#0A9EFD;stroke-width:2;" x1="131.6191" x2="172.6191" y1="197.8936" y2="197.8936"/><polygon fill="#0A9EFD" points="141.6191,193.8936,131.6191,197.8936,141.6191,201.8936,137.6191,197.8936" style="stroke:#0A9EFD;stroke-width:1;stroke-linejoin:miter;stroke-miterlimit:10;"/><text fill="#0A9EFD" font-family="Arial" font-size="13" lengthAdjust="spacing" textLength="93.9199" x="145.2205" y="165.1899">AgoraService() :</text><text fill="#0A9EFD" font-family="Arial" font-size="13" lengthAdjust="spacing" textLength="109.1226" x="137.6191" y="180.1387">Create an instance</text></g><g class="message" data-entity-1="part2" data-entity-2="part2" data-source-line="17" id="msg3"><line style="stroke:#0A9EFD;stroke-width:2;" x1="130.6191" x2="172.6191" y1="241.791" y2="241.791"/><line style="stroke:#0A9EFD;stroke-width:2;" x1="172.6191" x2="172.6191" y1="241.791" y2="254.791"/><line style="stroke:#0A9EFD;stroke-width:2;" x1="131.6191" x2="172.6191" y1="254.791" y2="254.791"/><polygon fill="#0A9EFD" points="141.6191,250.791,131.6191,254.791,141.6191,258.791,137.6191,254.791" style="stroke:#0A9EFD;stroke-width:1;stroke-linejoin:miter;stroke-miterlimit:10;"/><text fill="#0A9EFD" font-family="Arial" font-size="13" lengthAdjust="spacing" textLength="58.5127" x="168.7036" y="222.0874">initialize():</text><text fill="#0A9EFD" font-family="Arial" font-size="13" lengthAdjust="spacing" textLength="120.6816" x="137.6191" y="237.0361">Initialize the instance</text></g><path d="M65.3745,276.791 L320.6533,276.791 L320.6533,283.7397 L310.6533,293.7397 L65.3745,293.7397 L65.3745,276.791" fill="#EEEEEE" style="stroke:#0A9EFD;stroke-width:1.5;"/><rect fill="none" height="244.5386" style="stroke:#0A9EFD;stroke-width:2;" width="313.2935" x="65.3745" y="276.791"/><text fill="#000000" font-family="Arial" font-size="13" lengthAdjust="spacing" textLength="210.2788" x="80.3745" y="289.9849">Configure a media recorder instance</text><g class="message" data-entity-1="part2" data-entity-2="part2" data-source-line="21" id="msg4"><line style="stroke:#0A9EFD;stroke-width:2;" x1="130.6191" x2="172.6191" y1="329.6372" y2="329.6372"/><line style="stroke:#0A9EFD;stroke-width:2;" x1="172.6191" x2="172.6191" y1="329.6372" y2="342.6372"/><line style="stroke:#0A9EFD;stroke-width:2;" x1="131.6191" x2="172.6191" y1="342.6372" y2="342.6372"/><polygon fill="#0A9EFD" points="141.6191,338.6372,131.6191,342.6372,141.6191,346.6372,137.6191,342.6372" style="stroke:#0A9EFD;stroke-width:1;stroke-linejoin:miter;stroke-miterlimit:10;"/><text fill="#0A9EFD" font-family="Arial" font-size="13" lengthAdjust="spacing" textLength="229.0488" x="137.6191" y="309.9336">createAgoraMediaComponentFactory():</text><text fill="#0A9EFD" font-family="Arial" font-size="13" lengthAdjust="spacing" textLength="199.437" x="152.425" y="324.8823">Create a media factory component</text></g><g class="message" data-entity-1="part2" data-entity-2="part2" data-source-line="22" id="msg5"><line style="stroke:#0A9EFD;stroke-width:2;" x1="130.6191" x2="172.6191" y1="386.5347" y2="386.5347"/><line style="stroke:#0A9EFD;stroke-width:2;" x1="172.6191" x2="172.6191" y1="386.5347" y2="399.5347"/><line style="stroke:#0A9EFD;stroke-width:2;" x1="131.6191" x2="172.6191" y1="399.5347" y2="399.5347"/><polygon fill="#0A9EFD" points="141.6191,395.5347,131.6191,399.5347,141.6191,403.5347,137.6191,399.5347" style="stroke:#0A9EFD;stroke-width:1;stroke-linejoin:miter;stroke-miterlimit:10;"/><text fill="#0A9EFD" font-family="Arial" font-size="13" lengthAdjust="spacing" textLength="156.7744" x="137.6191" y="366.8311">createMediaRtcRecorder():</text><text fill="#0A9EFD" font-family="Arial" font-size="13" lengthAdjust="spacing" textLength="140.8989" x="145.5569" y="381.7798">Create a media recorder</text></g><g class="message" data-entity-1="part2" data-entity-2="part2" data-source-line="23" id="msg6"><line style="stroke:#0A9EFD;stroke-width:2;" x1="130.6191" x2="172.6191" y1="443.4321" y2="443.4321"/><line style="stroke:#0A9EFD;stroke-width:2;" x1="172.6191" x2="172.6191" y1="443.4321" y2="456.4321"/><line style="stroke:#0A9EFD;stroke-width:2;" x1="131.6191" x2="172.6191" y1="456.4321" y2="456.4321"/><polygon fill="#0A9EFD" points="141.6191,452.4321,131.6191,456.4321,141.6191,460.4321,137.6191,456.4321" style="stroke:#0A9EFD;stroke-width:1;stroke-linejoin:miter;stroke-miterlimit:10;"/><text fill="#0A9EFD" font-family="Arial" font-size="13" lengthAdjust="spacing" textLength="58.5127" x="168.7036" y="423.7285">initialize():</text><text fill="#0A9EFD" font-family="Arial" font-size="13" lengthAdjust="spacing" textLength="120.6816" x="137.6191" y="438.6772">Initialize the instance</text></g><g class="message" data-entity-1="part2" data-entity-2="part2" data-source-line="24" id="msg7"><line style="stroke:#0A9EFD;stroke-width:2;" x1="130.6191" x2="172.6191" y1="500.3296" y2="500.3296"/><line style="stroke:#0A9EFD;stroke-width:2;" x1="172.6191" x2="172.6191" y1="500.3296" y2="513.3296"/><line style="stroke:#0A9EFD;stroke-width:2;" x1="131.6191" x2="172.6191" y1="513.3296" y2="513.3296"/><polygon fill="#0A9EFD" points="141.6191,509.3296,131.6191,513.3296,141.6191,517.3296,137.6191,513.3296" style="stroke:#0A9EFD;stroke-width:1;stroke-linejoin:miter;stroke-miterlimit:10;"/><text fill="#0A9EFD" font-family="Arial" font-size="13" lengthAdjust="spacing" textLength="183.5234" x="137.6191" y="480.626">registerRecorderEventHandle():</text><text fill="#0A9EFD" font-family="Arial" font-size="13" lengthAdjust="spacing" textLength="90.3208" x="184.2205" y="495.5747">Register events</text></g><g class="message" data-entity-1="part1" data-entity-2="part2" data-source-line="27" id="msg8"><polygon fill="#0A9EFD" points="118.6191,545.2783,128.6191,549.2783,118.6191,553.2783,122.6191,549.2783" style="stroke:#0A9EFD;stroke-width:1;stroke-linejoin:miter;stroke-miterlimit:10;"/><line style="stroke:#0A9EFD;stroke-width:2;" x1="22.7793" x2="124.6191" y1="549.2783" y2="549.2783"/><text fill="#0A9EFD" font-family="Arial" font-size="13" lengthAdjust="spacing" textLength="83.8398" x="34.7793" y="544.5234">Join a channel</text></g><path d="M65.3745,564.2783 L306.2188,564.2783 L306.2188,571.2271 L296.2188,581.2271 L65.3745,581.2271 L65.3745,564.2783" fill="#EEEEEE" style="stroke:#0A9EFD;stroke-width:1.5;"/><rect fill="none" height="278.3848" style="stroke:#0A9EFD;stroke-width:2;" width="353.4563" x="65.3745" y="564.2783"/><text fill="#000000" font-family="Arial" font-size="13" lengthAdjust="spacing" textLength="195.8442" x="80.3745" y="577.4722">Join a channel and start recording</text><g class="message" data-entity-1="part2" data-entity-2="part2" data-source-line="30" id="msg9"><line style="stroke:#0A9EFD;stroke-width:2;" x1="130.6191" x2="172.6191" y1="617.1245" y2="617.1245"/><line style="stroke:#0A9EFD;stroke-width:2;" x1="172.6191" x2="172.6191" y1="617.1245" y2="630.1245"/><line style="stroke:#0A9EFD;stroke-width:2;" x1="131.6191" x2="172.6191" y1="630.1245" y2="630.1245"/><polygon fill="#0A9EFD" points="141.6191,626.1245,131.6191,630.1245,141.6191,634.1245,137.6191,630.1245" style="stroke:#0A9EFD;stroke-width:1;stroke-linejoin:miter;stroke-miterlimit:10;"/><text fill="#0A9EFD" font-family="Arial" font-size="13" lengthAdjust="spacing" textLength="120.6563" x="152.0823" y="597.4209">setRecorderConfig():</text><text fill="#0A9EFD" font-family="Arial" font-size="13" lengthAdjust="spacing" textLength="149.5825" x="137.6191" y="612.3696">Set recorder configuration</text></g><g class="message" data-entity-1="part2" data-entity-2="part3" data-source-line="31" id="msg10"><polygon fill="#0A9EFD" points="361.668,670.022,371.668,674.022,361.668,678.022,365.668,674.022" style="stroke:#0A9EFD;stroke-width:1;stroke-linejoin:miter;stroke-miterlimit:10;"/><line style="stroke:#0A9EFD;stroke-width:2;" x1="130.6191" x2="367.668" y1="674.022" y2="674.022"/><text fill="#0A9EFD" font-family="Arial" font-size="13" lengthAdjust="spacing" textLength="80.9326" x="211.6772" y="654.3184">joinChannel():</text><text fill="#0A9EFD" font-family="Arial" font-size="13" lengthAdjust="spacing" textLength="83.8398" x="210.2236" y="669.2671">Join a channel</text></g><g class="message" data-entity-1="part2" data-entity-2="part3" data-source-line="32" id="msg11"><polygon fill="#0A9EFD" points="361.668,713.9194,371.668,717.9194,361.668,721.9194,365.668,717.9194" style="stroke:#0A9EFD;stroke-width:1;stroke-linejoin:miter;stroke-miterlimit:10;"/><line style="stroke:#0A9EFD;stroke-width:2;" x1="130.6191" x2="367.668" y1="717.9194" y2="717.9194"/><text fill="#0A9EFD" font-family="Arial" font-size="13" lengthAdjust="spacing" textLength="115.6035" x="194.3418" y="698.2158">subscribeAllAudio():</text><text fill="#0A9EFD" font-family="Arial" font-size="13" lengthAdjust="spacing" textLength="159.688" x="172.2996" y="713.1646">Subscribe all audio streams</text></g><g class="message" data-entity-1="part2" data-entity-2="part3" data-source-line="33" id="msg12"><polygon fill="#0A9EFD" points="361.668,757.8169,371.668,761.8169,361.668,765.8169,365.668,761.8169" style="stroke:#0A9EFD;stroke-width:1;stroke-linejoin:miter;stroke-miterlimit:10;"/><line style="stroke:#0A9EFD;stroke-width:2;" x1="130.6191" x2="367.668" y1="761.8169" y2="761.8169"/><text fill="#0A9EFD" font-family="Arial" font-size="13" lengthAdjust="spacing" textLength="115.6035" x="194.3418" y="742.1133">subscribeAllVideo():</text><text fill="#0A9EFD" font-family="Arial" font-size="13" lengthAdjust="spacing" textLength="158.958" x="172.6646" y="757.062">Subscribe all video streams</text></g><g class="message" data-entity-1="part2" data-entity-2="part3" data-source-line="34" id="msg13"><polygon fill="#0A9EFD" points="361.668,801.7144,371.668,805.7144,361.668,809.7144,365.668,805.7144" style="stroke:#0A9EFD;stroke-width:1;stroke-linejoin:miter;stroke-miterlimit:10;"/><line style="stroke:#0A9EFD;stroke-width:2;" x1="130.6191" x2="367.668" y1="805.7144" y2="805.7144"/><text fill="#0A9EFD" font-family="Arial" font-size="13" lengthAdjust="spacing" textLength="96.8081" x="203.7395" y="786.0107">startRecording():</text><text fill="#0A9EFD" font-family="Arial" font-size="13" lengthAdjust="spacing" textLength="180.6733" x="161.8069" y="800.9595">Start audio and video recording</text></g><g class="message" data-entity-1="part3" data-entity-2="part2" data-source-line="35" id="msg14"><polygon fill="#0A9EFD" points="141.6191,830.6631,131.6191,834.6631,141.6191,838.6631,137.6191,834.6631" style="stroke:#0A9EFD;stroke-width:1;stroke-linejoin:miter;stroke-miterlimit:10;"/><line style="stroke:#0A9EFD;stroke-width:2;" x1="135.6191" x2="372.668" y1="834.6631" y2="834.6631"/><text fill="#0A9EFD" font-family="Arial" font-size="13" lengthAdjust="spacing" textLength="85.249" x="209.519" y="829.9082">media streams</text></g><g class="message" data-entity-1="part1" data-entity-2="part2" data-source-line="38" id="msg15"><polygon fill="#0A9EFD" points="118.6191,866.6118,128.6191,870.6118,118.6191,874.6118,122.6191,870.6118" style="stroke:#0A9EFD;stroke-width:1;stroke-linejoin:miter;stroke-miterlimit:10;"/><line style="stroke:#0A9EFD;stroke-width:2;" x1="22.7793" x2="124.6191" y1="870.6118" y2="870.6118"/><text fill="#0A9EFD" font-family="Arial" font-size="13" lengthAdjust="spacing" textLength="59.979" x="46.7097" y="865.8569">Close App</text></g><path d="M65.3745,885.6118 L223.1025,885.6118 L223.1025,892.5605 L213.1025,902.5605 L65.3745,902.5605 L65.3745,885.6118" fill="#EEEEEE" style="stroke:#0A9EFD;stroke-width:1.5;"/><rect fill="none" height="319.3335" style="stroke:#0A9EFD;stroke-width:2;" width="353.4563" x="65.3745" y="885.6118"/><text fill="#000000" font-family="Arial" font-size="13" lengthAdjust="spacing" textLength="112.728" x="80.3745" y="898.8057">Clean up resources</text><g class="message" data-entity-1="part2" data-entity-2="part3" data-source-line="41" id="msg16"><polygon fill="#0A9EFD" points="361.668,934.458,371.668,938.458,361.668,942.458,365.668,938.458" style="stroke:#0A9EFD;stroke-width:1;stroke-linejoin:miter;stroke-miterlimit:10;"/><line style="stroke:#0A9EFD;stroke-width:2;" x1="130.6191" x2="367.668" y1="938.458" y2="938.458"/><text fill="#0A9EFD" font-family="Arial" font-size="13" lengthAdjust="spacing" textLength="130.0635" x="187.1118" y="918.7544">unsubscribeAllAudio():</text><text fill="#0A9EFD" font-family="Arial" font-size="13" lengthAdjust="spacing" textLength="124.2935" x="189.9968" y="933.7031">Unsubscribe all audio</text></g><g class="message" data-entity-1="part2" data-entity-2="part3" data-source-line="42" id="msg17"><polygon fill="#0A9EFD" points="361.668,978.3555,371.668,982.3555,361.668,986.3555,365.668,982.3555" style="stroke:#0A9EFD;stroke-width:1;stroke-linejoin:miter;stroke-miterlimit:10;"/><line style="stroke:#0A9EFD;stroke-width:2;" x1="130.6191" x2="367.668" y1="982.3555" y2="982.3555"/><text fill="#0A9EFD" font-family="Arial" font-size="13" lengthAdjust="spacing" textLength="130.0635" x="187.1118" y="962.6519">unsubscribeAllVideo():</text><text fill="#0A9EFD" font-family="Arial" font-size="13" lengthAdjust="spacing" textLength="123.5635" x="190.3618" y="977.6006">Unsubscribe all video</text></g><g class="message" data-entity-1="part2" data-entity-2="part2" data-source-line="43" id="msg18"><line style="stroke:#0A9EFD;stroke-width:2;" x1="130.6191" x2="172.6191" y1="1026.2529" y2="1026.2529"/><line style="stroke:#0A9EFD;stroke-width:2;" x1="172.6191" x2="172.6191" y1="1026.2529" y2="1039.2529"/><line style="stroke:#0A9EFD;stroke-width:2;" x1="131.6191" x2="172.6191" y1="1039.2529" y2="1039.2529"/><polygon fill="#0A9EFD" points="141.6191,1035.2529,131.6191,1039.2529,141.6191,1043.2529,137.6191,1039.2529" style="stroke:#0A9EFD;stroke-width:1;stroke-linejoin:miter;stroke-miterlimit:10;"/><text fill="#0A9EFD" font-family="Arial" font-size="13" lengthAdjust="spacing" textLength="96.0972" x="176.2764" y="1006.5493">stopRecording():</text><text fill="#0A9EFD" font-family="Arial" font-size="13" lengthAdjust="spacing" textLength="173.4116" x="137.6191" y="1021.498">Stop recording media streams</text></g><g class="message" data-entity-1="part2" data-entity-2="part2" data-source-line="44" id="msg19"><line style="stroke:#0A9EFD;stroke-width:2;" x1="130.6191" x2="172.6191" y1="1083.1504" y2="1083.1504"/><line style="stroke:#0A9EFD;stroke-width:2;" x1="172.6191" x2="172.6191" y1="1083.1504" y2="1096.1504"/><line style="stroke:#0A9EFD;stroke-width:2;" x1="131.6191" x2="172.6191" y1="1096.1504" y2="1096.1504"/><polygon fill="#0A9EFD" points="141.6191,1092.1504,131.6191,1096.1504,141.6191,1100.1504,137.6191,1096.1504" style="stroke:#0A9EFD;stroke-width:1;stroke-linejoin:miter;stroke-miterlimit:10;"/><text fill="#0A9EFD" font-family="Arial" font-size="13" lengthAdjust="spacing" textLength="197.9834" x="137.6191" y="1063.4468">unregisterRecorderEventHandle():</text><text fill="#0A9EFD" font-family="Arial" font-size="13" lengthAdjust="spacing" textLength="101.8799" x="185.6709" y="1078.3955">Unregister events</text></g><g class="message" data-entity-1="part2" data-entity-2="part3" data-source-line="45" id="msg20"><polygon fill="#0A9EFD" points="361.668,1136.0479,371.668,1140.0479,361.668,1144.0479,365.668,1140.0479" style="stroke:#0A9EFD;stroke-width:1;stroke-linejoin:miter;stroke-miterlimit:10;"/><line style="stroke:#0A9EFD;stroke-width:2;" x1="130.6191" x2="367.668" y1="1140.0479" y2="1140.0479"/><text fill="#0A9EFD" font-family="Arial" font-size="13" lengthAdjust="spacing" textLength="91.7744" x="206.2563" y="1120.3442">leaveChannel():</text><text fill="#0A9EFD" font-family="Arial" font-size="13" lengthAdjust="spacing" textLength="106.2534" x="199.0168" y="1135.293">Leave the channel</text></g><g class="message" data-entity-1="part2" data-entity-2="part2" data-source-line="46" id="msg21"><line style="stroke:#0A9EFD;stroke-width:2;" x1="130.6191" x2="172.6191" y1="1183.9453" y2="1183.9453"/><line style="stroke:#0A9EFD;stroke-width:2;" x1="172.6191" x2="172.6191" y1="1183.9453" y2="1196.9453"/><line style="stroke:#0A9EFD;stroke-width:2;" x1="131.6191" x2="172.6191" y1="1196.9453" y2="1196.9453"/><polygon fill="#0A9EFD" points="141.6191,1192.9453,131.6191,1196.9453,141.6191,1200.9453,137.6191,1196.9453" style="stroke:#0A9EFD;stroke-width:1;stroke-linejoin:miter;stroke-miterlimit:10;"/><text fill="#0A9EFD" font-family="Arial" font-size="13" lengthAdjust="spacing" textLength="54.9072" x="212.4167" y="1164.2417">release():</text><text fill="#0A9EFD" font-family="Arial" font-size="13" lengthAdjust="spacing" textLength="204.5024" x="137.6191" y="1179.1904">Release the Agora service instance</text></g><?plantuml-src dLJRZjGm37tlLvXvWWVWVRHQgPe5xN1TjGmI4XBAfDvkeED4IJe2FegFuCjmawQtxOB4Krl7n-VuEEuZHR9fAmHHQok-k6-Adgdsr6IPa5vRs1mSsWq81uUooBAZ_WwRJxgr88pPP4POhwGoWZni2fJQLefgAAzU1qX-SvCXLS2e7fftB0jSULLyU7VXMdFv-zV5y-xPW_SZcCdXwMLNS0ll3HBancHPRNLhO6THU8HG6bZjMKdCE7C0X9Co7Zn-0jlFr4C4WIBd1Iq0YfHNeb4_EPspzyCd-3iS8QnkqA3fLjMjvPfmmae9iC4DjEiCCWW8mjvswJjzCfgG_CjW-u_0crJs5M_Z4SYKkr8n52kyB7hsjJf9sV-qF8LOh9NpQ1FNYpDhkXPKDR56qPy3TWSksZKTv2kjY5N9Eq64JR9o7kKPLS3arlUw-NxDL3ZqIK0SGk0kqOyJaFrmX5UQHl1-2r-PQnU90coXQ9hgsgEJLXqnRvgyhPIEF2aAec6jNPpLijydzo3wewfm3NtkuklehlzXlI8qM189EuiYU6hHVh0eZZqLlZU6NQCTpXQgGTuCVh7eUDKbpjMqjEx5OOoFRlm5EVgmH8PcvbFssYmDq6RiTz7Z5DhIloxgOSX8LtKgciquu_IIlEa2OItktPEm5GnmQGF2UyYT_Pxc_v0_?></g></svg>