<?xml version="1.0" encoding="us-ascii" standalone="no"?><svg xmlns="http://www.w3.org/2000/svg" xmlns:xlink="http://www.w3.org/1999/xlink" contentStyleType="text/css" height="1312px" preserveAspectRatio="none" style="width:425px;height:1312px;" version="1.1" viewBox="0 0 425 1312" width="425px" zoomAndPan="magnify"><defs/><g><rect fill="none" height="1310.0439" style="stroke:#0A9EFD;stroke-width:1.0;" width="423.5" x="0" y="0"/><rect fill="#999999" fill-opacity="0.33333" height="1300.0439" style="stroke:#0A9EFD;stroke-width:0.5;" width="119" x="71.5" y="6"/><text fill="#0A9EFD" font-family="sans-serif" font-size="13" font-weight="bold" lengthAdjust="spacing" textLength="62" x="100" y="18.5684">Your app</text><rect fill="#999999" fill-opacity="0.33333" height="1300.0439" style="stroke:#0A9EFD;stroke-width:0.5;" width="75" x="338.5" y="6"/><text fill="#0A9EFD" font-family="sans-serif" font-size="13" font-weight="bold" lengthAdjust="spacing" textLength="41" x="355.5" y="18.5684">Agora</text><rect fill="#0A9EFD" fill-opacity="0.06667" height="130.7437" style="stroke:#0A9EFD;stroke-width:2.0;" width="211.5" x="65.5" y="132.0474"/><rect fill="#0A9EFD" fill-opacity="0.06667" height="244.5386" style="stroke:#0A9EFD;stroke-width:2.0;" width="315.5" x="65.5" y="276.791"/><rect fill="#0A9EFD" fill-opacity="0.06667" height="278.3848" style="stroke:#0A9EFD;stroke-width:2.0;" width="354" x="65.5" y="564.2783"/><rect fill="#0A9EFD" fill-opacity="0.06667" height="319.3335" style="stroke:#0A9EFD;stroke-width:2.0;" width="354" x="65.5" y="885.6118"/><line style="stroke:#0A9EFD;stroke-width:0.5;stroke-dasharray:5.0,5.0;" x1="23" x2="23" y1="86.0986" y2="1221.9453"/><line style="stroke:#0A9EFD;stroke-width:0.5;stroke-dasharray:5.0,5.0;" x1="130.5" x2="130.5" y1="86.0986" y2="1221.9453"/><line style="stroke:#0A9EFD;stroke-width:0.5;stroke-dasharray:5.0,5.0;" x1="375.5" x2="375.5" y1="86.0986" y2="1221.9453"/><text fill="#0A9EFD" font-family="Arial" font-size="14" lengthAdjust="spacing" textLength="30" x="5" y="83.1318">User</text><ellipse cx="23" cy="16" fill="none" rx="8" ry="8" style="stroke:#0A9EFD;stroke-width:3.0;"/><path d="M23,24 L23,51 M10,32 L36,32 M23,51 L10,66 M23,51 L36,66 " fill="none" style="stroke:#0A9EFD;stroke-width:3.0;"/><text fill="#0A9EFD" font-family="Arial" font-size="14" lengthAdjust="spacing" textLength="30" x="5" y="1234.0771">User</text><ellipse cx="23" cy="1248.0439" fill="none" rx="8" ry="8" style="stroke:#0A9EFD;stroke-width:3.0;"/><path d="M23,1256.0439 L23,1283.0439 M10,1264.0439 L36,1264.0439 M23,1283.0439 L10,1298.0439 M23,1283.0439 L36,1298.0439 " fill="none" style="stroke:#0A9EFD;stroke-width:3.0;"/><rect fill="none" height="30.0986" rx="2.5" ry="2.5" style="stroke:#0A9EFD;stroke-width:2.0;" width="111" x="75.5" y="55"/><text fill="#0A9EFD" font-family="Arial" font-size="14" lengthAdjust="spacing" textLength="97" x="82.5" y="75.1318">Recording SDK</text><rect fill="none" height="30.0986" rx="2.5" ry="2.5" style="stroke:#0A9EFD;stroke-width:2.0;" width="111" x="75.5" y="1220.9453"/><text fill="#0A9EFD" font-family="Arial" font-size="14" lengthAdjust="spacing" textLength="97" x="82.5" y="1241.0771">Recording SDK</text><rect fill="none" height="30.0986" rx="2.5" ry="2.5" style="stroke:#0A9EFD;stroke-width:2.0;" width="67" x="342.5" y="55"/><text fill="#0A9EFD" font-family="Arial" font-size="14" lengthAdjust="spacing" textLength="53" x="349.5" y="75.1318">SD-RTN</text><rect fill="none" height="30.0986" rx="2.5" ry="2.5" style="stroke:#0A9EFD;stroke-width:2.0;" width="67" x="342.5" y="1220.9453"/><text fill="#0A9EFD" font-family="Arial" font-size="14" lengthAdjust="spacing" textLength="53" x="349.5" y="1241.0771">SD-RTN</text><polygon fill="#0A9EFD" points="119,113.0474,129,117.0474,119,121.0474,123,117.0474" style="stroke:#0A9EFD;stroke-width:1.0;"/><line style="stroke:#0A9EFD;stroke-width:2.0;" x1="23" x2="125" y1="117.0474" y2="117.0474"/><text fill="#0A9EFD" font-family="Arial" font-size="13" lengthAdjust="spacing" textLength="58" x="48" y="112.2925">Open App</text><path d="M65.5,132.0474 L232.5,132.0474 L232.5,138.9961 L222.5,148.9961 L65.5,148.9961 L65.5,132.0474 " fill="#EEEEEE" style="stroke:#0A9EFD;stroke-width:1.5;"/><rect fill="none" height="130.7437" style="stroke:#0A9EFD;stroke-width:2.0;" width="211.5" x="65.5" y="132.0474"/><text fill="#000000" font-family="Arial" font-size="13" lengthAdjust="spacing" textLength="122" x="80.5" y="145.2412">Create Agora service</text><line style="stroke:#0A9EFD;stroke-width:2.0;" x1="131" x2="173" y1="184.8936" y2="184.8936"/><line style="stroke:#0A9EFD;stroke-width:2.0;" x1="173" x2="173" y1="184.8936" y2="197.8936"/><line style="stroke:#0A9EFD;stroke-width:2.0;" x1="132" x2="173" y1="197.8936" y2="197.8936"/><polygon fill="#0A9EFD" points="142,193.8936,132,197.8936,142,201.8936,138,197.8936" style="stroke:#0A9EFD;stroke-width:1.0;"/><text fill="#0A9EFD" font-family="Arial" font-size="13" lengthAdjust="spacing" textLength="94" x="145.5" y="165.1899">AgoraService() :</text><text fill="#0A9EFD" font-family="Arial" font-size="13" lengthAdjust="spacing" textLength="109" x="142" y="180.1387">Create an instance</text><line style="stroke:#0A9EFD;stroke-width:2.0;" x1="131" x2="173" y1="241.791" y2="241.791"/><line style="stroke:#0A9EFD;stroke-width:2.0;" x1="173" x2="173" y1="241.791" y2="254.791"/><line style="stroke:#0A9EFD;stroke-width:2.0;" x1="132" x2="173" y1="254.791" y2="254.791"/><polygon fill="#0A9EFD" points="142,250.791,132,254.791,142,258.791,138,254.791" style="stroke:#0A9EFD;stroke-width:1.0;"/><text fill="#0A9EFD" font-family="Arial" font-size="13" lengthAdjust="spacing" textLength="59" x="170" y="222.0874">initialize():</text><text fill="#0A9EFD" font-family="Arial" font-size="13" lengthAdjust="spacing" textLength="123" x="142" y="237.0361">Initialize the instance</text><path d="M65.5,276.791 L319.5,276.791 L319.5,283.7397 L309.5,293.7397 L65.5,293.7397 L65.5,276.791 " fill="#EEEEEE" style="stroke:#0A9EFD;stroke-width:1.5;"/><rect fill="none" height="244.5386" style="stroke:#0A9EFD;stroke-width:2.0;" width="315.5" x="65.5" y="276.791"/><text fill="#000000" font-family="Arial" font-size="13" lengthAdjust="spacing" textLength="209" x="80.5" y="289.9849">Configure a media recorder instance</text><line style="stroke:#0A9EFD;stroke-width:2.0;" x1="131" x2="173" y1="329.6372" y2="329.6372"/><line style="stroke:#0A9EFD;stroke-width:2.0;" x1="173" x2="173" y1="329.6372" y2="342.6372"/><line style="stroke:#0A9EFD;stroke-width:2.0;" x1="132" x2="173" y1="342.6372" y2="342.6372"/><polygon fill="#0A9EFD" points="142,338.6372,132,342.6372,142,346.6372,138,342.6372" style="stroke:#0A9EFD;stroke-width:1.0;"/><text fill="#0A9EFD" font-family="Arial" font-size="13" lengthAdjust="spacing" textLength="227" x="138" y="309.9336">createAgoraMediaComponentFactory():</text><text fill="#0A9EFD" font-family="Arial" font-size="13" lengthAdjust="spacing" textLength="200" x="155.5" y="324.8823">Create a media factory component</text><line style="stroke:#0A9EFD;stroke-width:2.0;" x1="131" x2="173" y1="386.5347" y2="386.5347"/><line style="stroke:#0A9EFD;stroke-width:2.0;" x1="173" x2="173" y1="386.5347" y2="399.5347"/><line style="stroke:#0A9EFD;stroke-width:2.0;" x1="132" x2="173" y1="399.5347" y2="399.5347"/><polygon fill="#0A9EFD" points="142,395.5347,132,399.5347,142,403.5347,138,399.5347" style="stroke:#0A9EFD;stroke-width:1.0;"/><text fill="#0A9EFD" font-family="Arial" font-size="13" lengthAdjust="spacing" textLength="155" x="138" y="366.8311">createMediaRtcRecorder():</text><text fill="#0A9EFD" font-family="Arial" font-size="13" lengthAdjust="spacing" textLength="139" x="150" y="381.7798">Create a media recorder</text><line style="stroke:#0A9EFD;stroke-width:2.0;" x1="131" x2="173" y1="443.4321" y2="443.4321"/><line style="stroke:#0A9EFD;stroke-width:2.0;" x1="173" x2="173" y1="443.4321" y2="456.4321"/><line style="stroke:#0A9EFD;stroke-width:2.0;" x1="132" x2="173" y1="456.4321" y2="456.4321"/><polygon fill="#0A9EFD" points="142,452.4321,132,456.4321,142,460.4321,138,456.4321" style="stroke:#0A9EFD;stroke-width:1.0;"/><text fill="#0A9EFD" font-family="Arial" font-size="13" lengthAdjust="spacing" textLength="59" x="170" y="423.7285">initialize():</text><text fill="#0A9EFD" font-family="Arial" font-size="13" lengthAdjust="spacing" textLength="123" x="142" y="438.6772">Initialize the instance</text><line style="stroke:#0A9EFD;stroke-width:2.0;" x1="131" x2="173" y1="500.3296" y2="500.3296"/><line style="stroke:#0A9EFD;stroke-width:2.0;" x1="173" x2="173" y1="500.3296" y2="513.3296"/><line style="stroke:#0A9EFD;stroke-width:2.0;" x1="132" x2="173" y1="513.3296" y2="513.3296"/><polygon fill="#0A9EFD" points="142,509.3296,132,513.3296,142,517.3296,138,513.3296" style="stroke:#0A9EFD;stroke-width:1.0;"/><text fill="#0A9EFD" font-family="Arial" font-size="13" lengthAdjust="spacing" textLength="181" x="138" y="480.626">registerRecorderEventHandle():</text><text fill="#0A9EFD" font-family="Arial" font-size="13" lengthAdjust="spacing" textLength="91" x="187" y="495.5747">Register events</text><polygon fill="#0A9EFD" points="119,545.2783,129,549.2783,119,553.2783,123,549.2783" style="stroke:#0A9EFD;stroke-width:1.0;"/><line style="stroke:#0A9EFD;stroke-width:2.0;" x1="23" x2="125" y1="549.2783" y2="549.2783"/><text fill="#0A9EFD" font-family="Arial" font-size="13" lengthAdjust="spacing" textLength="84" x="35" y="544.5234">Join a channel</text><path d="M65.5,564.2783 L306.5,564.2783 L306.5,571.2271 L296.5,581.2271 L65.5,581.2271 L65.5,564.2783 " fill="#EEEEEE" style="stroke:#0A9EFD;stroke-width:1.5;"/><rect fill="none" height="278.3848" style="stroke:#0A9EFD;stroke-width:2.0;" width="354" x="65.5" y="564.2783"/><text fill="#000000" font-family="Arial" font-size="13" lengthAdjust="spacing" textLength="196" x="80.5" y="577.4722">Join a channel and start recording</text><line style="stroke:#0A9EFD;stroke-width:2.0;" x1="131" x2="173" y1="617.1245" y2="617.1245"/><line style="stroke:#0A9EFD;stroke-width:2.0;" x1="173" x2="173" y1="617.1245" y2="630.1245"/><line style="stroke:#0A9EFD;stroke-width:2.0;" x1="132" x2="173" y1="630.1245" y2="630.1245"/><polygon fill="#0A9EFD" points="142,626.1245,132,630.1245,142,634.1245,138,630.1245" style="stroke:#0A9EFD;stroke-width:1.0;"/><text fill="#0A9EFD" font-family="Arial" font-size="13" lengthAdjust="spacing" textLength="119" x="153" y="597.4209">setRecorderConfig():</text><text fill="#0A9EFD" font-family="Arial" font-size="13" lengthAdjust="spacing" textLength="149" x="142" y="612.3696">Set recorder configuration</text><polygon fill="#0A9EFD" points="364,670.022,374,674.022,364,678.022,368,674.022" style="stroke:#0A9EFD;stroke-width:1.0;"/><line style="stroke:#0A9EFD;stroke-width:2.0;" x1="131" x2="370" y1="674.022" y2="674.022"/><text fill="#0A9EFD" font-family="Arial" font-size="13" lengthAdjust="spacing" textLength="79" x="212" y="654.3184">joinChannel():</text><text fill="#0A9EFD" font-family="Arial" font-size="13" lengthAdjust="spacing" textLength="84" x="213.5" y="669.2671">Join a channel</text><polygon fill="#0A9EFD" points="364,713.9194,374,717.9194,364,721.9194,368,717.9194" style="stroke:#0A9EFD;stroke-width:1.0;"/><line style="stroke:#0A9EFD;stroke-width:2.0;" x1="131" x2="370" y1="717.9194" y2="717.9194"/><text fill="#0A9EFD" font-family="Arial" font-size="13" lengthAdjust="spacing" textLength="116" x="193.5" y="698.2158">subscribeAllAudio():</text><text fill="#0A9EFD" font-family="Arial" font-size="13" lengthAdjust="spacing" textLength="161" x="175" y="713.1646">Subscribe all audio streams</text><polygon fill="#0A9EFD" points="364,757.8169,374,761.8169,364,765.8169,368,761.8169" style="stroke:#0A9EFD;stroke-width:1.0;"/><line style="stroke:#0A9EFD;stroke-width:2.0;" x1="131" x2="370" y1="761.8169" y2="761.8169"/><text fill="#0A9EFD" font-family="Arial" font-size="13" lengthAdjust="spacing" textLength="116" x="193.5" y="742.1133">subscribeAllVideo():</text><text fill="#0A9EFD" font-family="Arial" font-size="13" lengthAdjust="spacing" textLength="161" x="175" y="757.062">Subscribe all video streams</text><polygon fill="#0A9EFD" points="364,801.7144,374,805.7144,364,809.7144,368,805.7144" style="stroke:#0A9EFD;stroke-width:1.0;"/><line style="stroke:#0A9EFD;stroke-width:2.0;" x1="131" x2="370" y1="805.7144" y2="805.7144"/><text fill="#0A9EFD" font-family="Arial" font-size="13" lengthAdjust="spacing" textLength="96" x="203.5" y="786.0107">startRecording():</text><text fill="#0A9EFD" font-family="Arial" font-size="13" lengthAdjust="spacing" textLength="180" x="165.5" y="800.9595">Start audio and video recording</text><polygon fill="#0A9EFD" points="142,830.6631,132,834.6631,142,838.6631,138,834.6631" style="stroke:#0A9EFD;stroke-width:1.0;"/><line style="stroke:#0A9EFD;stroke-width:2.0;" x1="136" x2="375" y1="834.6631" y2="834.6631"/><text fill="#0A9EFD" font-family="Arial" font-size="13" lengthAdjust="spacing" textLength="86" x="210.5" y="829.9082">media streams</text><polygon fill="#0A9EFD" points="119,866.6118,129,870.6118,119,874.6118,123,870.6118" style="stroke:#0A9EFD;stroke-width:1.0;"/><line style="stroke:#0A9EFD;stroke-width:2.0;" x1="23" x2="125" y1="870.6118" y2="870.6118"/><text fill="#0A9EFD" font-family="Arial" font-size="13" lengthAdjust="spacing" textLength="60" x="47" y="865.8569">Close App</text><path d="M65.5,885.6118 L222.5,885.6118 L222.5,892.5605 L212.5,902.5605 L65.5,902.5605 L65.5,885.6118 " fill="#EEEEEE" style="stroke:#0A9EFD;stroke-width:1.5;"/><rect fill="none" height="319.3335" style="stroke:#0A9EFD;stroke-width:2.0;" width="354" x="65.5" y="885.6118"/><text fill="#000000" font-family="Arial" font-size="13" lengthAdjust="spacing" textLength="112" x="80.5" y="898.8057">Clean up resources</text><polygon fill="#0A9EFD" points="364,934.458,374,938.458,364,942.458,368,938.458" style="stroke:#0A9EFD;stroke-width:1.0;"/><line style="stroke:#0A9EFD;stroke-width:2.0;" x1="131" x2="370" y1="938.458" y2="938.458"/><text fill="#0A9EFD" font-family="Arial" font-size="13" lengthAdjust="spacing" textLength="130" x="186.5" y="918.7544">unsubscribeAllAudio():</text><text fill="#0A9EFD" font-family="Arial" font-size="13" lengthAdjust="spacing" textLength="124" x="193.5" y="933.7031">Unsubscribe all audio</text><polygon fill="#0A9EFD" points="364,978.3555,374,982.3555,364,986.3555,368,982.3555" style="stroke:#0A9EFD;stroke-width:1.0;"/><line style="stroke:#0A9EFD;stroke-width:2.0;" x1="131" x2="370" y1="982.3555" y2="982.3555"/><text fill="#0A9EFD" font-family="Arial" font-size="13" lengthAdjust="spacing" textLength="130" x="186.5" y="962.6519">unsubscribeAllVideo():</text><text fill="#0A9EFD" font-family="Arial" font-size="13" lengthAdjust="spacing" textLength="124" x="193.5" y="977.6006">Unsubscribe all video</text><line style="stroke:#0A9EFD;stroke-width:2.0;" x1="131" x2="173" y1="1026.2529" y2="1026.2529"/><line style="stroke:#0A9EFD;stroke-width:2.0;" x1="173" x2="173" y1="1026.2529" y2="1039.2529"/><line style="stroke:#0A9EFD;stroke-width:2.0;" x1="132" x2="173" y1="1039.2529" y2="1039.2529"/><polygon fill="#0A9EFD" points="142,1035.2529,132,1039.2529,142,1043.2529,138,1039.2529" style="stroke:#0A9EFD;stroke-width:1.0;"/><text fill="#0A9EFD" font-family="Arial" font-size="13" lengthAdjust="spacing" textLength="95" x="177.5" y="1006.5493">stopRecording():</text><text fill="#0A9EFD" font-family="Arial" font-size="13" lengthAdjust="spacing" textLength="174" x="142" y="1021.498">Stop recording media streams</text><line style="stroke:#0A9EFD;stroke-width:2.0;" x1="131" x2="173" y1="1083.1504" y2="1083.1504"/><line style="stroke:#0A9EFD;stroke-width:2.0;" x1="173" x2="173" y1="1083.1504" y2="1096.1504"/><line style="stroke:#0A9EFD;stroke-width:2.0;" x1="132" x2="173" y1="1096.1504" y2="1096.1504"/><polygon fill="#0A9EFD" points="142,1092.1504,132,1096.1504,142,1100.1504,138,1096.1504" style="stroke:#0A9EFD;stroke-width:1.0;"/><text fill="#0A9EFD" font-family="Arial" font-size="13" lengthAdjust="spacing" textLength="195" x="138" y="1063.4468">unregisterRecorderEventHandle():</text><text fill="#0A9EFD" font-family="Arial" font-size="13" lengthAdjust="spacing" textLength="102" x="188.5" y="1078.3955">Unregister events</text><polygon fill="#0A9EFD" points="364,1136.0479,374,1140.0479,364,1144.0479,368,1140.0479" style="stroke:#0A9EFD;stroke-width:1.0;"/><line style="stroke:#0A9EFD;stroke-width:2.0;" x1="131" x2="370" y1="1140.0479" y2="1140.0479"/><text fill="#0A9EFD" font-family="Arial" font-size="13" lengthAdjust="spacing" textLength="90" x="206.5" y="1120.3442">leaveChannel():</text><text fill="#0A9EFD" font-family="Arial" font-size="13" lengthAdjust="spacing" textLength="106" x="202.5" y="1135.293">Leave the channel</text><line style="stroke:#0A9EFD;stroke-width:2.0;" x1="131" x2="173" y1="1183.9453" y2="1183.9453"/><line style="stroke:#0A9EFD;stroke-width:2.0;" x1="173" x2="173" y1="1183.9453" y2="1196.9453"/><line style="stroke:#0A9EFD;stroke-width:2.0;" x1="132" x2="173" y1="1196.9453" y2="1196.9453"/><polygon fill="#0A9EFD" points="142,1192.9453,132,1196.9453,142,1200.9453,138,1196.9453" style="stroke:#0A9EFD;stroke-width:1.0;"/><text fill="#0A9EFD" font-family="Arial" font-size="13" lengthAdjust="spacing" textLength="54" x="214" y="1164.2417">release():</text><text fill="#0A9EFD" font-family="Arial" font-size="13" lengthAdjust="spacing" textLength="206" x="142" y="1179.1904">Release the Agora service instance</text><!--SRC=[dPJRZjCm48RlynH3hk1YUO1U84LT4EMuIYWI4X9odTcimHrRjbC1Jy_OYNDeko1nrtZcc_dzZwTF54dTjmYYCqvyypyKFLVzKHU5aC4uAFSUNGd2mxwfY-9WVaBvnVGEXBLbOOKBIYehA41PepIkLTH1S_is8TNTNO7K0bCZMiKkPrnpUrD_-Z02kndWXd3p8XRPm4UB19MrHT4vqrlOEXG18PK3LdXI4g7Wr8b8eMQ8F7q66_XAcH84YdmG9765A5912Qr-Cv3oTzC1X0US88WQ9oM6xbNNEouBHsoL09TyG7UzYKmQahhtCNrhZjOGKdYL3FyrjivInvhtGn1aphvICvMhWwp7_jShPNN_TVCLvB1JFg3B_LwUMDThGQtELUen0p26_63RSgnlZ29M9Xy44UfiwVgKnzK2jtTXrCulRAN3OyWIXc6CtHiCyopaE2OHbA4PtstWEtVR3gr6y4pLCjdt1o-TEc2bTTMtokHU-Ho4PiKnmfhP-QD_bF-iMhpEdsBaEXzzc1OjmycSeMaqQy2NPkqciuP7a4jV36IhZSVLecdaTU4V3ZsllSIrdfuUSsG_HsPF_i8ktJXdquNMCm_6NjfWx7phivikuPx-_NJtKqv-l4lfRCe9ru_cNJnAotBnRjAkCEBdlKXVANlz5pOjMfpC7m00]--></g></svg>