<svg width="1350" height="733" xmlns="http://www.w3.org/2000/svg" xmlns:xlink="http://www.w3.org/1999/xlink" overflow="hidden"><defs><clipPath id="clip0"><path d="M-42-12 1308-12 1308 721-42 721Z" fill-rule="evenodd" clip-rule="evenodd"/></clipPath></defs><g clip-path="url(#clip0)" transform="translate(42 12)"><rect x="-42" y="-11" width="1350" height="731" fill="#0C0F14"/><path d="M361 424.5 457.5 377 554 424.5 457.5 472Z" fill="#2F333B" fill-rule="evenodd"/><text fill="#B2F0FF" font-family="Calibri,Calibri_MSFontService,sans-serif" font-weight="400" font-size="21" transform="translate(422.865 419)">Need to <tspan x="-1.35333" y="26">inspect?</tspan></text><path d="M-13 69.5001C-13 64.2533-8.74668 60-3.49995 60L73.5001 60C78.7468 60 83.0001 64.2533 83.0001 69.5001L83 107.5C83 112.747 78.7467 117 73.4999 117L-3.49995 117C-8.74668 117-13 112.747-13 107.5Z" fill="#2F333B" fill-rule="evenodd"/><text fill="#B2F0FF" font-family="Calibri,Calibri_MSFontService,sans-serif" font-weight="400" font-size="24" transform="translate(11.7913 96)">Start</text><rect x="131" y="60" width="194" height="57" fill="#2F333B"/><text fill="#B2F0FF" font-family="Calibri,Calibri_MSFontService,sans-serif" font-weight="400" font-size="24" transform="translate(153.839 96)">Use Call Search</text><path d="M0.000639096-0.666666 41.4115-0.626968 41.4102 0.706365-0.000639096 0.666666ZM40.0839-6.62824 48.0775 0.0460892 40.0711 6.70508Z" fill="#B2F0FF" transform="matrix(1 0 0 -1 83.5001 89.5461)"/><rect x="682" y="60" width="194" height="57" fill="#2F333B"/><text fill="#B2F0FF" font-family="Calibri,Calibri_MSFontService,sans-serif" font-weight="400" font-size="24" transform="translate(692.198 96)">Get Call Overview</text><rect x="1054" y="60" width="194" height="57" fill="#2F333B"/><text fill="#B2F0FF" font-family="Calibri,Calibri_MSFontService,sans-serif" font-weight="400" font-size="24" transform="translate(1106.3 82)">View Call <tspan x="-33.9332" y="29">Diagnosis (Beta)</tspan></text><rect x="699" y="285" width="193" height="58" fill="#2F333B"/><text fill="#B2F0FF" font-family="Calibri,Calibri_MSFontService,sans-serif" font-weight="400" font-size="24" transform="translate(715.093 322)">View Call Details</text><rect x="699" y="620" width="193" height="58" fill="#2F333B"/><text fill="#B2F0FF" font-family="Calibri,Calibri_MSFontService,sans-serif" font-weight="400" font-size="24" transform="translate(748.997 642)">Give your <tspan x="2.21332" y="29">feedback</tspan></text><rect x="345" y="158" width="194" height="57" fill="#2F333B"/><text fill="#B2F0FF" font-family="Calibri,Calibri_MSFontService,sans-serif" font-weight="400" font-size="24" transform="translate(362.974 194)">Click Call Details</text><path d="M1032 463.667C1032 458.328 1036.33 454 1041.67 454L1118.33 454C1123.67 454 1128 458.328 1128 463.667L1128 502.333C1128 507.672 1123.67 512 1118.33 512L1041.67 512C1036.33 512 1032 507.672 1032 502.333Z" fill="#2F333B" fill-rule="evenodd"/><text fill="#B2F0FF" font-family="Calibri,Calibri_MSFontService,sans-serif" font-weight="400" font-size="24" transform="translate(1061.74 491)">End</text><path d="M699 483.5 795.5 436 892 483.5 795.5 531Z" fill="#2F333B" fill-rule="evenodd"/><text fill="#B2F0FF" font-family="Calibri,Calibri_MSFontService,sans-serif" font-weight="400" font-size="21" transform="translate(768.3 465)">Found <tspan x="-8.22003" y="26">the root </tspan><tspan x="-2.3067" y="51">cause?</tspan></text><path d="M555.271 423.965 579.271 423.965 578.604 424.631 578.604 265.947 579.271 266.613 441.833 266.613 441.833 222.167 443.167 222.167 443.167 265.947 442.5 265.28 579.938 265.28 579.938 425.298 555.271 425.298ZM435.833 223.5 442.5 215.5 449.167 223.5Z" fill="#B2F0FF"/><path d="M0-0.666667 290.987-0.666667 290.987 463.973 289.653 463.973 289.653 0 290.32 0.666667 0 0.666667ZM296.987 462.637 290.32 470.637 283.653 462.637Z" fill="#B2F0FF" transform="matrix(-4.37114e-08 1 1 4.37114e-08 228.5 359.5)"/><path d="M876.5 89.1667 1047.88 89.1668 1047.88 89.8335 876.5 89.8334ZM1046.54 82.8335 1054.54 89.5002 1046.54 96.1668Z" fill="#B2F0FF"/><path d="M795.833 343.5 795.833 429.37 795.167 429.37 795.167 343.5ZM802.167 428.037 795.5 436.037 788.833 428.037Z" fill="#B2F0FF"/><path d="M0.666667-7.82223e-07 0.666764 82.8107-0.66657 82.8107-0.666667 7.82223e-07ZM6.66676 81.4774 0.000104987 89.4774-6.66657 81.4774Z" fill="#B2F0FF" transform="matrix(-1 -8.74228e-08 -8.74228e-08 1 795.5 531.5)"/><path d="M5.0033e-07-0.666667 133.223-0.666567 133.223 0.666767-5.0033e-07 0.666667ZM131.89-6.66657 139.89 0.000104987 131.89 6.66677Z" fill="#B2F0FF" transform="matrix(1 0 0 -1 892.5 483.5)"/><path d="M1151.65 117.5 1151.65 314.957 899.167 314.957 899.167 313.624 1150.98 313.624 1150.31 314.291 1150.31 117.5ZM900.5 320.957 892.5 314.291 900.5 307.624Z" fill="#B2F0FF"/><path d="M0-0.666667 92.1662-0.666667 92.1662 97.9429 91.4995 97.2762 139.534 97.2762 139.534 98.6096 90.8328 98.6096 90.8328 0 91.4995 0.666667 0 0.666667ZM138.2 91.2762 146.2 97.9429 138.2 104.61Z" fill="#B2F0FF" transform="matrix(1 0 0 -1 539.5 187.443)"/><path d="M539.5 186.833 631.583 186.833 631.583 315.148 630.916 314.481 692.929 314.481 692.929 315.814 630.25 315.814 630.25 187.5 630.916 188.167 539.5 188.167ZM691.596 308.481 699.596 315.148 691.596 321.814Z" fill="#B2F0FF"/><rect x="204" y="406" width="48" height="32" fill="#0C0F14"/><text fill="#BDBFC2" font-family="Calibri,Calibri_MSFontService,sans-serif" font-weight="400" font-size="24" transform="translate(213.912 428)">No</text><rect x="943" y="467" width="48" height="32" fill="#0C0F14"/><text fill="#BDBFC2" font-family="Calibri,Calibri_MSFontService,sans-serif" font-weight="400" font-size="24" transform="translate(951.494 489)">Yes</text><rect x="759" y="559" width="73" height="32" fill="#0C0F14"/><text fill="#BDBFC2" font-family="Calibri,Calibri_MSFontService,sans-serif" font-weight="400" font-size="24" transform="translate(781.406 581)">No</text><rect x="583" y="217" width="94" height="32" fill="#0C0F14"/><text fill="#BDBFC2" font-family="Calibri,Calibri_MSFontService,sans-serif" font-weight="400" font-size="24" transform="translate(585.704 239)">ACU &lt; 50</text><rect x="583" y="124" width="94" height="32" fill="#0C0F14"/><text fill="#BDBFC2" font-family="Calibri,Calibri_MSFontService,sans-serif" font-weight="400" font-size="24" transform="translate(585.704 146)">ACU ≥ 50</text><rect x="946" y="282" width="140" height="61" fill="#0C0F14"/><text fill="#BDBFC2" font-family="Calibri,Calibri_MSFontService,sans-serif" font-weight="400" font-size="24" transform="translate(951.79 304)">Locate a user <tspan x="16.1933" y="29">to inspect</tspan></text><rect x="892" y="42" width="140" height="86" fill="#0C0F14"/><text fill="#BDBFC2" font-family="Calibri,Calibri_MSFontService,sans-serif" font-weight="400" font-size="23" transform="translate(923.912 63)">Locate a <tspan x="-23.04" y="27">conclusion to </tspan><tspan x="5.00671" y="55">inspect</tspan></text><path d="M131 311 228 263 325 311 228 359Z" fill="#2F333B" fill-rule="evenodd"/><text fill="#B2F0FF" font-family="Calibri,Calibri_MSFontService,sans-serif" font-weight="400" font-size="21" transform="translate(200.809 305)">Found <tspan x="-8.97333" y="26">the call?</tspan></text><path d="M325.5 310.833 458.909 310.833 458.909 370.607 457.576 370.607 457.576 311.5 458.242 312.167 325.5 312.167ZM464.909 369.273 458.242 377.273 451.576 369.273Z" fill="#B2F0FF"/><path d="M0.666667-4.79114e-07 0.666767 139.418-0.666566 139.418-0.666667 4.79114e-07ZM6.66677 138.085 0.000104987 146.085-6.66657 138.085Z" fill="#B2F0FF" transform="matrix(-1 -8.74228e-08 -8.74228e-08 1 228.5 117.5)"/><rect x="369" y="296" width="48" height="32" fill="#0C0F14"/><text fill="#BDBFC2" font-family="Calibri,Calibri_MSFontService,sans-serif" font-weight="400" font-size="24" transform="translate(377.422 318)">Yes</text><rect x="554" y="339" width="48" height="32" fill="#0C0F14"/><text fill="#BDBFC2" font-family="Calibri,Calibri_MSFontService,sans-serif" font-weight="400" font-size="24" transform="translate(562.136 361)">Yes</text></g></svg>