<?xml version="1.0" encoding="utf-8"?>
<!-- Generator: Adobe Illustrator 19.0.0, SVG Export Plug-In . SVG Version: 6.00 Build 0)  -->
<svg version="1.1" id="Layer_1" xmlns="http://www.w3.org/2000/svg" xmlns:xlink="http://www.w3.org/1999/xlink" x="0px" y="0px"
	 viewBox="0 0 200 200" style="enable-background:new 0 0 200 200;" xml:space="preserve">
<style type="text/css">
	.st0{fill:none;stroke:#83B7E3;stroke-width:1.5;stroke-miterlimit:10;}
	.st1{fill:none;stroke:#000000;stroke-miterlimit:10;}
	.st2{fill:#4A95D0;}
</style>
<path id="XMLID_3_" class="st0" d="M99.5,99.4V73.6v-1.4l0-1c4.2,0,6,2.1,9.8,3.5c2.8,1.1,6.3,0.1,8.3-2.2c2-2.3,2.5-5.7,1.6-8.6
	c-1.1-3.5-4.8-6.3-8.4-5.6c-2.1,0.4-3.8,1.9-5.7,2.8c-1.9,0.9-3.5,0.6-5.6,0.5V58V34.2"/>
<path id="XMLID_2_" class="st1" d="M68.7,119.3"/>
<path id="XMLID_1_" class="st0" d="M99.6,99.4H73.8h-1.4l-1,0c0,4.2,2.1,6,3.5,9.8c1.1,2.8,0.1,6.3-2.2,8.3c-2.3,2-5.7,2.5-8.6,1.6
	c-3.5-1.1-6.3-4.8-5.6-8.4c0.4-2.1,1.9-3.8,2.8-5.7c0.9-1.9,0.6-3.5,0.5-5.6h-3.6H34.4"/>
<path id="XMLID_4_" class="st0" d="M34.4,99.4V73.6v-1.4l0-1c-4.2,0-6,2.1-9.8,3.5c-2.8,1.1-6.3,0.1-8.3-2.2s-2.5-5.7-1.6-8.6
	c1.1-3.5,4.8-6.3,8.4-5.6c2.1,0.4,3.8,1.9,5.7,2.8c1.9,0.9,3.5,0.6,5.6,0.5V58V34.2"/>
<path id="XMLID_5_" class="st0" d="M99.6,34.2H73.8h-1.4l-1,0c0,4.2,2.1,6,3.5,9.8c1.1,2.8,0.1,6.3-2.2,8.3c-2.3,2-5.7,2.5-8.6,1.6
	c-3.5-1.1-6.3-4.8-5.6-8.4c0.4-2.1,1.9-3.8,2.8-5.7c0.9-1.9,0.6-3.5,0.5-5.6h-3.6H34.4"/>
<g id="XMLID_6_">
	<g id="XMLID_81_">
		<path id="XMLID_84_" class="st0" d="M99.6,163.7v-25.8v-1.4l0-1c-4.2,0-6,2.1-9.8,3.5c-2.8,1.1-6.3,0.1-8.3-2.2
			c-2-2.3-2.5-5.7-1.6-8.6c1.1-3.5,4.8-6.3,8.4-5.6c2.1,0.4,3.8,1.9,5.7,2.8c1.9,0.9,3.5,0.6,5.6,0.5v-3.6V98.5"/>
		<path id="XMLID_83_" class="st0" d="M99.6,163.7H73.8h-1.4l-1,0c0,4.2,2.1,6,3.5,9.8c1.1,2.8,0.1,6.3-2.2,8.3s-5.7,2.5-8.6,1.6
			c-3.5-1.1-6.3-4.8-5.6-8.4c0.4-2.1,1.9-3.8,2.8-5.7c0.9-1.9,0.6-3.5,0.5-5.6h-3.6H34.4"/>
		<path id="XMLID_82_" class="st0" d="M34.4,163.7v-25.8v-1.4l0-1c-4.2,0-6,2.1-9.8,3.5c-2.8,1.1-6.3,0.1-8.3-2.2s-2.5-5.7-1.6-8.6
			c1.1-3.5,4.8-6.3,8.4-5.6c2.1,0.4,3.8,1.9,5.7,2.8c1.9,0.9,3.5,0.6,5.6,0.5v-3.6V98.5"/>
	</g>
</g>
<path id="XMLID_11_" class="st0" d="M164.7,99.4V73.6v-1.4l0-1c4.2,0,6,2.1,9.8,3.5c2.8,1.1,6.3,0.1,8.3-2.2c2-2.3,2.5-5.7,1.6-8.6
	c-1.1-3.5-4.8-6.3-8.4-5.6c-2.1,0.4-3.8,1.9-5.7,2.8c-1.9,0.9-3.5,0.6-5.6,0.5V58V34.2"/>
<path id="XMLID_10_" class="st0" d="M164.8,99.4H139h-1.4l-1,0c0,4.2,2.1,6,3.5,9.8c1.1,2.8,0.1,6.3-2.2,8.3c-2.3,2-5.7,2.5-8.6,1.6
	c-3.5-1.1-6.3-4.8-5.6-8.4c0.4-2.1,1.9-3.8,2.8-5.7c0.9-1.9,0.6-3.5,0.5-5.6h-3.6H99.6"/>
<path id="XMLID_12_" class="st0" d="M99.6,34.2h25.8h1.4l1,0c0-4.2-2.1-6-3.5-9.8c-1.1-2.8-0.1-6.3,2.2-8.3c2.3-2,5.7-2.5,8.6-1.6
	c3.5,1.1,6.3,4.8,5.6,8.4c-0.4,2.1-1.9,3.8-2.8,5.7c-0.9,1.9-0.6,3.5-0.5,5.6h3.6h23.8"/>
<path id="XMLID_13_" class="st0" d="M164.8,164v-25.8v-1.4l0-1c4.2,0,6,2.1,9.8,3.5c2.8,1.1,6.3,0.1,8.3-2.2s2.5-5.7,1.6-8.6
	c-1.1-3.5-4.8-6.3-8.4-5.6c-2.1,0.4-3.8,1.9-5.7,2.8c-1.9,0.9-3.5,0.6-5.6,0.5v-3.6V98.8"/>
<path id="XMLID_14_" class="st0" d="M164.3,163.7h-25.8h-1.4l-1,0c0,4.2,2.1,6,3.5,9.8c1.1,2.8,0.1,6.3-2.2,8.3s-5.7,2.5-8.6,1.6
	c-3.5-1.1-6.3-4.8-5.6-8.4c0.4-2.1,1.9-3.8,2.8-5.7c0.9-1.9,0.6-3.5,0.5-5.6h-3.6H99.1"/>
<g id="XMLID_16_">
	<path id="XMLID_101_" class="st2" d="M134.6,135.6l-0.4-1.2h-3.7l-0.4,1.2c-0.2,0.5-0.3,0.8-0.4,0.9c-0.1,0.2-0.3,0.2-0.6,0.2
		c-0.2,0-0.4-0.1-0.6-0.3c-0.2-0.2-0.3-0.4-0.3-0.6c0-0.1,0-0.3,0.1-0.4c0-0.1,0.1-0.3,0.2-0.6l2.3-6c0.1-0.2,0.1-0.4,0.2-0.6
		s0.2-0.4,0.3-0.6s0.2-0.3,0.4-0.4c0.2-0.1,0.4-0.1,0.6-0.1c0.3,0,0.5,0,0.6,0.1s0.3,0.2,0.4,0.4s0.2,0.3,0.3,0.5s0.2,0.4,0.3,0.7
		l2.4,5.9c0.2,0.5,0.3,0.8,0.3,1c0,0.2-0.1,0.4-0.3,0.6s-0.4,0.3-0.6,0.3c-0.1,0-0.3,0-0.4-0.1s-0.2-0.1-0.3-0.2
		c-0.1-0.1-0.1-0.2-0.2-0.4C134.7,135.9,134.7,135.7,134.6,135.6z M130.9,133h2.7l-1.4-3.8L130.9,133z"/>
	<path id="XMLID_104_" class="st2" d="M138,135.6v-7.2c0-0.4,0.1-0.7,0.3-0.8s0.4-0.3,0.7-0.3c0.3,0,0.5,0.1,0.7,0.3
		c0.2,0.2,0.3,0.5,0.3,0.8v7.2c0,0.4-0.1,0.7-0.3,0.8s-0.4,0.3-0.7,0.3c-0.3,0-0.5-0.1-0.7-0.3S138,136,138,135.6z"/>
</g>
<g id="XMLID_94_">
	<path id="XMLID_95_" class="st2" d="M130,69.3c0,0.6-0.1,1.1-0.4,1.5c-0.3,0.4-0.7,0.8-1.3,1s-1.2,0.4-2,0.4
		c-0.9,0-1.7-0.2-2.2-0.5c-0.4-0.2-0.8-0.6-1-1c-0.3-0.4-0.4-0.8-0.4-1.2c0-0.2,0.1-0.4,0.2-0.6c0.2-0.2,0.4-0.2,0.6-0.2
		c0.2,0,0.4,0.1,0.5,0.2c0.1,0.1,0.3,0.3,0.3,0.6c0.1,0.3,0.2,0.5,0.4,0.7s0.3,0.4,0.6,0.5c0.2,0.1,0.6,0.2,1,0.2
		c0.5,0,1-0.1,1.3-0.4c0.3-0.3,0.5-0.6,0.5-1c0-0.3-0.1-0.6-0.3-0.7c-0.2-0.2-0.4-0.3-0.7-0.4c-0.3-0.1-0.7-0.2-1.2-0.3
		c-0.7-0.2-1.2-0.3-1.7-0.5c-0.4-0.2-0.8-0.5-1.1-0.8c-0.3-0.4-0.4-0.8-0.4-1.3c0-0.5,0.1-1,0.4-1.3c0.3-0.4,0.7-0.7,1.2-0.9
		c0.5-0.2,1.1-0.3,1.8-0.3c0.6,0,1,0.1,1.5,0.2c0.4,0.1,0.8,0.3,1,0.6c0.3,0.2,0.5,0.5,0.6,0.7c0.1,0.3,0.2,0.5,0.2,0.7
		c0,0.2-0.1,0.4-0.2,0.6s-0.4,0.3-0.6,0.3c-0.2,0-0.4-0.1-0.5-0.2c-0.1-0.1-0.2-0.3-0.4-0.5c-0.2-0.3-0.4-0.6-0.6-0.8
		s-0.6-0.3-1.1-0.3c-0.5,0-0.9,0.1-1.2,0.3c-0.3,0.2-0.4,0.5-0.4,0.8c0,0.2,0,0.3,0.1,0.5c0.1,0.1,0.2,0.2,0.4,0.3
		c0.2,0.1,0.4,0.2,0.5,0.2c0.2,0.1,0.5,0.1,0.9,0.2c0.5,0.1,1,0.3,1.4,0.4c0.4,0.1,0.8,0.3,1.1,0.5s0.5,0.5,0.7,0.8
		C130,68.5,130,68.9,130,69.3z"/>
	<path id="XMLID_97_" class="st2" d="M137.6,64.4h-2v6.7c0,0.4-0.1,0.7-0.3,0.9c-0.2,0.2-0.4,0.3-0.7,0.3c-0.3,0-0.5-0.1-0.7-0.3
		s-0.3-0.5-0.3-0.9v-6.7h-2c-0.3,0-0.6-0.1-0.7-0.2c-0.2-0.1-0.2-0.3-0.2-0.6c0-0.2,0.1-0.4,0.2-0.6c0.2-0.1,0.4-0.2,0.7-0.2h5.9
		c0.3,0,0.6,0.1,0.7,0.2c0.2,0.1,0.2,0.3,0.2,0.6c0,0.2-0.1,0.4-0.2,0.6C138.1,64.4,137.9,64.4,137.6,64.4z"/>
	<path id="XMLID_99_" class="st2" d="M145.6,64.4h-2v6.7c0,0.4-0.1,0.7-0.3,0.9c-0.2,0.2-0.4,0.3-0.7,0.3c-0.3,0-0.5-0.1-0.7-0.3
		s-0.3-0.5-0.3-0.9v-6.7h-2c-0.3,0-0.6-0.1-0.7-0.2c-0.2-0.1-0.2-0.3-0.2-0.6c0-0.2,0.1-0.4,0.2-0.6c0.2-0.1,0.4-0.2,0.7-0.2h5.9
		c0.3,0,0.6,0.1,0.7,0.2c0.2,0.1,0.2,0.3,0.2,0.6c0,0.2-0.1,0.4-0.2,0.6C146.1,64.4,145.9,64.4,145.6,64.4z"/>
</g>
<g id="XMLID_15_">
	<path id="XMLID_106_" class="st2" d="M58.1,129.5h-2v6.7c0,0.4-0.1,0.7-0.3,0.9c-0.2,0.2-0.4,0.3-0.7,0.3c-0.3,0-0.5-0.1-0.7-0.3
		s-0.3-0.5-0.3-0.8v-6.7h-2c-0.3,0-0.6-0.1-0.7-0.2s-0.2-0.3-0.2-0.6c0-0.2,0.1-0.4,0.2-0.6c0.2-0.1,0.4-0.2,0.7-0.2h5.9
		c0.3,0,0.6,0.1,0.7,0.2s0.2,0.3,0.2,0.6s-0.1,0.4-0.2,0.6C58.7,129.4,58.4,129.5,58.1,129.5z"/>
	<path id="XMLID_108_" class="st2" d="M66.1,129.5h-2v6.7c0,0.4-0.1,0.7-0.3,0.9c-0.2,0.2-0.4,0.3-0.7,0.3c-0.3,0-0.5-0.1-0.7-0.3
		s-0.3-0.5-0.3-0.8v-6.7h-2c-0.3,0-0.6-0.1-0.7-0.2s-0.2-0.3-0.2-0.6c0-0.2,0.1-0.4,0.2-0.6c0.2-0.1,0.4-0.2,0.7-0.2h5.9
		c0.3,0,0.6,0.1,0.7,0.2s0.2,0.3,0.2,0.6s-0.1,0.4-0.2,0.6C66.7,129.4,66.4,129.5,66.1,129.5z"/>
	<path id="XMLID_110_" class="st2" d="M75.1,134.4c0,0.6-0.1,1.1-0.4,1.5c-0.3,0.4-0.7,0.8-1.3,1s-1.2,0.4-2,0.4
		c-0.9,0-1.7-0.2-2.2-0.5c-0.4-0.2-0.8-0.6-1-1c-0.3-0.4-0.4-0.8-0.4-1.2c0-0.2,0.1-0.4,0.2-0.6c0.2-0.2,0.4-0.2,0.6-0.2
		c0.2,0,0.4,0.1,0.5,0.2s0.3,0.3,0.3,0.6c0.1,0.3,0.2,0.5,0.4,0.7c0.1,0.2,0.3,0.4,0.6,0.5c0.2,0.1,0.6,0.2,1,0.2
		c0.6,0,1-0.1,1.3-0.4c0.3-0.3,0.5-0.6,0.5-1c0-0.3-0.1-0.6-0.3-0.7c-0.2-0.2-0.4-0.3-0.7-0.4c-0.3-0.1-0.7-0.2-1.2-0.3
		c-0.7-0.2-1.2-0.3-1.7-0.5c-0.4-0.2-0.8-0.5-1.1-0.8c-0.3-0.4-0.4-0.8-0.4-1.3c0-0.5,0.1-1,0.4-1.3c0.3-0.4,0.7-0.7,1.2-0.9
		c0.5-0.2,1.1-0.3,1.8-0.3c0.6,0,1,0.1,1.5,0.2c0.4,0.1,0.8,0.3,1,0.6c0.3,0.2,0.5,0.5,0.6,0.7c0.1,0.3,0.2,0.5,0.2,0.7
		c0,0.2-0.1,0.4-0.2,0.6s-0.4,0.3-0.6,0.3c-0.2,0-0.4-0.1-0.5-0.2s-0.2-0.3-0.4-0.5c-0.2-0.3-0.4-0.6-0.6-0.8
		c-0.2-0.2-0.6-0.3-1.1-0.3c-0.5,0-0.9,0.1-1.2,0.3c-0.3,0.2-0.4,0.5-0.4,0.8c0,0.2,0,0.3,0.1,0.5c0.1,0.1,0.2,0.2,0.4,0.3
		c0.2,0.1,0.4,0.2,0.5,0.2c0.2,0.1,0.5,0.1,0.9,0.2c0.5,0.1,1,0.3,1.4,0.4c0.4,0.1,0.8,0.3,1.1,0.5c0.3,0.2,0.5,0.5,0.7,0.8
		C75.1,133.5,75.1,133.9,75.1,134.4z"/>
</g>
<g id="XMLID_19_">
	<path id="XMLID_48_" class="st2" d="M68.9,70.3c-1.2,0-2.2-1-2.2-2.2s1-2.2,2.2-2.2s2.2,1,2.2,2.2v0C71.1,69.3,70.1,70.3,68.9,70.3
		 M68.9,64c-2.2,0-4,1.8-4,4c0,2.2,1.8,4,4,4s4-1.8,4-4l0,0l0,0C72.9,65.8,71.1,64,68.9,64"/>
	<path id="XMLID_29_" class="st2" d="M75.6,65.1L75.6,65.1l-0.1,0.1l0-0.1l0-0.1c-0.3-0.5-0.8-0.9-1.4-1l-0.2,0v8.1l0.2,0
		c1-0.1,1.7-0.9,1.7-1.9V68c0-1.1,0.9-2.1,2-2.2l0.1,0V64l-0.1,0C76.8,64.1,76.1,64.5,75.6,65.1"/>
	<path id="XMLID_26_" class="st2" d="M50.8,70.3c-1.2,0-2.2-1-2.2-2.2s1-2.2,2.2-2.2c1.2,0,2.2,1,2.2,2.2C53,69.3,52,70.3,50.8,70.3
		L50.8,70.3 M53.4,64.8L53.4,64.8L53.4,64.8l-0.1,0.1l0,0c-1.8-1.3-4.3-1-5.6,0.8s-1,4.3,0.8,5.6c0.7,0.5,1.6,0.8,2.4,0.8
		c0.9,0,1.7-0.3,2.4-0.8l0,0l0,0l0,0l0,0c0.3,0.4,0.8,0.7,1.3,0.8l0.2,0V64l-0.2,0C54.2,64.1,53.7,64.4,53.4,64.8"/>
	<path id="XMLID_23_" class="st2" d="M82.2,70.3c-1.2,0-2.2-1-2.2-2.2s1-2.2,2.2-2.2c1.2,0,2.2,1,2.2,2.2
		C84.4,69.3,83.4,70.3,82.2,70.3C82.2,70.3,82.2,70.3,82.2,70.3 M86.1,64c-0.5,0.1-1,0.3-1.3,0.8l0,0l0,0l0,0l0,0
		c-1.8-1.3-4.3-1-5.6,0.8c-1.3,1.8-1,4.3,0.8,5.6c0.7,0.5,1.6,0.8,2.4,0.8s1.7-0.3,2.4-0.8l0,0l0,0l0,0l0,0c0.3,0.4,0.8,0.7,1.3,0.8
		l0.2,0V64L86.1,64z"/>
	<path id="XMLID_20_" class="st2" d="M59.9,65.8L59.9,65.8c1.2,0,2.2,1,2.2,2.2c0,1.2-1,2.2-2.2,2.2c-1.2,0-2.2-1-2.2-2.2
		C57.7,66.8,58.7,65.8,59.9,65.8C59.9,65.8,59.9,65.8,59.9,65.8L59.9,65.8 M62.4,71.2c1.6-1.3,2-3.7,0.8-5.4
		c-0.1-0.1-0.1-0.2-0.2-0.2c0.5-0.3,0.8-0.8,0.9-1.4l0-0.2h-4.1c-2.2,0-4,1.8-4,4c0,1.2,0.6,2.4,1.5,3.1c-0.2,0.1-0.3,0.3-0.5,0.5
		l1.2,1.4c0.7-1,2.1-1.2,3.1-0.5c1,0.7,1.2,2.1,0.5,3.1c-0.2,0.2-0.4,0.4-0.6,0.6l1.2,1.4c1.8-1.3,2.2-3.8,0.8-5.6
		C62.9,71.7,62.6,71.4,62.4,71.2"/>
</g>
</svg>
