<?xml version="1.0" encoding="utf-8"?>
<!-- Generator: Adobe Illustrator 19.0.0, SVG Export Plug-In . SVG Version: 6.00 Build 0)  -->
<svg version="1.1" id="Layer_1" xmlns="http://www.w3.org/2000/svg" xmlns:xlink="http://www.w3.org/1999/xlink" x="0px" y="0px"
	 viewBox="0 0 240 240" style="enable-background:new 0 0 240 240;" xml:space="preserve">
<style type="text/css">
	.st0{fill:none;stroke:#83B7E3;stroke-width:1.5;stroke-miterlimit:10;}
	.st1{fill:none;stroke:#000000;stroke-miterlimit:10;}
	.st2{fill:#4A95D0;}
</style>
<path id="XMLID_3_" class="st0" d="M119.8,120.3V90.8v-1.6c0,0,0-1.1,0-1.1c4.8,0,6.9,2.4,11.2,4c3.2,1.2,7.2,0.1,9.4-2.6
	c2.3-2.6,2.9-6.5,1.8-9.8c-1.3-4-5.5-7.2-9.6-6.3c-2.4,0.5-4.3,2.2-6.5,3.2c-2.2,1-4,0.7-6.4,0.6V73V45.8"/>
<path id="XMLID_2_" class="st1" d="M84.6,143"/>
<path id="XMLID_1_" class="st0" d="M119.9,120.3H90.4h-1.6c0,0-1.1,0-1.1,0c0,4.8,2.4,6.9,4,11.2c1.2,3.2,0.1,7.2-2.6,9.4
	c-2.6,2.3-6.5,2.9-9.8,1.8c-4-1.3-7.2-5.5-6.3-9.6c0.5-2.4,2.2-4.3,3.2-6.5c1-2.2,0.7-4,0.6-6.4h-4.1H45.4"/>
<path id="XMLID_4_" class="st0" d="M45.4,120.3V90.8v-1.6c0,0,0-1.1,0-1.1c-4.8,0-6.9,2.4-11.2,4c-3.2,1.2-7.2,0.1-9.4-2.6
	S21.9,83,23,79.7c1.3-4,5.5-7.2,9.6-6.3c2.4,0.5,4.3,2.2,6.5,3.2c2.2,1,4,0.7,6.4,0.6V73V45.8"/>
<path id="XMLID_5_" class="st0" d="M119.9,45.8H90.4h-1.6c0,0-1.1,0-1.1,0c0,4.8,2.4,6.9,4,11.2c1.2,3.2,0.1,7.2-2.6,9.4
	c-2.6,2.3-6.5,2.9-9.8,1.8c-4-1.3-7.2-5.5-6.3-9.6c0.5-2.4,2.2-4.3,3.2-6.5c1-2.2,0.7-4,0.6-6.4h-4.1H45.4"/>
<g id="XMLID_9_">
	<g id="XMLID_176_">
		<path id="XMLID_179_" class="st0" d="M119.9,193.7v-29.5v-1.6c0,0,0-1.1,0-1.1c-4.8,0-6.9,2.4-11.2,4c-3.2,1.2-7.2,0.1-9.4-2.6
			c-2.3-2.6-2.9-6.5-1.8-9.8c1.3-4,5.5-7.2,9.6-6.3c2.4,0.5,4.3,2.2,6.5,3.2c2.2,1,4,0.7,6.4,0.6v-4.1v-27.2"/>
		<path id="XMLID_178_" class="st0" d="M119.9,193.7H90.4h-1.6c0,0-1.1,0-1.1,0c0,4.8,2.4,6.9,4,11.2c1.2,3.2,0.1,7.2-2.6,9.4
			c-2.6,2.3-6.5,2.9-9.8,1.8c-4-1.3-7.2-5.5-6.3-9.6c0.5-2.4,2.2-4.3,3.2-6.5c1-2.2,0.7-4,0.6-6.4h-4.1H45.4"/>
		<path id="XMLID_177_" class="st0" d="M45.4,193.7v-29.5v-1.6c0,0,0-1.1,0-1.1c-4.8,0-6.9,2.4-11.2,4c-3.2,1.2-7.2,0.1-9.4-2.6
			s-2.9-6.5-1.8-9.8c1.3-4,5.5-7.2,9.6-6.3c2.4,0.5,4.3,2.2,6.5,3.2c2.2,1,4,0.7,6.4,0.6v-4.1v-27.2"/>
	</g>
</g>
<path id="XMLID_11_" class="st0" d="M194.2,120.3V90.8v-1.6c0,0,0-1.1,0-1.1c4.8,0,6.9,2.4,11.2,4c3.2,1.2,7.2,0.1,9.4-2.6
	c2.3-2.6,2.9-6.5,1.8-9.8c-1.3-4-5.5-7.2-9.6-6.3c-2.4,0.5-4.3,2.2-6.5,3.2c-2.2,1-4,0.7-6.4,0.6V73V45.8"/>
<path id="XMLID_10_" class="st0" d="M194.3,120.3h-29.5h-1.6c0,0-1.1,0-1.1,0c0,4.8,2.4,6.9,4,11.2c1.2,3.2,0.1,7.2-2.6,9.4
	c-2.6,2.3-6.5,2.9-9.8,1.8c-4-1.3-7.2-5.5-6.3-9.6c0.5-2.4,2.2-4.3,3.2-6.5c1-2.2,0.7-4,0.6-6.4H147h-27.2"/>
<path id="XMLID_12_" class="st0" d="M119.9,45.8h29.5h1.6c0,0,1.1,0,1.1,0c0-4.8-2.4-6.9-4-11.2c-1.2-3.2-0.1-7.2,2.6-9.4
	s6.5-2.9,9.8-1.8c4,1.3,7.2,5.5,6.3,9.6c-0.5,2.4-2.2,4.3-3.2,6.5c-1,2.2-0.7,4-0.6,6.4h4.1h27.2"/>
<path id="XMLID_13_" class="st0" d="M194.3,194v-29.5v-1.6c0,0,0-1.1,0-1.1c4.8,0,6.9,2.4,11.2,4c3.2,1.2,7.2,0.1,9.4-2.6
	c2.3-2.6,2.9-6.5,1.8-9.8c-1.3-4-5.5-7.2-9.6-6.3c-2.4,0.5-4.3,2.2-6.5,3.2c-2.2,1-4,0.7-6.4,0.6v-4.1v-27.2"/>
<path id="XMLID_14_" class="st0" d="M193.7,193.7h-29.5h-1.6c0,0-1.1,0-1.1,0c0,4.8,2.4,6.9,4,11.2c1.2,3.2,0.1,7.2-2.6,9.4
	c-2.6,2.3-6.5,2.9-9.8,1.8c-4-1.3-7.2-5.5-6.3-9.6c0.5-2.4,2.2-4.3,3.2-6.5c1-2.2,0.7-4,0.6-6.4h-4.1h-27.2"/>
<g id="XMLID_147_">
	<path id="XMLID_148_" class="st2" d="M159.8,161.5l-0.5-1.3H155l-0.5,1.3c-0.2,0.5-0.4,0.9-0.5,1.1c-0.1,0.2-0.4,0.3-0.7,0.3
		c-0.3,0-0.5-0.1-0.7-0.3s-0.3-0.4-0.3-0.7c0-0.1,0-0.3,0.1-0.4c0-0.2,0.1-0.4,0.2-0.6l2.7-6.8c0.1-0.2,0.2-0.4,0.3-0.7
		s0.2-0.5,0.3-0.7s0.3-0.3,0.5-0.4c0.2-0.1,0.4-0.2,0.7-0.2c0.3,0,0.5,0.1,0.7,0.2c0.2,0.1,0.4,0.3,0.5,0.4s0.2,0.4,0.3,0.6
		c0.1,0.2,0.2,0.5,0.3,0.8l2.7,6.7c0.2,0.5,0.3,0.9,0.3,1.1c0,0.2-0.1,0.5-0.3,0.7c-0.2,0.2-0.4,0.3-0.7,0.3c-0.2,0-0.3,0-0.4-0.1
		c-0.1-0.1-0.2-0.1-0.3-0.2c-0.1-0.1-0.2-0.3-0.3-0.5C159.9,161.9,159.9,161.7,159.8,161.5z M155.6,158.6h3.1l-1.6-4.3L155.6,158.6z
		"/>
	<path id="XMLID_151_" class="st2" d="M163.7,161.6v-8.2c0-0.4,0.1-0.7,0.3-1c0.2-0.2,0.4-0.3,0.8-0.3c0.3,0,0.6,0.1,0.8,0.3
		s0.3,0.5,0.3,1v8.2c0,0.4-0.1,0.8-0.3,1s-0.5,0.3-0.8,0.3c-0.3,0-0.6-0.1-0.8-0.3C163.8,162.4,163.7,162,163.7,161.6z"/>
</g>
<g id="XMLID_140_">
	<path id="XMLID_141_" class="st2" d="M154.6,85.9c0,0.6-0.2,1.2-0.5,1.7c-0.3,0.5-0.8,0.9-1.4,1.2c-0.6,0.3-1.4,0.4-2.2,0.4
		c-1,0-1.9-0.2-2.6-0.6c-0.5-0.3-0.9-0.7-1.2-1.1c-0.3-0.5-0.4-0.9-0.4-1.4c0-0.3,0.1-0.5,0.3-0.7c0.2-0.2,0.4-0.3,0.7-0.3
		c0.2,0,0.4,0.1,0.6,0.2c0.2,0.1,0.3,0.4,0.4,0.6c0.1,0.3,0.3,0.6,0.4,0.8c0.2,0.2,0.4,0.4,0.7,0.6c0.3,0.1,0.6,0.2,1.1,0.2
		c0.6,0,1.1-0.1,1.5-0.4c0.4-0.3,0.6-0.7,0.6-1.1c0-0.3-0.1-0.6-0.3-0.8c-0.2-0.2-0.5-0.4-0.8-0.5c-0.3-0.1-0.8-0.2-1.3-0.4
		c-0.8-0.2-1.4-0.4-1.9-0.6s-0.9-0.6-1.2-1c-0.3-0.4-0.4-0.9-0.4-1.5c0-0.6,0.2-1.1,0.5-1.5c0.3-0.4,0.8-0.8,1.4-1
		c0.6-0.2,1.3-0.4,2.1-0.4c0.6,0,1.2,0.1,1.7,0.2c0.5,0.2,0.9,0.4,1.2,0.6c0.3,0.3,0.5,0.5,0.7,0.8c0.1,0.3,0.2,0.6,0.2,0.8
		c0,0.3-0.1,0.5-0.3,0.7c-0.2,0.2-0.4,0.3-0.7,0.3c-0.2,0-0.4-0.1-0.6-0.2c-0.1-0.1-0.3-0.3-0.4-0.6c-0.2-0.4-0.4-0.7-0.7-0.9
		c-0.3-0.2-0.7-0.3-1.3-0.3c-0.5,0-1,0.1-1.3,0.4c-0.3,0.2-0.5,0.5-0.5,0.9c0,0.2,0.1,0.4,0.2,0.5s0.3,0.3,0.5,0.4s0.4,0.2,0.6,0.3
		c0.2,0.1,0.5,0.2,1,0.3c0.6,0.1,1.1,0.3,1.6,0.5c0.5,0.2,0.9,0.4,1.2,0.6c0.3,0.2,0.6,0.5,0.8,0.9
		C154.5,84.9,154.6,85.4,154.6,85.9z"/>
	<path id="XMLID_143_" class="st2" d="M163.2,80.4h-2.3v7.6c0,0.4-0.1,0.8-0.3,1c-0.2,0.2-0.4,0.3-0.8,0.3c-0.3,0-0.6-0.1-0.8-0.3
		c-0.2-0.2-0.3-0.5-0.3-1v-7.6h-2.3c-0.4,0-0.6-0.1-0.8-0.2c-0.2-0.2-0.3-0.4-0.3-0.6c0-0.3,0.1-0.5,0.3-0.6
		c0.2-0.2,0.4-0.2,0.8-0.2h6.7c0.4,0,0.6,0.1,0.8,0.2c0.2,0.2,0.3,0.4,0.3,0.6s-0.1,0.5-0.3,0.6C163.8,80.3,163.5,80.4,163.2,80.4z"
		/>
	<path id="XMLID_145_" class="st2" d="M172.3,80.4H170v7.6c0,0.4-0.1,0.8-0.3,1c-0.2,0.2-0.4,0.3-0.8,0.3c-0.3,0-0.6-0.1-0.8-0.3
		c-0.2-0.2-0.3-0.5-0.3-1v-7.6h-2.3c-0.4,0-0.6-0.1-0.8-0.2c-0.2-0.2-0.3-0.4-0.3-0.6c0-0.3,0.1-0.5,0.3-0.6
		c0.2-0.2,0.4-0.2,0.8-0.2h6.7c0.4,0,0.6,0.1,0.8,0.2s0.3,0.4,0.3,0.6s-0.1,0.5-0.3,0.6C172.9,80.3,172.7,80.4,172.3,80.4z"/>
</g>
<g id="XMLID_133_">
	<path id="XMLID_134_" class="st2" d="M72.5,154.6h-2.3v7.6c0,0.4-0.1,0.8-0.3,1c-0.2,0.2-0.4,0.3-0.8,0.3c-0.3,0-0.6-0.1-0.8-0.3
		c-0.2-0.2-0.3-0.5-0.3-1v-7.6h-2.3c-0.4,0-0.6-0.1-0.8-0.2c-0.2-0.2-0.3-0.4-0.3-0.6c0-0.3,0.1-0.5,0.3-0.6
		c0.2-0.2,0.4-0.2,0.8-0.2h6.7c0.4,0,0.6,0.1,0.8,0.2s0.3,0.4,0.3,0.6s-0.1,0.5-0.3,0.6C73.1,154.5,72.9,154.6,72.5,154.6z"/>
	<path id="XMLID_136_" class="st2" d="M81.6,154.6h-2.3v7.6c0,0.4-0.1,0.8-0.3,1c-0.2,0.2-0.4,0.3-0.8,0.3c-0.3,0-0.6-0.1-0.8-0.3
		c-0.2-0.2-0.3-0.5-0.3-1v-7.6h-2.3c-0.4,0-0.6-0.1-0.8-0.2c-0.2-0.2-0.3-0.4-0.3-0.6c0-0.3,0.1-0.5,0.3-0.6
		c0.2-0.2,0.4-0.2,0.8-0.2h6.7c0.4,0,0.6,0.1,0.8,0.2s0.3,0.4,0.3,0.6s-0.1,0.5-0.3,0.6C82.3,154.5,82,154.6,81.6,154.6z"/>
	<path id="XMLID_138_" class="st2" d="M91.9,160.2c0,0.6-0.2,1.2-0.5,1.7c-0.3,0.5-0.8,0.9-1.4,1.2c-0.6,0.3-1.4,0.4-2.2,0.4
		c-1,0-1.9-0.2-2.6-0.6c-0.5-0.3-0.9-0.7-1.2-1.1c-0.3-0.5-0.4-0.9-0.4-1.4c0-0.3,0.1-0.5,0.3-0.7c0.2-0.2,0.4-0.3,0.7-0.3
		c0.2,0,0.4,0.1,0.6,0.2c0.2,0.1,0.3,0.4,0.4,0.6c0.1,0.3,0.3,0.6,0.4,0.8c0.2,0.2,0.4,0.4,0.7,0.6c0.3,0.1,0.6,0.2,1.1,0.2
		c0.6,0,1.1-0.1,1.5-0.4c0.4-0.3,0.6-0.7,0.6-1.1c0-0.3-0.1-0.6-0.3-0.8c-0.2-0.2-0.5-0.4-0.8-0.5c-0.3-0.1-0.8-0.2-1.3-0.4
		c-0.8-0.2-1.4-0.4-1.9-0.6s-0.9-0.6-1.2-1c-0.3-0.4-0.4-0.9-0.4-1.5c0-0.6,0.2-1.1,0.5-1.5s0.8-0.8,1.4-1c0.6-0.2,1.3-0.4,2.1-0.4
		c0.6,0,1.2,0.1,1.7,0.2c0.5,0.2,0.9,0.4,1.2,0.6c0.3,0.3,0.5,0.5,0.7,0.8s0.2,0.6,0.2,0.8c0,0.3-0.1,0.5-0.3,0.7
		c-0.2,0.2-0.4,0.3-0.7,0.3c-0.2,0-0.4-0.1-0.6-0.2c-0.1-0.1-0.3-0.3-0.4-0.6c-0.2-0.4-0.4-0.7-0.7-0.9c-0.3-0.2-0.7-0.3-1.3-0.3
		c-0.5,0-1,0.1-1.3,0.4c-0.3,0.2-0.5,0.5-0.5,0.9c0,0.2,0.1,0.4,0.2,0.5c0.1,0.2,0.3,0.3,0.5,0.4c0.2,0.1,0.4,0.2,0.6,0.3
		c0.2,0.1,0.5,0.2,1,0.3c0.6,0.1,1.1,0.3,1.6,0.5c0.5,0.2,0.9,0.4,1.2,0.6c0.3,0.2,0.6,0.5,0.8,0.9
		C91.8,159.2,91.9,159.7,91.9,160.2z"/>
</g>
<g id="XMLID_19_">
	<path id="XMLID_48_" class="st2" d="M84.8,87c-1.4,0-2.5-1.1-2.5-2.5s1.1-2.5,2.5-2.5c1.4,0,2.5,1.1,2.5,2.5v0
		C87.3,85.9,86.2,87,84.8,87 M84.8,79.9c-2.5,0-4.6,2.1-4.6,4.6c0,2.5,2.1,4.6,4.6,4.6s4.6-2.1,4.6-4.6l0,0l0,0
		C89.4,81.9,87.3,79.9,84.8,79.9"/>
	<path id="XMLID_29_" class="st2" d="M92.4,81L92.4,81l-0.1,0.1l0-0.1l0-0.1c-0.3-0.6-0.9-1-1.6-1.1l-0.2,0v9.2l0.2,0
		c1.1-0.1,1.9-1.1,1.9-2.2v-2.4c0-1.3,1-2.4,2.3-2.5l0.1,0v-2.1l-0.2,0C93.8,80,93,80.4,92.4,81"/>
	<path id="XMLID_26_" class="st2" d="M64.1,87c-1.4,0-2.5-1.1-2.5-2.5c0-1.4,1.1-2.5,2.5-2.5c1.4,0,2.5,1.1,2.5,2.5
		C66.7,85.9,65.5,87,64.1,87L64.1,87 M67.1,80.8L67.1,80.8L67.1,80.8L67,80.8l0,0c-2-1.5-4.9-1.1-6.4,0.9c-1.5,2-1.1,4.9,0.9,6.4
		c0.8,0.6,1.8,0.9,2.8,0.9c1,0,2-0.3,2.8-0.9l0,0l0,0l0,0.1l0,0c0.4,0.5,0.9,0.8,1.5,0.9l0.2,0v-9.2l-0.2,0
		C68,80,67.4,80.3,67.1,80.8"/>
	<path id="XMLID_23_" class="st2" d="M100,87c-1.4,0-2.5-1.1-2.5-2.5c0-1.4,1.1-2.5,2.5-2.5c1.4,0,2.5,1.1,2.5,2.5
		C102.5,85.9,101.4,87,100,87C100,87,100,87,100,87 M104.4,79.9c-0.6,0.1-1.1,0.4-1.5,0.9l0,0l0,0.1l0,0l0,0c-2-1.5-4.9-1.1-6.4,0.9
		c-1.5,2-1.1,4.9,0.9,6.4c0.8,0.6,1.8,0.9,2.8,0.9c1,0,2-0.3,2.8-0.9l0,0l0,0l0,0.1l0,0c0.4,0.5,0.9,0.8,1.5,0.9l0.2,0v-9.2
		L104.4,79.9z"/>
	<path id="XMLID_20_" class="st2" d="M74.5,81.9L74.5,81.9c1.4,0,2.5,1.1,2.5,2.5c0,1.4-1.1,2.5-2.5,2.5c-1.4,0-2.5-1.1-2.5-2.5
		C72,83.1,73.1,81.9,74.5,81.9C74.5,81.9,74.5,81.9,74.5,81.9L74.5,81.9 M77.4,88.1c1.9-1.5,2.3-4.2,0.9-6.2
		c-0.1-0.1-0.1-0.2-0.2-0.3c0.5-0.4,0.9-0.9,1-1.6l0-0.2h-4.6c-2.5,0-4.6,2.1-4.6,4.6c0,1.4,0.6,2.7,1.7,3.6
		c-0.2,0.2-0.4,0.3-0.6,0.5l1.4,1.5c0.8-1.1,2.4-1.4,3.5-0.5c1.1,0.8,1.4,2.4,0.5,3.5c-0.2,0.3-0.4,0.5-0.7,0.7l1.4,1.5
		c2-1.5,2.5-4.4,0.9-6.4C77.9,88.6,77.7,88.3,77.4,88.1"/>
</g>
</svg>
