<?xml version="1.0" encoding="UTF-8" standalone="no"?><svg xmlns="http://www.w3.org/2000/svg" xmlns:xlink="http://www.w3.org/1999/xlink" contentStyleType="text/css" height="477px" preserveAspectRatio="none" style="width:386px;height:477px;background:#FFFFFF;" version="1.1" viewBox="0 0 386 477" width="386px" zoomAndPan="magnify"><defs/><g><rect fill="none" height="144.4551" style="stroke:#000000;stroke-width:1.5;" width="370" x="10" y="55.6211"/><rect fill="none" height="113.1641" style="stroke:#000000;stroke-width:1.5;" width="370" x="10" y="214.0762"/><rect fill="none" height="81.873" style="stroke:#000000;stroke-width:1.5;" width="370" x="10" y="341.2402"/><line style="stroke:#181818;stroke-width:0.5;stroke-dasharray:5.0,5.0;" x1="78" x2="78" y1="38.6211" y2="440.1133"/><line style="stroke:#181818;stroke-width:0.5;stroke-dasharray:5.0,5.0;" x1="315" x2="315" y1="38.6211" y2="440.1133"/><rect fill="#E2E2F0" height="32.6211" rx="2.5" ry="2.5" style="stroke:#181818;stroke-width:0.5;" width="116" x="20" y="5"/><text fill="#000000" font-family="sans-serif" font-size="14" lengthAdjust="spacing" textLength="102" x="27" y="27.1074">Your app server</text><rect fill="#E2E2F0" height="32.6211" rx="2.5" ry="2.5" style="stroke:#181818;stroke-width:0.5;" width="116" x="20" y="439.1133"/><text fill="#000000" font-family="sans-serif" font-size="14" lengthAdjust="spacing" textLength="102" x="27" y="461.2207">Your app server</text><rect fill="#E2E2F0" height="32.6211" rx="2.5" ry="2.5" style="stroke:#181818;stroke-width:0.5;" width="110" x="260" y="5"/><text fill="#000000" font-family="sans-serif" font-size="14" lengthAdjust="spacing" textLength="96" x="267" y="27.1074">Real-Time STT</text><rect fill="#E2E2F0" height="32.6211" rx="2.5" ry="2.5" style="stroke:#181818;stroke-width:0.5;" width="110" x="260" y="439.1133"/><text fill="#000000" font-family="sans-serif" font-size="14" lengthAdjust="spacing" textLength="96" x="267" y="461.2207">Real-Time STT</text><path d="M10,55.6211 L168,55.6211 L168,64.9121 L158,74.9121 L10,74.9121 L10,55.6211 " fill="#EEEEEE" style="stroke:#000000;stroke-width:1.5;"/><rect fill="none" height="144.4551" style="stroke:#000000;stroke-width:1.5;" width="370" x="10" y="55.6211"/><text fill="#000000" font-family="sans-serif" font-size="13" font-weight="bold" lengthAdjust="spacing" textLength="113" x="25" y="70.6494">Start transcription</text><polygon fill="#181818" points="303,94.2031,313,98.2031,303,102.2031,307,98.2031" style="stroke:#181818;stroke-width:1.0;"/><line style="stroke:#181818;stroke-width:1.0;" x1="78" x2="309" y1="98.2031" y2="98.2031"/><text fill="#000000" font-family="sans-serif" font-size="13" lengthAdjust="spacing" textLength="213" x="85" y="92.9404">1 Call `acquire` to acquire a resource</text><polygon fill="#181818" points="89,125.4941,79,129.4941,89,133.4941,85,129.4941" style="stroke:#181818;stroke-width:1.0;"/><line style="stroke:#181818;stroke-width:1.0;" x1="83" x2="314" y1="129.4941" y2="129.4941"/><text fill="#000000" font-family="sans-serif" font-size="13" lengthAdjust="spacing" textLength="141" x="95" y="124.2314">2 Return the resource ID</text><polygon fill="#181818" points="303,156.7852,313,160.7852,303,164.7852,307,160.7852" style="stroke:#181818;stroke-width:1.0;"/><line style="stroke:#181818;stroke-width:1.0;" x1="78" x2="309" y1="160.7852" y2="160.7852"/><text fill="#000000" font-family="sans-serif" font-size="13" lengthAdjust="spacing" textLength="191" x="85" y="155.5225">3 Call `start` to start transcription</text><polygon fill="#181818" points="303,188.0762,313,192.0762,303,196.0762,307,192.0762" style="stroke:#181818;stroke-width:1.0;"/><line style="stroke:#181818;stroke-width:1.0;" x1="78" x2="309" y1="192.0762" y2="192.0762"/><text fill="#000000" font-family="sans-serif" font-size="13" lengthAdjust="spacing" textLength="99" x="85" y="186.8135">4 Get the task ID</text><path d="M10,214.0762 L335,214.0762 L335,223.3672 L325,233.3672 L10,233.3672 L10,214.0762 " fill="#EEEEEE" style="stroke:#000000;stroke-width:1.5;"/><rect fill="none" height="113.1641" style="stroke:#000000;stroke-width:1.5;" width="370" x="10" y="214.0762"/><text fill="#000000" font-family="sans-serif" font-size="13" font-weight="bold" lengthAdjust="spacing" textLength="280" x="25" y="229.1045">During transcription (Optional multiple calls)</text><polygon fill="#181818" points="303,252.6582,313,256.6582,303,260.6582,307,256.6582" style="stroke:#181818;stroke-width:1.0;"/><line style="stroke:#181818;stroke-width:1.0;" x1="78" x2="309" y1="256.6582" y2="256.6582"/><text fill="#000000" font-family="sans-serif" font-size="13" lengthAdjust="spacing" textLength="186" x="85" y="251.3955">Call `query` to query task status</text><polygon fill="#181818" points="89,283.9492,79,287.9492,89,291.9492,85,287.9492" style="stroke:#181818;stroke-width:1.0;"/><line style="stroke:#181818;stroke-width:1.0;" x1="83" x2="314" y1="287.9492" y2="287.9492"/><text fill="#000000" font-family="sans-serif" font-size="13" lengthAdjust="spacing" textLength="122" x="95" y="282.6865">Return current status</text><polygon fill="#181818" points="303,315.2402,313,319.2402,303,323.2402,307,319.2402" style="stroke:#181818;stroke-width:1.0;"/><line style="stroke:#181818;stroke-width:1.0;" x1="78" x2="309" y1="319.2402" y2="319.2402"/><text fill="#000000" font-family="sans-serif" font-size="13" lengthAdjust="spacing" textLength="208" x="85" y="313.9775">Call `update` to update configuration</text><path d="M10,341.2402 L167,341.2402 L167,350.5313 L157,360.5313 L10,360.5313 L10,341.2402 " fill="#EEEEEE" style="stroke:#000000;stroke-width:1.5;"/><rect fill="none" height="81.873" style="stroke:#000000;stroke-width:1.5;" width="370" x="10" y="341.2402"/><text fill="#000000" font-family="sans-serif" font-size="13" font-weight="bold" lengthAdjust="spacing" textLength="112" x="25" y="356.2686">Stop transcription</text><polygon fill="#181818" points="303,379.8223,313,383.8223,303,387.8223,307,383.8223" style="stroke:#181818;stroke-width:1.0;"/><line style="stroke:#181818;stroke-width:1.0;" x1="78" x2="309" y1="383.8223" y2="383.8223"/><text fill="#000000" font-family="sans-serif" font-size="13" lengthAdjust="spacing" textLength="178" x="85" y="378.5596">Call `stop` to stop transcription</text><polygon fill="#181818" points="89,411.1133,79,415.1133,89,419.1133,85,415.1133" style="stroke:#181818;stroke-width:1.0;"/><line style="stroke:#181818;stroke-width:1.0;" x1="83" x2="314" y1="415.1133" y2="415.1133"/><text fill="#000000" font-family="sans-serif" font-size="13" lengthAdjust="spacing" textLength="107" x="95" y="409.8506">Return task status</text><!--SRC=[VP4zJyCm48Rt_8fNdM3emCTK8IH49SH4bMHXwyazYaLgk-Sp4lyUnqbHebPClk6zvvux1nArnWPoYiMxJm8A0P7bcsK1YdZQRAem3TLCtRAr1qRJjYLIjsrLxSMdW4Pp52haeX4Rr7fNPGAMZtrgXHiyKzTXI-QOhF0MwZ7M80Z7R62uojc-9NUkS8kQDOc3Vl9V0g_h6VTkvCP-Vg762oOzzc4vOE_nmbgOIl6hvx7RdTPO9x5kF-_6rLjvgSCXTMf3np1vQBoUcGmUnyJoKpnADSp8IfhYRBbnDPD4E1ztJ9ppKjYH3kSQIXZlFkm-2PND9kwD-l3F3vpkvCDufhFq1R-fVZ_g5m00]--></g></svg>