<svg width="1088" height="456" xmlns="http://www.w3.org/2000/svg" xmlns:xlink="http://www.w3.org/1999/xlink" overflow="hidden"><g transform="translate(-110 -121)"><path d="M111 320.334C111 312.97 116.97 307 124.334 307L278.667 307C286.03 307 292 312.97 292 320.334L292 373.666C292 381.03 286.03 387 278.667 387L124.334 387C116.97 387 111 381.03 111 373.666Z" fill="#099DFD" fill-rule="evenodd"/><text fill="#FFFFFF" font-family="Calibri,Calibri_MSFontService,sans-serif" font-weight="400" font-size="24" transform="translate(136.828 355)">Signal Source</text><path d="M579 135.334C579 127.97 584.97 122 592.333 122L746.667 122C754.03 122 760 127.97 760 135.334L760 188.666C760 196.03 754.03 202 746.667 202L592.333 202C584.97 202 579 196.03 579 188.666Z" fill="#099DFD" fill-rule="evenodd"/><text fill="#FFFFFF" font-family="Calibri,Calibri_MSFontService,sans-serif" font-weight="400" font-size="24" transform="translate(611.209 169)">Transcoding</text><path d="M399 320.334C399 312.97 404.97 307 412.333 307L566.667 307C574.03 307 580 312.97 580 320.334L580 373.666C580 381.03 574.03 387 566.667 387L412.333 387C404.97 387 399 381.03 399 373.666Z" fill="#099DFD" fill-rule="evenodd"/><text fill="#FFFFFF" font-family="Calibri,Calibri_MSFontService,sans-serif" font-weight="400" font-size="24" transform="translate(413.201 355)">Media</text><text fill="#FFFFFF" font-family="Calibri,Calibri_MSFontService,sans-serif" font-weight="400" font-size="24" transform="translate(480.868 355)">Gateway</text><path d="M759 320.334C759 312.97 764.97 307 772.333 307L926.667 307C934.03 307 940 312.97 940 320.334L940 373.666C940 381.03 934.03 387 926.667 387L772.333 387C764.97 387 759 381.03 759 373.666Z" fill="#099DFD" fill-rule="evenodd"/><text fill="#FFFFFF" font-family="Calibri,Calibri_MSFontService,sans-serif" font-weight="400" font-size="24" transform="translate(813.096 355)">SD</text><text fill="#FFFFFF" font-family="Calibri,Calibri_MSFontService,sans-serif" font-weight="400" font-size="24" transform="translate(838.93 355)">-</text><text fill="#FFFFFF" font-family="Calibri,Calibri_MSFontService,sans-serif" font-weight="400" font-size="24" transform="translate(846.263 355)">RTN</text><path d="M1016 320.334C1016 312.97 1021.97 307 1029.33 307L1183.67 307C1191.03 307 1197 312.97 1197 320.334L1197 373.666C1197 381.03 1191.03 387 1183.67 387L1029.33 387C1021.97 387 1016 381.03 1016 373.666Z" fill="#099DFD" fill-rule="evenodd"/><text fill="#FFFFFF" font-family="Calibri,Calibri_MSFontService,sans-serif" font-weight="400" font-size="24" transform="translate(1060.81 355)">Audience</text><path d="M579 506.334C579 498.97 584.97 493 592.333 493L746.667 493C754.03 493 760 498.97 760 506.334L760 559.666C760 567.03 754.03 573 746.667 573L592.333 573C584.97 573 579 567.03 579 559.666Z" fill="#099DFD" fill-rule="evenodd"/><text fill="#FFFFFF" font-family="Calibri,Calibri_MSFontService,sans-serif" font-weight="400" font-size="24" transform="translate(595.302 526)">Enhance image</text><text fill="#FFFFFF" font-family="Calibri,Calibri_MSFontService,sans-serif" font-weight="400" font-size="24" transform="translate(636.036 555)">quality</text><path d="M488.833 307.809 488.833 297.143 490.167 297.143 490.167 307.809ZM488.833 293.143 488.833 282.476 490.167 282.476 490.167 293.143ZM488.833 278.476 488.833 267.809 490.167 267.809 490.167 278.476ZM488.833 263.809 488.833 253.143 490.167 253.143 490.167 263.809ZM488.833 249.143 488.833 238.476 490.167 238.476 490.167 249.143ZM488.833 234.476 488.833 223.809 490.167 223.809 490.167 234.476ZM488.833 219.809 488.833 209.143 490.167 209.143 490.167 219.809ZM488.833 205.143 488.833 194.476 490.167 194.476 490.167 205.143ZM488.833 190.476 488.833 179.809 490.167 179.809 490.167 190.476ZM488.833 175.809 488.833 165.143 490.167 165.143 490.167 175.809ZM490.858 161.833 501.524 161.833 501.524 163.167 490.858 163.167ZM505.524 161.833 516.191 161.833 516.191 163.167 505.524 163.167ZM520.191 161.833 530.858 161.833 530.858 163.167 520.191 163.167ZM534.858 161.833 545.524 161.833 545.524 163.167 534.858 163.167ZM549.524 161.833 560.191 161.833 560.191 163.167 549.524 163.167ZM564.191 161.833 571.977 161.833 571.977 163.167 564.191 163.167ZM570.644 155.833 578.644 162.5 570.644 169.167Z" fill="#099DFD"/><path d="M760.5 161.833 771.167 161.833 771.167 163.167 760.5 163.167ZM775.167 161.833 785.833 161.833 785.833 163.167 775.167 163.167ZM789.833 161.833 800.5 161.833 800.5 163.167 789.833 163.167ZM804.5 161.833 815.167 161.833 815.167 163.167 804.5 163.167ZM819.167 161.833 829.833 161.833 829.833 163.167 819.167 163.167ZM833.833 161.833 844.5 161.833 844.5 163.167 833.833 163.167ZM848.5 161.833 850.681 161.833 850.681 171.653 849.347 171.653 849.347 162.5 850.014 163.167 848.5 163.167ZM850.681 175.653 850.681 186.32 849.347 186.32 849.347 175.653ZM850.681 190.32 850.681 200.986 849.347 200.986 849.347 190.32ZM850.681 204.986 850.681 215.653 849.347 215.653 849.347 204.986ZM850.681 219.653 850.681 230.32 849.347 230.32 849.347 219.653ZM850.681 234.32 850.681 244.986 849.347 244.986 849.347 234.32ZM850.681 248.986 850.681 259.653 849.347 259.653 849.347 248.986ZM850.681 263.653 850.681 274.32 849.347 274.32 849.347 263.653ZM850.681 278.32 850.681 288.986 849.347 288.986 849.347 278.32ZM850.681 292.986 850.681 301.143 849.347 301.143 849.347 292.986ZM856.681 299.809 850.014 307.809 843.347 299.809Z" fill="#099DFD"/><path d="M0-0.666667 10.6667-0.666667 10.6667 0.666667 0 0.666667ZM14.6667-0.666667 25.3333-0.666667 25.3333 0.666667 14.6667 0.666667ZM29.3333-0.666667 40-0.666667 40 0.666667 29.3333 0.666667ZM44-0.666667 54.6667-0.666667 54.6667 0.666667 44 0.666667ZM58.6667-0.666667 69.3333-0.666667 69.3333 0.666667 58.6667 0.666667ZM73.3333-0.666667 84-0.666667 84 0.666667 73.3333 0.666667ZM88-0.666667 98.6667-0.666667 98.6667 0.666667 88 0.666667ZM102.667-0.666667 113.333-0.666667 113.333 0.666667 102.667 0.666667ZM117.333-0.666667 128-0.666667 128 0.666667 117.333 0.666667ZM132-0.666667 142.667-0.666667 142.667 0.666667 132 0.666667ZM145.976 1.35748 145.976 12.0241 144.643 12.0241 144.643 1.35748ZM145.976 16.0241 145.976 26.6908 144.643 26.6908 144.643 16.0241ZM145.976 30.6908 145.976 41.3575 144.643 41.3575 144.643 30.6908ZM145.976 45.3575 145.976 56.0241 144.643 56.0241 144.643 45.3575ZM145.976 60.0241 145.976 70.6908 144.643 70.6908 144.643 60.0241ZM145.976 74.6908 145.976 82.4773 144.643 82.4773 144.643 74.6908ZM151.976 81.1439 145.309 89.1439 138.643 81.1439Z" fill="#099DFD" transform="matrix(1.83697e-16 1 1 -1.83697e-16 489.5 387.5)"/><path d="M0-0.666667 10.6667-0.666667 10.6667 0.666667 0 0.666667ZM14.6667-0.666667 25.3333-0.666667 25.3333 0.666667 14.6667 0.666667ZM29.3333-0.666667 40-0.666667 40 0.666667 29.3333 0.666667ZM44-0.666667 54.6667-0.666667 54.6667 0.666667 44 0.666667ZM58.6667-0.666667 69.3333-0.666667 69.3333 0.666667 58.6667 0.666667ZM73.3333-0.666667 84-0.666667 84 0.666667 73.3333 0.666667ZM88-0.666667 90.1805-0.666667 90.1805 9.15286 88.8471 9.15286 88.8471 0 89.5138 0.666667 88 0.666667ZM90.1805 13.1529 90.1805 23.8195 88.8471 23.8195 88.8471 13.1529ZM90.1805 27.8195 90.1805 38.4862 88.8471 38.4862 88.8471 27.8195ZM90.1805 42.4862 90.1805 53.1529 88.8471 53.1529 88.8471 42.4862ZM90.1805 57.1529 90.1805 67.8195 88.8471 67.8195 88.8471 57.1529ZM90.1805 71.8195 90.1805 82.4862 88.8471 82.4862 88.8471 71.8195ZM90.1805 86.4862 90.1805 97.1529 88.8471 97.1529 88.8471 86.4862ZM90.1805 101.153 90.1805 111.82 88.8471 111.82 88.8471 101.153ZM90.1805 115.82 90.1805 126.486 88.8471 126.486 88.8471 115.82ZM90.1805 130.486 90.1805 138.642 88.8471 138.642 88.8471 130.486ZM96.1805 137.309 89.5138 145.309 82.8471 137.309Z" fill="#099DFD" transform="matrix(1 0 0 -1 760.5 532.809)"/><path d="M580.5 346.833 752.491 346.833 752.491 348.167 580.5 348.167ZM751.158 343.5 759.158 347.5 751.158 351.5Z" fill="#099DFD"/><path d="M940.5 346.833 1009.22 346.833 1009.22 348.167 940.5 348.167ZM1007.89 343.5 1015.89 347.5 1007.89 351.5Z" fill="#099DFD"/><path d="M287.5 328.833 392.765 328.833 392.765 330.167 287.5 330.167ZM391.432 325.5 399.432 329.5 391.432 333.5Z" fill="#099DFD"/><text fill="#099DFD" font-family="Calibri,Calibri_MSFontService,sans-serif" font-weight="400" font-size="21" transform="translate(316.005 324)">RTMP</text><text fill="#099DFD" font-family="Calibri,Calibri_MSFontService,sans-serif" font-weight="400" font-size="21" transform="translate(325.672 387)">SRT</text><path d="M286.5 365.833 391.765 365.833 391.765 367.167 286.5 367.167ZM390.432 362.5 398.432 366.5 390.432 370.5Z" fill="#099DFD"/><path d="M645 339.167C645 336.866 646.866 335 649.167 335L688.833 335C691.134 335 693 336.866 693 339.167L693 355.833C693 358.134 691.134 360 688.833 360L649.167 360C646.866 360 645 358.134 645 355.833Z" fill="#FFFFFF" fill-rule="evenodd"/><text fill="#099DFD" font-family="Calibri,Calibri_MSFontService,sans-serif" font-weight="400" font-size="27" transform="translate(648.939 357)">RTC</text></g></svg>