<?xml version="1.0" encoding="us-ascii" standalone="no"?><svg xmlns="http://www.w3.org/2000/svg" xmlns:xlink="http://www.w3.org/1999/xlink" contentStyleType="text/css" height="325px" preserveAspectRatio="none" style="width:746px;height:325px;" version="1.1" viewBox="0 0 746 325" width="746px" zoomAndPan="magnify"><defs/><g><rect fill="none" height="323.6846" style="stroke:#0A9EFD;stroke-width:1.0;" width="744" x="0" y="0"/><rect fill="#E6F9FF" height="313.6846" style="stroke:#0A9EFD;stroke-width:0.5;" width="136" x="16" y="6"/><rect fill="#F1F7FF" height="313.6846" style="stroke:#0A9EFD;stroke-width:0.5;" width="94" x="324" y="6"/><rect fill="#FFF7E7" height="313.6846" style="stroke:#0A9EFD;stroke-width:0.5;" width="118" x="615" y="6"/><rect fill="#ECFDF3" height="152.5898" style="stroke:#0A9EFD;stroke-width:2.0;" width="729" x="10" y="115.9961"/><rect fill="#FEF3F2" height="45.8975" style="stroke:none;stroke-width:1.0;" width="729" x="10" y="176.791"/><rect fill="#FFF7E7" height="45.8975" style="stroke:none;stroke-width:1.0;" width="729" x="10" y="222.6885"/><line style="stroke:#0A9EFD;stroke-width:0.5;stroke-dasharray:5.0,5.0;" x1="84" x2="84" y1="41.0986" y2="285.5859"/><line style="stroke:#0A9EFD;stroke-width:0.5;stroke-dasharray:5.0,5.0;" x1="371" x2="371" y1="41.0986" y2="285.5859"/><line style="stroke:#0A9EFD;stroke-width:0.5;stroke-dasharray:5.0,5.0;" x1="674" x2="674" y1="41.0986" y2="285.5859"/><rect fill="none" height="30.0986" rx="2.5" ry="2.5" style="stroke:#0A9EFD;stroke-width:2.0;" width="128" x="20" y="10"/><text fill="#0A9EFD" font-family="Arial" font-size="14" lengthAdjust="spacing" textLength="110" x="31" y="30.1318">App: Broadcaster</text><rect fill="none" height="30.0986" rx="2.5" ry="2.5" style="stroke:#0A9EFD;stroke-width:2.0;" width="128" x="20" y="284.5859"/><text fill="#0A9EFD" font-family="Arial" font-size="14" lengthAdjust="spacing" textLength="110" x="31" y="304.7178">App: Broadcaster</text><rect fill="none" height="30.0986" rx="2.5" ry="2.5" style="stroke:#0A9EFD;stroke-width:2.0;" width="86" x="328" y="10"/><text fill="#0A9EFD" font-family="Arial" font-size="14" lengthAdjust="spacing" textLength="68" x="339" y="30.1318">Video SDK</text><rect fill="none" height="30.0986" rx="2.5" ry="2.5" style="stroke:#0A9EFD;stroke-width:2.0;" width="86" x="328" y="284.5859"/><text fill="#0A9EFD" font-family="Arial" font-size="14" lengthAdjust="spacing" textLength="68" x="339" y="304.7178">Video SDK</text><rect fill="none" height="30.0986" rx="2.5" ry="2.5" style="stroke:#0A9EFD;stroke-width:2.0;" width="110" x="619" y="10"/><text fill="#0A9EFD" font-family="Arial" font-size="14" lengthAdjust="spacing" textLength="92" x="630" y="30.1318">App: Audience</text><rect fill="none" height="30.0986" rx="2.5" ry="2.5" style="stroke:#0A9EFD;stroke-width:2.0;" width="110" x="619" y="284.5859"/><text fill="#0A9EFD" font-family="Arial" font-size="14" lengthAdjust="spacing" textLength="92" x="630" y="304.7178">App: Audience</text><polygon fill="#0A9EFD" points="359,68.0474,369,72.0474,359,76.0474,363,72.0474" style="stroke:#0A9EFD;stroke-width:1.0;"/><line style="stroke:#0A9EFD;stroke-width:2.0;" x1="84" x2="365" y1="72.0474" y2="72.0474"/><text fill="#0A9EFD" font-family="Arial" font-size="13" lengthAdjust="spacing" textLength="263" x="96" y="67.2925">Register raw video data observer and callback</text><polygon fill="#0A9EFD" points="382,96.9961,372,100.9961,382,104.9961,378,100.9961" style="stroke:#0A9EFD;stroke-width:1.0;"/><line style="stroke:#0A9EFD;stroke-width:2.0;" x1="376" x2="673" y1="100.9961" y2="100.9961"/><text fill="#0A9EFD" font-family="Arial" font-size="13" lengthAdjust="spacing" textLength="263" x="391" y="96.2412">Register raw video data observer and callback</text><path d="M10,115.9961 L69,115.9961 L69,122.9448 L59,132.9448 L10,132.9448 L10,115.9961 " fill="#EEEEEE" style="stroke:#0A9EFD;stroke-width:1.5;"/><rect fill="none" height="152.5898" style="stroke:#0A9EFD;stroke-width:2.0;" width="729" x="10" y="115.9961"/><text fill="#000000" font-family="Arial" font-size="13" lengthAdjust="spacing" textLength="14" x="25" y="129.1899">alt</text><text fill="#0A9EFD" font-family="Arial" font-size="13" font-weight="bold" lengthAdjust="spacing" textLength="4" x="84" y="130.1899">[</text><text fill="#0A9EFD" font-family="Arial" font-size="13" font-weight="bold" lengthAdjust="spacing" textLength="57" x="84" y="145.1387">Option 1]</text><line style="stroke:#0A9EFD;stroke-width:2.0;" x1="85" x2="95" y1="168.791" y2="164.791"/><line style="stroke:#0A9EFD;stroke-width:2.0;" x1="85" x2="95" y1="168.791" y2="172.791"/><line style="stroke:#0A9EFD;stroke-width:2.0;stroke-dasharray:2.0,2.0;" x1="84" x2="370" y1="168.791" y2="168.791"/><text fill="#0A9EFD" font-family="Arial" font-size="13" lengthAdjust="spacing" textLength="259" x="98" y="164.0361">Retrieve and process video data after capture</text><line style="stroke:#0A9EFD;stroke-width:1.0;stroke-dasharray:2.0,2.0;" x1="10" x2="739" y1="177.791" y2="177.791"/><text fill="#0A9EFD" font-family="Arial" font-size="13" font-weight="bold" lengthAdjust="spacing" textLength="61" x="15" y="189.9849">[Option 2]</text><line style="stroke:#0A9EFD;stroke-width:2.0;" x1="85" x2="95" y1="214.6885" y2="210.6885"/><line style="stroke:#0A9EFD;stroke-width:2.0;" x1="85" x2="95" y1="214.6885" y2="218.6885"/><line style="stroke:#0A9EFD;stroke-width:2.0;stroke-dasharray:2.0,2.0;" x1="84" x2="370" y1="214.6885" y2="214.6885"/><text fill="#0A9EFD" font-family="Arial" font-size="13" lengthAdjust="spacing" textLength="234" x="110.5" y="209.9336">Retrieve video data before local encoding</text><line style="stroke:#0A9EFD;stroke-width:1.0;stroke-dasharray:2.0,2.0;" x1="10" x2="739" y1="223.6885" y2="223.6885"/><text fill="#0A9EFD" font-family="Arial" font-size="13" font-weight="bold" lengthAdjust="spacing" textLength="61" x="15" y="235.8823">[Option 3]</text><line style="stroke:#0A9EFD;stroke-width:2.0;" x1="672" x2="662" y1="260.5859" y2="256.5859"/><line style="stroke:#0A9EFD;stroke-width:2.0;" x1="672" x2="662" y1="260.5859" y2="264.5859"/><line style="stroke:#0A9EFD;stroke-width:2.0;stroke-dasharray:2.0,2.0;" x1="371" x2="673" y1="260.5859" y2="260.5859"/><text fill="#0A9EFD" font-family="Arial" font-size="13" lengthAdjust="spacing" textLength="279" x="383" y="255.8311">Retrieve remote video data before local rendering</text><!--SRC=[dP5FImCn4CNl-HHZ5Qg75Re5YqKMQjk0U11KF0aokvakeTaa9jbMlxt9sifI_noypl1-xysR8TmqrhW0dbvRqXM1a5WxRC2lfMP7KbUg5GHO6uSlQNOksqOnDeIv8mm45bsGbRIeWsUbUOFZvGM_v9pr5Z2uEa5h2vXPEuLhPr1Kw0Ev0Q27k1anqWAY-fF0HtpodU35ke0dASZ0m-AsayRHWPBpoNBoWtVsJagPxIx2h1KoNRltpxyeyR176HJ1gR516etgZAM0a1N9RGhtLCiK7HnkOTEb4HWGJEd9RU8S8wb2fKgiracQ_rFAK8LOvfml-1YUzLqN1qOC8D4WougYgovnWvEqeKvldQd8-puVLycqGXjQHuoKfrZKaezv3Zjg_XUrHoffPHo1CZ4bn0ADaBhU4xlgzyJn8J7l4Hqr9lmETl4Pv3go5km3]--></g></svg>