<?xml version="1.0" encoding="us-ascii" standalone="no"?><svg xmlns="http://www.w3.org/2000/svg" xmlns:xlink="http://www.w3.org/1999/xlink" contentStyleType="text/css" height="973px" preserveAspectRatio="none" style="width:601px;height:973px;" version="1.1" viewBox="0 0 601 973" width="601px" zoomAndPan="magnify"><defs><style type="text/css">@import url('https://fonts.googleapis.com/css?family=Roboto:400,100,100italic,300,300italic,400italic,500,500italic,700,700italic,900,900italic');</style></defs><g><rect fill="none" height="971.5625" style="stroke:#0A9EFD;stroke-width:1.0;" width="599" x="0" y="0"/><rect fill="#F3F3F3" height="961.5625" style="stroke:#0A9EFD;stroke-width:0.5;" width="92" x="161" y="6"/><text fill="#0A9EFD" font-family="sans-serif" font-size="13" font-weight="bold" lengthAdjust="spacing" textLength="57" x="178.5" y="19.4951">Your app</text><rect fill="#F3F3F3" height="961.5625" style="stroke:#0A9EFD;stroke-width:0.5;" width="76" x="513" y="6"/><text fill="#0A9EFD" font-family="sans-serif" font-size="13" font-weight="bold" lengthAdjust="spacing" textLength="38" x="532" y="19.4951">Agora</text><rect fill="#FFFFFF" height="122.625" style="stroke:#0A9EFD;stroke-width:2.0;" width="585" x="10" y="220.625"/><rect fill="#FFFFFF" height="200.8438" style="stroke:#0A9EFD;stroke-width:2.0;" width="585" x="10" y="357.25"/><rect fill="#FFFFFF" height="109.625" style="stroke:#0A9EFD;stroke-width:2.0;" width="585" x="10" y="572.0938"/><rect fill="#FFFFFF" height="109.625" style="stroke:#0A9EFD;stroke-width:2.0;" width="585" x="10" y="695.7188"/><line style="stroke:#0A9EFD;stroke-width:0.5;stroke-dasharray:5.0,5.0;" x1="39" x2="39" y1="86.4063" y2="883.1563"/><line style="stroke:#0A9EFD;stroke-width:0.5;stroke-dasharray:5.0,5.0;" x1="207" x2="207" y1="86.4063" y2="883.1563"/><line style="stroke:#0A9EFD;stroke-width:0.5;stroke-dasharray:5.0,5.0;" x1="551" x2="551" y1="86.4063" y2="883.1563"/><text fill="#0A9EFD" font-family="Roboto" font-size="14" font-weight="bold" lengthAdjust="spacing" textLength="32" x="20" y="82.9883">User</text><ellipse cx="39" cy="16" fill="none" rx="8" ry="8" style="stroke:#0A9EFD;stroke-width:3.0;"/><path d="M39,24 L39,51 M26,32 L52,32 M39,51 L26,66 M39,51 L52,66 " fill="none" style="stroke:#0A9EFD;stroke-width:3.0;"/><text fill="#0A9EFD" font-family="Roboto" font-size="14" font-weight="bold" lengthAdjust="spacing" textLength="32" x="20" y="895.1445">User</text><ellipse cx="39" cy="909.5625" fill="none" rx="8" ry="8" style="stroke:#0A9EFD;stroke-width:3.0;"/><path d="M39,917.5625 L39,944.5625 M26,925.5625 L52,925.5625 M39,944.5625 L26,959.5625 M39,944.5625 L52,959.5625 " fill="none" style="stroke:#0A9EFD;stroke-width:3.0;"/><rect fill="#FFFFFF" height="30.4063" rx="2.5" ry="2.5" style="stroke:#0A9EFD;stroke-width:2.0;" width="84" x="165" y="55"/><text fill="#0A9EFD" font-family="Roboto" font-size="14" font-weight="bold" lengthAdjust="spacing" textLength="70" x="172" y="74.9883">Video SDK</text><rect fill="#FFFFFF" height="30.4063" rx="2.5" ry="2.5" style="stroke:#0A9EFD;stroke-width:2.0;" width="84" x="165" y="882.1563"/><text fill="#0A9EFD" font-family="Roboto" font-size="14" font-weight="bold" lengthAdjust="spacing" textLength="70" x="172" y="902.1445">Video SDK</text><rect fill="#FFFFFF" height="30.4063" rx="2.5" ry="2.5" style="stroke:#0A9EFD;stroke-width:2.0;" width="68" x="517" y="55"/><text fill="#0A9EFD" font-family="Roboto" font-size="14" font-weight="bold" lengthAdjust="spacing" textLength="54" x="524" y="74.9883">SD-RTN</text><rect fill="#FFFFFF" height="30.4063" rx="2.5" ry="2.5" style="stroke:#0A9EFD;stroke-width:2.0;" width="68" x="517" y="882.1563"/><text fill="#0A9EFD" font-family="Roboto" font-size="14" font-weight="bold" lengthAdjust="spacing" textLength="54" x="524" y="902.1445">SD-RTN</text><polygon fill="#0A9EFD" points="195,114.8125,205,118.8125,195,122.8125,199,118.8125" style="stroke:#0A9EFD;stroke-width:1.0;"/><line style="stroke:#0A9EFD;stroke-width:2.0;" x1="39" x2="201" y1="118.8125" y2="118.8125"/><text fill="#0A9EFD" font-family="Roboto" font-size="14" font-weight="bold" lengthAdjust="spacing" textLength="62" x="92" y="113.3945">Open App</text><line style="stroke:#0A9EFD;stroke-width:2.0;" x1="207" x2="249" y1="149.2188" y2="149.2188"/><line style="stroke:#0A9EFD;stroke-width:2.0;" x1="249" x2="249" y1="149.2188" y2="162.2188"/><line style="stroke:#0A9EFD;stroke-width:2.0;" x1="208" x2="249" y1="162.2188" y2="162.2188"/><polygon fill="#0A9EFD" points="218,158.2188,208,162.2188,218,166.2188,214,162.2188" style="stroke:#0A9EFD;stroke-width:1.0;"/><text fill="#0A9EFD" font-family="Roboto" font-size="14" font-weight="bold" lengthAdjust="spacing" textLength="330" x="214" y="143.8008">Create an Agora Engine instance using Video SDK</text><line style="stroke:#0A9EFD;stroke-width:2.0;" x1="207" x2="249" y1="192.625" y2="192.625"/><line style="stroke:#0A9EFD;stroke-width:2.0;" x1="249" x2="249" y1="192.625" y2="205.625"/><line style="stroke:#0A9EFD;stroke-width:2.0;" x1="208" x2="249" y1="205.625" y2="205.625"/><polygon fill="#0A9EFD" points="218,201.625,208,205.625,218,209.625,214,205.625" style="stroke:#0A9EFD;stroke-width:1.0;"/><text fill="#0A9EFD" font-family="Roboto" font-size="14" font-weight="bold" lengthAdjust="spacing" textLength="260" x="214" y="187.207">Enable audio and video in Agora Engine</text><path d="M10,220.625 L84,220.625 L84,229.0313 L74,239.0313 L10,239.0313 L10,220.625 " fill="#EEEEEE" style="stroke:#0A9EFD;stroke-width:1.5;"/><rect fill="none" height="122.625" style="stroke:#0A9EFD;stroke-width:2.0;" width="585" x="10" y="220.625"/><text fill="#0A9EFD" font-family="Roboto" font-size="14" font-weight="bold" lengthAdjust="spacing" textLength="29" x="25" y="234.6133">Join</text><polygon fill="#0A9EFD" points="195,257.4375,205,261.4375,195,265.4375,199,261.4375" style="stroke:#0A9EFD;stroke-width:1.0;"/><line style="stroke:#0A9EFD;stroke-width:2.0;" x1="39" x2="201" y1="261.4375" y2="261.4375"/><text fill="#0A9EFD" font-family="Roboto" font-size="14" font-weight="bold" lengthAdjust="spacing" textLength="95" x="75.5" y="256.0195">Join a channel</text><line style="stroke:#0A9EFD;stroke-width:2.0;" x1="207" x2="249" y1="291.8438" y2="291.8438"/><line style="stroke:#0A9EFD;stroke-width:2.0;" x1="249" x2="249" y1="291.8438" y2="304.8438"/><line style="stroke:#0A9EFD;stroke-width:2.0;" x1="208" x2="249" y1="304.8438" y2="304.8438"/><polygon fill="#0A9EFD" points="218,300.8438,208,304.8438,218,308.8438,214,304.8438" style="stroke:#0A9EFD;stroke-width:1.0;"/><text fill="#0A9EFD" font-family="Roboto" font-size="14" font-weight="bold" lengthAdjust="spacing" textLength="312" x="214" y="286.4258">Retrieve authentication token to join a channel</text><polygon fill="#0A9EFD" points="539,331.25,549,335.25,539,339.25,543,335.25" style="stroke:#0A9EFD;stroke-width:1.0;"/><line style="stroke:#0A9EFD;stroke-width:2.0;" x1="207" x2="545" y1="335.25" y2="335.25"/><text fill="#0A9EFD" font-family="Roboto" font-size="14" font-weight="bold" lengthAdjust="spacing" textLength="109" x="324.5" y="329.832">Join the channel</text><path d="M10,357.25 L171,357.25 L171,365.6563 L161,375.6563 L10,375.6563 L10,357.25 " fill="#EEEEEE" style="stroke:#0A9EFD;stroke-width:1.5;"/><rect fill="none" height="200.8438" style="stroke:#0A9EFD;stroke-width:2.0;" width="585" x="10" y="357.25"/><text fill="#0A9EFD" font-family="Roboto" font-size="14" font-weight="bold" lengthAdjust="spacing" textLength="116" x="25" y="371.2383">Play audio effect</text><polygon fill="#0A9EFD" points="195,394.0625,205,398.0625,195,402.0625,199,398.0625" style="stroke:#0A9EFD;stroke-width:1.0;"/><line style="stroke:#0A9EFD;stroke-width:2.0;" x1="39" x2="201" y1="398.0625" y2="398.0625"/><text fill="#0A9EFD" font-family="Roboto" font-size="14" font-weight="bold" lengthAdjust="spacing" textLength="144" x="51" y="392.6445">Trigger sound effect</text><polygon fill="#0A9EFD" points="539,424.4688,549,428.4688,539,432.4688,543,428.4688" style="stroke:#0A9EFD;stroke-width:1.0;"/><line style="stroke:#0A9EFD;stroke-width:2.0;" x1="207" x2="545" y1="428.4688" y2="428.4688"/><text fill="#0A9EFD" font-family="Roboto" font-size="14" font-weight="bold" lengthAdjust="spacing" textLength="75" x="341.5" y="423.0508">Play effect</text><polygon fill="#0A9EFD" points="539,454.875,549,458.875,539,462.875,543,458.875" style="stroke:#0A9EFD;stroke-width:1.0;"/><line style="stroke:#0A9EFD;stroke-width:2.0;" x1="207" x2="545" y1="458.875" y2="458.875"/><text fill="#0A9EFD" font-family="Roboto" font-size="14" font-weight="bold" lengthAdjust="spacing" textLength="169" x="294.5" y="453.457">Pause and resume effect</text><polygon fill="#0A9EFD" points="539,485.2813,549,489.2813,539,493.2813,543,489.2813" style="stroke:#0A9EFD;stroke-width:1.0;"/><line style="stroke:#0A9EFD;stroke-width:2.0;" x1="207" x2="545" y1="489.2813" y2="489.2813"/><text fill="#0A9EFD" font-family="Roboto" font-size="14" font-weight="bold" lengthAdjust="spacing" textLength="129" x="314.5" y="483.8633">Set effect position</text><polygon fill="#0A9EFD" points="539,515.6875,549,519.6875,539,523.6875,543,519.6875" style="stroke:#0A9EFD;stroke-width:1.0;"/><line style="stroke:#0A9EFD;stroke-width:2.0;" x1="207" x2="545" y1="519.6875" y2="519.6875"/><text fill="#0A9EFD" font-family="Roboto" font-size="14" font-weight="bold" lengthAdjust="spacing" textLength="121" x="318.5" y="514.2695">Set effect volume</text><polygon fill="#0A9EFD" points="218,546.0938,208,550.0938,218,554.0938,214,550.0938" style="stroke:#0A9EFD;stroke-width:1.0;"/><line style="stroke:#0A9EFD;stroke-width:2.0;" x1="212" x2="550" y1="550.0938" y2="550.0938"/><text fill="#0A9EFD" font-family="Roboto" font-size="14" font-weight="bold" lengthAdjust="spacing" textLength="165" x="296.5" y="544.6758">On audio effect finished</text><path d="M10,572.0938 L141,572.0938 L141,580.5 L131,590.5 L10,590.5 L10,572.0938 " fill="#EEEEEE" style="stroke:#0A9EFD;stroke-width:1.5;"/><rect fill="none" height="109.625" style="stroke:#0A9EFD;stroke-width:2.0;" width="585" x="10" y="572.0938"/><text fill="#0A9EFD" font-family="Roboto" font-size="14" font-weight="bold" lengthAdjust="spacing" textLength="86" x="25" y="586.082">Audio mixing</text><polygon fill="#0A9EFD" points="195,608.9063,205,612.9063,195,616.9063,199,612.9063" style="stroke:#0A9EFD;stroke-width:1.0;"/><line style="stroke:#0A9EFD;stroke-width:2.0;" x1="39" x2="201" y1="612.9063" y2="612.9063"/><text fill="#0A9EFD" font-family="Roboto" font-size="14" font-weight="bold" lengthAdjust="spacing" textLength="139" x="53.5" y="607.4883">Control audio mixing</text><polygon fill="#0A9EFD" points="539,639.3125,549,643.3125,539,647.3125,543,643.3125" style="stroke:#0A9EFD;stroke-width:1.0;"/><line style="stroke:#0A9EFD;stroke-width:2.0;" x1="207" x2="545" y1="643.3125" y2="643.3125"/><text fill="#0A9EFD" font-family="Roboto" font-size="14" font-weight="bold" lengthAdjust="spacing" textLength="123" x="317.5" y="637.8945">Start audio mixing</text><polygon fill="#0A9EFD" points="539,669.7188,549,673.7188,539,677.7188,543,673.7188" style="stroke:#0A9EFD;stroke-width:1.0;"/><line style="stroke:#0A9EFD;stroke-width:2.0;" x1="207" x2="545" y1="673.7188" y2="673.7188"/><text fill="#0A9EFD" font-family="Roboto" font-size="14" font-weight="bold" lengthAdjust="spacing" textLength="120" x="319" y="668.3008">Stop audio mixing</text><path d="M10,695.7188 L148,695.7188 L148,704.125 L138,714.125 L10,714.125 L10,695.7188 " fill="#EEEEEE" style="stroke:#0A9EFD;stroke-width:1.5;"/><rect fill="none" height="109.625" style="stroke:#0A9EFD;stroke-width:2.0;" width="585" x="10" y="695.7188"/><text fill="#0A9EFD" font-family="Roboto" font-size="14" font-weight="bold" lengthAdjust="spacing" textLength="93" x="25" y="709.707">Voice effects</text><polygon fill="#0A9EFD" points="195,732.5313,205,736.5313,195,740.5313,199,736.5313" style="stroke:#0A9EFD;stroke-width:1.0;"/><line style="stroke:#0A9EFD;stroke-width:2.0;" x1="39" x2="201" y1="736.5313" y2="736.5313"/><text fill="#0A9EFD" font-family="Roboto" font-size="14" font-weight="bold" lengthAdjust="spacing" textLength="133" x="56.5" y="731.1133">Apply a voice effect</text><polygon fill="#0A9EFD" points="539,762.9375,549,766.9375,539,770.9375,543,766.9375" style="stroke:#0A9EFD;stroke-width:1.0;"/><line style="stroke:#0A9EFD;stroke-width:2.0;" x1="207" x2="545" y1="766.9375" y2="766.9375"/><text fill="#0A9EFD" font-family="Roboto" font-size="14" font-weight="bold" lengthAdjust="spacing" textLength="156" x="301" y="761.5195">Set preset voice effect</text><polygon fill="#0A9EFD" points="539,793.3438,549,797.3438,539,801.3438,543,797.3438" style="stroke:#0A9EFD;stroke-width:1.0;"/><line style="stroke:#0A9EFD;stroke-width:2.0;" x1="207" x2="545" y1="797.3438" y2="797.3438"/><text fill="#0A9EFD" font-family="Roboto" font-size="14" font-weight="bold" lengthAdjust="spacing" textLength="161" x="298.5" y="791.9258">Disable the voice effect</text><polygon fill="#0A9EFD" points="195,830.75,205,834.75,195,838.75,199,834.75" style="stroke:#0A9EFD;stroke-width:1.0;"/><line style="stroke:#0A9EFD;stroke-width:2.0;" x1="39" x2="201" y1="834.75" y2="834.75"/><text fill="#0A9EFD" font-family="Roboto" font-size="14" font-weight="bold" lengthAdjust="spacing" textLength="119" x="63.5" y="829.332">Leave the channel</text><polygon fill="#0A9EFD" points="539,861.1563,549,865.1563,539,869.1563,543,865.1563" style="stroke:#0A9EFD;stroke-width:1.0;"/><line style="stroke:#0A9EFD;stroke-width:2.0;" x1="207" x2="545" y1="865.1563" y2="865.1563"/><text fill="#0A9EFD" font-family="Roboto" font-size="14" font-weight="bold" lengthAdjust="spacing" textLength="119" x="319.5" y="859.7383">Leave the channel</text><!--SRC=[VLB9JiCm4BtxAuRSomSWX5HH3Yo2gWKaJiWaqtGWdR6yLF3tZ4CACRHS8iLlcVV6FYAkkzGWs5QyVGvlnCUKDfqnjexYeNe8w2km0HwM2sDUv1sg9qaUh7ELSTP7gibPZb0zKeC2ozbrJv_EvmQv0LKCiccUy4kpd4qMzxU3uF97eCDWSfPDJk3E8SFKEQD_tuVd7ctKr8faMxZWbXY1E4JBDK8An2ryHogq5snVEjMcXaGT6jZsD2gzZ6cz90TNGbpaoGTWeLvRPkmAvmL6JxZDtd6Dh3rj9668yeRv2wy7j9U3hQfs8EHjx4BCE_in1CRL2kjO9BhtrBRe8KZIDWDXxDtBzvtR5B1VWSUGDhYFiyGu78EJGBdF8NmhdPhqwEda2xtZ8ZQiY2ciiHcNc_Q43RthbHMzpeMZbsvm60Z5xAYFwJzON8cEfZuArRl2eHYhRwtJRMkT7yQVoautXl4mPqQXVsNvHWjI7s4yxWRj5iStN_ZyHJy1]--></g></svg>