<?xml version="1.0" encoding="UTF-8" standalone="no"?><svg xmlns="http://www.w3.org/2000/svg" xmlns:xlink="http://www.w3.org/1999/xlink" contentStyleType="text/css" height="821px" preserveAspectRatio="none" style="width:625px;height:821px;" version="1.1" viewBox="0 0 625 821" width="625px" zoomAndPan="magnify"><defs/><g><rect fill="none" height="819.2539" style="stroke:#0A9EFD;stroke-width:1.0;" width="623.5" x="0" y="0"/><rect fill="#F3F3F3" height="809.2539" style="stroke:#0A9EFD;stroke-width:0.5;" width="97" x="152.5" y="6"/><text fill="#000000" font-family="sans-serif" font-size="13" font-weight="bold" lengthAdjust="spacing" textLength="62" x="170" y="18.5684">Your app</text><rect fill="#F3F3F3" height="809.2539" style="stroke:#0A9EFD;stroke-width:0.5;" width="81" x="532.5" y="6"/><text fill="#000000" font-family="sans-serif" font-size="13" font-weight="bold" lengthAdjust="spacing" textLength="41" x="552.5" y="18.5684">Agora</text><rect fill="#FFFFFF" height="122.9531" style="stroke:#0A9EFD;stroke-width:2.0;" width="609.5" x="10" y="220.9531"/><rect fill="#FFFFFF" height="201.418" style="stroke:#0A9EFD;stroke-width:2.0;" width="609.5" x="10" y="357.9063"/><rect fill="#FFFFFF" height="79.4648" style="stroke:#0A9EFD;stroke-width:2.0;" width="473" x="146.5" y="573.3242"/><line style="stroke:#0A9EFD;stroke-width:0.5;stroke-dasharray:5.0,5.0;" x1="39" x2="39" y1="86.4883" y2="730.7656"/><line style="stroke:#0A9EFD;stroke-width:0.5;stroke-dasharray:5.0,5.0;" x1="200.5" x2="200.5" y1="86.4883" y2="730.7656"/><line style="stroke:#0A9EFD;stroke-width:0.5;stroke-dasharray:5.0,5.0;" x1="572.5" x2="572.5" y1="86.4883" y2="730.7656"/><text fill="#0A9EFD" font-family="Roboto" font-size="14" font-weight="bold" lengthAdjust="spacing" textLength="32" x="20" y="83.5352">User</text><ellipse cx="39" cy="16" fill="none" rx="8" ry="8" style="stroke:#0A9EFD;stroke-width:3.0;"/><path d="M39,24 L39,51 M26,32 L52,32 M39,51 L26,66 M39,51 L52,66 " fill="none" style="stroke:#0A9EFD;stroke-width:3.0;"/><text fill="#0A9EFD" font-family="Roboto" font-size="14" font-weight="bold" lengthAdjust="spacing" textLength="32" x="20" y="743.3008">User</text><ellipse cx="39" cy="757.2539" fill="none" rx="8" ry="8" style="stroke:#0A9EFD;stroke-width:3.0;"/><path d="M39,765.2539 L39,792.2539 M26,773.2539 L52,773.2539 M39,792.2539 L26,807.2539 M39,792.2539 L52,807.2539 " fill="none" style="stroke:#0A9EFD;stroke-width:3.0;"/><rect fill="#FFFFFF" height="30.4883" rx="2.5" ry="2.5" style="stroke:#0A9EFD;stroke-width:2.0;" width="89" x="156.5" y="55"/><text fill="#0A9EFD" font-family="Roboto" font-size="14" font-weight="bold" lengthAdjust="spacing" textLength="75" x="163.5" y="75.5352">Video SDK</text><rect fill="#FFFFFF" height="30.4883" rx="2.5" ry="2.5" style="stroke:#0A9EFD;stroke-width:2.0;" width="89" x="156.5" y="729.7656"/><text fill="#0A9EFD" font-family="Roboto" font-size="14" font-weight="bold" lengthAdjust="spacing" textLength="75" x="163.5" y="750.3008">Video SDK</text><rect fill="#FFFFFF" height="30.4883" rx="2.5" ry="2.5" style="stroke:#0A9EFD;stroke-width:2.0;" width="73" x="536.5" y="55"/><text fill="#0A9EFD" font-family="Roboto" font-size="14" font-weight="bold" lengthAdjust="spacing" textLength="59" x="543.5" y="75.5352">SD-RTN</text><rect fill="#FFFFFF" height="30.4883" rx="2.5" ry="2.5" style="stroke:#0A9EFD;stroke-width:2.0;" width="73" x="536.5" y="729.7656"/><text fill="#0A9EFD" font-family="Roboto" font-size="14" font-weight="bold" lengthAdjust="spacing" textLength="59" x="543.5" y="750.3008">SD-RTN</text><polygon fill="#0A9EFD" points="189,114.9766,199,118.9766,189,122.9766,193,118.9766" style="stroke:#0A9EFD;stroke-width:1.0;"/><line style="stroke:#0A9EFD;stroke-width:2.0;" x1="39" x2="195" y1="118.9766" y2="118.9766"/><text fill="#0A9EFD" font-family="Roboto" font-size="14" font-weight="bold" lengthAdjust="spacing" textLength="71" x="84.5" y="114.0234">Open App</text><line style="stroke:#0A9EFD;stroke-width:2.0;" x1="201" x2="243" y1="149.4648" y2="149.4648"/><line style="stroke:#0A9EFD;stroke-width:2.0;" x1="243" x2="243" y1="149.4648" y2="162.4648"/><line style="stroke:#0A9EFD;stroke-width:2.0;" x1="202" x2="243" y1="162.4648" y2="162.4648"/><polygon fill="#0A9EFD" points="212,158.4648,202,162.4648,212,166.4648,208,162.4648" style="stroke:#0A9EFD;stroke-width:1.0;"/><text fill="#0A9EFD" font-family="Roboto" font-size="14" font-weight="bold" lengthAdjust="spacing" textLength="358" x="208" y="144.5117">Create an Agora Engine instance using Video SDK</text><line style="stroke:#0A9EFD;stroke-width:2.0;" x1="201" x2="243" y1="192.9531" y2="192.9531"/><line style="stroke:#0A9EFD;stroke-width:2.0;" x1="243" x2="243" y1="192.9531" y2="205.9531"/><line style="stroke:#0A9EFD;stroke-width:2.0;" x1="202" x2="243" y1="205.9531" y2="205.9531"/><polygon fill="#0A9EFD" points="212,201.9531,202,205.9531,212,209.9531,208,205.9531" style="stroke:#0A9EFD;stroke-width:1.0;"/><text fill="#0A9EFD" font-family="Roboto" font-size="14" font-weight="bold" lengthAdjust="spacing" textLength="286" x="208" y="188">Enable audio and video in Agora Engine</text><path d="M10,220.9531 L84,220.9531 L84,229.4414 L74,239.4414 L10,239.4414 L10,220.9531 " fill="#EEEEEE" style="stroke:#0A9EFD;stroke-width:1.5;"/><rect fill="none" height="122.9531" style="stroke:#0A9EFD;stroke-width:2.0;" width="609.5" x="10" y="220.9531"/><text fill="#0A9EFD" font-family="Roboto" font-size="14" font-weight="bold" lengthAdjust="spacing" textLength="29" x="25" y="235.4883">Join</text><polygon fill="#0A9EFD" points="189,257.9297,199,261.9297,189,265.9297,193,261.9297" style="stroke:#0A9EFD;stroke-width:1.0;"/><line style="stroke:#0A9EFD;stroke-width:2.0;" x1="39" x2="195" y1="261.9297" y2="261.9297"/><text fill="#0A9EFD" font-family="Roboto" font-size="14" font-weight="bold" lengthAdjust="spacing" textLength="102" x="69" y="256.9766">Join a channel</text><line style="stroke:#0A9EFD;stroke-width:2.0;" x1="201" x2="243" y1="292.418" y2="292.418"/><line style="stroke:#0A9EFD;stroke-width:2.0;" x1="243" x2="243" y1="292.418" y2="305.418"/><line style="stroke:#0A9EFD;stroke-width:2.0;" x1="202" x2="243" y1="305.418" y2="305.418"/><polygon fill="#0A9EFD" points="212,301.418,202,305.418,212,309.418,208,305.418" style="stroke:#0A9EFD;stroke-width:1.0;"/><text fill="#0A9EFD" font-family="Roboto" font-size="14" font-weight="bold" lengthAdjust="spacing" textLength="340" x="208" y="287.4648">Retrieve authentication token to join a channel</text><polygon fill="#0A9EFD" points="561,331.9063,571,335.9063,561,339.9063,565,335.9063" style="stroke:#0A9EFD;stroke-width:1.0;"/><line style="stroke:#0A9EFD;stroke-width:2.0;" x1="201" x2="567" y1="335.9063" y2="335.9063"/><text fill="#0A9EFD" font-family="Roboto" font-size="14" font-weight="bold" lengthAdjust="spacing" textLength="117" x="328.5" y="330.9531">Join the channel</text><path d="M10,357.9063 L152,357.9063 L152,366.3945 L142,376.3945 L10,376.3945 L10,357.9063 " fill="#EEEEEE" style="stroke:#0A9EFD;stroke-width:1.5;"/><rect fill="none" height="201.418" style="stroke:#0A9EFD;stroke-width:2.0;" width="609.5" x="10" y="357.9063"/><text fill="#0A9EFD" font-family="Roboto" font-size="14" font-weight="bold" lengthAdjust="spacing" textLength="97" x="25" y="372.4414">Audio mixing</text><polygon fill="#0A9EFD" points="189,394.8828,199,398.8828,189,402.8828,193,398.8828" style="stroke:#0A9EFD;stroke-width:1.0;"/><line style="stroke:#0A9EFD;stroke-width:2.0;" x1="39" x2="195" y1="398.8828" y2="398.8828"/><text fill="#0A9EFD" font-family="Roboto" font-size="14" font-weight="bold" lengthAdjust="spacing" textLength="138" x="51" y="393.9297">Select an audio file</text><polygon fill="#0A9EFD" points="561,425.3711,571,429.3711,561,433.3711,565,429.3711" style="stroke:#0A9EFD;stroke-width:1.0;"/><line style="stroke:#0A9EFD;stroke-width:2.0;" x1="201" x2="567" y1="429.3711" y2="429.3711"/><text fill="#0A9EFD" font-family="Roboto" font-size="14" font-weight="bold" lengthAdjust="spacing" textLength="164" x="305" y="424.418">Proccess the audio file</text><polygon fill="#0A9EFD" points="189,455.8594,199,459.8594,189,463.8594,193,459.8594" style="stroke:#0A9EFD;stroke-width:1.0;"/><line style="stroke:#0A9EFD;stroke-width:2.0;" x1="39" x2="195" y1="459.8594" y2="459.8594"/><text fill="#0A9EFD" font-family="Roboto" font-size="14" font-weight="bold" lengthAdjust="spacing" textLength="134" x="53" y="454.9063">Start audio mixing</text><polygon fill="#0A9EFD" points="561,486.3477,571,490.3477,561,494.3477,565,490.3477" style="stroke:#0A9EFD;stroke-width:1.0;"/><line style="stroke:#0A9EFD;stroke-width:2.0;" x1="201" x2="567" y1="490.3477" y2="490.3477"/><text fill="#0A9EFD" font-family="Roboto" font-size="14" font-weight="bold" lengthAdjust="spacing" textLength="132" x="321" y="485.3945">Play the audio file</text><polygon fill="#0A9EFD" points="189,516.8359,199,520.8359,189,524.8359,193,520.8359" style="stroke:#0A9EFD;stroke-width:1.0;"/><line style="stroke:#0A9EFD;stroke-width:2.0;" x1="39" x2="195" y1="520.8359" y2="520.8359"/><text fill="#0A9EFD" font-family="Roboto" font-size="14" font-weight="bold" lengthAdjust="spacing" textLength="87" x="76.5" y="515.8828">Stop mixing</text><polygon fill="#0A9EFD" points="561,547.3242,571,551.3242,561,555.3242,565,551.3242" style="stroke:#0A9EFD;stroke-width:1.0;"/><line style="stroke:#0A9EFD;stroke-width:2.0;" x1="201" x2="567" y1="551.3242" y2="551.3242"/><text fill="#0A9EFD" font-family="Roboto" font-size="14" font-weight="bold" lengthAdjust="spacing" textLength="134" x="320" y="546.3711">Stop the audio file</text><path d="M146.5,573.3242 L332.5,573.3242 L332.5,581.8125 L322.5,591.8125 L146.5,591.8125 L146.5,573.3242 " fill="#EEEEEE" style="stroke:#0A9EFD;stroke-width:1.5;"/><rect fill="none" height="79.4648" style="stroke:#0A9EFD;stroke-width:2.0;" width="473" x="146.5" y="573.3242"/><text fill="#0A9EFD" font-family="Roboto" font-size="14" font-weight="bold" lengthAdjust="spacing" textLength="141" x="161.5" y="587.8594">Change audio route</text><polygon fill="#0A9EFD" points="561,610.3008,571,614.3008,561,618.3008,565,614.3008" style="stroke:#0A9EFD;stroke-width:1.0;"/><line style="stroke:#0A9EFD;stroke-width:2.0;" x1="201" x2="567" y1="614.3008" y2="614.3008"/><text fill="#0A9EFD" font-family="Roboto" font-size="14" font-weight="bold" lengthAdjust="spacing" textLength="166" x="304" y="609.3477">Set default audio route</text><polygon fill="#0A9EFD" points="561,640.7891,571,644.7891,561,648.7891,565,644.7891" style="stroke:#0A9EFD;stroke-width:1.0;"/><line style="stroke:#0A9EFD;stroke-width:2.0;" x1="201" x2="567" y1="644.7891" y2="644.7891"/><text fill="#0A9EFD" font-family="Roboto" font-size="14" font-weight="bold" lengthAdjust="spacing" textLength="258" x="258" y="639.8359">Change the audio route temporarily</text><polygon fill="#0A9EFD" points="189,678.2773,199,682.2773,189,686.2773,193,682.2773" style="stroke:#0A9EFD;stroke-width:1.0;"/><line style="stroke:#0A9EFD;stroke-width:2.0;" x1="39" x2="195" y1="682.2773" y2="682.2773"/><text fill="#0A9EFD" font-family="Roboto" font-size="14" font-weight="bold" lengthAdjust="spacing" textLength="128" x="56" y="677.3242">Leave the channel</text><polygon fill="#0A9EFD" points="561,708.7656,571,712.7656,561,716.7656,565,712.7656" style="stroke:#0A9EFD;stroke-width:1.0;"/><line style="stroke:#0A9EFD;stroke-width:2.0;" x1="201" x2="567" y1="712.7656" y2="712.7656"/><text fill="#0A9EFD" font-family="Roboto" font-size="14" font-weight="bold" lengthAdjust="spacing" textLength="128" x="323" y="707.8125">Leave the channel</text><!--SRC=[VP71Ri8m38RlUGglT_O0Eqn2m85jsX0TatQQJ6gAHt2YD4NmzajBWOQDNIhLzl_zlvqx5ctgWW1Bw_6hsh3SSxqrIg4EraEsgCXdW1KiyhbIIxk7xDFM7j2vJ3dqWJKxb03P1nTa8Hy_j-F3sKoH510LdMpOE5nfyl5W_lxQ2QONGJI3mMC3UO0tHm93vrJyEnT7dZ34rB7JO64Y9Gi1InLGD45TiPHmZfHe9u9B4xLrmJOI2jYrOvoob2gzhHqyMPOaJrC01Br64J89UKx1C-qQTbYJn3qni1K8TaFD5xvlQASTDgfEJMYkSGenRBDkUH-tIiBaP4Y7vWx7TLPiAC7ElDMQggf5zsOII8XlqZKxZmHXyF2_tBg_T6tzIjVRQHJtB4_DM0bfy9m25BJ2seIRCntYuj6EGA2jYm_fsHoEXlsqBuGxwXyw8Vxk_W00]--></g></svg>