<?xml version="1.0" encoding="us-ascii" standalone="no"?><svg xmlns="http://www.w3.org/2000/svg" xmlns:xlink="http://www.w3.org/1999/xlink" contentStyleType="text/css" height="791px" preserveAspectRatio="none" style="width:533px;height:791px;" version="1.1" viewBox="0 0 533 791" width="533px" zoomAndPan="magnify"><defs/><g><rect fill="none" height="789.2231" style="stroke:#0A9EFD;stroke-width:1.0;" width="531" x="0" y="0"/><rect fill="#999999" fill-opacity="0.33333" height="779.2231" style="stroke:#0A9EFD;stroke-width:0.5;" width="90" x="128" y="6"/><text fill="#0A9EFD" font-family="sans-serif" font-size="13" font-weight="bold" lengthAdjust="spacing" textLength="62" x="142" y="18.5684">Your app</text><rect fill="#999999" fill-opacity="0.33333" height="779.2231" style="stroke:#0A9EFD;stroke-width:0.5;" width="80" x="441" y="6"/><text fill="#0A9EFD" font-family="sans-serif" font-size="13" font-weight="bold" lengthAdjust="spacing" textLength="41" x="460.5" y="18.5684">Agora</text><rect fill="#0A9EFD" fill-opacity="0.06667" height="116.7949" style="stroke:#0A9EFD;stroke-width:2.0;" width="517" x="10" y="215.9448"/><rect fill="#0A9EFD" fill-opacity="0.06667" height="190.6411" style="stroke:#0A9EFD;stroke-width:2.0;" width="517" x="10" y="346.7397"/><rect fill="#0A9EFD" fill-opacity="0.06667" height="74.8462" style="stroke:#0A9EFD;stroke-width:2.0;" width="405" x="122" y="551.3809"/><line style="stroke:#0A9EFD;stroke-width:0.5;stroke-dasharray:5.0,5.0;" x1="38" x2="38" y1="86.0986" y2="701.1245"/><line style="stroke:#0A9EFD;stroke-width:0.5;stroke-dasharray:5.0,5.0;" x1="173" x2="173" y1="86.0986" y2="701.1245"/><line style="stroke:#0A9EFD;stroke-width:0.5;stroke-dasharray:5.0,5.0;" x1="481" x2="481" y1="86.0986" y2="701.1245"/><text fill="#0A9EFD" font-family="Arial" font-size="14" lengthAdjust="spacing" textLength="30" x="20" y="83.1318">User</text><ellipse cx="38" cy="16" fill="none" rx="8" ry="8" style="stroke:#0A9EFD;stroke-width:3.0;"/><path d="M38,24 L38,51 M25,32 L51,32 M38,51 L25,66 M38,51 L51,66 " fill="none" style="stroke:#0A9EFD;stroke-width:3.0;"/><text fill="#0A9EFD" font-family="Arial" font-size="14" lengthAdjust="spacing" textLength="30" x="20" y="713.2563">User</text><ellipse cx="38" cy="727.2231" fill="none" rx="8" ry="8" style="stroke:#0A9EFD;stroke-width:3.0;"/><path d="M38,735.2231 L38,762.2231 M25,743.2231 L51,743.2231 M38,762.2231 L25,777.2231 M38,762.2231 L51,777.2231 " fill="none" style="stroke:#0A9EFD;stroke-width:3.0;"/><rect fill="none" height="30.0986" rx="2.5" ry="2.5" style="stroke:#0A9EFD;stroke-width:2.0;" width="82" x="132" y="55"/><text fill="#0A9EFD" font-family="Arial" font-size="14" lengthAdjust="spacing" textLength="68" x="139" y="75.1318">Video SDK</text><rect fill="none" height="30.0986" rx="2.5" ry="2.5" style="stroke:#0A9EFD;stroke-width:2.0;" width="82" x="132" y="700.1245"/><text fill="#0A9EFD" font-family="Arial" font-size="14" lengthAdjust="spacing" textLength="68" x="139" y="720.2563">Video SDK</text><rect fill="none" height="30.0986" rx="2.5" ry="2.5" style="stroke:#0A9EFD;stroke-width:2.0;" width="72" x="445" y="55"/><text fill="#0A9EFD" font-family="Arial" font-size="14" lengthAdjust="spacing" textLength="58" x="452" y="75.1318">SDRTN&#174;</text><rect fill="none" height="30.0986" rx="2.5" ry="2.5" style="stroke:#0A9EFD;stroke-width:2.0;" width="72" x="445" y="700.1245"/><text fill="#0A9EFD" font-family="Arial" font-size="14" lengthAdjust="spacing" textLength="58" x="452" y="720.2563">SDRTN&#174;</text><polygon fill="#0A9EFD" points="161,113.0474,171,117.0474,161,121.0474,165,117.0474" style="stroke:#0A9EFD;stroke-width:1.0;"/><line style="stroke:#0A9EFD;stroke-width:2.0;" x1="38" x2="167" y1="117.0474" y2="117.0474"/><text fill="#0A9EFD" font-family="Arial" font-size="13" lengthAdjust="spacing" textLength="58" x="76.5" y="112.2925">Open App</text><line style="stroke:#0A9EFD;stroke-width:2.0;" x1="173" x2="215" y1="145.9961" y2="145.9961"/><line style="stroke:#0A9EFD;stroke-width:2.0;" x1="215" x2="215" y1="145.9961" y2="158.9961"/><line style="stroke:#0A9EFD;stroke-width:2.0;" x1="174" x2="215" y1="158.9961" y2="158.9961"/><polygon fill="#0A9EFD" points="184,154.9961,174,158.9961,184,162.9961,180,158.9961" style="stroke:#0A9EFD;stroke-width:1.0;"/><text fill="#0A9EFD" font-family="Arial" font-size="13" lengthAdjust="spacing" textLength="294" x="180" y="141.2412">Create an Agora Engine instance using Video SDK</text><line style="stroke:#0A9EFD;stroke-width:2.0;" x1="173" x2="215" y1="187.9448" y2="187.9448"/><line style="stroke:#0A9EFD;stroke-width:2.0;" x1="215" x2="215" y1="187.9448" y2="200.9448"/><line style="stroke:#0A9EFD;stroke-width:2.0;" x1="174" x2="215" y1="200.9448" y2="200.9448"/><polygon fill="#0A9EFD" points="184,196.9448,174,200.9448,184,204.9448,180,200.9448" style="stroke:#0A9EFD;stroke-width:1.0;"/><text fill="#0A9EFD" font-family="Arial" font-size="13" lengthAdjust="spacing" textLength="231" x="180" y="183.1899">Enable audio and video in Agora Engine</text><path d="M10,215.9448 L79,215.9448 L79,222.8936 L69,232.8936 L10,232.8936 L10,215.9448 " fill="#EEEEEE" style="stroke:#0A9EFD;stroke-width:1.5;"/><rect fill="none" height="116.7949" style="stroke:#0A9EFD;stroke-width:2.0;" width="517" x="10" y="215.9448"/><text fill="#000000" font-family="Arial" font-size="13" lengthAdjust="spacing" textLength="24" x="25" y="229.1387">Join</text><polygon fill="#0A9EFD" points="161,249.8423,171,253.8423,161,257.8423,165,253.8423" style="stroke:#0A9EFD;stroke-width:1.0;"/><line style="stroke:#0A9EFD;stroke-width:2.0;" x1="38" x2="167" y1="253.8423" y2="253.8423"/><text fill="#0A9EFD" font-family="Arial" font-size="13" lengthAdjust="spacing" textLength="84" x="63.5" y="249.0874">Join a channel</text><line style="stroke:#0A9EFD;stroke-width:2.0;" x1="173" x2="215" y1="282.791" y2="282.791"/><line style="stroke:#0A9EFD;stroke-width:2.0;" x1="215" x2="215" y1="282.791" y2="295.791"/><line style="stroke:#0A9EFD;stroke-width:2.0;" x1="174" x2="215" y1="295.791" y2="295.791"/><polygon fill="#0A9EFD" points="184,291.791,174,295.791,184,299.791,180,295.791" style="stroke:#0A9EFD;stroke-width:1.0;"/><text fill="#0A9EFD" font-family="Arial" font-size="13" lengthAdjust="spacing" textLength="268" x="180" y="278.0361">Retrieve authentication token to join a channel</text><polygon fill="#0A9EFD" points="469,320.7397,479,324.7397,469,328.7397,473,324.7397" style="stroke:#0A9EFD;stroke-width:1.0;"/><line style="stroke:#0A9EFD;stroke-width:2.0;" x1="173" x2="475" y1="324.7397" y2="324.7397"/><text fill="#0A9EFD" font-family="Arial" font-size="13" lengthAdjust="spacing" textLength="95" x="279.5" y="319.9849">Join the channel</text><path d="M10,346.7397 L130,346.7397 L130,353.6885 L120,363.6885 L10,363.6885 L10,346.7397 " fill="#EEEEEE" style="stroke:#0A9EFD;stroke-width:1.5;"/><rect fill="none" height="190.6411" style="stroke:#0A9EFD;stroke-width:2.0;" width="517" x="10" y="346.7397"/><text fill="#000000" font-family="Arial" font-size="13" lengthAdjust="spacing" textLength="75" x="25" y="359.9336">Audio mixing</text><polygon fill="#0A9EFD" points="161,380.6372,171,384.6372,161,388.6372,165,384.6372" style="stroke:#0A9EFD;stroke-width:1.0;"/><line style="stroke:#0A9EFD;stroke-width:2.0;" x1="38" x2="167" y1="384.6372" y2="384.6372"/><text fill="#0A9EFD" font-family="Arial" font-size="13" lengthAdjust="spacing" textLength="111" x="50" y="379.8823">Select an audio file</text><polygon fill="#0A9EFD" points="469,409.5859,479,413.5859,469,417.5859,473,413.5859" style="stroke:#0A9EFD;stroke-width:1.0;"/><line style="stroke:#0A9EFD;stroke-width:2.0;" x1="173" x2="475" y1="413.5859" y2="413.5859"/><text fill="#0A9EFD" font-family="Arial" font-size="13" lengthAdjust="spacing" textLength="126" x="264" y="408.8311">Process the audio file</text><polygon fill="#0A9EFD" points="161,438.5347,171,442.5347,161,446.5347,165,442.5347" style="stroke:#0A9EFD;stroke-width:1.0;"/><line style="stroke:#0A9EFD;stroke-width:2.0;" x1="38" x2="167" y1="442.5347" y2="442.5347"/><text fill="#0A9EFD" font-family="Arial" font-size="13" lengthAdjust="spacing" textLength="105" x="53" y="437.7798">Start audio mixing</text><polygon fill="#0A9EFD" points="469,467.4834,479,471.4834,469,475.4834,473,471.4834" style="stroke:#0A9EFD;stroke-width:1.0;"/><line style="stroke:#0A9EFD;stroke-width:2.0;" x1="173" x2="475" y1="471.4834" y2="471.4834"/><text fill="#0A9EFD" font-family="Arial" font-size="13" lengthAdjust="spacing" textLength="104" x="275" y="466.7285">Play the audio file</text><polygon fill="#0A9EFD" points="161,496.4321,171,500.4321,161,504.4321,165,500.4321" style="stroke:#0A9EFD;stroke-width:1.0;"/><line style="stroke:#0A9EFD;stroke-width:2.0;" x1="38" x2="167" y1="500.4321" y2="500.4321"/><text fill="#0A9EFD" font-family="Arial" font-size="13" lengthAdjust="spacing" textLength="69" x="71" y="495.6772">Stop mixing</text><polygon fill="#0A9EFD" points="469,525.3809,479,529.3809,469,533.3809,473,529.3809" style="stroke:#0A9EFD;stroke-width:1.0;"/><line style="stroke:#0A9EFD;stroke-width:2.0;" x1="173" x2="475" y1="529.3809" y2="529.3809"/><text fill="#0A9EFD" font-family="Arial" font-size="13" lengthAdjust="spacing" textLength="105" x="274.5" y="524.626">Stop the audio file</text><path d="M122,551.3809 L279,551.3809 L279,558.3296 L269,568.3296 L122,568.3296 L122,551.3809 " fill="#EEEEEE" style="stroke:#0A9EFD;stroke-width:1.5;"/><rect fill="none" height="74.8462" style="stroke:#0A9EFD;stroke-width:2.0;" width="405" x="122" y="551.3809"/><text fill="#000000" font-family="Arial" font-size="13" lengthAdjust="spacing" textLength="112" x="137" y="564.5747">Change audio route</text><polygon fill="#0A9EFD" points="469,585.2783,479,589.2783,469,593.2783,473,589.2783" style="stroke:#0A9EFD;stroke-width:1.0;"/><line style="stroke:#0A9EFD;stroke-width:2.0;" x1="173" x2="475" y1="589.2783" y2="589.2783"/><text fill="#0A9EFD" font-family="Arial" font-size="13" lengthAdjust="spacing" textLength="131" x="261.5" y="584.5234">Set default audio route</text><polygon fill="#0A9EFD" points="469,614.2271,479,618.2271,469,622.2271,473,618.2271" style="stroke:#0A9EFD;stroke-width:1.0;"/><line style="stroke:#0A9EFD;stroke-width:2.0;" x1="173" x2="475" y1="618.2271" y2="618.2271"/><text fill="#0A9EFD" font-family="Arial" font-size="13" lengthAdjust="spacing" textLength="202" x="226" y="613.4722">Change the audio route temporarily</text><polygon fill="#0A9EFD" points="161,650.1758,171,654.1758,161,658.1758,165,654.1758" style="stroke:#0A9EFD;stroke-width:1.0;"/><line style="stroke:#0A9EFD;stroke-width:2.0;" x1="38" x2="167" y1="654.1758" y2="654.1758"/><text fill="#0A9EFD" font-family="Arial" font-size="13" lengthAdjust="spacing" textLength="106" x="52.5" y="649.4209">Leave the channel</text><polygon fill="#0A9EFD" points="469,679.1245,479,683.1245,469,687.1245,473,683.1245" style="stroke:#0A9EFD;stroke-width:1.0;"/><line style="stroke:#0A9EFD;stroke-width:2.0;" x1="173" x2="475" y1="683.1245" y2="683.1245"/><text fill="#0A9EFD" font-family="Arial" font-size="13" lengthAdjust="spacing" textLength="106" x="274" y="678.3696">Leave the channel</text><!--SRC=[VP5DJiD038NtSmgJFHo01LBKTb50K3KKYHLo4pSrdNf6aqdLNef3S39cqlHdWBA95DllUy-UAvPIjnK1riRXUxDYkU5shPN2qXi7sQmXbm4sC2kcIitD5h8tqpf0QpDbqNaksQ9uo5wv8WF5yA4RpoSJHL91KFIoF3hyq1J3wSlJrsUl69yKmGskxoBb5fuj2UJMgl1tB0uSeG-nGoToOIGr2m5Bur5AWhPXgU6OAT6E1ESwQDkAJI1KiEd6E6KfLJlJMhWtB4cUM024SeaYf1FobBnZsaIsNvA4HT6p4V1cHV4B7nUqunuRL8Scn6iSGkHTrZLlmrP9c88qbJxUOR_EWZKbs8ap9JLDHpuRIHW-l4dVx2qIWiRT_t9Z_z9rzH-wivK6OStwq0mLd-Oko4D52sorlpZJ8quUtGXuMjlmZexrRczudlQHS4FdTqw8lxlV]--></g></svg>