<svg width="1680" height="345" viewBox="0 0 1680 345" fill="none" xmlns="http://www.w3.org/2000/svg">
<g clip-path="url(#clip0_570_13531)">
<rect x="1.35602" y="0.356017" width="1678.29" height="346.288" rx="19.644" fill="#1C1F26" stroke="#2F333B" stroke-width="0.712034"/>
<path d="M0.345703 0.120117L560.345 0.120142" stroke="white" stroke-opacity="0.01" stroke-width="1.33333" stroke-linecap="round" stroke-linejoin="round"/>
<path d="M0.335938 26.7866L560.335 26.7866" stroke="white" stroke-opacity="0.01" stroke-width="1.33333" stroke-linecap="round" stroke-linejoin="round"/>
<path d="M0.327148 53.4536L560.327 53.4536" stroke="white" stroke-opacity="0.01" stroke-width="1.33333" stroke-linecap="round" stroke-linejoin="round"/>
<path d="M0.317383 80.1201L560.317 80.1201" stroke="white" stroke-opacity="0.01" stroke-width="1.33333" stroke-linecap="round" stroke-linejoin="round"/>
<path d="M0.307617 106.787L560.307 106.787" stroke="white" stroke-opacity="0.01" stroke-width="1.33333" stroke-linecap="round" stroke-linejoin="round"/>
<path d="M0.298828 133.454L560.298 133.454" stroke="white" stroke-opacity="0.01" stroke-width="1.33333" stroke-linecap="round" stroke-linejoin="round"/>
<path d="M0.289062 160.12L560.289 160.12" stroke="white" stroke-opacity="0.01" stroke-width="1.33333" stroke-linecap="round" stroke-linejoin="round"/>
<path d="M0.280273 186.787L560.28 186.787" stroke="white" stroke-opacity="0.01" stroke-width="1.33333" stroke-linecap="round" stroke-linejoin="round"/>
<path d="M0.270508 213.454L560.27 213.454" stroke="white" stroke-opacity="0.01" stroke-width="1.33333" stroke-linecap="round" stroke-linejoin="round"/>
<path d="M0.260742 240.12L560.26 240.12" stroke="white" stroke-opacity="0.01" stroke-width="1.33333" stroke-linecap="round" stroke-linejoin="round"/>
<path d="M0.251953 266.787L560.251 266.787" stroke="white" stroke-opacity="0.01" stroke-width="1.33333" stroke-linecap="round" stroke-linejoin="round"/>
<path d="M0.242188 293.454L560.242 293.454" stroke="white" stroke-opacity="0.01" stroke-width="1.33333" stroke-linecap="round" stroke-linejoin="round"/>
<path d="M0.232422 320.12L560.232 320.12" stroke="white" stroke-opacity="0.01" stroke-width="1.33333" stroke-linecap="round" stroke-linejoin="round"/>
<path d="M-0.125171 1332.47L0.402344 -159.88" stroke="white" stroke-opacity="0.01" stroke-width="1.33333" stroke-linecap="round" stroke-linejoin="round"/>
<path d="M26.5418 1332.47L27.0693 -159.88" stroke="white" stroke-opacity="0.01" stroke-width="1.33333" stroke-linecap="round" stroke-linejoin="round"/>
<path d="M53.2078 1332.47L53.7354 -159.88" stroke="white" stroke-opacity="0.01" stroke-width="1.33333" stroke-linecap="round" stroke-linejoin="round"/>
<path d="M79.8748 1332.47L80.4023 -159.88" stroke="white" stroke-opacity="0.01" stroke-width="1.33333" stroke-linecap="round" stroke-linejoin="round"/>
<path d="M106.542 1332.47L107.069 -159.88" stroke="white" stroke-opacity="0.01" stroke-width="1.33333" stroke-linecap="round" stroke-linejoin="round"/>
<path d="M133.208 1332.47L133.735 -159.88" stroke="white" stroke-opacity="0.01" stroke-width="1.33333" stroke-linecap="round" stroke-linejoin="round"/>
<path d="M159.875 1332.47L160.402 -159.88" stroke="white" stroke-opacity="0.01" stroke-width="1.33333" stroke-linecap="round" stroke-linejoin="round"/>
<path d="M186.541 1332.47L187.068 -159.88" stroke="white" stroke-opacity="0.01" stroke-width="1.33333" stroke-linecap="round" stroke-linejoin="round"/>
<path d="M213.208 1332.47L213.735 -159.88" stroke="white" stroke-opacity="0.01" stroke-width="1.33333" stroke-linecap="round" stroke-linejoin="round"/>
<path d="M239.875 1332.47L240.402 -159.88" stroke="white" stroke-opacity="0.01" stroke-width="1.33333" stroke-linecap="round" stroke-linejoin="round"/>
<path d="M266.541 1332.47L267.068 -159.88" stroke="white" stroke-opacity="0.01" stroke-width="1.33333" stroke-linecap="round" stroke-linejoin="round"/>
<path d="M293.208 1332.47L293.735 -159.88" stroke="white" stroke-opacity="0.01" stroke-width="1.33333" stroke-linecap="round" stroke-linejoin="round"/>
<path d="M319.875 1332.47L320.402 -159.88" stroke="white" stroke-opacity="0.01" stroke-width="1.33333" stroke-linecap="round" stroke-linejoin="round"/>
<path d="M346.541 1332.47L347.068 -159.88" stroke="white" stroke-opacity="0.01" stroke-width="1.33333" stroke-linecap="round" stroke-linejoin="round"/>
<path d="M373.208 1332.47L373.735 -159.88" stroke="white" stroke-opacity="0.01" stroke-width="1.33333" stroke-linecap="round" stroke-linejoin="round"/>
<path d="M399.875 1332.47L400.402 -159.88" stroke="white" stroke-opacity="0.01" stroke-width="1.33333" stroke-linecap="round" stroke-linejoin="round"/>
<path d="M426.541 1332.47L427.068 -159.88" stroke="white" stroke-opacity="0.01" stroke-width="1.33333" stroke-linecap="round" stroke-linejoin="round"/>
<path d="M453.208 1332.47L453.735 -159.88" stroke="white" stroke-opacity="0.01" stroke-width="1.33333" stroke-linecap="round" stroke-linejoin="round"/>
<path d="M479.875 1332.47L480.402 -159.88" stroke="white" stroke-opacity="0.01" stroke-width="1.33333" stroke-linecap="round" stroke-linejoin="round"/>
<path d="M506.541 1332.47L507.068 -159.88" stroke="white" stroke-opacity="0.01" stroke-width="1.33333" stroke-linecap="round" stroke-linejoin="round"/>
<path d="M533.208 1332.47L533.735 -159.88" stroke="white" stroke-opacity="0.01" stroke-width="1.33333" stroke-linecap="round" stroke-linejoin="round"/>
<path d="M559.875 1332.47L560.402 -159.88" stroke="white" stroke-opacity="0.01" stroke-width="1.33333" stroke-linecap="round" stroke-linejoin="round"/>
<path d="M560.906 0L1120.91 2.44673e-05" stroke="white" stroke-opacity="0.01" stroke-width="1.33333" stroke-linecap="round" stroke-linejoin="round"/>
<path d="M560.896 26.6665L1120.9 26.6665" stroke="white" stroke-opacity="0.01" stroke-width="1.33333" stroke-linecap="round" stroke-linejoin="round"/>
<path d="M560.888 53.3335L1120.89 53.3335" stroke="white" stroke-opacity="0.01" stroke-width="1.33333" stroke-linecap="round" stroke-linejoin="round"/>
<path d="M560.878 80L1120.88 80" stroke="white" stroke-opacity="0.01" stroke-width="1.33333" stroke-linecap="round" stroke-linejoin="round"/>
<path d="M560.868 106.667L1120.87 106.667" stroke="white" stroke-opacity="0.01" stroke-width="1.33333" stroke-linecap="round" stroke-linejoin="round"/>
<path d="M560.859 133.333L1120.86 133.334" stroke="white" stroke-opacity="0.01" stroke-width="1.33333" stroke-linecap="round" stroke-linejoin="round"/>
<path d="M560.85 160L1120.85 160" stroke="white" stroke-opacity="0.01" stroke-width="1.33333" stroke-linecap="round" stroke-linejoin="round"/>
<path d="M560.841 186.667L1120.84 186.667" stroke="white" stroke-opacity="0.01" stroke-width="1.33333" stroke-linecap="round" stroke-linejoin="round"/>
<path d="M560.831 213.333L1120.83 213.334" stroke="white" stroke-opacity="0.01" stroke-width="1.33333" stroke-linecap="round" stroke-linejoin="round"/>
<path d="M560.821 240L1120.82 240" stroke="white" stroke-opacity="0.01" stroke-width="1.33333" stroke-linecap="round" stroke-linejoin="round"/>
<path d="M560.812 266.667L1120.81 266.667" stroke="white" stroke-opacity="0.01" stroke-width="1.33333" stroke-linecap="round" stroke-linejoin="round"/>
<path d="M560.803 293.333L1120.8 293.334" stroke="white" stroke-opacity="0.01" stroke-width="1.33333" stroke-linecap="round" stroke-linejoin="round"/>
<path d="M560.793 320L1120.79 320" stroke="white" stroke-opacity="0.01" stroke-width="1.33333" stroke-linecap="round" stroke-linejoin="round"/>
<path d="M560.402 1425.78L560.963 -160" stroke="white" stroke-opacity="0.01" stroke-width="1.33333" stroke-linecap="round" stroke-linejoin="round"/>
<path d="M587.069 1425.78L587.63 -160" stroke="white" stroke-opacity="0.01" stroke-width="1.33333" stroke-linecap="round" stroke-linejoin="round"/>
<path d="M613.735 1425.78L614.296 -160" stroke="white" stroke-opacity="0.01" stroke-width="1.33333" stroke-linecap="round" stroke-linejoin="round"/>
<path d="M640.402 1425.78L640.963 -160" stroke="white" stroke-opacity="0.01" stroke-width="1.33333" stroke-linecap="round" stroke-linejoin="round"/>
<path d="M667.069 1425.78L667.63 -160" stroke="white" stroke-opacity="0.01" stroke-width="1.33333" stroke-linecap="round" stroke-linejoin="round"/>
<path d="M693.735 1425.78L694.296 -160" stroke="white" stroke-opacity="0.01" stroke-width="1.33333" stroke-linecap="round" stroke-linejoin="round"/>
<path d="M720.402 1425.78L720.963 -160" stroke="white" stroke-opacity="0.01" stroke-width="1.33333" stroke-linecap="round" stroke-linejoin="round"/>
<path d="M747.068 1425.78L747.629 -160" stroke="white" stroke-opacity="0.01" stroke-width="1.33333" stroke-linecap="round" stroke-linejoin="round"/>
<path d="M773.735 1425.78L774.296 -160" stroke="white" stroke-opacity="0.01" stroke-width="1.33333" stroke-linecap="round" stroke-linejoin="round"/>
<path d="M800.402 1425.78L800.963 -160" stroke="white" stroke-opacity="0.01" stroke-width="1.33333" stroke-linecap="round" stroke-linejoin="round"/>
<path d="M827.068 1425.78L827.629 -160" stroke="white" stroke-opacity="0.01" stroke-width="1.33333" stroke-linecap="round" stroke-linejoin="round"/>
<path d="M853.735 1425.78L854.296 -160" stroke="white" stroke-opacity="0.01" stroke-width="1.33333" stroke-linecap="round" stroke-linejoin="round"/>
<path d="M880.402 1425.78L880.963 -160" stroke="white" stroke-opacity="0.01" stroke-width="1.33333" stroke-linecap="round" stroke-linejoin="round"/>
<path d="M907.068 1425.78L907.629 -160" stroke="white" stroke-opacity="0.01" stroke-width="1.33333" stroke-linecap="round" stroke-linejoin="round"/>
<path d="M933.735 1425.78L934.296 -160" stroke="white" stroke-opacity="0.01" stroke-width="1.33333" stroke-linecap="round" stroke-linejoin="round"/>
<path d="M960.402 1425.78L960.963 -160" stroke="white" stroke-opacity="0.01" stroke-width="1.33333" stroke-linecap="round" stroke-linejoin="round"/>
<path d="M987.068 1425.78L987.629 -160" stroke="white" stroke-opacity="0.01" stroke-width="1.33333" stroke-linecap="round" stroke-linejoin="round"/>
<path d="M1013.74 1425.78L1014.3 -160" stroke="white" stroke-opacity="0.01" stroke-width="1.33333" stroke-linecap="round" stroke-linejoin="round"/>
<path d="M1040.4 1425.78L1040.96 -160" stroke="white" stroke-opacity="0.01" stroke-width="1.33333" stroke-linecap="round" stroke-linejoin="round"/>
<path d="M1067.07 1425.78L1067.63 -160" stroke="white" stroke-opacity="0.01" stroke-width="1.33333" stroke-linecap="round" stroke-linejoin="round"/>
<path d="M1093.74 1425.78L1094.3 -160" stroke="white" stroke-opacity="0.01" stroke-width="1.33333" stroke-linecap="round" stroke-linejoin="round"/>
<path d="M1120.76 25.9302L1680.76 25.36" stroke="white" stroke-opacity="0.01" stroke-width="1.33333" stroke-linecap="round" stroke-linejoin="round"/>
<path d="M1120.78 52.5972L1680.78 52.027" stroke="white" stroke-opacity="0.01" stroke-width="1.33333" stroke-linecap="round" stroke-linejoin="round"/>
<path d="M1120.8 79.2637L1680.8 78.6935" stroke="white" stroke-opacity="0.01" stroke-width="1.33333" stroke-linecap="round" stroke-linejoin="round"/>
<path d="M1120.82 105.93L1680.82 105.36" stroke="white" stroke-opacity="0.01" stroke-width="1.33333" stroke-linecap="round" stroke-linejoin="round"/>
<path d="M1120.83 132.597L1680.83 132.026" stroke="white" stroke-opacity="0.01" stroke-width="1.33333" stroke-linecap="round" stroke-linejoin="round"/>
<path d="M1120.85 159.264L1680.85 158.693" stroke="white" stroke-opacity="0.01" stroke-width="1.33333" stroke-linecap="round" stroke-linejoin="round"/>
<path d="M1120.87 185.93L1680.87 185.36" stroke="white" stroke-opacity="0.01" stroke-width="1.33333" stroke-linecap="round" stroke-linejoin="round"/>
<path d="M1120.89 212.597L1680.89 212.026" stroke="white" stroke-opacity="0.01" stroke-width="1.33333" stroke-linecap="round" stroke-linejoin="round"/>
<path d="M1120.9 239.264L1680.9 238.693" stroke="white" stroke-opacity="0.01" stroke-width="1.33333" stroke-linecap="round" stroke-linejoin="round"/>
<path d="M1120.92 265.93L1680.92 265.36" stroke="white" stroke-opacity="0.01" stroke-width="1.33333" stroke-linecap="round" stroke-linejoin="round"/>
<path d="M1120.94 292.597L1680.94 292.027" stroke="white" stroke-opacity="0.01" stroke-width="1.33333" stroke-linecap="round" stroke-linejoin="round"/>
<path d="M1120.96 319.264L1680.96 318.693" stroke="white" stroke-opacity="0.01" stroke-width="1.33333" stroke-linecap="round" stroke-linejoin="round"/>
<path d="M1120.98 345.93L1680.97 345.36" stroke="white" stroke-opacity="0.01" stroke-width="1.33333" stroke-linecap="round" stroke-linejoin="round"/>
<path d="M1121.67 1396.82L1120.64 -160.736" stroke="white" stroke-opacity="0.01" stroke-width="1.33333" stroke-linecap="round" stroke-linejoin="round"/>
<path d="M1148.34 1396.79L1147.31 -160.764" stroke="white" stroke-opacity="0.01" stroke-width="1.33333" stroke-linecap="round" stroke-linejoin="round"/>
<path d="M1175.01 1396.77L1173.97 -160.791" stroke="white" stroke-opacity="0.01" stroke-width="1.33333" stroke-linecap="round" stroke-linejoin="round"/>
<path d="M1201.67 1396.74L1200.64 -160.818" stroke="white" stroke-opacity="0.01" stroke-width="1.33333" stroke-linecap="round" stroke-linejoin="round"/>
<path d="M1228.34 1396.71L1227.31 -160.845" stroke="white" stroke-opacity="0.01" stroke-width="1.33333" stroke-linecap="round" stroke-linejoin="round"/>
<path d="M1255.01 1396.69L1253.97 -160.872" stroke="white" stroke-opacity="0.01" stroke-width="1.33333" stroke-linecap="round" stroke-linejoin="round"/>
<path d="M1281.67 1396.66L1280.64 -160.899" stroke="white" stroke-opacity="0.01" stroke-width="1.33333" stroke-linecap="round" stroke-linejoin="round"/>
<path d="M1308.34 1396.63L1307.3 -160.926" stroke="white" stroke-opacity="0.01" stroke-width="1.33333" stroke-linecap="round" stroke-linejoin="round"/>
<path d="M1335.01 1396.6L1333.97 -160.954" stroke="white" stroke-opacity="0.01" stroke-width="1.33333" stroke-linecap="round" stroke-linejoin="round"/>
<path d="M1361.67 1396.58L1360.64 -160.981" stroke="white" stroke-opacity="0.01" stroke-width="1.33333" stroke-linecap="round" stroke-linejoin="round"/>
<path d="M1388.34 1396.55L1387.3 -161.008" stroke="white" stroke-opacity="0.01" stroke-width="1.33333" stroke-linecap="round" stroke-linejoin="round"/>
<path d="M1415.01 1396.52L1413.97 -161.035" stroke="white" stroke-opacity="0.01" stroke-width="1.33333" stroke-linecap="round" stroke-linejoin="round"/>
<path d="M1441.67 1396.5L1440.64 -161.062" stroke="white" stroke-opacity="0.01" stroke-width="1.33333" stroke-linecap="round" stroke-linejoin="round"/>
<path d="M1468.34 1396.47L1467.3 -161.089" stroke="white" stroke-opacity="0.01" stroke-width="1.33333" stroke-linecap="round" stroke-linejoin="round"/>
<path d="M1495.01 1396.44L1493.97 -161.117" stroke="white" stroke-opacity="0.01" stroke-width="1.33333" stroke-linecap="round" stroke-linejoin="round"/>
<path d="M1521.67 1396.41L1520.64 -161.144" stroke="white" stroke-opacity="0.01" stroke-width="1.33333" stroke-linecap="round" stroke-linejoin="round"/>
<path d="M1548.34 1396.39L1547.3 -161.171" stroke="white" stroke-opacity="0.01" stroke-width="1.33333" stroke-linecap="round" stroke-linejoin="round"/>
<path d="M1575.01 1396.36L1573.97 -161.198" stroke="white" stroke-opacity="0.01" stroke-width="1.33333" stroke-linecap="round" stroke-linejoin="round"/>
<path d="M1601.67 1396.33L1600.64 -161.225" stroke="white" stroke-opacity="0.01" stroke-width="1.33333" stroke-linecap="round" stroke-linejoin="round"/>
<path d="M1628.34 1396.31L1627.3 -161.252" stroke="white" stroke-opacity="0.01" stroke-width="1.33333" stroke-linecap="round" stroke-linejoin="round"/>
<path d="M1655.01 1396.28L1653.97 -161.279" stroke="white" stroke-opacity="0.01" stroke-width="1.33333" stroke-linecap="round" stroke-linejoin="round"/>
<rect x="1195.59" y="120.5" width="254.995" height="105.781" rx="7.5" transform="rotate(0.0471412 1195.59 120.5)" fill="#2F333B"/>
<rect x="1195.59" y="120.5" width="254.995" height="105.781" rx="7.5" transform="rotate(0.0471412 1195.59 120.5)" stroke="#373B42"/>
<path opacity="0.8" d="M1312.29 170.263C1312.21 169.59 1311.9 169.069 1311.35 168.699C1310.8 168.325 1310.11 168.137 1309.28 168.137C1308.68 168.136 1308.17 168.23 1307.73 168.419C1307.29 168.604 1306.95 168.859 1306.71 169.186C1306.48 169.507 1306.36 169.874 1306.36 170.286C1306.36 170.632 1306.44 170.93 1306.6 171.181C1306.76 171.432 1306.98 171.643 1307.24 171.814C1307.51 171.98 1307.8 172.12 1308.11 172.234C1308.42 172.343 1308.71 172.433 1309 172.504L1310.42 172.875C1310.88 172.989 1311.36 173.143 1311.84 173.338C1312.33 173.532 1312.78 173.788 1313.2 174.106C1313.62 174.423 1313.95 174.817 1314.21 175.285C1314.47 175.754 1314.6 176.316 1314.6 176.969C1314.6 177.793 1314.38 178.524 1313.96 179.163C1313.53 179.802 1312.92 180.306 1312.12 180.674C1311.32 181.043 1310.35 181.227 1309.21 181.226C1308.12 181.225 1307.18 181.051 1306.38 180.705C1305.59 180.359 1304.97 179.868 1304.52 179.233C1304.07 178.594 1303.82 177.836 1303.77 176.96L1305.98 176.962C1306.02 177.488 1306.19 177.926 1306.49 178.276C1306.79 178.622 1307.17 178.881 1307.64 179.051C1308.12 179.217 1308.63 179.301 1309.2 179.301C1309.82 179.302 1310.37 179.205 1310.85 179.011C1311.34 178.813 1311.72 178.539 1312 178.188C1312.28 177.834 1312.42 177.419 1312.42 176.946C1312.42 176.515 1312.3 176.162 1312.06 175.887C1311.81 175.613 1311.49 175.385 1311.07 175.205C1310.66 175.024 1310.19 174.865 1309.67 174.728L1307.95 174.258C1306.79 173.939 1305.86 173.472 1305.18 172.856C1304.51 172.24 1304.17 171.425 1304.17 170.412C1304.17 169.574 1304.4 168.843 1304.85 168.218C1305.31 167.593 1305.92 167.109 1306.7 166.764C1307.48 166.414 1308.35 166.239 1309.33 166.24C1310.31 166.241 1311.18 166.415 1311.94 166.761C1312.69 167.107 1313.29 167.583 1313.72 168.19C1314.16 168.792 1314.39 169.483 1314.4 170.264L1312.29 170.263ZM1321.93 180.995L1317.22 180.991L1317.23 166.446L1322.09 166.45C1323.51 166.451 1324.74 166.743 1325.76 167.326C1326.78 167.905 1327.56 168.736 1328.11 169.821C1328.65 170.901 1328.93 172.196 1328.93 173.707C1328.93 175.222 1328.65 176.524 1328.09 177.612C1327.54 178.701 1326.75 179.538 1325.7 180.124C1324.66 180.706 1323.4 180.996 1321.93 180.995ZM1319.41 179.075L1321.81 179.077C1322.91 179.078 1323.84 178.871 1324.57 178.455C1325.3 178.034 1325.85 177.426 1326.22 176.631C1326.58 175.831 1326.77 174.855 1326.77 173.705C1326.77 172.564 1326.59 171.595 1326.22 170.8C1325.86 170.004 1325.33 169.4 1324.61 168.987C1323.9 168.575 1323.01 168.368 1321.95 168.367L1319.42 168.365L1319.41 179.075ZM1331.65 181.003L1331.66 166.457L1333.86 166.459L1333.85 173.405L1334.03 173.405L1340.14 166.464L1342.9 166.467L1337.03 173.01L1342.91 181.012L1340.27 181.01L1335.57 174.508L1333.85 176.481L1333.84 181.005L1331.65 181.003Z" fill="white"/>
<rect x="567.5" y="121.57" width="299" height="105.781" rx="7.5" fill="#2F333B"/>
<rect x="567.5" y="121.57" width="299" height="105.781" rx="7.5" stroke="#373B42"/>
<path opacity="0.8" d="M644.351 172.145H642.135C642.05 171.672 641.891 171.255 641.659 170.895C641.427 170.535 641.143 170.23 640.807 169.979C640.471 169.728 640.094 169.539 639.678 169.411C639.266 169.283 638.828 169.219 638.364 169.219C637.526 169.219 636.775 169.43 636.112 169.851C635.454 170.272 634.933 170.89 634.55 171.705C634.171 172.519 633.982 173.513 633.982 174.688C633.982 175.871 634.171 176.87 634.55 177.685C634.933 178.499 635.456 179.115 636.119 179.531C636.782 179.948 637.528 180.156 638.357 180.156C638.816 180.156 639.251 180.095 639.663 179.972C640.08 179.844 640.456 179.657 640.793 179.411C641.129 179.165 641.413 178.864 641.645 178.509C641.882 178.149 642.045 177.737 642.135 177.273L644.351 177.28C644.232 177.995 644.003 178.653 643.662 179.254C643.326 179.851 642.893 180.367 642.362 180.803C641.837 181.234 641.235 181.567 640.558 181.804C639.881 182.041 639.143 182.159 638.342 182.159C637.083 182.159 635.961 181.861 634.976 181.264C633.991 180.663 633.214 179.804 632.646 178.686C632.083 177.569 631.801 176.236 631.801 174.688C631.801 173.135 632.085 171.802 632.653 170.689C633.222 169.572 633.998 168.715 634.983 168.118C635.968 167.517 637.088 167.216 638.342 167.216C639.114 167.216 639.834 167.327 640.501 167.55C641.174 167.768 641.777 168.09 642.312 168.516C642.848 168.937 643.29 169.453 643.641 170.064C643.991 170.67 644.228 171.364 644.351 172.145ZM651.402 182.181C650.379 182.181 649.486 181.946 648.724 181.477C647.962 181.009 647.37 180.353 646.949 179.51C646.527 178.667 646.316 177.683 646.316 176.556C646.316 175.424 646.527 174.434 646.949 173.587C647.37 172.739 647.962 172.081 648.724 171.612C649.486 171.144 650.379 170.909 651.402 170.909C652.424 170.909 653.317 171.144 654.079 171.612C654.842 172.081 655.433 172.739 655.855 173.587C656.276 174.434 656.487 175.424 656.487 176.556C656.487 177.683 656.276 178.667 655.855 179.51C655.433 180.353 654.842 181.009 654.079 181.477C653.317 181.946 652.424 182.181 651.402 182.181ZM651.409 180.398C652.072 180.398 652.621 180.223 653.056 179.872C653.492 179.522 653.814 179.056 654.022 178.473C654.235 177.891 654.342 177.249 654.342 176.549C654.342 175.852 654.235 175.213 654.022 174.631C653.814 174.044 653.492 173.573 653.056 173.218C652.621 172.862 652.072 172.685 651.409 172.685C650.741 172.685 650.187 172.862 649.747 173.218C649.311 173.573 648.987 174.044 648.774 174.631C648.565 175.213 648.461 175.852 648.461 176.549C648.461 177.249 648.565 177.891 648.774 178.473C648.987 179.056 649.311 179.522 649.747 179.872C650.187 180.223 650.741 180.398 651.409 180.398ZM660.981 167.415V181.96H658.857V167.415H660.981ZM665.961 167.415V181.96H663.838V167.415H665.961ZM673.52 182.181C672.445 182.181 671.519 181.951 670.743 181.492C669.971 181.028 669.375 180.377 668.953 179.539C668.536 178.696 668.328 177.709 668.328 176.577C668.328 175.46 668.536 174.475 668.953 173.622C669.375 172.77 669.962 172.105 670.714 171.627C671.472 171.148 672.357 170.909 673.371 170.909C673.986 170.909 674.583 171.011 675.161 171.215C675.738 171.418 676.257 171.738 676.716 172.174C677.175 172.609 677.537 173.175 677.803 173.871C678.068 174.562 678.2 175.403 678.2 176.392V177.145H669.528V175.554H676.119C676.119 174.995 676.006 174.501 675.778 174.07C675.551 173.634 675.232 173.291 674.82 173.04C674.412 172.789 673.934 172.664 673.385 172.664C672.788 172.664 672.268 172.81 671.822 173.104C671.382 173.393 671.041 173.772 670.8 174.24C670.563 174.704 670.445 175.209 670.445 175.753V176.996C670.445 177.725 670.572 178.345 670.828 178.857C671.089 179.368 671.451 179.759 671.915 180.029C672.379 180.294 672.921 180.426 673.541 180.426C673.944 180.426 674.311 180.37 674.642 180.256C674.973 180.138 675.26 179.962 675.501 179.73C675.743 179.498 675.928 179.212 676.055 178.871L678.065 179.233C677.904 179.825 677.616 180.343 677.199 180.789C676.787 181.229 676.268 181.572 675.643 181.818C675.023 182.06 674.315 182.181 673.52 182.181ZM685.152 182.181C684.096 182.181 683.187 181.942 682.424 181.463C681.667 180.98 681.084 180.315 680.677 179.468C680.27 178.62 680.066 177.649 680.066 176.556C680.066 175.448 680.275 174.47 680.691 173.622C681.108 172.77 681.695 172.105 682.453 171.627C683.21 171.148 684.103 170.909 685.13 170.909C685.959 170.909 686.698 171.063 687.346 171.371C687.995 171.674 688.518 172.1 688.916 172.649C689.318 173.199 689.557 173.84 689.633 174.574H687.566C687.453 174.063 687.192 173.622 686.785 173.253C686.383 172.884 685.843 172.699 685.166 172.699C684.574 172.699 684.056 172.855 683.61 173.168C683.17 173.476 682.827 173.916 682.581 174.489C682.334 175.057 682.211 175.729 682.211 176.506C682.211 177.301 682.332 177.988 682.574 178.566C682.815 179.143 683.156 179.591 683.596 179.908C684.041 180.225 684.565 180.384 685.166 180.384C685.568 180.384 685.933 180.31 686.26 180.164C686.591 180.012 686.868 179.797 687.091 179.517C687.318 179.238 687.476 178.902 687.566 178.509H689.633C689.557 179.214 689.328 179.844 688.944 180.398C688.561 180.952 688.047 181.388 687.403 181.705C686.764 182.022 686.013 182.181 685.152 182.181ZM696.996 171.051V172.756H691.038V171.051H696.996ZM692.636 168.438H694.759V178.757C694.759 179.169 694.821 179.479 694.944 179.688C695.067 179.891 695.226 180.031 695.42 180.107C695.619 180.178 695.834 180.213 696.066 180.213C696.237 180.213 696.386 180.201 696.513 180.178C696.641 180.154 696.741 180.135 696.812 180.121L697.195 181.875C697.072 181.923 696.897 181.97 696.67 182.017C696.442 182.069 696.158 182.098 695.817 182.102C695.259 182.112 694.738 182.013 694.255 181.804C693.772 181.596 693.381 181.274 693.083 180.838C692.785 180.403 692.636 179.856 692.636 179.198V168.438ZM699.346 181.96V171.051H701.469V181.96H699.346ZM700.418 169.368C700.049 169.368 699.731 169.245 699.466 168.999C699.206 168.748 699.076 168.45 699.076 168.104C699.076 167.754 699.206 167.455 699.466 167.209C699.731 166.958 700.049 166.833 700.418 166.833C700.787 166.833 701.102 166.958 701.363 167.209C701.628 167.455 701.76 167.754 701.76 168.104C701.76 168.45 701.628 168.748 701.363 168.999C701.102 169.245 700.787 169.368 700.418 169.368ZM708.921 182.181C707.898 182.181 707.006 181.946 706.244 181.477C705.481 181.009 704.889 180.353 704.468 179.51C704.047 178.667 703.836 177.683 703.836 176.556C703.836 175.424 704.047 174.434 704.468 173.587C704.889 172.739 705.481 172.081 706.244 171.612C707.006 171.144 707.898 170.909 708.921 170.909C709.944 170.909 710.836 171.144 711.599 171.612C712.361 172.081 712.953 172.739 713.374 173.587C713.796 174.434 714.006 175.424 714.006 176.556C714.006 177.683 713.796 178.667 713.374 179.51C712.953 180.353 712.361 181.009 711.599 181.477C710.836 181.946 709.944 182.181 708.921 182.181ZM708.928 180.398C709.591 180.398 710.14 180.223 710.576 179.872C711.012 179.522 711.334 179.056 711.542 178.473C711.755 177.891 711.862 177.249 711.862 176.549C711.862 175.852 711.755 175.213 711.542 174.631C711.334 174.044 711.012 173.573 710.576 173.218C710.14 172.862 709.591 172.685 708.928 172.685C708.261 172.685 707.707 172.862 707.266 173.218C706.831 173.573 706.506 174.044 706.293 174.631C706.085 175.213 705.981 175.852 705.981 176.549C705.981 177.249 706.085 177.891 706.293 178.473C706.506 179.056 706.831 179.522 707.266 179.872C707.707 180.223 708.261 180.398 708.928 180.398ZM718.5 175.483V181.96H716.377V171.051H718.415V172.827H718.55C718.801 172.249 719.194 171.785 719.729 171.435C720.269 171.085 720.948 170.909 721.767 170.909C722.511 170.909 723.162 171.066 723.721 171.378C724.279 171.686 724.712 172.145 725.02 172.756C725.328 173.367 725.482 174.122 725.482 175.022V181.96H723.358V175.277C723.358 174.486 723.152 173.869 722.74 173.424C722.328 172.974 721.763 172.749 721.043 172.749C720.551 172.749 720.113 172.855 719.729 173.068C719.35 173.281 719.05 173.594 718.827 174.006C718.609 174.413 718.5 174.906 718.5 175.483ZM733.793 167.415H736.457L741.087 178.722H741.258L745.888 167.415H748.552V181.96H746.464V171.435H746.329L742.039 181.939H740.306L736.016 171.428H735.881V181.96H733.793V167.415ZM756.167 182.181C755.145 182.181 754.252 181.946 753.49 181.477C752.727 181.009 752.136 180.353 751.714 179.51C751.293 178.667 751.082 177.683 751.082 176.556C751.082 175.424 751.293 174.434 751.714 173.587C752.136 172.739 752.727 172.081 753.49 171.612C754.252 171.144 755.145 170.909 756.167 170.909C757.19 170.909 758.083 171.144 758.845 171.612C759.607 172.081 760.199 172.739 760.62 173.587C761.042 174.434 761.252 175.424 761.252 176.556C761.252 177.683 761.042 178.667 760.62 179.51C760.199 180.353 759.607 181.009 758.845 181.477C758.083 181.946 757.19 182.181 756.167 182.181ZM756.174 180.398C756.837 180.398 757.386 180.223 757.822 179.872C758.258 179.522 758.58 179.056 758.788 178.473C759.001 177.891 759.108 177.249 759.108 176.549C759.108 175.852 759.001 175.213 758.788 174.631C758.58 174.044 758.258 173.573 757.822 173.218C757.386 172.862 756.837 172.685 756.174 172.685C755.507 172.685 754.953 172.862 754.512 173.218C754.077 173.573 753.752 174.044 753.539 174.631C753.331 175.213 753.227 175.852 753.227 176.549C753.227 177.249 753.331 177.891 753.539 178.473C753.752 179.056 754.077 179.522 754.512 179.872C754.953 180.223 755.507 180.398 756.174 180.398ZM767.707 182.174C766.826 182.174 766.04 181.949 765.349 181.499C764.662 181.044 764.122 180.398 763.729 179.56C763.341 178.717 763.147 177.706 763.147 176.527C763.147 175.348 763.344 174.34 763.737 173.502C764.134 172.664 764.679 172.022 765.37 171.577C766.061 171.132 766.845 170.909 767.721 170.909C768.398 170.909 768.942 171.023 769.354 171.25C769.771 171.473 770.093 171.733 770.32 172.031C770.552 172.33 770.732 172.593 770.86 172.82H770.988V167.415H773.112V181.96H771.038V180.263H770.86C770.732 180.495 770.548 180.76 770.306 181.058C770.069 181.357 769.743 181.617 769.326 181.84C768.909 182.062 768.37 182.174 767.707 182.174ZM768.175 180.362C768.786 180.362 769.302 180.201 769.724 179.879C770.15 179.553 770.472 179.101 770.69 178.523C770.912 177.945 771.023 177.273 771.023 176.506C771.023 175.748 770.915 175.085 770.697 174.517C770.479 173.949 770.159 173.506 769.738 173.189C769.317 172.872 768.796 172.713 768.175 172.713C767.536 172.713 767.004 172.879 766.577 173.21C766.151 173.542 765.829 173.994 765.612 174.567C765.398 175.14 765.292 175.786 765.292 176.506C765.292 177.235 765.401 177.891 765.619 178.473C765.836 179.056 766.158 179.517 766.585 179.858C767.015 180.194 767.546 180.362 768.175 180.362ZM783.053 177.436V171.051H785.184V181.96H783.096V180.071H782.982C782.731 180.654 782.328 181.139 781.775 181.527C781.225 181.911 780.541 182.102 779.722 182.102C779.021 182.102 778.401 181.949 777.861 181.641C777.326 181.328 776.905 180.867 776.597 180.256C776.294 179.645 776.142 178.89 776.142 177.99V171.051H778.266V177.735C778.266 178.478 778.472 179.07 778.884 179.51C779.296 179.951 779.831 180.171 780.489 180.171C780.887 180.171 781.282 180.071 781.675 179.872C782.073 179.674 782.402 179.373 782.662 178.97C782.927 178.568 783.058 178.057 783.053 177.436ZM790.161 167.415V181.96H788.037V167.415H790.161ZM797.719 182.181C796.644 182.181 795.719 181.951 794.942 181.492C794.17 181.028 793.574 180.377 793.152 179.539C792.736 178.696 792.527 177.709 792.527 176.577C792.527 175.46 792.736 174.475 793.152 173.622C793.574 172.77 794.161 172.105 794.914 171.627C795.671 171.148 796.557 170.909 797.57 170.909C798.185 170.909 798.782 171.011 799.36 171.215C799.937 171.418 800.456 171.738 800.915 172.174C801.374 172.609 801.737 173.175 802.002 173.871C802.267 174.562 802.4 175.403 802.4 176.392V177.145H793.728V175.554H800.319C800.319 174.995 800.205 174.501 799.978 174.07C799.75 173.634 799.431 173.291 799.019 173.04C798.612 172.789 798.133 172.664 797.584 172.664C796.988 172.664 796.467 172.81 796.022 173.104C795.581 173.393 795.24 173.772 794.999 174.24C794.762 174.704 794.644 175.209 794.644 175.753V176.996C794.644 177.725 794.772 178.345 795.027 178.857C795.288 179.368 795.65 179.759 796.114 180.029C796.578 180.294 797.12 180.426 797.74 180.426C798.143 180.426 798.51 180.37 798.841 180.256C799.173 180.138 799.459 179.962 799.701 179.73C799.942 179.498 800.127 179.212 800.255 178.871L802.265 179.233C802.104 179.825 801.815 180.343 801.398 180.789C800.986 181.229 800.468 181.572 799.843 181.818C799.222 182.06 798.515 182.181 797.719 182.181Z" fill="white"/>
<path opacity="0.8" d="M952.943 145.148H951.17C951.102 144.769 950.975 144.436 950.79 144.148C950.604 143.86 950.377 143.616 950.108 143.415C949.839 143.214 949.538 143.062 949.205 142.96C948.875 142.858 948.525 142.807 948.153 142.807C947.483 142.807 946.883 142.975 946.352 143.312C945.826 143.65 945.409 144.144 945.102 144.795C944.799 145.447 944.648 146.242 944.648 147.182C944.648 148.129 944.799 148.928 945.102 149.58C945.409 150.231 945.828 150.723 946.358 151.057C946.888 151.39 947.485 151.557 948.148 151.557C948.515 151.557 948.864 151.508 949.193 151.409C949.527 151.307 949.828 151.157 950.097 150.96C950.366 150.763 950.593 150.523 950.778 150.239C950.968 149.951 951.098 149.621 951.17 149.25L952.943 149.256C952.848 149.828 952.665 150.354 952.392 150.835C952.123 151.312 951.777 151.725 951.352 152.074C950.932 152.419 950.451 152.686 949.909 152.875C949.367 153.064 948.777 153.159 948.136 153.159C947.129 153.159 946.231 152.92 945.443 152.443C944.655 151.962 944.034 151.275 943.58 150.381C943.129 149.487 942.903 148.42 942.903 147.182C942.903 145.939 943.131 144.873 943.585 143.983C944.04 143.089 944.661 142.403 945.449 141.926C946.237 141.445 947.133 141.205 948.136 141.205C948.754 141.205 949.33 141.294 949.864 141.472C950.402 141.646 950.884 141.903 951.312 142.244C951.741 142.581 952.095 142.994 952.375 143.483C952.655 143.968 952.845 144.523 952.943 145.148ZM958.584 153.176C957.766 153.176 957.052 152.989 956.442 152.614C955.832 152.239 955.358 151.714 955.021 151.04C954.684 150.366 954.516 149.578 954.516 148.676C954.516 147.771 954.684 146.979 955.021 146.301C955.358 145.623 955.832 145.097 956.442 144.722C957.052 144.347 957.766 144.159 958.584 144.159C959.402 144.159 960.116 144.347 960.726 144.722C961.336 145.097 961.809 145.623 962.146 146.301C962.483 146.979 962.652 147.771 962.652 148.676C962.652 149.578 962.483 150.366 962.146 151.04C961.809 151.714 961.336 152.239 960.726 152.614C960.116 152.989 959.402 153.176 958.584 153.176ZM958.589 151.75C959.12 151.75 959.559 151.61 959.908 151.33C960.256 151.049 960.514 150.676 960.68 150.21C960.851 149.744 960.936 149.231 960.936 148.67C960.936 148.114 960.851 147.602 960.68 147.136C960.514 146.667 960.256 146.29 959.908 146.006C959.559 145.722 959.12 145.58 958.589 145.58C958.055 145.58 957.612 145.722 957.26 146.006C956.911 146.29 956.652 146.667 956.482 147.136C956.315 147.602 956.232 148.114 956.232 148.67C956.232 149.231 956.315 149.744 956.482 150.21C956.652 150.676 956.911 151.049 957.26 151.33C957.612 151.61 958.055 151.75 958.589 151.75ZM966.247 141.364V153H964.548V141.364H966.247ZM970.232 141.364V153H968.533V141.364H970.232ZM976.278 153.176C975.419 153.176 974.678 152.992 974.057 152.625C973.439 152.254 972.962 151.733 972.625 151.062C972.292 150.388 972.125 149.598 972.125 148.693C972.125 147.799 972.292 147.011 972.625 146.33C972.962 145.648 973.432 145.116 974.034 144.733C974.64 144.35 975.348 144.159 976.159 144.159C976.652 144.159 977.129 144.241 977.591 144.403C978.053 144.566 978.468 144.822 978.835 145.17C979.203 145.519 979.492 145.972 979.705 146.528C979.917 147.081 980.023 147.754 980.023 148.545V149.148H973.085V147.875H978.358C978.358 147.428 978.267 147.032 978.085 146.688C977.903 146.339 977.648 146.064 977.318 145.864C976.992 145.663 976.61 145.562 976.17 145.562C975.693 145.562 975.277 145.68 974.92 145.915C974.568 146.146 974.295 146.449 974.102 146.824C973.913 147.195 973.818 147.598 973.818 148.034V149.028C973.818 149.612 973.92 150.108 974.125 150.517C974.333 150.926 974.623 151.239 974.994 151.455C975.366 151.667 975.799 151.773 976.295 151.773C976.617 151.773 976.911 151.727 977.176 151.636C977.441 151.542 977.67 151.402 977.864 151.216C978.057 151.03 978.205 150.801 978.307 150.528L979.915 150.818C979.786 151.292 979.555 151.706 979.222 152.062C978.892 152.415 978.477 152.689 977.977 152.886C977.481 153.08 976.915 153.176 976.278 153.176ZM985.584 153.176C984.739 153.176 984.012 152.985 983.402 152.602C982.796 152.216 982.33 151.684 982.004 151.006C981.679 150.328 981.516 149.551 981.516 148.676C981.516 147.79 981.682 147.008 982.016 146.33C982.349 145.648 982.819 145.116 983.425 144.733C984.031 144.35 984.745 144.159 985.567 144.159C986.23 144.159 986.821 144.282 987.339 144.528C987.858 144.771 988.277 145.112 988.595 145.551C988.917 145.991 989.108 146.504 989.169 147.091H987.516C987.425 146.682 987.216 146.33 986.891 146.034C986.569 145.739 986.137 145.591 985.595 145.591C985.122 145.591 984.707 145.716 984.351 145.966C983.999 146.212 983.724 146.564 983.527 147.023C983.33 147.477 983.232 148.015 983.232 148.636C983.232 149.273 983.328 149.822 983.521 150.284C983.714 150.746 983.987 151.104 984.339 151.358C984.696 151.612 985.114 151.739 985.595 151.739C985.917 151.739 986.209 151.68 986.47 151.562C986.735 151.441 986.957 151.269 987.135 151.045C987.317 150.822 987.444 150.553 987.516 150.239H989.169C989.108 150.803 988.925 151.307 988.618 151.75C988.311 152.193 987.9 152.542 987.385 152.795C986.874 153.049 986.273 153.176 985.584 153.176ZM995.06 144.273V145.636H990.293V144.273H995.06ZM991.571 142.182H993.27V150.438C993.27 150.767 993.319 151.015 993.418 151.182C993.516 151.345 993.643 151.456 993.798 151.517C993.957 151.574 994.13 151.602 994.315 151.602C994.452 151.602 994.571 151.593 994.673 151.574C994.776 151.555 994.855 151.54 994.912 151.528L995.219 152.932C995.12 152.97 994.98 153.008 994.798 153.045C994.616 153.087 994.389 153.11 994.116 153.114C993.67 153.121 993.253 153.042 992.866 152.875C992.48 152.708 992.168 152.451 991.929 152.102C991.69 151.754 991.571 151.316 991.571 150.79V142.182ZM1000.61 153.176C999.747 153.176 999.006 152.992 998.385 152.625C997.768 152.254 997.29 151.733 996.953 151.062C996.62 150.388 996.453 149.598 996.453 148.693C996.453 147.799 996.62 147.011 996.953 146.33C997.29 145.648 997.76 145.116 998.362 144.733C998.968 144.35 999.677 144.159 1000.49 144.159C1000.98 144.159 1001.46 144.241 1001.92 144.403C1002.38 144.566 1002.8 144.822 1003.16 145.17C1003.53 145.519 1003.82 145.972 1004.03 146.528C1004.24 147.081 1004.35 147.754 1004.35 148.545V149.148H997.413V147.875H1002.69C1002.69 147.428 1002.6 147.032 1002.41 146.688C1002.23 146.339 1001.98 146.064 1001.65 145.864C1001.32 145.663 1000.94 145.562 1000.5 145.562C1000.02 145.562 999.605 145.68 999.249 145.915C998.896 146.146 998.624 146.449 998.43 146.824C998.241 147.195 998.146 147.598 998.146 148.034V149.028C998.146 149.612 998.249 150.108 998.453 150.517C998.661 150.926 998.951 151.239 999.322 151.455C999.694 151.667 1000.13 151.773 1000.62 151.773C1000.95 151.773 1001.24 151.727 1001.5 151.636C1001.77 151.542 1002 151.402 1002.19 151.216C1002.38 151.03 1002.53 150.801 1002.63 150.528L1004.24 150.818C1004.11 151.292 1003.88 151.706 1003.55 152.062C1003.22 152.415 1002.81 152.689 1002.31 152.886C1001.81 153.08 1001.24 153.176 1000.61 153.176ZM1009.5 153.17C1008.8 153.17 1008.17 152.991 1007.62 152.631C1007.07 152.267 1006.64 151.75 1006.32 151.08C1006.01 150.405 1005.86 149.597 1005.86 148.653C1005.86 147.71 1006.01 146.903 1006.33 146.233C1006.64 145.562 1007.08 145.049 1007.63 144.693C1008.19 144.337 1008.81 144.159 1009.51 144.159C1010.06 144.159 1010.49 144.25 1010.82 144.432C1011.15 144.61 1011.41 144.818 1011.59 145.057C1011.78 145.295 1011.92 145.506 1012.03 145.688H1012.13V141.364H1013.83V153H1012.17V151.642H1012.03C1011.92 151.828 1011.78 152.04 1011.58 152.278C1011.39 152.517 1011.13 152.725 1010.8 152.903C1010.46 153.081 1010.03 153.17 1009.5 153.17ZM1009.88 151.722C1010.37 151.722 1010.78 151.593 1011.12 151.335C1011.46 151.074 1011.71 150.712 1011.89 150.25C1012.07 149.788 1012.16 149.25 1012.16 148.636C1012.16 148.03 1012.07 147.5 1011.89 147.045C1011.72 146.591 1011.46 146.237 1011.13 145.983C1010.79 145.729 1010.37 145.602 1009.88 145.602C1009.37 145.602 1008.94 145.735 1008.6 146C1008.26 146.265 1008 146.627 1007.83 147.085C1007.66 147.544 1007.57 148.061 1007.57 148.636C1007.57 149.22 1007.66 149.744 1007.83 150.21C1008.01 150.676 1008.26 151.045 1008.61 151.318C1008.95 151.587 1009.37 151.722 1009.88 151.722ZM1023.03 153.193C1022.47 153.193 1021.97 153.091 1021.53 152.886C1021.08 152.678 1020.72 152.377 1020.46 151.983C1020.21 151.589 1020.08 151.106 1020.08 150.534C1020.08 150.042 1020.17 149.636 1020.36 149.318C1020.55 149 1020.81 148.748 1021.13 148.562C1021.45 148.377 1021.81 148.237 1022.21 148.142C1022.61 148.047 1023.01 147.975 1023.42 147.926C1023.95 147.866 1024.37 147.816 1024.7 147.778C1025.02 147.737 1025.26 147.67 1025.41 147.58C1025.55 147.489 1025.63 147.341 1025.63 147.136V147.097C1025.63 146.6 1025.49 146.216 1025.21 145.943C1024.93 145.67 1024.52 145.534 1023.97 145.534C1023.4 145.534 1022.95 145.661 1022.62 145.915C1022.29 146.165 1022.07 146.443 1021.94 146.75L1020.34 146.386C1020.53 145.856 1020.81 145.428 1021.17 145.102C1021.54 144.773 1021.96 144.534 1022.44 144.386C1022.92 144.235 1023.42 144.159 1023.95 144.159C1024.29 144.159 1024.66 144.201 1025.05 144.284C1025.45 144.364 1025.82 144.511 1026.16 144.727C1026.5 144.943 1026.78 145.252 1027 145.653C1027.22 146.051 1027.33 146.568 1027.33 147.205V153H1025.67V151.807H1025.61C1025.5 152.027 1025.33 152.242 1025.11 152.455C1024.89 152.667 1024.61 152.843 1024.26 152.983C1023.92 153.123 1023.51 153.193 1023.03 153.193ZM1023.39 151.83C1023.86 151.83 1024.27 151.737 1024.6 151.551C1024.94 151.366 1025.19 151.123 1025.37 150.824C1025.54 150.521 1025.63 150.197 1025.63 149.852V148.727C1025.57 148.788 1025.46 148.845 1025.28 148.898C1025.11 148.947 1024.92 148.991 1024.7 149.028C1024.48 149.062 1024.26 149.095 1024.05 149.125C1023.85 149.152 1023.67 149.174 1023.53 149.193C1023.2 149.235 1022.9 149.305 1022.63 149.403C1022.36 149.502 1022.14 149.644 1021.98 149.83C1021.82 150.011 1021.74 150.254 1021.74 150.557C1021.74 150.977 1021.9 151.295 1022.21 151.511C1022.52 151.723 1022.91 151.83 1023.39 151.83ZM1035.12 149.381V144.273H1036.83V153H1035.16V151.489H1035.07C1034.87 151.955 1034.54 152.343 1034.1 152.653C1033.66 152.96 1033.11 153.114 1032.46 153.114C1031.9 153.114 1031.4 152.991 1030.97 152.744C1030.54 152.494 1030.21 152.125 1029.96 151.636C1029.72 151.148 1029.6 150.544 1029.6 149.824V144.273H1031.29V149.619C1031.29 150.214 1031.46 150.687 1031.79 151.04C1032.12 151.392 1032.55 151.568 1033.07 151.568C1033.39 151.568 1033.71 151.489 1034.02 151.33C1034.34 151.17 1034.6 150.93 1034.81 150.608C1035.02 150.286 1035.13 149.877 1035.12 149.381ZM1042.38 153.17C1041.67 153.17 1041.04 152.991 1040.49 152.631C1039.94 152.267 1039.51 151.75 1039.2 151.08C1038.89 150.405 1038.73 149.597 1038.73 148.653C1038.73 147.71 1038.89 146.903 1039.2 146.233C1039.52 145.562 1039.96 145.049 1040.51 144.693C1041.06 144.337 1041.69 144.159 1042.39 144.159C1042.93 144.159 1043.37 144.25 1043.7 144.432C1044.03 144.61 1044.29 144.818 1044.47 145.057C1044.65 145.295 1044.8 145.506 1044.9 145.688H1045V141.364H1046.7V153H1045.04V151.642H1044.9C1044.8 151.828 1044.65 152.04 1044.46 152.278C1044.27 152.517 1044.01 152.725 1043.67 152.903C1043.34 153.081 1042.91 153.17 1042.38 153.17ZM1042.75 151.722C1043.24 151.722 1043.65 151.593 1043.99 151.335C1044.33 151.074 1044.59 150.712 1044.76 150.25C1044.94 149.788 1045.03 149.25 1045.03 148.636C1045.03 148.03 1044.94 147.5 1044.77 147.045C1044.6 146.591 1044.34 146.237 1044 145.983C1043.67 145.729 1043.25 145.602 1042.75 145.602C1042.24 145.602 1041.82 145.735 1041.47 146C1041.13 146.265 1040.88 146.627 1040.7 147.085C1040.53 147.544 1040.45 148.061 1040.45 148.636C1040.45 149.22 1040.53 149.744 1040.71 150.21C1040.88 150.676 1041.14 151.045 1041.48 151.318C1041.82 151.587 1042.25 151.722 1042.75 151.722ZM1049.13 153V144.273H1050.83V153H1049.13ZM1049.98 142.926C1049.69 142.926 1049.44 142.828 1049.22 142.631C1049.01 142.43 1048.91 142.191 1048.91 141.915C1048.91 141.634 1049.01 141.396 1049.22 141.199C1049.44 140.998 1049.69 140.898 1049.98 140.898C1050.28 140.898 1050.53 140.998 1050.74 141.199C1050.95 141.396 1051.06 141.634 1051.06 141.915C1051.06 142.191 1050.95 142.43 1050.74 142.631C1050.53 142.828 1050.28 142.926 1049.98 142.926ZM1056.79 153.176C1055.97 153.176 1055.25 152.989 1054.64 152.614C1054.04 152.239 1053.56 151.714 1053.22 151.04C1052.89 150.366 1052.72 149.578 1052.72 148.676C1052.72 147.771 1052.89 146.979 1053.22 146.301C1053.56 145.623 1054.04 145.097 1054.64 144.722C1055.25 144.347 1055.97 144.159 1056.79 144.159C1057.61 144.159 1058.32 144.347 1058.93 144.722C1059.54 145.097 1060.01 145.623 1060.35 146.301C1060.69 146.979 1060.86 147.771 1060.86 148.676C1060.86 149.578 1060.69 150.366 1060.35 151.04C1060.01 151.714 1059.54 152.239 1058.93 152.614C1058.32 152.989 1057.61 153.176 1056.79 153.176ZM1056.79 151.75C1057.32 151.75 1057.76 151.61 1058.11 151.33C1058.46 151.049 1058.72 150.676 1058.88 150.21C1059.05 149.744 1059.14 149.231 1059.14 148.67C1059.14 148.114 1059.05 147.602 1058.88 147.136C1058.72 146.667 1058.46 146.29 1058.11 146.006C1057.76 145.722 1057.32 145.58 1056.79 145.58C1056.26 145.58 1055.82 145.722 1055.46 146.006C1055.11 146.29 1054.86 146.667 1054.68 147.136C1054.52 147.602 1054.43 148.114 1054.43 148.67C1054.43 149.231 1054.52 149.744 1054.68 150.21C1054.86 150.676 1055.11 151.049 1055.46 151.33C1055.82 151.61 1056.26 151.75 1056.79 151.75ZM1071.14 144.273V145.636H1066.21V144.273H1071.14ZM1067.56 153V143.261C1067.56 142.716 1067.68 142.263 1067.92 141.903C1068.16 141.54 1068.47 141.269 1068.87 141.091C1069.26 140.909 1069.69 140.818 1070.15 140.818C1070.49 140.818 1070.78 140.847 1071.03 140.903C1071.27 140.956 1071.45 141.006 1071.57 141.051L1071.17 142.426C1071.09 142.403 1070.99 142.377 1070.86 142.347C1070.74 142.312 1070.58 142.295 1070.41 142.295C1069.99 142.295 1069.7 142.398 1069.52 142.602C1069.35 142.807 1069.26 143.102 1069.26 143.489V153H1067.56ZM1072.89 153V144.273H1074.53V145.659H1074.62C1074.78 145.189 1075.06 144.82 1075.47 144.551C1075.87 144.278 1076.33 144.142 1076.84 144.142C1076.95 144.142 1077.07 144.146 1077.22 144.153C1077.36 144.161 1077.48 144.17 1077.56 144.182V145.807C1077.49 145.788 1077.37 145.767 1077.2 145.744C1077.02 145.718 1076.85 145.705 1076.68 145.705C1076.27 145.705 1075.92 145.79 1075.6 145.96C1075.29 146.127 1075.05 146.36 1074.86 146.659C1074.68 146.955 1074.59 147.292 1074.59 147.67V153H1072.89ZM1081.49 153.193C1080.94 153.193 1080.44 153.091 1079.99 152.886C1079.55 152.678 1079.19 152.377 1078.93 151.983C1078.67 151.589 1078.55 151.106 1078.55 150.534C1078.55 150.042 1078.64 149.636 1078.83 149.318C1079.02 149 1079.27 148.748 1079.6 148.562C1079.92 148.377 1080.28 148.237 1080.68 148.142C1081.07 148.047 1081.48 147.975 1081.89 147.926C1082.41 147.866 1082.84 147.816 1083.16 147.778C1083.49 147.737 1083.73 147.67 1083.88 147.58C1084.02 147.489 1084.1 147.341 1084.1 147.136V147.097C1084.1 146.6 1083.96 146.216 1083.68 145.943C1083.4 145.67 1082.99 145.534 1082.44 145.534C1081.87 145.534 1081.41 145.661 1081.09 145.915C1080.76 146.165 1080.53 146.443 1080.41 146.75L1078.81 146.386C1079 145.856 1079.28 145.428 1079.64 145.102C1080.01 144.773 1080.43 144.534 1080.91 144.386C1081.39 144.235 1081.89 144.159 1082.41 144.159C1082.76 144.159 1083.13 144.201 1083.52 144.284C1083.92 144.364 1084.28 144.511 1084.62 144.727C1084.97 144.943 1085.25 145.252 1085.47 145.653C1085.69 146.051 1085.8 146.568 1085.8 147.205V153H1084.14V151.807H1084.07C1083.96 152.027 1083.8 152.242 1083.58 152.455C1083.36 152.667 1083.08 152.843 1082.73 152.983C1082.39 153.123 1081.98 153.193 1081.49 153.193ZM1081.86 151.83C1082.33 151.83 1082.73 151.737 1083.07 151.551C1083.41 151.366 1083.66 151.123 1083.84 150.824C1084.01 150.521 1084.1 150.197 1084.1 149.852V148.727C1084.04 148.788 1083.92 148.845 1083.75 148.898C1083.58 148.947 1083.38 148.991 1083.16 149.028C1082.95 149.062 1082.73 149.095 1082.52 149.125C1082.31 149.152 1082.14 149.174 1082 149.193C1081.67 149.235 1081.37 149.305 1081.1 149.403C1080.83 149.502 1080.61 149.644 1080.45 149.83C1080.29 150.011 1080.21 150.254 1080.21 150.557C1080.21 150.977 1080.37 151.295 1080.68 151.511C1080.99 151.723 1081.38 151.83 1081.86 151.83ZM1088.06 153V144.273H1089.69V145.693H1089.8C1089.98 145.212 1090.28 144.837 1090.69 144.568C1091.11 144.295 1091.6 144.159 1092.18 144.159C1092.76 144.159 1093.25 144.295 1093.64 144.568C1094.04 144.841 1094.33 145.216 1094.52 145.693H1094.62C1094.82 145.227 1095.15 144.856 1095.61 144.58C1096.06 144.299 1096.61 144.159 1097.23 144.159C1098.03 144.159 1098.67 144.407 1099.17 144.903C1099.68 145.4 1099.93 146.148 1099.93 147.148V153H1098.23V147.307C1098.23 146.716 1098.07 146.288 1097.75 146.023C1097.42 145.758 1097.04 145.625 1096.59 145.625C1096.04 145.625 1095.61 145.795 1095.3 146.136C1095 146.473 1094.84 146.907 1094.84 147.438V153H1093.15V147.199C1093.15 146.725 1093 146.345 1092.71 146.057C1092.41 145.769 1092.03 145.625 1091.55 145.625C1091.23 145.625 1090.93 145.71 1090.66 145.881C1090.39 146.047 1090.17 146.28 1090.01 146.58C1089.84 146.879 1089.76 147.225 1089.76 147.619V153H1088.06ZM1105.97 153.176C1105.11 153.176 1104.37 152.992 1103.74 152.625C1103.13 152.254 1102.65 151.733 1102.31 151.062C1101.98 150.388 1101.81 149.598 1101.81 148.693C1101.81 147.799 1101.98 147.011 1102.31 146.33C1102.65 145.648 1103.12 145.116 1103.72 144.733C1104.33 144.35 1105.04 144.159 1105.85 144.159C1106.34 144.159 1106.82 144.241 1107.28 144.403C1107.74 144.566 1108.16 144.822 1108.52 145.17C1108.89 145.519 1109.18 145.972 1109.39 146.528C1109.6 147.081 1109.71 147.754 1109.71 148.545V149.148H1102.77V147.875H1108.05C1108.05 147.428 1107.95 147.032 1107.77 146.688C1107.59 146.339 1107.34 146.064 1107.01 145.864C1106.68 145.663 1106.3 145.562 1105.86 145.562C1105.38 145.562 1104.96 145.68 1104.61 145.915C1104.26 146.146 1103.98 146.449 1103.79 146.824C1103.6 147.195 1103.51 147.598 1103.51 148.034V149.028C1103.51 149.612 1103.61 150.108 1103.81 150.517C1104.02 150.926 1104.31 151.239 1104.68 151.455C1105.05 151.667 1105.49 151.773 1105.98 151.773C1106.3 151.773 1106.6 151.727 1106.86 151.636C1107.13 151.542 1107.36 151.402 1107.55 151.216C1107.74 151.03 1107.89 150.801 1107.99 150.528L1109.6 150.818C1109.47 151.292 1109.24 151.706 1108.91 152.062C1108.58 152.415 1108.16 152.689 1107.66 152.886C1107.17 153.08 1106.6 153.176 1105.97 153.176ZM1118.13 146.403L1116.6 146.676C1116.53 146.479 1116.43 146.292 1116.29 146.114C1116.15 145.936 1115.97 145.79 1115.73 145.676C1115.5 145.562 1115.2 145.506 1114.85 145.506C1114.37 145.506 1113.97 145.614 1113.65 145.83C1113.32 146.042 1113.16 146.316 1113.16 146.653C1113.16 146.945 1113.27 147.18 1113.49 147.358C1113.7 147.536 1114.05 147.682 1114.53 147.795L1115.92 148.114C1116.72 148.299 1117.32 148.585 1117.71 148.972C1118.11 149.358 1118.31 149.86 1118.31 150.477C1118.31 151 1118.15 151.466 1117.85 151.875C1117.55 152.28 1117.13 152.598 1116.6 152.83C1116.06 153.061 1115.44 153.176 1114.74 153.176C1113.76 153.176 1112.96 152.968 1112.35 152.551C1111.73 152.131 1111.35 151.534 1111.21 150.761L1112.85 150.511C1112.95 150.939 1113.16 151.263 1113.48 151.483C1113.8 151.699 1114.21 151.807 1114.73 151.807C1115.28 151.807 1115.73 151.691 1116.06 151.46C1116.39 151.225 1116.56 150.939 1116.56 150.602C1116.56 150.33 1116.46 150.1 1116.25 149.915C1116.05 149.729 1115.74 149.589 1115.33 149.494L1113.85 149.17C1113.04 148.985 1112.43 148.689 1112.04 148.284C1111.66 147.879 1111.46 147.366 1111.46 146.744C1111.46 146.229 1111.61 145.778 1111.9 145.392C1112.18 145.006 1112.58 144.705 1113.09 144.489C1113.6 144.269 1114.18 144.159 1114.83 144.159C1115.78 144.159 1116.52 144.364 1117.06 144.773C1117.6 145.178 1117.96 145.722 1118.13 146.403Z" fill="white"/>
<path opacity="0.8" d="M315.625 144.49C315.564 143.952 315.314 143.536 314.875 143.24C314.436 142.941 313.883 142.791 313.216 142.791C312.739 142.791 312.326 142.867 311.977 143.019C311.629 143.166 311.358 143.371 311.165 143.632C310.975 143.89 310.881 144.183 310.881 144.513C310.881 144.79 310.945 145.028 311.074 145.229C311.206 145.43 311.379 145.598 311.591 145.735C311.807 145.867 312.038 145.979 312.284 146.07C312.53 146.157 312.767 146.229 312.994 146.286L314.131 146.581C314.502 146.672 314.883 146.795 315.273 146.951C315.663 147.106 316.025 147.31 316.358 147.564C316.691 147.818 316.96 148.132 317.165 148.507C317.373 148.882 317.477 149.331 317.477 149.854C317.477 150.513 317.307 151.098 316.966 151.61C316.629 152.121 316.138 152.524 315.494 152.82C314.854 153.115 314.08 153.263 313.17 153.263C312.299 153.263 311.545 153.125 310.909 152.848C310.273 152.572 309.775 152.18 309.415 151.672C309.055 151.161 308.856 150.555 308.818 149.854H310.58C310.614 150.274 310.75 150.625 310.989 150.905C311.231 151.182 311.54 151.388 311.915 151.524C312.294 151.657 312.708 151.723 313.159 151.723C313.655 151.723 314.097 151.646 314.483 151.49C314.873 151.331 315.18 151.111 315.403 150.831C315.627 150.547 315.739 150.216 315.739 149.837C315.739 149.492 315.64 149.21 315.443 148.99C315.25 148.771 314.987 148.589 314.653 148.445C314.324 148.301 313.951 148.174 313.534 148.064L312.159 147.689C311.227 147.435 310.489 147.062 309.943 146.57C309.402 146.077 309.131 145.426 309.131 144.615C309.131 143.945 309.313 143.36 309.676 142.86C310.04 142.36 310.532 141.971 311.153 141.695C311.775 141.415 312.475 141.274 313.256 141.274C314.044 141.274 314.739 141.413 315.341 141.689C315.947 141.966 316.424 142.346 316.773 142.831C317.121 143.312 317.303 143.865 317.318 144.49H315.625ZM319.439 156.343V144.343H321.098V145.757H321.24C321.339 145.576 321.481 145.365 321.666 145.127C321.852 144.888 322.109 144.68 322.439 144.502C322.768 144.32 323.204 144.229 323.746 144.229C324.45 144.229 325.079 144.407 325.632 144.763C326.185 145.119 326.619 145.632 326.933 146.303C327.251 146.973 327.411 147.78 327.411 148.723C327.411 149.666 327.253 150.475 326.939 151.149C326.625 151.82 326.193 152.337 325.643 152.701C325.094 153.06 324.467 153.24 323.763 153.24C323.232 153.24 322.799 153.151 322.462 152.973C322.128 152.795 321.867 152.587 321.678 152.348C321.488 152.11 321.342 151.897 321.24 151.712H321.138V156.343H319.439ZM321.104 148.706C321.104 149.32 321.193 149.858 321.371 150.32C321.549 150.782 321.806 151.144 322.143 151.405C322.481 151.663 322.893 151.791 323.382 151.791C323.89 151.791 324.314 151.657 324.655 151.388C324.996 151.115 325.253 150.746 325.428 150.28C325.606 149.814 325.695 149.29 325.695 148.706C325.695 148.13 325.607 147.613 325.433 147.155C325.263 146.697 325.005 146.335 324.661 146.07C324.32 145.805 323.893 145.672 323.382 145.672C322.89 145.672 322.473 145.799 322.132 146.053C321.795 146.307 321.539 146.661 321.365 147.115C321.191 147.57 321.104 148.1 321.104 148.706ZM333.075 153.246C332.215 153.246 331.475 153.062 330.854 152.695C330.236 152.324 329.759 151.803 329.422 151.132C329.089 150.458 328.922 149.668 328.922 148.763C328.922 147.869 329.089 147.081 329.422 146.399C329.759 145.718 330.229 145.185 330.831 144.803C331.437 144.42 332.145 144.229 332.956 144.229C333.448 144.229 333.926 144.31 334.388 144.473C334.85 144.636 335.265 144.892 335.632 145.24C336 145.589 336.289 146.041 336.501 146.598C336.714 147.151 336.82 147.824 336.82 148.615V149.218H329.882V147.945H335.155C335.155 147.498 335.064 147.102 334.882 146.757C334.7 146.409 334.445 146.134 334.115 145.933C333.789 145.733 333.407 145.632 332.967 145.632C332.49 145.632 332.073 145.75 331.717 145.985C331.365 146.216 331.092 146.519 330.899 146.894C330.71 147.265 330.615 147.668 330.615 148.104V149.098C330.615 149.682 330.717 150.178 330.922 150.587C331.13 150.996 331.42 151.308 331.791 151.524C332.162 151.736 332.596 151.843 333.092 151.843C333.414 151.843 333.708 151.797 333.973 151.706C334.238 151.611 334.467 151.471 334.661 151.286C334.854 151.1 335.001 150.871 335.104 150.598L336.712 150.888C336.583 151.361 336.352 151.776 336.018 152.132C335.689 152.485 335.274 152.759 334.774 152.956C334.278 153.149 333.712 153.246 333.075 153.246ZM342.381 153.246C341.536 153.246 340.809 153.055 340.199 152.672C339.593 152.286 339.127 151.754 338.801 151.076C338.475 150.397 338.312 149.621 338.312 148.746C338.312 147.86 338.479 147.077 338.812 146.399C339.146 145.718 339.616 145.185 340.222 144.803C340.828 144.42 341.542 144.229 342.364 144.229C343.027 144.229 343.617 144.352 344.136 144.598C344.655 144.841 345.074 145.182 345.392 145.621C345.714 146.06 345.905 146.574 345.966 147.161H344.312C344.222 146.752 344.013 146.399 343.688 146.104C343.366 145.808 342.934 145.661 342.392 145.661C341.919 145.661 341.504 145.786 341.148 146.036C340.795 146.282 340.521 146.634 340.324 147.093C340.127 147.547 340.028 148.085 340.028 148.706C340.028 149.343 340.125 149.892 340.318 150.354C340.511 150.816 340.784 151.174 341.136 151.428C341.492 151.682 341.911 151.808 342.392 151.808C342.714 151.808 343.006 151.75 343.267 151.632C343.532 151.511 343.754 151.339 343.932 151.115C344.114 150.892 344.241 150.623 344.312 150.308H345.966C345.905 150.873 345.722 151.377 345.415 151.82C345.108 152.263 344.697 152.611 344.182 152.865C343.67 153.119 343.07 153.246 342.381 153.246ZM347.783 153.07V144.343H349.482V153.07H347.783ZM348.641 142.996C348.345 142.996 348.091 142.897 347.879 142.701C347.671 142.5 347.567 142.261 347.567 141.985C347.567 141.704 347.671 141.466 347.879 141.269C348.091 141.068 348.345 140.968 348.641 140.968C348.936 140.968 349.188 141.068 349.396 141.269C349.608 141.466 349.714 141.704 349.714 141.985C349.714 142.261 349.608 142.5 349.396 142.701C349.188 142.897 348.936 142.996 348.641 142.996ZM354.307 153.263C353.754 153.263 353.254 153.161 352.807 152.956C352.36 152.748 352.006 152.447 351.744 152.053C351.487 151.659 351.358 151.176 351.358 150.604C351.358 150.111 351.453 149.706 351.642 149.388C351.831 149.07 352.087 148.818 352.409 148.632C352.731 148.447 353.091 148.307 353.489 148.212C353.886 148.117 354.292 148.045 354.705 147.996C355.227 147.935 355.652 147.886 355.977 147.848C356.303 147.807 356.54 147.74 356.688 147.649C356.835 147.558 356.909 147.411 356.909 147.206V147.166C356.909 146.67 356.769 146.286 356.489 146.013C356.212 145.74 355.799 145.604 355.25 145.604C354.678 145.604 354.227 145.731 353.898 145.985C353.572 146.235 353.347 146.513 353.222 146.82L351.625 146.456C351.814 145.926 352.091 145.498 352.455 145.172C352.822 144.843 353.244 144.604 353.722 144.456C354.199 144.305 354.701 144.229 355.227 144.229C355.576 144.229 355.945 144.271 356.335 144.354C356.729 144.433 357.097 144.581 357.438 144.797C357.782 145.013 358.064 145.322 358.284 145.723C358.504 146.121 358.614 146.638 358.614 147.274V153.07H356.955V151.877H356.886C356.777 152.096 356.612 152.312 356.392 152.524C356.172 152.736 355.89 152.913 355.545 153.053C355.201 153.193 354.788 153.263 354.307 153.263ZM354.676 151.899C355.146 151.899 355.547 151.807 355.881 151.621C356.218 151.435 356.473 151.193 356.648 150.894C356.826 150.591 356.915 150.267 356.915 149.922V148.797C356.854 148.858 356.737 148.915 356.562 148.968C356.392 149.017 356.197 149.06 355.977 149.098C355.758 149.132 355.544 149.165 355.335 149.195C355.127 149.221 354.953 149.244 354.812 149.263C354.483 149.305 354.182 149.375 353.909 149.473C353.64 149.572 353.424 149.714 353.261 149.899C353.102 150.081 353.023 150.324 353.023 150.627C353.023 151.047 353.178 151.365 353.489 151.581C353.799 151.793 354.195 151.899 354.676 151.899ZM362.575 141.433V153.07H360.876V141.433H362.575ZM366.56 141.433V153.07H364.861V141.433H366.56ZM369.919 156.343C369.665 156.343 369.434 156.322 369.226 156.28C369.018 156.242 368.862 156.201 368.76 156.155L369.169 154.763C369.48 154.846 369.756 154.882 369.999 154.871C370.241 154.86 370.455 154.769 370.641 154.598C370.83 154.428 370.997 154.149 371.141 153.763L371.351 153.183L368.158 144.343H369.976L372.186 151.115H372.277L374.487 144.343H376.311L372.714 154.235C372.548 154.689 372.336 155.074 372.078 155.388C371.821 155.706 371.514 155.945 371.158 156.104C370.802 156.263 370.389 156.343 369.919 156.343ZM385.818 153.246C384.973 153.246 384.246 153.055 383.636 152.672C383.03 152.286 382.564 151.754 382.239 151.076C381.913 150.397 381.75 149.621 381.75 148.746C381.75 147.86 381.917 147.077 382.25 146.399C382.583 145.718 383.053 145.185 383.659 144.803C384.265 144.42 384.979 144.229 385.801 144.229C386.464 144.229 387.055 144.352 387.574 144.598C388.093 144.841 388.511 145.182 388.83 145.621C389.152 146.06 389.343 146.574 389.403 147.161H387.75C387.659 146.752 387.451 146.399 387.125 146.104C386.803 145.808 386.371 145.661 385.83 145.661C385.356 145.661 384.941 145.786 384.585 146.036C384.233 146.282 383.958 146.634 383.761 147.093C383.564 147.547 383.466 148.085 383.466 148.706C383.466 149.343 383.563 149.892 383.756 150.354C383.949 150.816 384.222 151.174 384.574 151.428C384.93 151.682 385.348 151.808 385.83 151.808C386.152 151.808 386.443 151.75 386.705 151.632C386.97 151.511 387.191 151.339 387.369 151.115C387.551 150.892 387.678 150.623 387.75 150.308H389.403C389.343 150.873 389.159 151.377 388.852 151.82C388.545 152.263 388.134 152.611 387.619 152.865C387.108 153.119 386.508 153.246 385.818 153.246ZM394.896 153.246C394.078 153.246 393.364 153.058 392.754 152.683C392.144 152.308 391.671 151.784 391.334 151.11C390.997 150.435 390.828 149.647 390.828 148.746C390.828 147.841 390.997 147.049 391.334 146.371C391.671 145.693 392.144 145.166 392.754 144.791C393.364 144.416 394.078 144.229 394.896 144.229C395.714 144.229 396.429 144.416 397.038 144.791C397.648 145.166 398.122 145.693 398.459 146.371C398.796 147.049 398.964 147.841 398.964 148.746C398.964 149.647 398.796 150.435 398.459 151.11C398.122 151.784 397.648 152.308 397.038 152.683C396.429 153.058 395.714 153.246 394.896 153.246ZM394.902 151.82C395.432 151.82 395.872 151.68 396.22 151.399C396.569 151.119 396.826 150.746 396.993 150.28C397.163 149.814 397.249 149.301 397.249 148.74C397.249 148.183 397.163 147.672 396.993 147.206C396.826 146.736 396.569 146.36 396.22 146.076C395.872 145.791 395.432 145.649 394.902 145.649C394.368 145.649 393.925 145.791 393.572 146.076C393.224 146.36 392.964 146.736 392.794 147.206C392.627 147.672 392.544 148.183 392.544 148.74C392.544 149.301 392.627 149.814 392.794 150.28C392.964 150.746 393.224 151.119 393.572 151.399C393.925 151.68 394.368 151.82 394.902 151.82ZM402.56 141.433V153.07H400.861V141.433H402.56ZM406.544 141.433V153.07H404.845V141.433H406.544ZM412.591 153.246C411.731 153.246 410.991 153.062 410.369 152.695C409.752 152.324 409.275 151.803 408.938 151.132C408.604 150.458 408.438 149.668 408.438 148.763C408.438 147.869 408.604 147.081 408.938 146.399C409.275 145.718 409.744 145.185 410.347 144.803C410.953 144.42 411.661 144.229 412.472 144.229C412.964 144.229 413.441 144.31 413.903 144.473C414.366 144.636 414.78 144.892 415.148 145.24C415.515 145.589 415.805 146.041 416.017 146.598C416.229 147.151 416.335 147.824 416.335 148.615V149.218H409.398V147.945H414.67C414.67 147.498 414.58 147.102 414.398 146.757C414.216 146.409 413.96 146.134 413.631 145.933C413.305 145.733 412.922 145.632 412.483 145.632C412.006 145.632 411.589 145.75 411.233 145.985C410.881 146.216 410.608 146.519 410.415 146.894C410.225 147.265 410.131 147.668 410.131 148.104V149.098C410.131 149.682 410.233 150.178 410.438 150.587C410.646 150.996 410.936 151.308 411.307 151.524C411.678 151.736 412.112 151.843 412.608 151.843C412.93 151.843 413.223 151.797 413.489 151.706C413.754 151.611 413.983 151.471 414.176 151.286C414.369 151.1 414.517 150.871 414.619 150.598L416.227 150.888C416.098 151.361 415.867 151.776 415.534 152.132C415.205 152.485 414.79 152.759 414.29 152.956C413.794 153.149 413.227 153.246 412.591 153.246ZM421.896 153.246C421.052 153.246 420.324 153.055 419.714 152.672C419.108 152.286 418.643 151.754 418.317 151.076C417.991 150.397 417.828 149.621 417.828 148.746C417.828 147.86 417.995 147.077 418.328 146.399C418.661 145.718 419.131 145.185 419.737 144.803C420.343 144.42 421.057 144.229 421.879 144.229C422.542 144.229 423.133 144.352 423.652 144.598C424.171 144.841 424.589 145.182 424.908 145.621C425.23 146.06 425.421 146.574 425.482 147.161H423.828C423.737 146.752 423.529 146.399 423.203 146.104C422.881 145.808 422.449 145.661 421.908 145.661C421.434 145.661 421.019 145.786 420.663 146.036C420.311 146.282 420.036 146.634 419.839 147.093C419.643 147.547 419.544 148.085 419.544 148.706C419.544 149.343 419.641 149.892 419.834 150.354C420.027 150.816 420.3 151.174 420.652 151.428C421.008 151.682 421.427 151.808 421.908 151.808C422.23 151.808 422.521 151.75 422.783 151.632C423.048 151.511 423.269 151.339 423.447 151.115C423.629 150.892 423.756 150.623 423.828 150.308H425.482C425.421 150.873 425.237 151.377 424.93 151.82C424.624 152.263 424.213 152.611 423.697 152.865C423.186 153.119 422.586 153.246 421.896 153.246ZM431.372 144.343V145.706H426.605V144.343H431.372ZM427.884 142.252H429.582V150.507C429.582 150.837 429.632 151.085 429.73 151.252C429.829 151.415 429.955 151.526 430.111 151.587C430.27 151.644 430.442 151.672 430.628 151.672C430.764 151.672 430.884 151.663 430.986 151.644C431.088 151.625 431.168 151.61 431.224 151.598L431.531 153.002C431.433 153.04 431.293 153.077 431.111 153.115C430.929 153.157 430.702 153.18 430.429 153.183C429.982 153.191 429.565 153.111 429.179 152.945C428.793 152.778 428.48 152.521 428.241 152.172C428.003 151.824 427.884 151.386 427.884 150.86V142.252ZM436.919 153.246C436.059 153.246 435.319 153.062 434.697 152.695C434.08 152.324 433.603 151.803 433.266 151.132C432.932 150.458 432.766 149.668 432.766 148.763C432.766 147.869 432.932 147.081 433.266 146.399C433.603 145.718 434.072 145.185 434.675 144.803C435.281 144.42 435.989 144.229 436.8 144.229C437.292 144.229 437.769 144.31 438.232 144.473C438.694 144.636 439.108 144.892 439.476 145.24C439.843 145.589 440.133 146.041 440.345 146.598C440.557 147.151 440.663 147.824 440.663 148.615V149.218H433.726V147.945H438.999C438.999 147.498 438.908 147.102 438.726 146.757C438.544 146.409 438.288 146.134 437.959 145.933C437.633 145.733 437.25 145.632 436.811 145.632C436.334 145.632 435.917 145.75 435.561 145.985C435.209 146.216 434.936 146.519 434.743 146.894C434.554 147.265 434.459 147.668 434.459 148.104V149.098C434.459 149.682 434.561 150.178 434.766 150.587C434.974 150.996 435.264 151.308 435.635 151.524C436.006 151.736 436.44 151.843 436.936 151.843C437.258 151.843 437.552 151.797 437.817 151.706C438.082 151.611 438.311 151.471 438.504 151.286C438.697 151.1 438.845 150.871 438.947 150.598L440.555 150.888C440.427 151.361 440.196 151.776 439.862 152.132C439.533 152.485 439.118 152.759 438.618 152.956C438.122 153.149 437.555 153.246 436.919 153.246ZM445.815 153.24C445.111 153.24 444.482 153.06 443.929 152.701C443.38 152.337 442.948 151.82 442.634 151.149C442.323 150.475 442.168 149.666 442.168 148.723C442.168 147.78 442.325 146.973 442.639 146.303C442.957 145.632 443.393 145.119 443.946 144.763C444.499 144.407 445.126 144.229 445.827 144.229C446.368 144.229 446.804 144.32 447.134 144.502C447.467 144.68 447.724 144.888 447.906 145.127C448.092 145.365 448.236 145.576 448.338 145.757H448.44V141.433H450.139V153.07H448.48V151.712H448.338C448.236 151.897 448.088 152.11 447.895 152.348C447.705 152.587 447.444 152.795 447.111 152.973C446.777 153.151 446.346 153.24 445.815 153.24ZM446.19 151.791C446.679 151.791 447.092 151.663 447.429 151.405C447.77 151.144 448.027 150.782 448.202 150.32C448.38 149.858 448.469 149.32 448.469 148.706C448.469 148.1 448.382 147.57 448.207 147.115C448.033 146.661 447.777 146.307 447.44 146.053C447.103 145.799 446.687 145.672 446.19 145.672C445.679 145.672 445.253 145.805 444.912 146.07C444.571 146.335 444.313 146.697 444.139 147.155C443.969 147.613 443.884 148.13 443.884 148.706C443.884 149.29 443.971 149.814 444.145 150.28C444.319 150.746 444.577 151.115 444.918 151.388C445.262 151.657 445.687 151.791 446.19 151.791ZM459.338 153.263C458.785 153.263 458.285 153.161 457.838 152.956C457.391 152.748 457.037 152.447 456.776 152.053C456.518 151.659 456.389 151.176 456.389 150.604C456.389 150.111 456.484 149.706 456.673 149.388C456.863 149.07 457.118 148.818 457.44 148.632C457.762 148.447 458.122 148.307 458.52 148.212C458.918 148.117 459.323 148.045 459.736 147.996C460.259 147.935 460.683 147.886 461.009 147.848C461.334 147.807 461.571 147.74 461.719 147.649C461.866 147.558 461.94 147.411 461.94 147.206V147.166C461.94 146.67 461.8 146.286 461.52 146.013C461.243 145.74 460.83 145.604 460.281 145.604C459.709 145.604 459.259 145.731 458.929 145.985C458.603 146.235 458.378 146.513 458.253 146.82L456.656 146.456C456.846 145.926 457.122 145.498 457.486 145.172C457.853 144.843 458.276 144.604 458.753 144.456C459.23 144.305 459.732 144.229 460.259 144.229C460.607 144.229 460.976 144.271 461.366 144.354C461.76 144.433 462.128 144.581 462.469 144.797C462.813 145.013 463.096 145.322 463.315 145.723C463.535 146.121 463.645 146.638 463.645 147.274V153.07H461.986V151.877H461.918C461.808 152.096 461.643 152.312 461.423 152.524C461.204 152.736 460.921 152.913 460.577 153.053C460.232 153.193 459.819 153.263 459.338 153.263ZM459.707 151.899C460.177 151.899 460.579 151.807 460.912 151.621C461.249 151.435 461.505 151.193 461.679 150.894C461.857 150.591 461.946 150.267 461.946 149.922V148.797C461.885 148.858 461.768 148.915 461.594 148.968C461.423 149.017 461.228 149.06 461.009 149.098C460.789 149.132 460.575 149.165 460.366 149.195C460.158 149.221 459.984 149.244 459.844 149.263C459.514 149.305 459.213 149.375 458.94 149.473C458.671 149.572 458.455 149.714 458.293 149.899C458.134 150.081 458.054 150.324 458.054 150.627C458.054 151.047 458.209 151.365 458.52 151.581C458.83 151.793 459.226 151.899 459.707 151.899ZM471.436 149.451V144.343H473.141V153.07H471.47V151.558H471.379C471.179 152.024 470.857 152.413 470.413 152.723C469.974 153.03 469.427 153.183 468.771 153.183C468.211 153.183 467.714 153.06 467.283 152.814C466.855 152.564 466.518 152.195 466.271 151.706C466.029 151.218 465.908 150.613 465.908 149.894V144.343H467.607V149.689C467.607 150.284 467.771 150.757 468.101 151.11C468.43 151.462 468.858 151.638 469.385 151.638C469.703 151.638 470.019 151.558 470.334 151.399C470.652 151.24 470.915 151 471.124 150.678C471.336 150.356 471.44 149.947 471.436 149.451ZM478.69 153.24C477.986 153.24 477.357 153.06 476.804 152.701C476.255 152.337 475.823 151.82 475.509 151.149C475.198 150.475 475.043 149.666 475.043 148.723C475.043 147.78 475.2 146.973 475.514 146.303C475.832 145.632 476.268 145.119 476.821 144.763C477.374 144.407 478.001 144.229 478.702 144.229C479.243 144.229 479.679 144.32 480.009 144.502C480.342 144.68 480.599 144.888 480.781 145.127C480.967 145.365 481.111 145.576 481.213 145.757H481.315V141.433H483.014V153.07H481.355V151.712H481.213C481.111 151.897 480.963 152.11 480.77 152.348C480.58 152.587 480.319 152.795 479.986 152.973C479.652 153.151 479.221 153.24 478.69 153.24ZM479.065 151.791C479.554 151.791 479.967 151.663 480.304 151.405C480.645 151.144 480.902 150.782 481.077 150.32C481.255 149.858 481.344 149.32 481.344 148.706C481.344 148.1 481.257 147.57 481.082 147.115C480.908 146.661 480.652 146.307 480.315 146.053C479.978 145.799 479.562 145.672 479.065 145.672C478.554 145.672 478.128 145.805 477.787 146.07C477.446 146.335 477.188 146.697 477.014 147.155C476.844 147.613 476.759 148.13 476.759 148.706C476.759 149.29 476.846 149.814 477.02 150.28C477.194 150.746 477.452 151.115 477.793 151.388C478.137 151.657 478.562 151.791 479.065 151.791ZM485.439 153.07V144.343H487.138V153.07H485.439ZM486.297 142.996C486.001 142.996 485.748 142.897 485.536 142.701C485.327 142.5 485.223 142.261 485.223 141.985C485.223 141.704 485.327 141.466 485.536 141.269C485.748 141.068 486.001 140.968 486.297 140.968C486.592 140.968 486.844 141.068 487.053 141.269C487.265 141.466 487.371 141.704 487.371 141.985C487.371 142.261 487.265 142.5 487.053 142.701C486.844 142.897 486.592 142.996 486.297 142.996ZM493.099 153.246C492.281 153.246 491.567 153.058 490.957 152.683C490.348 152.308 489.874 151.784 489.537 151.11C489.2 150.435 489.031 149.647 489.031 148.746C489.031 147.841 489.2 147.049 489.537 146.371C489.874 145.693 490.348 145.166 490.957 144.791C491.567 144.416 492.281 144.229 493.099 144.229C493.918 144.229 494.632 144.416 495.241 144.791C495.851 145.166 496.325 145.693 496.662 146.371C496.999 147.049 497.168 147.841 497.168 148.746C497.168 149.647 496.999 150.435 496.662 151.11C496.325 151.784 495.851 152.308 495.241 152.683C494.632 153.058 493.918 153.246 493.099 153.246ZM493.105 151.82C493.635 151.82 494.075 151.68 494.423 151.399C494.772 151.119 495.029 150.746 495.196 150.28C495.366 149.814 495.452 149.301 495.452 148.74C495.452 148.183 495.366 147.672 495.196 147.206C495.029 146.736 494.772 146.36 494.423 146.076C494.075 145.791 493.635 145.649 493.105 145.649C492.571 145.649 492.128 145.791 491.776 146.076C491.427 146.36 491.168 146.736 490.997 147.206C490.83 147.672 490.747 148.183 490.747 148.74C490.747 149.301 490.83 149.814 490.997 150.28C491.168 150.746 491.427 151.119 491.776 151.399C492.128 151.68 492.571 151.82 493.105 151.82Z" fill="white"/>
<path d="M567 174.07L557 168.296L557 179.843L567 174.07ZM257 175.07L558 175.07L558 173.07L257 173.07L257 175.07Z" fill="#A8E2FB"/>
<path d="M1195 175.07L1185 169.296L1185 180.843L1195 175.07ZM867 176.07L1186 176.07L1186 174.07L867 174.07L867 176.07Z" fill="#A8E2FB"/>
</g>
<defs>
<clipPath id="clip0_570_13531">
<rect width="1680" height="345" rx="20" fill="white"/>
</clipPath>
</defs>
</svg>
