<?xml version="1.0" encoding="us-ascii" standalone="no"?><svg xmlns="http://www.w3.org/2000/svg" xmlns:xlink="http://www.w3.org/1999/xlink" contentStyleType="text/css" height="1026px" preserveAspectRatio="none" style="width:540px;height:1026px;" version="1.1" viewBox="0 0 540 1026" width="540px" zoomAndPan="magnify"><defs/><g><rect fill="none" height="1024.813" style="stroke:#0A9EFD;stroke-width:1.0;" width="538" x="0" y="0"/><rect fill="#999999" fill-opacity="0.33333" height="1014.813" style="stroke:#0A9EFD;stroke-width:0.5;" width="90" x="135" y="6"/><text fill="#0A9EFD" font-family="sans-serif" font-size="13" font-weight="bold" lengthAdjust="spacing" textLength="62" x="149" y="18.5684">Your app</text><rect fill="#999999" fill-opacity="0.33333" height="1014.813" style="stroke:#0A9EFD;stroke-width:0.5;" width="80" x="448" y="6"/><text fill="#0A9EFD" font-family="sans-serif" font-size="13" font-weight="bold" lengthAdjust="spacing" textLength="41" x="467.5" y="18.5684">Agora</text><rect fill="#0A9EFD" fill-opacity="0.06667" height="116.7949" style="stroke:#0A9EFD;stroke-width:2.0;" width="524" x="10" y="215.9448"/><rect fill="#0A9EFD" fill-opacity="0.06667" height="190.6411" style="stroke:#0A9EFD;stroke-width:2.0;" width="524" x="10" y="346.7397"/><rect fill="#0A9EFD" fill-opacity="0.06667" height="103.7949" style="stroke:#0A9EFD;stroke-width:2.0;" width="524" x="10" y="551.3809"/><rect fill="#0A9EFD" fill-opacity="0.06667" height="103.7949" style="stroke:#0A9EFD;stroke-width:2.0;" width="524" x="10" y="669.1758"/><rect fill="#0A9EFD" fill-opacity="0.06667" height="74.8462" style="stroke:#0A9EFD;stroke-width:2.0;" width="405" x="129" y="786.9707"/><line style="stroke:#0A9EFD;stroke-width:0.5;stroke-dasharray:5.0,5.0;" x1="38" x2="38" y1="86.0986" y2="936.7144"/><line style="stroke:#0A9EFD;stroke-width:0.5;stroke-dasharray:5.0,5.0;" x1="180" x2="180" y1="86.0986" y2="936.7144"/><line style="stroke:#0A9EFD;stroke-width:0.5;stroke-dasharray:5.0,5.0;" x1="488" x2="488" y1="86.0986" y2="936.7144"/><text fill="#0A9EFD" font-family="Arial" font-size="14" lengthAdjust="spacing" textLength="30" x="20" y="83.1318">User</text><ellipse cx="38" cy="16" fill="none" rx="8" ry="8" style="stroke:#0A9EFD;stroke-width:3.0;"/><path d="M38,24 L38,51 M25,32 L51,32 M38,51 L25,66 M38,51 L51,66 " fill="none" style="stroke:#0A9EFD;stroke-width:3.0;"/><text fill="#0A9EFD" font-family="Arial" font-size="14" lengthAdjust="spacing" textLength="30" x="20" y="948.8462">User</text><ellipse cx="38" cy="962.813" fill="none" rx="8" ry="8" style="stroke:#0A9EFD;stroke-width:3.0;"/><path d="M38,970.813 L38,997.813 M25,978.813 L51,978.813 M38,997.813 L25,1012.813 M38,997.813 L51,1012.813 " fill="none" style="stroke:#0A9EFD;stroke-width:3.0;"/><rect fill="none" height="30.0986" rx="2.5" ry="2.5" style="stroke:#0A9EFD;stroke-width:2.0;" width="82" x="139" y="55"/><text fill="#0A9EFD" font-family="Arial" font-size="14" lengthAdjust="spacing" textLength="68" x="146" y="75.1318">Video SDK</text><rect fill="none" height="30.0986" rx="2.5" ry="2.5" style="stroke:#0A9EFD;stroke-width:2.0;" width="82" x="139" y="935.7144"/><text fill="#0A9EFD" font-family="Arial" font-size="14" lengthAdjust="spacing" textLength="68" x="146" y="955.8462">Video SDK</text><rect fill="none" height="30.0986" rx="2.5" ry="2.5" style="stroke:#0A9EFD;stroke-width:2.0;" width="72" x="452" y="55"/><text fill="#0A9EFD" font-family="Arial" font-size="14" lengthAdjust="spacing" textLength="58" x="459" y="75.1318">SDRTN&#174;</text><rect fill="none" height="30.0986" rx="2.5" ry="2.5" style="stroke:#0A9EFD;stroke-width:2.0;" width="72" x="452" y="935.7144"/><text fill="#0A9EFD" font-family="Arial" font-size="14" lengthAdjust="spacing" textLength="58" x="459" y="955.8462">SDRTN&#174;</text><polygon fill="#0A9EFD" points="168,113.0474,178,117.0474,168,121.0474,172,117.0474" style="stroke:#0A9EFD;stroke-width:1.0;"/><line style="stroke:#0A9EFD;stroke-width:2.0;" x1="38" x2="174" y1="117.0474" y2="117.0474"/><text fill="#0A9EFD" font-family="Arial" font-size="13" lengthAdjust="spacing" textLength="58" x="80" y="112.2925">Open App</text><line style="stroke:#0A9EFD;stroke-width:2.0;" x1="180" x2="222" y1="145.9961" y2="145.9961"/><line style="stroke:#0A9EFD;stroke-width:2.0;" x1="222" x2="222" y1="145.9961" y2="158.9961"/><line style="stroke:#0A9EFD;stroke-width:2.0;" x1="181" x2="222" y1="158.9961" y2="158.9961"/><polygon fill="#0A9EFD" points="191,154.9961,181,158.9961,191,162.9961,187,158.9961" style="stroke:#0A9EFD;stroke-width:1.0;"/><text fill="#0A9EFD" font-family="Arial" font-size="13" lengthAdjust="spacing" textLength="294" x="187" y="141.2412">Create an Agora Engine instance using Video SDK</text><line style="stroke:#0A9EFD;stroke-width:2.0;" x1="180" x2="222" y1="187.9448" y2="187.9448"/><line style="stroke:#0A9EFD;stroke-width:2.0;" x1="222" x2="222" y1="187.9448" y2="200.9448"/><line style="stroke:#0A9EFD;stroke-width:2.0;" x1="181" x2="222" y1="200.9448" y2="200.9448"/><polygon fill="#0A9EFD" points="191,196.9448,181,200.9448,191,204.9448,187,200.9448" style="stroke:#0A9EFD;stroke-width:1.0;"/><text fill="#0A9EFD" font-family="Arial" font-size="13" lengthAdjust="spacing" textLength="231" x="187" y="183.1899">Enable audio and video in Agora Engine</text><path d="M10,215.9448 L79,215.9448 L79,222.8936 L69,232.8936 L10,232.8936 L10,215.9448 " fill="#EEEEEE" style="stroke:#0A9EFD;stroke-width:1.5;"/><rect fill="none" height="116.7949" style="stroke:#0A9EFD;stroke-width:2.0;" width="524" x="10" y="215.9448"/><text fill="#000000" font-family="Arial" font-size="13" lengthAdjust="spacing" textLength="24" x="25" y="229.1387">Join</text><polygon fill="#0A9EFD" points="168,249.8423,178,253.8423,168,257.8423,172,253.8423" style="stroke:#0A9EFD;stroke-width:1.0;"/><line style="stroke:#0A9EFD;stroke-width:2.0;" x1="38" x2="174" y1="253.8423" y2="253.8423"/><text fill="#0A9EFD" font-family="Arial" font-size="13" lengthAdjust="spacing" textLength="84" x="67" y="249.0874">Join a channel</text><line style="stroke:#0A9EFD;stroke-width:2.0;" x1="180" x2="222" y1="282.791" y2="282.791"/><line style="stroke:#0A9EFD;stroke-width:2.0;" x1="222" x2="222" y1="282.791" y2="295.791"/><line style="stroke:#0A9EFD;stroke-width:2.0;" x1="181" x2="222" y1="295.791" y2="295.791"/><polygon fill="#0A9EFD" points="191,291.791,181,295.791,191,299.791,187,295.791" style="stroke:#0A9EFD;stroke-width:1.0;"/><text fill="#0A9EFD" font-family="Arial" font-size="13" lengthAdjust="spacing" textLength="268" x="187" y="278.0361">Retrieve authentication token to join a channel</text><polygon fill="#0A9EFD" points="476,320.7397,486,324.7397,476,328.7397,480,324.7397" style="stroke:#0A9EFD;stroke-width:1.0;"/><line style="stroke:#0A9EFD;stroke-width:2.0;" x1="180" x2="482" y1="324.7397" y2="324.7397"/><text fill="#0A9EFD" font-family="Arial" font-size="13" lengthAdjust="spacing" textLength="95" x="286.5" y="319.9849">Join the channel</text><path d="M10,346.7397 L153,346.7397 L153,353.6885 L143,363.6885 L10,363.6885 L10,346.7397 " fill="#EEEEEE" style="stroke:#0A9EFD;stroke-width:1.5;"/><rect fill="none" height="190.6411" style="stroke:#0A9EFD;stroke-width:2.0;" width="524" x="10" y="346.7397"/><text fill="#000000" font-family="Arial" font-size="13" lengthAdjust="spacing" textLength="98" x="25" y="359.9336">Play audio effect</text><polygon fill="#0A9EFD" points="168,380.6372,178,384.6372,168,388.6372,172,384.6372" style="stroke:#0A9EFD;stroke-width:1.0;"/><line style="stroke:#0A9EFD;stroke-width:2.0;" x1="38" x2="174" y1="384.6372" y2="384.6372"/><text fill="#0A9EFD" font-family="Arial" font-size="13" lengthAdjust="spacing" textLength="116" x="51" y="379.8823">Trigger sound effect</text><polygon fill="#0A9EFD" points="476,409.5859,486,413.5859,476,417.5859,480,413.5859" style="stroke:#0A9EFD;stroke-width:1.0;"/><line style="stroke:#0A9EFD;stroke-width:2.0;" x1="180" x2="482" y1="413.5859" y2="413.5859"/><text fill="#0A9EFD" font-family="Arial" font-size="13" lengthAdjust="spacing" textLength="63" x="302.5" y="408.8311">Play effect</text><polygon fill="#0A9EFD" points="476,438.5347,486,442.5347,476,446.5347,480,442.5347" style="stroke:#0A9EFD;stroke-width:1.0;"/><line style="stroke:#0A9EFD;stroke-width:2.0;" x1="180" x2="482" y1="442.5347" y2="442.5347"/><text fill="#0A9EFD" font-family="Arial" font-size="13" lengthAdjust="spacing" textLength="146" x="261" y="437.7798">Pause and resume effect</text><polygon fill="#0A9EFD" points="476,467.4834,486,471.4834,476,475.4834,480,471.4834" style="stroke:#0A9EFD;stroke-width:1.0;"/><line style="stroke:#0A9EFD;stroke-width:2.0;" x1="180" x2="482" y1="471.4834" y2="471.4834"/><text fill="#0A9EFD" font-family="Arial" font-size="13" lengthAdjust="spacing" textLength="106" x="281" y="466.7285">Set effect position</text><polygon fill="#0A9EFD" points="476,496.4321,486,500.4321,476,504.4321,480,500.4321" style="stroke:#0A9EFD;stroke-width:1.0;"/><line style="stroke:#0A9EFD;stroke-width:2.0;" x1="180" x2="482" y1="500.4321" y2="500.4321"/><text fill="#0A9EFD" font-family="Arial" font-size="13" lengthAdjust="spacing" textLength="103" x="282.5" y="495.6772">Set effect volume</text><polygon fill="#0A9EFD" points="191,525.3809,181,529.3809,191,533.3809,187,529.3809" style="stroke:#0A9EFD;stroke-width:1.0;"/><line style="stroke:#0A9EFD;stroke-width:2.0;" x1="185" x2="487" y1="529.3809" y2="529.3809"/><text fill="#0A9EFD" font-family="Arial" font-size="13" lengthAdjust="spacing" textLength="138" x="265" y="524.626">On audio effect finished</text><path d="M10,551.3809 L130,551.3809 L130,558.3296 L120,568.3296 L10,568.3296 L10,551.3809 " fill="#EEEEEE" style="stroke:#0A9EFD;stroke-width:1.5;"/><rect fill="none" height="103.7949" style="stroke:#0A9EFD;stroke-width:2.0;" width="524" x="10" y="551.3809"/><text fill="#000000" font-family="Arial" font-size="13" lengthAdjust="spacing" textLength="75" x="25" y="564.5747">Audio mixing</text><polygon fill="#0A9EFD" points="168,585.2783,178,589.2783,168,593.2783,172,589.2783" style="stroke:#0A9EFD;stroke-width:1.0;"/><line style="stroke:#0A9EFD;stroke-width:2.0;" x1="38" x2="174" y1="589.2783" y2="589.2783"/><text fill="#0A9EFD" font-family="Arial" font-size="13" lengthAdjust="spacing" textLength="118" x="50" y="584.5234">Control audio mixing</text><polygon fill="#0A9EFD" points="476,614.2271,486,618.2271,476,622.2271,480,618.2271" style="stroke:#0A9EFD;stroke-width:1.0;"/><line style="stroke:#0A9EFD;stroke-width:2.0;" x1="180" x2="482" y1="618.2271" y2="618.2271"/><text fill="#0A9EFD" font-family="Arial" font-size="13" lengthAdjust="spacing" textLength="105" x="281.5" y="613.4722">Start audio mixing</text><polygon fill="#0A9EFD" points="476,643.1758,486,647.1758,476,651.1758,480,647.1758" style="stroke:#0A9EFD;stroke-width:1.0;"/><line style="stroke:#0A9EFD;stroke-width:2.0;" x1="180" x2="482" y1="647.1758" y2="647.1758"/><text fill="#0A9EFD" font-family="Arial" font-size="13" lengthAdjust="spacing" textLength="104" x="282" y="642.4209">Stop audio mixing</text><path d="M10,669.1758 L132,669.1758 L132,676.1245 L122,686.1245 L10,686.1245 L10,669.1758 " fill="#EEEEEE" style="stroke:#0A9EFD;stroke-width:1.5;"/><rect fill="none" height="103.7949" style="stroke:#0A9EFD;stroke-width:2.0;" width="524" x="10" y="669.1758"/><text fill="#000000" font-family="Arial" font-size="13" lengthAdjust="spacing" textLength="77" x="25" y="682.3696">Voice effects</text><polygon fill="#0A9EFD" points="168,703.0732,178,707.0732,168,711.0732,172,707.0732" style="stroke:#0A9EFD;stroke-width:1.0;"/><line style="stroke:#0A9EFD;stroke-width:2.0;" x1="38" x2="174" y1="707.0732" y2="707.0732"/><text fill="#0A9EFD" font-family="Arial" font-size="13" lengthAdjust="spacing" textLength="116" x="51" y="702.3184">Apply a voice effect</text><polygon fill="#0A9EFD" points="476,732.022,486,736.022,476,740.022,480,736.022" style="stroke:#0A9EFD;stroke-width:1.0;"/><line style="stroke:#0A9EFD;stroke-width:2.0;" x1="180" x2="482" y1="736.022" y2="736.022"/><text fill="#0A9EFD" font-family="Arial" font-size="13" lengthAdjust="spacing" textLength="132" x="268" y="731.2671">Set preset voice effect</text><polygon fill="#0A9EFD" points="476,760.9707,486,764.9707,476,768.9707,480,764.9707" style="stroke:#0A9EFD;stroke-width:1.0;"/><line style="stroke:#0A9EFD;stroke-width:2.0;" x1="180" x2="482" y1="764.9707" y2="764.9707"/><text fill="#0A9EFD" font-family="Arial" font-size="13" lengthAdjust="spacing" textLength="137" x="265.5" y="760.2158">Disable the voice effect</text><path d="M129,786.9707 L286,786.9707 L286,793.9194 L276,803.9194 L129,803.9194 L129,786.9707 " fill="#EEEEEE" style="stroke:#0A9EFD;stroke-width:1.5;"/><rect fill="none" height="74.8462" style="stroke:#0A9EFD;stroke-width:2.0;" width="405" x="129" y="786.9707"/><text fill="#000000" font-family="Arial" font-size="13" lengthAdjust="spacing" textLength="112" x="144" y="800.1646">Change audio route</text><polygon fill="#0A9EFD" points="476,820.8682,486,824.8682,476,828.8682,480,824.8682" style="stroke:#0A9EFD;stroke-width:1.0;"/><line style="stroke:#0A9EFD;stroke-width:2.0;" x1="180" x2="482" y1="824.8682" y2="824.8682"/><text fill="#0A9EFD" font-family="Arial" font-size="13" lengthAdjust="spacing" textLength="131" x="268.5" y="820.1133">Set default audio route</text><polygon fill="#0A9EFD" points="476,849.8169,486,853.8169,476,857.8169,480,853.8169" style="stroke:#0A9EFD;stroke-width:1.0;"/><line style="stroke:#0A9EFD;stroke-width:2.0;" x1="180" x2="482" y1="853.8169" y2="853.8169"/><text fill="#0A9EFD" font-family="Arial" font-size="13" lengthAdjust="spacing" textLength="202" x="233" y="849.062">Change the audio route temporarily</text><polygon fill="#0A9EFD" points="168,885.7656,178,889.7656,168,893.7656,172,889.7656" style="stroke:#0A9EFD;stroke-width:1.0;"/><line style="stroke:#0A9EFD;stroke-width:2.0;" x1="38" x2="174" y1="889.7656" y2="889.7656"/><text fill="#0A9EFD" font-family="Arial" font-size="13" lengthAdjust="spacing" textLength="106" x="56" y="885.0107">Leave the channel</text><polygon fill="#0A9EFD" points="476,914.7144,486,918.7144,476,922.7144,480,918.7144" style="stroke:#0A9EFD;stroke-width:1.0;"/><line style="stroke:#0A9EFD;stroke-width:2.0;" x1="180" x2="482" y1="918.7144" y2="918.7144"/><text fill="#0A9EFD" font-family="Arial" font-size="13" lengthAdjust="spacing" textLength="106" x="281" y="913.9595">Leave the channel</text><!--SRC=[VL9DJYin3Dxd56Rsl0CWX5IrB7WWg5f0OeN2Z3irf4wKdmeknI7UoPupf32XbCr8Oty__XmV4RScTGYwjru_XXVYFvGsHYdTHkkXkGle6z01xfOBfPxiApGFDddGpZNAQH-f9QSvGdDF7LfOpYu7-6G-LyWT2AFG9jdX6sSvMznU_tilZ8ilXhZ1yLbMEO4RXmmJvvJyVHQd7dMKiQMJTU6SUs84uX0rjmWf4FVmELF5FMVzP8IREhAYqC5sW56jfLJlRNBmrn9Ny-G2Q6ZNcXbDfRp0w0ctMJkkaIMeZcGPedt1_8Nd0zoB8YkiNHFoDdP3p8r-AmFZQeLjh2QwzTJtw27O96aAOAmzq7-gwnHmM877a3Ru4sQ9iPJ1sK0vpw7-rXeH6Rgdnn_T6wx6XXKnXJLsut2J0R2XLtcoAjVKSlJM58K2gBoZNDDlRUlgxiZrtbAx2nmgMxar8zkME5-8lSXEDeRnC6P6ORYo_A8LQ3J2L5wwtnsYL2BksNIuqid4WvWYaLr648YuSNBAdipRX-4utnNgBOvFhLBSx_u7]--></g></svg>