<?xml version="1.0" encoding="us-ascii" standalone="no"?><svg xmlns="http://www.w3.org/2000/svg" xmlns:xlink="http://www.w3.org/1999/xlink" contentStyleType="text/css" height="937px" preserveAspectRatio="none" style="width:536px;height:937px;" version="1.1" viewBox="0 0 536 937" width="536px" zoomAndPan="magnify"><defs/><g><rect fill="none" height="935.9668" style="stroke:#0A9EFD;stroke-width:1.0;" width="534.5" x="0" y="0"/><rect fill="#999999" fill-opacity="0.33333" height="925.9668" style="stroke:#0A9EFD;stroke-width:0.5;" width="90" x="134.5" y="6"/><text fill="#0A9EFD" font-family="sans-serif" font-size="13" font-weight="bold" lengthAdjust="spacing" textLength="57" x="151" y="19.4951">Your app</text><rect fill="#999999" fill-opacity="0.33333" height="925.9668" style="stroke:#0A9EFD;stroke-width:0.5;" width="74" x="450.5" y="6"/><text fill="#0A9EFD" font-family="sans-serif" font-size="13" font-weight="bold" lengthAdjust="spacing" textLength="38" x="468.5" y="19.4951">Agora</text><rect fill="#0A9EFD" fill-opacity="0.06667" height="116.7949" style="stroke:#0A9EFD;stroke-width:2.0;" width="520.5" x="10" y="215.9448"/><rect fill="#0A9EFD" fill-opacity="0.06667" height="190.6411" style="stroke:#0A9EFD;stroke-width:2.0;" width="520.5" x="10" y="346.7397"/><rect fill="#0A9EFD" fill-opacity="0.06667" height="103.7949" style="stroke:#0A9EFD;stroke-width:2.0;" width="520.5" x="10" y="551.3809"/><rect fill="#0A9EFD" fill-opacity="0.06667" height="103.7949" style="stroke:#0A9EFD;stroke-width:2.0;" width="520.5" x="10" y="669.1758"/><line style="stroke:#0A9EFD;stroke-width:0.5;stroke-dasharray:5.0,5.0;" x1="37" x2="37" y1="86.0986" y2="847.8682"/><line style="stroke:#0A9EFD;stroke-width:0.5;stroke-dasharray:5.0,5.0;" x1="179.5" x2="179.5" y1="86.0986" y2="847.8682"/><line style="stroke:#0A9EFD;stroke-width:0.5;stroke-dasharray:5.0,5.0;" x1="487.5" x2="487.5" y1="86.0986" y2="847.8682"/><text fill="#0A9EFD" font-family="Arial" font-size="14" lengthAdjust="spacing" textLength="29" x="20" y="83.1318">User</text><ellipse cx="37.5" cy="16" fill="none" rx="8" ry="8" style="stroke:#0A9EFD;stroke-width:3.0;"/><path d="M37.5,24 L37.5,51 M24.5,32 L50.5,32 M37.5,51 L24.5,66 M37.5,51 L50.5,66 " fill="none" style="stroke:#0A9EFD;stroke-width:3.0;"/><text fill="#0A9EFD" font-family="Arial" font-size="14" lengthAdjust="spacing" textLength="29" x="20" y="860">User</text><ellipse cx="37.5" cy="873.9668" fill="none" rx="8" ry="8" style="stroke:#0A9EFD;stroke-width:3.0;"/><path d="M37.5,881.9668 L37.5,908.9668 M24.5,889.9668 L50.5,889.9668 M37.5,908.9668 L24.5,923.9668 M37.5,908.9668 L50.5,923.9668 " fill="none" style="stroke:#0A9EFD;stroke-width:3.0;"/><rect fill="none" height="30.0986" rx="2.5" ry="2.5" style="stroke:#0A9EFD;stroke-width:2.0;" width="82" x="138.5" y="55"/><text fill="#0A9EFD" font-family="Arial" font-size="14" lengthAdjust="spacing" textLength="68" x="145.5" y="75.1318">Video SDK</text><rect fill="none" height="30.0986" rx="2.5" ry="2.5" style="stroke:#0A9EFD;stroke-width:2.0;" width="82" x="138.5" y="846.8682"/><text fill="#0A9EFD" font-family="Arial" font-size="14" lengthAdjust="spacing" textLength="68" x="145.5" y="867">Video SDK</text><rect fill="none" height="30.0986" rx="2.5" ry="2.5" style="stroke:#0A9EFD;stroke-width:2.0;" width="66" x="454.5" y="55"/><text fill="#0A9EFD" font-family="Arial" font-size="14" lengthAdjust="spacing" textLength="52" x="461.5" y="75.1318">SD-RTN</text><rect fill="none" height="30.0986" rx="2.5" ry="2.5" style="stroke:#0A9EFD;stroke-width:2.0;" width="66" x="454.5" y="846.8682"/><text fill="#0A9EFD" font-family="Arial" font-size="14" lengthAdjust="spacing" textLength="52" x="461.5" y="867">SD-RTN</text><polygon fill="#0A9EFD" points="167.5,113.0474,177.5,117.0474,167.5,121.0474,171.5,117.0474" style="stroke:#0A9EFD;stroke-width:1.0;"/><line style="stroke:#0A9EFD;stroke-width:2.0;" x1="37.5" x2="173.5" y1="117.0474" y2="117.0474"/><text fill="#0A9EFD" font-family="Arial" font-size="13" lengthAdjust="spacing" textLength="58" x="79.5" y="112.2925">Open App</text><line style="stroke:#0A9EFD;stroke-width:2.0;" x1="179.5" x2="221.5" y1="145.9961" y2="145.9961"/><line style="stroke:#0A9EFD;stroke-width:2.0;" x1="221.5" x2="221.5" y1="145.9961" y2="158.9961"/><line style="stroke:#0A9EFD;stroke-width:2.0;" x1="180.5" x2="221.5" y1="158.9961" y2="158.9961"/><polygon fill="#0A9EFD" points="190.5,154.9961,180.5,158.9961,190.5,162.9961,186.5,158.9961" style="stroke:#0A9EFD;stroke-width:1.0;"/><text fill="#0A9EFD" font-family="Arial" font-size="13" lengthAdjust="spacing" textLength="294" x="186.5" y="141.2412">Create an Agora Engine instance using Video SDK</text><line style="stroke:#0A9EFD;stroke-width:2.0;" x1="179.5" x2="221.5" y1="187.9448" y2="187.9448"/><line style="stroke:#0A9EFD;stroke-width:2.0;" x1="221.5" x2="221.5" y1="187.9448" y2="200.9448"/><line style="stroke:#0A9EFD;stroke-width:2.0;" x1="180.5" x2="221.5" y1="200.9448" y2="200.9448"/><polygon fill="#0A9EFD" points="190.5,196.9448,180.5,200.9448,190.5,204.9448,186.5,200.9448" style="stroke:#0A9EFD;stroke-width:1.0;"/><text fill="#0A9EFD" font-family="Arial" font-size="13" lengthAdjust="spacing" textLength="229" x="186.5" y="183.1899">Enable audio and video in Agora Engine</text><path d="M10,215.9448 L78,215.9448 L78,222.8936 L68,232.8936 L10,232.8936 L10,215.9448 " fill="#EEEEEE" style="stroke:#0A9EFD;stroke-width:1.5;"/><rect fill="none" height="116.7949" style="stroke:#0A9EFD;stroke-width:2.0;" width="520.5" x="10" y="215.9448"/><text fill="#000000" font-family="Arial" font-size="13" lengthAdjust="spacing" textLength="23" x="25" y="229.1387">Join</text><polygon fill="#0A9EFD" points="167.5,249.8423,177.5,253.8423,167.5,257.8423,171.5,253.8423" style="stroke:#0A9EFD;stroke-width:1.0;"/><line style="stroke:#0A9EFD;stroke-width:2.0;" x1="37.5" x2="173.5" y1="253.8423" y2="253.8423"/><text fill="#0A9EFD" font-family="Arial" font-size="13" lengthAdjust="spacing" textLength="83" x="67" y="249.0874">Join a channel</text><line style="stroke:#0A9EFD;stroke-width:2.0;" x1="179.5" x2="221.5" y1="282.791" y2="282.791"/><line style="stroke:#0A9EFD;stroke-width:2.0;" x1="221.5" x2="221.5" y1="282.791" y2="295.791"/><line style="stroke:#0A9EFD;stroke-width:2.0;" x1="180.5" x2="221.5" y1="295.791" y2="295.791"/><polygon fill="#0A9EFD" points="190.5,291.791,180.5,295.791,190.5,299.791,186.5,295.791" style="stroke:#0A9EFD;stroke-width:1.0;"/><text fill="#0A9EFD" font-family="Arial" font-size="13" lengthAdjust="spacing" textLength="266" x="186.5" y="278.0361">Retrieve authentication token to join a channel</text><polygon fill="#0A9EFD" points="475.5,320.7397,485.5,324.7397,475.5,328.7397,479.5,324.7397" style="stroke:#0A9EFD;stroke-width:1.0;"/><line style="stroke:#0A9EFD;stroke-width:2.0;" x1="179.5" x2="481.5" y1="324.7397" y2="324.7397"/><text fill="#0A9EFD" font-family="Arial" font-size="13" lengthAdjust="spacing" textLength="94" x="286.5" y="319.9849">Join the channel</text><path d="M10,346.7397 L151,346.7397 L151,353.6885 L141,363.6885 L10,363.6885 L10,346.7397 " fill="#EEEEEE" style="stroke:#0A9EFD;stroke-width:1.5;"/><rect fill="none" height="190.6411" style="stroke:#0A9EFD;stroke-width:2.0;" width="520.5" x="10" y="346.7397"/><text fill="#000000" font-family="Arial" font-size="13" lengthAdjust="spacing" textLength="96" x="25" y="359.9336">Play audio effect</text><polygon fill="#0A9EFD" points="167.5,380.6372,177.5,384.6372,167.5,388.6372,171.5,384.6372" style="stroke:#0A9EFD;stroke-width:1.0;"/><line style="stroke:#0A9EFD;stroke-width:2.0;" x1="37.5" x2="173.5" y1="384.6372" y2="384.6372"/><text fill="#0A9EFD" font-family="Arial" font-size="13" lengthAdjust="spacing" textLength="113" x="52" y="379.8823">Trigger sound effect</text><polygon fill="#0A9EFD" points="475.5,409.5859,485.5,413.5859,475.5,417.5859,479.5,413.5859" style="stroke:#0A9EFD;stroke-width:1.0;"/><line style="stroke:#0A9EFD;stroke-width:2.0;" x1="179.5" x2="481.5" y1="413.5859" y2="413.5859"/><text fill="#0A9EFD" font-family="Arial" font-size="13" lengthAdjust="spacing" textLength="61" x="303" y="408.8311">Play effect</text><polygon fill="#0A9EFD" points="475.5,438.5347,485.5,442.5347,475.5,446.5347,479.5,442.5347" style="stroke:#0A9EFD;stroke-width:1.0;"/><line style="stroke:#0A9EFD;stroke-width:2.0;" x1="179.5" x2="481.5" y1="442.5347" y2="442.5347"/><text fill="#0A9EFD" font-family="Arial" font-size="13" lengthAdjust="spacing" textLength="144" x="261.5" y="437.7798">Pause and resume effect</text><polygon fill="#0A9EFD" points="475.5,467.4834,485.5,471.4834,475.5,475.4834,479.5,471.4834" style="stroke:#0A9EFD;stroke-width:1.0;"/><line style="stroke:#0A9EFD;stroke-width:2.0;" x1="179.5" x2="481.5" y1="471.4834" y2="471.4834"/><text fill="#0A9EFD" font-family="Arial" font-size="13" lengthAdjust="spacing" textLength="104" x="281.5" y="466.7285">Set effect position</text><polygon fill="#0A9EFD" points="475.5,496.4321,485.5,500.4321,475.5,504.4321,479.5,500.4321" style="stroke:#0A9EFD;stroke-width:1.0;"/><line style="stroke:#0A9EFD;stroke-width:2.0;" x1="179.5" x2="481.5" y1="500.4321" y2="500.4321"/><text fill="#0A9EFD" font-family="Arial" font-size="13" lengthAdjust="spacing" textLength="99" x="284" y="495.6772">Set effect volume</text><polygon fill="#0A9EFD" points="190.5,525.3809,180.5,529.3809,190.5,533.3809,186.5,529.3809" style="stroke:#0A9EFD;stroke-width:1.0;"/><line style="stroke:#0A9EFD;stroke-width:2.0;" x1="184.5" x2="486.5" y1="529.3809" y2="529.3809"/><text fill="#0A9EFD" font-family="Arial" font-size="13" lengthAdjust="spacing" textLength="135" x="266" y="524.626">On audio effect finished</text><path d="M10,551.3809 L130,551.3809 L130,558.3296 L120,568.3296 L10,568.3296 L10,551.3809 " fill="#EEEEEE" style="stroke:#0A9EFD;stroke-width:1.5;"/><rect fill="none" height="103.7949" style="stroke:#0A9EFD;stroke-width:2.0;" width="520.5" x="10" y="551.3809"/><text fill="#000000" font-family="Arial" font-size="13" lengthAdjust="spacing" textLength="75" x="25" y="564.5747">Audio mixing</text><polygon fill="#0A9EFD" points="167.5,585.2783,177.5,589.2783,167.5,593.2783,171.5,589.2783" style="stroke:#0A9EFD;stroke-width:1.0;"/><line style="stroke:#0A9EFD;stroke-width:2.0;" x1="37.5" x2="173.5" y1="589.2783" y2="589.2783"/><text fill="#0A9EFD" font-family="Arial" font-size="13" lengthAdjust="spacing" textLength="118" x="49.5" y="584.5234">Control audio mixing</text><polygon fill="#0A9EFD" points="475.5,614.2271,485.5,618.2271,475.5,622.2271,479.5,618.2271" style="stroke:#0A9EFD;stroke-width:1.0;"/><line style="stroke:#0A9EFD;stroke-width:2.0;" x1="179.5" x2="481.5" y1="618.2271" y2="618.2271"/><text fill="#0A9EFD" font-family="Arial" font-size="13" lengthAdjust="spacing" textLength="105" x="281" y="613.4722">Start audio mixing</text><polygon fill="#0A9EFD" points="475.5,643.1758,485.5,647.1758,475.5,651.1758,479.5,647.1758" style="stroke:#0A9EFD;stroke-width:1.0;"/><line style="stroke:#0A9EFD;stroke-width:2.0;" x1="179.5" x2="481.5" y1="647.1758" y2="647.1758"/><text fill="#0A9EFD" font-family="Arial" font-size="13" lengthAdjust="spacing" textLength="104" x="281.5" y="642.4209">Stop audio mixing</text><path d="M10,669.1758 L130,669.1758 L130,676.1245 L120,686.1245 L10,686.1245 L10,669.1758 " fill="#EEEEEE" style="stroke:#0A9EFD;stroke-width:1.5;"/><rect fill="none" height="103.7949" style="stroke:#0A9EFD;stroke-width:2.0;" width="520.5" x="10" y="669.1758"/><text fill="#000000" font-family="Arial" font-size="13" lengthAdjust="spacing" textLength="75" x="25" y="682.3696">Voice effects</text><polygon fill="#0A9EFD" points="167.5,703.0732,177.5,707.0732,167.5,711.0732,171.5,707.0732" style="stroke:#0A9EFD;stroke-width:1.0;"/><line style="stroke:#0A9EFD;stroke-width:2.0;" x1="37.5" x2="173.5" y1="707.0732" y2="707.0732"/><text fill="#0A9EFD" font-family="Arial" font-size="13" lengthAdjust="spacing" textLength="112" x="52.5" y="702.3184">Apply a voice effect</text><polygon fill="#0A9EFD" points="475.5,732.022,485.5,736.022,475.5,740.022,479.5,736.022" style="stroke:#0A9EFD;stroke-width:1.0;"/><line style="stroke:#0A9EFD;stroke-width:2.0;" x1="179.5" x2="481.5" y1="736.022" y2="736.022"/><text fill="#0A9EFD" font-family="Arial" font-size="13" lengthAdjust="spacing" textLength="128" x="269.5" y="731.2671">Set preset voice effect</text><polygon fill="#0A9EFD" points="475.5,760.9707,485.5,764.9707,475.5,768.9707,479.5,764.9707" style="stroke:#0A9EFD;stroke-width:1.0;"/><line style="stroke:#0A9EFD;stroke-width:2.0;" x1="179.5" x2="481.5" y1="764.9707" y2="764.9707"/><text fill="#0A9EFD" font-family="Arial" font-size="13" lengthAdjust="spacing" textLength="133" x="267" y="760.2158">Disable the voice effect</text><polygon fill="#0A9EFD" points="167.5,796.9194,177.5,800.9194,167.5,804.9194,171.5,800.9194" style="stroke:#0A9EFD;stroke-width:1.0;"/><line style="stroke:#0A9EFD;stroke-width:2.0;" x1="37.5" x2="173.5" y1="800.9194" y2="800.9194"/><text fill="#0A9EFD" font-family="Arial" font-size="13" lengthAdjust="spacing" textLength="104" x="56.5" y="796.1646">Leave the channel</text><polygon fill="#0A9EFD" points="475.5,825.8682,485.5,829.8682,475.5,833.8682,479.5,829.8682" style="stroke:#0A9EFD;stroke-width:1.0;"/><line style="stroke:#0A9EFD;stroke-width:2.0;" x1="179.5" x2="481.5" y1="829.8682" y2="829.8682"/><text fill="#0A9EFD" font-family="Arial" font-size="13" lengthAdjust="spacing" textLength="104" x="281.5" y="825.1133">Leave the channel</text><!--SRC=[VLB9JiCm4BtxAuRSomSWX5HH3Yo2gWKaJiWaqtGWdR6yLF3tZ4CACRHS8iLlcVV6FYAkkzGWs5QyVGvlnCUKDfqnjexYeNe8w2km0HwM2sDUv1sg9qaUh7ELSTP7gibPZb0zKeC2ozbrJv_EvmQv0LKCiccUy4kpd4qMzxU3uF97eCDWSfPDJk3E8SFKEQD_tuVd7ctKr8faMxZWbXY1E4JBDK8An2ryHogq5snVEjMcXaGT6jZsD2gzZ6cz90TNGbpaoGTWeLvRPkmAvmL6JxZDtd6Dh3rj9668yeRv2wy7j9U3hQfs8EHjx4BCE_in1CRL2kjO9BhtrBRe8KZIDWDXxDtBzvtR5B1VWSUGDhYFiyGu78EJGBdF8NmhdPhqwEda2xtZ8ZQiY2ciiHcNc_Q43RthbHMzpeMZbsvm60Z5xAYFwJzON8cEfZuArRl2eHYhRwtJRMkT7yQVoautXl4mPqQXVsNvHWjI7s4yxWRj5iStN_ZyHJy1]--></g></svg>