<?xml version="1.0" encoding="us-ascii" standalone="no"?><svg xmlns="http://www.w3.org/2000/svg" xmlns:xlink="http://www.w3.org/1999/xlink" contentStyleType="text/css" height="1047px" preserveAspectRatio="none" style="width:688px;height:1047px;" version="1.1" viewBox="0 0 688 1047" width="688px" zoomAndPan="magnify"><defs/><g><rect fill="none" height="1045.9595" style="stroke:#0A9EFD;stroke-width:1.0;" width="686.5" x="0" y="0"/><rect fill="#999999" fill-opacity="0.33333" height="1035.9595" style="stroke:#0A9EFD;stroke-width:0.5;" width="316" x="46" y="6"/><text fill="#0A9EFD" font-family="sans-serif" font-size="13" font-weight="bold" lengthAdjust="spacing" textLength="130" x="139" y="19.4951">Implemented by you</text><rect fill="#999999" fill-opacity="0.33333" height="1035.9595" style="stroke:#0A9EFD;stroke-width:0.5;" width="282" x="393.5" y="6"/><text fill="#0A9EFD" font-family="sans-serif" font-size="13" font-weight="bold" lengthAdjust="spacing" textLength="118" x="475.5" y="19.4951">Provided by Agora</text><rect fill="#0A9EFD" fill-opacity="0.06667" height="657.7183" style="stroke:#0A9EFD;stroke-width:2.0;" width="581.5" x="100" y="283.1426"/><rect fill="#0A9EFD" fill-opacity="0.06667" height="103.7949" style="stroke:none;stroke-width:1.0;" width="581.5" x="100" y="386.9375"/><rect fill="#0A9EFD" fill-opacity="0.06667" height="450.1284" style="stroke:none;stroke-width:1.0;" width="581.5" x="100" y="490.7324"/><line style="stroke:#0A9EFD;stroke-width:0.5;stroke-dasharray:5.0,5.0;" x1="22" x2="22" y1="107.4502" y2="957.8608"/><line style="stroke:#0A9EFD;stroke-width:0.5;stroke-dasharray:5.0,5.0;" x1="72" x2="72" y1="107.4502" y2="957.8608"/><line style="stroke:#0A9EFD;stroke-width:0.5;stroke-dasharray:5.0,5.0;" x1="129" x2="129" y1="107.4502" y2="957.8608"/><line style="stroke:#0A9EFD;stroke-width:0.5;stroke-dasharray:5.0,5.0;" x1="292" x2="292" y1="107.4502" y2="957.8608"/><line style="stroke:#0A9EFD;stroke-width:0.5;stroke-dasharray:5.0,5.0;" x1="442.5" x2="442.5" y1="107.4502" y2="957.8608"/><line style="stroke:#0A9EFD;stroke-width:0.5;stroke-dasharray:5.0,5.0;" x1="638.5" x2="638.5" y1="107.4502" y2="957.8608"/><text fill="#0A9EFD" font-family="Arial" font-size="14" lengthAdjust="spacing" textLength="29" x="5" y="104.4834">User</text><ellipse cx="22.5" cy="37.3516" fill="none" rx="8" ry="8" style="stroke:#0A9EFD;stroke-width:3.0;"/><path d="M22.5,45.3516 L22.5,72.3516 M9.5,53.3516 L35.5,53.3516 M22.5,72.3516 L9.5,87.3516 M22.5,72.3516 L35.5,87.3516 " fill="none" style="stroke:#0A9EFD;stroke-width:3.0;"/><text fill="#0A9EFD" font-family="Arial" font-size="14" lengthAdjust="spacing" textLength="29" x="5" y="969.9927">User</text><ellipse cx="22.5" cy="983.9595" fill="none" rx="8" ry="8" style="stroke:#0A9EFD;stroke-width:3.0;"/><path d="M22.5,991.9595 L22.5,1018.9595 M9.5,999.9595 L35.5,999.9595 M22.5,1018.9595 L9.5,1033.9595 M22.5,1018.9595 L35.5,1033.9595 " fill="none" style="stroke:#0A9EFD;stroke-width:3.0;"/><text fill="#0A9EFD" font-family="Arial" font-size="14" lengthAdjust="spacing" textLength="39" x="50" y="104.4834">Admin</text><ellipse cx="72.5" cy="37.3516" fill="none" rx="8" ry="8" style="stroke:#0A9EFD;stroke-width:3.0;"/><path d="M72.5,45.3516 L72.5,72.3516 M59.5,53.3516 L85.5,53.3516 M72.5,72.3516 L59.5,87.3516 M72.5,72.3516 L85.5,87.3516 " fill="none" style="stroke:#0A9EFD;stroke-width:3.0;"/><text fill="#0A9EFD" font-family="Arial" font-size="14" lengthAdjust="spacing" textLength="39" x="50" y="969.9927">Admin</text><ellipse cx="72.5" cy="983.9595" fill="none" rx="8" ry="8" style="stroke:#0A9EFD;stroke-width:3.0;"/><path d="M72.5,991.9595 L72.5,1018.9595 M59.5,999.9595 L85.5,999.9595 M72.5,1018.9595 L59.5,1033.9595 M72.5,1018.9595 L85.5,1033.9595 " fill="none" style="stroke:#0A9EFD;stroke-width:3.0;"/><rect fill="none" height="30.0986" rx="2.5" ry="2.5" style="stroke:#0A9EFD;stroke-width:2.0;" width="39" x="110" y="76.3516"/><text fill="#0A9EFD" font-family="Arial" font-size="14" lengthAdjust="spacing" textLength="25" x="117" y="96.4834">App</text><rect fill="none" height="30.0986" rx="2.5" ry="2.5" style="stroke:#0A9EFD;stroke-width:2.0;" width="39" x="110" y="956.8608"/><text fill="#0A9EFD" font-family="Arial" font-size="14" lengthAdjust="spacing" textLength="25" x="117" y="976.9927">App</text><rect fill="none" height="30.0986" rx="2.5" ry="2.5" style="stroke:#0A9EFD;stroke-width:2.0;" width="131" x="227" y="76.3516"/><text fill="#0A9EFD" font-family="Arial" font-size="14" lengthAdjust="spacing" textLength="117" x="234" y="96.4834">Enterprise Firewall</text><rect fill="none" height="30.0986" rx="2.5" ry="2.5" style="stroke:#0A9EFD;stroke-width:2.0;" width="131" x="227" y="956.8608"/><text fill="#0A9EFD" font-family="Arial" font-size="14" lengthAdjust="spacing" textLength="117" x="234" y="976.9927">Enterprise Firewall</text><rect fill="none" height="30.0986" rx="2.5" ry="2.5" style="stroke:#0A9EFD;stroke-width:2.0;" width="90" x="397.5" y="76.3516"/><text fill="#0A9EFD" font-family="Arial" font-size="14" lengthAdjust="spacing" textLength="76" x="404.5" y="96.4834">Cloud Proxy</text><rect fill="none" height="30.0986" rx="2.5" ry="2.5" style="stroke:#0A9EFD;stroke-width:2.0;" width="90" x="397.5" y="956.8608"/><text fill="#0A9EFD" font-family="Arial" font-size="14" lengthAdjust="spacing" textLength="76" x="404.5" y="976.9927">Cloud Proxy</text><rect fill="none" height="30.0986" rx="2.5" ry="2.5" style="stroke:#0A9EFD;stroke-width:2.0;" width="66" x="605.5" y="76.3516"/><text fill="#0A9EFD" font-family="Arial" font-size="14" lengthAdjust="spacing" textLength="52" x="612.5" y="96.4834">SD-RTN</text><rect fill="none" height="30.0986" rx="2.5" ry="2.5" style="stroke:#0A9EFD;stroke-width:2.0;" width="66" x="605.5" y="956.8608"/><text fill="#0A9EFD" font-family="Arial" font-size="14" lengthAdjust="spacing" textLength="52" x="612.5" y="976.9927">SD-RTN</text><polygon fill="#0A9EFD" points="280.5,149.3477,290.5,153.3477,280.5,157.3477,284.5,153.3477" style="stroke:#0A9EFD;stroke-width:1.0;"/><line style="stroke:#0A9EFD;stroke-width:2.0;" x1="72.5" x2="286.5" y1="153.3477" y2="153.3477"/><text fill="#0A9EFD" font-family="Arial" font-size="13" lengthAdjust="spacing" textLength="189" x="88" y="133.644">Whitelist IP addresses and ports</text><text fill="#0A9EFD" font-family="Arial" font-size="13" lengthAdjust="spacing" textLength="172" x="98.5" y="148.5928">for Cloud Proxy in the firewall.</text><polygon fill="#0A9EFD" points="117.5,178.2964,127.5,182.2964,117.5,186.2964,121.5,182.2964" style="stroke:#0A9EFD;stroke-width:1.0;"/><line style="stroke:#0A9EFD;stroke-width:2.0;" x1="22.5" x2="123.5" y1="182.2964" y2="182.2964"/><text fill="#0A9EFD" font-family="Arial" font-size="13" lengthAdjust="spacing" textLength="78" x="37" y="177.5415">Open the app</text><line style="stroke:#0A9EFD;stroke-width:2.0;" x1="129.5" x2="171.5" y1="226.1938" y2="226.1938"/><line style="stroke:#0A9EFD;stroke-width:2.0;" x1="171.5" x2="171.5" y1="226.1938" y2="239.1938"/><line style="stroke:#0A9EFD;stroke-width:2.0;" x1="130.5" x2="171.5" y1="239.1938" y2="239.1938"/><polygon fill="#0A9EFD" points="140.5,235.1938,130.5,239.1938,140.5,243.1938,136.5,239.1938" style="stroke:#0A9EFD;stroke-width:1.0;"/><text fill="#0A9EFD" font-family="Arial" font-size="13" lengthAdjust="spacing" textLength="144" x="136.5" y="206.4902">Initialize the Agora Video</text><text fill="#0A9EFD" font-family="Arial" font-size="13" lengthAdjust="spacing" textLength="69" x="176" y="221.439">SDK engine</text><polygon fill="#0A9EFD" points="117.5,264.1426,127.5,268.1426,117.5,272.1426,121.5,268.1426" style="stroke:#0A9EFD;stroke-width:1.0;"/><line style="stroke:#0A9EFD;stroke-width:2.0;" x1="22.5" x2="123.5" y1="268.1426" y2="268.1426"/><text fill="#0A9EFD" font-family="Arial" font-size="13" lengthAdjust="spacing" textLength="83" x="34.5" y="263.3877">Join a channel</text><path d="M100,283.1426 L159,283.1426 L159,290.0913 L149,300.0913 L100,300.0913 L100,283.1426 " fill="#EEEEEE" style="stroke:#0A9EFD;stroke-width:1.5;"/><rect fill="none" height="657.7183" style="stroke:#0A9EFD;stroke-width:2.0;" width="581.5" x="100" y="283.1426"/><text fill="#000000" font-family="Arial" font-size="13" lengthAdjust="spacing" textLength="14" x="115" y="296.3364">alt</text><text fill="#0A9EFD" font-family="Arial" font-size="13" font-weight="bold" lengthAdjust="spacing" textLength="153" x="174" y="297.3364">[Join a channel directly]</text><polygon fill="#0A9EFD" points="626.5,317.04,636.5,321.04,626.5,325.04,630.5,321.04" style="stroke:#0A9EFD;stroke-width:1.0;"/><line style="stroke:#0A9EFD;stroke-width:2.0;" x1="129.5" x2="632.5" y1="321.04" y2="321.04"/><text fill="#0A9EFD" font-family="Arial" font-size="13" lengthAdjust="spacing" textLength="85" x="341.5" y="316.2852">Join a Channel</text><polygon fill="#0A9EFD" points="140.5,345.9888,130.5,349.9888,140.5,353.9888,136.5,349.9888" style="stroke:#0A9EFD;stroke-width:1.0;"/><line style="stroke:#0A9EFD;stroke-width:2.0;" x1="134.5" x2="637.5" y1="349.9888" y2="349.9888"/><text fill="#0A9EFD" font-family="Arial" font-size="13" lengthAdjust="spacing" textLength="78" x="345" y="345.2339">Join Success</text><polygon fill="#0A9EFD" points="140.5,374.9375,130.5,378.9375,140.5,382.9375,136.5,378.9375" style="stroke:#0A9EFD;stroke-width:1.0;"/><polygon fill="#0A9EFD" points="626.5,374.9375,636.5,378.9375,626.5,382.9375,630.5,378.9375" style="stroke:#0A9EFD;stroke-width:1.0;"/><line style="stroke:#0A9EFD;stroke-width:2.0;" x1="134.5" x2="632.5" y1="378.9375" y2="378.9375"/><text fill="#0A9EFD" font-family="Arial" font-size="13" lengthAdjust="spacing" textLength="128" x="320" y="374.1826">Send and receive data</text><line style="stroke:#0A9EFD;stroke-width:1.0;stroke-dasharray:2.0,2.0;" x1="100" x2="681.5" y1="387.9375" y2="387.9375"/><text fill="#0A9EFD" font-family="Arial" font-size="13" font-weight="bold" lengthAdjust="spacing" textLength="132" x="105" y="400.1313">[Join Channel failed]</text><polygon fill="#0A9EFD" points="626.5,420.835,636.5,424.835,626.5,428.835,630.5,424.835" style="stroke:#0A9EFD;stroke-width:1.0;"/><line style="stroke:#0A9EFD;stroke-width:2.0;" x1="129.5" x2="632.5" y1="424.835" y2="424.835"/><text fill="#0A9EFD" font-family="Arial" font-size="13" lengthAdjust="spacing" textLength="388" x="190" y="420.0801">Video SDK automatically attempts to connect securely on TLS 443</text><polygon fill="#0A9EFD" points="140.5,449.7837,130.5,453.7837,140.5,457.7837,136.5,453.7837" style="stroke:#0A9EFD;stroke-width:1.0;"/><line style="stroke:#0A9EFD;stroke-width:2.0;" x1="134.5" x2="637.5" y1="453.7837" y2="453.7837"/><text fill="#0A9EFD" font-family="Arial" font-size="13" lengthAdjust="spacing" textLength="78" x="345" y="449.0288">Join Success</text><polygon fill="#0A9EFD" points="140.5,478.7324,130.5,482.7324,140.5,486.7324,136.5,482.7324" style="stroke:#0A9EFD;stroke-width:1.0;"/><polygon fill="#0A9EFD" points="626.5,478.7324,636.5,482.7324,626.5,486.7324,630.5,482.7324" style="stroke:#0A9EFD;stroke-width:1.0;"/><line style="stroke:#0A9EFD;stroke-width:2.0;" x1="134.5" x2="632.5" y1="482.7324" y2="482.7324"/><text fill="#0A9EFD" font-family="Arial" font-size="13" lengthAdjust="spacing" textLength="128" x="320" y="477.9775">Send and receive data</text><line style="stroke:#0A9EFD;stroke-width:1.0;stroke-dasharray:2.0,2.0;" x1="100" x2="681.5" y1="491.7324" y2="491.7324"/><text fill="#0A9EFD" font-family="Arial" font-size="13" font-weight="bold" lengthAdjust="spacing" textLength="377" x="105" y="503.9263">[Connection attempt on TLS 443 failed: Enable cloud proxy]</text><line style="stroke:#0A9EFD;stroke-width:2.0;" x1="129.5" x2="171.5" y1="543.5786" y2="543.5786"/><line style="stroke:#0A9EFD;stroke-width:2.0;" x1="171.5" x2="171.5" y1="543.5786" y2="556.5786"/><line style="stroke:#0A9EFD;stroke-width:2.0;" x1="130.5" x2="171.5" y1="556.5786" y2="556.5786"/><polygon fill="#0A9EFD" points="140.5,552.5786,130.5,556.5786,140.5,560.5786,136.5,556.5786" style="stroke:#0A9EFD;stroke-width:1.0;"/><text fill="#0A9EFD" font-family="Arial" font-size="13" lengthAdjust="spacing" textLength="148" x="137" y="523.875">Call the method to enable</text><text fill="#0A9EFD" font-family="Arial" font-size="13" lengthAdjust="spacing" textLength="149" x="136.5" y="538.8237">a Cloud Proxy connection</text><polygon fill="#0A9EFD" points="280.5,596.4761,290.5,600.4761,280.5,604.4761,284.5,600.4761" style="stroke:#0A9EFD;stroke-width:1.0;"/><line style="stroke:#0A9EFD;stroke-width:2.0;" x1="129.5" x2="286.5" y1="600.4761" y2="600.4761"/><text fill="#0A9EFD" font-family="Arial" font-size="13" lengthAdjust="spacing" textLength="109" x="154.5" y="580.7725">Request access to</text><text fill="#0A9EFD" font-family="Arial" font-size="13" lengthAdjust="spacing" textLength="71" x="177.5" y="595.7212">Cloud Proxy</text><line style="stroke:#0A9EFD;stroke-width:2.0;" x1="292.5" x2="334.5" y1="644.3735" y2="644.3735"/><line style="stroke:#0A9EFD;stroke-width:2.0;" x1="334.5" x2="334.5" y1="644.3735" y2="657.3735"/><line style="stroke:#0A9EFD;stroke-width:2.0;" x1="293.5" x2="334.5" y1="657.3735" y2="657.3735"/><polygon fill="#0A9EFD" points="303.5,653.3735,293.5,657.3735,303.5,661.3735,299.5,657.3735" style="stroke:#0A9EFD;stroke-width:1.0;"/><text fill="#0A9EFD" font-family="Arial" font-size="13" lengthAdjust="spacing" textLength="136" x="299.5" y="624.6699">Check whitelist to grant</text><text fill="#0A9EFD" font-family="Arial" font-size="13" lengthAdjust="spacing" textLength="42" x="348.5" y="639.6187">access</text><polygon fill="#0A9EFD" points="430.5,697.271,440.5,701.271,430.5,705.271,434.5,701.271" style="stroke:#0A9EFD;stroke-width:1.0;"/><line style="stroke:#0A9EFD;stroke-width:2.0;" x1="292.5" x2="436.5" y1="701.271" y2="701.271"/><text fill="#0A9EFD" font-family="Arial" font-size="13" lengthAdjust="spacing" textLength="109" x="311" y="681.5674">Request access to</text><text fill="#0A9EFD" font-family="Arial" font-size="13" lengthAdjust="spacing" textLength="71" x="334" y="696.5161">Cloud Proxy</text><polygon fill="#0A9EFD" points="140.5,726.2197,130.5,730.2197,140.5,734.2197,136.5,730.2197" style="stroke:#0A9EFD;stroke-width:1.0;"/><line style="stroke:#0A9EFD;stroke-width:2.0;" x1="134.5" x2="441.5" y1="730.2197" y2="730.2197"/><text fill="#0A9EFD" font-family="Arial" font-size="13" lengthAdjust="spacing" textLength="101" x="235.5" y="725.4648">Proxy information</text><polygon fill="#0A9EFD" points="430.5,755.1685,440.5,759.1685,430.5,763.1685,434.5,759.1685" style="stroke:#0A9EFD;stroke-width:1.0;"/><line style="stroke:#0A9EFD;stroke-width:2.0;" x1="129.5" x2="436.5" y1="759.1685" y2="759.1685"/><text fill="#0A9EFD" font-family="Arial" font-size="13" lengthAdjust="spacing" textLength="83" x="244.5" y="754.4136">Join a channel</text><polygon fill="#0A9EFD" points="626.5,784.1172,636.5,788.1172,626.5,792.1172,630.5,788.1172" style="stroke:#0A9EFD;stroke-width:1.0;"/><line style="stroke:#0A9EFD;stroke-width:2.0;" x1="442.5" x2="632.5" y1="788.1172" y2="788.1172"/><text fill="#0A9EFD" font-family="Arial" font-size="13" lengthAdjust="spacing" textLength="147" x="467" y="783.3623">Request to join a channel</text><polygon fill="#0A9EFD" points="453.5,813.0659,443.5,817.0659,453.5,821.0659,449.5,817.0659" style="stroke:#0A9EFD;stroke-width:1.0;"/><line style="stroke:#0A9EFD;stroke-width:2.0;" x1="447.5" x2="637.5" y1="817.0659" y2="817.0659"/><text fill="#0A9EFD" font-family="Arial" font-size="13" lengthAdjust="spacing" textLength="76" x="502.5" y="812.311">Join success</text><polygon fill="#0A9EFD" points="140.5,842.0146,130.5,846.0146,140.5,850.0146,136.5,846.0146" style="stroke:#0A9EFD;stroke-width:1.0;"/><line style="stroke:#0A9EFD;stroke-width:2.0;" x1="134.5" x2="441.5" y1="846.0146" y2="846.0146"/><text fill="#0A9EFD" font-family="Arial" font-size="13" lengthAdjust="spacing" textLength="76" x="248" y="841.2598">Join success</text><polygon fill="#0A9EFD" points="430.5,870.9634,440.5,874.9634,430.5,878.9634,434.5,874.9634" style="stroke:#0A9EFD;stroke-width:1.0;"/><line style="stroke:#0A9EFD;stroke-width:2.0;" x1="129.5" x2="436.5" y1="874.9634" y2="874.9634"/><text fill="#0A9EFD" font-family="Arial" font-size="13" lengthAdjust="spacing" textLength="103" x="234.5" y="870.2085">Send data stream</text><polygon fill="#0A9EFD" points="453.5,899.9121,443.5,903.9121,453.5,907.9121,449.5,903.9121" style="stroke:#0A9EFD;stroke-width:1.0;"/><polygon fill="#0A9EFD" points="626.5,899.9121,636.5,903.9121,626.5,907.9121,630.5,903.9121" style="stroke:#0A9EFD;stroke-width:1.0;"/><line style="stroke:#0A9EFD;stroke-width:2.0;" x1="447.5" x2="632.5" y1="903.9121" y2="903.9121"/><text fill="#0A9EFD" font-family="Arial" font-size="13" lengthAdjust="spacing" textLength="172" x="454.5" y="899.1572">Send and receive data stream</text><polygon fill="#0A9EFD" points="140.5,928.8608,130.5,932.8608,140.5,936.8608,136.5,932.8608" style="stroke:#0A9EFD;stroke-width:1.0;"/><line style="stroke:#0A9EFD;stroke-width:2.0;" x1="134.5" x2="441.5" y1="932.8608" y2="932.8608"/><text fill="#0A9EFD" font-family="Arial" font-size="13" lengthAdjust="spacing" textLength="118" x="227" y="928.106">Receive data stream</text><!--SRC=[hLFVRzem47xtNt7ZlNrPdz0q2K4hPMCjIjfrbIfDXtE0LyVsRAU5_VMxc10IcAOzZCVSVR_y7U-KaRek2N1jFNuFByfSghhIGg2CriFe8P0V0GPuA78XbdOBewnocYeoaKfOxc1dwz5XUr9MogJroUnBTYiS-gYaScWY3vtRZnQBuU2QgRppAX3SA4zlg7LQlCdowyV9V2x8i9BTjleBRrzLkHUVDBP7GxgfjdK9lBNT9Pf5VlVjQRXIp2xo-zlMJNRaJwxXucCdFOR7ZOgaLOYGBG3BqbC8500PugoFuTd0YgFtH44PY1k2LPlbKWX-l8QLau_Xpj5-Ziu9_j8DCgEYGgr-KHgdQF2LarhMA6QVWSnQ6HgoVRAiXY0tQ0mrjUbuyWrAzY6ZtWdWNoUOTTXfYzsFio5rKKl9YJliXmEuQ1wjUGKc9_LAK694GPfBJC2M5LQeD9LdsYbNIeLrj1LoD_nKEy0OgN8nGBGWBJF8285axOc7ri3zl82hg_V_p-nqBwAOkzNkoRJknt1jSAa9P6hPDIqF4x63AVjFnLKKDxPi0b12FHiSd8Vi5FiSnulBwMTDV6-OmZGyt7-F8A4Ewpqai8SDoHTuwqwMiMlF5yy4U7oQ3i3WzEVuHysqs-Kzt3fVVrCVFre_JijxSfudBDbHc1L_dE-s3VV9Gg_ZeQ6pyT1Ake6cTmZH4rOzXh_VoVd-GJ7_mnOpYDy0]--></g></svg>