<?xml version="1.0" encoding="UTF-8" standalone="no"?><svg xmlns="http://www.w3.org/2000/svg" xmlns:xlink="http://www.w3.org/1999/xlink" contentStyleType="text/css" height="1136px" preserveAspectRatio="none" style="width:808px;height:1136px;" version="1.1" viewBox="0 0 808 1136" width="808px" zoomAndPan="magnify"><defs/><g><rect fill="none" height="1134.0703" style="stroke:#0A9EFD;stroke-width:1.0;" width="806.5" x="0" y="0"/><rect fill="#F3F3F3" height="1124.0703" style="stroke:#0A9EFD;stroke-width:0.5;" width="372" x="50" y="6"/><text fill="#000000" font-family="sans-serif" font-size="13" font-weight="bold" lengthAdjust="spacing" textLength="130" x="171" y="19.4951">Implemented by you</text><rect fill="#F3F3F3" height="1124.0703" style="stroke:#0A9EFD;stroke-width:0.5;" width="324" x="471.5" y="6"/><text fill="#000000" font-family="sans-serif" font-size="13" font-weight="bold" lengthAdjust="spacing" textLength="118" x="574.5" y="19.4951">Provided by Agora</text><rect fill="#FFFFFF" height="726.8438" style="stroke:#0A9EFD;stroke-width:2.0;" width="681.5" x="120" y="300.6172"/><rect fill="#FFFFFF" height="114.4375" style="stroke:none;stroke-width:1.0;" width="681.5" x="120" y="417.6641"/><rect fill="#FFFFFF" height="495.3594" style="stroke:none;stroke-width:1.0;" width="681.5" x="120" y="532.1016"/><line style="stroke:#0A9EFD;stroke-width:0.5;stroke-dasharray:5.0,5.0;" x1="24" x2="24" y1="108.9609" y2="1044.4609"/><line style="stroke:#0A9EFD;stroke-width:0.5;stroke-dasharray:5.0,5.0;" x1="78" x2="78" y1="108.9609" y2="1044.4609"/><line style="stroke:#0A9EFD;stroke-width:0.5;stroke-dasharray:5.0,5.0;" x1="150" x2="150" y1="108.9609" y2="1044.4609"/><line style="stroke:#0A9EFD;stroke-width:0.5;stroke-dasharray:5.0,5.0;" x1="344" x2="344" y1="108.9609" y2="1044.4609"/><line style="stroke:#0A9EFD;stroke-width:0.5;stroke-dasharray:5.0,5.0;" x1="524.5" x2="524.5" y1="108.9609" y2="1044.4609"/><line style="stroke:#0A9EFD;stroke-width:0.5;stroke-dasharray:5.0,5.0;" x1="758.5" x2="758.5" y1="108.9609" y2="1044.4609"/><text fill="#0A9EFD" font-family="Roboto" font-size="14" font-weight="bold" lengthAdjust="spacing" textLength="33" x="5" y="105.8848">User</text><ellipse cx="24.5" cy="37.3516" fill="none" rx="8" ry="8" style="stroke:#0A9EFD;stroke-width:3.0;"/><path d="M24.5,45.3516 L24.5,72.3516 M11.5,53.3516 L37.5,53.3516 M24.5,72.3516 L11.5,87.3516 M24.5,72.3516 L37.5,87.3516 " fill="none" style="stroke:#0A9EFD;stroke-width:3.0;"/><text fill="#0A9EFD" font-family="Roboto" font-size="14" font-weight="bold" lengthAdjust="spacing" textLength="33" x="5" y="1057.9941">User</text><ellipse cx="24.5" cy="1072.0703" fill="none" rx="8" ry="8" style="stroke:#0A9EFD;stroke-width:3.0;"/><path d="M24.5,1080.0703 L24.5,1107.0703 M11.5,1088.0703 L37.5,1088.0703 M24.5,1107.0703 L11.5,1122.0703 M24.5,1107.0703 L37.5,1122.0703 " fill="none" style="stroke:#0A9EFD;stroke-width:3.0;"/><text fill="#0A9EFD" font-family="Roboto" font-size="14" font-weight="bold" lengthAdjust="spacing" textLength="43" x="54" y="105.8848">Admin</text><ellipse cx="78.5" cy="37.3516" fill="none" rx="8" ry="8" style="stroke:#0A9EFD;stroke-width:3.0;"/><path d="M78.5,45.3516 L78.5,72.3516 M65.5,53.3516 L91.5,53.3516 M78.5,72.3516 L65.5,87.3516 M78.5,72.3516 L91.5,87.3516 " fill="none" style="stroke:#0A9EFD;stroke-width:3.0;"/><text fill="#0A9EFD" font-family="Roboto" font-size="14" font-weight="bold" lengthAdjust="spacing" textLength="43" x="54" y="1057.9941">Admin</text><ellipse cx="78.5" cy="1072.0703" fill="none" rx="8" ry="8" style="stroke:#0A9EFD;stroke-width:3.0;"/><path d="M78.5,1080.0703 L78.5,1107.0703 M65.5,1088.0703 L91.5,1088.0703 M78.5,1107.0703 L65.5,1122.0703 M78.5,1107.0703 L91.5,1122.0703 " fill="none" style="stroke:#0A9EFD;stroke-width:3.0;"/><rect fill="#FFFFFF" height="31.6094" rx="2.5" ry="2.5" style="stroke:#0A9EFD;stroke-width:2.0;" width="41" x="130" y="76.3516"/><text fill="#0A9EFD" font-family="Roboto" font-size="14" font-weight="bold" lengthAdjust="spacing" textLength="27" x="137" y="97.8848">App</text><rect fill="#FFFFFF" height="31.6094" rx="2.5" ry="2.5" style="stroke:#0A9EFD;stroke-width:2.0;" width="41" x="130" y="1043.4609"/><text fill="#0A9EFD" font-family="Roboto" font-size="14" font-weight="bold" lengthAdjust="spacing" textLength="27" x="137" y="1064.9941">App</text><rect fill="#FFFFFF" height="31.6094" rx="2.5" ry="2.5" style="stroke:#0A9EFD;stroke-width:2.0;" width="147" x="271" y="76.3516"/><text fill="#0A9EFD" font-family="Roboto" font-size="14" font-weight="bold" lengthAdjust="spacing" textLength="133" x="278" y="97.8848">Enterprise Firewall</text><rect fill="#FFFFFF" height="31.6094" rx="2.5" ry="2.5" style="stroke:#0A9EFD;stroke-width:2.0;" width="147" x="271" y="1043.4609"/><text fill="#0A9EFD" font-family="Roboto" font-size="14" font-weight="bold" lengthAdjust="spacing" textLength="133" x="278" y="1064.9941">Enterprise Firewall</text><rect fill="#FFFFFF" height="31.6094" rx="2.5" ry="2.5" style="stroke:#0A9EFD;stroke-width:2.0;" width="98" x="475.5" y="76.3516"/><text fill="#0A9EFD" font-family="Roboto" font-size="14" font-weight="bold" lengthAdjust="spacing" textLength="84" x="482.5" y="97.8848">Cloud Proxy</text><rect fill="#FFFFFF" height="31.6094" rx="2.5" ry="2.5" style="stroke:#0A9EFD;stroke-width:2.0;" width="98" x="475.5" y="1043.4609"/><text fill="#0A9EFD" font-family="Roboto" font-size="14" font-weight="bold" lengthAdjust="spacing" textLength="84" x="482.5" y="1064.9941">Cloud Proxy</text><rect fill="#FFFFFF" height="31.6094" rx="2.5" ry="2.5" style="stroke:#0A9EFD;stroke-width:2.0;" width="66" x="725.5" y="76.3516"/><text fill="#0A9EFD" font-family="Roboto" font-size="14" font-weight="bold" lengthAdjust="spacing" textLength="52" x="732.5" y="97.8848">SD-RTN</text><rect fill="#FFFFFF" height="31.6094" rx="2.5" ry="2.5" style="stroke:#0A9EFD;stroke-width:2.0;" width="66" x="725.5" y="1043.4609"/><text fill="#0A9EFD" font-family="Roboto" font-size="14" font-weight="bold" lengthAdjust="spacing" textLength="52" x="732.5" y="1064.9941">SD-RTN</text><polygon fill="#0A9EFD" points="332.5,156.1797,342.5,160.1797,332.5,164.1797,336.5,160.1797" style="stroke:#0A9EFD;stroke-width:1.0;"/><line style="stroke:#0A9EFD;stroke-width:2.0;" x1="78.5" x2="338.5" y1="160.1797" y2="160.1797"/><text fill="#0A9EFD" font-family="Roboto" font-size="14" font-weight="bold" lengthAdjust="spacing" textLength="227" x="98" y="137.4941">Whitelist IP addresses and ports</text><text fill="#0A9EFD" font-family="Roboto" font-size="14" font-weight="bold" lengthAdjust="spacing" textLength="211" x="108" y="155.1035">for Cloud Proxy in the firewall.</text><polygon fill="#0A9EFD" points="138.5,187.7891,148.5,191.7891,138.5,195.7891,142.5,191.7891" style="stroke:#0A9EFD;stroke-width:1.0;"/><line style="stroke:#0A9EFD;stroke-width:2.0;" x1="24.5" x2="144.5" y1="191.7891" y2="191.7891"/><text fill="#0A9EFD" font-family="Roboto" font-size="14" font-weight="bold" lengthAdjust="spacing" textLength="95" x="40" y="186.7129">Open the app</text><line style="stroke:#0A9EFD;stroke-width:2.0;" x1="150.5" x2="192.5" y1="241.0078" y2="241.0078"/><line style="stroke:#0A9EFD;stroke-width:2.0;" x1="192.5" x2="192.5" y1="241.0078" y2="254.0078"/><line style="stroke:#0A9EFD;stroke-width:2.0;" x1="151.5" x2="192.5" y1="254.0078" y2="254.0078"/><polygon fill="#0A9EFD" points="161.5,250.0078,151.5,254.0078,161.5,258.0078,157.5,254.0078" style="stroke:#0A9EFD;stroke-width:1.0;"/><text fill="#0A9EFD" font-family="Roboto" font-size="14" font-weight="bold" lengthAdjust="spacing" textLength="174" x="157.5" y="218.3223">Initialize the Agora Video</text><text fill="#0A9EFD" font-family="Roboto" font-size="14" font-weight="bold" lengthAdjust="spacing" textLength="82" x="205.5" y="235.9316">SDK engine</text><polygon fill="#0A9EFD" points="138.5,281.6172,148.5,285.6172,138.5,289.6172,142.5,285.6172" style="stroke:#0A9EFD;stroke-width:1.0;"/><line style="stroke:#0A9EFD;stroke-width:2.0;" x1="24.5" x2="144.5" y1="285.6172" y2="285.6172"/><text fill="#0A9EFD" font-family="Roboto" font-size="14" font-weight="bold" lengthAdjust="spacing" textLength="102" x="36.5" y="280.541">Join a channel</text><path d="M120,300.6172 L182,300.6172 L182,310.2266 L172,320.2266 L120,320.2266 L120,300.6172 " fill="#EEEEEE" style="stroke:#0A9EFD;stroke-width:1.5;"/><rect fill="none" height="726.8438" style="stroke:#0A9EFD;stroke-width:2.0;" width="681.5" x="120" y="300.6172"/><text fill="#0A9EFD" font-family="Roboto" font-size="14" font-weight="bold" lengthAdjust="spacing" textLength="17" x="135" y="316.1504">alt</text><text fill="#0A9EFD" font-family="Roboto" font-size="14" font-weight="bold" lengthAdjust="spacing" textLength="168" x="197" y="317.1504">[Join a channel directly]</text><polygon fill="#0A9EFD" points="746.5,342.4453,756.5,346.4453,746.5,350.4453,750.5,346.4453" style="stroke:#0A9EFD;stroke-width:1.0;"/><line style="stroke:#0A9EFD;stroke-width:2.0;" x1="150.5" x2="752.5" y1="346.4453" y2="346.4453"/><text fill="#0A9EFD" font-family="Roboto" font-size="14" font-weight="bold" lengthAdjust="spacing" textLength="104" x="402.5" y="341.3691">Join a Channel</text><polygon fill="#0A9EFD" points="161.5,374.0547,151.5,378.0547,161.5,382.0547,157.5,378.0547" style="stroke:#0A9EFD;stroke-width:1.0;"/><line style="stroke:#0A9EFD;stroke-width:2.0;" x1="155.5" x2="757.5" y1="378.0547" y2="378.0547"/><text fill="#0A9EFD" font-family="Roboto" font-size="14" font-weight="bold" lengthAdjust="spacing" textLength="93" x="408" y="372.9785">Join Success</text><polygon fill="#0A9EFD" points="161.5,405.6641,151.5,409.6641,161.5,413.6641,157.5,409.6641" style="stroke:#0A9EFD;stroke-width:1.0;"/><polygon fill="#0A9EFD" points="746.5,405.6641,756.5,409.6641,746.5,413.6641,750.5,409.6641" style="stroke:#0A9EFD;stroke-width:1.0;"/><line style="stroke:#0A9EFD;stroke-width:2.0;" x1="155.5" x2="752.5" y1="409.6641" y2="409.6641"/><text fill="#0A9EFD" font-family="Roboto" font-size="14" font-weight="bold" lengthAdjust="spacing" textLength="158" x="375.5" y="404.5879">Send and receive data</text><line style="stroke:#0A9EFD;stroke-width:1.0;stroke-dasharray:2.0,2.0;" x1="120" x2="801.5" y1="418.6641" y2="418.6641"/><text fill="#0A9EFD" font-family="Roboto" font-size="14" font-weight="bold" lengthAdjust="spacing" textLength="145" x="125" y="433.1973">[Join Channel failed]</text><polygon fill="#0A9EFD" points="746.5,456.8828,756.5,460.8828,746.5,464.8828,750.5,460.8828" style="stroke:#0A9EFD;stroke-width:1.0;"/><line style="stroke:#0A9EFD;stroke-width:2.0;" x1="150.5" x2="752.5" y1="460.8828" y2="460.8828"/><text fill="#0A9EFD" font-family="Roboto" font-size="14" font-weight="bold" lengthAdjust="spacing" textLength="455" x="227" y="455.8066">Video SDK automatically attempts to connect securely on TLS 443</text><polygon fill="#0A9EFD" points="161.5,488.4922,151.5,492.4922,161.5,496.4922,157.5,492.4922" style="stroke:#0A9EFD;stroke-width:1.0;"/><line style="stroke:#0A9EFD;stroke-width:2.0;" x1="155.5" x2="757.5" y1="492.4922" y2="492.4922"/><text fill="#0A9EFD" font-family="Roboto" font-size="14" font-weight="bold" lengthAdjust="spacing" textLength="93" x="408" y="487.416">Join Success</text><polygon fill="#0A9EFD" points="161.5,520.1016,151.5,524.1016,161.5,528.1016,157.5,524.1016" style="stroke:#0A9EFD;stroke-width:1.0;"/><polygon fill="#0A9EFD" points="746.5,520.1016,756.5,524.1016,746.5,528.1016,750.5,524.1016" style="stroke:#0A9EFD;stroke-width:1.0;"/><line style="stroke:#0A9EFD;stroke-width:2.0;" x1="155.5" x2="752.5" y1="524.1016" y2="524.1016"/><text fill="#0A9EFD" font-family="Roboto" font-size="14" font-weight="bold" lengthAdjust="spacing" textLength="158" x="375.5" y="519.0254">Send and receive data</text><line style="stroke:#0A9EFD;stroke-width:1.0;stroke-dasharray:2.0,2.0;" x1="120" x2="801.5" y1="533.1016" y2="533.1016"/><text fill="#0A9EFD" font-family="Roboto" font-size="14" font-weight="bold" lengthAdjust="spacing" textLength="412" x="125" y="547.6348">[Connection attempt on TLS 443 failed: Enable cloud proxy]</text><line style="stroke:#0A9EFD;stroke-width:2.0;" x1="150.5" x2="192.5" y1="592.9297" y2="592.9297"/><line style="stroke:#0A9EFD;stroke-width:2.0;" x1="192.5" x2="192.5" y1="592.9297" y2="605.9297"/><line style="stroke:#0A9EFD;stroke-width:2.0;" x1="151.5" x2="192.5" y1="605.9297" y2="605.9297"/><polygon fill="#0A9EFD" points="161.5,601.9297,151.5,605.9297,161.5,609.9297,157.5,605.9297" style="stroke:#0A9EFD;stroke-width:1.0;"/><text fill="#0A9EFD" font-family="Roboto" font-size="14" font-weight="bold" lengthAdjust="spacing" textLength="180" x="157.5" y="570.2441">Call the method to enable</text><text fill="#0A9EFD" font-family="Roboto" font-size="14" font-weight="bold" lengthAdjust="spacing" textLength="179" x="158" y="587.8535">a Cloud Proxy connection</text><polygon fill="#0A9EFD" points="332.5,651.1484,342.5,655.1484,332.5,659.1484,336.5,655.1484" style="stroke:#0A9EFD;stroke-width:1.0;"/><line style="stroke:#0A9EFD;stroke-width:2.0;" x1="150.5" x2="338.5" y1="655.1484" y2="655.1484"/><text fill="#0A9EFD" font-family="Roboto" font-size="14" font-weight="bold" lengthAdjust="spacing" textLength="130" x="180.5" y="632.4629">Request access to</text><text fill="#0A9EFD" font-family="Roboto" font-size="14" font-weight="bold" lengthAdjust="spacing" textLength="84" x="207.5" y="650.0723">Cloud Proxy</text><line style="stroke:#0A9EFD;stroke-width:2.0;" x1="344.5" x2="386.5" y1="704.3672" y2="704.3672"/><line style="stroke:#0A9EFD;stroke-width:2.0;" x1="386.5" x2="386.5" y1="704.3672" y2="717.3672"/><line style="stroke:#0A9EFD;stroke-width:2.0;" x1="345.5" x2="386.5" y1="717.3672" y2="717.3672"/><polygon fill="#0A9EFD" points="355.5,713.3672,345.5,717.3672,355.5,721.3672,351.5,717.3672" style="stroke:#0A9EFD;stroke-width:1.0;"/><text fill="#0A9EFD" font-family="Roboto" font-size="14" font-weight="bold" lengthAdjust="spacing" textLength="166" x="351.5" y="681.6816">Check whitelist to grant</text><text fill="#0A9EFD" font-family="Roboto" font-size="14" font-weight="bold" lengthAdjust="spacing" textLength="49" x="412" y="699.291">access</text><polygon fill="#0A9EFD" points="512.5,762.5859,522.5,766.5859,512.5,770.5859,516.5,766.5859" style="stroke:#0A9EFD;stroke-width:1.0;"/><line style="stroke:#0A9EFD;stroke-width:2.0;" x1="344.5" x2="518.5" y1="766.5859" y2="766.5859"/><text fill="#0A9EFD" font-family="Roboto" font-size="14" font-weight="bold" lengthAdjust="spacing" textLength="130" x="367.5" y="743.9004">Request access to</text><text fill="#0A9EFD" font-family="Roboto" font-size="14" font-weight="bold" lengthAdjust="spacing" textLength="84" x="394.5" y="761.5098">Cloud Proxy</text><polygon fill="#0A9EFD" points="161.5,794.1953,151.5,798.1953,161.5,802.1953,157.5,798.1953" style="stroke:#0A9EFD;stroke-width:1.0;"/><line style="stroke:#0A9EFD;stroke-width:2.0;" x1="155.5" x2="523.5" y1="798.1953" y2="798.1953"/><text fill="#0A9EFD" font-family="Roboto" font-size="14" font-weight="bold" lengthAdjust="spacing" textLength="123" x="276" y="793.1191">Proxy information</text><polygon fill="#0A9EFD" points="512.5,825.8047,522.5,829.8047,512.5,833.8047,516.5,829.8047" style="stroke:#0A9EFD;stroke-width:1.0;"/><line style="stroke:#0A9EFD;stroke-width:2.0;" x1="150.5" x2="518.5" y1="829.8047" y2="829.8047"/><text fill="#0A9EFD" font-family="Roboto" font-size="14" font-weight="bold" lengthAdjust="spacing" textLength="102" x="286.5" y="824.7285">Join a channel</text><polygon fill="#0A9EFD" points="746.5,857.4141,756.5,861.4141,746.5,865.4141,750.5,861.4141" style="stroke:#0A9EFD;stroke-width:1.0;"/><line style="stroke:#0A9EFD;stroke-width:2.0;" x1="524.5" x2="752.5" y1="861.4141" y2="861.4141"/><text fill="#0A9EFD" font-family="Roboto" font-size="14" font-weight="bold" lengthAdjust="spacing" textLength="179" x="552" y="856.3379">Request to join a channel</text><polygon fill="#0A9EFD" points="535.5,889.0234,525.5,893.0234,535.5,897.0234,531.5,893.0234" style="stroke:#0A9EFD;stroke-width:1.0;"/><line style="stroke:#0A9EFD;stroke-width:2.0;" x1="529.5" x2="757.5" y1="893.0234" y2="893.0234"/><text fill="#0A9EFD" font-family="Roboto" font-size="14" font-weight="bold" lengthAdjust="spacing" textLength="92" x="595.5" y="887.9473">Join success</text><polygon fill="#0A9EFD" points="161.5,920.6328,151.5,924.6328,161.5,928.6328,157.5,924.6328" style="stroke:#0A9EFD;stroke-width:1.0;"/><line style="stroke:#0A9EFD;stroke-width:2.0;" x1="155.5" x2="523.5" y1="924.6328" y2="924.6328"/><text fill="#0A9EFD" font-family="Roboto" font-size="14" font-weight="bold" lengthAdjust="spacing" textLength="92" x="291.5" y="919.5566">Join success</text><polygon fill="#0A9EFD" points="512.5,952.2422,522.5,956.2422,512.5,960.2422,516.5,956.2422" style="stroke:#0A9EFD;stroke-width:1.0;"/><line style="stroke:#0A9EFD;stroke-width:2.0;" x1="150.5" x2="518.5" y1="956.2422" y2="956.2422"/><text fill="#0A9EFD" font-family="Roboto" font-size="14" font-weight="bold" lengthAdjust="spacing" textLength="122" x="276.5" y="951.166">Send data stream</text><polygon fill="#0A9EFD" points="535.5,983.8516,525.5,987.8516,535.5,991.8516,531.5,987.8516" style="stroke:#0A9EFD;stroke-width:1.0;"/><polygon fill="#0A9EFD" points="746.5,983.8516,756.5,987.8516,746.5,991.8516,750.5,987.8516" style="stroke:#0A9EFD;stroke-width:1.0;"/><line style="stroke:#0A9EFD;stroke-width:2.0;" x1="529.5" x2="752.5" y1="987.8516" y2="987.8516"/><text fill="#0A9EFD" font-family="Roboto" font-size="14" font-weight="bold" lengthAdjust="spacing" textLength="210" x="536.5" y="982.7754">Send and receive data stream</text><polygon fill="#0A9EFD" points="161.5,1015.4609,151.5,1019.4609,161.5,1023.4609,157.5,1019.4609" style="stroke:#0A9EFD;stroke-width:1.0;"/><line style="stroke:#0A9EFD;stroke-width:2.0;" x1="155.5" x2="523.5" y1="1019.4609" y2="1019.4609"/><text fill="#0A9EFD" font-family="Roboto" font-size="14" font-weight="bold" lengthAdjust="spacing" textLength="144" x="265.5" y="1014.3848">Receive data stream</text><!--SRC=[hLFVRzem47xtNt7ZlNrPdz0q2K4hPMCjIjfrbIfDXtE0LyVsRAU5_VMxc10IcAOzZCVSVR_y7U-KaRek2N1jFNuFByfSghhIGg2CriFe8P0V0GPuA78XbdOBewnocYeoaKfOxc1dwz5XUr9MogJroUnBTYiS-gYaScWY3vtRZnQBuU2QgRppAX3SA4zlg7LQlCdowyV9V2x8i9BTjleBRrzLkHUVDBP7GxgfjdK9lBNT9Pf5VlVjQRXIp2xo-zlMJNRaJwxXucCdFOR7ZOgaLOYGBG3BqbC8500PugoFuTd0YgFtH44PY1k2LPlbKWX-l8QLau_Xpj5-Ziu9_j8DCgEYGgr-KHgdQF2LarhMA6QVWSnQ6HgoVRAiXY0tQ0mrjUbuyWrAzY6ZtWdWNoUOTTXfYzsFio5rKKl9YJliXmEuQ1wjUGKc9_LAK694GPfBJC2M5LQeD9LdsYbNIeLrj1LoD_nKEy0OgN8nGBGWBJF8285axOc7ri3zl82hg_V_p-nqBwAOkzNkoRJknt1jSAa9P6hPDIqF4x63AVjFnLKKDxPi0b12FHiSd8Vi5FiSnulBwMTDV6-OmZGyt7-F8A4Ewpqai8SDoHTuwqwMiMlF5yy4U7oQ3i3WzEVuHysqs-Kzt3fVVrCVFre_JijxSfudBDbHc1L_dE-s3VV9Gg_ZeQ6pyT1Ake6cTmZH4rOzXh_VoVd-GJ7_mnOpYDy0]--></g></svg>