<?xml version="1.0" encoding="us-ascii" standalone="no"?><svg xmlns="http://www.w3.org/2000/svg" xmlns:xlink="http://www.w3.org/1999/xlink" contentStyleType="text/css" height="1088px" preserveAspectRatio="none" style="width:552px;height:1088px;" version="1.1" viewBox="0 0 552 1088" width="552px" zoomAndPan="magnify"><defs/><g><rect fill="none" height="1086.1395" style="stroke:#0A9EFD;stroke-width:1.0;" width="550" x="0" y="0"/><rect fill="#999999" fill-opacity="0.33333" height="1076.1395" style="stroke:#0A9EFD;stroke-width:0.5;" width="66" x="8.3333" y="6"/><text fill="#0A9EFD" font-family="sans-serif" font-size="13" font-weight="bold" lengthAdjust="spacing" textLength="60" x="11.3333" y="19.4951">App: Host</text><rect fill="#999999" fill-opacity="0.33333" height="1076.1395" style="stroke:#0A9EFD;stroke-width:0.5;" width="50.6667" x="265.6667" y="6"/><text fill="#0A9EFD" font-family="sans-serif" font-size="13" font-weight="bold" lengthAdjust="spacing" textLength="27" x="277.5" y="19.4951">SDK</text><rect fill="#999999" fill-opacity="0.33333" height="1076.1395" style="stroke:#0A9EFD;stroke-width:0.5;" width="54" x="487.6667" y="6"/><text fill="#0A9EFD" font-family="sans-serif" font-size="13" font-weight="bold" lengthAdjust="spacing" textLength="38" x="495.6667" y="19.4951">Agora</text><text fill="#0A9EFD" font-family="sans-serif" font-size="13" font-weight="bold" lengthAdjust="spacing" textLength="48" x="490.6667" y="35.8467">SD-RTN</text><rect fill="#0A9EFD" fill-opacity="0.06667" height="133.6924" style="stroke:#0A9EFD;stroke-width:2.0;" width="536" x="10" y="224.1134"/><rect fill="#0A9EFD" fill-opacity="0.06667" height="133.6924" style="stroke:#0A9EFD;stroke-width:2.0;" width="536" x="10" y="371.8058"/><rect fill="#0A9EFD" fill-opacity="0.06667" height="133.6924" style="stroke:#0A9EFD;stroke-width:2.0;" width="536" x="10" y="519.4982"/><rect fill="#0A9EFD" fill-opacity="0.06667" height="133.6924" style="stroke:#0A9EFD;stroke-width:2.0;" width="536" x="10" y="667.1906"/><rect fill="#0A9EFD" fill-opacity="0.06667" height="118.7437" style="stroke:#0A9EFD;stroke-width:2.0;" width="536" x="10" y="814.883"/><line style="stroke:#0A9EFD;stroke-width:0.5;stroke-dasharray:5.0,5.0;" x1="41" x2="41" y1="84.3698" y2="1037.4728"/><line style="stroke:#0A9EFD;stroke-width:0.5;stroke-dasharray:5.0,5.0;" x1="290.6667" x2="290.6667" y1="84.3698" y2="1037.4728"/><line style="stroke:#0A9EFD;stroke-width:0.5;stroke-dasharray:5.0,5.0;" x1="514.3333" x2="514.3333" y1="84.3698" y2="1037.4728"/><rect fill="none" height="40.6667" rx="2.5" ry="2.5" style="stroke:#0A9EFD;stroke-width:2.0;" width="42.6667" x="20" y="42.7031"/><path d="M29.1333,49.7031 C28.5333,49.7031 28,50.2365 28,50.8365 L28,75.2031 C28,75.8031 28.5333,76.3365 29.1333,76.3365 L50.1667,76.3365 C50.7667,76.3365 51.3,75.8031 51.3,75.2031 L51.3,50.8365 C51.3,50.2365 50.7667,49.7031 50.1667,49.7031 L29.1333,49.7031 M31.3333,53.0365 L48,53.0365 L48,69.7031 L31.3333,69.7031 L31.3333,53.0365 M39.6667,71.3698 C40.9333,71.3698 41.7667,72.7698 41.1333,73.8698 C40.5,74.9698 38.8667,74.9698 38.2,73.8698 C37.5667,72.7698 38.3667,71.3698 39.6667,71.3698 " fill="#0A9EFD" style="stroke:;stroke-width:0.0;stroke-dasharray:;"/><rect fill="none" height="40.6667" rx="2.5" ry="2.5" style="stroke:#0A9EFD;stroke-width:2.0;" width="42.6667" x="20" y="1036.4728"/><path d="M29.1333,1043.4728 C28.5333,1043.4728 28,1044.0062 28,1044.6062 L28,1068.9728 C28,1069.5728 28.5333,1070.1062 29.1333,1070.1062 L50.1667,1070.1062 C50.7667,1070.1062 51.3,1069.5728 51.3,1068.9728 L51.3,1044.6062 C51.3,1044.0062 50.7667,1043.4728 50.1667,1043.4728 L29.1333,1043.4728 M31.3333,1046.8062 L48,1046.8062 L48,1063.4728 L31.3333,1063.4728 L31.3333,1046.8062 M39.6667,1065.1395 C40.9333,1065.1395 41.7667,1066.5395 41.1333,1067.6395 C40.5,1068.7395 38.8667,1068.7395 38.2,1067.6395 C37.5667,1066.5395 38.3667,1065.1395 39.6667,1065.1395 " fill="#0A9EFD" style="stroke:;stroke-width:0.0;stroke-dasharray:;"/><rect fill="none" height="40.6667" rx="2.5" ry="2.5" style="stroke:#0A9EFD;stroke-width:2.0;" width="42.6667" x="269.6667" y="42.7031"/><path d="M277.6667,49.7031 L277.6667,63.0365 L291,63.0365 L291,49.7031 L277.6667,49.7031 M294.3333,56.3698 L294.3333,66.3698 L284.3333,66.3698 L284.3333,69.7031 L297.6667,69.7031 L297.6667,56.3698 L294.3333,56.3698 M301,63.0365 L301,73.0365 L291,73.0365 L291,76.3698 L304.3333,76.3698 L304.3333,63.0365 L301,63.0365 " fill="#0A9EFD" style="stroke:;stroke-width:0.0;stroke-dasharray:;"/><rect fill="none" height="40.6667" rx="2.5" ry="2.5" style="stroke:#0A9EFD;stroke-width:2.0;" width="42.6667" x="269.6667" y="1036.4728"/><path d="M277.6667,1043.4728 L277.6667,1056.8062 L291,1056.8062 L291,1043.4728 L277.6667,1043.4728 M294.3333,1050.1395 L294.3333,1060.1395 L284.3333,1060.1395 L284.3333,1063.4728 L297.6667,1063.4728 L297.6667,1050.1395 L294.3333,1050.1395 M301,1056.8062 L301,1066.8062 L291,1066.8062 L291,1070.1395 L304.3333,1070.1395 L304.3333,1056.8062 L301,1056.8062 " fill="#0A9EFD" style="stroke:;stroke-width:0.0;stroke-dasharray:;"/><rect fill="none" height="40.6667" rx="2.5" ry="2.5" style="stroke:#0A9EFD;stroke-width:2.0;" width="42.6667" x="493.3333" y="42.7031"/><path d="M516.3333,49.7031 C512.3,49.7031 508.7667,52.5698 508,56.3698 C504.3333,56.3698 501.3333,59.3698 501.3333,63.0365 C501.3333,66.7031 504.3333,69.7031 508,69.7031 L523,69.7031 C525.7667,69.7031 528,67.4698 528,64.7031 C528,62.5365 526.6,60.4031 524.6667,59.7031 L524.6667,58.0365 C524.6667,53.4365 520.9333,49.7031 516.3333,49.7031 " fill="#0A9EFD" style="stroke:;stroke-width:0.0;stroke-dasharray:;"/><rect fill="none" height="40.6667" rx="2.5" ry="2.5" style="stroke:#0A9EFD;stroke-width:2.0;" width="42.6667" x="493.3333" y="1036.4728"/><path d="M516.3333,1043.4728 C512.3,1043.4728 508.7667,1046.3395 508,1050.1395 C504.3333,1050.1395 501.3333,1053.1395 501.3333,1056.8062 C501.3333,1060.4728 504.3333,1063.4728 508,1063.4728 L523,1063.4728 C525.7667,1063.4728 528,1061.2395 528,1058.4728 C528,1056.3062 526.6,1054.1728 524.6667,1053.4728 L524.6667,1051.8062 C524.6667,1047.2062 520.9333,1043.4728 516.3333,1043.4728 " fill="#0A9EFD" style="stroke:;stroke-width:0.0;stroke-dasharray:;"/><polygon fill="#0A9EFD" points="279,111.3185,289,115.3185,279,119.3185,283,115.3185" style="stroke:#0A9EFD;stroke-width:1.0;"/><line style="stroke:#0A9EFD;stroke-width:2.0;" x1="41.3333" x2="285" y1="115.3185" y2="115.3185"/><text fill="#0A9EFD" font-family="Arial" font-size="13" lengthAdjust="spacing" textLength="178" x="77.1667" y="110.5636">Create and initialize the engine</text><polygon fill="#0A9EFD" points="279,158.216,289,162.216,279,166.216,283,162.216" style="stroke:#0A9EFD;stroke-width:1.0;"/><line style="stroke:#0A9EFD;stroke-width:2.0;" x1="41.3333" x2="285" y1="162.216" y2="162.216"/><text fill="#0A9EFD" font-family="Arial" font-size="13" lengthAdjust="spacing" textLength="141" x="95.6667" y="142.5124">Join the channel and set</text><text fill="#0A9EFD" font-family="Arial" font-size="13" lengthAdjust="spacing" textLength="141" x="97.6667" y="157.4611">the user role as the host</text><path d="M295,128.3185 L295,167.3185 L463,167.3185 L463,138.3185 L453,128.3185 L295,128.3185 " fill="none" style="stroke:#0A9EFD;stroke-width:1.0;"/><path d="M453,128.3185 L453,138.3185 L463,138.3185 L453,128.3185 " fill="none" style="stroke:#0A9EFD;stroke-width:1.0;"/><text fill="#0A9EFD" font-family="Arial" font-size="13" lengthAdjust="spacing" textLength="107" x="323.5" y="145.5124">Only the stream of</text><text fill="#0A9EFD" font-family="Arial" font-size="13" lengthAdjust="spacing" textLength="138" x="310" y="160.4611">a host can be forwarded</text><polygon fill="#0A9EFD" points="502.6667,205.1134,512.6667,209.1134,502.6667,213.1134,506.6667,209.1134" style="stroke:#0A9EFD;stroke-width:1.0;"/><line style="stroke:#0A9EFD;stroke-width:2.0;" x1="291" x2="508.6667" y1="209.1134" y2="209.1134"/><text fill="#0A9EFD" font-family="Arial" font-size="13" lengthAdjust="spacing" textLength="109" x="346.3333" y="189.4098">Request to join the</text><text fill="#0A9EFD" font-family="Arial" font-size="13" lengthAdjust="spacing" textLength="125" x="340.3333" y="204.3586">live channel as a host</text><path d="M10,224.1134 L83,224.1134 L83,231.0622 L73,241.0622 L10,241.0622 L10,224.1134 " fill="#EEEEEE" style="stroke:#0A9EFD;stroke-width:1.5;"/><rect fill="none" height="133.6924" style="stroke:#0A9EFD;stroke-width:2.0;" width="536" x="10" y="224.1134"/><text fill="#000000" font-family="Arial" font-size="13" lengthAdjust="spacing" textLength="28" x="25" y="237.3073">Start</text><polygon fill="#0A9EFD" points="279,272.9596,289,276.9596,279,280.9596,283,276.9596" style="stroke:#0A9EFD;stroke-width:1.0;"/><line style="stroke:#0A9EFD;stroke-width:2.0;" x1="41.3333" x2="285" y1="276.9596" y2="276.9596"/><text fill="#0A9EFD" font-family="Arial" font-size="13" lengthAdjust="spacing" textLength="113" x="109.6667" y="257.256">Start cross-channel</text><text fill="#0A9EFD" font-family="Arial" font-size="13" lengthAdjust="spacing" textLength="141" x="97.6667" y="272.2048">media stream forwarding</text><polygon fill="#0A9EFD" points="502.6667,301.9084,512.6667,305.9084,502.6667,309.9084,506.6667,305.9084" style="stroke:#0A9EFD;stroke-width:1.0;"/><line style="stroke:#0A9EFD;stroke-width:2.0;" x1="291" x2="508.6667" y1="305.9084" y2="305.9084"/><text fill="#0A9EFD" font-family="Arial" font-size="13" lengthAdjust="spacing" textLength="136" x="334.8333" y="301.1535">Request forwarding flow</text><polygon fill="#0A9EFD" points="52.3333,345.8058,42.3333,349.8058,52.3333,353.8058,48.3333,349.8058" style="stroke:#0A9EFD;stroke-width:1.0;"/><line style="stroke:#0A9EFD;stroke-width:2.0;stroke-dasharray:2.0,2.0;" x1="46.3333" x2="290" y1="349.8058" y2="349.8058"/><text fill="#0A9EFD" font-family="Arial" font-size="13" lengthAdjust="spacing" textLength="218" x="57.1667" y="330.1022">The source channel host successfully</text><text fill="#0A9EFD" font-family="Arial" font-size="13" lengthAdjust="spacing" textLength="142" x="97.1667" y="345.0509">joined the target channel</text><path d="M10,371.8058 L94,371.8058 L94,378.7546 L84,388.7546 L10,388.7546 L10,371.8058 " fill="#EEEEEE" style="stroke:#0A9EFD;stroke-width:1.5;"/><rect fill="none" height="133.6924" style="stroke:#0A9EFD;stroke-width:2.0;" width="536" x="10" y="371.8058"/><text fill="#000000" font-family="Arial" font-size="13" lengthAdjust="spacing" textLength="39" x="25" y="384.9997">Renew</text><polygon fill="#0A9EFD" points="279,420.652,289,424.652,279,428.652,283,424.652" style="stroke:#0A9EFD;stroke-width:1.0;"/><line style="stroke:#0A9EFD;stroke-width:2.0;" x1="41.3333" x2="285" y1="424.652" y2="424.652"/><text fill="#0A9EFD" font-family="Arial" font-size="13" lengthAdjust="spacing" textLength="149" x="91.6667" y="404.9484">Update the target channel</text><text fill="#0A9EFD" font-family="Arial" font-size="13" lengthAdjust="spacing" textLength="159" x="88.6667" y="419.8971">for media stream forwarding</text><polygon fill="#0A9EFD" points="502.6667,464.5495,512.6667,468.5495,502.6667,472.5495,506.6667,468.5495" style="stroke:#0A9EFD;stroke-width:1.0;"/><line style="stroke:#0A9EFD;stroke-width:2.0;" x1="291" x2="508.6667" y1="468.5495" y2="468.5495"/><text fill="#0A9EFD" font-family="Arial" font-size="13" lengthAdjust="spacing" textLength="146" x="329.8333" y="448.8459">Request an update to the</text><text fill="#0A9EFD" font-family="Arial" font-size="13" lengthAdjust="spacing" textLength="107" x="351.3333" y="463.7946">forwarding channel</text><polygon fill="#0A9EFD" points="52.3333,493.4982,42.3333,497.4982,52.3333,501.4982,48.3333,497.4982" style="stroke:#0A9EFD;stroke-width:1.0;"/><line style="stroke:#0A9EFD;stroke-width:2.0;stroke-dasharray:2.0,2.0;" x1="46.3333" x2="290" y1="497.4982" y2="497.4982"/><text fill="#0A9EFD" font-family="Arial" font-size="13" lengthAdjust="spacing" textLength="204" x="64.1667" y="492.7433">Target channels have been updated</text><path d="M10,519.4982 L92,519.4982 L92,526.4469 L82,536.4469 L10,536.4469 L10,519.4982 " fill="#EEEEEE" style="stroke:#0A9EFD;stroke-width:1.5;"/><rect fill="none" height="133.6924" style="stroke:#0A9EFD;stroke-width:2.0;" width="536" x="10" y="519.4982"/><text fill="#000000" font-family="Arial" font-size="13" lengthAdjust="spacing" textLength="37" x="25" y="532.6921">Pause</text><polygon fill="#0A9EFD" points="279,568.3444,289,572.3444,279,576.3444,283,572.3444" style="stroke:#0A9EFD;stroke-width:1.0;"/><line style="stroke:#0A9EFD;stroke-width:2.0;" x1="41.3333" x2="285" y1="572.3444" y2="572.3444"/><text fill="#0A9EFD" font-family="Arial" font-size="13" lengthAdjust="spacing" textLength="203" x="64.6667" y="552.6408">Pause forwarding of media streams</text><text fill="#0A9EFD" font-family="Arial" font-size="13" lengthAdjust="spacing" textLength="121" x="107.6667" y="567.5895">to all target channels</text><polygon fill="#0A9EFD" points="502.6667,597.2931,512.6667,601.2931,502.6667,605.2931,506.6667,601.2931" style="stroke:#0A9EFD;stroke-width:1.0;"/><line style="stroke:#0A9EFD;stroke-width:2.0;" x1="291" x2="508.6667" y1="601.2931" y2="601.2931"/><text fill="#0A9EFD" font-family="Arial" font-size="13" lengthAdjust="spacing" textLength="190" x="307.8333" y="596.5382">Request to pause forwarding flow</text><polygon fill="#0A9EFD" points="52.3333,641.1906,42.3333,645.1906,52.3333,649.1906,48.3333,645.1906" style="stroke:#0A9EFD;stroke-width:1.0;"/><line style="stroke:#0A9EFD;stroke-width:2.0;stroke-dasharray:2.0,2.0;" x1="46.3333" x2="290" y1="645.1906" y2="645.1906"/><text fill="#0A9EFD" font-family="Arial" font-size="13" lengthAdjust="spacing" textLength="182" x="75.1667" y="625.487">Pause forwarding media stream</text><text fill="#0A9EFD" font-family="Arial" font-size="13" lengthAdjust="spacing" textLength="163" x="86.6667" y="640.4357">to target channel successful</text><path d="M10,667.1906 L101,667.1906 L101,674.1393 L91,684.1393 L10,684.1393 L10,667.1906 " fill="#EEEEEE" style="stroke:#0A9EFD;stroke-width:1.5;"/><rect fill="none" height="133.6924" style="stroke:#0A9EFD;stroke-width:2.0;" width="536" x="10" y="667.1906"/><text fill="#000000" font-family="Arial" font-size="13" lengthAdjust="spacing" textLength="46" x="25" y="680.3844">Recover</text><polygon fill="#0A9EFD" points="279,716.0368,289,720.0368,279,724.0368,283,720.0368" style="stroke:#0A9EFD;stroke-width:1.0;"/><line style="stroke:#0A9EFD;stroke-width:2.0;" x1="41.3333" x2="285" y1="720.0368" y2="720.0368"/><text fill="#0A9EFD" font-family="Arial" font-size="13" lengthAdjust="spacing" textLength="200" x="66.1667" y="700.3332">Resume forwarding media streams</text><text fill="#0A9EFD" font-family="Arial" font-size="13" lengthAdjust="spacing" textLength="125" x="105.6667" y="715.2819">to all target channels,</text><polygon fill="#0A9EFD" points="502.6667,744.9855,512.6667,748.9855,502.6667,752.9855,506.6667,748.9855" style="stroke:#0A9EFD;stroke-width:1.0;"/><line style="stroke:#0A9EFD;stroke-width:2.0;" x1="291" x2="508.6667" y1="748.9855" y2="748.9855"/><text fill="#0A9EFD" font-family="Arial" font-size="13" lengthAdjust="spacing" textLength="198" x="303.8333" y="744.2306">Request to resume forwarding flow</text><polygon fill="#0A9EFD" points="52.3333,788.883,42.3333,792.883,52.3333,796.883,48.3333,792.883" style="stroke:#0A9EFD;stroke-width:1.0;"/><line style="stroke:#0A9EFD;stroke-width:2.0;stroke-dasharray:2.0,2.0;" x1="46.3333" x2="290" y1="792.883" y2="792.883"/><text fill="#0A9EFD" font-family="Arial" font-size="13" lengthAdjust="spacing" textLength="200" x="66.1667" y="773.1794">Resume forwarding media streams</text><text fill="#0A9EFD" font-family="Arial" font-size="13" lengthAdjust="spacing" textLength="185" x="75.6667" y="788.1281">to the target channel successful</text><path d="M10,814.883 L82,814.883 L82,821.8317 L72,831.8317 L10,831.8317 L10,814.883 " fill="#EEEEEE" style="stroke:#0A9EFD;stroke-width:1.5;"/><rect fill="none" height="118.7437" style="stroke:#0A9EFD;stroke-width:2.0;" width="536" x="10" y="814.883"/><text fill="#000000" font-family="Arial" font-size="13" lengthAdjust="spacing" textLength="27" x="25" y="828.0768">Stop</text><polygon fill="#0A9EFD" points="279,863.7292,289,867.7292,279,871.7292,283,867.7292" style="stroke:#0A9EFD;stroke-width:1.0;"/><line style="stroke:#0A9EFD;stroke-width:2.0;" x1="41.3333" x2="285" y1="867.7292" y2="867.7292"/><text fill="#0A9EFD" font-family="Arial" font-size="13" lengthAdjust="spacing" textLength="112" x="110.1667" y="848.0256">Stop cross-channel</text><text fill="#0A9EFD" font-family="Arial" font-size="13" lengthAdjust="spacing" textLength="141" x="97.6667" y="862.9743">media stream forwarding</text><polygon fill="#0A9EFD" points="502.6667,892.6779,512.6667,896.6779,502.6667,900.6779,506.6667,896.6779" style="stroke:#0A9EFD;stroke-width:1.0;"/><line style="stroke:#0A9EFD;stroke-width:2.0;" x1="291" x2="508.6667" y1="896.6779" y2="896.6779"/><text fill="#0A9EFD" font-family="Arial" font-size="13" lengthAdjust="spacing" textLength="180" x="312.8333" y="891.923">Request to stop forwarding flow</text><polygon fill="#0A9EFD" points="52.3333,921.6266,42.3333,925.6266,52.3333,929.6266,48.3333,925.6266" style="stroke:#0A9EFD;stroke-width:1.0;"/><line style="stroke:#0A9EFD;stroke-width:2.0;stroke-dasharray:2.0,2.0;" x1="46.3333" x2="290" y1="925.6266" y2="925.6266"/><text fill="#0A9EFD" font-family="Arial" font-size="13" lengthAdjust="spacing" textLength="193" x="69.6667" y="920.8717">Stopped media stream forwarding</text><polygon fill="#0A9EFD" points="279,957.5754,289,961.5754,279,965.5754,283,961.5754" style="stroke:#0A9EFD;stroke-width:1.0;"/><line style="stroke:#0A9EFD;stroke-width:2.0;" x1="41.3333" x2="285" y1="961.5754" y2="961.5754"/><text fill="#0A9EFD" font-family="Arial" font-size="13" lengthAdjust="spacing" textLength="82" x="125.1667" y="956.8205">Leave channel</text><polygon fill="#0A9EFD" points="502.6667,986.5241,512.6667,990.5241,502.6667,994.5241,506.6667,990.5241" style="stroke:#0A9EFD;stroke-width:1.0;"/><line style="stroke:#0A9EFD;stroke-width:2.0;" x1="291" x2="508.6667" y1="990.5241" y2="990.5241"/><text fill="#0A9EFD" font-family="Arial" font-size="13" lengthAdjust="spacing" textLength="145" x="330.3333" y="985.7692">Request to leave channel</text><polygon fill="#0A9EFD" points="279,1015.4728,289,1019.4728,279,1023.4728,283,1019.4728" style="stroke:#0A9EFD;stroke-width:1.0;"/><line style="stroke:#0A9EFD;stroke-width:2.0;" x1="41.3333" x2="285" y1="1019.4728" y2="1019.4728"/><text fill="#0A9EFD" font-family="Arial" font-size="13" lengthAdjust="spacing" textLength="109" x="111.6667" y="1014.7179">Destroy the engine</text><!--SRC=[fPJDhjCm48NtUOgX2rOKiM0LNKMgw081WYgzx2eXrvac1jSs_hcbF3rZfr7Sj44NiOmzSyvtF7PU2CLbQ11Ogotxvdu8zLg4eooAlVu5YvKn9RpNpYyAmwmNN1YcF2mUdFYDvTitrSDBp_OIVRK0vc2rsHIe6g3UYy1s_N6-LR8pMjUtKk6aTHM9TcgxNjQFd-T5kDIXwJMeRjGWbcL5gYMyiyWy9QGTeOGNJ58p-0u1LIiKPgKVj51fXtTCAPIfoQ7VzQl1eGMh9KQtkD3HqHHAaxeLRUTB-ABaEUquJwv7q0VOAPRgW3C5UuI3jYTc6smAibnM15r2ZJy3KedNy7r0s2afdZ8I1xrEKRHM1mDRJoUIiQTlu5Oxjxmq4VOH6y46cekrKEqTxt4J3bAVKiMo8lqI7cCW7ImVSL8Y5pX7vmv1oZDvHNHi4ZonjEY7wZYL0Rj6XQSC-wjfudHkcqYGaFuX01rlk8ZfgDSB39a6b3pMbP-3Zj5vxn47dIPnzzWRHiFFiDDtha-Jpb5Tl38Qc9IJMEx-sCrKRpg36yFShJUxDigc0rcG6hb-Gfj5gT65uwpqV91NzvFO6xbfb6SPtbw8B52MP-krkNe5slp78o1Z5nN-GXyT35tpET5qrqUWJyZ6LtpVKLwLZArhshVwdF-g_W00]--></g></svg>