<?xml version="1.0" encoding="us-ascii" standalone="no"?><svg xmlns="http://www.w3.org/2000/svg" xmlns:xlink="http://www.w3.org/1999/xlink" contentStyleType="text/css" height="1086px" preserveAspectRatio="none" style="width:566px;height:1086px;" version="1.1" viewBox="0 0 566 1086" width="566px" zoomAndPan="magnify"><defs/><g><rect fill="none" height="1084.0575" style="stroke:#0A9EFD;stroke-width:1.0;" width="564.1667" x="0" y="0"/><rect fill="#999999" fill-opacity="0.33333" height="1074.0575" style="stroke:#0A9EFD;stroke-width:0.5;" width="71" x="5.8333" y="6"/><text fill="#0A9EFD" font-family="sans-serif" font-size="13" font-weight="bold" lengthAdjust="spacing" textLength="65" x="8.8333" y="18.5684">App: Host</text><rect fill="#999999" fill-opacity="0.33333" height="1074.0575" style="stroke:#0A9EFD;stroke-width:0.5;" width="50.6667" x="270.1667" y="6"/><text fill="#0A9EFD" font-family="sans-serif" font-size="13" font-weight="bold" lengthAdjust="spacing" textLength="26" x="282.5" y="18.5684">SDK</text><rect fill="#999999" fill-opacity="0.33333" height="1074.0575" style="stroke:#0A9EFD;stroke-width:0.5;" width="66" x="494.1667" y="6"/><text fill="#0A9EFD" font-family="sans-serif" font-size="13" font-weight="bold" lengthAdjust="spacing" textLength="41" x="506.6667" y="18.5684">Agora</text><text fill="#0A9EFD" font-family="sans-serif" font-size="13" font-weight="bold" lengthAdjust="spacing" textLength="56" x="501.1667" y="33.8789">SDRTN&#174;</text><rect fill="#0A9EFD" fill-opacity="0.06667" height="133.6924" style="stroke:#0A9EFD;stroke-width:2.0;" width="548.5" x="10" y="222.0314"/><rect fill="#0A9EFD" fill-opacity="0.06667" height="133.6924" style="stroke:#0A9EFD;stroke-width:2.0;" width="548.5" x="10" y="369.7238"/><rect fill="#0A9EFD" fill-opacity="0.06667" height="133.6924" style="stroke:#0A9EFD;stroke-width:2.0;" width="548.5" x="10" y="517.4162"/><rect fill="#0A9EFD" fill-opacity="0.06667" height="133.6924" style="stroke:#0A9EFD;stroke-width:2.0;" width="548.5" x="10" y="665.1086"/><rect fill="#0A9EFD" fill-opacity="0.06667" height="118.7437" style="stroke:#0A9EFD;stroke-width:2.0;" width="548.5" x="10" y="812.8009"/><line style="stroke:#0A9EFD;stroke-width:0.5;stroke-dasharray:5.0,5.0;" x1="41" x2="41" y1="82.2878" y2="1035.3908"/><line style="stroke:#0A9EFD;stroke-width:0.5;stroke-dasharray:5.0,5.0;" x1="295.1667" x2="295.1667" y1="82.2878" y2="1035.3908"/><line style="stroke:#0A9EFD;stroke-width:0.5;stroke-dasharray:5.0,5.0;" x1="526.8333" x2="526.8333" y1="82.2878" y2="1035.3908"/><rect fill="none" height="40.6667" rx="2.5" ry="2.5" style="stroke:#0A9EFD;stroke-width:2.0;" width="42.6667" x="20" y="40.6211"/><path d="M29.1333,47.6211 C28.5333,47.6211 28,48.1544 28,48.7544 L28,73.1211 C28,73.7211 28.5333,74.2544 29.1333,74.2544 L50.1667,74.2544 C50.7667,74.2544 51.3,73.7211 51.3,73.1211 L51.3,48.7544 C51.3,48.1544 50.7667,47.6211 50.1667,47.6211 L29.1333,47.6211 M31.3333,50.9544 L48,50.9544 L48,67.6211 L31.3333,67.6211 L31.3333,50.9544 M39.6667,69.2878 C40.9333,69.2878 41.7667,70.6878 41.1333,71.7878 C40.5,72.8878 38.8667,72.8878 38.2,71.7878 C37.5667,70.6878 38.3667,69.2878 39.6667,69.2878 " fill="#0A9EFD" style="stroke:;stroke-width:0.0;stroke-dasharray:;"/><rect fill="none" height="40.6667" rx="2.5" ry="2.5" style="stroke:#0A9EFD;stroke-width:2.0;" width="42.6667" x="20" y="1034.3908"/><path d="M29.1333,1041.3908 C28.5333,1041.3908 28,1041.9241 28,1042.5241 L28,1066.8908 C28,1067.4908 28.5333,1068.0241 29.1333,1068.0241 L50.1667,1068.0241 C50.7667,1068.0241 51.3,1067.4908 51.3,1066.8908 L51.3,1042.5241 C51.3,1041.9241 50.7667,1041.3908 50.1667,1041.3908 L29.1333,1041.3908 M31.3333,1044.7241 L48,1044.7241 L48,1061.3908 L31.3333,1061.3908 L31.3333,1044.7241 M39.6667,1063.0575 C40.9333,1063.0575 41.7667,1064.4575 41.1333,1065.5575 C40.5,1066.6575 38.8667,1066.6575 38.2,1065.5575 C37.5667,1064.4575 38.3667,1063.0575 39.6667,1063.0575 " fill="#0A9EFD" style="stroke:;stroke-width:0.0;stroke-dasharray:;"/><rect fill="none" height="40.6667" rx="2.5" ry="2.5" style="stroke:#0A9EFD;stroke-width:2.0;" width="42.6667" x="274.1667" y="40.6211"/><path d="M282.1667,47.6211 L282.1667,60.9544 L295.5,60.9544 L295.5,47.6211 L282.1667,47.6211 M298.8333,54.2878 L298.8333,64.2878 L288.8333,64.2878 L288.8333,67.6211 L302.1667,67.6211 L302.1667,54.2878 L298.8333,54.2878 M305.5,60.9544 L305.5,70.9544 L295.5,70.9544 L295.5,74.2878 L308.8333,74.2878 L308.8333,60.9544 L305.5,60.9544 " fill="#0A9EFD" style="stroke:;stroke-width:0.0;stroke-dasharray:;"/><rect fill="none" height="40.6667" rx="2.5" ry="2.5" style="stroke:#0A9EFD;stroke-width:2.0;" width="42.6667" x="274.1667" y="1034.3908"/><path d="M282.1667,1041.3908 L282.1667,1054.7241 L295.5,1054.7241 L295.5,1041.3908 L282.1667,1041.3908 M298.8333,1048.0575 L298.8333,1058.0575 L288.8333,1058.0575 L288.8333,1061.3908 L302.1667,1061.3908 L302.1667,1048.0575 L298.8333,1048.0575 M305.5,1054.7241 L305.5,1064.7241 L295.5,1064.7241 L295.5,1068.0575 L308.8333,1068.0575 L308.8333,1054.7241 L305.5,1054.7241 " fill="#0A9EFD" style="stroke:;stroke-width:0.0;stroke-dasharray:;"/><rect fill="none" height="40.6667" rx="2.5" ry="2.5" style="stroke:#0A9EFD;stroke-width:2.0;" width="42.6667" x="505.8333" y="40.6211"/><path d="M528.8333,47.6211 C524.8,47.6211 521.2667,50.4878 520.5,54.2878 C516.8333,54.2878 513.8333,57.2878 513.8333,60.9544 C513.8333,64.6211 516.8333,67.6211 520.5,67.6211 L535.5,67.6211 C538.2667,67.6211 540.5,65.3878 540.5,62.6211 C540.5,60.4544 539.1,58.3211 537.1667,57.6211 L537.1667,55.9544 C537.1667,51.3544 533.4333,47.6211 528.8333,47.6211 " fill="#0A9EFD" style="stroke:;stroke-width:0.0;stroke-dasharray:;"/><rect fill="none" height="40.6667" rx="2.5" ry="2.5" style="stroke:#0A9EFD;stroke-width:2.0;" width="42.6667" x="505.8333" y="1034.3908"/><path d="M528.8333,1041.3908 C524.8,1041.3908 521.2667,1044.2575 520.5,1048.0575 C516.8333,1048.0575 513.8333,1051.0575 513.8333,1054.7241 C513.8333,1058.3908 516.8333,1061.3908 520.5,1061.3908 L535.5,1061.3908 C538.2667,1061.3908 540.5,1059.1575 540.5,1056.3908 C540.5,1054.2241 539.1,1052.0908 537.1667,1051.3908 L537.1667,1049.7241 C537.1667,1045.1241 533.4333,1041.3908 528.8333,1041.3908 " fill="#0A9EFD" style="stroke:;stroke-width:0.0;stroke-dasharray:;"/><polygon fill="#0A9EFD" points="283.5,109.2365,293.5,113.2365,283.5,117.2365,287.5,113.2365" style="stroke:#0A9EFD;stroke-width:1.0;"/><line style="stroke:#0A9EFD;stroke-width:2.0;" x1="41.3333" x2="289.5" y1="113.2365" y2="113.2365"/><text fill="#0A9EFD" font-family="Arial" font-size="13" lengthAdjust="spacing" textLength="178" x="79.4167" y="108.4816">Create and initialize the engine</text><polygon fill="#0A9EFD" points="283.5,156.134,293.5,160.134,283.5,164.134,287.5,160.134" style="stroke:#0A9EFD;stroke-width:1.0;"/><line style="stroke:#0A9EFD;stroke-width:2.0;" x1="41.3333" x2="289.5" y1="160.134" y2="160.134"/><text fill="#0A9EFD" font-family="Arial" font-size="13" lengthAdjust="spacing" textLength="142" x="97.4167" y="140.4303">Join the channel and set</text><text fill="#0A9EFD" font-family="Arial" font-size="13" lengthAdjust="spacing" textLength="141" x="99.9167" y="155.3791">the user role as the host</text><path d="M300,126.2365 L300,165.2365 L469,165.2365 L469,136.2365 L459,126.2365 L300,126.2365 " fill="none" style="stroke:#0A9EFD;stroke-width:1.0;"/><path d="M459,126.2365 L459,136.2365 L469,136.2365 L459,126.2365 " fill="none" style="stroke:#0A9EFD;stroke-width:1.0;"/><text fill="#0A9EFD" font-family="Arial" font-size="13" lengthAdjust="spacing" textLength="108" x="328.5" y="143.4303">Only the stream of</text><text fill="#0A9EFD" font-family="Arial" font-size="13" lengthAdjust="spacing" textLength="139" x="315" y="158.3791">a host can be forwarded</text><polygon fill="#0A9EFD" points="515.1667,203.0314,525.1667,207.0314,515.1667,211.0314,519.1667,207.0314" style="stroke:#0A9EFD;stroke-width:1.0;"/><line style="stroke:#0A9EFD;stroke-width:2.0;" x1="295.5" x2="521.1667" y1="207.0314" y2="207.0314"/><text fill="#0A9EFD" font-family="Arial" font-size="13" lengthAdjust="spacing" textLength="109" x="354.8333" y="187.3278">Request to join the</text><text fill="#0A9EFD" font-family="Arial" font-size="13" lengthAdjust="spacing" textLength="127" x="347.8333" y="202.2765">live channel as a host</text><path d="M10,222.0314 L83,222.0314 L83,228.9801 L73,238.9801 L10,238.9801 L10,222.0314 " fill="#EEEEEE" style="stroke:#0A9EFD;stroke-width:1.5;"/><rect fill="none" height="133.6924" style="stroke:#0A9EFD;stroke-width:2.0;" width="548.5" x="10" y="222.0314"/><text fill="#000000" font-family="Arial" font-size="13" lengthAdjust="spacing" textLength="28" x="25" y="235.2253">Start</text><polygon fill="#0A9EFD" points="283.5,270.8776,293.5,274.8776,283.5,278.8776,287.5,274.8776" style="stroke:#0A9EFD;stroke-width:1.0;"/><line style="stroke:#0A9EFD;stroke-width:2.0;" x1="41.3333" x2="289.5" y1="274.8776" y2="274.8776"/><text fill="#0A9EFD" font-family="Arial" font-size="13" lengthAdjust="spacing" textLength="113" x="111.9167" y="255.174">Start cross-channel</text><text fill="#0A9EFD" font-family="Arial" font-size="13" lengthAdjust="spacing" textLength="142" x="99.4167" y="270.1227">media stream forwarding</text><polygon fill="#0A9EFD" points="515.1667,299.8263,525.1667,303.8263,515.1667,307.8263,519.1667,303.8263" style="stroke:#0A9EFD;stroke-width:1.0;"/><line style="stroke:#0A9EFD;stroke-width:2.0;" x1="295.5" x2="521.1667" y1="303.8263" y2="303.8263"/><text fill="#0A9EFD" font-family="Arial" font-size="13" lengthAdjust="spacing" textLength="138" x="342.3333" y="299.0715">Request forwarding flow</text><polygon fill="#0A9EFD" points="52.3333,343.7238,42.3333,347.7238,52.3333,351.7238,48.3333,347.7238" style="stroke:#0A9EFD;stroke-width:1.0;"/><line style="stroke:#0A9EFD;stroke-width:2.0;stroke-dasharray:2.0,2.0;" x1="46.3333" x2="294.5" y1="347.7238" y2="347.7238"/><text fill="#0A9EFD" font-family="Arial" font-size="13" lengthAdjust="spacing" textLength="220" x="58.4167" y="328.0202">The source channel host successfully</text><text fill="#0A9EFD" font-family="Arial" font-size="13" lengthAdjust="spacing" textLength="142" x="99.4167" y="342.9689">joined the target channel</text><path d="M10,369.7238 L94,369.7238 L94,376.6725 L84,386.6725 L10,386.6725 L10,369.7238 " fill="#EEEEEE" style="stroke:#0A9EFD;stroke-width:1.5;"/><rect fill="none" height="133.6924" style="stroke:#0A9EFD;stroke-width:2.0;" width="548.5" x="10" y="369.7238"/><text fill="#000000" font-family="Arial" font-size="13" lengthAdjust="spacing" textLength="39" x="25" y="382.9176">Renew</text><polygon fill="#0A9EFD" points="283.5,418.57,293.5,422.57,283.5,426.57,287.5,422.57" style="stroke:#0A9EFD;stroke-width:1.0;"/><line style="stroke:#0A9EFD;stroke-width:2.0;" x1="41.3333" x2="289.5" y1="422.57" y2="422.57"/><text fill="#0A9EFD" font-family="Arial" font-size="13" lengthAdjust="spacing" textLength="149" x="93.9167" y="402.8664">Update the target channel</text><text fill="#0A9EFD" font-family="Arial" font-size="13" lengthAdjust="spacing" textLength="161" x="89.9167" y="417.8151">for media stream forwarding</text><polygon fill="#0A9EFD" points="515.1667,462.4674,525.1667,466.4674,515.1667,470.4674,519.1667,466.4674" style="stroke:#0A9EFD;stroke-width:1.0;"/><line style="stroke:#0A9EFD;stroke-width:2.0;" x1="295.5" x2="521.1667" y1="466.4674" y2="466.4674"/><text fill="#0A9EFD" font-family="Arial" font-size="13" lengthAdjust="spacing" textLength="146" x="338.3333" y="446.7638">Request an update to the</text><text fill="#0A9EFD" font-family="Arial" font-size="13" lengthAdjust="spacing" textLength="108" x="359.3333" y="461.7126">forwarding channel</text><polygon fill="#0A9EFD" points="52.3333,491.4162,42.3333,495.4162,52.3333,499.4162,48.3333,495.4162" style="stroke:#0A9EFD;stroke-width:1.0;"/><line style="stroke:#0A9EFD;stroke-width:2.0;stroke-dasharray:2.0,2.0;" x1="46.3333" x2="294.5" y1="495.4162" y2="495.4162"/><text fill="#0A9EFD" font-family="Arial" font-size="13" lengthAdjust="spacing" textLength="207" x="64.9167" y="490.6613">Target channels have been updated</text><path d="M10,517.4162 L92,517.4162 L92,524.3649 L82,534.3649 L10,534.3649 L10,517.4162 " fill="#EEEEEE" style="stroke:#0A9EFD;stroke-width:1.5;"/><rect fill="none" height="133.6924" style="stroke:#0A9EFD;stroke-width:2.0;" width="548.5" x="10" y="517.4162"/><text fill="#000000" font-family="Arial" font-size="13" lengthAdjust="spacing" textLength="37" x="25" y="530.61">Pause</text><polygon fill="#0A9EFD" points="283.5,566.2624,293.5,570.2624,283.5,574.2624,287.5,570.2624" style="stroke:#0A9EFD;stroke-width:1.0;"/><line style="stroke:#0A9EFD;stroke-width:2.0;" x1="41.3333" x2="289.5" y1="570.2624" y2="570.2624"/><text fill="#0A9EFD" font-family="Arial" font-size="13" lengthAdjust="spacing" textLength="205" x="65.9167" y="550.5588">Pause forwarding of media streams</text><text fill="#0A9EFD" font-family="Arial" font-size="13" lengthAdjust="spacing" textLength="121" x="109.9167" y="565.5075">to all target channels</text><polygon fill="#0A9EFD" points="515.1667,595.2111,525.1667,599.2111,515.1667,603.2111,519.1667,599.2111" style="stroke:#0A9EFD;stroke-width:1.0;"/><line style="stroke:#0A9EFD;stroke-width:2.0;" x1="295.5" x2="521.1667" y1="599.2111" y2="599.2111"/><text fill="#0A9EFD" font-family="Arial" font-size="13" lengthAdjust="spacing" textLength="192" x="315.3333" y="594.4562">Request to pause forwarding flow</text><polygon fill="#0A9EFD" points="52.3333,639.1086,42.3333,643.1086,52.3333,647.1086,48.3333,643.1086" style="stroke:#0A9EFD;stroke-width:1.0;"/><line style="stroke:#0A9EFD;stroke-width:2.0;stroke-dasharray:2.0,2.0;" x1="46.3333" x2="294.5" y1="643.1086" y2="643.1086"/><text fill="#0A9EFD" font-family="Arial" font-size="13" lengthAdjust="spacing" textLength="183" x="76.9167" y="623.4049">Pause forwarding media stream</text><text fill="#0A9EFD" font-family="Arial" font-size="13" lengthAdjust="spacing" textLength="164" x="88.4167" y="638.3537">to target channel successful</text><path d="M10,665.1086 L103,665.1086 L103,672.0573 L93,682.0573 L10,682.0573 L10,665.1086 " fill="#EEEEEE" style="stroke:#0A9EFD;stroke-width:1.5;"/><rect fill="none" height="133.6924" style="stroke:#0A9EFD;stroke-width:2.0;" width="548.5" x="10" y="665.1086"/><text fill="#000000" font-family="Arial" font-size="13" lengthAdjust="spacing" textLength="48" x="25" y="678.3024">Recover</text><polygon fill="#0A9EFD" points="283.5,713.9548,293.5,717.9548,283.5,721.9548,287.5,717.9548" style="stroke:#0A9EFD;stroke-width:1.0;"/><line style="stroke:#0A9EFD;stroke-width:2.0;" x1="41.3333" x2="289.5" y1="717.9548" y2="717.9548"/><text fill="#0A9EFD" font-family="Arial" font-size="13" lengthAdjust="spacing" textLength="201" x="67.9167" y="698.2511">Resume forwarding media streams</text><text fill="#0A9EFD" font-family="Arial" font-size="13" lengthAdjust="spacing" textLength="125" x="107.9167" y="713.1999">to all target channels,</text><polygon fill="#0A9EFD" points="515.1667,742.9035,525.1667,746.9035,515.1667,750.9035,519.1667,746.9035" style="stroke:#0A9EFD;stroke-width:1.0;"/><line style="stroke:#0A9EFD;stroke-width:2.0;" x1="295.5" x2="521.1667" y1="746.9035" y2="746.9035"/><text fill="#0A9EFD" font-family="Arial" font-size="13" lengthAdjust="spacing" textLength="200" x="311.3333" y="742.1486">Request to resume forwarding flow</text><polygon fill="#0A9EFD" points="52.3333,786.8009,42.3333,790.8009,52.3333,794.8009,48.3333,790.8009" style="stroke:#0A9EFD;stroke-width:1.0;"/><line style="stroke:#0A9EFD;stroke-width:2.0;stroke-dasharray:2.0,2.0;" x1="46.3333" x2="294.5" y1="790.8009" y2="790.8009"/><text fill="#0A9EFD" font-family="Arial" font-size="13" lengthAdjust="spacing" textLength="201" x="67.9167" y="771.0973">Resume forwarding media streams</text><text fill="#0A9EFD" font-family="Arial" font-size="13" lengthAdjust="spacing" textLength="186" x="77.4167" y="786.0461">to the target channel successful</text><path d="M10,812.8009 L82,812.8009 L82,819.7497 L72,829.7497 L10,829.7497 L10,812.8009 " fill="#EEEEEE" style="stroke:#0A9EFD;stroke-width:1.5;"/><rect fill="none" height="118.7437" style="stroke:#0A9EFD;stroke-width:2.0;" width="548.5" x="10" y="812.8009"/><text fill="#000000" font-family="Arial" font-size="13" lengthAdjust="spacing" textLength="27" x="25" y="825.9948">Stop</text><polygon fill="#0A9EFD" points="283.5,861.6471,293.5,865.6471,283.5,869.6471,287.5,865.6471" style="stroke:#0A9EFD;stroke-width:1.0;"/><line style="stroke:#0A9EFD;stroke-width:2.0;" x1="41.3333" x2="289.5" y1="865.6471" y2="865.6471"/><text fill="#0A9EFD" font-family="Arial" font-size="13" lengthAdjust="spacing" textLength="112" x="112.4167" y="845.9435">Stop cross-channel</text><text fill="#0A9EFD" font-family="Arial" font-size="13" lengthAdjust="spacing" textLength="142" x="99.4167" y="860.8923">media stream forwarding</text><polygon fill="#0A9EFD" points="515.1667,890.5959,525.1667,894.5959,515.1667,898.5959,519.1667,894.5959" style="stroke:#0A9EFD;stroke-width:1.0;"/><line style="stroke:#0A9EFD;stroke-width:2.0;" x1="295.5" x2="521.1667" y1="894.5959" y2="894.5959"/><text fill="#0A9EFD" font-family="Arial" font-size="13" lengthAdjust="spacing" textLength="182" x="320.3333" y="889.841">Request to stop forwarding flow</text><polygon fill="#0A9EFD" points="52.3333,919.5446,42.3333,923.5446,52.3333,927.5446,48.3333,923.5446" style="stroke:#0A9EFD;stroke-width:1.0;"/><line style="stroke:#0A9EFD;stroke-width:2.0;stroke-dasharray:2.0,2.0;" x1="46.3333" x2="294.5" y1="923.5446" y2="923.5446"/><text fill="#0A9EFD" font-family="Arial" font-size="13" lengthAdjust="spacing" textLength="194" x="71.4167" y="918.7897">Stopped media stream forwarding</text><polygon fill="#0A9EFD" points="283.5,955.4933,293.5,959.4933,283.5,963.4933,287.5,959.4933" style="stroke:#0A9EFD;stroke-width:1.0;"/><line style="stroke:#0A9EFD;stroke-width:2.0;" x1="41.3333" x2="289.5" y1="959.4933" y2="959.4933"/><text fill="#0A9EFD" font-family="Arial" font-size="13" lengthAdjust="spacing" textLength="84" x="126.4167" y="954.7384">Leave channel</text><polygon fill="#0A9EFD" points="515.1667,984.4421,525.1667,988.4421,515.1667,992.4421,519.1667,988.4421" style="stroke:#0A9EFD;stroke-width:1.0;"/><line style="stroke:#0A9EFD;stroke-width:2.0;" x1="295.5" x2="521.1667" y1="988.4421" y2="988.4421"/><text fill="#0A9EFD" font-family="Arial" font-size="13" lengthAdjust="spacing" textLength="147" x="337.8333" y="983.6872">Request to leave channel</text><polygon fill="#0A9EFD" points="283.5,1013.3908,293.5,1017.3908,283.5,1021.3908,287.5,1017.3908" style="stroke:#0A9EFD;stroke-width:1.0;"/><line style="stroke:#0A9EFD;stroke-width:2.0;" x1="41.3333" x2="289.5" y1="1017.3908" y2="1017.3908"/><text fill="#0A9EFD" font-family="Arial" font-size="13" lengthAdjust="spacing" textLength="109" x="113.9167" y="1012.6359">Destroy the engine</text><!--SRC=[fPJDhjCm48NtUOgX2rOKiM0LNKMgk8ihG52bbrqbv3hJnE3QnZ-tb8VY8NWonawZk6c3G2oJcJddEnudpuJYCZG8hDMMVNPVXNefma4MnKv_XyNAc18UjFEBmZ3h1HU6AG-BEoT-OFdwLNNttBETH5yjW3bOhTS5gWPezYomkNytFohP2QthHwbnChgAH5j5bVhnmw-Vyp9Swj3qAjGvgX3DiYBT4jvOP9uoKaKeuGMJD0o-Gq3L2eLPwrijLAhmZYc5CWqvzDl-RN1emMg9qIs-wEXm2gL9tOgsyoLyLFAKAiwJwm7q7hQAfJxWJC4EOQ_jaTa6cu8ibnL1br3Zju3KuZLy6H2sIegdZCH1hrCKhTN1mCRJYMJiwHcurSujpqE4VS16i87cR2rKUyDxBC9UwcFgM5QaNy9Z3AI3vIDEIkG2v-ZSFaXv8g-8Zas29vOM_T0Tjp9WrwZmc65_CatSplKG2HBIFmIWumrdCHtrUe4Xqu2InxhmSz0nEkyTug3J9EuUUyre-HbsUixrQTCvgejNHWEJSXBBtLwxcUfDTt1bcBlrPfT6sNOW2r8ZrqzeioWrkd2ObPuFyk9s4dibDutoLuRN5o8BbENPU6qklW9j_kCZ86CN5Vv07nqCNVCvqNJNHw3toCQl-BQZl6WPH- -fRlKf_rNz1W00]--></g></svg>