<?xml version="1.0" encoding="us-ascii" standalone="no"?><svg xmlns="http://www.w3.org/2000/svg" xmlns:xlink="http://www.w3.org/1999/xlink" contentStyleType="text/css" height="421px" preserveAspectRatio="none" style="width:574px;height:421px;" version="1.1" viewBox="0 0 574 421" width="574px" zoomAndPan="magnify"><defs/><g><rect fill="none" height="419.1312" style="stroke:#0A9EFD;stroke-width:1.0;" width="572" x="0" y="0"/><rect fill="#999999" fill-opacity="0.33333" height="409.1312" style="stroke:#0A9EFD;stroke-width:0.5;" width="50.6667" x="16" y="6"/><text fill="#0A9EFD" font-family="sans-serif" font-size="13" font-weight="bold" lengthAdjust="spacing" textLength="28" x="27.3333" y="18.5684">App</text><rect fill="#999999" fill-opacity="0.33333" height="409.1312" style="stroke:#0A9EFD;stroke-width:0.5;" width="50.6667" x="268" y="6"/><text fill="#0A9EFD" font-family="sans-serif" font-size="13" font-weight="bold" lengthAdjust="spacing" textLength="26" x="280.3333" y="18.5684">SDK</text><rect fill="#999999" fill-opacity="0.33333" height="409.1312" style="stroke:#0A9EFD;stroke-width:0.5;" width="107" x="461" y="6"/><text fill="#0A9EFD" font-family="sans-serif" font-size="13" font-weight="bold" lengthAdjust="spacing" textLength="101" x="464" y="18.5684">Agora SDRTN&#174;</text><rect fill="#0A9EFD" fill-opacity="0.06667" height="153.6924" style="stroke:#0A9EFD;stroke-width:2.0;" width="535.8333" x="10" y="112.9259"/><line style="stroke:#0A9EFD;stroke-width:0.5;stroke-dasharray:5.0,5.0;" x1="41" x2="41" y1="66.9772" y2="370.4645"/><line style="stroke:#0A9EFD;stroke-width:0.5;stroke-dasharray:5.0,5.0;" x1="293" x2="293" y1="66.9772" y2="370.4645"/><line style="stroke:#0A9EFD;stroke-width:0.5;stroke-dasharray:5.0,5.0;" x1="514.1667" x2="514.1667" y1="66.9772" y2="370.4645"/><rect fill="none" height="40.6667" rx="2.5" ry="2.5" style="stroke:#0A9EFD;stroke-width:2.0;" width="42.6667" x="20" y="25.3105"/><path d="M29.1333,32.3105 C28.5333,32.3105 28,32.8439 28,33.4439 L28,57.8105 C28,58.4105 28.5333,58.9439 29.1333,58.9439 L50.1667,58.9439 C50.7667,58.9439 51.3,58.4105 51.3,57.8105 L51.3,33.4439 C51.3,32.8439 50.7667,32.3105 50.1667,32.3105 L29.1333,32.3105 M31.3333,35.6439 L48,35.6439 L48,52.3105 L31.3333,52.3105 L31.3333,35.6439 M39.6667,53.9772 C40.9333,53.9772 41.7667,55.3772 41.1333,56.4772 C40.5,57.5772 38.8667,57.5772 38.2,56.4772 C37.5667,55.3772 38.3667,53.9772 39.6667,53.9772 " fill="#0A9EFD" style="stroke:;stroke-width:0.0;stroke-dasharray:;"/><rect fill="none" height="40.6667" rx="2.5" ry="2.5" style="stroke:#0A9EFD;stroke-width:2.0;" width="42.6667" x="20" y="369.4645"/><path d="M29.1333,376.4645 C28.5333,376.4645 28,376.9979 28,377.5979 L28,401.9645 C28,402.5645 28.5333,403.0979 29.1333,403.0979 L50.1667,403.0979 C50.7667,403.0979 51.3,402.5645 51.3,401.9645 L51.3,377.5979 C51.3,376.9979 50.7667,376.4645 50.1667,376.4645 L29.1333,376.4645 M31.3333,379.7979 L48,379.7979 L48,396.4645 L31.3333,396.4645 L31.3333,379.7979 M39.6667,398.1312 C40.9333,398.1312 41.7667,399.5312 41.1333,400.6312 C40.5,401.7312 38.8667,401.7312 38.2,400.6312 C37.5667,399.5312 38.3667,398.1312 39.6667,398.1312 " fill="#0A9EFD" style="stroke:;stroke-width:0.0;stroke-dasharray:;"/><rect fill="none" height="40.6667" rx="2.5" ry="2.5" style="stroke:#0A9EFD;stroke-width:2.0;" width="42.6667" x="272" y="25.3105"/><path d="M280,32.3105 L280,45.6439 L293.3333,45.6439 L293.3333,32.3105 L280,32.3105 M296.6667,38.9772 L296.6667,48.9772 L286.6667,48.9772 L286.6667,52.3105 L300,52.3105 L300,38.9772 L296.6667,38.9772 M303.3333,45.6439 L303.3333,55.6439 L293.3333,55.6439 L293.3333,58.9772 L306.6667,58.9772 L306.6667,45.6439 L303.3333,45.6439 " fill="#0A9EFD" style="stroke:;stroke-width:0.0;stroke-dasharray:;"/><rect fill="none" height="40.6667" rx="2.5" ry="2.5" style="stroke:#0A9EFD;stroke-width:2.0;" width="42.6667" x="272" y="369.4645"/><path d="M280,376.4645 L280,389.7979 L293.3333,389.7979 L293.3333,376.4645 L280,376.4645 M296.6667,383.1312 L296.6667,393.1312 L286.6667,393.1312 L286.6667,396.4645 L300,396.4645 L300,383.1312 L296.6667,383.1312 M303.3333,389.7979 L303.3333,399.7979 L293.3333,399.7979 L293.3333,403.1312 L306.6667,403.1312 L306.6667,389.7979 L303.3333,389.7979 " fill="#0A9EFD" style="stroke:;stroke-width:0.0;stroke-dasharray:;"/><rect fill="none" height="40.6667" rx="2.5" ry="2.5" style="stroke:#0A9EFD;stroke-width:2.0;" width="42.6667" x="493.1667" y="25.3105"/><path d="M516.1667,32.3105 C512.1333,32.3105 508.6,35.1772 507.8333,38.9772 C504.1667,38.9772 501.1667,41.9772 501.1667,45.6439 C501.1667,49.3105 504.1667,52.3105 507.8333,52.3105 L522.8333,52.3105 C525.6,52.3105 527.8333,50.0772 527.8333,47.3105 C527.8333,45.1439 526.4333,43.0105 524.5,42.3105 L524.5,40.6439 C524.5,36.0439 520.7667,32.3105 516.1667,32.3105 " fill="#0A9EFD" style="stroke:;stroke-width:0.0;stroke-dasharray:;"/><rect fill="none" height="40.6667" rx="2.5" ry="2.5" style="stroke:#0A9EFD;stroke-width:2.0;" width="42.6667" x="493.1667" y="369.4645"/><path d="M516.1667,376.4645 C512.1333,376.4645 508.6,379.3312 507.8333,383.1312 C504.1667,383.1312 501.1667,386.1312 501.1667,389.7979 C501.1667,393.4645 504.1667,396.4645 507.8333,396.4645 L522.8333,396.4645 C525.6,396.4645 527.8333,394.2312 527.8333,391.4645 C527.8333,389.2979 526.4333,387.1645 524.5,386.4645 L524.5,384.7979 C524.5,380.1979 520.7667,376.4645 516.1667,376.4645 " fill="#0A9EFD" style="stroke:;stroke-width:0.0;stroke-dasharray:;"/><polygon fill="#0A9EFD" points="281.3333,93.9259,291.3333,97.9259,281.3333,101.9259,285.3333,97.9259" style="stroke:#0A9EFD;stroke-width:1.0;"/><line style="stroke:#0A9EFD;stroke-width:2.0;" x1="41.3333" x2="287.3333" y1="97.9259" y2="97.9259"/><text fill="#0A9EFD" font-family="Arial" font-size="13" lengthAdjust="spacing" textLength="178" x="78.3333" y="93.1711">Create and initialize the engine</text><path d="M10,112.9259 L182,112.9259 L182,119.8747 L172,129.8747 L10,129.8747 L10,112.9259 " fill="#EEEEEE" style="stroke:#0A9EFD;stroke-width:1.5;"/><rect fill="none" height="153.6924" style="stroke:#0A9EFD;stroke-width:2.0;" width="535.8333" x="10" y="112.9259"/><text fill="#000000" font-family="Arial" font-size="13" lengthAdjust="spacing" textLength="127" x="25" y="126.1198">Custom audio capture</text><polygon fill="#0A9EFD" points="281.3333,157.2978,291.3333,161.2978,281.3333,165.2978,285.3333,161.2978" style="stroke:#0A9EFD;stroke-width:1.0;"/><line style="stroke:#0A9EFD;stroke-width:2.0;" x1="41.3333" x2="287.3333" y1="161.2978" y2="161.2978"/><text fill="#0A9EFD" font-family="Arial" font-size="13" lengthAdjust="spacing" textLength="228" x="53.3333" y="156.5429">Set up an external audio source for use</text><path d="M298,134.8747 L298,173.8747 L512,173.8747 L512,144.8747 L502,134.8747 L298,134.8747 " fill="none" style="stroke:#0A9EFD;stroke-width:1.0;"/><path d="M502,134.8747 L502,144.8747 L512,144.8747 L502,134.8747 " fill="none" style="stroke:#0A9EFD;stroke-width:1.0;"/><text fill="#0A9EFD" font-family="Arial" font-size="13" lengthAdjust="spacing" textLength="184" x="313" y="152.0685">You manage audio data capture</text><text fill="#0A9EFD" font-family="Arial" font-size="13" lengthAdjust="spacing" textLength="162" x="326" y="167.0173">and processing on your own</text><polygon fill="#0A9EFD" points="281.3333,196.7209,291.3333,200.7209,281.3333,204.7209,285.3333,200.7209" style="stroke:#0A9EFD;stroke-width:1.0;"/><line style="stroke:#0A9EFD;stroke-width:2.0;" x1="41.3333" x2="287.3333" y1="200.7209" y2="200.7209"/><text fill="#0A9EFD" font-family="Arial" font-size="13" lengthAdjust="spacing" textLength="84" x="125.3333" y="195.966">Join a channel</text><polygon fill="#0A9EFD" points="502.5,225.6696,512.5,229.6696,502.5,233.6696,506.5,229.6696" style="stroke:#0A9EFD;stroke-width:1.0;"/><line style="stroke:#0A9EFD;stroke-width:2.0;" x1="293.3333" x2="508.5" y1="229.6696" y2="229.6696"/><text fill="#0A9EFD" font-family="Arial" font-size="13" lengthAdjust="spacing" textLength="158" x="324.9167" y="224.9147">Request to join the channel</text><polygon fill="#0A9EFD" points="281.3333,254.6183,291.3333,258.6183,281.3333,262.6183,285.3333,258.6183" style="stroke:#0A9EFD;stroke-width:1.0;"/><line style="stroke:#0A9EFD;stroke-width:2.0;" x1="41.3333" x2="287.3333" y1="258.6183" y2="258.6183"/><text fill="#0A9EFD" font-family="Arial" font-size="13" lengthAdjust="spacing" textLength="180" x="77.3333" y="253.8634">Send the processed audio data</text><polygon fill="#0A9EFD" points="281.3333,290.5671,291.3333,294.5671,281.3333,298.5671,285.3333,294.5671" style="stroke:#0A9EFD;stroke-width:1.0;"/><line style="stroke:#0A9EFD;stroke-width:2.0;" x1="41.3333" x2="287.3333" y1="294.5671" y2="294.5671"/><text fill="#0A9EFD" font-family="Arial" font-size="13" lengthAdjust="spacing" textLength="106" x="114.3333" y="289.8122">Leave the channel</text><polygon fill="#0A9EFD" points="502.5,319.5158,512.5,323.5158,502.5,327.5158,506.5,323.5158" style="stroke:#0A9EFD;stroke-width:1.0;"/><line style="stroke:#0A9EFD;stroke-width:2.0;" x1="293.3333" x2="508.5" y1="323.5158" y2="323.5158"/><text fill="#0A9EFD" font-family="Arial" font-size="13" lengthAdjust="spacing" textLength="169" x="319.4167" y="318.7609">Request to leave the channel</text><polygon fill="#0A9EFD" points="281.3333,348.4645,291.3333,352.4645,281.3333,356.4645,285.3333,352.4645" style="stroke:#0A9EFD;stroke-width:1.0;"/><line style="stroke:#0A9EFD;stroke-width:2.0;" x1="41.3333" x2="287.3333" y1="352.4645" y2="352.4645"/><text fill="#0A9EFD" font-family="Arial" font-size="13" lengthAdjust="spacing" textLength="109" x="112.8333" y="347.7096">Destroy the engine</text><!--SRC=[TP1BJiD038RtSmgJ1RiY5goYAbBLhW2XgcM3X8JSnAG34plC0reEnI4u6GvDrV3erlx-XtrYkNIf8i1QF3w4PyjdDZNEc9Li89kqRMPQzD6MjaMEa8s3VQVyuhmOdqPSEOf51XXWCfyRuWfKrKkNiwlZKeTRyc4dLV2NTD9rqVdYzkRpuxX9wIHLEmyb3nxQPLIeQmvJJnZrDjrOjj6YKp74DG5nRPcCgRsa5gOfH6a0KsK5IcnZyZImML84fP21Df4ye-lH8CcN18_Y8GKoB1hcRRsEETn9WWOPQ-hP2YFklU_vkrFhfQGGBDSW35ir0tdZGV2bM2MXN2CpEQEpKQ6dvh2WbqGXGXHuwfZkf3qrxAqXtQeFechGfVlNWBqcVAKVFl-ckJ_OmMAcZ9VjyBzV]--></g></svg>