<?xml version="1.0" encoding="us-ascii" standalone="no"?><svg xmlns="http://www.w3.org/2000/svg" xmlns:xlink="http://www.w3.org/1999/xlink" contentStyleType="text/css" height="476px" preserveAspectRatio="none" style="width:511px;height:476px;" version="1.1" viewBox="0 0 511 476" width="511px" zoomAndPan="magnify"><defs/><g><rect fill="none" height="474.0697" style="stroke:#0A9EFD;stroke-width:1.0;" width="509" x="0" y="0"/><rect fill="#999999" fill-opacity="0.33333" height="464.0697" style="stroke:#0A9EFD;stroke-width:0.5;" width="50.6667" x="16" y="6"/><text fill="#0A9EFD" font-family="sans-serif" font-size="13" font-weight="bold" lengthAdjust="spacing" textLength="25" x="28.8333" y="19.4951">App</text><rect fill="#999999" fill-opacity="0.33333" height="464.0697" style="stroke:#0A9EFD;stroke-width:0.5;" width="50.6667" x="225" y="6"/><text fill="#0A9EFD" font-family="sans-serif" font-size="13" font-weight="bold" lengthAdjust="spacing" textLength="27" x="236.8333" y="19.4951">SDK</text><rect fill="#999999" fill-opacity="0.33333" height="464.0697" style="stroke:#0A9EFD;stroke-width:0.5;" width="96" x="409" y="6"/><text fill="#0A9EFD" font-family="sans-serif" font-size="13" font-weight="bold" lengthAdjust="spacing" textLength="90" x="412" y="19.4951">Agora SD-RTN</text><rect fill="#0A9EFD" fill-opacity="0.06667" height="74.8462" style="stroke:#0A9EFD;stroke-width:2.0;" width="478.3333" x="10" y="142.9157"/><rect fill="#0A9EFD" fill-opacity="0.06667" height="60.8462" style="stroke:#0A9EFD;stroke-width:2.0;" width="271.6667" x="10" y="231.7619"/><line style="stroke:#0A9EFD;stroke-width:0.5;stroke-dasharray:5.0,5.0;" x1="41" x2="41" y1="68.0182" y2="425.403"/><line style="stroke:#0A9EFD;stroke-width:0.5;stroke-dasharray:5.0,5.0;" x1="250" x2="250" y1="68.0182" y2="425.403"/><line style="stroke:#0A9EFD;stroke-width:0.5;stroke-dasharray:5.0,5.0;" x1="456.6667" x2="456.6667" y1="68.0182" y2="425.403"/><rect fill="none" height="40.6667" rx="2.5" ry="2.5" style="stroke:#0A9EFD;stroke-width:2.0;" width="42.6667" x="20" y="26.3516"/><path d="M29.1333,33.3516 C28.5333,33.3516 28,33.8849 28,34.4849 L28,58.8516 C28,59.4516 28.5333,59.9849 29.1333,59.9849 L50.1667,59.9849 C50.7667,59.9849 51.3,59.4516 51.3,58.8516 L51.3,34.4849 C51.3,33.8849 50.7667,33.3516 50.1667,33.3516 L29.1333,33.3516 M31.3333,36.6849 L48,36.6849 L48,53.3516 L31.3333,53.3516 L31.3333,36.6849 M39.6667,55.0182 C40.9333,55.0182 41.7667,56.4182 41.1333,57.5182 C40.5,58.6182 38.8667,58.6182 38.2,57.5182 C37.5667,56.4182 38.3667,55.0182 39.6667,55.0182 " fill="#0A9EFD" style="stroke:;stroke-width:0.0;stroke-dasharray:;"/><rect fill="none" height="40.6667" rx="2.5" ry="2.5" style="stroke:#0A9EFD;stroke-width:2.0;" width="42.6667" x="20" y="424.403"/><path d="M29.1333,431.403 C28.5333,431.403 28,431.9363 28,432.5363 L28,456.903 C28,457.503 28.5333,458.0363 29.1333,458.0363 L50.1667,458.0363 C50.7667,458.0363 51.3,457.503 51.3,456.903 L51.3,432.5363 C51.3,431.9363 50.7667,431.403 50.1667,431.403 L29.1333,431.403 M31.3333,434.7363 L48,434.7363 L48,451.403 L31.3333,451.403 L31.3333,434.7363 M39.6667,453.0697 C40.9333,453.0697 41.7667,454.4697 41.1333,455.5697 C40.5,456.6697 38.8667,456.6697 38.2,455.5697 C37.5667,454.4697 38.3667,453.0697 39.6667,453.0697 " fill="#0A9EFD" style="stroke:;stroke-width:0.0;stroke-dasharray:;"/><rect fill="none" height="40.6667" rx="2.5" ry="2.5" style="stroke:#0A9EFD;stroke-width:2.0;" width="42.6667" x="229" y="26.3516"/><path d="M237,33.3516 L237,46.6849 L250.3333,46.6849 L250.3333,33.3516 L237,33.3516 M253.6667,40.0182 L253.6667,50.0182 L243.6667,50.0182 L243.6667,53.3516 L257,53.3516 L257,40.0182 L253.6667,40.0182 M260.3333,46.6849 L260.3333,56.6849 L250.3333,56.6849 L250.3333,60.0182 L263.6667,60.0182 L263.6667,46.6849 L260.3333,46.6849 " fill="#0A9EFD" style="stroke:;stroke-width:0.0;stroke-dasharray:;"/><rect fill="none" height="40.6667" rx="2.5" ry="2.5" style="stroke:#0A9EFD;stroke-width:2.0;" width="42.6667" x="229" y="424.403"/><path d="M237,431.403 L237,444.7363 L250.3333,444.7363 L250.3333,431.403 L237,431.403 M253.6667,438.0697 L253.6667,448.0697 L243.6667,448.0697 L243.6667,451.403 L257,451.403 L257,438.0697 L253.6667,438.0697 M260.3333,444.7363 L260.3333,454.7363 L250.3333,454.7363 L250.3333,458.0697 L263.6667,458.0697 L263.6667,444.7363 L260.3333,444.7363 " fill="#0A9EFD" style="stroke:;stroke-width:0.0;stroke-dasharray:;"/><rect fill="none" height="40.6667" rx="2.5" ry="2.5" style="stroke:#0A9EFD;stroke-width:2.0;" width="42.6667" x="435.6667" y="26.3516"/><path d="M458.6667,33.3516 C454.6333,33.3516 451.1,36.2182 450.3333,40.0182 C446.6667,40.0182 443.6667,43.0182 443.6667,46.6849 C443.6667,50.3516 446.6667,53.3516 450.3333,53.3516 L465.3333,53.3516 C468.1,53.3516 470.3333,51.1182 470.3333,48.3516 C470.3333,46.1849 468.9333,44.0516 467,43.3516 L467,41.6849 C467,37.0849 463.2667,33.3516 458.6667,33.3516 " fill="#0A9EFD" style="stroke:;stroke-width:0.0;stroke-dasharray:;"/><rect fill="none" height="40.6667" rx="2.5" ry="2.5" style="stroke:#0A9EFD;stroke-width:2.0;" width="42.6667" x="435.6667" y="424.403"/><path d="M458.6667,431.403 C454.6333,431.403 451.1,434.2697 450.3333,438.0697 C446.6667,438.0697 443.6667,441.0697 443.6667,444.7363 C443.6667,448.403 446.6667,451.403 450.3333,451.403 L465.3333,451.403 C468.1,451.403 470.3333,449.1697 470.3333,446.403 C470.3333,444.2363 468.9333,442.103 467,441.403 L467,439.7363 C467,435.1363 463.2667,431.403 458.6667,431.403 " fill="#0A9EFD" style="stroke:;stroke-width:0.0;stroke-dasharray:;"/><polygon fill="#0A9EFD" points="238.3333,94.967,248.3333,98.967,238.3333,102.967,242.3333,98.967" style="stroke:#0A9EFD;stroke-width:1.0;"/><line style="stroke:#0A9EFD;stroke-width:2.0;" x1="41.3333" x2="244.3333" y1="98.967" y2="98.967"/><text fill="#0A9EFD" font-family="Arial" font-size="13" lengthAdjust="spacing" textLength="178" x="56.8333" y="94.2121">Create and initialize the engine</text><polygon fill="#0A9EFD" points="238.3333,123.9157,248.3333,127.9157,238.3333,131.9157,242.3333,127.9157" style="stroke:#0A9EFD;stroke-width:1.0;"/><line style="stroke:#0A9EFD;stroke-width:2.0;" x1="41.3333" x2="244.3333" y1="127.9157" y2="127.9157"/><text fill="#0A9EFD" font-family="Arial" font-size="13" lengthAdjust="spacing" textLength="166" x="62.8333" y="123.1608">Create custom video track(s)</text><path d="M10,142.9157 L134,142.9157 L134,149.8644 L124,159.8644 L10,159.8644 L10,142.9157 " fill="#EEEEEE" style="stroke:#0A9EFD;stroke-width:1.5;"/><rect fill="none" height="74.8462" style="stroke:#0A9EFD;stroke-width:2.0;" width="478.3333" x="10" y="142.9157"/><text fill="#000000" font-family="Arial" font-size="13" lengthAdjust="spacing" textLength="79" x="25" y="156.1095">Join channels</text><polygon fill="#0A9EFD" points="238.3333,176.8132,248.3333,180.8132,238.3333,184.8132,242.3333,180.8132" style="stroke:#0A9EFD;stroke-width:1.0;"/><line style="stroke:#0A9EFD;stroke-width:2.0;" x1="41.3333" x2="244.3333" y1="180.8132" y2="180.8132"/><text fill="#0A9EFD" font-family="Arial" font-size="13" lengthAdjust="spacing" textLength="87" x="102.3333" y="176.0583">Join channel(s)</text><polygon fill="#0A9EFD" points="445,205.7619,455,209.7619,445,213.7619,449,209.7619" style="stroke:#0A9EFD;stroke-width:1.0;"/><line style="stroke:#0A9EFD;stroke-width:2.0;" x1="250.3333" x2="451" y1="209.7619" y2="209.7619"/><text fill="#0A9EFD" font-family="Arial" font-size="13" lengthAdjust="spacing" textLength="151" x="278.1667" y="205.007">Request to join channel(s)</text><path d="M10,231.7619 L161,231.7619 L161,238.7106 L151,248.7106 L10,248.7106 L10,231.7619 " fill="#EEEEEE" style="stroke:#0A9EFD;stroke-width:1.5;"/><rect fill="none" height="60.8462" style="stroke:#0A9EFD;stroke-width:2.0;" width="271.6667" x="10" y="231.7619"/><text fill="#000000" font-family="Arial" font-size="13" lengthAdjust="spacing" textLength="106" x="25" y="244.9557">Push video frames</text><polygon fill="#0A9EFD" points="238.3333,280.6081,248.3333,284.6081,238.3333,288.6081,242.3333,284.6081" style="stroke:#0A9EFD;stroke-width:1.0;"/><line style="stroke:#0A9EFD;stroke-width:2.0;" x1="41.3333" x2="244.3333" y1="284.6081" y2="284.6081"/><text fill="#0A9EFD" font-family="Arial" font-size="13" lengthAdjust="spacing" textLength="152" x="69.8333" y="264.9045">Push video frames to SDK</text><text fill="#0A9EFD" font-family="Arial" font-size="13" lengthAdjust="spacing" textLength="181" x="57.3333" y="279.8532">using the custom video track(s)</text><polygon fill="#0A9EFD" points="238.3333,316.5568,248.3333,320.5568,238.3333,324.5568,242.3333,320.5568" style="stroke:#0A9EFD;stroke-width:1.0;"/><line style="stroke:#0A9EFD;stroke-width:2.0;" x1="41.3333" x2="244.3333" y1="320.5568" y2="320.5568"/><text fill="#0A9EFD" font-family="Arial" font-size="13" lengthAdjust="spacing" textLength="173" x="59.3333" y="315.8019">Destroy custom video track(s)</text><polygon fill="#0A9EFD" points="238.3333,345.5055,248.3333,349.5055,238.3333,353.5055,242.3333,349.5055" style="stroke:#0A9EFD;stroke-width:1.0;"/><line style="stroke:#0A9EFD;stroke-width:2.0;" x1="41.3333" x2="244.3333" y1="349.5055" y2="349.5055"/><text fill="#0A9EFD" font-family="Arial" font-size="13" lengthAdjust="spacing" textLength="97" x="97.3333" y="344.7507">Leave channel(s)</text><polygon fill="#0A9EFD" points="445,374.4543,455,378.4543,445,382.4543,449,378.4543" style="stroke:#0A9EFD;stroke-width:1.0;"/><line style="stroke:#0A9EFD;stroke-width:2.0;" x1="250.3333" x2="451" y1="378.4543" y2="378.4543"/><text fill="#0A9EFD" font-family="Arial" font-size="13" lengthAdjust="spacing" textLength="160" x="273.6667" y="373.6994">Request to leave channel(s)</text><polygon fill="#0A9EFD" points="238.3333,403.403,248.3333,407.403,238.3333,411.403,242.3333,407.403" style="stroke:#0A9EFD;stroke-width:1.0;"/><line style="stroke:#0A9EFD;stroke-width:2.0;" x1="41.3333" x2="244.3333" y1="407.403" y2="407.403"/><text fill="#0A9EFD" font-family="Arial" font-size="13" lengthAdjust="spacing" textLength="109" x="91.3333" y="402.6481">Destroy the engine</text><!--SRC=[XP3DJeDG48NtFCN8mkW2uy8LQKY8NQanfBeqCLCOOUpbNhm_ZVNf7TeQI2bnEtFED-VC1UjIXOe0QsFntMrOtt1eLHIjpJV4UTV5KOVMSyaTQW_nml4FfNUtsUBIurgHps901tbHHAGh4DVH-h9ydBSgt95r1wi8JwnvdqNcoUhrUPvHAXEg0q9q0qAY99b0KxYtX5wgoOOrUqObPl0D0UcQDKsbPN3UjB3bYWnuY-Ncobr7KMrDwE31i8QoGQr9kP5tFE_bCamoYPJ2Yhu2EG_UmEU9IEB-SOlWckF93uijZTcJNS-IpPk6u5ZN-pRdK-yl3AIb1B5cDrTn43uHRkdVFkfKDRqqUlGl]--></g></svg>