<svg xmlns="http://www.w3.org/2000/svg" xmlns:xlink="http://www.w3.org/1999/xlink" contentStyleType="text/css" data-diagram-type="SEQUENCE" height="425px" preserveAspectRatio="none" style="width:565px;height:425px;" version="1.1" viewBox="0 0 565 425" width="565px" zoomAndPan="magnify"><?plantuml 1.2026.4?><defs/><g><rect fill="none" height="423.3988" style="stroke:#0A9EFD;stroke-width:1;" width="563.6348" x="0" y="0"/><rect fill="#999999" fill-opacity="0.33333" height="412.3988" style="stroke:#0A9EFD;stroke-width:0.5;" width="50.6667" x="16" y="6"/><text fill="#0A9EFD" font-family="sans-serif" font-size="13" font-weight="700" lengthAdjust="spacing" textLength="25.27" x="28.6983" y="19.4951">App</text><rect fill="#999999" fill-opacity="0.33333" height="412.3988" style="stroke:#0A9EFD;stroke-width:0.5;" width="50.6667" x="266.9224" y="6"/><text fill="#0A9EFD" font-family="sans-serif" font-size="13" font-weight="700" lengthAdjust="spacing" textLength="27.4473" x="278.5321" y="19.4951">SDK</text><rect fill="#999999" fill-opacity="0.33333" height="412.3988" style="stroke:#0A9EFD;stroke-width:0.5;" width="99.3154" x="459.3193" y="6"/><text fill="#0A9EFD" font-family="sans-serif" font-size="13" font-weight="700" lengthAdjust="spacing" textLength="85.9473" x="462.3193" y="21.7217">Agora SDRTN</text><text fill="#0A9EFD" font-family="sans-serif" font-size="10" font-weight="700" lengthAdjust="spacing" textLength="7.3682" x="548.2666" y="16.3809">&#174;</text><rect fill="#0A9EFD" fill-opacity="0.06667" height="153.6924" style="stroke:#0A9EFD;stroke-width:2;" width="530.3104" x="10" y="116.1935"/><g class="participant-lifeline" data-entity-uid="part1" data-qualified-name="APP" data-source-line="4" id="part1-lifeline"><g><title>.size.40...tablet.</title><rect fill="#000000" fill-opacity="0.00000" height="303.4873" width="8" x="37.3333" y="70.2448"/><line style="stroke:#0A9EFD;stroke-width:0.5;stroke-dasharray:5,5;" x1="41" x2="41" y1="70.2448" y2="373.7321"/></g></g><g class="participant-lifeline" data-entity-uid="part2" data-qualified-name="SDK" data-source-line="8" id="part2-lifeline"><g><title>.size.40...layers.</title><rect fill="#000000" fill-opacity="0.00000" height="303.4873" width="8" x="288.2557" y="70.2448"/><line style="stroke:#0A9EFD;stroke-width:0.5;stroke-dasharray:5,5;" x1="291.9224" x2="291.9224" y1="70.2448" y2="373.7321"/></g></g><g class="participant-lifeline" data-entity-uid="part3" data-qualified-name="RTN" data-source-line="12" id="part3-lifeline"><g><title>.size.40...cloud.</title><rect fill="#000000" fill-opacity="0.00000" height="303.4873" width="8" x="504.9771" y="70.2448"/><line style="stroke:#0A9EFD;stroke-width:0.5;stroke-dasharray:5,5;" x1="508.6437" x2="508.6437" y1="70.2448" y2="373.7321"/></g></g><g class="participant participant-head" data-entity-uid="part1" data-qualified-name="APP" data-source-line="4" id="part1-head"><rect fill="none" height="40.6667" rx="2.5" ry="2.5" style="stroke:#0A9EFD;stroke-width:2;" width="42.6667" x="20" y="28.5781"/><path d="M29.1333,35.5781 C28.5333,35.5781 28,36.1115 28,36.7115 L28,61.0781 C28,61.6781 28.5333,62.2115 29.1333,62.2115 L50.1667,62.2115 C50.7667,62.2115 51.3,61.6781 51.3,61.0781 L51.3,36.7115 C51.3,36.1115 50.7667,35.5781 50.1667,35.5781 L29.1333,35.5781 M31.3333,38.9115 L48,38.9115 L48,55.5781 L31.3333,55.5781 L31.3333,38.9115 M39.6667,57.2448 C40.9333,57.2448 41.7667,58.6448 41.1333,59.7448 C40.5,60.8448 38.8667,60.8448 38.2,59.7448 C37.5667,58.6448 38.3667,57.2448 39.6667,57.2448" fill="#0A9EFD"/></g><g class="participant participant-tail" data-entity-uid="part1" data-qualified-name="APP" data-source-line="4" id="part1-tail"><rect fill="none" height="40.6667" rx="2.5" ry="2.5" style="stroke:#0A9EFD;stroke-width:2;" width="42.6667" x="20" y="372.7321"/><path d="M29.1333,379.7321 C28.5333,379.7321 28,380.2654 28,380.8654 L28,405.2321 C28,405.8321 28.5333,406.3654 29.1333,406.3654 L50.1667,406.3654 C50.7667,406.3654 51.3,405.8321 51.3,405.2321 L51.3,380.8654 C51.3,380.2654 50.7667,379.7321 50.1667,379.7321 L29.1333,379.7321 M31.3333,383.0654 L48,383.0654 L48,399.7321 L31.3333,399.7321 L31.3333,383.0654 M39.6667,401.3988 C40.9333,401.3988 41.7667,402.7988 41.1333,403.8988 C40.5,404.9988 38.8667,404.9988 38.2,403.8988 C37.5667,402.7988 38.3667,401.3988 39.6667,401.3988" fill="#0A9EFD"/></g><g class="participant participant-head" data-entity-uid="part2" data-qualified-name="SDK" data-source-line="8" id="part2-head"><rect fill="none" height="40.6667" rx="2.5" ry="2.5" style="stroke:#0A9EFD;stroke-width:2;" width="42.6667" x="270.9224" y="28.5781"/><path d="M278.9224,35.5781 L278.9224,48.9115 L292.2557,48.9115 L292.2557,35.5781 L278.9224,35.5781 M295.589,42.2448 L295.589,52.2448 L285.589,52.2448 L285.589,55.5781 L298.9224,55.5781 L298.9224,42.2448 L295.589,42.2448 M302.2557,48.9115 L302.2557,58.9115 L292.2557,58.9115 L292.2557,62.2448 L305.589,62.2448 L305.589,48.9115 L302.2557,48.9115" fill="#0A9EFD"/></g><g class="participant participant-tail" data-entity-uid="part2" data-qualified-name="SDK" data-source-line="8" id="part2-tail"><rect fill="none" height="40.6667" rx="2.5" ry="2.5" style="stroke:#0A9EFD;stroke-width:2;" width="42.6667" x="270.9224" y="372.7321"/><path d="M278.9224,379.7321 L278.9224,393.0654 L292.2557,393.0654 L292.2557,379.7321 L278.9224,379.7321 M295.589,386.3988 L295.589,396.3988 L285.589,396.3988 L285.589,399.7321 L298.9224,399.7321 L298.9224,386.3988 L295.589,386.3988 M302.2557,393.0654 L302.2557,403.0654 L292.2557,403.0654 L292.2557,406.3988 L305.589,406.3988 L305.589,393.0654 L302.2557,393.0654" fill="#0A9EFD"/></g><g class="participant participant-head" data-entity-uid="part3" data-qualified-name="RTN" data-source-line="12" id="part3-head"><rect fill="none" height="40.6667" rx="2.5" ry="2.5" style="stroke:#0A9EFD;stroke-width:2;" width="42.6667" x="487.6437" y="28.5781"/><path d="M510.6437,38.9115 C506.6104,38.9115 503.0771,41.7781 502.3104,45.5781 C498.6437,45.5781 495.6437,48.5781 495.6437,52.2448 C495.6437,55.9115 498.6437,58.9115 502.3104,58.9115 L517.3104,58.9115 C520.0771,58.9115 522.3104,56.6781 522.3104,53.9115 C522.3104,51.7448 520.9104,49.6115 518.9771,48.9115 L518.9771,47.2448 C518.9771,42.6448 515.2437,38.9115 510.6437,38.9115" fill="#0A9EFD"/></g><g class="participant participant-tail" data-entity-uid="part3" data-qualified-name="RTN" data-source-line="12" id="part3-tail"><rect fill="none" height="40.6667" rx="2.5" ry="2.5" style="stroke:#0A9EFD;stroke-width:2;" width="42.6667" x="487.6437" y="372.7321"/><path d="M510.6437,383.0654 C506.6104,383.0654 503.0771,385.9321 502.3104,389.7321 C498.6437,389.7321 495.6437,392.7321 495.6437,396.3988 C495.6437,400.0654 498.6437,403.0654 502.3104,403.0654 L517.3104,403.0654 C520.0771,403.0654 522.3104,400.8321 522.3104,398.0654 C522.3104,395.8988 520.9104,393.7654 518.9771,393.0654 L518.9771,391.3988 C518.9771,386.7988 515.2437,383.0654 510.6437,383.0654" fill="#0A9EFD"/></g><g class="message" data-entity-1="part1" data-entity-2="part2" data-source-line="15" id="msg1"><polygon fill="#0A9EFD" points="280.2557,97.1935,290.2557,101.1935,280.2557,105.1935,284.2557,101.1935" style="stroke:#0A9EFD;stroke-width:1;stroke-linejoin:miter;stroke-miterlimit:10;"/><line style="stroke:#0A9EFD;stroke-width:2;" x1="41.3333" x2="286.2557" y1="101.1935" y2="101.1935"/><text fill="#0A9EFD" font-family="Arial" font-size="13" lengthAdjust="spacing" textLength="178.5088" x="77.5401" y="96.4386">Create and initialize the engine</text></g><path d="M10,116.1935 L182.1816,116.1935 L182.1816,123.1423 L172.1816,133.1423 L10,133.1423 L10,116.1935" fill="#EEEEEE" style="stroke:#0A9EFD;stroke-width:1.5;"/><rect fill="none" height="153.6924" style="stroke:#0A9EFD;stroke-width:2;" width="530.3104" x="10" y="116.1935"/><text fill="#000000" font-family="Arial" font-size="13" lengthAdjust="spacing" textLength="127.1816" x="25" y="129.3874">Custom audio capture</text><g class="message" data-entity-1="part1" data-entity-2="part2" data-source-line="18" id="msg2"><polygon fill="#0A9EFD" points="280.2557,160.5653,290.2557,164.5653,280.2557,168.5653,284.2557,164.5653" style="stroke:#0A9EFD;stroke-width:1;stroke-linejoin:miter;stroke-miterlimit:10;"/><line style="stroke:#0A9EFD;stroke-width:2;" x1="41.3333" x2="286.2557" y1="164.5653" y2="164.5653"/><text fill="#0A9EFD" font-family="Arial" font-size="13" lengthAdjust="spacing" textLength="226.9224" x="53.3333" y="159.8105">Set up an external audio source for use</text></g><path d="M297,138.1423 L297,177.1423 L512,177.1423 L512,148.1423 L502,138.1423 L297,138.1423" fill="none" style="stroke:#0A9EFD;stroke-width:1;"/><path d="M502,138.1423 L502,148.1423 L512,148.1423 L502,138.1423" fill="none" style="stroke:#0A9EFD;stroke-width:1;"/><text fill="#0A9EFD" font-family="Arial" font-size="13" lengthAdjust="spacing" textLength="185.0278" x="312" y="155.3361">You manage audio data capture</text><text fill="#0A9EFD" font-family="Arial" font-size="13" lengthAdjust="spacing" textLength="162.6016" x="325.019" y="170.2848">and processing on your own</text><g class="message" data-entity-1="part1" data-entity-2="part2" data-source-line="20" id="msg4"><polygon fill="#0A9EFD" points="280.2557,199.9884,290.2557,203.9884,280.2557,207.9884,284.2557,203.9884" style="stroke:#0A9EFD;stroke-width:1;stroke-linejoin:miter;stroke-miterlimit:10;"/><line style="stroke:#0A9EFD;stroke-width:2;" x1="41.3333" x2="286.2557" y1="203.9884" y2="203.9884"/><text fill="#0A9EFD" font-family="Arial" font-size="13" lengthAdjust="spacing" textLength="83.8398" x="124.8746" y="199.2336">Join a channel</text></g><g class="message" data-entity-1="part2" data-entity-2="part3" data-source-line="21" id="msg5"><polygon fill="#0A9EFD" points="496.9771,228.9372,506.9771,232.9372,496.9771,236.9372,500.9771,232.9372" style="stroke:#0A9EFD;stroke-width:1;stroke-linejoin:miter;stroke-miterlimit:10;"/><line style="stroke:#0A9EFD;stroke-width:2;" x1="292.2557" x2="502.9771" y1="232.9372" y2="232.9372"/><text fill="#0A9EFD" font-family="Arial" font-size="13" lengthAdjust="spacing" textLength="157.5552" x="321.8388" y="228.1823">Request to join the channel</text></g><g class="message" data-entity-1="part1" data-entity-2="part2" data-source-line="22" id="msg6"><polygon fill="#0A9EFD" points="280.2557,257.8859,290.2557,261.8859,280.2557,265.8859,284.2557,261.8859" style="stroke:#0A9EFD;stroke-width:1;stroke-linejoin:miter;stroke-miterlimit:10;"/><line style="stroke:#0A9EFD;stroke-width:2;" x1="41.3333" x2="286.2557" y1="261.8859" y2="261.8859"/><text fill="#0A9EFD" font-family="Arial" font-size="13" lengthAdjust="spacing" textLength="179.9688" x="76.8101" y="257.131">Send the processed audio data</text></g><g class="message" data-entity-1="part1" data-entity-2="part2" data-source-line="24" id="msg7"><polygon fill="#0A9EFD" points="280.2557,293.8346,290.2557,297.8346,280.2557,301.8346,284.2557,297.8346" style="stroke:#0A9EFD;stroke-width:1;stroke-linejoin:miter;stroke-miterlimit:10;"/><line style="stroke:#0A9EFD;stroke-width:2;" x1="41.3333" x2="286.2557" y1="297.8346" y2="297.8346"/><text fill="#0A9EFD" font-family="Arial" font-size="13" lengthAdjust="spacing" textLength="106.2534" x="113.6678" y="293.0798">Leave the channel</text></g><g class="message" data-entity-1="part2" data-entity-2="part3" data-source-line="25" id="msg8"><polygon fill="#0A9EFD" points="496.9771,322.7834,506.9771,326.7834,496.9771,330.7834,500.9771,326.7834" style="stroke:#0A9EFD;stroke-width:1;stroke-linejoin:miter;stroke-miterlimit:10;"/><line style="stroke:#0A9EFD;stroke-width:2;" x1="292.2557" x2="502.9771" y1="326.7834" y2="326.7834"/><text fill="#0A9EFD" font-family="Arial" font-size="13" lengthAdjust="spacing" textLength="168.397" x="316.4179" y="322.0285">Request to leave the channel</text></g><g class="message" data-entity-1="part1" data-entity-2="part2" data-source-line="26" id="msg9"><polygon fill="#0A9EFD" points="280.2557,351.7321,290.2557,355.7321,280.2557,359.7321,284.2557,355.7321" style="stroke:#0A9EFD;stroke-width:1;stroke-linejoin:miter;stroke-miterlimit:10;"/><line style="stroke:#0A9EFD;stroke-width:2;" x1="41.3333" x2="286.2557" y1="355.7321" y2="355.7321"/><text fill="#0A9EFD" font-family="Arial" font-size="13" lengthAdjust="spacing" textLength="109.1226" x="112.2332" y="350.9772">Destroy the engine</text></g><?plantuml-src TP1BJiD038RtEON9Wbs11QieYbJH5I1KjMoGa92Rc7HWQW_pW9P3SGXEXaDJDJow6idp_G_xo71jKqE0hNXy2C-6JqnQsInRo1hoiNDvvj17Knk7724lWtcduloiAeyZBYp5AWSCC9vEC-86LDLBvvEhmrAB6_9XArNmbtJSTT7vxFQc3CbLdn_bQVSUzgkjf6PhfwAzdTOQLHfGm8KdZBgc_XWsqQ1LCSGb0N5hcBAizP8SNAGGPGMO6YDGeul9qy1cJX6KGWPQH_ACjaU395yJF8g752XZqJ1lscKiu4uIh92nfPvjCEBE-vw_EpalDOLWk0LXsAWPo1iFWY_5A0dr4fd9PZeRLRfg0JDwIHGYH86dZkbMsb73tXhIVVL1r0owTFSQiDU4h_J3vzyq-mVRMqoKyR8PtlSB?></g></svg>