<svg width="1680" height="345" viewBox="0 0 1680 345" fill="none" xmlns="http://www.w3.org/2000/svg">
<g clip-path="url(#clip0_570_13267)">
<rect x="1.35602" y="0.356017" width="1678.29" height="346.288" rx="19.644" fill="#1C1F26" stroke="#2F333B" stroke-width="0.712034"/>
<path d="M0.345703 0.120117L560.345 0.120142" stroke="white" stroke-opacity="0.01" stroke-width="1.33333" stroke-linecap="round" stroke-linejoin="round"/>
<path d="M0.335938 26.7866L560.335 26.7866" stroke="white" stroke-opacity="0.01" stroke-width="1.33333" stroke-linecap="round" stroke-linejoin="round"/>
<path d="M0.327148 53.4536L560.327 53.4536" stroke="white" stroke-opacity="0.01" stroke-width="1.33333" stroke-linecap="round" stroke-linejoin="round"/>
<path d="M0.317383 80.1201L560.317 80.1201" stroke="white" stroke-opacity="0.01" stroke-width="1.33333" stroke-linecap="round" stroke-linejoin="round"/>
<path d="M0.307617 106.787L560.307 106.787" stroke="white" stroke-opacity="0.01" stroke-width="1.33333" stroke-linecap="round" stroke-linejoin="round"/>
<path d="M0.298828 133.454L560.298 133.454" stroke="white" stroke-opacity="0.01" stroke-width="1.33333" stroke-linecap="round" stroke-linejoin="round"/>
<path d="M0.289062 160.12L560.289 160.12" stroke="white" stroke-opacity="0.01" stroke-width="1.33333" stroke-linecap="round" stroke-linejoin="round"/>
<path d="M0.280273 186.787L560.28 186.787" stroke="white" stroke-opacity="0.01" stroke-width="1.33333" stroke-linecap="round" stroke-linejoin="round"/>
<path d="M0.270508 213.454L560.27 213.454" stroke="white" stroke-opacity="0.01" stroke-width="1.33333" stroke-linecap="round" stroke-linejoin="round"/>
<path d="M0.260742 240.12L560.26 240.12" stroke="white" stroke-opacity="0.01" stroke-width="1.33333" stroke-linecap="round" stroke-linejoin="round"/>
<path d="M0.251953 266.787L560.251 266.787" stroke="white" stroke-opacity="0.01" stroke-width="1.33333" stroke-linecap="round" stroke-linejoin="round"/>
<path d="M0.242188 293.454L560.242 293.454" stroke="white" stroke-opacity="0.01" stroke-width="1.33333" stroke-linecap="round" stroke-linejoin="round"/>
<path d="M0.232422 320.12L560.232 320.12" stroke="white" stroke-opacity="0.01" stroke-width="1.33333" stroke-linecap="round" stroke-linejoin="round"/>
<path d="M-0.125171 1332.47L0.402344 -159.88" stroke="white" stroke-opacity="0.01" stroke-width="1.33333" stroke-linecap="round" stroke-linejoin="round"/>
<path d="M26.5418 1332.47L27.0693 -159.88" stroke="white" stroke-opacity="0.01" stroke-width="1.33333" stroke-linecap="round" stroke-linejoin="round"/>
<path d="M53.2078 1332.47L53.7354 -159.88" stroke="white" stroke-opacity="0.01" stroke-width="1.33333" stroke-linecap="round" stroke-linejoin="round"/>
<path d="M79.8748 1332.47L80.4023 -159.88" stroke="white" stroke-opacity="0.01" stroke-width="1.33333" stroke-linecap="round" stroke-linejoin="round"/>
<path d="M106.542 1332.47L107.069 -159.88" stroke="white" stroke-opacity="0.01" stroke-width="1.33333" stroke-linecap="round" stroke-linejoin="round"/>
<path d="M133.208 1332.47L133.735 -159.88" stroke="white" stroke-opacity="0.01" stroke-width="1.33333" stroke-linecap="round" stroke-linejoin="round"/>
<path d="M159.875 1332.47L160.402 -159.88" stroke="white" stroke-opacity="0.01" stroke-width="1.33333" stroke-linecap="round" stroke-linejoin="round"/>
<path d="M186.541 1332.47L187.068 -159.88" stroke="white" stroke-opacity="0.01" stroke-width="1.33333" stroke-linecap="round" stroke-linejoin="round"/>
<path d="M213.208 1332.47L213.735 -159.88" stroke="white" stroke-opacity="0.01" stroke-width="1.33333" stroke-linecap="round" stroke-linejoin="round"/>
<path d="M239.875 1332.47L240.402 -159.88" stroke="white" stroke-opacity="0.01" stroke-width="1.33333" stroke-linecap="round" stroke-linejoin="round"/>
<path d="M266.541 1332.47L267.068 -159.88" stroke="white" stroke-opacity="0.01" stroke-width="1.33333" stroke-linecap="round" stroke-linejoin="round"/>
<path d="M293.208 1332.47L293.735 -159.88" stroke="white" stroke-opacity="0.01" stroke-width="1.33333" stroke-linecap="round" stroke-linejoin="round"/>
<path d="M319.875 1332.47L320.402 -159.88" stroke="white" stroke-opacity="0.01" stroke-width="1.33333" stroke-linecap="round" stroke-linejoin="round"/>
<path d="M346.541 1332.47L347.068 -159.88" stroke="white" stroke-opacity="0.01" stroke-width="1.33333" stroke-linecap="round" stroke-linejoin="round"/>
<path d="M373.208 1332.47L373.735 -159.88" stroke="white" stroke-opacity="0.01" stroke-width="1.33333" stroke-linecap="round" stroke-linejoin="round"/>
<path d="M399.875 1332.47L400.402 -159.88" stroke="white" stroke-opacity="0.01" stroke-width="1.33333" stroke-linecap="round" stroke-linejoin="round"/>
<path d="M426.541 1332.47L427.068 -159.88" stroke="white" stroke-opacity="0.01" stroke-width="1.33333" stroke-linecap="round" stroke-linejoin="round"/>
<path d="M453.208 1332.47L453.735 -159.88" stroke="white" stroke-opacity="0.01" stroke-width="1.33333" stroke-linecap="round" stroke-linejoin="round"/>
<path d="M479.875 1332.47L480.402 -159.88" stroke="white" stroke-opacity="0.01" stroke-width="1.33333" stroke-linecap="round" stroke-linejoin="round"/>
<path d="M506.541 1332.47L507.068 -159.88" stroke="white" stroke-opacity="0.01" stroke-width="1.33333" stroke-linecap="round" stroke-linejoin="round"/>
<path d="M533.208 1332.47L533.735 -159.88" stroke="white" stroke-opacity="0.01" stroke-width="1.33333" stroke-linecap="round" stroke-linejoin="round"/>
<path d="M559.875 1332.47L560.402 -159.88" stroke="white" stroke-opacity="0.01" stroke-width="1.33333" stroke-linecap="round" stroke-linejoin="round"/>
<path d="M560.906 0L1120.91 2.44673e-05" stroke="white" stroke-opacity="0.01" stroke-width="1.33333" stroke-linecap="round" stroke-linejoin="round"/>
<path d="M560.896 26.6665L1120.9 26.6665" stroke="white" stroke-opacity="0.01" stroke-width="1.33333" stroke-linecap="round" stroke-linejoin="round"/>
<path d="M560.888 53.3335L1120.89 53.3335" stroke="white" stroke-opacity="0.01" stroke-width="1.33333" stroke-linecap="round" stroke-linejoin="round"/>
<path d="M560.878 80L1120.88 80" stroke="white" stroke-opacity="0.01" stroke-width="1.33333" stroke-linecap="round" stroke-linejoin="round"/>
<path d="M560.868 106.667L1120.87 106.667" stroke="white" stroke-opacity="0.01" stroke-width="1.33333" stroke-linecap="round" stroke-linejoin="round"/>
<path d="M560.859 133.333L1120.86 133.334" stroke="white" stroke-opacity="0.01" stroke-width="1.33333" stroke-linecap="round" stroke-linejoin="round"/>
<path d="M560.85 160L1120.85 160" stroke="white" stroke-opacity="0.01" stroke-width="1.33333" stroke-linecap="round" stroke-linejoin="round"/>
<path d="M560.841 186.667L1120.84 186.667" stroke="white" stroke-opacity="0.01" stroke-width="1.33333" stroke-linecap="round" stroke-linejoin="round"/>
<path d="M560.831 213.333L1120.83 213.334" stroke="white" stroke-opacity="0.01" stroke-width="1.33333" stroke-linecap="round" stroke-linejoin="round"/>
<path d="M560.821 240L1120.82 240" stroke="white" stroke-opacity="0.01" stroke-width="1.33333" stroke-linecap="round" stroke-linejoin="round"/>
<path d="M560.812 266.667L1120.81 266.667" stroke="white" stroke-opacity="0.01" stroke-width="1.33333" stroke-linecap="round" stroke-linejoin="round"/>
<path d="M560.803 293.333L1120.8 293.334" stroke="white" stroke-opacity="0.01" stroke-width="1.33333" stroke-linecap="round" stroke-linejoin="round"/>
<path d="M560.793 320L1120.79 320" stroke="white" stroke-opacity="0.01" stroke-width="1.33333" stroke-linecap="round" stroke-linejoin="round"/>
<path d="M560.402 1425.78L560.963 -160" stroke="white" stroke-opacity="0.01" stroke-width="1.33333" stroke-linecap="round" stroke-linejoin="round"/>
<path d="M587.069 1425.78L587.63 -160" stroke="white" stroke-opacity="0.01" stroke-width="1.33333" stroke-linecap="round" stroke-linejoin="round"/>
<path d="M613.735 1425.78L614.296 -160" stroke="white" stroke-opacity="0.01" stroke-width="1.33333" stroke-linecap="round" stroke-linejoin="round"/>
<path d="M640.402 1425.78L640.963 -160" stroke="white" stroke-opacity="0.01" stroke-width="1.33333" stroke-linecap="round" stroke-linejoin="round"/>
<path d="M667.069 1425.78L667.63 -160" stroke="white" stroke-opacity="0.01" stroke-width="1.33333" stroke-linecap="round" stroke-linejoin="round"/>
<path d="M693.735 1425.78L694.296 -160" stroke="white" stroke-opacity="0.01" stroke-width="1.33333" stroke-linecap="round" stroke-linejoin="round"/>
<path d="M720.402 1425.78L720.963 -160" stroke="white" stroke-opacity="0.01" stroke-width="1.33333" stroke-linecap="round" stroke-linejoin="round"/>
<path d="M747.068 1425.78L747.629 -160" stroke="white" stroke-opacity="0.01" stroke-width="1.33333" stroke-linecap="round" stroke-linejoin="round"/>
<path d="M773.735 1425.78L774.296 -160" stroke="white" stroke-opacity="0.01" stroke-width="1.33333" stroke-linecap="round" stroke-linejoin="round"/>
<path d="M800.402 1425.78L800.963 -160" stroke="white" stroke-opacity="0.01" stroke-width="1.33333" stroke-linecap="round" stroke-linejoin="round"/>
<path d="M827.068 1425.78L827.629 -160" stroke="white" stroke-opacity="0.01" stroke-width="1.33333" stroke-linecap="round" stroke-linejoin="round"/>
<path d="M853.735 1425.78L854.296 -160" stroke="white" stroke-opacity="0.01" stroke-width="1.33333" stroke-linecap="round" stroke-linejoin="round"/>
<path d="M880.402 1425.78L880.963 -160" stroke="white" stroke-opacity="0.01" stroke-width="1.33333" stroke-linecap="round" stroke-linejoin="round"/>
<path d="M907.068 1425.78L907.629 -160" stroke="white" stroke-opacity="0.01" stroke-width="1.33333" stroke-linecap="round" stroke-linejoin="round"/>
<path d="M933.735 1425.78L934.296 -160" stroke="white" stroke-opacity="0.01" stroke-width="1.33333" stroke-linecap="round" stroke-linejoin="round"/>
<path d="M960.402 1425.78L960.963 -160" stroke="white" stroke-opacity="0.01" stroke-width="1.33333" stroke-linecap="round" stroke-linejoin="round"/>
<path d="M987.068 1425.78L987.629 -160" stroke="white" stroke-opacity="0.01" stroke-width="1.33333" stroke-linecap="round" stroke-linejoin="round"/>
<path d="M1013.74 1425.78L1014.3 -160" stroke="white" stroke-opacity="0.01" stroke-width="1.33333" stroke-linecap="round" stroke-linejoin="round"/>
<path d="M1040.4 1425.78L1040.96 -160" stroke="white" stroke-opacity="0.01" stroke-width="1.33333" stroke-linecap="round" stroke-linejoin="round"/>
<path d="M1067.07 1425.78L1067.63 -160" stroke="white" stroke-opacity="0.01" stroke-width="1.33333" stroke-linecap="round" stroke-linejoin="round"/>
<path d="M1093.74 1425.78L1094.3 -160" stroke="white" stroke-opacity="0.01" stroke-width="1.33333" stroke-linecap="round" stroke-linejoin="round"/>
<path d="M1120.76 25.9302L1680.76 25.36" stroke="white" stroke-opacity="0.01" stroke-width="1.33333" stroke-linecap="round" stroke-linejoin="round"/>
<path d="M1120.78 52.5972L1680.78 52.027" stroke="white" stroke-opacity="0.01" stroke-width="1.33333" stroke-linecap="round" stroke-linejoin="round"/>
<path d="M1120.8 79.2637L1680.8 78.6935" stroke="white" stroke-opacity="0.01" stroke-width="1.33333" stroke-linecap="round" stroke-linejoin="round"/>
<path d="M1120.82 105.93L1680.82 105.36" stroke="white" stroke-opacity="0.01" stroke-width="1.33333" stroke-linecap="round" stroke-linejoin="round"/>
<path d="M1120.83 132.597L1680.83 132.026" stroke="white" stroke-opacity="0.01" stroke-width="1.33333" stroke-linecap="round" stroke-linejoin="round"/>
<path d="M1120.85 159.264L1680.85 158.693" stroke="white" stroke-opacity="0.01" stroke-width="1.33333" stroke-linecap="round" stroke-linejoin="round"/>
<path d="M1120.87 185.93L1680.87 185.36" stroke="white" stroke-opacity="0.01" stroke-width="1.33333" stroke-linecap="round" stroke-linejoin="round"/>
<path d="M1120.89 212.597L1680.89 212.026" stroke="white" stroke-opacity="0.01" stroke-width="1.33333" stroke-linecap="round" stroke-linejoin="round"/>
<path d="M1120.9 239.264L1680.9 238.693" stroke="white" stroke-opacity="0.01" stroke-width="1.33333" stroke-linecap="round" stroke-linejoin="round"/>
<path d="M1120.92 265.93L1680.92 265.36" stroke="white" stroke-opacity="0.01" stroke-width="1.33333" stroke-linecap="round" stroke-linejoin="round"/>
<path d="M1120.94 292.597L1680.94 292.027" stroke="white" stroke-opacity="0.01" stroke-width="1.33333" stroke-linecap="round" stroke-linejoin="round"/>
<path d="M1120.96 319.264L1680.96 318.693" stroke="white" stroke-opacity="0.01" stroke-width="1.33333" stroke-linecap="round" stroke-linejoin="round"/>
<path d="M1120.98 345.93L1680.97 345.36" stroke="white" stroke-opacity="0.01" stroke-width="1.33333" stroke-linecap="round" stroke-linejoin="round"/>
<path d="M1121.67 1396.82L1120.64 -160.736" stroke="white" stroke-opacity="0.01" stroke-width="1.33333" stroke-linecap="round" stroke-linejoin="round"/>
<path d="M1148.34 1396.79L1147.31 -160.764" stroke="white" stroke-opacity="0.01" stroke-width="1.33333" stroke-linecap="round" stroke-linejoin="round"/>
<path d="M1175.01 1396.77L1173.97 -160.791" stroke="white" stroke-opacity="0.01" stroke-width="1.33333" stroke-linecap="round" stroke-linejoin="round"/>
<path d="M1201.67 1396.74L1200.64 -160.818" stroke="white" stroke-opacity="0.01" stroke-width="1.33333" stroke-linecap="round" stroke-linejoin="round"/>
<path d="M1228.34 1396.71L1227.31 -160.845" stroke="white" stroke-opacity="0.01" stroke-width="1.33333" stroke-linecap="round" stroke-linejoin="round"/>
<path d="M1255.01 1396.69L1253.97 -160.872" stroke="white" stroke-opacity="0.01" stroke-width="1.33333" stroke-linecap="round" stroke-linejoin="round"/>
<path d="M1281.67 1396.66L1280.64 -160.899" stroke="white" stroke-opacity="0.01" stroke-width="1.33333" stroke-linecap="round" stroke-linejoin="round"/>
<path d="M1308.34 1396.63L1307.31 -160.926" stroke="white" stroke-opacity="0.01" stroke-width="1.33333" stroke-linecap="round" stroke-linejoin="round"/>
<path d="M1335.01 1396.6L1333.97 -160.954" stroke="white" stroke-opacity="0.01" stroke-width="1.33333" stroke-linecap="round" stroke-linejoin="round"/>
<path d="M1361.67 1396.58L1360.64 -160.981" stroke="white" stroke-opacity="0.01" stroke-width="1.33333" stroke-linecap="round" stroke-linejoin="round"/>
<path d="M1388.34 1396.55L1387.31 -161.008" stroke="white" stroke-opacity="0.01" stroke-width="1.33333" stroke-linecap="round" stroke-linejoin="round"/>
<path d="M1415.01 1396.52L1413.97 -161.035" stroke="white" stroke-opacity="0.01" stroke-width="1.33333" stroke-linecap="round" stroke-linejoin="round"/>
<path d="M1441.67 1396.5L1440.64 -161.062" stroke="white" stroke-opacity="0.01" stroke-width="1.33333" stroke-linecap="round" stroke-linejoin="round"/>
<path d="M1468.34 1396.47L1467.3 -161.089" stroke="white" stroke-opacity="0.01" stroke-width="1.33333" stroke-linecap="round" stroke-linejoin="round"/>
<path d="M1495.01 1396.44L1493.97 -161.117" stroke="white" stroke-opacity="0.01" stroke-width="1.33333" stroke-linecap="round" stroke-linejoin="round"/>
<path d="M1521.67 1396.41L1520.64 -161.144" stroke="white" stroke-opacity="0.01" stroke-width="1.33333" stroke-linecap="round" stroke-linejoin="round"/>
<path d="M1548.34 1396.39L1547.3 -161.171" stroke="white" stroke-opacity="0.01" stroke-width="1.33333" stroke-linecap="round" stroke-linejoin="round"/>
<path d="M1575.01 1396.36L1573.97 -161.198" stroke="white" stroke-opacity="0.01" stroke-width="1.33333" stroke-linecap="round" stroke-linejoin="round"/>
<path d="M1601.67 1396.33L1600.64 -161.225" stroke="white" stroke-opacity="0.01" stroke-width="1.33333" stroke-linecap="round" stroke-linejoin="round"/>
<path d="M1628.34 1396.31L1627.3 -161.252" stroke="white" stroke-opacity="0.01" stroke-width="1.33333" stroke-linecap="round" stroke-linejoin="round"/>
<path d="M1655.01 1396.28L1653.97 -161.279" stroke="white" stroke-opacity="0.01" stroke-width="1.33333" stroke-linecap="round" stroke-linejoin="round"/>
<rect x="1318.59" y="132.431" width="254.995" height="105.781" rx="7.5" transform="rotate(0.0471412 1318.59 132.431)" fill="#2F333B"/>
<rect x="1318.59" y="132.431" width="254.995" height="105.781" rx="7.5" transform="rotate(0.0471412 1318.59 132.431)" stroke="#373B42"/>
<path opacity="0.8" d="M1394.42 192.883L1394.43 178.338L1399.61 178.342C1400.74 178.343 1401.68 178.55 1402.42 178.962C1403.17 179.375 1403.72 179.939 1404.09 180.654C1404.46 181.365 1404.64 182.165 1404.64 183.055C1404.64 183.95 1404.46 184.755 1404.08 185.469C1403.71 186.179 1403.15 186.742 1402.4 187.158C1401.66 187.57 1400.72 187.775 1399.6 187.774L1396.03 187.771L1396.03 185.91L1399.4 185.913C1400.12 185.914 1400.7 185.791 1401.14 185.545C1401.59 185.295 1401.91 184.954 1402.12 184.523C1402.33 184.093 1402.43 183.603 1402.44 183.053C1402.44 182.504 1402.33 182.016 1402.12 181.59C1401.92 181.164 1401.59 180.83 1401.14 180.588C1400.69 180.346 1400.11 180.225 1399.38 180.224L1396.62 180.222L1396.61 192.885L1394.42 192.883ZM1409.17 178.35L1409.16 192.896L1407.04 192.894L1407.05 178.348L1409.17 178.35ZM1415.19 193.142C1414.5 193.141 1413.88 193.013 1413.32 192.757C1412.76 192.496 1412.32 192.119 1411.99 191.627C1411.67 191.134 1411.51 190.53 1411.51 189.815C1411.51 189.2 1411.63 188.693 1411.87 188.295C1412.1 187.898 1412.42 187.583 1412.83 187.352C1413.23 187.12 1413.68 186.945 1414.18 186.827C1414.67 186.709 1415.18 186.62 1415.7 186.559C1416.35 186.483 1416.88 186.422 1417.29 186.375C1417.69 186.323 1417.99 186.241 1418.17 186.127C1418.36 186.014 1418.45 185.829 1418.45 185.574L1418.45 185.524C1418.45 184.904 1418.28 184.423 1417.93 184.082C1417.58 183.74 1417.07 183.57 1416.38 183.569C1415.67 183.568 1415.1 183.727 1414.69 184.044C1414.28 184.356 1414 184.703 1413.84 185.087L1411.85 184.631C1412.09 183.968 1412.43 183.433 1412.89 183.026C1413.35 182.615 1413.87 182.317 1414.47 182.133C1415.07 181.944 1415.69 181.85 1416.35 181.85C1416.79 181.851 1417.25 181.903 1417.74 182.008C1418.23 182.108 1418.69 182.293 1419.12 182.563C1419.55 182.833 1419.9 183.219 1420.17 183.721C1420.45 184.219 1420.58 184.865 1420.58 185.661L1420.58 192.905L1418.5 192.903L1418.5 191.412L1418.42 191.412C1418.28 191.686 1418.08 191.956 1417.8 192.221C1417.53 192.486 1417.17 192.706 1416.74 192.88C1416.31 193.055 1415.79 193.142 1415.19 193.142ZM1415.66 191.438C1416.24 191.438 1416.75 191.323 1417.16 191.091C1417.58 190.859 1417.9 190.557 1418.12 190.183C1418.34 189.804 1418.46 189.399 1418.46 188.968L1418.46 187.562C1418.38 187.638 1418.24 187.709 1418.02 187.775C1417.8 187.836 1417.56 187.891 1417.29 187.938C1417.01 187.98 1416.74 188.02 1416.48 188.058C1416.22 188.091 1416 188.119 1415.83 188.142C1415.42 188.194 1415.04 188.281 1414.7 188.404C1414.36 188.527 1414.09 188.704 1413.89 188.936C1413.69 189.163 1413.59 189.466 1413.59 189.845C1413.59 190.371 1413.78 190.769 1414.17 191.039C1414.56 191.304 1415.05 191.437 1415.66 191.438ZM1424.35 196.999C1424.04 196.999 1423.75 196.972 1423.49 196.92C1423.23 196.873 1423.03 196.82 1422.91 196.763L1423.42 195.024C1423.81 195.128 1424.15 195.173 1424.45 195.16C1424.76 195.146 1425.03 195.032 1425.26 194.819C1425.49 194.606 1425.7 194.259 1425.88 193.776L1426.15 193.052L1422.16 181.997L1424.44 181.999L1427.19 190.467L1427.31 190.467L1430.08 182.004L1432.36 182.005L1427.85 194.367C1427.64 194.935 1427.38 195.415 1427.05 195.808C1426.73 196.205 1426.35 196.503 1425.9 196.702C1425.46 196.9 1424.94 196.999 1424.35 196.999ZM1441.77 178.377L1441.76 192.922L1439.64 192.921L1439.65 178.375L1441.77 178.377ZM1449.21 193.149C1448.19 193.148 1447.3 192.913 1446.53 192.443C1445.77 191.974 1445.18 191.318 1444.76 190.475C1444.34 189.631 1444.13 188.646 1444.13 187.519C1444.13 186.388 1444.34 185.398 1444.77 184.551C1445.19 183.704 1445.78 183.046 1446.54 182.578C1447.31 182.11 1448.2 181.876 1449.22 181.877C1450.24 181.878 1451.14 182.113 1451.9 182.583C1452.66 183.052 1453.25 183.711 1453.67 184.559C1454.09 185.406 1454.3 186.396 1454.3 187.528C1454.3 188.655 1454.09 189.639 1453.67 190.482C1453.24 191.324 1452.65 191.98 1451.89 192.448C1451.13 192.916 1450.23 193.149 1449.21 193.149ZM1449.22 191.366C1449.88 191.367 1450.43 191.192 1450.87 190.842C1451.3 190.492 1451.63 190.026 1451.84 189.443C1452.05 188.861 1452.16 188.22 1452.16 187.519C1452.16 186.823 1452.05 186.184 1451.84 185.601C1451.63 185.014 1451.31 184.542 1450.87 184.187C1450.44 183.831 1449.89 183.653 1449.23 183.653C1448.56 183.652 1448 183.829 1447.56 184.184C1447.13 184.539 1446.8 185.01 1446.59 185.597C1446.38 186.179 1446.28 186.818 1446.28 187.514C1446.28 188.215 1446.38 188.857 1446.59 189.439C1446.8 190.022 1447.12 190.488 1447.56 190.839C1448 191.19 1448.55 191.365 1449.22 191.366ZM1461.26 193.159C1460.21 193.158 1459.3 192.918 1458.54 192.439C1457.78 191.955 1457.2 191.29 1456.79 190.442C1456.38 189.594 1456.18 188.623 1456.18 187.529C1456.18 186.421 1456.39 185.444 1456.81 184.597C1457.23 183.745 1457.81 183.08 1458.57 182.602C1459.33 182.125 1460.22 181.886 1461.25 181.887C1462.08 181.888 1462.82 182.042 1463.47 182.351C1464.11 182.654 1464.64 183.081 1465.03 183.63C1465.44 184.18 1465.67 184.822 1465.75 185.556L1463.68 185.554C1463.57 185.043 1463.31 184.602 1462.9 184.232C1462.5 183.863 1461.96 183.678 1461.28 183.677C1460.69 183.677 1460.17 183.832 1459.73 184.144C1459.29 184.452 1458.94 184.892 1458.7 185.465C1458.45 186.033 1458.33 186.705 1458.33 187.481C1458.33 188.277 1458.45 188.964 1458.69 189.541C1458.93 190.119 1459.27 190.567 1459.71 190.885C1460.15 191.202 1460.68 191.361 1461.28 191.362C1461.68 191.362 1462.04 191.289 1462.37 191.142C1462.7 190.991 1462.98 190.776 1463.2 190.497C1463.43 190.218 1463.59 189.882 1463.68 189.489L1465.75 189.49C1465.67 190.196 1465.44 190.825 1465.06 191.379C1464.67 191.933 1464.16 192.368 1463.51 192.685C1462.87 193.001 1462.12 193.159 1461.26 193.159ZM1471.19 193.188C1470.5 193.187 1469.87 193.059 1469.31 192.803C1468.76 192.542 1468.31 192.165 1467.99 191.673C1467.67 191.18 1467.51 190.576 1467.51 189.861C1467.51 189.246 1467.63 188.739 1467.86 188.342C1468.1 187.944 1468.42 187.629 1468.82 187.398C1469.22 187.166 1469.67 186.991 1470.17 186.873C1470.67 186.755 1471.18 186.666 1471.69 186.605C1472.35 186.529 1472.88 186.468 1473.28 186.421C1473.69 186.37 1473.99 186.287 1474.17 186.173C1474.36 186.06 1474.45 185.875 1474.45 185.62L1474.45 185.57C1474.45 184.95 1474.27 184.469 1473.92 184.128C1473.58 183.787 1473.06 183.616 1472.38 183.615C1471.66 183.615 1471.1 183.773 1470.69 184.09C1470.28 184.402 1470 184.75 1469.84 185.133L1467.84 184.677C1468.08 184.014 1468.43 183.479 1468.88 183.072C1469.34 182.661 1469.87 182.363 1470.47 182.179C1471.06 181.99 1471.69 181.896 1472.35 181.896C1472.78 181.897 1473.25 181.949 1473.73 182.054C1474.23 182.154 1474.69 182.339 1475.11 182.609C1475.54 182.879 1475.89 183.265 1476.17 183.767C1476.44 184.265 1476.58 184.911 1476.58 185.707L1476.57 192.951L1474.5 192.949L1474.5 191.458L1474.42 191.458C1474.28 191.732 1474.07 192.002 1473.8 192.267C1473.52 192.532 1473.17 192.752 1472.74 192.927C1472.31 193.101 1471.79 193.189 1471.19 193.188ZM1471.65 191.484C1472.24 191.484 1472.74 191.369 1473.16 191.137C1473.58 190.905 1473.9 190.603 1474.12 190.229C1474.34 189.85 1474.45 189.445 1474.45 189.015L1474.45 187.608C1474.38 187.684 1474.23 187.755 1474.01 187.821C1473.8 187.882 1473.56 187.937 1473.28 187.984C1473.01 188.026 1472.74 188.066 1472.48 188.104C1472.22 188.137 1472 188.165 1471.83 188.189C1471.41 188.24 1471.04 188.328 1470.7 188.45C1470.36 188.573 1470.09 188.751 1469.89 188.982C1469.69 189.21 1469.59 189.512 1469.59 189.891C1469.59 190.417 1469.78 190.815 1470.17 191.085C1470.56 191.35 1471.05 191.483 1471.65 191.484ZM1481.54 178.41L1481.53 192.955L1479.4 192.953L1479.41 178.408L1481.54 178.41ZM1486.52 178.414L1486.51 192.959L1484.38 192.957L1484.39 178.412L1486.52 178.414ZM1490.7 197.054C1490.38 197.053 1490.1 197.027 1489.83 196.975C1489.57 196.927 1489.38 196.875 1489.25 196.818L1489.77 195.078C1490.15 195.183 1490.5 195.228 1490.8 195.214C1491.11 195.2 1491.37 195.087 1491.61 194.874C1491.84 194.661 1492.05 194.313 1492.23 193.83L1492.49 193.106L1488.51 182.052L1490.78 182.054L1493.54 190.522L1493.65 190.522L1496.42 182.058L1498.7 182.06L1494.2 194.421C1493.99 194.989 1493.72 195.47 1493.4 195.863C1493.08 196.26 1492.7 196.558 1492.25 196.756C1491.8 196.955 1491.29 197.054 1490.7 197.054Z" fill="white"/>
<rect x="80.5" y="133.5" width="299" height="105.781" rx="7.5" fill="#2F333B"/>
<rect x="80.5" y="133.5" width="299" height="105.781" rx="7.5" stroke="#373B42"/>
<path opacity="0.8" d="M219.238 183.166C219.163 182.494 218.85 181.973 218.301 181.604C217.752 181.23 217.06 181.043 216.227 181.043C215.63 181.043 215.114 181.137 214.679 181.327C214.243 181.511 213.904 181.767 213.663 182.094C213.426 182.416 213.308 182.783 213.308 183.195C213.308 183.54 213.388 183.839 213.549 184.089C213.715 184.34 213.931 184.551 214.196 184.722C214.466 184.887 214.754 185.027 215.062 185.141C215.37 185.25 215.666 185.339 215.95 185.411L217.37 185.78C217.834 185.893 218.31 186.047 218.798 186.241C219.286 186.436 219.738 186.691 220.154 187.009C220.571 187.326 220.907 187.719 221.163 188.188C221.423 188.656 221.554 189.217 221.554 189.871C221.554 190.695 221.341 191.426 220.914 192.065C220.493 192.705 219.88 193.209 219.075 193.578C218.275 193.947 217.306 194.132 216.17 194.132C215.081 194.132 214.139 193.959 213.343 193.614C212.548 193.268 211.925 192.778 211.475 192.143C211.026 191.504 210.777 190.747 210.73 189.871H212.931C212.974 190.396 213.145 190.834 213.443 191.185C213.746 191.53 214.132 191.788 214.6 191.959C215.074 192.125 215.592 192.207 216.156 192.207C216.776 192.207 217.328 192.11 217.811 191.916C218.298 191.717 218.682 191.443 218.961 191.092C219.241 190.737 219.38 190.323 219.38 189.849C219.38 189.419 219.257 189.066 219.011 188.791C218.77 188.517 218.44 188.289 218.024 188.109C217.612 187.929 217.145 187.771 216.625 187.634L214.906 187.165C213.741 186.848 212.818 186.381 212.136 185.766C211.459 185.15 211.12 184.336 211.12 183.322C211.12 182.484 211.348 181.753 211.802 181.128C212.257 180.503 212.872 180.018 213.649 179.672C214.425 179.321 215.301 179.146 216.277 179.146C217.261 179.146 218.13 179.319 218.883 179.665C219.641 180.01 220.237 180.486 220.673 181.092C221.109 181.694 221.336 182.385 221.355 183.166H219.238ZM228.885 193.891H224.176V179.345H229.034C230.459 179.345 231.683 179.636 232.706 180.219C233.729 180.796 234.512 181.627 235.057 182.712C235.606 183.791 235.881 185.086 235.881 186.597C235.881 188.112 235.604 189.414 235.05 190.503C234.5 191.592 233.705 192.43 232.663 193.017C231.622 193.599 230.362 193.891 228.885 193.891ZM226.371 191.973H228.764C229.872 191.973 230.793 191.765 231.527 191.348C232.261 190.927 232.81 190.318 233.175 189.523C233.539 188.723 233.722 187.747 233.722 186.597C233.722 185.455 233.539 184.487 233.175 183.692C232.815 182.896 232.277 182.293 231.562 181.881C230.848 181.469 229.96 181.263 228.899 181.263H226.371V191.973ZM238.61 193.891V179.345H240.804V186.291H240.982L247.083 179.345H249.846L243.979 185.893L249.867 193.891H247.225L242.523 187.392L240.804 189.366V193.891H238.61Z" fill="white"/>
<rect x="690.5" y="133.5" width="299" height="105.781" rx="7.5" fill="#2F333B"/>
<rect x="690.5" y="133.5" width="299" height="105.781" rx="7.5" stroke="#373B42"/>
<path opacity="0.8" d="M754.557 193.891V179.345H759.742C760.869 179.345 761.804 179.539 762.547 179.928C763.295 180.316 763.854 180.853 764.223 181.54C764.593 182.222 764.777 183.01 764.777 183.905C764.777 184.795 764.59 185.579 764.216 186.256C763.847 186.928 763.288 187.451 762.54 187.825C761.797 188.199 760.861 188.386 759.735 188.386H755.807V186.497H759.536C760.246 186.497 760.824 186.395 761.269 186.192C761.718 185.988 762.048 185.692 762.256 185.304C762.464 184.916 762.568 184.449 762.568 183.905C762.568 183.356 762.462 182.88 762.249 182.477C762.04 182.075 761.711 181.767 761.262 181.554C760.816 181.336 760.232 181.227 759.507 181.227H756.752V193.891H754.557ZM761.737 187.328L765.331 193.891H762.831L759.308 187.328H761.737ZM771.842 194.111C770.767 194.111 769.842 193.881 769.065 193.422C768.293 192.958 767.697 192.307 767.275 191.469C766.859 190.626 766.65 189.639 766.65 188.507C766.65 187.39 766.859 186.405 767.275 185.553C767.697 184.7 768.284 184.035 769.037 183.557C769.794 183.079 770.68 182.839 771.693 182.839C772.309 182.839 772.905 182.941 773.483 183.145C774.06 183.348 774.579 183.668 775.038 184.104C775.497 184.539 775.86 185.105 776.125 185.801C776.39 186.492 776.523 187.333 776.523 188.322V189.075H767.851V187.484H774.442C774.442 186.926 774.328 186.431 774.101 186C773.873 185.564 773.554 185.221 773.142 184.97C772.735 184.719 772.256 184.594 771.707 184.594C771.111 184.594 770.59 184.741 770.145 185.034C769.704 185.323 769.363 185.702 769.122 186.17C768.885 186.634 768.767 187.139 768.767 187.683V188.926C768.767 189.655 768.895 190.276 769.15 190.787C769.411 191.298 769.773 191.689 770.237 191.959C770.701 192.224 771.243 192.357 771.863 192.357C772.266 192.357 772.633 192.3 772.964 192.186C773.296 192.068 773.582 191.893 773.824 191.661C774.065 191.429 774.25 191.142 774.378 190.801L776.388 191.163C776.227 191.755 775.938 192.274 775.521 192.719C775.109 193.159 774.591 193.502 773.966 193.749C773.345 193.99 772.638 194.111 771.842 194.111ZM781.002 187.413V193.891H778.879V182.982H780.917V184.757H781.052C781.303 184.179 781.696 183.715 782.231 183.365C782.771 183.015 783.45 182.839 784.269 182.839C785.013 182.839 785.664 182.996 786.222 183.308C786.781 183.616 787.214 184.075 787.522 184.686C787.83 185.297 787.984 186.052 787.984 186.952V193.891H785.86V187.207C785.86 186.417 785.654 185.799 785.242 185.354C784.83 184.904 784.265 184.679 783.545 184.679C783.052 184.679 782.615 184.786 782.231 184.999C781.852 185.212 781.552 185.524 781.329 185.936C781.111 186.343 781.002 186.836 781.002 187.413ZM794.916 194.104C794.035 194.104 793.249 193.879 792.558 193.429C791.871 192.974 791.331 192.328 790.938 191.49C790.55 190.647 790.356 189.636 790.356 188.457C790.356 187.278 790.552 186.27 790.945 185.432C791.343 184.594 791.888 183.952 792.579 183.507C793.27 183.062 794.054 182.839 794.93 182.839C795.607 182.839 796.151 182.953 796.563 183.18C796.98 183.403 797.302 183.663 797.529 183.962C797.761 184.26 797.941 184.523 798.069 184.75H798.197V179.345H800.32V193.891H798.247V192.193H798.069C797.941 192.425 797.757 192.69 797.515 192.989C797.278 193.287 796.952 193.547 796.535 193.77C796.118 193.992 795.579 194.104 794.916 194.104ZM795.384 192.293C795.995 192.293 796.511 192.132 796.933 191.81C797.359 191.483 797.681 191.031 797.899 190.453C798.121 189.875 798.232 189.203 798.232 188.436C798.232 187.679 798.124 187.016 797.906 186.447C797.688 185.879 797.368 185.437 796.947 185.119C796.526 184.802 796.005 184.643 795.384 184.643C794.745 184.643 794.213 184.809 793.786 185.141C793.36 185.472 793.038 185.924 792.82 186.497C792.607 187.07 792.501 187.716 792.501 188.436C792.501 189.165 792.61 189.821 792.828 190.403C793.045 190.986 793.367 191.447 793.794 191.788C794.224 192.125 794.755 192.293 795.384 192.293ZM808.053 194.111C806.978 194.111 806.053 193.881 805.276 193.422C804.504 192.958 803.908 192.307 803.486 191.469C803.07 190.626 802.861 189.639 802.861 188.507C802.861 187.39 803.07 186.405 803.486 185.553C803.908 184.7 804.495 184.035 805.248 183.557C806.005 183.079 806.891 182.839 807.904 182.839C808.519 182.839 809.116 182.941 809.694 183.145C810.271 183.348 810.79 183.668 811.249 184.104C811.708 184.539 812.071 185.105 812.336 185.801C812.601 186.492 812.733 187.333 812.733 188.322V189.075H804.062V187.484H810.653C810.653 186.926 810.539 186.431 810.312 186C810.084 185.564 809.765 185.221 809.353 184.97C808.946 184.719 808.467 184.594 807.918 184.594C807.322 184.594 806.801 184.741 806.356 185.034C805.915 185.323 805.574 185.702 805.333 186.17C805.096 186.634 804.978 187.139 804.978 187.683V188.926C804.978 189.655 805.106 190.276 805.361 190.787C805.622 191.298 805.984 191.689 806.448 191.959C806.912 192.224 807.454 192.357 808.074 192.357C808.477 192.357 808.844 192.3 809.175 192.186C809.507 192.068 809.793 191.893 810.035 191.661C810.276 191.429 810.461 191.142 810.589 190.801L812.599 191.163C812.438 191.755 812.149 192.274 811.732 192.719C811.32 193.159 810.802 193.502 810.177 193.749C809.556 193.99 808.849 194.111 808.053 194.111ZM815.09 193.891V182.982H817.142V184.714H817.256C817.455 184.127 817.805 183.666 818.307 183.33C818.814 182.989 819.387 182.818 820.026 182.818C820.158 182.818 820.315 182.823 820.494 182.832C820.679 182.842 820.824 182.854 820.928 182.868V184.899C820.843 184.875 820.691 184.849 820.473 184.821C820.255 184.788 820.038 184.771 819.82 184.771C819.318 184.771 818.87 184.878 818.477 185.091C818.089 185.299 817.781 185.59 817.554 185.964C817.327 186.334 817.213 186.755 817.213 187.229V193.891H815.09ZM822.765 193.891V182.982H824.889V193.891H822.765ZM823.838 181.298C823.469 181.298 823.151 181.175 822.886 180.929C822.626 180.678 822.496 180.38 822.496 180.034C822.496 179.684 822.626 179.385 822.886 179.139C823.151 178.888 823.469 178.763 823.838 178.763C824.207 178.763 824.522 178.888 824.782 179.139C825.048 179.385 825.18 179.684 825.18 180.034C825.18 180.38 825.048 180.678 824.782 180.929C824.522 181.175 824.207 181.298 823.838 181.298ZM829.869 187.413V193.891H827.746V182.982H829.784V184.757H829.919C830.17 184.179 830.563 183.715 831.098 183.365C831.638 183.015 832.317 182.839 833.137 182.839C833.88 182.839 834.531 182.996 835.09 183.308C835.648 183.616 836.082 184.075 836.389 184.686C836.697 185.297 836.851 186.052 836.851 186.952V193.891H834.727V187.207C834.727 186.417 834.521 185.799 834.11 185.354C833.698 184.904 833.132 184.679 832.412 184.679C831.92 184.679 831.482 184.786 831.098 184.999C830.719 185.212 830.419 185.524 830.196 185.936C829.978 186.343 829.869 186.836 829.869 187.413ZM844.273 198.209C843.406 198.209 842.661 198.095 842.036 197.868C841.415 197.641 840.909 197.34 840.516 196.966C840.123 196.592 839.829 196.182 839.635 195.737L841.46 194.984C841.588 195.193 841.759 195.413 841.972 195.645C842.19 195.882 842.483 196.083 842.852 196.249C843.227 196.414 843.707 196.497 844.294 196.497C845.099 196.497 845.764 196.301 846.29 195.908C846.816 195.519 847.078 194.899 847.078 194.047V191.902H846.943C846.816 192.134 846.631 192.392 846.389 192.676C846.153 192.96 845.826 193.206 845.409 193.415C844.993 193.623 844.45 193.727 843.783 193.727C842.921 193.727 842.145 193.526 841.453 193.124C840.767 192.716 840.222 192.117 839.82 191.327C839.422 190.531 839.223 189.554 839.223 188.393C839.223 187.233 839.42 186.239 839.813 185.411C840.21 184.582 840.755 183.947 841.446 183.507C842.137 183.062 842.921 182.839 843.797 182.839C844.474 182.839 845.021 182.953 845.438 183.18C845.854 183.403 846.179 183.663 846.411 183.962C846.647 184.26 846.83 184.523 846.958 184.75H847.114V182.982H849.195V194.132C849.195 195.07 848.977 195.839 848.541 196.44C848.106 197.042 847.516 197.487 846.773 197.776C846.034 198.064 845.201 198.209 844.273 198.209ZM844.252 191.966C844.862 191.966 845.378 191.824 845.8 191.54C846.226 191.251 846.548 190.839 846.766 190.304C846.988 189.764 847.1 189.118 847.1 188.365C847.1 187.631 846.991 186.985 846.773 186.426C846.555 185.867 846.235 185.432 845.814 185.119C845.393 184.802 844.872 184.643 844.252 184.643C843.612 184.643 843.08 184.809 842.654 185.141C842.227 185.467 841.905 185.912 841.688 186.476C841.475 187.039 841.368 187.669 841.368 188.365C841.368 189.08 841.477 189.707 841.695 190.247C841.913 190.787 842.235 191.208 842.661 191.511C843.092 191.814 843.622 191.966 844.252 191.966ZM857.506 179.345H860.17L864.8 190.652H864.971L869.601 179.345H872.265V193.891H870.177V183.365H870.042L865.752 193.869H864.019L859.729 183.358H859.594V193.891H857.506V179.345ZM879.88 194.111C878.857 194.111 877.965 193.876 877.203 193.408C876.44 192.939 875.848 192.283 875.427 191.44C875.006 190.598 874.795 189.613 874.795 188.486C874.795 187.354 875.006 186.365 875.427 185.517C875.848 184.67 876.44 184.011 877.203 183.543C877.965 183.074 878.857 182.839 879.88 182.839C880.903 182.839 881.795 183.074 882.558 183.543C883.32 184.011 883.912 184.67 884.333 185.517C884.755 186.365 884.965 187.354 884.965 188.486C884.965 189.613 884.755 190.598 884.333 191.44C883.912 192.283 883.32 192.939 882.558 193.408C881.795 193.876 880.903 194.111 879.88 194.111ZM879.887 192.328C880.55 192.328 881.099 192.153 881.535 191.803C881.971 191.452 882.293 190.986 882.501 190.403C882.714 189.821 882.82 189.179 882.82 188.479C882.82 187.783 882.714 187.143 882.501 186.561C882.293 185.974 881.971 185.503 881.535 185.148C881.099 184.793 880.55 184.615 879.887 184.615C879.22 184.615 878.666 184.793 878.225 185.148C877.79 185.503 877.465 185.974 877.252 186.561C877.044 187.143 876.94 187.783 876.94 188.479C876.94 189.179 877.044 189.821 877.252 190.403C877.465 190.986 877.79 191.452 878.225 191.803C878.666 192.153 879.22 192.328 879.887 192.328ZM891.42 194.104C890.539 194.104 889.753 193.879 889.062 193.429C888.375 192.974 887.835 192.328 887.442 191.49C887.054 190.647 886.86 189.636 886.86 188.457C886.86 187.278 887.056 186.27 887.449 185.432C887.847 184.594 888.392 183.952 889.083 183.507C889.774 183.062 890.558 182.839 891.434 182.839C892.111 182.839 892.655 182.953 893.067 183.18C893.484 183.403 893.806 183.663 894.033 183.962C894.265 184.26 894.445 184.523 894.573 184.75H894.701V179.345H896.824V193.891H894.751V192.193H894.573C894.445 192.425 894.26 192.69 894.019 192.989C893.782 193.287 893.456 193.547 893.039 193.77C892.622 193.992 892.082 194.104 891.42 194.104ZM891.888 192.293C892.499 192.293 893.015 192.132 893.437 191.81C893.863 191.483 894.185 191.031 894.403 190.453C894.625 189.875 894.736 189.203 894.736 188.436C894.736 187.679 894.627 187.016 894.41 186.447C894.192 185.879 893.872 185.437 893.451 185.119C893.029 184.802 892.509 184.643 891.888 184.643C891.249 184.643 890.716 184.809 890.29 185.141C889.864 185.472 889.542 185.924 889.324 186.497C889.111 187.07 889.005 187.716 889.005 188.436C889.005 189.165 889.114 189.821 889.331 190.403C889.549 190.986 889.871 191.447 890.297 191.788C890.728 192.125 891.259 192.293 891.888 192.293ZM906.766 189.366V182.982H908.896V193.891H906.808V192.001H906.695C906.444 192.584 906.041 193.069 905.487 193.457C904.938 193.841 904.254 194.033 903.435 194.033C902.734 194.033 902.114 193.879 901.574 193.571C901.039 193.259 900.618 192.797 900.31 192.186C900.007 191.575 899.855 190.82 899.855 189.92V182.982H901.979V189.665C901.979 190.408 902.185 191 902.597 191.44C903.009 191.881 903.544 192.101 904.202 192.101C904.6 192.101 904.995 192.001 905.388 191.803C905.786 191.604 906.115 191.303 906.375 190.901C906.64 190.498 906.771 189.987 906.766 189.366ZM913.873 179.345V193.891H911.75V179.345H913.873ZM921.432 194.111C920.357 194.111 919.432 193.881 918.655 193.422C917.883 192.958 917.287 192.307 916.865 191.469C916.449 190.626 916.24 189.639 916.24 188.507C916.24 187.39 916.449 186.405 916.865 185.553C917.287 184.7 917.874 184.035 918.627 183.557C919.384 183.079 920.27 182.839 921.283 182.839C921.898 182.839 922.495 182.941 923.073 183.145C923.65 183.348 924.169 183.668 924.628 184.104C925.087 184.539 925.45 185.105 925.715 185.801C925.98 186.492 926.112 187.333 926.112 188.322V189.075H917.441V187.484H924.031C924.031 186.926 923.918 186.431 923.691 186C923.463 185.564 923.144 185.221 922.732 184.97C922.325 184.719 921.846 184.594 921.297 184.594C920.7 184.594 920.18 184.741 919.735 185.034C919.294 185.323 918.953 185.702 918.712 186.17C918.475 186.634 918.357 187.139 918.357 187.683V188.926C918.357 189.655 918.485 190.276 918.74 190.787C919.001 191.298 919.363 191.689 919.827 191.959C920.291 192.224 920.833 192.357 921.453 192.357C921.856 192.357 922.223 192.3 922.554 192.186C922.886 192.068 923.172 191.893 923.414 191.661C923.655 191.429 923.84 191.142 923.968 190.801L925.977 191.163C925.816 191.755 925.528 192.274 925.111 192.719C924.699 193.159 924.181 193.502 923.556 193.749C922.935 193.99 922.227 194.111 921.432 194.111Z" fill="white"/>
<path opacity="0.8" d="M1049.6 166V151.455H1054.78C1055.91 151.455 1056.84 151.649 1057.59 152.037C1058.34 152.425 1058.89 152.963 1059.26 153.649C1059.63 154.331 1059.82 155.119 1059.82 156.014C1059.82 156.904 1059.63 157.688 1059.26 158.365C1058.89 159.037 1058.33 159.561 1057.58 159.935C1056.84 160.309 1055.9 160.496 1054.78 160.496H1050.85V158.607H1054.58C1055.29 158.607 1055.86 158.505 1056.31 158.301C1056.76 158.098 1057.09 157.802 1057.3 157.413C1057.51 157.025 1057.61 156.559 1057.61 156.014C1057.61 155.465 1057.5 154.989 1057.29 154.587C1057.08 154.184 1056.75 153.876 1056.3 153.663C1055.86 153.446 1055.27 153.337 1054.55 153.337H1051.79V166H1049.6ZM1056.78 159.438L1060.37 166H1057.87L1054.35 159.438H1056.78ZM1066.88 166.22C1065.81 166.22 1064.88 165.991 1064.11 165.531C1063.33 165.067 1062.74 164.416 1062.32 163.578C1061.9 162.735 1061.69 161.748 1061.69 160.616C1061.69 159.499 1061.9 158.514 1062.32 157.662C1062.74 156.81 1063.32 156.144 1064.08 155.666C1064.84 155.188 1065.72 154.949 1066.73 154.949C1067.35 154.949 1067.95 155.051 1068.52 155.254C1069.1 155.458 1069.62 155.777 1070.08 156.213C1070.54 156.649 1070.9 157.214 1071.17 157.911C1071.43 158.602 1071.56 159.442 1071.56 160.432V161.185H1062.89V159.594H1069.48C1069.48 159.035 1069.37 158.54 1069.14 158.109C1068.91 157.674 1068.59 157.33 1068.18 157.08C1067.78 156.829 1067.3 156.703 1066.75 156.703C1066.15 156.703 1065.63 156.85 1065.19 157.143C1064.75 157.432 1064.4 157.811 1064.16 158.28C1063.93 158.744 1063.81 159.248 1063.81 159.793V161.036C1063.81 161.765 1063.94 162.385 1064.19 162.896C1064.45 163.408 1064.81 163.798 1065.28 164.068C1065.74 164.333 1066.28 164.466 1066.9 164.466C1067.31 164.466 1067.67 164.409 1068.01 164.295C1068.34 164.177 1068.62 164.002 1068.86 163.77C1069.11 163.538 1069.29 163.251 1069.42 162.911L1071.43 163.273C1071.27 163.865 1070.98 164.383 1070.56 164.828C1070.15 165.268 1069.63 165.612 1069.01 165.858C1068.39 166.099 1067.68 166.22 1066.88 166.22ZM1076.04 159.523V166H1073.92V155.091H1075.96V156.866H1076.09C1076.34 156.289 1076.74 155.825 1077.27 155.474C1077.81 155.124 1078.49 154.949 1079.31 154.949C1080.05 154.949 1080.7 155.105 1081.26 155.418C1081.82 155.725 1082.26 156.185 1082.56 156.795C1082.87 157.406 1083.02 158.161 1083.02 159.061V166H1080.9V159.317C1080.9 158.526 1080.7 157.908 1080.28 157.463C1079.87 157.013 1079.31 156.788 1078.59 156.788C1078.09 156.788 1077.66 156.895 1077.27 157.108C1076.89 157.321 1076.59 157.634 1076.37 158.045C1076.15 158.453 1076.04 158.945 1076.04 159.523ZM1089.96 166.213C1089.08 166.213 1088.29 165.988 1087.6 165.538C1086.91 165.084 1086.37 164.437 1085.98 163.599C1085.59 162.757 1085.4 161.746 1085.4 160.567C1085.4 159.388 1085.59 158.379 1085.99 157.541C1086.38 156.703 1086.93 156.062 1087.62 155.616C1088.31 155.171 1089.09 154.949 1089.97 154.949C1090.65 154.949 1091.19 155.062 1091.6 155.29C1092.02 155.512 1092.34 155.773 1092.57 156.071C1092.8 156.369 1092.98 156.632 1093.11 156.859H1093.24V151.455H1095.36V166H1093.29V164.303H1093.11C1092.98 164.535 1092.8 164.8 1092.56 165.098C1092.32 165.396 1091.99 165.657 1091.58 165.879C1091.16 166.102 1090.62 166.213 1089.96 166.213ZM1090.43 164.402C1091.04 164.402 1091.55 164.241 1091.97 163.919C1092.4 163.592 1092.72 163.14 1092.94 162.562C1093.16 161.985 1093.27 161.312 1093.27 160.545C1093.27 159.788 1093.16 159.125 1092.95 158.557C1092.73 157.989 1092.41 157.546 1091.99 157.229C1091.57 156.911 1091.05 156.753 1090.43 156.753C1089.79 156.753 1089.25 156.919 1088.83 157.25C1088.4 157.581 1088.08 158.034 1087.86 158.607C1087.65 159.179 1087.54 159.826 1087.54 160.545C1087.54 161.275 1087.65 161.93 1087.87 162.513C1088.09 163.095 1088.41 163.557 1088.83 163.898C1089.27 164.234 1089.8 164.402 1090.43 164.402ZM1103.09 166.22C1102.02 166.22 1101.09 165.991 1100.32 165.531C1099.55 165.067 1098.95 164.416 1098.53 163.578C1098.11 162.735 1097.9 161.748 1097.9 160.616C1097.9 159.499 1098.11 158.514 1098.53 157.662C1098.95 156.81 1099.54 156.144 1100.29 155.666C1101.05 155.188 1101.93 154.949 1102.94 154.949C1103.56 154.949 1104.16 155.051 1104.73 155.254C1105.31 155.458 1105.83 155.777 1106.29 156.213C1106.75 156.649 1107.11 157.214 1107.38 157.911C1107.64 158.602 1107.77 159.442 1107.77 160.432V161.185H1099.1V159.594H1105.69C1105.69 159.035 1105.58 158.54 1105.35 158.109C1105.13 157.674 1104.81 157.33 1104.39 157.08C1103.99 156.829 1103.51 156.703 1102.96 156.703C1102.36 156.703 1101.84 156.85 1101.4 157.143C1100.96 157.432 1100.62 157.811 1100.37 158.28C1100.14 158.744 1100.02 159.248 1100.02 159.793V161.036C1100.02 161.765 1100.15 162.385 1100.4 162.896C1100.66 163.408 1101.02 163.798 1101.49 164.068C1101.95 164.333 1102.5 164.466 1103.12 164.466C1103.52 164.466 1103.88 164.409 1104.22 164.295C1104.55 164.177 1104.83 164.002 1105.08 163.77C1105.32 163.538 1105.5 163.251 1105.63 162.911L1107.64 163.273C1107.48 163.865 1107.19 164.383 1106.77 164.828C1106.36 165.268 1105.84 165.612 1105.22 165.858C1104.6 166.099 1103.89 166.22 1103.09 166.22ZM1110.13 166V155.091H1112.18V156.824H1112.3C1112.5 156.237 1112.85 155.775 1113.35 155.439C1113.85 155.098 1114.43 154.928 1115.07 154.928C1115.2 154.928 1115.36 154.932 1115.54 154.942C1115.72 154.951 1115.86 154.963 1115.97 154.977V157.009C1115.88 156.985 1115.73 156.959 1115.51 156.93C1115.3 156.897 1115.08 156.881 1114.86 156.881C1114.36 156.881 1113.91 156.987 1113.52 157.2C1113.13 157.409 1112.82 157.7 1112.6 158.074C1112.37 158.443 1112.25 158.865 1112.25 159.338V166H1110.13ZM1122.12 166.22C1121.04 166.22 1120.12 165.991 1119.34 165.531C1118.57 165.067 1117.97 164.416 1117.55 163.578C1117.13 162.735 1116.93 161.748 1116.93 160.616C1116.93 159.499 1117.13 158.514 1117.55 157.662C1117.97 156.81 1118.56 156.144 1119.31 155.666C1120.07 155.188 1120.96 154.949 1121.97 154.949C1122.58 154.949 1123.18 155.051 1123.76 155.254C1124.34 155.458 1124.85 155.777 1125.31 156.213C1125.77 156.649 1126.14 157.214 1126.4 157.911C1126.67 158.602 1126.8 159.442 1126.8 160.432V161.185H1118.13V159.594H1124.72C1124.72 159.035 1124.6 158.54 1124.38 158.109C1124.15 157.674 1123.83 157.33 1123.42 157.08C1123.01 156.829 1122.53 156.703 1121.98 156.703C1121.39 156.703 1120.87 156.85 1120.42 157.143C1119.98 157.432 1119.64 157.811 1119.4 158.28C1119.16 158.744 1119.04 159.248 1119.04 159.793V161.036C1119.04 161.765 1119.17 162.385 1119.43 162.896C1119.69 163.408 1120.05 163.798 1120.51 164.068C1120.98 164.333 1121.52 164.466 1122.14 164.466C1122.54 164.466 1122.91 164.409 1123.24 164.295C1123.57 164.177 1123.86 164.002 1124.1 163.77C1124.34 163.538 1124.53 163.251 1124.65 162.911L1126.66 163.273C1126.5 163.865 1126.21 164.383 1125.8 164.828C1125.38 165.268 1124.87 165.612 1124.24 165.858C1123.62 166.099 1122.91 166.22 1122.12 166.22ZM1133.24 166.213C1132.36 166.213 1131.57 165.988 1130.88 165.538C1130.19 165.084 1129.65 164.437 1129.26 163.599C1128.87 162.757 1128.68 161.746 1128.68 160.567C1128.68 159.388 1128.87 158.379 1129.27 157.541C1129.67 156.703 1130.21 156.062 1130.9 155.616C1131.59 155.171 1132.38 154.949 1133.25 154.949C1133.93 154.949 1134.47 155.062 1134.89 155.29C1135.3 155.512 1135.62 155.773 1135.85 156.071C1136.08 156.369 1136.26 156.632 1136.39 156.859H1136.52V151.455H1138.64V166H1136.57V164.303H1136.39C1136.26 164.535 1136.08 164.8 1135.84 165.098C1135.6 165.396 1135.27 165.657 1134.86 165.879C1134.44 166.102 1133.9 166.213 1133.24 166.213ZM1133.71 164.402C1134.32 164.402 1134.83 164.241 1135.25 163.919C1135.68 163.592 1136 163.14 1136.22 162.562C1136.44 161.985 1136.55 161.312 1136.55 160.545C1136.55 159.788 1136.45 159.125 1136.23 158.557C1136.01 157.989 1135.69 157.546 1135.27 157.229C1134.85 156.911 1134.33 156.753 1133.71 156.753C1133.07 156.753 1132.53 156.919 1132.11 157.25C1131.68 157.581 1131.36 158.034 1131.14 158.607C1130.93 159.179 1130.82 159.826 1130.82 160.545C1130.82 161.275 1130.93 161.93 1131.15 162.513C1131.37 163.095 1131.69 163.557 1132.12 163.898C1132.55 164.234 1133.08 164.402 1133.71 164.402ZM1150.14 166.241C1149.45 166.241 1148.83 166.114 1148.27 165.858C1147.71 165.598 1147.26 165.221 1146.94 164.729C1146.62 164.236 1146.46 163.633 1146.46 162.918C1146.46 162.302 1146.57 161.795 1146.81 161.398C1147.05 161 1147.37 160.685 1147.77 160.453C1148.17 160.221 1148.62 160.046 1149.12 159.928C1149.62 159.809 1150.12 159.719 1150.64 159.658C1151.29 159.582 1151.82 159.52 1152.23 159.473C1152.64 159.421 1152.93 159.338 1153.12 159.224C1153.3 159.111 1153.39 158.926 1153.39 158.67V158.621C1153.39 158 1153.22 157.52 1152.87 157.179C1152.52 156.838 1152.01 156.668 1151.32 156.668C1150.61 156.668 1150.04 156.826 1149.63 157.143C1149.22 157.456 1148.94 157.804 1148.78 158.188L1146.79 157.733C1147.03 157.07 1147.37 156.535 1147.83 156.128C1148.29 155.716 1148.81 155.418 1149.41 155.233C1150.01 155.044 1150.63 154.949 1151.29 154.949C1151.73 154.949 1152.19 155.001 1152.68 155.105C1153.17 155.205 1153.63 155.389 1154.05 155.659C1154.49 155.929 1154.84 156.315 1155.11 156.817C1155.39 157.314 1155.52 157.96 1155.52 158.756V166H1153.45V164.509H1153.37C1153.23 164.783 1153.02 165.053 1152.75 165.318C1152.47 165.583 1152.12 165.804 1151.69 165.979C1151.26 166.154 1150.74 166.241 1150.14 166.241ZM1150.6 164.537C1151.19 164.537 1151.69 164.421 1152.11 164.189C1152.53 163.957 1152.85 163.654 1153.07 163.28C1153.29 162.901 1153.4 162.496 1153.4 162.065V160.659C1153.33 160.735 1153.18 160.806 1152.96 160.872C1152.75 160.934 1152.5 160.988 1152.23 161.036C1151.95 161.078 1151.69 161.118 1151.43 161.156C1151.17 161.189 1150.95 161.218 1150.77 161.241C1150.36 161.294 1149.99 161.381 1149.64 161.504C1149.31 161.627 1149.04 161.805 1148.83 162.037C1148.64 162.264 1148.54 162.567 1148.54 162.946C1148.54 163.472 1148.73 163.869 1149.12 164.139C1149.51 164.404 1150 164.537 1150.6 164.537ZM1165.26 161.476V155.091H1167.39V166H1165.31V164.111H1165.19C1164.94 164.693 1164.54 165.179 1163.99 165.567C1163.44 165.95 1162.75 166.142 1161.93 166.142C1161.23 166.142 1160.61 165.988 1160.07 165.68C1159.54 165.368 1159.12 164.906 1158.81 164.295C1158.5 163.685 1158.35 162.929 1158.35 162.03V155.091H1160.48V161.774C1160.48 162.518 1160.68 163.109 1161.09 163.55C1161.51 163.99 1162.04 164.21 1162.7 164.21C1163.1 164.21 1163.49 164.111 1163.89 163.912C1164.28 163.713 1164.61 163.412 1164.87 163.01C1165.14 162.607 1165.27 162.096 1165.26 161.476ZM1174.33 166.213C1173.45 166.213 1172.67 165.988 1171.97 165.538C1171.29 165.084 1170.75 164.437 1170.35 163.599C1169.97 162.757 1169.77 161.746 1169.77 160.567C1169.77 159.388 1169.97 158.379 1170.36 157.541C1170.76 156.703 1171.3 156.062 1172 155.616C1172.69 155.171 1173.47 154.949 1174.35 154.949C1175.02 154.949 1175.57 155.062 1175.98 155.29C1176.4 155.512 1176.72 155.773 1176.95 156.071C1177.18 156.369 1177.36 156.632 1177.49 156.859H1177.61V151.455H1179.74V166H1177.66V164.303H1177.49C1177.36 164.535 1177.17 164.8 1176.93 165.098C1176.69 165.396 1176.37 165.657 1175.95 165.879C1175.53 166.102 1174.99 166.213 1174.33 166.213ZM1174.8 164.402C1175.41 164.402 1175.93 164.241 1176.35 163.919C1176.77 163.592 1177.1 163.14 1177.31 162.562C1177.54 161.985 1177.65 161.312 1177.65 160.545C1177.65 159.788 1177.54 159.125 1177.32 158.557C1177.1 157.989 1176.78 157.546 1176.36 157.229C1175.94 156.911 1175.42 156.753 1174.8 156.753C1174.16 156.753 1173.63 156.919 1173.2 157.25C1172.78 157.581 1172.45 158.034 1172.24 158.607C1172.02 159.179 1171.92 159.826 1171.92 160.545C1171.92 161.275 1172.03 161.93 1172.24 162.513C1172.46 163.095 1172.78 163.557 1173.21 163.898C1173.64 164.234 1174.17 164.402 1174.8 164.402ZM1182.77 166V155.091H1184.89V166H1182.77ZM1183.84 153.408C1183.47 153.408 1183.15 153.285 1182.89 153.038C1182.63 152.787 1182.5 152.489 1182.5 152.143C1182.5 151.793 1182.63 151.495 1182.89 151.249C1183.15 150.998 1183.47 150.872 1183.84 150.872C1184.21 150.872 1184.52 150.998 1184.78 151.249C1185.05 151.495 1185.18 151.793 1185.18 152.143C1185.18 152.489 1185.05 152.787 1184.78 153.038C1184.52 153.285 1184.21 153.408 1183.84 153.408ZM1192.34 166.22C1191.32 166.22 1190.43 165.986 1189.67 165.517C1188.9 165.048 1188.31 164.393 1187.89 163.55C1187.47 162.707 1187.26 161.722 1187.26 160.595C1187.26 159.464 1187.47 158.474 1187.89 157.626C1188.31 156.779 1188.9 156.121 1189.67 155.652C1190.43 155.183 1191.32 154.949 1192.34 154.949C1193.37 154.949 1194.26 155.183 1195.02 155.652C1195.78 156.121 1196.37 156.779 1196.8 157.626C1197.22 158.474 1197.43 159.464 1197.43 160.595C1197.43 161.722 1197.22 162.707 1196.8 163.55C1196.37 164.393 1195.78 165.048 1195.02 165.517C1194.26 165.986 1193.37 166.22 1192.34 166.22ZM1192.35 164.438C1193.01 164.438 1193.56 164.262 1194 163.912C1194.43 163.562 1194.76 163.095 1194.96 162.513C1195.18 161.93 1195.28 161.289 1195.28 160.588C1195.28 159.892 1195.18 159.253 1194.96 158.67C1194.76 158.083 1194.43 157.612 1194 157.257C1193.56 156.902 1193.01 156.724 1192.35 156.724C1191.68 156.724 1191.13 156.902 1190.69 157.257C1190.25 157.612 1189.93 158.083 1189.72 158.67C1189.51 159.253 1189.4 159.892 1189.4 160.588C1189.4 161.289 1189.51 161.93 1189.72 162.513C1189.93 163.095 1190.25 163.562 1190.69 163.912C1191.13 164.262 1191.68 164.438 1192.35 164.438ZM1210.28 155.091V156.795H1204.12V155.091H1210.28ZM1205.81 166V153.827C1205.81 153.145 1205.96 152.579 1206.26 152.129C1206.55 151.675 1206.95 151.336 1207.44 151.114C1207.93 150.886 1208.47 150.773 1209.05 150.773C1209.47 150.773 1209.84 150.808 1210.14 150.879C1210.44 150.946 1210.67 151.007 1210.82 151.064L1210.32 152.783C1210.22 152.754 1210.09 152.721 1209.94 152.683C1209.78 152.641 1209.59 152.619 1209.37 152.619C1208.85 152.619 1208.48 152.747 1208.26 153.003C1208.04 153.259 1207.93 153.628 1207.93 154.111V166H1205.81ZM1212.47 166V155.091H1214.53V156.824H1214.64C1214.84 156.237 1215.19 155.775 1215.69 155.439C1216.2 155.098 1216.77 154.928 1217.41 154.928C1217.54 154.928 1217.7 154.932 1217.88 154.942C1218.06 154.951 1218.21 154.963 1218.31 154.977V157.009C1218.23 156.985 1218.08 156.959 1217.86 156.93C1217.64 156.897 1217.42 156.881 1217.2 156.881C1216.7 156.881 1216.26 156.987 1215.86 157.2C1215.47 157.409 1215.17 157.7 1214.94 158.074C1214.71 158.443 1214.6 158.865 1214.6 159.338V166H1212.47ZM1223.23 166.241C1222.54 166.241 1221.91 166.114 1221.35 165.858C1220.79 165.598 1220.35 165.221 1220.02 164.729C1219.7 164.236 1219.54 163.633 1219.54 162.918C1219.54 162.302 1219.66 161.795 1219.9 161.398C1220.13 161 1220.45 160.685 1220.86 160.453C1221.26 160.221 1221.71 160.046 1222.2 159.928C1222.7 159.809 1223.21 159.719 1223.72 159.658C1224.38 159.582 1224.91 159.52 1225.32 159.473C1225.72 159.421 1226.02 159.338 1226.2 159.224C1226.39 159.111 1226.48 158.926 1226.48 158.67V158.621C1226.48 158 1226.3 157.52 1225.95 157.179C1225.61 156.838 1225.09 156.668 1224.41 156.668C1223.69 156.668 1223.13 156.826 1222.72 157.143C1222.31 157.456 1222.03 157.804 1221.87 158.188L1219.88 157.733C1220.11 157.07 1220.46 156.535 1220.91 156.128C1221.37 155.716 1221.9 155.418 1222.5 155.233C1223.09 155.044 1223.72 154.949 1224.38 154.949C1224.81 154.949 1225.28 155.001 1225.76 155.105C1226.26 155.205 1226.71 155.389 1227.14 155.659C1227.57 155.929 1227.92 156.315 1228.2 156.817C1228.47 157.314 1228.61 157.96 1228.61 158.756V166H1226.54V164.509H1226.45C1226.31 164.783 1226.11 165.053 1225.83 165.318C1225.56 165.583 1225.21 165.804 1224.78 165.979C1224.34 166.154 1223.83 166.241 1223.23 166.241ZM1223.69 164.537C1224.28 164.537 1224.78 164.421 1225.19 164.189C1225.62 163.957 1225.94 163.654 1226.15 163.28C1226.38 162.901 1226.49 162.496 1226.49 162.065V160.659C1226.41 160.735 1226.26 160.806 1226.05 160.872C1225.83 160.934 1225.59 160.988 1225.32 161.036C1225.04 161.078 1224.77 161.118 1224.51 161.156C1224.25 161.189 1224.03 161.218 1223.86 161.241C1223.45 161.294 1223.07 161.381 1222.73 161.504C1222.39 161.627 1222.12 161.805 1221.92 162.037C1221.72 162.264 1221.62 162.567 1221.62 162.946C1221.62 163.472 1221.82 163.869 1222.2 164.139C1222.59 164.404 1223.09 164.537 1223.69 164.537ZM1231.44 166V155.091H1233.48V156.866H1233.61C1233.84 156.265 1234.21 155.796 1234.73 155.46C1235.24 155.119 1235.86 154.949 1236.58 154.949C1237.31 154.949 1237.92 155.119 1238.41 155.46C1238.91 155.801 1239.28 156.27 1239.51 156.866H1239.63C1239.89 156.284 1240.3 155.82 1240.87 155.474C1241.44 155.124 1242.12 154.949 1242.9 154.949C1243.89 154.949 1244.7 155.259 1245.32 155.879C1245.95 156.5 1246.27 157.435 1246.27 158.685V166H1244.15V158.884C1244.15 158.145 1243.94 157.61 1243.54 157.278C1243.14 156.947 1242.66 156.781 1242.1 156.781C1241.41 156.781 1240.87 156.994 1240.49 157.42C1240.1 157.842 1239.91 158.384 1239.91 159.047V166H1237.8V158.749C1237.8 158.157 1237.61 157.681 1237.24 157.321C1236.87 156.961 1236.39 156.781 1235.8 156.781C1235.4 156.781 1235.03 156.888 1234.69 157.101C1234.35 157.309 1234.08 157.6 1233.87 157.974C1233.66 158.348 1233.56 158.782 1233.56 159.274V166H1231.44ZM1253.82 166.22C1252.74 166.22 1251.82 165.991 1251.04 165.531C1250.27 165.067 1249.67 164.416 1249.25 163.578C1248.83 162.735 1248.62 161.748 1248.62 160.616C1248.62 159.499 1248.83 158.514 1249.25 157.662C1249.67 156.81 1250.26 156.144 1251.01 155.666C1251.77 155.188 1252.65 154.949 1253.67 154.949C1254.28 154.949 1254.88 155.051 1255.46 155.254C1256.04 155.458 1256.55 155.777 1257.01 156.213C1257.47 156.649 1257.83 157.214 1258.1 157.911C1258.36 158.602 1258.5 159.442 1258.5 160.432V161.185H1249.83V159.594H1256.42C1256.42 159.035 1256.3 158.54 1256.08 158.109C1255.85 157.674 1255.53 157.33 1255.12 157.08C1254.71 156.829 1254.23 156.703 1253.68 156.703C1253.09 156.703 1252.56 156.85 1252.12 157.143C1251.68 157.432 1251.34 157.811 1251.1 158.28C1250.86 158.744 1250.74 159.248 1250.74 159.793V161.036C1250.74 161.765 1250.87 162.385 1251.12 162.896C1251.39 163.408 1251.75 163.798 1252.21 164.068C1252.68 164.333 1253.22 164.466 1253.84 164.466C1254.24 164.466 1254.61 164.409 1254.94 164.295C1255.27 164.177 1255.56 164.002 1255.8 163.77C1256.04 163.538 1256.22 163.251 1256.35 162.911L1258.36 163.273C1258.2 163.865 1257.91 164.383 1257.5 164.828C1257.08 165.268 1256.57 165.612 1255.94 165.858C1255.32 166.099 1254.61 166.22 1253.82 166.22Z" fill="white"/>
<path opacity="0.8" d="M408.098 166V151.455H413.283C414.414 151.455 415.352 151.661 416.095 152.072C416.839 152.484 417.395 153.048 417.764 153.763C418.134 154.473 418.318 155.273 418.318 156.163C418.318 157.058 418.131 157.863 417.757 158.578C417.388 159.288 416.829 159.852 416.081 160.268C415.338 160.68 414.402 160.886 413.276 160.886H409.71V159.026H413.077C413.792 159.026 414.372 158.902 414.817 158.656C415.262 158.405 415.589 158.064 415.797 157.634C416.005 157.203 416.109 156.713 416.109 156.163C416.109 155.614 416.005 155.126 415.797 154.7C415.589 154.274 415.259 153.94 414.81 153.699C414.365 153.457 413.777 153.337 413.048 153.337H410.293V166H408.098ZM423.798 166.241C423.106 166.241 422.481 166.114 421.923 165.858C421.364 165.598 420.921 165.221 420.594 164.729C420.272 164.236 420.112 163.633 420.112 162.918C420.112 162.302 420.23 161.795 420.467 161.398C420.703 161 421.023 160.685 421.425 160.453C421.828 160.221 422.278 160.046 422.775 159.928C423.272 159.809 423.779 159.719 424.295 159.658C424.948 159.582 425.478 159.52 425.886 159.473C426.293 159.421 426.589 159.338 426.773 159.224C426.958 159.111 427.05 158.926 427.05 158.67V158.621C427.05 158 426.875 157.52 426.525 157.179C426.179 156.838 425.663 156.668 424.977 156.668C424.262 156.668 423.698 156.826 423.286 157.143C422.879 157.456 422.597 157.804 422.441 158.188L420.445 157.733C420.682 157.07 421.028 156.535 421.482 156.128C421.942 155.716 422.469 155.418 423.066 155.233C423.663 155.044 424.29 154.949 424.948 154.949C425.384 154.949 425.845 155.001 426.333 155.105C426.826 155.205 427.285 155.389 427.711 155.659C428.142 155.929 428.495 156.315 428.769 156.817C429.044 157.314 429.181 157.96 429.181 158.756V166H427.107V164.509H427.022C426.885 164.783 426.679 165.053 426.404 165.318C426.129 165.583 425.777 165.804 425.346 165.979C424.915 166.154 424.399 166.241 423.798 166.241ZM424.259 164.537C424.846 164.537 425.348 164.421 425.765 164.189C426.186 163.957 426.506 163.654 426.724 163.28C426.946 162.901 427.058 162.496 427.058 162.065V160.659C426.982 160.735 426.835 160.806 426.617 160.872C426.404 160.934 426.16 160.988 425.886 161.036C425.611 161.078 425.344 161.118 425.083 161.156C424.823 161.189 424.605 161.218 424.43 161.241C424.018 161.294 423.641 161.381 423.3 161.504C422.964 161.627 422.694 161.805 422.491 162.037C422.292 162.264 422.192 162.567 422.192 162.946C422.192 163.472 422.387 163.869 422.775 164.139C423.163 164.404 423.658 164.537 424.259 164.537ZM440.184 157.754L438.26 158.095C438.179 157.849 438.051 157.615 437.876 157.392C437.706 157.17 437.474 156.987 437.18 156.845C436.886 156.703 436.52 156.632 436.079 156.632C435.478 156.632 434.976 156.767 434.574 157.037C434.171 157.302 433.97 157.645 433.97 158.067C433.97 158.431 434.105 158.725 434.375 158.947C434.645 159.17 435.08 159.352 435.681 159.494L437.414 159.892C438.418 160.124 439.166 160.482 439.659 160.964C440.151 161.447 440.397 162.075 440.397 162.847C440.397 163.5 440.208 164.082 439.829 164.594C439.455 165.1 438.932 165.498 438.26 165.787C437.592 166.076 436.818 166.22 435.937 166.22C434.716 166.22 433.719 165.96 432.947 165.439C432.175 164.913 431.702 164.168 431.527 163.202L433.579 162.889C433.707 163.424 433.97 163.829 434.368 164.104C434.765 164.374 435.284 164.509 435.923 164.509C436.619 164.509 437.175 164.364 437.592 164.075C438.009 163.782 438.217 163.424 438.217 163.003C438.217 162.662 438.089 162.375 437.833 162.143C437.583 161.911 437.197 161.736 436.676 161.618L434.829 161.213C433.811 160.981 433.058 160.612 432.571 160.105C432.088 159.598 431.846 158.957 431.846 158.18C431.846 157.536 432.026 156.973 432.386 156.49C432.746 156.007 433.243 155.631 433.877 155.361C434.512 155.086 435.239 154.949 436.058 154.949C437.237 154.949 438.165 155.205 438.842 155.716C439.519 156.223 439.967 156.902 440.184 157.754ZM450.907 157.754L448.982 158.095C448.902 157.849 448.774 157.615 448.599 157.392C448.428 157.17 448.196 156.987 447.903 156.845C447.609 156.703 447.242 156.632 446.802 156.632C446.201 156.632 445.699 156.767 445.296 157.037C444.894 157.302 444.692 157.645 444.692 158.067C444.692 158.431 444.827 158.725 445.097 158.947C445.367 159.17 445.803 159.352 446.404 159.494L448.137 159.892C449.141 160.124 449.889 160.482 450.381 160.964C450.874 161.447 451.12 162.075 451.12 162.847C451.12 163.5 450.931 164.082 450.552 164.594C450.178 165.1 449.655 165.498 448.982 165.787C448.315 166.076 447.54 166.22 446.66 166.22C445.438 166.22 444.442 165.96 443.67 165.439C442.898 164.913 442.424 164.168 442.249 163.202L444.302 162.889C444.43 163.424 444.692 163.829 445.09 164.104C445.488 164.374 446.006 164.509 446.646 164.509C447.342 164.509 447.898 164.364 448.315 164.075C448.731 163.782 448.94 163.424 448.94 163.003C448.94 162.662 448.812 162.375 448.556 162.143C448.305 161.911 447.919 161.736 447.398 161.618L445.552 161.213C444.534 160.981 443.781 160.612 443.293 160.105C442.81 159.598 442.569 158.957 442.569 158.18C442.569 157.536 442.749 156.973 443.109 156.49C443.469 156.007 443.966 155.631 444.6 155.361C445.235 155.086 445.961 154.949 446.781 154.949C447.96 154.949 448.888 155.205 449.565 155.716C450.242 156.223 450.689 156.902 450.907 157.754ZM458.748 166V155.091H460.8V156.824H460.914C461.113 156.237 461.463 155.775 461.965 155.439C462.472 155.098 463.045 154.928 463.684 154.928C463.817 154.928 463.973 154.932 464.153 154.942C464.337 154.951 464.482 154.963 464.586 154.977V157.009C464.501 156.985 464.349 156.959 464.131 156.93C463.914 156.897 463.696 156.881 463.478 156.881C462.976 156.881 462.529 156.987 462.136 157.2C461.747 157.409 461.44 157.7 461.212 158.074C460.985 158.443 460.871 158.865 460.871 159.338V166H458.748ZM470.735 166.22C469.66 166.22 468.734 165.991 467.958 165.531C467.186 165.067 466.589 164.416 466.168 163.578C465.751 162.735 465.543 161.748 465.543 160.616C465.543 159.499 465.751 158.514 466.168 157.662C466.589 156.81 467.176 156.144 467.929 155.666C468.687 155.188 469.572 154.949 470.586 154.949C471.201 154.949 471.798 155.051 472.375 155.254C472.953 155.458 473.471 155.777 473.931 156.213C474.39 156.649 474.752 157.214 475.017 157.911C475.283 158.602 475.415 159.442 475.415 160.432V161.185H466.743V159.594H473.334C473.334 159.035 473.221 158.54 472.993 158.109C472.766 157.674 472.446 157.33 472.034 157.08C471.627 156.829 471.149 156.703 470.6 156.703C470.003 156.703 469.482 156.85 469.037 157.143C468.597 157.432 468.256 157.811 468.015 158.28C467.778 158.744 467.659 159.248 467.659 159.793V161.036C467.659 161.765 467.787 162.385 468.043 162.896C468.303 163.408 468.666 163.798 469.13 164.068C469.594 164.333 470.136 164.466 470.756 164.466C471.158 164.466 471.525 164.409 471.857 164.295C472.188 164.177 472.475 164.002 472.716 163.77C472.958 163.538 473.142 163.251 473.27 162.911L475.28 163.273C475.119 163.865 474.83 164.383 474.414 164.828C474.002 165.268 473.483 165.612 472.858 165.858C472.238 166.099 471.53 166.22 470.735 166.22ZM479.895 159.523V166H477.771V155.091H479.81V156.866H479.945C480.196 156.289 480.589 155.825 481.124 155.474C481.663 155.124 482.343 154.949 483.162 154.949C483.905 154.949 484.556 155.105 485.115 155.418C485.674 155.725 486.107 156.185 486.415 156.795C486.723 157.406 486.876 158.161 486.876 159.061V166H484.753V159.317C484.753 158.526 484.547 157.908 484.135 157.463C483.723 157.013 483.157 156.788 482.438 156.788C481.945 156.788 481.507 156.895 481.124 157.108C480.745 157.321 480.444 157.634 480.222 158.045C480.004 158.453 479.895 158.945 479.895 159.523ZM493.808 166.213C492.928 166.213 492.142 165.988 491.45 165.538C490.764 165.084 490.224 164.437 489.831 163.599C489.443 162.757 489.249 161.746 489.249 160.567C489.249 159.388 489.445 158.379 489.838 157.541C490.236 156.703 490.78 156.062 491.472 155.616C492.163 155.171 492.946 154.949 493.822 154.949C494.5 154.949 495.044 155.062 495.456 155.29C495.873 155.512 496.195 155.773 496.422 156.071C496.654 156.369 496.834 156.632 496.962 156.859H497.089V151.455H499.213V166H497.139V164.303H496.962C496.834 164.535 496.649 164.8 496.408 165.098C496.171 165.396 495.844 165.657 495.428 165.879C495.011 166.102 494.471 166.213 493.808 166.213ZM494.277 164.402C494.888 164.402 495.404 164.241 495.825 163.919C496.251 163.592 496.573 163.14 496.791 162.562C497.014 161.985 497.125 161.312 497.125 160.545C497.125 159.788 497.016 159.125 496.798 158.557C496.58 157.989 496.261 157.546 495.839 157.229C495.418 156.911 494.897 156.753 494.277 156.753C493.638 156.753 493.105 156.919 492.679 157.25C492.253 157.581 491.931 158.034 491.713 158.607C491.5 159.179 491.393 159.826 491.393 160.545C491.393 161.275 491.502 161.93 491.72 162.513C491.938 163.095 492.26 163.557 492.686 163.898C493.117 164.234 493.647 164.402 494.277 164.402ZM506.946 166.22C505.871 166.22 504.945 165.991 504.169 165.531C503.397 165.067 502.8 164.416 502.379 163.578C501.962 162.735 501.754 161.748 501.754 160.616C501.754 159.499 501.962 158.514 502.379 157.662C502.8 156.81 503.387 156.144 504.14 155.666C504.898 155.188 505.783 154.949 506.797 154.949C507.412 154.949 508.009 155.051 508.586 155.254C509.164 155.458 509.682 155.777 510.142 156.213C510.601 156.649 510.963 157.214 511.228 157.911C511.493 158.602 511.626 159.442 511.626 160.432V161.185H502.954V159.594H509.545C509.545 159.035 509.431 158.54 509.204 158.109C508.977 157.674 508.657 157.33 508.245 157.08C507.838 156.829 507.36 156.703 506.811 156.703C506.214 156.703 505.693 156.85 505.248 157.143C504.808 157.432 504.467 157.811 504.225 158.28C503.989 158.744 503.87 159.248 503.87 159.793V161.036C503.87 161.765 503.998 162.385 504.254 162.896C504.514 163.408 504.877 163.798 505.341 164.068C505.805 164.333 506.347 164.466 506.967 164.466C507.369 164.466 507.736 164.409 508.068 164.295C508.399 164.177 508.686 164.002 508.927 163.77C509.169 163.538 509.353 163.251 509.481 162.911L511.491 163.273C511.33 163.865 511.041 164.383 510.625 164.828C510.213 165.268 509.694 165.612 509.069 165.858C508.449 166.099 507.741 166.22 506.946 166.22ZM513.982 166V155.091H516.035V156.824H516.148C516.347 156.237 516.698 155.775 517.2 155.439C517.706 155.098 518.279 154.928 518.918 154.928C519.051 154.928 519.207 154.932 519.387 154.942C519.572 154.951 519.716 154.963 519.82 154.977V157.009C519.735 156.985 519.584 156.959 519.366 156.93C519.148 156.897 518.93 156.881 518.712 156.881C518.21 156.881 517.763 156.987 517.37 157.2C516.982 157.409 516.674 157.7 516.447 158.074C516.219 158.443 516.106 158.865 516.106 159.338V166H513.982ZM525.969 166.22C524.894 166.22 523.969 165.991 523.192 165.531C522.42 165.067 521.824 164.416 521.402 163.578C520.986 162.735 520.777 161.748 520.777 160.616C520.777 159.499 520.986 158.514 521.402 157.662C521.824 156.81 522.411 156.144 523.164 155.666C523.921 155.188 524.807 154.949 525.82 154.949C526.435 154.949 527.032 155.051 527.61 155.254C528.187 155.458 528.706 155.777 529.165 156.213C529.624 156.649 529.987 157.214 530.252 157.911C530.517 158.602 530.65 159.442 530.65 160.432V161.185H521.978V159.594H528.569C528.569 159.035 528.455 158.54 528.228 158.109C528 157.674 527.681 157.33 527.269 157.08C526.862 156.829 526.383 156.703 525.834 156.703C525.238 156.703 524.717 156.85 524.272 157.143C523.831 157.432 523.49 157.811 523.249 158.28C523.012 158.744 522.894 159.248 522.894 159.793V161.036C522.894 161.765 523.022 162.385 523.277 162.896C523.538 163.408 523.9 163.798 524.364 164.068C524.828 164.333 525.37 164.466 525.99 164.466C526.393 164.466 526.76 164.409 527.091 164.295C527.423 164.177 527.709 164.002 527.951 163.77C528.192 163.538 528.377 163.251 528.505 162.911L530.515 163.273C530.354 163.865 530.065 164.383 529.648 164.828C529.236 165.268 528.718 165.612 528.093 165.858C527.472 166.099 526.765 166.22 525.969 166.22ZM537.089 166.213C536.209 166.213 535.423 165.988 534.732 165.538C534.045 165.084 533.505 164.437 533.112 163.599C532.724 162.757 532.53 161.746 532.53 160.567C532.53 159.388 532.726 158.379 533.119 157.541C533.517 156.703 534.062 156.062 534.753 155.616C535.444 155.171 536.228 154.949 537.104 154.949C537.781 154.949 538.325 155.062 538.737 155.29C539.154 155.512 539.476 155.773 539.703 156.071C539.935 156.369 540.115 156.632 540.243 156.859H540.371V151.455H542.494V166H540.42V164.303H540.243C540.115 164.535 539.93 164.8 539.689 165.098C539.452 165.396 539.125 165.657 538.709 165.879C538.292 166.102 537.752 166.213 537.089 166.213ZM537.558 164.402C538.169 164.402 538.685 164.241 539.107 163.919C539.533 163.592 539.855 163.14 540.072 162.562C540.295 161.985 540.406 161.312 540.406 160.545C540.406 159.788 540.297 159.125 540.08 158.557C539.862 157.989 539.542 157.546 539.121 157.229C538.699 156.911 538.179 156.753 537.558 156.753C536.919 156.753 536.386 156.919 535.96 157.25C535.534 157.581 535.212 158.034 534.994 158.607C534.781 159.179 534.675 159.826 534.675 160.545C534.675 161.275 534.784 161.93 535.001 162.513C535.219 163.095 535.541 163.557 535.967 163.898C536.398 164.234 536.929 164.402 537.558 164.402ZM553.993 166.241C553.302 166.241 552.677 166.114 552.118 165.858C551.559 165.598 551.116 165.221 550.79 164.729C550.468 164.236 550.307 163.633 550.307 162.918C550.307 162.302 550.425 161.795 550.662 161.398C550.899 161 551.218 160.685 551.621 160.453C552.023 160.221 552.473 160.046 552.97 159.928C553.467 159.809 553.974 159.719 554.49 159.658C555.143 159.582 555.674 159.52 556.081 159.473C556.488 159.421 556.784 159.338 556.969 159.224C557.153 159.111 557.246 158.926 557.246 158.67V158.621C557.246 158 557.071 157.52 556.72 157.179C556.375 156.838 555.858 156.668 555.172 156.668C554.457 156.668 553.893 156.826 553.482 157.143C553.074 157.456 552.793 157.804 552.636 158.188L550.641 157.733C550.877 157.07 551.223 156.535 551.678 156.128C552.137 155.716 552.665 155.418 553.261 155.233C553.858 155.044 554.485 154.949 555.143 154.949C555.579 154.949 556.041 155.001 556.528 155.105C557.021 155.205 557.48 155.389 557.906 155.659C558.337 155.929 558.69 156.315 558.964 156.817C559.239 157.314 559.376 157.96 559.376 158.756V166H557.303V164.509H557.217C557.08 164.783 556.874 165.053 556.599 165.318C556.325 165.583 555.972 165.804 555.541 165.979C555.11 166.154 554.594 166.241 553.993 166.241ZM554.455 164.537C555.042 164.537 555.544 164.421 555.96 164.189C556.382 163.957 556.701 163.654 556.919 163.28C557.142 162.901 557.253 162.496 557.253 162.065V160.659C557.177 160.735 557.03 160.806 556.812 160.872C556.599 160.934 556.356 160.988 556.081 161.036C555.806 161.078 555.539 161.118 555.278 161.156C555.018 161.189 554.8 161.218 554.625 161.241C554.213 161.294 553.837 161.381 553.496 161.504C553.16 161.627 552.89 161.805 552.686 162.037C552.487 162.264 552.388 162.567 552.388 162.946C552.388 163.472 552.582 163.869 552.97 164.139C553.358 164.404 553.853 164.537 554.455 164.537ZM569.115 161.476V155.091H571.246V166H569.158V164.111H569.044C568.793 164.693 568.391 165.179 567.837 165.567C567.288 165.95 566.604 166.142 565.784 166.142C565.084 166.142 564.463 165.988 563.924 165.68C563.389 165.368 562.967 164.906 562.659 164.295C562.356 163.685 562.205 162.929 562.205 162.03V155.091H564.328V161.774C564.328 162.518 564.534 163.109 564.946 163.55C565.358 163.99 565.893 164.21 566.551 164.21C566.949 164.21 567.345 164.111 567.738 163.912C568.135 163.713 568.464 163.412 568.725 163.01C568.99 162.607 569.12 162.096 569.115 161.476ZM578.183 166.213C577.303 166.213 576.517 165.988 575.825 165.538C575.139 165.084 574.599 164.437 574.206 163.599C573.818 162.757 573.624 161.746 573.624 160.567C573.624 159.388 573.82 158.379 574.213 157.541C574.611 156.703 575.155 156.062 575.847 155.616C576.538 155.171 577.321 154.949 578.197 154.949C578.875 154.949 579.419 155.062 579.831 155.29C580.248 155.512 580.57 155.773 580.797 156.071C581.029 156.369 581.209 156.632 581.337 156.859H581.464V151.455H583.588V166H581.514V164.303H581.337C581.209 164.535 581.024 164.8 580.783 165.098C580.546 165.396 580.219 165.657 579.803 165.879C579.386 166.102 578.846 166.213 578.183 166.213ZM578.652 164.402C579.263 164.402 579.779 164.241 580.2 163.919C580.626 163.592 580.948 163.14 581.166 162.562C581.389 161.985 581.5 161.312 581.5 160.545C581.5 159.788 581.391 159.125 581.173 158.557C580.955 157.989 580.636 157.546 580.214 157.229C579.793 156.911 579.272 156.753 578.652 156.753C578.013 156.753 577.48 156.919 577.054 157.25C576.628 157.581 576.306 158.034 576.088 158.607C575.875 159.179 575.768 159.826 575.768 160.545C575.768 161.275 575.877 161.93 576.095 162.513C576.313 163.095 576.635 163.557 577.061 163.898C577.492 164.234 578.022 164.402 578.652 164.402ZM586.619 166V155.091H588.743V166H586.619ZM587.691 153.408C587.322 153.408 587.005 153.285 586.74 153.038C586.479 152.787 586.349 152.489 586.349 152.143C586.349 151.793 586.479 151.495 586.74 151.249C587.005 150.998 587.322 150.872 587.691 150.872C588.061 150.872 588.376 150.998 588.636 151.249C588.901 151.495 589.034 151.793 589.034 152.143C589.034 152.489 588.901 152.787 588.636 153.038C588.376 153.285 588.061 153.408 587.691 153.408ZM596.195 166.22C595.172 166.22 594.279 165.986 593.517 165.517C592.755 165.048 592.163 164.393 591.741 163.55C591.32 162.707 591.109 161.722 591.109 160.595C591.109 159.464 591.32 158.474 591.741 157.626C592.163 156.779 592.755 156.121 593.517 155.652C594.279 155.183 595.172 154.949 596.195 154.949C597.217 154.949 598.11 155.183 598.872 155.652C599.634 156.121 600.226 156.779 600.648 157.626C601.069 158.474 601.28 159.464 601.28 160.595C601.28 161.722 601.069 162.707 600.648 163.55C600.226 164.393 599.634 165.048 598.872 165.517C598.11 165.986 597.217 166.22 596.195 166.22ZM596.202 164.438C596.865 164.438 597.414 164.262 597.849 163.912C598.285 163.562 598.607 163.095 598.815 162.513C599.028 161.93 599.135 161.289 599.135 160.588C599.135 159.892 599.028 159.253 598.815 158.67C598.607 158.083 598.285 157.612 597.849 157.257C597.414 156.902 596.865 156.724 596.202 156.724C595.534 156.724 594.98 156.902 594.54 157.257C594.104 157.612 593.78 158.083 593.567 158.67C593.358 159.253 593.254 159.892 593.254 160.588C593.254 161.289 593.358 161.93 593.567 162.513C593.78 163.095 594.104 163.562 594.54 163.912C594.98 164.262 595.534 164.438 596.202 164.438ZM614.135 155.091V156.795H607.97V155.091H614.135ZM609.661 166V153.827C609.661 153.145 609.81 152.579 610.108 152.129C610.406 151.675 610.802 151.336 611.294 151.114C611.786 150.886 612.321 150.773 612.899 150.773C613.325 150.773 613.69 150.808 613.993 150.879C614.296 150.946 614.521 151.007 614.668 151.064L614.17 152.783C614.071 152.754 613.943 152.721 613.787 152.683C613.631 152.641 613.441 152.619 613.219 152.619C612.703 152.619 612.333 152.747 612.111 153.003C611.893 153.259 611.784 153.628 611.784 154.111V166H609.661ZM616.326 166V155.091H618.379V156.824H618.492C618.691 156.237 619.041 155.775 619.543 155.439C620.05 155.098 620.623 154.928 621.262 154.928C621.395 154.928 621.551 154.932 621.731 154.942C621.915 154.951 622.06 154.963 622.164 154.977V157.009C622.079 156.985 621.927 156.959 621.71 156.93C621.492 156.897 621.274 156.881 621.056 156.881C620.554 156.881 620.107 156.987 619.714 157.2C619.326 157.409 619.018 157.7 618.79 158.074C618.563 158.443 618.45 158.865 618.45 159.338V166H616.326ZM627.079 166.241C626.388 166.241 625.763 166.114 625.204 165.858C624.645 165.598 624.202 165.221 623.876 164.729C623.554 164.236 623.393 163.633 623.393 162.918C623.393 162.302 623.511 161.795 623.748 161.398C623.985 161 624.304 160.685 624.707 160.453C625.109 160.221 625.559 160.046 626.056 159.928C626.553 159.809 627.06 159.719 627.576 159.658C628.229 159.582 628.76 159.52 629.167 159.473C629.574 159.421 629.87 159.338 630.055 159.224C630.239 159.111 630.332 158.926 630.332 158.67V158.621C630.332 158 630.156 157.52 629.806 157.179C629.46 156.838 628.944 156.668 628.258 156.668C627.543 156.668 626.979 156.826 626.567 157.143C626.16 157.456 625.879 157.804 625.722 158.188L623.727 157.733C623.963 157.07 624.309 156.535 624.763 156.128C625.223 155.716 625.751 155.418 626.347 155.233C626.944 155.044 627.571 154.949 628.229 154.949C628.665 154.949 629.127 155.001 629.614 155.105C630.107 155.205 630.566 155.389 630.992 155.659C631.423 155.929 631.776 156.315 632.05 156.817C632.325 157.314 632.462 157.96 632.462 158.756V166H630.388V164.509H630.303C630.166 164.783 629.96 165.053 629.685 165.318C629.411 165.583 629.058 165.804 628.627 165.979C628.196 166.154 627.68 166.241 627.079 166.241ZM627.54 164.537C628.128 164.537 628.629 164.421 629.046 164.189C629.468 163.957 629.787 163.654 630.005 163.28C630.228 162.901 630.339 162.496 630.339 162.065V160.659C630.263 160.735 630.116 160.806 629.898 160.872C629.685 160.934 629.442 160.988 629.167 161.036C628.892 161.078 628.625 161.118 628.364 161.156C628.104 161.189 627.886 161.218 627.711 161.241C627.299 161.294 626.923 161.381 626.582 161.504C626.246 161.627 625.976 161.805 625.772 162.037C625.573 162.264 625.474 162.567 625.474 162.946C625.474 163.472 625.668 163.869 626.056 164.139C626.444 164.404 626.939 164.537 627.54 164.537ZM635.291 166V155.091H637.329V156.866H637.464C637.691 156.265 638.063 155.796 638.579 155.46C639.095 155.119 639.713 154.949 640.433 154.949C641.162 154.949 641.773 155.119 642.265 155.46C642.762 155.801 643.129 156.27 643.366 156.866H643.48C643.74 156.284 644.154 155.82 644.723 155.474C645.291 155.124 645.968 154.949 646.754 154.949C647.743 154.949 648.551 155.259 649.176 155.879C649.806 156.5 650.12 157.435 650.12 158.685V166H647.997V158.884C647.997 158.145 647.796 157.61 647.393 157.278C646.991 156.947 646.51 156.781 645.951 156.781C645.26 156.781 644.723 156.994 644.339 157.42C643.956 157.842 643.764 158.384 643.764 159.047V166H641.647V158.749C641.647 158.157 641.463 157.681 641.093 157.321C640.724 156.961 640.243 156.781 639.652 156.781C639.249 156.781 638.877 156.888 638.537 157.101C638.2 157.309 637.928 157.6 637.72 157.974C637.516 158.348 637.414 158.782 637.414 159.274V166H635.291ZM657.668 166.22C656.594 166.22 655.668 165.991 654.891 165.531C654.12 165.067 653.523 164.416 653.102 163.578C652.685 162.735 652.477 161.748 652.477 160.616C652.477 159.499 652.685 158.514 653.102 157.662C653.523 156.81 654.11 156.144 654.863 155.666C655.621 155.188 656.506 154.949 657.519 154.949C658.135 154.949 658.731 155.051 659.309 155.254C659.887 155.458 660.405 155.777 660.864 156.213C661.324 156.649 661.686 157.214 661.951 157.911C662.216 158.602 662.349 159.442 662.349 160.432V161.185H653.677V159.594H660.268C660.268 159.035 660.154 158.54 659.927 158.109C659.7 157.674 659.38 157.33 658.968 157.08C658.561 156.829 658.083 156.703 657.533 156.703C656.937 156.703 656.416 156.85 655.971 157.143C655.531 157.432 655.19 157.811 654.948 158.28C654.711 158.744 654.593 159.248 654.593 159.793V161.036C654.593 161.765 654.721 162.385 654.977 162.896C655.237 163.408 655.599 163.798 656.063 164.068C656.527 164.333 657.069 164.466 657.69 164.466C658.092 164.466 658.459 164.409 658.79 164.295C659.122 164.177 659.408 164.002 659.65 163.77C659.891 163.538 660.076 163.251 660.204 162.911L662.214 163.273C662.053 163.865 661.764 164.383 661.347 164.828C660.935 165.268 660.417 165.612 659.792 165.858C659.172 166.099 658.464 166.22 657.668 166.22Z" fill="white"/>
<path d="M690 186L680 180.227L680 191.774L690 186ZM380 187L681 187L681 185L380 185L380 187Z" fill="#A8E2FB"/>
<path d="M1318 187L1308 181.227L1308 192.774L1318 187ZM990 188L1309 188L1309 186L990 186L990 188Z" fill="#A8E2FB"/>
</g>
<defs>
<clipPath id="clip0_570_13267">
<rect width="1680" height="345" rx="20" fill="white"/>
</clipPath>
</defs>
</svg>
