<?xml version="1.0" encoding="us-ascii" standalone="no"?><svg xmlns="http://www.w3.org/2000/svg" xmlns:xlink="http://www.w3.org/1999/xlink" contentStyleType="text/css" height="545px" preserveAspectRatio="none" style="width:607px;height:545px;" version="1.1" viewBox="0 0 607 545" width="607px" zoomAndPan="magnify"><defs/><g><rect fill="none" height="543.9261" style="stroke:#0A9EFD;stroke-width:1.0;" width="605" x="0" y="0"/><rect fill="#999999" fill-opacity="0.33333" height="533.9261" style="stroke:#0A9EFD;stroke-width:0.5;" width="50.6667" x="16" y="6"/><text fill="#0A9EFD" font-family="sans-serif" font-size="13" font-weight="bold" lengthAdjust="spacing" textLength="28" x="27.3333" y="18.5684">App</text><rect fill="#999999" fill-opacity="0.33333" height="533.9261" style="stroke:#0A9EFD;stroke-width:0.5;" width="50.6667" x="311" y="6"/><text fill="#0A9EFD" font-family="sans-serif" font-size="13" font-weight="bold" lengthAdjust="spacing" textLength="26" x="323.3333" y="18.5684">SDK</text><rect fill="#999999" fill-opacity="0.33333" height="533.9261" style="stroke:#0A9EFD;stroke-width:0.5;" width="104" x="497" y="6"/><text fill="#0A9EFD" font-family="sans-serif" font-size="13" font-weight="bold" lengthAdjust="spacing" textLength="98" x="500" y="18.5684">Agora SD-RTN</text><rect fill="#0A9EFD" fill-opacity="0.06667" height="74.8462" style="stroke:#0A9EFD;stroke-width:2.0;" width="570.3333" x="10" y="141.8747"/><rect fill="#0A9EFD" fill-opacity="0.06667" height="131.7437" style="stroke:#0A9EFD;stroke-width:2.0;" width="570.3333" x="10" y="230.7209"/><line style="stroke:#0A9EFD;stroke-width:0.5;stroke-dasharray:5.0,5.0;" x1="41" x2="41" y1="66.9772" y2="495.2594"/><line style="stroke:#0A9EFD;stroke-width:0.5;stroke-dasharray:5.0,5.0;" x1="336" x2="336" y1="66.9772" y2="495.2594"/><line style="stroke:#0A9EFD;stroke-width:0.5;stroke-dasharray:5.0,5.0;" x1="548.6667" x2="548.6667" y1="66.9772" y2="495.2594"/><rect fill="none" height="40.6667" rx="2.5" ry="2.5" style="stroke:#0A9EFD;stroke-width:2.0;" width="42.6667" x="20" y="25.3105"/><path d="M29.1333,32.3105 C28.5333,32.3105 28,32.8439 28,33.4439 L28,57.8105 C28,58.4105 28.5333,58.9439 29.1333,58.9439 L50.1667,58.9439 C50.7667,58.9439 51.3,58.4105 51.3,57.8105 L51.3,33.4439 C51.3,32.8439 50.7667,32.3105 50.1667,32.3105 L29.1333,32.3105 M31.3333,35.6439 L48,35.6439 L48,52.3105 L31.3333,52.3105 L31.3333,35.6439 M39.6667,53.9772 C40.9333,53.9772 41.7667,55.3772 41.1333,56.4772 C40.5,57.5772 38.8667,57.5772 38.2,56.4772 C37.5667,55.3772 38.3667,53.9772 39.6667,53.9772 " fill="#0A9EFD" style="stroke:;stroke-width:0.0;stroke-dasharray:;"/><rect fill="none" height="40.6667" rx="2.5" ry="2.5" style="stroke:#0A9EFD;stroke-width:2.0;" width="42.6667" x="20" y="494.2594"/><path d="M29.1333,501.2594 C28.5333,501.2594 28,501.7928 28,502.3928 L28,526.7594 C28,527.3594 28.5333,527.8928 29.1333,527.8928 L50.1667,527.8928 C50.7667,527.8928 51.3,527.3594 51.3,526.7594 L51.3,502.3928 C51.3,501.7928 50.7667,501.2594 50.1667,501.2594 L29.1333,501.2594 M31.3333,504.5928 L48,504.5928 L48,521.2594 L31.3333,521.2594 L31.3333,504.5928 M39.6667,522.9261 C40.9333,522.9261 41.7667,524.3261 41.1333,525.4261 C40.5,526.5261 38.8667,526.5261 38.2,525.4261 C37.5667,524.3261 38.3667,522.9261 39.6667,522.9261 " fill="#0A9EFD" style="stroke:;stroke-width:0.0;stroke-dasharray:;"/><rect fill="none" height="40.6667" rx="2.5" ry="2.5" style="stroke:#0A9EFD;stroke-width:2.0;" width="42.6667" x="315" y="25.3105"/><path d="M323,32.3105 L323,45.6439 L336.3333,45.6439 L336.3333,32.3105 L323,32.3105 M339.6667,38.9772 L339.6667,48.9772 L329.6667,48.9772 L329.6667,52.3105 L343,52.3105 L343,38.9772 L339.6667,38.9772 M346.3333,45.6439 L346.3333,55.6439 L336.3333,55.6439 L336.3333,58.9772 L349.6667,58.9772 L349.6667,45.6439 L346.3333,45.6439 " fill="#0A9EFD" style="stroke:;stroke-width:0.0;stroke-dasharray:;"/><rect fill="none" height="40.6667" rx="2.5" ry="2.5" style="stroke:#0A9EFD;stroke-width:2.0;" width="42.6667" x="315" y="494.2594"/><path d="M323,501.2594 L323,514.5928 L336.3333,514.5928 L336.3333,501.2594 L323,501.2594 M339.6667,507.9261 L339.6667,517.9261 L329.6667,517.9261 L329.6667,521.2594 L343,521.2594 L343,507.9261 L339.6667,507.9261 M346.3333,514.5928 L346.3333,524.5928 L336.3333,524.5928 L336.3333,527.9261 L349.6667,527.9261 L349.6667,514.5928 L346.3333,514.5928 " fill="#0A9EFD" style="stroke:;stroke-width:0.0;stroke-dasharray:;"/><rect fill="none" height="40.6667" rx="2.5" ry="2.5" style="stroke:#0A9EFD;stroke-width:2.0;" width="42.6667" x="527.6667" y="25.3105"/><path d="M550.6667,32.3105 C546.6333,32.3105 543.1,35.1772 542.3333,38.9772 C538.6667,38.9772 535.6667,41.9772 535.6667,45.6439 C535.6667,49.3105 538.6667,52.3105 542.3333,52.3105 L557.3333,52.3105 C560.1,52.3105 562.3333,50.0772 562.3333,47.3105 C562.3333,45.1439 560.9333,43.0105 559,42.3105 L559,40.6439 C559,36.0439 555.2667,32.3105 550.6667,32.3105 " fill="#0A9EFD" style="stroke:;stroke-width:0.0;stroke-dasharray:;"/><rect fill="none" height="40.6667" rx="2.5" ry="2.5" style="stroke:#0A9EFD;stroke-width:2.0;" width="42.6667" x="527.6667" y="494.2594"/><path d="M550.6667,501.2594 C546.6333,501.2594 543.1,504.1261 542.3333,507.9261 C538.6667,507.9261 535.6667,510.9261 535.6667,514.5928 C535.6667,518.2594 538.6667,521.2594 542.3333,521.2594 L557.3333,521.2594 C560.1,521.2594 562.3333,519.0261 562.3333,516.2594 C562.3333,514.0928 560.9333,511.9594 559,511.2594 L559,509.5928 C559,504.9928 555.2667,501.2594 550.6667,501.2594 " fill="#0A9EFD" style="stroke:;stroke-width:0.0;stroke-dasharray:;"/><polygon fill="#0A9EFD" points="324.3333,93.9259,334.3333,97.9259,324.3333,101.9259,328.3333,97.9259" style="stroke:#0A9EFD;stroke-width:1.0;"/><line style="stroke:#0A9EFD;stroke-width:2.0;" x1="41.3333" x2="330.3333" y1="97.9259" y2="97.9259"/><text fill="#0A9EFD" font-family="Arial" font-size="13" lengthAdjust="spacing" textLength="178" x="99.8333" y="93.1711">Create and initialize the engine</text><polygon fill="#0A9EFD" points="324.3333,122.8747,334.3333,126.8747,324.3333,130.8747,328.3333,126.8747" style="stroke:#0A9EFD;stroke-width:1.0;"/><line style="stroke:#0A9EFD;stroke-width:2.0;" x1="41.3333" x2="330.3333" y1="126.8747" y2="126.8747"/><text fill="#0A9EFD" font-family="Arial" font-size="13" lengthAdjust="spacing" textLength="188" x="94.8333" y="122.1198">Set up the external video source</text><path d="M10,141.8747 L135,141.8747 L135,148.8234 L125,158.8234 L10,158.8234 L10,141.8747 " fill="#EEEEEE" style="stroke:#0A9EFD;stroke-width:1.5;"/><rect fill="none" height="74.8462" style="stroke:#0A9EFD;stroke-width:2.0;" width="570.3333" x="10" y="141.8747"/><text fill="#000000" font-family="Arial" font-size="13" lengthAdjust="spacing" textLength="80" x="25" y="155.0685">Join channels</text><polygon fill="#0A9EFD" points="324.3333,175.7721,334.3333,179.7721,324.3333,183.7721,328.3333,179.7721" style="stroke:#0A9EFD;stroke-width:1.0;"/><line style="stroke:#0A9EFD;stroke-width:2.0;" x1="41.3333" x2="330.3333" y1="179.7721" y2="179.7721"/><text fill="#0A9EFD" font-family="Arial" font-size="13" lengthAdjust="spacing" textLength="88" x="144.8333" y="175.0173">Join channel(s)</text><polygon fill="#0A9EFD" points="537,204.7209,547,208.7209,537,212.7209,541,208.7209" style="stroke:#0A9EFD;stroke-width:1.0;"/><line style="stroke:#0A9EFD;stroke-width:2.0;" x1="336.3333" x2="543" y1="208.7209" y2="208.7209"/><text fill="#0A9EFD" font-family="Arial" font-size="13" lengthAdjust="spacing" textLength="151" x="367.1667" y="203.966">Request to join channel(s)</text><path d="M10,230.7209 L164,230.7209 L164,237.6696 L154,247.6696 L10,247.6696 L10,230.7209 " fill="#EEEEEE" style="stroke:#0A9EFD;stroke-width:1.5;"/><rect fill="none" height="131.7437" style="stroke:#0A9EFD;stroke-width:2.0;" width="570.3333" x="10" y="230.7209"/><text fill="#000000" font-family="Arial" font-size="13" lengthAdjust="spacing" textLength="109" x="25" y="243.9147">Push video frames</text><line style="stroke:#0A9EFD;stroke-width:2.0;" x1="41.3333" x2="83.3333" y1="283.5671" y2="283.5671"/><line style="stroke:#0A9EFD;stroke-width:2.0;" x1="83.3333" x2="83.3333" y1="283.5671" y2="296.5671"/><line style="stroke:#0A9EFD;stroke-width:2.0;" x1="42.3333" x2="83.3333" y1="296.5671" y2="296.5671"/><polygon fill="#0A9EFD" points="52.3333,292.5671,42.3333,296.5671,52.3333,300.5671,48.3333,296.5671" style="stroke:#0A9EFD;stroke-width:1.0;"/><text fill="#0A9EFD" font-family="Arial" font-size="13" lengthAdjust="spacing" textLength="166" x="56.8333" y="263.8634">Load the video data from the</text><text fill="#0A9EFD" font-family="Arial" font-size="13" lengthAdjust="spacing" textLength="187" x="48.3333" y="278.8122">local video file into video frames</text><polygon fill="#0A9EFD" points="324.3333,321.5158,334.3333,325.5158,324.3333,329.5158,328.3333,325.5158" style="stroke:#0A9EFD;stroke-width:1.0;"/><line style="stroke:#0A9EFD;stroke-width:2.0;" x1="41.3333" x2="330.3333" y1="325.5158" y2="325.5158"/><text fill="#0A9EFD" font-family="Arial" font-size="13" lengthAdjust="spacing" textLength="224" x="76.8333" y="320.7609">Triggers a thread to push video frames</text><polygon fill="#0A9EFD" points="537,350.4645,547,354.4645,537,358.4645,541,354.4645" style="stroke:#0A9EFD;stroke-width:1.0;"/><line style="stroke:#0A9EFD;stroke-width:2.0;" x1="336.3333" x2="543" y1="354.4645" y2="354.4645"/><text fill="#0A9EFD" font-family="Arial" font-size="13" lengthAdjust="spacing" textLength="155" x="365.1667" y="349.7096">Push video frames to SDK</text><polygon fill="#0A9EFD" points="324.3333,386.4132,334.3333,390.4132,324.3333,394.4132,328.3333,390.4132" style="stroke:#0A9EFD;stroke-width:1.0;"/><line style="stroke:#0A9EFD;stroke-width:2.0;" x1="41.3333" x2="330.3333" y1="390.4132" y2="390.4132"/><text fill="#0A9EFD" font-family="Arial" font-size="13" lengthAdjust="spacing" textLength="271" x="53.3333" y="385.6584">Terminate the thread that pushes video frames</text><polygon fill="#0A9EFD" points="324.3333,415.362,334.3333,419.362,324.3333,423.362,328.3333,419.362" style="stroke:#0A9EFD;stroke-width:1.0;"/><line style="stroke:#0A9EFD;stroke-width:2.0;" x1="41.3333" x2="330.3333" y1="419.362" y2="419.362"/><text fill="#0A9EFD" font-family="Arial" font-size="13" lengthAdjust="spacing" textLength="99" x="139.3333" y="414.6071">Leave channel(s)</text><polygon fill="#0A9EFD" points="537,444.3107,547,448.3107,537,452.3107,541,448.3107" style="stroke:#0A9EFD;stroke-width:1.0;"/><line style="stroke:#0A9EFD;stroke-width:2.0;" x1="336.3333" x2="543" y1="448.3107" y2="448.3107"/><text fill="#0A9EFD" font-family="Arial" font-size="13" lengthAdjust="spacing" textLength="162" x="361.6667" y="443.5558">Request to leave channel(s)</text><polygon fill="#0A9EFD" points="324.3333,473.2594,334.3333,477.2594,324.3333,481.2594,328.3333,477.2594" style="stroke:#0A9EFD;stroke-width:1.0;"/><line style="stroke:#0A9EFD;stroke-width:2.0;" x1="41.3333" x2="330.3333" y1="477.2594" y2="477.2594"/><text fill="#0A9EFD" font-family="Arial" font-size="13" lengthAdjust="spacing" textLength="109" x="134.3333" y="472.5046">Destroy the engine</text><!--SRC=[XP5DJy9048Rl_HLZ3qOF60-U6jA4o4c98S3Hn0pjq8vkT-j-4F3NE_r0AeHmsSFC-xxppEmDwqo5d00BO_73VR5-u52fA5gR7SIJkewZ6gtdZ6lK7kAnunzAdXxJyQt7jIAVne0E9lDvH3e7SVNMvVJribNXdgphh28yiKuQ5gcF5gktoncPCY7l8aHtZ12KKIgX2JnRGY-hIOSrUqObPl0b0Uc2DGsaI_8GwgwtysGrAjXoJWQS2JQZA2gi4S6BOGrPYLgJSWF_i7xdxYCfZbB1Ic11tu6S1s_WyqGao8VSUN1bFt1ZiQ8-Mvu4PWRpbgphv-XHHAPgQ-zQcUmFTiEAP5UPTPxLSgui5uMS7b3SSfwyuQhFXX_npy0QG_zbmrklo5QictCtL8Vi4dsRBhP_-GFZZ71BLq-dJbN7WAb8hDaF__KN]--></g></svg>