<svg width="1680" height="345" viewBox="0 0 1680 345" fill="none" xmlns="http://www.w3.org/2000/svg">
<g clip-path="url(#clip0_570_13267)">
<rect x="1.35602" y="0.356017" width="1678.29" height="346.288" rx="19.644" fill="#1C1F26" stroke="#2F333B" stroke-width="0.712034"/>
<path d="M0.345703 0.120117L560.345 0.120142" stroke="white" stroke-opacity="0.01" stroke-width="1.33333" stroke-linecap="round" stroke-linejoin="round"/>
<path d="M0.335938 26.7866L560.335 26.7866" stroke="white" stroke-opacity="0.01" stroke-width="1.33333" stroke-linecap="round" stroke-linejoin="round"/>
<path d="M0.327148 53.4536L560.327 53.4536" stroke="white" stroke-opacity="0.01" stroke-width="1.33333" stroke-linecap="round" stroke-linejoin="round"/>
<path d="M0.317383 80.1201L560.317 80.1201" stroke="white" stroke-opacity="0.01" stroke-width="1.33333" stroke-linecap="round" stroke-linejoin="round"/>
<path d="M0.307617 106.787L560.307 106.787" stroke="white" stroke-opacity="0.01" stroke-width="1.33333" stroke-linecap="round" stroke-linejoin="round"/>
<path d="M0.298828 133.454L560.298 133.454" stroke="white" stroke-opacity="0.01" stroke-width="1.33333" stroke-linecap="round" stroke-linejoin="round"/>
<path d="M0.289062 160.12L560.289 160.12" stroke="white" stroke-opacity="0.01" stroke-width="1.33333" stroke-linecap="round" stroke-linejoin="round"/>
<path d="M0.280273 186.787L560.28 186.787" stroke="white" stroke-opacity="0.01" stroke-width="1.33333" stroke-linecap="round" stroke-linejoin="round"/>
<path d="M0.270508 213.454L560.27 213.454" stroke="white" stroke-opacity="0.01" stroke-width="1.33333" stroke-linecap="round" stroke-linejoin="round"/>
<path d="M0.260742 240.12L560.26 240.12" stroke="white" stroke-opacity="0.01" stroke-width="1.33333" stroke-linecap="round" stroke-linejoin="round"/>
<path d="M0.251953 266.787L560.251 266.787" stroke="white" stroke-opacity="0.01" stroke-width="1.33333" stroke-linecap="round" stroke-linejoin="round"/>
<path d="M0.242188 293.454L560.242 293.454" stroke="white" stroke-opacity="0.01" stroke-width="1.33333" stroke-linecap="round" stroke-linejoin="round"/>
<path d="M0.232422 320.12L560.232 320.12" stroke="white" stroke-opacity="0.01" stroke-width="1.33333" stroke-linecap="round" stroke-linejoin="round"/>
<path d="M-0.125171 1332.47L0.402344 -159.88" stroke="white" stroke-opacity="0.01" stroke-width="1.33333" stroke-linecap="round" stroke-linejoin="round"/>
<path d="M26.5418 1332.47L27.0693 -159.88" stroke="white" stroke-opacity="0.01" stroke-width="1.33333" stroke-linecap="round" stroke-linejoin="round"/>
<path d="M53.2078 1332.47L53.7354 -159.88" stroke="white" stroke-opacity="0.01" stroke-width="1.33333" stroke-linecap="round" stroke-linejoin="round"/>
<path d="M79.8748 1332.47L80.4023 -159.88" stroke="white" stroke-opacity="0.01" stroke-width="1.33333" stroke-linecap="round" stroke-linejoin="round"/>
<path d="M106.542 1332.47L107.069 -159.88" stroke="white" stroke-opacity="0.01" stroke-width="1.33333" stroke-linecap="round" stroke-linejoin="round"/>
<path d="M133.208 1332.47L133.735 -159.88" stroke="white" stroke-opacity="0.01" stroke-width="1.33333" stroke-linecap="round" stroke-linejoin="round"/>
<path d="M159.875 1332.47L160.402 -159.88" stroke="white" stroke-opacity="0.01" stroke-width="1.33333" stroke-linecap="round" stroke-linejoin="round"/>
<path d="M186.541 1332.47L187.068 -159.88" stroke="white" stroke-opacity="0.01" stroke-width="1.33333" stroke-linecap="round" stroke-linejoin="round"/>
<path d="M213.208 1332.47L213.735 -159.88" stroke="white" stroke-opacity="0.01" stroke-width="1.33333" stroke-linecap="round" stroke-linejoin="round"/>
<path d="M239.875 1332.47L240.402 -159.88" stroke="white" stroke-opacity="0.01" stroke-width="1.33333" stroke-linecap="round" stroke-linejoin="round"/>
<path d="M266.541 1332.47L267.068 -159.88" stroke="white" stroke-opacity="0.01" stroke-width="1.33333" stroke-linecap="round" stroke-linejoin="round"/>
<path d="M293.208 1332.47L293.735 -159.88" stroke="white" stroke-opacity="0.01" stroke-width="1.33333" stroke-linecap="round" stroke-linejoin="round"/>
<path d="M319.875 1332.47L320.402 -159.88" stroke="white" stroke-opacity="0.01" stroke-width="1.33333" stroke-linecap="round" stroke-linejoin="round"/>
<path d="M346.541 1332.47L347.068 -159.88" stroke="white" stroke-opacity="0.01" stroke-width="1.33333" stroke-linecap="round" stroke-linejoin="round"/>
<path d="M373.208 1332.47L373.735 -159.88" stroke="white" stroke-opacity="0.01" stroke-width="1.33333" stroke-linecap="round" stroke-linejoin="round"/>
<path d="M399.875 1332.47L400.402 -159.88" stroke="white" stroke-opacity="0.01" stroke-width="1.33333" stroke-linecap="round" stroke-linejoin="round"/>
<path d="M426.541 1332.47L427.068 -159.88" stroke="white" stroke-opacity="0.01" stroke-width="1.33333" stroke-linecap="round" stroke-linejoin="round"/>
<path d="M453.208 1332.47L453.735 -159.88" stroke="white" stroke-opacity="0.01" stroke-width="1.33333" stroke-linecap="round" stroke-linejoin="round"/>
<path d="M479.875 1332.47L480.402 -159.88" stroke="white" stroke-opacity="0.01" stroke-width="1.33333" stroke-linecap="round" stroke-linejoin="round"/>
<path d="M506.541 1332.47L507.068 -159.88" stroke="white" stroke-opacity="0.01" stroke-width="1.33333" stroke-linecap="round" stroke-linejoin="round"/>
<path d="M533.208 1332.47L533.735 -159.88" stroke="white" stroke-opacity="0.01" stroke-width="1.33333" stroke-linecap="round" stroke-linejoin="round"/>
<path d="M559.875 1332.47L560.402 -159.88" stroke="white" stroke-opacity="0.01" stroke-width="1.33333" stroke-linecap="round" stroke-linejoin="round"/>
<path d="M560.906 0L1120.91 2.44673e-05" stroke="white" stroke-opacity="0.01" stroke-width="1.33333" stroke-linecap="round" stroke-linejoin="round"/>
<path d="M560.896 26.6665L1120.9 26.6665" stroke="white" stroke-opacity="0.01" stroke-width="1.33333" stroke-linecap="round" stroke-linejoin="round"/>
<path d="M560.888 53.3335L1120.89 53.3335" stroke="white" stroke-opacity="0.01" stroke-width="1.33333" stroke-linecap="round" stroke-linejoin="round"/>
<path d="M560.878 80L1120.88 80" stroke="white" stroke-opacity="0.01" stroke-width="1.33333" stroke-linecap="round" stroke-linejoin="round"/>
<path d="M560.868 106.667L1120.87 106.667" stroke="white" stroke-opacity="0.01" stroke-width="1.33333" stroke-linecap="round" stroke-linejoin="round"/>
<path d="M560.859 133.333L1120.86 133.334" stroke="white" stroke-opacity="0.01" stroke-width="1.33333" stroke-linecap="round" stroke-linejoin="round"/>
<path d="M560.85 160L1120.85 160" stroke="white" stroke-opacity="0.01" stroke-width="1.33333" stroke-linecap="round" stroke-linejoin="round"/>
<path d="M560.841 186.667L1120.84 186.667" stroke="white" stroke-opacity="0.01" stroke-width="1.33333" stroke-linecap="round" stroke-linejoin="round"/>
<path d="M560.831 213.333L1120.83 213.334" stroke="white" stroke-opacity="0.01" stroke-width="1.33333" stroke-linecap="round" stroke-linejoin="round"/>
<path d="M560.821 240L1120.82 240" stroke="white" stroke-opacity="0.01" stroke-width="1.33333" stroke-linecap="round" stroke-linejoin="round"/>
<path d="M560.812 266.667L1120.81 266.667" stroke="white" stroke-opacity="0.01" stroke-width="1.33333" stroke-linecap="round" stroke-linejoin="round"/>
<path d="M560.803 293.333L1120.8 293.334" stroke="white" stroke-opacity="0.01" stroke-width="1.33333" stroke-linecap="round" stroke-linejoin="round"/>
<path d="M560.793 320L1120.79 320" stroke="white" stroke-opacity="0.01" stroke-width="1.33333" stroke-linecap="round" stroke-linejoin="round"/>
<path d="M560.402 1425.78L560.963 -160" stroke="white" stroke-opacity="0.01" stroke-width="1.33333" stroke-linecap="round" stroke-linejoin="round"/>
<path d="M587.069 1425.78L587.63 -160" stroke="white" stroke-opacity="0.01" stroke-width="1.33333" stroke-linecap="round" stroke-linejoin="round"/>
<path d="M613.735 1425.78L614.296 -160" stroke="white" stroke-opacity="0.01" stroke-width="1.33333" stroke-linecap="round" stroke-linejoin="round"/>
<path d="M640.402 1425.78L640.963 -160" stroke="white" stroke-opacity="0.01" stroke-width="1.33333" stroke-linecap="round" stroke-linejoin="round"/>
<path d="M667.069 1425.78L667.63 -160" stroke="white" stroke-opacity="0.01" stroke-width="1.33333" stroke-linecap="round" stroke-linejoin="round"/>
<path d="M693.735 1425.78L694.296 -160" stroke="white" stroke-opacity="0.01" stroke-width="1.33333" stroke-linecap="round" stroke-linejoin="round"/>
<path d="M720.402 1425.78L720.963 -160" stroke="white" stroke-opacity="0.01" stroke-width="1.33333" stroke-linecap="round" stroke-linejoin="round"/>
<path d="M747.068 1425.78L747.629 -160" stroke="white" stroke-opacity="0.01" stroke-width="1.33333" stroke-linecap="round" stroke-linejoin="round"/>
<path d="M773.735 1425.78L774.296 -160" stroke="white" stroke-opacity="0.01" stroke-width="1.33333" stroke-linecap="round" stroke-linejoin="round"/>
<path d="M800.402 1425.78L800.963 -160" stroke="white" stroke-opacity="0.01" stroke-width="1.33333" stroke-linecap="round" stroke-linejoin="round"/>
<path d="M827.068 1425.78L827.629 -160" stroke="white" stroke-opacity="0.01" stroke-width="1.33333" stroke-linecap="round" stroke-linejoin="round"/>
<path d="M853.735 1425.78L854.296 -160" stroke="white" stroke-opacity="0.01" stroke-width="1.33333" stroke-linecap="round" stroke-linejoin="round"/>
<path d="M880.402 1425.78L880.963 -160" stroke="white" stroke-opacity="0.01" stroke-width="1.33333" stroke-linecap="round" stroke-linejoin="round"/>
<path d="M907.068 1425.78L907.629 -160" stroke="white" stroke-opacity="0.01" stroke-width="1.33333" stroke-linecap="round" stroke-linejoin="round"/>
<path d="M933.735 1425.78L934.296 -160" stroke="white" stroke-opacity="0.01" stroke-width="1.33333" stroke-linecap="round" stroke-linejoin="round"/>
<path d="M960.402 1425.78L960.963 -160" stroke="white" stroke-opacity="0.01" stroke-width="1.33333" stroke-linecap="round" stroke-linejoin="round"/>
<path d="M987.068 1425.78L987.629 -160" stroke="white" stroke-opacity="0.01" stroke-width="1.33333" stroke-linecap="round" stroke-linejoin="round"/>
<path d="M1013.74 1425.78L1014.3 -160" stroke="white" stroke-opacity="0.01" stroke-width="1.33333" stroke-linecap="round" stroke-linejoin="round"/>
<path d="M1040.4 1425.78L1040.96 -160" stroke="white" stroke-opacity="0.01" stroke-width="1.33333" stroke-linecap="round" stroke-linejoin="round"/>
<path d="M1067.07 1425.78L1067.63 -160" stroke="white" stroke-opacity="0.01" stroke-width="1.33333" stroke-linecap="round" stroke-linejoin="round"/>
<path d="M1093.74 1425.78L1094.3 -160" stroke="white" stroke-opacity="0.01" stroke-width="1.33333" stroke-linecap="round" stroke-linejoin="round"/>
<path d="M1120.76 25.9302L1680.76 25.36" stroke="white" stroke-opacity="0.01" stroke-width="1.33333" stroke-linecap="round" stroke-linejoin="round"/>
<path d="M1120.78 52.5972L1680.78 52.027" stroke="white" stroke-opacity="0.01" stroke-width="1.33333" stroke-linecap="round" stroke-linejoin="round"/>
<path d="M1120.8 79.2637L1680.8 78.6935" stroke="white" stroke-opacity="0.01" stroke-width="1.33333" stroke-linecap="round" stroke-linejoin="round"/>
<path d="M1120.82 105.93L1680.82 105.36" stroke="white" stroke-opacity="0.01" stroke-width="1.33333" stroke-linecap="round" stroke-linejoin="round"/>
<path d="M1120.83 132.597L1680.83 132.026" stroke="white" stroke-opacity="0.01" stroke-width="1.33333" stroke-linecap="round" stroke-linejoin="round"/>
<path d="M1120.85 159.264L1680.85 158.693" stroke="white" stroke-opacity="0.01" stroke-width="1.33333" stroke-linecap="round" stroke-linejoin="round"/>
<path d="M1120.87 185.93L1680.87 185.36" stroke="white" stroke-opacity="0.01" stroke-width="1.33333" stroke-linecap="round" stroke-linejoin="round"/>
<path d="M1120.89 212.597L1680.89 212.026" stroke="white" stroke-opacity="0.01" stroke-width="1.33333" stroke-linecap="round" stroke-linejoin="round"/>
<path d="M1120.9 239.264L1680.9 238.693" stroke="white" stroke-opacity="0.01" stroke-width="1.33333" stroke-linecap="round" stroke-linejoin="round"/>
<path d="M1120.92 265.93L1680.92 265.36" stroke="white" stroke-opacity="0.01" stroke-width="1.33333" stroke-linecap="round" stroke-linejoin="round"/>
<path d="M1120.94 292.597L1680.94 292.027" stroke="white" stroke-opacity="0.01" stroke-width="1.33333" stroke-linecap="round" stroke-linejoin="round"/>
<path d="M1120.96 319.264L1680.96 318.693" stroke="white" stroke-opacity="0.01" stroke-width="1.33333" stroke-linecap="round" stroke-linejoin="round"/>
<path d="M1120.98 345.93L1680.97 345.36" stroke="white" stroke-opacity="0.01" stroke-width="1.33333" stroke-linecap="round" stroke-linejoin="round"/>
<path d="M1121.67 1396.82L1120.64 -160.736" stroke="white" stroke-opacity="0.01" stroke-width="1.33333" stroke-linecap="round" stroke-linejoin="round"/>
<path d="M1148.34 1396.79L1147.31 -160.764" stroke="white" stroke-opacity="0.01" stroke-width="1.33333" stroke-linecap="round" stroke-linejoin="round"/>
<path d="M1175.01 1396.77L1173.97 -160.791" stroke="white" stroke-opacity="0.01" stroke-width="1.33333" stroke-linecap="round" stroke-linejoin="round"/>
<path d="M1201.67 1396.74L1200.64 -160.818" stroke="white" stroke-opacity="0.01" stroke-width="1.33333" stroke-linecap="round" stroke-linejoin="round"/>
<path d="M1228.34 1396.71L1227.31 -160.845" stroke="white" stroke-opacity="0.01" stroke-width="1.33333" stroke-linecap="round" stroke-linejoin="round"/>
<path d="M1255.01 1396.69L1253.97 -160.872" stroke="white" stroke-opacity="0.01" stroke-width="1.33333" stroke-linecap="round" stroke-linejoin="round"/>
<path d="M1281.67 1396.66L1280.64 -160.899" stroke="white" stroke-opacity="0.01" stroke-width="1.33333" stroke-linecap="round" stroke-linejoin="round"/>
<path d="M1308.34 1396.63L1307.31 -160.926" stroke="white" stroke-opacity="0.01" stroke-width="1.33333" stroke-linecap="round" stroke-linejoin="round"/>
<path d="M1335.01 1396.6L1333.97 -160.954" stroke="white" stroke-opacity="0.01" stroke-width="1.33333" stroke-linecap="round" stroke-linejoin="round"/>
<path d="M1361.67 1396.58L1360.64 -160.981" stroke="white" stroke-opacity="0.01" stroke-width="1.33333" stroke-linecap="round" stroke-linejoin="round"/>
<path d="M1388.34 1396.55L1387.31 -161.008" stroke="white" stroke-opacity="0.01" stroke-width="1.33333" stroke-linecap="round" stroke-linejoin="round"/>
<path d="M1415.01 1396.52L1413.97 -161.035" stroke="white" stroke-opacity="0.01" stroke-width="1.33333" stroke-linecap="round" stroke-linejoin="round"/>
<path d="M1441.67 1396.5L1440.64 -161.062" stroke="white" stroke-opacity="0.01" stroke-width="1.33333" stroke-linecap="round" stroke-linejoin="round"/>
<path d="M1468.34 1396.47L1467.3 -161.089" stroke="white" stroke-opacity="0.01" stroke-width="1.33333" stroke-linecap="round" stroke-linejoin="round"/>
<path d="M1495.01 1396.44L1493.97 -161.117" stroke="white" stroke-opacity="0.01" stroke-width="1.33333" stroke-linecap="round" stroke-linejoin="round"/>
<path d="M1521.67 1396.41L1520.64 -161.144" stroke="white" stroke-opacity="0.01" stroke-width="1.33333" stroke-linecap="round" stroke-linejoin="round"/>
<path d="M1548.34 1396.39L1547.3 -161.171" stroke="white" stroke-opacity="0.01" stroke-width="1.33333" stroke-linecap="round" stroke-linejoin="round"/>
<path d="M1575.01 1396.36L1573.97 -161.198" stroke="white" stroke-opacity="0.01" stroke-width="1.33333" stroke-linecap="round" stroke-linejoin="round"/>
<path d="M1601.67 1396.33L1600.64 -161.225" stroke="white" stroke-opacity="0.01" stroke-width="1.33333" stroke-linecap="round" stroke-linejoin="round"/>
<path d="M1628.34 1396.31L1627.3 -161.252" stroke="white" stroke-opacity="0.01" stroke-width="1.33333" stroke-linecap="round" stroke-linejoin="round"/>
<path d="M1655.01 1396.28L1653.97 -161.279" stroke="white" stroke-opacity="0.01" stroke-width="1.33333" stroke-linecap="round" stroke-linejoin="round"/>
<rect x="1318.59" y="132.431" width="254.995" height="105.781" rx="7.5" transform="rotate(0.0471412 1318.59 132.431)" fill="#2F333B"/>
<rect x="1318.59" y="132.431" width="254.995" height="105.781" rx="7.5" transform="rotate(0.0471412 1318.59 132.431)" stroke="#373B42"/>
<path opacity="0.8" d="M1394.42 192.883L1394.43 178.338L1399.61 178.342C1400.74 178.343 1401.68 178.55 1402.42 178.962C1403.17 179.375 1403.72 179.939 1404.09 180.654C1404.46 181.365 1404.64 182.165 1404.64 183.055C1404.64 183.95 1404.46 184.755 1404.08 185.469C1403.71 186.179 1403.15 186.742 1402.4 187.158C1401.66 187.57 1400.72 187.775 1399.6 187.774L1396.03 187.771L1396.03 185.91L1399.4 185.913C1400.12 185.914 1400.7 185.791 1401.14 185.545C1401.59 185.295 1401.91 184.954 1402.12 184.523C1402.33 184.093 1402.43 183.603 1402.44 183.053C1402.44 182.504 1402.33 182.016 1402.12 181.59C1401.92 181.164 1401.59 180.83 1401.14 180.588C1400.69 180.346 1400.11 180.225 1399.38 180.224L1396.62 180.222L1396.61 192.885L1394.42 192.883ZM1409.17 178.35L1409.16 192.896L1407.04 192.894L1407.05 178.348L1409.17 178.35ZM1415.19 193.142C1414.5 193.141 1413.88 193.013 1413.32 192.757C1412.76 192.496 1412.32 192.119 1411.99 191.627C1411.67 191.134 1411.51 190.53 1411.51 189.815C1411.51 189.2 1411.63 188.693 1411.87 188.295C1412.1 187.898 1412.42 187.583 1412.83 187.352C1413.23 187.12 1413.68 186.945 1414.18 186.827C1414.67 186.709 1415.18 186.62 1415.7 186.559C1416.35 186.483 1416.88 186.422 1417.29 186.375C1417.69 186.323 1417.99 186.241 1418.17 186.127C1418.36 186.014 1418.45 185.829 1418.45 185.574L1418.45 185.524C1418.45 184.904 1418.28 184.423 1417.93 184.082C1417.58 183.74 1417.07 183.57 1416.38 183.569C1415.67 183.568 1415.1 183.727 1414.69 184.044C1414.28 184.356 1414 184.703 1413.84 185.087L1411.85 184.631C1412.09 183.968 1412.43 183.433 1412.89 183.026C1413.35 182.615 1413.87 182.317 1414.47 182.133C1415.07 181.944 1415.69 181.85 1416.35 181.85C1416.79 181.851 1417.25 181.903 1417.74 182.008C1418.23 182.108 1418.69 182.293 1419.12 182.563C1419.55 182.833 1419.9 183.219 1420.17 183.721C1420.45 184.219 1420.58 184.865 1420.58 185.661L1420.58 192.905L1418.5 192.903L1418.5 191.412L1418.42 191.412C1418.28 191.686 1418.08 191.956 1417.8 192.221C1417.53 192.486 1417.17 192.706 1416.74 192.88C1416.31 193.055 1415.79 193.142 1415.19 193.142ZM1415.66 191.438C1416.24 191.438 1416.75 191.323 1417.16 191.091C1417.58 190.859 1417.9 190.557 1418.12 190.183C1418.34 189.804 1418.46 189.399 1418.46 188.968L1418.46 187.562C1418.38 187.638 1418.24 187.709 1418.02 187.775C1417.8 187.836 1417.56 187.891 1417.29 187.938C1417.01 187.98 1416.74 188.02 1416.48 188.058C1416.22 188.091 1416 188.119 1415.83 188.142C1415.42 188.194 1415.04 188.281 1414.7 188.404C1414.36 188.527 1414.09 188.704 1413.89 188.936C1413.69 189.163 1413.59 189.466 1413.59 189.845C1413.59 190.371 1413.78 190.769 1414.17 191.039C1414.56 191.304 1415.05 191.437 1415.66 191.438ZM1424.35 196.999C1424.04 196.999 1423.75 196.972 1423.49 196.92C1423.23 196.873 1423.03 196.82 1422.91 196.763L1423.42 195.024C1423.81 195.128 1424.15 195.173 1424.45 195.16C1424.76 195.146 1425.03 195.032 1425.26 194.819C1425.49 194.606 1425.7 194.259 1425.88 193.776L1426.15 193.052L1422.16 181.997L1424.44 181.999L1427.19 190.467L1427.31 190.467L1430.08 182.004L1432.36 182.005L1427.85 194.367C1427.64 194.935 1427.38 195.415 1427.05 195.808C1426.73 196.205 1426.35 196.503 1425.9 196.702C1425.46 196.9 1424.94 196.999 1424.35 196.999ZM1441.77 178.377L1441.76 192.922L1439.64 192.921L1439.65 178.375L1441.77 178.377ZM1449.21 193.149C1448.19 193.148 1447.3 192.913 1446.53 192.443C1445.77 191.974 1445.18 191.318 1444.76 190.475C1444.34 189.631 1444.13 188.646 1444.13 187.519C1444.13 186.388 1444.34 185.398 1444.77 184.551C1445.19 183.704 1445.78 183.046 1446.54 182.578C1447.31 182.11 1448.2 181.876 1449.22 181.877C1450.24 181.878 1451.14 182.113 1451.9 182.583C1452.66 183.052 1453.25 183.711 1453.67 184.559C1454.09 185.406 1454.3 186.396 1454.3 187.528C1454.3 188.655 1454.09 189.639 1453.67 190.482C1453.24 191.324 1452.65 191.98 1451.89 192.448C1451.13 192.916 1450.23 193.149 1449.21 193.149ZM1449.22 191.366C1449.88 191.367 1450.43 191.192 1450.87 190.842C1451.3 190.492 1451.63 190.026 1451.84 189.443C1452.05 188.861 1452.16 188.22 1452.16 187.519C1452.16 186.823 1452.05 186.184 1451.84 185.601C1451.63 185.014 1451.31 184.542 1450.87 184.187C1450.44 183.831 1449.89 183.653 1449.23 183.653C1448.56 183.652 1448 183.829 1447.56 184.184C1447.13 184.539 1446.8 185.01 1446.59 185.597C1446.38 186.179 1446.28 186.818 1446.28 187.514C1446.28 188.215 1446.38 188.857 1446.59 189.439C1446.8 190.022 1447.12 190.488 1447.56 190.839C1448 191.19 1448.55 191.365 1449.22 191.366ZM1461.26 193.159C1460.21 193.158 1459.3 192.918 1458.54 192.439C1457.78 191.955 1457.2 191.29 1456.79 190.442C1456.38 189.594 1456.18 188.623 1456.18 187.529C1456.18 186.421 1456.39 185.444 1456.81 184.597C1457.23 183.745 1457.81 183.08 1458.57 182.602C1459.33 182.125 1460.22 181.886 1461.25 181.887C1462.08 181.888 1462.82 182.042 1463.47 182.351C1464.11 182.654 1464.64 183.081 1465.03 183.63C1465.44 184.18 1465.67 184.822 1465.75 185.556L1463.68 185.554C1463.57 185.043 1463.31 184.602 1462.9 184.232C1462.5 183.863 1461.96 183.678 1461.28 183.677C1460.69 183.677 1460.17 183.832 1459.73 184.144C1459.29 184.452 1458.94 184.892 1458.7 185.465C1458.45 186.033 1458.33 186.705 1458.33 187.481C1458.33 188.277 1458.45 188.964 1458.69 189.541C1458.93 190.119 1459.27 190.567 1459.71 190.885C1460.15 191.202 1460.68 191.361 1461.28 191.362C1461.68 191.362 1462.04 191.289 1462.37 191.142C1462.7 190.991 1462.98 190.776 1463.2 190.497C1463.43 190.218 1463.59 189.882 1463.68 189.489L1465.75 189.49C1465.67 190.196 1465.44 190.825 1465.06 191.379C1464.67 191.933 1464.16 192.368 1463.51 192.685C1462.87 193.001 1462.12 193.159 1461.26 193.159ZM1471.19 193.188C1470.5 193.187 1469.87 193.059 1469.31 192.803C1468.76 192.542 1468.31 192.165 1467.99 191.673C1467.67 191.18 1467.51 190.576 1467.51 189.861C1467.51 189.246 1467.63 188.739 1467.86 188.342C1468.1 187.944 1468.42 187.629 1468.82 187.398C1469.22 187.166 1469.67 186.991 1470.17 186.873C1470.67 186.755 1471.18 186.666 1471.69 186.605C1472.35 186.529 1472.88 186.468 1473.28 186.421C1473.69 186.37 1473.99 186.287 1474.17 186.173C1474.36 186.06 1474.45 185.875 1474.45 185.62L1474.45 185.57C1474.45 184.95 1474.27 184.469 1473.92 184.128C1473.58 183.787 1473.06 183.616 1472.38 183.615C1471.66 183.615 1471.1 183.773 1470.69 184.09C1470.28 184.402 1470 184.75 1469.84 185.133L1467.84 184.677C1468.08 184.014 1468.43 183.479 1468.88 183.072C1469.34 182.661 1469.87 182.363 1470.47 182.179C1471.06 181.99 1471.69 181.896 1472.35 181.896C1472.78 181.897 1473.25 181.949 1473.73 182.054C1474.23 182.154 1474.69 182.339 1475.11 182.609C1475.54 182.879 1475.89 183.265 1476.17 183.767C1476.44 184.265 1476.58 184.911 1476.58 185.707L1476.57 192.951L1474.5 192.949L1474.5 191.458L1474.42 191.458C1474.28 191.732 1474.07 192.002 1473.8 192.267C1473.52 192.532 1473.17 192.752 1472.74 192.927C1472.31 193.101 1471.79 193.189 1471.19 193.188ZM1471.65 191.484C1472.24 191.484 1472.74 191.369 1473.16 191.137C1473.58 190.905 1473.9 190.603 1474.12 190.229C1474.34 189.85 1474.45 189.445 1474.45 189.015L1474.45 187.608C1474.38 187.684 1474.23 187.755 1474.01 187.821C1473.8 187.882 1473.56 187.937 1473.28 187.984C1473.01 188.026 1472.74 188.066 1472.48 188.104C1472.22 188.137 1472 188.165 1471.83 188.189C1471.41 188.24 1471.04 188.328 1470.7 188.45C1470.36 188.573 1470.09 188.751 1469.89 188.982C1469.69 189.21 1469.59 189.512 1469.59 189.891C1469.59 190.417 1469.78 190.815 1470.17 191.085C1470.56 191.35 1471.05 191.483 1471.65 191.484ZM1481.54 178.41L1481.53 192.955L1479.4 192.953L1479.41 178.408L1481.54 178.41ZM1486.52 178.414L1486.51 192.959L1484.38 192.957L1484.39 178.412L1486.52 178.414ZM1490.7 197.054C1490.38 197.053 1490.1 197.027 1489.83 196.975C1489.57 196.927 1489.38 196.875 1489.25 196.818L1489.77 195.078C1490.15 195.183 1490.5 195.228 1490.8 195.214C1491.11 195.2 1491.37 195.087 1491.61 194.874C1491.84 194.661 1492.05 194.313 1492.23 193.83L1492.49 193.106L1488.51 182.052L1490.78 182.054L1493.54 190.522L1493.65 190.522L1496.42 182.058L1498.7 182.06L1494.2 194.421C1493.99 194.989 1493.72 195.47 1493.4 195.863C1493.08 196.26 1492.7 196.558 1492.25 196.756C1491.8 196.955 1491.29 197.054 1490.7 197.054Z" fill="white"/>
<rect x="80.5" y="133.5" width="299" height="105.781" rx="7.5" fill="#2F333B"/>
<rect x="80.5" y="133.5" width="299" height="105.781" rx="7.5" stroke="#373B42"/>
<path opacity="0.8" d="M219.238 183.166C219.163 182.494 218.85 181.973 218.301 181.604C217.752 181.23 217.06 181.043 216.227 181.043C215.63 181.043 215.114 181.137 214.679 181.327C214.243 181.511 213.904 181.767 213.663 182.094C213.426 182.416 213.308 182.783 213.308 183.195C213.308 183.54 213.388 183.839 213.549 184.089C213.715 184.34 213.931 184.551 214.196 184.722C214.466 184.887 214.754 185.027 215.062 185.141C215.37 185.25 215.666 185.339 215.95 185.411L217.37 185.78C217.834 185.893 218.31 186.047 218.798 186.241C219.286 186.436 219.738 186.691 220.154 187.009C220.571 187.326 220.907 187.719 221.163 188.188C221.423 188.656 221.554 189.217 221.554 189.871C221.554 190.695 221.341 191.426 220.914 192.065C220.493 192.705 219.88 193.209 219.075 193.578C218.275 193.947 217.306 194.132 216.17 194.132C215.081 194.132 214.139 193.959 213.343 193.614C212.548 193.268 211.925 192.778 211.475 192.143C211.026 191.504 210.777 190.747 210.73 189.871H212.931C212.974 190.396 213.145 190.834 213.443 191.185C213.746 191.53 214.132 191.788 214.6 191.959C215.074 192.125 215.592 192.207 216.156 192.207C216.776 192.207 217.328 192.11 217.811 191.916C218.298 191.717 218.682 191.443 218.961 191.092C219.241 190.737 219.38 190.323 219.38 189.849C219.38 189.419 219.257 189.066 219.011 188.791C218.77 188.517 218.44 188.289 218.024 188.109C217.612 187.929 217.145 187.771 216.625 187.634L214.906 187.165C213.741 186.848 212.818 186.381 212.136 185.766C211.459 185.15 211.12 184.336 211.12 183.322C211.12 182.484 211.348 181.753 211.802 181.128C212.257 180.503 212.872 180.018 213.649 179.672C214.425 179.321 215.301 179.146 216.277 179.146C217.261 179.146 218.13 179.319 218.883 179.665C219.641 180.01 220.237 180.486 220.673 181.092C221.109 181.694 221.336 182.385 221.355 183.166H219.238ZM228.885 193.891H224.176V179.345H229.034C230.459 179.345 231.683 179.636 232.706 180.219C233.729 180.796 234.512 181.627 235.057 182.712C235.606 183.791 235.881 185.086 235.881 186.597C235.881 188.112 235.604 189.414 235.05 190.503C234.5 191.592 233.705 192.43 232.663 193.017C231.622 193.599 230.362 193.891 228.885 193.891ZM226.371 191.973H228.764C229.872 191.973 230.793 191.765 231.527 191.348C232.261 190.927 232.81 190.318 233.175 189.523C233.539 188.723 233.722 187.747 233.722 186.597C233.722 185.455 233.539 184.487 233.175 183.692C232.815 182.896 232.277 182.293 231.562 181.881C230.848 181.469 229.96 181.263 228.899 181.263H226.371V191.973ZM238.61 193.891V179.345H240.804V186.291H240.982L247.083 179.345H249.846L243.979 185.893L249.867 193.891H247.225L242.523 187.392L240.804 189.366V193.891H238.61Z" fill="white"/>
<rect x="690.5" y="133.5" width="299" height="105.781" rx="7.5" fill="#2F333B"/>
<rect x="690.5" y="133.5" width="299" height="105.781" rx="7.5" stroke="#373B42"/>
<path opacity="0.8" d="M754.557 193.891V179.345H759.742C760.869 179.345 761.804 179.539 762.547 179.928C763.295 180.316 763.854 180.853 764.223 181.54C764.593 182.222 764.777 183.01 764.777 183.905C764.777 184.795 764.59 185.579 764.216 186.256C763.847 186.928 763.288 187.451 762.54 187.825C761.797 188.199 760.861 188.386 759.735 188.386H755.807V186.497H759.536C760.246 186.497 760.824 186.395 761.269 186.192C761.718 185.988 762.048 185.692 762.256 185.304C762.464 184.916 762.568 184.449 762.568 183.905C762.568 183.356 762.462 182.88 762.249 182.477C762.04 182.075 761.711 181.767 761.262 181.554C760.816 181.336 760.232 181.227 759.507 181.227H756.752V193.891H754.557ZM761.737 187.328L765.331 193.891H762.831L759.308 187.328H761.737ZM771.842 194.111C770.767 194.111 769.842 193.881 769.065 193.422C768.293 192.958 767.697 192.307 767.275 191.469C766.859 190.626 766.65 189.639 766.65 188.507C766.65 187.39 766.859 186.405 767.275 185.553C767.697 184.7 768.284 184.035 769.037 183.557C769.794 183.079 770.68 182.839 771.693 182.839C772.309 182.839 772.905 182.941 773.483 183.145C774.06 183.348 774.579 183.668 775.038 184.104C775.497 184.539 775.86 185.105 776.125 185.801C776.39 186.492 776.523 187.333 776.523 188.322V189.075H767.851V187.484H774.442C774.442 186.926 774.328 186.431 774.101 186C773.873 185.564 773.554 185.221 773.142 184.97C772.735 184.719 772.256 184.594 771.707 184.594C771.111 184.594 770.59 184.741 770.145 185.034C769.704 185.323 769.363 185.702 769.122 186.17C768.885 186.634 768.767 187.139 768.767 187.683V188.926C768.767 189.655 768.895 190.276 769.15 190.787C769.411 191.298 769.773 191.689 770.237 191.959C770.701 192.224 771.243 192.357 771.863 192.357C772.266 192.357 772.633 192.3 772.964 192.186C773.296 192.068 773.582 191.893 773.824 191.661C774.065 191.429 774.25 191.142 774.378 190.801L776.388 191.163C776.227 191.755 775.938 192.274 775.521 192.719C775.109 193.159 774.591 193.502 773.966 193.749C773.345 193.99 772.638 194.111 771.842 194.111ZM781.002 187.413V193.891H778.879V182.982H780.917V184.757H781.052C781.303 184.179 781.696 183.715 782.231 183.365C782.771 183.015 783.45 182.839 784.269 182.839C785.013 182.839 785.664 182.996 786.222 183.308C786.781 183.616 787.214 184.075 787.522 184.686C787.83 185.297 787.984 186.052 787.984 186.952V193.891H785.86V187.207C785.86 186.417 785.654 185.799 785.242 185.354C784.83 184.904 784.265 184.679 783.545 184.679C783.052 184.679 782.615 184.786 782.231 184.999C781.852 185.212 781.552 185.524 781.329 185.936C781.111 186.343 781.002 186.836 781.002 187.413ZM794.916 194.104C794.035 194.104 793.249 193.879 792.558 193.429C791.871 192.974 791.331 192.328 790.938 191.49C790.55 190.647 790.356 189.636 790.356 188.457C790.356 187.278 790.552 186.27 790.945 185.432C791.343 184.594 791.888 183.952 792.579 183.507C793.27 183.062 794.054 182.839 794.93 182.839C795.607 182.839 796.151 182.953 796.563 183.18C796.98 183.403 797.302 183.663 797.529 183.962C797.761 184.26 797.941 184.523 798.069 184.75H798.197V179.345H800.32V193.891H798.247V192.193H798.069C797.941 192.425 797.757 192.69 797.515 192.989C797.278 193.287 796.952 193.547 796.535 193.77C796.118 193.992 795.579 194.104 794.916 194.104ZM795.384 192.293C795.995 192.293 796.511 192.132 796.933 191.81C797.359 191.483 797.681 191.031 797.899 190.453C798.121 189.875 798.232 189.203 798.232 188.436C798.232 187.679 798.124 187.016 797.906 186.447C797.688 185.879 797.368 185.437 796.947 185.119C796.526 184.802 796.005 184.643 795.384 184.643C794.745 184.643 794.213 184.809 793.786 185.141C793.36 185.472 793.038 185.924 792.82 186.497C792.607 187.07 792.501 187.716 792.501 188.436C792.501 189.165 792.61 189.821 792.828 190.403C793.045 190.986 793.367 191.447 793.794 191.788C794.224 192.125 794.755 192.293 795.384 192.293ZM808.053 194.111C806.978 194.111 806.053 193.881 805.276 193.422C804.504 192.958 803.908 192.307 803.486 191.469C803.07 190.626 802.861 189.639 802.861 188.507C802.861 187.39 803.07 186.405 803.486 185.553C803.908 184.7 804.495 184.035 805.248 183.557C806.005 183.079 806.891 182.839 807.904 182.839C808.519 182.839 809.116 182.941 809.694 183.145C810.271 183.348 810.79 183.668 811.249 184.104C811.708 184.539 812.071 185.105 812.336 185.801C812.601 186.492 812.733 187.333 812.733 188.322V189.075H804.062V187.484H810.653C810.653 186.926 810.539 186.431 810.312 186C810.084 185.564 809.765 185.221 809.353 184.97C808.946 184.719 808.467 184.594 807.918 184.594C807.322 184.594 806.801 184.741 806.356 185.034C805.915 185.323 805.574 185.702 805.333 186.17C805.096 186.634 804.978 187.139 804.978 187.683V188.926C804.978 189.655 805.106 190.276 805.361 190.787C805.622 191.298 805.984 191.689 806.448 191.959C806.912 192.224 807.454 192.357 808.074 192.357C808.477 192.357 808.844 192.3 809.175 192.186C809.507 192.068 809.793 191.893 810.035 191.661C810.276 191.429 810.461 191.142 810.589 190.801L812.599 191.163C812.438 191.755 812.149 192.274 811.732 192.719C811.32 193.159 810.802 193.502 810.177 193.749C809.556 193.99 808.849 194.111 808.053 194.111ZM815.09 193.891V182.982H817.142V184.714H817.256C817.455 184.127 817.805 183.666 818.307 183.33C818.814 182.989 819.387 182.818 820.026 182.818C820.158 182.818 820.315 182.823 820.494 182.832C820.679 182.842 820.824 182.854 820.928 182.868V184.899C820.843 184.875 820.691 184.849 820.473 184.821C820.255 184.788 820.038 184.771 819.82 184.771C819.318 184.771 818.87 184.878 818.477 185.091C818.089 185.299 817.781 185.59 817.554 185.964C817.327 186.334 817.213 186.755 817.213 187.229V193.891H815.09ZM822.765 193.891V182.982H824.889V193.891H822.765ZM823.838 181.298C823.469 181.298 823.151 181.175 822.886 180.929C822.626 180.678 822.496 180.38 822.496 180.034C822.496 179.684 822.626 179.385 822.886 179.139C823.151 178.888 823.469 178.763 823.838 178.763C824.207 178.763 824.522 178.888 824.782 179.139C825.048 179.385 825.18 179.684 825.18 180.034C825.18 180.38 825.048 180.678 824.782 180.929C824.522 181.175 824.207 181.298 823.838 181.298ZM829.869 187.413V193.891H827.746V182.982H829.784V184.757H829.919C830.17 184.179 830.563 183.715 831.098 183.365C831.638 183.015 832.317 182.839 833.137 182.839C833.88 182.839 834.531 182.996 835.09 183.308C835.648 183.616 836.082 184.075 836.389 184.686C836.697 185.297 836.851 186.052 836.851 186.952V193.891H834.727V187.207C834.727 186.417 834.521 185.799 834.11 185.354C833.698 184.904 833.132 184.679 832.412 184.679C831.92 184.679 831.482 184.786 831.098 184.999C830.719 185.212 830.419 185.524 830.196 185.936C829.978 186.343 829.869 186.836 829.869 187.413ZM844.273 198.209C843.406 198.209 842.661 198.095 842.036 197.868C841.415 197.641 840.909 197.34 840.516 196.966C840.123 196.592 839.829 196.182 839.635 195.737L841.46 194.984C841.588 195.193 841.759 195.413 841.972 195.645C842.19 195.882 842.483 196.083 842.852 196.249C843.227 196.414 843.707 196.497 844.294 196.497C845.099 196.497 845.764 196.301 846.29 195.908C846.816 195.519 847.078 194.899 847.078 194.047V191.902H846.943C846.816 192.134 846.631 192.392 846.389 192.676C846.153 192.96 845.826 193.206 845.409 193.415C844.993 193.623 844.45 193.727 843.783 193.727C842.921 193.727 842.145 193.526 841.453 193.124C840.767 192.716 840.222 192.117 839.82 191.327C839.422 190.531 839.223 189.554 839.223 188.393C839.223 187.233 839.42 186.239 839.813 185.411C840.21 184.582 840.755 183.947 841.446 183.507C842.137 183.062 842.921 182.839 843.797 182.839C844.474 182.839 845.021 182.953 845.438 183.18C845.854 183.403 846.179 183.663 846.411 183.962C846.647 184.26 846.83 184.523 846.958 184.75H847.114V182.982H849.195V194.132C849.195 195.07 848.977 195.839 848.541 196.44C848.106 197.042 847.516 197.487 846.773 197.776C846.034 198.064 845.201 198.209 844.273 198.209ZM844.252 191.966C844.862 191.966 845.378 191.824 845.8 191.54C846.226 191.251 846.548 190.839 846.766 190.304C846.988 189.764 847.1 189.118 847.1 188.365C847.1 187.631 846.991 186.985 846.773 186.426C846.555 185.867 846.235 185.432 845.814 185.119C845.393 184.802 844.872 184.643 844.252 184.643C843.612 184.643 843.08 184.809 842.654 185.141C842.227 185.467 841.905 185.912 841.688 186.476C841.475 187.039 841.368 187.669 841.368 188.365C841.368 189.08 841.477 189.707 841.695 190.247C841.913 190.787 842.235 191.208 842.661 191.511C843.092 191.814 843.622 191.966 844.252 191.966ZM857.506 179.345H860.17L864.8 190.652H864.971L869.601 179.345H872.265V193.891H870.177V183.365H870.042L865.752 193.869H864.019L859.729 183.358H859.594V193.891H857.506V179.345ZM879.88 194.111C878.857 194.111 877.965 193.876 877.203 193.408C876.44 192.939 875.848 192.283 875.427 191.44C875.006 190.598 874.795 189.613 874.795 188.486C874.795 187.354 875.006 186.365 875.427 185.517C875.848 184.67 876.44 184.011 877.203 183.543C877.965 183.074 878.857 182.839 879.88 182.839C880.903 182.839 881.795 183.074 882.558 183.543C883.32 184.011 883.912 184.67 884.333 185.517C884.755 186.365 884.965 187.354 884.965 188.486C884.965 189.613 884.755 190.598 884.333 191.44C883.912 192.283 883.32 192.939 882.558 193.408C881.795 193.876 880.903 194.111 879.88 194.111ZM879.887 192.328C880.55 192.328 881.099 192.153 881.535 191.803C881.971 191.452 882.293 190.986 882.501 190.403C882.714 189.821 882.82 189.179 882.82 188.479C882.82 187.783 882.714 187.143 882.501 186.561C882.293 185.974 881.971 185.503 881.535 185.148C881.099 184.793 880.55 184.615 879.887 184.615C879.22 184.615 878.666 184.793 878.225 185.148C877.79 185.503 877.465 185.974 877.252 186.561C877.044 187.143 876.94 187.783 876.94 188.479C876.94 189.179 877.044 189.821 877.252 190.403C877.465 190.986 877.79 191.452 878.225 191.803C878.666 192.153 879.22 192.328 879.887 192.328ZM891.42 194.104C890.539 194.104 889.753 193.879 889.062 193.429C888.375 192.974 887.835 192.328 887.442 191.49C887.054 190.647 886.86 189.636 886.86 188.457C886.86 187.278 887.056 186.27 887.449 185.432C887.847 184.594 888.392 183.952 889.083 183.507C889.774 183.062 890.558 182.839 891.434 182.839C892.111 182.839 892.655 182.953 893.067 183.18C893.484 183.403 893.806 183.663 894.033 183.962C894.265 184.26 894.445 184.523 894.573 184.75H894.701V179.345H896.824V193.891H894.751V192.193H894.573C894.445 192.425 894.26 192.69 894.019 192.989C893.782 193.287 893.456 193.547 893.039 193.77C892.622 193.992 892.082 194.104 891.42 194.104ZM891.888 192.293C892.499 192.293 893.015 192.132 893.437 191.81C893.863 191.483 894.185 191.031 894.403 190.453C894.625 189.875 894.736 189.203 894.736 188.436C894.736 187.679 894.627 187.016 894.41 186.447C894.192 185.879 893.872 185.437 893.451 185.119C893.029 184.802 892.509 184.643 891.888 184.643C891.249 184.643 890.716 184.809 890.29 185.141C889.864 185.472 889.542 185.924 889.324 186.497C889.111 187.07 889.005 187.716 889.005 188.436C889.005 189.165 889.114 189.821 889.331 190.403C889.549 190.986 889.871 191.447 890.297 191.788C890.728 192.125 891.259 192.293 891.888 192.293ZM906.766 189.366V182.982H908.896V193.891H906.808V192.001H906.695C906.444 192.584 906.041 193.069 905.487 193.457C904.938 193.841 904.254 194.033 903.435 194.033C902.734 194.033 902.114 193.879 901.574 193.571C901.039 193.259 900.618 192.797 900.31 192.186C900.007 191.575 899.855 190.82 899.855 189.92V182.982H901.979V189.665C901.979 190.408 902.185 191 902.597 191.44C903.009 191.881 903.544 192.101 904.202 192.101C904.6 192.101 904.995 192.001 905.388 191.803C905.786 191.604 906.115 191.303 906.375 190.901C906.64 190.498 906.771 189.987 906.766 189.366ZM913.873 179.345V193.891H911.75V179.345H913.873ZM921.432 194.111C920.357 194.111 919.432 193.881 918.655 193.422C917.883 192.958 917.287 192.307 916.865 191.469C916.449 190.626 916.24 189.639 916.24 188.507C916.24 187.39 916.449 186.405 916.865 185.553C917.287 184.7 917.874 184.035 918.627 183.557C919.384 183.079 920.27 182.839 921.283 182.839C921.898 182.839 922.495 182.941 923.073 183.145C923.65 183.348 924.169 183.668 924.628 184.104C925.087 184.539 925.45 185.105 925.715 185.801C925.98 186.492 926.112 187.333 926.112 188.322V189.075H917.441V187.484H924.031C924.031 186.926 923.918 186.431 923.691 186C923.463 185.564 923.144 185.221 922.732 184.97C922.325 184.719 921.846 184.594 921.297 184.594C920.7 184.594 920.18 184.741 919.735 185.034C919.294 185.323 918.953 185.702 918.712 186.17C918.475 186.634 918.357 187.139 918.357 187.683V188.926C918.357 189.655 918.485 190.276 918.74 190.787C919.001 191.298 919.363 191.689 919.827 191.959C920.291 192.224 920.833 192.357 921.453 192.357C921.856 192.357 922.223 192.3 922.554 192.186C922.886 192.068 923.172 191.893 923.414 191.661C923.655 191.429 923.84 191.142 923.968 190.801L925.977 191.163C925.816 191.755 925.528 192.274 925.111 192.719C924.699 193.159 924.181 193.502 923.556 193.749C922.935 193.99 922.227 194.111 921.432 194.111Z" fill="white"/>
<path opacity="0.8" d="M1070.28 165V153.364H1074.43C1075.33 153.364 1076.08 153.519 1076.67 153.83C1077.27 154.14 1077.72 154.57 1078.01 155.119C1078.31 155.665 1078.45 156.295 1078.45 157.011C1078.45 157.723 1078.3 158.35 1078.01 158.892C1077.71 159.43 1077.26 159.848 1076.66 160.148C1076.07 160.447 1075.32 160.597 1074.42 160.597H1071.28V159.085H1074.26C1074.83 159.085 1075.29 159.004 1075.65 158.841C1076.01 158.678 1076.27 158.441 1076.44 158.131C1076.6 157.82 1076.69 157.447 1076.69 157.011C1076.69 156.572 1076.6 156.191 1076.43 155.869C1076.27 155.547 1076 155.301 1075.64 155.131C1075.29 154.956 1074.82 154.869 1074.24 154.869H1072.03V165H1070.28ZM1076.02 159.75L1078.9 165H1076.9L1074.08 159.75H1076.02ZM1084.11 165.176C1083.25 165.176 1082.51 164.992 1081.88 164.625C1081.27 164.254 1080.79 163.733 1080.45 163.062C1080.12 162.388 1079.95 161.598 1079.95 160.693C1079.95 159.799 1080.12 159.011 1080.45 158.33C1080.79 157.648 1081.26 157.116 1081.86 156.733C1082.47 156.35 1083.18 156.159 1083.99 156.159C1084.48 156.159 1084.96 156.241 1085.42 156.403C1085.88 156.566 1086.3 156.822 1086.66 157.17C1087.03 157.519 1087.32 157.972 1087.53 158.528C1087.74 159.081 1087.85 159.754 1087.85 160.545V161.148H1080.91V159.875H1086.19C1086.19 159.428 1086.1 159.032 1085.91 158.688C1085.73 158.339 1085.48 158.064 1085.15 157.864C1084.82 157.663 1084.44 157.562 1084 157.562C1083.52 157.562 1083.1 157.68 1082.75 157.915C1082.4 158.146 1082.12 158.449 1081.93 158.824C1081.74 159.195 1081.65 159.598 1081.65 160.034V161.028C1081.65 161.612 1081.75 162.108 1081.95 162.517C1082.16 162.926 1082.45 163.239 1082.82 163.455C1083.19 163.667 1083.63 163.773 1084.12 163.773C1084.45 163.773 1084.74 163.727 1085 163.636C1085.27 163.542 1085.5 163.402 1085.69 163.216C1085.88 163.03 1086.03 162.801 1086.13 162.528L1087.74 162.818C1087.61 163.292 1087.38 163.706 1087.05 164.062C1086.72 164.415 1086.31 164.689 1085.81 164.886C1085.31 165.08 1084.74 165.176 1084.11 165.176ZM1091.43 159.818V165H1089.74V156.273H1091.37V157.693H1091.47C1091.68 157.231 1091.99 156.86 1092.42 156.58C1092.85 156.299 1093.39 156.159 1094.05 156.159C1094.64 156.159 1095.16 156.284 1095.61 156.534C1096.06 156.78 1096.4 157.148 1096.65 157.636C1096.9 158.125 1097.02 158.729 1097.02 159.449V165H1095.32V159.653C1095.32 159.021 1095.16 158.527 1094.83 158.17C1094.5 157.811 1094.04 157.631 1093.47 157.631C1093.07 157.631 1092.72 157.716 1092.42 157.886C1092.11 158.057 1091.87 158.307 1091.7 158.636C1091.52 158.962 1091.43 159.356 1091.43 159.818ZM1102.57 165.17C1101.86 165.17 1101.23 164.991 1100.68 164.631C1100.13 164.267 1099.7 163.75 1099.38 163.08C1099.07 162.405 1098.92 161.597 1098.92 160.653C1098.92 159.71 1099.07 158.903 1099.39 158.233C1099.71 157.562 1100.14 157.049 1100.7 156.693C1101.25 156.337 1101.88 156.159 1102.58 156.159C1103.12 156.159 1103.55 156.25 1103.88 156.432C1104.22 156.61 1104.47 156.818 1104.66 157.057C1104.84 157.295 1104.99 157.506 1105.09 157.688H1105.19V153.364H1106.89V165H1105.23V163.642H1105.09C1104.99 163.828 1104.84 164.04 1104.64 164.278C1104.46 164.517 1104.19 164.725 1103.86 164.903C1103.53 165.081 1103.1 165.17 1102.57 165.17ZM1102.94 163.722C1103.43 163.722 1103.84 163.593 1104.18 163.335C1104.52 163.074 1104.78 162.712 1104.95 162.25C1105.13 161.788 1105.22 161.25 1105.22 160.636C1105.22 160.03 1105.13 159.5 1104.96 159.045C1104.78 158.591 1104.53 158.237 1104.19 157.983C1103.85 157.729 1103.44 157.602 1102.94 157.602C1102.43 157.602 1102 157.735 1101.66 158C1101.32 158.265 1101.06 158.627 1100.89 159.085C1100.72 159.544 1100.63 160.061 1100.63 160.636C1100.63 161.22 1100.72 161.744 1100.89 162.21C1101.07 162.676 1101.33 163.045 1101.67 163.318C1102.01 163.587 1102.44 163.722 1102.94 163.722ZM1113.08 165.176C1112.22 165.176 1111.47 164.992 1110.85 164.625C1110.24 164.254 1109.76 163.733 1109.42 163.062C1109.09 162.388 1108.92 161.598 1108.92 160.693C1108.92 159.799 1109.09 159.011 1109.42 158.33C1109.76 157.648 1110.23 157.116 1110.83 156.733C1111.44 156.35 1112.15 156.159 1112.96 156.159C1113.45 156.159 1113.93 156.241 1114.39 156.403C1114.85 156.566 1115.26 156.822 1115.63 157.17C1116 157.519 1116.29 157.972 1116.5 158.528C1116.71 159.081 1116.82 159.754 1116.82 160.545V161.148H1109.88V159.875H1115.15C1115.15 159.428 1115.06 159.032 1114.88 158.688C1114.7 158.339 1114.44 158.064 1114.12 157.864C1113.79 157.663 1113.41 157.562 1112.97 157.562C1112.49 157.562 1112.07 157.68 1111.72 157.915C1111.37 158.146 1111.09 158.449 1110.9 158.824C1110.71 159.195 1110.62 159.598 1110.62 160.034V161.028C1110.62 161.612 1110.72 162.108 1110.92 162.517C1111.13 162.926 1111.42 163.239 1111.79 163.455C1112.16 163.667 1112.6 163.773 1113.09 163.773C1113.41 163.773 1113.71 163.727 1113.97 163.636C1114.24 163.542 1114.47 163.402 1114.66 163.216C1114.85 163.03 1115 162.801 1115.1 162.528L1116.71 162.818C1116.58 163.292 1116.35 163.706 1116.02 164.062C1115.69 164.415 1115.27 164.689 1114.77 164.886C1114.28 165.08 1113.71 165.176 1113.08 165.176ZM1118.7 165V156.273H1120.35V157.659H1120.44C1120.6 157.189 1120.88 156.82 1121.28 156.551C1121.68 156.278 1122.14 156.142 1122.65 156.142C1122.76 156.142 1122.88 156.146 1123.03 156.153C1123.18 156.161 1123.29 156.17 1123.38 156.182V157.807C1123.31 157.788 1123.19 157.767 1123.01 157.744C1122.84 157.718 1122.66 157.705 1122.49 157.705C1122.09 157.705 1121.73 157.79 1121.41 157.96C1121.1 158.127 1120.86 158.36 1120.68 158.659C1120.49 158.955 1120.4 159.292 1120.4 159.67V165H1118.7ZM1128.29 165.176C1127.43 165.176 1126.69 164.992 1126.07 164.625C1125.46 164.254 1124.98 163.733 1124.64 163.062C1124.31 162.388 1124.14 161.598 1124.14 160.693C1124.14 159.799 1124.31 159.011 1124.64 158.33C1124.98 157.648 1125.45 157.116 1126.05 156.733C1126.66 156.35 1127.36 156.159 1128.17 156.159C1128.67 156.159 1129.14 156.241 1129.61 156.403C1130.07 156.566 1130.48 156.822 1130.85 157.17C1131.22 157.519 1131.51 157.972 1131.72 158.528C1131.93 159.081 1132.04 159.754 1132.04 160.545V161.148H1125.1V159.875H1130.37C1130.37 159.428 1130.28 159.032 1130.1 158.688C1129.92 158.339 1129.66 158.064 1129.33 157.864C1129.01 157.663 1128.63 157.562 1128.19 157.562C1127.71 157.562 1127.29 157.68 1126.94 157.915C1126.58 158.146 1126.31 158.449 1126.12 158.824C1125.93 159.195 1125.83 159.598 1125.83 160.034V161.028C1125.83 161.612 1125.94 162.108 1126.14 162.517C1126.35 162.926 1126.64 163.239 1127.01 163.455C1127.38 163.667 1127.81 163.773 1128.31 163.773C1128.63 163.773 1128.93 163.727 1129.19 163.636C1129.46 163.542 1129.69 163.402 1129.88 163.216C1130.07 163.03 1130.22 162.801 1130.32 162.528L1131.93 162.818C1131.8 163.292 1131.57 163.706 1131.24 164.062C1130.91 164.415 1130.49 164.689 1129.99 164.886C1129.5 165.08 1128.93 165.176 1128.29 165.176ZM1137.19 165.17C1136.49 165.17 1135.86 164.991 1135.3 164.631C1134.75 164.267 1134.32 163.75 1134.01 163.08C1133.7 162.405 1133.54 161.597 1133.54 160.653C1133.54 159.71 1133.7 158.903 1134.01 158.233C1134.33 157.562 1134.77 157.049 1135.32 156.693C1135.87 156.337 1136.5 156.159 1137.2 156.159C1137.74 156.159 1138.18 156.25 1138.51 156.432C1138.84 156.61 1139.1 156.818 1139.28 157.057C1139.47 157.295 1139.61 157.506 1139.71 157.688H1139.82V153.364H1141.51V165H1139.86V163.642H1139.71C1139.61 163.828 1139.46 164.04 1139.27 164.278C1139.08 164.517 1138.82 164.725 1138.49 164.903C1138.15 165.081 1137.72 165.17 1137.19 165.17ZM1137.57 163.722C1138.05 163.722 1138.47 163.593 1138.8 163.335C1139.14 163.074 1139.4 162.712 1139.58 162.25C1139.75 161.788 1139.84 161.25 1139.84 160.636C1139.84 160.03 1139.76 159.5 1139.58 159.045C1139.41 158.591 1139.15 158.237 1138.82 157.983C1138.48 157.729 1138.06 157.602 1137.57 157.602C1137.05 157.602 1136.63 157.735 1136.29 158C1135.95 158.265 1135.69 158.627 1135.51 159.085C1135.34 159.544 1135.26 160.061 1135.26 160.636C1135.26 161.22 1135.35 161.744 1135.52 162.21C1135.69 162.676 1135.95 163.045 1136.29 163.318C1136.64 163.587 1137.06 163.722 1137.57 163.722ZM1150.71 165.193C1150.16 165.193 1149.66 165.091 1149.21 164.886C1148.77 164.678 1148.41 164.377 1148.15 163.983C1147.89 163.589 1147.76 163.106 1147.76 162.534C1147.76 162.042 1147.86 161.636 1148.05 161.318C1148.24 161 1148.49 160.748 1148.82 160.562C1149.14 160.377 1149.5 160.237 1149.89 160.142C1150.29 160.047 1150.7 159.975 1151.11 159.926C1151.63 159.866 1152.06 159.816 1152.38 159.778C1152.71 159.737 1152.95 159.67 1153.09 159.58C1153.24 159.489 1153.32 159.341 1153.32 159.136V159.097C1153.32 158.6 1153.18 158.216 1152.89 157.943C1152.62 157.67 1152.21 157.534 1151.66 157.534C1151.08 157.534 1150.63 157.661 1150.3 157.915C1149.98 158.165 1149.75 158.443 1149.63 158.75L1148.03 158.386C1148.22 157.856 1148.5 157.428 1148.86 157.102C1149.23 156.773 1149.65 156.534 1150.13 156.386C1150.61 156.235 1151.11 156.159 1151.63 156.159C1151.98 156.159 1152.35 156.201 1152.74 156.284C1153.14 156.364 1153.5 156.511 1153.84 156.727C1154.19 156.943 1154.47 157.252 1154.69 157.653C1154.91 158.051 1155.02 158.568 1155.02 159.205V165H1153.36V163.807H1153.29C1153.18 164.027 1153.02 164.242 1152.8 164.455C1152.58 164.667 1152.3 164.843 1151.95 164.983C1151.61 165.123 1151.19 165.193 1150.71 165.193ZM1151.08 163.83C1151.55 163.83 1151.95 163.737 1152.29 163.551C1152.62 163.366 1152.88 163.123 1153.05 162.824C1153.23 162.521 1153.32 162.197 1153.32 161.852V160.727C1153.26 160.788 1153.14 160.845 1152.97 160.898C1152.8 160.947 1152.6 160.991 1152.38 161.028C1152.16 161.062 1151.95 161.095 1151.74 161.125C1151.53 161.152 1151.36 161.174 1151.22 161.193C1150.89 161.235 1150.59 161.305 1150.32 161.403C1150.05 161.502 1149.83 161.644 1149.67 161.83C1149.51 162.011 1149.43 162.254 1149.43 162.557C1149.43 162.977 1149.58 163.295 1149.89 163.511C1150.21 163.723 1150.6 163.83 1151.08 163.83ZM1162.81 161.381V156.273H1164.52V165H1162.85V163.489H1162.75C1162.55 163.955 1162.23 164.343 1161.79 164.653C1161.35 164.96 1160.8 165.114 1160.15 165.114C1159.59 165.114 1159.09 164.991 1158.66 164.744C1158.23 164.494 1157.89 164.125 1157.65 163.636C1157.4 163.148 1157.28 162.544 1157.28 161.824V156.273H1158.98V161.619C1158.98 162.214 1159.15 162.687 1159.48 163.04C1159.81 163.392 1160.23 163.568 1160.76 163.568C1161.08 163.568 1161.39 163.489 1161.71 163.33C1162.03 163.17 1162.29 162.93 1162.5 162.608C1162.71 162.286 1162.81 161.877 1162.81 161.381ZM1170.07 165.17C1169.36 165.17 1168.73 164.991 1168.18 164.631C1167.63 164.267 1167.2 163.75 1166.88 163.08C1166.57 162.405 1166.42 161.597 1166.42 160.653C1166.42 159.71 1166.57 158.903 1166.89 158.233C1167.21 157.562 1167.64 157.049 1168.2 156.693C1168.75 156.337 1169.38 156.159 1170.08 156.159C1170.62 156.159 1171.05 156.25 1171.38 156.432C1171.72 156.61 1171.97 156.818 1172.16 157.057C1172.34 157.295 1172.49 157.506 1172.59 157.688H1172.69V153.364H1174.39V165H1172.73V163.642H1172.59C1172.49 163.828 1172.34 164.04 1172.14 164.278C1171.96 164.517 1171.69 164.725 1171.36 164.903C1171.03 165.081 1170.6 165.17 1170.07 165.17ZM1170.44 163.722C1170.93 163.722 1171.34 163.593 1171.68 163.335C1172.02 163.074 1172.28 162.712 1172.45 162.25C1172.63 161.788 1172.72 161.25 1172.72 160.636C1172.72 160.03 1172.63 159.5 1172.46 159.045C1172.28 158.591 1172.03 158.237 1171.69 157.983C1171.35 157.729 1170.94 157.602 1170.44 157.602C1169.93 157.602 1169.5 157.735 1169.16 158C1168.82 158.265 1168.56 158.627 1168.39 159.085C1168.22 159.544 1168.13 160.061 1168.13 160.636C1168.13 161.22 1168.22 161.744 1168.39 162.21C1168.57 162.676 1168.83 163.045 1169.17 163.318C1169.51 163.587 1169.94 163.722 1170.44 163.722ZM1176.81 165V156.273H1178.51V165H1176.81ZM1177.67 154.926C1177.38 154.926 1177.12 154.828 1176.91 154.631C1176.7 154.43 1176.6 154.191 1176.6 153.915C1176.6 153.634 1176.7 153.396 1176.91 153.199C1177.12 152.998 1177.38 152.898 1177.67 152.898C1177.97 152.898 1178.22 152.998 1178.43 153.199C1178.64 153.396 1178.75 153.634 1178.75 153.915C1178.75 154.191 1178.64 154.43 1178.43 154.631C1178.22 154.828 1177.97 154.926 1177.67 154.926ZM1184.47 165.176C1183.66 165.176 1182.94 164.989 1182.33 164.614C1181.72 164.239 1181.25 163.714 1180.91 163.04C1180.57 162.366 1180.41 161.578 1180.41 160.676C1180.41 159.771 1180.57 158.979 1180.91 158.301C1181.25 157.623 1181.72 157.097 1182.33 156.722C1182.94 156.347 1183.66 156.159 1184.47 156.159C1185.29 156.159 1186.01 156.347 1186.62 156.722C1187.23 157.097 1187.7 157.623 1188.04 158.301C1188.37 158.979 1188.54 159.771 1188.54 160.676C1188.54 161.578 1188.37 162.366 1188.04 163.04C1187.7 163.714 1187.23 164.239 1186.62 164.614C1186.01 164.989 1185.29 165.176 1184.47 165.176ZM1184.48 163.75C1185.01 163.75 1185.45 163.61 1185.8 163.33C1186.15 163.049 1186.4 162.676 1186.57 162.21C1186.74 161.744 1186.83 161.231 1186.83 160.67C1186.83 160.114 1186.74 159.602 1186.57 159.136C1186.4 158.667 1186.15 158.29 1185.8 158.006C1185.45 157.722 1185.01 157.58 1184.48 157.58C1183.95 157.58 1183.5 157.722 1183.15 158.006C1182.8 158.29 1182.54 158.667 1182.37 159.136C1182.21 159.602 1182.12 160.114 1182.12 160.67C1182.12 161.231 1182.21 161.744 1182.37 162.21C1182.54 162.676 1182.8 163.049 1183.15 163.33C1183.5 163.61 1183.95 163.75 1184.48 163.75ZM1198.83 156.273V157.636H1193.89V156.273H1198.83ZM1195.25 165V155.261C1195.25 154.716 1195.37 154.263 1195.61 153.903C1195.84 153.54 1196.16 153.269 1196.55 153.091C1196.95 152.909 1197.38 152.818 1197.84 152.818C1198.18 152.818 1198.47 152.847 1198.71 152.903C1198.96 152.956 1199.14 153.006 1199.25 153.051L1198.86 154.426C1198.78 154.403 1198.67 154.377 1198.55 154.347C1198.42 154.312 1198.27 154.295 1198.09 154.295C1197.68 154.295 1197.39 154.398 1197.21 154.602C1197.03 154.807 1196.95 155.102 1196.95 155.489V165H1195.25ZM1200.58 165V156.273H1202.22V157.659H1202.31C1202.47 157.189 1202.75 156.82 1203.15 156.551C1203.56 156.278 1204.02 156.142 1204.53 156.142C1204.63 156.142 1204.76 156.146 1204.9 156.153C1205.05 156.161 1205.17 156.17 1205.25 156.182V157.807C1205.18 157.788 1205.06 157.767 1204.89 157.744C1204.71 157.718 1204.54 157.705 1204.36 157.705C1203.96 157.705 1203.6 157.79 1203.29 157.96C1202.98 158.127 1202.73 158.36 1202.55 158.659C1202.37 158.955 1202.28 159.292 1202.28 159.67V165H1200.58ZM1209.18 165.193C1208.63 165.193 1208.13 165.091 1207.68 164.886C1207.23 164.678 1206.88 164.377 1206.62 163.983C1206.36 163.589 1206.23 163.106 1206.23 162.534C1206.23 162.042 1206.33 161.636 1206.52 161.318C1206.71 161 1206.96 160.748 1207.28 160.562C1207.61 160.377 1207.97 160.237 1208.36 160.142C1208.76 160.047 1209.17 159.975 1209.58 159.926C1210.1 159.866 1210.53 159.816 1210.85 159.778C1211.18 159.737 1211.41 159.67 1211.56 159.58C1211.71 159.489 1211.78 159.341 1211.78 159.136V159.097C1211.78 158.6 1211.64 158.216 1211.36 157.943C1211.09 157.67 1210.67 157.534 1210.12 157.534C1209.55 157.534 1209.1 157.661 1208.77 157.915C1208.45 158.165 1208.22 158.443 1208.1 158.75L1206.5 158.386C1206.69 157.856 1206.97 157.428 1207.33 157.102C1207.7 156.773 1208.12 156.534 1208.6 156.386C1209.07 156.235 1209.58 156.159 1210.1 156.159C1210.45 156.159 1210.82 156.201 1211.21 156.284C1211.6 156.364 1211.97 156.511 1212.31 156.727C1212.66 156.943 1212.94 157.252 1213.16 157.653C1213.38 158.051 1213.49 158.568 1213.49 159.205V165H1211.83V163.807H1211.76C1211.65 164.027 1211.49 164.242 1211.27 164.455C1211.05 164.667 1210.77 164.843 1210.42 164.983C1210.08 165.123 1209.66 165.193 1209.18 165.193ZM1209.55 163.83C1210.02 163.83 1210.42 163.737 1210.76 163.551C1211.09 163.366 1211.35 163.123 1211.52 162.824C1211.7 162.521 1211.79 162.197 1211.79 161.852V160.727C1211.73 160.788 1211.61 160.845 1211.44 160.898C1211.27 160.947 1211.07 160.991 1210.85 161.028C1210.63 161.062 1210.42 161.095 1210.21 161.125C1210 161.152 1209.83 161.174 1209.69 161.193C1209.36 161.235 1209.06 161.305 1208.78 161.403C1208.52 161.502 1208.3 161.644 1208.14 161.83C1207.98 162.011 1207.9 162.254 1207.9 162.557C1207.9 162.977 1208.05 163.295 1208.36 163.511C1208.67 163.723 1209.07 163.83 1209.55 163.83ZM1215.75 165V156.273H1217.38V157.693H1217.49C1217.67 157.212 1217.97 156.837 1218.38 156.568C1218.79 156.295 1219.29 156.159 1219.87 156.159C1220.45 156.159 1220.94 156.295 1221.33 156.568C1221.73 156.841 1222.02 157.216 1222.21 157.693H1222.3C1222.51 157.227 1222.84 156.856 1223.3 156.58C1223.75 156.299 1224.29 156.159 1224.92 156.159C1225.71 156.159 1226.36 156.407 1226.86 156.903C1227.36 157.4 1227.62 158.148 1227.62 159.148V165H1225.92V159.307C1225.92 158.716 1225.76 158.288 1225.43 158.023C1225.11 157.758 1224.73 157.625 1224.28 157.625C1223.73 157.625 1223.3 157.795 1222.99 158.136C1222.68 158.473 1222.53 158.907 1222.53 159.438V165H1220.84V159.199C1220.84 158.725 1220.69 158.345 1220.39 158.057C1220.1 157.769 1219.71 157.625 1219.24 157.625C1218.92 157.625 1218.62 157.71 1218.35 157.881C1218.08 158.047 1217.86 158.28 1217.69 158.58C1217.53 158.879 1217.45 159.225 1217.45 159.619V165H1215.75ZM1233.65 165.176C1232.79 165.176 1232.05 164.992 1231.43 164.625C1230.81 164.254 1230.34 163.733 1230 163.062C1229.67 162.388 1229.5 161.598 1229.5 160.693C1229.5 159.799 1229.67 159.011 1230 158.33C1230.34 157.648 1230.81 157.116 1231.41 156.733C1232.02 156.35 1232.72 156.159 1233.53 156.159C1234.03 156.159 1234.5 156.241 1234.97 156.403C1235.43 156.566 1235.84 156.822 1236.21 157.17C1236.58 157.519 1236.87 157.972 1237.08 158.528C1237.29 159.081 1237.4 159.754 1237.4 160.545V161.148H1230.46V159.875H1235.73C1235.73 159.428 1235.64 159.032 1235.46 158.688C1235.28 158.339 1235.02 158.064 1234.69 157.864C1234.37 157.663 1233.98 157.562 1233.55 157.562C1233.07 157.562 1232.65 157.68 1232.3 157.915C1231.94 158.146 1231.67 158.449 1231.48 158.824C1231.29 159.195 1231.19 159.598 1231.19 160.034V161.028C1231.19 161.612 1231.3 162.108 1231.5 162.517C1231.71 162.926 1232 163.239 1232.37 163.455C1232.74 163.667 1233.17 163.773 1233.67 163.773C1233.99 163.773 1234.29 163.727 1234.55 163.636C1234.82 163.542 1235.05 163.402 1235.24 163.216C1235.43 163.03 1235.58 162.801 1235.68 162.528L1237.29 162.818C1237.16 163.292 1236.93 163.706 1236.6 164.062C1236.27 164.415 1235.85 164.689 1235.35 164.886C1234.86 165.08 1234.29 165.176 1233.65 165.176Z" fill="white"/>
<path opacity="0.8" d="M432.278 165V153.364H436.426C437.331 153.364 438.081 153.528 438.676 153.858C439.271 154.187 439.716 154.638 440.011 155.21C440.307 155.778 440.455 156.419 440.455 157.131C440.455 157.847 440.305 158.491 440.006 159.062C439.71 159.631 439.263 160.081 438.665 160.415C438.07 160.744 437.322 160.909 436.42 160.909H433.568V159.42H436.261C436.833 159.42 437.297 159.322 437.653 159.125C438.009 158.924 438.271 158.652 438.438 158.307C438.604 157.962 438.688 157.57 438.688 157.131C438.688 156.691 438.604 156.301 438.438 155.96C438.271 155.619 438.008 155.352 437.648 155.159C437.292 154.966 436.822 154.869 436.239 154.869H434.034V165H432.278ZM444.838 165.193C444.285 165.193 443.785 165.091 443.338 164.886C442.891 164.678 442.537 164.377 442.276 163.983C442.018 163.589 441.889 163.106 441.889 162.534C441.889 162.042 441.984 161.636 442.173 161.318C442.363 161 442.618 160.748 442.94 160.562C443.262 160.377 443.622 160.237 444.02 160.142C444.418 160.047 444.823 159.975 445.236 159.926C445.759 159.866 446.183 159.816 446.509 159.778C446.834 159.737 447.071 159.67 447.219 159.58C447.366 159.489 447.44 159.341 447.44 159.136V159.097C447.44 158.6 447.3 158.216 447.02 157.943C446.743 157.67 446.33 157.534 445.781 157.534C445.209 157.534 444.759 157.661 444.429 157.915C444.103 158.165 443.878 158.443 443.753 158.75L442.156 158.386C442.346 157.856 442.622 157.428 442.986 157.102C443.353 156.773 443.776 156.534 444.253 156.386C444.73 156.235 445.232 156.159 445.759 156.159C446.107 156.159 446.476 156.201 446.866 156.284C447.26 156.364 447.628 156.511 447.969 156.727C448.313 156.943 448.596 157.252 448.815 157.653C449.035 158.051 449.145 158.568 449.145 159.205V165H447.486V163.807H447.418C447.308 164.027 447.143 164.242 446.923 164.455C446.704 164.667 446.421 164.843 446.077 164.983C445.732 165.123 445.319 165.193 444.838 165.193ZM445.207 163.83C445.677 163.83 446.079 163.737 446.412 163.551C446.749 163.366 447.005 163.123 447.179 162.824C447.357 162.521 447.446 162.197 447.446 161.852V160.727C447.385 160.788 447.268 160.845 447.094 160.898C446.923 160.947 446.728 160.991 446.509 161.028C446.289 161.062 446.075 161.095 445.866 161.125C445.658 161.152 445.484 161.174 445.344 161.193C445.014 161.235 444.713 161.305 444.44 161.403C444.171 161.502 443.955 161.644 443.793 161.83C443.634 162.011 443.554 162.254 443.554 162.557C443.554 162.977 443.709 163.295 444.02 163.511C444.33 163.723 444.726 163.83 445.207 163.83ZM457.947 158.403L456.408 158.676C456.343 158.479 456.241 158.292 456.101 158.114C455.964 157.936 455.779 157.79 455.544 157.676C455.309 157.562 455.016 157.506 454.663 157.506C454.182 157.506 453.781 157.614 453.459 157.83C453.137 158.042 452.976 158.316 452.976 158.653C452.976 158.945 453.084 159.18 453.3 159.358C453.516 159.536 453.864 159.682 454.345 159.795L455.732 160.114C456.535 160.299 457.133 160.585 457.527 160.972C457.921 161.358 458.118 161.86 458.118 162.477C458.118 163 457.966 163.466 457.663 163.875C457.364 164.28 456.946 164.598 456.408 164.83C455.874 165.061 455.254 165.176 454.55 165.176C453.572 165.176 452.775 164.968 452.158 164.551C451.54 164.131 451.161 163.534 451.021 162.761L452.663 162.511C452.766 162.939 452.976 163.263 453.294 163.483C453.612 163.699 454.027 163.807 454.538 163.807C455.095 163.807 455.54 163.691 455.874 163.46C456.207 163.225 456.374 162.939 456.374 162.602C456.374 162.33 456.271 162.1 456.067 161.915C455.866 161.729 455.557 161.589 455.141 161.494L453.663 161.17C452.849 160.985 452.247 160.689 451.857 160.284C451.47 159.879 451.277 159.366 451.277 158.744C451.277 158.229 451.421 157.778 451.709 157.392C451.997 157.006 452.394 156.705 452.902 156.489C453.41 156.269 453.991 156.159 454.646 156.159C455.589 156.159 456.332 156.364 456.874 156.773C457.415 157.178 457.773 157.722 457.947 158.403ZM466.526 158.403L464.986 158.676C464.921 158.479 464.819 158.292 464.679 158.114C464.543 157.936 464.357 157.79 464.122 157.676C463.887 157.562 463.594 157.506 463.241 157.506C462.76 157.506 462.359 157.614 462.037 157.83C461.715 158.042 461.554 158.316 461.554 158.653C461.554 158.945 461.662 159.18 461.878 159.358C462.094 159.536 462.442 159.682 462.923 159.795L464.31 160.114C465.113 160.299 465.711 160.585 466.105 160.972C466.499 161.358 466.696 161.86 466.696 162.477C466.696 163 466.545 163.466 466.241 163.875C465.942 164.28 465.524 164.598 464.986 164.83C464.452 165.061 463.832 165.176 463.128 165.176C462.151 165.176 461.353 164.968 460.736 164.551C460.118 164.131 459.74 163.534 459.599 162.761L461.241 162.511C461.344 162.939 461.554 163.263 461.872 163.483C462.19 163.699 462.605 163.807 463.116 163.807C463.673 163.807 464.118 163.691 464.452 163.46C464.785 163.225 464.952 162.939 464.952 162.602C464.952 162.33 464.849 162.1 464.645 161.915C464.444 161.729 464.135 161.589 463.719 161.494L462.241 161.17C461.427 160.985 460.825 160.689 460.435 160.284C460.048 159.879 459.855 159.366 459.855 158.744C459.855 158.229 459.999 157.778 460.287 157.392C460.575 157.006 460.973 156.705 461.48 156.489C461.988 156.269 462.569 156.159 463.224 156.159C464.168 156.159 464.91 156.364 465.452 156.773C465.993 157.178 466.351 157.722 466.526 158.403ZM472.798 165V156.273H474.44V157.659H474.531C474.69 157.189 474.971 156.82 475.372 156.551C475.777 156.278 476.236 156.142 476.747 156.142C476.853 156.142 476.978 156.146 477.122 156.153C477.27 156.161 477.385 156.17 477.469 156.182V157.807C477.401 157.788 477.279 157.767 477.105 157.744C476.931 157.718 476.757 157.705 476.582 157.705C476.181 157.705 475.823 157.79 475.509 157.96C475.198 158.127 474.952 158.36 474.77 158.659C474.588 158.955 474.497 159.292 474.497 159.67V165H472.798ZM482.388 165.176C481.528 165.176 480.787 164.992 480.166 164.625C479.549 164.254 479.071 163.733 478.734 163.062C478.401 162.388 478.234 161.598 478.234 160.693C478.234 159.799 478.401 159.011 478.734 158.33C479.071 157.648 479.541 157.116 480.143 156.733C480.75 156.35 481.458 156.159 482.268 156.159C482.761 156.159 483.238 156.241 483.7 156.403C484.162 156.566 484.577 156.822 484.945 157.17C485.312 157.519 485.602 157.972 485.814 158.528C486.026 159.081 486.132 159.754 486.132 160.545V161.148H479.195V159.875H484.467C484.467 159.428 484.376 159.032 484.195 158.688C484.013 158.339 483.757 158.064 483.428 157.864C483.102 157.663 482.719 157.562 482.28 157.562C481.803 157.562 481.386 157.68 481.03 157.915C480.678 158.146 480.405 158.449 480.212 158.824C480.022 159.195 479.928 159.598 479.928 160.034V161.028C479.928 161.612 480.03 162.108 480.234 162.517C480.443 162.926 480.732 163.239 481.104 163.455C481.475 163.667 481.909 163.773 482.405 163.773C482.727 163.773 483.02 163.727 483.286 163.636C483.551 163.542 483.78 163.402 483.973 163.216C484.166 163.03 484.314 162.801 484.416 162.528L486.024 162.818C485.895 163.292 485.664 163.706 485.331 164.062C485.001 164.415 484.587 164.689 484.087 164.886C483.59 165.08 483.024 165.176 482.388 165.176ZM489.716 159.818V165H488.017V156.273H489.648V157.693H489.756C489.956 157.231 490.271 156.86 490.699 156.58C491.131 156.299 491.674 156.159 492.33 156.159C492.924 156.159 493.445 156.284 493.892 156.534C494.339 156.78 494.686 157.148 494.932 157.636C495.178 158.125 495.301 158.729 495.301 159.449V165H493.602V159.653C493.602 159.021 493.438 158.527 493.108 158.17C492.778 157.811 492.326 157.631 491.75 157.631C491.356 157.631 491.006 157.716 490.699 157.886C490.396 158.057 490.155 158.307 489.977 158.636C489.803 158.962 489.716 159.356 489.716 159.818ZM500.847 165.17C500.142 165.17 499.513 164.991 498.96 164.631C498.411 164.267 497.979 163.75 497.665 163.08C497.354 162.405 497.199 161.597 497.199 160.653C497.199 159.71 497.356 158.903 497.67 158.233C497.989 157.562 498.424 157.049 498.977 156.693C499.53 156.337 500.157 156.159 500.858 156.159C501.4 156.159 501.835 156.25 502.165 156.432C502.498 156.61 502.756 156.818 502.938 157.057C503.123 157.295 503.267 157.506 503.369 157.688H503.472V153.364H505.17V165H503.511V163.642H503.369C503.267 163.828 503.119 164.04 502.926 164.278C502.737 164.517 502.475 164.725 502.142 164.903C501.809 165.081 501.377 165.17 500.847 165.17ZM501.222 163.722C501.71 163.722 502.123 163.593 502.46 163.335C502.801 163.074 503.059 162.712 503.233 162.25C503.411 161.788 503.5 161.25 503.5 160.636C503.5 160.03 503.413 159.5 503.239 159.045C503.064 158.591 502.809 158.237 502.472 157.983C502.134 157.729 501.718 157.602 501.222 157.602C500.71 157.602 500.284 157.735 499.943 158C499.602 158.265 499.345 158.627 499.17 159.085C499 159.544 498.915 160.061 498.915 160.636C498.915 161.22 499.002 161.744 499.176 162.21C499.35 162.676 499.608 163.045 499.949 163.318C500.294 163.587 500.718 163.722 501.222 163.722ZM511.357 165.176C510.497 165.176 509.756 164.992 509.135 164.625C508.518 164.254 508.04 163.733 507.703 163.062C507.37 162.388 507.203 161.598 507.203 160.693C507.203 159.799 507.37 159.011 507.703 158.33C508.04 157.648 508.51 157.116 509.112 156.733C509.718 156.35 510.427 156.159 511.237 156.159C511.73 156.159 512.207 156.241 512.669 156.403C513.131 156.566 513.546 156.822 513.913 157.17C514.281 157.519 514.571 157.972 514.783 158.528C514.995 159.081 515.101 159.754 515.101 160.545V161.148H508.163V159.875H513.436C513.436 159.428 513.345 159.032 513.163 158.688C512.982 158.339 512.726 158.064 512.396 157.864C512.071 157.663 511.688 157.562 511.249 157.562C510.771 157.562 510.355 157.68 509.999 157.915C509.646 158.146 509.374 158.449 509.18 158.824C508.991 159.195 508.896 159.598 508.896 160.034V161.028C508.896 161.612 508.999 162.108 509.203 162.517C509.411 162.926 509.701 163.239 510.072 163.455C510.444 163.667 510.877 163.773 511.374 163.773C511.696 163.773 511.989 163.727 512.254 163.636C512.519 163.542 512.749 163.402 512.942 163.216C513.135 163.03 513.283 162.801 513.385 162.528L514.993 162.818C514.864 163.292 514.633 163.706 514.3 164.062C513.97 164.415 513.555 164.689 513.055 164.886C512.559 165.08 511.993 165.176 511.357 165.176ZM516.986 165V156.273H518.628V157.659H518.719C518.878 157.189 519.158 156.82 519.56 156.551C519.965 156.278 520.423 156.142 520.935 156.142C521.041 156.142 521.166 156.146 521.31 156.153C521.457 156.161 521.573 156.17 521.656 156.182V157.807C521.588 157.788 521.467 157.767 521.293 157.744C521.118 157.718 520.944 157.705 520.77 157.705C520.368 157.705 520.01 157.79 519.696 157.96C519.385 158.127 519.139 158.36 518.957 158.659C518.776 158.955 518.685 159.292 518.685 159.67V165H516.986ZM526.575 165.176C525.715 165.176 524.975 164.992 524.354 164.625C523.736 164.254 523.259 163.733 522.922 163.062C522.589 162.388 522.422 161.598 522.422 160.693C522.422 159.799 522.589 159.011 522.922 158.33C523.259 157.648 523.729 157.116 524.331 156.733C524.937 156.35 525.645 156.159 526.456 156.159C526.948 156.159 527.426 156.241 527.888 156.403C528.35 156.566 528.765 156.822 529.132 157.17C529.5 157.519 529.789 157.972 530.001 158.528C530.214 159.081 530.32 159.754 530.32 160.545V161.148H523.382V159.875H528.655C528.655 159.428 528.564 159.032 528.382 158.688C528.2 158.339 527.945 158.064 527.615 157.864C527.289 157.663 526.907 157.562 526.467 157.562C525.99 157.562 525.573 157.68 525.217 157.915C524.865 158.146 524.592 158.449 524.399 158.824C524.21 159.195 524.115 159.598 524.115 160.034V161.028C524.115 161.612 524.217 162.108 524.422 162.517C524.63 162.926 524.92 163.239 525.291 163.455C525.662 163.667 526.096 163.773 526.592 163.773C526.914 163.773 527.208 163.727 527.473 163.636C527.738 163.542 527.967 163.402 528.161 163.216C528.354 163.03 528.501 162.801 528.604 162.528L530.212 162.818C530.083 163.292 529.852 163.706 529.518 164.062C529.189 164.415 528.774 164.689 528.274 164.886C527.778 165.08 527.212 165.176 526.575 165.176ZM535.472 165.17C534.767 165.17 534.138 164.991 533.585 164.631C533.036 164.267 532.604 163.75 532.29 163.08C531.979 162.405 531.824 161.597 531.824 160.653C531.824 159.71 531.981 158.903 532.295 158.233C532.614 157.562 533.049 157.049 533.602 156.693C534.155 156.337 534.782 156.159 535.483 156.159C536.025 156.159 536.46 156.25 536.79 156.432C537.123 156.61 537.381 156.818 537.562 157.057C537.748 157.295 537.892 157.506 537.994 157.688H538.097V153.364H539.795V165H538.136V163.642H537.994C537.892 163.828 537.744 164.04 537.551 164.278C537.362 164.517 537.1 164.725 536.767 164.903C536.434 165.081 536.002 165.17 535.472 165.17ZM535.847 163.722C536.335 163.722 536.748 163.593 537.085 163.335C537.426 163.074 537.684 162.712 537.858 162.25C538.036 161.788 538.125 161.25 538.125 160.636C538.125 160.03 538.038 159.5 537.864 159.045C537.689 158.591 537.434 158.237 537.097 157.983C536.759 157.729 536.343 157.602 535.847 157.602C535.335 157.602 534.909 157.735 534.568 158C534.227 158.265 533.97 158.627 533.795 159.085C533.625 159.544 533.54 160.061 533.54 160.636C533.54 161.22 533.627 161.744 533.801 162.21C533.975 162.676 534.233 163.045 534.574 163.318C534.919 163.587 535.343 163.722 535.847 163.722ZM548.994 165.193C548.441 165.193 547.941 165.091 547.494 164.886C547.047 164.678 546.693 164.377 546.432 163.983C546.174 163.589 546.045 163.106 546.045 162.534C546.045 162.042 546.14 161.636 546.33 161.318C546.519 161 546.775 160.748 547.097 160.562C547.419 160.377 547.778 160.237 548.176 160.142C548.574 160.047 548.979 159.975 549.392 159.926C549.915 159.866 550.339 159.816 550.665 159.778C550.991 159.737 551.227 159.67 551.375 159.58C551.523 159.489 551.597 159.341 551.597 159.136V159.097C551.597 158.6 551.456 158.216 551.176 157.943C550.9 157.67 550.487 157.534 549.938 157.534C549.366 157.534 548.915 157.661 548.585 157.915C548.259 158.165 548.034 158.443 547.909 158.75L546.312 158.386C546.502 157.856 546.778 157.428 547.142 157.102C547.509 156.773 547.932 156.534 548.409 156.386C548.886 156.235 549.388 156.159 549.915 156.159C550.263 156.159 550.633 156.201 551.023 156.284C551.417 156.364 551.784 156.511 552.125 156.727C552.47 156.943 552.752 157.252 552.972 157.653C553.191 158.051 553.301 158.568 553.301 159.205V165H551.642V163.807H551.574C551.464 164.027 551.299 164.242 551.08 164.455C550.86 164.667 550.578 164.843 550.233 164.983C549.888 165.123 549.475 165.193 548.994 165.193ZM549.364 163.83C549.833 163.83 550.235 163.737 550.568 163.551C550.905 163.366 551.161 163.123 551.335 162.824C551.513 162.521 551.602 162.197 551.602 161.852V160.727C551.542 160.788 551.424 160.845 551.25 160.898C551.08 160.947 550.884 160.991 550.665 161.028C550.445 161.062 550.231 161.095 550.023 161.125C549.814 161.152 549.64 161.174 549.5 161.193C549.17 161.235 548.869 161.305 548.597 161.403C548.328 161.502 548.112 161.644 547.949 161.83C547.79 162.011 547.71 162.254 547.71 162.557C547.71 162.977 547.866 163.295 548.176 163.511C548.487 163.723 548.883 163.83 549.364 163.83ZM561.092 161.381V156.273H562.797V165H561.126V163.489H561.036C560.835 163.955 560.513 164.343 560.07 164.653C559.63 164.96 559.083 165.114 558.428 165.114C557.867 165.114 557.371 164.991 556.939 164.744C556.511 164.494 556.174 164.125 555.928 163.636C555.685 163.148 555.564 162.544 555.564 161.824V156.273H557.263V161.619C557.263 162.214 557.428 162.687 557.757 163.04C558.087 163.392 558.515 163.568 559.041 163.568C559.359 163.568 559.676 163.489 559.99 163.33C560.308 163.17 560.571 162.93 560.78 162.608C560.992 162.286 561.096 161.877 561.092 161.381ZM568.347 165.17C567.642 165.17 567.013 164.991 566.46 164.631C565.911 164.267 565.479 163.75 565.165 163.08C564.854 162.405 564.699 161.597 564.699 160.653C564.699 159.71 564.856 158.903 565.17 158.233C565.489 157.562 565.924 157.049 566.477 156.693C567.03 156.337 567.657 156.159 568.358 156.159C568.9 156.159 569.335 156.25 569.665 156.432C569.998 156.61 570.256 156.818 570.438 157.057C570.623 157.295 570.767 157.506 570.869 157.688H570.972V153.364H572.67V165H571.011V163.642H570.869C570.767 163.828 570.619 164.04 570.426 164.278C570.237 164.517 569.975 164.725 569.642 164.903C569.309 165.081 568.877 165.17 568.347 165.17ZM568.722 163.722C569.21 163.722 569.623 163.593 569.96 163.335C570.301 163.074 570.559 162.712 570.733 162.25C570.911 161.788 571 161.25 571 160.636C571 160.03 570.913 159.5 570.739 159.045C570.564 158.591 570.309 158.237 569.972 157.983C569.634 157.729 569.218 157.602 568.722 157.602C568.21 157.602 567.784 157.735 567.443 158C567.102 158.265 566.845 158.627 566.67 159.085C566.5 159.544 566.415 160.061 566.415 160.636C566.415 161.22 566.502 161.744 566.676 162.21C566.85 162.676 567.108 163.045 567.449 163.318C567.794 163.587 568.218 163.722 568.722 163.722ZM575.095 165V156.273H576.794V165H575.095ZM575.953 154.926C575.658 154.926 575.404 154.828 575.192 154.631C574.983 154.43 574.879 154.191 574.879 153.915C574.879 153.634 574.983 153.396 575.192 153.199C575.404 152.998 575.658 152.898 575.953 152.898C576.249 152.898 576.5 152.998 576.709 153.199C576.921 153.396 577.027 153.634 577.027 153.915C577.027 154.191 576.921 154.43 576.709 154.631C576.5 154.828 576.249 154.926 575.953 154.926ZM582.756 165.176C581.938 165.176 581.223 164.989 580.614 164.614C580.004 164.239 579.53 163.714 579.193 163.04C578.856 162.366 578.688 161.578 578.688 160.676C578.688 159.771 578.856 158.979 579.193 158.301C579.53 157.623 580.004 157.097 580.614 156.722C581.223 156.347 581.938 156.159 582.756 156.159C583.574 156.159 584.288 156.347 584.898 156.722C585.508 157.097 585.981 157.623 586.318 158.301C586.655 158.979 586.824 159.771 586.824 160.676C586.824 161.578 586.655 162.366 586.318 163.04C585.981 163.714 585.508 164.239 584.898 164.614C584.288 164.989 583.574 165.176 582.756 165.176ZM582.761 163.75C583.292 163.75 583.731 163.61 584.08 163.33C584.428 163.049 584.686 162.676 584.852 162.21C585.023 161.744 585.108 161.231 585.108 160.67C585.108 160.114 585.023 159.602 584.852 159.136C584.686 158.667 584.428 158.29 584.08 158.006C583.731 157.722 583.292 157.58 582.761 157.58C582.227 157.58 581.784 157.722 581.432 158.006C581.083 158.29 580.824 158.667 580.653 159.136C580.487 159.602 580.403 160.114 580.403 160.67C580.403 161.231 580.487 161.744 580.653 162.21C580.824 162.676 581.083 163.049 581.432 163.33C581.784 163.61 582.227 163.75 582.761 163.75ZM597.108 156.273V157.636H592.176V156.273H597.108ZM593.528 165V155.261C593.528 154.716 593.648 154.263 593.886 153.903C594.125 153.54 594.441 153.269 594.835 153.091C595.229 152.909 595.657 152.818 596.119 152.818C596.46 152.818 596.752 152.847 596.994 152.903C597.237 152.956 597.417 153.006 597.534 153.051L597.136 154.426C597.057 154.403 596.955 154.377 596.83 154.347C596.705 154.312 596.553 154.295 596.375 154.295C595.962 154.295 595.667 154.398 595.489 154.602C595.314 154.807 595.227 155.102 595.227 155.489V165H593.528ZM598.861 165V156.273H600.503V157.659H600.594C600.753 157.189 601.033 156.82 601.435 156.551C601.84 156.278 602.298 156.142 602.81 156.142C602.916 156.142 603.041 156.146 603.185 156.153C603.332 156.161 603.448 156.17 603.531 156.182V157.807C603.463 157.788 603.342 157.767 603.168 157.744C602.993 157.718 602.819 157.705 602.645 157.705C602.243 157.705 601.885 157.79 601.571 157.96C601.26 158.127 601.014 158.36 600.832 158.659C600.651 158.955 600.56 159.292 600.56 159.67V165H598.861ZM607.463 165.193C606.91 165.193 606.41 165.091 605.963 164.886C605.516 164.678 605.162 164.377 604.901 163.983C604.643 163.589 604.514 163.106 604.514 162.534C604.514 162.042 604.609 161.636 604.798 161.318C604.988 161 605.243 160.748 605.565 160.562C605.887 160.377 606.247 160.237 606.645 160.142C607.043 160.047 607.448 159.975 607.861 159.926C608.384 159.866 608.808 159.816 609.134 159.778C609.459 159.737 609.696 159.67 609.844 159.58C609.991 159.489 610.065 159.341 610.065 159.136V159.097C610.065 158.6 609.925 158.216 609.645 157.943C609.368 157.67 608.955 157.534 608.406 157.534C607.834 157.534 607.384 157.661 607.054 157.915C606.728 158.165 606.503 158.443 606.378 158.75L604.781 158.386C604.971 157.856 605.247 157.428 605.611 157.102C605.978 156.773 606.401 156.534 606.878 156.386C607.355 156.235 607.857 156.159 608.384 156.159C608.732 156.159 609.101 156.201 609.491 156.284C609.885 156.364 610.253 156.511 610.594 156.727C610.938 156.943 611.221 157.252 611.44 157.653C611.66 158.051 611.77 158.568 611.77 159.205V165H610.111V163.807H610.043C609.933 164.027 609.768 164.242 609.548 164.455C609.329 164.667 609.046 164.843 608.702 164.983C608.357 165.123 607.944 165.193 607.463 165.193ZM607.832 163.83C608.302 163.83 608.704 163.737 609.037 163.551C609.374 163.366 609.63 163.123 609.804 162.824C609.982 162.521 610.071 162.197 610.071 161.852V160.727C610.01 160.788 609.893 160.845 609.719 160.898C609.548 160.947 609.353 160.991 609.134 161.028C608.914 161.062 608.7 161.095 608.491 161.125C608.283 161.152 608.109 161.174 607.969 161.193C607.639 161.235 607.338 161.305 607.065 161.403C606.796 161.502 606.58 161.644 606.418 161.83C606.259 162.011 606.179 162.254 606.179 162.557C606.179 162.977 606.334 163.295 606.645 163.511C606.955 163.723 607.351 163.83 607.832 163.83ZM614.033 165V156.273H615.663V157.693H615.771C615.953 157.212 616.25 156.837 616.663 156.568C617.076 156.295 617.571 156.159 618.146 156.159C618.73 156.159 619.218 156.295 619.612 156.568C620.01 156.841 620.304 157.216 620.493 157.693H620.584C620.792 157.227 621.124 156.856 621.578 156.58C622.033 156.299 622.574 156.159 623.203 156.159C623.995 156.159 624.641 156.407 625.141 156.903C625.644 157.4 625.896 158.148 625.896 159.148V165H624.197V159.307C624.197 158.716 624.036 158.288 623.714 158.023C623.393 157.758 623.008 157.625 622.561 157.625C622.008 157.625 621.578 157.795 621.271 158.136C620.964 158.473 620.811 158.907 620.811 159.438V165H619.118V159.199C619.118 158.725 618.97 158.345 618.675 158.057C618.379 157.769 617.995 157.625 617.521 157.625C617.199 157.625 616.902 157.71 616.629 157.881C616.36 158.047 616.143 158.28 615.976 158.58C615.813 158.879 615.732 159.225 615.732 159.619V165H614.033ZM631.935 165.176C631.075 165.176 630.334 164.992 629.713 164.625C629.096 164.254 628.618 163.733 628.281 163.062C627.948 162.388 627.781 161.598 627.781 160.693C627.781 159.799 627.948 159.011 628.281 158.33C628.618 157.648 629.088 157.116 629.69 156.733C630.296 156.35 631.005 156.159 631.815 156.159C632.308 156.159 632.785 156.241 633.247 156.403C633.709 156.566 634.124 156.822 634.491 157.17C634.859 157.519 635.149 157.972 635.361 158.528C635.573 159.081 635.679 159.754 635.679 160.545V161.148H628.741V159.875H634.014C634.014 159.428 633.923 159.032 633.741 158.688C633.56 158.339 633.304 158.064 632.974 157.864C632.649 157.663 632.266 157.562 631.827 157.562C631.349 157.562 630.933 157.68 630.577 157.915C630.224 158.146 629.952 158.449 629.759 158.824C629.569 159.195 629.474 159.598 629.474 160.034V161.028C629.474 161.612 629.577 162.108 629.781 162.517C629.99 162.926 630.279 163.239 630.651 163.455C631.022 163.667 631.455 163.773 631.952 163.773C632.274 163.773 632.567 163.727 632.832 163.636C633.098 163.542 633.327 163.402 633.52 163.216C633.713 163.03 633.861 162.801 633.963 162.528L635.571 162.818C635.442 163.292 635.211 163.706 634.878 164.062C634.548 164.415 634.134 164.689 633.634 164.886C633.137 165.08 632.571 165.176 631.935 165.176Z" fill="white"/>
<path d="M690 186L680 180.227L680 191.774L690 186ZM380 187L681 187L681 185L380 185L380 187Z" fill="#A8E2FB"/>
<path d="M1318 187L1308 181.227L1308 192.774L1318 187ZM990 188L1309 188L1309 186L990 186L990 188Z" fill="#A8E2FB"/>
</g>
<defs>
<clipPath id="clip0_570_13267">
<rect width="1680" height="345" rx="20" fill="white"/>
</clipPath>
</defs>
</svg>
