<?xml version="1.0" encoding="UTF-8" standalone="no"?><svg xmlns="http://www.w3.org/2000/svg" xmlns:xlink="http://www.w3.org/1999/xlink" contentStyleType="text/css" height="441px" preserveAspectRatio="none" style="width:506px;height:441px;" version="1.1" viewBox="0 0 506 441" width="506px" zoomAndPan="magnify"><defs/><g><rect fill="none" height="439.3822" style="stroke:#0A9EFD;stroke-width:1.0;" width="504" x="0" y="0"/><rect fill="#999999" fill-opacity="0.33333" height="429.3822" style="stroke:#0A9EFD;stroke-width:0.5;" width="50.6667" x="16" y="6"/><text fill="#0A9EFD" font-family="sans-serif" font-size="13" font-weight="bold" lengthAdjust="spacing" textLength="25" x="28.8333" y="20.0283">App</text><rect fill="#999999" fill-opacity="0.33333" height="429.3822" style="stroke:#0A9EFD;stroke-width:0.5;" width="50.6667" x="220" y="6"/><text fill="#0A9EFD" font-family="sans-serif" font-size="13" font-weight="bold" lengthAdjust="spacing" textLength="27" x="231.8333" y="20.0283">SDK</text><rect fill="#999999" fill-opacity="0.33333" height="429.3822" style="stroke:#0A9EFD;stroke-width:0.5;" width="96" x="404" y="6"/><text fill="#0A9EFD" font-family="sans-serif" font-size="13" font-weight="bold" lengthAdjust="spacing" textLength="90" x="407" y="20.0283">Agora SD-RTN</text><rect fill="#0A9EFD" fill-opacity="0.06667" height="173.6641" style="stroke:#0A9EFD;stroke-width:2.0;" width="473.3333" x="10" y="114.4811"/><line style="stroke:#0A9EFD;stroke-width:0.5;stroke-dasharray:5.0,5.0;" x1="41" x2="41" y1="68.9577" y2="390.7155"/><line style="stroke:#0A9EFD;stroke-width:0.5;stroke-dasharray:5.0,5.0;" x1="245" x2="245" y1="68.9577" y2="390.7155"/><line style="stroke:#0A9EFD;stroke-width:0.5;stroke-dasharray:5.0,5.0;" x1="451.6667" x2="451.6667" y1="68.9577" y2="390.7155"/><rect fill="none" height="40.6667" rx="2.5" ry="2.5" style="stroke:#0A9EFD;stroke-width:2.0;" width="42.6667" x="20" y="27.291"/><path d="M29.1333,34.291 C28.5333,34.291 28,34.8243 28,35.4243 L28,59.791 C28,60.391 28.5333,60.9243 29.1333,60.9243 L50.1667,60.9243 C50.7667,60.9243 51.3,60.391 51.3,59.791 L51.3,35.4243 C51.3,34.8243 50.7667,34.291 50.1667,34.291 L29.1333,34.291 M31.3333,37.6243 L48,37.6243 L48,54.291 L31.3333,54.291 L31.3333,37.6243 M39.6667,55.9577 C40.9333,55.9577 41.7667,57.3577 41.1333,58.4577 C40.5,59.5577 38.8667,59.5577 38.2,58.4577 C37.5667,57.3577 38.3667,55.9577 39.6667,55.9577 " fill="#0A9EFD" style="stroke:;stroke-width:0.0;stroke-dasharray:;"/><rect fill="none" height="40.6667" rx="2.5" ry="2.5" style="stroke:#0A9EFD;stroke-width:2.0;" width="42.6667" x="20" y="389.7155"/><path d="M29.1333,396.7155 C28.5333,396.7155 28,397.2488 28,397.8488 L28,422.2155 C28,422.8155 28.5333,423.3488 29.1333,423.3488 L50.1667,423.3488 C50.7667,423.3488 51.3,422.8155 51.3,422.2155 L51.3,397.8488 C51.3,397.2488 50.7667,396.7155 50.1667,396.7155 L29.1333,396.7155 M31.3333,400.0488 L48,400.0488 L48,416.7155 L31.3333,416.7155 L31.3333,400.0488 M39.6667,418.3822 C40.9333,418.3822 41.7667,419.7822 41.1333,420.8822 C40.5,421.9822 38.8667,421.9822 38.2,420.8822 C37.5667,419.7822 38.3667,418.3822 39.6667,418.3822 " fill="#0A9EFD" style="stroke:;stroke-width:0.0;stroke-dasharray:;"/><rect fill="none" height="40.6667" rx="2.5" ry="2.5" style="stroke:#0A9EFD;stroke-width:2.0;" width="42.6667" x="224" y="27.291"/><path d="M232,34.291 L232,47.6243 L245.3333,47.6243 L245.3333,34.291 L232,34.291 M248.6667,40.9577 L248.6667,50.9577 L238.6667,50.9577 L238.6667,54.291 L252,54.291 L252,40.9577 L248.6667,40.9577 M255.3333,47.6243 L255.3333,57.6243 L245.3333,57.6243 L245.3333,60.9577 L258.6667,60.9577 L258.6667,47.6243 L255.3333,47.6243 " fill="#0A9EFD" style="stroke:;stroke-width:0.0;stroke-dasharray:;"/><rect fill="none" height="40.6667" rx="2.5" ry="2.5" style="stroke:#0A9EFD;stroke-width:2.0;" width="42.6667" x="224" y="389.7155"/><path d="M232,396.7155 L232,410.0488 L245.3333,410.0488 L245.3333,396.7155 L232,396.7155 M248.6667,403.3822 L248.6667,413.3822 L238.6667,413.3822 L238.6667,416.7155 L252,416.7155 L252,403.3822 L248.6667,403.3822 M255.3333,410.0488 L255.3333,420.0488 L245.3333,420.0488 L245.3333,423.3822 L258.6667,423.3822 L258.6667,410.0488 L255.3333,410.0488 " fill="#0A9EFD" style="stroke:;stroke-width:0.0;stroke-dasharray:;"/><rect fill="none" height="40.6667" rx="2.5" ry="2.5" style="stroke:#0A9EFD;stroke-width:2.0;" width="42.6667" x="430.6667" y="27.291"/><path d="M453.6667,34.291 C449.6333,34.291 446.1,37.1577 445.3333,40.9577 C441.6667,40.9577 438.6667,43.9577 438.6667,47.6243 C438.6667,51.291 441.6667,54.291 445.3333,54.291 L460.3333,54.291 C463.1,54.291 465.3333,52.0577 465.3333,49.291 C465.3333,47.1243 463.9333,44.991 462,44.291 L462,42.6243 C462,38.0243 458.2667,34.291 453.6667,34.291 " fill="#0A9EFD" style="stroke:;stroke-width:0.0;stroke-dasharray:;"/><rect fill="none" height="40.6667" rx="2.5" ry="2.5" style="stroke:#0A9EFD;stroke-width:2.0;" width="42.6667" x="430.6667" y="389.7155"/><path d="M453.6667,396.7155 C449.6333,396.7155 446.1,399.5822 445.3333,403.3822 C441.6667,403.3822 438.6667,406.3822 438.6667,410.0488 C438.6667,413.7155 441.6667,416.7155 445.3333,416.7155 L460.3333,416.7155 C463.1,416.7155 465.3333,414.4822 465.3333,411.7155 C465.3333,409.5488 463.9333,407.4155 462,406.7155 L462,405.0488 C462,400.4488 458.2667,396.7155 453.6667,396.7155 " fill="#0A9EFD" style="stroke:;stroke-width:0.0;stroke-dasharray:;"/><polygon fill="#0A9EFD" points="233.3333,95.4811,243.3333,99.4811,233.3333,103.4811,237.3333,99.4811" style="stroke:#0A9EFD;stroke-width:1.0;"/><line style="stroke:#0A9EFD;stroke-width:2.0;" x1="41.3333" x2="239.3333" y1="99.4811" y2="99.4811"/><text fill="#0A9EFD" font-family="Arial" font-size="13" lengthAdjust="spacing" textLength="178" x="54.3333" y="94.7262">Create and initialize the engine</text><path d="M10,114.4811 L180,114.4811 L180,121.0046 L170,131.0046 L10,131.0046 L10,114.4811 " fill="#EEEEEE" style="stroke:#0A9EFD;stroke-width:1.5;"/><rect fill="none" height="173.6641" style="stroke:#0A9EFD;stroke-width:2.0;" width="473.3333" x="10" y="114.4811"/><text fill="#000000" font-family="Arial" font-size="13" lengthAdjust="spacing" textLength="125" x="25" y="127.2497">Custom video capture</text><polygon fill="#0A9EFD" points="233.3333,147.528,243.3333,151.528,233.3333,155.528,237.3333,151.528" style="stroke:#0A9EFD;stroke-width:1.0;"/><line style="stroke:#0A9EFD;stroke-width:2.0;" x1="41.3333" x2="239.3333" y1="151.528" y2="151.528"/><text fill="#0A9EFD" font-family="Arial" font-size="13" lengthAdjust="spacing" textLength="162" x="62.3333" y="146.7731">Create a custom video track</text><polygon fill="#0A9EFD" points="233.3333,176.0514,243.3333,180.0514,233.3333,184.0514,237.3333,180.0514" style="stroke:#0A9EFD;stroke-width:1.0;"/><line style="stroke:#0A9EFD;stroke-width:2.0;" x1="41.3333" x2="239.3333" y1="180.0514" y2="180.0514"/><text fill="#0A9EFD" font-family="Arial" font-size="13" lengthAdjust="spacing" textLength="87" x="99.8333" y="175.2965">Join channel(s)</text><polygon fill="#0A9EFD" points="440,204.5749,450,208.5749,440,212.5749,444,208.5749" style="stroke:#0A9EFD;stroke-width:1.0;"/><line style="stroke:#0A9EFD;stroke-width:2.0;" x1="245.3333" x2="446" y1="208.5749" y2="208.5749"/><text fill="#0A9EFD" font-family="Arial" font-size="13" lengthAdjust="spacing" textLength="151" x="273.1667" y="203.82">Request to join channel(s)</text><polygon fill="#0A9EFD" points="233.3333,247.6217,243.3333,251.6217,233.3333,255.6217,237.3333,251.6217" style="stroke:#0A9EFD;stroke-width:1.0;"/><line style="stroke:#0A9EFD;stroke-width:2.0;" x1="41.3333" x2="239.3333" y1="251.6217" y2="251.6217"/><text fill="#0A9EFD" font-family="Arial" font-size="13" lengthAdjust="spacing" textLength="152" x="67.3333" y="232.3434">Push video frames to SDK</text><text fill="#0A9EFD" font-family="Arial" font-size="13" lengthAdjust="spacing" textLength="166" x="62.3333" y="246.8669">using the custom video track</text><polygon fill="#0A9EFD" points="233.3333,276.1452,243.3333,280.1452,233.3333,284.1452,237.3333,280.1452" style="stroke:#0A9EFD;stroke-width:1.0;"/><line style="stroke:#0A9EFD;stroke-width:2.0;" x1="41.3333" x2="239.3333" y1="280.1452" y2="280.1452"/><text fill="#0A9EFD" font-family="Arial" font-size="13" lengthAdjust="spacing" textLength="180" x="53.3333" y="275.3903">Destroy the custom video track</text><polygon fill="#0A9EFD" points="233.3333,311.6686,243.3333,315.6686,233.3333,319.6686,237.3333,315.6686" style="stroke:#0A9EFD;stroke-width:1.0;"/><line style="stroke:#0A9EFD;stroke-width:2.0;" x1="41.3333" x2="239.3333" y1="315.6686" y2="315.6686"/><text fill="#0A9EFD" font-family="Arial" font-size="13" lengthAdjust="spacing" textLength="97" x="94.8333" y="310.9137">Leave channel(s)</text><polygon fill="#0A9EFD" points="440,340.1921,450,344.1921,440,348.1921,444,344.1921" style="stroke:#0A9EFD;stroke-width:1.0;"/><line style="stroke:#0A9EFD;stroke-width:2.0;" x1="245.3333" x2="446" y1="344.1921" y2="344.1921"/><text fill="#0A9EFD" font-family="Arial" font-size="13" lengthAdjust="spacing" textLength="160" x="268.6667" y="339.4372">Request to leave channel(s)</text><polygon fill="#0A9EFD" points="233.3333,368.7155,243.3333,372.7155,233.3333,376.7155,237.3333,372.7155" style="stroke:#0A9EFD;stroke-width:1.0;"/><line style="stroke:#0A9EFD;stroke-width:2.0;" x1="41.3333" x2="239.3333" y1="372.7155" y2="372.7155"/><text fill="#0A9EFD" font-family="Arial" font-size="13" lengthAdjust="spacing" textLength="109" x="88.8333" y="367.9606">Destroy the engine</text><!--SRC=[XP1DImD138RlyolY7aGFAnuybR9GsfEABDMZ8EbitCPEC-jy5EklDxKBNKghr-Hvtdad5opMvOO0Mn_mBQvORZYldJ4B_mN5fEiAqs58RBb3IL2C8t_JwEws6bycN3XALG4OOLBNXgG1jNhrUVPmNdMufH3tge97wcJNHUVb_ENfV8PrFZVx2EKE4Lgbh3Hq1DD0cFHhkc7XnEXKXhGa86bPo9Ws-Dp1DCVarx3XXZnOx58ET286x91B0UrgGDrx5h1B525t5Q-D3ijAYurWJf-POeBauUC8EkXrZii- -JtWck8EryshG8uixM_jFmlCz8tWj-T0lS_mDe-46_gthpkcJZ_Nd_C7]--></g></svg>