<?xml version="1.0" encoding="us-ascii" standalone="no"?><svg xmlns="http://www.w3.org/2000/svg" xmlns:xlink="http://www.w3.org/1999/xlink" contentStyleType="text/css" height="422px" preserveAspectRatio="none" style="width:666px;height:422px;" version="1.1" viewBox="0 0 666 422" width="666px" zoomAndPan="magnify"><defs/><g><rect fill="none" height="420.1722" style="stroke:#0A9EFD;stroke-width:1.0;" width="664" x="0" y="0"/><rect fill="#999999" fill-opacity="0.33333" height="410.1722" style="stroke:#0A9EFD;stroke-width:0.5;" width="50.6667" x="167" y="6"/><text fill="#0A9EFD" font-family="sans-serif" font-size="13" font-weight="bold" lengthAdjust="spacing" textLength="25" x="179.8333" y="19.4951">App</text><rect fill="#999999" fill-opacity="0.33333" height="410.1722" style="stroke:#0A9EFD;stroke-width:0.5;" width="50.6667" x="373" y="6"/><text fill="#0A9EFD" font-family="sans-serif" font-size="13" font-weight="bold" lengthAdjust="spacing" textLength="27" x="384.8333" y="19.4951">SDK</text><rect fill="#999999" fill-opacity="0.33333" height="410.1722" style="stroke:#0A9EFD;stroke-width:0.5;" width="96" x="564" y="6"/><text fill="#0A9EFD" font-family="sans-serif" font-size="13" font-weight="bold" lengthAdjust="spacing" textLength="90" x="567" y="19.4951">Agora SD-RTN</text><rect fill="#0A9EFD" fill-opacity="0.06667" height="153.6924" style="stroke:#0A9EFD;stroke-width:2.0;" width="634.3333" x="9" y="113.967"/><line style="stroke:#0A9EFD;stroke-width:0.5;stroke-dasharray:5.0,5.0;" x1="192" x2="192" y1="68.0182" y2="371.5055"/><line style="stroke:#0A9EFD;stroke-width:0.5;stroke-dasharray:5.0,5.0;" x1="398" x2="398" y1="68.0182" y2="371.5055"/><line style="stroke:#0A9EFD;stroke-width:0.5;stroke-dasharray:5.0,5.0;" x1="611.6667" x2="611.6667" y1="68.0182" y2="371.5055"/><rect fill="none" height="40.6667" rx="2.5" ry="2.5" style="stroke:#0A9EFD;stroke-width:2.0;" width="42.6667" x="171" y="26.3516"/><path d="M180.1333,33.3516 C179.5333,33.3516 179,33.8849 179,34.4849 L179,58.8516 C179,59.4516 179.5333,59.9849 180.1333,59.9849 L201.1667,59.9849 C201.7667,59.9849 202.3,59.4516 202.3,58.8516 L202.3,34.4849 C202.3,33.8849 201.7667,33.3516 201.1667,33.3516 L180.1333,33.3516 M182.3333,36.6849 L199,36.6849 L199,53.3516 L182.3333,53.3516 L182.3333,36.6849 M190.6667,55.0182 C191.9333,55.0182 192.7667,56.4182 192.1333,57.5182 C191.5,58.6182 189.8667,58.6182 189.2,57.5182 C188.5667,56.4182 189.3667,55.0182 190.6667,55.0182 " fill="#0A9EFD" style="stroke:;stroke-width:0.0;stroke-dasharray:;"/><rect fill="none" height="40.6667" rx="2.5" ry="2.5" style="stroke:#0A9EFD;stroke-width:2.0;" width="42.6667" x="171" y="370.5055"/><path d="M180.1333,377.5055 C179.5333,377.5055 179,378.0389 179,378.6389 L179,403.0055 C179,403.6055 179.5333,404.1389 180.1333,404.1389 L201.1667,404.1389 C201.7667,404.1389 202.3,403.6055 202.3,403.0055 L202.3,378.6389 C202.3,378.0389 201.7667,377.5055 201.1667,377.5055 L180.1333,377.5055 M182.3333,380.8389 L199,380.8389 L199,397.5055 L182.3333,397.5055 L182.3333,380.8389 M190.6667,399.1722 C191.9333,399.1722 192.7667,400.5722 192.1333,401.6722 C191.5,402.7722 189.8667,402.7722 189.2,401.6722 C188.5667,400.5722 189.3667,399.1722 190.6667,399.1722 " fill="#0A9EFD" style="stroke:;stroke-width:0.0;stroke-dasharray:;"/><rect fill="none" height="40.6667" rx="2.5" ry="2.5" style="stroke:#0A9EFD;stroke-width:2.0;" width="42.6667" x="377" y="26.3516"/><path d="M385,33.3516 L385,46.6849 L398.3333,46.6849 L398.3333,33.3516 L385,33.3516 M401.6667,40.0182 L401.6667,50.0182 L391.6667,50.0182 L391.6667,53.3516 L405,53.3516 L405,40.0182 L401.6667,40.0182 M408.3333,46.6849 L408.3333,56.6849 L398.3333,56.6849 L398.3333,60.0182 L411.6667,60.0182 L411.6667,46.6849 L408.3333,46.6849 " fill="#0A9EFD" style="stroke:;stroke-width:0.0;stroke-dasharray:;"/><rect fill="none" height="40.6667" rx="2.5" ry="2.5" style="stroke:#0A9EFD;stroke-width:2.0;" width="42.6667" x="377" y="370.5055"/><path d="M385,377.5055 L385,390.8389 L398.3333,390.8389 L398.3333,377.5055 L385,377.5055 M401.6667,384.1722 L401.6667,394.1722 L391.6667,394.1722 L391.6667,397.5055 L405,397.5055 L405,384.1722 L401.6667,384.1722 M408.3333,390.8389 L408.3333,400.8389 L398.3333,400.8389 L398.3333,404.1722 L411.6667,404.1722 L411.6667,390.8389 L408.3333,390.8389 " fill="#0A9EFD" style="stroke:;stroke-width:0.0;stroke-dasharray:;"/><rect fill="none" height="40.6667" rx="2.5" ry="2.5" style="stroke:#0A9EFD;stroke-width:2.0;" width="42.6667" x="590.6667" y="26.3516"/><path d="M613.6667,33.3516 C609.6333,33.3516 606.1,36.2182 605.3333,40.0182 C601.6667,40.0182 598.6667,43.0182 598.6667,46.6849 C598.6667,50.3516 601.6667,53.3516 605.3333,53.3516 L620.3333,53.3516 C623.1,53.3516 625.3333,51.1182 625.3333,48.3516 C625.3333,46.1849 623.9333,44.0516 622,43.3516 L622,41.6849 C622,37.0849 618.2667,33.3516 613.6667,33.3516 " fill="#0A9EFD" style="stroke:;stroke-width:0.0;stroke-dasharray:;"/><rect fill="none" height="40.6667" rx="2.5" ry="2.5" style="stroke:#0A9EFD;stroke-width:2.0;" width="42.6667" x="590.6667" y="370.5055"/><path d="M613.6667,377.5055 C609.6333,377.5055 606.1,380.3722 605.3333,384.1722 C601.6667,384.1722 598.6667,387.1722 598.6667,390.8389 C598.6667,394.5055 601.6667,397.5055 605.3333,397.5055 L620.3333,397.5055 C623.1,397.5055 625.3333,395.2722 625.3333,392.5055 C625.3333,390.3389 623.9333,388.2055 622,387.5055 L622,385.8389 C622,381.2389 618.2667,377.5055 613.6667,377.5055 " fill="#0A9EFD" style="stroke:;stroke-width:0.0;stroke-dasharray:;"/><polygon fill="#0A9EFD" points="386.3333,94.967,396.3333,98.967,386.3333,102.967,390.3333,98.967" style="stroke:#0A9EFD;stroke-width:1.0;"/><line style="stroke:#0A9EFD;stroke-width:2.0;" x1="192.3333" x2="392.3333" y1="98.967" y2="98.967"/><text fill="#0A9EFD" font-family="Arial" font-size="13" lengthAdjust="spacing" textLength="178" x="206.3333" y="94.2121">Create and initialize the engine</text><path d="M9,113.967 L191,113.967 L191,120.9157 L181,130.9157 L9,130.9157 L9,113.967 " fill="#EEEEEE" style="stroke:#0A9EFD;stroke-width:1.5;"/><rect fill="none" height="153.6924" style="stroke:#0A9EFD;stroke-width:2.0;" width="634.3333" x="9" y="113.967"/><text fill="#000000" font-family="Arial" font-size="13" lengthAdjust="spacing" textLength="137" x="24" y="127.1608">Custom audio rendering</text><polygon fill="#0A9EFD" points="386.3333,147.8644,396.3333,151.8644,386.3333,155.8644,390.3333,151.8644" style="stroke:#0A9EFD;stroke-width:1.0;"/><line style="stroke:#0A9EFD;stroke-width:2.0;" x1="192.3333" x2="392.3333" y1="151.8644" y2="151.8644"/><text fill="#0A9EFD" font-family="Arial" font-size="13" lengthAdjust="spacing" textLength="182" x="204.3333" y="147.1095">Turn on custom audio rendering</text><polygon fill="#0A9EFD" points="386.3333,176.8132,396.3333,180.8132,386.3333,184.8132,390.3333,180.8132" style="stroke:#0A9EFD;stroke-width:1.0;"/><line style="stroke:#0A9EFD;stroke-width:2.0;" x1="192.3333" x2="392.3333" y1="180.8132" y2="180.8132"/><text fill="#0A9EFD" font-family="Arial" font-size="13" lengthAdjust="spacing" textLength="83" x="253.8333" y="176.0583">Join a channel</text><polygon fill="#0A9EFD" points="600,205.7619,610,209.7619,600,213.7619,604,209.7619" style="stroke:#0A9EFD;stroke-width:1.0;"/><line style="stroke:#0A9EFD;stroke-width:2.0;" x1="398.3333" x2="606" y1="209.7619" y2="209.7619"/><text fill="#0A9EFD" font-family="Arial" font-size="13" lengthAdjust="spacing" textLength="158" x="426.1667" y="205.007">Request to join the channel</text><polygon fill="#0A9EFD" points="386.3333,245.185,396.3333,249.185,386.3333,253.185,390.3333,249.185" style="stroke:#0A9EFD;stroke-width:1.0;"/><line style="stroke:#0A9EFD;stroke-width:2.0;" x1="192.3333" x2="392.3333" y1="249.185" y2="249.185"/><text fill="#0A9EFD" font-family="Arial" font-size="13" lengthAdjust="spacing" textLength="130" x="230.3333" y="244.4301">Pull remote audio data</text><path d="M19,222.7619 L19,261.7619 L187,261.7619 L187,232.7619 L177,222.7619 L19,222.7619 " fill="none" style="stroke:#0A9EFD;stroke-width:1.0;"/><path d="M177,222.7619 L177,232.7619 L187,232.7619 L177,222.7619 " fill="none" style="stroke:#0A9EFD;stroke-width:1.0;"/><text fill="#0A9EFD" font-family="Arial" font-size="13" lengthAdjust="spacing" textLength="138" x="34" y="239.9557">You render the obtained</text><text fill="#0A9EFD" font-family="Arial" font-size="13" lengthAdjust="spacing" textLength="109" x="50.5" y="254.9045">audio data yourself</text><polygon fill="#0A9EFD" points="386.3333,291.6081,396.3333,295.6081,386.3333,299.6081,390.3333,295.6081" style="stroke:#0A9EFD;stroke-width:1.0;"/><line style="stroke:#0A9EFD;stroke-width:2.0;" x1="192.3333" x2="392.3333" y1="295.6081" y2="295.6081"/><text fill="#0A9EFD" font-family="Arial" font-size="13" lengthAdjust="spacing" textLength="104" x="243.3333" y="290.8532">Leave the channel</text><polygon fill="#0A9EFD" points="600,320.5568,610,324.5568,600,328.5568,604,324.5568" style="stroke:#0A9EFD;stroke-width:1.0;"/><line style="stroke:#0A9EFD;stroke-width:2.0;" x1="398.3333" x2="606" y1="324.5568" y2="324.5568"/><text fill="#0A9EFD" font-family="Arial" font-size="13" lengthAdjust="spacing" textLength="167" x="421.6667" y="319.8019">Request to leave the channel</text><polygon fill="#0A9EFD" points="386.3333,349.5055,396.3333,353.5055,386.3333,357.5055,390.3333,353.5055" style="stroke:#0A9EFD;stroke-width:1.0;"/><line style="stroke:#0A9EFD;stroke-width:2.0;" x1="192.3333" x2="392.3333" y1="353.5055" y2="353.5055"/><text fill="#0A9EFD" font-family="Arial" font-size="13" lengthAdjust="spacing" textLength="109" x="240.8333" y="348.7507">Destroy the engine</text><!--SRC=[XP1DIyD048Rl-ol67BnLF7WA9L3Qaug4seiWo2IPfglRcRWVOlprJjfAuqVnkBlF-ymxUsQvTgaXm5OyFeKNonSsRPqnbRn3Dkkwp7JeewrjXnmXcmRxGVdLPJ4zZrWvYaK6661MbeQu0KqTelUBczDHXptvi8yg-2Cw6xhe_MIvkZljg9saPgzGxgZGAfD2fJdCFM7KrVJ5ieqMdOOXRWY8MyjaJEibTJ1F8SeMC3LMmAk8lELs95ebpo0CzN_WjLW6X7g3pEICtaqABPV3abuJXGXHu7bWXX9Vr35U9kVKkvMXzMv8Wn4D3sT7wvZ3WwJ3u9r2geYwIFF88nvwIJwGMmz_ChBV4hxHjyb_zdE_iADYeOoNVlo7dm00]--></g></svg>