<?xml version="1.0" encoding="us-ascii" standalone="no"?><svg xmlns="http://www.w3.org/2000/svg" xmlns:xlink="http://www.w3.org/1999/xlink" contentStyleType="text/css" height="490px" preserveAspectRatio="none" style="width:659px;height:490px;" version="1.1" viewBox="0 0 659 490" width="659px" zoomAndPan="magnify"><defs/><g><rect fill="none" height="488.0697" style="stroke:#0A9EFD;stroke-width:1.0;" width="657" x="0" y="0"/><rect fill="#999999" fill-opacity="0.33333" height="478.0697" style="stroke:#0A9EFD;stroke-width:0.5;" width="50.6667" x="16" y="6"/><text fill="#0A9EFD" font-family="sans-serif" font-size="13" font-weight="bold" lengthAdjust="spacing" textLength="25" x="28.8333" y="19.4951">App</text><rect fill="#999999" fill-opacity="0.33333" height="478.0697" style="stroke:#0A9EFD;stroke-width:0.5;" width="50.6667" x="356" y="6"/><text fill="#0A9EFD" font-family="sans-serif" font-size="13" font-weight="bold" lengthAdjust="spacing" textLength="27" x="367.8333" y="19.4951">SDK</text><rect fill="#999999" fill-opacity="0.33333" height="478.0697" style="stroke:#0A9EFD;stroke-width:0.5;" width="96" x="557" y="6"/><text fill="#0A9EFD" font-family="sans-serif" font-size="13" font-weight="bold" lengthAdjust="spacing" textLength="90" x="560" y="19.4951">Agora SD-RTN</text><rect fill="#0A9EFD" fill-opacity="0.06667" height="161.6924" style="stroke:#0A9EFD;stroke-width:2.0;" width="626.3333" x="10" y="113.967"/><rect fill="#0A9EFD" fill-opacity="0.06667" height="132.7437" style="stroke:#0A9EFD;stroke-width:2.0;" width="626.3333" x="10" y="289.6593"/><line style="stroke:#0A9EFD;stroke-width:0.5;stroke-dasharray:5.0,5.0;" x1="41" x2="41" y1="68.0182" y2="439.403"/><line style="stroke:#0A9EFD;stroke-width:0.5;stroke-dasharray:5.0,5.0;" x1="381" x2="381" y1="68.0182" y2="439.403"/><line style="stroke:#0A9EFD;stroke-width:0.5;stroke-dasharray:5.0,5.0;" x1="604.6667" x2="604.6667" y1="68.0182" y2="439.403"/><rect fill="none" height="40.6667" rx="2.5" ry="2.5" style="stroke:#0A9EFD;stroke-width:2.0;" width="42.6667" x="20" y="26.3516"/><path d="M29.1333,33.3516 C28.5333,33.3516 28,33.8849 28,34.4849 L28,58.8516 C28,59.4516 28.5333,59.9849 29.1333,59.9849 L50.1667,59.9849 C50.7667,59.9849 51.3,59.4516 51.3,58.8516 L51.3,34.4849 C51.3,33.8849 50.7667,33.3516 50.1667,33.3516 L29.1333,33.3516 M31.3333,36.6849 L48,36.6849 L48,53.3516 L31.3333,53.3516 L31.3333,36.6849 M39.6667,55.0182 C40.9333,55.0182 41.7667,56.4182 41.1333,57.5182 C40.5,58.6182 38.8667,58.6182 38.2,57.5182 C37.5667,56.4182 38.3667,55.0182 39.6667,55.0182 " fill="#0A9EFD" style="stroke:;stroke-width:0.0;stroke-dasharray:;"/><rect fill="none" height="40.6667" rx="2.5" ry="2.5" style="stroke:#0A9EFD;stroke-width:2.0;" width="42.6667" x="20" y="438.403"/><path d="M29.1333,445.403 C28.5333,445.403 28,445.9363 28,446.5363 L28,470.903 C28,471.503 28.5333,472.0363 29.1333,472.0363 L50.1667,472.0363 C50.7667,472.0363 51.3,471.503 51.3,470.903 L51.3,446.5363 C51.3,445.9363 50.7667,445.403 50.1667,445.403 L29.1333,445.403 M31.3333,448.7363 L48,448.7363 L48,465.403 L31.3333,465.403 L31.3333,448.7363 M39.6667,467.0697 C40.9333,467.0697 41.7667,468.4697 41.1333,469.5697 C40.5,470.6697 38.8667,470.6697 38.2,469.5697 C37.5667,468.4697 38.3667,467.0697 39.6667,467.0697 " fill="#0A9EFD" style="stroke:;stroke-width:0.0;stroke-dasharray:;"/><rect fill="none" height="40.6667" rx="2.5" ry="2.5" style="stroke:#0A9EFD;stroke-width:2.0;" width="42.6667" x="360" y="26.3516"/><path d="M368,33.3516 L368,46.6849 L381.3333,46.6849 L381.3333,33.3516 L368,33.3516 M384.6667,40.0182 L384.6667,50.0182 L374.6667,50.0182 L374.6667,53.3516 L388,53.3516 L388,40.0182 L384.6667,40.0182 M391.3333,46.6849 L391.3333,56.6849 L381.3333,56.6849 L381.3333,60.0182 L394.6667,60.0182 L394.6667,46.6849 L391.3333,46.6849 " fill="#0A9EFD" style="stroke:;stroke-width:0.0;stroke-dasharray:;"/><rect fill="none" height="40.6667" rx="2.5" ry="2.5" style="stroke:#0A9EFD;stroke-width:2.0;" width="42.6667" x="360" y="438.403"/><path d="M368,445.403 L368,458.7363 L381.3333,458.7363 L381.3333,445.403 L368,445.403 M384.6667,452.0697 L384.6667,462.0697 L374.6667,462.0697 L374.6667,465.403 L388,465.403 L388,452.0697 L384.6667,452.0697 M391.3333,458.7363 L391.3333,468.7363 L381.3333,468.7363 L381.3333,472.0697 L394.6667,472.0697 L394.6667,458.7363 L391.3333,458.7363 " fill="#0A9EFD" style="stroke:;stroke-width:0.0;stroke-dasharray:;"/><rect fill="none" height="40.6667" rx="2.5" ry="2.5" style="stroke:#0A9EFD;stroke-width:2.0;" width="42.6667" x="583.6667" y="26.3516"/><path d="M606.6667,33.3516 C602.6333,33.3516 599.1,36.2182 598.3333,40.0182 C594.6667,40.0182 591.6667,43.0182 591.6667,46.6849 C591.6667,50.3516 594.6667,53.3516 598.3333,53.3516 L613.3333,53.3516 C616.1,53.3516 618.3333,51.1182 618.3333,48.3516 C618.3333,46.1849 616.9333,44.0516 615,43.3516 L615,41.6849 C615,37.0849 611.2667,33.3516 606.6667,33.3516 " fill="#0A9EFD" style="stroke:;stroke-width:0.0;stroke-dasharray:;"/><rect fill="none" height="40.6667" rx="2.5" ry="2.5" style="stroke:#0A9EFD;stroke-width:2.0;" width="42.6667" x="583.6667" y="438.403"/><path d="M606.6667,445.403 C602.6333,445.403 599.1,448.2697 598.3333,452.0697 C594.6667,452.0697 591.6667,455.0697 591.6667,458.7363 C591.6667,462.403 594.6667,465.403 598.3333,465.403 L613.3333,465.403 C616.1,465.403 618.3333,463.1697 618.3333,460.403 C618.3333,458.2363 616.9333,456.103 615,455.403 L615,453.7363 C615,449.1363 611.2667,445.403 606.6667,445.403 " fill="#0A9EFD" style="stroke:;stroke-width:0.0;stroke-dasharray:;"/><polygon fill="#0A9EFD" points="369.3333,94.967,379.3333,98.967,369.3333,102.967,373.3333,98.967" style="stroke:#0A9EFD;stroke-width:1.0;"/><line style="stroke:#0A9EFD;stroke-width:2.0;" x1="41.3333" x2="375.3333" y1="98.967" y2="98.967"/><text fill="#0A9EFD" font-family="Arial" font-size="13" lengthAdjust="spacing" textLength="178" x="122.3333" y="94.2121">Create and initialize the engine</text><path d="M10,113.967 L182,113.967 L182,120.9157 L172,130.9157 L10,130.9157 L10,113.967 " fill="#EEEEEE" style="stroke:#0A9EFD;stroke-width:1.5;"/><rect fill="none" height="161.6924" style="stroke:#0A9EFD;stroke-width:2.0;" width="626.3333" x="10" y="113.967"/><text fill="#000000" font-family="Arial" font-size="13" lengthAdjust="spacing" textLength="127" x="25" y="127.1608">Custom audio capture</text><polygon fill="#0A9EFD" points="369.3333,147.8644,379.3333,151.8644,369.3333,155.8644,373.3333,151.8644" style="stroke:#0A9EFD;stroke-width:1.0;"/><line style="stroke:#0A9EFD;stroke-width:2.0;" x1="41.3333" x2="375.3333" y1="151.8644" y2="151.8644"/><text fill="#0A9EFD" font-family="Arial" font-size="13" lengthAdjust="spacing" textLength="164" x="129.3333" y="147.1095">Create a custom audio track</text><polygon fill="#0A9EFD" points="369.3333,176.8132,379.3333,180.8132,369.3333,184.8132,373.3333,180.8132" style="stroke:#0A9EFD;stroke-width:1.0;"/><line style="stroke:#0A9EFD;stroke-width:2.0;" x1="41.3333" x2="375.3333" y1="180.8132" y2="180.8132"/><text fill="#0A9EFD" font-family="Arial" font-size="13" lengthAdjust="spacing" textLength="83" x="169.8333" y="176.0583">Join a channel</text><polygon fill="#0A9EFD" points="593,205.7619,603,209.7619,593,213.7619,597,209.7619" style="stroke:#0A9EFD;stroke-width:1.0;"/><line style="stroke:#0A9EFD;stroke-width:2.0;" x1="381.3333" x2="599" y1="209.7619" y2="209.7619"/><text fill="#0A9EFD" font-family="Arial" font-size="13" lengthAdjust="spacing" textLength="158" x="414.1667" y="205.007">Request to join the channel</text><polygon fill="#0A9EFD" points="593,234.7106,603,238.7106,593,242.7106,597,238.7106" style="stroke:#0A9EFD;stroke-width:1.0;"/><line style="stroke:#0A9EFD;stroke-width:2.0;" x1="381.3333" x2="599" y1="238.7106" y2="238.7106"/><text fill="#0A9EFD" font-family="Arial" font-size="13" lengthAdjust="spacing" textLength="177" x="404.6667" y="233.9557">Pubish the custom audio track</text><polygon fill="#0A9EFD" points="369.3333,263.6593,379.3333,267.6593,369.3333,271.6593,373.3333,267.6593" style="stroke:#0A9EFD;stroke-width:1.0;"/><line style="stroke:#0A9EFD;stroke-width:2.0;" x1="41.3333" x2="375.3333" y1="267.6593" y2="267.6593"/><text fill="#0A9EFD" font-family="Arial" font-size="13" lengthAdjust="spacing" textLength="316" x="53.3333" y="262.9045">Push audio frames to SDK through custom audio track</text><path d="M10,289.6593 L164,289.6593 L164,296.6081 L154,306.6081 L10,306.6081 L10,289.6593 " fill="#EEEEEE" style="stroke:#0A9EFD;stroke-width:1.5;"/><rect fill="none" height="132.7437" style="stroke:#0A9EFD;stroke-width:2.0;" width="626.3333" x="10" y="289.6593"/><text fill="#000000" font-family="Arial" font-size="13" lengthAdjust="spacing" textLength="109" x="25" y="302.8532">Clean up and leave</text><polygon fill="#0A9EFD" points="369.3333,323.5568,379.3333,327.5568,369.3333,331.5568,373.3333,327.5568" style="stroke:#0A9EFD;stroke-width:1.0;"/><line style="stroke:#0A9EFD;stroke-width:2.0;" x1="41.3333" x2="375.3333" y1="327.5568" y2="327.5568"/><text fill="#0A9EFD" font-family="Arial" font-size="13" lengthAdjust="spacing" textLength="160" x="131.3333" y="322.8019">Destroy custom audio track</text><polygon fill="#0A9EFD" points="369.3333,352.5055,379.3333,356.5055,369.3333,360.5055,373.3333,356.5055" style="stroke:#0A9EFD;stroke-width:1.0;"/><line style="stroke:#0A9EFD;stroke-width:2.0;" x1="41.3333" x2="375.3333" y1="356.5055" y2="356.5055"/><text fill="#0A9EFD" font-family="Arial" font-size="13" lengthAdjust="spacing" textLength="104" x="159.3333" y="351.7507">Leave the channel</text><polygon fill="#0A9EFD" points="593,381.4543,603,385.4543,593,389.4543,597,385.4543" style="stroke:#0A9EFD;stroke-width:1.0;"/><line style="stroke:#0A9EFD;stroke-width:2.0;" x1="381.3333" x2="599" y1="385.4543" y2="385.4543"/><text fill="#0A9EFD" font-family="Arial" font-size="13" lengthAdjust="spacing" textLength="167" x="409.6667" y="380.6994">Request to leave the channel</text><polygon fill="#0A9EFD" points="369.3333,410.403,379.3333,414.403,369.3333,418.403,373.3333,414.403" style="stroke:#0A9EFD;stroke-width:1.0;"/><line style="stroke:#0A9EFD;stroke-width:2.0;" x1="41.3333" x2="375.3333" y1="414.403" y2="414.403"/><text fill="#0A9EFD" font-family="Arial" font-size="13" lengthAdjust="spacing" textLength="109" x="156.8333" y="409.6481">Destroy the engine</text><!--SRC=[VP7DJiCm48JlVeeb1sv173XLLQIeFG52KU6EDicIB7Nju1z4UNhM16YW3JVB-ytiZ7t6fj6n9S3EEdpqMpON77TQgTg-GLOEGwO6T84R7j04o9QUtsbnTLaipmFMcaAH0NeegqgHQK5KNzBxzSsyLEEUd1-b0lwHbYcBtEURXxjvZqRRs8uMmXqi94fUYEa2LeumI3MPiE70g4KCeISWqx4XfJfdum2hw8FT0SQMBJGuXEZeX0qqKouuRBOJwjgoIKoFnf1MSfSNaci16tg9v0C42y-9IVkFgIhMxFjnU78Dv0LyBggYSEFmoU6EV7AMYMYbJTUVqilZ_9JLX0Raa9v5pg_qotqjKPtT_z_rDibcYapgwYFiOF6zP_8RAUG7]--></g></svg>