<?xml version="1.0" encoding="us-ascii" standalone="no"?><svg xmlns="http://www.w3.org/2000/svg" xmlns:xlink="http://www.w3.org/1999/xlink" contentStyleType="text/css" height="489px" preserveAspectRatio="none" style="width:671px;height:489px;" version="1.1" viewBox="0 0 671 489" width="671px" zoomAndPan="magnify"><defs/><g><rect fill="none" height="487.0286" style="stroke:#0A9EFD;stroke-width:1.0;" width="669" x="0" y="0"/><rect fill="#999999" fill-opacity="0.33333" height="477.0286" style="stroke:#0A9EFD;stroke-width:0.5;" width="50.6667" x="16" y="6"/><text fill="#0A9EFD" font-family="sans-serif" font-size="13" font-weight="bold" lengthAdjust="spacing" textLength="28" x="27.3333" y="18.5684">App</text><rect fill="#999999" fill-opacity="0.33333" height="477.0286" style="stroke:#0A9EFD;stroke-width:0.5;" width="50.6667" x="357" y="6"/><text fill="#0A9EFD" font-family="sans-serif" font-size="13" font-weight="bold" lengthAdjust="spacing" textLength="26" x="369.3333" y="18.5684">SDK</text><rect fill="#999999" fill-opacity="0.33333" height="477.0286" style="stroke:#0A9EFD;stroke-width:0.5;" width="107" x="558" y="6"/><text fill="#0A9EFD" font-family="sans-serif" font-size="13" font-weight="bold" lengthAdjust="spacing" textLength="101" x="561" y="18.5684">Agora SDRTN&#174;</text><rect fill="#0A9EFD" fill-opacity="0.06667" height="161.6924" style="stroke:#0A9EFD;stroke-width:2.0;" width="632.8333" x="10" y="112.9259"/><rect fill="#0A9EFD" fill-opacity="0.06667" height="132.7437" style="stroke:#0A9EFD;stroke-width:2.0;" width="632.8333" x="10" y="288.6183"/><line style="stroke:#0A9EFD;stroke-width:0.5;stroke-dasharray:5.0,5.0;" x1="41" x2="41" y1="66.9772" y2="438.362"/><line style="stroke:#0A9EFD;stroke-width:0.5;stroke-dasharray:5.0,5.0;" x1="382" x2="382" y1="66.9772" y2="438.362"/><line style="stroke:#0A9EFD;stroke-width:0.5;stroke-dasharray:5.0,5.0;" x1="611.1667" x2="611.1667" y1="66.9772" y2="438.362"/><rect fill="none" height="40.6667" rx="2.5" ry="2.5" style="stroke:#0A9EFD;stroke-width:2.0;" width="42.6667" x="20" y="25.3105"/><path d="M29.1333,32.3105 C28.5333,32.3105 28,32.8439 28,33.4439 L28,57.8105 C28,58.4105 28.5333,58.9439 29.1333,58.9439 L50.1667,58.9439 C50.7667,58.9439 51.3,58.4105 51.3,57.8105 L51.3,33.4439 C51.3,32.8439 50.7667,32.3105 50.1667,32.3105 L29.1333,32.3105 M31.3333,35.6439 L48,35.6439 L48,52.3105 L31.3333,52.3105 L31.3333,35.6439 M39.6667,53.9772 C40.9333,53.9772 41.7667,55.3772 41.1333,56.4772 C40.5,57.5772 38.8667,57.5772 38.2,56.4772 C37.5667,55.3772 38.3667,53.9772 39.6667,53.9772 " fill="#0A9EFD" style="stroke:;stroke-width:0.0;stroke-dasharray:;"/><rect fill="none" height="40.6667" rx="2.5" ry="2.5" style="stroke:#0A9EFD;stroke-width:2.0;" width="42.6667" x="20" y="437.362"/><path d="M29.1333,444.362 C28.5333,444.362 28,444.8953 28,445.4953 L28,469.862 C28,470.462 28.5333,470.9953 29.1333,470.9953 L50.1667,470.9953 C50.7667,470.9953 51.3,470.462 51.3,469.862 L51.3,445.4953 C51.3,444.8953 50.7667,444.362 50.1667,444.362 L29.1333,444.362 M31.3333,447.6953 L48,447.6953 L48,464.362 L31.3333,464.362 L31.3333,447.6953 M39.6667,466.0286 C40.9333,466.0286 41.7667,467.4286 41.1333,468.5286 C40.5,469.6286 38.8667,469.6286 38.2,468.5286 C37.5667,467.4286 38.3667,466.0286 39.6667,466.0286 " fill="#0A9EFD" style="stroke:;stroke-width:0.0;stroke-dasharray:;"/><rect fill="none" height="40.6667" rx="2.5" ry="2.5" style="stroke:#0A9EFD;stroke-width:2.0;" width="42.6667" x="361" y="25.3105"/><path d="M369,32.3105 L369,45.6439 L382.3333,45.6439 L382.3333,32.3105 L369,32.3105 M385.6667,38.9772 L385.6667,48.9772 L375.6667,48.9772 L375.6667,52.3105 L389,52.3105 L389,38.9772 L385.6667,38.9772 M392.3333,45.6439 L392.3333,55.6439 L382.3333,55.6439 L382.3333,58.9772 L395.6667,58.9772 L395.6667,45.6439 L392.3333,45.6439 " fill="#0A9EFD" style="stroke:;stroke-width:0.0;stroke-dasharray:;"/><rect fill="none" height="40.6667" rx="2.5" ry="2.5" style="stroke:#0A9EFD;stroke-width:2.0;" width="42.6667" x="361" y="437.362"/><path d="M369,444.362 L369,457.6953 L382.3333,457.6953 L382.3333,444.362 L369,444.362 M385.6667,451.0286 L385.6667,461.0286 L375.6667,461.0286 L375.6667,464.362 L389,464.362 L389,451.0286 L385.6667,451.0286 M392.3333,457.6953 L392.3333,467.6953 L382.3333,467.6953 L382.3333,471.0286 L395.6667,471.0286 L395.6667,457.6953 L392.3333,457.6953 " fill="#0A9EFD" style="stroke:;stroke-width:0.0;stroke-dasharray:;"/><rect fill="none" height="40.6667" rx="2.5" ry="2.5" style="stroke:#0A9EFD;stroke-width:2.0;" width="42.6667" x="590.1667" y="25.3105"/><path d="M613.1667,32.3105 C609.1333,32.3105 605.6,35.1772 604.8333,38.9772 C601.1667,38.9772 598.1667,41.9772 598.1667,45.6439 C598.1667,49.3105 601.1667,52.3105 604.8333,52.3105 L619.8333,52.3105 C622.6,52.3105 624.8333,50.0772 624.8333,47.3105 C624.8333,45.1439 623.4333,43.0105 621.5,42.3105 L621.5,40.6439 C621.5,36.0439 617.7667,32.3105 613.1667,32.3105 " fill="#0A9EFD" style="stroke:;stroke-width:0.0;stroke-dasharray:;"/><rect fill="none" height="40.6667" rx="2.5" ry="2.5" style="stroke:#0A9EFD;stroke-width:2.0;" width="42.6667" x="590.1667" y="437.362"/><path d="M613.1667,444.362 C609.1333,444.362 605.6,447.2286 604.8333,451.0286 C601.1667,451.0286 598.1667,454.0286 598.1667,457.6953 C598.1667,461.362 601.1667,464.362 604.8333,464.362 L619.8333,464.362 C622.6,464.362 624.8333,462.1286 624.8333,459.362 C624.8333,457.1953 623.4333,455.062 621.5,454.362 L621.5,452.6953 C621.5,448.0953 617.7667,444.362 613.1667,444.362 " fill="#0A9EFD" style="stroke:;stroke-width:0.0;stroke-dasharray:;"/><polygon fill="#0A9EFD" points="370.3333,93.9259,380.3333,97.9259,370.3333,101.9259,374.3333,97.9259" style="stroke:#0A9EFD;stroke-width:1.0;"/><line style="stroke:#0A9EFD;stroke-width:2.0;" x1="41.3333" x2="376.3333" y1="97.9259" y2="97.9259"/><text fill="#0A9EFD" font-family="Arial" font-size="13" lengthAdjust="spacing" textLength="178" x="122.8333" y="93.1711">Create and initialize the engine</text><path d="M10,112.9259 L182,112.9259 L182,119.8747 L172,129.8747 L10,129.8747 L10,112.9259 " fill="#EEEEEE" style="stroke:#0A9EFD;stroke-width:1.5;"/><rect fill="none" height="161.6924" style="stroke:#0A9EFD;stroke-width:2.0;" width="632.8333" x="10" y="112.9259"/><text fill="#000000" font-family="Arial" font-size="13" lengthAdjust="spacing" textLength="127" x="25" y="126.1198">Custom audio capture</text><polygon fill="#0A9EFD" points="370.3333,146.8234,380.3333,150.8234,370.3333,154.8234,374.3333,150.8234" style="stroke:#0A9EFD;stroke-width:1.0;"/><line style="stroke:#0A9EFD;stroke-width:2.0;" x1="41.3333" x2="376.3333" y1="150.8234" y2="150.8234"/><text fill="#0A9EFD" font-family="Arial" font-size="13" lengthAdjust="spacing" textLength="164" x="129.8333" y="146.0685">Create a custom audio track</text><polygon fill="#0A9EFD" points="370.3333,175.7721,380.3333,179.7721,370.3333,183.7721,374.3333,179.7721" style="stroke:#0A9EFD;stroke-width:1.0;"/><line style="stroke:#0A9EFD;stroke-width:2.0;" x1="41.3333" x2="376.3333" y1="179.7721" y2="179.7721"/><text fill="#0A9EFD" font-family="Arial" font-size="13" lengthAdjust="spacing" textLength="84" x="169.8333" y="175.0173">Join a channel</text><polygon fill="#0A9EFD" points="599.5,204.7209,609.5,208.7209,599.5,212.7209,603.5,208.7209" style="stroke:#0A9EFD;stroke-width:1.0;"/><line style="stroke:#0A9EFD;stroke-width:2.0;" x1="382.3333" x2="605.5" y1="208.7209" y2="208.7209"/><text fill="#0A9EFD" font-family="Arial" font-size="13" lengthAdjust="spacing" textLength="158" x="417.9167" y="203.966">Request to join the channel</text><polygon fill="#0A9EFD" points="599.5,233.6696,609.5,237.6696,599.5,241.6696,603.5,237.6696" style="stroke:#0A9EFD;stroke-width:1.0;"/><line style="stroke:#0A9EFD;stroke-width:2.0;" x1="382.3333" x2="605.5" y1="237.6696" y2="237.6696"/><text fill="#0A9EFD" font-family="Arial" font-size="13" lengthAdjust="spacing" textLength="177" x="408.4167" y="232.9147">Pubish the custom audio track</text><polygon fill="#0A9EFD" points="370.3333,262.6183,380.3333,266.6183,370.3333,270.6183,374.3333,266.6183" style="stroke:#0A9EFD;stroke-width:1.0;"/><line style="stroke:#0A9EFD;stroke-width:2.0;" x1="41.3333" x2="376.3333" y1="266.6183" y2="266.6183"/><text fill="#0A9EFD" font-family="Arial" font-size="13" lengthAdjust="spacing" textLength="317" x="53.3333" y="261.8634">Push audio frames to SDK through custom audio track</text><path d="M10,288.6183 L166,288.6183 L166,295.5671 L156,305.5671 L10,305.5671 L10,288.6183 " fill="#EEEEEE" style="stroke:#0A9EFD;stroke-width:1.5;"/><rect fill="none" height="132.7437" style="stroke:#0A9EFD;stroke-width:2.0;" width="632.8333" x="10" y="288.6183"/><text fill="#000000" font-family="Arial" font-size="13" lengthAdjust="spacing" textLength="111" x="25" y="301.8122">Clean up and leave</text><polygon fill="#0A9EFD" points="370.3333,322.5158,380.3333,326.5158,370.3333,330.5158,374.3333,326.5158" style="stroke:#0A9EFD;stroke-width:1.0;"/><line style="stroke:#0A9EFD;stroke-width:2.0;" x1="41.3333" x2="376.3333" y1="326.5158" y2="326.5158"/><text fill="#0A9EFD" font-family="Arial" font-size="13" lengthAdjust="spacing" textLength="160" x="131.8333" y="321.7609">Destroy custom audio track</text><polygon fill="#0A9EFD" points="370.3333,351.4645,380.3333,355.4645,370.3333,359.4645,374.3333,355.4645" style="stroke:#0A9EFD;stroke-width:1.0;"/><line style="stroke:#0A9EFD;stroke-width:2.0;" x1="41.3333" x2="376.3333" y1="355.4645" y2="355.4645"/><text fill="#0A9EFD" font-family="Arial" font-size="13" lengthAdjust="spacing" textLength="106" x="158.8333" y="350.7096">Leave the channel</text><polygon fill="#0A9EFD" points="599.5,380.4132,609.5,384.4132,599.5,388.4132,603.5,384.4132" style="stroke:#0A9EFD;stroke-width:1.0;"/><line style="stroke:#0A9EFD;stroke-width:2.0;" x1="382.3333" x2="605.5" y1="384.4132" y2="384.4132"/><text fill="#0A9EFD" font-family="Arial" font-size="13" lengthAdjust="spacing" textLength="169" x="412.4167" y="379.6584">Request to leave the channel</text><polygon fill="#0A9EFD" points="370.3333,409.362,380.3333,413.362,370.3333,417.362,374.3333,413.362" style="stroke:#0A9EFD;stroke-width:1.0;"/><line style="stroke:#0A9EFD;stroke-width:2.0;" x1="41.3333" x2="376.3333" y1="413.362" y2="413.362"/><text fill="#0A9EFD" font-family="Arial" font-size="13" lengthAdjust="spacing" textLength="109" x="157.3333" y="408.6071">Destroy the engine</text><!--SRC=[VP5DJiCm48NtFiMG1RiW5gogAbBKhW2XgB17qsH8XZfsy0-Y78f3S3B616YWBJlByxqtxzadR6eT6m9ihSDxls5pnh7NIgtj2sJbC6HgG1UuvW5DW6pk-PLc5-V5_3JWMbCeCa0FPLKfCWs8wajwkxmwBjMu9UT7gO1_f6NA8lUhkvltj-CcjRQn6Js4t7b8bhmGrnai766GRZ9Xmu5HYnX2Hq2cPKDAjSx60HRH1zi3neOjr3Y4wEY03THJBZYiDnFgqh99J8V6a5PobnUIQmOhUeha0mGBZub9-_UfAgxPT-Fmu1h82_XSL4NXnk63mvvySfQ9QALDsntIo-FybDM41kIGdaNEp_JBVIbHdTt-t_KwoOuKcTJLUzZEudlFv3TIo0y0]--></g></svg>