<?xml version="1.0" encoding="us-ascii" standalone="no"?><svg xmlns="http://www.w3.org/2000/svg" xmlns:xlink="http://www.w3.org/1999/xlink" contentStyleType="text/css" height="747px" preserveAspectRatio="none" style="width:494px;height:747px;" version="1.1" viewBox="0 0 494 747" width="494px" zoomAndPan="magnify"><defs/><g><rect fill="none" height="745.3257" style="stroke:#0A9EFD;stroke-width:1.0;" width="492.5" x="0" y="0"/><rect fill="#999999" fill-opacity="0.33333" height="735.3257" style="stroke:#0A9EFD;stroke-width:0.5;" width="90" x="120.5" y="6"/><text fill="#0A9EFD" font-family="sans-serif" font-size="13" font-weight="bold" lengthAdjust="spacing" textLength="57" x="137" y="19.4951">Your app</text><rect fill="#999999" fill-opacity="0.33333" height="735.3257" style="stroke:#0A9EFD;stroke-width:0.5;" width="74" x="408.5" y="6"/><text fill="#0A9EFD" font-family="sans-serif" font-size="13" font-weight="bold" lengthAdjust="spacing" textLength="38" x="426.5" y="19.4951">Agora</text><rect fill="#0A9EFD" fill-opacity="0.06667" height="87.8462" style="stroke:#0A9EFD;stroke-width:2.0;" width="374" x="114.5" y="215.9448"/><rect fill="#0A9EFD" fill-opacity="0.06667" height="116.7949" style="stroke:#0A9EFD;stroke-width:2.0;" width="478.5" x="10" y="317.791"/><rect fill="#0A9EFD" fill-opacity="0.06667" height="73.8462" style="stroke:#0A9EFD;stroke-width:2.0;" width="269" x="114.5" y="448.5859"/><rect fill="#0A9EFD" fill-opacity="0.06667" height="45.8975" style="stroke:#0A9EFD;stroke-width:2.0;" width="374" x="114.5" y="536.4321"/><line style="stroke:#0A9EFD;stroke-width:0.5;stroke-dasharray:5.0,5.0;" x1="37" x2="37" y1="86.0986" y2="657.2271"/><line style="stroke:#0A9EFD;stroke-width:0.5;stroke-dasharray:5.0,5.0;" x1="165.5" x2="165.5" y1="86.0986" y2="657.2271"/><line style="stroke:#0A9EFD;stroke-width:0.5;stroke-dasharray:5.0,5.0;" x1="445.5" x2="445.5" y1="86.0986" y2="657.2271"/><text fill="#0A9EFD" font-family="Arial" font-size="14" lengthAdjust="spacing" textLength="29" x="20" y="83.1318">User</text><ellipse cx="37.5" cy="16" fill="none" rx="8" ry="8" style="stroke:#0A9EFD;stroke-width:3.0;"/><path d="M37.5,24 L37.5,51 M24.5,32 L50.5,32 M37.5,51 L24.5,66 M37.5,51 L50.5,66 " fill="none" style="stroke:#0A9EFD;stroke-width:3.0;"/><text fill="#0A9EFD" font-family="Arial" font-size="14" lengthAdjust="spacing" textLength="29" x="20" y="669.3589">User</text><ellipse cx="37.5" cy="683.3257" fill="none" rx="8" ry="8" style="stroke:#0A9EFD;stroke-width:3.0;"/><path d="M37.5,691.3257 L37.5,718.3257 M24.5,699.3257 L50.5,699.3257 M37.5,718.3257 L24.5,733.3257 M37.5,718.3257 L50.5,733.3257 " fill="none" style="stroke:#0A9EFD;stroke-width:3.0;"/><rect fill="none" height="30.0986" rx="2.5" ry="2.5" style="stroke:#0A9EFD;stroke-width:2.0;" width="82" x="124.5" y="55"/><text fill="#0A9EFD" font-family="Arial" font-size="14" lengthAdjust="spacing" textLength="68" x="131.5" y="75.1318">Video SDK</text><rect fill="none" height="30.0986" rx="2.5" ry="2.5" style="stroke:#0A9EFD;stroke-width:2.0;" width="82" x="124.5" y="656.2271"/><text fill="#0A9EFD" font-family="Arial" font-size="14" lengthAdjust="spacing" textLength="68" x="131.5" y="676.3589">Video SDK</text><rect fill="none" height="30.0986" rx="2.5" ry="2.5" style="stroke:#0A9EFD;stroke-width:2.0;" width="66" x="412.5" y="55"/><text fill="#0A9EFD" font-family="Arial" font-size="14" lengthAdjust="spacing" textLength="52" x="419.5" y="75.1318">SD-RTN</text><rect fill="none" height="30.0986" rx="2.5" ry="2.5" style="stroke:#0A9EFD;stroke-width:2.0;" width="66" x="412.5" y="656.2271"/><text fill="#0A9EFD" font-family="Arial" font-size="14" lengthAdjust="spacing" textLength="52" x="419.5" y="676.3589">SD-RTN</text><polygon fill="#0A9EFD" points="153.5,113.0474,163.5,117.0474,153.5,121.0474,157.5,117.0474" style="stroke:#0A9EFD;stroke-width:1.0;"/><line style="stroke:#0A9EFD;stroke-width:2.0;" x1="37.5" x2="159.5" y1="117.0474" y2="117.0474"/><text fill="#0A9EFD" font-family="Arial" font-size="13" lengthAdjust="spacing" textLength="58" x="72.5" y="112.2925">Open App</text><line style="stroke:#0A9EFD;stroke-width:2.0;" x1="165.5" x2="207.5" y1="145.9961" y2="145.9961"/><line style="stroke:#0A9EFD;stroke-width:2.0;" x1="207.5" x2="207.5" y1="145.9961" y2="158.9961"/><line style="stroke:#0A9EFD;stroke-width:2.0;" x1="166.5" x2="207.5" y1="158.9961" y2="158.9961"/><polygon fill="#0A9EFD" points="176.5,154.9961,166.5,158.9961,176.5,162.9961,172.5,158.9961" style="stroke:#0A9EFD;stroke-width:1.0;"/><text fill="#0A9EFD" font-family="Arial" font-size="13" lengthAdjust="spacing" textLength="255" x="172.5" y="141.2412">Create an instance of the Video SDK engine</text><line style="stroke:#0A9EFD;stroke-width:2.0;" x1="165.5" x2="207.5" y1="187.9448" y2="187.9448"/><line style="stroke:#0A9EFD;stroke-width:2.0;" x1="207.5" x2="207.5" y1="187.9448" y2="200.9448"/><line style="stroke:#0A9EFD;stroke-width:2.0;" x1="166.5" x2="207.5" y1="200.9448" y2="200.9448"/><polygon fill="#0A9EFD" points="176.5,196.9448,166.5,200.9448,176.5,204.9448,172.5,200.9448" style="stroke:#0A9EFD;stroke-width:1.0;"/><text fill="#0A9EFD" font-family="Arial" font-size="13" lengthAdjust="spacing" textLength="211" x="172.5" y="183.1899">Enable audio and video in the engine</text><path d="M114.5,215.9448 L286.5,215.9448 L286.5,222.8936 L276.5,232.8936 L114.5,232.8936 L114.5,215.9448 " fill="#EEEEEE" style="stroke:#0A9EFD;stroke-width:1.5;"/><rect fill="none" height="87.8462" style="stroke:#0A9EFD;stroke-width:2.0;" width="374" x="114.5" y="215.9448"/><text fill="#000000" font-family="Arial" font-size="13" lengthAdjust="spacing" textLength="127" x="129.5" y="229.1387">Setup external source</text><line style="stroke:#0A9EFD;stroke-width:2.0;" x1="165.5" x2="207.5" y1="253.8423" y2="253.8423"/><line style="stroke:#0A9EFD;stroke-width:2.0;" x1="207.5" x2="207.5" y1="253.8423" y2="266.8423"/><line style="stroke:#0A9EFD;stroke-width:2.0;" x1="166.5" x2="207.5" y1="266.8423" y2="266.8423"/><polygon fill="#0A9EFD" points="176.5,262.8423,166.5,266.8423,176.5,270.8423,172.5,266.8423" style="stroke:#0A9EFD;stroke-width:1.0;"/><text fill="#0A9EFD" font-family="Arial" font-size="13" lengthAdjust="spacing" textLength="247" x="172.5" y="249.0874">Check the external source for compatibility</text><polygon fill="#0A9EFD" points="433.5,291.791,443.5,295.791,433.5,299.791,437.5,295.791" style="stroke:#0A9EFD;stroke-width:1.0;"/><line style="stroke:#0A9EFD;stroke-width:2.0;" x1="165.5" x2="439.5" y1="295.791" y2="295.791"/><text fill="#0A9EFD" font-family="Arial" font-size="13" lengthAdjust="spacing" textLength="196" x="207.5" y="291.0361">Set external video or audio source</text><path d="M10,317.791 L78,317.791 L78,324.7397 L68,334.7397 L10,334.7397 L10,317.791 " fill="#EEEEEE" style="stroke:#0A9EFD;stroke-width:1.5;"/><rect fill="none" height="116.7949" style="stroke:#0A9EFD;stroke-width:2.0;" width="478.5" x="10" y="317.791"/><text fill="#000000" font-family="Arial" font-size="13" lengthAdjust="spacing" textLength="23" x="25" y="330.9849">Join</text><polygon fill="#0A9EFD" points="153.5,351.6885,163.5,355.6885,153.5,359.6885,157.5,355.6885" style="stroke:#0A9EFD;stroke-width:1.0;"/><line style="stroke:#0A9EFD;stroke-width:2.0;" x1="37.5" x2="159.5" y1="355.6885" y2="355.6885"/><text fill="#0A9EFD" font-family="Arial" font-size="13" lengthAdjust="spacing" textLength="83" x="60" y="350.9336">Join a channel</text><line style="stroke:#0A9EFD;stroke-width:2.0;" x1="165.5" x2="207.5" y1="384.6372" y2="384.6372"/><line style="stroke:#0A9EFD;stroke-width:2.0;" x1="207.5" x2="207.5" y1="384.6372" y2="397.6372"/><line style="stroke:#0A9EFD;stroke-width:2.0;" x1="166.5" x2="207.5" y1="397.6372" y2="397.6372"/><polygon fill="#0A9EFD" points="176.5,393.6372,166.5,397.6372,176.5,401.6372,172.5,397.6372" style="stroke:#0A9EFD;stroke-width:1.0;"/><text fill="#0A9EFD" font-family="Arial" font-size="13" lengthAdjust="spacing" textLength="266" x="172.5" y="379.8823">Retrieve authentication token to join a channel</text><polygon fill="#0A9EFD" points="433.5,422.5859,443.5,426.5859,433.5,430.5859,437.5,426.5859" style="stroke:#0A9EFD;stroke-width:1.0;"/><line style="stroke:#0A9EFD;stroke-width:2.0;" x1="165.5" x2="439.5" y1="426.5859" y2="426.5859"/><text fill="#0A9EFD" font-family="Arial" font-size="13" lengthAdjust="spacing" textLength="94" x="258.5" y="421.8311">Join the channel</text><path d="M114.5,448.5859 L236.5,448.5859 L236.5,455.5347 L226.5,465.5347 L114.5,465.5347 L114.5,448.5859 " fill="#EEEEEE" style="stroke:#0A9EFD;stroke-width:1.5;"/><rect fill="none" height="73.8462" style="stroke:#0A9EFD;stroke-width:2.0;" width="269" x="114.5" y="448.5859"/><text fill="#000000" font-family="Arial" font-size="13" lengthAdjust="spacing" textLength="77" x="129.5" y="461.7798">Process data</text><line style="stroke:#0A9EFD;stroke-width:2.0;" x1="165.5" x2="207.5" y1="501.4321" y2="501.4321"/><line style="stroke:#0A9EFD;stroke-width:2.0;" x1="207.5" x2="207.5" y1="501.4321" y2="514.4321"/><line style="stroke:#0A9EFD;stroke-width:2.0;" x1="166.5" x2="207.5" y1="514.4321" y2="514.4321"/><polygon fill="#0A9EFD" points="176.5,510.4321,166.5,514.4321,176.5,518.4321,172.5,514.4321" style="stroke:#0A9EFD;stroke-width:1.0;"/><text fill="#0A9EFD" font-family="Arial" font-size="13" lengthAdjust="spacing" textLength="195" x="172.5" y="481.7285">Manage capturing and processing</text><text fill="#0A9EFD" font-family="Arial" font-size="13" lengthAdjust="spacing" textLength="135" x="204.5" y="496.6772">using external methods</text><path d="M114.5,536.4321 L230.5,536.4321 L230.5,543.3809 L220.5,553.3809 L114.5,553.3809 L114.5,536.4321 " fill="#EEEEEE" style="stroke:#0A9EFD;stroke-width:1.5;"/><rect fill="none" height="45.8975" style="stroke:#0A9EFD;stroke-width:2.0;" width="374" x="114.5" y="536.4321"/><text fill="#000000" font-family="Arial" font-size="13" lengthAdjust="spacing" textLength="71" x="129.5" y="549.626">Stream data</text><polygon fill="#0A9EFD" points="433.5,570.3296,443.5,574.3296,433.5,578.3296,437.5,574.3296" style="stroke:#0A9EFD;stroke-width:1.0;"/><line style="stroke:#0A9EFD;stroke-width:2.0;" x1="165.5" x2="439.5" y1="574.3296" y2="574.3296"/><text fill="#0A9EFD" font-family="Arial" font-size="13" lengthAdjust="spacing" textLength="199" x="206" y="569.5747">Push external video or audio frame</text><polygon fill="#0A9EFD" points="153.5,606.2783,163.5,610.2783,153.5,614.2783,157.5,610.2783" style="stroke:#0A9EFD;stroke-width:1.0;"/><line style="stroke:#0A9EFD;stroke-width:2.0;" x1="37.5" x2="159.5" y1="610.2783" y2="610.2783"/><text fill="#0A9EFD" font-family="Arial" font-size="13" lengthAdjust="spacing" textLength="104" x="49.5" y="605.5234">Leave the channel</text><polygon fill="#0A9EFD" points="433.5,635.2271,443.5,639.2271,433.5,643.2271,437.5,639.2271" style="stroke:#0A9EFD;stroke-width:1.0;"/><line style="stroke:#0A9EFD;stroke-width:2.0;" x1="165.5" x2="439.5" y1="639.2271" y2="639.2271"/><text fill="#0A9EFD" font-family="Arial" font-size="13" lengthAdjust="spacing" textLength="104" x="253.5" y="634.4722">Leave the channel</text><!--SRC=[TP7BRi8m44Nt-OffzlG3M5H2q0LzHgHKgbIf6fmXSKd6bX-8_dqdZmAXOkF8zfphUszkDAiw5WHO6eTVVgVvLiUcJX9KmJX8rvvS2kXXdQ-IP6CEa7wOw02jJHEBBcYbBNA0z5qNP21VF7RZionBY0iGOi1cxGiNJBwOhDvU1c1v0kGncDor8bDujSGmipQHtV5mxWY3k6RGx0Eo8Z1R21N1qGOGbvffXDqpRch1Og6Dm0NiksdD7Je0IUbCj91Ja9KEWHnZ3LvIgx7Ql2Arwydn56obEcKQYq5lTAt3pubRJblb4z4xaFdUrF2CDF7duy5e7XNI7W22gf2Pwf6Z5GMdQTyc55iiHOi38-dCZjeLlg-moq6s3JDSmhc9p1b5taE10KSlFYDZAGpQ49tciclLzjFjzfDZzptcRIXKfl3dudcGlzbSQ8kZBFhgQb5RXytGqtavJuGI_op6IF7_xIy0]--></g></svg>