<svg xmlns="http://www.w3.org/2000/svg" xmlns:xlink="http://www.w3.org/1999/xlink" contentStyleType="text/css" data-diagram-type="SEQUENCE" height="479px" preserveAspectRatio="none" style="width:515px;height:479px;" version="1.1" viewBox="0 0 515 479" width="515px" zoomAndPan="magnify"><?plantuml 1.2026.4?><defs/><g><rect fill="none" height="477.2962" style="stroke:#0A9EFD;stroke-width:1;" width="513.7041" x="0" y="0"/><rect fill="#999999" fill-opacity="0.33333" height="466.2962" style="stroke:#0A9EFD;stroke-width:0.5;" width="50.6667" x="16" y="6"/><text fill="#0A9EFD" font-family="sans-serif" font-size="13" font-weight="700" lengthAdjust="spacing" textLength="25.27" x="28.6983" y="19.4951">App</text><rect fill="#999999" fill-opacity="0.33333" height="466.2962" style="stroke:#0A9EFD;stroke-width:0.5;" width="50.6667" x="223.5171" y="6"/><text fill="#0A9EFD" font-family="sans-serif" font-size="13" font-weight="700" lengthAdjust="spacing" textLength="27.4473" x="235.1268" y="19.4951">SDK</text><rect fill="#999999" fill-opacity="0.33333" height="466.2962" style="stroke:#0A9EFD;stroke-width:0.5;" width="99.3154" x="409.3887" y="6"/><text fill="#0A9EFD" font-family="sans-serif" font-size="13" font-weight="700" lengthAdjust="spacing" textLength="85.9473" x="412.3887" y="21.7217">Agora SDRTN</text><text fill="#0A9EFD" font-family="sans-serif" font-size="10" font-weight="700" lengthAdjust="spacing" textLength="7.3682" x="498.3359" y="16.3809">&#174;</text><rect fill="#0A9EFD" fill-opacity="0.06667" height="74.8462" style="stroke:#0A9EFD;stroke-width:2;" width="480.3797" x="10" y="145.1423"/><rect fill="#0A9EFD" fill-opacity="0.06667" height="60.8462" style="stroke:#0A9EFD;stroke-width:2;" width="270.1838" x="10" y="233.9884"/><g class="participant-lifeline" data-entity-uid="part1" data-qualified-name="APP" data-source-line="4" id="part1-lifeline"><g><title>.size.40...tablet.</title><rect fill="#000000" fill-opacity="0.00000" height="357.3848" width="8" x="37.3333" y="70.2448"/><line style="stroke:#0A9EFD;stroke-width:0.5;stroke-dasharray:5,5;" x1="41" x2="41" y1="70.2448" y2="427.6296"/></g></g><g class="participant-lifeline" data-entity-uid="part2" data-qualified-name="SDK" data-source-line="8" id="part2-lifeline"><g><title>.size.40...layers.</title><rect fill="#000000" fill-opacity="0.00000" height="357.3848" width="8" x="244.8504" y="70.2448"/><line style="stroke:#0A9EFD;stroke-width:0.5;stroke-dasharray:5,5;" x1="248.5171" x2="248.5171" y1="70.2448" y2="427.6296"/></g></g><g class="participant-lifeline" data-entity-uid="part3" data-qualified-name="RTN" data-source-line="12" id="part3-lifeline"><g><title>.size.40...cloud.</title><rect fill="#000000" fill-opacity="0.00000" height="357.3848" width="8" x="455.0464" y="70.2448"/><line style="stroke:#0A9EFD;stroke-width:0.5;stroke-dasharray:5,5;" x1="458.7131" x2="458.7131" y1="70.2448" y2="427.6296"/></g></g><g class="participant participant-head" data-entity-uid="part1" data-qualified-name="APP" data-source-line="4" id="part1-head"><rect fill="none" height="40.6667" rx="2.5" ry="2.5" style="stroke:#0A9EFD;stroke-width:2;" width="42.6667" x="20" y="28.5781"/><path d="M29.1333,35.5781 C28.5333,35.5781 28,36.1115 28,36.7115 L28,61.0781 C28,61.6781 28.5333,62.2115 29.1333,62.2115 L50.1667,62.2115 C50.7667,62.2115 51.3,61.6781 51.3,61.0781 L51.3,36.7115 C51.3,36.1115 50.7667,35.5781 50.1667,35.5781 L29.1333,35.5781 M31.3333,38.9115 L48,38.9115 L48,55.5781 L31.3333,55.5781 L31.3333,38.9115 M39.6667,57.2448 C40.9333,57.2448 41.7667,58.6448 41.1333,59.7448 C40.5,60.8448 38.8667,60.8448 38.2,59.7448 C37.5667,58.6448 38.3667,57.2448 39.6667,57.2448" fill="#0A9EFD"/></g><g class="participant participant-tail" data-entity-uid="part1" data-qualified-name="APP" data-source-line="4" id="part1-tail"><rect fill="none" height="40.6667" rx="2.5" ry="2.5" style="stroke:#0A9EFD;stroke-width:2;" width="42.6667" x="20" y="426.6296"/><path d="M29.1333,433.6296 C28.5333,433.6296 28,434.1629 28,434.7629 L28,459.1296 C28,459.7296 28.5333,460.2629 29.1333,460.2629 L50.1667,460.2629 C50.7667,460.2629 51.3,459.7296 51.3,459.1296 L51.3,434.7629 C51.3,434.1629 50.7667,433.6296 50.1667,433.6296 L29.1333,433.6296 M31.3333,436.9629 L48,436.9629 L48,453.6296 L31.3333,453.6296 L31.3333,436.9629 M39.6667,455.2962 C40.9333,455.2962 41.7667,456.6962 41.1333,457.7962 C40.5,458.8962 38.8667,458.8962 38.2,457.7962 C37.5667,456.6962 38.3667,455.2962 39.6667,455.2962" fill="#0A9EFD"/></g><g class="participant participant-head" data-entity-uid="part2" data-qualified-name="SDK" data-source-line="8" id="part2-head"><rect fill="none" height="40.6667" rx="2.5" ry="2.5" style="stroke:#0A9EFD;stroke-width:2;" width="42.6667" x="227.5171" y="28.5781"/><path d="M235.5171,35.5781 L235.5171,48.9115 L248.8504,48.9115 L248.8504,35.5781 L235.5171,35.5781 M252.1838,42.2448 L252.1838,52.2448 L242.1838,52.2448 L242.1838,55.5781 L255.5171,55.5781 L255.5171,42.2448 L252.1838,42.2448 M258.8504,48.9115 L258.8504,58.9115 L248.8504,58.9115 L248.8504,62.2448 L262.1838,62.2448 L262.1838,48.9115 L258.8504,48.9115" fill="#0A9EFD"/></g><g class="participant participant-tail" data-entity-uid="part2" data-qualified-name="SDK" data-source-line="8" id="part2-tail"><rect fill="none" height="40.6667" rx="2.5" ry="2.5" style="stroke:#0A9EFD;stroke-width:2;" width="42.6667" x="227.5171" y="426.6296"/><path d="M235.5171,433.6296 L235.5171,446.9629 L248.8504,446.9629 L248.8504,433.6296 L235.5171,433.6296 M252.1838,440.2962 L252.1838,450.2962 L242.1838,450.2962 L242.1838,453.6296 L255.5171,453.6296 L255.5171,440.2962 L252.1838,440.2962 M258.8504,446.9629 L258.8504,456.9629 L248.8504,456.9629 L248.8504,460.2962 L262.1838,460.2962 L262.1838,446.9629 L258.8504,446.9629" fill="#0A9EFD"/></g><g class="participant participant-head" data-entity-uid="part3" data-qualified-name="RTN" data-source-line="12" id="part3-head"><rect fill="none" height="40.6667" rx="2.5" ry="2.5" style="stroke:#0A9EFD;stroke-width:2;" width="42.6667" x="437.7131" y="28.5781"/><path d="M460.7131,38.9115 C456.6797,38.9115 453.1464,41.7781 452.3797,45.5781 C448.7131,45.5781 445.7131,48.5781 445.7131,52.2448 C445.7131,55.9115 448.7131,58.9115 452.3797,58.9115 L467.3797,58.9115 C470.1464,58.9115 472.3797,56.6781 472.3797,53.9115 C472.3797,51.7448 470.9797,49.6115 469.0464,48.9115 L469.0464,47.2448 C469.0464,42.6448 465.3131,38.9115 460.7131,38.9115" fill="#0A9EFD"/></g><g class="participant participant-tail" data-entity-uid="part3" data-qualified-name="RTN" data-source-line="12" id="part3-tail"><rect fill="none" height="40.6667" rx="2.5" ry="2.5" style="stroke:#0A9EFD;stroke-width:2;" width="42.6667" x="437.7131" y="426.6296"/><path d="M460.7131,436.9629 C456.6797,436.9629 453.1464,439.8296 452.3797,443.6296 C448.7131,443.6296 445.7131,446.6296 445.7131,450.2962 C445.7131,453.9629 448.7131,456.9629 452.3797,456.9629 L467.3797,456.9629 C470.1464,456.9629 472.3797,454.7296 472.3797,451.9629 C472.3797,449.7962 470.9797,447.6629 469.0464,446.9629 L469.0464,445.2962 C469.0464,440.6962 465.3131,436.9629 460.7131,436.9629" fill="#0A9EFD"/></g><g class="message" data-entity-1="part1" data-entity-2="part2" data-source-line="15" id="msg1"><polygon fill="#0A9EFD" points="236.8504,97.1935,246.8504,101.1935,236.8504,105.1935,240.8504,101.1935" style="stroke:#0A9EFD;stroke-width:1;stroke-linejoin:miter;stroke-miterlimit:10;"/><line style="stroke:#0A9EFD;stroke-width:2;" x1="41.3333" x2="242.8504" y1="101.1935" y2="101.1935"/><text fill="#0A9EFD" font-family="Arial" font-size="13" lengthAdjust="spacing" textLength="178.5088" x="55.8375" y="96.4386">Create and initialize the engine</text></g><g class="message" data-entity-1="part1" data-entity-2="part2" data-source-line="16" id="msg2"><polygon fill="#0A9EFD" points="236.8504,126.1423,246.8504,130.1423,236.8504,134.1423,240.8504,130.1423" style="stroke:#0A9EFD;stroke-width:1;stroke-linejoin:miter;stroke-miterlimit:10;"/><line style="stroke:#0A9EFD;stroke-width:2;" x1="41.3333" x2="242.8504" y1="130.1423" y2="130.1423"/><text fill="#0A9EFD" font-family="Arial" font-size="13" lengthAdjust="spacing" textLength="166.1626" x="62.0106" y="125.3874">Create custom video track(s)</text></g><path d="M10,145.1423 L134.498,145.1423 L134.498,152.091 L124.498,162.091 L10,162.091 L10,145.1423" fill="#EEEEEE" style="stroke:#0A9EFD;stroke-width:1.5;"/><rect fill="none" height="74.8462" style="stroke:#0A9EFD;stroke-width:2;" width="480.3797" x="10" y="145.1423"/><text fill="#000000" font-family="Arial" font-size="13" lengthAdjust="spacing" textLength="79.498" x="25" y="158.3361">Join channels</text><g class="message" data-entity-1="part1" data-entity-2="part2" data-source-line="19" id="msg3"><polygon fill="#0A9EFD" points="236.8504,179.0397,246.8504,183.0397,236.8504,187.0397,240.8504,183.0397" style="stroke:#0A9EFD;stroke-width:1;stroke-linejoin:miter;stroke-miterlimit:10;"/><line style="stroke:#0A9EFD;stroke-width:2;" x1="41.3333" x2="242.8504" y1="183.0397" y2="183.0397"/><text fill="#0A9EFD" font-family="Arial" font-size="13" lengthAdjust="spacing" textLength="88.1563" x="101.0138" y="178.2848">Join channel(s)</text></g><g class="message" data-entity-1="part2" data-entity-2="part3" data-source-line="20" id="msg4"><polygon fill="#0A9EFD" points="447.0464,207.9884,457.0464,211.9884,447.0464,215.9884,451.0464,211.9884" style="stroke:#0A9EFD;stroke-width:1;stroke-linejoin:miter;stroke-miterlimit:10;"/><line style="stroke:#0A9EFD;stroke-width:2;" x1="248.8504" x2="453.0464" y1="211.9884" y2="211.9884"/><text fill="#0A9EFD" font-family="Arial" font-size="13" lengthAdjust="spacing" textLength="151.0298" x="278.4335" y="207.2336">Request to join channel(s)</text></g><path d="M10,233.9884 L162.6626,233.9884 L162.6626,240.9372 L152.6626,250.9372 L10,250.9372 L10,233.9884" fill="#EEEEEE" style="stroke:#0A9EFD;stroke-width:1.5;"/><rect fill="none" height="60.8462" style="stroke:#0A9EFD;stroke-width:2;" width="270.1838" x="10" y="233.9884"/><text fill="#000000" font-family="Arial" font-size="13" lengthAdjust="spacing" textLength="107.6626" x="25" y="247.1823">Push video frames</text><g class="message" data-entity-1="part1" data-entity-2="part2" data-source-line="24" id="msg5"><polygon fill="#0A9EFD" points="236.8504,282.8346,246.8504,286.8346,236.8504,290.8346,240.8504,286.8346" style="stroke:#0A9EFD;stroke-width:1;stroke-linejoin:miter;stroke-miterlimit:10;"/><line style="stroke:#0A9EFD;stroke-width:2;" x1="41.3333" x2="242.8504" y1="286.8346" y2="286.8346"/><text fill="#0A9EFD" font-family="Arial" font-size="13" lengthAdjust="spacing" textLength="152.458" x="68.8629" y="267.131">Push video frames to SDK</text><text fill="#0A9EFD" font-family="Arial" font-size="13" lengthAdjust="spacing" textLength="179.9053" x="56.9451" y="282.0798">using the custom video track(s)</text></g><g class="message" data-entity-1="part1" data-entity-2="part2" data-source-line="27" id="msg6"><polygon fill="#0A9EFD" points="236.8504,318.7834,246.8504,322.7834,236.8504,326.7834,240.8504,322.7834" style="stroke:#0A9EFD;stroke-width:1;stroke-linejoin:miter;stroke-miterlimit:10;"/><line style="stroke:#0A9EFD;stroke-width:2;" x1="41.3333" x2="242.8504" y1="322.7834" y2="322.7834"/><text fill="#0A9EFD" font-family="Arial" font-size="13" lengthAdjust="spacing" textLength="171.9326" x="59.1256" y="318.0285">Destroy custom video track(s)</text></g><g class="message" data-entity-1="part1" data-entity-2="part2" data-source-line="29" id="msg7"><polygon fill="#0A9EFD" points="236.8504,347.7321,246.8504,351.7321,236.8504,355.7321,240.8504,351.7321" style="stroke:#0A9EFD;stroke-width:1;stroke-linejoin:miter;stroke-miterlimit:10;"/><line style="stroke:#0A9EFD;stroke-width:2;" x1="41.3333" x2="242.8504" y1="351.7321" y2="351.7321"/><text fill="#0A9EFD" font-family="Arial" font-size="13" lengthAdjust="spacing" textLength="99.728" x="95.2279" y="346.9772">Leave channel(s)</text></g><g class="message" data-entity-1="part2" data-entity-2="part3" data-source-line="30" id="msg8"><polygon fill="#0A9EFD" points="447.0464,376.6808,457.0464,380.6808,447.0464,384.6808,451.0464,380.6808" style="stroke:#0A9EFD;stroke-width:1;stroke-linejoin:miter;stroke-miterlimit:10;"/><line style="stroke:#0A9EFD;stroke-width:2;" x1="248.8504" x2="453.0464" y1="380.6808" y2="380.6808"/><text fill="#0A9EFD" font-family="Arial" font-size="13" lengthAdjust="spacing" textLength="161.8716" x="273.0126" y="375.9259">Request to leave channel(s)</text></g><g class="message" data-entity-1="part1" data-entity-2="part2" data-source-line="31" id="msg9"><polygon fill="#0A9EFD" points="236.8504,405.6296,246.8504,409.6296,236.8504,413.6296,240.8504,409.6296" style="stroke:#0A9EFD;stroke-width:1;stroke-linejoin:miter;stroke-miterlimit:10;"/><line style="stroke:#0A9EFD;stroke-width:2;" x1="41.3333" x2="242.8504" y1="409.6296" y2="409.6296"/><text fill="#0A9EFD" font-family="Arial" font-size="13" lengthAdjust="spacing" textLength="109.1226" x="90.5306" y="404.8747">Destroy the engine</text></g><?plantuml-src XP1DJiD038NtEON90i6Ym89L54MAw0eGYWfB9EGc9Z6Tp8JvgIY7uX2S3ASjQfHGiHh9Vj_pUtF2kbIX8i3QM7nnAzON75eLHKlp0N7UTN7KeVLSSeVQGvmw_gJa-YfBJpqk5Vai1dIG5qL4kWAXzkZZ_Euugd13rkrG4OxGlCyYyyNJG-f2btr_fPVzUzolL2PKEpk13dOIQvR9WGHkBA6Nch9XpPvH2Go-8I1TiwQfj0pEcnRMN941Rx5SdRdpAAgj2HtS6jPGDgWrAJTWX_DUBiDP9f4IMD1x8EV16tWRYIJkhsyHNBC_-MgnfQ7tPDTxoUPPGt2iwssRlrDlBnoSvXB4cisnYWVXFU6Q_ksZnghffS57_m00?></g></svg>