<?xml version="1.0" encoding="us-ascii" standalone="no"?><svg xmlns="http://www.w3.org/2000/svg" xmlns:xlink="http://www.w3.org/1999/xlink" contentStyleType="text/css" height="422px" preserveAspectRatio="none" style="width:560px;height:422px;" version="1.1" viewBox="0 0 560 422" width="560px" zoomAndPan="magnify"><defs/><g><rect fill="none" height="420.1722" style="stroke:#0A9EFD;stroke-width:1.0;" width="558" x="0" y="0"/><rect fill="#999999" fill-opacity="0.33333" height="410.1722" style="stroke:#0A9EFD;stroke-width:0.5;" width="50.6667" x="16" y="6"/><text fill="#0A9EFD" font-family="sans-serif" font-size="13" font-weight="bold" lengthAdjust="spacing" textLength="25" x="28.8333" y="19.4951">App</text><rect fill="#999999" fill-opacity="0.33333" height="410.1722" style="stroke:#0A9EFD;stroke-width:0.5;" width="50.6667" x="267" y="6"/><text fill="#0A9EFD" font-family="sans-serif" font-size="13" font-weight="bold" lengthAdjust="spacing" textLength="27" x="278.8333" y="19.4951">SDK</text><rect fill="#999999" fill-opacity="0.33333" height="410.1722" style="stroke:#0A9EFD;stroke-width:0.5;" width="96" x="458" y="6"/><text fill="#0A9EFD" font-family="sans-serif" font-size="13" font-weight="bold" lengthAdjust="spacing" textLength="90" x="461" y="19.4951">Agora SD-RTN</text><rect fill="#0A9EFD" fill-opacity="0.06667" height="153.6924" style="stroke:#0A9EFD;stroke-width:2.0;" width="527.3333" x="10" y="113.967"/><line style="stroke:#0A9EFD;stroke-width:0.5;stroke-dasharray:5.0,5.0;" x1="41" x2="41" y1="68.0182" y2="371.5055"/><line style="stroke:#0A9EFD;stroke-width:0.5;stroke-dasharray:5.0,5.0;" x1="292" x2="292" y1="68.0182" y2="371.5055"/><line style="stroke:#0A9EFD;stroke-width:0.5;stroke-dasharray:5.0,5.0;" x1="505.6667" x2="505.6667" y1="68.0182" y2="371.5055"/><rect fill="none" height="40.6667" rx="2.5" ry="2.5" style="stroke:#0A9EFD;stroke-width:2.0;" width="42.6667" x="20" y="26.3516"/><path d="M29.1333,33.3516 C28.5333,33.3516 28,33.8849 28,34.4849 L28,58.8516 C28,59.4516 28.5333,59.9849 29.1333,59.9849 L50.1667,59.9849 C50.7667,59.9849 51.3,59.4516 51.3,58.8516 L51.3,34.4849 C51.3,33.8849 50.7667,33.3516 50.1667,33.3516 L29.1333,33.3516 M31.3333,36.6849 L48,36.6849 L48,53.3516 L31.3333,53.3516 L31.3333,36.6849 M39.6667,55.0182 C40.9333,55.0182 41.7667,56.4182 41.1333,57.5182 C40.5,58.6182 38.8667,58.6182 38.2,57.5182 C37.5667,56.4182 38.3667,55.0182 39.6667,55.0182 " fill="#0A9EFD" style="stroke:;stroke-width:0.0;stroke-dasharray:;"/><rect fill="none" height="40.6667" rx="2.5" ry="2.5" style="stroke:#0A9EFD;stroke-width:2.0;" width="42.6667" x="20" y="370.5055"/><path d="M29.1333,377.5055 C28.5333,377.5055 28,378.0389 28,378.6389 L28,403.0055 C28,403.6055 28.5333,404.1389 29.1333,404.1389 L50.1667,404.1389 C50.7667,404.1389 51.3,403.6055 51.3,403.0055 L51.3,378.6389 C51.3,378.0389 50.7667,377.5055 50.1667,377.5055 L29.1333,377.5055 M31.3333,380.8389 L48,380.8389 L48,397.5055 L31.3333,397.5055 L31.3333,380.8389 M39.6667,399.1722 C40.9333,399.1722 41.7667,400.5722 41.1333,401.6722 C40.5,402.7722 38.8667,402.7722 38.2,401.6722 C37.5667,400.5722 38.3667,399.1722 39.6667,399.1722 " fill="#0A9EFD" style="stroke:;stroke-width:0.0;stroke-dasharray:;"/><rect fill="none" height="40.6667" rx="2.5" ry="2.5" style="stroke:#0A9EFD;stroke-width:2.0;" width="42.6667" x="271" y="26.3516"/><path d="M279,33.3516 L279,46.6849 L292.3333,46.6849 L292.3333,33.3516 L279,33.3516 M295.6667,40.0182 L295.6667,50.0182 L285.6667,50.0182 L285.6667,53.3516 L299,53.3516 L299,40.0182 L295.6667,40.0182 M302.3333,46.6849 L302.3333,56.6849 L292.3333,56.6849 L292.3333,60.0182 L305.6667,60.0182 L305.6667,46.6849 L302.3333,46.6849 " fill="#0A9EFD" style="stroke:;stroke-width:0.0;stroke-dasharray:;"/><rect fill="none" height="40.6667" rx="2.5" ry="2.5" style="stroke:#0A9EFD;stroke-width:2.0;" width="42.6667" x="271" y="370.5055"/><path d="M279,377.5055 L279,390.8389 L292.3333,390.8389 L292.3333,377.5055 L279,377.5055 M295.6667,384.1722 L295.6667,394.1722 L285.6667,394.1722 L285.6667,397.5055 L299,397.5055 L299,384.1722 L295.6667,384.1722 M302.3333,390.8389 L302.3333,400.8389 L292.3333,400.8389 L292.3333,404.1722 L305.6667,404.1722 L305.6667,390.8389 L302.3333,390.8389 " fill="#0A9EFD" style="stroke:;stroke-width:0.0;stroke-dasharray:;"/><rect fill="none" height="40.6667" rx="2.5" ry="2.5" style="stroke:#0A9EFD;stroke-width:2.0;" width="42.6667" x="484.6667" y="26.3516"/><path d="M507.6667,33.3516 C503.6333,33.3516 500.1,36.2182 499.3333,40.0182 C495.6667,40.0182 492.6667,43.0182 492.6667,46.6849 C492.6667,50.3516 495.6667,53.3516 499.3333,53.3516 L514.3333,53.3516 C517.1,53.3516 519.3333,51.1182 519.3333,48.3516 C519.3333,46.1849 517.9333,44.0516 516,43.3516 L516,41.6849 C516,37.0849 512.2667,33.3516 507.6667,33.3516 " fill="#0A9EFD" style="stroke:;stroke-width:0.0;stroke-dasharray:;"/><rect fill="none" height="40.6667" rx="2.5" ry="2.5" style="stroke:#0A9EFD;stroke-width:2.0;" width="42.6667" x="484.6667" y="370.5055"/><path d="M507.6667,377.5055 C503.6333,377.5055 500.1,380.3722 499.3333,384.1722 C495.6667,384.1722 492.6667,387.1722 492.6667,390.8389 C492.6667,394.5055 495.6667,397.5055 499.3333,397.5055 L514.3333,397.5055 C517.1,397.5055 519.3333,395.2722 519.3333,392.5055 C519.3333,390.3389 517.9333,388.2055 516,387.5055 L516,385.8389 C516,381.2389 512.2667,377.5055 507.6667,377.5055 " fill="#0A9EFD" style="stroke:;stroke-width:0.0;stroke-dasharray:;"/><polygon fill="#0A9EFD" points="280.3333,94.967,290.3333,98.967,280.3333,102.967,284.3333,98.967" style="stroke:#0A9EFD;stroke-width:1.0;"/><line style="stroke:#0A9EFD;stroke-width:2.0;" x1="41.3333" x2="286.3333" y1="98.967" y2="98.967"/><text fill="#0A9EFD" font-family="Arial" font-size="13" lengthAdjust="spacing" textLength="178" x="77.8333" y="94.2121">Create and initialize the engine</text><path d="M10,113.967 L182,113.967 L182,120.9157 L172,130.9157 L10,130.9157 L10,113.967 " fill="#EEEEEE" style="stroke:#0A9EFD;stroke-width:1.5;"/><rect fill="none" height="153.6924" style="stroke:#0A9EFD;stroke-width:2.0;" width="527.3333" x="10" y="113.967"/><text fill="#000000" font-family="Arial" font-size="13" lengthAdjust="spacing" textLength="127" x="25" y="127.1608">Custom audio capture</text><polygon fill="#0A9EFD" points="280.3333,158.3388,290.3333,162.3388,280.3333,166.3388,284.3333,162.3388" style="stroke:#0A9EFD;stroke-width:1.0;"/><line style="stroke:#0A9EFD;stroke-width:2.0;" x1="41.3333" x2="286.3333" y1="162.3388" y2="162.3388"/><text fill="#0A9EFD" font-family="Arial" font-size="13" lengthAdjust="spacing" textLength="227" x="53.3333" y="157.5839">Set up an external audio source for use</text><path d="M297,135.9157 L297,174.9157 L511,174.9157 L511,145.9157 L501,135.9157 L297,135.9157 " fill="none" style="stroke:#0A9EFD;stroke-width:1.0;"/><path d="M501,135.9157 L501,145.9157 L511,145.9157 L501,135.9157 " fill="none" style="stroke:#0A9EFD;stroke-width:1.0;"/><text fill="#0A9EFD" font-family="Arial" font-size="13" lengthAdjust="spacing" textLength="184" x="312" y="153.1095">You manage audio data capture</text><text fill="#0A9EFD" font-family="Arial" font-size="13" lengthAdjust="spacing" textLength="162" x="325" y="168.0583">and processing on your own</text><polygon fill="#0A9EFD" points="280.3333,197.7619,290.3333,201.7619,280.3333,205.7619,284.3333,201.7619" style="stroke:#0A9EFD;stroke-width:1.0;"/><line style="stroke:#0A9EFD;stroke-width:2.0;" x1="41.3333" x2="286.3333" y1="201.7619" y2="201.7619"/><text fill="#0A9EFD" font-family="Arial" font-size="13" lengthAdjust="spacing" textLength="83" x="125.3333" y="197.007">Join a channel</text><polygon fill="#0A9EFD" points="494,226.7106,504,230.7106,494,234.7106,498,230.7106" style="stroke:#0A9EFD;stroke-width:1.0;"/><line style="stroke:#0A9EFD;stroke-width:2.0;" x1="292.3333" x2="500" y1="230.7106" y2="230.7106"/><text fill="#0A9EFD" font-family="Arial" font-size="13" lengthAdjust="spacing" textLength="158" x="320.1667" y="225.9557">Request to join the channel</text><polygon fill="#0A9EFD" points="280.3333,255.6593,290.3333,259.6593,280.3333,263.6593,284.3333,259.6593" style="stroke:#0A9EFD;stroke-width:1.0;"/><line style="stroke:#0A9EFD;stroke-width:2.0;" x1="41.3333" x2="286.3333" y1="259.6593" y2="259.6593"/><text fill="#0A9EFD" font-family="Arial" font-size="13" lengthAdjust="spacing" textLength="180" x="76.8333" y="254.9045">Send the processed audio data</text><polygon fill="#0A9EFD" points="280.3333,291.6081,290.3333,295.6081,280.3333,299.6081,284.3333,295.6081" style="stroke:#0A9EFD;stroke-width:1.0;"/><line style="stroke:#0A9EFD;stroke-width:2.0;" x1="41.3333" x2="286.3333" y1="295.6081" y2="295.6081"/><text fill="#0A9EFD" font-family="Arial" font-size="13" lengthAdjust="spacing" textLength="104" x="114.8333" y="290.8532">Leave the channel</text><polygon fill="#0A9EFD" points="494,320.5568,504,324.5568,494,328.5568,498,324.5568" style="stroke:#0A9EFD;stroke-width:1.0;"/><line style="stroke:#0A9EFD;stroke-width:2.0;" x1="292.3333" x2="500" y1="324.5568" y2="324.5568"/><text fill="#0A9EFD" font-family="Arial" font-size="13" lengthAdjust="spacing" textLength="167" x="315.6667" y="319.8019">Request to leave the channel</text><polygon fill="#0A9EFD" points="280.3333,349.5055,290.3333,353.5055,280.3333,357.5055,284.3333,353.5055" style="stroke:#0A9EFD;stroke-width:1.0;"/><line style="stroke:#0A9EFD;stroke-width:2.0;" x1="41.3333" x2="286.3333" y1="353.5055" y2="353.5055"/><text fill="#0A9EFD" font-family="Arial" font-size="13" lengthAdjust="spacing" textLength="109" x="112.3333" y="348.7507">Destroy the engine</text><!--SRC=[TP0xJyD03CVt-nGc0riH0rDKHQhQ2H2gMXOa9EGc9ZsusiSzeENJuz1K3O-kzk__iCyirout1DXAmAVuQld2veqpPYLRA2RU5yPZIBQs7Zb1COxsayghosfydd3bA5K5O8J9V6w86r1LBrtERavB7UuenBrKmL_IITT5vwF5_TrfZzf9RlOMoXqjjCgeKjCIfe4mwMcwiMoJHQTYI6i2ujOo6TC6oHwcEIRP0ER62jJeKmuqi5bI0gMGWRQ90gFhqIWvr0JF4Y17CYmQ5coxJYKyI8ODChRKimqcF7W_ydSd7wIc62st80mxDGFvu47mjLWbeLuZCpcZir6bfvQmeBTCCK4IUEcOxgG3DUoj8Tsg3w9cqANxru2z9Nod7px_fha_sD5YfaoGtV2_Nm00]--></g></svg>