<?xml version="1.0" encoding="us-ascii" standalone="no"?><svg xmlns="http://www.w3.org/2000/svg" xmlns:xlink="http://www.w3.org/1999/xlink" contentStyleType="text/css" height="421px" preserveAspectRatio="none" style="width:680px;height:421px;" version="1.1" viewBox="0 0 680 421" width="680px" zoomAndPan="magnify"><defs/><g><rect fill="none" height="419.1312" style="stroke:#0A9EFD;stroke-width:1.0;" width="678" x="0" y="0"/><rect fill="#999999" fill-opacity="0.33333" height="409.1312" style="stroke:#0A9EFD;stroke-width:0.5;" width="50.6667" x="167" y="6"/><text fill="#0A9EFD" font-family="sans-serif" font-size="13" font-weight="bold" lengthAdjust="spacing" textLength="28" x="178.3333" y="18.5684">App</text><rect fill="#999999" fill-opacity="0.33333" height="409.1312" style="stroke:#0A9EFD;stroke-width:0.5;" width="50.6667" x="374" y="6"/><text fill="#0A9EFD" font-family="sans-serif" font-size="13" font-weight="bold" lengthAdjust="spacing" textLength="26" x="386.3333" y="18.5684">SDK</text><rect fill="#999999" fill-opacity="0.33333" height="409.1312" style="stroke:#0A9EFD;stroke-width:0.5;" width="107" x="567" y="6"/><text fill="#0A9EFD" font-family="sans-serif" font-size="13" font-weight="bold" lengthAdjust="spacing" textLength="101" x="570" y="18.5684">Agora SDRTN&#174;</text><rect fill="#0A9EFD" fill-opacity="0.06667" height="153.6924" style="stroke:#0A9EFD;stroke-width:2.0;" width="642.8333" x="9" y="112.9259"/><line style="stroke:#0A9EFD;stroke-width:0.5;stroke-dasharray:5.0,5.0;" x1="192" x2="192" y1="66.9772" y2="370.4645"/><line style="stroke:#0A9EFD;stroke-width:0.5;stroke-dasharray:5.0,5.0;" x1="399" x2="399" y1="66.9772" y2="370.4645"/><line style="stroke:#0A9EFD;stroke-width:0.5;stroke-dasharray:5.0,5.0;" x1="620.1667" x2="620.1667" y1="66.9772" y2="370.4645"/><rect fill="none" height="40.6667" rx="2.5" ry="2.5" style="stroke:#0A9EFD;stroke-width:2.0;" width="42.6667" x="171" y="25.3105"/><path d="M180.1333,32.3105 C179.5333,32.3105 179,32.8439 179,33.4439 L179,57.8105 C179,58.4105 179.5333,58.9439 180.1333,58.9439 L201.1667,58.9439 C201.7667,58.9439 202.3,58.4105 202.3,57.8105 L202.3,33.4439 C202.3,32.8439 201.7667,32.3105 201.1667,32.3105 L180.1333,32.3105 M182.3333,35.6439 L199,35.6439 L199,52.3105 L182.3333,52.3105 L182.3333,35.6439 M190.6667,53.9772 C191.9333,53.9772 192.7667,55.3772 192.1333,56.4772 C191.5,57.5772 189.8667,57.5772 189.2,56.4772 C188.5667,55.3772 189.3667,53.9772 190.6667,53.9772 " fill="#0A9EFD" style="stroke:;stroke-width:0.0;stroke-dasharray:;"/><rect fill="none" height="40.6667" rx="2.5" ry="2.5" style="stroke:#0A9EFD;stroke-width:2.0;" width="42.6667" x="171" y="369.4645"/><path d="M180.1333,376.4645 C179.5333,376.4645 179,376.9979 179,377.5979 L179,401.9645 C179,402.5645 179.5333,403.0979 180.1333,403.0979 L201.1667,403.0979 C201.7667,403.0979 202.3,402.5645 202.3,401.9645 L202.3,377.5979 C202.3,376.9979 201.7667,376.4645 201.1667,376.4645 L180.1333,376.4645 M182.3333,379.7979 L199,379.7979 L199,396.4645 L182.3333,396.4645 L182.3333,379.7979 M190.6667,398.1312 C191.9333,398.1312 192.7667,399.5312 192.1333,400.6312 C191.5,401.7312 189.8667,401.7312 189.2,400.6312 C188.5667,399.5312 189.3667,398.1312 190.6667,398.1312 " fill="#0A9EFD" style="stroke:;stroke-width:0.0;stroke-dasharray:;"/><rect fill="none" height="40.6667" rx="2.5" ry="2.5" style="stroke:#0A9EFD;stroke-width:2.0;" width="42.6667" x="378" y="25.3105"/><path d="M386,32.3105 L386,45.6439 L399.3333,45.6439 L399.3333,32.3105 L386,32.3105 M402.6667,38.9772 L402.6667,48.9772 L392.6667,48.9772 L392.6667,52.3105 L406,52.3105 L406,38.9772 L402.6667,38.9772 M409.3333,45.6439 L409.3333,55.6439 L399.3333,55.6439 L399.3333,58.9772 L412.6667,58.9772 L412.6667,45.6439 L409.3333,45.6439 " fill="#0A9EFD" style="stroke:;stroke-width:0.0;stroke-dasharray:;"/><rect fill="none" height="40.6667" rx="2.5" ry="2.5" style="stroke:#0A9EFD;stroke-width:2.0;" width="42.6667" x="378" y="369.4645"/><path d="M386,376.4645 L386,389.7979 L399.3333,389.7979 L399.3333,376.4645 L386,376.4645 M402.6667,383.1312 L402.6667,393.1312 L392.6667,393.1312 L392.6667,396.4645 L406,396.4645 L406,383.1312 L402.6667,383.1312 M409.3333,389.7979 L409.3333,399.7979 L399.3333,399.7979 L399.3333,403.1312 L412.6667,403.1312 L412.6667,389.7979 L409.3333,389.7979 " fill="#0A9EFD" style="stroke:;stroke-width:0.0;stroke-dasharray:;"/><rect fill="none" height="40.6667" rx="2.5" ry="2.5" style="stroke:#0A9EFD;stroke-width:2.0;" width="42.6667" x="599.1667" y="25.3105"/><path d="M622.1667,32.3105 C618.1333,32.3105 614.6,35.1772 613.8333,38.9772 C610.1667,38.9772 607.1667,41.9772 607.1667,45.6439 C607.1667,49.3105 610.1667,52.3105 613.8333,52.3105 L628.8333,52.3105 C631.6,52.3105 633.8333,50.0772 633.8333,47.3105 C633.8333,45.1439 632.4333,43.0105 630.5,42.3105 L630.5,40.6439 C630.5,36.0439 626.7667,32.3105 622.1667,32.3105 " fill="#0A9EFD" style="stroke:;stroke-width:0.0;stroke-dasharray:;"/><rect fill="none" height="40.6667" rx="2.5" ry="2.5" style="stroke:#0A9EFD;stroke-width:2.0;" width="42.6667" x="599.1667" y="369.4645"/><path d="M622.1667,376.4645 C618.1333,376.4645 614.6,379.3312 613.8333,383.1312 C610.1667,383.1312 607.1667,386.1312 607.1667,389.7979 C607.1667,393.4645 610.1667,396.4645 613.8333,396.4645 L628.8333,396.4645 C631.6,396.4645 633.8333,394.2312 633.8333,391.4645 C633.8333,389.2979 632.4333,387.1645 630.5,386.4645 L630.5,384.7979 C630.5,380.1979 626.7667,376.4645 622.1667,376.4645 " fill="#0A9EFD" style="stroke:;stroke-width:0.0;stroke-dasharray:;"/><polygon fill="#0A9EFD" points="387.3333,93.9259,397.3333,97.9259,387.3333,101.9259,391.3333,97.9259" style="stroke:#0A9EFD;stroke-width:1.0;"/><line style="stroke:#0A9EFD;stroke-width:2.0;" x1="192.3333" x2="393.3333" y1="97.9259" y2="97.9259"/><text fill="#0A9EFD" font-family="Arial" font-size="13" lengthAdjust="spacing" textLength="178" x="206.8333" y="93.1711">Create and initialize the engine</text><path d="M9,112.9259 L191,112.9259 L191,119.8747 L181,129.8747 L9,129.8747 L9,112.9259 " fill="#EEEEEE" style="stroke:#0A9EFD;stroke-width:1.5;"/><rect fill="none" height="153.6924" style="stroke:#0A9EFD;stroke-width:2.0;" width="642.8333" x="9" y="112.9259"/><text fill="#000000" font-family="Arial" font-size="13" lengthAdjust="spacing" textLength="137" x="24" y="126.1198">Custom audio rendering</text><polygon fill="#0A9EFD" points="387.3333,146.8234,397.3333,150.8234,387.3333,154.8234,391.3333,150.8234" style="stroke:#0A9EFD;stroke-width:1.0;"/><line style="stroke:#0A9EFD;stroke-width:2.0;" x1="192.3333" x2="393.3333" y1="150.8234" y2="150.8234"/><text fill="#0A9EFD" font-family="Arial" font-size="13" lengthAdjust="spacing" textLength="183" x="204.3333" y="146.0685">Turn on custom audio rendering</text><polygon fill="#0A9EFD" points="387.3333,175.7721,397.3333,179.7721,387.3333,183.7721,391.3333,179.7721" style="stroke:#0A9EFD;stroke-width:1.0;"/><line style="stroke:#0A9EFD;stroke-width:2.0;" x1="192.3333" x2="393.3333" y1="179.7721" y2="179.7721"/><text fill="#0A9EFD" font-family="Arial" font-size="13" lengthAdjust="spacing" textLength="84" x="253.8333" y="175.0173">Join a channel</text><polygon fill="#0A9EFD" points="608.5,204.7209,618.5,208.7209,608.5,212.7209,612.5,208.7209" style="stroke:#0A9EFD;stroke-width:1.0;"/><line style="stroke:#0A9EFD;stroke-width:2.0;" x1="399.3333" x2="614.5" y1="208.7209" y2="208.7209"/><text fill="#0A9EFD" font-family="Arial" font-size="13" lengthAdjust="spacing" textLength="158" x="430.9167" y="203.966">Request to join the channel</text><polygon fill="#0A9EFD" points="387.3333,244.144,397.3333,248.144,387.3333,252.144,391.3333,248.144" style="stroke:#0A9EFD;stroke-width:1.0;"/><line style="stroke:#0A9EFD;stroke-width:2.0;" x1="192.3333" x2="393.3333" y1="248.144" y2="248.144"/><text fill="#0A9EFD" font-family="Arial" font-size="13" lengthAdjust="spacing" textLength="130" x="230.8333" y="243.3891">Pull remote audio data</text><path d="M19,221.7209 L19,260.7209 L187,260.7209 L187,231.7209 L177,221.7209 L19,221.7209 " fill="none" style="stroke:#0A9EFD;stroke-width:1.0;"/><path d="M177,221.7209 L177,231.7209 L187,231.7209 L177,221.7209 " fill="none" style="stroke:#0A9EFD;stroke-width:1.0;"/><text fill="#0A9EFD" font-family="Arial" font-size="13" lengthAdjust="spacing" textLength="138" x="34" y="238.9147">You render the obtained</text><text fill="#0A9EFD" font-family="Arial" font-size="13" lengthAdjust="spacing" textLength="110" x="50" y="253.8634">audio data yourself</text><polygon fill="#0A9EFD" points="387.3333,290.5671,397.3333,294.5671,387.3333,298.5671,391.3333,294.5671" style="stroke:#0A9EFD;stroke-width:1.0;"/><line style="stroke:#0A9EFD;stroke-width:2.0;" x1="192.3333" x2="393.3333" y1="294.5671" y2="294.5671"/><text fill="#0A9EFD" font-family="Arial" font-size="13" lengthAdjust="spacing" textLength="106" x="242.8333" y="289.8122">Leave the channel</text><polygon fill="#0A9EFD" points="608.5,319.5158,618.5,323.5158,608.5,327.5158,612.5,323.5158" style="stroke:#0A9EFD;stroke-width:1.0;"/><line style="stroke:#0A9EFD;stroke-width:2.0;" x1="399.3333" x2="614.5" y1="323.5158" y2="323.5158"/><text fill="#0A9EFD" font-family="Arial" font-size="13" lengthAdjust="spacing" textLength="169" x="425.4167" y="318.7609">Request to leave the channel</text><polygon fill="#0A9EFD" points="387.3333,348.4645,397.3333,352.4645,387.3333,356.4645,391.3333,352.4645" style="stroke:#0A9EFD;stroke-width:1.0;"/><line style="stroke:#0A9EFD;stroke-width:2.0;" x1="192.3333" x2="393.3333" y1="352.4645" y2="352.4645"/><text fill="#0A9EFD" font-family="Arial" font-size="13" lengthAdjust="spacing" textLength="109" x="241.3333" y="347.7096">Destroy the engine</text><!--SRC=[XP3BJiCm44Nt_eeX2tP5B5X5LQIgNG52KUa62GbDasbgS6U27uZmKNm4NyQaBMfuL2njdtlcZayiLoxL1DY8nuVmPFdCfeqpPYcla4tQDZCj-cWhso97oCR1lb5-SLwCJoCk7SKY0mmmAKj3N8Eczj7RsTNngCEEVDX55VmHdVHTz7w-kFbuFowfdAHwvr3ouD0keqAjEKmzOTJTzCMoZHQTXY6k2OWRosHCuoMrC4qXoWOmrLR0guYyvMOWMYJF80pLV-2bM0Q4QetCv8pUZGejbyESdXE5257WiMVw4b_K8LucvzIxaRxrTaYD4GttPqUhcCETfFtWhKAM4NMH-fu7F7IIV22twlzaOBycVA5la__ivtvX1yLC6I_Ty0y_0G00]--></g></svg>