<?xml version="1.0" encoding="us-ascii" standalone="no"?><svg xmlns="http://www.w3.org/2000/svg" xmlns:xlink="http://www.w3.org/1999/xlink" contentStyleType="text/css" height="908px" preserveAspectRatio="none" style="width:537px;height:908px;" version="1.1" viewBox="0 0 537 908" width="537px" zoomAndPan="magnify"><defs/><g><rect fill="none" height="906.9668" style="stroke:#0A9EFD;stroke-width:1.0;" width="535.5" x="0" y="0"/><rect fill="#999999" fill-opacity="0.33333" height="896.9668" style="stroke:#0A9EFD;stroke-width:0.5;" width="90" x="100.5" y="6"/><text fill="#0A9EFD" font-family="sans-serif" font-size="13" font-weight="bold" lengthAdjust="spacing" textLength="57" x="117" y="19.4951">Your app</text><rect fill="#999999" fill-opacity="0.33333" height="896.9668" style="stroke:#0A9EFD;stroke-width:0.5;" width="74" x="451.5" y="6"/><text fill="#0A9EFD" font-family="sans-serif" font-size="13" font-weight="bold" lengthAdjust="spacing" textLength="38" x="469.5" y="19.4951">Agora</text><rect fill="#0A9EFD" fill-opacity="0.06667" height="100.8462" style="stroke:#0A9EFD;stroke-width:2.0;" width="287" x="94.5" y="132.0474"/><rect fill="#0A9EFD" fill-opacity="0.06667" height="89.7949" style="stroke:#0A9EFD;stroke-width:2.0;" width="437" x="94.5" y="246.8936"/><rect fill="#0A9EFD" fill-opacity="0.06667" height="162.6411" style="stroke:#0A9EFD;stroke-width:2.0;" width="437" x="94.5" y="350.6885"/><rect fill="#0A9EFD" fill-opacity="0.06667" height="174.6924" style="stroke:#0A9EFD;stroke-width:2.0;" width="521.5" x="10" y="627.1758"/><line style="stroke:#0A9EFD;stroke-width:0.5;stroke-dasharray:5.0,5.0;" x1="37" x2="37" y1="86.0986" y2="818.8682"/><line style="stroke:#0A9EFD;stroke-width:0.5;stroke-dasharray:5.0,5.0;" x1="145.5" x2="145.5" y1="86.0986" y2="818.8682"/><line style="stroke:#0A9EFD;stroke-width:0.5;stroke-dasharray:5.0,5.0;" x1="488.5" x2="488.5" y1="86.0986" y2="818.8682"/><text fill="#0A9EFD" font-family="Arial" font-size="14" lengthAdjust="spacing" textLength="29" x="20" y="83.1318">User</text><ellipse cx="37.5" cy="16" fill="none" rx="8" ry="8" style="stroke:#0A9EFD;stroke-width:3.0;"/><path d="M37.5,24 L37.5,51 M24.5,32 L50.5,32 M37.5,51 L24.5,66 M37.5,51 L50.5,66 " fill="none" style="stroke:#0A9EFD;stroke-width:3.0;"/><text fill="#0A9EFD" font-family="Arial" font-size="14" lengthAdjust="spacing" textLength="29" x="20" y="831">User</text><ellipse cx="37.5" cy="844.9668" fill="none" rx="8" ry="8" style="stroke:#0A9EFD;stroke-width:3.0;"/><path d="M37.5,852.9668 L37.5,879.9668 M24.5,860.9668 L50.5,860.9668 M37.5,879.9668 L24.5,894.9668 M37.5,879.9668 L50.5,894.9668 " fill="none" style="stroke:#0A9EFD;stroke-width:3.0;"/><rect fill="none" height="30.0986" rx="2.5" ry="2.5" style="stroke:#0A9EFD;stroke-width:2.0;" width="82" x="104.5" y="55"/><text fill="#0A9EFD" font-family="Arial" font-size="14" lengthAdjust="spacing" textLength="68" x="111.5" y="75.1318">Video SDK</text><rect fill="none" height="30.0986" rx="2.5" ry="2.5" style="stroke:#0A9EFD;stroke-width:2.0;" width="82" x="104.5" y="817.8682"/><text fill="#0A9EFD" font-family="Arial" font-size="14" lengthAdjust="spacing" textLength="68" x="111.5" y="838">Video SDK</text><rect fill="none" height="30.0986" rx="2.5" ry="2.5" style="stroke:#0A9EFD;stroke-width:2.0;" width="66" x="455.5" y="55"/><text fill="#0A9EFD" font-family="Arial" font-size="14" lengthAdjust="spacing" textLength="52" x="462.5" y="75.1318">SD-RTN</text><rect fill="none" height="30.0986" rx="2.5" ry="2.5" style="stroke:#0A9EFD;stroke-width:2.0;" width="66" x="455.5" y="817.8682"/><text fill="#0A9EFD" font-family="Arial" font-size="14" lengthAdjust="spacing" textLength="52" x="462.5" y="838">SD-RTN</text><polygon fill="#0A9EFD" points="133.5,113.0474,143.5,117.0474,133.5,121.0474,137.5,117.0474" style="stroke:#0A9EFD;stroke-width:1.0;"/><line style="stroke:#0A9EFD;stroke-width:2.0;" x1="37.5" x2="139.5" y1="117.0474" y2="117.0474"/><text fill="#0A9EFD" font-family="Arial" font-size="13" lengthAdjust="spacing" textLength="58" x="62.5" y="112.2925">Open App</text><path d="M94.5,132.0474 L257.5,132.0474 L257.5,138.9961 L247.5,148.9961 L94.5,148.9961 L94.5,132.0474 " fill="#EEEEEE" style="stroke:#0A9EFD;stroke-width:1.5;"/><rect fill="none" height="100.8462" style="stroke:#0A9EFD;stroke-width:2.0;" width="287" x="94.5" y="132.0474"/><text fill="#000000" font-family="Arial" font-size="13" lengthAdjust="spacing" textLength="118" x="109.5" y="145.2412">Create Agora engine</text><line style="stroke:#0A9EFD;stroke-width:2.0;" x1="145.5" x2="187.5" y1="169.9448" y2="169.9448"/><line style="stroke:#0A9EFD;stroke-width:2.0;" x1="187.5" x2="187.5" y1="169.9448" y2="182.9448"/><line style="stroke:#0A9EFD;stroke-width:2.0;" x1="146.5" x2="187.5" y1="182.9448" y2="182.9448"/><polygon fill="#0A9EFD" points="156.5,178.9448,146.5,182.9448,156.5,186.9448,152.5,182.9448" style="stroke:#0A9EFD;stroke-width:1.0;"/><text fill="#0A9EFD" font-family="Arial" font-size="13" lengthAdjust="spacing" textLength="217" x="152.5" y="165.1899">Set log file path, log level and file size</text><line style="stroke:#0A9EFD;stroke-width:2.0;" x1="145.5" x2="187.5" y1="211.8936" y2="211.8936"/><line style="stroke:#0A9EFD;stroke-width:2.0;" x1="187.5" x2="187.5" y1="211.8936" y2="224.8936"/><line style="stroke:#0A9EFD;stroke-width:2.0;" x1="146.5" x2="187.5" y1="224.8936" y2="224.8936"/><polygon fill="#0A9EFD" points="156.5,220.8936,146.5,224.8936,156.5,228.8936,152.5,224.8936" style="stroke:#0A9EFD;stroke-width:1.0;"/><text fill="#0A9EFD" font-family="Arial" font-size="13" lengthAdjust="spacing" textLength="120" x="152.5" y="207.1387">Create Agora Engine</text><path d="M94.5,246.8936 L311.5,246.8936 L311.5,253.8423 L301.5,263.8423 L94.5,263.8423 L94.5,246.8936 " fill="#EEEEEE" style="stroke:#0A9EFD;stroke-width:1.5;"/><rect fill="none" height="89.7949" style="stroke:#0A9EFD;stroke-width:2.0;" width="437" x="94.5" y="246.8936"/><text fill="#000000" font-family="Arial" font-size="13" lengthAdjust="spacing" textLength="172" x="109.5" y="260.0874">Best practice for app initiation</text><polygon fill="#0A9EFD" points="476.5,295.7397,486.5,299.7397,476.5,303.7397,480.5,299.7397" style="stroke:#0A9EFD;stroke-width:1.0;"/><line style="stroke:#0A9EFD;stroke-width:2.0;" x1="145.5" x2="482.5" y1="299.7397" y2="299.7397"/><text fill="#0A9EFD" font-family="Arial" font-size="13" lengthAdjust="spacing" textLength="148" x="243" y="280.0361">Enable dual-stream mode</text><text fill="#0A9EFD" font-family="Arial" font-size="13" lengthAdjust="spacing" textLength="269" x="184.5" y="294.9849">to allow remote users to choose a stream type</text><polygon fill="#0A9EFD" points="476.5,324.6885,486.5,328.6885,476.5,332.6885,480.5,328.6885" style="stroke:#0A9EFD;stroke-width:1.0;"/><line style="stroke:#0A9EFD;stroke-width:2.0;" x1="145.5" x2="482.5" y1="328.6885" y2="328.6885"/><text fill="#0A9EFD" font-family="Arial" font-size="13" lengthAdjust="spacing" textLength="319" x="157.5" y="323.9336">Set local publish and remote subscribe fallback options</text><path d="M94.5,350.6885 L226.5,350.6885 L226.5,357.6372 L216.5,367.6372 L94.5,367.6372 L94.5,350.6885 " fill="#EEEEEE" style="stroke:#0A9EFD;stroke-width:1.5;"/><rect fill="none" height="162.6411" style="stroke:#0A9EFD;stroke-width:2.0;" width="437" x="94.5" y="350.6885"/><text fill="#000000" font-family="Arial" font-size="13" lengthAdjust="spacing" textLength="87" x="109.5" y="363.8823">Settings check</text><polygon fill="#0A9EFD" points="476.5,399.5347,486.5,403.5347,476.5,407.5347,480.5,403.5347" style="stroke:#0A9EFD;stroke-width:1.0;"/><line style="stroke:#0A9EFD;stroke-width:2.0;" x1="145.5" x2="482.5" y1="403.5347" y2="403.5347"/><text fill="#0A9EFD" font-family="Arial" font-size="13" lengthAdjust="spacing" textLength="194" x="220" y="383.8311">Specify audio profile and scenario</text><text fill="#0A9EFD" font-family="Arial" font-size="13" lengthAdjust="spacing" textLength="176" x="231" y="398.7798">based on the nature of the app</text><polygon fill="#0A9EFD" points="476.5,428.4834,486.5,432.4834,476.5,436.4834,480.5,432.4834" style="stroke:#0A9EFD;stroke-width:1.0;"/><line style="stroke:#0A9EFD;stroke-width:2.0;" x1="145.5" x2="482.5" y1="432.4834" y2="432.4834"/><text fill="#0A9EFD" font-family="Arial" font-size="13" lengthAdjust="spacing" textLength="180" x="227" y="427.7285">Set video encoder configuration</text><polygon fill="#0A9EFD" points="476.5,457.4321,486.5,461.4321,476.5,465.4321,480.5,461.4321" style="stroke:#0A9EFD;stroke-width:1.0;"/><line style="stroke:#0A9EFD;stroke-width:2.0;" x1="145.5" x2="482.5" y1="461.4321" y2="461.4321"/><text fill="#0A9EFD" font-family="Arial" font-size="13" lengthAdjust="spacing" textLength="269" x="182.5" y="456.6772">Call the method to start the network probe test</text><polygon fill="#0A9EFD" points="156.5,501.3296,146.5,505.3296,156.5,509.3296,152.5,505.3296" style="stroke:#0A9EFD;stroke-width:1.0;"/><line style="stroke:#0A9EFD;stroke-width:2.0;" x1="150.5" x2="487.5" y1="505.3296" y2="505.3296"/><text fill="#0A9EFD" font-family="Arial" font-size="13" lengthAdjust="spacing" textLength="165" x="234.5" y="485.626">Deliver network quality score</text><text fill="#0A9EFD" font-family="Arial" font-size="13" lengthAdjust="spacing" textLength="127" x="255.5" y="500.5747">and network statistics</text><polygon fill="#0A9EFD" points="133.5,537.2783,143.5,541.2783,133.5,545.2783,137.5,541.2783" style="stroke:#0A9EFD;stroke-width:1.0;"/><line style="stroke:#0A9EFD;stroke-width:2.0;" x1="37.5" x2="139.5" y1="541.2783" y2="541.2783"/><text fill="#0A9EFD" font-family="Arial" font-size="13" lengthAdjust="spacing" textLength="72" x="55.5" y="536.5234">Join channel</text><line style="stroke:#0A9EFD;stroke-width:2.0;" x1="145.5" x2="187.5" y1="570.2271" y2="570.2271"/><line style="stroke:#0A9EFD;stroke-width:2.0;" x1="187.5" x2="187.5" y1="570.2271" y2="583.2271"/><line style="stroke:#0A9EFD;stroke-width:2.0;" x1="146.5" x2="187.5" y1="583.2271" y2="583.2271"/><polygon fill="#0A9EFD" points="156.5,579.2271,146.5,583.2271,156.5,587.2271,152.5,583.2271" style="stroke:#0A9EFD;stroke-width:1.0;"/><text fill="#0A9EFD" font-family="Arial" font-size="13" lengthAdjust="spacing" textLength="73" x="152.5" y="565.4722">Enable video</text><polygon fill="#0A9EFD" points="476.5,608.1758,486.5,612.1758,476.5,616.1758,480.5,612.1758" style="stroke:#0A9EFD;stroke-width:1.0;"/><line style="stroke:#0A9EFD;stroke-width:2.0;" x1="145.5" x2="482.5" y1="612.1758" y2="612.1758"/><text fill="#0A9EFD" font-family="Arial" font-size="13" lengthAdjust="spacing" textLength="72" x="281" y="607.4209">Join channel</text><path d="M10,627.1758 L195,627.1758 L195,634.1245 L185,644.1245 L10,644.1245 L10,627.1758 " fill="#EEEEEE" style="stroke:#0A9EFD;stroke-width:1.5;"/><rect fill="none" height="174.6924" style="stroke:#0A9EFD;stroke-width:2.0;" width="521.5" x="10" y="627.1758"/><text fill="#000000" font-family="Arial" font-size="13" lengthAdjust="spacing" textLength="140" x="25" y="640.3696">In-call quality monitoring</text><line style="stroke:#0A9EFD;stroke-width:2.0;" x1="145.5" x2="187.5" y1="665.0732" y2="665.0732"/><line style="stroke:#0A9EFD;stroke-width:2.0;" x1="187.5" x2="187.5" y1="665.0732" y2="678.0732"/><line style="stroke:#0A9EFD;stroke-width:2.0;" x1="146.5" x2="187.5" y1="678.0732" y2="678.0732"/><polygon fill="#0A9EFD" points="156.5,674.0732,146.5,678.0732,156.5,682.0732,152.5,678.0732" style="stroke:#0A9EFD;stroke-width:1.0;"/><text fill="#0A9EFD" font-family="Arial" font-size="13" lengthAdjust="spacing" textLength="161" x="152.5" y="660.3184">Enable the quality statistics</text><polygon fill="#0A9EFD" points="156.5,703.022,146.5,707.022,156.5,711.022,152.5,707.022" style="stroke:#0A9EFD;stroke-width:1.0;"/><line style="stroke:#0A9EFD;stroke-width:2.0;" x1="150.5" x2="487.5" y1="707.022" y2="707.022"/><text fill="#0A9EFD" font-family="Arial" font-size="13" lengthAdjust="spacing" textLength="318" x="158" y="702.2671">Receive network, call, audio and video quality statistics</text><polygon fill="#0A9EFD" points="156.5,731.9707,146.5,735.9707,156.5,739.9707,152.5,735.9707" style="stroke:#0A9EFD;stroke-width:1.0;"/><line style="stroke:#0A9EFD;stroke-width:2.0;" x1="150.5" x2="487.5" y1="735.9707" y2="735.9707"/><text fill="#0A9EFD" font-family="Arial" font-size="13" lengthAdjust="spacing" textLength="197" x="218.5" y="731.2158">Receive state change notifications</text><polygon fill="#0A9EFD" points="48.5,760.9194,38.5,764.9194,48.5,768.9194,44.5,764.9194" style="stroke:#0A9EFD;stroke-width:1.0;"/><line style="stroke:#0A9EFD;stroke-width:2.0;" x1="42.5" x2="144.5" y1="764.9194" y2="764.9194"/><text fill="#0A9EFD" font-family="Arial" font-size="13" lengthAdjust="spacing" textLength="84" x="49.5" y="760.1646">Notify the user</text><polygon fill="#0A9EFD" points="476.5,789.8682,486.5,793.8682,476.5,797.8682,480.5,793.8682" style="stroke:#0A9EFD;stroke-width:1.0;"/><line style="stroke:#0A9EFD;stroke-width:2.0;" x1="145.5" x2="482.5" y1="793.8682" y2="793.8682"/><text fill="#0A9EFD" font-family="Arial" font-size="13" lengthAdjust="spacing" textLength="126" x="254" y="789.1133">Take corrective action</text><!--SRC=[ZPF1Rjim38RlVWekvsGFaCE0hDaX6z0LIJjWm821bcc7Y2ngafmkU_fHYfFKxGuxoX8__lzF-XqxOuU603i9-3CUsBtdeRTLXIP9WDbJf303ZF2qsrPLBRzXzbs60EZzhF8O4Xlsw1BCld530hlrb_9yzV1GaMj0AyQoLUxmgcQtNcmVxyU2pQr0cy7YGuOiuQid1ollgweBCdYu2uI9eE20NCUEeDANru8T9R3IGSkMm6FQpylHqf4ieBOe5v7_qAHimlrKk5dGfUr7YWbyq5ZO4BHI8W1sd1WJYxknDaijnrfxD0FQHKmAxg6NXduuI09ehJn3e5wqtQ3vnlpLx4MYpW76z-daQS8ysp9emG-rvRWlNaPC7Efe0jUgJF4rcWE8pxBYIm-AIEowgCt87APqJuRR4-3GiAXFAI7b3j6Gmy2YuckCr82eYps1mpG40cdBISDue_PODeASKUi1ZBYMko6yJUjE9HT8JsalJKuZ9bsJSnjApn8EMPAwIpe5hTrSfxOcoqUbNvxzqiWvdLIrX9ntTd2vKsZYgFCRGtcvPP-5dSQ2pf6ThCKuok9bedfICGQySGkJpLnKzABx8K4p_nSpsxlglMbxQMzBXjJVnS8SCdu-JYbxEsVydvHyJKLpfqX9tBB1yvQCyZII9TpdcrEHbzTpuleH3qgG44X_14Nc_q77cVFy2m00]--></g></svg>