<?xml version="1.0" encoding="us-ascii" standalone="no"?><svg xmlns="http://www.w3.org/2000/svg" xmlns:xlink="http://www.w3.org/1999/xlink" contentStyleType="text/css" height="908px" preserveAspectRatio="none" style="width:545px;height:908px;" version="1.1" viewBox="0 0 545 908" width="545px" zoomAndPan="magnify"><defs/><g><rect fill="none" height="906.9668" style="stroke:#0A9EFD;stroke-width:1.0;" width="543" x="0" y="0"/><rect fill="#999999" fill-opacity="0.33333" height="896.9668" style="stroke:#0A9EFD;stroke-width:0.5;" width="90" x="102" y="6"/><text fill="#0A9EFD" font-family="sans-serif" font-size="13" font-weight="bold" lengthAdjust="spacing" textLength="62" x="116" y="18.5684">Your app</text><rect fill="#999999" fill-opacity="0.33333" height="896.9668" style="stroke:#0A9EFD;stroke-width:0.5;" width="80" x="453" y="6"/><text fill="#0A9EFD" font-family="sans-serif" font-size="13" font-weight="bold" lengthAdjust="spacing" textLength="41" x="472.5" y="18.5684">Agora</text><rect fill="#0A9EFD" fill-opacity="0.06667" height="100.8462" style="stroke:#0A9EFD;stroke-width:2.0;" width="291" x="96" y="132.0474"/><rect fill="#0A9EFD" fill-opacity="0.06667" height="89.7949" style="stroke:#0A9EFD;stroke-width:2.0;" width="443" x="96" y="246.8936"/><rect fill="#0A9EFD" fill-opacity="0.06667" height="162.6411" style="stroke:#0A9EFD;stroke-width:2.0;" width="443" x="96" y="350.6885"/><rect fill="#0A9EFD" fill-opacity="0.06667" height="174.6924" style="stroke:#0A9EFD;stroke-width:2.0;" width="529" x="10" y="627.1758"/><line style="stroke:#0A9EFD;stroke-width:0.5;stroke-dasharray:5.0,5.0;" x1="38" x2="38" y1="86.0986" y2="818.8682"/><line style="stroke:#0A9EFD;stroke-width:0.5;stroke-dasharray:5.0,5.0;" x1="147" x2="147" y1="86.0986" y2="818.8682"/><line style="stroke:#0A9EFD;stroke-width:0.5;stroke-dasharray:5.0,5.0;" x1="493" x2="493" y1="86.0986" y2="818.8682"/><text fill="#0A9EFD" font-family="Arial" font-size="14" lengthAdjust="spacing" textLength="30" x="20" y="83.1318">User</text><ellipse cx="38" cy="16" fill="none" rx="8" ry="8" style="stroke:#0A9EFD;stroke-width:3.0;"/><path d="M38,24 L38,51 M25,32 L51,32 M38,51 L25,66 M38,51 L51,66 " fill="none" style="stroke:#0A9EFD;stroke-width:3.0;"/><text fill="#0A9EFD" font-family="Arial" font-size="14" lengthAdjust="spacing" textLength="30" x="20" y="831">User</text><ellipse cx="38" cy="844.9668" fill="none" rx="8" ry="8" style="stroke:#0A9EFD;stroke-width:3.0;"/><path d="M38,852.9668 L38,879.9668 M25,860.9668 L51,860.9668 M38,879.9668 L25,894.9668 M38,879.9668 L51,894.9668 " fill="none" style="stroke:#0A9EFD;stroke-width:3.0;"/><rect fill="none" height="30.0986" rx="2.5" ry="2.5" style="stroke:#0A9EFD;stroke-width:2.0;" width="82" x="106" y="55"/><text fill="#0A9EFD" font-family="Arial" font-size="14" lengthAdjust="spacing" textLength="68" x="113" y="75.1318">Video SDK</text><rect fill="none" height="30.0986" rx="2.5" ry="2.5" style="stroke:#0A9EFD;stroke-width:2.0;" width="82" x="106" y="817.8682"/><text fill="#0A9EFD" font-family="Arial" font-size="14" lengthAdjust="spacing" textLength="68" x="113" y="838">Video SDK</text><rect fill="none" height="30.0986" rx="2.5" ry="2.5" style="stroke:#0A9EFD;stroke-width:2.0;" width="72" x="457" y="55"/><text fill="#0A9EFD" font-family="Arial" font-size="14" lengthAdjust="spacing" textLength="58" x="464" y="75.1318">SDRTN&#174;</text><rect fill="none" height="30.0986" rx="2.5" ry="2.5" style="stroke:#0A9EFD;stroke-width:2.0;" width="72" x="457" y="817.8682"/><text fill="#0A9EFD" font-family="Arial" font-size="14" lengthAdjust="spacing" textLength="58" x="464" y="838">SDRTN&#174;</text><polygon fill="#0A9EFD" points="135,113.0474,145,117.0474,135,121.0474,139,117.0474" style="stroke:#0A9EFD;stroke-width:1.0;"/><line style="stroke:#0A9EFD;stroke-width:2.0;" x1="38" x2="141" y1="117.0474" y2="117.0474"/><text fill="#0A9EFD" font-family="Arial" font-size="13" lengthAdjust="spacing" textLength="58" x="63.5" y="112.2925">Open App</text><path d="M96,132.0474 L259,132.0474 L259,138.9961 L249,148.9961 L96,148.9961 L96,132.0474 " fill="#EEEEEE" style="stroke:#0A9EFD;stroke-width:1.5;"/><rect fill="none" height="100.8462" style="stroke:#0A9EFD;stroke-width:2.0;" width="291" x="96" y="132.0474"/><text fill="#000000" font-family="Arial" font-size="13" lengthAdjust="spacing" textLength="118" x="111" y="145.2412">Create Agora engine</text><line style="stroke:#0A9EFD;stroke-width:2.0;" x1="147" x2="189" y1="169.9448" y2="169.9448"/><line style="stroke:#0A9EFD;stroke-width:2.0;" x1="189" x2="189" y1="169.9448" y2="182.9448"/><line style="stroke:#0A9EFD;stroke-width:2.0;" x1="148" x2="189" y1="182.9448" y2="182.9448"/><polygon fill="#0A9EFD" points="158,178.9448,148,182.9448,158,186.9448,154,182.9448" style="stroke:#0A9EFD;stroke-width:1.0;"/><text fill="#0A9EFD" font-family="Arial" font-size="13" lengthAdjust="spacing" textLength="221" x="154" y="165.1899">Set log file path, log level and file size</text><line style="stroke:#0A9EFD;stroke-width:2.0;" x1="147" x2="189" y1="211.8936" y2="211.8936"/><line style="stroke:#0A9EFD;stroke-width:2.0;" x1="189" x2="189" y1="211.8936" y2="224.8936"/><line style="stroke:#0A9EFD;stroke-width:2.0;" x1="148" x2="189" y1="224.8936" y2="224.8936"/><polygon fill="#0A9EFD" points="158,220.8936,148,224.8936,158,228.8936,154,224.8936" style="stroke:#0A9EFD;stroke-width:1.0;"/><text fill="#0A9EFD" font-family="Arial" font-size="13" lengthAdjust="spacing" textLength="120" x="154" y="207.1387">Create Agora Engine</text><path d="M96,246.8936 L314,246.8936 L314,253.8423 L304,263.8423 L96,263.8423 L96,246.8936 " fill="#EEEEEE" style="stroke:#0A9EFD;stroke-width:1.5;"/><rect fill="none" height="89.7949" style="stroke:#0A9EFD;stroke-width:2.0;" width="443" x="96" y="246.8936"/><text fill="#000000" font-family="Arial" font-size="13" lengthAdjust="spacing" textLength="173" x="111" y="260.0874">Best practice for app initiation</text><polygon fill="#0A9EFD" points="481,295.7397,491,299.7397,481,303.7397,485,299.7397" style="stroke:#0A9EFD;stroke-width:1.0;"/><line style="stroke:#0A9EFD;stroke-width:2.0;" x1="147" x2="487" y1="299.7397" y2="299.7397"/><text fill="#0A9EFD" font-family="Arial" font-size="13" lengthAdjust="spacing" textLength="148" x="246" y="280.0361">Enable dual-stream mode</text><text fill="#0A9EFD" font-family="Arial" font-size="13" lengthAdjust="spacing" textLength="269" x="187.5" y="294.9849">to allow remote users to choose a stream type</text><polygon fill="#0A9EFD" points="481,324.6885,491,328.6885,481,332.6885,485,328.6885" style="stroke:#0A9EFD;stroke-width:1.0;"/><line style="stroke:#0A9EFD;stroke-width:2.0;" x1="147" x2="487" y1="328.6885" y2="328.6885"/><text fill="#0A9EFD" font-family="Arial" font-size="13" lengthAdjust="spacing" textLength="320" x="160" y="323.9336">Set local publish and remote subscribe fallback options</text><path d="M96,350.6885 L228,350.6885 L228,357.6372 L218,367.6372 L96,367.6372 L96,350.6885 " fill="#EEEEEE" style="stroke:#0A9EFD;stroke-width:1.5;"/><rect fill="none" height="162.6411" style="stroke:#0A9EFD;stroke-width:2.0;" width="443" x="96" y="350.6885"/><text fill="#000000" font-family="Arial" font-size="13" lengthAdjust="spacing" textLength="87" x="111" y="363.8823">Settings check</text><polygon fill="#0A9EFD" points="481,399.5347,491,403.5347,481,407.5347,485,403.5347" style="stroke:#0A9EFD;stroke-width:1.0;"/><line style="stroke:#0A9EFD;stroke-width:2.0;" x1="147" x2="487" y1="403.5347" y2="403.5347"/><text fill="#0A9EFD" font-family="Arial" font-size="13" lengthAdjust="spacing" textLength="196" x="222" y="383.8311">Specify audio profile and scenario</text><text fill="#0A9EFD" font-family="Arial" font-size="13" lengthAdjust="spacing" textLength="177" x="233.5" y="398.7798">based on the nature of the app</text><polygon fill="#0A9EFD" points="481,428.4834,491,432.4834,481,436.4834,485,432.4834" style="stroke:#0A9EFD;stroke-width:1.0;"/><line style="stroke:#0A9EFD;stroke-width:2.0;" x1="147" x2="487" y1="432.4834" y2="432.4834"/><text fill="#0A9EFD" font-family="Arial" font-size="13" lengthAdjust="spacing" textLength="183" x="228.5" y="427.7285">Set video encoder configuration</text><polygon fill="#0A9EFD" points="481,457.4321,491,461.4321,481,465.4321,485,461.4321" style="stroke:#0A9EFD;stroke-width:1.0;"/><line style="stroke:#0A9EFD;stroke-width:2.0;" x1="147" x2="487" y1="461.4321" y2="461.4321"/><text fill="#0A9EFD" font-family="Arial" font-size="13" lengthAdjust="spacing" textLength="269" x="185.5" y="456.6772">Call the method to start the network probe test</text><polygon fill="#0A9EFD" points="158,501.3296,148,505.3296,158,509.3296,154,505.3296" style="stroke:#0A9EFD;stroke-width:1.0;"/><line style="stroke:#0A9EFD;stroke-width:2.0;" x1="152" x2="492" y1="505.3296" y2="505.3296"/><text fill="#0A9EFD" font-family="Arial" font-size="13" lengthAdjust="spacing" textLength="167" x="236.5" y="485.626">Deliver network quality score</text><text fill="#0A9EFD" font-family="Arial" font-size="13" lengthAdjust="spacing" textLength="127" x="258.5" y="500.5747">and network statistics</text><polygon fill="#0A9EFD" points="135,537.2783,145,541.2783,135,545.2783,139,541.2783" style="stroke:#0A9EFD;stroke-width:1.0;"/><line style="stroke:#0A9EFD;stroke-width:2.0;" x1="38" x2="141" y1="541.2783" y2="541.2783"/><text fill="#0A9EFD" font-family="Arial" font-size="13" lengthAdjust="spacing" textLength="73" x="56" y="536.5234">Join channel</text><line style="stroke:#0A9EFD;stroke-width:2.0;" x1="147" x2="189" y1="570.2271" y2="570.2271"/><line style="stroke:#0A9EFD;stroke-width:2.0;" x1="189" x2="189" y1="570.2271" y2="583.2271"/><line style="stroke:#0A9EFD;stroke-width:2.0;" x1="148" x2="189" y1="583.2271" y2="583.2271"/><polygon fill="#0A9EFD" points="158,579.2271,148,583.2271,158,587.2271,154,583.2271" style="stroke:#0A9EFD;stroke-width:1.0;"/><text fill="#0A9EFD" font-family="Arial" font-size="13" lengthAdjust="spacing" textLength="75" x="154" y="565.4722">Enable video</text><polygon fill="#0A9EFD" points="481,608.1758,491,612.1758,481,616.1758,485,612.1758" style="stroke:#0A9EFD;stroke-width:1.0;"/><line style="stroke:#0A9EFD;stroke-width:2.0;" x1="147" x2="487" y1="612.1758" y2="612.1758"/><text fill="#0A9EFD" font-family="Arial" font-size="13" lengthAdjust="spacing" textLength="73" x="283.5" y="607.4209">Join channel</text><path d="M10,627.1758 L196,627.1758 L196,634.1245 L186,644.1245 L10,644.1245 L10,627.1758 " fill="#EEEEEE" style="stroke:#0A9EFD;stroke-width:1.5;"/><rect fill="none" height="174.6924" style="stroke:#0A9EFD;stroke-width:2.0;" width="529" x="10" y="627.1758"/><text fill="#000000" font-family="Arial" font-size="13" lengthAdjust="spacing" textLength="141" x="25" y="640.3696">In-call quality monitoring</text><line style="stroke:#0A9EFD;stroke-width:2.0;" x1="147" x2="189" y1="665.0732" y2="665.0732"/><line style="stroke:#0A9EFD;stroke-width:2.0;" x1="189" x2="189" y1="665.0732" y2="678.0732"/><line style="stroke:#0A9EFD;stroke-width:2.0;" x1="148" x2="189" y1="678.0732" y2="678.0732"/><polygon fill="#0A9EFD" points="158,674.0732,148,678.0732,158,682.0732,154,678.0732" style="stroke:#0A9EFD;stroke-width:1.0;"/><text fill="#0A9EFD" font-family="Arial" font-size="13" lengthAdjust="spacing" textLength="161" x="154" y="660.3184">Enable the quality statistics</text><polygon fill="#0A9EFD" points="158,703.022,148,707.022,158,711.022,154,707.022" style="stroke:#0A9EFD;stroke-width:1.0;"/><line style="stroke:#0A9EFD;stroke-width:2.0;" x1="152" x2="492" y1="707.022" y2="707.022"/><text fill="#0A9EFD" font-family="Arial" font-size="13" lengthAdjust="spacing" textLength="322" x="159" y="702.2671">Receive network, call, audio and video quality statistics</text><polygon fill="#0A9EFD" points="158,731.9707,148,735.9707,158,739.9707,154,735.9707" style="stroke:#0A9EFD;stroke-width:1.0;"/><line style="stroke:#0A9EFD;stroke-width:2.0;" x1="152" x2="492" y1="735.9707" y2="735.9707"/><text fill="#0A9EFD" font-family="Arial" font-size="13" lengthAdjust="spacing" textLength="200" x="220" y="731.2158">Receive state change notifications</text><polygon fill="#0A9EFD" points="49,760.9194,39,764.9194,49,768.9194,45,764.9194" style="stroke:#0A9EFD;stroke-width:1.0;"/><line style="stroke:#0A9EFD;stroke-width:2.0;" x1="43" x2="146" y1="764.9194" y2="764.9194"/><text fill="#0A9EFD" font-family="Arial" font-size="13" lengthAdjust="spacing" textLength="85" x="50" y="760.1646">Notify the user</text><polygon fill="#0A9EFD" points="481,789.8682,491,793.8682,481,797.8682,485,793.8682" style="stroke:#0A9EFD;stroke-width:1.0;"/><line style="stroke:#0A9EFD;stroke-width:2.0;" x1="147" x2="487" y1="793.8682" y2="793.8682"/><text fill="#0A9EFD" font-family="Arial" font-size="13" lengthAdjust="spacing" textLength="129" x="255.5" y="789.1133">Take corrective action</text><!--SRC=[ZPDDZjim38NtFWMRTT83P54WdNIH5fWEafa21GeKjCmuH6HHbUHCqqFr43rPASNvyKmNNSeIFxxtIBzXPspV460h0R_7FRktt7Usgj0a2J1vYXGcW16UDkkggkKdJBvA7m2zdrGUGsB37bs2oHTkI62p_5IUBnuUAd8DQCLGjiWTNjHibkl7-p-_XuhLjKAxmUnTfipXioS72- -hgWtIUxWBX8cWy81SouwWqfUNWWqbiDB2bYs1nxIRbgEb0rb0RL4k8l-YKTc8-w5miw1ps_SK4_YWkR0Xs4h90DXnOamixifQpRKSQ-tHz6XdCIcuWquQ-kOW2Q2ryWo1Ej5slGOSyrUp4uaw21ZUfwEd4VDaow05tzUMuwvu6J2nhwC9NAionTTezY0-ougt7XIHsBLHcv7PZ-cU36-FW7t3eZwbX9GxH4CE0ukAhp5I0w8kTWGEKny8P5jE6iOhjOUo4kICMWzWn6svxSFhjEvKSe5qb7RIv3HYqZqvjQ7qB66V9Qcxf5FGsjLbQakoV53w-TaFZPpJKLLBo7bd1-SxXIQEEhyXbDij-oZiD1PqZkneBOPH5YyZrQEA8U2LcvbivgoY4zqF2PhvlvZPtaNlLTkjlJKPKdzd2rF8-EamfUpjbF5_Kl8r5Ssj8YNnbWsUjcIGfv7CuJxV78kyl9uZru-uLuA4GFeZA3B_3phEdETV]--></g></svg>