<?xml version="1.0" encoding="us-ascii" standalone="no"?><svg xmlns="http://www.w3.org/2000/svg" xmlns:xlink="http://www.w3.org/1999/xlink" contentStyleType="text/css" height="1240px" preserveAspectRatio="none" style="width:755px;height:1240px;" version="1.1" viewBox="0 0 755 1240" width="755px" zoomAndPan="magnify"><defs/><g><rect fill="none" height="1238.0439" style="stroke:#0A9EFD;stroke-width:1.0;" width="753" x="0" y="0"/><rect fill="#999999" fill-opacity="0.33333" height="1228.0439" style="stroke:#0A9EFD;stroke-width:0.5;" width="90" x="177" y="6"/><text fill="#0A9EFD" font-family="sans-serif" font-size="13" font-weight="bold" lengthAdjust="spacing" textLength="74" x="185" y="18.5684">Your game</text><rect fill="#999999" fill-opacity="0.33333" height="1228.0439" style="stroke:#0A9EFD;stroke-width:0.5;" width="80" x="663" y="6"/><text fill="#0A9EFD" font-family="sans-serif" font-size="13" font-weight="bold" lengthAdjust="spacing" textLength="41" x="682.5" y="18.5684">Agora</text><rect fill="#0A9EFD" fill-opacity="0.06667" height="205.5386" style="stroke:#0A9EFD;stroke-width:2.0;" width="739" x="10" y="378.4834"/><rect fill="#0A9EFD" fill-opacity="0.06667" height="205.5386" style="stroke:#0A9EFD;stroke-width:2.0;" width="739" x="10" y="598.022"/><line style="stroke:#0A9EFD;stroke-width:0.5;stroke-dasharray:5.0,5.0;" x1="38" x2="38" y1="86.0986" y2="1149.9453"/><line style="stroke:#0A9EFD;stroke-width:0.5;stroke-dasharray:5.0,5.0;" x1="222" x2="222" y1="86.0986" y2="1149.9453"/><line style="stroke:#0A9EFD;stroke-width:0.5;stroke-dasharray:5.0,5.0;" x1="703" x2="703" y1="86.0986" y2="1149.9453"/><text fill="#0A9EFD" font-family="Arial" font-size="14" lengthAdjust="spacing" textLength="30" x="20" y="83.1318">User</text><ellipse cx="38" cy="16" fill="none" rx="8" ry="8" style="stroke:#0A9EFD;stroke-width:3.0;"/><path d="M38,24 L38,51 M25,32 L51,32 M38,51 L25,66 M38,51 L51,66 " fill="none" style="stroke:#0A9EFD;stroke-width:3.0;"/><text fill="#0A9EFD" font-family="Arial" font-size="14" lengthAdjust="spacing" textLength="30" x="20" y="1162.0771">User</text><ellipse cx="38" cy="1176.0439" fill="none" rx="8" ry="8" style="stroke:#0A9EFD;stroke-width:3.0;"/><path d="M38,1184.0439 L38,1211.0439 M25,1192.0439 L51,1192.0439 M38,1211.0439 L25,1226.0439 M38,1211.0439 L51,1226.0439 " fill="none" style="stroke:#0A9EFD;stroke-width:3.0;"/><rect fill="none" height="30.0986" rx="2.5" ry="2.5" style="stroke:#0A9EFD;stroke-width:2.0;" width="82" x="181" y="55"/><text fill="#0A9EFD" font-family="Arial" font-size="14" lengthAdjust="spacing" textLength="68" x="188" y="75.1318">Video SDK</text><rect fill="none" height="30.0986" rx="2.5" ry="2.5" style="stroke:#0A9EFD;stroke-width:2.0;" width="82" x="181" y="1148.9453"/><text fill="#0A9EFD" font-family="Arial" font-size="14" lengthAdjust="spacing" textLength="68" x="188" y="1169.0771">Video SDK</text><rect fill="none" height="30.0986" rx="2.5" ry="2.5" style="stroke:#0A9EFD;stroke-width:2.0;" width="72" x="667" y="55"/><text fill="#0A9EFD" font-family="Arial" font-size="14" lengthAdjust="spacing" textLength="58" x="674" y="75.1318">SDRTN&#174;</text><rect fill="none" height="30.0986" rx="2.5" ry="2.5" style="stroke:#0A9EFD;stroke-width:2.0;" width="72" x="667" y="1148.9453"/><text fill="#0A9EFD" font-family="Arial" font-size="14" lengthAdjust="spacing" textLength="58" x="674" y="1169.0771">SDRTN&#174;</text><polygon fill="#0A9EFD" points="210,113.0474,220,117.0474,210,121.0474,214,117.0474" style="stroke:#0A9EFD;stroke-width:1.0;"/><line style="stroke:#0A9EFD;stroke-width:2.0;" x1="38" x2="216" y1="117.0474" y2="117.0474"/><text fill="#0A9EFD" font-family="Arial" font-size="13" lengthAdjust="spacing" textLength="67" x="96.5" y="112.2925">Open game</text><line style="stroke:#0A9EFD;stroke-width:2.0;" x1="222" x2="264" y1="160.9448" y2="160.9448"/><line style="stroke:#0A9EFD;stroke-width:2.0;" x1="264" x2="264" y1="160.9448" y2="173.9448"/><line style="stroke:#0A9EFD;stroke-width:2.0;" x1="223" x2="264" y1="173.9448" y2="173.9448"/><polygon fill="#0A9EFD" points="233,169.9448,223,173.9448,233,177.9448,229,173.9448" style="stroke:#0A9EFD;stroke-width:1.0;"/><text fill="#0A9EFD" font-family="Arial" font-size="13" lengthAdjust="spacing" textLength="177" x="311.5" y="141.2412">Create an RtcEngine instance:</text><text fill="#0A9EFD" font-family="Arial" font-size="13" lengthAdjust="spacing" textLength="342" x="233" y="156.1899">RtcEngine = Agora.Rtc.RtcEngine.CreateAgoraRtcEngine()</text><polygon fill="#0A9EFD" points="691,228.791,701,232.791,691,236.791,695,232.791" style="stroke:#0A9EFD;stroke-width:1.0;"/><line style="stroke:#0A9EFD;stroke-width:2.0;" x1="222" x2="697" y1="232.791" y2="232.791"/><text fill="#0A9EFD" font-family="Arial" font-size="13" lengthAdjust="spacing" textLength="112" x="404.5" y="198.1387">Set channel profile:</text><text fill="#0A9EFD" font-family="Arial" font-size="13" lengthAdjust="spacing" textLength="172" x="378.5" y="213.0874">RtcEngine.SetChannelProfile(</text><text fill="#0A9EFD" font-family="Arial" font-size="13" lengthAdjust="spacing" textLength="445" x="246" y="228.0361">CHANNEL_PROFILE_TYPE.CHANNEL_PROFILE_LIVE_BROADCASTING)</text><polygon fill="#0A9EFD" points="691,302.5859,701,306.5859,691,310.5859,695,306.5859" style="stroke:#0A9EFD;stroke-width:1.0;"/><line style="stroke:#0A9EFD;stroke-width:2.0;" x1="222" x2="697" y1="306.5859" y2="306.5859"/><text fill="#0A9EFD" font-family="Arial" font-size="13" lengthAdjust="spacing" textLength="93" x="414" y="256.9849">Set the context:</text><text fill="#0A9EFD" font-family="Arial" font-size="13" lengthAdjust="spacing" textLength="394" x="265.5" y="271.9336">RtcEngineContext context = new RtcEngineContext(_appID, 0, true,</text><text fill="#0A9EFD" font-family="Arial" font-size="13" lengthAdjust="spacing" textLength="445" x="240" y="286.8823">CHANNEL_PROFILE_TYPE.CHANNEL_PROFILE_LIVE_BROADCASTING,</text><text fill="#0A9EFD" font-family="Arial" font-size="13" lengthAdjust="spacing" textLength="348" x="290.5" y="301.8311">AUDIO_SCENARIO_TYPE.AUDIO_SCENARIO_DEFAULT)</text><line style="stroke:#0A9EFD;stroke-width:2.0;" x1="222" x2="264" y1="350.4834" y2="350.4834"/><line style="stroke:#0A9EFD;stroke-width:2.0;" x1="264" x2="264" y1="350.4834" y2="363.4834"/><line style="stroke:#0A9EFD;stroke-width:2.0;" x1="223" x2="264" y1="363.4834" y2="363.4834"/><polygon fill="#0A9EFD" points="233,359.4834,223,363.4834,233,367.4834,229,363.4834" style="stroke:#0A9EFD;stroke-width:1.0;"/><text fill="#0A9EFD" font-family="Arial" font-size="13" lengthAdjust="spacing" textLength="116" x="252.5" y="330.7798">Initialize RtcEngine:</text><text fill="#0A9EFD" font-family="Arial" font-size="13" lengthAdjust="spacing" textLength="163" x="233" y="345.7285">RtcEngine.Initialize(context)</text><path d="M10,378.4834 L82,378.4834 L82,385.4321 L72,395.4321 L10,395.4321 L10,378.4834 " fill="#EEEEEE" style="stroke:#0A9EFD;stroke-width:1.5;"/><rect fill="none" height="205.5386" style="stroke:#0A9EFD;stroke-width:2.0;" width="739" x="10" y="378.4834"/><text fill="#000000" font-family="Arial" font-size="13" lengthAdjust="spacing" textLength="27" x="25" y="391.6772">Host</text><polygon fill="#0A9EFD" points="210,412.3809,220,416.3809,210,420.3809,214,416.3809" style="stroke:#0A9EFD;stroke-width:1.0;"/><line style="stroke:#0A9EFD;stroke-width:2.0;" x1="38" x2="216" y1="416.3809" y2="416.3809"/><text fill="#0A9EFD" font-family="Arial" font-size="13" lengthAdjust="spacing" textLength="160" x="50" y="411.626">Start a live streaming event</text><line style="stroke:#0A9EFD;stroke-width:2.0;" x1="222" x2="264" y1="460.2783" y2="460.2783"/><line style="stroke:#0A9EFD;stroke-width:2.0;" x1="264" x2="264" y1="460.2783" y2="473.2783"/><line style="stroke:#0A9EFD;stroke-width:2.0;" x1="223" x2="264" y1="473.2783" y2="473.2783"/><polygon fill="#0A9EFD" points="233,469.2783,223,473.2783,233,477.2783,229,473.2783" style="stroke:#0A9EFD;stroke-width:1.0;"/><text fill="#0A9EFD" font-family="Arial" font-size="13" lengthAdjust="spacing" textLength="147" x="229" y="440.5747">Enable the video module:</text><text fill="#0A9EFD" font-family="Arial" font-size="13" lengthAdjust="spacing" textLength="145" x="234" y="455.5234">RtcEngine.EnableVideo()</text><polygon fill="#0A9EFD" points="691,528.1245,701,532.1245,691,536.1245,695,532.1245" style="stroke:#0A9EFD;stroke-width:1.0;"/><line style="stroke:#0A9EFD;stroke-width:2.0;" x1="222" x2="697" y1="532.1245" y2="532.1245"/><text fill="#0A9EFD" font-family="Arial" font-size="13" lengthAdjust="spacing" textLength="147" x="387" y="497.4722">Set the user role as host:</text><text fill="#0A9EFD" font-family="Arial" font-size="13" lengthAdjust="spacing" textLength="147" x="391" y="512.4209">RtcEngine.SetClientRole(</text><text fill="#0A9EFD" font-family="Arial" font-size="13" lengthAdjust="spacing" textLength="332" x="300.5" y="527.3696">CLIENT_ROLE_TYPE.CLIENT_ROLE_BROADCASTER)</text><polygon fill="#0A9EFD" points="691,572.022,701,576.022,691,580.022,695,576.022" style="stroke:#0A9EFD;stroke-width:1.0;"/><line style="stroke:#0A9EFD;stroke-width:2.0;" x1="222" x2="697" y1="576.022" y2="576.022"/><text fill="#0A9EFD" font-family="Arial" font-size="13" lengthAdjust="spacing" textLength="135" x="393" y="556.3184">Join a channel as host:</text><text fill="#0A9EFD" font-family="Arial" font-size="13" lengthAdjust="spacing" textLength="143" x="393" y="571.2671">RtcEngine.JoinChannel()</text><path d="M10,598.022 L109,598.022 L109,604.9707 L99,614.9707 L10,614.9707 L10,598.022 " fill="#EEEEEE" style="stroke:#0A9EFD;stroke-width:1.5;"/><rect fill="none" height="205.5386" style="stroke:#0A9EFD;stroke-width:2.0;" width="739" x="10" y="598.022"/><text fill="#000000" font-family="Arial" font-size="13" lengthAdjust="spacing" textLength="54" x="25" y="611.2158">Audience</text><polygon fill="#0A9EFD" points="210,631.9194,220,635.9194,210,639.9194,214,635.9194" style="stroke:#0A9EFD;stroke-width:1.0;"/><line style="stroke:#0A9EFD;stroke-width:2.0;" x1="38" x2="216" y1="635.9194" y2="635.9194"/><text fill="#0A9EFD" font-family="Arial" font-size="13" lengthAdjust="spacing" textLength="156" x="52" y="631.1646">Join a live streaming event</text><line style="stroke:#0A9EFD;stroke-width:2.0;" x1="222" x2="264" y1="679.8169" y2="679.8169"/><line style="stroke:#0A9EFD;stroke-width:2.0;" x1="264" x2="264" y1="679.8169" y2="692.8169"/><line style="stroke:#0A9EFD;stroke-width:2.0;" x1="223" x2="264" y1="692.8169" y2="692.8169"/><polygon fill="#0A9EFD" points="233,688.8169,223,692.8169,233,696.8169,229,692.8169" style="stroke:#0A9EFD;stroke-width:1.0;"/><text fill="#0A9EFD" font-family="Arial" font-size="13" lengthAdjust="spacing" textLength="147" x="229" y="660.1133">Enable the video module:</text><text fill="#0A9EFD" font-family="Arial" font-size="13" lengthAdjust="spacing" textLength="145" x="234" y="675.062">RtcEngine.EnableVideo()</text><polygon fill="#0A9EFD" points="691,747.6631,701,751.6631,691,755.6631,695,751.6631" style="stroke:#0A9EFD;stroke-width:1.0;"/><line style="stroke:#0A9EFD;stroke-width:2.0;" x1="222" x2="697" y1="751.6631" y2="751.6631"/><text fill="#0A9EFD" font-family="Arial" font-size="13" lengthAdjust="spacing" textLength="174" x="373.5" y="717.0107">Set the user role as audience:</text><text fill="#0A9EFD" font-family="Arial" font-size="13" lengthAdjust="spacing" textLength="147" x="391" y="731.9595">RtcEngine.SetClientRole(</text><text fill="#0A9EFD" font-family="Arial" font-size="13" lengthAdjust="spacing" textLength="300" x="316.5" y="746.9082">CLIENT_ROLE_TYPE.CLIENT_ROLE_AUDIENCE)</text><polygon fill="#0A9EFD" points="691,791.5605,701,795.5605,691,799.5605,695,795.5605" style="stroke:#0A9EFD;stroke-width:1.0;"/><line style="stroke:#0A9EFD;stroke-width:2.0;" x1="222" x2="697" y1="795.5605" y2="795.5605"/><text fill="#0A9EFD" font-family="Arial" font-size="13" lengthAdjust="spacing" textLength="173" x="374" y="775.8569">Join the channel as audience:</text><text fill="#0A9EFD" font-family="Arial" font-size="13" lengthAdjust="spacing" textLength="143" x="393" y="790.8057">RtcEngine.JoinChannel()</text><polygon fill="#0A9EFD" points="210,827.5093,220,831.5093,210,835.5093,214,831.5093" style="stroke:#0A9EFD;stroke-width:1.0;"/><line style="stroke:#0A9EFD;stroke-width:2.0;" x1="38" x2="216" y1="831.5093" y2="831.5093"/><text fill="#0A9EFD" font-family="Arial" font-size="13" lengthAdjust="spacing" textLength="59" x="100.5" y="826.7544">Leave call</text><polygon fill="#0A9EFD" points="691,871.4067,701,875.4067,691,879.4067,695,875.4067" style="stroke:#0A9EFD;stroke-width:1.0;"/><line style="stroke:#0A9EFD;stroke-width:2.0;" x1="222" x2="697" y1="875.4067" y2="875.4067"/><text fill="#0A9EFD" font-family="Arial" font-size="13" lengthAdjust="spacing" textLength="110" x="405.5" y="855.7031">Leave the channel:</text><text fill="#0A9EFD" font-family="Arial" font-size="13" lengthAdjust="spacing" textLength="154" x="387.5" y="870.6519">RtcEngine.LeaveChannel()</text><line style="stroke:#0A9EFD;stroke-width:2.0;" x1="222" x2="264" y1="919.3042" y2="919.3042"/><line style="stroke:#0A9EFD;stroke-width:2.0;" x1="264" x2="264" y1="919.3042" y2="932.3042"/><line style="stroke:#0A9EFD;stroke-width:2.0;" x1="223" x2="264" y1="932.3042" y2="932.3042"/><polygon fill="#0A9EFD" points="233,928.3042,223,932.3042,233,936.3042,229,932.3042" style="stroke:#0A9EFD;stroke-width:1.0;"/><text fill="#0A9EFD" font-family="Arial" font-size="13" lengthAdjust="spacing" textLength="157" x="229" y="899.6006">Disable the video modules:</text><text fill="#0A9EFD" font-family="Arial" font-size="13" lengthAdjust="spacing" textLength="148" x="237.5" y="914.5493">RtcEngine.DisableVideo()</text><line style="stroke:#0A9EFD;stroke-width:2.0;" x1="222" x2="264" y1="976.2017" y2="976.2017"/><line style="stroke:#0A9EFD;stroke-width:2.0;" x1="264" x2="264" y1="976.2017" y2="989.2017"/><line style="stroke:#0A9EFD;stroke-width:2.0;" x1="223" x2="264" y1="989.2017" y2="989.2017"/><polygon fill="#0A9EFD" points="233,985.2017,223,989.2017,233,993.2017,229,989.2017" style="stroke:#0A9EFD;stroke-width:1.0;"/><text fill="#0A9EFD" font-family="Arial" font-size="13" lengthAdjust="spacing" textLength="189" x="229" y="956.498">Stop rendering the remote video:</text><text fill="#0A9EFD" font-family="Arial" font-size="13" lengthAdjust="spacing" textLength="173" x="241" y="971.4468">RemoteView.SetEnable(false)</text><line style="stroke:#0A9EFD;stroke-width:2.0;" x1="222" x2="264" y1="1033.0991" y2="1033.0991"/><line style="stroke:#0A9EFD;stroke-width:2.0;" x1="264" x2="264" y1="1033.0991" y2="1046.0991"/><line style="stroke:#0A9EFD;stroke-width:2.0;" x1="223" x2="264" y1="1046.0991" y2="1046.0991"/><polygon fill="#0A9EFD" points="233,1042.0991,223,1046.0991,233,1050.0991,229,1046.0991" style="stroke:#0A9EFD;stroke-width:1.0;"/><text fill="#0A9EFD" font-family="Arial" font-size="13" lengthAdjust="spacing" textLength="176" x="229" y="1013.3955">Stop rendering the local video:</text><text fill="#0A9EFD" font-family="Arial" font-size="13" lengthAdjust="spacing" textLength="159" x="241.5" y="1028.3442">LocalView.SetEnable(false)</text><polygon fill="#0A9EFD" points="210,1071.0479,220,1075.0479,210,1079.0479,214,1075.0479" style="stroke:#0A9EFD;stroke-width:1.0;"/><line style="stroke:#0A9EFD;stroke-width:2.0;" x1="38" x2="216" y1="1075.0479" y2="1075.0479"/><text fill="#0A9EFD" font-family="Arial" font-size="13" lengthAdjust="spacing" textLength="69" x="95.5" y="1070.293">Close game</text><line style="stroke:#0A9EFD;stroke-width:2.0;" x1="222" x2="264" y1="1118.9453" y2="1118.9453"/><line style="stroke:#0A9EFD;stroke-width:2.0;" x1="264" x2="264" y1="1118.9453" y2="1131.9453"/><line style="stroke:#0A9EFD;stroke-width:2.0;" x1="223" x2="264" y1="1131.9453" y2="1131.9453"/><polygon fill="#0A9EFD" points="233,1127.9453,223,1131.9453,233,1135.9453,229,1131.9453" style="stroke:#0A9EFD;stroke-width:1.0;"/><text fill="#0A9EFD" font-family="Arial" font-size="13" lengthAdjust="spacing" textLength="147" x="229" y="1099.2417">Clean up local resources:</text><text fill="#0A9EFD" font-family="Arial" font-size="13" lengthAdjust="spacing" textLength="119" x="249" y="1114.1904">RtcEngine.Dispose()</text><!--SRC=[nLLTYvj057ttLzpcAO5jw7EW1QjkrrPCq2ImK91PSpSPEfcHSSmk_L7z4VrblOucKMCfj0zzY_VZd7lFFPetNEQYsY6mlT8iAxznEUVLKJWEoutICDcKg2V0IjYaYUCygLUOFAfAmvuTSU8u1TE6vxnWqi1aotUe8FM_s0PtjN8Sb3kWfhRJhKc6NQcVhEEVFzgUiDD3bF3sGmsqW6M1qf8wz7Y9UXgPeU4b92OFv9vB12vBmsIE2_ZQ3Ry7opwdoFmIdJS0DdC9JcTNZd01AHh83qnA551ezSp507fE5LvJi6hoKqe3U0zk70THjagMzs4KPEl7LJ0V1gDm6sGVawNhUsww3kDFj-JcW90hQV3Lz8cz9dXEqeeINsxIqumLHUZVmRixCBh2knhZxsQphUx63vTPwWMncz0Fspc8-S6zkudMizwjGiaDPu9_n-k80o6l9TDsfvdZxBMg2dXGfUaP8ZLa8c0W-0cXD7J78vTxm1DAq-CD97iIQ5KyMOCUrQwwkM5JPHqy7Jz1HMy2Q4LGPDG3ZJFY0i69FL6j0xme3E9rbYml0dS25rs3fC_tMN59UvqjDqvM5xMUet7fZJdhv5OxcY77dbOjvF-HYhKJ_PjSjSE2s0j6jBBlnrMjt_2DADQLA496ukHCY1v14-um351j_WhR5TFdvQYQvG2YhRlHqtfS5Q1fLjJrmMeaZKTbMi06o0Qs75zgIPlRJ9-PAF6FM4BHlXseg7uUH-ffvGbLuiZ7M21zYCc33Qx6alueydRV_i850T2klm00]--></g></svg>