<?xml version="1.0" encoding="UTF-8" standalone="no"?><svg xmlns="http://www.w3.org/2000/svg" xmlns:xlink="http://www.w3.org/1999/xlink" contentStyleType="text/css" height="1218px" preserveAspectRatio="none" style="width:793px;height:1218px;" version="1.1" viewBox="0 0 793 1218" width="793px" zoomAndPan="magnify"><defs/><g><rect fill="none" height="1216.5469" style="stroke:#0A9EFD;stroke-width:1.0;" width="791.5" x="0" y="0"/><rect fill="#F3F3F3" height="1206.5469" style="stroke:#0A9EFD;stroke-width:0.5;" width="95" x="235" y="6"/><text fill="#000000" font-family="sans-serif" font-size="13" font-weight="bold" lengthAdjust="spacing" textLength="57" x="254" y="19.4951">Your app</text><rect fill="#F3F3F3" height="1206.5469" style="stroke:#0A9EFD;stroke-width:0.5;" width="74" x="707.5" y="6"/><text fill="#000000" font-family="sans-serif" font-size="13" font-weight="bold" lengthAdjust="spacing" textLength="38" x="725.5" y="19.4951">Agora</text><rect fill="#FFFFFF" height="288.0938" style="stroke:#0A9EFD;stroke-width:2.0;" width="777.5" x="10" y="358.0938"/><rect fill="#FFFFFF" height="275.0938" style="stroke:#0A9EFD;stroke-width:2.0;" width="777.5" x="10" y="660.1875"/><line style="stroke:#0A9EFD;stroke-width:0.5;stroke-dasharray:5.0,5.0;" x1="39" x2="39" y1="87.6094" y2="1126.9375"/><line style="stroke:#0A9EFD;stroke-width:0.5;stroke-dasharray:5.0,5.0;" x1="282" x2="282" y1="87.6094" y2="1126.9375"/><line style="stroke:#0A9EFD;stroke-width:0.5;stroke-dasharray:5.0,5.0;" x1="744.5" x2="744.5" y1="87.6094" y2="1126.9375"/><text fill="#0A9EFD" font-family="Roboto" font-size="14" font-weight="bold" lengthAdjust="spacing" textLength="33" x="20" y="84.5332">User</text><ellipse cx="39.5" cy="16" fill="none" rx="8" ry="8" style="stroke:#0A9EFD;stroke-width:3.0;"/><path d="M39.5,24 L39.5,51 M26.5,32 L52.5,32 M39.5,51 L26.5,66 M39.5,51 L52.5,66 " fill="none" style="stroke:#0A9EFD;stroke-width:3.0;"/><text fill="#0A9EFD" font-family="Roboto" font-size="14" font-weight="bold" lengthAdjust="spacing" textLength="33" x="20" y="1140.4707">User</text><ellipse cx="39.5" cy="1154.5469" fill="none" rx="8" ry="8" style="stroke:#0A9EFD;stroke-width:3.0;"/><path d="M39.5,1162.5469 L39.5,1189.5469 M26.5,1170.5469 L52.5,1170.5469 M39.5,1189.5469 L26.5,1204.5469 M39.5,1189.5469 L52.5,1204.5469 " fill="none" style="stroke:#0A9EFD;stroke-width:3.0;"/><rect fill="#FFFFFF" height="31.6094" rx="2.5" ry="2.5" style="stroke:#0A9EFD;stroke-width:2.0;" width="87" x="239" y="55"/><text fill="#0A9EFD" font-family="Roboto" font-size="14" font-weight="bold" lengthAdjust="spacing" textLength="73" x="246" y="76.5332">Video SDK</text><rect fill="#FFFFFF" height="31.6094" rx="2.5" ry="2.5" style="stroke:#0A9EFD;stroke-width:2.0;" width="87" x="239" y="1125.9375"/><text fill="#0A9EFD" font-family="Roboto" font-size="14" font-weight="bold" lengthAdjust="spacing" textLength="73" x="246" y="1147.4707">Video SDK</text><rect fill="#FFFFFF" height="31.6094" rx="2.5" ry="2.5" style="stroke:#0A9EFD;stroke-width:2.0;" width="66" x="711.5" y="55"/><text fill="#0A9EFD" font-family="Roboto" font-size="14" font-weight="bold" lengthAdjust="spacing" textLength="52" x="718.5" y="76.5332">SD-RTN</text><rect fill="#FFFFFF" height="31.6094" rx="2.5" ry="2.5" style="stroke:#0A9EFD;stroke-width:2.0;" width="66" x="711.5" y="1125.9375"/><text fill="#0A9EFD" font-family="Roboto" font-size="14" font-weight="bold" lengthAdjust="spacing" textLength="52" x="718.5" y="1147.4707">SD-RTN</text><polygon fill="#0A9EFD" points="270.5,117.2188,280.5,121.2188,270.5,125.2188,274.5,121.2188" style="stroke:#0A9EFD;stroke-width:1.0;"/><line style="stroke:#0A9EFD;stroke-width:2.0;" x1="39.5" x2="276.5" y1="121.2188" y2="121.2188"/><text fill="#0A9EFD" font-family="Roboto" font-size="14" font-weight="bold" lengthAdjust="spacing" textLength="69" x="126.5" y="116.1426">Open App</text><line style="stroke:#0A9EFD;stroke-width:2.0;" x1="282.5" x2="324.5" y1="170.4375" y2="170.4375"/><line style="stroke:#0A9EFD;stroke-width:2.0;" x1="324.5" x2="324.5" y1="170.4375" y2="183.4375"/><line style="stroke:#0A9EFD;stroke-width:2.0;" x1="283.5" x2="324.5" y1="183.4375" y2="183.4375"/><polygon fill="#0A9EFD" points="293.5,179.4375,283.5,183.4375,293.5,187.4375,289.5,183.4375" style="stroke:#0A9EFD;stroke-width:1.0;"/><text fill="#0A9EFD" font-family="Roboto" font-size="14" font-weight="bold" lengthAdjust="spacing" textLength="254" x="297" y="147.752">Initiate the Agora Video SDK engine:</text><text fill="#0A9EFD" font-family="Roboto" font-size="14" font-weight="bold" lengthAdjust="spacing" textLength="269" x="293.5" y="165.3613">agora::rtc::ue::createAgoraRtcEngine()</text><line style="stroke:#0A9EFD;stroke-width:2.0;" x1="282.5" x2="324.5" y1="250.2656" y2="250.2656"/><line style="stroke:#0A9EFD;stroke-width:2.0;" x1="324.5" x2="324.5" y1="250.2656" y2="263.2656"/><line style="stroke:#0A9EFD;stroke-width:2.0;" x1="283.5" x2="324.5" y1="263.2656" y2="263.2656"/><polygon fill="#0A9EFD" points="293.5,259.2656,283.5,263.2656,293.5,267.2656,289.5,263.2656" style="stroke:#0A9EFD;stroke-width:1.0;"/><text fill="#0A9EFD" font-family="Roboto" font-size="14" font-weight="bold" lengthAdjust="spacing" textLength="260" x="289.5" y="209.9707">Enable the audio and video modules:</text><text fill="#0A9EFD" font-family="Roboto" font-size="14" font-weight="bold" lengthAdjust="spacing" textLength="191" x="326" y="227.5801">agoraEngine.enableVideo()</text><text fill="#0A9EFD" font-family="Roboto" font-size="14" font-weight="bold" lengthAdjust="spacing" textLength="191" x="328" y="245.1895">agoraEngine.enableAudio()</text><line style="stroke:#0A9EFD;stroke-width:2.0;" x1="282.5" x2="324.5" y1="330.0938" y2="330.0938"/><line style="stroke:#0A9EFD;stroke-width:2.0;" x1="324.5" x2="324.5" y1="330.0938" y2="343.0938"/><line style="stroke:#0A9EFD;stroke-width:2.0;" x1="283.5" x2="324.5" y1="343.0938" y2="343.0938"/><polygon fill="#0A9EFD" points="293.5,339.0938,283.5,343.0938,293.5,347.0938,289.5,343.0938" style="stroke:#0A9EFD;stroke-width:1.0;"/><text fill="#0A9EFD" font-family="Roboto" font-size="14" font-weight="bold" lengthAdjust="spacing" textLength="164" x="429.5" y="289.7988">Set the channel profile:</text><text fill="#0A9EFD" font-family="Roboto" font-size="14" font-weight="bold" lengthAdjust="spacing" textLength="184" x="421.5" y="307.4082">RtcEngineContext context</text><text fill="#0A9EFD" font-family="Roboto" font-size="14" font-weight="bold" lengthAdjust="spacing" textLength="444" x="293.5" y="325.0176">context.channelProfile = CHANNEL_PROFILE_COMMUNICATION;</text><path d="M10,358.0938 L87,358.0938 L87,367.7031 L77,377.7031 L10,377.7031 L10,358.0938 " fill="#EEEEEE" style="stroke:#0A9EFD;stroke-width:1.5;"/><rect fill="none" height="288.0938" style="stroke:#0A9EFD;stroke-width:2.0;" width="777.5" x="10" y="358.0938"/><text fill="#0A9EFD" font-family="Roboto" font-size="14" font-weight="bold" lengthAdjust="spacing" textLength="32" x="25" y="373.627">Host</text><polygon fill="#0A9EFD" points="270.5,397.3125,280.5,401.3125,270.5,405.3125,274.5,401.3125" style="stroke:#0A9EFD;stroke-width:1.0;"/><line style="stroke:#0A9EFD;stroke-width:2.0;" x1="39.5" x2="276.5" y1="401.3125" y2="401.3125"/><text fill="#0A9EFD" font-family="Roboto" font-size="14" font-weight="bold" lengthAdjust="spacing" textLength="194" x="64" y="396.2363">Start a live streaming event</text><line style="stroke:#0A9EFD;stroke-width:2.0;" x1="282.5" x2="324.5" y1="432.9219" y2="432.9219"/><line style="stroke:#0A9EFD;stroke-width:2.0;" x1="324.5" x2="324.5" y1="432.9219" y2="445.9219"/><line style="stroke:#0A9EFD;stroke-width:2.0;" x1="283.5" x2="324.5" y1="445.9219" y2="445.9219"/><polygon fill="#0A9EFD" points="293.5,441.9219,283.5,445.9219,293.5,449.9219,289.5,445.9219" style="stroke:#0A9EFD;stroke-width:1.0;"/><text fill="#0A9EFD" font-family="Roboto" font-size="14" font-weight="bold" lengthAdjust="spacing" textLength="318" x="289.5" y="427.8457">Retrieve authentication token to join channel</text><polygon fill="#0A9EFD" points="732.5,491.1406,742.5,495.1406,732.5,499.1406,736.5,495.1406" style="stroke:#0A9EFD;stroke-width:1.0;"/><line style="stroke:#0A9EFD;stroke-width:2.0;" x1="282.5" x2="738.5" y1="495.1406" y2="495.1406"/><text fill="#0A9EFD" font-family="Roboto" font-size="14" font-weight="bold" lengthAdjust="spacing" textLength="141" x="443" y="472.4551">Set the role as host:</text><text fill="#0A9EFD" font-family="Roboto" font-size="14" font-weight="bold" lengthAdjust="spacing" textLength="415" x="310" y="490.0645">agoraEngine-&gt;setClientRole(CLIENT_ROLE_BROADCASTER)</text><line style="stroke:#0A9EFD;stroke-width:2.0;" x1="282.5" x2="324.5" y1="544.3594" y2="544.3594"/><line style="stroke:#0A9EFD;stroke-width:2.0;" x1="324.5" x2="324.5" y1="544.3594" y2="557.3594"/><line style="stroke:#0A9EFD;stroke-width:2.0;" x1="283.5" x2="324.5" y1="557.3594" y2="557.3594"/><polygon fill="#0A9EFD" points="293.5,553.3594,283.5,557.3594,293.5,561.3594,289.5,557.3594" style="stroke:#0A9EFD;stroke-width:1.0;"/><text fill="#0A9EFD" font-family="Roboto" font-size="14" font-weight="bold" lengthAdjust="spacing" textLength="126" x="384.5" y="521.6738">Setup local video:</text><text fill="#0A9EFD" font-family="Roboto" font-size="14" font-weight="bold" lengthAdjust="spacing" textLength="312" x="293.5" y="539.2832">agoraEngine.setupLocalVideo(videoCanvas)</text><polygon fill="#0A9EFD" points="732.5,602.5781,742.5,606.5781,732.5,610.5781,736.5,606.5781" style="stroke:#0A9EFD;stroke-width:1.0;"/><line style="stroke:#0A9EFD;stroke-width:2.0;" x1="282.5" x2="738.5" y1="606.5781" y2="606.5781"/><text fill="#0A9EFD" font-family="Roboto" font-size="14" font-weight="bold" lengthAdjust="spacing" textLength="161" x="431" y="583.8926">Join a channel as host:</text><text fill="#0A9EFD" font-family="Roboto" font-size="14" font-weight="bold" lengthAdjust="spacing" textLength="186" x="422.5" y="601.502">agoraEngine-&gt;joinChannel</text><polygon fill="#0A9EFD" points="732.5,634.1875,742.5,638.1875,732.5,642.1875,736.5,638.1875" style="stroke:#0A9EFD;stroke-width:1.0;"/><line style="stroke:#0A9EFD;stroke-width:2.0;" x1="282.5" x2="738.5" y1="638.1875" y2="638.1875"/><text fill="#0A9EFD" font-family="Roboto" font-size="14" font-weight="bold" lengthAdjust="spacing" textLength="122" x="452.5" y="633.1113">Send data stream</text><path d="M10,660.1875 L121,660.1875 L121,669.7969 L111,679.7969 L10,679.7969 L10,660.1875 " fill="#EEEEEE" style="stroke:#0A9EFD;stroke-width:1.5;"/><rect fill="none" height="275.0938" style="stroke:#0A9EFD;stroke-width:2.0;" width="777.5" x="10" y="660.1875"/><text fill="#0A9EFD" font-family="Roboto" font-size="14" font-weight="bold" lengthAdjust="spacing" textLength="66" x="25" y="675.7207">Audience</text><polygon fill="#0A9EFD" points="270.5,699.4063,280.5,703.4063,270.5,707.4063,274.5,703.4063" style="stroke:#0A9EFD;stroke-width:1.0;"/><line style="stroke:#0A9EFD;stroke-width:2.0;" x1="39.5" x2="276.5" y1="703.4063" y2="703.4063"/><text fill="#0A9EFD" font-family="Roboto" font-size="14" font-weight="bold" lengthAdjust="spacing" textLength="191" x="65.5" y="698.3301">Join a live streaming event</text><line style="stroke:#0A9EFD;stroke-width:2.0;" x1="282.5" x2="324.5" y1="735.0156" y2="735.0156"/><line style="stroke:#0A9EFD;stroke-width:2.0;" x1="324.5" x2="324.5" y1="735.0156" y2="748.0156"/><line style="stroke:#0A9EFD;stroke-width:2.0;" x1="283.5" x2="324.5" y1="748.0156" y2="748.0156"/><polygon fill="#0A9EFD" points="293.5,744.0156,283.5,748.0156,293.5,752.0156,289.5,748.0156" style="stroke:#0A9EFD;stroke-width:1.0;"/><text fill="#0A9EFD" font-family="Roboto" font-size="14" font-weight="bold" lengthAdjust="spacing" textLength="318" x="289.5" y="729.9395">Retrieve authentication token to join channel</text><polygon fill="#0A9EFD" points="732.5,793.2344,742.5,797.2344,732.5,801.2344,736.5,797.2344" style="stroke:#0A9EFD;stroke-width:1.0;"/><line style="stroke:#0A9EFD;stroke-width:2.0;" x1="282.5" x2="738.5" y1="797.2344" y2="797.2344"/><text fill="#0A9EFD" font-family="Roboto" font-size="14" font-weight="bold" lengthAdjust="spacing" textLength="211" x="406" y="774.5488">Set the user role as audience:</text><text fill="#0A9EFD" font-family="Roboto" font-size="14" font-weight="bold" lengthAdjust="spacing" textLength="381" x="325" y="792.1582">agoraEngine-&gt;setClientRole(CLIENT_ROLE_AUDIENCE)</text><polygon fill="#0A9EFD" points="732.5,842.4531,742.5,846.4531,732.5,850.4531,736.5,846.4531" style="stroke:#0A9EFD;stroke-width:1.0;"/><line style="stroke:#0A9EFD;stroke-width:2.0;" x1="282.5" x2="738.5" y1="846.4531" y2="846.4531"/><text fill="#0A9EFD" font-family="Roboto" font-size="14" font-weight="bold" lengthAdjust="spacing" textLength="121" x="451" y="823.7676">Join the channel:</text><text fill="#0A9EFD" font-family="Roboto" font-size="14" font-weight="bold" lengthAdjust="spacing" textLength="186" x="422.5" y="841.377">agoraEngine-&gt;joinChannel</text><polygon fill="#0A9EFD" points="732.5,891.6719,742.5,895.6719,732.5,899.6719,736.5,895.6719" style="stroke:#0A9EFD;stroke-width:1.0;"/><line style="stroke:#0A9EFD;stroke-width:2.0;" x1="282.5" x2="738.5" y1="895.6719" y2="895.6719"/><text fill="#0A9EFD" font-family="Roboto" font-size="14" font-weight="bold" lengthAdjust="spacing" textLength="245" x="389" y="872.9863">Retrieve streaming from the hosts:</text><text fill="#0A9EFD" font-family="Roboto" font-size="14" font-weight="bold" lengthAdjust="spacing" textLength="236" x="397.5" y="890.5957">agoraEngine-&gt;setupRemoteVideo</text><polygon fill="#0A9EFD" points="293.5,923.2813,283.5,927.2813,293.5,931.2813,289.5,927.2813" style="stroke:#0A9EFD;stroke-width:1.0;"/><line style="stroke:#0A9EFD;stroke-width:2.0;" x1="287.5" x2="743.5" y1="927.2813" y2="927.2813"/><text fill="#0A9EFD" font-family="Roboto" font-size="14" font-weight="bold" lengthAdjust="spacing" textLength="144" x="441.5" y="922.2051">Receive data stream</text><polygon fill="#0A9EFD" points="270.5,961.8906,280.5,965.8906,270.5,969.8906,274.5,965.8906" style="stroke:#0A9EFD;stroke-width:1.0;"/><line style="stroke:#0A9EFD;stroke-width:2.0;" x1="39.5" x2="276.5" y1="965.8906" y2="965.8906"/><text fill="#0A9EFD" font-family="Roboto" font-size="14" font-weight="bold" lengthAdjust="spacing" textLength="219" x="51.5" y="960.8145">Leave the live streaming event</text><polygon fill="#0A9EFD" points="732.5,1011.1094,742.5,1015.1094,732.5,1019.1094,736.5,1015.1094" style="stroke:#0A9EFD;stroke-width:1.0;"/><line style="stroke:#0A9EFD;stroke-width:2.0;" x1="282.5" x2="738.5" y1="1015.1094" y2="1015.1094"/><text fill="#0A9EFD" font-family="Roboto" font-size="14" font-weight="bold" lengthAdjust="spacing" textLength="134" x="444.5" y="992.4238">Leave the channel:</text><text fill="#0A9EFD" font-family="Roboto" font-size="14" font-weight="bold" lengthAdjust="spacing" textLength="209" x="411" y="1010.0332">agoraEngine-&gt;leaveChannel()</text><polygon fill="#0A9EFD" points="270.5,1042.7188,280.5,1046.7188,270.5,1050.7188,274.5,1046.7188" style="stroke:#0A9EFD;stroke-width:1.0;"/><line style="stroke:#0A9EFD;stroke-width:2.0;" x1="39.5" x2="276.5" y1="1046.7188" y2="1046.7188"/><text fill="#0A9EFD" font-family="Roboto" font-size="14" font-weight="bold" lengthAdjust="spacing" textLength="70" x="126" y="1041.6426">Close app</text><line style="stroke:#0A9EFD;stroke-width:2.0;" x1="282.5" x2="324.5" y1="1095.9375" y2="1095.9375"/><line style="stroke:#0A9EFD;stroke-width:2.0;" x1="324.5" x2="324.5" y1="1095.9375" y2="1108.9375"/><line style="stroke:#0A9EFD;stroke-width:2.0;" x1="283.5" x2="324.5" y1="1108.9375" y2="1108.9375"/><polygon fill="#0A9EFD" points="293.5,1104.9375,283.5,1108.9375,293.5,1112.9375,289.5,1108.9375" style="stroke:#0A9EFD;stroke-width:1.0;"/><text fill="#0A9EFD" font-family="Roboto" font-size="14" font-weight="bold" lengthAdjust="spacing" textLength="175" x="289.5" y="1073.252">Clean up local resources</text><text fill="#0A9EFD" font-family="Roboto" font-size="14" font-weight="bold" lengthAdjust="spacing" textLength="165" x="298.5" y="1090.8613">agoraEngine-&gt;release()</text><!--SRC=[fLHTZvim47pthzZcANb8VW1L8r52TRGvY4XoKgLAaG_s4lU8ZMmJtS_l6WY1V5IL-X82tfcTcRNzISYig784lbUQxyoxa3DH7Gl66C-iqZ3Q6jGZu0QswvInL_K1ev-gqi3BSiHOoRKLcIYvj31w4JagM2z-rFN-QiKOoXm8qm9zr-GQjLvCqqtSGg8UX1h2TEvuF4XAbE2N9QEtxcCaXHNS8jW3GiqDdGH0kHSIFVWb6s-UfstcUHLwNgQHK3KWjLbO5uud0-fGyjUY8UPLBXHmKdMgoOyghmeq5-Q6O8Orf1OmdjnVz1tLLQSrshfDTk1IOW6bLc-YQ8HtwW8bBNvOoDedhRL_PorkrS3W2mHFVXo7ozqgJRv5ot0N9C_FspWA_4sKn9yPssjLbV2aZ1qalBOq5E1GY1E2iHJHKSWzu0cbTOAdyxeiHQi5VQHOIBMaCN8hb0Ihtj7zmcybvDdCnMXqCQeLoQHX7qY1HqRwEKtd1crG229EgMmSBACmtkpIX7nyJHD_4VZhJPZU94Y62fNneXcHTnM-SGLBjzvCfouAk3nnCnb8_EwqysuKPv5NmvpEdSVWhaNQ9Jctl0tGxULpu6xsA3CSXDusV9HvL_V_gLTqZBleUQlbrjdZ-FtjWbw2y4vYlUtxxrbrbYw-txGwrcGkTNDNN5McU5IsEMR45_KYoj35U1D_F-ybybDpglyUUTGlVMYjS2MjDphLWqv1eGowIt8mnu0W4hhTgj7GLPgXkJa66gdIk5k9_G40]--></g></svg>