<svg xmlns="http://www.w3.org/2000/svg" xmlns:xlink="http://www.w3.org/1999/xlink" contentStyleType="text/css" data-diagram-type="SEQUENCE" height="858px" preserveAspectRatio="none" style="width:659px;height:858px;" version="1.1" viewBox="0 0 659 858" width="659px" zoomAndPan="magnify"><?plantuml 1.2026.4?><defs/><g><rect fill="none" height="856.1719" style="stroke:#0A9EFD;stroke-width:1;" width="657.4495" x="0" y="0"/><rect fill="#999999" fill-opacity="0.33333" height="845.1719" style="stroke:#0A9EFD;stroke-width:0.5;" width="90.4824" x="110.4961" y="6"/><text fill="#0A9EFD" font-family="sans-serif" font-size="13" font-weight="700" lengthAdjust="spacing" textLength="56.3354" x="127.5696" y="19.4951">Your app</text><rect fill="#999999" fill-opacity="0.33333" height="845.1719" style="stroke:#0A9EFD;stroke-width:0.5;" width="78.3257" x="559.1238" y="6"/><text fill="#0A9EFD" font-family="sans-serif" font-size="13" font-weight="700" lengthAdjust="spacing" textLength="37.5591" x="579.5071" y="19.4951">Agora</text><rect fill="#0A9EFD" fill-opacity="0.06667" height="187.6924" style="stroke:#0A9EFD;stroke-width:2;" width="633.4495" x="10" y="215.9448"/><rect fill="#0A9EFD" fill-opacity="0.06667" height="174.6924" style="stroke:#0A9EFD;stroke-width:2;" width="633.4495" x="10" y="417.6372"/><g class="participant-lifeline" data-entity-uid="part1" data-qualified-name="USR" data-source-line="5" id="part1-lifeline"><g><title>User</title><rect fill="#000000" fill-opacity="0.00000" height="680.9746" width="8" x="33.7793" y="86.0986"/><line style="stroke:#0A9EFD;stroke-width:0.5;stroke-dasharray:5,5;" x1="37" x2="37" y1="86.0986" y2="767.0732"/></g></g><g class="participant-lifeline" data-entity-uid="part2" data-qualified-name="APP" data-source-line="9" id="part2-lifeline"><g><title>Video SDK</title><rect fill="#000000" fill-opacity="0.00000" height="680.9746" width="8" x="151.7373" y="86.0986"/><line style="stroke:#0A9EFD;stroke-width:0.5;stroke-dasharray:5,5;" x1="155.4961" x2="155.4961" y1="86.0986" y2="767.0732"/></g></g><g class="participant-lifeline" data-entity-uid="part3" data-qualified-name="API" data-source-line="15" id="part3-lifeline"><g><title>SDRTN.sup....sup.</title><rect fill="#000000" fill-opacity="0.00000" height="680.9746" width="8" x="594.2866" y="86.0986"/><line style="stroke:#0A9EFD;stroke-width:0.5;stroke-dasharray:5,5;" x1="598.1238" x2="598.1238" y1="86.0986" y2="767.0732"/></g></g><g class="participant participant-head" data-entity-uid="part1" data-qualified-name="USR" data-source-line="5" id="part1-head"><text fill="#0A9EFD" font-family="Arial" font-size="14" lengthAdjust="spacing" textLength="29.5586" x="20" y="83.1318">User</text><ellipse cx="37.7793" cy="16" fill="none" rx="8" ry="8" style="stroke:#0A9EFD;stroke-width:3;"/><path d="M37.7793,24 L37.7793,51 M24.7793,32 L50.7793,32 M37.7793,51 L24.7793,66 M37.7793,51 L50.7793,66" fill="none" style="stroke:#0A9EFD;stroke-width:3;"/></g><g class="participant participant-tail" data-entity-uid="part1" data-qualified-name="USR" data-source-line="5" id="part1-tail"><text fill="#0A9EFD" font-family="Arial" font-size="14" lengthAdjust="spacing" textLength="29.5586" x="20" y="779.2051">User</text><ellipse cx="37.7793" cy="793.1719" fill="none" rx="8" ry="8" style="stroke:#0A9EFD;stroke-width:3;"/><path d="M37.7793,801.1719 L37.7793,828.1719 M24.7793,809.1719 L50.7793,809.1719 M37.7793,828.1719 L24.7793,843.1719 M37.7793,828.1719 L50.7793,843.1719" fill="none" style="stroke:#0A9EFD;stroke-width:3;"/></g><g class="participant participant-head" data-entity-uid="part2" data-qualified-name="APP" data-source-line="9" id="part2-head"><rect fill="none" height="30.0986" rx="2.5" ry="2.5" style="stroke:#0A9EFD;stroke-width:2;" width="82.4824" x="114.4961" y="55"/><text fill="#0A9EFD" font-family="Arial" font-size="14" lengthAdjust="spacing" textLength="68.4824" x="121.4961" y="75.1318">Video SDK</text></g><g class="participant participant-tail" data-entity-uid="part2" data-qualified-name="APP" data-source-line="9" id="part2-tail"><rect fill="none" height="30.0986" rx="2.5" ry="2.5" style="stroke:#0A9EFD;stroke-width:2;" width="82.4824" x="114.4961" y="766.0732"/><text fill="#0A9EFD" font-family="Arial" font-size="14" lengthAdjust="spacing" textLength="68.4824" x="121.4961" y="786.2051">Video SDK</text></g><g class="participant participant-head" data-entity-uid="part3" data-qualified-name="API" data-source-line="15" id="part3-head"><rect fill="none" height="32.6489" rx="2.5" ry="2.5" style="stroke:#0A9EFD;stroke-width:2;" width="70.3257" x="563.1238" y="52.4497"/><text fill="#0A9EFD" font-family="Arial" font-size="14" lengthAdjust="spacing" textLength="48.2207" x="570.1238" y="75.1318">SDRTN</text><text fill="#0A9EFD" font-family="Arial" font-size="11" lengthAdjust="spacing" textLength="8.105" x="618.3445" y="69.7676">&#174;</text></g><g class="participant participant-tail" data-entity-uid="part3" data-qualified-name="API" data-source-line="15" id="part3-tail"><rect fill="none" height="32.6489" rx="2.5" ry="2.5" style="stroke:#0A9EFD;stroke-width:2;" width="70.3257" x="563.1238" y="766.0732"/><text fill="#0A9EFD" font-family="Arial" font-size="14" lengthAdjust="spacing" textLength="48.2207" x="570.1238" y="788.7554">SDRTN</text><text fill="#0A9EFD" font-family="Arial" font-size="11" lengthAdjust="spacing" textLength="8.105" x="618.3445" y="783.3911">&#174;</text></g><g class="message" data-entity-1="part1" data-entity-2="part2" data-source-line="19" id="msg1"><polygon fill="#0A9EFD" points="143.7373,113.0474,153.7373,117.0474,143.7373,121.0474,147.7373,117.0474" style="stroke:#0A9EFD;stroke-width:1;stroke-linejoin:miter;stroke-miterlimit:10;"/><line style="stroke:#0A9EFD;stroke-width:2;" x1="37.7793" x2="149.7373" y1="117.0474" y2="117.0474"/><text fill="#0A9EFD" font-family="Arial" font-size="13" lengthAdjust="spacing" textLength="57.1035" x="68.2065" y="112.2925">Open app</text></g><g class="message" data-entity-1="part2" data-entity-2="part2" data-source-line="20" id="msg2"><line style="stroke:#0A9EFD;stroke-width:2;" x1="155.7373" x2="197.7373" y1="145.9961" y2="145.9961"/><line style="stroke:#0A9EFD;stroke-width:2;" x1="197.7373" x2="197.7373" y1="145.9961" y2="158.9961"/><line style="stroke:#0A9EFD;stroke-width:2;" x1="156.7373" x2="197.7373" y1="158.9961" y2="158.9961"/><polygon fill="#0A9EFD" points="166.7373,154.9961,156.7373,158.9961,166.7373,162.9961,162.7373,158.9961" style="stroke:#0A9EFD;stroke-width:1;stroke-linejoin:miter;stroke-miterlimit:10;"/><text fill="#0A9EFD" font-family="Arial" font-size="13" lengthAdjust="spacing" textLength="173.4497" x="162.7373" y="141.2412">Initiate the Video SDK engine.</text></g><g class="message" data-entity-1="part2" data-entity-2="part2" data-source-line="21" id="msg3"><line style="stroke:#0A9EFD;stroke-width:2;" x1="155.7373" x2="197.7373" y1="187.9448" y2="187.9448"/><line style="stroke:#0A9EFD;stroke-width:2;" x1="197.7373" x2="197.7373" y1="187.9448" y2="200.9448"/><line style="stroke:#0A9EFD;stroke-width:2;" x1="156.7373" x2="197.7373" y1="200.9448" y2="200.9448"/><polygon fill="#0A9EFD" points="166.7373,196.9448,156.7373,200.9448,166.7373,204.9448,162.7373,200.9448" style="stroke:#0A9EFD;stroke-width:1;stroke-linejoin:miter;stroke-miterlimit:10;"/><text fill="#0A9EFD" font-family="Arial" font-size="13" lengthAdjust="spacing" textLength="143.8188" x="162.7373" y="183.1899">Start video in the engine.</text></g><path d="M10,215.9448 L81.73,215.9448 L81.73,222.8936 L71.73,232.8936 L10,232.8936 L10,215.9448" fill="#EEEEEE" style="stroke:#0A9EFD;stroke-width:1.5;"/><rect fill="none" height="187.6924" style="stroke:#0A9EFD;stroke-width:2;" width="633.4495" x="10" y="215.9448"/><text fill="#000000" font-family="Arial" font-size="13" lengthAdjust="spacing" textLength="26.73" x="25" y="229.1387">Host</text><g class="message" data-entity-1="part1" data-entity-2="part2" data-source-line="24" id="msg4"><polygon fill="#0A9EFD" points="143.7373,249.8423,153.7373,253.8423,143.7373,257.8423,147.7373,253.8423" style="stroke:#0A9EFD;stroke-width:1;stroke-linejoin:miter;stroke-miterlimit:10;"/><line style="stroke:#0A9EFD;stroke-width:2;" x1="37.7793" x2="149.7373" y1="253.8423" y2="253.8423"/><text fill="#0A9EFD" font-family="Arial" font-size="13" lengthAdjust="spacing" textLength="85.9917" x="53.7625" y="249.0874">Start ILS event</text></g><g class="message" data-entity-1="part2" data-entity-2="part2" data-source-line="25" id="msg5"><line style="stroke:#0A9EFD;stroke-width:2;" x1="155.7373" x2="197.7373" y1="282.791" y2="282.791"/><line style="stroke:#0A9EFD;stroke-width:2;" x1="197.7373" x2="197.7373" y1="282.791" y2="295.791"/><line style="stroke:#0A9EFD;stroke-width:2;" x1="156.7373" x2="197.7373" y1="295.791" y2="295.791"/><polygon fill="#0A9EFD" points="166.7373,291.791,156.7373,295.791,166.7373,299.791,162.7373,295.791" style="stroke:#0A9EFD;stroke-width:1;stroke-linejoin:miter;stroke-miterlimit:10;"/><text fill="#0A9EFD" font-family="Arial" font-size="13" lengthAdjust="spacing" textLength="324.4922" x="162.7373" y="278.0361">In an ILS event, only the hosts broadcast to the channel.</text></g><g class="message" data-entity-1="part2" data-entity-2="part2" data-source-line="26" id="msg6"><line style="stroke:#0A9EFD;stroke-width:2;" x1="155.7373" x2="197.7373" y1="324.7397" y2="324.7397"/><line style="stroke:#0A9EFD;stroke-width:2;" x1="197.7373" x2="197.7373" y1="324.7397" y2="337.7397"/><line style="stroke:#0A9EFD;stroke-width:2;" x1="156.7373" x2="197.7373" y1="337.7397" y2="337.7397"/><polygon fill="#0A9EFD" points="166.7373,333.7397,156.7373,337.7397,166.7373,341.7397,162.7373,337.7397" style="stroke:#0A9EFD;stroke-width:1;stroke-linejoin:miter;stroke-miterlimit:10;"/><text fill="#0A9EFD" font-family="Arial" font-size="13" lengthAdjust="spacing" textLength="96.1035" x="162.7373" y="319.9849">Start local video.</text></g><g class="message" data-entity-1="part2" data-entity-2="part3" data-source-line="27" id="msg7"><polygon fill="#0A9EFD" points="586.2866,362.6885,596.2866,366.6885,586.2866,370.6885,590.2866,366.6885" style="stroke:#0A9EFD;stroke-width:1;stroke-linejoin:miter;stroke-miterlimit:10;"/><line style="stroke:#0A9EFD;stroke-width:2;" x1="155.7373" x2="592.2866" y1="366.6885" y2="366.6885"/><text fill="#0A9EFD" font-family="Arial" font-size="13" lengthAdjust="spacing" textLength="98.2935" x="327.8652" y="361.9336">Join the channel.</text></g><g class="message" data-entity-1="part2" data-entity-2="part3" data-source-line="28" id="msg8"><polygon fill="#0A9EFD" points="586.2866,391.6372,596.2866,395.6372,586.2866,399.6372,590.2866,395.6372" style="stroke:#0A9EFD;stroke-width:1;stroke-linejoin:miter;stroke-miterlimit:10;"/><line style="stroke:#0A9EFD;stroke-width:2;" x1="155.7373" x2="592.2866" y1="395.6372" y2="395.6372"/><text fill="#0A9EFD" font-family="Arial" font-size="13" lengthAdjust="spacing" textLength="106.228" x="323.8979" y="390.8823">Send data stream.</text></g><path d="M10,417.6372 L109.209,417.6372 L109.209,424.5859 L99.209,434.5859 L10,434.5859 L10,417.6372" fill="#EEEEEE" style="stroke:#0A9EFD;stroke-width:1.5;"/><rect fill="none" height="174.6924" style="stroke:#0A9EFD;stroke-width:2;" width="633.4495" x="10" y="417.6372"/><text fill="#000000" font-family="Arial" font-size="13" lengthAdjust="spacing" textLength="54.209" x="25" y="430.8311">Audience</text><g class="message" data-entity-1="part1" data-entity-2="part2" data-source-line="32" id="msg9"><polygon fill="#0A9EFD" points="143.7373,451.5347,153.7373,455.5347,143.7373,459.5347,147.7373,455.5347" style="stroke:#0A9EFD;stroke-width:1;stroke-linejoin:miter;stroke-miterlimit:10;"/><line style="stroke:#0A9EFD;stroke-width:2;" x1="37.7793" x2="149.7373" y1="455.5347" y2="455.5347"/><text fill="#0A9EFD" font-family="Arial" font-size="13" lengthAdjust="spacing" textLength="82.3862" x="55.5652" y="450.7798">Join ILS event</text></g><g class="message" data-entity-1="part2" data-entity-2="part2" data-source-line="33" id="msg10"><line style="stroke:#0A9EFD;stroke-width:2;" x1="155.7373" x2="197.7373" y1="484.4834" y2="484.4834"/><line style="stroke:#0A9EFD;stroke-width:2;" x1="197.7373" x2="197.7373" y1="484.4834" y2="497.4834"/><line style="stroke:#0A9EFD;stroke-width:2;" x1="156.7373" x2="197.7373" y1="497.4834" y2="497.4834"/><polygon fill="#0A9EFD" points="166.7373,493.4834,156.7373,497.4834,166.7373,501.4834,162.7373,497.4834" style="stroke:#0A9EFD;stroke-width:1;stroke-linejoin:miter;stroke-miterlimit:10;"/><text fill="#0A9EFD" font-family="Arial" font-size="13" lengthAdjust="spacing" textLength="428.5493" x="162.7373" y="479.7285">In an ILS event, the audience views the broadcast made by channel hosts.</text></g><g class="message" data-entity-1="part2" data-entity-2="part3" data-source-line="34" id="msg11"><polygon fill="#0A9EFD" points="586.2866,522.4321,596.2866,526.4321,586.2866,530.4321,590.2866,526.4321" style="stroke:#0A9EFD;stroke-width:1;stroke-linejoin:miter;stroke-miterlimit:10;"/><line style="stroke:#0A9EFD;stroke-width:2;" x1="155.7373" x2="592.2866" y1="526.4321" y2="526.4321"/><text fill="#0A9EFD" font-family="Arial" font-size="13" lengthAdjust="spacing" textLength="98.2935" x="327.8652" y="521.6772">Join the channel.</text></g><g class="message" data-entity-1="part2" data-entity-2="part3" data-source-line="35" id="msg12"><polygon fill="#0A9EFD" points="586.2866,551.3809,596.2866,555.3809,586.2866,559.3809,590.2866,555.3809" style="stroke:#0A9EFD;stroke-width:1;stroke-linejoin:miter;stroke-miterlimit:10;"/><line style="stroke:#0A9EFD;stroke-width:2;" x1="155.7373" x2="592.2866" y1="555.3809" y2="555.3809"/><text fill="#0A9EFD" font-family="Arial" font-size="13" lengthAdjust="spacing" textLength="226.1479" x="263.938" y="550.626">Retrieve streaming from the other user.</text></g><g class="message" data-entity-1="part3" data-entity-2="part2" data-source-line="36" id="msg13"><polygon fill="#0A9EFD" points="166.7373,580.3296,156.7373,584.3296,166.7373,588.3296,162.7373,584.3296" style="stroke:#0A9EFD;stroke-width:1;stroke-linejoin:miter;stroke-miterlimit:10;"/><polygon fill="#0A9EFD" points="586.2866,580.3296,596.2866,584.3296,586.2866,588.3296,590.2866,584.3296" style="stroke:#0A9EFD;stroke-width:1;stroke-linejoin:miter;stroke-miterlimit:10;"/><line style="stroke:#0A9EFD;stroke-width:2;" x1="160.7373" x2="592.2866" y1="584.3296" y2="584.3296"/><text fill="#0A9EFD" font-family="Arial" font-size="13" lengthAdjust="spacing" textLength="125.7217" x="314.1511" y="579.5747">Receive data streams</text></g><g class="message" data-entity-1="part1" data-entity-2="part2" data-source-line="40" id="msg14"><polygon fill="#0A9EFD" points="143.7373,616.2783,153.7373,620.2783,143.7373,624.2783,147.7373,620.2783" style="stroke:#0A9EFD;stroke-width:1;stroke-linejoin:miter;stroke-miterlimit:10;"/><line style="stroke:#0A9EFD;stroke-width:2;" x1="37.7793" x2="149.7373" y1="620.2783" y2="620.2783"/><text fill="#0A9EFD" font-family="Arial" font-size="13" lengthAdjust="spacing" textLength="93.958" x="49.7793" y="615.5234">Leave ILS event</text></g><g class="message" data-entity-1="part2" data-entity-2="part3" data-source-line="41" id="msg15"><polygon fill="#0A9EFD" points="586.2866,645.2271,596.2866,649.2271,586.2866,653.2271,590.2866,649.2271" style="stroke:#0A9EFD;stroke-width:1;stroke-linejoin:miter;stroke-miterlimit:10;"/><line style="stroke:#0A9EFD;stroke-width:2;" x1="155.7373" x2="592.2866" y1="649.2271" y2="649.2271"/><text fill="#0A9EFD" font-family="Arial" font-size="13" lengthAdjust="spacing" textLength="95.3926" x="329.3157" y="644.4722">Stop local video.</text></g><g class="message" data-entity-1="part2" data-entity-2="part3" data-source-line="42" id="msg16"><polygon fill="#0A9EFD" points="586.2866,674.1758,596.2866,678.1758,586.2866,682.1758,590.2866,678.1758" style="stroke:#0A9EFD;stroke-width:1;stroke-linejoin:miter;stroke-miterlimit:10;"/><line style="stroke:#0A9EFD;stroke-width:2;" x1="155.7373" x2="592.2866" y1="678.1758" y2="678.1758"/><text fill="#0A9EFD" font-family="Arial" font-size="13" lengthAdjust="spacing" textLength="109.8652" x="322.0793" y="673.4209">Leave the channel.</text></g><g class="message" data-entity-1="part1" data-entity-2="part2" data-source-line="44" id="msg17"><polygon fill="#0A9EFD" points="143.7373,703.1245,153.7373,707.1245,143.7373,711.1245,147.7373,707.1245" style="stroke:#0A9EFD;stroke-width:1;stroke-linejoin:miter;stroke-miterlimit:10;"/><line style="stroke:#0A9EFD;stroke-width:2;" x1="37.7793" x2="149.7373" y1="707.1245" y2="707.1245"/><text fill="#0A9EFD" font-family="Arial" font-size="13" lengthAdjust="spacing" textLength="58.5381" x="67.4893" y="702.3696">Close app</text></g><g class="message" data-entity-1="part2" data-entity-2="part2" data-source-line="45" id="msg18"><line style="stroke:#0A9EFD;stroke-width:2;" x1="155.7373" x2="197.7373" y1="736.0732" y2="736.0732"/><line style="stroke:#0A9EFD;stroke-width:2;" x1="197.7373" x2="197.7373" y1="736.0732" y2="749.0732"/><line style="stroke:#0A9EFD;stroke-width:2;" x1="156.7373" x2="197.7373" y1="749.0732" y2="749.0732"/><polygon fill="#0A9EFD" points="166.7373,745.0732,156.7373,749.0732,166.7373,753.0732,162.7373,749.0732" style="stroke:#0A9EFD;stroke-width:1;stroke-linejoin:miter;stroke-miterlimit:10;"/><text fill="#0A9EFD" font-family="Arial" font-size="13" lengthAdjust="spacing" textLength="146.688" x="162.7373" y="731.3184">Clean up local resources.</text></g><?plantuml-src bLFDJiCm3BxdAKpFCExJD6dQ3XGcc5g6n0bvgUaYqgHAqi5UYeVWoKZwCzfjI71fLTlVd-LU2CLbbH5WhWs-s3UXHg8g96F8dJOGhIsP2D32EaqOs-WFY9vrPG3BCcAiHEC45oKg1z6Jo4X3khYhvsUh5MEaCl2O5ZWB6iUeT94ytaziLKw_FYVNuTt2unxSYyFLD72EuQ4a5UIP_peKOoMSG4VWjWG78q0g5uf6Wz7KUNdOrJD2rO1kZEL6LoNSQEi6aWqaNgP0ErBkI1bG_VGkGIkvhrctdiR2ncZCE5e7JjTblaMbI9up9JL7sLZhjUCntEhMwIdOTzEmfmmTWdM6i1Y5nNLXPbKcI74Q1Ahv_fWdo69BuhtHkwrBFxaAzFUpsNVUcjp_yP-GCyAhjVQ5ok7LwA86QFymKFah39WO9ftFX3W9Z-dbjgm9ta-w9FH3PwA6lJbT_hxp1ZamFM2UIstfv13dalpwgexNaFL_2oU_Zsy0?></g></svg>