<?xml version="1.0" encoding="us-ascii" standalone="no"?><svg xmlns="http://www.w3.org/2000/svg" xmlns:xlink="http://www.w3.org/1999/xlink" contentStyleType="text/css" height="1149px" preserveAspectRatio="none" style="width:752px;height:1149px;" version="1.1" viewBox="0 0 752 1149" width="752px" zoomAndPan="magnify"><defs/><g><rect fill="none" height="1147.4028" style="stroke:#0A9EFD;stroke-width:1.0;" width="750.5" x="0" y="0"/><rect fill="#999999" fill-opacity="0.33333" height="1137.4028" style="stroke:#0A9EFD;stroke-width:0.5;" width="90" x="188.5" y="6"/><text fill="#0A9EFD" font-family="sans-serif" font-size="13" font-weight="bold" lengthAdjust="spacing" textLength="57" x="205" y="19.4951">Your app</text><rect fill="#999999" fill-opacity="0.33333" height="1137.4028" style="stroke:#0A9EFD;stroke-width:0.5;" width="74" x="666.5" y="6"/><text fill="#0A9EFD" font-family="sans-serif" font-size="13" font-weight="bold" lengthAdjust="spacing" textLength="38" x="684.5" y="19.4951">Agora</text><rect fill="#0A9EFD" fill-opacity="0.06667" height="318.3848" style="stroke:#0A9EFD;stroke-width:2.0;" width="736.5" x="10" y="302.7397"/><rect fill="#0A9EFD" fill-opacity="0.06667" height="248.4873" style="stroke:#0A9EFD;stroke-width:2.0;" width="736.5" x="10" y="635.1245"/><line style="stroke:#0A9EFD;stroke-width:0.5;stroke-dasharray:5.0,5.0;" x1="37" x2="37" y1="86.0986" y2="1059.3042"/><line style="stroke:#0A9EFD;stroke-width:0.5;stroke-dasharray:5.0,5.0;" x1="233.5" x2="233.5" y1="86.0986" y2="1059.3042"/><line style="stroke:#0A9EFD;stroke-width:0.5;stroke-dasharray:5.0,5.0;" x1="703.5" x2="703.5" y1="86.0986" y2="1059.3042"/><text fill="#0A9EFD" font-family="Arial" font-size="14" lengthAdjust="spacing" textLength="29" x="20" y="83.1318">User</text><ellipse cx="37.5" cy="16" fill="none" rx="8" ry="8" style="stroke:#0A9EFD;stroke-width:3.0;"/><path d="M37.5,24 L37.5,51 M24.5,32 L50.5,32 M37.5,51 L24.5,66 M37.5,51 L50.5,66 " fill="none" style="stroke:#0A9EFD;stroke-width:3.0;"/><text fill="#0A9EFD" font-family="Arial" font-size="14" lengthAdjust="spacing" textLength="29" x="20" y="1071.436">User</text><ellipse cx="37.5" cy="1085.4028" fill="none" rx="8" ry="8" style="stroke:#0A9EFD;stroke-width:3.0;"/><path d="M37.5,1093.4028 L37.5,1120.4028 M24.5,1101.4028 L50.5,1101.4028 M37.5,1120.4028 L24.5,1135.4028 M37.5,1120.4028 L50.5,1135.4028 " fill="none" style="stroke:#0A9EFD;stroke-width:3.0;"/><rect fill="none" height="30.0986" rx="2.5" ry="2.5" style="stroke:#0A9EFD;stroke-width:2.0;" width="82" x="192.5" y="55"/><text fill="#0A9EFD" font-family="Arial" font-size="14" lengthAdjust="spacing" textLength="68" x="199.5" y="75.1318">Video SDK</text><rect fill="none" height="30.0986" rx="2.5" ry="2.5" style="stroke:#0A9EFD;stroke-width:2.0;" width="82" x="192.5" y="1058.3042"/><text fill="#0A9EFD" font-family="Arial" font-size="14" lengthAdjust="spacing" textLength="68" x="199.5" y="1078.436">Video SDK</text><rect fill="none" height="30.0986" rx="2.5" ry="2.5" style="stroke:#0A9EFD;stroke-width:2.0;" width="66" x="670.5" y="55"/><text fill="#0A9EFD" font-family="Arial" font-size="14" lengthAdjust="spacing" textLength="52" x="677.5" y="75.1318">SD-RTN</text><rect fill="none" height="30.0986" rx="2.5" ry="2.5" style="stroke:#0A9EFD;stroke-width:2.0;" width="66" x="670.5" y="1058.3042"/><text fill="#0A9EFD" font-family="Arial" font-size="14" lengthAdjust="spacing" textLength="52" x="677.5" y="1078.436">SD-RTN</text><polygon fill="#0A9EFD" points="221.5,113.0474,231.5,117.0474,221.5,121.0474,225.5,117.0474" style="stroke:#0A9EFD;stroke-width:1.0;"/><line style="stroke:#0A9EFD;stroke-width:2.0;" x1="37.5" x2="227.5" y1="117.0474" y2="117.0474"/><text fill="#0A9EFD" font-family="Arial" font-size="13" lengthAdjust="spacing" textLength="58" x="106.5" y="112.2925">Open App</text><line style="stroke:#0A9EFD;stroke-width:2.0;" x1="233.5" x2="275.5" y1="160.9448" y2="160.9448"/><line style="stroke:#0A9EFD;stroke-width:2.0;" x1="275.5" x2="275.5" y1="160.9448" y2="173.9448"/><line style="stroke:#0A9EFD;stroke-width:2.0;" x1="234.5" x2="275.5" y1="173.9448" y2="173.9448"/><polygon fill="#0A9EFD" points="244.5,169.9448,234.5,173.9448,244.5,177.9448,240.5,173.9448" style="stroke:#0A9EFD;stroke-width:1.0;"/><text fill="#0A9EFD" font-family="Arial" font-size="13" lengthAdjust="spacing" textLength="212" x="240.5" y="141.2412">Initiate the Agora Video SDK engine:</text><text fill="#0A9EFD" font-family="Arial" font-size="13" lengthAdjust="spacing" textLength="188" x="256.5" y="156.1899">agoraEngine = RtcEngine.create</text><line style="stroke:#0A9EFD;stroke-width:2.0;" x1="233.5" x2="275.5" y1="217.8423" y2="217.8423"/><line style="stroke:#0A9EFD;stroke-width:2.0;" x1="275.5" x2="275.5" y1="217.8423" y2="230.8423"/><line style="stroke:#0A9EFD;stroke-width:2.0;" x1="234.5" x2="275.5" y1="230.8423" y2="230.8423"/><polygon fill="#0A9EFD" points="244.5,226.8423,234.5,230.8423,244.5,234.8423,240.5,230.8423" style="stroke:#0A9EFD;stroke-width:1.0;"/><text fill="#0A9EFD" font-family="Arial" font-size="13" lengthAdjust="spacing" textLength="145" x="245.5" y="198.1387">Enable the video module:</text><text fill="#0A9EFD" font-family="Arial" font-size="13" lengthAdjust="spacing" textLength="155" x="244.5" y="213.0874">agoraEngine.enableVideo()</text><line style="stroke:#0A9EFD;stroke-width:2.0;" x1="233.5" x2="275.5" y1="274.7397" y2="274.7397"/><line style="stroke:#0A9EFD;stroke-width:2.0;" x1="275.5" x2="275.5" y1="274.7397" y2="287.7397"/><line style="stroke:#0A9EFD;stroke-width:2.0;" x1="234.5" x2="275.5" y1="287.7397" y2="287.7397"/><polygon fill="#0A9EFD" points="244.5,283.7397,234.5,287.7397,244.5,291.7397,240.5,287.7397" style="stroke:#0A9EFD;stroke-width:1.0;"/><text fill="#0A9EFD" font-family="Arial" font-size="13" lengthAdjust="spacing" textLength="133" x="400" y="255.0361">Set the channel profile:</text><text fill="#0A9EFD" font-family="Arial" font-size="13" lengthAdjust="spacing" textLength="452" x="244.5" y="269.9849">agoraEngine.setChannelProfile(CHANNEL_PROFILE_LIVE_BROADCASTING)</text><path d="M10,302.7397 L82,302.7397 L82,309.6885 L72,319.6885 L10,319.6885 L10,302.7397 " fill="#EEEEEE" style="stroke:#0A9EFD;stroke-width:1.5;"/><rect fill="none" height="318.3848" style="stroke:#0A9EFD;stroke-width:2.0;" width="736.5" x="10" y="302.7397"/><text fill="#000000" font-family="Arial" font-size="13" lengthAdjust="spacing" textLength="27" x="25" y="315.9336">Host</text><polygon fill="#0A9EFD" points="221.5,336.6372,231.5,340.6372,221.5,344.6372,225.5,340.6372" style="stroke:#0A9EFD;stroke-width:1.0;"/><line style="stroke:#0A9EFD;stroke-width:2.0;" x1="37.5" x2="227.5" y1="340.6372" y2="340.6372"/><text fill="#0A9EFD" font-family="Arial" font-size="13" lengthAdjust="spacing" textLength="156" x="57.5" y="335.8823">Start a live streaming event</text><line style="stroke:#0A9EFD;stroke-width:2.0;" x1="233.5" x2="275.5" y1="369.5859" y2="369.5859"/><line style="stroke:#0A9EFD;stroke-width:2.0;" x1="275.5" x2="275.5" y1="369.5859" y2="382.5859"/><line style="stroke:#0A9EFD;stroke-width:2.0;" x1="234.5" x2="275.5" y1="382.5859" y2="382.5859"/><polygon fill="#0A9EFD" points="244.5,378.5859,234.5,382.5859,244.5,386.5859,240.5,382.5859" style="stroke:#0A9EFD;stroke-width:1.0;"/><text fill="#0A9EFD" font-family="Arial" font-size="13" lengthAdjust="spacing" textLength="255" x="240.5" y="364.8311">Retrieve authentication token to join channel</text><polygon fill="#0A9EFD" points="691.5,422.4834,701.5,426.4834,691.5,430.4834,695.5,426.4834" style="stroke:#0A9EFD;stroke-width:1.0;"/><line style="stroke:#0A9EFD;stroke-width:2.0;" x1="233.5" x2="697.5" y1="426.4834" y2="426.4834"/><text fill="#0A9EFD" font-family="Arial" font-size="13" lengthAdjust="spacing" textLength="118" x="409.5" y="406.7798">Set the role as host:</text><text fill="#0A9EFD" font-family="Arial" font-size="13" lengthAdjust="spacing" textLength="415" x="265" y="421.7285">agoraEngine.setClientRole(Constants.CLIENT_ROLE_BROADCASTER)</text><line style="stroke:#0A9EFD;stroke-width:2.0;" x1="233.5" x2="275.5" y1="470.3809" y2="470.3809"/><line style="stroke:#0A9EFD;stroke-width:2.0;" x1="275.5" x2="275.5" y1="470.3809" y2="483.3809"/><line style="stroke:#0A9EFD;stroke-width:2.0;" x1="234.5" x2="275.5" y1="483.3809" y2="483.3809"/><polygon fill="#0A9EFD" points="244.5,479.3809,234.5,483.3809,244.5,487.3809,240.5,483.3809" style="stroke:#0A9EFD;stroke-width:1.0;"/><text fill="#0A9EFD" font-family="Arial" font-size="13" lengthAdjust="spacing" textLength="102" x="319" y="450.6772">Setup local video:</text><text fill="#0A9EFD" font-family="Arial" font-size="13" lengthAdjust="spacing" textLength="255" x="244.5" y="465.626">agoraEngine.setupLocalVideo(VideoCanvas)</text><line style="stroke:#0A9EFD;stroke-width:2.0;" x1="233.5" x2="275.5" y1="527.2783" y2="527.2783"/><line style="stroke:#0A9EFD;stroke-width:2.0;" x1="275.5" x2="275.5" y1="527.2783" y2="540.2783"/><line style="stroke:#0A9EFD;stroke-width:2.0;" x1="234.5" x2="275.5" y1="540.2783" y2="540.2783"/><polygon fill="#0A9EFD" points="244.5,536.2783,234.5,540.2783,244.5,544.2783,240.5,540.2783" style="stroke:#0A9EFD;stroke-width:1.0;"/><text fill="#0A9EFD" font-family="Arial" font-size="13" lengthAdjust="spacing" textLength="109" x="265" y="507.5747">Start local preview:</text><text fill="#0A9EFD" font-family="Arial" font-size="13" lengthAdjust="spacing" textLength="154" x="244.5" y="522.5234">agoraEngine.startPreview()</text><polygon fill="#0A9EFD" points="691.5,580.1758,701.5,584.1758,691.5,588.1758,695.5,584.1758" style="stroke:#0A9EFD;stroke-width:1.0;"/><line style="stroke:#0A9EFD;stroke-width:2.0;" x1="233.5" x2="697.5" y1="584.1758" y2="584.1758"/><text fill="#0A9EFD" font-family="Arial" font-size="13" lengthAdjust="spacing" textLength="134" x="399.5" y="564.4722">Join a channel as host:</text><text fill="#0A9EFD" font-family="Arial" font-size="13" lengthAdjust="spacing" textLength="143" x="399" y="579.4209">agoraEngine.joinChannel</text><polygon fill="#0A9EFD" points="691.5,609.1245,701.5,613.1245,691.5,617.1245,695.5,613.1245" style="stroke:#0A9EFD;stroke-width:1.0;"/><line style="stroke:#0A9EFD;stroke-width:2.0;" x1="233.5" x2="697.5" y1="613.1245" y2="613.1245"/><text fill="#0A9EFD" font-family="Arial" font-size="13" lengthAdjust="spacing" textLength="103" x="417" y="608.3696">Send data stream</text><path d="M10,635.1245 L109,635.1245 L109,642.0732 L99,652.0732 L10,652.0732 L10,635.1245 " fill="#EEEEEE" style="stroke:#0A9EFD;stroke-width:1.5;"/><rect fill="none" height="248.4873" style="stroke:#0A9EFD;stroke-width:2.0;" width="736.5" x="10" y="635.1245"/><text fill="#000000" font-family="Arial" font-size="13" lengthAdjust="spacing" textLength="54" x="25" y="648.3184">Audience</text><polygon fill="#0A9EFD" points="221.5,669.022,231.5,673.022,221.5,677.022,225.5,673.022" style="stroke:#0A9EFD;stroke-width:1.0;"/><line style="stroke:#0A9EFD;stroke-width:2.0;" x1="37.5" x2="227.5" y1="673.022" y2="673.022"/><text fill="#0A9EFD" font-family="Arial" font-size="13" lengthAdjust="spacing" textLength="151" x="60" y="668.2671">Join a live streaming event</text><line style="stroke:#0A9EFD;stroke-width:2.0;" x1="233.5" x2="275.5" y1="701.9707" y2="701.9707"/><line style="stroke:#0A9EFD;stroke-width:2.0;" x1="275.5" x2="275.5" y1="701.9707" y2="714.9707"/><line style="stroke:#0A9EFD;stroke-width:2.0;" x1="234.5" x2="275.5" y1="714.9707" y2="714.9707"/><polygon fill="#0A9EFD" points="244.5,710.9707,234.5,714.9707,244.5,718.9707,240.5,714.9707" style="stroke:#0A9EFD;stroke-width:1.0;"/><text fill="#0A9EFD" font-family="Arial" font-size="13" lengthAdjust="spacing" textLength="255" x="240.5" y="697.2158">Retrieve authentication token to join channel</text><polygon fill="#0A9EFD" points="691.5,754.8682,701.5,758.8682,691.5,762.8682,695.5,758.8682" style="stroke:#0A9EFD;stroke-width:1.0;"/><line style="stroke:#0A9EFD;stroke-width:2.0;" x1="233.5" x2="697.5" y1="758.8682" y2="758.8682"/><text fill="#0A9EFD" font-family="Arial" font-size="13" lengthAdjust="spacing" textLength="174" x="379.5" y="739.1646">Set the user role as audience:</text><text fill="#0A9EFD" font-family="Arial" font-size="13" lengthAdjust="spacing" textLength="320" x="310.5" y="754.1133">agoraEngine.setClientRole(CLIENT_ROLE_AUDIENCE)</text><polygon fill="#0A9EFD" points="691.5,798.7656,701.5,802.7656,691.5,806.7656,695.5,802.7656" style="stroke:#0A9EFD;stroke-width:1.0;"/><line style="stroke:#0A9EFD;stroke-width:2.0;" x1="233.5" x2="697.5" y1="802.7656" y2="802.7656"/><text fill="#0A9EFD" font-family="Arial" font-size="13" lengthAdjust="spacing" textLength="98" x="417.5" y="783.062">Join the channel:</text><text fill="#0A9EFD" font-family="Arial" font-size="13" lengthAdjust="spacing" textLength="143" x="399" y="798.0107">agoraEngine.joinChannel</text><polygon fill="#0A9EFD" points="691.5,842.6631,701.5,846.6631,691.5,850.6631,695.5,846.6631" style="stroke:#0A9EFD;stroke-width:1.0;"/><line style="stroke:#0A9EFD;stroke-width:2.0;" x1="233.5" x2="697.5" y1="846.6631" y2="846.6631"/><text fill="#0A9EFD" font-family="Arial" font-size="13" lengthAdjust="spacing" textLength="198" x="367.5" y="826.9595">Retrieve streaming from the hosts:</text><text fill="#0A9EFD" font-family="Arial" font-size="13" lengthAdjust="spacing" textLength="186" x="377.5" y="841.9082">agoraEngine.setupRemoteVideo</text><polygon fill="#0A9EFD" points="244.5,871.6118,234.5,875.6118,244.5,879.6118,240.5,875.6118" style="stroke:#0A9EFD;stroke-width:1.0;"/><line style="stroke:#0A9EFD;stroke-width:2.0;" x1="238.5" x2="702.5" y1="875.6118" y2="875.6118"/><text fill="#0A9EFD" font-family="Arial" font-size="13" lengthAdjust="spacing" textLength="118" x="409.5" y="870.8569">Receive data stream</text><polygon fill="#0A9EFD" points="221.5,907.5605,231.5,911.5605,221.5,915.5605,225.5,911.5605" style="stroke:#0A9EFD;stroke-width:1.0;"/><line style="stroke:#0A9EFD;stroke-width:2.0;" x1="37.5" x2="227.5" y1="911.5605" y2="911.5605"/><text fill="#0A9EFD" font-family="Arial" font-size="13" lengthAdjust="spacing" textLength="172" x="49.5" y="906.8057">Leave the live streaming event</text><polygon fill="#0A9EFD" points="691.5,951.458,701.5,955.458,691.5,959.458,695.5,955.458" style="stroke:#0A9EFD;stroke-width:1.0;"/><line style="stroke:#0A9EFD;stroke-width:2.0;" x1="233.5" x2="697.5" y1="955.458" y2="955.458"/><text fill="#0A9EFD" font-family="Arial" font-size="13" lengthAdjust="spacing" textLength="108" x="412.5" y="935.7544">Leave the channel:</text><text fill="#0A9EFD" font-family="Arial" font-size="13" lengthAdjust="spacing" textLength="160" x="390.5" y="950.7031">agoraEngine.leaveChannel()</text><polygon fill="#0A9EFD" points="221.5,980.4067,231.5,984.4067,221.5,988.4067,225.5,984.4067" style="stroke:#0A9EFD;stroke-width:1.0;"/><line style="stroke:#0A9EFD;stroke-width:2.0;" x1="37.5" x2="227.5" y1="984.4067" y2="984.4067"/><text fill="#0A9EFD" font-family="Arial" font-size="13" lengthAdjust="spacing" textLength="58" x="106.5" y="979.6519">Close app</text><line style="stroke:#0A9EFD;stroke-width:2.0;" x1="233.5" x2="275.5" y1="1028.3042" y2="1028.3042"/><line style="stroke:#0A9EFD;stroke-width:2.0;" x1="275.5" x2="275.5" y1="1028.3042" y2="1041.3042"/><line style="stroke:#0A9EFD;stroke-width:2.0;" x1="234.5" x2="275.5" y1="1041.3042" y2="1041.3042"/><polygon fill="#0A9EFD" points="244.5,1037.3042,234.5,1041.3042,244.5,1045.3042,240.5,1041.3042" style="stroke:#0A9EFD;stroke-width:1.0;"/><text fill="#0A9EFD" font-family="Arial" font-size="13" lengthAdjust="spacing" textLength="143" x="240.5" y="1008.6006">Clean up local resources</text><text fill="#0A9EFD" font-family="Arial" font-size="13" lengthAdjust="spacing" textLength="127" x="252.5" y="1023.5493">agoraEngine.destroy()</text><!--SRC=[fLJ1Zfim4BtxAwOvxHwI3uZKbIYXNLgKH2HPQQLAaHTc4tU9RTc6jd_VCH028LjLwWLXU-RDlFV6_Y1aLfGv0Zyem_VsJSYPA4y5OundJXcOx2oQ2N0BkqtAs8lw1PDdLHhWMayOqzmuaGdDfOF9ayXHmMRnhOuFrcl6KEP0EMrYu8jSPsqMqtIxR5FYNWeLXEc3nvd3IgE4G6j6gsupbi89xX3S4Q76Xgu5G7aG4kVmNJRSedeD7o5rMVC_omnIzW0oalobQ02h6kgayh8OmSomZgkhtTqF43RewlJioAN40hHHh-86WaKNDY7h9k8kV0oMooZPhzFLvpY9zady5Eq_fQjW4GQRRRpySi_OmQXImwEoRY3Fnf6YmA4G5O9rnEiav06mGkbyTzE7EYn5PmHj0Y-fHKaUS2UK1AVUq7_XXnBotFc5LNnXPHIfGquTgOCvCHfHAWJXfihJKT8wSjZEmYIEbjjzkafwVA9qf1inArJ6YqRw-LYmKYV-l96z_ePSLjnU8TLYD4ZQO2NmvmZBXwoRixv_nFIhbu1tzfsvNjldbGfl2aNZctF7MnlyE9zj2ygSrCbmO5rRxptdkhZ_zwwaczmPoDjURivbpyIUTS5kGOimkg5NR-3_MQcEq8Nrgr6d6ijBRc-rLkeKJyerDu_Wufu-6NeDHzhtnKwGLytj_hlUSJ_qFMA5ZsYPqH0D2eM5ikZVo8678QL8wCRSeAMND4DxVP5ofCxKRm_w1m00]--></g></svg>