<?xml version="1.0" encoding="us-ascii" standalone="no"?><svg xmlns="http://www.w3.org/2000/svg" xmlns:xlink="http://www.w3.org/1999/xlink" contentStyleType="text/css" height="1009px" preserveAspectRatio="none" style="width:541px;height:1009px;" version="1.1" viewBox="0 0 541 1009" width="541px" zoomAndPan="magnify"><defs/><g><rect fill="none" height="1007.5566" style="stroke:#0A9EFD;stroke-width:1.0;" width="539" x="0" y="0"/><rect fill="#999999" fill-opacity="0.33333" height="997.5566" style="stroke:#0A9EFD;stroke-width:0.5;" width="90" x="173" y="6"/><text fill="#0A9EFD" font-family="sans-serif" font-size="13" font-weight="bold" lengthAdjust="spacing" textLength="62" x="187" y="18.5684">Your app</text><rect fill="#999999" fill-opacity="0.33333" height="997.5566" style="stroke:#0A9EFD;stroke-width:0.5;" width="80" x="449" y="6"/><text fill="#0A9EFD" font-family="sans-serif" font-size="13" font-weight="bold" lengthAdjust="spacing" textLength="41" x="468.5" y="18.5684">Agora</text><rect fill="#0A9EFD" fill-opacity="0.06667" height="219.5386" style="stroke:#0A9EFD;stroke-width:2.0;" width="525" x="10" y="332.6372"/><rect fill="#0A9EFD" fill-opacity="0.06667" height="278.3848" style="stroke:#0A9EFD;stroke-width:2.0;" width="525" x="10" y="566.1758"/><line style="stroke:#0A9EFD;stroke-width:0.5;stroke-dasharray:5.0,5.0;" x1="38" x2="38" y1="86.0986" y2="919.458"/><line style="stroke:#0A9EFD;stroke-width:0.5;stroke-dasharray:5.0,5.0;" x1="218" x2="218" y1="86.0986" y2="919.458"/><line style="stroke:#0A9EFD;stroke-width:0.5;stroke-dasharray:5.0,5.0;" x1="489" x2="489" y1="86.0986" y2="919.458"/><text fill="#0A9EFD" font-family="Arial" font-size="14" lengthAdjust="spacing" textLength="30" x="20" y="83.1318">User</text><ellipse cx="38" cy="16" fill="none" rx="8" ry="8" style="stroke:#0A9EFD;stroke-width:3.0;"/><path d="M38,24 L38,51 M25,32 L51,32 M38,51 L25,66 M38,51 L51,66 " fill="none" style="stroke:#0A9EFD;stroke-width:3.0;"/><text fill="#0A9EFD" font-family="Arial" font-size="14" lengthAdjust="spacing" textLength="30" x="20" y="931.5898">User</text><ellipse cx="38" cy="945.5566" fill="none" rx="8" ry="8" style="stroke:#0A9EFD;stroke-width:3.0;"/><path d="M38,953.5566 L38,980.5566 M25,961.5566 L51,961.5566 M38,980.5566 L25,995.5566 M38,980.5566 L51,995.5566 " fill="none" style="stroke:#0A9EFD;stroke-width:3.0;"/><rect fill="none" height="30.0986" rx="2.5" ry="2.5" style="stroke:#0A9EFD;stroke-width:2.0;" width="82" x="177" y="55"/><text fill="#0A9EFD" font-family="Arial" font-size="14" lengthAdjust="spacing" textLength="68" x="184" y="75.1318">Video SDK</text><rect fill="none" height="30.0986" rx="2.5" ry="2.5" style="stroke:#0A9EFD;stroke-width:2.0;" width="82" x="177" y="918.458"/><text fill="#0A9EFD" font-family="Arial" font-size="14" lengthAdjust="spacing" textLength="68" x="184" y="938.5898">Video SDK</text><rect fill="none" height="30.0986" rx="2.5" ry="2.5" style="stroke:#0A9EFD;stroke-width:2.0;" width="72" x="453" y="55"/><text fill="#0A9EFD" font-family="Arial" font-size="14" lengthAdjust="spacing" textLength="58" x="460" y="75.1318">SDRTN&#174;</text><rect fill="none" height="30.0986" rx="2.5" ry="2.5" style="stroke:#0A9EFD;stroke-width:2.0;" width="72" x="453" y="918.458"/><text fill="#0A9EFD" font-family="Arial" font-size="14" lengthAdjust="spacing" textLength="58" x="460" y="938.5898">SDRTN&#174;</text><polygon fill="#0A9EFD" points="206,113.0474,216,117.0474,206,121.0474,210,117.0474" style="stroke:#0A9EFD;stroke-width:1.0;"/><line style="stroke:#0A9EFD;stroke-width:2.0;" x1="38" x2="212" y1="117.0474" y2="117.0474"/><text fill="#0A9EFD" font-family="Arial" font-size="13" lengthAdjust="spacing" textLength="58" x="99" y="112.2925">Open App</text><line style="stroke:#0A9EFD;stroke-width:2.0;" x1="218" x2="260" y1="160.9448" y2="160.9448"/><line style="stroke:#0A9EFD;stroke-width:2.0;" x1="260" x2="260" y1="160.9448" y2="173.9448"/><line style="stroke:#0A9EFD;stroke-width:2.0;" x1="219" x2="260" y1="173.9448" y2="173.9448"/><polygon fill="#0A9EFD" points="229,169.9448,219,173.9448,229,177.9448,225,173.9448" style="stroke:#0A9EFD;stroke-width:1.0;"/><text fill="#0A9EFD" font-family="Arial" font-size="13" lengthAdjust="spacing" textLength="175" x="250" y="141.2412">Initiate the Video SDK engine:</text><text fill="#0A9EFD" font-family="Arial" font-size="13" lengthAdjust="spacing" textLength="221" x="229" y="156.1899">agoraEngine = AgoraRTC.createClient</text><line style="stroke:#0A9EFD;stroke-width:2.0;" x1="218" x2="260" y1="217.8423" y2="217.8423"/><line style="stroke:#0A9EFD;stroke-width:2.0;" x1="260" x2="260" y1="217.8423" y2="230.8423"/><line style="stroke:#0A9EFD;stroke-width:2.0;" x1="219" x2="260" y1="230.8423" y2="230.8423"/><polygon fill="#0A9EFD" points="229,226.8423,219,230.8423,229,234.8423,225,230.8423" style="stroke:#0A9EFD;stroke-width:1.0;"/><text fill="#0A9EFD" font-family="Arial" font-size="13" lengthAdjust="spacing" textLength="145" x="225" y="198.1387">Start video in the engine:</text><text fill="#0A9EFD" font-family="Arial" font-size="13" lengthAdjust="spacing" textLength="44" x="277.5" y="213.0874">App.init</text><line style="stroke:#0A9EFD;stroke-width:2.0;" x1="218" x2="260" y1="304.6372" y2="304.6372"/><line style="stroke:#0A9EFD;stroke-width:2.0;" x1="260" x2="260" y1="304.6372" y2="317.6372"/><line style="stroke:#0A9EFD;stroke-width:2.0;" x1="219" x2="260" y1="317.6372" y2="317.6372"/><polygon fill="#0A9EFD" points="229,313.6372,219,317.6372,229,321.6372,225,317.6372" style="stroke:#0A9EFD;stroke-width:1.0;"/><text fill="#0A9EFD" font-family="Arial" font-size="13" lengthAdjust="spacing" textLength="102" x="275" y="255.0361">Start local media:</text><text fill="#0A9EFD" font-family="Arial" font-size="13" lengthAdjust="spacing" textLength="198" x="229" y="269.9849">stream = AgoraRTC.createStream</text><text fill="#0A9EFD" font-family="Arial" font-size="13" lengthAdjust="spacing" textLength="61" x="295.5" y="284.9336">stream.init</text><text fill="#0A9EFD" font-family="Arial" font-size="13" lengthAdjust="spacing" textLength="68" x="294" y="299.8823">stream.play</text><path d="M10,332.6372 L82,332.6372 L82,339.5859 L72,349.5859 L10,349.5859 L10,332.6372 " fill="#EEEEEE" style="stroke:#0A9EFD;stroke-width:1.5;"/><rect fill="none" height="219.5386" style="stroke:#0A9EFD;stroke-width:2.0;" width="525" x="10" y="332.6372"/><text fill="#000000" font-family="Arial" font-size="13" lengthAdjust="spacing" textLength="27" x="25" y="345.8311">Host</text><polygon fill="#0A9EFD" points="206,366.5347,216,370.5347,206,374.5347,210,370.5347" style="stroke:#0A9EFD;stroke-width:1.0;"/><line style="stroke:#0A9EFD;stroke-width:2.0;" x1="38" x2="212" y1="370.5347" y2="370.5347"/><text fill="#0A9EFD" font-family="Arial" font-size="13" lengthAdjust="spacing" textLength="149" x="53.5" y="365.7798">Start live streaming event</text><line style="stroke:#0A9EFD;stroke-width:2.0;" x1="218" x2="260" y1="399.4834" y2="399.4834"/><line style="stroke:#0A9EFD;stroke-width:2.0;" x1="260" x2="260" y1="399.4834" y2="412.4834"/><line style="stroke:#0A9EFD;stroke-width:2.0;" x1="219" x2="260" y1="412.4834" y2="412.4834"/><polygon fill="#0A9EFD" points="229,408.4834,219,412.4834,229,416.4834,225,412.4834" style="stroke:#0A9EFD;stroke-width:1.0;"/><text fill="#0A9EFD" font-family="Arial" font-size="13" lengthAdjust="spacing" textLength="257" x="225" y="394.7285">Retrieve authentication token to join channel</text><polygon fill="#0A9EFD" points="477,452.3809,487,456.3809,477,460.3809,481,456.3809" style="stroke:#0A9EFD;stroke-width:1.0;"/><line style="stroke:#0A9EFD;stroke-width:2.0;" x1="218" x2="483" y1="456.3809" y2="456.3809"/><text fill="#0A9EFD" font-family="Arial" font-size="13" lengthAdjust="spacing" textLength="147" x="276" y="436.6772">Set the user role as host:</text><text fill="#0A9EFD" font-family="Arial" font-size="13" lengthAdjust="spacing" textLength="196" x="257.5" y="451.626">agoraEngine.setClientRole("host")</text><polygon fill="#0A9EFD" points="477,496.2783,487,500.2783,477,504.2783,481,500.2783" style="stroke:#0A9EFD;stroke-width:1.0;"/><line style="stroke:#0A9EFD;stroke-width:2.0;" x1="218" x2="483" y1="500.2783" y2="500.2783"/><text fill="#0A9EFD" font-family="Arial" font-size="13" lengthAdjust="spacing" textLength="135" x="286" y="480.5747">Join a channel as host:</text><text fill="#0A9EFD" font-family="Arial" font-size="13" lengthAdjust="spacing" textLength="96" x="307.5" y="495.5234">agoraEngine.join</text><polygon fill="#0A9EFD" points="477,540.1758,487,544.1758,477,548.1758,481,544.1758" style="stroke:#0A9EFD;stroke-width:1.0;"/><line style="stroke:#0A9EFD;stroke-width:2.0;" x1="218" x2="483" y1="544.1758" y2="544.1758"/><text fill="#0A9EFD" font-family="Arial" font-size="13" lengthAdjust="spacing" textLength="190" x="258.5" y="524.4722">Push local media to the channel:</text><text fill="#0A9EFD" font-family="Arial" font-size="13" lengthAdjust="spacing" textLength="117" x="297" y="539.4209">agoraEngine.publish</text><path d="M10,566.1758 L109,566.1758 L109,573.1245 L99,583.1245 L10,583.1245 L10,566.1758 " fill="#EEEEEE" style="stroke:#0A9EFD;stroke-width:1.5;"/><rect fill="none" height="278.3848" style="stroke:#0A9EFD;stroke-width:2.0;" width="525" x="10" y="566.1758"/><text fill="#000000" font-family="Arial" font-size="13" lengthAdjust="spacing" textLength="54" x="25" y="579.3696">Audience</text><polygon fill="#0A9EFD" points="206,600.0732,216,604.0732,206,608.0732,210,604.0732" style="stroke:#0A9EFD;stroke-width:1.0;"/><line style="stroke:#0A9EFD;stroke-width:2.0;" x1="38" x2="212" y1="604.0732" y2="604.0732"/><text fill="#0A9EFD" font-family="Arial" font-size="13" lengthAdjust="spacing" textLength="145" x="55.5" y="599.3184">Join live streaming event</text><line style="stroke:#0A9EFD;stroke-width:2.0;" x1="218" x2="260" y1="633.022" y2="633.022"/><line style="stroke:#0A9EFD;stroke-width:2.0;" x1="260" x2="260" y1="633.022" y2="646.022"/><line style="stroke:#0A9EFD;stroke-width:2.0;" x1="219" x2="260" y1="646.022" y2="646.022"/><polygon fill="#0A9EFD" points="229,642.022,219,646.022,229,650.022,225,646.022" style="stroke:#0A9EFD;stroke-width:1.0;"/><text fill="#0A9EFD" font-family="Arial" font-size="13" lengthAdjust="spacing" textLength="257" x="225" y="628.2671">Retrieve authentication token to join channel</text><polygon fill="#0A9EFD" points="477,685.9194,487,689.9194,477,693.9194,481,689.9194" style="stroke:#0A9EFD;stroke-width:1.0;"/><line style="stroke:#0A9EFD;stroke-width:2.0;" x1="218" x2="483" y1="689.9194" y2="689.9194"/><text fill="#0A9EFD" font-family="Arial" font-size="13" lengthAdjust="spacing" textLength="174" x="264.5" y="670.2158">Set the user role as audience:</text><text fill="#0A9EFD" font-family="Arial" font-size="13" lengthAdjust="spacing" textLength="223" x="244" y="685.1646">agoraEngine.setClientRole("audience")</text><polygon fill="#0A9EFD" points="477,729.8169,487,733.8169,477,737.8169,481,733.8169" style="stroke:#0A9EFD;stroke-width:1.0;"/><line style="stroke:#0A9EFD;stroke-width:2.0;" x1="218" x2="483" y1="733.8169" y2="733.8169"/><text fill="#0A9EFD" font-family="Arial" font-size="13" lengthAdjust="spacing" textLength="171" x="268" y="714.1133">Join the live streaming event:</text><text fill="#0A9EFD" font-family="Arial" font-size="13" lengthAdjust="spacing" textLength="96" x="307.5" y="729.062">agoraEngine.join</text><polygon fill="#0A9EFD" points="229,803.6118,219,807.6118,229,811.6118,225,807.6118" style="stroke:#0A9EFD;stroke-width:1.0;"/><line style="stroke:#0A9EFD;stroke-width:2.0;" x1="223" x2="488" y1="807.6118" y2="807.6118"/><text fill="#0A9EFD" font-family="Arial" font-size="13" lengthAdjust="spacing" textLength="227" x="238" y="758.0107">Retrieve streaming from the other user:</text><text fill="#0A9EFD" font-family="Arial" font-size="13" lengthAdjust="spacing" textLength="187" x="262" y="772.9595">agoraEngine.on("stream-added")</text><text fill="#0A9EFD" font-family="Arial" font-size="13" lengthAdjust="spacing" textLength="132" x="289.5" y="787.9082">agoraEngine.subscribe</text><text fill="#0A9EFD" font-family="Arial" font-size="13" lengthAdjust="spacing" textLength="215" x="250" y="802.8569">agoraEngine.on("stream-subscribed")</text><polygon fill="#0A9EFD" points="229,832.5605,219,836.5605,229,840.5605,225,836.5605" style="stroke:#0A9EFD;stroke-width:1.0;"/><line style="stroke:#0A9EFD;stroke-width:2.0;" x1="223" x2="488" y1="836.5605" y2="836.5605"/><text fill="#0A9EFD" font-family="Arial" font-size="13" lengthAdjust="spacing" textLength="120" x="293.5" y="831.8057">Receive data stream</text><polygon fill="#0A9EFD" points="206,868.5093,216,872.5093,206,876.5093,210,872.5093" style="stroke:#0A9EFD;stroke-width:1.0;"/><line style="stroke:#0A9EFD;stroke-width:2.0;" x1="38" x2="212" y1="872.5093" y2="872.5093"/><text fill="#0A9EFD" font-family="Arial" font-size="13" lengthAdjust="spacing" textLength="156" x="50" y="867.7544">Leave live streaming event</text><polygon fill="#0A9EFD" points="477,897.458,487,901.458,477,905.458,481,901.458" style="stroke:#0A9EFD;stroke-width:1.0;"/><line style="stroke:#0A9EFD;stroke-width:2.0;" x1="218" x2="483" y1="901.458" y2="901.458"/><text fill="#0A9EFD" font-family="Arial" font-size="13" lengthAdjust="spacing" textLength="107" x="300" y="896.7031">agoraEngine.leave</text><!--SRC=[lLBDZjCm4BxxAOQSTW_j0rHYfMeNYGA2Ajr5Ga92qtXeXdLjox4hU2aUWYTZx6RJfDiLDowHF9hlT_AARMEI9i2T2_YjUsGxvxGtIc4JNO3geQDG0NRmiAcLshgVK7rnAG1wNodbCKHksAEDK7rcJGusT-_B_dAzLegi1i7qm6NME4TjxkhxZtz-zvZL22EACBl9H0luvCd2qdibhs6uiXmP8q5i2GPr8BjZIuklzXZgJNd2QoZozVtjl0aag5l3PEE4S1F56HmA4zj2Uo8JzJcBuWM4SGqQs9Dcp9jT587zSyLDcGyBXGrEJs_mbze5bpoyTLsSvEzr-43zDjiTqA4FCBifIpN5m384J6BTIiSOsKaEzqZv2p-Sf6fQj9RCASPAw2cMj4ck3S4PojTenSG2ODhZlADuRAwMjQigBrNN4x9tMGMVT0QcCvxiHKrmwzIruogpusog9pedy6bhk6lp_wBwsfP9YxE69jKLE_-tEUnzBFvHtjFUfG8pwINN5tiKs91to782VWzkNmYTV4Bn-ioQirVL4J53hKbNr-VUqxPh0cz9vYyXXnrT8erDDPJ3Q8pO6piURdof3uG7Ul5KGprZRPCXwYy0]--></g></svg>