<?xml version="1.0" encoding="us-ascii" standalone="no"?><svg xmlns="http://www.w3.org/2000/svg" xmlns:xlink="http://www.w3.org/1999/xlink" contentStyleType="text/css" height="1240px" preserveAspectRatio="none" style="width:741px;height:1240px;" version="1.1" viewBox="0 0 741 1240" width="741px" zoomAndPan="magnify"><defs/><g><rect fill="none" height="1238.0439" style="stroke:#0A9EFD;stroke-width:1.0;" width="739.5" x="0" y="0"/><rect fill="#999999" fill-opacity="0.33333" height="1228.0439" style="stroke:#0A9EFD;stroke-width:0.5;" width="90" x="172.5" y="6"/><text fill="#0A9EFD" font-family="sans-serif" font-size="13" font-weight="bold" lengthAdjust="spacing" textLength="69" x="183" y="19.4951">Your game</text><rect fill="#999999" fill-opacity="0.33333" height="1228.0439" style="stroke:#0A9EFD;stroke-width:0.5;" width="74" x="655.5" y="6"/><text fill="#0A9EFD" font-family="sans-serif" font-size="13" font-weight="bold" lengthAdjust="spacing" textLength="38" x="673.5" y="19.4951">Agora</text><rect fill="#0A9EFD" fill-opacity="0.06667" height="205.5386" style="stroke:#0A9EFD;stroke-width:2.0;" width="725.5" x="10" y="378.4834"/><rect fill="#0A9EFD" fill-opacity="0.06667" height="205.5386" style="stroke:#0A9EFD;stroke-width:2.0;" width="725.5" x="10" y="598.022"/><line style="stroke:#0A9EFD;stroke-width:0.5;stroke-dasharray:5.0,5.0;" x1="37" x2="37" y1="86.0986" y2="1149.9453"/><line style="stroke:#0A9EFD;stroke-width:0.5;stroke-dasharray:5.0,5.0;" x1="217.5" x2="217.5" y1="86.0986" y2="1149.9453"/><line style="stroke:#0A9EFD;stroke-width:0.5;stroke-dasharray:5.0,5.0;" x1="692.5" x2="692.5" y1="86.0986" y2="1149.9453"/><text fill="#0A9EFD" font-family="Arial" font-size="14" lengthAdjust="spacing" textLength="29" x="20" y="83.1318">User</text><ellipse cx="37.5" cy="16" fill="none" rx="8" ry="8" style="stroke:#0A9EFD;stroke-width:3.0;"/><path d="M37.5,24 L37.5,51 M24.5,32 L50.5,32 M37.5,51 L24.5,66 M37.5,51 L50.5,66 " fill="none" style="stroke:#0A9EFD;stroke-width:3.0;"/><text fill="#0A9EFD" font-family="Arial" font-size="14" lengthAdjust="spacing" textLength="29" x="20" y="1162.0771">User</text><ellipse cx="37.5" cy="1176.0439" fill="none" rx="8" ry="8" style="stroke:#0A9EFD;stroke-width:3.0;"/><path d="M37.5,1184.0439 L37.5,1211.0439 M24.5,1192.0439 L50.5,1192.0439 M37.5,1211.0439 L24.5,1226.0439 M37.5,1211.0439 L50.5,1226.0439 " fill="none" style="stroke:#0A9EFD;stroke-width:3.0;"/><rect fill="none" height="30.0986" rx="2.5" ry="2.5" style="stroke:#0A9EFD;stroke-width:2.0;" width="82" x="176.5" y="55"/><text fill="#0A9EFD" font-family="Arial" font-size="14" lengthAdjust="spacing" textLength="68" x="183.5" y="75.1318">Video SDK</text><rect fill="none" height="30.0986" rx="2.5" ry="2.5" style="stroke:#0A9EFD;stroke-width:2.0;" width="82" x="176.5" y="1148.9453"/><text fill="#0A9EFD" font-family="Arial" font-size="14" lengthAdjust="spacing" textLength="68" x="183.5" y="1169.0771">Video SDK</text><rect fill="none" height="30.0986" rx="2.5" ry="2.5" style="stroke:#0A9EFD;stroke-width:2.0;" width="66" x="659.5" y="55"/><text fill="#0A9EFD" font-family="Arial" font-size="14" lengthAdjust="spacing" textLength="52" x="666.5" y="75.1318">SD-RTN</text><rect fill="none" height="30.0986" rx="2.5" ry="2.5" style="stroke:#0A9EFD;stroke-width:2.0;" width="66" x="659.5" y="1148.9453"/><text fill="#0A9EFD" font-family="Arial" font-size="14" lengthAdjust="spacing" textLength="52" x="666.5" y="1169.0771">SD-RTN</text><polygon fill="#0A9EFD" points="205.5,113.0474,215.5,117.0474,205.5,121.0474,209.5,117.0474" style="stroke:#0A9EFD;stroke-width:1.0;"/><line style="stroke:#0A9EFD;stroke-width:2.0;" x1="37.5" x2="211.5" y1="117.0474" y2="117.0474"/><text fill="#0A9EFD" font-family="Arial" font-size="13" lengthAdjust="spacing" textLength="67" x="94" y="112.2925">Open game</text><line style="stroke:#0A9EFD;stroke-width:2.0;" x1="217.5" x2="259.5" y1="160.9448" y2="160.9448"/><line style="stroke:#0A9EFD;stroke-width:2.0;" x1="259.5" x2="259.5" y1="160.9448" y2="173.9448"/><line style="stroke:#0A9EFD;stroke-width:2.0;" x1="218.5" x2="259.5" y1="173.9448" y2="173.9448"/><polygon fill="#0A9EFD" points="228.5,169.9448,218.5,173.9448,228.5,177.9448,224.5,173.9448" style="stroke:#0A9EFD;stroke-width:1.0;"/><text fill="#0A9EFD" font-family="Arial" font-size="13" lengthAdjust="spacing" textLength="177" x="307" y="141.2412">Create an RtcEngine instance:</text><text fill="#0A9EFD" font-family="Arial" font-size="13" lengthAdjust="spacing" textLength="342" x="228.5" y="156.1899">RtcEngine = Agora.Rtc.RtcEngine.CreateAgoraRtcEngine()</text><polygon fill="#0A9EFD" points="680.5,228.791,690.5,232.791,680.5,236.791,684.5,232.791" style="stroke:#0A9EFD;stroke-width:1.0;"/><line style="stroke:#0A9EFD;stroke-width:2.0;" x1="217.5" x2="686.5" y1="232.791" y2="232.791"/><text fill="#0A9EFD" font-family="Arial" font-size="13" lengthAdjust="spacing" textLength="111" x="397.5" y="198.1387">Set channel profile:</text><text fill="#0A9EFD" font-family="Arial" font-size="13" lengthAdjust="spacing" textLength="171" x="371.5" y="213.0874">RtcEngine.SetChannelProfile(</text><text fill="#0A9EFD" font-family="Arial" font-size="13" lengthAdjust="spacing" textLength="439" x="241.5" y="228.0361">CHANNEL_PROFILE_TYPE.CHANNEL_PROFILE_LIVE_BROADCASTING)</text><polygon fill="#0A9EFD" points="680.5,302.5859,690.5,306.5859,680.5,310.5859,684.5,306.5859" style="stroke:#0A9EFD;stroke-width:1.0;"/><line style="stroke:#0A9EFD;stroke-width:2.0;" x1="217.5" x2="686.5" y1="306.5859" y2="306.5859"/><text fill="#0A9EFD" font-family="Arial" font-size="13" lengthAdjust="spacing" textLength="93" x="406.5" y="256.9849">Set the context:</text><text fill="#0A9EFD" font-family="Arial" font-size="13" lengthAdjust="spacing" textLength="393" x="258.5" y="271.9336">RtcEngineContext context = new RtcEngineContext(_appID, 0, true,</text><text fill="#0A9EFD" font-family="Arial" font-size="13" lengthAdjust="spacing" textLength="439" x="235.5" y="286.8823">CHANNEL_PROFILE_TYPE.CHANNEL_PROFILE_LIVE_BROADCASTING,</text><text fill="#0A9EFD" font-family="Arial" font-size="13" lengthAdjust="spacing" textLength="342" x="286" y="301.8311">AUDIO_SCENARIO_TYPE.AUDIO_SCENARIO_DEFAULT)</text><line style="stroke:#0A9EFD;stroke-width:2.0;" x1="217.5" x2="259.5" y1="350.4834" y2="350.4834"/><line style="stroke:#0A9EFD;stroke-width:2.0;" x1="259.5" x2="259.5" y1="350.4834" y2="363.4834"/><line style="stroke:#0A9EFD;stroke-width:2.0;" x1="218.5" x2="259.5" y1="363.4834" y2="363.4834"/><polygon fill="#0A9EFD" points="228.5,359.4834,218.5,363.4834,228.5,367.4834,224.5,363.4834" style="stroke:#0A9EFD;stroke-width:1.0;"/><text fill="#0A9EFD" font-family="Arial" font-size="13" lengthAdjust="spacing" textLength="115" x="248" y="330.7798">Initialize RtcEngine:</text><text fill="#0A9EFD" font-family="Arial" font-size="13" lengthAdjust="spacing" textLength="162" x="228.5" y="345.7285">RtcEngine.Initialize(context)</text><path d="M10,378.4834 L82,378.4834 L82,385.4321 L72,395.4321 L10,395.4321 L10,378.4834 " fill="#EEEEEE" style="stroke:#0A9EFD;stroke-width:1.5;"/><rect fill="none" height="205.5386" style="stroke:#0A9EFD;stroke-width:2.0;" width="725.5" x="10" y="378.4834"/><text fill="#000000" font-family="Arial" font-size="13" lengthAdjust="spacing" textLength="27" x="25" y="391.6772">Host</text><polygon fill="#0A9EFD" points="205.5,412.3809,215.5,416.3809,205.5,420.3809,209.5,416.3809" style="stroke:#0A9EFD;stroke-width:1.0;"/><line style="stroke:#0A9EFD;stroke-width:2.0;" x1="37.5" x2="211.5" y1="416.3809" y2="416.3809"/><text fill="#0A9EFD" font-family="Arial" font-size="13" lengthAdjust="spacing" textLength="156" x="49.5" y="411.626">Start a live streaming event</text><line style="stroke:#0A9EFD;stroke-width:2.0;" x1="217.5" x2="259.5" y1="460.2783" y2="460.2783"/><line style="stroke:#0A9EFD;stroke-width:2.0;" x1="259.5" x2="259.5" y1="460.2783" y2="473.2783"/><line style="stroke:#0A9EFD;stroke-width:2.0;" x1="218.5" x2="259.5" y1="473.2783" y2="473.2783"/><polygon fill="#0A9EFD" points="228.5,469.2783,218.5,473.2783,228.5,477.2783,224.5,473.2783" style="stroke:#0A9EFD;stroke-width:1.0;"/><text fill="#0A9EFD" font-family="Arial" font-size="13" lengthAdjust="spacing" textLength="145" x="224.5" y="440.5747">Enable the video module:</text><text fill="#0A9EFD" font-family="Arial" font-size="13" lengthAdjust="spacing" textLength="145" x="228.5" y="455.5234">RtcEngine.EnableVideo()</text><polygon fill="#0A9EFD" points="680.5,528.1245,690.5,532.1245,680.5,536.1245,684.5,532.1245" style="stroke:#0A9EFD;stroke-width:1.0;"/><line style="stroke:#0A9EFD;stroke-width:2.0;" x1="217.5" x2="686.5" y1="532.1245" y2="532.1245"/><text fill="#0A9EFD" font-family="Arial" font-size="13" lengthAdjust="spacing" textLength="147" x="379.5" y="497.4722">Set the user role as host:</text><text fill="#0A9EFD" font-family="Arial" font-size="13" lengthAdjust="spacing" textLength="147" x="383.5" y="512.4209">RtcEngine.SetClientRole(</text><text fill="#0A9EFD" font-family="Arial" font-size="13" lengthAdjust="spacing" textLength="326" x="296" y="527.3696">CLIENT_ROLE_TYPE.CLIENT_ROLE_BROADCASTER)</text><polygon fill="#0A9EFD" points="680.5,572.022,690.5,576.022,680.5,580.022,684.5,576.022" style="stroke:#0A9EFD;stroke-width:1.0;"/><line style="stroke:#0A9EFD;stroke-width:2.0;" x1="217.5" x2="686.5" y1="576.022" y2="576.022"/><text fill="#0A9EFD" font-family="Arial" font-size="13" lengthAdjust="spacing" textLength="134" x="386" y="556.3184">Join a channel as host:</text><text fill="#0A9EFD" font-family="Arial" font-size="13" lengthAdjust="spacing" textLength="142" x="386" y="571.2671">RtcEngine.JoinChannel()</text><path d="M10,598.022 L109,598.022 L109,604.9707 L99,614.9707 L10,614.9707 L10,598.022 " fill="#EEEEEE" style="stroke:#0A9EFD;stroke-width:1.5;"/><rect fill="none" height="205.5386" style="stroke:#0A9EFD;stroke-width:2.0;" width="725.5" x="10" y="598.022"/><text fill="#000000" font-family="Arial" font-size="13" lengthAdjust="spacing" textLength="54" x="25" y="611.2158">Audience</text><polygon fill="#0A9EFD" points="205.5,631.9194,215.5,635.9194,205.5,639.9194,209.5,635.9194" style="stroke:#0A9EFD;stroke-width:1.0;"/><line style="stroke:#0A9EFD;stroke-width:2.0;" x1="37.5" x2="211.5" y1="635.9194" y2="635.9194"/><text fill="#0A9EFD" font-family="Arial" font-size="13" lengthAdjust="spacing" textLength="151" x="52" y="631.1646">Join a live streaming event</text><line style="stroke:#0A9EFD;stroke-width:2.0;" x1="217.5" x2="259.5" y1="679.8169" y2="679.8169"/><line style="stroke:#0A9EFD;stroke-width:2.0;" x1="259.5" x2="259.5" y1="679.8169" y2="692.8169"/><line style="stroke:#0A9EFD;stroke-width:2.0;" x1="218.5" x2="259.5" y1="692.8169" y2="692.8169"/><polygon fill="#0A9EFD" points="228.5,688.8169,218.5,692.8169,228.5,696.8169,224.5,692.8169" style="stroke:#0A9EFD;stroke-width:1.0;"/><text fill="#0A9EFD" font-family="Arial" font-size="13" lengthAdjust="spacing" textLength="145" x="224.5" y="660.1133">Enable the video module:</text><text fill="#0A9EFD" font-family="Arial" font-size="13" lengthAdjust="spacing" textLength="145" x="228.5" y="675.062">RtcEngine.EnableVideo()</text><polygon fill="#0A9EFD" points="680.5,747.6631,690.5,751.6631,680.5,755.6631,684.5,751.6631" style="stroke:#0A9EFD;stroke-width:1.0;"/><line style="stroke:#0A9EFD;stroke-width:2.0;" x1="217.5" x2="686.5" y1="751.6631" y2="751.6631"/><text fill="#0A9EFD" font-family="Arial" font-size="13" lengthAdjust="spacing" textLength="174" x="366" y="717.0107">Set the user role as audience:</text><text fill="#0A9EFD" font-family="Arial" font-size="13" lengthAdjust="spacing" textLength="147" x="383.5" y="731.9595">RtcEngine.SetClientRole(</text><text fill="#0A9EFD" font-family="Arial" font-size="13" lengthAdjust="spacing" textLength="294" x="312" y="746.9082">CLIENT_ROLE_TYPE.CLIENT_ROLE_AUDIENCE)</text><polygon fill="#0A9EFD" points="680.5,791.5605,690.5,795.5605,680.5,799.5605,684.5,795.5605" style="stroke:#0A9EFD;stroke-width:1.0;"/><line style="stroke:#0A9EFD;stroke-width:2.0;" x1="217.5" x2="686.5" y1="795.5605" y2="795.5605"/><text fill="#0A9EFD" font-family="Arial" font-size="13" lengthAdjust="spacing" textLength="172" x="367" y="775.8569">Join the channel as audience:</text><text fill="#0A9EFD" font-family="Arial" font-size="13" lengthAdjust="spacing" textLength="142" x="386" y="790.8057">RtcEngine.JoinChannel()</text><polygon fill="#0A9EFD" points="205.5,827.5093,215.5,831.5093,205.5,835.5093,209.5,831.5093" style="stroke:#0A9EFD;stroke-width:1.0;"/><line style="stroke:#0A9EFD;stroke-width:2.0;" x1="37.5" x2="211.5" y1="831.5093" y2="831.5093"/><text fill="#0A9EFD" font-family="Arial" font-size="13" lengthAdjust="spacing" textLength="57" x="99" y="826.7544">Leave call</text><polygon fill="#0A9EFD" points="680.5,871.4067,690.5,875.4067,680.5,879.4067,684.5,875.4067" style="stroke:#0A9EFD;stroke-width:1.0;"/><line style="stroke:#0A9EFD;stroke-width:2.0;" x1="217.5" x2="686.5" y1="875.4067" y2="875.4067"/><text fill="#0A9EFD" font-family="Arial" font-size="13" lengthAdjust="spacing" textLength="108" x="399" y="855.7031">Leave the channel:</text><text fill="#0A9EFD" font-family="Arial" font-size="13" lengthAdjust="spacing" textLength="152" x="381" y="870.6519">RtcEngine.LeaveChannel()</text><line style="stroke:#0A9EFD;stroke-width:2.0;" x1="217.5" x2="259.5" y1="919.3042" y2="919.3042"/><line style="stroke:#0A9EFD;stroke-width:2.0;" x1="259.5" x2="259.5" y1="919.3042" y2="932.3042"/><line style="stroke:#0A9EFD;stroke-width:2.0;" x1="218.5" x2="259.5" y1="932.3042" y2="932.3042"/><polygon fill="#0A9EFD" points="228.5,928.3042,218.5,932.3042,228.5,936.3042,224.5,932.3042" style="stroke:#0A9EFD;stroke-width:1.0;"/><text fill="#0A9EFD" font-family="Arial" font-size="13" lengthAdjust="spacing" textLength="155" x="224.5" y="899.6006">Disable the video modules:</text><text fill="#0A9EFD" font-family="Arial" font-size="13" lengthAdjust="spacing" textLength="148" x="232" y="914.5493">RtcEngine.DisableVideo()</text><line style="stroke:#0A9EFD;stroke-width:2.0;" x1="217.5" x2="259.5" y1="976.2017" y2="976.2017"/><line style="stroke:#0A9EFD;stroke-width:2.0;" x1="259.5" x2="259.5" y1="976.2017" y2="989.2017"/><line style="stroke:#0A9EFD;stroke-width:2.0;" x1="218.5" x2="259.5" y1="989.2017" y2="989.2017"/><polygon fill="#0A9EFD" points="228.5,985.2017,218.5,989.2017,228.5,993.2017,224.5,989.2017" style="stroke:#0A9EFD;stroke-width:1.0;"/><text fill="#0A9EFD" font-family="Arial" font-size="13" lengthAdjust="spacing" textLength="187" x="224.5" y="956.498">Stop rendering the remote video:</text><text fill="#0A9EFD" font-family="Arial" font-size="13" lengthAdjust="spacing" textLength="172" x="236" y="971.4468">RemoteView.SetEnable(false)</text><line style="stroke:#0A9EFD;stroke-width:2.0;" x1="217.5" x2="259.5" y1="1033.0991" y2="1033.0991"/><line style="stroke:#0A9EFD;stroke-width:2.0;" x1="259.5" x2="259.5" y1="1033.0991" y2="1046.0991"/><line style="stroke:#0A9EFD;stroke-width:2.0;" x1="218.5" x2="259.5" y1="1046.0991" y2="1046.0991"/><polygon fill="#0A9EFD" points="228.5,1042.0991,218.5,1046.0991,228.5,1050.0991,224.5,1046.0991" style="stroke:#0A9EFD;stroke-width:1.0;"/><text fill="#0A9EFD" font-family="Arial" font-size="13" lengthAdjust="spacing" textLength="174" x="224.5" y="1013.3955">Stop rendering the local video:</text><text fill="#0A9EFD" font-family="Arial" font-size="13" lengthAdjust="spacing" textLength="158" x="236.5" y="1028.3442">LocalView.SetEnable(false)</text><polygon fill="#0A9EFD" points="205.5,1071.0479,215.5,1075.0479,205.5,1079.0479,209.5,1075.0479" style="stroke:#0A9EFD;stroke-width:1.0;"/><line style="stroke:#0A9EFD;stroke-width:2.0;" x1="37.5" x2="211.5" y1="1075.0479" y2="1075.0479"/><text fill="#0A9EFD" font-family="Arial" font-size="13" lengthAdjust="spacing" textLength="69" x="93" y="1070.293">Close game</text><line style="stroke:#0A9EFD;stroke-width:2.0;" x1="217.5" x2="259.5" y1="1118.9453" y2="1118.9453"/><line style="stroke:#0A9EFD;stroke-width:2.0;" x1="259.5" x2="259.5" y1="1118.9453" y2="1131.9453"/><line style="stroke:#0A9EFD;stroke-width:2.0;" x1="218.5" x2="259.5" y1="1131.9453" y2="1131.9453"/><polygon fill="#0A9EFD" points="228.5,1127.9453,218.5,1131.9453,228.5,1135.9453,224.5,1131.9453" style="stroke:#0A9EFD;stroke-width:1.0;"/><text fill="#0A9EFD" font-family="Arial" font-size="13" lengthAdjust="spacing" textLength="147" x="224.5" y="1099.2417">Clean up local resources:</text><text fill="#0A9EFD" font-family="Arial" font-size="13" lengthAdjust="spacing" textLength="119" x="244.5" y="1114.1904">RtcEngine.Dispose()</text><!--SRC=[nLLDRvj04BtpAwO-sL9YzMofbIYGXXPX2snBaIAX3PxOgwvtqR8uKNzzXmNRWAagjOVUp7oyD_FcWJzmcOjgXy3sIhEi_C7bd5T7uJWiDqh3P5EYdW0hOPCcZlEYtc7of2eDUtR4YUCKJ1kUyu990vCjtw62rFzk6zpLod5Gxe2Qsawt9XbsfVvziexRbh3JGenm_xd6MS2oG6av7NgyH3sDpD3i4XAJ1tBF9GANfM4onmKyTyEVm9BFAJA_HESDWCrSWjFPbIDSG8e6yWEJ4WKKMhroCO2UKuNN5AoQ_9JI0DwZ6yT1bAsIvKCO1TdwQHNCXy4et0RPbsJf-fwRhiFuwosvEI3aIXfyDtrYhmcUaxIYnBURz3HZHH7wT_3n3eokyAx6-BlPRAkxySDbbdf1x2RqmtOEOdxmu6wYzQntgr1omvdWF_4wua38QycqtMdcE7kjgW8ULMbwXaWDUGWO27v2A0tTySZb7l24qlHu0ybU15eLJzQVHxMhRcxOL5a3JyTFKD6B05eH51drGEECk41mOazKwm0l2eDudINBYy2Tm4NN8EdpVLDSqbvdousJrKMjvsXSUcFEEhdLZcR8iQTL2_b_f6BjHFycL-sm8FQ24Qti-t5LwpTy8ufr9OgGaJWv4w97q8Gx30DKcx_2TiNqUJcgPZc0QEjkzBGULmLecXLrVR0QIUDHcHQm0RA1BSUtMjBcDjDN9ahy8vPGj6y7AggVnv5wMdb2bJZoCHP87sBoO8EhiQJ_YRpTjxzmGG2qwoy0]--></g></svg>
