<?xml version="1.0" encoding="us-ascii" standalone="no"?><svg xmlns="http://www.w3.org/2000/svg" xmlns:xlink="http://www.w3.org/1999/xlink" contentStyleType="text/css" height="1293px" preserveAspectRatio="none" style="width:706px;height:1293px;" version="1.1" viewBox="0 0 706 1293" width="706px" zoomAndPan="magnify"><defs/><g><rect fill="none" height="1291.1465" style="stroke:#0A9EFD;stroke-width:1.0;" width="704.5" x="0" y="0"/><rect fill="#999999" fill-opacity="0.33333" height="1281.1465" style="stroke:#0A9EFD;stroke-width:0.5;" width="90" x="172.5" y="6"/><text fill="#0A9EFD" font-family="sans-serif" font-size="13" font-weight="bold" lengthAdjust="spacing" textLength="57" x="189" y="19.4951">Your app</text><rect fill="#999999" fill-opacity="0.33333" height="1281.1465" style="stroke:#0A9EFD;stroke-width:0.5;" width="74" x="620.5" y="6"/><text fill="#0A9EFD" font-family="sans-serif" font-size="13" font-weight="bold" lengthAdjust="spacing" textLength="38" x="638.5" y="19.4951">Agora</text><rect fill="#0A9EFD" fill-opacity="0.06667" height="391.231" style="stroke:#0A9EFD;stroke-width:2.0;" width="690.5" x="10" y="359.6372"/><rect fill="#0A9EFD" fill-opacity="0.06667" height="334.3335" style="stroke:#0A9EFD;stroke-width:2.0;" width="690.5" x="10" y="764.8682"/><line style="stroke:#0A9EFD;stroke-width:0.5;stroke-dasharray:5.0,5.0;" x1="37" x2="37" y1="86.0986" y2="1203.0479"/><line style="stroke:#0A9EFD;stroke-width:0.5;stroke-dasharray:5.0,5.0;" x1="217.5" x2="217.5" y1="86.0986" y2="1203.0479"/><line style="stroke:#0A9EFD;stroke-width:0.5;stroke-dasharray:5.0,5.0;" x1="657.5" x2="657.5" y1="86.0986" y2="1203.0479"/><text fill="#0A9EFD" font-family="Arial" font-size="14" lengthAdjust="spacing" textLength="29" x="20" y="83.1318">User</text><ellipse cx="37.5" cy="16" fill="none" rx="8" ry="8" style="stroke:#0A9EFD;stroke-width:3.0;"/><path d="M37.5,24 L37.5,51 M24.5,32 L50.5,32 M37.5,51 L24.5,66 M37.5,51 L50.5,66 " fill="none" style="stroke:#0A9EFD;stroke-width:3.0;"/><text fill="#0A9EFD" font-family="Arial" font-size="14" lengthAdjust="spacing" textLength="29" x="20" y="1215.1797">User</text><ellipse cx="37.5" cy="1229.1465" fill="none" rx="8" ry="8" style="stroke:#0A9EFD;stroke-width:3.0;"/><path d="M37.5,1237.1465 L37.5,1264.1465 M24.5,1245.1465 L50.5,1245.1465 M37.5,1264.1465 L24.5,1279.1465 M37.5,1264.1465 L50.5,1279.1465 " fill="none" style="stroke:#0A9EFD;stroke-width:3.0;"/><rect fill="none" height="30.0986" rx="2.5" ry="2.5" style="stroke:#0A9EFD;stroke-width:2.0;" width="82" x="176.5" y="55"/><text fill="#0A9EFD" font-family="Arial" font-size="14" lengthAdjust="spacing" textLength="68" x="183.5" y="75.1318">Video SDK</text><rect fill="none" height="30.0986" rx="2.5" ry="2.5" style="stroke:#0A9EFD;stroke-width:2.0;" width="82" x="176.5" y="1202.0479"/><text fill="#0A9EFD" font-family="Arial" font-size="14" lengthAdjust="spacing" textLength="68" x="183.5" y="1222.1797">Video SDK</text><rect fill="none" height="30.0986" rx="2.5" ry="2.5" style="stroke:#0A9EFD;stroke-width:2.0;" width="66" x="624.5" y="55"/><text fill="#0A9EFD" font-family="Arial" font-size="14" lengthAdjust="spacing" textLength="52" x="631.5" y="75.1318">SD-RTN</text><rect fill="none" height="30.0986" rx="2.5" ry="2.5" style="stroke:#0A9EFD;stroke-width:2.0;" width="66" x="624.5" y="1202.0479"/><text fill="#0A9EFD" font-family="Arial" font-size="14" lengthAdjust="spacing" textLength="52" x="631.5" y="1222.1797">SD-RTN</text><polygon fill="#0A9EFD" points="205.5,113.0474,215.5,117.0474,205.5,121.0474,209.5,117.0474" style="stroke:#0A9EFD;stroke-width:1.0;"/><line style="stroke:#0A9EFD;stroke-width:2.0;" x1="37.5" x2="211.5" y1="117.0474" y2="117.0474"/><text fill="#0A9EFD" font-family="Arial" font-size="13" lengthAdjust="spacing" textLength="58" x="98.5" y="112.2925">Open App</text><line style="stroke:#0A9EFD;stroke-width:2.0;" x1="217.5" x2="259.5" y1="160.9448" y2="160.9448"/><line style="stroke:#0A9EFD;stroke-width:2.0;" x1="259.5" x2="259.5" y1="160.9448" y2="173.9448"/><line style="stroke:#0A9EFD;stroke-width:2.0;" x1="218.5" x2="259.5" y1="173.9448" y2="173.9448"/><polygon fill="#0A9EFD" points="228.5,169.9448,218.5,173.9448,228.5,177.9448,224.5,173.9448" style="stroke:#0A9EFD;stroke-width:1.0;"/><text fill="#0A9EFD" font-family="Arial" font-size="13" lengthAdjust="spacing" textLength="221" x="227" y="141.2412">Initialize the Agora Video SDK engine:</text><text fill="#0A9EFD" font-family="Arial" font-size="13" lengthAdjust="spacing" textLength="226" x="228.5" y="156.1899">agoraEngine = createAgoraRtcEngine()</text><line style="stroke:#0A9EFD;stroke-width:2.0;" x1="217.5" x2="259.5" y1="217.8423" y2="217.8423"/><line style="stroke:#0A9EFD;stroke-width:2.0;" x1="259.5" x2="259.5" y1="217.8423" y2="230.8423"/><line style="stroke:#0A9EFD;stroke-width:2.0;" x1="218.5" x2="259.5" y1="230.8423" y2="230.8423"/><polygon fill="#0A9EFD" points="228.5,226.8423,218.5,230.8423,228.5,234.8423,224.5,230.8423" style="stroke:#0A9EFD;stroke-width:1.0;"/><text fill="#0A9EFD" font-family="Arial" font-size="13" lengthAdjust="spacing" textLength="145" x="227.5" y="198.1387">Enable the video module:</text><text fill="#0A9EFD" font-family="Arial" font-size="13" lengthAdjust="spacing" textLength="147" x="228.5" y="213.0874">agoraEngine.enableVideo</text><line style="stroke:#0A9EFD;stroke-width:2.0;" x1="217.5" x2="259.5" y1="274.7397" y2="274.7397"/><line style="stroke:#0A9EFD;stroke-width:2.0;" x1="259.5" x2="259.5" y1="274.7397" y2="287.7397"/><line style="stroke:#0A9EFD;stroke-width:2.0;" x1="218.5" x2="259.5" y1="287.7397" y2="287.7397"/><polygon fill="#0A9EFD" points="228.5,283.7397,218.5,287.7397,228.5,291.7397,224.5,287.7397" style="stroke:#0A9EFD;stroke-width:1.0;"/><text fill="#0A9EFD" font-family="Arial" font-size="13" lengthAdjust="spacing" textLength="154" x="245" y="255.0361">Register the event handler:</text><text fill="#0A9EFD" font-family="Arial" font-size="13" lengthAdjust="spacing" textLength="195" x="228.5" y="269.9849">agoraEngine.registerEventHandler</text><line style="stroke:#0A9EFD;stroke-width:2.0;" x1="217.5" x2="259.5" y1="331.6372" y2="331.6372"/><line style="stroke:#0A9EFD;stroke-width:2.0;" x1="259.5" x2="259.5" y1="331.6372" y2="344.6372"/><line style="stroke:#0A9EFD;stroke-width:2.0;" x1="218.5" x2="259.5" y1="344.6372" y2="344.6372"/><polygon fill="#0A9EFD" points="228.5,340.6372,218.5,344.6372,228.5,348.6372,224.5,344.6372" style="stroke:#0A9EFD;stroke-width:1.0;"/><text fill="#0A9EFD" font-family="Arial" font-size="13" lengthAdjust="spacing" textLength="174" x="224.5" y="311.9336">Setup AgoraVideoView widget</text><text fill="#0A9EFD" font-family="Arial" font-size="13" lengthAdjust="spacing" textLength="137" x="247" y="326.8823">for local or remote video</text><path d="M10,359.6372 L82,359.6372 L82,366.5859 L72,376.5859 L10,376.5859 L10,359.6372 " fill="#EEEEEE" style="stroke:#0A9EFD;stroke-width:1.5;"/><rect fill="none" height="391.231" style="stroke:#0A9EFD;stroke-width:2.0;" width="690.5" x="10" y="359.6372"/><text fill="#000000" font-family="Arial" font-size="13" lengthAdjust="spacing" textLength="27" x="25" y="372.8311">Host</text><polygon fill="#0A9EFD" points="205.5,393.5347,215.5,397.5347,205.5,401.5347,209.5,397.5347" style="stroke:#0A9EFD;stroke-width:1.0;"/><line style="stroke:#0A9EFD;stroke-width:2.0;" x1="37.5" x2="211.5" y1="397.5347" y2="397.5347"/><text fill="#0A9EFD" font-family="Arial" font-size="13" lengthAdjust="spacing" textLength="156" x="49.5" y="392.7798">Start a live streaming event</text><polygon fill="#0A9EFD" points="645.5,437.4321,655.5,441.4321,645.5,445.4321,649.5,441.4321" style="stroke:#0A9EFD;stroke-width:1.0;"/><line style="stroke:#0A9EFD;stroke-width:2.0;" x1="217.5" x2="651.5" y1="441.4321" y2="441.4321"/><text fill="#0A9EFD" font-family="Arial" font-size="13" lengthAdjust="spacing" textLength="155" x="358" y="421.7285">Set the client role as Host:</text><text fill="#0A9EFD" font-family="Arial" font-size="13" lengthAdjust="spacing" textLength="412" x="233.5" y="436.6772">agoraEngine.setClientRole(role: ClientRoleType.clientRoleBroadcaster);</text><polygon fill="#0A9EFD" points="645.5,481.3296,655.5,485.3296,645.5,489.3296,649.5,485.3296" style="stroke:#0A9EFD;stroke-width:1.0;"/><line style="stroke:#0A9EFD;stroke-width:2.0;" x1="217.5" x2="651.5" y1="485.3296" y2="485.3296"/><text fill="#0A9EFD" font-family="Arial" font-size="13" lengthAdjust="spacing" textLength="122" x="374.5" y="465.626">Set a channel profile:</text><text fill="#0A9EFD" font-family="Arial" font-size="13" lengthAdjust="spacing" textLength="411" x="234" y="480.5747">.setChannelProfile(ChannelProfileType.channelProfileLiveBroadcasting);</text><line style="stroke:#0A9EFD;stroke-width:2.0;" x1="217.5" x2="259.5" y1="514.2783" y2="514.2783"/><line style="stroke:#0A9EFD;stroke-width:2.0;" x1="259.5" x2="259.5" y1="514.2783" y2="527.2783"/><line style="stroke:#0A9EFD;stroke-width:2.0;" x1="218.5" x2="259.5" y1="527.2783" y2="527.2783"/><polygon fill="#0A9EFD" points="228.5,523.2783,218.5,527.2783,228.5,531.2783,224.5,527.2783" style="stroke:#0A9EFD;stroke-width:1.0;"/><text fill="#0A9EFD" font-family="Arial" font-size="13" lengthAdjust="spacing" textLength="167" x="224.5" y="509.5234">Retrieve authentication token</text><polygon fill="#0A9EFD" points="645.5,567.1758,655.5,571.1758,645.5,575.1758,649.5,571.1758" style="stroke:#0A9EFD;stroke-width:1.0;"/><line style="stroke:#0A9EFD;stroke-width:2.0;" x1="217.5" x2="651.5" y1="571.1758" y2="571.1758"/><text fill="#0A9EFD" font-family="Arial" font-size="13" lengthAdjust="spacing" textLength="180" x="347.5" y="551.4722">Join a channel using the token:</text><text fill="#0A9EFD" font-family="Arial" font-size="13" lengthAdjust="spacing" textLength="143" x="368" y="566.4209">agoraEngine.joinChannel</text><polygon fill="#0A9EFD" points="645.5,596.1245,655.5,600.1245,645.5,604.1245,649.5,600.1245" style="stroke:#0A9EFD;stroke-width:1.0;"/><line style="stroke:#0A9EFD;stroke-width:2.0;" x1="217.5" x2="651.5" y1="600.1245" y2="600.1245"/><text fill="#0A9EFD" font-family="Arial" font-size="13" lengthAdjust="spacing" textLength="110" x="382.5" y="595.3696">Send data streams</text><polygon fill="#0A9EFD" points="228.5,640.022,218.5,644.022,228.5,648.022,224.5,644.022" style="stroke:#0A9EFD;stroke-width:1.0;"/><line style="stroke:#0A9EFD;stroke-width:2.0;" x1="222.5" x2="656.5" y1="644.022" y2="644.022"/><text fill="#0A9EFD" font-family="Arial" font-size="13" lengthAdjust="spacing" textLength="116" x="377.5" y="624.3184">Remote user joined:</text><text fill="#0A9EFD" font-family="Arial" font-size="13" lengthAdjust="spacing" textLength="222" x="328.5" y="639.2671">RtcEngineEventHandler onUserJoined:</text><line style="stroke:#0A9EFD;stroke-width:2.0;" x1="217.5" x2="259.5" y1="687.9194" y2="687.9194"/><line style="stroke:#0A9EFD;stroke-width:2.0;" x1="259.5" x2="259.5" y1="687.9194" y2="700.9194"/><line style="stroke:#0A9EFD;stroke-width:2.0;" x1="218.5" x2="259.5" y1="700.9194" y2="700.9194"/><polygon fill="#0A9EFD" points="228.5,696.9194,218.5,700.9194,228.5,704.9194,224.5,700.9194" style="stroke:#0A9EFD;stroke-width:1.0;"/><text fill="#0A9EFD" font-family="Arial" font-size="13" lengthAdjust="spacing" textLength="105" x="249" y="668.2158">Start local peview:</text><text fill="#0A9EFD" font-family="Arial" font-size="13" lengthAdjust="spacing" textLength="154" x="228.5" y="683.1646">agoraEngine.startPreview()</text><line style="stroke:#0A9EFD;stroke-width:2.0;" x1="217.5" x2="259.5" y1="729.8682" y2="729.8682"/><line style="stroke:#0A9EFD;stroke-width:2.0;" x1="259.5" x2="259.5" y1="729.8682" y2="742.8682"/><line style="stroke:#0A9EFD;stroke-width:2.0;" x1="218.5" x2="259.5" y1="742.8682" y2="742.8682"/><polygon fill="#0A9EFD" points="228.5,738.8682,218.5,742.8682,228.5,746.8682,224.5,742.8682" style="stroke:#0A9EFD;stroke-width:1.0;"/><text fill="#0A9EFD" font-family="Arial" font-size="13" lengthAdjust="spacing" textLength="241" x="224.5" y="725.1133">Display local video using AgoraVideoView</text><path d="M10,764.8682 L109,764.8682 L109,771.8169 L99,781.8169 L10,781.8169 L10,764.8682 " fill="#EEEEEE" style="stroke:#0A9EFD;stroke-width:1.5;"/><rect fill="none" height="334.3335" style="stroke:#0A9EFD;stroke-width:2.0;" width="690.5" x="10" y="764.8682"/><text fill="#000000" font-family="Arial" font-size="13" lengthAdjust="spacing" textLength="54" x="25" y="778.062">Audience</text><polygon fill="#0A9EFD" points="205.5,798.7656,215.5,802.7656,205.5,806.7656,209.5,802.7656" style="stroke:#0A9EFD;stroke-width:1.0;"/><line style="stroke:#0A9EFD;stroke-width:2.0;" x1="37.5" x2="211.5" y1="802.7656" y2="802.7656"/><text fill="#0A9EFD" font-family="Arial" font-size="13" lengthAdjust="spacing" textLength="151" x="52" y="798.0107">Join a live streaming event</text><polygon fill="#0A9EFD" points="645.5,842.6631,655.5,846.6631,645.5,850.6631,649.5,846.6631" style="stroke:#0A9EFD;stroke-width:1.0;"/><line style="stroke:#0A9EFD;stroke-width:2.0;" x1="217.5" x2="651.5" y1="846.6631" y2="846.6631"/><text fill="#0A9EFD" font-family="Arial" font-size="13" lengthAdjust="spacing" textLength="182" x="344.5" y="826.9595">Set the client role as Audience:</text><text fill="#0A9EFD" font-family="Arial" font-size="13" lengthAdjust="spacing" textLength="396" x="241.5" y="841.9082">agoraEngine.setClientRole(role: ClientRoleType.clientRoleAudience);</text><polygon fill="#0A9EFD" points="645.5,886.5605,655.5,890.5605,645.5,894.5605,649.5,890.5605" style="stroke:#0A9EFD;stroke-width:1.0;"/><line style="stroke:#0A9EFD;stroke-width:2.0;" x1="217.5" x2="651.5" y1="890.5605" y2="890.5605"/><text fill="#0A9EFD" font-family="Arial" font-size="13" lengthAdjust="spacing" textLength="122" x="374.5" y="870.8569">Set a channel profile:</text><text fill="#0A9EFD" font-family="Arial" font-size="13" lengthAdjust="spacing" textLength="411" x="234" y="885.8057">.setChannelProfile(ChannelProfileType.channelProfileLiveBroadcasting);</text><line style="stroke:#0A9EFD;stroke-width:2.0;" x1="217.5" x2="259.5" y1="919.5093" y2="919.5093"/><line style="stroke:#0A9EFD;stroke-width:2.0;" x1="259.5" x2="259.5" y1="919.5093" y2="932.5093"/><line style="stroke:#0A9EFD;stroke-width:2.0;" x1="218.5" x2="259.5" y1="932.5093" y2="932.5093"/><polygon fill="#0A9EFD" points="228.5,928.5093,218.5,932.5093,228.5,936.5093,224.5,932.5093" style="stroke:#0A9EFD;stroke-width:1.0;"/><text fill="#0A9EFD" font-family="Arial" font-size="13" lengthAdjust="spacing" textLength="167" x="224.5" y="914.7544">Retrieve authentication token</text><polygon fill="#0A9EFD" points="645.5,972.4067,655.5,976.4067,645.5,980.4067,649.5,976.4067" style="stroke:#0A9EFD;stroke-width:1.0;"/><line style="stroke:#0A9EFD;stroke-width:2.0;" x1="217.5" x2="651.5" y1="976.4067" y2="976.4067"/><text fill="#0A9EFD" font-family="Arial" font-size="13" lengthAdjust="spacing" textLength="180" x="347.5" y="956.7031">Join a channel using the token:</text><text fill="#0A9EFD" font-family="Arial" font-size="13" lengthAdjust="spacing" textLength="143" x="368" y="971.6519">agoraEngine.joinChannel</text><polygon fill="#0A9EFD" points="228.5,1016.3042,218.5,1020.3042,228.5,1024.3042,224.5,1020.3042" style="stroke:#0A9EFD;stroke-width:1.0;"/><line style="stroke:#0A9EFD;stroke-width:2.0;" x1="222.5" x2="656.5" y1="1020.3042" y2="1020.3042"/><text fill="#0A9EFD" font-family="Arial" font-size="13" lengthAdjust="spacing" textLength="116" x="377.5" y="1000.6006">Remote user joined:</text><text fill="#0A9EFD" font-family="Arial" font-size="13" lengthAdjust="spacing" textLength="222" x="328.5" y="1015.5493">RtcEngineEventHandler onUserJoined:</text><polygon fill="#0A9EFD" points="228.5,1045.2529,218.5,1049.2529,228.5,1053.2529,224.5,1049.2529" style="stroke:#0A9EFD;stroke-width:1.0;"/><line style="stroke:#0A9EFD;stroke-width:2.0;" x1="222.5" x2="656.5" y1="1049.2529" y2="1049.2529"/><text fill="#0A9EFD" font-family="Arial" font-size="13" lengthAdjust="spacing" textLength="125" x="375" y="1044.498">Receive data streams</text><line style="stroke:#0A9EFD;stroke-width:2.0;" x1="217.5" x2="259.5" y1="1078.2017" y2="1078.2017"/><line style="stroke:#0A9EFD;stroke-width:2.0;" x1="259.5" x2="259.5" y1="1078.2017" y2="1091.2017"/><line style="stroke:#0A9EFD;stroke-width:2.0;" x1="218.5" x2="259.5" y1="1091.2017" y2="1091.2017"/><polygon fill="#0A9EFD" points="228.5,1087.2017,218.5,1091.2017,228.5,1095.2017,224.5,1091.2017" style="stroke:#0A9EFD;stroke-width:1.0;"/><text fill="#0A9EFD" font-family="Arial" font-size="13" lengthAdjust="spacing" textLength="252" x="224.5" y="1073.4468">Render remote video using AgoraVideoView</text><polygon fill="#0A9EFD" points="205.5,1123.1504,215.5,1127.1504,205.5,1131.1504,209.5,1127.1504" style="stroke:#0A9EFD;stroke-width:1.0;"/><line style="stroke:#0A9EFD;stroke-width:2.0;" x1="37.5" x2="211.5" y1="1127.1504" y2="1127.1504"/><text fill="#0A9EFD" font-family="Arial" font-size="13" lengthAdjust="spacing" textLength="94" x="80.5" y="1122.3955">Leave broadcast</text><polygon fill="#0A9EFD" points="645.5,1152.0991,655.5,1156.0991,645.5,1160.0991,649.5,1156.0991" style="stroke:#0A9EFD;stroke-width:1.0;"/><line style="stroke:#0A9EFD;stroke-width:2.0;" x1="217.5" x2="651.5" y1="1156.0991" y2="1156.0991"/><text fill="#0A9EFD" font-family="Arial" font-size="13" lengthAdjust="spacing" textLength="160" x="357.5" y="1151.3442">agoraEngine.leaveChannel()</text><polygon fill="#0A9EFD" points="205.5,1181.0479,215.5,1185.0479,205.5,1189.0479,209.5,1185.0479" style="stroke:#0A9EFD;stroke-width:1.0;"/><line style="stroke:#0A9EFD;stroke-width:2.0;" x1="37.5" x2="211.5" y1="1185.0479" y2="1185.0479"/><text fill="#0A9EFD" font-family="Arial" font-size="13" lengthAdjust="spacing" textLength="58" x="98.5" y="1180.293">Close app</text><!--SRC=[vLNBRXin3BplLx0-EGVx0zm7uCO6uZHeZNKI8421WfQOZHfP4hHQf-dNbvBM3zb03srllLdKSCWXHzutoWZTIG9ihCTlxRCoOzLjT5MX2DR3uAubFm1iuMvLLzNQ_e31W-qye7E3og4FIYY79i3WNacoi9fzIl3fSbcHaS0PVTeqLZZ9MSr6zUtdFc5nIE1YCFeGIIRmnP61gNCLd_R1XL51eLO_2S8JGUA6VGT0fb669l3LP67pT8Rt83nXe0IlWyZXuKL1FJUurfbscmWtLdQQ9YNNc18ibIpIQsfK6yWd0jeIotn28pNvqtR6leVE8-egWmgk5ONEPN6fqBsY5tXHig4GkHvvGTeArC0_F6riw5kkgiPRphooRIXckGeyVK3GQalG1Xx6Hfacjtcel4YLam2XLLJWBK-4bnG9psIq52uJh6RKC48dS0ZSlZeQY_tnexSe1KRP5s_FIY887fOX3SxRHwNp2bE575_cyB0yvXf5w8OLxcknnkDYQKl1AvODsB5Cmux4eAo1O9_956rTMsME-khQEB0ucWGzTSLtHlUzdOXZQqiCs4-zJRVlHlcsphlh-Ar1P22PTEyTUcmGi2Q-oUiCA-sIjfiTuMZBPZdVLOGiVReyyVrCjKxZQv-VhP_LbWQChtHdi6adUR622fFr4_jJZ-qu_yvdEvR_mMJ_o4O76a5nTsTsFUWoaif_dDyuvTWQDuHClDwDh9Z1iK8TSRr4jcd1SQbjI_7xK_q2]--></g></svg>