<?xml version="1.0" encoding="us-ascii" standalone="no"?><svg xmlns="http://www.w3.org/2000/svg" xmlns:xlink="http://www.w3.org/1999/xlink" contentStyleType="text/css" height="1122px" preserveAspectRatio="none" style="width:687px;height:1122px;" version="1.1" viewBox="0 0 687 1122" width="687px" zoomAndPan="magnify"><defs/><g><rect fill="none" height="1120.4028" style="stroke:#0A9EFD;stroke-width:1.0;" width="685.5" x="0" y="0"/><rect fill="#999999" fill-opacity="0.33333" height="1110.4028" style="stroke:#0A9EFD;stroke-width:0.5;" width="90" x="188.5" y="6"/><text fill="#0A9EFD" font-family="sans-serif" font-size="13" font-weight="bold" lengthAdjust="spacing" textLength="57" x="205" y="19.4951">Your app</text><rect fill="#999999" fill-opacity="0.33333" height="1110.4028" style="stroke:#0A9EFD;stroke-width:0.5;" width="74" x="601.5" y="6"/><text fill="#0A9EFD" font-family="sans-serif" font-size="13" font-weight="bold" lengthAdjust="spacing" textLength="38" x="619.5" y="19.4951">Agora</text><rect fill="#0A9EFD" fill-opacity="0.06667" height="261.4873" style="stroke:#0A9EFD;stroke-width:2.0;" width="671.5" x="10" y="332.6372"/><rect fill="#0A9EFD" fill-opacity="0.06667" height="248.4873" style="stroke:#0A9EFD;stroke-width:2.0;" width="671.5" x="10" y="608.1245"/><line style="stroke:#0A9EFD;stroke-width:0.5;stroke-dasharray:5.0,5.0;" x1="37" x2="37" y1="86.0986" y2="1032.3042"/><line style="stroke:#0A9EFD;stroke-width:0.5;stroke-dasharray:5.0,5.0;" x1="233.5" x2="233.5" y1="86.0986" y2="1032.3042"/><line style="stroke:#0A9EFD;stroke-width:0.5;stroke-dasharray:5.0,5.0;" x1="638.5" x2="638.5" y1="86.0986" y2="1032.3042"/><text fill="#0A9EFD" font-family="Arial" font-size="14" lengthAdjust="spacing" textLength="29" x="20" y="83.1318">User</text><ellipse cx="37.5" cy="16" fill="none" rx="8" ry="8" style="stroke:#0A9EFD;stroke-width:3.0;"/><path d="M37.5,24 L37.5,51 M24.5,32 L50.5,32 M37.5,51 L24.5,66 M37.5,51 L50.5,66 " fill="none" style="stroke:#0A9EFD;stroke-width:3.0;"/><text fill="#0A9EFD" font-family="Arial" font-size="14" lengthAdjust="spacing" textLength="29" x="20" y="1044.436">User</text><ellipse cx="37.5" cy="1058.4028" fill="none" rx="8" ry="8" style="stroke:#0A9EFD;stroke-width:3.0;"/><path d="M37.5,1066.4028 L37.5,1093.4028 M24.5,1074.4028 L50.5,1074.4028 M37.5,1093.4028 L24.5,1108.4028 M37.5,1093.4028 L50.5,1108.4028 " fill="none" style="stroke:#0A9EFD;stroke-width:3.0;"/><rect fill="none" height="30.0986" rx="2.5" ry="2.5" style="stroke:#0A9EFD;stroke-width:2.0;" width="82" x="192.5" y="55"/><text fill="#0A9EFD" font-family="Arial" font-size="14" lengthAdjust="spacing" textLength="68" x="199.5" y="75.1318">Video SDK</text><rect fill="none" height="30.0986" rx="2.5" ry="2.5" style="stroke:#0A9EFD;stroke-width:2.0;" width="82" x="192.5" y="1031.3042"/><text fill="#0A9EFD" font-family="Arial" font-size="14" lengthAdjust="spacing" textLength="68" x="199.5" y="1051.436">Video SDK</text><rect fill="none" height="30.0986" rx="2.5" ry="2.5" style="stroke:#0A9EFD;stroke-width:2.0;" width="66" x="605.5" y="55"/><text fill="#0A9EFD" font-family="Arial" font-size="14" lengthAdjust="spacing" textLength="52" x="612.5" y="75.1318">SD-RTN</text><rect fill="none" height="30.0986" rx="2.5" ry="2.5" style="stroke:#0A9EFD;stroke-width:2.0;" width="66" x="605.5" y="1031.3042"/><text fill="#0A9EFD" font-family="Arial" font-size="14" lengthAdjust="spacing" textLength="52" x="612.5" y="1051.436">SD-RTN</text><polygon fill="#0A9EFD" points="221.5,113.0474,231.5,117.0474,221.5,121.0474,225.5,117.0474" style="stroke:#0A9EFD;stroke-width:1.0;"/><line style="stroke:#0A9EFD;stroke-width:2.0;" x1="37.5" x2="227.5" y1="117.0474" y2="117.0474"/><text fill="#0A9EFD" font-family="Arial" font-size="13" lengthAdjust="spacing" textLength="58" x="106.5" y="112.2925">Open App</text><line style="stroke:#0A9EFD;stroke-width:2.0;" x1="233.5" x2="275.5" y1="160.9448" y2="160.9448"/><line style="stroke:#0A9EFD;stroke-width:2.0;" x1="275.5" x2="275.5" y1="160.9448" y2="173.9448"/><line style="stroke:#0A9EFD;stroke-width:2.0;" x1="234.5" x2="275.5" y1="173.9448" y2="173.9448"/><polygon fill="#0A9EFD" points="244.5,169.9448,234.5,173.9448,244.5,177.9448,240.5,173.9448" style="stroke:#0A9EFD;stroke-width:1.0;"/><text fill="#0A9EFD" font-family="Arial" font-size="13" lengthAdjust="spacing" textLength="212" x="246" y="141.2412">Initiate the Agora Video SDK engine:</text><text fill="#0A9EFD" font-family="Arial" font-size="13" lengthAdjust="spacing" textLength="223" x="244.5" y="156.1899">agora::rtc::ue::createAgoraRtcEngine()</text><line style="stroke:#0A9EFD;stroke-width:2.0;" x1="233.5" x2="275.5" y1="232.791" y2="232.791"/><line style="stroke:#0A9EFD;stroke-width:2.0;" x1="275.5" x2="275.5" y1="232.791" y2="245.791"/><line style="stroke:#0A9EFD;stroke-width:2.0;" x1="234.5" x2="275.5" y1="245.791" y2="245.791"/><polygon fill="#0A9EFD" points="244.5,241.791,234.5,245.791,244.5,249.791,240.5,245.791" style="stroke:#0A9EFD;stroke-width:1.0;"/><text fill="#0A9EFD" font-family="Arial" font-size="13" lengthAdjust="spacing" textLength="212" x="240.5" y="198.1387">Enable the audio and video modules:</text><text fill="#0A9EFD" font-family="Arial" font-size="13" lengthAdjust="spacing" textLength="155" x="271" y="213.0874">agoraEngine.enableVideo()</text><text fill="#0A9EFD" font-family="Arial" font-size="13" lengthAdjust="spacing" textLength="155" x="273" y="228.0361">agoraEngine.enableAudio()</text><line style="stroke:#0A9EFD;stroke-width:2.0;" x1="233.5" x2="275.5" y1="304.6372" y2="304.6372"/><line style="stroke:#0A9EFD;stroke-width:2.0;" x1="275.5" x2="275.5" y1="304.6372" y2="317.6372"/><line style="stroke:#0A9EFD;stroke-width:2.0;" x1="234.5" x2="275.5" y1="317.6372" y2="317.6372"/><polygon fill="#0A9EFD" points="244.5,313.6372,234.5,317.6372,244.5,321.6372,240.5,317.6372" style="stroke:#0A9EFD;stroke-width:1.0;"/><text fill="#0A9EFD" font-family="Arial" font-size="13" lengthAdjust="spacing" textLength="133" x="367.5" y="269.9849">Set the channel profile:</text><text fill="#0A9EFD" font-family="Arial" font-size="13" lengthAdjust="spacing" textLength="152" x="360" y="284.9336">RtcEngineContext context</text><text fill="#0A9EFD" font-family="Arial" font-size="13" lengthAdjust="spacing" textLength="387" x="244.5" y="299.8823">context.channelProfile = CHANNEL_PROFILE_COMMUNICATION;</text><path d="M10,332.6372 L82,332.6372 L82,339.5859 L72,349.5859 L10,349.5859 L10,332.6372 " fill="#EEEEEE" style="stroke:#0A9EFD;stroke-width:1.5;"/><rect fill="none" height="261.4873" style="stroke:#0A9EFD;stroke-width:2.0;" width="671.5" x="10" y="332.6372"/><text fill="#000000" font-family="Arial" font-size="13" lengthAdjust="spacing" textLength="27" x="25" y="345.8311">Host</text><polygon fill="#0A9EFD" points="221.5,366.5347,231.5,370.5347,221.5,374.5347,225.5,370.5347" style="stroke:#0A9EFD;stroke-width:1.0;"/><line style="stroke:#0A9EFD;stroke-width:2.0;" x1="37.5" x2="227.5" y1="370.5347" y2="370.5347"/><text fill="#0A9EFD" font-family="Arial" font-size="13" lengthAdjust="spacing" textLength="156" x="57.5" y="365.7798">Start a live streaming event</text><line style="stroke:#0A9EFD;stroke-width:2.0;" x1="233.5" x2="275.5" y1="399.4834" y2="399.4834"/><line style="stroke:#0A9EFD;stroke-width:2.0;" x1="275.5" x2="275.5" y1="399.4834" y2="412.4834"/><line style="stroke:#0A9EFD;stroke-width:2.0;" x1="234.5" x2="275.5" y1="412.4834" y2="412.4834"/><polygon fill="#0A9EFD" points="244.5,408.4834,234.5,412.4834,244.5,416.4834,240.5,412.4834" style="stroke:#0A9EFD;stroke-width:1.0;"/><text fill="#0A9EFD" font-family="Arial" font-size="13" lengthAdjust="spacing" textLength="255" x="240.5" y="394.7285">Retrieve authentication token to join channel</text><polygon fill="#0A9EFD" points="626.5,452.3809,636.5,456.3809,626.5,460.3809,630.5,456.3809" style="stroke:#0A9EFD;stroke-width:1.0;"/><line style="stroke:#0A9EFD;stroke-width:2.0;" x1="233.5" x2="632.5" y1="456.3809" y2="456.3809"/><text fill="#0A9EFD" font-family="Arial" font-size="13" lengthAdjust="spacing" textLength="118" x="377" y="436.6772">Set the role as host:</text><text fill="#0A9EFD" font-family="Arial" font-size="13" lengthAdjust="spacing" textLength="360" x="260" y="451.626">agoraEngine-&gt;setClientRole(CLIENT_ROLE_BROADCASTER)</text><line style="stroke:#0A9EFD;stroke-width:2.0;" x1="233.5" x2="275.5" y1="500.2783" y2="500.2783"/><line style="stroke:#0A9EFD;stroke-width:2.0;" x1="275.5" x2="275.5" y1="500.2783" y2="513.2783"/><line style="stroke:#0A9EFD;stroke-width:2.0;" x1="234.5" x2="275.5" y1="513.2783" y2="513.2783"/><polygon fill="#0A9EFD" points="244.5,509.2783,234.5,513.2783,244.5,517.2783,240.5,513.2783" style="stroke:#0A9EFD;stroke-width:1.0;"/><text fill="#0A9EFD" font-family="Arial" font-size="13" lengthAdjust="spacing" textLength="102" x="317" y="480.5747">Setup local video:</text><text fill="#0A9EFD" font-family="Arial" font-size="13" lengthAdjust="spacing" textLength="251" x="244.5" y="495.5234">agoraEngine.setupLocalVideo(videoCanvas)</text><polygon fill="#0A9EFD" points="626.5,553.1758,636.5,557.1758,626.5,561.1758,630.5,557.1758" style="stroke:#0A9EFD;stroke-width:1.0;"/><line style="stroke:#0A9EFD;stroke-width:2.0;" x1="233.5" x2="632.5" y1="557.1758" y2="557.1758"/><text fill="#0A9EFD" font-family="Arial" font-size="13" lengthAdjust="spacing" textLength="134" x="367" y="537.4722">Join a channel as host:</text><text fill="#0A9EFD" font-family="Arial" font-size="13" lengthAdjust="spacing" textLength="151" x="362.5" y="552.4209">agoraEngine-&gt;joinChannel</text><polygon fill="#0A9EFD" points="626.5,582.1245,636.5,586.1245,626.5,590.1245,630.5,586.1245" style="stroke:#0A9EFD;stroke-width:1.0;"/><line style="stroke:#0A9EFD;stroke-width:2.0;" x1="233.5" x2="632.5" y1="586.1245" y2="586.1245"/><text fill="#0A9EFD" font-family="Arial" font-size="13" lengthAdjust="spacing" textLength="103" x="384.5" y="581.3696">Send data stream</text><path d="M10,608.1245 L109,608.1245 L109,615.0732 L99,625.0732 L10,625.0732 L10,608.1245 " fill="#EEEEEE" style="stroke:#0A9EFD;stroke-width:1.5;"/><rect fill="none" height="248.4873" style="stroke:#0A9EFD;stroke-width:2.0;" width="671.5" x="10" y="608.1245"/><text fill="#000000" font-family="Arial" font-size="13" lengthAdjust="spacing" textLength="54" x="25" y="621.3184">Audience</text><polygon fill="#0A9EFD" points="221.5,642.022,231.5,646.022,221.5,650.022,225.5,646.022" style="stroke:#0A9EFD;stroke-width:1.0;"/><line style="stroke:#0A9EFD;stroke-width:2.0;" x1="37.5" x2="227.5" y1="646.022" y2="646.022"/><text fill="#0A9EFD" font-family="Arial" font-size="13" lengthAdjust="spacing" textLength="151" x="60" y="641.2671">Join a live streaming event</text><line style="stroke:#0A9EFD;stroke-width:2.0;" x1="233.5" x2="275.5" y1="674.9707" y2="674.9707"/><line style="stroke:#0A9EFD;stroke-width:2.0;" x1="275.5" x2="275.5" y1="674.9707" y2="687.9707"/><line style="stroke:#0A9EFD;stroke-width:2.0;" x1="234.5" x2="275.5" y1="687.9707" y2="687.9707"/><polygon fill="#0A9EFD" points="244.5,683.9707,234.5,687.9707,244.5,691.9707,240.5,687.9707" style="stroke:#0A9EFD;stroke-width:1.0;"/><text fill="#0A9EFD" font-family="Arial" font-size="13" lengthAdjust="spacing" textLength="255" x="240.5" y="670.2158">Retrieve authentication token to join channel</text><polygon fill="#0A9EFD" points="626.5,727.8682,636.5,731.8682,626.5,735.8682,630.5,731.8682" style="stroke:#0A9EFD;stroke-width:1.0;"/><line style="stroke:#0A9EFD;stroke-width:2.0;" x1="233.5" x2="632.5" y1="731.8682" y2="731.8682"/><text fill="#0A9EFD" font-family="Arial" font-size="13" lengthAdjust="spacing" textLength="174" x="347" y="712.1646">Set the user role as audience:</text><text fill="#0A9EFD" font-family="Arial" font-size="13" lengthAdjust="spacing" textLength="328" x="274" y="727.1133">agoraEngine-&gt;setClientRole(CLIENT_ROLE_AUDIENCE)</text><polygon fill="#0A9EFD" points="626.5,771.7656,636.5,775.7656,626.5,779.7656,630.5,775.7656" style="stroke:#0A9EFD;stroke-width:1.0;"/><line style="stroke:#0A9EFD;stroke-width:2.0;" x1="233.5" x2="632.5" y1="775.7656" y2="775.7656"/><text fill="#0A9EFD" font-family="Arial" font-size="13" lengthAdjust="spacing" textLength="98" x="385" y="756.062">Join the channel:</text><text fill="#0A9EFD" font-family="Arial" font-size="13" lengthAdjust="spacing" textLength="151" x="362.5" y="771.0107">agoraEngine-&gt;joinChannel</text><polygon fill="#0A9EFD" points="626.5,815.6631,636.5,819.6631,626.5,823.6631,630.5,819.6631" style="stroke:#0A9EFD;stroke-width:1.0;"/><line style="stroke:#0A9EFD;stroke-width:2.0;" x1="233.5" x2="632.5" y1="819.6631" y2="819.6631"/><text fill="#0A9EFD" font-family="Arial" font-size="13" lengthAdjust="spacing" textLength="198" x="335" y="799.9595">Retrieve streaming from the hosts:</text><text fill="#0A9EFD" font-family="Arial" font-size="13" lengthAdjust="spacing" textLength="194" x="341" y="814.9082">agoraEngine-&gt;setupRemoteVideo</text><polygon fill="#0A9EFD" points="244.5,844.6118,234.5,848.6118,244.5,852.6118,240.5,848.6118" style="stroke:#0A9EFD;stroke-width:1.0;"/><line style="stroke:#0A9EFD;stroke-width:2.0;" x1="238.5" x2="637.5" y1="848.6118" y2="848.6118"/><text fill="#0A9EFD" font-family="Arial" font-size="13" lengthAdjust="spacing" textLength="118" x="377" y="843.8569">Receive data stream</text><polygon fill="#0A9EFD" points="221.5,880.5605,231.5,884.5605,221.5,888.5605,225.5,884.5605" style="stroke:#0A9EFD;stroke-width:1.0;"/><line style="stroke:#0A9EFD;stroke-width:2.0;" x1="37.5" x2="227.5" y1="884.5605" y2="884.5605"/><text fill="#0A9EFD" font-family="Arial" font-size="13" lengthAdjust="spacing" textLength="172" x="49.5" y="879.8057">Leave the live streaming event</text><polygon fill="#0A9EFD" points="626.5,924.458,636.5,928.458,626.5,932.458,630.5,928.458" style="stroke:#0A9EFD;stroke-width:1.0;"/><line style="stroke:#0A9EFD;stroke-width:2.0;" x1="233.5" x2="632.5" y1="928.458" y2="928.458"/><text fill="#0A9EFD" font-family="Arial" font-size="13" lengthAdjust="spacing" textLength="108" x="380" y="908.7544">Leave the channel:</text><text fill="#0A9EFD" font-family="Arial" font-size="13" lengthAdjust="spacing" textLength="168" x="354" y="923.7031">agoraEngine-&gt;leaveChannel()</text><polygon fill="#0A9EFD" points="221.5,953.4067,231.5,957.4067,221.5,961.4067,225.5,957.4067" style="stroke:#0A9EFD;stroke-width:1.0;"/><line style="stroke:#0A9EFD;stroke-width:2.0;" x1="37.5" x2="227.5" y1="957.4067" y2="957.4067"/><text fill="#0A9EFD" font-family="Arial" font-size="13" lengthAdjust="spacing" textLength="58" x="106.5" y="952.6519">Close app</text><line style="stroke:#0A9EFD;stroke-width:2.0;" x1="233.5" x2="275.5" y1="1001.3042" y2="1001.3042"/><line style="stroke:#0A9EFD;stroke-width:2.0;" x1="275.5" x2="275.5" y1="1001.3042" y2="1014.3042"/><line style="stroke:#0A9EFD;stroke-width:2.0;" x1="234.5" x2="275.5" y1="1014.3042" y2="1014.3042"/><polygon fill="#0A9EFD" points="244.5,1010.3042,234.5,1014.3042,244.5,1018.3042,240.5,1014.3042" style="stroke:#0A9EFD;stroke-width:1.0;"/><text fill="#0A9EFD" font-family="Arial" font-size="13" lengthAdjust="spacing" textLength="143" x="240.5" y="981.6006">Clean up local resources</text><text fill="#0A9EFD" font-family="Arial" font-size="13" lengthAdjust="spacing" textLength="134" x="249" y="996.5493">agoraEngine-&gt;release()</text><!--SRC=[fLHTZvim47pthzZcANb8VW1L8r52TRGvY4XoKgLAaG_s4lU8ZMmJtS_l6WY1V5IL-X82tfcTcRNzISYig784lbUQxyoxa3DH7Gl66C-iqZ3Q6jGZu0QswvInL_K1ev-gqi3BSiHOoRKLcIYvj31w4JagM2z-rFN-QiKOoXm8qm9zr-GQjLvCqqtSGg8UX1h2TEvuF4XAbE2N9QEtxcCaXHNS8jW3GiqDdGH0kHSIFVWb6s-UfstcUHLwNgQHK3KWjLbO5uud0-fGyjUY8UPLBXHmKdMgoOyghmeq5-Q6O8Orf1OmdjnVz1tLLQSrshfDTk1IOW6bLc-YQ8HtwW8bBNvOoDedhRL_PorkrS3W2mHFVXo7ozqgJRv5ot0N9C_FspWA_4sKn9yPssjLbV2aZ1qalBOq5E1GY1E2iHJHKSWzu0cbTOAdyxeiHQi5VQHOIBMaCN8hb0Ihtj7zmcybvDdCnMXqCQeLoQHX7qY1HqRwEKtd1crG229EgMmSBACmtkpIX7nyJHD_4VZhJPZU94Y62fNneXcHTnM-SGLBjzvCfouAk3nnCnb8_EwqysuKPv5NmvpEdSVWhaNQ9Jctl0tGxULpu6xsA3CSXDusV9HvL_V_gLTqZBleUQlbrjdZ-FtjWbw2y4vYlUtxxrbrbYw-txGwrcGkTNDNN5McU5IsEMR45_KYoj35U1D_F-ybybDpglyUUTGlVMYjS2MjDphLWqv1eGowIt8mnu0W4hhTgj7GLPgXkJa66gdIk5k9_G40]--></g></svg>