<?xml version="1.0" encoding="us-ascii" standalone="no"?><svg xmlns="http://www.w3.org/2000/svg" xmlns:xlink="http://www.w3.org/1999/xlink" contentStyleType="text/css" height="857px" preserveAspectRatio="none" style="width:642px;height:857px;" version="1.1" viewBox="0 0 642 857" width="642px" zoomAndPan="magnify"><defs/><g><rect fill="none" height="855.1719" style="stroke:#0A9EFD;stroke-width:1.0;" width="640.5" x="0" y="0"/><rect fill="#999999" fill-opacity="0.33333" height="845.1719" style="stroke:#0A9EFD;stroke-width:0.5;" width="90" x="106.5" y="6"/><text fill="#0A9EFD" font-family="sans-serif" font-size="13" font-weight="bold" lengthAdjust="spacing" textLength="57" x="123" y="19.4951">Your app</text><rect fill="#999999" fill-opacity="0.33333" height="845.1719" style="stroke:#0A9EFD;stroke-width:0.5;" width="74" x="556.5" y="6"/><text fill="#0A9EFD" font-family="sans-serif" font-size="13" font-weight="bold" lengthAdjust="spacing" textLength="38" x="574.5" y="19.4951">Agora</text><rect fill="#0A9EFD" fill-opacity="0.06667" height="187.6924" style="stroke:#0A9EFD;stroke-width:2.0;" width="626.5" x="10" y="215.9448"/><rect fill="#0A9EFD" fill-opacity="0.06667" height="174.6924" style="stroke:#0A9EFD;stroke-width:2.0;" width="626.5" x="10" y="417.6372"/><line style="stroke:#0A9EFD;stroke-width:0.5;stroke-dasharray:5.0,5.0;" x1="37" x2="37" y1="86.0986" y2="767.0732"/><line style="stroke:#0A9EFD;stroke-width:0.5;stroke-dasharray:5.0,5.0;" x1="151.5" x2="151.5" y1="86.0986" y2="767.0732"/><line style="stroke:#0A9EFD;stroke-width:0.5;stroke-dasharray:5.0,5.0;" x1="593.5" x2="593.5" y1="86.0986" y2="767.0732"/><text fill="#0A9EFD" font-family="Arial" font-size="14" lengthAdjust="spacing" textLength="29" x="20" y="83.1318">User</text><ellipse cx="37.5" cy="16" fill="none" rx="8" ry="8" style="stroke:#0A9EFD;stroke-width:3.0;"/><path d="M37.5,24 L37.5,51 M24.5,32 L50.5,32 M37.5,51 L24.5,66 M37.5,51 L50.5,66 " fill="none" style="stroke:#0A9EFD;stroke-width:3.0;"/><text fill="#0A9EFD" font-family="Arial" font-size="14" lengthAdjust="spacing" textLength="29" x="20" y="779.2051">User</text><ellipse cx="37.5" cy="793.1719" fill="none" rx="8" ry="8" style="stroke:#0A9EFD;stroke-width:3.0;"/><path d="M37.5,801.1719 L37.5,828.1719 M24.5,809.1719 L50.5,809.1719 M37.5,828.1719 L24.5,843.1719 M37.5,828.1719 L50.5,843.1719 " fill="none" style="stroke:#0A9EFD;stroke-width:3.0;"/><rect fill="none" height="30.0986" rx="2.5" ry="2.5" style="stroke:#0A9EFD;stroke-width:2.0;" width="82" x="110.5" y="55"/><text fill="#0A9EFD" font-family="Arial" font-size="14" lengthAdjust="spacing" textLength="68" x="117.5" y="75.1318">Video SDK</text><rect fill="none" height="30.0986" rx="2.5" ry="2.5" style="stroke:#0A9EFD;stroke-width:2.0;" width="82" x="110.5" y="766.0732"/><text fill="#0A9EFD" font-family="Arial" font-size="14" lengthAdjust="spacing" textLength="68" x="117.5" y="786.2051">Video SDK</text><rect fill="none" height="30.0986" rx="2.5" ry="2.5" style="stroke:#0A9EFD;stroke-width:2.0;" width="66" x="560.5" y="55"/><text fill="#0A9EFD" font-family="Arial" font-size="14" lengthAdjust="spacing" textLength="52" x="567.5" y="75.1318">SD-RTN</text><rect fill="none" height="30.0986" rx="2.5" ry="2.5" style="stroke:#0A9EFD;stroke-width:2.0;" width="66" x="560.5" y="766.0732"/><text fill="#0A9EFD" font-family="Arial" font-size="14" lengthAdjust="spacing" textLength="52" x="567.5" y="786.2051">SD-RTN</text><polygon fill="#0A9EFD" points="139.5,113.0474,149.5,117.0474,139.5,121.0474,143.5,117.0474" style="stroke:#0A9EFD;stroke-width:1.0;"/><line style="stroke:#0A9EFD;stroke-width:2.0;" x1="37.5" x2="145.5" y1="117.0474" y2="117.0474"/><text fill="#0A9EFD" font-family="Arial" font-size="13" lengthAdjust="spacing" textLength="56" x="66.5" y="112.2925">Open app</text><line style="stroke:#0A9EFD;stroke-width:2.0;" x1="151.5" x2="193.5" y1="145.9961" y2="145.9961"/><line style="stroke:#0A9EFD;stroke-width:2.0;" x1="193.5" x2="193.5" y1="145.9961" y2="158.9961"/><line style="stroke:#0A9EFD;stroke-width:2.0;" x1="152.5" x2="193.5" y1="158.9961" y2="158.9961"/><polygon fill="#0A9EFD" points="162.5,154.9961,152.5,158.9961,162.5,162.9961,158.5,158.9961" style="stroke:#0A9EFD;stroke-width:1.0;"/><text fill="#0A9EFD" font-family="Arial" font-size="13" lengthAdjust="spacing" textLength="174" x="158.5" y="141.2412">Initiate the Video SDK engine.</text><line style="stroke:#0A9EFD;stroke-width:2.0;" x1="151.5" x2="193.5" y1="187.9448" y2="187.9448"/><line style="stroke:#0A9EFD;stroke-width:2.0;" x1="193.5" x2="193.5" y1="187.9448" y2="200.9448"/><line style="stroke:#0A9EFD;stroke-width:2.0;" x1="152.5" x2="193.5" y1="200.9448" y2="200.9448"/><polygon fill="#0A9EFD" points="162.5,196.9448,152.5,200.9448,162.5,204.9448,158.5,200.9448" style="stroke:#0A9EFD;stroke-width:1.0;"/><text fill="#0A9EFD" font-family="Arial" font-size="13" lengthAdjust="spacing" textLength="143" x="158.5" y="183.1899">Start video in the engine.</text><path d="M10,215.9448 L82,215.9448 L82,222.8936 L72,232.8936 L10,232.8936 L10,215.9448 " fill="#EEEEEE" style="stroke:#0A9EFD;stroke-width:1.5;"/><rect fill="none" height="187.6924" style="stroke:#0A9EFD;stroke-width:2.0;" width="626.5" x="10" y="215.9448"/><text fill="#000000" font-family="Arial" font-size="13" lengthAdjust="spacing" textLength="27" x="25" y="229.1387">Host</text><polygon fill="#0A9EFD" points="139.5,249.8423,149.5,253.8423,139.5,257.8423,143.5,253.8423" style="stroke:#0A9EFD;stroke-width:1.0;"/><line style="stroke:#0A9EFD;stroke-width:2.0;" x1="37.5" x2="145.5" y1="253.8423" y2="253.8423"/><text fill="#0A9EFD" font-family="Arial" font-size="13" lengthAdjust="spacing" textLength="85" x="52" y="249.0874">Start ILS event</text><line style="stroke:#0A9EFD;stroke-width:2.0;" x1="151.5" x2="193.5" y1="282.791" y2="282.791"/><line style="stroke:#0A9EFD;stroke-width:2.0;" x1="193.5" x2="193.5" y1="282.791" y2="295.791"/><line style="stroke:#0A9EFD;stroke-width:2.0;" x1="152.5" x2="193.5" y1="295.791" y2="295.791"/><polygon fill="#0A9EFD" points="162.5,291.791,152.5,295.791,162.5,299.791,158.5,295.791" style="stroke:#0A9EFD;stroke-width:1.0;"/><text fill="#0A9EFD" font-family="Arial" font-size="13" lengthAdjust="spacing" textLength="326" x="158.5" y="278.0361">In an ILS event, only the hosts broadcast to the channel.</text><line style="stroke:#0A9EFD;stroke-width:2.0;" x1="151.5" x2="193.5" y1="324.7397" y2="324.7397"/><line style="stroke:#0A9EFD;stroke-width:2.0;" x1="193.5" x2="193.5" y1="324.7397" y2="337.7397"/><line style="stroke:#0A9EFD;stroke-width:2.0;" x1="152.5" x2="193.5" y1="337.7397" y2="337.7397"/><polygon fill="#0A9EFD" points="162.5,333.7397,152.5,337.7397,162.5,341.7397,158.5,337.7397" style="stroke:#0A9EFD;stroke-width:1.0;"/><text fill="#0A9EFD" font-family="Arial" font-size="13" lengthAdjust="spacing" textLength="96" x="158.5" y="319.9849">Start local video.</text><polygon fill="#0A9EFD" points="581.5,362.6885,591.5,366.6885,581.5,370.6885,585.5,366.6885" style="stroke:#0A9EFD;stroke-width:1.0;"/><line style="stroke:#0A9EFD;stroke-width:2.0;" x1="151.5" x2="587.5" y1="366.6885" y2="366.6885"/><text fill="#0A9EFD" font-family="Arial" font-size="13" lengthAdjust="spacing" textLength="98" x="323.5" y="361.9336">Join the channel.</text><polygon fill="#0A9EFD" points="581.5,391.6372,591.5,395.6372,581.5,399.6372,585.5,395.6372" style="stroke:#0A9EFD;stroke-width:1.0;"/><line style="stroke:#0A9EFD;stroke-width:2.0;" x1="151.5" x2="587.5" y1="395.6372" y2="395.6372"/><text fill="#0A9EFD" font-family="Arial" font-size="13" lengthAdjust="spacing" textLength="107" x="319" y="390.8823">Send data stream.</text><path d="M10,417.6372 L109,417.6372 L109,424.5859 L99,434.5859 L10,434.5859 L10,417.6372 " fill="#EEEEEE" style="stroke:#0A9EFD;stroke-width:1.5;"/><rect fill="none" height="174.6924" style="stroke:#0A9EFD;stroke-width:2.0;" width="626.5" x="10" y="417.6372"/><text fill="#000000" font-family="Arial" font-size="13" lengthAdjust="spacing" textLength="54" x="25" y="430.8311">Audience</text><polygon fill="#0A9EFD" points="139.5,451.5347,149.5,455.5347,139.5,459.5347,143.5,455.5347" style="stroke:#0A9EFD;stroke-width:1.0;"/><line style="stroke:#0A9EFD;stroke-width:2.0;" x1="37.5" x2="145.5" y1="455.5347" y2="455.5347"/><text fill="#0A9EFD" font-family="Arial" font-size="13" lengthAdjust="spacing" textLength="80" x="54.5" y="450.7798">Join ILS event</text><line style="stroke:#0A9EFD;stroke-width:2.0;" x1="151.5" x2="193.5" y1="484.4834" y2="484.4834"/><line style="stroke:#0A9EFD;stroke-width:2.0;" x1="193.5" x2="193.5" y1="484.4834" y2="497.4834"/><line style="stroke:#0A9EFD;stroke-width:2.0;" x1="152.5" x2="193.5" y1="497.4834" y2="497.4834"/><polygon fill="#0A9EFD" points="162.5,493.4834,152.5,497.4834,162.5,501.4834,158.5,497.4834" style="stroke:#0A9EFD;stroke-width:1.0;"/><text fill="#0A9EFD" font-family="Arial" font-size="13" lengthAdjust="spacing" textLength="428" x="158.5" y="479.7285">In an ILS event, the audience views the broadcast made by channel hosts.</text><polygon fill="#0A9EFD" points="581.5,522.4321,591.5,526.4321,581.5,530.4321,585.5,526.4321" style="stroke:#0A9EFD;stroke-width:1.0;"/><line style="stroke:#0A9EFD;stroke-width:2.0;" x1="151.5" x2="587.5" y1="526.4321" y2="526.4321"/><text fill="#0A9EFD" font-family="Arial" font-size="13" lengthAdjust="spacing" textLength="98" x="323.5" y="521.6772">Join the channel.</text><polygon fill="#0A9EFD" points="581.5,551.3809,591.5,555.3809,581.5,559.3809,585.5,555.3809" style="stroke:#0A9EFD;stroke-width:1.0;"/><line style="stroke:#0A9EFD;stroke-width:2.0;" x1="151.5" x2="587.5" y1="555.3809" y2="555.3809"/><text fill="#0A9EFD" font-family="Arial" font-size="13" lengthAdjust="spacing" textLength="224" x="260.5" y="550.626">Retrieve streaming from the other user.</text><polygon fill="#0A9EFD" points="162.5,580.3296,152.5,584.3296,162.5,588.3296,158.5,584.3296" style="stroke:#0A9EFD;stroke-width:1.0;"/><polygon fill="#0A9EFD" points="581.5,580.3296,591.5,584.3296,581.5,588.3296,585.5,584.3296" style="stroke:#0A9EFD;stroke-width:1.0;"/><line style="stroke:#0A9EFD;stroke-width:2.0;" x1="156.5" x2="587.5" y1="584.3296" y2="584.3296"/><text fill="#0A9EFD" font-family="Arial" font-size="13" lengthAdjust="spacing" textLength="125" x="310" y="579.5747">Receive data streams</text><polygon fill="#0A9EFD" points="139.5,616.2783,149.5,620.2783,139.5,624.2783,143.5,620.2783" style="stroke:#0A9EFD;stroke-width:1.0;"/><line style="stroke:#0A9EFD;stroke-width:2.0;" x1="37.5" x2="145.5" y1="620.2783" y2="620.2783"/><text fill="#0A9EFD" font-family="Arial" font-size="13" lengthAdjust="spacing" textLength="90" x="49.5" y="615.5234">Leave ILS event</text><polygon fill="#0A9EFD" points="581.5,645.2271,591.5,649.2271,581.5,653.2271,585.5,649.2271" style="stroke:#0A9EFD;stroke-width:1.0;"/><line style="stroke:#0A9EFD;stroke-width:2.0;" x1="151.5" x2="587.5" y1="649.2271" y2="649.2271"/><text fill="#0A9EFD" font-family="Arial" font-size="13" lengthAdjust="spacing" textLength="95" x="325" y="644.4722">Stop local video.</text><polygon fill="#0A9EFD" points="581.5,674.1758,591.5,678.1758,581.5,682.1758,585.5,678.1758" style="stroke:#0A9EFD;stroke-width:1.0;"/><line style="stroke:#0A9EFD;stroke-width:2.0;" x1="151.5" x2="587.5" y1="678.1758" y2="678.1758"/><text fill="#0A9EFD" font-family="Arial" font-size="13" lengthAdjust="spacing" textLength="108" x="318.5" y="673.4209">Leave the channel.</text><polygon fill="#0A9EFD" points="139.5,703.1245,149.5,707.1245,139.5,711.1245,143.5,707.1245" style="stroke:#0A9EFD;stroke-width:1.0;"/><line style="stroke:#0A9EFD;stroke-width:2.0;" x1="37.5" x2="145.5" y1="707.1245" y2="707.1245"/><text fill="#0A9EFD" font-family="Arial" font-size="13" lengthAdjust="spacing" textLength="58" x="65.5" y="702.3696">Close app</text><line style="stroke:#0A9EFD;stroke-width:2.0;" x1="151.5" x2="193.5" y1="736.0732" y2="736.0732"/><line style="stroke:#0A9EFD;stroke-width:2.0;" x1="193.5" x2="193.5" y1="736.0732" y2="749.0732"/><line style="stroke:#0A9EFD;stroke-width:2.0;" x1="152.5" x2="193.5" y1="749.0732" y2="749.0732"/><polygon fill="#0A9EFD" points="162.5,745.0732,152.5,749.0732,162.5,753.0732,158.5,749.0732" style="stroke:#0A9EFD;stroke-width:1.0;"/><text fill="#0A9EFD" font-family="Arial" font-size="13" lengthAdjust="spacing" textLength="147" x="158.5" y="731.3184">Clean up local resources.</text><!--SRC=[bLFDJiCm3BxdAKpFR0ym8QHfEr2OO6eP4YVafQQBI9CgIGTxUvAqtTen9BXKYktlptAlXEAoAGYmr0RVx8TGKz5KaZ7aJXj8DfPC0cXXasUCRVKN9A-wCO1rdJ1Met62YngLW-H55AGXNpx4-VbwpHYf0Zoc0yw3nZagNqwovySEaWuWNX0cju5d1ayrgI39_EjOJ9Lm0Xs1sn4SnO5KAHHDHwEvyvAmZpD2HK0_nagZcnhkj7KZoHQIhdAWFIbtfWoeJhrhq4eU8klEqrZO6eq5H-l0wLZcErIAv2LJKdEKhRL1Evt1lUwS_WJxRXxsLA13iCuGLjEmk3xCl2a4AKwZG97lZtc2B7OatXjzsbWwvQhGtypsq7jhS__7VqRE2A_MsHUgX7UZgmZG_cEWyPSNC2dSz3upuYGyPf3RiZRuCEcAq0zTY1hsvdJz-yvRvCZqY7aXjQKVXxYGvDVNzBo6hFz3EFbzV0C0]--></g></svg>