<?xml version="1.0" encoding="us-ascii" standalone="no"?><svg xmlns="http://www.w3.org/2000/svg" xmlns:xlink="http://www.w3.org/1999/xlink" contentStyleType="text/css" height="1293px" preserveAspectRatio="none" style="width:719px;height:1293px;" version="1.1" viewBox="0 0 719 1293" width="719px" zoomAndPan="magnify"><defs/><g><rect fill="none" height="1291.1465" style="stroke:#0A9EFD;stroke-width:1.0;" width="717" x="0" y="0"/><rect fill="#999999" fill-opacity="0.33333" height="1281.1465" style="stroke:#0A9EFD;stroke-width:0.5;" width="90" x="177" y="6"/><text fill="#0A9EFD" font-family="sans-serif" font-size="13" font-weight="bold" lengthAdjust="spacing" textLength="62" x="191" y="18.5684">Your app</text><rect fill="#999999" fill-opacity="0.33333" height="1281.1465" style="stroke:#0A9EFD;stroke-width:0.5;" width="80" x="627" y="6"/><text fill="#0A9EFD" font-family="sans-serif" font-size="13" font-weight="bold" lengthAdjust="spacing" textLength="41" x="646.5" y="18.5684">Agora</text><rect fill="#0A9EFD" fill-opacity="0.06667" height="391.231" style="stroke:#0A9EFD;stroke-width:2.0;" width="703" x="10" y="359.6372"/><rect fill="#0A9EFD" fill-opacity="0.06667" height="334.3335" style="stroke:#0A9EFD;stroke-width:2.0;" width="703" x="10" y="764.8682"/><line style="stroke:#0A9EFD;stroke-width:0.5;stroke-dasharray:5.0,5.0;" x1="38" x2="38" y1="86.0986" y2="1203.0479"/><line style="stroke:#0A9EFD;stroke-width:0.5;stroke-dasharray:5.0,5.0;" x1="222" x2="222" y1="86.0986" y2="1203.0479"/><line style="stroke:#0A9EFD;stroke-width:0.5;stroke-dasharray:5.0,5.0;" x1="667" x2="667" y1="86.0986" y2="1203.0479"/><text fill="#0A9EFD" font-family="Arial" font-size="14" lengthAdjust="spacing" textLength="30" x="20" y="83.1318">User</text><ellipse cx="38" cy="16" fill="none" rx="8" ry="8" style="stroke:#0A9EFD;stroke-width:3.0;"/><path d="M38,24 L38,51 M25,32 L51,32 M38,51 L25,66 M38,51 L51,66 " fill="none" style="stroke:#0A9EFD;stroke-width:3.0;"/><text fill="#0A9EFD" font-family="Arial" font-size="14" lengthAdjust="spacing" textLength="30" x="20" y="1215.1797">User</text><ellipse cx="38" cy="1229.1465" fill="none" rx="8" ry="8" style="stroke:#0A9EFD;stroke-width:3.0;"/><path d="M38,1237.1465 L38,1264.1465 M25,1245.1465 L51,1245.1465 M38,1264.1465 L25,1279.1465 M38,1264.1465 L51,1279.1465 " fill="none" style="stroke:#0A9EFD;stroke-width:3.0;"/><rect fill="none" height="30.0986" rx="2.5" ry="2.5" style="stroke:#0A9EFD;stroke-width:2.0;" width="82" x="181" y="55"/><text fill="#0A9EFD" font-family="Arial" font-size="14" lengthAdjust="spacing" textLength="68" x="188" y="75.1318">Video SDK</text><rect fill="none" height="30.0986" rx="2.5" ry="2.5" style="stroke:#0A9EFD;stroke-width:2.0;" width="82" x="181" y="1202.0479"/><text fill="#0A9EFD" font-family="Arial" font-size="14" lengthAdjust="spacing" textLength="68" x="188" y="1222.1797">Video SDK</text><rect fill="none" height="30.0986" rx="2.5" ry="2.5" style="stroke:#0A9EFD;stroke-width:2.0;" width="72" x="631" y="55"/><text fill="#0A9EFD" font-family="Arial" font-size="14" lengthAdjust="spacing" textLength="58" x="638" y="75.1318">SDRTN&#174;</text><rect fill="none" height="30.0986" rx="2.5" ry="2.5" style="stroke:#0A9EFD;stroke-width:2.0;" width="72" x="631" y="1202.0479"/><text fill="#0A9EFD" font-family="Arial" font-size="14" lengthAdjust="spacing" textLength="58" x="638" y="1222.1797">SDRTN&#174;</text><polygon fill="#0A9EFD" points="210,113.0474,220,117.0474,210,121.0474,214,117.0474" style="stroke:#0A9EFD;stroke-width:1.0;"/><line style="stroke:#0A9EFD;stroke-width:2.0;" x1="38" x2="216" y1="117.0474" y2="117.0474"/><text fill="#0A9EFD" font-family="Arial" font-size="13" lengthAdjust="spacing" textLength="58" x="101" y="112.2925">Open App</text><line style="stroke:#0A9EFD;stroke-width:2.0;" x1="222" x2="264" y1="160.9448" y2="160.9448"/><line style="stroke:#0A9EFD;stroke-width:2.0;" x1="264" x2="264" y1="160.9448" y2="173.9448"/><line style="stroke:#0A9EFD;stroke-width:2.0;" x1="223" x2="264" y1="173.9448" y2="173.9448"/><polygon fill="#0A9EFD" points="233,169.9448,223,173.9448,233,177.9448,229,173.9448" style="stroke:#0A9EFD;stroke-width:1.0;"/><text fill="#0A9EFD" font-family="Arial" font-size="13" lengthAdjust="spacing" textLength="222" x="231" y="141.2412">Initialize the Agora Video SDK engine:</text><text fill="#0A9EFD" font-family="Arial" font-size="13" lengthAdjust="spacing" textLength="226" x="233" y="156.1899">agoraEngine = createAgoraRtcEngine()</text><line style="stroke:#0A9EFD;stroke-width:2.0;" x1="222" x2="264" y1="217.8423" y2="217.8423"/><line style="stroke:#0A9EFD;stroke-width:2.0;" x1="264" x2="264" y1="217.8423" y2="230.8423"/><line style="stroke:#0A9EFD;stroke-width:2.0;" x1="223" x2="264" y1="230.8423" y2="230.8423"/><polygon fill="#0A9EFD" points="233,226.8423,223,230.8423,233,234.8423,229,230.8423" style="stroke:#0A9EFD;stroke-width:1.0;"/><text fill="#0A9EFD" font-family="Arial" font-size="13" lengthAdjust="spacing" textLength="147" x="231" y="198.1387">Enable the video module:</text><text fill="#0A9EFD" font-family="Arial" font-size="13" lengthAdjust="spacing" textLength="147" x="233" y="213.0874">agoraEngine.enableVideo</text><line style="stroke:#0A9EFD;stroke-width:2.0;" x1="222" x2="264" y1="274.7397" y2="274.7397"/><line style="stroke:#0A9EFD;stroke-width:2.0;" x1="264" x2="264" y1="274.7397" y2="287.7397"/><line style="stroke:#0A9EFD;stroke-width:2.0;" x1="223" x2="264" y1="287.7397" y2="287.7397"/><polygon fill="#0A9EFD" points="233,283.7397,223,287.7397,233,291.7397,229,287.7397" style="stroke:#0A9EFD;stroke-width:1.0;"/><text fill="#0A9EFD" font-family="Arial" font-size="13" lengthAdjust="spacing" textLength="156" x="249.5" y="255.0361">Register the event handler:</text><text fill="#0A9EFD" font-family="Arial" font-size="13" lengthAdjust="spacing" textLength="197" x="233" y="269.9849">agoraEngine.registerEventHandler</text><line style="stroke:#0A9EFD;stroke-width:2.0;" x1="222" x2="264" y1="331.6372" y2="331.6372"/><line style="stroke:#0A9EFD;stroke-width:2.0;" x1="264" x2="264" y1="331.6372" y2="344.6372"/><line style="stroke:#0A9EFD;stroke-width:2.0;" x1="223" x2="264" y1="344.6372" y2="344.6372"/><polygon fill="#0A9EFD" points="233,340.6372,223,344.6372,233,348.6372,229,344.6372" style="stroke:#0A9EFD;stroke-width:1.0;"/><text fill="#0A9EFD" font-family="Arial" font-size="13" lengthAdjust="spacing" textLength="174" x="229" y="311.9336">Setup AgoraVideoView widget</text><text fill="#0A9EFD" font-family="Arial" font-size="13" lengthAdjust="spacing" textLength="140" x="250" y="326.8823">for local or remote video</text><path d="M10,359.6372 L82,359.6372 L82,366.5859 L72,376.5859 L10,376.5859 L10,359.6372 " fill="#EEEEEE" style="stroke:#0A9EFD;stroke-width:1.5;"/><rect fill="none" height="391.231" style="stroke:#0A9EFD;stroke-width:2.0;" width="703" x="10" y="359.6372"/><text fill="#000000" font-family="Arial" font-size="13" lengthAdjust="spacing" textLength="27" x="25" y="372.8311">Host</text><polygon fill="#0A9EFD" points="210,393.5347,220,397.5347,210,401.5347,214,397.5347" style="stroke:#0A9EFD;stroke-width:1.0;"/><line style="stroke:#0A9EFD;stroke-width:2.0;" x1="38" x2="216" y1="397.5347" y2="397.5347"/><text fill="#0A9EFD" font-family="Arial" font-size="13" lengthAdjust="spacing" textLength="160" x="50" y="392.7798">Start a live streaming event</text><polygon fill="#0A9EFD" points="655,437.4321,665,441.4321,655,445.4321,659,441.4321" style="stroke:#0A9EFD;stroke-width:1.0;"/><line style="stroke:#0A9EFD;stroke-width:2.0;" x1="222" x2="661" y1="441.4321" y2="441.4321"/><text fill="#0A9EFD" font-family="Arial" font-size="13" lengthAdjust="spacing" textLength="155" x="365" y="421.7285">Set the client role as Host:</text><text fill="#0A9EFD" font-family="Arial" font-size="13" lengthAdjust="spacing" textLength="413" x="240" y="436.6772">agoraEngine.setClientRole(role: ClientRoleType.clientRoleBroadcaster);</text><polygon fill="#0A9EFD" points="655,481.3296,665,485.3296,655,489.3296,659,485.3296" style="stroke:#0A9EFD;stroke-width:1.0;"/><line style="stroke:#0A9EFD;stroke-width:2.0;" x1="222" x2="661" y1="485.3296" y2="485.3296"/><text fill="#0A9EFD" font-family="Arial" font-size="13" lengthAdjust="spacing" textLength="123" x="381" y="465.626">Set a channel profile:</text><text fill="#0A9EFD" font-family="Arial" font-size="13" lengthAdjust="spacing" textLength="417" x="238" y="480.5747">.setChannelProfile(ChannelProfileType.channelProfileLiveBroadcasting);</text><line style="stroke:#0A9EFD;stroke-width:2.0;" x1="222" x2="264" y1="514.2783" y2="514.2783"/><line style="stroke:#0A9EFD;stroke-width:2.0;" x1="264" x2="264" y1="514.2783" y2="527.2783"/><line style="stroke:#0A9EFD;stroke-width:2.0;" x1="223" x2="264" y1="527.2783" y2="527.2783"/><polygon fill="#0A9EFD" points="233,523.2783,223,527.2783,233,531.2783,229,527.2783" style="stroke:#0A9EFD;stroke-width:1.0;"/><text fill="#0A9EFD" font-family="Arial" font-size="13" lengthAdjust="spacing" textLength="169" x="229" y="509.5234">Retrieve authentication token</text><polygon fill="#0A9EFD" points="655,567.1758,665,571.1758,655,575.1758,659,571.1758" style="stroke:#0A9EFD;stroke-width:1.0;"/><line style="stroke:#0A9EFD;stroke-width:2.0;" x1="222" x2="661" y1="571.1758" y2="571.1758"/><text fill="#0A9EFD" font-family="Arial" font-size="13" lengthAdjust="spacing" textLength="181" x="354" y="551.4722">Join a channel using the token:</text><text fill="#0A9EFD" font-family="Arial" font-size="13" lengthAdjust="spacing" textLength="143" x="375" y="566.4209">agoraEngine.joinChannel</text><polygon fill="#0A9EFD" points="655,596.1245,665,600.1245,655,604.1245,659,600.1245" style="stroke:#0A9EFD;stroke-width:1.0;"/><line style="stroke:#0A9EFD;stroke-width:2.0;" x1="222" x2="661" y1="600.1245" y2="600.1245"/><text fill="#0A9EFD" font-family="Arial" font-size="13" lengthAdjust="spacing" textLength="110" x="389.5" y="595.3696">Send data streams</text><polygon fill="#0A9EFD" points="233,640.022,223,644.022,233,648.022,229,644.022" style="stroke:#0A9EFD;stroke-width:1.0;"/><line style="stroke:#0A9EFD;stroke-width:2.0;" x1="227" x2="666" y1="644.022" y2="644.022"/><text fill="#0A9EFD" font-family="Arial" font-size="13" lengthAdjust="spacing" textLength="116" x="384.5" y="624.3184">Remote user joined:</text><text fill="#0A9EFD" font-family="Arial" font-size="13" lengthAdjust="spacing" textLength="225" x="334" y="639.2671">RtcEngineEventHandler onUserJoined:</text><line style="stroke:#0A9EFD;stroke-width:2.0;" x1="222" x2="264" y1="687.9194" y2="687.9194"/><line style="stroke:#0A9EFD;stroke-width:2.0;" x1="264" x2="264" y1="687.9194" y2="700.9194"/><line style="stroke:#0A9EFD;stroke-width:2.0;" x1="223" x2="264" y1="700.9194" y2="700.9194"/><polygon fill="#0A9EFD" points="233,696.9194,223,700.9194,233,704.9194,229,700.9194" style="stroke:#0A9EFD;stroke-width:1.0;"/><text fill="#0A9EFD" font-family="Arial" font-size="13" lengthAdjust="spacing" textLength="107" x="253.5" y="668.2158">Start local peview:</text><text fill="#0A9EFD" font-family="Arial" font-size="13" lengthAdjust="spacing" textLength="156" x="233" y="683.1646">agoraEngine.startPreview()</text><line style="stroke:#0A9EFD;stroke-width:2.0;" x1="222" x2="264" y1="729.8682" y2="729.8682"/><line style="stroke:#0A9EFD;stroke-width:2.0;" x1="264" x2="264" y1="729.8682" y2="742.8682"/><line style="stroke:#0A9EFD;stroke-width:2.0;" x1="223" x2="264" y1="742.8682" y2="742.8682"/><polygon fill="#0A9EFD" points="233,738.8682,223,742.8682,233,746.8682,229,742.8682" style="stroke:#0A9EFD;stroke-width:1.0;"/><text fill="#0A9EFD" font-family="Arial" font-size="13" lengthAdjust="spacing" textLength="243" x="229" y="725.1133">Display local video using AgoraVideoView</text><path d="M10,764.8682 L109,764.8682 L109,771.8169 L99,781.8169 L10,781.8169 L10,764.8682 " fill="#EEEEEE" style="stroke:#0A9EFD;stroke-width:1.5;"/><rect fill="none" height="334.3335" style="stroke:#0A9EFD;stroke-width:2.0;" width="703" x="10" y="764.8682"/><text fill="#000000" font-family="Arial" font-size="13" lengthAdjust="spacing" textLength="54" x="25" y="778.062">Audience</text><polygon fill="#0A9EFD" points="210,798.7656,220,802.7656,210,806.7656,214,802.7656" style="stroke:#0A9EFD;stroke-width:1.0;"/><line style="stroke:#0A9EFD;stroke-width:2.0;" x1="38" x2="216" y1="802.7656" y2="802.7656"/><text fill="#0A9EFD" font-family="Arial" font-size="13" lengthAdjust="spacing" textLength="156" x="52" y="798.0107">Join a live streaming event</text><polygon fill="#0A9EFD" points="655,842.6631,665,846.6631,655,850.6631,659,846.6631" style="stroke:#0A9EFD;stroke-width:1.0;"/><line style="stroke:#0A9EFD;stroke-width:2.0;" x1="222" x2="661" y1="846.6631" y2="846.6631"/><text fill="#0A9EFD" font-family="Arial" font-size="13" lengthAdjust="spacing" textLength="182" x="351.5" y="826.9595">Set the client role as Audience:</text><text fill="#0A9EFD" font-family="Arial" font-size="13" lengthAdjust="spacing" textLength="397" x="248" y="841.9082">agoraEngine.setClientRole(role: ClientRoleType.clientRoleAudience);</text><polygon fill="#0A9EFD" points="655,886.5605,665,890.5605,655,894.5605,659,890.5605" style="stroke:#0A9EFD;stroke-width:1.0;"/><line style="stroke:#0A9EFD;stroke-width:2.0;" x1="222" x2="661" y1="890.5605" y2="890.5605"/><text fill="#0A9EFD" font-family="Arial" font-size="13" lengthAdjust="spacing" textLength="123" x="381" y="870.8569">Set a channel profile:</text><text fill="#0A9EFD" font-family="Arial" font-size="13" lengthAdjust="spacing" textLength="417" x="238" y="885.8057">.setChannelProfile(ChannelProfileType.channelProfileLiveBroadcasting);</text><line style="stroke:#0A9EFD;stroke-width:2.0;" x1="222" x2="264" y1="919.5093" y2="919.5093"/><line style="stroke:#0A9EFD;stroke-width:2.0;" x1="264" x2="264" y1="919.5093" y2="932.5093"/><line style="stroke:#0A9EFD;stroke-width:2.0;" x1="223" x2="264" y1="932.5093" y2="932.5093"/><polygon fill="#0A9EFD" points="233,928.5093,223,932.5093,233,936.5093,229,932.5093" style="stroke:#0A9EFD;stroke-width:1.0;"/><text fill="#0A9EFD" font-family="Arial" font-size="13" lengthAdjust="spacing" textLength="169" x="229" y="914.7544">Retrieve authentication token</text><polygon fill="#0A9EFD" points="655,972.4067,665,976.4067,655,980.4067,659,976.4067" style="stroke:#0A9EFD;stroke-width:1.0;"/><line style="stroke:#0A9EFD;stroke-width:2.0;" x1="222" x2="661" y1="976.4067" y2="976.4067"/><text fill="#0A9EFD" font-family="Arial" font-size="13" lengthAdjust="spacing" textLength="181" x="354" y="956.7031">Join a channel using the token:</text><text fill="#0A9EFD" font-family="Arial" font-size="13" lengthAdjust="spacing" textLength="143" x="375" y="971.6519">agoraEngine.joinChannel</text><polygon fill="#0A9EFD" points="233,1016.3042,223,1020.3042,233,1024.3042,229,1020.3042" style="stroke:#0A9EFD;stroke-width:1.0;"/><line style="stroke:#0A9EFD;stroke-width:2.0;" x1="227" x2="666" y1="1020.3042" y2="1020.3042"/><text fill="#0A9EFD" font-family="Arial" font-size="13" lengthAdjust="spacing" textLength="116" x="384.5" y="1000.6006">Remote user joined:</text><text fill="#0A9EFD" font-family="Arial" font-size="13" lengthAdjust="spacing" textLength="225" x="334" y="1015.5493">RtcEngineEventHandler onUserJoined:</text><polygon fill="#0A9EFD" points="233,1045.2529,223,1049.2529,233,1053.2529,229,1049.2529" style="stroke:#0A9EFD;stroke-width:1.0;"/><line style="stroke:#0A9EFD;stroke-width:2.0;" x1="227" x2="666" y1="1049.2529" y2="1049.2529"/><text fill="#0A9EFD" font-family="Arial" font-size="13" lengthAdjust="spacing" textLength="127" x="381" y="1044.498">Receive data streams</text><line style="stroke:#0A9EFD;stroke-width:2.0;" x1="222" x2="264" y1="1078.2017" y2="1078.2017"/><line style="stroke:#0A9EFD;stroke-width:2.0;" x1="264" x2="264" y1="1078.2017" y2="1091.2017"/><line style="stroke:#0A9EFD;stroke-width:2.0;" x1="223" x2="264" y1="1091.2017" y2="1091.2017"/><polygon fill="#0A9EFD" points="233,1087.2017,223,1091.2017,233,1095.2017,229,1091.2017" style="stroke:#0A9EFD;stroke-width:1.0;"/><text fill="#0A9EFD" font-family="Arial" font-size="13" lengthAdjust="spacing" textLength="254" x="229" y="1073.4468">Render remote video using AgoraVideoView</text><polygon fill="#0A9EFD" points="210,1123.1504,220,1127.1504,210,1131.1504,214,1127.1504" style="stroke:#0A9EFD;stroke-width:1.0;"/><line style="stroke:#0A9EFD;stroke-width:2.0;" x1="38" x2="216" y1="1127.1504" y2="1127.1504"/><text fill="#0A9EFD" font-family="Arial" font-size="13" lengthAdjust="spacing" textLength="96" x="82" y="1122.3955">Leave broadcast</text><polygon fill="#0A9EFD" points="655,1152.0991,665,1156.0991,655,1160.0991,659,1156.0991" style="stroke:#0A9EFD;stroke-width:1.0;"/><line style="stroke:#0A9EFD;stroke-width:2.0;" x1="222" x2="661" y1="1156.0991" y2="1156.0991"/><text fill="#0A9EFD" font-family="Arial" font-size="13" lengthAdjust="spacing" textLength="162" x="363.5" y="1151.3442">agoraEngine.leaveChannel()</text><polygon fill="#0A9EFD" points="210,1181.0479,220,1185.0479,210,1189.0479,214,1185.0479" style="stroke:#0A9EFD;stroke-width:1.0;"/><line style="stroke:#0A9EFD;stroke-width:2.0;" x1="38" x2="216" y1="1185.0479" y2="1185.0479"/><text fill="#0A9EFD" font-family="Arial" font-size="13" lengthAdjust="spacing" textLength="58" x="101" y="1180.293">Close app</text><!--SRC=[vLLBRXin3DtFALYld4Ly0FS3kB61E0rQOvm4252We3NCH8qi2PB6QNge7g8dAoMDFxA1BjhkkhEenqS-yidpIcgXkeO0M-FmYt-IUYIxjQeg5C4u6DnwSWD03xVBkgfMvXiCxatd0AqTL1PTa49Qr046Tx8X0ylfXmIVB1OLwGOueq-Rn0f7ESjfVVFnvuy-OxxFu6fm_YwoZE6J9GqJQoi-xO9pBOD49RyJX4U2H0wx5e1qApMDuRFEocRf36z1EC902Lu7aSF3iu9wfd6bCkqc4QvDqoaQbrmZIh1KiaYlgPK-a4i4j27M-OYwKUIEsncv7ZgBgCiCAhYM53gRnQL2TvAUuLasBON8zS0RKaQW0lxXQ6r2tt9LjSvmvgNnePZbCl3u0K793O4FF8orr6rkSrzvdYed0KB9gC0PdWWlAHAUoF0KBXAiPjGmGiUm3zoyM1g9tV6zCzW8ZBBFNf-KH10yB4qAh3CFKkKLfWevliZXONdCDOhGDIlSrMADXyNIbeAJB1kmOvcQBOb16Wt1F94ksheoKX_qrVaui3YQ13rsnLT6zxqTYMDhDnYmdxfFjs_EyssTTzVnOuF8G4tIlNFeeK70wFWehpAij4lQRdQ4fGsRvNHN4R9mwVB8zrFfhSANFZzRFwij3HXVwTPWawxXnGegJDPFx4yzjkNyEvzjMVu7a_qZ6-rf1CNTdTXrhqitLFxZ_COfXzQu9cJYrNPanGmE5Qg8woMoJGkE2sKynGzGzGi0]--></g></svg>