<?xml version="1.0" encoding="us-ascii" standalone="no"?><svg xmlns="http://www.w3.org/2000/svg" xmlns:xlink="http://www.w3.org/1999/xlink" contentStyleType="text/css" height="1133px" preserveAspectRatio="none" style="width:785px;height:1133px;" version="1.1" viewBox="0 0 785 1133" width="785px" zoomAndPan="magnify"><defs/><g><rect fill="none" height="1131.4541" style="stroke:#0A9EFD;stroke-width:1.0;" width="783" x="0" y="0"/><rect fill="#999999" fill-opacity="0.33333" height="1121.4541" style="stroke:#0A9EFD;stroke-width:0.5;" width="90" x="173" y="6"/><text fill="#0A9EFD" font-family="sans-serif" font-size="13" font-weight="bold" lengthAdjust="spacing" textLength="62" x="187" y="18.5684">Your app</text><rect fill="#999999" fill-opacity="0.33333" height="1121.4541" style="stroke:#0A9EFD;stroke-width:0.5;" width="80" x="693" y="6"/><text fill="#0A9EFD" font-family="sans-serif" font-size="13" font-weight="bold" lengthAdjust="spacing" textLength="41" x="712.5" y="18.5684">Agora</text><rect fill="#0A9EFD" fill-opacity="0.06667" height="375.2822" style="stroke:#0A9EFD;stroke-width:2.0;" width="769" x="10" y="359.6372"/><rect fill="#0A9EFD" fill-opacity="0.06667" height="219.5386" style="stroke:#0A9EFD;stroke-width:2.0;" width="769" x="10" y="748.9194"/><line style="stroke:#0A9EFD;stroke-width:0.5;stroke-dasharray:5.0,5.0;" x1="38" x2="38" y1="86.0986" y2="1043.3555"/><line style="stroke:#0A9EFD;stroke-width:0.5;stroke-dasharray:5.0,5.0;" x1="218" x2="218" y1="86.0986" y2="1043.3555"/><line style="stroke:#0A9EFD;stroke-width:0.5;stroke-dasharray:5.0,5.0;" x1="733" x2="733" y1="86.0986" y2="1043.3555"/><text fill="#0A9EFD" font-family="Arial" font-size="14" lengthAdjust="spacing" textLength="30" x="20" y="83.1318">User</text><ellipse cx="38" cy="16" fill="none" rx="8" ry="8" style="stroke:#0A9EFD;stroke-width:3.0;"/><path d="M38,24 L38,51 M25,32 L51,32 M38,51 L25,66 M38,51 L51,66 " fill="none" style="stroke:#0A9EFD;stroke-width:3.0;"/><text fill="#0A9EFD" font-family="Arial" font-size="14" lengthAdjust="spacing" textLength="30" x="20" y="1055.4873">User</text><ellipse cx="38" cy="1069.4541" fill="none" rx="8" ry="8" style="stroke:#0A9EFD;stroke-width:3.0;"/><path d="M38,1077.4541 L38,1104.4541 M25,1085.4541 L51,1085.4541 M38,1104.4541 L25,1119.4541 M38,1104.4541 L51,1119.4541 " fill="none" style="stroke:#0A9EFD;stroke-width:3.0;"/><rect fill="none" height="30.0986" rx="2.5" ry="2.5" style="stroke:#0A9EFD;stroke-width:2.0;" width="82" x="177" y="55"/><text fill="#0A9EFD" font-family="Arial" font-size="14" lengthAdjust="spacing" textLength="68" x="184" y="75.1318">Video SDK</text><rect fill="none" height="30.0986" rx="2.5" ry="2.5" style="stroke:#0A9EFD;stroke-width:2.0;" width="82" x="177" y="1042.3555"/><text fill="#0A9EFD" font-family="Arial" font-size="14" lengthAdjust="spacing" textLength="68" x="184" y="1062.4873">Video SDK</text><rect fill="none" height="30.0986" rx="2.5" ry="2.5" style="stroke:#0A9EFD;stroke-width:2.0;" width="72" x="697" y="55"/><text fill="#0A9EFD" font-family="Arial" font-size="14" lengthAdjust="spacing" textLength="58" x="704" y="75.1318">SDRTN&#174;</text><rect fill="none" height="30.0986" rx="2.5" ry="2.5" style="stroke:#0A9EFD;stroke-width:2.0;" width="72" x="697" y="1042.3555"/><text fill="#0A9EFD" font-family="Arial" font-size="14" lengthAdjust="spacing" textLength="58" x="704" y="1062.4873">SDRTN&#174;</text><polygon fill="#0A9EFD" points="206,113.0474,216,117.0474,206,121.0474,210,117.0474" style="stroke:#0A9EFD;stroke-width:1.0;"/><line style="stroke:#0A9EFD;stroke-width:2.0;" x1="38" x2="212" y1="117.0474" y2="117.0474"/><text fill="#0A9EFD" font-family="Arial" font-size="13" lengthAdjust="spacing" textLength="58" x="99" y="112.2925">Open App</text><line style="stroke:#0A9EFD;stroke-width:2.0;" x1="218" x2="260" y1="160.9448" y2="160.9448"/><line style="stroke:#0A9EFD;stroke-width:2.0;" x1="260" x2="260" y1="160.9448" y2="173.9448"/><line style="stroke:#0A9EFD;stroke-width:2.0;" x1="219" x2="260" y1="173.9448" y2="173.9448"/><polygon fill="#0A9EFD" points="229,169.9448,219,173.9448,229,177.9448,225,173.9448" style="stroke:#0A9EFD;stroke-width:1.0;"/><text fill="#0A9EFD" font-family="Arial" font-size="13" lengthAdjust="spacing" textLength="260" x="244" y="141.2412">Create an instance of the Video SDK engine:</text><text fill="#0A9EFD" font-family="Arial" font-size="13" lengthAdjust="spacing" textLength="294" x="229" y="156.1899">agoraEngine = agoraEngine.createAgoraRtcEngine</text><line style="stroke:#0A9EFD;stroke-width:2.0;" x1="218" x2="260" y1="217.8423" y2="217.8423"/><line style="stroke:#0A9EFD;stroke-width:2.0;" x1="260" x2="260" y1="217.8423" y2="230.8423"/><line style="stroke:#0A9EFD;stroke-width:2.0;" x1="219" x2="260" y1="230.8423" y2="230.8423"/><polygon fill="#0A9EFD" points="229,226.8423,219,230.8423,229,234.8423,225,230.8423" style="stroke:#0A9EFD;stroke-width:1.0;"/><text fill="#0A9EFD" font-family="Arial" font-size="13" lengthAdjust="spacing" textLength="174" x="225" y="198.1387">Initialize the created instance:</text><text fill="#0A9EFD" font-family="Arial" font-size="13" lengthAdjust="spacing" textLength="123" x="254.5" y="213.0874">agoraEngine.initialize</text><line style="stroke:#0A9EFD;stroke-width:2.0;" x1="218" x2="260" y1="274.7397" y2="274.7397"/><line style="stroke:#0A9EFD;stroke-width:2.0;" x1="260" x2="260" y1="274.7397" y2="287.7397"/><line style="stroke:#0A9EFD;stroke-width:2.0;" x1="219" x2="260" y1="287.7397" y2="287.7397"/><polygon fill="#0A9EFD" points="229,283.7397,219,287.7397,229,291.7397,225,287.7397" style="stroke:#0A9EFD;stroke-width:1.0;"/><text fill="#0A9EFD" font-family="Arial" font-size="13" lengthAdjust="spacing" textLength="169" x="239" y="255.0361">Setup the callback functions:</text><text fill="#0A9EFD" font-family="Arial" font-size="13" lengthAdjust="spacing" textLength="197" x="229" y="269.9849">agoraEngine.registerEventHandler</text><line style="stroke:#0A9EFD;stroke-width:2.0;" x1="218" x2="260" y1="331.6372" y2="331.6372"/><line style="stroke:#0A9EFD;stroke-width:2.0;" x1="260" x2="260" y1="331.6372" y2="344.6372"/><line style="stroke:#0A9EFD;stroke-width:2.0;" x1="219" x2="260" y1="344.6372" y2="344.6372"/><polygon fill="#0A9EFD" points="229,340.6372,219,344.6372,229,348.6372,225,344.6372" style="stroke:#0A9EFD;stroke-width:1.0;"/><text fill="#0A9EFD" font-family="Arial" font-size="13" lengthAdjust="spacing" textLength="134" x="247" y="311.9336">Set the channel profile:</text><text fill="#0A9EFD" font-family="Arial" font-size="13" lengthAdjust="spacing" textLength="178" x="229" y="326.8823">agoraEngine.setChannelProfile</text><path d="M10,359.6372 L82,359.6372 L82,366.5859 L72,376.5859 L10,376.5859 L10,359.6372 " fill="#EEEEEE" style="stroke:#0A9EFD;stroke-width:1.5;"/><rect fill="none" height="375.2822" style="stroke:#0A9EFD;stroke-width:2.0;" width="769" x="10" y="359.6372"/><text fill="#000000" font-family="Arial" font-size="13" lengthAdjust="spacing" textLength="27" x="25" y="372.8311">Host</text><polygon fill="#0A9EFD" points="206,393.5347,216,397.5347,206,401.5347,210,397.5347" style="stroke:#0A9EFD;stroke-width:1.0;"/><line style="stroke:#0A9EFD;stroke-width:2.0;" x1="38" x2="212" y1="397.5347" y2="397.5347"/><text fill="#0A9EFD" font-family="Arial" font-size="13" lengthAdjust="spacing" textLength="149" x="53.5" y="392.7798">Start live streaming event</text><line style="stroke:#0A9EFD;stroke-width:2.0;" x1="218" x2="260" y1="441.4321" y2="441.4321"/><line style="stroke:#0A9EFD;stroke-width:2.0;" x1="260" x2="260" y1="441.4321" y2="454.4321"/><line style="stroke:#0A9EFD;stroke-width:2.0;" x1="219" x2="260" y1="454.4321" y2="454.4321"/><polygon fill="#0A9EFD" points="229,450.4321,219,454.4321,229,458.4321,225,454.4321" style="stroke:#0A9EFD;stroke-width:1.0;"/><text fill="#0A9EFD" font-family="Arial" font-size="13" lengthAdjust="spacing" textLength="104" x="261" y="421.7285">Setup local video:</text><text fill="#0A9EFD" font-family="Arial" font-size="13" lengthAdjust="spacing" textLength="172" x="233" y="436.6772">agoraEngine.setupLocalVideo</text><line style="stroke:#0A9EFD;stroke-width:2.0;" x1="218" x2="260" y1="498.3296" y2="498.3296"/><line style="stroke:#0A9EFD;stroke-width:2.0;" x1="260" x2="260" y1="498.3296" y2="511.3296"/><line style="stroke:#0A9EFD;stroke-width:2.0;" x1="219" x2="260" y1="511.3296" y2="511.3296"/><polygon fill="#0A9EFD" points="229,507.3296,219,511.3296,229,515.3296,225,511.3296" style="stroke:#0A9EFD;stroke-width:1.0;"/><text fill="#0A9EFD" font-family="Arial" font-size="13" lengthAdjust="spacing" textLength="161" x="225" y="478.626">Enable local video capturer:</text><text fill="#0A9EFD" font-family="Arial" font-size="13" lengthAdjust="spacing" textLength="147" x="236" y="493.5747">agoraEngine.enableVideo</text><line style="stroke:#0A9EFD;stroke-width:2.0;" x1="218" x2="260" y1="555.2271" y2="555.2271"/><line style="stroke:#0A9EFD;stroke-width:2.0;" x1="260" x2="260" y1="555.2271" y2="568.2271"/><line style="stroke:#0A9EFD;stroke-width:2.0;" x1="219" x2="260" y1="568.2271" y2="568.2271"/><polygon fill="#0A9EFD" points="229,564.2271,219,568.2271,229,572.2271,225,568.2271" style="stroke:#0A9EFD;stroke-width:1.0;"/><text fill="#0A9EFD" font-family="Arial" font-size="13" lengthAdjust="spacing" textLength="111" x="243.5" y="535.5234">Start local preview:</text><text fill="#0A9EFD" font-family="Arial" font-size="13" lengthAdjust="spacing" textLength="148" x="229" y="550.4722">agoraEngine.startPreview</text><polygon fill="#0A9EFD" points="721,608.1245,731,612.1245,721,616.1245,725,612.1245" style="stroke:#0A9EFD;stroke-width:1.0;"/><line style="stroke:#0A9EFD;stroke-width:2.0;" x1="218" x2="727" y1="612.1245" y2="612.1245"/><text fill="#0A9EFD" font-family="Arial" font-size="13" lengthAdjust="spacing" textLength="147" x="398" y="592.4209">Set the user role as host:</text><text fill="#0A9EFD" font-family="Arial" font-size="13" lengthAdjust="spacing" textLength="487" x="234" y="607.3696">agoraEngine.setChannelProfile(ChannelProfileType.ChannelProfileLiveBroadcasting)</text><line style="stroke:#0A9EFD;stroke-width:2.0;" x1="218" x2="260" y1="641.0732" y2="641.0732"/><line style="stroke:#0A9EFD;stroke-width:2.0;" x1="260" x2="260" y1="641.0732" y2="654.0732"/><line style="stroke:#0A9EFD;stroke-width:2.0;" x1="219" x2="260" y1="654.0732" y2="654.0732"/><polygon fill="#0A9EFD" points="229,650.0732,219,654.0732,229,658.0732,225,654.0732" style="stroke:#0A9EFD;stroke-width:1.0;"/><text fill="#0A9EFD" font-family="Arial" font-size="13" lengthAdjust="spacing" textLength="257" x="225" y="636.3184">Retrieve authentication token to join channel</text><polygon fill="#0A9EFD" points="721,693.9707,731,697.9707,721,701.9707,725,697.9707" style="stroke:#0A9EFD;stroke-width:1.0;"/><line style="stroke:#0A9EFD;stroke-width:2.0;" x1="218" x2="727" y1="697.9707" y2="697.9707"/><text fill="#0A9EFD" font-family="Arial" font-size="13" lengthAdjust="spacing" textLength="135" x="408" y="678.2671">Join a channel as host:</text><text fill="#0A9EFD" font-family="Arial" font-size="13" lengthAdjust="spacing" textLength="143" x="406" y="693.2158">agoraEngine.joinChannel</text><polygon fill="#0A9EFD" points="721,722.9194,731,726.9194,721,730.9194,725,726.9194" style="stroke:#0A9EFD;stroke-width:1.0;"/><line style="stroke:#0A9EFD;stroke-width:2.0;" x1="218" x2="727" y1="726.9194" y2="726.9194"/><text fill="#0A9EFD" font-family="Arial" font-size="13" lengthAdjust="spacing" textLength="103" x="424" y="722.1646">Send data stream</text><path d="M10,748.9194 L109,748.9194 L109,755.8682 L99,765.8682 L10,765.8682 L10,748.9194 " fill="#EEEEEE" style="stroke:#0A9EFD;stroke-width:1.5;"/><rect fill="none" height="219.5386" style="stroke:#0A9EFD;stroke-width:2.0;" width="769" x="10" y="748.9194"/><text fill="#000000" font-family="Arial" font-size="13" lengthAdjust="spacing" textLength="54" x="25" y="762.1133">Audience</text><polygon fill="#0A9EFD" points="206,782.8169,216,786.8169,206,790.8169,210,786.8169" style="stroke:#0A9EFD;stroke-width:1.0;"/><line style="stroke:#0A9EFD;stroke-width:2.0;" x1="38" x2="212" y1="786.8169" y2="786.8169"/><text fill="#0A9EFD" font-family="Arial" font-size="13" lengthAdjust="spacing" textLength="145" x="55.5" y="782.062">Join live streaming event</text><line style="stroke:#0A9EFD;stroke-width:2.0;" x1="218" x2="260" y1="815.7656" y2="815.7656"/><line style="stroke:#0A9EFD;stroke-width:2.0;" x1="260" x2="260" y1="815.7656" y2="828.7656"/><line style="stroke:#0A9EFD;stroke-width:2.0;" x1="219" x2="260" y1="828.7656" y2="828.7656"/><polygon fill="#0A9EFD" points="229,824.7656,219,828.7656,229,832.7656,225,828.7656" style="stroke:#0A9EFD;stroke-width:1.0;"/><text fill="#0A9EFD" font-family="Arial" font-size="13" lengthAdjust="spacing" textLength="257" x="225" y="811.0107">Retrieve authentication token to join channel</text><polygon fill="#0A9EFD" points="721,868.6631,731,872.6631,721,876.6631,725,872.6631" style="stroke:#0A9EFD;stroke-width:1.0;"/><line style="stroke:#0A9EFD;stroke-width:2.0;" x1="218" x2="727" y1="872.6631" y2="872.6631"/><text fill="#0A9EFD" font-family="Arial" font-size="13" lengthAdjust="spacing" textLength="174" x="386.5" y="852.9595">Set the user role as audience:</text><text fill="#0A9EFD" font-family="Arial" font-size="13" lengthAdjust="spacing" textLength="391" x="282" y="867.9082">agoraEngine.setChannelProfile(ClientRoleType.ClientRoleAudience)</text><polygon fill="#0A9EFD" points="721,912.5605,731,916.5605,721,920.5605,725,916.5605" style="stroke:#0A9EFD;stroke-width:1.0;"/><line style="stroke:#0A9EFD;stroke-width:2.0;" x1="218" x2="727" y1="916.5605" y2="916.5605"/><text fill="#0A9EFD" font-family="Arial" font-size="13" lengthAdjust="spacing" textLength="171" x="390" y="896.8569">Join the live streaming event:</text><text fill="#0A9EFD" font-family="Arial" font-size="13" lengthAdjust="spacing" textLength="143" x="406" y="911.8057">agoraEngine.joinChannel</text><polygon fill="#0A9EFD" points="229,956.458,219,960.458,229,964.458,225,960.458" style="stroke:#0A9EFD;stroke-width:1.0;"/><line style="stroke:#0A9EFD;stroke-width:2.0;" x1="223" x2="732" y1="960.458" y2="960.458"/><text fill="#0A9EFD" font-family="Arial" font-size="13" lengthAdjust="spacing" textLength="227" x="360" y="940.7544">Retrieve streaming from the other user:</text><text fill="#0A9EFD" font-family="Arial" font-size="13" lengthAdjust="spacing" textLength="186" x="384.5" y="955.7031">agoraEngine.setupRemoteVideo</text><polygon fill="#0A9EFD" points="206,992.4067,216,996.4067,206,1000.4067,210,996.4067" style="stroke:#0A9EFD;stroke-width:1.0;"/><line style="stroke:#0A9EFD;stroke-width:2.0;" x1="38" x2="212" y1="996.4067" y2="996.4067"/><text fill="#0A9EFD" font-family="Arial" font-size="13" lengthAdjust="spacing" textLength="156" x="50" y="991.6519">Leave live streaming event</text><polygon fill="#0A9EFD" points="721,1021.3555,731,1025.3555,721,1029.3555,725,1025.3555" style="stroke:#0A9EFD;stroke-width:1.0;"/><line style="stroke:#0A9EFD;stroke-width:2.0;" x1="218" x2="727" y1="1025.3555" y2="1025.3555"/><text fill="#0A9EFD" font-family="Arial" font-size="13" lengthAdjust="spacing" textLength="154" x="398.5" y="1020.6006">agoraEngine.leaveChannel</text><!--SRC=[fLFRZjCm47ttLmnzOX-s7r29bKgtqXOgg99T92GaD4schQbhMywuN3wAZ-3Bi9rBcwQmIBn4iZFdCcV6BwGkb2y9S6iSVgxsKe-bFoWXi63ZOFHKaHi1Ll2KPqAipJSOVJJU0Lex4iAYOrb8YvfXz46MP22_VvlgfwkL4AHB29W6E8qQbwZyFdjyz-jdWrcSOO8YtDv5eWcyjwHXQgq8f-vovWWvMDSWTSMe2mAp0TuHT5Q0z5PgcdpITOVpT8HNvwTnaNYIkuoB-h8djD2I9IhvWn9xNLzsgXFequzbLz-ZoOczhHbGgJKMUzXuNR0qkXfmEDhAYidDZwJv0NMfo5sorLmxr9eKM6SsKWtDLCIpkcHLLuYjCy77Wwcubt7EOIwWv96Wuj3YGUejK9I_qeKoeGSunfoJugMajyjOaGRHWyyrhXMTuqCQbhqZDx1EgNR8qJXD5DRHKTBNOTknPbN_F84Nfznys6nm9dW9cxSBOKpWsUXUze-FtosD-rVB4DzhPx0iiE8Gu4tKRdrdn4w6H05zSA338y0uV62pf_Y5BqRgTg0zqs_Y3-nctJg-y1lXioleFBwf4XcRmSOt9fercFfIKbZYtYeakJzjmktTVpPpTGBO-9Zymn1KgEJCj0FeZcqlDyFiejwrXluUuG86eplXDyuS4gy97vUwkMRUsumEXfirJicVHxqaFD8phouqSKwg8gGr-Hi0]--></g></svg>