<?xml version="1.0" encoding="us-ascii" standalone="no"?><svg xmlns="http://www.w3.org/2000/svg" xmlns:xlink="http://www.w3.org/1999/xlink" contentStyleType="text/css" height="1133px" preserveAspectRatio="none" style="width:769px;height:1133px;" version="1.1" viewBox="0 0 769 1133" width="769px" zoomAndPan="magnify"><defs/><g><rect fill="none" height="1131.4541" style="stroke:#0A9EFD;stroke-width:1.0;" width="767.5" x="0" y="0"/><rect fill="#999999" fill-opacity="0.33333" height="1121.4541" style="stroke:#0A9EFD;stroke-width:0.5;" width="90" x="166.5" y="6"/><text fill="#0A9EFD" font-family="sans-serif" font-size="13" font-weight="bold" lengthAdjust="spacing" textLength="57" x="183" y="19.4951">Your app</text><rect fill="#999999" fill-opacity="0.33333" height="1121.4541" style="stroke:#0A9EFD;stroke-width:0.5;" width="74" x="683.5" y="6"/><text fill="#0A9EFD" font-family="sans-serif" font-size="13" font-weight="bold" lengthAdjust="spacing" textLength="38" x="701.5" y="19.4951">Agora</text><rect fill="#0A9EFD" fill-opacity="0.06667" height="375.2822" style="stroke:#0A9EFD;stroke-width:2.0;" width="753.5" x="10" y="359.6372"/><rect fill="#0A9EFD" fill-opacity="0.06667" height="219.5386" style="stroke:#0A9EFD;stroke-width:2.0;" width="753.5" x="10" y="748.9194"/><line style="stroke:#0A9EFD;stroke-width:0.5;stroke-dasharray:5.0,5.0;" x1="37" x2="37" y1="86.0986" y2="1043.3555"/><line style="stroke:#0A9EFD;stroke-width:0.5;stroke-dasharray:5.0,5.0;" x1="211.5" x2="211.5" y1="86.0986" y2="1043.3555"/><line style="stroke:#0A9EFD;stroke-width:0.5;stroke-dasharray:5.0,5.0;" x1="720.5" x2="720.5" y1="86.0986" y2="1043.3555"/><text fill="#0A9EFD" font-family="Arial" font-size="14" lengthAdjust="spacing" textLength="29" x="20" y="83.1318">User</text><ellipse cx="37.5" cy="16" fill="none" rx="8" ry="8" style="stroke:#0A9EFD;stroke-width:3.0;"/><path d="M37.5,24 L37.5,51 M24.5,32 L50.5,32 M37.5,51 L24.5,66 M37.5,51 L50.5,66 " fill="none" style="stroke:#0A9EFD;stroke-width:3.0;"/><text fill="#0A9EFD" font-family="Arial" font-size="14" lengthAdjust="spacing" textLength="29" x="20" y="1055.4873">User</text><ellipse cx="37.5" cy="1069.4541" fill="none" rx="8" ry="8" style="stroke:#0A9EFD;stroke-width:3.0;"/><path d="M37.5,1077.4541 L37.5,1104.4541 M24.5,1085.4541 L50.5,1085.4541 M37.5,1104.4541 L24.5,1119.4541 M37.5,1104.4541 L50.5,1119.4541 " fill="none" style="stroke:#0A9EFD;stroke-width:3.0;"/><rect fill="none" height="30.0986" rx="2.5" ry="2.5" style="stroke:#0A9EFD;stroke-width:2.0;" width="82" x="170.5" y="55"/><text fill="#0A9EFD" font-family="Arial" font-size="14" lengthAdjust="spacing" textLength="68" x="177.5" y="75.1318">Video SDK</text><rect fill="none" height="30.0986" rx="2.5" ry="2.5" style="stroke:#0A9EFD;stroke-width:2.0;" width="82" x="170.5" y="1042.3555"/><text fill="#0A9EFD" font-family="Arial" font-size="14" lengthAdjust="spacing" textLength="68" x="177.5" y="1062.4873">Video SDK</text><rect fill="none" height="30.0986" rx="2.5" ry="2.5" style="stroke:#0A9EFD;stroke-width:2.0;" width="66" x="687.5" y="55"/><text fill="#0A9EFD" font-family="Arial" font-size="14" lengthAdjust="spacing" textLength="52" x="694.5" y="75.1318">SD-RTN</text><rect fill="none" height="30.0986" rx="2.5" ry="2.5" style="stroke:#0A9EFD;stroke-width:2.0;" width="66" x="687.5" y="1042.3555"/><text fill="#0A9EFD" font-family="Arial" font-size="14" lengthAdjust="spacing" textLength="52" x="694.5" y="1062.4873">SD-RTN</text><polygon fill="#0A9EFD" points="199.5,113.0474,209.5,117.0474,199.5,121.0474,203.5,117.0474" style="stroke:#0A9EFD;stroke-width:1.0;"/><line style="stroke:#0A9EFD;stroke-width:2.0;" x1="37.5" x2="205.5" y1="117.0474" y2="117.0474"/><text fill="#0A9EFD" font-family="Arial" font-size="13" lengthAdjust="spacing" textLength="58" x="95.5" y="112.2925">Open App</text><line style="stroke:#0A9EFD;stroke-width:2.0;" x1="211.5" x2="253.5" y1="160.9448" y2="160.9448"/><line style="stroke:#0A9EFD;stroke-width:2.0;" x1="253.5" x2="253.5" y1="160.9448" y2="173.9448"/><line style="stroke:#0A9EFD;stroke-width:2.0;" x1="212.5" x2="253.5" y1="173.9448" y2="173.9448"/><polygon fill="#0A9EFD" points="222.5,169.9448,212.5,173.9448,222.5,177.9448,218.5,173.9448" style="stroke:#0A9EFD;stroke-width:1.0;"/><text fill="#0A9EFD" font-family="Arial" font-size="13" lengthAdjust="spacing" textLength="259" x="238" y="141.2412">Create an instance of the Video SDK engine:</text><text fill="#0A9EFD" font-family="Arial" font-size="13" lengthAdjust="spacing" textLength="294" x="222.5" y="156.1899">agoraEngine = agoraEngine.createAgoraRtcEngine</text><line style="stroke:#0A9EFD;stroke-width:2.0;" x1="211.5" x2="253.5" y1="217.8423" y2="217.8423"/><line style="stroke:#0A9EFD;stroke-width:2.0;" x1="253.5" x2="253.5" y1="217.8423" y2="230.8423"/><line style="stroke:#0A9EFD;stroke-width:2.0;" x1="212.5" x2="253.5" y1="230.8423" y2="230.8423"/><polygon fill="#0A9EFD" points="222.5,226.8423,212.5,230.8423,222.5,234.8423,218.5,230.8423" style="stroke:#0A9EFD;stroke-width:1.0;"/><text fill="#0A9EFD" font-family="Arial" font-size="13" lengthAdjust="spacing" textLength="173" x="218.5" y="198.1387">Initialize the created instance:</text><text fill="#0A9EFD" font-family="Arial" font-size="13" lengthAdjust="spacing" textLength="123" x="247.5" y="213.0874">agoraEngine.initialize</text><line style="stroke:#0A9EFD;stroke-width:2.0;" x1="211.5" x2="253.5" y1="274.7397" y2="274.7397"/><line style="stroke:#0A9EFD;stroke-width:2.0;" x1="253.5" x2="253.5" y1="274.7397" y2="287.7397"/><line style="stroke:#0A9EFD;stroke-width:2.0;" x1="212.5" x2="253.5" y1="287.7397" y2="287.7397"/><polygon fill="#0A9EFD" points="222.5,283.7397,212.5,287.7397,222.5,291.7397,218.5,287.7397" style="stroke:#0A9EFD;stroke-width:1.0;"/><text fill="#0A9EFD" font-family="Arial" font-size="13" lengthAdjust="spacing" textLength="168" x="232" y="255.0361">Setup the callback functions:</text><text fill="#0A9EFD" font-family="Arial" font-size="13" lengthAdjust="spacing" textLength="195" x="222.5" y="269.9849">agoraEngine.registerEventHandler</text><line style="stroke:#0A9EFD;stroke-width:2.0;" x1="211.5" x2="253.5" y1="331.6372" y2="331.6372"/><line style="stroke:#0A9EFD;stroke-width:2.0;" x1="253.5" x2="253.5" y1="331.6372" y2="344.6372"/><line style="stroke:#0A9EFD;stroke-width:2.0;" x1="212.5" x2="253.5" y1="344.6372" y2="344.6372"/><polygon fill="#0A9EFD" points="222.5,340.6372,212.5,344.6372,222.5,348.6372,218.5,344.6372" style="stroke:#0A9EFD;stroke-width:1.0;"/><text fill="#0A9EFD" font-family="Arial" font-size="13" lengthAdjust="spacing" textLength="133" x="240.5" y="311.9336">Set the channel profile:</text><text fill="#0A9EFD" font-family="Arial" font-size="13" lengthAdjust="spacing" textLength="177" x="222.5" y="326.8823">agoraEngine.setChannelProfile</text><path d="M10,359.6372 L82,359.6372 L82,366.5859 L72,376.5859 L10,376.5859 L10,359.6372 " fill="#EEEEEE" style="stroke:#0A9EFD;stroke-width:1.5;"/><rect fill="none" height="375.2822" style="stroke:#0A9EFD;stroke-width:2.0;" width="753.5" x="10" y="359.6372"/><text fill="#000000" font-family="Arial" font-size="13" lengthAdjust="spacing" textLength="27" x="25" y="372.8311">Host</text><polygon fill="#0A9EFD" points="199.5,393.5347,209.5,397.5347,199.5,401.5347,203.5,397.5347" style="stroke:#0A9EFD;stroke-width:1.0;"/><line style="stroke:#0A9EFD;stroke-width:2.0;" x1="37.5" x2="205.5" y1="397.5347" y2="397.5347"/><text fill="#0A9EFD" font-family="Arial" font-size="13" lengthAdjust="spacing" textLength="145" x="52" y="392.7798">Start live streaming event</text><line style="stroke:#0A9EFD;stroke-width:2.0;" x1="211.5" x2="253.5" y1="441.4321" y2="441.4321"/><line style="stroke:#0A9EFD;stroke-width:2.0;" x1="253.5" x2="253.5" y1="441.4321" y2="454.4321"/><line style="stroke:#0A9EFD;stroke-width:2.0;" x1="212.5" x2="253.5" y1="454.4321" y2="454.4321"/><polygon fill="#0A9EFD" points="222.5,450.4321,212.5,454.4321,222.5,458.4321,218.5,454.4321" style="stroke:#0A9EFD;stroke-width:1.0;"/><text fill="#0A9EFD" font-family="Arial" font-size="13" lengthAdjust="spacing" textLength="102" x="255.5" y="421.7285">Setup local video:</text><text fill="#0A9EFD" font-family="Arial" font-size="13" lengthAdjust="spacing" textLength="172" x="226.5" y="436.6772">agoraEngine.setupLocalVideo</text><line style="stroke:#0A9EFD;stroke-width:2.0;" x1="211.5" x2="253.5" y1="498.3296" y2="498.3296"/><line style="stroke:#0A9EFD;stroke-width:2.0;" x1="253.5" x2="253.5" y1="498.3296" y2="511.3296"/><line style="stroke:#0A9EFD;stroke-width:2.0;" x1="212.5" x2="253.5" y1="511.3296" y2="511.3296"/><polygon fill="#0A9EFD" points="222.5,507.3296,212.5,511.3296,222.5,515.3296,218.5,511.3296" style="stroke:#0A9EFD;stroke-width:1.0;"/><text fill="#0A9EFD" font-family="Arial" font-size="13" lengthAdjust="spacing" textLength="159" x="218.5" y="478.626">Enable local video capturer:</text><text fill="#0A9EFD" font-family="Arial" font-size="13" lengthAdjust="spacing" textLength="147" x="228.5" y="493.5747">agoraEngine.enableVideo</text><line style="stroke:#0A9EFD;stroke-width:2.0;" x1="211.5" x2="253.5" y1="555.2271" y2="555.2271"/><line style="stroke:#0A9EFD;stroke-width:2.0;" x1="253.5" x2="253.5" y1="555.2271" y2="568.2271"/><line style="stroke:#0A9EFD;stroke-width:2.0;" x1="212.5" x2="253.5" y1="568.2271" y2="568.2271"/><polygon fill="#0A9EFD" points="222.5,564.2271,212.5,568.2271,222.5,572.2271,218.5,568.2271" style="stroke:#0A9EFD;stroke-width:1.0;"/><text fill="#0A9EFD" font-family="Arial" font-size="13" lengthAdjust="spacing" textLength="109" x="237" y="535.5234">Start local preview:</text><text fill="#0A9EFD" font-family="Arial" font-size="13" lengthAdjust="spacing" textLength="146" x="222.5" y="550.4722">agoraEngine.startPreview</text><polygon fill="#0A9EFD" points="708.5,608.1245,718.5,612.1245,708.5,616.1245,712.5,612.1245" style="stroke:#0A9EFD;stroke-width:1.0;"/><line style="stroke:#0A9EFD;stroke-width:2.0;" x1="211.5" x2="714.5" y1="612.1245" y2="612.1245"/><text fill="#0A9EFD" font-family="Arial" font-size="13" lengthAdjust="spacing" textLength="147" x="388.5" y="592.4209">Set the user role as host:</text><text fill="#0A9EFD" font-family="Arial" font-size="13" lengthAdjust="spacing" textLength="481" x="227.5" y="607.3696">agoraEngine.setChannelProfile(ChannelProfileType.ChannelProfileLiveBroadcasting)</text><line style="stroke:#0A9EFD;stroke-width:2.0;" x1="211.5" x2="253.5" y1="641.0732" y2="641.0732"/><line style="stroke:#0A9EFD;stroke-width:2.0;" x1="253.5" x2="253.5" y1="641.0732" y2="654.0732"/><line style="stroke:#0A9EFD;stroke-width:2.0;" x1="212.5" x2="253.5" y1="654.0732" y2="654.0732"/><polygon fill="#0A9EFD" points="222.5,650.0732,212.5,654.0732,222.5,658.0732,218.5,654.0732" style="stroke:#0A9EFD;stroke-width:1.0;"/><text fill="#0A9EFD" font-family="Arial" font-size="13" lengthAdjust="spacing" textLength="255" x="218.5" y="636.3184">Retrieve authentication token to join channel</text><polygon fill="#0A9EFD" points="708.5,693.9707,718.5,697.9707,708.5,701.9707,712.5,697.9707" style="stroke:#0A9EFD;stroke-width:1.0;"/><line style="stroke:#0A9EFD;stroke-width:2.0;" x1="211.5" x2="714.5" y1="697.9707" y2="697.9707"/><text fill="#0A9EFD" font-family="Arial" font-size="13" lengthAdjust="spacing" textLength="134" x="399" y="678.2671">Join a channel as host:</text><text fill="#0A9EFD" font-family="Arial" font-size="13" lengthAdjust="spacing" textLength="143" x="396.5" y="693.2158">agoraEngine.joinChannel</text><polygon fill="#0A9EFD" points="708.5,722.9194,718.5,726.9194,708.5,730.9194,712.5,726.9194" style="stroke:#0A9EFD;stroke-width:1.0;"/><line style="stroke:#0A9EFD;stroke-width:2.0;" x1="211.5" x2="714.5" y1="726.9194" y2="726.9194"/><text fill="#0A9EFD" font-family="Arial" font-size="13" lengthAdjust="spacing" textLength="103" x="414.5" y="722.1646">Send data stream</text><path d="M10,748.9194 L109,748.9194 L109,755.8682 L99,765.8682 L10,765.8682 L10,748.9194 " fill="#EEEEEE" style="stroke:#0A9EFD;stroke-width:1.5;"/><rect fill="none" height="219.5386" style="stroke:#0A9EFD;stroke-width:2.0;" width="753.5" x="10" y="748.9194"/><text fill="#000000" font-family="Arial" font-size="13" lengthAdjust="spacing" textLength="54" x="25" y="762.1133">Audience</text><polygon fill="#0A9EFD" points="199.5,782.8169,209.5,786.8169,199.5,790.8169,203.5,786.8169" style="stroke:#0A9EFD;stroke-width:1.0;"/><line style="stroke:#0A9EFD;stroke-width:2.0;" x1="37.5" x2="205.5" y1="786.8169" y2="786.8169"/><text fill="#0A9EFD" font-family="Arial" font-size="13" lengthAdjust="spacing" textLength="140" x="54.5" y="782.062">Join live streaming event</text><line style="stroke:#0A9EFD;stroke-width:2.0;" x1="211.5" x2="253.5" y1="815.7656" y2="815.7656"/><line style="stroke:#0A9EFD;stroke-width:2.0;" x1="253.5" x2="253.5" y1="815.7656" y2="828.7656"/><line style="stroke:#0A9EFD;stroke-width:2.0;" x1="212.5" x2="253.5" y1="828.7656" y2="828.7656"/><polygon fill="#0A9EFD" points="222.5,824.7656,212.5,828.7656,222.5,832.7656,218.5,828.7656" style="stroke:#0A9EFD;stroke-width:1.0;"/><text fill="#0A9EFD" font-family="Arial" font-size="13" lengthAdjust="spacing" textLength="255" x="218.5" y="811.0107">Retrieve authentication token to join channel</text><polygon fill="#0A9EFD" points="708.5,868.6631,718.5,872.6631,708.5,876.6631,712.5,872.6631" style="stroke:#0A9EFD;stroke-width:1.0;"/><line style="stroke:#0A9EFD;stroke-width:2.0;" x1="211.5" x2="714.5" y1="872.6631" y2="872.6631"/><text fill="#0A9EFD" font-family="Arial" font-size="13" lengthAdjust="spacing" textLength="174" x="377" y="852.9595">Set the user role as audience:</text><text fill="#0A9EFD" font-family="Arial" font-size="13" lengthAdjust="spacing" textLength="389" x="273.5" y="867.9082">agoraEngine.setChannelProfile(ClientRoleType.ClientRoleAudience)</text><polygon fill="#0A9EFD" points="708.5,912.5605,718.5,916.5605,708.5,920.5605,712.5,916.5605" style="stroke:#0A9EFD;stroke-width:1.0;"/><line style="stroke:#0A9EFD;stroke-width:2.0;" x1="211.5" x2="714.5" y1="916.5605" y2="916.5605"/><text fill="#0A9EFD" font-family="Arial" font-size="13" lengthAdjust="spacing" textLength="166" x="383" y="896.8569">Join the live streaming event:</text><text fill="#0A9EFD" font-family="Arial" font-size="13" lengthAdjust="spacing" textLength="143" x="396.5" y="911.8057">agoraEngine.joinChannel</text><polygon fill="#0A9EFD" points="222.5,956.458,212.5,960.458,222.5,964.458,218.5,960.458" style="stroke:#0A9EFD;stroke-width:1.0;"/><line style="stroke:#0A9EFD;stroke-width:2.0;" x1="216.5" x2="719.5" y1="960.458" y2="960.458"/><text fill="#0A9EFD" font-family="Arial" font-size="13" lengthAdjust="spacing" textLength="224" x="352" y="940.7544">Retrieve streaming from the other user:</text><text fill="#0A9EFD" font-family="Arial" font-size="13" lengthAdjust="spacing" textLength="186" x="375" y="955.7031">agoraEngine.setupRemoteVideo</text><polygon fill="#0A9EFD" points="199.5,992.4067,209.5,996.4067,199.5,1000.4067,203.5,996.4067" style="stroke:#0A9EFD;stroke-width:1.0;"/><line style="stroke:#0A9EFD;stroke-width:2.0;" x1="37.5" x2="205.5" y1="996.4067" y2="996.4067"/><text fill="#0A9EFD" font-family="Arial" font-size="13" lengthAdjust="spacing" textLength="150" x="49.5" y="991.6519">Leave live streaming event</text><polygon fill="#0A9EFD" points="708.5,1021.3555,718.5,1025.3555,708.5,1029.3555,712.5,1025.3555" style="stroke:#0A9EFD;stroke-width:1.0;"/><line style="stroke:#0A9EFD;stroke-width:2.0;" x1="211.5" x2="714.5" y1="1025.3555" y2="1025.3555"/><text fill="#0A9EFD" font-family="Arial" font-size="13" lengthAdjust="spacing" textLength="152" x="390" y="1020.6006">agoraEngine.leaveChannel</text><!--SRC=[fLFRZjem47ttLqnvwZx01o1r9SeYBIrgKR9RgLAbQaW6S36svOpfvUjhEnS8eTrAVObaPyvbpenVILqeNnBWpZZyMXsadaX_L49WmSR1wBaYDmAiu3dFXDYO7p3wRBm3j7OaX4N7if0MDSFeaop9GFxmFjNFrciXI9SGC0rm5ZMkKVd3E7lwq42M5v0W2EFxo3E5ZvOqpAmLuTHTpXqX1-SQfAuOTK5Wji1xWiu9aDv9JTClkcvmaOxmvl8qAH9FCfTnKL_sX9PQiaGbVr5Yh-lBJdKAVVg9xEfxD3cnjpK3AhN1uW1RhmkMHbS33aSxMJ6vnOaqFw8k5RbhjffhZrgJ0klCLggXcOfuNfUiwmgnSoRuU3GLzpBEEOm5b3mHL1nQF4gz0uhoDxfG9lG0fvXpKhoMz7OLAz8WUl25nesYItn8mx9tv0RMATKEEHgdYS8wEadwFcmxrgphdsVmyfoR3uiDpWGlOVFs8Omfl1ZTw_xnwQUbIVzg5U9xwmoM1LOS0hoBsgtlZDZ9a2YW3mvqU0COXmzi3XI_yCr8tGwqP_fT_87Th5l7LtuZV7u3dSStLI9ZCzZunaIp1ZDVIWfBt5k59FUdJHZV_sSpDoU0ZO_fFmn1XKhEJ3k0xjZsSZVCBkhTQkZl4IvXCBepVklCCV6Qy76fcrlclSteQBXPuvJyPTGhmXEzyEf24vUaAa9Qaxy1]--></g></svg>