<?xml version="1.0" encoding="us-ascii" standalone="no"?><svg xmlns="http://www.w3.org/2000/svg" xmlns:xlink="http://www.w3.org/1999/xlink" contentStyleType="text/css" height="1070px" preserveAspectRatio="none" style="width:601px;height:1070px;" version="1.1" viewBox="0 0 601 1070" width="601px" zoomAndPan="magnify"><defs/><g><rect fill="none" height="1068.7367" style="stroke:#0A9EFD;stroke-width:1.0;" width="599.3333" x="0" y="0"/><rect fill="#999999" fill-opacity="0.33333" height="1058.7367" style="stroke:#0A9EFD;stroke-width:0.5;" width="50.6667" x="26" y="6"/><text fill="#0A9EFD" font-family="sans-serif" font-size="13" font-weight="bold" lengthAdjust="spacing" textLength="25" x="38.8333" y="19.4951">App</text><rect fill="#999999" fill-opacity="0.33333" height="1058.7367" style="stroke:#0A9EFD;stroke-width:0.5;" width="74" x="285" y="6"/><text fill="#0A9EFD" font-family="sans-serif" font-size="13" font-weight="bold" lengthAdjust="spacing" textLength="68" x="288" y="19.4951">Video SDK</text><rect fill="#999999" fill-opacity="0.33333" height="1058.7367" style="stroke:#0A9EFD;stroke-width:0.5;" width="96" x="499.3333" y="6"/><text fill="#0A9EFD" font-family="sans-serif" font-size="13" font-weight="bold" lengthAdjust="spacing" textLength="90" x="502.3333" y="19.4951">Agora SD-RTN</text><rect fill="#0A9EFD" fill-opacity="0.06667" height="60.8462" style="stroke:#0A9EFD;stroke-width:2.0;" width="333.3333" x="20" y="85.0182"/><rect fill="#0A9EFD" fill-opacity="0.06667" height="60.8462" style="stroke:#0A9EFD;stroke-width:2.0;" width="333.3333" x="20" y="159.8644"/><rect fill="#0A9EFD" fill-opacity="0.06667" height="74.8462" style="stroke:#0A9EFD;stroke-width:2.0;" width="558.6667" x="20" y="234.7106"/><rect fill="#0A9EFD" fill-opacity="0.06667" height="208.5386" style="stroke:#0A9EFD;stroke-width:2.0;" width="578.6667" x="10" y="323.5568"/><rect fill="#0A9EFD" fill-opacity="0.06667" height="177.5898" style="stroke:#0A9EFD;stroke-width:2.0;" width="558.6667" x="20" y="347.5055"/><rect fill="#0A9EFD" fill-opacity="0.06667" height="265.3848" style="stroke:#0A9EFD;stroke-width:2.0;" width="558.6667" x="20" y="546.0954"/><rect fill="#0A9EFD" fill-opacity="0.06667" height="177.5898" style="stroke:#0A9EFD;stroke-width:2.0;" width="558.6667" x="20" y="825.4801"/><line style="stroke:#0A9EFD;stroke-width:0.5;stroke-dasharray:5.0,5.0;" x1="51" x2="51" y1="68.0182" y2="1020.07"/><line style="stroke:#0A9EFD;stroke-width:0.5;stroke-dasharray:5.0,5.0;" x1="321.6667" x2="321.6667" y1="68.0182" y2="1020.07"/><line style="stroke:#0A9EFD;stroke-width:0.5;stroke-dasharray:5.0,5.0;" x1="547" x2="547" y1="68.0182" y2="1020.07"/><rect fill="none" height="40.6667" rx="2.5" ry="2.5" style="stroke:#0A9EFD;stroke-width:2.0;" width="42.6667" x="30" y="26.3516"/><path d="M39.1333,33.3516 C38.5333,33.3516 38,33.8849 38,34.4849 L38,58.8516 C38,59.4516 38.5333,59.9849 39.1333,59.9849 L60.1667,59.9849 C60.7667,59.9849 61.3,59.4516 61.3,58.8516 L61.3,34.4849 C61.3,33.8849 60.7667,33.3516 60.1667,33.3516 L39.1333,33.3516 M41.3333,36.6849 L58,36.6849 L58,53.3516 L41.3333,53.3516 L41.3333,36.6849 M49.6667,55.0182 C50.9333,55.0182 51.7667,56.4182 51.1333,57.5182 C50.5,58.6182 48.8667,58.6182 48.2,57.5182 C47.5667,56.4182 48.3667,55.0182 49.6667,55.0182 " fill="#0A9EFD" style="stroke:;stroke-width:0.0;stroke-dasharray:;"/><rect fill="none" height="40.6667" rx="2.5" ry="2.5" style="stroke:#0A9EFD;stroke-width:2.0;" width="42.6667" x="30" y="1019.07"/><path d="M39.1333,1026.07 C38.5333,1026.07 38,1026.6033 38,1027.2033 L38,1051.57 C38,1052.17 38.5333,1052.7033 39.1333,1052.7033 L60.1667,1052.7033 C60.7667,1052.7033 61.3,1052.17 61.3,1051.57 L61.3,1027.2033 C61.3,1026.6033 60.7667,1026.07 60.1667,1026.07 L39.1333,1026.07 M41.3333,1029.4033 L58,1029.4033 L58,1046.07 L41.3333,1046.07 L41.3333,1029.4033 M49.6667,1047.7367 C50.9333,1047.7367 51.7667,1049.1367 51.1333,1050.2367 C50.5,1051.3367 48.8667,1051.3367 48.2,1050.2367 C47.5667,1049.1367 48.3667,1047.7367 49.6667,1047.7367 " fill="#0A9EFD" style="stroke:;stroke-width:0.0;stroke-dasharray:;"/><rect fill="none" height="40.6667" rx="2.5" ry="2.5" style="stroke:#0A9EFD;stroke-width:2.0;" width="42.6667" x="300.6667" y="26.3516"/><path d="M308.6667,33.3516 L308.6667,46.6849 L322,46.6849 L322,33.3516 L308.6667,33.3516 M325.3333,40.0182 L325.3333,50.0182 L315.3333,50.0182 L315.3333,53.3516 L328.6667,53.3516 L328.6667,40.0182 L325.3333,40.0182 M332,46.6849 L332,56.6849 L322,56.6849 L322,60.0182 L335.3333,60.0182 L335.3333,46.6849 L332,46.6849 " fill="#0A9EFD" style="stroke:;stroke-width:0.0;stroke-dasharray:;"/><rect fill="none" height="40.6667" rx="2.5" ry="2.5" style="stroke:#0A9EFD;stroke-width:2.0;" width="42.6667" x="300.6667" y="1019.07"/><path d="M308.6667,1026.07 L308.6667,1039.4033 L322,1039.4033 L322,1026.07 L308.6667,1026.07 M325.3333,1032.7367 L325.3333,1042.7367 L315.3333,1042.7367 L315.3333,1046.07 L328.6667,1046.07 L328.6667,1032.7367 L325.3333,1032.7367 M332,1039.4033 L332,1049.4033 L322,1049.4033 L322,1052.7367 L335.3333,1052.7367 L335.3333,1039.4033 L332,1039.4033 " fill="#0A9EFD" style="stroke:;stroke-width:0.0;stroke-dasharray:;"/><rect fill="none" height="40.6667" rx="2.5" ry="2.5" style="stroke:#0A9EFD;stroke-width:2.0;" width="42.6667" x="526" y="26.3516"/><path d="M549,33.3516 C544.9667,33.3516 541.4333,36.2182 540.6667,40.0182 C537,40.0182 534,43.0182 534,46.6849 C534,50.3516 537,53.3516 540.6667,53.3516 L555.6667,53.3516 C558.4333,53.3516 560.6667,51.1182 560.6667,48.3516 C560.6667,46.1849 559.2667,44.0516 557.3333,43.3516 L557.3333,41.6849 C557.3333,37.0849 553.6,33.3516 549,33.3516 " fill="#0A9EFD" style="stroke:;stroke-width:0.0;stroke-dasharray:;"/><rect fill="none" height="40.6667" rx="2.5" ry="2.5" style="stroke:#0A9EFD;stroke-width:2.0;" width="42.6667" x="526" y="1019.07"/><path d="M549,1026.07 C544.9667,1026.07 541.4333,1028.9367 540.6667,1032.7367 C537,1032.7367 534,1035.7367 534,1039.4033 C534,1043.07 537,1046.07 540.6667,1046.07 L555.6667,1046.07 C558.4333,1046.07 560.6667,1043.8367 560.6667,1041.07 C560.6667,1038.9033 559.2667,1036.77 557.3333,1036.07 L557.3333,1034.4033 C557.3333,1029.8033 553.6,1026.07 549,1026.07 " fill="#0A9EFD" style="stroke:;stroke-width:0.0;stroke-dasharray:;"/><path d="M20,85.0182 L180,85.0182 L180,91.967 L170,101.967 L20,101.967 L20,85.0182 " fill="#EEEEEE" style="stroke:#0A9EFD;stroke-width:1.5;"/><rect fill="none" height="60.8462" style="stroke:#0A9EFD;stroke-width:2.0;" width="333.3333" x="20" y="85.0182"/><text fill="#000000" font-family="Arial" font-size="13" lengthAdjust="spacing" textLength="115" x="35" y="98.2121">Create a local client</text><polygon fill="#0A9EFD" points="310,133.8644,320,137.8644,310,141.8644,314,137.8644" style="stroke:#0A9EFD;stroke-width:1.0;"/><line style="stroke:#0A9EFD;stroke-width:2.0;" x1="51.3333" x2="316" y1="137.8644" y2="137.8644"/><text fill="#0A9EFD" font-family="Arial" font-size="13" lengthAdjust="spacing" textLength="132" x="120.6667" y="118.1608">AgoraRTC.createClient</text><text fill="#0A9EFD" font-family="Arial" font-size="13" lengthAdjust="spacing" textLength="97" x="140.1667" y="133.1095">Set mode to 'live'</text><path d="M20,159.8644 L139,159.8644 L139,166.8132 L129,176.8132 L20,176.8132 L20,159.8644 " fill="#EEEEEE" style="stroke:#0A9EFD;stroke-width:1.5;"/><rect fill="none" height="60.8462" style="stroke:#0A9EFD;stroke-width:2.0;" width="333.3333" x="20" y="159.8644"/><text fill="#000000" font-family="Arial" font-size="13" lengthAdjust="spacing" textLength="74" x="35" y="173.0583">Set user role</text><polygon fill="#0A9EFD" points="310,208.7106,320,212.7106,310,216.7106,314,212.7106" style="stroke:#0A9EFD;stroke-width:1.0;"/><line style="stroke:#0A9EFD;stroke-width:2.0;" x1="51.3333" x2="316" y1="212.7106" y2="212.7106"/><text fill="#0A9EFD" font-family="Arial" font-size="13" lengthAdjust="spacing" textLength="190" x="91.6667" y="193.007">Set the role to 'host' or 'audience'</text><text fill="#0A9EFD" font-family="Arial" font-size="13" lengthAdjust="spacing" textLength="173" x="102.1667" y="207.9557">AgoraRTCClient.setClientRole</text><path d="M20,234.7106 L137,234.7106 L137,241.6593 L127,251.6593 L20,251.6593 L20,234.7106 " fill="#EEEEEE" style="stroke:#0A9EFD;stroke-width:1.5;"/><rect fill="none" height="74.8462" style="stroke:#0A9EFD;stroke-width:2.0;" width="558.6667" x="20" y="234.7106"/><text fill="#000000" font-family="Arial" font-size="13" lengthAdjust="spacing" textLength="72" x="35" y="247.9045">Join channel</text><polygon fill="#0A9EFD" points="310,268.6081,320,272.6081,310,276.6081,314,272.6081" style="stroke:#0A9EFD;stroke-width:1.0;"/><line style="stroke:#0A9EFD;stroke-width:2.0;" x1="51.3333" x2="316" y1="272.6081" y2="272.6081"/><text fill="#0A9EFD" font-family="Arial" font-size="13" lengthAdjust="spacing" textLength="116" x="128.6667" y="267.8532">AgoraRTCClient.join</text><polygon fill="#0A9EFD" points="535.3333,297.5568,545.3333,301.5568,535.3333,305.5568,539.3333,301.5568" style="stroke:#0A9EFD;stroke-width:1.0;"/><line style="stroke:#0A9EFD;stroke-width:2.0;" x1="322" x2="541.3333" y1="301.5568" y2="301.5568"/><text fill="#0A9EFD" font-family="Arial" font-size="13" lengthAdjust="spacing" textLength="119" x="375.1667" y="296.8019">Join channel request</text><path d="M10,323.5568 L184,323.5568 L184,330.5055 L174,340.5055 L10,340.5055 L10,323.5568 " fill="#EEEEEE" style="stroke:#0A9EFD;stroke-width:1.5;"/><rect fill="none" height="208.5386" style="stroke:#0A9EFD;stroke-width:2.0;" width="578.6667" x="10" y="323.5568"/><text fill="#000000" font-family="Arial" font-size="13" lengthAdjust="spacing" textLength="129" x="25" y="336.7507">If the user role is 'host'</text><path d="M20,347.5055 L337,347.5055 L337,354.4543 L327,364.4543 L20,364.4543 L20,347.5055 " fill="#EEEEEE" style="stroke:#0A9EFD;stroke-width:1.5;"/><rect fill="none" height="177.5898" style="stroke:#0A9EFD;stroke-width:2.0;" width="558.6667" x="20" y="347.5055"/><text fill="#000000" font-family="Arial" font-size="13" lengthAdjust="spacing" textLength="272" x="35" y="360.6994">Create and publish local audio and video tracks</text><polygon fill="#0A9EFD" points="310,396.3517,320,400.3517,310,404.3517,314,400.3517" style="stroke:#0A9EFD;stroke-width:1.0;"/><line style="stroke:#0A9EFD;stroke-width:2.0;" x1="51.3333" x2="316" y1="400.3517" y2="400.3517"/><text fill="#0A9EFD" font-family="Arial" font-size="13" lengthAdjust="spacing" textLength="137" x="118.1667" y="380.6481">Create local audio track</text><text fill="#0A9EFD" font-family="Arial" font-size="13" lengthAdjust="spacing" textLength="231" x="73.1667" y="395.5968">AgoraRTC.createMicrophoneAudioTrack</text><polygon fill="#0A9EFD" points="310,440.2492,320,444.2492,310,448.2492,314,444.2492" style="stroke:#0A9EFD;stroke-width:1.0;"/><line style="stroke:#0A9EFD;stroke-width:2.0;" x1="51.3333" x2="316" y1="444.2492" y2="444.2492"/><text fill="#0A9EFD" font-family="Arial" font-size="13" lengthAdjust="spacing" textLength="135" x="119.1667" y="424.5456">Create local video track</text><text fill="#0A9EFD" font-family="Arial" font-size="13" lengthAdjust="spacing" textLength="209" x="84.1667" y="439.4943">AgoraRTC.createCameraVideoTrack</text><polygon fill="#0A9EFD" points="310,484.1466,320,488.1466,310,492.1466,314,488.1466" style="stroke:#0A9EFD;stroke-width:1.0;"/><line style="stroke:#0A9EFD;stroke-width:2.0;" x1="51.3333" x2="316" y1="488.1466" y2="488.1466"/><text fill="#0A9EFD" font-family="Arial" font-size="13" lengthAdjust="spacing" textLength="207" x="83.1667" y="468.443">Publish local audio and video tracks</text><text fill="#0A9EFD" font-family="Arial" font-size="13" lengthAdjust="spacing" textLength="137" x="120.1667" y="483.3918">AgoraRTCClient.publish</text><polygon fill="#0A9EFD" points="535.3333,513.0954,545.3333,517.0954,535.3333,521.0954,539.3333,517.0954" style="stroke:#0A9EFD;stroke-width:1.0;"/><line style="stroke:#0A9EFD;stroke-width:2.0;" x1="322" x2="541.3333" y1="517.0954" y2="517.0954"/><text fill="#0A9EFD" font-family="Arial" font-size="13" lengthAdjust="spacing" textLength="152" x="358.6667" y="512.3405">Send audio and video data</text><path d="M20,546.0954 L218,546.0954 L218,553.0441 L208,563.0441 L20,563.0441 L20,546.0954 " fill="#EEEEEE" style="stroke:#0A9EFD;stroke-width:1.5;"/><rect fill="none" height="265.3848" style="stroke:#0A9EFD;stroke-width:2.0;" width="558.6667" x="20" y="546.0954"/><text fill="#000000" font-family="Arial" font-size="13" lengthAdjust="spacing" textLength="153" x="35" y="559.2892">Subscribe to remote users</text><polygon fill="#0A9EFD" points="62.3333,594.9416,52.3333,598.9416,62.3333,602.9416,58.3333,598.9416" style="stroke:#0A9EFD;stroke-width:1.0;"/><line style="stroke:#0A9EFD;stroke-width:2.0;stroke-dasharray:2.0,2.0;" x1="56.3333" x2="546.3333" y1="598.9416" y2="598.9416"/><text fill="#0A9EFD" font-family="Arial" font-size="13" lengthAdjust="spacing" textLength="259" x="169.8333" y="579.238">Remote users publish audio and video tracks</text><text fill="#0A9EFD" font-family="Arial" font-size="13" lengthAdjust="spacing" textLength="151" x="225.8333" y="594.1867">client.on("user-published")</text><polygon fill="#0A9EFD" points="310,638.839,320,642.839,310,646.839,314,642.839" style="stroke:#0A9EFD;stroke-width:1.0;"/><line style="stroke:#0A9EFD;stroke-width:2.0;" x1="51.3333" x2="316" y1="642.839" y2="642.839"/><text fill="#0A9EFD" font-family="Arial" font-size="13" lengthAdjust="spacing" textLength="133" x="120.1667" y="623.1354">Get remote user object</text><text fill="#0A9EFD" font-family="Arial" font-size="13" lengthAdjust="spacing" textLength="170" x="103.6667" y="638.0841">AgoraRTCClient.remoteUsers</text><polygon fill="#0A9EFD" points="310,682.7365,320,686.7365,310,690.7365,314,686.7365" style="stroke:#0A9EFD;stroke-width:1.0;"/><line style="stroke:#0A9EFD;stroke-width:2.0;" x1="51.3333" x2="316" y1="686.7365" y2="686.7365"/><text fill="#0A9EFD" font-family="Arial" font-size="13" lengthAdjust="spacing" textLength="185" x="94.1667" y="667.0329">Subscribe to remote user object</text><text fill="#0A9EFD" font-family="Arial" font-size="13" lengthAdjust="spacing" textLength="152" x="112.6667" y="681.9816">AgoraRTCClient.subscribe</text><polygon fill="#0A9EFD" points="333,711.6852,323,715.6852,333,719.6852,329,715.6852" style="stroke:#0A9EFD;stroke-width:1.0;"/><line style="stroke:#0A9EFD;stroke-width:2.0;" x1="327" x2="546.3333" y1="715.6852" y2="715.6852"/><text fill="#0A9EFD" font-family="Arial" font-size="13" lengthAdjust="spacing" textLength="167" x="351.1667" y="710.9303">Receive audio and video data</text><polygon fill="#0A9EFD" points="310,755.5827,320,759.5827,310,763.5827,314,759.5827" style="stroke:#0A9EFD;stroke-width:1.0;"/><line style="stroke:#0A9EFD;stroke-width:2.0;" x1="51.3333" x2="316" y1="759.5827" y2="759.5827"/><text fill="#0A9EFD" font-family="Arial" font-size="13" lengthAdjust="spacing" textLength="139" x="117.1667" y="739.8791">Get remote audio object</text><text fill="#0A9EFD" font-family="Arial" font-size="13" lengthAdjust="spacing" textLength="198" x="89.6667" y="754.8278">AgoraRTCRemoteUser.audioTrack</text><polygon fill="#0A9EFD" points="310,799.4801,320,803.4801,310,807.4801,314,803.4801" style="stroke:#0A9EFD;stroke-width:1.0;"/><line style="stroke:#0A9EFD;stroke-width:2.0;" x1="51.3333" x2="316" y1="803.4801" y2="803.4801"/><text fill="#0A9EFD" font-family="Arial" font-size="13" lengthAdjust="spacing" textLength="137" x="118.1667" y="783.7765">Get remote video object</text><text fill="#0A9EFD" font-family="Arial" font-size="13" lengthAdjust="spacing" textLength="196" x="90.6667" y="798.7253">AgoraRTCRemoteUser.videoTrack</text><path d="M20,825.4801 L169,825.4801 L169,832.4289 L159,842.4289 L20,842.4289 L20,825.4801 " fill="#EEEEEE" style="stroke:#0A9EFD;stroke-width:1.5;"/><rect fill="none" height="177.5898" style="stroke:#0A9EFD;stroke-width:2.0;" width="558.6667" x="20" y="825.4801"/><text fill="#000000" font-family="Arial" font-size="13" lengthAdjust="spacing" textLength="104" x="35" y="838.674">Leave the channel</text><polygon fill="#0A9EFD" points="310,874.3263,320,878.3263,310,882.3263,314,878.3263" style="stroke:#0A9EFD;stroke-width:1.0;"/><line style="stroke:#0A9EFD;stroke-width:2.0;" x1="51.3333" x2="316" y1="878.3263" y2="878.3263"/><text fill="#0A9EFD" font-family="Arial" font-size="13" lengthAdjust="spacing" textLength="163" x="105.1667" y="858.6227">Turn off the local audio track</text><text fill="#0A9EFD" font-family="Arial" font-size="13" lengthAdjust="spacing" textLength="167" x="105.1667" y="873.5715">MicrophoneAudioTrack.close</text><polygon fill="#0A9EFD" points="310,918.2238,320,922.2238,310,926.2238,314,922.2238" style="stroke:#0A9EFD;stroke-width:1.0;"/><line style="stroke:#0A9EFD;stroke-width:2.0;" x1="51.3333" x2="316" y1="922.2238" y2="922.2238"/><text fill="#0A9EFD" font-family="Arial" font-size="13" lengthAdjust="spacing" textLength="161" x="106.1667" y="902.5202">Turn off the local video track</text><text fill="#0A9EFD" font-family="Arial" font-size="13" lengthAdjust="spacing" textLength="145" x="116.1667" y="917.4689">CameraVideoTrack.close</text><polygon fill="#0A9EFD" points="310,962.1213,320,966.1213,310,970.1213,314,966.1213" style="stroke:#0A9EFD;stroke-width:1.0;"/><line style="stroke:#0A9EFD;stroke-width:2.0;" x1="51.3333" x2="316" y1="966.1213" y2="966.1213"/><text fill="#0A9EFD" font-family="Arial" font-size="13" lengthAdjust="spacing" textLength="104" x="134.6667" y="946.4176">Leave the channel</text><text fill="#0A9EFD" font-family="Arial" font-size="13" lengthAdjust="spacing" textLength="125" x="126.1667" y="961.3664">AgoraRTCClient.leave</text><polygon fill="#0A9EFD" points="535.3333,991.07,545.3333,995.07,535.3333,999.07,539.3333,995.07" style="stroke:#0A9EFD;stroke-width:1.0;"/><line style="stroke:#0A9EFD;stroke-width:2.0;" x1="322" x2="541.3333" y1="995.07" y2="995.07"/><text fill="#0A9EFD" font-family="Arial" font-size="13" lengthAdjust="spacing" textLength="167" x="351.1667" y="990.3151">Request to leave the channel</text><!--SRC=[ZLJBRjim4BphAxOwrEr1GWyz6OO1mm62Fc78Ray52ehQH4neKkN3QFlrvKDo63s2tWHoTdPsTgXNJ51k6mHoBnNvgH-PA9azyoohvM_8TrsNPnrHXb7M4M4WtsZs5zVltsqthmsfEPfj3aJ3xd38K3JWglhIxwn12SURJyi4dFn1fIE10uu8TbwHEo-gqzTb3igbRIA5mprHt2jfEzWh9COD1rnIme5oXi9aJconTGtN47fKftr90t0Vxdy8EAA1itIs60ahpYwuyim3gx-r6XKeoJ5Xy-UcnN0SAbkfpGgaWXMnZQEck7BaGzFOhTHeubVbsP8s7oKJG5iY1F8PpNtvWqDbxgBOkldNpuf0uI-BsgIa7-w2nAjyOBhNERBC6TdPcZFTzkRv4MGuluJL6aNeeqw4zPKfEc2IaNkVlp2gPDTAWJiFEtdK4b7IR4gq9sTK94HjJ7Bu3_7JPVGZ9uOUVQJ6vGqn9BYQfiBMcYfMXzKhF4iJRGuMROeYi5N9-TNVHN4nhwKKRt9VKVG5sEHlaqblNUoIVY3h1wHcEbl4V1ia3Q5TaBr8euS2Rz9c68kYUoNpFiqgZSX9Z-ggiIHpqKWOOeUN62vFkKZsz1c9K-eVmVHjdQmI8E_Y6vaBybnoI_SFqlWoo_CKZsCxOPXedAw1UqYIqog-TRz5FfdGZ_yF]--></g></svg>