<?xml version="1.0" encoding="us-ascii" standalone="no"?><svg xmlns="http://www.w3.org/2000/svg" xmlns:xlink="http://www.w3.org/1999/xlink" contentStyleType="text/css" height="633px" preserveAspectRatio="none" style="width:706px;height:633px;" version="1.1" viewBox="0 0 706 633" width="706px" zoomAndPan="magnify"><defs/><g><rect fill="none" height="631.9258" style="stroke:#0A9EFD;stroke-width:1.0;" width="704.5" x="0" y="0"/><rect fill="#999999" fill-opacity="0.33333" height="621.9258" style="stroke:#0A9EFD;stroke-width:0.5;" width="369.5" x="135" y="6"/><text fill="#0A9EFD" font-family="sans-serif" font-size="13" font-weight="bold" lengthAdjust="spacing" textLength="130" x="254.75" y="19.4951">Implemented by you</text><rect fill="#999999" fill-opacity="0.33333" height="621.9258" style="stroke:#0A9EFD;stroke-width:0.5;" width="86" x="584.5" y="6"/><text fill="#0A9EFD" font-family="sans-serif" font-size="13" font-weight="bold" lengthAdjust="spacing" textLength="76" x="587.5" y="19.4951">Provided by</text><text fill="#0A9EFD" font-family="sans-serif" font-size="13" font-weight="bold" lengthAdjust="spacing" textLength="38" x="608.5" y="35.8467">Agora</text><rect fill="#0A9EFD" fill-opacity="0.06667" height="420.1797" style="stroke:#0A9EFD;stroke-width:2.0;" width="690.5" x="10" y="106.6475"/><line style="stroke:#0A9EFD;stroke-width:0.5;stroke-dasharray:5.0,5.0;" x1="37" x2="37" y1="89.6475" y2="543.8271"/><line style="stroke:#0A9EFD;stroke-width:0.5;stroke-dasharray:5.0,5.0;" x1="158" x2="158" y1="89.6475" y2="543.8271"/><line style="stroke:#0A9EFD;stroke-width:0.5;stroke-dasharray:5.0,5.0;" x1="446.5" x2="446.5" y1="89.6475" y2="543.8271"/><line style="stroke:#0A9EFD;stroke-width:0.5;stroke-dasharray:5.0,5.0;" x1="627.5" x2="627.5" y1="89.6475" y2="543.8271"/><text fill="#0A9EFD" font-family="Arial" font-size="14" lengthAdjust="spacing" textLength="29" x="20" y="86.6807">User</text><ellipse cx="37.5" cy="19.5488" fill="none" rx="8" ry="8" style="stroke:#0A9EFD;stroke-width:3.0;"/><path d="M37.5,27.5488 L37.5,54.5488 M24.5,35.5488 L50.5,35.5488 M37.5,54.5488 L24.5,69.5488 M37.5,54.5488 L50.5,69.5488 " fill="none" style="stroke:#0A9EFD;stroke-width:3.0;"/><text fill="#0A9EFD" font-family="Arial" font-size="14" lengthAdjust="spacing" textLength="29" x="20" y="555.959">User</text><ellipse cx="37.5" cy="569.9258" fill="none" rx="8" ry="8" style="stroke:#0A9EFD;stroke-width:3.0;"/><path d="M37.5,577.9258 L37.5,604.9258 M24.5,585.9258 L50.5,585.9258 M37.5,604.9258 L24.5,619.9258 M37.5,604.9258 L50.5,619.9258 " fill="none" style="stroke:#0A9EFD;stroke-width:3.0;"/><rect fill="none" height="30.0986" rx="2.5" ry="2.5" style="stroke:#0A9EFD;stroke-width:2.0;" width="39" x="139" y="58.5488"/><text fill="#0A9EFD" font-family="Arial" font-size="14" lengthAdjust="spacing" textLength="25" x="146" y="78.6807">App</text><rect fill="none" height="30.0986" rx="2.5" ry="2.5" style="stroke:#0A9EFD;stroke-width:2.0;" width="39" x="139" y="542.8271"/><text fill="#0A9EFD" font-family="Arial" font-size="14" lengthAdjust="spacing" textLength="25" x="146" y="562.959">App</text><rect fill="none" height="62.2959" rx="2.5" ry="2.5" style="stroke:#0A9EFD;stroke-width:2.0;" width="108" x="392.5" y="26.3516"/><text fill="#0A9EFD" font-family="Arial" font-size="14" lengthAdjust="spacing" textLength="75" x="407" y="46.4834">Developer's</text><text fill="#0A9EFD" font-family="Arial" font-size="14" lengthAdjust="spacing" textLength="90" x="399.5" y="62.582">Authentication</text><text fill="#0A9EFD" font-family="Arial" font-size="14" lengthAdjust="spacing" textLength="46" x="423.5" y="78.6807">System</text><rect fill="none" height="62.2959" rx="2.5" ry="2.5" style="stroke:#0A9EFD;stroke-width:2.0;" width="108" x="392.5" y="542.8271"/><text fill="#0A9EFD" font-family="Arial" font-size="14" lengthAdjust="spacing" textLength="75" x="407" y="562.959">Developer's</text><text fill="#0A9EFD" font-family="Arial" font-size="14" lengthAdjust="spacing" textLength="90" x="399.5" y="579.0576">Authentication</text><text fill="#0A9EFD" font-family="Arial" font-size="14" lengthAdjust="spacing" textLength="46" x="423.5" y="595.1563">System</text><rect fill="none" height="30.0986" rx="2.5" ry="2.5" style="stroke:#0A9EFD;stroke-width:2.0;" width="66" x="594.5" y="58.5488"/><text fill="#0A9EFD" font-family="Arial" font-size="14" lengthAdjust="spacing" textLength="52" x="601.5" y="78.6807">SD-RTN</text><rect fill="none" height="30.0986" rx="2.5" ry="2.5" style="stroke:#0A9EFD;stroke-width:2.0;" width="66" x="594.5" y="542.8271"/><text fill="#0A9EFD" font-family="Arial" font-size="14" lengthAdjust="spacing" textLength="52" x="601.5" y="562.959">SD-RTN</text><path d="M10,106.6475 L254,106.6475 L254,113.5962 L244,123.5962 L10,123.5962 L10,106.6475 " fill="#EEEEEE" style="stroke:#0A9EFD;stroke-width:1.5;"/><rect fill="none" height="420.1797" style="stroke:#0A9EFD;stroke-width:2.0;" width="690.5" x="10" y="106.6475"/><text fill="#000000" font-family="Arial" font-size="13" lengthAdjust="spacing" textLength="199" x="25" y="119.8413">Join a Channel with Authentication</text><polygon fill="#0A9EFD" points="146.5,140.5449,156.5,144.5449,146.5,148.5449,150.5,144.5449" style="stroke:#0A9EFD;stroke-width:1.0;"/><line style="stroke:#0A9EFD;stroke-width:2.0;" x1="37.5" x2="152.5" y1="144.5449" y2="144.5449"/><text fill="#0A9EFD" font-family="Arial" font-size="13" lengthAdjust="spacing" textLength="75" x="60.5" y="139.79">Start the app</text><polygon fill="#0A9EFD" points="434.5,184.4424,444.5,188.4424,434.5,192.4424,438.5,188.4424" style="stroke:#0A9EFD;stroke-width:1.0;"/><line style="stroke:#0A9EFD;stroke-width:2.0;" x1="158.5" x2="440.5" y1="188.4424" y2="188.4424"/><text fill="#0A9EFD" font-family="Arial" font-size="13" lengthAdjust="spacing" textLength="75" x="263" y="168.7388">Login to your</text><text fill="#0A9EFD" font-family="Arial" font-size="13" lengthAdjust="spacing" textLength="172" x="216.5" y="183.6875">identity management system.</text><polygon fill="#0A9EFD" points="146.5,213.3911,156.5,217.3911,146.5,221.3911,150.5,217.3911" style="stroke:#0A9EFD;stroke-width:1.0;"/><line style="stroke:#0A9EFD;stroke-width:2.0;" x1="37.5" x2="152.5" y1="217.3911" y2="217.3911"/><text fill="#0A9EFD" font-family="Arial" font-size="13" lengthAdjust="spacing" textLength="97" x="49.5" y="212.6362">Select a channel</text><polygon fill="#0A9EFD" points="434.5,257.2886,444.5,261.2886,434.5,265.2886,438.5,261.2886" style="stroke:#0A9EFD;stroke-width:1.0;"/><line style="stroke:#0A9EFD;stroke-width:2.0;" x1="158.5" x2="440.5" y1="261.2886" y2="261.2886"/><text fill="#0A9EFD" font-family="Arial" font-size="13" lengthAdjust="spacing" textLength="260" x="170.5" y="241.585">Request an Agora authentication token using</text><text fill="#0A9EFD" font-family="Arial" font-size="13" lengthAdjust="spacing" textLength="247" x="179" y="256.5337">channel name, role, token type and user Id</text><line style="stroke:#0A9EFD;stroke-width:2.0;" x1="446.5" x2="488.5" y1="305.186" y2="305.186"/><line style="stroke:#0A9EFD;stroke-width:2.0;" x1="488.5" x2="488.5" y1="305.186" y2="318.186"/><line style="stroke:#0A9EFD;stroke-width:2.0;" x1="447.5" x2="488.5" y1="318.186" y2="318.186"/><polygon fill="#0A9EFD" points="457.5,314.186,447.5,318.186,457.5,322.186,453.5,318.186" style="stroke:#0A9EFD;stroke-width:1.0;"/><text fill="#0A9EFD" font-family="Arial" font-size="13" lengthAdjust="spacing" textLength="123" x="459" y="285.4824">Validate user request</text><text fill="#0A9EFD" font-family="Arial" font-size="13" lengthAdjust="spacing" textLength="138" x="453.5" y="300.4312">against internal security</text><line style="stroke:#0A9EFD;stroke-width:2.0;" x1="446.5" x2="488.5" y1="362.0835" y2="362.0835"/><line style="stroke:#0A9EFD;stroke-width:2.0;" x1="488.5" x2="488.5" y1="362.0835" y2="375.0835"/><line style="stroke:#0A9EFD;stroke-width:2.0;" x1="447.5" x2="488.5" y1="375.0835" y2="375.0835"/><polygon fill="#0A9EFD" points="457.5,371.0835,447.5,375.0835,457.5,379.0835,453.5,375.0835" style="stroke:#0A9EFD;stroke-width:1.0;"/><text fill="#0A9EFD" font-family="Arial" font-size="13" lengthAdjust="spacing" textLength="161" x="453.5" y="342.3799">Use integrated Agora library</text><text fill="#0A9EFD" font-family="Arial" font-size="13" lengthAdjust="spacing" textLength="112" x="480" y="357.3286">to generate a token</text><polygon fill="#0A9EFD" points="169.5,400.0322,159.5,404.0322,169.5,408.0322,165.5,404.0322" style="stroke:#0A9EFD;stroke-width:1.0;"/><line style="stroke:#0A9EFD;stroke-width:2.0;" x1="163.5" x2="445.5" y1="404.0322" y2="404.0322"/><text fill="#0A9EFD" font-family="Arial" font-size="13" lengthAdjust="spacing" textLength="168" x="218.5" y="399.2773">Return the token to the client</text><polygon fill="#0A9EFD" points="615.5,428.981,625.5,432.981,615.5,436.981,619.5,432.981" style="stroke:#0A9EFD;stroke-width:1.0;"/><line style="stroke:#0A9EFD;stroke-width:2.0;" x1="158.5" x2="621.5" y1="432.981" y2="432.981"/><text fill="#0A9EFD" font-family="Arial" font-size="13" lengthAdjust="spacing" textLength="307" x="239.5" y="428.2261">Join a channel with user Id, channel name, and token</text><line style="stroke:#0A9EFD;stroke-width:2.0;" x1="627.5" x2="669.5" y1="476.8784" y2="476.8784"/><line style="stroke:#0A9EFD;stroke-width:2.0;" x1="669.5" x2="669.5" y1="476.8784" y2="489.8784"/><line style="stroke:#0A9EFD;stroke-width:2.0;" x1="628.5" x2="669.5" y1="489.8784" y2="489.8784"/><polygon fill="#0A9EFD" points="638.5,485.8784,628.5,489.8784,638.5,493.8784,634.5,489.8784" style="stroke:#0A9EFD;stroke-width:1.0;"/><text fill="#0A9EFD" font-family="Arial" font-size="13" lengthAdjust="spacing" textLength="47" x="636" y="457.1748">Validate</text><text fill="#0A9EFD" font-family="Arial" font-size="13" lengthAdjust="spacing" textLength="54" x="634.5" y="472.1235">the token</text><polygon fill="#0A9EFD" points="169.5,514.8271,159.5,518.8271,169.5,522.8271,165.5,518.8271" style="stroke:#0A9EFD;stroke-width:1.0;"/><line style="stroke:#0A9EFD;stroke-width:2.0;" x1="163.5" x2="626.5" y1="518.8271" y2="518.8271"/><text fill="#0A9EFD" font-family="Arial" font-size="13" lengthAdjust="spacing" textLength="299" x="243.5" y="514.0723">Trigger the callback after adding user to the channel</text><!--SRC=[NLBDJkCm4BxxAMPpsGlb0Ig4LC6b2Asg1ZXLMasTmRNgZBt-OSdRxyH92zbBb7Wytsz-MDQkT0HeVCJVwMpvrfRUAOKw-mZDQwBO02PuRVTA7VqdDDi-EEg9CtLm763mfL41OxRQ1kGCpIQ4khBPxPQ3H_eWvmF5dmaEl2dv92XMOxQUvQ0TKgQ-hhPlUqKi-FvpPjr5_s6xYL9sHxd_qRQFg_tBhvbv-xLkeYy1dhnbG7Wu8JCv-6lp2POAb5Y4rVqeUmrj5cYGCM08Iex6YQXQmxCtWfJzQ3oA514b47c07XbD3GPITNAxH2H7Eei4FKbOWExfJw4aKuPg3N0PJlPdOYZ9iX7A6G4OUxg1w9qyfnjv2A9Od1Vf3RQT4lGhoHiwss6cQHXdoeEeHiloPgNIoEWWaIvHB2ssvK-eDqp4iVb9fhF7Y74ur40CCOr3yJYfgHRlLXUBkKIkaSvQVVtGpefHTOb3gbjVojBVoveTtS3I_MYsuWd0zWfmjNhWA-7N1MdZ9LfZ1B0gGEUEgC-0xn80ODUDCLU-YyQvClcdr3y0]--></g></svg>