<?xml version="1.0" encoding="us-ascii" standalone="no"?><svg xmlns="http://www.w3.org/2000/svg" xmlns:xlink="http://www.w3.org/1999/xlink" contentStyleType="text/css" height="631px" preserveAspectRatio="none" style="width:636px;height:631px;" version="1.1" viewBox="0 0 636 631" width="636px" zoomAndPan="magnify"><defs/><g><rect fill="none" height="629.377" style="stroke:#0A9EFD;stroke-width:1.0;" width="634" x="0" y="0"/><rect fill="#999999" fill-opacity="0.33333" height="619.377" style="stroke:#0A9EFD;stroke-width:0.5;" width="277.5" x="46" y="6"/><text fill="#0A9EFD" font-family="sans-serif" font-size="13" font-weight="bold" lengthAdjust="spacing" textLength="130" x="119.75" y="19.4951">Implemented by you</text><rect fill="#999999" fill-opacity="0.33333" height="619.377" style="stroke:#0A9EFD;stroke-width:0.5;" width="124" x="506" y="6"/><text fill="#0A9EFD" font-family="sans-serif" font-size="13" font-weight="bold" lengthAdjust="spacing" textLength="118" x="509" y="19.4951">Provided by Agora</text><rect fill="#0A9EFD" fill-opacity="0.06667" height="219.5386" style="stroke:#0A9EFD;stroke-width:2.0;" width="571" x="40" y="173.9961"/><line style="stroke:#0A9EFD;stroke-width:0.5;stroke-dasharray:5.0,5.0;" x1="22" x2="22" y1="86.0986" y2="541.2783"/><line style="stroke:#0A9EFD;stroke-width:0.5;stroke-dasharray:5.0,5.0;" x1="126" x2="126" y1="86.0986" y2="541.2783"/><line style="stroke:#0A9EFD;stroke-width:0.5;stroke-dasharray:5.0,5.0;" x1="299.5" x2="299.5" y1="86.0986" y2="541.2783"/><line style="stroke:#0A9EFD;stroke-width:0.5;stroke-dasharray:5.0,5.0;" x1="568" x2="568" y1="86.0986" y2="541.2783"/><text fill="#0A9EFD" font-family="Arial" font-size="14" lengthAdjust="spacing" textLength="29" x="5" y="83.1318">User</text><ellipse cx="22.5" cy="16" fill="none" rx="8" ry="8" style="stroke:#0A9EFD;stroke-width:3.0;"/><path d="M22.5,24 L22.5,51 M9.5,32 L35.5,32 M22.5,51 L9.5,66 M22.5,51 L35.5,66 " fill="none" style="stroke:#0A9EFD;stroke-width:3.0;"/><text fill="#0A9EFD" font-family="Arial" font-size="14" lengthAdjust="spacing" textLength="29" x="5" y="553.4102">User</text><ellipse cx="22.5" cy="567.377" fill="none" rx="8" ry="8" style="stroke:#0A9EFD;stroke-width:3.0;"/><path d="M22.5,575.377 L22.5,602.377 M9.5,583.377 L35.5,583.377 M22.5,602.377 L9.5,617.377 M22.5,602.377 L35.5,617.377 " fill="none" style="stroke:#0A9EFD;stroke-width:3.0;"/><rect fill="none" height="30.0986" rx="2.5" ry="2.5" style="stroke:#0A9EFD;stroke-width:2.0;" width="152" x="50" y="55"/><text fill="#0A9EFD" font-family="Arial" font-size="14" lengthAdjust="spacing" textLength="138" x="57" y="75.1318">Authentication system</text><rect fill="none" height="30.0986" rx="2.5" ry="2.5" style="stroke:#0A9EFD;stroke-width:2.0;" width="152" x="50" y="540.2783"/><text fill="#0A9EFD" font-family="Arial" font-size="14" lengthAdjust="spacing" textLength="138" x="57" y="560.4102">Authentication system</text><rect fill="none" height="30.0986" rx="2.5" ry="2.5" style="stroke:#0A9EFD;stroke-width:2.0;" width="39" x="280.5" y="55"/><text fill="#0A9EFD" font-family="Arial" font-size="14" lengthAdjust="spacing" textLength="25" x="287.5" y="75.1318">App</text><rect fill="none" height="30.0986" rx="2.5" ry="2.5" style="stroke:#0A9EFD;stroke-width:2.0;" width="39" x="280.5" y="540.2783"/><text fill="#0A9EFD" font-family="Arial" font-size="14" lengthAdjust="spacing" textLength="25" x="287.5" y="560.4102">App</text><rect fill="none" height="30.0986" rx="2.5" ry="2.5" style="stroke:#0A9EFD;stroke-width:2.0;" width="66" x="535" y="55"/><text fill="#0A9EFD" font-family="Arial" font-size="14" lengthAdjust="spacing" textLength="52" x="542" y="75.1318">SD-RTN</text><rect fill="none" height="30.0986" rx="2.5" ry="2.5" style="stroke:#0A9EFD;stroke-width:2.0;" width="66" x="535" y="540.2783"/><text fill="#0A9EFD" font-family="Arial" font-size="14" lengthAdjust="spacing" textLength="52" x="542" y="560.4102">SD-RTN</text><polygon fill="#0A9EFD" points="288,113.0474,298,117.0474,288,121.0474,292,117.0474" style="stroke:#0A9EFD;stroke-width:1.0;"/><line style="stroke:#0A9EFD;stroke-width:2.0;" x1="22.5" x2="294" y1="117.0474" y2="117.0474"/><text fill="#0A9EFD" font-family="Arial" font-size="13" lengthAdjust="spacing" textLength="75" x="123.75" y="112.2925">Start the app</text><line style="stroke:#0A9EFD;stroke-width:2.0;" x1="300" x2="342" y1="145.9961" y2="145.9961"/><line style="stroke:#0A9EFD;stroke-width:2.0;" x1="342" x2="342" y1="145.9961" y2="158.9961"/><line style="stroke:#0A9EFD;stroke-width:2.0;" x1="301" x2="342" y1="158.9961" y2="158.9961"/><polygon fill="#0A9EFD" points="311,154.9961,301,158.9961,311,162.9961,307,158.9961" style="stroke:#0A9EFD;stroke-width:1.0;"/><text fill="#0A9EFD" font-family="Arial" font-size="13" lengthAdjust="spacing" textLength="170" x="307" y="141.2412">Initiate the Video SDK engine</text><path d="M40,173.9961 L266,173.9961 L266,180.9448 L256,190.9448 L40,190.9448 L40,173.9961 " fill="#EEEEEE" style="stroke:#0A9EFD;stroke-width:1.5;"/><rect fill="none" height="219.5386" style="stroke:#0A9EFD;stroke-width:2.0;" width="571" x="40" y="173.9961"/><text fill="#000000" font-family="Arial" font-size="13" lengthAdjust="spacing" textLength="181" x="55" y="187.1899">Setup media stream encryption</text><polygon fill="#0A9EFD" points="137,222.8423,127,226.8423,137,230.8423,133,226.8423" style="stroke:#0A9EFD;stroke-width:1.0;"/><line style="stroke:#0A9EFD;stroke-width:2.0;" x1="131" x2="299" y1="226.8423" y2="226.8423"/><text fill="#0A9EFD" font-family="Arial" font-size="13" lengthAdjust="spacing" textLength="68" x="177" y="207.1387">Login to the</text><text fill="#0A9EFD" font-family="Arial" font-size="13" lengthAdjust="spacing" textLength="128" x="149" y="222.0874">authentication system</text><polygon fill="#0A9EFD" points="137,251.791,127,255.791,137,259.791,133,255.791" style="stroke:#0A9EFD;stroke-width:1.0;"/><polygon fill="#0A9EFD" points="288,251.791,298,255.791,288,259.791,292,255.791" style="stroke:#0A9EFD;stroke-width:1.0;"/><line style="stroke:#0A9EFD;stroke-width:2.0;" x1="131" x2="294" y1="255.791" y2="255.791"/><text fill="#0A9EFD" font-family="Arial" font-size="13" lengthAdjust="spacing" textLength="129" x="148.5" y="251.0361">Retrieve a 32-byte key</text><polygon fill="#0A9EFD" points="137,295.6885,127,299.6885,137,303.6885,133,299.6885" style="stroke:#0A9EFD;stroke-width:1.0;"/><polygon fill="#0A9EFD" points="288,295.6885,298,299.6885,288,303.6885,292,299.6885" style="stroke:#0A9EFD;stroke-width:1.0;"/><line style="stroke:#0A9EFD;stroke-width:2.0;" x1="131" x2="294" y1="299.6885" y2="299.6885"/><text fill="#0A9EFD" font-family="Arial" font-size="13" lengthAdjust="spacing" textLength="143" x="139.5" y="279.9849">Retrieve a 32-byte salt in</text><text fill="#0A9EFD" font-family="Arial" font-size="13" lengthAdjust="spacing" textLength="84" x="171" y="294.9336">Base64 format</text><line style="stroke:#0A9EFD;stroke-width:2.0;" x1="300" x2="342" y1="343.5859" y2="343.5859"/><line style="stroke:#0A9EFD;stroke-width:2.0;" x1="342" x2="342" y1="343.5859" y2="356.5859"/><line style="stroke:#0A9EFD;stroke-width:2.0;" x1="301" x2="342" y1="356.5859" y2="356.5859"/><polygon fill="#0A9EFD" points="311,352.5859,301,356.5859,311,360.5859,307,356.5859" style="stroke:#0A9EFD;stroke-width:1.0;"/><text fill="#0A9EFD" font-family="Arial" font-size="13" lengthAdjust="spacing" textLength="225" x="307" y="323.8823">Create a encryption configuration using</text><text fill="#0A9EFD" font-family="Arial" font-size="13" lengthAdjust="spacing" textLength="93" x="375" y="338.8311">the key and salt</text><polygon fill="#0A9EFD" points="556,381.5347,566,385.5347,556,389.5347,560,385.5347" style="stroke:#0A9EFD;stroke-width:1.0;"/><line style="stroke:#0A9EFD;stroke-width:2.0;" x1="300" x2="562" y1="385.5347" y2="385.5347"/><text fill="#0A9EFD" font-family="Arial" font-size="13" lengthAdjust="spacing" textLength="183" x="342.5" y="380.7798">Set the encryption configuration</text><polygon fill="#0A9EFD" points="288,417.4834,298,421.4834,288,425.4834,292,421.4834" style="stroke:#0A9EFD;stroke-width:1.0;"/><line style="stroke:#0A9EFD;stroke-width:2.0;" x1="22.5" x2="294" y1="421.4834" y2="421.4834"/><text fill="#0A9EFD" font-family="Arial" font-size="13" lengthAdjust="spacing" textLength="136" x="93.25" y="416.7285">Select a channel to join</text><polygon fill="#0A9EFD" points="137,446.4321,127,450.4321,137,454.4321,133,450.4321" style="stroke:#0A9EFD;stroke-width:1.0;"/><polygon fill="#0A9EFD" points="288,446.4321,298,450.4321,288,454.4321,292,450.4321" style="stroke:#0A9EFD;stroke-width:1.0;"/><line style="stroke:#0A9EFD;stroke-width:2.0;" x1="131" x2="294" y1="450.4321" y2="450.4321"/><text fill="#0A9EFD" font-family="Arial" font-size="13" lengthAdjust="spacing" textLength="150" x="138" y="445.6772">Retrieve an access token.</text><polygon fill="#0A9EFD" points="311,475.3809,301,479.3809,311,483.3809,307,479.3809" style="stroke:#0A9EFD;stroke-width:1.0;"/><polygon fill="#0A9EFD" points="556,475.3809,566,479.3809,556,483.3809,560,479.3809" style="stroke:#0A9EFD;stroke-width:1.0;"/><line style="stroke:#0A9EFD;stroke-width:2.0;" x1="305" x2="562" y1="479.3809" y2="479.3809"/><text fill="#0A9EFD" font-family="Arial" font-size="13" lengthAdjust="spacing" textLength="83" x="392.5" y="474.626">Join a channel</text><polygon fill="#0A9EFD" points="311,519.2783,301,523.2783,311,527.2783,307,523.2783" style="stroke:#0A9EFD;stroke-width:1.0;"/><polygon fill="#0A9EFD" points="556,519.2783,566,523.2783,556,527.2783,560,523.2783" style="stroke:#0A9EFD;stroke-width:1.0;"/><line style="stroke:#0A9EFD;stroke-width:2.0;" x1="305" x2="562" y1="523.2783" y2="523.2783"/><text fill="#0A9EFD" font-family="Arial" font-size="13" lengthAdjust="spacing" textLength="125" x="371.5" y="503.5747">Communicate over an</text><text fill="#0A9EFD" font-family="Arial" font-size="13" lengthAdjust="spacing" textLength="140" x="366" y="518.5234">encrypted media stream</text><!--SRC=[XLAzJiCm4Dxz54VsCW1Yg11IWQM0KDK0KoLqTOzW6fyj-rAHj-SSA8KAn98Xz_qd1uvjswq8i0a9d_BQyQ7hV6iCMWa9geTCgGBCy53FZLc6DwYcFhRaYOLMiEoX3rrb8YPnraLaWMhIoOkUdKLnWI7tMSWF8lNZV0yQut2Op6Q6MFN2swVBB8MDMtrOJ4guFPFwQZI_l_iaJtTaeq5XT5uKnr2BKa3J0CPezDNNPSfE70eDnqSr2b1VtG1nuvYCQLBe8jGa-lIqSWXP4g5NW4rzBBssSjff3BT1UI1Xa5im_hR0G3ZRCkOaoT56ay7nqMZPQvGrzVzYChO2QhNW2ynqUWBF8NcK7zqkDQaKqYuisC3FhkdIHw0kEsvKewHLLq1ThoZlPARZqdweyvTAsNnlRch9YXhR5sIcjWpo6Xp_rOe1hQMS5RScFlo23VRNIjn9_RnT1kyxBlCIX0qbbLhmDgZ-Czy_cJ7l]--></g></svg>