<svg xmlns="http://www.w3.org/2000/svg" xmlns:xlink="http://www.w3.org/1999/xlink" contentStyleType="text/css" data-diagram-type="SEQUENCE" height="450px" preserveAspectRatio="none" style="width:556px;height:450px;" version="1.1" viewBox="0 0 556 450" width="556px" zoomAndPan="magnify"><defs/><g><rect fill="none" height="448.0697" style="stroke:#0A9EFD;stroke-width:1;" width="554.8966" x="0" y="0"/><rect fill="#999999" fill-opacity="0.33333" height="438.0697" style="stroke:#0A9EFD;stroke-width:0.5;" width="68.0991" x="7.2838" y="6"/><text fill="#0A9EFD" font-family="sans-serif" font-size="13" font-weight="bold" lengthAdjust="spacing" textLength="62.0991" x="10.2838" y="19.4951">App: Host</text><rect fill="#999999" fill-opacity="0.33333" height="438.0697" style="stroke:#0A9EFD;stroke-width:0.5;" width="74.6182" x="121.7143" y="6"/><text fill="#0A9EFD" font-family="sans-serif" font-size="13" font-weight="bold" lengthAdjust="spacing" textLength="68.6182" x="124.7143" y="19.4951">Agora SDK</text><rect fill="#999999" fill-opacity="0.33333" height="438.0697" style="stroke:#0A9EFD;stroke-width:0.5;" width="88.8828" x="362.2901" y="6"/><text fill="#0A9EFD" font-family="sans-serif" font-size="13" font-weight="bold" lengthAdjust="spacing" textLength="37.5591" x="387.952" y="19.4951">Agora</text><rect fill="#999999" fill-opacity="0.33333" height="438.0697" style="stroke:#0A9EFD;stroke-width:0.5;" width="97.7236" x="453.1729" y="6"/><text fill="#0A9EFD" font-family="sans-serif" font-size="13" font-weight="bold" lengthAdjust="spacing" textLength="91.7236" x="456.1729" y="19.4951">App: Audience</text><rect fill="#0A9EFD" fill-opacity="0.06667" height="74.8462" style="stroke:#0A9EFD;stroke-width:2;" width="447.1729" x="10" y="85.0182"/><rect fill="#0A9EFD" fill-opacity="0.06667" height="60.8462" style="stroke:#0A9EFD;stroke-width:2;" width="447.1729" x="10" y="173.8644"/><rect fill="#0A9EFD" fill-opacity="0.06667" height="133.6924" style="stroke:#0A9EFD;stroke-width:2;" width="405.6781" x="127.69" y="248.7106"/><g><title>&lt;size:40&gt;&lt;&amp;tablet&gt;</title><rect fill="#000000" fill-opacity="0.00000" height="331.3848" width="8" x="37.3333" y="68.0182"/><line style="stroke:#0A9EFD;stroke-width:0.5;stroke-dasharray:5.0,5.0;" x1="41" x2="41" y1="68.0182" y2="399.403"/></g><g><title>&lt;size:40&gt;&lt;&amp;layers&gt;</title><rect fill="#000000" fill-opacity="0.00000" height="331.3848" width="8" x="155.0234" y="68.0182"/><line style="stroke:#0A9EFD;stroke-width:0.5;stroke-dasharray:5.0,5.0;" x1="158.69" x2="158.69" y1="68.0182" y2="399.403"/></g><g><title>SD-RTN&#8482;</title><rect fill="#000000" fill-opacity="0.00000" height="331.3848" width="8" x="402.7315" y="68.0182"/><line style="stroke:#0A9EFD;stroke-width:0.5;stroke-dasharray:5.0,5.0;" x1="406.2901" x2="406.2901" y1="68.0182" y2="399.403"/></g><g><title>&lt;size:40&gt;&lt;&amp;tablet&gt;</title><rect fill="#000000" fill-opacity="0.00000" height="331.3848" width="8" x="498.0347" y="68.0182"/><line style="stroke:#0A9EFD;stroke-width:0.5;stroke-dasharray:5.0,5.0;" x1="501.7014" x2="501.7014" y1="68.0182" y2="399.403"/></g><g class="participant participant-head" data-participant="HOST"><rect fill="none" height="40.6667" rx="2.5" ry="2.5" style="stroke:#0A9EFD;stroke-width:2;" width="42.6667" x="20" y="26.3516"/><path d="M29.1333,33.3516 C28.5333,33.3516 28,33.8849 28,34.4849 L28,58.8516 C28,59.4516 28.5333,59.9849 29.1333,59.9849 L50.1667,59.9849 C50.7667,59.9849 51.3,59.4516 51.3,58.8516 L51.3,34.4849 C51.3,33.8849 50.7667,33.3516 50.1667,33.3516 L29.1333,33.3516 M31.3333,36.6849 L48,36.6849 L48,53.3516 L31.3333,53.3516 L31.3333,36.6849 M39.6667,55.0182 C40.9333,55.0182 41.7667,56.4182 41.1333,57.5182 C40.5,58.6182 38.8667,58.6182 38.2,57.5182 C37.5667,56.4182 38.3667,55.0182 39.6667,55.0182" fill="#0A9EFD"/></g><g class="participant participant-tail" data-participant="HOST"><rect fill="none" height="40.6667" rx="2.5" ry="2.5" style="stroke:#0A9EFD;stroke-width:2;" width="42.6667" x="20" y="398.403"/><path d="M29.1333,405.403 C28.5333,405.403 28,405.9363 28,406.5363 L28,430.903 C28,431.503 28.5333,432.0363 29.1333,432.0363 L50.1667,432.0363 C50.7667,432.0363 51.3,431.503 51.3,430.903 L51.3,406.5363 C51.3,405.9363 50.7667,405.403 50.1667,405.403 L29.1333,405.403 M31.3333,408.7363 L48,408.7363 L48,425.403 L31.3333,425.403 L31.3333,408.7363 M39.6667,427.0697 C40.9333,427.0697 41.7667,428.4697 41.1333,429.5697 C40.5,430.6697 38.8667,430.6697 38.2,429.5697 C37.5667,428.4697 38.3667,427.0697 39.6667,427.0697" fill="#0A9EFD"/></g><g class="participant participant-head" data-participant="SDK"><rect fill="none" height="40.6667" rx="2.5" ry="2.5" style="stroke:#0A9EFD;stroke-width:2;" width="42.6667" x="137.69" y="26.3516"/><path d="M145.69,33.3516 L145.69,46.6849 L159.0234,46.6849 L159.0234,33.3516 L145.69,33.3516 M162.3567,40.0182 L162.3567,50.0182 L152.3567,50.0182 L152.3567,53.3516 L165.69,53.3516 L165.69,40.0182 L162.3567,40.0182 M169.0234,46.6849 L169.0234,56.6849 L159.0234,56.6849 L159.0234,60.0182 L172.3567,60.0182 L172.3567,46.6849 L169.0234,46.6849" fill="#0A9EFD"/></g><g class="participant participant-tail" data-participant="SDK"><rect fill="none" height="40.6667" rx="2.5" ry="2.5" style="stroke:#0A9EFD;stroke-width:2;" width="42.6667" x="137.69" y="398.403"/><path d="M145.69,405.403 L145.69,418.7363 L159.0234,418.7363 L159.0234,405.403 L145.69,405.403 M162.3567,412.0697 L162.3567,422.0697 L152.3567,422.0697 L152.3567,425.403 L165.69,425.403 L165.69,412.0697 L162.3567,412.0697 M169.0234,418.7363 L169.0234,428.7363 L159.0234,428.7363 L159.0234,432.0697 L172.3567,432.0697 L172.3567,418.7363 L169.0234,418.7363" fill="#0A9EFD"/></g><g class="participant participant-head" data-participant="API"><rect fill="none" height="30.0986" rx="2.5" ry="2.5" style="stroke:#0A9EFD;stroke-width:2;" width="80.8828" x="366.2901" y="36.9196"/><text fill="#0A9EFD" font-family="Arial" font-size="14" lengthAdjust="spacing" textLength="66.8828" x="373.2901" y="57.0514">SD-RTN&#8482;</text></g><g class="participant participant-tail" data-participant="API"><rect fill="none" height="30.0986" rx="2.5" ry="2.5" style="stroke:#0A9EFD;stroke-width:2;" width="80.8828" x="366.2901" y="398.403"/><text fill="#0A9EFD" font-family="Arial" font-size="14" lengthAdjust="spacing" textLength="66.8828" x="373.2901" y="418.5348">SD-RTN&#8482;</text></g><g class="participant participant-head" data-participant="AUD"><rect fill="none" height="40.6667" rx="2.5" ry="2.5" style="stroke:#0A9EFD;stroke-width:2;" width="42.6667" x="480.7014" y="26.3516"/><path d="M489.8347,33.3516 C489.2347,33.3516 488.7014,33.8849 488.7014,34.4849 L488.7014,58.8516 C488.7014,59.4516 489.2347,59.9849 489.8347,59.9849 L510.8681,59.9849 C511.4681,59.9849 512.0014,59.4516 512.0014,58.8516 L512.0014,34.4849 C512.0014,33.8849 511.4681,33.3516 510.8681,33.3516 L489.8347,33.3516 M492.0347,36.6849 L508.7014,36.6849 L508.7014,53.3516 L492.0347,53.3516 L492.0347,36.6849 M500.3681,55.0182 C501.6347,55.0182 502.4681,56.4182 501.8347,57.5182 C501.2014,58.6182 499.5681,58.6182 498.9014,57.5182 C498.2681,56.4182 499.0681,55.0182 500.3681,55.0182" fill="#0A9EFD"/></g><g class="participant participant-tail" data-participant="AUD"><rect fill="none" height="40.6667" rx="2.5" ry="2.5" style="stroke:#0A9EFD;stroke-width:2;" width="42.6667" x="480.7014" y="398.403"/><path d="M489.8347,405.403 C489.2347,405.403 488.7014,405.9363 488.7014,406.5363 L488.7014,430.903 C488.7014,431.503 489.2347,432.0363 489.8347,432.0363 L510.8681,432.0363 C511.4681,432.0363 512.0014,431.503 512.0014,430.903 L512.0014,406.5363 C512.0014,405.9363 511.4681,405.403 510.8681,405.403 L489.8347,405.403 M492.0347,408.7363 L508.7014,408.7363 L508.7014,425.403 L492.0347,425.403 L492.0347,408.7363 M500.3681,427.0697 C501.6347,427.0697 502.4681,428.4697 501.8347,429.5697 C501.2014,430.6697 499.5681,430.6697 498.9014,429.5697 C498.2681,428.4697 499.0681,427.0697 500.3681,427.0697" fill="#0A9EFD"/></g><path d="M10,85.0182 L217.5698,85.0182 L217.5698,91.967 L207.5698,101.967 L10,101.967 L10,85.0182" fill="#EEEEEE" style="stroke:#0A9EFD;stroke-width:1.5;"/><rect fill="none" height="74.8462" style="stroke:#0A9EFD;stroke-width:2;" width="447.1729" x="10" y="85.0182"/><text fill="#000000" font-family="Arial" font-size="13" lengthAdjust="spacing" textLength="162.5698" x="25" y="98.2121">Hosts publish video streams</text><g class="message" data-participant-1="HOST" data-participant-2="SDK"><polygon fill="#0A9EFD" points="147.0234,118.9157,157.0234,122.9157,147.0234,126.9157,151.0234,122.9157" style="stroke:#0A9EFD;stroke-width:1;"/><line style="stroke:#0A9EFD;stroke-width:2;" x1="41.3333" x2="153.0234" y1="122.9157" y2="122.9157"/><text fill="#0A9EFD" font-family="Arial" font-size="13" lengthAdjust="spacing" textLength="72.998" x="63.6793" y="118.1608">Join channel</text></g><g class="message" data-participant-1="SDK" data-participant-2="API"><polygon fill="#0A9EFD" points="394.7315,147.8644,404.7315,151.8644,394.7315,155.8644,398.7315,151.8644" style="stroke:#0A9EFD;stroke-width:1;"/><line style="stroke:#0A9EFD;stroke-width:2;" x1="159.0234" x2="400.7315" y1="151.8644" y2="151.8644"/><text fill="#0A9EFD" font-family="Arial" font-size="13" lengthAdjust="spacing" textLength="211.7324" x="177.0112" y="147.1095">Publish video streams in the channel</text></g><path d="M10,173.8644 L208.207,173.8644 L208.207,180.8132 L198.207,190.8132 L10,190.8132 L10,173.8644" fill="#EEEEEE" style="stroke:#0A9EFD;stroke-width:1.5;"/><rect fill="none" height="60.8462" style="stroke:#0A9EFD;stroke-width:2;" width="447.1729" x="10" y="173.8644"/><text fill="#000000" font-family="Arial" font-size="13" lengthAdjust="spacing" textLength="153.207" x="25" y="187.0583">Enable Cloud Transcoding</text><g class="message" data-participant-1="HOST" data-participant-2="API"><polygon fill="#0A9EFD" points="394.7315,222.7106,404.7315,226.7106,394.7315,230.7106,398.7315,226.7106" style="stroke:#0A9EFD;stroke-width:1;"/><line style="stroke:#0A9EFD;stroke-width:2;" x1="41.3333" x2="400.7315" y1="226.7106" y2="226.7106"/><text fill="#0A9EFD" font-family="Arial" font-size="13" lengthAdjust="spacing" textLength="221.8125" x="113.1262" y="207.007">Start cloud composite via RESTful API</text><text fill="#0A9EFD" font-family="Arial" font-size="13" lengthAdjust="spacing" textLength="179.9561" x="134.0544" y="221.9557">and forward to another channel</text></g><path d="M127.69,248.7106 L421.9815,248.7106 L421.9815,255.6593 L411.9815,265.6593 L127.69,265.6593 L127.69,248.7106" fill="#EEEEEE" style="stroke:#0A9EFD;stroke-width:1.5;"/><rect fill="none" height="133.6924" style="stroke:#0A9EFD;stroke-width:2;" width="405.6781" x="127.69" y="248.7106"/><text fill="#000000" font-family="Arial" font-size="13" lengthAdjust="spacing" textLength="249.2915" x="142.69" y="261.9045">Receiving end: customize composite layout</text><g class="message" data-participant-1="AUD" data-participant-2="SDK"><polygon fill="#0A9EFD" points="170.0234,297.5568,160.0234,301.5568,170.0234,305.5568,166.0234,301.5568" style="stroke:#0A9EFD;stroke-width:1;"/><line style="stroke:#0A9EFD;stroke-width:2;" x1="164.0234" x2="501.0347" y1="301.5568" y2="301.5568"/><text fill="#0A9EFD" font-family="Arial" font-size="13" lengthAdjust="spacing" textLength="157.5615" x="251.7483" y="281.8532">Join the channel containing</text><text fill="#0A9EFD" font-family="Arial" font-size="13" lengthAdjust="spacing" textLength="124.2744" x="268.3918" y="296.8019">the composite stream</text></g><g class="message" data-participant-1="SDK" data-participant-2="AUD"><polygon fill="#0A9EFD" points="490.0347,341.4543,500.0347,345.4543,490.0347,349.4543,494.0347,345.4543" style="stroke:#0A9EFD;stroke-width:1;"/><line style="stroke:#0A9EFD;stroke-width:2;stroke-dasharray:2.0,2.0;" x1="159.0234" x2="496.0347" y1="345.4543" y2="345.4543"/><text fill="#0A9EFD" font-family="Arial" font-size="13" lengthAdjust="spacing" textLength="187.1416" x="236.9583" y="325.7507">Send composite stream callback</text><text fill="#0A9EFD" font-family="Arial" font-size="13" lengthAdjust="spacing" textLength="129.3398" x="265.8591" y="340.6994">with layout information</text></g><g class="message" data-participant-1="AUD" data-participant-2="SDK"><polygon fill="#0A9EFD" points="170.0234,370.403,160.0234,374.403,170.0234,378.403,166.0234,374.403" style="stroke:#0A9EFD;stroke-width:1;"/><line style="stroke:#0A9EFD;stroke-width:2;" x1="164.0234" x2="501.0347" y1="374.403" y2="374.403"/><text fill="#0A9EFD" font-family="Arial" font-size="13" lengthAdjust="spacing" textLength="214.6016" x="223.2283" y="369.6481">Customize the local composite layout</text></g><!--SRC=[ZP6vJiD048PxFyMGWYw8Wif2aI8IYKE2A7QwI6YyNf8Lwnbh3wwQ9-7HU19c7J0X18bs_L_V-C2Gih7MW2jsUEll3HsPsDWig_W91kEspU6SVHXaBRfWb6cH0WnElNdH-SdnwFGmO6Lr60q0FPpV56McgGOnVoMaN2WcLtydM7pMpcyIHBWlOCTSJ8RpylhzzQtpZ6SNkvuqUnnheqdf_qqVBoRV8Il7iUsuFRIniiQluS7Kci47fx7nMIA5uIZjpU6I3O5Q8v6scRoa3p8gXza-BuWuh7LlaDQlnYcbHN1cETPGEYIlk3Qqwkkwr2883wXEfBXfsPkWfGDXFYtAksYJR4aeD7Vi7j7L41YGM5hTljgvLjeyI0_8Omug-i2DN6ahNVuHnv39bNvIRu68cW8QafmbTU-zUqE-EKsYM4o48brxLm8AhQrGtI_fqOJrPwrSJ40Q38RfnuIpVcdgiopktviJw0S0]--></g></svg>