<svg xmlns="http://www.w3.org/2000/svg" xmlns:xlink="http://www.w3.org/1999/xlink" contentStyleType="text/css" data-diagram-type="SEQUENCE" height="451px" preserveAspectRatio="none" style="width:552px;height:451px;" version="1.1" viewBox="0 0 552 451" width="552px" zoomAndPan="magnify"><?plantuml 1.2026.4?><defs/><g><rect fill="none" height="449.0697" style="stroke:#0A9EFD;stroke-width:1;" width="550.618" x="0" y="0"/><rect fill="#999999" fill-opacity="0.33333" height="438.0697" style="stroke:#0A9EFD;stroke-width:0.5;" width="68.0991" x="7.2838" y="6"/><text fill="#0A9EFD" font-family="sans-serif" font-size="13" font-weight="700" lengthAdjust="spacing" textLength="62.0991" x="10.2838" y="19.4951">App: Host</text><rect fill="#999999" fill-opacity="0.33333" height="438.0697" style="stroke:#0A9EFD;stroke-width:0.5;" width="74.6182" x="121.7143" y="6"/><text fill="#0A9EFD" font-family="sans-serif" font-size="13" font-weight="700" lengthAdjust="spacing" textLength="68.6182" x="124.7143" y="19.4951">Agora SDK</text><rect fill="#999999" fill-opacity="0.33333" height="438.0697" style="stroke:#0A9EFD;stroke-width:0.5;" width="78.3257" x="367.5687" y="6"/><text fill="#0A9EFD" font-family="sans-serif" font-size="13" font-weight="700" lengthAdjust="spacing" textLength="37.5591" x="387.952" y="19.4951">Agora</text><rect fill="#999999" fill-opacity="0.33333" height="438.0697" style="stroke:#0A9EFD;stroke-width:0.5;" width="97.7236" x="447.8944" y="6"/><text fill="#0A9EFD" font-family="sans-serif" font-size="13" font-weight="700" lengthAdjust="spacing" textLength="91.7236" x="450.8944" y="19.4951">App: Audience</text><rect fill="#0A9EFD" fill-opacity="0.06667" height="74.8462" style="stroke:#0A9EFD;stroke-width:2;" width="441.8944" x="10" y="85.0182"/><rect fill="#0A9EFD" fill-opacity="0.06667" height="60.8462" style="stroke:#0A9EFD;stroke-width:2;" width="441.8944" x="10" y="173.8644"/><rect fill="#0A9EFD" fill-opacity="0.06667" height="133.6924" style="stroke:#0A9EFD;stroke-width:2;" width="400.3995" x="127.69" y="248.7106"/><g class="participant-lifeline" data-entity-uid="part1" data-qualified-name="HOST" data-source-line="4" id="part1-lifeline"><g><title>.size.40...tablet.</title><rect fill="#000000" fill-opacity="0.00000" height="331.3848" width="8" x="37.3333" y="68.0182"/><line style="stroke:#0A9EFD;stroke-width:0.5;stroke-dasharray:5,5;" x1="41" x2="41" y1="68.0182" y2="399.403"/></g></g><g class="participant-lifeline" data-entity-uid="part2" data-qualified-name="SDK" data-source-line="8" id="part2-lifeline"><g><title>.size.40...layers.</title><rect fill="#000000" fill-opacity="0.00000" height="331.3848" width="8" x="155.0234" y="68.0182"/><line style="stroke:#0A9EFD;stroke-width:0.5;stroke-dasharray:5,5;" x1="158.69" x2="158.69" y1="68.0182" y2="399.403"/></g></g><g class="participant-lifeline" data-entity-uid="part3" data-qualified-name="API" data-source-line="12" id="part3-lifeline"><g><title>SDRTN.sup....sup.</title><rect fill="#000000" fill-opacity="0.00000" height="331.3848" width="8" x="402.7315" y="68.0182"/><line style="stroke:#0A9EFD;stroke-width:0.5;stroke-dasharray:5,5;" x1="406.5687" x2="406.5687" y1="68.0182" y2="399.403"/></g></g><g class="participant-lifeline" data-entity-uid="part4" data-qualified-name="AUD" data-source-line="16" id="part4-lifeline"><g><title>.size.40...tablet.</title><rect fill="#000000" fill-opacity="0.00000" height="331.3848" width="8" x="492.7562" y="68.0182"/><line style="stroke:#0A9EFD;stroke-width:0.5;stroke-dasharray:5,5;" x1="496.4229" x2="496.4229" y1="68.0182" y2="399.403"/></g></g><g class="participant participant-head" data-entity-uid="part1" data-qualified-name="HOST" data-source-line="4" id="part1-head"><rect fill="none" height="40.6667" rx="2.5" ry="2.5" style="stroke:#0A9EFD;stroke-width:2;" width="42.6667" x="20" y="26.3516"/><path d="M29.1333,33.3516 C28.5333,33.3516 28,33.8849 28,34.4849 L28,58.8516 C28,59.4516 28.5333,59.9849 29.1333,59.9849 L50.1667,59.9849 C50.7667,59.9849 51.3,59.4516 51.3,58.8516 L51.3,34.4849 C51.3,33.8849 50.7667,33.3516 50.1667,33.3516 L29.1333,33.3516 M31.3333,36.6849 L48,36.6849 L48,53.3516 L31.3333,53.3516 L31.3333,36.6849 M39.6667,55.0182 C40.9333,55.0182 41.7667,56.4182 41.1333,57.5182 C40.5,58.6182 38.8667,58.6182 38.2,57.5182 C37.5667,56.4182 38.3667,55.0182 39.6667,55.0182" fill="#0A9EFD"/></g><g class="participant participant-tail" data-entity-uid="part1" data-qualified-name="HOST" data-source-line="4" id="part1-tail"><rect fill="none" height="40.6667" rx="2.5" ry="2.5" style="stroke:#0A9EFD;stroke-width:2;" width="42.6667" x="20" y="398.403"/><path d="M29.1333,405.403 C28.5333,405.403 28,405.9363 28,406.5363 L28,430.903 C28,431.503 28.5333,432.0363 29.1333,432.0363 L50.1667,432.0363 C50.7667,432.0363 51.3,431.503 51.3,430.903 L51.3,406.5363 C51.3,405.9363 50.7667,405.403 50.1667,405.403 L29.1333,405.403 M31.3333,408.7363 L48,408.7363 L48,425.403 L31.3333,425.403 L31.3333,408.7363 M39.6667,427.0697 C40.9333,427.0697 41.7667,428.4697 41.1333,429.5697 C40.5,430.6697 38.8667,430.6697 38.2,429.5697 C37.5667,428.4697 38.3667,427.0697 39.6667,427.0697" fill="#0A9EFD"/></g><g class="participant participant-head" data-entity-uid="part2" data-qualified-name="SDK" data-source-line="8" id="part2-head"><rect fill="none" height="40.6667" rx="2.5" ry="2.5" style="stroke:#0A9EFD;stroke-width:2;" width="42.6667" x="137.69" y="26.3516"/><path d="M145.69,33.3516 L145.69,46.6849 L159.0234,46.6849 L159.0234,33.3516 L145.69,33.3516 M162.3567,40.0182 L162.3567,50.0182 L152.3567,50.0182 L152.3567,53.3516 L165.69,53.3516 L165.69,40.0182 L162.3567,40.0182 M169.0234,46.6849 L169.0234,56.6849 L159.0234,56.6849 L159.0234,60.0182 L172.3567,60.0182 L172.3567,46.6849 L169.0234,46.6849" fill="#0A9EFD"/></g><g class="participant participant-tail" data-entity-uid="part2" data-qualified-name="SDK" data-source-line="8" id="part2-tail"><rect fill="none" height="40.6667" rx="2.5" ry="2.5" style="stroke:#0A9EFD;stroke-width:2;" width="42.6667" x="137.69" y="398.403"/><path d="M145.69,405.403 L145.69,418.7363 L159.0234,418.7363 L159.0234,405.403 L145.69,405.403 M162.3567,412.0697 L162.3567,422.0697 L152.3567,422.0697 L152.3567,425.403 L165.69,425.403 L165.69,412.0697 L162.3567,412.0697 M169.0234,418.7363 L169.0234,428.7363 L159.0234,428.7363 L159.0234,432.0697 L172.3567,432.0697 L172.3567,418.7363 L169.0234,418.7363" fill="#0A9EFD"/></g><g class="participant participant-head" data-entity-uid="part3" data-qualified-name="API" data-source-line="12" id="part3-head"><rect fill="none" height="32.6489" rx="2.5" ry="2.5" style="stroke:#0A9EFD;stroke-width:2;" width="70.3257" x="371.5687" y="34.3693"/><text fill="#0A9EFD" font-family="Arial" font-size="14" lengthAdjust="spacing" textLength="48.2207" x="378.5687" y="57.0514">SDRTN</text><text fill="#0A9EFD" font-family="Arial" font-size="11" lengthAdjust="spacing" textLength="8.105" x="426.7894" y="51.6872">&#174;</text></g><g class="participant participant-tail" data-entity-uid="part3" data-qualified-name="API" data-source-line="12" id="part3-tail"><rect fill="none" height="32.6489" rx="2.5" ry="2.5" style="stroke:#0A9EFD;stroke-width:2;" width="70.3257" x="371.5687" y="398.403"/><text fill="#0A9EFD" font-family="Arial" font-size="14" lengthAdjust="spacing" textLength="48.2207" x="378.5687" y="421.0851">SDRTN</text><text fill="#0A9EFD" font-family="Arial" font-size="11" lengthAdjust="spacing" textLength="8.105" x="426.7894" y="415.7209">&#174;</text></g><g class="participant participant-head" data-entity-uid="part4" data-qualified-name="AUD" data-source-line="16" id="part4-head"><rect fill="none" height="40.6667" rx="2.5" ry="2.5" style="stroke:#0A9EFD;stroke-width:2;" width="42.6667" x="475.4229" y="26.3516"/><path d="M484.5562,33.3516 C483.9562,33.3516 483.4229,33.8849 483.4229,34.4849 L483.4229,58.8516 C483.4229,59.4516 483.9562,59.9849 484.5562,59.9849 L505.5895,59.9849 C506.1895,59.9849 506.7229,59.4516 506.7229,58.8516 L506.7229,34.4849 C506.7229,33.8849 506.1895,33.3516 505.5895,33.3516 L484.5562,33.3516 M486.7562,36.6849 L503.4229,36.6849 L503.4229,53.3516 L486.7562,53.3516 L486.7562,36.6849 M495.0895,55.0182 C496.3562,55.0182 497.1895,56.4182 496.5562,57.5182 C495.9229,58.6182 494.2895,58.6182 493.6229,57.5182 C492.9895,56.4182 493.7895,55.0182 495.0895,55.0182" fill="#0A9EFD"/></g><g class="participant participant-tail" data-entity-uid="part4" data-qualified-name="AUD" data-source-line="16" id="part4-tail"><rect fill="none" height="40.6667" rx="2.5" ry="2.5" style="stroke:#0A9EFD;stroke-width:2;" width="42.6667" x="475.4229" y="398.403"/><path d="M484.5562,405.403 C483.9562,405.403 483.4229,405.9363 483.4229,406.5363 L483.4229,430.903 C483.4229,431.503 483.9562,432.0363 484.5562,432.0363 L505.5895,432.0363 C506.1895,432.0363 506.7229,431.503 506.7229,430.903 L506.7229,406.5363 C506.7229,405.9363 506.1895,405.403 505.5895,405.403 L484.5562,405.403 M486.7562,408.7363 L503.4229,408.7363 L503.4229,425.403 L486.7562,425.403 L486.7562,408.7363 M495.0895,427.0697 C496.3562,427.0697 497.1895,428.4697 496.5562,429.5697 C495.9229,430.6697 494.2895,430.6697 493.6229,429.5697 C492.9895,428.4697 493.7895,427.0697 495.0895,427.0697" fill="#0A9EFD"/></g><path d="M10,85.0182 L217.5698,85.0182 L217.5698,91.967 L207.5698,101.967 L10,101.967 L10,85.0182" fill="#EEEEEE" style="stroke:#0A9EFD;stroke-width:1.5;"/><rect fill="none" height="74.8462" style="stroke:#0A9EFD;stroke-width:2;" width="441.8944" x="10" y="85.0182"/><text fill="#000000" font-family="Arial" font-size="13" lengthAdjust="spacing" textLength="162.5698" x="25" y="98.2121">Hosts publish video streams</text><g class="message" data-entity-1="part1" data-entity-2="part2" data-source-line="20" id="msg1"><polygon fill="#0A9EFD" points="147.0234,118.9157,157.0234,122.9157,147.0234,126.9157,151.0234,122.9157" style="stroke:#0A9EFD;stroke-width:1;stroke-linejoin:miter;stroke-miterlimit:10;"/><line style="stroke:#0A9EFD;stroke-width:2;" x1="41.3333" x2="153.0234" y1="122.9157" y2="122.9157"/><text fill="#0A9EFD" font-family="Arial" font-size="13" lengthAdjust="spacing" textLength="72.998" x="63.6793" y="118.1608">Join channel</text></g><g class="message" data-entity-1="part2" data-entity-2="part3" data-source-line="21" id="msg2"><polygon fill="#0A9EFD" points="394.7315,147.8644,404.7315,151.8644,394.7315,155.8644,398.7315,151.8644" style="stroke:#0A9EFD;stroke-width:1;stroke-linejoin:miter;stroke-miterlimit:10;"/><line style="stroke:#0A9EFD;stroke-width:2;" x1="159.0234" x2="400.7315" y1="151.8644" y2="151.8644"/><text fill="#0A9EFD" font-family="Arial" font-size="13" lengthAdjust="spacing" textLength="211.7324" x="177.0112" y="147.1095">Publish video streams in the channel</text></g><path d="M10,173.8644 L208.207,173.8644 L208.207,180.8132 L198.207,190.8132 L10,190.8132 L10,173.8644" fill="#EEEEEE" style="stroke:#0A9EFD;stroke-width:1.5;"/><rect fill="none" height="60.8462" style="stroke:#0A9EFD;stroke-width:2;" width="441.8944" x="10" y="173.8644"/><text fill="#000000" font-family="Arial" font-size="13" lengthAdjust="spacing" textLength="153.207" x="25" y="187.0583">Enable Cloud Transcoding</text><g class="message" data-entity-1="part1" data-entity-2="part3" data-source-line="25" id="msg3"><polygon fill="#0A9EFD" points="394.7315,222.7106,404.7315,226.7106,394.7315,230.7106,398.7315,226.7106" style="stroke:#0A9EFD;stroke-width:1;stroke-linejoin:miter;stroke-miterlimit:10;"/><line style="stroke:#0A9EFD;stroke-width:2;" x1="41.3333" x2="400.7315" y1="226.7106" y2="226.7106"/><text fill="#0A9EFD" font-family="Arial" font-size="13" lengthAdjust="spacing" textLength="221.8125" x="113.1262" y="207.007">Start cloud composite via RESTful API</text><text fill="#0A9EFD" font-family="Arial" font-size="13" lengthAdjust="spacing" textLength="179.9561" x="134.0544" y="221.9557">and forward to another channel</text></g><path d="M127.69,248.7106 L421.9815,248.7106 L421.9815,255.6593 L411.9815,265.6593 L127.69,265.6593 L127.69,248.7106" fill="#EEEEEE" style="stroke:#0A9EFD;stroke-width:1.5;"/><rect fill="none" height="133.6924" style="stroke:#0A9EFD;stroke-width:2;" width="400.3995" x="127.69" y="248.7106"/><text fill="#000000" font-family="Arial" font-size="13" lengthAdjust="spacing" textLength="249.2915" x="142.69" y="261.9045">Receiving end: customize composite layout</text><g class="message" data-entity-1="part4" data-entity-2="part2" data-source-line="29" id="msg4"><polygon fill="#0A9EFD" points="170.0234,297.5568,160.0234,301.5568,170.0234,305.5568,166.0234,301.5568" style="stroke:#0A9EFD;stroke-width:1;stroke-linejoin:miter;stroke-miterlimit:10;"/><line style="stroke:#0A9EFD;stroke-width:2;" x1="164.0234" x2="495.7562" y1="301.5568" y2="301.5568"/><text fill="#0A9EFD" font-family="Arial" font-size="13" lengthAdjust="spacing" textLength="157.5615" x="249.109" y="281.8532">Join the channel containing</text><text fill="#0A9EFD" font-family="Arial" font-size="13" lengthAdjust="spacing" textLength="124.2744" x="265.7526" y="296.8019">the composite stream</text></g><g class="message" data-entity-1="part2" data-entity-2="part4" data-source-line="30" id="msg5"><polygon fill="#0A9EFD" points="484.7562,341.4543,494.7562,345.4543,484.7562,349.4543,488.7562,345.4543" style="stroke:#0A9EFD;stroke-width:1;stroke-linejoin:miter;stroke-miterlimit:10;"/><line style="stroke:#0A9EFD;stroke-width:2;stroke-dasharray:2,2;" x1="159.0234" x2="490.7562" y1="345.4543" y2="345.4543"/><text fill="#0A9EFD" font-family="Arial" font-size="13" lengthAdjust="spacing" textLength="187.1416" x="234.319" y="325.7507">Send composite stream callback</text><text fill="#0A9EFD" font-family="Arial" font-size="13" lengthAdjust="spacing" textLength="129.3398" x="263.2198" y="340.6994">with layout information</text></g><g class="message" data-entity-1="part4" data-entity-2="part2" data-source-line="31" id="msg6"><polygon fill="#0A9EFD" points="170.0234,370.403,160.0234,374.403,170.0234,378.403,166.0234,374.403" style="stroke:#0A9EFD;stroke-width:1;stroke-linejoin:miter;stroke-miterlimit:10;"/><line style="stroke:#0A9EFD;stroke-width:2;" x1="164.0234" x2="495.7562" y1="374.403" y2="374.403"/><text fill="#0A9EFD" font-family="Arial" font-size="13" lengthAdjust="spacing" textLength="214.6016" x="220.589" y="369.6481">Customize the local composite layout</text></g><?plantuml-src ZL5BJy904BxtLumSlFauU6e82Q4cg8aI2ZSICsmNsB2TQVRXwqVv8_nbpXP1H4myDPb-xpqnf6oiDE2I7JxwjQ5p4skRPND-WKw_QN8OiW-Th44NZ38DKe1ErvitdLzTzhgd0UTMXru7qCFmePnacYeGybOXwK9PtFsjOF5LExzH4E0nWGDoMOmdzrqVczx7U_SYVLjoVtHpI4xv-x4ocfJ-NuV-jFWMMJgEJJk0XoREhV4hU3ALPl31QQnzbYh3MIy5p-6M3O5Q8P6scLpI3mcLm-WO5mGSLdf74DUjupMbH32m72kOE2Ilk3AqtDcrgcMGFg1QaEAwOM-25W-4yNKvMKIRO3D2QRDWzuokWi20nEBgZjcEjTBcINn0ZZcew0FNijAUkZmMnv39IZzRxnKHD0Kq93epQkyxzgRvPfhKObf8YxJs8GGKMZj7jPxHimchBrjPJ8hK60pJZmY3NTBaPrdOlpEdefy0?></g></svg>