<svg width="1174" height="677" xmlns="http://www.w3.org/2000/svg" xmlns:xlink="http://www.w3.org/1999/xlink" overflow="hidden"><defs><clipPath id="clip0"><path d="M60 22 1234 22 1234 699 60 699Z" fill-rule="evenodd" clip-rule="evenodd"/></clipPath></defs><g clip-path="url(#clip0)" transform="translate(-60 -22)"><rect x="61" y="23" width="1172" height="675" fill="#0C0F14"/><text fill="#BDBFC2" font-family="Calibri,Calibri_MSFontService,sans-serif" font-weight="400" font-size="21" transform="translate(105.868 617)">The original composite <tspan x="4.75999" y="26">video stream carrying </tspan><tspan x="-9.08" y="51">VideoLayout</tspan><tspan x="103.773" y="51">information</tspan></text><rect x="129.5" y="219.5" width="153" height="217" stroke="#FFFFFF" stroke-width="1.33333" stroke-miterlimit="8" stroke-dasharray="5.33333 4" fill="none"/><path d="M205.5 219.5 205.5 436.085" stroke="#FFFFFF" stroke-width="1.33333" stroke-miterlimit="8" stroke-dasharray="5.33333 4" fill="none" fill-rule="evenodd"/><path d="M129.5 327.5 282.866 327.5" stroke="#FFFFFF" stroke-width="1.33333" stroke-miterlimit="8" stroke-dasharray="5.33333 4" fill="none" fill-rule="evenodd"/><rect x="377.5" y="95.5001" width="77" height="108" stroke="#2F528F" stroke-width="1.33333" stroke-miterlimit="8" fill="#4472C4"/><rect x="377.5" y="95.5001" width="153" height="216" stroke="#FFFFFF" stroke-width="1.33333" stroke-miterlimit="8" stroke-dasharray="5.33333 4" fill="none"/><path d="M454.5 95.5001 454.5 312.085" stroke="#FFFFFF" stroke-width="1.33333" stroke-miterlimit="8" stroke-dasharray="5.33333 4" fill="none" fill-rule="evenodd"/><path d="M377.5 203.5 530.866 203.5" stroke="#FFFFFF" stroke-width="1.33333" stroke-miterlimit="8" stroke-dasharray="5.33333 4" fill="none" fill-rule="evenodd"/><rect x="646.5" y="97.5001" width="77" height="108" stroke="#2F528F" stroke-width="1.33333" stroke-miterlimit="8" fill="#ED7D31"/><rect x="377.5" y="464.5" width="77" height="108" stroke="#2F528F" stroke-width="1.33333" stroke-miterlimit="8" fill="#FFFF00"/><rect x="645.5" y="464.5" width="77" height="108" stroke="#2F528F" stroke-width="1.33333" stroke-miterlimit="8" fill="#92D050"/><rect x="569.5" y="95.5001" width="153" height="216" stroke="#FFFFFF" stroke-width="1.33333" stroke-miterlimit="8" stroke-dasharray="5.33333 4" fill="none"/><path d="M645.5 95.5001 645.5 312.085" stroke="#FFFFFF" stroke-width="1.33333" stroke-miterlimit="8" stroke-dasharray="5.33333 4" fill="none" fill-rule="evenodd"/><path d="M569.5 203.5 722.866 203.5" stroke="#FFFFFF" stroke-width="1.33333" stroke-miterlimit="8" stroke-dasharray="5.33333 4" fill="none" fill-rule="evenodd"/><rect x="569.5" y="356.5" width="153" height="216" stroke="#FFFFFF" stroke-width="1.33333" stroke-miterlimit="8" stroke-dasharray="5.33333 4" fill="none"/><path d="M645.5 356.5 645.5 573.085" stroke="#FFFFFF" stroke-width="1.33333" stroke-miterlimit="8" stroke-dasharray="5.33333 4" fill="none" fill-rule="evenodd"/><path d="M569.5 464.5 722.866 464.5" stroke="#FFFFFF" stroke-width="1.33333" stroke-miterlimit="8" stroke-dasharray="5.33333 4" fill="none" fill-rule="evenodd"/><rect x="377.5" y="356.5" width="153" height="216" stroke="#FFFFFF" stroke-width="1.33333" stroke-miterlimit="8" stroke-dasharray="5.33333 4" fill="none"/><path d="M454.5 356.5 454.5 573.085" stroke="#FFFFFF" stroke-width="1.33333" stroke-miterlimit="8" stroke-dasharray="5.33333 4" fill="none" fill-rule="evenodd"/><path d="M377.5 464.5 530.866 464.5" stroke="#FFFFFF" stroke-width="1.33333" stroke-miterlimit="8" stroke-dasharray="5.33333 4" fill="none" fill-rule="evenodd"/><rect x="789.5" y="219.5" width="76" height="108" stroke="#2F528F" stroke-width="1.33333" stroke-miterlimit="8" fill="#4472C4"/><text fill="#FFFFFF" font-family="Calibri,Calibri_MSFontService,sans-serif" font-weight="400" font-size="24" transform="translate(802.917 266)">View <tspan x="18.02" y="29">1</tspan></text><rect x="865.5" y="219.5" width="77" height="108" stroke="#2F528F" stroke-width="1.33333" stroke-miterlimit="8" fill="#ED7D31"/><text fill="#FFFFFF" font-family="Calibri,Calibri_MSFontService,sans-serif" font-weight="400" font-size="24" transform="translate(879.6 266)">View <tspan x="18.02" y="29">2</tspan></text><rect x="789.5" y="327.5" width="76" height="109" stroke="#2F528F" stroke-width="1.33333" stroke-miterlimit="8" fill="#FFFF00"/><text fill="#0C0F14" font-family="Calibri,Calibri_MSFontService,sans-serif" font-weight="400" font-size="24" transform="translate(802.806 375)">View <tspan x="18.02" y="29">3</tspan></text><rect x="865.5" y="327.5" width="77" height="109" stroke="#2F528F" stroke-width="1.33333" stroke-miterlimit="8" fill="#92D050"/><text fill="#0C0F14" font-family="Calibri,Calibri_MSFontService,sans-serif" font-weight="400" font-size="24" transform="translate(879.487 375)">View <tspan x="18.02" y="29">4</tspan></text><rect x="789.5" y="219.5" width="153" height="217" stroke="#FFFFFF" stroke-width="1.33333" stroke-miterlimit="8" stroke-dasharray="5.33333 4" fill="none"/><path d="M865.5 219.5 865.5 436.085" stroke="#FFFFFF" stroke-width="1.33333" stroke-miterlimit="8" stroke-dasharray="5.33333 4" fill="none" fill-rule="evenodd"/><path d="M789.5 327.5 942.866 327.5" stroke="#FFFFFF" stroke-width="1.33333" stroke-miterlimit="8" stroke-dasharray="5.33333 4" fill="none" fill-rule="evenodd"/><path d="M723.515 150.834 728.847 150.952 728.817 152.285 723.485 152.167ZM732.846 151.04 738.178 151.158 738.148 152.491 732.816 152.373ZM742.205 151.332 747.525 151.709 747.431 153.039 742.111 152.662ZM751.515 151.992 756.835 152.369 756.741 153.699 751.421 153.322ZM760.838 152.791 766.14 153.372 765.995 154.697 760.693 154.117ZM770.116 153.807 773.837 154.214 775.438 154.462 775.234 155.78 773.648 155.534 773.678 155.538 769.971 155.132ZM779.391 155.075 784.661 155.892 784.457 157.21 779.187 156.393ZM788.614 156.505 789.991 156.718 793.883 157.484 793.626 158.793 789.746 158.029 789.773 158.034 788.41 157.823ZM797.808 158.257 803.041 159.286 802.784 160.595 797.551 159.565ZM806.982 160.132 812.16 161.41 811.84 162.705 806.663 161.427ZM816.043 162.369 820.548 163.481 821.24 163.682 820.868 164.963 820.189 164.765 820.215 164.772 815.724 163.664ZM825.081 164.799 830.202 166.288 829.83 167.568 824.709 166.079ZM834.043 167.405 834.765 167.615 839.127 169.124 838.691 170.384 834.345 168.88 834.376 168.89 833.671 168.685ZM842.907 170.431 847.947 172.175 847.511 173.435 842.471 171.691ZM851.683 173.705 856.617 175.73 856.111 176.963 851.177 174.939ZM860.355 177.275 865.142 179.627 864.554 180.824 859.767 178.472ZM868.732 181.391 871.191 182.6 873.471 183.933 872.799 185.084 870.539 183.763 870.581 183.786 868.144 182.588ZM876.925 185.951 880.853 188.247 881.538 188.703 880.798 189.812 880.13 189.367 880.164 189.388 876.252 187.102ZM884.866 190.922 885.202 191.146 889.107 194.169 889.157 194.211 888.298 195.231 888.258 195.197 888.279 195.215 884.404 192.215 884.443 192.242 884.126 192.031ZM892.217 196.788 892.701 197.196 895.802 200.296 896.077 200.617 895.066 201.486 894.807 201.185 894.841 201.221 891.779 198.159 891.821 198.197 891.358 197.808ZM898.704 203.719 900.755 206.647 901.635 208.252 900.467 208.894 899.603 207.321 899.641 207.382 897.612 204.483ZM903.219 212.048 903.525 213.025 902.253 213.423 901.947 212.446ZM906.532 211.102 904.25 219.75 898.701 212.735Z" fill="#B4C7E7"/><path d="M454.507 148.833 459.84 148.891 459.826 150.224 454.493 150.167ZM463.84 148.933 469.173 148.991 469.159 150.324 463.826 150.267ZM473.173 149.033 478.506 149.091 478.492 150.424 473.159 150.367ZM482.506 149.133 487.839 149.191 487.824 150.524 482.491 150.467ZM491.853 149.289 497.183 149.471 497.137 150.804 491.807 150.621ZM501.181 149.608 506.511 149.79 506.465 151.123 501.135 150.94ZM510.509 149.927 515.839 150.11 515.793 151.442 510.463 151.26ZM519.836 150.247 524.217 150.396 525.18 150.449 525.106 151.781 524.151 151.728 524.165 151.729 519.791 151.579ZM529.174 150.669 534.499 150.961 534.426 152.293 529.1 152ZM538.493 151.181 543.818 151.473 543.745 152.805 538.42 152.512ZM547.812 151.693 553.137 151.986 553.064 153.317 547.739 153.024ZM557.131 152.205 558.356 152.272 562.465 152.588 562.363 153.918 558.261 153.602 558.276 153.603 557.058 153.536ZM566.453 152.895 571.771 153.304 571.669 154.634 566.351 154.225ZM575.759 153.611 581.077 154.02 580.975 155.349 575.657 154.94ZM585.065 154.327 590.383 154.736 590.281 156.065 584.963 155.656ZM594.38 155.102 599.688 155.627 599.557 156.954 594.249 156.429ZM603.668 156.02 608.976 156.545 608.845 157.872 603.537 157.347ZM612.956 156.938 618.264 157.463 618.133 158.79 612.825 158.265ZM622.245 157.856 623.946 158.025 627.557 158.443 627.403 159.768 623.798 159.35 623.809 159.351 622.113 159.183ZM631.53 158.904 636.828 159.519 636.674 160.843 631.376 160.229ZM640.807 159.994 646.098 160.666 645.93 161.989 640.639 161.317ZM650.066 161.17 654.838 161.777 655.364 161.85 655.18 163.17 654.658 163.098 654.666 163.099 649.898 162.493ZM659.325 162.402 664.608 163.137 664.424 164.458 659.141 163.722ZM668.57 163.689 669.658 163.84 673.852 164.476 673.653 165.794 669.463 165.159 669.471 165.16 668.386 165.009ZM677.807 165.075 683.081 165.874 682.881 167.192 677.608 166.393ZM687.038 166.518 692.299 167.395 692.08 168.71 686.819 167.833ZM696.245 168.052 697.989 168.343 701.506 168.981 701.268 170.293 697.756 169.656 697.765 169.658 696.025 169.368ZM705.442 169.695 710.689 170.647 710.451 171.959 705.204 171.007ZM714.626 171.405 719.861 172.426 719.605 173.735 714.371 172.713ZM723.786 173.192 724.259 173.284 729.015 174.304 728.736 175.607 723.985 174.589 723.997 174.592 723.531 174.501ZM732.926 175.142 736.52 175.912 738.146 176.286 737.847 177.585 736.226 177.212 736.235 177.214 732.647 176.445ZM742.044 177.182 747.242 178.377 746.943 179.677 741.745 178.481ZM751.139 179.332 756.313 180.625 755.99 181.919 750.816 180.625ZM760.204 181.626 765.341 183.058 764.983 184.343 759.846 182.911ZM769.195 184.133 769.562 184.235 774.314 185.685 773.924 186.961 769.18 185.513 769.196 185.517 768.836 185.417ZM778.14 186.853 779.205 187.178 783.219 188.545 782.79 189.807 778.785 188.444 778.805 188.45 777.75 188.128ZM787.006 189.834 788.038 190.185 792.026 191.7 791.553 192.946 787.576 191.436 787.598 191.444 786.576 191.096ZM795.766 193.12 796.125 193.257 800.697 195.227 800.169 196.452 795.611 194.487 795.638 194.498 795.292 194.367ZM804.377 196.867 809.175 199.196 808.593 200.395 803.795 198.066ZM812.705 201.176 815.424 202.751 817.259 204.059 816.486 205.145 814.676 203.856 814.728 203.889 812.036 202.329ZM820.532 206.48 823.759 209.374 824.404 210.351 823.292 211.085 822.694 210.18 822.805 210.309 819.642 207.473ZM828.877 210.724 828 219.625 821.405 213.583Z" fill="#B4C7E7"/><path d="M0.00953987-0.666598 5.34233-0.590279 5.32325 0.742917-0.00953987 0.666598ZM9.34192-0.53304 14.6747-0.456721 14.6556 0.876476 9.32284 0.800157ZM18.6743-0.399482 24.0071-0.323163 23.988 1.01003 18.6552 0.933715ZM28.0067-0.265924 33.3395-0.189605 33.3204 1.14359 27.9876 1.06727ZM37.3543-0.0713898 42.6834 0.139856 42.6306 1.47214 37.3015 1.2609ZM46.6803 0.29829 52.0094 0.509535 51.9566 1.84182 46.6275 1.63058ZM56.0063 0.667969 61.3354 0.879215 61.2826 2.2115 55.9535 2.00026ZM65.3323 1.03765 69.6595 1.20918 70.6764 1.27436 70.5911 2.60497 69.5823 2.5403 69.5986 2.54114 65.2795 2.36994ZM74.6682 1.53025 79.9906 1.87143 79.9053 3.20203 74.5829 2.86085ZM83.9824 2.12731 89.3048 2.46849 89.2196 3.7991 83.8971 3.45792ZM93.2967 2.72438 98.6191 3.06556 98.5338 4.39616 93.2114 4.05498ZM102.611 3.32144 103.801 3.39775 107.942 3.76997 107.823 5.09795 103.69 4.72649 103.707 4.7278 102.526 4.65205ZM111.926 4.12808 117.238 4.60555 117.119 5.93353 111.807 5.45605ZM121.222 4.96366 126.534 5.44113 126.414 6.76911 121.103 6.29164ZM130.518 5.79924 135.83 6.27672 135.71 7.6047 130.398 7.12722ZM139.824 6.70577 145.122 7.32296 144.967 8.64733 139.67 8.03014ZM149.095 7.78584 154.392 8.40303 154.238 9.7274 148.94 9.11022ZM158.365 8.86592 163.663 9.4831 163.508 10.8075 158.211 10.1903ZM167.636 9.94599 169.396 10.1511 172.938 10.6327 172.758 11.9539 169.223 11.4731 169.235 11.4747 167.482 11.2704ZM176.901 11.1717 182.186 11.8905 182.006 13.2116 176.721 12.4929ZM186.155 12.4432 191.431 13.2217 191.236 14.5407 185.96 13.7623ZM195.388 13.8055 200.29 14.5288 200.674 14.592 200.458 15.9076 200.079 15.8453 200.09 15.847 195.194 15.1246ZM204.621 15.2415 209.884 16.1075 209.667 17.4231 204.405 16.5571ZM213.831 16.757 215.113 16.9679 219.093 17.6775 218.859 18.9901 214.883 18.2813 214.892 18.2828 213.614 18.0726ZM223.031 18.3794 228.282 19.3154 228.048 20.628 222.797 19.6921ZM232.222 20.0574 237.458 21.0672 237.206 22.3765 231.969 21.3667ZM241.386 21.8246 243.446 22.2217 246.623 22.9047 246.343 24.2083 243.172 23.5268 243.186 23.5296 241.134 23.1338ZM250.534 23.7453 255.748 24.8662 255.468 26.1697 250.254 25.0489ZM259.659 25.7442 264.859 26.9305 264.562 28.2304 259.362 27.0441ZM268.758 27.8203 269.717 28.0391 273.951 29.0973 273.627 30.3909 269.401 29.3343 269.414 29.3375 268.462 29.1202ZM277.831 30.0675 281.981 31.1051 283.014 31.3881 282.661 32.674 281.636 32.3929 281.651 32.3968 277.508 31.361ZM286.871 32.4459 292.015 33.8562 291.662 35.142 286.519 33.7317ZM295.872 34.9618 300.987 36.473 300.609 37.7516 295.495 36.2405ZM304.84 37.6178 309.909 39.2767 309.494 40.5438 304.425 38.885ZM313.71 40.5208 314.966 40.9317 318.761 42.2872 318.313 43.5428 314.526 42.1903 314.543 42.1961 313.296 41.788ZM322.528 43.6325 324.609 44.3758 327.535 45.5297 327.046 46.77 324.13 45.6202 324.151 45.6278 322.08 44.8882ZM331.256 46.9971 333.509 47.8856 336.193 49.0924 335.646 50.3084 332.977 49.108 333.005 49.1202 330.767 48.2375ZM339.841 50.7327 341.599 51.5231 344.667 53.0702 344.067 54.2607 341.012 52.7202 341.039 52.733 339.295 51.9487ZM348.238 54.8714 348.816 55.1627 352.913 57.5097 352.251 58.6667 348.169 56.3285 348.2 56.3452 347.638 56.0619ZM356.375 59.6108 360.782 62.6152 360.03 63.7169 355.624 60.7124ZM363.922 65.1881 365.455 66.4485 367.819 68.9344 366.852 69.8532 364.517 67.3969 364.577 67.4525 363.075 66.2182ZM370.267 72.26 372.17 75.5552 371.015 76.222 369.112 72.9268ZM375.09 73.5342 373.375 82.3125 367.381 75.6735Z" fill="#B4C7E7" transform="matrix(1 0 0 -1 454.5 518.811)"/><path d="M0.0195994-0.666378 5.35063-0.509584 5.31143 0.823173-0.0195994 0.666378ZM9.3489-0.391987 14.6799-0.235192 14.6407 1.09756 9.3097 0.94077ZM18.7099-0.023422 24.024 0.42926 23.9108 1.75778 18.5967 1.3051ZM28.0096 0.768771 33.3237 1.22145 33.2105 2.54997 27.8964 2.09729ZM37.3251 1.75693 42.6048 2.51118 42.4162 3.83111 37.1365 3.07687ZM46.5646 3.07687 50.6102 3.6548 51.8659 3.8963 51.6141 5.20564 50.3741 4.96717 50.4057 4.97247 46.376 4.3968ZM55.7939 4.65168 61.0313 5.65887 60.7795 6.96821 55.5421 5.96103ZM64.9593 6.41426 66.8942 6.78635 70.1922 7.61414 69.8676 8.90736 66.5877 8.08411 66.6241 8.09217 64.7075 7.7236ZM74.0719 8.58792 79.2448 9.88629 78.9202 11.1795 73.7473 9.88114ZM83.1508 10.8973 88.2474 12.4687 87.8545 13.7429 82.7579 12.1714ZM92.0698 13.6473 97.1664 15.2188 96.7735 16.4929 91.6769 14.9215ZM100.961 16.5931 105.963 18.4441 105.501 19.6945 100.499 17.8436ZM109.715 19.8322 111.875 20.6318 114.684 21.8714 114.146 23.0912 111.356 21.8599 111.394 21.8752 109.252 21.0827ZM118.344 23.4864 123.223 25.6397 122.685 26.8595 117.805 24.7062ZM126.871 27.3755 131.606 29.8284 130.993 31.0123 126.257 28.5594ZM135.158 31.6681 137.454 32.8569 139.836 34.324 139.137 35.4593 136.775 34.0052 136.818 34.0295 134.545 32.852ZM143.242 36.4215 147.783 39.2181 147.084 40.3534 142.543 37.5568ZM151.092 41.5583 155.388 44.7183 154.598 45.7924 150.302 42.6324ZM158.633 47.1546 162.576 50.6335 162.648 50.7029 161.729 51.6683 161.665 51.6077 161.684 51.6249 157.751 48.1544ZM165.545 53.4615 166.536 54.4056 169.269 57.3306 168.295 58.2409 165.575 55.3302 165.603 55.3578 164.625 54.427ZM171.849 60.4614 173.226 62.2321 174.992 64.8186 173.891 65.5703 172.137 63.0008 172.161 63.0343 170.797 61.28ZM177.117 68.2666 178.222 70.2018 179.48 73.1219 178.256 73.6494 177.013 70.7637 177.046 70.8308 175.959 68.9281ZM180.822 76.9585 181.278 78.4165 181.494 79.9845 180.173 80.1669 179.965 78.6537 179.989 78.7614 179.55 77.3562ZM184.63 78.2412 181.687 86.6875 176.696 79.2655Z" fill="#B4C7E7" transform="matrix(1 0 0 -1 722.5 523.137)"/><rect x="1016.5" y="327.5" width="76.9999" height="109" stroke="#2F528F" stroke-width="1.33333" stroke-miterlimit="8" fill="#4472C4"/><text fill="#FFFFFF" font-family="Calibri,Calibri_MSFontService,sans-serif" font-weight="400" font-size="24" transform="translate(1030.31 375)">View <tspan x="18.02" y="29">1</tspan></text><rect x="1093.5" y="327.5" width="76" height="109" stroke="#2F528F" stroke-width="1.33333" stroke-miterlimit="8" fill="#ED7D31"/><text fill="#FFFFFF" font-family="Calibri,Calibri_MSFontService,sans-serif" font-weight="400" font-size="24" transform="translate(1106.99 375)">View <tspan x="18.02" y="29">2</tspan></text><rect x="1093.5" y="219.5" width="76" height="108" stroke="#2F528F" stroke-width="1.33333" stroke-miterlimit="8" fill="#FFFF00"/><text fill="#0C0F14" font-family="Calibri,Calibri_MSFontService,sans-serif" font-weight="400" font-size="24" transform="translate(1106.99 266)">View <tspan x="18.02" y="29">3</tspan></text><rect x="1016.5" y="219.5" width="76.9999" height="108" stroke="#2F528F" stroke-width="1.33333" stroke-miterlimit="8" fill="#92D050"/><text fill="#0C0F14" font-family="Calibri,Calibri_MSFontService,sans-serif" font-weight="400" font-size="24" transform="translate(1030.31 266)">View <tspan x="18.02" y="29">4</tspan></text><path d="M310.5 315.25 328 315.25 328 302.5 345.5 328 328 353.5 328 340.75 310.5 340.75Z" stroke="#2F528F" stroke-width="1.33333" stroke-miterlimit="8" fill="#FFFFFF" fill-rule="evenodd"/><path d="M739.5 315.25 756.5 315.25 756.5 302.5 773.5 328 756.5 353.5 756.5 340.75 739.5 340.75Z" stroke="#2F528F" stroke-width="1.33333" stroke-miterlimit="8" fill="#FFFFFF" fill-rule="evenodd"/><path d="M968.5 315.25 985.5 315.25 985.5 302.5 1002.5 328 985.5 353.5 985.5 340.75 968.5 340.75Z" stroke="#2F528F" stroke-width="1.33333" stroke-miterlimit="8" fill="#FFFFFF" fill-rule="evenodd"/><rect x="1016.5" y="219.5" width="153" height="217" stroke="#FFFFFF" stroke-width="1.33333" stroke-miterlimit="8" stroke-dasharray="5.33333 4" fill="none"/><path d="M1093.5 219.5 1093.5 436.085" stroke="#FFFFFF" stroke-width="1.33333" stroke-miterlimit="8" stroke-dasharray="5.33333 4" fill="none" fill-rule="evenodd"/><path d="M1016.5 327.5 1169.87 327.5" stroke="#FFFFFF" stroke-width="1.33333" stroke-miterlimit="8" stroke-dasharray="5.33333 4" fill="none" fill-rule="evenodd"/><text fill="#BDBFC2" font-family="Calibri,Calibri_MSFontService,sans-serif" font-weight="400" font-size="21" transform="translate(419.137 617)">Render the sub-streams in the <tspan x="-38.3933" y="26">composite stream separately according </tspan><tspan x="68.9333" y="51">to </tspan><tspan x="92.06" y="51">subviewUid</tspan><tspan x="403.311" y="-7">Customize the layout of the composite </tspan><tspan x="420.998" y="19">sub</tspan><tspan x="451.664" y="19">-</tspan>stream, including position and <tspan x="517.185" y="44">window size</tspan></text></g></svg>