<?xml version="1.0" encoding="us-ascii" standalone="no"?><svg xmlns="http://www.w3.org/2000/svg" xmlns:xlink="http://www.w3.org/1999/xlink" contentStyleType="text/css" height="479px" preserveAspectRatio="none" style="width:738px;height:479px;" version="1.1" viewBox="0 0 738 479" width="738px" zoomAndPan="magnify"><defs/><g><rect fill="none" height="477.9671" style="stroke:#0A9EFD;stroke-width:1.0;" width="736" x="0" y="0"/><rect fill="#999999" fill-opacity="0.33333" height="467.9671" style="stroke:#0A9EFD;stroke-width:0.5;" width="66" x="8.3333" y="6"/><text fill="#0A9EFD" font-family="sans-serif" font-size="13" font-weight="bold" lengthAdjust="spacing" textLength="60" x="11.3333" y="19.4951">App: Host</text><rect fill="#999999" fill-opacity="0.33333" height="467.9671" style="stroke:#0A9EFD;stroke-width:0.5;" width="75" x="119.6667" y="6"/><text fill="#0A9EFD" font-family="sans-serif" font-size="13" font-weight="bold" lengthAdjust="spacing" textLength="69" x="122.6667" y="19.4951">Agora SDK</text><rect fill="#999999" fill-opacity="0.33333" height="467.9671" style="stroke:#0A9EFD;stroke-width:0.5;" width="74" x="368.3333" y="6"/><text fill="#0A9EFD" font-family="sans-serif" font-size="13" font-weight="bold" lengthAdjust="spacing" textLength="38" x="386.3333" y="19.4951">Agora</text><rect fill="#999999" fill-opacity="0.33333" height="467.9671" style="stroke:#0A9EFD;stroke-width:0.5;" width="99" x="633" y="6"/><text fill="#0A9EFD" font-family="sans-serif" font-size="13" font-weight="bold" lengthAdjust="spacing" textLength="93" x="636" y="19.4951">App: Audience</text><rect fill="#0A9EFD" fill-opacity="0.06667" height="74.8462" style="stroke:#0A9EFD;stroke-width:2.0;" width="438.3333" x="10" y="85.0182"/><rect fill="#0A9EFD" fill-opacity="0.06667" height="60.8462" style="stroke:#0A9EFD;stroke-width:2.0;" width="438.3333" x="10" y="173.8644"/><rect fill="#0A9EFD" fill-opacity="0.06667" height="163.5898" style="stroke:#0A9EFD;stroke-width:2.0;" width="351.5" x="362.3333" y="248.7106"/><line style="stroke:#0A9EFD;stroke-width:0.5;stroke-dasharray:5.0,5.0;" x1="41" x2="41" y1="68.0182" y2="429.3005"/><line style="stroke:#0A9EFD;stroke-width:0.5;stroke-dasharray:5.0,5.0;" x1="156.8333" x2="156.8333" y1="68.0182" y2="429.3005"/><line style="stroke:#0A9EFD;stroke-width:0.5;stroke-dasharray:5.0,5.0;" x1="405.3333" x2="405.3333" y1="68.0182" y2="429.3005"/><line style="stroke:#0A9EFD;stroke-width:0.5;stroke-dasharray:5.0,5.0;" x1="682.1667" x2="682.1667" y1="68.0182" y2="429.3005"/><rect fill="none" height="40.6667" rx="2.5" ry="2.5" style="stroke:#0A9EFD;stroke-width:2.0;" width="42.6667" x="20" y="26.3516"/><path d="M29.1333,33.3516 C28.5333,33.3516 28,33.8849 28,34.4849 L28,58.8516 C28,59.4516 28.5333,59.9849 29.1333,59.9849 L50.1667,59.9849 C50.7667,59.9849 51.3,59.4516 51.3,58.8516 L51.3,34.4849 C51.3,33.8849 50.7667,33.3516 50.1667,33.3516 L29.1333,33.3516 M31.3333,36.6849 L48,36.6849 L48,53.3516 L31.3333,53.3516 L31.3333,36.6849 M39.6667,55.0182 C40.9333,55.0182 41.7667,56.4182 41.1333,57.5182 C40.5,58.6182 38.8667,58.6182 38.2,57.5182 C37.5667,56.4182 38.3667,55.0182 39.6667,55.0182 " fill="#0A9EFD" style="stroke:;stroke-width:0.0;stroke-dasharray:;"/><rect fill="none" height="40.6667" rx="2.5" ry="2.5" style="stroke:#0A9EFD;stroke-width:2.0;" width="42.6667" x="20" y="428.3005"/><path d="M29.1333,435.3005 C28.5333,435.3005 28,435.8338 28,436.4338 L28,460.8005 C28,461.4005 28.5333,461.9338 29.1333,461.9338 L50.1667,461.9338 C50.7667,461.9338 51.3,461.4005 51.3,460.8005 L51.3,436.4338 C51.3,435.8338 50.7667,435.3005 50.1667,435.3005 L29.1333,435.3005 M31.3333,438.6338 L48,438.6338 L48,455.3005 L31.3333,455.3005 L31.3333,438.6338 M39.6667,456.9671 C40.9333,456.9671 41.7667,458.3671 41.1333,459.4671 C40.5,460.5671 38.8667,460.5671 38.2,459.4671 C37.5667,458.3671 38.3667,456.9671 39.6667,456.9671 " fill="#0A9EFD" style="stroke:;stroke-width:0.0;stroke-dasharray:;"/><rect fill="none" height="40.6667" rx="2.5" ry="2.5" style="stroke:#0A9EFD;stroke-width:2.0;" width="42.6667" x="135.8333" y="26.3516"/><path d="M143.8333,33.3516 L143.8333,46.6849 L157.1667,46.6849 L157.1667,33.3516 L143.8333,33.3516 M160.5,40.0182 L160.5,50.0182 L150.5,50.0182 L150.5,53.3516 L163.8333,53.3516 L163.8333,40.0182 L160.5,40.0182 M167.1667,46.6849 L167.1667,56.6849 L157.1667,56.6849 L157.1667,60.0182 L170.5,60.0182 L170.5,46.6849 L167.1667,46.6849 " fill="#0A9EFD" style="stroke:;stroke-width:0.0;stroke-dasharray:;"/><rect fill="none" height="40.6667" rx="2.5" ry="2.5" style="stroke:#0A9EFD;stroke-width:2.0;" width="42.6667" x="135.8333" y="428.3005"/><path d="M143.8333,435.3005 L143.8333,448.6338 L157.1667,448.6338 L157.1667,435.3005 L143.8333,435.3005 M160.5,441.9671 L160.5,451.9671 L150.5,451.9671 L150.5,455.3005 L163.8333,455.3005 L163.8333,441.9671 L160.5,441.9671 M167.1667,448.6338 L167.1667,458.6338 L157.1667,458.6338 L157.1667,461.9671 L170.5,461.9671 L170.5,448.6338 L167.1667,448.6338 " fill="#0A9EFD" style="stroke:;stroke-width:0.0;stroke-dasharray:;"/><rect fill="none" height="30.0986" rx="2.5" ry="2.5" style="stroke:#0A9EFD;stroke-width:2.0;" width="66" x="372.3333" y="36.9196"/><text fill="#0A9EFD" font-family="Arial" font-size="14" lengthAdjust="spacing" textLength="52" x="379.3333" y="57.0514">SD-RTN</text><rect fill="none" height="30.0986" rx="2.5" ry="2.5" style="stroke:#0A9EFD;stroke-width:2.0;" width="66" x="372.3333" y="428.3005"/><text fill="#0A9EFD" font-family="Arial" font-size="14" lengthAdjust="spacing" textLength="52" x="379.3333" y="448.4323">SD-RTN</text><rect fill="none" height="40.6667" rx="2.5" ry="2.5" style="stroke:#0A9EFD;stroke-width:2.0;" width="42.6667" x="661.1667" y="26.3516"/><path d="M670.3,33.3516 C669.7,33.3516 669.1667,33.8849 669.1667,34.4849 L669.1667,58.8516 C669.1667,59.4516 669.7,59.9849 670.3,59.9849 L691.3333,59.9849 C691.9333,59.9849 692.4667,59.4516 692.4667,58.8516 L692.4667,34.4849 C692.4667,33.8849 691.9333,33.3516 691.3333,33.3516 L670.3,33.3516 M672.5,36.6849 L689.1667,36.6849 L689.1667,53.3516 L672.5,53.3516 L672.5,36.6849 M680.8333,55.0182 C682.1,55.0182 682.9333,56.4182 682.3,57.5182 C681.6667,58.6182 680.0333,58.6182 679.3667,57.5182 C678.7333,56.4182 679.5333,55.0182 680.8333,55.0182 " fill="#0A9EFD" style="stroke:;stroke-width:0.0;stroke-dasharray:;"/><rect fill="none" height="40.6667" rx="2.5" ry="2.5" style="stroke:#0A9EFD;stroke-width:2.0;" width="42.6667" x="661.1667" y="428.3005"/><path d="M670.3,435.3005 C669.7,435.3005 669.1667,435.8338 669.1667,436.4338 L669.1667,460.8005 C669.1667,461.4005 669.7,461.9338 670.3,461.9338 L691.3333,461.9338 C691.9333,461.9338 692.4667,461.4005 692.4667,460.8005 L692.4667,436.4338 C692.4667,435.8338 691.9333,435.3005 691.3333,435.3005 L670.3,435.3005 M672.5,438.6338 L689.1667,438.6338 L689.1667,455.3005 L672.5,455.3005 L672.5,438.6338 M680.8333,456.9671 C682.1,456.9671 682.9333,458.3671 682.3,459.4671 C681.6667,460.5671 680.0333,460.5671 679.3667,459.4671 C678.7333,458.3671 679.5333,456.9671 680.8333,456.9671 " fill="#0A9EFD" style="stroke:;stroke-width:0.0;stroke-dasharray:;"/><path d="M10,85.0182 L263,85.0182 L263,91.967 L253,101.967 L10,101.967 L10,85.0182 " fill="#EEEEEE" style="stroke:#0A9EFD;stroke-width:1.5;"/><rect fill="none" height="74.8462" style="stroke:#0A9EFD;stroke-width:2.0;" width="438.3333" x="10" y="85.0182"/><text fill="#000000" font-family="Arial" font-size="13" lengthAdjust="spacing" textLength="208" x="25" y="98.2121">The host publishes the video stream</text><polygon fill="#0A9EFD" points="145.1667,118.9157,155.1667,122.9157,145.1667,126.9157,149.1667,122.9157" style="stroke:#0A9EFD;stroke-width:1.0;"/><line style="stroke:#0A9EFD;stroke-width:2.0;" x1="41.3333" x2="151.1667" y1="122.9157" y2="122.9157"/><text fill="#0A9EFD" font-family="Arial" font-size="13" lengthAdjust="spacing" textLength="72" x="63.25" y="118.1608">Join channel</text><polygon fill="#0A9EFD" points="393.3333,147.8644,403.3333,151.8644,393.3333,155.8644,397.3333,151.8644" style="stroke:#0A9EFD;stroke-width:1.0;"/><line style="stroke:#0A9EFD;stroke-width:2.0;" x1="157.1667" x2="399.3333" y1="151.8644" y2="151.8644"/><text fill="#0A9EFD" font-family="Arial" font-size="13" lengthAdjust="spacing" textLength="212" x="175.25" y="147.1095">Publish video streams in the channel</text><path d="M10,173.8644 L201,173.8644 L201,180.8132 L191,190.8132 L10,190.8132 L10,173.8644 " fill="#EEEEEE" style="stroke:#0A9EFD;stroke-width:1.5;"/><rect fill="none" height="60.8462" style="stroke:#0A9EFD;stroke-width:2.0;" width="438.3333" x="10" y="173.8644"/><text fill="#000000" font-family="Arial" font-size="13" lengthAdjust="spacing" textLength="146" x="25" y="187.0583">Enable cloud transcoding</text><polygon fill="#0A9EFD" points="393.3333,222.7106,403.3333,226.7106,393.3333,230.7106,397.3333,226.7106" style="stroke:#0A9EFD;stroke-width:1.0;"/><line style="stroke:#0A9EFD;stroke-width:2.0;" x1="41.3333" x2="399.3333" y1="226.7106" y2="226.7106"/><text fill="#0A9EFD" font-family="Arial" font-size="13" lengthAdjust="spacing" textLength="213" x="114.8333" y="207.007">Open the cloud-based image through</text><text fill="#0A9EFD" font-family="Arial" font-size="13" lengthAdjust="spacing" textLength="279" x="83.8333" y="221.9557">the RESTful API and forward it to other channels</text><path d="M362.3333,248.7106 L590.3333,248.7106 L590.3333,270.6081 L580.3333,280.6081 L362.3333,280.6081 L362.3333,248.7106 " fill="#EEEEEE" style="stroke:#0A9EFD;stroke-width:1.5;"/><rect fill="none" height="163.5898" style="stroke:#0A9EFD;stroke-width:2.0;" width="351.5" x="362.3333" y="248.7106"/><text fill="#000000" font-family="Arial" font-size="13" lengthAdjust="spacing" textLength="183" x="377.3333" y="261.9045">Customize the combined image</text><text fill="#000000" font-family="Arial" font-size="13" lengthAdjust="spacing" textLength="154" x="393.8333" y="276.8532">layout on the receiving end</text><polygon fill="#0A9EFD" points="416.3333,312.5055,406.3333,316.5055,416.3333,320.5055,412.3333,316.5055" style="stroke:#0A9EFD;stroke-width:1.0;"/><line style="stroke:#0A9EFD;stroke-width:2.0;" x1="410.3333" x2="681.5" y1="316.5055" y2="316.5055"/><text fill="#0A9EFD" font-family="Arial" font-size="13" lengthAdjust="spacing" textLength="132" x="477.9167" y="296.8019">Join the channel where</text><text fill="#0A9EFD" font-family="Arial" font-size="13" lengthAdjust="spacing" textLength="221" x="435.4167" y="311.7507">the combined image stream is located</text><polygon fill="#0A9EFD" points="670.5,356.403,680.5,360.403,670.5,364.403,674.5,360.403" style="stroke:#0A9EFD;stroke-width:1.0;"/><line style="stroke:#0A9EFD;stroke-width:2.0;stroke-dasharray:2.0,2.0;" x1="405.3333" x2="676.5" y1="360.403" y2="360.403"/><text fill="#0A9EFD" font-family="Arial" font-size="13" lengthAdjust="spacing" textLength="151" x="468.4167" y="340.6994">Send the combined image</text><text fill="#0A9EFD" font-family="Arial" font-size="13" lengthAdjust="spacing" textLength="225" x="433.4167" y="355.6481">stream callback with layout information</text><polygon fill="#0A9EFD" points="416.3333,400.3005,406.3333,404.3005,416.3333,408.3005,412.3333,404.3005" style="stroke:#0A9EFD;stroke-width:1.0;"/><line style="stroke:#0A9EFD;stroke-width:2.0;" x1="410.3333" x2="681.5" y1="404.3005" y2="404.3005"/><text fill="#0A9EFD" font-family="Arial" font-size="13" lengthAdjust="spacing" textLength="154" x="466.9167" y="384.5968">Customize the local layout</text><text fill="#0A9EFD" font-family="Arial" font-size="13" lengthAdjust="spacing" textLength="131" x="480.4167" y="399.5456">of the combined image</text><!--SRC=[ZP5DJ-D038Rl-HMcXxqLSU0KLPMgBH8V4bIat91MpiHDB2RZQ3xemgzVJzkm5BhINYT-d_UnSyREsDGGO2iUVuKNTkUSUbiKjVo6oM8OIhYM42V5W3wouG5TXCaiy3kLbnVpsO-8jQKudm06k7werWMv1ZGy4Z8NgkNTlmaMtyY7FK47Jm6-XAlbz75zlmiiLZTV0zbvaHecP-Z_l1TFox-GraiQODqHTBeu3Acs73eA4FNfbHiI2D4JzaLU5wRpB5t2hR03qw5pP0jzoHzKheJL7d0K3Q33cJS6j7rildBP38oLr43qw8AHXbtxKRUZFWnq8EIvQOs16k0UMz9NvRGTFBly_V6gMc-IpIb0tN4ZVejUPoD40T4HFrg4pne_KuZIwxdsBTBNxCQAPmVwqoH5aBs49qFygfAG2NhE3y_TMJvj2bijp83lrCDjW0DOCHX9IIezpQYdPGbL_aKdPGv1WzRMQ5vWox4R3TdfnZr65dSaThnVBhI7Y09bSw9eTvq_]--></g></svg>