<svg width="1084" height="354" xmlns="http://www.w3.org/2000/svg" xmlns:xlink="http://www.w3.org/1999/xlink" overflow="hidden"><defs><clipPath id="clip0"><path d="M113 86 1197 86 1197 440 113 440Z" fill-rule="evenodd" clip-rule="evenodd"/></clipPath><clipPath id="clip1"><path d="M538 93 752 93 752 308 538 308Z" fill-rule="evenodd" clip-rule="evenodd"/></clipPath><clipPath id="clip2"><path d="M538 93 752 93 752 308 538 308Z" fill-rule="evenodd" clip-rule="evenodd"/></clipPath><clipPath id="clip3"><path d="M538 93 752 93 752 308 538 308Z" fill-rule="evenodd" clip-rule="evenodd"/></clipPath></defs><g clip-path="url(#clip0)" transform="translate(-113 -86)"><rect x="114" y="87" width="1083" height="352" fill="#0C0F14"/><path d="M298 165 568.862 165 568.862 167 298 167ZM567.529 159.333 575.529 166 567.529 172.667Z" fill="#B2F0FF"/><text fill="#BDBFC2" font-family="Calibri,Calibri_MSFontService,sans-serif" font-weight="400" font-size="21" transform="translate(318.289 155)">Publish video stream A</text><g clip-path="url(#clip1)"><g clip-path="url(#clip2)"><g clip-path="url(#clip3)"><path d="M204.156 131.61C204.156 147.018 191.744 160.5 176.336 160.5L37.664 160.5C22.256 160.5 9.844 146.804 9.844 131.61 9.844 116.202 22.256 103.362 37.664 103.362 39.376 103.362 40.874 103.148 42.586 103.576 43.442 84.744 57.78 69.764 75.114 69.764 85.172 69.764 93.946 74.472 99.938 82.176 105.288 65.698 119.84 53.928 136.96 53.928 158.574 53.928 176.122 72.974 176.122 96.514 176.122 98.654 175.908 101.008 175.694 102.934 175.908 102.934 175.908 103.576 176.122 103.576 191.53 103.148 204.156 116.202 204.156 131.61Z" stroke="#B2F0FF" stroke-width="8.56" stroke-linejoin="round" stroke-miterlimit="10" fill="none" transform="matrix(1 0 -0 1.00467 538 93)"/></g></g></g><text fill="#BDBFC2" font-family="Calibri,Calibri_MSFontService,sans-serif" font-weight="700" font-size="24" transform="translate(621.303 204)">Agora <tspan x="-16.9333" y="29">SD</tspan>-<tspan x="16.9" y="29">RTN™</tspan></text><rect x="156.5" y="139.5" width="142" height="53" stroke="#2F528F" stroke-width="1.33333" stroke-miterlimit="8" fill="#4472C4"/><text fill="#FFFFFF" font-family="Calibri,Calibri_MSFontService,sans-serif" font-weight="400" font-size="21" transform="translate(198.523 173)">Host A</text><rect x="1016.5" y="139.5" width="136" height="128" stroke="#2F528F" stroke-width="1.33333" stroke-miterlimit="8" fill="#4472C4"/><text fill="#FFFFFF" font-family="Calibri,Calibri_MSFontService,sans-serif" font-weight="400" font-size="21" transform="translate(1058.93 198)">Cloud <tspan x="-26.6133" y="26">Transcoding</tspan></text><path d="M734 165 1009.18 165 1009.18 167 734 167ZM1007.84 159.333 1015.84 166 1007.84 172.667Z" fill="#B2F0FF"/><text fill="#BDBFC2" font-family="Calibri,Calibri_MSFontService,sans-serif" font-weight="400" font-size="21" transform="translate(756.914 156)">Subscribe to video stream A</text><rect x="155.5" y="215.5" width="142" height="52" stroke="#2F528F" stroke-width="1.33333" stroke-miterlimit="8" fill="#4472C4"/><text fill="#FFFFFF" font-family="Calibri,Calibri_MSFontService,sans-serif" font-weight="400" font-size="21" transform="translate(196.824 248)">Host N</text><path d="M297.007 241 534.257 242.654 534.243 244.654 296.993 243ZM532.963 236.979 540.916 243.701 532.87 250.312Z" fill="#B2F0FF"/><text fill="#BDBFC2" font-family="Calibri,Calibri_MSFontService,sans-serif" font-weight="400" font-size="21" transform="translate(318.198 232)">Publish video stream N</text><path d="M425.5 175.5 425.5 214.386" stroke="#B2F0FF" stroke-width="0.666667" stroke-miterlimit="8" stroke-dasharray="0.666667 0.666667" fill="none" fill-rule="evenodd"/><path d="M748 210 1009.71 210 1009.71 212 748 212ZM1008.38 204.333 1016.38 211 1008.38 217.667Z" fill="#B2F0FF"/><text fill="#BDBFC2" font-family="Calibri,Calibri_MSFontService,sans-serif" font-weight="400" font-size="21" transform="translate(755.579 201)">Subscribe to video stream N</text><rect x="576.5" y="348.5" width="142" height="53" stroke="#2F528F" stroke-width="1.33333" stroke-miterlimit="8" fill="#4472C4"/><text fill="#FFFFFF" font-family="Calibri,Calibri_MSFontService,sans-serif" font-weight="400" font-size="21" transform="translate(606.212 382)">Audience</text><path d="M1.00001 6.66665 1.0001 78.4076-0.999903 78.4076-0.999992 6.66666ZM-6.66666 8.00001 0 0 6.66668 7.99999ZM6.66676 77.0742 0.000104987 85.0742-6.66657 77.0742Z" fill="#B2F0FF" transform="matrix(1 0 0 -1 647 345.074)"/><path d="M755.667 241 1013.18 241 1013.18 243 755.667 243ZM757 248.667 749 242 757 235.333Z" fill="#B2F0FF"/><text fill="#BDBFC2" font-family="Calibri,Calibri_MSFontService,sans-serif" font-weight="400" font-size="21" transform="translate(768.742 264)">Publish a composite video <tspan x="82.4733" y="26">stream</tspan></text></g></svg>