<svg xmlns="http://www.w3.org/2000/svg" xmlns:xlink="http://www.w3.org/1999/xlink" contentStyleType="text/css" data-diagram-type="SEQUENCE" height="681px" preserveAspectRatio="none" style="width:602px;height:681px;" version="1.1" viewBox="0 0 602 681" width="602px" zoomAndPan="magnify"><?plantuml 1.2026.4?><defs/><g><rect fill="none" height="679.9886" style="stroke:#0A9EFD;stroke-width:1;" width="600.599" x="0" y="0"/><rect fill="#999999" fill-opacity="0.33333" height="668.9886" style="stroke:#0A9EFD;stroke-width:0.5;" width="50.6667" x="16" y="6"/><text fill="#0A9EFD" font-family="sans-serif" font-size="13" font-weight="700" lengthAdjust="spacing" textLength="25.27" x="28.6983" y="19.4951">App</text><rect fill="#999999" fill-opacity="0.33333" height="668.9886" style="stroke:#0A9EFD;stroke-width:0.5;" width="72.4536" x="245.9687" y="6"/><text fill="#0A9EFD" font-family="sans-serif" font-size="13" font-weight="700" lengthAdjust="spacing" textLength="66.4536" x="248.9687" y="19.4951">Video SDK</text><rect fill="#999999" fill-opacity="0.33333" height="668.9886" style="stroke:#0A9EFD;stroke-width:0.5;" width="99.3154" x="496.2835" y="6"/><text fill="#0A9EFD" font-family="sans-serif" font-size="13" font-weight="700" lengthAdjust="spacing" textLength="85.9473" x="499.2835" y="21.7217">Agora SDRTN</text><text fill="#0A9EFD" font-family="sans-serif" font-size="10" font-weight="700" lengthAdjust="spacing" textLength="7.3682" x="585.2308" y="16.3809">&#174;</text><rect fill="#0A9EFD" fill-opacity="0.06667" height="132.7437" style="stroke:#0A9EFD;stroke-width:2;" width="567.2746" x="10" y="145.1423"/><rect fill="#0A9EFD" fill-opacity="0.06667" height="132.7437" style="stroke:#0A9EFD;stroke-width:2;" width="567.2746" x="10" y="291.8859"/><rect fill="#0A9EFD" fill-opacity="0.06667" height="174.6924" style="stroke:#0A9EFD;stroke-width:2;" width="567.2746" x="10" y="438.6296"/><g class="participant-lifeline" data-entity-uid="part1" data-qualified-name="APP" data-source-line="4" id="part1-lifeline"><g><title>.size.40...tablet.</title><rect fill="#000000" fill-opacity="0.00000" height="560.0771" width="8" x="37.3333" y="70.2448"/><line style="stroke:#0A9EFD;stroke-width:0.5;stroke-dasharray:5,5;" x1="41" x2="41" y1="70.2448" y2="630.3219"/></g></g><g class="participant-lifeline" data-entity-uid="part2" data-qualified-name="SDK" data-source-line="8" id="part2-lifeline"><g><title>.size.40...layers.</title><rect fill="#000000" fill-opacity="0.00000" height="560.0771" width="8" x="278.1956" y="70.2448"/><line style="stroke:#0A9EFD;stroke-width:0.5;stroke-dasharray:5,5;" x1="281.8622" x2="281.8622" y1="70.2448" y2="630.3219"/></g></g><g class="participant-lifeline" data-entity-uid="part3" data-qualified-name="RTN" data-source-line="12" id="part3-lifeline"><g><title>.size.40...cloud.</title><rect fill="#000000" fill-opacity="0.00000" height="560.0771" width="8" x="541.9412" y="70.2448"/><line style="stroke:#0A9EFD;stroke-width:0.5;stroke-dasharray:5,5;" x1="545.6079" x2="545.6079" y1="70.2448" y2="630.3219"/></g></g><g class="participant participant-head" data-entity-uid="part1" data-qualified-name="APP" data-source-line="4" id="part1-head"><rect fill="none" height="40.6667" rx="2.5" ry="2.5" style="stroke:#0A9EFD;stroke-width:2;" width="42.6667" x="20" y="28.5781"/><path d="M29.1333,35.5781 C28.5333,35.5781 28,36.1115 28,36.7115 L28,61.0781 C28,61.6781 28.5333,62.2115 29.1333,62.2115 L50.1667,62.2115 C50.7667,62.2115 51.3,61.6781 51.3,61.0781 L51.3,36.7115 C51.3,36.1115 50.7667,35.5781 50.1667,35.5781 L29.1333,35.5781 M31.3333,38.9115 L48,38.9115 L48,55.5781 L31.3333,55.5781 L31.3333,38.9115 M39.6667,57.2448 C40.9333,57.2448 41.7667,58.6448 41.1333,59.7448 C40.5,60.8448 38.8667,60.8448 38.2,59.7448 C37.5667,58.6448 38.3667,57.2448 39.6667,57.2448" fill="#0A9EFD"/></g><g class="participant participant-tail" data-entity-uid="part1" data-qualified-name="APP" data-source-line="4" id="part1-tail"><rect fill="none" height="40.6667" rx="2.5" ry="2.5" style="stroke:#0A9EFD;stroke-width:2;" width="42.6667" x="20" y="629.3219"/><path d="M29.1333,636.3219 C28.5333,636.3219 28,636.8553 28,637.4553 L28,661.8219 C28,662.4219 28.5333,662.9553 29.1333,662.9553 L50.1667,662.9553 C50.7667,662.9553 51.3,662.4219 51.3,661.8219 L51.3,637.4553 C51.3,636.8553 50.7667,636.3219 50.1667,636.3219 L29.1333,636.3219 M31.3333,639.6553 L48,639.6553 L48,656.3219 L31.3333,656.3219 L31.3333,639.6553 M39.6667,657.9886 C40.9333,657.9886 41.7667,659.3886 41.1333,660.4886 C40.5,661.5886 38.8667,661.5886 38.2,660.4886 C37.5667,659.3886 38.3667,657.9886 39.6667,657.9886" fill="#0A9EFD"/></g><g class="participant participant-head" data-entity-uid="part2" data-qualified-name="SDK" data-source-line="8" id="part2-head"><rect fill="none" height="40.6667" rx="2.5" ry="2.5" style="stroke:#0A9EFD;stroke-width:2;" width="42.6667" x="260.8622" y="28.5781"/><path d="M268.8622,35.5781 L268.8622,48.9115 L282.1956,48.9115 L282.1956,35.5781 L268.8622,35.5781 M285.5289,42.2448 L285.5289,52.2448 L275.5289,52.2448 L275.5289,55.5781 L288.8622,55.5781 L288.8622,42.2448 L285.5289,42.2448 M292.1956,48.9115 L292.1956,58.9115 L282.1956,58.9115 L282.1956,62.2448 L295.5289,62.2448 L295.5289,48.9115 L292.1956,48.9115" fill="#0A9EFD"/></g><g class="participant participant-tail" data-entity-uid="part2" data-qualified-name="SDK" data-source-line="8" id="part2-tail"><rect fill="none" height="40.6667" rx="2.5" ry="2.5" style="stroke:#0A9EFD;stroke-width:2;" width="42.6667" x="260.8622" y="629.3219"/><path d="M268.8622,636.3219 L268.8622,649.6553 L282.1956,649.6553 L282.1956,636.3219 L268.8622,636.3219 M285.5289,642.9886 L285.5289,652.9886 L275.5289,652.9886 L275.5289,656.3219 L288.8622,656.3219 L288.8622,642.9886 L285.5289,642.9886 M292.1956,649.6553 L292.1956,659.6553 L282.1956,659.6553 L282.1956,662.9886 L295.5289,662.9886 L295.5289,649.6553 L292.1956,649.6553" fill="#0A9EFD"/></g><g class="participant participant-head" data-entity-uid="part3" data-qualified-name="RTN" data-source-line="12" id="part3-head"><rect fill="none" height="40.6667" rx="2.5" ry="2.5" style="stroke:#0A9EFD;stroke-width:2;" width="42.6667" x="524.6079" y="28.5781"/><path d="M547.6079,38.9115 C543.5746,38.9115 540.0412,41.7781 539.2746,45.5781 C535.6079,45.5781 532.6079,48.5781 532.6079,52.2448 C532.6079,55.9115 535.6079,58.9115 539.2746,58.9115 L554.2746,58.9115 C557.0412,58.9115 559.2746,56.6781 559.2746,53.9115 C559.2746,51.7448 557.8746,49.6115 555.9412,48.9115 L555.9412,47.2448 C555.9412,42.6448 552.2079,38.9115 547.6079,38.9115" fill="#0A9EFD"/></g><g class="participant participant-tail" data-entity-uid="part3" data-qualified-name="RTN" data-source-line="12" id="part3-tail"><rect fill="none" height="40.6667" rx="2.5" ry="2.5" style="stroke:#0A9EFD;stroke-width:2;" width="42.6667" x="524.6079" y="629.3219"/><path d="M547.6079,639.6553 C543.5746,639.6553 540.0412,642.5219 539.2746,646.3219 C535.6079,646.3219 532.6079,649.3219 532.6079,652.9886 C532.6079,656.6553 535.6079,659.6553 539.2746,659.6553 L554.2746,659.6553 C557.0412,659.6553 559.2746,657.4219 559.2746,654.6553 C559.2746,652.4886 557.8746,650.3553 555.9412,649.6553 L555.9412,647.9886 C555.9412,643.3886 552.2079,639.6553 547.6079,639.6553" fill="#0A9EFD"/></g><g class="message" data-entity-1="part1" data-entity-2="part2" data-source-line="15" id="msg1"><polygon fill="#0A9EFD" points="270.1956,97.1935,280.1956,101.1935,270.1956,105.1935,274.1956,101.1935" style="stroke:#0A9EFD;stroke-width:1;stroke-linejoin:miter;stroke-miterlimit:10;"/><line style="stroke:#0A9EFD;stroke-width:2;" x1="41.3333" x2="276.1956" y1="101.1935" y2="101.1935"/><text fill="#0A9EFD" font-family="Arial" font-size="13" lengthAdjust="spacing" textLength="205.9688" x="58.7801" y="96.4386">Create an instance of Agora Engine</text></g><g class="message" data-entity-1="part2" data-entity-2="part3" data-source-line="16" id="msg2"><polygon fill="#0A9EFD" points="533.9412,126.1423,543.9412,130.1423,533.9412,134.1423,537.9412,130.1423" style="stroke:#0A9EFD;stroke-width:1;stroke-linejoin:miter;stroke-miterlimit:10;"/><line style="stroke:#0A9EFD;stroke-width:2;" x1="282.1956" x2="539.9412" y1="130.1423" y2="130.1423"/><text fill="#0A9EFD" font-family="Arial" font-size="13" lengthAdjust="spacing" textLength="163.3315" x="332.4026" y="125.3874">Initialize the engine instance</text></g><path d="M10,145.1423 L216.8779,145.1423 L216.8779,152.091 L206.8779,162.091 L10,162.091 L10,145.1423" fill="#EEEEEE" style="stroke:#0A9EFD;stroke-width:1.5;"/><rect fill="none" height="132.7437" style="stroke:#0A9EFD;stroke-width:2;" width="567.2746" x="10" y="145.1423"/><text fill="#000000" font-family="Arial" font-size="13" lengthAdjust="spacing" textLength="161.8779" x="25" y="158.3361">Accelerated video rendering</text><g class="message" data-entity-1="part1" data-entity-2="part2" data-source-line="19" id="msg3"><polygon fill="#0A9EFD" points="270.1956,179.0397,280.1956,183.0397,270.1956,187.0397,274.1956,183.0397" style="stroke:#0A9EFD;stroke-width:1;stroke-linejoin:miter;stroke-miterlimit:10;"/><line style="stroke:#0A9EFD;stroke-width:2;" x1="41.3333" x2="276.1956" y1="183.0397" y2="183.0397"/><text fill="#0A9EFD" font-family="Arial" font-size="13" lengthAdjust="spacing" textLength="204.5278" x="59.5005" y="178.2848">Enable accelerated video rendering</text></g><g class="message" data-entity-1="part2" data-entity-2="part3" data-source-line="20" id="msg4"><polygon fill="#0A9EFD" points="533.9412,207.9884,543.9412,211.9884,533.9412,215.9884,537.9412,211.9884" style="stroke:#0A9EFD;stroke-width:1;stroke-linejoin:miter;stroke-miterlimit:10;"/><line style="stroke:#0A9EFD;stroke-width:2;" x1="282.1956" x2="539.9412" y1="211.9884" y2="211.9884"/><text fill="#0A9EFD" font-family="Arial" font-size="13" lengthAdjust="spacing" textLength="204.5278" x="311.8045" y="207.2336">Enable accelerated video rendering</text></g><g class="message" data-entity-1="part1" data-entity-2="part2" data-source-line="21" id="msg5"><polygon fill="#0A9EFD" points="270.1956,236.9372,280.1956,240.9372,270.1956,244.9372,274.1956,240.9372" style="stroke:#0A9EFD;stroke-width:1;stroke-linejoin:miter;stroke-miterlimit:10;"/><line style="stroke:#0A9EFD;stroke-width:2;" x1="41.3333" x2="276.1956" y1="240.9372" y2="240.9372"/><text fill="#0A9EFD" font-family="Arial" font-size="13" lengthAdjust="spacing" textLength="106.9517" x="108.2886" y="236.1823">Set video scenario</text></g><g class="message" data-entity-1="part2" data-entity-2="part3" data-source-line="22" id="msg6"><polygon fill="#0A9EFD" points="533.9412,265.8859,543.9412,269.8859,533.9412,273.8859,537.9412,269.8859" style="stroke:#0A9EFD;stroke-width:1;stroke-linejoin:miter;stroke-miterlimit:10;"/><line style="stroke:#0A9EFD;stroke-width:2;" x1="282.1956" x2="539.9412" y1="269.8859" y2="269.8859"/><text fill="#0A9EFD" font-family="Arial" font-size="13" lengthAdjust="spacing" textLength="106.9517" x="360.5926" y="265.131">Set video scenario</text></g><path d="M10,291.8859 L138.8398,291.8859 L138.8398,298.8346 L128.8398,308.8346 L10,308.8346 L10,291.8859" fill="#EEEEEE" style="stroke:#0A9EFD;stroke-width:1.5;"/><rect fill="none" height="132.7437" style="stroke:#0A9EFD;stroke-width:2;" width="567.2746" x="10" y="291.8859"/><text fill="#000000" font-family="Arial" font-size="13" lengthAdjust="spacing" textLength="83.8398" x="25" y="305.0798">Join a channel</text><g class="message" data-entity-1="part1" data-entity-2="part2" data-source-line="26" id="msg7"><polygon fill="#0A9EFD" points="270.1956,325.7834,280.1956,329.7834,270.1956,333.7834,274.1956,329.7834" style="stroke:#0A9EFD;stroke-width:1;stroke-linejoin:miter;stroke-miterlimit:10;"/><line style="stroke:#0A9EFD;stroke-width:2;" x1="41.3333" x2="276.1956" y1="329.7834" y2="329.7834"/><text fill="#0A9EFD" font-family="Arial" font-size="13" lengthAdjust="spacing" textLength="83.8398" x="119.8445" y="325.0285">Join a channel</text></g><g class="message" data-entity-1="part2" data-entity-2="part3" data-source-line="27" id="msg8"><polygon fill="#0A9EFD" points="533.9412,354.7321,543.9412,358.7321,533.9412,362.7321,537.9412,358.7321" style="stroke:#0A9EFD;stroke-width:1;stroke-linejoin:miter;stroke-miterlimit:10;"/><line style="stroke:#0A9EFD;stroke-width:2;" x1="282.1956" x2="539.9412" y1="358.7321" y2="358.7321"/><text fill="#0A9EFD" font-family="Arial" font-size="13" lengthAdjust="spacing" textLength="94.6816" x="366.7276" y="353.9772">Join the channel</text></g><g class="message" data-entity-1="part3" data-entity-2="part2" data-source-line="28" id="msg9"><polygon fill="#0A9EFD" points="293.1956,383.6808,283.1956,387.6808,293.1956,391.6808,289.1956,387.6808" style="stroke:#0A9EFD;stroke-width:1;stroke-linejoin:miter;stroke-miterlimit:10;"/><line style="stroke:#0A9EFD;stroke-width:2;" x1="287.1956" x2="544.9412" y1="387.6808" y2="387.6808"/><text fill="#0A9EFD" font-family="Arial" font-size="13" lengthAdjust="spacing" textLength="120.688" x="353.7244" y="382.9259">Notify channel joined</text></g><g class="message" data-entity-1="part3" data-entity-2="part2" data-source-line="29" id="msg10"><polygon fill="#0A9EFD" points="293.1956,412.6296,283.1956,416.6296,293.1956,420.6296,289.1956,416.6296" style="stroke:#0A9EFD;stroke-width:1;stroke-linejoin:miter;stroke-miterlimit:10;"/><line style="stroke:#0A9EFD;stroke-width:2;" x1="287.1956" x2="544.9412" y1="416.6296" y2="416.6296"/><text fill="#0A9EFD" font-family="Arial" font-size="13" lengthAdjust="spacing" textLength="112.728" x="357.7044" y="411.8747">Remote user joined</text></g><path d="M10,438.6296 L286.9561,438.6296 L286.9561,445.5783 L276.9561,455.5783 L10,455.5783 L10,438.6296" fill="#EEEEEE" style="stroke:#0A9EFD;stroke-width:1.5;"/><rect fill="none" height="174.6924" style="stroke:#0A9EFD;stroke-width:2;" width="567.2746" x="10" y="438.6296"/><text fill="#000000" font-family="Arial" font-size="13" lengthAdjust="spacing" textLength="231.9561" x="25" y="451.8234">Decode and display the first video frame</text><g class="message" data-entity-1="part1" data-entity-2="part2" data-source-line="33" id="msg11"><polygon fill="#0A9EFD" points="270.1956,472.527,280.1956,476.527,270.1956,480.527,274.1956,476.527" style="stroke:#0A9EFD;stroke-width:1;stroke-linejoin:miter;stroke-miterlimit:10;"/><line style="stroke:#0A9EFD;stroke-width:2;" x1="41.3333" x2="276.1956" y1="476.527" y2="476.527"/><text fill="#0A9EFD" font-family="Arial" font-size="13" lengthAdjust="spacing" textLength="142.3525" x="90.5882" y="471.7721">Setup remote video view</text></g><g class="message" data-entity-1="part2" data-entity-2="part3" data-source-line="34" id="msg12"><polygon fill="#0A9EFD" points="533.9412,501.4757,543.9412,505.4757,533.9412,509.4757,537.9412,505.4757" style="stroke:#0A9EFD;stroke-width:1;stroke-linejoin:miter;stroke-miterlimit:10;"/><line style="stroke:#0A9EFD;stroke-width:2;" x1="282.1956" x2="539.9412" y1="505.4757" y2="505.4757"/><text fill="#0A9EFD" font-family="Arial" font-size="13" lengthAdjust="spacing" textLength="151.0234" x="338.5567" y="500.7209">Subscribe to remote video</text></g><g class="message" data-entity-1="part3" data-entity-2="part2" data-source-line="35" id="msg13"><polygon fill="#0A9EFD" points="293.1956,530.4245,283.1956,534.4245,293.1956,538.4245,289.1956,534.4245" style="stroke:#0A9EFD;stroke-width:1;stroke-linejoin:miter;stroke-miterlimit:10;"/><line style="stroke:#0A9EFD;stroke-width:2;" x1="287.1956" x2="544.9412" y1="534.4245" y2="534.4245"/><text fill="#0A9EFD" font-family="Arial" font-size="13" lengthAdjust="spacing" textLength="169.0698" x="329.5335" y="529.6696">Receive remote video stream</text></g><g class="message" data-entity-1="part2" data-entity-2="part2" data-source-line="36" id="msg14"><line style="stroke:#0A9EFD;stroke-width:2;" x1="282.1956" x2="324.1956" y1="563.3732" y2="563.3732"/><line style="stroke:#0A9EFD;stroke-width:2;" x1="324.1956" x2="324.1956" y1="563.3732" y2="576.3732"/><line style="stroke:#0A9EFD;stroke-width:2;" x1="283.1956" x2="324.1956" y1="576.3732" y2="576.3732"/><polygon fill="#0A9EFD" points="293.1956,572.3732,283.1956,576.3732,293.1956,580.3732,289.1956,576.3732" style="stroke:#0A9EFD;stroke-width:1;stroke-linejoin:miter;stroke-miterlimit:10;"/><text fill="#0A9EFD" font-family="Arial" font-size="13" lengthAdjust="spacing" textLength="162.5762" x="289.1956" y="558.6183">Decode the first video frame</text></g><g class="message" data-entity-1="part2" data-entity-2="part1" data-source-line="37" id="msg15"><polygon fill="#0A9EFD" points="52.3333,601.3219,42.3333,605.3219,52.3333,609.3219,48.3333,605.3219" style="stroke:#0A9EFD;stroke-width:1;stroke-linejoin:miter;stroke-miterlimit:10;"/><line style="stroke:#0A9EFD;stroke-width:2;" x1="46.3333" x2="281.1956" y1="605.3219" y2="605.3219"/><text fill="#0A9EFD" font-family="Arial" font-size="13" lengthAdjust="spacing" textLength="122.0972" x="100.7159" y="600.5671">Shows the first frame</text></g><?plantuml-src ZP9DJiCm48NtESMG1Jj-5gogA594km2agceHM-GuatGWiIFRQIc7uX2SZCbVIQ8MiRBaUVEzDsDVa99vbI28J1lnQjz9NLDLv9uNwm_mexBqlL8OHv9AeHpuWQLFdDtTXi6b4t6EBlH1M8XMAmzL0jpLjRvGWXesywVpW5mSqDWMmC898AeJyVtwUHdOgWo_luAR-ZpFaxckaXR7JRyu3WTNOMqnWtk3ml6u2aXP9vH4q2cqNWkLaKAFTRMS4JDuKEH8v6m1Rek0ZUBOwdcPqLK9aPIOes5m0hjcRiFcQ4Xb8_E5gbS6uW_vqFmVyY5zWwwhMubA6D8ZseaoO_eH7ZKf422tGYdCHzn9QSXiIlLY-YBV7lkMsb5ww4lmnbfCHeer5feVex9e-l8WqXobhdycFsD2jkJVqbYbP6m_IMf4WTCbSAjfmQreHxWVRwAAhJGKyvlgaNGIJYBjSCooZlzFqTCQNHVpTBHEo0dPTgltTg1h5VN0Fm00?></g></svg>