<svg xmlns="http://www.w3.org/2000/svg" xmlns:xlink="http://www.w3.org/1999/xlink" contentStyleType="text/css" data-diagram-type="SEQUENCE" height="875px" preserveAspectRatio="none" style="width:616px;height:875px;" version="1.1" viewBox="0 0 616 875" width="616px" zoomAndPan="magnify"><?plantuml 1.2026.4?><defs/><g><rect fill="none" height="873.0693" style="stroke:#0A9EFD;stroke-width:1;" width="614.4668" x="0" y="0"/><rect fill="#999999" fill-opacity="0.33333" height="862.0693" style="stroke:#0A9EFD;stroke-width:0.5;" width="72.4536" x="162.8976" y="6"/><text fill="#0A9EFD" font-family="sans-serif" font-size="13" font-weight="700" lengthAdjust="spacing" textLength="66.4536" x="165.8976" y="19.4951">Video SDK</text><rect fill="#999999" fill-opacity="0.33333" height="862.0693" style="stroke:#0A9EFD;stroke-width:0.5;" width="99.3154" x="510.1514" y="6"/><text fill="#0A9EFD" font-family="sans-serif" font-size="13" font-weight="700" lengthAdjust="spacing" textLength="85.9473" x="513.1514" y="21.7217">Agora SDRTN</text><text fill="#0A9EFD" font-family="sans-serif" font-size="10" font-weight="700" lengthAdjust="spacing" textLength="7.3682" x="599.0986" y="16.3809">&#174;</text><rect fill="#0A9EFD" fill-opacity="0.06667" height="116.7949" style="stroke:#0A9EFD;stroke-width:2;" width="581.1424" x="10" y="215.9448"/><rect fill="#0A9EFD" fill-opacity="0.06667" height="420.231" style="stroke:#0A9EFD;stroke-width:2;" width="581.1424" x="10" y="346.7397"/><g class="participant-lifeline" data-entity-uid="part1" data-qualified-name="USR" data-source-line="3" id="part1-lifeline"><g><title>User</title><rect fill="#000000" fill-opacity="0.00000" height="697.8721" width="8" x="33.7793" y="86.0986"/><line style="stroke:#0A9EFD;stroke-width:0.5;stroke-dasharray:5,5;" x1="37" x2="37" y1="86.0986" y2="783.9707"/></g></g><g class="participant-lifeline" data-entity-uid="part2" data-qualified-name="APP" data-source-line="6" id="part2-lifeline"><g><title>.size.40...layers.</title><rect fill="#000000" fill-opacity="0.00000" height="697.8721" width="8" x="195.1244" y="86.0986"/><line style="stroke:#0A9EFD;stroke-width:0.5;stroke-dasharray:5,5;" x1="198.7911" x2="198.7911" y1="86.0986" y2="783.9707"/></g></g><g class="participant-lifeline" data-entity-uid="part3" data-qualified-name="RTN" data-source-line="10" id="part3-lifeline"><g><title>.size.40...cloud.</title><rect fill="#000000" fill-opacity="0.00000" height="697.8721" width="8" x="555.8091" y="86.0986"/><line style="stroke:#0A9EFD;stroke-width:0.5;stroke-dasharray:5,5;" x1="559.4757" x2="559.4757" y1="86.0986" y2="783.9707"/></g></g><g class="participant participant-head" data-entity-uid="part1" data-qualified-name="USR" data-source-line="3" id="part1-head"><text fill="#0A9EFD" font-family="Arial" font-size="14" lengthAdjust="spacing" textLength="29.5586" x="20" y="83.1318">User</text><ellipse cx="37.7793" cy="16" fill="none" rx="8" ry="8" style="stroke:#0A9EFD;stroke-width:3;"/><path d="M37.7793,24 L37.7793,51 M24.7793,32 L50.7793,32 M37.7793,51 L24.7793,66 M37.7793,51 L50.7793,66" fill="none" style="stroke:#0A9EFD;stroke-width:3;"/></g><g class="participant participant-tail" data-entity-uid="part1" data-qualified-name="USR" data-source-line="3" id="part1-tail"><text fill="#0A9EFD" font-family="Arial" font-size="14" lengthAdjust="spacing" textLength="29.5586" x="20" y="796.1025">User</text><ellipse cx="37.7793" cy="810.0693" fill="none" rx="8" ry="8" style="stroke:#0A9EFD;stroke-width:3;"/><path d="M37.7793,818.0693 L37.7793,845.0693 M24.7793,826.0693 L50.7793,826.0693 M37.7793,845.0693 L24.7793,860.0693 M37.7793,845.0693 L50.7793,860.0693" fill="none" style="stroke:#0A9EFD;stroke-width:3;"/></g><g class="participant participant-head" data-entity-uid="part2" data-qualified-name="APP" data-source-line="6" id="part2-head"><rect fill="none" height="40.6667" rx="2.5" ry="2.5" style="stroke:#0A9EFD;stroke-width:2;" width="42.6667" x="177.7911" y="44.432"/><path d="M185.7911,51.432 L185.7911,64.7653 L199.1244,64.7653 L199.1244,51.432 L185.7911,51.432 M202.4578,58.0986 L202.4578,68.0986 L192.4578,68.0986 L192.4578,71.432 L205.7911,71.432 L205.7911,58.0986 L202.4578,58.0986 M209.1244,64.7653 L209.1244,74.7653 L199.1244,74.7653 L199.1244,78.0986 L212.4578,78.0986 L212.4578,64.7653 L209.1244,64.7653" fill="#0A9EFD"/></g><g class="participant participant-tail" data-entity-uid="part2" data-qualified-name="APP" data-source-line="6" id="part2-tail"><rect fill="none" height="40.6667" rx="2.5" ry="2.5" style="stroke:#0A9EFD;stroke-width:2;" width="42.6667" x="177.7911" y="782.9707"/><path d="M185.7911,789.9707 L185.7911,803.304 L199.1244,803.304 L199.1244,789.9707 L185.7911,789.9707 M202.4578,796.6374 L202.4578,806.6374 L192.4578,806.6374 L192.4578,809.9707 L205.7911,809.9707 L205.7911,796.6374 L202.4578,796.6374 M209.1244,803.304 L209.1244,813.304 L199.1244,813.304 L199.1244,816.6374 L212.4578,816.6374 L212.4578,803.304 L209.1244,803.304" fill="#0A9EFD"/></g><g class="participant participant-head" data-entity-uid="part3" data-qualified-name="RTN" data-source-line="10" id="part3-head"><rect fill="none" height="40.6667" rx="2.5" ry="2.5" style="stroke:#0A9EFD;stroke-width:2;" width="42.6667" x="538.4757" y="44.432"/><path d="M561.4757,54.7653 C557.4424,54.7653 553.9091,57.632 553.1424,61.432 C549.4757,61.432 546.4757,64.432 546.4757,68.0986 C546.4757,71.7653 549.4757,74.7653 553.1424,74.7653 L568.1424,74.7653 C570.9091,74.7653 573.1424,72.532 573.1424,69.7653 C573.1424,67.5986 571.7424,65.4653 569.8091,64.7653 L569.8091,63.0986 C569.8091,58.4986 566.0757,54.7653 561.4757,54.7653" fill="#0A9EFD"/></g><g class="participant participant-tail" data-entity-uid="part3" data-qualified-name="RTN" data-source-line="10" id="part3-tail"><rect fill="none" height="40.6667" rx="2.5" ry="2.5" style="stroke:#0A9EFD;stroke-width:2;" width="42.6667" x="538.4757" y="782.9707"/><path d="M561.4757,793.304 C557.4424,793.304 553.9091,796.1707 553.1424,799.9707 C549.4757,799.9707 546.4757,802.9707 546.4757,806.6374 C546.4757,810.304 549.4757,813.304 553.1424,813.304 L568.1424,813.304 C570.9091,813.304 573.1424,811.0707 573.1424,808.304 C573.1424,806.1374 571.7424,804.004 569.8091,803.304 L569.8091,801.6374 C569.8091,797.0374 566.0757,793.304 561.4757,793.304" fill="#0A9EFD"/></g><g class="message" data-entity-1="part1" data-entity-2="part2" data-source-line="13" id="msg1"><polygon fill="#0A9EFD" points="187.1244,113.0474,197.1244,117.0474,187.1244,121.0474,191.1244,117.0474" style="stroke:#0A9EFD;stroke-width:1;stroke-linejoin:miter;stroke-miterlimit:10;"/><line style="stroke:#0A9EFD;stroke-width:2;" x1="37.7793" x2="193.1244" y1="117.0474" y2="117.0474"/><text fill="#0A9EFD" font-family="Arial" font-size="13" lengthAdjust="spacing" textLength="58.5444" x="89.1796" y="112.2925">Open App</text></g><g class="message" data-entity-1="part2" data-entity-2="part2" data-source-line="14" id="msg2"><line style="stroke:#0A9EFD;stroke-width:2;" x1="199.1244" x2="241.1244" y1="145.9961" y2="145.9961"/><line style="stroke:#0A9EFD;stroke-width:2;" x1="241.1244" x2="241.1244" y1="145.9961" y2="158.9961"/><line style="stroke:#0A9EFD;stroke-width:2;" x1="200.1244" x2="241.1244" y1="158.9961" y2="158.9961"/><polygon fill="#0A9EFD" points="210.1244,154.9961,200.1244,158.9961,210.1244,162.9961,206.1244,158.9961" style="stroke:#0A9EFD;stroke-width:1;stroke-linejoin:miter;stroke-miterlimit:10;"/><text fill="#0A9EFD" font-family="Arial" font-size="13" lengthAdjust="spacing" textLength="311.4668" x="206.1244" y="141.2412">Use Video SDK to create an instance of Agora Engine</text></g><g class="message" data-entity-1="part2" data-entity-2="part2" data-source-line="15" id="msg3"><line style="stroke:#0A9EFD;stroke-width:2;" x1="199.1244" x2="241.1244" y1="187.9448" y2="187.9448"/><line style="stroke:#0A9EFD;stroke-width:2;" x1="241.1244" x2="241.1244" y1="187.9448" y2="200.9448"/><line style="stroke:#0A9EFD;stroke-width:2;" x1="200.1244" x2="241.1244" y1="200.9448" y2="200.9448"/><polygon fill="#0A9EFD" points="210.1244,196.9448,200.1244,200.9448,210.1244,204.9448,206.1244,200.9448" style="stroke:#0A9EFD;stroke-width:1;stroke-linejoin:miter;stroke-miterlimit:10;"/><text fill="#0A9EFD" font-family="Arial" font-size="13" lengthAdjust="spacing" textLength="213.9541" x="206.1244" y="183.1899">Enable audio and video in the engine</text></g><path d="M10,215.9448 L78.8481,215.9448 L78.8481,222.8936 L68.8481,232.8936 L10,232.8936 L10,215.9448" fill="#EEEEEE" style="stroke:#0A9EFD;stroke-width:1.5;"/><rect fill="none" height="116.7949" style="stroke:#0A9EFD;stroke-width:2;" width="581.1424" x="10" y="215.9448"/><text fill="#000000" font-family="Arial" font-size="13" lengthAdjust="spacing" textLength="23.8481" x="25" y="229.1387">Join</text><g class="message" data-entity-1="part1" data-entity-2="part2" data-source-line="18" id="msg4"><polygon fill="#0A9EFD" points="187.1244,249.8423,197.1244,253.8423,187.1244,257.8423,191.1244,253.8423" style="stroke:#0A9EFD;stroke-width:1;stroke-linejoin:miter;stroke-miterlimit:10;"/><line style="stroke:#0A9EFD;stroke-width:2;" x1="37.7793" x2="193.1244" y1="253.8423" y2="253.8423"/><text fill="#0A9EFD" font-family="Arial" font-size="13" lengthAdjust="spacing" textLength="83.8398" x="76.5319" y="249.0874">Join a channel</text></g><g class="message" data-entity-1="part2" data-entity-2="part2" data-source-line="19" id="msg5"><line style="stroke:#0A9EFD;stroke-width:2;" x1="199.1244" x2="241.1244" y1="282.791" y2="282.791"/><line style="stroke:#0A9EFD;stroke-width:2;" x1="241.1244" x2="241.1244" y1="282.791" y2="295.791"/><line style="stroke:#0A9EFD;stroke-width:2;" x1="200.1244" x2="241.1244" y1="295.791" y2="295.791"/><polygon fill="#0A9EFD" points="210.1244,291.791,200.1244,295.791,210.1244,299.791,206.1244,295.791" style="stroke:#0A9EFD;stroke-width:1;stroke-linejoin:miter;stroke-miterlimit:10;"/><text fill="#0A9EFD" font-family="Arial" font-size="13" lengthAdjust="spacing" textLength="266.6777" x="206.1244" y="278.0361">Retrieve authentication token to join a channel</text></g><g class="message" data-entity-1="part2" data-entity-2="part3" data-source-line="20" id="msg6"><polygon fill="#0A9EFD" points="547.8091,320.7397,557.8091,324.7397,547.8091,328.7397,551.8091,324.7397" style="stroke:#0A9EFD;stroke-width:1;stroke-linejoin:miter;stroke-miterlimit:10;"/><line style="stroke:#0A9EFD;stroke-width:2;" x1="199.1244" x2="553.8091" y1="324.7397" y2="324.7397"/><text fill="#0A9EFD" font-family="Arial" font-size="13" lengthAdjust="spacing" textLength="94.6816" x="332.1259" y="319.9849">Join the channel</text></g><path d="M10,346.7397 L146.0381,346.7397 L146.0381,353.6885 L136.0381,363.6885 L10,363.6885 L10,346.7397" fill="#EEEEEE" style="stroke:#0A9EFD;stroke-width:1.5;"/><rect fill="none" height="420.231" style="stroke:#0A9EFD;stroke-width:2;" width="581.1424" x="10" y="346.7397"/><text fill="#000000" font-family="Arial" font-size="13" lengthAdjust="spacing" textLength="91.0381" x="25" y="359.9336">Play media files</text><g class="message" data-entity-1="part1" data-entity-2="part2" data-source-line="24" id="msg7"><polygon fill="#0A9EFD" points="187.1244,380.6372,197.1244,384.6372,187.1244,388.6372,191.1244,384.6372" style="stroke:#0A9EFD;stroke-width:1;stroke-linejoin:miter;stroke-miterlimit:10;"/><line style="stroke:#0A9EFD;stroke-width:2;" x1="37.7793" x2="193.1244" y1="384.6372" y2="384.6372"/><text fill="#0A9EFD" font-family="Arial" font-size="13" lengthAdjust="spacing" textLength="95.3799" x="70.7619" y="379.8823">Select media file</text></g><g class="message" data-entity-1="part2" data-entity-2="part2" data-source-line="25" id="msg8"><line style="stroke:#0A9EFD;stroke-width:2;" x1="199.1244" x2="241.1244" y1="413.5859" y2="413.5859"/><line style="stroke:#0A9EFD;stroke-width:2;" x1="241.1244" x2="241.1244" y1="413.5859" y2="426.5859"/><line style="stroke:#0A9EFD;stroke-width:2;" x1="200.1244" x2="241.1244" y1="426.5859" y2="426.5859"/><polygon fill="#0A9EFD" points="210.1244,422.5859,200.1244,426.5859,210.1244,430.5859,206.1244,426.5859" style="stroke:#0A9EFD;stroke-width:1;stroke-linejoin:miter;stroke-miterlimit:10;"/><text fill="#0A9EFD" font-family="Arial" font-size="13" lengthAdjust="spacing" textLength="308.5532" x="206.1244" y="408.8311">Use Video SDK to create an instance of Media Player</text></g><g class="message" data-entity-1="part2" data-entity-2="part3" data-source-line="26" id="msg9"><polygon fill="#0A9EFD" points="547.8091,451.5347,557.8091,455.5347,547.8091,459.5347,551.8091,455.5347" style="stroke:#0A9EFD;stroke-width:1;stroke-linejoin:miter;stroke-miterlimit:10;"/><line style="stroke:#0A9EFD;stroke-width:2;" x1="199.1244" x2="553.8091" y1="455.5347" y2="455.5347"/><text fill="#0A9EFD" font-family="Arial" font-size="13" lengthAdjust="spacing" textLength="205.2197" x="276.8569" y="450.7798">Open media file using Media Player</text></g><g class="message" data-entity-1="part3" data-entity-2="part2" data-source-line="27" id="msg10"><polygon fill="#0A9EFD" points="210.1244,480.4834,200.1244,484.4834,210.1244,488.4834,206.1244,484.4834" style="stroke:#0A9EFD;stroke-width:1;stroke-linejoin:miter;stroke-miterlimit:10;"/><line style="stroke:#0A9EFD;stroke-width:2;stroke-dasharray:2,2;" x1="204.1244" x2="558.8091" y1="484.4834" y2="484.4834"/><text fill="#0A9EFD" font-family="Arial" font-size="13" lengthAdjust="spacing" textLength="154.6416" x="302.146" y="479.7285">Open media file completed</text></g><g class="message" data-entity-1="part1" data-entity-2="part2" data-source-line="28" id="msg11"><polygon fill="#0A9EFD" points="187.1244,509.4321,197.1244,513.4321,187.1244,517.4321,191.1244,513.4321" style="stroke:#0A9EFD;stroke-width:1;stroke-linejoin:miter;stroke-miterlimit:10;"/><line style="stroke:#0A9EFD;stroke-width:2;" x1="37.7793" x2="193.1244" y1="513.4321" y2="513.4321"/><text fill="#0A9EFD" font-family="Arial" font-size="13" lengthAdjust="spacing" textLength="84.5381" x="76.1828" y="508.6772">Play media file</text></g><g class="message" data-entity-1="part2" data-entity-2="part2" data-source-line="29" id="msg12"><line style="stroke:#0A9EFD;stroke-width:2;" x1="199.1244" x2="241.1244" y1="557.3296" y2="557.3296"/><line style="stroke:#0A9EFD;stroke-width:2;" x1="241.1244" x2="241.1244" y1="557.3296" y2="570.3296"/><line style="stroke:#0A9EFD;stroke-width:2;" x1="200.1244" x2="241.1244" y1="570.3296" y2="570.3296"/><polygon fill="#0A9EFD" points="210.1244,566.3296,200.1244,570.3296,210.1244,574.3296,206.1244,570.3296" style="stroke:#0A9EFD;stroke-width:1;stroke-linejoin:miter;stroke-miterlimit:10;"/><text fill="#0A9EFD" font-family="Arial" font-size="13" lengthAdjust="spacing" textLength="138.0425" x="222.3744" y="537.626">Set up local video panel</text><text fill="#0A9EFD" font-family="Arial" font-size="13" lengthAdjust="spacing" textLength="174.1543" x="206.1244" y="552.5747">to display Media Player output</text></g><g class="message" data-entity-1="part2" data-entity-2="part3" data-source-line="30" id="msg13"><polygon fill="#0A9EFD" points="547.8091,610.2271,557.8091,614.2271,547.8091,618.2271,551.8091,614.2271" style="stroke:#0A9EFD;stroke-width:1;stroke-linejoin:miter;stroke-miterlimit:10;"/><line style="stroke:#0A9EFD;stroke-width:2;" x1="199.1244" x2="553.8091" y1="614.2271" y2="614.2271"/><text fill="#0A9EFD" font-family="Arial" font-size="13" lengthAdjust="spacing" textLength="175.6206" x="289.8505" y="594.5234">Update channel media options</text><text fill="#0A9EFD" font-family="Arial" font-size="13" lengthAdjust="spacing" textLength="174.8843" x="292.0246" y="609.4722">to publish Media Player output</text></g><g class="message" data-entity-1="part2" data-entity-2="part3" data-source-line="31" id="msg14"><polygon fill="#0A9EFD" points="547.8091,639.1758,557.8091,643.1758,547.8091,647.1758,551.8091,643.1758" style="stroke:#0A9EFD;stroke-width:1;stroke-linejoin:miter;stroke-miterlimit:10;"/><line style="stroke:#0A9EFD;stroke-width:2;" x1="199.1244" x2="553.8091" y1="643.1758" y2="643.1758"/><text fill="#0A9EFD" font-family="Arial" font-size="13" lengthAdjust="spacing" textLength="225.4561" x="266.7387" y="638.4209">Play the media file on the Media Player</text></g><g class="message" data-entity-1="part1" data-entity-2="part2" data-source-line="32" id="msg15"><polygon fill="#0A9EFD" points="187.1244,668.1245,197.1244,672.1245,187.1244,676.1245,191.1244,672.1245" style="stroke:#0A9EFD;stroke-width:1;stroke-linejoin:miter;stroke-miterlimit:10;"/><line style="stroke:#0A9EFD;stroke-width:2;" x1="37.7793" x2="193.1244" y1="672.1245" y2="672.1245"/><text fill="#0A9EFD" font-family="Arial" font-size="13" lengthAdjust="spacing" textLength="126.4517" x="55.226" y="667.3696">Pause or resume play</text></g><g class="message" data-entity-1="part2" data-entity-2="part3" data-source-line="33" id="msg16"><polygon fill="#0A9EFD" points="547.8091,697.0732,557.8091,701.0732,547.8091,705.0732,551.8091,701.0732" style="stroke:#0A9EFD;stroke-width:1;stroke-linejoin:miter;stroke-miterlimit:10;"/><line style="stroke:#0A9EFD;stroke-width:2;" x1="199.1244" x2="553.8091" y1="701.0732" y2="701.0732"/><text fill="#0A9EFD" font-family="Arial" font-size="13" lengthAdjust="spacing" textLength="177.0298" x="290.9519" y="696.3184">Call pause or resume methods</text></g><g class="message" data-entity-1="part3" data-entity-2="part2" data-source-line="34" id="msg17"><polygon fill="#0A9EFD" points="210.1244,726.022,200.1244,730.022,210.1244,734.022,206.1244,730.022" style="stroke:#0A9EFD;stroke-width:1;stroke-linejoin:miter;stroke-miterlimit:10;"/><line style="stroke:#0A9EFD;stroke-width:2;stroke-dasharray:2,2;" x1="204.1244" x2="558.8091" y1="730.022" y2="730.022"/><text fill="#0A9EFD" font-family="Arial" font-size="13" lengthAdjust="spacing" textLength="163.3062" x="297.8137" y="725.2671">Media file played completely</text></g><g class="message" data-entity-1="part2" data-entity-2="part3" data-source-line="35" id="msg18"><polygon fill="#0A9EFD" points="547.8091,754.9707,557.8091,758.9707,547.8091,762.9707,551.8091,758.9707" style="stroke:#0A9EFD;stroke-width:1;stroke-linejoin:miter;stroke-miterlimit:10;"/><line style="stroke:#0A9EFD;stroke-width:2;" x1="199.1244" x2="553.8091" y1="758.9707" y2="758.9707"/><text fill="#0A9EFD" font-family="Arial" font-size="13" lengthAdjust="spacing" textLength="268.8169" x="245.0583" y="754.2158">Resume publishing of camera and microphone</text></g><?plantuml-src dLDBZjD04Dtx58KNx0POi1f5aIAO3MWWIWWh9DJfhecBQLUr-ZC23iKXE1dLTYP98n0I6rkswxrwd_OJOkkBGp07YUPpkYT-HcNqNMTibWZzBc7imIJORJTTjvUlq7yaXmBRrs_xBfYOoL8mdA5V9FgErozVB1TFlVc6CIqdu6gzxf0TAFP8iAgxb63puTqYbR3y-MFnlDx_pcUz53VJAUXCfwBWQbbNNCFxW0oh43fzEhrK-N3I2rd0HZHPxJ8GfspO8iWTp8fk-42C3Vw6pTxhU74a2dBmC94HGnuGS0PqXoWbm1iXRXJL5s303eOPVSExmHm97ogp4h6QDfb4MUKUwnM-_16hve-qTVtn8zGy7aMiDNeOqP61E_AO6a5Rz6ZpnUV_oUfsGg-dYXjTKm5dRYY9-D2EwnnSDOLTp5iPWyUChj7ycw56yHOpg6SlrlXZCtfqD95FhF8TfL31bmf0IWubDxftmLMRZsdEkoJKFjBC5ChUKnh-oJHfhSrSk9AvgoQ6nfyfchl-QX5J6H6gv8RqbV5URRLJ8-P1N6e3lJrlhIpeJf7wbd9pN3NRgYrfhzQCg3z1FUGZsIXX43tRzMZz0W00?></g></svg>