<?xml version="1.0" encoding="us-ascii" standalone="no"?><svg xmlns="http://www.w3.org/2000/svg" xmlns:xlink="http://www.w3.org/1999/xlink" contentStyleType="text/css" height="675px" preserveAspectRatio="none" style="width:480px;height:675px;" version="1.1" viewBox="0 0 480 675" width="480px" zoomAndPan="magnify"><defs/><g><rect fill="none" height="673.4282" style="stroke:#0A9EFD;stroke-width:1.0;" width="478.5" x="0" y="0"/><rect fill="#999999" fill-opacity="0.33333" height="663.4282" style="stroke:#0A9EFD;stroke-width:0.5;" width="90" x="84.5" y="6"/><text fill="#0A9EFD" font-family="sans-serif" font-size="13" font-weight="bold" lengthAdjust="spacing" textLength="57" x="101" y="19.4951">Your app</text><rect fill="#999999" fill-opacity="0.33333" height="663.4282" style="stroke:#0A9EFD;stroke-width:0.5;" width="74" x="394.5" y="6"/><text fill="#0A9EFD" font-family="sans-serif" font-size="13" font-weight="bold" lengthAdjust="spacing" textLength="38" x="412.5" y="19.4951">Agora</text><rect fill="#0A9EFD" fill-opacity="0.06667" height="129.7949" style="stroke:#0A9EFD;stroke-width:2.0;" width="396" x="78.5" y="103.0986"/><rect fill="#0A9EFD" fill-opacity="0.06667" height="161.6924" style="stroke:#0A9EFD;stroke-width:2.0;" width="464.5" x="10" y="246.8936"/><rect fill="#0A9EFD" fill-opacity="0.06667" height="145.7437" style="stroke:#0A9EFD;stroke-width:2.0;" width="464.5" x="10" y="422.5859"/><line style="stroke:#0A9EFD;stroke-width:0.5;stroke-dasharray:5.0,5.0;" x1="37" x2="37" y1="86.0986" y2="585.3296"/><line style="stroke:#0A9EFD;stroke-width:0.5;stroke-dasharray:5.0,5.0;" x1="129.5" x2="129.5" y1="86.0986" y2="585.3296"/><line style="stroke:#0A9EFD;stroke-width:0.5;stroke-dasharray:5.0,5.0;" x1="431.5" x2="431.5" y1="86.0986" y2="585.3296"/><text fill="#0A9EFD" font-family="Arial" font-size="14" lengthAdjust="spacing" textLength="29" x="20" y="83.1318">User</text><ellipse cx="37.5" cy="16" fill="none" rx="8" ry="8" style="stroke:#0A9EFD;stroke-width:3.0;"/><path d="M37.5,24 L37.5,51 M24.5,32 L50.5,32 M37.5,51 L24.5,66 M37.5,51 L50.5,66 " fill="none" style="stroke:#0A9EFD;stroke-width:3.0;"/><text fill="#0A9EFD" font-family="Arial" font-size="14" lengthAdjust="spacing" textLength="29" x="20" y="597.4614">User</text><ellipse cx="37.5" cy="611.4282" fill="none" rx="8" ry="8" style="stroke:#0A9EFD;stroke-width:3.0;"/><path d="M37.5,619.4282 L37.5,646.4282 M24.5,627.4282 L50.5,627.4282 M37.5,646.4282 L24.5,661.4282 M37.5,646.4282 L50.5,661.4282 " fill="none" style="stroke:#0A9EFD;stroke-width:3.0;"/><rect fill="none" height="30.0986" rx="2.5" ry="2.5" style="stroke:#0A9EFD;stroke-width:2.0;" width="82" x="88.5" y="55"/><text fill="#0A9EFD" font-family="Arial" font-size="14" lengthAdjust="spacing" textLength="68" x="95.5" y="75.1318">Video SDK</text><rect fill="none" height="30.0986" rx="2.5" ry="2.5" style="stroke:#0A9EFD;stroke-width:2.0;" width="82" x="88.5" y="584.3296"/><text fill="#0A9EFD" font-family="Arial" font-size="14" lengthAdjust="spacing" textLength="68" x="95.5" y="604.4614">Video SDK</text><rect fill="none" height="30.0986" rx="2.5" ry="2.5" style="stroke:#0A9EFD;stroke-width:2.0;" width="66" x="398.5" y="55"/><text fill="#0A9EFD" font-family="Arial" font-size="14" lengthAdjust="spacing" textLength="52" x="405.5" y="75.1318">SD-RTN</text><rect fill="none" height="30.0986" rx="2.5" ry="2.5" style="stroke:#0A9EFD;stroke-width:2.0;" width="66" x="398.5" y="584.3296"/><text fill="#0A9EFD" font-family="Arial" font-size="14" lengthAdjust="spacing" textLength="52" x="405.5" y="604.4614">SD-RTN</text><path d="M78.5,103.0986 L309.5,103.0986 L309.5,110.0474 L299.5,120.0474 L78.5,120.0474 L78.5,103.0986 " fill="#EEEEEE" style="stroke:#0A9EFD;stroke-width:1.5;"/><rect fill="none" height="129.7949" style="stroke:#0A9EFD;stroke-width:2.0;" width="396" x="78.5" y="103.0986"/><text fill="#000000" font-family="Arial" font-size="13" lengthAdjust="spacing" textLength="186" x="93.5" y="116.2925">Set up the music content center</text><line style="stroke:#0A9EFD;stroke-width:2.0;" x1="129.5" x2="171.5" y1="140.9961" y2="140.9961"/><line style="stroke:#0A9EFD;stroke-width:2.0;" x1="171.5" x2="171.5" y1="140.9961" y2="153.9961"/><line style="stroke:#0A9EFD;stroke-width:2.0;" x1="130.5" x2="171.5" y1="153.9961" y2="153.9961"/><polygon fill="#0A9EFD" points="140.5,149.9961,130.5,153.9961,140.5,157.9961,136.5,153.9961" style="stroke:#0A9EFD;stroke-width:1.0;"/><text fill="#0A9EFD" font-family="Arial" font-size="13" lengthAdjust="spacing" textLength="210" x="136.5" y="136.2412">Load the DRM extension framework.</text><line style="stroke:#0A9EFD;stroke-width:2.0;" x1="129.5" x2="171.5" y1="182.9448" y2="182.9448"/><line style="stroke:#0A9EFD;stroke-width:2.0;" x1="171.5" x2="171.5" y1="182.9448" y2="195.9448"/><line style="stroke:#0A9EFD;stroke-width:2.0;" x1="130.5" x2="171.5" y1="195.9448" y2="195.9448"/><polygon fill="#0A9EFD" points="140.5,191.9448,130.5,195.9448,140.5,199.9448,136.5,195.9448" style="stroke:#0A9EFD;stroke-width:1.0;"/><text fill="#0A9EFD" font-family="Arial" font-size="13" lengthAdjust="spacing" textLength="275" x="136.5" y="178.1899">Create an instance of the music content center.</text><polygon fill="#0A9EFD" points="419.5,220.8936,429.5,224.8936,419.5,228.8936,423.5,224.8936" style="stroke:#0A9EFD;stroke-width:1.0;"/><line style="stroke:#0A9EFD;stroke-width:2.0;" x1="129.5" x2="425.5" y1="224.8936" y2="224.8936"/><text fill="#0A9EFD" font-family="Arial" font-size="13" lengthAdjust="spacing" textLength="199" x="181" y="220.1387">Initialize the music content center.</text><path d="M10,246.8936 L257,246.8936 L257,253.8423 L247,263.8423 L10,263.8423 L10,246.8936 " fill="#EEEEEE" style="stroke:#0A9EFD;stroke-width:1.5;"/><rect fill="none" height="161.6924" style="stroke:#0A9EFD;stroke-width:2.0;" width="464.5" x="10" y="246.8936"/><text fill="#000000" font-family="Arial" font-size="13" lengthAdjust="spacing" textLength="202" x="25" y="260.0874">Find music from the content center</text><polygon fill="#0A9EFD" points="117.5,280.791,127.5,284.791,117.5,288.791,121.5,284.791" style="stroke:#0A9EFD;stroke-width:1.0;"/><line style="stroke:#0A9EFD;stroke-width:2.0;" x1="37.5" x2="123.5" y1="284.791" y2="284.791"/><text fill="#0A9EFD" font-family="Arial" font-size="13" lengthAdjust="spacing" textLength="68" x="49.5" y="280.0361">Find music.</text><polygon fill="#0A9EFD" points="419.5,309.7397,429.5,313.7397,419.5,317.7397,423.5,313.7397" style="stroke:#0A9EFD;stroke-width:1.0;"/><line style="stroke:#0A9EFD;stroke-width:2.0;" x1="129.5" x2="425.5" y1="313.7397" y2="313.7397"/><text fill="#0A9EFD" font-family="Arial" font-size="13" lengthAdjust="spacing" textLength="210" x="175.5" y="308.9849">Call the method to search for music.</text><polygon fill="#0A9EFD" points="140.5,338.6885,130.5,342.6885,140.5,346.6885,136.5,342.6885" style="stroke:#0A9EFD;stroke-width:1.0;"/><line style="stroke:#0A9EFD;stroke-width:2.0;" x1="134.5" x2="430.5" y1="342.6885" y2="342.6885"/><text fill="#0A9EFD" font-family="Arial" font-size="13" lengthAdjust="spacing" textLength="256" x="152.5" y="337.9336">Receive search results through the callback.</text><polygon fill="#0A9EFD" points="419.5,367.6372,429.5,371.6372,419.5,375.6372,423.5,371.6372" style="stroke:#0A9EFD;stroke-width:1.0;"/><line style="stroke:#0A9EFD;stroke-width:2.0;" x1="129.5" x2="425.5" y1="371.6372" y2="371.6372"/><text fill="#0A9EFD" font-family="Arial" font-size="13" lengthAdjust="spacing" textLength="247" x="157" y="366.8823">Call the method to download music charts.</text><polygon fill="#0A9EFD" points="140.5,396.5859,130.5,400.5859,140.5,404.5859,136.5,400.5859" style="stroke:#0A9EFD;stroke-width:1.0;"/><line style="stroke:#0A9EFD;stroke-width:2.0;" x1="134.5" x2="430.5" y1="400.5859" y2="400.5859"/><text fill="#0A9EFD" font-family="Arial" font-size="13" lengthAdjust="spacing" textLength="278" x="141.5" y="395.8311">Receive music charts data through the callback.</text><path d="M10,422.5859 L153,422.5859 L153,429.5347 L143,439.5347 L10,439.5347 L10,422.5859 " fill="#EEEEEE" style="stroke:#0A9EFD;stroke-width:1.5;"/><rect fill="none" height="145.7437" style="stroke:#0A9EFD;stroke-width:2.0;" width="464.5" x="10" y="422.5859"/><text fill="#000000" font-family="Arial" font-size="13" lengthAdjust="spacing" textLength="98" x="25" y="435.7798">Play DRM music</text><polygon fill="#0A9EFD" points="117.5,456.4834,127.5,460.4834,117.5,464.4834,121.5,460.4834" style="stroke:#0A9EFD;stroke-width:1.0;"/><line style="stroke:#0A9EFD;stroke-width:2.0;" x1="37.5" x2="123.5" y1="460.4834" y2="460.4834"/><text fill="#0A9EFD" font-family="Arial" font-size="13" lengthAdjust="spacing" textLength="62" x="52.5" y="455.7285">Press play</text><polygon fill="#0A9EFD" points="140.5,485.4321,130.5,489.4321,140.5,493.4321,136.5,489.4321" style="stroke:#0A9EFD;stroke-width:1.0;"/><polygon fill="#0A9EFD" points="419.5,485.4321,429.5,489.4321,419.5,493.4321,423.5,489.4321" style="stroke:#0A9EFD;stroke-width:1.0;"/><line style="stroke:#0A9EFD;stroke-width:2.0;" x1="134.5" x2="425.5" y1="489.4321" y2="489.4321"/><text fill="#0A9EFD" font-family="Arial" font-size="13" lengthAdjust="spacing" textLength="140" x="210.5" y="484.6772">Preload selected music.</text><line style="stroke:#0A9EFD;stroke-width:2.0;" x1="129.5" x2="171.5" y1="518.3809" y2="518.3809"/><line style="stroke:#0A9EFD;stroke-width:2.0;" x1="171.5" x2="171.5" y1="518.3809" y2="531.3809"/><line style="stroke:#0A9EFD;stroke-width:2.0;" x1="130.5" x2="171.5" y1="531.3809" y2="531.3809"/><polygon fill="#0A9EFD" points="140.5,527.3809,130.5,531.3809,140.5,535.3809,136.5,531.3809" style="stroke:#0A9EFD;stroke-width:1.0;"/><text fill="#0A9EFD" font-family="Arial" font-size="13" lengthAdjust="spacing" textLength="205" x="136.5" y="513.626">Create an instance of music player.</text><polygon fill="#0A9EFD" points="140.5,556.3296,130.5,560.3296,140.5,564.3296,136.5,560.3296" style="stroke:#0A9EFD;stroke-width:1.0;"/><polygon fill="#0A9EFD" points="419.5,556.3296,429.5,560.3296,419.5,564.3296,423.5,560.3296" style="stroke:#0A9EFD;stroke-width:1.0;"/><line style="stroke:#0A9EFD;stroke-width:2.0;" x1="134.5" x2="425.5" y1="560.3296" y2="560.3296"/><text fill="#0A9EFD" font-family="Arial" font-size="13" lengthAdjust="spacing" textLength="154" x="203.5" y="555.5747">Open and play music files.</text><!--SRC=[XP7DJiCm48JlVeebz_O144AgMY5L_4K9HUA4jiwciUhOaUtGmjEp-MlJGk6IICbyEpExLyf8NMS4kB4Et_rMcQcgIoq4oc0TH2jFBWBqi4eJ8TPs3z6RhHrWLKMYGXUKL1MQ0D6hoiX2khXlvRCu5cGoOAB7Pet36PCk9idBKmyiZy36sRg2b0BmAnG4PUsL16bD8EOaFyW9ze39RMDr3GyMirQvI1w1zYppoXh87PQqisuxFL7F7M7WqWQKyG6D9B3vHQCHkxo6fL51eLPVz0V0JOOMTufRTQhSsRA5pehmRW_HZl9JspbgtHbIA2ntjU09dImWvpkDW9j91oGaINtGe7BaQnqyZ-1KcwABmJFNABV_EcLsPtIpuRvjmKVqlzkD5P1Xm0kEemt56Z_RkxNioJPYZksXOa5lrcVaxsqUJvfae9yRktZaBbypSJZiOUXpHORbMVjtE9dIvFkqtm00]--></g></svg>