<svg xmlns="http://www.w3.org/2000/svg" xmlns:xlink="http://www.w3.org/1999/xlink" contentStyleType="text/css" data-diagram-type="SEQUENCE" height="676px" preserveAspectRatio="none" style="width:489px;height:676px;" version="1.1" viewBox="0 0 489 676" width="489px" zoomAndPan="magnify"><?plantuml 1.2026.4?><defs/><g><rect fill="none" height="674.4282" style="stroke:#0A9EFD;stroke-width:1;" width="487.4299" x="0" y="0"/><rect fill="#999999" fill-opacity="0.33333" height="663.4282" style="stroke:#0A9EFD;stroke-width:0.5;" width="90.4824" x="82.998" y="6"/><text fill="#0A9EFD" font-family="sans-serif" font-size="13" font-weight="700" lengthAdjust="spacing" textLength="56.3354" x="100.0715" y="19.4951">Your app</text><rect fill="#999999" fill-opacity="0.33333" height="663.4282" style="stroke:#0A9EFD;stroke-width:0.5;" width="78.3257" x="389.1042" y="6"/><text fill="#0A9EFD" font-family="sans-serif" font-size="13" font-weight="700" lengthAdjust="spacing" textLength="37.5591" x="409.4875" y="19.4951">Agora</text><rect fill="#0A9EFD" fill-opacity="0.06667" height="129.7949" style="stroke:#0A9EFD;stroke-width:2;" width="396.4319" x="76.998" y="103.0986"/><rect fill="#0A9EFD" fill-opacity="0.06667" height="161.6924" style="stroke:#0A9EFD;stroke-width:2;" width="463.4299" x="10" y="246.8936"/><rect fill="#0A9EFD" fill-opacity="0.06667" height="145.7437" style="stroke:#0A9EFD;stroke-width:2;" width="463.4299" x="10" y="422.5859"/><g class="participant-lifeline" data-entity-uid="part1" data-qualified-name="USR" data-source-line="3" id="part1-lifeline"><g><title>User</title><rect fill="#000000" fill-opacity="0.00000" height="499.231" width="8" x="33.7793" y="86.0986"/><line style="stroke:#0A9EFD;stroke-width:0.5;stroke-dasharray:5,5;" x1="37" x2="37" y1="86.0986" y2="585.3296"/></g></g><g class="participant-lifeline" data-entity-uid="part2" data-qualified-name="APP" data-source-line="6" id="part2-lifeline"><g><title>Video SDK</title><rect fill="#000000" fill-opacity="0.00000" height="499.231" width="8" x="124.2393" y="86.0986"/><line style="stroke:#0A9EFD;stroke-width:0.5;stroke-dasharray:5,5;" x1="127.998" x2="127.998" y1="86.0986" y2="585.3296"/></g></g><g class="participant-lifeline" data-entity-uid="part3" data-qualified-name="API" data-source-line="10" id="part3-lifeline"><g><title>SDRTN.sup....sup.</title><rect fill="#000000" fill-opacity="0.00000" height="499.231" width="8" x="424.2671" y="86.0986"/><line style="stroke:#0A9EFD;stroke-width:0.5;stroke-dasharray:5,5;" x1="428.1042" x2="428.1042" y1="86.0986" y2="585.3296"/></g></g><g class="participant participant-head" data-entity-uid="part1" data-qualified-name="USR" data-source-line="3" id="part1-head"><text fill="#0A9EFD" font-family="Arial" font-size="14" lengthAdjust="spacing" textLength="29.5586" x="20" y="83.1318">User</text><ellipse cx="37.7793" cy="16" fill="none" rx="8" ry="8" style="stroke:#0A9EFD;stroke-width:3;"/><path d="M37.7793,24 L37.7793,51 M24.7793,32 L50.7793,32 M37.7793,51 L24.7793,66 M37.7793,51 L50.7793,66" fill="none" style="stroke:#0A9EFD;stroke-width:3;"/></g><g class="participant participant-tail" data-entity-uid="part1" data-qualified-name="USR" data-source-line="3" id="part1-tail"><text fill="#0A9EFD" font-family="Arial" font-size="14" lengthAdjust="spacing" textLength="29.5586" x="20" y="597.4614">User</text><ellipse cx="37.7793" cy="611.4282" fill="none" rx="8" ry="8" style="stroke:#0A9EFD;stroke-width:3;"/><path d="M37.7793,619.4282 L37.7793,646.4282 M24.7793,627.4282 L50.7793,627.4282 M37.7793,646.4282 L24.7793,661.4282 M37.7793,646.4282 L50.7793,661.4282" fill="none" style="stroke:#0A9EFD;stroke-width:3;"/></g><g class="participant participant-head" data-entity-uid="part2" data-qualified-name="APP" data-source-line="6" id="part2-head"><rect fill="none" height="30.0986" rx="2.5" ry="2.5" style="stroke:#0A9EFD;stroke-width:2;" width="82.4824" x="86.998" y="55"/><text fill="#0A9EFD" font-family="Arial" font-size="14" lengthAdjust="spacing" textLength="68.4824" x="93.998" y="75.1318">Video SDK</text></g><g class="participant participant-tail" data-entity-uid="part2" data-qualified-name="APP" data-source-line="6" id="part2-tail"><rect fill="none" height="30.0986" rx="2.5" ry="2.5" style="stroke:#0A9EFD;stroke-width:2;" width="82.4824" x="86.998" y="584.3296"/><text fill="#0A9EFD" font-family="Arial" font-size="14" lengthAdjust="spacing" textLength="68.4824" x="93.998" y="604.4614">Video SDK</text></g><g class="participant participant-head" data-entity-uid="part3" data-qualified-name="API" data-source-line="10" id="part3-head"><rect fill="none" height="32.6489" rx="2.5" ry="2.5" style="stroke:#0A9EFD;stroke-width:2;" width="70.3257" x="393.1042" y="52.4497"/><text fill="#0A9EFD" font-family="Arial" font-size="14" lengthAdjust="spacing" textLength="48.2207" x="400.1042" y="75.1318">SDRTN</text><text fill="#0A9EFD" font-family="Arial" font-size="11" lengthAdjust="spacing" textLength="8.105" x="448.325" y="69.7676">&#174;</text></g><g class="participant participant-tail" data-entity-uid="part3" data-qualified-name="API" data-source-line="10" id="part3-tail"><rect fill="none" height="32.6489" rx="2.5" ry="2.5" style="stroke:#0A9EFD;stroke-width:2;" width="70.3257" x="393.1042" y="584.3296"/><text fill="#0A9EFD" font-family="Arial" font-size="14" lengthAdjust="spacing" textLength="48.2207" x="400.1042" y="607.0117">SDRTN</text><text fill="#0A9EFD" font-family="Arial" font-size="11" lengthAdjust="spacing" textLength="8.105" x="448.325" y="601.6475">&#174;</text></g><path d="M76.998,103.0986 L304.8232,103.0986 L304.8232,110.0474 L294.8232,120.0474 L76.998,120.0474 L76.998,103.0986" fill="#EEEEEE" style="stroke:#0A9EFD;stroke-width:1.5;"/><rect fill="none" height="129.7949" style="stroke:#0A9EFD;stroke-width:2;" width="396.4319" x="76.998" y="103.0986"/><text fill="#000000" font-family="Arial" font-size="13" lengthAdjust="spacing" textLength="182.8252" x="91.998" y="116.2925">Set up the music content center</text><g class="message" data-entity-1="part2" data-entity-2="part2" data-source-line="14" id="msg1"><line style="stroke:#0A9EFD;stroke-width:2;" x1="128.2393" x2="170.2393" y1="140.9961" y2="140.9961"/><line style="stroke:#0A9EFD;stroke-width:2;" x1="170.2393" x2="170.2393" y1="140.9961" y2="153.9961"/><line style="stroke:#0A9EFD;stroke-width:2;" x1="129.2393" x2="170.2393" y1="153.9961" y2="153.9961"/><polygon fill="#0A9EFD" points="139.2393,149.9961,129.2393,153.9961,139.2393,157.9961,135.2393,153.9961" style="stroke:#0A9EFD;stroke-width:1;stroke-linejoin:miter;stroke-miterlimit:10;"/><text fill="#0A9EFD" font-family="Arial" font-size="13" lengthAdjust="spacing" textLength="210.9834" x="135.2393" y="136.2412">Load the DRM extension framework.</text></g><g class="message" data-entity-1="part2" data-entity-2="part2" data-source-line="15" id="msg2"><line style="stroke:#0A9EFD;stroke-width:2;" x1="128.2393" x2="170.2393" y1="182.9448" y2="182.9448"/><line style="stroke:#0A9EFD;stroke-width:2;" x1="170.2393" x2="170.2393" y1="182.9448" y2="195.9448"/><line style="stroke:#0A9EFD;stroke-width:2;" x1="129.2393" x2="170.2393" y1="195.9448" y2="195.9448"/><polygon fill="#0A9EFD" points="139.2393,191.9448,129.2393,195.9448,139.2393,199.9448,135.2393,195.9448" style="stroke:#0A9EFD;stroke-width:1;stroke-linejoin:miter;stroke-miterlimit:10;"/><text fill="#0A9EFD" font-family="Arial" font-size="13" lengthAdjust="spacing" textLength="272.4287" x="135.2393" y="178.1899">Create an instance of the music content center.</text></g><g class="message" data-entity-1="part2" data-entity-2="part3" data-source-line="16" id="msg3"><polygon fill="#0A9EFD" points="416.2671,220.8936,426.2671,224.8936,416.2671,228.8936,420.2671,224.8936" style="stroke:#0A9EFD;stroke-width:1;stroke-linejoin:miter;stroke-miterlimit:10;"/><line style="stroke:#0A9EFD;stroke-width:2;" x1="128.2393" x2="422.2671" y1="224.8936" y2="224.8936"/><text fill="#0A9EFD" font-family="Arial" font-size="13" lengthAdjust="spacing" textLength="195.8188" x="180.3438" y="220.1387">Initialize the music content center.</text></g><path d="M10,246.8936 L255.1416,246.8936 L255.1416,253.8423 L245.1416,263.8423 L10,263.8423 L10,246.8936" fill="#EEEEEE" style="stroke:#0A9EFD;stroke-width:1.5;"/><rect fill="none" height="161.6924" style="stroke:#0A9EFD;stroke-width:2;" width="463.4299" x="10" y="246.8936"/><text fill="#000000" font-family="Arial" font-size="13" lengthAdjust="spacing" textLength="200.1416" x="25" y="260.0874">Find music from the content center</text><g class="message" data-entity-1="part1" data-entity-2="part2" data-source-line="20" id="msg4"><polygon fill="#0A9EFD" points="116.2393,280.791,126.2393,284.791,116.2393,288.791,120.2393,284.791" style="stroke:#0A9EFD;stroke-width:1;stroke-linejoin:miter;stroke-miterlimit:10;"/><line style="stroke:#0A9EFD;stroke-width:2;" x1="37.7793" x2="122.2393" y1="284.791" y2="284.791"/><text fill="#0A9EFD" font-family="Arial" font-size="13" lengthAdjust="spacing" textLength="66.46" x="49.7793" y="280.0361">Find music.</text></g><g class="message" data-entity-1="part2" data-entity-2="part3" data-source-line="21" id="msg5"><polygon fill="#0A9EFD" points="416.2671,309.7397,426.2671,313.7397,416.2671,317.7397,420.2671,313.7397" style="stroke:#0A9EFD;stroke-width:1;stroke-linejoin:miter;stroke-miterlimit:10;"/><line style="stroke:#0A9EFD;stroke-width:2;" x1="128.2393" x2="422.2671" y1="313.7397" y2="313.7397"/><text fill="#0A9EFD" font-family="Arial" font-size="13" lengthAdjust="spacing" textLength="208.0889" x="174.2087" y="308.9849">Call the method to search for music.</text></g><g class="message" data-entity-1="part3" data-entity-2="part2" data-source-line="22" id="msg6"><polygon fill="#0A9EFD" points="139.2393,338.6885,129.2393,342.6885,139.2393,346.6885,135.2393,342.6885" style="stroke:#0A9EFD;stroke-width:1;stroke-linejoin:miter;stroke-miterlimit:10;"/><line style="stroke:#0A9EFD;stroke-width:2;" x1="133.2393" x2="427.2671" y1="342.6885" y2="342.6885"/><text fill="#0A9EFD" font-family="Arial" font-size="13" lengthAdjust="spacing" textLength="255.0742" x="150.7161" y="337.9336">Receive search results through the callback.</text></g><g class="message" data-entity-1="part2" data-entity-2="part3" data-source-line="23" id="msg7"><polygon fill="#0A9EFD" points="416.2671,367.6372,426.2671,371.6372,416.2671,375.6372,420.2671,371.6372" style="stroke:#0A9EFD;stroke-width:1;stroke-linejoin:miter;stroke-miterlimit:10;"/><line style="stroke:#0A9EFD;stroke-width:2;" x1="128.2393" x2="422.2671" y1="371.6372" y2="371.6372"/><text fill="#0A9EFD" font-family="Arial" font-size="13" lengthAdjust="spacing" textLength="244.9561" x="155.7751" y="366.8823">Call the method to download music charts.</text></g><g class="message" data-entity-1="part3" data-entity-2="part2" data-source-line="24" id="msg8"><polygon fill="#0A9EFD" points="139.2393,396.5859,129.2393,400.5859,139.2393,404.5859,135.2393,400.5859" style="stroke:#0A9EFD;stroke-width:1;stroke-linejoin:miter;stroke-miterlimit:10;"/><line style="stroke:#0A9EFD;stroke-width:2;" x1="133.2393" x2="427.2671" y1="400.5859" y2="400.5859"/><text fill="#0A9EFD" font-family="Arial" font-size="13" lengthAdjust="spacing" textLength="276.0278" x="140.2393" y="395.8311">Receive music charts data through the callback.</text></g><path d="M10,422.5859 L151.0654,422.5859 L151.0654,429.5347 L141.0654,439.5347 L10,439.5347 L10,422.5859" fill="#EEEEEE" style="stroke:#0A9EFD;stroke-width:1.5;"/><rect fill="none" height="145.7437" style="stroke:#0A9EFD;stroke-width:2;" width="463.4299" x="10" y="422.5859"/><text fill="#000000" font-family="Arial" font-size="13" lengthAdjust="spacing" textLength="96.0654" x="25" y="435.7798">Play DRM music</text><g class="message" data-entity-1="part1" data-entity-2="part2" data-source-line="28" id="msg9"><polygon fill="#0A9EFD" points="116.2393,456.4834,126.2393,460.4834,116.2393,464.4834,120.2393,460.4834" style="stroke:#0A9EFD;stroke-width:1;stroke-linejoin:miter;stroke-miterlimit:10;"/><line style="stroke:#0A9EFD;stroke-width:2;" x1="37.7793" x2="122.2393" y1="460.4834" y2="460.4834"/><text fill="#0A9EFD" font-family="Arial" font-size="13" lengthAdjust="spacing" textLength="60.6899" x="52.6643" y="455.7285">Press play</text></g><g class="message" data-entity-1="part2" data-entity-2="part3" data-source-line="29" id="msg10"><polygon fill="#0A9EFD" points="139.2393,485.4321,129.2393,489.4321,139.2393,493.4321,135.2393,489.4321" style="stroke:#0A9EFD;stroke-width:1;stroke-linejoin:miter;stroke-miterlimit:10;"/><polygon fill="#0A9EFD" points="416.2671,485.4321,426.2671,489.4321,416.2671,493.4321,420.2671,489.4321" style="stroke:#0A9EFD;stroke-width:1;stroke-linejoin:miter;stroke-miterlimit:10;"/><line style="stroke:#0A9EFD;stroke-width:2;" x1="133.2393" x2="422.2671" y1="489.4321" y2="489.4321"/><text fill="#0A9EFD" font-family="Arial" font-size="13" lengthAdjust="spacing" textLength="138.0107" x="209.2478" y="484.6772">Preload selected music.</text></g><g class="message" data-entity-1="part2" data-entity-2="part2" data-source-line="30" id="msg11"><line style="stroke:#0A9EFD;stroke-width:2;" x1="128.2393" x2="170.2393" y1="518.3809" y2="518.3809"/><line style="stroke:#0A9EFD;stroke-width:2;" x1="170.2393" x2="170.2393" y1="518.3809" y2="531.3809"/><line style="stroke:#0A9EFD;stroke-width:2;" x1="129.2393" x2="170.2393" y1="531.3809" y2="531.3809"/><polygon fill="#0A9EFD" points="139.2393,527.3809,129.2393,531.3809,139.2393,535.3809,135.2393,531.3809" style="stroke:#0A9EFD;stroke-width:1;stroke-linejoin:miter;stroke-miterlimit:10;"/><text fill="#0A9EFD" font-family="Arial" font-size="13" lengthAdjust="spacing" textLength="203.7661" x="135.2393" y="513.626">Create an instance of music player.</text></g><g class="message" data-entity-1="part2" data-entity-2="part3" data-source-line="31" id="msg12"><polygon fill="#0A9EFD" points="139.2393,556.3296,129.2393,560.3296,139.2393,564.3296,135.2393,560.3296" style="stroke:#0A9EFD;stroke-width:1;stroke-linejoin:miter;stroke-miterlimit:10;"/><polygon fill="#0A9EFD" points="416.2671,556.3296,426.2671,560.3296,416.2671,564.3296,420.2671,560.3296" style="stroke:#0A9EFD;stroke-width:1;stroke-linejoin:miter;stroke-miterlimit:10;"/><line style="stroke:#0A9EFD;stroke-width:2;" x1="133.2393" x2="422.2671" y1="560.3296" y2="560.3296"/><text fill="#0A9EFD" font-family="Arial" font-size="13" lengthAdjust="spacing" textLength="152.4644" x="202.021" y="555.5747">Open and play music files.</text></g><?plantuml-src XL7BJi905DttAwxTWtj2I0Z4XFXgMZ5nPIxJ2vqmdMbcfe9-b1_XbtdxWeAYcpPfpxddTIMrK6LAW1jZyTLjfHxACbT1WC8R2-7IaGq17IoJE0XMPW_XYoajO564GO7MIo4Br1x2PvcIWMH-MyEdKHIGJe4PBMrQAPnnaddyz31sPJ7v-XnVL--Ml3YIDzQK1IJaWLy-8yXB9mK8eptn3S4FiW7hmM1IoOxWpc1Q8-VnFT2UOKuQ3MkBEUsCtGvFq3DBwBa03L8xZreGcFL5eHvtCOA5bbwYaX_q1u6JT2bk9ATgK6jhyffq5eHxFbWxmazbPwXK8qW-CvpLW2Eq8eCrRzOZZ0SD8IP1yeqwb2LNAk_u1BlQP8qDlhb2iVrNAJKxhQg6sxGP3-f-b-iZ84MF5nHx3KKAt-lTQkv96n7RTb0me1LhFVBtseyZHSBJpyOkZjpugovsmnwEFXQa6PxMVxl9f2BNklq6?></g></svg>