<?xml version="1.0" encoding="us-ascii" standalone="no"?><svg xmlns="http://www.w3.org/2000/svg" xmlns:xlink="http://www.w3.org/1999/xlink" contentStyleType="text/css" height="874px" preserveAspectRatio="none" style="width:615px;height:874px;" version="1.1" viewBox="0 0 615 874" width="615px" zoomAndPan="magnify"><defs/><g><rect fill="none" height="872.0693" style="stroke:#0A9EFD;stroke-width:1.0;" width="613.5" x="0" y="0"/><rect fill="#999999" fill-opacity="0.33333" height="862.0693" style="stroke:#0A9EFD;stroke-width:0.5;" width="74" x="163.1667" y="6"/><text fill="#0A9EFD" font-family="sans-serif" font-size="13" font-weight="bold" lengthAdjust="spacing" textLength="68" x="166.1667" y="19.4951">Video SDK</text><rect fill="#999999" fill-opacity="0.33333" height="862.0693" style="stroke:#0A9EFD;stroke-width:0.5;" width="96" x="513.5" y="6"/><text fill="#0A9EFD" font-family="sans-serif" font-size="13" font-weight="bold" lengthAdjust="spacing" textLength="90" x="516.5" y="19.4951">Agora SD-RTN</text><rect fill="#0A9EFD" fill-opacity="0.06667" height="116.7949" style="stroke:#0A9EFD;stroke-width:2.0;" width="582.8333" x="10" y="215.9448"/><rect fill="#0A9EFD" fill-opacity="0.06667" height="420.231" style="stroke:#0A9EFD;stroke-width:2.0;" width="582.8333" x="10" y="346.7397"/><line style="stroke:#0A9EFD;stroke-width:0.5;stroke-dasharray:5.0,5.0;" x1="37" x2="37" y1="86.0986" y2="783.9707"/><line style="stroke:#0A9EFD;stroke-width:0.5;stroke-dasharray:5.0,5.0;" x1="199.8333" x2="199.8333" y1="86.0986" y2="783.9707"/><line style="stroke:#0A9EFD;stroke-width:0.5;stroke-dasharray:5.0,5.0;" x1="561.1667" x2="561.1667" y1="86.0986" y2="783.9707"/><text fill="#0A9EFD" font-family="Arial" font-size="14" lengthAdjust="spacing" textLength="29" x="20" y="83.1318">User</text><ellipse cx="37.5" cy="16" fill="none" rx="8" ry="8" style="stroke:#0A9EFD;stroke-width:3.0;"/><path d="M37.5,24 L37.5,51 M24.5,32 L50.5,32 M37.5,51 L24.5,66 M37.5,51 L50.5,66 " fill="none" style="stroke:#0A9EFD;stroke-width:3.0;"/><text fill="#0A9EFD" font-family="Arial" font-size="14" lengthAdjust="spacing" textLength="29" x="20" y="796.1025">User</text><ellipse cx="37.5" cy="810.0693" fill="none" rx="8" ry="8" style="stroke:#0A9EFD;stroke-width:3.0;"/><path d="M37.5,818.0693 L37.5,845.0693 M24.5,826.0693 L50.5,826.0693 M37.5,845.0693 L24.5,860.0693 M37.5,845.0693 L50.5,860.0693 " fill="none" style="stroke:#0A9EFD;stroke-width:3.0;"/><rect fill="none" height="40.6667" rx="2.5" ry="2.5" style="stroke:#0A9EFD;stroke-width:2.0;" width="42.6667" x="178.8333" y="44.432"/><path d="M186.8333,51.432 L186.8333,64.7653 L200.1667,64.7653 L200.1667,51.432 L186.8333,51.432 M203.5,58.0986 L203.5,68.0986 L193.5,68.0986 L193.5,71.432 L206.8333,71.432 L206.8333,58.0986 L203.5,58.0986 M210.1667,64.7653 L210.1667,74.7653 L200.1667,74.7653 L200.1667,78.0986 L213.5,78.0986 L213.5,64.7653 L210.1667,64.7653 " fill="#0A9EFD" style="stroke:;stroke-width:0.0;stroke-dasharray:;"/><rect fill="none" height="40.6667" rx="2.5" ry="2.5" style="stroke:#0A9EFD;stroke-width:2.0;" width="42.6667" x="178.8333" y="782.9707"/><path d="M186.8333,789.9707 L186.8333,803.304 L200.1667,803.304 L200.1667,789.9707 L186.8333,789.9707 M203.5,796.6374 L203.5,806.6374 L193.5,806.6374 L193.5,809.9707 L206.8333,809.9707 L206.8333,796.6374 L203.5,796.6374 M210.1667,803.304 L210.1667,813.304 L200.1667,813.304 L200.1667,816.6374 L213.5,816.6374 L213.5,803.304 L210.1667,803.304 " fill="#0A9EFD" style="stroke:;stroke-width:0.0;stroke-dasharray:;"/><rect fill="none" height="40.6667" rx="2.5" ry="2.5" style="stroke:#0A9EFD;stroke-width:2.0;" width="42.6667" x="540.1667" y="44.432"/><path d="M563.1667,51.432 C559.1333,51.432 555.6,54.2986 554.8333,58.0986 C551.1667,58.0986 548.1667,61.0986 548.1667,64.7653 C548.1667,68.432 551.1667,71.432 554.8333,71.432 L569.8333,71.432 C572.6,71.432 574.8333,69.1986 574.8333,66.432 C574.8333,64.2653 573.4333,62.132 571.5,61.432 L571.5,59.7653 C571.5,55.1653 567.7667,51.432 563.1667,51.432 " fill="#0A9EFD" style="stroke:;stroke-width:0.0;stroke-dasharray:;"/><rect fill="none" height="40.6667" rx="2.5" ry="2.5" style="stroke:#0A9EFD;stroke-width:2.0;" width="42.6667" x="540.1667" y="782.9707"/><path d="M563.1667,789.9707 C559.1333,789.9707 555.6,792.8374 554.8333,796.6374 C551.1667,796.6374 548.1667,799.6374 548.1667,803.304 C548.1667,806.9707 551.1667,809.9707 554.8333,809.9707 L569.8333,809.9707 C572.6,809.9707 574.8333,807.7374 574.8333,804.9707 C574.8333,802.804 573.4333,800.6707 571.5,799.9707 L571.5,798.304 C571.5,793.704 567.7667,789.9707 563.1667,789.9707 " fill="#0A9EFD" style="stroke:;stroke-width:0.0;stroke-dasharray:;"/><polygon fill="#0A9EFD" points="188.1667,113.0474,198.1667,117.0474,188.1667,121.0474,192.1667,117.0474" style="stroke:#0A9EFD;stroke-width:1.0;"/><line style="stroke:#0A9EFD;stroke-width:2.0;" x1="37.5" x2="194.1667" y1="117.0474" y2="117.0474"/><text fill="#0A9EFD" font-family="Arial" font-size="13" lengthAdjust="spacing" textLength="58" x="89.8333" y="112.2925">Open App</text><line style="stroke:#0A9EFD;stroke-width:2.0;" x1="200.1667" x2="242.1667" y1="145.9961" y2="145.9961"/><line style="stroke:#0A9EFD;stroke-width:2.0;" x1="242.1667" x2="242.1667" y1="145.9961" y2="158.9961"/><line style="stroke:#0A9EFD;stroke-width:2.0;" x1="201.1667" x2="242.1667" y1="158.9961" y2="158.9961"/><polygon fill="#0A9EFD" points="211.1667,154.9961,201.1667,158.9961,211.1667,162.9961,207.1667,158.9961" style="stroke:#0A9EFD;stroke-width:1.0;"/><text fill="#0A9EFD" font-family="Arial" font-size="13" lengthAdjust="spacing" textLength="313" x="207.1667" y="141.2412">Use Video SDK to create an instance of Agora Engine</text><line style="stroke:#0A9EFD;stroke-width:2.0;" x1="200.1667" x2="242.1667" y1="187.9448" y2="187.9448"/><line style="stroke:#0A9EFD;stroke-width:2.0;" x1="242.1667" x2="242.1667" y1="187.9448" y2="200.9448"/><line style="stroke:#0A9EFD;stroke-width:2.0;" x1="201.1667" x2="242.1667" y1="200.9448" y2="200.9448"/><polygon fill="#0A9EFD" points="211.1667,196.9448,201.1667,200.9448,211.1667,204.9448,207.1667,200.9448" style="stroke:#0A9EFD;stroke-width:1.0;"/><text fill="#0A9EFD" font-family="Arial" font-size="13" lengthAdjust="spacing" textLength="211" x="207.1667" y="183.1899">Enable audio and video in the engine</text><path d="M10,215.9448 L78,215.9448 L78,222.8936 L68,232.8936 L10,232.8936 L10,215.9448 " fill="#EEEEEE" style="stroke:#0A9EFD;stroke-width:1.5;"/><rect fill="none" height="116.7949" style="stroke:#0A9EFD;stroke-width:2.0;" width="582.8333" x="10" y="215.9448"/><text fill="#000000" font-family="Arial" font-size="13" lengthAdjust="spacing" textLength="23" x="25" y="229.1387">Join</text><polygon fill="#0A9EFD" points="188.1667,249.8423,198.1667,253.8423,188.1667,257.8423,192.1667,253.8423" style="stroke:#0A9EFD;stroke-width:1.0;"/><line style="stroke:#0A9EFD;stroke-width:2.0;" x1="37.5" x2="194.1667" y1="253.8423" y2="253.8423"/><text fill="#0A9EFD" font-family="Arial" font-size="13" lengthAdjust="spacing" textLength="83" x="77.3333" y="249.0874">Join a channel</text><line style="stroke:#0A9EFD;stroke-width:2.0;" x1="200.1667" x2="242.1667" y1="282.791" y2="282.791"/><line style="stroke:#0A9EFD;stroke-width:2.0;" x1="242.1667" x2="242.1667" y1="282.791" y2="295.791"/><line style="stroke:#0A9EFD;stroke-width:2.0;" x1="201.1667" x2="242.1667" y1="295.791" y2="295.791"/><polygon fill="#0A9EFD" points="211.1667,291.791,201.1667,295.791,211.1667,299.791,207.1667,295.791" style="stroke:#0A9EFD;stroke-width:1.0;"/><text fill="#0A9EFD" font-family="Arial" font-size="13" lengthAdjust="spacing" textLength="266" x="207.1667" y="278.0361">Retrieve authentication token to join a channel</text><polygon fill="#0A9EFD" points="549.5,320.7397,559.5,324.7397,549.5,328.7397,553.5,324.7397" style="stroke:#0A9EFD;stroke-width:1.0;"/><line style="stroke:#0A9EFD;stroke-width:2.0;" x1="200.1667" x2="555.5" y1="324.7397" y2="324.7397"/><text fill="#0A9EFD" font-family="Arial" font-size="13" lengthAdjust="spacing" textLength="94" x="333.8333" y="319.9849">Join the channel</text><path d="M10,346.7397 L147,346.7397 L147,353.6885 L137,363.6885 L10,363.6885 L10,346.7397 " fill="#EEEEEE" style="stroke:#0A9EFD;stroke-width:1.5;"/><rect fill="none" height="420.231" style="stroke:#0A9EFD;stroke-width:2.0;" width="582.8333" x="10" y="346.7397"/><text fill="#000000" font-family="Arial" font-size="13" lengthAdjust="spacing" textLength="92" x="25" y="359.9336">Play media files</text><polygon fill="#0A9EFD" points="188.1667,380.6372,198.1667,384.6372,188.1667,388.6372,192.1667,384.6372" style="stroke:#0A9EFD;stroke-width:1.0;"/><line style="stroke:#0A9EFD;stroke-width:2.0;" x1="37.5" x2="194.1667" y1="384.6372" y2="384.6372"/><text fill="#0A9EFD" font-family="Arial" font-size="13" lengthAdjust="spacing" textLength="96" x="70.8333" y="379.8823">Select media file</text><line style="stroke:#0A9EFD;stroke-width:2.0;" x1="200.1667" x2="242.1667" y1="413.5859" y2="413.5859"/><line style="stroke:#0A9EFD;stroke-width:2.0;" x1="242.1667" x2="242.1667" y1="413.5859" y2="426.5859"/><line style="stroke:#0A9EFD;stroke-width:2.0;" x1="201.1667" x2="242.1667" y1="426.5859" y2="426.5859"/><polygon fill="#0A9EFD" points="211.1667,422.5859,201.1667,426.5859,211.1667,430.5859,207.1667,426.5859" style="stroke:#0A9EFD;stroke-width:1.0;"/><text fill="#0A9EFD" font-family="Arial" font-size="13" lengthAdjust="spacing" textLength="311" x="207.1667" y="408.8311">Use Video SDK to create an instance of Media Player</text><polygon fill="#0A9EFD" points="549.5,451.5347,559.5,455.5347,549.5,459.5347,553.5,455.5347" style="stroke:#0A9EFD;stroke-width:1.0;"/><line style="stroke:#0A9EFD;stroke-width:2.0;" x1="200.1667" x2="555.5" y1="455.5347" y2="455.5347"/><text fill="#0A9EFD" font-family="Arial" font-size="13" lengthAdjust="spacing" textLength="205" x="278.3333" y="450.7798">Open media file using Media Player</text><polygon fill="#0A9EFD" points="211.1667,480.4834,201.1667,484.4834,211.1667,488.4834,207.1667,484.4834" style="stroke:#0A9EFD;stroke-width:1.0;"/><line style="stroke:#0A9EFD;stroke-width:2.0;stroke-dasharray:2.0,2.0;" x1="205.1667" x2="560.5" y1="484.4834" y2="484.4834"/><text fill="#0A9EFD" font-family="Arial" font-size="13" lengthAdjust="spacing" textLength="154" x="303.8333" y="479.7285">Open media file completed</text><polygon fill="#0A9EFD" points="188.1667,509.4321,198.1667,513.4321,188.1667,517.4321,192.1667,513.4321" style="stroke:#0A9EFD;stroke-width:1.0;"/><line style="stroke:#0A9EFD;stroke-width:2.0;" x1="37.5" x2="194.1667" y1="513.4321" y2="513.4321"/><text fill="#0A9EFD" font-family="Arial" font-size="13" lengthAdjust="spacing" textLength="85" x="76.3333" y="508.6772">Play media file</text><line style="stroke:#0A9EFD;stroke-width:2.0;" x1="200.1667" x2="242.1667" y1="557.3296" y2="557.3296"/><line style="stroke:#0A9EFD;stroke-width:2.0;" x1="242.1667" x2="242.1667" y1="557.3296" y2="570.3296"/><line style="stroke:#0A9EFD;stroke-width:2.0;" x1="201.1667" x2="242.1667" y1="570.3296" y2="570.3296"/><polygon fill="#0A9EFD" points="211.1667,566.3296,201.1667,570.3296,211.1667,574.3296,207.1667,570.3296" style="stroke:#0A9EFD;stroke-width:1.0;"/><text fill="#0A9EFD" font-family="Arial" font-size="13" lengthAdjust="spacing" textLength="137" x="224.6667" y="537.626">Set up local video panel</text><text fill="#0A9EFD" font-family="Arial" font-size="13" lengthAdjust="spacing" textLength="176" x="207.1667" y="552.5747">to display Media Player output</text><polygon fill="#0A9EFD" points="549.5,610.2271,559.5,614.2271,549.5,618.2271,553.5,614.2271" style="stroke:#0A9EFD;stroke-width:1.0;"/><line style="stroke:#0A9EFD;stroke-width:2.0;" x1="200.1667" x2="555.5" y1="614.2271" y2="614.2271"/><text fill="#0A9EFD" font-family="Arial" font-size="13" lengthAdjust="spacing" textLength="175" x="291.3333" y="594.5234">Update channel media options</text><text fill="#0A9EFD" font-family="Arial" font-size="13" lengthAdjust="spacing" textLength="176" x="292.8333" y="609.4722">to publish Media Player output</text><polygon fill="#0A9EFD" points="549.5,639.1758,559.5,643.1758,549.5,647.1758,553.5,643.1758" style="stroke:#0A9EFD;stroke-width:1.0;"/><line style="stroke:#0A9EFD;stroke-width:2.0;" x1="200.1667" x2="555.5" y1="643.1758" y2="643.1758"/><text fill="#0A9EFD" font-family="Arial" font-size="13" lengthAdjust="spacing" textLength="227" x="267.3333" y="638.4209">Play the media file on the Media Player</text><polygon fill="#0A9EFD" points="188.1667,668.1245,198.1667,672.1245,188.1667,676.1245,192.1667,672.1245" style="stroke:#0A9EFD;stroke-width:1.0;"/><line style="stroke:#0A9EFD;stroke-width:2.0;" x1="37.5" x2="194.1667" y1="672.1245" y2="672.1245"/><text fill="#0A9EFD" font-family="Arial" font-size="13" lengthAdjust="spacing" textLength="127" x="55.3333" y="667.3696">Pause or resume play</text><polygon fill="#0A9EFD" points="549.5,697.0732,559.5,701.0732,549.5,705.0732,553.5,701.0732" style="stroke:#0A9EFD;stroke-width:1.0;"/><line style="stroke:#0A9EFD;stroke-width:2.0;" x1="200.1667" x2="555.5" y1="701.0732" y2="701.0732"/><text fill="#0A9EFD" font-family="Arial" font-size="13" lengthAdjust="spacing" textLength="177" x="292.3333" y="696.3184">Call pause or resume methods</text><polygon fill="#0A9EFD" points="211.1667,726.022,201.1667,730.022,211.1667,734.022,207.1667,730.022" style="stroke:#0A9EFD;stroke-width:1.0;"/><line style="stroke:#0A9EFD;stroke-width:2.0;stroke-dasharray:2.0,2.0;" x1="205.1667" x2="560.5" y1="730.022" y2="730.022"/><text fill="#0A9EFD" font-family="Arial" font-size="13" lengthAdjust="spacing" textLength="164" x="298.8333" y="725.2671">Media file played completely</text><polygon fill="#0A9EFD" points="549.5,754.9707,559.5,758.9707,549.5,762.9707,553.5,758.9707" style="stroke:#0A9EFD;stroke-width:1.0;"/><line style="stroke:#0A9EFD;stroke-width:2.0;" x1="200.1667" x2="555.5" y1="758.9707" y2="758.9707"/><text fill="#0A9EFD" font-family="Arial" font-size="13" lengthAdjust="spacing" textLength="267" x="247.3333" y="754.2158">Resume publishing of camera and microphone</text><!--SRC=[dPDFRnD13CNl-odC7hW5zS2fgY95q0jL8Ke89oGqcN6pfhFsQFvKmAV7iviccGg4n6MbtR5_VkzvzXMnzSKXc8D4yoqz4h-XClgkCpPBX7wNCFPW4koscwxRom_elv13WUtxkxuB9cQo50ndw6yI_SBhjrVBczVU_CIObbFZQhtka1rexn6mghCKiDXy_lXtXlLIt8pGkZD2XS1YMR7Ny2aWmog4JjzE7rKod3H25h0HJLQB3CGf6xO8yW2pYbi-46FJVyjcxxMyE19jSl0qmOWX3mWuDtI7A2N01o5k5DKFOC0EXXbzmzrWZeHFbQmWLjCcaoXL7h4-uViVUzNy4Ll77m-Xvl4iOgrnmuYE33oGnzG8sg97co-E_oUh-wbxFQsrqJKjuCo6aeWFRRdMmQ9Ps4MzbJ5upEWQpIyCDOgtc44zUx767pUZLqSJ-Segtr4AjVbI0KZ9eUH6zowuQlCvpNcMXBgFD9D2sNjAmpz9azQwcGjNCk-gYQ7nPuhchhzNn5H6X2gvWRuptgkjjch4F8XBRQ3tvwcLWkuKgM-Hc-EesLRTakxLcX7r9wYNV2GR9GoYTxjUhTy0]--></g></svg>