<svg width="1064" height="637" xmlns="http://www.w3.org/2000/svg" xmlns:xlink="http://www.w3.org/1999/xlink" overflow="hidden"><defs><clipPath id="clip0"><path d="M42 24 1106 24 1106 661 42 661Z" fill-rule="evenodd" clip-rule="evenodd"/></clipPath></defs><g clip-path="url(#clip0)" transform="translate(-42 -24)"><rect x="43" y="25" width="1062" height="635" fill="#0C0F14"/><rect x="365.5" y="259.5" width="154" height="42" stroke="#2F528F" stroke-width="1.33333" stroke-miterlimit="8" fill="#4472C4"/><text fill="#FFFFFF" font-family="Calibri,Calibri_MSFontService,sans-serif" font-weight="400" font-size="19" transform="translate(378.164 286)">Basic Service Fee​</text><rect x="76.5001" y="388.5" width="194" height="45" stroke="#2F528F" stroke-width="1.33333" stroke-miterlimit="8" fill="#4472C4"/><text fill="#FFFFFF" font-family="Calibri,Calibri_MSFontService,sans-serif" font-weight="400" font-size="19" transform="translate(86.7765 416)">Video SDK Service cost</text><rect x="365.5" y="506.5" width="154" height="58" stroke="#2F528F" stroke-width="1.33333" stroke-miterlimit="8" fill="#4472C4"/><text fill="#FFFFFF" font-family="Calibri,Calibri_MSFontService,sans-serif" font-weight="400" font-size="19" transform="translate(393.634 530)">Value<tspan x="42.1267" y="0">-</tspan><tspan x="47.7933" y="0">Added </tspan><tspan x="5.94669" y="23">Service Fee​</tspan></text><rect x="625.5" y="146.5" width="184" height="55" stroke="#4472C4" stroke-width="1.33333" stroke-miterlimit="8" fill="#4472C4"/><text fill="#FFFFFF" font-family="Calibri,Calibri_MSFontService,sans-serif" font-weight="400" font-size="19" transform="translate(686.276 168)">Package​<tspan x="-31.96" y="23">Subscription Fee</tspan></text><rect x="625.5" y="373.5" width="184" height="42" stroke="#2F528F" stroke-width="1.33333" stroke-miterlimit="8" fill="#4472C4"/><text fill="#FFFFFF" font-family="Calibri,Calibri_MSFontService,sans-serif" font-weight="400" font-size="19" transform="translate(652.419 400)">Additional Usage</text><path d="M270 411 317.895 411 317.895 535.501 365.789 535.501" stroke="#FFFFFF" stroke-width="2" stroke-miterlimit="8" fill="none" fill-rule="evenodd"/><path d="M0 0 47.8945 0 47.8945 130.593 95.789 130.593" stroke="#FFFFFF" stroke-width="2" stroke-miterlimit="8" fill="none" fill-rule="evenodd" transform="matrix(-1 -8.74228e-08 -8.74228e-08 1 365.789 280)"/><path d="M519 280 571.903 280 571.903 394.184 624.806 394.184" stroke="#FFFFFF" stroke-width="2" stroke-miterlimit="8" fill="none" fill-rule="evenodd"/><path d="M0 0 52.9029 0 52.9029 106.618 105.806 106.618" stroke="#FFFFFF" stroke-width="2" stroke-miterlimit="8" fill="none" fill-rule="evenodd" transform="matrix(-1 -8.74228e-08 -8.74228e-08 1 624.806 173)"/><rect x="892.5" y="153.5" width="168" height="41" stroke="#2F528F" stroke-width="1.33333" stroke-miterlimit="8" fill="#4472C4"/><text fill="#FFFFFF" font-family="Calibri,Calibri_MSFontService,sans-serif" font-weight="400" font-size="19" transform="translate(907.116 179)">Standard Package ​</text><rect x="892.5" y="101.5" width="168" height="41" stroke="#2F528F" stroke-width="1.33333" stroke-miterlimit="8" fill="#4472C4"/><text fill="#FFFFFF" font-family="Calibri,Calibri_MSFontService,sans-serif" font-weight="400" font-size="19" transform="translate(917.34 127)">Starter Package</text><rect x="892.5" y="49.5001" width="169" height="41" stroke="#2F528F" stroke-width="1.33333" stroke-miterlimit="8" fill="#4472C4"/><text fill="#FFFFFF" font-family="Calibri,Calibri_MSFontService,sans-serif" font-weight="400" font-size="19" transform="translate(927.333 75)">Free Package</text><rect x="894.5" y="205.5" width="167" height="41" stroke="#2F528F" stroke-width="1.33333" stroke-miterlimit="8" fill="#4472C4"/><text fill="#FFFFFF" font-family="Calibri,Calibri_MSFontService,sans-serif" font-weight="400" font-size="19" transform="translate(908.083 231)">Premium Package ​</text><rect x="894.5" y="257.5" width="167" height="42" stroke="#2F528F" stroke-width="1.33333" stroke-miterlimit="8" fill="#4472C4"/><text fill="#FFFFFF" font-family="Calibri,Calibri_MSFontService,sans-serif" font-weight="400" font-size="19" transform="translate(905.646 284)">Enterprise Package</text><rect x="894.5" y="347.5" width="167" height="42" stroke="#2F528F" stroke-width="1.33333" stroke-miterlimit="8" fill="#4472C4"/><text fill="#FFFFFF" font-family="Calibri,Calibri_MSFontService,sans-serif" font-weight="400" font-size="19" transform="translate(917.373 374)">​Top<tspan x="27.1733" y="0">-</tspan><tspan x="32.84" y="0">Up Package</tspan></text><rect x="894.5" y="404.5" width="166" height="42" stroke="#2F528F" stroke-width="1.33333" stroke-miterlimit="8" fill="#4472C4"/><text fill="#FFFFFF" font-family="Calibri,Calibri_MSFontService,sans-serif" font-weight="400" font-size="19" transform="translate(918.813 431)">Postpaid Billing​</text><rect x="625.5" y="467.5" width="184" height="57" stroke="#2F528F" stroke-width="1.33333" stroke-miterlimit="8" fill="#4472C4"/><text fill="#FFFFFF" font-family="Calibri,Calibri_MSFontService,sans-serif" font-weight="400" font-size="19" transform="translate(653.292 490)">Local Screenshot <tspan x="36.22" y="23">Upload</tspan></text><rect x="625.5" y="542.5" width="184" height="41" stroke="#2F528F" stroke-width="1.33333" stroke-miterlimit="8" fill="#4472C4"/><text fill="#FFFFFF" font-family="Calibri,Calibri_MSFontService,sans-serif" font-weight="400" font-size="19" transform="translate(659.672 568)">Media Services</text><path d="M0 0 41.741 0 41.741 51.8917 83.4821 51.8917" stroke="#FFFFFF" stroke-width="2" stroke-miterlimit="8" fill="none" fill-rule="evenodd" transform="matrix(1 0 0 -1 809 172.892)"/><path d="M0 0 41.7411 0 41.7411 103.892 83.4821 103.892" stroke="#FFFFFF" stroke-width="2" stroke-miterlimit="8" fill="none" fill-rule="evenodd" transform="matrix(1 0 0 -1 809 172.892)"/><path d="M809 173 851.408 173 851.408 225.217 893.815 225.217" stroke="#FFFFFF" stroke-width="2" stroke-miterlimit="8" fill="none" fill-rule="evenodd"/><path d="M809 173 851.408 173 851.408 277.775 893.815 277.775" stroke="#FFFFFF" stroke-width="2" stroke-miterlimit="8" fill="none" fill-rule="evenodd"/><path d="M809 173 850.741 173 850.741 173.217 892.482 173.217" stroke="#FFFFFF" stroke-width="2" stroke-miterlimit="8" fill="none" fill-rule="evenodd"/><path d="M519 535 571.903 535 571.903 562.262 624.806 562.262" stroke="#FFFFFF" stroke-width="2" stroke-miterlimit="8" fill="none" fill-rule="evenodd"/><path d="M0 0 52.9029 0 52.9029 39.7171 105.806 39.7171" stroke="#FFFFFF" stroke-width="2" stroke-miterlimit="8" fill="none" fill-rule="evenodd" transform="matrix(1 0 0 -1 519 534.717)"/><path d="M809 394 851.408 394 851.408 424.658 893.815 424.658" stroke="#FFFFFF" stroke-width="2" stroke-miterlimit="8" fill="none" fill-rule="evenodd"/><path d="M0 0 42.4077 0 42.4077 26.0082 84.8154 26.0082" stroke="#FFFFFF" stroke-width="2" stroke-miterlimit="8" fill="none" fill-rule="evenodd" transform="matrix(1 0 0 -1 809 394.008)"/></g></svg>