<svg xmlns="http://www.w3.org/2000/svg" xmlns:xlink="http://www.w3.org/1999/xlink" contentStyleType="text/css" data-diagram-type="SEQUENCE" height="359px" preserveAspectRatio="none" style="width:664px;height:359px;" version="1.1" viewBox="0 0 664 359" width="664px" zoomAndPan="magnify"><?plantuml 1.2026.4?><defs/><g><rect fill="none" height="357.5526" style="stroke:#0A9EFD;stroke-width:1;" width="662.7591" x="0" y="0"/><rect fill="#999999" fill-opacity="0.33333" height="346.5526" style="stroke:#0A9EFD;stroke-width:0.5;" width="50.6667" x="16" y="6"/><text fill="#0A9EFD" font-family="sans-serif" font-size="13" font-weight="700" lengthAdjust="spacing" textLength="25.27" x="28.6983" y="19.4951">App</text><rect fill="#999999" fill-opacity="0.33333" height="346.5526" style="stroke:#0A9EFD;stroke-width:0.5;" width="72.4536" x="347.1924" y="6"/><text fill="#0A9EFD" font-family="sans-serif" font-size="13" font-weight="700" lengthAdjust="spacing" textLength="66.4536" x="350.1924" y="19.4951">Video SDK</text><rect fill="#999999" fill-opacity="0.33333" height="346.5526" style="stroke:#0A9EFD;stroke-width:0.5;" width="99.3154" x="558.4437" y="6"/><text fill="#0A9EFD" font-family="sans-serif" font-size="13" font-weight="700" lengthAdjust="spacing" textLength="85.9473" x="561.4437" y="21.7217">Agora SDRTN</text><text fill="#0A9EFD" font-family="sans-serif" font-size="10" font-weight="700" lengthAdjust="spacing" textLength="7.3682" x="647.391" y="16.3809">&#174;</text><rect fill="#0A9EFD" fill-opacity="0.06667" height="174.6924" style="stroke:#0A9EFD;stroke-width:2;" width="629.4347" x="10" y="116.1935"/><g class="participant-lifeline" data-entity-uid="part1" data-qualified-name="APP" data-source-line="4" id="part1-lifeline"><g><title>.size.40...tablet.</title><rect fill="#000000" fill-opacity="0.00000" height="237.6411" width="8" x="37.3333" y="70.2448"/><line style="stroke:#0A9EFD;stroke-width:0.5;stroke-dasharray:5,5;" x1="41" x2="41" y1="70.2448" y2="307.8859"/></g></g><g class="participant-lifeline" data-entity-uid="part2" data-qualified-name="SDK" data-source-line="8" id="part2-lifeline"><g><title>.size.40...layers.</title><rect fill="#000000" fill-opacity="0.00000" height="237.6411" width="8" x="379.4192" y="70.2448"/><line style="stroke:#0A9EFD;stroke-width:0.5;stroke-dasharray:5,5;" x1="383.0859" x2="383.0859" y1="70.2448" y2="307.8859"/></g></g><g class="participant-lifeline" data-entity-uid="part3" data-qualified-name="RTN" data-source-line="12" id="part3-lifeline"><g><title>.size.40...cloud.</title><rect fill="#000000" fill-opacity="0.00000" height="237.6411" width="8" x="604.1014" y="70.2448"/><line style="stroke:#0A9EFD;stroke-width:0.5;stroke-dasharray:5,5;" x1="607.7681" x2="607.7681" y1="70.2448" y2="307.8859"/></g></g><g class="participant participant-head" data-entity-uid="part1" data-qualified-name="APP" data-source-line="4" id="part1-head"><rect fill="none" height="40.6667" rx="2.5" ry="2.5" style="stroke:#0A9EFD;stroke-width:2;" width="42.6667" x="20" y="28.5781"/><path d="M29.1333,35.5781 C28.5333,35.5781 28,36.1115 28,36.7115 L28,61.0781 C28,61.6781 28.5333,62.2115 29.1333,62.2115 L50.1667,62.2115 C50.7667,62.2115 51.3,61.6781 51.3,61.0781 L51.3,36.7115 C51.3,36.1115 50.7667,35.5781 50.1667,35.5781 L29.1333,35.5781 M31.3333,38.9115 L48,38.9115 L48,55.5781 L31.3333,55.5781 L31.3333,38.9115 M39.6667,57.2448 C40.9333,57.2448 41.7667,58.6448 41.1333,59.7448 C40.5,60.8448 38.8667,60.8448 38.2,59.7448 C37.5667,58.6448 38.3667,57.2448 39.6667,57.2448" fill="#0A9EFD"/></g><g class="participant participant-tail" data-entity-uid="part1" data-qualified-name="APP" data-source-line="4" id="part1-tail"><rect fill="none" height="40.6667" rx="2.5" ry="2.5" style="stroke:#0A9EFD;stroke-width:2;" width="42.6667" x="20" y="306.8859"/><path d="M29.1333,313.8859 C28.5333,313.8859 28,314.4192 28,315.0192 L28,339.3859 C28,339.9859 28.5333,340.5192 29.1333,340.5192 L50.1667,340.5192 C50.7667,340.5192 51.3,339.9859 51.3,339.3859 L51.3,315.0192 C51.3,314.4192 50.7667,313.8859 50.1667,313.8859 L29.1333,313.8859 M31.3333,317.2192 L48,317.2192 L48,333.8859 L31.3333,333.8859 L31.3333,317.2192 M39.6667,335.5526 C40.9333,335.5526 41.7667,336.9526 41.1333,338.0526 C40.5,339.1526 38.8667,339.1526 38.2,338.0526 C37.5667,336.9526 38.3667,335.5526 39.6667,335.5526" fill="#0A9EFD"/></g><g class="participant participant-head" data-entity-uid="part2" data-qualified-name="SDK" data-source-line="8" id="part2-head"><rect fill="none" height="40.6667" rx="2.5" ry="2.5" style="stroke:#0A9EFD;stroke-width:2;" width="42.6667" x="362.0859" y="28.5781"/><path d="M370.0859,35.5781 L370.0859,48.9115 L383.4192,48.9115 L383.4192,35.5781 L370.0859,35.5781 M386.7525,42.2448 L386.7525,52.2448 L376.7525,52.2448 L376.7525,55.5781 L390.0859,55.5781 L390.0859,42.2448 L386.7525,42.2448 M393.4192,48.9115 L393.4192,58.9115 L383.4192,58.9115 L383.4192,62.2448 L396.7525,62.2448 L396.7525,48.9115 L393.4192,48.9115" fill="#0A9EFD"/></g><g class="participant participant-tail" data-entity-uid="part2" data-qualified-name="SDK" data-source-line="8" id="part2-tail"><rect fill="none" height="40.6667" rx="2.5" ry="2.5" style="stroke:#0A9EFD;stroke-width:2;" width="42.6667" x="362.0859" y="306.8859"/><path d="M370.0859,313.8859 L370.0859,327.2192 L383.4192,327.2192 L383.4192,313.8859 L370.0859,313.8859 M386.7525,320.5526 L386.7525,330.5526 L376.7525,330.5526 L376.7525,333.8859 L390.0859,333.8859 L390.0859,320.5526 L386.7525,320.5526 M393.4192,327.2192 L393.4192,337.2192 L383.4192,337.2192 L383.4192,340.5526 L396.7525,340.5526 L396.7525,327.2192 L393.4192,327.2192" fill="#0A9EFD"/></g><g class="participant participant-head" data-entity-uid="part3" data-qualified-name="RTN" data-source-line="12" id="part3-head"><rect fill="none" height="40.6667" rx="2.5" ry="2.5" style="stroke:#0A9EFD;stroke-width:2;" width="42.6667" x="586.7681" y="28.5781"/><path d="M609.7681,38.9115 C605.7347,38.9115 602.2014,41.7781 601.4347,45.5781 C597.7681,45.5781 594.7681,48.5781 594.7681,52.2448 C594.7681,55.9115 597.7681,58.9115 601.4347,58.9115 L616.4347,58.9115 C619.2014,58.9115 621.4347,56.6781 621.4347,53.9115 C621.4347,51.7448 620.0347,49.6115 618.1014,48.9115 L618.1014,47.2448 C618.1014,42.6448 614.3681,38.9115 609.7681,38.9115" fill="#0A9EFD"/></g><g class="participant participant-tail" data-entity-uid="part3" data-qualified-name="RTN" data-source-line="12" id="part3-tail"><rect fill="none" height="40.6667" rx="2.5" ry="2.5" style="stroke:#0A9EFD;stroke-width:2;" width="42.6667" x="586.7681" y="306.8859"/><path d="M609.7681,317.2192 C605.7347,317.2192 602.2014,320.0859 601.4347,323.8859 C597.7681,323.8859 594.7681,326.8859 594.7681,330.5526 C594.7681,334.2192 597.7681,337.2192 601.4347,337.2192 L616.4347,337.2192 C619.2014,337.2192 621.4347,334.9859 621.4347,332.2192 C621.4347,330.0526 620.0347,327.9192 618.1014,327.2192 L618.1014,325.5526 C618.1014,320.9526 614.3681,317.2192 609.7681,317.2192" fill="#0A9EFD"/></g><g class="message" data-entity-1="part1" data-entity-2="part2" data-source-line="15" id="msg1"><polygon fill="#0A9EFD" points="371.4192,97.1935,381.4192,101.1935,371.4192,105.1935,375.4192,101.1935" style="stroke:#0A9EFD;stroke-width:1;stroke-linejoin:miter;stroke-miterlimit:10;"/><line style="stroke:#0A9EFD;stroke-width:2;" x1="41.3333" x2="377.4192" y1="101.1935" y2="101.1935"/><text fill="#0A9EFD" font-family="Arial" font-size="13" lengthAdjust="spacing" textLength="205.9688" x="109.3919" y="96.4386">Create an instance of Agora Engine</text></g><path d="M10,116.1935 L190.1226,116.1935 L190.1226,123.1423 L180.1226,133.1423 L10,133.1423 L10,116.1935" fill="#EEEEEE" style="stroke:#0A9EFD;stroke-width:1.5;"/><rect fill="none" height="174.6924" style="stroke:#0A9EFD;stroke-width:2;" width="629.4347" x="10" y="116.1935"/><text fill="#000000" font-family="Arial" font-size="13" lengthAdjust="spacing" textLength="135.1226" x="25" y="129.3874">Process raw video data</text><g class="message" data-entity-1="part1" data-entity-2="part2" data-source-line="18" id="msg2"><polygon fill="#0A9EFD" points="371.4192,150.091,381.4192,154.091,371.4192,158.091,375.4192,154.091" style="stroke:#0A9EFD;stroke-width:1;stroke-linejoin:miter;stroke-miterlimit:10;"/><line style="stroke:#0A9EFD;stroke-width:2;" x1="41.3333" x2="377.4192" y1="154.091" y2="154.091"/><text fill="#0A9EFD" font-family="Arial" font-size="13" lengthAdjust="spacing" textLength="146.6816" x="139.0354" y="149.3361">Create a local video track</text></g><g class="message" data-entity-1="part2" data-entity-2="part1" data-source-line="19" id="msg3"><polygon fill="#0A9EFD" points="52.3333,179.0397,42.3333,183.0397,52.3333,187.0397,48.3333,183.0397" style="stroke:#0A9EFD;stroke-width:1;stroke-linejoin:miter;stroke-miterlimit:10;"/><line style="stroke:#0A9EFD;stroke-width:2;" x1="46.3333" x2="382.4192" y1="183.0397" y2="183.0397"/><text fill="#0A9EFD" font-family="Arial" font-size="13" lengthAdjust="spacing" textLength="97.5508" x="163.6009" y="178.2848">Local video track</text></g><g class="message" data-entity-1="part1" data-entity-2="part1" data-source-line="20" id="msg4"><line style="stroke:#0A9EFD;stroke-width:2;" x1="41.3333" x2="83.3333" y1="211.9884" y2="211.9884"/><line style="stroke:#0A9EFD;stroke-width:2;" x1="83.3333" x2="83.3333" y1="211.9884" y2="224.9884"/><line style="stroke:#0A9EFD;stroke-width:2;" x1="42.3333" x2="83.3333" y1="224.9884" y2="224.9884"/><polygon fill="#0A9EFD" points="52.3333,220.9884,42.3333,224.9884,52.3333,228.9884,48.3333,224.9884" style="stroke:#0A9EFD;stroke-width:1;stroke-linejoin:miter;stroke-miterlimit:10;"/><text fill="#0A9EFD" font-family="Arial" font-size="13" lengthAdjust="spacing" textLength="317.1924" x="48.3333" y="207.2336">Extract and modify raw video frames using Canvas API</text></g><g class="message" data-entity-1="part1" data-entity-2="part2" data-source-line="21" id="msg5"><polygon fill="#0A9EFD" points="371.4192,249.9372,381.4192,253.9372,371.4192,257.9372,375.4192,253.9372" style="stroke:#0A9EFD;stroke-width:1;stroke-linejoin:miter;stroke-miterlimit:10;"/><line style="stroke:#0A9EFD;stroke-width:2;" x1="41.3333" x2="377.4192" y1="253.9372" y2="253.9372"/><text fill="#0A9EFD" font-family="Arial" font-size="13" lengthAdjust="spacing" textLength="234.1333" x="95.3096" y="249.1823">Publish processed frames in the channel</text></g><g class="message" data-entity-1="part2" data-entity-2="part3" data-source-line="22" id="msg6"><polygon fill="#0A9EFD" points="596.1014,278.8859,606.1014,282.8859,596.1014,286.8859,600.1014,282.8859" style="stroke:#0A9EFD;stroke-width:1;stroke-linejoin:miter;stroke-miterlimit:10;"/><line style="stroke:#0A9EFD;stroke-width:2;" x1="383.4192" x2="602.1014" y1="282.8859" y2="282.8859"/><text fill="#0A9EFD" font-family="Arial" font-size="13" lengthAdjust="spacing" textLength="165.4644" x="413.0281" y="278.131">Publish a custom video track</text></g><?plantuml-src TP1DJiD038NtSmgJ1Jj-5gogA59Lka0W505YYzmP9nrruXdDJsav58VWP4oQLAL0LvRizpu_-qopD4aHO6izleMLvakTEYF4mcwWc3fN28S-QgaTSeIY3Fg39ZVNLNaUSM4eLWLWW6bT2s85sJLQNxKY2y-tzwS11hVamm38mb-0QPyezvzU7ikGNFNrMLxrzJHF6flKWCkc0ow7WukgNp61cIUC-Lm6pI4YImBRmB1hpgrc4gBrDZcelPKK0dXyX_Nk68KH_uM1iHBDg8eUvKhaUI_BwWay_9cEaDrqlkbxCKTIq5cbc-sFbOt7ZWAaeBc56V9wz-kxenHrMXWTbk26mAJsBiqGbmHoYSnazf7oQmuU19b2jDrHklmuyGq0?></g></svg>