<?xml version="1.0" encoding="us-ascii" standalone="no"?><svg xmlns="http://www.w3.org/2000/svg" xmlns:xlink="http://www.w3.org/1999/xlink" contentStyleType="text/css" height="605px" preserveAspectRatio="none" style="width:620px;height:605px;" version="1.1" viewBox="0 0 620 605" width="620px" zoomAndPan="magnify"><defs/><g><rect fill="none" height="603.8133" style="stroke:#0A9EFD;stroke-width:1.0;" width="618.3333" x="0" y="0"/><rect fill="#999999" fill-opacity="0.33333" height="593.8133" style="stroke:#0A9EFD;stroke-width:0.5;" width="50.6667" x="16" y="6"/><text fill="#0A9EFD" font-family="sans-serif" font-size="13" font-weight="bold" lengthAdjust="spacing" textLength="25" x="28.8333" y="19.4951">App</text><rect fill="#999999" fill-opacity="0.33333" height="593.8133" style="stroke:#0A9EFD;stroke-width:0.5;" width="74" x="252" y="6"/><text fill="#0A9EFD" font-family="sans-serif" font-size="13" font-weight="bold" lengthAdjust="spacing" textLength="68" x="255" y="19.4951">Video SDK</text><rect fill="#999999" fill-opacity="0.33333" height="593.8133" style="stroke:#0A9EFD;stroke-width:0.5;" width="96" x="518.3333" y="6"/><text fill="#0A9EFD" font-family="sans-serif" font-size="13" font-weight="bold" lengthAdjust="spacing" textLength="90" x="521.3333" y="19.4951">Agora SD-RTN</text><rect fill="#0A9EFD" fill-opacity="0.06667" height="277.436" style="stroke:#0A9EFD;stroke-width:2.0;" width="587.6667" x="10" y="113.967"/><rect fill="#0A9EFD" fill-opacity="0.06667" height="132.7437" style="stroke:#0A9EFD;stroke-width:2.0;" width="587.6667" x="10" y="405.403"/><line style="stroke:#0A9EFD;stroke-width:0.5;stroke-dasharray:5.0,5.0;" x1="41" x2="41" y1="68.0182" y2="555.1466"/><line style="stroke:#0A9EFD;stroke-width:0.5;stroke-dasharray:5.0,5.0;" x1="288.6667" x2="288.6667" y1="68.0182" y2="555.1466"/><line style="stroke:#0A9EFD;stroke-width:0.5;stroke-dasharray:5.0,5.0;" x1="566" x2="566" y1="68.0182" y2="555.1466"/><rect fill="none" height="40.6667" rx="2.5" ry="2.5" style="stroke:#0A9EFD;stroke-width:2.0;" width="42.6667" x="20" y="26.3516"/><path d="M29.1333,33.3516 C28.5333,33.3516 28,33.8849 28,34.4849 L28,58.8516 C28,59.4516 28.5333,59.9849 29.1333,59.9849 L50.1667,59.9849 C50.7667,59.9849 51.3,59.4516 51.3,58.8516 L51.3,34.4849 C51.3,33.8849 50.7667,33.3516 50.1667,33.3516 L29.1333,33.3516 M31.3333,36.6849 L48,36.6849 L48,53.3516 L31.3333,53.3516 L31.3333,36.6849 M39.6667,55.0182 C40.9333,55.0182 41.7667,56.4182 41.1333,57.5182 C40.5,58.6182 38.8667,58.6182 38.2,57.5182 C37.5667,56.4182 38.3667,55.0182 39.6667,55.0182 " fill="#0A9EFD" style="stroke:;stroke-width:0.0;stroke-dasharray:;"/><rect fill="none" height="40.6667" rx="2.5" ry="2.5" style="stroke:#0A9EFD;stroke-width:2.0;" width="42.6667" x="20" y="554.1466"/><path d="M29.1333,561.1466 C28.5333,561.1466 28,561.68 28,562.28 L28,586.6466 C28,587.2466 28.5333,587.78 29.1333,587.78 L50.1667,587.78 C50.7667,587.78 51.3,587.2466 51.3,586.6466 L51.3,562.28 C51.3,561.68 50.7667,561.1466 50.1667,561.1466 L29.1333,561.1466 M31.3333,564.48 L48,564.48 L48,581.1466 L31.3333,581.1466 L31.3333,564.48 M39.6667,582.8133 C40.9333,582.8133 41.7667,584.2133 41.1333,585.3133 C40.5,586.4133 38.8667,586.4133 38.2,585.3133 C37.5667,584.2133 38.3667,582.8133 39.6667,582.8133 " fill="#0A9EFD" style="stroke:;stroke-width:0.0;stroke-dasharray:;"/><rect fill="none" height="40.6667" rx="2.5" ry="2.5" style="stroke:#0A9EFD;stroke-width:2.0;" width="42.6667" x="267.6667" y="26.3516"/><path d="M275.6667,33.3516 L275.6667,46.6849 L289,46.6849 L289,33.3516 L275.6667,33.3516 M292.3333,40.0182 L292.3333,50.0182 L282.3333,50.0182 L282.3333,53.3516 L295.6667,53.3516 L295.6667,40.0182 L292.3333,40.0182 M299,46.6849 L299,56.6849 L289,56.6849 L289,60.0182 L302.3333,60.0182 L302.3333,46.6849 L299,46.6849 " fill="#0A9EFD" style="stroke:;stroke-width:0.0;stroke-dasharray:;"/><rect fill="none" height="40.6667" rx="2.5" ry="2.5" style="stroke:#0A9EFD;stroke-width:2.0;" width="42.6667" x="267.6667" y="554.1466"/><path d="M275.6667,561.1466 L275.6667,574.48 L289,574.48 L289,561.1466 L275.6667,561.1466 M292.3333,567.8133 L292.3333,577.8133 L282.3333,577.8133 L282.3333,581.1466 L295.6667,581.1466 L295.6667,567.8133 L292.3333,567.8133 M299,574.48 L299,584.48 L289,584.48 L289,587.8133 L302.3333,587.8133 L302.3333,574.48 L299,574.48 " fill="#0A9EFD" style="stroke:;stroke-width:0.0;stroke-dasharray:;"/><rect fill="none" height="40.6667" rx="2.5" ry="2.5" style="stroke:#0A9EFD;stroke-width:2.0;" width="42.6667" x="545" y="26.3516"/><path d="M568,33.3516 C563.9667,33.3516 560.4333,36.2182 559.6667,40.0182 C556,40.0182 553,43.0182 553,46.6849 C553,50.3516 556,53.3516 559.6667,53.3516 L574.6667,53.3516 C577.4333,53.3516 579.6667,51.1182 579.6667,48.3516 C579.6667,46.1849 578.2667,44.0516 576.3333,43.3516 L576.3333,41.6849 C576.3333,37.0849 572.6,33.3516 568,33.3516 " fill="#0A9EFD" style="stroke:;stroke-width:0.0;stroke-dasharray:;"/><rect fill="none" height="40.6667" rx="2.5" ry="2.5" style="stroke:#0A9EFD;stroke-width:2.0;" width="42.6667" x="545" y="554.1466"/><path d="M568,561.1466 C563.9667,561.1466 560.4333,564.0133 559.6667,567.8133 C556,567.8133 553,570.8133 553,574.48 C553,578.1466 556,581.1466 559.6667,581.1466 L574.6667,581.1466 C577.4333,581.1466 579.6667,578.9133 579.6667,576.1466 C579.6667,573.98 578.2667,571.8466 576.3333,571.1466 L576.3333,569.48 C576.3333,564.88 572.6,561.1466 568,561.1466 " fill="#0A9EFD" style="stroke:;stroke-width:0.0;stroke-dasharray:;"/><polygon fill="#0A9EFD" points="277,94.967,287,98.967,277,102.967,281,98.967" style="stroke:#0A9EFD;stroke-width:1.0;"/><line style="stroke:#0A9EFD;stroke-width:2.0;" x1="41.3333" x2="283" y1="98.967" y2="98.967"/><text fill="#0A9EFD" font-family="Arial" font-size="13" lengthAdjust="spacing" textLength="205" x="62.6667" y="94.2121">Create an instance of Agora Engine</text><path d="M10,113.967 L191,113.967 L191,120.9157 L181,130.9157 L10,130.9157 L10,113.967 " fill="#EEEEEE" style="stroke:#0A9EFD;stroke-width:1.5;"/><rect fill="none" height="277.436" style="stroke:#0A9EFD;stroke-width:2.0;" width="587.6667" x="10" y="113.967"/><text fill="#000000" font-family="Arial" font-size="13" lengthAdjust="spacing" textLength="136" x="25" y="127.1608">Process raw audio data</text><polygon fill="#0A9EFD" points="277,147.8644,287,151.8644,277,155.8644,281,151.8644" style="stroke:#0A9EFD;stroke-width:1.0;"/><line style="stroke:#0A9EFD;stroke-width:2.0;" x1="41.3333" x2="283" y1="151.8644" y2="151.8644"/><text fill="#0A9EFD" font-family="Arial" font-size="13" lengthAdjust="spacing" textLength="157" x="86.6667" y="147.1095">Register the audio observer</text><polygon fill="#0A9EFD" points="554.3333,176.8132,564.3333,180.8132,554.3333,184.8132,558.3333,180.8132" style="stroke:#0A9EFD;stroke-width:1.0;"/><line style="stroke:#0A9EFD;stroke-width:2.0;" x1="289" x2="560.3333" y1="180.8132" y2="180.8132"/><text fill="#0A9EFD" font-family="Arial" font-size="13" lengthAdjust="spacing" textLength="219" x="318.1667" y="176.0583">Request to register the audio observer</text><polygon fill="#0A9EFD" points="277,205.7619,287,209.7619,277,213.7619,281,209.7619" style="stroke:#0A9EFD;stroke-width:1.0;"/><line style="stroke:#0A9EFD;stroke-width:2.0;" x1="41.3333" x2="283" y1="209.7619" y2="209.7619"/><text fill="#0A9EFD" font-family="Arial" font-size="13" lengthAdjust="spacing" textLength="94" x="118.1667" y="205.007">Join the channel</text><polygon fill="#0A9EFD" points="554.3333,234.7106,564.3333,238.7106,554.3333,242.7106,558.3333,238.7106" style="stroke:#0A9EFD;stroke-width:1.0;"/><line style="stroke:#0A9EFD;stroke-width:2.0;" x1="289" x2="560.3333" y1="238.7106" y2="238.7106"/><text fill="#0A9EFD" font-family="Arial" font-size="13" lengthAdjust="spacing" textLength="136" x="359.6667" y="233.9557">Request to join channel</text><polygon fill="#0A9EFD" points="52.3333,278.6081,42.3333,282.6081,52.3333,286.6081,48.3333,282.6081" style="stroke:#0A9EFD;stroke-width:1.0;"/><line style="stroke:#0A9EFD;stroke-width:2.0;stroke-dasharray:2.0,2.0;" x1="46.3333" x2="288" y1="282.6081" y2="282.6081"/><text fill="#0A9EFD" font-family="Arial" font-size="13" lengthAdjust="spacing" textLength="169" x="80.6667" y="262.9045">Get raw audio data from SDK</text><text fill="#0A9EFD" font-family="Arial" font-size="13" lengthAdjust="spacing" textLength="156" x="89.1667" y="277.8532">through registered callback</text><line style="stroke:#0A9EFD;stroke-width:2.0;" x1="41.3333" x2="83.3333" y1="326.5055" y2="326.5055"/><line style="stroke:#0A9EFD;stroke-width:2.0;" x1="83.3333" x2="83.3333" y1="326.5055" y2="339.5055"/><line style="stroke:#0A9EFD;stroke-width:2.0;" x1="42.3333" x2="83.3333" y1="339.5055" y2="339.5055"/><polygon fill="#0A9EFD" points="52.3333,335.5055,42.3333,339.5055,52.3333,343.5055,48.3333,339.5055" style="stroke:#0A9EFD;stroke-width:1.0;"/><text fill="#0A9EFD" font-family="Arial" font-size="13" lengthAdjust="spacing" textLength="217" x="48.3333" y="306.8019">Process audio data for local playback</text><text fill="#0A9EFD" font-family="Arial" font-size="13" lengthAdjust="spacing" textLength="160" x="78.8333" y="321.7507">or sending back to the SDK</text><polygon fill="#0A9EFD" points="277,379.403,287,383.403,277,387.403,281,383.403" style="stroke:#0A9EFD;stroke-width:1.0;"/><line style="stroke:#0A9EFD;stroke-width:2.0;" x1="41.3333" x2="283" y1="383.403" y2="383.403"/><text fill="#0A9EFD" font-family="Arial" font-size="13" lengthAdjust="spacing" textLength="212" x="59.1667" y="363.6994">Send the processed audio data back</text><text fill="#0A9EFD" font-family="Arial" font-size="13" lengthAdjust="spacing" textLength="178" x="78.1667" y="378.6481">through the registered callback</text><path d="M10,405.403 L159,405.403 L159,412.3517 L149,422.3517 L10,422.3517 L10,405.403 " fill="#EEEEEE" style="stroke:#0A9EFD;stroke-width:1.5;"/><rect fill="none" height="132.7437" style="stroke:#0A9EFD;stroke-width:2.0;" width="587.6667" x="10" y="405.403"/><text fill="#000000" font-family="Arial" font-size="13" lengthAdjust="spacing" textLength="104" x="25" y="418.5968">Leave the channel</text><polygon fill="#0A9EFD" points="277,439.3005,287,443.3005,277,447.3005,281,443.3005" style="stroke:#0A9EFD;stroke-width:1.0;"/><line style="stroke:#0A9EFD;stroke-width:2.0;" x1="41.3333" x2="283" y1="443.3005" y2="443.3005"/><text fill="#0A9EFD" font-family="Arial" font-size="13" lengthAdjust="spacing" textLength="168" x="81.1667" y="438.5456">Unregister the audio observer</text><polygon fill="#0A9EFD" points="277,468.2492,287,472.2492,277,476.2492,281,472.2492" style="stroke:#0A9EFD;stroke-width:1.0;"/><line style="stroke:#0A9EFD;stroke-width:2.0;" x1="41.3333" x2="283" y1="472.2492" y2="472.2492"/><text fill="#0A9EFD" font-family="Arial" font-size="13" lengthAdjust="spacing" textLength="104" x="113.1667" y="467.4943">Leave the channel</text><polygon fill="#0A9EFD" points="554.3333,497.1979,564.3333,501.1979,554.3333,505.1979,558.3333,501.1979" style="stroke:#0A9EFD;stroke-width:1.0;"/><line style="stroke:#0A9EFD;stroke-width:2.0;" x1="289" x2="560.3333" y1="501.1979" y2="501.1979"/><text fill="#0A9EFD" font-family="Arial" font-size="13" lengthAdjust="spacing" textLength="167" x="344.1667" y="496.443">Request to leave the channel</text><polygon fill="#0A9EFD" points="277,526.1466,287,530.1466,277,534.1466,281,530.1466" style="stroke:#0A9EFD;stroke-width:1.0;"/><line style="stroke:#0A9EFD;stroke-width:2.0;" x1="41.3333" x2="283" y1="530.1466" y2="530.1466"/><text fill="#0A9EFD" font-family="Arial" font-size="13" lengthAdjust="spacing" textLength="109" x="110.6667" y="525.3918">Destroy the engine</text><!--SRC=[ZPB1JiCm38RlVGhJ0xSY3focQT8420aGcZRWX8JSrEl2igGawM0yFVQwZcwmYLEbvFENttPFj5McBWYmT1vVmrpRCrqlJ9BaxXFIOLMbIOK-QgKhj17IVj1VrBiu7_HF8-Q6uY05330SZHAo1N3LflHP5-HWSdLtM61mHJuq0WRt14D9nEVP-F7Xi4CPLnUDWhaV1GU2R23Q7bnwmiWjMj0sHBIAm4sXyL_RKbjAajAxkeAHTuf208yVW7MX7HGOSKSsfbA7I1xYZ3QComFv9Vc40U4uY73lDOK8qO4_Kj9LtpfjruoQeRLa3ldUX6iP4VIph37SKDpB3bFl5dBv8cfkifnjyr012et9KStR7FpfRQVGjJWFnZ4D5MzDAjZ7Pu47hcq9SYBH9BsiijlMH9OY5rNZvMSxveshpIRSN_dOqIxfdd19EtFgllPa_plktvu3ypP77xnYohlL-fwQlqd2VWC0]--></g></svg>