<?xml version="1.0" encoding="us-ascii" standalone="no"?><svg xmlns="http://www.w3.org/2000/svg" xmlns:xlink="http://www.w3.org/1999/xlink" contentStyleType="text/css" height="371px" preserveAspectRatio="none" style="width:605px;height:371px;" version="1.1" viewBox="0 0 605 371" width="605px" zoomAndPan="magnify"><defs/><g><rect fill="none" height="369.2747" style="stroke:#0A9EFD;stroke-width:1.0;" width="603.3333" x="0" y="0"/><rect fill="#999999" fill-opacity="0.33333" height="359.2747" style="stroke:#0A9EFD;stroke-width:0.5;" width="50.6667" x="16" y="6"/><text fill="#0A9EFD" font-family="sans-serif" font-size="13" font-weight="bold" lengthAdjust="spacing" textLength="25" x="28.8333" y="19.4951">App</text><rect fill="#999999" fill-opacity="0.33333" height="359.2747" style="stroke:#0A9EFD;stroke-width:0.5;" width="74" x="276" y="6"/><text fill="#0A9EFD" font-family="sans-serif" font-size="13" font-weight="bold" lengthAdjust="spacing" textLength="68" x="279" y="19.4951">Video SDK</text><rect fill="#999999" fill-opacity="0.33333" height="359.2747" style="stroke:#0A9EFD;stroke-width:0.5;" width="96" x="503.3333" y="6"/><text fill="#0A9EFD" font-family="sans-serif" font-size="13" font-weight="bold" lengthAdjust="spacing" textLength="90" x="506.3333" y="19.4951">Agora SD-RTN</text><rect fill="#0A9EFD" fill-opacity="0.06667" height="189.6411" style="stroke:#0A9EFD;stroke-width:2.0;" width="572.6667" x="10" y="113.967"/><line style="stroke:#0A9EFD;stroke-width:0.5;stroke-dasharray:5.0,5.0;" x1="41" x2="41" y1="68.0182" y2="320.6081"/><line style="stroke:#0A9EFD;stroke-width:0.5;stroke-dasharray:5.0,5.0;" x1="312.6667" x2="312.6667" y1="68.0182" y2="320.6081"/><line style="stroke:#0A9EFD;stroke-width:0.5;stroke-dasharray:5.0,5.0;" x1="551" x2="551" y1="68.0182" y2="320.6081"/><rect fill="none" height="40.6667" rx="2.5" ry="2.5" style="stroke:#0A9EFD;stroke-width:2.0;" width="42.6667" x="20" y="26.3516"/><path d="M29.1333,33.3516 C28.5333,33.3516 28,33.8849 28,34.4849 L28,58.8516 C28,59.4516 28.5333,59.9849 29.1333,59.9849 L50.1667,59.9849 C50.7667,59.9849 51.3,59.4516 51.3,58.8516 L51.3,34.4849 C51.3,33.8849 50.7667,33.3516 50.1667,33.3516 L29.1333,33.3516 M31.3333,36.6849 L48,36.6849 L48,53.3516 L31.3333,53.3516 L31.3333,36.6849 M39.6667,55.0182 C40.9333,55.0182 41.7667,56.4182 41.1333,57.5182 C40.5,58.6182 38.8667,58.6182 38.2,57.5182 C37.5667,56.4182 38.3667,55.0182 39.6667,55.0182 " fill="#0A9EFD" style="stroke:;stroke-width:0.0;stroke-dasharray:;"/><rect fill="none" height="40.6667" rx="2.5" ry="2.5" style="stroke:#0A9EFD;stroke-width:2.0;" width="42.6667" x="20" y="319.6081"/><path d="M29.1333,326.6081 C28.5333,326.6081 28,327.1414 28,327.7414 L28,352.1081 C28,352.7081 28.5333,353.2414 29.1333,353.2414 L50.1667,353.2414 C50.7667,353.2414 51.3,352.7081 51.3,352.1081 L51.3,327.7414 C51.3,327.1414 50.7667,326.6081 50.1667,326.6081 L29.1333,326.6081 M31.3333,329.9414 L48,329.9414 L48,346.6081 L31.3333,346.6081 L31.3333,329.9414 M39.6667,348.2747 C40.9333,348.2747 41.7667,349.6747 41.1333,350.7747 C40.5,351.8747 38.8667,351.8747 38.2,350.7747 C37.5667,349.6747 38.3667,348.2747 39.6667,348.2747 " fill="#0A9EFD" style="stroke:;stroke-width:0.0;stroke-dasharray:;"/><rect fill="none" height="40.6667" rx="2.5" ry="2.5" style="stroke:#0A9EFD;stroke-width:2.0;" width="42.6667" x="291.6667" y="26.3516"/><path d="M299.6667,33.3516 L299.6667,46.6849 L313,46.6849 L313,33.3516 L299.6667,33.3516 M316.3333,40.0182 L316.3333,50.0182 L306.3333,50.0182 L306.3333,53.3516 L319.6667,53.3516 L319.6667,40.0182 L316.3333,40.0182 M323,46.6849 L323,56.6849 L313,56.6849 L313,60.0182 L326.3333,60.0182 L326.3333,46.6849 L323,46.6849 " fill="#0A9EFD" style="stroke:;stroke-width:0.0;stroke-dasharray:;"/><rect fill="none" height="40.6667" rx="2.5" ry="2.5" style="stroke:#0A9EFD;stroke-width:2.0;" width="42.6667" x="291.6667" y="319.6081"/><path d="M299.6667,326.6081 L299.6667,339.9414 L313,339.9414 L313,326.6081 L299.6667,326.6081 M316.3333,333.2747 L316.3333,343.2747 L306.3333,343.2747 L306.3333,346.6081 L319.6667,346.6081 L319.6667,333.2747 L316.3333,333.2747 M323,339.9414 L323,349.9414 L313,349.9414 L313,353.2747 L326.3333,353.2747 L326.3333,339.9414 L323,339.9414 " fill="#0A9EFD" style="stroke:;stroke-width:0.0;stroke-dasharray:;"/><rect fill="none" height="40.6667" rx="2.5" ry="2.5" style="stroke:#0A9EFD;stroke-width:2.0;" width="42.6667" x="530" y="26.3516"/><path d="M553,33.3516 C548.9667,33.3516 545.4333,36.2182 544.6667,40.0182 C541,40.0182 538,43.0182 538,46.6849 C538,50.3516 541,53.3516 544.6667,53.3516 L559.6667,53.3516 C562.4333,53.3516 564.6667,51.1182 564.6667,48.3516 C564.6667,46.1849 563.2667,44.0516 561.3333,43.3516 L561.3333,41.6849 C561.3333,37.0849 557.6,33.3516 553,33.3516 " fill="#0A9EFD" style="stroke:;stroke-width:0.0;stroke-dasharray:;"/><rect fill="none" height="40.6667" rx="2.5" ry="2.5" style="stroke:#0A9EFD;stroke-width:2.0;" width="42.6667" x="530" y="319.6081"/><path d="M553,326.6081 C548.9667,326.6081 545.4333,329.4747 544.6667,333.2747 C541,333.2747 538,336.2747 538,339.9414 C538,343.6081 541,346.6081 544.6667,346.6081 L559.6667,346.6081 C562.4333,346.6081 564.6667,344.3747 564.6667,341.6081 C564.6667,339.4414 563.2667,337.3081 561.3333,336.6081 L561.3333,334.9414 C561.3333,330.3414 557.6,326.6081 553,326.6081 " fill="#0A9EFD" style="stroke:;stroke-width:0.0;stroke-dasharray:;"/><polygon fill="#0A9EFD" points="301,94.967,311,98.967,301,102.967,305,98.967" style="stroke:#0A9EFD;stroke-width:1.0;"/><line style="stroke:#0A9EFD;stroke-width:2.0;" x1="41.3333" x2="307" y1="98.967" y2="98.967"/><text fill="#0A9EFD" font-family="Arial" font-size="13" lengthAdjust="spacing" textLength="205" x="74.6667" y="94.2121">Create an instance of Agora Engine</text><path d="M10,113.967 L189,113.967 L189,120.9157 L179,130.9157 L10,130.9157 L10,113.967 " fill="#EEEEEE" style="stroke:#0A9EFD;stroke-width:1.5;"/><rect fill="none" height="189.6411" style="stroke:#0A9EFD;stroke-width:2.0;" width="572.6667" x="10" y="113.967"/><text fill="#000000" font-family="Arial" font-size="13" lengthAdjust="spacing" textLength="134" x="25" y="127.1608">Process raw video data</text><polygon fill="#0A9EFD" points="301,147.8644,311,151.8644,301,155.8644,305,151.8644" style="stroke:#0A9EFD;stroke-width:1.0;"/><line style="stroke:#0A9EFD;stroke-width:2.0;" x1="41.3333" x2="307" y1="151.8644" y2="151.8644"/><text fill="#0A9EFD" font-family="Arial" font-size="13" lengthAdjust="spacing" textLength="146" x="104.1667" y="147.1095">Create a local video track</text><polygon fill="#0A9EFD" points="52.3333,176.8132,42.3333,180.8132,52.3333,184.8132,48.3333,180.8132" style="stroke:#0A9EFD;stroke-width:1.0;"/><line style="stroke:#0A9EFD;stroke-width:2.0;" x1="46.3333" x2="312" y1="180.8132" y2="180.8132"/><text fill="#0A9EFD" font-family="Arial" font-size="13" lengthAdjust="spacing" textLength="97" x="128.6667" y="176.0583">Local video track</text><line style="stroke:#0A9EFD;stroke-width:2.0;" x1="41.3333" x2="83.3333" y1="224.7106" y2="224.7106"/><line style="stroke:#0A9EFD;stroke-width:2.0;" x1="83.3333" x2="83.3333" y1="224.7106" y2="237.7106"/><line style="stroke:#0A9EFD;stroke-width:2.0;" x1="42.3333" x2="83.3333" y1="237.7106" y2="237.7106"/><polygon fill="#0A9EFD" points="52.3333,233.7106,42.3333,237.7106,52.3333,241.7106,48.3333,237.7106" style="stroke:#0A9EFD;stroke-width:1.0;"/><text fill="#0A9EFD" font-family="Arial" font-size="13" lengthAdjust="spacing" textLength="209" x="48.3333" y="205.007">Extract and modify raw video frames</text><text fill="#0A9EFD" font-family="Arial" font-size="13" lengthAdjust="spacing" textLength="124" x="92.8333" y="219.9557">using the Canvas API</text><polygon fill="#0A9EFD" points="301,262.6593,311,266.6593,301,270.6593,305,266.6593" style="stroke:#0A9EFD;stroke-width:1.0;"/><line style="stroke:#0A9EFD;stroke-width:2.0;" x1="41.3333" x2="307" y1="266.6593" y2="266.6593"/><text fill="#0A9EFD" font-family="Arial" font-size="13" lengthAdjust="spacing" textLength="236" x="59.1667" y="261.9045">Publish processed frames to the channel</text><polygon fill="#0A9EFD" points="539.3333,291.6081,549.3333,295.6081,539.3333,299.6081,543.3333,295.6081" style="stroke:#0A9EFD;stroke-width:1.0;"/><line style="stroke:#0A9EFD;stroke-width:2.0;" x1="313" x2="545.3333" y1="295.6081" y2="295.6081"/><text fill="#0A9EFD" font-family="Arial" font-size="13" lengthAdjust="spacing" textLength="180" x="342.1667" y="290.8532">Send video track to other users</text><!--SRC=[TP7DJiCm48JlVeeb1sv573X5LQMgz810AAA84nBQsflKghkERAUqF3th98Zoq-lkpEVPyOLbxJf3W8qF-1QtbgzijtDAhVq1YddR5gh5aAosBNA2OXhj1vKtrxFfPSArepGh02FCgqeH6n3NQ7snXZoiRk_F0nmUASG18C9VW7bE9FF9q_FZUOPslZC3GdJV20a4ard6bh08X4bEPB0S4x8cy3KC_2Ktbacf9lYkXIfuJJ52m7VOzmSOJFWl39pNw4PL2gYtIlPP9keI7lviHqY_NHxoB4aa0pjlR7qyUR8EkAFuoj15omsa3S42UT-tVFSZIzMjdOqRQ8VOP4Ol9D_Rz0QPoNq5au9AMEMAJd9bhHTnaEVaDtA3wXC0]--></g></svg>