<?xml version="1.0" encoding="us-ascii" standalone="no"?><svg xmlns="http://www.w3.org/2000/svg" xmlns:xlink="http://www.w3.org/1999/xlink" contentStyleType="text/css" height="371px" preserveAspectRatio="none" style="width:631px;height:371px;" version="1.1" viewBox="0 0 631 371" width="631px" zoomAndPan="magnify"><defs/><g><rect fill="none" height="369.2747" style="stroke:#0A9EFD;stroke-width:1.0;" width="629.3333" x="0" y="0"/><rect fill="#999999" fill-opacity="0.33333" height="359.2747" style="stroke:#0A9EFD;stroke-width:0.5;" width="50.6667" x="16" y="6"/><text fill="#0A9EFD" font-family="sans-serif" font-size="13" font-weight="bold" lengthAdjust="spacing" textLength="25" x="28.8333" y="19.4951">App</text><rect fill="#999999" fill-opacity="0.33333" height="359.2747" style="stroke:#0A9EFD;stroke-width:0.5;" width="73" x="290" y="6"/><text fill="#0A9EFD" font-family="sans-serif" font-size="13" font-weight="bold" lengthAdjust="spacing" textLength="67" x="293" y="19.4951">Voice SDK</text><rect fill="#999999" fill-opacity="0.33333" height="359.2747" style="stroke:#0A9EFD;stroke-width:0.5;" width="96" x="529.3333" y="6"/><text fill="#0A9EFD" font-family="sans-serif" font-size="13" font-weight="bold" lengthAdjust="spacing" textLength="90" x="532.3333" y="19.4951">Agora SD-RTN</text><rect fill="#0A9EFD" fill-opacity="0.06667" height="189.6411" style="stroke:#0A9EFD;stroke-width:2.0;" width="598.6667" x="10" y="113.967"/><line style="stroke:#0A9EFD;stroke-width:0.5;stroke-dasharray:5.0,5.0;" x1="41" x2="41" y1="68.0182" y2="320.6081"/><line style="stroke:#0A9EFD;stroke-width:0.5;stroke-dasharray:5.0,5.0;" x1="326.1667" x2="326.1667" y1="68.0182" y2="320.6081"/><line style="stroke:#0A9EFD;stroke-width:0.5;stroke-dasharray:5.0,5.0;" x1="577" x2="577" y1="68.0182" y2="320.6081"/><rect fill="none" height="40.6667" rx="2.5" ry="2.5" style="stroke:#0A9EFD;stroke-width:2.0;" width="42.6667" x="20" y="26.3516"/><path d="M29.1333,33.3516 C28.5333,33.3516 28,33.8849 28,34.4849 L28,58.8516 C28,59.4516 28.5333,59.9849 29.1333,59.9849 L50.1667,59.9849 C50.7667,59.9849 51.3,59.4516 51.3,58.8516 L51.3,34.4849 C51.3,33.8849 50.7667,33.3516 50.1667,33.3516 L29.1333,33.3516 M31.3333,36.6849 L48,36.6849 L48,53.3516 L31.3333,53.3516 L31.3333,36.6849 M39.6667,55.0182 C40.9333,55.0182 41.7667,56.4182 41.1333,57.5182 C40.5,58.6182 38.8667,58.6182 38.2,57.5182 C37.5667,56.4182 38.3667,55.0182 39.6667,55.0182 " fill="#0A9EFD" style="stroke:;stroke-width:0.0;stroke-dasharray:;"/><rect fill="none" height="40.6667" rx="2.5" ry="2.5" style="stroke:#0A9EFD;stroke-width:2.0;" width="42.6667" x="20" y="319.6081"/><path d="M29.1333,326.6081 C28.5333,326.6081 28,327.1414 28,327.7414 L28,352.1081 C28,352.7081 28.5333,353.2414 29.1333,353.2414 L50.1667,353.2414 C50.7667,353.2414 51.3,352.7081 51.3,352.1081 L51.3,327.7414 C51.3,327.1414 50.7667,326.6081 50.1667,326.6081 L29.1333,326.6081 M31.3333,329.9414 L48,329.9414 L48,346.6081 L31.3333,346.6081 L31.3333,329.9414 M39.6667,348.2747 C40.9333,348.2747 41.7667,349.6747 41.1333,350.7747 C40.5,351.8747 38.8667,351.8747 38.2,350.7747 C37.5667,349.6747 38.3667,348.2747 39.6667,348.2747 " fill="#0A9EFD" style="stroke:;stroke-width:0.0;stroke-dasharray:;"/><rect fill="none" height="40.6667" rx="2.5" ry="2.5" style="stroke:#0A9EFD;stroke-width:2.0;" width="42.6667" x="305.1667" y="26.3516"/><path d="M313.1667,33.3516 L313.1667,46.6849 L326.5,46.6849 L326.5,33.3516 L313.1667,33.3516 M329.8333,40.0182 L329.8333,50.0182 L319.8333,50.0182 L319.8333,53.3516 L333.1667,53.3516 L333.1667,40.0182 L329.8333,40.0182 M336.5,46.6849 L336.5,56.6849 L326.5,56.6849 L326.5,60.0182 L339.8333,60.0182 L339.8333,46.6849 L336.5,46.6849 " fill="#0A9EFD" style="stroke:;stroke-width:0.0;stroke-dasharray:;"/><rect fill="none" height="40.6667" rx="2.5" ry="2.5" style="stroke:#0A9EFD;stroke-width:2.0;" width="42.6667" x="305.1667" y="319.6081"/><path d="M313.1667,326.6081 L313.1667,339.9414 L326.5,339.9414 L326.5,326.6081 L313.1667,326.6081 M329.8333,333.2747 L329.8333,343.2747 L319.8333,343.2747 L319.8333,346.6081 L333.1667,346.6081 L333.1667,333.2747 L329.8333,333.2747 M336.5,339.9414 L336.5,349.9414 L326.5,349.9414 L326.5,353.2747 L339.8333,353.2747 L339.8333,339.9414 L336.5,339.9414 " fill="#0A9EFD" style="stroke:;stroke-width:0.0;stroke-dasharray:;"/><rect fill="none" height="40.6667" rx="2.5" ry="2.5" style="stroke:#0A9EFD;stroke-width:2.0;" width="42.6667" x="556" y="26.3516"/><path d="M579,33.3516 C574.9667,33.3516 571.4333,36.2182 570.6667,40.0182 C567,40.0182 564,43.0182 564,46.6849 C564,50.3516 567,53.3516 570.6667,53.3516 L585.6667,53.3516 C588.4333,53.3516 590.6667,51.1182 590.6667,48.3516 C590.6667,46.1849 589.2667,44.0516 587.3333,43.3516 L587.3333,41.6849 C587.3333,37.0849 583.6,33.3516 579,33.3516 " fill="#0A9EFD" style="stroke:;stroke-width:0.0;stroke-dasharray:;"/><rect fill="none" height="40.6667" rx="2.5" ry="2.5" style="stroke:#0A9EFD;stroke-width:2.0;" width="42.6667" x="556" y="319.6081"/><path d="M579,326.6081 C574.9667,326.6081 571.4333,329.4747 570.6667,333.2747 C567,333.2747 564,336.2747 564,339.9414 C564,343.6081 567,346.6081 570.6667,346.6081 L585.6667,346.6081 C588.4333,346.6081 590.6667,344.3747 590.6667,341.6081 C590.6667,339.4414 589.2667,337.3081 587.3333,336.6081 L587.3333,334.9414 C587.3333,330.3414 583.6,326.6081 579,326.6081 " fill="#0A9EFD" style="stroke:;stroke-width:0.0;stroke-dasharray:;"/><polygon fill="#0A9EFD" points="314.5,94.967,324.5,98.967,314.5,102.967,318.5,98.967" style="stroke:#0A9EFD;stroke-width:1.0;"/><line style="stroke:#0A9EFD;stroke-width:2.0;" x1="41.3333" x2="320.5" y1="98.967" y2="98.967"/><text fill="#0A9EFD" font-family="Arial" font-size="13" lengthAdjust="spacing" textLength="205" x="81.4167" y="94.2121">Create an instance of Agora Engine</text><path d="M10,113.967 L191,113.967 L191,120.9157 L181,130.9157 L10,130.9157 L10,113.967 " fill="#EEEEEE" style="stroke:#0A9EFD;stroke-width:1.5;"/><rect fill="none" height="189.6411" style="stroke:#0A9EFD;stroke-width:2.0;" width="598.6667" x="10" y="113.967"/><text fill="#000000" font-family="Arial" font-size="13" lengthAdjust="spacing" textLength="136" x="25" y="127.1608">Process raw audio data</text><polygon fill="#0A9EFD" points="314.5,147.8644,324.5,151.8644,314.5,155.8644,318.5,151.8644" style="stroke:#0A9EFD;stroke-width:1.0;"/><line style="stroke:#0A9EFD;stroke-width:2.0;" x1="41.3333" x2="320.5" y1="151.8644" y2="151.8644"/><text fill="#0A9EFD" font-family="Arial" font-size="13" lengthAdjust="spacing" textLength="148" x="109.9167" y="147.1095">Create a local audio track</text><polygon fill="#0A9EFD" points="52.3333,176.8132,42.3333,180.8132,52.3333,184.8132,48.3333,180.8132" style="stroke:#0A9EFD;stroke-width:1.0;"/><line style="stroke:#0A9EFD;stroke-width:2.0;" x1="46.3333" x2="325.5" y1="180.8132" y2="180.8132"/><text fill="#0A9EFD" font-family="Arial" font-size="13" lengthAdjust="spacing" textLength="99" x="134.4167" y="176.0583">Local audio track</text><line style="stroke:#0A9EFD;stroke-width:2.0;" x1="41.3333" x2="83.3333" y1="224.7106" y2="224.7106"/><line style="stroke:#0A9EFD;stroke-width:2.0;" x1="83.3333" x2="83.3333" y1="224.7106" y2="237.7106"/><line style="stroke:#0A9EFD;stroke-width:2.0;" x1="42.3333" x2="83.3333" y1="237.7106" y2="237.7106"/><polygon fill="#0A9EFD" points="52.3333,233.7106,42.3333,237.7106,52.3333,241.7106,48.3333,237.7106" style="stroke:#0A9EFD;stroke-width:1.0;"/><text fill="#0A9EFD" font-family="Arial" font-size="13" lengthAdjust="spacing" textLength="219" x="48.3333" y="205.007">Extract and process raw audio frames</text><text fill="#0A9EFD" font-family="Arial" font-size="13" lengthAdjust="spacing" textLength="124" x="97.8333" y="219.9557">using Web Audio API</text><polygon fill="#0A9EFD" points="314.5,262.6593,324.5,266.6593,314.5,270.6593,318.5,266.6593" style="stroke:#0A9EFD;stroke-width:1.0;"/><line style="stroke:#0A9EFD;stroke-width:2.0;" x1="41.3333" x2="320.5" y1="266.6593" y2="266.6593"/><text fill="#0A9EFD" font-family="Arial" font-size="13" lengthAdjust="spacing" textLength="250" x="58.9167" y="261.9045">Publish the local audio track to the channel</text><polygon fill="#0A9EFD" points="565.3333,291.6081,575.3333,295.6081,565.3333,299.6081,569.3333,295.6081" style="stroke:#0A9EFD;stroke-width:1.0;"/><line style="stroke:#0A9EFD;stroke-width:2.0;" x1="326.5" x2="571.3333" y1="295.6081" y2="295.6081"/><text fill="#0A9EFD" font-family="Arial" font-size="13" lengthAdjust="spacing" textLength="193" x="355.4167" y="290.8532">Send audio stream to other users</text><!--SRC=[TP4zJyCm48Pt_ueZ0riH0rDKHOgW0mAXY29OaD35kQPMtNFa3r7uzPoJ80Ibgz_7ZzyxdndMDdK4s3kFRs5d-CAalLMgTGSewc4er80-6cq6v0Z5CfXFAgykg-LvnDPIh0h007NJAE8EvDPyzTaPJR2-kJijiFX1Fam20Vy8wjn8pXUFJm-d7Tgwr4qAuNuKKWWMLTQMSEq9eup8O3X4PEdbDZ3vLzmR9gLwxz80ZNUQGW2Fxu2fCmuwZFYl3ApJQ6SgUjGx9Nd6X2xX_YYT9MEwEkIpA9Kw68xUt7ZSKtXbIC5m3o_KGZq6TNFxgqkJMcl25kAMZkj0T6EWjyXCzhkTRAc4TTxJn8Oe0-qpx8JsygRyITwZ-W80]--></g></svg>