<?xml version="1.0" encoding="UTF-8" standalone="no"?><svg xmlns="http://www.w3.org/2000/svg" xmlns:xlink="http://www.w3.org/1999/xlink" contentStyleType="text/css" height="355px" preserveAspectRatio="none" style="width:651px;height:355px;" version="1.1" viewBox="0 0 651 355" width="651px" zoomAndPan="magnify"><defs/><g><rect fill="none" height="353.285" style="stroke:#0A9EFD;stroke-width:1.0;" width="649.3333" x="0" y="0"/><rect fill="#999999" fill-opacity="0.33333" height="343.285" style="stroke:#0A9EFD;stroke-width:0.5;" width="50.6667" x="16" y="6"/><text fill="#000000" font-family="sans-serif" font-size="13" font-weight="bold" lengthAdjust="spacing" textLength="28" x="27.3333" y="18.5684">App</text><rect fill="#999999" fill-opacity="0.33333" height="343.285" style="stroke:#0A9EFD;stroke-width:0.5;" width="72" x="303" y="6"/><text fill="#000000" font-family="sans-serif" font-size="13" font-weight="bold" lengthAdjust="spacing" textLength="66" x="306" y="18.5684">Voice SDK</text><rect fill="#999999" fill-opacity="0.33333" height="343.285" style="stroke:#0A9EFD;stroke-width:0.5;" width="104" x="541.3333" y="6"/><text fill="#000000" font-family="sans-serif" font-size="13" font-weight="bold" lengthAdjust="spacing" textLength="98" x="544.3333" y="18.5684">Agora SD-RTN</text><rect fill="#0A9EFD" fill-opacity="0.06667" height="174.6924" style="stroke:#0A9EFD;stroke-width:2.0;" width="614.6667" x="10" y="112.9259"/><line style="stroke:#0A9EFD;stroke-width:0.5;stroke-dasharray:5.0,5.0;" x1="41" x2="41" y1="66.9772" y2="304.6183"/><line style="stroke:#0A9EFD;stroke-width:0.5;stroke-dasharray:5.0,5.0;" x1="338.6667" x2="338.6667" y1="66.9772" y2="304.6183"/><line style="stroke:#0A9EFD;stroke-width:0.5;stroke-dasharray:5.0,5.0;" x1="593" x2="593" y1="66.9772" y2="304.6183"/><rect fill="none" height="40.6667" rx="2.5" ry="2.5" style="stroke:#0A9EFD;stroke-width:2.0;" width="42.6667" x="20" y="25.3105"/><path d="M29.1333,32.3105 C28.5333,32.3105 28,32.8439 28,33.4439 L28,57.8105 C28,58.4105 28.5333,58.9439 29.1333,58.9439 L50.1667,58.9439 C50.7667,58.9439 51.3,58.4105 51.3,57.8105 L51.3,33.4439 C51.3,32.8439 50.7667,32.3105 50.1667,32.3105 L29.1333,32.3105 M31.3333,35.6439 L48,35.6439 L48,52.3105 L31.3333,52.3105 L31.3333,35.6439 M39.6667,53.9772 C40.9333,53.9772 41.7667,55.3772 41.1333,56.4772 C40.5,57.5772 38.8667,57.5772 38.2,56.4772 C37.5667,55.3772 38.3667,53.9772 39.6667,53.9772 " fill="#0A9EFD" style="stroke:;stroke-width:0.0;stroke-dasharray:;"/><rect fill="none" height="40.6667" rx="2.5" ry="2.5" style="stroke:#0A9EFD;stroke-width:2.0;" width="42.6667" x="20" y="303.6183"/><path d="M29.1333,310.6183 C28.5333,310.6183 28,311.1517 28,311.7517 L28,336.1183 C28,336.7183 28.5333,337.2517 29.1333,337.2517 L50.1667,337.2517 C50.7667,337.2517 51.3,336.7183 51.3,336.1183 L51.3,311.7517 C51.3,311.1517 50.7667,310.6183 50.1667,310.6183 L29.1333,310.6183 M31.3333,313.9517 L48,313.9517 L48,330.6183 L31.3333,330.6183 L31.3333,313.9517 M39.6667,332.285 C40.9333,332.285 41.7667,333.685 41.1333,334.785 C40.5,335.885 38.8667,335.885 38.2,334.785 C37.5667,333.685 38.3667,332.285 39.6667,332.285 " fill="#0A9EFD" style="stroke:;stroke-width:0.0;stroke-dasharray:;"/><rect fill="none" height="40.6667" rx="2.5" ry="2.5" style="stroke:#0A9EFD;stroke-width:2.0;" width="42.6667" x="317.6667" y="25.3105"/><path d="M325.6667,32.3105 L325.6667,45.6439 L339,45.6439 L339,32.3105 L325.6667,32.3105 M342.3333,38.9772 L342.3333,48.9772 L332.3333,48.9772 L332.3333,52.3105 L345.6667,52.3105 L345.6667,38.9772 L342.3333,38.9772 M349,45.6439 L349,55.6439 L339,55.6439 L339,58.9772 L352.3333,58.9772 L352.3333,45.6439 L349,45.6439 " fill="#0A9EFD" style="stroke:;stroke-width:0.0;stroke-dasharray:;"/><rect fill="none" height="40.6667" rx="2.5" ry="2.5" style="stroke:#0A9EFD;stroke-width:2.0;" width="42.6667" x="317.6667" y="303.6183"/><path d="M325.6667,310.6183 L325.6667,323.9517 L339,323.9517 L339,310.6183 L325.6667,310.6183 M342.3333,317.285 L342.3333,327.285 L332.3333,327.285 L332.3333,330.6183 L345.6667,330.6183 L345.6667,317.285 L342.3333,317.285 M349,323.9517 L349,333.9517 L339,333.9517 L339,337.285 L352.3333,337.285 L352.3333,323.9517 L349,323.9517 " fill="#0A9EFD" style="stroke:;stroke-width:0.0;stroke-dasharray:;"/><rect fill="none" height="40.6667" rx="2.5" ry="2.5" style="stroke:#0A9EFD;stroke-width:2.0;" width="42.6667" x="572" y="25.3105"/><path d="M595,32.3105 C590.9667,32.3105 587.4333,35.1772 586.6667,38.9772 C583,38.9772 580,41.9772 580,45.6439 C580,49.3105 583,52.3105 586.6667,52.3105 L601.6667,52.3105 C604.4333,52.3105 606.6667,50.0772 606.6667,47.3105 C606.6667,45.1439 605.2667,43.0105 603.3333,42.3105 L603.3333,40.6439 C603.3333,36.0439 599.6,32.3105 595,32.3105 " fill="#0A9EFD" style="stroke:;stroke-width:0.0;stroke-dasharray:;"/><rect fill="none" height="40.6667" rx="2.5" ry="2.5" style="stroke:#0A9EFD;stroke-width:2.0;" width="42.6667" x="572" y="303.6183"/><path d="M595,310.6183 C590.9667,310.6183 587.4333,313.485 586.6667,317.285 C583,317.285 580,320.285 580,323.9517 C580,327.6183 583,330.6183 586.6667,330.6183 L601.6667,330.6183 C604.4333,330.6183 606.6667,328.385 606.6667,325.6183 C606.6667,323.4517 605.2667,321.3183 603.3333,320.6183 L603.3333,318.9517 C603.3333,314.3517 599.6,310.6183 595,310.6183 " fill="#0A9EFD" style="stroke:;stroke-width:0.0;stroke-dasharray:;"/><polygon fill="#0A9EFD" points="327,93.9259,337,97.9259,327,101.9259,331,97.9259" style="stroke:#0A9EFD;stroke-width:1.0;"/><line style="stroke:#0A9EFD;stroke-width:2.0;" x1="41.3333" x2="333" y1="97.9259" y2="97.9259"/><text fill="#0A9EFD" font-family="Arial" font-size="13" lengthAdjust="spacing" textLength="206" x="87.1667" y="93.1711">Create an instance of Agora Engine</text><path d="M10,112.9259 L191,112.9259 L191,119.8747 L181,129.8747 L10,129.8747 L10,112.9259 " fill="#EEEEEE" style="stroke:#0A9EFD;stroke-width:1.5;"/><rect fill="none" height="174.6924" style="stroke:#0A9EFD;stroke-width:2.0;" width="614.6667" x="10" y="112.9259"/><text fill="#000000" font-family="Arial" font-size="13" lengthAdjust="spacing" textLength="136" x="25" y="126.1198">Process raw audio data</text><polygon fill="#0A9EFD" points="327,146.8234,337,150.8234,327,154.8234,331,150.8234" style="stroke:#0A9EFD;stroke-width:1.0;"/><line style="stroke:#0A9EFD;stroke-width:2.0;" x1="41.3333" x2="333" y1="150.8234" y2="150.8234"/><text fill="#0A9EFD" font-family="Arial" font-size="13" lengthAdjust="spacing" textLength="148" x="116.1667" y="146.0685">Create a local audio track</text><polygon fill="#0A9EFD" points="52.3333,175.7721,42.3333,179.7721,52.3333,183.7721,48.3333,179.7721" style="stroke:#0A9EFD;stroke-width:1.0;"/><line style="stroke:#0A9EFD;stroke-width:2.0;" x1="46.3333" x2="338" y1="179.7721" y2="179.7721"/><text fill="#0A9EFD" font-family="Arial" font-size="13" lengthAdjust="spacing" textLength="99" x="140.6667" y="175.0173">Local audio track</text><line style="stroke:#0A9EFD;stroke-width:2.0;" x1="41.3333" x2="83.3333" y1="208.7209" y2="208.7209"/><line style="stroke:#0A9EFD;stroke-width:2.0;" x1="83.3333" x2="83.3333" y1="208.7209" y2="221.7209"/><line style="stroke:#0A9EFD;stroke-width:2.0;" x1="42.3333" x2="83.3333" y1="221.7209" y2="221.7209"/><polygon fill="#0A9EFD" points="52.3333,217.7209,42.3333,221.7209,52.3333,225.7209,48.3333,221.7209" style="stroke:#0A9EFD;stroke-width:1.0;"/><text fill="#0A9EFD" font-family="Arial" font-size="13" lengthAdjust="spacing" textLength="273" x="48.3333" y="203.966">Extract raw audio frames using Web Audio API</text><polygon fill="#0A9EFD" points="327,246.6696,337,250.6696,327,254.6696,331,250.6696" style="stroke:#0A9EFD;stroke-width:1.0;"/><line style="stroke:#0A9EFD;stroke-width:2.0;" x1="41.3333" x2="333" y1="250.6696" y2="250.6696"/><text fill="#0A9EFD" font-family="Arial" font-size="13" lengthAdjust="spacing" textLength="249" x="65.6667" y="245.9147">Publish the local audio track in the channel</text><polygon fill="#0A9EFD" points="581.3333,275.6183,591.3333,279.6183,581.3333,283.6183,585.3333,279.6183" style="stroke:#0A9EFD;stroke-width:1.0;"/><line style="stroke:#0A9EFD;stroke-width:2.0;" x1="339" x2="587.3333" y1="279.6183" y2="279.6183"/><text fill="#0A9EFD" font-family="Arial" font-size="13" lengthAdjust="spacing" textLength="193" x="369.6667" y="274.8634">Send audio stream to other users</text><!--SRC=[TP7BJiD034NtynKc2tP5B5X5LQG8ka0W5544I-HCt6JKYIUQXoXyFSu3yIZT-buVNzjdXhLD3G6spkDhs1k-CActIjNk05av39aQq4UZpO0S8Li7yq7vrMMnFezOMuf51XYWh2f5t81qBQtFpcY2xStTQO35T_9X1eZn3w0S4qbzzVZqS9gXhKlDZ13VDq82mQeOiJbSUy8eAp8O3X5PShaTpFmDjuP9gTQxD43bdQOGmECRO6gCWmOZ_Wi3wpJQnHKzwhqIVRI9EuVx8tM1JEhcCDRYZpaxZpq5IC5m2ozKGpcLo-hsr_GgrTQ43c97nm5alKdG7JAJ_SeZTybXErvczeOeA_GG7JXnUvafNnWlfpu1]--></g></svg>