<?xml version="1.0" encoding="UTF-8" standalone="no"?><svg xmlns="http://www.w3.org/2000/svg" xmlns:xlink="http://www.w3.org/1999/xlink" contentStyleType="text/css" height="355px" preserveAspectRatio="none" style="width:678px;height:355px;" version="1.1" viewBox="0 0 678 355" width="678px" zoomAndPan="magnify"><defs/><g><rect fill="none" height="353.285" style="stroke:#0A9EFD;stroke-width:1.0;" width="676.3333" x="0" y="0"/><rect fill="#999999" fill-opacity="0.33333" height="343.285" style="stroke:#0A9EFD;stroke-width:0.5;" width="50.6667" x="16" y="6"/><text fill="#000000" font-family="sans-serif" font-size="13" font-weight="bold" lengthAdjust="spacing" textLength="28" x="27.3333" y="18.5684">App</text><rect fill="#999999" fill-opacity="0.33333" height="343.285" style="stroke:#0A9EFD;stroke-width:0.5;" width="74" x="352" y="6"/><text fill="#000000" font-family="sans-serif" font-size="13" font-weight="bold" lengthAdjust="spacing" textLength="68" x="355" y="18.5684">Video SDK</text><rect fill="#999999" fill-opacity="0.33333" height="343.285" style="stroke:#0A9EFD;stroke-width:0.5;" width="104" x="568.3333" y="6"/><text fill="#000000" font-family="sans-serif" font-size="13" font-weight="bold" lengthAdjust="spacing" textLength="98" x="571.3333" y="18.5684">Agora SD-RTN</text><rect fill="#0A9EFD" fill-opacity="0.06667" height="174.6924" style="stroke:#0A9EFD;stroke-width:2.0;" width="641.6667" x="10" y="112.9259"/><line style="stroke:#0A9EFD;stroke-width:0.5;stroke-dasharray:5.0,5.0;" x1="41" x2="41" y1="66.9772" y2="304.6183"/><line style="stroke:#0A9EFD;stroke-width:0.5;stroke-dasharray:5.0,5.0;" x1="388.6667" x2="388.6667" y1="66.9772" y2="304.6183"/><line style="stroke:#0A9EFD;stroke-width:0.5;stroke-dasharray:5.0,5.0;" x1="620" x2="620" y1="66.9772" y2="304.6183"/><rect fill="none" height="40.6667" rx="2.5" ry="2.5" style="stroke:#0A9EFD;stroke-width:2.0;" width="42.6667" x="20" y="25.3105"/><path d="M29.1333,32.3105 C28.5333,32.3105 28,32.8439 28,33.4439 L28,57.8105 C28,58.4105 28.5333,58.9439 29.1333,58.9439 L50.1667,58.9439 C50.7667,58.9439 51.3,58.4105 51.3,57.8105 L51.3,33.4439 C51.3,32.8439 50.7667,32.3105 50.1667,32.3105 L29.1333,32.3105 M31.3333,35.6439 L48,35.6439 L48,52.3105 L31.3333,52.3105 L31.3333,35.6439 M39.6667,53.9772 C40.9333,53.9772 41.7667,55.3772 41.1333,56.4772 C40.5,57.5772 38.8667,57.5772 38.2,56.4772 C37.5667,55.3772 38.3667,53.9772 39.6667,53.9772 " fill="#0A9EFD" style="stroke:;stroke-width:0.0;stroke-dasharray:;"/><rect fill="none" height="40.6667" rx="2.5" ry="2.5" style="stroke:#0A9EFD;stroke-width:2.0;" width="42.6667" x="20" y="303.6183"/><path d="M29.1333,310.6183 C28.5333,310.6183 28,311.1517 28,311.7517 L28,336.1183 C28,336.7183 28.5333,337.2517 29.1333,337.2517 L50.1667,337.2517 C50.7667,337.2517 51.3,336.7183 51.3,336.1183 L51.3,311.7517 C51.3,311.1517 50.7667,310.6183 50.1667,310.6183 L29.1333,310.6183 M31.3333,313.9517 L48,313.9517 L48,330.6183 L31.3333,330.6183 L31.3333,313.9517 M39.6667,332.285 C40.9333,332.285 41.7667,333.685 41.1333,334.785 C40.5,335.885 38.8667,335.885 38.2,334.785 C37.5667,333.685 38.3667,332.285 39.6667,332.285 " fill="#0A9EFD" style="stroke:;stroke-width:0.0;stroke-dasharray:;"/><rect fill="none" height="40.6667" rx="2.5" ry="2.5" style="stroke:#0A9EFD;stroke-width:2.0;" width="42.6667" x="367.6667" y="25.3105"/><path d="M375.6667,32.3105 L375.6667,45.6439 L389,45.6439 L389,32.3105 L375.6667,32.3105 M392.3333,38.9772 L392.3333,48.9772 L382.3333,48.9772 L382.3333,52.3105 L395.6667,52.3105 L395.6667,38.9772 L392.3333,38.9772 M399,45.6439 L399,55.6439 L389,55.6439 L389,58.9772 L402.3333,58.9772 L402.3333,45.6439 L399,45.6439 " fill="#0A9EFD" style="stroke:;stroke-width:0.0;stroke-dasharray:;"/><rect fill="none" height="40.6667" rx="2.5" ry="2.5" style="stroke:#0A9EFD;stroke-width:2.0;" width="42.6667" x="367.6667" y="303.6183"/><path d="M375.6667,310.6183 L375.6667,323.9517 L389,323.9517 L389,310.6183 L375.6667,310.6183 M392.3333,317.285 L392.3333,327.285 L382.3333,327.285 L382.3333,330.6183 L395.6667,330.6183 L395.6667,317.285 L392.3333,317.285 M399,323.9517 L399,333.9517 L389,333.9517 L389,337.285 L402.3333,337.285 L402.3333,323.9517 L399,323.9517 " fill="#0A9EFD" style="stroke:;stroke-width:0.0;stroke-dasharray:;"/><rect fill="none" height="40.6667" rx="2.5" ry="2.5" style="stroke:#0A9EFD;stroke-width:2.0;" width="42.6667" x="599" y="25.3105"/><path d="M622,32.3105 C617.9667,32.3105 614.4333,35.1772 613.6667,38.9772 C610,38.9772 607,41.9772 607,45.6439 C607,49.3105 610,52.3105 613.6667,52.3105 L628.6667,52.3105 C631.4333,52.3105 633.6667,50.0772 633.6667,47.3105 C633.6667,45.1439 632.2667,43.0105 630.3333,42.3105 L630.3333,40.6439 C630.3333,36.0439 626.6,32.3105 622,32.3105 " fill="#0A9EFD" style="stroke:;stroke-width:0.0;stroke-dasharray:;"/><rect fill="none" height="40.6667" rx="2.5" ry="2.5" style="stroke:#0A9EFD;stroke-width:2.0;" width="42.6667" x="599" y="303.6183"/><path d="M622,310.6183 C617.9667,310.6183 614.4333,313.485 613.6667,317.285 C610,317.285 607,320.285 607,323.9517 C607,327.6183 610,330.6183 613.6667,330.6183 L628.6667,330.6183 C631.4333,330.6183 633.6667,328.385 633.6667,325.6183 C633.6667,323.4517 632.2667,321.3183 630.3333,320.6183 L630.3333,318.9517 C630.3333,314.3517 626.6,310.6183 622,310.6183 " fill="#0A9EFD" style="stroke:;stroke-width:0.0;stroke-dasharray:;"/><polygon fill="#0A9EFD" points="377,93.9259,387,97.9259,377,101.9259,381,97.9259" style="stroke:#0A9EFD;stroke-width:1.0;"/><line style="stroke:#0A9EFD;stroke-width:2.0;" x1="41.3333" x2="383" y1="97.9259" y2="97.9259"/><text fill="#0A9EFD" font-family="Arial" font-size="13" lengthAdjust="spacing" textLength="206" x="112.1667" y="93.1711">Create an instance of Agora Engine</text><path d="M10,112.9259 L191,112.9259 L191,119.8747 L181,129.8747 L10,129.8747 L10,112.9259 " fill="#EEEEEE" style="stroke:#0A9EFD;stroke-width:1.5;"/><rect fill="none" height="174.6924" style="stroke:#0A9EFD;stroke-width:2.0;" width="641.6667" x="10" y="112.9259"/><text fill="#000000" font-family="Arial" font-size="13" lengthAdjust="spacing" textLength="136" x="25" y="126.1198">Process raw video data</text><polygon fill="#0A9EFD" points="377,146.8234,387,150.8234,377,154.8234,381,150.8234" style="stroke:#0A9EFD;stroke-width:1.0;"/><line style="stroke:#0A9EFD;stroke-width:2.0;" x1="41.3333" x2="383" y1="150.8234" y2="150.8234"/><text fill="#0A9EFD" font-family="Arial" font-size="13" lengthAdjust="spacing" textLength="148" x="141.1667" y="146.0685">Create a local video track</text><polygon fill="#0A9EFD" points="52.3333,175.7721,42.3333,179.7721,52.3333,183.7721,48.3333,179.7721" style="stroke:#0A9EFD;stroke-width:1.0;"/><line style="stroke:#0A9EFD;stroke-width:2.0;" x1="46.3333" x2="388" y1="179.7721" y2="179.7721"/><text fill="#0A9EFD" font-family="Arial" font-size="13" lengthAdjust="spacing" textLength="99" x="165.6667" y="175.0173">Local video track</text><line style="stroke:#0A9EFD;stroke-width:2.0;" x1="41.3333" x2="83.3333" y1="208.7209" y2="208.7209"/><line style="stroke:#0A9EFD;stroke-width:2.0;" x1="83.3333" x2="83.3333" y1="208.7209" y2="221.7209"/><line style="stroke:#0A9EFD;stroke-width:2.0;" x1="42.3333" x2="83.3333" y1="221.7209" y2="221.7209"/><polygon fill="#0A9EFD" points="52.3333,217.7209,42.3333,221.7209,52.3333,225.7209,48.3333,221.7209" style="stroke:#0A9EFD;stroke-width:1.0;"/><text fill="#0A9EFD" font-family="Arial" font-size="13" lengthAdjust="spacing" textLength="322" x="48.3333" y="203.966">Extract and modify raw video frames using Canvas API</text><polygon fill="#0A9EFD" points="377,246.6696,387,250.6696,377,254.6696,381,250.6696" style="stroke:#0A9EFD;stroke-width:1.0;"/><line style="stroke:#0A9EFD;stroke-width:2.0;" x1="41.3333" x2="383" y1="250.6696" y2="250.6696"/><text fill="#0A9EFD" font-family="Arial" font-size="13" lengthAdjust="spacing" textLength="236" x="97.1667" y="245.9147">Publish processed frames in the channel</text><polygon fill="#0A9EFD" points="608.3333,275.6183,618.3333,279.6183,608.3333,283.6183,612.3333,279.6183" style="stroke:#0A9EFD;stroke-width:1.0;"/><line style="stroke:#0A9EFD;stroke-width:2.0;" x1="389" x2="614.3333" y1="279.6183" y2="279.6183"/><text fill="#0A9EFD" font-family="Arial" font-size="13" lengthAdjust="spacing" textLength="169" x="420.1667" y="274.8634">Publish a custom video track</text><!--SRC=[TP1DJyCm38Rl-HMc1sv373XDKwLfx810g0B45Rc9rrfBdIeVO-FNawwRne1Tu_TzyjXNBDecGu2Dy_WHrYmtd3ghLEssKCpxlb0z-iYQUvG8nIpm5qtlRilPTSJQKYmBm03pgb8a1dBhK7rdGmvUxnyl0opko8SHa8E_0FF1ABzFNjwUBpEqTScCY9mx8R8GJCe1EuM59unvHG6M454qWLl1o5zAmq9ADTwb7YhlD8K07ZzXir_0OCH_OM2THdj8HOzwhV9yYENq59x-J0-G_NIv7TvYLZBGESEhtOylLnux2f02ImCBbCt-lWzd5bMgBOSM-b6OpB750h4bq2sAa3qgvTESEWWwXUYwCxjyEFKD]--></g></svg>