<?xml version="1.0" encoding="us-ascii" standalone="no"?><svg xmlns="http://www.w3.org/2000/svg" xmlns:xlink="http://www.w3.org/1999/xlink" contentStyleType="text/css" height="370px" preserveAspectRatio="none" style="width:641px;height:370px;" version="1.1" viewBox="0 0 641 370" width="641px" zoomAndPan="magnify"><defs/><g><rect fill="none" height="368.2337" style="stroke:#0A9EFD;stroke-width:1.0;" width="639.3333" x="0" y="0"/><rect fill="#999999" fill-opacity="0.33333" height="358.2337" style="stroke:#0A9EFD;stroke-width:0.5;" width="50.6667" x="16" y="6"/><text fill="#0A9EFD" font-family="sans-serif" font-size="13" font-weight="bold" lengthAdjust="spacing" textLength="28" x="27.3333" y="18.5684">App</text><rect fill="#999999" fill-opacity="0.33333" height="358.2337" style="stroke:#0A9EFD;stroke-width:0.5;" width="72" x="290" y="6"/><text fill="#0A9EFD" font-family="sans-serif" font-size="13" font-weight="bold" lengthAdjust="spacing" textLength="66" x="293" y="18.5684">Voice SDK</text><rect fill="#999999" fill-opacity="0.33333" height="358.2337" style="stroke:#0A9EFD;stroke-width:0.5;" width="107" x="528.3333" y="6"/><text fill="#0A9EFD" font-family="sans-serif" font-size="13" font-weight="bold" lengthAdjust="spacing" textLength="101" x="531.3333" y="18.5684">Agora SDRTN&#174;</text><rect fill="#0A9EFD" fill-opacity="0.06667" height="189.6411" style="stroke:#0A9EFD;stroke-width:2.0;" width="603.1667" x="10" y="112.9259"/><line style="stroke:#0A9EFD;stroke-width:0.5;stroke-dasharray:5.0,5.0;" x1="41" x2="41" y1="66.9772" y2="319.5671"/><line style="stroke:#0A9EFD;stroke-width:0.5;stroke-dasharray:5.0,5.0;" x1="325.6667" x2="325.6667" y1="66.9772" y2="319.5671"/><line style="stroke:#0A9EFD;stroke-width:0.5;stroke-dasharray:5.0,5.0;" x1="581.5" x2="581.5" y1="66.9772" y2="319.5671"/><rect fill="none" height="40.6667" rx="2.5" ry="2.5" style="stroke:#0A9EFD;stroke-width:2.0;" width="42.6667" x="20" y="25.3105"/><path d="M29.1333,32.3105 C28.5333,32.3105 28,32.8439 28,33.4439 L28,57.8105 C28,58.4105 28.5333,58.9439 29.1333,58.9439 L50.1667,58.9439 C50.7667,58.9439 51.3,58.4105 51.3,57.8105 L51.3,33.4439 C51.3,32.8439 50.7667,32.3105 50.1667,32.3105 L29.1333,32.3105 M31.3333,35.6439 L48,35.6439 L48,52.3105 L31.3333,52.3105 L31.3333,35.6439 M39.6667,53.9772 C40.9333,53.9772 41.7667,55.3772 41.1333,56.4772 C40.5,57.5772 38.8667,57.5772 38.2,56.4772 C37.5667,55.3772 38.3667,53.9772 39.6667,53.9772 " fill="#0A9EFD" style="stroke:;stroke-width:0.0;stroke-dasharray:;"/><rect fill="none" height="40.6667" rx="2.5" ry="2.5" style="stroke:#0A9EFD;stroke-width:2.0;" width="42.6667" x="20" y="318.5671"/><path d="M29.1333,325.5671 C28.5333,325.5671 28,326.1004 28,326.7004 L28,351.0671 C28,351.6671 28.5333,352.2004 29.1333,352.2004 L50.1667,352.2004 C50.7667,352.2004 51.3,351.6671 51.3,351.0671 L51.3,326.7004 C51.3,326.1004 50.7667,325.5671 50.1667,325.5671 L29.1333,325.5671 M31.3333,328.9004 L48,328.9004 L48,345.5671 L31.3333,345.5671 L31.3333,328.9004 M39.6667,347.2337 C40.9333,347.2337 41.7667,348.6337 41.1333,349.7337 C40.5,350.8337 38.8667,350.8337 38.2,349.7337 C37.5667,348.6337 38.3667,347.2337 39.6667,347.2337 " fill="#0A9EFD" style="stroke:;stroke-width:0.0;stroke-dasharray:;"/><rect fill="none" height="40.6667" rx="2.5" ry="2.5" style="stroke:#0A9EFD;stroke-width:2.0;" width="42.6667" x="304.6667" y="25.3105"/><path d="M312.6667,32.3105 L312.6667,45.6439 L326,45.6439 L326,32.3105 L312.6667,32.3105 M329.3333,38.9772 L329.3333,48.9772 L319.3333,48.9772 L319.3333,52.3105 L332.6667,52.3105 L332.6667,38.9772 L329.3333,38.9772 M336,45.6439 L336,55.6439 L326,55.6439 L326,58.9772 L339.3333,58.9772 L339.3333,45.6439 L336,45.6439 " fill="#0A9EFD" style="stroke:;stroke-width:0.0;stroke-dasharray:;"/><rect fill="none" height="40.6667" rx="2.5" ry="2.5" style="stroke:#0A9EFD;stroke-width:2.0;" width="42.6667" x="304.6667" y="318.5671"/><path d="M312.6667,325.5671 L312.6667,338.9004 L326,338.9004 L326,325.5671 L312.6667,325.5671 M329.3333,332.2337 L329.3333,342.2337 L319.3333,342.2337 L319.3333,345.5671 L332.6667,345.5671 L332.6667,332.2337 L329.3333,332.2337 M336,338.9004 L336,348.9004 L326,348.9004 L326,352.2337 L339.3333,352.2337 L339.3333,338.9004 L336,338.9004 " fill="#0A9EFD" style="stroke:;stroke-width:0.0;stroke-dasharray:;"/><rect fill="none" height="40.6667" rx="2.5" ry="2.5" style="stroke:#0A9EFD;stroke-width:2.0;" width="42.6667" x="560.5" y="25.3105"/><path d="M583.5,32.3105 C579.4667,32.3105 575.9333,35.1772 575.1667,38.9772 C571.5,38.9772 568.5,41.9772 568.5,45.6439 C568.5,49.3105 571.5,52.3105 575.1667,52.3105 L590.1667,52.3105 C592.9333,52.3105 595.1667,50.0772 595.1667,47.3105 C595.1667,45.1439 593.7667,43.0105 591.8333,42.3105 L591.8333,40.6439 C591.8333,36.0439 588.1,32.3105 583.5,32.3105 " fill="#0A9EFD" style="stroke:;stroke-width:0.0;stroke-dasharray:;"/><rect fill="none" height="40.6667" rx="2.5" ry="2.5" style="stroke:#0A9EFD;stroke-width:2.0;" width="42.6667" x="560.5" y="318.5671"/><path d="M583.5,325.5671 C579.4667,325.5671 575.9333,328.4337 575.1667,332.2337 C571.5,332.2337 568.5,335.2337 568.5,338.9004 C568.5,342.5671 571.5,345.5671 575.1667,345.5671 L590.1667,345.5671 C592.9333,345.5671 595.1667,343.3337 595.1667,340.5671 C595.1667,338.4004 593.7667,336.2671 591.8333,335.5671 L591.8333,333.9004 C591.8333,329.3004 588.1,325.5671 583.5,325.5671 " fill="#0A9EFD" style="stroke:;stroke-width:0.0;stroke-dasharray:;"/><polygon fill="#0A9EFD" points="314,93.9259,324,97.9259,314,101.9259,318,97.9259" style="stroke:#0A9EFD;stroke-width:1.0;"/><line style="stroke:#0A9EFD;stroke-width:2.0;" x1="41.3333" x2="320" y1="97.9259" y2="97.9259"/><text fill="#0A9EFD" font-family="Arial" font-size="13" lengthAdjust="spacing" textLength="206" x="80.6667" y="93.1711">Create an instance of Agora Engine</text><path d="M10,112.9259 L191,112.9259 L191,119.8747 L181,129.8747 L10,129.8747 L10,112.9259 " fill="#EEEEEE" style="stroke:#0A9EFD;stroke-width:1.5;"/><rect fill="none" height="189.6411" style="stroke:#0A9EFD;stroke-width:2.0;" width="603.1667" x="10" y="112.9259"/><text fill="#000000" font-family="Arial" font-size="13" lengthAdjust="spacing" textLength="136" x="25" y="126.1198">Process raw audio data</text><polygon fill="#0A9EFD" points="314,146.8234,324,150.8234,314,154.8234,318,150.8234" style="stroke:#0A9EFD;stroke-width:1.0;"/><line style="stroke:#0A9EFD;stroke-width:2.0;" x1="41.3333" x2="320" y1="150.8234" y2="150.8234"/><text fill="#0A9EFD" font-family="Arial" font-size="13" lengthAdjust="spacing" textLength="148" x="109.6667" y="146.0685">Create a local audio track</text><polygon fill="#0A9EFD" points="52.3333,175.7721,42.3333,179.7721,52.3333,183.7721,48.3333,179.7721" style="stroke:#0A9EFD;stroke-width:1.0;"/><line style="stroke:#0A9EFD;stroke-width:2.0;" x1="46.3333" x2="325" y1="179.7721" y2="179.7721"/><text fill="#0A9EFD" font-family="Arial" font-size="13" lengthAdjust="spacing" textLength="99" x="134.1667" y="175.0173">Local audio track</text><line style="stroke:#0A9EFD;stroke-width:2.0;" x1="41.3333" x2="83.3333" y1="223.6696" y2="223.6696"/><line style="stroke:#0A9EFD;stroke-width:2.0;" x1="83.3333" x2="83.3333" y1="223.6696" y2="236.6696"/><line style="stroke:#0A9EFD;stroke-width:2.0;" x1="42.3333" x2="83.3333" y1="236.6696" y2="236.6696"/><polygon fill="#0A9EFD" points="52.3333,232.6696,42.3333,236.6696,52.3333,240.6696,48.3333,236.6696" style="stroke:#0A9EFD;stroke-width:1.0;"/><text fill="#0A9EFD" font-family="Arial" font-size="13" lengthAdjust="spacing" textLength="220" x="48.3333" y="203.966">Extract and process raw audio frames</text><text fill="#0A9EFD" font-family="Arial" font-size="13" lengthAdjust="spacing" textLength="124" x="98.3333" y="218.9147">using Web Audio API</text><polygon fill="#0A9EFD" points="314,261.6183,324,265.6183,314,269.6183,318,265.6183" style="stroke:#0A9EFD;stroke-width:1.0;"/><line style="stroke:#0A9EFD;stroke-width:2.0;" x1="41.3333" x2="320" y1="265.6183" y2="265.6183"/><text fill="#0A9EFD" font-family="Arial" font-size="13" lengthAdjust="spacing" textLength="250" x="58.6667" y="260.8634">Publish the local audio track to the channel</text><polygon fill="#0A9EFD" points="569.8333,290.5671,579.8333,294.5671,569.8333,298.5671,573.8333,294.5671" style="stroke:#0A9EFD;stroke-width:1.0;"/><line style="stroke:#0A9EFD;stroke-width:2.0;" x1="326" x2="575.8333" y1="294.5671" y2="294.5671"/><text fill="#0A9EFD" font-family="Arial" font-size="13" lengthAdjust="spacing" textLength="193" x="357.4167" y="289.8122">Send audio stream to other users</text><!--SRC=[TP5DJiCm44RtFiMG1JiG2rPHLIc2BX08HHJ11WbDd6bgrHb7_X65Gt48JiOuAKBGTkll-StdyObXRLDBW9tp-1esXizDwgrIZTj2KGr3eGRqqMWp84SePi5yK7bvCP-THcminNa16A2gQqNSWjpQNNroHXCihs-F2oo-am-JGC1_WYetalE7n_klp-CIRLrg9uUGlmvf16Vpx2tXoXD6UIE3uH2HfPXRmJHWmPrXKghpBWrGUwSf1F3u1fXQuw35Y0TbO9r6kwEYHxrHacTCw1BkzjATP4mNstmMfL8BmzxCbSUUmWj32eOxUAO6gZ6ewfi_NUhKM1FM4DUqNmUY6mEzHcQoF-raIoKiyvucDaHvK9zX9xINcV8fUO_g6m00]--></g></svg>