<?xml version="1.0" encoding="us-ascii" standalone="no"?><svg xmlns="http://www.w3.org/2000/svg" xmlns:xlink="http://www.w3.org/1999/xlink" contentStyleType="text/css" height="762px" preserveAspectRatio="none" style="width:574px;height:762px;" version="1.1" viewBox="0 0 574 762" width="574px" zoomAndPan="magnify"><defs/><g><rect fill="none" height="760.2744" style="stroke:#0A9EFD;stroke-width:1.0;" width="572.5" x="0" y="0"/><rect fill="#999999" fill-opacity="0.33333" height="750.2744" style="stroke:#0A9EFD;stroke-width:0.5;" width="90" x="133.5" y="6"/><text fill="#0A9EFD" font-family="sans-serif" font-size="13" font-weight="bold" lengthAdjust="spacing" textLength="57" x="150" y="19.4951">Your app</text><rect fill="#999999" fill-opacity="0.33333" height="750.2744" style="stroke:#0A9EFD;stroke-width:0.5;" width="74" x="488.5" y="6"/><text fill="#0A9EFD" font-family="sans-serif" font-size="13" font-weight="bold" lengthAdjust="spacing" textLength="38" x="506.5" y="19.4951">Agora</text><rect fill="#0A9EFD" fill-opacity="0.06667" height="116.7949" style="stroke:#0A9EFD;stroke-width:2.0;" width="558.5" x="10" y="215.9448"/><rect fill="#0A9EFD" fill-opacity="0.06667" height="103.7949" style="stroke:#0A9EFD;stroke-width:2.0;" width="441" x="127.5" y="346.7397"/><rect fill="#0A9EFD" fill-opacity="0.06667" height="132.7437" style="stroke:#0A9EFD;stroke-width:2.0;" width="558.5" x="10" y="464.5347"/><line style="stroke:#0A9EFD;stroke-width:0.5;stroke-dasharray:5.0,5.0;" x1="37" x2="37" y1="86.0986" y2="672.1758"/><line style="stroke:#0A9EFD;stroke-width:0.5;stroke-dasharray:5.0,5.0;" x1="178.5" x2="178.5" y1="86.0986" y2="672.1758"/><line style="stroke:#0A9EFD;stroke-width:0.5;stroke-dasharray:5.0,5.0;" x1="525.5" x2="525.5" y1="86.0986" y2="672.1758"/><text fill="#0A9EFD" font-family="Arial" font-size="14" lengthAdjust="spacing" textLength="29" x="20" y="83.1318">User</text><ellipse cx="37.5" cy="16" fill="none" rx="8" ry="8" style="stroke:#0A9EFD;stroke-width:3.0;"/><path d="M37.5,24 L37.5,51 M24.5,32 L50.5,32 M37.5,51 L24.5,66 M37.5,51 L50.5,66 " fill="none" style="stroke:#0A9EFD;stroke-width:3.0;"/><text fill="#0A9EFD" font-family="Arial" font-size="14" lengthAdjust="spacing" textLength="29" x="20" y="684.3076">User</text><ellipse cx="37.5" cy="698.2744" fill="none" rx="8" ry="8" style="stroke:#0A9EFD;stroke-width:3.0;"/><path d="M37.5,706.2744 L37.5,733.2744 M24.5,714.2744 L50.5,714.2744 M37.5,733.2744 L24.5,748.2744 M37.5,733.2744 L50.5,748.2744 " fill="none" style="stroke:#0A9EFD;stroke-width:3.0;"/><rect fill="none" height="30.0986" rx="2.5" ry="2.5" style="stroke:#0A9EFD;stroke-width:2.0;" width="82" x="137.5" y="55"/><text fill="#0A9EFD" font-family="Arial" font-size="14" lengthAdjust="spacing" textLength="68" x="144.5" y="75.1318">Video SDK</text><rect fill="none" height="30.0986" rx="2.5" ry="2.5" style="stroke:#0A9EFD;stroke-width:2.0;" width="82" x="137.5" y="671.1758"/><text fill="#0A9EFD" font-family="Arial" font-size="14" lengthAdjust="spacing" textLength="68" x="144.5" y="691.3076">Video SDK</text><rect fill="none" height="30.0986" rx="2.5" ry="2.5" style="stroke:#0A9EFD;stroke-width:2.0;" width="66" x="492.5" y="55"/><text fill="#0A9EFD" font-family="Arial" font-size="14" lengthAdjust="spacing" textLength="52" x="499.5" y="75.1318">SD-RTN</text><rect fill="none" height="30.0986" rx="2.5" ry="2.5" style="stroke:#0A9EFD;stroke-width:2.0;" width="66" x="492.5" y="671.1758"/><text fill="#0A9EFD" font-family="Arial" font-size="14" lengthAdjust="spacing" textLength="52" x="499.5" y="691.3076">SD-RTN</text><polygon fill="#0A9EFD" points="166.5,113.0474,176.5,117.0474,166.5,121.0474,170.5,117.0474" style="stroke:#0A9EFD;stroke-width:1.0;"/><line style="stroke:#0A9EFD;stroke-width:2.0;" x1="37.5" x2="172.5" y1="117.0474" y2="117.0474"/><text fill="#0A9EFD" font-family="Arial" font-size="13" lengthAdjust="spacing" textLength="58" x="79" y="112.2925">Open App</text><line style="stroke:#0A9EFD;stroke-width:2.0;" x1="178.5" x2="220.5" y1="145.9961" y2="145.9961"/><line style="stroke:#0A9EFD;stroke-width:2.0;" x1="220.5" x2="220.5" y1="145.9961" y2="158.9961"/><line style="stroke:#0A9EFD;stroke-width:2.0;" x1="179.5" x2="220.5" y1="158.9961" y2="158.9961"/><polygon fill="#0A9EFD" points="189.5,154.9961,179.5,158.9961,189.5,162.9961,185.5,158.9961" style="stroke:#0A9EFD;stroke-width:1.0;"/><text fill="#0A9EFD" font-family="Arial" font-size="13" lengthAdjust="spacing" textLength="299" x="185.5" y="141.2412">Use Video SDK to create an Agora Engine instance</text><line style="stroke:#0A9EFD;stroke-width:2.0;" x1="178.5" x2="220.5" y1="187.9448" y2="187.9448"/><line style="stroke:#0A9EFD;stroke-width:2.0;" x1="220.5" x2="220.5" y1="187.9448" y2="200.9448"/><line style="stroke:#0A9EFD;stroke-width:2.0;" x1="179.5" x2="220.5" y1="200.9448" y2="200.9448"/><polygon fill="#0A9EFD" points="189.5,196.9448,179.5,200.9448,189.5,204.9448,185.5,200.9448" style="stroke:#0A9EFD;stroke-width:1.0;"/><text fill="#0A9EFD" font-family="Arial" font-size="13" lengthAdjust="spacing" textLength="211" x="185.5" y="183.1899">Enable audio and video in the engine</text><path d="M10,215.9448 L78,215.9448 L78,222.8936 L68,232.8936 L10,232.8936 L10,215.9448 " fill="#EEEEEE" style="stroke:#0A9EFD;stroke-width:1.5;"/><rect fill="none" height="116.7949" style="stroke:#0A9EFD;stroke-width:2.0;" width="558.5" x="10" y="215.9448"/><text fill="#000000" font-family="Arial" font-size="13" lengthAdjust="spacing" textLength="23" x="25" y="229.1387">Join</text><polygon fill="#0A9EFD" points="166.5,249.8423,176.5,253.8423,166.5,257.8423,170.5,253.8423" style="stroke:#0A9EFD;stroke-width:1.0;"/><line style="stroke:#0A9EFD;stroke-width:2.0;" x1="37.5" x2="172.5" y1="253.8423" y2="253.8423"/><text fill="#0A9EFD" font-family="Arial" font-size="13" lengthAdjust="spacing" textLength="83" x="66.5" y="249.0874">Join a channel</text><line style="stroke:#0A9EFD;stroke-width:2.0;" x1="178.5" x2="220.5" y1="282.791" y2="282.791"/><line style="stroke:#0A9EFD;stroke-width:2.0;" x1="220.5" x2="220.5" y1="282.791" y2="295.791"/><line style="stroke:#0A9EFD;stroke-width:2.0;" x1="179.5" x2="220.5" y1="295.791" y2="295.791"/><polygon fill="#0A9EFD" points="189.5,291.791,179.5,295.791,189.5,299.791,185.5,295.791" style="stroke:#0A9EFD;stroke-width:1.0;"/><text fill="#0A9EFD" font-family="Arial" font-size="13" lengthAdjust="spacing" textLength="266" x="185.5" y="278.0361">Retrieve authentication token to join a channel</text><polygon fill="#0A9EFD" points="513.5,320.7397,523.5,324.7397,513.5,328.7397,517.5,324.7397" style="stroke:#0A9EFD;stroke-width:1.0;"/><line style="stroke:#0A9EFD;stroke-width:2.0;" x1="178.5" x2="519.5" y1="324.7397" y2="324.7397"/><text fill="#0A9EFD" font-family="Arial" font-size="13" lengthAdjust="spacing" textLength="94" x="305" y="319.9849">Join the channel</text><path d="M127.5,346.7397 L302.5,346.7397 L302.5,353.6885 L292.5,363.6885 L127.5,363.6885 L127.5,346.7397 " fill="#EEEEEE" style="stroke:#0A9EFD;stroke-width:1.5;"/><rect fill="none" height="103.7949" style="stroke:#0A9EFD;stroke-width:2.0;" width="441" x="127.5" y="346.7397"/><text fill="#000000" font-family="Arial" font-size="13" lengthAdjust="spacing" textLength="130" x="142.5" y="359.9336">Publish and Subscribe</text><polygon fill="#0A9EFD" points="513.5,380.6372,523.5,384.6372,513.5,388.6372,517.5,384.6372" style="stroke:#0A9EFD;stroke-width:1.0;"/><line style="stroke:#0A9EFD;stroke-width:2.0;" x1="178.5" x2="519.5" y1="384.6372" y2="384.6372"/><text fill="#0A9EFD" font-family="Arial" font-size="13" lengthAdjust="spacing" textLength="323" x="190.5" y="379.8823">Publish camera and microphone streams to the channel</text><polygon fill="#0A9EFD" points="189.5,409.5859,179.5,413.5859,189.5,417.5859,185.5,413.5859" style="stroke:#0A9EFD;stroke-width:1.0;"/><line style="stroke:#0A9EFD;stroke-width:2.0;" x1="183.5" x2="524.5" y1="413.5859" y2="413.5859"/><text fill="#0A9EFD" font-family="Arial" font-size="13" lengthAdjust="spacing" textLength="222" x="241" y="408.8311">Subscribe to streams from other users</text><polygon fill="#0A9EFD" points="513.5,438.5347,523.5,442.5347,513.5,446.5347,517.5,442.5347" style="stroke:#0A9EFD;stroke-width:1.0;"/><line style="stroke:#0A9EFD;stroke-width:2.0;" x1="178.5" x2="519.5" y1="442.5347" y2="442.5347"/><text fill="#0A9EFD" font-family="Arial" font-size="13" lengthAdjust="spacing" textLength="197" x="253.5" y="437.7798">Manage local and remote streams</text><path d="M10,464.5347 L167,464.5347 L167,471.4834 L157,481.4834 L10,481.4834 L10,464.5347 " fill="#EEEEEE" style="stroke:#0A9EFD;stroke-width:1.5;"/><rect fill="none" height="132.7437" style="stroke:#0A9EFD;stroke-width:2.0;" width="558.5" x="10" y="464.5347"/><text fill="#000000" font-family="Arial" font-size="13" lengthAdjust="spacing" textLength="112" x="25" y="477.7285">Common workflows</text><polygon fill="#0A9EFD" points="166.5,498.4321,176.5,502.4321,166.5,506.4321,170.5,502.4321" style="stroke:#0A9EFD;stroke-width:1.0;"/><line style="stroke:#0A9EFD;stroke-width:2.0;" x1="37.5" x2="172.5" y1="502.4321" y2="502.4321"/><text fill="#0A9EFD" font-family="Arial" font-size="13" lengthAdjust="spacing" textLength="117" x="49.5" y="497.6772">Start screen sharing</text><polygon fill="#0A9EFD" points="513.5,527.3809,523.5,531.3809,513.5,535.3809,517.5,531.3809" style="stroke:#0A9EFD;stroke-width:1.0;"/><line style="stroke:#0A9EFD;stroke-width:2.0;" x1="178.5" x2="519.5" y1="531.3809" y2="531.3809"/><text fill="#0A9EFD" font-family="Arial" font-size="13" lengthAdjust="spacing" textLength="273" x="215.5" y="526.626">Capture and publish your screen to the channel</text><polygon fill="#0A9EFD" points="166.5,556.3296,176.5,560.3296,166.5,564.3296,170.5,560.3296" style="stroke:#0A9EFD;stroke-width:1.0;"/><line style="stroke:#0A9EFD;stroke-width:2.0;" x1="37.5" x2="172.5" y1="560.3296" y2="560.3296"/><text fill="#0A9EFD" font-family="Arial" font-size="13" lengthAdjust="spacing" textLength="81" x="67.5" y="555.5747">Adjust volume</text><polygon fill="#0A9EFD" points="513.5,585.2783,523.5,589.2783,513.5,593.2783,517.5,589.2783" style="stroke:#0A9EFD;stroke-width:1.0;"/><line style="stroke:#0A9EFD;stroke-width:2.0;" x1="178.5" x2="519.5" y1="589.2783" y2="589.2783"/><text fill="#0A9EFD" font-family="Arial" font-size="13" lengthAdjust="spacing" textLength="247" x="228.5" y="584.5234">Call API methods to adjust or mute volume</text><polygon fill="#0A9EFD" points="166.5,621.2271,176.5,625.2271,166.5,629.2271,170.5,625.2271" style="stroke:#0A9EFD;stroke-width:1.0;"/><line style="stroke:#0A9EFD;stroke-width:2.0;" x1="37.5" x2="172.5" y1="625.2271" y2="625.2271"/><text fill="#0A9EFD" font-family="Arial" font-size="13" lengthAdjust="spacing" textLength="104" x="56" y="620.4722">Leave the channel</text><polygon fill="#0A9EFD" points="513.5,650.1758,523.5,654.1758,513.5,658.1758,517.5,654.1758" style="stroke:#0A9EFD;stroke-width:1.0;"/><line style="stroke:#0A9EFD;stroke-width:2.0;" x1="178.5" x2="519.5" y1="654.1758" y2="654.1758"/><text fill="#0A9EFD" font-family="Arial" font-size="13" lengthAdjust="spacing" textLength="104" x="300" y="649.4209">Leave the channel</text><!--SRC=[PLB9Rjim4BtpAwQwEn_GGm0ZoS5jqXfMKw2dO4HD9COaX-3Yj7_VeI8lSYw2HBvbtjDyCLxRqXFWm15Vqjxu6rESLGfrvWZDSwBO02PuRdTATVmNcZzS8c08ZGeOiz4ceC_G_3OzCRJttoVuUhjLv7iGnanRLuShJdk_sltwCHCsPuAOmUgsYdo5du4yh4DGydKwbB7WP0YPGKV2B344MdtWmG_64nYVCdfD2_A3nyuAjlI6XT73OL8o7l98G1DJgI5o2V2DZL-CKmy0GO_eFTcgkxgTBdQKew53rHKPBo4n6nPDtbDzmjidveVePXQjvlCbr2gE8snBPqqQfqdRqYKTJKSB-X6XqP5ahq1dTEGmidIGidJZKXtXma84DgTG9zaAEk9V8pjWeKGeiWLfOVc47WS2onhjP1Z9SJwRNGQuO-UaY7UE-rVBxsdHPvjb8K3SILfA8qRZXuNJ7OPS8aqcOGxwhwxWpBcATQczxjzAod1WMnnTYLfRty1H7hcVoi4Fj6ozAv9aPaqvBaKV2UKdBviy2t- -_Gy0]--></g></svg>