<?xml version="1.0" encoding="us-ascii" standalone="no"?><svg xmlns="http://www.w3.org/2000/svg" xmlns:xlink="http://www.w3.org/1999/xlink" contentStyleType="text/css" height="1019px" preserveAspectRatio="none" style="width:567px;height:1019px;" version="1.1" viewBox="0 0 567 1019" width="567px" zoomAndPan="magnify"><defs/><g><rect fill="none" height="1017.813" style="stroke:#0A9EFD;stroke-width:1.0;" width="565" x="0" y="0"/><rect fill="#999999" fill-opacity="0.33333" height="1007.813" style="stroke:#0A9EFD;stroke-width:0.5;" width="90" x="134" y="6"/><text fill="#0A9EFD" font-family="sans-serif" font-size="13" font-weight="bold" lengthAdjust="spacing" textLength="62" x="148" y="18.5684">Your app</text><rect fill="#999999" fill-opacity="0.33333" height="1007.813" style="stroke:#0A9EFD;stroke-width:0.5;" width="80" x="475" y="6"/><text fill="#0A9EFD" font-family="sans-serif" font-size="13" font-weight="bold" lengthAdjust="spacing" textLength="41" x="494.5" y="18.5684">Agora</text><rect fill="#0A9EFD" fill-opacity="0.06667" height="116.7949" style="stroke:#0A9EFD;stroke-width:2.0;" width="551" x="10" y="272.8423"/><rect fill="#0A9EFD" fill-opacity="0.06667" height="103.7949" style="stroke:#0A9EFD;stroke-width:2.0;" width="433" x="128" y="403.6372"/><rect fill="#0A9EFD" fill-opacity="0.06667" height="333.3848" style="stroke:#0A9EFD;stroke-width:2.0;" width="551" x="10" y="521.4321"/><line style="stroke:#0A9EFD;stroke-width:0.5;stroke-dasharray:5.0,5.0;" x1="38" x2="38" y1="86.0986" y2="929.7144"/><line style="stroke:#0A9EFD;stroke-width:0.5;stroke-dasharray:5.0,5.0;" x1="179" x2="179" y1="86.0986" y2="929.7144"/><line style="stroke:#0A9EFD;stroke-width:0.5;stroke-dasharray:5.0,5.0;" x1="515" x2="515" y1="86.0986" y2="929.7144"/><text fill="#0A9EFD" font-family="Arial" font-size="14" lengthAdjust="spacing" textLength="30" x="20" y="83.1318">User</text><ellipse cx="38" cy="16" fill="none" rx="8" ry="8" style="stroke:#0A9EFD;stroke-width:3.0;"/><path d="M38,24 L38,51 M25,32 L51,32 M38,51 L25,66 M38,51 L51,66 " fill="none" style="stroke:#0A9EFD;stroke-width:3.0;"/><text fill="#0A9EFD" font-family="Arial" font-size="14" lengthAdjust="spacing" textLength="30" x="20" y="941.8462">User</text><ellipse cx="38" cy="955.813" fill="none" rx="8" ry="8" style="stroke:#0A9EFD;stroke-width:3.0;"/><path d="M38,963.813 L38,990.813 M25,971.813 L51,971.813 M38,990.813 L25,1005.813 M38,990.813 L51,1005.813 " fill="none" style="stroke:#0A9EFD;stroke-width:3.0;"/><rect fill="none" height="30.0986" rx="2.5" ry="2.5" style="stroke:#0A9EFD;stroke-width:2.0;" width="82" x="138" y="55"/><text fill="#0A9EFD" font-family="Arial" font-size="14" lengthAdjust="spacing" textLength="68" x="145" y="75.1318">Video SDK</text><rect fill="none" height="30.0986" rx="2.5" ry="2.5" style="stroke:#0A9EFD;stroke-width:2.0;" width="82" x="138" y="928.7144"/><text fill="#0A9EFD" font-family="Arial" font-size="14" lengthAdjust="spacing" textLength="68" x="145" y="948.8462">Video SDK</text><rect fill="none" height="30.0986" rx="2.5" ry="2.5" style="stroke:#0A9EFD;stroke-width:2.0;" width="72" x="479" y="55"/><text fill="#0A9EFD" font-family="Arial" font-size="14" lengthAdjust="spacing" textLength="58" x="486" y="75.1318">SDRTN&#174;</text><rect fill="none" height="30.0986" rx="2.5" ry="2.5" style="stroke:#0A9EFD;stroke-width:2.0;" width="72" x="479" y="928.7144"/><text fill="#0A9EFD" font-family="Arial" font-size="14" lengthAdjust="spacing" textLength="58" x="486" y="948.8462">SDRTN&#174;</text><polygon fill="#0A9EFD" points="167,113.0474,177,117.0474,167,121.0474,171,117.0474" style="stroke:#0A9EFD;stroke-width:1.0;"/><line style="stroke:#0A9EFD;stroke-width:2.0;" x1="38" x2="173" y1="117.0474" y2="117.0474"/><text fill="#0A9EFD" font-family="Arial" font-size="13" lengthAdjust="spacing" textLength="58" x="79.5" y="112.2925">Open App</text><line style="stroke:#0A9EFD;stroke-width:2.0;" x1="179" x2="221" y1="145.9961" y2="145.9961"/><line style="stroke:#0A9EFD;stroke-width:2.0;" x1="221" x2="221" y1="145.9961" y2="158.9961"/><line style="stroke:#0A9EFD;stroke-width:2.0;" x1="180" x2="221" y1="158.9961" y2="158.9961"/><polygon fill="#0A9EFD" points="190,154.9961,180,158.9961,190,162.9961,186,158.9961" style="stroke:#0A9EFD;stroke-width:1.0;"/><text fill="#0A9EFD" font-family="Arial" font-size="13" lengthAdjust="spacing" textLength="299" x="186" y="141.2412">Use Video SDK to create an Agora Engine instance</text><line style="stroke:#0A9EFD;stroke-width:2.0;" x1="179" x2="221" y1="187.9448" y2="187.9448"/><line style="stroke:#0A9EFD;stroke-width:2.0;" x1="221" x2="221" y1="187.9448" y2="200.9448"/><line style="stroke:#0A9EFD;stroke-width:2.0;" x1="180" x2="221" y1="200.9448" y2="200.9448"/><polygon fill="#0A9EFD" points="190,196.9448,180,200.9448,190,204.9448,186,200.9448" style="stroke:#0A9EFD;stroke-width:1.0;"/><text fill="#0A9EFD" font-family="Arial" font-size="13" lengthAdjust="spacing" textLength="254" x="186" y="183.1899">Create and play the local audio/video tracks</text><line style="stroke:#0A9EFD;stroke-width:2.0;" x1="179" x2="221" y1="244.8423" y2="244.8423"/><line style="stroke:#0A9EFD;stroke-width:2.0;" x1="221" x2="221" y1="244.8423" y2="257.8423"/><line style="stroke:#0A9EFD;stroke-width:2.0;" x1="180" x2="221" y1="257.8423" y2="257.8423"/><polygon fill="#0A9EFD" points="190,253.8423,180,257.8423,190,261.8423,186,257.8423" style="stroke:#0A9EFD;stroke-width:1.0;"/><text fill="#0A9EFD" font-family="Arial" font-size="13" lengthAdjust="spacing" textLength="166" x="192.5" y="225.1387">Bypass autoplay block when</text><text fill="#0A9EFD" font-family="Arial" font-size="13" lengthAdjust="spacing" textLength="179" x="190" y="240.0874">onAutoplayFailed event occurs</text><path d="M10,272.8423 L79,272.8423 L79,279.791 L69,289.791 L10,289.791 L10,272.8423 " fill="#EEEEEE" style="stroke:#0A9EFD;stroke-width:1.5;"/><rect fill="none" height="116.7949" style="stroke:#0A9EFD;stroke-width:2.0;" width="551" x="10" y="272.8423"/><text fill="#000000" font-family="Arial" font-size="13" lengthAdjust="spacing" textLength="24" x="25" y="286.0361">Join</text><polygon fill="#0A9EFD" points="167,306.7397,177,310.7397,167,314.7397,171,310.7397" style="stroke:#0A9EFD;stroke-width:1.0;"/><line style="stroke:#0A9EFD;stroke-width:2.0;" x1="38" x2="173" y1="310.7397" y2="310.7397"/><text fill="#0A9EFD" font-family="Arial" font-size="13" lengthAdjust="spacing" textLength="84" x="66.5" y="305.9849">Join a channel</text><line style="stroke:#0A9EFD;stroke-width:2.0;" x1="179" x2="221" y1="339.6885" y2="339.6885"/><line style="stroke:#0A9EFD;stroke-width:2.0;" x1="221" x2="221" y1="339.6885" y2="352.6885"/><line style="stroke:#0A9EFD;stroke-width:2.0;" x1="180" x2="221" y1="352.6885" y2="352.6885"/><polygon fill="#0A9EFD" points="190,348.6885,180,352.6885,190,356.6885,186,352.6885" style="stroke:#0A9EFD;stroke-width:1.0;"/><text fill="#0A9EFD" font-family="Arial" font-size="13" lengthAdjust="spacing" textLength="268" x="186" y="334.9336">Retrieve authentication token to join a channel</text><polygon fill="#0A9EFD" points="503,377.6372,513,381.6372,503,385.6372,507,381.6372" style="stroke:#0A9EFD;stroke-width:1.0;"/><line style="stroke:#0A9EFD;stroke-width:2.0;" x1="179" x2="509" y1="381.6372" y2="381.6372"/><text fill="#0A9EFD" font-family="Arial" font-size="13" lengthAdjust="spacing" textLength="95" x="299.5" y="376.8823">Join the channel</text><path d="M128,403.6372 L303,403.6372 L303,410.5859 L293,420.5859 L128,420.5859 L128,403.6372 " fill="#EEEEEE" style="stroke:#0A9EFD;stroke-width:1.5;"/><rect fill="none" height="103.7949" style="stroke:#0A9EFD;stroke-width:2.0;" width="433" x="128" y="403.6372"/><text fill="#000000" font-family="Arial" font-size="13" lengthAdjust="spacing" textLength="130" x="143" y="416.8311">Publish and Subscribe</text><polygon fill="#0A9EFD" points="503,437.5347,513,441.5347,503,445.5347,507,441.5347" style="stroke:#0A9EFD;stroke-width:1.0;"/><line style="stroke:#0A9EFD;stroke-width:2.0;" x1="179" x2="509" y1="441.5347" y2="441.5347"/><text fill="#0A9EFD" font-family="Arial" font-size="13" lengthAdjust="spacing" textLength="312" x="191" y="436.7798">Publish camera and microphone tracks to the channel</text><polygon fill="#0A9EFD" points="190,466.4834,180,470.4834,190,474.4834,186,470.4834" style="stroke:#0A9EFD;stroke-width:1.0;"/><line style="stroke:#0A9EFD;stroke-width:2.0;" x1="184" x2="514" y1="470.4834" y2="470.4834"/><text fill="#0A9EFD" font-family="Arial" font-size="13" lengthAdjust="spacing" textLength="212" x="241" y="465.7285">Subscribe to tracks from other users</text><polygon fill="#0A9EFD" points="503,495.4321,513,499.4321,503,503.4321,507,499.4321" style="stroke:#0A9EFD;stroke-width:1.0;"/><line style="stroke:#0A9EFD;stroke-width:2.0;" x1="179" x2="509" y1="499.4321" y2="499.4321"/><text fill="#0A9EFD" font-family="Arial" font-size="13" lengthAdjust="spacing" textLength="256" x="219" y="494.6772">Manage local and remote audio/video tracks</text><path d="M10,521.4321 L168,521.4321 L168,528.3809 L158,538.3809 L10,538.3809 L10,521.4321 " fill="#EEEEEE" style="stroke:#0A9EFD;stroke-width:1.5;"/><rect fill="none" height="333.3848" style="stroke:#0A9EFD;stroke-width:2.0;" width="551" x="10" y="521.4321"/><text fill="#000000" font-family="Arial" font-size="13" lengthAdjust="spacing" textLength="113" x="25" y="534.626">Common workflows</text><line style="stroke:#0A9EFD;stroke-width:2.0;" x1="179" x2="221" y1="559.3296" y2="559.3296"/><line style="stroke:#0A9EFD;stroke-width:2.0;" x1="221" x2="221" y1="559.3296" y2="572.3296"/><line style="stroke:#0A9EFD;stroke-width:2.0;" x1="180" x2="221" y1="572.3296" y2="572.3296"/><polygon fill="#0A9EFD" points="190,568.3296,180,572.3296,190,576.3296,186,572.3296" style="stroke:#0A9EFD;stroke-width:1.0;"/><text fill="#0A9EFD" font-family="Arial" font-size="13" lengthAdjust="spacing" textLength="149" x="186" y="554.5747">Bypass autoplay blocking</text><polygon fill="#0A9EFD" points="167,597.2783,177,601.2783,167,605.2783,171,601.2783" style="stroke:#0A9EFD;stroke-width:1.0;"/><line style="stroke:#0A9EFD;stroke-width:2.0;" x1="38" x2="173" y1="601.2783" y2="601.2783"/><text fill="#0A9EFD" font-family="Arial" font-size="13" lengthAdjust="spacing" textLength="117" x="50" y="596.5234">Start screen sharing</text><line style="stroke:#0A9EFD;stroke-width:2.0;" x1="179" x2="221" y1="630.2271" y2="630.2271"/><line style="stroke:#0A9EFD;stroke-width:2.0;" x1="221" x2="221" y1="630.2271" y2="643.2271"/><line style="stroke:#0A9EFD;stroke-width:2.0;" x1="180" x2="221" y1="643.2271" y2="643.2271"/><polygon fill="#0A9EFD" points="190,639.2271,180,643.2271,190,647.2271,186,643.2271" style="stroke:#0A9EFD;stroke-width:1.0;"/><text fill="#0A9EFD" font-family="Arial" font-size="13" lengthAdjust="spacing" textLength="125" x="186" y="625.4722">Create a screen track</text><polygon fill="#0A9EFD" points="503,668.1758,513,672.1758,503,676.1758,507,672.1758" style="stroke:#0A9EFD;stroke-width:1.0;"/><line style="stroke:#0A9EFD;stroke-width:2.0;" x1="179" x2="509" y1="672.1758" y2="672.1758"/><text fill="#0A9EFD" font-family="Arial" font-size="13" lengthAdjust="spacing" textLength="178" x="258" y="667.4209">Unpublish the local video track</text><polygon fill="#0A9EFD" points="503,697.1245,513,701.1245,503,705.1245,507,701.1245" style="stroke:#0A9EFD;stroke-width:1.0;"/><line style="stroke:#0A9EFD;stroke-width:2.0;" x1="179" x2="509" y1="701.1245" y2="701.1245"/><text fill="#0A9EFD" font-family="Arial" font-size="13" lengthAdjust="spacing" textLength="141" x="276.5" y="696.3696">Publish the screen track</text><polygon fill="#0A9EFD" points="167,726.0732,177,730.0732,167,734.0732,171,730.0732" style="stroke:#0A9EFD;stroke-width:1.0;"/><line style="stroke:#0A9EFD;stroke-width:2.0;" x1="38" x2="173" y1="730.0732" y2="730.0732"/><text fill="#0A9EFD" font-family="Arial" font-size="13" lengthAdjust="spacing" textLength="83" x="67" y="725.3184">Adjust volume</text><polygon fill="#0A9EFD" points="503,769.9707,513,773.9707,503,777.9707,507,773.9707" style="stroke:#0A9EFD;stroke-width:1.0;"/><line style="stroke:#0A9EFD;stroke-width:2.0;" x1="179" x2="509" y1="773.9707" y2="773.9707"/><text fill="#0A9EFD" font-family="Arial" font-size="13" lengthAdjust="spacing" textLength="204" x="243" y="754.2671">Call API methods to adjust or mute</text><text fill="#0A9EFD" font-family="Arial" font-size="13" lengthAdjust="spacing" textLength="176" x="261" y="769.2158">the local or remote audio track</text><polygon fill="#0A9EFD" points="167,798.9194,177,802.9194,167,806.9194,171,802.9194" style="stroke:#0A9EFD;stroke-width:1.0;"/><line style="stroke:#0A9EFD;stroke-width:2.0;" x1="38" x2="173" y1="802.9194" y2="802.9194"/><text fill="#0A9EFD" font-family="Arial" font-size="13" lengthAdjust="spacing" textLength="113" x="52" y="798.1646">Mute/Unmute video</text><polygon fill="#0A9EFD" points="503,842.8169,513,846.8169,503,850.8169,507,846.8169" style="stroke:#0A9EFD;stroke-width:1.0;"/><line style="stroke:#0A9EFD;stroke-width:2.0;" x1="179" x2="509" y1="846.8169" y2="846.8169"/><text fill="#0A9EFD" font-family="Arial" font-size="13" lengthAdjust="spacing" textLength="227" x="231.5" y="827.1133">Call the API method to mute or unmute</text><text fill="#0A9EFD" font-family="Arial" font-size="13" lengthAdjust="spacing" textLength="117" x="290.5" y="842.062">the local video track</text><polygon fill="#0A9EFD" points="167,878.7656,177,882.7656,167,886.7656,171,882.7656" style="stroke:#0A9EFD;stroke-width:1.0;"/><line style="stroke:#0A9EFD;stroke-width:2.0;" x1="38" x2="173" y1="882.7656" y2="882.7656"/><text fill="#0A9EFD" font-family="Arial" font-size="13" lengthAdjust="spacing" textLength="106" x="55.5" y="878.0107">Leave the channel</text><polygon fill="#0A9EFD" points="503,907.7144,513,911.7144,503,915.7144,507,911.7144" style="stroke:#0A9EFD;stroke-width:1.0;"/><line style="stroke:#0A9EFD;stroke-width:2.0;" x1="179" x2="509" y1="911.7144" y2="911.7144"/><text fill="#0A9EFD" font-family="Arial" font-size="13" lengthAdjust="spacing" textLength="106" x="294" y="906.9595">Leave the channel</text><!--SRC=[ZLFBRjim4BphAxQwfxdt4C1rMi1jqnfsNQ10W69DCH9ZYalmOJS_rO_ebtL9ox8O-z2B894pExEpgpVA21qR2TYImrz-fynR5NjTLIW2EQWtNheQqCDclQggBVs6-YT51sXjNLbqGGbbqGIeVwX64gplFsVuRBcif6c06GDjbXHUSTRtg-zV__uP68ipWzNWvYvLUGVVh3GmixRYh_6GVS6e2850E8c1-s1e4e8FfbL6WZ8-e16o8CzFs0QinXS8dGHD0ZLWR1JTxdFXu53iV45y_sBHUqO5oiGjitPmwDZWem4oi-7Y8oej6v1xoLsI4D7vgceTHGkVI9cYlNG02A93OwHESZTt-M8bWrDS8icn0gU6GP7XPdSoFU7vWdaikXYAfhQ6IqZHdYmiurOht-N-rt7hXLDRMT1F286zv2mJi5V2aUs8Cpq6annC59Y_67iQgsRG4Vxag0TYXeF8I-KBmGSqs8v3O3adUqeZkfX7qScS-fuJEP3RFMaw_CUmb6cBzDU1zn7OhEHCVOSk0QxjoWcJNHJUDyOESPttQEBuQh09MHISUferpz47s9EEVJcNEMgTtg2NeQCcpm2FQFvP-yX67yt41XzEWxoYzS2Ssut9r6pwKY-LEsicoOpcsj5SIauxpvEQgdsHoFjSRirPxVBs7m00]--></g></svg>