<?xml version="1.0" encoding="us-ascii" standalone="no"?><svg xmlns="http://www.w3.org/2000/svg" xmlns:xlink="http://www.w3.org/1999/xlink" contentStyleType="text/css" height="832px" preserveAspectRatio="none" style="width:604px;height:832px;" version="1.1" viewBox="0 0 604 832" width="604px" zoomAndPan="magnify"><defs/><g><rect fill="none" height="830.2083" style="stroke:#0A9EFD;stroke-width:1.0;" width="602.3333" x="0" y="0"/><rect fill="#999999" fill-opacity="0.33333" height="820.2083" style="stroke:#0A9EFD;stroke-width:0.5;" width="50.6667" x="16" y="6"/><text fill="#0A9EFD" font-family="sans-serif" font-size="13" font-weight="bold" lengthAdjust="spacing" textLength="28" x="27.3333" y="18.5684">App</text><rect fill="#999999" fill-opacity="0.33333" height="820.2083" style="stroke:#0A9EFD;stroke-width:0.5;" width="72" x="277" y="6"/><text fill="#0A9EFD" font-family="sans-serif" font-size="13" font-weight="bold" lengthAdjust="spacing" textLength="66" x="280" y="18.5684">Voice SDK</text><rect fill="#999999" fill-opacity="0.33333" height="820.2083" style="stroke:#0A9EFD;stroke-width:0.5;" width="107" x="491.3333" y="6"/><text fill="#0A9EFD" font-family="sans-serif" font-size="13" font-weight="bold" lengthAdjust="spacing" textLength="101" x="494.3333" y="18.5684">Agora SDRTN&#174;</text><rect fill="#0A9EFD" fill-opacity="0.06667" height="60.8462" style="stroke:#0A9EFD;stroke-width:2.0;" width="334.3333" x="10" y="83.9772"/><rect fill="#0A9EFD" fill-opacity="0.06667" height="74.8462" style="stroke:#0A9EFD;stroke-width:2.0;" width="566.1667" x="10" y="158.8234"/><rect fill="#0A9EFD" fill-opacity="0.06667" height="133.6924" style="stroke:#0A9EFD;stroke-width:2.0;" width="566.1667" x="10" y="247.6696"/><rect fill="#0A9EFD" fill-opacity="0.06667" height="221.4873" style="stroke:#0A9EFD;stroke-width:2.0;" width="566.1667" x="10" y="395.362"/><rect fill="#0A9EFD" fill-opacity="0.06667" height="133.6924" style="stroke:#0A9EFD;stroke-width:2.0;" width="566.1667" x="10" y="630.8493"/><line style="stroke:#0A9EFD;stroke-width:0.5;stroke-dasharray:5.0,5.0;" x1="41" x2="41" y1="66.9772" y2="781.5417"/><line style="stroke:#0A9EFD;stroke-width:0.5;stroke-dasharray:5.0,5.0;" x1="312.6667" x2="312.6667" y1="66.9772" y2="781.5417"/><line style="stroke:#0A9EFD;stroke-width:0.5;stroke-dasharray:5.0,5.0;" x1="544.5" x2="544.5" y1="66.9772" y2="781.5417"/><rect fill="none" height="40.6667" rx="2.5" ry="2.5" style="stroke:#0A9EFD;stroke-width:2.0;" width="42.6667" x="20" y="25.3105"/><path d="M29.1333,32.3105 C28.5333,32.3105 28,32.8439 28,33.4439 L28,57.8105 C28,58.4105 28.5333,58.9439 29.1333,58.9439 L50.1667,58.9439 C50.7667,58.9439 51.3,58.4105 51.3,57.8105 L51.3,33.4439 C51.3,32.8439 50.7667,32.3105 50.1667,32.3105 L29.1333,32.3105 M31.3333,35.6439 L48,35.6439 L48,52.3105 L31.3333,52.3105 L31.3333,35.6439 M39.6667,53.9772 C40.9333,53.9772 41.7667,55.3772 41.1333,56.4772 C40.5,57.5772 38.8667,57.5772 38.2,56.4772 C37.5667,55.3772 38.3667,53.9772 39.6667,53.9772 " fill="#0A9EFD" style="stroke:;stroke-width:0.0;stroke-dasharray:;"/><rect fill="none" height="40.6667" rx="2.5" ry="2.5" style="stroke:#0A9EFD;stroke-width:2.0;" width="42.6667" x="20" y="780.5417"/><path d="M29.1333,787.5417 C28.5333,787.5417 28,788.075 28,788.675 L28,813.0417 C28,813.6417 28.5333,814.175 29.1333,814.175 L50.1667,814.175 C50.7667,814.175 51.3,813.6417 51.3,813.0417 L51.3,788.675 C51.3,788.075 50.7667,787.5417 50.1667,787.5417 L29.1333,787.5417 M31.3333,790.875 L48,790.875 L48,807.5417 L31.3333,807.5417 L31.3333,790.875 M39.6667,809.2083 C40.9333,809.2083 41.7667,810.6083 41.1333,811.7083 C40.5,812.8083 38.8667,812.8083 38.2,811.7083 C37.5667,810.6083 38.3667,809.2083 39.6667,809.2083 " fill="#0A9EFD" style="stroke:;stroke-width:0.0;stroke-dasharray:;"/><rect fill="none" height="40.6667" rx="2.5" ry="2.5" style="stroke:#0A9EFD;stroke-width:2.0;" width="42.6667" x="291.6667" y="25.3105"/><path d="M299.6667,32.3105 L299.6667,45.6439 L313,45.6439 L313,32.3105 L299.6667,32.3105 M316.3333,38.9772 L316.3333,48.9772 L306.3333,48.9772 L306.3333,52.3105 L319.6667,52.3105 L319.6667,38.9772 L316.3333,38.9772 M323,45.6439 L323,55.6439 L313,55.6439 L313,58.9772 L326.3333,58.9772 L326.3333,45.6439 L323,45.6439 " fill="#0A9EFD" style="stroke:;stroke-width:0.0;stroke-dasharray:;"/><rect fill="none" height="40.6667" rx="2.5" ry="2.5" style="stroke:#0A9EFD;stroke-width:2.0;" width="42.6667" x="291.6667" y="780.5417"/><path d="M299.6667,787.5417 L299.6667,800.875 L313,800.875 L313,787.5417 L299.6667,787.5417 M316.3333,794.2083 L316.3333,804.2083 L306.3333,804.2083 L306.3333,807.5417 L319.6667,807.5417 L319.6667,794.2083 L316.3333,794.2083 M323,800.875 L323,810.875 L313,810.875 L313,814.2083 L326.3333,814.2083 L326.3333,800.875 L323,800.875 " fill="#0A9EFD" style="stroke:;stroke-width:0.0;stroke-dasharray:;"/><rect fill="none" height="40.6667" rx="2.5" ry="2.5" style="stroke:#0A9EFD;stroke-width:2.0;" width="42.6667" x="523.5" y="25.3105"/><path d="M546.5,32.3105 C542.4667,32.3105 538.9333,35.1772 538.1667,38.9772 C534.5,38.9772 531.5,41.9772 531.5,45.6439 C531.5,49.3105 534.5,52.3105 538.1667,52.3105 L553.1667,52.3105 C555.9333,52.3105 558.1667,50.0772 558.1667,47.3105 C558.1667,45.1439 556.7667,43.0105 554.8333,42.3105 L554.8333,40.6439 C554.8333,36.0439 551.1,32.3105 546.5,32.3105 " fill="#0A9EFD" style="stroke:;stroke-width:0.0;stroke-dasharray:;"/><rect fill="none" height="40.6667" rx="2.5" ry="2.5" style="stroke:#0A9EFD;stroke-width:2.0;" width="42.6667" x="523.5" y="780.5417"/><path d="M546.5,787.5417 C542.4667,787.5417 538.9333,790.4083 538.1667,794.2083 C534.5,794.2083 531.5,797.2083 531.5,800.875 C531.5,804.5417 534.5,807.5417 538.1667,807.5417 L553.1667,807.5417 C555.9333,807.5417 558.1667,805.3083 558.1667,802.5417 C558.1667,800.375 556.7667,798.2417 554.8333,797.5417 L554.8333,795.875 C554.8333,791.275 551.1,787.5417 546.5,787.5417 " fill="#0A9EFD" style="stroke:;stroke-width:0.0;stroke-dasharray:;"/><path d="M10,83.9772 L170,83.9772 L170,90.9259 L160,100.9259 L10,100.9259 L10,83.9772 " fill="#EEEEEE" style="stroke:#0A9EFD;stroke-width:1.5;"/><rect fill="none" height="60.8462" style="stroke:#0A9EFD;stroke-width:2.0;" width="334.3333" x="10" y="83.9772"/><text fill="#000000" font-family="Arial" font-size="13" lengthAdjust="spacing" textLength="115" x="25" y="97.1711">Create a local client</text><polygon fill="#0A9EFD" points="301,132.8234,311,136.8234,301,140.8234,305,136.8234" style="stroke:#0A9EFD;stroke-width:1.0;"/><line style="stroke:#0A9EFD;stroke-width:2.0;" x1="41.3333" x2="307" y1="136.8234" y2="136.8234"/><text fill="#0A9EFD" font-family="Arial" font-size="13" lengthAdjust="spacing" textLength="133" x="110.6667" y="117.1198">AgoraRTC.createClient</text><text fill="#0A9EFD" font-family="Arial" font-size="13" lengthAdjust="spacing" textLength="94" x="132.1667" y="132.0685">Set mode to 'rtc'</text><path d="M10,158.8234 L128,158.8234 L128,165.7721 L118,175.7721 L10,175.7721 L10,158.8234 " fill="#EEEEEE" style="stroke:#0A9EFD;stroke-width:1.5;"/><rect fill="none" height="74.8462" style="stroke:#0A9EFD;stroke-width:2.0;" width="566.1667" x="10" y="158.8234"/><text fill="#000000" font-family="Arial" font-size="13" lengthAdjust="spacing" textLength="73" x="25" y="172.0173">Join channel</text><polygon fill="#0A9EFD" points="301,192.7209,311,196.7209,301,200.7209,305,196.7209" style="stroke:#0A9EFD;stroke-width:1.0;"/><line style="stroke:#0A9EFD;stroke-width:2.0;" x1="41.3333" x2="307" y1="196.7209" y2="196.7209"/><text fill="#0A9EFD" font-family="Arial" font-size="13" lengthAdjust="spacing" textLength="117" x="118.6667" y="191.966">AgoraRTCClient.join</text><polygon fill="#0A9EFD" points="532.8333,221.6696,542.8333,225.6696,532.8333,229.6696,536.8333,225.6696" style="stroke:#0A9EFD;stroke-width:1.0;"/><line style="stroke:#0A9EFD;stroke-width:2.0;" x1="313" x2="538.8333" y1="225.6696" y2="225.6696"/><text fill="#0A9EFD" font-family="Arial" font-size="13" lengthAdjust="spacing" textLength="120" x="368.9167" y="220.9147">Join channel request</text><path d="M10,247.6696 L262,247.6696 L262,254.6183 L252,264.6183 L10,264.6183 L10,247.6696 " fill="#EEEEEE" style="stroke:#0A9EFD;stroke-width:1.5;"/><rect fill="none" height="133.6924" style="stroke:#0A9EFD;stroke-width:2.0;" width="566.1667" x="10" y="247.6696"/><text fill="#000000" font-family="Arial" font-size="13" lengthAdjust="spacing" textLength="207" x="25" y="260.8634">Create and publish local audio track</text><polygon fill="#0A9EFD" points="301,296.5158,311,300.5158,301,304.5158,305,300.5158" style="stroke:#0A9EFD;stroke-width:1.0;"/><line style="stroke:#0A9EFD;stroke-width:2.0;" x1="41.3333" x2="307" y1="300.5158" y2="300.5158"/><text fill="#0A9EFD" font-family="Arial" font-size="13" lengthAdjust="spacing" textLength="137" x="108.6667" y="280.8122">Create local audio track</text><text fill="#0A9EFD" font-family="Arial" font-size="13" lengthAdjust="spacing" textLength="233" x="62.6667" y="295.7609">AgoraRTC.createMicrophoneAudioTrack</text><polygon fill="#0A9EFD" points="301,340.4132,311,344.4132,301,348.4132,305,344.4132" style="stroke:#0A9EFD;stroke-width:1.0;"/><line style="stroke:#0A9EFD;stroke-width:2.0;" x1="41.3333" x2="307" y1="344.4132" y2="344.4132"/><text fill="#0A9EFD" font-family="Arial" font-size="13" lengthAdjust="spacing" textLength="142" x="106.1667" y="324.7096">Publish local audio track</text><text fill="#0A9EFD" font-family="Arial" font-size="13" lengthAdjust="spacing" textLength="138" x="110.1667" y="339.6584">AgoraRTCClient.publish</text><polygon fill="#0A9EFD" points="532.8333,369.362,542.8333,373.362,532.8333,377.362,536.8333,373.362" style="stroke:#0A9EFD;stroke-width:1.0;"/><line style="stroke:#0A9EFD;stroke-width:2.0;" x1="313" x2="538.8333" y1="373.362" y2="373.362"/><text fill="#0A9EFD" font-family="Arial" font-size="13" lengthAdjust="spacing" textLength="94" x="381.9167" y="368.6071">Send audio data</text><path d="M10,395.362 L208,395.362 L208,402.3107 L198,412.3107 L10,412.3107 L10,395.362 " fill="#EEEEEE" style="stroke:#0A9EFD;stroke-width:1.5;"/><rect fill="none" height="221.4873" style="stroke:#0A9EFD;stroke-width:2.0;" width="566.1667" x="10" y="395.362"/><text fill="#000000" font-family="Arial" font-size="13" lengthAdjust="spacing" textLength="153" x="25" y="408.5558">Subscribe to remote users</text><polygon fill="#0A9EFD" points="52.3333,444.2082,42.3333,448.2082,52.3333,452.2082,48.3333,448.2082" style="stroke:#0A9EFD;stroke-width:1.0;"/><line style="stroke:#0A9EFD;stroke-width:2.0;stroke-dasharray:2.0,2.0;" x1="46.3333" x2="543.8333" y1="448.2082" y2="448.2082"/><text fill="#0A9EFD" font-family="Arial" font-size="13" lengthAdjust="spacing" textLength="194" x="196.0833" y="428.5046">Remote users publish audio track</text><text fill="#0A9EFD" font-family="Arial" font-size="13" lengthAdjust="spacing" textLength="151" x="219.5833" y="443.4533">client.on("user-published")</text><polygon fill="#0A9EFD" points="301,488.1056,311,492.1056,301,496.1056,305,492.1056" style="stroke:#0A9EFD;stroke-width:1.0;"/><line style="stroke:#0A9EFD;stroke-width:2.0;" x1="41.3333" x2="307" y1="492.1056" y2="492.1056"/><text fill="#0A9EFD" font-family="Arial" font-size="13" lengthAdjust="spacing" textLength="133" x="110.6667" y="472.402">Get remote user object</text><text fill="#0A9EFD" font-family="Arial" font-size="13" lengthAdjust="spacing" textLength="171" x="93.6667" y="487.3507">AgoraRTCClient.remoteUsers</text><polygon fill="#0A9EFD" points="301,532.0031,311,536.0031,301,540.0031,305,536.0031" style="stroke:#0A9EFD;stroke-width:1.0;"/><line style="stroke:#0A9EFD;stroke-width:2.0;" x1="41.3333" x2="307" y1="536.0031" y2="536.0031"/><text fill="#0A9EFD" font-family="Arial" font-size="13" lengthAdjust="spacing" textLength="185" x="84.6667" y="516.2995">Subscribe to remote user object</text><text fill="#0A9EFD" font-family="Arial" font-size="13" lengthAdjust="spacing" textLength="153" x="102.6667" y="531.2482">AgoraRTCClient.subscribe</text><polygon fill="#0A9EFD" points="324,560.9518,314,564.9518,324,568.9518,320,564.9518" style="stroke:#0A9EFD;stroke-width:1.0;"/><line style="stroke:#0A9EFD;stroke-width:2.0;" x1="318" x2="543.8333" y1="564.9518" y2="564.9518"/><text fill="#0A9EFD" font-family="Arial" font-size="13" lengthAdjust="spacing" textLength="111" x="373.4167" y="560.1969">Receive audio data</text><polygon fill="#0A9EFD" points="301,604.8493,311,608.8493,301,612.8493,305,608.8493" style="stroke:#0A9EFD;stroke-width:1.0;"/><line style="stroke:#0A9EFD;stroke-width:2.0;" x1="41.3333" x2="307" y1="608.8493" y2="608.8493"/><text fill="#0A9EFD" font-family="Arial" font-size="13" lengthAdjust="spacing" textLength="139" x="107.6667" y="589.1457">Get remote audio object</text><text fill="#0A9EFD" font-family="Arial" font-size="13" lengthAdjust="spacing" textLength="200" x="79.1667" y="604.0944">AgoraRTCRemoteUser.audioTrack</text><path d="M10,630.8493 L161,630.8493 L161,637.798 L151,647.798 L10,647.798 L10,630.8493 " fill="#EEEEEE" style="stroke:#0A9EFD;stroke-width:1.5;"/><rect fill="none" height="133.6924" style="stroke:#0A9EFD;stroke-width:2.0;" width="566.1667" x="10" y="630.8493"/><text fill="#000000" font-family="Arial" font-size="13" lengthAdjust="spacing" textLength="106" x="25" y="644.0431">Leave the channel</text><polygon fill="#0A9EFD" points="301,679.6955,311,683.6955,301,687.6955,305,683.6955" style="stroke:#0A9EFD;stroke-width:1.0;"/><line style="stroke:#0A9EFD;stroke-width:2.0;" x1="41.3333" x2="307" y1="683.6955" y2="683.6955"/><text fill="#0A9EFD" font-family="Arial" font-size="13" lengthAdjust="spacing" textLength="166" x="94.1667" y="663.9919">Turn off the local audio track</text><text fill="#0A9EFD" font-family="Arial" font-size="13" lengthAdjust="spacing" textLength="168" x="95.1667" y="678.9406">MicrophoneAudioTrack.close</text><polygon fill="#0A9EFD" points="301,723.5929,311,727.5929,301,731.5929,305,727.5929" style="stroke:#0A9EFD;stroke-width:1.0;"/><line style="stroke:#0A9EFD;stroke-width:2.0;" x1="41.3333" x2="307" y1="727.5929" y2="727.5929"/><text fill="#0A9EFD" font-family="Arial" font-size="13" lengthAdjust="spacing" textLength="106" x="124.1667" y="707.8893">Leave the channel</text><text fill="#0A9EFD" font-family="Arial" font-size="13" lengthAdjust="spacing" textLength="128" x="115.1667" y="722.8381">AgoraRTCClient.leave</text><polygon fill="#0A9EFD" points="532.8333,752.5417,542.8333,756.5417,532.8333,760.5417,536.8333,756.5417" style="stroke:#0A9EFD;stroke-width:1.0;"/><line style="stroke:#0A9EFD;stroke-width:2.0;" x1="313" x2="538.8333" y1="756.5417" y2="756.5417"/><text fill="#0A9EFD" font-family="Arial" font-size="13" lengthAdjust="spacing" textLength="169" x="344.4167" y="751.7868">Request to leave the channel</text><!--SRC=[TPDDRjim48NtEiLKYwPTIEWYAyCm8BX0WBGD3Ddfga10KPEO2Ksg_2dQ7Yg7oCaor8zDMz9MVFFDUpEZ3q9nwMi4zgGDUx0lGkN27sIILFelf4NJf4d3Z1DSD4mvI9TM_CV5zPVLygDZbKItIe5PA3QR15KDLDMN_jI28so_Vfi7IFOFZUq09Bm05C4HVIztTs-lyn0kjQyx1YbFZ2UZVGDhWynHEf2QCmbS2bGk8RVPYZeke6rIxjOvRuNhzlsNWYqwE6YQYzDmPHo_2k01Ugk50hvdIg6SO7MG_9bK2JraA_ArE2i2WxyzMXT31wVal_6L57RVUsQ-5XgSOVmbQjRBHnBoVf7fX-16Dtkji0YotGLeCzSi8lM9UbzHg6qOTrTJCyVYF5jVMMv4rOxGu46JMszftw7tCilQ-ZBwVenzxg5RMQxLfpJ8ibw5TVevId53-ugQWAwUaRjnX4vpF_Zeg-UypcBiK11ciHooS1H_C1x7fB_kVKGkZyvoTjfJDD3lo8ZkzZXnUZjl5EZ7n_PvQfDJHv3JhsCneemwZ8FB88aEeEmEESnDZlm5y-y0]--></g></svg>