<?xml version="1.0" encoding="us-ascii" standalone="no"?><svg xmlns="http://www.w3.org/2000/svg" xmlns:xlink="http://www.w3.org/1999/xlink" contentStyleType="text/css" height="977px" preserveAspectRatio="none" style="width:789px;height:977px;" version="1.1" viewBox="0 0 789 977" width="789px" zoomAndPan="magnify"><defs/><g><rect fill="none" height="975.0545" style="stroke:#0A9EFD;stroke-width:1.0;" width="787.5" x="0" y="0"/><rect fill="#999999" fill-opacity="0.33333" height="965.0545" style="stroke:#0A9EFD;stroke-width:0.5;" width="71" x="5.8333" y="6"/><text fill="#0A9EFD" font-family="sans-serif" font-size="13" font-weight="bold" lengthAdjust="spacing" textLength="65" x="8.8333" y="18.5684">App: Host</text><rect fill="#999999" fill-opacity="0.33333" height="965.0545" style="stroke:#0A9EFD;stroke-width:0.5;" width="74" x="327.1667" y="6"/><text fill="#0A9EFD" font-family="sans-serif" font-size="13" font-weight="bold" lengthAdjust="spacing" textLength="68" x="330.1667" y="18.5684">Video SDK</text><rect fill="#999999" fill-opacity="0.33333" height="965.0545" style="stroke:#0A9EFD;stroke-width:0.5;" width="105" x="678.5" y="6"/><text fill="#0A9EFD" font-family="sans-serif" font-size="13" font-weight="bold" lengthAdjust="spacing" textLength="99" x="681.5" y="18.5684">App: Audience</text><rect fill="#0A9EFD" fill-opacity="0.06667" height="74.8462" style="stroke:#0A9EFD;stroke-width:2.0;" width="752.3333" x="10" y="83.9772"/><rect fill="#0A9EFD" fill-opacity="0.06667" height="132.7437" style="stroke:#0A9EFD;stroke-width:2.0;" width="752.3333" x="10" y="172.8234"/><rect fill="#0A9EFD" fill-opacity="0.06667" height="162.6411" style="stroke:#0A9EFD;stroke-width:2.0;" width="752.3333" x="10" y="319.5671"/><rect fill="#0A9EFD" fill-opacity="0.06667" height="45.8975" style="stroke:#0A9EFD;stroke-width:2.0;" width="429.5" x="332.8333" y="496.2082"/><rect fill="#0A9EFD" fill-opacity="0.06667" height="74.8462" style="stroke:#0A9EFD;stroke-width:2.0;" width="752.3333" x="10" y="556.1056"/><rect fill="#0A9EFD" fill-opacity="0.06667" height="264.436" style="stroke:#0A9EFD;stroke-width:2.0;" width="752.3333" x="10" y="644.9518"/><line style="stroke:#0A9EFD;stroke-width:0.5;stroke-dasharray:5.0,5.0;" x1="41" x2="41" y1="66.9772" y2="926.3879"/><line style="stroke:#0A9EFD;stroke-width:0.5;stroke-dasharray:5.0,5.0;" x1="363.8333" x2="363.8333" y1="66.9772" y2="926.3879"/><line style="stroke:#0A9EFD;stroke-width:0.5;stroke-dasharray:5.0,5.0;" x1="730.6667" x2="730.6667" y1="66.9772" y2="926.3879"/><rect fill="none" height="40.6667" rx="2.5" ry="2.5" style="stroke:#0A9EFD;stroke-width:2.0;" width="42.6667" x="20" y="25.3105"/><path d="M29.1333,32.3105 C28.5333,32.3105 28,32.8439 28,33.4439 L28,57.8105 C28,58.4105 28.5333,58.9439 29.1333,58.9439 L50.1667,58.9439 C50.7667,58.9439 51.3,58.4105 51.3,57.8105 L51.3,33.4439 C51.3,32.8439 50.7667,32.3105 50.1667,32.3105 L29.1333,32.3105 M31.3333,35.6439 L48,35.6439 L48,52.3105 L31.3333,52.3105 L31.3333,35.6439 M39.6667,53.9772 C40.9333,53.9772 41.7667,55.3772 41.1333,56.4772 C40.5,57.5772 38.8667,57.5772 38.2,56.4772 C37.5667,55.3772 38.3667,53.9772 39.6667,53.9772 " fill="#0A9EFD" style="stroke:;stroke-width:0.0;stroke-dasharray:;"/><rect fill="none" height="40.6667" rx="2.5" ry="2.5" style="stroke:#0A9EFD;stroke-width:2.0;" width="42.6667" x="20" y="925.3879"/><path d="M29.1333,932.3879 C28.5333,932.3879 28,932.9212 28,933.5212 L28,957.8879 C28,958.4879 28.5333,959.0212 29.1333,959.0212 L50.1667,959.0212 C50.7667,959.0212 51.3,958.4879 51.3,957.8879 L51.3,933.5212 C51.3,932.9212 50.7667,932.3879 50.1667,932.3879 L29.1333,932.3879 M31.3333,935.7212 L48,935.7212 L48,952.3879 L31.3333,952.3879 L31.3333,935.7212 M39.6667,954.0545 C40.9333,954.0545 41.7667,955.4545 41.1333,956.5545 C40.5,957.6545 38.8667,957.6545 38.2,956.5545 C37.5667,955.4545 38.3667,954.0545 39.6667,954.0545 " fill="#0A9EFD" style="stroke:;stroke-width:0.0;stroke-dasharray:;"/><rect fill="none" height="40.6667" rx="2.5" ry="2.5" style="stroke:#0A9EFD;stroke-width:2.0;" width="42.6667" x="342.8333" y="25.3105"/><path d="M350.8333,32.3105 L350.8333,45.6439 L364.1667,45.6439 L364.1667,32.3105 L350.8333,32.3105 M367.5,38.9772 L367.5,48.9772 L357.5,48.9772 L357.5,52.3105 L370.8333,52.3105 L370.8333,38.9772 L367.5,38.9772 M374.1667,45.6439 L374.1667,55.6439 L364.1667,55.6439 L364.1667,58.9772 L377.5,58.9772 L377.5,45.6439 L374.1667,45.6439 " fill="#0A9EFD" style="stroke:;stroke-width:0.0;stroke-dasharray:;"/><rect fill="none" height="40.6667" rx="2.5" ry="2.5" style="stroke:#0A9EFD;stroke-width:2.0;" width="42.6667" x="342.8333" y="925.3879"/><path d="M350.8333,932.3879 L350.8333,945.7212 L364.1667,945.7212 L364.1667,932.3879 L350.8333,932.3879 M367.5,939.0545 L367.5,949.0545 L357.5,949.0545 L357.5,952.3879 L370.8333,952.3879 L370.8333,939.0545 L367.5,939.0545 M374.1667,945.7212 L374.1667,955.7212 L364.1667,955.7212 L364.1667,959.0545 L377.5,959.0545 L377.5,945.7212 L374.1667,945.7212 " fill="#0A9EFD" style="stroke:;stroke-width:0.0;stroke-dasharray:;"/><rect fill="none" height="40.6667" rx="2.5" ry="2.5" style="stroke:#0A9EFD;stroke-width:2.0;" width="42.6667" x="709.6667" y="25.3105"/><path d="M718.8,32.3105 C718.2,32.3105 717.6667,32.8439 717.6667,33.4439 L717.6667,57.8105 C717.6667,58.4105 718.2,58.9439 718.8,58.9439 L739.8333,58.9439 C740.4333,58.9439 740.9667,58.4105 740.9667,57.8105 L740.9667,33.4439 C740.9667,32.8439 740.4333,32.3105 739.8333,32.3105 L718.8,32.3105 M721,35.6439 L737.6667,35.6439 L737.6667,52.3105 L721,52.3105 L721,35.6439 M729.3333,53.9772 C730.6,53.9772 731.4333,55.3772 730.8,56.4772 C730.1667,57.5772 728.5333,57.5772 727.8667,56.4772 C727.2333,55.3772 728.0333,53.9772 729.3333,53.9772 " fill="#0A9EFD" style="stroke:;stroke-width:0.0;stroke-dasharray:;"/><rect fill="none" height="40.6667" rx="2.5" ry="2.5" style="stroke:#0A9EFD;stroke-width:2.0;" width="42.6667" x="709.6667" y="925.3879"/><path d="M718.8,932.3879 C718.2,932.3879 717.6667,932.9212 717.6667,933.5212 L717.6667,957.8879 C717.6667,958.4879 718.2,959.0212 718.8,959.0212 L739.8333,959.0212 C740.4333,959.0212 740.9667,958.4879 740.9667,957.8879 L740.9667,933.5212 C740.9667,932.9212 740.4333,932.3879 739.8333,932.3879 L718.8,932.3879 M721,935.7212 L737.6667,935.7212 L737.6667,952.3879 L721,952.3879 L721,935.7212 M729.3333,954.0545 C730.6,954.0545 731.4333,955.4545 730.8,956.5545 C730.1667,957.6545 728.5333,957.6545 727.8667,956.5545 C727.2333,955.4545 728.0333,954.0545 729.3333,954.0545 " fill="#0A9EFD" style="stroke:;stroke-width:0.0;stroke-dasharray:;"/><path d="M10,83.9772 L167,83.9772 L167,90.9259 L157,100.9259 L10,100.9259 L10,83.9772 " fill="#EEEEEE" style="stroke:#0A9EFD;stroke-width:1.5;"/><rect fill="none" height="74.8462" style="stroke:#0A9EFD;stroke-width:2.0;" width="752.3333" x="10" y="83.9772"/><text fill="#000000" font-family="Arial" font-size="13" lengthAdjust="spacing" textLength="112" x="25" y="97.1711">Initialize the engine</text><polygon fill="#0A9EFD" points="352.1667,117.8747,362.1667,121.8747,352.1667,125.8747,356.1667,121.8747" style="stroke:#0A9EFD;stroke-width:1.0;"/><line style="stroke:#0A9EFD;stroke-width:2.0;" x1="41.3333" x2="358.1667" y1="121.8747" y2="121.8747"/><text fill="#0A9EFD" font-family="Arial" font-size="13" lengthAdjust="spacing" textLength="178" x="113.75" y="117.1198">Create and initialize the engine</text><polygon fill="#0A9EFD" points="375.1667,146.8234,365.1667,150.8234,375.1667,154.8234,371.1667,150.8234" style="stroke:#0A9EFD;stroke-width:1.0;"/><line style="stroke:#0A9EFD;stroke-width:2.0;" x1="369.1667" x2="730" y1="150.8234" y2="150.8234"/><text fill="#0A9EFD" font-family="Arial" font-size="13" lengthAdjust="spacing" textLength="178" x="458.5833" y="146.0685">Create and initialize the engine</text><path d="M10,172.8234 L171,172.8234 L171,179.7721 L161,189.7721 L10,189.7721 L10,172.8234 " fill="#EEEEEE" style="stroke:#0A9EFD;stroke-width:1.5;"/><rect fill="none" height="132.7437" style="stroke:#0A9EFD;stroke-width:2.0;" width="752.3333" x="10" y="172.8234"/><text fill="#000000" font-family="Arial" font-size="13" lengthAdjust="spacing" textLength="116" x="25" y="186.0173">Set video properties</text><polygon fill="#0A9EFD" points="352.1667,206.7209,362.1667,210.7209,352.1667,214.7209,356.1667,210.7209" style="stroke:#0A9EFD;stroke-width:1.0;"/><line style="stroke:#0A9EFD;stroke-width:2.0;" x1="41.3333" x2="358.1667" y1="210.7209" y2="210.7209"/><text fill="#0A9EFD" font-family="Arial" font-size="13" lengthAdjust="spacing" textLength="143" x="131.25" y="205.966">Enable the video module</text><polygon fill="#0A9EFD" points="375.1667,235.6696,365.1667,239.6696,375.1667,243.6696,371.1667,239.6696" style="stroke:#0A9EFD;stroke-width:1.0;"/><line style="stroke:#0A9EFD;stroke-width:2.0;" x1="369.1667" x2="730" y1="239.6696" y2="239.6696"/><text fill="#0A9EFD" font-family="Arial" font-size="13" lengthAdjust="spacing" textLength="143" x="476.0833" y="234.9147">Enable the video module</text><polygon fill="#0A9EFD" points="352.1667,264.6183,362.1667,268.6183,352.1667,272.6183,356.1667,268.6183" style="stroke:#0A9EFD;stroke-width:1.0;"/><line style="stroke:#0A9EFD;stroke-width:2.0;" x1="41.3333" x2="358.1667" y1="268.6183" y2="268.6183"/><text fill="#0A9EFD" font-family="Arial" font-size="13" lengthAdjust="spacing" textLength="131" x="137.25" y="263.8634">Initialize the local view</text><polygon fill="#0A9EFD" points="352.1667,293.5671,362.1667,297.5671,352.1667,301.5671,356.1667,297.5671" style="stroke:#0A9EFD;stroke-width:1.0;"/><line style="stroke:#0A9EFD;stroke-width:2.0;" x1="41.3333" x2="358.1667" y1="297.5671" y2="297.5671"/><text fill="#0A9EFD" font-family="Arial" font-size="13" lengthAdjust="spacing" textLength="157" x="124.25" y="292.8122">Display local video preview</text><path d="M10,319.5671 L128,319.5671 L128,326.5158 L118,336.5158 L10,336.5158 L10,319.5671 " fill="#EEEEEE" style="stroke:#0A9EFD;stroke-width:1.5;"/><rect fill="none" height="162.6411" style="stroke:#0A9EFD;stroke-width:2.0;" width="752.3333" x="10" y="319.5671"/><text fill="#000000" font-family="Arial" font-size="13" lengthAdjust="spacing" textLength="73" x="25" y="332.7609">Join channel</text><polygon fill="#0A9EFD" points="352.1667,368.4132,362.1667,372.4132,352.1667,376.4132,356.1667,372.4132" style="stroke:#0A9EFD;stroke-width:1.0;"/><line style="stroke:#0A9EFD;stroke-width:2.0;" x1="41.3333" x2="358.1667" y1="372.4132" y2="372.4132"/><text fill="#0A9EFD" font-family="Arial" font-size="13" lengthAdjust="spacing" textLength="120" x="142.75" y="352.7096">Join the channel and</text><text fill="#0A9EFD" font-family="Arial" font-size="13" lengthAdjust="spacing" textLength="141" x="134.25" y="367.6584">set the user role as host</text><polygon fill="#0A9EFD" points="375.1667,412.3107,365.1667,416.3107,375.1667,420.3107,371.1667,416.3107" style="stroke:#0A9EFD;stroke-width:1.0;"/><line style="stroke:#0A9EFD;stroke-width:2.0;" x1="369.1667" x2="730" y1="416.3107" y2="416.3107"/><text fill="#0A9EFD" font-family="Arial" font-size="13" lengthAdjust="spacing" textLength="120" x="487.5833" y="396.6071">Join the channel and</text><text fill="#0A9EFD" font-family="Arial" font-size="13" lengthAdjust="spacing" textLength="168" x="465.5833" y="411.5558">set the user role as audience</text><polygon fill="#0A9EFD" points="52.3333,441.2594,42.3333,445.2594,52.3333,449.2594,48.3333,445.2594" style="stroke:#0A9EFD;stroke-width:1.0;"/><line style="stroke:#0A9EFD;stroke-width:2.0;stroke-dasharray:2.0,2.0;" x1="46.3333" x2="363.1667" y1="445.2594" y2="445.2594"/><text fill="#0A9EFD" font-family="Arial" font-size="13" lengthAdjust="spacing" textLength="277" x="64.25" y="440.5046">Notify the host that the channel has been joined</text><polygon fill="#0A9EFD" points="719,470.2082,729,474.2082,719,478.2082,723,474.2082" style="stroke:#0A9EFD;stroke-width:1.0;"/><line style="stroke:#0A9EFD;stroke-width:2.0;stroke-dasharray:2.0,2.0;" x1="364.1667" x2="725" y1="474.2082" y2="474.2082"/><text fill="#0A9EFD" font-family="Arial" font-size="13" lengthAdjust="spacing" textLength="304" x="395.5833" y="469.4533">Notify the audience that the channel has been joined</text><path d="M332.8333,496.2082 L471.8333,496.2082 L471.8333,503.1569 L461.8333,513.1569 L332.8333,513.1569 L332.8333,496.2082 " fill="#EEEEEE" style="stroke:#0A9EFD;stroke-width:1.5;"/><rect fill="none" height="45.8975" style="stroke:#0A9EFD;stroke-width:2.0;" width="429.5" x="332.8333" y="496.2082"/><text fill="#000000" font-family="Arial" font-size="13" lengthAdjust="spacing" textLength="94" x="347.8333" y="509.402">Set remote view</text><polygon fill="#0A9EFD" points="375.1667,530.1056,365.1667,534.1056,375.1667,538.1056,371.1667,534.1056" style="stroke:#0A9EFD;stroke-width:1.0;"/><line style="stroke:#0A9EFD;stroke-width:2.0;" x1="369.1667" x2="730" y1="534.1056" y2="534.1056"/><text fill="#0A9EFD" font-family="Arial" font-size="13" lengthAdjust="spacing" textLength="144" x="475.5833" y="529.3507">Initialize the remote view</text><path d="M10,556.1056 L242,556.1056 L242,563.0544 L232,573.0544 L10,573.0544 L10,556.1056 " fill="#EEEEEE" style="stroke:#0A9EFD;stroke-width:1.5;"/><rect fill="none" height="74.8462" style="stroke:#0A9EFD;stroke-width:2.0;" width="752.3333" x="10" y="556.1056"/><text fill="#000000" font-family="Arial" font-size="13" lengthAdjust="spacing" textLength="187" x="25" y="569.2995">Start audio and video interaction</text><polygon fill="#0A9EFD" points="719,590.0031,729,594.0031,719,598.0031,723,594.0031" style="stroke:#0A9EFD;stroke-width:1.0;"/><line style="stroke:#0A9EFD;stroke-width:2.0;" x1="364.1667" x2="725" y1="594.0031" y2="594.0031"/><text fill="#0A9EFD" font-family="Arial" font-size="13" lengthAdjust="spacing" textLength="142" x="476.5833" y="589.2482">Receive audio and video</text><polygon fill="#0A9EFD" points="352.1667,618.9518,362.1667,622.9518,352.1667,626.9518,356.1667,622.9518" style="stroke:#0A9EFD;stroke-width:1.0;"/><line style="stroke:#0A9EFD;stroke-width:2.0;" x1="41.3333" x2="358.1667" y1="622.9518" y2="622.9518"/><text fill="#0A9EFD" font-family="Arial" font-size="13" lengthAdjust="spacing" textLength="125" x="140.25" y="618.1969">Send audio and video</text><path d="M10,644.9518 L237,644.9518 L237,651.9006 L227,661.9006 L10,661.9006 L10,644.9518 " fill="#EEEEEE" style="stroke:#0A9EFD;stroke-width:1.5;"/><rect fill="none" height="264.436" style="stroke:#0A9EFD;stroke-width:2.0;" width="752.3333" x="10" y="644.9518"/><text fill="#000000" font-family="Arial" font-size="13" lengthAdjust="spacing" textLength="182" x="25" y="658.1457">End audio and video interaction</text><polygon fill="#0A9EFD" points="352.1667,678.8493,362.1667,682.8493,352.1667,686.8493,356.1667,682.8493" style="stroke:#0A9EFD;stroke-width:1.0;"/><line style="stroke:#0A9EFD;stroke-width:2.0;" x1="41.3333" x2="358.1667" y1="682.8493" y2="682.8493"/><text fill="#0A9EFD" font-family="Arial" font-size="13" lengthAdjust="spacing" textLength="106" x="149.75" y="678.0944">Leave the channel</text><polygon fill="#0A9EFD" points="52.3333,722.7467,42.3333,726.7467,52.3333,730.7467,48.3333,726.7467" style="stroke:#0A9EFD;stroke-width:1.0;"/><line style="stroke:#0A9EFD;stroke-width:2.0;stroke-dasharray:2.0,2.0;" x1="46.3333" x2="363.1667" y1="726.7467" y2="726.7467"/><text fill="#0A9EFD" font-family="Arial" font-size="13" lengthAdjust="spacing" textLength="111" x="145.25" y="707.0431">Notify the host that</text><text fill="#0A9EFD" font-family="Arial" font-size="13" lengthAdjust="spacing" textLength="125" x="140.25" y="721.9919">it has left the channel</text><polygon fill="#0A9EFD" points="719,766.6442,729,770.6442,719,774.6442,723,770.6442" style="stroke:#0A9EFD;stroke-width:1.0;"/><line style="stroke:#0A9EFD;stroke-width:2.0;stroke-dasharray:2.0,2.0;" x1="364.1667" x2="725" y1="770.6442" y2="770.6442"/><text fill="#0A9EFD" font-family="Arial" font-size="13" lengthAdjust="spacing" textLength="138" x="476.5833" y="750.9406">Notify the audience that</text><text fill="#0A9EFD" font-family="Arial" font-size="13" lengthAdjust="spacing" textLength="165" x="465.0833" y="765.8893">the host has left the channel</text><polygon fill="#0A9EFD" points="375.1667,795.5929,365.1667,799.5929,375.1667,803.5929,371.1667,799.5929" style="stroke:#0A9EFD;stroke-width:1.0;"/><line style="stroke:#0A9EFD;stroke-width:2.0;" x1="369.1667" x2="730" y1="799.5929" y2="799.5929"/><text fill="#0A9EFD" font-family="Arial" font-size="13" lengthAdjust="spacing" textLength="106" x="494.5833" y="794.8381">Leave the channel</text><polygon fill="#0A9EFD" points="719,839.4904,729,843.4904,719,847.4904,723,843.4904" style="stroke:#0A9EFD;stroke-width:1.0;"/><line style="stroke:#0A9EFD;stroke-width:2.0;stroke-dasharray:2.0,2.0;" x1="364.1667" x2="725" y1="843.4904" y2="843.4904"/><text fill="#0A9EFD" font-family="Arial" font-size="13" lengthAdjust="spacing" textLength="138" x="476.5833" y="823.7868">Notify the audience that</text><text fill="#0A9EFD" font-family="Arial" font-size="13" lengthAdjust="spacing" textLength="125" x="485.0833" y="838.7355">it has left the channel</text><polygon fill="#0A9EFD" points="352.1667,868.4391,362.1667,872.4391,352.1667,876.4391,356.1667,872.4391" style="stroke:#0A9EFD;stroke-width:1.0;"/><line style="stroke:#0A9EFD;stroke-width:2.0;" x1="41.3333" x2="358.1667" y1="872.4391" y2="872.4391"/><text fill="#0A9EFD" font-family="Arial" font-size="13" lengthAdjust="spacing" textLength="109" x="148.25" y="867.6842">Destroy the engine</text><polygon fill="#0A9EFD" points="375.1667,897.3879,365.1667,901.3879,375.1667,905.3879,371.1667,901.3879" style="stroke:#0A9EFD;stroke-width:1.0;"/><line style="stroke:#0A9EFD;stroke-width:2.0;" x1="369.1667" x2="730" y1="901.3879" y2="901.3879"/><text fill="#0A9EFD" font-family="Arial" font-size="13" lengthAdjust="spacing" textLength="109" x="493.0833" y="896.633">Destroy the engine</text><!--SRC=[bLDBJy904BxtLumSl64yU2A4X8W9Fk91r1E9MTe1HfVPPdUBugztkgtOhJJYZJ3VQxxPdX2dkiWGrCfOzUBUYC-esEWaMPWFw8tpV01JutmloPNrb5Aks4DlwEWJ1nVde-6fLmkDVjG3vM0wUqoGCn1kBV1C6HgOJMwx1RJQeNMLW01R0Y71kCW8ESNZKeoV9ZyYAskA7AwPF2ajSF1h1EGLCIOI5_gZqdG0bnQLbng4HmV1edeyMEo_hMVeOHjQoAt9KUAZYvolkCmUs1LkOx92nuPTcAPEQqTjKgK5ZUyHQa8kbyRtuoeO1bmZzOqXXdIjc557_30ezUjXMSASmScMvR-5GmlMI5Ovn5eUJhJ6VyYgldaYJEYBWgGOmBtnjDm5TAakFvIF5DT2NI0ol8eNPdksn8ZOt_9_AxHkQN5ZF5R5DdThrT-4DHMyFE1WRiBpgGv0xD6gr9FXe3diLveFc29jiOsF3Z8hdteRq72y-ZsE_9fQTwYss2mZJ8VzEix1ykUoT-XCup8gijxaDpUkVivxlKwLxdp7dRSxO_HfeFFMxBe- -WFZikOl]--></g></svg>