<?xml version="1.0" encoding="us-ascii" standalone="no"?><svg xmlns="http://www.w3.org/2000/svg" xmlns:xlink="http://www.w3.org/1999/xlink" contentStyleType="text/css" height="964px" preserveAspectRatio="none" style="width:591px;height:964px;" version="1.1" viewBox="0 0 591 964" width="591px" zoomAndPan="magnify"><defs/><g><rect fill="none" height="962.9417" style="stroke:#0A9EFD;stroke-width:1.0;" width="589.3333" x="0" y="0"/><rect fill="#999999" fill-opacity="0.33333" height="952.9417" style="stroke:#0A9EFD;stroke-width:0.5;" width="50.6667" x="16" y="6"/><text fill="#0A9EFD" font-family="sans-serif" font-size="13" font-weight="bold" lengthAdjust="spacing" textLength="25" x="28.8333" y="19.4951">App</text><rect fill="#999999" fill-opacity="0.33333" height="952.9417" style="stroke:#0A9EFD;stroke-width:0.5;" width="74" x="275" y="6"/><text fill="#0A9EFD" font-family="sans-serif" font-size="13" font-weight="bold" lengthAdjust="spacing" textLength="68" x="278" y="19.4951">Video SDK</text><rect fill="#999999" fill-opacity="0.33333" height="952.9417" style="stroke:#0A9EFD;stroke-width:0.5;" width="96" x="489.3333" y="6"/><text fill="#0A9EFD" font-family="sans-serif" font-size="13" font-weight="bold" lengthAdjust="spacing" textLength="90" x="492.3333" y="19.4951">Agora SD-RTN</text><rect fill="#0A9EFD" fill-opacity="0.06667" height="60.8462" style="stroke:#0A9EFD;stroke-width:2.0;" width="333.3333" x="10" y="85.0182"/><rect fill="#0A9EFD" fill-opacity="0.06667" height="74.8462" style="stroke:#0A9EFD;stroke-width:2.0;" width="558.6667" x="10" y="159.8644"/><rect fill="#0A9EFD" fill-opacity="0.06667" height="177.5898" style="stroke:#0A9EFD;stroke-width:2.0;" width="558.6667" x="10" y="248.7106"/><rect fill="#0A9EFD" fill-opacity="0.06667" height="265.3848" style="stroke:#0A9EFD;stroke-width:2.0;" width="558.6667" x="10" y="440.3005"/><rect fill="#0A9EFD" fill-opacity="0.06667" height="177.5898" style="stroke:#0A9EFD;stroke-width:2.0;" width="558.6667" x="10" y="719.6852"/><line style="stroke:#0A9EFD;stroke-width:0.5;stroke-dasharray:5.0,5.0;" x1="41" x2="41" y1="68.0182" y2="914.2751"/><line style="stroke:#0A9EFD;stroke-width:0.5;stroke-dasharray:5.0,5.0;" x1="311.6667" x2="311.6667" y1="68.0182" y2="914.2751"/><line style="stroke:#0A9EFD;stroke-width:0.5;stroke-dasharray:5.0,5.0;" x1="537" x2="537" y1="68.0182" y2="914.2751"/><rect fill="none" height="40.6667" rx="2.5" ry="2.5" style="stroke:#0A9EFD;stroke-width:2.0;" width="42.6667" x="20" y="26.3516"/><path d="M29.1333,33.3516 C28.5333,33.3516 28,33.8849 28,34.4849 L28,58.8516 C28,59.4516 28.5333,59.9849 29.1333,59.9849 L50.1667,59.9849 C50.7667,59.9849 51.3,59.4516 51.3,58.8516 L51.3,34.4849 C51.3,33.8849 50.7667,33.3516 50.1667,33.3516 L29.1333,33.3516 M31.3333,36.6849 L48,36.6849 L48,53.3516 L31.3333,53.3516 L31.3333,36.6849 M39.6667,55.0182 C40.9333,55.0182 41.7667,56.4182 41.1333,57.5182 C40.5,58.6182 38.8667,58.6182 38.2,57.5182 C37.5667,56.4182 38.3667,55.0182 39.6667,55.0182 " fill="#0A9EFD" style="stroke:;stroke-width:0.0;stroke-dasharray:;"/><rect fill="none" height="40.6667" rx="2.5" ry="2.5" style="stroke:#0A9EFD;stroke-width:2.0;" width="42.6667" x="20" y="913.2751"/><path d="M29.1333,920.2751 C28.5333,920.2751 28,920.8084 28,921.4084 L28,945.7751 C28,946.3751 28.5333,946.9084 29.1333,946.9084 L50.1667,946.9084 C50.7667,946.9084 51.3,946.3751 51.3,945.7751 L51.3,921.4084 C51.3,920.8084 50.7667,920.2751 50.1667,920.2751 L29.1333,920.2751 M31.3333,923.6084 L48,923.6084 L48,940.2751 L31.3333,940.2751 L31.3333,923.6084 M39.6667,941.9417 C40.9333,941.9417 41.7667,943.3417 41.1333,944.4417 C40.5,945.5417 38.8667,945.5417 38.2,944.4417 C37.5667,943.3417 38.3667,941.9417 39.6667,941.9417 " fill="#0A9EFD" style="stroke:;stroke-width:0.0;stroke-dasharray:;"/><rect fill="none" height="40.6667" rx="2.5" ry="2.5" style="stroke:#0A9EFD;stroke-width:2.0;" width="42.6667" x="290.6667" y="26.3516"/><path d="M298.6667,33.3516 L298.6667,46.6849 L312,46.6849 L312,33.3516 L298.6667,33.3516 M315.3333,40.0182 L315.3333,50.0182 L305.3333,50.0182 L305.3333,53.3516 L318.6667,53.3516 L318.6667,40.0182 L315.3333,40.0182 M322,46.6849 L322,56.6849 L312,56.6849 L312,60.0182 L325.3333,60.0182 L325.3333,46.6849 L322,46.6849 " fill="#0A9EFD" style="stroke:;stroke-width:0.0;stroke-dasharray:;"/><rect fill="none" height="40.6667" rx="2.5" ry="2.5" style="stroke:#0A9EFD;stroke-width:2.0;" width="42.6667" x="290.6667" y="913.2751"/><path d="M298.6667,920.2751 L298.6667,933.6084 L312,933.6084 L312,920.2751 L298.6667,920.2751 M315.3333,926.9417 L315.3333,936.9417 L305.3333,936.9417 L305.3333,940.2751 L318.6667,940.2751 L318.6667,926.9417 L315.3333,926.9417 M322,933.6084 L322,943.6084 L312,943.6084 L312,946.9417 L325.3333,946.9417 L325.3333,933.6084 L322,933.6084 " fill="#0A9EFD" style="stroke:;stroke-width:0.0;stroke-dasharray:;"/><rect fill="none" height="40.6667" rx="2.5" ry="2.5" style="stroke:#0A9EFD;stroke-width:2.0;" width="42.6667" x="516" y="26.3516"/><path d="M539,33.3516 C534.9667,33.3516 531.4333,36.2182 530.6667,40.0182 C527,40.0182 524,43.0182 524,46.6849 C524,50.3516 527,53.3516 530.6667,53.3516 L545.6667,53.3516 C548.4333,53.3516 550.6667,51.1182 550.6667,48.3516 C550.6667,46.1849 549.2667,44.0516 547.3333,43.3516 L547.3333,41.6849 C547.3333,37.0849 543.6,33.3516 539,33.3516 " fill="#0A9EFD" style="stroke:;stroke-width:0.0;stroke-dasharray:;"/><rect fill="none" height="40.6667" rx="2.5" ry="2.5" style="stroke:#0A9EFD;stroke-width:2.0;" width="42.6667" x="516" y="913.2751"/><path d="M539,920.2751 C534.9667,920.2751 531.4333,923.1417 530.6667,926.9417 C527,926.9417 524,929.9417 524,933.6084 C524,937.2751 527,940.2751 530.6667,940.2751 L545.6667,940.2751 C548.4333,940.2751 550.6667,938.0417 550.6667,935.2751 C550.6667,933.1084 549.2667,930.9751 547.3333,930.2751 L547.3333,928.6084 C547.3333,924.0084 543.6,920.2751 539,920.2751 " fill="#0A9EFD" style="stroke:;stroke-width:0.0;stroke-dasharray:;"/><path d="M10,85.0182 L170,85.0182 L170,91.967 L160,101.967 L10,101.967 L10,85.0182 " fill="#EEEEEE" style="stroke:#0A9EFD;stroke-width:1.5;"/><rect fill="none" height="60.8462" style="stroke:#0A9EFD;stroke-width:2.0;" width="333.3333" x="10" y="85.0182"/><text fill="#000000" font-family="Arial" font-size="13" lengthAdjust="spacing" textLength="115" x="25" y="98.2121">Create a local client</text><polygon fill="#0A9EFD" points="300,133.8644,310,137.8644,300,141.8644,304,137.8644" style="stroke:#0A9EFD;stroke-width:1.0;"/><line style="stroke:#0A9EFD;stroke-width:2.0;" x1="41.3333" x2="306" y1="137.8644" y2="137.8644"/><text fill="#0A9EFD" font-family="Arial" font-size="13" lengthAdjust="spacing" textLength="132" x="110.6667" y="118.1608">AgoraRTC.createClient</text><text fill="#0A9EFD" font-family="Arial" font-size="13" lengthAdjust="spacing" textLength="94" x="131.6667" y="133.1095">Set mode to 'rtc'</text><path d="M10,159.8644 L127,159.8644 L127,166.8132 L117,176.8132 L10,176.8132 L10,159.8644 " fill="#EEEEEE" style="stroke:#0A9EFD;stroke-width:1.5;"/><rect fill="none" height="74.8462" style="stroke:#0A9EFD;stroke-width:2.0;" width="558.6667" x="10" y="159.8644"/><text fill="#000000" font-family="Arial" font-size="13" lengthAdjust="spacing" textLength="72" x="25" y="173.0583">Join channel</text><polygon fill="#0A9EFD" points="300,193.7619,310,197.7619,300,201.7619,304,197.7619" style="stroke:#0A9EFD;stroke-width:1.0;"/><line style="stroke:#0A9EFD;stroke-width:2.0;" x1="41.3333" x2="306" y1="197.7619" y2="197.7619"/><text fill="#0A9EFD" font-family="Arial" font-size="13" lengthAdjust="spacing" textLength="116" x="118.6667" y="193.007">AgoraRTCClient.join</text><polygon fill="#0A9EFD" points="525.3333,222.7106,535.3333,226.7106,525.3333,230.7106,529.3333,226.7106" style="stroke:#0A9EFD;stroke-width:1.0;"/><line style="stroke:#0A9EFD;stroke-width:2.0;" x1="312" x2="531.3333" y1="226.7106" y2="226.7106"/><text fill="#0A9EFD" font-family="Arial" font-size="13" lengthAdjust="spacing" textLength="119" x="365.1667" y="221.9557">Join channel request</text><path d="M10,248.7106 L327,248.7106 L327,255.6593 L317,265.6593 L10,265.6593 L10,248.7106 " fill="#EEEEEE" style="stroke:#0A9EFD;stroke-width:1.5;"/><rect fill="none" height="177.5898" style="stroke:#0A9EFD;stroke-width:2.0;" width="558.6667" x="10" y="248.7106"/><text fill="#000000" font-family="Arial" font-size="13" lengthAdjust="spacing" textLength="272" x="25" y="261.9045">Create and publish local audio and video tracks</text><polygon fill="#0A9EFD" points="300,297.5568,310,301.5568,300,305.5568,304,301.5568" style="stroke:#0A9EFD;stroke-width:1.0;"/><line style="stroke:#0A9EFD;stroke-width:2.0;" x1="41.3333" x2="306" y1="301.5568" y2="301.5568"/><text fill="#0A9EFD" font-family="Arial" font-size="13" lengthAdjust="spacing" textLength="137" x="108.1667" y="281.8532">Create local audio track</text><text fill="#0A9EFD" font-family="Arial" font-size="13" lengthAdjust="spacing" textLength="231" x="63.1667" y="296.8019">AgoraRTC.createMicrophoneAudioTrack</text><polygon fill="#0A9EFD" points="300,341.4543,310,345.4543,300,349.4543,304,345.4543" style="stroke:#0A9EFD;stroke-width:1.0;"/><line style="stroke:#0A9EFD;stroke-width:2.0;" x1="41.3333" x2="306" y1="345.4543" y2="345.4543"/><text fill="#0A9EFD" font-family="Arial" font-size="13" lengthAdjust="spacing" textLength="135" x="109.1667" y="325.7507">Create local video track</text><text fill="#0A9EFD" font-family="Arial" font-size="13" lengthAdjust="spacing" textLength="209" x="74.1667" y="340.6994">AgoraRTC.createCameraVideoTrack</text><polygon fill="#0A9EFD" points="300,385.3517,310,389.3517,300,393.3517,304,389.3517" style="stroke:#0A9EFD;stroke-width:1.0;"/><line style="stroke:#0A9EFD;stroke-width:2.0;" x1="41.3333" x2="306" y1="389.3517" y2="389.3517"/><text fill="#0A9EFD" font-family="Arial" font-size="13" lengthAdjust="spacing" textLength="207" x="73.1667" y="369.6481">Publish local audio and video tracks</text><text fill="#0A9EFD" font-family="Arial" font-size="13" lengthAdjust="spacing" textLength="137" x="110.1667" y="384.5968">AgoraRTCClient.publish</text><polygon fill="#0A9EFD" points="525.3333,414.3005,535.3333,418.3005,525.3333,422.3005,529.3333,418.3005" style="stroke:#0A9EFD;stroke-width:1.0;"/><line style="stroke:#0A9EFD;stroke-width:2.0;" x1="312" x2="531.3333" y1="418.3005" y2="418.3005"/><text fill="#0A9EFD" font-family="Arial" font-size="13" lengthAdjust="spacing" textLength="152" x="348.6667" y="413.5456">Send audio and video data</text><path d="M10,440.3005 L208,440.3005 L208,447.2492 L198,457.2492 L10,457.2492 L10,440.3005 " fill="#EEEEEE" style="stroke:#0A9EFD;stroke-width:1.5;"/><rect fill="none" height="265.3848" style="stroke:#0A9EFD;stroke-width:2.0;" width="558.6667" x="10" y="440.3005"/><text fill="#000000" font-family="Arial" font-size="13" lengthAdjust="spacing" textLength="153" x="25" y="453.4943">Subscribe to remote users</text><polygon fill="#0A9EFD" points="52.3333,489.1466,42.3333,493.1466,52.3333,497.1466,48.3333,493.1466" style="stroke:#0A9EFD;stroke-width:1.0;"/><line style="stroke:#0A9EFD;stroke-width:2.0;stroke-dasharray:2.0,2.0;" x1="46.3333" x2="536.3333" y1="493.1466" y2="493.1466"/><text fill="#0A9EFD" font-family="Arial" font-size="13" lengthAdjust="spacing" textLength="259" x="159.8333" y="473.443">Remote users publish audio and video tracks</text><text fill="#0A9EFD" font-family="Arial" font-size="13" lengthAdjust="spacing" textLength="151" x="215.8333" y="488.3918">client.on("user-published")</text><polygon fill="#0A9EFD" points="300,533.0441,310,537.0441,300,541.0441,304,537.0441" style="stroke:#0A9EFD;stroke-width:1.0;"/><line style="stroke:#0A9EFD;stroke-width:2.0;" x1="41.3333" x2="306" y1="537.0441" y2="537.0441"/><text fill="#0A9EFD" font-family="Arial" font-size="13" lengthAdjust="spacing" textLength="133" x="110.1667" y="517.3405">Get remote user object</text><text fill="#0A9EFD" font-family="Arial" font-size="13" lengthAdjust="spacing" textLength="170" x="93.6667" y="532.2892">AgoraRTCClient.remoteUsers</text><polygon fill="#0A9EFD" points="300,576.9416,310,580.9416,300,584.9416,304,580.9416" style="stroke:#0A9EFD;stroke-width:1.0;"/><line style="stroke:#0A9EFD;stroke-width:2.0;" x1="41.3333" x2="306" y1="580.9416" y2="580.9416"/><text fill="#0A9EFD" font-family="Arial" font-size="13" lengthAdjust="spacing" textLength="185" x="84.1667" y="561.238">Subscribe to remote user object</text><text fill="#0A9EFD" font-family="Arial" font-size="13" lengthAdjust="spacing" textLength="152" x="102.6667" y="576.1867">AgoraRTCClient.subscribe</text><polygon fill="#0A9EFD" points="323,605.8903,313,609.8903,323,613.8903,319,609.8903" style="stroke:#0A9EFD;stroke-width:1.0;"/><line style="stroke:#0A9EFD;stroke-width:2.0;" x1="317" x2="536.3333" y1="609.8903" y2="609.8903"/><text fill="#0A9EFD" font-family="Arial" font-size="13" lengthAdjust="spacing" textLength="167" x="341.1667" y="605.1354">Receive audio and video data</text><polygon fill="#0A9EFD" points="300,649.7878,310,653.7878,300,657.7878,304,653.7878" style="stroke:#0A9EFD;stroke-width:1.0;"/><line style="stroke:#0A9EFD;stroke-width:2.0;" x1="41.3333" x2="306" y1="653.7878" y2="653.7878"/><text fill="#0A9EFD" font-family="Arial" font-size="13" lengthAdjust="spacing" textLength="139" x="107.1667" y="634.0841">Get remote audio object</text><text fill="#0A9EFD" font-family="Arial" font-size="13" lengthAdjust="spacing" textLength="198" x="79.6667" y="649.0329">AgoraRTCRemoteUser.audioTrack</text><polygon fill="#0A9EFD" points="300,693.6852,310,697.6852,300,701.6852,304,697.6852" style="stroke:#0A9EFD;stroke-width:1.0;"/><line style="stroke:#0A9EFD;stroke-width:2.0;" x1="41.3333" x2="306" y1="697.6852" y2="697.6852"/><text fill="#0A9EFD" font-family="Arial" font-size="13" lengthAdjust="spacing" textLength="137" x="108.1667" y="677.9816">Get remote video object</text><text fill="#0A9EFD" font-family="Arial" font-size="13" lengthAdjust="spacing" textLength="196" x="80.6667" y="692.9303">AgoraRTCRemoteUser.videoTrack</text><path d="M10,719.6852 L159,719.6852 L159,726.634 L149,736.634 L10,736.634 L10,719.6852 " fill="#EEEEEE" style="stroke:#0A9EFD;stroke-width:1.5;"/><rect fill="none" height="177.5898" style="stroke:#0A9EFD;stroke-width:2.0;" width="558.6667" x="10" y="719.6852"/><text fill="#000000" font-family="Arial" font-size="13" lengthAdjust="spacing" textLength="104" x="25" y="732.8791">Leave the channel</text><polygon fill="#0A9EFD" points="300,768.5314,310,772.5314,300,776.5314,304,772.5314" style="stroke:#0A9EFD;stroke-width:1.0;"/><line style="stroke:#0A9EFD;stroke-width:2.0;" x1="41.3333" x2="306" y1="772.5314" y2="772.5314"/><text fill="#0A9EFD" font-family="Arial" font-size="13" lengthAdjust="spacing" textLength="163" x="95.1667" y="752.8278">Turn off the local audio track</text><text fill="#0A9EFD" font-family="Arial" font-size="13" lengthAdjust="spacing" textLength="167" x="95.1667" y="767.7765">MicrophoneAudioTrack.close</text><polygon fill="#0A9EFD" points="300,812.4289,310,816.4289,300,820.4289,304,816.4289" style="stroke:#0A9EFD;stroke-width:1.0;"/><line style="stroke:#0A9EFD;stroke-width:2.0;" x1="41.3333" x2="306" y1="816.4289" y2="816.4289"/><text fill="#0A9EFD" font-family="Arial" font-size="13" lengthAdjust="spacing" textLength="161" x="96.1667" y="796.7253">Turn off the local video track</text><text fill="#0A9EFD" font-family="Arial" font-size="13" lengthAdjust="spacing" textLength="145" x="106.1667" y="811.674">CameraVideoTrack.close</text><polygon fill="#0A9EFD" points="300,856.3263,310,860.3263,300,864.3263,304,860.3263" style="stroke:#0A9EFD;stroke-width:1.0;"/><line style="stroke:#0A9EFD;stroke-width:2.0;" x1="41.3333" x2="306" y1="860.3263" y2="860.3263"/><text fill="#0A9EFD" font-family="Arial" font-size="13" lengthAdjust="spacing" textLength="104" x="124.6667" y="840.6227">Leave the channel</text><text fill="#0A9EFD" font-family="Arial" font-size="13" lengthAdjust="spacing" textLength="125" x="116.1667" y="855.5715">AgoraRTCClient.leave</text><polygon fill="#0A9EFD" points="525.3333,885.2751,535.3333,889.2751,525.3333,893.2751,529.3333,889.2751" style="stroke:#0A9EFD;stroke-width:1.0;"/><line style="stroke:#0A9EFD;stroke-width:2.0;" x1="312" x2="531.3333" y1="889.2751" y2="889.2751"/><text fill="#0A9EFD" font-family="Arial" font-size="13" lengthAdjust="spacing" textLength="167" x="341.1667" y="884.5202">Request to leave the channel</text><!--SRC=[ZPFBRjim44Nt-egf5asxaD15LuPXm72007t1aDsk2WGZQX8peKcL3wFjrvUaf8JH8-YMl7Fcpl3o3PTCk8O0xvN6M_F8PSdTMMHPhNv3lctRF6jHMyvuYz92lZRyBwq-VjYitrgi1TbD3cXWkzzd91lmLNtf3zwGWiFrvsM0m3-aJGVmmX5W6npvyw8wVbjcCA5Sqo6yxXbnhvLhOQS9hHyEX68eW0bEqcRURB7n3LSGUrJ7NScYS1VlVqeua8Mpyckn2gwqPLS1F40_AIw1dL1A4ZEi3b8-U5NcBugDzxLwKGIQVZaoDeKEJht_rjM2crFl6Lt3LJo_n8rQZUpH97txobGTDNwCqNXVETEgFIb9so0x1jKIA6as1UtmJ1hZ2uyX-_ymdm3xPVKZ9_iwX9SSbpTeCLtQmTM6QLx7Tz9qLjw-CpvJmT2wA2AfIiwVThjeh8j8gUIxF5GKVG4r-VjaoXkVZwGVgFg1c9tErMc-3vRwwYNRYnWp58G5hOUn6F4BpUzerccddFIedZoME1UBXD1rU8rmUSv4yavV2BrJUwAPRtDqMeAwkulNSo6UIstflxsXroal4poEx8GmyJXz1X4aIKQhxXk7LnIJ2SFu_m00]--></g></svg>