<?xml version="1.0" encoding="us-ascii" standalone="no"?><svg xmlns="http://www.w3.org/2000/svg" xmlns:xlink="http://www.w3.org/1999/xlink" contentStyleType="text/css" height="940px" preserveAspectRatio="none" style="width:753px;height:940px;" version="1.1" viewBox="0 0 753 940" width="753px" zoomAndPan="magnify"><defs/><g><rect fill="none" height="938.6079" style="stroke:#0A9EFD;stroke-width:1.0;" width="751.5" x="0" y="0"/><rect fill="#999999" fill-opacity="0.33333" height="928.6079" style="stroke:#0A9EFD;stroke-width:0.5;" width="83" x="16" y="6"/><rect fill="#999999" fill-opacity="0.33333" height="928.6079" style="stroke:#0A9EFD;stroke-width:0.5;" width="92" x="311.5" y="6"/><rect fill="#999999" fill-opacity="0.33333" height="928.6079" style="stroke:#0A9EFD;stroke-width:0.5;" width="114" x="627.5" y="6"/><rect fill="#0A9EFD" fill-opacity="0.06667" height="74.8462" style="stroke:#0A9EFD;stroke-width:2.0;" width="737.5" x="10" y="58.0986"/><rect fill="#0A9EFD" fill-opacity="0.06667" height="132.7437" style="stroke:#0A9EFD;stroke-width:2.0;" width="737.5" x="10" y="146.9448"/><rect fill="#0A9EFD" fill-opacity="0.06667" height="162.6411" style="stroke:#0A9EFD;stroke-width:2.0;" width="737.5" x="10" y="293.6885"/><rect fill="#0A9EFD" fill-opacity="0.06667" height="45.8975" style="stroke:#0A9EFD;stroke-width:2.0;" width="442" x="305.5" y="470.3296"/><rect fill="#0A9EFD" fill-opacity="0.06667" height="74.8462" style="stroke:#0A9EFD;stroke-width:2.0;" width="737.5" x="10" y="530.2271"/><rect fill="#0A9EFD" fill-opacity="0.06667" height="264.436" style="stroke:#0A9EFD;stroke-width:2.0;" width="737.5" x="10" y="619.0732"/><line style="stroke:#0A9EFD;stroke-width:0.5;stroke-dasharray:5.0,5.0;" x1="57" x2="57" y1="41.0986" y2="900.5093"/><line style="stroke:#0A9EFD;stroke-width:0.5;stroke-dasharray:5.0,5.0;" x1="357.5" x2="357.5" y1="41.0986" y2="900.5093"/><line style="stroke:#0A9EFD;stroke-width:0.5;stroke-dasharray:5.0,5.0;" x1="684.5" x2="684.5" y1="41.0986" y2="900.5093"/><rect fill="none" height="30.0986" rx="2.5" ry="2.5" style="stroke:#0A9EFD;stroke-width:2.0;" width="75" x="20" y="10"/><text fill="#0A9EFD" font-family="Arial" font-size="14" lengthAdjust="spacing" textLength="61" x="27" y="30.1318">App: Host</text><rect fill="none" height="30.0986" rx="2.5" ry="2.5" style="stroke:#0A9EFD;stroke-width:2.0;" width="75" x="20" y="899.5093"/><text fill="#0A9EFD" font-family="Arial" font-size="14" lengthAdjust="spacing" textLength="61" x="27" y="919.6411">App: Host</text><rect fill="none" height="30.0986" rx="2.5" ry="2.5" style="stroke:#0A9EFD;stroke-width:2.0;" width="84" x="315.5" y="10"/><text fill="#0A9EFD" font-family="Arial" font-size="14" lengthAdjust="spacing" textLength="70" x="322.5" y="30.1318">Agora SDK</text><rect fill="none" height="30.0986" rx="2.5" ry="2.5" style="stroke:#0A9EFD;stroke-width:2.0;" width="84" x="315.5" y="899.5093"/><text fill="#0A9EFD" font-family="Arial" font-size="14" lengthAdjust="spacing" textLength="70" x="322.5" y="919.6411">Agora SDK</text><rect fill="none" height="30.0986" rx="2.5" ry="2.5" style="stroke:#0A9EFD;stroke-width:2.0;" width="106" x="631.5" y="10"/><text fill="#0A9EFD" font-family="Arial" font-size="14" lengthAdjust="spacing" textLength="92" x="638.5" y="30.1318">App: Audience</text><rect fill="none" height="30.0986" rx="2.5" ry="2.5" style="stroke:#0A9EFD;stroke-width:2.0;" width="106" x="631.5" y="899.5093"/><text fill="#0A9EFD" font-family="Arial" font-size="14" lengthAdjust="spacing" textLength="92" x="638.5" y="919.6411">App: Audience</text><path d="M10,58.0986 L166,58.0986 L166,65.0474 L156,75.0474 L10,75.0474 L10,58.0986 " fill="#EEEEEE" style="stroke:#0A9EFD;stroke-width:1.5;"/><rect fill="none" height="74.8462" style="stroke:#0A9EFD;stroke-width:2.0;" width="737.5" x="10" y="58.0986"/><text fill="#000000" font-family="Arial" font-size="13" lengthAdjust="spacing" textLength="111" x="25" y="71.2925">Initialize the engine</text><polygon fill="#0A9EFD" points="345.5,91.9961,355.5,95.9961,345.5,99.9961,349.5,95.9961" style="stroke:#0A9EFD;stroke-width:1.0;"/><line style="stroke:#0A9EFD;stroke-width:2.0;" x1="57.5" x2="351.5" y1="95.9961" y2="95.9961"/><text fill="#0A9EFD" font-family="Arial" font-size="13" lengthAdjust="spacing" textLength="178" x="118.5" y="91.2412">Create and initialize the engine</text><polygon fill="#0A9EFD" points="368.5,120.9448,358.5,124.9448,368.5,128.9448,364.5,124.9448" style="stroke:#0A9EFD;stroke-width:1.0;"/><line style="stroke:#0A9EFD;stroke-width:2.0;" x1="362.5" x2="683.5" y1="124.9448" y2="124.9448"/><text fill="#0A9EFD" font-family="Arial" font-size="13" lengthAdjust="spacing" textLength="178" x="432" y="120.1899">Create and initialize the engine</text><path d="M10,146.9448 L169,146.9448 L169,153.8936 L159,163.8936 L10,163.8936 L10,146.9448 " fill="#EEEEEE" style="stroke:#0A9EFD;stroke-width:1.5;"/><rect fill="none" height="132.7437" style="stroke:#0A9EFD;stroke-width:2.0;" width="737.5" x="10" y="146.9448"/><text fill="#000000" font-family="Arial" font-size="13" lengthAdjust="spacing" textLength="114" x="25" y="160.1387">Set video properties</text><polygon fill="#0A9EFD" points="345.5,180.8423,355.5,184.8423,345.5,188.8423,349.5,184.8423" style="stroke:#0A9EFD;stroke-width:1.0;"/><line style="stroke:#0A9EFD;stroke-width:2.0;" x1="57.5" x2="351.5" y1="184.8423" y2="184.8423"/><text fill="#0A9EFD" font-family="Arial" font-size="13" lengthAdjust="spacing" textLength="141" x="137" y="180.0874">Enable the video module</text><polygon fill="#0A9EFD" points="368.5,209.791,358.5,213.791,368.5,217.791,364.5,213.791" style="stroke:#0A9EFD;stroke-width:1.0;"/><line style="stroke:#0A9EFD;stroke-width:2.0;" x1="362.5" x2="683.5" y1="213.791" y2="213.791"/><text fill="#0A9EFD" font-family="Arial" font-size="13" lengthAdjust="spacing" textLength="141" x="450.5" y="209.0361">Enable the video module</text><polygon fill="#0A9EFD" points="345.5,238.7397,355.5,242.7397,345.5,246.7397,349.5,242.7397" style="stroke:#0A9EFD;stroke-width:1.0;"/><line style="stroke:#0A9EFD;stroke-width:2.0;" x1="57.5" x2="351.5" y1="242.7397" y2="242.7397"/><text fill="#0A9EFD" font-family="Arial" font-size="13" lengthAdjust="spacing" textLength="128" x="143.5" y="237.9849">Initialize the local view</text><polygon fill="#0A9EFD" points="345.5,267.6885,355.5,271.6885,345.5,275.6885,349.5,271.6885" style="stroke:#0A9EFD;stroke-width:1.0;"/><line style="stroke:#0A9EFD;stroke-width:2.0;" x1="57.5" x2="351.5" y1="271.6885" y2="271.6885"/><text fill="#0A9EFD" font-family="Arial" font-size="13" lengthAdjust="spacing" textLength="153" x="131" y="266.9336">Display local video preview</text><path d="M10,293.6885 L127,293.6885 L127,300.6372 L117,310.6372 L10,310.6372 L10,293.6885 " fill="#EEEEEE" style="stroke:#0A9EFD;stroke-width:1.5;"/><rect fill="none" height="162.6411" style="stroke:#0A9EFD;stroke-width:2.0;" width="737.5" x="10" y="293.6885"/><text fill="#000000" font-family="Arial" font-size="13" lengthAdjust="spacing" textLength="72" x="25" y="306.8823">Join channel</text><polygon fill="#0A9EFD" points="345.5,342.5347,355.5,346.5347,345.5,350.5347,349.5,346.5347" style="stroke:#0A9EFD;stroke-width:1.0;"/><line style="stroke:#0A9EFD;stroke-width:2.0;" x1="57.5" x2="351.5" y1="346.5347" y2="346.5347"/><text fill="#0A9EFD" font-family="Arial" font-size="13" lengthAdjust="spacing" textLength="119" x="148" y="326.8311">Join the channel and</text><text fill="#0A9EFD" font-family="Arial" font-size="13" lengthAdjust="spacing" textLength="141" x="139" y="341.7798">set the user role as host</text><polygon fill="#0A9EFD" points="368.5,386.4321,358.5,390.4321,368.5,394.4321,364.5,390.4321" style="stroke:#0A9EFD;stroke-width:1.0;"/><line style="stroke:#0A9EFD;stroke-width:2.0;" x1="362.5" x2="683.5" y1="390.4321" y2="390.4321"/><text fill="#0A9EFD" font-family="Arial" font-size="13" lengthAdjust="spacing" textLength="119" x="461.5" y="370.7285">Join the channel and</text><text fill="#0A9EFD" font-family="Arial" font-size="13" lengthAdjust="spacing" textLength="168" x="439" y="385.6772">set the user role as audience</text><polygon fill="#0A9EFD" points="68.5,415.3809,58.5,419.3809,68.5,423.3809,64.5,419.3809" style="stroke:#0A9EFD;stroke-width:1.0;"/><line style="stroke:#0A9EFD;stroke-width:2.0;stroke-dasharray:2.0,2.0;" x1="62.5" x2="356.5" y1="419.3809" y2="419.3809"/><text fill="#0A9EFD" font-family="Arial" font-size="13" lengthAdjust="spacing" textLength="276" x="69.5" y="414.626">Notify the host that the channel has been joined</text><polygon fill="#0A9EFD" points="672.5,444.3296,682.5,448.3296,672.5,452.3296,676.5,448.3296" style="stroke:#0A9EFD;stroke-width:1.0;"/><line style="stroke:#0A9EFD;stroke-width:2.0;stroke-dasharray:2.0,2.0;" x1="357.5" x2="678.5" y1="448.3296" y2="448.3296"/><text fill="#0A9EFD" font-family="Arial" font-size="13" lengthAdjust="spacing" textLength="303" x="369.5" y="443.5747">Notify the audience that the channel has been joined</text><path d="M305.5,470.3296 L442.5,470.3296 L442.5,477.2783 L432.5,487.2783 L305.5,487.2783 L305.5,470.3296 " fill="#EEEEEE" style="stroke:#0A9EFD;stroke-width:1.5;"/><rect fill="none" height="45.8975" style="stroke:#0A9EFD;stroke-width:2.0;" width="442" x="305.5" y="470.3296"/><text fill="#000000" font-family="Arial" font-size="13" lengthAdjust="spacing" textLength="92" x="320.5" y="483.5234">Set remote view</text><polygon fill="#0A9EFD" points="368.5,504.2271,358.5,508.2271,368.5,512.2271,364.5,508.2271" style="stroke:#0A9EFD;stroke-width:1.0;"/><line style="stroke:#0A9EFD;stroke-width:2.0;" x1="362.5" x2="683.5" y1="508.2271" y2="508.2271"/><text fill="#0A9EFD" font-family="Arial" font-size="13" lengthAdjust="spacing" textLength="141" x="450.5" y="503.4722">Initialize the remote view</text><path d="M10,530.2271 L240,530.2271 L240,537.1758 L230,547.1758 L10,547.1758 L10,530.2271 " fill="#EEEEEE" style="stroke:#0A9EFD;stroke-width:1.5;"/><rect fill="none" height="74.8462" style="stroke:#0A9EFD;stroke-width:2.0;" width="737.5" x="10" y="530.2271"/><text fill="#000000" font-family="Arial" font-size="13" lengthAdjust="spacing" textLength="185" x="25" y="543.4209">Start audio and video interaction</text><polygon fill="#0A9EFD" points="672.5,564.1245,682.5,568.1245,672.5,572.1245,676.5,568.1245" style="stroke:#0A9EFD;stroke-width:1.0;"/><line style="stroke:#0A9EFD;stroke-width:2.0;" x1="357.5" x2="678.5" y1="568.1245" y2="568.1245"/><text fill="#0A9EFD" font-family="Arial" font-size="13" lengthAdjust="spacing" textLength="138" x="452" y="563.3696">Receive audio and video</text><polygon fill="#0A9EFD" points="345.5,593.0732,355.5,597.0732,345.5,601.0732,349.5,597.0732" style="stroke:#0A9EFD;stroke-width:1.0;"/><line style="stroke:#0A9EFD;stroke-width:2.0;" x1="57.5" x2="351.5" y1="597.0732" y2="597.0732"/><text fill="#0A9EFD" font-family="Arial" font-size="13" lengthAdjust="spacing" textLength="123" x="146" y="592.3184">Send audio and video</text><path d="M10,619.0732 L235,619.0732 L235,626.022 L225,636.022 L10,636.022 L10,619.0732 " fill="#EEEEEE" style="stroke:#0A9EFD;stroke-width:1.5;"/><rect fill="none" height="264.436" style="stroke:#0A9EFD;stroke-width:2.0;" width="737.5" x="10" y="619.0732"/><text fill="#000000" font-family="Arial" font-size="13" lengthAdjust="spacing" textLength="180" x="25" y="632.2671">End audio and video interaction</text><polygon fill="#0A9EFD" points="345.5,652.9707,355.5,656.9707,345.5,660.9707,349.5,656.9707" style="stroke:#0A9EFD;stroke-width:1.0;"/><line style="stroke:#0A9EFD;stroke-width:2.0;" x1="57.5" x2="351.5" y1="656.9707" y2="656.9707"/><text fill="#0A9EFD" font-family="Arial" font-size="13" lengthAdjust="spacing" textLength="104" x="155.5" y="652.2158">Leave the channel</text><polygon fill="#0A9EFD" points="68.5,696.8682,58.5,700.8682,68.5,704.8682,64.5,700.8682" style="stroke:#0A9EFD;stroke-width:1.0;"/><line style="stroke:#0A9EFD;stroke-width:2.0;stroke-dasharray:2.0,2.0;" x1="62.5" x2="356.5" y1="700.8682" y2="700.8682"/><text fill="#0A9EFD" font-family="Arial" font-size="13" lengthAdjust="spacing" textLength="110" x="150.5" y="681.1646">Notify the host that</text><text fill="#0A9EFD" font-family="Arial" font-size="13" lengthAdjust="spacing" textLength="124" x="145.5" y="696.1133">it has left the channel</text><polygon fill="#0A9EFD" points="672.5,740.7656,682.5,744.7656,672.5,748.7656,676.5,744.7656" style="stroke:#0A9EFD;stroke-width:1.0;"/><line style="stroke:#0A9EFD;stroke-width:2.0;stroke-dasharray:2.0,2.0;" x1="357.5" x2="678.5" y1="744.7656" y2="744.7656"/><text fill="#0A9EFD" font-family="Arial" font-size="13" lengthAdjust="spacing" textLength="137" x="450.5" y="725.062">Notify the audience that</text><text fill="#0A9EFD" font-family="Arial" font-size="13" lengthAdjust="spacing" textLength="164" x="439" y="740.0107">the host has left the channel</text><polygon fill="#0A9EFD" points="368.5,769.7144,358.5,773.7144,368.5,777.7144,364.5,773.7144" style="stroke:#0A9EFD;stroke-width:1.0;"/><line style="stroke:#0A9EFD;stroke-width:2.0;" x1="362.5" x2="683.5" y1="773.7144" y2="773.7144"/><text fill="#0A9EFD" font-family="Arial" font-size="13" lengthAdjust="spacing" textLength="104" x="469" y="768.9595">Leave the channel</text><polygon fill="#0A9EFD" points="672.5,813.6118,682.5,817.6118,672.5,821.6118,676.5,817.6118" style="stroke:#0A9EFD;stroke-width:1.0;"/><line style="stroke:#0A9EFD;stroke-width:2.0;stroke-dasharray:2.0,2.0;" x1="357.5" x2="678.5" y1="817.6118" y2="817.6118"/><text fill="#0A9EFD" font-family="Arial" font-size="13" lengthAdjust="spacing" textLength="137" x="450.5" y="797.9082">Notify the audience that</text><text fill="#0A9EFD" font-family="Arial" font-size="13" lengthAdjust="spacing" textLength="124" x="459" y="812.8569">it has left the channel</text><polygon fill="#0A9EFD" points="345.5,842.5605,355.5,846.5605,345.5,850.5605,349.5,846.5605" style="stroke:#0A9EFD;stroke-width:1.0;"/><line style="stroke:#0A9EFD;stroke-width:2.0;" x1="57.5" x2="351.5" y1="846.5605" y2="846.5605"/><text fill="#0A9EFD" font-family="Arial" font-size="13" lengthAdjust="spacing" textLength="109" x="153" y="841.8057">Destroy the engine</text><polygon fill="#0A9EFD" points="368.5,871.5093,358.5,875.5093,368.5,879.5093,364.5,875.5093" style="stroke:#0A9EFD;stroke-width:1.0;"/><line style="stroke:#0A9EFD;stroke-width:2.0;" x1="362.5" x2="683.5" y1="875.5093" y2="875.5093"/><text fill="#0A9EFD" font-family="Arial" font-size="13" lengthAdjust="spacing" textLength="109" x="466.5" y="870.7544">Destroy the engine</text><!--SRC=[bLFDJi904BxtAKRkzG48CI52WZ_n87eZCKixqj5bjjbkKNnwPxU0tK8LJpJCzpVVj1V4cQvp1BKoLhrKxyINLAzraYpD9oIbieuoAXKx68pBSWWpKxa1g0fcywS4EGV1dGHxFPXFxW9OVdy5U-LndHDoXe4mVfxy45RMr2NSC3bIchuGN860l2B6H690UkKDXd1jKJbPHNXq4YogvuF5VcyzHmSRoj50QKs9aXoho7dAQgaRTeDRcxpMiM4VfgtJsL6RJ6b1uqU4cb1LQhKzZ9jW672jrBU66B92CQEE-67WzNT3NyA2eP8j_RzrXHQiaQnoY4Bk7Qtn7xBQdJGH9gIY82c6y60SlMu3sglBWtAHOY7K9IB3ctXXVc1BZ8Yzb_zReNDBYslZi2cslLkd_ZQihU3atGtc9hm-pG687LgLEJ8SD4Tfe_c86T86k_Ze87F_gdS1BSVfyJZoQslTezfWkumm7QMxE2VBNyZUeJEDhr6HkqsEkN7r2pxezQhqvplllFqPeqy3AsVDjk-ZFp7sDNy3]--></g></svg>