<?xml version="1.0" encoding="us-ascii" standalone="no"?><svg xmlns="http://www.w3.org/2000/svg" xmlns:xlink="http://www.w3.org/1999/xlink" contentStyleType="text/css" height="787px" preserveAspectRatio="none" style="width:808px;height:787px;" version="1.1" viewBox="0 0 808 787" width="808px" zoomAndPan="magnify"><defs/><g><rect fill="none" height="785.557" style="stroke:#0A9EFD;stroke-width:1.0;" width="806" x="0" y="0"/><rect fill="#999999" fill-opacity="0.33333" height="775.557" style="stroke:#0A9EFD;stroke-width:0.5;" width="66" x="8.3333" y="6"/><text fill="#0A9EFD" font-family="sans-serif" font-size="13" font-weight="bold" lengthAdjust="spacing" textLength="60" x="11.3333" y="19.4951">App: Host</text><rect fill="#999999" fill-opacity="0.33333" height="775.557" style="stroke:#0A9EFD;stroke-width:0.5;" width="74" x="351.6667" y="6"/><text fill="#0A9EFD" font-family="sans-serif" font-size="13" font-weight="bold" lengthAdjust="spacing" textLength="68" x="354.6667" y="19.4951">Video SDK</text><rect fill="#999999" fill-opacity="0.33333" height="775.557" style="stroke:#0A9EFD;stroke-width:0.5;" width="99" x="703" y="6"/><text fill="#0A9EFD" font-family="sans-serif" font-size="13" font-weight="bold" lengthAdjust="spacing" textLength="93" x="706" y="19.4951">App: Audience</text><rect fill="#0A9EFD" fill-opacity="0.06667" height="74.8462" style="stroke:#0A9EFD;stroke-width:2.0;" width="773.8333" x="10" y="85.0182"/><rect fill="#0A9EFD" fill-opacity="0.06667" height="103.7949" style="stroke:#0A9EFD;stroke-width:2.0;" width="410" x="10" y="173.8644"/><rect fill="#0A9EFD" fill-opacity="0.06667" height="132.7437" style="stroke:#0A9EFD;stroke-width:2.0;" width="773.8333" x="10" y="291.6593"/><rect fill="#0A9EFD" fill-opacity="0.06667" height="132.7437" style="stroke:#0A9EFD;stroke-width:2.0;" width="773.8333" x="10" y="438.403"/><rect fill="#0A9EFD" fill-opacity="0.06667" height="45.8975" style="stroke:#0A9EFD;stroke-width:2.0;" width="426.5" x="357.3333" y="585.1466"/><rect fill="#0A9EFD" fill-opacity="0.06667" height="74.8462" style="stroke:#0A9EFD;stroke-width:2.0;" width="773.8333" x="10" y="645.0441"/><line style="stroke:#0A9EFD;stroke-width:0.5;stroke-dasharray:5.0,5.0;" x1="41" x2="41" y1="68.0182" y2="736.8903"/><line style="stroke:#0A9EFD;stroke-width:0.5;stroke-dasharray:5.0,5.0;" x1="388.3333" x2="388.3333" y1="68.0182" y2="736.8903"/><line style="stroke:#0A9EFD;stroke-width:0.5;stroke-dasharray:5.0,5.0;" x1="752.1667" x2="752.1667" y1="68.0182" y2="736.8903"/><rect fill="none" height="40.6667" rx="2.5" ry="2.5" style="stroke:#0A9EFD;stroke-width:2.0;" width="42.6667" x="20" y="26.3516"/><path d="M29.1333,33.3516 C28.5333,33.3516 28,33.8849 28,34.4849 L28,58.8516 C28,59.4516 28.5333,59.9849 29.1333,59.9849 L50.1667,59.9849 C50.7667,59.9849 51.3,59.4516 51.3,58.8516 L51.3,34.4849 C51.3,33.8849 50.7667,33.3516 50.1667,33.3516 L29.1333,33.3516 M31.3333,36.6849 L48,36.6849 L48,53.3516 L31.3333,53.3516 L31.3333,36.6849 M39.6667,55.0182 C40.9333,55.0182 41.7667,56.4182 41.1333,57.5182 C40.5,58.6182 38.8667,58.6182 38.2,57.5182 C37.5667,56.4182 38.3667,55.0182 39.6667,55.0182 " fill="#0A9EFD" style="stroke:;stroke-width:0.0;stroke-dasharray:;"/><rect fill="none" height="40.6667" rx="2.5" ry="2.5" style="stroke:#0A9EFD;stroke-width:2.0;" width="42.6667" x="20" y="735.8903"/><path d="M29.1333,742.8903 C28.5333,742.8903 28,743.4236 28,744.0236 L28,768.3903 C28,768.9903 28.5333,769.5236 29.1333,769.5236 L50.1667,769.5236 C50.7667,769.5236 51.3,768.9903 51.3,768.3903 L51.3,744.0236 C51.3,743.4236 50.7667,742.8903 50.1667,742.8903 L29.1333,742.8903 M31.3333,746.2236 L48,746.2236 L48,762.8903 L31.3333,762.8903 L31.3333,746.2236 M39.6667,764.557 C40.9333,764.557 41.7667,765.957 41.1333,767.057 C40.5,768.157 38.8667,768.157 38.2,767.057 C37.5667,765.957 38.3667,764.557 39.6667,764.557 " fill="#0A9EFD" style="stroke:;stroke-width:0.0;stroke-dasharray:;"/><rect fill="none" height="40.6667" rx="2.5" ry="2.5" style="stroke:#0A9EFD;stroke-width:2.0;" width="42.6667" x="367.3333" y="26.3516"/><path d="M375.3333,33.3516 L375.3333,46.6849 L388.6667,46.6849 L388.6667,33.3516 L375.3333,33.3516 M392,40.0182 L392,50.0182 L382,50.0182 L382,53.3516 L395.3333,53.3516 L395.3333,40.0182 L392,40.0182 M398.6667,46.6849 L398.6667,56.6849 L388.6667,56.6849 L388.6667,60.0182 L402,60.0182 L402,46.6849 L398.6667,46.6849 " fill="#0A9EFD" style="stroke:;stroke-width:0.0;stroke-dasharray:;"/><rect fill="none" height="40.6667" rx="2.5" ry="2.5" style="stroke:#0A9EFD;stroke-width:2.0;" width="42.6667" x="367.3333" y="735.8903"/><path d="M375.3333,742.8903 L375.3333,756.2236 L388.6667,756.2236 L388.6667,742.8903 L375.3333,742.8903 M392,749.557 L392,759.557 L382,759.557 L382,762.8903 L395.3333,762.8903 L395.3333,749.557 L392,749.557 M398.6667,756.2236 L398.6667,766.2236 L388.6667,766.2236 L388.6667,769.557 L402,769.557 L402,756.2236 L398.6667,756.2236 " fill="#0A9EFD" style="stroke:;stroke-width:0.0;stroke-dasharray:;"/><rect fill="none" height="40.6667" rx="2.5" ry="2.5" style="stroke:#0A9EFD;stroke-width:2.0;" width="42.6667" x="731.1667" y="26.3516"/><path d="M740.3,33.3516 C739.7,33.3516 739.1667,33.8849 739.1667,34.4849 L739.1667,58.8516 C739.1667,59.4516 739.7,59.9849 740.3,59.9849 L761.3333,59.9849 C761.9333,59.9849 762.4667,59.4516 762.4667,58.8516 L762.4667,34.4849 C762.4667,33.8849 761.9333,33.3516 761.3333,33.3516 L740.3,33.3516 M742.5,36.6849 L759.1667,36.6849 L759.1667,53.3516 L742.5,53.3516 L742.5,36.6849 M750.8333,55.0182 C752.1,55.0182 752.9333,56.4182 752.3,57.5182 C751.6667,58.6182 750.0333,58.6182 749.3667,57.5182 C748.7333,56.4182 749.5333,55.0182 750.8333,55.0182 " fill="#0A9EFD" style="stroke:;stroke-width:0.0;stroke-dasharray:;"/><rect fill="none" height="40.6667" rx="2.5" ry="2.5" style="stroke:#0A9EFD;stroke-width:2.0;" width="42.6667" x="731.1667" y="735.8903"/><path d="M740.3,742.8903 C739.7,742.8903 739.1667,743.4236 739.1667,744.0236 L739.1667,768.3903 C739.1667,768.9903 739.7,769.5236 740.3,769.5236 L761.3333,769.5236 C761.9333,769.5236 762.4667,768.9903 762.4667,768.3903 L762.4667,744.0236 C762.4667,743.4236 761.9333,742.8903 761.3333,742.8903 L740.3,742.8903 M742.5,746.2236 L759.1667,746.2236 L759.1667,762.8903 L742.5,762.8903 L742.5,746.2236 M750.8333,764.557 C752.1,764.557 752.9333,765.957 752.3,767.057 C751.6667,768.157 750.0333,768.157 749.3667,767.057 C748.7333,765.957 749.5333,764.557 750.8333,764.557 " fill="#0A9EFD" style="stroke:;stroke-width:0.0;stroke-dasharray:;"/><path d="M10,85.0182 L216,85.0182 L216,91.967 L206,101.967 L10,101.967 L10,85.0182 " fill="#EEEEEE" style="stroke:#0A9EFD;stroke-width:1.5;"/><rect fill="none" height="74.8462" style="stroke:#0A9EFD;stroke-width:2.0;" width="773.8333" x="10" y="85.0182"/><text fill="#000000" font-family="Arial" font-size="13" lengthAdjust="spacing" textLength="161" x="25" y="98.2121">Initialize AgoraRtcEngineKit</text><polygon fill="#0A9EFD" points="376.6667,118.9157,386.6667,122.9157,376.6667,126.9157,380.6667,122.9157" style="stroke:#0A9EFD;stroke-width:1.0;"/><line style="stroke:#0A9EFD;stroke-width:2.0;" x1="41.3333" x2="382.6667" y1="122.9157" y2="122.9157"/><text fill="#0A9EFD" font-family="Arial" font-size="13" lengthAdjust="spacing" textLength="139" x="145.5" y="118.1608">sharedEngineWithAppId</text><polygon fill="#0A9EFD" points="399.6667,147.8644,389.6667,151.8644,399.6667,155.8644,395.6667,151.8644" style="stroke:#0A9EFD;stroke-width:1.0;"/><line style="stroke:#0A9EFD;stroke-width:2.0;" x1="393.6667" x2="751.5" y1="151.8644" y2="151.8644"/><text fill="#0A9EFD" font-family="Arial" font-size="13" lengthAdjust="spacing" textLength="139" x="501.0833" y="147.1095">sharedEngineWithAppId</text><path d="M10,173.8644 L134,173.8644 L134,180.8132 L124,190.8132 L10,190.8132 L10,173.8644 " fill="#EEEEEE" style="stroke:#0A9EFD;stroke-width:1.5;"/><rect fill="none" height="103.7949" style="stroke:#0A9EFD;stroke-width:2.0;" width="410" x="10" y="173.8644"/><text fill="#000000" font-family="Arial" font-size="13" lengthAdjust="spacing" textLength="79" x="25" y="187.0583">Set local view</text><polygon fill="#0A9EFD" points="376.6667,207.7619,386.6667,211.7619,376.6667,215.7619,380.6667,211.7619" style="stroke:#0A9EFD;stroke-width:1.0;"/><line style="stroke:#0A9EFD;stroke-width:2.0;" x1="41.3333" x2="382.6667" y1="211.7619" y2="211.7619"/><text fill="#0A9EFD" font-family="Arial" font-size="13" lengthAdjust="spacing" textLength="71" x="179.5" y="207.007">enableVideo</text><polygon fill="#0A9EFD" points="376.6667,236.7106,386.6667,240.7106,376.6667,244.7106,380.6667,240.7106" style="stroke:#0A9EFD;stroke-width:1.0;"/><line style="stroke:#0A9EFD;stroke-width:2.0;" x1="41.3333" x2="382.6667" y1="240.7106" y2="240.7106"/><text fill="#0A9EFD" font-family="Arial" font-size="13" lengthAdjust="spacing" textLength="70" x="180" y="235.9557">startPreview</text><polygon fill="#0A9EFD" points="376.6667,265.6593,386.6667,269.6593,376.6667,273.6593,380.6667,269.6593" style="stroke:#0A9EFD;stroke-width:1.0;"/><line style="stroke:#0A9EFD;stroke-width:2.0;" x1="41.3333" x2="382.6667" y1="269.6593" y2="269.6593"/><text fill="#0A9EFD" font-family="Arial" font-size="13" lengthAdjust="spacing" textLength="96" x="167" y="264.9045">setupLocalVideo</text><path d="M10,291.6593 L240,291.6593 L240,298.6081 L230,308.6081 L10,308.6081 L10,291.6593 " fill="#EEEEEE" style="stroke:#0A9EFD;stroke-width:1.5;"/><rect fill="none" height="132.7437" style="stroke:#0A9EFD;stroke-width:2.0;" width="773.8333" x="10" y="291.6593"/><text fill="#000000" font-family="Arial" font-size="13" lengthAdjust="spacing" textLength="185" x="25" y="304.8532">Configure ChannelMediaOptions</text><polygon fill="#0A9EFD" points="376.6667,325.5568,386.6667,329.5568,376.6667,333.5568,380.6667,329.5568" style="stroke:#0A9EFD;stroke-width:1.0;"/><line style="stroke:#0A9EFD;stroke-width:2.0;" x1="41.3333" x2="382.6667" y1="329.5568" y2="329.5568"/><text fill="#0A9EFD" font-family="Arial" font-size="13" lengthAdjust="spacing" textLength="304" x="63" y="324.8019">channelProfile(AgoraChannelProfileLiveBroadcasting)</text><polygon fill="#0A9EFD" points="399.6667,354.5055,389.6667,358.5055,399.6667,362.5055,395.6667,358.5055" style="stroke:#0A9EFD;stroke-width:1.0;"/><line style="stroke:#0A9EFD;stroke-width:2.0;" x1="393.6667" x2="751.5" y1="358.5055" y2="358.5055"/><text fill="#0A9EFD" font-family="Arial" font-size="13" lengthAdjust="spacing" textLength="304" x="418.5833" y="353.7507">channelProfile(AgoraChannelProfileLiveBroadcasting)</text><polygon fill="#0A9EFD" points="376.6667,383.4543,386.6667,387.4543,376.6667,391.4543,380.6667,387.4543" style="stroke:#0A9EFD;stroke-width:1.0;"/><line style="stroke:#0A9EFD;stroke-width:2.0;" x1="41.3333" x2="382.6667" y1="387.4543" y2="387.4543"/><text fill="#0A9EFD" font-family="Arial" font-size="13" lengthAdjust="spacing" textLength="256" x="87" y="382.6994">clientRoleType(AgoraClientRoleBroadcaster)</text><polygon fill="#0A9EFD" points="399.6667,412.403,389.6667,416.403,399.6667,420.403,395.6667,416.403" style="stroke:#0A9EFD;stroke-width:1.0;"/><line style="stroke:#0A9EFD;stroke-width:2.0;" x1="393.6667" x2="751.5" y1="416.403" y2="416.403"/><text fill="#0A9EFD" font-family="Arial" font-size="13" lengthAdjust="spacing" textLength="240" x="450.5833" y="411.6481">clientRoleType(AgoraClientRoleAudience)</text><path d="M10,438.403 L138,438.403 L138,445.3517 L128,455.3517 L10,455.3517 L10,438.403 " fill="#EEEEEE" style="stroke:#0A9EFD;stroke-width:1.5;"/><rect fill="none" height="132.7437" style="stroke:#0A9EFD;stroke-width:2.0;" width="773.8333" x="10" y="438.403"/><text fill="#000000" font-family="Arial" font-size="13" lengthAdjust="spacing" textLength="83" x="25" y="451.5968">Join a channel</text><polygon fill="#0A9EFD" points="376.6667,472.3005,386.6667,476.3005,376.6667,480.3005,380.6667,476.3005" style="stroke:#0A9EFD;stroke-width:1.0;"/><line style="stroke:#0A9EFD;stroke-width:2.0;" x1="41.3333" x2="382.6667" y1="476.3005" y2="476.3005"/><text fill="#0A9EFD" font-family="Arial" font-size="13" lengthAdjust="spacing" textLength="154" x="138" y="471.5456">joinChannel(demoChannel)</text><polygon fill="#0A9EFD" points="740.5,501.2492,750.5,505.2492,740.5,509.2492,744.5,505.2492" style="stroke:#0A9EFD;stroke-width:1.0;"/><line style="stroke:#0A9EFD;stroke-width:2.0;stroke-dasharray:2.0,2.0;" x1="388.6667" x2="746.5" y1="505.2492" y2="505.2492"/><text fill="#0A9EFD" font-family="Arial" font-size="13" lengthAdjust="spacing" textLength="120" x="510.5833" y="500.4943">didJoinChannel(host)</text><polygon fill="#0A9EFD" points="399.6667,530.1979,389.6667,534.1979,399.6667,538.1979,395.6667,534.1979" style="stroke:#0A9EFD;stroke-width:1.0;"/><line style="stroke:#0A9EFD;stroke-width:2.0;" x1="393.6667" x2="751.5" y1="534.1979" y2="534.1979"/><text fill="#0A9EFD" font-family="Arial" font-size="13" lengthAdjust="spacing" textLength="154" x="493.5833" y="529.443">joinChannel(demoChannel)</text><polygon fill="#0A9EFD" points="52.3333,559.1466,42.3333,563.1466,52.3333,567.1466,48.3333,563.1466" style="stroke:#0A9EFD;stroke-width:1.0;"/><line style="stroke:#0A9EFD;stroke-width:2.0;stroke-dasharray:2.0,2.0;" x1="46.3333" x2="387.6667" y1="563.1466" y2="563.1466"/><text fill="#0A9EFD" font-family="Arial" font-size="13" lengthAdjust="spacing" textLength="147" x="141.5" y="558.3918">didJoinChannel(audience)</text><path d="M357.3333,585.1466 L512.3333,585.1466 L512.3333,592.0954 L502.3333,602.0954 L357.3333,602.0954 L357.3333,585.1466 " fill="#EEEEEE" style="stroke:#0A9EFD;stroke-width:1.5;"/><rect fill="none" height="45.8975" style="stroke:#0A9EFD;stroke-width:2.0;" width="426.5" x="357.3333" y="585.1466"/><text fill="#000000" font-family="Arial" font-size="13" lengthAdjust="spacing" textLength="110" x="372.3333" y="598.3405">Set up remote view</text><polygon fill="#0A9EFD" points="399.6667,619.0441,389.6667,623.0441,399.6667,627.0441,395.6667,623.0441" style="stroke:#0A9EFD;stroke-width:1.0;"/><line style="stroke:#0A9EFD;stroke-width:2.0;" x1="393.6667" x2="751.5" y1="623.0441" y2="623.0441"/><text fill="#0A9EFD" font-family="Arial" font-size="13" lengthAdjust="spacing" textLength="110" x="515.5833" y="618.2892">setupRemoteVideo</text><path d="M10,645.0441 L240,645.0441 L240,651.9928 L230,661.9928 L10,661.9928 L10,645.0441 " fill="#EEEEEE" style="stroke:#0A9EFD;stroke-width:1.5;"/><rect fill="none" height="74.8462" style="stroke:#0A9EFD;stroke-width:2.0;" width="773.8333" x="10" y="645.0441"/><text fill="#000000" font-family="Arial" font-size="13" lengthAdjust="spacing" textLength="185" x="25" y="658.238">Start audio and video interaction</text><polygon fill="#0A9EFD" points="740.5,678.9416,750.5,682.9416,740.5,686.9416,744.5,682.9416" style="stroke:#0A9EFD;stroke-width:1.0;"/><line style="stroke:#0A9EFD;stroke-width:2.0;stroke-dasharray:2.0,2.0;" x1="388.6667" x2="746.5" y1="682.9416" y2="682.9416"/><text fill="#0A9EFD" font-family="Arial" font-size="13" lengthAdjust="spacing" textLength="138" x="501.5833" y="678.1867">Receive audio and video</text><polygon fill="#0A9EFD" points="376.6667,707.8903,386.6667,711.8903,376.6667,715.8903,380.6667,711.8903" style="stroke:#0A9EFD;stroke-width:1.0;"/><line style="stroke:#0A9EFD;stroke-width:2.0;stroke-dasharray:2.0,2.0;" x1="41.3333" x2="382.6667" y1="711.8903" y2="711.8903"/><text fill="#0A9EFD" font-family="Arial" font-size="13" lengthAdjust="spacing" textLength="123" x="153.5" y="707.1354">Send audio and video</text><!--SRC=[dLDBJnin4BxlhvZcWCWXY0EdA8gK1YIU0cKfFLQ3FMm6ZBsolMdfh-zuDqlZf0N4QLUU-HwU-Vo5hJAD9i3AUVmHdjWUSFDiYkBU_OB1hAx7SEf271Gr-iYAQxGH1fF0lsbyT3YTx4MyDnId0y00f-LjGLQ3ODS4Twp9GNbyyNy2Wo_aGqSWZLi4hODPevciee-vc7qx_ajIUTVKS6OvCXffXrcww2Ag4rknfGkEXRY6qJHfZo4iqPFkQjyvBaN-J1V2-4w7wFLQ9KKmJg615TFFZ9riijdE95UDSgqRJpk0GB6fBnDP1zgGcJlxm5NZ2UPBj9RC5Md6wpgoio4ZKLtznhi7DhJV3c2UdLtoYhvwXrfXY6ohONRZp-0pVIFBYmjdwFQbxl6lPwyuybkoRyBwI0mtPtBks0BsXZCJZr9QczxNzEpM_yD2gZ2IBf4UWsPzlj6ubEJdfjwb4SqT6loNrnGJ-NWXYTH59OjPsloYBUwilannWSJg02Neg_QHiPKHeahxRvacer57jI15ig1jG3UUNgzCBsQx8sd-0G00]--></g></svg>