<svg xmlns="http://www.w3.org/2000/svg" xmlns:xlink="http://www.w3.org/1999/xlink" contentStyleType="text/css" data-diagram-type="SEQUENCE" height="968px" preserveAspectRatio="none" style="width:601px;height:968px;" version="1.1" viewBox="0 0 601 968" width="601px" zoomAndPan="magnify"><?plantuml 1.2026.4?><defs/><g><rect fill="none" height="966.1683" style="stroke:#0A9EFD;stroke-width:1;" width="599.8309" x="0" y="0"/><rect fill="#999999" fill-opacity="0.33333" height="955.1683" style="stroke:#0A9EFD;stroke-width:0.5;" width="50.6667" x="16" y="6"/><text fill="#0A9EFD" font-family="sans-serif" font-size="13" font-weight="700" lengthAdjust="spacing" textLength="25.27" x="28.6983" y="19.4951">App</text><rect fill="#999999" fill-opacity="0.33333" height="955.1683" style="stroke:#0A9EFD;stroke-width:0.5;" width="72.4536" x="278.437" y="6"/><text fill="#0A9EFD" font-family="sans-serif" font-size="13" font-weight="700" lengthAdjust="spacing" textLength="66.4536" x="281.437" y="19.4951">Video SDK</text><rect fill="#999999" fill-opacity="0.33333" height="955.1683" style="stroke:#0A9EFD;stroke-width:0.5;" width="99.3154" x="495.5155" y="6"/><text fill="#0A9EFD" font-family="sans-serif" font-size="13" font-weight="700" lengthAdjust="spacing" textLength="85.9473" x="498.5155" y="21.7217">Agora SDRTN</text><text fill="#0A9EFD" font-family="sans-serif" font-size="10" font-weight="700" lengthAdjust="spacing" textLength="7.3682" x="584.4627" y="16.3809">&#174;</text><rect fill="#0A9EFD" fill-opacity="0.06667" height="60.8462" style="stroke:#0A9EFD;stroke-width:2;" width="335.9972" x="10" y="87.2448"/><rect fill="#0A9EFD" fill-opacity="0.06667" height="74.8462" style="stroke:#0A9EFD;stroke-width:2;" width="566.5065" x="10" y="162.091"/><rect fill="#0A9EFD" fill-opacity="0.06667" height="177.5898" style="stroke:#0A9EFD;stroke-width:2;" width="566.5065" x="10" y="250.9372"/><rect fill="#0A9EFD" fill-opacity="0.06667" height="265.3848" style="stroke:#0A9EFD;stroke-width:2;" width="566.5065" x="10" y="442.527"/><rect fill="#0A9EFD" fill-opacity="0.06667" height="177.5898" style="stroke:#0A9EFD;stroke-width:2;" width="566.5065" x="10" y="721.9118"/><g class="participant-lifeline" data-entity-uid="part1" data-qualified-name="APP" data-source-line="4" id="part1-lifeline"><g><title>.size.40...tablet.</title><rect fill="#000000" fill-opacity="0.00000" height="846.2568" width="8" x="37.3333" y="70.2448"/><line style="stroke:#0A9EFD;stroke-width:0.5;stroke-dasharray:5,5;" x1="41" x2="41" y1="70.2448" y2="916.5016"/></g></g><g class="participant-lifeline" data-entity-uid="part2" data-qualified-name="SDK" data-source-line="8" id="part2-lifeline"><g><title>.size.40...layers.</title><rect fill="#000000" fill-opacity="0.00000" height="846.2568" width="8" x="310.6638" y="70.2448"/><line style="stroke:#0A9EFD;stroke-width:0.5;stroke-dasharray:5,5;" x1="314.3305" x2="314.3305" y1="70.2448" y2="916.5016"/></g></g><g class="participant-lifeline" data-entity-uid="part3" data-qualified-name="RTN" data-source-line="12" id="part3-lifeline"><g><title>.size.40...cloud.</title><rect fill="#000000" fill-opacity="0.00000" height="846.2568" width="8" x="541.1732" y="70.2448"/><line style="stroke:#0A9EFD;stroke-width:0.5;stroke-dasharray:5,5;" x1="544.8398" x2="544.8398" y1="70.2448" y2="916.5016"/></g></g><g class="participant participant-head" data-entity-uid="part1" data-qualified-name="APP" data-source-line="4" id="part1-head"><rect fill="none" height="40.6667" rx="2.5" ry="2.5" style="stroke:#0A9EFD;stroke-width:2;" width="42.6667" x="20" y="28.5781"/><path d="M29.1333,35.5781 C28.5333,35.5781 28,36.1115 28,36.7115 L28,61.0781 C28,61.6781 28.5333,62.2115 29.1333,62.2115 L50.1667,62.2115 C50.7667,62.2115 51.3,61.6781 51.3,61.0781 L51.3,36.7115 C51.3,36.1115 50.7667,35.5781 50.1667,35.5781 L29.1333,35.5781 M31.3333,38.9115 L48,38.9115 L48,55.5781 L31.3333,55.5781 L31.3333,38.9115 M39.6667,57.2448 C40.9333,57.2448 41.7667,58.6448 41.1333,59.7448 C40.5,60.8448 38.8667,60.8448 38.2,59.7448 C37.5667,58.6448 38.3667,57.2448 39.6667,57.2448" fill="#0A9EFD"/></g><g class="participant participant-tail" data-entity-uid="part1" data-qualified-name="APP" data-source-line="4" id="part1-tail"><rect fill="none" height="40.6667" rx="2.5" ry="2.5" style="stroke:#0A9EFD;stroke-width:2;" width="42.6667" x="20" y="915.5016"/><path d="M29.1333,922.5016 C28.5333,922.5016 28,923.035 28,923.635 L28,948.0016 C28,948.6016 28.5333,949.135 29.1333,949.135 L50.1667,949.135 C50.7667,949.135 51.3,948.6016 51.3,948.0016 L51.3,923.635 C51.3,923.035 50.7667,922.5016 50.1667,922.5016 L29.1333,922.5016 M31.3333,925.835 L48,925.835 L48,942.5016 L31.3333,942.5016 L31.3333,925.835 M39.6667,944.1683 C40.9333,944.1683 41.7667,945.5683 41.1333,946.6683 C40.5,947.7683 38.8667,947.7683 38.2,946.6683 C37.5667,945.5683 38.3667,944.1683 39.6667,944.1683" fill="#0A9EFD"/></g><g class="participant participant-head" data-entity-uid="part2" data-qualified-name="SDK" data-source-line="8" id="part2-head"><rect fill="none" height="40.6667" rx="2.5" ry="2.5" style="stroke:#0A9EFD;stroke-width:2;" width="42.6667" x="293.3305" y="28.5781"/><path d="M301.3305,35.5781 L301.3305,48.9115 L314.6638,48.9115 L314.6638,35.5781 L301.3305,35.5781 M317.9972,42.2448 L317.9972,52.2448 L307.9972,52.2448 L307.9972,55.5781 L321.3305,55.5781 L321.3305,42.2448 L317.9972,42.2448 M324.6638,48.9115 L324.6638,58.9115 L314.6638,58.9115 L314.6638,62.2448 L327.9972,62.2448 L327.9972,48.9115 L324.6638,48.9115" fill="#0A9EFD"/></g><g class="participant participant-tail" data-entity-uid="part2" data-qualified-name="SDK" data-source-line="8" id="part2-tail"><rect fill="none" height="40.6667" rx="2.5" ry="2.5" style="stroke:#0A9EFD;stroke-width:2;" width="42.6667" x="293.3305" y="915.5016"/><path d="M301.3305,922.5016 L301.3305,935.835 L314.6638,935.835 L314.6638,922.5016 L301.3305,922.5016 M317.9972,929.1683 L317.9972,939.1683 L307.9972,939.1683 L307.9972,942.5016 L321.3305,942.5016 L321.3305,929.1683 L317.9972,929.1683 M324.6638,935.835 L324.6638,945.835 L314.6638,945.835 L314.6638,949.1683 L327.9972,949.1683 L327.9972,935.835 L324.6638,935.835" fill="#0A9EFD"/></g><g class="participant participant-head" data-entity-uid="part3" data-qualified-name="RTN" data-source-line="12" id="part3-head"><rect fill="none" height="40.6667" rx="2.5" ry="2.5" style="stroke:#0A9EFD;stroke-width:2;" width="42.6667" x="523.8398" y="28.5781"/><path d="M546.8398,38.9115 C542.8065,38.9115 539.2732,41.7781 538.5065,45.5781 C534.8398,45.5781 531.8398,48.5781 531.8398,52.2448 C531.8398,55.9115 534.8398,58.9115 538.5065,58.9115 L553.5065,58.9115 C556.2732,58.9115 558.5065,56.6781 558.5065,53.9115 C558.5065,51.7448 557.1065,49.6115 555.1732,48.9115 L555.1732,47.2448 C555.1732,42.6448 551.4398,38.9115 546.8398,38.9115" fill="#0A9EFD"/></g><g class="participant participant-tail" data-entity-uid="part3" data-qualified-name="RTN" data-source-line="12" id="part3-tail"><rect fill="none" height="40.6667" rx="2.5" ry="2.5" style="stroke:#0A9EFD;stroke-width:2;" width="42.6667" x="523.8398" y="915.5016"/><path d="M546.8398,925.835 C542.8065,925.835 539.2732,928.7016 538.5065,932.5016 C534.8398,932.5016 531.8398,935.5016 531.8398,939.1683 C531.8398,942.835 534.8398,945.835 538.5065,945.835 L553.5065,945.835 C556.2732,945.835 558.5065,943.6016 558.5065,940.835 C558.5065,938.6683 557.1065,936.535 555.1732,935.835 L555.1732,934.1683 C555.1732,929.5683 551.4398,925.835 546.8398,925.835" fill="#0A9EFD"/></g><path d="M10,87.2448 L169.1689,87.2448 L169.1689,94.1935 L159.1689,104.1935 L10,104.1935 L10,87.2448" fill="#EEEEEE" style="stroke:#0A9EFD;stroke-width:1.5;"/><rect fill="none" height="60.8462" style="stroke:#0A9EFD;stroke-width:2;" width="335.9972" x="10" y="87.2448"/><text fill="#000000" font-family="Arial" font-size="13" lengthAdjust="spacing" textLength="114.1689" x="25" y="100.4386">Create a local client</text><g class="message" data-entity-1="part1" data-entity-2="part2" data-source-line="16" id="msg1"><polygon fill="#0A9EFD" points="302.6638,136.091,312.6638,140.091,302.6638,144.091,306.6638,140.091" style="stroke:#0A9EFD;stroke-width:1;stroke-linejoin:miter;stroke-miterlimit:10;"/><line style="stroke:#0A9EFD;stroke-width:2;" x1="41.3333" x2="308.6638" y1="140.091" y2="140.091"/><text fill="#0A9EFD" font-family="Arial" font-size="13" lengthAdjust="spacing" textLength="134.3862" x="110.8055" y="120.3874">AgoraRTC.createClient</text><text fill="#0A9EFD" font-family="Arial" font-size="13" lengthAdjust="spacing" textLength="93.1138" x="133.2476" y="135.3361">Set mode to 'rtc'</text></g><path d="M10,162.091 L127.998,162.091 L127.998,169.0397 L117.998,179.0397 L10,179.0397 L10,162.091" fill="#EEEEEE" style="stroke:#0A9EFD;stroke-width:1.5;"/><rect fill="none" height="74.8462" style="stroke:#0A9EFD;stroke-width:2;" width="566.5065" x="10" y="162.091"/><text fill="#000000" font-family="Arial" font-size="13" lengthAdjust="spacing" textLength="72.998" x="25" y="175.2848">Join channel</text><g class="message" data-entity-1="part1" data-entity-2="part2" data-source-line="20" id="msg2"><polygon fill="#0A9EFD" points="302.6638,195.9884,312.6638,199.9884,302.6638,203.9884,306.6638,199.9884" style="stroke:#0A9EFD;stroke-width:1;stroke-linejoin:miter;stroke-miterlimit:10;"/><line style="stroke:#0A9EFD;stroke-width:2;" x1="41.3333" x2="308.6638" y1="199.9884" y2="199.9884"/><text fill="#0A9EFD" font-family="Arial" font-size="13" lengthAdjust="spacing" textLength="118.4917" x="118.7527" y="195.2336">AgoraRTCClient.join</text></g><g class="message" data-entity-1="part2" data-entity-2="part3" data-source-line="21" id="msg3"><polygon fill="#0A9EFD" points="533.1732,224.9372,543.1732,228.9372,533.1732,232.9372,537.1732,228.9372" style="stroke:#0A9EFD;stroke-width:1;stroke-linejoin:miter;stroke-miterlimit:10;"/><line style="stroke:#0A9EFD;stroke-width:2;" x1="314.6638" x2="539.1732" y1="228.9372" y2="228.9372"/><text fill="#0A9EFD" font-family="Arial" font-size="13" lengthAdjust="spacing" textLength="119.9707" x="369.9331" y="224.1823">Join channel request</text></g><path d="M10,250.9372 L328.1714,250.9372 L328.1714,257.8859 L318.1714,267.8859 L10,267.8859 L10,250.9372" fill="#EEEEEE" style="stroke:#0A9EFD;stroke-width:1.5;"/><rect fill="none" height="177.5898" style="stroke:#0A9EFD;stroke-width:2;" width="566.5065" x="10" y="250.9372"/><text fill="#000000" font-family="Arial" font-size="13" lengthAdjust="spacing" textLength="273.1714" x="25" y="264.131">Create and publish local audio and video tracks</text><g class="message" data-entity-1="part1" data-entity-2="part2" data-source-line="25" id="msg4"><polygon fill="#0A9EFD" points="302.6638,299.7834,312.6638,303.7834,302.6638,307.7834,306.6638,303.7834" style="stroke:#0A9EFD;stroke-width:1;stroke-linejoin:miter;stroke-miterlimit:10;"/><line style="stroke:#0A9EFD;stroke-width:2;" x1="41.3333" x2="308.6638" y1="303.7834" y2="303.7834"/><text fill="#0A9EFD" font-family="Arial" font-size="13" lengthAdjust="spacing" textLength="136.5698" x="109.7137" y="284.0798">Create local audio track</text><text fill="#0A9EFD" font-family="Arial" font-size="13" lengthAdjust="spacing" textLength="234.8252" x="62.3919" y="299.0285">AgoraRTC.createMicrophoneAudioTrack</text></g><g class="message" data-entity-1="part1" data-entity-2="part2" data-source-line="26" id="msg5"><polygon fill="#0A9EFD" points="302.6638,343.6808,312.6638,347.6808,302.6638,351.6808,306.6638,347.6808" style="stroke:#0A9EFD;stroke-width:1;stroke-linejoin:miter;stroke-miterlimit:10;"/><line style="stroke:#0A9EFD;stroke-width:2;" x1="41.3333" x2="308.6638" y1="347.6808" y2="347.6808"/><text fill="#0A9EFD" font-family="Arial" font-size="13" lengthAdjust="spacing" textLength="135.8398" x="110.0787" y="327.9772">Create local video track</text><text fill="#0A9EFD" font-family="Arial" font-size="13" lengthAdjust="spacing" textLength="213.1353" x="73.2369" y="342.9259">AgoraRTC.createCameraVideoTrack</text></g><g class="message" data-entity-1="part1" data-entity-2="part2" data-source-line="27" id="msg6"><polygon fill="#0A9EFD" points="302.6638,387.5783,312.6638,391.5783,302.6638,395.5783,306.6638,391.5783" style="stroke:#0A9EFD;stroke-width:1;stroke-linejoin:miter;stroke-miterlimit:10;"/><line style="stroke:#0A9EFD;stroke-width:2;" x1="41.3333" x2="308.6638" y1="391.5783" y2="391.5783"/><text fill="#0A9EFD" font-family="Arial" font-size="13" lengthAdjust="spacing" textLength="206.6797" x="74.6587" y="371.8747">Publish local audio and video tracks</text><text fill="#0A9EFD" font-family="Arial" font-size="13" lengthAdjust="spacing" textLength="139.4517" x="110.0787" y="386.8234">AgoraRTCClient.publish</text></g><g class="message" data-entity-1="part2" data-entity-2="part3" data-source-line="28" id="msg7"><polygon fill="#0A9EFD" points="533.1732,416.527,543.1732,420.527,533.1732,424.527,537.1732,420.527" style="stroke:#0A9EFD;stroke-width:1;stroke-linejoin:miter;stroke-miterlimit:10;"/><line style="stroke:#0A9EFD;stroke-width:2;" x1="314.6638" x2="539.1732" y1="420.527" y2="420.527"/><text fill="#0A9EFD" font-family="Arial" font-size="13" lengthAdjust="spacing" textLength="154.686" x="352.5755" y="415.7721">Send audio and video data</text></g><path d="M10,442.527 L206.7344,442.527 L206.7344,449.4757 L196.7344,459.4757 L10,459.4757 L10,442.527" fill="#EEEEEE" style="stroke:#0A9EFD;stroke-width:1.5;"/><rect fill="none" height="265.3848" style="stroke:#0A9EFD;stroke-width:2;" width="566.5065" x="10" y="442.527"/><text fill="#000000" font-family="Arial" font-size="13" lengthAdjust="spacing" textLength="151.7344" x="25" y="455.7209">Subscribe to remote users</text><g class="message" data-entity-1="part3" data-entity-2="part1" data-source-line="32" id="msg8"><polygon fill="#0A9EFD" points="52.3333,491.3732,42.3333,495.3732,52.3333,499.3732,48.3333,495.3732" style="stroke:#0A9EFD;stroke-width:1;stroke-linejoin:miter;stroke-miterlimit:10;"/><line style="stroke:#0A9EFD;stroke-width:2;stroke-dasharray:2,2;" x1="46.3333" x2="544.1732" y1="495.3732" y2="495.3732"/><text fill="#0A9EFD" font-family="Arial" font-size="13" lengthAdjust="spacing" textLength="259.4224" x="163.5421" y="475.6696">Remote users publish audio and video tracks</text><text fill="#0A9EFD" font-family="Arial" font-size="13" lengthAdjust="spacing" textLength="151.582" x="219.2681" y="490.6183">client.on("user-published")</text></g><g class="message" data-entity-1="part1" data-entity-2="part2" data-source-line="33" id="msg9"><polygon fill="#0A9EFD" points="302.6638,535.2707,312.6638,539.2707,302.6638,543.2707,306.6638,539.2707" style="stroke:#0A9EFD;stroke-width:1;stroke-linejoin:miter;stroke-miterlimit:10;"/><line style="stroke:#0A9EFD;stroke-width:2;" x1="41.3333" x2="308.6638" y1="539.2707" y2="539.2707"/><text fill="#0A9EFD" font-family="Arial" font-size="13" lengthAdjust="spacing" textLength="132.228" x="111.8846" y="519.5671">Get remote user object</text><text fill="#0A9EFD" font-family="Arial" font-size="13" lengthAdjust="spacing" textLength="172.6626" x="93.4732" y="534.5158">AgoraRTCClient.remoteUsers</text></g><g class="message" data-entity-1="part1" data-entity-2="part2" data-source-line="34" id="msg10"><polygon fill="#0A9EFD" points="302.6638,579.1681,312.6638,583.1681,302.6638,587.1681,306.6638,583.1681" style="stroke:#0A9EFD;stroke-width:1;stroke-linejoin:miter;stroke-miterlimit:10;"/><line style="stroke:#0A9EFD;stroke-width:2;" x1="41.3333" x2="308.6638" y1="583.1681" y2="583.1681"/><text fill="#0A9EFD" font-family="Arial" font-size="13" lengthAdjust="spacing" textLength="183.5361" x="86.2305" y="563.4645">Subscribe to remote user object</text><text fill="#0A9EFD" font-family="Arial" font-size="13" lengthAdjust="spacing" textLength="153.8926" x="102.8582" y="578.4132">AgoraRTCClient.subscribe</text></g><g class="message" data-entity-1="part3" data-entity-2="part2" data-source-line="35" id="msg11"><polygon fill="#0A9EFD" points="325.6638,608.1169,315.6638,612.1169,325.6638,616.1169,321.6638,612.1169" style="stroke:#0A9EFD;stroke-width:1;stroke-linejoin:miter;stroke-miterlimit:10;"/><line style="stroke:#0A9EFD;stroke-width:2;" x1="319.6638" x2="544.1732" y1="612.1169" y2="612.1169"/><text fill="#0A9EFD" font-family="Arial" font-size="13" lengthAdjust="spacing" textLength="171.2915" x="344.2727" y="607.362">Receive audio and video data</text></g><g class="message" data-entity-1="part1" data-entity-2="part2" data-source-line="36" id="msg12"><polygon fill="#0A9EFD" points="302.6638,652.0143,312.6638,656.0143,302.6638,660.0143,306.6638,656.0143" style="stroke:#0A9EFD;stroke-width:1;stroke-linejoin:miter;stroke-miterlimit:10;"/><line style="stroke:#0A9EFD;stroke-width:2;" x1="41.3333" x2="308.6638" y1="656.0143" y2="656.0143"/><text fill="#0A9EFD" font-family="Arial" font-size="13" lengthAdjust="spacing" textLength="138.7471" x="108.625" y="636.3107">Get remote audio object</text><text fill="#0A9EFD" font-family="Arial" font-size="13" lengthAdjust="spacing" textLength="202.2935" x="78.6578" y="651.2594">AgoraRTCRemoteUser.audioTrack</text></g><g class="message" data-entity-1="part1" data-entity-2="part2" data-source-line="37" id="msg13"><polygon fill="#0A9EFD" points="302.6638,695.9118,312.6638,699.9118,302.6638,703.9118,306.6638,699.9118" style="stroke:#0A9EFD;stroke-width:1;stroke-linejoin:miter;stroke-miterlimit:10;"/><line style="stroke:#0A9EFD;stroke-width:2;" x1="41.3333" x2="308.6638" y1="699.9118" y2="699.9118"/><text fill="#0A9EFD" font-family="Arial" font-size="13" lengthAdjust="spacing" textLength="138.0171" x="108.99" y="680.2082">Get remote video object</text><text fill="#0A9EFD" font-family="Arial" font-size="13" lengthAdjust="spacing" textLength="201.5635" x="79.0227" y="695.1569">AgoraRTCRemoteUser.videoTrack</text></g><path d="M10,721.9118 L161.2534,721.9118 L161.2534,728.8605 L151.2534,738.8605 L10,738.8605 L10,721.9118" fill="#EEEEEE" style="stroke:#0A9EFD;stroke-width:1.5;"/><rect fill="none" height="177.5898" style="stroke:#0A9EFD;stroke-width:2;" width="566.5065" x="10" y="721.9118"/><text fill="#000000" font-family="Arial" font-size="13" lengthAdjust="spacing" textLength="106.2534" x="25" y="735.1056">Leave the channel</text><g class="message" data-entity-1="part1" data-entity-2="part2" data-source-line="41" id="msg14"><polygon fill="#0A9EFD" points="302.6638,770.758,312.6638,774.758,302.6638,778.758,306.6638,774.758" style="stroke:#0A9EFD;stroke-width:1;stroke-linejoin:miter;stroke-miterlimit:10;"/><line style="stroke:#0A9EFD;stroke-width:2;" x1="41.3333" x2="308.6638" y1="774.758" y2="774.758"/><text fill="#0A9EFD" font-family="Arial" font-size="13" lengthAdjust="spacing" textLength="164.0298" x="95.9837" y="755.0544">Turn off the local audio track</text><text fill="#0A9EFD" font-family="Arial" font-size="13" lengthAdjust="spacing" textLength="167.6353" x="95.9869" y="770.0031">MicrophoneAudioTrack.close</text></g><g class="message" data-entity-1="part1" data-entity-2="part2" data-source-line="42" id="msg15"><polygon fill="#0A9EFD" points="302.6638,814.6554,312.6638,818.6554,302.6638,822.6554,306.6638,818.6554" style="stroke:#0A9EFD;stroke-width:1;stroke-linejoin:miter;stroke-miterlimit:10;"/><line style="stroke:#0A9EFD;stroke-width:2;" x1="41.3333" x2="308.6638" y1="818.6554" y2="818.6554"/><text fill="#0A9EFD" font-family="Arial" font-size="13" lengthAdjust="spacing" textLength="163.2998" x="96.3487" y="798.9518">Turn off the local video track</text><text fill="#0A9EFD" font-family="Arial" font-size="13" lengthAdjust="spacing" textLength="145.9453" x="106.8318" y="813.9006">CameraVideoTrack.close</text></g><g class="message" data-entity-1="part1" data-entity-2="part2" data-source-line="43" id="msg16"><polygon fill="#0A9EFD" points="302.6638,858.5529,312.6638,862.5529,302.6638,866.5529,306.6638,862.5529" style="stroke:#0A9EFD;stroke-width:1;stroke-linejoin:miter;stroke-miterlimit:10;"/><line style="stroke:#0A9EFD;stroke-width:2;" x1="41.3333" x2="308.6638" y1="862.5529" y2="862.5529"/><text fill="#0A9EFD" font-family="Arial" font-size="13" lengthAdjust="spacing" textLength="106.2534" x="124.8719" y="842.8493">Leave the channel</text><text fill="#0A9EFD" font-family="Arial" font-size="13" lengthAdjust="spacing" textLength="129.3335" x="115.1377" y="857.798">AgoraRTCClient.leave</text></g><g class="message" data-entity-1="part2" data-entity-2="part3" data-source-line="44" id="msg17"><polygon fill="#0A9EFD" points="533.1732,887.5016,543.1732,891.5016,533.1732,895.5016,537.1732,891.5016" style="stroke:#0A9EFD;stroke-width:1;stroke-linejoin:miter;stroke-miterlimit:10;"/><line style="stroke:#0A9EFD;stroke-width:2;" x1="314.6638" x2="539.1732" y1="891.5016" y2="891.5016"/><text fill="#0A9EFD" font-family="Arial" font-size="13" lengthAdjust="spacing" textLength="168.397" x="345.72" y="886.7467">Request to leave the channel</text></g><?plantuml-src ZPF9Rjim48RlUWfMXwOzIEsX9qCGOBX0WMumP2Ud0055JM8cDAboCTe-L1yYJvOX9SMCbg0d0kG_t_opy0sNJBW62BrJcjwO1ovpxeuYIMhrcwJhjasJbchB6M-fj2Gj3FyBgqyVo-AjfRK0MwQ46hBURXEG3S6eFlIADw38xlEtPO2WVq2R3e324M3j7U5zjVzP6DUMZ_-A3_vSvZ6XNDFXCEYCkzFAjMIZWLeib0Z5g21CS90sGUDPYSbN9EIhzfkS1U4cl5zBiWDBZWfRP1Mvq9PTUF00_Qgu9En0fGGnm-eW-Jsg4dp8IlIrUX54DFnoO6mC7PoY_zRLWfj3xvcwXgjmVmhTjPgo1nFbxIDZTT1W6QFoVd2cLNjG4jPUjlUg9L2KR0hQq2De6gOzXcp_mtm4x9lLbnprQ-SdEGvlgALnqtQkDappEin9mr6XVMTmlxoX8ii2gOhkdtkxQAnRaLp9TwcFoFe0QDBtKPLVS3-YV4JLzy3ijAvESpbOwgENR2zYp13W6rGCPJ7W9vZlqQpJJZd9KJrxpEdSMaI4BiDhXDDv9w8vVGUAJkq1PhxDtcb9rErjU9vRuhcjpV7R6tYTydA3noix8KmyJiSWl2JQqQhxndwAObAXB_y9?></g></svg>