<?xml version="1.0" encoding="us-ascii" standalone="no"?><svg xmlns="http://www.w3.org/2000/svg" xmlns:xlink="http://www.w3.org/1999/xlink" contentStyleType="text/css" height="770px" preserveAspectRatio="none" style="width:787px;height:770px;" version="1.1" viewBox="0 0 787 770" width="787px" zoomAndPan="magnify"><defs/><g><rect fill="none" height="768.4134" style="stroke:#0A9EFD;stroke-width:1.0;" width="785.5" x="0" y="0"/><rect fill="#999999" fill-opacity="0.33333" height="758.4134" style="stroke:#0A9EFD;stroke-width:0.5;" width="71" x="5.8333" y="6"/><text fill="#0A9EFD" font-family="sans-serif" font-size="13" font-weight="bold" lengthAdjust="spacing" textLength="65" x="8.8333" y="18.5684">App: Host</text><rect fill="#999999" fill-opacity="0.33333" height="758.4134" style="stroke:#0A9EFD;stroke-width:0.5;" width="72" x="327.1667" y="6"/><text fill="#0A9EFD" font-family="sans-serif" font-size="13" font-weight="bold" lengthAdjust="spacing" textLength="66" x="330.1667" y="18.5684">Voice SDK</text><rect fill="#999999" fill-opacity="0.33333" height="758.4134" style="stroke:#0A9EFD;stroke-width:0.5;" width="105" x="676.5" y="6"/><text fill="#0A9EFD" font-family="sans-serif" font-size="13" font-weight="bold" lengthAdjust="spacing" textLength="99" x="679.5" y="18.5684">App: Audience</text><rect fill="#0A9EFD" fill-opacity="0.06667" height="74.8462" style="stroke:#0A9EFD;stroke-width:2.0;" width="750.3333" x="10" y="83.9772"/><rect fill="#0A9EFD" fill-opacity="0.06667" height="162.6411" style="stroke:#0A9EFD;stroke-width:2.0;" width="750.3333" x="10" y="172.8234"/><rect fill="#0A9EFD" fill-opacity="0.06667" height="74.8462" style="stroke:#0A9EFD;stroke-width:2.0;" width="750.3333" x="10" y="349.4645"/><rect fill="#0A9EFD" fill-opacity="0.06667" height="264.436" style="stroke:#0A9EFD;stroke-width:2.0;" width="750.3333" x="10" y="438.3107"/><line style="stroke:#0A9EFD;stroke-width:0.5;stroke-dasharray:5.0,5.0;" x1="41" x2="41" y1="66.9772" y2="719.7467"/><line style="stroke:#0A9EFD;stroke-width:0.5;stroke-dasharray:5.0,5.0;" x1="362.8333" x2="362.8333" y1="66.9772" y2="719.7467"/><line style="stroke:#0A9EFD;stroke-width:0.5;stroke-dasharray:5.0,5.0;" x1="728.6667" x2="728.6667" y1="66.9772" y2="719.7467"/><rect fill="none" height="40.6667" rx="2.5" ry="2.5" style="stroke:#0A9EFD;stroke-width:2.0;" width="42.6667" x="20" y="25.3105"/><path d="M29.1333,32.3105 C28.5333,32.3105 28,32.8439 28,33.4439 L28,57.8105 C28,58.4105 28.5333,58.9439 29.1333,58.9439 L50.1667,58.9439 C50.7667,58.9439 51.3,58.4105 51.3,57.8105 L51.3,33.4439 C51.3,32.8439 50.7667,32.3105 50.1667,32.3105 L29.1333,32.3105 M31.3333,35.6439 L48,35.6439 L48,52.3105 L31.3333,52.3105 L31.3333,35.6439 M39.6667,53.9772 C40.9333,53.9772 41.7667,55.3772 41.1333,56.4772 C40.5,57.5772 38.8667,57.5772 38.2,56.4772 C37.5667,55.3772 38.3667,53.9772 39.6667,53.9772 " fill="#0A9EFD" style="stroke:;stroke-width:0.0;stroke-dasharray:;"/><rect fill="none" height="40.6667" rx="2.5" ry="2.5" style="stroke:#0A9EFD;stroke-width:2.0;" width="42.6667" x="20" y="718.7467"/><path d="M29.1333,725.7467 C28.5333,725.7467 28,726.2801 28,726.8801 L28,751.2467 C28,751.8467 28.5333,752.3801 29.1333,752.3801 L50.1667,752.3801 C50.7667,752.3801 51.3,751.8467 51.3,751.2467 L51.3,726.8801 C51.3,726.2801 50.7667,725.7467 50.1667,725.7467 L29.1333,725.7467 M31.3333,729.0801 L48,729.0801 L48,745.7467 L31.3333,745.7467 L31.3333,729.0801 M39.6667,747.4134 C40.9333,747.4134 41.7667,748.8134 41.1333,749.9134 C40.5,751.0134 38.8667,751.0134 38.2,749.9134 C37.5667,748.8134 38.3667,747.4134 39.6667,747.4134 " fill="#0A9EFD" style="stroke:;stroke-width:0.0;stroke-dasharray:;"/><rect fill="none" height="40.6667" rx="2.5" ry="2.5" style="stroke:#0A9EFD;stroke-width:2.0;" width="42.6667" x="341.8333" y="25.3105"/><path d="M349.8333,32.3105 L349.8333,45.6439 L363.1667,45.6439 L363.1667,32.3105 L349.8333,32.3105 M366.5,38.9772 L366.5,48.9772 L356.5,48.9772 L356.5,52.3105 L369.8333,52.3105 L369.8333,38.9772 L366.5,38.9772 M373.1667,45.6439 L373.1667,55.6439 L363.1667,55.6439 L363.1667,58.9772 L376.5,58.9772 L376.5,45.6439 L373.1667,45.6439 " fill="#0A9EFD" style="stroke:;stroke-width:0.0;stroke-dasharray:;"/><rect fill="none" height="40.6667" rx="2.5" ry="2.5" style="stroke:#0A9EFD;stroke-width:2.0;" width="42.6667" x="341.8333" y="718.7467"/><path d="M349.8333,725.7467 L349.8333,739.0801 L363.1667,739.0801 L363.1667,725.7467 L349.8333,725.7467 M366.5,732.4134 L366.5,742.4134 L356.5,742.4134 L356.5,745.7467 L369.8333,745.7467 L369.8333,732.4134 L366.5,732.4134 M373.1667,739.0801 L373.1667,749.0801 L363.1667,749.0801 L363.1667,752.4134 L376.5,752.4134 L376.5,739.0801 L373.1667,739.0801 " fill="#0A9EFD" style="stroke:;stroke-width:0.0;stroke-dasharray:;"/><rect fill="none" height="40.6667" rx="2.5" ry="2.5" style="stroke:#0A9EFD;stroke-width:2.0;" width="42.6667" x="707.6667" y="25.3105"/><path d="M716.8,32.3105 C716.2,32.3105 715.6667,32.8439 715.6667,33.4439 L715.6667,57.8105 C715.6667,58.4105 716.2,58.9439 716.8,58.9439 L737.8333,58.9439 C738.4333,58.9439 738.9667,58.4105 738.9667,57.8105 L738.9667,33.4439 C738.9667,32.8439 738.4333,32.3105 737.8333,32.3105 L716.8,32.3105 M719,35.6439 L735.6667,35.6439 L735.6667,52.3105 L719,52.3105 L719,35.6439 M727.3333,53.9772 C728.6,53.9772 729.4333,55.3772 728.8,56.4772 C728.1667,57.5772 726.5333,57.5772 725.8667,56.4772 C725.2333,55.3772 726.0333,53.9772 727.3333,53.9772 " fill="#0A9EFD" style="stroke:;stroke-width:0.0;stroke-dasharray:;"/><rect fill="none" height="40.6667" rx="2.5" ry="2.5" style="stroke:#0A9EFD;stroke-width:2.0;" width="42.6667" x="707.6667" y="718.7467"/><path d="M716.8,725.7467 C716.2,725.7467 715.6667,726.2801 715.6667,726.8801 L715.6667,751.2467 C715.6667,751.8467 716.2,752.3801 716.8,752.3801 L737.8333,752.3801 C738.4333,752.3801 738.9667,751.8467 738.9667,751.2467 L738.9667,726.8801 C738.9667,726.2801 738.4333,725.7467 737.8333,725.7467 L716.8,725.7467 M719,729.0801 L735.6667,729.0801 L735.6667,745.7467 L719,745.7467 L719,729.0801 M727.3333,747.4134 C728.6,747.4134 729.4333,748.8134 728.8,749.9134 C728.1667,751.0134 726.5333,751.0134 725.8667,749.9134 C725.2333,748.8134 726.0333,747.4134 727.3333,747.4134 " fill="#0A9EFD" style="stroke:;stroke-width:0.0;stroke-dasharray:;"/><path d="M10,83.9772 L167,83.9772 L167,90.9259 L157,100.9259 L10,100.9259 L10,83.9772 " fill="#EEEEEE" style="stroke:#0A9EFD;stroke-width:1.5;"/><rect fill="none" height="74.8462" style="stroke:#0A9EFD;stroke-width:2.0;" width="750.3333" x="10" y="83.9772"/><text fill="#000000" font-family="Arial" font-size="13" lengthAdjust="spacing" textLength="112" x="25" y="97.1711">Initialize the engine</text><polygon fill="#0A9EFD" points="351.1667,117.8747,361.1667,121.8747,351.1667,125.8747,355.1667,121.8747" style="stroke:#0A9EFD;stroke-width:1.0;"/><line style="stroke:#0A9EFD;stroke-width:2.0;" x1="41.3333" x2="357.1667" y1="121.8747" y2="121.8747"/><text fill="#0A9EFD" font-family="Arial" font-size="13" lengthAdjust="spacing" textLength="178" x="113.25" y="117.1198">Create and initialize the engine</text><polygon fill="#0A9EFD" points="374.1667,146.8234,364.1667,150.8234,374.1667,154.8234,370.1667,150.8234" style="stroke:#0A9EFD;stroke-width:1.0;"/><line style="stroke:#0A9EFD;stroke-width:2.0;" x1="368.1667" x2="728" y1="150.8234" y2="150.8234"/><text fill="#0A9EFD" font-family="Arial" font-size="13" lengthAdjust="spacing" textLength="178" x="457.0833" y="146.0685">Create and initialize the engine</text><path d="M10,172.8234 L128,172.8234 L128,179.7721 L118,189.7721 L10,189.7721 L10,172.8234 " fill="#EEEEEE" style="stroke:#0A9EFD;stroke-width:1.5;"/><rect fill="none" height="162.6411" style="stroke:#0A9EFD;stroke-width:2.0;" width="750.3333" x="10" y="172.8234"/><text fill="#000000" font-family="Arial" font-size="13" lengthAdjust="spacing" textLength="73" x="25" y="186.0173">Join channel</text><polygon fill="#0A9EFD" points="351.1667,221.6696,361.1667,225.6696,351.1667,229.6696,355.1667,225.6696" style="stroke:#0A9EFD;stroke-width:1.0;"/><line style="stroke:#0A9EFD;stroke-width:2.0;" x1="41.3333" x2="357.1667" y1="225.6696" y2="225.6696"/><text fill="#0A9EFD" font-family="Arial" font-size="13" lengthAdjust="spacing" textLength="120" x="142.25" y="205.966">Join the channel and</text><text fill="#0A9EFD" font-family="Arial" font-size="13" lengthAdjust="spacing" textLength="141" x="133.75" y="220.9147">set the user role as host</text><polygon fill="#0A9EFD" points="374.1667,265.5671,364.1667,269.5671,374.1667,273.5671,370.1667,269.5671" style="stroke:#0A9EFD;stroke-width:1.0;"/><line style="stroke:#0A9EFD;stroke-width:2.0;" x1="368.1667" x2="728" y1="269.5671" y2="269.5671"/><text fill="#0A9EFD" font-family="Arial" font-size="13" lengthAdjust="spacing" textLength="120" x="486.0833" y="249.8634">Join the channel and</text><text fill="#0A9EFD" font-family="Arial" font-size="13" lengthAdjust="spacing" textLength="168" x="464.0833" y="264.8122">set the user role as audience</text><polygon fill="#0A9EFD" points="52.3333,294.5158,42.3333,298.5158,52.3333,302.5158,48.3333,298.5158" style="stroke:#0A9EFD;stroke-width:1.0;"/><line style="stroke:#0A9EFD;stroke-width:2.0;stroke-dasharray:2.0,2.0;" x1="46.3333" x2="362.1667" y1="298.5158" y2="298.5158"/><text fill="#0A9EFD" font-family="Arial" font-size="13" lengthAdjust="spacing" textLength="277" x="63.75" y="293.7609">Notify the host that the channel has been joined</text><polygon fill="#0A9EFD" points="717,323.4645,727,327.4645,717,331.4645,721,327.4645" style="stroke:#0A9EFD;stroke-width:1.0;"/><line style="stroke:#0A9EFD;stroke-width:2.0;stroke-dasharray:2.0,2.0;" x1="363.1667" x2="723" y1="327.4645" y2="327.4645"/><text fill="#0A9EFD" font-family="Arial" font-size="13" lengthAdjust="spacing" textLength="304" x="394.0833" y="322.7096">Notify the audience that the channel has been joined</text><path d="M10,349.4645 L182,349.4645 L182,356.4132 L172,366.4132 L10,366.4132 L10,349.4645 " fill="#EEEEEE" style="stroke:#0A9EFD;stroke-width:1.5;"/><rect fill="none" height="74.8462" style="stroke:#0A9EFD;stroke-width:2.0;" width="750.3333" x="10" y="349.4645"/><text fill="#000000" font-family="Arial" font-size="13" lengthAdjust="spacing" textLength="127" x="25" y="362.6584">Start audio interaction</text><polygon fill="#0A9EFD" points="717,383.362,727,387.362,717,391.362,721,387.362" style="stroke:#0A9EFD;stroke-width:1.0;"/><line style="stroke:#0A9EFD;stroke-width:2.0;" x1="363.1667" x2="723" y1="387.362" y2="387.362"/><text fill="#0A9EFD" font-family="Arial" font-size="13" lengthAdjust="spacing" textLength="82" x="505.0833" y="382.6071">Receive audio</text><polygon fill="#0A9EFD" points="351.1667,412.3107,361.1667,416.3107,351.1667,420.3107,355.1667,416.3107" style="stroke:#0A9EFD;stroke-width:1.0;"/><line style="stroke:#0A9EFD;stroke-width:2.0;" x1="41.3333" x2="357.1667" y1="416.3107" y2="416.3107"/><text fill="#0A9EFD" font-family="Arial" font-size="13" lengthAdjust="spacing" textLength="65" x="169.75" y="411.5558">Send audio</text><path d="M10,438.3107 L177,438.3107 L177,445.2594 L167,455.2594 L10,455.2594 L10,438.3107 " fill="#EEEEEE" style="stroke:#0A9EFD;stroke-width:1.5;"/><rect fill="none" height="264.436" style="stroke:#0A9EFD;stroke-width:2.0;" width="750.3333" x="10" y="438.3107"/><text fill="#000000" font-family="Arial" font-size="13" lengthAdjust="spacing" textLength="122" x="25" y="451.5046">End audio interaction</text><polygon fill="#0A9EFD" points="351.1667,472.2082,361.1667,476.2082,351.1667,480.2082,355.1667,476.2082" style="stroke:#0A9EFD;stroke-width:1.0;"/><line style="stroke:#0A9EFD;stroke-width:2.0;" x1="41.3333" x2="357.1667" y1="476.2082" y2="476.2082"/><text fill="#0A9EFD" font-family="Arial" font-size="13" lengthAdjust="spacing" textLength="106" x="149.25" y="471.4533">Leave the channel</text><polygon fill="#0A9EFD" points="52.3333,516.1056,42.3333,520.1056,52.3333,524.1056,48.3333,520.1056" style="stroke:#0A9EFD;stroke-width:1.0;"/><line style="stroke:#0A9EFD;stroke-width:2.0;stroke-dasharray:2.0,2.0;" x1="46.3333" x2="362.1667" y1="520.1056" y2="520.1056"/><text fill="#0A9EFD" font-family="Arial" font-size="13" lengthAdjust="spacing" textLength="111" x="144.75" y="500.402">Notify the host that</text><text fill="#0A9EFD" font-family="Arial" font-size="13" lengthAdjust="spacing" textLength="125" x="139.75" y="515.3507">it has left the channel</text><polygon fill="#0A9EFD" points="717,560.0031,727,564.0031,717,568.0031,721,564.0031" style="stroke:#0A9EFD;stroke-width:1.0;"/><line style="stroke:#0A9EFD;stroke-width:2.0;stroke-dasharray:2.0,2.0;" x1="363.1667" x2="723" y1="564.0031" y2="564.0031"/><text fill="#0A9EFD" font-family="Arial" font-size="13" lengthAdjust="spacing" textLength="138" x="475.0833" y="544.2995">Notify the audience that</text><text fill="#0A9EFD" font-family="Arial" font-size="13" lengthAdjust="spacing" textLength="165" x="463.5833" y="559.2482">the host has left the channel</text><polygon fill="#0A9EFD" points="374.1667,588.9518,364.1667,592.9518,374.1667,596.9518,370.1667,592.9518" style="stroke:#0A9EFD;stroke-width:1.0;"/><line style="stroke:#0A9EFD;stroke-width:2.0;" x1="368.1667" x2="728" y1="592.9518" y2="592.9518"/><text fill="#0A9EFD" font-family="Arial" font-size="13" lengthAdjust="spacing" textLength="106" x="493.0833" y="588.1969">Leave the channel</text><polygon fill="#0A9EFD" points="717,632.8493,727,636.8493,717,640.8493,721,636.8493" style="stroke:#0A9EFD;stroke-width:1.0;"/><line style="stroke:#0A9EFD;stroke-width:2.0;stroke-dasharray:2.0,2.0;" x1="363.1667" x2="723" y1="636.8493" y2="636.8493"/><text fill="#0A9EFD" font-family="Arial" font-size="13" lengthAdjust="spacing" textLength="138" x="475.0833" y="617.1457">Notify the audience that</text><text fill="#0A9EFD" font-family="Arial" font-size="13" lengthAdjust="spacing" textLength="125" x="483.5833" y="632.0944">it has left the channel</text><polygon fill="#0A9EFD" points="351.1667,661.798,361.1667,665.798,351.1667,669.798,355.1667,665.798" style="stroke:#0A9EFD;stroke-width:1.0;"/><line style="stroke:#0A9EFD;stroke-width:2.0;" x1="41.3333" x2="357.1667" y1="665.798" y2="665.798"/><text fill="#0A9EFD" font-family="Arial" font-size="13" lengthAdjust="spacing" textLength="109" x="147.75" y="661.0431">Destroy the engine</text><polygon fill="#0A9EFD" points="374.1667,690.7467,364.1667,694.7467,374.1667,698.7467,370.1667,694.7467" style="stroke:#0A9EFD;stroke-width:1.0;"/><line style="stroke:#0A9EFD;stroke-width:2.0;" x1="368.1667" x2="728" y1="694.7467" y2="694.7467"/><text fill="#0A9EFD" font-family="Arial" font-size="13" lengthAdjust="spacing" textLength="109" x="491.5833" y="689.9919">Destroy the engine</text><!--SRC=[bP9FJyCm3CNl_HIc1sv573XLrQI98Oq_ua21qoIKjTvg24cLf1FZq-EctMXW5UDMnNu_Fp_tX5GXcn91hBKHB_QDr1arxpAAble3ucbTfp3NriLHBOoZWcgX7CIPfKzCByudsQaJIubk4eEmCCyV8rGbiBO7F6ig4FBPxJX0YYqQsm6uyGV0EvWs9Q4gC8QZR4oVPj-KjT5D3TUA70d9xU0g15HhKXYnNqWcxTGKBWqAnpcmZWusC_NuPXw_6tsZIK5H2QLG1XDzeTNqnHQtK63H-TV6eW6Z9ROhLNo3mC5_nAAFBs8b94nW5odSQqUhhUzkwVmXN42iMBf4LF3Aix3Sgzb6eDxX_oOCKiaT7z9BDKVeq8Z2aLP-nopfTdp00cdJ3T11T7bxtkvvmBpQFGR4eUuEnGQ75dqrI_g11oDPy87z9X9NmNgzrz_QC925slD6AUF-ZWjztEDm-nbQP_HsxAS-K6x3_G80]--></g></svg>