<?xml version="1.0" encoding="us-ascii" standalone="no"?><svg xmlns="http://www.w3.org/2000/svg" xmlns:xlink="http://www.w3.org/1999/xlink" contentStyleType="text/css" height="771px" preserveAspectRatio="none" style="width:778px;height:771px;" version="1.1" viewBox="0 0 778 771" width="778px" zoomAndPan="magnify"><defs/><g><rect fill="none" height="769.4544" style="stroke:#0A9EFD;stroke-width:1.0;" width="776" x="0" y="0"/><rect fill="#999999" fill-opacity="0.33333" height="759.4544" style="stroke:#0A9EFD;stroke-width:0.5;" width="66" x="8.3333" y="6"/><text fill="#0A9EFD" font-family="sans-serif" font-size="13" font-weight="bold" lengthAdjust="spacing" textLength="60" x="11.3333" y="19.4951">App: Host</text><rect fill="#999999" fill-opacity="0.33333" height="759.4544" style="stroke:#0A9EFD;stroke-width:0.5;" width="73" x="323.6667" y="6"/><text fill="#0A9EFD" font-family="sans-serif" font-size="13" font-weight="bold" lengthAdjust="spacing" textLength="67" x="326.6667" y="19.4951">Voice SDK</text><rect fill="#999999" fill-opacity="0.33333" height="759.4544" style="stroke:#0A9EFD;stroke-width:0.5;" width="99" x="673" y="6"/><text fill="#0A9EFD" font-family="sans-serif" font-size="13" font-weight="bold" lengthAdjust="spacing" textLength="93" x="676" y="19.4951">App: Audience</text><rect fill="#0A9EFD" fill-opacity="0.06667" height="74.8462" style="stroke:#0A9EFD;stroke-width:2.0;" width="743.8333" x="10" y="85.0182"/><rect fill="#0A9EFD" fill-opacity="0.06667" height="162.6411" style="stroke:#0A9EFD;stroke-width:2.0;" width="743.8333" x="10" y="173.8644"/><rect fill="#0A9EFD" fill-opacity="0.06667" height="74.8462" style="stroke:#0A9EFD;stroke-width:2.0;" width="743.8333" x="10" y="350.5055"/><rect fill="#0A9EFD" fill-opacity="0.06667" height="264.436" style="stroke:#0A9EFD;stroke-width:2.0;" width="743.8333" x="10" y="439.3517"/><line style="stroke:#0A9EFD;stroke-width:0.5;stroke-dasharray:5.0,5.0;" x1="41" x2="41" y1="68.0182" y2="720.7878"/><line style="stroke:#0A9EFD;stroke-width:0.5;stroke-dasharray:5.0,5.0;" x1="359.8333" x2="359.8333" y1="68.0182" y2="720.7878"/><line style="stroke:#0A9EFD;stroke-width:0.5;stroke-dasharray:5.0,5.0;" x1="722.1667" x2="722.1667" y1="68.0182" y2="720.7878"/><rect fill="none" height="40.6667" rx="2.5" ry="2.5" style="stroke:#0A9EFD;stroke-width:2.0;" width="42.6667" x="20" y="26.3516"/><path d="M29.1333,33.3516 C28.5333,33.3516 28,33.8849 28,34.4849 L28,58.8516 C28,59.4516 28.5333,59.9849 29.1333,59.9849 L50.1667,59.9849 C50.7667,59.9849 51.3,59.4516 51.3,58.8516 L51.3,34.4849 C51.3,33.8849 50.7667,33.3516 50.1667,33.3516 L29.1333,33.3516 M31.3333,36.6849 L48,36.6849 L48,53.3516 L31.3333,53.3516 L31.3333,36.6849 M39.6667,55.0182 C40.9333,55.0182 41.7667,56.4182 41.1333,57.5182 C40.5,58.6182 38.8667,58.6182 38.2,57.5182 C37.5667,56.4182 38.3667,55.0182 39.6667,55.0182 " fill="#0A9EFD" style="stroke:;stroke-width:0.0;stroke-dasharray:;"/><rect fill="none" height="40.6667" rx="2.5" ry="2.5" style="stroke:#0A9EFD;stroke-width:2.0;" width="42.6667" x="20" y="719.7878"/><path d="M29.1333,726.7878 C28.5333,726.7878 28,727.3211 28,727.9211 L28,752.2878 C28,752.8878 28.5333,753.4211 29.1333,753.4211 L50.1667,753.4211 C50.7667,753.4211 51.3,752.8878 51.3,752.2878 L51.3,727.9211 C51.3,727.3211 50.7667,726.7878 50.1667,726.7878 L29.1333,726.7878 M31.3333,730.1211 L48,730.1211 L48,746.7878 L31.3333,746.7878 L31.3333,730.1211 M39.6667,748.4544 C40.9333,748.4544 41.7667,749.8544 41.1333,750.9544 C40.5,752.0544 38.8667,752.0544 38.2,750.9544 C37.5667,749.8544 38.3667,748.4544 39.6667,748.4544 " fill="#0A9EFD" style="stroke:;stroke-width:0.0;stroke-dasharray:;"/><rect fill="none" height="40.6667" rx="2.5" ry="2.5" style="stroke:#0A9EFD;stroke-width:2.0;" width="42.6667" x="338.8333" y="26.3516"/><path d="M346.8333,33.3516 L346.8333,46.6849 L360.1667,46.6849 L360.1667,33.3516 L346.8333,33.3516 M363.5,40.0182 L363.5,50.0182 L353.5,50.0182 L353.5,53.3516 L366.8333,53.3516 L366.8333,40.0182 L363.5,40.0182 M370.1667,46.6849 L370.1667,56.6849 L360.1667,56.6849 L360.1667,60.0182 L373.5,60.0182 L373.5,46.6849 L370.1667,46.6849 " fill="#0A9EFD" style="stroke:;stroke-width:0.0;stroke-dasharray:;"/><rect fill="none" height="40.6667" rx="2.5" ry="2.5" style="stroke:#0A9EFD;stroke-width:2.0;" width="42.6667" x="338.8333" y="719.7878"/><path d="M346.8333,726.7878 L346.8333,740.1211 L360.1667,740.1211 L360.1667,726.7878 L346.8333,726.7878 M363.5,733.4544 L363.5,743.4544 L353.5,743.4544 L353.5,746.7878 L366.8333,746.7878 L366.8333,733.4544 L363.5,733.4544 M370.1667,740.1211 L370.1667,750.1211 L360.1667,750.1211 L360.1667,753.4544 L373.5,753.4544 L373.5,740.1211 L370.1667,740.1211 " fill="#0A9EFD" style="stroke:;stroke-width:0.0;stroke-dasharray:;"/><rect fill="none" height="40.6667" rx="2.5" ry="2.5" style="stroke:#0A9EFD;stroke-width:2.0;" width="42.6667" x="701.1667" y="26.3516"/><path d="M710.3,33.3516 C709.7,33.3516 709.1667,33.8849 709.1667,34.4849 L709.1667,58.8516 C709.1667,59.4516 709.7,59.9849 710.3,59.9849 L731.3333,59.9849 C731.9333,59.9849 732.4667,59.4516 732.4667,58.8516 L732.4667,34.4849 C732.4667,33.8849 731.9333,33.3516 731.3333,33.3516 L710.3,33.3516 M712.5,36.6849 L729.1667,36.6849 L729.1667,53.3516 L712.5,53.3516 L712.5,36.6849 M720.8333,55.0182 C722.1,55.0182 722.9333,56.4182 722.3,57.5182 C721.6667,58.6182 720.0333,58.6182 719.3667,57.5182 C718.7333,56.4182 719.5333,55.0182 720.8333,55.0182 " fill="#0A9EFD" style="stroke:;stroke-width:0.0;stroke-dasharray:;"/><rect fill="none" height="40.6667" rx="2.5" ry="2.5" style="stroke:#0A9EFD;stroke-width:2.0;" width="42.6667" x="701.1667" y="719.7878"/><path d="M710.3,726.7878 C709.7,726.7878 709.1667,727.3211 709.1667,727.9211 L709.1667,752.2878 C709.1667,752.8878 709.7,753.4211 710.3,753.4211 L731.3333,753.4211 C731.9333,753.4211 732.4667,752.8878 732.4667,752.2878 L732.4667,727.9211 C732.4667,727.3211 731.9333,726.7878 731.3333,726.7878 L710.3,726.7878 M712.5,730.1211 L729.1667,730.1211 L729.1667,746.7878 L712.5,746.7878 L712.5,730.1211 M720.8333,748.4544 C722.1,748.4544 722.9333,749.8544 722.3,750.9544 C721.6667,752.0544 720.0333,752.0544 719.3667,750.9544 C718.7333,749.8544 719.5333,748.4544 720.8333,748.4544 " fill="#0A9EFD" style="stroke:;stroke-width:0.0;stroke-dasharray:;"/><path d="M10,85.0182 L166,85.0182 L166,91.967 L156,101.967 L10,101.967 L10,85.0182 " fill="#EEEEEE" style="stroke:#0A9EFD;stroke-width:1.5;"/><rect fill="none" height="74.8462" style="stroke:#0A9EFD;stroke-width:2.0;" width="743.8333" x="10" y="85.0182"/><text fill="#000000" font-family="Arial" font-size="13" lengthAdjust="spacing" textLength="111" x="25" y="98.2121">Initialize the engine</text><polygon fill="#0A9EFD" points="348.1667,118.9157,358.1667,122.9157,348.1667,126.9157,352.1667,122.9157" style="stroke:#0A9EFD;stroke-width:1.0;"/><line style="stroke:#0A9EFD;stroke-width:2.0;" x1="41.3333" x2="354.1667" y1="122.9157" y2="122.9157"/><text fill="#0A9EFD" font-family="Arial" font-size="13" lengthAdjust="spacing" textLength="178" x="111.75" y="118.1608">Create and initialize the engine</text><polygon fill="#0A9EFD" points="371.1667,147.8644,361.1667,151.8644,371.1667,155.8644,367.1667,151.8644" style="stroke:#0A9EFD;stroke-width:1.0;"/><line style="stroke:#0A9EFD;stroke-width:2.0;" x1="365.1667" x2="721.5" y1="151.8644" y2="151.8644"/><text fill="#0A9EFD" font-family="Arial" font-size="13" lengthAdjust="spacing" textLength="178" x="452.3333" y="147.1095">Create and initialize the engine</text><path d="M10,173.8644 L127,173.8644 L127,180.8132 L117,190.8132 L10,190.8132 L10,173.8644 " fill="#EEEEEE" style="stroke:#0A9EFD;stroke-width:1.5;"/><rect fill="none" height="162.6411" style="stroke:#0A9EFD;stroke-width:2.0;" width="743.8333" x="10" y="173.8644"/><text fill="#000000" font-family="Arial" font-size="13" lengthAdjust="spacing" textLength="72" x="25" y="187.0583">Join channel</text><polygon fill="#0A9EFD" points="348.1667,222.7106,358.1667,226.7106,348.1667,230.7106,352.1667,226.7106" style="stroke:#0A9EFD;stroke-width:1.0;"/><line style="stroke:#0A9EFD;stroke-width:2.0;" x1="41.3333" x2="354.1667" y1="226.7106" y2="226.7106"/><text fill="#0A9EFD" font-family="Arial" font-size="13" lengthAdjust="spacing" textLength="119" x="141.25" y="207.007">Join the channel and</text><text fill="#0A9EFD" font-family="Arial" font-size="13" lengthAdjust="spacing" textLength="141" x="132.25" y="221.9557">set the user role as host</text><polygon fill="#0A9EFD" points="371.1667,266.6081,361.1667,270.6081,371.1667,274.6081,367.1667,270.6081" style="stroke:#0A9EFD;stroke-width:1.0;"/><line style="stroke:#0A9EFD;stroke-width:2.0;" x1="365.1667" x2="721.5" y1="270.6081" y2="270.6081"/><text fill="#0A9EFD" font-family="Arial" font-size="13" lengthAdjust="spacing" textLength="119" x="481.8333" y="250.9045">Join the channel and</text><text fill="#0A9EFD" font-family="Arial" font-size="13" lengthAdjust="spacing" textLength="168" x="459.3333" y="265.8532">set the user role as audience</text><polygon fill="#0A9EFD" points="52.3333,295.5568,42.3333,299.5568,52.3333,303.5568,48.3333,299.5568" style="stroke:#0A9EFD;stroke-width:1.0;"/><line style="stroke:#0A9EFD;stroke-width:2.0;stroke-dasharray:2.0,2.0;" x1="46.3333" x2="359.1667" y1="299.5568" y2="299.5568"/><text fill="#0A9EFD" font-family="Arial" font-size="13" lengthAdjust="spacing" textLength="276" x="62.75" y="294.8019">Notify the host that the channel has been joined</text><polygon fill="#0A9EFD" points="710.5,324.5055,720.5,328.5055,710.5,332.5055,714.5,328.5055" style="stroke:#0A9EFD;stroke-width:1.0;"/><line style="stroke:#0A9EFD;stroke-width:2.0;stroke-dasharray:2.0,2.0;" x1="360.1667" x2="716.5" y1="328.5055" y2="328.5055"/><text fill="#0A9EFD" font-family="Arial" font-size="13" lengthAdjust="spacing" textLength="303" x="389.8333" y="323.7507">Notify the audience that the channel has been joined</text><path d="M10,350.5055 L182,350.5055 L182,357.4543 L172,367.4543 L10,367.4543 L10,350.5055 " fill="#EEEEEE" style="stroke:#0A9EFD;stroke-width:1.5;"/><rect fill="none" height="74.8462" style="stroke:#0A9EFD;stroke-width:2.0;" width="743.8333" x="10" y="350.5055"/><text fill="#000000" font-family="Arial" font-size="13" lengthAdjust="spacing" textLength="127" x="25" y="363.6994">Start audio interaction</text><polygon fill="#0A9EFD" points="710.5,384.403,720.5,388.403,710.5,392.403,714.5,388.403" style="stroke:#0A9EFD;stroke-width:1.0;"/><line style="stroke:#0A9EFD;stroke-width:2.0;" x1="360.1667" x2="716.5" y1="388.403" y2="388.403"/><text fill="#0A9EFD" font-family="Arial" font-size="13" lengthAdjust="spacing" textLength="80" x="501.3333" y="383.6481">Receive audio</text><polygon fill="#0A9EFD" points="348.1667,413.3517,358.1667,417.3517,348.1667,421.3517,352.1667,417.3517" style="stroke:#0A9EFD;stroke-width:1.0;"/><line style="stroke:#0A9EFD;stroke-width:2.0;" x1="41.3333" x2="354.1667" y1="417.3517" y2="417.3517"/><text fill="#0A9EFD" font-family="Arial" font-size="13" lengthAdjust="spacing" textLength="65" x="168.25" y="412.5968">Send audio</text><path d="M10,439.3517 L177,439.3517 L177,446.3005 L167,456.3005 L10,456.3005 L10,439.3517 " fill="#EEEEEE" style="stroke:#0A9EFD;stroke-width:1.5;"/><rect fill="none" height="264.436" style="stroke:#0A9EFD;stroke-width:2.0;" width="743.8333" x="10" y="439.3517"/><text fill="#000000" font-family="Arial" font-size="13" lengthAdjust="spacing" textLength="122" x="25" y="452.5456">End audio interaction</text><polygon fill="#0A9EFD" points="348.1667,473.2492,358.1667,477.2492,348.1667,481.2492,352.1667,477.2492" style="stroke:#0A9EFD;stroke-width:1.0;"/><line style="stroke:#0A9EFD;stroke-width:2.0;" x1="41.3333" x2="354.1667" y1="477.2492" y2="477.2492"/><text fill="#0A9EFD" font-family="Arial" font-size="13" lengthAdjust="spacing" textLength="104" x="148.75" y="472.4943">Leave the channel</text><polygon fill="#0A9EFD" points="52.3333,517.1466,42.3333,521.1466,52.3333,525.1466,48.3333,521.1466" style="stroke:#0A9EFD;stroke-width:1.0;"/><line style="stroke:#0A9EFD;stroke-width:2.0;stroke-dasharray:2.0,2.0;" x1="46.3333" x2="359.1667" y1="521.1466" y2="521.1466"/><text fill="#0A9EFD" font-family="Arial" font-size="13" lengthAdjust="spacing" textLength="110" x="143.75" y="501.443">Notify the host that</text><text fill="#0A9EFD" font-family="Arial" font-size="13" lengthAdjust="spacing" textLength="124" x="138.75" y="516.3918">it has left the channel</text><polygon fill="#0A9EFD" points="710.5,561.0441,720.5,565.0441,710.5,569.0441,714.5,565.0441" style="stroke:#0A9EFD;stroke-width:1.0;"/><line style="stroke:#0A9EFD;stroke-width:2.0;stroke-dasharray:2.0,2.0;" x1="360.1667" x2="716.5" y1="565.0441" y2="565.0441"/><text fill="#0A9EFD" font-family="Arial" font-size="13" lengthAdjust="spacing" textLength="137" x="470.8333" y="545.3405">Notify the audience that</text><text fill="#0A9EFD" font-family="Arial" font-size="13" lengthAdjust="spacing" textLength="164" x="459.3333" y="560.2892">the host has left the channel</text><polygon fill="#0A9EFD" points="371.1667,589.9928,361.1667,593.9928,371.1667,597.9928,367.1667,593.9928" style="stroke:#0A9EFD;stroke-width:1.0;"/><line style="stroke:#0A9EFD;stroke-width:2.0;" x1="365.1667" x2="721.5" y1="593.9928" y2="593.9928"/><text fill="#0A9EFD" font-family="Arial" font-size="13" lengthAdjust="spacing" textLength="104" x="489.3333" y="589.238">Leave the channel</text><polygon fill="#0A9EFD" points="710.5,633.8903,720.5,637.8903,710.5,641.8903,714.5,637.8903" style="stroke:#0A9EFD;stroke-width:1.0;"/><line style="stroke:#0A9EFD;stroke-width:2.0;stroke-dasharray:2.0,2.0;" x1="360.1667" x2="716.5" y1="637.8903" y2="637.8903"/><text fill="#0A9EFD" font-family="Arial" font-size="13" lengthAdjust="spacing" textLength="137" x="470.8333" y="618.1867">Notify the audience that</text><text fill="#0A9EFD" font-family="Arial" font-size="13" lengthAdjust="spacing" textLength="124" x="479.3333" y="633.1354">it has left the channel</text><polygon fill="#0A9EFD" points="348.1667,662.839,358.1667,666.839,348.1667,670.839,352.1667,666.839" style="stroke:#0A9EFD;stroke-width:1.0;"/><line style="stroke:#0A9EFD;stroke-width:2.0;" x1="41.3333" x2="354.1667" y1="666.839" y2="666.839"/><text fill="#0A9EFD" font-family="Arial" font-size="13" lengthAdjust="spacing" textLength="109" x="146.25" y="662.0841">Destroy the engine</text><polygon fill="#0A9EFD" points="371.1667,691.7878,361.1667,695.7878,371.1667,699.7878,367.1667,695.7878" style="stroke:#0A9EFD;stroke-width:1.0;"/><line style="stroke:#0A9EFD;stroke-width:2.0;" x1="365.1667" x2="721.5" y1="695.7878" y2="695.7878"/><text fill="#0A9EFD" font-family="Arial" font-size="13" lengthAdjust="spacing" textLength="109" x="486.8333" y="691.0329">Destroy the engine</text><!--SRC=[bP9FJyCm3CNl_HIc1sv573XLrQI98Oq_ua21qoIKjTvg24cLf1FZq-EctMXW5UDMnNu_Fp_tX5GXcn91hBKHB_QDr1arxpAAble3ucbTfp3NriLHBOoZWcgX7CIPfKzCByudsQaJIubk4eEmCCyV8rGbiBO7F6ig4FBPxJX0YYqQsm6uyGV0EvWs9Q4gC8QZR4oVPj-KjT5D3TUA70d9xU0g15HhKXYnNqWcxTGKBWqAnpcmZWusC_NuPXw_6tsZIK5H2QLG1XDzeTNqnHQtK63H-TV6eW6Z9ROhLNo3mC5_nAAFBs8b94nW5odSQqUhhUzkwVmXN42iMBf4LF3Aix3Sgzb6eDxX_oOCKiaT7z9BDKVeq8Z2aLP-nopfTdp00cdJ3T11T7bxtkvvmBpQFGR4eUuEnGQ75dqrI_g11oDPy87z9X9NmNgzrz_QC925slD6AUF-ZWjztEDm-nbQP_HsxAS-K6x3_G80]--></g></svg>