<?xml version="1.0" encoding="us-ascii" standalone="no"?><svg xmlns="http://www.w3.org/2000/svg" xmlns:xlink="http://www.w3.org/1999/xlink" contentStyleType="text/css" height="471px" preserveAspectRatio="none" style="width:553px;height:471px;" version="1.1" viewBox="0 0 553 471" width="553px" zoomAndPan="magnify"><defs/><g><rect fill="none" height="469.0286" style="stroke:#0A9EFD;stroke-width:1.0;" width="551" x="0" y="0"/><rect fill="#999999" fill-opacity="0.33333" height="459.0286" style="stroke:#0A9EFD;stroke-width:0.5;" width="50.6667" x="1" y="6"/><text fill="#0A9EFD" font-family="sans-serif" font-size="13" font-weight="bold" lengthAdjust="spacing" textLength="31" x="10.8333" y="18.5684">User</text><rect fill="#999999" fill-opacity="0.33333" height="459.0286" style="stroke:#0A9EFD;stroke-width:0.5;" width="50.6667" x="161" y="6"/><text fill="#0A9EFD" font-family="sans-serif" font-size="13" font-weight="bold" lengthAdjust="spacing" textLength="28" x="172.3333" y="18.5684">App</text><rect fill="#999999" fill-opacity="0.33333" height="459.0286" style="stroke:#0A9EFD;stroke-width:0.5;" width="107" x="440" y="6"/><text fill="#0A9EFD" font-family="sans-serif" font-size="13" font-weight="bold" lengthAdjust="spacing" textLength="101" x="443" y="18.5684">Agora SDRTN&#174;</text><rect fill="#0A9EFD" fill-opacity="0.06667" height="188.6411" style="stroke:#0A9EFD;stroke-width:2.0;" width="369.8333" x="155" y="112.9259"/><line style="stroke:#0A9EFD;stroke-width:0.5;stroke-dasharray:5.0,5.0;" x1="26" x2="26" y1="66.9772" y2="420.362"/><line style="stroke:#0A9EFD;stroke-width:0.5;stroke-dasharray:5.0,5.0;" x1="186" x2="186" y1="66.9772" y2="420.362"/><line style="stroke:#0A9EFD;stroke-width:0.5;stroke-dasharray:5.0,5.0;" x1="493.1667" x2="493.1667" y1="66.9772" y2="420.362"/><rect fill="none" height="40.6667" rx="2.5" ry="2.5" style="stroke:#0A9EFD;stroke-width:2.0;" width="42.6667" x="5" y="25.3105"/><path d="M26.3333,32.3105 C22.6667,32.3105 19.6667,36.0439 19.6667,40.6439 C19.6667,45.2439 22.6667,48.9772 26.3333,48.9772 C30,48.9772 33,45.2439 33,40.6439 C33,36.0439 30,32.3105 26.3333,32.3105 M19.3667,48.9772 C15.8333,49.1439 13,52.0439 13,55.6439 L13,58.9772 L39.6667,58.9772 L39.6667,55.6439 C39.6667,52.0439 36.8667,49.1439 33.3,48.9772 C31.5,51.0105 29.0333,52.3105 26.3333,52.3105 C23.6333,52.3105 21.1667,51.0105 19.3667,48.9772 " fill="#0A9EFD" style="stroke:;stroke-width:0.0;stroke-dasharray:;"/><rect fill="none" height="40.6667" rx="2.5" ry="2.5" style="stroke:#0A9EFD;stroke-width:2.0;" width="42.6667" x="5" y="419.362"/><path d="M26.3333,426.362 C22.6667,426.362 19.6667,430.0953 19.6667,434.6953 C19.6667,439.2953 22.6667,443.0286 26.3333,443.0286 C30,443.0286 33,439.2953 33,434.6953 C33,430.0953 30,426.362 26.3333,426.362 M19.3667,443.0286 C15.8333,443.1953 13,446.0953 13,449.6953 L13,453.0286 L39.6667,453.0286 L39.6667,449.6953 C39.6667,446.0953 36.8667,443.1953 33.3,443.0286 C31.5,445.062 29.0333,446.362 26.3333,446.362 C23.6333,446.362 21.1667,445.062 19.3667,443.0286 " fill="#0A9EFD" style="stroke:;stroke-width:0.0;stroke-dasharray:;"/><rect fill="none" height="40.6667" rx="2.5" ry="2.5" style="stroke:#0A9EFD;stroke-width:2.0;" width="42.6667" x="165" y="25.3105"/><path d="M174.1333,32.3105 C173.5333,32.3105 173,32.8439 173,33.4439 L173,57.8105 C173,58.4105 173.5333,58.9439 174.1333,58.9439 L195.1667,58.9439 C195.7667,58.9439 196.3,58.4105 196.3,57.8105 L196.3,33.4439 C196.3,32.8439 195.7667,32.3105 195.1667,32.3105 L174.1333,32.3105 M176.3333,35.6439 L193,35.6439 L193,52.3105 L176.3333,52.3105 L176.3333,35.6439 M184.6667,53.9772 C185.9333,53.9772 186.7667,55.3772 186.1333,56.4772 C185.5,57.5772 183.8667,57.5772 183.2,56.4772 C182.5667,55.3772 183.3667,53.9772 184.6667,53.9772 " fill="#0A9EFD" style="stroke:;stroke-width:0.0;stroke-dasharray:;"/><rect fill="none" height="40.6667" rx="2.5" ry="2.5" style="stroke:#0A9EFD;stroke-width:2.0;" width="42.6667" x="165" y="419.362"/><path d="M174.1333,426.362 C173.5333,426.362 173,426.8953 173,427.4953 L173,451.862 C173,452.462 173.5333,452.9953 174.1333,452.9953 L195.1667,452.9953 C195.7667,452.9953 196.3,452.462 196.3,451.862 L196.3,427.4953 C196.3,426.8953 195.7667,426.362 195.1667,426.362 L174.1333,426.362 M176.3333,429.6953 L193,429.6953 L193,446.362 L176.3333,446.362 L176.3333,429.6953 M184.6667,448.0286 C185.9333,448.0286 186.7667,449.4286 186.1333,450.5286 C185.5,451.6286 183.8667,451.6286 183.2,450.5286 C182.5667,449.4286 183.3667,448.0286 184.6667,448.0286 " fill="#0A9EFD" style="stroke:;stroke-width:0.0;stroke-dasharray:;"/><rect fill="none" height="40.6667" rx="2.5" ry="2.5" style="stroke:#0A9EFD;stroke-width:2.0;" width="42.6667" x="472.1667" y="25.3105"/><path d="M495.1667,32.3105 C491.1333,32.3105 487.6,35.1772 486.8333,38.9772 C483.1667,38.9772 480.1667,41.9772 480.1667,45.6439 C480.1667,49.3105 483.1667,52.3105 486.8333,52.3105 L501.8333,52.3105 C504.6,52.3105 506.8333,50.0772 506.8333,47.3105 C506.8333,45.1439 505.4333,43.0105 503.5,42.3105 L503.5,40.6439 C503.5,36.0439 499.7667,32.3105 495.1667,32.3105 " fill="#0A9EFD" style="stroke:;stroke-width:0.0;stroke-dasharray:;"/><rect fill="none" height="40.6667" rx="2.5" ry="2.5" style="stroke:#0A9EFD;stroke-width:2.0;" width="42.6667" x="472.1667" y="419.362"/><path d="M495.1667,426.362 C491.1333,426.362 487.6,429.2286 486.8333,433.0286 C483.1667,433.0286 480.1667,436.0286 480.1667,439.6953 C480.1667,443.362 483.1667,446.362 486.8333,446.362 L501.8333,446.362 C504.6,446.362 506.8333,444.1286 506.8333,441.362 C506.8333,439.1953 505.4333,437.062 503.5,436.362 L503.5,434.6953 C503.5,430.0953 499.7667,426.362 495.1667,426.362 " fill="#0A9EFD" style="stroke:;stroke-width:0.0;stroke-dasharray:;"/><polygon fill="#0A9EFD" points="174.3333,93.9259,184.3333,97.9259,174.3333,101.9259,178.3333,97.9259" style="stroke:#0A9EFD;stroke-width:1.0;"/><line style="stroke:#0A9EFD;stroke-width:2.0;" x1="26.3333" x2="180.3333" y1="97.9259" y2="97.9259"/><text fill="#0A9EFD" font-family="Arial" font-size="13" lengthAdjust="spacing" textLength="75" x="68.8333" y="93.1711">Start the app</text><path d="M155,112.9259 L323,112.9259 L323,119.8747 L313,129.8747 L155,129.8747 L155,112.9259 " fill="#EEEEEE" style="stroke:#0A9EFD;stroke-width:1.5;"/><rect fill="none" height="188.6411" style="stroke:#0A9EFD;stroke-width:2.0;" width="369.8333" x="155" y="112.9259"/><text fill="#000000" font-family="Arial" font-size="13" lengthAdjust="spacing" textLength="123" x="170" y="126.1198">Restrict media zones</text><line style="stroke:#0A9EFD;stroke-width:2.0;" x1="186.3333" x2="228.3333" y1="165.7721" y2="165.7721"/><line style="stroke:#0A9EFD;stroke-width:2.0;" x1="228.3333" x2="228.3333" y1="165.7721" y2="178.7721"/><line style="stroke:#0A9EFD;stroke-width:2.0;" x1="187.3333" x2="228.3333" y1="178.7721" y2="178.7721"/><polygon fill="#0A9EFD" points="197.3333,174.7721,187.3333,178.7721,197.3333,182.7721,193.3333,178.7721" style="stroke:#0A9EFD;stroke-width:1.0;"/><text fill="#0A9EFD" font-family="Arial" font-size="13" lengthAdjust="spacing" textLength="195" x="228.3333" y="146.0685">Set areaCode in the Agora engine</text><text fill="#0A9EFD" font-family="Arial" font-size="13" lengthAdjust="spacing" textLength="261" x="197.3333" y="161.0173">configuration to include/exclude media zones</text><line style="stroke:#0A9EFD;stroke-width:2.0;" x1="186.3333" x2="228.3333" y1="207.7209" y2="207.7209"/><line style="stroke:#0A9EFD;stroke-width:2.0;" x1="228.3333" x2="228.3333" y1="207.7209" y2="220.7209"/><line style="stroke:#0A9EFD;stroke-width:2.0;" x1="187.3333" x2="228.3333" y1="220.7209" y2="220.7209"/><polygon fill="#0A9EFD" points="197.3333,216.7209,187.3333,220.7209,197.3333,224.7209,193.3333,220.7209" style="stroke:#0A9EFD;stroke-width:1.0;"/><text fill="#0A9EFD" font-family="Arial" font-size="13" lengthAdjust="spacing" textLength="150" x="193.3333" y="202.966">Initialize the Agora engine</text><polygon fill="#0A9EFD" points="481.5,260.6183,491.5,264.6183,481.5,268.6183,485.5,264.6183" style="stroke:#0A9EFD;stroke-width:1.0;"/><line style="stroke:#0A9EFD;stroke-width:2.0;" x1="186.3333" x2="487.5" y1="264.6183" y2="264.6183"/><text fill="#0A9EFD" font-family="Arial" font-size="13" lengthAdjust="spacing" textLength="157" x="261.4167" y="244.9147">Connect to SDRTN&#174; in the</text><text fill="#0A9EFD" font-family="Arial" font-size="13" lengthAdjust="spacing" textLength="138" x="272.9167" y="259.8634">specified media zone(s)</text><polygon fill="#0A9EFD" points="197.3333,289.5671,187.3333,293.5671,197.3333,297.5671,193.3333,293.5671" style="stroke:#0A9EFD;stroke-width:1.0;"/><line style="stroke:#0A9EFD;stroke-width:2.0;" x1="191.3333" x2="492.5" y1="293.5671" y2="293.5671"/><text fill="#0A9EFD" font-family="Arial" font-size="13" lengthAdjust="spacing" textLength="108" x="285.9167" y="288.8122">Success response</text><polygon fill="#0A9EFD" points="174.3333,325.5158,184.3333,329.5158,174.3333,333.5158,178.3333,329.5158" style="stroke:#0A9EFD;stroke-width:1.0;"/><line style="stroke:#0A9EFD;stroke-width:2.0;" x1="26.3333" x2="180.3333" y1="329.5158" y2="329.5158"/><text fill="#0A9EFD" font-family="Arial" font-size="13" lengthAdjust="spacing" textLength="136" x="38.3333" y="324.7609">Select a channel to join</text><polygon fill="#0A9EFD" points="481.5,369.4132,491.5,373.4132,481.5,377.4132,485.5,373.4132" style="stroke:#0A9EFD;stroke-width:1.0;"/><line style="stroke:#0A9EFD;stroke-width:2.0;" x1="186.3333" x2="487.5" y1="373.4132" y2="373.4132"/><text fill="#0A9EFD" font-family="Arial" font-size="13" lengthAdjust="spacing" textLength="140" x="267.9167" y="353.7096">Join a channel with user</text><text fill="#0A9EFD" font-family="Arial" font-size="13" lengthAdjust="spacing" textLength="165" x="257.4167" y="368.6584">Id, channel name, and token</text><polygon fill="#0A9EFD" points="197.3333,398.362,187.3333,402.362,197.3333,406.362,193.3333,402.362" style="stroke:#0A9EFD;stroke-width:1.0;"/><line style="stroke:#0A9EFD;stroke-width:2.0;" x1="191.3333" x2="492.5" y1="402.362" y2="402.362"/><text fill="#0A9EFD" font-family="Arial" font-size="13" lengthAdjust="spacing" textLength="81" x="299.4167" y="397.6071">Join accepted</text><!--SRC=[TLBDJW8n4BxtASOz64tmv-2941A25pmO0d8ZCKDtM4QMQTDs8-6XV0YVp5btbRzmdNp_xHMBBQkS00iNy3skMUwvsfJ6BDmMibcaa1cF8R5bZv8WwqNUKVVfiT-xzXIYatu6664sdHYI79JMSWVUNwOcN9IK6kfWF3wbrc5W-ZnvU_t-kYnYIrVbZOOYzngQ1UxwjMuNfad9a5RQq7jZYk0g3nEAAR1DiA6S4NPEA1g5xrcK00FXqEaqBB_y9XH9mK9p0UjaoKKLCB5JW8DsoGVQDejUqXu99yPIMvp9_k6qJHU6JeGqeqgtIxH9r3nwihnaoWzSRkAjKTY-GsKjnGY1edSIgTxdP1igQmC4kqBrAckh3yTo5ED53mUGJquhgFHRm5n6UUV_BhYX3g0-GN9hagCaZOIcyOboymC0]--></g></svg>