<?xml version="1.0" encoding="UTF-8" standalone="no"?><svg xmlns="http://www.w3.org/2000/svg" xmlns:xlink="http://www.w3.org/1999/xlink" contentStyleType="text/css" height="227.2px" preserveAspectRatio="none" style="width:551px;height:227px;background:#00000000;" version="1.1" viewBox="0 0 551 227" width="551.2px" zoomAndPan="magnify"><defs/><g><rect fill="none" height="225.91" style="stroke:#0A9EFD;stroke-width:0.8000000000000002;" width="550.1333" x="0" y="0"/><rect fill="#999999" fill-opacity="0.33333" height="217.91" style="stroke:#0A9EFD;stroke-width:0.4000000000000001;" width="102.4" x="0.8" y="4.8"/><text fill="#000000" font-family="sans-serif" font-size="10.4" font-weight="bold" lengthAdjust="spacing" textLength="97.6" x="3.2" y="14.8547">Extension process</text><rect fill="#999999" fill-opacity="0.33333" height="217.91" style="stroke:#0A9EFD;stroke-width:0.4000000000000001;" width="76" x="246.6667" y="4.8"/><text fill="#000000" font-family="sans-serif" font-size="10.4" font-weight="bold" lengthAdjust="spacing" textLength="71.2" x="249.0667" y="14.8547">Main process</text><rect fill="#999999" fill-opacity="0.33333" height="217.91" style="stroke:#0A9EFD;stroke-width:0.4000000000000001;" width="83.2" x="463.7333" y="4.8"/><text fill="#000000" font-family="sans-serif" font-size="10.4" font-weight="bold" lengthAdjust="spacing" textLength="78.4" x="466.1333" y="14.8547">Agora SD-RTN</text><rect fill="#0A9EFD" fill-opacity="0.06667" height="106.1949" style="stroke:#0A9EFD;stroke-width:1.6000000000000003;" width="503.4667" x="26.9333" y="67.1818"/><line style="stroke:#0A9EFD;stroke-width:0.4000000000000001;stroke-dasharray:5.0,5.0;" x1="51.7333" x2="51.7333" y1="53.5818" y2="186.9767"/><line style="stroke:#0A9EFD;stroke-width:0.4000000000000001;stroke-dasharray:5.0,5.0;" x1="284.4" x2="284.4" y1="53.5818" y2="186.9767"/><line style="stroke:#0A9EFD;stroke-width:0.4000000000000001;stroke-dasharray:5.0,5.0;" x1="505.0667" x2="505.0667" y1="53.5818" y2="186.9767"/><rect height="32.5333" rx="2" ry="2" style="stroke:#0A9EFD;stroke-width:1.6000000000000003;fill:none;" width="34.1333" x="34.9333" y="20.2484"/><path d="M41.3333,25.8484 L41.3333,36.5151 L52,36.5151 L52,25.8484 L41.3333,25.8484 M54.6667,31.1818 L54.6667,39.1818 L46.6667,39.1818 L46.6667,41.8484 L57.3333,41.8484 L57.3333,31.1818 L54.6667,31.1818 M60,36.5151 L60,44.5151 L52,44.5151 L52,47.1818 L62.6667,47.1818 L62.6667,36.5151 L60,36.5151 " fill="#0A9EFD" style="stroke:;stroke-width:0.0;stroke-dasharray:;"/><rect height="32.5333" rx="2" ry="2" style="stroke:#0A9EFD;stroke-width:1.6000000000000003;fill:none;" width="34.1333" x="34.9333" y="186.1767"/><path d="M41.3333,191.7767 L41.3333,202.4434 L52,202.4434 L52,191.7767 L41.3333,191.7767 M54.6667,197.11 L54.6667,205.11 L46.6667,205.11 L46.6667,207.7767 L57.3333,207.7767 L57.3333,197.11 L54.6667,197.11 M60,202.4434 L60,210.4434 L52,210.4434 L52,213.11 L62.6667,213.11 L62.6667,202.4434 L60,202.4434 " fill="#0A9EFD" style="stroke:;stroke-width:0.0;stroke-dasharray:;"/><rect height="32.5333" rx="2" ry="2" style="stroke:#0A9EFD;stroke-width:1.6000000000000003;fill:none;" width="34.1333" x="267.6" y="20.2484"/><path d="M274,25.8484 L274,36.5151 L284.6667,36.5151 L284.6667,25.8484 L274,25.8484 M287.3333,31.1818 L287.3333,39.1818 L279.3333,39.1818 L279.3333,41.8484 L290,41.8484 L290,31.1818 L287.3333,31.1818 M292.6667,36.5151 L292.6667,44.5151 L284.6667,44.5151 L284.6667,47.1818 L295.3333,47.1818 L295.3333,36.5151 L292.6667,36.5151 " fill="#0A9EFD" style="stroke:;stroke-width:0.0;stroke-dasharray:;"/><rect height="32.5333" rx="2" ry="2" style="stroke:#0A9EFD;stroke-width:1.6000000000000003;fill:none;" width="34.1333" x="267.6" y="186.1767"/><path d="M274,191.7767 L274,202.4434 L284.6667,202.4434 L284.6667,191.7767 L274,191.7767 M287.3333,197.11 L287.3333,205.11 L279.3333,205.11 L279.3333,207.7767 L290,207.7767 L290,197.11 L287.3333,197.11 M292.6667,202.4434 L292.6667,210.4434 L284.6667,210.4434 L284.6667,213.11 L295.3333,213.11 L295.3333,202.4434 L292.6667,202.4434 " fill="#0A9EFD" style="stroke:;stroke-width:0.0;stroke-dasharray:;"/><rect height="32.5333" rx="2" ry="2" style="stroke:#0A9EFD;stroke-width:1.6000000000000003;fill:none;" width="34.1333" x="488.2667" y="20.2484"/><path d="M506.6667,25.8484 C503.44,25.8484 500.6133,28.1418 500,31.1818 C497.0667,31.1818 494.6667,33.5818 494.6667,36.5151 C494.6667,39.4484 497.0667,41.8484 500,41.8484 L512,41.8484 C514.2133,41.8484 516,40.0618 516,37.8484 C516,36.1151 514.88,34.4084 513.3333,33.8484 L513.3333,32.5151 C513.3333,28.8351 510.3467,25.8484 506.6667,25.8484 " fill="#0A9EFD" style="stroke:;stroke-width:0.0;stroke-dasharray:;"/><rect height="32.5333" rx="2" ry="2" style="stroke:#0A9EFD;stroke-width:1.6000000000000003;fill:none;" width="34.1333" x="488.2667" y="186.1767"/><path d="M506.6667,191.7767 C503.44,191.7767 500.6133,194.07 500,197.11 C497.0667,197.11 494.6667,199.51 494.6667,202.4434 C494.6667,205.3767 497.0667,207.7767 500,207.7767 L512,207.7767 C514.2133,207.7767 516,205.99 516,203.7767 C516,202.0434 514.88,200.3367 513.3333,199.7767 L513.3333,198.4434 C513.3333,194.7634 510.3467,191.7767 506.6667,191.7767 " fill="#0A9EFD" style="stroke:;stroke-width:0.0;stroke-dasharray:;"/><path d="M26.9333,67.1818 L132.5333,67.1818 L132.5333,72.7408 L124.5333,80.7408 L26.9333,80.7408 L26.9333,67.1818 " fill="#EEEEEE" style="stroke:#0A9EFD;stroke-width:1.2000000000000002;"/><rect fill="none" height="106.1949" style="stroke:#0A9EFD;stroke-width:1.6000000000000003;" width="503.4667" x="26.9333" y="67.1818"/><text fill="#000000" font-family="Arial" font-size="10.4" lengthAdjust="spacing" textLength="69.6" x="38.9333" y="77.7368">Screen sharing</text><polygon fill="#0A9EFD" points="60.8,94.2997,52.8,97.4997,60.8,100.6997,57.6,97.4997" style="stroke:#0A9EFD;stroke-width:0.8000000000000002;"/><line style="stroke:#0A9EFD;stroke-width:1.6000000000000003;" x1="56" x2="283.8667" y1="97.4997" y2="97.4997"/><text fill="#0A9EFD" font-family="Arial" font-size="10.4" lengthAdjust="spacing" textLength="164.8" x="85.9333" y="93.6958">One screen sharing command send</text><polygon fill="#0A9EFD" points="275.0667,117.4587,283.0667,120.6587,275.0667,123.8587,278.2667,120.6587" style="stroke:#0A9EFD;stroke-width:0.8000000000000002;"/><line style="stroke:#0A9EFD;stroke-width:1.6000000000000003;" x1="52" x2="279.8667" y1="120.6587" y2="120.6587"/><text fill="#0A9EFD" font-family="Arial" font-size="10.4" lengthAdjust="spacing" textLength="162.4" x="87.1333" y="116.8548">One screen sharing stream release</text><polygon fill="#0A9EFD" points="293.4667,140.6177,285.4667,143.8177,293.4667,147.0177,290.2667,143.8177" style="stroke:#0A9EFD;stroke-width:0.8000000000000002;"/><line style="stroke:#0A9EFD;stroke-width:1.6000000000000003;" x1="288.6667" x2="504.5333" y1="143.8177" y2="143.8177"/><text fill="#0A9EFD" font-family="Arial" font-size="10.4" lengthAdjust="spacing" textLength="157.6" x="316.2" y="140.0138">One subscription to other streams</text><polygon fill="#0A9EFD" points="495.7333,163.7767,503.7333,166.9767,495.7333,170.1767,498.9333,166.9767" style="stroke:#0A9EFD;stroke-width:0.8000000000000002;"/><line style="stroke:#0A9EFD;stroke-width:1.6000000000000003;" x1="284.6667" x2="500.5333" y1="166.9767" y2="166.9767"/><text fill="#0A9EFD" font-family="Arial" font-size="10.4" lengthAdjust="spacing" textLength="162.4" x="313.8" y="163.1728">One screen sharing stream release</text><!--MD5=[b85440fa435aeecb569b38a673d83f62]
@startuml
!include agora_skin.iuml

box "Extension process"
participant "<size:40><&layers>" as EXT
end box

box "Main process"
participant "<size:40><&layers>" as MAIN
end box

box "Agora SD-RTN"
participant "<size:40><&cloud>" as RTN
end box

group Screen sharing
MAIN->EXT: One screen sharing command send
EXT->MAIN: One screen sharing stream release
RTN->MAIN: One subscription to other streams
MAIN->RTN: One screen sharing stream release

end

@enduml

@startuml

scale max 1000 width
skinparam linetype ortho
hide stereotype

skinparam backgroundColor #00000000
skinparam Shadowing false
skinparam BoundaryBackgroundColor #00000000
skinparam BoundaryBorderColor #0a9efdff
skinparam DiagramBorderColor #0a9efdff
skinparam defaultTextAlignment center
skinparam SequenceMessageAlign center
skinparam ReferenceBorderThickness 2


skinparam sequence {

    ActorBorderThickness 3
   	ActorBorderColor #0a9efdff
	ActorBackgroundColor #00000000
	ActorFontColor #0a9efdff
	ActorFontName Arial
    ActorFontStyle regular
    ActorFontSize 14

    AgentBackgroundColor #00000000

   	ArrowFontColor #0a9efdff
   	ArrowFontSize 14
   	ArrowFontStyle regular
    ArrowColor #ee4c14
    ArrowThickness 2fs

    RectangleBorderThickness 3
    BoxBackgroundColor #99999955
    BoxBorderColor #0a9efdff

   	BoxFontColor #0a9efdff
   	BoxFontName Arial
   	BoxFontStyle regular
   	BoxFontSize 16

    BoundaryBackgroundColor #0a9efdff
    BoundaryBorderColor #0a9efdff
    BoundaryFontColor #0a9efdff
    BoundryFontName Arial
    BoundaryStereotypeFontColor #0a9efdff

    ClassBorderColor #0a9efdff
    ComponentBorderColor #0a9efdff

    DividerBackgroundColor #00000000
    DividerBorderColor #0a9efdff
    DividerBorderThickness 3
    DividerFontColor #0a9efdff
    DividerFontName Arial
    DividerFontSize regular
    DividerFontStyle 14

    GroupBorderColor #0a9efdff
    GroupBodyBackgroundColor #0a9efd11
    GroupHeaderBackgroundColor #0a9efd11
    GroupBorderThickness 2
    GroupFontName Arial
    GroupFontSize 13
    GroupFontColor #0a9efdff
    GroupHeaderFontColor #000000
    GroupHeaderFontName Arial
    GroupHeaderFontSize 13
    GroupHeaderFontStyle regular

   	LifeLineBorderColor #0a9efdff
   	LifeLineBackgroundColor #0a9efdff
   	LifeLineFontColor  #0a9efdff

   	ParticipantBorderColor #0a9efdff
   	ParticipantBackgroundColor #00000000
   	ParticipantFontSize 14
   	ParticipantFontStyle regular
   	ParticipantFontName Arial
   	ParticipantFontColor #0a9efdff
    ParticipantBorderThickness 2

    ReferenceBorderThickness 2



    TitleFontColor #0a9efdff
    TitleFontName Arial
    TitleFontSize 18
    TitleBorderThickness 5

}
skinparam interface {
  BackgroundColor #00000000
  BorderColor #0a9efdff
  BorderThickness 1
  FontColor #0a9efdff
  FontName Arial
  FontSize 13
  FontStyle regulars

}


skinparam usecase {
  BackgroundColor #00000000
  BorderColor #ee4c14
  BorderThickness 1
  FontColor #0a9efdff
  FontName Arial
  FontSize 13
  FontStyle regular

}

skinparam note {

  BackgroundColor #00000000

  BorderColor #0a9efdff
  BorderThickness 1

  StartColor #0a9efdff
  BarColor #0a9efdff
  EndColor #0a9efdff

  FontColor #0a9efdff
  FontName Arial
  FontSize 13
  FontStyle regular

}

skinparam activity {

  BackgroundColor #00000000
  DiamondBackgroundColor #00000000
  DiamondBorderColor #0a9efdff
  BorderColor #0a9efdff
  BorderThickness 4
  DiamondBackgroundColor #00000000
  DiamondBorderColor #0a9efdff
  DiamondFontColor #0a9efdff
  activityDiamondFontName Arial
  activityDiamondFontSize 13
  DiamondFontStyle regular
  StartColor #0a9efdff
  StopColor #0a9efdff
  BarColor #0a9efdff
  EndColor #0a9efdff

  FontColor #0a9efdff
  FontName Arial
  FontSize 13
  FontStyle regular

}

skinparam card {
  BackgroundColor #00000000
  BorderColor #00000000
  BorderThickness 0
  FontColor #00000000
}


skinparam rectangle {

  BackgroundColor #00000000

  BorderColor #0a9efdff
  BorderThickness 4

  StartColor #0a9efdff
  BarColor #0a9efdff
  EndColor #0a9efdff

  FontColor #0a9efdff
  FontName Arial
  FontSize 13
  FontStyle regular

  shadowing true
}

skinparam agent {

  BackgroundColor #00000000
  BorderColor #0a9efdff
  BorderThickness 4

  StartColor #0a9efdff
  BarColor #0a9efdff
  EndColor #0a9efdff

  FontColor #0a9efdff
  FontName Arial
  FontSize 13
  FontStyle regular

  shadowing true
}

skinparam folder {

  BackgroundColor #00000000

  BorderColor #0a9efdff
  BorderThickness 4

  StartColor #0a9efdff
  BarColor #0a9efdff
  EndColor #0a9efdff

  FontColor #0a9efdff
  FontName Arial
  FontSize 13
  FontStyle regular

  shadowing true
}

skinparam file {

  BackgroundColor #00000000

  BorderColor #0a9efdff
  BorderThickness 4

  StartColor #0a9efdff
  BarColor #0a9efdff
  EndColor #0a9efdff

  FontColor #0a9efdff
  FontName Arial
  FontSize 13
  FontStyle regular

  shadowing true
}

skinparam cloud {

  BackgroundColor #00000000

  BorderColor #0a9efdff
  BorderThickness 4

  StartColor #0a9efdff
  BarColor #0a9efdff
  EndColor #0a9efdff

  FontColor #0a9efdff
  FontName Arial
  FontSize 13
  FontStyle regular

}

skinparam class {

  BackgroundColor #00000000

  BorderColor #0a9efdff
  BorderThickness 1

  StartColor #0a9efdff
  BarColor #0a9efdff
  EndColor #0a9efdff

  FontColor #0a9efdff
  FontName Arial
  FontSize 13
  FontStyle regular



}

skinparam component {

  BackgroundColor  #00000000

  BorderColor #0a9efdff
  BorderThickness 2

  FontColor #0a9efdff
  FontName Arial
  FontSize 13
  FontStyle regular
}



skinparam database {

  BackgroundColor #88888855

  BorderColor #0a9efdff
  BorderThickness 2

  FontColor #0a9efdff
  FontName Arial
  FontSize 13
  FontStyle regular

}


skinparam frame {

  ArrowColor #0a9efdff

  BackgroundColor #00000000
  BorderColor #0a9efdff
  BorderThickness 4

  FontColor #0a9efdff
  FontName Arial
  FontSize 13
  FontStyle regular
}


skinparam node {

  ArrowColor #0a9efdff

  BorderThickness 2
  BackgroundColor #00000000
  BorderColor #0a9efdff

  FontColor #0a9efdff
  FontName Arial
  FontSize 13
  FontStyle regular

}

skinparam package {
  BorderThickness 2
  BackgroundColor #00000000
  BorderColor #0a9efdff

  FontColor #0a9efdff
  FontName Arial
  FontSize 13
  FontStyle regular

}


skinparam partition {

  BackgroundColor #88888855

  BorderColor #0a9efdff
  BorderThickness 2

  FontColor #0a9efdff
  FontName Arial
  FontSize 13
  FontStyle regular

}

skinparam ArrowFontColor #0a9efdff
skinparam ArrowFontSize 13
skinparam ArrowFontStyle regular
skinparam ArrowColor #0a9efdff
skinparam ArrowThickness 2
skinparam ArrowFontName Arial

skinparam linetype ortho
hide stereotype




box "Extension process"
participant "<size:40><&layers>" as EXT
end box

box "Main process"
participant "<size:40><&layers>" as MAIN
end box

box "Agora SD-RTN"
participant "<size:40><&cloud>" as RTN
end box

group Screen sharing
MAIN->EXT: One screen sharing command send
EXT->MAIN: One screen sharing stream release
RTN->MAIN: One subscription to other streams
MAIN->RTN: One screen sharing stream release

end

@enduml

PlantUML version 1.2022.7(Mon Aug 22 22:31:30 IST 2022)
(GPL source distribution)
Java Runtime: OpenJDK Runtime Environment
JVM: OpenJDK 64-Bit Server VM
Default Encoding: UTF-8
Language: en
Country: LK
--></g></svg>