<?xml version="1.0" encoding="us-ascii" standalone="no"?><svg xmlns="http://www.w3.org/2000/svg" xmlns:xlink="http://www.w3.org/1999/xlink" contentStyleType="text/css" height="473px" preserveAspectRatio="none" style="width:660px;height:473px;" version="1.1" viewBox="0 0 660 473" width="660px" zoomAndPan="magnify"><defs/><g><rect fill="none" height="471.9774" style="stroke:#0A9EFD;stroke-width:1.0;" width="658.3333" x="0" y="0"/><rect fill="#999999" fill-opacity="0.33333" height="461.9774" style="stroke:#0A9EFD;stroke-width:0.5;" width="50.6667" x="16" y="6"/><text fill="#0A9EFD" font-family="sans-serif" font-size="13" font-weight="bold" lengthAdjust="spacing" textLength="28" x="27.3333" y="18.5684">App</text><rect fill="#999999" fill-opacity="0.33333" height="461.9774" style="stroke:#0A9EFD;stroke-width:0.5;" width="74" x="296" y="6"/><text fill="#0A9EFD" font-family="sans-serif" font-size="13" font-weight="bold" lengthAdjust="spacing" textLength="68" x="299" y="18.5684">Video SDK</text><rect fill="#999999" fill-opacity="0.33333" height="461.9774" style="stroke:#0A9EFD;stroke-width:0.5;" width="107" x="547.3333" y="6"/><text fill="#0A9EFD" font-family="sans-serif" font-size="13" font-weight="bold" lengthAdjust="spacing" textLength="101" x="550.3333" y="18.5684">Agora SDRTN&#174;</text><rect fill="#0A9EFD" fill-opacity="0.06667" height="322.3335" style="stroke:#0A9EFD;stroke-width:2.0;" width="622.1667" x="10" y="83.9772"/><line style="stroke:#0A9EFD;stroke-width:0.5;stroke-dasharray:5.0,5.0;" x1="41" x2="41" y1="66.9772" y2="423.3107"/><line style="stroke:#0A9EFD;stroke-width:0.5;stroke-dasharray:5.0,5.0;" x1="332.6667" x2="332.6667" y1="66.9772" y2="423.3107"/><line style="stroke:#0A9EFD;stroke-width:0.5;stroke-dasharray:5.0,5.0;" x1="600.5" x2="600.5" y1="66.9772" y2="423.3107"/><rect fill="none" height="40.6667" rx="2.5" ry="2.5" style="stroke:#0A9EFD;stroke-width:2.0;" width="42.6667" x="20" y="25.3105"/><path d="M29.1333,32.3105 C28.5333,32.3105 28,32.8439 28,33.4439 L28,57.8105 C28,58.4105 28.5333,58.9439 29.1333,58.9439 L50.1667,58.9439 C50.7667,58.9439 51.3,58.4105 51.3,57.8105 L51.3,33.4439 C51.3,32.8439 50.7667,32.3105 50.1667,32.3105 L29.1333,32.3105 M31.3333,35.6439 L48,35.6439 L48,52.3105 L31.3333,52.3105 L31.3333,35.6439 M39.6667,53.9772 C40.9333,53.9772 41.7667,55.3772 41.1333,56.4772 C40.5,57.5772 38.8667,57.5772 38.2,56.4772 C37.5667,55.3772 38.3667,53.9772 39.6667,53.9772 " fill="#0A9EFD" style="stroke:;stroke-width:0.0;stroke-dasharray:;"/><rect fill="none" height="40.6667" rx="2.5" ry="2.5" style="stroke:#0A9EFD;stroke-width:2.0;" width="42.6667" x="20" y="422.3107"/><path d="M29.1333,429.3107 C28.5333,429.3107 28,429.844 28,430.444 L28,454.8107 C28,455.4107 28.5333,455.944 29.1333,455.944 L50.1667,455.944 C50.7667,455.944 51.3,455.4107 51.3,454.8107 L51.3,430.444 C51.3,429.844 50.7667,429.3107 50.1667,429.3107 L29.1333,429.3107 M31.3333,432.644 L48,432.644 L48,449.3107 L31.3333,449.3107 L31.3333,432.644 M39.6667,450.9774 C40.9333,450.9774 41.7667,452.3774 41.1333,453.4774 C40.5,454.5774 38.8667,454.5774 38.2,453.4774 C37.5667,452.3774 38.3667,450.9774 39.6667,450.9774 " fill="#0A9EFD" style="stroke:;stroke-width:0.0;stroke-dasharray:;"/><rect fill="none" height="40.6667" rx="2.5" ry="2.5" style="stroke:#0A9EFD;stroke-width:2.0;" width="42.6667" x="311.6667" y="25.3105"/><path d="M319.6667,32.3105 L319.6667,45.6439 L333,45.6439 L333,32.3105 L319.6667,32.3105 M336.3333,38.9772 L336.3333,48.9772 L326.3333,48.9772 L326.3333,52.3105 L339.6667,52.3105 L339.6667,38.9772 L336.3333,38.9772 M343,45.6439 L343,55.6439 L333,55.6439 L333,58.9772 L346.3333,58.9772 L346.3333,45.6439 L343,45.6439 " fill="#0A9EFD" style="stroke:;stroke-width:0.0;stroke-dasharray:;"/><rect fill="none" height="40.6667" rx="2.5" ry="2.5" style="stroke:#0A9EFD;stroke-width:2.0;" width="42.6667" x="311.6667" y="422.3107"/><path d="M319.6667,429.3107 L319.6667,442.644 L333,442.644 L333,429.3107 L319.6667,429.3107 M336.3333,435.9774 L336.3333,445.9774 L326.3333,445.9774 L326.3333,449.3107 L339.6667,449.3107 L339.6667,435.9774 L336.3333,435.9774 M343,442.644 L343,452.644 L333,452.644 L333,455.9774 L346.3333,455.9774 L346.3333,442.644 L343,442.644 " fill="#0A9EFD" style="stroke:;stroke-width:0.0;stroke-dasharray:;"/><rect fill="none" height="40.6667" rx="2.5" ry="2.5" style="stroke:#0A9EFD;stroke-width:2.0;" width="42.6667" x="579.5" y="25.3105"/><path d="M602.5,32.3105 C598.4667,32.3105 594.9333,35.1772 594.1667,38.9772 C590.5,38.9772 587.5,41.9772 587.5,45.6439 C587.5,49.3105 590.5,52.3105 594.1667,52.3105 L609.1667,52.3105 C611.9333,52.3105 614.1667,50.0772 614.1667,47.3105 C614.1667,45.1439 612.7667,43.0105 610.8333,42.3105 L610.8333,40.6439 C610.8333,36.0439 607.1,32.3105 602.5,32.3105 " fill="#0A9EFD" style="stroke:;stroke-width:0.0;stroke-dasharray:;"/><rect fill="none" height="40.6667" rx="2.5" ry="2.5" style="stroke:#0A9EFD;stroke-width:2.0;" width="42.6667" x="579.5" y="422.3107"/><path d="M602.5,429.3107 C598.4667,429.3107 594.9333,432.1774 594.1667,435.9774 C590.5,435.9774 587.5,438.9774 587.5,442.644 C587.5,446.3107 590.5,449.3107 594.1667,449.3107 L609.1667,449.3107 C611.9333,449.3107 614.1667,447.0774 614.1667,444.3107 C614.1667,442.144 612.7667,440.0107 610.8333,439.3107 L610.8333,437.644 C610.8333,433.044 607.1,429.3107 602.5,429.3107 " fill="#0A9EFD" style="stroke:;stroke-width:0.0;stroke-dasharray:;"/><path d="M10,83.9772 L142,83.9772 L142,90.9259 L132,100.9259 L10,100.9259 L10,83.9772 " fill="#EEEEEE" style="stroke:#0A9EFD;stroke-width:1.5;"/><rect fill="none" height="322.3335" style="stroke:#0A9EFD;stroke-width:2.0;" width="622.1667" x="10" y="83.9772"/><text fill="#000000" font-family="Arial" font-size="13" lengthAdjust="spacing" textLength="87" x="25" y="97.1711">Screen sharing</text><polygon fill="#0A9EFD" points="321,117.8747,331,121.8747,321,125.8747,325,121.8747" style="stroke:#0A9EFD;stroke-width:1.0;"/><line style="stroke:#0A9EFD;stroke-width:2.0;" x1="41.3333" x2="327" y1="121.8747" y2="121.8747"/><text fill="#0A9EFD" font-family="Arial" font-size="13" lengthAdjust="spacing" textLength="208" x="83.1667" y="117.1198">Set the high-quality scene (optional)</text><polygon fill="#0A9EFD" points="321,146.8234,331,150.8234,321,154.8234,325,150.8234" style="stroke:#0A9EFD;stroke-width:1.0;"/><line style="stroke:#0A9EFD;stroke-width:2.0;" x1="41.3333" x2="327" y1="150.8234" y2="150.8234"/><text fill="#0A9EFD" font-family="Arial" font-size="13" lengthAdjust="spacing" textLength="118" x="128.1667" y="146.0685">Start screen capture</text><polygon fill="#0A9EFD" points="321,175.7721,331,179.7721,321,183.7721,325,179.7721" style="stroke:#0A9EFD;stroke-width:1.0;"/><line style="stroke:#0A9EFD;stroke-width:2.0;" x1="41.3333" x2="327" y1="179.7721" y2="179.7721"/><text fill="#0A9EFD" font-family="Arial" font-size="13" lengthAdjust="spacing" textLength="227" x="73.6667" y="175.0173">Set the screen sharing scene (optional)</text><polygon fill="#0A9EFD" points="321,204.7209,331,208.7209,321,212.7209,325,208.7209" style="stroke:#0A9EFD;stroke-width:1.0;"/><line style="stroke:#0A9EFD;stroke-width:2.0;" x1="41.3333" x2="327" y1="208.7209" y2="208.7209"/><text fill="#0A9EFD" font-family="Arial" font-size="13" lengthAdjust="spacing" textLength="95" x="139.6667" y="203.966">Join the channel</text><polygon fill="#0A9EFD" points="588.8333,248.6183,598.8333,252.6183,588.8333,256.6183,592.8333,252.6183" style="stroke:#0A9EFD;stroke-width:1.0;"/><line style="stroke:#0A9EFD;stroke-width:2.0;" x1="333" x2="594.8333" y1="252.6183" y2="252.6183"/><text fill="#0A9EFD" font-family="Arial" font-size="13" lengthAdjust="spacing" textLength="154" x="389.9167" y="232.9147">Publish the screen sharing</text><text fill="#0A9EFD" font-family="Arial" font-size="13" lengthAdjust="spacing" textLength="125" x="406.4167" y="247.8634">stream in the channel</text><polygon fill="#0A9EFD" points="321,277.5671,331,281.5671,321,285.5671,325,281.5671" style="stroke:#0A9EFD;stroke-width:1.0;"/><line style="stroke:#0A9EFD;stroke-width:2.0;" x1="41.3333" x2="327" y1="281.5671" y2="281.5671"/><text fill="#0A9EFD" font-family="Arial" font-size="13" lengthAdjust="spacing" textLength="256" x="59.1667" y="276.8122">Update screen sharing parameters (optional)</text><polygon fill="#0A9EFD" points="588.8333,321.4645,598.8333,325.4645,588.8333,329.4645,592.8333,325.4645" style="stroke:#0A9EFD;stroke-width:1.0;"/><line style="stroke:#0A9EFD;stroke-width:2.0;" x1="333" x2="594.8333" y1="325.4645" y2="325.4645"/><text fill="#0A9EFD" font-family="Arial" font-size="13" lengthAdjust="spacing" textLength="204" x="364.9167" y="305.7609">Publish the updated screen sharing</text><text fill="#0A9EFD" font-family="Arial" font-size="13" lengthAdjust="spacing" textLength="125" x="406.4167" y="320.7096">stream in the channel</text><polygon fill="#0A9EFD" points="321,350.4132,331,354.4132,321,358.4132,325,354.4132" style="stroke:#0A9EFD;stroke-width:1.0;"/><line style="stroke:#0A9EFD;stroke-width:2.0;" x1="41.3333" x2="327" y1="354.4132" y2="354.4132"/><text fill="#0A9EFD" font-family="Arial" font-size="13" lengthAdjust="spacing" textLength="116" x="129.1667" y="349.6584">Stop screen sahring</text><polygon fill="#0A9EFD" points="588.8333,394.3107,598.8333,398.3107,588.8333,402.3107,592.8333,398.3107" style="stroke:#0A9EFD;stroke-width:1.0;"/><line style="stroke:#0A9EFD;stroke-width:2.0;" x1="333" x2="594.8333" y1="398.3107" y2="398.3107"/><text fill="#0A9EFD" font-family="Arial" font-size="13" lengthAdjust="spacing" textLength="200" x="366.9167" y="378.6071">Stop publishing the screen sharing</text><text fill="#0A9EFD" font-family="Arial" font-size="13" lengthAdjust="spacing" textLength="125" x="406.4167" y="393.5558">stream in the channel</text><!--SRC=[bP71IWCn48RlUOfn3wA75G-UIbaeU5AGugedGQRPOHDCavXCmFfGFeHFvdGhjjQsq5j8_l_x_vcSMAzTwGYm3mbVyglr5xRCdLApy0xL9CPAHKnijOte6QfnjXyqkhfingUCCqVSL80P9jEf8j-1k7wiJxQZ0EtrxNw0mmMbl0A8S0imMJQI-_k7kw_F_H3jGkbM356k6NqA9KAh4v67R31PtokfMJSIDOAM6DWG6DkR-gsWixo0hCaJd8N8DdXqvvjwbdmH33YDaKkY7RZy9-yGy2POFrYqGU_9ARcj6nbX1DCoSpQR7S1dEN4YdCEMUSrzZ1toloAoFPmJoxets-oEB0EXEpwwvH1_NMY6ZQyZXjUuobbMEc8w-LJr3G00]--></g></svg>