<?xml version="1.0" encoding="us-ascii" standalone="no"?><svg xmlns="http://www.w3.org/2000/svg" xmlns:xlink="http://www.w3.org/1999/xlink" contentStyleType="text/css" height="561px" preserveAspectRatio="none" style="width:659px;height:561px;" version="1.1" viewBox="0 0 659 561" width="659px" zoomAndPan="magnify"><defs/><g><rect fill="none" height="559.8646" style="stroke:#0A9EFD;stroke-width:1.0;" width="657.3333" x="0" y="0"/><rect fill="#999999" fill-opacity="0.33333" height="549.8646" style="stroke:#0A9EFD;stroke-width:0.5;" width="50.6667" x="16" y="6"/><text fill="#0A9EFD" font-family="sans-serif" font-size="13" font-weight="bold" lengthAdjust="spacing" textLength="25" x="28.8333" y="19.4951">App</text><rect fill="#999999" fill-opacity="0.33333" height="549.8646" style="stroke:#0A9EFD;stroke-width:0.5;" width="74" x="306" y="6"/><text fill="#0A9EFD" font-family="sans-serif" font-size="13" font-weight="bold" lengthAdjust="spacing" textLength="68" x="309" y="19.4951">Video SDK</text><rect fill="#999999" fill-opacity="0.33333" height="549.8646" style="stroke:#0A9EFD;stroke-width:0.5;" width="96" x="557.3333" y="6"/><text fill="#0A9EFD" font-family="sans-serif" font-size="13" font-weight="bold" lengthAdjust="spacing" textLength="90" x="560.3333" y="19.4951">Agora SD-RTN</text><rect fill="#0A9EFD" fill-opacity="0.06667" height="409.1797" style="stroke:#0A9EFD;stroke-width:2.0;" width="626.6667" x="10" y="85.0182"/><line style="stroke:#0A9EFD;stroke-width:0.5;stroke-dasharray:5.0,5.0;" x1="41" x2="41" y1="68.0182" y2="511.1979"/><line style="stroke:#0A9EFD;stroke-width:0.5;stroke-dasharray:5.0,5.0;" x1="342.6667" x2="342.6667" y1="68.0182" y2="511.1979"/><line style="stroke:#0A9EFD;stroke-width:0.5;stroke-dasharray:5.0,5.0;" x1="605" x2="605" y1="68.0182" y2="511.1979"/><rect fill="none" height="40.6667" rx="2.5" ry="2.5" style="stroke:#0A9EFD;stroke-width:2.0;" width="42.6667" x="20" y="26.3516"/><path d="M29.1333,33.3516 C28.5333,33.3516 28,33.8849 28,34.4849 L28,58.8516 C28,59.4516 28.5333,59.9849 29.1333,59.9849 L50.1667,59.9849 C50.7667,59.9849 51.3,59.4516 51.3,58.8516 L51.3,34.4849 C51.3,33.8849 50.7667,33.3516 50.1667,33.3516 L29.1333,33.3516 M31.3333,36.6849 L48,36.6849 L48,53.3516 L31.3333,53.3516 L31.3333,36.6849 M39.6667,55.0182 C40.9333,55.0182 41.7667,56.4182 41.1333,57.5182 C40.5,58.6182 38.8667,58.6182 38.2,57.5182 C37.5667,56.4182 38.3667,55.0182 39.6667,55.0182 " fill="#0A9EFD" style="stroke:;stroke-width:0.0;stroke-dasharray:;"/><rect fill="none" height="40.6667" rx="2.5" ry="2.5" style="stroke:#0A9EFD;stroke-width:2.0;" width="42.6667" x="20" y="510.1979"/><path d="M29.1333,517.1979 C28.5333,517.1979 28,517.7313 28,518.3313 L28,542.6979 C28,543.2979 28.5333,543.8313 29.1333,543.8313 L50.1667,543.8313 C50.7667,543.8313 51.3,543.2979 51.3,542.6979 L51.3,518.3313 C51.3,517.7313 50.7667,517.1979 50.1667,517.1979 L29.1333,517.1979 M31.3333,520.5313 L48,520.5313 L48,537.1979 L31.3333,537.1979 L31.3333,520.5313 M39.6667,538.8646 C40.9333,538.8646 41.7667,540.2646 41.1333,541.3646 C40.5,542.4646 38.8667,542.4646 38.2,541.3646 C37.5667,540.2646 38.3667,538.8646 39.6667,538.8646 " fill="#0A9EFD" style="stroke:;stroke-width:0.0;stroke-dasharray:;"/><rect fill="none" height="40.6667" rx="2.5" ry="2.5" style="stroke:#0A9EFD;stroke-width:2.0;" width="42.6667" x="321.6667" y="26.3516"/><path d="M329.6667,33.3516 L329.6667,46.6849 L343,46.6849 L343,33.3516 L329.6667,33.3516 M346.3333,40.0182 L346.3333,50.0182 L336.3333,50.0182 L336.3333,53.3516 L349.6667,53.3516 L349.6667,40.0182 L346.3333,40.0182 M353,46.6849 L353,56.6849 L343,56.6849 L343,60.0182 L356.3333,60.0182 L356.3333,46.6849 L353,46.6849 " fill="#0A9EFD" style="stroke:;stroke-width:0.0;stroke-dasharray:;"/><rect fill="none" height="40.6667" rx="2.5" ry="2.5" style="stroke:#0A9EFD;stroke-width:2.0;" width="42.6667" x="321.6667" y="510.1979"/><path d="M329.6667,517.1979 L329.6667,530.5313 L343,530.5313 L343,517.1979 L329.6667,517.1979 M346.3333,523.8646 L346.3333,533.8646 L336.3333,533.8646 L336.3333,537.1979 L349.6667,537.1979 L349.6667,523.8646 L346.3333,523.8646 M353,530.5313 L353,540.5313 L343,540.5313 L343,543.8646 L356.3333,543.8646 L356.3333,530.5313 L353,530.5313 " fill="#0A9EFD" style="stroke:;stroke-width:0.0;stroke-dasharray:;"/><rect fill="none" height="40.6667" rx="2.5" ry="2.5" style="stroke:#0A9EFD;stroke-width:2.0;" width="42.6667" x="584" y="26.3516"/><path d="M607,33.3516 C602.9667,33.3516 599.4333,36.2182 598.6667,40.0182 C595,40.0182 592,43.0182 592,46.6849 C592,50.3516 595,53.3516 598.6667,53.3516 L613.6667,53.3516 C616.4333,53.3516 618.6667,51.1182 618.6667,48.3516 C618.6667,46.1849 617.2667,44.0516 615.3333,43.3516 L615.3333,41.6849 C615.3333,37.0849 611.6,33.3516 607,33.3516 " fill="#0A9EFD" style="stroke:;stroke-width:0.0;stroke-dasharray:;"/><rect fill="none" height="40.6667" rx="2.5" ry="2.5" style="stroke:#0A9EFD;stroke-width:2.0;" width="42.6667" x="584" y="510.1979"/><path d="M607,517.1979 C602.9667,517.1979 599.4333,520.0646 598.6667,523.8646 C595,523.8646 592,526.8646 592,530.5313 C592,534.1979 595,537.1979 598.6667,537.1979 L613.6667,537.1979 C616.4333,537.1979 618.6667,534.9646 618.6667,532.1979 C618.6667,530.0313 617.2667,527.8979 615.3333,527.1979 L615.3333,525.5313 C615.3333,520.9313 611.6,517.1979 607,517.1979 " fill="#0A9EFD" style="stroke:;stroke-width:0.0;stroke-dasharray:;"/><path d="M10,85.0182 L142,85.0182 L142,91.967 L132,101.967 L10,101.967 L10,85.0182 " fill="#EEEEEE" style="stroke:#0A9EFD;stroke-width:1.5;"/><rect fill="none" height="409.1797" style="stroke:#0A9EFD;stroke-width:2.0;" width="626.6667" x="10" y="85.0182"/><text fill="#000000" font-family="Arial" font-size="13" lengthAdjust="spacing" textLength="87" x="25" y="98.2121">Screen sharing</text><polygon fill="#0A9EFD" points="331,118.9157,341,122.9157,331,126.9157,335,122.9157" style="stroke:#0A9EFD;stroke-width:1.0;"/><line style="stroke:#0A9EFD;stroke-width:2.0;" x1="41.3333" x2="337" y1="122.9157" y2="122.9157"/><text fill="#0A9EFD" font-family="Arial" font-size="13" lengthAdjust="spacing" textLength="245" x="69.6667" y="118.1608">Get available screen or window information</text><polygon fill="#0A9EFD" points="52.3333,147.8644,42.3333,151.8644,52.3333,155.8644,48.3333,151.8644" style="stroke:#0A9EFD;stroke-width:1.0;"/><line style="stroke:#0A9EFD;stroke-width:2.0;" x1="46.3333" x2="342" y1="151.8644" y2="151.8644"/><text fill="#0A9EFD" font-family="Arial" font-size="13" lengthAdjust="spacing" textLength="262" x="61.1667" y="147.1095">Return available screen or window information</text><polygon fill="#0A9EFD" points="331,176.8132,341,180.8132,331,184.8132,335,180.8132" style="stroke:#0A9EFD;stroke-width:1.0;"/><line style="stroke:#0A9EFD;stroke-width:2.0;" x1="41.3333" x2="337" y1="180.8132" y2="180.8132"/><text fill="#0A9EFD" font-family="Arial" font-size="13" lengthAdjust="spacing" textLength="118" x="133.1667" y="176.0583">Start screen capture</text><polygon fill="#0A9EFD" points="331,205.7619,341,209.7619,331,213.7619,335,209.7619" style="stroke:#0A9EFD;stroke-width:1.0;"/><line style="stroke:#0A9EFD;stroke-width:2.0;" x1="41.3333" x2="337" y1="209.7619" y2="209.7619"/><text fill="#0A9EFD" font-family="Arial" font-size="13" lengthAdjust="spacing" textLength="227" x="78.6667" y="205.007">Set the screen sharing scene (optional)</text><polygon fill="#0A9EFD" points="331,234.7106,341,238.7106,331,242.7106,335,238.7106" style="stroke:#0A9EFD;stroke-width:1.0;"/><line style="stroke:#0A9EFD;stroke-width:2.0;" x1="41.3333" x2="337" y1="238.7106" y2="238.7106"/><text fill="#0A9EFD" font-family="Arial" font-size="13" lengthAdjust="spacing" textLength="94" x="145.1667" y="233.9557">Join the channel</text><polygon fill="#0A9EFD" points="593.3333,278.6081,603.3333,282.6081,593.3333,286.6081,597.3333,282.6081" style="stroke:#0A9EFD;stroke-width:1.0;"/><line style="stroke:#0A9EFD;stroke-width:2.0;" x1="343" x2="599.3333" y1="282.6081" y2="282.6081"/><text fill="#0A9EFD" font-family="Arial" font-size="13" lengthAdjust="spacing" textLength="154" x="397.1667" y="262.9045">Publish the screen sharing</text><text fill="#0A9EFD" font-family="Arial" font-size="13" lengthAdjust="spacing" textLength="125" x="413.6667" y="277.8532">stream in the channel</text><polygon fill="#0A9EFD" points="331,307.5568,341,311.5568,331,315.5568,335,311.5568" style="stroke:#0A9EFD;stroke-width:1.0;"/><line style="stroke:#0A9EFD;stroke-width:2.0;" x1="41.3333" x2="337" y1="311.5568" y2="311.5568"/><text fill="#0A9EFD" font-family="Arial" font-size="13" lengthAdjust="spacing" textLength="265" x="59.6667" y="306.8019">Update the screen sharing area or parameters</text><polygon fill="#0A9EFD" points="331,336.5055,341,340.5055,331,344.5055,335,340.5055" style="stroke:#0A9EFD;stroke-width:1.0;"/><line style="stroke:#0A9EFD;stroke-width:2.0;" x1="41.3333" x2="337" y1="340.5055" y2="340.5055"/><text fill="#0A9EFD" font-family="Arial" font-size="13" lengthAdjust="spacing" textLength="266" x="59.1667" y="335.7507">Display stroke on the shared screen (optional)</text><polygon fill="#0A9EFD" points="331,365.4543,341,369.4543,331,373.4543,335,369.4543" style="stroke:#0A9EFD;stroke-width:1.0;"/><line style="stroke:#0A9EFD;stroke-width:2.0;" x1="41.3333" x2="337" y1="369.4543" y2="369.4543"/><text fill="#0A9EFD" font-family="Arial" font-size="13" lengthAdjust="spacing" textLength="136" x="124.1667" y="364.6994">Block window (optional)</text><polygon fill="#0A9EFD" points="593.3333,409.3517,603.3333,413.3517,593.3333,417.3517,597.3333,413.3517" style="stroke:#0A9EFD;stroke-width:1.0;"/><line style="stroke:#0A9EFD;stroke-width:2.0;" x1="343" x2="599.3333" y1="413.3517" y2="413.3517"/><text fill="#0A9EFD" font-family="Arial" font-size="13" lengthAdjust="spacing" textLength="204" x="372.1667" y="393.6481">Publish the updated screen sharing</text><text fill="#0A9EFD" font-family="Arial" font-size="13" lengthAdjust="spacing" textLength="125" x="413.6667" y="408.5968">stream in the channel</text><polygon fill="#0A9EFD" points="331,438.3005,341,442.3005,331,446.3005,335,442.3005" style="stroke:#0A9EFD;stroke-width:1.0;"/><line style="stroke:#0A9EFD;stroke-width:2.0;" x1="41.3333" x2="337" y1="442.3005" y2="442.3005"/><text fill="#0A9EFD" font-family="Arial" font-size="13" lengthAdjust="spacing" textLength="116" x="134.1667" y="437.5456">Stop screen sahring</text><polygon fill="#0A9EFD" points="593.3333,482.1979,603.3333,486.1979,593.3333,490.1979,597.3333,486.1979" style="stroke:#0A9EFD;stroke-width:1.0;"/><line style="stroke:#0A9EFD;stroke-width:2.0;" x1="343" x2="599.3333" y1="486.1979" y2="486.1979"/><text fill="#0A9EFD" font-family="Arial" font-size="13" lengthAdjust="spacing" textLength="200" x="374.1667" y="466.4943">Stop publishing the screen sharing</text><text fill="#0A9EFD" font-family="Arial" font-size="13" lengthAdjust="spacing" textLength="125" x="413.6667" y="481.443">stream in the channel</text><!--SRC=[bP9FImCn4CNl-HJZ7aGFAnuybR9GAGWAKhhgIP3fPko6PfEGPAtwwPtijdOfsqDl-JFlD-zbSg5CfLj9W6lhyIDibBbHRQE5MDblo6REPSAXZwfI3as4R1hKBqtkRelfPSILfbXaW05cYuKW8u5LE-cRacIXd3-T1cZy8Hzw01SU0MR94P_dovVdqunAsrRs2Aux8DRUjWxAoXCP23LwPTQ2NUO5Tvh00qN0BrGwPO3GbraFMsMatO8odzOt69KrIJJDEz6IOklD6RfTipAo-NrnXOufDBncBx7-f-tCyfOCmPLrYORwUg1ujCfqagf6OqWBFiqBpZ-1HRlIAjGZm7TUHK_Om97um7rr4YEDcK4Mffmy1cmeyjW6ihaAZcUPy7P3O7jyafBSWqPpt6jRRVPlDwWOZzDsxkJviSfetRyAw-uh75fqjwxlawAUyNBysyGV]--></g></svg>