<?xml version="1.0" encoding="us-ascii" standalone="no"?><svg xmlns="http://www.w3.org/2000/svg" xmlns:xlink="http://www.w3.org/1999/xlink" contentStyleType="text/css" height="475px" preserveAspectRatio="none" style="width:649px;height:475px;" version="1.1" viewBox="0 0 649 475" width="649px" zoomAndPan="magnify"><defs/><g><rect fill="none" height="473.0184" style="stroke:#0A9EFD;stroke-width:1.0;" width="647.3333" x="0" y="0"/><rect fill="#999999" fill-opacity="0.33333" height="463.0184" style="stroke:#0A9EFD;stroke-width:0.5;" width="50.6667" x="16" y="6"/><text fill="#0A9EFD" font-family="sans-serif" font-size="13" font-weight="bold" lengthAdjust="spacing" textLength="25" x="28.8333" y="19.4951">App</text><rect fill="#999999" fill-opacity="0.33333" height="463.0184" style="stroke:#0A9EFD;stroke-width:0.5;" width="74" x="296" y="6"/><text fill="#0A9EFD" font-family="sans-serif" font-size="13" font-weight="bold" lengthAdjust="spacing" textLength="68" x="299" y="19.4951">Video SDK</text><rect fill="#999999" fill-opacity="0.33333" height="463.0184" style="stroke:#0A9EFD;stroke-width:0.5;" width="96" x="547.3333" y="6"/><text fill="#0A9EFD" font-family="sans-serif" font-size="13" font-weight="bold" lengthAdjust="spacing" textLength="90" x="550.3333" y="19.4951">Agora SD-RTN</text><rect fill="#0A9EFD" fill-opacity="0.06667" height="322.3335" style="stroke:#0A9EFD;stroke-width:2.0;" width="616.6667" x="10" y="85.0182"/><line style="stroke:#0A9EFD;stroke-width:0.5;stroke-dasharray:5.0,5.0;" x1="41" x2="41" y1="68.0182" y2="424.3517"/><line style="stroke:#0A9EFD;stroke-width:0.5;stroke-dasharray:5.0,5.0;" x1="332.6667" x2="332.6667" y1="68.0182" y2="424.3517"/><line style="stroke:#0A9EFD;stroke-width:0.5;stroke-dasharray:5.0,5.0;" x1="595" x2="595" y1="68.0182" y2="424.3517"/><rect fill="none" height="40.6667" rx="2.5" ry="2.5" style="stroke:#0A9EFD;stroke-width:2.0;" width="42.6667" x="20" y="26.3516"/><path d="M29.1333,33.3516 C28.5333,33.3516 28,33.8849 28,34.4849 L28,58.8516 C28,59.4516 28.5333,59.9849 29.1333,59.9849 L50.1667,59.9849 C50.7667,59.9849 51.3,59.4516 51.3,58.8516 L51.3,34.4849 C51.3,33.8849 50.7667,33.3516 50.1667,33.3516 L29.1333,33.3516 M31.3333,36.6849 L48,36.6849 L48,53.3516 L31.3333,53.3516 L31.3333,36.6849 M39.6667,55.0182 C40.9333,55.0182 41.7667,56.4182 41.1333,57.5182 C40.5,58.6182 38.8667,58.6182 38.2,57.5182 C37.5667,56.4182 38.3667,55.0182 39.6667,55.0182 " fill="#0A9EFD" style="stroke:;stroke-width:0.0;stroke-dasharray:;"/><rect fill="none" height="40.6667" rx="2.5" ry="2.5" style="stroke:#0A9EFD;stroke-width:2.0;" width="42.6667" x="20" y="423.3517"/><path d="M29.1333,430.3517 C28.5333,430.3517 28,430.8851 28,431.4851 L28,455.8517 C28,456.4517 28.5333,456.9851 29.1333,456.9851 L50.1667,456.9851 C50.7667,456.9851 51.3,456.4517 51.3,455.8517 L51.3,431.4851 C51.3,430.8851 50.7667,430.3517 50.1667,430.3517 L29.1333,430.3517 M31.3333,433.6851 L48,433.6851 L48,450.3517 L31.3333,450.3517 L31.3333,433.6851 M39.6667,452.0184 C40.9333,452.0184 41.7667,453.4184 41.1333,454.5184 C40.5,455.6184 38.8667,455.6184 38.2,454.5184 C37.5667,453.4184 38.3667,452.0184 39.6667,452.0184 " fill="#0A9EFD" style="stroke:;stroke-width:0.0;stroke-dasharray:;"/><rect fill="none" height="40.6667" rx="2.5" ry="2.5" style="stroke:#0A9EFD;stroke-width:2.0;" width="42.6667" x="311.6667" y="26.3516"/><path d="M319.6667,33.3516 L319.6667,46.6849 L333,46.6849 L333,33.3516 L319.6667,33.3516 M336.3333,40.0182 L336.3333,50.0182 L326.3333,50.0182 L326.3333,53.3516 L339.6667,53.3516 L339.6667,40.0182 L336.3333,40.0182 M343,46.6849 L343,56.6849 L333,56.6849 L333,60.0182 L346.3333,60.0182 L346.3333,46.6849 L343,46.6849 " fill="#0A9EFD" style="stroke:;stroke-width:0.0;stroke-dasharray:;"/><rect fill="none" height="40.6667" rx="2.5" ry="2.5" style="stroke:#0A9EFD;stroke-width:2.0;" width="42.6667" x="311.6667" y="423.3517"/><path d="M319.6667,430.3517 L319.6667,443.6851 L333,443.6851 L333,430.3517 L319.6667,430.3517 M336.3333,437.0184 L336.3333,447.0184 L326.3333,447.0184 L326.3333,450.3517 L339.6667,450.3517 L339.6667,437.0184 L336.3333,437.0184 M343,443.6851 L343,453.6851 L333,453.6851 L333,457.0184 L346.3333,457.0184 L346.3333,443.6851 L343,443.6851 " fill="#0A9EFD" style="stroke:;stroke-width:0.0;stroke-dasharray:;"/><rect fill="none" height="40.6667" rx="2.5" ry="2.5" style="stroke:#0A9EFD;stroke-width:2.0;" width="42.6667" x="574" y="26.3516"/><path d="M597,33.3516 C592.9667,33.3516 589.4333,36.2182 588.6667,40.0182 C585,40.0182 582,43.0182 582,46.6849 C582,50.3516 585,53.3516 588.6667,53.3516 L603.6667,53.3516 C606.4333,53.3516 608.6667,51.1182 608.6667,48.3516 C608.6667,46.1849 607.2667,44.0516 605.3333,43.3516 L605.3333,41.6849 C605.3333,37.0849 601.6,33.3516 597,33.3516 " fill="#0A9EFD" style="stroke:;stroke-width:0.0;stroke-dasharray:;"/><rect fill="none" height="40.6667" rx="2.5" ry="2.5" style="stroke:#0A9EFD;stroke-width:2.0;" width="42.6667" x="574" y="423.3517"/><path d="M597,430.3517 C592.9667,430.3517 589.4333,433.2184 588.6667,437.0184 C585,437.0184 582,440.0184 582,443.6851 C582,447.3517 585,450.3517 588.6667,450.3517 L603.6667,450.3517 C606.4333,450.3517 608.6667,448.1184 608.6667,445.3517 C608.6667,443.1851 607.2667,441.0517 605.3333,440.3517 L605.3333,438.6851 C605.3333,434.0851 601.6,430.3517 597,430.3517 " fill="#0A9EFD" style="stroke:;stroke-width:0.0;stroke-dasharray:;"/><path d="M10,85.0182 L142,85.0182 L142,91.967 L132,101.967 L10,101.967 L10,85.0182 " fill="#EEEEEE" style="stroke:#0A9EFD;stroke-width:1.5;"/><rect fill="none" height="322.3335" style="stroke:#0A9EFD;stroke-width:2.0;" width="616.6667" x="10" y="85.0182"/><text fill="#000000" font-family="Arial" font-size="13" lengthAdjust="spacing" textLength="87" x="25" y="98.2121">Screen sharing</text><polygon fill="#0A9EFD" points="321,118.9157,331,122.9157,321,126.9157,325,122.9157" style="stroke:#0A9EFD;stroke-width:1.0;"/><line style="stroke:#0A9EFD;stroke-width:2.0;" x1="41.3333" x2="327" y1="122.9157" y2="122.9157"/><text fill="#0A9EFD" font-family="Arial" font-size="13" lengthAdjust="spacing" textLength="208" x="83.1667" y="118.1608">Set the high-quality scene (optional)</text><polygon fill="#0A9EFD" points="321,147.8644,331,151.8644,321,155.8644,325,151.8644" style="stroke:#0A9EFD;stroke-width:1.0;"/><line style="stroke:#0A9EFD;stroke-width:2.0;" x1="41.3333" x2="327" y1="151.8644" y2="151.8644"/><text fill="#0A9EFD" font-family="Arial" font-size="13" lengthAdjust="spacing" textLength="118" x="128.1667" y="147.1095">Start screen capture</text><polygon fill="#0A9EFD" points="321,176.8132,331,180.8132,321,184.8132,325,180.8132" style="stroke:#0A9EFD;stroke-width:1.0;"/><line style="stroke:#0A9EFD;stroke-width:2.0;" x1="41.3333" x2="327" y1="180.8132" y2="180.8132"/><text fill="#0A9EFD" font-family="Arial" font-size="13" lengthAdjust="spacing" textLength="227" x="73.6667" y="176.0583">Set the screen sharing scene (optional)</text><polygon fill="#0A9EFD" points="321,205.7619,331,209.7619,321,213.7619,325,209.7619" style="stroke:#0A9EFD;stroke-width:1.0;"/><line style="stroke:#0A9EFD;stroke-width:2.0;" x1="41.3333" x2="327" y1="209.7619" y2="209.7619"/><text fill="#0A9EFD" font-family="Arial" font-size="13" lengthAdjust="spacing" textLength="94" x="140.1667" y="205.007">Join the channel</text><polygon fill="#0A9EFD" points="583.3333,249.6593,593.3333,253.6593,583.3333,257.6593,587.3333,253.6593" style="stroke:#0A9EFD;stroke-width:1.0;"/><line style="stroke:#0A9EFD;stroke-width:2.0;" x1="333" x2="589.3333" y1="253.6593" y2="253.6593"/><text fill="#0A9EFD" font-family="Arial" font-size="13" lengthAdjust="spacing" textLength="154" x="387.1667" y="233.9557">Publish the screen sharing</text><text fill="#0A9EFD" font-family="Arial" font-size="13" lengthAdjust="spacing" textLength="125" x="403.6667" y="248.9045">stream in the channel</text><polygon fill="#0A9EFD" points="321,278.6081,331,282.6081,321,286.6081,325,282.6081" style="stroke:#0A9EFD;stroke-width:1.0;"/><line style="stroke:#0A9EFD;stroke-width:2.0;" x1="41.3333" x2="327" y1="282.6081" y2="282.6081"/><text fill="#0A9EFD" font-family="Arial" font-size="13" lengthAdjust="spacing" textLength="256" x="59.1667" y="277.8532">Update screen sharing parameters (optional)</text><polygon fill="#0A9EFD" points="583.3333,322.5055,593.3333,326.5055,583.3333,330.5055,587.3333,326.5055" style="stroke:#0A9EFD;stroke-width:1.0;"/><line style="stroke:#0A9EFD;stroke-width:2.0;" x1="333" x2="589.3333" y1="326.5055" y2="326.5055"/><text fill="#0A9EFD" font-family="Arial" font-size="13" lengthAdjust="spacing" textLength="204" x="362.1667" y="306.8019">Publish the updated screen sharing</text><text fill="#0A9EFD" font-family="Arial" font-size="13" lengthAdjust="spacing" textLength="125" x="403.6667" y="321.7507">stream in the channel</text><polygon fill="#0A9EFD" points="321,351.4543,331,355.4543,321,359.4543,325,355.4543" style="stroke:#0A9EFD;stroke-width:1.0;"/><line style="stroke:#0A9EFD;stroke-width:2.0;" x1="41.3333" x2="327" y1="355.4543" y2="355.4543"/><text fill="#0A9EFD" font-family="Arial" font-size="13" lengthAdjust="spacing" textLength="116" x="129.1667" y="350.6994">Stop screen sahring</text><polygon fill="#0A9EFD" points="583.3333,395.3517,593.3333,399.3517,583.3333,403.3517,587.3333,399.3517" style="stroke:#0A9EFD;stroke-width:1.0;"/><line style="stroke:#0A9EFD;stroke-width:2.0;" x1="333" x2="589.3333" y1="399.3517" y2="399.3517"/><text fill="#0A9EFD" font-family="Arial" font-size="13" lengthAdjust="spacing" textLength="200" x="364.1667" y="379.6481">Stop publishing the screen sharing</text><text fill="#0A9EFD" font-family="Arial" font-size="13" lengthAdjust="spacing" textLength="125" x="403.6667" y="394.5968">stream in the channel</text><!--SRC=[bP51ImCn48Nl-HNZ7aGFAnuybR9GyAGWnLLFWaopmoQO9Z6PWFNNEzqLMsjRw2qaxttlpUJCUkrAHu1zIFYMtws_icNfb5g4JwXcCLOgOcAhRKJFK4sp_QB9pNKpFMTSEEAc0immcyyL-Gx4zMDziHq5Q6_l3mCShYZb4I327S1itKZkwyUdXyCCxKBfHeJeDeW-XHAXrOd8GpQOhE-LjAmRIPf0Imni28pjJVrHq5bUGTRa2Iv2P1iykijjFKk-20QSniWbqHvS_fDt37WNh1yisg3tv9JSresCC85vMJYRpHxWgvmu4IvXnxpXFiSE-LyHsHukYMNRsstsHvQ1q9qUtNA8louqmyOt4SDh77FMbKwOJZvLVGC0]--></g></svg>