<?xml version="1.0" encoding="us-ascii" standalone="no"?><svg xmlns="http://www.w3.org/2000/svg" xmlns:xlink="http://www.w3.org/1999/xlink" contentStyleType="text/css" height="667px" preserveAspectRatio="none" style="width:730px;height:667px;" version="1.1" viewBox="0 0 730 667" width="730px" zoomAndPan="magnify"><defs/><g><rect fill="none" height="665.377" style="stroke:#0A9EFD;stroke-width:1.0;" width="728.5" x="0" y="0"/><rect fill="#999999" fill-opacity="0.33333" height="655.377" style="stroke:#0A9EFD;stroke-width:0.5;" width="357" x="117.5" y="6"/><text fill="#0A9EFD" font-family="sans-serif" font-size="13" font-weight="bold" lengthAdjust="spacing" textLength="139" x="226.5" y="19.4951">Your client and server</text><rect fill="#999999" fill-opacity="0.33333" height="655.377" style="stroke:#0A9EFD;stroke-width:0.5;" width="182" x="536.5" y="6"/><text fill="#0A9EFD" font-family="sans-serif" font-size="13" font-weight="bold" lengthAdjust="spacing" textLength="38" x="608.5" y="19.4951">Agora</text><rect fill="#0A9EFD" fill-opacity="0.06667" height="74.8462" style="stroke:#0A9EFD;stroke-width:2.0;" width="613" x="111.5" y="132.0474"/><rect fill="#0A9EFD" fill-opacity="0.06667" height="132.7437" style="stroke:#0A9EFD;stroke-width:2.0;" width="613" x="111.5" y="220.8936"/><rect fill="#0A9EFD" fill-opacity="0.06667" height="74.8462" style="stroke:#0A9EFD;stroke-width:2.0;" width="613" x="111.5" y="367.6372"/><rect fill="#0A9EFD" fill-opacity="0.06667" height="74.8462" style="stroke:#0A9EFD;stroke-width:2.0;" width="613" x="111.5" y="485.4321"/><line style="stroke:#0A9EFD;stroke-width:0.5;stroke-dasharray:5.0,5.0;" x1="22" x2="22" y1="86.0986" y2="577.2783"/><line style="stroke:#0A9EFD;stroke-width:0.5;stroke-dasharray:5.0,5.0;" x1="163.5" x2="163.5" y1="86.0986" y2="577.2783"/><line style="stroke:#0A9EFD;stroke-width:0.5;stroke-dasharray:5.0,5.0;" x1="425.5" x2="425.5" y1="86.0986" y2="577.2783"/><line style="stroke:#0A9EFD;stroke-width:0.5;stroke-dasharray:5.0,5.0;" x1="573.5" x2="573.5" y1="86.0986" y2="577.2783"/><line style="stroke:#0A9EFD;stroke-width:0.5;stroke-dasharray:5.0,5.0;" x1="665.5" x2="665.5" y1="86.0986" y2="577.2783"/><text fill="#0A9EFD" font-family="Arial" font-size="14" lengthAdjust="spacing" textLength="29" x="5" y="83.1318">User</text><ellipse cx="22.5" cy="16" fill="none" rx="8" ry="8" style="stroke:#0A9EFD;stroke-width:3.0;"/><path d="M22.5,24 L22.5,51 M9.5,32 L35.5,32 M22.5,51 L9.5,66 M22.5,51 L35.5,66 " fill="none" style="stroke:#0A9EFD;stroke-width:3.0;"/><text fill="#0A9EFD" font-family="Arial" font-size="14" lengthAdjust="spacing" textLength="29" x="5" y="589.4102">User</text><ellipse cx="22.5" cy="603.377" fill="none" rx="8" ry="8" style="stroke:#0A9EFD;stroke-width:3.0;"/><path d="M22.5,611.377 L22.5,638.377 M9.5,619.377 L35.5,619.377 M22.5,638.377 L9.5,653.377 M22.5,638.377 L35.5,653.377 " fill="none" style="stroke:#0A9EFD;stroke-width:3.0;"/><rect fill="none" height="30.0986" rx="2.5" ry="2.5" style="stroke:#0A9EFD;stroke-width:2.0;" width="84" x="121.5" y="55"/><text fill="#0A9EFD" font-family="Arial" font-size="14" lengthAdjust="spacing" textLength="70" x="128.5" y="75.1318">Agora SDK</text><rect fill="none" height="30.0986" rx="2.5" ry="2.5" style="stroke:#0A9EFD;stroke-width:2.0;" width="84" x="121.5" y="576.2783"/><text fill="#0A9EFD" font-family="Arial" font-size="14" lengthAdjust="spacing" textLength="70" x="128.5" y="596.4102">Agora SDK</text><rect fill="none" height="30.0986" rx="2.5" ry="2.5" style="stroke:#0A9EFD;stroke-width:2.0;" width="90" x="380.5" y="55"/><text fill="#0A9EFD" font-family="Arial" font-size="14" lengthAdjust="spacing" textLength="76" x="387.5" y="75.1318">Your Server</text><rect fill="none" height="30.0986" rx="2.5" ry="2.5" style="stroke:#0A9EFD;stroke-width:2.0;" width="90" x="380.5" y="576.2783"/><text fill="#0A9EFD" font-family="Arial" font-size="14" lengthAdjust="spacing" textLength="76" x="387.5" y="596.4102">Your Server</text><rect fill="none" height="30.0986" rx="2.5" ry="2.5" style="stroke:#0A9EFD;stroke-width:2.0;" width="66" x="540.5" y="55"/><text fill="#0A9EFD" font-family="Arial" font-size="14" lengthAdjust="spacing" textLength="52" x="547.5" y="75.1318">SD-RTN</text><rect fill="none" height="30.0986" rx="2.5" ry="2.5" style="stroke:#0A9EFD;stroke-width:2.0;" width="66" x="540.5" y="576.2783"/><text fill="#0A9EFD" font-family="Arial" font-size="14" lengthAdjust="spacing" textLength="52" x="547.5" y="596.4102">SD-RTN</text><rect fill="none" height="46.1973" rx="2.5" ry="2.5" style="stroke:#0A9EFD;stroke-width:2.0;" width="98" x="616.5" y="38.9014"/><text fill="#0A9EFD" font-family="Arial" font-size="14" lengthAdjust="spacing" textLength="81" x="625" y="59.0332">Local Spatial</text><text fill="#0A9EFD" font-family="Arial" font-size="14" lengthAdjust="spacing" textLength="84" x="623.5" y="75.1318">Audio Engine</text><rect fill="none" height="46.1973" rx="2.5" ry="2.5" style="stroke:#0A9EFD;stroke-width:2.0;" width="98" x="616.5" y="576.2783"/><text fill="#0A9EFD" font-family="Arial" font-size="14" lengthAdjust="spacing" textLength="81" x="625" y="596.4102">Local Spatial</text><text fill="#0A9EFD" font-family="Arial" font-size="14" lengthAdjust="spacing" textLength="84" x="623.5" y="612.5088">Audio Engine</text><polygon fill="#0A9EFD" points="151.5,113.0474,161.5,117.0474,151.5,121.0474,155.5,117.0474" style="stroke:#0A9EFD;stroke-width:1.0;"/><line style="stroke:#0A9EFD;stroke-width:2.0;" x1="22.5" x2="157.5" y1="117.0474" y2="117.0474"/><text fill="#0A9EFD" font-family="Arial" font-size="13" lengthAdjust="spacing" textLength="117" x="34.5" y="112.2925">Enable spatial audio</text><path d="M111.5,132.0474 L363.5,132.0474 L363.5,138.9961 L353.5,148.9961 L111.5,148.9961 L111.5,132.0474 " fill="#EEEEEE" style="stroke:#0A9EFD;stroke-width:1.5;"/><rect fill="none" height="74.8462" style="stroke:#0A9EFD;stroke-width:2.0;" width="613" x="111.5" y="132.0474"/><text fill="#000000" font-family="Arial" font-size="13" lengthAdjust="spacing" textLength="207" x="126.5" y="145.2412">Initialize Local Spatial Audio Engine</text><polygon fill="#0A9EFD" points="653.5,165.9448,663.5,169.9448,653.5,173.9448,657.5,169.9448" style="stroke:#0A9EFD;stroke-width:1.0;"/><line style="stroke:#0A9EFD;stroke-width:2.0;" x1="163.5" x2="659.5" y1="169.9448" y2="169.9448"/><text fill="#0A9EFD" font-family="Arial" font-size="13" lengthAdjust="spacing" textLength="188" x="320.5" y="165.1899">Create local spatial audio engine</text><polygon fill="#0A9EFD" points="653.5,194.8936,663.5,198.8936,653.5,202.8936,657.5,198.8936" style="stroke:#0A9EFD;stroke-width:1.0;"/><line style="stroke:#0A9EFD;stroke-width:2.0;" x1="163.5" x2="659.5" y1="198.8936" y2="198.8936"/><text fill="#0A9EFD" font-family="Arial" font-size="13" lengthAdjust="spacing" textLength="111" x="359" y="194.1387">Initialize the engine</text><path d="M111.5,220.8936 L327.5,220.8936 L327.5,227.8423 L317.5,237.8423 L111.5,237.8423 L111.5,220.8936 " fill="#EEEEEE" style="stroke:#0A9EFD;stroke-width:1.5;"/><rect fill="none" height="132.7437" style="stroke:#0A9EFD;stroke-width:2.0;" width="613" x="111.5" y="220.8936"/><text fill="#000000" font-family="Arial" font-size="13" lengthAdjust="spacing" textLength="171" x="126.5" y="234.0874">Spatial audio effects for users</text><polygon fill="#0A9EFD" points="413.5,254.791,423.5,258.791,413.5,262.791,417.5,258.791" style="stroke:#0A9EFD;stroke-width:1.0;"/><line style="stroke:#0A9EFD;stroke-width:2.0;" x1="163.5" x2="419.5" y1="258.791" y2="258.791"/><text fill="#0A9EFD" font-family="Arial" font-size="13" lengthAdjust="spacing" textLength="152" x="218.5" y="254.0361">Send local spatial position</text><polygon fill="#0A9EFD" points="174.5,283.7397,164.5,287.7397,174.5,291.7397,170.5,287.7397" style="stroke:#0A9EFD;stroke-width:1.0;"/><line style="stroke:#0A9EFD;stroke-width:2.0;" x1="168.5" x2="424.5" y1="287.7397" y2="287.7397"/><text fill="#0A9EFD" font-family="Arial" font-size="13" lengthAdjust="spacing" textLength="238" x="175.5" y="282.9849">Receive spatial position of remote user(s)</text><polygon fill="#0A9EFD" points="653.5,312.6885,663.5,316.6885,653.5,320.6885,657.5,316.6885" style="stroke:#0A9EFD;stroke-width:1.0;"/><line style="stroke:#0A9EFD;stroke-width:2.0;" x1="163.5" x2="659.5" y1="316.6885" y2="316.6885"/><text fill="#0A9EFD" font-family="Arial" font-size="13" lengthAdjust="spacing" textLength="138" x="345.5" y="311.9336">Call update self position</text><polygon fill="#0A9EFD" points="653.5,341.6372,663.5,345.6372,653.5,349.6372,657.5,345.6372" style="stroke:#0A9EFD;stroke-width:1.0;"/><line style="stroke:#0A9EFD;stroke-width:2.0;" x1="163.5" x2="659.5" y1="345.6372" y2="345.6372"/><text fill="#0A9EFD" font-family="Arial" font-size="13" lengthAdjust="spacing" textLength="158" x="335.5" y="340.8823">Call update remote position</text><path d="M111.5,367.6372 L369.5,367.6372 L369.5,374.5859 L359.5,384.5859 L111.5,384.5859 L111.5,367.6372 " fill="#EEEEEE" style="stroke:#0A9EFD;stroke-width:1.5;"/><rect fill="none" height="74.8462" style="stroke:#0A9EFD;stroke-width:2.0;" width="613" x="111.5" y="367.6372"/><text fill="#000000" font-family="Arial" font-size="13" lengthAdjust="spacing" textLength="213" x="126.5" y="380.8311">Spatial audio effects for media player</text><polygon fill="#0A9EFD" points="653.5,401.5347,663.5,405.5347,653.5,409.5347,657.5,405.5347" style="stroke:#0A9EFD;stroke-width:1.0;"/><line style="stroke:#0A9EFD;stroke-width:2.0;" x1="163.5" x2="659.5" y1="405.5347" y2="405.5347"/><text fill="#0A9EFD" font-family="Arial" font-size="13" lengthAdjust="spacing" textLength="176" x="326.5" y="400.7798">Set spatial position of the user</text><polygon fill="#0A9EFD" points="653.5,430.4834,663.5,434.4834,653.5,438.4834,657.5,434.4834" style="stroke:#0A9EFD;stroke-width:1.0;"/><line style="stroke:#0A9EFD;stroke-width:2.0;" x1="163.5" x2="659.5" y1="434.4834" y2="434.4834"/><text fill="#0A9EFD" font-family="Arial" font-size="13" lengthAdjust="spacing" textLength="225" x="302" y="429.7285">Set spatial position of the media player</text><polygon fill="#0A9EFD" points="174.5,466.4321,164.5,470.4321,174.5,474.4321,170.5,470.4321" style="stroke:#0A9EFD;stroke-width:1.0;"/><polygon fill="#0A9EFD" points="561.5,466.4321,571.5,470.4321,561.5,474.4321,565.5,470.4321" style="stroke:#0A9EFD;stroke-width:1.0;"/><line style="stroke:#0A9EFD;stroke-width:2.0;" x1="168.5" x2="567.5" y1="470.4321" y2="470.4321"/><text fill="#0A9EFD" font-family="Arial" font-size="13" lengthAdjust="spacing" textLength="176" x="280.5" y="465.6772">Send and receive spatial audio</text><path d="M111.5,485.4321 L207.5,485.4321 L207.5,492.3809 L197.5,502.3809 L111.5,502.3809 L111.5,485.4321 " fill="#EEEEEE" style="stroke:#0A9EFD;stroke-width:1.5;"/><rect fill="none" height="74.8462" style="stroke:#0A9EFD;stroke-width:2.0;" width="613" x="111.5" y="485.4321"/><text fill="#000000" font-family="Arial" font-size="13" lengthAdjust="spacing" textLength="51" x="126.5" y="498.626">Clean up</text><polygon fill="#0A9EFD" points="653.5,519.3296,663.5,523.3296,653.5,527.3296,657.5,523.3296" style="stroke:#0A9EFD;stroke-width:1.0;"/><line style="stroke:#0A9EFD;stroke-width:2.0;" x1="163.5" x2="659.5" y1="523.3296" y2="523.3296"/><text fill="#0A9EFD" font-family="Arial" font-size="13" lengthAdjust="spacing" textLength="130" x="349.5" y="518.5747">Clear remote positions</text><polygon fill="#0A9EFD" points="653.5,548.2783,663.5,552.2783,653.5,556.2783,657.5,552.2783" style="stroke:#0A9EFD;stroke-width:1.0;"/><line style="stroke:#0A9EFD;stroke-width:2.0;" x1="163.5" x2="659.5" y1="552.2783" y2="552.2783"/><text fill="#0A9EFD" font-family="Arial" font-size="13" lengthAdjust="spacing" textLength="151" x="339" y="547.5234">Destroy the spatial engine</text><!--SRC=[ZP91ImCn48Nl-HLZJtge2DwA2BNrK2nI6Yi8WantPsimJPOaMrf_lPDqQvkseBSb- -PxxqroeKoXcv805zRXX_zIvberIotYLuqEb_1WrnCiIsKMS7iZ11R1EkZCFBaEe8UPd0enjslelDd6GQ4LcG1eIc35YaM2CK4LgaO-x_IZ3yZXKnhkJoRvxyIGsy4eaAzC9uQnGskJ24TKEUnENvvRv2Z_DxO5Qf0r1eNwtVIRKbbuD0jbA0sCPN_lm6sWUnzpzLY3SqtWjvE0SL28XRDD3IEZug7w9iZuS8WNZ8aqTkZ1m1460ftK6HFeL7t03v-qKt3CNG2P4wgAYk2XugjfUEz-1-FzzNYVN2ythgrd0skIxgwxrKsf8BMY4n7O2XmjBSUFy4j_bJT3hQ6forZFawvo-3bL2_lLfLv_5bjIgH1gZHjo6LfIE9ivRYu6_hSuSqYXjkk93sBKxZ6-R7UqgEnf33IXuQPvUpvqnxrz9XcI3yvkKf0TU7_lFm00]--></g></svg>