<?xml version="1.0" encoding="us-ascii" standalone="no"?><svg xmlns="http://www.w3.org/2000/svg" xmlns:xlink="http://www.w3.org/1999/xlink" contentStyleType="text/css" height="740px" preserveAspectRatio="none" style="width:431px;height:740px;" version="1.1" viewBox="0 0 431 740" width="431px" zoomAndPan="magnify"><defs/><g><rect fill="none" height="738.0111" style="stroke:#0A9EFD;stroke-width:1.0;" width="429.6667" x="0" y="0"/><rect fill="#999999" fill-opacity="0.33333" height="728.0111" style="stroke:#0A9EFD;stroke-width:0.5;" width="50.6667" x="16" y="6"/><text fill="#0A9EFD" font-family="sans-serif" font-size="13" font-weight="bold" lengthAdjust="spacing" textLength="25" x="28.8333" y="19.4951">App</text><rect fill="#999999" fill-opacity="0.33333" height="728.0111" style="stroke:#0A9EFD;stroke-width:0.5;" width="50.6667" x="282" y="6"/><text fill="#0A9EFD" font-family="sans-serif" font-size="13" font-weight="bold" lengthAdjust="spacing" textLength="38" x="288.3333" y="19.4951">Agora</text><text fill="#0A9EFD" font-family="sans-serif" font-size="13" font-weight="bold" lengthAdjust="spacing" textLength="44" x="285.3333" y="35.8467">Engine</text><rect fill="#999999" fill-opacity="0.33333" height="728.0111" style="stroke:#0A9EFD;stroke-width:0.5;" width="91" x="334.6667" y="6"/><text fill="#0A9EFD" font-family="sans-serif" font-size="13" font-weight="bold" lengthAdjust="spacing" textLength="85" x="337.6667" y="19.4951">Spatial audio</text><text fill="#0A9EFD" font-family="sans-serif" font-size="13" font-weight="bold" lengthAdjust="spacing" textLength="44" x="358.1667" y="35.8467">Engine</text><rect fill="#0A9EFD" fill-opacity="0.06667" height="74.8462" style="stroke:#0A9EFD;stroke-width:2.0;" width="401.5" x="10" y="361.9084"/><rect fill="#0A9EFD" fill-opacity="0.06667" height="74.8462" style="stroke:#0A9EFD;stroke-width:2.0;" width="401.5" x="10" y="450.7546"/><rect fill="#0A9EFD" fill-opacity="0.06667" height="132.7437" style="stroke:#0A9EFD;stroke-width:2.0;" width="401.5" x="10" y="539.6007"/><line style="stroke:#0A9EFD;stroke-width:0.5;stroke-dasharray:5.0,5.0;" x1="41" x2="41" y1="84.3698" y2="689.3444"/><line style="stroke:#0A9EFD;stroke-width:0.5;stroke-dasharray:5.0,5.0;" x1="307" x2="307" y1="84.3698" y2="689.3444"/><line style="stroke:#0A9EFD;stroke-width:0.5;stroke-dasharray:5.0,5.0;" x1="379.8333" x2="379.8333" y1="84.3698" y2="689.3444"/><rect fill="none" height="40.6667" rx="2.5" ry="2.5" style="stroke:#0A9EFD;stroke-width:2.0;" width="42.6667" x="20" y="42.7031"/><path d="M29.1333,49.7031 C28.5333,49.7031 28,50.2365 28,50.8365 L28,75.2031 C28,75.8031 28.5333,76.3365 29.1333,76.3365 L50.1667,76.3365 C50.7667,76.3365 51.3,75.8031 51.3,75.2031 L51.3,50.8365 C51.3,50.2365 50.7667,49.7031 50.1667,49.7031 L29.1333,49.7031 M31.3333,53.0365 L48,53.0365 L48,69.7031 L31.3333,69.7031 L31.3333,53.0365 M39.6667,71.3698 C40.9333,71.3698 41.7667,72.7698 41.1333,73.8698 C40.5,74.9698 38.8667,74.9698 38.2,73.8698 C37.5667,72.7698 38.3667,71.3698 39.6667,71.3698 " fill="#0A9EFD" style="stroke:;stroke-width:0.0;stroke-dasharray:;"/><rect fill="none" height="40.6667" rx="2.5" ry="2.5" style="stroke:#0A9EFD;stroke-width:2.0;" width="42.6667" x="20" y="688.3444"/><path d="M29.1333,695.3444 C28.5333,695.3444 28,695.8777 28,696.4777 L28,720.8444 C28,721.4444 28.5333,721.9777 29.1333,721.9777 L50.1667,721.9777 C50.7667,721.9777 51.3,721.4444 51.3,720.8444 L51.3,696.4777 C51.3,695.8777 50.7667,695.3444 50.1667,695.3444 L29.1333,695.3444 M31.3333,698.6777 L48,698.6777 L48,715.3444 L31.3333,715.3444 L31.3333,698.6777 M39.6667,717.0111 C40.9333,717.0111 41.7667,718.4111 41.1333,719.5111 C40.5,720.6111 38.8667,720.6111 38.2,719.5111 C37.5667,718.4111 38.3667,717.0111 39.6667,717.0111 " fill="#0A9EFD" style="stroke:;stroke-width:0.0;stroke-dasharray:;"/><rect fill="none" height="40.6667" rx="2.5" ry="2.5" style="stroke:#0A9EFD;stroke-width:2.0;" width="42.6667" x="286" y="42.7031"/><path d="M294,49.7031 L294,63.0365 L307.3333,63.0365 L307.3333,49.7031 L294,49.7031 M310.6667,56.3698 L310.6667,66.3698 L300.6667,66.3698 L300.6667,69.7031 L314,69.7031 L314,56.3698 L310.6667,56.3698 M317.3333,63.0365 L317.3333,73.0365 L307.3333,73.0365 L307.3333,76.3698 L320.6667,76.3698 L320.6667,63.0365 L317.3333,63.0365 " fill="#0A9EFD" style="stroke:;stroke-width:0.0;stroke-dasharray:;"/><rect fill="none" height="40.6667" rx="2.5" ry="2.5" style="stroke:#0A9EFD;stroke-width:2.0;" width="42.6667" x="286" y="688.3444"/><path d="M294,695.3444 L294,708.6777 L307.3333,708.6777 L307.3333,695.3444 L294,695.3444 M310.6667,702.0111 L310.6667,712.0111 L300.6667,712.0111 L300.6667,715.3444 L314,715.3444 L314,702.0111 L310.6667,702.0111 M317.3333,708.6777 L317.3333,718.6777 L307.3333,718.6777 L307.3333,722.0111 L320.6667,722.0111 L320.6667,708.6777 L317.3333,708.6777 " fill="#0A9EFD" style="stroke:;stroke-width:0.0;stroke-dasharray:;"/><rect fill="none" height="40.6667" rx="2.5" ry="2.5" style="stroke:#0A9EFD;stroke-width:2.0;" width="42.6667" x="358.8333" y="42.7031"/><path d="M366.8333,49.7031 L366.8333,76.3698 L393.5,76.3698 L393.5,68.4365 A1.6667,1.6667 0 0 0 393.5,67.7031 L393.5,49.6698 L366.8333,49.6698 M370.1667,53.0365 L390.1667,53.0365 L390.1667,66.3698 L385.1667,66.3698 A1.6667,1.6667 0 0 0 384.8667,66.3698 A1.6667,1.6667 0 1 0 385.1667,69.7031 L390.1667,69.7031 L390.1667,73.0365 L370.1667,73.0365 L370.1667,53.0365 M378.5,56.3698 C375.7333,56.3698 373.5,58.6031 373.5,61.3698 C373.5,64.7031 378.5,69.7031 378.5,69.7031 C378.5,69.7031 383.5,64.7031 383.5,61.3698 C383.5,58.6031 381.2667,56.3698 378.5,56.3698 M378.5,59.7031 C379.4333,59.7031 380.1667,60.4365 380.1667,61.3698 C380.1667,62.3031 379.4333,63.0365 378.5,63.0365 C377.5667,63.0365 376.8333,62.3031 376.8333,61.3698 C376.8333,60.4365 377.5667,59.7031 378.5,59.7031 " fill="#0A9EFD" style="stroke:;stroke-width:0.0;stroke-dasharray:;"/><rect fill="none" height="40.6667" rx="2.5" ry="2.5" style="stroke:#0A9EFD;stroke-width:2.0;" width="42.6667" x="358.8333" y="688.3444"/><path d="M366.8333,695.3444 L366.8333,722.0111 L393.5,722.0111 L393.5,714.0777 A1.6667,1.6667 0 0 0 393.5,713.3444 L393.5,695.3111 L366.8333,695.3111 M370.1667,698.6777 L390.1667,698.6777 L390.1667,712.0111 L385.1667,712.0111 A1.6667,1.6667 0 0 0 384.8667,712.0111 A1.6667,1.6667 0 1 0 385.1667,715.3444 L390.1667,715.3444 L390.1667,718.6777 L370.1667,718.6777 L370.1667,698.6777 M378.5,702.0111 C375.7333,702.0111 373.5,704.2444 373.5,707.0111 C373.5,710.3444 378.5,715.3444 378.5,715.3444 C378.5,715.3444 383.5,710.3444 383.5,707.0111 C383.5,704.2444 381.2667,702.0111 378.5,702.0111 M378.5,705.3444 C379.4333,705.3444 380.1667,706.0777 380.1667,707.0111 C380.1667,707.9444 379.4333,708.6777 378.5,708.6777 C377.5667,708.6777 376.8333,707.9444 376.8333,707.0111 C376.8333,706.0777 377.5667,705.3444 378.5,705.3444 " fill="#0A9EFD" style="stroke:;stroke-width:0.0;stroke-dasharray:;"/><polygon fill="#0A9EFD" points="295.3333,111.3185,305.3333,115.3185,295.3333,119.3185,299.3333,115.3185" style="stroke:#0A9EFD;stroke-width:1.0;"/><line style="stroke:#0A9EFD;stroke-width:2.0;" x1="41.3333" x2="301.3333" y1="115.3185" y2="115.3185"/><text fill="#0A9EFD" font-family="Arial" font-size="13" lengthAdjust="spacing" textLength="194" x="77.3333" y="110.5636">Create and initialize Agora engine</text><polygon fill="#0A9EFD" points="368.1667,140.2673,378.1667,144.2673,368.1667,148.2673,372.1667,144.2673" style="stroke:#0A9EFD;stroke-width:1.0;"/><line style="stroke:#0A9EFD;stroke-width:2.0;" x1="41.3333" x2="374.1667" y1="144.2673" y2="144.2673"/><text fill="#0A9EFD" font-family="Arial" font-size="13" lengthAdjust="spacing" textLength="188" x="116.75" y="139.5124">Initialize the spatial audio engine</text><polygon fill="#0A9EFD" points="295.3333,169.216,305.3333,173.216,295.3333,177.216,299.3333,173.216" style="stroke:#0A9EFD;stroke-width:1.0;"/><line style="stroke:#0A9EFD;stroke-width:2.0;" x1="41.3333" x2="301.3333" y1="173.216" y2="173.216"/><text fill="#0A9EFD" font-family="Arial" font-size="13" lengthAdjust="spacing" textLength="242" x="53.3333" y="168.4611">Set up an audio profile and audio scenario</text><polygon fill="#0A9EFD" points="295.3333,198.1647,305.3333,202.1647,295.3333,206.1647,299.3333,202.1647" style="stroke:#0A9EFD;stroke-width:1.0;"/><line style="stroke:#0A9EFD;stroke-width:2.0;" x1="41.3333" x2="301.3333" y1="202.1647" y2="202.1647"/><text fill="#0A9EFD" font-family="Arial" font-size="13" lengthAdjust="spacing" textLength="221" x="63.8333" y="197.4098">Set up a channel profile and client role</text><polygon fill="#0A9EFD" points="295.3333,227.1134,305.3333,231.1134,295.3333,235.1134,299.3333,231.1134" style="stroke:#0A9EFD;stroke-width:1.0;"/><line style="stroke:#0A9EFD;stroke-width:2.0;" x1="41.3333" x2="301.3333" y1="231.1134" y2="231.1134"/><text fill="#0A9EFD" font-family="Arial" font-size="13" lengthAdjust="spacing" textLength="83" x="132.8333" y="226.3586">Join a channel</text><polygon fill="#0A9EFD" points="295.3333,256.0622,305.3333,260.0622,295.3333,264.0622,299.3333,260.0622" style="stroke:#0A9EFD;stroke-width:1.0;"/><line style="stroke:#0A9EFD;stroke-width:2.0;" x1="41.3333" x2="301.3333" y1="260.0622" y2="260.0622"/><text fill="#0A9EFD" font-family="Arial" font-size="13" lengthAdjust="spacing" textLength="176" x="86.3333" y="255.3073">Mute all remote audio streams</text><polygon fill="#0A9EFD" points="368.1667,285.0109,378.1667,289.0109,368.1667,293.0109,372.1667,289.0109" style="stroke:#0A9EFD;stroke-width:1.0;"/><line style="stroke:#0A9EFD;stroke-width:2.0;" x1="41.3333" x2="374.1667" y1="289.0109" y2="289.0109"/><text fill="#0A9EFD" font-family="Arial" font-size="13" lengthAdjust="spacing" textLength="250" x="85.75" y="284.256">Set the number of receivable audio streams</text><polygon fill="#0A9EFD" points="368.1667,313.9596,378.1667,317.9596,368.1667,321.9596,372.1667,317.9596" style="stroke:#0A9EFD;stroke-width:1.0;"/><line style="stroke:#0A9EFD;stroke-width:2.0;" x1="41.3333" x2="374.1667" y1="317.9596" y2="317.9596"/><text fill="#0A9EFD" font-family="Arial" font-size="13" lengthAdjust="spacing" textLength="167" x="127.25" y="313.2048">Set the audio receiving range</text><polygon fill="#0A9EFD" points="368.1667,342.9084,378.1667,346.9084,368.1667,350.9084,372.1667,346.9084" style="stroke:#0A9EFD;stroke-width:1.0;"/><line style="stroke:#0A9EFD;stroke-width:2.0;" x1="41.3333" x2="374.1667" y1="346.9084" y2="346.9084"/><text fill="#0A9EFD" font-family="Arial" font-size="13" lengthAdjust="spacing" textLength="178" x="121.75" y="342.1535">Set the distance unit in meters</text><path d="M10,361.9084 L219,361.9084 L219,368.8571 L209,378.8571 L10,378.8571 L10,361.9084 " fill="#EEEEEE" style="stroke:#0A9EFD;stroke-width:1.5;"/><rect fill="none" height="74.8462" style="stroke:#0A9EFD;stroke-width:2.0;" width="401.5" x="10" y="361.9084"/><text fill="#000000" font-family="Arial" font-size="13" lengthAdjust="spacing" textLength="164" x="25" y="375.1022">Spatial audio effect for users</text><polygon fill="#0A9EFD" points="368.1667,395.8058,378.1667,399.8058,368.1667,403.8058,372.1667,399.8058" style="stroke:#0A9EFD;stroke-width:1.0;"/><line style="stroke:#0A9EFD;stroke-width:2.0;" x1="41.3333" x2="374.1667" y1="399.8058" y2="399.8058"/><text fill="#0A9EFD" font-family="Arial" font-size="13" lengthAdjust="spacing" textLength="114" x="153.75" y="395.0509">Update self position</text><polygon fill="#0A9EFD" points="368.1667,424.7546,378.1667,428.7546,368.1667,432.7546,372.1667,428.7546" style="stroke:#0A9EFD;stroke-width:1.0;"/><line style="stroke:#0A9EFD;stroke-width:2.0;" x1="41.3333" x2="374.1667" y1="428.7546" y2="428.7546"/><text fill="#0A9EFD" font-family="Arial" font-size="13" lengthAdjust="spacing" textLength="170" x="125.75" y="423.9997">Update remote user positions</text><path d="M10,450.7546 L261,450.7546 L261,457.7033 L251,467.7033 L10,467.7033 L10,450.7546 " fill="#EEEEEE" style="stroke:#0A9EFD;stroke-width:1.5;"/><rect fill="none" height="74.8462" style="stroke:#0A9EFD;stroke-width:2.0;" width="401.5" x="10" y="450.7546"/><text fill="#000000" font-family="Arial" font-size="13" lengthAdjust="spacing" textLength="206" x="25" y="463.9484">Spatial audio effect for media player</text><polygon fill="#0A9EFD" points="368.1667,484.652,378.1667,488.652,368.1667,492.652,372.1667,488.652" style="stroke:#0A9EFD;stroke-width:1.0;"/><line style="stroke:#0A9EFD;stroke-width:2.0;" x1="41.3333" x2="374.1667" y1="488.652" y2="488.652"/><text fill="#0A9EFD" font-family="Arial" font-size="13" lengthAdjust="spacing" textLength="114" x="153.75" y="483.8971">Update self position</text><polygon fill="#0A9EFD" points="368.1667,513.6007,378.1667,517.6007,368.1667,521.6007,372.1667,517.6007" style="stroke:#0A9EFD;stroke-width:1.0;"/><line style="stroke:#0A9EFD;stroke-width:2.0;" x1="41.3333" x2="374.1667" y1="517.6007" y2="517.6007"/><text fill="#0A9EFD" font-family="Arial" font-size="13" lengthAdjust="spacing" textLength="129" x="146.25" y="512.8459">Update player position</text><path d="M10,539.6007 L88,539.6007 L88,546.5495 L78,556.5495 L10,556.5495 L10,539.6007 " fill="#EEEEEE" style="stroke:#0A9EFD;stroke-width:1.5;"/><rect fill="none" height="132.7437" style="stroke:#0A9EFD;stroke-width:2.0;" width="401.5" x="10" y="539.6007"/><text fill="#000000" font-family="Arial" font-size="13" lengthAdjust="spacing" textLength="33" x="25" y="552.7946">Leave</text><polygon fill="#0A9EFD" points="368.1667,573.4982,378.1667,577.4982,368.1667,581.4982,372.1667,577.4982" style="stroke:#0A9EFD;stroke-width:1.0;"/><line style="stroke:#0A9EFD;stroke-width:2.0;" x1="41.3333" x2="374.1667" y1="577.4982" y2="577.4982"/><text fill="#0A9EFD" font-family="Arial" font-size="13" lengthAdjust="spacing" textLength="130" x="145.75" y="572.7433">Clear remote positions</text><polygon fill="#0A9EFD" points="368.1667,602.4469,378.1667,606.4469,368.1667,610.4469,372.1667,606.4469" style="stroke:#0A9EFD;stroke-width:1.0;"/><line style="stroke:#0A9EFD;stroke-width:2.0;" x1="41.3333" x2="374.1667" y1="606.4469" y2="606.4469"/><text fill="#0A9EFD" font-family="Arial" font-size="13" lengthAdjust="spacing" textLength="186" x="117.75" y="601.6921">Destroy the spatial audio engine</text><polygon fill="#0A9EFD" points="295.3333,631.3957,305.3333,635.3957,295.3333,639.3957,299.3333,635.3957" style="stroke:#0A9EFD;stroke-width:1.0;"/><line style="stroke:#0A9EFD;stroke-width:2.0;" x1="41.3333" x2="301.3333" y1="635.3957" y2="635.3957"/><text fill="#0A9EFD" font-family="Arial" font-size="13" lengthAdjust="spacing" textLength="104" x="122.3333" y="630.6408">Leave the channel</text><polygon fill="#0A9EFD" points="295.3333,660.3444,305.3333,664.3444,295.3333,668.3444,299.3333,664.3444" style="stroke:#0A9EFD;stroke-width:1.0;"/><line style="stroke:#0A9EFD;stroke-width:2.0;" x1="41.3333" x2="301.3333" y1="664.3444" y2="664.3444"/><text fill="#0A9EFD" font-family="Arial" font-size="13" lengthAdjust="spacing" textLength="125" x="111.8333" y="659.5895">Destroy Agora engine</text><!--SRC=[dP9FIyD04CNl-HHZ3zuK3vwA54hhmNzGgDu4cIQJT70pk-nkHFtqpYQjIQIbu2rat_lDl9avOybDKn1WPJs-XNUMIsvgasKR-mcJkNEJpA6FdBD3YJ2v2VnDq-khsSrvn8sXE9i01fYlLXb90UhQMnFmLMwbOg7Z48DVv4C7MIyV_a3M3YEZ0MmAjgTXDReTQJL_xb7QtCLCuLDOUCAeOVM5XHDQlT2s2jJ2TsBrJ-6kbyGjGHWsCvOdzfeYD4xPEu7pjcJJ5Ul-X9m4FTi39iYtA49cvCeDaoRqrWpht5kMtZ1CzzIaRCQ0fzgcpwvgrD1r60PBLLCYQUeDUR2bEdBYZxJGqwvEq3bOAl0e5HqI5XmYIaxGw21ru51Jr6LdMUMjXbwFvrcMb4SehOSc9DK0-EAAjBP0fWHdWsx5oe7tNUna_vK5I7TmicHD1IEuzXh_KRapzef1oKV2Zz5q5eRGxtlzRNEeM99EttuTFJeOxBp5jyhzGVHlUyxelbDhFm00]--></g></svg>