<?xml version="1.0" encoding="us-ascii" standalone="no"?><svg xmlns="http://www.w3.org/2000/svg" xmlns:xlink="http://www.w3.org/1999/xlink" contentStyleType="text/css" height="667px" preserveAspectRatio="none" style="width:740px;height:667px;" version="1.1" viewBox="0 0 740 667" width="740px" zoomAndPan="magnify"><defs/><g><rect fill="none" height="665.377" style="stroke:#0A9EFD;stroke-width:1.0;" width="738" x="0" y="0"/><rect fill="#999999" fill-opacity="0.33333" height="655.377" style="stroke:#0A9EFD;stroke-width:0.5;" width="360" x="118" y="6"/><text fill="#0A9EFD" font-family="sans-serif" font-size="13" font-weight="bold" lengthAdjust="spacing" textLength="150" x="223" y="18.5684">Your client and server</text><rect fill="#999999" fill-opacity="0.33333" height="655.377" style="stroke:#0A9EFD;stroke-width:0.5;" width="188" x="540" y="6"/><text fill="#0A9EFD" font-family="sans-serif" font-size="13" font-weight="bold" lengthAdjust="spacing" textLength="41" x="613.5" y="18.5684">Agora</text><rect fill="#0A9EFD" fill-opacity="0.06667" height="74.8462" style="stroke:#0A9EFD;stroke-width:2.0;" width="622" x="112" y="132.0474"/><rect fill="#0A9EFD" fill-opacity="0.06667" height="132.7437" style="stroke:#0A9EFD;stroke-width:2.0;" width="622" x="112" y="220.8936"/><rect fill="#0A9EFD" fill-opacity="0.06667" height="74.8462" style="stroke:#0A9EFD;stroke-width:2.0;" width="622" x="112" y="367.6372"/><rect fill="#0A9EFD" fill-opacity="0.06667" height="74.8462" style="stroke:#0A9EFD;stroke-width:2.0;" width="622" x="112" y="485.4321"/><line style="stroke:#0A9EFD;stroke-width:0.5;stroke-dasharray:5.0,5.0;" x1="23" x2="23" y1="86.0986" y2="577.2783"/><line style="stroke:#0A9EFD;stroke-width:0.5;stroke-dasharray:5.0,5.0;" x1="164" x2="164" y1="86.0986" y2="577.2783"/><line style="stroke:#0A9EFD;stroke-width:0.5;stroke-dasharray:5.0,5.0;" x1="429" x2="429" y1="86.0986" y2="577.2783"/><line style="stroke:#0A9EFD;stroke-width:0.5;stroke-dasharray:5.0,5.0;" x1="580" x2="580" y1="86.0986" y2="577.2783"/><line style="stroke:#0A9EFD;stroke-width:0.5;stroke-dasharray:5.0,5.0;" x1="675" x2="675" y1="86.0986" y2="577.2783"/><text fill="#0A9EFD" font-family="Arial" font-size="14" lengthAdjust="spacing" textLength="30" x="5" y="83.1318">User</text><ellipse cx="23" cy="16" fill="none" rx="8" ry="8" style="stroke:#0A9EFD;stroke-width:3.0;"/><path d="M23,24 L23,51 M10,32 L36,32 M23,51 L10,66 M23,51 L36,66 " fill="none" style="stroke:#0A9EFD;stroke-width:3.0;"/><text fill="#0A9EFD" font-family="Arial" font-size="14" lengthAdjust="spacing" textLength="30" x="5" y="589.4102">User</text><ellipse cx="23" cy="603.377" fill="none" rx="8" ry="8" style="stroke:#0A9EFD;stroke-width:3.0;"/><path d="M23,611.377 L23,638.377 M10,619.377 L36,619.377 M23,638.377 L10,653.377 M23,638.377 L36,653.377 " fill="none" style="stroke:#0A9EFD;stroke-width:3.0;"/><rect fill="none" height="30.0986" rx="2.5" ry="2.5" style="stroke:#0A9EFD;stroke-width:2.0;" width="84" x="122" y="55"/><text fill="#0A9EFD" font-family="Arial" font-size="14" lengthAdjust="spacing" textLength="70" x="129" y="75.1318">Agora SDK</text><rect fill="none" height="30.0986" rx="2.5" ry="2.5" style="stroke:#0A9EFD;stroke-width:2.0;" width="84" x="122" y="576.2783"/><text fill="#0A9EFD" font-family="Arial" font-size="14" lengthAdjust="spacing" textLength="70" x="129" y="596.4102">Agora SDK</text><rect fill="none" height="30.0986" rx="2.5" ry="2.5" style="stroke:#0A9EFD;stroke-width:2.0;" width="90" x="384" y="55"/><text fill="#0A9EFD" font-family="Arial" font-size="14" lengthAdjust="spacing" textLength="76" x="391" y="75.1318">Your Server</text><rect fill="none" height="30.0986" rx="2.5" ry="2.5" style="stroke:#0A9EFD;stroke-width:2.0;" width="90" x="384" y="576.2783"/><text fill="#0A9EFD" font-family="Arial" font-size="14" lengthAdjust="spacing" textLength="76" x="391" y="596.4102">Your Server</text><rect fill="none" height="30.0986" rx="2.5" ry="2.5" style="stroke:#0A9EFD;stroke-width:2.0;" width="72" x="544" y="55"/><text fill="#0A9EFD" font-family="Arial" font-size="14" lengthAdjust="spacing" textLength="58" x="551" y="75.1318">SDRTN&#174;</text><rect fill="none" height="30.0986" rx="2.5" ry="2.5" style="stroke:#0A9EFD;stroke-width:2.0;" width="72" x="544" y="576.2783"/><text fill="#0A9EFD" font-family="Arial" font-size="14" lengthAdjust="spacing" textLength="58" x="551" y="596.4102">SDRTN&#174;</text><rect fill="none" height="46.1973" rx="2.5" ry="2.5" style="stroke:#0A9EFD;stroke-width:2.0;" width="98" x="626" y="38.9014"/><text fill="#0A9EFD" font-family="Arial" font-size="14" lengthAdjust="spacing" textLength="81" x="634.5" y="59.0332">Local Spatial</text><text fill="#0A9EFD" font-family="Arial" font-size="14" lengthAdjust="spacing" textLength="84" x="633" y="75.1318">Audio Engine</text><rect fill="none" height="46.1973" rx="2.5" ry="2.5" style="stroke:#0A9EFD;stroke-width:2.0;" width="98" x="626" y="576.2783"/><text fill="#0A9EFD" font-family="Arial" font-size="14" lengthAdjust="spacing" textLength="81" x="634.5" y="596.4102">Local Spatial</text><text fill="#0A9EFD" font-family="Arial" font-size="14" lengthAdjust="spacing" textLength="84" x="633" y="612.5088">Audio Engine</text><polygon fill="#0A9EFD" points="152,113.0474,162,117.0474,152,121.0474,156,117.0474" style="stroke:#0A9EFD;stroke-width:1.0;"/><line style="stroke:#0A9EFD;stroke-width:2.0;" x1="23" x2="158" y1="117.0474" y2="117.0474"/><text fill="#0A9EFD" font-family="Arial" font-size="13" lengthAdjust="spacing" textLength="117" x="35" y="112.2925">Enable spatial audio</text><path d="M112,132.0474 L365,132.0474 L365,138.9961 L355,148.9961 L112,148.9961 L112,132.0474 " fill="#EEEEEE" style="stroke:#0A9EFD;stroke-width:1.5;"/><rect fill="none" height="74.8462" style="stroke:#0A9EFD;stroke-width:2.0;" width="622" x="112" y="132.0474"/><text fill="#000000" font-family="Arial" font-size="13" lengthAdjust="spacing" textLength="208" x="127" y="145.2412">Initialize Local Spatial Audio Engine</text><polygon fill="#0A9EFD" points="663,165.9448,673,169.9448,663,173.9448,667,169.9448" style="stroke:#0A9EFD;stroke-width:1.0;"/><line style="stroke:#0A9EFD;stroke-width:2.0;" x1="164" x2="669" y1="169.9448" y2="169.9448"/><text fill="#0A9EFD" font-family="Arial" font-size="13" lengthAdjust="spacing" textLength="188" x="325.5" y="165.1899">Create local spatial audio engine</text><polygon fill="#0A9EFD" points="663,194.8936,673,198.8936,663,202.8936,667,198.8936" style="stroke:#0A9EFD;stroke-width:1.0;"/><line style="stroke:#0A9EFD;stroke-width:2.0;" x1="164" x2="669" y1="198.8936" y2="198.8936"/><text fill="#0A9EFD" font-family="Arial" font-size="13" lengthAdjust="spacing" textLength="112" x="363.5" y="194.1387">Initialize the engine</text><path d="M112,220.8936 L331,220.8936 L331,227.8423 L321,237.8423 L112,237.8423 L112,220.8936 " fill="#EEEEEE" style="stroke:#0A9EFD;stroke-width:1.5;"/><rect fill="none" height="132.7437" style="stroke:#0A9EFD;stroke-width:2.0;" width="622" x="112" y="220.8936"/><text fill="#000000" font-family="Arial" font-size="13" lengthAdjust="spacing" textLength="174" x="127" y="234.0874">Spatial audio effects for users</text><polygon fill="#0A9EFD" points="417,254.791,427,258.791,417,262.791,421,258.791" style="stroke:#0A9EFD;stroke-width:1.0;"/><line style="stroke:#0A9EFD;stroke-width:2.0;" x1="164" x2="423" y1="258.791" y2="258.791"/><text fill="#0A9EFD" font-family="Arial" font-size="13" lengthAdjust="spacing" textLength="152" x="220.5" y="254.0361">Send local spatial position</text><polygon fill="#0A9EFD" points="175,283.7397,165,287.7397,175,291.7397,171,287.7397" style="stroke:#0A9EFD;stroke-width:1.0;"/><line style="stroke:#0A9EFD;stroke-width:2.0;" x1="169" x2="428" y1="287.7397" y2="287.7397"/><text fill="#0A9EFD" font-family="Arial" font-size="13" lengthAdjust="spacing" textLength="241" x="176" y="282.9849">Receive spatial position of remote user(s)</text><polygon fill="#0A9EFD" points="663,312.6885,673,316.6885,663,320.6885,667,316.6885" style="stroke:#0A9EFD;stroke-width:1.0;"/><line style="stroke:#0A9EFD;stroke-width:2.0;" x1="164" x2="669" y1="316.6885" y2="316.6885"/><text fill="#0A9EFD" font-family="Arial" font-size="13" lengthAdjust="spacing" textLength="139" x="350" y="311.9336">Call update self position</text><polygon fill="#0A9EFD" points="663,341.6372,673,345.6372,663,349.6372,667,345.6372" style="stroke:#0A9EFD;stroke-width:1.0;"/><line style="stroke:#0A9EFD;stroke-width:2.0;" x1="164" x2="669" y1="345.6372" y2="345.6372"/><text fill="#0A9EFD" font-family="Arial" font-size="13" lengthAdjust="spacing" textLength="158" x="340.5" y="340.8823">Call update remote position</text><path d="M112,367.6372 L373,367.6372 L373,374.5859 L363,384.5859 L112,384.5859 L112,367.6372 " fill="#EEEEEE" style="stroke:#0A9EFD;stroke-width:1.5;"/><rect fill="none" height="74.8462" style="stroke:#0A9EFD;stroke-width:2.0;" width="622" x="112" y="367.6372"/><text fill="#000000" font-family="Arial" font-size="13" lengthAdjust="spacing" textLength="216" x="127" y="380.8311">Spatial audio effects for media player</text><polygon fill="#0A9EFD" points="663,401.5347,673,405.5347,663,409.5347,667,405.5347" style="stroke:#0A9EFD;stroke-width:1.0;"/><line style="stroke:#0A9EFD;stroke-width:2.0;" x1="164" x2="669" y1="405.5347" y2="405.5347"/><text fill="#0A9EFD" font-family="Arial" font-size="13" lengthAdjust="spacing" textLength="177" x="331" y="400.7798">Set spatial position of the user</text><polygon fill="#0A9EFD" points="663,430.4834,673,434.4834,663,438.4834,667,434.4834" style="stroke:#0A9EFD;stroke-width:1.0;"/><line style="stroke:#0A9EFD;stroke-width:2.0;" x1="164" x2="669" y1="434.4834" y2="434.4834"/><text fill="#0A9EFD" font-family="Arial" font-size="13" lengthAdjust="spacing" textLength="226" x="306.5" y="429.7285">Set spatial position of the media player</text><polygon fill="#0A9EFD" points="175,466.4321,165,470.4321,175,474.4321,171,470.4321" style="stroke:#0A9EFD;stroke-width:1.0;"/><polygon fill="#0A9EFD" points="568,466.4321,578,470.4321,568,474.4321,572,470.4321" style="stroke:#0A9EFD;stroke-width:1.0;"/><line style="stroke:#0A9EFD;stroke-width:2.0;" x1="169" x2="574" y1="470.4321" y2="470.4321"/><text fill="#0A9EFD" font-family="Arial" font-size="13" lengthAdjust="spacing" textLength="178" x="283" y="465.6772">Send and receive spatial audio</text><path d="M112,485.4321 L208,485.4321 L208,492.3809 L198,502.3809 L112,502.3809 L112,485.4321 " fill="#EEEEEE" style="stroke:#0A9EFD;stroke-width:1.5;"/><rect fill="none" height="74.8462" style="stroke:#0A9EFD;stroke-width:2.0;" width="622" x="112" y="485.4321"/><text fill="#000000" font-family="Arial" font-size="13" lengthAdjust="spacing" textLength="51" x="127" y="498.626">Clean up</text><polygon fill="#0A9EFD" points="663,519.3296,673,523.3296,663,527.3296,667,523.3296" style="stroke:#0A9EFD;stroke-width:1.0;"/><line style="stroke:#0A9EFD;stroke-width:2.0;" x1="164" x2="669" y1="523.3296" y2="523.3296"/><text fill="#0A9EFD" font-family="Arial" font-size="13" lengthAdjust="spacing" textLength="130" x="354.5" y="518.5747">Clear remote positions</text><polygon fill="#0A9EFD" points="663,548.2783,673,552.2783,663,556.2783,667,552.2783" style="stroke:#0A9EFD;stroke-width:1.0;"/><line style="stroke:#0A9EFD;stroke-width:2.0;" x1="164" x2="669" y1="552.2783" y2="552.2783"/><text fill="#0A9EFD" font-family="Arial" font-size="13" lengthAdjust="spacing" textLength="151" x="344" y="547.5234">Destroy the spatial engine</text><!--SRC=[ZPB1JW8n48RlVOgHanum9jw8CK7mG2I6K34nCJ73xYmsbdRJTWduK3w4J-QqW50WqTkc-y_t__-qPyeKkYa9S6OTllaFPIvLCzSYVjNeS0vtTZd2ibHc1jTNGc0Hh8FMn9Dh0NgOoB4GKxk4rejj71HQaGc0fWHMB5Wa61DKeMhayrOt-e3iFwJXxcYK_quCkHwC0ldCT68OEsni4k60AllZfyVlhmrpaFySsW8ro1g3GlrgkasfBDoRcJAK1eQokxFWEj2-ZS4whC6f9l3hIS0uACJCsQQ6WL7nK7qIP7pOnml6H1exTA3d20E1JkgC2NIitkE7TzegEEOsWCm9LKL5y53ntJIyUB-5yG8xl52kbnlNrhE1DKbtqrxhnbIGMj2H26m5ZkQMuqVukR_8cw7MqDHbhET9Lpdyb6e3-zMbNdyMcrEf46gDAt8PMb8ucJbkBWR-jpXpIA7MwuaFOh3POtpQxc1HsTFeQKB3JVFsVEWEU_jCqYSVd5sb85lmxjv_0000]--></g></svg>