<?xml version="1.0" encoding="us-ascii" standalone="no"?><svg xmlns="http://www.w3.org/2000/svg" xmlns:xlink="http://www.w3.org/1999/xlink" contentStyleType="text/css" height="927px" preserveAspectRatio="none" style="width:682px;height:927px;" version="1.1" viewBox="0 0 682 927" width="682px" zoomAndPan="magnify"><defs/><g><rect fill="none" height="925.9155" style="stroke:#0A9EFD;stroke-width:1.0;" width="680.5" x="0" y="0"/><rect fill="#999999" fill-opacity="0.33333" height="915.9155" style="stroke:#0A9EFD;stroke-width:0.5;" width="90" x="101.5" y="6"/><text fill="#0A9EFD" font-family="sans-serif" font-size="13" font-weight="bold" lengthAdjust="spacing" textLength="57" x="118" y="19.4951">Your app</text><rect fill="#999999" fill-opacity="0.33333" height="915.9155" style="stroke:#0A9EFD;stroke-width:0.5;" width="181" x="489.5" y="6"/><text fill="#0A9EFD" font-family="sans-serif" font-size="13" font-weight="bold" lengthAdjust="spacing" textLength="38" x="561" y="19.4951">Agora</text><rect fill="#0A9EFD" fill-opacity="0.06667" height="74.8462" style="stroke:#0A9EFD;stroke-width:2.0;" width="581" x="95.5" y="132.0474"/><rect fill="#0A9EFD" fill-opacity="0.06667" height="190.6411" style="stroke:#0A9EFD;stroke-width:2.0;" width="581" x="95.5" y="278.791"/><rect fill="#0A9EFD" fill-opacity="0.06667" height="190.6411" style="stroke:#0A9EFD;stroke-width:2.0;" width="666.5" x="10" y="483.4321"/><rect fill="#0A9EFD" fill-opacity="0.06667" height="132.7437" style="stroke:#0A9EFD;stroke-width:2.0;" width="581" x="95.5" y="688.0732"/><line style="stroke:#0A9EFD;stroke-width:0.5;stroke-dasharray:5.0,5.0;" x1="37" x2="37" y1="86.0986" y2="837.8169"/><line style="stroke:#0A9EFD;stroke-width:0.5;stroke-dasharray:5.0,5.0;" x1="146.5" x2="146.5" y1="86.0986" y2="837.8169"/><line style="stroke:#0A9EFD;stroke-width:0.5;stroke-dasharray:5.0,5.0;" x1="526.5" x2="526.5" y1="86.0986" y2="837.8169"/><line style="stroke:#0A9EFD;stroke-width:0.5;stroke-dasharray:5.0,5.0;" x1="617.5" x2="617.5" y1="86.0986" y2="837.8169"/><text fill="#0A9EFD" font-family="Arial" font-size="14" lengthAdjust="spacing" textLength="29" x="20" y="83.1318">User</text><ellipse cx="37.5" cy="16" fill="none" rx="8" ry="8" style="stroke:#0A9EFD;stroke-width:3.0;"/><path d="M37.5,24 L37.5,51 M24.5,32 L50.5,32 M37.5,51 L24.5,66 M37.5,51 L50.5,66 " fill="none" style="stroke:#0A9EFD;stroke-width:3.0;"/><text fill="#0A9EFD" font-family="Arial" font-size="14" lengthAdjust="spacing" textLength="29" x="20" y="849.9487">User</text><ellipse cx="37.5" cy="863.9155" fill="none" rx="8" ry="8" style="stroke:#0A9EFD;stroke-width:3.0;"/><path d="M37.5,871.9155 L37.5,898.9155 M24.5,879.9155 L50.5,879.9155 M37.5,898.9155 L24.5,913.9155 M37.5,898.9155 L50.5,913.9155 " fill="none" style="stroke:#0A9EFD;stroke-width:3.0;"/><rect fill="none" height="30.0986" rx="2.5" ry="2.5" style="stroke:#0A9EFD;stroke-width:2.0;" width="82" x="105.5" y="55"/><text fill="#0A9EFD" font-family="Arial" font-size="14" lengthAdjust="spacing" textLength="68" x="112.5" y="75.1318">Video SDK</text><rect fill="none" height="30.0986" rx="2.5" ry="2.5" style="stroke:#0A9EFD;stroke-width:2.0;" width="82" x="105.5" y="836.8169"/><text fill="#0A9EFD" font-family="Arial" font-size="14" lengthAdjust="spacing" textLength="68" x="112.5" y="856.9487">Video SDK</text><rect fill="none" height="30.0986" rx="2.5" ry="2.5" style="stroke:#0A9EFD;stroke-width:2.0;" width="66" x="493.5" y="55"/><text fill="#0A9EFD" font-family="Arial" font-size="14" lengthAdjust="spacing" textLength="52" x="500.5" y="75.1318">SD-RTN</text><rect fill="none" height="30.0986" rx="2.5" ry="2.5" style="stroke:#0A9EFD;stroke-width:2.0;" width="66" x="493.5" y="836.8169"/><text fill="#0A9EFD" font-family="Arial" font-size="14" lengthAdjust="spacing" textLength="52" x="500.5" y="856.9487">SD-RTN</text><rect fill="none" height="46.1973" rx="2.5" ry="2.5" style="stroke:#0A9EFD;stroke-width:2.0;" width="97" x="569.5" y="38.9014"/><text fill="#0A9EFD" font-family="Arial" font-size="14" lengthAdjust="spacing" textLength="83" x="576.5" y="59.0332">Spatial Audio</text><text fill="#0A9EFD" font-family="Arial" font-size="14" lengthAdjust="spacing" textLength="61" x="589.5" y="75.1318">Extension</text><rect fill="none" height="46.1973" rx="2.5" ry="2.5" style="stroke:#0A9EFD;stroke-width:2.0;" width="97" x="569.5" y="836.8169"/><text fill="#0A9EFD" font-family="Arial" font-size="14" lengthAdjust="spacing" textLength="83" x="576.5" y="856.9487">Spatial Audio</text><text fill="#0A9EFD" font-family="Arial" font-size="14" lengthAdjust="spacing" textLength="61" x="589.5" y="873.0474">Extension</text><polygon fill="#0A9EFD" points="514.5,113.0474,524.5,117.0474,514.5,121.0474,518.5,117.0474" style="stroke:#0A9EFD;stroke-width:1.0;"/><line style="stroke:#0A9EFD;stroke-width:2.0;" x1="146.5" x2="520.5" y1="117.0474" y2="117.0474"/><text fill="#0A9EFD" font-family="Arial" font-size="13" lengthAdjust="spacing" textLength="132" x="270.5" y="112.2925">AgoraRTC.createClient</text><path d="M95.5,132.0474 L333.5,132.0474 L333.5,138.9961 L323.5,148.9961 L95.5,148.9961 L95.5,132.0474 " fill="#EEEEEE" style="stroke:#0A9EFD;stroke-width:1.5;"/><rect fill="none" height="74.8462" style="stroke:#0A9EFD;stroke-width:2.0;" width="581" x="95.5" y="132.0474"/><text fill="#000000" font-family="Arial" font-size="13" lengthAdjust="spacing" textLength="193" x="110.5" y="145.2412">Setup the spatial audio extension</text><polygon fill="#0A9EFD" points="514.5,165.9448,524.5,169.9448,514.5,173.9448,518.5,169.9448" style="stroke:#0A9EFD;stroke-width:1.0;"/><line style="stroke:#0A9EFD;stroke-width:2.0;" x1="146.5" x2="520.5" y1="169.9448" y2="169.9448"/><text fill="#0A9EFD" font-family="Arial" font-size="13" lengthAdjust="spacing" textLength="164" x="254.5" y="165.1899">AgoraRTC.registerExtension</text><polygon fill="#0A9EFD" points="606,194.8936,616,198.8936,606,202.8936,610,198.8936" style="stroke:#0A9EFD;stroke-width:1.0;"/><line style="stroke:#0A9EFD;stroke-width:2.0;" x1="146.5" x2="612" y1="198.8936" y2="198.8936"/><text fill="#0A9EFD" font-family="Arial" font-size="13" lengthAdjust="spacing" textLength="241" x="261.75" y="194.1387">spatialAudioExtension.updateSelfPosition</text><polygon fill="#0A9EFD" points="134.5,230.8423,144.5,234.8423,134.5,238.8423,138.5,234.8423" style="stroke:#0A9EFD;stroke-width:1.0;"/><line style="stroke:#0A9EFD;stroke-width:2.0;" x1="37.5" x2="140.5" y1="234.8423" y2="234.8423"/><text fill="#0A9EFD" font-family="Arial" font-size="13" lengthAdjust="spacing" textLength="74" x="55" y="230.0874">Join Channel</text><polygon fill="#0A9EFD" points="514.5,259.791,524.5,263.791,514.5,267.791,518.5,263.791" style="stroke:#0A9EFD;stroke-width:1.0;"/><line style="stroke:#0A9EFD;stroke-width:2.0;" x1="146.5" x2="520.5" y1="263.791" y2="263.791"/><text fill="#0A9EFD" font-family="Arial" font-size="13" lengthAdjust="spacing" textLength="116" x="278.5" y="259.0361">AgoraRTCClient.join</text><path d="M95.5,278.791 L346.5,278.791 L346.5,285.7397 L336.5,295.7397 L95.5,295.7397 L95.5,278.791 " fill="#EEEEEE" style="stroke:#0A9EFD;stroke-width:1.5;"/><rect fill="none" height="190.6411" style="stroke:#0A9EFD;stroke-width:2.0;" width="581" x="95.5" y="278.791"/><text fill="#000000" font-family="Arial" font-size="13" lengthAdjust="spacing" textLength="206" x="110.5" y="291.9849">Realize remote user's spatial sound</text><polygon fill="#0A9EFD" points="157.5,312.6885,147.5,316.6885,157.5,320.6885,153.5,316.6885" style="stroke:#0A9EFD;stroke-width:1.0;"/><line style="stroke:#0A9EFD;stroke-width:2.0;" x1="151.5" x2="525.5" y1="316.6885" y2="316.6885"/><text fill="#0A9EFD" font-family="Arial" font-size="13" lengthAdjust="spacing" textLength="151" x="261" y="311.9336">client.on("user-published")</text><polygon fill="#0A9EFD" points="514.5,341.6372,524.5,345.6372,514.5,349.6372,518.5,345.6372" style="stroke:#0A9EFD;stroke-width:1.0;"/><line style="stroke:#0A9EFD;stroke-width:2.0;" x1="146.5" x2="520.5" y1="345.6372" y2="345.6372"/><text fill="#0A9EFD" font-family="Arial" font-size="13" lengthAdjust="spacing" textLength="152" x="260.5" y="340.8823">AgoraRTCClient.subscribe</text><polygon fill="#0A9EFD" points="606,370.5859,616,374.5859,606,378.5859,610,374.5859" style="stroke:#0A9EFD;stroke-width:1.0;"/><line style="stroke:#0A9EFD;stroke-width:2.0;" x1="146.5" x2="612" y1="374.5859" y2="374.5859"/><text fill="#0A9EFD" font-family="Arial" font-size="13" lengthAdjust="spacing" textLength="228" x="268.25" y="369.8311">spatialAudioExtension.createProcessor</text><polygon fill="#0A9EFD" points="514.5,399.5347,524.5,403.5347,514.5,407.5347,518.5,403.5347" style="stroke:#0A9EFD;stroke-width:1.0;"/><line style="stroke:#0A9EFD;stroke-width:2.0;" x1="146.5" x2="520.5" y1="403.5347" y2="403.5347"/><text fill="#0A9EFD" font-family="Arial" font-size="13" lengthAdjust="spacing" textLength="356" x="158.5" y="398.7798">remoteTrack.pipe(processor).pipe(track.processorDestination)</text><polygon fill="#0A9EFD" points="514.5,428.4834,524.5,432.4834,514.5,436.4834,518.5,432.4834" style="stroke:#0A9EFD;stroke-width:1.0;"/><line style="stroke:#0A9EFD;stroke-width:2.0;" x1="146.5" x2="520.5" y1="432.4834" y2="432.4834"/><text fill="#0A9EFD" font-family="Arial" font-size="13" lengthAdjust="spacing" textLength="102" x="285.5" y="427.7285">remoteTrack.Play</text><polygon fill="#0A9EFD" points="606,457.4321,616,461.4321,606,465.4321,610,461.4321" style="stroke:#0A9EFD;stroke-width:1.0;"/><line style="stroke:#0A9EFD;stroke-width:2.0;" x1="146.5" x2="612" y1="461.4321" y2="461.4321"/><text fill="#0A9EFD" font-family="Arial" font-size="13" lengthAdjust="spacing" textLength="192" x="286.25" y="456.6772">processor.updateRemotePosition</text><path d="M10,483.4321 L261,483.4321 L261,490.3809 L251,500.3809 L10,500.3809 L10,483.4321 " fill="#EEEEEE" style="stroke:#0A9EFD;stroke-width:1.5;"/><rect fill="none" height="190.6411" style="stroke:#0A9EFD;stroke-width:2.0;" width="666.5" x="10" y="483.4321"/><text fill="#000000" font-family="Arial" font-size="13" lengthAdjust="spacing" textLength="206" x="25" y="496.626">Spatial audio effect for media player</text><polygon fill="#0A9EFD" points="134.5,517.3296,144.5,521.3296,134.5,525.3296,138.5,521.3296" style="stroke:#0A9EFD;stroke-width:1.0;"/><line style="stroke:#0A9EFD;stroke-width:2.0;" x1="37.5" x2="140.5" y1="521.3296" y2="521.3296"/><text fill="#0A9EFD" font-family="Arial" font-size="13" lengthAdjust="spacing" textLength="85" x="49.5" y="516.5747">Play media file</text><polygon fill="#0A9EFD" points="514.5,546.2783,524.5,550.2783,514.5,554.2783,518.5,550.2783" style="stroke:#0A9EFD;stroke-width:1.0;"/><line style="stroke:#0A9EFD;stroke-width:2.0;" x1="146.5" x2="520.5" y1="550.2783" y2="550.2783"/><text fill="#0A9EFD" font-family="Arial" font-size="13" lengthAdjust="spacing" textLength="238" x="217.5" y="545.5234">AgoraRTC.createBufferSourceAudioTrack</text><polygon fill="#0A9EFD" points="606,575.2271,616,579.2271,606,583.2271,610,579.2271" style="stroke:#0A9EFD;stroke-width:1.0;"/><line style="stroke:#0A9EFD;stroke-width:2.0;" x1="146.5" x2="612" y1="579.2271" y2="579.2271"/><text fill="#0A9EFD" font-family="Arial" font-size="13" lengthAdjust="spacing" textLength="228" x="268.25" y="574.4722">spatialAudioExtension.createProcessor</text><polygon fill="#0A9EFD" points="514.5,604.1758,524.5,608.1758,514.5,612.1758,518.5,608.1758" style="stroke:#0A9EFD;stroke-width:1.0;"/><line style="stroke:#0A9EFD;stroke-width:2.0;" x1="146.5" x2="520.5" y1="608.1758" y2="608.1758"/><text fill="#0A9EFD" font-family="Arial" font-size="13" lengthAdjust="spacing" textLength="313" x="180" y="603.4209">track.pipe(processor).pipe(track.processorDestination)</text><polygon fill="#0A9EFD" points="514.5,633.1245,524.5,637.1245,514.5,641.1245,518.5,637.1245" style="stroke:#0A9EFD;stroke-width:1.0;"/><line style="stroke:#0A9EFD;stroke-width:2.0;" x1="146.5" x2="520.5" y1="637.1245" y2="637.1245"/><text fill="#0A9EFD" font-family="Arial" font-size="13" lengthAdjust="spacing" textLength="59" x="307" y="632.3696">track.Play</text><polygon fill="#0A9EFD" points="606,662.0732,616,666.0732,606,670.0732,610,666.0732" style="stroke:#0A9EFD;stroke-width:1.0;"/><line style="stroke:#0A9EFD;stroke-width:2.0;" x1="146.5" x2="612" y1="666.0732" y2="666.0732"/><text fill="#0A9EFD" font-family="Arial" font-size="13" lengthAdjust="spacing" textLength="204" x="280.25" y="661.3184">processor.updatePlayerPositionInfo</text><path d="M95.5,688.0732 L187.5,688.0732 L187.5,695.022 L177.5,705.022 L95.5,705.022 L95.5,688.0732 " fill="#EEEEEE" style="stroke:#0A9EFD;stroke-width:1.5;"/><rect fill="none" height="132.7437" style="stroke:#0A9EFD;stroke-width:2.0;" width="581" x="95.5" y="688.0732"/><text fill="#000000" font-family="Arial" font-size="13" lengthAdjust="spacing" textLength="47" x="110.5" y="701.2671">Cleanup</text><polygon fill="#0A9EFD" points="157.5,721.9707,147.5,725.9707,157.5,729.9707,153.5,725.9707" style="stroke:#0A9EFD;stroke-width:1.0;"/><line style="stroke:#0A9EFD;stroke-width:2.0;" x1="151.5" x2="525.5" y1="725.9707" y2="725.9707"/><text fill="#0A9EFD" font-family="Arial" font-size="13" lengthAdjust="spacing" textLength="165" x="254" y="721.2158">client.on("user-unpublished")</text><polygon fill="#0A9EFD" points="606,750.9194,616,754.9194,606,758.9194,610,754.9194" style="stroke:#0A9EFD;stroke-width:1.0;"/><line style="stroke:#0A9EFD;stroke-width:2.0;" x1="146.5" x2="612" y1="754.9194" y2="754.9194"/><text fill="#0A9EFD" font-family="Arial" font-size="13" lengthAdjust="spacing" textLength="194" x="285.25" y="750.1646">processor.removeRemotePosition</text><polygon fill="#0A9EFD" points="157.5,779.8682,147.5,783.8682,157.5,787.8682,153.5,783.8682" style="stroke:#0A9EFD;stroke-width:1.0;"/><line style="stroke:#0A9EFD;stroke-width:2.0;" x1="151.5" x2="525.5" y1="783.8682" y2="783.8682"/><text fill="#0A9EFD" font-family="Arial" font-size="13" lengthAdjust="spacing" textLength="92" x="290.5" y="779.1133">AgoraRTC.leave</text><polygon fill="#0A9EFD" points="606,808.8169,616,812.8169,606,816.8169,610,812.8169" style="stroke:#0A9EFD;stroke-width:1.0;"/><line style="stroke:#0A9EFD;stroke-width:2.0;" x1="146.5" x2="612" y1="812.8169" y2="812.8169"/><text fill="#0A9EFD" font-family="Arial" font-size="13" lengthAdjust="spacing" textLength="181" x="291.75" y="808.062">processor.clearRemotePosition</text><!--SRC=[fPDDQzj048Rl-okckZG-M1HwCwNWs3uaXI8afxHGAElLo9valRliHt3xwxkh3xSIZWdaOcJDpFFEl3DwHqh8K2FmlRRybtiYbLCuIfQU3BVy2BVwLF2w9hM7ZnyOuy9h2zc3Gvi1T_1GbOpjz0co7pfOuCPaB1Pw4cIuyf1zenerLEilRVgoA1Yg6c95NxPCofEQQZqljr_xWhj9p71FNC8orAH_AjYSF2f7MhNfc-_RV_me1lFF2R60LgRShd9XaNjSIKBbsTxgOA127t_z0S7rS9xWW0FwCidYdfn7kvccnIOM0wfjyvoH1rD7zGfbKsX7FXN5TXcBDdO2nGBkDIbO7RXIA2ygTytdZp6FzIEKo2NzGR1ur1uXnFMyT-Tnd0vH9A4-pJkKw11QtMGfTsx2Jf8xO9tDhacwi7F2qWvVCMfdT66rGEUq7M6xDhUMYwVSaC4RCwJDkl- -2mrlr-WyAPxychq8AYJ_FUhhNDxRNhR9O-Fx2nZllMbGU6ZYeH-n9Wucaj6EbfJ4-cX34g_Tscs8F5l5pqDWwr7RxXiTz6_tph_EjQ8TVd3jJZNwV-TM4haAvkfn1NNXl2PQQP7FqmsDg6TNe-8ple0HCMWlxFal]--></g></svg>