<?xml version="1.0" encoding="us-ascii" standalone="no"?><svg xmlns="http://www.w3.org/2000/svg" xmlns:xlink="http://www.w3.org/1999/xlink" contentStyleType="text/css" height="910px" preserveAspectRatio="none" style="width:563px;height:910px;" version="1.1" viewBox="0 0 563 910" width="563px" zoomAndPan="magnify"><defs/><g><rect fill="none" height="908.6522" style="stroke:#0A9EFD;stroke-width:1.0;" width="561.6667" x="0" y="0"/><rect fill="#999999" fill-opacity="0.33333" height="898.6522" style="stroke:#0A9EFD;stroke-width:0.5;" width="50.6667" x="26" y="6"/><text fill="#0A9EFD" font-family="sans-serif" font-size="13" font-weight="bold" lengthAdjust="spacing" textLength="25" x="38.8333" y="19.4951">App</text><rect fill="#999999" fill-opacity="0.33333" height="898.6522" style="stroke:#0A9EFD;stroke-width:0.5;" width="50.6667" x="414" y="6"/><text fill="#0A9EFD" font-family="sans-serif" font-size="13" font-weight="bold" lengthAdjust="spacing" textLength="38" x="420.3333" y="19.4951">Agora</text><text fill="#0A9EFD" font-family="sans-serif" font-size="13" font-weight="bold" lengthAdjust="spacing" textLength="27" x="425.8333" y="35.8467">SDK</text><rect fill="#999999" fill-opacity="0.33333" height="898.6522" style="stroke:#0A9EFD;stroke-width:0.5;" width="91" x="466.6667" y="6"/><text fill="#0A9EFD" font-family="sans-serif" font-size="13" font-weight="bold" lengthAdjust="spacing" textLength="85" x="469.6667" y="19.4951">Spatial audio</text><text fill="#0A9EFD" font-family="sans-serif" font-size="13" font-weight="bold" lengthAdjust="spacing" textLength="44" x="490.1667" y="35.8467">engine</text><rect fill="#0A9EFD" fill-opacity="0.06667" height="74.8462" style="stroke:#0A9EFD;stroke-width:2.0;" width="523.5" x="20" y="101.3698"/><rect fill="#0A9EFD" fill-opacity="0.06667" height="74.8462" style="stroke:#0A9EFD;stroke-width:2.0;" width="450.6667" x="20" y="190.216"/><rect fill="#0A9EFD" fill-opacity="0.06667" height="45.8975" style="stroke:#0A9EFD;stroke-width:2.0;" width="450.6667" x="20" y="279.0622"/><rect fill="#0A9EFD" fill-opacity="0.06667" height="89.7949" style="stroke:#0A9EFD;stroke-width:2.0;" width="523.5" x="20" y="338.9596"/><rect fill="#0A9EFD" fill-opacity="0.06667" height="89.7949" style="stroke:#0A9EFD;stroke-width:2.0;" width="523.5" x="20" y="442.7546"/><rect fill="#0A9EFD" fill-opacity="0.06667" height="178.6411" style="stroke:#0A9EFD;stroke-width:2.0;" width="543.5" x="10" y="546.5495"/><rect fill="#0A9EFD" fill-opacity="0.06667" height="74.8462" style="stroke:#0A9EFD;stroke-width:2.0;" width="523.5" x="20" y="643.3444"/><rect fill="#0A9EFD" fill-opacity="0.06667" height="103.7949" style="stroke:#0A9EFD;stroke-width:2.0;" width="523.5" x="20" y="739.1906"/><line style="stroke:#0A9EFD;stroke-width:0.5;stroke-dasharray:5.0,5.0;" x1="51" x2="51" y1="84.3698" y2="859.9855"/><line style="stroke:#0A9EFD;stroke-width:0.5;stroke-dasharray:5.0,5.0;" x1="439" x2="439" y1="84.3698" y2="859.9855"/><line style="stroke:#0A9EFD;stroke-width:0.5;stroke-dasharray:5.0,5.0;" x1="511.8333" x2="511.8333" y1="84.3698" y2="859.9855"/><rect fill="none" height="40.6667" rx="2.5" ry="2.5" style="stroke:#0A9EFD;stroke-width:2.0;" width="42.6667" x="30" y="42.7031"/><path d="M39.1333,49.7031 C38.5333,49.7031 38,50.2365 38,50.8365 L38,75.2031 C38,75.8031 38.5333,76.3365 39.1333,76.3365 L60.1667,76.3365 C60.7667,76.3365 61.3,75.8031 61.3,75.2031 L61.3,50.8365 C61.3,50.2365 60.7667,49.7031 60.1667,49.7031 L39.1333,49.7031 M41.3333,53.0365 L58,53.0365 L58,69.7031 L41.3333,69.7031 L41.3333,53.0365 M49.6667,71.3698 C50.9333,71.3698 51.7667,72.7698 51.1333,73.8698 C50.5,74.9698 48.8667,74.9698 48.2,73.8698 C47.5667,72.7698 48.3667,71.3698 49.6667,71.3698 " fill="#0A9EFD" style="stroke:;stroke-width:0.0;stroke-dasharray:;"/><rect fill="none" height="40.6667" rx="2.5" ry="2.5" style="stroke:#0A9EFD;stroke-width:2.0;" width="42.6667" x="30" y="858.9855"/><path d="M39.1333,865.9855 C38.5333,865.9855 38,866.5188 38,867.1188 L38,891.4855 C38,892.0855 38.5333,892.6188 39.1333,892.6188 L60.1667,892.6188 C60.7667,892.6188 61.3,892.0855 61.3,891.4855 L61.3,867.1188 C61.3,866.5188 60.7667,865.9855 60.1667,865.9855 L39.1333,865.9855 M41.3333,869.3188 L58,869.3188 L58,885.9855 L41.3333,885.9855 L41.3333,869.3188 M49.6667,887.6522 C50.9333,887.6522 51.7667,889.0522 51.1333,890.1522 C50.5,891.2522 48.8667,891.2522 48.2,890.1522 C47.5667,889.0522 48.3667,887.6522 49.6667,887.6522 " fill="#0A9EFD" style="stroke:;stroke-width:0.0;stroke-dasharray:;"/><rect fill="none" height="40.6667" rx="2.5" ry="2.5" style="stroke:#0A9EFD;stroke-width:2.0;" width="42.6667" x="418" y="42.7031"/><path d="M426,49.7031 L426,63.0365 L439.3333,63.0365 L439.3333,49.7031 L426,49.7031 M442.6667,56.3698 L442.6667,66.3698 L432.6667,66.3698 L432.6667,69.7031 L446,69.7031 L446,56.3698 L442.6667,56.3698 M449.3333,63.0365 L449.3333,73.0365 L439.3333,73.0365 L439.3333,76.3698 L452.6667,76.3698 L452.6667,63.0365 L449.3333,63.0365 " fill="#0A9EFD" style="stroke:;stroke-width:0.0;stroke-dasharray:;"/><rect fill="none" height="40.6667" rx="2.5" ry="2.5" style="stroke:#0A9EFD;stroke-width:2.0;" width="42.6667" x="418" y="858.9855"/><path d="M426,865.9855 L426,879.3188 L439.3333,879.3188 L439.3333,865.9855 L426,865.9855 M442.6667,872.6522 L442.6667,882.6522 L432.6667,882.6522 L432.6667,885.9855 L446,885.9855 L446,872.6522 L442.6667,872.6522 M449.3333,879.3188 L449.3333,889.3188 L439.3333,889.3188 L439.3333,892.6522 L452.6667,892.6522 L452.6667,879.3188 L449.3333,879.3188 " fill="#0A9EFD" style="stroke:;stroke-width:0.0;stroke-dasharray:;"/><rect fill="none" height="40.6667" rx="2.5" ry="2.5" style="stroke:#0A9EFD;stroke-width:2.0;" width="42.6667" x="490.8333" y="42.7031"/><path d="M498.8333,49.7031 L498.8333,76.3698 L525.5,76.3698 L525.5,68.4365 A1.6667,1.6667 0 0 0 525.5,67.7031 L525.5,49.6698 L498.8333,49.6698 M502.1667,53.0365 L522.1667,53.0365 L522.1667,66.3698 L517.1667,66.3698 A1.6667,1.6667 0 0 0 516.8667,66.3698 A1.6667,1.6667 0 1 0 517.1667,69.7031 L522.1667,69.7031 L522.1667,73.0365 L502.1667,73.0365 L502.1667,53.0365 M510.5,56.3698 C507.7333,56.3698 505.5,58.6031 505.5,61.3698 C505.5,64.7031 510.5,69.7031 510.5,69.7031 C510.5,69.7031 515.5,64.7031 515.5,61.3698 C515.5,58.6031 513.2667,56.3698 510.5,56.3698 M510.5,59.7031 C511.4333,59.7031 512.1667,60.4365 512.1667,61.3698 C512.1667,62.3031 511.4333,63.0365 510.5,63.0365 C509.5667,63.0365 508.8333,62.3031 508.8333,61.3698 C508.8333,60.4365 509.5667,59.7031 510.5,59.7031 " fill="#0A9EFD" style="stroke:;stroke-width:0.0;stroke-dasharray:;"/><rect fill="none" height="40.6667" rx="2.5" ry="2.5" style="stroke:#0A9EFD;stroke-width:2.0;" width="42.6667" x="490.8333" y="858.9855"/><path d="M498.8333,865.9855 L498.8333,892.6522 L525.5,892.6522 L525.5,884.7188 A1.6667,1.6667 0 0 0 525.5,883.9855 L525.5,865.9522 L498.8333,865.9522 M502.1667,869.3188 L522.1667,869.3188 L522.1667,882.6522 L517.1667,882.6522 A1.6667,1.6667 0 0 0 516.8667,882.6522 A1.6667,1.6667 0 1 0 517.1667,885.9855 L522.1667,885.9855 L522.1667,889.3188 L502.1667,889.3188 L502.1667,869.3188 M510.5,872.6522 C507.7333,872.6522 505.5,874.8855 505.5,877.6522 C505.5,880.9855 510.5,885.9855 510.5,885.9855 C510.5,885.9855 515.5,880.9855 515.5,877.6522 C515.5,874.8855 513.2667,872.6522 510.5,872.6522 M510.5,875.9855 C511.4333,875.9855 512.1667,876.7188 512.1667,877.6522 C512.1667,878.5855 511.4333,879.3188 510.5,879.3188 C509.5667,879.3188 508.8333,878.5855 508.8333,877.6522 C508.8333,876.7188 509.5667,875.9855 510.5,875.9855 " fill="#0A9EFD" style="stroke:;stroke-width:0.0;stroke-dasharray:;"/><path d="M20,101.3698 L154,101.3698 L154,108.3185 L144,118.3185 L20,118.3185 L20,101.3698 " fill="#EEEEEE" style="stroke:#0A9EFD;stroke-width:1.5;"/><rect fill="none" height="74.8462" style="stroke:#0A9EFD;stroke-width:2.0;" width="523.5" x="20" y="101.3698"/><text fill="#000000" font-family="Arial" font-size="13" lengthAdjust="spacing" textLength="89" x="35" y="114.5636">Initialize engine</text><polygon fill="#0A9EFD" points="427.3333,135.2673,437.3333,139.2673,427.3333,143.2673,431.3333,139.2673" style="stroke:#0A9EFD;stroke-width:1.0;"/><line style="stroke:#0A9EFD;stroke-width:2.0;" x1="51.3333" x2="433.3333" y1="139.2673" y2="139.2673"/><text fill="#0A9EFD" font-family="Arial" font-size="13" lengthAdjust="spacing" textLength="194" x="148.3333" y="134.5124">Create and initialize Agora engine</text><polygon fill="#0A9EFD" points="500.1667,164.216,510.1667,168.216,500.1667,172.216,504.1667,168.216" style="stroke:#0A9EFD;stroke-width:1.0;"/><line style="stroke:#0A9EFD;stroke-width:2.0;" x1="51.3333" x2="506.1667" y1="168.216" y2="168.216"/><text fill="#0A9EFD" font-family="Arial" font-size="13" lengthAdjust="spacing" textLength="255" x="154.25" y="163.4611">Create and initialize the spatial audio engine</text><path d="M20,190.216 L254,190.216 L254,197.1647 L244,207.1647 L20,207.1647 L20,190.216 " fill="#EEEEEE" style="stroke:#0A9EFD;stroke-width:1.5;"/><rect fill="none" height="74.8462" style="stroke:#0A9EFD;stroke-width:2.0;" width="450.6667" x="20" y="190.216"/><text fill="#000000" font-family="Arial" font-size="13" lengthAdjust="spacing" textLength="189" x="35" y="203.4098">Set an audio profile and scenario</text><polygon fill="#0A9EFD" points="427.3333,224.1134,437.3333,228.1134,427.3333,232.1134,431.3333,228.1134" style="stroke:#0A9EFD;stroke-width:1.0;"/><line style="stroke:#0A9EFD;stroke-width:2.0;" x1="51.3333" x2="433.3333" y1="228.1134" y2="228.1134"/><text fill="#0A9EFD" font-family="Arial" font-size="13" lengthAdjust="spacing" textLength="129" x="180.8333" y="223.3586">Set up an audio profile</text><polygon fill="#0A9EFD" points="427.3333,253.0622,437.3333,257.0622,427.3333,261.0622,431.3333,257.0622" style="stroke:#0A9EFD;stroke-width:1.0;"/><line style="stroke:#0A9EFD;stroke-width:2.0;" x1="51.3333" x2="433.3333" y1="257.0622" y2="257.0622"/><text fill="#0A9EFD" font-family="Arial" font-size="13" lengthAdjust="spacing" textLength="126" x="182.3333" y="252.3073">Set up audio scenario</text><path d="M20,279.0622 L137,279.0622 L137,286.0109 L127,296.0109 L20,296.0109 L20,279.0622 " fill="#EEEEEE" style="stroke:#0A9EFD;stroke-width:1.5;"/><rect fill="none" height="45.8975" style="stroke:#0A9EFD;stroke-width:2.0;" width="450.6667" x="20" y="279.0622"/><text fill="#000000" font-family="Arial" font-size="13" lengthAdjust="spacing" textLength="72" x="35" y="292.256">Join channel</text><polygon fill="#0A9EFD" points="427.3333,312.9596,437.3333,316.9596,427.3333,320.9596,431.3333,316.9596" style="stroke:#0A9EFD;stroke-width:1.0;"/><line style="stroke:#0A9EFD;stroke-width:2.0;" x1="51.3333" x2="433.3333" y1="316.9596" y2="316.9596"/><text fill="#0A9EFD" font-family="Arial" font-size="13" lengthAdjust="spacing" textLength="364" x="63.3333" y="312.2048">Join a channel and set channel usage scenarios and user roles</text><path d="M20,338.9596 L231,338.9596 L231,345.9084 L221,355.9084 L20,355.9084 L20,338.9596 " fill="#EEEEEE" style="stroke:#0A9EFD;stroke-width:1.5;"/><rect fill="none" height="89.7949" style="stroke:#0A9EFD;stroke-width:2.0;" width="523.5" x="20" y="338.9596"/><text fill="#000000" font-family="Arial" font-size="13" lengthAdjust="spacing" textLength="166" x="35" y="352.1535">Set an audio reception range</text><polygon fill="#0A9EFD" points="500.1667,387.8058,510.1667,391.8058,500.1667,395.8058,504.1667,391.8058" style="stroke:#0A9EFD;stroke-width:1.0;"/><line style="stroke:#0A9EFD;stroke-width:2.0;" x1="51.3333" x2="506.1667" y1="391.8058" y2="391.8058"/><text fill="#0A9EFD" font-family="Arial" font-size="13" lengthAdjust="spacing" textLength="265" x="149.25" y="372.1022">Set the maximum number of audio streams to</text><text fill="#0A9EFD" font-family="Arial" font-size="13" lengthAdjust="spacing" textLength="224" x="171.75" y="387.0509">receive within the audio receiving range</text><polygon fill="#0A9EFD" points="500.1667,416.7546,510.1667,420.7546,500.1667,424.7546,504.1667,420.7546" style="stroke:#0A9EFD;stroke-width:1.0;"/><line style="stroke:#0A9EFD;stroke-width:2.0;" x1="51.3333" x2="506.1667" y1="420.7546" y2="420.7546"/><text fill="#0A9EFD" font-family="Arial" font-size="13" lengthAdjust="spacing" textLength="246" x="158.75" y="415.9997">Set the maximum range for receiving audio</text><path d="M20,442.7546 L197,442.7546 L197,449.7033 L187,459.7033 L20,459.7033 L20,442.7546 " fill="#EEEEEE" style="stroke:#0A9EFD;stroke-width:1.5;"/><rect fill="none" height="89.7949" style="stroke:#0A9EFD;stroke-width:2.0;" width="523.5" x="20" y="442.7546"/><text fill="#000000" font-family="Arial" font-size="13" lengthAdjust="spacing" textLength="132" x="35" y="455.9484">Update spatial position</text><polygon fill="#0A9EFD" points="500.1667,476.652,510.1667,480.652,500.1667,484.652,504.1667,480.652" style="stroke:#0A9EFD;stroke-width:1.0;"/><line style="stroke:#0A9EFD;stroke-width:2.0;" x1="51.3333" x2="506.1667" y1="480.652" y2="480.652"/><text fill="#0A9EFD" font-family="Arial" font-size="13" lengthAdjust="spacing" textLength="250" x="156.75" y="475.8971">Update the spatial position of the local user</text><polygon fill="#0A9EFD" points="500.1667,520.5495,510.1667,524.5495,500.1667,528.5495,504.1667,524.5495" style="stroke:#0A9EFD;stroke-width:1.0;"/><line style="stroke:#0A9EFD;stroke-width:2.0;" x1="51.3333" x2="506.1667" y1="524.5495" y2="524.5495"/><text fill="#0A9EFD" font-family="Arial" font-size="13" lengthAdjust="spacing" textLength="168" x="197.75" y="504.8459">Update the spatial position of</text><text fill="#0A9EFD" font-family="Arial" font-size="13" lengthAdjust="spacing" textLength="184" x="191.75" y="519.7946">the remote user or media player</text><path d="M10,546.5495 L212,546.5495 L212,553.4982 L202,563.4982 L10,563.4982 L10,546.5495 " fill="#EEEEEE" style="stroke:#0A9EFD;stroke-width:1.5;"/><rect fill="none" height="178.6411" style="stroke:#0A9EFD;stroke-width:2.0;" width="543.5" x="10" y="546.5495"/><text fill="#000000" font-family="Arial" font-size="13" lengthAdjust="spacing" textLength="157" x="25" y="559.7433">Set up spatial audio effects</text><polygon fill="#0A9EFD" points="427.3333,595.3957,437.3333,599.3957,427.3333,603.3957,431.3333,599.3957" style="stroke:#0A9EFD;stroke-width:1.0;"/><line style="stroke:#0A9EFD;stroke-width:2.0;" x1="51.3333" x2="433.3333" y1="599.3957" y2="599.3957"/><text fill="#0A9EFD" font-family="Arial" font-size="13" lengthAdjust="spacing" textLength="202" x="144.3333" y="579.6921">Set the spatial audio parameters of</text><text fill="#0A9EFD" font-family="Arial" font-size="13" lengthAdjust="spacing" textLength="225" x="134.8333" y="594.6408">the remote user or media player locally</text><polygon fill="#0A9EFD" points="427.3333,624.3444,437.3333,628.3444,427.3333,632.3444,431.3333,628.3444" style="stroke:#0A9EFD;stroke-width:1.0;"/><line style="stroke:#0A9EFD;stroke-width:2.0;" x1="51.3333" x2="433.3333" y1="628.3444" y2="628.3444"/><text fill="#0A9EFD" font-family="Arial" font-size="13" lengthAdjust="spacing" textLength="236" x="127.3333" y="623.5895">Set up a sound insulation area (Optional)</text><path d="M20,643.3444 L342,643.3444 L342,650.2931 L332,660.2931 L20,660.2931 L20,643.3444 " fill="#EEEEEE" style="stroke:#0A9EFD;stroke-width:1.5;"/><rect fill="none" height="74.8462" style="stroke:#0A9EFD;stroke-width:2.0;" width="523.5" x="20" y="643.3444"/><text fill="#000000" font-family="Arial" font-size="13" lengthAdjust="spacing" textLength="277" x="35" y="656.5382">Set the headphone equalization effect (Optional)</text><polygon fill="#0A9EFD" points="500.1667,677.2419,510.1667,681.2419,500.1667,685.2419,504.1667,681.2419" style="stroke:#0A9EFD;stroke-width:1.0;"/><line style="stroke:#0A9EFD;stroke-width:2.0;" x1="51.3333" x2="506.1667" y1="681.2419" y2="681.2419"/><text fill="#0A9EFD" font-family="Arial" font-size="13" lengthAdjust="spacing" textLength="243" x="160.25" y="676.487">Use the preset headphone equalizer effect</text><polygon fill="#0A9EFD" points="500.1667,706.1906,510.1667,710.1906,500.1667,714.1906,504.1667,710.1906" style="stroke:#0A9EFD;stroke-width:1.0;"/><line style="stroke:#0A9EFD;stroke-width:2.0;" x1="51.3333" x2="506.1667" y1="710.1906" y2="710.1906"/><text fill="#0A9EFD" font-family="Arial" font-size="13" lengthAdjust="spacing" textLength="283" x="140.25" y="705.4357">Adjust the headphone equalization effect yourself</text><path d="M20,739.1906 L184,739.1906 L184,746.1393 L174,756.1393 L20,756.1393 L20,739.1906 " fill="#EEEEEE" style="stroke:#0A9EFD;stroke-width:1.5;"/><rect fill="none" height="103.7949" style="stroke:#0A9EFD;stroke-width:2.0;" width="523.5" x="20" y="739.1906"/><text fill="#000000" font-family="Arial" font-size="13" lengthAdjust="spacing" textLength="119" x="35" y="752.3844">Turn off spatial audio</text><polygon fill="#0A9EFD" points="500.1667,773.0881,510.1667,777.0881,500.1667,781.0881,504.1667,777.0881" style="stroke:#0A9EFD;stroke-width:1.0;"/><line style="stroke:#0A9EFD;stroke-width:2.0;" x1="51.3333" x2="506.1667" y1="777.0881" y2="777.0881"/><text fill="#0A9EFD" font-family="Arial" font-size="13" lengthAdjust="spacing" textLength="114" x="224.75" y="772.3332">Pause spatial audio</text><polygon fill="#0A9EFD" points="500.1667,802.0368,510.1667,806.0368,500.1667,810.0368,504.1667,806.0368" style="stroke:#0A9EFD;stroke-width:1.0;"/><line style="stroke:#0A9EFD;stroke-width:2.0;" x1="51.3333" x2="506.1667" y1="806.0368" y2="806.0368"/><text fill="#0A9EFD" font-family="Arial" font-size="13" lengthAdjust="spacing" textLength="119" x="222.25" y="801.2819">Turn off spatial audio</text><polygon fill="#0A9EFD" points="500.1667,830.9855,510.1667,834.9855,500.1667,838.9855,504.1667,834.9855" style="stroke:#0A9EFD;stroke-width:1.0;"/><line style="stroke:#0A9EFD;stroke-width:2.0;" x1="51.3333" x2="506.1667" y1="834.9855" y2="834.9855"/><text fill="#0A9EFD" font-family="Arial" font-size="13" lengthAdjust="spacing" textLength="186" x="188.75" y="830.2306">Destroy the spatial audio engine</text><!--SRC=[ZLHDZzCm4BtdLmmz83Y0E71QhIfLx0KuKAdBhHAQ9fDamB6DFvOjlvwnqspTTiFs52NptfldD-EyObshs11WPnp-yBzOl-SugAhQcKTOhAnTL1PTu9ejwW2BMyz_wURZX-Njwu0xHM6v0FImMgyhqWq8Qw8cmQtUt7sTLr2u9-T71G6UAMmi1aO561isMqswOqtpOWFQWz9wTN-Kwfo95ZvhJbe2Xb6d4iVlbjBq1ZuvmY0928EFiEp_52owS-ZG4_ZIxyGK7vE73GMX7ShMcPRLgEDhqkZO59uILYWNy6SWkVuaKVJxObX3tQFMf0fU_enJOJGWKjDxzDZHavxFzUZ9WJEA_Env7DLa0niD3dLtabZ2fNm6VEGX3g3Zi1CzqqxUWqGwU0WovAp33mH_EFJYC_6E3VY1TVToWmo0rhY2b4LAzzzja-Ou3SqQpyb-gNk0bBETOCbz-gvCZIhdSprnEnxBqM04bBCLgmCrZ63pbJXFMHvdozMsL0T_jWsNIoXt1GSASickwZiUH-sVsJBm9kQLzr5XFWZArE3DjpnqL6zBlwbDJzZOtcYvSBzZkYGZQtHUyihS_1YQTPHMya9278xyahHgVaP_JS-zYSwJQdEwHSBtqQMnjAVPbItMA6dDbryMk2DPShF__s_Y7m00]--></g></svg>