<?xml version="1.0" encoding="us-ascii" standalone="no"?><svg xmlns="http://www.w3.org/2000/svg" xmlns:xlink="http://www.w3.org/1999/xlink" contentStyleType="text/css" height="927px" preserveAspectRatio="none" style="width:685px;height:927px;" version="1.1" viewBox="0 0 685 927" width="685px" zoomAndPan="magnify"><defs/><g><rect fill="none" height="925.9155" style="stroke:#0A9EFD;stroke-width:1.0;" width="683.5" x="0" y="0"/><rect fill="#999999" fill-opacity="0.33333" height="915.9155" style="stroke:#0A9EFD;stroke-width:0.5;" width="90" x="103" y="6"/><text fill="#0A9EFD" font-family="sans-serif" font-size="13" font-weight="bold" lengthAdjust="spacing" textLength="62" x="117" y="18.5684">Your app</text><rect fill="#999999" fill-opacity="0.33333" height="915.9155" style="stroke:#0A9EFD;stroke-width:0.5;" width="182" x="491.5" y="6"/><text fill="#0A9EFD" font-family="sans-serif" font-size="13" font-weight="bold" lengthAdjust="spacing" textLength="41" x="562" y="18.5684">Agora</text><rect fill="#0A9EFD" fill-opacity="0.06667" height="74.8462" style="stroke:#0A9EFD;stroke-width:2.0;" width="582.5" x="97" y="132.0474"/><rect fill="#0A9EFD" fill-opacity="0.06667" height="190.6411" style="stroke:#0A9EFD;stroke-width:2.0;" width="582.5" x="97" y="278.791"/><rect fill="#0A9EFD" fill-opacity="0.06667" height="190.6411" style="stroke:#0A9EFD;stroke-width:2.0;" width="669.5" x="10" y="483.4321"/><rect fill="#0A9EFD" fill-opacity="0.06667" height="132.7437" style="stroke:#0A9EFD;stroke-width:2.0;" width="582.5" x="97" y="688.0732"/><line style="stroke:#0A9EFD;stroke-width:0.5;stroke-dasharray:5.0,5.0;" x1="38" x2="38" y1="86.0986" y2="837.8169"/><line style="stroke:#0A9EFD;stroke-width:0.5;stroke-dasharray:5.0,5.0;" x1="148" x2="148" y1="86.0986" y2="837.8169"/><line style="stroke:#0A9EFD;stroke-width:0.5;stroke-dasharray:5.0,5.0;" x1="528.5" x2="528.5" y1="86.0986" y2="837.8169"/><line style="stroke:#0A9EFD;stroke-width:0.5;stroke-dasharray:5.0,5.0;" x1="620.5" x2="620.5" y1="86.0986" y2="837.8169"/><text fill="#0A9EFD" font-family="Arial" font-size="14" lengthAdjust="spacing" textLength="30" x="20" y="83.1318">User</text><ellipse cx="38" cy="16" fill="none" rx="8" ry="8" style="stroke:#0A9EFD;stroke-width:3.0;"/><path d="M38,24 L38,51 M25,32 L51,32 M38,51 L25,66 M38,51 L51,66 " fill="none" style="stroke:#0A9EFD;stroke-width:3.0;"/><text fill="#0A9EFD" font-family="Arial" font-size="14" lengthAdjust="spacing" textLength="30" x="20" y="849.9487">User</text><ellipse cx="38" cy="863.9155" fill="none" rx="8" ry="8" style="stroke:#0A9EFD;stroke-width:3.0;"/><path d="M38,871.9155 L38,898.9155 M25,879.9155 L51,879.9155 M38,898.9155 L25,913.9155 M38,898.9155 L51,913.9155 " fill="none" style="stroke:#0A9EFD;stroke-width:3.0;"/><rect fill="none" height="30.0986" rx="2.5" ry="2.5" style="stroke:#0A9EFD;stroke-width:2.0;" width="82" x="107" y="55"/><text fill="#0A9EFD" font-family="Arial" font-size="14" lengthAdjust="spacing" textLength="68" x="114" y="75.1318">Video SDK</text><rect fill="none" height="30.0986" rx="2.5" ry="2.5" style="stroke:#0A9EFD;stroke-width:2.0;" width="82" x="107" y="836.8169"/><text fill="#0A9EFD" font-family="Arial" font-size="14" lengthAdjust="spacing" textLength="68" x="114" y="856.9487">Video SDK</text><rect fill="none" height="30.0986" rx="2.5" ry="2.5" style="stroke:#0A9EFD;stroke-width:2.0;" width="67" x="495.5" y="55"/><text fill="#0A9EFD" font-family="Arial" font-size="14" lengthAdjust="spacing" textLength="53" x="502.5" y="75.1318">SD-RTN</text><rect fill="none" height="30.0986" rx="2.5" ry="2.5" style="stroke:#0A9EFD;stroke-width:2.0;" width="67" x="495.5" y="836.8169"/><text fill="#0A9EFD" font-family="Arial" font-size="14" lengthAdjust="spacing" textLength="53" x="502.5" y="856.9487">SD-RTN</text><rect fill="none" height="46.1973" rx="2.5" ry="2.5" style="stroke:#0A9EFD;stroke-width:2.0;" width="97" x="572.5" y="38.9014"/><text fill="#0A9EFD" font-family="Arial" font-size="14" lengthAdjust="spacing" textLength="83" x="579.5" y="59.0332">Spatial Audio</text><text fill="#0A9EFD" font-family="Arial" font-size="14" lengthAdjust="spacing" textLength="62" x="592" y="75.1318">Extension</text><rect fill="none" height="46.1973" rx="2.5" ry="2.5" style="stroke:#0A9EFD;stroke-width:2.0;" width="97" x="572.5" y="836.8169"/><text fill="#0A9EFD" font-family="Arial" font-size="14" lengthAdjust="spacing" textLength="83" x="579.5" y="856.9487">Spatial Audio</text><text fill="#0A9EFD" font-family="Arial" font-size="14" lengthAdjust="spacing" textLength="62" x="592" y="873.0474">Extension</text><polygon fill="#0A9EFD" points="517,113.0474,527,117.0474,517,121.0474,521,117.0474" style="stroke:#0A9EFD;stroke-width:1.0;"/><line style="stroke:#0A9EFD;stroke-width:2.0;" x1="148" x2="523" y1="117.0474" y2="117.0474"/><text fill="#0A9EFD" font-family="Arial" font-size="13" lengthAdjust="spacing" textLength="133" x="272" y="112.2925">AgoraRTC.createClient</text><path d="M97,132.0474 L335,132.0474 L335,138.9961 L325,148.9961 L97,148.9961 L97,132.0474 " fill="#EEEEEE" style="stroke:#0A9EFD;stroke-width:1.5;"/><rect fill="none" height="74.8462" style="stroke:#0A9EFD;stroke-width:2.0;" width="582.5" x="97" y="132.0474"/><text fill="#000000" font-family="Arial" font-size="13" lengthAdjust="spacing" textLength="193" x="112" y="145.2412">Setup the spatial audio extension</text><polygon fill="#0A9EFD" points="517,165.9448,527,169.9448,517,173.9448,521,169.9448" style="stroke:#0A9EFD;stroke-width:1.0;"/><line style="stroke:#0A9EFD;stroke-width:2.0;" x1="148" x2="523" y1="169.9448" y2="169.9448"/><text fill="#0A9EFD" font-family="Arial" font-size="13" lengthAdjust="spacing" textLength="165" x="256" y="165.1899">AgoraRTC.registerExtension</text><polygon fill="#0A9EFD" points="609,194.8936,619,198.8936,609,202.8936,613,198.8936" style="stroke:#0A9EFD;stroke-width:1.0;"/><line style="stroke:#0A9EFD;stroke-width:2.0;" x1="148" x2="615" y1="198.8936" y2="198.8936"/><text fill="#0A9EFD" font-family="Arial" font-size="13" lengthAdjust="spacing" textLength="242" x="263.5" y="194.1387">spatialAudioExtension.updateSelfPosition</text><polygon fill="#0A9EFD" points="136,230.8423,146,234.8423,136,238.8423,140,234.8423" style="stroke:#0A9EFD;stroke-width:1.0;"/><line style="stroke:#0A9EFD;stroke-width:2.0;" x1="38" x2="142" y1="234.8423" y2="234.8423"/><text fill="#0A9EFD" font-family="Arial" font-size="13" lengthAdjust="spacing" textLength="75" x="55.5" y="230.0874">Join Channel</text><polygon fill="#0A9EFD" points="517,259.791,527,263.791,517,267.791,521,263.791" style="stroke:#0A9EFD;stroke-width:1.0;"/><line style="stroke:#0A9EFD;stroke-width:2.0;" x1="148" x2="523" y1="263.791" y2="263.791"/><text fill="#0A9EFD" font-family="Arial" font-size="13" lengthAdjust="spacing" textLength="117" x="280" y="259.0361">AgoraRTCClient.join</text><path d="M97,278.791 L344,278.791 L344,285.7397 L334,295.7397 L97,295.7397 L97,278.791 " fill="#EEEEEE" style="stroke:#0A9EFD;stroke-width:1.5;"/><rect fill="none" height="190.6411" style="stroke:#0A9EFD;stroke-width:2.0;" width="582.5" x="97" y="278.791"/><text fill="#000000" font-family="Arial" font-size="13" lengthAdjust="spacing" textLength="202" x="112" y="291.9849">Realize remote user's spatial audio</text><polygon fill="#0A9EFD" points="159,312.6885,149,316.6885,159,320.6885,155,316.6885" style="stroke:#0A9EFD;stroke-width:1.0;"/><line style="stroke:#0A9EFD;stroke-width:2.0;" x1="153" x2="528" y1="316.6885" y2="316.6885"/><text fill="#0A9EFD" font-family="Arial" font-size="13" lengthAdjust="spacing" textLength="151" x="263" y="311.9336">client.on("user-published")</text><polygon fill="#0A9EFD" points="517,341.6372,527,345.6372,517,349.6372,521,345.6372" style="stroke:#0A9EFD;stroke-width:1.0;"/><line style="stroke:#0A9EFD;stroke-width:2.0;" x1="148" x2="523" y1="345.6372" y2="345.6372"/><text fill="#0A9EFD" font-family="Arial" font-size="13" lengthAdjust="spacing" textLength="153" x="262" y="340.8823">AgoraRTCClient.subscribe</text><polygon fill="#0A9EFD" points="609,370.5859,619,374.5859,609,378.5859,613,374.5859" style="stroke:#0A9EFD;stroke-width:1.0;"/><line style="stroke:#0A9EFD;stroke-width:2.0;" x1="148" x2="615" y1="374.5859" y2="374.5859"/><text fill="#0A9EFD" font-family="Arial" font-size="13" lengthAdjust="spacing" textLength="228" x="270.5" y="369.8311">spatialAudioExtension.createProcessor</text><polygon fill="#0A9EFD" points="517,399.5347,527,403.5347,517,407.5347,521,403.5347" style="stroke:#0A9EFD;stroke-width:1.0;"/><line style="stroke:#0A9EFD;stroke-width:2.0;" x1="148" x2="523" y1="403.5347" y2="403.5347"/><text fill="#0A9EFD" font-family="Arial" font-size="13" lengthAdjust="spacing" textLength="357" x="160" y="398.7798">remoteTrack.pipe(processor).pipe(track.processorDestination)</text><polygon fill="#0A9EFD" points="517,428.4834,527,432.4834,517,436.4834,521,432.4834" style="stroke:#0A9EFD;stroke-width:1.0;"/><line style="stroke:#0A9EFD;stroke-width:2.0;" x1="148" x2="523" y1="432.4834" y2="432.4834"/><text fill="#0A9EFD" font-family="Arial" font-size="13" lengthAdjust="spacing" textLength="103" x="287" y="427.7285">remoteTrack.Play</text><polygon fill="#0A9EFD" points="609,457.4321,619,461.4321,609,465.4321,613,461.4321" style="stroke:#0A9EFD;stroke-width:1.0;"/><line style="stroke:#0A9EFD;stroke-width:2.0;" x1="148" x2="615" y1="461.4321" y2="461.4321"/><text fill="#0A9EFD" font-family="Arial" font-size="13" lengthAdjust="spacing" textLength="192" x="288.5" y="456.6772">processor.updateRemotePosition</text><path d="M10,483.4321 L264,483.4321 L264,490.3809 L254,500.3809 L10,500.3809 L10,483.4321 " fill="#EEEEEE" style="stroke:#0A9EFD;stroke-width:1.5;"/><rect fill="none" height="190.6411" style="stroke:#0A9EFD;stroke-width:2.0;" width="669.5" x="10" y="483.4321"/><text fill="#000000" font-family="Arial" font-size="13" lengthAdjust="spacing" textLength="209" x="25" y="496.626">Spatial audio effect for media player</text><polygon fill="#0A9EFD" points="136,517.3296,146,521.3296,136,525.3296,140,521.3296" style="stroke:#0A9EFD;stroke-width:1.0;"/><line style="stroke:#0A9EFD;stroke-width:2.0;" x1="38" x2="142" y1="521.3296" y2="521.3296"/><text fill="#0A9EFD" font-family="Arial" font-size="13" lengthAdjust="spacing" textLength="86" x="50" y="516.5747">Play media file</text><polygon fill="#0A9EFD" points="517,546.2783,527,550.2783,517,554.2783,521,550.2783" style="stroke:#0A9EFD;stroke-width:1.0;"/><line style="stroke:#0A9EFD;stroke-width:2.0;" x1="148" x2="523" y1="550.2783" y2="550.2783"/><text fill="#0A9EFD" font-family="Arial" font-size="13" lengthAdjust="spacing" textLength="242" x="217.5" y="545.5234">AgoraRTC.createBufferSourceAudioTrack</text><polygon fill="#0A9EFD" points="609,575.2271,619,579.2271,609,583.2271,613,579.2271" style="stroke:#0A9EFD;stroke-width:1.0;"/><line style="stroke:#0A9EFD;stroke-width:2.0;" x1="148" x2="615" y1="579.2271" y2="579.2271"/><text fill="#0A9EFD" font-family="Arial" font-size="13" lengthAdjust="spacing" textLength="228" x="270.5" y="574.4722">spatialAudioExtension.createProcessor</text><polygon fill="#0A9EFD" points="517,604.1758,527,608.1758,517,612.1758,521,608.1758" style="stroke:#0A9EFD;stroke-width:1.0;"/><line style="stroke:#0A9EFD;stroke-width:2.0;" x1="148" x2="523" y1="608.1758" y2="608.1758"/><text fill="#0A9EFD" font-family="Arial" font-size="13" lengthAdjust="spacing" textLength="313" x="182" y="603.4209">track.pipe(processor).pipe(track.processorDestination)</text><polygon fill="#0A9EFD" points="517,633.1245,527,637.1245,517,641.1245,521,637.1245" style="stroke:#0A9EFD;stroke-width:1.0;"/><line style="stroke:#0A9EFD;stroke-width:2.0;" x1="148" x2="523" y1="637.1245" y2="637.1245"/><text fill="#0A9EFD" font-family="Arial" font-size="13" lengthAdjust="spacing" textLength="59" x="309" y="632.3696">track.Play</text><polygon fill="#0A9EFD" points="609,662.0732,619,666.0732,609,670.0732,613,666.0732" style="stroke:#0A9EFD;stroke-width:1.0;"/><line style="stroke:#0A9EFD;stroke-width:2.0;" x1="148" x2="615" y1="666.0732" y2="666.0732"/><text fill="#0A9EFD" font-family="Arial" font-size="13" lengthAdjust="spacing" textLength="206" x="281.5" y="661.3184">processor.updatePlayerPositionInfo</text><path d="M97,688.0732 L189,688.0732 L189,695.022 L179,705.022 L97,705.022 L97,688.0732 " fill="#EEEEEE" style="stroke:#0A9EFD;stroke-width:1.5;"/><rect fill="none" height="132.7437" style="stroke:#0A9EFD;stroke-width:2.0;" width="582.5" x="97" y="688.0732"/><text fill="#000000" font-family="Arial" font-size="13" lengthAdjust="spacing" textLength="47" x="112" y="701.2671">Cleanup</text><polygon fill="#0A9EFD" points="159,721.9707,149,725.9707,159,729.9707,155,725.9707" style="stroke:#0A9EFD;stroke-width:1.0;"/><line style="stroke:#0A9EFD;stroke-width:2.0;" x1="153" x2="528" y1="725.9707" y2="725.9707"/><text fill="#0A9EFD" font-family="Arial" font-size="13" lengthAdjust="spacing" textLength="165" x="256" y="721.2158">client.on("user-unpublished")</text><polygon fill="#0A9EFD" points="609,750.9194,619,754.9194,609,758.9194,613,754.9194" style="stroke:#0A9EFD;stroke-width:1.0;"/><line style="stroke:#0A9EFD;stroke-width:2.0;" x1="148" x2="615" y1="754.9194" y2="754.9194"/><text fill="#0A9EFD" font-family="Arial" font-size="13" lengthAdjust="spacing" textLength="196" x="286.5" y="750.1646">processor.removeRemotePosition</text><polygon fill="#0A9EFD" points="159,779.8682,149,783.8682,159,787.8682,155,783.8682" style="stroke:#0A9EFD;stroke-width:1.0;"/><line style="stroke:#0A9EFD;stroke-width:2.0;" x1="153" x2="528" y1="783.8682" y2="783.8682"/><text fill="#0A9EFD" font-family="Arial" font-size="13" lengthAdjust="spacing" textLength="95" x="291" y="779.1133">AgoraRTC.leave</text><polygon fill="#0A9EFD" points="609,808.8169,619,812.8169,609,816.8169,613,812.8169" style="stroke:#0A9EFD;stroke-width:1.0;"/><line style="stroke:#0A9EFD;stroke-width:2.0;" x1="148" x2="615" y1="812.8169" y2="812.8169"/><text fill="#0A9EFD" font-family="Arial" font-size="13" lengthAdjust="spacing" textLength="181" x="294" y="808.062">processor.clearRemotePosition</text><!--SRC=[fPDDQzj048Rl-okckZG-s1HwCwNWs3uaXI8afxHGAEFLo9valRliHt3xwxlwi5i9nmHoCR9cvdbdtXczOorLh0XmPnp-ya-iPnmFIZHF5XqUuDOSSwmgrZlu-448bC4uo1uykGpGmqDP2B4rHyX-cEW0hSr4AWmisQ8Ea7tZYWoKgozj-YBF1UaAKaLVjcYKHpNbQbfillO5TwEOnS2eO14hDZyrh8-1j6UZs_Jrzyq_VXA3wUS6COTMfjWiPz8H1beg9Xt4pfbeeQIGViEUmFTmRE109_HbagCT-q1kFKvBJSnFgBRDSyOisYgfbwJgt7WEJL5gLuXaOoUGp-7Ui8Rb7hKcTL6vQtxscF94Fq91gFWFWQE32GGnhUUz7uxJeZvDEvJi44RVP4tkrCQjOh-dAfjSa_HnwwNZBRrYrCxet1b9tXitm7PjRXpAfvbbIpVsb3Rf_eSkT7gx8XzOO-FNv4LGhl3teAzpUMzxqIOFZUylOBZtkYOPe4w7Vg2A4MmYaniigH7hepKhkdPhjp7nN9a-3qcjHssxRtGmlDsxy3hNydRuasjtkZR_ExTKX3hQgySLzONp6carYtmURsX0FRkQ59_f1OnCGNTXpty1]--></g></svg>