<?xml version="1.0" encoding="UTF-8" standalone="no"?><svg xmlns="http://www.w3.org/2000/svg" xmlns:xlink="http://www.w3.org/1999/xlink" contentStyleType="text/css" height="997px" preserveAspectRatio="none" style="width:792px;height:997px;" version="1.1" viewBox="0 0 792 997" width="792px" zoomAndPan="magnify"><defs/><g><rect fill="none" height="995.4531" style="stroke:#0A9EFD;stroke-width:1.0;" width="790.5" x="0" y="0"/><rect fill="#F3F3F3" height="985.4531" style="stroke:#0A9EFD;stroke-width:0.5;" width="95" x="116" y="6"/><text fill="#000000" font-family="sans-serif" font-size="13" font-weight="bold" lengthAdjust="spacing" textLength="57" x="135" y="19.4951">Your app</text><rect fill="#F3F3F3" height="985.4531" style="stroke:#0A9EFD;stroke-width:0.5;" width="189" x="591.5" y="6"/><text fill="#000000" font-family="sans-serif" font-size="13" font-weight="bold" lengthAdjust="spacing" textLength="38" x="667" y="19.4951">Agora</text><rect fill="#FFFFFF" height="82.8281" style="stroke:#0A9EFD;stroke-width:2.0;" width="676.5" x="110" y="136.2188"/><rect fill="#FFFFFF" height="209.2656" style="stroke:#0A9EFD;stroke-width:2.0;" width="676.5" x="110" y="296.2656"/><rect fill="#FFFFFF" height="209.2656" style="stroke:#0A9EFD;stroke-width:2.0;" width="776.5" x="10" y="519.5313"/><rect fill="#FFFFFF" height="146.0469" style="stroke:#0A9EFD;stroke-width:2.0;" width="676.5" x="110" y="742.7969"/><line style="stroke:#0A9EFD;stroke-width:0.5;stroke-dasharray:5.0,5.0;" x1="39" x2="39" y1="87.6094" y2="905.8438"/><line style="stroke:#0A9EFD;stroke-width:0.5;stroke-dasharray:5.0,5.0;" x1="163" x2="163" y1="87.6094" y2="905.8438"/><line style="stroke:#0A9EFD;stroke-width:0.5;stroke-dasharray:5.0,5.0;" x1="628.5" x2="628.5" y1="87.6094" y2="905.8438"/><line style="stroke:#0A9EFD;stroke-width:0.5;stroke-dasharray:5.0,5.0;" x1="723.5" x2="723.5" y1="87.6094" y2="905.8438"/><text fill="#0A9EFD" font-family="Roboto" font-size="14" font-weight="bold" lengthAdjust="spacing" textLength="33" x="20" y="84.5332">User</text><ellipse cx="39.5" cy="16" fill="none" rx="8" ry="8" style="stroke:#0A9EFD;stroke-width:3.0;"/><path d="M39.5,24 L39.5,51 M26.5,32 L52.5,32 M39.5,51 L26.5,66 M39.5,51 L52.5,66 " fill="none" style="stroke:#0A9EFD;stroke-width:3.0;"/><text fill="#0A9EFD" font-family="Roboto" font-size="14" font-weight="bold" lengthAdjust="spacing" textLength="33" x="20" y="919.377">User</text><ellipse cx="39.5" cy="933.4531" fill="none" rx="8" ry="8" style="stroke:#0A9EFD;stroke-width:3.0;"/><path d="M39.5,941.4531 L39.5,968.4531 M26.5,949.4531 L52.5,949.4531 M39.5,968.4531 L26.5,983.4531 M39.5,968.4531 L52.5,983.4531 " fill="none" style="stroke:#0A9EFD;stroke-width:3.0;"/><rect fill="#FFFFFF" height="31.6094" rx="2.5" ry="2.5" style="stroke:#0A9EFD;stroke-width:2.0;" width="87" x="120" y="55"/><text fill="#0A9EFD" font-family="Roboto" font-size="14" font-weight="bold" lengthAdjust="spacing" textLength="73" x="127" y="76.5332">Video SDK</text><rect fill="#FFFFFF" height="31.6094" rx="2.5" ry="2.5" style="stroke:#0A9EFD;stroke-width:2.0;" width="87" x="120" y="904.8438"/><text fill="#0A9EFD" font-family="Roboto" font-size="14" font-weight="bold" lengthAdjust="spacing" textLength="73" x="127" y="926.377">Video SDK</text><rect fill="#FFFFFF" height="31.6094" rx="2.5" ry="2.5" style="stroke:#0A9EFD;stroke-width:2.0;" width="66" x="595.5" y="55"/><text fill="#0A9EFD" font-family="Roboto" font-size="14" font-weight="bold" lengthAdjust="spacing" textLength="52" x="602.5" y="76.5332">SD-RTN</text><rect fill="#FFFFFF" height="31.6094" rx="2.5" ry="2.5" style="stroke:#0A9EFD;stroke-width:2.0;" width="66" x="595.5" y="904.8438"/><text fill="#0A9EFD" font-family="Roboto" font-size="14" font-weight="bold" lengthAdjust="spacing" textLength="52" x="602.5" y="926.377">SD-RTN</text><rect fill="#FFFFFF" height="49.2188" rx="2.5" ry="2.5" style="stroke:#0A9EFD;stroke-width:2.0;" width="105" x="671.5" y="37.3906"/><text fill="#0A9EFD" font-family="Roboto" font-size="14" font-weight="bold" lengthAdjust="spacing" textLength="91" x="678.5" y="58.9238">Spatial Audio</text><text fill="#0A9EFD" font-family="Roboto" font-size="14" font-weight="bold" lengthAdjust="spacing" textLength="70" x="691" y="76.5332">Extension</text><rect fill="#FFFFFF" height="49.2188" rx="2.5" ry="2.5" style="stroke:#0A9EFD;stroke-width:2.0;" width="105" x="671.5" y="904.8438"/><text fill="#0A9EFD" font-family="Roboto" font-size="14" font-weight="bold" lengthAdjust="spacing" textLength="91" x="678.5" y="926.377">Spatial Audio</text><text fill="#0A9EFD" font-family="Roboto" font-size="14" font-weight="bold" lengthAdjust="spacing" textLength="70" x="691" y="943.9863">Extension</text><polygon fill="#0A9EFD" points="616.5,117.2188,626.5,121.2188,616.5,125.2188,620.5,121.2188" style="stroke:#0A9EFD;stroke-width:1.0;"/><line style="stroke:#0A9EFD;stroke-width:2.0;" x1="163.5" x2="622.5" y1="121.2188" y2="121.2188"/><text fill="#0A9EFD" font-family="Roboto" font-size="14" font-weight="bold" lengthAdjust="spacing" textLength="159" x="316.5" y="116.1426">AgoraRTC.createClient</text><path d="M110,136.2188 L390,136.2188 L390,145.8281 L380,155.8281 L110,155.8281 L110,136.2188 " fill="#EEEEEE" style="stroke:#0A9EFD;stroke-width:1.5;"/><rect fill="none" height="82.8281" style="stroke:#0A9EFD;stroke-width:2.0;" width="676.5" x="110" y="136.2188"/><text fill="#0A9EFD" font-family="Roboto" font-size="14" font-weight="bold" lengthAdjust="spacing" textLength="235" x="125" y="151.752">Setup the spatial audio extension</text><polygon fill="#0A9EFD" points="616.5,175.4375,626.5,179.4375,616.5,183.4375,620.5,179.4375" style="stroke:#0A9EFD;stroke-width:1.0;"/><line style="stroke:#0A9EFD;stroke-width:2.0;" x1="163.5" x2="622.5" y1="179.4375" y2="179.4375"/><text fill="#0A9EFD" font-family="Roboto" font-size="14" font-weight="bold" lengthAdjust="spacing" textLength="199" x="296.5" y="174.3613">AgoraRTC.registerExtension</text><polygon fill="#0A9EFD" points="712,207.0469,722,211.0469,712,215.0469,716,211.0469" style="stroke:#0A9EFD;stroke-width:1.0;"/><line style="stroke:#0A9EFD;stroke-width:2.0;" x1="163.5" x2="718" y1="211.0469" y2="211.0469"/><text fill="#0A9EFD" font-family="Roboto" font-size="14" font-weight="bold" lengthAdjust="spacing" textLength="293" x="297.25" y="205.9707">spatialAudioExtension.updateSelfPosition</text><polygon fill="#0A9EFD" points="151.5,245.6563,161.5,249.6563,151.5,253.6563,155.5,249.6563" style="stroke:#0A9EFD;stroke-width:1.0;"/><line style="stroke:#0A9EFD;stroke-width:2.0;" x1="39.5" x2="157.5" y1="249.6563" y2="249.6563"/><text fill="#0A9EFD" font-family="Roboto" font-size="14" font-weight="bold" lengthAdjust="spacing" textLength="92" x="55.5" y="244.5801">Join Channel</text><polygon fill="#0A9EFD" points="616.5,277.2656,626.5,281.2656,616.5,285.2656,620.5,281.2656" style="stroke:#0A9EFD;stroke-width:1.0;"/><line style="stroke:#0A9EFD;stroke-width:2.0;" x1="163.5" x2="622.5" y1="281.2656" y2="281.2656"/><text fill="#0A9EFD" font-family="Roboto" font-size="14" font-weight="bold" lengthAdjust="spacing" textLength="140" x="326" y="276.1895">AgoraRTCClient.join</text><path d="M110,296.2656 L405,296.2656 L405,305.875 L395,315.875 L110,315.875 L110,296.2656 " fill="#EEEEEE" style="stroke:#0A9EFD;stroke-width:1.5;"/><rect fill="none" height="209.2656" style="stroke:#0A9EFD;stroke-width:2.0;" width="676.5" x="110" y="296.2656"/><text fill="#0A9EFD" font-family="Roboto" font-size="14" font-weight="bold" lengthAdjust="spacing" textLength="250" x="125" y="311.7988">Realize remote user's spatial sound</text><polygon fill="#0A9EFD" points="174.5,335.4844,164.5,339.4844,174.5,343.4844,170.5,339.4844" style="stroke:#0A9EFD;stroke-width:1.0;"/><line style="stroke:#0A9EFD;stroke-width:2.0;" x1="168.5" x2="627.5" y1="339.4844" y2="339.4844"/><text fill="#0A9EFD" font-family="Roboto" font-size="14" font-weight="bold" lengthAdjust="spacing" textLength="192" x="300" y="334.4082">client.on("user-published")</text><polygon fill="#0A9EFD" points="616.5,367.0938,626.5,371.0938,616.5,375.0938,620.5,371.0938" style="stroke:#0A9EFD;stroke-width:1.0;"/><line style="stroke:#0A9EFD;stroke-width:2.0;" x1="163.5" x2="622.5" y1="371.0938" y2="371.0938"/><text fill="#0A9EFD" font-family="Roboto" font-size="14" font-weight="bold" lengthAdjust="spacing" textLength="184" x="304" y="366.0176">AgoraRTCClient.subscribe</text><polygon fill="#0A9EFD" points="712,398.7031,722,402.7031,712,406.7031,716,402.7031" style="stroke:#0A9EFD;stroke-width:1.0;"/><line style="stroke:#0A9EFD;stroke-width:2.0;" x1="163.5" x2="718" y1="402.7031" y2="402.7031"/><text fill="#0A9EFD" font-family="Roboto" font-size="14" font-weight="bold" lengthAdjust="spacing" textLength="277" x="305.25" y="397.627">spatialAudioExtension.createProcessor</text><polygon fill="#0A9EFD" points="616.5,430.3125,626.5,434.3125,616.5,438.3125,620.5,434.3125" style="stroke:#0A9EFD;stroke-width:1.0;"/><line style="stroke:#0A9EFD;stroke-width:2.0;" x1="163.5" x2="622.5" y1="434.3125" y2="434.3125"/><text fill="#0A9EFD" font-family="Roboto" font-size="14" font-weight="bold" lengthAdjust="spacing" textLength="441" x="175.5" y="429.2363">remoteTrack.pipe(processor).pipe(track.processorDestination)</text><polygon fill="#0A9EFD" points="616.5,461.9219,626.5,465.9219,616.5,469.9219,620.5,465.9219" style="stroke:#0A9EFD;stroke-width:1.0;"/><line style="stroke:#0A9EFD;stroke-width:2.0;" x1="163.5" x2="622.5" y1="465.9219" y2="465.9219"/><text fill="#0A9EFD" font-family="Roboto" font-size="14" font-weight="bold" lengthAdjust="spacing" textLength="120" x="336" y="460.8457">remoteTrack.Play</text><polygon fill="#0A9EFD" points="712,493.5313,722,497.5313,712,501.5313,716,497.5313" style="stroke:#0A9EFD;stroke-width:1.0;"/><line style="stroke:#0A9EFD;stroke-width:2.0;" x1="163.5" x2="718" y1="497.5313" y2="497.5313"/><text fill="#0A9EFD" font-family="Roboto" font-size="14" font-weight="bold" lengthAdjust="spacing" textLength="236" x="325.75" y="492.4551">processor.updateRemotePosition</text><path d="M10,519.5313 L307,519.5313 L307,529.1406 L297,539.1406 L10,539.1406 L10,519.5313 " fill="#EEEEEE" style="stroke:#0A9EFD;stroke-width:1.5;"/><rect fill="none" height="209.2656" style="stroke:#0A9EFD;stroke-width:2.0;" width="776.5" x="10" y="519.5313"/><text fill="#0A9EFD" font-family="Roboto" font-size="14" font-weight="bold" lengthAdjust="spacing" textLength="252" x="25" y="535.0645">Spatial audio effect for media player</text><polygon fill="#0A9EFD" points="151.5,558.75,161.5,562.75,151.5,566.75,155.5,562.75" style="stroke:#0A9EFD;stroke-width:1.0;"/><line style="stroke:#0A9EFD;stroke-width:2.0;" x1="39.5" x2="157.5" y1="562.75" y2="562.75"/><text fill="#0A9EFD" font-family="Roboto" font-size="14" font-weight="bold" lengthAdjust="spacing" textLength="100" x="51.5" y="557.6738">Play media file</text><polygon fill="#0A9EFD" points="616.5,590.3594,626.5,594.3594,616.5,598.3594,620.5,594.3594" style="stroke:#0A9EFD;stroke-width:1.0;"/><line style="stroke:#0A9EFD;stroke-width:2.0;" x1="163.5" x2="622.5" y1="594.3594" y2="594.3594"/><text fill="#0A9EFD" font-family="Roboto" font-size="14" font-weight="bold" lengthAdjust="spacing" textLength="290" x="251" y="589.2832">AgoraRTC.createBufferSourceAudioTrack</text><polygon fill="#0A9EFD" points="712,621.9688,722,625.9688,712,629.9688,716,625.9688" style="stroke:#0A9EFD;stroke-width:1.0;"/><line style="stroke:#0A9EFD;stroke-width:2.0;" x1="163.5" x2="718" y1="625.9688" y2="625.9688"/><text fill="#0A9EFD" font-family="Roboto" font-size="14" font-weight="bold" lengthAdjust="spacing" textLength="277" x="305.25" y="620.8926">spatialAudioExtension.createProcessor</text><polygon fill="#0A9EFD" points="616.5,653.5781,626.5,657.5781,616.5,661.5781,620.5,657.5781" style="stroke:#0A9EFD;stroke-width:1.0;"/><line style="stroke:#0A9EFD;stroke-width:2.0;" x1="163.5" x2="622.5" y1="657.5781" y2="657.5781"/><text fill="#0A9EFD" font-family="Roboto" font-size="14" font-weight="bold" lengthAdjust="spacing" textLength="388" x="202" y="652.502">track.pipe(processor).pipe(track.processorDestination)</text><polygon fill="#0A9EFD" points="616.5,685.1875,626.5,689.1875,616.5,693.1875,620.5,689.1875" style="stroke:#0A9EFD;stroke-width:1.0;"/><line style="stroke:#0A9EFD;stroke-width:2.0;" x1="163.5" x2="622.5" y1="689.1875" y2="689.1875"/><text fill="#0A9EFD" font-family="Roboto" font-size="14" font-weight="bold" lengthAdjust="spacing" textLength="67" x="362.5" y="684.1113">track.Play</text><polygon fill="#0A9EFD" points="712,716.7969,722,720.7969,712,724.7969,716,720.7969" style="stroke:#0A9EFD;stroke-width:1.0;"/><line style="stroke:#0A9EFD;stroke-width:2.0;" x1="163.5" x2="718" y1="720.7969" y2="720.7969"/><text fill="#0A9EFD" font-family="Roboto" font-size="14" font-weight="bold" lengthAdjust="spacing" textLength="252" x="317.75" y="715.7207">processor.updatePlayerPositionInfo</text><path d="M110,742.7969 L213,742.7969 L213,752.4063 L203,762.4063 L110,762.4063 L110,742.7969 " fill="#EEEEEE" style="stroke:#0A9EFD;stroke-width:1.5;"/><rect fill="none" height="146.0469" style="stroke:#0A9EFD;stroke-width:2.0;" width="676.5" x="110" y="742.7969"/><text fill="#0A9EFD" font-family="Roboto" font-size="14" font-weight="bold" lengthAdjust="spacing" textLength="58" x="125" y="758.3301">Cleanup</text><polygon fill="#0A9EFD" points="174.5,782.0156,164.5,786.0156,174.5,790.0156,170.5,786.0156" style="stroke:#0A9EFD;stroke-width:1.0;"/><line style="stroke:#0A9EFD;stroke-width:2.0;" x1="168.5" x2="627.5" y1="786.0156" y2="786.0156"/><text fill="#0A9EFD" font-family="Roboto" font-size="14" font-weight="bold" lengthAdjust="spacing" textLength="210" x="291" y="780.9395">client.on("user-unpublished")</text><polygon fill="#0A9EFD" points="712,813.625,722,817.625,712,821.625,716,817.625" style="stroke:#0A9EFD;stroke-width:1.0;"/><line style="stroke:#0A9EFD;stroke-width:2.0;" x1="163.5" x2="718" y1="817.625" y2="817.625"/><text fill="#0A9EFD" font-family="Roboto" font-size="14" font-weight="bold" lengthAdjust="spacing" textLength="241" x="323.25" y="812.5488">processor.removeRemotePosition</text><polygon fill="#0A9EFD" points="174.5,845.2344,164.5,849.2344,174.5,853.2344,170.5,849.2344" style="stroke:#0A9EFD;stroke-width:1.0;"/><line style="stroke:#0A9EFD;stroke-width:2.0;" x1="168.5" x2="627.5" y1="849.2344" y2="849.2344"/><text fill="#0A9EFD" font-family="Roboto" font-size="14" font-weight="bold" lengthAdjust="spacing" textLength="112" x="340" y="844.1582">AgoraRTC.leave</text><polygon fill="#0A9EFD" points="712,876.8438,722,880.8438,712,884.8438,716,880.8438" style="stroke:#0A9EFD;stroke-width:1.0;"/><line style="stroke:#0A9EFD;stroke-width:2.0;" x1="163.5" x2="718" y1="880.8438" y2="880.8438"/><text fill="#0A9EFD" font-family="Roboto" font-size="14" font-weight="bold" lengthAdjust="spacing" textLength="222" x="332.75" y="875.7676">processor.clearRemotePosition</text><!--SRC=[fPDDQzj048Rl-okckZG-M1HwCwNWs3uaXI8afxHGAElLo9valRliHt3xwxkh3xSIZWdaOcJDpFFEl3DwHqh8K2FmlRRybtiYbLCuIfQU3BVy2BVwLF2w9hM7ZnyOuy9h2zc3Gvi1T_1GbOpjz0co7pfOuCPaB1Pw4cIuyf1zenerLEilRVgoA1Yg6c95NxPCofEQQZqljr_xWhj9p71FNC8orAH_AjYSF2f7MhNfc-_RV_me1lFF2R60LgRShd9XaNjSIKBbsTxgOA127t_z0S7rS9xWW0FwCidYdfn7kvccnIOM0wfjyvoH1rD7zGfbKsX7FXN5TXcBDdO2nGBkDIbO7RXIA2ygTytdZp6FzIEKo2NzGR1ur1uXnFMyT-Tnd0vH9A4-pJkKw11QtMGfTsx2Jf8xO9tDhacwi7F2qWvVCMfdT66rGEUq7M6xDhUMYwVSaC4RCwJDkl- -2mrlr-WyAPxychq8AYJ_FUhhNDxRNhR9O-Fx2nZllMbGU6ZYeH-n9Wucaj6EbfJ4-cX34g_Tscs8F5l5pqDWwr7RxXiTz6_tph_EjQ8TVd3jJZNwV-TM4haAvkfn1NNXl2PQQP7FqmsDg6TNe-8ple0HCMWlxFal]--></g></svg>