<?xml version="1.0" encoding="UTF-8" standalone="no"?><svg xmlns="http://www.w3.org/2000/svg" xmlns:xlink="http://www.w3.org/1999/xlink" contentStyleType="text/css" height="798px" preserveAspectRatio="none" style="width:656px;height:798px;" version="1.1" viewBox="0 0 656 798" width="656px" zoomAndPan="magnify"><defs/><g><rect fill="none" height="796.7422" style="stroke:#0A9EFD;stroke-width:1.0;" width="654.5" x="0" y="0"/><rect fill="#F3F3F3" height="786.7422" style="stroke:#0A9EFD;stroke-width:0.5;" width="97" x="148.5" y="6"/><text fill="#0A9EFD" font-family="sans-serif" font-size="13" font-weight="bold" lengthAdjust="spacing" textLength="62" x="166" y="18.5684">Your app</text><rect fill="#F3F3F3" height="786.7422" style="stroke:#0A9EFD;stroke-width:0.5;" width="81" x="563.5" y="6"/><text fill="#0A9EFD" font-family="sans-serif" font-size="13" font-weight="bold" lengthAdjust="spacing" textLength="41" x="583.5" y="18.5684">Agora</text><rect fill="#FFFFFF" height="79.4648" style="stroke:#0A9EFD;stroke-width:2.0;" width="508" x="142.5" y="133.9766"/><rect fill="#FFFFFF" height="213.418" style="stroke:#0A9EFD;stroke-width:2.0;" width="508" x="142.5" y="227.4414"/><rect fill="#FFFFFF" height="95.9531" style="stroke:#0A9EFD;stroke-width:2.0;" width="508" x="142.5" y="454.8594"/><rect fill="#FFFFFF" height="95.9531" style="stroke:#0A9EFD;stroke-width:2.0;" width="508" x="142.5" y="595.3008"/><line style="stroke:#0A9EFD;stroke-width:0.5;stroke-dasharray:5.0,5.0;" x1="24" x2="24" y1="86.4883" y2="708.2539"/><line style="stroke:#0A9EFD;stroke-width:0.5;stroke-dasharray:5.0,5.0;" x1="196.5" x2="196.5" y1="86.4883" y2="708.2539"/><line style="stroke:#0A9EFD;stroke-width:0.5;stroke-dasharray:5.0,5.0;" x1="603.5" x2="603.5" y1="86.4883" y2="708.2539"/><text fill="#0A9EFD" font-family="Roboto" font-size="14" font-weight="bold" lengthAdjust="spacing" textLength="32" x="5" y="83.5352">User</text><ellipse cx="24" cy="16" fill="none" rx="8" ry="8" style="stroke:#0A9EFD;stroke-width:3.0;"/><path d="M24,24 L24,51 M11,32 L37,32 M24,51 L11,66 M24,51 L37,66 " fill="none" style="stroke:#0A9EFD;stroke-width:3.0;"/><text fill="#0A9EFD" font-family="Roboto" font-size="14" font-weight="bold" lengthAdjust="spacing" textLength="32" x="5" y="720.7891">User</text><ellipse cx="24" cy="734.7422" fill="none" rx="8" ry="8" style="stroke:#0A9EFD;stroke-width:3.0;"/><path d="M24,742.7422 L24,769.7422 M11,750.7422 L37,750.7422 M24,769.7422 L11,784.7422 M24,769.7422 L37,784.7422 " fill="none" style="stroke:#0A9EFD;stroke-width:3.0;"/><rect fill="#FFFFFF" height="30.4883" rx="2.5" ry="2.5" style="stroke:#0A9EFD;stroke-width:2.0;" width="89" x="152.5" y="55"/><text fill="#0A9EFD" font-family="Roboto" font-size="14" font-weight="bold" lengthAdjust="spacing" textLength="75" x="159.5" y="75.5352">Video SDK</text><rect fill="#FFFFFF" height="30.4883" rx="2.5" ry="2.5" style="stroke:#0A9EFD;stroke-width:2.0;" width="89" x="152.5" y="707.2539"/><text fill="#0A9EFD" font-family="Roboto" font-size="14" font-weight="bold" lengthAdjust="spacing" textLength="75" x="159.5" y="727.7891">Video SDK</text><rect fill="#FFFFFF" height="30.4883" rx="2.5" ry="2.5" style="stroke:#0A9EFD;stroke-width:2.0;" width="73" x="567.5" y="55"/><text fill="#0A9EFD" font-family="Roboto" font-size="14" font-weight="bold" lengthAdjust="spacing" textLength="59" x="574.5" y="75.5352">SD-RTN</text><rect fill="#FFFFFF" height="30.4883" rx="2.5" ry="2.5" style="stroke:#0A9EFD;stroke-width:2.0;" width="73" x="567.5" y="707.2539"/><text fill="#0A9EFD" font-family="Roboto" font-size="14" font-weight="bold" lengthAdjust="spacing" textLength="59" x="574.5" y="727.7891">SD-RTN</text><polygon fill="#0A9EFD" points="185,114.9766,195,118.9766,185,122.9766,189,118.9766" style="stroke:#0A9EFD;stroke-width:1.0;"/><line style="stroke:#0A9EFD;stroke-width:2.0;" x1="24" x2="191" y1="118.9766" y2="118.9766"/><text fill="#0A9EFD" font-family="Roboto" font-size="14" font-weight="bold" lengthAdjust="spacing" textLength="149" x="36" y="114.0234">Start speech-to-text</text><path d="M142.5,133.9766 L300.5,133.9766 L300.5,142.4648 L290.5,152.4648 L142.5,152.4648 L142.5,133.9766 " fill="#EEEEEE" style="stroke:#0A9EFD;stroke-width:1.5;"/><rect fill="none" height="79.4648" style="stroke:#0A9EFD;stroke-width:2.0;" width="508" x="142.5" y="133.9766"/><text fill="#0A9EFD" font-family="Roboto" font-size="14" font-weight="bold" lengthAdjust="spacing" textLength="113" x="157.5" y="148.5117">Acquire a token</text><polygon fill="#0A9EFD" points="592,170.9531,602,174.9531,592,178.9531,596,174.9531" style="stroke:#0A9EFD;stroke-width:1.0;"/><line style="stroke:#0A9EFD;stroke-width:2.0;" x1="197" x2="598" y1="174.9531" y2="174.9531"/><text fill="#0A9EFD" font-family="Roboto" font-size="14" font-weight="bold" lengthAdjust="spacing" textLength="257" x="272" y="170">HTTP POST request a builderToken</text><polygon fill="#0A9EFD" points="208,201.4414,198,205.4414,208,209.4414,204,205.4414" style="stroke:#0A9EFD;stroke-width:1.0;"/><line style="stroke:#0A9EFD;stroke-width:2.0;" x1="202" x2="603" y1="205.4414" y2="205.4414"/><text fill="#0A9EFD" font-family="Roboto" font-size="14" font-weight="bold" lengthAdjust="spacing" textLength="257" x="272" y="200.4883">Receive a builderToken in response</text><path d="M142.5,227.4414 L270.5,227.4414 L270.5,235.9297 L260.5,245.9297 L142.5,245.9297 L142.5,227.4414 " fill="#EEEEEE" style="stroke:#0A9EFD;stroke-width:1.5;"/><rect fill="none" height="213.418" style="stroke:#0A9EFD;stroke-width:2.0;" width="508" x="142.5" y="227.4414"/><text fill="#0A9EFD" font-family="Roboto" font-size="14" font-weight="bold" lengthAdjust="spacing" textLength="83" x="157.5" y="241.9766">Start a task</text><line style="stroke:#0A9EFD;stroke-width:2.0;" x1="197" x2="239" y1="268.418" y2="268.418"/><line style="stroke:#0A9EFD;stroke-width:2.0;" x1="239" x2="239" y1="268.418" y2="281.418"/><line style="stroke:#0A9EFD;stroke-width:2.0;" x1="198" x2="239" y1="281.418" y2="281.418"/><polygon fill="#0A9EFD" points="208,277.418,198,281.418,208,285.418,204,281.418" style="stroke:#0A9EFD;stroke-width:1.0;"/><text fill="#0A9EFD" font-family="Roboto" font-size="14" font-weight="bold" lengthAdjust="spacing" textLength="331" x="204" y="263.4648">Create JSON configuration for speech-to-text</text><polygon fill="#0A9EFD" points="592,324.3945,602,328.3945,592,332.3945,596,328.3945" style="stroke:#0A9EFD;stroke-width:1.0;"/><line style="stroke:#0A9EFD;stroke-width:2.0;" x1="197" x2="598" y1="328.3945" y2="328.3945"/><text fill="#0A9EFD" font-family="Roboto" font-size="14" font-weight="bold" lengthAdjust="spacing" textLength="182" x="307" y="306.9531">HTTP POST to start task.</text><text fill="#0A9EFD" font-family="Roboto" font-size="14" font-weight="bold" lengthAdjust="spacing" textLength="368" x="216.5" y="323.4414">Contains the builderToken and JSON configuration</text><polygon fill="#0A9EFD" points="208,354.8828,198,358.8828,208,362.8828,204,358.8828" style="stroke:#0A9EFD;stroke-width:1.0;"/><line style="stroke:#0A9EFD;stroke-width:2.0;" x1="202" x2="603" y1="358.8828" y2="358.8828"/><text fill="#0A9EFD" font-family="Roboto" font-size="14" font-weight="bold" lengthAdjust="spacing" textLength="190" x="305.5" y="353.9297">Receive task status and Id</text><polygon fill="#0A9EFD" points="208,385.3711,198,389.3711,208,393.3711,204,389.3711" style="stroke:#0A9EFD;stroke-width:1.0;"/><line style="stroke:#0A9EFD;stroke-width:2.0;" x1="202" x2="603" y1="389.3711" y2="389.3711"/><text fill="#0A9EFD" font-family="Roboto" font-size="14" font-weight="bold" lengthAdjust="spacing" textLength="383" x="209" y="384.418">Receive the speech-to-text data stream in a callback</text><line style="stroke:#0A9EFD;stroke-width:2.0;" x1="197" x2="239" y1="419.8594" y2="419.8594"/><line style="stroke:#0A9EFD;stroke-width:2.0;" x1="239" x2="239" y1="419.8594" y2="432.8594"/><line style="stroke:#0A9EFD;stroke-width:2.0;" x1="198" x2="239" y1="432.8594" y2="432.8594"/><polygon fill="#0A9EFD" points="208,428.8594,198,432.8594,208,436.8594,204,432.8594" style="stroke:#0A9EFD;stroke-width:1.0;"/><text fill="#0A9EFD" font-family="Roboto" font-size="14" font-weight="bold" lengthAdjust="spacing" textLength="115" x="204" y="414.9063">Display the text</text><path d="M142.5,454.8594 L316.5,454.8594 L316.5,463.3477 L306.5,473.3477 L142.5,473.3477 L142.5,454.8594 " fill="#EEEEEE" style="stroke:#0A9EFD;stroke-width:1.5;"/><rect fill="none" height="95.9531" style="stroke:#0A9EFD;stroke-width:2.0;" width="508" x="142.5" y="454.8594"/><text fill="#0A9EFD" font-family="Roboto" font-size="14" font-weight="bold" lengthAdjust="spacing" textLength="129" x="157.5" y="469.3945">Query task status</text><polygon fill="#0A9EFD" points="592,508.3242,602,512.3242,592,516.3242,596,512.3242" style="stroke:#0A9EFD;stroke-width:1.0;"/><line style="stroke:#0A9EFD;stroke-width:2.0;" x1="197" x2="598" y1="512.3242" y2="512.3242"/><text fill="#0A9EFD" font-family="Roboto" font-size="14" font-weight="bold" lengthAdjust="spacing" textLength="224" x="288.5" y="490.8828">HTTP GET to query task status</text><text fill="#0A9EFD" font-family="Roboto" font-size="14" font-weight="bold" lengthAdjust="spacing" textLength="142" x="332" y="507.3711">Contains the taskId</text><polygon fill="#0A9EFD" points="208,538.8125,198,542.8125,208,546.8125,204,542.8125" style="stroke:#0A9EFD;stroke-width:1.0;"/><line style="stroke:#0A9EFD;stroke-width:2.0;" x1="202" x2="603" y1="542.8125" y2="542.8125"/><text fill="#0A9EFD" font-family="Roboto" font-size="14" font-weight="bold" lengthAdjust="spacing" textLength="188" x="306.5" y="537.8594">Receive the current status</text><polygon fill="#0A9EFD" points="185,576.3008,195,580.3008,185,584.3008,189,580.3008" style="stroke:#0A9EFD;stroke-width:1.0;"/><line style="stroke:#0A9EFD;stroke-width:2.0;" x1="24" x2="191" y1="580.3008" y2="580.3008"/><text fill="#0A9EFD" font-family="Roboto" font-size="14" font-weight="bold" lengthAdjust="spacing" textLength="139" x="41" y="575.3477">Stop speech to text</text><path d="M142.5,595.3008 L283.5,595.3008 L283.5,603.7891 L273.5,613.7891 L142.5,613.7891 L142.5,595.3008 " fill="#EEEEEE" style="stroke:#0A9EFD;stroke-width:1.5;"/><rect fill="none" height="95.9531" style="stroke:#0A9EFD;stroke-width:2.0;" width="508" x="142.5" y="595.3008"/><text fill="#0A9EFD" font-family="Roboto" font-size="14" font-weight="bold" lengthAdjust="spacing" textLength="96" x="157.5" y="609.8359">Stop the task</text><polygon fill="#0A9EFD" points="592,648.7656,602,652.7656,592,656.7656,596,652.7656" style="stroke:#0A9EFD;stroke-width:1.0;"/><line style="stroke:#0A9EFD;stroke-width:2.0;" x1="197" x2="598" y1="652.7656" y2="652.7656"/><text fill="#0A9EFD" font-family="Roboto" font-size="14" font-weight="bold" lengthAdjust="spacing" textLength="210" x="293" y="631.3242">HTTP DELETE to stp the task</text><text fill="#0A9EFD" font-family="Roboto" font-size="14" font-weight="bold" lengthAdjust="spacing" textLength="139" x="331" y="647.8125">contains the taskId</text><polygon fill="#0A9EFD" points="208,679.2539,198,683.2539,208,687.2539,204,683.2539" style="stroke:#0A9EFD;stroke-width:1.0;"/><line style="stroke:#0A9EFD;stroke-width:2.0;" x1="202" x2="603" y1="683.2539" y2="683.2539"/><text fill="#0A9EFD" font-family="Roboto" font-size="14" font-weight="bold" lengthAdjust="spacing" textLength="281" x="260" y="678.3008">Receive a response confirming success</text><!--SRC=[ZPBTJi9048Nlzod6tfS7CCQ4057KAD9gOc9YXks86yhkiZy6tjxP5eG2CVQsvypvpinUA2thM17Wt3Zyy0kbUoekQo5G1kCWU_7aCa0FByLKY9bPG_PceWEqDXCMNL1IMTG1ibTLaO5YUD_8-vE985q1ExQsVaeuyXJ3V5e-RWtZlO738BzEGowX2Em0RudaLnvC7cWTX9Wx4otqvIegn_GGp8AqO4Fh6r_2RLbEOF9KbE1e5Sa7LisYgYjovQ_uAc_5KvAalkb80agpsLkZFIMuNMoBnA7e5_jCPatVm146WhlYwH6aqPzg7Xq6PJHyyaAFUfm73WPy4v42Ul2k1qO7LDf3-A8k8VBAJgFETal3qjmGVMCRL-Tb7D6bX0e3ifEBBTDA42JMzGnbj_nGULlZfXdGb3lOs7CajpaaE6r-CsgAhuwLxnewzTElFz1bT8xuRMrZ6eRkSp9sso_5DQ2xg_AVNS8ftt3qC2f7xMtsEZwE_2ST_hwbzbXkgVGSV9IIV0lw0m00]--></g></svg>