<?xml version="1.0" encoding="us-ascii" standalone="no"?><svg xmlns="http://www.w3.org/2000/svg" xmlns:xlink="http://www.w3.org/1999/xlink" contentStyleType="text/css" height="344px" preserveAspectRatio="none" style="width:630px;height:344px;" version="1.1" viewBox="0 0 630 344" width="630px" zoomAndPan="magnify"><defs/><g><rect fill="none" height="342.2747" style="stroke:#0A9EFD;stroke-width:1.0;" width="628.6667" x="0" y="0"/><rect fill="#999999" fill-opacity="0.33333" height="332.2747" style="stroke:#0A9EFD;stroke-width:0.5;" width="50.6667" x="16" y="6"/><text fill="#0A9EFD" font-family="sans-serif" font-size="13" font-weight="bold" lengthAdjust="spacing" textLength="25" x="28.8333" y="19.4951">App</text><rect fill="#999999" fill-opacity="0.33333" height="332.2747" style="stroke:#0A9EFD;stroke-width:0.5;" width="81" x="205" y="6"/><text fill="#0A9EFD" font-family="sans-serif" font-size="13" font-weight="bold" lengthAdjust="spacing" textLength="75" x="208" y="19.4951">Your Server</text><rect fill="#999999" fill-opacity="0.33333" height="332.2747" style="stroke:#0A9EFD;stroke-width:0.5;" width="74" x="390.3333" y="6"/><text fill="#0A9EFD" font-family="sans-serif" font-size="13" font-weight="bold" lengthAdjust="spacing" textLength="68" x="393.3333" y="19.4951">Video SDK</text><rect fill="#999999" fill-opacity="0.33333" height="332.2747" style="stroke:#0A9EFD;stroke-width:0.5;" width="96" x="528.6667" y="6"/><text fill="#0A9EFD" font-family="sans-serif" font-size="13" font-weight="bold" lengthAdjust="spacing" textLength="90" x="531.6667" y="19.4951">Agora SD-RTN</text><rect fill="#0A9EFD" fill-opacity="0.06667" height="191.5898" style="stroke:#0A9EFD;stroke-width:2.0;" width="598" x="10" y="85.0182"/><line style="stroke:#0A9EFD;stroke-width:0.5;stroke-dasharray:5.0,5.0;" x1="41" x2="41" y1="68.0182" y2="293.6081"/><line style="stroke:#0A9EFD;stroke-width:0.5;stroke-dasharray:5.0,5.0;" x1="245.1667" x2="245.1667" y1="68.0182" y2="293.6081"/><line style="stroke:#0A9EFD;stroke-width:0.5;stroke-dasharray:5.0,5.0;" x1="427" x2="427" y1="68.0182" y2="293.6081"/><line style="stroke:#0A9EFD;stroke-width:0.5;stroke-dasharray:5.0,5.0;" x1="576.3333" x2="576.3333" y1="68.0182" y2="293.6081"/><rect fill="none" height="40.6667" rx="2.5" ry="2.5" style="stroke:#0A9EFD;stroke-width:2.0;" width="42.6667" x="20" y="26.3516"/><path d="M29.1333,33.3516 C28.5333,33.3516 28,33.8849 28,34.4849 L28,58.8516 C28,59.4516 28.5333,59.9849 29.1333,59.9849 L50.1667,59.9849 C50.7667,59.9849 51.3,59.4516 51.3,58.8516 L51.3,34.4849 C51.3,33.8849 50.7667,33.3516 50.1667,33.3516 L29.1333,33.3516 M31.3333,36.6849 L48,36.6849 L48,53.3516 L31.3333,53.3516 L31.3333,36.6849 M39.6667,55.0182 C40.9333,55.0182 41.7667,56.4182 41.1333,57.5182 C40.5,58.6182 38.8667,58.6182 38.2,57.5182 C37.5667,56.4182 38.3667,55.0182 39.6667,55.0182 " fill="#0A9EFD" style="stroke:;stroke-width:0.0;stroke-dasharray:;"/><rect fill="none" height="40.6667" rx="2.5" ry="2.5" style="stroke:#0A9EFD;stroke-width:2.0;" width="42.6667" x="20" y="292.6081"/><path d="M29.1333,299.6081 C28.5333,299.6081 28,300.1414 28,300.7414 L28,325.1081 C28,325.7081 28.5333,326.2414 29.1333,326.2414 L50.1667,326.2414 C50.7667,326.2414 51.3,325.7081 51.3,325.1081 L51.3,300.7414 C51.3,300.1414 50.7667,299.6081 50.1667,299.6081 L29.1333,299.6081 M31.3333,302.9414 L48,302.9414 L48,319.6081 L31.3333,319.6081 L31.3333,302.9414 M39.6667,321.2747 C40.9333,321.2747 41.7667,322.6747 41.1333,323.7747 C40.5,324.8747 38.8667,324.8747 38.2,323.7747 C37.5667,322.6747 38.3667,321.2747 39.6667,321.2747 " fill="#0A9EFD" style="stroke:;stroke-width:0.0;stroke-dasharray:;"/><rect fill="none" height="40.6667" rx="2.5" ry="2.5" style="stroke:#0A9EFD;stroke-width:2.0;" width="42.6667" x="224.1667" y="26.3516"/><path d="M232.8,33.3516 C232.4333,33.3516 232.1667,33.6182 232.1667,33.9849 L232.1667,45.0182 C232.1667,45.9516 232.9,46.6849 233.8333,46.6849 L253.8333,46.6849 C254.7667,46.6849 255.5,45.9516 255.5,45.0182 L255.5,33.9849 C255.5,33.6182 255.2333,33.3516 254.8667,33.3516 L232.7667,33.3516 M232.1667,49.7182 L232.1667,59.4182 C232.1667,59.7849 232.4333,60.0516 232.8,60.0516 L254.9,60.0516 C255.2667,60.0516 255.5333,59.7849 255.5333,59.4182 L255.5333,49.7182 C255,49.9182 254.4667,50.0182 253.8667,50.0182 L233.8667,50.0182 C233.2667,50.0182 232.7333,49.8849 232.2,49.7182 M250.5,53.3516 C251.4333,53.3516 252.1667,54.0849 252.1667,55.0182 C252.1667,55.9516 251.4333,56.6849 250.5,56.6849 C249.5667,56.6849 248.8333,55.9516 248.8333,55.0182 C248.8333,54.0849 249.5667,53.3516 250.5,53.3516 " fill="#0A9EFD" style="stroke:;stroke-width:0.0;stroke-dasharray:;"/><rect fill="none" height="40.6667" rx="2.5" ry="2.5" style="stroke:#0A9EFD;stroke-width:2.0;" width="42.6667" x="224.1667" y="292.6081"/><path d="M232.8,299.6081 C232.4333,299.6081 232.1667,299.8747 232.1667,300.2414 L232.1667,311.2747 C232.1667,312.2081 232.9,312.9414 233.8333,312.9414 L253.8333,312.9414 C254.7667,312.9414 255.5,312.2081 255.5,311.2747 L255.5,300.2414 C255.5,299.8747 255.2333,299.6081 254.8667,299.6081 L232.7667,299.6081 M232.1667,315.9747 L232.1667,325.6747 C232.1667,326.0414 232.4333,326.3081 232.8,326.3081 L254.9,326.3081 C255.2667,326.3081 255.5333,326.0414 255.5333,325.6747 L255.5333,315.9747 C255,316.1747 254.4667,316.2747 253.8667,316.2747 L233.8667,316.2747 C233.2667,316.2747 232.7333,316.1414 232.2,315.9747 M250.5,319.6081 C251.4333,319.6081 252.1667,320.3414 252.1667,321.2747 C252.1667,322.2081 251.4333,322.9414 250.5,322.9414 C249.5667,322.9414 248.8333,322.2081 248.8333,321.2747 C248.8333,320.3414 249.5667,319.6081 250.5,319.6081 " fill="#0A9EFD" style="stroke:;stroke-width:0.0;stroke-dasharray:;"/><rect fill="none" height="40.6667" rx="2.5" ry="2.5" style="stroke:#0A9EFD;stroke-width:2.0;" width="42.6667" x="406" y="26.3516"/><path d="M414,33.3516 L414,46.6849 L427.3333,46.6849 L427.3333,33.3516 L414,33.3516 M430.6667,40.0182 L430.6667,50.0182 L420.6667,50.0182 L420.6667,53.3516 L434,53.3516 L434,40.0182 L430.6667,40.0182 M437.3333,46.6849 L437.3333,56.6849 L427.3333,56.6849 L427.3333,60.0182 L440.6667,60.0182 L440.6667,46.6849 L437.3333,46.6849 " fill="#0A9EFD" style="stroke:;stroke-width:0.0;stroke-dasharray:;"/><rect fill="none" height="40.6667" rx="2.5" ry="2.5" style="stroke:#0A9EFD;stroke-width:2.0;" width="42.6667" x="406" y="292.6081"/><path d="M414,299.6081 L414,312.9414 L427.3333,312.9414 L427.3333,299.6081 L414,299.6081 M430.6667,306.2747 L430.6667,316.2747 L420.6667,316.2747 L420.6667,319.6081 L434,319.6081 L434,306.2747 L430.6667,306.2747 M437.3333,312.9414 L437.3333,322.9414 L427.3333,322.9414 L427.3333,326.2747 L440.6667,326.2747 L440.6667,312.9414 L437.3333,312.9414 " fill="#0A9EFD" style="stroke:;stroke-width:0.0;stroke-dasharray:;"/><rect fill="none" height="40.6667" rx="2.5" ry="2.5" style="stroke:#0A9EFD;stroke-width:2.0;" width="42.6667" x="555.3333" y="26.3516"/><path d="M578.3333,33.3516 C574.3,33.3516 570.7667,36.2182 570,40.0182 C566.3333,40.0182 563.3333,43.0182 563.3333,46.6849 C563.3333,50.3516 566.3333,53.3516 570,53.3516 L585,53.3516 C587.7667,53.3516 590,51.1182 590,48.3516 C590,46.1849 588.6,44.0516 586.6667,43.3516 L586.6667,41.6849 C586.6667,37.0849 582.9333,33.3516 578.3333,33.3516 " fill="#0A9EFD" style="stroke:;stroke-width:0.0;stroke-dasharray:;"/><rect fill="none" height="40.6667" rx="2.5" ry="2.5" style="stroke:#0A9EFD;stroke-width:2.0;" width="42.6667" x="555.3333" y="292.6081"/><path d="M578.3333,299.6081 C574.3,299.6081 570.7667,302.4747 570,306.2747 C566.3333,306.2747 563.3333,309.2747 563.3333,312.9414 C563.3333,316.6081 566.3333,319.6081 570,319.6081 L585,319.6081 C587.7667,319.6081 590,317.3747 590,314.6081 C590,312.4414 588.6,310.3081 586.6667,309.6081 L586.6667,307.9414 C586.6667,303.3414 582.9333,299.6081 578.3333,299.6081 " fill="#0A9EFD" style="stroke:;stroke-width:0.0;stroke-dasharray:;"/><path d="M10,85.0182 L175,85.0182 L175,91.967 L165,101.967 L10,101.967 L10,85.0182 " fill="#EEEEEE" style="stroke:#0A9EFD;stroke-width:1.5;"/><rect fill="none" height="191.5898" style="stroke:#0A9EFD;stroke-width:2.0;" width="598" x="10" y="85.0182"/><text fill="#000000" font-family="Arial" font-size="13" lengthAdjust="spacing" textLength="120" x="25" y="98.2121">Token authentication</text><polygon fill="#0A9EFD" points="233.5,133.8644,243.5,137.8644,233.5,141.8644,237.5,137.8644" style="stroke:#0A9EFD;stroke-width:1.0;"/><line style="stroke:#0A9EFD;stroke-width:2.0;" x1="41.3333" x2="239.5" y1="137.8644" y2="137.8644"/><text fill="#0A9EFD" font-family="Arial" font-size="13" lengthAdjust="spacing" textLength="95" x="95.9167" y="118.1608">Request a token</text><text fill="#0A9EFD" font-family="Arial" font-size="13" lengthAdjust="spacing" textLength="165" x="60.9167" y="133.1095">with a uid and channel name</text><polygon fill="#0A9EFD" points="52.3333,162.8132,42.3333,166.8132,52.3333,170.8132,48.3333,166.8132" style="stroke:#0A9EFD;stroke-width:1.0;"/><line style="stroke:#0A9EFD;stroke-width:2.0;stroke-dasharray:2.0,2.0;" x1="46.3333" x2="244.5" y1="166.8132" y2="166.8132"/><text fill="#0A9EFD" font-family="Arial" font-size="13" lengthAdjust="spacing" textLength="162" x="62.4167" y="162.0583">Generate and return a token</text><polygon fill="#0A9EFD" points="415.3333,206.7106,425.3333,210.7106,415.3333,214.7106,419.3333,210.7106" style="stroke:#0A9EFD;stroke-width:1.0;"/><line style="stroke:#0A9EFD;stroke-width:2.0;" x1="41.3333" x2="421.3333" y1="210.7106" y2="210.7106"/><text fill="#0A9EFD" font-family="Arial" font-size="13" lengthAdjust="spacing" textLength="320" x="74.3333" y="191.007">Join the corresponding channel with uid, channel name,</text><text fill="#0A9EFD" font-family="Arial" font-size="13" lengthAdjust="spacing" textLength="57" x="207.8333" y="205.9557">and token</text><polygon fill="#0A9EFD" points="438.3333,235.6593,428.3333,239.6593,438.3333,243.6593,434.3333,239.6593" style="stroke:#0A9EFD;stroke-width:1.0;"/><polygon fill="#0A9EFD" points="564.6667,235.6593,574.6667,239.6593,564.6667,243.6593,568.6667,239.6593" style="stroke:#0A9EFD;stroke-width:1.0;"/><line style="stroke:#0A9EFD;stroke-width:2.0;stroke-dasharray:2.0,2.0;" x1="432.3333" x2="570.6667" y1="239.6593" y2="239.6593"/><text fill="#0A9EFD" font-family="Arial" font-size="13" lengthAdjust="spacing" textLength="91" x="456.5" y="234.9045">Verify the token</text><polygon fill="#0A9EFD" points="52.3333,264.6081,42.3333,268.6081,52.3333,272.6081,48.3333,268.6081" style="stroke:#0A9EFD;stroke-width:1.0;"/><line style="stroke:#0A9EFD;stroke-width:2.0;stroke-dasharray:2.0,2.0;" x1="46.3333" x2="426.3333" y1="268.6081" y2="268.6081"/><text fill="#0A9EFD" font-family="Arial" font-size="13" lengthAdjust="spacing" textLength="183" x="142.8333" y="263.8532">Successfully joined the channel</text><!--SRC=[TT1DIyD040RWUtx5c8EdHZnu2YLGA0WMf3Ib81HakZjjrcvdutvKwwztabJ5Ge-xE-_pPd9ZMDca2N3dFBw6lU4xamusopRk4_99s-PPYpuQPLha2Fauc2yg7-whyMt4ZQLOvO019lDvHgn1KkVeYqiUQl97yjU91hqkj3T76fXwjRXWLaQJWtewkuvOF94FPs0wkm0ctM9oNooMpzSDPLtI0o5pVyJEkzJ2qks90LDiY2MEqJZEPEMYaWykOK7lYK84XDWDhld3n4PEoMX0aLI3p6I1yK1TR5mKVUwHc3n6weSynUJvnpZhqra9JyumI3Cevps5rh4slFj5-ovf6lsh6QsvLmTC7EciPBCILkJDzjI3lu_o9dqbr4af2c6Rh3t1c_II7fe7kVijsJS0]--></g></svg>