<?xml version="1.0" encoding="us-ascii" standalone="no"?><svg xmlns="http://www.w3.org/2000/svg" xmlns:xlink="http://www.w3.org/1999/xlink" contentStyleType="text/css" height="902px" preserveAspectRatio="none" style="width:765px;height:902px;background:#FFFFFF;" version="1.1" viewBox="0 0 765 902" width="765px" zoomAndPan="magnify"><defs><style type="text/css">@import url('https://fonts.googleapis.com/css?family=Roboto:400,100,100italic,300,300italic,400italic,500,500italic,700,700italic,900,900italic');</style></defs><g><rect fill="none" height="900.6719" style="stroke:#0A9EFD;stroke-width:1.0;" width="763.5" x="0" y="0"/><rect fill="#F3F3F3" height="890.6719" style="stroke:#0A9EFD;stroke-width:0.5;" width="97" x="98.5" y="6"/><text fill="#0A9EFD" font-family="sans-serif" font-size="13" font-weight="bold" lengthAdjust="spacing" textLength="74" x="110" y="18.5684">Your game</text><rect fill="#F3F3F3" height="890.6719" style="stroke:#0A9EFD;stroke-width:0.5;" width="81" x="672.5" y="6"/><text fill="#0A9EFD" font-family="sans-serif" font-size="13" font-weight="bold" lengthAdjust="spacing" textLength="41" x="692.5" y="18.5684">Agora</text><rect fill="#FFFFFF" height="233.3945" style="stroke:#0A9EFD;stroke-width:2.0;" width="749.5" x="10" y="333.8828"/><line style="stroke:#0A9EFD;stroke-width:0.5;stroke-dasharray:5.0,5.0;" x1="39" x2="39" y1="86.4883" y2="812.1836"/><line style="stroke:#0A9EFD;stroke-width:0.5;stroke-dasharray:5.0,5.0;" x1="146.5" x2="146.5" y1="86.4883" y2="812.1836"/><line style="stroke:#0A9EFD;stroke-width:0.5;stroke-dasharray:5.0,5.0;" x1="712.5" x2="712.5" y1="86.4883" y2="812.1836"/><text fill="#0A9EFD" font-family="Roboto" font-size="14" font-weight="bold" lengthAdjust="spacing" textLength="32" x="20" y="83.5352">User</text><ellipse cx="39" cy="16" fill="none" rx="8" ry="8" style="stroke:#0A9EFD;stroke-width:3.0;"/><path d="M39,24 L39,51 M26,32 L52,32 M39,51 L26,66 M39,51 L52,66 " fill="none" style="stroke:#0A9EFD;stroke-width:3.0;"/><text fill="#0A9EFD" font-family="Roboto" font-size="14" font-weight="bold" lengthAdjust="spacing" textLength="32" x="20" y="824.7188">User</text><ellipse cx="39" cy="838.6719" fill="none" rx="8" ry="8" style="stroke:#0A9EFD;stroke-width:3.0;"/><path d="M39,846.6719 L39,873.6719 M26,854.6719 L52,854.6719 M39,873.6719 L26,888.6719 M39,873.6719 L52,888.6719 " fill="none" style="stroke:#0A9EFD;stroke-width:3.0;"/><rect fill="#FFFFFF" height="30.4883" rx="2.5" ry="2.5" style="stroke:#0A9EFD;stroke-width:2.0;" width="89" x="102.5" y="55"/><text fill="#0A9EFD" font-family="Roboto" font-size="14" font-weight="bold" lengthAdjust="spacing" textLength="75" x="109.5" y="75.5352">Video SDK</text><rect fill="#FFFFFF" height="30.4883" rx="2.5" ry="2.5" style="stroke:#0A9EFD;stroke-width:2.0;" width="89" x="102.5" y="811.1836"/><text fill="#0A9EFD" font-family="Roboto" font-size="14" font-weight="bold" lengthAdjust="spacing" textLength="75" x="109.5" y="831.7188">Video SDK</text><rect fill="#FFFFFF" height="30.4883" rx="2.5" ry="2.5" style="stroke:#0A9EFD;stroke-width:2.0;" width="73" x="676.5" y="55"/><text fill="#0A9EFD" font-family="Roboto" font-size="14" font-weight="bold" lengthAdjust="spacing" textLength="59" x="683.5" y="75.5352">SD-RTN</text><rect fill="#FFFFFF" height="30.4883" rx="2.5" ry="2.5" style="stroke:#0A9EFD;stroke-width:2.0;" width="73" x="676.5" y="811.1836"/><text fill="#0A9EFD" font-family="Roboto" font-size="14" font-weight="bold" lengthAdjust="spacing" textLength="59" x="683.5" y="831.7188">SD-RTN</text><polygon fill="#0A9EFD" points="135,114.9766,145,118.9766,135,122.9766,139,118.9766" style="stroke:#0A9EFD;stroke-width:1.0;"/><line style="stroke:#0A9EFD;stroke-width:2.0;" x1="39" x2="141" y1="118.9766" y2="118.9766"/><text fill="#0A9EFD" font-family="Roboto" font-size="14" font-weight="bold" lengthAdjust="spacing" textLength="82" x="52" y="114.0234">Open game</text><line style="stroke:#0A9EFD;stroke-width:2.0;" x1="147" x2="189" y1="165.9531" y2="165.9531"/><line style="stroke:#0A9EFD;stroke-width:2.0;" x1="189" x2="189" y1="165.9531" y2="178.9531"/><line style="stroke:#0A9EFD;stroke-width:2.0;" x1="148" x2="189" y1="178.9531" y2="178.9531"/><polygon fill="#0A9EFD" points="158,174.9531,148,178.9531,158,182.9531,154,178.9531" style="stroke:#0A9EFD;stroke-width:1.0;"/><text fill="#0A9EFD" font-family="Roboto" font-size="14" font-weight="bold" lengthAdjust="spacing" textLength="212" x="251" y="144.5117">Create an RtcEngine instance:</text><text fill="#0A9EFD" font-family="Roboto" font-size="14" font-weight="bold" lengthAdjust="spacing" textLength="406" x="159" y="161">RtcEngine = Agora.Rtc.RtcEngine.CreateAgoraRtcEngine()</text><polygon fill="#0A9EFD" points="701,254.9063,711,258.9063,701,262.9063,705,258.9063" style="stroke:#0A9EFD;stroke-width:1.0;"/><line style="stroke:#0A9EFD;stroke-width:2.0;" x1="147" x2="707" y1="258.9063" y2="258.9063"/><text fill="#0A9EFD" font-family="Roboto" font-size="14" font-weight="bold" lengthAdjust="spacing" textLength="111" x="372" y="204.4883">Set the context:</text><text fill="#0A9EFD" font-family="Roboto" font-size="14" font-weight="bold" lengthAdjust="spacing" textLength="478" x="191" y="220.9766">RtcEngineContext context = new RtcEngineContext(_appID, 0, true,</text><text fill="#0A9EFD" font-family="Roboto" font-size="14" font-weight="bold" lengthAdjust="spacing" textLength="483" x="188.5" y="237.4648">CHANNEL_PROFILE_TYPE.CHANNEL_PROFILE_LIVE_BROADCASTING,</text><text fill="#0A9EFD" font-family="Roboto" font-size="14" font-weight="bold" lengthAdjust="spacing" textLength="382" x="239" y="253.9531">AUDIO_SCENARIO_TYPE.AUDIO_SCENARIO_DEFAULT)</text><line style="stroke:#0A9EFD;stroke-width:2.0;" x1="147" x2="189" y1="305.8828" y2="305.8828"/><line style="stroke:#0A9EFD;stroke-width:2.0;" x1="189" x2="189" y1="305.8828" y2="318.8828"/><line style="stroke:#0A9EFD;stroke-width:2.0;" x1="148" x2="189" y1="318.8828" y2="318.8828"/><polygon fill="#0A9EFD" points="158,314.8828,148,318.8828,158,322.8828,154,318.8828" style="stroke:#0A9EFD;stroke-width:1.0;"/><text fill="#0A9EFD" font-family="Roboto" font-size="14" font-weight="bold" lengthAdjust="spacing" textLength="143" x="183" y="284.4414">Initialize RtcEngine:</text><text fill="#0A9EFD" font-family="Roboto" font-size="14" font-weight="bold" lengthAdjust="spacing" textLength="201" x="159" y="300.9297">RtcEngine.Initialize(context)</text><path d="M10,333.8828 L129,333.8828 L129,342.3711 L119,352.3711 L10,352.3711 L10,333.8828 " fill="#EEEEEE" style="stroke:#0A9EFD;stroke-width:1.5;"/><rect fill="none" height="233.3945" style="stroke:#0A9EFD;stroke-width:2.0;" width="749.5" x="10" y="333.8828"/><text fill="#0A9EFD" font-family="Roboto" font-size="14" font-weight="bold" lengthAdjust="spacing" textLength="74" x="25" y="348.418">Video Call</text><polygon fill="#0A9EFD" points="135,370.8594,145,374.8594,135,378.8594,139,374.8594" style="stroke:#0A9EFD;stroke-width:1.0;"/><line style="stroke:#0A9EFD;stroke-width:2.0;" x1="39" x2="141" y1="374.8594" y2="374.8594"/><text fill="#0A9EFD" font-family="Roboto" font-size="14" font-weight="bold" lengthAdjust="spacing" textLength="64" x="61" y="369.9063">Start call</text><line style="stroke:#0A9EFD;stroke-width:2.0;" x1="147" x2="189" y1="421.8359" y2="421.8359"/><line style="stroke:#0A9EFD;stroke-width:2.0;" x1="189" x2="189" y1="421.8359" y2="434.8359"/><line style="stroke:#0A9EFD;stroke-width:2.0;" x1="148" x2="189" y1="434.8359" y2="434.8359"/><polygon fill="#0A9EFD" points="158,430.8359,148,434.8359,158,438.8359,154,434.8359" style="stroke:#0A9EFD;stroke-width:1.0;"/><text fill="#0A9EFD" font-family="Roboto" font-size="14" font-weight="bold" lengthAdjust="spacing" textLength="181" x="154" y="400.3945">Enable the video module:</text><text fill="#0A9EFD" font-family="Roboto" font-size="14" font-weight="bold" lengthAdjust="spacing" textLength="172" x="163.5" y="416.8828">RtcEngine.EnableVideo()</text><polygon fill="#0A9EFD" points="701,477.8125,711,481.8125,701,485.8125,705,481.8125" style="stroke:#0A9EFD;stroke-width:1.0;"/><line style="stroke:#0A9EFD;stroke-width:2.0;" x1="147" x2="707" y1="481.8125" y2="481.8125"/><text fill="#0A9EFD" font-family="Roboto" font-size="14" font-weight="bold" lengthAdjust="spacing" textLength="232" x="311.5" y="460.3711">Set the user role as broadcaster:</text><text fill="#0A9EFD" font-family="Roboto" font-size="14" font-weight="bold" lengthAdjust="spacing" textLength="537" x="164" y="476.8594">RtcEngine.SetClientRole(CLIENT_ROLE_TYPE.CLIENT_ROLE_BROADCASTER)</text><polygon fill="#0A9EFD" points="701,524.7891,711,528.7891,701,532.7891,705,528.7891" style="stroke:#0A9EFD;stroke-width:1.0;"/><line style="stroke:#0A9EFD;stroke-width:2.0;" x1="147" x2="707" y1="528.7891" y2="528.7891"/><text fill="#0A9EFD" font-family="Roboto" font-size="14" font-weight="bold" lengthAdjust="spacing" textLength="62" x="396.5" y="507.3477">Join call:</text><text fill="#0A9EFD" font-family="Roboto" font-size="14" font-weight="bold" lengthAdjust="spacing" textLength="171" x="347" y="523.8359">RtcEngine.JoinChannel()</text><polygon fill="#0A9EFD" points="158,555.2773,148,559.2773,158,563.2773,154,559.2773" style="stroke:#0A9EFD;stroke-width:1.0;"/><polygon fill="#0A9EFD" points="701,555.2773,711,559.2773,701,563.2773,705,559.2773" style="stroke:#0A9EFD;stroke-width:1.0;"/><line style="stroke:#0A9EFD;stroke-width:2.0;" x1="152" x2="707" y1="559.2773" y2="559.2773"/><text fill="#0A9EFD" font-family="Roboto" font-size="14" font-weight="bold" lengthAdjust="spacing" textLength="215" x="322.5" y="554.3242">Receive and send data stream</text><polygon fill="#0A9EFD" points="135,592.7656,145,596.7656,135,600.7656,139,596.7656" style="stroke:#0A9EFD;stroke-width:1.0;"/><line style="stroke:#0A9EFD;stroke-width:2.0;" x1="39" x2="141" y1="596.7656" y2="596.7656"/><text fill="#0A9EFD" font-family="Roboto" font-size="14" font-weight="bold" lengthAdjust="spacing" textLength="70" x="58" y="591.8125">Leave call</text><polygon fill="#0A9EFD" points="701,639.7422,711,643.7422,701,647.7422,705,643.7422" style="stroke:#0A9EFD;stroke-width:1.0;"/><line style="stroke:#0A9EFD;stroke-width:2.0;" x1="147" x2="707" y1="643.7422" y2="643.7422"/><text fill="#0A9EFD" font-family="Roboto" font-size="14" font-weight="bold" lengthAdjust="spacing" textLength="131" x="362" y="622.3008">Leave the channel:</text><text fill="#0A9EFD" font-family="Roboto" font-size="14" font-weight="bold" lengthAdjust="spacing" textLength="182" x="341.5" y="638.7891">RtcEngine.LeaveChannel()</text><line style="stroke:#0A9EFD;stroke-width:2.0;" x1="147" x2="189" y1="690.7188" y2="690.7188"/><line style="stroke:#0A9EFD;stroke-width:2.0;" x1="189" x2="189" y1="690.7188" y2="703.7188"/><line style="stroke:#0A9EFD;stroke-width:2.0;" x1="148" x2="189" y1="703.7188" y2="703.7188"/><polygon fill="#0A9EFD" points="158,699.7188,148,703.7188,158,707.7188,154,703.7188" style="stroke:#0A9EFD;stroke-width:1.0;"/><text fill="#0A9EFD" font-family="Roboto" font-size="14" font-weight="bold" lengthAdjust="spacing" textLength="196" x="154" y="669.2773">Disable the video modules:</text><text fill="#0A9EFD" font-family="Roboto" font-size="14" font-weight="bold" lengthAdjust="spacing" textLength="179" x="167.5" y="685.7656">RtcEngine.DisableVideo()</text><polygon fill="#0A9EFD" points="135,730.207,145,734.207,135,738.207,139,734.207" style="stroke:#0A9EFD;stroke-width:1.0;"/><line style="stroke:#0A9EFD;stroke-width:2.0;" x1="39" x2="141" y1="734.207" y2="734.207"/><text fill="#0A9EFD" font-family="Roboto" font-size="14" font-weight="bold" lengthAdjust="spacing" textLength="84" x="51" y="729.2539">Close game</text><line style="stroke:#0A9EFD;stroke-width:2.0;" x1="147" x2="189" y1="781.1836" y2="781.1836"/><line style="stroke:#0A9EFD;stroke-width:2.0;" x1="189" x2="189" y1="781.1836" y2="794.1836"/><line style="stroke:#0A9EFD;stroke-width:2.0;" x1="148" x2="189" y1="794.1836" y2="794.1836"/><polygon fill="#0A9EFD" points="158,790.1836,148,794.1836,158,798.1836,154,794.1836" style="stroke:#0A9EFD;stroke-width:1.0;"/><text fill="#0A9EFD" font-family="Roboto" font-size="14" font-weight="bold" lengthAdjust="spacing" textLength="179" x="154" y="759.7422">Clean up local resources:</text><text fill="#0A9EFD" font-family="Roboto" font-size="14" font-weight="bold" lengthAdjust="spacing" textLength="142" x="180" y="776.2305">RtcEngine.Dispose()</text><!--SRC=[TLFHZfim47ptLsnvIgGSwdFKLkA0kz8YY20vwQHAo85LpgfZ8zjSJ_tw6WT8e7TlCBipinwlFp5Hywv1e2UfQAL_C-6pxim9eRMH2ho3HkK1rN0e2qAEyWsyPzafED4pUeIqL1bMivOA0zuJQr126VrqX62t8mH50vOqC8FUPCagexjYdmsKv8PY7U7kMw-pXRn5uJo9_PtGK24rTdO1XQbZSM82WGbjgAXn2xzkuQ_Wp7sB-1FgNmHSPG9Nwwj7ieKI3PWNX5eAWszcBXjUmB5eNGJ- -Q-ygcZR9j46Fc_0g0utlKRuFSYoEArsHVwGf76rVzx5_X9CawUukY_o80g3SfzaZpqrE4H9NfLXd0M5_N341HR53y4XtQzdQIM26KOv-ulN2UV7yQyjg-58Qq9EIdOjN2utf9pFBgOqzYwXxk5RhrZG8qSNtAiZdcNJyQNTfSifVv1wPzSFbBHITZsEIjAcfjgWMWZPzf0p5AQmhQimJU9iNnNv5EiDCAKP5tFB7v89Tv25Te-7BrG8vCEGNqPAWJMortu16z3ztZRKKD36RjMvt-Fv3gT8RUyygcI4tOfTN1R-hZuVO5ICc7utPhsG6Fh6e6TJXLngVETfSRJFojuxbtPYKAZjgwy7vRbqQmLwrNy0]--></g></svg>