<?xml version="1.0" encoding="us-ascii" standalone="no"?><svg xmlns="http://www.w3.org/2000/svg" xmlns:xlink="http://www.w3.org/1999/xlink" contentStyleType="text/css" height="809px" preserveAspectRatio="none" style="width:776px;height:809px;background:#FFFFFF;" version="1.1" viewBox="0 0 776 809" width="776px" zoomAndPan="magnify"><defs><style type="text/css">@import url('https://fonts.googleapis.com/css?family=Roboto:400,100,100italic,300,300italic,400italic,500,500italic,700,700italic,900,900italic');</style></defs><g><rect fill="none" height="807.7188" style="stroke:#0A9EFD;stroke-width:1.0;" width="774.5" x="0" y="0"/><rect fill="#F3F3F3" height="797.7188" style="stroke:#0A9EFD;stroke-width:0.5;" width="97" x="85.5" y="6"/><text fill="#0A9EFD" font-family="sans-serif" font-size="13" font-weight="bold" lengthAdjust="spacing" textLength="62" x="103" y="18.5684">Your app</text><rect fill="#F3F3F3" height="797.7188" style="stroke:#0A9EFD;stroke-width:0.5;" width="93" x="671.5" y="6"/><text fill="#0A9EFD" font-family="sans-serif" font-size="13" font-weight="bold" lengthAdjust="spacing" textLength="41" x="697.5" y="18.5684">Agora</text><rect fill="#FFFFFF" height="430.8125" style="stroke:#0A9EFD;stroke-width:2.0;" width="760.5" x="10" y="177.4648"/><line style="stroke:#0A9EFD;stroke-width:0.5;stroke-dasharray:5.0,5.0;" x1="39" x2="39" y1="86.4883" y2="719.2305"/><line style="stroke:#0A9EFD;stroke-width:0.5;stroke-dasharray:5.0,5.0;" x1="133.5" x2="133.5" y1="86.4883" y2="719.2305"/><line style="stroke:#0A9EFD;stroke-width:0.5;stroke-dasharray:5.0,5.0;" x1="717.5" x2="717.5" y1="86.4883" y2="719.2305"/><text fill="#0A9EFD" font-family="Roboto" font-size="14" font-weight="bold" lengthAdjust="spacing" textLength="32" x="20" y="83.5352">User</text><ellipse cx="39" cy="16" fill="none" rx="8" ry="8" style="stroke:#0A9EFD;stroke-width:3.0;"/><path d="M39,24 L39,51 M26,32 L52,32 M39,51 L26,66 M39,51 L52,66 " fill="none" style="stroke:#0A9EFD;stroke-width:3.0;"/><text fill="#0A9EFD" font-family="Roboto" font-size="14" font-weight="bold" lengthAdjust="spacing" textLength="32" x="20" y="731.7656">User</text><ellipse cx="39" cy="745.7188" fill="none" rx="8" ry="8" style="stroke:#0A9EFD;stroke-width:3.0;"/><path d="M39,753.7188 L39,780.7188 M26,761.7188 L52,761.7188 M39,780.7188 L26,795.7188 M39,780.7188 L52,795.7188 " fill="none" style="stroke:#0A9EFD;stroke-width:3.0;"/><rect fill="#FFFFFF" height="30.4883" rx="2.5" ry="2.5" style="stroke:#0A9EFD;stroke-width:2.0;" width="89" x="89.5" y="55"/><text fill="#0A9EFD" font-family="Roboto" font-size="14" font-weight="bold" lengthAdjust="spacing" textLength="75" x="96.5" y="75.5352">Video SDK</text><rect fill="#FFFFFF" height="30.4883" rx="2.5" ry="2.5" style="stroke:#0A9EFD;stroke-width:2.0;" width="89" x="89.5" y="718.2305"/><text fill="#0A9EFD" font-family="Roboto" font-size="14" font-weight="bold" lengthAdjust="spacing" textLength="75" x="96.5" y="738.7656">Video SDK</text><rect fill="#FFFFFF" height="30.4883" rx="2.5" ry="2.5" style="stroke:#0A9EFD;stroke-width:2.0;" width="85" x="675.5" y="55"/><text fill="#0A9EFD" font-family="Roboto" font-size="14" font-weight="bold" lengthAdjust="spacing" textLength="71" x="682.5" y="75.5352">SD-RTN&#8482;</text><rect fill="#FFFFFF" height="30.4883" rx="2.5" ry="2.5" style="stroke:#0A9EFD;stroke-width:2.0;" width="85" x="675.5" y="718.2305"/><text fill="#0A9EFD" font-family="Roboto" font-size="14" font-weight="bold" lengthAdjust="spacing" textLength="71" x="682.5" y="738.7656">SD-RTN&#8482;</text><polygon fill="#0A9EFD" points="122,114.9766,132,118.9766,122,122.9766,126,118.9766" style="stroke:#0A9EFD;stroke-width:1.0;"/><line style="stroke:#0A9EFD;stroke-width:2.0;" x1="39" x2="128" y1="118.9766" y2="118.9766"/><text fill="#0A9EFD" font-family="Roboto" font-size="14" font-weight="bold" lengthAdjust="spacing" textLength="71" x="51" y="114.0234">Open App</text><line style="stroke:#0A9EFD;stroke-width:2.0;" x1="134" x2="176" y1="149.4648" y2="149.4648"/><line style="stroke:#0A9EFD;stroke-width:2.0;" x1="176" x2="176" y1="149.4648" y2="162.4648"/><line style="stroke:#0A9EFD;stroke-width:2.0;" x1="135" x2="176" y1="162.4648" y2="162.4648"/><polygon fill="#0A9EFD" points="145,158.4648,135,162.4648,145,166.4648,141,162.4648" style="stroke:#0A9EFD;stroke-width:1.0;"/><text fill="#0A9EFD" font-family="Roboto" font-size="14" font-weight="bold" lengthAdjust="spacing" textLength="366" x="141" y="144.5117">Setup app to handle local hardware and streaming.</text><path d="M10,177.4648 L87,177.4648 L87,185.9531 L77,195.9531 L10,195.9531 L10,177.4648 " fill="#EEEEEE" style="stroke:#0A9EFD;stroke-width:1.5;"/><rect fill="none" height="430.8125" style="stroke:#0A9EFD;stroke-width:2.0;" width="760.5" x="10" y="177.4648"/><text fill="#0A9EFD" font-family="Roboto" font-size="14" font-weight="bold" lengthAdjust="spacing" textLength="32" x="25" y="192">User</text><polygon fill="#0A9EFD" points="122,214.4414,132,218.4414,122,222.4414,126,218.4414" style="stroke:#0A9EFD;stroke-width:1.0;"/><line style="stroke:#0A9EFD;stroke-width:2.0;" x1="39" x2="128" y1="218.4414" y2="218.4414"/><text fill="#0A9EFD" font-family="Roboto" font-size="14" font-weight="bold" lengthAdjust="spacing" textLength="64" x="54.5" y="213.4883">Start call</text><line style="stroke:#0A9EFD;stroke-width:2.0;" x1="134" x2="176" y1="265.418" y2="265.418"/><line style="stroke:#0A9EFD;stroke-width:2.0;" x1="176" x2="176" y1="265.418" y2="278.418"/><line style="stroke:#0A9EFD;stroke-width:2.0;" x1="135" x2="176" y1="278.418" y2="278.418"/><polygon fill="#0A9EFD" points="145,274.418,135,278.418,145,282.418,141,278.418" style="stroke:#0A9EFD;stroke-width:1.0;"/><text fill="#0A9EFD" font-family="Roboto" font-size="14" font-weight="bold" lengthAdjust="spacing" textLength="167" x="266" y="243.9766">Create the agoraEngine</text><text fill="#0A9EFD" font-family="Roboto" font-size="14" font-weight="bold" lengthAdjust="spacing" textLength="417" x="141" y="260.4648">const agoraEngine = useRTCClient(AgoraRTC.createClient</text><line style="stroke:#0A9EFD;stroke-width:2.0;" x1="134" x2="176" y1="308.9063" y2="308.9063"/><line style="stroke:#0A9EFD;stroke-width:2.0;" x1="176" x2="176" y1="308.9063" y2="321.9063"/><line style="stroke:#0A9EFD;stroke-width:2.0;" x1="135" x2="176" y1="321.9063" y2="321.9063"/><polygon fill="#0A9EFD" points="145,317.9063,135,321.9063,145,325.9063,141,321.9063" style="stroke:#0A9EFD;stroke-width:1.0;"/><text fill="#0A9EFD" font-family="Roboto" font-size="14" font-weight="bold" lengthAdjust="spacing" textLength="327" x="141" y="303.9531">Retrieve authentication token to join channel</text><polygon fill="#0A9EFD" points="706,364.8828,716,368.8828,706,372.8828,710,368.8828" style="stroke:#0A9EFD;stroke-width:1.0;"/><line style="stroke:#0A9EFD;stroke-width:2.0;" x1="134" x2="712" y1="368.8828" y2="368.8828"/><text fill="#0A9EFD" font-family="Roboto" font-size="14" font-weight="bold" lengthAdjust="spacing" textLength="105" x="373.5" y="347.4414">Join a channel:</text><text fill="#0A9EFD" font-family="Roboto" font-size="14" font-weight="bold" lengthAdjust="spacing" textLength="54" x="401.5" y="363.9297">useJoin</text><polygon fill="#0A9EFD" points="145,395.3711,135,399.3711,145,403.3711,141,399.3711" style="stroke:#0A9EFD;stroke-width:1.0;"/><line style="stroke:#0A9EFD;stroke-width:2.0;" x1="139" x2="717" y1="399.3711" y2="399.3711"/><text fill="#0A9EFD" font-family="Roboto" font-size="14" font-weight="bold" lengthAdjust="spacing" textLength="96" x="378" y="394.418">Join accepted</text><line style="stroke:#0A9EFD;stroke-width:2.0;" x1="134" x2="176" y1="462.8359" y2="462.8359"/><line style="stroke:#0A9EFD;stroke-width:2.0;" x1="176" x2="176" y1="462.8359" y2="475.8359"/><line style="stroke:#0A9EFD;stroke-width:2.0;" x1="135" x2="176" y1="475.8359" y2="475.8359"/><polygon fill="#0A9EFD" points="145,471.8359,135,475.8359,145,479.8359,141,475.8359" style="stroke:#0A9EFD;stroke-width:1.0;"/><text fill="#0A9EFD" font-family="Roboto" font-size="14" font-weight="bold" lengthAdjust="spacing" textLength="191" x="330.5" y="424.9063">Create local media tracks :</text><text fill="#0A9EFD" font-family="Roboto" font-size="14" font-weight="bold" lengthAdjust="spacing" textLength="570" x="141" y="441.3945">const { isLoading: isLoadingCam, localCameraTrack } = useLocalCameraTrack();</text><text fill="#0A9EFD" font-family="Roboto" font-size="14" font-weight="bold" lengthAdjust="spacing" textLength="544" x="154" y="457.8828">const { isLoading: isLoadingMic, localMicrophoneTrack } = useLocalMicroph</text><polygon fill="#0A9EFD" points="706,518.8125,716,522.8125,706,526.8125,710,522.8125" style="stroke:#0A9EFD;stroke-width:1.0;"/><line style="stroke:#0A9EFD;stroke-width:2.0;" x1="134" x2="712" y1="522.8125" y2="522.8125"/><text fill="#0A9EFD" font-family="Roboto" font-size="14" font-weight="bold" lengthAdjust="spacing" textLength="283" x="284.5" y="501.3711">Push local media tracks to the channel:</text><text fill="#0A9EFD" font-family="Roboto" font-size="14" font-weight="bold" lengthAdjust="spacing" textLength="396" x="230.5" y="517.8594">usePublish([localMicrophoneTrack, localCameraTrack]);</text><polygon fill="#0A9EFD" points="145,565.7891,135,569.7891,145,573.7891,141,569.7891" style="stroke:#0A9EFD;stroke-width:1.0;"/><line style="stroke:#0A9EFD;stroke-width:2.0;" x1="139" x2="717" y1="569.7891" y2="569.7891"/><text fill="#0A9EFD" font-family="Roboto" font-size="14" font-weight="bold" lengthAdjust="spacing" textLength="287" x="280" y="548.3477">Retrieve streaming from the other user:</text><text fill="#0A9EFD" font-family="Roboto" font-size="14" font-weight="bold" lengthAdjust="spacing" textLength="515" x="176" y="564.8359">&lt;RemoteUser user={remoteUser} playVideo={true} playAudio={true} /&gt;</text><polygon fill="#0A9EFD" points="145,596.2773,135,600.2773,145,604.2773,141,600.2773" style="stroke:#0A9EFD;stroke-width:1.0;"/><polygon fill="#0A9EFD" points="706,596.2773,716,600.2773,706,604.2773,710,600.2773" style="stroke:#0A9EFD;stroke-width:1.0;"/><line style="stroke:#0A9EFD;stroke-width:2.0;" x1="139" x2="712" y1="600.2773" y2="600.2773"/><text fill="#0A9EFD" font-family="Roboto" font-size="14" font-weight="bold" lengthAdjust="spacing" textLength="223" x="314.5" y="595.3242">Receive and send data streams</text><polygon fill="#0A9EFD" points="122,633.7656,132,637.7656,122,641.7656,126,637.7656" style="stroke:#0A9EFD;stroke-width:1.0;"/><line style="stroke:#0A9EFD;stroke-width:2.0;" x1="39" x2="128" y1="637.7656" y2="637.7656"/><text fill="#0A9EFD" font-family="Roboto" font-size="14" font-weight="bold" lengthAdjust="spacing" textLength="70" x="51.5" y="632.8125">Leave call</text><polygon fill="#0A9EFD" points="706,697.2305,716,701.2305,706,705.2305,710,701.2305" style="stroke:#0A9EFD;stroke-width:1.0;"/><line style="stroke:#0A9EFD;stroke-width:2.0;" x1="134" x2="712" y1="701.2305" y2="701.2305"/><text fill="#0A9EFD" font-family="Roboto" font-size="14" font-weight="bold" lengthAdjust="spacing" textLength="128" x="362" y="663.3008">leave the channel:</text><text fill="#0A9EFD" font-family="Roboto" font-size="14" font-weight="bold" lengthAdjust="spacing" textLength="5" x="423.5" y="679.7891">&#160;</text><text fill="#0A9EFD" font-family="Roboto" font-size="14" font-weight="bold" lengthAdjust="spacing" textLength="54" x="401.5" y="696.2773">useJoin</text><!--SRC=[VLD1Rjim4Bpp5LkT7A1nxqeSm71wSEksXkKKA9AWs51RYxL44YILjZ1owqlwjBwaIqbs9CVeHI27d9dTqVALqhAiSmBS68TV_LRfiQghKWYKmJX8RZov1D33JROIui7yXEIBgHsWjOaG5brGKbdK0PBFAYS3sVNxvlvqkHI2T0xCwOZJw77CogxFL-kFVt__wLZp7eizuVmgIgNmoPA6gRM2TmSmer3RM0i40mNgl2GeZSIIDox_WOuROp4V766bz6OiDium8tOrKCy2rmHCB0VwC-O5Wb1q0RtL6wNfJakZVUX3C87QqsezcvMAT1WrhV9sB1k55Xr8hoWuHOyiNBEyva0mAAEvaIt5BtmtIeFafZJrYfgdy2uUuFuelTFHEe9yQzxfm_wQb6G3vQUwQeEgA5S8mQ7SUaZthUr0-ON1d3DBdvSph5wtD5wHmtLamLFR_E887vrT_5_jWvAT6g-SiONHz5AnEnia0ClQ5wVgvzZYlnf6iwmVIkMBqUqfhvVzt9zTz8Bi_QZ35C4tPwh6oF37HG-N0fi1NAweCe7YV3NmPESEm1FO4dyrhsIo2wwc5fZMkJe0RwuQxyjdSqdgiPlY-2vo3DXLukD36KpnWf3l3gUOuoeR-2YOtjY8Vm00]--></g></svg>