<?xml version="1.0" encoding="us-ascii" standalone="no"?><svg xmlns="http://www.w3.org/2000/svg" xmlns:xlink="http://www.w3.org/1999/xlink" contentStyleType="text/css" height="972px" preserveAspectRatio="none" style="width:587px;height:972px;" version="1.1" viewBox="0 0 587 972" width="587px" zoomAndPan="magnify"><defs/><g><rect fill="none" height="970.7617" style="stroke:#0A9EFD;stroke-width:1.0;" width="585" x="0" y="0"/><rect fill="#999999" fill-opacity="0.33333" height="960.7617" style="stroke:#0A9EFD;stroke-width:0.5;" width="90" x="76" y="6"/><text fill="#0A9EFD" font-family="sans-serif" font-size="13" font-weight="bold" lengthAdjust="spacing" textLength="62" x="90" y="18.5684">Your app</text><rect fill="#999999" fill-opacity="0.33333" height="960.7617" style="stroke:#0A9EFD;stroke-width:0.5;" width="80" x="495" y="6"/><text fill="#0A9EFD" font-family="sans-serif" font-size="13" font-weight="bold" lengthAdjust="spacing" textLength="41" x="514.5" y="18.5684">Agora</text><rect fill="#0A9EFD" fill-opacity="0.06667" height="389.2822" style="stroke:#0A9EFD;stroke-width:2.0;" width="571" x="10" y="346.6372"/><line style="stroke:#0A9EFD;stroke-width:0.5;stroke-dasharray:5.0,5.0;" x1="38" x2="38" y1="86.0986" y2="882.6631"/><line style="stroke:#0A9EFD;stroke-width:0.5;stroke-dasharray:5.0,5.0;" x1="121" x2="121" y1="86.0986" y2="882.6631"/><line style="stroke:#0A9EFD;stroke-width:0.5;stroke-dasharray:5.0,5.0;" x1="535" x2="535" y1="86.0986" y2="882.6631"/><text fill="#0A9EFD" font-family="Arial" font-size="14" lengthAdjust="spacing" textLength="30" x="20" y="83.1318">User</text><ellipse cx="38" cy="16" fill="none" rx="8" ry="8" style="stroke:#0A9EFD;stroke-width:3.0;"/><path d="M38,24 L38,51 M25,32 L51,32 M38,51 L25,66 M38,51 L51,66 " fill="none" style="stroke:#0A9EFD;stroke-width:3.0;"/><text fill="#0A9EFD" font-family="Arial" font-size="14" lengthAdjust="spacing" textLength="30" x="20" y="894.7949">User</text><ellipse cx="38" cy="908.7617" fill="none" rx="8" ry="8" style="stroke:#0A9EFD;stroke-width:3.0;"/><path d="M38,916.7617 L38,943.7617 M25,924.7617 L51,924.7617 M38,943.7617 L25,958.7617 M38,943.7617 L51,958.7617 " fill="none" style="stroke:#0A9EFD;stroke-width:3.0;"/><rect fill="none" height="30.0986" rx="2.5" ry="2.5" style="stroke:#0A9EFD;stroke-width:2.0;" width="82" x="80" y="55"/><text fill="#0A9EFD" font-family="Arial" font-size="14" lengthAdjust="spacing" textLength="68" x="87" y="75.1318">Video SDK</text><rect fill="none" height="30.0986" rx="2.5" ry="2.5" style="stroke:#0A9EFD;stroke-width:2.0;" width="82" x="80" y="881.6631"/><text fill="#0A9EFD" font-family="Arial" font-size="14" lengthAdjust="spacing" textLength="68" x="87" y="901.7949">Video SDK</text><rect fill="none" height="30.0986" rx="2.5" ry="2.5" style="stroke:#0A9EFD;stroke-width:2.0;" width="72" x="499" y="55"/><text fill="#0A9EFD" font-family="Arial" font-size="14" lengthAdjust="spacing" textLength="58" x="506" y="75.1318">SDRTN&#174;</text><rect fill="none" height="30.0986" rx="2.5" ry="2.5" style="stroke:#0A9EFD;stroke-width:2.0;" width="72" x="499" y="881.6631"/><text fill="#0A9EFD" font-family="Arial" font-size="14" lengthAdjust="spacing" textLength="58" x="506" y="901.7949">SDRTN&#174;</text><polygon fill="#0A9EFD" points="109,113.0474,119,117.0474,109,121.0474,113,117.0474" style="stroke:#0A9EFD;stroke-width:1.0;"/><line style="stroke:#0A9EFD;stroke-width:2.0;" x1="38" x2="115" y1="117.0474" y2="117.0474"/><text fill="#0A9EFD" font-family="Arial" font-size="13" lengthAdjust="spacing" textLength="58" x="50.5" y="112.2925">Open App</text><line style="stroke:#0A9EFD;stroke-width:2.0;" x1="121" x2="163" y1="160.9448" y2="160.9448"/><line style="stroke:#0A9EFD;stroke-width:2.0;" x1="163" x2="163" y1="160.9448" y2="173.9448"/><line style="stroke:#0A9EFD;stroke-width:2.0;" x1="122" x2="163" y1="173.9448" y2="173.9448"/><polygon fill="#0A9EFD" points="132,169.9448,122,173.9448,132,177.9448,128,173.9448" style="stroke:#0A9EFD;stroke-width:1.0;"/><text fill="#0A9EFD" font-family="Arial" font-size="13" lengthAdjust="spacing" textLength="260" x="147" y="141.2412">Create an instance of the Video SDK engine:</text><text fill="#0A9EFD" font-family="Arial" font-size="13" lengthAdjust="spacing" textLength="294" x="132" y="156.1899">agoraEngine = agoraEngine.createAgoraRtcEngine</text><line style="stroke:#0A9EFD;stroke-width:2.0;" x1="121" x2="163" y1="217.8423" y2="217.8423"/><line style="stroke:#0A9EFD;stroke-width:2.0;" x1="163" x2="163" y1="217.8423" y2="230.8423"/><line style="stroke:#0A9EFD;stroke-width:2.0;" x1="122" x2="163" y1="230.8423" y2="230.8423"/><polygon fill="#0A9EFD" points="132,226.8423,122,230.8423,132,234.8423,128,230.8423" style="stroke:#0A9EFD;stroke-width:1.0;"/><text fill="#0A9EFD" font-family="Arial" font-size="13" lengthAdjust="spacing" textLength="174" x="128" y="198.1387">Initialize the created instance:</text><text fill="#0A9EFD" font-family="Arial" font-size="13" lengthAdjust="spacing" textLength="123" x="157.5" y="213.0874">agoraEngine.initialize</text><polygon fill="#0A9EFD" points="523,270.7397,533,274.7397,523,278.7397,527,274.7397" style="stroke:#0A9EFD;stroke-width:1.0;"/><line style="stroke:#0A9EFD;stroke-width:2.0;" x1="121" x2="529" y1="274.7397" y2="274.7397"/><text fill="#0A9EFD" font-family="Arial" font-size="13" lengthAdjust="spacing" textLength="118" x="269" y="255.0361">Set the role as host:</text><text fill="#0A9EFD" font-family="Arial" font-size="13" lengthAdjust="spacing" textLength="382" x="141" y="269.9849">agoraEngine.setClientRole(ClientRoleType.ClientRoleBroadcaster)</text><line style="stroke:#0A9EFD;stroke-width:2.0;" x1="121" x2="163" y1="318.6372" y2="318.6372"/><line style="stroke:#0A9EFD;stroke-width:2.0;" x1="163" x2="163" y1="318.6372" y2="331.6372"/><line style="stroke:#0A9EFD;stroke-width:2.0;" x1="122" x2="163" y1="331.6372" y2="331.6372"/><polygon fill="#0A9EFD" points="132,327.6372,122,331.6372,132,335.6372,128,331.6372" style="stroke:#0A9EFD;stroke-width:1.0;"/><text fill="#0A9EFD" font-family="Arial" font-size="13" lengthAdjust="spacing" textLength="169" x="142" y="298.9336">Setup the callback functions:</text><text fill="#0A9EFD" font-family="Arial" font-size="13" lengthAdjust="spacing" textLength="197" x="132" y="313.8823">agoraEngine.registerEventHandler</text><path d="M10,346.6372 L82,346.6372 L82,353.5859 L72,363.5859 L10,363.5859 L10,346.6372 " fill="#EEEEEE" style="stroke:#0A9EFD;stroke-width:1.5;"/><rect fill="none" height="389.2822" style="stroke:#0A9EFD;stroke-width:2.0;" width="571" x="10" y="346.6372"/><text fill="#000000" font-family="Arial" font-size="13" lengthAdjust="spacing" textLength="27" x="25" y="359.8311">User</text><polygon fill="#0A9EFD" points="109,380.5347,119,384.5347,109,388.5347,113,384.5347" style="stroke:#0A9EFD;stroke-width:1.0;"/><line style="stroke:#0A9EFD;stroke-width:2.0;" x1="38" x2="115" y1="384.5347" y2="384.5347"/><text fill="#0A9EFD" font-family="Arial" font-size="13" lengthAdjust="spacing" textLength="52" x="53.5" y="379.7798">Start call</text><line style="stroke:#0A9EFD;stroke-width:2.0;" x1="121" x2="163" y1="413.4834" y2="413.4834"/><line style="stroke:#0A9EFD;stroke-width:2.0;" x1="163" x2="163" y1="413.4834" y2="426.4834"/><line style="stroke:#0A9EFD;stroke-width:2.0;" x1="122" x2="163" y1="426.4834" y2="426.4834"/><polygon fill="#0A9EFD" points="132,422.4834,122,426.4834,132,430.4834,128,426.4834" style="stroke:#0A9EFD;stroke-width:1.0;"/><text fill="#0A9EFD" font-family="Arial" font-size="13" lengthAdjust="spacing" textLength="257" x="128" y="408.7285">Retrieve authentication token to join channel</text><line style="stroke:#0A9EFD;stroke-width:2.0;" x1="121" x2="163" y1="455.4321" y2="455.4321"/><line style="stroke:#0A9EFD;stroke-width:2.0;" x1="163" x2="163" y1="455.4321" y2="468.4321"/><line style="stroke:#0A9EFD;stroke-width:2.0;" x1="122" x2="163" y1="468.4321" y2="468.4321"/><polygon fill="#0A9EFD" points="132,464.4321,122,468.4321,132,472.4321,128,468.4321" style="stroke:#0A9EFD;stroke-width:1.0;"/><text fill="#0A9EFD" font-family="Arial" font-size="13" lengthAdjust="spacing" textLength="280" x="128" y="450.6772">Setup local video: agoraEngine.setupLocalVideo</text><line style="stroke:#0A9EFD;stroke-width:2.0;" x1="121" x2="163" y1="512.3296" y2="512.3296"/><line style="stroke:#0A9EFD;stroke-width:2.0;" x1="163" x2="163" y1="512.3296" y2="525.3296"/><line style="stroke:#0A9EFD;stroke-width:2.0;" x1="122" x2="163" y1="525.3296" y2="525.3296"/><polygon fill="#0A9EFD" points="132,521.3296,122,525.3296,132,529.3296,128,525.3296" style="stroke:#0A9EFD;stroke-width:1.0;"/><text fill="#0A9EFD" font-family="Arial" font-size="13" lengthAdjust="spacing" textLength="183" x="128" y="492.626">Enable the local video capturer:</text><text fill="#0A9EFD" font-family="Arial" font-size="13" lengthAdjust="spacing" textLength="147" x="150" y="507.5747">agoraEngine.enableVideo</text><line style="stroke:#0A9EFD;stroke-width:2.0;" x1="121" x2="163" y1="569.2271" y2="569.2271"/><line style="stroke:#0A9EFD;stroke-width:2.0;" x1="163" x2="163" y1="569.2271" y2="582.2271"/><line style="stroke:#0A9EFD;stroke-width:2.0;" x1="122" x2="163" y1="582.2271" y2="582.2271"/><polygon fill="#0A9EFD" points="132,578.2271,122,582.2271,132,586.2271,128,582.2271" style="stroke:#0A9EFD;stroke-width:1.0;"/><text fill="#0A9EFD" font-family="Arial" font-size="13" lengthAdjust="spacing" textLength="115" x="148.5" y="549.5234">Start local preview :</text><text fill="#0A9EFD" font-family="Arial" font-size="13" lengthAdjust="spacing" textLength="148" x="136" y="564.4722">agoraEngine.startPreview</text><polygon fill="#0A9EFD" points="523,622.1245,533,626.1245,523,630.1245,527,626.1245" style="stroke:#0A9EFD;stroke-width:1.0;"/><line style="stroke:#0A9EFD;stroke-width:2.0;" x1="121" x2="529" y1="626.1245" y2="626.1245"/><text fill="#0A9EFD" font-family="Arial" font-size="13" lengthAdjust="spacing" textLength="88" x="284" y="606.4209">Join a channel:</text><text fill="#0A9EFD" font-family="Arial" font-size="13" lengthAdjust="spacing" textLength="143" x="258.5" y="621.3696">agoraEngine.joinChannel</text><polygon fill="#0A9EFD" points="132,651.0732,122,655.0732,132,659.0732,128,655.0732" style="stroke:#0A9EFD;stroke-width:1.0;"/><line style="stroke:#0A9EFD;stroke-width:2.0;" x1="126" x2="534" y1="655.0732" y2="655.0732"/><text fill="#0A9EFD" font-family="Arial" font-size="13" lengthAdjust="spacing" textLength="81" x="287.5" y="650.3184">Join accepted</text><polygon fill="#0A9EFD" points="523,694.9707,533,698.9707,523,702.9707,527,698.9707" style="stroke:#0A9EFD;stroke-width:1.0;"/><line style="stroke:#0A9EFD;stroke-width:2.0;" x1="121" x2="529" y1="698.9707" y2="698.9707"/><text fill="#0A9EFD" font-family="Arial" font-size="13" lengthAdjust="spacing" textLength="227" x="212.5" y="679.2671">Retrieve streaming from the other user:</text><text fill="#0A9EFD" font-family="Arial" font-size="13" lengthAdjust="spacing" textLength="186" x="237" y="694.2158">agoraEngine.setupRemoteVideo</text><polygon fill="#0A9EFD" points="132,723.9194,122,727.9194,132,731.9194,128,727.9194" style="stroke:#0A9EFD;stroke-width:1.0;"/><polygon fill="#0A9EFD" points="523,723.9194,533,727.9194,523,731.9194,527,727.9194" style="stroke:#0A9EFD;stroke-width:1.0;"/><line style="stroke:#0A9EFD;stroke-width:2.0;" x1="126" x2="529" y1="727.9194" y2="727.9194"/><text fill="#0A9EFD" font-family="Arial" font-size="13" lengthAdjust="spacing" textLength="184" x="236" y="723.1646">Receive and send data streams</text><polygon fill="#0A9EFD" points="109,759.8682,119,763.8682,109,767.8682,113,763.8682" style="stroke:#0A9EFD;stroke-width:1.0;"/><line style="stroke:#0A9EFD;stroke-width:2.0;" x1="38" x2="115" y1="763.8682" y2="763.8682"/><text fill="#0A9EFD" font-family="Arial" font-size="13" lengthAdjust="spacing" textLength="59" x="50" y="759.1133">Leave call</text><line style="stroke:#0A9EFD;stroke-width:2.0;" x1="121" x2="163" y1="807.7656" y2="807.7656"/><line style="stroke:#0A9EFD;stroke-width:2.0;" x1="163" x2="163" y1="807.7656" y2="820.7656"/><line style="stroke:#0A9EFD;stroke-width:2.0;" x1="122" x2="163" y1="820.7656" y2="820.7656"/><polygon fill="#0A9EFD" points="132,816.7656,122,820.7656,132,824.7656,128,820.7656" style="stroke:#0A9EFD;stroke-width:1.0;"/><text fill="#0A9EFD" font-family="Arial" font-size="13" lengthAdjust="spacing" textLength="132" x="128" y="788.062">Stop the local preview:</text><text fill="#0A9EFD" font-family="Arial" font-size="13" lengthAdjust="spacing" textLength="71" x="162.5" y="803.0107">stopPreview</text><polygon fill="#0A9EFD" points="523,860.6631,533,864.6631,523,868.6631,527,864.6631" style="stroke:#0A9EFD;stroke-width:1.0;"/><line style="stroke:#0A9EFD;stroke-width:2.0;" x1="121" x2="529" y1="864.6631" y2="864.6631"/><text fill="#0A9EFD" font-family="Arial" font-size="13" lengthAdjust="spacing" textLength="106" x="275" y="844.9595">leave the channel:</text><text fill="#0A9EFD" font-family="Arial" font-size="13" lengthAdjust="spacing" textLength="154" x="253" y="859.9082">agoraEngine.leaveChannel</text><!--SRC=[RLDTZjem47xtAQOyjG_B0Q9s9SeYbNRLeh1RgT9ArU0CmSMCBTj9VmxLG_HajHq82V0InVRCzpEV_Kgnr4r5WBLn-Dtl5KzLSz12e0p6mUJPavi0UdXUbq9ip2-OV3ED0xHs8eH55vHK5Zd0vAkgoC3wuLEkdwrMGX1N47kEZRF4STcrVYYVFl_xU-nP3deY8zpT9w02lbXYc5ahughVd3l24AKpAFO1MHAOBOGTGIy5Y6l5LBnmvt2Hb_1kk9hAZ9FLbK5scoEY9QkWKAi_bD6x-gfdBM0CFrLz_HbcMS2QGkvtHbEokpC-96MZNazXhXLnA6FLw_FlqszBq_FolJDOIVI1t9kHraZIs4ucQhr1kOTjmp8em_vAgADQ9OX56s4_85UQd12rCn4Y9J_AO1rYRXar4TxTvysIWbFKHZzDvEIOAoOg26PFwGi_Z6AGEsGcVKEeDX4GsfHNSJc7nZwcqnpce1KAM31kT1V6021giw5nvAvyKgw_0THvwZ2ierRHJxYE91MjkjDHe1-JDpovkxXaq-HytXjVdacxDYd9nbiq0kodwKEyOmV5DMoTEMIZ9duSDFw6lJohaWucz1wNyFOqw98agPHGV5W-lQuA0nuPV7fkevGV2LlgKnw4R-nWtiTPPIK-7jsQZiv8-IRU7b0kE4teFm00]--></g></svg>