<?xml version="1.0" encoding="us-ascii" standalone="no"?><svg xmlns="http://www.w3.org/2000/svg" xmlns:xlink="http://www.w3.org/1999/xlink" contentStyleType="text/css" height="760px" preserveAspectRatio="none" style="width:655px;height:760px;" version="1.1" viewBox="0 0 655 760" width="655px" zoomAndPan="magnify"><defs/><g><rect fill="none" height="758.1206" style="stroke:#0A9EFD;stroke-width:1.0;" width="653" x="0" y="0"/><rect fill="#999999" fill-opacity="0.33333" height="748.1206" style="stroke:#0A9EFD;stroke-width:0.5;" width="90" x="76" y="6"/><text fill="#0A9EFD" font-family="sans-serif" font-size="13" font-weight="bold" lengthAdjust="spacing" textLength="62" x="90" y="18.5684">Your app</text><rect fill="#999999" fill-opacity="0.33333" height="748.1206" style="stroke:#0A9EFD;stroke-width:0.5;" width="80" x="563" y="6"/><text fill="#0A9EFD" font-family="sans-serif" font-size="13" font-weight="bold" lengthAdjust="spacing" textLength="41" x="582.5" y="18.5684">Agora</text><rect fill="#0A9EFD" fill-opacity="0.06667" height="406.1797" style="stroke:#0A9EFD;stroke-width:2.0;" width="639" x="10" y="173.9961"/><line style="stroke:#0A9EFD;stroke-width:0.5;stroke-dasharray:5.0,5.0;" x1="38" x2="38" y1="86.0986" y2="670.022"/><line style="stroke:#0A9EFD;stroke-width:0.5;stroke-dasharray:5.0,5.0;" x1="121" x2="121" y1="86.0986" y2="670.022"/><line style="stroke:#0A9EFD;stroke-width:0.5;stroke-dasharray:5.0,5.0;" x1="603" x2="603" y1="86.0986" y2="670.022"/><text fill="#0A9EFD" font-family="Arial" font-size="14" lengthAdjust="spacing" textLength="30" x="20" y="83.1318">User</text><ellipse cx="38" cy="16" fill="none" rx="8" ry="8" style="stroke:#0A9EFD;stroke-width:3.0;"/><path d="M38,24 L38,51 M25,32 L51,32 M38,51 L25,66 M38,51 L51,66 " fill="none" style="stroke:#0A9EFD;stroke-width:3.0;"/><text fill="#0A9EFD" font-family="Arial" font-size="14" lengthAdjust="spacing" textLength="30" x="20" y="682.1538">User</text><ellipse cx="38" cy="696.1206" fill="none" rx="8" ry="8" style="stroke:#0A9EFD;stroke-width:3.0;"/><path d="M38,704.1206 L38,731.1206 M25,712.1206 L51,712.1206 M38,731.1206 L25,746.1206 M38,731.1206 L51,746.1206 " fill="none" style="stroke:#0A9EFD;stroke-width:3.0;"/><rect fill="none" height="30.0986" rx="2.5" ry="2.5" style="stroke:#0A9EFD;stroke-width:2.0;" width="82" x="80" y="55"/><text fill="#0A9EFD" font-family="Arial" font-size="14" lengthAdjust="spacing" textLength="68" x="87" y="75.1318">Video SDK</text><rect fill="none" height="30.0986" rx="2.5" ry="2.5" style="stroke:#0A9EFD;stroke-width:2.0;" width="82" x="80" y="669.022"/><text fill="#0A9EFD" font-family="Arial" font-size="14" lengthAdjust="spacing" textLength="68" x="87" y="689.1538">Video SDK</text><rect fill="none" height="30.0986" rx="2.5" ry="2.5" style="stroke:#0A9EFD;stroke-width:2.0;" width="72" x="567" y="55"/><text fill="#0A9EFD" font-family="Arial" font-size="14" lengthAdjust="spacing" textLength="58" x="574" y="75.1318">SDRTN&#174;</text><rect fill="none" height="30.0986" rx="2.5" ry="2.5" style="stroke:#0A9EFD;stroke-width:2.0;" width="72" x="567" y="669.022"/><text fill="#0A9EFD" font-family="Arial" font-size="14" lengthAdjust="spacing" textLength="58" x="574" y="689.1538">SDRTN&#174;</text><polygon fill="#0A9EFD" points="109,113.0474,119,117.0474,109,121.0474,113,117.0474" style="stroke:#0A9EFD;stroke-width:1.0;"/><line style="stroke:#0A9EFD;stroke-width:2.0;" x1="38" x2="115" y1="117.0474" y2="117.0474"/><text fill="#0A9EFD" font-family="Arial" font-size="13" lengthAdjust="spacing" textLength="58" x="50.5" y="112.2925">Open App</text><line style="stroke:#0A9EFD;stroke-width:2.0;" x1="121" x2="163" y1="145.9961" y2="145.9961"/><line style="stroke:#0A9EFD;stroke-width:2.0;" x1="163" x2="163" y1="145.9961" y2="158.9961"/><line style="stroke:#0A9EFD;stroke-width:2.0;" x1="122" x2="163" y1="158.9961" y2="158.9961"/><polygon fill="#0A9EFD" points="132,154.9961,122,158.9961,132,162.9961,128,158.9961" style="stroke:#0A9EFD;stroke-width:1.0;"/><text fill="#0A9EFD" font-family="Arial" font-size="13" lengthAdjust="spacing" textLength="293" x="128" y="141.2412">Setup app to handle local hardware and streaming.</text><path d="M10,173.9961 L82,173.9961 L82,180.9448 L72,190.9448 L10,190.9448 L10,173.9961 " fill="#EEEEEE" style="stroke:#0A9EFD;stroke-width:1.5;"/><rect fill="none" height="406.1797" style="stroke:#0A9EFD;stroke-width:2.0;" width="639" x="10" y="173.9961"/><text fill="#000000" font-family="Arial" font-size="13" lengthAdjust="spacing" textLength="27" x="25" y="187.1899">User</text><polygon fill="#0A9EFD" points="109,207.8936,119,211.8936,109,215.8936,113,211.8936" style="stroke:#0A9EFD;stroke-width:1.0;"/><line style="stroke:#0A9EFD;stroke-width:2.0;" x1="38" x2="115" y1="211.8936" y2="211.8936"/><text fill="#0A9EFD" font-family="Arial" font-size="13" lengthAdjust="spacing" textLength="52" x="53.5" y="207.1387">Start call</text><line style="stroke:#0A9EFD;stroke-width:2.0;" x1="121" x2="163" y1="255.791" y2="255.791"/><line style="stroke:#0A9EFD;stroke-width:2.0;" x1="163" x2="163" y1="255.791" y2="268.791"/><line style="stroke:#0A9EFD;stroke-width:2.0;" x1="122" x2="163" y1="268.791" y2="268.791"/><polygon fill="#0A9EFD" points="132,264.791,122,268.791,132,272.791,128,268.791" style="stroke:#0A9EFD;stroke-width:1.0;"/><text fill="#0A9EFD" font-family="Arial" font-size="13" lengthAdjust="spacing" textLength="136" x="232.5" y="236.0874">Create the agoraEngine</text><text fill="#0A9EFD" font-family="Arial" font-size="13" lengthAdjust="spacing" textLength="345" x="128" y="251.0361">const agoraEngine = useRTCClient(AgoraRTC.createClient)</text><line style="stroke:#0A9EFD;stroke-width:2.0;" x1="121" x2="163" y1="297.7397" y2="297.7397"/><line style="stroke:#0A9EFD;stroke-width:2.0;" x1="163" x2="163" y1="297.7397" y2="310.7397"/><line style="stroke:#0A9EFD;stroke-width:2.0;" x1="122" x2="163" y1="310.7397" y2="310.7397"/><polygon fill="#0A9EFD" points="132,306.7397,122,310.7397,132,314.7397,128,310.7397" style="stroke:#0A9EFD;stroke-width:1.0;"/><text fill="#0A9EFD" font-family="Arial" font-size="13" lengthAdjust="spacing" textLength="257" x="128" y="292.9849">Retrieve authentication token to join channel</text><polygon fill="#0A9EFD" points="591,350.6372,601,354.6372,591,358.6372,595,354.6372" style="stroke:#0A9EFD;stroke-width:1.0;"/><line style="stroke:#0A9EFD;stroke-width:2.0;" x1="121" x2="597" y1="354.6372" y2="354.6372"/><text fill="#0A9EFD" font-family="Arial" font-size="13" lengthAdjust="spacing" textLength="88" x="318" y="334.9336">Join a channel:</text><text fill="#0A9EFD" font-family="Arial" font-size="13" lengthAdjust="spacing" textLength="45" x="341.5" y="349.8823">useJoin</text><polygon fill="#0A9EFD" points="132,379.5859,122,383.5859,132,387.5859,128,383.5859" style="stroke:#0A9EFD;stroke-width:1.0;"/><line style="stroke:#0A9EFD;stroke-width:2.0;" x1="126" x2="602" y1="383.5859" y2="383.5859"/><text fill="#0A9EFD" font-family="Arial" font-size="13" lengthAdjust="spacing" textLength="81" x="321.5" y="378.8311">Join accepted</text><line style="stroke:#0A9EFD;stroke-width:2.0;" x1="121" x2="163" y1="442.4321" y2="442.4321"/><line style="stroke:#0A9EFD;stroke-width:2.0;" x1="163" x2="163" y1="442.4321" y2="455.4321"/><line style="stroke:#0A9EFD;stroke-width:2.0;" x1="122" x2="163" y1="455.4321" y2="455.4321"/><polygon fill="#0A9EFD" points="132,451.4321,122,455.4321,132,459.4321,128,455.4321" style="stroke:#0A9EFD;stroke-width:1.0;"/><text fill="#0A9EFD" font-family="Arial" font-size="13" lengthAdjust="spacing" textLength="156" x="284" y="407.7798">Create local media tracks :</text><text fill="#0A9EFD" font-family="Arial" font-size="13" lengthAdjust="spacing" textLength="468" x="128" y="422.7285">const { isLoading: isLoadingCam, localCameraTrack } = useLocalCameraTrack();</text><text fill="#0A9EFD" font-family="Arial" font-size="13" lengthAdjust="spacing" textLength="440" x="142" y="437.6772">const { isLoading: isLoadingMic, localMicrophoneTrack } = useLocalMicroph</text><polygon fill="#0A9EFD" points="591,495.3296,601,499.3296,591,503.3296,595,499.3296" style="stroke:#0A9EFD;stroke-width:1.0;"/><line style="stroke:#0A9EFD;stroke-width:2.0;" x1="121" x2="597" y1="499.3296" y2="499.3296"/><text fill="#0A9EFD" font-family="Arial" font-size="13" lengthAdjust="spacing" textLength="230" x="247" y="479.626">Push local media tracks to the channel:</text><text fill="#0A9EFD" font-family="Arial" font-size="13" lengthAdjust="spacing" textLength="324" x="202" y="494.5747">usePublish([localMicrophoneTrack, localCameraTrack]);</text><polygon fill="#0A9EFD" points="132,539.2271,122,543.2271,132,547.2271,128,543.2271" style="stroke:#0A9EFD;stroke-width:1.0;"/><line style="stroke:#0A9EFD;stroke-width:2.0;" x1="126" x2="602" y1="543.2271" y2="543.2271"/><text fill="#0A9EFD" font-family="Arial" font-size="13" lengthAdjust="spacing" textLength="227" x="246.5" y="523.5234">Retrieve streaming from the other user:</text><text fill="#0A9EFD" font-family="Arial" font-size="13" lengthAdjust="spacing" textLength="406" x="165" y="538.4722">&lt;RemoteUser user={remoteUser} playVideo={true} playAudio={true} /&gt;</text><polygon fill="#0A9EFD" points="132,568.1758,122,572.1758,132,576.1758,128,572.1758" style="stroke:#0A9EFD;stroke-width:1.0;"/><polygon fill="#0A9EFD" points="591,568.1758,601,572.1758,591,576.1758,595,572.1758" style="stroke:#0A9EFD;stroke-width:1.0;"/><line style="stroke:#0A9EFD;stroke-width:2.0;" x1="126" x2="597" y1="572.1758" y2="572.1758"/><text fill="#0A9EFD" font-family="Arial" font-size="13" lengthAdjust="spacing" textLength="184" x="270" y="567.4209">Receive and send data streams</text><polygon fill="#0A9EFD" points="109,604.1245,119,608.1245,109,612.1245,113,608.1245" style="stroke:#0A9EFD;stroke-width:1.0;"/><line style="stroke:#0A9EFD;stroke-width:2.0;" x1="38" x2="115" y1="608.1245" y2="608.1245"/><text fill="#0A9EFD" font-family="Arial" font-size="13" lengthAdjust="spacing" textLength="59" x="50" y="603.3696">Leave call</text><polygon fill="#0A9EFD" points="591,648.022,601,652.022,591,656.022,595,652.022" style="stroke:#0A9EFD;stroke-width:1.0;"/><line style="stroke:#0A9EFD;stroke-width:2.0;" x1="121" x2="597" y1="652.022" y2="652.022"/><text fill="#0A9EFD" font-family="Arial" font-size="13" lengthAdjust="spacing" textLength="110" x="307" y="632.3184">Leave the channel:</text><text fill="#0A9EFD" font-family="Arial" font-size="13" lengthAdjust="spacing" textLength="45" x="341.5" y="647.2671">useJoin</text><!--SRC=[VLFRZjCm47tFLmnvQYKexzdjIbMNXqA1AkaY8HQXMMTeJ1FRycK1LVjBV0HVnZX9BzbMl4JsiSyvSoRZ5rA9EfG4kD4MlxcjL1CPcZf9K7Xj8RrpP5D01tT5dYGF-XUadtMmWCQaYK7hfP06bOVqaon9Gt7xhhq-MwqIKYKmewVDeiCpJd6Rhp_y_TCp5aS6ky6hcwYImKT32cR69BmxW0NvO68Lu3LKgCgQeDO2QzxOyYTQZiHYpbl2HghD94asLZCb1Xh85vuh0cRM0uCv4ps1h_hUl54RgUXU2QsSFuLW2i5HlfxFQqdAZzgSl9s8Lg53nmFjdBoLzCZAWVKLzmEzr8gZR2b-uOUM2WJ7KdHIrIA3j_40zqVPlOhU4UHRYruVzjU48EEfl1IhQrL3fKJm5iNMGRRFjWFfbXfBxbfsNCwnUTdHU4KMrv45JrtwvJDyDBxwlzfxANerNbbjAgteNB4_6tG0Li5Lb-hdjiMVDMpDAZpKqbMZBvUyplDy7L-TDFBaHntc2BvRtRH6cZysUjWCs0pWEgT6Uue3riBJdJq0Js1g_Dq-aUdEsq0TC0kbF02lRrhlwwEv8FdOpt5y6ILwx2jnyQaCdycIa2yFvtYnXyyxqmxDFm00]--></g></svg>