<?xml version="1.0" encoding="us-ascii" standalone="no"?><svg xmlns="http://www.w3.org/2000/svg" xmlns:xlink="http://www.w3.org/1999/xlink" contentStyleType="text/css" height="946px" preserveAspectRatio="none" style="width:443px;height:946px;" version="1.1" viewBox="0 0 443 946" width="443px" zoomAndPan="magnify"><defs/><g><rect fill="none" height="944.7617" style="stroke:#0A9EFD;stroke-width:1.0;" width="441" x="0" y="0"/><rect fill="#999999" fill-opacity="0.33333" height="934.7617" style="stroke:#0A9EFD;stroke-width:0.5;" width="90" x="76" y="6"/><text fill="#0A9EFD" font-family="sans-serif" font-size="13" font-weight="bold" lengthAdjust="spacing" textLength="62" x="90" y="18.5684">Your app</text><rect fill="#999999" fill-opacity="0.33333" height="934.7617" style="stroke:#0A9EFD;stroke-width:0.5;" width="80" x="351" y="6"/><text fill="#0A9EFD" font-family="sans-serif" font-size="13" font-weight="bold" lengthAdjust="spacing" textLength="41" x="370.5" y="18.5684">Agora</text><rect fill="#0A9EFD" fill-opacity="0.06667" height="391.231" style="stroke:#0A9EFD;stroke-width:2.0;" width="427" x="10" y="346.6372"/><line style="stroke:#0A9EFD;stroke-width:0.5;stroke-dasharray:5.0,5.0;" x1="38" x2="38" y1="86.0986" y2="856.6631"/><line style="stroke:#0A9EFD;stroke-width:0.5;stroke-dasharray:5.0,5.0;" x1="121" x2="121" y1="86.0986" y2="856.6631"/><line style="stroke:#0A9EFD;stroke-width:0.5;stroke-dasharray:5.0,5.0;" x1="391" x2="391" y1="86.0986" y2="856.6631"/><text fill="#0A9EFD" font-family="Arial" font-size="14" lengthAdjust="spacing" textLength="30" x="20" y="83.1318">User</text><ellipse cx="38" cy="16" fill="none" rx="8" ry="8" style="stroke:#0A9EFD;stroke-width:3.0;"/><path d="M38,24 L38,51 M25,32 L51,32 M38,51 L25,66 M38,51 L51,66 " fill="none" style="stroke:#0A9EFD;stroke-width:3.0;"/><text fill="#0A9EFD" font-family="Arial" font-size="14" lengthAdjust="spacing" textLength="30" x="20" y="868.7949">User</text><ellipse cx="38" cy="882.7617" fill="none" rx="8" ry="8" style="stroke:#0A9EFD;stroke-width:3.0;"/><path d="M38,890.7617 L38,917.7617 M25,898.7617 L51,898.7617 M38,917.7617 L25,932.7617 M38,917.7617 L51,932.7617 " fill="none" style="stroke:#0A9EFD;stroke-width:3.0;"/><rect fill="none" height="30.0986" rx="2.5" ry="2.5" style="stroke:#0A9EFD;stroke-width:2.0;" width="82" x="80" y="55"/><text fill="#0A9EFD" font-family="Arial" font-size="14" lengthAdjust="spacing" textLength="68" x="87" y="75.1318">Video SDK</text><rect fill="none" height="30.0986" rx="2.5" ry="2.5" style="stroke:#0A9EFD;stroke-width:2.0;" width="82" x="80" y="855.6631"/><text fill="#0A9EFD" font-family="Arial" font-size="14" lengthAdjust="spacing" textLength="68" x="87" y="875.7949">Video SDK</text><rect fill="none" height="30.0986" rx="2.5" ry="2.5" style="stroke:#0A9EFD;stroke-width:2.0;" width="72" x="355" y="55"/><text fill="#0A9EFD" font-family="Arial" font-size="14" lengthAdjust="spacing" textLength="58" x="362" y="75.1318">SDRTN&#174;</text><rect fill="none" height="30.0986" rx="2.5" ry="2.5" style="stroke:#0A9EFD;stroke-width:2.0;" width="72" x="355" y="855.6631"/><text fill="#0A9EFD" font-family="Arial" font-size="14" lengthAdjust="spacing" textLength="58" x="362" y="875.7949">SDRTN&#174;</text><polygon fill="#0A9EFD" points="109,113.0474,119,117.0474,109,121.0474,113,117.0474" style="stroke:#0A9EFD;stroke-width:1.0;"/><line style="stroke:#0A9EFD;stroke-width:2.0;" x1="38" x2="115" y1="117.0474" y2="117.0474"/><text fill="#0A9EFD" font-family="Arial" font-size="13" lengthAdjust="spacing" textLength="56" x="51.5" y="112.2925">Open app</text><line style="stroke:#0A9EFD;stroke-width:2.0;" x1="121" x2="163" y1="160.9448" y2="160.9448"/><line style="stroke:#0A9EFD;stroke-width:2.0;" x1="163" x2="163" y1="160.9448" y2="173.9448"/><line style="stroke:#0A9EFD;stroke-width:2.0;" x1="122" x2="163" y1="173.9448" y2="173.9448"/><polygon fill="#0A9EFD" points="132,169.9448,122,173.9448,132,177.9448,128,173.9448" style="stroke:#0A9EFD;stroke-width:1.0;"/><text fill="#0A9EFD" font-family="Arial" font-size="13" lengthAdjust="spacing" textLength="222" x="130" y="141.2412">Initialize the Agora Video SDK engine:</text><text fill="#0A9EFD" font-family="Arial" font-size="13" lengthAdjust="spacing" textLength="226" x="132" y="156.1899">agoraEngine = createAgoraRtcEngine()</text><polygon fill="#0A9EFD" points="379,213.8423,389,217.8423,379,221.8423,383,217.8423" style="stroke:#0A9EFD;stroke-width:1.0;"/><line style="stroke:#0A9EFD;stroke-width:2.0;" x1="121" x2="385" y1="217.8423" y2="217.8423"/><text fill="#0A9EFD" font-family="Arial" font-size="13" lengthAdjust="spacing" textLength="147" x="180.5" y="198.1387">Enable the video module:</text><text fill="#0A9EFD" font-family="Arial" font-size="13" lengthAdjust="spacing" textLength="155" x="180.5" y="213.0874">agoraEngine.enableVideo()</text><line style="stroke:#0A9EFD;stroke-width:2.0;" x1="121" x2="163" y1="261.7397" y2="261.7397"/><line style="stroke:#0A9EFD;stroke-width:2.0;" x1="163" x2="163" y1="261.7397" y2="274.7397"/><line style="stroke:#0A9EFD;stroke-width:2.0;" x1="122" x2="163" y1="274.7397" y2="274.7397"/><polygon fill="#0A9EFD" points="132,270.7397,122,274.7397,132,278.7397,128,274.7397" style="stroke:#0A9EFD;stroke-width:1.0;"/><text fill="#0A9EFD" font-family="Arial" font-size="13" lengthAdjust="spacing" textLength="156" x="148.5" y="242.0361">Register the event handler:</text><text fill="#0A9EFD" font-family="Arial" font-size="13" lengthAdjust="spacing" textLength="197" x="132" y="256.9849">agoraEngine.registerEventHandler</text><line style="stroke:#0A9EFD;stroke-width:2.0;" x1="121" x2="163" y1="318.6372" y2="318.6372"/><line style="stroke:#0A9EFD;stroke-width:2.0;" x1="163" x2="163" y1="318.6372" y2="331.6372"/><line style="stroke:#0A9EFD;stroke-width:2.0;" x1="122" x2="163" y1="331.6372" y2="331.6372"/><polygon fill="#0A9EFD" points="132,327.6372,122,331.6372,132,335.6372,128,331.6372" style="stroke:#0A9EFD;stroke-width:1.0;"/><text fill="#0A9EFD" font-family="Arial" font-size="13" lengthAdjust="spacing" textLength="181" x="128" y="298.9336">Setup AgoraVideoView widgets</text><text fill="#0A9EFD" font-family="Arial" font-size="13" lengthAdjust="spacing" textLength="157" x="144" y="313.8823">for local and remote videos</text><path d="M10,346.6372 L114,346.6372 L114,353.5859 L104,363.5859 L10,363.5859 L10,346.6372 " fill="#EEEEEE" style="stroke:#0A9EFD;stroke-width:1.5;"/><rect fill="none" height="391.231" style="stroke:#0A9EFD;stroke-width:2.0;" width="427" x="10" y="346.6372"/><text fill="#000000" font-family="Arial" font-size="13" lengthAdjust="spacing" textLength="59" x="25" y="359.8311">Video Call</text><polygon fill="#0A9EFD" points="109,380.5347,119,384.5347,109,388.5347,113,384.5347" style="stroke:#0A9EFD;stroke-width:1.0;"/><line style="stroke:#0A9EFD;stroke-width:2.0;" x1="38" x2="115" y1="384.5347" y2="384.5347"/><text fill="#0A9EFD" font-family="Arial" font-size="13" lengthAdjust="spacing" textLength="59" x="50" y="379.7798">Join a call</text><polygon fill="#0A9EFD" points="379,424.4321,389,428.4321,379,432.4321,383,428.4321" style="stroke:#0A9EFD;stroke-width:1.0;"/><line style="stroke:#0A9EFD;stroke-width:2.0;" x1="121" x2="385" y1="428.4321" y2="428.4321"/><text fill="#0A9EFD" font-family="Arial" font-size="13" lengthAdjust="spacing" textLength="95" x="206.5" y="408.7285">Set a client role:</text><text fill="#0A9EFD" font-family="Arial" font-size="13" lengthAdjust="spacing" textLength="153" x="181.5" y="423.6772">agoraEngine.setClientRole</text><polygon fill="#0A9EFD" points="379,468.3296,389,472.3296,379,476.3296,383,472.3296" style="stroke:#0A9EFD;stroke-width:1.0;"/><line style="stroke:#0A9EFD;stroke-width:2.0;" x1="121" x2="385" y1="472.3296" y2="472.3296"/><text fill="#0A9EFD" font-family="Arial" font-size="13" lengthAdjust="spacing" textLength="123" x="192.5" y="452.626">Set a channel profile:</text><text fill="#0A9EFD" font-family="Arial" font-size="13" lengthAdjust="spacing" textLength="178" x="169" y="467.5747">agoraEngine.setChannelProfile</text><line style="stroke:#0A9EFD;stroke-width:2.0;" x1="121" x2="163" y1="501.2783" y2="501.2783"/><line style="stroke:#0A9EFD;stroke-width:2.0;" x1="163" x2="163" y1="501.2783" y2="514.2783"/><line style="stroke:#0A9EFD;stroke-width:2.0;" x1="122" x2="163" y1="514.2783" y2="514.2783"/><polygon fill="#0A9EFD" points="132,510.2783,122,514.2783,132,518.2783,128,514.2783" style="stroke:#0A9EFD;stroke-width:1.0;"/><text fill="#0A9EFD" font-family="Arial" font-size="13" lengthAdjust="spacing" textLength="169" x="128" y="496.5234">Retrieve authentication token</text><polygon fill="#0A9EFD" points="379,554.1758,389,558.1758,379,562.1758,383,558.1758" style="stroke:#0A9EFD;stroke-width:1.0;"/><line style="stroke:#0A9EFD;stroke-width:2.0;" x1="121" x2="385" y1="558.1758" y2="558.1758"/><text fill="#0A9EFD" font-family="Arial" font-size="13" lengthAdjust="spacing" textLength="181" x="165.5" y="538.4722">Join a channel using the token:</text><text fill="#0A9EFD" font-family="Arial" font-size="13" lengthAdjust="spacing" textLength="143" x="186.5" y="553.4209">agoraEngine.joinChannel</text><line style="stroke:#0A9EFD;stroke-width:2.0;" x1="121" x2="163" y1="602.0732" y2="602.0732"/><line style="stroke:#0A9EFD;stroke-width:2.0;" x1="163" x2="163" y1="602.0732" y2="615.0732"/><line style="stroke:#0A9EFD;stroke-width:2.0;" x1="122" x2="163" y1="615.0732" y2="615.0732"/><polygon fill="#0A9EFD" points="132,611.0732,122,615.0732,132,619.0732,128,615.0732" style="stroke:#0A9EFD;stroke-width:1.0;"/><text fill="#0A9EFD" font-family="Arial" font-size="13" lengthAdjust="spacing" textLength="107" x="152.5" y="582.3696">Start local peview:</text><text fill="#0A9EFD" font-family="Arial" font-size="13" lengthAdjust="spacing" textLength="156" x="132" y="597.3184">agoraEngine.startPreview()</text><polygon fill="#0A9EFD" points="132,654.9707,122,658.9707,132,662.9707,128,658.9707" style="stroke:#0A9EFD;stroke-width:1.0;"/><line style="stroke:#0A9EFD;stroke-width:2.0;" x1="126" x2="390" y1="658.9707" y2="658.9707"/><text fill="#0A9EFD" font-family="Arial" font-size="13" lengthAdjust="spacing" textLength="116" x="196" y="639.2671">Remote user joined:</text><text fill="#0A9EFD" font-family="Arial" font-size="13" lengthAdjust="spacing" textLength="225" x="145.5" y="654.2158">RtcEngineEventHandler onUserJoined:</text><polygon fill="#0A9EFD" points="132,683.9194,122,687.9194,132,691.9194,128,687.9194" style="stroke:#0A9EFD;stroke-width:1.0;"/><polygon fill="#0A9EFD" points="379,683.9194,389,687.9194,379,691.9194,383,687.9194" style="stroke:#0A9EFD;stroke-width:1.0;"/><line style="stroke:#0A9EFD;stroke-width:2.0;" x1="126" x2="385" y1="687.9194" y2="687.9194"/><text fill="#0A9EFD" font-family="Arial" font-size="13" lengthAdjust="spacing" textLength="181" x="165.5" y="683.1646">Send and receive data streams</text><line style="stroke:#0A9EFD;stroke-width:2.0;" x1="121" x2="163" y1="716.8682" y2="716.8682"/><line style="stroke:#0A9EFD;stroke-width:2.0;" x1="163" x2="163" y1="716.8682" y2="729.8682"/><line style="stroke:#0A9EFD;stroke-width:2.0;" x1="122" x2="163" y1="729.8682" y2="729.8682"/><polygon fill="#0A9EFD" points="132,725.8682,122,729.8682,132,733.8682,128,729.8682" style="stroke:#0A9EFD;stroke-width:1.0;"/><text fill="#0A9EFD" font-family="Arial" font-size="13" lengthAdjust="spacing" textLength="256" x="128" y="712.1133">Display remote video using AgoraVideoView</text><polygon fill="#0A9EFD" points="109,761.8169,119,765.8169,109,769.8169,113,765.8169" style="stroke:#0A9EFD;stroke-width:1.0;"/><line style="stroke:#0A9EFD;stroke-width:2.0;" x1="38" x2="115" y1="765.8169" y2="765.8169"/><text fill="#0A9EFD" font-family="Arial" font-size="13" lengthAdjust="spacing" textLength="59" x="50" y="761.062">Leave call</text><polygon fill="#0A9EFD" points="379,805.7144,389,809.7144,379,813.7144,383,809.7144" style="stroke:#0A9EFD;stroke-width:1.0;"/><line style="stroke:#0A9EFD;stroke-width:2.0;" x1="121" x2="385" y1="809.7144" y2="809.7144"/><text fill="#0A9EFD" font-family="Arial" font-size="13" lengthAdjust="spacing" textLength="106" x="203" y="790.0107">Leave the channel</text><text fill="#0A9EFD" font-family="Arial" font-size="13" lengthAdjust="spacing" textLength="162" x="177" y="804.9595">agoraEngine.leaveChannel()</text><polygon fill="#0A9EFD" points="109,834.6631,119,838.6631,109,842.6631,113,838.6631" style="stroke:#0A9EFD;stroke-width:1.0;"/><line style="stroke:#0A9EFD;stroke-width:2.0;" x1="38" x2="115" y1="838.6631" y2="838.6631"/><text fill="#0A9EFD" font-family="Arial" font-size="13" lengthAdjust="spacing" textLength="58" x="50.5" y="833.9082">Close app</text><!--SRC=[TLFRRXCn47ttLmpx10_j1qI0L2MHI8iWsj1AI4XekZlTJklObkrDWO_Y8_WonXVIR58UFJvppfmpzYisdHvx0Xoin-_XaSqvZrkj57RHUcYk0_a6CC3rfbNgrlw0vgiTFQ1pZNBe8tViq4HeRhWd2vl5LOPVhDUAJ0_IKTikai9HpsRHVldqvtVjM3rtY1gSlKyiC_Zio2Gz9QTzSMKuCch-HH3l2J8vx4S0CWCRci4tKvmjyndUGUS98sLu6xjIVltccNerWwN1MrreTvbmQ_jHdv2TKyPbpKC66QwbWKCadpbeHsBr7asloP-G-0fT9jI70ffmRIYEhlZBKZTCJ_34_K0n9B8xsPAs7MgGPl2qjR7E7PGQl9Nc4iiSjPxaUcbPPe4krG_zYs8gQqvpU_k2yq1ndgzRkNsfLzmQqk2ylUF_z1V8kY2EqekU9JN0KV8pybemiZKGxIEPYTe_1rLk36o6d7c6pevK7mHTPQS9HtcIDKD7EydtTE04MVjyMNVzzgpCq9R4H_ada1IepztxntMuMB0c_QVB0giq- -HaVMM57R6uxp4YX2ZlTHicyouuE8q_9xkktgVF97sdwLVwI2ZC9nilvHHSZVB8laxtDJgnVyWurpPG_fr_0G00]--></g></svg>