<?xml version="1.0" encoding="us-ascii" standalone="no"?><svg xmlns="http://www.w3.org/2000/svg" xmlns:xlink="http://www.w3.org/1999/xlink" contentStyleType="text/css" height="946px" preserveAspectRatio="none" style="width:436px;height:946px;" version="1.1" viewBox="0 0 436 946" width="436px" zoomAndPan="magnify"><defs/><g><rect fill="none" height="944.7617" style="stroke:#0A9EFD;stroke-width:1.0;" width="434.5" x="0" y="0"/><rect fill="#999999" fill-opacity="0.33333" height="934.7617" style="stroke:#0A9EFD;stroke-width:0.5;" width="90" x="74.5" y="6"/><text fill="#0A9EFD" font-family="sans-serif" font-size="13" font-weight="bold" lengthAdjust="spacing" textLength="57" x="91" y="19.4951">Your app</text><rect fill="#999999" fill-opacity="0.33333" height="934.7617" style="stroke:#0A9EFD;stroke-width:0.5;" width="74" x="350.5" y="6"/><text fill="#0A9EFD" font-family="sans-serif" font-size="13" font-weight="bold" lengthAdjust="spacing" textLength="38" x="368.5" y="19.4951">Agora</text><rect fill="#0A9EFD" fill-opacity="0.06667" height="391.231" style="stroke:#0A9EFD;stroke-width:2.0;" width="420.5" x="10" y="346.6372"/><line style="stroke:#0A9EFD;stroke-width:0.5;stroke-dasharray:5.0,5.0;" x1="37" x2="37" y1="86.0986" y2="856.6631"/><line style="stroke:#0A9EFD;stroke-width:0.5;stroke-dasharray:5.0,5.0;" x1="119.5" x2="119.5" y1="86.0986" y2="856.6631"/><line style="stroke:#0A9EFD;stroke-width:0.5;stroke-dasharray:5.0,5.0;" x1="387.5" x2="387.5" y1="86.0986" y2="856.6631"/><text fill="#0A9EFD" font-family="Arial" font-size="14" lengthAdjust="spacing" textLength="29" x="20" y="83.1318">User</text><ellipse cx="37.5" cy="16" fill="none" rx="8" ry="8" style="stroke:#0A9EFD;stroke-width:3.0;"/><path d="M37.5,24 L37.5,51 M24.5,32 L50.5,32 M37.5,51 L24.5,66 M37.5,51 L50.5,66 " fill="none" style="stroke:#0A9EFD;stroke-width:3.0;"/><text fill="#0A9EFD" font-family="Arial" font-size="14" lengthAdjust="spacing" textLength="29" x="20" y="868.7949">User</text><ellipse cx="37.5" cy="882.7617" fill="none" rx="8" ry="8" style="stroke:#0A9EFD;stroke-width:3.0;"/><path d="M37.5,890.7617 L37.5,917.7617 M24.5,898.7617 L50.5,898.7617 M37.5,917.7617 L24.5,932.7617 M37.5,917.7617 L50.5,932.7617 " fill="none" style="stroke:#0A9EFD;stroke-width:3.0;"/><rect fill="none" height="30.0986" rx="2.5" ry="2.5" style="stroke:#0A9EFD;stroke-width:2.0;" width="82" x="78.5" y="55"/><text fill="#0A9EFD" font-family="Arial" font-size="14" lengthAdjust="spacing" textLength="68" x="85.5" y="75.1318">Video SDK</text><rect fill="none" height="30.0986" rx="2.5" ry="2.5" style="stroke:#0A9EFD;stroke-width:2.0;" width="82" x="78.5" y="855.6631"/><text fill="#0A9EFD" font-family="Arial" font-size="14" lengthAdjust="spacing" textLength="68" x="85.5" y="875.7949">Video SDK</text><rect fill="none" height="30.0986" rx="2.5" ry="2.5" style="stroke:#0A9EFD;stroke-width:2.0;" width="66" x="354.5" y="55"/><text fill="#0A9EFD" font-family="Arial" font-size="14" lengthAdjust="spacing" textLength="52" x="361.5" y="75.1318">SD-RTN</text><rect fill="none" height="30.0986" rx="2.5" ry="2.5" style="stroke:#0A9EFD;stroke-width:2.0;" width="66" x="354.5" y="855.6631"/><text fill="#0A9EFD" font-family="Arial" font-size="14" lengthAdjust="spacing" textLength="52" x="361.5" y="875.7949">SD-RTN</text><polygon fill="#0A9EFD" points="107.5,113.0474,117.5,117.0474,107.5,121.0474,111.5,117.0474" style="stroke:#0A9EFD;stroke-width:1.0;"/><line style="stroke:#0A9EFD;stroke-width:2.0;" x1="37.5" x2="113.5" y1="117.0474" y2="117.0474"/><text fill="#0A9EFD" font-family="Arial" font-size="13" lengthAdjust="spacing" textLength="56" x="50.5" y="112.2925">Open app</text><line style="stroke:#0A9EFD;stroke-width:2.0;" x1="119.5" x2="161.5" y1="160.9448" y2="160.9448"/><line style="stroke:#0A9EFD;stroke-width:2.0;" x1="161.5" x2="161.5" y1="160.9448" y2="173.9448"/><line style="stroke:#0A9EFD;stroke-width:2.0;" x1="120.5" x2="161.5" y1="173.9448" y2="173.9448"/><polygon fill="#0A9EFD" points="130.5,169.9448,120.5,173.9448,130.5,177.9448,126.5,173.9448" style="stroke:#0A9EFD;stroke-width:1.0;"/><text fill="#0A9EFD" font-family="Arial" font-size="13" lengthAdjust="spacing" textLength="221" x="129" y="141.2412">Initialize the Agora Video SDK engine:</text><text fill="#0A9EFD" font-family="Arial" font-size="13" lengthAdjust="spacing" textLength="226" x="130.5" y="156.1899">agoraEngine = createAgoraRtcEngine()</text><polygon fill="#0A9EFD" points="375.5,213.8423,385.5,217.8423,375.5,221.8423,379.5,217.8423" style="stroke:#0A9EFD;stroke-width:1.0;"/><line style="stroke:#0A9EFD;stroke-width:2.0;" x1="119.5" x2="381.5" y1="217.8423" y2="217.8423"/><text fill="#0A9EFD" font-family="Arial" font-size="13" lengthAdjust="spacing" textLength="145" x="179" y="198.1387">Enable the video module:</text><text fill="#0A9EFD" font-family="Arial" font-size="13" lengthAdjust="spacing" textLength="155" x="178" y="213.0874">agoraEngine.enableVideo()</text><line style="stroke:#0A9EFD;stroke-width:2.0;" x1="119.5" x2="161.5" y1="261.7397" y2="261.7397"/><line style="stroke:#0A9EFD;stroke-width:2.0;" x1="161.5" x2="161.5" y1="261.7397" y2="274.7397"/><line style="stroke:#0A9EFD;stroke-width:2.0;" x1="120.5" x2="161.5" y1="274.7397" y2="274.7397"/><polygon fill="#0A9EFD" points="130.5,270.7397,120.5,274.7397,130.5,278.7397,126.5,274.7397" style="stroke:#0A9EFD;stroke-width:1.0;"/><text fill="#0A9EFD" font-family="Arial" font-size="13" lengthAdjust="spacing" textLength="154" x="147" y="242.0361">Register the event handler:</text><text fill="#0A9EFD" font-family="Arial" font-size="13" lengthAdjust="spacing" textLength="195" x="130.5" y="256.9849">agoraEngine.registerEventHandler</text><line style="stroke:#0A9EFD;stroke-width:2.0;" x1="119.5" x2="161.5" y1="318.6372" y2="318.6372"/><line style="stroke:#0A9EFD;stroke-width:2.0;" x1="161.5" x2="161.5" y1="318.6372" y2="331.6372"/><line style="stroke:#0A9EFD;stroke-width:2.0;" x1="120.5" x2="161.5" y1="331.6372" y2="331.6372"/><polygon fill="#0A9EFD" points="130.5,327.6372,120.5,331.6372,130.5,335.6372,126.5,331.6372" style="stroke:#0A9EFD;stroke-width:1.0;"/><text fill="#0A9EFD" font-family="Arial" font-size="13" lengthAdjust="spacing" textLength="181" x="126.5" y="298.9336">Setup AgoraVideoView widgets</text><text fill="#0A9EFD" font-family="Arial" font-size="13" lengthAdjust="spacing" textLength="154" x="144" y="313.8823">for local and remote videos</text><path d="M10,346.6372 L114,346.6372 L114,353.5859 L104,363.5859 L10,363.5859 L10,346.6372 " fill="#EEEEEE" style="stroke:#0A9EFD;stroke-width:1.5;"/><rect fill="none" height="391.231" style="stroke:#0A9EFD;stroke-width:2.0;" width="420.5" x="10" y="346.6372"/><text fill="#000000" font-family="Arial" font-size="13" lengthAdjust="spacing" textLength="59" x="25" y="359.8311">Video Call</text><polygon fill="#0A9EFD" points="107.5,380.5347,117.5,384.5347,107.5,388.5347,111.5,384.5347" style="stroke:#0A9EFD;stroke-width:1.0;"/><line style="stroke:#0A9EFD;stroke-width:2.0;" x1="37.5" x2="113.5" y1="384.5347" y2="384.5347"/><text fill="#0A9EFD" font-family="Arial" font-size="13" lengthAdjust="spacing" textLength="58" x="49.5" y="379.7798">Join a call</text><polygon fill="#0A9EFD" points="375.5,424.4321,385.5,428.4321,375.5,432.4321,379.5,428.4321" style="stroke:#0A9EFD;stroke-width:1.0;"/><line style="stroke:#0A9EFD;stroke-width:2.0;" x1="119.5" x2="381.5" y1="428.4321" y2="428.4321"/><text fill="#0A9EFD" font-family="Arial" font-size="13" lengthAdjust="spacing" textLength="95" x="204" y="408.7285">Set a client role:</text><text fill="#0A9EFD" font-family="Arial" font-size="13" lengthAdjust="spacing" textLength="153" x="179" y="423.6772">agoraEngine.setClientRole</text><polygon fill="#0A9EFD" points="375.5,468.3296,385.5,472.3296,375.5,476.3296,379.5,472.3296" style="stroke:#0A9EFD;stroke-width:1.0;"/><line style="stroke:#0A9EFD;stroke-width:2.0;" x1="119.5" x2="381.5" y1="472.3296" y2="472.3296"/><text fill="#0A9EFD" font-family="Arial" font-size="13" lengthAdjust="spacing" textLength="122" x="190.5" y="452.626">Set a channel profile:</text><text fill="#0A9EFD" font-family="Arial" font-size="13" lengthAdjust="spacing" textLength="177" x="167" y="467.5747">agoraEngine.setChannelProfile</text><line style="stroke:#0A9EFD;stroke-width:2.0;" x1="119.5" x2="161.5" y1="501.2783" y2="501.2783"/><line style="stroke:#0A9EFD;stroke-width:2.0;" x1="161.5" x2="161.5" y1="501.2783" y2="514.2783"/><line style="stroke:#0A9EFD;stroke-width:2.0;" x1="120.5" x2="161.5" y1="514.2783" y2="514.2783"/><polygon fill="#0A9EFD" points="130.5,510.2783,120.5,514.2783,130.5,518.2783,126.5,514.2783" style="stroke:#0A9EFD;stroke-width:1.0;"/><text fill="#0A9EFD" font-family="Arial" font-size="13" lengthAdjust="spacing" textLength="167" x="126.5" y="496.5234">Retrieve authentication token</text><polygon fill="#0A9EFD" points="375.5,554.1758,385.5,558.1758,375.5,562.1758,379.5,558.1758" style="stroke:#0A9EFD;stroke-width:1.0;"/><line style="stroke:#0A9EFD;stroke-width:2.0;" x1="119.5" x2="381.5" y1="558.1758" y2="558.1758"/><text fill="#0A9EFD" font-family="Arial" font-size="13" lengthAdjust="spacing" textLength="180" x="163.5" y="538.4722">Join a channel using the token:</text><text fill="#0A9EFD" font-family="Arial" font-size="13" lengthAdjust="spacing" textLength="143" x="184" y="553.4209">agoraEngine.joinChannel</text><line style="stroke:#0A9EFD;stroke-width:2.0;" x1="119.5" x2="161.5" y1="602.0732" y2="602.0732"/><line style="stroke:#0A9EFD;stroke-width:2.0;" x1="161.5" x2="161.5" y1="602.0732" y2="615.0732"/><line style="stroke:#0A9EFD;stroke-width:2.0;" x1="120.5" x2="161.5" y1="615.0732" y2="615.0732"/><polygon fill="#0A9EFD" points="130.5,611.0732,120.5,615.0732,130.5,619.0732,126.5,615.0732" style="stroke:#0A9EFD;stroke-width:1.0;"/><text fill="#0A9EFD" font-family="Arial" font-size="13" lengthAdjust="spacing" textLength="105" x="151" y="582.3696">Start local peview:</text><text fill="#0A9EFD" font-family="Arial" font-size="13" lengthAdjust="spacing" textLength="154" x="130.5" y="597.3184">agoraEngine.startPreview()</text><polygon fill="#0A9EFD" points="130.5,654.9707,120.5,658.9707,130.5,662.9707,126.5,658.9707" style="stroke:#0A9EFD;stroke-width:1.0;"/><line style="stroke:#0A9EFD;stroke-width:2.0;" x1="124.5" x2="386.5" y1="658.9707" y2="658.9707"/><text fill="#0A9EFD" font-family="Arial" font-size="13" lengthAdjust="spacing" textLength="116" x="193.5" y="639.2671">Remote user joined:</text><text fill="#0A9EFD" font-family="Arial" font-size="13" lengthAdjust="spacing" textLength="222" x="144.5" y="654.2158">RtcEngineEventHandler onUserJoined:</text><polygon fill="#0A9EFD" points="130.5,683.9194,120.5,687.9194,130.5,691.9194,126.5,687.9194" style="stroke:#0A9EFD;stroke-width:1.0;"/><polygon fill="#0A9EFD" points="375.5,683.9194,385.5,687.9194,375.5,691.9194,379.5,687.9194" style="stroke:#0A9EFD;stroke-width:1.0;"/><line style="stroke:#0A9EFD;stroke-width:2.0;" x1="124.5" x2="381.5" y1="687.9194" y2="687.9194"/><text fill="#0A9EFD" font-family="Arial" font-size="13" lengthAdjust="spacing" textLength="179" x="164" y="683.1646">Send and receive data streams</text><line style="stroke:#0A9EFD;stroke-width:2.0;" x1="119.5" x2="161.5" y1="716.8682" y2="716.8682"/><line style="stroke:#0A9EFD;stroke-width:2.0;" x1="161.5" x2="161.5" y1="716.8682" y2="729.8682"/><line style="stroke:#0A9EFD;stroke-width:2.0;" x1="120.5" x2="161.5" y1="729.8682" y2="729.8682"/><polygon fill="#0A9EFD" points="130.5,725.8682,120.5,729.8682,130.5,733.8682,126.5,729.8682" style="stroke:#0A9EFD;stroke-width:1.0;"/><text fill="#0A9EFD" font-family="Arial" font-size="13" lengthAdjust="spacing" textLength="254" x="126.5" y="712.1133">Display remote video using AgoraVideoView</text><polygon fill="#0A9EFD" points="107.5,761.8169,117.5,765.8169,107.5,769.8169,111.5,765.8169" style="stroke:#0A9EFD;stroke-width:1.0;"/><line style="stroke:#0A9EFD;stroke-width:2.0;" x1="37.5" x2="113.5" y1="765.8169" y2="765.8169"/><text fill="#0A9EFD" font-family="Arial" font-size="13" lengthAdjust="spacing" textLength="57" x="50" y="761.062">Leave call</text><polygon fill="#0A9EFD" points="375.5,805.7144,385.5,809.7144,375.5,813.7144,379.5,809.7144" style="stroke:#0A9EFD;stroke-width:1.0;"/><line style="stroke:#0A9EFD;stroke-width:2.0;" x1="119.5" x2="381.5" y1="809.7144" y2="809.7144"/><text fill="#0A9EFD" font-family="Arial" font-size="13" lengthAdjust="spacing" textLength="104" x="201.5" y="790.0107">Leave the channel</text><text fill="#0A9EFD" font-family="Arial" font-size="13" lengthAdjust="spacing" textLength="160" x="175.5" y="804.9595">agoraEngine.leaveChannel()</text><polygon fill="#0A9EFD" points="107.5,834.6631,117.5,838.6631,107.5,842.6631,111.5,838.6631" style="stroke:#0A9EFD;stroke-width:1.0;"/><line style="stroke:#0A9EFD;stroke-width:2.0;" x1="37.5" x2="113.5" y1="838.6631" y2="838.6631"/><text fill="#0A9EFD" font-family="Arial" font-size="13" lengthAdjust="spacing" textLength="58" x="49.5" y="833.9082">Close app</text><!--SRC=[TLDTRnCn47pthrZk2HxI7n01KfL48Ys2w48h8I6XxTtskgrZMxOl1Nuzwm_IN58UlPwTsPcrtx3fzDWJu60z_WnFR2vut6cbi8lMGtCJo3U00MwshL9tzXSqt-te0Prhb4CVkME79a9poprPs2wlC_noir5aUf2EsdQP54vwjijP- -rBRLY_D8WOp3ucaZbyTMIId9BJeRWs71ar_o683mIP6muJ09c13StXXod6LlaC7w3pX94ol8rTARzzzqAzdiFAu9qkjFjCkBFzgC_8BYZZikOnWmpNqi0XaiySj2Tn-e2cr-JFI7o5hXBgKm5DkBOKHrVyPQbRfcTuvdwW61BPlIn9smurI3DusjbOvmvA3TvASubbWLfFShsoBBD0b-h7_aKnbJMdkRrznNcWkCZNhTo-rYjk3MbmtjxpV_eBP5CG9-b5pv8Qu2Zv6Nai6DaQYFQ9p4JjduCgDmOsGyuyG-Sdge-2hhBJXAEyo9gXextaUpvmWcnylgoxVZyhCxGbyL6-2IG5wdFtuN4TBnQiIT_fgi0gpI4vMLzPOKSixdkC227AUzs5oRnB3axZxyckg_VfCqdVQVgLFXCAyzd6Ipa5LwCyiQ_JVOrEx1ypBhGDb7_dNm00]--></g></svg>