<?xml version="1.0" encoding="us-ascii" standalone="no"?><svg xmlns="http://www.w3.org/2000/svg" xmlns:xlink="http://www.w3.org/1999/xlink" contentStyleType="text/css" height="548px" preserveAspectRatio="none" style="width:643px;height:548px;" version="1.1" viewBox="0 0 643 548" width="643px" zoomAndPan="magnify"><defs/><g><rect fill="none" height="546.8413" style="stroke:#0A9EFD;stroke-width:1.0;" width="641.5" x="0" y="0"/><rect fill="#999999" fill-opacity="0.33333" height="536.8413" style="stroke:#0A9EFD;stroke-width:0.5;" width="322" x="16" y="6"/><text fill="#0A9EFD" font-family="sans-serif" font-size="13" font-weight="bold" lengthAdjust="spacing" textLength="116" x="119" y="18.5684">Call implementer</text><rect fill="#999999" fill-opacity="0.33333" height="536.8413" style="stroke:#0A9EFD;stroke-width:0.5;" width="117" x="514.5" y="6"/><text fill="#0A9EFD" font-family="sans-serif" font-size="13" font-weight="bold" lengthAdjust="spacing" textLength="41" x="552.5" y="18.5684">Agora</text><rect fill="#0A9EFD" fill-opacity="0.06667" height="245.5898" style="stroke:#0A9EFD;stroke-width:2.0;" width="627.5" x="10" y="73.4092"/><rect fill="#0A9EFD" fill-opacity="0.06667" height="158.7437" style="stroke:#0A9EFD;stroke-width:2.0;" width="627.5" x="10" y="332.999"/><line style="stroke:#0A9EFD;stroke-width:0.5;stroke-dasharray:5.0,5.0;" x1="45" x2="45" y1="56.4092" y2="508.7427"/><line style="stroke:#0A9EFD;stroke-width:0.5;stroke-dasharray:5.0,5.0;" x1="309" x2="309" y1="56.4092" y2="508.7427"/><line style="stroke:#0A9EFD;stroke-width:0.5;stroke-dasharray:5.0,5.0;" x1="572.5" x2="572.5" y1="56.4092" y2="508.7427"/><rect fill="none" height="30.0986" rx="2.5" ry="2.5" style="stroke:#0A9EFD;stroke-width:2.0;" width="50" x="20" y="25.3105"/><text fill="#0A9EFD" font-family="Arial" font-size="14" lengthAdjust="spacing" textLength="36" x="27" y="45.4424">Client</text><rect fill="none" height="30.0986" rx="2.5" ry="2.5" style="stroke:#0A9EFD;stroke-width:2.0;" width="50" x="20" y="507.7427"/><text fill="#0A9EFD" font-family="Arial" font-size="14" lengthAdjust="spacing" textLength="36" x="27" y="527.8745">Client</text><rect fill="none" height="30.0986" rx="2.5" ry="2.5" style="stroke:#0A9EFD;stroke-width:2.0;" width="50" x="284" y="25.3105"/><text fill="#0A9EFD" font-family="Arial" font-size="14" lengthAdjust="spacing" textLength="36" x="291" y="45.4424">Client</text><rect fill="none" height="30.0986" rx="2.5" ry="2.5" style="stroke:#0A9EFD;stroke-width:2.0;" width="50" x="284" y="507.7427"/><text fill="#0A9EFD" font-family="Arial" font-size="14" lengthAdjust="spacing" textLength="36" x="291" y="527.8745">Client</text><rect fill="none" height="30.0986" rx="2.5" ry="2.5" style="stroke:#0A9EFD;stroke-width:2.0;" width="109" x="518.5" y="25.3105"/><text fill="#0A9EFD" font-family="Arial" font-size="14" lengthAdjust="spacing" textLength="95" x="525.5" y="45.4424">Agora Platform</text><rect fill="none" height="30.0986" rx="2.5" ry="2.5" style="stroke:#0A9EFD;stroke-width:2.0;" width="109" x="518.5" y="507.7427"/><text fill="#0A9EFD" font-family="Arial" font-size="14" lengthAdjust="spacing" textLength="95" x="525.5" y="527.8745">Agora Platform</text><path d="M10,73.4092 L102,73.4092 L102,80.3579 L92,90.3579 L10,90.3579 L10,73.4092 " fill="#EEEEEE" style="stroke:#0A9EFD;stroke-width:1.5;"/><rect fill="none" height="245.5898" style="stroke:#0A9EFD;stroke-width:2.0;" width="627.5" x="10" y="73.4092"/><text fill="#000000" font-family="Arial" font-size="13" lengthAdjust="spacing" textLength="47" x="25" y="86.603">Run call</text><line style="stroke:#0A9EFD;stroke-width:2.0;" x1="45" x2="87" y1="111.3066" y2="111.3066"/><line style="stroke:#0A9EFD;stroke-width:2.0;" x1="87" x2="87" y1="111.3066" y2="124.3066"/><line style="stroke:#0A9EFD;stroke-width:2.0;" x1="46" x2="87" y1="124.3066" y2="124.3066"/><polygon fill="#0A9EFD" points="56,120.3066,46,124.3066,56,128.3066,52,124.3066" style="stroke:#0A9EFD;stroke-width:1.0;"/><text fill="#0A9EFD" font-family="Arial" font-size="13" lengthAdjust="spacing" textLength="250" x="52" y="106.5518">Connect to local audio and video resources</text><polygon fill="#0A9EFD" points="561,149.2554,571,153.2554,561,157.2554,565,153.2554" style="stroke:#0A9EFD;stroke-width:1.0;"/><line style="stroke:#0A9EFD;stroke-width:2.0;" x1="45" x2="567" y1="153.2554" y2="153.2554"/><text fill="#0A9EFD" font-family="Arial" font-size="13" lengthAdjust="spacing" textLength="73" x="272.5" y="148.5005">Join channel</text><polygon fill="#0A9EFD" points="561,178.2041,571,182.2041,561,186.2041,565,182.2041" style="stroke:#0A9EFD;stroke-width:1.0;"/><line style="stroke:#0A9EFD;stroke-width:2.0;" x1="45" x2="567" y1="182.2041" y2="182.2041"/><text fill="#0A9EFD" font-family="Arial" font-size="13" lengthAdjust="spacing" textLength="189" x="214.5" y="177.4492">Send audio and video to channel</text><line style="stroke:#0A9EFD;stroke-width:2.0;" x1="309" x2="351" y1="211.1528" y2="211.1528"/><line style="stroke:#0A9EFD;stroke-width:2.0;" x1="351" x2="351" y1="211.1528" y2="224.1528"/><line style="stroke:#0A9EFD;stroke-width:2.0;" x1="310" x2="351" y1="224.1528" y2="224.1528"/><polygon fill="#0A9EFD" points="320,220.1528,310,224.1528,320,228.1528,316,224.1528" style="stroke:#0A9EFD;stroke-width:1.0;"/><text fill="#0A9EFD" font-family="Arial" font-size="13" lengthAdjust="spacing" textLength="250" x="316" y="206.3979">Connect to local audio and video resources</text><polygon fill="#0A9EFD" points="561,249.1016,571,253.1016,561,257.1016,565,253.1016" style="stroke:#0A9EFD;stroke-width:1.0;"/><line style="stroke:#0A9EFD;stroke-width:2.0;" x1="309" x2="567" y1="253.1016" y2="253.1016"/><text fill="#0A9EFD" font-family="Arial" font-size="13" lengthAdjust="spacing" textLength="73" x="404.5" y="248.3467">Join channel</text><polygon fill="#0A9EFD" points="320,278.0503,310,282.0503,320,286.0503,316,282.0503" style="stroke:#0A9EFD;stroke-width:1.0;"/><line style="stroke:#0A9EFD;stroke-width:2.0;" x1="314" x2="572" y1="282.0503" y2="282.0503"/><text fill="#0A9EFD" font-family="Arial" font-size="13" lengthAdjust="spacing" textLength="189" x="346.5" y="277.2954">Send audio and video to channel</text><polygon fill="#0A9EFD" points="56,306.999,46,310.999,56,314.999,52,310.999" style="stroke:#0A9EFD;stroke-width:1.0;"/><polygon fill="#0A9EFD" points="297,306.999,307,310.999,297,314.999,301,310.999" style="stroke:#0A9EFD;stroke-width:1.0;"/><line style="stroke:#0A9EFD;stroke-width:2.0;" x1="50" x2="303" y1="310.999" y2="310.999"/><text fill="#0A9EFD" font-family="Arial" font-size="13" lengthAdjust="spacing" textLength="80" x="137" y="306.2441">Communicate</text><path d="M10,332.999 L102,332.999 L102,339.9478 L92,349.9478 L10,349.9478 L10,332.999 " fill="#EEEEEE" style="stroke:#0A9EFD;stroke-width:1.5;"/><rect fill="none" height="158.7437" style="stroke:#0A9EFD;stroke-width:2.0;" width="627.5" x="10" y="332.999"/><text fill="#000000" font-family="Arial" font-size="13" lengthAdjust="spacing" textLength="47" x="25" y="346.1929">End call</text><line style="stroke:#0A9EFD;stroke-width:2.0;" x1="309" x2="351" y1="370.8965" y2="370.8965"/><line style="stroke:#0A9EFD;stroke-width:2.0;" x1="351" x2="351" y1="370.8965" y2="383.8965"/><line style="stroke:#0A9EFD;stroke-width:2.0;" x1="310" x2="351" y1="383.8965" y2="383.8965"/><polygon fill="#0A9EFD" points="320,379.8965,310,383.8965,320,387.8965,316,383.8965" style="stroke:#0A9EFD;stroke-width:1.0;"/><text fill="#0A9EFD" font-family="Arial" font-size="13" lengthAdjust="spacing" textLength="128" x="316" y="366.1416">Close audio and video</text><polygon fill="#0A9EFD" points="561,408.8452,571,412.8452,561,416.8452,565,412.8452" style="stroke:#0A9EFD;stroke-width:1.0;"/><line style="stroke:#0A9EFD;stroke-width:2.0;" x1="309" x2="567" y1="412.8452" y2="412.8452"/><text fill="#0A9EFD" font-family="Arial" font-size="13" lengthAdjust="spacing" textLength="84" x="399" y="408.0903">Leave channel</text><line style="stroke:#0A9EFD;stroke-width:2.0;" x1="45" x2="87" y1="441.7939" y2="441.7939"/><line style="stroke:#0A9EFD;stroke-width:2.0;" x1="87" x2="87" y1="441.7939" y2="454.7939"/><line style="stroke:#0A9EFD;stroke-width:2.0;" x1="46" x2="87" y1="454.7939" y2="454.7939"/><polygon fill="#0A9EFD" points="56,450.7939,46,454.7939,56,458.7939,52,454.7939" style="stroke:#0A9EFD;stroke-width:1.0;"/><text fill="#0A9EFD" font-family="Arial" font-size="13" lengthAdjust="spacing" textLength="128" x="52" y="437.0391">Close audio and video</text><polygon fill="#0A9EFD" points="561,479.7427,571,483.7427,561,487.7427,565,483.7427" style="stroke:#0A9EFD;stroke-width:1.0;"/><line style="stroke:#0A9EFD;stroke-width:2.0;" x1="45" x2="567" y1="483.7427" y2="483.7427"/><text fill="#0A9EFD" font-family="Arial" font-size="13" lengthAdjust="spacing" textLength="84" x="267" y="478.9878">Leave channel</text><!--SRC=[bP31IiH038RlynInTptqk8XGYXVnKFG194xZ6inCodHcyV5DkrQxnHMz9lc-F_mN7BsKdW3tcl1fVEDunIM8Sy_w3bMB8i1X40eKCwNA3PWoUnumPbiBsxW27A5ftI-xsb7imPJkKznCSHlRF8DECBze2aUoMu5kdxGCy50YUFlBDIrStfXy1wt6I3v3LX2r7M3fMG4DFN1F2eb6BSdJk43T3kwKJVIAXifg_3W5RdaJBvTsMXzpwty6rpydTr-sFqJ3zNTq22MonqnJHqixjmRExPp-AJhILhr-wPxmG2T1IxLdo3FW_Ca7]--></g></svg>