<?xml version="1.0" encoding="us-ascii" standalone="no"?><svg xmlns="http://www.w3.org/2000/svg" xmlns:xlink="http://www.w3.org/1999/xlink" contentStyleType="text/css" height="844px" preserveAspectRatio="none" style="width:494px;height:844px;" version="1.1" viewBox="0 0 494 844" width="494px" zoomAndPan="magnify"><defs/><g><rect fill="none" height="842.9668" style="stroke:#0A9EFD;stroke-width:1.0;" width="492" x="0" y="0"/><rect fill="#999999" fill-opacity="0.33333" height="832.9668" style="stroke:#0A9EFD;stroke-width:0.5;" width="90" x="98" y="6"/><text fill="#0A9EFD" font-family="sans-serif" font-size="13" font-weight="bold" lengthAdjust="spacing" textLength="62" x="112" y="18.5684">Your app</text><rect fill="#999999" fill-opacity="0.33333" height="832.9668" style="stroke:#0A9EFD;stroke-width:0.5;" width="80" x="402" y="6"/><text fill="#0A9EFD" font-family="sans-serif" font-size="13" font-weight="bold" lengthAdjust="spacing" textLength="41" x="421.5" y="18.5684">Agora</text><rect fill="#0A9EFD" fill-opacity="0.06667" height="333.3335" style="stroke:#0A9EFD;stroke-width:2.0;" width="478" x="10" y="245.8423"/><line style="stroke:#0A9EFD;stroke-width:0.5;stroke-dasharray:5.0,5.0;" x1="38" x2="38" y1="86.0986" y2="754.8682"/><line style="stroke:#0A9EFD;stroke-width:0.5;stroke-dasharray:5.0,5.0;" x1="143" x2="143" y1="86.0986" y2="754.8682"/><line style="stroke:#0A9EFD;stroke-width:0.5;stroke-dasharray:5.0,5.0;" x1="442" x2="442" y1="86.0986" y2="754.8682"/><text fill="#0A9EFD" font-family="Arial" font-size="14" lengthAdjust="spacing" textLength="30" x="20" y="83.1318">User</text><ellipse cx="38" cy="16" fill="none" rx="8" ry="8" style="stroke:#0A9EFD;stroke-width:3.0;"/><path d="M38,24 L38,51 M25,32 L51,32 M38,51 L25,66 M38,51 L51,66 " fill="none" style="stroke:#0A9EFD;stroke-width:3.0;"/><text fill="#0A9EFD" font-family="Arial" font-size="14" lengthAdjust="spacing" textLength="30" x="20" y="767">User</text><ellipse cx="38" cy="780.9668" fill="none" rx="8" ry="8" style="stroke:#0A9EFD;stroke-width:3.0;"/><path d="M38,788.9668 L38,815.9668 M25,796.9668 L51,796.9668 M38,815.9668 L25,830.9668 M38,815.9668 L51,830.9668 " fill="none" style="stroke:#0A9EFD;stroke-width:3.0;"/><rect fill="none" height="30.0986" rx="2.5" ry="2.5" style="stroke:#0A9EFD;stroke-width:2.0;" width="82" x="102" y="55"/><text fill="#0A9EFD" font-family="Arial" font-size="14" lengthAdjust="spacing" textLength="68" x="109" y="75.1318">Video SDK</text><rect fill="none" height="30.0986" rx="2.5" ry="2.5" style="stroke:#0A9EFD;stroke-width:2.0;" width="82" x="102" y="753.8682"/><text fill="#0A9EFD" font-family="Arial" font-size="14" lengthAdjust="spacing" textLength="68" x="109" y="774">Video SDK</text><rect fill="none" height="30.0986" rx="2.5" ry="2.5" style="stroke:#0A9EFD;stroke-width:2.0;" width="72" x="406" y="55"/><text fill="#0A9EFD" font-family="Arial" font-size="14" lengthAdjust="spacing" textLength="58" x="413" y="75.1318">SDRTN&#174;</text><rect fill="none" height="30.0986" rx="2.5" ry="2.5" style="stroke:#0A9EFD;stroke-width:2.0;" width="72" x="406" y="753.8682"/><text fill="#0A9EFD" font-family="Arial" font-size="14" lengthAdjust="spacing" textLength="58" x="413" y="774">SDRTN&#174;</text><polygon fill="#0A9EFD" points="131,113.0474,141,117.0474,131,121.0474,135,117.0474" style="stroke:#0A9EFD;stroke-width:1.0;"/><line style="stroke:#0A9EFD;stroke-width:2.0;" x1="38" x2="137" y1="117.0474" y2="117.0474"/><text fill="#0A9EFD" font-family="Arial" font-size="13" lengthAdjust="spacing" textLength="58" x="61.5" y="112.2925">Open App</text><line style="stroke:#0A9EFD;stroke-width:2.0;" x1="143" x2="185" y1="160.9448" y2="160.9448"/><line style="stroke:#0A9EFD;stroke-width:2.0;" x1="185" x2="185" y1="160.9448" y2="173.9448"/><line style="stroke:#0A9EFD;stroke-width:2.0;" x1="144" x2="185" y1="173.9448" y2="173.9448"/><polygon fill="#0A9EFD" points="154,169.9448,144,173.9448,154,177.9448,150,173.9448" style="stroke:#0A9EFD;stroke-width:1.0;"/><text fill="#0A9EFD" font-family="Arial" font-size="13" lengthAdjust="spacing" textLength="213" x="150" y="141.2412">Initiate the Agora Video SDK engine:</text><text fill="#0A9EFD" font-family="Arial" font-size="13" lengthAdjust="spacing" textLength="188" x="166.5" y="156.1899">agoraEngine = RtcEngine.create</text><line style="stroke:#0A9EFD;stroke-width:2.0;" x1="143" x2="185" y1="217.8423" y2="217.8423"/><line style="stroke:#0A9EFD;stroke-width:2.0;" x1="185" x2="185" y1="217.8423" y2="230.8423"/><line style="stroke:#0A9EFD;stroke-width:2.0;" x1="144" x2="185" y1="230.8423" y2="230.8423"/><polygon fill="#0A9EFD" points="154,226.8423,144,230.8423,154,234.8423,150,230.8423" style="stroke:#0A9EFD;stroke-width:1.0;"/><text fill="#0A9EFD" font-family="Arial" font-size="13" lengthAdjust="spacing" textLength="147" x="154" y="198.1387">Enable the video module:</text><text fill="#0A9EFD" font-family="Arial" font-size="13" lengthAdjust="spacing" textLength="155" x="154" y="213.0874">agoraEngine.enableVideo()</text><path d="M10,245.8423 L82,245.8423 L82,252.791 L72,262.791 L10,262.791 L10,245.8423 " fill="#EEEEEE" style="stroke:#0A9EFD;stroke-width:1.5;"/><rect fill="none" height="333.3335" style="stroke:#0A9EFD;stroke-width:2.0;" width="478" x="10" y="245.8423"/><text fill="#000000" font-family="Arial" font-size="13" lengthAdjust="spacing" textLength="27" x="25" y="259.0361">User</text><polygon fill="#0A9EFD" points="131,279.7397,141,283.7397,131,287.7397,135,283.7397" style="stroke:#0A9EFD;stroke-width:1.0;"/><line style="stroke:#0A9EFD;stroke-width:2.0;" x1="38" x2="137" y1="283.7397" y2="283.7397"/><text fill="#0A9EFD" font-family="Arial" font-size="13" lengthAdjust="spacing" textLength="59" x="61" y="278.9849">Join a call</text><line style="stroke:#0A9EFD;stroke-width:2.0;" x1="143" x2="185" y1="327.6372" y2="327.6372"/><line style="stroke:#0A9EFD;stroke-width:2.0;" x1="185" x2="185" y1="327.6372" y2="340.6372"/><line style="stroke:#0A9EFD;stroke-width:2.0;" x1="144" x2="185" y1="340.6372" y2="340.6372"/><polygon fill="#0A9EFD" points="154,336.6372,144,340.6372,154,344.6372,150,340.6372" style="stroke:#0A9EFD;stroke-width:1.0;"/><text fill="#0A9EFD" font-family="Arial" font-size="13" lengthAdjust="spacing" textLength="104" x="228.5" y="307.9336">Setup local video:</text><text fill="#0A9EFD" font-family="Arial" font-size="13" lengthAdjust="spacing" textLength="257" x="154" y="322.8823">agoraEngine.setupLocalVideo(VideoCanvas)</text><line style="stroke:#0A9EFD;stroke-width:2.0;" x1="143" x2="185" y1="384.5347" y2="384.5347"/><line style="stroke:#0A9EFD;stroke-width:2.0;" x1="185" x2="185" y1="384.5347" y2="397.5347"/><line style="stroke:#0A9EFD;stroke-width:2.0;" x1="144" x2="185" y1="397.5347" y2="397.5347"/><polygon fill="#0A9EFD" points="154,393.5347,144,397.5347,154,401.5347,150,397.5347" style="stroke:#0A9EFD;stroke-width:1.0;"/><text fill="#0A9EFD" font-family="Arial" font-size="13" lengthAdjust="spacing" textLength="111" x="174.5" y="364.8311">Start local preview:</text><text fill="#0A9EFD" font-family="Arial" font-size="13" lengthAdjust="spacing" textLength="156" x="154" y="379.7798">agoraEngine.startPreview()</text><line style="stroke:#0A9EFD;stroke-width:2.0;" x1="143" x2="185" y1="426.4834" y2="426.4834"/><line style="stroke:#0A9EFD;stroke-width:2.0;" x1="185" x2="185" y1="426.4834" y2="439.4834"/><line style="stroke:#0A9EFD;stroke-width:2.0;" x1="144" x2="185" y1="439.4834" y2="439.4834"/><polygon fill="#0A9EFD" points="154,435.4834,144,439.4834,154,443.4834,150,439.4834" style="stroke:#0A9EFD;stroke-width:1.0;"/><text fill="#0A9EFD" font-family="Arial" font-size="13" lengthAdjust="spacing" textLength="257" x="150" y="421.7285">Retrieve authentication token to join channel</text><polygon fill="#0A9EFD" points="430,479.3809,440,483.3809,430,487.3809,434,483.3809" style="stroke:#0A9EFD;stroke-width:1.0;"/><line style="stroke:#0A9EFD;stroke-width:2.0;" x1="143" x2="436" y1="483.3809" y2="483.3809"/><text fill="#0A9EFD" font-family="Arial" font-size="13" lengthAdjust="spacing" textLength="99" x="243" y="463.6772">Join the channel:</text><text fill="#0A9EFD" font-family="Arial" font-size="13" lengthAdjust="spacing" textLength="151" x="219" y="478.626">agoraEngine.joinChannel()</text><polygon fill="#0A9EFD" points="154,523.2783,144,527.2783,154,531.2783,150,527.2783" style="stroke:#0A9EFD;stroke-width:1.0;"/><line style="stroke:#0A9EFD;stroke-width:2.0;" x1="148" x2="441" y1="527.2783" y2="527.2783"/><text fill="#0A9EFD" font-family="Arial" font-size="13" lengthAdjust="spacing" textLength="116" x="234.5" y="507.5747">Remote user joined:</text><text fill="#0A9EFD" font-family="Arial" font-size="13" lengthAdjust="spacing" textLength="87" x="251" y="522.5234">onUserJoined()</text><polygon fill="#0A9EFD" points="430,567.1758,440,571.1758,430,575.1758,434,571.1758" style="stroke:#0A9EFD;stroke-width:1.0;"/><line style="stroke:#0A9EFD;stroke-width:2.0;" x1="143" x2="436" y1="571.1758" y2="571.1758"/><text fill="#0A9EFD" font-family="Arial" font-size="13" lengthAdjust="spacing" textLength="196" x="192.5" y="551.4722">Display video from a remote user:</text><text fill="#0A9EFD" font-family="Arial" font-size="13" lengthAdjust="spacing" textLength="271" x="159" y="566.4209">agoraEngine.setupRemoteVideo(VideoCanvas)</text><polygon fill="#0A9EFD" points="131,603.1245,141,607.1245,131,611.1245,135,607.1245" style="stroke:#0A9EFD;stroke-width:1.0;"/><line style="stroke:#0A9EFD;stroke-width:2.0;" x1="38" x2="137" y1="607.1245" y2="607.1245"/><text fill="#0A9EFD" font-family="Arial" font-size="13" lengthAdjust="spacing" textLength="81" x="50" y="602.3696">Leave the call</text><polygon fill="#0A9EFD" points="430,647.022,440,651.022,430,655.022,434,651.022" style="stroke:#0A9EFD;stroke-width:1.0;"/><line style="stroke:#0A9EFD;stroke-width:2.0;" x1="143" x2="436" y1="651.022" y2="651.022"/><text fill="#0A9EFD" font-family="Arial" font-size="13" lengthAdjust="spacing" textLength="110" x="235.5" y="631.3184">Leave the channel:</text><text fill="#0A9EFD" font-family="Arial" font-size="13" lengthAdjust="spacing" textLength="162" x="213.5" y="646.2671">agoraEngine.leaveChannel()</text><polygon fill="#0A9EFD" points="131,675.9707,141,679.9707,131,683.9707,135,679.9707" style="stroke:#0A9EFD;stroke-width:1.0;"/><line style="stroke:#0A9EFD;stroke-width:2.0;" x1="38" x2="137" y1="679.9707" y2="679.9707"/><text fill="#0A9EFD" font-family="Arial" font-size="13" lengthAdjust="spacing" textLength="58" x="61.5" y="675.2158">Close app</text><line style="stroke:#0A9EFD;stroke-width:2.0;" x1="143" x2="185" y1="723.8682" y2="723.8682"/><line style="stroke:#0A9EFD;stroke-width:2.0;" x1="185" x2="185" y1="723.8682" y2="736.8682"/><line style="stroke:#0A9EFD;stroke-width:2.0;" x1="144" x2="185" y1="736.8682" y2="736.8682"/><polygon fill="#0A9EFD" points="154,732.8682,144,736.8682,154,740.8682,150,736.8682" style="stroke:#0A9EFD;stroke-width:1.0;"/><text fill="#0A9EFD" font-family="Arial" font-size="13" lengthAdjust="spacing" textLength="147" x="150" y="704.1646">Clean up local resources:</text><text fill="#0A9EFD" font-family="Arial" font-size="13" lengthAdjust="spacing" textLength="127" x="166" y="719.1133">agoraEngine.destroy()</text><!--SRC=[PLD1JiCm4Bpx5KjESA0Fg02fQZaK45Gf824X8PCinU2kBTi9y2aUmSjOsr5RjnShpkxCU6Vi8qMDxbe4kJ9EllXFHIFLhRKGiWd6GVNWqLKWFJmiQo5UpJTKJwPp8AsjXB3I1TKeAob0zQXQDB2SNQV-oM8X158BZ1c0awYnZrhEwllRlzy1Cz_1i2ASNaIYCTnP99XOAtYt-Jad5PGC2E4T8P73vWo0j5A4OtYcFDjbsiCvrA79twF68QCBoakIhpeJzebgRTfE7z2CCFKbjUCJ8LRET1QYLyMfhunY63HIwq9bYO7RjU52bXdlqVlOS1FhMIAjKqczz2SbKs0l1oRhi5VuTS0LMnQvTboYQmnEOS_fTpmnSIWoA4CGp2V65JxY0Csx9CAT2UR3PD6beRWl6e7JN1eqpqupiiQruSWwzYhHOnknXg9vLsc_UqW6p9ItMluCURmvisPBtPRb89jaNfOvT0_Y_IhlrWtAFaTU1ZKlIiES-s8wTcmdBOYdsdYCBwKmVSeGWat-3Zs_fmPzeYwuM_J1cPz8-my0]--></g></svg>