<?xml version="1.0" encoding="us-ascii" standalone="no"?><svg xmlns="http://www.w3.org/2000/svg" xmlns:xlink="http://www.w3.org/1999/xlink" contentStyleType="text/css" height="848px" preserveAspectRatio="none" style="width:792px;height:848px;" version="1.1" viewBox="0 0 792 848" width="792px" zoomAndPan="magnify"><defs/><g><rect fill="none" height="846.4722" style="stroke:#0A9EFD;stroke-width:1.0;" width="790" x="0" y="0"/><rect fill="#999999" fill-opacity="0.33333" height="836.4722" style="stroke:#0A9EFD;stroke-width:0.5;" width="523" x="16" y="6"/><text fill="#0A9EFD" font-family="sans-serif" font-size="13" font-weight="bold" lengthAdjust="spacing" textLength="110" x="222.5" y="19.4951">Call implementer</text><rect fill="#999999" fill-opacity="0.33333" height="836.4722" style="stroke:#0A9EFD;stroke-width:0.5;" width="116" x="664" y="6"/><text fill="#0A9EFD" font-family="sans-serif" font-size="13" font-weight="bold" lengthAdjust="spacing" textLength="38" x="703" y="19.4951">Agora</text><rect fill="#0A9EFD" fill-opacity="0.06667" height="326.5386" style="stroke:#0A9EFD;stroke-width:2.0;" width="717" x="10" y="74.4502"/><rect fill="#0A9EFD" fill-opacity="0.06667" height="203.6411" style="stroke:#0A9EFD;stroke-width:2.0;" width="776" x="10" y="414.9888"/><rect fill="#0A9EFD" fill-opacity="0.06667" height="158.7437" style="stroke:#0A9EFD;stroke-width:2.0;" width="776" x="10" y="632.6299"/><line style="stroke:#0A9EFD;stroke-width:0.5;stroke-dasharray:5.0,5.0;" x1="45" x2="45" y1="57.4502" y2="808.3735"/><line style="stroke:#0A9EFD;stroke-width:0.5;stroke-dasharray:5.0,5.0;" x1="307" x2="307" y1="57.4502" y2="808.3735"/><line style="stroke:#0A9EFD;stroke-width:0.5;stroke-dasharray:5.0,5.0;" x1="510" x2="510" y1="57.4502" y2="808.3735"/><line style="stroke:#0A9EFD;stroke-width:0.5;stroke-dasharray:5.0,5.0;" x1="722" x2="722" y1="57.4502" y2="808.3735"/><rect fill="none" height="30.0986" rx="2.5" ry="2.5" style="stroke:#0A9EFD;stroke-width:2.0;" width="50" x="20" y="26.3516"/><text fill="#0A9EFD" font-family="Arial" font-size="14" lengthAdjust="spacing" textLength="36" x="27" y="46.4834">Client</text><rect fill="none" height="30.0986" rx="2.5" ry="2.5" style="stroke:#0A9EFD;stroke-width:2.0;" width="50" x="20" y="807.3735"/><text fill="#0A9EFD" font-family="Arial" font-size="14" lengthAdjust="spacing" textLength="36" x="27" y="827.5054">Client</text><rect fill="none" height="30.0986" rx="2.5" ry="2.5" style="stroke:#0A9EFD;stroke-width:2.0;" width="100" x="257" y="26.3516"/><text fill="#0A9EFD" font-family="Arial" font-size="14" lengthAdjust="spacing" textLength="86" x="264" y="46.4834">Token Server</text><rect fill="none" height="30.0986" rx="2.5" ry="2.5" style="stroke:#0A9EFD;stroke-width:2.0;" width="100" x="257" y="807.3735"/><text fill="#0A9EFD" font-family="Arial" font-size="14" lengthAdjust="spacing" textLength="86" x="264" y="827.5054">Token Server</text><rect fill="none" height="30.0986" rx="2.5" ry="2.5" style="stroke:#0A9EFD;stroke-width:2.0;" width="50" x="485" y="26.3516"/><text fill="#0A9EFD" font-family="Arial" font-size="14" lengthAdjust="spacing" textLength="36" x="492" y="46.4834">Client</text><rect fill="none" height="30.0986" rx="2.5" ry="2.5" style="stroke:#0A9EFD;stroke-width:2.0;" width="50" x="485" y="807.3735"/><text fill="#0A9EFD" font-family="Arial" font-size="14" lengthAdjust="spacing" textLength="36" x="492" y="827.5054">Client</text><rect fill="none" height="30.0986" rx="2.5" ry="2.5" style="stroke:#0A9EFD;stroke-width:2.0;" width="108" x="668" y="26.3516"/><text fill="#0A9EFD" font-family="Arial" font-size="14" lengthAdjust="spacing" textLength="94" x="675" y="46.4834">Agora Platform</text><rect fill="none" height="30.0986" rx="2.5" ry="2.5" style="stroke:#0A9EFD;stroke-width:2.0;" width="108" x="668" y="807.3735"/><text fill="#0A9EFD" font-family="Arial" font-size="14" lengthAdjust="spacing" textLength="94" x="675" y="827.5054">Agora Platform</text><path d="M10,74.4502 L124,74.4502 L124,81.3989 L114,91.3989 L10,91.3989 L10,74.4502 " fill="#EEEEEE" style="stroke:#0A9EFD;stroke-width:1.5;"/><rect fill="none" height="326.5386" style="stroke:#0A9EFD;stroke-width:2.0;" width="717" x="10" y="74.4502"/><text fill="#000000" font-family="Arial" font-size="13" lengthAdjust="spacing" textLength="69" x="25" y="87.644">Setup client</text><line style="stroke:#0A9EFD;stroke-width:2.0;" x1="45" x2="87" y1="112.3477" y2="112.3477"/><line style="stroke:#0A9EFD;stroke-width:2.0;" x1="87" x2="87" y1="112.3477" y2="125.3477"/><line style="stroke:#0A9EFD;stroke-width:2.0;" x1="46" x2="87" y1="125.3477" y2="125.3477"/><polygon fill="#0A9EFD" points="56,121.3477,46,125.3477,56,129.3477,52,125.3477" style="stroke:#0A9EFD;stroke-width:1.0;"/><text fill="#0A9EFD" font-family="Arial" font-size="13" lengthAdjust="spacing" textLength="198" x="52" y="107.5928">User login to implementor security</text><polygon fill="#0A9EFD" points="56,150.2964,46,154.2964,56,158.2964,52,154.2964" style="stroke:#0A9EFD;stroke-width:1.0;"/><polygon fill="#0A9EFD" points="295,150.2964,305,154.2964,295,158.2964,299,154.2964" style="stroke:#0A9EFD;stroke-width:1.0;"/><line style="stroke:#0A9EFD;stroke-width:2.0;" x1="50" x2="301" y1="154.2964" y2="154.2964"/><text fill="#0A9EFD" font-family="Arial" font-size="13" lengthAdjust="spacing" textLength="179" x="86.5" y="149.5415">Authenticate and retrieve token</text><line style="stroke:#0A9EFD;stroke-width:2.0;" x1="510" x2="552" y1="183.2451" y2="183.2451"/><line style="stroke:#0A9EFD;stroke-width:2.0;" x1="552" x2="552" y1="183.2451" y2="196.2451"/><line style="stroke:#0A9EFD;stroke-width:2.0;" x1="511" x2="552" y1="196.2451" y2="196.2451"/><polygon fill="#0A9EFD" points="521,192.2451,511,196.2451,521,200.2451,517,196.2451" style="stroke:#0A9EFD;stroke-width:1.0;"/><text fill="#0A9EFD" font-family="Arial" font-size="13" lengthAdjust="spacing" textLength="198" x="517" y="178.4902">User login to implementor security</text><polygon fill="#0A9EFD" points="318,221.1938,308,225.1938,318,229.1938,314,225.1938" style="stroke:#0A9EFD;stroke-width:1.0;"/><polygon fill="#0A9EFD" points="498,221.1938,508,225.1938,498,229.1938,502,225.1938" style="stroke:#0A9EFD;stroke-width:1.0;"/><line style="stroke:#0A9EFD;stroke-width:2.0;" x1="312" x2="504" y1="225.1938" y2="225.1938"/><text fill="#0A9EFD" font-family="Arial" font-size="13" lengthAdjust="spacing" textLength="179" x="319" y="220.439">Authenticate and retrieve token</text><line style="stroke:#0A9EFD;stroke-width:2.0;" x1="45" x2="87" y1="254.1426" y2="254.1426"/><line style="stroke:#0A9EFD;stroke-width:2.0;" x1="87" x2="87" y1="254.1426" y2="267.1426"/><line style="stroke:#0A9EFD;stroke-width:2.0;" x1="46" x2="87" y1="267.1426" y2="267.1426"/><polygon fill="#0A9EFD" points="56,263.1426,46,267.1426,56,271.1426,52,267.1426" style="stroke:#0A9EFD;stroke-width:1.0;"/><text fill="#0A9EFD" font-family="Arial" font-size="13" lengthAdjust="spacing" textLength="126" x="52" y="249.3877">Create client instance</text><line style="stroke:#0A9EFD;stroke-width:2.0;" x1="45" x2="87" y1="296.0913" y2="296.0913"/><line style="stroke:#0A9EFD;stroke-width:2.0;" x1="87" x2="87" y1="296.0913" y2="309.0913"/><line style="stroke:#0A9EFD;stroke-width:2.0;" x1="46" x2="87" y1="309.0913" y2="309.0913"/><polygon fill="#0A9EFD" points="56,305.0913,46,309.0913,56,313.0913,52,309.0913" style="stroke:#0A9EFD;stroke-width:1.0;"/><text fill="#0A9EFD" font-family="Arial" font-size="13" lengthAdjust="spacing" textLength="113" x="52" y="291.3364">Set client role: host</text><line style="stroke:#0A9EFD;stroke-width:2.0;" x1="510" x2="552" y1="338.04" y2="338.04"/><line style="stroke:#0A9EFD;stroke-width:2.0;" x1="552" x2="552" y1="338.04" y2="351.04"/><line style="stroke:#0A9EFD;stroke-width:2.0;" x1="511" x2="552" y1="351.04" y2="351.04"/><polygon fill="#0A9EFD" points="521,347.04,511,351.04,521,355.04,517,351.04" style="stroke:#0A9EFD;stroke-width:1.0;"/><text fill="#0A9EFD" font-family="Arial" font-size="13" lengthAdjust="spacing" textLength="130" x="517" y="333.2852">Create  client instance</text><line style="stroke:#0A9EFD;stroke-width:2.0;" x1="510" x2="552" y1="379.9888" y2="379.9888"/><line style="stroke:#0A9EFD;stroke-width:2.0;" x1="552" x2="552" y1="379.9888" y2="392.9888"/><line style="stroke:#0A9EFD;stroke-width:2.0;" x1="511" x2="552" y1="392.9888" y2="392.9888"/><polygon fill="#0A9EFD" points="521,388.9888,511,392.9888,521,396.9888,517,392.9888" style="stroke:#0A9EFD;stroke-width:1.0;"/><text fill="#0A9EFD" font-family="Arial" font-size="13" lengthAdjust="spacing" textLength="140" x="517" y="375.2339">Set client role: audience</text><path d="M10,414.9888 L102,414.9888 L102,421.9375 L92,431.9375 L10,431.9375 L10,414.9888 " fill="#EEEEEE" style="stroke:#0A9EFD;stroke-width:1.5;"/><rect fill="none" height="203.6411" style="stroke:#0A9EFD;stroke-width:2.0;" width="776" x="10" y="414.9888"/><text fill="#000000" font-family="Arial" font-size="13" lengthAdjust="spacing" textLength="47" x="25" y="428.1826">Run call</text><line style="stroke:#0A9EFD;stroke-width:2.0;" x1="45" x2="87" y1="452.8862" y2="452.8862"/><line style="stroke:#0A9EFD;stroke-width:2.0;" x1="87" x2="87" y1="452.8862" y2="465.8862"/><line style="stroke:#0A9EFD;stroke-width:2.0;" x1="46" x2="87" y1="465.8862" y2="465.8862"/><polygon fill="#0A9EFD" points="56,461.8862,46,465.8862,56,469.8862,52,465.8862" style="stroke:#0A9EFD;stroke-width:1.0;"/><text fill="#0A9EFD" font-family="Arial" font-size="13" lengthAdjust="spacing" textLength="248" x="52" y="448.1313">Connect to local audio and video resources</text><polygon fill="#0A9EFD" points="710,490.835,720,494.835,710,498.835,714,494.835" style="stroke:#0A9EFD;stroke-width:1.0;"/><line style="stroke:#0A9EFD;stroke-width:2.0;" x1="45" x2="716" y1="494.835" y2="494.835"/><text fill="#0A9EFD" font-family="Arial" font-size="13" lengthAdjust="spacing" textLength="72" x="347.5" y="490.0801">Join channel</text><polygon fill="#0A9EFD" points="710,519.7837,720,523.7837,710,527.7837,714,523.7837" style="stroke:#0A9EFD;stroke-width:1.0;"/><line style="stroke:#0A9EFD;stroke-width:2.0;" x1="45" x2="716" y1="523.7837" y2="523.7837"/><text fill="#0A9EFD" font-family="Arial" font-size="13" lengthAdjust="spacing" textLength="187" x="290" y="519.0288">Send audio and video to channel</text><polygon fill="#0A9EFD" points="710,548.7324,720,552.7324,710,556.7324,714,552.7324" style="stroke:#0A9EFD;stroke-width:1.0;"/><line style="stroke:#0A9EFD;stroke-width:2.0;" x1="510" x2="716" y1="552.7324" y2="552.7324"/><text fill="#0A9EFD" font-family="Arial" font-size="13" lengthAdjust="spacing" textLength="72" x="580" y="547.9775">Join channel</text><polygon fill="#0A9EFD" points="521,577.6812,511,581.6812,521,585.6812,517,581.6812" style="stroke:#0A9EFD;stroke-width:1.0;"/><line style="stroke:#0A9EFD;stroke-width:2.0;" x1="515" x2="721" y1="581.6812" y2="581.6812"/><text fill="#0A9EFD" font-family="Arial" font-size="13" lengthAdjust="spacing" textLength="187" x="522.5" y="576.9263">Send audio and video to channel</text><polygon fill="#0A9EFD" points="56,606.6299,46,610.6299,56,614.6299,52,610.6299" style="stroke:#0A9EFD;stroke-width:1.0;"/><polygon fill="#0A9EFD" points="498,606.6299,508,610.6299,498,614.6299,502,610.6299" style="stroke:#0A9EFD;stroke-width:1.0;"/><line style="stroke:#0A9EFD;stroke-width:2.0;" x1="50" x2="504" y1="610.6299" y2="610.6299"/><text fill="#0A9EFD" font-family="Arial" font-size="13" lengthAdjust="spacing" textLength="80" x="237.5" y="605.875">Communicate</text><path d="M10,632.6299 L102,632.6299 L102,639.5786 L92,649.5786 L10,649.5786 L10,632.6299 " fill="#EEEEEE" style="stroke:#0A9EFD;stroke-width:1.5;"/><rect fill="none" height="158.7437" style="stroke:#0A9EFD;stroke-width:2.0;" width="776" x="10" y="632.6299"/><text fill="#000000" font-family="Arial" font-size="13" lengthAdjust="spacing" textLength="47" x="25" y="645.8237">End call</text><line style="stroke:#0A9EFD;stroke-width:2.0;" x1="510" x2="552" y1="670.5273" y2="670.5273"/><line style="stroke:#0A9EFD;stroke-width:2.0;" x1="552" x2="552" y1="670.5273" y2="683.5273"/><line style="stroke:#0A9EFD;stroke-width:2.0;" x1="511" x2="552" y1="683.5273" y2="683.5273"/><polygon fill="#0A9EFD" points="521,679.5273,511,683.5273,521,687.5273,517,683.5273" style="stroke:#0A9EFD;stroke-width:1.0;"/><text fill="#0A9EFD" font-family="Arial" font-size="13" lengthAdjust="spacing" textLength="126" x="517" y="665.7725">Close audio and video</text><polygon fill="#0A9EFD" points="710,708.4761,720,712.4761,710,716.4761,714,712.4761" style="stroke:#0A9EFD;stroke-width:1.0;"/><line style="stroke:#0A9EFD;stroke-width:2.0;" x1="510" x2="716" y1="712.4761" y2="712.4761"/><text fill="#0A9EFD" font-family="Arial" font-size="13" lengthAdjust="spacing" textLength="57" x="587.5" y="707.7212">Leave call</text><line style="stroke:#0A9EFD;stroke-width:2.0;" x1="45" x2="87" y1="741.4248" y2="741.4248"/><line style="stroke:#0A9EFD;stroke-width:2.0;" x1="87" x2="87" y1="741.4248" y2="754.4248"/><line style="stroke:#0A9EFD;stroke-width:2.0;" x1="46" x2="87" y1="754.4248" y2="754.4248"/><polygon fill="#0A9EFD" points="56,750.4248,46,754.4248,56,758.4248,52,754.4248" style="stroke:#0A9EFD;stroke-width:1.0;"/><text fill="#0A9EFD" font-family="Arial" font-size="13" lengthAdjust="spacing" textLength="126" x="52" y="736.6699">Close audio and video</text><polygon fill="#0A9EFD" points="710,779.3735,720,783.3735,710,787.3735,714,783.3735" style="stroke:#0A9EFD;stroke-width:1.0;"/><line style="stroke:#0A9EFD;stroke-width:2.0;" x1="45" x2="716" y1="783.3735" y2="783.3735"/><text fill="#0A9EFD" font-family="Arial" font-size="13" lengthAdjust="spacing" textLength="57" x="355" y="778.6187">Leave call</text><!--SRC=[bLBBJiCm4BpxAvRUuP1ZX92YY0lY43NbZ8opj5OTR-H71N_FncbQzy7hKYdUcTcPsTvegqpi4EIQd7prMstlTEoD46_q0OjQ6WEw7mpsQ0EwXHYa2rhfGTh0OwFvUG7IGrMVZbQqHGijkXspHi2g_O5R2BGTy4gnNroDTiwsfJTeZ0plvFg9sMJ4jQCuyCh0logf2r7LSFl02qfuyUZ0q5fR27JCH0uygkXq-1p1zunUjILKCMnugfKCt0slS1YSnXqocOCnj9Y4Ypyg5_-GdYtN3aVCb0MqzK5QXHc0iyvJHmPBs91FeO_czXfNH8wO2naPE_vYrDZkNEmoMb3yVyWDahMemXZR4CyIaLAedUwGE9gdw1JwcTIKy4HSbDf8ffhikHqFUSvduHbvS7mXqMH1VjL8PvYQeRwFDfqXZ_d8n1Jpj4P37i-bSqlFAFc2C_5Gq3UqQwpauGi0]--></g></svg>