<?xml version="1.0" encoding="us-ascii" standalone="no"?><svg xmlns="http://www.w3.org/2000/svg" xmlns:xlink="http://www.w3.org/1999/xlink" contentStyleType="text/css" height="913px" preserveAspectRatio="none" style="width:571px;height:913px;background:#FFFFFF;" version="1.1" viewBox="0 0 571 913" width="571px" zoomAndPan="magnify"><defs><style type="text/css">@import url('https://fonts.googleapis.com/css?family=Roboto:400,100,100italic,300,300italic,400italic,500,500italic,700,700italic,900,900italic');</style></defs><g><rect fill="none" height="911.1836" style="stroke:#0A9EFD;stroke-width:1.0;" width="569.5" x="0" y="0"/><rect fill="#F3F3F3" height="901.1836" style="stroke:#0A9EFD;stroke-width:0.5;" width="97" x="112.5" y="6"/><text fill="#0A9EFD" font-family="sans-serif" font-size="13" font-weight="bold" lengthAdjust="spacing" textLength="62" x="130" y="18.5684">Your app</text><rect fill="#F3F3F3" height="901.1836" style="stroke:#0A9EFD;stroke-width:0.5;" width="81" x="478.5" y="6"/><text fill="#0A9EFD" font-family="sans-serif" font-size="13" font-weight="bold" lengthAdjust="spacing" textLength="41" x="498.5" y="18.5684">Agora</text><rect fill="#FFFFFF" height="383.8359" style="stroke:#0A9EFD;stroke-width:2.0;" width="555.5" x="10" y="253.9297"/><line style="stroke:#0A9EFD;stroke-width:0.5;stroke-dasharray:5.0,5.0;" x1="39" x2="39" y1="86.4883" y2="822.6953"/><line style="stroke:#0A9EFD;stroke-width:0.5;stroke-dasharray:5.0,5.0;" x1="160.5" x2="160.5" y1="86.4883" y2="822.6953"/><line style="stroke:#0A9EFD;stroke-width:0.5;stroke-dasharray:5.0,5.0;" x1="518.5" x2="518.5" y1="86.4883" y2="822.6953"/><text fill="#0A9EFD" font-family="Roboto" font-size="14" font-weight="bold" lengthAdjust="spacing" textLength="32" x="20" y="83.5352">User</text><ellipse cx="39" cy="16" fill="none" rx="8" ry="8" style="stroke:#0A9EFD;stroke-width:3.0;"/><path d="M39,24 L39,51 M26,32 L52,32 M39,51 L26,66 M39,51 L52,66 " fill="none" style="stroke:#0A9EFD;stroke-width:3.0;"/><text fill="#0A9EFD" font-family="Roboto" font-size="14" font-weight="bold" lengthAdjust="spacing" textLength="32" x="20" y="835.2305">User</text><ellipse cx="39" cy="849.1836" fill="none" rx="8" ry="8" style="stroke:#0A9EFD;stroke-width:3.0;"/><path d="M39,857.1836 L39,884.1836 M26,865.1836 L52,865.1836 M39,884.1836 L26,899.1836 M39,884.1836 L52,899.1836 " fill="none" style="stroke:#0A9EFD;stroke-width:3.0;"/><rect fill="#FFFFFF" height="30.4883" rx="2.5" ry="2.5" style="stroke:#0A9EFD;stroke-width:2.0;" width="89" x="116.5" y="55"/><text fill="#0A9EFD" font-family="Roboto" font-size="14" font-weight="bold" lengthAdjust="spacing" textLength="75" x="123.5" y="75.5352">Video SDK</text><rect fill="#FFFFFF" height="30.4883" rx="2.5" ry="2.5" style="stroke:#0A9EFD;stroke-width:2.0;" width="89" x="116.5" y="821.6953"/><text fill="#0A9EFD" font-family="Roboto" font-size="14" font-weight="bold" lengthAdjust="spacing" textLength="75" x="123.5" y="842.2305">Video SDK</text><rect fill="#FFFFFF" height="30.4883" rx="2.5" ry="2.5" style="stroke:#0A9EFD;stroke-width:2.0;" width="73" x="482.5" y="55"/><text fill="#0A9EFD" font-family="Roboto" font-size="14" font-weight="bold" lengthAdjust="spacing" textLength="59" x="489.5" y="75.5352">SD-RTN</text><rect fill="#FFFFFF" height="30.4883" rx="2.5" ry="2.5" style="stroke:#0A9EFD;stroke-width:2.0;" width="73" x="482.5" y="821.6953"/><text fill="#0A9EFD" font-family="Roboto" font-size="14" font-weight="bold" lengthAdjust="spacing" textLength="59" x="489.5" y="842.2305">SD-RTN</text><polygon fill="#0A9EFD" points="149,114.9766,159,118.9766,149,122.9766,153,118.9766" style="stroke:#0A9EFD;stroke-width:1.0;"/><line style="stroke:#0A9EFD;stroke-width:2.0;" x1="39" x2="155" y1="118.9766" y2="118.9766"/><text fill="#0A9EFD" font-family="Roboto" font-size="14" font-weight="bold" lengthAdjust="spacing" textLength="71" x="64.5" y="114.0234">Open App</text><line style="stroke:#0A9EFD;stroke-width:2.0;" x1="161" x2="203" y1="165.9531" y2="165.9531"/><line style="stroke:#0A9EFD;stroke-width:2.0;" x1="203" x2="203" y1="165.9531" y2="178.9531"/><line style="stroke:#0A9EFD;stroke-width:2.0;" x1="162" x2="203" y1="178.9531" y2="178.9531"/><polygon fill="#0A9EFD" points="172,174.9531,162,178.9531,172,182.9531,168,178.9531" style="stroke:#0A9EFD;stroke-width:1.0;"/><text fill="#0A9EFD" font-family="Roboto" font-size="14" font-weight="bold" lengthAdjust="spacing" textLength="263" x="168" y="144.5117">Initiate the Agora Video SDK engine:</text><text fill="#0A9EFD" font-family="Roboto" font-size="14" font-weight="bold" lengthAdjust="spacing" textLength="226" x="191.5" y="161">agoraEngine = RtcEngine.create</text><line style="stroke:#0A9EFD;stroke-width:2.0;" x1="161" x2="203" y1="225.9297" y2="225.9297"/><line style="stroke:#0A9EFD;stroke-width:2.0;" x1="203" x2="203" y1="225.9297" y2="238.9297"/><line style="stroke:#0A9EFD;stroke-width:2.0;" x1="162" x2="203" y1="238.9297" y2="238.9297"/><polygon fill="#0A9EFD" points="172,234.9297,162,238.9297,172,242.9297,168,238.9297" style="stroke:#0A9EFD;stroke-width:1.0;"/><text fill="#0A9EFD" font-family="Roboto" font-size="14" font-weight="bold" lengthAdjust="spacing" textLength="181" x="172" y="204.4883">Enable the video module:</text><text fill="#0A9EFD" font-family="Roboto" font-size="14" font-weight="bold" lengthAdjust="spacing" textLength="189" x="173" y="220.9766">agoraEngine.enableVideo()</text><path d="M10,253.9297 L87,253.9297 L87,262.418 L77,272.418 L10,272.418 L10,253.9297 " fill="#EEEEEE" style="stroke:#0A9EFD;stroke-width:1.5;"/><rect fill="none" height="383.8359" style="stroke:#0A9EFD;stroke-width:2.0;" width="555.5" x="10" y="253.9297"/><text fill="#0A9EFD" font-family="Roboto" font-size="14" font-weight="bold" lengthAdjust="spacing" textLength="32" x="25" y="268.4648">User</text><polygon fill="#0A9EFD" points="149,290.9063,159,294.9063,149,298.9063,153,294.9063" style="stroke:#0A9EFD;stroke-width:1.0;"/><line style="stroke:#0A9EFD;stroke-width:2.0;" x1="39" x2="155" y1="294.9063" y2="294.9063"/><text fill="#0A9EFD" font-family="Roboto" font-size="14" font-weight="bold" lengthAdjust="spacing" textLength="72" x="64" y="289.9531">Join a call</text><line style="stroke:#0A9EFD;stroke-width:2.0;" x1="161" x2="203" y1="341.8828" y2="341.8828"/><line style="stroke:#0A9EFD;stroke-width:2.0;" x1="203" x2="203" y1="341.8828" y2="354.8828"/><line style="stroke:#0A9EFD;stroke-width:2.0;" x1="162" x2="203" y1="354.8828" y2="354.8828"/><polygon fill="#0A9EFD" points="172,350.8828,162,354.8828,172,358.8828,168,354.8828" style="stroke:#0A9EFD;stroke-width:1.0;"/><text fill="#0A9EFD" font-family="Roboto" font-size="14" font-weight="bold" lengthAdjust="spacing" textLength="126" x="263" y="320.4414">Setup local video:</text><text fill="#0A9EFD" font-family="Roboto" font-size="14" font-weight="bold" lengthAdjust="spacing" textLength="311" x="173" y="336.9297">agoraEngine.setupLocalVideo(VideoCanvas)</text><line style="stroke:#0A9EFD;stroke-width:2.0;" x1="161" x2="203" y1="401.8594" y2="401.8594"/><line style="stroke:#0A9EFD;stroke-width:2.0;" x1="203" x2="203" y1="401.8594" y2="414.8594"/><line style="stroke:#0A9EFD;stroke-width:2.0;" x1="162" x2="203" y1="414.8594" y2="414.8594"/><polygon fill="#0A9EFD" points="172,410.8594,162,414.8594,172,418.8594,168,414.8594" style="stroke:#0A9EFD;stroke-width:1.0;"/><text fill="#0A9EFD" font-family="Roboto" font-size="14" font-weight="bold" lengthAdjust="spacing" textLength="137" x="197.5" y="380.418">Start local preview:</text><text fill="#0A9EFD" font-family="Roboto" font-size="14" font-weight="bold" lengthAdjust="spacing" textLength="191" x="173" y="396.9063">agoraEngine.startPreview()</text><line style="stroke:#0A9EFD;stroke-width:2.0;" x1="161" x2="203" y1="445.3477" y2="445.3477"/><line style="stroke:#0A9EFD;stroke-width:2.0;" x1="203" x2="203" y1="445.3477" y2="458.3477"/><line style="stroke:#0A9EFD;stroke-width:2.0;" x1="162" x2="203" y1="458.3477" y2="458.3477"/><polygon fill="#0A9EFD" points="172,454.3477,162,458.3477,172,462.3477,168,458.3477" style="stroke:#0A9EFD;stroke-width:1.0;"/><text fill="#0A9EFD" font-family="Roboto" font-size="14" font-weight="bold" lengthAdjust="spacing" textLength="327" x="168" y="440.3945">Retrieve authentication token to join channel</text><polygon fill="#0A9EFD" points="507,501.3242,517,505.3242,507,509.3242,511,505.3242" style="stroke:#0A9EFD;stroke-width:1.0;"/><line style="stroke:#0A9EFD;stroke-width:2.0;" x1="161" x2="513" y1="505.3242" y2="505.3242"/><text fill="#0A9EFD" font-family="Roboto" font-size="14" font-weight="bold" lengthAdjust="spacing" textLength="120" x="280" y="483.8828">Join the channel:</text><text fill="#0A9EFD" font-family="Roboto" font-size="14" font-weight="bold" lengthAdjust="spacing" textLength="187" x="249" y="500.3711">agoraEngine.joinChannel()</text><polygon fill="#0A9EFD" points="172,548.3008,162,552.3008,172,556.3008,168,552.3008" style="stroke:#0A9EFD;stroke-width:1.0;"/><line style="stroke:#0A9EFD;stroke-width:2.0;" x1="166" x2="518" y1="552.3008" y2="552.3008"/><text fill="#0A9EFD" font-family="Roboto" font-size="14" font-weight="bold" lengthAdjust="spacing" textLength="144" x="268" y="530.8594">Remote user joined:</text><text fill="#0A9EFD" font-family="Roboto" font-size="14" font-weight="bold" lengthAdjust="spacing" textLength="106" x="289.5" y="547.3477">onUserJoined()</text><polygon fill="#0A9EFD" points="507,595.2773,517,599.2773,507,603.2773,511,599.2773" style="stroke:#0A9EFD;stroke-width:1.0;"/><line style="stroke:#0A9EFD;stroke-width:2.0;" x1="161" x2="513" y1="599.2773" y2="599.2773"/><text fill="#0A9EFD" font-family="Roboto" font-size="14" font-weight="bold" lengthAdjust="spacing" textLength="300" x="187.5" y="577.8359">Retrieve streaming from the remote user:</text><text fill="#0A9EFD" font-family="Roboto" font-size="14" font-weight="bold" lengthAdjust="spacing" textLength="329" x="178" y="594.3242">agoraEngine.setupRemoteVideo(VideoCanvas)</text><polygon fill="#0A9EFD" points="172,625.7656,162,629.7656,172,633.7656,168,629.7656" style="stroke:#0A9EFD;stroke-width:1.0;"/><polygon fill="#0A9EFD" points="507,625.7656,517,629.7656,507,633.7656,511,629.7656" style="stroke:#0A9EFD;stroke-width:1.0;"/><line style="stroke:#0A9EFD;stroke-width:2.0;" x1="166" x2="513" y1="629.7656" y2="629.7656"/><text fill="#0A9EFD" font-family="Roboto" font-size="14" font-weight="bold" lengthAdjust="spacing" textLength="223" x="228.5" y="624.8125">Receive and send data streams</text><polygon fill="#0A9EFD" points="149,663.2539,159,667.2539,149,671.2539,153,667.2539" style="stroke:#0A9EFD;stroke-width:1.0;"/><line style="stroke:#0A9EFD;stroke-width:2.0;" x1="39" x2="155" y1="667.2539" y2="667.2539"/><text fill="#0A9EFD" font-family="Roboto" font-size="14" font-weight="bold" lengthAdjust="spacing" textLength="98" x="51" y="662.3008">Leave the call</text><polygon fill="#0A9EFD" points="507,710.2305,517,714.2305,507,718.2305,511,714.2305" style="stroke:#0A9EFD;stroke-width:1.0;"/><line style="stroke:#0A9EFD;stroke-width:2.0;" x1="161" x2="513" y1="714.2305" y2="714.2305"/><text fill="#0A9EFD" font-family="Roboto" font-size="14" font-weight="bold" lengthAdjust="spacing" textLength="131" x="272" y="692.7891">Leave the channel:</text><text fill="#0A9EFD" font-family="Roboto" font-size="14" font-weight="bold" lengthAdjust="spacing" textLength="196" x="244.5" y="709.2773">agoraEngine.leaveChannel()</text><polygon fill="#0A9EFD" points="149,740.7188,159,744.7188,149,748.7188,153,744.7188" style="stroke:#0A9EFD;stroke-width:1.0;"/><line style="stroke:#0A9EFD;stroke-width:2.0;" x1="39" x2="155" y1="744.7188" y2="744.7188"/><text fill="#0A9EFD" font-family="Roboto" font-size="14" font-weight="bold" lengthAdjust="spacing" textLength="71" x="64.5" y="739.7656">Close app</text><line style="stroke:#0A9EFD;stroke-width:2.0;" x1="161" x2="203" y1="791.6953" y2="791.6953"/><line style="stroke:#0A9EFD;stroke-width:2.0;" x1="203" x2="203" y1="791.6953" y2="804.6953"/><line style="stroke:#0A9EFD;stroke-width:2.0;" x1="162" x2="203" y1="804.6953" y2="804.6953"/><polygon fill="#0A9EFD" points="172,800.6953,162,804.6953,172,808.6953,168,804.6953" style="stroke:#0A9EFD;stroke-width:1.0;"/><text fill="#0A9EFD" font-family="Roboto" font-size="14" font-weight="bold" lengthAdjust="spacing" textLength="179" x="168" y="770.2539">Clean up local resources:</text><text fill="#0A9EFD" font-family="Roboto" font-size="14" font-weight="bold" lengthAdjust="spacing" textLength="155" x="187.5" y="786.7422">agoraEngine.destroy()</text><!--SRC=[PLF1Rjim3BthApYVsaFo0S4s84XxS5TiWRCE631WK6KkrMfJWYHxsz-Fb8mqIYw2PVAzHpvIxooPOUeHzD45_JE-MbhRQHoKqYQv0CrJnD20Zl1qw9HwTd-X-Uwc0DhxHYclGxB6Uaq9cc-sHmU7kqyvVxlVAuNK0sCMu5OqBb67krNtzVC2QSyWB0YhZyApWIyU2RRUAxwTVhPaazK98RqWP6uubG18HqkuWHzKMhlFT_W0NJBbUsq2ChgYl2VzF1J2ELEDhf-6AvervhoiTdEhr36uoODOLLNzu2p3mEXXg5GEc3XzS1meCfiB-YW9Zn8l4ldSQPfrlAsP4bkvCFc0iyK_LroIiY-ncnhTOGeMPnx-n1qJpqGdwmYIUqKvuRSqO5uq4Pvrq2wTYKjBy59KWBiIMZJVhmgomz7no2RsAjDZBrX7Ojv3lfyNsPuL6HFFQxHqX5_1ZLazl95TZIXxMDIkJGIMQBccan46hVZ0knTb0NkTz28OPIFhRNn4FPSbgKVRLg75cSkw1ibuywOYtWqkeZojQamxXX2SDYPWv0TeC6RgYhj7hjdz4zh_]--></g></svg>