<?xml version="1.0" encoding="us-ascii" standalone="no"?><svg xmlns="http://www.w3.org/2000/svg" xmlns:xlink="http://www.w3.org/1999/xlink" contentStyleType="text/css" height="831px" preserveAspectRatio="none" style="width:524px;height:831px;" version="1.1" viewBox="0 0 524 831" width="524px" zoomAndPan="magnify"><defs/><g><rect fill="none" height="829.9668" style="stroke:#0A9EFD;stroke-width:1.0;" width="522" x="0" y="0"/><rect fill="#999999" fill-opacity="0.33333" height="819.9668" style="stroke:#0A9EFD;stroke-width:0.5;" width="90" x="98" y="6"/><text fill="#0A9EFD" font-family="sans-serif" font-size="13" font-weight="bold" lengthAdjust="spacing" textLength="62" x="112" y="18.5684">Your app</text><rect fill="#999999" fill-opacity="0.33333" height="819.9668" style="stroke:#0A9EFD;stroke-width:0.5;" width="80" x="432" y="6"/><text fill="#0A9EFD" font-family="sans-serif" font-size="13" font-weight="bold" lengthAdjust="spacing" textLength="41" x="451.5" y="18.5684">Agora</text><rect fill="#0A9EFD" fill-opacity="0.06667" height="305.3848" style="stroke:#0A9EFD;stroke-width:2.0;" width="508" x="10" y="260.791"/><line style="stroke:#0A9EFD;stroke-width:0.5;stroke-dasharray:5.0,5.0;" x1="38" x2="38" y1="86.0986" y2="741.8682"/><line style="stroke:#0A9EFD;stroke-width:0.5;stroke-dasharray:5.0,5.0;" x1="143" x2="143" y1="86.0986" y2="741.8682"/><line style="stroke:#0A9EFD;stroke-width:0.5;stroke-dasharray:5.0,5.0;" x1="472" x2="472" y1="86.0986" y2="741.8682"/><text fill="#0A9EFD" font-family="Arial" font-size="14" lengthAdjust="spacing" textLength="30" x="20" y="83.1318">User</text><ellipse cx="38" cy="16" fill="none" rx="8" ry="8" style="stroke:#0A9EFD;stroke-width:3.0;"/><path d="M38,24 L38,51 M25,32 L51,32 M38,51 L25,66 M38,51 L51,66 " fill="none" style="stroke:#0A9EFD;stroke-width:3.0;"/><text fill="#0A9EFD" font-family="Arial" font-size="14" lengthAdjust="spacing" textLength="30" x="20" y="754">User</text><ellipse cx="38" cy="767.9668" fill="none" rx="8" ry="8" style="stroke:#0A9EFD;stroke-width:3.0;"/><path d="M38,775.9668 L38,802.9668 M25,783.9668 L51,783.9668 M38,802.9668 L25,817.9668 M38,802.9668 L51,817.9668 " fill="none" style="stroke:#0A9EFD;stroke-width:3.0;"/><rect fill="none" height="30.0986" rx="2.5" ry="2.5" style="stroke:#0A9EFD;stroke-width:2.0;" width="82" x="102" y="55"/><text fill="#0A9EFD" font-family="Arial" font-size="14" lengthAdjust="spacing" textLength="68" x="109" y="75.1318">Video SDK</text><rect fill="none" height="30.0986" rx="2.5" ry="2.5" style="stroke:#0A9EFD;stroke-width:2.0;" width="82" x="102" y="740.8682"/><text fill="#0A9EFD" font-family="Arial" font-size="14" lengthAdjust="spacing" textLength="68" x="109" y="761">Video SDK</text><rect fill="none" height="30.0986" rx="2.5" ry="2.5" style="stroke:#0A9EFD;stroke-width:2.0;" width="72" x="436" y="55"/><text fill="#0A9EFD" font-family="Arial" font-size="14" lengthAdjust="spacing" textLength="58" x="443" y="75.1318">SDRTN&#174;</text><rect fill="none" height="30.0986" rx="2.5" ry="2.5" style="stroke:#0A9EFD;stroke-width:2.0;" width="72" x="436" y="740.8682"/><text fill="#0A9EFD" font-family="Arial" font-size="14" lengthAdjust="spacing" textLength="58" x="443" y="761">SDRTN&#174;</text><polygon fill="#0A9EFD" points="131,113.0474,141,117.0474,131,121.0474,135,117.0474" style="stroke:#0A9EFD;stroke-width:1.0;"/><line style="stroke:#0A9EFD;stroke-width:2.0;" x1="38" x2="137" y1="117.0474" y2="117.0474"/><text fill="#0A9EFD" font-family="Arial" font-size="13" lengthAdjust="spacing" textLength="58" x="61.5" y="112.2925">Open App</text><line style="stroke:#0A9EFD;stroke-width:2.0;" x1="143" x2="185" y1="160.9448" y2="160.9448"/><line style="stroke:#0A9EFD;stroke-width:2.0;" x1="185" x2="185" y1="160.9448" y2="173.9448"/><line style="stroke:#0A9EFD;stroke-width:2.0;" x1="144" x2="185" y1="173.9448" y2="173.9448"/><polygon fill="#0A9EFD" points="154,169.9448,144,173.9448,154,177.9448,150,173.9448" style="stroke:#0A9EFD;stroke-width:1.0;"/><text fill="#0A9EFD" font-family="Arial" font-size="13" lengthAdjust="spacing" textLength="213" x="199" y="141.2412">Initiate the Agora Video SDK engine:</text><text fill="#0A9EFD" font-family="Arial" font-size="13" lengthAdjust="spacing" textLength="311" x="154" y="156.1899">agoraEngine = agora::rtc::ue::createAgoraRtcEngine()</text><line style="stroke:#0A9EFD;stroke-width:2.0;" x1="143" x2="185" y1="232.791" y2="232.791"/><line style="stroke:#0A9EFD;stroke-width:2.0;" x1="185" x2="185" y1="232.791" y2="245.791"/><line style="stroke:#0A9EFD;stroke-width:2.0;" x1="144" x2="185" y1="245.791" y2="245.791"/><polygon fill="#0A9EFD" points="154,241.791,144,245.791,154,249.791,150,245.791" style="stroke:#0A9EFD;stroke-width:1.0;"/><text fill="#0A9EFD" font-family="Arial" font-size="13" lengthAdjust="spacing" textLength="214" x="150" y="198.1387">Enable the audio and video modules:</text><text fill="#0A9EFD" font-family="Arial" font-size="13" lengthAdjust="spacing" textLength="163" x="177.5" y="213.0874">agoraEngine-&gt;enableVideo()</text><text fill="#0A9EFD" font-family="Arial" font-size="13" lengthAdjust="spacing" textLength="167" x="177.5" y="228.0361">agoraEngine-&gt;enableAudio();</text><path d="M10,260.791 L82,260.791 L82,267.7397 L72,277.7397 L10,277.7397 L10,260.791 " fill="#EEEEEE" style="stroke:#0A9EFD;stroke-width:1.5;"/><rect fill="none" height="305.3848" style="stroke:#0A9EFD;stroke-width:2.0;" width="508" x="10" y="260.791"/><text fill="#000000" font-family="Arial" font-size="13" lengthAdjust="spacing" textLength="27" x="25" y="273.9849">User</text><polygon fill="#0A9EFD" points="131,294.6885,141,298.6885,131,302.6885,135,298.6885" style="stroke:#0A9EFD;stroke-width:1.0;"/><line style="stroke:#0A9EFD;stroke-width:2.0;" x1="38" x2="137" y1="298.6885" y2="298.6885"/><text fill="#0A9EFD" font-family="Arial" font-size="13" lengthAdjust="spacing" textLength="59" x="61" y="293.9336">Join a call</text><line style="stroke:#0A9EFD;stroke-width:2.0;" x1="143" x2="185" y1="342.5859" y2="342.5859"/><line style="stroke:#0A9EFD;stroke-width:2.0;" x1="185" x2="185" y1="342.5859" y2="355.5859"/><line style="stroke:#0A9EFD;stroke-width:2.0;" x1="144" x2="185" y1="355.5859" y2="355.5859"/><polygon fill="#0A9EFD" points="154,351.5859,144,355.5859,154,359.5859,150,355.5859" style="stroke:#0A9EFD;stroke-width:1.0;"/><text fill="#0A9EFD" font-family="Arial" font-size="13" lengthAdjust="spacing" textLength="104" x="231.5" y="322.8823">Setup local video:</text><text fill="#0A9EFD" font-family="Arial" font-size="13" lengthAdjust="spacing" textLength="263" x="154" y="337.8311">agoraEngine-&gt;setupLocalVideo(videoCanvas)</text><line style="stroke:#0A9EFD;stroke-width:2.0;" x1="143" x2="185" y1="384.5347" y2="384.5347"/><line style="stroke:#0A9EFD;stroke-width:2.0;" x1="185" x2="185" y1="384.5347" y2="397.5347"/><line style="stroke:#0A9EFD;stroke-width:2.0;" x1="144" x2="185" y1="397.5347" y2="397.5347"/><polygon fill="#0A9EFD" points="154,393.5347,144,397.5347,154,401.5347,150,397.5347" style="stroke:#0A9EFD;stroke-width:1.0;"/><text fill="#0A9EFD" font-family="Arial" font-size="13" lengthAdjust="spacing" textLength="257" x="150" y="379.7798">Retrieve authentication token to join channel</text><polygon fill="#0A9EFD" points="460,437.4321,470,441.4321,460,445.4321,464,441.4321" style="stroke:#0A9EFD;stroke-width:1.0;"/><line style="stroke:#0A9EFD;stroke-width:2.0;" x1="143" x2="466" y1="441.4321" y2="441.4321"/><text fill="#0A9EFD" font-family="Arial" font-size="13" lengthAdjust="spacing" textLength="99" x="258" y="421.7285">Join the channel:</text><text fill="#0A9EFD" font-family="Arial" font-size="13" lengthAdjust="spacing" textLength="159" x="230" y="436.6772">agoraEngine-&gt;joinChannel()</text><polygon fill="#0A9EFD" points="154,481.3296,144,485.3296,154,489.3296,150,485.3296" style="stroke:#0A9EFD;stroke-width:1.0;"/><line style="stroke:#0A9EFD;stroke-width:2.0;" x1="148" x2="471" y1="485.3296" y2="485.3296"/><text fill="#0A9EFD" font-family="Arial" font-size="13" lengthAdjust="spacing" textLength="116" x="249.5" y="465.626">Remote user joined:</text><text fill="#0A9EFD" font-family="Arial" font-size="13" lengthAdjust="spacing" textLength="87" x="266" y="480.5747">onUserJoined()</text><polygon fill="#0A9EFD" points="460,525.2271,470,529.2271,460,533.2271,464,529.2271" style="stroke:#0A9EFD;stroke-width:1.0;"/><line style="stroke:#0A9EFD;stroke-width:2.0;" x1="143" x2="466" y1="529.2271" y2="529.2271"/><text fill="#0A9EFD" font-family="Arial" font-size="13" lengthAdjust="spacing" textLength="238" x="186.5" y="509.5234">Retrieve streaming from the remote user:</text><text fill="#0A9EFD" font-family="Arial" font-size="13" lengthAdjust="spacing" textLength="277" x="171" y="524.4722">agoraEngine-&gt;setupRemoteVideo(videoCanvas)</text><polygon fill="#0A9EFD" points="154,554.1758,144,558.1758,154,562.1758,150,558.1758" style="stroke:#0A9EFD;stroke-width:1.0;"/><polygon fill="#0A9EFD" points="460,554.1758,470,558.1758,460,562.1758,464,558.1758" style="stroke:#0A9EFD;stroke-width:1.0;"/><line style="stroke:#0A9EFD;stroke-width:2.0;" x1="148" x2="466" y1="558.1758" y2="558.1758"/><text fill="#0A9EFD" font-family="Arial" font-size="13" lengthAdjust="spacing" textLength="184" x="215.5" y="553.4209">Receive and send data streams</text><polygon fill="#0A9EFD" points="131,590.1245,141,594.1245,131,598.1245,135,594.1245" style="stroke:#0A9EFD;stroke-width:1.0;"/><line style="stroke:#0A9EFD;stroke-width:2.0;" x1="38" x2="137" y1="594.1245" y2="594.1245"/><text fill="#0A9EFD" font-family="Arial" font-size="13" lengthAdjust="spacing" textLength="81" x="50" y="589.3696">Leave the call</text><polygon fill="#0A9EFD" points="460,634.022,470,638.022,460,642.022,464,638.022" style="stroke:#0A9EFD;stroke-width:1.0;"/><line style="stroke:#0A9EFD;stroke-width:2.0;" x1="143" x2="466" y1="638.022" y2="638.022"/><text fill="#0A9EFD" font-family="Arial" font-size="13" lengthAdjust="spacing" textLength="110" x="250.5" y="618.3184">Leave the channel:</text><text fill="#0A9EFD" font-family="Arial" font-size="13" lengthAdjust="spacing" textLength="170" x="224.5" y="633.2671">agoraEngine-&gt;leaveChannel()</text><polygon fill="#0A9EFD" points="131,662.9707,141,666.9707,131,670.9707,135,666.9707" style="stroke:#0A9EFD;stroke-width:1.0;"/><line style="stroke:#0A9EFD;stroke-width:2.0;" x1="38" x2="137" y1="666.9707" y2="666.9707"/><text fill="#0A9EFD" font-family="Arial" font-size="13" lengthAdjust="spacing" textLength="58" x="61.5" y="662.2158">Close app</text><line style="stroke:#0A9EFD;stroke-width:2.0;" x1="143" x2="185" y1="710.8682" y2="710.8682"/><line style="stroke:#0A9EFD;stroke-width:2.0;" x1="185" x2="185" y1="710.8682" y2="723.8682"/><line style="stroke:#0A9EFD;stroke-width:2.0;" x1="144" x2="185" y1="723.8682" y2="723.8682"/><polygon fill="#0A9EFD" points="154,719.8682,144,723.8682,154,727.8682,150,723.8682" style="stroke:#0A9EFD;stroke-width:1.0;"/><text fill="#0A9EFD" font-family="Arial" font-size="13" lengthAdjust="spacing" textLength="147" x="150" y="691.1646">Clean up local resources:</text><text fill="#0A9EFD" font-family="Arial" font-size="13" lengthAdjust="spacing" textLength="134" x="162.5" y="706.1133">agoraEngine-&gt;release()</text><!--SRC=[TLD1Rjim4Bpp5LkTx8Fx02ODO3WvA0sIG6uA52WGRAYjmuOY1P8o-ge-eYyhbnGSqsul1kZTsPcTMNtGLfcf9y2Ty_WSthJzgAV1284gEW_DKo3V00PusdP2lBXVq7npamSSnqQ84NtKIeze8pHVTKyEjjUVS__wyL48iZqap0nSCySfQdlTVRd_ytl6j4UOn0YhAnuauM4a2-jn5Ebr-BErEcgC1F6L80-7WmOWkzEM97otPRUR_8PFvIMbZqhAYQHKdjAC3E-YAcsBPKLqO_7551gSUkq0ayPzfXfSFnaAfpohAygOh6Un_4zrpSCMomiXTjvD8x3PrTgtJYSWA3Ic4hIbcDgDIuMYGvuI1EwuuuOY8NTjqEunrBjr5BscFM-MzhCf68pQMOZkZVWNVh86zOhMqf68TXR7dip5CmsCt9JQREZbga0x6bpARKhxvldKCzXPDk0sluyJQ8zKXfZY6hJTmG_lXapltuUTnv1zA7J_DA9DcWvEAD9iH0ety1Ns674c37oMzKdU4UxBJTJnj5LfjkPCb-6MTtEgoHlZ0l4NLWMrIH0BXzWzXVGTgldqwk6UKc_WA_uB]--></g></svg>