<?xml version="1.0" encoding="us-ascii" standalone="no"?><svg xmlns="http://www.w3.org/2000/svg" xmlns:xlink="http://www.w3.org/1999/xlink" contentStyleType="text/css" height="873px" preserveAspectRatio="none" style="width:572px;height:873px;background:#FFFFFF;" version="1.1" viewBox="0 0 572 873" width="572px" zoomAndPan="magnify"><defs><style type="text/css">@import url('https://fonts.googleapis.com/css?family=Roboto:400,100,100italic,300,300italic,400italic,500,500italic,700,700italic,900,900italic');</style></defs><g><rect fill="none" height="871.1836" style="stroke:#0A9EFD;stroke-width:1.0;" width="570.5" x="0" y="0"/><rect fill="#F3F3F3" height="861.1836" style="stroke:#0A9EFD;stroke-width:0.5;" width="97" x="85.5" y="6"/><text fill="#0A9EFD" font-family="sans-serif" font-size="13" font-weight="bold" lengthAdjust="spacing" textLength="62" x="103" y="18.5684">Your app</text><rect fill="#F3F3F3" height="861.1836" style="stroke:#0A9EFD;stroke-width:0.5;" width="81" x="479.5" y="6"/><text fill="#0A9EFD" font-family="sans-serif" font-size="13" font-weight="bold" lengthAdjust="spacing" textLength="41" x="499.5" y="18.5684">Agora</text><rect fill="#FFFFFF" height="417.8125" style="stroke:#0A9EFD;stroke-width:2.0;" width="556.5" x="10" y="270.418"/><line style="stroke:#0A9EFD;stroke-width:0.5;stroke-dasharray:5.0,5.0;" x1="39" x2="39" y1="86.4883" y2="782.6953"/><line style="stroke:#0A9EFD;stroke-width:0.5;stroke-dasharray:5.0,5.0;" x1="133.5" x2="133.5" y1="86.4883" y2="782.6953"/><line style="stroke:#0A9EFD;stroke-width:0.5;stroke-dasharray:5.0,5.0;" x1="519.5" x2="519.5" y1="86.4883" y2="782.6953"/><text fill="#0A9EFD" font-family="Roboto" font-size="14" font-weight="bold" lengthAdjust="spacing" textLength="32" x="20" y="83.5352">User</text><ellipse cx="39" cy="16" fill="none" rx="8" ry="8" style="stroke:#0A9EFD;stroke-width:3.0;"/><path d="M39,24 L39,51 M26,32 L52,32 M39,51 L26,66 M39,51 L52,66 " fill="none" style="stroke:#0A9EFD;stroke-width:3.0;"/><text fill="#0A9EFD" font-family="Roboto" font-size="14" font-weight="bold" lengthAdjust="spacing" textLength="32" x="20" y="795.2305">User</text><ellipse cx="39" cy="809.1836" fill="none" rx="8" ry="8" style="stroke:#0A9EFD;stroke-width:3.0;"/><path d="M39,817.1836 L39,844.1836 M26,825.1836 L52,825.1836 M39,844.1836 L26,859.1836 M39,844.1836 L52,859.1836 " fill="none" style="stroke:#0A9EFD;stroke-width:3.0;"/><rect fill="#FFFFFF" height="30.4883" rx="2.5" ry="2.5" style="stroke:#0A9EFD;stroke-width:2.0;" width="89" x="89.5" y="55"/><text fill="#0A9EFD" font-family="Roboto" font-size="14" font-weight="bold" lengthAdjust="spacing" textLength="75" x="96.5" y="75.5352">Video SDK</text><rect fill="#FFFFFF" height="30.4883" rx="2.5" ry="2.5" style="stroke:#0A9EFD;stroke-width:2.0;" width="89" x="89.5" y="781.6953"/><text fill="#0A9EFD" font-family="Roboto" font-size="14" font-weight="bold" lengthAdjust="spacing" textLength="75" x="96.5" y="802.2305">Video SDK</text><rect fill="#FFFFFF" height="30.4883" rx="2.5" ry="2.5" style="stroke:#0A9EFD;stroke-width:2.0;" width="73" x="483.5" y="55"/><text fill="#0A9EFD" font-family="Roboto" font-size="14" font-weight="bold" lengthAdjust="spacing" textLength="59" x="490.5" y="75.5352">SD-RTN</text><rect fill="#FFFFFF" height="30.4883" rx="2.5" ry="2.5" style="stroke:#0A9EFD;stroke-width:2.0;" width="73" x="483.5" y="781.6953"/><text fill="#0A9EFD" font-family="Roboto" font-size="14" font-weight="bold" lengthAdjust="spacing" textLength="59" x="490.5" y="802.2305">SD-RTN</text><polygon fill="#0A9EFD" points="122,114.9766,132,118.9766,122,122.9766,126,118.9766" style="stroke:#0A9EFD;stroke-width:1.0;"/><line style="stroke:#0A9EFD;stroke-width:2.0;" x1="39" x2="128" y1="118.9766" y2="118.9766"/><text fill="#0A9EFD" font-family="Roboto" font-size="14" font-weight="bold" lengthAdjust="spacing" textLength="71" x="51" y="114.0234">Open App</text><line style="stroke:#0A9EFD;stroke-width:2.0;" x1="134" x2="176" y1="165.9531" y2="165.9531"/><line style="stroke:#0A9EFD;stroke-width:2.0;" x1="176" x2="176" y1="165.9531" y2="178.9531"/><line style="stroke:#0A9EFD;stroke-width:2.0;" x1="135" x2="176" y1="178.9531" y2="178.9531"/><polygon fill="#0A9EFD" points="145,174.9531,135,178.9531,145,182.9531,141,178.9531" style="stroke:#0A9EFD;stroke-width:1.0;"/><text fill="#0A9EFD" font-family="Roboto" font-size="14" font-weight="bold" lengthAdjust="spacing" textLength="216" x="175.5" y="144.5117">Initiate the Video SDK engine:</text><text fill="#0A9EFD" font-family="Roboto" font-size="14" font-weight="bold" lengthAdjust="spacing" textLength="270" x="156" y="161">agoraEngine = AgoraRTC.createClient</text><line style="stroke:#0A9EFD;stroke-width:2.0;" x1="134" x2="176" y1="242.418" y2="242.418"/><line style="stroke:#0A9EFD;stroke-width:2.0;" x1="176" x2="176" y1="242.418" y2="255.418"/><line style="stroke:#0A9EFD;stroke-width:2.0;" x1="135" x2="176" y1="255.418" y2="255.418"/><polygon fill="#0A9EFD" points="145,251.418,135,255.418,145,259.418,141,255.418" style="stroke:#0A9EFD;stroke-width:1.0;"/><text fill="#0A9EFD" font-family="Roboto" font-size="14" font-weight="bold" lengthAdjust="spacing" textLength="222" x="162.5" y="204.4883">Set the required event listners:</text><text fill="#0A9EFD" font-family="Roboto" font-size="14" font-weight="bold" lengthAdjust="spacing" textLength="242" x="152.5" y="220.9766">agoraEngine.on("user-published")</text><text fill="#0A9EFD" font-family="Roboto" font-size="14" font-weight="bold" lengthAdjust="spacing" textLength="260" x="146" y="237.4648">agoraEngine.on("user-unpublished")</text><path d="M10,270.418 L87,270.418 L87,278.9063 L77,288.9063 L10,288.9063 L10,270.418 " fill="#EEEEEE" style="stroke:#0A9EFD;stroke-width:1.5;"/><rect fill="none" height="417.8125" style="stroke:#0A9EFD;stroke-width:2.0;" width="556.5" x="10" y="270.418"/><text fill="#0A9EFD" font-family="Roboto" font-size="14" font-weight="bold" lengthAdjust="spacing" textLength="32" x="25" y="284.9531">User</text><polygon fill="#0A9EFD" points="122,307.3945,132,311.3945,122,315.3945,126,311.3945" style="stroke:#0A9EFD;stroke-width:1.0;"/><line style="stroke:#0A9EFD;stroke-width:2.0;" x1="39" x2="128" y1="311.3945" y2="311.3945"/><text fill="#0A9EFD" font-family="Roboto" font-size="14" font-weight="bold" lengthAdjust="spacing" textLength="64" x="54.5" y="306.4414">Start call</text><line style="stroke:#0A9EFD;stroke-width:2.0;" x1="134" x2="176" y1="341.8828" y2="341.8828"/><line style="stroke:#0A9EFD;stroke-width:2.0;" x1="176" x2="176" y1="341.8828" y2="354.8828"/><line style="stroke:#0A9EFD;stroke-width:2.0;" x1="135" x2="176" y1="354.8828" y2="354.8828"/><polygon fill="#0A9EFD" points="145,350.8828,135,354.8828,145,358.8828,141,354.8828" style="stroke:#0A9EFD;stroke-width:1.0;"/><text fill="#0A9EFD" font-family="Roboto" font-size="14" font-weight="bold" lengthAdjust="spacing" textLength="327" x="141" y="336.9297">Retrieve authentication token to join channel</text><polygon fill="#0A9EFD" points="508,397.8594,518,401.8594,508,405.8594,512,401.8594" style="stroke:#0A9EFD;stroke-width:1.0;"/><line style="stroke:#0A9EFD;stroke-width:2.0;" x1="134" x2="514" y1="401.8594" y2="401.8594"/><text fill="#0A9EFD" font-family="Roboto" font-size="14" font-weight="bold" lengthAdjust="spacing" textLength="105" x="274.5" y="380.418">Join a channel:</text><text fill="#0A9EFD" font-family="Roboto" font-size="14" font-weight="bold" lengthAdjust="spacing" textLength="119" x="270" y="396.9063">agoraEngine.join</text><polygon fill="#0A9EFD" points="145,428.3477,135,432.3477,145,436.3477,141,432.3477" style="stroke:#0A9EFD;stroke-width:1.0;"/><line style="stroke:#0A9EFD;stroke-width:2.0;" x1="139" x2="519" y1="432.3477" y2="432.3477"/><text fill="#0A9EFD" font-family="Roboto" font-size="14" font-weight="bold" lengthAdjust="spacing" textLength="96" x="279" y="427.3945">Join accepted</text><line style="stroke:#0A9EFD;stroke-width:2.0;" x1="134" x2="176" y1="495.8125" y2="495.8125"/><line style="stroke:#0A9EFD;stroke-width:2.0;" x1="176" x2="176" y1="495.8125" y2="508.8125"/><line style="stroke:#0A9EFD;stroke-width:2.0;" x1="135" x2="176" y1="508.8125" y2="508.8125"/><polygon fill="#0A9EFD" points="145,504.8125,135,508.8125,145,512.8125,141,508.8125" style="stroke:#0A9EFD;stroke-width:1.0;"/><text fill="#0A9EFD" font-family="Roboto" font-size="14" font-weight="bold" lengthAdjust="spacing" textLength="191" x="192.5" y="457.8828">Create local media tracks :</text><text fill="#0A9EFD" font-family="Roboto" font-size="14" font-weight="bold" lengthAdjust="spacing" textLength="284" x="146" y="474.3711">AgoraRTC.createMicrophoneAudioTrack</text><text fill="#0A9EFD" font-family="Roboto" font-size="14" font-weight="bold" lengthAdjust="spacing" textLength="253" x="164" y="490.8594">AgoraRTC.createCameraVideoTrack</text><polygon fill="#0A9EFD" points="508,551.7891,518,555.7891,508,559.7891,512,555.7891" style="stroke:#0A9EFD;stroke-width:1.0;"/><line style="stroke:#0A9EFD;stroke-width:2.0;" x1="134" x2="514" y1="555.7891" y2="555.7891"/><text fill="#0A9EFD" font-family="Roboto" font-size="14" font-weight="bold" lengthAdjust="spacing" textLength="283" x="185.5" y="534.3477">Push local media tracks to the channel:</text><text fill="#0A9EFD" font-family="Roboto" font-size="14" font-weight="bold" lengthAdjust="spacing" textLength="145" x="257" y="550.8359">agoraEngine.publish</text><polygon fill="#0A9EFD" points="145,598.7656,135,602.7656,145,606.7656,141,602.7656" style="stroke:#0A9EFD;stroke-width:1.0;"/><line style="stroke:#0A9EFD;stroke-width:2.0;" x1="139" x2="519" y1="602.7656" y2="602.7656"/><text fill="#0A9EFD" font-family="Roboto" font-size="14" font-weight="bold" lengthAdjust="spacing" textLength="287" x="181" y="581.3242">Retrieve streaming from the other user:</text><text fill="#0A9EFD" font-family="Roboto" font-size="14" font-weight="bold" lengthAdjust="spacing" textLength="242" x="208.5" y="597.8125">agoraEngine.on("user-published")</text><polygon fill="#0A9EFD" points="145,645.7422,135,649.7422,145,653.7422,141,649.7422" style="stroke:#0A9EFD;stroke-width:1.0;"/><line style="stroke:#0A9EFD;stroke-width:2.0;" x1="139" x2="519" y1="649.7422" y2="649.7422"/><text fill="#0A9EFD" font-family="Roboto" font-size="14" font-weight="bold" lengthAdjust="spacing" textLength="357" x="146" y="628.3008">Play remote media tracks: remoteVideoTrack.play</text><text fill="#0A9EFD" font-family="Roboto" font-size="14" font-weight="bold" lengthAdjust="spacing" textLength="166" x="246.5" y="644.7891">remoteAudioTrack.play</text><polygon fill="#0A9EFD" points="145,676.2305,135,680.2305,145,684.2305,141,680.2305" style="stroke:#0A9EFD;stroke-width:1.0;"/><polygon fill="#0A9EFD" points="508,676.2305,518,680.2305,508,684.2305,512,680.2305" style="stroke:#0A9EFD;stroke-width:1.0;"/><line style="stroke:#0A9EFD;stroke-width:2.0;" x1="139" x2="514" y1="680.2305" y2="680.2305"/><text fill="#0A9EFD" font-family="Roboto" font-size="14" font-weight="bold" lengthAdjust="spacing" textLength="223" x="215.5" y="675.2773">Receive and send data streams</text><polygon fill="#0A9EFD" points="122,713.7188,132,717.7188,122,721.7188,126,717.7188" style="stroke:#0A9EFD;stroke-width:1.0;"/><line style="stroke:#0A9EFD;stroke-width:2.0;" x1="39" x2="128" y1="717.7188" y2="717.7188"/><text fill="#0A9EFD" font-family="Roboto" font-size="14" font-weight="bold" lengthAdjust="spacing" textLength="70" x="51.5" y="712.7656">Leave call</text><polygon fill="#0A9EFD" points="508,760.6953,518,764.6953,508,768.6953,512,764.6953" style="stroke:#0A9EFD;stroke-width:1.0;"/><line style="stroke:#0A9EFD;stroke-width:2.0;" x1="134" x2="514" y1="764.6953" y2="764.6953"/><text fill="#0A9EFD" font-family="Roboto" font-size="14" font-weight="bold" lengthAdjust="spacing" textLength="128" x="263" y="743.2539">leave the channel:</text><text fill="#0A9EFD" font-family="Roboto" font-size="14" font-weight="bold" lengthAdjust="spacing" textLength="128" x="265.5" y="759.7422">agoraEngine.leave</text><!--SRC=[ZLDDZnCn3BtdLvWvmQ7z0IDOgUfoA9zLfuk4XBJoPamdDEE4J8BWt-Daf-rCOH6NIB6Vdv-VasU6jKqj0HvSmFlXQ7XfKc-LGXrTWEfke5013d3Nx9HwS3-X-knI0FI-KifZY4ORZnoX-cHQSj3SlYturNQh574BKZCMhdAFwwhcTh7RVnXBDfCIQGYBcynJmqTF32llbTpEmGsRQ30In8xWt1o83uQf_i80ZrEzBW5u1QN_RhzUwa1IjxQ6ECue6ug5BT3tP0ArG3y40jOCaIaCcNH2kNJyl4fYqCAd1y5qr5Olu2bCuWbAgKDmoKEsTpPf4yKSq6Xj5hQuAS4TnM142c0ITIpcOJIE8ReZvHE-ESEWEsGcUnbeKyERdC1Jwbf_BXFuPkmE9xpMv2ErCslMnJEmJhH1Jwr1Y07rSO3CUcNjUwE3yvrZMgNMk7q6mf-mDVOKiAokG6RIOPk6xc_zPDwyeoTc6asUZ3NnRuZIjpTyWA_1zON6oH4WRwY6_rZlZ7ThyPUybTw9CLE9zHYyJBRq6IhyZucBAoLHI5zUr6eoUTdo4uRy7LgCE4eVyl-OFPXtX88zFPYpUxQ4_-5J0IZr6m00]--></g></svg>