<?xml version="1.0" encoding="us-ascii" standalone="no"?><svg xmlns="http://www.w3.org/2000/svg" xmlns:xlink="http://www.w3.org/1999/xlink" contentStyleType="text/css" height="873px" preserveAspectRatio="none" style="width:486px;height:873px;" version="1.1" viewBox="0 0 486 873" width="486px" zoomAndPan="magnify"><defs/><g><rect fill="none" height="871.9155" style="stroke:#0A9EFD;stroke-width:1.0;" width="484.5" x="0" y="0"/><rect fill="#999999" fill-opacity="0.33333" height="861.9155" style="stroke:#0A9EFD;stroke-width:0.5;" width="90" x="95.5" y="6"/><text fill="#0A9EFD" font-family="sans-serif" font-size="13" font-weight="bold" lengthAdjust="spacing" textLength="57" x="112" y="19.4951">Your app</text><rect fill="#999999" fill-opacity="0.33333" height="861.9155" style="stroke:#0A9EFD;stroke-width:0.5;" width="74" x="400.5" y="6"/><text fill="#0A9EFD" font-family="sans-serif" font-size="13" font-weight="bold" lengthAdjust="spacing" textLength="38" x="418.5" y="19.4951">Agora</text><rect fill="#0A9EFD" fill-opacity="0.06667" height="362.2822" style="stroke:#0A9EFD;stroke-width:2.0;" width="470.5" x="10" y="245.8423"/><line style="stroke:#0A9EFD;stroke-width:0.5;stroke-dasharray:5.0,5.0;" x1="37" x2="37" y1="86.0986" y2="783.8169"/><line style="stroke:#0A9EFD;stroke-width:0.5;stroke-dasharray:5.0,5.0;" x1="140.5" x2="140.5" y1="86.0986" y2="783.8169"/><line style="stroke:#0A9EFD;stroke-width:0.5;stroke-dasharray:5.0,5.0;" x1="437.5" x2="437.5" y1="86.0986" y2="783.8169"/><text fill="#0A9EFD" font-family="Arial" font-size="14" lengthAdjust="spacing" textLength="29" x="20" y="83.1318">User</text><ellipse cx="37.5" cy="16" fill="none" rx="8" ry="8" style="stroke:#0A9EFD;stroke-width:3.0;"/><path d="M37.5,24 L37.5,51 M24.5,32 L50.5,32 M37.5,51 L24.5,66 M37.5,51 L50.5,66 " fill="none" style="stroke:#0A9EFD;stroke-width:3.0;"/><text fill="#0A9EFD" font-family="Arial" font-size="14" lengthAdjust="spacing" textLength="29" x="20" y="795.9487">User</text><ellipse cx="37.5" cy="809.9155" fill="none" rx="8" ry="8" style="stroke:#0A9EFD;stroke-width:3.0;"/><path d="M37.5,817.9155 L37.5,844.9155 M24.5,825.9155 L50.5,825.9155 M37.5,844.9155 L24.5,859.9155 M37.5,844.9155 L50.5,859.9155 " fill="none" style="stroke:#0A9EFD;stroke-width:3.0;"/><rect fill="none" height="30.0986" rx="2.5" ry="2.5" style="stroke:#0A9EFD;stroke-width:2.0;" width="82" x="99.5" y="55"/><text fill="#0A9EFD" font-family="Arial" font-size="14" lengthAdjust="spacing" textLength="68" x="106.5" y="75.1318">Video SDK</text><rect fill="none" height="30.0986" rx="2.5" ry="2.5" style="stroke:#0A9EFD;stroke-width:2.0;" width="82" x="99.5" y="782.8169"/><text fill="#0A9EFD" font-family="Arial" font-size="14" lengthAdjust="spacing" textLength="68" x="106.5" y="802.9487">Video SDK</text><rect fill="none" height="30.0986" rx="2.5" ry="2.5" style="stroke:#0A9EFD;stroke-width:2.0;" width="66" x="404.5" y="55"/><text fill="#0A9EFD" font-family="Arial" font-size="14" lengthAdjust="spacing" textLength="52" x="411.5" y="75.1318">SD-RTN</text><rect fill="none" height="30.0986" rx="2.5" ry="2.5" style="stroke:#0A9EFD;stroke-width:2.0;" width="66" x="404.5" y="782.8169"/><text fill="#0A9EFD" font-family="Arial" font-size="14" lengthAdjust="spacing" textLength="52" x="411.5" y="802.9487">SD-RTN</text><polygon fill="#0A9EFD" points="128.5,113.0474,138.5,117.0474,128.5,121.0474,132.5,117.0474" style="stroke:#0A9EFD;stroke-width:1.0;"/><line style="stroke:#0A9EFD;stroke-width:2.0;" x1="37.5" x2="134.5" y1="117.0474" y2="117.0474"/><text fill="#0A9EFD" font-family="Arial" font-size="13" lengthAdjust="spacing" textLength="58" x="60" y="112.2925">Open App</text><line style="stroke:#0A9EFD;stroke-width:2.0;" x1="140.5" x2="182.5" y1="160.9448" y2="160.9448"/><line style="stroke:#0A9EFD;stroke-width:2.0;" x1="182.5" x2="182.5" y1="160.9448" y2="173.9448"/><line style="stroke:#0A9EFD;stroke-width:2.0;" x1="141.5" x2="182.5" y1="173.9448" y2="173.9448"/><polygon fill="#0A9EFD" points="151.5,169.9448,141.5,173.9448,151.5,177.9448,147.5,173.9448" style="stroke:#0A9EFD;stroke-width:1.0;"/><text fill="#0A9EFD" font-family="Arial" font-size="13" lengthAdjust="spacing" textLength="212" x="147.5" y="141.2412">Initiate the Agora Video SDK engine:</text><text fill="#0A9EFD" font-family="Arial" font-size="13" lengthAdjust="spacing" textLength="188" x="163.5" y="156.1899">agoraEngine = RtcEngine.create</text><line style="stroke:#0A9EFD;stroke-width:2.0;" x1="140.5" x2="182.5" y1="217.8423" y2="217.8423"/><line style="stroke:#0A9EFD;stroke-width:2.0;" x1="182.5" x2="182.5" y1="217.8423" y2="230.8423"/><line style="stroke:#0A9EFD;stroke-width:2.0;" x1="141.5" x2="182.5" y1="230.8423" y2="230.8423"/><polygon fill="#0A9EFD" points="151.5,226.8423,141.5,230.8423,151.5,234.8423,147.5,230.8423" style="stroke:#0A9EFD;stroke-width:1.0;"/><text fill="#0A9EFD" font-family="Arial" font-size="13" lengthAdjust="spacing" textLength="145" x="152.5" y="198.1387">Enable the video module:</text><text fill="#0A9EFD" font-family="Arial" font-size="13" lengthAdjust="spacing" textLength="155" x="151.5" y="213.0874">agoraEngine.enableVideo()</text><path d="M10,245.8423 L82,245.8423 L82,252.791 L72,262.791 L10,262.791 L10,245.8423 " fill="#EEEEEE" style="stroke:#0A9EFD;stroke-width:1.5;"/><rect fill="none" height="362.2822" style="stroke:#0A9EFD;stroke-width:2.0;" width="470.5" x="10" y="245.8423"/><text fill="#000000" font-family="Arial" font-size="13" lengthAdjust="spacing" textLength="27" x="25" y="259.0361">User</text><polygon fill="#0A9EFD" points="128.5,279.7397,138.5,283.7397,128.5,287.7397,132.5,283.7397" style="stroke:#0A9EFD;stroke-width:1.0;"/><line style="stroke:#0A9EFD;stroke-width:2.0;" x1="37.5" x2="134.5" y1="283.7397" y2="283.7397"/><text fill="#0A9EFD" font-family="Arial" font-size="13" lengthAdjust="spacing" textLength="58" x="60" y="278.9849">Join a call</text><line style="stroke:#0A9EFD;stroke-width:2.0;" x1="140.5" x2="182.5" y1="327.6372" y2="327.6372"/><line style="stroke:#0A9EFD;stroke-width:2.0;" x1="182.5" x2="182.5" y1="327.6372" y2="340.6372"/><line style="stroke:#0A9EFD;stroke-width:2.0;" x1="141.5" x2="182.5" y1="340.6372" y2="340.6372"/><polygon fill="#0A9EFD" points="151.5,336.6372,141.5,340.6372,151.5,344.6372,147.5,340.6372" style="stroke:#0A9EFD;stroke-width:1.0;"/><text fill="#0A9EFD" font-family="Arial" font-size="13" lengthAdjust="spacing" textLength="102" x="226" y="307.9336">Setup local video:</text><text fill="#0A9EFD" font-family="Arial" font-size="13" lengthAdjust="spacing" textLength="255" x="151.5" y="322.8823">agoraEngine.setupLocalVideo(VideoCanvas)</text><line style="stroke:#0A9EFD;stroke-width:2.0;" x1="140.5" x2="182.5" y1="384.5347" y2="384.5347"/><line style="stroke:#0A9EFD;stroke-width:2.0;" x1="182.5" x2="182.5" y1="384.5347" y2="397.5347"/><line style="stroke:#0A9EFD;stroke-width:2.0;" x1="141.5" x2="182.5" y1="397.5347" y2="397.5347"/><polygon fill="#0A9EFD" points="151.5,393.5347,141.5,397.5347,151.5,401.5347,147.5,397.5347" style="stroke:#0A9EFD;stroke-width:1.0;"/><text fill="#0A9EFD" font-family="Arial" font-size="13" lengthAdjust="spacing" textLength="109" x="172" y="364.8311">Start local preview:</text><text fill="#0A9EFD" font-family="Arial" font-size="13" lengthAdjust="spacing" textLength="154" x="151.5" y="379.7798">agoraEngine.startPreview()</text><line style="stroke:#0A9EFD;stroke-width:2.0;" x1="140.5" x2="182.5" y1="426.4834" y2="426.4834"/><line style="stroke:#0A9EFD;stroke-width:2.0;" x1="182.5" x2="182.5" y1="426.4834" y2="439.4834"/><line style="stroke:#0A9EFD;stroke-width:2.0;" x1="141.5" x2="182.5" y1="439.4834" y2="439.4834"/><polygon fill="#0A9EFD" points="151.5,435.4834,141.5,439.4834,151.5,443.4834,147.5,439.4834" style="stroke:#0A9EFD;stroke-width:1.0;"/><text fill="#0A9EFD" font-family="Arial" font-size="13" lengthAdjust="spacing" textLength="255" x="147.5" y="421.7285">Retrieve authentication token to join channel</text><polygon fill="#0A9EFD" points="425.5,479.3809,435.5,483.3809,425.5,487.3809,429.5,483.3809" style="stroke:#0A9EFD;stroke-width:1.0;"/><line style="stroke:#0A9EFD;stroke-width:2.0;" x1="140.5" x2="431.5" y1="483.3809" y2="483.3809"/><text fill="#0A9EFD" font-family="Arial" font-size="13" lengthAdjust="spacing" textLength="98" x="240" y="463.6772">Join the channel:</text><text fill="#0A9EFD" font-family="Arial" font-size="13" lengthAdjust="spacing" textLength="151" x="215.5" y="478.626">agoraEngine.joinChannel()</text><polygon fill="#0A9EFD" points="151.5,523.2783,141.5,527.2783,151.5,531.2783,147.5,527.2783" style="stroke:#0A9EFD;stroke-width:1.0;"/><line style="stroke:#0A9EFD;stroke-width:2.0;" x1="145.5" x2="436.5" y1="527.2783" y2="527.2783"/><text fill="#0A9EFD" font-family="Arial" font-size="13" lengthAdjust="spacing" textLength="116" x="231" y="507.5747">Remote user joined:</text><text fill="#0A9EFD" font-family="Arial" font-size="13" lengthAdjust="spacing" textLength="86" x="248" y="522.5234">onUserJoined()</text><polygon fill="#0A9EFD" points="425.5,567.1758,435.5,571.1758,425.5,575.1758,429.5,571.1758" style="stroke:#0A9EFD;stroke-width:1.0;"/><line style="stroke:#0A9EFD;stroke-width:2.0;" x1="140.5" x2="431.5" y1="571.1758" y2="571.1758"/><text fill="#0A9EFD" font-family="Arial" font-size="13" lengthAdjust="spacing" textLength="235" x="169.5" y="551.4722">Retrieve streaming from the remote user:</text><text fill="#0A9EFD" font-family="Arial" font-size="13" lengthAdjust="spacing" textLength="269" x="156.5" y="566.4209">agoraEngine.setupRemoteVideo(VideoCanvas)</text><polygon fill="#0A9EFD" points="151.5,596.1245,141.5,600.1245,151.5,604.1245,147.5,600.1245" style="stroke:#0A9EFD;stroke-width:1.0;"/><polygon fill="#0A9EFD" points="425.5,596.1245,435.5,600.1245,425.5,604.1245,429.5,600.1245" style="stroke:#0A9EFD;stroke-width:1.0;"/><line style="stroke:#0A9EFD;stroke-width:2.0;" x1="145.5" x2="431.5" y1="600.1245" y2="600.1245"/><text fill="#0A9EFD" font-family="Arial" font-size="13" lengthAdjust="spacing" textLength="182" x="198" y="595.3696">Receive and send data streams</text><polygon fill="#0A9EFD" points="128.5,632.0732,138.5,636.0732,128.5,640.0732,132.5,636.0732" style="stroke:#0A9EFD;stroke-width:1.0;"/><line style="stroke:#0A9EFD;stroke-width:2.0;" x1="37.5" x2="134.5" y1="636.0732" y2="636.0732"/><text fill="#0A9EFD" font-family="Arial" font-size="13" lengthAdjust="spacing" textLength="79" x="49.5" y="631.3184">Leave the call</text><polygon fill="#0A9EFD" points="425.5,675.9707,435.5,679.9707,425.5,683.9707,429.5,679.9707" style="stroke:#0A9EFD;stroke-width:1.0;"/><line style="stroke:#0A9EFD;stroke-width:2.0;" x1="140.5" x2="431.5" y1="679.9707" y2="679.9707"/><text fill="#0A9EFD" font-family="Arial" font-size="13" lengthAdjust="spacing" textLength="108" x="233" y="660.2671">Leave the channel:</text><text fill="#0A9EFD" font-family="Arial" font-size="13" lengthAdjust="spacing" textLength="160" x="211" y="675.2158">agoraEngine.leaveChannel()</text><polygon fill="#0A9EFD" points="128.5,704.9194,138.5,708.9194,128.5,712.9194,132.5,708.9194" style="stroke:#0A9EFD;stroke-width:1.0;"/><line style="stroke:#0A9EFD;stroke-width:2.0;" x1="37.5" x2="134.5" y1="708.9194" y2="708.9194"/><text fill="#0A9EFD" font-family="Arial" font-size="13" lengthAdjust="spacing" textLength="58" x="60" y="704.1646">Close app</text><line style="stroke:#0A9EFD;stroke-width:2.0;" x1="140.5" x2="182.5" y1="752.8169" y2="752.8169"/><line style="stroke:#0A9EFD;stroke-width:2.0;" x1="182.5" x2="182.5" y1="752.8169" y2="765.8169"/><line style="stroke:#0A9EFD;stroke-width:2.0;" x1="141.5" x2="182.5" y1="765.8169" y2="765.8169"/><polygon fill="#0A9EFD" points="151.5,761.8169,141.5,765.8169,151.5,769.8169,147.5,765.8169" style="stroke:#0A9EFD;stroke-width:1.0;"/><text fill="#0A9EFD" font-family="Arial" font-size="13" lengthAdjust="spacing" textLength="147" x="147.5" y="733.1133">Clean up local resources:</text><text fill="#0A9EFD" font-family="Arial" font-size="13" lengthAdjust="spacing" textLength="127" x="163.5" y="748.062">agoraEngine.destroy()</text><!--SRC=[PLF1Rjim3BthApYVsaFo0S4s84XxS5TiWRCE631WK6KkrMfJWYHxsz-Fb8mqIYw2PVAzHpvIxooPOUeHzD45_JE-MbhRQHoKqYQv0CrJnD20Zl1qw9HwTd-X-Uwc0DhxHYclGxB6Uaq9cc-sHmU7kqyvVxlVAuNK0sCMu5OqBb67krNtzVC2QSyWB0YhZyApWIyU2RRUAxwTVhPaazK98RqWP6uubG18HqkuWHzKMhlFT_W0NJBbUsq2ChgYl2VzF1J2ELEDhf-6AvervhoiTdEhr36uoODOLLNzu2p3mEXXg5GEc3XzS1meCfiB-YW9Zn8l4ldSQPfrlAsP4bkvCFc0iyK_LroIiY-ncnhTOGeMPnx-n1qJpqGdwmYIUqKvuRSqO5uq4Pvrq2wTYKjBy59KWBiIMZJVhmgomz7no2RsAjDZBrX7Ojv3lfyNsPuL6HFFQxHqX5_1ZLazl95TZIXxMDIkJGIMQBccan46hVZ0knTb0NkTz28OPIFhRNn4FPSbgKVRLg75cSkw1ibuywOYtWqkeZojQamxXX2SDYPWv0TeC6RgYhj7hjdz4zh_]--></g></svg>