<?xml version="1.0" encoding="us-ascii" standalone="no"?><svg xmlns="http://www.w3.org/2000/svg" xmlns:xlink="http://www.w3.org/1999/xlink" contentStyleType="text/css" height="990px" preserveAspectRatio="none" style="width:523px;height:990px;background:#FFFFFF;" version="1.1" viewBox="0 0 523 990" width="523px" zoomAndPan="magnify"><defs><style type="text/css">@import url('https://fonts.googleapis.com/css?family=Roboto:400,100,100italic,300,300italic,400italic,500,500italic,700,700italic,900,900italic');</style></defs><g><rect fill="none" height="988.6484" style="stroke:#0A9EFD;stroke-width:1.0;" width="521.5" x="0" y="0"/><rect fill="#F3F3F3" height="978.6484" style="stroke:#0A9EFD;stroke-width:0.5;" width="97" x="86.5" y="6"/><text fill="#0A9EFD" font-family="sans-serif" font-size="13" font-weight="bold" lengthAdjust="spacing" textLength="62" x="104" y="18.5684">Your app</text><rect fill="#F3F3F3" height="978.6484" style="stroke:#0A9EFD;stroke-width:0.5;" width="81" x="430.5" y="6"/><text fill="#0A9EFD" font-family="sans-serif" font-size="13" font-weight="bold" lengthAdjust="spacing" textLength="41" x="450.5" y="18.5684">Agora</text><rect fill="#FFFFFF" height="414.3242" style="stroke:#0A9EFD;stroke-width:2.0;" width="507.5" x="10" y="360.8828"/><line style="stroke:#0A9EFD;stroke-width:0.5;stroke-dasharray:5.0,5.0;" x1="39" x2="39" y1="86.4883" y2="900.1602"/><line style="stroke:#0A9EFD;stroke-width:0.5;stroke-dasharray:5.0,5.0;" x1="134.5" x2="134.5" y1="86.4883" y2="900.1602"/><line style="stroke:#0A9EFD;stroke-width:0.5;stroke-dasharray:5.0,5.0;" x1="470.5" x2="470.5" y1="86.4883" y2="900.1602"/><text fill="#0A9EFD" font-family="Roboto" font-size="14" font-weight="bold" lengthAdjust="spacing" textLength="32" x="20" y="83.5352">User</text><ellipse cx="39" cy="16" fill="none" rx="8" ry="8" style="stroke:#0A9EFD;stroke-width:3.0;"/><path d="M39,24 L39,51 M26,32 L52,32 M39,51 L26,66 M39,51 L52,66 " fill="none" style="stroke:#0A9EFD;stroke-width:3.0;"/><text fill="#0A9EFD" font-family="Roboto" font-size="14" font-weight="bold" lengthAdjust="spacing" textLength="32" x="20" y="912.6953">User</text><ellipse cx="39" cy="926.6484" fill="none" rx="8" ry="8" style="stroke:#0A9EFD;stroke-width:3.0;"/><path d="M39,934.6484 L39,961.6484 M26,942.6484 L52,942.6484 M39,961.6484 L26,976.6484 M39,961.6484 L52,976.6484 " fill="none" style="stroke:#0A9EFD;stroke-width:3.0;"/><rect fill="#FFFFFF" height="30.4883" rx="2.5" ry="2.5" style="stroke:#0A9EFD;stroke-width:2.0;" width="89" x="90.5" y="55"/><text fill="#0A9EFD" font-family="Roboto" font-size="14" font-weight="bold" lengthAdjust="spacing" textLength="75" x="97.5" y="75.5352">Video SDK</text><rect fill="#FFFFFF" height="30.4883" rx="2.5" ry="2.5" style="stroke:#0A9EFD;stroke-width:2.0;" width="89" x="90.5" y="899.1602"/><text fill="#0A9EFD" font-family="Roboto" font-size="14" font-weight="bold" lengthAdjust="spacing" textLength="75" x="97.5" y="919.6953">Video SDK</text><rect fill="#FFFFFF" height="30.4883" rx="2.5" ry="2.5" style="stroke:#0A9EFD;stroke-width:2.0;" width="73" x="434.5" y="55"/><text fill="#0A9EFD" font-family="Roboto" font-size="14" font-weight="bold" lengthAdjust="spacing" textLength="59" x="441.5" y="75.5352">SD-RTN</text><rect fill="#FFFFFF" height="30.4883" rx="2.5" ry="2.5" style="stroke:#0A9EFD;stroke-width:2.0;" width="73" x="434.5" y="899.1602"/><text fill="#0A9EFD" font-family="Roboto" font-size="14" font-weight="bold" lengthAdjust="spacing" textLength="59" x="441.5" y="919.6953">SD-RTN</text><polygon fill="#0A9EFD" points="123,114.9766,133,118.9766,123,122.9766,127,118.9766" style="stroke:#0A9EFD;stroke-width:1.0;"/><line style="stroke:#0A9EFD;stroke-width:2.0;" x1="39" x2="129" y1="118.9766" y2="118.9766"/><text fill="#0A9EFD" font-family="Roboto" font-size="14" font-weight="bold" lengthAdjust="spacing" textLength="69" x="52.5" y="114.0234">Open app</text><line style="stroke:#0A9EFD;stroke-width:2.0;" x1="135" x2="177" y1="165.9531" y2="165.9531"/><line style="stroke:#0A9EFD;stroke-width:2.0;" x1="177" x2="177" y1="165.9531" y2="178.9531"/><line style="stroke:#0A9EFD;stroke-width:2.0;" x1="136" x2="177" y1="178.9531" y2="178.9531"/><polygon fill="#0A9EFD" points="146,174.9531,136,178.9531,146,182.9531,142,178.9531" style="stroke:#0A9EFD;stroke-width:1.0;"/><text fill="#0A9EFD" font-family="Roboto" font-size="14" font-weight="bold" lengthAdjust="spacing" textLength="275" x="142" y="144.5117">Initialize the Agora Video SDK engine:</text><text fill="#0A9EFD" font-family="Roboto" font-size="14" font-weight="bold" lengthAdjust="spacing" textLength="275" x="147" y="161">agoraEngine = createAgoraRtcEngine()</text><polygon fill="#0A9EFD" points="459,221.9297,469,225.9297,459,229.9297,463,225.9297" style="stroke:#0A9EFD;stroke-width:1.0;"/><line style="stroke:#0A9EFD;stroke-width:2.0;" x1="135" x2="465" y1="225.9297" y2="225.9297"/><text fill="#0A9EFD" font-family="Roboto" font-size="14" font-weight="bold" lengthAdjust="spacing" textLength="181" x="210" y="204.4883">Enable the video module:</text><text fill="#0A9EFD" font-family="Roboto" font-size="14" font-weight="bold" lengthAdjust="spacing" textLength="189" x="211" y="220.9766">agoraEngine.enableVideo()</text><line style="stroke:#0A9EFD;stroke-width:2.0;" x1="135" x2="177" y1="272.9063" y2="272.9063"/><line style="stroke:#0A9EFD;stroke-width:2.0;" x1="177" x2="177" y1="272.9063" y2="285.9063"/><line style="stroke:#0A9EFD;stroke-width:2.0;" x1="136" x2="177" y1="285.9063" y2="285.9063"/><polygon fill="#0A9EFD" points="146,281.9063,136,285.9063,146,289.9063,142,285.9063" style="stroke:#0A9EFD;stroke-width:1.0;"/><text fill="#0A9EFD" font-family="Roboto" font-size="14" font-weight="bold" lengthAdjust="spacing" textLength="194" x="166" y="251.4648">Register the event handler:</text><text fill="#0A9EFD" font-family="Roboto" font-size="14" font-weight="bold" lengthAdjust="spacing" textLength="242" x="147" y="267.9531">agoraEngine.registerEventHandler</text><line style="stroke:#0A9EFD;stroke-width:2.0;" x1="135" x2="177" y1="332.8828" y2="332.8828"/><line style="stroke:#0A9EFD;stroke-width:2.0;" x1="177" x2="177" y1="332.8828" y2="345.8828"/><line style="stroke:#0A9EFD;stroke-width:2.0;" x1="136" x2="177" y1="345.8828" y2="345.8828"/><polygon fill="#0A9EFD" points="146,341.8828,136,345.8828,146,349.8828,142,345.8828" style="stroke:#0A9EFD;stroke-width:1.0;"/><text fill="#0A9EFD" font-family="Roboto" font-size="14" font-weight="bold" lengthAdjust="spacing" textLength="225" x="142" y="311.4414">Setup AgoraVideoView widgets</text><text fill="#0A9EFD" font-family="Roboto" font-size="14" font-weight="bold" lengthAdjust="spacing" textLength="199" x="160" y="327.9297">for local and remote videos</text><path d="M10,360.8828 L129,360.8828 L129,369.3711 L119,379.3711 L10,379.3711 L10,360.8828 " fill="#EEEEEE" style="stroke:#0A9EFD;stroke-width:1.5;"/><rect fill="none" height="414.3242" style="stroke:#0A9EFD;stroke-width:2.0;" width="507.5" x="10" y="360.8828"/><text fill="#0A9EFD" font-family="Roboto" font-size="14" font-weight="bold" lengthAdjust="spacing" textLength="74" x="25" y="375.418">Video Call</text><polygon fill="#0A9EFD" points="123,397.8594,133,401.8594,123,405.8594,127,401.8594" style="stroke:#0A9EFD;stroke-width:1.0;"/><line style="stroke:#0A9EFD;stroke-width:2.0;" x1="39" x2="129" y1="401.8594" y2="401.8594"/><text fill="#0A9EFD" font-family="Roboto" font-size="14" font-weight="bold" lengthAdjust="spacing" textLength="72" x="51" y="396.9063">Join a call</text><polygon fill="#0A9EFD" points="459,444.8359,469,448.8359,459,452.8359,463,448.8359" style="stroke:#0A9EFD;stroke-width:1.0;"/><line style="stroke:#0A9EFD;stroke-width:2.0;" x1="135" x2="465" y1="448.8359" y2="448.8359"/><text fill="#0A9EFD" font-family="Roboto" font-size="14" font-weight="bold" lengthAdjust="spacing" textLength="116" x="242.5" y="427.3945">Set a client role:</text><text fill="#0A9EFD" font-family="Roboto" font-size="14" font-weight="bold" lengthAdjust="spacing" textLength="188" x="211.5" y="443.8828">agoraEngine.setClientRole</text><polygon fill="#0A9EFD" points="459,491.8125,469,495.8125,459,499.8125,463,495.8125" style="stroke:#0A9EFD;stroke-width:1.0;"/><line style="stroke:#0A9EFD;stroke-width:2.0;" x1="135" x2="465" y1="495.8125" y2="495.8125"/><text fill="#0A9EFD" font-family="Roboto" font-size="14" font-weight="bold" lengthAdjust="spacing" textLength="151" x="225" y="474.3711">Set a channel profile:</text><text fill="#0A9EFD" font-family="Roboto" font-size="14" font-weight="bold" lengthAdjust="spacing" textLength="219" x="196" y="490.8594">agoraEngine.setChannelProfile</text><line style="stroke:#0A9EFD;stroke-width:2.0;" x1="135" x2="177" y1="526.3008" y2="526.3008"/><line style="stroke:#0A9EFD;stroke-width:2.0;" x1="177" x2="177" y1="526.3008" y2="539.3008"/><line style="stroke:#0A9EFD;stroke-width:2.0;" x1="136" x2="177" y1="539.3008" y2="539.3008"/><polygon fill="#0A9EFD" points="146,535.3008,136,539.3008,146,543.3008,142,539.3008" style="stroke:#0A9EFD;stroke-width:1.0;"/><text fill="#0A9EFD" font-family="Roboto" font-size="14" font-weight="bold" lengthAdjust="spacing" textLength="214" x="142" y="521.3477">Retrieve authentication token</text><polygon fill="#0A9EFD" points="459,582.2773,469,586.2773,459,590.2773,463,586.2773" style="stroke:#0A9EFD;stroke-width:1.0;"/><line style="stroke:#0A9EFD;stroke-width:2.0;" x1="135" x2="465" y1="586.2773" y2="586.2773"/><text fill="#0A9EFD" font-family="Roboto" font-size="14" font-weight="bold" lengthAdjust="spacing" textLength="224" x="191" y="564.8359">Join a channel using the token:</text><text fill="#0A9EFD" font-family="Roboto" font-size="14" font-weight="bold" lengthAdjust="spacing" textLength="177" x="217" y="581.3242">agoraEngine.joinChannel</text><line style="stroke:#0A9EFD;stroke-width:2.0;" x1="135" x2="177" y1="633.2539" y2="633.2539"/><line style="stroke:#0A9EFD;stroke-width:2.0;" x1="177" x2="177" y1="633.2539" y2="646.2539"/><line style="stroke:#0A9EFD;stroke-width:2.0;" x1="136" x2="177" y1="646.2539" y2="646.2539"/><polygon fill="#0A9EFD" points="146,642.2539,136,646.2539,146,650.2539,142,646.2539" style="stroke:#0A9EFD;stroke-width:1.0;"/><text fill="#0A9EFD" font-family="Roboto" font-size="14" font-weight="bold" lengthAdjust="spacing" textLength="131" x="172" y="611.8125">Start local peview:</text><text fill="#0A9EFD" font-family="Roboto" font-size="14" font-weight="bold" lengthAdjust="spacing" textLength="191" x="147" y="628.3008">agoraEngine.startPreview()</text><polygon fill="#0A9EFD" points="146,689.2305,136,693.2305,146,697.2305,142,693.2305" style="stroke:#0A9EFD;stroke-width:1.0;"/><line style="stroke:#0A9EFD;stroke-width:2.0;" x1="140" x2="470" y1="693.2305" y2="693.2305"/><text fill="#0A9EFD" font-family="Roboto" font-size="14" font-weight="bold" lengthAdjust="spacing" textLength="144" x="228.5" y="671.7891">Remote user joined:</text><text fill="#0A9EFD" font-family="Roboto" font-size="14" font-weight="bold" lengthAdjust="spacing" textLength="270" x="170.5" y="688.2773">RtcEngineEventHandler onUserJoined:</text><polygon fill="#0A9EFD" points="146,719.7188,136,723.7188,146,727.7188,142,723.7188" style="stroke:#0A9EFD;stroke-width:1.0;"/><polygon fill="#0A9EFD" points="459,719.7188,469,723.7188,459,727.7188,463,723.7188" style="stroke:#0A9EFD;stroke-width:1.0;"/><line style="stroke:#0A9EFD;stroke-width:2.0;" x1="140" x2="465" y1="723.7188" y2="723.7188"/><text fill="#0A9EFD" font-family="Roboto" font-size="14" font-weight="bold" lengthAdjust="spacing" textLength="219" x="193.5" y="718.7656">Send and receive data streams</text><line style="stroke:#0A9EFD;stroke-width:2.0;" x1="135" x2="177" y1="754.207" y2="754.207"/><line style="stroke:#0A9EFD;stroke-width:2.0;" x1="177" x2="177" y1="754.207" y2="767.207"/><line style="stroke:#0A9EFD;stroke-width:2.0;" x1="136" x2="177" y1="767.207" y2="767.207"/><polygon fill="#0A9EFD" points="146,763.207,136,767.207,146,771.207,142,767.207" style="stroke:#0A9EFD;stroke-width:1.0;"/><text fill="#0A9EFD" font-family="Roboto" font-size="14" font-weight="bold" lengthAdjust="spacing" textLength="322" x="142" y="749.2539">Display remote video using AgoraVideoView</text><polygon fill="#0A9EFD" points="123,800.6953,133,804.6953,123,808.6953,127,804.6953" style="stroke:#0A9EFD;stroke-width:1.0;"/><line style="stroke:#0A9EFD;stroke-width:2.0;" x1="39" x2="129" y1="804.6953" y2="804.6953"/><text fill="#0A9EFD" font-family="Roboto" font-size="14" font-weight="bold" lengthAdjust="spacing" textLength="70" x="52" y="799.7422">Leave call</text><polygon fill="#0A9EFD" points="459,847.6719,469,851.6719,459,855.6719,463,851.6719" style="stroke:#0A9EFD;stroke-width:1.0;"/><line style="stroke:#0A9EFD;stroke-width:2.0;" x1="135" x2="465" y1="851.6719" y2="851.6719"/><text fill="#0A9EFD" font-family="Roboto" font-size="14" font-weight="bold" lengthAdjust="spacing" textLength="128" x="239" y="830.2305">Leave the channel</text><text fill="#0A9EFD" font-family="Roboto" font-size="14" font-weight="bold" lengthAdjust="spacing" textLength="196" x="207.5" y="846.7188">agoraEngine.leaveChannel()</text><polygon fill="#0A9EFD" points="123,878.1602,133,882.1602,123,886.1602,127,882.1602" style="stroke:#0A9EFD;stroke-width:1.0;"/><line style="stroke:#0A9EFD;stroke-width:2.0;" x1="39" x2="129" y1="882.1602" y2="882.1602"/><text fill="#0A9EFD" font-family="Roboto" font-size="14" font-weight="bold" lengthAdjust="spacing" textLength="71" x="51.5" y="877.207">Close app</text><!--SRC=[TLDTRnCn47pthrZk2HxI7n01KfL48Ys2w48h8I6XxTtskgrZMxOl1Nuzwm_IN58UlPwTsPcrtx3fzDWJu60z_WnFR2vut6cbi8lMGtCJo3U00MwshL9tzXSqt-te0Prhb4CVkME79a9poprPs2wlC_noir5aUf2EsdQP54vwjijP- -rBRLY_D8WOp3ucaZbyTMIId9BJeRWs71ar_o683mIP6muJ09c13StXXod6LlaC7w3pX94ol8rTARzzzqAzdiFAu9qkjFjCkBFzgC_8BYZZikOnWmpNqi0XaiySj2Tn-e2cr-JFI7o5hXBgKm5DkBOKHrVyPQbRfcTuvdwW61BPlIn9smurI3DusjbOvmvA3TvASubbWLfFShsoBBD0b-h7_aKnbJMdkRrznNcWkCZNhTo-rYjk3MbmtjxpV_eBP5CG9-b5pv8Qu2Zv6Nai6DaQYFQ9p4JjduCgDmOsGyuyG-Sdge-2hhBJXAEyo9gXextaUpvmWcnylgoxVZyhCxGbyL6-2IG5wdFtuN4TBnQiIT_fgi0gpI4vMLzPOKSixdkC227AUzs5oRnB3axZxyckg_VfCqdVQVgLFXCAyzd6Ipa5LwCyiQ_JVOrEx1ypBhGDb7_dNm00]--></g></svg>