<?xml version="1.0" encoding="us-ascii" standalone="no"?><svg xmlns="http://www.w3.org/2000/svg" xmlns:xlink="http://www.w3.org/1999/xlink" contentStyleType="text/css" height="760px" preserveAspectRatio="none" style="width:659px;height:760px;" version="1.1" viewBox="0 0 659 760" width="659px" zoomAndPan="magnify"><defs/><g><rect fill="none" height="758.1206" style="stroke:#0A9EFD;stroke-width:1.0;" width="657" x="0" y="0"/><rect fill="#999999" fill-opacity="0.33333" height="748.1206" style="stroke:#0A9EFD;stroke-width:0.5;" width="90" x="74.5" y="6"/><text fill="#0A9EFD" font-family="sans-serif" font-size="13" font-weight="bold" lengthAdjust="spacing" textLength="57" x="91" y="19.4951">Your app</text><rect fill="#999999" fill-opacity="0.33333" height="748.1206" style="stroke:#0A9EFD;stroke-width:0.5;" width="95" x="552" y="6"/><text fill="#0A9EFD" font-family="sans-serif" font-size="13" font-weight="bold" lengthAdjust="spacing" textLength="38" x="580.5" y="19.4951">Agora</text><rect fill="#0A9EFD" fill-opacity="0.06667" height="406.1797" style="stroke:#0A9EFD;stroke-width:2.0;" width="643" x="10" y="173.9961"/><line style="stroke:#0A9EFD;stroke-width:0.5;stroke-dasharray:5.0,5.0;" x1="37" x2="37" y1="86.0986" y2="670.022"/><line style="stroke:#0A9EFD;stroke-width:0.5;stroke-dasharray:5.0,5.0;" x1="119.5" x2="119.5" y1="86.0986" y2="670.022"/><line style="stroke:#0A9EFD;stroke-width:0.5;stroke-dasharray:5.0,5.0;" x1="599" x2="599" y1="86.0986" y2="670.022"/><text fill="#0A9EFD" font-family="Arial" font-size="14" lengthAdjust="spacing" textLength="29" x="20" y="83.1318">User</text><ellipse cx="37.5" cy="16" fill="none" rx="8" ry="8" style="stroke:#0A9EFD;stroke-width:3.0;"/><path d="M37.5,24 L37.5,51 M24.5,32 L50.5,32 M37.5,51 L24.5,66 M37.5,51 L50.5,66 " fill="none" style="stroke:#0A9EFD;stroke-width:3.0;"/><text fill="#0A9EFD" font-family="Arial" font-size="14" lengthAdjust="spacing" textLength="29" x="20" y="682.1538">User</text><ellipse cx="37.5" cy="696.1206" fill="none" rx="8" ry="8" style="stroke:#0A9EFD;stroke-width:3.0;"/><path d="M37.5,704.1206 L37.5,731.1206 M24.5,712.1206 L50.5,712.1206 M37.5,731.1206 L24.5,746.1206 M37.5,731.1206 L50.5,746.1206 " fill="none" style="stroke:#0A9EFD;stroke-width:3.0;"/><rect fill="none" height="30.0986" rx="2.5" ry="2.5" style="stroke:#0A9EFD;stroke-width:2.0;" width="82" x="78.5" y="55"/><text fill="#0A9EFD" font-family="Arial" font-size="14" lengthAdjust="spacing" textLength="68" x="85.5" y="75.1318">Video SDK</text><rect fill="none" height="30.0986" rx="2.5" ry="2.5" style="stroke:#0A9EFD;stroke-width:2.0;" width="82" x="78.5" y="669.022"/><text fill="#0A9EFD" font-family="Arial" font-size="14" lengthAdjust="spacing" textLength="68" x="85.5" y="689.1538">Video SDK</text><rect fill="none" height="30.0986" rx="2.5" ry="2.5" style="stroke:#0A9EFD;stroke-width:2.0;" width="87" x="556" y="55"/><text fill="#0A9EFD" font-family="Arial" font-size="14" lengthAdjust="spacing" textLength="73" x="563" y="75.1318">SD-RTN&#226;&#8222;&#162;</text><rect fill="none" height="30.0986" rx="2.5" ry="2.5" style="stroke:#0A9EFD;stroke-width:2.0;" width="87" x="556" y="669.022"/><text fill="#0A9EFD" font-family="Arial" font-size="14" lengthAdjust="spacing" textLength="73" x="563" y="689.1538">SD-RTN&#226;&#8222;&#162;</text><polygon fill="#0A9EFD" points="107.5,113.0474,117.5,117.0474,107.5,121.0474,111.5,117.0474" style="stroke:#0A9EFD;stroke-width:1.0;"/><line style="stroke:#0A9EFD;stroke-width:2.0;" x1="37.5" x2="113.5" y1="117.0474" y2="117.0474"/><text fill="#0A9EFD" font-family="Arial" font-size="13" lengthAdjust="spacing" textLength="58" x="49.5" y="112.2925">Open App</text><line style="stroke:#0A9EFD;stroke-width:2.0;" x1="119.5" x2="161.5" y1="145.9961" y2="145.9961"/><line style="stroke:#0A9EFD;stroke-width:2.0;" x1="161.5" x2="161.5" y1="145.9961" y2="158.9961"/><line style="stroke:#0A9EFD;stroke-width:2.0;" x1="120.5" x2="161.5" y1="158.9961" y2="158.9961"/><polygon fill="#0A9EFD" points="130.5,154.9961,120.5,158.9961,130.5,162.9961,126.5,158.9961" style="stroke:#0A9EFD;stroke-width:1.0;"/><text fill="#0A9EFD" font-family="Arial" font-size="13" lengthAdjust="spacing" textLength="293" x="126.5" y="141.2412">Setup app to handle local hardware and streaming.</text><path d="M10,173.9961 L82,173.9961 L82,180.9448 L72,190.9448 L10,190.9448 L10,173.9961 " fill="#EEEEEE" style="stroke:#0A9EFD;stroke-width:1.5;"/><rect fill="none" height="406.1797" style="stroke:#0A9EFD;stroke-width:2.0;" width="643" x="10" y="173.9961"/><text fill="#000000" font-family="Arial" font-size="13" lengthAdjust="spacing" textLength="27" x="25" y="187.1899">User</text><polygon fill="#0A9EFD" points="107.5,207.8936,117.5,211.8936,107.5,215.8936,111.5,211.8936" style="stroke:#0A9EFD;stroke-width:1.0;"/><line style="stroke:#0A9EFD;stroke-width:2.0;" x1="37.5" x2="113.5" y1="211.8936" y2="211.8936"/><text fill="#0A9EFD" font-family="Arial" font-size="13" lengthAdjust="spacing" textLength="52" x="52.5" y="207.1387">Start call</text><line style="stroke:#0A9EFD;stroke-width:2.0;" x1="119.5" x2="161.5" y1="255.791" y2="255.791"/><line style="stroke:#0A9EFD;stroke-width:2.0;" x1="161.5" x2="161.5" y1="255.791" y2="268.791"/><line style="stroke:#0A9EFD;stroke-width:2.0;" x1="120.5" x2="161.5" y1="268.791" y2="268.791"/><polygon fill="#0A9EFD" points="130.5,264.791,120.5,268.791,130.5,272.791,126.5,268.791" style="stroke:#0A9EFD;stroke-width:1.0;"/><text fill="#0A9EFD" font-family="Arial" font-size="13" lengthAdjust="spacing" textLength="136" x="230" y="236.0874">Create the agoraEngine</text><text fill="#0A9EFD" font-family="Arial" font-size="13" lengthAdjust="spacing" textLength="343" x="126.5" y="251.0361">const agoraEngine = useRTCClient(AgoraRTC.createClient)</text><line style="stroke:#0A9EFD;stroke-width:2.0;" x1="119.5" x2="161.5" y1="297.7397" y2="297.7397"/><line style="stroke:#0A9EFD;stroke-width:2.0;" x1="161.5" x2="161.5" y1="297.7397" y2="310.7397"/><line style="stroke:#0A9EFD;stroke-width:2.0;" x1="120.5" x2="161.5" y1="310.7397" y2="310.7397"/><polygon fill="#0A9EFD" points="130.5,306.7397,120.5,310.7397,130.5,314.7397,126.5,310.7397" style="stroke:#0A9EFD;stroke-width:1.0;"/><text fill="#0A9EFD" font-family="Arial" font-size="13" lengthAdjust="spacing" textLength="255" x="126.5" y="292.9849">Retrieve authentication token to join channel</text><polygon fill="#0A9EFD" points="587.5,350.6372,597.5,354.6372,587.5,358.6372,591.5,354.6372" style="stroke:#0A9EFD;stroke-width:1.0;"/><line style="stroke:#0A9EFD;stroke-width:2.0;" x1="119.5" x2="593.5" y1="354.6372" y2="354.6372"/><text fill="#0A9EFD" font-family="Arial" font-size="13" lengthAdjust="spacing" textLength="87" x="316" y="334.9336">Join a channel:</text><text fill="#0A9EFD" font-family="Arial" font-size="13" lengthAdjust="spacing" textLength="44" x="339.5" y="349.8823">useJoin</text><polygon fill="#0A9EFD" points="130.5,379.5859,120.5,383.5859,130.5,387.5859,126.5,383.5859" style="stroke:#0A9EFD;stroke-width:1.0;"/><line style="stroke:#0A9EFD;stroke-width:2.0;" x1="124.5" x2="598.5" y1="383.5859" y2="383.5859"/><text fill="#0A9EFD" font-family="Arial" font-size="13" lengthAdjust="spacing" textLength="80" x="319.5" y="378.8311">Join accepted</text><line style="stroke:#0A9EFD;stroke-width:2.0;" x1="119.5" x2="161.5" y1="442.4321" y2="442.4321"/><line style="stroke:#0A9EFD;stroke-width:2.0;" x1="161.5" x2="161.5" y1="442.4321" y2="455.4321"/><line style="stroke:#0A9EFD;stroke-width:2.0;" x1="120.5" x2="161.5" y1="455.4321" y2="455.4321"/><polygon fill="#0A9EFD" points="130.5,451.4321,120.5,455.4321,130.5,459.4321,126.5,455.4321" style="stroke:#0A9EFD;stroke-width:1.0;"/><text fill="#0A9EFD" font-family="Arial" font-size="13" lengthAdjust="spacing" textLength="156" x="281.5" y="407.7798">Create local media tracks :</text><text fill="#0A9EFD" font-family="Arial" font-size="13" lengthAdjust="spacing" textLength="466" x="126.5" y="422.7285">const { isLoading: isLoadingCam, localCameraTrack } = useLocalCameraTrack();</text><text fill="#0A9EFD" font-family="Arial" font-size="13" lengthAdjust="spacing" textLength="439" x="140" y="437.6772">const { isLoading: isLoadingMic, localMicrophoneTrack } = useLocalMicroph</text><polygon fill="#0A9EFD" points="587.5,495.3296,597.5,499.3296,587.5,503.3296,591.5,499.3296" style="stroke:#0A9EFD;stroke-width:1.0;"/><line style="stroke:#0A9EFD;stroke-width:2.0;" x1="119.5" x2="593.5" y1="499.3296" y2="499.3296"/><text fill="#0A9EFD" font-family="Arial" font-size="13" lengthAdjust="spacing" textLength="230" x="244.5" y="479.626">Push local media tracks to the channel:</text><text fill="#0A9EFD" font-family="Arial" font-size="13" lengthAdjust="spacing" textLength="322" x="200.5" y="494.5747">usePublish([localMicrophoneTrack, localCameraTrack]);</text><polygon fill="#0A9EFD" points="130.5,539.2271,120.5,543.2271,130.5,547.2271,126.5,543.2271" style="stroke:#0A9EFD;stroke-width:1.0;"/><line style="stroke:#0A9EFD;stroke-width:2.0;" x1="124.5" x2="598.5" y1="543.2271" y2="543.2271"/><text fill="#0A9EFD" font-family="Arial" font-size="13" lengthAdjust="spacing" textLength="224" x="245.5" y="523.5234">Retrieve streaming from the other user:</text><text fill="#0A9EFD" font-family="Arial" font-size="13" lengthAdjust="spacing" textLength="406" x="162.5" y="538.4722">&lt;RemoteUser user={remoteUser} playVideo={true} playAudio={true} /&gt;</text><polygon fill="#0A9EFD" points="130.5,568.1758,120.5,572.1758,130.5,576.1758,126.5,572.1758" style="stroke:#0A9EFD;stroke-width:1.0;"/><polygon fill="#0A9EFD" points="587.5,568.1758,597.5,572.1758,587.5,576.1758,591.5,572.1758" style="stroke:#0A9EFD;stroke-width:1.0;"/><line style="stroke:#0A9EFD;stroke-width:2.0;" x1="124.5" x2="593.5" y1="572.1758" y2="572.1758"/><text fill="#0A9EFD" font-family="Arial" font-size="13" lengthAdjust="spacing" textLength="182" x="268.5" y="567.4209">Receive and send data streams</text><polygon fill="#0A9EFD" points="107.5,604.1245,117.5,608.1245,107.5,612.1245,111.5,608.1245" style="stroke:#0A9EFD;stroke-width:1.0;"/><line style="stroke:#0A9EFD;stroke-width:2.0;" x1="37.5" x2="113.5" y1="608.1245" y2="608.1245"/><text fill="#0A9EFD" font-family="Arial" font-size="13" lengthAdjust="spacing" textLength="57" x="50" y="603.3696">Leave call</text><polygon fill="#0A9EFD" points="587.5,648.022,597.5,652.022,587.5,656.022,591.5,652.022" style="stroke:#0A9EFD;stroke-width:1.0;"/><line style="stroke:#0A9EFD;stroke-width:2.0;" x1="119.5" x2="593.5" y1="652.022" y2="652.022"/><text fill="#0A9EFD" font-family="Arial" font-size="13" lengthAdjust="spacing" textLength="108" x="305.5" y="632.3184">Leave the channel:</text><text fill="#0A9EFD" font-family="Arial" font-size="13" lengthAdjust="spacing" textLength="44" x="339.5" y="647.2671">useJoin</text><!--SRC=[VLFBRjim4BphAxOwsK3ZtfKuWE7quDPj3SafK2H5iQ6s5ck994WgRM44w9Vqa4zf_oHVqgKaFnGRlGZaa3Epirg-a4gKTKw0AstnYrjBDP9rLKOH2gyjnDUER0peu3fBe-XE_u3uawuje35nPD1wAQH1vI7-A7FIa5szRQvF5ek8L0xCw6YJuF2CarsTfSltVn-VVlt-yzZnPdiUUyBPPT1Au8CX1HDZ8jxjm8nyRK8ju3KKgFAIeDG2IzxO_3jQ3iPYpbl2IghLA8fMLZCbnEh9Pvxh0cQMFOCf4ps1BxeElLOhgUXM2QsSFuHW3BMZT3cTbfAK7pHfUJiIZKAB3dlQANahwPwLQzPNt1NqKYkEigRmXMzQAX0SIz51LRC4teG3t1ubjofu1v1lpJfzs5uJWeod_5IijbKLvHB1MnHh1yassmQacslCkMl9VZd5wcLBunLPN0OMFBJfvy_mmV3y_shlfEZKU6MrARIYOyNkhDS1MDIkE5K_jotyh7vh5lLTALqnk3dbTPpdy_3ye947FsetH_3LwgenqlonmSCcm6O05obLsbCOi0OUR-mEU01Jui_ceOmttjRK0fCwbplWrMNZVR4t5oJlkpaEBoD7ZrqbBZoL_ZEP4_Bb_XpFjl1nPvgX-GS0]--></g></svg>
