<?xml version="1.0" encoding="us-ascii" standalone="no"?><svg xmlns="http://www.w3.org/2000/svg" xmlns:xlink="http://www.w3.org/1999/xlink" contentStyleType="text/css" height="1016px" preserveAspectRatio="none" style="width:690px;height:1016px;background:#FFFFFF;" version="1.1" viewBox="0 0 690 1016" width="690px" zoomAndPan="magnify"><defs><style type="text/css">@import url('https://fonts.googleapis.com/css?family=Roboto:400,100,100italic,300,300italic,400italic,500,500italic,700,700italic,900,900italic');</style></defs><g><rect fill="none" height="1014.6484" style="stroke:#0A9EFD;stroke-width:1.0;" width="688.5" x="0" y="0"/><rect fill="#F3F3F3" height="1004.6484" style="stroke:#0A9EFD;stroke-width:0.5;" width="97" x="85.5" y="6"/><text fill="#0A9EFD" font-family="sans-serif" font-size="13" font-weight="bold" lengthAdjust="spacing" textLength="62" x="103" y="18.5684">Your app</text><rect fill="#F3F3F3" height="1004.6484" style="stroke:#0A9EFD;stroke-width:0.5;" width="81" x="597.5" y="6"/><text fill="#0A9EFD" font-family="sans-serif" font-size="13" font-weight="bold" lengthAdjust="spacing" textLength="41" x="617.5" y="18.5684">Agora</text><rect fill="#FFFFFF" height="410.8359" style="stroke:#0A9EFD;stroke-width:2.0;" width="674.5" x="10" y="360.8828"/><line style="stroke:#0A9EFD;stroke-width:0.5;stroke-dasharray:5.0,5.0;" x1="39" x2="39" y1="86.4883" y2="926.1602"/><line style="stroke:#0A9EFD;stroke-width:0.5;stroke-dasharray:5.0,5.0;" x1="133.5" x2="133.5" y1="86.4883" y2="926.1602"/><line style="stroke:#0A9EFD;stroke-width:0.5;stroke-dasharray:5.0,5.0;" x1="637.5" x2="637.5" y1="86.4883" y2="926.1602"/><text fill="#0A9EFD" font-family="Roboto" font-size="14" font-weight="bold" lengthAdjust="spacing" textLength="32" x="20" y="83.5352">User</text><ellipse cx="39" cy="16" fill="none" rx="8" ry="8" style="stroke:#0A9EFD;stroke-width:3.0;"/><path d="M39,24 L39,51 M26,32 L52,32 M39,51 L26,66 M39,51 L52,66 " fill="none" style="stroke:#0A9EFD;stroke-width:3.0;"/><text fill="#0A9EFD" font-family="Roboto" font-size="14" font-weight="bold" lengthAdjust="spacing" textLength="32" x="20" y="938.6953">User</text><ellipse cx="39" cy="952.6484" fill="none" rx="8" ry="8" style="stroke:#0A9EFD;stroke-width:3.0;"/><path d="M39,960.6484 L39,987.6484 M26,968.6484 L52,968.6484 M39,987.6484 L26,1002.6484 M39,987.6484 L52,1002.6484 " fill="none" style="stroke:#0A9EFD;stroke-width:3.0;"/><rect fill="#FFFFFF" height="30.4883" rx="2.5" ry="2.5" style="stroke:#0A9EFD;stroke-width:2.0;" width="89" x="89.5" y="55"/><text fill="#0A9EFD" font-family="Roboto" font-size="14" font-weight="bold" lengthAdjust="spacing" textLength="75" x="96.5" y="75.5352">Video SDK</text><rect fill="#FFFFFF" height="30.4883" rx="2.5" ry="2.5" style="stroke:#0A9EFD;stroke-width:2.0;" width="89" x="89.5" y="925.1602"/><text fill="#0A9EFD" font-family="Roboto" font-size="14" font-weight="bold" lengthAdjust="spacing" textLength="75" x="96.5" y="945.6953">Video SDK</text><rect fill="#FFFFFF" height="30.4883" rx="2.5" ry="2.5" style="stroke:#0A9EFD;stroke-width:2.0;" width="73" x="601.5" y="55"/><text fill="#0A9EFD" font-family="Roboto" font-size="14" font-weight="bold" lengthAdjust="spacing" textLength="59" x="608.5" y="75.5352">SD-RTN</text><rect fill="#FFFFFF" height="30.4883" rx="2.5" ry="2.5" style="stroke:#0A9EFD;stroke-width:2.0;" width="73" x="601.5" y="925.1602"/><text fill="#0A9EFD" font-family="Roboto" font-size="14" font-weight="bold" lengthAdjust="spacing" textLength="59" x="608.5" y="945.6953">SD-RTN</text><polygon fill="#0A9EFD" points="122,114.9766,132,118.9766,122,122.9766,126,118.9766" style="stroke:#0A9EFD;stroke-width:1.0;"/><line style="stroke:#0A9EFD;stroke-width:2.0;" x1="39" x2="128" y1="118.9766" y2="118.9766"/><text fill="#0A9EFD" font-family="Roboto" font-size="14" font-weight="bold" lengthAdjust="spacing" textLength="71" x="51" y="114.0234">Open App</text><line style="stroke:#0A9EFD;stroke-width:2.0;" x1="134" x2="176" y1="165.9531" y2="165.9531"/><line style="stroke:#0A9EFD;stroke-width:2.0;" x1="176" x2="176" y1="165.9531" y2="178.9531"/><line style="stroke:#0A9EFD;stroke-width:2.0;" x1="135" x2="176" y1="178.9531" y2="178.9531"/><polygon fill="#0A9EFD" points="145,174.9531,135,178.9531,145,182.9531,141,178.9531" style="stroke:#0A9EFD;stroke-width:1.0;"/><text fill="#0A9EFD" font-family="Roboto" font-size="14" font-weight="bold" lengthAdjust="spacing" textLength="317" x="163" y="144.5117">Create an instance of the Video SDK engine:</text><text fill="#0A9EFD" font-family="Roboto" font-size="14" font-weight="bold" lengthAdjust="spacing" textLength="356" x="146" y="161">agoraEngine = agoraEngine.createAgoraRtcEngine</text><line style="stroke:#0A9EFD;stroke-width:2.0;" x1="134" x2="176" y1="225.9297" y2="225.9297"/><line style="stroke:#0A9EFD;stroke-width:2.0;" x1="176" x2="176" y1="225.9297" y2="238.9297"/><line style="stroke:#0A9EFD;stroke-width:2.0;" x1="135" x2="176" y1="238.9297" y2="238.9297"/><polygon fill="#0A9EFD" points="145,234.9297,135,238.9297,145,242.9297,141,238.9297" style="stroke:#0A9EFD;stroke-width:1.0;"/><text fill="#0A9EFD" font-family="Roboto" font-size="14" font-weight="bold" lengthAdjust="spacing" textLength="217" x="141" y="204.4883">Initialize the created instance:</text><text fill="#0A9EFD" font-family="Roboto" font-size="14" font-weight="bold" lengthAdjust="spacing" textLength="155" x="177" y="220.9766">agoraEngine.initialize</text><polygon fill="#0A9EFD" points="626,281.9063,636,285.9063,626,289.9063,630,285.9063" style="stroke:#0A9EFD;stroke-width:1.0;"/><line style="stroke:#0A9EFD;stroke-width:2.0;" x1="134" x2="632" y1="285.9063" y2="285.9063"/><text fill="#0A9EFD" font-family="Roboto" font-size="14" font-weight="bold" lengthAdjust="spacing" textLength="144" x="314" y="264.4648">Set the role as host:</text><text fill="#0A9EFD" font-family="Roboto" font-size="14" font-weight="bold" lengthAdjust="spacing" textLength="470" x="156" y="280.9531">agoraEngine.setClientRole(ClientRoleType.ClientRoleBroadcaster)</text><line style="stroke:#0A9EFD;stroke-width:2.0;" x1="134" x2="176" y1="332.8828" y2="332.8828"/><line style="stroke:#0A9EFD;stroke-width:2.0;" x1="176" x2="176" y1="332.8828" y2="345.8828"/><line style="stroke:#0A9EFD;stroke-width:2.0;" x1="135" x2="176" y1="345.8828" y2="345.8828"/><polygon fill="#0A9EFD" points="145,341.8828,135,345.8828,145,349.8828,141,345.8828" style="stroke:#0A9EFD;stroke-width:1.0;"/><text fill="#0A9EFD" font-family="Roboto" font-size="14" font-weight="bold" lengthAdjust="spacing" textLength="207" x="158.5" y="311.4414">Setup the callback functions:</text><text fill="#0A9EFD" font-family="Roboto" font-size="14" font-weight="bold" lengthAdjust="spacing" textLength="242" x="146" y="327.9297">agoraEngine.registerEventHandler</text><path d="M10,360.8828 L87,360.8828 L87,369.3711 L77,379.3711 L10,379.3711 L10,360.8828 " fill="#EEEEEE" style="stroke:#0A9EFD;stroke-width:1.5;"/><rect fill="none" height="410.8359" style="stroke:#0A9EFD;stroke-width:2.0;" width="674.5" x="10" y="360.8828"/><text fill="#0A9EFD" font-family="Roboto" font-size="14" font-weight="bold" lengthAdjust="spacing" textLength="32" x="25" y="375.418">User</text><polygon fill="#0A9EFD" points="122,397.8594,132,401.8594,122,405.8594,126,401.8594" style="stroke:#0A9EFD;stroke-width:1.0;"/><line style="stroke:#0A9EFD;stroke-width:2.0;" x1="39" x2="128" y1="401.8594" y2="401.8594"/><text fill="#0A9EFD" font-family="Roboto" font-size="14" font-weight="bold" lengthAdjust="spacing" textLength="64" x="54.5" y="396.9063">Start call</text><line style="stroke:#0A9EFD;stroke-width:2.0;" x1="134" x2="176" y1="432.3477" y2="432.3477"/><line style="stroke:#0A9EFD;stroke-width:2.0;" x1="176" x2="176" y1="432.3477" y2="445.3477"/><line style="stroke:#0A9EFD;stroke-width:2.0;" x1="135" x2="176" y1="445.3477" y2="445.3477"/><polygon fill="#0A9EFD" points="145,441.3477,135,445.3477,145,449.3477,141,445.3477" style="stroke:#0A9EFD;stroke-width:1.0;"/><text fill="#0A9EFD" font-family="Roboto" font-size="14" font-weight="bold" lengthAdjust="spacing" textLength="327" x="141" y="427.3945">Retrieve authentication token to join channel</text><line style="stroke:#0A9EFD;stroke-width:2.0;" x1="134" x2="176" y1="475.8359" y2="475.8359"/><line style="stroke:#0A9EFD;stroke-width:2.0;" x1="176" x2="176" y1="475.8359" y2="488.8359"/><line style="stroke:#0A9EFD;stroke-width:2.0;" x1="135" x2="176" y1="488.8359" y2="488.8359"/><polygon fill="#0A9EFD" points="145,484.8359,135,488.8359,145,492.8359,141,488.8359" style="stroke:#0A9EFD;stroke-width:1.0;"/><text fill="#0A9EFD" font-family="Roboto" font-size="14" font-weight="bold" lengthAdjust="spacing" textLength="340" x="141" y="470.8828">Setup local video: agoraEngine.setupLocalVideo</text><line style="stroke:#0A9EFD;stroke-width:2.0;" x1="134" x2="176" y1="535.8125" y2="535.8125"/><line style="stroke:#0A9EFD;stroke-width:2.0;" x1="176" x2="176" y1="535.8125" y2="548.8125"/><line style="stroke:#0A9EFD;stroke-width:2.0;" x1="135" x2="176" y1="548.8125" y2="548.8125"/><polygon fill="#0A9EFD" points="145,544.8125,135,548.8125,145,552.8125,141,548.8125" style="stroke:#0A9EFD;stroke-width:1.0;"/><text fill="#0A9EFD" font-family="Roboto" font-size="14" font-weight="bold" lengthAdjust="spacing" textLength="225" x="141" y="514.3711">Enable the local video capturer:</text><text fill="#0A9EFD" font-family="Roboto" font-size="14" font-weight="bold" lengthAdjust="spacing" textLength="179" x="169" y="530.8594">agoraEngine.enableVideo</text><line style="stroke:#0A9EFD;stroke-width:2.0;" x1="134" x2="176" y1="595.7891" y2="595.7891"/><line style="stroke:#0A9EFD;stroke-width:2.0;" x1="176" x2="176" y1="595.7891" y2="608.7891"/><line style="stroke:#0A9EFD;stroke-width:2.0;" x1="135" x2="176" y1="608.7891" y2="608.7891"/><polygon fill="#0A9EFD" points="145,604.7891,135,608.7891,145,612.7891,141,608.7891" style="stroke:#0A9EFD;stroke-width:1.0;"/><text fill="#0A9EFD" font-family="Roboto" font-size="14" font-weight="bold" lengthAdjust="spacing" textLength="142" x="165.5" y="574.3477">Start local preview :</text><text fill="#0A9EFD" font-family="Roboto" font-size="14" font-weight="bold" lengthAdjust="spacing" textLength="181" x="151" y="590.8359">agoraEngine.startPreview</text><polygon fill="#0A9EFD" points="626,651.7656,636,655.7656,626,659.7656,630,655.7656" style="stroke:#0A9EFD;stroke-width:1.0;"/><line style="stroke:#0A9EFD;stroke-width:2.0;" x1="134" x2="632" y1="655.7656" y2="655.7656"/><text fill="#0A9EFD" font-family="Roboto" font-size="14" font-weight="bold" lengthAdjust="spacing" textLength="105" x="333.5" y="634.3242">Join a channel:</text><text fill="#0A9EFD" font-family="Roboto" font-size="14" font-weight="bold" lengthAdjust="spacing" textLength="177" x="300" y="650.8125">agoraEngine.joinChannel</text><polygon fill="#0A9EFD" points="145,682.2539,135,686.2539,145,690.2539,141,686.2539" style="stroke:#0A9EFD;stroke-width:1.0;"/><line style="stroke:#0A9EFD;stroke-width:2.0;" x1="139" x2="637" y1="686.2539" y2="686.2539"/><text fill="#0A9EFD" font-family="Roboto" font-size="14" font-weight="bold" lengthAdjust="spacing" textLength="96" x="338" y="681.3008">Join accepted</text><polygon fill="#0A9EFD" points="626,729.2305,636,733.2305,626,737.2305,630,733.2305" style="stroke:#0A9EFD;stroke-width:1.0;"/><line style="stroke:#0A9EFD;stroke-width:2.0;" x1="134" x2="632" y1="733.2305" y2="733.2305"/><text fill="#0A9EFD" font-family="Roboto" font-size="14" font-weight="bold" lengthAdjust="spacing" textLength="287" x="240" y="711.7891">Retrieve streaming from the other user:</text><text fill="#0A9EFD" font-family="Roboto" font-size="14" font-weight="bold" lengthAdjust="spacing" textLength="227" x="275" y="728.2773">agoraEngine.setupRemoteVideo</text><polygon fill="#0A9EFD" points="145,759.7188,135,763.7188,145,767.7188,141,763.7188" style="stroke:#0A9EFD;stroke-width:1.0;"/><polygon fill="#0A9EFD" points="626,759.7188,636,763.7188,626,767.7188,630,763.7188" style="stroke:#0A9EFD;stroke-width:1.0;"/><line style="stroke:#0A9EFD;stroke-width:2.0;" x1="139" x2="632" y1="763.7188" y2="763.7188"/><text fill="#0A9EFD" font-family="Roboto" font-size="14" font-weight="bold" lengthAdjust="spacing" textLength="223" x="274.5" y="758.7656">Receive and send data streams</text><polygon fill="#0A9EFD" points="122,797.207,132,801.207,122,805.207,126,801.207" style="stroke:#0A9EFD;stroke-width:1.0;"/><line style="stroke:#0A9EFD;stroke-width:2.0;" x1="39" x2="128" y1="801.207" y2="801.207"/><text fill="#0A9EFD" font-family="Roboto" font-size="14" font-weight="bold" lengthAdjust="spacing" textLength="70" x="51.5" y="796.2539">Leave call</text><line style="stroke:#0A9EFD;stroke-width:2.0;" x1="134" x2="176" y1="848.1836" y2="848.1836"/><line style="stroke:#0A9EFD;stroke-width:2.0;" x1="176" x2="176" y1="848.1836" y2="861.1836"/><line style="stroke:#0A9EFD;stroke-width:2.0;" x1="135" x2="176" y1="861.1836" y2="861.1836"/><polygon fill="#0A9EFD" points="145,857.1836,135,861.1836,145,865.1836,141,861.1836" style="stroke:#0A9EFD;stroke-width:1.0;"/><text fill="#0A9EFD" font-family="Roboto" font-size="14" font-weight="bold" lengthAdjust="spacing" textLength="163" x="141" y="826.7422">Stop the local preview:</text><text fill="#0A9EFD" font-family="Roboto" font-size="14" font-weight="bold" lengthAdjust="spacing" textLength="88" x="183.5" y="843.2305">stopPreview</text><polygon fill="#0A9EFD" points="626,904.1602,636,908.1602,626,912.1602,630,908.1602" style="stroke:#0A9EFD;stroke-width:1.0;"/><line style="stroke:#0A9EFD;stroke-width:2.0;" x1="134" x2="632" y1="908.1602" y2="908.1602"/><text fill="#0A9EFD" font-family="Roboto" font-size="14" font-weight="bold" lengthAdjust="spacing" textLength="128" x="322" y="886.7188">leave the channel:</text><text fill="#0A9EFD" font-family="Roboto" font-size="14" font-weight="bold" lengthAdjust="spacing" textLength="186" x="295.5" y="903.207">agoraEngine.leaveChannel</text><!--SRC=[RLFRZjem47ttLqnvQX_W0w9s9SeYDUsgHM6tKgMLgi4PmCMCBTkXbw-lxK1882zHRC-SonpxZMAfcve0TyRXJtzGF5FDKGk1CXW7anTFRWBeuMLT2R4nVs3ompGEqDg941PTK59Pv02Jxwec0-l7Bxb-lbe9GLn3x3atpXF7RTVwSLezVpstbBsMI0ZJXuHJm3TB37DhHLnrcmj76A9o1iK-84i2iuMm9-YK0F5ECHMlt1fSvYLywAzcCkDaSLMGxUQ0g6GL56hrZp9wMrzth0KCuMUggx_2b0MiAUH-PpGbktlZGr8swFKK5beHXofMlRt-Fl-rDBikFpg3jKGVoBqRQ8qaZMrbejORb0VODYo3CkplX3hQgGInF4NOJyYr9YV4pfa8aO8VPB0ECRQCcWYd3tcpek0KdQAV9d9oZ1KJ5GHpeFI5NqOno3qoanuHgaq4X5FAgxYTGsEVqcaEizSA1ImPDxeDemSGjTdGE79tFYdNZm2rdbeCw-Yaw3VSHvAALktf8D3FoHjUtDrSibbolkYCbrVIjarAil4M3G2xQVeGxzXHyGwspXopKHC_3Xe_OY_FggAZ2Pt74jvV1bsH99KIYW_BfzTLOy0pWq_FRP3o4-69kfHxuHlRc_TvLbc9ZqTZqz4PAT_4yG7bWik4_WC0]--></g></svg>