<?xml version="1.0" encoding="us-ascii" standalone="no"?><svg xmlns="http://www.w3.org/2000/svg" xmlns:xlink="http://www.w3.org/1999/xlink" contentStyleType="text/css" height="869px" preserveAspectRatio="none" style="width:579px;height:869px;background:#FFFFFF;" version="1.1" viewBox="0 0 579 869" width="579px" zoomAndPan="magnify"><defs><style type="text/css">@import url('https://fonts.googleapis.com/css?family=Roboto:400,100,100italic,300,300italic,400italic,500,500italic,700,700italic,900,900italic');</style></defs><g><rect fill="none" height="867.6953" style="stroke:#0A9EFD;stroke-width:1.0;" width="577.5" x="0" y="0"/><rect fill="#F3F3F3" height="857.6953" style="stroke:#0A9EFD;stroke-width:0.5;" width="97" x="112.5" y="6"/><text fill="#0A9EFD" font-family="sans-serif" font-size="13" font-weight="bold" lengthAdjust="spacing" textLength="62" x="130" y="18.5684">Your app</text><rect fill="#F3F3F3" height="857.6953" style="stroke:#0A9EFD;stroke-width:0.5;" width="81" x="486.5" y="6"/><text fill="#0A9EFD" font-family="sans-serif" font-size="13" font-weight="bold" lengthAdjust="spacing" textLength="41" x="506.5" y="18.5684">Agora</text><rect fill="#FFFFFF" height="293.3711" style="stroke:#0A9EFD;stroke-width:2.0;" width="563.5" x="10" y="253.9297"/><line style="stroke:#0A9EFD;stroke-width:0.5;stroke-dasharray:5.0,5.0;" x1="39" x2="39" y1="86.4883" y2="779.207"/><line style="stroke:#0A9EFD;stroke-width:0.5;stroke-dasharray:5.0,5.0;" x1="160.5" x2="160.5" y1="86.4883" y2="779.207"/><line style="stroke:#0A9EFD;stroke-width:0.5;stroke-dasharray:5.0,5.0;" x1="526.5" x2="526.5" y1="86.4883" y2="779.207"/><text fill="#0A9EFD" font-family="Roboto" font-size="14" font-weight="bold" lengthAdjust="spacing" textLength="32" x="20" y="83.5352">User</text><ellipse cx="39" cy="16" fill="none" rx="8" ry="8" style="stroke:#0A9EFD;stroke-width:3.0;"/><path d="M39,24 L39,51 M26,32 L52,32 M39,51 L26,66 M39,51 L52,66 " fill="none" style="stroke:#0A9EFD;stroke-width:3.0;"/><text fill="#0A9EFD" font-family="Roboto" font-size="14" font-weight="bold" lengthAdjust="spacing" textLength="32" x="20" y="791.7422">User</text><ellipse cx="39" cy="805.6953" fill="none" rx="8" ry="8" style="stroke:#0A9EFD;stroke-width:3.0;"/><path d="M39,813.6953 L39,840.6953 M26,821.6953 L52,821.6953 M39,840.6953 L26,855.6953 M39,840.6953 L52,855.6953 " fill="none" style="stroke:#0A9EFD;stroke-width:3.0;"/><rect fill="#FFFFFF" height="30.4883" rx="2.5" ry="2.5" style="stroke:#0A9EFD;stroke-width:2.0;" width="89" x="116.5" y="55"/><text fill="#0A9EFD" font-family="Roboto" font-size="14" font-weight="bold" lengthAdjust="spacing" textLength="75" x="123.5" y="75.5352">Video SDK</text><rect fill="#FFFFFF" height="30.4883" rx="2.5" ry="2.5" style="stroke:#0A9EFD;stroke-width:2.0;" width="89" x="116.5" y="778.207"/><text fill="#0A9EFD" font-family="Roboto" font-size="14" font-weight="bold" lengthAdjust="spacing" textLength="75" x="123.5" y="798.7422">Video SDK</text><rect fill="#FFFFFF" height="30.4883" rx="2.5" ry="2.5" style="stroke:#0A9EFD;stroke-width:2.0;" width="73" x="490.5" y="55"/><text fill="#0A9EFD" font-family="Roboto" font-size="14" font-weight="bold" lengthAdjust="spacing" textLength="59" x="497.5" y="75.5352">SD-RTN</text><rect fill="#FFFFFF" height="30.4883" rx="2.5" ry="2.5" style="stroke:#0A9EFD;stroke-width:2.0;" width="73" x="490.5" y="778.207"/><text fill="#0A9EFD" font-family="Roboto" font-size="14" font-weight="bold" lengthAdjust="spacing" textLength="59" x="497.5" y="798.7422">SD-RTN</text><polygon fill="#0A9EFD" points="149,114.9766,159,118.9766,149,122.9766,153,118.9766" style="stroke:#0A9EFD;stroke-width:1.0;"/><line style="stroke:#0A9EFD;stroke-width:2.0;" x1="39" x2="155" y1="118.9766" y2="118.9766"/><text fill="#0A9EFD" font-family="Roboto" font-size="14" font-weight="bold" lengthAdjust="spacing" textLength="69" x="65.5" y="114.0234">Open app</text><line style="stroke:#0A9EFD;stroke-width:2.0;" x1="161" x2="203" y1="165.9531" y2="165.9531"/><line style="stroke:#0A9EFD;stroke-width:2.0;" x1="203" x2="203" y1="165.9531" y2="178.9531"/><line style="stroke:#0A9EFD;stroke-width:2.0;" x1="162" x2="203" y1="178.9531" y2="178.9531"/><polygon fill="#0A9EFD" points="172,174.9531,162,178.9531,172,182.9531,168,178.9531" style="stroke:#0A9EFD;stroke-width:1.0;"/><text fill="#0A9EFD" font-family="Roboto" font-size="14" font-weight="bold" lengthAdjust="spacing" textLength="216" x="236" y="144.5117">Initiate the Video SDK engine:</text><text fill="#0A9EFD" font-family="Roboto" font-size="14" font-weight="bold" lengthAdjust="spacing" textLength="342" x="178" y="161">agoraEngine = AgoraRtcEngineKit.sharedEngine</text><line style="stroke:#0A9EFD;stroke-width:2.0;" x1="161" x2="203" y1="225.9297" y2="225.9297"/><line style="stroke:#0A9EFD;stroke-width:2.0;" x1="203" x2="203" y1="225.9297" y2="238.9297"/><line style="stroke:#0A9EFD;stroke-width:2.0;" x1="162" x2="203" y1="238.9297" y2="238.9297"/><polygon fill="#0A9EFD" points="172,234.9297,162,238.9297,172,242.9297,168,238.9297" style="stroke:#0A9EFD;stroke-width:1.0;"/><text fill="#0A9EFD" font-family="Roboto" font-size="14" font-weight="bold" lengthAdjust="spacing" textLength="209" x="168" y="204.4883">Setup the local video stream:</text><text fill="#0A9EFD" font-family="Roboto" font-size="14" font-weight="bold" lengthAdjust="spacing" textLength="189" x="183" y="220.9766">agoraEngine.enableVideo()</text><path d="M10,253.9297 L89,253.9297 L89,262.418 L79,272.418 L10,272.418 L10,253.9297 " fill="#EEEEEE" style="stroke:#0A9EFD;stroke-width:1.5;"/><rect fill="none" height="293.3711" style="stroke:#0A9EFD;stroke-width:2.0;" width="563.5" x="10" y="253.9297"/><text fill="#0A9EFD" font-family="Roboto" font-size="14" font-weight="bold" lengthAdjust="spacing" textLength="34" x="25" y="268.4648">Host</text><polygon fill="#0A9EFD" points="149,290.9063,159,294.9063,149,298.9063,153,294.9063" style="stroke:#0A9EFD;stroke-width:1.0;"/><line style="stroke:#0A9EFD;stroke-width:2.0;" x1="39" x2="155" y1="294.9063" y2="294.9063"/><text fill="#0A9EFD" font-family="Roboto" font-size="14" font-weight="bold" lengthAdjust="spacing" textLength="77" x="61.5" y="289.9531">Start a call</text><line style="stroke:#0A9EFD;stroke-width:2.0;" x1="161" x2="203" y1="341.8828" y2="341.8828"/><line style="stroke:#0A9EFD;stroke-width:2.0;" x1="203" x2="203" y1="341.8828" y2="354.8828"/><line style="stroke:#0A9EFD;stroke-width:2.0;" x1="162" x2="203" y1="354.8828" y2="354.8828"/><polygon fill="#0A9EFD" points="172,350.8828,162,354.8828,172,358.8828,168,354.8828" style="stroke:#0A9EFD;stroke-width:1.0;"/><text fill="#0A9EFD" font-family="Roboto" font-size="14" font-weight="bold" lengthAdjust="spacing" textLength="277" x="174.5" y="320.4414">In a call, all users send to the channel:</text><text fill="#0A9EFD" font-family="Roboto" font-size="14" font-weight="bold" lengthAdjust="spacing" textLength="285" x="173" y="336.9297">agoraEngine.setClientRole(.broadcaster)</text><line style="stroke:#0A9EFD;stroke-width:2.0;" x1="161" x2="203" y1="401.8594" y2="401.8594"/><line style="stroke:#0A9EFD;stroke-width:2.0;" x1="203" x2="203" y1="401.8594" y2="414.8594"/><line style="stroke:#0A9EFD;stroke-width:2.0;" x1="162" x2="203" y1="414.8594" y2="414.8594"/><polygon fill="#0A9EFD" points="172,410.8594,162,414.8594,172,418.8594,168,414.8594" style="stroke:#0A9EFD;stroke-width:1.0;"/><text fill="#0A9EFD" font-family="Roboto" font-size="14" font-weight="bold" lengthAdjust="spacing" textLength="120" x="267.5" y="380.418">Start local video:</text><text fill="#0A9EFD" font-family="Roboto" font-size="14" font-weight="bold" lengthAdjust="spacing" textLength="309" x="178" y="396.9063">agoraEngine.setupLocalVideo(videoCanvas)</text><polygon fill="#0A9EFD" points="515,457.8359,525,461.8359,515,465.8359,519,461.8359" style="stroke:#0A9EFD;stroke-width:1.0;"/><line style="stroke:#0A9EFD;stroke-width:2.0;" x1="161" x2="521" y1="461.8359" y2="461.8359"/><text fill="#0A9EFD" font-family="Roboto" font-size="14" font-weight="bold" lengthAdjust="spacing" textLength="120" x="284" y="440.3945">Join the channel:</text><text fill="#0A9EFD" font-family="Roboto" font-size="14" font-weight="bold" lengthAdjust="spacing" textLength="184" x="254.5" y="456.8828">agoraEngine?.joinChannel</text><polygon fill="#0A9EFD" points="515,504.8125,525,508.8125,515,512.8125,519,508.8125" style="stroke:#0A9EFD;stroke-width:1.0;"/><line style="stroke:#0A9EFD;stroke-width:2.0;" x1="161" x2="521" y1="508.8125" y2="508.8125"/><text fill="#0A9EFD" font-family="Roboto" font-size="14" font-weight="bold" lengthAdjust="spacing" textLength="287" x="198" y="487.3711">Retrieve streaming from the other user:</text><text fill="#0A9EFD" font-family="Roboto" font-size="14" font-weight="bold" lengthAdjust="spacing" textLength="327" x="183" y="503.8594">agoraEngine.setupRemoteVideo(videoCanvas)</text><polygon fill="#0A9EFD" points="172,535.3008,162,539.3008,172,543.3008,168,539.3008" style="stroke:#0A9EFD;stroke-width:1.0;"/><polygon fill="#0A9EFD" points="515,535.3008,525,539.3008,515,543.3008,519,539.3008" style="stroke:#0A9EFD;stroke-width:1.0;"/><line style="stroke:#0A9EFD;stroke-width:2.0;" x1="166" x2="521" y1="539.3008" y2="539.3008"/><text fill="#0A9EFD" font-family="Roboto" font-size="14" font-weight="bold" lengthAdjust="spacing" textLength="223" x="232.5" y="534.3477">Receive and send data streams</text><polygon fill="#0A9EFD" points="149,572.7891,159,576.7891,149,580.7891,153,576.7891" style="stroke:#0A9EFD;stroke-width:1.0;"/><line style="stroke:#0A9EFD;stroke-width:2.0;" x1="39" x2="155" y1="576.7891" y2="576.7891"/><text fill="#0A9EFD" font-family="Roboto" font-size="14" font-weight="bold" lengthAdjust="spacing" textLength="98" x="51" y="571.8359">Leave the call</text><polygon fill="#0A9EFD" points="515,619.7656,525,623.7656,515,627.7656,519,623.7656" style="stroke:#0A9EFD;stroke-width:1.0;"/><line style="stroke:#0A9EFD;stroke-width:2.0;" x1="161" x2="521" y1="623.7656" y2="623.7656"/><text fill="#0A9EFD" font-family="Roboto" font-size="14" font-weight="bold" lengthAdjust="spacing" textLength="118" x="285" y="602.3242">Stop local video:</text><text fill="#0A9EFD" font-family="Roboto" font-size="14" font-weight="bold" lengthAdjust="spacing" textLength="189" x="252" y="618.8125">agoraEngine.stopPreview()</text><polygon fill="#0A9EFD" points="515,666.7422,525,670.7422,515,674.7422,519,670.7422" style="stroke:#0A9EFD;stroke-width:1.0;"/><line style="stroke:#0A9EFD;stroke-width:2.0;" x1="161" x2="521" y1="670.7422" y2="670.7422"/><text fill="#0A9EFD" font-family="Roboto" font-size="14" font-weight="bold" lengthAdjust="spacing" textLength="131" x="276" y="649.3008">Leave the channel:</text><text fill="#0A9EFD" font-family="Roboto" font-size="14" font-weight="bold" lengthAdjust="spacing" textLength="215" x="239" y="665.7891">agoraEngine.leaveChannel(nil)</text><polygon fill="#0A9EFD" points="149,697.2305,159,701.2305,149,705.2305,153,701.2305" style="stroke:#0A9EFD;stroke-width:1.0;"/><line style="stroke:#0A9EFD;stroke-width:2.0;" x1="39" x2="155" y1="701.2305" y2="701.2305"/><text fill="#0A9EFD" font-family="Roboto" font-size="14" font-weight="bold" lengthAdjust="spacing" textLength="71" x="64.5" y="696.2773">Close app</text><line style="stroke:#0A9EFD;stroke-width:2.0;" x1="161" x2="203" y1="748.207" y2="748.207"/><line style="stroke:#0A9EFD;stroke-width:2.0;" x1="203" x2="203" y1="748.207" y2="761.207"/><line style="stroke:#0A9EFD;stroke-width:2.0;" x1="162" x2="203" y1="761.207" y2="761.207"/><polygon fill="#0A9EFD" points="172,757.207,162,761.207,172,765.207,168,761.207" style="stroke:#0A9EFD;stroke-width:1.0;"/><text fill="#0A9EFD" font-family="Roboto" font-size="14" font-weight="bold" lengthAdjust="spacing" textLength="179" x="179" y="726.7656">Clean up local resources:</text><text fill="#0A9EFD" font-family="Roboto" font-size="14" font-weight="bold" lengthAdjust="spacing" textLength="201" x="173" y="743.2539">AgoraRtcEngineKit.destroy()</text><!--SRC=[VLFRQjmm47tNLqpzj0kDFs3fXU04uYQqYzqK0eKoAqztrMeb8utTzkyhoKwmlAKl1ibphXw_KaRgeIF0etNupVzKfbJ3MGk1ags3uj6JAm0zFBQD40Vx6uedEpZ0lY-4wD6nagf7mr1yKHrPQ6_kq_prVYy4cGu2PWPUHuqrghsvQZv_d27r0X84uUfTvDd1fvvCb1JXz79P6yKAcO1F12_YGEQe3Es-6fX2tQOpl8Katx2SBkuLb_w4Zhhfd56tn4EVUBMLg65Cx9uTuNdDN9B1WwPaOBCLHsS3zCvwpXAq7483Gc3JgnJpxMi83nX2tnvyR85jSY1FQ0pfABjKzSILLcIuiPesvS5Px2Hw9hVDeoJXHOmB_pw6VOW3KuOqLQ4PqI-ewXryiChynzBxyaSOgAPt6R0XTef6cXjKvWZVdJqdBXiUBiNUmMN4eM_eR9d-wQo6Dyyf6vAaWW26tb9v7JBESZxkbCWNwe5md1Od_o1rBCpswxuoL-7ztj6ewDScxsT1EXUqJgJZnDpGnYYzpLrLsdgwsFCge0mCpwOS-V03IlA9_NAfEmgnxP_WxIy0]--></g></svg>