<?xml version="1.0" encoding="us-ascii" standalone="no"?><svg xmlns="http://www.w3.org/2000/svg" xmlns:xlink="http://www.w3.org/1999/xlink" contentStyleType="text/css" height="832px" preserveAspectRatio="none" style="width:690px;height:832px;" version="1.1" viewBox="0 0 690 832" width="690px" zoomAndPan="magnify"><defs/><g><rect fill="none" height="830.9155" style="stroke:#0A9EFD;stroke-width:1.0;" width="688" x="0" y="0"/><rect fill="#999999" fill-opacity="0.33333" height="820.9155" style="stroke:#0A9EFD;stroke-width:0.5;" width="90" x="86" y="6"/><text fill="#0A9EFD" font-family="sans-serif" font-size="13" font-weight="bold" lengthAdjust="spacing" textLength="74" x="94" y="18.5684">Your game</text><rect fill="#999999" fill-opacity="0.33333" height="820.9155" style="stroke:#0A9EFD;stroke-width:0.5;" width="80" x="598" y="6"/><text fill="#0A9EFD" font-family="sans-serif" font-size="13" font-weight="bold" lengthAdjust="spacing" textLength="41" x="617.5" y="18.5684">Agora</text><rect fill="#0A9EFD" fill-opacity="0.06667" height="190.5898" style="stroke:#0A9EFD;stroke-width:2.0;" width="674" x="10" y="319.6372"/><line style="stroke:#0A9EFD;stroke-width:0.5;stroke-dasharray:5.0,5.0;" x1="38" x2="38" y1="86.0986" y2="742.8169"/><line style="stroke:#0A9EFD;stroke-width:0.5;stroke-dasharray:5.0,5.0;" x1="131" x2="131" y1="86.0986" y2="742.8169"/><line style="stroke:#0A9EFD;stroke-width:0.5;stroke-dasharray:5.0,5.0;" x1="638" x2="638" y1="86.0986" y2="742.8169"/><text fill="#0A9EFD" font-family="Arial" font-size="14" lengthAdjust="spacing" textLength="30" x="20" y="83.1318">User</text><ellipse cx="38" cy="16" fill="none" rx="8" ry="8" style="stroke:#0A9EFD;stroke-width:3.0;"/><path d="M38,24 L38,51 M25,32 L51,32 M38,51 L25,66 M38,51 L51,66 " fill="none" style="stroke:#0A9EFD;stroke-width:3.0;"/><text fill="#0A9EFD" font-family="Arial" font-size="14" lengthAdjust="spacing" textLength="30" x="20" y="754.9487">User</text><ellipse cx="38" cy="768.9155" fill="none" rx="8" ry="8" style="stroke:#0A9EFD;stroke-width:3.0;"/><path d="M38,776.9155 L38,803.9155 M25,784.9155 L51,784.9155 M38,803.9155 L25,818.9155 M38,803.9155 L51,818.9155 " fill="none" style="stroke:#0A9EFD;stroke-width:3.0;"/><rect fill="none" height="30.0986" rx="2.5" ry="2.5" style="stroke:#0A9EFD;stroke-width:2.0;" width="82" x="90" y="55"/><text fill="#0A9EFD" font-family="Arial" font-size="14" lengthAdjust="spacing" textLength="68" x="97" y="75.1318">Video SDK</text><rect fill="none" height="30.0986" rx="2.5" ry="2.5" style="stroke:#0A9EFD;stroke-width:2.0;" width="82" x="90" y="741.8169"/><text fill="#0A9EFD" font-family="Arial" font-size="14" lengthAdjust="spacing" textLength="68" x="97" y="761.9487">Video SDK</text><rect fill="none" height="30.0986" rx="2.5" ry="2.5" style="stroke:#0A9EFD;stroke-width:2.0;" width="72" x="602" y="55"/><text fill="#0A9EFD" font-family="Arial" font-size="14" lengthAdjust="spacing" textLength="58" x="609" y="75.1318">SDRTN&#174;</text><rect fill="none" height="30.0986" rx="2.5" ry="2.5" style="stroke:#0A9EFD;stroke-width:2.0;" width="72" x="602" y="741.8169"/><text fill="#0A9EFD" font-family="Arial" font-size="14" lengthAdjust="spacing" textLength="58" x="609" y="761.9487">SDRTN&#174;</text><polygon fill="#0A9EFD" points="119,113.0474,129,117.0474,119,121.0474,123,117.0474" style="stroke:#0A9EFD;stroke-width:1.0;"/><line style="stroke:#0A9EFD;stroke-width:2.0;" x1="38" x2="125" y1="117.0474" y2="117.0474"/><text fill="#0A9EFD" font-family="Arial" font-size="13" lengthAdjust="spacing" textLength="67" x="51" y="112.2925">Open game</text><line style="stroke:#0A9EFD;stroke-width:2.0;" x1="131" x2="173" y1="160.9448" y2="160.9448"/><line style="stroke:#0A9EFD;stroke-width:2.0;" x1="173" x2="173" y1="160.9448" y2="173.9448"/><line style="stroke:#0A9EFD;stroke-width:2.0;" x1="132" x2="173" y1="173.9448" y2="173.9448"/><polygon fill="#0A9EFD" points="142,169.9448,132,173.9448,142,177.9448,138,173.9448" style="stroke:#0A9EFD;stroke-width:1.0;"/><text fill="#0A9EFD" font-family="Arial" font-size="13" lengthAdjust="spacing" textLength="177" x="220.5" y="141.2412">Create an RtcEngine instance:</text><text fill="#0A9EFD" font-family="Arial" font-size="13" lengthAdjust="spacing" textLength="342" x="142" y="156.1899">RtcEngine = Agora.Rtc.RtcEngine.CreateAgoraRtcEngine()</text><polygon fill="#0A9EFD" points="626,243.7397,636,247.7397,626,251.7397,630,247.7397" style="stroke:#0A9EFD;stroke-width:1.0;"/><line style="stroke:#0A9EFD;stroke-width:2.0;" x1="131" x2="632" y1="247.7397" y2="247.7397"/><text fill="#0A9EFD" font-family="Arial" font-size="13" lengthAdjust="spacing" textLength="93" x="336" y="198.1387">Set the context:</text><text fill="#0A9EFD" font-family="Arial" font-size="13" lengthAdjust="spacing" textLength="394" x="187.5" y="213.0874">RtcEngineContext context = new RtcEngineContext(_appID, 0, true,</text><text fill="#0A9EFD" font-family="Arial" font-size="13" lengthAdjust="spacing" textLength="445" x="162" y="228.0361">CHANNEL_PROFILE_TYPE.CHANNEL_PROFILE_LIVE_BROADCASTING,</text><text fill="#0A9EFD" font-family="Arial" font-size="13" lengthAdjust="spacing" textLength="348" x="210.5" y="242.9849">AUDIO_SCENARIO_TYPE.AUDIO_SCENARIO_DEFAULT)</text><line style="stroke:#0A9EFD;stroke-width:2.0;" x1="131" x2="173" y1="291.6372" y2="291.6372"/><line style="stroke:#0A9EFD;stroke-width:2.0;" x1="173" x2="173" y1="291.6372" y2="304.6372"/><line style="stroke:#0A9EFD;stroke-width:2.0;" x1="132" x2="173" y1="304.6372" y2="304.6372"/><polygon fill="#0A9EFD" points="142,300.6372,132,304.6372,142,308.6372,138,304.6372" style="stroke:#0A9EFD;stroke-width:1.0;"/><text fill="#0A9EFD" font-family="Arial" font-size="13" lengthAdjust="spacing" textLength="116" x="161.5" y="271.9336">Initialize RtcEngine:</text><text fill="#0A9EFD" font-family="Arial" font-size="13" lengthAdjust="spacing" textLength="163" x="142" y="286.8823">RtcEngine.Initialize(context)</text><path d="M10,319.6372 L114,319.6372 L114,326.5859 L104,336.5859 L10,336.5859 L10,319.6372 " fill="#EEEEEE" style="stroke:#0A9EFD;stroke-width:1.5;"/><rect fill="none" height="190.5898" style="stroke:#0A9EFD;stroke-width:2.0;" width="674" x="10" y="319.6372"/><text fill="#000000" font-family="Arial" font-size="13" lengthAdjust="spacing" textLength="59" x="25" y="332.8311">Video Call</text><polygon fill="#0A9EFD" points="119,353.5347,129,357.5347,119,361.5347,123,357.5347" style="stroke:#0A9EFD;stroke-width:1.0;"/><line style="stroke:#0A9EFD;stroke-width:2.0;" x1="38" x2="125" y1="357.5347" y2="357.5347"/><text fill="#0A9EFD" font-family="Arial" font-size="13" lengthAdjust="spacing" textLength="52" x="58.5" y="352.7798">Start call</text><line style="stroke:#0A9EFD;stroke-width:2.0;" x1="131" x2="173" y1="401.4321" y2="401.4321"/><line style="stroke:#0A9EFD;stroke-width:2.0;" x1="173" x2="173" y1="401.4321" y2="414.4321"/><line style="stroke:#0A9EFD;stroke-width:2.0;" x1="132" x2="173" y1="414.4321" y2="414.4321"/><polygon fill="#0A9EFD" points="142,410.4321,132,414.4321,142,418.4321,138,414.4321" style="stroke:#0A9EFD;stroke-width:1.0;"/><text fill="#0A9EFD" font-family="Arial" font-size="13" lengthAdjust="spacing" textLength="147" x="138" y="381.7285">Enable the video module:</text><text fill="#0A9EFD" font-family="Arial" font-size="13" lengthAdjust="spacing" textLength="145" x="143" y="396.6772">RtcEngine.EnableVideo()</text><polygon fill="#0A9EFD" points="626,454.3296,636,458.3296,626,462.3296,630,458.3296" style="stroke:#0A9EFD;stroke-width:1.0;"/><line style="stroke:#0A9EFD;stroke-width:2.0;" x1="131" x2="632" y1="458.3296" y2="458.3296"/><text fill="#0A9EFD" font-family="Arial" font-size="13" lengthAdjust="spacing" textLength="190" x="287.5" y="438.626">Set the user role as broadcaster:</text><text fill="#0A9EFD" font-family="Arial" font-size="13" lengthAdjust="spacing" textLength="479" x="147" y="453.5747">RtcEngine.SetClientRole(CLIENT_ROLE_TYPE.CLIENT_ROLE_BROADCASTER)</text><polygon fill="#0A9EFD" points="626,498.2271,636,502.2271,626,506.2271,630,502.2271" style="stroke:#0A9EFD;stroke-width:1.0;"/><line style="stroke:#0A9EFD;stroke-width:2.0;" x1="131" x2="632" y1="502.2271" y2="502.2271"/><text fill="#0A9EFD" font-family="Arial" font-size="13" lengthAdjust="spacing" textLength="52" x="356.5" y="482.5234">Join call:</text><text fill="#0A9EFD" font-family="Arial" font-size="13" lengthAdjust="spacing" textLength="143" x="315" y="497.4722">RtcEngine.JoinChannel()</text><polygon fill="#0A9EFD" points="119,534.1758,129,538.1758,119,542.1758,123,538.1758" style="stroke:#0A9EFD;stroke-width:1.0;"/><line style="stroke:#0A9EFD;stroke-width:2.0;" x1="38" x2="125" y1="538.1758" y2="538.1758"/><text fill="#0A9EFD" font-family="Arial" font-size="13" lengthAdjust="spacing" textLength="59" x="55" y="533.4209">Leave call</text><polygon fill="#0A9EFD" points="626,578.0732,636,582.0732,626,586.0732,630,582.0732" style="stroke:#0A9EFD;stroke-width:1.0;"/><line style="stroke:#0A9EFD;stroke-width:2.0;" x1="131" x2="632" y1="582.0732" y2="582.0732"/><text fill="#0A9EFD" font-family="Arial" font-size="13" lengthAdjust="spacing" textLength="110" x="327.5" y="562.3696">Leave the channel:</text><text fill="#0A9EFD" font-family="Arial" font-size="13" lengthAdjust="spacing" textLength="154" x="309.5" y="577.3184">RtcEngine.LeaveChannel()</text><line style="stroke:#0A9EFD;stroke-width:2.0;" x1="131" x2="173" y1="625.9707" y2="625.9707"/><line style="stroke:#0A9EFD;stroke-width:2.0;" x1="173" x2="173" y1="625.9707" y2="638.9707"/><line style="stroke:#0A9EFD;stroke-width:2.0;" x1="132" x2="173" y1="638.9707" y2="638.9707"/><polygon fill="#0A9EFD" points="142,634.9707,132,638.9707,142,642.9707,138,638.9707" style="stroke:#0A9EFD;stroke-width:1.0;"/><text fill="#0A9EFD" font-family="Arial" font-size="13" lengthAdjust="spacing" textLength="157" x="138" y="606.2671">Disable the video modules:</text><text fill="#0A9EFD" font-family="Arial" font-size="13" lengthAdjust="spacing" textLength="148" x="146.5" y="621.2158">RtcEngine.DisableVideo()</text><polygon fill="#0A9EFD" points="119,663.9194,129,667.9194,119,671.9194,123,667.9194" style="stroke:#0A9EFD;stroke-width:1.0;"/><line style="stroke:#0A9EFD;stroke-width:2.0;" x1="38" x2="125" y1="667.9194" y2="667.9194"/><text fill="#0A9EFD" font-family="Arial" font-size="13" lengthAdjust="spacing" textLength="69" x="50" y="663.1646">Close game</text><line style="stroke:#0A9EFD;stroke-width:2.0;" x1="131" x2="173" y1="711.8169" y2="711.8169"/><line style="stroke:#0A9EFD;stroke-width:2.0;" x1="173" x2="173" y1="711.8169" y2="724.8169"/><line style="stroke:#0A9EFD;stroke-width:2.0;" x1="132" x2="173" y1="724.8169" y2="724.8169"/><polygon fill="#0A9EFD" points="142,720.8169,132,724.8169,142,728.8169,138,724.8169" style="stroke:#0A9EFD;stroke-width:1.0;"/><text fill="#0A9EFD" font-family="Arial" font-size="13" lengthAdjust="spacing" textLength="147" x="138" y="692.1133">Clean up local resources:</text><text fill="#0A9EFD" font-family="Arial" font-size="13" lengthAdjust="spacing" textLength="119" x="158" y="707.062">RtcEngine.Dispose()</text><!--SRC=[TLFHZfim47ptLsnvIgGKzJbIAr7WhhG88Y0ddNGISc2Li-hOo9ZhgH_LZ-YNrHX2WDwzmUpEp7gy_i14nRiQWPwbecNxamcNTHTE2AsqLE0SMrGEq1QEUKR8IRw2yoWx1MTwGOUGXYhDAjPGeS5vO3LAo8CVbk0T3eIWgC6GHgRNcwnPUP0LoTy_8oUQSOmbVFpI2-qXRL1OKs9-9zHNIBKPNa2cgr2ScK1WejLKLBY7fpdy6QoxQn1tGjr1m5OcSBEzUKHxo563VaQefD3ugfUo_W1UYyP5uA__ofkIDaqKxE3J3hJgSDTh-D-y90dZyf2bTr4SbiNZ8NJNO1mzXENNBFK2tykBABdlgTunYD8ozyF4oyo79Qwm8BppZd6nNQGL2QOPvUmttYPS7iUzjMp68sq9EIlPDJ3ShayvNrnChirbGjN3SwzGq1D76zoB9LvatV6rtT1bbTz9lJFx1qeQARCU9oLfNT5Mere9cNQVCnGwCwqRFux2f2YpT8fr1anfXjdIyhjamXvafTtZ_ZCL0haPqcpdSZDZf2-u2Y2wmdPn1kvArTPlilFi0jQ-6LwxaXZxhl4jflAvRF6D1yFHF1PpcroQYK5XQnvpDIelfHiZqAl-0m00]--></g></svg>