<?xml version="1.0" encoding="utf-8"?>
<!-- Generator: Adobe Illustrator 19.0.0, SVG Export Plug-In . SVG Version: 6.00 Build 0)  -->
<svg version="1.1" id="Layer_1" xmlns="http://www.w3.org/2000/svg" xmlns:xlink="http://www.w3.org/1999/xlink" x="0px" y="0px"
	 viewBox="0 0 250 250" style="enable-background:new 0 0 250 250;" xml:space="preserve">
<style type="text/css">
	.st0{fill:none;stroke:#4796D1;stroke-width:6;stroke-miterlimit:10;}
</style>
<image style="display:none;overflow:visible;" width="243" height="250" id="XMLID_6_" xlink:href="F1D53788.jpg"  transform="matrix(1 0 0 1 3 0)">
</image>
<circle id="XMLID_1_" class="st0" cx="62.9" cy="185.8" r="28.9"/>
<path id="XMLID_2_" class="st0" d="M213,214.7h-47.8c-2.8,0-5-2.3-5-5v-47.8c0-2.8,2.3-5,5-5H213c2.8,0,5,2.3,5,5v47.8
	C218,212.4,215.8,214.7,213,214.7z"/>
<line id="XMLID_3_" class="st0" x1="75.2" y1="146.8" x2="93.1" y2="114.4"/>
<line id="XMLID_4_" class="st0" x1="179.4" y1="146.8" x2="160.2" y2="116.6"/>
<polygon id="XMLID_5_" class="st0" points="111.3,52.6 144.3,71.7 111.3,90.7 "/>
<path id="XMLID_7_" class="st0" d="M84.3,104.1c2.2,0.6,4.5,0.8,6.7,0.8c26.2-0.6,52.5-0.1,78.8-0.1c10,0,16.5-11.5,16.3-20.5
	c-0.1-4.1-1.1-8.3-3.4-11.6c-3-4.3-8.5-4.4-10.8-7.9c-3.3-5-2.3-11.3-6.9-16.1c-6.6-6.9-14.2-7.9-23.2-7.9l-6.6,0.9
	c0,0-12.3-7.2-18.9-8.7c-5.8-1.3-11.9-1.2-17.4,1c-5.7,2.4-10.1,7-13.5,12.1c-4.5,6.7-4.5,12.8-4.5,20.5c0,0.1-5.8,3.4-6.3,3.8
	c-6.2,4.3-8.2,11.7-6.2,19C70.5,97,76.9,102.2,84.3,104.1z"/>
<polygon id="XMLID_8_" class="st0" points="56.7,175.6 74.3,185.8 56.7,195.9 "/>
<polygon id="XMLID_9_" class="st0" points="180.3,175.6 197.9,185.8 180.3,195.9 "/>
</svg>
