<svg width="1498" height="722" xmlns="http://www.w3.org/2000/svg" xmlns:xlink="http://www.w3.org/1999/xlink" overflow="hidden"><defs><clipPath id="clip0"><path d="M-19-1 1479-1 1479 721-19 721Z" fill-rule="evenodd" clip-rule="evenodd"/></clipPath></defs><g clip-path="url(#clip0)" transform="translate(19 1)"><rect x="-18" y="0" width="1496" height="720" fill="#0C0F14"/><rect x="894" y="534" width="192" height="136" fill="#2F333B"/><text fill="#FFFFFF" font-family="Calibri,Calibri_MSFontService,sans-serif" font-weight="400" font-size="24" transform="translate(931.686 561)">Middleware</text><rect x="22" y="280" width="168" height="144" fill="#2F333B"/><text fill="#FFFFFF" font-family="Calibri,Calibri_MSFontService,sans-serif" font-weight="400" font-size="24" transform="translate(78.3273 307)">Client</text><rect x="39.5001" y="333.5" width="135" height="61" stroke="#2F528F" stroke-width="1.33333" stroke-miterlimit="8" fill="#4472C4"/><text fill="#FFFFFF" font-family="Calibri,Calibri_MSFontService,sans-serif" font-weight="400" font-size="24" transform="translate(50.0807 371)">HTTP Client</text><rect x="590" y="52" width="192" height="615" fill="#2F333B"/><text fill="#FFFFFF" font-family="Calibri,Calibri_MSFontService,sans-serif" font-weight="400" font-size="24" transform="translate(605.897 79)">Cloud Recording <tspan x="44.5867" y="29">Service</tspan></text><rect x="1200" y="48" width="227" height="185" fill="#2F333B"/><text fill="#FFFFFF" font-family="Calibri,Calibri_MSFontService,sans-serif" font-weight="400" font-size="24" transform="translate(1214.19 75)">Shared Components</text><rect x="1200" y="275" width="227" height="157" fill="#2F333B"/><text fill="#FFFFFF" font-family="Calibri,Calibri_MSFontService,sans-serif" font-weight="400" font-size="24" transform="translate(1273.18 302)">External</text><rect x="283" y="280" width="168" height="145" fill="#2F333B"/><text fill="#FFFFFF" font-family="Calibri,Calibri_MSFontService,sans-serif" font-weight="400" font-size="23" transform="translate(295.75 306)">Gin Web Server</text><rect x="300.5" y="333.5" width="134" height="61" stroke="#2F528F" stroke-width="1.33333" stroke-miterlimit="8" fill="#4472C4"/><text fill="#FFFFFF" font-family="Calibri,Calibri_MSFontService,sans-serif" font-weight="400" font-size="24" transform="translate(334.29 371)">Router</text><path d="M180.667 363 293.712 363 293.712 365 180.667 365ZM182 370.667 174 364 182 357.333ZM292.379 357.333 300.379 364 292.379 370.667Z" fill="#B2F0FF"/><text fill="#BDBFC2" font-family="Calibri,Calibri_MSFontService,sans-serif" font-weight="400" font-size="16" transform="translate(206.953 333)">Request/<tspan x="-1.76001" y="19">Response</tspan></text><rect x="903.5" y="595.5" width="174" height="48" stroke="#2F528F" stroke-width="1.33333" stroke-miterlimit="8" fill="#4472C4"/><text fill="#FFFFFF" font-family="Calibri,Calibri_MSFontService,sans-serif" font-weight="400" font-size="24" transform="translate(931.686 627)">Middleware</text><rect x="614.5" y="314.5" width="143" height="101" stroke="#2F528F" stroke-width="1.33333" stroke-miterlimit="8" fill="#4472C4"/><text fill="#FFFFFF" font-family="Calibri,Calibri_MSFontService,sans-serif" font-weight="400" font-size="24" transform="translate(657.341 343)">Cloud <tspan x="-20.5267" y="29">Recording </tspan><tspan x="-6.85999" y="58">Service</tspan><tspan fill="#BDBFC2" font-size="16" x="-194.467" y="11">/</tspan><tspan fill="#BDBFC2" font-size="16" x="-188.587" y="11">cloud_recording</tspan></text><path d="M607.339 365.661 440.663 365.025 440.67 363.025 607.346 363.661ZM606.035 357.989 614.009 364.687 605.984 371.323ZM441.975 370.697 434 364 442.025 357.364Z" fill="#B2F0FF"/><rect x="894" y="52" width="192" height="451" fill="#2F333B"/><text fill="#FFFFFF" font-family="Calibri,Calibri_MSFontService,sans-serif" font-weight="400" font-size="24" transform="translate(910.643 79)">Cloud Recording <tspan x="36.3199" y="29">Handlers</tspan></text><rect x="917.5" y="135.5" width="147" height="50" stroke="#2F528F" stroke-width="1.33333" stroke-miterlimit="8" fill="#4472C4"/><text fill="#FFFFFF" font-family="Calibri,Calibri_MSFontService,sans-serif" font-weight="400" font-size="19" transform="translate(932.385 166)">Start Recording</text><rect x="917.5" y="215.5" width="147" height="49" stroke="#2F528F" stroke-width="1.33333" stroke-miterlimit="8" fill="#4472C4"/><text fill="#FFFFFF" font-family="Calibri,Calibri_MSFontService,sans-serif" font-weight="400" font-size="19" transform="translate(933.445 245)">Stop Recording</text><rect x="917.5" y="287.5" width="147" height="50" stroke="#2F528F" stroke-width="1.33333" stroke-miterlimit="8" fill="#4472C4"/><text fill="#FFFFFF" font-family="Calibri,Calibri_MSFontService,sans-serif" font-weight="400" font-size="19" transform="translate(951.321 318)">Get Status</text><rect x="917.5" y="359.5" width="147" height="50" stroke="#2F528F" stroke-width="1.33333" stroke-miterlimit="8" fill="#4472C4"/><text fill="#FFFFFF" font-family="Calibri,Calibri_MSFontService,sans-serif" font-weight="400" font-size="19" transform="translate(935.125 390)">Update Layout</text><rect x="917.5" y="432.5" width="147" height="49" stroke="#2F528F" stroke-width="1.33333" stroke-miterlimit="8" fill="#4472C4"/><text fill="#FFFFFF" font-family="Calibri,Calibri_MSFontService,sans-serif" font-weight="400" font-size="19" transform="translate(962.591 451)">Update <tspan x="-19.1" y="23">Subscription</tspan></text><rect x="1210.5" y="331.5" width="206" height="61" stroke="#2F528F" stroke-width="1.33333" stroke-miterlimit="8" fill="#4472C4"/><text fill="#FFFFFF" font-family="Calibri,Calibri_MSFontService,sans-serif" font-weight="400" font-size="21" transform="translate(1236.31 368)">Agora RESTful API</text><rect x="1234.5" y="161.5" width="168" height="50" stroke="#2F528F" stroke-width="1.33333" stroke-miterlimit="8" fill="#4472C4"/><text fill="#FFFFFF" font-family="Calibri,Calibri_MSFontService,sans-serif" font-weight="400" font-size="21" transform="translate(1258.72 193)">Token Service</text><rect x="1234.5" y="90.5001" width="168" height="50" stroke="#2F528F" stroke-width="1.33333" stroke-miterlimit="8" fill="#4472C4"/><text fill="#FFFFFF" font-family="Calibri,Calibri_MSFontService,sans-serif" font-weight="400" font-size="21" transform="translate(1254.76 122)">Storage Config</text><path d="M1.37883 6.65541 1.45459 153.633 0.454593 152.634 250.243 152.634 250.243 154.634-0.544892 154.634-0.621172 6.65644ZM-6.2013 8.3659 0 0 7.11049 7.60825ZM248.91 146.967 256.91 153.634 248.91 160.301Z" fill="#B2F0FF" transform="matrix(1 0 0 -1 660 313.634)"/><path d="M685 307.419 685 239 910.953 239 910.953 241 686 241 687 240 687 307.419ZM692.667 306.086 686 314.086 679.333 306.086ZM909.619 233.333 917.619 240 909.619 246.667Z" fill="#B2F0FF"/><text fill="#BDBFC2" font-family="Calibri,Calibri_MSFontService,sans-serif" font-weight="400" font-size="16" transform="translate(731.179 449)">/update/subscriber<tspan x="124.793" y="0">-</tspan><tspan x="129.627" y="0">list</tspan></text><path d="M6.66665-1 42.3152-1 42.3152 224.953 40.3152 224.953 40.3152 0 41.3152 1 6.66665 1ZM8 6.66667 0 0 8-6.66667ZM47.9818 223.619 41.3152 231.619 34.6485 223.619Z" fill="#B2F0FF" transform="matrix(-4.37114e-08 1 1 4.37114e-08 686 415)"/><path d="M763.667 363 838.284 363 838.284 383.743 837.284 382.743 910.901 382.743 910.901 384.743 836.284 384.743 836.284 364 837.284 365 763.667 365ZM765 370.667 757 364 765 357.333ZM909.567 377.076 917.567 383.743 909.567 390.409Z" fill="#B2F0FF"/><text fill="#BDBFC2" font-family="Calibri,Calibri_MSFontService,sans-serif" font-weight="400" font-size="16" transform="translate(783.71 356)">/update/layout<tspan x="46.4231" y="-125">/stop</tspan><tspan x="44.7465" y="-203">/start</tspan></text><path d="M662.905 422.666 662.886 618.846 661.886 617.846 896.707 617.846 896.707 619.846 660.886 619.846 660.905 422.666ZM655.221 423.905 662 416 668.552 424.094ZM895.374 612.18 903.374 618.846 895.374 625.513Z" fill="#B2F0FF"/><text fill="#BDBFC2" font-family="Calibri,Calibri_MSFontService,sans-serif" font-weight="400" font-size="16" transform="translate(821.11 611)">Uses</text><path d="M6.66666-1 59.9884-1 59.9884 16.5619 58.9884 15.5619 156.863 15.5619 156.863 17.5619 57.9884 17.5619 57.9884 0 58.9884 1 6.66666 1ZM8 6.66667 0 0 8-6.66667ZM155.53 9.89522 163.53 16.5619 155.53 23.2286Z" fill="#B2F0FF" transform="matrix(1 0 0 -1 756 325.562)"/><text fill="#BDBFC2" font-family="Calibri,Calibri_MSFontService,sans-serif" font-weight="400" font-size="16" transform="translate(826.699 303)">/status<tspan x="286.373" y="-197">Uses</tspan><tspan x="286.824" y="-139">Uses</tspan><tspan x="290.456" y="73">API Calls</tspan><tspan x="292.988" y="-71">API Calls</tspan><tspan x="290.126" y="32">API Calls</tspan><tspan x="290.456" y="146">API Calls</tspan></text><path d="M6.66642-1 193-1 193 57.6664 191 57.6664 191 0 192 1 6.66642 1ZM8 6.66667 0 0 8-6.66667ZM198.667 56.333 192 64.333 185.333 56.333Z" fill="#B2F0FF" transform="matrix(1 0 0 -1 1064 456.333)"/><path d="M6.6667-1 119.99-1 119.99 22.7885 118.99 21.7885 139.678 21.7885 139.678 23.7885 117.99 23.7885 117.99 0 118.99 1 6.6667 1ZM8 6.66667 0 0 8-6.66667ZM138.345 16.1218 146.345 22.7885 138.345 29.4551Z" fill="#B2F0FF" transform="matrix(1 0 0 -1 1064 383.788)"/><path d="M1070.67 309 1101.08 309 1101.08 341.092 1100.08 340.092 1203.68 340.092 1203.68 342.092 1099.08 342.092 1099.08 310 1100.08 311 1070.67 311ZM1072 316.667 1064 310 1072 303.333ZM1202.35 334.425 1210.35 341.092 1202.35 347.759Z" fill="#B2F0FF"/><path d="M1070.67 239 1213.52 239 1213.57 324.537 1211.57 324.538 1211.52 240.001 1212.52 241 1070.67 241ZM1072 246.667 1064 240 1072 233.333ZM1219.19 322.975 1212.8 331.2 1205.86 323.434Z" fill="#B2F0FF"/><path d="M6.66667-1 36.7095-1 36.7095 28.8 35.7095 27.8 162.934 27.8 162.934 29.8 34.7095 29.8 34.7095 0 35.7095 1 6.66667 1ZM8 6.66667 0 0 8-6.66667ZM161.601 22.1333 169.601 28.8 161.601 35.4667Z" fill="#B2F0FF" transform="matrix(1 0 0 -1 1064 140.8)"/><path d="M1070.67 156 1099.62 156 1099.62 171.4 1098.62 170.4 1226.93 170.4 1226.93 172.4 1097.62 172.4 1097.62 157 1098.62 158 1070.67 158ZM1072 163.667 1064 157 1072 150.333ZM1225.6 164.733 1233.6 171.4 1225.6 178.067Z" fill="#B2F0FF"/><path d="M1070.67 181 1225.98 181 1226.03 324.138 1224.03 324.139 1223.98 182 1224.98 183 1070.67 183ZM1072 188.667 1064 182 1072 175.333ZM1231.64 322.557 1225.28 330.8 1218.32 323.054Z" fill="#B2F0FF"/><text fill="#BDBFC2" font-family="Calibri,Calibri_MSFontService,sans-serif" font-weight="400" font-size="16" transform="translate(1119.69 197)">API Calls</text></g></svg>