<?xml version="1.0" encoding="us-ascii" standalone="no"?><svg xmlns="http://www.w3.org/2000/svg" xmlns:xlink="http://www.w3.org/1999/xlink" contentStyleType="text/css" height="678px" preserveAspectRatio="none" style="width:497px;height:678px;" version="1.1" viewBox="0 0 497 678" width="497px" zoomAndPan="magnify"><defs/><g><rect fill="none" height="676.1719" style="stroke:#0A9EFD;stroke-width:1.0;" width="495.5" x="0" y="0"/><rect fill="#0A9EFD" fill-opacity="0.06667" height="202.6411" style="stroke:#0A9EFD;stroke-width:2.0;" width="464.5" x="27" y="53.0986"/><rect fill="#0A9EFD" fill-opacity="0.06667" height="252.5386" style="stroke:#0A9EFD;stroke-width:2.0;" width="482.5" x="9" y="269.7397"/><rect fill="#0A9EFD" fill-opacity="0.06667" height="89.7949" style="stroke:#0A9EFD;stroke-width:2.0;" width="363.5" x="128" y="536.2783"/><line style="stroke:#0A9EFD;stroke-width:0.5;stroke-dasharray:5.0,5.0;" x1="197" x2="197" y1="36.0986" y2="643.0732"/><line style="stroke:#0A9EFD;stroke-width:0.5;stroke-dasharray:5.0,5.0;" x1="400.5" x2="400.5" y1="36.0986" y2="643.0732"/><rect fill="none" height="30.0986" rx="2.5" ry="2.5" style="stroke:#0A9EFD;stroke-width:2.0;" width="119" x="138" y="5"/><text fill="#0A9EFD" font-family="Arial" font-size="14" lengthAdjust="spacing" textLength="105" x="145" y="25.1318">Your App Server</text><rect fill="none" height="30.0986" rx="2.5" ry="2.5" style="stroke:#0A9EFD;stroke-width:2.0;" width="119" x="138" y="642.0732"/><text fill="#0A9EFD" font-family="Arial" font-size="14" lengthAdjust="spacing" textLength="105" x="145" y="662.2051">Your App Server</text><rect fill="none" height="30.0986" rx="2.5" ry="2.5" style="stroke:#0A9EFD;stroke-width:2.0;" width="162" x="319.5" y="5"/><text fill="#0A9EFD" font-family="Arial" font-size="14" lengthAdjust="spacing" textLength="148" x="326.5" y="25.1318">Agora Cloud Recording</text><rect fill="none" height="30.0986" rx="2.5" ry="2.5" style="stroke:#0A9EFD;stroke-width:2.0;" width="162" x="319.5" y="642.0732"/><text fill="#0A9EFD" font-family="Arial" font-size="14" lengthAdjust="spacing" textLength="148" x="326.5" y="662.2051">Agora Cloud Recording</text><path d="M27,53.0986 L157,53.0986 L157,60.0474 L147,70.0474 L27,70.0474 L27,53.0986 " fill="#EEEEEE" style="stroke:#0A9EFD;stroke-width:1.5;"/><rect fill="none" height="202.6411" style="stroke:#0A9EFD;stroke-width:2.0;" width="464.5" x="27" y="53.0986"/><text fill="#000000" font-family="Arial" font-size="13" lengthAdjust="spacing" textLength="85" x="42" y="66.2925">Start recording</text><path d="M37,75.0474 L37,99.0474 L192,99.0474 L192,85.0474 L182,75.0474 L37,75.0474 " fill="none" style="stroke:#0A9EFD;stroke-width:1.0;"/><path d="M182,75.0474 L182,85.0474 L192,85.0474 L182,75.0474 " fill="none" style="stroke:#0A9EFD;stroke-width:1.0;"/><text fill="#0A9EFD" font-family="Arial" font-size="13" lengthAdjust="spacing" textLength="125" x="52" y="92.2412">Acquire a resource ID</text><polygon fill="#0A9EFD" points="388.5,121.9448,398.5,125.9448,388.5,129.9448,392.5,125.9448" style="stroke:#0A9EFD;stroke-width:1.0;"/><line style="stroke:#0A9EFD;stroke-width:2.0;" x1="197.5" x2="394.5" y1="125.9448" y2="125.9448"/><text fill="#0A9EFD" font-family="Arial" font-size="13" lengthAdjust="spacing" textLength="57" x="270.5" y="121.1899">1. acquire</text><polygon fill="#0A9EFD" points="208.5,150.8936,198.5,154.8936,208.5,158.8936,204.5,154.8936" style="stroke:#0A9EFD;stroke-width:1.0;"/><line style="stroke:#0A9EFD;stroke-width:2.0;stroke-dasharray:2.0,2.0;" x1="202.5" x2="399.5" y1="154.8936" y2="154.8936"/><text fill="#0A9EFD" font-family="Arial" font-size="13" lengthAdjust="spacing" textLength="141" x="228.5" y="150.1387">2. Returns a resource ID</text><path d="M77,167.8936 L77,191.8936 L192,191.8936 L192,177.8936 L182,167.8936 L77,167.8936 " fill="none" style="stroke:#0A9EFD;stroke-width:1.0;"/><path d="M182,167.8936 L182,177.8936 L192,177.8936 L182,167.8936 " fill="none" style="stroke:#0A9EFD;stroke-width:1.0;"/><text fill="#0A9EFD" font-family="Arial" font-size="13" lengthAdjust="spacing" textLength="85" x="92" y="185.0874">Start recording</text><polygon fill="#0A9EFD" points="388.5,214.791,398.5,218.791,388.5,222.791,392.5,218.791" style="stroke:#0A9EFD;stroke-width:1.0;"/><line style="stroke:#0A9EFD;stroke-width:2.0;" x1="197.5" x2="394.5" y1="218.791" y2="218.791"/><text fill="#0A9EFD" font-family="Arial" font-size="13" lengthAdjust="spacing" textLength="41" x="278.5" y="214.0361">3. start</text><polygon fill="#0A9EFD" points="208.5,243.7397,198.5,247.7397,208.5,251.7397,204.5,247.7397" style="stroke:#0A9EFD;stroke-width:1.0;"/><line style="stroke:#0A9EFD;stroke-width:2.0;stroke-dasharray:2.0,2.0;" x1="202.5" x2="399.5" y1="247.7397" y2="247.7397"/><text fill="#0A9EFD" font-family="Arial" font-size="13" lengthAdjust="spacing" textLength="144" x="227" y="242.9849">4. Returns a recording ID</text><path d="M9,269.7397 L230,269.7397 L230,276.6885 L220,286.6885 L9,286.6885 L9,269.7397 " fill="#EEEEEE" style="stroke:#0A9EFD;stroke-width:1.5;"/><rect fill="none" height="252.5386" style="stroke:#0A9EFD;stroke-width:2.0;" width="482.5" x="9" y="269.7397"/><text fill="#000000" font-family="Arial" font-size="13" lengthAdjust="spacing" textLength="176" x="24" y="282.9336">During the recording (Optional)</text><path d="M30,291.6885 L30,315.6885 L192,315.6885 L192,301.6885 L182,291.6885 L30,291.6885 " fill="none" style="stroke:#0A9EFD;stroke-width:1.0;"/><path d="M182,291.6885 L182,301.6885 L192,301.6885 L182,291.6885 " fill="none" style="stroke:#0A9EFD;stroke-width:1.0;"/><text fill="#0A9EFD" font-family="Arial" font-size="13" lengthAdjust="spacing" textLength="132" x="45" y="308.8823">Query recording status</text><polygon fill="#0A9EFD" points="388.5,338.5859,398.5,342.5859,388.5,346.5859,392.5,342.5859" style="stroke:#0A9EFD;stroke-width:1.0;"/><line style="stroke:#0A9EFD;stroke-width:2.0;" x1="197.5" x2="394.5" y1="342.5859" y2="342.5859"/><text fill="#0A9EFD" font-family="Arial" font-size="13" lengthAdjust="spacing" textLength="47" x="275.5" y="337.8311">5. query</text><polygon fill="#0A9EFD" points="208.5,382.4834,198.5,386.4834,208.5,390.4834,204.5,386.4834" style="stroke:#0A9EFD;stroke-width:1.0;"/><line style="stroke:#0A9EFD;stroke-width:2.0;stroke-dasharray:2.0,2.0;" x1="202.5" x2="399.5" y1="386.4834" y2="386.4834"/><text fill="#0A9EFD" font-family="Arial" font-size="13" lengthAdjust="spacing" textLength="175" x="209.5" y="366.7798">6. Returns M3U8 filename and</text><text fill="#0A9EFD" font-family="Arial" font-size="13" lengthAdjust="spacing" textLength="137" x="230.5" y="381.7285">current recording status</text><path d="M19,399.4834 L19,423.4834 L192,423.4834 L192,409.4834 L182,399.4834 L19,399.4834 " fill="none" style="stroke:#0A9EFD;stroke-width:1.0;"/><path d="M182,399.4834 L182,409.4834 L192,409.4834 L182,399.4834 " fill="none" style="stroke:#0A9EFD;stroke-width:1.0;"/><text fill="#0A9EFD" font-family="Arial" font-size="13" lengthAdjust="spacing" textLength="143" x="34" y="416.6772">Update subscription lists</text><polygon fill="#0A9EFD" points="388.5,446.3809,398.5,450.3809,388.5,454.3809,392.5,450.3809" style="stroke:#0A9EFD;stroke-width:1.0;"/><line style="stroke:#0A9EFD;stroke-width:2.0;" x1="197.5" x2="394.5" y1="450.3809" y2="450.3809"/><text fill="#0A9EFD" font-family="Arial" font-size="13" lengthAdjust="spacing" textLength="54" x="272" y="445.626">7. update</text><path d="M49,463.3809 L49,487.3809 L192,487.3809 L192,473.3809 L182,463.3809 L49,463.3809 " fill="none" style="stroke:#0A9EFD;stroke-width:1.0;"/><path d="M182,463.3809 L182,473.3809 L192,473.3809 L182,463.3809 " fill="none" style="stroke:#0A9EFD;stroke-width:1.0;"/><text fill="#0A9EFD" font-family="Arial" font-size="13" lengthAdjust="spacing" textLength="113" x="64" y="480.5747">Update video layout</text><polygon fill="#0A9EFD" points="388.5,510.2783,398.5,514.2783,388.5,518.2783,392.5,514.2783" style="stroke:#0A9EFD;stroke-width:1.0;"/><line style="stroke:#0A9EFD;stroke-width:2.0;" x1="197.5" x2="394.5" y1="514.2783" y2="514.2783"/><text fill="#0A9EFD" font-family="Arial" font-size="13" lengthAdjust="spacing" textLength="93" x="252.5" y="509.5234">8. updateLayout</text><path d="M128,536.2783 L257,536.2783 L257,543.2271 L247,553.2271 L128,553.2271 L128,536.2783 " fill="#EEEEEE" style="stroke:#0A9EFD;stroke-width:1.5;"/><rect fill="none" height="89.7949" style="stroke:#0A9EFD;stroke-width:2.0;" width="363.5" x="128" y="536.2783"/><text fill="#000000" font-family="Arial" font-size="13" lengthAdjust="spacing" textLength="84" x="143" y="549.4722">Stop recording</text><polygon fill="#0A9EFD" points="388.5,570.1758,398.5,574.1758,388.5,578.1758,392.5,574.1758" style="stroke:#0A9EFD;stroke-width:1.0;"/><line style="stroke:#0A9EFD;stroke-width:2.0;" x1="197.5" x2="394.5" y1="574.1758" y2="574.1758"/><text fill="#0A9EFD" font-family="Arial" font-size="13" lengthAdjust="spacing" textLength="40" x="279" y="569.4209">9. stop</text><polygon fill="#0A9EFD" points="208.5,614.0732,198.5,618.0732,208.5,622.0732,204.5,618.0732" style="stroke:#0A9EFD;stroke-width:1.0;"/><line style="stroke:#0A9EFD;stroke-width:2.0;stroke-dasharray:2.0,2.0;" x1="202.5" x2="399.5" y1="618.0732" y2="618.0732"/><text fill="#0A9EFD" font-family="Arial" font-size="13" lengthAdjust="spacing" textLength="160" x="217" y="598.3696">Returns M3U8 filename and</text><text fill="#0A9EFD" font-family="Arial" font-size="13" lengthAdjust="spacing" textLength="139" x="229.5" y="613.3184">current uploading status</text><!--SRC=[ZP5FImCn4CNl-od6dlJG1Qr_QX5XQI-2OctfGH0a9jarc2Rf95FejpVPMios5RpElFTxRv8JPRWc8O4r5jcx_rAcLBJKHU4O1iMLOoP0xzKIGkKSp2Mk9VQ0UQYcqprLbHWmrfO4p2ItA9HfMkruLXGDMeg041s0ksrXR92WPHt0rWavWeglI65i55K-vd893vCYhg1_7q4ZE2-1RJNjzAxVRySNPGmDXCRlMGyZzajay449FcqxwCik-iUMsDA8tMKJmZGCdpAJd3wxeAnX-kn8ZHUIkCd4CJYGpzjSbR1AeawRwzysJuF546gbfM7B-696m9lXX2XDEEGU5bWumUBCquVdgDgce9KFdGut9L2h-nkmLa9Qq6nZAUJMuSxwk5rbhpKFrXt_WTlq0zPrJlxFlUIqPVczRTet]--></g></svg>