<svg width="1099" height="425" xmlns="http://www.w3.org/2000/svg" xmlns:xlink="http://www.w3.org/1999/xlink" overflow="hidden"><defs><clipPath id="clip0"><path d="M73 138 1172 138 1172 563 73 563Z" fill-rule="evenodd" clip-rule="evenodd"/></clipPath></defs><g clip-path="url(#clip0)" transform="translate(-73 -138)"><rect x="73" y="139" width="1098" height="423" fill="#0C0F14"/><rect x="812" y="214" width="268" height="30" fill="#0C0F14"/><text fill="#BDBFC2" font-family="Calibri,Calibri_MSFontService,sans-serif" font-weight="400" font-size="23" transform="translate(819.567 235)">Audio and video of all users</text><rect x="220" y="185" width="142" height="29" fill="#0C0F14"/><text fill="#BDBFC2" font-family="Calibri,Calibri_MSFontService,sans-serif" font-weight="400" font-size="21" transform="translate(256.063 205)">Channel</text><path d="M184 302C184 274.938 205.938 253 233 253 260.062 253 282 274.938 282 302 282 329.062 260.062 351 233 351 205.938 351 184 329.062 184 302Z" fill="#2F333B" fill-rule="evenodd"/><text fill="#B2F0FF" font-family="Calibri,Calibri_MSFontService,sans-serif" font-weight="400" font-size="21" transform="translate(208.827 308)">UID 1</text><path d="M308 303C308 275.938 330.162 254 357.5 254 384.838 254 407 275.938 407 303 407 330.062 384.838 352 357.5 352 330.162 352 308 330.062 308 303Z" fill="#2F333B" fill-rule="evenodd"/><text fill="#B2F0FF" font-family="Calibri,Calibri_MSFontService,sans-serif" font-weight="400" font-size="21" transform="translate(333.588 308)">UID 2</text><rect x="147" y="227" width="293" height="150" stroke="#B2F0FF" stroke-width="2" stroke-miterlimit="8" fill="none"/><rect x="802" y="264" width="288" height="96" fill="#2F333B"/><text fill="#B2F0FF" font-family="Calibri,Calibri_MSFontService,sans-serif" font-weight="400" font-size="21" transform="translate(883.21 306)">One M3U8 file<tspan x="-5.86664" y="26">Multiple</tspan><tspan x="71.8" y="26">TS</tspan><tspan x="96.6934" y="26">file</tspan><tspan x="123.527" y="26">s</tspan></text><rect x="802" y="428" width="288" height="96" fill="#2F333B"/><text fill="#B2F0FF" font-family="Calibri,Calibri_MSFontService,sans-serif" font-weight="400" font-size="21" transform="translate(848.43 484)">One or more MP4 files</text><path d="M795.806 467.432 787.806 467.432 787.806 465.432 795.806 465.432ZM781.806 467.432 773.806 467.432 773.806 465.432 781.806 465.432ZM767.806 467.432 759.806 467.432 759.806 465.432 767.806 465.432ZM753.806 467.432 745.806 467.432 745.806 465.432 753.806 465.432ZM739.806 467.432 731.806 467.432 731.806 465.432 739.806 465.432ZM725.806 467.432 717.806 467.432 717.806 465.432 725.806 465.432ZM711.806 467.432 703.806 467.432 703.806 465.432 711.806 465.432ZM697.806 467.432 689.806 467.432 689.806 465.432 697.806 465.432ZM683.806 467.432 675.806 467.432 675.806 465.432 683.806 465.432ZM669.806 467.432 661.806 467.432 661.806 465.432 669.806 465.432ZM655.806 467.432 647.806 467.432 647.806 465.432 655.806 465.432ZM641.806 467.432 633.806 467.432 633.806 465.432 641.806 465.432ZM627.806 467.432 619.806 467.432 619.806 465.432 627.806 465.432ZM613.806 467.432 605.806 467.432 605.806 465.432 613.806 465.432ZM601.447 463.79 601.447 455.79 603.447 455.79 603.447 463.79ZM601.447 449.791 601.447 441.791 603.447 441.791 603.447 449.791ZM601.447 435.791 601.447 427.791 603.447 427.791 603.447 435.791ZM601.447 421.791 601.447 413.791 603.447 413.791 603.447 421.791ZM601.447 407.791 601.447 399.791 603.447 399.791 603.447 407.791ZM601.447 393.791 601.447 385.791 603.447 385.791 603.447 393.791ZM601.447 379.791 601.447 371.791 603.447 371.791 603.447 379.791ZM601.447 365.791 601.447 357.791 603.447 357.791 603.447 365.791ZM601.447 351.791 601.447 343.791 603.447 343.791 603.447 351.791ZM601.447 337.791 601.447 329.791 603.447 329.791 603.447 337.791ZM601.447 323.791 601.447 315.791 603.447 315.791 603.447 323.791ZM601.447 309.791 601.447 303 602.447 304 602 304 602 302 603.447 302 603.447 309.791ZM794.472 459.765 802.472 466.432 794.472 473.099Z" fill="#B2F0FF"/><rect x="461" y="479" width="322" height="30" fill="#0C0F14"/><text fill="#BDBFC2" font-family="Calibri,Calibri_MSFontService,sans-serif" font-weight="400" font-size="23" transform="translate(461.053 500)">Set <tspan x="34.38" y="0">avFileType</tspan><tspan x="135.647" y="0">as [“his”, “mp4”]</tspan></text><path d="M0.00513481-0.999987 355.128 0.823528 355.118 2.8235-0.00513481 0.999987ZM353.823-4.84991 361.789 1.85774 353.755 8.48324Z" fill="#B2F0FF" transform="matrix(1 0 0 -1 440 302.858)"/></g></svg>