<svg width="1350" height="733" xmlns="http://www.w3.org/2000/svg" xmlns:xlink="http://www.w3.org/1999/xlink" overflow="hidden"><defs><clipPath id="clip0"><path d="M-42-12 1308-12 1308 721-42 721Z" fill-rule="evenodd" clip-rule="evenodd"/></clipPath></defs><g clip-path="url(#clip0)" transform="translate(42 12)"><rect x="-42" y="-11" width="1350" height="731" fill="#0C0F14"/><path d="M6.6667-1 126.316-1 126.316 184.734 125.316 183.734 361.789 183.734 361.789 185.734 124.316 185.734 124.316 0 125.316 1 6.6667 1ZM8 6.66667 0 0 8-6.66667Z" fill="#B2F0FF" transform="matrix(-1 -8.74228e-08 -8.74228e-08 1 683.789 180)"/><rect x="1001" y="68" width="240" height="30" fill="#0C0F14"/><text fill="#BDBFC2" font-family="Calibri,Calibri_MSFontService,sans-serif" font-weight="400" font-size="23" transform="translate(1001.36 89)">UID 1 audio file</text><rect x="102" y="248" width="142" height="28" fill="#0C0F14"/><text fill="#BDBFC2" font-family="Calibri,Calibri_MSFontService,sans-serif" font-weight="400" font-size="21" transform="translate(137.326 268)">Channel</text><path d="M65 364.5C65 337.162 86.938 315 114 315 141.062 315 163 337.162 163 364.5 163 391.838 141.062 414 114 414 86.938 414 65 391.838 65 364.5Z" fill="#2F333B" fill-rule="evenodd"/><text fill="#B2F0FF" font-family="Calibri,Calibri_MSFontService,sans-serif" font-weight="400" font-size="21" transform="translate(90.0902 370)">UID 1</text><path d="M190 365C190 337.938 211.938 316 239 316 266.062 316 288 337.938 288 365 288 392.062 266.062 414 239 414 211.938 414 190 392.062 190 365Z" fill="#2F333B" fill-rule="evenodd"/><text fill="#B2F0FF" font-family="Calibri,Calibri_MSFontService,sans-serif" font-weight="400" font-size="21" transform="translate(214.851 370)">UID 2</text><rect x="28" y="289" width="294" height="151" stroke="#B2F0FF" stroke-width="2" stroke-miterlimit="8" fill="none"/><rect x="705" y="393" width="249" height="77" fill="#2F333B"/><text fill="#B2F0FF" font-family="Calibri,Calibri_MSFontService,sans-serif" font-weight="400" font-size="21" transform="translate(719.084 438)">M3U8 + Audio TS /WebM</text><rect x="705" y="493" width="249" height="77" fill="#2F333B"/><text fill="#B2F0FF" font-family="Calibri,Calibri_MSFontService,sans-serif" font-weight="400" font-size="21" transform="translate(721.936 539)">M3U8 + Video TS/WebM</text><rect x="705" y="594" width="249" height="76" fill="#2F333B"/><text fill="#B2F0FF" font-family="Calibri,Calibri_MSFontService,sans-serif" font-weight="400" font-size="21" transform="translate(741.891 614)">M3U8/MPD + Audio <tspan x="9.11334" y="26">TS/WebM + Video </tspan><tspan x="44.36" y="51">TS/WebM</tspan></text><rect x="683" y="371" width="294" height="316" stroke="#B2F0FF" stroke-width="2" stroke-miterlimit="8" stroke-dasharray="16 6" fill="none"/><rect x="705" y="44" width="249" height="76" fill="#2F333B"/><text fill="#B2F0FF" font-family="Calibri,Calibri_MSFontService,sans-serif" font-weight="400" font-size="21" transform="translate(719.084 89)">M3U8 + Audio TS /WebM</text><rect x="705" y="144" width="249" height="77" fill="#2F333B"/><text fill="#B2F0FF" font-family="Calibri,Calibri_MSFontService,sans-serif" font-weight="400" font-size="21" transform="translate(721.936 190)">M3U8 + Video TS/WebM</text><rect x="705" y="245" width="249" height="76" fill="#2F333B"/><text fill="#B2F0FF" font-family="Calibri,Calibri_MSFontService,sans-serif" font-weight="400" font-size="21" transform="translate(744.308 265)">M3U8/MPD+ Audio <tspan x="11.5267" y="26">TS/WebM+Video </tspan><tspan x="41.94" y="51">TS/WebM</tspan></text><rect x="683" y="22" width="294" height="316" stroke="#B2F0FF" stroke-width="2" stroke-miterlimit="8" stroke-dasharray="16 6" fill="none"/><path d="M677.122 530.36 557.472 530.36 557.472 365 558.472 366 322 366 322 364 559.472 364 559.472 529.36 558.472 528.36 677.122 528.36ZM675.789 522.694 683.789 529.36 675.789 536.027Z" fill="#B2F0FF"/><rect x="375" y="312" width="128" height="113" fill="#0C0F14"/><text fill="#BDBFC2" font-family="Calibri,Calibri_MSFontService,sans-serif" font-weight="400" font-size="23" transform="translate(394.308 333)">Individual <tspan x="1.06" y="27">recording </tspan><tspan x="4.41998" y="55">standard </tspan><tspan x="18.08" y="82">mode</tspan></text><rect x="1001" y="168" width="240" height="30" fill="#0C0F14"/><text fill="#BDBFC2" font-family="Calibri,Calibri_MSFontService,sans-serif" font-weight="400" font-size="23" transform="translate(1001.36 189)">UID 1 video file</text><rect x="1001" y="261" width="214" height="58" fill="#0C0F14"/><text fill="#BDBFC2" font-family="Calibri,Calibri_MSFontService,sans-serif" font-weight="700" font-size="23" transform="translate(1001.36 282)">UID 1 merged audio <tspan x="0" y="27">and video file</tspan></text><rect x="1001" y="414" width="240" height="30" fill="#0C0F14"/><text fill="#BDBFC2" font-family="Calibri,Calibri_MSFontService,sans-serif" font-weight="400" font-size="23" transform="translate(1001.36 435)">UID 2 audio file</text><rect x="1001" y="514" width="240" height="30" fill="#0C0F14"/><text fill="#BDBFC2" font-family="Calibri,Calibri_MSFontService,sans-serif" font-weight="400" font-size="23" transform="translate(1001.36 535)">UID 2 video file</text><rect x="1001" y="607" width="215" height="57" fill="#0C0F14"/><text fill="#BDBFC2" font-family="Calibri,Calibri_MSFontService,sans-serif" font-weight="700" font-size="23" transform="translate(1001.36 628)">UID 2 merged audio <tspan x="0" y="27">and video file</tspan></text></g></svg>