<svg width="1199" height="548" xmlns="http://www.w3.org/2000/svg" xmlns:xlink="http://www.w3.org/1999/xlink" overflow="hidden"><defs><clipPath id="clip0"><path d="M62 60 1261 60 1261 608 62 608Z" fill-rule="evenodd" clip-rule="evenodd"/></clipPath></defs><g clip-path="url(#clip0)" transform="translate(-62 -60)"><rect x="62" y="61" width="1199" height="546" fill="#0C0F14"/><rect x="350" y="195" width="664" height="351" fill="#2F333B"/><rect x="1059" y="243" width="143" height="54" fill="#0C0F14"/><text fill="#BDBFC2" font-family="Calibri,Calibri_MSFontService,sans-serif" font-weight="400" font-size="21" transform="translate(1105.09 263)">Agora <tspan x="-19.2133" y="26">Video SDK</tspan></text><rect x="379" y="221" width="426" height="298" stroke="#B2F0FF" stroke-width="2" stroke-miterlimit="8" fill="none"/><text fill="#FFFFFF" font-family="Calibri,Calibri_MSFontService,sans-serif" font-weight="400" font-size="24" transform="translate(534.069 377)">Whiteboard</text><rect x="146" y="345" width="168" height="58" fill="#0C0F14"/><text fill="#BDBFC2" font-family="Calibri,Calibri_MSFontService,sans-serif" font-weight="400" font-size="23" transform="translate(145.615 366)">Third-party <tspan x="0" y="27">whiteboard SDK</tspan></text><rect x="831" y="221" width="154" height="86" stroke="#B2F0FF" stroke-width="2" stroke-miterlimit="8" fill="none"/><text fill="#FFFFFF" font-family="Calibri,Calibri_MSFontService,sans-serif" font-weight="400" font-size="24" transform="translate(870.896 272)">Video 1</text><rect x="831" y="327" width="154" height="86" stroke="#B2F0FF" stroke-width="2" stroke-miterlimit="8" fill="none"/><text fill="#FFFFFF" font-family="Calibri,Calibri_MSFontService,sans-serif" font-weight="400" font-size="24" transform="translate(870.896 377)">Video 2</text><rect x="831" y="432" width="154" height="87" stroke="#B2F0FF" stroke-width="2" stroke-miterlimit="8" fill="none"/><text fill="#FFFFFF" font-family="Calibri,Calibri_MSFontService,sans-serif" font-weight="400" font-size="24" transform="translate(843.969 483)">Chat window</text><rect x="350.5" y="127.5" width="664" height="68" stroke="#2F528F" stroke-width="1.33333" stroke-miterlimit="8" fill="#4472C4"/><text fill="#FFFFFF" font-family="Calibri,Calibri_MSFontService,sans-serif" font-weight="400" font-size="27" transform="translate(603.43 170)">Web Page URL</text><rect x="1059" y="460" width="143" height="54" fill="#0C0F14"/><text fill="#BDBFC2" font-family="Calibri,Calibri_MSFontService,sans-serif" font-weight="400" font-size="21" transform="translate(1105.09 480)">Agora <tspan x="-32.5466" y="26">Signaling SDK</tspan></text><rect x="333.5" y="104.5" width="699" height="456" stroke="#B2F0FF" stroke-width="1.33333" stroke-miterlimit="8" stroke-dasharray="10.6667 4" fill="none"/><path d="M0.000223322-1 77.4842-0.982696 77.4837 1.0173-0.000223322 1ZM76.1521-6.64966 84.1507 0.0187926 76.1492 6.68367Z" fill="#B2F0FF" transform="matrix(-1 -8.74228e-08 -8.74228e-08 1 379.151 370)"/><path d="M0.018432-0.99983 91.397 0.684745 91.3601 2.68441-0.018432 0.99983ZM90.1682-5.00554 98.044 1.80745 89.9225 8.32553Z" fill="#B2F0FF" transform="matrix(1 0 0 -1 985 263.807)"/><path d="M985 474 1076.38 474 1076.38 476 985 476ZM1075.04 468.333 1083.04 475 1075.04 481.667Z" fill="#B2F0FF"/></g></svg>