<?xml version="1.0" encoding="UTF-8" standalone="no"?><svg xmlns="http://www.w3.org/2000/svg" xmlns:xlink="http://www.w3.org/1999/xlink" contentStyleType="text/css" height="990px" preserveAspectRatio="none" style="width:580px;height:990px;" version="1.1" viewBox="0 0 580 990" width="580px" zoomAndPan="magnify"><defs/><g><rect fill="none" height="988.2344" style="stroke:#0A9EFD;stroke-width:1.0;" width="578.5" x="0" y="0"/><rect fill="#F3F3F3" height="978.2344" style="stroke:#0A9EFD;stroke-width:0.5;" width="150" x="128.5" y="6"/><text fill="#000000" font-family="sans-serif" font-size="13" font-weight="bold" lengthAdjust="spacing" textLength="57" x="175" y="19.4951">Your app</text><rect fill="#F3F3F3" height="978.2344" style="stroke:#0A9EFD;stroke-width:0.5;" width="74" x="494.5" y="6"/><text fill="#000000" font-family="sans-serif" font-size="13" font-weight="bold" lengthAdjust="spacing" textLength="38" x="512.5" y="19.4951">Agora</text><rect fill="none" height="198.0469" style="stroke:#0A9EFD;stroke-width:2.0;" width="383" x="122.5" y="104.6094"/><rect fill="none" height="114.4375" style="stroke:#0A9EFD;stroke-width:2.0;" width="564.5" x="10" y="316.6563"/><rect fill="none" height="82.8281" style="stroke:#0A9EFD;stroke-width:2.0;" width="452" x="122.5" y="445.0938"/><rect fill="none" height="146.0469" style="stroke:#0A9EFD;stroke-width:2.0;" width="564.5" x="10" y="541.9219"/><rect fill="none" height="82.8281" style="stroke:#0A9EFD;stroke-width:2.0;" width="564.5" x="10" y="701.9688"/><rect fill="none" height="82.8281" style="stroke:#0A9EFD;stroke-width:2.0;" width="452" x="122.5" y="798.7969"/><line style="stroke:#0A9EFD;stroke-width:0.5;stroke-dasharray:5.0,5.0;" x1="39" x2="39" y1="87.6094" y2="898.625"/><line style="stroke:#0A9EFD;stroke-width:0.5;stroke-dasharray:5.0,5.0;" x1="203.5" x2="203.5" y1="87.6094" y2="898.625"/><line style="stroke:#0A9EFD;stroke-width:0.5;stroke-dasharray:5.0,5.0;" x1="531.5" x2="531.5" y1="87.6094" y2="898.625"/><text fill="#0A9EFD" font-family="Roboto" font-size="14" font-weight="bold" lengthAdjust="spacing" textLength="33" x="20" y="84.5332">User</text><ellipse cx="39.5" cy="16" fill="none" rx="8" ry="8" style="stroke:#0A9EFD;stroke-width:3.0;"/><path d="M39.5,24 L39.5,51 M26.5,32 L52.5,32 M39.5,51 L26.5,66 M39.5,51 L52.5,66 " fill="none" style="stroke:#0A9EFD;stroke-width:3.0;"/><text fill="#0A9EFD" font-family="Roboto" font-size="14" font-weight="bold" lengthAdjust="spacing" textLength="33" x="20" y="912.1582">User</text><ellipse cx="39.5" cy="926.2344" fill="none" rx="8" ry="8" style="stroke:#0A9EFD;stroke-width:3.0;"/><path d="M39.5,934.2344 L39.5,961.2344 M26.5,942.2344 L52.5,942.2344 M39.5,961.2344 L26.5,976.2344 M39.5,961.2344 L52.5,976.2344 " fill="none" style="stroke:#0A9EFD;stroke-width:3.0;"/><rect fill="#FFFFFF" height="49.2188" rx="2.5" ry="2.5" style="stroke:#0A9EFD;stroke-width:2.0;" width="142" x="132.5" y="37.3906"/><text fill="#0A9EFD" font-family="Roboto" font-size="14" font-weight="bold" lengthAdjust="spacing" textLength="128" x="139.5" y="58.9238">Media Accelerator</text><text fill="#0A9EFD" font-family="Roboto" font-size="14" font-weight="bold" lengthAdjust="spacing" textLength="29" x="191" y="76.5332">SDK</text><rect fill="#FFFFFF" height="49.2188" rx="2.5" ry="2.5" style="stroke:#0A9EFD;stroke-width:2.0;" width="142" x="132.5" y="897.625"/><text fill="#0A9EFD" font-family="Roboto" font-size="14" font-weight="bold" lengthAdjust="spacing" textLength="128" x="139.5" y="919.1582">Media Accelerator</text><text fill="#0A9EFD" font-family="Roboto" font-size="14" font-weight="bold" lengthAdjust="spacing" textLength="29" x="191" y="936.7676">SDK</text><rect fill="#FFFFFF" height="31.6094" rx="2.5" ry="2.5" style="stroke:#0A9EFD;stroke-width:2.0;" width="66" x="498.5" y="55"/><text fill="#0A9EFD" font-family="Roboto" font-size="14" font-weight="bold" lengthAdjust="spacing" textLength="52" x="505.5" y="76.5332">SD-RTN</text><rect fill="#FFFFFF" height="31.6094" rx="2.5" ry="2.5" style="stroke:#0A9EFD;stroke-width:2.0;" width="66" x="498.5" y="897.625"/><text fill="#0A9EFD" font-family="Roboto" font-size="14" font-weight="bold" lengthAdjust="spacing" textLength="52" x="505.5" y="919.1582">SD-RTN</text><path d="M122.5,104.6094 L342.5,104.6094 L342.5,114.2188 L332.5,124.2188 L122.5,124.2188 L122.5,104.6094 " fill="#EEEEEE" style="stroke:#0A9EFD;stroke-width:1.5;"/><rect fill="none" height="198.0469" style="stroke:#0A9EFD;stroke-width:2.0;" width="383" x="122.5" y="104.6094"/><text fill="#0A9EFD" font-family="Roboto" font-size="14" font-weight="bold" lengthAdjust="spacing" textLength="175" x="137.5" y="120.1426">Setup Agora RTC service</text><line style="stroke:#0A9EFD;stroke-width:2.0;" x1="203.5" x2="245.5" y1="147.8281" y2="147.8281"/><line style="stroke:#0A9EFD;stroke-width:2.0;" x1="245.5" x2="245.5" y1="147.8281" y2="160.8281"/><line style="stroke:#0A9EFD;stroke-width:2.0;" x1="204.5" x2="245.5" y1="160.8281" y2="160.8281"/><polygon fill="#0A9EFD" points="214.5,156.8281,204.5,160.8281,214.5,164.8281,210.5,160.8281" style="stroke:#0A9EFD;stroke-width:1.0;"/><text fill="#0A9EFD" font-family="Roboto" font-size="14" font-weight="bold" lengthAdjust="spacing" textLength="283" x="210.5" y="142.752">Instantiate the Agora RTC service object</text><line style="stroke:#0A9EFD;stroke-width:2.0;" x1="203.5" x2="245.5" y1="192.4375" y2="192.4375"/><line style="stroke:#0A9EFD;stroke-width:2.0;" x1="245.5" x2="245.5" y1="192.4375" y2="205.4375"/><line style="stroke:#0A9EFD;stroke-width:2.0;" x1="204.5" x2="245.5" y1="205.4375" y2="205.4375"/><polygon fill="#0A9EFD" points="214.5,201.4375,204.5,205.4375,214.5,209.4375,210.5,205.4375" style="stroke:#0A9EFD;stroke-width:1.0;"/><text fill="#0A9EFD" font-family="Roboto" font-size="14" font-weight="bold" lengthAdjust="spacing" textLength="137" x="210.5" y="187.3613">Set service options</text><line style="stroke:#0A9EFD;stroke-width:2.0;" x1="203.5" x2="245.5" y1="237.0469" y2="237.0469"/><line style="stroke:#0A9EFD;stroke-width:2.0;" x1="245.5" x2="245.5" y1="237.0469" y2="250.0469"/><line style="stroke:#0A9EFD;stroke-width:2.0;" x1="204.5" x2="245.5" y1="250.0469" y2="250.0469"/><polygon fill="#0A9EFD" points="214.5,246.0469,204.5,250.0469,214.5,254.0469,210.5,250.0469" style="stroke:#0A9EFD;stroke-width:1.0;"/><text fill="#0A9EFD" font-family="Roboto" font-size="14" font-weight="bold" lengthAdjust="spacing" textLength="271" x="210.5" y="231.9707">Verify license and initialize the service</text><line style="stroke:#0A9EFD;stroke-width:2.0;" x1="203.5" x2="245.5" y1="281.6563" y2="281.6563"/><line style="stroke:#0A9EFD;stroke-width:2.0;" x1="245.5" x2="245.5" y1="281.6563" y2="294.6563"/><line style="stroke:#0A9EFD;stroke-width:2.0;" x1="204.5" x2="245.5" y1="294.6563" y2="294.6563"/><polygon fill="#0A9EFD" points="214.5,290.6563,204.5,294.6563,214.5,298.6563,210.5,294.6563" style="stroke:#0A9EFD;stroke-width:1.0;"/><text fill="#0A9EFD" font-family="Roboto" font-size="14" font-weight="bold" lengthAdjust="spacing" textLength="142" x="210.5" y="276.5801">Create a connection</text><path d="M10,316.6563 L157,316.6563 L157,326.2656 L147,336.2656 L10,336.2656 L10,316.6563 " fill="#EEEEEE" style="stroke:#0A9EFD;stroke-width:1.5;"/><rect fill="none" height="114.4375" style="stroke:#0A9EFD;stroke-width:2.0;" width="564.5" x="10" y="316.6563"/><text fill="#0A9EFD" font-family="Roboto" font-size="14" font-weight="bold" lengthAdjust="spacing" textLength="102" x="25" y="332.1895">Join a channel</text><polygon fill="#0A9EFD" points="191.5,355.875,201.5,359.875,191.5,363.875,195.5,359.875" style="stroke:#0A9EFD;stroke-width:1.0;"/><line style="stroke:#0A9EFD;stroke-width:2.0;" x1="39.5" x2="197.5" y1="359.875" y2="359.875"/><text fill="#0A9EFD" font-family="Roboto" font-size="14" font-weight="bold" lengthAdjust="spacing" textLength="102" x="70.5" y="354.7988">Join a channel</text><polygon fill="#0A9EFD" points="519.5,387.4844,529.5,391.4844,519.5,395.4844,523.5,391.4844" style="stroke:#0A9EFD;stroke-width:1.0;"/><line style="stroke:#0A9EFD;stroke-width:2.0;" x1="203.5" x2="525.5" y1="391.4844" y2="391.4844"/><text fill="#0A9EFD" font-family="Roboto" font-size="14" font-weight="bold" lengthAdjust="spacing" textLength="234" x="250.5" y="386.4082">Call the method to Join a channel</text><polygon fill="#0A9EFD" points="214.5,419.0938,204.5,423.0938,214.5,427.0938,210.5,423.0938" style="stroke:#0A9EFD;stroke-width:1.0;"/><line style="stroke:#0A9EFD;stroke-width:2.0;" x1="208.5" x2="530.5" y1="423.0938" y2="423.0938"/><text fill="#0A9EFD" font-family="Roboto" font-size="14" font-weight="bold" lengthAdjust="spacing" textLength="231" x="252" y="418.0176">on join channel success callback</text><path d="M122.5,445.0938 L320.5,445.0938 L320.5,454.7031 L310.5,464.7031 L122.5,464.7031 L122.5,445.0938 " fill="#EEEEEE" style="stroke:#0A9EFD;stroke-width:1.5;"/><rect fill="none" height="82.8281" style="stroke:#0A9EFD;stroke-width:2.0;" width="452" x="122.5" y="445.0938"/><text fill="#0A9EFD" font-family="Roboto" font-size="14" font-weight="bold" lengthAdjust="spacing" textLength="153" x="137.5" y="460.627">Send audio and video</text><polygon fill="#0A9EFD" points="519.5,484.3125,529.5,488.3125,519.5,492.3125,523.5,488.3125" style="stroke:#0A9EFD;stroke-width:1.0;"/><line style="stroke:#0A9EFD;stroke-width:2.0;" x1="203.5" x2="525.5" y1="488.3125" y2="488.3125"/><text fill="#0A9EFD" font-family="Roboto" font-size="14" font-weight="bold" lengthAdjust="spacing" textLength="217" x="259" y="483.2363">Start thread to send audio data</text><polygon fill="#0A9EFD" points="519.5,515.9219,529.5,519.9219,519.5,523.9219,523.5,519.9219" style="stroke:#0A9EFD;stroke-width:1.0;"/><line style="stroke:#0A9EFD;stroke-width:2.0;" x1="203.5" x2="525.5" y1="519.9219" y2="519.9219"/><text fill="#0A9EFD" font-family="Roboto" font-size="14" font-weight="bold" lengthAdjust="spacing" textLength="218" x="258.5" y="514.8457">Start thread to send video data</text><path d="M10,541.9219 L230,541.9219 L230,551.5313 L220,561.5313 L10,561.5313 L10,541.9219 " fill="#EEEEEE" style="stroke:#0A9EFD;stroke-width:1.5;"/><rect fill="none" height="146.0469" style="stroke:#0A9EFD;stroke-width:2.0;" width="564.5" x="10" y="541.9219"/><text fill="#0A9EFD" font-family="Roboto" font-size="14" font-weight="bold" lengthAdjust="spacing" textLength="175" x="25" y="557.4551">Receive audio and video</text><polygon fill="#0A9EFD" points="214.5,581.1406,204.5,585.1406,214.5,589.1406,210.5,585.1406" style="stroke:#0A9EFD;stroke-width:1.0;"/><line style="stroke:#0A9EFD;stroke-width:2.0;" x1="208.5" x2="530.5" y1="585.1406" y2="585.1406"/><text fill="#0A9EFD" font-family="Roboto" font-size="14" font-weight="bold" lengthAdjust="spacing" textLength="156" x="289.5" y="580.0645">on audio data callback</text><polygon fill="#0A9EFD" points="50.5,612.75,40.5,616.75,50.5,620.75,46.5,616.75" style="stroke:#0A9EFD;stroke-width:1.0;"/><line style="stroke:#0A9EFD;stroke-width:2.0;" x1="44.5" x2="202.5" y1="616.75" y2="616.75"/><text fill="#0A9EFD" font-family="Roboto" font-size="14" font-weight="bold" lengthAdjust="spacing" textLength="139" x="52" y="611.6738">Render audio frame</text><polygon fill="#0A9EFD" points="214.5,644.3594,204.5,648.3594,214.5,652.3594,210.5,648.3594" style="stroke:#0A9EFD;stroke-width:1.0;"/><line style="stroke:#0A9EFD;stroke-width:2.0;" x1="208.5" x2="530.5" y1="648.3594" y2="648.3594"/><text fill="#0A9EFD" font-family="Roboto" font-size="14" font-weight="bold" lengthAdjust="spacing" textLength="157" x="289" y="643.2832">on video data callback</text><polygon fill="#0A9EFD" points="50.5,675.9688,40.5,679.9688,50.5,683.9688,46.5,679.9688" style="stroke:#0A9EFD;stroke-width:1.0;"/><line style="stroke:#0A9EFD;stroke-width:2.0;" x1="44.5" x2="202.5" y1="679.9688" y2="679.9688"/><text fill="#0A9EFD" font-family="Roboto" font-size="14" font-weight="bold" lengthAdjust="spacing" textLength="140" x="51.5" y="674.8926">Render video frame</text><path d="M10,701.9688 L158,701.9688 L158,711.5781 L148,721.5781 L10,721.5781 L10,701.9688 " fill="#EEEEEE" style="stroke:#0A9EFD;stroke-width:1.5;"/><rect fill="none" height="82.8281" style="stroke:#0A9EFD;stroke-width:2.0;" width="564.5" x="10" y="701.9688"/><text fill="#0A9EFD" font-family="Roboto" font-size="14" font-weight="bold" lengthAdjust="spacing" textLength="103" x="25" y="717.502">Leave channel</text><polygon fill="#0A9EFD" points="191.5,741.1875,201.5,745.1875,191.5,749.1875,195.5,745.1875" style="stroke:#0A9EFD;stroke-width:1.0;"/><line style="stroke:#0A9EFD;stroke-width:2.0;" x1="39.5" x2="197.5" y1="745.1875" y2="745.1875"/><text fill="#0A9EFD" font-family="Roboto" font-size="14" font-weight="bold" lengthAdjust="spacing" textLength="103" x="70" y="740.1113">Leave channel</text><polygon fill="#0A9EFD" points="519.5,772.7969,529.5,776.7969,519.5,780.7969,523.5,776.7969" style="stroke:#0A9EFD;stroke-width:1.0;"/><line style="stroke:#0A9EFD;stroke-width:2.0;" x1="203.5" x2="525.5" y1="776.7969" y2="776.7969"/><text fill="#0A9EFD" font-family="Roboto" font-size="14" font-weight="bold" lengthAdjust="spacing" textLength="213" x="261" y="771.7207">Call the leave channel method</text><path d="M122.5,798.7969 L229.5,798.7969 L229.5,808.4063 L219.5,818.4063 L122.5,818.4063 L122.5,798.7969 " fill="#EEEEEE" style="stroke:#0A9EFD;stroke-width:1.5;"/><rect fill="none" height="82.8281" style="stroke:#0A9EFD;stroke-width:2.0;" width="452" x="122.5" y="798.7969"/><text fill="#0A9EFD" font-family="Roboto" font-size="14" font-weight="bold" lengthAdjust="spacing" textLength="62" x="137.5" y="814.3301">Clean up</text><polygon fill="#0A9EFD" points="519.5,838.0156,529.5,842.0156,519.5,846.0156,523.5,842.0156" style="stroke:#0A9EFD;stroke-width:1.0;"/><line style="stroke:#0A9EFD;stroke-width:2.0;" x1="203.5" x2="525.5" y1="842.0156" y2="842.0156"/><text fill="#0A9EFD" font-family="Roboto" font-size="14" font-weight="bold" lengthAdjust="spacing" textLength="164" x="285.5" y="836.9395">Destroy the connection</text><polygon fill="#0A9EFD" points="519.5,869.625,529.5,873.625,519.5,877.625,523.5,873.625" style="stroke:#0A9EFD;stroke-width:1.0;"/><line style="stroke:#0A9EFD;stroke-width:2.0;" x1="203.5" x2="525.5" y1="873.625" y2="873.625"/><text fill="#0A9EFD" font-family="Roboto" font-size="14" font-weight="bold" lengthAdjust="spacing" textLength="304" x="215.5" y="868.5488">Call the finish method to release resources</text><!--SRC=[XLFRYjim47ttLqpzddx0KWhP14fwOubt2uL2cKYJZNQLaIl9eUdNzzXnrtPgsXTZUyvjDADNJerlh10_XiZVqxFJrwuv-g9zgpdoaIhvqOWQUHT3Kzy6Uxvby_o83xMhu4Ea75aJiAAvADXa_2eVaiIIED53jIsANVX9vTVGHEAwBWjWipEkPirKVXBhc9R6Y9V887zJgjOVElBoxguGjGH-Bx9iOrufLEl5zlvpJzWCX3PZZVWPpuv7s_iL8TZ96IcWJOkthSKDRJHbI3dEGlaWVwCfx9x4v0a9maEvpYvecjI_I7JxCtdKDU604SkfWubtlousSr5MKTeKJ2QemXAoRKT_kdaVdBR50wFg2vpk2_Egz2AwWIXxtpaU9H-2fHpcq6yM5tHGUcghVOrIW-6aH0OgEyn-dATgJviRwqBNuCbP2HFhAcDKy4PRdMyQ29Op_n_RILwm8z-j674dcRKUzJ4O3UbxHnpT3MJKIknXUsoxN2iCzlzKkC0k2gEO7uKHScvQqyhiiFmOqezkBBu2GAcf9-orf1p3kHCOhT2imHxxc0wZfOYuWunTZP9mMJ7qpkut]--></g></svg>