<?xml version="1.0" encoding="UTF-8" standalone="no"?><svg xmlns="http://www.w3.org/2000/svg" xmlns:xlink="http://www.w3.org/1999/xlink" contentStyleType="text/css" height="1183px" preserveAspectRatio="none" style="width:561px;height:1183px;" version="1.1" viewBox="0 0 561 1183" width="561px" zoomAndPan="magnify"><defs/><g><rect fill="none" height="1181.9375" style="stroke:#0A9EFD;stroke-width:1.0;" width="559.5" x="0" y="0"/><rect fill="#F3F3F3" height="1171.9375" style="stroke:#0A9EFD;stroke-width:0.5;" width="150" x="109.5" y="6"/><text fill="#000000" font-family="sans-serif" font-size="13" font-weight="bold" lengthAdjust="spacing" textLength="57" x="156" y="19.4951">Your app</text><rect fill="#F3F3F3" height="1171.9375" style="stroke:#0A9EFD;stroke-width:0.5;" width="74" x="475.5" y="6"/><text fill="#000000" font-family="sans-serif" font-size="13" font-weight="bold" lengthAdjust="spacing" textLength="38" x="493.5" y="19.4951">Agora</text><rect fill="none" height="203.6563" style="stroke:#0A9EFD;stroke-width:2.0;" width="452" x="103.5" y="104.6094"/><rect fill="none" height="212.875" style="stroke:#0A9EFD;stroke-width:2.0;" width="545.5" x="10" y="322.2656"/><rect fill="none" height="248.0938" style="stroke:#0A9EFD;stroke-width:2.0;" width="545.5" x="10" y="549.1406"/><rect fill="none" height="100.4375" style="stroke:#0A9EFD;stroke-width:2.0;" width="545.5" x="10" y="811.2344"/><rect fill="none" height="149.6563" style="stroke:#0A9EFD;stroke-width:2.0;" width="452" x="103.5" y="925.6719"/><line style="stroke:#0A9EFD;stroke-width:0.5;stroke-dasharray:5.0,5.0;" x1="39" x2="39" y1="87.6094" y2="1092.3281"/><line style="stroke:#0A9EFD;stroke-width:0.5;stroke-dasharray:5.0,5.0;" x1="184.5" x2="184.5" y1="87.6094" y2="1092.3281"/><line style="stroke:#0A9EFD;stroke-width:0.5;stroke-dasharray:5.0,5.0;" x1="512.5" x2="512.5" y1="87.6094" y2="1092.3281"/><text fill="#0A9EFD" font-family="Roboto" font-size="14" font-weight="bold" lengthAdjust="spacing" textLength="33" x="20" y="84.5332">User</text><ellipse cx="39.5" cy="16" fill="none" rx="8" ry="8" style="stroke:#0A9EFD;stroke-width:3.0;"/><path d="M39.5,24 L39.5,51 M26.5,32 L52.5,32 M39.5,51 L26.5,66 M39.5,51 L52.5,66 " fill="none" style="stroke:#0A9EFD;stroke-width:3.0;"/><text fill="#0A9EFD" font-family="Roboto" font-size="14" font-weight="bold" lengthAdjust="spacing" textLength="33" x="20" y="1105.8613">User</text><ellipse cx="39.5" cy="1119.9375" fill="none" rx="8" ry="8" style="stroke:#0A9EFD;stroke-width:3.0;"/><path d="M39.5,1127.9375 L39.5,1154.9375 M26.5,1135.9375 L52.5,1135.9375 M39.5,1154.9375 L26.5,1169.9375 M39.5,1154.9375 L52.5,1169.9375 " fill="none" style="stroke:#0A9EFD;stroke-width:3.0;"/><rect fill="#FFFFFF" height="49.2188" rx="2.5" ry="2.5" style="stroke:#0A9EFD;stroke-width:2.0;" width="142" x="113.5" y="37.3906"/><text fill="#0A9EFD" font-family="Roboto" font-size="14" font-weight="bold" lengthAdjust="spacing" textLength="128" x="120.5" y="58.9238">Media Accelerator</text><text fill="#0A9EFD" font-family="Roboto" font-size="14" font-weight="bold" lengthAdjust="spacing" textLength="29" x="172" y="76.5332">SDK</text><rect fill="#FFFFFF" height="49.2188" rx="2.5" ry="2.5" style="stroke:#0A9EFD;stroke-width:2.0;" width="142" x="113.5" y="1091.3281"/><text fill="#0A9EFD" font-family="Roboto" font-size="14" font-weight="bold" lengthAdjust="spacing" textLength="128" x="120.5" y="1112.8613">Media Accelerator</text><text fill="#0A9EFD" font-family="Roboto" font-size="14" font-weight="bold" lengthAdjust="spacing" textLength="29" x="172" y="1130.4707">SDK</text><rect fill="#FFFFFF" height="31.6094" rx="2.5" ry="2.5" style="stroke:#0A9EFD;stroke-width:2.0;" width="66" x="479.5" y="55"/><text fill="#0A9EFD" font-family="Roboto" font-size="14" font-weight="bold" lengthAdjust="spacing" textLength="52" x="486.5" y="76.5332">SD-RTN</text><rect fill="#FFFFFF" height="31.6094" rx="2.5" ry="2.5" style="stroke:#0A9EFD;stroke-width:2.0;" width="66" x="479.5" y="1091.3281"/><text fill="#0A9EFD" font-family="Roboto" font-size="14" font-weight="bold" lengthAdjust="spacing" textLength="52" x="486.5" y="1112.8613">SD-RTN</text><path d="M103.5,104.6094 L323.5,104.6094 L323.5,114.2188 L313.5,124.2188 L103.5,124.2188 L103.5,104.6094 " fill="#EEEEEE" style="stroke:#0A9EFD;stroke-width:1.5;"/><rect fill="none" height="203.6563" style="stroke:#0A9EFD;stroke-width:2.0;" width="452" x="103.5" y="104.6094"/><text fill="#0A9EFD" font-family="Roboto" font-size="14" font-weight="bold" lengthAdjust="spacing" textLength="175" x="118.5" y="120.1426">Setup Agora RTC service</text><line style="stroke:#0A9EFD;stroke-width:2.0;" x1="184.5" x2="226.5" y1="147.8281" y2="147.8281"/><line style="stroke:#0A9EFD;stroke-width:2.0;" x1="226.5" x2="226.5" y1="147.8281" y2="160.8281"/><line style="stroke:#0A9EFD;stroke-width:2.0;" x1="185.5" x2="226.5" y1="160.8281" y2="160.8281"/><polygon fill="#0A9EFD" points="195.5,156.8281,185.5,160.8281,195.5,164.8281,191.5,160.8281" style="stroke:#0A9EFD;stroke-width:1.0;"/><text fill="#0A9EFD" font-family="Roboto" font-size="14" font-weight="bold" lengthAdjust="spacing" textLength="283" x="191.5" y="142.752">Instantiate the Agora RTC service object</text><line style="stroke:#0A9EFD;stroke-width:2.0;" x1="184.5" x2="226.5" y1="192.4375" y2="192.4375"/><line style="stroke:#0A9EFD;stroke-width:2.0;" x1="226.5" x2="226.5" y1="192.4375" y2="205.4375"/><line style="stroke:#0A9EFD;stroke-width:2.0;" x1="185.5" x2="226.5" y1="205.4375" y2="205.4375"/><polygon fill="#0A9EFD" points="195.5,201.4375,185.5,205.4375,195.5,209.4375,191.5,205.4375" style="stroke:#0A9EFD;stroke-width:1.0;"/><text fill="#0A9EFD" font-family="Roboto" font-size="14" font-weight="bold" lengthAdjust="spacing" textLength="137" x="191.5" y="187.3613">Set service options</text><polygon fill="#0A9EFD" points="500.5,233.0469,510.5,237.0469,500.5,241.0469,504.5,237.0469" style="stroke:#0A9EFD;stroke-width:1.0;"/><line style="stroke:#0A9EFD;stroke-width:2.0;" x1="184.5" x2="506.5" y1="237.0469" y2="237.0469"/><text fill="#0A9EFD" font-family="Roboto" font-size="14" font-weight="bold" lengthAdjust="spacing" textLength="271" x="213" y="231.9707">Verify license and initialize the service</text><polygon fill="#0A9EFD" points="500.5,264.6563,510.5,268.6563,500.5,272.6563,504.5,268.6563" style="stroke:#0A9EFD;stroke-width:1.0;"/><line style="stroke:#0A9EFD;stroke-width:2.0;" x1="184.5" x2="506.5" y1="268.6563" y2="268.6563"/><text fill="#0A9EFD" font-family="Roboto" font-size="14" font-weight="bold" lengthAdjust="spacing" textLength="143" x="277" y="263.5801">Create connection-1</text><polygon fill="#0A9EFD" points="500.5,296.2656,510.5,300.2656,500.5,304.2656,504.5,300.2656" style="stroke:#0A9EFD;stroke-width:1.0;"/><line style="stroke:#0A9EFD;stroke-width:2.0;" x1="184.5" x2="506.5" y1="300.2656" y2="300.2656"/><text fill="#0A9EFD" font-family="Roboto" font-size="14" font-weight="bold" lengthAdjust="spacing" textLength="143" x="277" y="295.1895">Create connection-2</text><path d="M10,322.2656 L250,322.2656 L250,331.875 L240,341.875 L10,341.875 L10,322.2656 " fill="#EEEEEE" style="stroke:#0A9EFD;stroke-width:1.5;"/><rect fill="none" height="212.875" style="stroke:#0A9EFD;stroke-width:2.0;" width="545.5" x="10" y="322.2656"/><text fill="#0A9EFD" font-family="Roboto" font-size="14" font-weight="bold" lengthAdjust="spacing" textLength="195" x="25" y="337.7988">Stream to multiple channels</text><polygon fill="#0A9EFD" points="172.5,361.4844,182.5,365.4844,172.5,369.4844,176.5,365.4844" style="stroke:#0A9EFD;stroke-width:1.0;"/><line style="stroke:#0A9EFD;stroke-width:2.0;" x1="39.5" x2="178.5" y1="365.4844" y2="365.4844"/><text fill="#0A9EFD" font-family="Roboto" font-size="14" font-weight="bold" lengthAdjust="spacing" textLength="98" x="63" y="360.4082">Join channels</text><polygon fill="#0A9EFD" points="500.5,393.0938,510.5,397.0938,500.5,401.0938,504.5,397.0938" style="stroke:#0A9EFD;stroke-width:1.0;"/><line style="stroke:#0A9EFD;stroke-width:2.0;" x1="184.5" x2="506.5" y1="397.0938" y2="397.0938"/><text fill="#0A9EFD" font-family="Roboto" font-size="14" font-weight="bold" lengthAdjust="spacing" textLength="255" x="221" y="392.0176">Join channel-1 using connectionId-1</text><polygon fill="#0A9EFD" points="500.5,424.7031,510.5,428.7031,500.5,432.7031,504.5,428.7031" style="stroke:#0A9EFD;stroke-width:1.0;"/><line style="stroke:#0A9EFD;stroke-width:2.0;" x1="184.5" x2="506.5" y1="428.7031" y2="428.7031"/><text fill="#0A9EFD" font-family="Roboto" font-size="14" font-weight="bold" lengthAdjust="spacing" textLength="255" x="221" y="423.627">Join channel-2 using connectionId-2</text><polygon fill="#0A9EFD" points="500.5,473.9219,510.5,477.9219,500.5,481.9219,504.5,477.9219" style="stroke:#0A9EFD;stroke-width:1.0;"/><line style="stroke:#0A9EFD;stroke-width:2.0;" x1="184.5" x2="506.5" y1="477.9219" y2="477.9219"/><text fill="#0A9EFD" font-family="Roboto" font-size="14" font-weight="bold" lengthAdjust="spacing" textLength="230" x="231.5" y="455.2363">Send audio and video data using</text><text fill="#0A9EFD" font-family="Roboto" font-size="14" font-weight="bold" lengthAdjust="spacing" textLength="266" x="215.5" y="472.8457">connectionId-1 to stream to channel-1</text><polygon fill="#0A9EFD" points="500.5,523.1406,510.5,527.1406,500.5,531.1406,504.5,527.1406" style="stroke:#0A9EFD;stroke-width:1.0;"/><line style="stroke:#0A9EFD;stroke-width:2.0;" x1="184.5" x2="506.5" y1="527.1406" y2="527.1406"/><text fill="#0A9EFD" font-family="Roboto" font-size="14" font-weight="bold" lengthAdjust="spacing" textLength="230" x="231.5" y="504.4551">Send audio and video data using</text><text fill="#0A9EFD" font-family="Roboto" font-size="14" font-weight="bold" lengthAdjust="spacing" textLength="266" x="215.5" y="522.0645">connectionId-2 to stream to channel-2</text><path d="M10,549.1406 L347,549.1406 L347,558.75 L337,568.75 L10,568.75 L10,549.1406 " fill="#EEEEEE" style="stroke:#0A9EFD;stroke-width:1.5;"/><rect fill="none" height="248.0938" style="stroke:#0A9EFD;stroke-width:2.0;" width="545.5" x="10" y="549.1406"/><text fill="#0A9EFD" font-family="Roboto" font-size="14" font-weight="bold" lengthAdjust="spacing" textLength="292" x="25" y="564.6738">Push multiple streams to a single channel</text><polygon fill="#0A9EFD" points="172.5,588.3594,182.5,592.3594,172.5,596.3594,176.5,592.3594" style="stroke:#0A9EFD;stroke-width:1.0;"/><line style="stroke:#0A9EFD;stroke-width:2.0;" x1="39.5" x2="178.5" y1="592.3594" y2="592.3594"/><text fill="#0A9EFD" font-family="Roboto" font-size="14" font-weight="bold" lengthAdjust="spacing" textLength="90" x="67" y="587.2832">Join channel</text><polygon fill="#0A9EFD" points="500.5,637.5781,510.5,641.5781,500.5,645.5781,504.5,641.5781" style="stroke:#0A9EFD;stroke-width:1.0;"/><line style="stroke:#0A9EFD;stroke-width:2.0;" x1="184.5" x2="506.5" y1="641.5781" y2="641.5781"/><text fill="#0A9EFD" font-family="Roboto" font-size="14" font-weight="bold" lengthAdjust="spacing" textLength="146" x="273.5" y="618.8926">Join channel-1 using</text><text fill="#0A9EFD" font-family="Roboto" font-size="14" font-weight="bold" lengthAdjust="spacing" textLength="197" x="250" y="636.502">connectionId-1 and userId-1</text><polygon fill="#0A9EFD" points="500.5,686.7969,510.5,690.7969,500.5,694.7969,504.5,690.7969" style="stroke:#0A9EFD;stroke-width:1.0;"/><line style="stroke:#0A9EFD;stroke-width:2.0;" x1="184.5" x2="506.5" y1="690.7969" y2="690.7969"/><text fill="#0A9EFD" font-family="Roboto" font-size="14" font-weight="bold" lengthAdjust="spacing" textLength="146" x="273.5" y="668.1113">Join channel-1 using</text><text fill="#0A9EFD" font-family="Roboto" font-size="14" font-weight="bold" lengthAdjust="spacing" textLength="197" x="250" y="685.7207">connectionId-2 and userId-2</text><polygon fill="#0A9EFD" points="500.5,736.0156,510.5,740.0156,500.5,744.0156,504.5,740.0156" style="stroke:#0A9EFD;stroke-width:1.0;"/><line style="stroke:#0A9EFD;stroke-width:2.0;" x1="184.5" x2="506.5" y1="740.0156" y2="740.0156"/><text fill="#0A9EFD" font-family="Roboto" font-size="14" font-weight="bold" lengthAdjust="spacing" textLength="230" x="231.5" y="717.3301">Send audio and video data using</text><text fill="#0A9EFD" font-family="Roboto" font-size="14" font-weight="bold" lengthAdjust="spacing" textLength="227" x="235" y="734.9395">connectionId-1 to send stream-1</text><polygon fill="#0A9EFD" points="500.5,785.2344,510.5,789.2344,500.5,793.2344,504.5,789.2344" style="stroke:#0A9EFD;stroke-width:1.0;"/><line style="stroke:#0A9EFD;stroke-width:2.0;" x1="184.5" x2="506.5" y1="789.2344" y2="789.2344"/><text fill="#0A9EFD" font-family="Roboto" font-size="14" font-weight="bold" lengthAdjust="spacing" textLength="230" x="231.5" y="766.5488">Send audio and video data using</text><text fill="#0A9EFD" font-family="Roboto" font-size="14" font-weight="bold" lengthAdjust="spacing" textLength="227" x="235" y="784.1582">connectionId-2 to send stream-2</text><path d="M10,811.2344 L176,811.2344 L176,820.8438 L166,830.8438 L10,830.8438 L10,811.2344 " fill="#EEEEEE" style="stroke:#0A9EFD;stroke-width:1.5;"/><rect fill="none" height="100.4375" style="stroke:#0A9EFD;stroke-width:2.0;" width="545.5" x="10" y="811.2344"/><text fill="#0A9EFD" font-family="Roboto" font-size="14" font-weight="bold" lengthAdjust="spacing" textLength="121" x="25" y="826.7676">Leave channel(s)</text><polygon fill="#0A9EFD" points="172.5,850.4531,182.5,854.4531,172.5,858.4531,176.5,854.4531" style="stroke:#0A9EFD;stroke-width:1.0;"/><line style="stroke:#0A9EFD;stroke-width:2.0;" x1="39.5" x2="178.5" y1="854.4531" y2="854.4531"/><text fill="#0A9EFD" font-family="Roboto" font-size="14" font-weight="bold" lengthAdjust="spacing" textLength="121" x="51.5" y="849.377">Leave channel(s)</text><polygon fill="#0A9EFD" points="500.5,899.6719,510.5,903.6719,500.5,907.6719,504.5,903.6719" style="stroke:#0A9EFD;stroke-width:1.0;"/><line style="stroke:#0A9EFD;stroke-width:2.0;" x1="184.5" x2="506.5" y1="903.6719" y2="903.6719"/><text fill="#0A9EFD" font-family="Roboto" font-size="14" font-weight="bold" lengthAdjust="spacing" textLength="141" x="278" y="880.9863">Leave all channel(s)</text><text fill="#0A9EFD" font-family="Roboto" font-size="14" font-weight="bold" lengthAdjust="spacing" textLength="250" x="225.5" y="898.5957">using the associated connectionIds</text><path d="M103.5,925.6719 L210.5,925.6719 L210.5,935.2813 L200.5,945.2813 L103.5,945.2813 L103.5,925.6719 " fill="#EEEEEE" style="stroke:#0A9EFD;stroke-width:1.5;"/><rect fill="none" height="149.6563" style="stroke:#0A9EFD;stroke-width:2.0;" width="452" x="103.5" y="925.6719"/><text fill="#0A9EFD" font-family="Roboto" font-size="14" font-weight="bold" lengthAdjust="spacing" textLength="62" x="118.5" y="941.2051">Clean up</text><polygon fill="#0A9EFD" points="500.5,982.5,510.5,986.5,500.5,990.5,504.5,986.5" style="stroke:#0A9EFD;stroke-width:1.0;"/><line style="stroke:#0A9EFD;stroke-width:2.0;" x1="184.5" x2="506.5" y1="986.5" y2="986.5"/><text fill="#0A9EFD" font-family="Roboto" font-size="14" font-weight="bold" lengthAdjust="spacing" textLength="150" x="271.5" y="963.8145">Destroy connection-1</text><text fill="#0A9EFD" font-family="Roboto" font-size="14" font-weight="bold" lengthAdjust="spacing" textLength="148" x="274.5" y="981.4238">using connectionId-1</text><polygon fill="#0A9EFD" points="500.5,1031.7188,510.5,1035.7188,500.5,1039.7188,504.5,1035.7188" style="stroke:#0A9EFD;stroke-width:1.0;"/><line style="stroke:#0A9EFD;stroke-width:2.0;" x1="184.5" x2="506.5" y1="1035.7188" y2="1035.7188"/><text fill="#0A9EFD" font-family="Roboto" font-size="14" font-weight="bold" lengthAdjust="spacing" textLength="150" x="271.5" y="1013.0332">Destroy connection-2</text><text fill="#0A9EFD" font-family="Roboto" font-size="14" font-weight="bold" lengthAdjust="spacing" textLength="148" x="274.5" y="1030.6426">using connectionId-2</text><polygon fill="#0A9EFD" points="500.5,1063.3281,510.5,1067.3281,500.5,1071.3281,504.5,1067.3281" style="stroke:#0A9EFD;stroke-width:1.0;"/><line style="stroke:#0A9EFD;stroke-width:2.0;" x1="184.5" x2="506.5" y1="1067.3281" y2="1067.3281"/><text fill="#0A9EFD" font-family="Roboto" font-size="14" font-weight="bold" lengthAdjust="spacing" textLength="304" x="196.5" y="1062.252">Call the finish method to release resources</text><!--SRC=[hLHDRnen4BtlhvZkgJrGYJtcK8aiKaM_XDYaKYMaQc9Fm8snj_v0fR- -OnQnwmBXa5mGCE-zUVDipnjbX8wI05VMuK__fCnx5JUwIDzQTBY1Xdv7Ce8-EXlRMojtjoYULlp3oDfgwo0uD9wnP49He0ZyLtdloPM07kwRHL4ys3zG_h3H0RPjMJ0sAA5QD07AhoGLmaG8qkIGoKi3pVJpdZoPpmio4fX_49aac_yfDDFHukxRWJ3h2SbZo_O3V-vviBYhWOrjbQ22jM7q8RMuWPdnWQKK1eAmfbCqs8TV9496Ok6-t0PbZU_hinluJauzxa1ptNWEc6qfexY9Ld-xDYTMc5KxIYw4DOORikXe35S0LHhvE6xW-WQ2XKtKGRMQeMjahFO5dyNH_IUhJ5yPDXXMk7dqogm6xMPoDBwChyxXgmpVf0F2A9NTPx9LaYn837YWBatUBCtYZrCTZRr4ipglcGKvZtxTPzY1VK8Z9Ca-ruknNa_rPDHaFlArU3xayQMf1lHNo3nnkhbV8-s1MfRp5yBjCSkt_bqMvqbnQAChejO302-FpaDwN-Yz5UbHo-m- -c7xMXCofysKfyHExIv_XKjpzIcSuLNdUVdnr6c8vFYHDqIwTXJMLgRO76z5vEtXoFFw5DHv_mS0]--></g></svg>