<?xml version="1.0" encoding="UTF-8" standalone="no"?><svg xmlns="http://www.w3.org/2000/svg" xmlns:xlink="http://www.w3.org/1999/xlink" contentStyleType="text/css" height="1272px" preserveAspectRatio="none" style="width:656px;height:1272px;" version="1.1" viewBox="0 0 656 1272" width="656px" zoomAndPan="magnify"><defs/><g><rect fill="none" height="1270.3281" style="stroke:#0A9EFD;stroke-width:1.0;" width="654.5" x="0" y="0"/><rect fill="#F3F3F3" height="1260.3281" style="stroke:#0A9EFD;stroke-width:0.5;" width="150" x="209.5" y="6"/><text fill="#000000" font-family="sans-serif" font-size="13" font-weight="bold" lengthAdjust="spacing" textLength="57" x="256" y="19.4951">Your app</text><rect fill="#F3F3F3" height="1260.3281" style="stroke:#0A9EFD;stroke-width:0.5;" width="74" x="570.5" y="6"/><text fill="#000000" font-family="sans-serif" font-size="13" font-weight="bold" lengthAdjust="spacing" textLength="38" x="588.5" y="19.4951">Agora</text><rect fill="none" height="215.6563" style="stroke:#0A9EFD;stroke-width:2.0;" width="383" x="203.5" y="104.6094"/><rect fill="none" height="243.4844" style="stroke:#0A9EFD;stroke-width:2.0;" width="640.5" x="10" y="334.2656"/><rect fill="none" height="114.4375" style="stroke:#0A9EFD;stroke-width:2.0;" width="640.5" x="10" y="591.75"/><rect fill="none" height="333.7031" style="stroke:#0A9EFD;stroke-width:2.0;" width="640.5" x="10" y="720.1875"/><rect fill="none" height="95.8281" style="stroke:#0A9EFD;stroke-width:2.0;" width="447" x="203.5" y="1067.8906"/><line style="stroke:#0A9EFD;stroke-width:0.5;stroke-dasharray:5.0,5.0;" x1="39" x2="39" y1="87.6094" y2="1180.7188"/><line style="stroke:#0A9EFD;stroke-width:0.5;stroke-dasharray:5.0,5.0;" x1="284.5" x2="284.5" y1="87.6094" y2="1180.7188"/><line style="stroke:#0A9EFD;stroke-width:0.5;stroke-dasharray:5.0,5.0;" x1="607.5" x2="607.5" y1="87.6094" y2="1180.7188"/><text fill="#0A9EFD" font-family="Roboto" font-size="14" font-weight="bold" lengthAdjust="spacing" textLength="33" x="20" y="84.5332">User</text><ellipse cx="39.5" cy="16" fill="none" rx="8" ry="8" style="stroke:#0A9EFD;stroke-width:3.0;"/><path d="M39.5,24 L39.5,51 M26.5,32 L52.5,32 M39.5,51 L26.5,66 M39.5,51 L52.5,66 " fill="none" style="stroke:#0A9EFD;stroke-width:3.0;"/><text fill="#0A9EFD" font-family="Roboto" font-size="14" font-weight="bold" lengthAdjust="spacing" textLength="33" x="20" y="1194.252">User</text><ellipse cx="39.5" cy="1208.3281" fill="none" rx="8" ry="8" style="stroke:#0A9EFD;stroke-width:3.0;"/><path d="M39.5,1216.3281 L39.5,1243.3281 M26.5,1224.3281 L52.5,1224.3281 M39.5,1243.3281 L26.5,1258.3281 M39.5,1243.3281 L52.5,1258.3281 " fill="none" style="stroke:#0A9EFD;stroke-width:3.0;"/><rect fill="#FFFFFF" height="49.2188" rx="2.5" ry="2.5" style="stroke:#0A9EFD;stroke-width:2.0;" width="142" x="213.5" y="37.3906"/><text fill="#0A9EFD" font-family="Roboto" font-size="14" font-weight="bold" lengthAdjust="spacing" textLength="128" x="220.5" y="58.9238">Media Accelerator</text><text fill="#0A9EFD" font-family="Roboto" font-size="14" font-weight="bold" lengthAdjust="spacing" textLength="29" x="272" y="76.5332">SDK</text><rect fill="#FFFFFF" height="49.2188" rx="2.5" ry="2.5" style="stroke:#0A9EFD;stroke-width:2.0;" width="142" x="213.5" y="1179.7188"/><text fill="#0A9EFD" font-family="Roboto" font-size="14" font-weight="bold" lengthAdjust="spacing" textLength="128" x="220.5" y="1201.252">Media Accelerator</text><text fill="#0A9EFD" font-family="Roboto" font-size="14" font-weight="bold" lengthAdjust="spacing" textLength="29" x="272" y="1218.8613">SDK</text><rect fill="#FFFFFF" height="31.6094" rx="2.5" ry="2.5" style="stroke:#0A9EFD;stroke-width:2.0;" width="66" x="574.5" y="55"/><text fill="#0A9EFD" font-family="Roboto" font-size="14" font-weight="bold" lengthAdjust="spacing" textLength="52" x="581.5" y="76.5332">SD-RTN</text><rect fill="#FFFFFF" height="31.6094" rx="2.5" ry="2.5" style="stroke:#0A9EFD;stroke-width:2.0;" width="66" x="574.5" y="1179.7188"/><text fill="#0A9EFD" font-family="Roboto" font-size="14" font-weight="bold" lengthAdjust="spacing" textLength="52" x="581.5" y="1201.252">SD-RTN</text><path d="M203.5,104.6094 L423.5,104.6094 L423.5,114.2188 L413.5,124.2188 L203.5,124.2188 L203.5,104.6094 " fill="#EEEEEE" style="stroke:#0A9EFD;stroke-width:1.5;"/><rect fill="none" height="215.6563" style="stroke:#0A9EFD;stroke-width:2.0;" width="383" x="203.5" y="104.6094"/><text fill="#0A9EFD" font-family="Roboto" font-size="14" font-weight="bold" lengthAdjust="spacing" textLength="175" x="218.5" y="120.1426">Setup Agora RTC service</text><line style="stroke:#0A9EFD;stroke-width:2.0;" x1="284.5" x2="326.5" y1="147.8281" y2="147.8281"/><line style="stroke:#0A9EFD;stroke-width:2.0;" x1="326.5" x2="326.5" y1="147.8281" y2="160.8281"/><line style="stroke:#0A9EFD;stroke-width:2.0;" x1="285.5" x2="326.5" y1="160.8281" y2="160.8281"/><polygon fill="#0A9EFD" points="295.5,156.8281,285.5,160.8281,295.5,164.8281,291.5,160.8281" style="stroke:#0A9EFD;stroke-width:1.0;"/><text fill="#0A9EFD" font-family="Roboto" font-size="14" font-weight="bold" lengthAdjust="spacing" textLength="283" x="291.5" y="142.752">Instantiate the Agora RTC service object</text><line style="stroke:#0A9EFD;stroke-width:2.0;" x1="284.5" x2="326.5" y1="210.0469" y2="210.0469"/><line style="stroke:#0A9EFD;stroke-width:2.0;" x1="326.5" x2="326.5" y1="210.0469" y2="223.0469"/><line style="stroke:#0A9EFD;stroke-width:2.0;" x1="285.5" x2="326.5" y1="223.0469" y2="223.0469"/><polygon fill="#0A9EFD" points="295.5,219.0469,285.5,223.0469,295.5,227.0469,291.5,223.0469" style="stroke:#0A9EFD;stroke-width:1.0;"/><text fill="#0A9EFD" font-family="Roboto" font-size="14" font-weight="bold" lengthAdjust="spacing" textLength="238" x="291.5" y="187.3613">Set RTC service options including</text><text fill="#0A9EFD" font-family="Roboto" font-size="14" font-weight="bold" lengthAdjust="spacing" textLength="209" x="308" y="204.9707">log file path and logging level</text><line style="stroke:#0A9EFD;stroke-width:2.0;" x1="284.5" x2="326.5" y1="254.6563" y2="254.6563"/><line style="stroke:#0A9EFD;stroke-width:2.0;" x1="326.5" x2="326.5" y1="254.6563" y2="267.6563"/><line style="stroke:#0A9EFD;stroke-width:2.0;" x1="285.5" x2="326.5" y1="267.6563" y2="267.6563"/><polygon fill="#0A9EFD" points="295.5,263.6563,285.5,267.6563,295.5,271.6563,291.5,267.6563" style="stroke:#0A9EFD;stroke-width:1.0;"/><text fill="#0A9EFD" font-family="Roboto" font-size="14" font-weight="bold" lengthAdjust="spacing" textLength="271" x="291.5" y="249.5801">Verify license and initialize the service</text><line style="stroke:#0A9EFD;stroke-width:2.0;" x1="284.5" x2="326.5" y1="299.2656" y2="299.2656"/><line style="stroke:#0A9EFD;stroke-width:2.0;" x1="326.5" x2="326.5" y1="299.2656" y2="312.2656"/><line style="stroke:#0A9EFD;stroke-width:2.0;" x1="285.5" x2="326.5" y1="312.2656" y2="312.2656"/><polygon fill="#0A9EFD" points="295.5,308.2656,285.5,312.2656,295.5,316.2656,291.5,312.2656" style="stroke:#0A9EFD;stroke-width:1.0;"/><text fill="#0A9EFD" font-family="Roboto" font-size="14" font-weight="bold" lengthAdjust="spacing" textLength="142" x="291.5" y="294.1895">Create a connection</text><path d="M10,334.2656 L157,334.2656 L157,343.875 L147,353.875 L10,353.875 L10,334.2656 " fill="#EEEEEE" style="stroke:#0A9EFD;stroke-width:1.5;"/><rect fill="none" height="243.4844" style="stroke:#0A9EFD;stroke-width:2.0;" width="640.5" x="10" y="334.2656"/><text fill="#0A9EFD" font-family="Roboto" font-size="14" font-weight="bold" lengthAdjust="spacing" textLength="102" x="25" y="349.7988">Join a channel</text><polygon fill="#0A9EFD" points="272.5,373.4844,282.5,377.4844,272.5,381.4844,276.5,377.4844" style="stroke:#0A9EFD;stroke-width:1.0;"/><line style="stroke:#0A9EFD;stroke-width:2.0;" x1="39.5" x2="278.5" y1="377.4844" y2="377.4844"/><text fill="#0A9EFD" font-family="Roboto" font-size="14" font-weight="bold" lengthAdjust="spacing" textLength="102" x="111" y="372.4082">Join a channel</text><polygon fill="#0A9EFD" points="595.5,422.7031,605.5,426.7031,595.5,430.7031,599.5,426.7031" style="stroke:#0A9EFD;stroke-width:1.0;"/><line style="stroke:#0A9EFD;stroke-width:2.0;" x1="284.5" x2="601.5" y1="426.7031" y2="426.7031"/><text fill="#0A9EFD" font-family="Roboto" font-size="14" font-weight="bold" lengthAdjust="spacing" textLength="265" x="313.5" y="404.0176">Set bandwidth estimation parameters:</text><text fill="#0A9EFD" font-family="Roboto" font-size="14" font-weight="bold" lengthAdjust="spacing" textLength="289" x="303.5" y="421.627">minimum, maximum, and starting bit rates</text><line style="stroke:#0A9EFD;stroke-width:2.0;" x1="284.5" x2="326.5" y1="493.5313" y2="493.5313"/><line style="stroke:#0A9EFD;stroke-width:2.0;" x1="326.5" x2="326.5" y1="493.5313" y2="506.5313"/><line style="stroke:#0A9EFD;stroke-width:2.0;" x1="285.5" x2="326.5" y1="506.5313" y2="506.5313"/><polygon fill="#0A9EFD" points="295.5,502.5313,285.5,506.5313,295.5,510.5313,291.5,506.5313" style="stroke:#0A9EFD;stroke-width:1.0;"/><text fill="#0A9EFD" font-family="Roboto" font-size="14" font-weight="bold" lengthAdjust="spacing" textLength="172" x="291.5" y="453.2363">Specify the audio codec,</text><text fill="#0A9EFD" font-family="Roboto" font-size="14" font-weight="bold" lengthAdjust="spacing" textLength="129" x="315" y="470.8457">sampling rate, and</text><text fill="#0A9EFD" font-family="Roboto" font-size="14" font-weight="bold" lengthAdjust="spacing" textLength="167" x="296" y="488.4551">the number of channels</text><polygon fill="#0A9EFD" points="595.5,534.1406,605.5,538.1406,595.5,542.1406,599.5,538.1406" style="stroke:#0A9EFD;stroke-width:1.0;"/><line style="stroke:#0A9EFD;stroke-width:2.0;" x1="284.5" x2="601.5" y1="538.1406" y2="538.1406"/><text fill="#0A9EFD" font-family="Roboto" font-size="14" font-weight="bold" lengthAdjust="spacing" textLength="204" x="344" y="533.0645">Call the Join channel method</text><polygon fill="#0A9EFD" points="295.5,565.75,285.5,569.75,295.5,573.75,291.5,569.75" style="stroke:#0A9EFD;stroke-width:1.0;"/><line style="stroke:#0A9EFD;stroke-width:2.0;" x1="289.5" x2="606.5" y1="569.75" y2="569.75"/><text fill="#0A9EFD" font-family="Roboto" font-size="14" font-weight="bold" lengthAdjust="spacing" textLength="231" x="330.5" y="564.6738">on join channel success callback</text><path d="M10,591.75 L296,591.75 L296,601.3594 L286,611.3594 L10,611.3594 L10,591.75 " fill="#EEEEEE" style="stroke:#0A9EFD;stroke-width:1.5;"/><rect fill="none" height="114.4375" style="stroke:#0A9EFD;stroke-width:2.0;" width="640.5" x="10" y="591.75"/><text fill="#0A9EFD" font-family="Roboto" font-size="14" font-weight="bold" lengthAdjust="spacing" textLength="241" x="25" y="607.2832">Send and receive audio and video</text><polygon fill="#0A9EFD" points="595.5,630.9688,605.5,634.9688,595.5,638.9688,599.5,634.9688" style="stroke:#0A9EFD;stroke-width:1.0;"/><line style="stroke:#0A9EFD;stroke-width:2.0;" x1="284.5" x2="601.5" y1="634.9688" y2="634.9688"/><text fill="#0A9EFD" font-family="Roboto" font-size="14" font-weight="bold" lengthAdjust="spacing" textLength="299" x="296.5" y="629.8926">Start threads to send audio and video data</text><polygon fill="#0A9EFD" points="295.5,662.5781,285.5,666.5781,295.5,670.5781,291.5,666.5781" style="stroke:#0A9EFD;stroke-width:1.0;"/><line style="stroke:#0A9EFD;stroke-width:2.0;" x1="289.5" x2="606.5" y1="666.5781" y2="666.5781"/><text fill="#0A9EFD" font-family="Roboto" font-size="14" font-weight="bold" lengthAdjust="spacing" textLength="209" x="341.5" y="661.502">Receive audio and video data</text><polygon fill="#0A9EFD" points="50.5,694.1875,40.5,698.1875,50.5,702.1875,46.5,698.1875" style="stroke:#0A9EFD;stroke-width:1.0;"/><line style="stroke:#0A9EFD;stroke-width:2.0;" x1="44.5" x2="283.5" y1="698.1875" y2="698.1875"/><text fill="#0A9EFD" font-family="Roboto" font-size="14" font-weight="bold" lengthAdjust="spacing" textLength="221" x="51.5" y="693.1113">Render audio and video frames</text><path d="M10,720.1875 L288,720.1875 L288,729.7969 L278,739.7969 L10,739.7969 L10,720.1875 " fill="#EEEEEE" style="stroke:#0A9EFD;stroke-width:1.5;"/><rect fill="none" height="333.7031" style="stroke:#0A9EFD;stroke-width:2.0;" width="640.5" x="10" y="720.1875"/><text fill="#0A9EFD" font-family="Roboto" font-size="14" font-weight="bold" lengthAdjust="spacing" textLength="233" x="25" y="735.7207">Manage audio and video streams</text><polygon fill="#0A9EFD" points="272.5,759.4063,282.5,763.4063,272.5,767.4063,276.5,763.4063" style="stroke:#0A9EFD;stroke-width:1.0;"/><line style="stroke:#0A9EFD;stroke-width:2.0;" x1="39.5" x2="278.5" y1="763.4063" y2="763.4063"/><text fill="#0A9EFD" font-family="Roboto" font-size="14" font-weight="bold" lengthAdjust="spacing" textLength="179" x="72.5" y="758.3301">Mute local audio or video</text><polygon fill="#0A9EFD" points="595.5,808.625,605.5,812.625,595.5,816.625,599.5,812.625" style="stroke:#0A9EFD;stroke-width:1.0;"/><line style="stroke:#0A9EFD;stroke-width:2.0;" x1="284.5" x2="601.5" y1="812.625" y2="812.625"/><text fill="#0A9EFD" font-family="Roboto" font-size="14" font-weight="bold" lengthAdjust="spacing" textLength="169" x="359.5" y="789.9395">Call mute Local Audio or</text><text fill="#0A9EFD" font-family="Roboto" font-size="14" font-weight="bold" lengthAdjust="spacing" textLength="120" x="388" y="807.5488">mute Local Video</text><polygon fill="#0A9EFD" points="272.5,840.2344,282.5,844.2344,272.5,848.2344,276.5,844.2344" style="stroke:#0A9EFD;stroke-width:1.0;"/><line style="stroke:#0A9EFD;stroke-width:2.0;" x1="39.5" x2="278.5" y1="844.2344" y2="844.2344"/><text fill="#0A9EFD" font-family="Roboto" font-size="14" font-weight="bold" lengthAdjust="spacing" textLength="196" x="64" y="839.1582">Mute remote audio or video</text><polygon fill="#0A9EFD" points="595.5,889.4531,605.5,893.4531,595.5,897.4531,599.5,893.4531" style="stroke:#0A9EFD;stroke-width:1.0;"/><line style="stroke:#0A9EFD;stroke-width:2.0;" x1="284.5" x2="601.5" y1="893.4531" y2="893.4531"/><text fill="#0A9EFD" font-family="Roboto" font-size="14" font-weight="bold" lengthAdjust="spacing" textLength="186" x="351" y="870.7676">Call mute Remote Audio or</text><text fill="#0A9EFD" font-family="Roboto" font-size="14" font-weight="bold" lengthAdjust="spacing" textLength="137" x="379.5" y="888.377">mute Remote Video</text><polygon fill="#0A9EFD" points="295.5,921.0625,285.5,925.0625,295.5,929.0625,291.5,925.0625" style="stroke:#0A9EFD;stroke-width:1.0;"/><line style="stroke:#0A9EFD;stroke-width:2.0;" x1="289.5" x2="606.5" y1="925.0625" y2="925.0625"/><text fill="#0A9EFD" font-family="Roboto" font-size="14" font-weight="bold" lengthAdjust="spacing" textLength="200" x="346" y="919.9863">on User Mute Audio callback</text><line style="stroke:#0A9EFD;stroke-width:2.0;" x1="284.5" x2="326.5" y1="956.6719" y2="956.6719"/><line style="stroke:#0A9EFD;stroke-width:2.0;" x1="326.5" x2="326.5" y1="956.6719" y2="969.6719"/><line style="stroke:#0A9EFD;stroke-width:2.0;" x1="285.5" x2="326.5" y1="969.6719" y2="969.6719"/><polygon fill="#0A9EFD" points="295.5,965.6719,285.5,969.6719,295.5,973.6719,291.5,969.6719" style="stroke:#0A9EFD;stroke-width:1.0;"/><text fill="#0A9EFD" font-family="Roboto" font-size="14" font-weight="bold" lengthAdjust="spacing" textLength="217" x="291.5" y="951.5957">Suspend or resume audio feed</text><polygon fill="#0A9EFD" points="295.5,997.2813,285.5,1001.2813,295.5,1005.2813,291.5,1001.2813" style="stroke:#0A9EFD;stroke-width:1.0;"/><line style="stroke:#0A9EFD;stroke-width:2.0;" x1="289.5" x2="606.5" y1="1001.2813" y2="1001.2813"/><text fill="#0A9EFD" font-family="Roboto" font-size="14" font-weight="bold" lengthAdjust="spacing" textLength="200" x="346" y="996.2051">on User Mute Video callback</text><line style="stroke:#0A9EFD;stroke-width:2.0;" x1="284.5" x2="326.5" y1="1032.8906" y2="1032.8906"/><line style="stroke:#0A9EFD;stroke-width:2.0;" x1="326.5" x2="326.5" y1="1032.8906" y2="1045.8906"/><line style="stroke:#0A9EFD;stroke-width:2.0;" x1="285.5" x2="326.5" y1="1045.8906" y2="1045.8906"/><polygon fill="#0A9EFD" points="295.5,1041.8906,285.5,1045.8906,295.5,1049.8906,291.5,1045.8906" style="stroke:#0A9EFD;stroke-width:1.0;"/><text fill="#0A9EFD" font-family="Roboto" font-size="14" font-weight="bold" lengthAdjust="spacing" textLength="218" x="291.5" y="1027.8145">Suspend or resume Video feed</text><path d="M203.5,1067.8906 L607.5,1067.8906 L607.5,1077.5 L597.5,1087.5 L203.5,1087.5 L203.5,1067.8906 " fill="#EEEEEE" style="stroke:#0A9EFD;stroke-width:1.5;"/><rect fill="none" height="95.8281" style="stroke:#0A9EFD;stroke-width:2.0;" width="447" x="203.5" y="1067.8906"/><text fill="#0A9EFD" font-family="Roboto" font-size="14" font-weight="bold" lengthAdjust="spacing" textLength="359" x="218.5" y="1083.4238">Detect and respond to network bandwidth changes</text><polygon fill="#0A9EFD" points="295.5,1107.1094,285.5,1111.1094,295.5,1115.1094,291.5,1111.1094" style="stroke:#0A9EFD;stroke-width:1.0;"/><line style="stroke:#0A9EFD;stroke-width:2.0;" x1="289.5" x2="606.5" y1="1111.1094" y2="1111.1094"/><text fill="#0A9EFD" font-family="Roboto" font-size="14" font-weight="bold" lengthAdjust="spacing" textLength="246" x="323" y="1106.0332">on Target Bitrate Changed callback</text><line style="stroke:#0A9EFD;stroke-width:2.0;" x1="284.5" x2="326.5" y1="1142.7188" y2="1142.7188"/><line style="stroke:#0A9EFD;stroke-width:2.0;" x1="326.5" x2="326.5" y1="1142.7188" y2="1155.7188"/><line style="stroke:#0A9EFD;stroke-width:2.0;" x1="285.5" x2="326.5" y1="1155.7188" y2="1155.7188"/><polygon fill="#0A9EFD" points="295.5,1151.7188,285.5,1155.7188,295.5,1159.7188,291.5,1155.7188" style="stroke:#0A9EFD;stroke-width:1.0;"/><text fill="#0A9EFD" font-family="Roboto" font-size="14" font-weight="bold" lengthAdjust="spacing" textLength="186" x="291.5" y="1137.6426">Adjust the sending bit rate</text><!--SRC=[ZLJBRjim4BphAxO-9_s0e2ZWE43XjYa2EmbGe411askP2KMg9EKa_VhEKdv8SGhaOalBcU7iIn-irwupJAeEKVrEZzP_j5tZAdbgLLGDBVbFnrxpbnYwzZAObqkb7skyU3CBBaJAKVa4BFjSLKfdX2PtYUE4LAAxvQAgLk6P9Zz35qcrxQG2DbjjM-KpJQxPM4LJhTbnL23_yhIy-bR8qvkRYhqXy7SYKx7vIc5vTRwu_R4Zp8y4yTZ2ViPluT7YTaOmjhMQAsZJ-MUvueBcFcL8MPMPyePFqHHM3wppY0JXCQJDDlX4VKMjhv682pMjhMDgLTwGWZD4QfoHuosxaTuzHxj-8GSjdxY0hRSmvUpVtjPRrcUHnRKY7Ro7HLYG2kop_ngibyEDmgchq8q3yzNHGNJUfxQ2WIThO9jJjeqIPIeJmPbZka1s3VmrNND6ZNhk7yGqIedc8CMLpOIESXgNhMKjUKf22dKAS6vOdq4lgQPrmXHM4KDGSBvhLXmfhFTkqyZkJ3bNS2Mb7OJWSnDC0Nuwxu78u648IHt6BYNI45XXgeULMyeSIJwHDTljtgn4jjPm61TCSeO5DCCaoW6j4lQOGKPbDVApU5lw28G-MYP0Rr20rxYrT2CDNLyhh-fJmPJXh4cZ_bztc1iNaFiEZhqzpQpKjX7ezmATxg7I_sFulX1Fv2Ct8VFxz1SzzkI2NVp-G1rqKpup_KqzxT38qSHrgPLsG3DowfgzdpMp-RzWkU-zWZsu20wQSOLDqNatHAaD-CTeUCvF8JuE5ap6iIvhCZ_S0I-tAjPOn4kRPHzeLb3cRKjJyz2blFjAU3DSl-Be7m00]--></g></svg>