<?xml version="1.0" encoding="UTF-8" standalone="no"?><svg xmlns="http://www.w3.org/2000/svg" xmlns:xlink="http://www.w3.org/1999/xlink" contentStyleType="text/css" height="915px" preserveAspectRatio="none" style="width:762px;height:915px;" version="1.1" viewBox="0 0 762 915" width="762px" zoomAndPan="magnify"><defs/><g><rect fill="none" height="913.0156" style="stroke:#0A9EFD;stroke-width:1.0;" width="760" x="0" y="0"/><rect fill="#F3F3F3" height="903.0156" style="stroke:#0A9EFD;stroke-width:0.5;" width="377.5" x="50" y="6"/><text fill="#000000" font-family="sans-serif" font-size="13" font-weight="bold" lengthAdjust="spacing" textLength="130" x="173.75" y="19.4951">Implemented by you</text><rect fill="#F3F3F3" height="903.0156" style="stroke:#0A9EFD;stroke-width:0.5;" width="124" x="632" y="6"/><text fill="#000000" font-family="sans-serif" font-size="13" font-weight="bold" lengthAdjust="spacing" textLength="118" x="635" y="19.4951">Provided by Agora</text><line style="stroke:#0A9EFD;stroke-width:0.5;stroke-dasharray:5.0,5.0;" x1="24" x2="24" y1="87.6094" y2="823.4063"/><line style="stroke:#0A9EFD;stroke-width:0.5;stroke-dasharray:5.0,5.0;" x1="102" x2="102" y1="87.6094" y2="823.4063"/><line style="stroke:#0A9EFD;stroke-width:0.5;stroke-dasharray:5.0,5.0;" x1="358.5" x2="358.5" y1="87.6094" y2="823.4063"/><line style="stroke:#0A9EFD;stroke-width:0.5;stroke-dasharray:5.0,5.0;" x1="694" x2="694" y1="87.6094" y2="823.4063"/><text fill="#0A9EFD" font-family="Roboto" font-size="14" font-weight="bold" lengthAdjust="spacing" textLength="33" x="5" y="84.5332">User</text><ellipse cx="24.5" cy="16" fill="none" rx="8" ry="8" style="stroke:#0A9EFD;stroke-width:3.0;"/><path d="M24.5,24 L24.5,51 M11.5,32 L37.5,32 M24.5,51 L11.5,66 M24.5,51 L37.5,66 " fill="none" style="stroke:#0A9EFD;stroke-width:3.0;"/><text fill="#0A9EFD" font-family="Roboto" font-size="14" font-weight="bold" lengthAdjust="spacing" textLength="33" x="5" y="836.9395">User</text><ellipse cx="24.5" cy="851.0156" fill="none" rx="8" ry="8" style="stroke:#0A9EFD;stroke-width:3.0;"/><path d="M24.5,859.0156 L24.5,886.0156 M11.5,867.0156 L37.5,867.0156 M24.5,886.0156 L11.5,901.0156 M24.5,886.0156 L37.5,901.0156 " fill="none" style="stroke:#0A9EFD;stroke-width:3.0;"/><rect fill="#FFFFFF" height="31.6094" rx="2.5" ry="2.5" style="stroke:#0A9EFD;stroke-width:2.0;" width="96" x="54" y="55"/><text fill="#0A9EFD" font-family="Roboto" font-size="14" font-weight="bold" lengthAdjust="spacing" textLength="82" x="61" y="76.5332">Web server</text><rect fill="#FFFFFF" height="31.6094" rx="2.5" ry="2.5" style="stroke:#0A9EFD;stroke-width:2.0;" width="96" x="54" y="822.4063"/><text fill="#0A9EFD" font-family="Roboto" font-size="14" font-weight="bold" lengthAdjust="spacing" textLength="82" x="61" y="843.9395">Web server</text><rect fill="#FFFFFF" height="31.6094" rx="2.5" ry="2.5" style="stroke:#0A9EFD;stroke-width:2.0;" width="129" x="294.5" y="55"/><text fill="#0A9EFD" font-family="Roboto" font-size="14" font-weight="bold" lengthAdjust="spacing" textLength="115" x="301.5" y="76.5332">Your app server</text><rect fill="#FFFFFF" height="31.6094" rx="2.5" ry="2.5" style="stroke:#0A9EFD;stroke-width:2.0;" width="129" x="294.5" y="822.4063"/><text fill="#0A9EFD" font-family="Roboto" font-size="14" font-weight="bold" lengthAdjust="spacing" textLength="115" x="301.5" y="843.9395">Your app server</text><rect fill="#FFFFFF" height="49.2188" rx="2.5" ry="2.5" style="stroke:#0A9EFD;stroke-width:2.0;" width="96" x="646" y="37.3906"/><text fill="#0A9EFD" font-family="Roboto" font-size="14" font-weight="bold" lengthAdjust="spacing" textLength="41" x="673.5" y="58.9238">Agora</text><text fill="#0A9EFD" font-family="Roboto" font-size="14" font-weight="bold" lengthAdjust="spacing" textLength="82" x="653" y="76.5332">Media Push</text><rect fill="#FFFFFF" height="49.2188" rx="2.5" ry="2.5" style="stroke:#0A9EFD;stroke-width:2.0;" width="96" x="646" y="822.4063"/><text fill="#0A9EFD" font-family="Roboto" font-size="14" font-weight="bold" lengthAdjust="spacing" textLength="41" x="673.5" y="843.9395">Agora</text><text fill="#0A9EFD" font-family="Roboto" font-size="14" font-weight="bold" lengthAdjust="spacing" textLength="82" x="653" y="861.5488">Media Push</text><polygon fill="#0A9EFD" points="347,117.2188,357,121.2188,347,125.2188,351,121.2188" style="stroke:#0A9EFD;stroke-width:1.0;"/><line style="stroke:#0A9EFD;stroke-width:2.0;" x1="24.5" x2="353" y1="121.2188" y2="121.2188"/><text fill="#0A9EFD" font-family="Roboto" font-size="14" font-weight="bold" lengthAdjust="spacing" textLength="118" x="132.75" y="116.1426">Start media push</text><polygon fill="#0A9EFD" points="682,148.8281,692,152.8281,682,156.8281,686,152.8281" style="stroke:#0A9EFD;stroke-width:1.0;"/><line style="stroke:#0A9EFD;stroke-width:2.0;" x1="359" x2="688" y1="152.8281" y2="152.8281"/><text fill="#0A9EFD" font-family="Roboto" font-size="14" font-weight="bold" lengthAdjust="spacing" textLength="133" x="460" y="147.752">Create a converter</text><polygon fill="#0A9EFD" points="370,180.4375,360,184.4375,370,188.4375,366,184.4375" style="stroke:#0A9EFD;stroke-width:1.0;"/><line style="stroke:#0A9EFD;stroke-width:2.0;" x1="364" x2="693" y1="184.4375" y2="184.4375"/><text fill="#0A9EFD" font-family="Roboto" font-size="14" font-weight="bold" lengthAdjust="spacing" textLength="280" x="386.5" y="179.3613">Response confirming conveter creation</text><polygon fill="#0A9EFD" points="113,212.0469,103,216.0469,113,220.0469,109,216.0469" style="stroke:#0A9EFD;stroke-width:1.0;"/><line style="stroke:#0A9EFD;stroke-width:2.0;" x1="107" x2="693" y1="216.0469" y2="216.0469"/><text fill="#0A9EFD" font-family="Roboto" font-size="14" font-weight="bold" lengthAdjust="spacing" textLength="312" x="242" y="210.9707">Notification eventType=1: Converter created</text><line style="stroke:#0A9EFD;stroke-width:2.0;" x1="102" x2="144" y1="247.6563" y2="247.6563"/><line style="stroke:#0A9EFD;stroke-width:2.0;" x1="144" x2="144" y1="247.6563" y2="260.6563"/><line style="stroke:#0A9EFD;stroke-width:2.0;" x1="103" x2="144" y1="260.6563" y2="260.6563"/><polygon fill="#0A9EFD" points="113,256.6563,103,260.6563,113,264.6563,109,260.6563" style="stroke:#0A9EFD;stroke-width:1.0;"/><text fill="#0A9EFD" font-family="Roboto" font-size="14" font-weight="bold" lengthAdjust="spacing" textLength="243" x="109" y="242.5801">Authenticate notification signature</text><polygon fill="#0A9EFD" points="682,288.2656,692,292.2656,682,296.2656,686,292.2656" style="stroke:#0A9EFD;stroke-width:1.0;"/><line style="stroke:#0A9EFD;stroke-width:2.0;" x1="102" x2="688" y1="292.2656" y2="292.2656"/><text fill="#0A9EFD" font-family="Roboto" font-size="14" font-weight="bold" lengthAdjust="spacing" textLength="49" x="373.5" y="287.1895">200 OK</text><polygon fill="#0A9EFD" points="347,319.875,357,323.875,347,327.875,351,323.875" style="stroke:#0A9EFD;stroke-width:1.0;"/><line style="stroke:#0A9EFD;stroke-width:2.0;" x1="24.5" x2="353" y1="323.875" y2="323.875"/><text fill="#0A9EFD" font-family="Roboto" font-size="14" font-weight="bold" lengthAdjust="spacing" textLength="226" x="78.75" y="318.7988">Change converter configuration</text><polygon fill="#0A9EFD" points="682,351.4844,692,355.4844,682,359.4844,686,355.4844" style="stroke:#0A9EFD;stroke-width:1.0;"/><line style="stroke:#0A9EFD;stroke-width:2.0;" x1="359" x2="688" y1="355.4844" y2="355.4844"/><text fill="#0A9EFD" font-family="Roboto" font-size="14" font-weight="bold" lengthAdjust="spacing" textLength="150" x="451.5" y="350.4082">Update converter API</text><polygon fill="#0A9EFD" points="370,383.0938,360,387.0938,370,391.0938,366,387.0938" style="stroke:#0A9EFD;stroke-width:1.0;"/><line style="stroke:#0A9EFD;stroke-width:2.0;" x1="364" x2="693" y1="387.0938" y2="387.0938"/><text fill="#0A9EFD" font-family="Roboto" font-size="14" font-weight="bold" lengthAdjust="spacing" textLength="301" x="376" y="382.0176">Response confirming configuration update</text><polygon fill="#0A9EFD" points="113,414.7031,103,418.7031,113,422.7031,109,418.7031" style="stroke:#0A9EFD;stroke-width:1.0;"/><line style="stroke:#0A9EFD;stroke-width:2.0;" x1="107" x2="693" y1="418.7031" y2="418.7031"/><text fill="#0A9EFD" font-family="Roboto" font-size="14" font-weight="bold" lengthAdjust="spacing" textLength="417" x="189.5" y="413.627">Notification eventType=2: Converter configuration changed</text><line style="stroke:#0A9EFD;stroke-width:2.0;" x1="102" x2="144" y1="450.3125" y2="450.3125"/><line style="stroke:#0A9EFD;stroke-width:2.0;" x1="144" x2="144" y1="450.3125" y2="463.3125"/><line style="stroke:#0A9EFD;stroke-width:2.0;" x1="103" x2="144" y1="463.3125" y2="463.3125"/><polygon fill="#0A9EFD" points="113,459.3125,103,463.3125,113,467.3125,109,463.3125" style="stroke:#0A9EFD;stroke-width:1.0;"/><text fill="#0A9EFD" font-family="Roboto" font-size="14" font-weight="bold" lengthAdjust="spacing" textLength="243" x="109" y="445.2363">Authenticate notification signature</text><polygon fill="#0A9EFD" points="682,490.9219,692,494.9219,682,498.9219,686,494.9219" style="stroke:#0A9EFD;stroke-width:1.0;"/><line style="stroke:#0A9EFD;stroke-width:2.0;" x1="102" x2="688" y1="494.9219" y2="494.9219"/><text fill="#0A9EFD" font-family="Roboto" font-size="14" font-weight="bold" lengthAdjust="spacing" textLength="49" x="373.5" y="489.8457">200 OK</text><polygon fill="#0A9EFD" points="113,522.5313,103,526.5313,113,530.5313,109,526.5313" style="stroke:#0A9EFD;stroke-width:1.0;"/><line style="stroke:#0A9EFD;stroke-width:2.0;" x1="107" x2="693" y1="526.5313" y2="526.5313"/><text fill="#0A9EFD" font-family="Roboto" font-size="14" font-weight="bold" lengthAdjust="spacing" textLength="366" x="215" y="521.4551">Notification eventType=3: Converter status changed</text><line style="stroke:#0A9EFD;stroke-width:2.0;" x1="102" x2="144" y1="558.1406" y2="558.1406"/><line style="stroke:#0A9EFD;stroke-width:2.0;" x1="144" x2="144" y1="558.1406" y2="571.1406"/><line style="stroke:#0A9EFD;stroke-width:2.0;" x1="103" x2="144" y1="571.1406" y2="571.1406"/><polygon fill="#0A9EFD" points="113,567.1406,103,571.1406,113,575.1406,109,571.1406" style="stroke:#0A9EFD;stroke-width:1.0;"/><text fill="#0A9EFD" font-family="Roboto" font-size="14" font-weight="bold" lengthAdjust="spacing" textLength="243" x="109" y="553.0645">Authenticate notification signature</text><polygon fill="#0A9EFD" points="682,598.75,692,602.75,682,606.75,686,602.75" style="stroke:#0A9EFD;stroke-width:1.0;"/><line style="stroke:#0A9EFD;stroke-width:2.0;" x1="102" x2="688" y1="602.75" y2="602.75"/><text fill="#0A9EFD" font-family="Roboto" font-size="14" font-weight="bold" lengthAdjust="spacing" textLength="49" x="373.5" y="597.6738">200 OK</text><polygon fill="#0A9EFD" points="347,630.3594,357,634.3594,347,638.3594,351,634.3594" style="stroke:#0A9EFD;stroke-width:1.0;"/><line style="stroke:#0A9EFD;stroke-width:2.0;" x1="24.5" x2="353" y1="634.3594" y2="634.3594"/><text fill="#0A9EFD" font-family="Roboto" font-size="14" font-weight="bold" lengthAdjust="spacing" textLength="117" x="133.25" y="629.2832">Stop media push</text><polygon fill="#0A9EFD" points="682,661.9688,692,665.9688,682,669.9688,686,665.9688" style="stroke:#0A9EFD;stroke-width:1.0;"/><line style="stroke:#0A9EFD;stroke-width:2.0;" x1="359" x2="688" y1="665.9688" y2="665.9688"/><text fill="#0A9EFD" font-family="Roboto" font-size="14" font-weight="bold" lengthAdjust="spacing" textLength="146" x="453.5" y="660.8926">Delete converter API</text><polygon fill="#0A9EFD" points="370,693.5781,360,697.5781,370,701.5781,366,697.5781" style="stroke:#0A9EFD;stroke-width:1.0;"/><line style="stroke:#0A9EFD;stroke-width:2.0;" x1="364" x2="693" y1="697.5781" y2="697.5781"/><text fill="#0A9EFD" font-family="Roboto" font-size="14" font-weight="bold" lengthAdjust="spacing" textLength="273" x="390" y="692.502">Response confirming converter delete</text><polygon fill="#0A9EFD" points="113,725.1875,103,729.1875,113,733.1875,109,729.1875" style="stroke:#0A9EFD;stroke-width:1.0;"/><line style="stroke:#0A9EFD;stroke-width:2.0;" x1="107" x2="693" y1="729.1875" y2="729.1875"/><text fill="#0A9EFD" font-family="Roboto" font-size="14" font-weight="bold" lengthAdjust="spacing" textLength="329" x="233.5" y="724.1113">Notification eventType=4: Converter destroyed</text><line style="stroke:#0A9EFD;stroke-width:2.0;" x1="102" x2="144" y1="760.7969" y2="760.7969"/><line style="stroke:#0A9EFD;stroke-width:2.0;" x1="144" x2="144" y1="760.7969" y2="773.7969"/><line style="stroke:#0A9EFD;stroke-width:2.0;" x1="103" x2="144" y1="773.7969" y2="773.7969"/><polygon fill="#0A9EFD" points="113,769.7969,103,773.7969,113,777.7969,109,773.7969" style="stroke:#0A9EFD;stroke-width:1.0;"/><text fill="#0A9EFD" font-family="Roboto" font-size="14" font-weight="bold" lengthAdjust="spacing" textLength="243" x="109" y="755.7207">Authenticate notification signature</text><polygon fill="#0A9EFD" points="682,801.4063,692,805.4063,682,809.4063,686,805.4063" style="stroke:#0A9EFD;stroke-width:1.0;"/><line style="stroke:#0A9EFD;stroke-width:2.0;" x1="102" x2="688" y1="805.4063" y2="805.4063"/><text fill="#0A9EFD" font-family="Roboto" font-size="14" font-weight="bold" lengthAdjust="spacing" textLength="49" x="373.5" y="800.3301">200 OK</text><!--SRC=[hL9RIyCm57xFhpZsVJAdJqE5Cb-6JClc546Gh3thWcqISXdRl_SqxMmh24Nsckz-o8MGQU4p19uhmp_jbv2NmfS5Opnroa2qjcWYu1RMgoLZ6tM0Q5xg0akK3ZFO7E6eVCGqDqwaGdFf87h33P1itoXNhyi-_gwy0QvrbnGd2KD9XkhGn2H6xKLMPyHLkryfuUr3BZ0J719lTxNFelMXoZ2whwodi7AaXJAGDP4PlGPmGU3C87Tq0qYLf48EJO1lHpMyHAkLj5Z1Ms5A8VEQIKH8AwrGaX6rCgIrKtXIJcn56W30FTtgvQZnxegYJWcr43D6WXzTxDsEo9KIGNPDhCWbTzxWYH-QJSPZU7valQMp7PSvjbFgrhatJStExhNEgg2M6YVp8SjRE_31OiZuIMzypoGDbSzpYW5DhhjDh2ClUzOA_N-dz5_VxW4B_C_v6tOMv4C6ttG7PsYTKSVpRFq6]--></g></svg>