<?xml version="1.0" encoding="us-ascii" standalone="no"?><svg xmlns="http://www.w3.org/2000/svg" xmlns:xlink="http://www.w3.org/1999/xlink" contentStyleType="text/css" height="667px" preserveAspectRatio="none" style="width:540px;height:667px;" version="1.1" viewBox="0 0 540 667" width="540px" zoomAndPan="magnify"><defs/><g><rect fill="none" height="665.8848" style="stroke:#0A9EFD;stroke-width:1.0;" width="538" x="0" y="0"/><rect fill="#999999" fill-opacity="0.33333" height="655.8848" style="stroke:#0A9EFD;stroke-width:0.5;" width="331" x="47" y="6"/><text fill="#0A9EFD" font-family="sans-serif" font-size="13" font-weight="bold" lengthAdjust="spacing" textLength="140" x="142.5" y="18.5684">Implemented by you</text><rect fill="#999999" fill-opacity="0.33333" height="655.8848" style="stroke:#0A9EFD;stroke-width:0.5;" width="132" x="402" y="6"/><text fill="#0A9EFD" font-family="sans-serif" font-size="13" font-weight="bold" lengthAdjust="spacing" textLength="126" x="405" y="18.5684">Provided by Agora</text><line style="stroke:#0A9EFD;stroke-width:0.5;stroke-dasharray:5.0,5.0;" x1="23" x2="23" y1="88.6064" y2="577.7861"/><line style="stroke:#0A9EFD;stroke-width:0.5;stroke-dasharray:5.0,5.0;" x1="94" x2="94" y1="88.6064" y2="577.7861"/><line style="stroke:#0A9EFD;stroke-width:0.5;stroke-dasharray:5.0,5.0;" x1="206" x2="206" y1="88.6064" y2="577.7861"/><line style="stroke:#0A9EFD;stroke-width:0.5;stroke-dasharray:5.0,5.0;" x1="324" x2="324" y1="88.6064" y2="577.7861"/><line style="stroke:#0A9EFD;stroke-width:0.5;stroke-dasharray:5.0,5.0;" x1="468" x2="468" y1="88.6064" y2="577.7861"/><text fill="#0A9EFD" font-family="Arial" font-size="14" lengthAdjust="spacing" textLength="30" x="5" y="85.6396">User</text><ellipse cx="23" cy="18.5078" fill="none" rx="8" ry="8" style="stroke:#0A9EFD;stroke-width:3.0;"/><path d="M23,26.5078 L23,53.5078 M10,34.5078 L36,34.5078 M23,53.5078 L10,68.5078 M23,53.5078 L36,68.5078 " fill="none" style="stroke:#0A9EFD;stroke-width:3.0;"/><text fill="#0A9EFD" font-family="Arial" font-size="14" lengthAdjust="spacing" textLength="30" x="5" y="589.918">User</text><ellipse cx="23" cy="603.8848" fill="none" rx="8" ry="8" style="stroke:#0A9EFD;stroke-width:3.0;"/><path d="M23,611.8848 L23,638.8848 M10,619.8848 L36,619.8848 M23,638.8848 L10,653.8848 M23,638.8848 L36,653.8848 " fill="none" style="stroke:#0A9EFD;stroke-width:3.0;"/><rect fill="none" height="30.0986" rx="2.5" ry="2.5" style="stroke:#0A9EFD;stroke-width:2.0;" width="87" x="51" y="57.5078"/><text fill="#0A9EFD" font-family="Arial" font-size="14" lengthAdjust="spacing" textLength="73" x="58" y="77.6396">Web server</text><rect fill="none" height="30.0986" rx="2.5" ry="2.5" style="stroke:#0A9EFD;stroke-width:2.0;" width="87" x="51" y="576.7861"/><text fill="#0A9EFD" font-family="Arial" font-size="14" lengthAdjust="spacing" textLength="73" x="58" y="596.918">Web server</text><rect fill="none" height="30.0986" rx="2.5" ry="2.5" style="stroke:#0A9EFD;stroke-width:2.0;" width="116" x="148" y="57.5078"/><text fill="#0A9EFD" font-family="Arial" font-size="14" lengthAdjust="spacing" textLength="102" x="155" y="77.6396">Your app server</text><rect fill="none" height="30.0986" rx="2.5" ry="2.5" style="stroke:#0A9EFD;stroke-width:2.0;" width="116" x="148" y="576.7861"/><text fill="#0A9EFD" font-family="Arial" font-size="14" lengthAdjust="spacing" textLength="102" x="155" y="596.918">Your app server</text><rect fill="none" height="62.2959" rx="2.5" ry="2.5" style="stroke:#0A9EFD;stroke-width:2.0;" width="100" x="274" y="25.3105"/><text fill="#0A9EFD" font-family="Arial" font-size="14" lengthAdjust="spacing" textLength="30" x="309" y="45.4424">Your</text><text fill="#0A9EFD" font-family="Arial" font-size="14" lengthAdjust="spacing" textLength="65" x="291.5" y="61.541">third-party</text><text fill="#0A9EFD" font-family="Arial" font-size="14" lengthAdjust="spacing" textLength="86" x="281" y="77.6396">cloud storage</text><rect fill="none" height="62.2959" rx="2.5" ry="2.5" style="stroke:#0A9EFD;stroke-width:2.0;" width="100" x="274" y="576.7861"/><text fill="#0A9EFD" font-family="Arial" font-size="14" lengthAdjust="spacing" textLength="30" x="309" y="596.918">Your</text><text fill="#0A9EFD" font-family="Arial" font-size="14" lengthAdjust="spacing" textLength="65" x="291.5" y="613.0166">third-party</text><text fill="#0A9EFD" font-family="Arial" font-size="14" lengthAdjust="spacing" textLength="86" x="281" y="629.1152">cloud storage</text><rect fill="none" height="46.1973" rx="2.5" ry="2.5" style="stroke:#0A9EFD;stroke-width:2.0;" width="120" x="408" y="41.4092"/><text fill="#0A9EFD" font-family="Arial" font-size="14" lengthAdjust="spacing" textLength="38" x="449" y="61.541">Agora</text><text fill="#0A9EFD" font-family="Arial" font-size="14" lengthAdjust="spacing" textLength="106" x="415" y="77.6396">Cloud Recording</text><rect fill="none" height="46.1973" rx="2.5" ry="2.5" style="stroke:#0A9EFD;stroke-width:2.0;" width="120" x="408" y="576.7861"/><text fill="#0A9EFD" font-family="Arial" font-size="14" lengthAdjust="spacing" textLength="38" x="449" y="596.918">Agora</text><text fill="#0A9EFD" font-family="Arial" font-size="14" lengthAdjust="spacing" textLength="106" x="415" y="613.0166">Cloud Recording</text><polygon fill="#0A9EFD" points="194,115.5552,204,119.5552,194,123.5552,198,119.5552" style="stroke:#0A9EFD;stroke-width:1.0;"/><line style="stroke:#0A9EFD;stroke-width:2.0;" x1="23" x2="200" y1="119.5552" y2="119.5552"/><text fill="#0A9EFD" font-family="Arial" font-size="13" lengthAdjust="spacing" textLength="85" x="72" y="114.8003">Start recording</text><polygon fill="#0A9EFD" points="456,144.5039,466,148.5039,456,152.5039,460,148.5039" style="stroke:#0A9EFD;stroke-width:1.0;"/><line style="stroke:#0A9EFD;stroke-width:2.0;" x1="206" x2="462" y1="148.5039" y2="148.5039"/><text fill="#0A9EFD" font-family="Arial" font-size="13" lengthAdjust="spacing" textLength="139" x="267.5" y="143.749">Get recording resources</text><polygon fill="#0A9EFD" points="217,173.4526,207,177.4526,217,181.4526,213,177.4526" style="stroke:#0A9EFD;stroke-width:1.0;"/><line style="stroke:#0A9EFD;stroke-width:2.0;" x1="211" x2="467" y1="177.4526" y2="177.4526"/><text fill="#0A9EFD" font-family="Arial" font-size="13" lengthAdjust="spacing" textLength="67" x="303.5" y="172.6978">resource ID</text><polygon fill="#0A9EFD" points="456,202.4014,466,206.4014,456,210.4014,460,206.4014" style="stroke:#0A9EFD;stroke-width:1.0;"/><line style="stroke:#0A9EFD;stroke-width:2.0;" x1="206" x2="462" y1="206.4014" y2="206.4014"/><text fill="#0A9EFD" font-family="Arial" font-size="13" lengthAdjust="spacing" textLength="85" x="294.5" y="201.6465">Start recording</text><polygon fill="#0A9EFD" points="105.5,231.3501,95.5,235.3501,105.5,239.3501,101.5,235.3501" style="stroke:#0A9EFD;stroke-width:1.0;"/><line style="stroke:#0A9EFD;stroke-width:2.0;" x1="99.5" x2="467" y1="235.3501" y2="235.3501"/><text fill="#0A9EFD" font-family="Arial" font-size="13" lengthAdjust="spacing" textLength="249" x="156.75" y="230.5952">Notification 40: `recorder_started` &lt;status&gt;</text><polygon fill="#0A9EFD" points="456,260.2988,466,264.2988,456,268.2988,460,264.2988" style="stroke:#0A9EFD;stroke-width:1.0;"/><line style="stroke:#0A9EFD;stroke-width:2.0;" x1="94.5" x2="462" y1="264.2988" y2="264.2988"/><text fill="#0A9EFD" font-family="Arial" font-size="13" lengthAdjust="spacing" textLength="44" x="259.25" y="259.5439">200 OK</text><path d="M135,277.2988 L135,301.2988 L513,301.2988 L513,287.2988 L503,277.2988 L135,277.2988 " fill="none" style="stroke:#0A9EFD;stroke-width:1.0;"/><path d="M503,277.2988 L503,287.2988 L513,287.2988 L503,277.2988 " fill="none" style="stroke:#0A9EFD;stroke-width:1.0;"/><text fill="#0A9EFD" font-family="Arial" font-size="13" lengthAdjust="spacing" textLength="348" x="150" y="294.4927">Notifications sent and acknowledged for all recording events</text><polygon fill="#0A9EFD" points="194,324.1963,204,328.1963,194,332.1963,198,328.1963" style="stroke:#0A9EFD;stroke-width:1.0;"/><line style="stroke:#0A9EFD;stroke-width:2.0;" x1="23" x2="200" y1="328.1963" y2="328.1963"/><text fill="#0A9EFD" font-family="Arial" font-size="13" lengthAdjust="spacing" textLength="84" x="72.5" y="323.4414">Stop recording</text><polygon fill="#0A9EFD" points="456,353.145,466,357.145,456,361.145,460,357.145" style="stroke:#0A9EFD;stroke-width:1.0;"/><line style="stroke:#0A9EFD;stroke-width:2.0;" x1="206" x2="462" y1="357.145" y2="357.145"/><text fill="#0A9EFD" font-family="Arial" font-size="13" lengthAdjust="spacing" textLength="80" x="297" y="352.3901">End recording</text><polygon fill="#0A9EFD" points="105.5,382.0938,95.5,386.0938,105.5,390.0938,101.5,386.0938" style="stroke:#0A9EFD;stroke-width:1.0;"/><line style="stroke:#0A9EFD;stroke-width:2.0;" x1="99.5" x2="467" y1="386.0938" y2="386.0938"/><text fill="#0A9EFD" font-family="Arial" font-size="13" lengthAdjust="spacing" textLength="251" x="155.75" y="381.3389">Notification 30: `uploader_started` &lt;status&gt;</text><polygon fill="#0A9EFD" points="456,411.0425,466,415.0425,456,419.0425,460,415.0425" style="stroke:#0A9EFD;stroke-width:1.0;"/><line style="stroke:#0A9EFD;stroke-width:2.0;" x1="94.5" x2="462" y1="415.0425" y2="415.0425"/><text fill="#0A9EFD" font-family="Arial" font-size="13" lengthAdjust="spacing" textLength="44" x="259.25" y="410.2876">200 OK</text><polygon fill="#0A9EFD" points="335,439.9912,325,443.9912,335,447.9912,331,443.9912" style="stroke:#0A9EFD;stroke-width:1.0;"/><line style="stroke:#0A9EFD;stroke-width:2.0;" x1="329" x2="467" y1="443.9912" y2="443.9912"/><text fill="#0A9EFD" font-family="Arial" font-size="13" lengthAdjust="spacing" textLength="118" x="337" y="439.2363">Upload recording file</text><polygon fill="#0A9EFD" points="105.5,468.9399,95.5,472.9399,105.5,476.9399,101.5,472.9399" style="stroke:#0A9EFD;stroke-width:1.0;"/><line style="stroke:#0A9EFD;stroke-width:2.0;" x1="99.5" x2="467" y1="472.9399" y2="472.9399"/><text fill="#0A9EFD" font-family="Arial" font-size="13" lengthAdjust="spacing" textLength="207" x="177.75" y="468.1851">Notification 31: `uploaded` &lt;status&gt;</text><polygon fill="#0A9EFD" points="456,497.8887,466,501.8887,456,505.8887,460,501.8887" style="stroke:#0A9EFD;stroke-width:1.0;"/><line style="stroke:#0A9EFD;stroke-width:2.0;" x1="94.5" x2="462" y1="501.8887" y2="501.8887"/><text fill="#0A9EFD" font-family="Arial" font-size="13" lengthAdjust="spacing" textLength="44" x="259.25" y="497.1338">200 OK</text><polygon fill="#0A9EFD" points="105.5,526.8374,95.5,530.8374,105.5,534.8374,101.5,530.8374" style="stroke:#0A9EFD;stroke-width:1.0;"/><line style="stroke:#0A9EFD;stroke-width:2.0;" x1="99.5" x2="467" y1="530.8374" y2="530.8374"/><text fill="#0A9EFD" font-family="Arial" font-size="13" lengthAdjust="spacing" textLength="251" x="155.75" y="526.0825">Notification 11: `session_exit` &lt;exitStatus&gt;</text><polygon fill="#0A9EFD" points="456,555.7861,466,559.7861,456,563.7861,460,559.7861" style="stroke:#0A9EFD;stroke-width:1.0;"/><line style="stroke:#0A9EFD;stroke-width:2.0;" x1="94.5" x2="462" y1="559.7861" y2="559.7861"/><text fill="#0A9EFD" font-family="Arial" font-size="13" lengthAdjust="spacing" textLength="44" x="259.25" y="555.0313">200 OK</text><!--SRC=[ZL7HJW8n47plLwptVWZg4p4cvZ26Q9GSGMD20kMwd0r7zzBs4FxURK453UhJzRepipFJ4ssAgb48hTRfIYkarAd5gIp9oebRQDFIpR8IGXQUB2GZXpO1wM0qp8MOqHgI_hAkS8d6euBP1ZRK9AAMrkj2rz9uI9vn1anRxPZ3f_nm_aAD1LdN-w3hmU0dQ6pygxOg3OFDc6rJey2nBrbYP6NtFO66RT1wPsvWAOIApgv3fc_UujtOP54gnuAiqgRSMiZoJp5E2-bLSDM5eMS1i1zOmPTnbkLTkCMz2PySkoxGHSnbkiLyt4A_Ty3zePl5dLnN5nx8wxakfDTauABTXUaMXtRY0WtL52xvv1jt9PZnANhMRiFZdJ3a4OZB3HKToZckdPkGd5GM2qDl5QgI2vlpSykgsek3AmQwRrrGVQIA6nRycXnFSnxID7L5yjzfTbenoYWozrpETOM_REjyRVjZot6HJX1nw1p_J72jFGk5p_2us3i0]--></g></svg>