<?xml version="1.0" encoding="us-ascii" standalone="no"?><svg xmlns="http://www.w3.org/2000/svg" xmlns:xlink="http://www.w3.org/1999/xlink" contentStyleType="text/css" height="668px" preserveAspectRatio="none" style="width:534px;height:668px;" version="1.1" viewBox="0 0 534 668" width="534px" zoomAndPan="magnify"><defs/><g><rect fill="none" height="666.9258" style="stroke:#0A9EFD;stroke-width:1.0;" width="532" x="0" y="0"/><rect fill="#999999" fill-opacity="0.33333" height="656.9258" style="stroke:#0A9EFD;stroke-width:0.5;" width="331" x="46" y="6"/><text fill="#0A9EFD" font-family="sans-serif" font-size="13" font-weight="bold" lengthAdjust="spacing" textLength="130" x="146.5" y="19.4951">Implemented by you</text><rect fill="#999999" fill-opacity="0.33333" height="656.9258" style="stroke:#0A9EFD;stroke-width:0.5;" width="128" x="400" y="6"/><text fill="#0A9EFD" font-family="sans-serif" font-size="13" font-weight="bold" lengthAdjust="spacing" textLength="118" x="405" y="19.4951">Provided by Agora</text><line style="stroke:#0A9EFD;stroke-width:0.5;stroke-dasharray:5.0,5.0;" x1="22" x2="22" y1="89.6475" y2="578.8271"/><line style="stroke:#0A9EFD;stroke-width:0.5;stroke-dasharray:5.0,5.0;" x1="93" x2="93" y1="89.6475" y2="578.8271"/><line style="stroke:#0A9EFD;stroke-width:0.5;stroke-dasharray:5.0,5.0;" x1="205" x2="205" y1="89.6475" y2="578.8271"/><line style="stroke:#0A9EFD;stroke-width:0.5;stroke-dasharray:5.0,5.0;" x1="323" x2="323" y1="89.6475" y2="578.8271"/><line style="stroke:#0A9EFD;stroke-width:0.5;stroke-dasharray:5.0,5.0;" x1="464" x2="464" y1="89.6475" y2="578.8271"/><text fill="#0A9EFD" font-family="Arial" font-size="14" lengthAdjust="spacing" textLength="29" x="5" y="86.6807">User</text><ellipse cx="22.5" cy="19.5488" fill="none" rx="8" ry="8" style="stroke:#0A9EFD;stroke-width:3.0;"/><path d="M22.5,27.5488 L22.5,54.5488 M9.5,35.5488 L35.5,35.5488 M22.5,54.5488 L9.5,69.5488 M22.5,54.5488 L35.5,69.5488 " fill="none" style="stroke:#0A9EFD;stroke-width:3.0;"/><text fill="#0A9EFD" font-family="Arial" font-size="14" lengthAdjust="spacing" textLength="29" x="5" y="590.959">User</text><ellipse cx="22.5" cy="604.9258" fill="none" rx="8" ry="8" style="stroke:#0A9EFD;stroke-width:3.0;"/><path d="M22.5,612.9258 L22.5,639.9258 M9.5,620.9258 L35.5,620.9258 M22.5,639.9258 L9.5,654.9258 M22.5,639.9258 L35.5,654.9258 " fill="none" style="stroke:#0A9EFD;stroke-width:3.0;"/><rect fill="none" height="30.0986" rx="2.5" ry="2.5" style="stroke:#0A9EFD;stroke-width:2.0;" width="87" x="50" y="58.5488"/><text fill="#0A9EFD" font-family="Arial" font-size="14" lengthAdjust="spacing" textLength="73" x="57" y="78.6807">Web server</text><rect fill="none" height="30.0986" rx="2.5" ry="2.5" style="stroke:#0A9EFD;stroke-width:2.0;" width="87" x="50" y="577.8271"/><text fill="#0A9EFD" font-family="Arial" font-size="14" lengthAdjust="spacing" textLength="73" x="57" y="597.959">Web server</text><rect fill="none" height="30.0986" rx="2.5" ry="2.5" style="stroke:#0A9EFD;stroke-width:2.0;" width="116" x="147" y="58.5488"/><text fill="#0A9EFD" font-family="Arial" font-size="14" lengthAdjust="spacing" textLength="102" x="154" y="78.6807">Your app server</text><rect fill="none" height="30.0986" rx="2.5" ry="2.5" style="stroke:#0A9EFD;stroke-width:2.0;" width="116" x="147" y="577.8271"/><text fill="#0A9EFD" font-family="Arial" font-size="14" lengthAdjust="spacing" textLength="102" x="154" y="597.959">Your app server</text><rect fill="none" height="62.2959" rx="2.5" ry="2.5" style="stroke:#0A9EFD;stroke-width:2.0;" width="100" x="273" y="26.3516"/><text fill="#0A9EFD" font-family="Arial" font-size="14" lengthAdjust="spacing" textLength="30" x="308" y="46.4834">Your</text><text fill="#0A9EFD" font-family="Arial" font-size="14" lengthAdjust="spacing" textLength="65" x="290.5" y="62.582">third-party</text><text fill="#0A9EFD" font-family="Arial" font-size="14" lengthAdjust="spacing" textLength="86" x="280" y="78.6807">cloud storage</text><rect fill="none" height="62.2959" rx="2.5" ry="2.5" style="stroke:#0A9EFD;stroke-width:2.0;" width="100" x="273" y="577.8271"/><text fill="#0A9EFD" font-family="Arial" font-size="14" lengthAdjust="spacing" textLength="30" x="308" y="597.959">Your</text><text fill="#0A9EFD" font-family="Arial" font-size="14" lengthAdjust="spacing" textLength="65" x="290.5" y="614.0576">third-party</text><text fill="#0A9EFD" font-family="Arial" font-size="14" lengthAdjust="spacing" textLength="86" x="280" y="630.1563">cloud storage</text><rect fill="none" height="46.1973" rx="2.5" ry="2.5" style="stroke:#0A9EFD;stroke-width:2.0;" width="120" x="404" y="42.4502"/><text fill="#0A9EFD" font-family="Arial" font-size="14" lengthAdjust="spacing" textLength="38" x="445" y="62.582">Agora</text><text fill="#0A9EFD" font-family="Arial" font-size="14" lengthAdjust="spacing" textLength="106" x="411" y="78.6807">Cloud Recording</text><rect fill="none" height="46.1973" rx="2.5" ry="2.5" style="stroke:#0A9EFD;stroke-width:2.0;" width="120" x="404" y="577.8271"/><text fill="#0A9EFD" font-family="Arial" font-size="14" lengthAdjust="spacing" textLength="38" x="445" y="597.959">Agora</text><text fill="#0A9EFD" font-family="Arial" font-size="14" lengthAdjust="spacing" textLength="106" x="411" y="614.0576">Cloud Recording</text><polygon fill="#0A9EFD" points="193,116.5962,203,120.5962,193,124.5962,197,120.5962" style="stroke:#0A9EFD;stroke-width:1.0;"/><line style="stroke:#0A9EFD;stroke-width:2.0;" x1="22.5" x2="199" y1="120.5962" y2="120.5962"/><text fill="#0A9EFD" font-family="Arial" font-size="13" lengthAdjust="spacing" textLength="85" x="71.25" y="115.8413">Start recording</text><polygon fill="#0A9EFD" points="452,145.5449,462,149.5449,452,153.5449,456,149.5449" style="stroke:#0A9EFD;stroke-width:1.0;"/><line style="stroke:#0A9EFD;stroke-width:2.0;" x1="205" x2="458" y1="149.5449" y2="149.5449"/><text fill="#0A9EFD" font-family="Arial" font-size="13" lengthAdjust="spacing" textLength="139" x="265" y="144.79">Get recording resources</text><polygon fill="#0A9EFD" points="216,174.4937,206,178.4937,216,182.4937,212,178.4937" style="stroke:#0A9EFD;stroke-width:1.0;"/><line style="stroke:#0A9EFD;stroke-width:2.0;" x1="210" x2="463" y1="178.4937" y2="178.4937"/><text fill="#0A9EFD" font-family="Arial" font-size="13" lengthAdjust="spacing" textLength="66" x="301.5" y="173.7388">resource ID</text><polygon fill="#0A9EFD" points="452,203.4424,462,207.4424,452,211.4424,456,207.4424" style="stroke:#0A9EFD;stroke-width:1.0;"/><line style="stroke:#0A9EFD;stroke-width:2.0;" x1="205" x2="458" y1="207.4424" y2="207.4424"/><text fill="#0A9EFD" font-family="Arial" font-size="13" lengthAdjust="spacing" textLength="85" x="292" y="202.6875">Start recording</text><polygon fill="#0A9EFD" points="104.5,232.3911,94.5,236.3911,104.5,240.3911,100.5,236.3911" style="stroke:#0A9EFD;stroke-width:1.0;"/><line style="stroke:#0A9EFD;stroke-width:2.0;" x1="98.5" x2="463" y1="236.3911" y2="236.3911"/><text fill="#0A9EFD" font-family="Arial" font-size="13" lengthAdjust="spacing" textLength="248" x="154.75" y="231.6362">Notification 40: `recorder_started` &lt;status&gt;</text><polygon fill="#0A9EFD" points="452,261.3398,462,265.3398,452,269.3398,456,265.3398" style="stroke:#0A9EFD;stroke-width:1.0;"/><line style="stroke:#0A9EFD;stroke-width:2.0;" x1="93.5" x2="458" y1="265.3398" y2="265.3398"/><text fill="#0A9EFD" font-family="Arial" font-size="13" lengthAdjust="spacing" textLength="44" x="256.75" y="260.585">200 OK</text><path d="M136,278.3398 L136,302.3398 L510,302.3398 L510,288.3398 L500,278.3398 L136,278.3398 " fill="none" style="stroke:#0A9EFD;stroke-width:1.0;"/><path d="M500,278.3398 L500,288.3398 L510,288.3398 L500,278.3398 " fill="none" style="stroke:#0A9EFD;stroke-width:1.0;"/><text fill="#0A9EFD" font-family="Arial" font-size="13" lengthAdjust="spacing" textLength="344" x="151" y="295.5337">Notifications sent and acknowledged for all recording events</text><polygon fill="#0A9EFD" points="193,325.2373,203,329.2373,193,333.2373,197,329.2373" style="stroke:#0A9EFD;stroke-width:1.0;"/><line style="stroke:#0A9EFD;stroke-width:2.0;" x1="22.5" x2="199" y1="329.2373" y2="329.2373"/><text fill="#0A9EFD" font-family="Arial" font-size="13" lengthAdjust="spacing" textLength="84" x="71.75" y="324.4824">Stop recording</text><polygon fill="#0A9EFD" points="452,354.186,462,358.186,452,362.186,456,358.186" style="stroke:#0A9EFD;stroke-width:1.0;"/><line style="stroke:#0A9EFD;stroke-width:2.0;" x1="205" x2="458" y1="358.186" y2="358.186"/><text fill="#0A9EFD" font-family="Arial" font-size="13" lengthAdjust="spacing" textLength="80" x="294.5" y="353.4312">End recording</text><polygon fill="#0A9EFD" points="104.5,383.1348,94.5,387.1348,104.5,391.1348,100.5,387.1348" style="stroke:#0A9EFD;stroke-width:1.0;"/><line style="stroke:#0A9EFD;stroke-width:2.0;" x1="98.5" x2="463" y1="387.1348" y2="387.1348"/><text fill="#0A9EFD" font-family="Arial" font-size="13" lengthAdjust="spacing" textLength="250" x="153.75" y="382.3799">Notification 30: `uploader_started` &lt;status&gt;</text><polygon fill="#0A9EFD" points="452,412.0835,462,416.0835,452,420.0835,456,416.0835" style="stroke:#0A9EFD;stroke-width:1.0;"/><line style="stroke:#0A9EFD;stroke-width:2.0;" x1="93.5" x2="458" y1="416.0835" y2="416.0835"/><text fill="#0A9EFD" font-family="Arial" font-size="13" lengthAdjust="spacing" textLength="44" x="256.75" y="411.3286">200 OK</text><polygon fill="#0A9EFD" points="334,441.0322,324,445.0322,334,449.0322,330,445.0322" style="stroke:#0A9EFD;stroke-width:1.0;"/><line style="stroke:#0A9EFD;stroke-width:2.0;" x1="328" x2="463" y1="445.0322" y2="445.0322"/><text fill="#0A9EFD" font-family="Arial" font-size="13" lengthAdjust="spacing" textLength="117" x="335" y="440.2773">Upload recording file</text><polygon fill="#0A9EFD" points="104.5,469.981,94.5,473.981,104.5,477.981,100.5,473.981" style="stroke:#0A9EFD;stroke-width:1.0;"/><line style="stroke:#0A9EFD;stroke-width:2.0;" x1="98.5" x2="463" y1="473.981" y2="473.981"/><text fill="#0A9EFD" font-family="Arial" font-size="13" lengthAdjust="spacing" textLength="206" x="175.75" y="469.2261">Notification 31: `uploaded` &lt;status&gt;</text><polygon fill="#0A9EFD" points="452,498.9297,462,502.9297,452,506.9297,456,502.9297" style="stroke:#0A9EFD;stroke-width:1.0;"/><line style="stroke:#0A9EFD;stroke-width:2.0;" x1="93.5" x2="458" y1="502.9297" y2="502.9297"/><text fill="#0A9EFD" font-family="Arial" font-size="13" lengthAdjust="spacing" textLength="44" x="256.75" y="498.1748">200 OK</text><polygon fill="#0A9EFD" points="104.5,527.8784,94.5,531.8784,104.5,535.8784,100.5,531.8784" style="stroke:#0A9EFD;stroke-width:1.0;"/><line style="stroke:#0A9EFD;stroke-width:2.0;" x1="98.5" x2="463" y1="531.8784" y2="531.8784"/><text fill="#0A9EFD" font-family="Arial" font-size="13" lengthAdjust="spacing" textLength="250" x="153.75" y="527.1235">Notification 11: `session_exit` &lt;exitStatus&gt;</text><polygon fill="#0A9EFD" points="452,556.8271,462,560.8271,452,564.8271,456,560.8271" style="stroke:#0A9EFD;stroke-width:1.0;"/><line style="stroke:#0A9EFD;stroke-width:2.0;" x1="93.5" x2="458" y1="560.8271" y2="560.8271"/><text fill="#0A9EFD" font-family="Arial" font-size="13" lengthAdjust="spacing" textLength="44" x="256.75" y="556.0723">200 OK</text><!--SRC=[ZL5TQy8m57tFhxZhkqEtFHKHf8uX6vjKt1W86fjh5un9ILAd_twthHzLwRQdfhddd7lEoOtKYSe50a-DvJEtalfMvcl564-yiH1C7De0k8F9E6PiOROG3DUPmZLgZm8MEzYPF60PjrucCkFQG_212o3QPiySlyVdyq-JM-1PLWVrHwDhq5JxBsb5gnZifkJKv08S-U8fbgpePS1GamsptPiRMREHedBMBp9TU2llfZegfM9CZ1LIfvM5A3wAKLfezGfN8Omz2O0zO1bTbhCe3k49QnCwENATe2intLQ5ETp2S736lTADofrKLmYlnikbJBYNHiD3EuHvXKCxSmKDnHowTFAvwp5Y74NlscruUsRQU0H3vHOLdSivgfsQu9IK9ojjlXMAb0fRqdDpfMfnS4D0Tz65oHggU2J1qwGvpNsH9i-KuVzEizSgeqnAPitbKYhyPLldjEsFBSqYdKB4eNFqCyEjz2HKVCRDOZy0]--></g></svg>