<?xml version="1.0" encoding="us-ascii" standalone="no"?><svg xmlns="http://www.w3.org/2000/svg" xmlns:xlink="http://www.w3.org/1999/xlink" contentStyleType="text/css" height="856px" preserveAspectRatio="none" style="width:650px;height:856px;" version="1.1" viewBox="0 0 650 856" width="650px" zoomAndPan="magnify"><defs/><g><rect fill="none" height="854.1206" style="stroke:#0A9EFD;stroke-width:1.0;" width="648.5" x="0" y="0"/><rect fill="#999999" fill-opacity="0.33333" height="844.1206" style="stroke:#0A9EFD;stroke-width:0.5;" width="319.5" x="46" y="6"/><text fill="#0A9EFD" font-family="sans-serif" font-size="13" font-weight="bold" lengthAdjust="spacing" textLength="130" x="140.75" y="19.4951">Implemented by you</text><rect fill="#999999" fill-opacity="0.33333" height="844.1206" style="stroke:#0A9EFD;stroke-width:0.5;" width="124" x="520.5" y="6"/><text fill="#0A9EFD" font-family="sans-serif" font-size="13" font-weight="bold" lengthAdjust="spacing" textLength="118" x="523.5" y="19.4951">Provided by Agora</text><line style="stroke:#0A9EFD;stroke-width:0.5;stroke-dasharray:5.0,5.0;" x1="22" x2="22" y1="86.0986" y2="766.022"/><line style="stroke:#0A9EFD;stroke-width:0.5;stroke-dasharray:5.0,5.0;" x1="93" x2="93" y1="86.0986" y2="766.022"/><line style="stroke:#0A9EFD;stroke-width:0.5;stroke-dasharray:5.0,5.0;" x1="303.5" x2="303.5" y1="86.0986" y2="766.022"/><line style="stroke:#0A9EFD;stroke-width:0.5;stroke-dasharray:5.0,5.0;" x1="582.5" x2="582.5" y1="86.0986" y2="766.022"/><text fill="#0A9EFD" font-family="Arial" font-size="14" lengthAdjust="spacing" textLength="29" x="5" y="83.1318">User</text><ellipse cx="22.5" cy="16" fill="none" rx="8" ry="8" style="stroke:#0A9EFD;stroke-width:3.0;"/><path d="M22.5,24 L22.5,51 M9.5,32 L35.5,32 M22.5,51 L9.5,66 M22.5,51 L35.5,66 " fill="none" style="stroke:#0A9EFD;stroke-width:3.0;"/><text fill="#0A9EFD" font-family="Arial" font-size="14" lengthAdjust="spacing" textLength="29" x="5" y="778.1538">User</text><ellipse cx="22.5" cy="792.1206" fill="none" rx="8" ry="8" style="stroke:#0A9EFD;stroke-width:3.0;"/><path d="M22.5,800.1206 L22.5,827.1206 M9.5,808.1206 L35.5,808.1206 M22.5,827.1206 L9.5,842.1206 M22.5,827.1206 L35.5,842.1206 " fill="none" style="stroke:#0A9EFD;stroke-width:3.0;"/><rect fill="none" height="30.0986" rx="2.5" ry="2.5" style="stroke:#0A9EFD;stroke-width:2.0;" width="87" x="50" y="55"/><text fill="#0A9EFD" font-family="Arial" font-size="14" lengthAdjust="spacing" textLength="73" x="57" y="75.1318">Web server</text><rect fill="none" height="30.0986" rx="2.5" ry="2.5" style="stroke:#0A9EFD;stroke-width:2.0;" width="87" x="50" y="765.022"/><text fill="#0A9EFD" font-family="Arial" font-size="14" lengthAdjust="spacing" textLength="73" x="57" y="785.1538">Web server</text><rect fill="none" height="30.0986" rx="2.5" ry="2.5" style="stroke:#0A9EFD;stroke-width:2.0;" width="116" x="245.5" y="55"/><text fill="#0A9EFD" font-family="Arial" font-size="14" lengthAdjust="spacing" textLength="102" x="252.5" y="75.1318">Your app server</text><rect fill="none" height="30.0986" rx="2.5" ry="2.5" style="stroke:#0A9EFD;stroke-width:2.0;" width="116" x="245.5" y="765.022"/><text fill="#0A9EFD" font-family="Arial" font-size="14" lengthAdjust="spacing" textLength="102" x="252.5" y="785.1538">Your app server</text><rect fill="none" height="46.1973" rx="2.5" ry="2.5" style="stroke:#0A9EFD;stroke-width:2.0;" width="88" x="538.5" y="38.9014"/><text fill="#0A9EFD" font-family="Arial" font-size="14" lengthAdjust="spacing" textLength="38" x="563.5" y="59.0332">Agora</text><text fill="#0A9EFD" font-family="Arial" font-size="14" lengthAdjust="spacing" textLength="74" x="545.5" y="75.1318">Media Push</text><rect fill="none" height="46.1973" rx="2.5" ry="2.5" style="stroke:#0A9EFD;stroke-width:2.0;" width="88" x="538.5" y="765.022"/><text fill="#0A9EFD" font-family="Arial" font-size="14" lengthAdjust="spacing" textLength="38" x="563.5" y="785.1538">Agora</text><text fill="#0A9EFD" font-family="Arial" font-size="14" lengthAdjust="spacing" textLength="74" x="545.5" y="801.2524">Media Push</text><polygon fill="#0A9EFD" points="291.5,113.0474,301.5,117.0474,291.5,121.0474,295.5,117.0474" style="stroke:#0A9EFD;stroke-width:1.0;"/><line style="stroke:#0A9EFD;stroke-width:2.0;" x1="22.5" x2="297.5" y1="117.0474" y2="117.0474"/><text fill="#0A9EFD" font-family="Arial" font-size="13" lengthAdjust="spacing" textLength="99" x="113.5" y="112.2925">Start media push</text><polygon fill="#0A9EFD" points="570.5,141.9961,580.5,145.9961,570.5,149.9961,574.5,145.9961" style="stroke:#0A9EFD;stroke-width:1.0;"/><line style="stroke:#0A9EFD;stroke-width:2.0;" x1="303.5" x2="576.5" y1="145.9961" y2="145.9961"/><text fill="#0A9EFD" font-family="Arial" font-size="13" lengthAdjust="spacing" textLength="105" x="390.5" y="141.2412">Create a converter</text><polygon fill="#0A9EFD" points="314.5,170.9448,304.5,174.9448,314.5,178.9448,310.5,174.9448" style="stroke:#0A9EFD;stroke-width:1.0;"/><line style="stroke:#0A9EFD;stroke-width:2.0;" x1="308.5" x2="581.5" y1="174.9448" y2="174.9448"/><text fill="#0A9EFD" font-family="Arial" font-size="13" lengthAdjust="spacing" textLength="223" x="331.5" y="170.1899">Response confirming conveter creation</text><polygon fill="#0A9EFD" points="104.5,199.8936,94.5,203.8936,104.5,207.8936,100.5,203.8936" style="stroke:#0A9EFD;stroke-width:1.0;"/><line style="stroke:#0A9EFD;stroke-width:2.0;" x1="98.5" x2="581.5" y1="203.8936" y2="203.8936"/><text fill="#0A9EFD" font-family="Arial" font-size="13" lengthAdjust="spacing" textLength="250" x="213" y="199.1387">Notification eventType=1: Converter created</text><line style="stroke:#0A9EFD;stroke-width:2.0;" x1="93.5" x2="135.5" y1="232.8423" y2="232.8423"/><line style="stroke:#0A9EFD;stroke-width:2.0;" x1="135.5" x2="135.5" y1="232.8423" y2="245.8423"/><line style="stroke:#0A9EFD;stroke-width:2.0;" x1="94.5" x2="135.5" y1="245.8423" y2="245.8423"/><polygon fill="#0A9EFD" points="104.5,241.8423,94.5,245.8423,104.5,249.8423,100.5,245.8423" style="stroke:#0A9EFD;stroke-width:1.0;"/><text fill="#0A9EFD" font-family="Arial" font-size="13" lengthAdjust="spacing" textLength="196" x="100.5" y="228.0874">Authenticate notification signature</text><polygon fill="#0A9EFD" points="570.5,270.791,580.5,274.791,570.5,278.791,574.5,274.791" style="stroke:#0A9EFD;stroke-width:1.0;"/><line style="stroke:#0A9EFD;stroke-width:2.0;" x1="93.5" x2="576.5" y1="274.791" y2="274.791"/><text fill="#0A9EFD" font-family="Arial" font-size="13" lengthAdjust="spacing" textLength="44" x="316" y="270.0361">200 OK</text><polygon fill="#0A9EFD" points="291.5,299.7397,301.5,303.7397,291.5,307.7397,295.5,303.7397" style="stroke:#0A9EFD;stroke-width:1.0;"/><line style="stroke:#0A9EFD;stroke-width:2.0;" x1="22.5" x2="297.5" y1="303.7397" y2="303.7397"/><text fill="#0A9EFD" font-family="Arial" font-size="13" lengthAdjust="spacing" textLength="177" x="74.5" y="298.9849">Change converter configuration</text><polygon fill="#0A9EFD" points="570.5,328.6885,580.5,332.6885,570.5,336.6885,574.5,332.6885" style="stroke:#0A9EFD;stroke-width:1.0;"/><line style="stroke:#0A9EFD;stroke-width:2.0;" x1="303.5" x2="576.5" y1="332.6885" y2="332.6885"/><text fill="#0A9EFD" font-family="Arial" font-size="13" lengthAdjust="spacing" textLength="122" x="382" y="327.9336">Update converter API</text><polygon fill="#0A9EFD" points="314.5,357.6372,304.5,361.6372,314.5,365.6372,310.5,361.6372" style="stroke:#0A9EFD;stroke-width:1.0;"/><line style="stroke:#0A9EFD;stroke-width:2.0;" x1="308.5" x2="581.5" y1="361.6372" y2="361.6372"/><text fill="#0A9EFD" font-family="Arial" font-size="13" lengthAdjust="spacing" textLength="241" x="322.5" y="356.8823">Response confirming configuration update</text><polygon fill="#0A9EFD" points="104.5,386.5859,94.5,390.5859,104.5,394.5859,100.5,390.5859" style="stroke:#0A9EFD;stroke-width:1.0;"/><line style="stroke:#0A9EFD;stroke-width:2.0;" x1="98.5" x2="581.5" y1="390.5859" y2="390.5859"/><text fill="#0A9EFD" font-family="Arial" font-size="13" lengthAdjust="spacing" textLength="333" x="171.5" y="385.8311">Notification eventType=2: Converter configuration changed</text><line style="stroke:#0A9EFD;stroke-width:2.0;" x1="93.5" x2="135.5" y1="419.5347" y2="419.5347"/><line style="stroke:#0A9EFD;stroke-width:2.0;" x1="135.5" x2="135.5" y1="419.5347" y2="432.5347"/><line style="stroke:#0A9EFD;stroke-width:2.0;" x1="94.5" x2="135.5" y1="432.5347" y2="432.5347"/><polygon fill="#0A9EFD" points="104.5,428.5347,94.5,432.5347,104.5,436.5347,100.5,432.5347" style="stroke:#0A9EFD;stroke-width:1.0;"/><text fill="#0A9EFD" font-family="Arial" font-size="13" lengthAdjust="spacing" textLength="196" x="100.5" y="414.7798">Authenticate notification signature</text><polygon fill="#0A9EFD" points="570.5,457.4834,580.5,461.4834,570.5,465.4834,574.5,461.4834" style="stroke:#0A9EFD;stroke-width:1.0;"/><line style="stroke:#0A9EFD;stroke-width:2.0;" x1="93.5" x2="576.5" y1="461.4834" y2="461.4834"/><text fill="#0A9EFD" font-family="Arial" font-size="13" lengthAdjust="spacing" textLength="44" x="316" y="456.7285">200 OK</text><polygon fill="#0A9EFD" points="104.5,486.4321,94.5,490.4321,104.5,494.4321,100.5,490.4321" style="stroke:#0A9EFD;stroke-width:1.0;"/><line style="stroke:#0A9EFD;stroke-width:2.0;" x1="98.5" x2="581.5" y1="490.4321" y2="490.4321"/><text fill="#0A9EFD" font-family="Arial" font-size="13" lengthAdjust="spacing" textLength="296" x="190" y="485.6772">Notification eventType=3: Converter status changed</text><line style="stroke:#0A9EFD;stroke-width:2.0;" x1="93.5" x2="135.5" y1="519.3809" y2="519.3809"/><line style="stroke:#0A9EFD;stroke-width:2.0;" x1="135.5" x2="135.5" y1="519.3809" y2="532.3809"/><line style="stroke:#0A9EFD;stroke-width:2.0;" x1="94.5" x2="135.5" y1="532.3809" y2="532.3809"/><polygon fill="#0A9EFD" points="104.5,528.3809,94.5,532.3809,104.5,536.3809,100.5,532.3809" style="stroke:#0A9EFD;stroke-width:1.0;"/><text fill="#0A9EFD" font-family="Arial" font-size="13" lengthAdjust="spacing" textLength="196" x="100.5" y="514.626">Authenticate notification signature</text><polygon fill="#0A9EFD" points="570.5,557.3296,580.5,561.3296,570.5,565.3296,574.5,561.3296" style="stroke:#0A9EFD;stroke-width:1.0;"/><line style="stroke:#0A9EFD;stroke-width:2.0;" x1="93.5" x2="576.5" y1="561.3296" y2="561.3296"/><text fill="#0A9EFD" font-family="Arial" font-size="13" lengthAdjust="spacing" textLength="44" x="316" y="556.5747">200 OK</text><polygon fill="#0A9EFD" points="291.5,586.2783,301.5,590.2783,291.5,594.2783,295.5,590.2783" style="stroke:#0A9EFD;stroke-width:1.0;"/><line style="stroke:#0A9EFD;stroke-width:2.0;" x1="22.5" x2="297.5" y1="590.2783" y2="590.2783"/><text fill="#0A9EFD" font-family="Arial" font-size="13" lengthAdjust="spacing" textLength="98" x="114" y="585.5234">Stop media push</text><polygon fill="#0A9EFD" points="570.5,615.2271,580.5,619.2271,570.5,623.2271,574.5,619.2271" style="stroke:#0A9EFD;stroke-width:1.0;"/><line style="stroke:#0A9EFD;stroke-width:2.0;" x1="303.5" x2="576.5" y1="619.2271" y2="619.2271"/><text fill="#0A9EFD" font-family="Arial" font-size="13" lengthAdjust="spacing" textLength="118" x="384" y="614.4722">Delete converter API</text><polygon fill="#0A9EFD" points="314.5,644.1758,304.5,648.1758,314.5,652.1758,310.5,648.1758" style="stroke:#0A9EFD;stroke-width:1.0;"/><line style="stroke:#0A9EFD;stroke-width:2.0;" x1="308.5" x2="581.5" y1="648.1758" y2="648.1758"/><text fill="#0A9EFD" font-family="Arial" font-size="13" lengthAdjust="spacing" textLength="216" x="335" y="643.4209">Response confirming converter delete</text><polygon fill="#0A9EFD" points="104.5,673.1245,94.5,677.1245,104.5,681.1245,100.5,677.1245" style="stroke:#0A9EFD;stroke-width:1.0;"/><line style="stroke:#0A9EFD;stroke-width:2.0;" x1="98.5" x2="581.5" y1="677.1245" y2="677.1245"/><text fill="#0A9EFD" font-family="Arial" font-size="13" lengthAdjust="spacing" textLength="264" x="206" y="672.3696">Notification eventType=4: Converter destroyed</text><line style="stroke:#0A9EFD;stroke-width:2.0;" x1="93.5" x2="135.5" y1="706.0732" y2="706.0732"/><line style="stroke:#0A9EFD;stroke-width:2.0;" x1="135.5" x2="135.5" y1="706.0732" y2="719.0732"/><line style="stroke:#0A9EFD;stroke-width:2.0;" x1="94.5" x2="135.5" y1="719.0732" y2="719.0732"/><polygon fill="#0A9EFD" points="104.5,715.0732,94.5,719.0732,104.5,723.0732,100.5,719.0732" style="stroke:#0A9EFD;stroke-width:1.0;"/><text fill="#0A9EFD" font-family="Arial" font-size="13" lengthAdjust="spacing" textLength="196" x="100.5" y="701.3184">Authenticate notification signature</text><polygon fill="#0A9EFD" points="570.5,744.022,580.5,748.022,570.5,752.022,574.5,748.022" style="stroke:#0A9EFD;stroke-width:1.0;"/><line style="stroke:#0A9EFD;stroke-width:2.0;" x1="93.5" x2="576.5" y1="748.022" y2="748.022"/><text fill="#0A9EFD" font-family="Arial" font-size="13" lengthAdjust="spacing" textLength="44" x="316" y="743.2671">200 OK</text><!--SRC=[hL9RIyCm57xFhpZsVJAdJqE5Cb-6JClc546Gh3thWcqISXdRl_SqxMmh24Nsckz-o8MGQU4p19uhmp_jbv2NmfS5Opnroa2qjcWYu1RMgoLZ6tM0Q5xg0akK3ZFO7E6eVCGqDqwaGdFf87h33P1itoXNhyi-_gwy0QvrbnGd2KD9XkhGn2H6xKLMPyHLkryfuUr3BZ0J719lTxNFelMXoZ2whwodi7AaXJAGDP4PlGPmGU3C87Tq0qYLf48EJO1lHpMyHAkLj5Z1Ms5A8VEQIKH8AwrGaX6rCgIrKtXIJcn56W30FTtgvQZnxegYJWcr43D6WXzTxDsEo9KIGNPDhCWbTzxWYH-QJSPZU7valQMp7PSvjbFgrhatJStExhNEgg2M6YVp8SjRE_31OiZuIMzypoGDbSzpYW5DhhjDh2ClUzOA_N-dz5_VxW4B_C_v6tOMv4C6ttG7PsYTKSVpRFq6]--></g></svg>