<?xml version="1.0" encoding="UTF-8" standalone="no"?><svg xmlns="http://www.w3.org/2000/svg" xmlns:xlink="http://www.w3.org/1999/xlink" contentStyleType="text/css" height="736px" preserveAspectRatio="none" style="width:677px;height:736px;" version="1.1" viewBox="0 0 677 736" width="677px" zoomAndPan="magnify"><defs/><g><rect fill="none" height="734.5781" style="stroke:#0A9EFD;stroke-width:1.0;" width="675.5" x="0" y="0"/><rect fill="#F3F3F3" height="724.5781" style="stroke:#0A9EFD;stroke-width:0.5;" width="293" x="50" y="6"/><text fill="#000000" font-family="sans-serif" font-size="13" font-weight="bold" lengthAdjust="spacing" textLength="130" x="131.5" y="19.4951">Implemented by you</text><rect fill="#F3F3F3" height="724.5781" style="stroke:#0A9EFD;stroke-width:0.5;" width="124" x="547.5" y="6"/><text fill="#000000" font-family="sans-serif" font-size="13" font-weight="bold" lengthAdjust="spacing" textLength="118" x="550.5" y="19.4951">Provided by Agora</text><line style="stroke:#0A9EFD;stroke-width:0.5;stroke-dasharray:5.0,5.0;" x1="24" x2="24" y1="87.6094" y2="644.9688"/><line style="stroke:#0A9EFD;stroke-width:0.5;stroke-dasharray:5.0,5.0;" x1="102" x2="102" y1="87.6094" y2="644.9688"/><line style="stroke:#0A9EFD;stroke-width:0.5;stroke-dasharray:5.0,5.0;" x1="274" x2="274" y1="87.6094" y2="644.9688"/><line style="stroke:#0A9EFD;stroke-width:0.5;stroke-dasharray:5.0,5.0;" x1="609.5" x2="609.5" y1="87.6094" y2="644.9688"/><text fill="#0A9EFD" font-family="Roboto" font-size="14" font-weight="bold" lengthAdjust="spacing" textLength="33" x="5" y="84.5332">User</text><ellipse cx="24.5" cy="16" fill="none" rx="8" ry="8" style="stroke:#0A9EFD;stroke-width:3.0;"/><path d="M24.5,24 L24.5,51 M11.5,32 L37.5,32 M24.5,51 L11.5,66 M24.5,51 L37.5,66 " fill="none" style="stroke:#0A9EFD;stroke-width:3.0;"/><text fill="#0A9EFD" font-family="Roboto" font-size="14" font-weight="bold" lengthAdjust="spacing" textLength="33" x="5" y="658.502">User</text><ellipse cx="24.5" cy="672.5781" fill="none" rx="8" ry="8" style="stroke:#0A9EFD;stroke-width:3.0;"/><path d="M24.5,680.5781 L24.5,707.5781 M11.5,688.5781 L37.5,688.5781 M24.5,707.5781 L11.5,722.5781 M24.5,707.5781 L37.5,722.5781 " fill="none" style="stroke:#0A9EFD;stroke-width:3.0;"/><rect fill="#FFFFFF" height="31.6094" rx="2.5" ry="2.5" style="stroke:#0A9EFD;stroke-width:2.0;" width="96" x="54" y="55"/><text fill="#0A9EFD" font-family="Roboto" font-size="14" font-weight="bold" lengthAdjust="spacing" textLength="82" x="61" y="76.5332">Web server</text><rect fill="#FFFFFF" height="31.6094" rx="2.5" ry="2.5" style="stroke:#0A9EFD;stroke-width:2.0;" width="96" x="54" y="643.9688"/><text fill="#0A9EFD" font-family="Roboto" font-size="14" font-weight="bold" lengthAdjust="spacing" textLength="82" x="61" y="665.502">Web server</text><rect fill="#FFFFFF" height="31.6094" rx="2.5" ry="2.5" style="stroke:#0A9EFD;stroke-width:2.0;" width="129" x="210" y="55"/><text fill="#0A9EFD" font-family="Roboto" font-size="14" font-weight="bold" lengthAdjust="spacing" textLength="115" x="217" y="76.5332">Your app server</text><rect fill="#FFFFFF" height="31.6094" rx="2.5" ry="2.5" style="stroke:#0A9EFD;stroke-width:2.0;" width="129" x="210" y="643.9688"/><text fill="#0A9EFD" font-family="Roboto" font-size="14" font-weight="bold" lengthAdjust="spacing" textLength="115" x="217" y="665.502">Your app server</text><rect fill="#FFFFFF" height="49.2188" rx="2.5" ry="2.5" style="stroke:#0A9EFD;stroke-width:2.0;" width="96" x="561.5" y="37.3906"/><text fill="#0A9EFD" font-family="Roboto" font-size="14" font-weight="bold" lengthAdjust="spacing" textLength="41" x="589" y="58.9238">Agora</text><text fill="#0A9EFD" font-family="Roboto" font-size="14" font-weight="bold" lengthAdjust="spacing" textLength="82" x="568.5" y="76.5332">Media Push</text><rect fill="#FFFFFF" height="49.2188" rx="2.5" ry="2.5" style="stroke:#0A9EFD;stroke-width:2.0;" width="96" x="561.5" y="643.9688"/><text fill="#0A9EFD" font-family="Roboto" font-size="14" font-weight="bold" lengthAdjust="spacing" textLength="41" x="589" y="665.502">Agora</text><text fill="#0A9EFD" font-family="Roboto" font-size="14" font-weight="bold" lengthAdjust="spacing" textLength="82" x="568.5" y="683.1113">Media Push</text><polygon fill="#0A9EFD" points="262.5,117.2188,272.5,121.2188,262.5,125.2188,266.5,121.2188" style="stroke:#0A9EFD;stroke-width:1.0;"/><line style="stroke:#0A9EFD;stroke-width:2.0;" x1="24.5" x2="268.5" y1="121.2188" y2="121.2188"/><text fill="#0A9EFD" font-family="Roboto" font-size="14" font-weight="bold" lengthAdjust="spacing" textLength="118" x="90.5" y="116.1426">Start media push</text><polygon fill="#0A9EFD" points="597.5,148.8281,607.5,152.8281,597.5,156.8281,601.5,152.8281" style="stroke:#0A9EFD;stroke-width:1.0;"/><line style="stroke:#0A9EFD;stroke-width:2.0;" x1="274.5" x2="603.5" y1="152.8281" y2="152.8281"/><text fill="#0A9EFD" font-family="Roboto" font-size="14" font-weight="bold" lengthAdjust="spacing" textLength="133" x="375.5" y="147.752">Create a converter</text><polygon fill="#0A9EFD" points="285.5,180.4375,275.5,184.4375,285.5,188.4375,281.5,184.4375" style="stroke:#0A9EFD;stroke-width:1.0;"/><line style="stroke:#0A9EFD;stroke-width:2.0;" x1="279.5" x2="608.5" y1="184.4375" y2="184.4375"/><text fill="#0A9EFD" font-family="Roboto" font-size="14" font-weight="bold" lengthAdjust="spacing" textLength="280" x="302" y="179.3613">Response confirming conveter creation</text><polygon fill="#0A9EFD" points="113,212.0469,103,216.0469,113,220.0469,109,216.0469" style="stroke:#0A9EFD;stroke-width:1.0;"/><line style="stroke:#0A9EFD;stroke-width:2.0;" x1="107" x2="608.5" y1="216.0469" y2="216.0469"/><text fill="#0A9EFD" font-family="Roboto" font-size="14" font-weight="bold" lengthAdjust="spacing" textLength="312" x="199.75" y="210.9707">Notification eventType=1: Converter created</text><polygon fill="#0A9EFD" points="597.5,243.6563,607.5,247.6563,597.5,251.6563,601.5,247.6563" style="stroke:#0A9EFD;stroke-width:1.0;"/><line style="stroke:#0A9EFD;stroke-width:2.0;" x1="102" x2="603.5" y1="247.6563" y2="247.6563"/><text fill="#0A9EFD" font-family="Roboto" font-size="14" font-weight="bold" lengthAdjust="spacing" textLength="49" x="331.25" y="242.5801">200 OK</text><polygon fill="#0A9EFD" points="262.5,275.2656,272.5,279.2656,262.5,283.2656,266.5,279.2656" style="stroke:#0A9EFD;stroke-width:1.0;"/><line style="stroke:#0A9EFD;stroke-width:2.0;" x1="24.5" x2="268.5" y1="279.2656" y2="279.2656"/><text fill="#0A9EFD" font-family="Roboto" font-size="14" font-weight="bold" lengthAdjust="spacing" textLength="226" x="36.5" y="274.1895">Change converter configuration</text><polygon fill="#0A9EFD" points="597.5,306.875,607.5,310.875,597.5,314.875,601.5,310.875" style="stroke:#0A9EFD;stroke-width:1.0;"/><line style="stroke:#0A9EFD;stroke-width:2.0;" x1="274.5" x2="603.5" y1="310.875" y2="310.875"/><text fill="#0A9EFD" font-family="Roboto" font-size="14" font-weight="bold" lengthAdjust="spacing" textLength="150" x="367" y="305.7988">Update converter API</text><polygon fill="#0A9EFD" points="285.5,338.4844,275.5,342.4844,285.5,346.4844,281.5,342.4844" style="stroke:#0A9EFD;stroke-width:1.0;"/><line style="stroke:#0A9EFD;stroke-width:2.0;" x1="279.5" x2="608.5" y1="342.4844" y2="342.4844"/><text fill="#0A9EFD" font-family="Roboto" font-size="14" font-weight="bold" lengthAdjust="spacing" textLength="301" x="291.5" y="337.4082">Response confirming configuration update</text><polygon fill="#0A9EFD" points="113,370.0938,103,374.0938,113,378.0938,109,374.0938" style="stroke:#0A9EFD;stroke-width:1.0;"/><line style="stroke:#0A9EFD;stroke-width:2.0;" x1="107" x2="608.5" y1="374.0938" y2="374.0938"/><text fill="#0A9EFD" font-family="Roboto" font-size="14" font-weight="bold" lengthAdjust="spacing" textLength="417" x="147.25" y="369.0176">Notification eventType=2: Converter configuration changed</text><polygon fill="#0A9EFD" points="597.5,401.7031,607.5,405.7031,597.5,409.7031,601.5,405.7031" style="stroke:#0A9EFD;stroke-width:1.0;"/><line style="stroke:#0A9EFD;stroke-width:2.0;" x1="102" x2="603.5" y1="405.7031" y2="405.7031"/><text fill="#0A9EFD" font-family="Roboto" font-size="14" font-weight="bold" lengthAdjust="spacing" textLength="49" x="331.25" y="400.627">200 OK</text><polygon fill="#0A9EFD" points="113,433.3125,103,437.3125,113,441.3125,109,437.3125" style="stroke:#0A9EFD;stroke-width:1.0;"/><line style="stroke:#0A9EFD;stroke-width:2.0;" x1="107" x2="608.5" y1="437.3125" y2="437.3125"/><text fill="#0A9EFD" font-family="Roboto" font-size="14" font-weight="bold" lengthAdjust="spacing" textLength="366" x="172.75" y="432.2363">Notification eventType=3: Converter status changed</text><polygon fill="#0A9EFD" points="597.5,464.9219,607.5,468.9219,597.5,472.9219,601.5,468.9219" style="stroke:#0A9EFD;stroke-width:1.0;"/><line style="stroke:#0A9EFD;stroke-width:2.0;" x1="102" x2="603.5" y1="468.9219" y2="468.9219"/><text fill="#0A9EFD" font-family="Roboto" font-size="14" font-weight="bold" lengthAdjust="spacing" textLength="49" x="331.25" y="463.8457">200 OK</text><polygon fill="#0A9EFD" points="262.5,496.5313,272.5,500.5313,262.5,504.5313,266.5,500.5313" style="stroke:#0A9EFD;stroke-width:1.0;"/><line style="stroke:#0A9EFD;stroke-width:2.0;" x1="24.5" x2="268.5" y1="500.5313" y2="500.5313"/><text fill="#0A9EFD" font-family="Roboto" font-size="14" font-weight="bold" lengthAdjust="spacing" textLength="117" x="91" y="495.4551">Stop media push</text><polygon fill="#0A9EFD" points="597.5,528.1406,607.5,532.1406,597.5,536.1406,601.5,532.1406" style="stroke:#0A9EFD;stroke-width:1.0;"/><line style="stroke:#0A9EFD;stroke-width:2.0;" x1="274.5" x2="603.5" y1="532.1406" y2="532.1406"/><text fill="#0A9EFD" font-family="Roboto" font-size="14" font-weight="bold" lengthAdjust="spacing" textLength="146" x="369" y="527.0645">Delete converter API</text><polygon fill="#0A9EFD" points="285.5,559.75,275.5,563.75,285.5,567.75,281.5,563.75" style="stroke:#0A9EFD;stroke-width:1.0;"/><line style="stroke:#0A9EFD;stroke-width:2.0;" x1="279.5" x2="608.5" y1="563.75" y2="563.75"/><text fill="#0A9EFD" font-family="Roboto" font-size="14" font-weight="bold" lengthAdjust="spacing" textLength="273" x="305.5" y="558.6738">Response confirming converter delete</text><polygon fill="#0A9EFD" points="113,591.3594,103,595.3594,113,599.3594,109,595.3594" style="stroke:#0A9EFD;stroke-width:1.0;"/><line style="stroke:#0A9EFD;stroke-width:2.0;" x1="107" x2="608.5" y1="595.3594" y2="595.3594"/><text fill="#0A9EFD" font-family="Roboto" font-size="14" font-weight="bold" lengthAdjust="spacing" textLength="329" x="191.25" y="590.2832">Notification eventType=4: Converter destroyed</text><polygon fill="#0A9EFD" points="597.5,622.9688,607.5,626.9688,597.5,630.9688,601.5,626.9688" style="stroke:#0A9EFD;stroke-width:1.0;"/><line style="stroke:#0A9EFD;stroke-width:2.0;" x1="102" x2="603.5" y1="626.9688" y2="626.9688"/><text fill="#0A9EFD" font-family="Roboto" font-size="14" font-weight="bold" lengthAdjust="spacing" textLength="49" x="331.25" y="621.8926">200 OK</text><!--SRC=[dL5RIyCm57xFhpZsVJAdJqE5CL-6JClc546GB3dhWcqISXdhlpTDgsrbIl4rt_taJ4YMUuv0CsNek_qGybpu8YU4CgSC91kB9W5gORDU4R9LHqWMXSwnGEcGmxQ4Klc4Q6gSO49JwI1vmIq4sQ5HhfzNVVnLUGDKwovfbgO4PJ1KnoOcDUeWU9qngzhzI8blRtA9N518lTtNFilM9rI6qMrbFOMr2ree8ba7CWcl4Lm6S6wGkd03O4g6GWvDXAz7DRn2gvMqMC4xOGeXivePYC0ghL2I16fb6DPEuK4viHCi0e27SAkdKkFDHOZwIgY5o4aGV1UPZCVmU4zwpUTxAZDigzKjCc-QsCwEZURLZfOwInT3bhHsuAF5a36JtfYU2OkLJqyRu7pPTRQEEc__jEp_izA_VVCTvlYVypHi7kL31bnr1t2qpgZoTFTF]--></g></svg>