<?xml version="1.0" encoding="us-ascii" standalone="no"?><svg xmlns="http://www.w3.org/2000/svg" xmlns:xlink="http://www.w3.org/1999/xlink" contentStyleType="text/css" height="771px" preserveAspectRatio="none" style="width:643px;height:771px;" version="1.1" viewBox="0 0 643 771" width="643px" zoomAndPan="magnify"><defs/><g><rect fill="none" height="769.2231" style="stroke:#0A9EFD;stroke-width:1.0;" width="641" x="0" y="0"/><rect fill="#999999" fill-opacity="0.33333" height="759.2231" style="stroke:#0A9EFD;stroke-width:0.5;" width="319.5" x="46" y="6"/><text fill="#0A9EFD" font-family="sans-serif" font-size="13" font-weight="bold" lengthAdjust="spacing" textLength="130" x="140.75" y="19.4951">Implemented by you</text><rect fill="#999999" fill-opacity="0.33333" height="759.2231" style="stroke:#0A9EFD;stroke-width:0.5;" width="124" x="513" y="6"/><text fill="#0A9EFD" font-family="sans-serif" font-size="13" font-weight="bold" lengthAdjust="spacing" textLength="118" x="516" y="19.4951">Provided by Agora</text><line style="stroke:#0A9EFD;stroke-width:0.5;stroke-dasharray:5.0,5.0;" x1="22" x2="22" y1="86.0986" y2="681.1245"/><line style="stroke:#0A9EFD;stroke-width:0.5;stroke-dasharray:5.0,5.0;" x1="93" x2="93" y1="86.0986" y2="681.1245"/><line style="stroke:#0A9EFD;stroke-width:0.5;stroke-dasharray:5.0,5.0;" x1="303.5" x2="303.5" y1="86.0986" y2="681.1245"/><line style="stroke:#0A9EFD;stroke-width:0.5;stroke-dasharray:5.0,5.0;" x1="574.5" x2="574.5" y1="86.0986" y2="681.1245"/><text fill="#0A9EFD" font-family="Arial" font-size="14" lengthAdjust="spacing" textLength="29" x="5" y="83.1318">User</text><ellipse cx="22.5" cy="16" fill="none" rx="8" ry="8" style="stroke:#0A9EFD;stroke-width:3.0;"/><path d="M22.5,24 L22.5,51 M9.5,32 L35.5,32 M22.5,51 L9.5,66 M22.5,51 L35.5,66 " fill="none" style="stroke:#0A9EFD;stroke-width:3.0;"/><text fill="#0A9EFD" font-family="Arial" font-size="14" lengthAdjust="spacing" textLength="29" x="5" y="693.2563">User</text><ellipse cx="22.5" cy="707.2231" fill="none" rx="8" ry="8" style="stroke:#0A9EFD;stroke-width:3.0;"/><path d="M22.5,715.2231 L22.5,742.2231 M9.5,723.2231 L35.5,723.2231 M22.5,742.2231 L9.5,757.2231 M22.5,742.2231 L35.5,757.2231 " fill="none" style="stroke:#0A9EFD;stroke-width:3.0;"/><rect fill="none" height="30.0986" rx="2.5" ry="2.5" style="stroke:#0A9EFD;stroke-width:2.0;" width="87" x="50" y="55"/><text fill="#0A9EFD" font-family="Arial" font-size="14" lengthAdjust="spacing" textLength="73" x="57" y="75.1318">Web server</text><rect fill="none" height="30.0986" rx="2.5" ry="2.5" style="stroke:#0A9EFD;stroke-width:2.0;" width="87" x="50" y="680.1245"/><text fill="#0A9EFD" font-family="Arial" font-size="14" lengthAdjust="spacing" textLength="73" x="57" y="700.2563">Web server</text><rect fill="none" height="30.0986" rx="2.5" ry="2.5" style="stroke:#0A9EFD;stroke-width:2.0;" width="116" x="245.5" y="55"/><text fill="#0A9EFD" font-family="Arial" font-size="14" lengthAdjust="spacing" textLength="102" x="252.5" y="75.1318">Your app server</text><rect fill="none" height="30.0986" rx="2.5" ry="2.5" style="stroke:#0A9EFD;stroke-width:2.0;" width="116" x="245.5" y="680.1245"/><text fill="#0A9EFD" font-family="Arial" font-size="14" lengthAdjust="spacing" textLength="102" x="252.5" y="700.2563">Your app server</text><rect fill="none" height="46.1973" rx="2.5" ry="2.5" style="stroke:#0A9EFD;stroke-width:2.0;" width="79" x="535.5" y="38.9014"/><text fill="#0A9EFD" font-family="Arial" font-size="14" lengthAdjust="spacing" textLength="38" x="556" y="59.0332">Agora</text><text fill="#0A9EFD" font-family="Arial" font-size="14" lengthAdjust="spacing" textLength="65" x="542.5" y="75.1318">Media Pull</text><rect fill="none" height="46.1973" rx="2.5" ry="2.5" style="stroke:#0A9EFD;stroke-width:2.0;" width="79" x="535.5" y="680.1245"/><text fill="#0A9EFD" font-family="Arial" font-size="14" lengthAdjust="spacing" textLength="38" x="556" y="700.2563">Agora</text><text fill="#0A9EFD" font-family="Arial" font-size="14" lengthAdjust="spacing" textLength="65" x="542.5" y="716.355">Media Pull</text><polygon fill="#0A9EFD" points="291.5,127.9961,301.5,131.9961,291.5,135.9961,295.5,131.9961" style="stroke:#0A9EFD;stroke-width:1.0;"/><line style="stroke:#0A9EFD;stroke-width:2.0;" x1="22.5" x2="297.5" y1="131.9961" y2="131.9961"/><text fill="#0A9EFD" font-family="Arial" font-size="13" lengthAdjust="spacing" textLength="108" x="107" y="112.2925">Start pulling media</text><text fill="#0A9EFD" font-family="Arial" font-size="13" lengthAdjust="spacing" textLength="126" x="100" y="127.2412">into an Agora channel</text><polygon fill="#0A9EFD" points="563,156.9448,573,160.9448,563,164.9448,567,160.9448" style="stroke:#0A9EFD;stroke-width:1.0;"/><line style="stroke:#0A9EFD;stroke-width:2.0;" x1="303.5" x2="569" y1="160.9448" y2="160.9448"/><text fill="#0A9EFD" font-family="Arial" font-size="13" lengthAdjust="spacing" textLength="102" x="388.25" y="156.1899">Create player API</text><polygon fill="#0A9EFD" points="314.5,185.8936,304.5,189.8936,314.5,193.8936,310.5,189.8936" style="stroke:#0A9EFD;stroke-width:1.0;"/><line style="stroke:#0A9EFD;stroke-width:2.0;" x1="308.5" x2="574" y1="189.8936" y2="189.8936"/><text fill="#0A9EFD" font-family="Arial" font-size="13" lengthAdjust="spacing" textLength="229" x="324.75" y="185.1387">Response containing player parameters</text><polygon fill="#0A9EFD" points="104.5,214.8423,94.5,218.8423,104.5,222.8423,100.5,218.8423" style="stroke:#0A9EFD;stroke-width:1.0;"/><line style="stroke:#0A9EFD;stroke-width:2.0;" x1="98.5" x2="574" y1="218.8423" y2="218.8423"/><text fill="#0A9EFD" font-family="Arial" font-size="13" lengthAdjust="spacing" textLength="233" x="217.75" y="214.0874">Notification eventType=1: Player created</text><line style="stroke:#0A9EFD;stroke-width:2.0;" x1="93.5" x2="135.5" y1="247.791" y2="247.791"/><line style="stroke:#0A9EFD;stroke-width:2.0;" x1="135.5" x2="135.5" y1="247.791" y2="260.791"/><line style="stroke:#0A9EFD;stroke-width:2.0;" x1="94.5" x2="135.5" y1="260.791" y2="260.791"/><polygon fill="#0A9EFD" points="104.5,256.791,94.5,260.791,104.5,264.791,100.5,260.791" style="stroke:#0A9EFD;stroke-width:1.0;"/><text fill="#0A9EFD" font-family="Arial" font-size="13" lengthAdjust="spacing" textLength="196" x="100.5" y="243.0361">Authenticate notification signature</text><polygon fill="#0A9EFD" points="563,285.7397,573,289.7397,563,293.7397,567,289.7397" style="stroke:#0A9EFD;stroke-width:1.0;"/><line style="stroke:#0A9EFD;stroke-width:2.0;" x1="93.5" x2="569" y1="289.7397" y2="289.7397"/><text fill="#0A9EFD" font-family="Arial" font-size="13" lengthAdjust="spacing" textLength="44" x="312.25" y="284.9849">200 OK</text><polygon fill="#0A9EFD" points="291.5,314.6885,301.5,318.6885,291.5,322.6885,295.5,318.6885" style="stroke:#0A9EFD;stroke-width:1.0;"/><line style="stroke:#0A9EFD;stroke-width:2.0;" x1="22.5" x2="297.5" y1="318.6885" y2="318.6885"/><text fill="#0A9EFD" font-family="Arial" font-size="13" lengthAdjust="spacing" textLength="123" x="101.5" y="313.9336">Change player status</text><polygon fill="#0A9EFD" points="563,343.6372,573,347.6372,563,351.6372,567,347.6372" style="stroke:#0A9EFD;stroke-width:1.0;"/><line style="stroke:#0A9EFD;stroke-width:2.0;" x1="303.5" x2="569" y1="347.6372" y2="347.6372"/><text fill="#0A9EFD" font-family="Arial" font-size="13" lengthAdjust="spacing" textLength="105" x="386.75" y="342.8823">Update player API</text><polygon fill="#0A9EFD" points="314.5,372.5859,304.5,376.5859,314.5,380.5859,310.5,376.5859" style="stroke:#0A9EFD;stroke-width:1.0;"/><line style="stroke:#0A9EFD;stroke-width:2.0;" x1="308.5" x2="574" y1="376.5859" y2="376.5859"/><text fill="#0A9EFD" font-family="Arial" font-size="13" lengthAdjust="spacing" textLength="229" x="324.75" y="371.8311">Response containing player parameters</text><polygon fill="#0A9EFD" points="104.5,401.5347,94.5,405.5347,104.5,409.5347,100.5,405.5347" style="stroke:#0A9EFD;stroke-width:1.0;"/><line style="stroke:#0A9EFD;stroke-width:2.0;" x1="98.5" x2="574" y1="405.5347" y2="405.5347"/><text fill="#0A9EFD" font-family="Arial" font-size="13" lengthAdjust="spacing" textLength="279" x="194.75" y="400.7798">Notification eventType=4: Player status changed</text><line style="stroke:#0A9EFD;stroke-width:2.0;" x1="93.5" x2="135.5" y1="434.4834" y2="434.4834"/><line style="stroke:#0A9EFD;stroke-width:2.0;" x1="135.5" x2="135.5" y1="434.4834" y2="447.4834"/><line style="stroke:#0A9EFD;stroke-width:2.0;" x1="94.5" x2="135.5" y1="447.4834" y2="447.4834"/><polygon fill="#0A9EFD" points="104.5,443.4834,94.5,447.4834,104.5,451.4834,100.5,447.4834" style="stroke:#0A9EFD;stroke-width:1.0;"/><text fill="#0A9EFD" font-family="Arial" font-size="13" lengthAdjust="spacing" textLength="196" x="100.5" y="429.7285">Authenticate notification signature</text><polygon fill="#0A9EFD" points="563,472.4321,573,476.4321,563,480.4321,567,476.4321" style="stroke:#0A9EFD;stroke-width:1.0;"/><line style="stroke:#0A9EFD;stroke-width:2.0;" x1="93.5" x2="569" y1="476.4321" y2="476.4321"/><text fill="#0A9EFD" font-family="Arial" font-size="13" lengthAdjust="spacing" textLength="44" x="312.25" y="471.6772">200 OK</text><polygon fill="#0A9EFD" points="291.5,501.3809,301.5,505.3809,291.5,509.3809,295.5,505.3809" style="stroke:#0A9EFD;stroke-width:1.0;"/><line style="stroke:#0A9EFD;stroke-width:2.0;" x1="22.5" x2="297.5" y1="505.3809" y2="505.3809"/><text fill="#0A9EFD" font-family="Arial" font-size="13" lengthAdjust="spacing" textLength="111" x="107.5" y="500.626">Stop playing media</text><polygon fill="#0A9EFD" points="563,530.3296,573,534.3296,563,538.3296,567,534.3296" style="stroke:#0A9EFD;stroke-width:1.0;"/><line style="stroke:#0A9EFD;stroke-width:2.0;" x1="303.5" x2="569" y1="534.3296" y2="534.3296"/><text fill="#0A9EFD" font-family="Arial" font-size="13" lengthAdjust="spacing" textLength="101" x="388.75" y="529.5747">Delete player API</text><polygon fill="#0A9EFD" points="314.5,559.2783,304.5,563.2783,314.5,567.2783,310.5,563.2783" style="stroke:#0A9EFD;stroke-width:1.0;"/><line style="stroke:#0A9EFD;stroke-width:2.0;" x1="308.5" x2="574" y1="563.2783" y2="563.2783"/><text fill="#0A9EFD" font-family="Arial" font-size="13" lengthAdjust="spacing" textLength="199" x="339.75" y="558.5234">Response confirming player delete</text><polygon fill="#0A9EFD" points="104.5,588.2271,94.5,592.2271,104.5,596.2271,100.5,592.2271" style="stroke:#0A9EFD;stroke-width:1.0;"/><line style="stroke:#0A9EFD;stroke-width:2.0;" x1="98.5" x2="574" y1="592.2271" y2="592.2271"/><text fill="#0A9EFD" font-family="Arial" font-size="13" lengthAdjust="spacing" textLength="247" x="210.75" y="587.4722">Notification eventType=2: Player destroyed</text><line style="stroke:#0A9EFD;stroke-width:2.0;" x1="93.5" x2="135.5" y1="621.1758" y2="621.1758"/><line style="stroke:#0A9EFD;stroke-width:2.0;" x1="135.5" x2="135.5" y1="621.1758" y2="634.1758"/><line style="stroke:#0A9EFD;stroke-width:2.0;" x1="94.5" x2="135.5" y1="634.1758" y2="634.1758"/><polygon fill="#0A9EFD" points="104.5,630.1758,94.5,634.1758,104.5,638.1758,100.5,634.1758" style="stroke:#0A9EFD;stroke-width:1.0;"/><text fill="#0A9EFD" font-family="Arial" font-size="13" lengthAdjust="spacing" textLength="196" x="100.5" y="616.4209">Authenticate notification signature</text><polygon fill="#0A9EFD" points="563,659.1245,573,663.1245,563,667.1245,567,663.1245" style="stroke:#0A9EFD;stroke-width:1.0;"/><line style="stroke:#0A9EFD;stroke-width:2.0;" x1="93.5" x2="569" y1="663.1245" y2="663.1245"/><text fill="#0A9EFD" font-family="Arial" font-size="13" lengthAdjust="spacing" textLength="44" x="312.25" y="658.3696">200 OK</text><!--SRC=[lP71Ji9048Rl-nHZxnWadeYQ4BmGWpPKD2OaPkaEPMCxkzcT4lhsRhTOmHC7zThzlt_ccrveoijQ8SZ2EFdkFpHTwhegXP0v6mV9qgDBG7fOPWiXrcOFoQoo9LP8Z0hM3JIcJeILZdMkhII6v1NN4B3TWSnU5gVlRwPs8Aqz3atIL225GhC_Z4cTsMdLpPYqs_sO4h-jQ8vAIqZhiknwvjyzOMKOtBNLOyWui613J5C1LOHMf8aDIEhw8TzA8Yn5028t3zpKeMG4Mye6NQYQnTURGVUwG6yDUOJS44jDRVSX6dQL5J8wBqAqxGjt6CEZORtHkMHj270NhlZSMBoz6aFQSNaSg4H8zz2avcr8jXW27JTuNP3ask5NFgur6WxXwK6S760Qv8fUn7EW_8dfqgh_CBtkJRiTujMBFn3EsDYuOl_3JtJliSJpT3VQLKUwAeBdg8vwLOMUdMb-oV8J]--></g></svg>