<?xml version="1.0" encoding="UTF-8" standalone="no"?><svg xmlns="http://www.w3.org/2000/svg" xmlns:xlink="http://www.w3.org/1999/xlink" contentStyleType="text/css" height="717px" preserveAspectRatio="none" style="width:602px;height:717px;" version="1.1" viewBox="0 0 602 717" width="602px" zoomAndPan="magnify"><defs/><g><rect fill="none" height="715.5391" style="stroke:#0A9EFD;stroke-width:1.0;" width="600.5" x="0" y="0"/><rect fill="#F3F3F3" height="705.5391" style="stroke:#0A9EFD;stroke-width:0.5;" width="364" x="50" y="6"/><text fill="#000000" font-family="sans-serif" font-size="13" font-weight="bold" lengthAdjust="spacing" textLength="130" x="167" y="19.4951">Implemented by you</text><rect fill="#F3F3F3" height="705.5391" style="stroke:#0A9EFD;stroke-width:0.5;" width="140" x="456.5" y="6"/><text fill="#000000" font-family="sans-serif" font-size="13" font-weight="bold" lengthAdjust="spacing" textLength="118" x="467.5" y="19.4951">Provided by Agora</text><line style="stroke:#0A9EFD;stroke-width:0.5;stroke-dasharray:5.0,5.0;" x1="24" x2="24" y1="94.1797" y2="625.9297"/><line style="stroke:#0A9EFD;stroke-width:0.5;stroke-dasharray:5.0,5.0;" x1="102" x2="102" y1="94.1797" y2="625.9297"/><line style="stroke:#0A9EFD;stroke-width:0.5;stroke-dasharray:5.0,5.0;" x1="224" x2="224" y1="94.1797" y2="625.9297"/><line style="stroke:#0A9EFD;stroke-width:0.5;stroke-dasharray:5.0,5.0;" x1="354" x2="354" y1="94.1797" y2="625.9297"/><line style="stroke:#0A9EFD;stroke-width:0.5;stroke-dasharray:5.0,5.0;" x1="526.5" x2="526.5" y1="94.1797" y2="625.9297"/><text fill="#0A9EFD" font-family="Roboto" font-size="14" font-weight="bold" lengthAdjust="spacing" textLength="33" x="5" y="91.1035">User</text><ellipse cx="24.5" cy="22.5703" fill="none" rx="8" ry="8" style="stroke:#0A9EFD;stroke-width:3.0;"/><path d="M24.5,30.5703 L24.5,57.5703 M11.5,38.5703 L37.5,38.5703 M24.5,57.5703 L11.5,72.5703 M24.5,57.5703 L37.5,72.5703 " fill="none" style="stroke:#0A9EFD;stroke-width:3.0;"/><text fill="#0A9EFD" font-family="Roboto" font-size="14" font-weight="bold" lengthAdjust="spacing" textLength="33" x="5" y="639.4629">User</text><ellipse cx="24.5" cy="653.5391" fill="none" rx="8" ry="8" style="stroke:#0A9EFD;stroke-width:3.0;"/><path d="M24.5,661.5391 L24.5,688.5391 M11.5,669.5391 L37.5,669.5391 M24.5,688.5391 L11.5,703.5391 M24.5,688.5391 L37.5,703.5391 " fill="none" style="stroke:#0A9EFD;stroke-width:3.0;"/><rect fill="#FFFFFF" height="31.6094" rx="2.5" ry="2.5" style="stroke:#0A9EFD;stroke-width:2.0;" width="96" x="54" y="61.5703"/><text fill="#0A9EFD" font-family="Roboto" font-size="14" font-weight="bold" lengthAdjust="spacing" textLength="82" x="61" y="83.1035">Web server</text><rect fill="#FFFFFF" height="31.6094" rx="2.5" ry="2.5" style="stroke:#0A9EFD;stroke-width:2.0;" width="96" x="54" y="624.9297"/><text fill="#0A9EFD" font-family="Roboto" font-size="14" font-weight="bold" lengthAdjust="spacing" textLength="82" x="61" y="646.4629">Web server</text><rect fill="#FFFFFF" height="31.6094" rx="2.5" ry="2.5" style="stroke:#0A9EFD;stroke-width:2.0;" width="129" x="160" y="61.5703"/><text fill="#0A9EFD" font-family="Roboto" font-size="14" font-weight="bold" lengthAdjust="spacing" textLength="115" x="167" y="83.1035">Your app server</text><rect fill="#FFFFFF" height="31.6094" rx="2.5" ry="2.5" style="stroke:#0A9EFD;stroke-width:2.0;" width="129" x="160" y="624.9297"/><text fill="#0A9EFD" font-family="Roboto" font-size="14" font-weight="bold" lengthAdjust="spacing" textLength="115" x="167" y="646.4629">Your app server</text><rect fill="#FFFFFF" height="66.8281" rx="2.5" ry="2.5" style="stroke:#0A9EFD;stroke-width:2.0;" width="111" x="299" y="26.3516"/><text fill="#0A9EFD" font-family="Roboto" font-size="14" font-weight="bold" lengthAdjust="spacing" textLength="34" x="337.5" y="47.8848">Your</text><text fill="#0A9EFD" font-family="Roboto" font-size="14" font-weight="bold" lengthAdjust="spacing" textLength="73" x="318" y="65.4941">third-party</text><text fill="#0A9EFD" font-family="Roboto" font-size="14" font-weight="bold" lengthAdjust="spacing" textLength="97" x="306" y="83.1035">cloud storage</text><rect fill="#FFFFFF" height="66.8281" rx="2.5" ry="2.5" style="stroke:#0A9EFD;stroke-width:2.0;" width="111" x="299" y="624.9297"/><text fill="#0A9EFD" font-family="Roboto" font-size="14" font-weight="bold" lengthAdjust="spacing" textLength="34" x="337.5" y="646.4629">Your</text><text fill="#0A9EFD" font-family="Roboto" font-size="14" font-weight="bold" lengthAdjust="spacing" textLength="73" x="318" y="664.0723">third-party</text><text fill="#0A9EFD" font-family="Roboto" font-size="14" font-weight="bold" lengthAdjust="spacing" textLength="97" x="306" y="681.6816">cloud storage</text><rect fill="#FFFFFF" height="49.2188" rx="2.5" ry="2.5" style="stroke:#0A9EFD;stroke-width:2.0;" width="132" x="460.5" y="43.9609"/><text fill="#0A9EFD" font-family="Roboto" font-size="14" font-weight="bold" lengthAdjust="spacing" textLength="41" x="506" y="65.4941">Agora</text><text fill="#0A9EFD" font-family="Roboto" font-size="14" font-weight="bold" lengthAdjust="spacing" textLength="118" x="467.5" y="83.1035">Cloud Recording</text><rect fill="#FFFFFF" height="49.2188" rx="2.5" ry="2.5" style="stroke:#0A9EFD;stroke-width:2.0;" width="132" x="460.5" y="624.9297"/><text fill="#0A9EFD" font-family="Roboto" font-size="14" font-weight="bold" lengthAdjust="spacing" textLength="41" x="506" y="646.4629">Agora</text><text fill="#0A9EFD" font-family="Roboto" font-size="14" font-weight="bold" lengthAdjust="spacing" textLength="118" x="467.5" y="664.0723">Cloud Recording</text><polygon fill="#0A9EFD" points="212.5,123.7891,222.5,127.7891,212.5,131.7891,216.5,127.7891" style="stroke:#0A9EFD;stroke-width:1.0;"/><line style="stroke:#0A9EFD;stroke-width:2.0;" x1="24.5" x2="218.5" y1="127.7891" y2="127.7891"/><text fill="#0A9EFD" font-family="Roboto" font-size="14" font-weight="bold" lengthAdjust="spacing" textLength="106" x="71.5" y="122.7129">Start recording</text><polygon fill="#0A9EFD" points="514.5,155.3984,524.5,159.3984,514.5,163.3984,518.5,159.3984" style="stroke:#0A9EFD;stroke-width:1.0;"/><line style="stroke:#0A9EFD;stroke-width:2.0;" x1="224.5" x2="520.5" y1="159.3984" y2="159.3984"/><text fill="#0A9EFD" font-family="Roboto" font-size="14" font-weight="bold" lengthAdjust="spacing" textLength="174" x="288.5" y="154.3223">Get recording resources</text><polygon fill="#0A9EFD" points="235.5,187.0078,225.5,191.0078,235.5,195.0078,231.5,191.0078" style="stroke:#0A9EFD;stroke-width:1.0;"/><line style="stroke:#0A9EFD;stroke-width:2.0;" x1="229.5" x2="525.5" y1="191.0078" y2="191.0078"/><text fill="#0A9EFD" font-family="Roboto" font-size="14" font-weight="bold" lengthAdjust="spacing" textLength="82" x="334.5" y="185.9316">resource ID</text><polygon fill="#0A9EFD" points="514.5,218.6172,524.5,222.6172,514.5,226.6172,518.5,222.6172" style="stroke:#0A9EFD;stroke-width:1.0;"/><line style="stroke:#0A9EFD;stroke-width:2.0;" x1="224.5" x2="520.5" y1="222.6172" y2="222.6172"/><text fill="#0A9EFD" font-family="Roboto" font-size="14" font-weight="bold" lengthAdjust="spacing" textLength="106" x="322.5" y="217.541">Start recording</text><polygon fill="#0A9EFD" points="113,250.2266,103,254.2266,113,258.2266,109,254.2266" style="stroke:#0A9EFD;stroke-width:1.0;"/><line style="stroke:#0A9EFD;stroke-width:2.0;" x1="107" x2="525.5" y1="254.2266" y2="254.2266"/><text fill="#0A9EFD" font-family="Roboto" font-size="14" font-weight="bold" lengthAdjust="spacing" textLength="301" x="163.75" y="249.1504">Notification 40: `recorder_started` &lt;status&gt;</text><polygon fill="#0A9EFD" points="514.5,281.8359,524.5,285.8359,514.5,289.8359,518.5,285.8359" style="stroke:#0A9EFD;stroke-width:1.0;"/><line style="stroke:#0A9EFD;stroke-width:2.0;" x1="102" x2="520.5" y1="285.8359" y2="285.8359"/><text fill="#0A9EFD" font-family="Roboto" font-size="14" font-weight="bold" lengthAdjust="spacing" textLength="49" x="289.75" y="280.7598">200 OK</text><path d="M125,298.8359 L125,325.8359 L584,325.8359 L584,308.8359 L574,298.8359 L125,298.8359 " fill="#FFFFFF" style="stroke:#181818;stroke-width:1.0;"/><path d="M574,298.8359 L574,308.8359 L584,308.8359 L574,298.8359 " fill="#FFFFFF" style="stroke:#181818;stroke-width:1.0;"/><text fill="#0A9EFD" font-family="Roboto" font-size="14" font-weight="bold" lengthAdjust="spacing" textLength="429" x="140" y="318.3691">Notifications sent and acknowledged for all recording events</text><polygon fill="#0A9EFD" points="212.5,351.0547,222.5,355.0547,212.5,359.0547,216.5,355.0547" style="stroke:#0A9EFD;stroke-width:1.0;"/><line style="stroke:#0A9EFD;stroke-width:2.0;" x1="24.5" x2="218.5" y1="355.0547" y2="355.0547"/><text fill="#0A9EFD" font-family="Roboto" font-size="14" font-weight="bold" lengthAdjust="spacing" textLength="105" x="72" y="349.9785">Stop recording</text><polygon fill="#0A9EFD" points="514.5,382.6641,524.5,386.6641,514.5,390.6641,518.5,386.6641" style="stroke:#0A9EFD;stroke-width:1.0;"/><line style="stroke:#0A9EFD;stroke-width:2.0;" x1="224.5" x2="520.5" y1="386.6641" y2="386.6641"/><text fill="#0A9EFD" font-family="Roboto" font-size="14" font-weight="bold" lengthAdjust="spacing" textLength="100" x="325.5" y="381.5879">End recording</text><polygon fill="#0A9EFD" points="113,414.2734,103,418.2734,113,422.2734,109,418.2734" style="stroke:#0A9EFD;stroke-width:1.0;"/><line style="stroke:#0A9EFD;stroke-width:2.0;" x1="107" x2="525.5" y1="418.2734" y2="418.2734"/><text fill="#0A9EFD" font-family="Roboto" font-size="14" font-weight="bold" lengthAdjust="spacing" textLength="302" x="163.25" y="413.1973">Notification 30: `uploader_started` &lt;status&gt;</text><polygon fill="#0A9EFD" points="514.5,445.8828,524.5,449.8828,514.5,453.8828,518.5,449.8828" style="stroke:#0A9EFD;stroke-width:1.0;"/><line style="stroke:#0A9EFD;stroke-width:2.0;" x1="102" x2="520.5" y1="449.8828" y2="449.8828"/><text fill="#0A9EFD" font-family="Roboto" font-size="14" font-weight="bold" lengthAdjust="spacing" textLength="49" x="289.75" y="444.8066">200 OK</text><polygon fill="#0A9EFD" points="365.5,477.4922,355.5,481.4922,365.5,485.4922,361.5,481.4922" style="stroke:#0A9EFD;stroke-width:1.0;"/><line style="stroke:#0A9EFD;stroke-width:2.0;" x1="359.5" x2="525.5" y1="481.4922" y2="481.4922"/><text fill="#0A9EFD" font-family="Roboto" font-size="14" font-weight="bold" lengthAdjust="spacing" textLength="148" x="366.5" y="476.416">Upload recording file</text><polygon fill="#0A9EFD" points="113,509.1016,103,513.1016,113,517.1016,109,513.1016" style="stroke:#0A9EFD;stroke-width:1.0;"/><line style="stroke:#0A9EFD;stroke-width:2.0;" x1="107" x2="525.5" y1="513.1016" y2="513.1016"/><text fill="#0A9EFD" font-family="Roboto" font-size="14" font-weight="bold" lengthAdjust="spacing" textLength="247" x="190.75" y="508.0254">Notification 31: `uploaded` &lt;status&gt;</text><polygon fill="#0A9EFD" points="514.5,540.7109,524.5,544.7109,514.5,548.7109,518.5,544.7109" style="stroke:#0A9EFD;stroke-width:1.0;"/><line style="stroke:#0A9EFD;stroke-width:2.0;" x1="102" x2="520.5" y1="544.7109" y2="544.7109"/><text fill="#0A9EFD" font-family="Roboto" font-size="14" font-weight="bold" lengthAdjust="spacing" textLength="49" x="289.75" y="539.6348">200 OK</text><polygon fill="#0A9EFD" points="113,572.3203,103,576.3203,113,580.3203,109,576.3203" style="stroke:#0A9EFD;stroke-width:1.0;"/><line style="stroke:#0A9EFD;stroke-width:2.0;" x1="107" x2="525.5" y1="576.3203" y2="576.3203"/><text fill="#0A9EFD" font-family="Roboto" font-size="14" font-weight="bold" lengthAdjust="spacing" textLength="297" x="165.75" y="571.2441">Notification 11: `session_exit` &lt;exitStatus&gt;</text><polygon fill="#0A9EFD" points="514.5,603.9297,524.5,607.9297,514.5,611.9297,518.5,607.9297" style="stroke:#0A9EFD;stroke-width:1.0;"/><line style="stroke:#0A9EFD;stroke-width:2.0;" x1="102" x2="520.5" y1="607.9297" y2="607.9297"/><text fill="#0A9EFD" font-family="Roboto" font-size="14" font-weight="bold" lengthAdjust="spacing" textLength="49" x="289.75" y="602.8535">200 OK</text><!--SRC=[ZL5TQy8m57tFhxZhkqEtFHKHf8uX6vjKt1W86fjh5un9ILAd_twthHzLwRQdfhddd7lEoOtKYSe50a-DvJEtalfMvcl564-yiH1C7De0k8F9E6PiOROG3DUPmZLgZm8MEzYPF60PjrucCkFQG_212o3QPiySlyVdyq-JM-1PLWVrHwDhq5JxBsb5gnZifkJKv08S-U8fbgpePS1GamsptPiRMREHedBMBp9TU2llfZegfM9CZ1LIfvM5A3wAKLfezGfN8Omz2O0zO1bTbhCe3k49QnCwENATe2intLQ5ETp2S736lTADofrKLmYlnikbJBYNHiD3EuHvXKCxSmKDnHowTFAvwp5Y74NlscruUsRQU0H3vHOLdSivgfsQu9IK9ojjlXMAb0fRqdDpfMfnS4D0Tz65oHggU2J1qwGvpNsH9i-KuVzEizSgeqnAPitbKYhyPLldjEsFBSqYdKB4eNFqCyEjz2HKVCRDOZy0]--></g></svg>