<?xml version="1.0" encoding="UTF-8" standalone="no"?><svg xmlns="http://www.w3.org/2000/svg" xmlns:xlink="http://www.w3.org/1999/xlink" contentStyleType="text/css" height="824px" preserveAspectRatio="none" style="width:745px;height:824px;" version="1.1" viewBox="0 0 745 824" width="745px" zoomAndPan="magnify"><defs/><g><rect fill="none" height="822.7969" style="stroke:#0A9EFD;stroke-width:1.0;" width="743.5" x="0" y="0"/><rect fill="#F3F3F3" height="812.7969" style="stroke:#0A9EFD;stroke-width:0.5;" width="377.5" x="50" y="6"/><text fill="#000000" font-family="sans-serif" font-size="13" font-weight="bold" lengthAdjust="spacing" textLength="130" x="173.75" y="19.4951">Implemented by you</text><rect fill="#F3F3F3" height="812.7969" style="stroke:#0A9EFD;stroke-width:0.5;" width="124" x="615.5" y="6"/><text fill="#000000" font-family="sans-serif" font-size="13" font-weight="bold" lengthAdjust="spacing" textLength="118" x="618.5" y="19.4951">Provided by Agora</text><line style="stroke:#0A9EFD;stroke-width:0.5;stroke-dasharray:5.0,5.0;" x1="24" x2="24" y1="87.6094" y2="733.1875"/><line style="stroke:#0A9EFD;stroke-width:0.5;stroke-dasharray:5.0,5.0;" x1="102" x2="102" y1="87.6094" y2="733.1875"/><line style="stroke:#0A9EFD;stroke-width:0.5;stroke-dasharray:5.0,5.0;" x1="358.5" x2="358.5" y1="87.6094" y2="733.1875"/><line style="stroke:#0A9EFD;stroke-width:0.5;stroke-dasharray:5.0,5.0;" x1="677" x2="677" y1="87.6094" y2="733.1875"/><text fill="#0A9EFD" font-family="Roboto" font-size="14" font-weight="bold" lengthAdjust="spacing" textLength="33" x="5" y="84.5332">User</text><ellipse cx="24.5" cy="16" fill="none" rx="8" ry="8" style="stroke:#0A9EFD;stroke-width:3.0;"/><path d="M24.5,24 L24.5,51 M11.5,32 L37.5,32 M24.5,51 L11.5,66 M24.5,51 L37.5,66 " fill="none" style="stroke:#0A9EFD;stroke-width:3.0;"/><text fill="#0A9EFD" font-family="Roboto" font-size="14" font-weight="bold" lengthAdjust="spacing" textLength="33" x="5" y="746.7207">User</text><ellipse cx="24.5" cy="760.7969" fill="none" rx="8" ry="8" style="stroke:#0A9EFD;stroke-width:3.0;"/><path d="M24.5,768.7969 L24.5,795.7969 M11.5,776.7969 L37.5,776.7969 M24.5,795.7969 L11.5,810.7969 M24.5,795.7969 L37.5,810.7969 " fill="none" style="stroke:#0A9EFD;stroke-width:3.0;"/><rect fill="#FFFFFF" height="31.6094" rx="2.5" ry="2.5" style="stroke:#0A9EFD;stroke-width:2.0;" width="96" x="54" y="55"/><text fill="#0A9EFD" font-family="Roboto" font-size="14" font-weight="bold" lengthAdjust="spacing" textLength="82" x="61" y="76.5332">Web server</text><rect fill="#FFFFFF" height="31.6094" rx="2.5" ry="2.5" style="stroke:#0A9EFD;stroke-width:2.0;" width="96" x="54" y="732.1875"/><text fill="#0A9EFD" font-family="Roboto" font-size="14" font-weight="bold" lengthAdjust="spacing" textLength="82" x="61" y="753.7207">Web server</text><rect fill="#FFFFFF" height="31.6094" rx="2.5" ry="2.5" style="stroke:#0A9EFD;stroke-width:2.0;" width="129" x="294.5" y="55"/><text fill="#0A9EFD" font-family="Roboto" font-size="14" font-weight="bold" lengthAdjust="spacing" textLength="115" x="301.5" y="76.5332">Your app server</text><rect fill="#FFFFFF" height="31.6094" rx="2.5" ry="2.5" style="stroke:#0A9EFD;stroke-width:2.0;" width="129" x="294.5" y="732.1875"/><text fill="#0A9EFD" font-family="Roboto" font-size="14" font-weight="bold" lengthAdjust="spacing" textLength="115" x="301.5" y="753.7207">Your app server</text><rect fill="#FFFFFF" height="49.2188" rx="2.5" ry="2.5" style="stroke:#0A9EFD;stroke-width:2.0;" width="87" x="634" y="37.3906"/><text fill="#0A9EFD" font-family="Roboto" font-size="14" font-weight="bold" lengthAdjust="spacing" textLength="41" x="657" y="58.9238">Agora</text><text fill="#0A9EFD" font-family="Roboto" font-size="14" font-weight="bold" lengthAdjust="spacing" textLength="73" x="641" y="76.5332">Media Pull</text><rect fill="#FFFFFF" height="49.2188" rx="2.5" ry="2.5" style="stroke:#0A9EFD;stroke-width:2.0;" width="87" x="634" y="732.1875"/><text fill="#0A9EFD" font-family="Roboto" font-size="14" font-weight="bold" lengthAdjust="spacing" textLength="41" x="657" y="753.7207">Agora</text><text fill="#0A9EFD" font-family="Roboto" font-size="14" font-weight="bold" lengthAdjust="spacing" textLength="73" x="641" y="771.3301">Media Pull</text><polygon fill="#0A9EFD" points="347,134.8281,357,138.8281,347,142.8281,351,138.8281" style="stroke:#0A9EFD;stroke-width:1.0;"/><line style="stroke:#0A9EFD;stroke-width:2.0;" x1="24.5" x2="353" y1="138.8281" y2="138.8281"/><text fill="#0A9EFD" font-family="Roboto" font-size="14" font-weight="bold" lengthAdjust="spacing" textLength="131" x="124.25" y="116.1426">Start pulling media</text><text fill="#0A9EFD" font-family="Roboto" font-size="14" font-weight="bold" lengthAdjust="spacing" textLength="153" x="115.25" y="133.752">into an Agora channel</text><polygon fill="#0A9EFD" points="665.5,166.4375,675.5,170.4375,665.5,174.4375,669.5,170.4375" style="stroke:#0A9EFD;stroke-width:1.0;"/><line style="stroke:#0A9EFD;stroke-width:2.0;" x1="359" x2="671.5" y1="170.4375" y2="170.4375"/><text fill="#0A9EFD" font-family="Roboto" font-size="14" font-weight="bold" lengthAdjust="spacing" textLength="120" x="458.25" y="165.3613">Create player API</text><polygon fill="#0A9EFD" points="370,198.0469,360,202.0469,370,206.0469,366,202.0469" style="stroke:#0A9EFD;stroke-width:1.0;"/><line style="stroke:#0A9EFD;stroke-width:2.0;" x1="364" x2="676.5" y1="202.0469" y2="202.0469"/><text fill="#0A9EFD" font-family="Roboto" font-size="14" font-weight="bold" lengthAdjust="spacing" textLength="280" x="378.25" y="196.9707">Response containing player parameters</text><polygon fill="#0A9EFD" points="113,229.6563,103,233.6563,113,237.6563,109,233.6563" style="stroke:#0A9EFD;stroke-width:1.0;"/><line style="stroke:#0A9EFD;stroke-width:2.0;" x1="107" x2="676.5" y1="233.6563" y2="233.6563"/><text fill="#0A9EFD" font-family="Roboto" font-size="14" font-weight="bold" lengthAdjust="spacing" textLength="283" x="248.25" y="228.5801">Notification eventType=1: Player created</text><line style="stroke:#0A9EFD;stroke-width:2.0;" x1="102" x2="144" y1="265.2656" y2="265.2656"/><line style="stroke:#0A9EFD;stroke-width:2.0;" x1="144" x2="144" y1="265.2656" y2="278.2656"/><line style="stroke:#0A9EFD;stroke-width:2.0;" x1="103" x2="144" y1="278.2656" y2="278.2656"/><polygon fill="#0A9EFD" points="113,274.2656,103,278.2656,113,282.2656,109,278.2656" style="stroke:#0A9EFD;stroke-width:1.0;"/><text fill="#0A9EFD" font-family="Roboto" font-size="14" font-weight="bold" lengthAdjust="spacing" textLength="243" x="109" y="260.1895">Authenticate notification signature</text><polygon fill="#0A9EFD" points="665.5,305.875,675.5,309.875,665.5,313.875,669.5,309.875" style="stroke:#0A9EFD;stroke-width:1.0;"/><line style="stroke:#0A9EFD;stroke-width:2.0;" x1="102" x2="671.5" y1="309.875" y2="309.875"/><text fill="#0A9EFD" font-family="Roboto" font-size="14" font-weight="bold" lengthAdjust="spacing" textLength="49" x="365.25" y="304.7988">200 OK</text><polygon fill="#0A9EFD" points="347,337.4844,357,341.4844,347,345.4844,351,341.4844" style="stroke:#0A9EFD;stroke-width:1.0;"/><line style="stroke:#0A9EFD;stroke-width:2.0;" x1="24.5" x2="353" y1="341.4844" y2="341.4844"/><text fill="#0A9EFD" font-family="Roboto" font-size="14" font-weight="bold" lengthAdjust="spacing" textLength="148" x="117.75" y="336.4082">Change player status</text><polygon fill="#0A9EFD" points="665.5,369.0938,675.5,373.0938,665.5,377.0938,669.5,373.0938" style="stroke:#0A9EFD;stroke-width:1.0;"/><line style="stroke:#0A9EFD;stroke-width:2.0;" x1="359" x2="671.5" y1="373.0938" y2="373.0938"/><text fill="#0A9EFD" font-family="Roboto" font-size="14" font-weight="bold" lengthAdjust="spacing" textLength="123" x="456.75" y="368.0176">Update player API</text><polygon fill="#0A9EFD" points="370,400.7031,360,404.7031,370,408.7031,366,404.7031" style="stroke:#0A9EFD;stroke-width:1.0;"/><line style="stroke:#0A9EFD;stroke-width:2.0;" x1="364" x2="676.5" y1="404.7031" y2="404.7031"/><text fill="#0A9EFD" font-family="Roboto" font-size="14" font-weight="bold" lengthAdjust="spacing" textLength="280" x="378.25" y="399.627">Response containing player parameters</text><polygon fill="#0A9EFD" points="113,432.3125,103,436.3125,113,440.3125,109,436.3125" style="stroke:#0A9EFD;stroke-width:1.0;"/><line style="stroke:#0A9EFD;stroke-width:2.0;" x1="107" x2="676.5" y1="436.3125" y2="436.3125"/><text fill="#0A9EFD" font-family="Roboto" font-size="14" font-weight="bold" lengthAdjust="spacing" textLength="337" x="221.25" y="431.2363">Notification eventType=4: Player status changed</text><line style="stroke:#0A9EFD;stroke-width:2.0;" x1="102" x2="144" y1="467.9219" y2="467.9219"/><line style="stroke:#0A9EFD;stroke-width:2.0;" x1="144" x2="144" y1="467.9219" y2="480.9219"/><line style="stroke:#0A9EFD;stroke-width:2.0;" x1="103" x2="144" y1="480.9219" y2="480.9219"/><polygon fill="#0A9EFD" points="113,476.9219,103,480.9219,113,484.9219,109,480.9219" style="stroke:#0A9EFD;stroke-width:1.0;"/><text fill="#0A9EFD" font-family="Roboto" font-size="14" font-weight="bold" lengthAdjust="spacing" textLength="243" x="109" y="462.8457">Authenticate notification signature</text><polygon fill="#0A9EFD" points="665.5,508.5313,675.5,512.5313,665.5,516.5313,669.5,512.5313" style="stroke:#0A9EFD;stroke-width:1.0;"/><line style="stroke:#0A9EFD;stroke-width:2.0;" x1="102" x2="671.5" y1="512.5313" y2="512.5313"/><text fill="#0A9EFD" font-family="Roboto" font-size="14" font-weight="bold" lengthAdjust="spacing" textLength="49" x="365.25" y="507.4551">200 OK</text><polygon fill="#0A9EFD" points="347,540.1406,357,544.1406,347,548.1406,351,544.1406" style="stroke:#0A9EFD;stroke-width:1.0;"/><line style="stroke:#0A9EFD;stroke-width:2.0;" x1="24.5" x2="353" y1="544.1406" y2="544.1406"/><text fill="#0A9EFD" font-family="Roboto" font-size="14" font-weight="bold" lengthAdjust="spacing" textLength="132" x="125.75" y="539.0645">Stop playing media</text><polygon fill="#0A9EFD" points="665.5,571.75,675.5,575.75,665.5,579.75,669.5,575.75" style="stroke:#0A9EFD;stroke-width:1.0;"/><line style="stroke:#0A9EFD;stroke-width:2.0;" x1="359" x2="671.5" y1="575.75" y2="575.75"/><text fill="#0A9EFD" font-family="Roboto" font-size="14" font-weight="bold" lengthAdjust="spacing" textLength="119" x="458.75" y="570.6738">Delete player API</text><polygon fill="#0A9EFD" points="370,603.3594,360,607.3594,370,611.3594,366,607.3594" style="stroke:#0A9EFD;stroke-width:1.0;"/><line style="stroke:#0A9EFD;stroke-width:2.0;" x1="364" x2="676.5" y1="607.3594" y2="607.3594"/><text fill="#0A9EFD" font-family="Roboto" font-size="14" font-weight="bold" lengthAdjust="spacing" textLength="246" x="395.25" y="602.2832">Response confirming player delete</text><polygon fill="#0A9EFD" points="113,634.9688,103,638.9688,113,642.9688,109,638.9688" style="stroke:#0A9EFD;stroke-width:1.0;"/><line style="stroke:#0A9EFD;stroke-width:2.0;" x1="107" x2="676.5" y1="638.9688" y2="638.9688"/><text fill="#0A9EFD" font-family="Roboto" font-size="14" font-weight="bold" lengthAdjust="spacing" textLength="300" x="239.75" y="633.8926">Notification eventType=2: Player destroyed</text><line style="stroke:#0A9EFD;stroke-width:2.0;" x1="102" x2="144" y1="670.5781" y2="670.5781"/><line style="stroke:#0A9EFD;stroke-width:2.0;" x1="144" x2="144" y1="670.5781" y2="683.5781"/><line style="stroke:#0A9EFD;stroke-width:2.0;" x1="103" x2="144" y1="683.5781" y2="683.5781"/><polygon fill="#0A9EFD" points="113,679.5781,103,683.5781,113,687.5781,109,683.5781" style="stroke:#0A9EFD;stroke-width:1.0;"/><text fill="#0A9EFD" font-family="Roboto" font-size="14" font-weight="bold" lengthAdjust="spacing" textLength="243" x="109" y="665.502">Authenticate notification signature</text><polygon fill="#0A9EFD" points="665.5,711.1875,675.5,715.1875,665.5,719.1875,669.5,715.1875" style="stroke:#0A9EFD;stroke-width:1.0;"/><line style="stroke:#0A9EFD;stroke-width:2.0;" x1="102" x2="671.5" y1="715.1875" y2="715.1875"/><text fill="#0A9EFD" font-family="Roboto" font-size="14" font-weight="bold" lengthAdjust="spacing" textLength="49" x="365.25" y="710.1113">200 OK</text><!--SRC=[lP71Ji9048Rl-nHZxnWadeYQ4BmGWpPKD2OaPkaEPMCxkzcT4lhsRhTOmHC7zThzlt_ccrveoijQ8SZ2EFdkFpHTwhegXP0v6mV9qgDBG7fOPWiXrcOFoQoo9LP8Z0hM3JIcJeILZdMkhII6v1NN4B3TWSnU5gVlRwPs8Aqz3atIL225GhC_Z4cTsMdLpPYqs_sO4h-jQ8vAIqZhiknwvjyzOMKOtBNLOyWui613J5C1LOHMf8aDIEhw8TzA8Yn5028t3zpKeMG4Mye6NQYQnTURGVUwG6yDUOJS44jDRVSX6dQL5J8wBqAqxGjt6CEZORtHkMHj270NhlZSMBoz6aFQSNaSg4H8zz2avcr8jXW27JTuNP3ask5NFgur6WxXwK6S760Qv8fUn7EW_8dfqgh_CBtkJRiTujMBFn3EsDYuOl_3JtJliSJpT3VQLKUwAeBdg8vwLOMUdMb-oV8J]--></g></svg>