<?xml version="1.0" encoding="us-ascii" standalone="no"?><svg xmlns="http://www.w3.org/2000/svg" xmlns:xlink="http://www.w3.org/1999/xlink" contentStyleType="text/css" height="597px" preserveAspectRatio="none" style="width:733px;height:597px;background:#FFFFFF;" version="1.1" viewBox="0 0 733 597" width="733px" zoomAndPan="magnify"><defs><style type="text/css">@import url('https://fonts.googleapis.com/css?family=Roboto:400,100,100italic,300,300italic,400italic,500,500italic,700,700italic,900,900italic');</style></defs><g><rect fill="none" height="595.3008" style="stroke:#0A9EFD;stroke-width:1.0;" width="731.5" x="0" y="0"/><rect fill="#F3F3F3" height="585.3008" style="stroke:#0A9EFD;stroke-width:0.5;" width="153" x="49" y="6"/><text fill="#0A9EFD" font-family="sans-serif" font-size="13" font-weight="bold" lengthAdjust="spacing" textLength="140" x="55.5" y="18.5684">Implemented by you</text><rect fill="#F3F3F3" height="585.3008" style="stroke:#0A9EFD;stroke-width:0.5;" width="132" x="328" y="6"/><text fill="#0A9EFD" font-family="sans-serif" font-size="13" font-weight="bold" lengthAdjust="spacing" textLength="126" x="331" y="18.5684">Provided by Agora</text><rect fill="#F3F3F3" height="585.3008" style="stroke:#0A9EFD;stroke-width:0.5;" width="172" x="511.5" y="6"/><text fill="#0A9EFD" font-family="sans-serif" font-size="13" font-weight="bold" lengthAdjust="spacing" textLength="166" x="514.5" y="18.5684">Provided by ActiveFence</text><line style="stroke:#0A9EFD;stroke-width:0.5;stroke-dasharray:5.0,5.0;" x1="24" x2="24" y1="86.4883" y2="506.8125"/><line style="stroke:#0A9EFD;stroke-width:0.5;stroke-dasharray:5.0,5.0;" x1="99" x2="99" y1="86.4883" y2="506.8125"/><line style="stroke:#0A9EFD;stroke-width:0.5;stroke-dasharray:5.0,5.0;" x1="177" x2="177" y1="86.4883" y2="506.8125"/><line style="stroke:#0A9EFD;stroke-width:0.5;stroke-dasharray:5.0,5.0;" x1="393.5" x2="393.5" y1="86.4883" y2="506.8125"/><line style="stroke:#0A9EFD;stroke-width:0.5;stroke-dasharray:5.0,5.0;" x1="597.5" x2="597.5" y1="86.4883" y2="506.8125"/><text fill="#0A9EFD" font-family="Roboto" font-size="14" font-weight="bold" lengthAdjust="spacing" textLength="32" x="5" y="83.5352">User</text><ellipse cx="24" cy="16" fill="none" rx="8" ry="8" style="stroke:#0A9EFD;stroke-width:3.0;"/><path d="M24,24 L24,51 M11,32 L37,32 M24,51 L11,66 M24,51 L37,66 " fill="none" style="stroke:#0A9EFD;stroke-width:3.0;"/><text fill="#0A9EFD" font-family="Roboto" font-size="14" font-weight="bold" lengthAdjust="spacing" textLength="32" x="5" y="519.3477">User</text><ellipse cx="24" cy="533.3008" fill="none" rx="8" ry="8" style="stroke:#0A9EFD;stroke-width:3.0;"/><path d="M24,541.3008 L24,568.3008 M11,549.3008 L37,549.3008 M24,568.3008 L11,583.3008 M24,568.3008 L37,583.3008 " fill="none" style="stroke:#0A9EFD;stroke-width:3.0;"/><rect fill="#FFFFFF" height="30.4883" rx="2.5" ry="2.5" style="stroke:#0A9EFD;stroke-width:2.0;" width="93" x="53" y="55"/><text fill="#0A9EFD" font-family="Roboto" font-size="14" font-weight="bold" lengthAdjust="spacing" textLength="79" x="60" y="75.5352">Web server</text><rect fill="#FFFFFF" height="30.4883" rx="2.5" ry="2.5" style="stroke:#0A9EFD;stroke-width:2.0;" width="93" x="53" y="505.8125"/><text fill="#0A9EFD" font-family="Roboto" font-size="14" font-weight="bold" lengthAdjust="spacing" textLength="79" x="60" y="526.3477">Web server</text><rect fill="#FFFFFF" height="30.4883" rx="2.5" ry="2.5" style="stroke:#0A9EFD;stroke-width:2.0;" width="42" x="156" y="55"/><text fill="#0A9EFD" font-family="Roboto" font-size="14" font-weight="bold" lengthAdjust="spacing" textLength="28" x="163" y="75.5352">App</text><rect fill="#FFFFFF" height="30.4883" rx="2.5" ry="2.5" style="stroke:#0A9EFD;stroke-width:2.0;" width="42" x="156" y="505.8125"/><text fill="#0A9EFD" font-family="Roboto" font-size="14" font-weight="bold" lengthAdjust="spacing" textLength="28" x="163" y="526.3477">App</text><rect fill="#FFFFFF" height="30.4883" rx="2.5" ry="2.5" style="stroke:#0A9EFD;stroke-width:2.0;" width="73" x="357.5" y="55"/><text fill="#0A9EFD" font-family="Roboto" font-size="14" font-weight="bold" lengthAdjust="spacing" textLength="59" x="364.5" y="75.5352">SD-RTN</text><rect fill="#FFFFFF" height="30.4883" rx="2.5" ry="2.5" style="stroke:#0A9EFD;stroke-width:2.0;" width="73" x="357.5" y="505.8125"/><text fill="#0A9EFD" font-family="Roboto" font-size="14" font-weight="bold" lengthAdjust="spacing" textLength="59" x="364.5" y="526.3477">SD-RTN</text><rect fill="#FFFFFF" height="30.4883" rx="2.5" ry="2.5" style="stroke:#0A9EFD;stroke-width:2.0;" width="98" x="548.5" y="55"/><text fill="#0A9EFD" font-family="Roboto" font-size="14" font-weight="bold" lengthAdjust="spacing" textLength="84" x="555.5" y="75.5352">ActiveFence</text><rect fill="#FFFFFF" height="30.4883" rx="2.5" ry="2.5" style="stroke:#0A9EFD;stroke-width:2.0;" width="98" x="548.5" y="505.8125"/><text fill="#0A9EFD" font-family="Roboto" font-size="14" font-weight="bold" lengthAdjust="spacing" textLength="84" x="555.5" y="526.3477">ActiveFence</text><polygon fill="#0A9EFD" points="165,114.9766,175,118.9766,165,122.9766,169,118.9766" style="stroke:#0A9EFD;stroke-width:1.0;"/><line style="stroke:#0A9EFD;stroke-width:2.0;" x1="24" x2="171" y1="118.9766" y2="118.9766"/><text fill="#0A9EFD" font-family="Roboto" font-size="14" font-weight="bold" lengthAdjust="spacing" textLength="40" x="80.5" y="114.0234">Login</text><polygon fill="#0A9EFD" points="188,145.4648,178,149.4648,188,153.4648,184,149.4648" style="stroke:#0A9EFD;stroke-width:1.0;"/><polygon fill="#0A9EFD" points="382,145.4648,392,149.4648,382,153.4648,386,149.4648" style="stroke:#0A9EFD;stroke-width:1.0;"/><line style="stroke:#0A9EFD;stroke-width:2.0;" x1="182" x2="388" y1="149.4648" y2="149.4648"/><text fill="#0A9EFD" font-family="Roboto" font-size="14" font-weight="bold" lengthAdjust="spacing" textLength="149" x="211" y="144.5117">Login authentication</text><polygon fill="#0A9EFD" points="165,175.9531,175,179.9531,165,183.9531,169,179.9531" style="stroke:#0A9EFD;stroke-width:1.0;"/><line style="stroke:#0A9EFD;stroke-width:2.0;" x1="24" x2="171" y1="179.9531" y2="179.9531"/><text fill="#0A9EFD" font-family="Roboto" font-size="14" font-weight="bold" lengthAdjust="spacing" textLength="89" x="56" y="175">Join channel</text><polygon fill="#0A9EFD" points="382,222.9297,392,226.9297,382,230.9297,386,226.9297" style="stroke:#0A9EFD;stroke-width:1.0;"/><line style="stroke:#0A9EFD;stroke-width:2.0;" x1="177" x2="388" y1="226.9297" y2="226.9297"/><text fill="#0A9EFD" font-family="Roboto" font-size="14" font-weight="bold" lengthAdjust="spacing" textLength="126" x="220" y="205.4883">Join channel with</text><text fill="#0A9EFD" font-family="Roboto" font-size="14" font-weight="bold" lengthAdjust="spacing" textLength="154" x="211" y="221.9766">ActiveFence activated</text><polygon fill="#0A9EFD" points="405,269.9063,395,273.9063,405,277.9063,401,273.9063" style="stroke:#0A9EFD;stroke-width:1.0;"/><polygon fill="#0A9EFD" points="585.5,269.9063,595.5,273.9063,585.5,277.9063,589.5,273.9063" style="stroke:#0A9EFD;stroke-width:1.0;"/><line style="stroke:#0A9EFD;stroke-width:2.0;" x1="399" x2="591.5" y1="273.9063" y2="273.9063"/><text fill="#0A9EFD" font-family="Roboto" font-size="14" font-weight="bold" lengthAdjust="spacing" textLength="116" x="435.25" y="252.4648">Monitor content</text><text fill="#0A9EFD" font-family="Roboto" font-size="14" font-weight="bold" lengthAdjust="spacing" textLength="74" x="458.75" y="268.9531">in channel</text><line style="stroke:#0A9EFD;stroke-width:2.0;" x1="597.5" x2="639.5" y1="320.8828" y2="320.8828"/><line style="stroke:#0A9EFD;stroke-width:2.0;" x1="639.5" x2="639.5" y1="320.8828" y2="333.8828"/><line style="stroke:#0A9EFD;stroke-width:2.0;" x1="598.5" x2="639.5" y1="333.8828" y2="333.8828"/><polygon fill="#0A9EFD" points="608.5,329.8828,598.5,333.8828,608.5,337.8828,604.5,333.8828" style="stroke:#0A9EFD;stroke-width:1.0;"/><text fill="#0A9EFD" font-family="Roboto" font-size="14" font-weight="bold" lengthAdjust="spacing" textLength="122" x="604.5" y="299.4414">Content matches</text><text fill="#0A9EFD" font-family="Roboto" font-size="14" font-weight="bold" lengthAdjust="spacing" textLength="101" x="617.5" y="315.9297">workflow risk</text><polygon fill="#0A9EFD" points="110.5,360.3711,100.5,364.3711,110.5,368.3711,106.5,364.3711" style="stroke:#0A9EFD;stroke-width:1.0;"/><line style="stroke:#0A9EFD;stroke-width:2.0;" x1="104.5" x2="596.5" y1="364.3711" y2="364.3711"/><text fill="#0A9EFD" font-family="Roboto" font-size="14" font-weight="bold" lengthAdjust="spacing" textLength="116" x="290.5" y="359.418">Action webhook</text><polygon fill="#0A9EFD" points="382,423.8359,392,427.8359,382,431.8359,386,427.8359" style="stroke:#0A9EFD;stroke-width:1.0;"/><line style="stroke:#0A9EFD;stroke-width:2.0;" x1="99.5" x2="388" y1="427.8359" y2="427.8359"/><text fill="#0A9EFD" font-family="Roboto" font-size="14" font-weight="bold" lengthAdjust="spacing" textLength="245" x="124.25" y="389.9063">Act on webhook. For example, use</text><text fill="#0A9EFD" font-family="Roboto" font-size="14" font-weight="bold" lengthAdjust="spacing" textLength="225" x="136.75" y="406.3945">Channel Management REST API</text><text fill="#0A9EFD" font-family="Roboto" font-size="14" font-weight="bold" lengthAdjust="spacing" textLength="209" x="144.75" y="422.8828">to remove user from channel</text><polygon fill="#0A9EFD" points="188,454.3242,178,458.3242,188,462.3242,184,458.3242" style="stroke:#0A9EFD;stroke-width:1.0;"/><line style="stroke:#0A9EFD;stroke-width:2.0;" x1="182" x2="393" y1="458.3242" y2="458.3242"/><text fill="#0A9EFD" font-family="Roboto" font-size="14" font-weight="bold" lengthAdjust="spacing" textLength="91" x="240" y="453.3711">Log user out</text><polygon fill="#0A9EFD" points="35,484.8125,25,488.8125,35,492.8125,31,488.8125" style="stroke:#0A9EFD;stroke-width:1.0;"/><line style="stroke:#0A9EFD;stroke-width:2.0;" x1="29" x2="176" y1="488.8125" y2="488.8125"/><text fill="#0A9EFD" font-family="Roboto" font-size="14" font-weight="bold" lengthAdjust="spacing" textLength="50" x="75.5" y="483.8594">Logout</text><!--SRC=[VLB1Ri8m3BtdAxoU1zpHD0cnLUeq9jJ2Ta6QqjJGg6rSfMc1lvzJobOux1Rv-Jq_F-T16rMs6S9qEkjqXZHfic8c3sJbTrDeCzLjLGeXbICBmRP16u1iO9l4GgHqWY2gwX8hD0upICzmfZOGjRHEArrBuo3umXIOrWtCv3E-nHTrtGEBzLgWOH4w3T9hIzvIhxlmZkwKavT9lFaOoD5_PELqXo4QXNSIOwJN2VzaU4UOF7jVStYdWpQ2d_3KbwAX1B9rEI-lbNIQp2tfZRX1vT8OB7lkbJe6uAXT3ZipDWdIloL7ohJeCZASmugCzcTGn6cp-vqPwuSmj2q7k99EvTYmz95iiI_f25OtnT39TvZtCubnJ7EYGd3jroD3y0TD8UJ1U9B-se_GDiYoos63bJJoqFy1Y5-JZUSpwWWiLjIXxxQmjrIDmeZ6qLuwg7NNb3Z57l0byGC0]--></g></svg>