<?xml version="1.0" encoding="us-ascii" standalone="no"?><svg xmlns="http://www.w3.org/2000/svg" xmlns:xlink="http://www.w3.org/1999/xlink" contentStyleType="text/css" height="573px" preserveAspectRatio="none" style="width:646px;height:573px;" version="1.1" viewBox="0 0 646 573" width="646px" zoomAndPan="magnify"><defs/><g><rect fill="none" height="571.4282" style="stroke:#0A9EFD;stroke-width:1.0;" width="644.5" x="0" y="0"/><rect fill="#999999" fill-opacity="0.33333" height="561.4282" style="stroke:#0A9EFD;stroke-width:0.5;" width="146" x="47" y="6"/><text fill="#0A9EFD" font-family="sans-serif" font-size="13" font-weight="bold" lengthAdjust="spacing" textLength="140" x="50" y="18.5684">Implemented by you</text><rect fill="#999999" fill-opacity="0.33333" height="561.4282" style="stroke:#0A9EFD;stroke-width:0.5;" width="132" x="287.5" y="6"/><text fill="#0A9EFD" font-family="sans-serif" font-size="13" font-weight="bold" lengthAdjust="spacing" textLength="126" x="290.5" y="18.5684">Provided by Agora</text><rect fill="#999999" fill-opacity="0.33333" height="561.4282" style="stroke:#0A9EFD;stroke-width:0.5;" width="172" x="447.5" y="6"/><text fill="#0A9EFD" font-family="sans-serif" font-size="13" font-weight="bold" lengthAdjust="spacing" textLength="166" x="450.5" y="18.5684">Provided by ActiveFence</text><line style="stroke:#0A9EFD;stroke-width:0.5;stroke-dasharray:5.0,5.0;" x1="23" x2="23" y1="86.0986" y2="483.3296"/><line style="stroke:#0A9EFD;stroke-width:0.5;stroke-dasharray:5.0,5.0;" x1="95" x2="95" y1="86.0986" y2="483.3296"/><line style="stroke:#0A9EFD;stroke-width:0.5;stroke-dasharray:5.0,5.0;" x1="168" x2="168" y1="86.0986" y2="483.3296"/><line style="stroke:#0A9EFD;stroke-width:0.5;stroke-dasharray:5.0,5.0;" x1="353.5" x2="353.5" y1="86.0986" y2="483.3296"/><line style="stroke:#0A9EFD;stroke-width:0.5;stroke-dasharray:5.0,5.0;" x1="533.5" x2="533.5" y1="86.0986" y2="483.3296"/><text fill="#0A9EFD" font-family="Arial" font-size="14" lengthAdjust="spacing" textLength="30" x="5" y="83.1318">User</text><ellipse cx="23" cy="16" fill="none" rx="8" ry="8" style="stroke:#0A9EFD;stroke-width:3.0;"/><path d="M23,24 L23,51 M10,32 L36,32 M23,51 L10,66 M23,51 L36,66 " fill="none" style="stroke:#0A9EFD;stroke-width:3.0;"/><text fill="#0A9EFD" font-family="Arial" font-size="14" lengthAdjust="spacing" textLength="30" x="5" y="495.4614">User</text><ellipse cx="23" cy="509.4282" fill="none" rx="8" ry="8" style="stroke:#0A9EFD;stroke-width:3.0;"/><path d="M23,517.4282 L23,544.4282 M10,525.4282 L36,525.4282 M23,544.4282 L10,559.4282 M23,544.4282 L36,559.4282 " fill="none" style="stroke:#0A9EFD;stroke-width:3.0;"/><rect fill="none" height="30.0986" rx="2.5" ry="2.5" style="stroke:#0A9EFD;stroke-width:2.0;" width="87" x="52" y="55"/><text fill="#0A9EFD" font-family="Arial" font-size="14" lengthAdjust="spacing" textLength="73" x="59" y="75.1318">Web server</text><rect fill="none" height="30.0986" rx="2.5" ry="2.5" style="stroke:#0A9EFD;stroke-width:2.0;" width="87" x="52" y="482.3296"/><text fill="#0A9EFD" font-family="Arial" font-size="14" lengthAdjust="spacing" textLength="73" x="59" y="502.4614">Web server</text><rect fill="none" height="30.0986" rx="2.5" ry="2.5" style="stroke:#0A9EFD;stroke-width:2.0;" width="39" x="149" y="55"/><text fill="#0A9EFD" font-family="Arial" font-size="14" lengthAdjust="spacing" textLength="25" x="156" y="75.1318">App</text><rect fill="none" height="30.0986" rx="2.5" ry="2.5" style="stroke:#0A9EFD;stroke-width:2.0;" width="39" x="149" y="482.3296"/><text fill="#0A9EFD" font-family="Arial" font-size="14" lengthAdjust="spacing" textLength="25" x="156" y="502.4614">App</text><rect fill="none" height="30.0986" rx="2.5" ry="2.5" style="stroke:#0A9EFD;stroke-width:2.0;" width="72" x="317.5" y="55"/><text fill="#0A9EFD" font-family="Arial" font-size="14" lengthAdjust="spacing" textLength="58" x="324.5" y="75.1318">SDRTN&#174;</text><rect fill="none" height="30.0986" rx="2.5" ry="2.5" style="stroke:#0A9EFD;stroke-width:2.0;" width="72" x="317.5" y="482.3296"/><text fill="#0A9EFD" font-family="Arial" font-size="14" lengthAdjust="spacing" textLength="58" x="324.5" y="502.4614">SDRTN&#174;</text><rect fill="none" height="30.0986" rx="2.5" ry="2.5" style="stroke:#0A9EFD;stroke-width:2.0;" width="92" x="487.5" y="55"/><text fill="#0A9EFD" font-family="Arial" font-size="14" lengthAdjust="spacing" textLength="78" x="494.5" y="75.1318">ActiveFence</text><rect fill="none" height="30.0986" rx="2.5" ry="2.5" style="stroke:#0A9EFD;stroke-width:2.0;" width="92" x="487.5" y="482.3296"/><text fill="#0A9EFD" font-family="Arial" font-size="14" lengthAdjust="spacing" textLength="78" x="494.5" y="502.4614">ActiveFence</text><polygon fill="#0A9EFD" points="156.5,113.0474,166.5,117.0474,156.5,121.0474,160.5,117.0474" style="stroke:#0A9EFD;stroke-width:1.0;"/><line style="stroke:#0A9EFD;stroke-width:2.0;" x1="23" x2="162.5" y1="117.0474" y2="117.0474"/><text fill="#0A9EFD" font-family="Arial" font-size="13" lengthAdjust="spacing" textLength="31" x="80.25" y="112.2925">Login</text><polygon fill="#0A9EFD" points="179.5,141.9961,169.5,145.9961,179.5,149.9961,175.5,145.9961" style="stroke:#0A9EFD;stroke-width:1.0;"/><polygon fill="#0A9EFD" points="341.5,141.9961,351.5,145.9961,341.5,149.9961,345.5,145.9961" style="stroke:#0A9EFD;stroke-width:1.0;"/><line style="stroke:#0A9EFD;stroke-width:2.0;" x1="173.5" x2="347.5" y1="145.9961" y2="145.9961"/><text fill="#0A9EFD" font-family="Arial" font-size="13" lengthAdjust="spacing" textLength="116" x="203" y="141.2412">Login authentication</text><polygon fill="#0A9EFD" points="156.5,170.9448,166.5,174.9448,156.5,178.9448,160.5,174.9448" style="stroke:#0A9EFD;stroke-width:1.0;"/><line style="stroke:#0A9EFD;stroke-width:2.0;" x1="23" x2="162.5" y1="174.9448" y2="174.9448"/><text fill="#0A9EFD" font-family="Arial" font-size="13" lengthAdjust="spacing" textLength="73" x="59.25" y="170.1899">Join channel</text><polygon fill="#0A9EFD" points="341.5,214.8423,351.5,218.8423,341.5,222.8423,345.5,218.8423" style="stroke:#0A9EFD;stroke-width:1.0;"/><line style="stroke:#0A9EFD;stroke-width:2.0;" x1="168.5" x2="347.5" y1="218.8423" y2="218.8423"/><text fill="#0A9EFD" font-family="Arial" font-size="13" lengthAdjust="spacing" textLength="100" x="209" y="199.1387">Join channel with</text><text fill="#0A9EFD" font-family="Arial" font-size="13" lengthAdjust="spacing" textLength="130" x="198" y="214.0874">ActiveFence activated</text><polygon fill="#0A9EFD" points="364.5,258.7397,354.5,262.7397,364.5,266.7397,360.5,262.7397" style="stroke:#0A9EFD;stroke-width:1.0;"/><polygon fill="#0A9EFD" points="521.5,258.7397,531.5,262.7397,521.5,266.7397,525.5,262.7397" style="stroke:#0A9EFD;stroke-width:1.0;"/><line style="stroke:#0A9EFD;stroke-width:2.0;" x1="358.5" x2="527.5" y1="262.7397" y2="262.7397"/><text fill="#0A9EFD" font-family="Arial" font-size="13" lengthAdjust="spacing" textLength="90" x="396.5" y="243.0361">Monitor content</text><text fill="#0A9EFD" font-family="Arial" font-size="13" lengthAdjust="spacing" textLength="59" x="414" y="257.9849">in channel</text><line style="stroke:#0A9EFD;stroke-width:2.0;" x1="533.5" x2="575.5" y1="306.6372" y2="306.6372"/><line style="stroke:#0A9EFD;stroke-width:2.0;" x1="575.5" x2="575.5" y1="306.6372" y2="319.6372"/><line style="stroke:#0A9EFD;stroke-width:2.0;" x1="534.5" x2="575.5" y1="319.6372" y2="319.6372"/><polygon fill="#0A9EFD" points="544.5,315.6372,534.5,319.6372,544.5,323.6372,540.5,319.6372" style="stroke:#0A9EFD;stroke-width:1.0;"/><text fill="#0A9EFD" font-family="Arial" font-size="13" lengthAdjust="spacing" textLength="99" x="540.5" y="286.9336">Content matches</text><text fill="#0A9EFD" font-family="Arial" font-size="13" lengthAdjust="spacing" textLength="75" x="554.5" y="301.8823">workflow risk</text><polygon fill="#0A9EFD" points="106.5,344.5859,96.5,348.5859,106.5,352.5859,102.5,348.5859" style="stroke:#0A9EFD;stroke-width:1.0;"/><line style="stroke:#0A9EFD;stroke-width:2.0;" x1="100.5" x2="532.5" y1="348.5859" y2="348.5859"/><text fill="#0A9EFD" font-family="Arial" font-size="13" lengthAdjust="spacing" textLength="92" x="268.5" y="343.8311">Action webhook</text><polygon fill="#0A9EFD" points="341.5,403.4321,351.5,407.4321,341.5,411.4321,345.5,407.4321" style="stroke:#0A9EFD;stroke-width:1.0;"/><line style="stroke:#0A9EFD;stroke-width:2.0;" x1="95.5" x2="347.5" y1="407.4321" y2="407.4321"/><text fill="#0A9EFD" font-family="Arial" font-size="13" lengthAdjust="spacing" textLength="202" x="123.5" y="372.7798">Act on webhook. For example, use</text><text fill="#0A9EFD" font-family="Arial" font-size="13" lengthAdjust="spacing" textLength="191" x="131" y="387.7285">Channel Management REST API</text><text fill="#0A9EFD" font-family="Arial" font-size="13" lengthAdjust="spacing" textLength="166" x="143.5" y="402.6772">to remove user from channel</text><polygon fill="#0A9EFD" points="179.5,432.3809,169.5,436.3809,179.5,440.3809,175.5,436.3809" style="stroke:#0A9EFD;stroke-width:1.0;"/><line style="stroke:#0A9EFD;stroke-width:2.0;" x1="173.5" x2="352.5" y1="436.3809" y2="436.3809"/><text fill="#0A9EFD" font-family="Arial" font-size="13" lengthAdjust="spacing" textLength="72" x="225" y="431.626">Log user out</text><polygon fill="#0A9EFD" points="34,461.3296,24,465.3296,34,469.3296,30,465.3296" style="stroke:#0A9EFD;stroke-width:1.0;"/><line style="stroke:#0A9EFD;stroke-width:2.0;" x1="28" x2="167.5" y1="465.3296" y2="465.3296"/><text fill="#0A9EFD" font-family="Arial" font-size="13" lengthAdjust="spacing" textLength="39" x="76.25" y="460.5747">Logout</text><!--SRC=[VLBBRi8m4BpxAxOv5xYZgXAYZPIgL2X0Uq6gZBCGAuatSXmUFzMFw9Tr7TmIEFHcxUpCpixwJXjLjXd2S3ZQwmnfq6J5IEx8oi-cq6QesweKGYf75g9LWpO2sS1gaGgneID4ILMNMA5ncC7c12Tg8r5BwxJIjJGEeW_S0DFsWRbuJw_nILrtm6G-5sXOX8v1Ucx9M-fq9zxHZVBYALs-VNy5Tl8VMpcznnYDmXkDFjBfn1SPNX86ZzxO65vffutW9pnqfIIKGBOkv-sraawJkIQz43UeN1g3PSVzfVO1E6YNmzhqJOBqRycPCYqvZup7C2EZ_HqKSTpiVctw-Z64jcc0A-bKZWrB7yWMsv8EO7LJX4u-nBYRIOpZ9YSg1DV-F3845sW8CG_6e_JdleUsGPQTXWrcqiXTzmaWVLuiFPzHHs2neZtwRWjRIrKlZAGVxRc3MlUR4gVO0RuaVW00]--></g></svg>