<?xml version="1.0" encoding="us-ascii" standalone="no"?><svg xmlns="http://www.w3.org/2000/svg" xmlns:xlink="http://www.w3.org/1999/xlink" contentStyleType="text/css" height="240px" preserveAspectRatio="none" style="width:895px;height:240px;" version="1.1" viewBox="0 0 895 240" width="895px" zoomAndPan="magnify"><defs/><g><rect fill="none" height="238.9" style="stroke:#0A9EFD;stroke-width:1.0;" width="893" x="0" y="0"/><!--cluster Audio and video data--><g id="cluster_Audio and video data"><path d="M8.5,139.95 L131.5,139.95 A3.75,3.75 0 0 1 134,142.45 L141,160.8987 L885.5,160.8987 A2.5,2.5 0 0 1 888,163.3987 L888,231.4 A2.5,2.5 0 0 1 885.5,233.9 L8.5,233.9 A2.5,2.5 0 0 1 6,231.4 L6,142.45 A2.5,2.5 0 0 1 8.5,139.95 " fill="none" style="stroke:#0A9EFD;stroke-width:2.0;"/><line style="stroke:#0A9EFD;stroke-width:2.0;" x1="6" x2="141" y1="160.8987" y2="160.8987"/><text fill="#0A9EFD" font-family="Arial" font-size="13" lengthAdjust="spacing" textLength="122" x="10" y="154.1438">Audio and video data</text></g><!--entity Capture--><g id="elem_Capture"><rect fill="none" height="44.9487" rx="2.5" ry="2.5" style="stroke:#0A9EFD;stroke-width:2.0;" width="85" x="22.5" y="172.95"/><rect fill="none" height="10" style="stroke:#0A9EFD;stroke-width:2.0;" width="15" x="87.5" y="177.95"/><rect fill="none" height="2" style="stroke:#0A9EFD;stroke-width:2.0;" width="4" x="85.5" y="179.95"/><rect fill="none" height="2" style="stroke:#0A9EFD;stroke-width:2.0;" width="4" x="85.5" y="183.95"/><text fill="#0A9EFD" font-family="Arial" font-size="13" lengthAdjust="spacing" textLength="45" x="37.5" y="205.1438">Capture</text></g><!--entity Pre-process--><g id="elem_Pre-process"><rect fill="none" height="44.9487" rx="2.5" ry="2.5" style="stroke:#0A9EFD;stroke-width:2.0;" width="110" x="143" y="172.95"/><rect fill="none" height="10" style="stroke:#0A9EFD;stroke-width:2.0;" width="15" x="233" y="177.95"/><rect fill="none" height="2" style="stroke:#0A9EFD;stroke-width:2.0;" width="4" x="231" y="179.95"/><rect fill="none" height="2" style="stroke:#0A9EFD;stroke-width:2.0;" width="4" x="231" y="183.95"/><text fill="#0A9EFD" font-family="Arial" font-size="13" lengthAdjust="spacing" textLength="70" x="158" y="205.1438">Pre-process</text></g><!--entity Encode--><g id="elem_Encode"><rect fill="none" height="44.9487" rx="2.5" ry="2.5" style="stroke:#0A9EFD;stroke-width:2.0;" width="84" x="288" y="172.95"/><rect fill="none" height="10" style="stroke:#0A9EFD;stroke-width:2.0;" width="15" x="352" y="177.95"/><rect fill="none" height="2" style="stroke:#0A9EFD;stroke-width:2.0;" width="4" x="350" y="179.95"/><rect fill="none" height="2" style="stroke:#0A9EFD;stroke-width:2.0;" width="4" x="350" y="183.95"/><text fill="#0A9EFD" font-family="Arial" font-size="13" lengthAdjust="spacing" textLength="44" x="303" y="205.1438">Encode</text></g><!--entity Transmit--><g id="elem_Transmit"><rect fill="none" height="44.9487" rx="2.5" ry="2.5" style="stroke:#0A9EFD;stroke-width:2.0;" width="91" x="407.5" y="172.95"/><rect fill="none" height="10" style="stroke:#0A9EFD;stroke-width:2.0;" width="15" x="478.5" y="177.95"/><rect fill="none" height="2" style="stroke:#0A9EFD;stroke-width:2.0;" width="4" x="476.5" y="179.95"/><rect fill="none" height="2" style="stroke:#0A9EFD;stroke-width:2.0;" width="4" x="476.5" y="183.95"/><text fill="#0A9EFD" font-family="Arial" font-size="13" lengthAdjust="spacing" textLength="51" x="422.5" y="205.1438">Transmit</text></g><!--entity Decode--><g id="elem_Decode"><rect fill="none" height="44.9487" rx="2.5" ry="2.5" style="stroke:#0A9EFD;stroke-width:2.0;" width="84" x="534" y="172.95"/><rect fill="none" height="10" style="stroke:#0A9EFD;stroke-width:2.0;" width="15" x="598" y="177.95"/><rect fill="none" height="2" style="stroke:#0A9EFD;stroke-width:2.0;" width="4" x="596" y="179.95"/><rect fill="none" height="2" style="stroke:#0A9EFD;stroke-width:2.0;" width="4" x="596" y="183.95"/><text fill="#0A9EFD" font-family="Arial" font-size="13" lengthAdjust="spacing" textLength="44" x="549" y="205.1438">Decode</text></g><!--entity Post-process--><g id="elem_Post-process"><rect fill="none" height="44.9487" rx="2.5" ry="2.5" style="stroke:#0A9EFD;stroke-width:2.0;" width="117" x="653.5" y="172.95"/><rect fill="none" height="10" style="stroke:#0A9EFD;stroke-width:2.0;" width="15" x="750.5" y="177.95"/><rect fill="none" height="2" style="stroke:#0A9EFD;stroke-width:2.0;" width="4" x="748.5" y="179.95"/><rect fill="none" height="2" style="stroke:#0A9EFD;stroke-width:2.0;" width="4" x="748.5" y="183.95"/><text fill="#0A9EFD" font-family="Arial" font-size="13" lengthAdjust="spacing" textLength="77" x="668.5" y="205.1438">Post-process</text></g><!--entity Play--><g id="elem_Play"><rect fill="none" height="44.9487" rx="2.5" ry="2.5" style="stroke:#0A9EFD;stroke-width:2.0;" width="66" x="806" y="172.95"/><rect fill="none" height="10" style="stroke:#0A9EFD;stroke-width:2.0;" width="15" x="852" y="177.95"/><rect fill="none" height="2" style="stroke:#0A9EFD;stroke-width:2.0;" width="4" x="850" y="179.95"/><rect fill="none" height="2" style="stroke:#0A9EFD;stroke-width:2.0;" width="4" x="850" y="183.95"/><text fill="#0A9EFD" font-family="Arial" font-size="13" lengthAdjust="spacing" textLength="26" x="821" y="205.1438">Play</text></g><!--entity AI Noise suppression--><g id="elem_AI Noise suppression"><rect fill="none" height="44.9487" rx="2.5" ry="2.5" style="stroke:#0A9EFD;stroke-width:2.0;" width="164" x="116" y="7"/><rect fill="none" height="10" style="stroke:#0A9EFD;stroke-width:2.0;" width="15" x="260" y="12"/><rect fill="none" height="2" style="stroke:#0A9EFD;stroke-width:2.0;" width="4" x="258" y="14"/><rect fill="none" height="2" style="stroke:#0A9EFD;stroke-width:2.0;" width="4" x="258" y="18"/><text fill="#0A9EFD" font-family="Arial" font-size="13" lengthAdjust="spacing" textLength="124" x="131" y="39.1938">AI Noise suppression</text></g><!--link Capture to Pre-process--><g id="link_Capture_Pre-process"><path d="M107.81,195.9 C118.9,195.9 131,195.9 142.63,195.9 " fill="none" id="Capture-Pre-process" style="stroke:#0A9EFD;stroke-width:2.0;"/></g><!--link Pre-process to Encode--><g id="link_Pre-process_Encode"><path d="M253.22,195.9 C264.8,195.9 276.84,195.9 287.86,195.9 " fill="none" id="Pre-process-Encode" style="stroke:#0A9EFD;stroke-width:2.0;"/></g><!--link Encode to Transmit--><g id="link_Encode_Transmit"><path d="M372.33,195.9 C383.59,195.9 395.8,195.9 407.23,195.9 " fill="none" id="Encode-Transmit" style="stroke:#0A9EFD;stroke-width:2.0;"/></g><!--link Transmit to Decode--><g id="link_Transmit_Decode"><path d="M498.8,195.9 C510.28,195.9 522.53,195.9 533.82,195.9 " fill="none" id="Transmit-Decode" style="stroke:#0A9EFD;stroke-width:2.0;"/></g><!--link Decode to Post-process--><g id="link_Decode_Post-process"><path d="M618.29,195.9 C629.36,195.9 641.5,195.9 653.26,195.9 " fill="none" id="Decode-Post-process" style="stroke:#0A9EFD;stroke-width:2.0;"/></g><!--link Post-process to Play--><g id="link_Post-process_Play"><path d="M770.67,195.9 C782.63,195.9 794.81,195.9 805.52,195.9 " fill="none" id="Post-process-Play" style="stroke:#0A9EFD;stroke-width:2.0;"/></g><!--link AI Noise suppression to Pre-process--><g id="link_AI Noise suppression_Pre-process"><path d="M198,58.2 C198,89.89 198,135.02 198,166.71 " fill="none" id="AI Noise suppression-Pre-process" style="stroke:#0A9EFD;stroke-width:2.0;"/><polygon fill="#0A9EFD" points="198,52.2,194,61.2,198,57.2,202,61.2,198,52.2" style="stroke:#0A9EFD;stroke-width:2.0;"/><polygon fill="#0A9EFD" points="198,172.71,202,163.71,198,167.71,194,163.71,198,172.71" style="stroke:#0A9EFD;stroke-width:2.0;"/><text fill="#0A9EFD" font-family="Arial" font-size="13" lengthAdjust="spacing" textLength="62" x="127" y="109.6538">Audio data</text></g><!--SRC=[RKyz2y8m5DppAyxkgRk88EhW8WvkfSYZUKXeJKBI22B-TviefQBRVN7ltKoRfekAKPRpcrPiPL3jd2xMqpcqsfGwNZiXglKU1wi38qJdF8UWhQc5SDIqT64KwwYq1Hc5t095FHN0Gm3LXbmVFTUGg8wUfVEs6Hhgv4rvydUciOgpzO59FNaouQhxh8yaELiUyn-OhzZGVv-P2ZdHqRqMJ_7pmr969-KA_nTZWM7LUsoQ21JY1G00]--></g></svg>