<?xml version="1.0" encoding="us-ascii" standalone="no"?><svg xmlns="http://www.w3.org/2000/svg" xmlns:xlink="http://www.w3.org/1999/xlink" contentStyleType="text/css" height="241px" preserveAspectRatio="none" style="width:893px;height:241px;" version="1.1" viewBox="0 0 893 241" width="893px" zoomAndPan="magnify"><defs/><g><rect fill="none" height="239" style="stroke:#0A9EFD;stroke-width:1.0;" width="891" x="0" y="0"/><!--cluster Audio and video data--><g id="cluster_Audio and video data"><path d="M8.5,140 L129.5,140 A3.75,3.75 0 0 1 132,142.5 L139,160.9487 L883.5,160.9487 A2.5,2.5 0 0 1 886,163.4487 L886,231.5 A2.5,2.5 0 0 1 883.5,234 L8.5,234 A2.5,2.5 0 0 1 6,231.5 L6,142.5 A2.5,2.5 0 0 1 8.5,140 " fill="none" style="stroke:#0A9EFD;stroke-width:2.0;"/><line style="stroke:#0A9EFD;stroke-width:2.0;" x1="6" x2="139" y1="160.9487" y2="160.9487"/><text fill="#0A9EFD" font-family="Arial" font-size="13" lengthAdjust="spacing" textLength="120" x="10" y="154.1938">Audio and video data</text></g><!--entity Capture--><g id="elem_Capture"><rect fill="none" height="44.9487" rx="2.5" ry="2.5" style="stroke:#0A9EFD;stroke-width:2.0;" width="85" x="22.5" y="173"/><rect fill="none" height="10" style="stroke:#0A9EFD;stroke-width:2.0;" width="15" x="87.5" y="178"/><rect fill="none" height="2" style="stroke:#0A9EFD;stroke-width:2.0;" width="4" x="85.5" y="180"/><rect fill="none" height="2" style="stroke:#0A9EFD;stroke-width:2.0;" width="4" x="85.5" y="184"/><text fill="#0A9EFD" font-family="Arial" font-size="13" lengthAdjust="spacing" textLength="45" x="37.5" y="205.1938">Capture</text></g><!--entity Pre-process--><g id="elem_Pre-process"><rect fill="none" height="44.9487" rx="2.5" ry="2.5" style="stroke:#0A9EFD;stroke-width:2.0;" width="110" x="143" y="173"/><rect fill="none" height="10" style="stroke:#0A9EFD;stroke-width:2.0;" width="15" x="233" y="178"/><rect fill="none" height="2" style="stroke:#0A9EFD;stroke-width:2.0;" width="4" x="231" y="180"/><rect fill="none" height="2" style="stroke:#0A9EFD;stroke-width:2.0;" width="4" x="231" y="184"/><text fill="#0A9EFD" font-family="Arial" font-size="13" lengthAdjust="spacing" textLength="70" x="158" y="205.1938">Pre-process</text></g><!--entity Encode--><g id="elem_Encode"><rect fill="none" height="44.9487" rx="2.5" ry="2.5" style="stroke:#0A9EFD;stroke-width:2.0;" width="84" x="288" y="173"/><rect fill="none" height="10" style="stroke:#0A9EFD;stroke-width:2.0;" width="15" x="352" y="178"/><rect fill="none" height="2" style="stroke:#0A9EFD;stroke-width:2.0;" width="4" x="350" y="180"/><rect fill="none" height="2" style="stroke:#0A9EFD;stroke-width:2.0;" width="4" x="350" y="184"/><text fill="#0A9EFD" font-family="Arial" font-size="13" lengthAdjust="spacing" textLength="44" x="303" y="205.1938">Encode</text></g><!--entity Transmit--><g id="elem_Transmit"><rect fill="none" height="44.9487" rx="2.5" ry="2.5" style="stroke:#0A9EFD;stroke-width:2.0;" width="90" x="407" y="173"/><rect fill="none" height="10" style="stroke:#0A9EFD;stroke-width:2.0;" width="15" x="477" y="178"/><rect fill="none" height="2" style="stroke:#0A9EFD;stroke-width:2.0;" width="4" x="475" y="180"/><rect fill="none" height="2" style="stroke:#0A9EFD;stroke-width:2.0;" width="4" x="475" y="184"/><text fill="#0A9EFD" font-family="Arial" font-size="13" lengthAdjust="spacing" textLength="50" x="422" y="205.1938">Transmit</text></g><!--entity Decode--><g id="elem_Decode"><rect fill="none" height="44.9487" rx="2.5" ry="2.5" style="stroke:#0A9EFD;stroke-width:2.0;" width="84" x="532" y="173"/><rect fill="none" height="10" style="stroke:#0A9EFD;stroke-width:2.0;" width="15" x="596" y="178"/><rect fill="none" height="2" style="stroke:#0A9EFD;stroke-width:2.0;" width="4" x="594" y="180"/><rect fill="none" height="2" style="stroke:#0A9EFD;stroke-width:2.0;" width="4" x="594" y="184"/><text fill="#0A9EFD" font-family="Arial" font-size="13" lengthAdjust="spacing" textLength="44" x="547" y="205.1938">Decode</text></g><!--entity Post-process--><g id="elem_Post-process"><rect fill="none" height="44.9487" rx="2.5" ry="2.5" style="stroke:#0A9EFD;stroke-width:2.0;" width="117" x="651.5" y="173"/><rect fill="none" height="10" style="stroke:#0A9EFD;stroke-width:2.0;" width="15" x="748.5" y="178"/><rect fill="none" height="2" style="stroke:#0A9EFD;stroke-width:2.0;" width="4" x="746.5" y="180"/><rect fill="none" height="2" style="stroke:#0A9EFD;stroke-width:2.0;" width="4" x="746.5" y="184"/><text fill="#0A9EFD" font-family="Arial" font-size="13" lengthAdjust="spacing" textLength="77" x="666.5" y="205.1938">Post-process</text></g><!--entity Play--><g id="elem_Play"><rect fill="none" height="44.9487" rx="2.5" ry="2.5" style="stroke:#0A9EFD;stroke-width:2.0;" width="66" x="804" y="173"/><rect fill="none" height="10" style="stroke:#0A9EFD;stroke-width:2.0;" width="15" x="850" y="178"/><rect fill="none" height="2" style="stroke:#0A9EFD;stroke-width:2.0;" width="4" x="848" y="180"/><rect fill="none" height="2" style="stroke:#0A9EFD;stroke-width:2.0;" width="4" x="848" y="184"/><text fill="#0A9EFD" font-family="Arial" font-size="13" lengthAdjust="spacing" textLength="26" x="819" y="205.1938">Play</text></g><!--entity AI Noise suppression--><g id="elem_AI Noise suppression"><rect fill="none" height="44.9487" rx="2.5" ry="2.5" style="stroke:#0A9EFD;stroke-width:2.0;" width="163" x="116.5" y="7"/><rect fill="none" height="10" style="stroke:#0A9EFD;stroke-width:2.0;" width="15" x="259.5" y="12"/><rect fill="none" height="2" style="stroke:#0A9EFD;stroke-width:2.0;" width="4" x="257.5" y="14"/><rect fill="none" height="2" style="stroke:#0A9EFD;stroke-width:2.0;" width="4" x="257.5" y="18"/><text fill="#0A9EFD" font-family="Arial" font-size="13" lengthAdjust="spacing" textLength="123" x="131.5" y="39.1938">AI Noise suppression</text></g><!--link Capture to Pre-process--><g id="link_Capture_Pre-process"><path d="M107.81,196 C118.9,196 131,196 142.63,196 " fill="none" id="Capture-Pre-process" style="stroke:#0A9EFD;stroke-width:2.0;"/></g><!--link Pre-process to Encode--><g id="link_Pre-process_Encode"><path d="M253.22,196 C264.8,196 276.84,196 287.86,196 " fill="none" id="Pre-process-Encode" style="stroke:#0A9EFD;stroke-width:2.0;"/></g><!--link Encode to Transmit--><g id="link_Encode_Transmit"><path d="M372.33,196 C383.48,196 395.55,196 406.84,196 " fill="none" id="Encode-Transmit" style="stroke:#0A9EFD;stroke-width:2.0;"/></g><!--link Transmit to Decode--><g id="link_Transmit_Decode"><path d="M497.08,196 C508.49,196 520.69,196 531.93,196 " fill="none" id="Transmit-Decode" style="stroke:#0A9EFD;stroke-width:2.0;"/></g><!--link Decode to Post-process--><g id="link_Decode_Post-process"><path d="M616.29,196 C627.36,196 639.5,196 651.26,196 " fill="none" id="Decode-Post-process" style="stroke:#0A9EFD;stroke-width:2.0;"/></g><!--link Post-process to Play--><g id="link_Post-process_Play"><path d="M768.67,196 C780.76,196 793.08,196 803.87,196 " fill="none" id="Post-process-Play" style="stroke:#0A9EFD;stroke-width:2.0;"/></g><!--link AI Noise suppression to Pre-process--><g id="link_AI Noise suppression_Pre-process"><path d="M198,58.23 C198,89.93 198,135.08 198,166.78 " fill="none" id="AI Noise suppression-Pre-process" style="stroke:#0A9EFD;stroke-width:2.0;"/><polygon fill="#0A9EFD" points="198,52.23,194,61.23,198,57.23,202,61.23,198,52.23" style="stroke:#0A9EFD;stroke-width:2.0;"/><polygon fill="#0A9EFD" points="198,172.78,202,163.78,198,167.78,194,163.78,198,172.78" style="stroke:#0A9EFD;stroke-width:2.0;"/><text fill="#0A9EFD" font-family="Arial" font-size="13" lengthAdjust="spacing" textLength="62" x="127" y="109.6938">Audio data</text></g><!--SRC=[RKyz2y8m5DppAyxkgRk88EhW8WvkfSYZUKXeJKBI22B-TviefQBRVN7ltKoRfekAKPRpcrPiPL3jd2xMqpcqsfGwNZiXglKU1wi38qJdF8UWhQc5SDIqT64KwwYq1Hc5t095FHN0Gm3LXbmVFTUGg8wUfVEs6Hhgv4rvydUciOgpzO59FNaouQhxh8yaELiUyn-OhzZGVv-P2ZdHqRqMJ_7pmr969-KA_nTZWM7LUsoQ21JY1G00]--></g></svg>