<svg xmlns="http://www.w3.org/2000/svg" xmlns:xlink="http://www.w3.org/1999/xlink" contentStyleType="text/css" data-diagram-type="SEQUENCE" height="792px" preserveAspectRatio="none" style="width:540px;height:792px;" version="1.1" viewBox="0 0 540 792" width="540px" zoomAndPan="magnify"><?plantuml 1.2026.4?><defs/><g><rect fill="none" height="790.2231" style="stroke:#0A9EFD;stroke-width:1;" width="538.2024" x="0" y="0"/><rect fill="#999999" fill-opacity="0.33333" height="779.2231" style="stroke:#0A9EFD;stroke-width:0.5;" width="90.4824" x="126.3906" y="6"/><text fill="#0A9EFD" font-family="sans-serif" font-size="13" font-weight="700" lengthAdjust="spacing" textLength="56.3354" x="143.4641" y="19.4951">Your app</text><rect fill="#999999" fill-opacity="0.33333" height="779.2231" style="stroke:#0A9EFD;stroke-width:0.5;" width="78.3257" x="439.8767" y="6"/><text fill="#0A9EFD" font-family="sans-serif" font-size="13" font-weight="700" lengthAdjust="spacing" textLength="37.5591" x="460.26" y="19.4951">Agora</text><rect fill="#0A9EFD" fill-opacity="0.06667" height="116.7949" style="stroke:#0A9EFD;stroke-width:2;" width="514.2024" x="10" y="215.9448"/><rect fill="#0A9EFD" fill-opacity="0.06667" height="190.6411" style="stroke:#0A9EFD;stroke-width:2;" width="514.2024" x="10" y="346.7397"/><rect fill="#0A9EFD" fill-opacity="0.06667" height="74.8462" style="stroke:#0A9EFD;stroke-width:2;" width="403.8118" x="120.3906" y="551.3809"/><g class="participant-lifeline" data-entity-uid="part1" data-qualified-name="USR" data-source-line="3" id="part1-lifeline"><g><title>User</title><rect fill="#000000" fill-opacity="0.00000" height="615.0259" width="8" x="33.7793" y="86.0986"/><line style="stroke:#0A9EFD;stroke-width:0.5;stroke-dasharray:5,5;" x1="37" x2="37" y1="86.0986" y2="701.1245"/></g></g><g class="participant-lifeline" data-entity-uid="part2" data-qualified-name="APP" data-source-line="6" id="part2-lifeline"><g><title>Video SDK</title><rect fill="#000000" fill-opacity="0.00000" height="615.0259" width="8" x="167.6318" y="86.0986"/><line style="stroke:#0A9EFD;stroke-width:0.5;stroke-dasharray:5,5;" x1="171.3906" x2="171.3906" y1="86.0986" y2="701.1245"/></g></g><g class="participant-lifeline" data-entity-uid="part3" data-qualified-name="API" data-source-line="10" id="part3-lifeline"><g><title>SDRTN.sup....sup.</title><rect fill="#000000" fill-opacity="0.00000" height="615.0259" width="8" x="475.0396" y="86.0986"/><line style="stroke:#0A9EFD;stroke-width:0.5;stroke-dasharray:5,5;" x1="478.8767" x2="478.8767" y1="86.0986" y2="701.1245"/></g></g><g class="participant participant-head" data-entity-uid="part1" data-qualified-name="USR" data-source-line="3" id="part1-head"><text fill="#0A9EFD" font-family="Arial" font-size="14" lengthAdjust="spacing" textLength="29.5586" x="20" y="83.1318">User</text><ellipse cx="37.7793" cy="16" fill="none" rx="8" ry="8" style="stroke:#0A9EFD;stroke-width:3;"/><path d="M37.7793,24 L37.7793,51 M24.7793,32 L50.7793,32 M37.7793,51 L24.7793,66 M37.7793,51 L50.7793,66" fill="none" style="stroke:#0A9EFD;stroke-width:3;"/></g><g class="participant participant-tail" data-entity-uid="part1" data-qualified-name="USR" data-source-line="3" id="part1-tail"><text fill="#0A9EFD" font-family="Arial" font-size="14" lengthAdjust="spacing" textLength="29.5586" x="20" y="713.2563">User</text><ellipse cx="37.7793" cy="727.2231" fill="none" rx="8" ry="8" style="stroke:#0A9EFD;stroke-width:3;"/><path d="M37.7793,735.2231 L37.7793,762.2231 M24.7793,743.2231 L50.7793,743.2231 M37.7793,762.2231 L24.7793,777.2231 M37.7793,762.2231 L50.7793,777.2231" fill="none" style="stroke:#0A9EFD;stroke-width:3;"/></g><g class="participant participant-head" data-entity-uid="part2" data-qualified-name="APP" data-source-line="6" id="part2-head"><rect fill="none" height="30.0986" rx="2.5" ry="2.5" style="stroke:#0A9EFD;stroke-width:2;" width="82.4824" x="130.3906" y="55"/><text fill="#0A9EFD" font-family="Arial" font-size="14" lengthAdjust="spacing" textLength="68.4824" x="137.3906" y="75.1318">Video SDK</text></g><g class="participant participant-tail" data-entity-uid="part2" data-qualified-name="APP" data-source-line="6" id="part2-tail"><rect fill="none" height="30.0986" rx="2.5" ry="2.5" style="stroke:#0A9EFD;stroke-width:2;" width="82.4824" x="130.3906" y="700.1245"/><text fill="#0A9EFD" font-family="Arial" font-size="14" lengthAdjust="spacing" textLength="68.4824" x="137.3906" y="720.2563">Video SDK</text></g><g class="participant participant-head" data-entity-uid="part3" data-qualified-name="API" data-source-line="10" id="part3-head"><rect fill="none" height="32.6489" rx="2.5" ry="2.5" style="stroke:#0A9EFD;stroke-width:2;" width="70.3257" x="443.8767" y="52.4497"/><text fill="#0A9EFD" font-family="Arial" font-size="14" lengthAdjust="spacing" textLength="48.2207" x="450.8767" y="75.1318">SDRTN</text><text fill="#0A9EFD" font-family="Arial" font-size="11" lengthAdjust="spacing" textLength="8.105" x="499.0974" y="69.7676">&#174;</text></g><g class="participant participant-tail" data-entity-uid="part3" data-qualified-name="API" data-source-line="10" id="part3-tail"><rect fill="none" height="32.6489" rx="2.5" ry="2.5" style="stroke:#0A9EFD;stroke-width:2;" width="70.3257" x="443.8767" y="700.1245"/><text fill="#0A9EFD" font-family="Arial" font-size="14" lengthAdjust="spacing" textLength="48.2207" x="450.8767" y="722.8066">SDRTN</text><text fill="#0A9EFD" font-family="Arial" font-size="11" lengthAdjust="spacing" textLength="8.105" x="499.0974" y="717.4424">&#174;</text></g><g class="message" data-entity-1="part1" data-entity-2="part2" data-source-line="13" id="msg1"><polygon fill="#0A9EFD" points="159.6318,113.0474,169.6318,117.0474,159.6318,121.0474,163.6318,117.0474" style="stroke:#0A9EFD;stroke-width:1;stroke-linejoin:miter;stroke-miterlimit:10;"/><line style="stroke:#0A9EFD;stroke-width:2;" x1="37.7793" x2="165.6318" y1="117.0474" y2="117.0474"/><text fill="#0A9EFD" font-family="Arial" font-size="13" lengthAdjust="spacing" textLength="58.5444" x="75.4333" y="112.2925">Open App</text></g><g class="message" data-entity-1="part2" data-entity-2="part2" data-source-line="14" id="msg2"><line style="stroke:#0A9EFD;stroke-width:2;" x1="171.6318" x2="213.6318" y1="145.9961" y2="145.9961"/><line style="stroke:#0A9EFD;stroke-width:2;" x1="213.6318" x2="213.6318" y1="145.9961" y2="158.9961"/><line style="stroke:#0A9EFD;stroke-width:2;" x1="172.6318" x2="213.6318" y1="158.9961" y2="158.9961"/><polygon fill="#0A9EFD" points="182.6318,154.9961,172.6318,158.9961,182.6318,162.9961,178.6318,158.9961" style="stroke:#0A9EFD;stroke-width:1;stroke-linejoin:miter;stroke-miterlimit:10;"/><text fill="#0A9EFD" font-family="Arial" font-size="13" lengthAdjust="spacing" textLength="293.4077" x="178.6318" y="141.2412">Create an Agora Engine instance using Video SDK</text></g><g class="message" data-entity-1="part2" data-entity-2="part2" data-source-line="15" id="msg3"><line style="stroke:#0A9EFD;stroke-width:2;" x1="171.6318" x2="213.6318" y1="187.9448" y2="187.9448"/><line style="stroke:#0A9EFD;stroke-width:2;" x1="213.6318" x2="213.6318" y1="187.9448" y2="200.9448"/><line style="stroke:#0A9EFD;stroke-width:2;" x1="172.6318" x2="213.6318" y1="200.9448" y2="200.9448"/><polygon fill="#0A9EFD" points="182.6318,196.9448,172.6318,200.9448,182.6318,204.9448,178.6318,200.9448" style="stroke:#0A9EFD;stroke-width:1;stroke-linejoin:miter;stroke-miterlimit:10;"/><text fill="#0A9EFD" font-family="Arial" font-size="13" lengthAdjust="spacing" textLength="232.0132" x="178.6318" y="183.1899">Enable audio and video in Agora Engine</text></g><path d="M10,215.9448 L78.8481,215.9448 L78.8481,222.8936 L68.8481,232.8936 L10,232.8936 L10,215.9448" fill="#EEEEEE" style="stroke:#0A9EFD;stroke-width:1.5;"/><rect fill="none" height="116.7949" style="stroke:#0A9EFD;stroke-width:2;" width="514.2024" x="10" y="215.9448"/><text fill="#000000" font-family="Arial" font-size="13" lengthAdjust="spacing" textLength="23.8481" x="25" y="229.1387">Join</text><g class="message" data-entity-1="part1" data-entity-2="part2" data-source-line="18" id="msg4"><polygon fill="#0A9EFD" points="159.6318,249.8423,169.6318,253.8423,159.6318,257.8423,163.6318,253.8423" style="stroke:#0A9EFD;stroke-width:1;stroke-linejoin:miter;stroke-miterlimit:10;"/><line style="stroke:#0A9EFD;stroke-width:2;" x1="37.7793" x2="165.6318" y1="253.8423" y2="253.8423"/><text fill="#0A9EFD" font-family="Arial" font-size="13" lengthAdjust="spacing" textLength="83.8398" x="62.7856" y="249.0874">Join a channel</text></g><g class="message" data-entity-1="part2" data-entity-2="part2" data-source-line="19" id="msg5"><line style="stroke:#0A9EFD;stroke-width:2;" x1="171.6318" x2="213.6318" y1="282.791" y2="282.791"/><line style="stroke:#0A9EFD;stroke-width:2;" x1="213.6318" x2="213.6318" y1="282.791" y2="295.791"/><line style="stroke:#0A9EFD;stroke-width:2;" x1="172.6318" x2="213.6318" y1="295.791" y2="295.791"/><polygon fill="#0A9EFD" points="182.6318,291.791,172.6318,295.791,182.6318,299.791,178.6318,295.791" style="stroke:#0A9EFD;stroke-width:1;stroke-linejoin:miter;stroke-miterlimit:10;"/><text fill="#0A9EFD" font-family="Arial" font-size="13" lengthAdjust="spacing" textLength="266.6777" x="178.6318" y="278.0361">Retrieve authentication token to join a channel</text></g><g class="message" data-entity-1="part2" data-entity-2="part3" data-source-line="20" id="msg6"><polygon fill="#0A9EFD" points="467.0396,320.7397,477.0396,324.7397,467.0396,328.7397,471.0396,324.7397" style="stroke:#0A9EFD;stroke-width:1;stroke-linejoin:miter;stroke-miterlimit:10;"/><line style="stroke:#0A9EFD;stroke-width:2;" x1="171.6318" x2="473.0396" y1="324.7397" y2="324.7397"/><text fill="#0A9EFD" font-family="Arial" font-size="13" lengthAdjust="spacing" textLength="94.6816" x="277.9949" y="319.9849">Join the channel</text></g><path d="M10,346.7397 L129.4263,346.7397 L129.4263,353.6885 L119.4263,363.6885 L10,363.6885 L10,346.7397" fill="#EEEEEE" style="stroke:#0A9EFD;stroke-width:1.5;"/><rect fill="none" height="190.6411" style="stroke:#0A9EFD;stroke-width:2;" width="514.2024" x="10" y="346.7397"/><text fill="#000000" font-family="Arial" font-size="13" lengthAdjust="spacing" textLength="74.4263" x="25" y="359.9336">Audio mixing</text><g class="message" data-entity-1="part1" data-entity-2="part2" data-source-line="24" id="msg7"><polygon fill="#0A9EFD" points="159.6318,380.6372,169.6318,384.6372,159.6318,388.6372,163.6318,384.6372" style="stroke:#0A9EFD;stroke-width:1;stroke-linejoin:miter;stroke-miterlimit:10;"/><line style="stroke:#0A9EFD;stroke-width:2;" x1="37.7793" x2="165.6318" y1="384.6372" y2="384.6372"/><text fill="#0A9EFD" font-family="Arial" font-size="13" lengthAdjust="spacing" textLength="109.8525" x="49.7793" y="379.8823">Select an audio file</text></g><g class="message" data-entity-1="part2" data-entity-2="part3" data-source-line="25" id="msg8"><polygon fill="#0A9EFD" points="467.0396,409.5859,477.0396,413.5859,467.0396,417.5859,471.0396,413.5859" style="stroke:#0A9EFD;stroke-width:1;stroke-linejoin:miter;stroke-miterlimit:10;"/><line style="stroke:#0A9EFD;stroke-width:2;" x1="171.6318" x2="473.0396" y1="413.5859" y2="413.5859"/><text fill="#0A9EFD" font-family="Arial" font-size="13" lengthAdjust="spacing" textLength="124.2935" x="263.189" y="408.8311">Process the audio file</text></g><g class="message" data-entity-1="part1" data-entity-2="part2" data-source-line="26" id="msg9"><polygon fill="#0A9EFD" points="159.6318,438.5347,169.6318,442.5347,159.6318,446.5347,163.6318,442.5347" style="stroke:#0A9EFD;stroke-width:1;stroke-linejoin:miter;stroke-miterlimit:10;"/><line style="stroke:#0A9EFD;stroke-width:2;" x1="37.7793" x2="165.6318" y1="442.5347" y2="442.5347"/><text fill="#0A9EFD" font-family="Arial" font-size="13" lengthAdjust="spacing" textLength="104.0508" x="52.6802" y="437.7798">Start audio mixing</text></g><g class="message" data-entity-1="part2" data-entity-2="part3" data-source-line="27" id="msg10"><polygon fill="#0A9EFD" points="467.0396,467.4834,477.0396,471.4834,467.0396,475.4834,471.0396,471.4834" style="stroke:#0A9EFD;stroke-width:1;stroke-linejoin:miter;stroke-miterlimit:10;"/><line style="stroke:#0A9EFD;stroke-width:2;" x1="171.6318" x2="473.0396" y1="471.4834" y2="471.4834"/><text fill="#0A9EFD" font-family="Arial" font-size="13" lengthAdjust="spacing" textLength="102.6226" x="274.0244" y="466.7285">Play the audio file</text></g><g class="message" data-entity-1="part1" data-entity-2="part2" data-source-line="28" id="msg11"><polygon fill="#0A9EFD" points="159.6318,496.4321,169.6318,500.4321,159.6318,504.4321,163.6318,500.4321" style="stroke:#0A9EFD;stroke-width:1;stroke-linejoin:miter;stroke-miterlimit:10;"/><line style="stroke:#0A9EFD;stroke-width:2;" x1="37.7793" x2="165.6318" y1="500.4321" y2="500.4321"/><text fill="#0A9EFD" font-family="Arial" font-size="13" lengthAdjust="spacing" textLength="67.9199" x="70.7456" y="495.6772">Stop mixing</text></g><g class="message" data-entity-1="part2" data-entity-2="part3" data-source-line="29" id="msg12"><polygon fill="#0A9EFD" points="467.0396,525.3809,477.0396,529.3809,467.0396,533.3809,471.0396,529.3809" style="stroke:#0A9EFD;stroke-width:1;stroke-linejoin:miter;stroke-miterlimit:10;"/><line style="stroke:#0A9EFD;stroke-width:2;" x1="171.6318" x2="473.0396" y1="529.3809" y2="529.3809"/><text fill="#0A9EFD" font-family="Arial" font-size="13" lengthAdjust="spacing" textLength="104.0762" x="273.2976" y="524.626">Stop the audio file</text></g><path d="M120.3906,551.3809 L279.5913,551.3809 L279.5913,558.3296 L269.5913,568.3296 L120.3906,568.3296 L120.3906,551.3809" fill="#EEEEEE" style="stroke:#0A9EFD;stroke-width:1.5;"/><rect fill="none" height="74.8462" style="stroke:#0A9EFD;stroke-width:2;" width="403.8118" x="120.3906" y="551.3809"/><text fill="#000000" font-family="Arial" font-size="13" lengthAdjust="spacing" textLength="114.2007" x="135.3906" y="564.5747">Change audio route</text><g class="message" data-entity-1="part2" data-entity-2="part3" data-source-line="33" id="msg13"><polygon fill="#0A9EFD" points="467.0396,585.2783,477.0396,589.2783,467.0396,593.2783,471.0396,589.2783" style="stroke:#0A9EFD;stroke-width:1;stroke-linejoin:miter;stroke-miterlimit:10;"/><line style="stroke:#0A9EFD;stroke-width:2;" x1="171.6318" x2="473.0396" y1="589.2783" y2="589.2783"/><text fill="#0A9EFD" font-family="Arial" font-size="13" lengthAdjust="spacing" textLength="130.8188" x="259.9263" y="584.5234">Set default audio route</text></g><g class="message" data-entity-1="part2" data-entity-2="part3" data-source-line="34" id="msg14"><polygon fill="#0A9EFD" points="467.0396,614.2271,477.0396,618.2271,467.0396,622.2271,471.0396,618.2271" style="stroke:#0A9EFD;stroke-width:1;stroke-linejoin:miter;stroke-miterlimit:10;"/><line style="stroke:#0A9EFD;stroke-width:2;" x1="171.6318" x2="473.0396" y1="618.2271" y2="618.2271"/><text fill="#0A9EFD" font-family="Arial" font-size="13" lengthAdjust="spacing" textLength="203.7915" x="223.4399" y="613.4722">Change the audio route temporarily</text></g><g class="message" data-entity-1="part1" data-entity-2="part2" data-source-line="37" id="msg15"><polygon fill="#0A9EFD" points="159.6318,650.1758,169.6318,654.1758,159.6318,658.1758,163.6318,654.1758" style="stroke:#0A9EFD;stroke-width:1;stroke-linejoin:miter;stroke-miterlimit:10;"/><line style="stroke:#0A9EFD;stroke-width:2;" x1="37.7793" x2="165.6318" y1="654.1758" y2="654.1758"/><text fill="#0A9EFD" font-family="Arial" font-size="13" lengthAdjust="spacing" textLength="106.2534" x="51.5789" y="649.4209">Leave the channel</text></g><g class="message" data-entity-1="part2" data-entity-2="part3" data-source-line="38" id="msg16"><polygon fill="#0A9EFD" points="467.0396,679.1245,477.0396,683.1245,467.0396,687.1245,471.0396,683.1245" style="stroke:#0A9EFD;stroke-width:1;stroke-linejoin:miter;stroke-miterlimit:10;"/><line style="stroke:#0A9EFD;stroke-width:2;" x1="171.6318" x2="473.0396" y1="683.1245" y2="683.1245"/><text fill="#0A9EFD" font-family="Arial" font-size="13" lengthAdjust="spacing" textLength="106.2534" x="272.209" y="678.3696">Leave the channel</text></g><?plantuml-src VP71JW8n48RlVOfnx-hT4182752ZX1KJJwRiZij8cJPjby1B-H0-cUsom1R5opOxCz___zDU4HUgBX5afQryTolY6whNIWXPU6qXcpkq6KW7ytmcn49l8NlJjGLfJ2QCj9uACf8zPAzKeePyzD2C3wPJWLn285fi41tEc7mqUtdgkThqlxzwj_5iuSa93iPmtO-2T_1ia65WZ0X_n-BGelHXWz295Z3cYXY1s7d91KBjY2iunalOCSk52cnTaWuA9MoQCKgrXAYihWtSQ-8aJoo0X68fcL4boZFqbd0JjVqIEUmiFMa6hrSOl_1vWPsqie4wD27UnY74eCcwfctOAWcJeyB2ntlOh_D12XFPgTK5EjSeTqOI3H-Ufsss5ec2ahl_SMt-ufhw6TTPQHZMh0xDKF5fxXmzbFWXQ-KlphGI9uzc13okJNX7IsgtD-ocVKIvmUuz9ug_kpy0?></g></svg>