<svg xmlns="http://www.w3.org/2000/svg" xmlns:xlink="http://www.w3.org/1999/xlink" contentStyleType="text/css" data-diagram-type="SEQUENCE" height="1027px" preserveAspectRatio="none" style="width:548px;height:1027px;" version="1.1" viewBox="0 0 548 1027" width="548px" zoomAndPan="magnify"><?plantuml 1.2026.4?><defs/><g><rect fill="none" height="1025.813" style="stroke:#0A9EFD;stroke-width:1;" width="546.8542" x="0" y="0"/><rect fill="#999999" fill-opacity="0.33333" height="1014.813" style="stroke:#0A9EFD;stroke-width:0.5;" width="90.4824" x="135.0425" y="6"/><text fill="#0A9EFD" font-family="sans-serif" font-size="13" font-weight="700" lengthAdjust="spacing" textLength="56.3354" x="152.116" y="19.4951">Your app</text><rect fill="#999999" fill-opacity="0.33333" height="1014.813" style="stroke:#0A9EFD;stroke-width:0.5;" width="78.3257" x="448.5286" y="6"/><text fill="#0A9EFD" font-family="sans-serif" font-size="13" font-weight="700" lengthAdjust="spacing" textLength="37.5591" x="468.9119" y="19.4951">Agora</text><rect fill="#0A9EFD" fill-opacity="0.06667" height="116.7949" style="stroke:#0A9EFD;stroke-width:2;" width="522.8542" x="10" y="215.9448"/><rect fill="#0A9EFD" fill-opacity="0.06667" height="190.6411" style="stroke:#0A9EFD;stroke-width:2;" width="522.8542" x="10" y="346.7397"/><rect fill="#0A9EFD" fill-opacity="0.06667" height="103.7949" style="stroke:#0A9EFD;stroke-width:2;" width="522.8542" x="10" y="551.3809"/><rect fill="#0A9EFD" fill-opacity="0.06667" height="103.7949" style="stroke:#0A9EFD;stroke-width:2;" width="522.8542" x="10" y="669.1758"/><rect fill="#0A9EFD" fill-opacity="0.06667" height="74.8462" style="stroke:#0A9EFD;stroke-width:2;" width="403.8118" x="129.0425" y="786.9707"/><g class="participant-lifeline" data-entity-uid="part1" data-qualified-name="USR" data-source-line="3" id="part1-lifeline"><g><title>User</title><rect fill="#000000" fill-opacity="0.00000" height="850.6157" width="8" x="33.7793" y="86.0986"/><line style="stroke:#0A9EFD;stroke-width:0.5;stroke-dasharray:5,5;" x1="37" x2="37" y1="86.0986" y2="936.7144"/></g></g><g class="participant-lifeline" data-entity-uid="part2" data-qualified-name="APP" data-source-line="6" id="part2-lifeline"><g><title>Video SDK</title><rect fill="#000000" fill-opacity="0.00000" height="850.6157" width="8" x="176.2837" y="86.0986"/><line style="stroke:#0A9EFD;stroke-width:0.5;stroke-dasharray:5,5;" x1="180.0425" x2="180.0425" y1="86.0986" y2="936.7144"/></g></g><g class="participant-lifeline" data-entity-uid="part3" data-qualified-name="API" data-source-line="10" id="part3-lifeline"><g><title>SDRTN.sup....sup.</title><rect fill="#000000" fill-opacity="0.00000" height="850.6157" width="8" x="483.6914" y="86.0986"/><line style="stroke:#0A9EFD;stroke-width:0.5;stroke-dasharray:5,5;" x1="487.5286" x2="487.5286" y1="86.0986" y2="936.7144"/></g></g><g class="participant participant-head" data-entity-uid="part1" data-qualified-name="USR" data-source-line="3" id="part1-head"><text fill="#0A9EFD" font-family="Arial" font-size="14" lengthAdjust="spacing" textLength="29.5586" x="20" y="83.1318">User</text><ellipse cx="37.7793" cy="16" fill="none" rx="8" ry="8" style="stroke:#0A9EFD;stroke-width:3;"/><path d="M37.7793,24 L37.7793,51 M24.7793,32 L50.7793,32 M37.7793,51 L24.7793,66 M37.7793,51 L50.7793,66" fill="none" style="stroke:#0A9EFD;stroke-width:3;"/></g><g class="participant participant-tail" data-entity-uid="part1" data-qualified-name="USR" data-source-line="3" id="part1-tail"><text fill="#0A9EFD" font-family="Arial" font-size="14" lengthAdjust="spacing" textLength="29.5586" x="20" y="948.8462">User</text><ellipse cx="37.7793" cy="962.813" fill="none" rx="8" ry="8" style="stroke:#0A9EFD;stroke-width:3;"/><path d="M37.7793,970.813 L37.7793,997.813 M24.7793,978.813 L50.7793,978.813 M37.7793,997.813 L24.7793,1012.813 M37.7793,997.813 L50.7793,1012.813" fill="none" style="stroke:#0A9EFD;stroke-width:3;"/></g><g class="participant participant-head" data-entity-uid="part2" data-qualified-name="APP" data-source-line="6" id="part2-head"><rect fill="none" height="30.0986" rx="2.5" ry="2.5" style="stroke:#0A9EFD;stroke-width:2;" width="82.4824" x="139.0425" y="55"/><text fill="#0A9EFD" font-family="Arial" font-size="14" lengthAdjust="spacing" textLength="68.4824" x="146.0425" y="75.1318">Video SDK</text></g><g class="participant participant-tail" data-entity-uid="part2" data-qualified-name="APP" data-source-line="6" id="part2-tail"><rect fill="none" height="30.0986" rx="2.5" ry="2.5" style="stroke:#0A9EFD;stroke-width:2;" width="82.4824" x="139.0425" y="935.7144"/><text fill="#0A9EFD" font-family="Arial" font-size="14" lengthAdjust="spacing" textLength="68.4824" x="146.0425" y="955.8462">Video SDK</text></g><g class="participant participant-head" data-entity-uid="part3" data-qualified-name="API" data-source-line="10" id="part3-head"><rect fill="none" height="32.6489" rx="2.5" ry="2.5" style="stroke:#0A9EFD;stroke-width:2;" width="70.3257" x="452.5286" y="52.4497"/><text fill="#0A9EFD" font-family="Arial" font-size="14" lengthAdjust="spacing" textLength="48.2207" x="459.5286" y="75.1318">SDRTN</text><text fill="#0A9EFD" font-family="Arial" font-size="11" lengthAdjust="spacing" textLength="8.105" x="507.7493" y="69.7676">&#174;</text></g><g class="participant participant-tail" data-entity-uid="part3" data-qualified-name="API" data-source-line="10" id="part3-tail"><rect fill="none" height="32.6489" rx="2.5" ry="2.5" style="stroke:#0A9EFD;stroke-width:2;" width="70.3257" x="452.5286" y="935.7144"/><text fill="#0A9EFD" font-family="Arial" font-size="14" lengthAdjust="spacing" textLength="48.2207" x="459.5286" y="958.3965">SDRTN</text><text fill="#0A9EFD" font-family="Arial" font-size="11" lengthAdjust="spacing" textLength="8.105" x="507.7493" y="953.0322">&#174;</text></g><g class="message" data-entity-1="part1" data-entity-2="part2" data-source-line="13" id="msg1"><polygon fill="#0A9EFD" points="168.2837,113.0474,178.2837,117.0474,168.2837,121.0474,172.2837,117.0474" style="stroke:#0A9EFD;stroke-width:1;stroke-linejoin:miter;stroke-miterlimit:10;"/><line style="stroke:#0A9EFD;stroke-width:2;" x1="37.7793" x2="174.2837" y1="117.0474" y2="117.0474"/><text fill="#0A9EFD" font-family="Arial" font-size="13" lengthAdjust="spacing" textLength="58.5444" x="79.7593" y="112.2925">Open App</text></g><g class="message" data-entity-1="part2" data-entity-2="part2" data-source-line="14" id="msg2"><line style="stroke:#0A9EFD;stroke-width:2;" x1="180.2837" x2="222.2837" y1="145.9961" y2="145.9961"/><line style="stroke:#0A9EFD;stroke-width:2;" x1="222.2837" x2="222.2837" y1="145.9961" y2="158.9961"/><line style="stroke:#0A9EFD;stroke-width:2;" x1="181.2837" x2="222.2837" y1="158.9961" y2="158.9961"/><polygon fill="#0A9EFD" points="191.2837,154.9961,181.2837,158.9961,191.2837,162.9961,187.2837,158.9961" style="stroke:#0A9EFD;stroke-width:1;stroke-linejoin:miter;stroke-miterlimit:10;"/><text fill="#0A9EFD" font-family="Arial" font-size="13" lengthAdjust="spacing" textLength="293.4077" x="187.2837" y="141.2412">Create an Agora Engine instance using Video SDK</text></g><g class="message" data-entity-1="part2" data-entity-2="part2" data-source-line="15" id="msg3"><line style="stroke:#0A9EFD;stroke-width:2;" x1="180.2837" x2="222.2837" y1="187.9448" y2="187.9448"/><line style="stroke:#0A9EFD;stroke-width:2;" x1="222.2837" x2="222.2837" y1="187.9448" y2="200.9448"/><line style="stroke:#0A9EFD;stroke-width:2;" x1="181.2837" x2="222.2837" y1="200.9448" y2="200.9448"/><polygon fill="#0A9EFD" points="191.2837,196.9448,181.2837,200.9448,191.2837,204.9448,187.2837,200.9448" style="stroke:#0A9EFD;stroke-width:1;stroke-linejoin:miter;stroke-miterlimit:10;"/><text fill="#0A9EFD" font-family="Arial" font-size="13" lengthAdjust="spacing" textLength="232.0132" x="187.2837" y="183.1899">Enable audio and video in Agora Engine</text></g><path d="M10,215.9448 L78.8481,215.9448 L78.8481,222.8936 L68.8481,232.8936 L10,232.8936 L10,215.9448" fill="#EEEEEE" style="stroke:#0A9EFD;stroke-width:1.5;"/><rect fill="none" height="116.7949" style="stroke:#0A9EFD;stroke-width:2;" width="522.8542" x="10" y="215.9448"/><text fill="#000000" font-family="Arial" font-size="13" lengthAdjust="spacing" textLength="23.8481" x="25" y="229.1387">Join</text><g class="message" data-entity-1="part1" data-entity-2="part2" data-source-line="18" id="msg4"><polygon fill="#0A9EFD" points="168.2837,249.8423,178.2837,253.8423,168.2837,257.8423,172.2837,253.8423" style="stroke:#0A9EFD;stroke-width:1;stroke-linejoin:miter;stroke-miterlimit:10;"/><line style="stroke:#0A9EFD;stroke-width:2;" x1="37.7793" x2="174.2837" y1="253.8423" y2="253.8423"/><text fill="#0A9EFD" font-family="Arial" font-size="13" lengthAdjust="spacing" textLength="83.8398" x="67.1116" y="249.0874">Join a channel</text></g><g class="message" data-entity-1="part2" data-entity-2="part2" data-source-line="19" id="msg5"><line style="stroke:#0A9EFD;stroke-width:2;" x1="180.2837" x2="222.2837" y1="282.791" y2="282.791"/><line style="stroke:#0A9EFD;stroke-width:2;" x1="222.2837" x2="222.2837" y1="282.791" y2="295.791"/><line style="stroke:#0A9EFD;stroke-width:2;" x1="181.2837" x2="222.2837" y1="295.791" y2="295.791"/><polygon fill="#0A9EFD" points="191.2837,291.791,181.2837,295.791,191.2837,299.791,187.2837,295.791" style="stroke:#0A9EFD;stroke-width:1;stroke-linejoin:miter;stroke-miterlimit:10;"/><text fill="#0A9EFD" font-family="Arial" font-size="13" lengthAdjust="spacing" textLength="266.6777" x="187.2837" y="278.0361">Retrieve authentication token to join a channel</text></g><g class="message" data-entity-1="part2" data-entity-2="part3" data-source-line="20" id="msg6"><polygon fill="#0A9EFD" points="475.6914,320.7397,485.6914,324.7397,475.6914,328.7397,479.6914,324.7397" style="stroke:#0A9EFD;stroke-width:1;stroke-linejoin:miter;stroke-miterlimit:10;"/><line style="stroke:#0A9EFD;stroke-width:2;" x1="180.2837" x2="481.6914" y1="324.7397" y2="324.7397"/><text fill="#0A9EFD" font-family="Arial" font-size="13" lengthAdjust="spacing" textLength="94.6816" x="286.6467" y="319.9849">Join the channel</text></g><path d="M10,346.7397 L151.1162,346.7397 L151.1162,353.6885 L141.1162,363.6885 L10,363.6885 L10,346.7397" fill="#EEEEEE" style="stroke:#0A9EFD;stroke-width:1.5;"/><rect fill="none" height="190.6411" style="stroke:#0A9EFD;stroke-width:2;" width="522.8542" x="10" y="346.7397"/><text fill="#000000" font-family="Arial" font-size="13" lengthAdjust="spacing" textLength="96.1162" x="25" y="359.9336">Play audio effect</text><g class="message" data-entity-1="part1" data-entity-2="part2" data-source-line="24" id="msg7"><polygon fill="#0A9EFD" points="168.2837,380.6372,178.2837,384.6372,168.2837,388.6372,172.2837,384.6372" style="stroke:#0A9EFD;stroke-width:1;stroke-linejoin:miter;stroke-miterlimit:10;"/><line style="stroke:#0A9EFD;stroke-width:2;" x1="37.7793" x2="174.2837" y1="384.6372" y2="384.6372"/><text fill="#0A9EFD" font-family="Arial" font-size="13" lengthAdjust="spacing" textLength="115.6162" x="51.2234" y="379.8823">Trigger sound effect</text></g><g class="message" data-entity-1="part2" data-entity-2="part3" data-source-line="25" id="msg8"><polygon fill="#0A9EFD" points="475.6914,409.5859,485.6914,413.5859,475.6914,417.5859,479.6914,413.5859" style="stroke:#0A9EFD;stroke-width:1;stroke-linejoin:miter;stroke-miterlimit:10;"/><line style="stroke:#0A9EFD;stroke-width:2;" x1="180.2837" x2="481.6914" y1="413.5859" y2="413.5859"/><text fill="#0A9EFD" font-family="Arial" font-size="13" lengthAdjust="spacing" textLength="60.6963" x="303.6394" y="408.8311">Play effect</text></g><g class="message" data-entity-1="part2" data-entity-2="part3" data-source-line="26" id="msg9"><polygon fill="#0A9EFD" points="475.6914,438.5347,485.6914,442.5347,475.6914,446.5347,479.6914,442.5347" style="stroke:#0A9EFD;stroke-width:1;stroke-linejoin:miter;stroke-miterlimit:10;"/><line style="stroke:#0A9EFD;stroke-width:2;" x1="180.2837" x2="481.6914" y1="442.5347" y2="442.5347"/><text fill="#0A9EFD" font-family="Arial" font-size="13" lengthAdjust="spacing" textLength="144.5298" x="261.7227" y="437.7798">Pause and resume effect</text></g><g class="message" data-entity-1="part2" data-entity-2="part3" data-source-line="27" id="msg10"><polygon fill="#0A9EFD" points="475.6914,467.4834,485.6914,471.4834,475.6914,475.4834,479.6914,471.4834" style="stroke:#0A9EFD;stroke-width:1;stroke-linejoin:miter;stroke-miterlimit:10;"/><line style="stroke:#0A9EFD;stroke-width:2;" x1="180.2837" x2="481.6914" y1="471.4834" y2="471.4834"/><text fill="#0A9EFD" font-family="Arial" font-size="13" lengthAdjust="spacing" textLength="103.3398" x="282.3176" y="466.7285">Set effect position</text></g><g class="message" data-entity-1="part2" data-entity-2="part3" data-source-line="28" id="msg11"><polygon fill="#0A9EFD" points="475.6914,496.4321,485.6914,500.4321,475.6914,504.4321,479.6914,500.4321" style="stroke:#0A9EFD;stroke-width:1;stroke-linejoin:miter;stroke-miterlimit:10;"/><line style="stroke:#0A9EFD;stroke-width:2;" x1="180.2837" x2="481.6914" y1="500.4321" y2="500.4321"/><text fill="#0A9EFD" font-family="Arial" font-size="13" lengthAdjust="spacing" textLength="100.439" x="283.7681" y="495.6772">Set effect volume</text></g><g class="message" data-entity-1="part3" data-entity-2="part2" data-source-line="29" id="msg12"><polygon fill="#0A9EFD" points="191.2837,525.3809,181.2837,529.3809,191.2837,533.3809,187.2837,529.3809" style="stroke:#0A9EFD;stroke-width:1;stroke-linejoin:miter;stroke-miterlimit:10;"/><line style="stroke:#0A9EFD;stroke-width:2;" x1="185.2837" x2="486.6914" y1="529.3809" y2="529.3809"/><text fill="#0A9EFD" font-family="Arial" font-size="13" lengthAdjust="spacing" textLength="136.5889" x="265.6931" y="524.626">On audio effect finished</text></g><path d="M10,551.3809 L129.4263,551.3809 L129.4263,558.3296 L119.4263,568.3296 L10,568.3296 L10,551.3809" fill="#EEEEEE" style="stroke:#0A9EFD;stroke-width:1.5;"/><rect fill="none" height="103.7949" style="stroke:#0A9EFD;stroke-width:2;" width="522.8542" x="10" y="551.3809"/><text fill="#000000" font-family="Arial" font-size="13" lengthAdjust="spacing" textLength="74.4263" x="25" y="564.5747">Audio mixing</text><g class="message" data-entity-1="part1" data-entity-2="part2" data-source-line="33" id="msg13"><polygon fill="#0A9EFD" points="168.2837,585.2783,178.2837,589.2783,168.2837,593.2783,172.2837,589.2783" style="stroke:#0A9EFD;stroke-width:1;stroke-linejoin:miter;stroke-miterlimit:10;"/><line style="stroke:#0A9EFD;stroke-width:2;" x1="37.7793" x2="174.2837" y1="589.2783" y2="589.2783"/><text fill="#0A9EFD" font-family="Arial" font-size="13" lengthAdjust="spacing" textLength="118.5044" x="49.7793" y="584.5234">Control audio mixing</text></g><g class="message" data-entity-1="part2" data-entity-2="part3" data-source-line="34" id="msg14"><polygon fill="#0A9EFD" points="475.6914,614.2271,485.6914,618.2271,475.6914,622.2271,479.6914,618.2271" style="stroke:#0A9EFD;stroke-width:1;stroke-linejoin:miter;stroke-miterlimit:10;"/><line style="stroke:#0A9EFD;stroke-width:2;" x1="180.2837" x2="481.6914" y1="618.2271" y2="618.2271"/><text fill="#0A9EFD" font-family="Arial" font-size="13" lengthAdjust="spacing" textLength="104.0508" x="281.9622" y="613.4722">Start audio mixing</text></g><g class="message" data-entity-1="part2" data-entity-2="part3" data-source-line="35" id="msg15"><polygon fill="#0A9EFD" points="475.6914,643.1758,485.6914,647.1758,475.6914,651.1758,479.6914,647.1758" style="stroke:#0A9EFD;stroke-width:1;stroke-linejoin:miter;stroke-miterlimit:10;"/><line style="stroke:#0A9EFD;stroke-width:2;" x1="180.2837" x2="481.6914" y1="647.1758" y2="647.1758"/><text fill="#0A9EFD" font-family="Arial" font-size="13" lengthAdjust="spacing" textLength="103.3398" x="282.3176" y="642.4209">Stop audio mixing</text></g><path d="M10,669.1758 L129.4263,669.1758 L129.4263,676.1245 L119.4263,686.1245 L10,686.1245 L10,669.1758" fill="#EEEEEE" style="stroke:#0A9EFD;stroke-width:1.5;"/><rect fill="none" height="103.7949" style="stroke:#0A9EFD;stroke-width:2;" width="522.8542" x="10" y="669.1758"/><text fill="#000000" font-family="Arial" font-size="13" lengthAdjust="spacing" textLength="74.4263" x="25" y="682.3696">Voice effects</text><g class="message" data-entity-1="part1" data-entity-2="part2" data-source-line="39" id="msg16"><polygon fill="#0A9EFD" points="168.2837,703.0732,178.2837,707.0732,168.2837,711.0732,172.2837,707.0732" style="stroke:#0A9EFD;stroke-width:1;stroke-linejoin:miter;stroke-miterlimit:10;"/><line style="stroke:#0A9EFD;stroke-width:2;" x1="37.7793" x2="174.2837" y1="707.0732" y2="707.0732"/><text fill="#0A9EFD" font-family="Arial" font-size="13" lengthAdjust="spacing" textLength="112.728" x="52.6675" y="702.3184">Apply a voice effect</text></g><g class="message" data-entity-1="part2" data-entity-2="part3" data-source-line="40" id="msg17"><polygon fill="#0A9EFD" points="475.6914,732.022,485.6914,736.022,475.6914,740.022,479.6914,736.022" style="stroke:#0A9EFD;stroke-width:1;stroke-linejoin:miter;stroke-miterlimit:10;"/><line style="stroke:#0A9EFD;stroke-width:2;" x1="180.2837" x2="481.6914" y1="736.022" y2="736.022"/><text fill="#0A9EFD" font-family="Arial" font-size="13" lengthAdjust="spacing" textLength="128.6226" x="269.6763" y="731.2671">Set preset voice effect</text></g><g class="message" data-entity-1="part2" data-entity-2="part3" data-source-line="41" id="msg18"><polygon fill="#0A9EFD" points="475.6914,760.9707,485.6914,764.9707,475.6914,768.9707,479.6914,764.9707" style="stroke:#0A9EFD;stroke-width:1;stroke-linejoin:miter;stroke-miterlimit:10;"/><line style="stroke:#0A9EFD;stroke-width:2;" x1="180.2837" x2="481.6914" y1="764.9707" y2="764.9707"/><text fill="#0A9EFD" font-family="Arial" font-size="13" lengthAdjust="spacing" textLength="134.4053" x="266.7849" y="760.2158">Disable the voice effect</text></g><path d="M129.0425,786.9707 L288.2432,786.9707 L288.2432,793.9194 L278.2432,803.9194 L129.0425,803.9194 L129.0425,786.9707" fill="#EEEEEE" style="stroke:#0A9EFD;stroke-width:1.5;"/><rect fill="none" height="74.8462" style="stroke:#0A9EFD;stroke-width:2;" width="403.8118" x="129.0425" y="786.9707"/><text fill="#000000" font-family="Arial" font-size="13" lengthAdjust="spacing" textLength="114.2007" x="144.0425" y="800.1646">Change audio route</text><g class="message" data-entity-1="part2" data-entity-2="part3" data-source-line="45" id="msg19"><polygon fill="#0A9EFD" points="475.6914,820.8682,485.6914,824.8682,475.6914,828.8682,479.6914,824.8682" style="stroke:#0A9EFD;stroke-width:1;stroke-linejoin:miter;stroke-miterlimit:10;"/><line style="stroke:#0A9EFD;stroke-width:2;" x1="180.2837" x2="481.6914" y1="824.8682" y2="824.8682"/><text fill="#0A9EFD" font-family="Arial" font-size="13" lengthAdjust="spacing" textLength="130.8188" x="268.5781" y="820.1133">Set default audio route</text></g><g class="message" data-entity-1="part2" data-entity-2="part3" data-source-line="46" id="msg20"><polygon fill="#0A9EFD" points="475.6914,849.8169,485.6914,853.8169,475.6914,857.8169,479.6914,853.8169" style="stroke:#0A9EFD;stroke-width:1;stroke-linejoin:miter;stroke-miterlimit:10;"/><line style="stroke:#0A9EFD;stroke-width:2;" x1="180.2837" x2="481.6914" y1="853.8169" y2="853.8169"/><text fill="#0A9EFD" font-family="Arial" font-size="13" lengthAdjust="spacing" textLength="203.7915" x="232.0918" y="849.062">Change the audio route temporarily</text></g><g class="message" data-entity-1="part1" data-entity-2="part2" data-source-line="49" id="msg21"><polygon fill="#0A9EFD" points="168.2837,885.7656,178.2837,889.7656,168.2837,893.7656,172.2837,889.7656" style="stroke:#0A9EFD;stroke-width:1;stroke-linejoin:miter;stroke-miterlimit:10;"/><line style="stroke:#0A9EFD;stroke-width:2;" x1="37.7793" x2="174.2837" y1="889.7656" y2="889.7656"/><text fill="#0A9EFD" font-family="Arial" font-size="13" lengthAdjust="spacing" textLength="106.2534" x="55.9048" y="885.0107">Leave the channel</text></g><g class="message" data-entity-1="part2" data-entity-2="part3" data-source-line="50" id="msg22"><polygon fill="#0A9EFD" points="475.6914,914.7144,485.6914,918.7144,475.6914,922.7144,479.6914,918.7144" style="stroke:#0A9EFD;stroke-width:1;stroke-linejoin:miter;stroke-miterlimit:10;"/><line style="stroke:#0A9EFD;stroke-width:2;" x1="180.2837" x2="481.6914" y1="918.7144" y2="918.7144"/><text fill="#0A9EFD" font-family="Arial" font-size="13" lengthAdjust="spacing" textLength="106.2534" x="280.8608" y="913.9595">Leave the channel</text></g><?plantuml-src VLBDJYCn3BxdARnpP_UEAgIgvG2Be6e1YTCgpBXJG-f4-QdWfVOXzibmXXGcbEwbezhVZp_7FuXRape4tLkl_uHduf-KjaOftKRheRaBw1lG0UvMIwKUxGiq3pPvqCurocaVgIMdEK9pJnrQMCr_3_3fOg6GEn16eKspmnVEQhwylPw4vCx-_Ptyojz2llWaYp6Sd6N1KxXno31rJic_Z-BCeuwIG3hP0iwv9qOW3b5pYv02SGyVurNSSzQFHhYf8oiA7Um66DLQIlNU9WUNbhYQ9nT0GxlHp6WgvIL6JxZBsd63B9br9CiGxJFcNtWwmhqeiiBQDo5lOp_4mkZNCZ2krzZ6Qg9RJtsF7e9DagO0nje3_RkwJW675NWCQOlVOLOOIncS3PJp7Ellh16HeJivUU_US3Ksh8afRB0RXviEW2szo9DLkMQMexUcA1H0vHtbiFxNjgxkZbplBRNxmA6obLipics9yuauYEnaOnYFO-OKXYlBBrg1HYFCvANx_I5A9UA1JOThdKmyYYaIsMK4WOXR9wVioRo-6uxpNQ7UuVZKAiN3xXi0?></g></svg>