<svg xmlns="http://www.w3.org/2000/svg" xmlns:xlink="http://www.w3.org/1999/xlink" contentStyleType="text/css" data-diagram-type="SEQUENCE" height="1091px" preserveAspectRatio="none" style="width:567px;height:1091px;" version="1.1" viewBox="0 0 567 1091" width="567px" zoomAndPan="magnify"><?plantuml 1.2026.4?><defs/><g><rect fill="none" height="1089.366" style="stroke:#0A9EFD;stroke-width:1;" width="565.8545" x="0" y="0"/><rect fill="#999999" fill-opacity="0.33333" height="1078.366" style="stroke:#0A9EFD;stroke-width:0.5;" width="68.0991" x="7.2838" y="6"/><text fill="#0A9EFD" font-family="sans-serif" font-size="13" font-weight="700" lengthAdjust="spacing" textLength="62.0991" x="10.2838" y="19.4951">App: Host</text><rect fill="#999999" fill-opacity="0.33333" height="1078.366" style="stroke:#0A9EFD;stroke-width:0.5;" width="50.6667" x="264.7714" y="6"/><text fill="#0A9EFD" font-family="sans-serif" font-size="13" font-weight="700" lengthAdjust="spacing" textLength="27.4473" x="276.3811" y="19.4951">SDK</text><rect fill="#999999" fill-opacity="0.33333" height="1078.366" style="stroke:#0A9EFD;stroke-width:0.5;" width="61.7563" x="489.643" y="6"/><text fill="#0A9EFD" font-family="sans-serif" font-size="13" font-weight="700" lengthAdjust="spacing" textLength="37.5591" x="501.7416" y="19.4951">Agora</text><text fill="#0A9EFD" font-family="sans-serif" font-size="13" font-weight="700" lengthAdjust="spacing" textLength="44.7764" x="496.2548" y="38.0732">SDRTN</text><text fill="#0A9EFD" font-family="sans-serif" font-size="10" font-weight="700" lengthAdjust="spacing" textLength="7.3682" x="541.0312" y="32.7324">&#174;</text><rect fill="#0A9EFD" fill-opacity="0.06667" height="133.6924" style="stroke:#0A9EFD;stroke-width:2;" width="541.8545" x="10" y="226.34"/><rect fill="#0A9EFD" fill-opacity="0.06667" height="133.6924" style="stroke:#0A9EFD;stroke-width:2;" width="541.8545" x="10" y="374.0324"/><rect fill="#0A9EFD" fill-opacity="0.06667" height="133.6924" style="stroke:#0A9EFD;stroke-width:2;" width="541.8545" x="10" y="521.7248"/><rect fill="#0A9EFD" fill-opacity="0.06667" height="133.6924" style="stroke:#0A9EFD;stroke-width:2;" width="541.8545" x="10" y="669.4172"/><rect fill="#0A9EFD" fill-opacity="0.06667" height="118.7437" style="stroke:#0A9EFD;stroke-width:2;" width="541.8545" x="10" y="817.1095"/><g class="participant-lifeline" data-entity-uid="part1" data-qualified-name="APP" data-source-line="4" id="part1-lifeline"><g><title>.size.40...tablet.</title><rect fill="#000000" fill-opacity="0.00000" height="953.103" width="8" x="37.3333" y="86.5964"/><line style="stroke:#0A9EFD;stroke-width:0.5;stroke-dasharray:5,5;" x1="41" x2="41" y1="86.5964" y2="1039.6994"/></g></g><g class="participant-lifeline" data-entity-uid="part2" data-qualified-name="SDK" data-source-line="8" id="part2-lifeline"><g><title>.size.40...layers.</title><rect fill="#000000" fill-opacity="0.00000" height="953.103" width="8" x="286.1047" y="86.5964"/><line style="stroke:#0A9EFD;stroke-width:0.5;stroke-dasharray:5,5;" x1="289.7714" x2="289.7714" y1="86.5964" y2="1039.6994"/></g></g><g class="participant-lifeline" data-entity-uid="part3" data-qualified-name="RTN" data-source-line="12" id="part3-lifeline"><g><title>.size.40...cloud.</title><rect fill="#000000" fill-opacity="0.00000" height="953.103" width="8" x="516.5212" y="86.5964"/><line style="stroke:#0A9EFD;stroke-width:0.5;stroke-dasharray:5,5;" x1="520.1878" x2="520.1878" y1="86.5964" y2="1039.6994"/></g></g><g class="participant participant-head" data-entity-uid="part1" data-qualified-name="APP" data-source-line="4" id="part1-head"><rect fill="none" height="40.6667" rx="2.5" ry="2.5" style="stroke:#0A9EFD;stroke-width:2;" width="42.6667" x="20" y="44.9297"/><path d="M29.1333,51.9297 C28.5333,51.9297 28,52.463 28,53.063 L28,77.4297 C28,78.0297 28.5333,78.563 29.1333,78.563 L50.1667,78.563 C50.7667,78.563 51.3,78.0297 51.3,77.4297 L51.3,53.063 C51.3,52.463 50.7667,51.9297 50.1667,51.9297 L29.1333,51.9297 M31.3333,55.263 L48,55.263 L48,71.9297 L31.3333,71.9297 L31.3333,55.263 M39.6667,73.5964 C40.9333,73.5964 41.7667,74.9964 41.1333,76.0964 C40.5,77.1964 38.8667,77.1964 38.2,76.0964 C37.5667,74.9964 38.3667,73.5964 39.6667,73.5964" fill="#0A9EFD"/></g><g class="participant participant-tail" data-entity-uid="part1" data-qualified-name="APP" data-source-line="4" id="part1-tail"><rect fill="none" height="40.6667" rx="2.5" ry="2.5" style="stroke:#0A9EFD;stroke-width:2;" width="42.6667" x="20" y="1038.6994"/><path d="M29.1333,1045.6994 C28.5333,1045.6994 28,1046.2327 28,1046.8327 L28,1071.1994 C28,1071.7994 28.5333,1072.3327 29.1333,1072.3327 L50.1667,1072.3327 C50.7667,1072.3327 51.3,1071.7994 51.3,1071.1994 L51.3,1046.8327 C51.3,1046.2327 50.7667,1045.6994 50.1667,1045.6994 L29.1333,1045.6994 M31.3333,1049.0327 L48,1049.0327 L48,1065.6994 L31.3333,1065.6994 L31.3333,1049.0327 M39.6667,1067.366 C40.9333,1067.366 41.7667,1068.766 41.1333,1069.866 C40.5,1070.966 38.8667,1070.966 38.2,1069.866 C37.5667,1068.766 38.3667,1067.366 39.6667,1067.366" fill="#0A9EFD"/></g><g class="participant participant-head" data-entity-uid="part2" data-qualified-name="SDK" data-source-line="8" id="part2-head"><rect fill="none" height="40.6667" rx="2.5" ry="2.5" style="stroke:#0A9EFD;stroke-width:2;" width="42.6667" x="268.7714" y="44.9297"/><path d="M276.7714,51.9297 L276.7714,65.263 L290.1047,65.263 L290.1047,51.9297 L276.7714,51.9297 M293.4381,58.5964 L293.4381,68.5964 L283.4381,68.5964 L283.4381,71.9297 L296.7714,71.9297 L296.7714,58.5964 L293.4381,58.5964 M300.1047,65.263 L300.1047,75.263 L290.1047,75.263 L290.1047,78.5964 L303.4381,78.5964 L303.4381,65.263 L300.1047,65.263" fill="#0A9EFD"/></g><g class="participant participant-tail" data-entity-uid="part2" data-qualified-name="SDK" data-source-line="8" id="part2-tail"><rect fill="none" height="40.6667" rx="2.5" ry="2.5" style="stroke:#0A9EFD;stroke-width:2;" width="42.6667" x="268.7714" y="1038.6994"/><path d="M276.7714,1045.6994 L276.7714,1059.0327 L290.1047,1059.0327 L290.1047,1045.6994 L276.7714,1045.6994 M293.4381,1052.366 L293.4381,1062.366 L283.4381,1062.366 L283.4381,1065.6994 L296.7714,1065.6994 L296.7714,1052.366 L293.4381,1052.366 M300.1047,1059.0327 L300.1047,1069.0327 L290.1047,1069.0327 L290.1047,1072.366 L303.4381,1072.366 L303.4381,1059.0327 L300.1047,1059.0327" fill="#0A9EFD"/></g><g class="participant participant-head" data-entity-uid="part3" data-qualified-name="RTN" data-source-line="12" id="part3-head"><rect fill="none" height="40.6667" rx="2.5" ry="2.5" style="stroke:#0A9EFD;stroke-width:2;" width="42.6667" x="499.1878" y="44.9297"/><path d="M522.1878,55.263 C518.1545,55.263 514.6212,58.1297 513.8545,61.9297 C510.1878,61.9297 507.1878,64.9297 507.1878,68.5964 C507.1878,72.263 510.1878,75.263 513.8545,75.263 L528.8545,75.263 C531.6212,75.263 533.8545,73.0297 533.8545,70.263 C533.8545,68.0964 532.4545,65.963 530.5212,65.263 L530.5212,63.5964 C530.5212,58.9964 526.7878,55.263 522.1878,55.263" fill="#0A9EFD"/></g><g class="participant participant-tail" data-entity-uid="part3" data-qualified-name="RTN" data-source-line="12" id="part3-tail"><rect fill="none" height="40.6667" rx="2.5" ry="2.5" style="stroke:#0A9EFD;stroke-width:2;" width="42.6667" x="499.1878" y="1038.6994"/><path d="M522.1878,1049.0327 C518.1545,1049.0327 514.6212,1051.8994 513.8545,1055.6994 C510.1878,1055.6994 507.1878,1058.6994 507.1878,1062.366 C507.1878,1066.0327 510.1878,1069.0327 513.8545,1069.0327 L528.8545,1069.0327 C531.6212,1069.0327 533.8545,1066.7994 533.8545,1064.0327 C533.8545,1061.866 532.4545,1059.7327 530.5212,1059.0327 L530.5212,1057.366 C530.5212,1052.766 526.7878,1049.0327 522.1878,1049.0327" fill="#0A9EFD"/></g><g class="message" data-entity-1="part1" data-entity-2="part2" data-source-line="15" id="msg1"><polygon fill="#0A9EFD" points="278.1047,113.5451,288.1047,117.5451,278.1047,121.5451,282.1047,117.5451" style="stroke:#0A9EFD;stroke-width:1;stroke-linejoin:miter;stroke-miterlimit:10;"/><line style="stroke:#0A9EFD;stroke-width:2;" x1="41.3333" x2="284.1047" y1="117.5451" y2="117.5451"/><text fill="#0A9EFD" font-family="Arial" font-size="13" lengthAdjust="spacing" textLength="178.5088" x="76.4646" y="112.7902">Create and initialize the engine</text></g><g class="message" data-entity-1="part1" data-entity-2="part2" data-source-line="16" id="msg2"><polygon fill="#0A9EFD" points="278.1047,160.4425,288.1047,164.4425,278.1047,168.4425,282.1047,164.4425" style="stroke:#0A9EFD;stroke-width:1;stroke-linejoin:miter;stroke-miterlimit:10;"/><line style="stroke:#0A9EFD;stroke-width:2;" x1="41.3333" x2="284.1047" y1="164.4425" y2="164.4425"/><text fill="#0A9EFD" font-family="Arial" font-size="13" lengthAdjust="spacing" textLength="140.937" x="95.2505" y="144.7389">Join the channel and set</text><text fill="#0A9EFD" font-family="Arial" font-size="13" lengthAdjust="spacing" textLength="139.4707" x="97.7896" y="159.6877">the user role as the host</text></g><path d="M295,130.5451 L295,169.5451 L464,169.5451 L464,140.5451 L454,130.5451 L295,130.5451" fill="none" style="stroke:#0A9EFD;stroke-width:1;"/><path d="M454,130.5451 L454,140.5451 L464,140.5451 L454,130.5451" fill="none" style="stroke:#0A9EFD;stroke-width:1;"/><text fill="#0A9EFD" font-family="Arial" font-size="13" lengthAdjust="spacing" textLength="106.209" x="324.8281" y="147.7389">Only the stream of</text><text fill="#0A9EFD" font-family="Arial" font-size="13" lengthAdjust="spacing" textLength="139.4771" x="310" y="162.6877">a host can be forwarded</text><g class="message" data-entity-1="part2" data-entity-2="part3" data-source-line="18" id="msg4"><polygon fill="#0A9EFD" points="508.5212,207.34,518.5212,211.34,508.5212,215.34,512.5212,211.34" style="stroke:#0A9EFD;stroke-width:1;stroke-linejoin:miter;stroke-miterlimit:10;"/><line style="stroke:#0A9EFD;stroke-width:2;" x1="290.1047" x2="514.5212" y1="211.34" y2="211.34"/><text fill="#0A9EFD" font-family="Arial" font-size="13" lengthAdjust="spacing" textLength="108.4053" x="349.3044" y="191.6364">Request to join the</text><text fill="#0A9EFD" font-family="Arial" font-size="13" lengthAdjust="spacing" textLength="125.0234" x="342.8012" y="206.5851">live channel as a host</text></g><path d="M10,226.34 L82.4536,226.34 L82.4536,233.2887 L72.4536,243.2887 L10,243.2887 L10,226.34" fill="#EEEEEE" style="stroke:#0A9EFD;stroke-width:1.5;"/><rect fill="none" height="133.6924" style="stroke:#0A9EFD;stroke-width:2;" width="541.8545" x="10" y="226.34"/><text fill="#000000" font-family="Arial" font-size="13" lengthAdjust="spacing" textLength="27.4536" x="25" y="239.5339">Start</text><g class="message" data-entity-1="part1" data-entity-2="part2" data-source-line="21" id="msg5"><polygon fill="#0A9EFD" points="278.1047,275.1862,288.1047,279.1862,278.1047,283.1862,282.1047,279.1862" style="stroke:#0A9EFD;stroke-width:1;stroke-linejoin:miter;stroke-miterlimit:10;"/><line style="stroke:#0A9EFD;stroke-width:2;" x1="41.3333" x2="284.1047" y1="279.1862" y2="279.1862"/><text fill="#0A9EFD" font-family="Arial" font-size="13" lengthAdjust="spacing" textLength="111.9917" x="109.7232" y="259.4826">Start cross-channel</text><text fill="#0A9EFD" font-family="Arial" font-size="13" lengthAdjust="spacing" textLength="143.0571" x="95.9964" y="274.4313">media stream forwarding</text></g><g class="message" data-entity-1="part2" data-entity-2="part3" data-source-line="22" id="msg6"><polygon fill="#0A9EFD" points="508.5212,304.1349,518.5212,308.1349,508.5212,312.1349,512.5212,308.1349" style="stroke:#0A9EFD;stroke-width:1;stroke-linejoin:miter;stroke-miterlimit:10;"/><line style="stroke:#0A9EFD;stroke-width:2;" x1="290.1047" x2="514.5212" y1="308.1349" y2="308.1349"/><text fill="#0A9EFD" font-family="Arial" font-size="13" lengthAdjust="spacing" textLength="139.458" x="335.5839" y="303.38">Request forwarding flow</text></g><g class="message" data-entity-1="part2" data-entity-2="part1" data-source-line="23" id="msg7"><polygon fill="#0A9EFD" points="52.3333,348.0324,42.3333,352.0324,52.3333,356.0324,48.3333,352.0324" style="stroke:#0A9EFD;stroke-width:1;stroke-linejoin:miter;stroke-miterlimit:10;"/><line style="stroke:#0A9EFD;stroke-width:2;stroke-dasharray:2,2;" x1="46.3333" x2="289.1047" y1="352.0324" y2="352.0324"/><text fill="#0A9EFD" font-family="Arial" font-size="13" lengthAdjust="spacing" textLength="216.0552" x="57.6914" y="332.3288">The source channel host successfully</text><text fill="#0A9EFD" font-family="Arial" font-size="13" lengthAdjust="spacing" textLength="142.3843" x="96.3328" y="347.2775">joined the target channel</text></g><path d="M10,374.0324 L95.4663,374.0324 L95.4663,380.9811 L85.4663,390.9811 L10,390.9811 L10,374.0324" fill="#EEEEEE" style="stroke:#0A9EFD;stroke-width:1.5;"/><rect fill="none" height="133.6924" style="stroke:#0A9EFD;stroke-width:2;" width="541.8545" x="10" y="374.0324"/><text fill="#000000" font-family="Arial" font-size="13" lengthAdjust="spacing" textLength="40.4663" x="25" y="387.2262">Renew</text><g class="message" data-entity-1="part1" data-entity-2="part2" data-source-line="27" id="msg8"><polygon fill="#0A9EFD" points="278.1047,422.8786,288.1047,426.8786,278.1047,430.8786,282.1047,426.8786" style="stroke:#0A9EFD;stroke-width:1;stroke-linejoin:miter;stroke-miterlimit:10;"/><line style="stroke:#0A9EFD;stroke-width:2;" x1="41.3333" x2="284.1047" y1="426.8786" y2="426.8786"/><text fill="#0A9EFD" font-family="Arial" font-size="13" lengthAdjust="spacing" textLength="149.6079" x="90.9151" y="407.175">Update the target channel</text><text fill="#0A9EFD" font-family="Arial" font-size="13" lengthAdjust="spacing" textLength="161.8398" x="86.605" y="422.1237">for media stream forwarding</text></g><g class="message" data-entity-1="part2" data-entity-2="part3" data-source-line="28" id="msg9"><polygon fill="#0A9EFD" points="508.5212,466.776,518.5212,470.776,508.5212,474.776,512.5212,470.776" style="stroke:#0A9EFD;stroke-width:1;stroke-linejoin:miter;stroke-miterlimit:10;"/><line style="stroke:#0A9EFD;stroke-width:2;" x1="290.1047" x2="514.5212" y1="470.776" y2="470.776"/><text fill="#0A9EFD" font-family="Arial" font-size="13" lengthAdjust="spacing" textLength="146.0024" x="332.3117" y="451.0724">Request an update to the</text><text fill="#0A9EFD" font-family="Arial" font-size="13" lengthAdjust="spacing" textLength="109.8462" x="352.1958" y="466.0212">forwarding channel</text></g><g class="message" data-entity-1="part2" data-entity-2="part1" data-source-line="29" id="msg10"><polygon fill="#0A9EFD" points="52.3333,495.7248,42.3333,499.7248,52.3333,503.7248,48.3333,499.7248" style="stroke:#0A9EFD;stroke-width:1;stroke-linejoin:miter;stroke-miterlimit:10;"/><line style="stroke:#0A9EFD;stroke-width:2;stroke-dasharray:2,2;" x1="46.3333" x2="289.1047" y1="499.7248" y2="499.7248"/><text fill="#0A9EFD" font-family="Arial" font-size="13" lengthAdjust="spacing" textLength="208.1587" x="61.6397" y="494.9699">Target channels have been updated</text></g><path d="M10,521.7248 L91.8608,521.7248 L91.8608,528.6735 L81.8608,538.6735 L10,538.6735 L10,521.7248" fill="#EEEEEE" style="stroke:#0A9EFD;stroke-width:1.5;"/><rect fill="none" height="133.6924" style="stroke:#0A9EFD;stroke-width:2;" width="541.8545" x="10" y="521.7248"/><text fill="#000000" font-family="Arial" font-size="13" lengthAdjust="spacing" textLength="36.8608" x="25" y="534.9186">Pause</text><g class="message" data-entity-1="part1" data-entity-2="part2" data-source-line="32" id="msg11"><polygon fill="#0A9EFD" points="278.1047,570.571,288.1047,574.571,278.1047,578.571,282.1047,574.571" style="stroke:#0A9EFD;stroke-width:1;stroke-linejoin:miter;stroke-miterlimit:10;"/><line style="stroke:#0A9EFD;stroke-width:2;" x1="41.3333" x2="284.1047" y1="574.571" y2="574.571"/><text fill="#0A9EFD" font-family="Arial" font-size="13" lengthAdjust="spacing" textLength="204.4834" x="63.4773" y="554.8674">Pause forwarding of media streams</text><text fill="#0A9EFD" font-family="Arial" font-size="13" lengthAdjust="spacing" textLength="119.9644" x="107.5428" y="569.8161">to all target channels</text></g><g class="message" data-entity-1="part2" data-entity-2="part3" data-source-line="33" id="msg12"><polygon fill="#0A9EFD" points="508.5212,599.5197,518.5212,603.5197,508.5212,607.5197,512.5212,603.5197" style="stroke:#0A9EFD;stroke-width:1;stroke-linejoin:miter;stroke-miterlimit:10;"/><line style="stroke:#0A9EFD;stroke-width:2;" x1="290.1047" x2="514.5212" y1="603.5197" y2="603.5197"/><text fill="#0A9EFD" font-family="Arial" font-size="13" lengthAdjust="spacing" textLength="192.9434" x="308.8413" y="598.7648">Request to pause forwarding flow</text></g><g class="message" data-entity-1="part2" data-entity-2="part1" data-source-line="34" id="msg13"><polygon fill="#0A9EFD" points="52.3333,643.4172,42.3333,647.4172,52.3333,651.4172,48.3333,647.4172" style="stroke:#0A9EFD;stroke-width:1;stroke-linejoin:miter;stroke-miterlimit:10;"/><line style="stroke:#0A9EFD;stroke-width:2;stroke-dasharray:2,2;" x1="46.3333" x2="289.1047" y1="647.4172" y2="647.4172"/><text fill="#0A9EFD" font-family="Arial" font-size="13" lengthAdjust="spacing" textLength="183.5298" x="73.9541" y="627.7135">Pause forwarding media stream</text><text fill="#0A9EFD" font-family="Arial" font-size="13" lengthAdjust="spacing" textLength="161.1479" x="86.951" y="642.6623">to target channel successful</text></g><path d="M10,669.4172 L103.4072,669.4172 L103.4072,676.3659 L93.4072,686.3659 L10,686.3659 L10,669.4172" fill="#EEEEEE" style="stroke:#0A9EFD;stroke-width:1.5;"/><rect fill="none" height="133.6924" style="stroke:#0A9EFD;stroke-width:2;" width="541.8545" x="10" y="669.4172"/><text fill="#000000" font-family="Arial" font-size="13" lengthAdjust="spacing" textLength="48.4072" x="25" y="682.611">Recover</text><g class="message" data-entity-1="part1" data-entity-2="part2" data-source-line="37" id="msg14"><polygon fill="#0A9EFD" points="278.1047,718.2633,288.1047,722.2633,278.1047,726.2633,282.1047,722.2633" style="stroke:#0A9EFD;stroke-width:1;stroke-linejoin:miter;stroke-miterlimit:10;"/><line style="stroke:#0A9EFD;stroke-width:2;" x1="41.3333" x2="284.1047" y1="722.2633" y2="722.2633"/><text fill="#0A9EFD" font-family="Arial" font-size="13" lengthAdjust="spacing" textLength="201.5762" x="64.9309" y="702.5597">Resume forwarding media streams</text><text fill="#0A9EFD" font-family="Arial" font-size="13" lengthAdjust="spacing" textLength="123.5762" x="105.7369" y="717.5085">to all target channels,</text></g><g class="message" data-entity-1="part2" data-entity-2="part3" data-source-line="38" id="msg15"><polygon fill="#0A9EFD" points="508.5212,747.2121,518.5212,751.2121,508.5212,755.2121,512.5212,751.2121" style="stroke:#0A9EFD;stroke-width:1;stroke-linejoin:miter;stroke-miterlimit:10;"/><line style="stroke:#0A9EFD;stroke-width:2;" x1="290.1047" x2="514.5212" y1="751.2121" y2="751.2121"/><text fill="#0A9EFD" font-family="Arial" font-size="13" lengthAdjust="spacing" textLength="200.8716" x="304.8772" y="746.4572">Request to resume forwarding flow</text></g><g class="message" data-entity-1="part2" data-entity-2="part1" data-source-line="39" id="msg16"><polygon fill="#0A9EFD" points="52.3333,791.1095,42.3333,795.1095,52.3333,799.1095,48.3333,795.1095" style="stroke:#0A9EFD;stroke-width:1;stroke-linejoin:miter;stroke-miterlimit:10;"/><line style="stroke:#0A9EFD;stroke-width:2;stroke-dasharray:2,2;" x1="46.3333" x2="289.1047" y1="795.1095" y2="795.1095"/><text fill="#0A9EFD" font-family="Arial" font-size="13" lengthAdjust="spacing" textLength="201.5762" x="64.9309" y="775.4059">Resume forwarding media streams</text><text fill="#0A9EFD" font-family="Arial" font-size="13" lengthAdjust="spacing" textLength="182.8315" x="76.1092" y="790.3547">to the target channel successful</text></g><path d="M10,817.1095 L81.7427,817.1095 L81.7427,824.0583 L71.7427,834.0583 L10,834.0583 L10,817.1095" fill="#EEEEEE" style="stroke:#0A9EFD;stroke-width:1.5;"/><rect fill="none" height="118.7437" style="stroke:#0A9EFD;stroke-width:2;" width="541.8545" x="10" y="817.1095"/><text fill="#000000" font-family="Arial" font-size="13" lengthAdjust="spacing" textLength="26.7427" x="25" y="830.3034">Stop</text><g class="message" data-entity-1="part1" data-entity-2="part2" data-source-line="42" id="msg17"><polygon fill="#0A9EFD" points="278.1047,865.9557,288.1047,869.9557,278.1047,873.9557,282.1047,869.9557" style="stroke:#0A9EFD;stroke-width:1;stroke-linejoin:miter;stroke-miterlimit:10;"/><line style="stroke:#0A9EFD;stroke-width:2;" x1="41.3333" x2="284.1047" y1="869.9557" y2="869.9557"/><text fill="#0A9EFD" font-family="Arial" font-size="13" lengthAdjust="spacing" textLength="111.2808" x="110.0787" y="850.2521">Stop cross-channel</text><text fill="#0A9EFD" font-family="Arial" font-size="13" lengthAdjust="spacing" textLength="143.0571" x="95.9964" y="865.2008">media stream forwarding</text></g><g class="message" data-entity-1="part2" data-entity-2="part3" data-source-line="43" id="msg18"><polygon fill="#0A9EFD" points="508.5212,894.9045,518.5212,898.9045,508.5212,902.9045,512.5212,898.9045" style="stroke:#0A9EFD;stroke-width:1;stroke-linejoin:miter;stroke-miterlimit:10;"/><line style="stroke:#0A9EFD;stroke-width:2;" x1="290.1047" x2="514.5212" y1="898.9045" y2="898.9045"/><text fill="#0A9EFD" font-family="Arial" font-size="13" lengthAdjust="spacing" textLength="182.0952" x="314.2653" y="894.1496">Request to stop forwarding flow</text></g><g class="message" data-entity-1="part2" data-entity-2="part1" data-source-line="44" id="msg19"><polygon fill="#0A9EFD" points="52.3333,923.8532,42.3333,927.8532,52.3333,931.8532,48.3333,927.8532" style="stroke:#0A9EFD;stroke-width:1;stroke-linejoin:miter;stroke-miterlimit:10;"/><line style="stroke:#0A9EFD;stroke-width:2;stroke-dasharray:2,2;" x1="46.3333" x2="289.1047" y1="927.8532" y2="927.8532"/><text fill="#0A9EFD" font-family="Arial" font-size="13" lengthAdjust="spacing" textLength="195.1016" x="68.1683" y="923.0983">Stopped media stream forwarding</text></g><g class="message" data-entity-1="part1" data-entity-2="part2" data-source-line="47" id="msg20"><polygon fill="#0A9EFD" points="278.1047,959.8019,288.1047,963.8019,278.1047,967.8019,282.1047,963.8019" style="stroke:#0A9EFD;stroke-width:1;stroke-linejoin:miter;stroke-miterlimit:10;"/><line style="stroke:#0A9EFD;stroke-width:2;" x1="41.3333" x2="284.1047" y1="963.8019" y2="963.8019"/><text fill="#0A9EFD" font-family="Arial" font-size="13" lengthAdjust="spacing" textLength="84.5698" x="123.4341" y="959.047">Leave channel</text></g><g class="message" data-entity-1="part2" data-entity-2="part3" data-source-line="48" id="msg21"><polygon fill="#0A9EFD" points="508.5212,988.7507,518.5212,992.7507,508.5212,996.7507,512.5212,992.7507" style="stroke:#0A9EFD;stroke-width:1;stroke-linejoin:miter;stroke-miterlimit:10;"/><line style="stroke:#0A9EFD;stroke-width:2;" x1="290.1047" x2="514.5212" y1="992.7507" y2="992.7507"/><text fill="#0A9EFD" font-family="Arial" font-size="13" lengthAdjust="spacing" textLength="146.7134" x="331.9563" y="987.9958">Request to leave channel</text></g><g class="message" data-entity-1="part1" data-entity-2="part2" data-source-line="49" id="msg22"><polygon fill="#0A9EFD" points="278.1047,1017.6994,288.1047,1021.6994,278.1047,1025.6994,282.1047,1021.6994" style="stroke:#0A9EFD;stroke-width:1;stroke-linejoin:miter;stroke-miterlimit:10;"/><line style="stroke:#0A9EFD;stroke-width:2;" x1="41.3333" x2="284.1047" y1="1021.6994" y2="1021.6994"/><text fill="#0A9EFD" font-family="Arial" font-size="13" lengthAdjust="spacing" textLength="109.1226" x="111.1578" y="1016.9445">Destroy the engine</text></g><?plantuml-src fPJDhjCm48NtUOgX2rOKMB2AgaWLTt452Ahqigk4N6UQ6bpR-EUMyb0y14_6s6aKDsqGwAwgP6RE-Ox7wJEXk0mD0ckrPL_SDw5UYd2GHR7LFs2sDAQ4U-tyh33CUi65OSh3RE74JopVlAuMpptRIlJL39Y3vMfLe6g0Piy2wxltqwEIdT2wRfGQHwFBIBHHLAaVFYvSCDNlNujNyNTQaKiTcawGXWP10fjNP572MulCKrog22MyO9A6mUyHKBL2OTRwJWkLAdpFb4APXXpwJVSsEBHWjSJe5b_iwPmAfKdTYdRlI_Yav2bLd2VN0-WTR1HBVS2PWYt2JjiZimqs1LdEAu8keSRl0Qd5Q_ZQ8soK58yPYODEfoXQguE1jQSJoTZJCt2hdPkVXmZxW8rWFStPMgZsXlTGX9tKnzGnhqY_X8SOI0VB1voKo0NEqRbTaF94NX4TcmHFB2twlZjkfSUkKU4nm_vichYTwo4I9AJ_24376yvYEkfr0dsc7YMFTU7dOC_elBU8lKwJk3li5QFbPzZfETUdJUUeBbuP3KpAKIntU-rch3VUmPLXxjQPNHfbsu4iI8rSFwBDejJemc5IUZh8Yzj9x9NSECe_6LvVY2nGbcVjjRdu2hHvmaT0nYug_8K-EXYwvbEYwQuFG1-G3L_nRKTvqJACtb7TwbF-L_K7?></g></svg>