<svg xmlns="http://www.w3.org/2000/svg" xmlns:xlink="http://www.w3.org/1999/xlink" contentStyleType="text/css" data-diagram-type="SEQUENCE" height="493px" preserveAspectRatio="none" style="width:658px;height:493px;" version="1.1" viewBox="0 0 658 493" width="658px" zoomAndPan="magnify"><?plantuml 1.2026.4?><defs/><g><rect fill="none" height="491.2962" style="stroke:#0A9EFD;stroke-width:1;" width="656.0693" x="0" y="0"/><rect fill="#999999" fill-opacity="0.33333" height="480.2962" style="stroke:#0A9EFD;stroke-width:0.5;" width="50.6667" x="16" y="6"/><text fill="#0A9EFD" font-family="sans-serif" font-size="13" font-weight="700" lengthAdjust="spacing" textLength="25.27" x="28.6983" y="19.4951">App</text><rect fill="#999999" fill-opacity="0.33333" height="480.2962" style="stroke:#0A9EFD;stroke-width:0.5;" width="50.6667" x="353.606" y="6"/><text fill="#0A9EFD" font-family="sans-serif" font-size="13" font-weight="700" lengthAdjust="spacing" textLength="27.4473" x="365.2157" y="19.4951">SDK</text><rect fill="#999999" fill-opacity="0.33333" height="480.2962" style="stroke:#0A9EFD;stroke-width:0.5;" width="99.3154" x="551.7539" y="6"/><text fill="#0A9EFD" font-family="sans-serif" font-size="13" font-weight="700" lengthAdjust="spacing" textLength="85.9473" x="554.7539" y="21.7217">Agora SDRTN</text><text fill="#0A9EFD" font-family="sans-serif" font-size="10" font-weight="700" lengthAdjust="spacing" textLength="7.3682" x="640.7012" y="16.3809">&#174;</text><rect fill="#0A9EFD" fill-opacity="0.06667" height="161.6924" style="stroke:#0A9EFD;stroke-width:2;" width="622.745" x="10" y="116.1935"/><rect fill="#0A9EFD" fill-opacity="0.06667" height="132.7437" style="stroke:#0A9EFD;stroke-width:2;" width="622.745" x="10" y="291.8859"/><g class="participant-lifeline" data-entity-uid="part1" data-qualified-name="APP" data-source-line="4" id="part1-lifeline"><g><title>.size.40...tablet.</title><rect fill="#000000" fill-opacity="0.00000" height="371.3848" width="8" x="37.3333" y="70.2448"/><line style="stroke:#0A9EFD;stroke-width:0.5;stroke-dasharray:5,5;" x1="41" x2="41" y1="70.2448" y2="441.6296"/></g></g><g class="participant-lifeline" data-entity-uid="part2" data-qualified-name="SDK" data-source-line="8" id="part2-lifeline"><g><title>.size.40...layers.</title><rect fill="#000000" fill-opacity="0.00000" height="371.3848" width="8" x="374.9393" y="70.2448"/><line style="stroke:#0A9EFD;stroke-width:0.5;stroke-dasharray:5,5;" x1="378.606" x2="378.606" y1="70.2448" y2="441.6296"/></g></g><g class="participant-lifeline" data-entity-uid="part3" data-qualified-name="RTN" data-source-line="12" id="part3-lifeline"><g><title>.size.40...cloud.</title><rect fill="#000000" fill-opacity="0.00000" height="371.3848" width="8" x="597.4116" y="70.2448"/><line style="stroke:#0A9EFD;stroke-width:0.5;stroke-dasharray:5,5;" x1="601.0783" x2="601.0783" y1="70.2448" y2="441.6296"/></g></g><g class="participant participant-head" data-entity-uid="part1" data-qualified-name="APP" data-source-line="4" id="part1-head"><rect fill="none" height="40.6667" rx="2.5" ry="2.5" style="stroke:#0A9EFD;stroke-width:2;" width="42.6667" x="20" y="28.5781"/><path d="M29.1333,35.5781 C28.5333,35.5781 28,36.1115 28,36.7115 L28,61.0781 C28,61.6781 28.5333,62.2115 29.1333,62.2115 L50.1667,62.2115 C50.7667,62.2115 51.3,61.6781 51.3,61.0781 L51.3,36.7115 C51.3,36.1115 50.7667,35.5781 50.1667,35.5781 L29.1333,35.5781 M31.3333,38.9115 L48,38.9115 L48,55.5781 L31.3333,55.5781 L31.3333,38.9115 M39.6667,57.2448 C40.9333,57.2448 41.7667,58.6448 41.1333,59.7448 C40.5,60.8448 38.8667,60.8448 38.2,59.7448 C37.5667,58.6448 38.3667,57.2448 39.6667,57.2448" fill="#0A9EFD"/></g><g class="participant participant-tail" data-entity-uid="part1" data-qualified-name="APP" data-source-line="4" id="part1-tail"><rect fill="none" height="40.6667" rx="2.5" ry="2.5" style="stroke:#0A9EFD;stroke-width:2;" width="42.6667" x="20" y="440.6296"/><path d="M29.1333,447.6296 C28.5333,447.6296 28,448.1629 28,448.7629 L28,473.1296 C28,473.7296 28.5333,474.2629 29.1333,474.2629 L50.1667,474.2629 C50.7667,474.2629 51.3,473.7296 51.3,473.1296 L51.3,448.7629 C51.3,448.1629 50.7667,447.6296 50.1667,447.6296 L29.1333,447.6296 M31.3333,450.9629 L48,450.9629 L48,467.6296 L31.3333,467.6296 L31.3333,450.9629 M39.6667,469.2962 C40.9333,469.2962 41.7667,470.6962 41.1333,471.7962 C40.5,472.8962 38.8667,472.8962 38.2,471.7962 C37.5667,470.6962 38.3667,469.2962 39.6667,469.2962" fill="#0A9EFD"/></g><g class="participant participant-head" data-entity-uid="part2" data-qualified-name="SDK" data-source-line="8" id="part2-head"><rect fill="none" height="40.6667" rx="2.5" ry="2.5" style="stroke:#0A9EFD;stroke-width:2;" width="42.6667" x="357.606" y="28.5781"/><path d="M365.606,35.5781 L365.606,48.9115 L378.9393,48.9115 L378.9393,35.5781 L365.606,35.5781 M382.2726,42.2448 L382.2726,52.2448 L372.2726,52.2448 L372.2726,55.5781 L385.606,55.5781 L385.606,42.2448 L382.2726,42.2448 M388.9393,48.9115 L388.9393,58.9115 L378.9393,58.9115 L378.9393,62.2448 L392.2726,62.2448 L392.2726,48.9115 L388.9393,48.9115" fill="#0A9EFD"/></g><g class="participant participant-tail" data-entity-uid="part2" data-qualified-name="SDK" data-source-line="8" id="part2-tail"><rect fill="none" height="40.6667" rx="2.5" ry="2.5" style="stroke:#0A9EFD;stroke-width:2;" width="42.6667" x="357.606" y="440.6296"/><path d="M365.606,447.6296 L365.606,460.9629 L378.9393,460.9629 L378.9393,447.6296 L365.606,447.6296 M382.2726,454.2962 L382.2726,464.2962 L372.2726,464.2962 L372.2726,467.6296 L385.606,467.6296 L385.606,454.2962 L382.2726,454.2962 M388.9393,460.9629 L388.9393,470.9629 L378.9393,470.9629 L378.9393,474.2962 L392.2726,474.2962 L392.2726,460.9629 L388.9393,460.9629" fill="#0A9EFD"/></g><g class="participant participant-head" data-entity-uid="part3" data-qualified-name="RTN" data-source-line="12" id="part3-head"><rect fill="none" height="40.6667" rx="2.5" ry="2.5" style="stroke:#0A9EFD;stroke-width:2;" width="42.6667" x="580.0783" y="28.5781"/><path d="M603.0783,38.9115 C599.045,38.9115 595.5116,41.7781 594.745,45.5781 C591.0783,45.5781 588.0783,48.5781 588.0783,52.2448 C588.0783,55.9115 591.0783,58.9115 594.745,58.9115 L609.745,58.9115 C612.5116,58.9115 614.745,56.6781 614.745,53.9115 C614.745,51.7448 613.345,49.6115 611.4116,48.9115 L611.4116,47.2448 C611.4116,42.6448 607.6783,38.9115 603.0783,38.9115" fill="#0A9EFD"/></g><g class="participant participant-tail" data-entity-uid="part3" data-qualified-name="RTN" data-source-line="12" id="part3-tail"><rect fill="none" height="40.6667" rx="2.5" ry="2.5" style="stroke:#0A9EFD;stroke-width:2;" width="42.6667" x="580.0783" y="440.6296"/><path d="M603.0783,450.9629 C599.045,450.9629 595.5116,453.8296 594.745,457.6296 C591.0783,457.6296 588.0783,460.6296 588.0783,464.2962 C588.0783,467.9629 591.0783,470.9629 594.745,470.9629 L609.745,470.9629 C612.5116,470.9629 614.745,468.7296 614.745,465.9629 C614.745,463.7962 613.345,461.6629 611.4116,460.9629 L611.4116,459.2962 C611.4116,454.6962 607.6783,450.9629 603.0783,450.9629" fill="#0A9EFD"/></g><g class="message" data-entity-1="part1" data-entity-2="part2" data-source-line="15" id="msg1"><polygon fill="#0A9EFD" points="366.9393,97.1935,376.9393,101.1935,366.9393,105.1935,370.9393,101.1935" style="stroke:#0A9EFD;stroke-width:1;stroke-linejoin:miter;stroke-miterlimit:10;"/><line style="stroke:#0A9EFD;stroke-width:2;" x1="41.3333" x2="372.9393" y1="101.1935" y2="101.1935"/><text fill="#0A9EFD" font-family="Arial" font-size="13" lengthAdjust="spacing" textLength="178.5088" x="120.8819" y="96.4386">Create and initialize the engine</text></g><path d="M10,116.1935 L182.1816,116.1935 L182.1816,123.1423 L172.1816,133.1423 L10,133.1423 L10,116.1935" fill="#EEEEEE" style="stroke:#0A9EFD;stroke-width:1.5;"/><rect fill="none" height="161.6924" style="stroke:#0A9EFD;stroke-width:2;" width="622.745" x="10" y="116.1935"/><text fill="#000000" font-family="Arial" font-size="13" lengthAdjust="spacing" textLength="127.1816" x="25" y="129.3874">Custom audio capture</text><g class="message" data-entity-1="part1" data-entity-2="part2" data-source-line="18" id="msg2"><polygon fill="#0A9EFD" points="366.9393,150.091,376.9393,154.091,366.9393,158.091,370.9393,154.091" style="stroke:#0A9EFD;stroke-width:1;stroke-linejoin:miter;stroke-miterlimit:10;"/><line style="stroke:#0A9EFD;stroke-width:2;" x1="41.3333" x2="372.9393" y1="154.091" y2="154.091"/><text fill="#0A9EFD" font-family="Arial" font-size="13" lengthAdjust="spacing" textLength="162.5762" x="128.8482" y="149.3361">Create a custom audio track</text></g><g class="message" data-entity-1="part1" data-entity-2="part2" data-source-line="19" id="msg3"><polygon fill="#0A9EFD" points="366.9393,179.0397,376.9393,183.0397,366.9393,187.0397,370.9393,183.0397" style="stroke:#0A9EFD;stroke-width:1;stroke-linejoin:miter;stroke-miterlimit:10;"/><line style="stroke:#0A9EFD;stroke-width:2;" x1="41.3333" x2="372.9393" y1="183.0397" y2="183.0397"/><text fill="#0A9EFD" font-family="Arial" font-size="13" lengthAdjust="spacing" textLength="83.8398" x="168.2164" y="178.2848">Join a channel</text></g><g class="message" data-entity-1="part2" data-entity-2="part3" data-source-line="20" id="msg4"><polygon fill="#0A9EFD" points="589.4116,207.9884,599.4116,211.9884,589.4116,215.9884,593.4116,211.9884" style="stroke:#0A9EFD;stroke-width:1;stroke-linejoin:miter;stroke-miterlimit:10;"/><line style="stroke:#0A9EFD;stroke-width:2;" x1="378.9393" x2="595.4116" y1="211.9884" y2="211.9884"/><text fill="#0A9EFD" font-family="Arial" font-size="13" lengthAdjust="spacing" textLength="157.5552" x="411.3979" y="207.2336">Request to join the channel</text></g><g class="message" data-entity-1="part2" data-entity-2="part3" data-source-line="21" id="msg5"><polygon fill="#0A9EFD" points="589.4116,236.9372,599.4116,240.9372,589.4116,244.9372,593.4116,240.9372" style="stroke:#0A9EFD;stroke-width:1;stroke-linejoin:miter;stroke-miterlimit:10;"/><line style="stroke:#0A9EFD;stroke-width:2;" x1="378.9393" x2="595.4116" y1="240.9372" y2="240.9372"/><text fill="#0A9EFD" font-family="Arial" font-size="13" lengthAdjust="spacing" textLength="174.1479" x="403.1015" y="236.1823">Pubish the custom audio track</text></g><g class="message" data-entity-1="part1" data-entity-2="part2" data-source-line="22" id="msg6"><polygon fill="#0A9EFD" points="366.9393,265.8859,376.9393,269.8859,366.9393,273.8859,370.9393,269.8859" style="stroke:#0A9EFD;stroke-width:1;stroke-linejoin:miter;stroke-miterlimit:10;"/><line style="stroke:#0A9EFD;stroke-width:2;" x1="41.3333" x2="372.9393" y1="269.8859" y2="269.8859"/><text fill="#0A9EFD" font-family="Arial" font-size="13" lengthAdjust="spacing" textLength="313.606" x="53.3333" y="265.131">Push audio frames to SDK through custom audio track</text></g><path d="M10,291.8859 L167.0298,291.8859 L167.0298,298.8346 L157.0298,308.8346 L10,308.8346 L10,291.8859" fill="#EEEEEE" style="stroke:#0A9EFD;stroke-width:1.5;"/><rect fill="none" height="132.7437" style="stroke:#0A9EFD;stroke-width:2;" width="622.745" x="10" y="291.8859"/><text fill="#000000" font-family="Arial" font-size="13" lengthAdjust="spacing" textLength="112.0298" x="25" y="305.0798">Clean up and leave</text><g class="message" data-entity-1="part1" data-entity-2="part2" data-source-line="26" id="msg7"><polygon fill="#0A9EFD" points="366.9393,325.7834,376.9393,329.7834,366.9393,333.7834,370.9393,329.7834" style="stroke:#0A9EFD;stroke-width:1;stroke-linejoin:miter;stroke-miterlimit:10;"/><line style="stroke:#0A9EFD;stroke-width:2;" x1="41.3333" x2="372.9393" y1="329.7834" y2="329.7834"/><text fill="#0A9EFD" font-family="Arial" font-size="13" lengthAdjust="spacing" textLength="157.5044" x="131.3841" y="325.0285">Destroy custom audio track</text></g><g class="message" data-entity-1="part1" data-entity-2="part2" data-source-line="27" id="msg8"><polygon fill="#0A9EFD" points="366.9393,354.7321,376.9393,358.7321,366.9393,362.7321,370.9393,358.7321" style="stroke:#0A9EFD;stroke-width:1;stroke-linejoin:miter;stroke-miterlimit:10;"/><line style="stroke:#0A9EFD;stroke-width:2;" x1="41.3333" x2="372.9393" y1="358.7321" y2="358.7321"/><text fill="#0A9EFD" font-family="Arial" font-size="13" lengthAdjust="spacing" textLength="106.2534" x="157.0096" y="353.9772">Leave the channel</text></g><g class="message" data-entity-1="part2" data-entity-2="part3" data-source-line="28" id="msg9"><polygon fill="#0A9EFD" points="589.4116,383.6808,599.4116,387.6808,589.4116,391.6808,593.4116,387.6808" style="stroke:#0A9EFD;stroke-width:1;stroke-linejoin:miter;stroke-miterlimit:10;"/><line style="stroke:#0A9EFD;stroke-width:2;" x1="378.9393" x2="595.4116" y1="387.6808" y2="387.6808"/><text fill="#0A9EFD" font-family="Arial" font-size="13" lengthAdjust="spacing" textLength="168.397" x="405.977" y="382.9259">Request to leave the channel</text></g><g class="message" data-entity-1="part1" data-entity-2="part2" data-source-line="29" id="msg10"><polygon fill="#0A9EFD" points="366.9393,412.6296,376.9393,416.6296,366.9393,420.6296,370.9393,416.6296" style="stroke:#0A9EFD;stroke-width:1;stroke-linejoin:miter;stroke-miterlimit:10;"/><line style="stroke:#0A9EFD;stroke-width:2;" x1="41.3333" x2="372.9393" y1="416.6296" y2="416.6296"/><text fill="#0A9EFD" font-family="Arial" font-size="13" lengthAdjust="spacing" textLength="109.1226" x="155.575" y="411.8747">Destroy the engine</text></g><?plantuml-src VP5DJiCm48NtFiMG1Ri22rPL5AcYAq0eAkpHD1cIeQvj_8CeX-8Gd8mn0HfeoogMvttlpNEEs3GwjGJOMO_tOSNcXDDQAxMqBr3Cd2kKGn-vOOScGb46VgNf-LbL7aTSQefL0HXWLjUAJ0j2VQ6tywl3gCOD-J2W8lo3pl8kSh-ukob3SjNxMtcQluVz6crJEzW9jBMJjIQL14pXmXD6gIaJDXmPjS0GUm8o7HjIglCsERX88TerO6hPGeCk9azxRA0PwwB7PZLINLesMTEZCQILt4qgsMiA2tfA52942uzPa_DtLNLQSkY7uTuOc5Jm6LGdqGt31uzh2jbP9i9AcwxVnylZ_9JLX0Raa9z5pi_qotqkgtgx-R_hTSOE51dLrJkohSLtpkXlv2K_0000?></g></svg>