<svg xmlns="http://www.w3.org/2000/svg" xmlns:xlink="http://www.w3.org/1999/xlink" contentStyleType="text/css" data-diagram-type="SEQUENCE" height="425px" preserveAspectRatio="none" style="width:675px;height:425px;" version="1.1" viewBox="0 0 675 425" width="675px" zoomAndPan="magnify"><?plantuml 1.2026.4?><defs/><g><rect fill="none" height="423.3988" style="stroke:#0A9EFD;stroke-width:1;" width="673.9849" x="0" y="0"/><rect fill="#999999" fill-opacity="0.33333" height="412.3988" style="stroke:#0A9EFD;stroke-width:0.5;" width="50.6667" x="169" y="6"/><text fill="#0A9EFD" font-family="sans-serif" font-size="13" font-weight="700" lengthAdjust="spacing" textLength="25.27" x="181.6983" y="19.4951">App</text><rect fill="#999999" fill-opacity="0.33333" height="412.3988" style="stroke:#0A9EFD;stroke-width:0.5;" width="50.6667" x="377.2725" y="6"/><text fill="#0A9EFD" font-family="sans-serif" font-size="13" font-weight="700" lengthAdjust="spacing" textLength="27.4473" x="388.8822" y="19.4951">SDK</text><rect fill="#999999" fill-opacity="0.33333" height="412.3988" style="stroke:#0A9EFD;stroke-width:0.5;" width="99.3154" x="569.6694" y="6"/><text fill="#0A9EFD" font-family="sans-serif" font-size="13" font-weight="700" lengthAdjust="spacing" textLength="85.9473" x="572.6694" y="21.7217">Agora SDRTN</text><text fill="#0A9EFD" font-family="sans-serif" font-size="10" font-weight="700" lengthAdjust="spacing" textLength="7.3682" x="658.6167" y="16.3809">&#174;</text><rect fill="#0A9EFD" fill-opacity="0.06667" height="153.6924" style="stroke:#0A9EFD;stroke-width:2;" width="641.6605" x="9" y="116.1935"/><g class="participant-lifeline" data-entity-uid="part1" data-qualified-name="APP" data-source-line="4" id="part1-lifeline"><g><title>.size.40...tablet.</title><rect fill="#000000" fill-opacity="0.00000" height="303.4873" width="8" x="190.3333" y="70.2448"/><line style="stroke:#0A9EFD;stroke-width:0.5;stroke-dasharray:5,5;" x1="194" x2="194" y1="70.2448" y2="373.7321"/></g></g><g class="participant-lifeline" data-entity-uid="part2" data-qualified-name="SDK" data-source-line="8" id="part2-lifeline"><g><title>.size.40...layers.</title><rect fill="#000000" fill-opacity="0.00000" height="303.4873" width="8" x="398.6058" y="70.2448"/><line style="stroke:#0A9EFD;stroke-width:0.5;stroke-dasharray:5,5;" x1="402.2725" x2="402.2725" y1="70.2448" y2="373.7321"/></g></g><g class="participant-lifeline" data-entity-uid="part3" data-qualified-name="RTN" data-source-line="12" id="part3-lifeline"><g><title>.size.40...cloud.</title><rect fill="#000000" fill-opacity="0.00000" height="303.4873" width="8" x="615.3271" y="70.2448"/><line style="stroke:#0A9EFD;stroke-width:0.5;stroke-dasharray:5,5;" x1="618.9938" x2="618.9938" y1="70.2448" y2="373.7321"/></g></g><g class="participant participant-head" data-entity-uid="part1" data-qualified-name="APP" data-source-line="4" id="part1-head"><rect fill="none" height="40.6667" rx="2.5" ry="2.5" style="stroke:#0A9EFD;stroke-width:2;" width="42.6667" x="173" y="28.5781"/><path d="M182.1333,35.5781 C181.5333,35.5781 181,36.1115 181,36.7115 L181,61.0781 C181,61.6781 181.5333,62.2115 182.1333,62.2115 L203.1667,62.2115 C203.7667,62.2115 204.3,61.6781 204.3,61.0781 L204.3,36.7115 C204.3,36.1115 203.7667,35.5781 203.1667,35.5781 L182.1333,35.5781 M184.3333,38.9115 L201,38.9115 L201,55.5781 L184.3333,55.5781 L184.3333,38.9115 M192.6667,57.2448 C193.9333,57.2448 194.7667,58.6448 194.1333,59.7448 C193.5,60.8448 191.8667,60.8448 191.2,59.7448 C190.5667,58.6448 191.3667,57.2448 192.6667,57.2448" fill="#0A9EFD"/></g><g class="participant participant-tail" data-entity-uid="part1" data-qualified-name="APP" data-source-line="4" id="part1-tail"><rect fill="none" height="40.6667" rx="2.5" ry="2.5" style="stroke:#0A9EFD;stroke-width:2;" width="42.6667" x="173" y="372.7321"/><path d="M182.1333,379.7321 C181.5333,379.7321 181,380.2654 181,380.8654 L181,405.2321 C181,405.8321 181.5333,406.3654 182.1333,406.3654 L203.1667,406.3654 C203.7667,406.3654 204.3,405.8321 204.3,405.2321 L204.3,380.8654 C204.3,380.2654 203.7667,379.7321 203.1667,379.7321 L182.1333,379.7321 M184.3333,383.0654 L201,383.0654 L201,399.7321 L184.3333,399.7321 L184.3333,383.0654 M192.6667,401.3988 C193.9333,401.3988 194.7667,402.7988 194.1333,403.8988 C193.5,404.9988 191.8667,404.9988 191.2,403.8988 C190.5667,402.7988 191.3667,401.3988 192.6667,401.3988" fill="#0A9EFD"/></g><g class="participant participant-head" data-entity-uid="part2" data-qualified-name="SDK" data-source-line="8" id="part2-head"><rect fill="none" height="40.6667" rx="2.5" ry="2.5" style="stroke:#0A9EFD;stroke-width:2;" width="42.6667" x="381.2725" y="28.5781"/><path d="M389.2725,35.5781 L389.2725,48.9115 L402.6058,48.9115 L402.6058,35.5781 L389.2725,35.5781 M405.9391,42.2448 L405.9391,52.2448 L395.9391,52.2448 L395.9391,55.5781 L409.2725,55.5781 L409.2725,42.2448 L405.9391,42.2448 M412.6058,48.9115 L412.6058,58.9115 L402.6058,58.9115 L402.6058,62.2448 L415.9391,62.2448 L415.9391,48.9115 L412.6058,48.9115" fill="#0A9EFD"/></g><g class="participant participant-tail" data-entity-uid="part2" data-qualified-name="SDK" data-source-line="8" id="part2-tail"><rect fill="none" height="40.6667" rx="2.5" ry="2.5" style="stroke:#0A9EFD;stroke-width:2;" width="42.6667" x="381.2725" y="372.7321"/><path d="M389.2725,379.7321 L389.2725,393.0654 L402.6058,393.0654 L402.6058,379.7321 L389.2725,379.7321 M405.9391,386.3988 L405.9391,396.3988 L395.9391,396.3988 L395.9391,399.7321 L409.2725,399.7321 L409.2725,386.3988 L405.9391,386.3988 M412.6058,393.0654 L412.6058,403.0654 L402.6058,403.0654 L402.6058,406.3988 L415.9391,406.3988 L415.9391,393.0654 L412.6058,393.0654" fill="#0A9EFD"/></g><g class="participant participant-head" data-entity-uid="part3" data-qualified-name="RTN" data-source-line="12" id="part3-head"><rect fill="none" height="40.6667" rx="2.5" ry="2.5" style="stroke:#0A9EFD;stroke-width:2;" width="42.6667" x="597.9938" y="28.5781"/><path d="M620.9938,38.9115 C616.9605,38.9115 613.4271,41.7781 612.6605,45.5781 C608.9938,45.5781 605.9938,48.5781 605.9938,52.2448 C605.9938,55.9115 608.9938,58.9115 612.6605,58.9115 L627.6605,58.9115 C630.4271,58.9115 632.6605,56.6781 632.6605,53.9115 C632.6605,51.7448 631.2605,49.6115 629.3271,48.9115 L629.3271,47.2448 C629.3271,42.6448 625.5938,38.9115 620.9938,38.9115" fill="#0A9EFD"/></g><g class="participant participant-tail" data-entity-uid="part3" data-qualified-name="RTN" data-source-line="12" id="part3-tail"><rect fill="none" height="40.6667" rx="2.5" ry="2.5" style="stroke:#0A9EFD;stroke-width:2;" width="42.6667" x="597.9938" y="372.7321"/><path d="M620.9938,383.0654 C616.9605,383.0654 613.4271,385.9321 612.6605,389.7321 C608.9938,389.7321 605.9938,392.7321 605.9938,396.3988 C605.9938,400.0654 608.9938,403.0654 612.6605,403.0654 L627.6605,403.0654 C630.4271,403.0654 632.6605,400.8321 632.6605,398.0654 C632.6605,395.8988 631.2605,393.7654 629.3271,393.0654 L629.3271,391.3988 C629.3271,386.7988 625.5938,383.0654 620.9938,383.0654" fill="#0A9EFD"/></g><g class="message" data-entity-1="part1" data-entity-2="part2" data-source-line="15" id="msg1"><polygon fill="#0A9EFD" points="390.6058,97.1935,400.6058,101.1935,390.6058,105.1935,394.6058,101.1935" style="stroke:#0A9EFD;stroke-width:1;stroke-linejoin:miter;stroke-miterlimit:10;"/><line style="stroke:#0A9EFD;stroke-width:2;" x1="194.3333" x2="396.6058" y1="101.1935" y2="101.1935"/><text fill="#0A9EFD" font-family="Arial" font-size="13" lengthAdjust="spacing" textLength="178.5088" x="209.2152" y="96.4386">Create and initialize the engine</text></g><path d="M9,116.1935 L192.7471,116.1935 L192.7471,123.1423 L182.7471,133.1423 L9,133.1423 L9,116.1935" fill="#EEEEEE" style="stroke:#0A9EFD;stroke-width:1.5;"/><rect fill="none" height="153.6924" style="stroke:#0A9EFD;stroke-width:2;" width="641.6605" x="9" y="116.1935"/><text fill="#000000" font-family="Arial" font-size="13" lengthAdjust="spacing" textLength="138.7471" x="24" y="129.3874">Custom audio rendering</text><g class="message" data-entity-1="part1" data-entity-2="part2" data-source-line="18" id="msg2"><polygon fill="#0A9EFD" points="390.6058,150.091,400.6058,154.091,390.6058,158.091,394.6058,154.091" style="stroke:#0A9EFD;stroke-width:1;stroke-linejoin:miter;stroke-miterlimit:10;"/><line style="stroke:#0A9EFD;stroke-width:2;" x1="194.3333" x2="396.6058" y1="154.091" y2="154.091"/><text fill="#0A9EFD" font-family="Arial" font-size="13" lengthAdjust="spacing" textLength="184.2725" x="206.3333" y="149.3361">Turn on custom audio rendering</text></g><g class="message" data-entity-1="part1" data-entity-2="part2" data-source-line="19" id="msg3"><polygon fill="#0A9EFD" points="390.6058,179.0397,400.6058,183.0397,390.6058,187.0397,394.6058,183.0397" style="stroke:#0A9EFD;stroke-width:1;stroke-linejoin:miter;stroke-miterlimit:10;"/><line style="stroke:#0A9EFD;stroke-width:2;" x1="194.3333" x2="396.6058" y1="183.0397" y2="183.0397"/><text fill="#0A9EFD" font-family="Arial" font-size="13" lengthAdjust="spacing" textLength="83.8398" x="256.5496" y="178.2848">Join a channel</text></g><g class="message" data-entity-1="part2" data-entity-2="part3" data-source-line="20" id="msg4"><polygon fill="#0A9EFD" points="607.3271,207.9884,617.3271,211.9884,607.3271,215.9884,611.3271,211.9884" style="stroke:#0A9EFD;stroke-width:1;stroke-linejoin:miter;stroke-miterlimit:10;"/><line style="stroke:#0A9EFD;stroke-width:2;" x1="402.6058" x2="613.3271" y1="211.9884" y2="211.9884"/><text fill="#0A9EFD" font-family="Arial" font-size="13" lengthAdjust="spacing" textLength="157.5552" x="432.1889" y="207.2336">Request to join the channel</text></g><g class="message" data-entity-1="part1" data-entity-2="part2" data-source-line="21" id="msg5"><polygon fill="#0A9EFD" points="390.6058,247.4115,400.6058,251.4115,390.6058,255.4115,394.6058,251.4115" style="stroke:#0A9EFD;stroke-width:1;stroke-linejoin:miter;stroke-miterlimit:10;"/><line style="stroke:#0A9EFD;stroke-width:2;" x1="194.3333" x2="396.6058" y1="251.4115" y2="251.4115"/><text fill="#0A9EFD" font-family="Arial" font-size="13" lengthAdjust="spacing" textLength="130.0825" x="233.4283" y="246.6567">Pull remote audio data</text></g><path d="M19,224.9884 L19,263.9884 L188,263.9884 L188,234.9884 L178,224.9884 L19,224.9884" fill="none" style="stroke:#0A9EFD;stroke-width:1;"/><path d="M178,224.9884 L178,234.9884 L188,234.9884 L178,224.9884" fill="none" style="stroke:#0A9EFD;stroke-width:1;"/><text fill="#0A9EFD" font-family="Arial" font-size="13" lengthAdjust="spacing" textLength="139.4961" x="34" y="242.1823">You render the obtained</text><text fill="#0A9EFD" font-family="Arial" font-size="13" lengthAdjust="spacing" textLength="109.8525" x="50.6277" y="257.131">audio data yourself</text><g class="message" data-entity-1="part1" data-entity-2="part2" data-source-line="24" id="msg7"><polygon fill="#0A9EFD" points="390.6058,293.8346,400.6058,297.8346,390.6058,301.8346,394.6058,297.8346" style="stroke:#0A9EFD;stroke-width:1;stroke-linejoin:miter;stroke-miterlimit:10;"/><line style="stroke:#0A9EFD;stroke-width:2;" x1="194.3333" x2="396.6058" y1="297.8346" y2="297.8346"/><text fill="#0A9EFD" font-family="Arial" font-size="13" lengthAdjust="spacing" textLength="106.2534" x="245.3429" y="293.0798">Leave the channel</text></g><g class="message" data-entity-1="part2" data-entity-2="part3" data-source-line="25" id="msg8"><polygon fill="#0A9EFD" points="607.3271,322.7834,617.3271,326.7834,607.3271,330.7834,611.3271,326.7834" style="stroke:#0A9EFD;stroke-width:1;stroke-linejoin:miter;stroke-miterlimit:10;"/><line style="stroke:#0A9EFD;stroke-width:2;" x1="402.6058" x2="613.3271" y1="326.7834" y2="326.7834"/><text fill="#0A9EFD" font-family="Arial" font-size="13" lengthAdjust="spacing" textLength="168.397" x="426.768" y="322.0285">Request to leave the channel</text></g><g class="message" data-entity-1="part1" data-entity-2="part2" data-source-line="26" id="msg9"><polygon fill="#0A9EFD" points="390.6058,351.7321,400.6058,355.7321,390.6058,359.7321,394.6058,355.7321" style="stroke:#0A9EFD;stroke-width:1;stroke-linejoin:miter;stroke-miterlimit:10;"/><line style="stroke:#0A9EFD;stroke-width:2;" x1="194.3333" x2="396.6058" y1="355.7321" y2="355.7321"/><text fill="#0A9EFD" font-family="Arial" font-size="13" lengthAdjust="spacing" textLength="109.1226" x="243.9083" y="350.9772">Destroy the engine</text></g><?plantuml-src XP1DJiD038NtSmgJ1Ri22rPH5AbgLu1GLRf1Ga9kugO3KplC3w8SYaDmCfosgA5GiHhDp7lVU_Q9vSgbcW0RyVWOdYsVsRHonipb3R9XssQcHHzjPLla25aHx3lbbnTbSHfnxYYM6M20uMHYY6jGryvwDxu-RdMu9X-sLXKUM8TT5tsVpcwBaDhoywCuxyxZlCf9ghSuDUrnMcjGQa0E8qyOTKpziMoZHQTcY4i2uiOo6TDuIIsCKeYo0aor5V0A8c-vwO5coJC8G_MVy4ei0qArH6PoHjy6fPRBOKelYKA4AF3KQReItwgzVPASK-vAkjQRa1eZ6kxkZXOnXtj9k-0DGkOHTP3wWNjwM4loWToYsqcFVaFuIZ-I_-pdVidsYB5glApxE_m2?></g></svg>