<svg xmlns="http://www.w3.org/2000/svg" xmlns:xlink="http://www.w3.org/1999/xlink" contentStyleType="text/css" data-diagram-type="SEQUENCE" height="550px" preserveAspectRatio="none" style="width:626px;height:550px;" version="1.1" viewBox="0 0 626 550" width="626px" zoomAndPan="magnify"><?plantuml 1.2026.4?><defs/><g><rect fill="none" height="548.1937" style="stroke:#0A9EFD;stroke-width:1;" width="624.3755" x="0" y="0"/><rect fill="#999999" fill-opacity="0.33333" height="537.1937" style="stroke:#0A9EFD;stroke-width:0.5;" width="50.6667" x="16" y="6"/><text fill="#0A9EFD" font-family="sans-serif" font-size="13" font-weight="700" lengthAdjust="spacing" textLength="25.27" x="28.6983" y="19.4951">App</text><rect fill="#999999" fill-opacity="0.33333" height="537.1937" style="stroke:#0A9EFD;stroke-width:0.5;" width="50.6667" x="309.5342" y="6"/><text fill="#0A9EFD" font-family="sans-serif" font-size="13" font-weight="700" lengthAdjust="spacing" textLength="27.4473" x="321.1439" y="19.4951">SDK</text><rect fill="#999999" fill-opacity="0.33333" height="537.1937" style="stroke:#0A9EFD;stroke-width:0.5;" width="123.9697" x="495.4058" y="6"/><text fill="#0A9EFD" font-family="sans-serif" font-size="13" font-weight="700" lengthAdjust="spacing" textLength="98.2744" x="498.4058" y="21.7217">"Agora "SDRTN</text><text fill="#0A9EFD" font-family="sans-serif" font-size="10" font-weight="700" lengthAdjust="spacing" textLength="7.3682" x="596.6802" y="16.3809">&#174;</text><text fill="#0A9EFD" font-family="sans-serif" font-size="13" font-weight="700" lengthAdjust="spacing" textLength="12.3271" x="604.0483" y="21.7217">""</text><rect fill="#0A9EFD" fill-opacity="0.06667" height="74.8462" style="stroke:#0A9EFD;stroke-width:2;" width="578.724" x="10" y="145.1423"/><rect fill="#0A9EFD" fill-opacity="0.06667" height="131.7437" style="stroke:#0A9EFD;stroke-width:2;" width="578.724" x="10" y="233.9884"/><g class="participant-lifeline" data-entity-uid="part1" data-qualified-name="APP" data-source-line="4" id="part1-lifeline"><g><title>.size.40...tablet.</title><rect fill="#000000" fill-opacity="0.00000" height="428.2822" width="8" x="37.3333" y="70.2448"/><line style="stroke:#0A9EFD;stroke-width:0.5;stroke-dasharray:5,5;" x1="41" x2="41" y1="70.2448" y2="498.527"/></g></g><g class="participant-lifeline" data-entity-uid="part2" data-qualified-name="SDK" data-source-line="8" id="part2-lifeline"><g><title>.size.40...layers.</title><rect fill="#000000" fill-opacity="0.00000" height="428.2822" width="8" x="330.8675" y="70.2448"/><line style="stroke:#0A9EFD;stroke-width:0.5;stroke-dasharray:5,5;" x1="334.5342" x2="334.5342" y1="70.2448" y2="498.527"/></g></g><g class="participant-lifeline" data-entity-uid="part3" data-qualified-name="RTN" data-source-line="12" id="part3-lifeline"><g><title>.size.40...cloud.</title><rect fill="#000000" fill-opacity="0.00000" height="428.2822" width="8" x="553.3906" y="70.2448"/><line style="stroke:#0A9EFD;stroke-width:0.5;stroke-dasharray:5,5;" x1="557.0573" x2="557.0573" y1="70.2448" y2="498.527"/></g></g><g class="participant participant-head" data-entity-uid="part1" data-qualified-name="APP" data-source-line="4" id="part1-head"><rect fill="none" height="40.6667" rx="2.5" ry="2.5" style="stroke:#0A9EFD;stroke-width:2;" width="42.6667" x="20" y="28.5781"/><path d="M29.1333,35.5781 C28.5333,35.5781 28,36.1115 28,36.7115 L28,61.0781 C28,61.6781 28.5333,62.2115 29.1333,62.2115 L50.1667,62.2115 C50.7667,62.2115 51.3,61.6781 51.3,61.0781 L51.3,36.7115 C51.3,36.1115 50.7667,35.5781 50.1667,35.5781 L29.1333,35.5781 M31.3333,38.9115 L48,38.9115 L48,55.5781 L31.3333,55.5781 L31.3333,38.9115 M39.6667,57.2448 C40.9333,57.2448 41.7667,58.6448 41.1333,59.7448 C40.5,60.8448 38.8667,60.8448 38.2,59.7448 C37.5667,58.6448 38.3667,57.2448 39.6667,57.2448" fill="#0A9EFD"/></g><g class="participant participant-tail" data-entity-uid="part1" data-qualified-name="APP" data-source-line="4" id="part1-tail"><rect fill="none" height="40.6667" rx="2.5" ry="2.5" style="stroke:#0A9EFD;stroke-width:2;" width="42.6667" x="20" y="497.527"/><path d="M29.1333,504.527 C28.5333,504.527 28,505.0604 28,505.6604 L28,530.027 C28,530.627 28.5333,531.1604 29.1333,531.1604 L50.1667,531.1604 C50.7667,531.1604 51.3,530.627 51.3,530.027 L51.3,505.6604 C51.3,505.0604 50.7667,504.527 50.1667,504.527 L29.1333,504.527 M31.3333,507.8604 L48,507.8604 L48,524.527 L31.3333,524.527 L31.3333,507.8604 M39.6667,526.1937 C40.9333,526.1937 41.7667,527.5937 41.1333,528.6937 C40.5,529.7937 38.8667,529.7937 38.2,528.6937 C37.5667,527.5937 38.3667,526.1937 39.6667,526.1937" fill="#0A9EFD"/></g><g class="participant participant-head" data-entity-uid="part2" data-qualified-name="SDK" data-source-line="8" id="part2-head"><rect fill="none" height="40.6667" rx="2.5" ry="2.5" style="stroke:#0A9EFD;stroke-width:2;" width="42.6667" x="313.5342" y="28.5781"/><path d="M321.5342,35.5781 L321.5342,48.9115 L334.8675,48.9115 L334.8675,35.5781 L321.5342,35.5781 M338.2008,42.2448 L338.2008,52.2448 L328.2008,52.2448 L328.2008,55.5781 L341.5342,55.5781 L341.5342,42.2448 L338.2008,42.2448 M344.8675,48.9115 L344.8675,58.9115 L334.8675,58.9115 L334.8675,62.2448 L348.2008,62.2448 L348.2008,48.9115 L344.8675,48.9115" fill="#0A9EFD"/></g><g class="participant participant-tail" data-entity-uid="part2" data-qualified-name="SDK" data-source-line="8" id="part2-tail"><rect fill="none" height="40.6667" rx="2.5" ry="2.5" style="stroke:#0A9EFD;stroke-width:2;" width="42.6667" x="313.5342" y="497.527"/><path d="M321.5342,504.527 L321.5342,517.8604 L334.8675,517.8604 L334.8675,504.527 L321.5342,504.527 M338.2008,511.1937 L338.2008,521.1937 L328.2008,521.1937 L328.2008,524.527 L341.5342,524.527 L341.5342,511.1937 L338.2008,511.1937 M344.8675,517.8604 L344.8675,527.8604 L334.8675,527.8604 L334.8675,531.1937 L348.2008,531.1937 L348.2008,517.8604 L344.8675,517.8604" fill="#0A9EFD"/></g><g class="participant participant-head" data-entity-uid="part3" data-qualified-name="RTN" data-source-line="12" id="part3-head"><rect fill="none" height="40.6667" rx="2.5" ry="2.5" style="stroke:#0A9EFD;stroke-width:2;" width="42.6667" x="536.0573" y="28.5781"/><path d="M559.0573,38.9115 C555.024,38.9115 551.4906,41.7781 550.724,45.5781 C547.0573,45.5781 544.0573,48.5781 544.0573,52.2448 C544.0573,55.9115 547.0573,58.9115 550.724,58.9115 L565.724,58.9115 C568.4906,58.9115 570.724,56.6781 570.724,53.9115 C570.724,51.7448 569.324,49.6115 567.3906,48.9115 L567.3906,47.2448 C567.3906,42.6448 563.6573,38.9115 559.0573,38.9115" fill="#0A9EFD"/></g><g class="participant participant-tail" data-entity-uid="part3" data-qualified-name="RTN" data-source-line="12" id="part3-tail"><rect fill="none" height="40.6667" rx="2.5" ry="2.5" style="stroke:#0A9EFD;stroke-width:2;" width="42.6667" x="536.0573" y="497.527"/><path d="M559.0573,507.8604 C555.024,507.8604 551.4906,510.727 550.724,514.527 C547.0573,514.527 544.0573,517.527 544.0573,521.1937 C544.0573,524.8604 547.0573,527.8604 550.724,527.8604 L565.724,527.8604 C568.4906,527.8604 570.724,525.627 570.724,522.8604 C570.724,520.6937 569.324,518.5604 567.3906,517.8604 L567.3906,516.1937 C567.3906,511.5937 563.6573,507.8604 559.0573,507.8604" fill="#0A9EFD"/></g><g class="message" data-entity-1="part1" data-entity-2="part2" data-source-line="15" id="msg1"><polygon fill="#0A9EFD" points="322.8675,97.1935,332.8675,101.1935,322.8675,105.1935,326.8675,101.1935" style="stroke:#0A9EFD;stroke-width:1;stroke-linejoin:miter;stroke-miterlimit:10;"/><line style="stroke:#0A9EFD;stroke-width:2;" x1="41.3333" x2="328.8675" y1="101.1935" y2="101.1935"/><text fill="#0A9EFD" font-family="Arial" font-size="13" lengthAdjust="spacing" textLength="178.5088" x="98.846" y="96.4386">Create and initialize the engine</text></g><g class="message" data-entity-1="part1" data-entity-2="part2" data-source-line="16" id="msg2"><polygon fill="#0A9EFD" points="322.8675,126.1423,332.8675,130.1423,322.8675,134.1423,326.8675,130.1423" style="stroke:#0A9EFD;stroke-width:1;stroke-linejoin:miter;stroke-miterlimit:10;"/><line style="stroke:#0A9EFD;stroke-width:2;" x1="41.3333" x2="328.8675" y1="130.1423" y2="130.1423"/><text fill="#0A9EFD" font-family="Arial" font-size="13" lengthAdjust="spacing" textLength="186.4497" x="94.8756" y="125.3874">Set up the external video source</text></g><path d="M10,145.1423 L134.498,145.1423 L134.498,152.091 L124.498,162.091 L10,162.091 L10,145.1423" fill="#EEEEEE" style="stroke:#0A9EFD;stroke-width:1.5;"/><rect fill="none" height="74.8462" style="stroke:#0A9EFD;stroke-width:2;" width="578.724" x="10" y="145.1423"/><text fill="#000000" font-family="Arial" font-size="13" lengthAdjust="spacing" textLength="79.498" x="25" y="158.3361">Join channels</text><g class="message" data-entity-1="part1" data-entity-2="part2" data-source-line="19" id="msg3"><polygon fill="#0A9EFD" points="322.8675,179.0397,332.8675,183.0397,322.8675,187.0397,326.8675,183.0397" style="stroke:#0A9EFD;stroke-width:1;stroke-linejoin:miter;stroke-miterlimit:10;"/><line style="stroke:#0A9EFD;stroke-width:2;" x1="41.3333" x2="328.8675" y1="183.0397" y2="183.0397"/><text fill="#0A9EFD" font-family="Arial" font-size="13" lengthAdjust="spacing" textLength="88.1563" x="144.0223" y="178.2848">Join channel(s)</text></g><g class="message" data-entity-1="part2" data-entity-2="part3" data-source-line="20" id="msg4"><polygon fill="#0A9EFD" points="545.3906,207.9884,555.3906,211.9884,545.3906,215.9884,549.3906,211.9884" style="stroke:#0A9EFD;stroke-width:1;stroke-linejoin:miter;stroke-miterlimit:10;"/><line style="stroke:#0A9EFD;stroke-width:2;" x1="334.8675" x2="551.3906" y1="211.9884" y2="211.9884"/><text fill="#0A9EFD" font-family="Arial" font-size="13" lengthAdjust="spacing" textLength="151.0298" x="370.6142" y="207.2336">Request to join channel(s)</text></g><path d="M10,233.9884 L162.6626,233.9884 L162.6626,240.9372 L152.6626,250.9372 L10,250.9372 L10,233.9884" fill="#EEEEEE" style="stroke:#0A9EFD;stroke-width:1.5;"/><rect fill="none" height="131.7437" style="stroke:#0A9EFD;stroke-width:2;" width="578.724" x="10" y="233.9884"/><text fill="#000000" font-family="Arial" font-size="13" lengthAdjust="spacing" textLength="107.6626" x="25" y="247.1823">Push video frames</text><g class="message" data-entity-1="part1" data-entity-2="part1" data-source-line="24" id="msg5"><line style="stroke:#0A9EFD;stroke-width:2;" x1="41.3333" x2="83.3333" y1="286.8346" y2="286.8346"/><line style="stroke:#0A9EFD;stroke-width:2;" x1="83.3333" x2="83.3333" y1="286.8346" y2="299.8346"/><line style="stroke:#0A9EFD;stroke-width:2;" x1="42.3333" x2="83.3333" y1="299.8346" y2="299.8346"/><polygon fill="#0A9EFD" points="52.3333,295.8346,42.3333,299.8346,52.3333,303.8346,48.3333,299.8346" style="stroke:#0A9EFD;stroke-width:1;stroke-linejoin:miter;stroke-miterlimit:10;"/><text fill="#0A9EFD" font-family="Arial" font-size="13" lengthAdjust="spacing" textLength="165.5024" x="55.9061" y="267.131">Load the video data from the</text><text fill="#0A9EFD" font-family="Arial" font-size="13" lengthAdjust="spacing" textLength="184.2598" x="48.3333" y="282.0798">local video file into video frames</text></g><g class="message" data-entity-1="part1" data-entity-2="part2" data-source-line="25" id="msg6"><polygon fill="#0A9EFD" points="322.8675,324.7834,332.8675,328.7834,322.8675,332.7834,326.8675,328.7834" style="stroke:#0A9EFD;stroke-width:1;stroke-linejoin:miter;stroke-miterlimit:10;"/><line style="stroke:#0A9EFD;stroke-width:2;" x1="41.3333" x2="328.8675" y1="328.7834" y2="328.7834"/><text fill="#0A9EFD" font-family="Arial" font-size="13" lengthAdjust="spacing" textLength="223.2788" x="76.461" y="324.0285">Triggers a thread to push video frames</text></g><g class="message" data-entity-1="part2" data-entity-2="part3" data-source-line="26" id="msg7"><polygon fill="#0A9EFD" points="545.3906,353.7321,555.3906,357.7321,545.3906,361.7321,549.3906,357.7321" style="stroke:#0A9EFD;stroke-width:1;stroke-linejoin:miter;stroke-miterlimit:10;"/><line style="stroke:#0A9EFD;stroke-width:2;" x1="334.8675" x2="551.3906" y1="357.7321" y2="357.7321"/><text fill="#0A9EFD" font-family="Arial" font-size="13" lengthAdjust="spacing" textLength="152.458" x="369.9001" y="352.9772">Push video frames to SDK</text></g><g class="message" data-entity-1="part1" data-entity-2="part2" data-source-line="29" id="msg8"><polygon fill="#0A9EFD" points="322.8675,389.6808,332.8675,393.6808,322.8675,397.6808,326.8675,393.6808" style="stroke:#0A9EFD;stroke-width:1;stroke-linejoin:miter;stroke-miterlimit:10;"/><line style="stroke:#0A9EFD;stroke-width:2;" x1="41.3333" x2="328.8675" y1="393.6808" y2="393.6808"/><text fill="#0A9EFD" font-family="Arial" font-size="13" lengthAdjust="spacing" textLength="269.5342" x="53.3333" y="388.9259">Terminate the thread that pushes video frames</text></g><g class="message" data-entity-1="part1" data-entity-2="part2" data-source-line="31" id="msg9"><polygon fill="#0A9EFD" points="322.8675,418.6296,332.8675,422.6296,322.8675,426.6296,326.8675,422.6296" style="stroke:#0A9EFD;stroke-width:1;stroke-linejoin:miter;stroke-miterlimit:10;"/><line style="stroke:#0A9EFD;stroke-width:2;" x1="41.3333" x2="328.8675" y1="422.6296" y2="422.6296"/><text fill="#0A9EFD" font-family="Arial" font-size="13" lengthAdjust="spacing" textLength="99.728" x="138.2364" y="417.8747">Leave channel(s)</text></g><g class="message" data-entity-1="part2" data-entity-2="part3" data-source-line="32" id="msg10"><polygon fill="#0A9EFD" points="545.3906,447.5783,555.3906,451.5783,545.3906,455.5783,549.3906,451.5783" style="stroke:#0A9EFD;stroke-width:1;stroke-linejoin:miter;stroke-miterlimit:10;"/><line style="stroke:#0A9EFD;stroke-width:2;" x1="334.8675" x2="551.3906" y1="451.5783" y2="451.5783"/><text fill="#0A9EFD" font-family="Arial" font-size="13" lengthAdjust="spacing" textLength="161.8716" x="365.1933" y="446.8234">Request to leave channel(s)</text></g><g class="message" data-entity-1="part1" data-entity-2="part2" data-source-line="33" id="msg11"><polygon fill="#0A9EFD" points="322.8675,476.527,332.8675,480.527,322.8675,484.527,326.8675,480.527" style="stroke:#0A9EFD;stroke-width:1;stroke-linejoin:miter;stroke-miterlimit:10;"/><line style="stroke:#0A9EFD;stroke-width:2;" x1="41.3333" x2="328.8675" y1="480.527" y2="480.527"/><text fill="#0A9EFD" font-family="Arial" font-size="13" lengthAdjust="spacing" textLength="109.1226" x="133.5391" y="475.7721">Destroy the engine</text></g><?plantuml-src XP5DJiD038NtSmgJ1O95WGMhA8fKqHLKg6gxH49kuYO3avamFrNBeJW49yFvAGsjAZQ9PB_l-Orz8NMcGaw0XR7uwjwblf6XKaAip1QYSLr7eaRhPIPhr1wYnCbFYk_lqkJIuqgHJoD01-FPJ93EWQaUNKoUpgCATsHTXxBm21qtMHg7-V8vSQ5Elx-Is-OVdNVCb0bvPyZKmP23ZL8U4SE39VJyKEv8BRr4nJ3uae1q8JKDf0lo4Egkj_LaDIhOo9mCE1DiHa8Krh3WqKWDMObQat83VbY_SjU2YwEKOyKmfuz0peCty7OauiXxtrbmPJzmRR6Ytfi_CKmDvcsohf-ZHnQPggszQ6Motx1hgOZVohDElTgSIokBWWy1o3Il9szorIV33_5FWZL0Vy3XhfTaAwcRTJUfzjub-jQTiJ_-0t1AkA5_LwUELGU32KkisGtl-WC0?></g></svg>