<svg xmlns="http://www.w3.org/2000/svg" xmlns:xlink="http://www.w3.org/1999/xlink" contentStyleType="text/css" data-diagram-type="SEQUENCE" height="748px" preserveAspectRatio="none" style="width:509px;height:748px;" version="1.1" viewBox="0 0 509 748" width="509px" zoomAndPan="magnify"><?plantuml 1.2026.4?><defs/><g><rect fill="none" height="746.3257" style="stroke:#0A9EFD;stroke-width:1;" width="507.8733" x="0" y="0"/><rect fill="#999999" fill-opacity="0.33333" height="735.3257" style="stroke:#0A9EFD;stroke-width:0.5;" width="90.4824" x="122.7915" y="6"/><text fill="#0A9EFD" font-family="sans-serif" font-size="13" font-weight="700" lengthAdjust="spacing" textLength="56.3354" x="139.865" y="19.4951">Your app</text><rect fill="#999999" fill-opacity="0.33333" height="735.3257" style="stroke:#0A9EFD;stroke-width:0.5;" width="78.3257" x="409.5476" y="6"/><text fill="#0A9EFD" font-family="sans-serif" font-size="13" font-weight="700" lengthAdjust="spacing" textLength="37.5591" x="429.9309" y="19.4951">Agora</text><rect fill="#0A9EFD" fill-opacity="0.06667" height="87.8462" style="stroke:#0A9EFD;stroke-width:2;" width="377.0818" x="116.7915" y="215.9448"/><rect fill="#0A9EFD" fill-opacity="0.06667" height="116.7949" style="stroke:#0A9EFD;stroke-width:2;" width="483.8733" x="10" y="317.791"/><rect fill="#0A9EFD" fill-opacity="0.06667" height="73.8462" style="stroke:#0A9EFD;stroke-width:2;" width="269.7036" x="116.7915" y="448.5859"/><rect fill="#0A9EFD" fill-opacity="0.06667" height="45.8975" style="stroke:#0A9EFD;stroke-width:2;" width="377.0818" x="116.7915" y="536.4321"/><g class="participant-lifeline" data-entity-uid="part1" data-qualified-name="USR" data-source-line="3" id="part1-lifeline"><g><title>User</title><rect fill="#000000" fill-opacity="0.00000" height="571.1284" width="8" x="33.7793" y="86.0986"/><line style="stroke:#0A9EFD;stroke-width:0.5;stroke-dasharray:5,5;" x1="37" x2="37" y1="86.0986" y2="657.2271"/></g></g><g class="participant-lifeline" data-entity-uid="part2" data-qualified-name="APP" data-source-line="6" id="part2-lifeline"><g><title>Video SDK</title><rect fill="#000000" fill-opacity="0.00000" height="571.1284" width="8" x="164.0327" y="86.0986"/><line style="stroke:#0A9EFD;stroke-width:0.5;stroke-dasharray:5,5;" x1="167.7915" x2="167.7915" y1="86.0986" y2="657.2271"/></g></g><g class="participant-lifeline" data-entity-uid="part3" data-qualified-name="API" data-source-line="10" id="part3-lifeline"><g><title>SDRTN.sup....sup.</title><rect fill="#000000" fill-opacity="0.00000" height="571.1284" width="8" x="444.7104" y="86.0986"/><line style="stroke:#0A9EFD;stroke-width:0.5;stroke-dasharray:5,5;" x1="448.5476" x2="448.5476" y1="86.0986" y2="657.2271"/></g></g><g class="participant participant-head" data-entity-uid="part1" data-qualified-name="USR" data-source-line="3" id="part1-head"><text fill="#0A9EFD" font-family="Arial" font-size="14" lengthAdjust="spacing" textLength="29.5586" x="20" y="83.1318">User</text><ellipse cx="37.7793" cy="16" fill="none" rx="8" ry="8" style="stroke:#0A9EFD;stroke-width:3;"/><path d="M37.7793,24 L37.7793,51 M24.7793,32 L50.7793,32 M37.7793,51 L24.7793,66 M37.7793,51 L50.7793,66" fill="none" style="stroke:#0A9EFD;stroke-width:3;"/></g><g class="participant participant-tail" data-entity-uid="part1" data-qualified-name="USR" data-source-line="3" id="part1-tail"><text fill="#0A9EFD" font-family="Arial" font-size="14" lengthAdjust="spacing" textLength="29.5586" x="20" y="669.3589">User</text><ellipse cx="37.7793" cy="683.3257" fill="none" rx="8" ry="8" style="stroke:#0A9EFD;stroke-width:3;"/><path d="M37.7793,691.3257 L37.7793,718.3257 M24.7793,699.3257 L50.7793,699.3257 M37.7793,718.3257 L24.7793,733.3257 M37.7793,718.3257 L50.7793,733.3257" fill="none" style="stroke:#0A9EFD;stroke-width:3;"/></g><g class="participant participant-head" data-entity-uid="part2" data-qualified-name="APP" data-source-line="6" id="part2-head"><rect fill="none" height="30.0986" rx="2.5" ry="2.5" style="stroke:#0A9EFD;stroke-width:2;" width="82.4824" x="126.7915" y="55"/><text fill="#0A9EFD" font-family="Arial" font-size="14" lengthAdjust="spacing" textLength="68.4824" x="133.7915" y="75.1318">Video SDK</text></g><g class="participant participant-tail" data-entity-uid="part2" data-qualified-name="APP" data-source-line="6" id="part2-tail"><rect fill="none" height="30.0986" rx="2.5" ry="2.5" style="stroke:#0A9EFD;stroke-width:2;" width="82.4824" x="126.7915" y="656.2271"/><text fill="#0A9EFD" font-family="Arial" font-size="14" lengthAdjust="spacing" textLength="68.4824" x="133.7915" y="676.3589">Video SDK</text></g><g class="participant participant-head" data-entity-uid="part3" data-qualified-name="API" data-source-line="10" id="part3-head"><rect fill="none" height="32.6489" rx="2.5" ry="2.5" style="stroke:#0A9EFD;stroke-width:2;" width="70.3257" x="413.5476" y="52.4497"/><text fill="#0A9EFD" font-family="Arial" font-size="14" lengthAdjust="spacing" textLength="48.2207" x="420.5476" y="75.1318">SDRTN</text><text fill="#0A9EFD" font-family="Arial" font-size="11" lengthAdjust="spacing" textLength="8.105" x="468.7683" y="69.7676">&#174;</text></g><g class="participant participant-tail" data-entity-uid="part3" data-qualified-name="API" data-source-line="10" id="part3-tail"><rect fill="none" height="32.6489" rx="2.5" ry="2.5" style="stroke:#0A9EFD;stroke-width:2;" width="70.3257" x="413.5476" y="656.2271"/><text fill="#0A9EFD" font-family="Arial" font-size="14" lengthAdjust="spacing" textLength="48.2207" x="420.5476" y="678.9092">SDRTN</text><text fill="#0A9EFD" font-family="Arial" font-size="11" lengthAdjust="spacing" textLength="8.105" x="468.7683" y="673.5449">&#174;</text></g><g class="message" data-entity-1="part1" data-entity-2="part2" data-source-line="13" id="msg1"><polygon fill="#0A9EFD" points="156.0327,113.0474,166.0327,117.0474,156.0327,121.0474,160.0327,117.0474" style="stroke:#0A9EFD;stroke-width:1;stroke-linejoin:miter;stroke-miterlimit:10;"/><line style="stroke:#0A9EFD;stroke-width:2;" x1="37.7793" x2="162.0327" y1="117.0474" y2="117.0474"/><text fill="#0A9EFD" font-family="Arial" font-size="13" lengthAdjust="spacing" textLength="58.5444" x="73.6338" y="112.2925">Open App</text></g><g class="message" data-entity-1="part2" data-entity-2="part2" data-source-line="14" id="msg2"><line style="stroke:#0A9EFD;stroke-width:2;" x1="168.0327" x2="210.0327" y1="145.9961" y2="145.9961"/><line style="stroke:#0A9EFD;stroke-width:2;" x1="210.0327" x2="210.0327" y1="145.9961" y2="158.9961"/><line style="stroke:#0A9EFD;stroke-width:2;" x1="169.0327" x2="210.0327" y1="158.9961" y2="158.9961"/><polygon fill="#0A9EFD" points="179.0327,154.9961,169.0327,158.9961,179.0327,162.9961,175.0327,158.9961" style="stroke:#0A9EFD;stroke-width:1;stroke-linejoin:miter;stroke-miterlimit:10;"/><text fill="#0A9EFD" font-family="Arial" font-size="13" lengthAdjust="spacing" textLength="255.1123" x="175.0327" y="141.2412">Create an instance of the Video SDK engine</text></g><g class="message" data-entity-1="part2" data-entity-2="part2" data-source-line="15" id="msg3"><line style="stroke:#0A9EFD;stroke-width:2;" x1="168.0327" x2="210.0327" y1="187.9448" y2="187.9448"/><line style="stroke:#0A9EFD;stroke-width:2;" x1="210.0327" x2="210.0327" y1="187.9448" y2="200.9448"/><line style="stroke:#0A9EFD;stroke-width:2;" x1="169.0327" x2="210.0327" y1="200.9448" y2="200.9448"/><polygon fill="#0A9EFD" points="179.0327,196.9448,169.0327,200.9448,179.0327,204.9448,175.0327,200.9448" style="stroke:#0A9EFD;stroke-width:1;stroke-linejoin:miter;stroke-miterlimit:10;"/><text fill="#0A9EFD" font-family="Arial" font-size="13" lengthAdjust="spacing" textLength="213.9541" x="175.0327" y="183.1899">Enable audio and video in the engine</text></g><path d="M116.7915,215.9448 L288.2559,215.9448 L288.2559,222.8936 L278.2559,232.8936 L116.7915,232.8936 L116.7915,215.9448" fill="#EEEEEE" style="stroke:#0A9EFD;stroke-width:1.5;"/><rect fill="none" height="87.8462" style="stroke:#0A9EFD;stroke-width:2;" width="377.0818" x="116.7915" y="215.9448"/><text fill="#000000" font-family="Arial" font-size="13" lengthAdjust="spacing" textLength="126.4644" x="131.7915" y="229.1387">Setup external source</text><g class="message" data-entity-1="part2" data-entity-2="part2" data-source-line="18" id="msg4"><line style="stroke:#0A9EFD;stroke-width:2;" x1="168.0327" x2="210.0327" y1="253.8423" y2="253.8423"/><line style="stroke:#0A9EFD;stroke-width:2;" x1="210.0327" x2="210.0327" y1="253.8423" y2="266.8423"/><line style="stroke:#0A9EFD;stroke-width:2;" x1="169.0327" x2="210.0327" y1="266.8423" y2="266.8423"/><polygon fill="#0A9EFD" points="179.0327,262.8423,169.0327,266.8423,179.0327,270.8423,175.0327,266.8423" style="stroke:#0A9EFD;stroke-width:1;stroke-linejoin:miter;stroke-miterlimit:10;"/><text fill="#0A9EFD" font-family="Arial" font-size="13" lengthAdjust="spacing" textLength="244.9434" x="175.0327" y="249.0874">Check the external source for compatibility</text></g><g class="message" data-entity-1="part2" data-entity-2="part3" data-source-line="19" id="msg5"><polygon fill="#0A9EFD" points="436.7104,291.791,446.7104,295.791,436.7104,299.791,440.7104,295.791" style="stroke:#0A9EFD;stroke-width:1;stroke-linejoin:miter;stroke-miterlimit:10;"/><line style="stroke:#0A9EFD;stroke-width:2;" x1="168.0327" x2="442.7104" y1="295.791" y2="295.791"/><text fill="#0A9EFD" font-family="Arial" font-size="13" lengthAdjust="spacing" textLength="197.2852" x="209.729" y="291.0361">Set external video or audio source</text></g><path d="M10,317.791 L78.8481,317.791 L78.8481,324.7397 L68.8481,334.7397 L10,334.7397 L10,317.791" fill="#EEEEEE" style="stroke:#0A9EFD;stroke-width:1.5;"/><rect fill="none" height="116.7949" style="stroke:#0A9EFD;stroke-width:2;" width="483.8733" x="10" y="317.791"/><text fill="#000000" font-family="Arial" font-size="13" lengthAdjust="spacing" textLength="23.8481" x="25" y="330.9849">Join</text><g class="message" data-entity-1="part1" data-entity-2="part2" data-source-line="23" id="msg6"><polygon fill="#0A9EFD" points="156.0327,351.6885,166.0327,355.6885,156.0327,359.6885,160.0327,355.6885" style="stroke:#0A9EFD;stroke-width:1;stroke-linejoin:miter;stroke-miterlimit:10;"/><line style="stroke:#0A9EFD;stroke-width:2;" x1="37.7793" x2="162.0327" y1="355.6885" y2="355.6885"/><text fill="#0A9EFD" font-family="Arial" font-size="13" lengthAdjust="spacing" textLength="83.8398" x="60.9861" y="350.9336">Join a channel</text></g><g class="message" data-entity-1="part2" data-entity-2="part2" data-source-line="24" id="msg7"><line style="stroke:#0A9EFD;stroke-width:2;" x1="168.0327" x2="210.0327" y1="384.6372" y2="384.6372"/><line style="stroke:#0A9EFD;stroke-width:2;" x1="210.0327" x2="210.0327" y1="384.6372" y2="397.6372"/><line style="stroke:#0A9EFD;stroke-width:2;" x1="169.0327" x2="210.0327" y1="397.6372" y2="397.6372"/><polygon fill="#0A9EFD" points="179.0327,393.6372,169.0327,397.6372,179.0327,401.6372,175.0327,397.6372" style="stroke:#0A9EFD;stroke-width:1;stroke-linejoin:miter;stroke-miterlimit:10;"/><text fill="#0A9EFD" font-family="Arial" font-size="13" lengthAdjust="spacing" textLength="266.6777" x="175.0327" y="379.8823">Retrieve authentication token to join a channel</text></g><g class="message" data-entity-1="part2" data-entity-2="part3" data-source-line="25" id="msg8"><polygon fill="#0A9EFD" points="436.7104,422.5859,446.7104,426.5859,436.7104,430.5859,440.7104,426.5859" style="stroke:#0A9EFD;stroke-width:1;stroke-linejoin:miter;stroke-miterlimit:10;"/><line style="stroke:#0A9EFD;stroke-width:2;" x1="168.0327" x2="442.7104" y1="426.5859" y2="426.5859"/><text fill="#0A9EFD" font-family="Arial" font-size="13" lengthAdjust="spacing" textLength="94.6816" x="261.0308" y="421.8311">Join the channel</text></g><path d="M116.7915,448.5859 L237.665,448.5859 L237.665,455.5347 L227.665,465.5347 L116.7915,465.5347 L116.7915,448.5859" fill="#EEEEEE" style="stroke:#0A9EFD;stroke-width:1.5;"/><rect fill="none" height="73.8462" style="stroke:#0A9EFD;stroke-width:2;" width="269.7036" x="116.7915" y="448.5859"/><text fill="#000000" font-family="Arial" font-size="13" lengthAdjust="spacing" textLength="75.8735" x="131.7915" y="461.7798">Process data</text><g class="message" data-entity-1="part2" data-entity-2="part2" data-source-line="29" id="msg9"><line style="stroke:#0A9EFD;stroke-width:2;" x1="168.0327" x2="210.0327" y1="501.4321" y2="501.4321"/><line style="stroke:#0A9EFD;stroke-width:2;" x1="210.0327" x2="210.0327" y1="501.4321" y2="514.4321"/><line style="stroke:#0A9EFD;stroke-width:2;" x1="169.0327" x2="210.0327" y1="514.4321" y2="514.4321"/><polygon fill="#0A9EFD" points="179.0327,510.4321,169.0327,514.4321,179.0327,518.4321,175.0327,514.4321" style="stroke:#0A9EFD;stroke-width:1;stroke-linejoin:miter;stroke-miterlimit:10;"/><text fill="#0A9EFD" font-family="Arial" font-size="13" lengthAdjust="spacing" textLength="195.8506" x="175.0327" y="481.7285">Manage capturing and processing</text><text fill="#0A9EFD" font-family="Arial" font-size="13" lengthAdjust="spacing" textLength="134.4116" x="207.5581" y="496.6772">using external methods</text></g><path d="M116.7915,536.4321 L232.606,536.4321 L232.606,543.3809 L222.606,553.3809 L116.7915,553.3809 L116.7915,536.4321" fill="#EEEEEE" style="stroke:#0A9EFD;stroke-width:1.5;"/><rect fill="none" height="45.8975" style="stroke:#0A9EFD;stroke-width:2;" width="377.0818" x="116.7915" y="536.4321"/><text fill="#000000" font-family="Arial" font-size="13" lengthAdjust="spacing" textLength="70.8145" x="131.7915" y="549.626">Stream data</text><g class="message" data-entity-1="part2" data-entity-2="part3" data-source-line="33" id="msg10"><polygon fill="#0A9EFD" points="436.7104,570.3296,446.7104,574.3296,436.7104,578.3296,440.7104,574.3296" style="stroke:#0A9EFD;stroke-width:1;stroke-linejoin:miter;stroke-miterlimit:10;"/><line style="stroke:#0A9EFD;stroke-width:2;" x1="168.0327" x2="442.7104" y1="574.3296" y2="574.3296"/><text fill="#0A9EFD" font-family="Arial" font-size="13" lengthAdjust="spacing" textLength="201.6143" x="207.5645" y="569.5747">Push external video or audio frame</text></g><g class="message" data-entity-1="part1" data-entity-2="part2" data-source-line="36" id="msg11"><polygon fill="#0A9EFD" points="156.0327,606.2783,166.0327,610.2783,156.0327,614.2783,160.0327,610.2783" style="stroke:#0A9EFD;stroke-width:1;stroke-linejoin:miter;stroke-miterlimit:10;"/><line style="stroke:#0A9EFD;stroke-width:2;" x1="37.7793" x2="162.0327" y1="610.2783" y2="610.2783"/><text fill="#0A9EFD" font-family="Arial" font-size="13" lengthAdjust="spacing" textLength="106.2534" x="49.7793" y="605.5234">Leave the channel</text></g><g class="message" data-entity-1="part2" data-entity-2="part3" data-source-line="37" id="msg12"><polygon fill="#0A9EFD" points="436.7104,635.2271,446.7104,639.2271,436.7104,643.2271,440.7104,639.2271" style="stroke:#0A9EFD;stroke-width:1;stroke-linejoin:miter;stroke-miterlimit:10;"/><line style="stroke:#0A9EFD;stroke-width:2;" x1="168.0327" x2="442.7104" y1="639.2271" y2="639.2271"/><text fill="#0A9EFD" font-family="Arial" font-size="13" lengthAdjust="spacing" textLength="106.2534" x="255.2449" y="634.4722">Leave the channel</text></g><?plantuml-src TP5DJiCm48NtESMGFR172AbgMPJVgg58I4XewamJqsHi-GULIt48JiOu3MrJnCQMxVdUl7a-qQoQM19WPHo--RNcCntR9ijG1UCWNtXoEQ27HJ7FigNPGFvYeWEqDiyikg2LjiW1ycTTae5YSjkLZsQpZBW48Nfib3eSCSLa_lHmwQEz-lwwF4zx3q_ti3I6qwiaU06FbXX6rcPosbsE7M6G2HWq-u2i2CmAGasmimJ4bMOQODUCoqQmM6eZS0aVNRNc3ks1h78cMYWeo4gRG8wn0Iy9gA7Qk2QrtfB3AbX9ZCgq5eDUwaQ7ppqtlKZAUsBhGEgtflesaiIlZnkZUH18kW04LICpDGD7SmfEqqUQK6onX2uEZ4ndrfHMUF-7dVQoQPZ-4GvDp9nHv3sK673GyHuPAs7GXkWqLrsgTbkTZgySktqtRqkXDgK_52-2_6Pxf2sEPj7N_mQrSjZsEHs6SqSeun-CCL3y-_e3?></g></svg>