<svg xmlns="http://www.w3.org/2000/svg" xmlns:xlink="http://www.w3.org/1999/xlink" contentStyleType="text/css" data-diagram-type="SEQUENCE" height="909px" preserveAspectRatio="none" style="width:547px;height:909px;" version="1.1" viewBox="0 0 547 909" width="547px" zoomAndPan="magnify"><?plantuml 1.2026.4?><defs/><g><rect fill="none" height="907.9668" style="stroke:#0A9EFD;stroke-width:1;" width="545.2698" x="0" y="0"/><rect fill="#999999" fill-opacity="0.33333" height="896.9668" style="stroke:#0A9EFD;stroke-width:0.5;" width="90.4824" x="100.3525" y="6"/><text fill="#0A9EFD" font-family="sans-serif" font-size="13" font-weight="700" lengthAdjust="spacing" textLength="56.3354" x="117.426" y="19.4951">Your app</text><rect fill="#999999" fill-opacity="0.33333" height="896.9668" style="stroke:#0A9EFD;stroke-width:0.5;" width="78.3257" x="446.9441" y="6"/><text fill="#0A9EFD" font-family="sans-serif" font-size="13" font-weight="700" lengthAdjust="spacing" textLength="37.5591" x="467.3274" y="19.4951">Agora</text><rect fill="#0A9EFD" fill-opacity="0.06667" height="100.8462" style="stroke:#0A9EFD;stroke-width:2;" width="287.0391" x="94.3525" y="132.0474"/><rect fill="#0A9EFD" fill-opacity="0.06667" height="89.7949" style="stroke:#0A9EFD;stroke-width:2;" width="436.9172" x="94.3525" y="246.8936"/><rect fill="#0A9EFD" fill-opacity="0.06667" height="162.6411" style="stroke:#0A9EFD;stroke-width:2;" width="436.9172" x="94.3525" y="350.6885"/><rect fill="#0A9EFD" fill-opacity="0.06667" height="174.6924" style="stroke:#0A9EFD;stroke-width:2;" width="521.2698" x="10" y="627.1758"/><g class="participant-lifeline" data-entity-uid="part1" data-qualified-name="USR" data-source-line="3" id="part1-lifeline"><g><title>User</title><rect fill="#000000" fill-opacity="0.00000" height="732.7695" width="8" x="33.7793" y="86.0986"/><line style="stroke:#0A9EFD;stroke-width:0.5;stroke-dasharray:5,5;" x1="37" x2="37" y1="86.0986" y2="818.8682"/></g></g><g class="participant-lifeline" data-entity-uid="part2" data-qualified-name="APP" data-source-line="6" id="part2-lifeline"><g><title>Video SDK</title><rect fill="#000000" fill-opacity="0.00000" height="732.7695" width="8" x="141.5938" y="86.0986"/><line style="stroke:#0A9EFD;stroke-width:0.5;stroke-dasharray:5,5;" x1="145.3525" x2="145.3525" y1="86.0986" y2="818.8682"/></g></g><g class="participant-lifeline" data-entity-uid="part3" data-qualified-name="API" data-source-line="10" id="part3-lifeline"><g><title>SDRTN.sup....sup.</title><rect fill="#000000" fill-opacity="0.00000" height="732.7695" width="8" x="482.1069" y="86.0986"/><line style="stroke:#0A9EFD;stroke-width:0.5;stroke-dasharray:5,5;" x1="485.9441" x2="485.9441" y1="86.0986" y2="818.8682"/></g></g><g class="participant participant-head" data-entity-uid="part1" data-qualified-name="USR" data-source-line="3" id="part1-head"><text fill="#0A9EFD" font-family="Arial" font-size="14" lengthAdjust="spacing" textLength="29.5586" x="20" y="83.1318">User</text><ellipse cx="37.7793" cy="16" fill="none" rx="8" ry="8" style="stroke:#0A9EFD;stroke-width:3;"/><path d="M37.7793,24 L37.7793,51 M24.7793,32 L50.7793,32 M37.7793,51 L24.7793,66 M37.7793,51 L50.7793,66" fill="none" style="stroke:#0A9EFD;stroke-width:3;"/></g><g class="participant participant-tail" data-entity-uid="part1" data-qualified-name="USR" data-source-line="3" id="part1-tail"><text fill="#0A9EFD" font-family="Arial" font-size="14" lengthAdjust="spacing" textLength="29.5586" x="20" y="831">User</text><ellipse cx="37.7793" cy="844.9668" fill="none" rx="8" ry="8" style="stroke:#0A9EFD;stroke-width:3;"/><path d="M37.7793,852.9668 L37.7793,879.9668 M24.7793,860.9668 L50.7793,860.9668 M37.7793,879.9668 L24.7793,894.9668 M37.7793,879.9668 L50.7793,894.9668" fill="none" style="stroke:#0A9EFD;stroke-width:3;"/></g><g class="participant participant-head" data-entity-uid="part2" data-qualified-name="APP" data-source-line="6" id="part2-head"><rect fill="none" height="30.0986" rx="2.5" ry="2.5" style="stroke:#0A9EFD;stroke-width:2;" width="82.4824" x="104.3525" y="55"/><text fill="#0A9EFD" font-family="Arial" font-size="14" lengthAdjust="spacing" textLength="68.4824" x="111.3525" y="75.1318">Video SDK</text></g><g class="participant participant-tail" data-entity-uid="part2" data-qualified-name="APP" data-source-line="6" id="part2-tail"><rect fill="none" height="30.0986" rx="2.5" ry="2.5" style="stroke:#0A9EFD;stroke-width:2;" width="82.4824" x="104.3525" y="817.8682"/><text fill="#0A9EFD" font-family="Arial" font-size="14" lengthAdjust="spacing" textLength="68.4824" x="111.3525" y="838">Video SDK</text></g><g class="participant participant-head" data-entity-uid="part3" data-qualified-name="API" data-source-line="10" id="part3-head"><rect fill="none" height="32.6489" rx="2.5" ry="2.5" style="stroke:#0A9EFD;stroke-width:2;" width="70.3257" x="450.9441" y="52.4497"/><text fill="#0A9EFD" font-family="Arial" font-size="14" lengthAdjust="spacing" textLength="48.2207" x="457.9441" y="75.1318">SDRTN</text><text fill="#0A9EFD" font-family="Arial" font-size="11" lengthAdjust="spacing" textLength="8.105" x="506.1648" y="69.7676">&#174;</text></g><g class="participant participant-tail" data-entity-uid="part3" data-qualified-name="API" data-source-line="10" id="part3-tail"><rect fill="none" height="32.6489" rx="2.5" ry="2.5" style="stroke:#0A9EFD;stroke-width:2;" width="70.3257" x="450.9441" y="817.8682"/><text fill="#0A9EFD" font-family="Arial" font-size="14" lengthAdjust="spacing" textLength="48.2207" x="457.9441" y="840.5503">SDRTN</text><text fill="#0A9EFD" font-family="Arial" font-size="11" lengthAdjust="spacing" textLength="8.105" x="506.1648" y="835.186">&#174;</text></g><g class="message" data-entity-1="part1" data-entity-2="part2" data-source-line="13" id="msg1"><polygon fill="#0A9EFD" points="133.5938,113.0474,143.5938,117.0474,133.5938,121.0474,137.5938,117.0474" style="stroke:#0A9EFD;stroke-width:1;stroke-linejoin:miter;stroke-miterlimit:10;"/><line style="stroke:#0A9EFD;stroke-width:2;" x1="37.7793" x2="139.5938" y1="117.0474" y2="117.0474"/><text fill="#0A9EFD" font-family="Arial" font-size="13" lengthAdjust="spacing" textLength="58.5444" x="62.4143" y="112.2925">Open App</text></g><path d="M94.3525,132.0474 L259.3232,132.0474 L259.3232,138.9961 L249.3232,148.9961 L94.3525,148.9961 L94.3525,132.0474" fill="#EEEEEE" style="stroke:#0A9EFD;stroke-width:1.5;"/><rect fill="none" height="100.8462" style="stroke:#0A9EFD;stroke-width:2;" width="287.0391" x="94.3525" y="132.0474"/><text fill="#000000" font-family="Arial" font-size="13" lengthAdjust="spacing" textLength="119.9707" x="109.3525" y="145.2412">Create Agora engine</text><g class="message" data-entity-1="part2" data-entity-2="part2" data-source-line="16" id="msg2"><line style="stroke:#0A9EFD;stroke-width:2;" x1="145.5938" x2="187.5938" y1="169.9448" y2="169.9448"/><line style="stroke:#0A9EFD;stroke-width:2;" x1="187.5938" x2="187.5938" y1="169.9448" y2="182.9448"/><line style="stroke:#0A9EFD;stroke-width:2;" x1="146.5938" x2="187.5938" y1="182.9448" y2="182.9448"/><polygon fill="#0A9EFD" points="156.5938,178.9448,146.5938,182.9448,156.5938,186.9448,152.5938,182.9448" style="stroke:#0A9EFD;stroke-width:1;stroke-linejoin:miter;stroke-miterlimit:10;"/><text fill="#0A9EFD" font-family="Arial" font-size="13" lengthAdjust="spacing" textLength="216.7979" x="152.5938" y="165.1899">Set log file path, log level and file size</text></g><g class="message" data-entity-1="part2" data-entity-2="part2" data-source-line="17" id="msg3"><line style="stroke:#0A9EFD;stroke-width:2;" x1="145.5938" x2="187.5938" y1="211.8936" y2="211.8936"/><line style="stroke:#0A9EFD;stroke-width:2;" x1="187.5938" x2="187.5938" y1="211.8936" y2="224.8936"/><line style="stroke:#0A9EFD;stroke-width:2;" x1="146.5938" x2="187.5938" y1="224.8936" y2="224.8936"/><polygon fill="#0A9EFD" points="156.5938,220.8936,146.5938,224.8936,156.5938,228.8936,152.5938,224.8936" style="stroke:#0A9EFD;stroke-width:1;stroke-linejoin:miter;stroke-miterlimit:10;"/><text fill="#0A9EFD" font-family="Arial" font-size="13" lengthAdjust="spacing" textLength="121.4116" x="152.5938" y="207.1387">Create Agora Engine</text></g><path d="M94.3525,246.8936 L309.8887,246.8936 L309.8887,253.8423 L299.8887,263.8423 L94.3525,263.8423 L94.3525,246.8936" fill="#EEEEEE" style="stroke:#0A9EFD;stroke-width:1.5;"/><rect fill="none" height="89.7949" style="stroke:#0A9EFD;stroke-width:2;" width="436.9172" x="94.3525" y="246.8936"/><text fill="#000000" font-family="Arial" font-size="13" lengthAdjust="spacing" textLength="170.5361" x="109.3525" y="260.0874">Best practice for app initiation</text><g class="message" data-entity-1="part2" data-entity-2="part3" data-source-line="21" id="msg4"><polygon fill="#0A9EFD" points="474.1069,295.7397,484.1069,299.7397,474.1069,303.7397,478.1069,299.7397" style="stroke:#0A9EFD;stroke-width:1;stroke-linejoin:miter;stroke-miterlimit:10;"/><line style="stroke:#0A9EFD;stroke-width:2;" x1="145.5938" x2="480.1069" y1="299.7397" y2="299.7397"/><text fill="#0A9EFD" font-family="Arial" font-size="13" lengthAdjust="spacing" textLength="148.8589" x="241.4209" y="280.0361">Enable dual-stream mode</text><text fill="#0A9EFD" font-family="Arial" font-size="13" lengthAdjust="spacing" textLength="265.9033" x="184.7046" y="294.9849">to allow remote users to choose a stream type</text></g><g class="message" data-entity-1="part2" data-entity-2="part3" data-source-line="22" id="msg5"><polygon fill="#0A9EFD" points="474.1069,324.6885,484.1069,328.6885,474.1069,332.6885,478.1069,328.6885" style="stroke:#0A9EFD;stroke-width:1;stroke-linejoin:miter;stroke-miterlimit:10;"/><line style="stroke:#0A9EFD;stroke-width:2;" x1="145.5938" x2="480.1069" y1="328.6885" y2="328.6885"/><text fill="#0A9EFD" font-family="Arial" font-size="13" lengthAdjust="spacing" textLength="316.5132" x="157.5938" y="323.9336">Set local publish and remote subscribe fallback options</text></g><path d="M94.3525,350.6885 L223.897,350.6885 L223.897,357.6372 L213.897,367.6372 L94.3525,367.6372 L94.3525,350.6885" fill="#EEEEEE" style="stroke:#0A9EFD;stroke-width:1.5;"/><rect fill="none" height="162.6411" style="stroke:#0A9EFD;stroke-width:2;" width="436.9172" x="94.3525" y="350.6885"/><text fill="#000000" font-family="Arial" font-size="13" lengthAdjust="spacing" textLength="84.5444" x="109.3525" y="363.8823">Settings check</text><g class="message" data-entity-1="part2" data-entity-2="part3" data-source-line="26" id="msg6"><polygon fill="#0A9EFD" points="474.1069,399.5347,484.1069,403.5347,474.1069,407.5347,478.1069,403.5347" style="stroke:#0A9EFD;stroke-width:1;stroke-linejoin:miter;stroke-miterlimit:10;"/><line style="stroke:#0A9EFD;stroke-width:2;" x1="145.5938" x2="480.1069" y1="403.5347" y2="403.5347"/><text fill="#0A9EFD" font-family="Arial" font-size="13" lengthAdjust="spacing" textLength="195.1206" x="218.29" y="383.8311">Specify audio profile and scenario</text><text fill="#0A9EFD" font-family="Arial" font-size="13" lengthAdjust="spacing" textLength="177.0869" x="229.1128" y="398.7798">based on the nature of the app</text></g><g class="message" data-entity-1="part2" data-entity-2="part3" data-source-line="27" id="msg7"><polygon fill="#0A9EFD" points="474.1069,428.4834,484.1069,432.4834,474.1069,436.4834,478.1069,432.4834" style="stroke:#0A9EFD;stroke-width:1;stroke-linejoin:miter;stroke-miterlimit:10;"/><line style="stroke:#0A9EFD;stroke-width:2;" x1="145.5938" x2="480.1069" y1="432.4834" y2="432.4834"/><text fill="#0A9EFD" font-family="Arial" font-size="13" lengthAdjust="spacing" textLength="182.8442" x="224.4282" y="427.7285">Set video encoder configuration</text></g><g class="message" data-entity-1="part2" data-entity-2="part3" data-source-line="28" id="msg8"><polygon fill="#0A9EFD" points="474.1069,457.4321,484.1069,461.4321,474.1069,465.4321,478.1069,461.4321" style="stroke:#0A9EFD;stroke-width:1;stroke-linejoin:miter;stroke-miterlimit:10;"/><line style="stroke:#0A9EFD;stroke-width:2;" x1="145.5938" x2="480.1069" y1="461.4321" y2="461.4321"/><text fill="#0A9EFD" font-family="Arial" font-size="13" lengthAdjust="spacing" textLength="266.6396" x="182.5305" y="456.6772">Call the method to start the network probe test</text></g><g class="message" data-entity-1="part3" data-entity-2="part2" data-source-line="29" id="msg9"><polygon fill="#0A9EFD" points="156.5938,501.3296,146.5938,505.3296,156.5938,509.3296,152.5938,505.3296" style="stroke:#0A9EFD;stroke-width:1;stroke-linejoin:miter;stroke-miterlimit:10;"/><line style="stroke:#0A9EFD;stroke-width:2;" x1="150.5938" x2="485.1069" y1="505.3296" y2="505.3296"/><text fill="#0A9EFD" font-family="Arial" font-size="13" lengthAdjust="spacing" textLength="166.1753" x="232.7627" y="485.626">Deliver network quality score</text><text fill="#0A9EFD" font-family="Arial" font-size="13" lengthAdjust="spacing" textLength="124.2744" x="255.519" y="500.5747">and network statistics</text></g><g class="message" data-entity-1="part1" data-entity-2="part2" data-source-line="32" id="msg10"><polygon fill="#0A9EFD" points="133.5938,537.2783,143.5938,541.2783,133.5938,545.2783,137.5938,541.2783" style="stroke:#0A9EFD;stroke-width:1;stroke-linejoin:miter;stroke-miterlimit:10;"/><line style="stroke:#0A9EFD;stroke-width:2;" x1="37.7793" x2="139.5938" y1="541.2783" y2="541.2783"/><text fill="#0A9EFD" font-family="Arial" font-size="13" lengthAdjust="spacing" textLength="72.998" x="55.1875" y="536.5234">Join channel</text></g><g class="message" data-entity-1="part2" data-entity-2="part2" data-source-line="33" id="msg11"><line style="stroke:#0A9EFD;stroke-width:2;" x1="145.5938" x2="187.5938" y1="570.2271" y2="570.2271"/><line style="stroke:#0A9EFD;stroke-width:2;" x1="187.5938" x2="187.5938" y1="570.2271" y2="583.2271"/><line style="stroke:#0A9EFD;stroke-width:2;" x1="146.5938" x2="187.5938" y1="583.2271" y2="583.2271"/><polygon fill="#0A9EFD" points="156.5938,579.2271,146.5938,583.2271,156.5938,587.2271,152.5938,583.2271" style="stroke:#0A9EFD;stroke-width:1;stroke-linejoin:miter;stroke-miterlimit:10;"/><text fill="#0A9EFD" font-family="Arial" font-size="13" lengthAdjust="spacing" textLength="75.1689" x="152.5938" y="565.4722">Enable video</text></g><g class="message" data-entity-1="part2" data-entity-2="part3" data-source-line="34" id="msg12"><polygon fill="#0A9EFD" points="474.1069,608.1758,484.1069,612.1758,474.1069,616.1758,478.1069,612.1758" style="stroke:#0A9EFD;stroke-width:1;stroke-linejoin:miter;stroke-miterlimit:10;"/><line style="stroke:#0A9EFD;stroke-width:2;" x1="145.5938" x2="480.1069" y1="612.1758" y2="612.1758"/><text fill="#0A9EFD" font-family="Arial" font-size="13" lengthAdjust="spacing" textLength="72.998" x="279.3513" y="607.4209">Join channel</text></g><path d="M10,627.1758 L195.1753,627.1758 L195.1753,634.1245 L185.1753,644.1245 L10,644.1245 L10,627.1758" fill="#EEEEEE" style="stroke:#0A9EFD;stroke-width:1.5;"/><rect fill="none" height="174.6924" style="stroke:#0A9EFD;stroke-width:2;" width="521.2698" x="10" y="627.1758"/><text fill="#000000" font-family="Arial" font-size="13" lengthAdjust="spacing" textLength="140.1753" x="25" y="640.3696">In-call quality monitoring</text><g class="message" data-entity-1="part2" data-entity-2="part2" data-source-line="37" id="msg13"><line style="stroke:#0A9EFD;stroke-width:2;" x1="145.5938" x2="187.5938" y1="665.0732" y2="665.0732"/><line style="stroke:#0A9EFD;stroke-width:2;" x1="187.5938" x2="187.5938" y1="665.0732" y2="678.0732"/><line style="stroke:#0A9EFD;stroke-width:2;" x1="146.5938" x2="187.5938" y1="678.0732" y2="678.0732"/><polygon fill="#0A9EFD" points="156.5938,674.0732,146.5938,678.0732,156.5938,682.0732,152.5938,678.0732" style="stroke:#0A9EFD;stroke-width:1;stroke-linejoin:miter;stroke-miterlimit:10;"/><text fill="#0A9EFD" font-family="Arial" font-size="13" lengthAdjust="spacing" textLength="156.8062" x="152.5938" y="660.3184">Enable the quality statistics</text></g><g class="message" data-entity-1="part3" data-entity-2="part2" data-source-line="38" id="msg14"><polygon fill="#0A9EFD" points="156.5938,703.022,146.5938,707.022,156.5938,711.022,152.5938,707.022" style="stroke:#0A9EFD;stroke-width:1;stroke-linejoin:miter;stroke-miterlimit:10;"/><line style="stroke:#0A9EFD;stroke-width:2;" x1="150.5938" x2="485.1069" y1="707.022" y2="707.022"/><text fill="#0A9EFD" font-family="Arial" font-size="13" lengthAdjust="spacing" textLength="316.4941" x="157.6033" y="702.2671">Receive network, call, audio and video quality statistics</text></g><g class="message" data-entity-1="part3" data-entity-2="part2" data-source-line="39" id="msg15"><polygon fill="#0A9EFD" points="156.5938,731.9707,146.5938,735.9707,156.5938,739.9707,152.5938,735.9707" style="stroke:#0A9EFD;stroke-width:1;stroke-linejoin:miter;stroke-miterlimit:10;"/><line style="stroke:#0A9EFD;stroke-width:2;" x1="150.5938" x2="485.1069" y1="735.9707" y2="735.9707"/><text fill="#0A9EFD" font-family="Arial" font-size="13" lengthAdjust="spacing" textLength="197.2852" x="217.2078" y="731.2158">Receive state change notifications</text></g><g class="message" data-entity-1="part2" data-entity-2="part1" data-source-line="40" id="msg16"><polygon fill="#0A9EFD" points="48.7793,760.9194,38.7793,764.9194,48.7793,768.9194,44.7793,764.9194" style="stroke:#0A9EFD;stroke-width:1;stroke-linejoin:miter;stroke-miterlimit:10;"/><line style="stroke:#0A9EFD;stroke-width:2;" x1="42.7793" x2="144.5938" y1="764.9194" y2="764.9194"/><text fill="#0A9EFD" font-family="Arial" font-size="13" lengthAdjust="spacing" textLength="83.8145" x="49.7793" y="760.1646">Notify the user</text></g><g class="message" data-entity-1="part2" data-entity-2="part3" data-source-line="41" id="msg17"><polygon fill="#0A9EFD" points="474.1069,789.8682,484.1069,793.8682,474.1069,797.8682,478.1069,793.8682" style="stroke:#0A9EFD;stroke-width:1;stroke-linejoin:miter;stroke-miterlimit:10;"/><line style="stroke:#0A9EFD;stroke-width:2;" x1="145.5938" x2="480.1069" y1="793.8682" y2="793.8682"/><text fill="#0A9EFD" font-family="Arial" font-size="13" lengthAdjust="spacing" textLength="127.1626" x="252.269" y="789.1133">Take corrective action</text></g><?plantuml-src ZPDDRjim48NtEiNKQxlT6q40Dyx2BP06TbAWG862eaRom1I7vOzJzr0zH4_M8It_gEcYAq4YvvlttepUaDKcDGYgOw--XHtPjvHwKrLAH_OmUGxe9w02F6_MLLNp3vXyuUH1EJUfdFAHD3bb8qm-KuCCc-N7Sdtn-5YXRK0gXh95xl1NpMQvVdgu2SdT_lvryou_X-BLfLWQm-ms0-VmoQ65XNDLrNbE3kuygeXGq82s8ujGoSrpmGOZ6EwW9OFWLDnEowl1FHfGqg8S1Fg9ex8Hzxvmiw1Js_SO8ZWl4P56QBd40MGfaeh4zi9QpQLSrTAZIShCGXHm3pqt-DL2P536y0jux5dQ9SawvAzwonna9Z3SZmU78-RHbbO6NAeDXMtnCc12geFsL8iomTTAxu1TbXMkFGWYaks2D4Ez6zCTQceFe593B3wvX9Gx18rMUM8HNwk03R2us29O5PD7uBQyIHYlrExBTg3LOjs3PjjIb_phjEv4Se7q6BVSv3H2b9Kvji7umdwN9OcxA5EGsjLvQaiqj1VwwTftYPpYGLIpptbd1wSpWKOAChyXbEij-y1a9HPbBPhHMWoZB5v6gaSLGy0hEzFPp4b5px8Vx2NpVp6plRFUYxPhUslKAFvE5gQGyTDXIjdRCUF_fEHZB9exGNAabhGwRiaWJoAPmqC-EHHvUJr7hf_KJWZiFSgF8CZyFyWuSvv_0000?></g></svg>