<svg xmlns="http://www.w3.org/2000/svg" xmlns:xlink="http://www.w3.org/1999/xlink" contentStyleType="text/css" data-diagram-type="SEQUENCE" height="1073px" preserveAspectRatio="none" style="width:612px;height:1073px;" version="1.1" viewBox="0 0 612 1073" width="612px" zoomAndPan="magnify"><?plantuml 1.2026.4?><defs/><g><rect fill="none" height="1071.9632" style="stroke:#0A9EFD;stroke-width:1;" width="610.5065" x="0" y="0"/><rect fill="#999999" fill-opacity="0.33333" height="1060.9632" style="stroke:#0A9EFD;stroke-width:0.5;" width="50.6667" x="26" y="6"/><text fill="#0A9EFD" font-family="sans-serif" font-size="13" font-weight="700" lengthAdjust="spacing" textLength="25.27" x="38.6983" y="19.4951">App</text><rect fill="#999999" fill-opacity="0.33333" height="1060.9632" style="stroke:#0A9EFD;stroke-width:0.5;" width="72.4536" x="288.437" y="6"/><text fill="#0A9EFD" font-family="sans-serif" font-size="13" font-weight="700" lengthAdjust="spacing" textLength="66.4536" x="291.437" y="19.4951">Video SDK</text><rect fill="#999999" fill-opacity="0.33333" height="1060.9632" style="stroke:#0A9EFD;stroke-width:0.5;" width="99.3154" x="505.5155" y="6"/><text fill="#0A9EFD" font-family="sans-serif" font-size="13" font-weight="700" lengthAdjust="spacing" textLength="85.9473" x="508.5155" y="21.7217">Agora SDRTN</text><text fill="#0A9EFD" font-family="sans-serif" font-size="10" font-weight="700" lengthAdjust="spacing" textLength="7.3682" x="594.4627" y="16.3809">&#174;</text><rect fill="#0A9EFD" fill-opacity="0.06667" height="60.8462" style="stroke:#0A9EFD;stroke-width:2;" width="335.9972" x="20" y="87.2448"/><rect fill="#0A9EFD" fill-opacity="0.06667" height="60.8462" style="stroke:#0A9EFD;stroke-width:2;" width="335.9972" x="20" y="162.091"/><rect fill="#0A9EFD" fill-opacity="0.06667" height="74.8462" style="stroke:#0A9EFD;stroke-width:2;" width="566.5065" x="20" y="236.9372"/><rect fill="#0A9EFD" fill-opacity="0.06667" height="208.5386" style="stroke:#0A9EFD;stroke-width:2;" width="586.5065" x="10" y="325.7834"/><rect fill="#0A9EFD" fill-opacity="0.06667" height="177.5898" style="stroke:#0A9EFD;stroke-width:2;" width="566.5065" x="20" y="349.7321"/><rect fill="#0A9EFD" fill-opacity="0.06667" height="265.3848" style="stroke:#0A9EFD;stroke-width:2;" width="566.5065" x="20" y="548.3219"/><rect fill="#0A9EFD" fill-opacity="0.06667" height="177.5898" style="stroke:#0A9EFD;stroke-width:2;" width="566.5065" x="20" y="827.7067"/><g class="participant-lifeline" data-entity-uid="part1" data-qualified-name="APP" data-source-line="4" id="part1-lifeline"><g><title>.size.40...tablet.</title><rect fill="#000000" fill-opacity="0.00000" height="952.0518" width="8" x="47.3333" y="70.2448"/><line style="stroke:#0A9EFD;stroke-width:0.5;stroke-dasharray:5,5;" x1="51" x2="51" y1="70.2448" y2="1022.2965"/></g></g><g class="participant-lifeline" data-entity-uid="part2" data-qualified-name="SDK" data-source-line="8" id="part2-lifeline"><g><title>.size.40...layers.</title><rect fill="#000000" fill-opacity="0.00000" height="952.0518" width="8" x="320.6638" y="70.2448"/><line style="stroke:#0A9EFD;stroke-width:0.5;stroke-dasharray:5,5;" x1="324.3305" x2="324.3305" y1="70.2448" y2="1022.2965"/></g></g><g class="participant-lifeline" data-entity-uid="part3" data-qualified-name="RTN" data-source-line="12" id="part3-lifeline"><g><title>.size.40...cloud.</title><rect fill="#000000" fill-opacity="0.00000" height="952.0518" width="8" x="551.1732" y="70.2448"/><line style="stroke:#0A9EFD;stroke-width:0.5;stroke-dasharray:5,5;" x1="554.8398" x2="554.8398" y1="70.2448" y2="1022.2965"/></g></g><g class="participant participant-head" data-entity-uid="part1" data-qualified-name="APP" data-source-line="4" id="part1-head"><rect fill="none" height="40.6667" rx="2.5" ry="2.5" style="stroke:#0A9EFD;stroke-width:2;" width="42.6667" x="30" y="28.5781"/><path d="M39.1333,35.5781 C38.5333,35.5781 38,36.1115 38,36.7115 L38,61.0781 C38,61.6781 38.5333,62.2115 39.1333,62.2115 L60.1667,62.2115 C60.7667,62.2115 61.3,61.6781 61.3,61.0781 L61.3,36.7115 C61.3,36.1115 60.7667,35.5781 60.1667,35.5781 L39.1333,35.5781 M41.3333,38.9115 L58,38.9115 L58,55.5781 L41.3333,55.5781 L41.3333,38.9115 M49.6667,57.2448 C50.9333,57.2448 51.7667,58.6448 51.1333,59.7448 C50.5,60.8448 48.8667,60.8448 48.2,59.7448 C47.5667,58.6448 48.3667,57.2448 49.6667,57.2448" fill="#0A9EFD"/></g><g class="participant participant-tail" data-entity-uid="part1" data-qualified-name="APP" data-source-line="4" id="part1-tail"><rect fill="none" height="40.6667" rx="2.5" ry="2.5" style="stroke:#0A9EFD;stroke-width:2;" width="42.6667" x="30" y="1021.2965"/><path d="M39.1333,1028.2965 C38.5333,1028.2965 38,1028.8299 38,1029.4299 L38,1053.7965 C38,1054.3965 38.5333,1054.9299 39.1333,1054.9299 L60.1667,1054.9299 C60.7667,1054.9299 61.3,1054.3965 61.3,1053.7965 L61.3,1029.4299 C61.3,1028.8299 60.7667,1028.2965 60.1667,1028.2965 L39.1333,1028.2965 M41.3333,1031.6299 L58,1031.6299 L58,1048.2965 L41.3333,1048.2965 L41.3333,1031.6299 M49.6667,1049.9632 C50.9333,1049.9632 51.7667,1051.3632 51.1333,1052.4632 C50.5,1053.5632 48.8667,1053.5632 48.2,1052.4632 C47.5667,1051.3632 48.3667,1049.9632 49.6667,1049.9632" fill="#0A9EFD"/></g><g class="participant participant-head" data-entity-uid="part2" data-qualified-name="SDK" data-source-line="8" id="part2-head"><rect fill="none" height="40.6667" rx="2.5" ry="2.5" style="stroke:#0A9EFD;stroke-width:2;" width="42.6667" x="303.3305" y="28.5781"/><path d="M311.3305,35.5781 L311.3305,48.9115 L324.6638,48.9115 L324.6638,35.5781 L311.3305,35.5781 M327.9972,42.2448 L327.9972,52.2448 L317.9972,52.2448 L317.9972,55.5781 L331.3305,55.5781 L331.3305,42.2448 L327.9972,42.2448 M334.6638,48.9115 L334.6638,58.9115 L324.6638,58.9115 L324.6638,62.2448 L337.9972,62.2448 L337.9972,48.9115 L334.6638,48.9115" fill="#0A9EFD"/></g><g class="participant participant-tail" data-entity-uid="part2" data-qualified-name="SDK" data-source-line="8" id="part2-tail"><rect fill="none" height="40.6667" rx="2.5" ry="2.5" style="stroke:#0A9EFD;stroke-width:2;" width="42.6667" x="303.3305" y="1021.2965"/><path d="M311.3305,1028.2965 L311.3305,1041.6299 L324.6638,1041.6299 L324.6638,1028.2965 L311.3305,1028.2965 M327.9972,1034.9632 L327.9972,1044.9632 L317.9972,1044.9632 L317.9972,1048.2965 L331.3305,1048.2965 L331.3305,1034.9632 L327.9972,1034.9632 M334.6638,1041.6299 L334.6638,1051.6299 L324.6638,1051.6299 L324.6638,1054.9632 L337.9972,1054.9632 L337.9972,1041.6299 L334.6638,1041.6299" fill="#0A9EFD"/></g><g class="participant participant-head" data-entity-uid="part3" data-qualified-name="RTN" data-source-line="12" id="part3-head"><rect fill="none" height="40.6667" rx="2.5" ry="2.5" style="stroke:#0A9EFD;stroke-width:2;" width="42.6667" x="533.8398" y="28.5781"/><path d="M556.8398,38.9115 C552.8065,38.9115 549.2732,41.7781 548.5065,45.5781 C544.8398,45.5781 541.8398,48.5781 541.8398,52.2448 C541.8398,55.9115 544.8398,58.9115 548.5065,58.9115 L563.5065,58.9115 C566.2732,58.9115 568.5065,56.6781 568.5065,53.9115 C568.5065,51.7448 567.1065,49.6115 565.1732,48.9115 L565.1732,47.2448 C565.1732,42.6448 561.4398,38.9115 556.8398,38.9115" fill="#0A9EFD"/></g><g class="participant participant-tail" data-entity-uid="part3" data-qualified-name="RTN" data-source-line="12" id="part3-tail"><rect fill="none" height="40.6667" rx="2.5" ry="2.5" style="stroke:#0A9EFD;stroke-width:2;" width="42.6667" x="533.8398" y="1021.2965"/><path d="M556.8398,1031.6299 C552.8065,1031.6299 549.2732,1034.4965 548.5065,1038.2965 C544.8398,1038.2965 541.8398,1041.2965 541.8398,1044.9632 C541.8398,1048.6299 544.8398,1051.6299 548.5065,1051.6299 L563.5065,1051.6299 C566.2732,1051.6299 568.5065,1049.3965 568.5065,1046.6299 C568.5065,1044.4632 567.1065,1042.3299 565.1732,1041.6299 L565.1732,1039.9632 C565.1732,1035.3632 561.4398,1031.6299 556.8398,1031.6299" fill="#0A9EFD"/></g><path d="M20,87.2448 L179.1689,87.2448 L179.1689,94.1935 L169.1689,104.1935 L20,104.1935 L20,87.2448" fill="#EEEEEE" style="stroke:#0A9EFD;stroke-width:1.5;"/><rect fill="none" height="60.8462" style="stroke:#0A9EFD;stroke-width:2;" width="335.9972" x="20" y="87.2448"/><text fill="#000000" font-family="Arial" font-size="13" lengthAdjust="spacing" textLength="114.1689" x="35" y="100.4386">Create a local client</text><g class="message" data-entity-1="part1" data-entity-2="part2" data-source-line="16" id="msg1"><polygon fill="#0A9EFD" points="312.6638,136.091,322.6638,140.091,312.6638,144.091,316.6638,140.091" style="stroke:#0A9EFD;stroke-width:1;stroke-linejoin:miter;stroke-miterlimit:10;"/><line style="stroke:#0A9EFD;stroke-width:2;" x1="51.3333" x2="318.6638" y1="140.091" y2="140.091"/><text fill="#0A9EFD" font-family="Arial" font-size="13" lengthAdjust="spacing" textLength="134.3862" x="120.8055" y="120.3874">AgoraRTC.createClient</text><text fill="#0A9EFD" font-family="Arial" font-size="13" lengthAdjust="spacing" textLength="98.1792" x="140.7149" y="135.3361">Set mode to 'live'</text></g><path d="M20,162.091 L138.7026,162.091 L138.7026,169.0397 L128.7026,179.0397 L20,179.0397 L20,162.091" fill="#EEEEEE" style="stroke:#0A9EFD;stroke-width:1.5;"/><rect fill="none" height="60.8462" style="stroke:#0A9EFD;stroke-width:2;" width="335.9972" x="20" y="162.091"/><text fill="#000000" font-family="Arial" font-size="13" lengthAdjust="spacing" textLength="73.7026" x="35" y="175.2848">Set user role</text><g class="message" data-entity-1="part1" data-entity-2="part2" data-source-line="20" id="msg2"><polygon fill="#0A9EFD" points="312.6638,210.9372,322.6638,214.9372,312.6638,218.9372,316.6638,214.9372" style="stroke:#0A9EFD;stroke-width:1;stroke-linejoin:miter;stroke-miterlimit:10;"/><line style="stroke:#0A9EFD;stroke-width:2;" x1="51.3333" x2="318.6638" y1="214.9372" y2="214.9372"/><text fill="#0A9EFD" font-family="Arial" font-size="13" lengthAdjust="spacing" textLength="190.6011" x="92.698" y="195.2336">Set the role to 'host' or 'audience'</text><text fill="#0A9EFD" font-family="Arial" font-size="13" lengthAdjust="spacing" textLength="175.5698" x="102.0196" y="210.1823">AgoraRTCClient.setClientRole</text></g><path d="M20,236.9372 L137.998,236.9372 L137.998,243.8859 L127.998,253.8859 L20,253.8859 L20,236.9372" fill="#EEEEEE" style="stroke:#0A9EFD;stroke-width:1.5;"/><rect fill="none" height="74.8462" style="stroke:#0A9EFD;stroke-width:2;" width="566.5065" x="20" y="236.9372"/><text fill="#000000" font-family="Arial" font-size="13" lengthAdjust="spacing" textLength="72.998" x="35" y="250.131">Join channel</text><g class="message" data-entity-1="part1" data-entity-2="part2" data-source-line="24" id="msg3"><polygon fill="#0A9EFD" points="312.6638,270.8346,322.6638,274.8346,312.6638,278.8346,316.6638,274.8346" style="stroke:#0A9EFD;stroke-width:1;stroke-linejoin:miter;stroke-miterlimit:10;"/><line style="stroke:#0A9EFD;stroke-width:2;" x1="51.3333" x2="318.6638" y1="274.8346" y2="274.8346"/><text fill="#0A9EFD" font-family="Arial" font-size="13" lengthAdjust="spacing" textLength="118.4917" x="128.7527" y="270.0798">AgoraRTCClient.join</text></g><g class="message" data-entity-1="part2" data-entity-2="part3" data-source-line="25" id="msg4"><polygon fill="#0A9EFD" points="543.1732,299.7834,553.1732,303.7834,543.1732,307.7834,547.1732,303.7834" style="stroke:#0A9EFD;stroke-width:1;stroke-linejoin:miter;stroke-miterlimit:10;"/><line style="stroke:#0A9EFD;stroke-width:2;" x1="324.6638" x2="549.1732" y1="303.7834" y2="303.7834"/><text fill="#0A9EFD" font-family="Arial" font-size="13" lengthAdjust="spacing" textLength="119.9707" x="379.9331" y="299.0285">Join channel request</text></g><path d="M10,325.7834 L184.2446,325.7834 L184.2446,332.7321 L174.2446,342.7321 L10,342.7321 L10,325.7834" fill="#EEEEEE" style="stroke:#0A9EFD;stroke-width:1.5;"/><rect fill="none" height="208.5386" style="stroke:#0A9EFD;stroke-width:2;" width="586.5065" x="10" y="325.7834"/><text fill="#000000" font-family="Arial" font-size="13" lengthAdjust="spacing" textLength="129.2446" x="25" y="338.9772">If the user role is 'host'</text><path d="M20,349.7321 L338.1714,349.7321 L338.1714,356.6808 L328.1714,366.6808 L20,366.6808 L20,349.7321" fill="#EEEEEE" style="stroke:#0A9EFD;stroke-width:1.5;"/><rect fill="none" height="177.5898" style="stroke:#0A9EFD;stroke-width:2;" width="566.5065" x="20" y="349.7321"/><text fill="#000000" font-family="Arial" font-size="13" lengthAdjust="spacing" textLength="273.1714" x="35" y="362.9259">Create and publish local audio and video tracks</text><g class="message" data-entity-1="part1" data-entity-2="part2" data-source-line="30" id="msg5"><polygon fill="#0A9EFD" points="312.6638,398.5783,322.6638,402.5783,312.6638,406.5783,316.6638,402.5783" style="stroke:#0A9EFD;stroke-width:1;stroke-linejoin:miter;stroke-miterlimit:10;"/><line style="stroke:#0A9EFD;stroke-width:2;" x1="51.3333" x2="318.6638" y1="402.5783" y2="402.5783"/><text fill="#0A9EFD" font-family="Arial" font-size="13" lengthAdjust="spacing" textLength="136.5698" x="119.7137" y="382.8747">Create local audio track</text><text fill="#0A9EFD" font-family="Arial" font-size="13" lengthAdjust="spacing" textLength="234.8252" x="72.3919" y="397.8234">AgoraRTC.createMicrophoneAudioTrack</text></g><g class="message" data-entity-1="part1" data-entity-2="part2" data-source-line="31" id="msg6"><polygon fill="#0A9EFD" points="312.6638,442.4757,322.6638,446.4757,312.6638,450.4757,316.6638,446.4757" style="stroke:#0A9EFD;stroke-width:1;stroke-linejoin:miter;stroke-miterlimit:10;"/><line style="stroke:#0A9EFD;stroke-width:2;" x1="51.3333" x2="318.6638" y1="446.4757" y2="446.4757"/><text fill="#0A9EFD" font-family="Arial" font-size="13" lengthAdjust="spacing" textLength="135.8398" x="120.0787" y="426.7721">Create local video track</text><text fill="#0A9EFD" font-family="Arial" font-size="13" lengthAdjust="spacing" textLength="213.1353" x="83.2369" y="441.7209">AgoraRTC.createCameraVideoTrack</text></g><g class="message" data-entity-1="part1" data-entity-2="part2" data-source-line="32" id="msg7"><polygon fill="#0A9EFD" points="312.6638,486.3732,322.6638,490.3732,312.6638,494.3732,316.6638,490.3732" style="stroke:#0A9EFD;stroke-width:1;stroke-linejoin:miter;stroke-miterlimit:10;"/><line style="stroke:#0A9EFD;stroke-width:2;" x1="51.3333" x2="318.6638" y1="490.3732" y2="490.3732"/><text fill="#0A9EFD" font-family="Arial" font-size="13" lengthAdjust="spacing" textLength="206.6797" x="84.6587" y="470.6696">Publish local audio and video tracks</text><text fill="#0A9EFD" font-family="Arial" font-size="13" lengthAdjust="spacing" textLength="139.4517" x="120.0787" y="485.6183">AgoraRTCClient.publish</text></g><g class="message" data-entity-1="part2" data-entity-2="part3" data-source-line="33" id="msg8"><polygon fill="#0A9EFD" points="543.1732,515.3219,553.1732,519.3219,543.1732,523.3219,547.1732,519.3219" style="stroke:#0A9EFD;stroke-width:1;stroke-linejoin:miter;stroke-miterlimit:10;"/><line style="stroke:#0A9EFD;stroke-width:2;" x1="324.6638" x2="549.1732" y1="519.3219" y2="519.3219"/><text fill="#0A9EFD" font-family="Arial" font-size="13" lengthAdjust="spacing" textLength="154.686" x="362.5755" y="514.5671">Send audio and video data</text></g><path d="M20,548.3219 L216.7344,548.3219 L216.7344,555.2707 L206.7344,565.2707 L20,565.2707 L20,548.3219" fill="#EEEEEE" style="stroke:#0A9EFD;stroke-width:1.5;"/><rect fill="none" height="265.3848" style="stroke:#0A9EFD;stroke-width:2;" width="566.5065" x="20" y="548.3219"/><text fill="#000000" font-family="Arial" font-size="13" lengthAdjust="spacing" textLength="151.7344" x="35" y="561.5158">Subscribe to remote users</text><g class="message" data-entity-1="part3" data-entity-2="part1" data-source-line="38" id="msg9"><polygon fill="#0A9EFD" points="62.3333,597.1681,52.3333,601.1681,62.3333,605.1681,58.3333,601.1681" style="stroke:#0A9EFD;stroke-width:1;stroke-linejoin:miter;stroke-miterlimit:10;"/><line style="stroke:#0A9EFD;stroke-width:2;stroke-dasharray:2,2;" x1="56.3333" x2="554.1732" y1="601.1681" y2="601.1681"/><text fill="#0A9EFD" font-family="Arial" font-size="13" lengthAdjust="spacing" textLength="259.4224" x="173.5421" y="581.4645">Remote users publish audio and video tracks</text><text fill="#0A9EFD" font-family="Arial" font-size="13" lengthAdjust="spacing" textLength="151.582" x="229.2681" y="596.4132">client.on("user-published")</text></g><g class="message" data-entity-1="part1" data-entity-2="part2" data-source-line="39" id="msg10"><polygon fill="#0A9EFD" points="312.6638,641.0656,322.6638,645.0656,312.6638,649.0656,316.6638,645.0656" style="stroke:#0A9EFD;stroke-width:1;stroke-linejoin:miter;stroke-miterlimit:10;"/><line style="stroke:#0A9EFD;stroke-width:2;" x1="51.3333" x2="318.6638" y1="645.0656" y2="645.0656"/><text fill="#0A9EFD" font-family="Arial" font-size="13" lengthAdjust="spacing" textLength="132.228" x="121.8846" y="625.362">Get remote user object</text><text fill="#0A9EFD" font-family="Arial" font-size="13" lengthAdjust="spacing" textLength="172.6626" x="103.4732" y="640.3107">AgoraRTCClient.remoteUsers</text></g><g class="message" data-entity-1="part1" data-entity-2="part2" data-source-line="40" id="msg11"><polygon fill="#0A9EFD" points="312.6638,684.9631,322.6638,688.9631,312.6638,692.9631,316.6638,688.9631" style="stroke:#0A9EFD;stroke-width:1;stroke-linejoin:miter;stroke-miterlimit:10;"/><line style="stroke:#0A9EFD;stroke-width:2;" x1="51.3333" x2="318.6638" y1="688.9631" y2="688.9631"/><text fill="#0A9EFD" font-family="Arial" font-size="13" lengthAdjust="spacing" textLength="183.5361" x="96.2305" y="669.2594">Subscribe to remote user object</text><text fill="#0A9EFD" font-family="Arial" font-size="13" lengthAdjust="spacing" textLength="153.8926" x="112.8582" y="684.2082">AgoraRTCClient.subscribe</text></g><g class="message" data-entity-1="part3" data-entity-2="part2" data-source-line="41" id="msg12"><polygon fill="#0A9EFD" points="335.6638,713.9118,325.6638,717.9118,335.6638,721.9118,331.6638,717.9118" style="stroke:#0A9EFD;stroke-width:1;stroke-linejoin:miter;stroke-miterlimit:10;"/><line style="stroke:#0A9EFD;stroke-width:2;" x1="329.6638" x2="554.1732" y1="717.9118" y2="717.9118"/><text fill="#0A9EFD" font-family="Arial" font-size="13" lengthAdjust="spacing" textLength="171.2915" x="354.2727" y="713.1569">Receive audio and video data</text></g><g class="message" data-entity-1="part1" data-entity-2="part2" data-source-line="42" id="msg13"><polygon fill="#0A9EFD" points="312.6638,757.8092,322.6638,761.8092,312.6638,765.8092,316.6638,761.8092" style="stroke:#0A9EFD;stroke-width:1;stroke-linejoin:miter;stroke-miterlimit:10;"/><line style="stroke:#0A9EFD;stroke-width:2;" x1="51.3333" x2="318.6638" y1="761.8092" y2="761.8092"/><text fill="#0A9EFD" font-family="Arial" font-size="13" lengthAdjust="spacing" textLength="138.7471" x="118.625" y="742.1056">Get remote audio object</text><text fill="#0A9EFD" font-family="Arial" font-size="13" lengthAdjust="spacing" textLength="202.2935" x="88.6578" y="757.0544">AgoraRTCRemoteUser.audioTrack</text></g><g class="message" data-entity-1="part1" data-entity-2="part2" data-source-line="43" id="msg14"><polygon fill="#0A9EFD" points="312.6638,801.7067,322.6638,805.7067,312.6638,809.7067,316.6638,805.7067" style="stroke:#0A9EFD;stroke-width:1;stroke-linejoin:miter;stroke-miterlimit:10;"/><line style="stroke:#0A9EFD;stroke-width:2;" x1="51.3333" x2="318.6638" y1="805.7067" y2="805.7067"/><text fill="#0A9EFD" font-family="Arial" font-size="13" lengthAdjust="spacing" textLength="138.0171" x="118.99" y="786.0031">Get remote video object</text><text fill="#0A9EFD" font-family="Arial" font-size="13" lengthAdjust="spacing" textLength="201.5635" x="89.0227" y="800.9518">AgoraRTCRemoteUser.videoTrack</text></g><path d="M20,827.7067 L171.2534,827.7067 L171.2534,834.6554 L161.2534,844.6554 L20,844.6554 L20,827.7067" fill="#EEEEEE" style="stroke:#0A9EFD;stroke-width:1.5;"/><rect fill="none" height="177.5898" style="stroke:#0A9EFD;stroke-width:2;" width="566.5065" x="20" y="827.7067"/><text fill="#000000" font-family="Arial" font-size="13" lengthAdjust="spacing" textLength="106.2534" x="35" y="840.9006">Leave the channel</text><g class="message" data-entity-1="part1" data-entity-2="part2" data-source-line="47" id="msg15"><polygon fill="#0A9EFD" points="312.6638,876.5529,322.6638,880.5529,312.6638,884.5529,316.6638,880.5529" style="stroke:#0A9EFD;stroke-width:1;stroke-linejoin:miter;stroke-miterlimit:10;"/><line style="stroke:#0A9EFD;stroke-width:2;" x1="51.3333" x2="318.6638" y1="880.5529" y2="880.5529"/><text fill="#0A9EFD" font-family="Arial" font-size="13" lengthAdjust="spacing" textLength="164.0298" x="105.9837" y="860.8493">Turn off the local audio track</text><text fill="#0A9EFD" font-family="Arial" font-size="13" lengthAdjust="spacing" textLength="167.6353" x="105.9869" y="875.798">MicrophoneAudioTrack.close</text></g><g class="message" data-entity-1="part1" data-entity-2="part2" data-source-line="48" id="msg16"><polygon fill="#0A9EFD" points="312.6638,920.4504,322.6638,924.4504,312.6638,928.4504,316.6638,924.4504" style="stroke:#0A9EFD;stroke-width:1;stroke-linejoin:miter;stroke-miterlimit:10;"/><line style="stroke:#0A9EFD;stroke-width:2;" x1="51.3333" x2="318.6638" y1="924.4504" y2="924.4504"/><text fill="#0A9EFD" font-family="Arial" font-size="13" lengthAdjust="spacing" textLength="163.2998" x="106.3487" y="904.7467">Turn off the local video track</text><text fill="#0A9EFD" font-family="Arial" font-size="13" lengthAdjust="spacing" textLength="145.9453" x="116.8318" y="919.6955">CameraVideoTrack.close</text></g><g class="message" data-entity-1="part1" data-entity-2="part2" data-source-line="49" id="msg17"><polygon fill="#0A9EFD" points="312.6638,964.3478,322.6638,968.3478,312.6638,972.3478,316.6638,968.3478" style="stroke:#0A9EFD;stroke-width:1;stroke-linejoin:miter;stroke-miterlimit:10;"/><line style="stroke:#0A9EFD;stroke-width:2;" x1="51.3333" x2="318.6638" y1="968.3478" y2="968.3478"/><text fill="#0A9EFD" font-family="Arial" font-size="13" lengthAdjust="spacing" textLength="106.2534" x="134.8719" y="948.6442">Leave the channel</text><text fill="#0A9EFD" font-family="Arial" font-size="13" lengthAdjust="spacing" textLength="129.3335" x="125.1377" y="963.5929">AgoraRTCClient.leave</text></g><g class="message" data-entity-1="part2" data-entity-2="part3" data-source-line="50" id="msg18"><polygon fill="#0A9EFD" points="543.1732,993.2965,553.1732,997.2965,543.1732,1001.2965,547.1732,997.2965" style="stroke:#0A9EFD;stroke-width:1;stroke-linejoin:miter;stroke-miterlimit:10;"/><line style="stroke:#0A9EFD;stroke-width:2;" x1="324.6638" x2="549.1732" y1="997.2965" y2="997.2965"/><text fill="#0A9EFD" font-family="Arial" font-size="13" lengthAdjust="spacing" textLength="168.397" x="355.72" y="992.5417">Request to leave the channel</text></g><?plantuml-src ZLJBRjim4BphAxOwrEt1QWyz6O80mm62Fc78Rau52ehQn4neKkN3QFjH_OX-MVcG7CQIWfuia3kpixD3ls22SjiYa3kfo7Vzm4J1x95dMID_GhxkkZphY3ACieu80tcfsMzSlNjRbIyDQJYQAWUYORtTPYXQSAWUUiDQbB2x-ZXFmCalL3eIkC8BWhLNvCxh_PTIswxw-wTyut_d-IYNjerq3lH8TwUaxM2Za1WtA7192GVA6GgJEU7BoZLVGUXNxpS53OMRSFzDm0uD7AMpo4XOS7R2XMSUMFsjrQX0IOu9cpyt1mp70NcGsYn0AbWGspfgYWj7FZIDtGgD9dxLdYrfyq4o0VH0X40-eRc7txkgp5qiApV_wWa85Fwmg4rA-lusI3pB1wPxdHUMEICxst2c3xrvVWGPpazXpKOH-g0JOJqohGuroSYzpvyPLR8xI85hNxRtLND4IRCnqOOSKP4GkqkIxN-87o-Z7panTESZTGblYI71rJGLjj5KiIQiNk5HccXpiAXSBWDRdPoV_PqL5_DQIF4gzuXb3y0sVvrCUkrYb_G3sTmZDUFPOitNGT8GsXdPipHw07YJoc4iYkwLJFiqgJHMZdhKPuq5cOf6mX0xFCTmUin5igTFI9nI_mZ6RsjlbG1v6z_8L92dabku_o2DpxCyJV5bR4SC8utZDN1VakIqZc_TRv6F9lJZ_mC0?></g></svg>