<svg xmlns="http://www.w3.org/2000/svg" xmlns:xlink="http://www.w3.org/1999/xlink" contentStyleType="text/css" data-diagram-type="SEQUENCE" height="632px" preserveAspectRatio="none" style="width:632px;height:632px;" version="1.1" viewBox="0 0 632 632" width="632px" zoomAndPan="magnify"><?plantuml 1.2026.4?><defs/><g><rect fill="none" height="630.377" style="stroke:#0A9EFD;stroke-width:1;" width="630.8333" x="0" y="0"/><rect fill="#999999" fill-opacity="0.33333" height="619.377" style="stroke:#0A9EFD;stroke-width:0.5;" width="276.5103" x="46.5586" y="6"/><text fill="#0A9EFD" font-family="sans-serif" font-size="13" font-weight="700" lengthAdjust="spacing" textLength="125.6899" x="121.9688" y="19.4951">Implemented by you</text><rect fill="#999999" fill-opacity="0.33333" height="619.377" style="stroke:#0A9EFD;stroke-width:0.5;" width="121.5781" x="504.2551" y="6"/><text fill="#0A9EFD" font-family="sans-serif" font-size="13" font-weight="700" lengthAdjust="spacing" textLength="115.5781" x="507.2551" y="19.4951">Provided by Agora</text><rect fill="#0A9EFD" fill-opacity="0.06667" height="219.5386" style="stroke:#0A9EFD;stroke-width:2;" width="569.6484" x="40.5586" y="173.9961"/><g class="participant-lifeline" data-entity-uid="part1" data-qualified-name="USR" data-source-line="3" id="part1-lifeline"><g><title>User</title><rect fill="#000000" fill-opacity="0.00000" height="455.1797" width="8" x="18.7793" y="86.0986"/><line style="stroke:#0A9EFD;stroke-width:0.5;stroke-dasharray:5,5;" x1="22" x2="22" y1="86.0986" y2="541.2783"/></g></g><g class="participant-lifeline" data-entity-uid="part2" data-qualified-name="SVR" data-source-line="6" id="part2-lifeline"><g><title>Authentication system</title><rect fill="#000000" fill-opacity="0.00000" height="455.1797" width="8" x="122.0376" y="86.0986"/><line style="stroke:#0A9EFD;stroke-width:0.5;stroke-dasharray:5,5;" x1="125.5586" x2="125.5586" y1="86.0986" y2="541.2783"/></g></g><g class="participant-lifeline" data-entity-uid="part3" data-qualified-name="APP" data-source-line="7" id="part3-lifeline"><g><title>App</title><rect fill="#000000" fill-opacity="0.00000" height="455.1797" width="8" x="295.6138" y="86.0986"/><line style="stroke:#0A9EFD;stroke-width:0.5;stroke-dasharray:5,5;" x1="299.1587" x2="299.1587" y1="86.0986" y2="541.2783"/></g></g><g class="participant-lifeline" data-entity-uid="part4" data-qualified-name="API" data-source-line="11" id="part4-lifeline"><g><title>SDRTN.sup....sup.</title><rect fill="#000000" fill-opacity="0.00000" height="455.1797" width="8" x="561.0442" y="86.0986"/><line style="stroke:#0A9EFD;stroke-width:0.5;stroke-dasharray:5,5;" x1="564.8813" x2="564.8813" y1="86.0986" y2="541.2783"/></g></g><g class="participant participant-head" data-entity-uid="part1" data-qualified-name="USR" data-source-line="3" id="part1-head"><text fill="#0A9EFD" font-family="Arial" font-size="14" lengthAdjust="spacing" textLength="29.5586" x="5" y="83.1318">User</text><ellipse cx="22.7793" cy="16" fill="none" rx="8" ry="8" style="stroke:#0A9EFD;stroke-width:3;"/><path d="M22.7793,24 L22.7793,51 M9.7793,32 L35.7793,32 M22.7793,51 L9.7793,66 M22.7793,51 L35.7793,66" fill="none" style="stroke:#0A9EFD;stroke-width:3;"/></g><g class="participant participant-tail" data-entity-uid="part1" data-qualified-name="USR" data-source-line="3" id="part1-tail"><text fill="#0A9EFD" font-family="Arial" font-size="14" lengthAdjust="spacing" textLength="29.5586" x="5" y="553.4102">User</text><ellipse cx="22.7793" cy="567.377" fill="none" rx="8" ry="8" style="stroke:#0A9EFD;stroke-width:3;"/><path d="M22.7793,575.377 L22.7793,602.377 M9.7793,583.377 L35.7793,583.377 M22.7793,602.377 L9.7793,617.377 M22.7793,602.377 L35.7793,617.377" fill="none" style="stroke:#0A9EFD;stroke-width:3;"/></g><g class="participant participant-head" data-entity-uid="part2" data-qualified-name="SVR" data-source-line="6" id="part2-head"><rect fill="none" height="30.0986" rx="2.5" ry="2.5" style="stroke:#0A9EFD;stroke-width:2;" width="150.958" x="50.5586" y="55"/><text fill="#0A9EFD" font-family="Arial" font-size="14" lengthAdjust="spacing" textLength="136.958" x="57.5586" y="75.1318">Authentication system</text></g><g class="participant participant-tail" data-entity-uid="part2" data-qualified-name="SVR" data-source-line="6" id="part2-tail"><rect fill="none" height="30.0986" rx="2.5" ry="2.5" style="stroke:#0A9EFD;stroke-width:2;" width="150.958" x="50.5586" y="540.2783"/><text fill="#0A9EFD" font-family="Arial" font-size="14" lengthAdjust="spacing" textLength="136.958" x="57.5586" y="560.4102">Authentication system</text></g><g class="participant participant-head" data-entity-uid="part3" data-qualified-name="APP" data-source-line="7" id="part3-head"><rect fill="none" height="30.0986" rx="2.5" ry="2.5" style="stroke:#0A9EFD;stroke-width:2;" width="38.9102" x="280.1587" y="55"/><text fill="#0A9EFD" font-family="Arial" font-size="14" lengthAdjust="spacing" textLength="24.9102" x="287.1587" y="75.1318">App</text></g><g class="participant participant-tail" data-entity-uid="part3" data-qualified-name="APP" data-source-line="7" id="part3-tail"><rect fill="none" height="30.0986" rx="2.5" ry="2.5" style="stroke:#0A9EFD;stroke-width:2;" width="38.9102" x="280.1587" y="540.2783"/><text fill="#0A9EFD" font-family="Arial" font-size="14" lengthAdjust="spacing" textLength="24.9102" x="287.1587" y="560.4102">App</text></g><g class="participant participant-head" data-entity-uid="part4" data-qualified-name="API" data-source-line="11" id="part4-head"><rect fill="none" height="32.6489" rx="2.5" ry="2.5" style="stroke:#0A9EFD;stroke-width:2;" width="70.3257" x="529.8813" y="52.4497"/><text fill="#0A9EFD" font-family="Arial" font-size="14" lengthAdjust="spacing" textLength="48.2207" x="536.8813" y="75.1318">SDRTN</text><text fill="#0A9EFD" font-family="Arial" font-size="11" lengthAdjust="spacing" textLength="8.105" x="585.1021" y="69.7676">&#174;</text></g><g class="participant participant-tail" data-entity-uid="part4" data-qualified-name="API" data-source-line="11" id="part4-tail"><rect fill="none" height="32.6489" rx="2.5" ry="2.5" style="stroke:#0A9EFD;stroke-width:2;" width="70.3257" x="529.8813" y="540.2783"/><text fill="#0A9EFD" font-family="Arial" font-size="14" lengthAdjust="spacing" textLength="48.2207" x="536.8813" y="562.9604">SDRTN</text><text fill="#0A9EFD" font-family="Arial" font-size="11" lengthAdjust="spacing" textLength="8.105" x="585.1021" y="557.5962">&#174;</text></g><g class="message" data-entity-1="part1" data-entity-2="part3" data-source-line="15" id="msg1"><polygon fill="#0A9EFD" points="287.6138,113.0474,297.6138,117.0474,287.6138,121.0474,291.6138,117.0474" style="stroke:#0A9EFD;stroke-width:1;stroke-linejoin:miter;stroke-miterlimit:10;"/><line style="stroke:#0A9EFD;stroke-width:2;" x1="22.7793" x2="293.6138" y1="117.0474" y2="117.0474"/><text fill="#0A9EFD" font-family="Arial" font-size="13" lengthAdjust="spacing" textLength="74.439" x="123.9771" y="112.2925">Start the app</text></g><g class="message" data-entity-1="part3" data-entity-2="part3" data-source-line="16" id="msg2"><line style="stroke:#0A9EFD;stroke-width:2;" x1="299.6138" x2="341.6138" y1="145.9961" y2="145.9961"/><line style="stroke:#0A9EFD;stroke-width:2;" x1="341.6138" x2="341.6138" y1="145.9961" y2="158.9961"/><line style="stroke:#0A9EFD;stroke-width:2;" x1="300.6138" x2="341.6138" y1="158.9961" y2="158.9961"/><polygon fill="#0A9EFD" points="310.6138,154.9961,300.6138,158.9961,310.6138,162.9961,306.6138,158.9961" style="stroke:#0A9EFD;stroke-width:1;stroke-linejoin:miter;stroke-miterlimit:10;"/><text fill="#0A9EFD" font-family="Arial" font-size="13" lengthAdjust="spacing" textLength="169.8379" x="306.6138" y="141.2412">Initiate the Video SDK engine</text></g><path d="M40.5586,173.9961 L265.4829,173.9961 L265.4829,180.9448 L255.4829,190.9448 L40.5586,190.9448 L40.5586,173.9961" fill="#EEEEEE" style="stroke:#0A9EFD;stroke-width:1.5;"/><rect fill="none" height="219.5386" style="stroke:#0A9EFD;stroke-width:2;" width="569.6484" x="40.5586" y="173.9961"/><text fill="#000000" font-family="Arial" font-size="13" lengthAdjust="spacing" textLength="179.9243" x="55.5586" y="187.1899">Setup media stream encryption</text><g class="message" data-entity-1="part3" data-entity-2="part2" data-source-line="19" id="msg3"><polygon fill="#0A9EFD" points="137.0376,222.8423,127.0376,226.8423,137.0376,230.8423,133.0376,226.8423" style="stroke:#0A9EFD;stroke-width:1;stroke-linejoin:miter;stroke-miterlimit:10;"/><line style="stroke:#0A9EFD;stroke-width:2;" x1="131.0376" x2="298.6138" y1="226.8423" y2="226.8423"/><text fill="#0A9EFD" font-family="Arial" font-size="13" lengthAdjust="spacing" textLength="67.9453" x="177.0471" y="207.1387">Login to the</text><text fill="#0A9EFD" font-family="Arial" font-size="13" lengthAdjust="spacing" textLength="125.7344" x="149.9585" y="222.0874">authentication system</text></g><g class="message" data-entity-1="part3" data-entity-2="part2" data-source-line="20" id="msg4"><polygon fill="#0A9EFD" points="137.0376,251.791,127.0376,255.791,137.0376,259.791,133.0376,255.791" style="stroke:#0A9EFD;stroke-width:1;stroke-linejoin:miter;stroke-miterlimit:10;"/><polygon fill="#0A9EFD" points="287.6138,251.791,297.6138,255.791,287.6138,259.791,291.6138,255.791" style="stroke:#0A9EFD;stroke-width:1;stroke-linejoin:miter;stroke-miterlimit:10;"/><line style="stroke:#0A9EFD;stroke-width:2;" x1="131.0376" x2="293.6138" y1="255.791" y2="255.791"/><text fill="#0A9EFD" font-family="Arial" font-size="13" lengthAdjust="spacing" textLength="130.0635" x="147.7939" y="251.0361">Retrieve a 32-byte key</text></g><g class="message" data-entity-1="part3" data-entity-2="part2" data-source-line="21" id="msg5"><polygon fill="#0A9EFD" points="137.0376,295.6885,127.0376,299.6885,137.0376,303.6885,133.0376,299.6885" style="stroke:#0A9EFD;stroke-width:1;stroke-linejoin:miter;stroke-miterlimit:10;"/><polygon fill="#0A9EFD" points="287.6138,295.6885,297.6138,299.6885,287.6138,303.6885,291.6138,299.6885" style="stroke:#0A9EFD;stroke-width:1;stroke-linejoin:miter;stroke-miterlimit:10;"/><line style="stroke:#0A9EFD;stroke-width:2;" x1="131.0376" x2="293.6138" y1="299.6885" y2="299.6885"/><text fill="#0A9EFD" font-family="Arial" font-size="13" lengthAdjust="spacing" textLength="143.7935" x="139.123" y="279.9849">Retrieve a 32-byte salt in</text><text fill="#0A9EFD" font-family="Arial" font-size="13" lengthAdjust="spacing" textLength="84.5444" x="170.5535" y="294.9336">Base64 format</text></g><g class="message" data-entity-1="part3" data-entity-2="part3" data-source-line="22" id="msg6"><line style="stroke:#0A9EFD;stroke-width:2;" x1="299.6138" x2="341.6138" y1="343.5859" y2="343.5859"/><line style="stroke:#0A9EFD;stroke-width:2;" x1="341.6138" x2="341.6138" y1="343.5859" y2="356.5859"/><line style="stroke:#0A9EFD;stroke-width:2;" x1="300.6138" x2="341.6138" y1="356.5859" y2="356.5859"/><polygon fill="#0A9EFD" points="310.6138,352.5859,300.6138,356.5859,310.6138,360.5859,306.6138,356.5859" style="stroke:#0A9EFD;stroke-width:1;stroke-linejoin:miter;stroke-miterlimit:10;"/><text fill="#0A9EFD" font-family="Arial" font-size="13" lengthAdjust="spacing" textLength="226.1924" x="306.6138" y="323.8823">Create a encryption configuration using</text><text fill="#0A9EFD" font-family="Arial" font-size="13" lengthAdjust="spacing" textLength="91.0571" x="375.9873" y="338.8311">the key and salt</text></g><g class="message" data-entity-1="part3" data-entity-2="part4" data-source-line="23" id="msg7"><polygon fill="#0A9EFD" points="553.0442,381.5347,563.0442,385.5347,553.0442,389.5347,557.0442,385.5347" style="stroke:#0A9EFD;stroke-width:1;stroke-linejoin:miter;stroke-miterlimit:10;"/><line style="stroke:#0A9EFD;stroke-width:2;" x1="299.6138" x2="559.0442" y1="385.5347" y2="385.5347"/><text fill="#0A9EFD" font-family="Arial" font-size="13" lengthAdjust="spacing" textLength="182.8379" x="340.91" y="380.7798">Set the encryption configuration</text></g><g class="message" data-entity-1="part1" data-entity-2="part3" data-source-line="26" id="msg8"><polygon fill="#0A9EFD" points="287.6138,417.4834,297.6138,421.4834,287.6138,425.4834,291.6138,421.4834" style="stroke:#0A9EFD;stroke-width:1;stroke-linejoin:miter;stroke-miterlimit:10;"/><line style="stroke:#0A9EFD;stroke-width:2;" x1="22.7793" x2="293.6138" y1="421.4834" y2="421.4834"/><text fill="#0A9EFD" font-family="Arial" font-size="13" lengthAdjust="spacing" textLength="134.4243" x="93.9844" y="416.7285">Select a channel to join</text></g><g class="message" data-entity-1="part3" data-entity-2="part2" data-source-line="27" id="msg9"><polygon fill="#0A9EFD" points="137.0376,446.4321,127.0376,450.4321,137.0376,454.4321,133.0376,450.4321" style="stroke:#0A9EFD;stroke-width:1;stroke-linejoin:miter;stroke-miterlimit:10;"/><polygon fill="#0A9EFD" points="287.6138,446.4321,297.6138,450.4321,287.6138,454.4321,291.6138,450.4321" style="stroke:#0A9EFD;stroke-width:1;stroke-linejoin:miter;stroke-miterlimit:10;"/><line style="stroke:#0A9EFD;stroke-width:2;" x1="131.0376" x2="293.6138" y1="450.4321" y2="450.4321"/><text fill="#0A9EFD" font-family="Arial" font-size="13" lengthAdjust="spacing" textLength="149.5762" x="138.0376" y="445.6772">Retrieve an access token.</text></g><g class="message" data-entity-1="part3" data-entity-2="part4" data-source-line="28" id="msg10"><polygon fill="#0A9EFD" points="310.6138,475.3809,300.6138,479.3809,310.6138,483.3809,306.6138,479.3809" style="stroke:#0A9EFD;stroke-width:1;stroke-linejoin:miter;stroke-miterlimit:10;"/><polygon fill="#0A9EFD" points="553.0442,475.3809,563.0442,479.3809,553.0442,483.3809,557.0442,479.3809" style="stroke:#0A9EFD;stroke-width:1;stroke-linejoin:miter;stroke-miterlimit:10;"/><line style="stroke:#0A9EFD;stroke-width:2;" x1="304.6138" x2="559.0442" y1="479.3809" y2="479.3809"/><text fill="#0A9EFD" font-family="Arial" font-size="13" lengthAdjust="spacing" textLength="83.8398" x="390.4091" y="474.626">Join a channel</text></g><g class="message" data-entity-1="part3" data-entity-2="part4" data-source-line="29" id="msg11"><polygon fill="#0A9EFD" points="310.6138,519.2783,300.6138,523.2783,310.6138,527.2783,306.6138,523.2783" style="stroke:#0A9EFD;stroke-width:1;stroke-linejoin:miter;stroke-miterlimit:10;"/><polygon fill="#0A9EFD" points="553.0442,519.2783,563.0442,523.2783,553.0442,527.2783,557.0442,523.2783" style="stroke:#0A9EFD;stroke-width:1;stroke-linejoin:miter;stroke-miterlimit:10;"/><line style="stroke:#0A9EFD;stroke-width:2;" x1="304.6138" x2="559.0442" y1="523.2783" y2="523.2783"/><text fill="#0A9EFD" font-family="Arial" font-size="13" lengthAdjust="spacing" textLength="127.1689" x="368.7445" y="503.5747">Communicate over an</text><text fill="#0A9EFD" font-family="Arial" font-size="13" lengthAdjust="spacing" textLength="139.4517" x="364.4091" y="518.5234">encrypted media stream</text></g><?plantuml-src XPB1JXin48RlVehftg4IL1oY22c5Irg4ecpX5AcQECFYPZssx774lXGFqIVhU26aH4MzPANC_D___xFxoR7jouO0kv3mPzuwFdN5zyQWbP2WkSkK6i0CT-tIc7LuWcRkOq-UM6W3wm66K1eJCOcpBY8BDBCYZpfs5iK5XZna8Jz2sllbqMgCus2sM1XYvOMdLvT52ZktUR6OrN179ktryiVjD9Tu-Vjv-ha-Nq7p0yXeQ3YvhFG9jA9oq6I0CHhzwsqoPoSEXSRXlPe6QA-_0t7dc8pfKYWHMXBzzRHn25aIeTS5cuPOE-vnscy2Dq5r8674hHZ_TOrHCDqhbYJ9qKwJmVdPoNhGA5iQ_hkJiHTGgnL_nKmNN-0X98_ohjkL9fKgEeG56_Z1TIMz12hPSQUCcbPT0VLwbNp0p2Ur_LZd8qgz-T6vgIShQcmVaPdwUf1VmV57hHZGMifPzxR4fszhe_qt5HvGxsTNmVl2zRm4OKT9KIlU1zNlv-zNPimV?></g></svg>