<svg xmlns="http://www.w3.org/2000/svg" xmlns:xlink="http://www.w3.org/1999/xlink" contentStyleType="text/css" data-diagram-type="SEQUENCE" height="593px" preserveAspectRatio="none" style="width:603px;height:593px;" version="1.1" viewBox="0 0 603 593" width="603px" zoomAndPan="magnify"><?plantuml 1.2026.4?><defs/><g><rect fill="none" height="591.1424" style="stroke:#0A9EFD;stroke-width:1;" width="601.2972" x="0" y="0"/><rect fill="#999999" fill-opacity="0.33333" height="580.1424" style="stroke:#0A9EFD;stroke-width:0.5;" width="50.6667" x="16" y="6"/><text fill="#0A9EFD" font-family="sans-serif" font-size="13" font-weight="700" lengthAdjust="spacing" textLength="25.27" x="28.6983" y="19.4951">App</text><rect fill="#999999" fill-opacity="0.33333" height="580.1424" style="stroke:#0A9EFD;stroke-width:0.5;" width="72.4536" x="245.9687" y="6"/><text fill="#0A9EFD" font-family="sans-serif" font-size="13" font-weight="700" lengthAdjust="spacing" textLength="66.4536" x="248.9687" y="19.4951">Video SDK</text><rect fill="#999999" fill-opacity="0.33333" height="580.1424" style="stroke:#0A9EFD;stroke-width:0.5;" width="99.3154" x="496.9818" y="6"/><text fill="#0A9EFD" font-family="sans-serif" font-size="13" font-weight="700" lengthAdjust="spacing" textLength="85.9473" x="499.9818" y="21.7217">Agora SDRTN</text><text fill="#0A9EFD" font-family="sans-serif" font-size="10" font-weight="700" lengthAdjust="spacing" textLength="7.3682" x="585.929" y="16.3809">&#174;</text><rect fill="#0A9EFD" fill-opacity="0.06667" height="161.6924" style="stroke:#0A9EFD;stroke-width:2;" width="567.9728" x="10" y="145.1423"/><rect fill="#0A9EFD" fill-opacity="0.06667" height="203.6411" style="stroke:#0A9EFD;stroke-width:2;" width="567.9728" x="10" y="320.8346"/><g class="participant-lifeline" data-entity-uid="part1" data-qualified-name="APP" data-source-line="4" id="part1-lifeline"><g><title>.size.40...tablet.</title><rect fill="#000000" fill-opacity="0.00000" height="471.231" width="8" x="37.3333" y="70.2448"/><line style="stroke:#0A9EFD;stroke-width:0.5;stroke-dasharray:5,5;" x1="41" x2="41" y1="70.2448" y2="541.4757"/></g></g><g class="participant-lifeline" data-entity-uid="part2" data-qualified-name="SDK" data-source-line="8" id="part2-lifeline"><g><title>.size.40...layers.</title><rect fill="#000000" fill-opacity="0.00000" height="471.231" width="8" x="278.1956" y="70.2448"/><line style="stroke:#0A9EFD;stroke-width:0.5;stroke-dasharray:5,5;" x1="281.8622" x2="281.8622" y1="70.2448" y2="541.4757"/></g></g><g class="participant-lifeline" data-entity-uid="part3" data-qualified-name="RTN" data-source-line="12" id="part3-lifeline"><g><title>.size.40...cloud.</title><rect fill="#000000" fill-opacity="0.00000" height="471.231" width="8" x="542.6395" y="70.2448"/><line style="stroke:#0A9EFD;stroke-width:0.5;stroke-dasharray:5,5;" x1="546.3062" x2="546.3062" y1="70.2448" y2="541.4757"/></g></g><g class="participant participant-head" data-entity-uid="part1" data-qualified-name="APP" data-source-line="4" id="part1-head"><rect fill="none" height="40.6667" rx="2.5" ry="2.5" style="stroke:#0A9EFD;stroke-width:2;" width="42.6667" x="20" y="28.5781"/><path d="M29.1333,35.5781 C28.5333,35.5781 28,36.1115 28,36.7115 L28,61.0781 C28,61.6781 28.5333,62.2115 29.1333,62.2115 L50.1667,62.2115 C50.7667,62.2115 51.3,61.6781 51.3,61.0781 L51.3,36.7115 C51.3,36.1115 50.7667,35.5781 50.1667,35.5781 L29.1333,35.5781 M31.3333,38.9115 L48,38.9115 L48,55.5781 L31.3333,55.5781 L31.3333,38.9115 M39.6667,57.2448 C40.9333,57.2448 41.7667,58.6448 41.1333,59.7448 C40.5,60.8448 38.8667,60.8448 38.2,59.7448 C37.5667,58.6448 38.3667,57.2448 39.6667,57.2448" fill="#0A9EFD"/></g><g class="participant participant-tail" data-entity-uid="part1" data-qualified-name="APP" data-source-line="4" id="part1-tail"><rect fill="none" height="40.6667" rx="2.5" ry="2.5" style="stroke:#0A9EFD;stroke-width:2;" width="42.6667" x="20" y="540.4757"/><path d="M29.1333,547.4757 C28.5333,547.4757 28,548.0091 28,548.6091 L28,572.9757 C28,573.5757 28.5333,574.1091 29.1333,574.1091 L50.1667,574.1091 C50.7667,574.1091 51.3,573.5757 51.3,572.9757 L51.3,548.6091 C51.3,548.0091 50.7667,547.4757 50.1667,547.4757 L29.1333,547.4757 M31.3333,550.8091 L48,550.8091 L48,567.4757 L31.3333,567.4757 L31.3333,550.8091 M39.6667,569.1424 C40.9333,569.1424 41.7667,570.5424 41.1333,571.6424 C40.5,572.7424 38.8667,572.7424 38.2,571.6424 C37.5667,570.5424 38.3667,569.1424 39.6667,569.1424" fill="#0A9EFD"/></g><g class="participant participant-head" data-entity-uid="part2" data-qualified-name="SDK" data-source-line="8" id="part2-head"><rect fill="none" height="40.6667" rx="2.5" ry="2.5" style="stroke:#0A9EFD;stroke-width:2;" width="42.6667" x="260.8622" y="28.5781"/><path d="M268.8622,35.5781 L268.8622,48.9115 L282.1956,48.9115 L282.1956,35.5781 L268.8622,35.5781 M285.5289,42.2448 L285.5289,52.2448 L275.5289,52.2448 L275.5289,55.5781 L288.8622,55.5781 L288.8622,42.2448 L285.5289,42.2448 M292.1956,48.9115 L292.1956,58.9115 L282.1956,58.9115 L282.1956,62.2448 L295.5289,62.2448 L295.5289,48.9115 L292.1956,48.9115" fill="#0A9EFD"/></g><g class="participant participant-tail" data-entity-uid="part2" data-qualified-name="SDK" data-source-line="8" id="part2-tail"><rect fill="none" height="40.6667" rx="2.5" ry="2.5" style="stroke:#0A9EFD;stroke-width:2;" width="42.6667" x="260.8622" y="540.4757"/><path d="M268.8622,547.4757 L268.8622,560.8091 L282.1956,560.8091 L282.1956,547.4757 L268.8622,547.4757 M285.5289,554.1424 L285.5289,564.1424 L275.5289,564.1424 L275.5289,567.4757 L288.8622,567.4757 L288.8622,554.1424 L285.5289,554.1424 M292.1956,560.8091 L292.1956,570.8091 L282.1956,570.8091 L282.1956,574.1424 L295.5289,574.1424 L295.5289,560.8091 L292.1956,560.8091" fill="#0A9EFD"/></g><g class="participant participant-head" data-entity-uid="part3" data-qualified-name="RTN" data-source-line="12" id="part3-head"><rect fill="none" height="40.6667" rx="2.5" ry="2.5" style="stroke:#0A9EFD;stroke-width:2;" width="42.6667" x="525.3062" y="28.5781"/><path d="M548.3062,38.9115 C544.2728,38.9115 540.7395,41.7781 539.9728,45.5781 C536.3062,45.5781 533.3062,48.5781 533.3062,52.2448 C533.3062,55.9115 536.3062,58.9115 539.9728,58.9115 L554.9728,58.9115 C557.7395,58.9115 559.9728,56.6781 559.9728,53.9115 C559.9728,51.7448 558.5728,49.6115 556.6395,48.9115 L556.6395,47.2448 C556.6395,42.6448 552.9062,38.9115 548.3062,38.9115" fill="#0A9EFD"/></g><g class="participant participant-tail" data-entity-uid="part3" data-qualified-name="RTN" data-source-line="12" id="part3-tail"><rect fill="none" height="40.6667" rx="2.5" ry="2.5" style="stroke:#0A9EFD;stroke-width:2;" width="42.6667" x="525.3062" y="540.4757"/><path d="M548.3062,550.8091 C544.2728,550.8091 540.7395,553.6757 539.9728,557.4757 C536.3062,557.4757 533.3062,560.4757 533.3062,564.1424 C533.3062,567.8091 536.3062,570.8091 539.9728,570.8091 L554.9728,570.8091 C557.7395,570.8091 559.9728,568.5757 559.9728,565.8091 C559.9728,563.6424 558.5728,561.5091 556.6395,560.8091 L556.6395,559.1424 C556.6395,554.5424 552.9062,550.8091 548.3062,550.8091" fill="#0A9EFD"/></g><g class="message" data-entity-1="part1" data-entity-2="part2" data-source-line="15" id="msg1"><polygon fill="#0A9EFD" points="270.1956,97.1935,280.1956,101.1935,270.1956,105.1935,274.1956,101.1935" style="stroke:#0A9EFD;stroke-width:1;stroke-linejoin:miter;stroke-miterlimit:10;"/><line style="stroke:#0A9EFD;stroke-width:2;" x1="41.3333" x2="276.1956" y1="101.1935" y2="101.1935"/><text fill="#0A9EFD" font-family="Arial" font-size="13" lengthAdjust="spacing" textLength="205.9688" x="58.7801" y="96.4386">Create an instance of Agora Engine</text></g><g class="message" data-entity-1="part2" data-entity-2="part3" data-source-line="16" id="msg2"><polygon fill="#0A9EFD" points="534.6395,126.1423,544.6395,130.1423,534.6395,134.1423,538.6395,130.1423" style="stroke:#0A9EFD;stroke-width:1;stroke-linejoin:miter;stroke-miterlimit:10;"/><line style="stroke:#0A9EFD;stroke-width:2;" x1="282.1956" x2="540.6395" y1="130.1423" y2="130.1423"/><text fill="#0A9EFD" font-family="Arial" font-size="13" lengthAdjust="spacing" textLength="163.3315" x="332.7517" y="125.3874">Initialize the engine instance</text></g><path d="M10,145.1423 L199.5171,145.1423 L199.5171,152.091 L189.5171,162.091 L10,162.091 L10,145.1423" fill="#EEEEEE" style="stroke:#0A9EFD;stroke-width:1.5;"/><rect fill="none" height="161.6924" style="stroke:#0A9EFD;stroke-width:2;" width="567.9728" x="10" y="145.1423"/><text fill="#000000" font-family="Arial" font-size="13" lengthAdjust="spacing" textLength="144.5171" x="25" y="158.3361">Optimize video rendering</text><g class="message" data-entity-1="part1" data-entity-2="part2" data-source-line="19" id="msg3"><polygon fill="#0A9EFD" points="270.1956,179.0397,280.1956,183.0397,270.1956,187.0397,274.1956,183.0397" style="stroke:#0A9EFD;stroke-width:1;stroke-linejoin:miter;stroke-miterlimit:10;"/><line style="stroke:#0A9EFD;stroke-width:2;" x1="41.3333" x2="276.1956" y1="183.0397" y2="183.0397"/><text fill="#0A9EFD" font-family="Arial" font-size="13" lengthAdjust="spacing" textLength="204.5278" x="59.5005" y="178.2848">Enable accelerated video rendering</text></g><g class="message" data-entity-1="part1" data-entity-2="part2" data-source-line="20" id="msg4"><polygon fill="#0A9EFD" points="270.1956,207.9884,280.1956,211.9884,270.1956,215.9884,274.1956,211.9884" style="stroke:#0A9EFD;stroke-width:1;stroke-linejoin:miter;stroke-miterlimit:10;"/><line style="stroke:#0A9EFD;stroke-width:2;" x1="41.3333" x2="276.1956" y1="211.9884" y2="211.9884"/><text fill="#0A9EFD" font-family="Arial" font-size="13" lengthAdjust="spacing" textLength="117.7935" x="102.8677" y="207.2336">Set a video scenario</text></g><g class="message" data-entity-1="part1" data-entity-2="part2" data-source-line="21" id="msg5"><polygon fill="#0A9EFD" points="270.1956,236.9372,280.1956,240.9372,270.1956,244.9372,274.1956,240.9372" style="stroke:#0A9EFD;stroke-width:1;stroke-linejoin:miter;stroke-miterlimit:10;"/><line style="stroke:#0A9EFD;stroke-width:2;" x1="41.3333" x2="276.1956" y1="240.9372" y2="240.9372"/><text fill="#0A9EFD" font-family="Arial" font-size="13" lengthAdjust="spacing" textLength="104.7998" x="109.3645" y="236.1823">Preload a channel</text></g><g class="message" data-entity-1="part1" data-entity-2="part2" data-source-line="22" id="msg6"><polygon fill="#0A9EFD" points="270.1956,265.8859,280.1956,269.8859,270.1956,273.8859,274.1956,269.8859" style="stroke:#0A9EFD;stroke-width:1;stroke-linejoin:miter;stroke-miterlimit:10;"/><line style="stroke:#0A9EFD;stroke-width:2;" x1="41.3333" x2="276.1956" y1="269.8859" y2="269.8859"/><text fill="#0A9EFD" font-family="Arial" font-size="13" lengthAdjust="spacing" textLength="156.8062" x="83.3614" y="265.131">Set up a remote video view</text></g><g class="message" data-entity-1="part2" data-entity-2="part3" data-source-line="23" id="msg7"><polygon fill="#0A9EFD" points="534.6395,294.8346,544.6395,298.8346,534.6395,302.8346,538.6395,298.8346" style="stroke:#0A9EFD;stroke-width:1;stroke-linejoin:miter;stroke-miterlimit:10;"/><line style="stroke:#0A9EFD;stroke-width:2;" x1="282.1956" x2="540.6395" y1="298.8346" y2="298.8346"/><text fill="#0A9EFD" font-family="Arial" font-size="13" lengthAdjust="spacing" textLength="205.2261" x="311.8045" y="294.0798">Apply video rendering optimizations</text></g><path d="M10,320.8346 L138.8398,320.8346 L138.8398,327.7834 L128.8398,337.7834 L10,337.7834 L10,320.8346" fill="#EEEEEE" style="stroke:#0A9EFD;stroke-width:1.5;"/><rect fill="none" height="203.6411" style="stroke:#0A9EFD;stroke-width:2;" width="567.9728" x="10" y="320.8346"/><text fill="#000000" font-family="Arial" font-size="13" lengthAdjust="spacing" textLength="83.8398" x="25" y="334.0285">Join a channel</text><g class="message" data-entity-1="part1" data-entity-2="part2" data-source-line="27" id="msg8"><polygon fill="#0A9EFD" points="270.1956,354.7321,280.1956,358.7321,270.1956,362.7321,274.1956,358.7321" style="stroke:#0A9EFD;stroke-width:1;stroke-linejoin:miter;stroke-miterlimit:10;"/><line style="stroke:#0A9EFD;stroke-width:2;" x1="41.3333" x2="276.1956" y1="358.7321" y2="358.7321"/><text fill="#0A9EFD" font-family="Arial" font-size="13" lengthAdjust="spacing" textLength="83.8398" x="119.8445" y="353.9772">Join a channel</text></g><g class="message" data-entity-1="part2" data-entity-2="part3" data-source-line="28" id="msg9"><polygon fill="#0A9EFD" points="534.6395,383.6808,544.6395,387.6808,534.6395,391.6808,538.6395,387.6808" style="stroke:#0A9EFD;stroke-width:1;stroke-linejoin:miter;stroke-miterlimit:10;"/><line style="stroke:#0A9EFD;stroke-width:2;" x1="282.1956" x2="540.6395" y1="387.6808" y2="387.6808"/><text fill="#0A9EFD" font-family="Arial" font-size="13" lengthAdjust="spacing" textLength="156.1206" x="336.3572" y="382.9259">Join the preloaded channel</text></g><g class="message" data-entity-1="part3" data-entity-2="part2" data-source-line="29" id="msg10"><polygon fill="#0A9EFD" points="293.1956,412.6296,283.1956,416.6296,293.1956,420.6296,289.1956,416.6296" style="stroke:#0A9EFD;stroke-width:1;stroke-linejoin:miter;stroke-miterlimit:10;"/><line style="stroke:#0A9EFD;stroke-width:2;" x1="287.1956" x2="545.6395" y1="416.6296" y2="416.6296"/><text fill="#0A9EFD" font-family="Arial" font-size="13" lengthAdjust="spacing" textLength="120.688" x="354.0735" y="411.8747">Notify channel joined</text></g><g class="message" data-entity-1="part3" data-entity-2="part2" data-source-line="30" id="msg11"><polygon fill="#0A9EFD" points="293.1956,441.5783,283.1956,445.5783,293.1956,449.5783,289.1956,445.5783" style="stroke:#0A9EFD;stroke-width:1;stroke-linejoin:miter;stroke-miterlimit:10;"/><line style="stroke:#0A9EFD;stroke-width:2;" x1="287.1956" x2="545.6395" y1="445.5783" y2="445.5783"/><text fill="#0A9EFD" font-family="Arial" font-size="13" lengthAdjust="spacing" textLength="112.728" x="358.0535" y="440.8234">Remote user joined</text></g><g class="message" data-entity-1="part2" data-entity-2="part2" data-source-line="31" id="msg12"><line style="stroke:#0A9EFD;stroke-width:2;" x1="282.1956" x2="324.1956" y1="474.527" y2="474.527"/><line style="stroke:#0A9EFD;stroke-width:2;" x1="324.1956" x2="324.1956" y1="474.527" y2="487.527"/><line style="stroke:#0A9EFD;stroke-width:2;" x1="283.1956" x2="324.1956" y1="487.527" y2="487.527"/><polygon fill="#0A9EFD" points="293.1956,483.527,283.1956,487.527,293.1956,491.527,289.1956,487.527" style="stroke:#0A9EFD;stroke-width:1;stroke-linejoin:miter;stroke-miterlimit:10;"/><text fill="#0A9EFD" font-family="Arial" font-size="13" lengthAdjust="spacing" textLength="162.5762" x="289.1956" y="469.7721">Decode the first video frame</text></g><g class="message" data-entity-1="part2" data-entity-2="part1" data-source-line="32" id="msg13"><polygon fill="#0A9EFD" points="52.3333,512.4757,42.3333,516.4757,52.3333,520.4757,48.3333,516.4757" style="stroke:#0A9EFD;stroke-width:1;stroke-linejoin:miter;stroke-miterlimit:10;"/><line style="stroke:#0A9EFD;stroke-width:2;" x1="46.3333" x2="281.1956" y1="516.4757" y2="516.4757"/><text fill="#0A9EFD" font-family="Arial" font-size="13" lengthAdjust="spacing" textLength="122.0972" x="100.7159" y="511.7209">Shows the first frame</text></g><?plantuml-src VP7DJi904CVlVOgHWpS_3fv8GqA4WveW0UFL3DifZ2wppUuMn8Vo8NmoPsb1mU2fIUSt_u_PCnPZwu80vyxZItXZkUHwQRDivjwXqw-gJbQXZsouGedGoGD_KFVckfUVHvnPYhqEO83-U9oH5A1RxUep5-HWEdWuBM1nGpuq0WeU2VHJ8lq_UHhbeQvwNv_vLVgUrZFMrKKZfqi_SXeEBdh9eWktdZ1gNG6M454CWIkXyHhAd8KovHAk4bsu4uwCLYqWBWXeI-nNispkNLt1OnLvcPZLjhHNP_8iymFdeQHx0Hf3bho6AFx5fnG1Mo8O4lJiu80OUx8E2wNC0aN8_jdNQAZoInTtqLPCwuE2-i9sSnm4N5C88pi9wP2xflUEvOJXqUYtoNQKxbSraRLwYq6cm5vYv2ANc_tiLTUeE20cJPawaD-DMwFjU4365SrJbUn3R8kL7fVxTzNCUfs5MuTVN4Eaejy0?></g></svg>