<svg xmlns="http://www.w3.org/2000/svg" xmlns:xlink="http://www.w3.org/1999/xlink" contentStyleType="text/css" data-diagram-type="SEQUENCE" height="793px" preserveAspectRatio="none" style="width:771px;height:793px;" version="1.1" viewBox="0 0 771 793" width="771px" zoomAndPan="magnify"><?plantuml 1.2026.4?><defs/><g><rect fill="none" height="791.1351" style="stroke:#0A9EFD;stroke-width:1;" width="769.1405" x="0" y="0"/><rect fill="#999999" fill-opacity="0.33333" height="780.1351" style="stroke:#0A9EFD;stroke-width:0.5;" width="50.6667" x="198" y="6"/><text fill="#0A9EFD" font-family="sans-serif" font-size="13" font-weight="700" lengthAdjust="spacing" textLength="25.27" x="210.6983" y="19.4951">App</text><rect fill="#999999" fill-opacity="0.33333" height="780.1351" style="stroke:#0A9EFD;stroke-width:0.5;" width="50.6667" x="499.4434" y="6"/><text fill="#0A9EFD" font-family="sans-serif" font-size="13" font-weight="700" lengthAdjust="spacing" textLength="27.4473" x="511.0531" y="19.4951">SDK</text><rect fill="#999999" fill-opacity="0.33333" height="780.1351" style="stroke:#0A9EFD;stroke-width:0.5;" width="58.1445" x="694.7349" y="6"/><text fill="#0A9EFD" font-family="sans-serif" font-size="13" font-weight="700" lengthAdjust="spacing" textLength="37.5591" x="705.0276" y="19.4951">Agora</text><text fill="#0A9EFD" font-family="sans-serif" font-size="13" font-weight="700" lengthAdjust="spacing" textLength="44.7764" x="697.7349" y="38.0732">SDRTN</text><text fill="#0A9EFD" font-family="sans-serif" font-size="10" font-weight="700" lengthAdjust="spacing" textLength="7.3682" x="742.5112" y="32.7324">&#174;</text><rect fill="#0A9EFD" fill-opacity="0.06667" height="103.7949" style="stroke:#0A9EFD;stroke-width:2;" width="563.1405" x="192" y="269.2887"/><rect fill="#0A9EFD" fill-opacity="0.06667" height="132.7437" style="stroke:#0A9EFD;stroke-width:2;" width="563.1405" x="192" y="387.0837"/><rect fill="#0A9EFD" fill-opacity="0.06667" height="190.6411" style="stroke:#0A9EFD;stroke-width:2;" width="364.11" x="192" y="533.8273"/><g class="participant-lifeline" data-entity-uid="part1" data-qualified-name="APP" data-source-line="4" id="part1-lifeline"><g><title>.size.40...tablet.</title><rect fill="#000000" fill-opacity="0.00000" height="654.8721" width="8" x="219.3333" y="86.5964"/><line style="stroke:#0A9EFD;stroke-width:0.5;stroke-dasharray:5,5;" x1="223" x2="223" y1="86.5964" y2="741.4684"/></g></g><g class="participant-lifeline" data-entity-uid="part2" data-qualified-name="SDK" data-source-line="8" id="part2-lifeline"><g><title>.size.40...layers.</title><rect fill="#000000" fill-opacity="0.00000" height="654.8721" width="8" x="520.7767" y="86.5964"/><line style="stroke:#0A9EFD;stroke-width:0.5;stroke-dasharray:5,5;" x1="524.4434" x2="524.4434" y1="86.5964" y2="741.4684"/></g></g><g class="participant-lifeline" data-entity-uid="part3" data-qualified-name="RTN" data-source-line="12" id="part3-lifeline"><g><title>.size.40...cloud.</title><rect fill="#000000" fill-opacity="0.00000" height="654.8721" width="8" x="719.8071" y="86.5964"/><line style="stroke:#0A9EFD;stroke-width:0.5;stroke-dasharray:5,5;" x1="723.4738" x2="723.4738" y1="86.5964" y2="741.4684"/></g></g><g class="participant participant-head" data-entity-uid="part1" data-qualified-name="APP" data-source-line="4" id="part1-head"><rect fill="none" height="40.6667" rx="2.5" ry="2.5" style="stroke:#0A9EFD;stroke-width:2;" width="42.6667" x="202" y="44.9297"/><path d="M211.1333,51.9297 C210.5333,51.9297 210,52.463 210,53.063 L210,77.4297 C210,78.0297 210.5333,78.563 211.1333,78.563 L232.1667,78.563 C232.7667,78.563 233.3,78.0297 233.3,77.4297 L233.3,53.063 C233.3,52.463 232.7667,51.9297 232.1667,51.9297 L211.1333,51.9297 M213.3333,55.263 L230,55.263 L230,71.9297 L213.3333,71.9297 L213.3333,55.263 M221.6667,73.5964 C222.9333,73.5964 223.7667,74.9964 223.1333,76.0964 C222.5,77.1964 220.8667,77.1964 220.2,76.0964 C219.5667,74.9964 220.3667,73.5964 221.6667,73.5964" fill="#0A9EFD"/></g><g class="participant participant-tail" data-entity-uid="part1" data-qualified-name="APP" data-source-line="4" id="part1-tail"><rect fill="none" height="40.6667" rx="2.5" ry="2.5" style="stroke:#0A9EFD;stroke-width:2;" width="42.6667" x="202" y="740.4684"/><path d="M211.1333,747.4684 C210.5333,747.4684 210,748.0018 210,748.6018 L210,772.9684 C210,773.5684 210.5333,774.1018 211.1333,774.1018 L232.1667,774.1018 C232.7667,774.1018 233.3,773.5684 233.3,772.9684 L233.3,748.6018 C233.3,748.0018 232.7667,747.4684 232.1667,747.4684 L211.1333,747.4684 M213.3333,750.8018 L230,750.8018 L230,767.4684 L213.3333,767.4684 L213.3333,750.8018 M221.6667,769.1351 C222.9333,769.1351 223.7667,770.5351 223.1333,771.6351 C222.5,772.7351 220.8667,772.7351 220.2,771.6351 C219.5667,770.5351 220.3667,769.1351 221.6667,769.1351" fill="#0A9EFD"/></g><g class="participant participant-head" data-entity-uid="part2" data-qualified-name="SDK" data-source-line="8" id="part2-head"><rect fill="none" height="40.6667" rx="2.5" ry="2.5" style="stroke:#0A9EFD;stroke-width:2;" width="42.6667" x="503.4434" y="44.9297"/><path d="M511.4434,51.9297 L511.4434,65.263 L524.7767,65.263 L524.7767,51.9297 L511.4434,51.9297 M528.11,58.5964 L528.11,68.5964 L518.11,68.5964 L518.11,71.9297 L531.4434,71.9297 L531.4434,58.5964 L528.11,58.5964 M534.7767,65.263 L534.7767,75.263 L524.7767,75.263 L524.7767,78.5964 L538.11,78.5964 L538.11,65.263 L534.7767,65.263" fill="#0A9EFD"/></g><g class="participant participant-tail" data-entity-uid="part2" data-qualified-name="SDK" data-source-line="8" id="part2-tail"><rect fill="none" height="40.6667" rx="2.5" ry="2.5" style="stroke:#0A9EFD;stroke-width:2;" width="42.6667" x="503.4434" y="740.4684"/><path d="M511.4434,747.4684 L511.4434,760.8018 L524.7767,760.8018 L524.7767,747.4684 L511.4434,747.4684 M528.11,754.1351 L528.11,764.1351 L518.11,764.1351 L518.11,767.4684 L531.4434,767.4684 L531.4434,754.1351 L528.11,754.1351 M534.7767,760.8018 L534.7767,770.8018 L524.7767,770.8018 L524.7767,774.1351 L538.11,774.1351 L538.11,760.8018 L534.7767,760.8018" fill="#0A9EFD"/></g><g class="participant participant-head" data-entity-uid="part3" data-qualified-name="RTN" data-source-line="12" id="part3-head"><rect fill="none" height="40.6667" rx="2.5" ry="2.5" style="stroke:#0A9EFD;stroke-width:2;" width="42.6667" x="702.4738" y="44.9297"/><path d="M725.4738,55.263 C721.4405,55.263 717.9071,58.1297 717.1405,61.9297 C713.4738,61.9297 710.4738,64.9297 710.4738,68.5964 C710.4738,72.263 713.4738,75.263 717.1405,75.263 L732.1405,75.263 C734.9071,75.263 737.1405,73.0297 737.1405,70.263 C737.1405,68.0964 735.7405,65.963 733.8071,65.263 L733.8071,63.5964 C733.8071,58.9964 730.0738,55.263 725.4738,55.263" fill="#0A9EFD"/></g><g class="participant participant-tail" data-entity-uid="part3" data-qualified-name="RTN" data-source-line="12" id="part3-tail"><rect fill="none" height="40.6667" rx="2.5" ry="2.5" style="stroke:#0A9EFD;stroke-width:2;" width="42.6667" x="702.4738" y="740.4684"/><path d="M725.4738,750.8018 C721.4405,750.8018 717.9071,753.6684 717.1405,757.4684 C713.4738,757.4684 710.4738,760.4684 710.4738,764.1351 C710.4738,767.8018 713.4738,770.8018 717.1405,770.8018 L732.1405,770.8018 C734.9071,770.8018 737.1405,768.5684 737.1405,765.8018 C737.1405,763.6351 735.7405,761.5018 733.8071,760.8018 L733.8071,759.1351 C733.8071,754.5351 730.0738,750.8018 725.4738,750.8018" fill="#0A9EFD"/></g><g class="message" data-entity-1="part1" data-entity-2="part2" data-source-line="15" id="msg1"><polygon fill="#0A9EFD" points="512.7767,124.0194,522.7767,128.0194,512.7767,132.0194,516.7767,128.0194" style="stroke:#0A9EFD;stroke-width:1;stroke-linejoin:miter;stroke-miterlimit:10;"/><line style="stroke:#0A9EFD;stroke-width:2;" x1="223.3333" x2="518.7767" y1="128.0194" y2="128.0194"/><text fill="#0A9EFD" font-family="Arial" font-size="13" lengthAdjust="spacing" textLength="134.3862" x="306.8619" y="123.2646">AgoraRTC.createClient</text></g><path d="M5,101.5964 L5,140.5964 L218,140.5964 L218,111.5964 L208,101.5964 L5,101.5964" fill="none" style="stroke:#0A9EFD;stroke-width:1;"/><path d="M208,101.5964 L208,111.5964 L218,111.5964 L208,101.5964" fill="none" style="stroke:#0A9EFD;stroke-width:1;"/><text fill="#0A9EFD" font-family="Arial" font-size="13" lengthAdjust="spacing" textLength="106.9326" x="58.3081" y="118.7902">Create two clients:</text><text fill="#0A9EFD" font-family="Arial" font-size="13" lengthAdjust="spacing" textLength="179.937" x="23.6118" y="133.7389">uplinkClient and downlinkClient</text><g class="message" data-entity-1="part1" data-entity-2="part2" data-source-line="17" id="msg3"><polygon fill="#0A9EFD" points="512.7767,163.4425,522.7767,167.4425,512.7767,171.4425,516.7767,167.4425" style="stroke:#0A9EFD;stroke-width:1;stroke-linejoin:miter;stroke-miterlimit:10;"/><line style="stroke:#0A9EFD;stroke-width:2;" x1="223.3333" x2="518.7767" y1="167.4425" y2="167.4425"/><text fill="#0A9EFD" font-family="Arial" font-size="13" lengthAdjust="spacing" textLength="91.0508" x="328.5296" y="162.6877">uplinkClient.join</text></g><g class="message" data-entity-1="part2" data-entity-2="part3" data-source-line="18" id="msg4"><polygon fill="#0A9EFD" points="711.8071,192.3913,721.8071,196.3913,711.8071,200.3913,715.8071,196.3913" style="stroke:#0A9EFD;stroke-width:1;stroke-linejoin:miter;stroke-miterlimit:10;"/><line style="stroke:#0A9EFD;stroke-width:2;" x1="524.7767" x2="717.8071" y1="196.3913" y2="196.3913"/><text fill="#0A9EFD" font-family="Arial" font-size="13" lengthAdjust="spacing" textLength="119.9707" x="564.3066" y="191.6364">Join channel request</text></g><g class="message" data-entity-1="part1" data-entity-2="part2" data-source-line="19" id="msg5"><polygon fill="#0A9EFD" points="512.7767,221.34,522.7767,225.34,512.7767,229.34,516.7767,225.34" style="stroke:#0A9EFD;stroke-width:1;stroke-linejoin:miter;stroke-miterlimit:10;"/><line style="stroke:#0A9EFD;stroke-width:2;" x1="223.3333" x2="518.7767" y1="225.34" y2="225.34"/><text fill="#0A9EFD" font-family="Arial" font-size="13" lengthAdjust="spacing" textLength="107.6689" x="320.2205" y="220.5851">downlinkClient.join</text></g><g class="message" data-entity-1="part2" data-entity-2="part3" data-source-line="20" id="msg6"><polygon fill="#0A9EFD" points="711.8071,250.2887,721.8071,254.2887,711.8071,258.2887,715.8071,254.2887" style="stroke:#0A9EFD;stroke-width:1;stroke-linejoin:miter;stroke-miterlimit:10;"/><line style="stroke:#0A9EFD;stroke-width:2;" x1="524.7767" x2="717.8071" y1="254.2887" y2="254.2887"/><text fill="#0A9EFD" font-family="Arial" font-size="13" lengthAdjust="spacing" textLength="119.9707" x="564.3066" y="249.5339">Join channel request</text></g><path d="M192,269.2887 L510.1714,269.2887 L510.1714,276.2375 L500.1714,286.2375 L192,286.2375 L192,269.2887" fill="#EEEEEE" style="stroke:#0A9EFD;stroke-width:1.5;"/><rect fill="none" height="103.7949" style="stroke:#0A9EFD;stroke-width:2;" width="563.1405" x="192" y="269.2887"/><text fill="#000000" font-family="Arial" font-size="13" lengthAdjust="spacing" textLength="273.1714" x="207" y="282.4826">Create and publish local audio and video tracks</text><g class="message" data-entity-1="part1" data-entity-2="part2" data-source-line="23" id="msg7"><polygon fill="#0A9EFD" points="512.7767,303.1862,522.7767,307.1862,512.7767,311.1862,516.7767,307.1862" style="stroke:#0A9EFD;stroke-width:1;stroke-linejoin:miter;stroke-miterlimit:10;"/><line style="stroke:#0A9EFD;stroke-width:2;" x1="223.3333" x2="518.7767" y1="307.1862" y2="307.1862"/><text fill="#0A9EFD" font-family="Arial" font-size="13" lengthAdjust="spacing" textLength="277.4434" x="235.3333" y="302.4313">AgoraRTC.createMicrophoneAndCameraTracks</text></g><g class="message" data-entity-1="part1" data-entity-2="part2" data-source-line="24" id="msg8"><polygon fill="#0A9EFD" points="512.7767,332.1349,522.7767,336.1349,512.7767,340.1349,516.7767,336.1349" style="stroke:#0A9EFD;stroke-width:1;stroke-linejoin:miter;stroke-miterlimit:10;"/><line style="stroke:#0A9EFD;stroke-width:2;" x1="223.3333" x2="518.7767" y1="336.1349" y2="336.1349"/><text fill="#0A9EFD" font-family="Arial" font-size="13" lengthAdjust="spacing" textLength="112.0107" x="318.0496" y="331.38">uplinkClient.publish</text></g><g class="message" data-entity-1="part2" data-entity-2="part3" data-source-line="25" id="msg9"><polygon fill="#0A9EFD" points="711.8071,361.0837,721.8071,365.0837,711.8071,369.0837,715.8071,365.0837" style="stroke:#0A9EFD;stroke-width:1;stroke-linejoin:miter;stroke-miterlimit:10;"/><line style="stroke:#0A9EFD;stroke-width:2;" x1="524.7767" x2="717.8071" y1="365.0837" y2="365.0837"/><text fill="#0A9EFD" font-family="Arial" font-size="13" lengthAdjust="spacing" textLength="154.686" x="546.9489" y="360.3288">Send audio and video data</text></g><path d="M192,387.0837 L442.9561,387.0837 L442.9561,394.0324 L432.9561,404.0324 L192,404.0324 L192,387.0837" fill="#EEEEEE" style="stroke:#0A9EFD;stroke-width:1.5;"/><rect fill="none" height="132.7437" style="stroke:#0A9EFD;stroke-width:2;" width="563.1405" x="192" y="387.0837"/><text fill="#000000" font-family="Arial" font-size="13" lengthAdjust="spacing" textLength="205.9561" x="207" y="400.2775">Subscribe to audio and video tracks</text><g class="message" data-entity-1="part3" data-entity-2="part1" data-source-line="29" id="msg10"><polygon fill="#0A9EFD" points="234.3333,420.9811,224.3333,424.9811,234.3333,428.9811,230.3333,424.9811" style="stroke:#0A9EFD;stroke-width:1;stroke-linejoin:miter;stroke-miterlimit:10;"/><line style="stroke:#0A9EFD;stroke-width:2;stroke-dasharray:2,2;" x1="228.3333" x2="722.8071" y1="424.9811" y2="424.9811"/><text fill="#0A9EFD" font-family="Arial" font-size="13" lengthAdjust="spacing" textLength="205.0547" x="371.0429" y="420.2262">downlinkClient.on("user-published")</text></g><g class="message" data-entity-1="part1" data-entity-2="part2" data-source-line="30" id="msg11"><polygon fill="#0A9EFD" points="512.7767,449.9299,522.7767,453.9299,512.7767,457.9299,516.7767,453.9299" style="stroke:#0A9EFD;stroke-width:1;stroke-linejoin:miter;stroke-miterlimit:10;"/><line style="stroke:#0A9EFD;stroke-width:2;" x1="223.3333" x2="518.7767" y1="453.9299" y2="453.9299"/><text fill="#0A9EFD" font-family="Arial" font-size="13" lengthAdjust="spacing" textLength="143.0698" x="302.5201" y="449.175">downlinkClient.subscribe</text></g><g class="message" data-entity-1="part3" data-entity-2="part2" data-source-line="31" id="msg12"><polygon fill="#0A9EFD" points="535.7767,478.8786,525.7767,482.8786,535.7767,486.8786,531.7767,482.8786" style="stroke:#0A9EFD;stroke-width:1;stroke-linejoin:miter;stroke-miterlimit:10;"/><line style="stroke:#0A9EFD;stroke-width:2;stroke-dasharray:2,2;" x1="529.7767" x2="722.8071" y1="482.8786" y2="482.8786"/><text fill="#0A9EFD" font-family="Arial" font-size="13" lengthAdjust="spacing" textLength="171.2915" x="538.6462" y="478.1237">Receive audio and video data</text></g><g class="message" data-entity-1="part1" data-entity-2="part2" data-source-line="32" id="msg13"><polygon fill="#0A9EFD" points="512.7767,507.8273,522.7767,511.8273,512.7767,515.8273,516.7767,511.8273" style="stroke:#0A9EFD;stroke-width:1;stroke-linejoin:miter;stroke-miterlimit:10;"/><line style="stroke:#0A9EFD;stroke-width:2;" x1="223.3333" x2="518.7767" y1="511.8273" y2="511.8273"/><text fill="#0A9EFD" font-family="Arial" font-size="13" lengthAdjust="spacing" textLength="55.6309" x="346.2396" y="507.0724">track.play</text></g><path d="M192,533.8273 L335.998,533.8273 L335.998,540.776 L325.998,550.776 L192,550.776 L192,533.8273" fill="#EEEEEE" style="stroke:#0A9EFD;stroke-width:1.5;"/><rect fill="none" height="190.6411" style="stroke:#0A9EFD;stroke-width:2;" width="364.11" x="192" y="533.8273"/><text fill="#000000" font-family="Arial" font-size="13" lengthAdjust="spacing" textLength="98.998" x="207" y="547.0212">Get network data</text><g class="message" data-entity-1="part2" data-entity-2="part1" data-source-line="36" id="msg14"><polygon fill="#0A9EFD" points="234.3333,567.7248,224.3333,571.7248,234.3333,575.7248,230.3333,571.7248" style="stroke:#0A9EFD;stroke-width:1;stroke-linejoin:miter;stroke-miterlimit:10;"/><line style="stroke:#0A9EFD;stroke-width:2;stroke-dasharray:2,2;" x1="228.3333" x2="523.7767" y1="571.7248" y2="571.7248"/><text fill="#0A9EFD" font-family="Arial" font-size="13" lengthAdjust="spacing" textLength="207.2065" x="270.4517" y="566.9699">downlinkClient.on("network-quality")</text></g><g class="message" data-entity-1="part2" data-entity-2="part1" data-source-line="37" id="msg15"><polygon fill="#0A9EFD" points="234.3333,596.6735,224.3333,600.6735,234.3333,604.6735,230.3333,600.6735" style="stroke:#0A9EFD;stroke-width:1;stroke-linejoin:miter;stroke-miterlimit:10;"/><line style="stroke:#0A9EFD;stroke-width:2;stroke-dasharray:2,2;" x1="228.3333" x2="523.7767" y1="600.6735" y2="600.6735"/><text fill="#0A9EFD" font-family="Arial" font-size="13" lengthAdjust="spacing" textLength="190.5884" x="278.7608" y="595.9186">uplinkClient.on("network-quality")</text></g><g class="message" data-entity-1="part1" data-entity-2="part2" data-source-line="38" id="msg16"><polygon fill="#0A9EFD" points="512.7767,625.6222,522.7767,629.6222,512.7767,633.6222,516.7767,629.6222" style="stroke:#0A9EFD;stroke-width:1;stroke-linejoin:miter;stroke-miterlimit:10;"/><line style="stroke:#0A9EFD;stroke-width:2;" x1="223.3333" x2="518.7767" y1="629.6222" y2="629.6222"/><text fill="#0A9EFD" font-family="Arial" font-size="13" lengthAdjust="spacing" textLength="182.8379" x="282.6361" y="624.8674">uplinkClient.getLocalAudioStats</text></g><g class="message" data-entity-1="part1" data-entity-2="part2" data-source-line="39" id="msg17"><polygon fill="#0A9EFD" points="512.7767,654.571,522.7767,658.571,512.7767,662.571,516.7767,658.571" style="stroke:#0A9EFD;stroke-width:1;stroke-linejoin:miter;stroke-miterlimit:10;"/><line style="stroke:#0A9EFD;stroke-width:2;" x1="223.3333" x2="518.7767" y1="658.571" y2="658.571"/><text fill="#0A9EFD" font-family="Arial" font-size="13" lengthAdjust="spacing" textLength="182.8379" x="282.6361" y="653.8161">uplinkClient.getLocalVideoStats</text></g><g class="message" data-entity-1="part1" data-entity-2="part2" data-source-line="40" id="msg18"><polygon fill="#0A9EFD" points="512.7767,683.5197,522.7767,687.5197,512.7767,691.5197,516.7767,687.5197" style="stroke:#0A9EFD;stroke-width:1;stroke-linejoin:miter;stroke-miterlimit:10;"/><line style="stroke:#0A9EFD;stroke-width:2;" x1="223.3333" x2="518.7767" y1="687.5197" y2="687.5197"/><text fill="#0A9EFD" font-family="Arial" font-size="13" lengthAdjust="spacing" textLength="213.897" x="267.1065" y="682.7648">downlinkClient.getRemoteAudioStats</text></g><g class="message" data-entity-1="part1" data-entity-2="part2" data-source-line="41" id="msg19"><polygon fill="#0A9EFD" points="512.7767,712.4684,522.7767,716.4684,512.7767,720.4684,516.7767,716.4684" style="stroke:#0A9EFD;stroke-width:1;stroke-linejoin:miter;stroke-miterlimit:10;"/><line style="stroke:#0A9EFD;stroke-width:2;" x1="223.3333" x2="518.7767" y1="716.4684" y2="716.4684"/><text fill="#0A9EFD" font-family="Arial" font-size="13" lengthAdjust="spacing" textLength="213.897" x="267.1065" y="711.7135">downlinkClient.getRemoteVideoStats</text></g><?plantuml-src ZLFDZjCm4BxdAOOS41nIE72AgaXHLqBYJwkcuhGIcZX3Q-hQNl_iiZmK3y6JCKvJDSqsWbEKoVStdvqNKWiLEmBS6eVV_5xgXOm7bMMj-GbvRMsUMNH12cbH1yYNNlwYyjtRQlaoOAieL3cWX_hsDYFT0RC6QdFpSPwgy8cSFr8PEA7MASkTRcxMcozB7strv_VoJNhE2mfbOdVKOz9PZtCL5JkKq8kkDwk5S8I1LagI3fasWK3Hzr32gfz3U3GW-e--lDCGhP9wVqG3icnd7lLvD38O8nS_ZDGPZukAuvJmWLz1x51hKk3eFf8VKoyr_ukSRPs9zXGw1REnLTBlG1c12Z1sqlJp1zcHWU1GxFry7v-bSCRkZAPQToiyaCFDb7AnuM0tojcargU-7GPCnt4AtCJM2oTRBjhCXMIregZOzrapHh_AeoTN3ExKvQ_dU_Gdhq6nnwn9a7oWwq7FKdsKXUMBEax_dW9euYlYzaT2sdu-wW0jxYCg6PuuwmX_qUPrz4prMmgVqY7NQOKcOF3_GdvDAqwHay2CNTE1_uUhidFWaJBtz1S0?></g></svg>