<svg xmlns="http://www.w3.org/2000/svg" xmlns:xlink="http://www.w3.org/1999/xlink" contentStyleType="text/css" data-diagram-type="ACTIVITY" height="644px" preserveAspectRatio="none" style="width:701px;height:644px;" version="1.1" viewBox="0 0 701 644" width="701px" zoomAndPan="magnify"><?plantuml 1.2026.4?><defs/><g><rect fill="none" height="642.4414" style="stroke:#0A9EFD;stroke-width:1;" width="699.1812" x="0" y="0"/><rect fill="#FFFFCC" height="18.0566" rx="2.5" ry="2.5" style="stroke:#FFDD88;stroke-width:3;" width="670.1812" x="13" y="13"/><text fill="#000000" font-family="monospace" font-size="10" lengthAdjust="spacing" textLength="294.0479" x="20" y="25.0566">Please&#160;use&#160;CSS&#160;style&#160;instead&#160;of&#160;skinparam&#160;padding</text><ellipse cx="249.466" cy="48.0566" fill="#0A9EFD" rx="10" ry="10" style="stroke:#222222;stroke-width:1;"/><rect fill="none" height="54.9487" rx="12.5" ry="12.5" style="stroke:#0A9EFD;stroke-width:4;" width="186.7007" x="156.1157" y="78.0566"/><text fill="#0A9EFD" font-family="Arial" font-size="13" lengthAdjust="spacing" textLength="146.7007" x="176.1157" y="110.2505">Your subscribed package</text><rect fill="none" height="69.8975" rx="12.5" ry="12.5" style="stroke:#0A9EFD;stroke-width:4;" width="184.5298" x="157.2011" y="153.0054"/><text fill="#0A9EFD" font-family="Arial" font-size="13" lengthAdjust="spacing" textLength="124.2935" x="185.5134" y="185.1992">Usage deducted from</text><text fill="#0A9EFD" font-family="Arial" font-size="13" lengthAdjust="spacing" textLength="144.5298" x="177.2011" y="200.1479">your subscribed package</text><polygon fill="none" points="180.2138,242.9028,318.7182,242.9028,330.7182,267.8516,318.7182,292.8003,180.2138,292.8003,168.2138,267.8516,180.2138,242.9028" style="stroke:#0A9EFD;stroke-width:4;stroke-linejoin:miter;stroke-miterlimit:10;"/><text fill="#0A9EFD" font-family="Arial" font-size="13" lengthAdjust="spacing" textLength="114.8926" x="190.2138" y="265.0967">Is your usage within</text><text fill="#0A9EFD" font-family="Arial" font-size="13" lengthAdjust="spacing" textLength="111.998" x="193.467" y="280.0454">your package limit?</text><text fill="#0A9EFD" font-family="Arial" font-size="13" lengthAdjust="spacing" textLength="22.4009" x="135.8129" y="255.0967">Yes</text><text fill="#0A9EFD" font-family="Arial" font-size="13" lengthAdjust="spacing" textLength="16.6182" x="340.7182" y="255.0967">No</text><rect fill="none" height="54.9487" rx="12.5" ry="12.5" style="stroke:#0A9EFD;stroke-width:4;" width="106.4854" x="16" y="302.8003"/><text fill="#0A9EFD" font-family="Arial" font-size="13" lengthAdjust="spacing" textLength="66.4854" x="36" y="334.9941">Billing ends</text><ellipse cx="69.2427" cy="403.749" fill="none" rx="11" ry="11" style="stroke:#0A9EFD;stroke-width:1;"/><ellipse cx="69.2427" cy="403.749" fill="#222222" rx="6" ry="6" style="stroke:#0A9EFD;stroke-width:1;"/><polygon fill="none" points="388.2631,302.8003,531.1156,302.8003,543.1156,327.749,531.1156,352.6978,388.2631,352.6978,376.2631,327.749,388.2631,302.8003" style="stroke:#0A9EFD;stroke-width:4;stroke-linejoin:miter;stroke-miterlimit:10;"/><text fill="#0A9EFD" font-family="Arial" font-size="13" lengthAdjust="spacing" textLength="119.2407" x="398.2631" y="324.9941">Have you purchased</text><text fill="#0A9EFD" font-family="Arial" font-size="13" lengthAdjust="spacing" textLength="107.6943" x="405.8422" y="339.9429">a top-up package?</text><text fill="#0A9EFD" font-family="Arial" font-size="13" lengthAdjust="spacing" textLength="22.4009" x="343.8622" y="314.9941">Yes</text><text fill="#0A9EFD" font-family="Arial" font-size="13" lengthAdjust="spacing" textLength="16.6182" x="553.1156" y="314.9941">No</text><polygon fill="none" points="239.1616,362.6978,406.5859,362.6978,418.5859,387.6465,406.5859,412.5952,239.1616,412.5952,227.1616,387.6465,239.1616,362.6978" style="stroke:#0A9EFD;stroke-width:4;stroke-linejoin:miter;stroke-miterlimit:10;"/><text fill="#0A9EFD" font-family="Arial" font-size="13" lengthAdjust="spacing" textLength="143.8125" x="249.1616" y="384.8916">Does your usage exceed</text><text fill="#0A9EFD" font-family="Arial" font-size="13" lengthAdjust="spacing" textLength="145.2534" x="250.2471" y="399.8403">the top-up package limit?</text><text fill="#0A9EFD" font-family="Arial" font-size="13" lengthAdjust="spacing" textLength="22.4009" x="194.7607" y="374.8916">Yes</text><text fill="#0A9EFD" font-family="Arial" font-size="13" lengthAdjust="spacing" textLength="16.6182" x="428.5859" y="374.8916">No</text><rect fill="none" height="69.8975" rx="12.5" ry="12.5" style="stroke:#0A9EFD;stroke-width:4;" width="169.3525" x="132.4854" y="422.5952"/><text fill="#0A9EFD" font-family="Arial" font-size="13" lengthAdjust="spacing" textLength="95.4053" x="169.459" y="454.7891">You pay through</text><text fill="#0A9EFD" font-family="Arial" font-size="13" lengthAdjust="spacing" textLength="129.3525" x="152.4854" y="469.7378">overage post-payment</text><rect fill="none" height="54.9487" rx="12.5" ry="12.5" style="stroke:#0A9EFD;stroke-width:4;" width="106.4854" x="163.9189" y="527.4927"/><text fill="#0A9EFD" font-family="Arial" font-size="13" lengthAdjust="spacing" textLength="66.4854" x="183.9189" y="559.6865">Billing ends</text><ellipse cx="217.1616" cy="613.4414" fill="none" rx="11" ry="11" style="stroke:#0A9EFD;stroke-width:1;"/><ellipse cx="217.1616" cy="613.4414" fill="#222222" rx="6" ry="6" style="stroke:#0A9EFD;stroke-width:1;"/><rect fill="none" height="54.9487" rx="12.5" ry="12.5" style="stroke:#0A9EFD;stroke-width:4;" width="106.4854" x="375.3433" y="422.5952"/><text fill="#0A9EFD" font-family="Arial" font-size="13" lengthAdjust="spacing" textLength="66.4854" x="395.3433" y="454.7891">Billing ends</text><ellipse cx="428.5859" cy="523.5439" fill="none" rx="11" ry="11" style="stroke:#0A9EFD;stroke-width:1;"/><ellipse cx="428.5859" cy="523.5439" fill="#222222" rx="6" ry="6" style="stroke:#0A9EFD;stroke-width:1;"/><rect fill="none" height="69.8975" rx="12.5" ry="12.5" style="stroke:#0A9EFD;stroke-width:4;" width="169.3525" x="511.8286" y="362.6978"/><text fill="#0A9EFD" font-family="Arial" font-size="13" lengthAdjust="spacing" textLength="95.4053" x="548.8022" y="394.8916">You pay through</text><text fill="#0A9EFD" font-family="Arial" font-size="13" lengthAdjust="spacing" textLength="129.3525" x="531.8286" y="409.8403">overage post-payment</text><rect fill="none" height="54.9487" rx="12.5" ry="12.5" style="stroke:#0A9EFD;stroke-width:4;" width="106.4854" x="543.2622" y="467.5952"/><text fill="#0A9EFD" font-family="Arial" font-size="13" lengthAdjust="spacing" textLength="66.4854" x="563.2622" y="499.7891">Billing ends</text><ellipse cx="596.5049" cy="568.5439" fill="none" rx="11" ry="11" style="stroke:#0A9EFD;stroke-width:1;"/><ellipse cx="596.5049" cy="568.5439" fill="#222222" rx="6" ry="6" style="stroke:#0A9EFD;stroke-width:1;"/><line style="stroke:#0A9EFD;stroke-width:2;" x1="249.466" x2="249.466" y1="58.0566" y2="78.0566"/><polygon fill="#0A9EFD" points="245.466,68.0566,249.466,78.0566,253.466,68.0566,249.466,72.0566" style="stroke:#0A9EFD;stroke-width:1;stroke-linejoin:miter;stroke-miterlimit:10;"/><line style="stroke:#0A9EFD;stroke-width:2;" x1="249.466" x2="249.466" y1="133.0054" y2="153.0054"/><polygon fill="#0A9EFD" points="245.466,143.0054,249.466,153.0054,253.466,143.0054,249.466,147.0054" style="stroke:#0A9EFD;stroke-width:1;stroke-linejoin:miter;stroke-miterlimit:10;"/><line style="stroke:#0A9EFD;stroke-width:2;" x1="69.2427" x2="69.2427" y1="357.749" y2="392.749"/><polygon fill="#0A9EFD" points="65.2427,382.749,69.2427,392.749,73.2427,382.749,69.2427,386.749" style="stroke:#0A9EFD;stroke-width:1;stroke-linejoin:miter;stroke-miterlimit:10;"/><line style="stroke:#0A9EFD;stroke-width:2;" x1="217.1616" x2="217.1616" y1="492.4927" y2="527.4927"/><polygon fill="#0A9EFD" points="213.1616,517.4927,217.1616,527.4927,221.1616,517.4927,217.1616,521.4927" style="stroke:#0A9EFD;stroke-width:1;stroke-linejoin:miter;stroke-miterlimit:10;"/><line style="stroke:#0A9EFD;stroke-width:2;" x1="217.1616" x2="217.1616" y1="582.4414" y2="602.4414"/><polygon fill="#0A9EFD" points="213.1616,592.4414,217.1616,602.4414,221.1616,592.4414,217.1616,596.4414" style="stroke:#0A9EFD;stroke-width:1;stroke-linejoin:miter;stroke-miterlimit:10;"/><line style="stroke:#0A9EFD;stroke-width:2;" x1="428.5859" x2="428.5859" y1="477.5439" y2="512.5439"/><polygon fill="#0A9EFD" points="424.5859,502.5439,428.5859,512.5439,432.5859,502.5439,428.5859,506.5439" style="stroke:#0A9EFD;stroke-width:1;stroke-linejoin:miter;stroke-miterlimit:10;"/><line style="stroke:#0A9EFD;stroke-width:2;" x1="227.1616" x2="217.1616" y1="387.6465" y2="387.6465"/><line style="stroke:#0A9EFD;stroke-width:2;" x1="217.1616" x2="217.1616" y1="387.6465" y2="422.5952"/><polygon fill="#0A9EFD" points="213.1616,412.5952,217.1616,422.5952,221.1616,412.5952,217.1616,416.5952" style="stroke:#0A9EFD;stroke-width:1;stroke-linejoin:miter;stroke-miterlimit:10;"/><line style="stroke:#0A9EFD;stroke-width:2;" x1="418.5859" x2="428.5859" y1="387.6465" y2="387.6465"/><line style="stroke:#0A9EFD;stroke-width:2;" x1="428.5859" x2="428.5859" y1="387.6465" y2="422.5952"/><polygon fill="#0A9EFD" points="424.5859,412.5952,428.5859,422.5952,432.5859,412.5952,428.5859,416.5952" style="stroke:#0A9EFD;stroke-width:1;stroke-linejoin:miter;stroke-miterlimit:10;"/><line style="stroke:#0A9EFD;stroke-width:2;" x1="596.5049" x2="596.5049" y1="432.5952" y2="467.5952"/><polygon fill="#0A9EFD" points="592.5049,457.5952,596.5049,467.5952,600.5049,457.5952,596.5049,461.5952" style="stroke:#0A9EFD;stroke-width:1;stroke-linejoin:miter;stroke-miterlimit:10;"/><line style="stroke:#0A9EFD;stroke-width:2;" x1="596.5049" x2="596.5049" y1="522.5439" y2="557.5439"/><polygon fill="#0A9EFD" points="592.5049,547.5439,596.5049,557.5439,600.5049,547.5439,596.5049,551.5439" style="stroke:#0A9EFD;stroke-width:1;stroke-linejoin:miter;stroke-miterlimit:10;"/><line style="stroke:#0A9EFD;stroke-width:2;" x1="376.2631" x2="322.8738" y1="327.749" y2="327.749"/><line style="stroke:#0A9EFD;stroke-width:2;" x1="322.8738" x2="322.8738" y1="327.749" y2="362.6978"/><polygon fill="#0A9EFD" points="318.8738,352.6978,322.8738,362.6978,326.8738,352.6978,322.8738,356.6978" style="stroke:#0A9EFD;stroke-width:1;stroke-linejoin:miter;stroke-miterlimit:10;"/><line style="stroke:#0A9EFD;stroke-width:2;" x1="543.1156" x2="596.5049" y1="327.749" y2="327.749"/><line style="stroke:#0A9EFD;stroke-width:2;" x1="596.5049" x2="596.5049" y1="327.749" y2="362.6978"/><polygon fill="#0A9EFD" points="592.5049,352.6978,596.5049,362.6978,600.5049,352.6978,596.5049,356.6978" style="stroke:#0A9EFD;stroke-width:1;stroke-linejoin:miter;stroke-miterlimit:10;"/><line style="stroke:#0A9EFD;stroke-width:2;" x1="168.2138" x2="69.2427" y1="267.8516" y2="267.8516"/><line style="stroke:#0A9EFD;stroke-width:2;" x1="69.2427" x2="69.2427" y1="267.8516" y2="302.8003"/><polygon fill="#0A9EFD" points="65.2427,292.8003,69.2427,302.8003,73.2427,292.8003,69.2427,296.8003" style="stroke:#0A9EFD;stroke-width:1;stroke-linejoin:miter;stroke-miterlimit:10;"/><line style="stroke:#0A9EFD;stroke-width:2;" x1="330.7182" x2="459.6893" y1="267.8516" y2="267.8516"/><line style="stroke:#0A9EFD;stroke-width:2;" x1="459.6893" x2="459.6893" y1="267.8516" y2="302.8003"/><polygon fill="#0A9EFD" points="455.6893,292.8003,459.6893,302.8003,463.6893,292.8003,459.6893,296.8003" style="stroke:#0A9EFD;stroke-width:1;stroke-linejoin:miter;stroke-miterlimit:10;"/><line style="stroke:#0A9EFD;stroke-width:2;" x1="249.466" x2="249.466" y1="222.9028" y2="242.9028"/><polygon fill="#0A9EFD" points="245.466,232.9028,249.466,242.9028,253.466,232.9028,249.466,236.9028" style="stroke:#0A9EFD;stroke-width:1;stroke-linejoin:miter;stroke-miterlimit:10;"/><?plantuml-src bL0xJyCm4DxzAuuj7OhAcWn8m50Mn89GfKZ8ZQ_9gNx9PnVwxx7JHYfHaS23VRhlST_vXcodaqAGlGloW_TaRoaPBKhbPP063Db7BPdVISK1xbQh2-nLAaMsprqXECeGHRrnAG2dBNU1jgZ0osulUsn4_SRv1OKgTJ43k-0CjFRu6vzsK3qpZ7WQfPyK1xAJvam4JORY_GBYW1Qg3V920DGFf7L9XbPnaniSdHUe6Q5wSOLHxDVoW6K0-1IwGN8Utre9cRfCVXemjpv9dnp-o8PV7Oxop9qPN4zOJlcip3fc9BZK3wrr1mn5uXt7PKOCsjXCxFbEvOnxbU9ojp-mhQATcAl-a-UA_zdzv3tUtm00?></g></svg>