<svg xmlns="http://www.w3.org/2000/svg" xmlns:xlink="http://www.w3.org/1999/xlink" contentStyleType="text/css" data-diagram-type="SEQUENCE" height="878px" preserveAspectRatio="none" style="width:551px;height:878px;" version="1.1" viewBox="0 0 551 878" width="551px" zoomAndPan="magnify"><?plantuml 1.2026.4?><defs/><g><rect fill="none" height="876.1206" style="stroke:#0A9EFD;stroke-width:1;" width="549.0569" x="0" y="0"/><rect fill="#999999" fill-opacity="0.33333" height="865.1206" style="stroke:#0A9EFD;stroke-width:0.5;" width="90.4824" x="122.7915" y="6"/><text fill="#0A9EFD" font-family="sans-serif" font-size="13" font-weight="700" lengthAdjust="spacing" textLength="56.3354" x="139.865" y="19.4951">Your app</text><rect fill="#999999" fill-opacity="0.33333" height="865.1206" style="stroke:#0A9EFD;stroke-width:0.5;" width="78.3257" x="450.7312" y="6"/><text fill="#0A9EFD" font-family="sans-serif" font-size="13" font-weight="700" lengthAdjust="spacing" textLength="37.5591" x="471.1145" y="19.4951">Agora</text><rect fill="#0A9EFD" fill-opacity="0.06667" height="100.8462" style="stroke:#0A9EFD;stroke-width:2;" width="252.3491" x="116.7915" y="215.9448"/><rect fill="#0A9EFD" fill-opacity="0.06667" height="203.6411" style="stroke:#0A9EFD;stroke-width:2;" width="525.0569" x="10" y="330.791"/><rect fill="#0A9EFD" fill-opacity="0.06667" height="74.8462" style="stroke:#0A9EFD;stroke-width:2;" width="418.2654" x="116.7915" y="548.4321"/><rect fill="#0A9EFD" fill-opacity="0.06667" height="132.7437" style="stroke:#0A9EFD;stroke-width:2;" width="525.0569" x="10" y="637.2783"/><g class="participant-lifeline" data-entity-uid="part1" data-qualified-name="USR" data-source-line="3" id="part1-lifeline"><g><title>User</title><rect fill="#000000" fill-opacity="0.00000" height="700.9233" width="8" x="33.7793" y="86.0986"/><line style="stroke:#0A9EFD;stroke-width:0.5;stroke-dasharray:5,5;" x1="37" x2="37" y1="86.0986" y2="787.022"/></g></g><g class="participant-lifeline" data-entity-uid="part2" data-qualified-name="APP" data-source-line="6" id="part2-lifeline"><g><title>Video SDK</title><rect fill="#000000" fill-opacity="0.00000" height="700.9233" width="8" x="164.0327" y="86.0986"/><line style="stroke:#0A9EFD;stroke-width:0.5;stroke-dasharray:5,5;" x1="167.7915" x2="167.7915" y1="86.0986" y2="787.022"/></g></g><g class="participant-lifeline" data-entity-uid="part3" data-qualified-name="API" data-source-line="10" id="part3-lifeline"><g><title>SDRTN.sup....sup.</title><rect fill="#000000" fill-opacity="0.00000" height="700.9233" width="8" x="485.894" y="86.0986"/><line style="stroke:#0A9EFD;stroke-width:0.5;stroke-dasharray:5,5;" x1="489.7312" x2="489.7312" y1="86.0986" y2="787.022"/></g></g><g class="participant participant-head" data-entity-uid="part1" data-qualified-name="USR" data-source-line="3" id="part1-head"><text fill="#0A9EFD" font-family="Arial" font-size="14" lengthAdjust="spacing" textLength="29.5586" x="20" y="83.1318">User</text><ellipse cx="37.7793" cy="16" fill="none" rx="8" ry="8" style="stroke:#0A9EFD;stroke-width:3;"/><path d="M37.7793,24 L37.7793,51 M24.7793,32 L50.7793,32 M37.7793,51 L24.7793,66 M37.7793,51 L50.7793,66" fill="none" style="stroke:#0A9EFD;stroke-width:3;"/></g><g class="participant participant-tail" data-entity-uid="part1" data-qualified-name="USR" data-source-line="3" id="part1-tail"><text fill="#0A9EFD" font-family="Arial" font-size="14" lengthAdjust="spacing" textLength="29.5586" x="20" y="799.1538">User</text><ellipse cx="37.7793" cy="813.1206" fill="none" rx="8" ry="8" style="stroke:#0A9EFD;stroke-width:3;"/><path d="M37.7793,821.1206 L37.7793,848.1206 M24.7793,829.1206 L50.7793,829.1206 M37.7793,848.1206 L24.7793,863.1206 M37.7793,848.1206 L50.7793,863.1206" fill="none" style="stroke:#0A9EFD;stroke-width:3;"/></g><g class="participant participant-head" data-entity-uid="part2" data-qualified-name="APP" data-source-line="6" id="part2-head"><rect fill="none" height="30.0986" rx="2.5" ry="2.5" style="stroke:#0A9EFD;stroke-width:2;" width="82.4824" x="126.7915" y="55"/><text fill="#0A9EFD" font-family="Arial" font-size="14" lengthAdjust="spacing" textLength="68.4824" x="133.7915" y="75.1318">Video SDK</text></g><g class="participant participant-tail" data-entity-uid="part2" data-qualified-name="APP" data-source-line="6" id="part2-tail"><rect fill="none" height="30.0986" rx="2.5" ry="2.5" style="stroke:#0A9EFD;stroke-width:2;" width="82.4824" x="126.7915" y="786.022"/><text fill="#0A9EFD" font-family="Arial" font-size="14" lengthAdjust="spacing" textLength="68.4824" x="133.7915" y="806.1538">Video SDK</text></g><g class="participant participant-head" data-entity-uid="part3" data-qualified-name="API" data-source-line="10" id="part3-head"><rect fill="none" height="32.6489" rx="2.5" ry="2.5" style="stroke:#0A9EFD;stroke-width:2;" width="70.3257" x="454.7312" y="52.4497"/><text fill="#0A9EFD" font-family="Arial" font-size="14" lengthAdjust="spacing" textLength="48.2207" x="461.7312" y="75.1318">SDRTN</text><text fill="#0A9EFD" font-family="Arial" font-size="11" lengthAdjust="spacing" textLength="8.105" x="509.9519" y="69.7676">&#174;</text></g><g class="participant participant-tail" data-entity-uid="part3" data-qualified-name="API" data-source-line="10" id="part3-tail"><rect fill="none" height="32.6489" rx="2.5" ry="2.5" style="stroke:#0A9EFD;stroke-width:2;" width="70.3257" x="454.7312" y="786.022"/><text fill="#0A9EFD" font-family="Arial" font-size="14" lengthAdjust="spacing" textLength="48.2207" x="461.7312" y="808.7041">SDRTN</text><text fill="#0A9EFD" font-family="Arial" font-size="11" lengthAdjust="spacing" textLength="8.105" x="509.9519" y="803.3398">&#174;</text></g><g class="message" data-entity-1="part1" data-entity-2="part2" data-source-line="13" id="msg1"><polygon fill="#0A9EFD" points="156.0327,113.0474,166.0327,117.0474,156.0327,121.0474,160.0327,117.0474" style="stroke:#0A9EFD;stroke-width:1;stroke-linejoin:miter;stroke-miterlimit:10;"/><line style="stroke:#0A9EFD;stroke-width:2;" x1="37.7793" x2="162.0327" y1="117.0474" y2="117.0474"/><text fill="#0A9EFD" font-family="Arial" font-size="13" lengthAdjust="spacing" textLength="58.5444" x="73.6338" y="112.2925">Open App</text></g><g class="message" data-entity-1="part2" data-entity-2="part2" data-source-line="14" id="msg2"><line style="stroke:#0A9EFD;stroke-width:2;" x1="168.0327" x2="210.0327" y1="145.9961" y2="145.9961"/><line style="stroke:#0A9EFD;stroke-width:2;" x1="210.0327" x2="210.0327" y1="145.9961" y2="158.9961"/><line style="stroke:#0A9EFD;stroke-width:2;" x1="169.0327" x2="210.0327" y1="158.9961" y2="158.9961"/><polygon fill="#0A9EFD" points="179.0327,154.9961,169.0327,158.9961,179.0327,162.9961,175.0327,158.9961" style="stroke:#0A9EFD;stroke-width:1;stroke-linejoin:miter;stroke-miterlimit:10;"/><text fill="#0A9EFD" font-family="Arial" font-size="13" lengthAdjust="spacing" textLength="307.8613" x="175.0327" y="141.2412">Create an instance of Agora Engine using Video SDK</text></g><g class="message" data-entity-1="part2" data-entity-2="part2" data-source-line="15" id="msg3"><line style="stroke:#0A9EFD;stroke-width:2;" x1="168.0327" x2="210.0327" y1="187.9448" y2="187.9448"/><line style="stroke:#0A9EFD;stroke-width:2;" x1="210.0327" x2="210.0327" y1="187.9448" y2="200.9448"/><line style="stroke:#0A9EFD;stroke-width:2;" x1="169.0327" x2="210.0327" y1="200.9448" y2="200.9448"/><polygon fill="#0A9EFD" points="179.0327,196.9448,169.0327,200.9448,179.0327,204.9448,175.0327,200.9448" style="stroke:#0A9EFD;stroke-width:1;stroke-linejoin:miter;stroke-miterlimit:10;"/><text fill="#0A9EFD" font-family="Arial" font-size="13" lengthAdjust="spacing" textLength="232.0132" x="175.0327" y="183.1899">Enable audio and video in Agora Engine</text></g><path d="M116.7915,215.9448 L315.7158,215.9448 L315.7158,222.8936 L305.7158,232.8936 L116.7915,232.8936 L116.7915,215.9448" fill="#EEEEEE" style="stroke:#0A9EFD;stroke-width:1.5;"/><rect fill="none" height="100.8462" style="stroke:#0A9EFD;stroke-width:2;" width="252.3491" x="116.7915" y="215.9448"/><text fill="#000000" font-family="Arial" font-size="13" lengthAdjust="spacing" textLength="153.9243" x="131.7915" y="229.1387">Setup raw data processing</text><g class="message" data-entity-1="part2" data-entity-2="part2" data-source-line="18" id="msg4"><line style="stroke:#0A9EFD;stroke-width:2;" x1="168.0327" x2="210.0327" y1="253.8423" y2="253.8423"/><line style="stroke:#0A9EFD;stroke-width:2;" x1="210.0327" x2="210.0327" y1="253.8423" y2="266.8423"/><line style="stroke:#0A9EFD;stroke-width:2;" x1="169.0327" x2="210.0327" y1="266.8423" y2="266.8423"/><polygon fill="#0A9EFD" points="179.0327,262.8423,169.0327,266.8423,179.0327,270.8423,175.0327,266.8423" style="stroke:#0A9EFD;stroke-width:1;stroke-linejoin:miter;stroke-miterlimit:10;"/><text fill="#0A9EFD" font-family="Arial" font-size="13" lengthAdjust="spacing" textLength="182.1079" x="175.0327" y="249.0874">Setup the audio frame observer</text></g><g class="message" data-entity-1="part2" data-entity-2="part2" data-source-line="19" id="msg5"><line style="stroke:#0A9EFD;stroke-width:2;" x1="168.0327" x2="210.0327" y1="295.791" y2="295.791"/><line style="stroke:#0A9EFD;stroke-width:2;" x1="210.0327" x2="210.0327" y1="295.791" y2="308.791"/><line style="stroke:#0A9EFD;stroke-width:2;" x1="169.0327" x2="210.0327" y1="308.791" y2="308.791"/><polygon fill="#0A9EFD" points="179.0327,304.791,169.0327,308.791,179.0327,312.791,175.0327,308.791" style="stroke:#0A9EFD;stroke-width:1;stroke-linejoin:miter;stroke-miterlimit:10;"/><text fill="#0A9EFD" font-family="Arial" font-size="13" lengthAdjust="spacing" textLength="181.3779" x="175.0327" y="291.0361">Setup the video frame observer</text></g><path d="M10,330.791 L78.8481,330.791 L78.8481,337.7397 L68.8481,347.7397 L10,347.7397 L10,330.791" fill="#EEEEEE" style="stroke:#0A9EFD;stroke-width:1.5;"/><rect fill="none" height="203.6411" style="stroke:#0A9EFD;stroke-width:2;" width="525.0569" x="10" y="330.791"/><text fill="#000000" font-family="Arial" font-size="13" lengthAdjust="spacing" textLength="23.8481" x="25" y="343.9849">Join</text><g class="message" data-entity-1="part1" data-entity-2="part2" data-source-line="23" id="msg6"><polygon fill="#0A9EFD" points="156.0327,364.6885,166.0327,368.6885,156.0327,372.6885,160.0327,368.6885" style="stroke:#0A9EFD;stroke-width:1;stroke-linejoin:miter;stroke-miterlimit:10;"/><line style="stroke:#0A9EFD;stroke-width:2;" x1="37.7793" x2="162.0327" y1="368.6885" y2="368.6885"/><text fill="#0A9EFD" font-family="Arial" font-size="13" lengthAdjust="spacing" textLength="83.8398" x="60.9861" y="363.9336">Join a channel</text></g><g class="message" data-entity-1="part2" data-entity-2="part3" data-source-line="24" id="msg7"><polygon fill="#0A9EFD" points="477.894,393.6372,487.894,397.6372,477.894,401.6372,481.894,397.6372" style="stroke:#0A9EFD;stroke-width:1;stroke-linejoin:miter;stroke-miterlimit:10;"/><line style="stroke:#0A9EFD;stroke-width:2;" x1="168.0327" x2="483.894" y1="397.6372" y2="397.6372"/><text fill="#0A9EFD" font-family="Arial" font-size="13" lengthAdjust="spacing" textLength="195.8125" x="231.0571" y="392.8823">Register the video frame observer</text></g><g class="message" data-entity-1="part2" data-entity-2="part3" data-source-line="25" id="msg8"><polygon fill="#0A9EFD" points="477.894,422.5859,487.894,426.5859,477.894,430.5859,481.894,426.5859" style="stroke:#0A9EFD;stroke-width:1;stroke-linejoin:miter;stroke-miterlimit:10;"/><line style="stroke:#0A9EFD;stroke-width:2;" x1="168.0327" x2="483.894" y1="426.5859" y2="426.5859"/><text fill="#0A9EFD" font-family="Arial" font-size="13" lengthAdjust="spacing" textLength="196.5425" x="230.6921" y="421.8311">Register the audio frame observer</text></g><g class="message" data-entity-1="part2" data-entity-2="part3" data-source-line="26" id="msg9"><polygon fill="#0A9EFD" points="477.894,451.5347,487.894,455.5347,477.894,459.5347,481.894,455.5347" style="stroke:#0A9EFD;stroke-width:1;stroke-linejoin:miter;stroke-miterlimit:10;"/><line style="stroke:#0A9EFD;stroke-width:2;" x1="168.0327" x2="483.894" y1="455.5347" y2="455.5347"/><text fill="#0A9EFD" font-family="Arial" font-size="13" lengthAdjust="spacing" textLength="161.1353" x="248.3958" y="450.7798">Set audio frame parameters</text></g><g class="message" data-entity-1="part2" data-entity-2="part2" data-source-line="27" id="msg10"><line style="stroke:#0A9EFD;stroke-width:2;" x1="168.0327" x2="210.0327" y1="484.4834" y2="484.4834"/><line style="stroke:#0A9EFD;stroke-width:2;" x1="210.0327" x2="210.0327" y1="484.4834" y2="497.4834"/><line style="stroke:#0A9EFD;stroke-width:2;" x1="169.0327" x2="210.0327" y1="497.4834" y2="497.4834"/><polygon fill="#0A9EFD" points="179.0327,493.4834,169.0327,497.4834,179.0327,501.4834,175.0327,497.4834" style="stroke:#0A9EFD;stroke-width:1;stroke-linejoin:miter;stroke-miterlimit:10;"/><text fill="#0A9EFD" font-family="Arial" font-size="13" lengthAdjust="spacing" textLength="266.6777" x="175.0327" y="479.7285">Retrieve authentication token to join a channel</text></g><g class="message" data-entity-1="part2" data-entity-2="part3" data-source-line="28" id="msg11"><polygon fill="#0A9EFD" points="477.894,522.4321,487.894,526.4321,477.894,530.4321,481.894,526.4321" style="stroke:#0A9EFD;stroke-width:1;stroke-linejoin:miter;stroke-miterlimit:10;"/><line style="stroke:#0A9EFD;stroke-width:2;" x1="168.0327" x2="483.894" y1="526.4321" y2="526.4321"/><text fill="#0A9EFD" font-family="Arial" font-size="13" lengthAdjust="spacing" textLength="94.6816" x="281.6226" y="521.6772">Join the channel</text></g><path d="M116.7915,548.4321 L357.6357,548.4321 L357.6357,555.3809 L347.6357,565.3809 L116.7915,565.3809 L116.7915,548.4321" fill="#EEEEEE" style="stroke:#0A9EFD;stroke-width:1.5;"/><rect fill="none" height="74.8462" style="stroke:#0A9EFD;stroke-width:2;" width="418.2654" x="116.7915" y="548.4321"/><text fill="#000000" font-family="Arial" font-size="13" lengthAdjust="spacing" textLength="195.8442" x="131.7915" y="561.626">Process raw audio and video data</text><g class="message" data-entity-1="part3" data-entity-2="part2" data-source-line="32" id="msg12"><polygon fill="#0A9EFD" points="179.0327,582.3296,169.0327,586.3296,179.0327,590.3296,175.0327,586.3296" style="stroke:#0A9EFD;stroke-width:1;stroke-linejoin:miter;stroke-miterlimit:10;"/><line style="stroke:#0A9EFD;stroke-width:2;" x1="173.0327" x2="488.894" y1="586.3296" y2="586.3296"/><text fill="#0A9EFD" font-family="Arial" font-size="13" lengthAdjust="spacing" textLength="188.6016" x="234.6626" y="581.5747">Get the raw data in the callbacks</text></g><g class="message" data-entity-1="part2" data-entity-2="part3" data-source-line="33" id="msg13"><polygon fill="#0A9EFD" points="477.894,611.2783,487.894,615.2783,477.894,619.2783,481.894,615.2783" style="stroke:#0A9EFD;stroke-width:1;stroke-linejoin:miter;stroke-miterlimit:10;"/><line style="stroke:#0A9EFD;stroke-width:2;" x1="168.0327" x2="483.894" y1="615.2783" y2="615.2783"/><text fill="#0A9EFD" font-family="Arial" font-size="13" lengthAdjust="spacing" textLength="281.1123" x="188.4072" y="610.5234">Send the processed data back with the callbacks</text></g><path d="M10,637.2783 L90.4199,637.2783 L90.4199,644.2271 L80.4199,654.2271 L10,654.2271 L10,637.2783" fill="#EEEEEE" style="stroke:#0A9EFD;stroke-width:1.5;"/><rect fill="none" height="132.7437" style="stroke:#0A9EFD;stroke-width:2;" width="525.0569" x="10" y="637.2783"/><text fill="#000000" font-family="Arial" font-size="13" lengthAdjust="spacing" textLength="35.4199" x="25" y="650.4722">Leave</text><g class="message" data-entity-1="part1" data-entity-2="part2" data-source-line="37" id="msg14"><polygon fill="#0A9EFD" points="156.0327,671.1758,166.0327,675.1758,156.0327,679.1758,160.0327,675.1758" style="stroke:#0A9EFD;stroke-width:1;stroke-linejoin:miter;stroke-miterlimit:10;"/><line style="stroke:#0A9EFD;stroke-width:2;" x1="37.7793" x2="162.0327" y1="675.1758" y2="675.1758"/><text fill="#0A9EFD" font-family="Arial" font-size="13" lengthAdjust="spacing" textLength="106.2534" x="49.7793" y="670.4209">Leave the channel</text></g><g class="message" data-entity-1="part2" data-entity-2="part3" data-source-line="38" id="msg15"><polygon fill="#0A9EFD" points="477.894,700.1245,487.894,704.1245,477.894,708.1245,481.894,704.1245" style="stroke:#0A9EFD;stroke-width:1;stroke-linejoin:miter;stroke-miterlimit:10;"/><line style="stroke:#0A9EFD;stroke-width:2;" x1="168.0327" x2="483.894" y1="704.1245" y2="704.1245"/><text fill="#0A9EFD" font-family="Arial" font-size="13" lengthAdjust="spacing" textLength="203.0425" x="227.4421" y="699.3696">Unegister the video frame observer</text></g><g class="message" data-entity-1="part2" data-entity-2="part3" data-source-line="39" id="msg16"><polygon fill="#0A9EFD" points="477.894,729.0732,487.894,733.0732,477.894,737.0732,481.894,733.0732" style="stroke:#0A9EFD;stroke-width:1;stroke-linejoin:miter;stroke-miterlimit:10;"/><line style="stroke:#0A9EFD;stroke-width:2;" x1="168.0327" x2="483.894" y1="733.0732" y2="733.0732"/><text fill="#0A9EFD" font-family="Arial" font-size="13" lengthAdjust="spacing" textLength="203.7725" x="227.0771" y="728.3184">Unegister the audio frame observer</text></g><g class="message" data-entity-1="part2" data-entity-2="part3" data-source-line="40" id="msg17"><polygon fill="#0A9EFD" points="477.894,758.022,487.894,762.022,477.894,766.022,481.894,762.022" style="stroke:#0A9EFD;stroke-width:1;stroke-linejoin:miter;stroke-miterlimit:10;"/><line style="stroke:#0A9EFD;stroke-width:2;" x1="168.0327" x2="483.894" y1="762.022" y2="762.022"/><text fill="#0A9EFD" font-family="Arial" font-size="13" lengthAdjust="spacing" textLength="106.2534" x="275.8367" y="757.2671">Leave the channel</text></g><?plantuml-src bP5DJiCm48NtFiMGVTizgYfLW10_WggbIApGD1bIqp2sRAVbL1o2ap5Esb87AiGcKPptldcUTw8vh-g2eDyVh7L1fkUBrG1Bu_3PhpJtTVrMAOLvC0wokIUN0NgOpwPABSmxP4-cTe3MPigY2phN5Zb0zXXPC3k_QUJZoKGH5o2EhMqS9tGyi_FfmztGrtRq-J4SnFVMVFLjbi7G6qNWATnROXXRg-HhVtZc20C1CcZs0JadC2_GZ8CBBZKJr5vp2Vk4YVs2SL69lIwq4KW1pLA4bI2KAfsfBSmeoDFX1WeC2DQPd7oa9ynM5POxx8l3Dqcra6MkoS4HRJkugvL5x8PV6yt9Fk818EHBPARg6tjr2bCgjGy2E4O-hlujSwAMo8b8EfMNs7roioa5fsaTWO9bgHs3DWp1h2W-uVLu_EPcCSpsPxA7IRlrfePkRx6MXZJijQHB2Hj1-yvsOAog1UOhtxcQaEBlRRDKjAQeX8qEouxt8DKjuPgIUfgJmriae-RyhufI-PyT_PmTetu1?></g></svg>