<svg xmlns="http://www.w3.org/2000/svg" xmlns:xlink="http://www.w3.org/1999/xlink" contentStyleType="text/css" data-diagram-type="SEQUENCE" height="374px" preserveAspectRatio="none" style="width:630px;height:374px;" version="1.1" viewBox="0 0 630 374" width="630px" zoomAndPan="magnify"><?plantuml 1.2026.4?><defs/><g><rect fill="none" height="372.5013" style="stroke:#0A9EFD;stroke-width:1;" width="628.7699" x="0" y="0"/><rect fill="#999999" fill-opacity="0.33333" height="361.5013" style="stroke:#0A9EFD;stroke-width:0.5;" width="50.6667" x="16" y="6"/><text fill="#0A9EFD" font-family="sans-serif" font-size="13" font-weight="700" lengthAdjust="spacing" textLength="25.27" x="28.6983" y="19.4951">App</text><rect fill="#999999" fill-opacity="0.33333" height="361.5013" style="stroke:#0A9EFD;stroke-width:0.5;" width="71.7427" x="287.1587" y="6"/><text fill="#0A9EFD" font-family="sans-serif" font-size="13" font-weight="700" lengthAdjust="spacing" textLength="65.7427" x="290.1587" y="19.4951">Voice SDK</text><rect fill="#999999" fill-opacity="0.33333" height="361.5013" style="stroke:#0A9EFD;stroke-width:0.5;" width="99.3154" x="524.4544" y="6"/><text fill="#0A9EFD" font-family="sans-serif" font-size="13" font-weight="700" lengthAdjust="spacing" textLength="85.9473" x="527.4544" y="21.7217">Agora SDRTN</text><text fill="#0A9EFD" font-family="sans-serif" font-size="10" font-weight="700" lengthAdjust="spacing" textLength="7.3682" x="613.4017" y="16.3809">&#174;</text><rect fill="#0A9EFD" fill-opacity="0.06667" height="189.6411" style="stroke:#0A9EFD;stroke-width:2;" width="595.4455" x="10" y="116.1935"/><g class="participant-lifeline" data-entity-uid="part1" data-qualified-name="APP" data-source-line="4" id="part1-lifeline"><g><title>.size.40...tablet.</title><rect fill="#000000" fill-opacity="0.00000" height="252.5898" width="8" x="37.3333" y="70.2448"/><line style="stroke:#0A9EFD;stroke-width:0.5;stroke-dasharray:5,5;" x1="41" x2="41" y1="70.2448" y2="322.8346"/></g></g><g class="participant-lifeline" data-entity-uid="part2" data-qualified-name="SDK" data-source-line="8" id="part2-lifeline"><g><title>.size.40...layers.</title><rect fill="#000000" fill-opacity="0.00000" height="252.5898" width="8" x="319.03" y="70.2448"/><line style="stroke:#0A9EFD;stroke-width:0.5;stroke-dasharray:5,5;" x1="322.6967" x2="322.6967" y1="70.2448" y2="322.8346"/></g></g><g class="participant-lifeline" data-entity-uid="part3" data-qualified-name="RTN" data-source-line="12" id="part3-lifeline"><g><title>.size.40...cloud.</title><rect fill="#000000" fill-opacity="0.00000" height="252.5898" width="8" x="570.1121" y="70.2448"/><line style="stroke:#0A9EFD;stroke-width:0.5;stroke-dasharray:5,5;" x1="573.7788" x2="573.7788" y1="70.2448" y2="322.8346"/></g></g><g class="participant participant-head" data-entity-uid="part1" data-qualified-name="APP" data-source-line="4" id="part1-head"><rect fill="none" height="40.6667" rx="2.5" ry="2.5" style="stroke:#0A9EFD;stroke-width:2;" width="42.6667" x="20" y="28.5781"/><path d="M29.1333,35.5781 C28.5333,35.5781 28,36.1115 28,36.7115 L28,61.0781 C28,61.6781 28.5333,62.2115 29.1333,62.2115 L50.1667,62.2115 C50.7667,62.2115 51.3,61.6781 51.3,61.0781 L51.3,36.7115 C51.3,36.1115 50.7667,35.5781 50.1667,35.5781 L29.1333,35.5781 M31.3333,38.9115 L48,38.9115 L48,55.5781 L31.3333,55.5781 L31.3333,38.9115 M39.6667,57.2448 C40.9333,57.2448 41.7667,58.6448 41.1333,59.7448 C40.5,60.8448 38.8667,60.8448 38.2,59.7448 C37.5667,58.6448 38.3667,57.2448 39.6667,57.2448" fill="#0A9EFD"/></g><g class="participant participant-tail" data-entity-uid="part1" data-qualified-name="APP" data-source-line="4" id="part1-tail"><rect fill="none" height="40.6667" rx="2.5" ry="2.5" style="stroke:#0A9EFD;stroke-width:2;" width="42.6667" x="20" y="321.8346"/><path d="M29.1333,328.8346 C28.5333,328.8346 28,329.368 28,329.968 L28,354.3346 C28,354.9346 28.5333,355.468 29.1333,355.468 L50.1667,355.468 C50.7667,355.468 51.3,354.9346 51.3,354.3346 L51.3,329.968 C51.3,329.368 50.7667,328.8346 50.1667,328.8346 L29.1333,328.8346 M31.3333,332.168 L48,332.168 L48,348.8346 L31.3333,348.8346 L31.3333,332.168 M39.6667,350.5013 C40.9333,350.5013 41.7667,351.9013 41.1333,353.0013 C40.5,354.1013 38.8667,354.1013 38.2,353.0013 C37.5667,351.9013 38.3667,350.5013 39.6667,350.5013" fill="#0A9EFD"/></g><g class="participant participant-head" data-entity-uid="part2" data-qualified-name="SDK" data-source-line="8" id="part2-head"><rect fill="none" height="40.6667" rx="2.5" ry="2.5" style="stroke:#0A9EFD;stroke-width:2;" width="42.6667" x="301.6967" y="28.5781"/><path d="M309.6967,35.5781 L309.6967,48.9115 L323.03,48.9115 L323.03,35.5781 L309.6967,35.5781 M326.3634,42.2448 L326.3634,52.2448 L316.3634,52.2448 L316.3634,55.5781 L329.6967,55.5781 L329.6967,42.2448 L326.3634,42.2448 M333.03,48.9115 L333.03,58.9115 L323.03,58.9115 L323.03,62.2448 L336.3634,62.2448 L336.3634,48.9115 L333.03,48.9115" fill="#0A9EFD"/></g><g class="participant participant-tail" data-entity-uid="part2" data-qualified-name="SDK" data-source-line="8" id="part2-tail"><rect fill="none" height="40.6667" rx="2.5" ry="2.5" style="stroke:#0A9EFD;stroke-width:2;" width="42.6667" x="301.6967" y="321.8346"/><path d="M309.6967,328.8346 L309.6967,342.168 L323.03,342.168 L323.03,328.8346 L309.6967,328.8346 M326.3634,335.5013 L326.3634,345.5013 L316.3634,345.5013 L316.3634,348.8346 L329.6967,348.8346 L329.6967,335.5013 L326.3634,335.5013 M333.03,342.168 L333.03,352.168 L323.03,352.168 L323.03,355.5013 L336.3634,355.5013 L336.3634,342.168 L333.03,342.168" fill="#0A9EFD"/></g><g class="participant participant-head" data-entity-uid="part3" data-qualified-name="RTN" data-source-line="12" id="part3-head"><rect fill="none" height="40.6667" rx="2.5" ry="2.5" style="stroke:#0A9EFD;stroke-width:2;" width="42.6667" x="552.7788" y="28.5781"/><path d="M575.7788,38.9115 C571.7455,38.9115 568.2121,41.7781 567.4455,45.5781 C563.7788,45.5781 560.7788,48.5781 560.7788,52.2448 C560.7788,55.9115 563.7788,58.9115 567.4455,58.9115 L582.4455,58.9115 C585.2121,58.9115 587.4455,56.6781 587.4455,53.9115 C587.4455,51.7448 586.0455,49.6115 584.1121,48.9115 L584.1121,47.2448 C584.1121,42.6448 580.3788,38.9115 575.7788,38.9115" fill="#0A9EFD"/></g><g class="participant participant-tail" data-entity-uid="part3" data-qualified-name="RTN" data-source-line="12" id="part3-tail"><rect fill="none" height="40.6667" rx="2.5" ry="2.5" style="stroke:#0A9EFD;stroke-width:2;" width="42.6667" x="552.7788" y="321.8346"/><path d="M575.7788,332.168 C571.7455,332.168 568.2121,335.0346 567.4455,338.8346 C563.7788,338.8346 560.7788,341.8346 560.7788,345.5013 C560.7788,349.168 563.7788,352.168 567.4455,352.168 L582.4455,352.168 C585.2121,352.168 587.4455,349.9346 587.4455,347.168 C587.4455,345.0013 586.0455,342.868 584.1121,342.168 L584.1121,340.5013 C584.1121,335.9013 580.3788,332.168 575.7788,332.168" fill="#0A9EFD"/></g><g class="message" data-entity-1="part1" data-entity-2="part2" data-source-line="15" id="msg1"><polygon fill="#0A9EFD" points="311.03,97.1935,321.03,101.1935,311.03,105.1935,315.03,101.1935" style="stroke:#0A9EFD;stroke-width:1;stroke-linejoin:miter;stroke-miterlimit:10;"/><line style="stroke:#0A9EFD;stroke-width:2;" x1="41.3333" x2="317.03" y1="101.1935" y2="101.1935"/><text fill="#0A9EFD" font-family="Arial" font-size="13" lengthAdjust="spacing" textLength="205.9688" x="79.1973" y="96.4386">Create an instance of Agora Engine</text></g><path d="M10,116.1935 L190.8525,116.1935 L190.8525,123.1423 L180.8525,133.1423 L10,133.1423 L10,116.1935" fill="#EEEEEE" style="stroke:#0A9EFD;stroke-width:1.5;"/><rect fill="none" height="189.6411" style="stroke:#0A9EFD;stroke-width:2;" width="595.4455" x="10" y="116.1935"/><text fill="#000000" font-family="Arial" font-size="13" lengthAdjust="spacing" textLength="135.8525" x="25" y="129.3874">Process raw audio data</text><g class="message" data-entity-1="part1" data-entity-2="part2" data-source-line="18" id="msg2"><polygon fill="#0A9EFD" points="311.03,150.091,321.03,154.091,311.03,158.091,315.03,154.091" style="stroke:#0A9EFD;stroke-width:1;stroke-linejoin:miter;stroke-miterlimit:10;"/><line style="stroke:#0A9EFD;stroke-width:2;" x1="41.3333" x2="317.03" y1="154.091" y2="154.091"/><text fill="#0A9EFD" font-family="Arial" font-size="13" lengthAdjust="spacing" textLength="147.4116" x="108.4759" y="149.3361">Create a local audio track</text></g><g class="message" data-entity-1="part2" data-entity-2="part1" data-source-line="19" id="msg3"><polygon fill="#0A9EFD" points="52.3333,179.0397,42.3333,183.0397,52.3333,187.0397,48.3333,183.0397" style="stroke:#0A9EFD;stroke-width:1;stroke-linejoin:miter;stroke-miterlimit:10;"/><line style="stroke:#0A9EFD;stroke-width:2;" x1="46.3333" x2="322.03" y1="183.0397" y2="183.0397"/><text fill="#0A9EFD" font-family="Arial" font-size="13" lengthAdjust="spacing" textLength="98.2808" x="133.0413" y="178.2848">Local audio track</text></g><g class="message" data-entity-1="part1" data-entity-2="part1" data-source-line="20" id="msg4"><line style="stroke:#0A9EFD;stroke-width:2;" x1="41.3333" x2="83.3333" y1="226.9372" y2="226.9372"/><line style="stroke:#0A9EFD;stroke-width:2;" x1="83.3333" x2="83.3333" y1="226.9372" y2="239.9372"/><line style="stroke:#0A9EFD;stroke-width:2;" x1="42.3333" x2="83.3333" y1="239.9372" y2="239.9372"/><polygon fill="#0A9EFD" points="52.3333,235.9372,42.3333,239.9372,52.3333,243.9372,48.3333,239.9372" style="stroke:#0A9EFD;stroke-width:1;stroke-linejoin:miter;stroke-miterlimit:10;"/><text fill="#0A9EFD" font-family="Arial" font-size="13" lengthAdjust="spacing" textLength="218.207" x="48.3333" y="207.2336">Extract and process raw audio frames</text><text fill="#0A9EFD" font-family="Arial" font-size="13" lengthAdjust="spacing" textLength="122.8462" x="97.8197" y="222.1823">using Web Audio API</text></g><g class="message" data-entity-1="part1" data-entity-2="part2" data-source-line="21" id="msg5"><polygon fill="#0A9EFD" points="311.03,264.8859,321.03,268.8859,311.03,272.8859,315.03,268.8859" style="stroke:#0A9EFD;stroke-width:1;stroke-linejoin:miter;stroke-miterlimit:10;"/><line style="stroke:#0A9EFD;stroke-width:2;" x1="41.3333" x2="317.03" y1="268.8859" y2="268.8859"/><text fill="#0A9EFD" font-family="Arial" font-size="13" lengthAdjust="spacing" textLength="247.1587" x="58.6023" y="264.131">Publish the local audio track to the channel</text></g><g class="message" data-entity-1="part2" data-entity-2="part3" data-source-line="22" id="msg6"><polygon fill="#0A9EFD" points="562.1121,293.8346,572.1121,297.8346,562.1121,301.8346,566.1121,297.8346" style="stroke:#0A9EFD;stroke-width:1;stroke-linejoin:miter;stroke-miterlimit:10;"/><line style="stroke:#0A9EFD;stroke-width:2;" x1="323.03" x2="568.1121" y1="297.8346" y2="297.8346"/><text fill="#0A9EFD" font-family="Arial" font-size="13" lengthAdjust="spacing" textLength="192.2197" x="352.4612" y="293.0798">Send audio stream to other users</text></g><?plantuml-src TP7FIiGm4CRlUOgn1s_-ENWgfL1q3w98SKKlWapJR3TiTXBo1rSVoeVmoPniAw9rJu7vlldDDvCZJTAaNW4ErkDBs6WwrMbhXEZi3eh6kK8uz55BxP0Y55NGxwgyEA-huuYTKR4k00CqRIiKzS1TK-kZrLB1ykhcCC3Wc_9X1B3n3w39YRX-_t1NXUJgpu_gBB-7UTBOr8yuRlh1SJWugVE84YwzmiZh4cWA4OapsXMCinOqQ5923Duc1wstKeK07by1Kwyjz1ZnNnWOAz5ChkXHRWJhsSRk4cvdwWJPgujThaMEr8ERpLnvtAhmJ922fW6UL0VDNcZQwrzPsjGP7TOGrseU1wBT2tADHCfyf-ChbR3CTngz8V92ssosxFOya_ydtr5y0G00?></g></svg>