<svg xmlns="http://www.w3.org/2000/svg" xmlns:xlink="http://www.w3.org/1999/xlink" contentStyleType="text/css" data-diagram-type="SEQUENCE" height="609px" preserveAspectRatio="none" style="width:624px;height:609px;" version="1.1" viewBox="0 0 624 609" width="624px" zoomAndPan="magnify"><?plantuml 1.2026.4?><defs/><g><rect fill="none" height="607.0399" style="stroke:#0A9EFD;stroke-width:1;" width="622.2699" x="0" y="0"/><rect fill="#999999" fill-opacity="0.33333" height="596.0399" style="stroke:#0A9EFD;stroke-width:0.5;" width="50.6667" x="16" y="6"/><text fill="#0A9EFD" font-family="sans-serif" font-size="13" font-weight="700" lengthAdjust="spacing" textLength="25.27" x="28.6983" y="19.4951">App</text><rect fill="#999999" fill-opacity="0.33333" height="596.0399" style="stroke:#0A9EFD;stroke-width:0.5;" width="72.4536" x="251.0405" y="6"/><text fill="#0A9EFD" font-family="sans-serif" font-size="13" font-weight="700" lengthAdjust="spacing" textLength="66.4536" x="254.0405" y="19.4951">Video SDK</text><rect fill="#999999" fill-opacity="0.33333" height="596.0399" style="stroke:#0A9EFD;stroke-width:0.5;" width="99.3154" x="517.9544" y="6"/><text fill="#0A9EFD" font-family="sans-serif" font-size="13" font-weight="700" lengthAdjust="spacing" textLength="85.9473" x="520.9544" y="21.7217">Agora SDRTN</text><text fill="#0A9EFD" font-family="sans-serif" font-size="10" font-weight="700" lengthAdjust="spacing" textLength="7.3682" x="606.9017" y="16.3809">&#174;</text><rect fill="#0A9EFD" fill-opacity="0.06667" height="277.436" style="stroke:#0A9EFD;stroke-width:2;" width="588.9455" x="10" y="116.1935"/><rect fill="#0A9EFD" fill-opacity="0.06667" height="132.7437" style="stroke:#0A9EFD;stroke-width:2;" width="588.9455" x="10" y="407.6296"/><g class="participant-lifeline" data-entity-uid="part1" data-qualified-name="APP" data-source-line="4" id="part1-lifeline"><g><title>.size.40...tablet.</title><rect fill="#000000" fill-opacity="0.00000" height="487.1284" width="8" x="37.3333" y="70.2448"/><line style="stroke:#0A9EFD;stroke-width:0.5;stroke-dasharray:5,5;" x1="41" x2="41" y1="70.2448" y2="557.3732"/></g></g><g class="participant-lifeline" data-entity-uid="part2" data-qualified-name="SDK" data-source-line="8" id="part2-lifeline"><g><title>.size.40...layers.</title><rect fill="#000000" fill-opacity="0.00000" height="487.1284" width="8" x="283.2673" y="70.2448"/><line style="stroke:#0A9EFD;stroke-width:0.5;stroke-dasharray:5,5;" x1="286.934" x2="286.934" y1="70.2448" y2="557.3732"/></g></g><g class="participant-lifeline" data-entity-uid="part3" data-qualified-name="RTN" data-source-line="12" id="part3-lifeline"><g><title>.size.40...cloud.</title><rect fill="#000000" fill-opacity="0.00000" height="487.1284" width="8" x="563.6121" y="70.2448"/><line style="stroke:#0A9EFD;stroke-width:0.5;stroke-dasharray:5,5;" x1="567.2788" x2="567.2788" y1="70.2448" y2="557.3732"/></g></g><g class="participant participant-head" data-entity-uid="part1" data-qualified-name="APP" data-source-line="4" id="part1-head"><rect fill="none" height="40.6667" rx="2.5" ry="2.5" style="stroke:#0A9EFD;stroke-width:2;" width="42.6667" x="20" y="28.5781"/><path d="M29.1333,35.5781 C28.5333,35.5781 28,36.1115 28,36.7115 L28,61.0781 C28,61.6781 28.5333,62.2115 29.1333,62.2115 L50.1667,62.2115 C50.7667,62.2115 51.3,61.6781 51.3,61.0781 L51.3,36.7115 C51.3,36.1115 50.7667,35.5781 50.1667,35.5781 L29.1333,35.5781 M31.3333,38.9115 L48,38.9115 L48,55.5781 L31.3333,55.5781 L31.3333,38.9115 M39.6667,57.2448 C40.9333,57.2448 41.7667,58.6448 41.1333,59.7448 C40.5,60.8448 38.8667,60.8448 38.2,59.7448 C37.5667,58.6448 38.3667,57.2448 39.6667,57.2448" fill="#0A9EFD"/></g><g class="participant participant-tail" data-entity-uid="part1" data-qualified-name="APP" data-source-line="4" id="part1-tail"><rect fill="none" height="40.6667" rx="2.5" ry="2.5" style="stroke:#0A9EFD;stroke-width:2;" width="42.6667" x="20" y="556.3732"/><path d="M29.1333,563.3732 C28.5333,563.3732 28,563.9065 28,564.5065 L28,588.8732 C28,589.4732 28.5333,590.0065 29.1333,590.0065 L50.1667,590.0065 C50.7667,590.0065 51.3,589.4732 51.3,588.8732 L51.3,564.5065 C51.3,563.9065 50.7667,563.3732 50.1667,563.3732 L29.1333,563.3732 M31.3333,566.7065 L48,566.7065 L48,583.3732 L31.3333,583.3732 L31.3333,566.7065 M39.6667,585.0399 C40.9333,585.0399 41.7667,586.4399 41.1333,587.5399 C40.5,588.6399 38.8667,588.6399 38.2,587.5399 C37.5667,586.4399 38.3667,585.0399 39.6667,585.0399" fill="#0A9EFD"/></g><g class="participant participant-head" data-entity-uid="part2" data-qualified-name="SDK" data-source-line="8" id="part2-head"><rect fill="none" height="40.6667" rx="2.5" ry="2.5" style="stroke:#0A9EFD;stroke-width:2;" width="42.6667" x="265.934" y="28.5781"/><path d="M273.934,35.5781 L273.934,48.9115 L287.2673,48.9115 L287.2673,35.5781 L273.934,35.5781 M290.6007,42.2448 L290.6007,52.2448 L280.6007,52.2448 L280.6007,55.5781 L293.934,55.5781 L293.934,42.2448 L290.6007,42.2448 M297.2673,48.9115 L297.2673,58.9115 L287.2673,58.9115 L287.2673,62.2448 L300.6007,62.2448 L300.6007,48.9115 L297.2673,48.9115" fill="#0A9EFD"/></g><g class="participant participant-tail" data-entity-uid="part2" data-qualified-name="SDK" data-source-line="8" id="part2-tail"><rect fill="none" height="40.6667" rx="2.5" ry="2.5" style="stroke:#0A9EFD;stroke-width:2;" width="42.6667" x="265.934" y="556.3732"/><path d="M273.934,563.3732 L273.934,576.7065 L287.2673,576.7065 L287.2673,563.3732 L273.934,563.3732 M290.6007,570.0399 L290.6007,580.0399 L280.6007,580.0399 L280.6007,583.3732 L293.934,583.3732 L293.934,570.0399 L290.6007,570.0399 M297.2673,576.7065 L297.2673,586.7065 L287.2673,586.7065 L287.2673,590.0399 L300.6007,590.0399 L300.6007,576.7065 L297.2673,576.7065" fill="#0A9EFD"/></g><g class="participant participant-head" data-entity-uid="part3" data-qualified-name="RTN" data-source-line="12" id="part3-head"><rect fill="none" height="40.6667" rx="2.5" ry="2.5" style="stroke:#0A9EFD;stroke-width:2;" width="42.6667" x="546.2788" y="28.5781"/><path d="M569.2788,38.9115 C565.2455,38.9115 561.7121,41.7781 560.9455,45.5781 C557.2788,45.5781 554.2788,48.5781 554.2788,52.2448 C554.2788,55.9115 557.2788,58.9115 560.9455,58.9115 L575.9455,58.9115 C578.7121,58.9115 580.9455,56.6781 580.9455,53.9115 C580.9455,51.7448 579.5455,49.6115 577.6121,48.9115 L577.6121,47.2448 C577.6121,42.6448 573.8788,38.9115 569.2788,38.9115" fill="#0A9EFD"/></g><g class="participant participant-tail" data-entity-uid="part3" data-qualified-name="RTN" data-source-line="12" id="part3-tail"><rect fill="none" height="40.6667" rx="2.5" ry="2.5" style="stroke:#0A9EFD;stroke-width:2;" width="42.6667" x="546.2788" y="556.3732"/><path d="M569.2788,566.7065 C565.2455,566.7065 561.7121,569.5732 560.9455,573.3732 C557.2788,573.3732 554.2788,576.3732 554.2788,580.0399 C554.2788,583.7065 557.2788,586.7065 560.9455,586.7065 L575.9455,586.7065 C578.7121,586.7065 580.9455,584.4732 580.9455,581.7065 C580.9455,579.5399 579.5455,577.4065 577.6121,576.7065 L577.6121,575.0399 C577.6121,570.4399 573.8788,566.7065 569.2788,566.7065" fill="#0A9EFD"/></g><g class="message" data-entity-1="part1" data-entity-2="part2" data-source-line="15" id="msg1"><polygon fill="#0A9EFD" points="275.2673,97.1935,285.2673,101.1935,275.2673,105.1935,279.2673,101.1935" style="stroke:#0A9EFD;stroke-width:1;stroke-linejoin:miter;stroke-miterlimit:10;"/><line style="stroke:#0A9EFD;stroke-width:2;" x1="41.3333" x2="281.2673" y1="101.1935" y2="101.1935"/><text fill="#0A9EFD" font-family="Arial" font-size="13" lengthAdjust="spacing" textLength="205.9688" x="61.316" y="96.4386">Create an instance of Agora Engine</text></g><path d="M10,116.1935 L190.8525,116.1935 L190.8525,123.1423 L180.8525,133.1423 L10,133.1423 L10,116.1935" fill="#EEEEEE" style="stroke:#0A9EFD;stroke-width:1.5;"/><rect fill="none" height="277.436" style="stroke:#0A9EFD;stroke-width:2;" width="588.9455" x="10" y="116.1935"/><text fill="#000000" font-family="Arial" font-size="13" lengthAdjust="spacing" textLength="135.8525" x="25" y="129.3874">Process raw audio data</text><g class="message" data-entity-1="part1" data-entity-2="part2" data-source-line="18" id="msg2"><polygon fill="#0A9EFD" points="275.2673,150.091,285.2673,154.091,275.2673,158.091,279.2673,154.091" style="stroke:#0A9EFD;stroke-width:1;stroke-linejoin:miter;stroke-miterlimit:10;"/><line style="stroke:#0A9EFD;stroke-width:2;" x1="41.3333" x2="281.2673" y1="154.091" y2="154.091"/><text fill="#0A9EFD" font-family="Arial" font-size="13" lengthAdjust="spacing" textLength="159.7007" x="84.45" y="149.3361">Register the audio observer</text></g><g class="message" data-entity-1="part2" data-entity-2="part3" data-source-line="19" id="msg3"><polygon fill="#0A9EFD" points="555.6121,179.0397,565.6121,183.0397,555.6121,187.0397,559.6121,183.0397" style="stroke:#0A9EFD;stroke-width:1;stroke-linejoin:miter;stroke-miterlimit:10;"/><line style="stroke:#0A9EFD;stroke-width:2;" x1="287.2673" x2="561.6121" y1="183.0397" y2="183.0397"/><text fill="#0A9EFD" font-family="Arial" font-size="13" lengthAdjust="spacing" textLength="221.127" x="316.8763" y="178.2848">Request to register the audio observer</text></g><g class="message" data-entity-1="part1" data-entity-2="part2" data-source-line="20" id="msg4"><polygon fill="#0A9EFD" points="275.2673,207.9884,285.2673,211.9884,275.2673,215.9884,279.2673,211.9884" style="stroke:#0A9EFD;stroke-width:1;stroke-linejoin:miter;stroke-miterlimit:10;"/><line style="stroke:#0A9EFD;stroke-width:2;" x1="41.3333" x2="281.2673" y1="211.9884" y2="211.9884"/><text fill="#0A9EFD" font-family="Arial" font-size="13" lengthAdjust="spacing" textLength="94.6816" x="116.9595" y="207.2336">Join the channel</text></g><g class="message" data-entity-1="part2" data-entity-2="part3" data-source-line="21" id="msg5"><polygon fill="#0A9EFD" points="555.6121,236.9372,565.6121,240.9372,555.6121,244.9372,559.6121,240.9372" style="stroke:#0A9EFD;stroke-width:1;stroke-linejoin:miter;stroke-miterlimit:10;"/><line style="stroke:#0A9EFD;stroke-width:2;" x1="287.2673" x2="561.6121" y1="240.9372" y2="240.9372"/><text fill="#0A9EFD" font-family="Arial" font-size="13" lengthAdjust="spacing" textLength="135.8716" x="359.5039" y="236.1823">Request to join channel</text></g><g class="message" data-entity-1="part2" data-entity-2="part1" data-source-line="22" id="msg6"><polygon fill="#0A9EFD" points="52.3333,280.8346,42.3333,284.8346,52.3333,288.8346,48.3333,284.8346" style="stroke:#0A9EFD;stroke-width:1;stroke-linejoin:miter;stroke-miterlimit:10;"/><line style="stroke:#0A9EFD;stroke-width:2;stroke-dasharray:2,2;" x1="46.3333" x2="286.2673" y1="284.8346" y2="284.8346"/><text fill="#0A9EFD" font-family="Arial" font-size="13" lengthAdjust="spacing" textLength="169.7998" x="79.4004" y="265.131">Get raw audio data from SDK</text><text fill="#0A9EFD" font-family="Arial" font-size="13" lengthAdjust="spacing" textLength="156.0889" x="88.0618" y="280.0798">through registered callback</text></g><g class="message" data-entity-1="part1" data-entity-2="part1" data-source-line="23" id="msg7"><line style="stroke:#0A9EFD;stroke-width:2;" x1="41.3333" x2="83.3333" y1="328.7321" y2="328.7321"/><line style="stroke:#0A9EFD;stroke-width:2;" x1="83.3333" x2="83.3333" y1="328.7321" y2="341.7321"/><line style="stroke:#0A9EFD;stroke-width:2;" x1="42.3333" x2="83.3333" y1="341.7321" y2="341.7321"/><polygon fill="#0A9EFD" points="52.3333,337.7321,42.3333,341.7321,52.3333,345.7321,48.3333,341.7321" style="stroke:#0A9EFD;stroke-width:1;stroke-linejoin:miter;stroke-miterlimit:10;"/><text fill="#0A9EFD" font-family="Arial" font-size="13" lengthAdjust="spacing" textLength="215.3442" x="48.3333" y="309.0285">Process audio data for local playback</text><text fill="#0A9EFD" font-family="Arial" font-size="13" lengthAdjust="spacing" textLength="158.2598" x="78.6815" y="323.9772">or sending back to the SDK</text></g><g class="message" data-entity-1="part1" data-entity-2="part2" data-source-line="24" id="msg8"><polygon fill="#0A9EFD" points="275.2673,381.6296,285.2673,385.6296,275.2673,389.6296,279.2673,385.6296" style="stroke:#0A9EFD;stroke-width:1;stroke-linejoin:miter;stroke-miterlimit:10;"/><line style="stroke:#0A9EFD;stroke-width:2;" x1="41.3333" x2="281.2673" y1="385.6296" y2="385.6296"/><text fill="#0A9EFD" font-family="Arial" font-size="13" lengthAdjust="spacing" textLength="211.0405" x="58.7801" y="365.9259">Send the processed audio data back</text><text fill="#0A9EFD" font-family="Arial" font-size="13" lengthAdjust="spacing" textLength="177.7725" x="77.22" y="380.8747">through the registered callback</text></g><path d="M10,407.6296 L161.2534,407.6296 L161.2534,414.5783 L151.2534,424.5783 L10,424.5783 L10,407.6296" fill="#EEEEEE" style="stroke:#0A9EFD;stroke-width:1.5;"/><rect fill="none" height="132.7437" style="stroke:#0A9EFD;stroke-width:2;" width="588.9455" x="10" y="407.6296"/><text fill="#000000" font-family="Arial" font-size="13" lengthAdjust="spacing" textLength="106.2534" x="25" y="420.8234">Leave the channel</text><g class="message" data-entity-1="part1" data-entity-2="part2" data-source-line="28" id="msg9"><polygon fill="#0A9EFD" points="275.2673,441.527,285.2673,445.527,275.2673,449.527,279.2673,445.527" style="stroke:#0A9EFD;stroke-width:1;stroke-linejoin:miter;stroke-miterlimit:10;"/><line style="stroke:#0A9EFD;stroke-width:2;" x1="41.3333" x2="281.2673" y1="445.527" y2="445.527"/><text fill="#0A9EFD" font-family="Arial" font-size="13" lengthAdjust="spacing" textLength="171.2598" x="78.6705" y="440.7721">Unregister the audio observer</text></g><g class="message" data-entity-1="part1" data-entity-2="part2" data-source-line="29" id="msg10"><polygon fill="#0A9EFD" points="275.2673,470.4757,285.2673,474.4757,275.2673,478.4757,279.2673,474.4757" style="stroke:#0A9EFD;stroke-width:1;stroke-linejoin:miter;stroke-miterlimit:10;"/><line style="stroke:#0A9EFD;stroke-width:2;" x1="41.3333" x2="281.2673" y1="474.4757" y2="474.4757"/><text fill="#0A9EFD" font-family="Arial" font-size="13" lengthAdjust="spacing" textLength="106.2534" x="111.1736" y="469.7209">Leave the channel</text></g><g class="message" data-entity-1="part2" data-entity-2="part3" data-source-line="30" id="msg11"><polygon fill="#0A9EFD" points="555.6121,499.4245,565.6121,503.4245,555.6121,507.4245,559.6121,503.4245" style="stroke:#0A9EFD;stroke-width:1;stroke-linejoin:miter;stroke-miterlimit:10;"/><line style="stroke:#0A9EFD;stroke-width:2;" x1="287.2673" x2="561.6121" y1="503.4245" y2="503.4245"/><text fill="#0A9EFD" font-family="Arial" font-size="13" lengthAdjust="spacing" textLength="168.397" x="343.2413" y="498.6696">Request to leave the channel</text></g><g class="message" data-entity-1="part1" data-entity-2="part2" data-source-line="31" id="msg12"><polygon fill="#0A9EFD" points="275.2673,528.3732,285.2673,532.3732,275.2673,536.3732,279.2673,532.3732" style="stroke:#0A9EFD;stroke-width:1;stroke-linejoin:miter;stroke-miterlimit:10;"/><line style="stroke:#0A9EFD;stroke-width:2;" x1="41.3333" x2="281.2673" y1="532.3732" y2="532.3732"/><text fill="#0A9EFD" font-family="Arial" font-size="13" lengthAdjust="spacing" textLength="109.1226" x="109.7391" y="527.6183">Destroy the engine</text></g><?plantuml-src ZPB1JiCm38RlVGhJ0xS11qvJDMbY20aGcZRWX8JSrkl2igGawM0y50_1as6lw-W6cpX5idz__ctdI9bCLpa15jRXivyfSwAgkOwYrBv3t2_BE2hH1PMf4as0EF7gWxhdPxtaE62gAVHYG0_zuJ0YamDNhKiVLKuMneER_G2DItA-1h1m1z0NHnmVtTyblYfxNv_9gRpxUPcsLLxZkEW7n-QWqvCMNRXmX877DQ2C3sWo0Zk1kjUbAPIXA2gShKeOEfkHz-3m3R3AbOKS0sx1HbGe7yX1cD9QOrDFRa4kOe7es8ZeNYlo0O85Tw2aZRwsogmqsHID8RsFzoAwHYE0fDEf2LSKThp3nDcv99y4pKCMquqVoY53hLFCPeqFVhgRBRGfre6sh8QIBoWLpEEOvuKhKu14n9gubxEsnnhBKIHHrbnksoAlMOqtqVtbZndDaMu95xIrftQt1_FVTV_cxDctFjXmm2fdbwiyrRz9p7u3?></g></svg>