<?xml version="1.0" encoding="us-ascii" standalone="no"?><svg xmlns="http://www.w3.org/2000/svg" xmlns:xlink="http://www.w3.org/1999/xlink" contentStyleType="text/css" height="877px" preserveAspectRatio="none" style="width:536px;height:877px;" version="1.1" viewBox="0 0 536 877" width="536px" zoomAndPan="magnify"><defs/><g><rect fill="none" height="875.1206" style="stroke:#0A9EFD;stroke-width:1.0;" width="534.5" x="0" y="0"/><rect fill="#999999" fill-opacity="0.33333" height="865.1206" style="stroke:#0A9EFD;stroke-width:0.5;" width="90" x="120.5" y="6"/><text fill="#0A9EFD" font-family="sans-serif" font-size="13" font-weight="bold" lengthAdjust="spacing" textLength="57" x="137" y="19.4951">Your app</text><rect fill="#999999" fill-opacity="0.33333" height="865.1206" style="stroke:#0A9EFD;stroke-width:0.5;" width="74" x="450.5" y="6"/><text fill="#0A9EFD" font-family="sans-serif" font-size="13" font-weight="bold" lengthAdjust="spacing" textLength="38" x="468.5" y="19.4951">Agora</text><rect fill="#0A9EFD" fill-opacity="0.06667" height="100.8462" style="stroke:#0A9EFD;stroke-width:2.0;" width="249" x="114.5" y="215.9448"/><rect fill="#0A9EFD" fill-opacity="0.06667" height="203.6411" style="stroke:#0A9EFD;stroke-width:2.0;" width="520.5" x="10" y="330.791"/><rect fill="#0A9EFD" fill-opacity="0.06667" height="74.8462" style="stroke:#0A9EFD;stroke-width:2.0;" width="416" x="114.5" y="548.4321"/><rect fill="#0A9EFD" fill-opacity="0.06667" height="132.7437" style="stroke:#0A9EFD;stroke-width:2.0;" width="520.5" x="10" y="637.2783"/><line style="stroke:#0A9EFD;stroke-width:0.5;stroke-dasharray:5.0,5.0;" x1="37" x2="37" y1="86.0986" y2="787.022"/><line style="stroke:#0A9EFD;stroke-width:0.5;stroke-dasharray:5.0,5.0;" x1="165.5" x2="165.5" y1="86.0986" y2="787.022"/><line style="stroke:#0A9EFD;stroke-width:0.5;stroke-dasharray:5.0,5.0;" x1="487.5" x2="487.5" y1="86.0986" y2="787.022"/><text fill="#0A9EFD" font-family="Arial" font-size="14" lengthAdjust="spacing" textLength="29" x="20" y="83.1318">User</text><ellipse cx="37.5" cy="16" fill="none" rx="8" ry="8" style="stroke:#0A9EFD;stroke-width:3.0;"/><path d="M37.5,24 L37.5,51 M24.5,32 L50.5,32 M37.5,51 L24.5,66 M37.5,51 L50.5,66 " fill="none" style="stroke:#0A9EFD;stroke-width:3.0;"/><text fill="#0A9EFD" font-family="Arial" font-size="14" lengthAdjust="spacing" textLength="29" x="20" y="799.1538">User</text><ellipse cx="37.5" cy="813.1206" fill="none" rx="8" ry="8" style="stroke:#0A9EFD;stroke-width:3.0;"/><path d="M37.5,821.1206 L37.5,848.1206 M24.5,829.1206 L50.5,829.1206 M37.5,848.1206 L24.5,863.1206 M37.5,848.1206 L50.5,863.1206 " fill="none" style="stroke:#0A9EFD;stroke-width:3.0;"/><rect fill="none" height="30.0986" rx="2.5" ry="2.5" style="stroke:#0A9EFD;stroke-width:2.0;" width="82" x="124.5" y="55"/><text fill="#0A9EFD" font-family="Arial" font-size="14" lengthAdjust="spacing" textLength="68" x="131.5" y="75.1318">Video SDK</text><rect fill="none" height="30.0986" rx="2.5" ry="2.5" style="stroke:#0A9EFD;stroke-width:2.0;" width="82" x="124.5" y="786.022"/><text fill="#0A9EFD" font-family="Arial" font-size="14" lengthAdjust="spacing" textLength="68" x="131.5" y="806.1538">Video SDK</text><rect fill="none" height="30.0986" rx="2.5" ry="2.5" style="stroke:#0A9EFD;stroke-width:2.0;" width="66" x="454.5" y="55"/><text fill="#0A9EFD" font-family="Arial" font-size="14" lengthAdjust="spacing" textLength="52" x="461.5" y="75.1318">SD-RTN</text><rect fill="none" height="30.0986" rx="2.5" ry="2.5" style="stroke:#0A9EFD;stroke-width:2.0;" width="66" x="454.5" y="786.022"/><text fill="#0A9EFD" font-family="Arial" font-size="14" lengthAdjust="spacing" textLength="52" x="461.5" y="806.1538">SD-RTN</text><polygon fill="#0A9EFD" points="153.5,113.0474,163.5,117.0474,153.5,121.0474,157.5,117.0474" style="stroke:#0A9EFD;stroke-width:1.0;"/><line style="stroke:#0A9EFD;stroke-width:2.0;" x1="37.5" x2="159.5" y1="117.0474" y2="117.0474"/><text fill="#0A9EFD" font-family="Arial" font-size="13" lengthAdjust="spacing" textLength="58" x="72.5" y="112.2925">Open App</text><line style="stroke:#0A9EFD;stroke-width:2.0;" x1="165.5" x2="207.5" y1="145.9961" y2="145.9961"/><line style="stroke:#0A9EFD;stroke-width:2.0;" x1="207.5" x2="207.5" y1="145.9961" y2="158.9961"/><line style="stroke:#0A9EFD;stroke-width:2.0;" x1="166.5" x2="207.5" y1="158.9961" y2="158.9961"/><polygon fill="#0A9EFD" points="176.5,154.9961,166.5,158.9961,176.5,162.9961,172.5,158.9961" style="stroke:#0A9EFD;stroke-width:1.0;"/><text fill="#0A9EFD" font-family="Arial" font-size="13" lengthAdjust="spacing" textLength="308" x="172.5" y="141.2412">Create an instance of Agora Engine using Video SDK</text><line style="stroke:#0A9EFD;stroke-width:2.0;" x1="165.5" x2="207.5" y1="187.9448" y2="187.9448"/><line style="stroke:#0A9EFD;stroke-width:2.0;" x1="207.5" x2="207.5" y1="187.9448" y2="200.9448"/><line style="stroke:#0A9EFD;stroke-width:2.0;" x1="166.5" x2="207.5" y1="200.9448" y2="200.9448"/><polygon fill="#0A9EFD" points="176.5,196.9448,166.5,200.9448,176.5,204.9448,172.5,200.9448" style="stroke:#0A9EFD;stroke-width:1.0;"/><text fill="#0A9EFD" font-family="Arial" font-size="13" lengthAdjust="spacing" textLength="229" x="172.5" y="183.1899">Enable audio and video in Agora Engine</text><path d="M114.5,215.9448 L313.5,215.9448 L313.5,222.8936 L303.5,232.8936 L114.5,232.8936 L114.5,215.9448 " fill="#EEEEEE" style="stroke:#0A9EFD;stroke-width:1.5;"/><rect fill="none" height="100.8462" style="stroke:#0A9EFD;stroke-width:2.0;" width="249" x="114.5" y="215.9448"/><text fill="#000000" font-family="Arial" font-size="13" lengthAdjust="spacing" textLength="154" x="129.5" y="229.1387">Setup raw data processing</text><line style="stroke:#0A9EFD;stroke-width:2.0;" x1="165.5" x2="207.5" y1="253.8423" y2="253.8423"/><line style="stroke:#0A9EFD;stroke-width:2.0;" x1="207.5" x2="207.5" y1="253.8423" y2="266.8423"/><line style="stroke:#0A9EFD;stroke-width:2.0;" x1="166.5" x2="207.5" y1="266.8423" y2="266.8423"/><polygon fill="#0A9EFD" points="176.5,262.8423,166.5,266.8423,176.5,270.8423,172.5,266.8423" style="stroke:#0A9EFD;stroke-width:1.0;"/><text fill="#0A9EFD" font-family="Arial" font-size="13" lengthAdjust="spacing" textLength="179" x="172.5" y="249.0874">Setup the audio frame observer</text><line style="stroke:#0A9EFD;stroke-width:2.0;" x1="165.5" x2="207.5" y1="295.791" y2="295.791"/><line style="stroke:#0A9EFD;stroke-width:2.0;" x1="207.5" x2="207.5" y1="295.791" y2="308.791"/><line style="stroke:#0A9EFD;stroke-width:2.0;" x1="166.5" x2="207.5" y1="308.791" y2="308.791"/><polygon fill="#0A9EFD" points="176.5,304.791,166.5,308.791,176.5,312.791,172.5,308.791" style="stroke:#0A9EFD;stroke-width:1.0;"/><text fill="#0A9EFD" font-family="Arial" font-size="13" lengthAdjust="spacing" textLength="177" x="172.5" y="291.0361">Setup the video frame observer</text><path d="M10,330.791 L78,330.791 L78,337.7397 L68,347.7397 L10,347.7397 L10,330.791 " fill="#EEEEEE" style="stroke:#0A9EFD;stroke-width:1.5;"/><rect fill="none" height="203.6411" style="stroke:#0A9EFD;stroke-width:2.0;" width="520.5" x="10" y="330.791"/><text fill="#000000" font-family="Arial" font-size="13" lengthAdjust="spacing" textLength="23" x="25" y="343.9849">Join</text><polygon fill="#0A9EFD" points="153.5,364.6885,163.5,368.6885,153.5,372.6885,157.5,368.6885" style="stroke:#0A9EFD;stroke-width:1.0;"/><line style="stroke:#0A9EFD;stroke-width:2.0;" x1="37.5" x2="159.5" y1="368.6885" y2="368.6885"/><text fill="#0A9EFD" font-family="Arial" font-size="13" lengthAdjust="spacing" textLength="83" x="60" y="363.9336">Join a channel</text><polygon fill="#0A9EFD" points="475.5,393.6372,485.5,397.6372,475.5,401.6372,479.5,397.6372" style="stroke:#0A9EFD;stroke-width:1.0;"/><line style="stroke:#0A9EFD;stroke-width:2.0;" x1="165.5" x2="481.5" y1="397.6372" y2="397.6372"/><text fill="#0A9EFD" font-family="Arial" font-size="13" lengthAdjust="spacing" textLength="191" x="231" y="392.8823">Register the video frame observer</text><polygon fill="#0A9EFD" points="475.5,422.5859,485.5,426.5859,475.5,430.5859,479.5,426.5859" style="stroke:#0A9EFD;stroke-width:1.0;"/><line style="stroke:#0A9EFD;stroke-width:2.0;" x1="165.5" x2="481.5" y1="426.5859" y2="426.5859"/><text fill="#0A9EFD" font-family="Arial" font-size="13" lengthAdjust="spacing" textLength="193" x="230" y="421.8311">Register the audio frame observer</text><polygon fill="#0A9EFD" points="475.5,451.5347,485.5,455.5347,475.5,459.5347,479.5,455.5347" style="stroke:#0A9EFD;stroke-width:1.0;"/><line style="stroke:#0A9EFD;stroke-width:2.0;" x1="165.5" x2="481.5" y1="455.5347" y2="455.5347"/><text fill="#0A9EFD" font-family="Arial" font-size="13" lengthAdjust="spacing" textLength="160" x="246.5" y="450.7798">Set audio frame parameters</text><line style="stroke:#0A9EFD;stroke-width:2.0;" x1="165.5" x2="207.5" y1="484.4834" y2="484.4834"/><line style="stroke:#0A9EFD;stroke-width:2.0;" x1="207.5" x2="207.5" y1="484.4834" y2="497.4834"/><line style="stroke:#0A9EFD;stroke-width:2.0;" x1="166.5" x2="207.5" y1="497.4834" y2="497.4834"/><polygon fill="#0A9EFD" points="176.5,493.4834,166.5,497.4834,176.5,501.4834,172.5,497.4834" style="stroke:#0A9EFD;stroke-width:1.0;"/><text fill="#0A9EFD" font-family="Arial" font-size="13" lengthAdjust="spacing" textLength="266" x="172.5" y="479.7285">Retrieve authentication token to join a channel</text><polygon fill="#0A9EFD" points="475.5,522.4321,485.5,526.4321,475.5,530.4321,479.5,526.4321" style="stroke:#0A9EFD;stroke-width:1.0;"/><line style="stroke:#0A9EFD;stroke-width:2.0;" x1="165.5" x2="481.5" y1="526.4321" y2="526.4321"/><text fill="#0A9EFD" font-family="Arial" font-size="13" lengthAdjust="spacing" textLength="94" x="279.5" y="521.6772">Join the channel</text><path d="M114.5,548.4321 L353.5,548.4321 L353.5,555.3809 L343.5,565.3809 L114.5,565.3809 L114.5,548.4321 " fill="#EEEEEE" style="stroke:#0A9EFD;stroke-width:1.5;"/><rect fill="none" height="74.8462" style="stroke:#0A9EFD;stroke-width:2.0;" width="416" x="114.5" y="548.4321"/><text fill="#000000" font-family="Arial" font-size="13" lengthAdjust="spacing" textLength="194" x="129.5" y="561.626">Process raw audio and video data</text><polygon fill="#0A9EFD" points="176.5,582.3296,166.5,586.3296,176.5,590.3296,172.5,586.3296" style="stroke:#0A9EFD;stroke-width:1.0;"/><line style="stroke:#0A9EFD;stroke-width:2.0;" x1="170.5" x2="486.5" y1="586.3296" y2="586.3296"/><text fill="#0A9EFD" font-family="Arial" font-size="13" lengthAdjust="spacing" textLength="191" x="231" y="581.5747">Get the raw data in the callbacks</text><polygon fill="#0A9EFD" points="475.5,611.2783,485.5,615.2783,475.5,619.2783,479.5,615.2783" style="stroke:#0A9EFD;stroke-width:1.0;"/><line style="stroke:#0A9EFD;stroke-width:2.0;" x1="165.5" x2="481.5" y1="615.2783" y2="615.2783"/><text fill="#0A9EFD" font-family="Arial" font-size="13" lengthAdjust="spacing" textLength="285" x="184" y="610.5234">Send the processed data back with the callbacks</text><path d="M10,637.2783 L88,637.2783 L88,644.2271 L78,654.2271 L10,654.2271 L10,637.2783 " fill="#EEEEEE" style="stroke:#0A9EFD;stroke-width:1.5;"/><rect fill="none" height="132.7437" style="stroke:#0A9EFD;stroke-width:2.0;" width="520.5" x="10" y="637.2783"/><text fill="#000000" font-family="Arial" font-size="13" lengthAdjust="spacing" textLength="33" x="25" y="650.4722">Leave</text><polygon fill="#0A9EFD" points="153.5,671.1758,163.5,675.1758,153.5,679.1758,157.5,675.1758" style="stroke:#0A9EFD;stroke-width:1.0;"/><line style="stroke:#0A9EFD;stroke-width:2.0;" x1="37.5" x2="159.5" y1="675.1758" y2="675.1758"/><text fill="#0A9EFD" font-family="Arial" font-size="13" lengthAdjust="spacing" textLength="104" x="49.5" y="670.4209">Leave the channel</text><polygon fill="#0A9EFD" points="475.5,700.1245,485.5,704.1245,475.5,708.1245,479.5,704.1245" style="stroke:#0A9EFD;stroke-width:1.0;"/><line style="stroke:#0A9EFD;stroke-width:2.0;" x1="165.5" x2="481.5" y1="704.1245" y2="704.1245"/><text fill="#0A9EFD" font-family="Arial" font-size="13" lengthAdjust="spacing" textLength="198" x="227.5" y="699.3696">Unegister the video frame observer</text><polygon fill="#0A9EFD" points="475.5,729.0732,485.5,733.0732,475.5,737.0732,479.5,733.0732" style="stroke:#0A9EFD;stroke-width:1.0;"/><line style="stroke:#0A9EFD;stroke-width:2.0;" x1="165.5" x2="481.5" y1="733.0732" y2="733.0732"/><text fill="#0A9EFD" font-family="Arial" font-size="13" lengthAdjust="spacing" textLength="200" x="226.5" y="728.3184">Unegister the audio frame observer</text><polygon fill="#0A9EFD" points="475.5,758.022,485.5,762.022,475.5,766.022,479.5,762.022" style="stroke:#0A9EFD;stroke-width:1.0;"/><line style="stroke:#0A9EFD;stroke-width:2.0;" x1="165.5" x2="481.5" y1="762.022" y2="762.022"/><text fill="#0A9EFD" font-family="Arial" font-size="13" lengthAdjust="spacing" textLength="104" x="274.5" y="757.2671">Leave the channel</text><!--SRC=[bP7DJiCm48JlVeebz_805KAgQ8KA2AgM8d52ssIRcgPhotPQ7fzrqZy7AiGbKPoPRySxLvhpgYu8i3GEF_nQyxMkDvLIc0VZ89jxSXcWX_bigjJ2V47sRce7Q6scBBgWSssH0sHlkY03i-5Z8nzC9egu077iROCueUEP3NlJr-UzONmoo33etKP87ruiCGoiLV9rFBnpX45ICsZs0JadC4jeHi28Iyq4jTTSmZ5LOXynBYgnruKs0YbWsyWq9mYbIcTg2pCAydIuWm83WdKc9n_f2RDLXTK1ktIuaLGBMU2M75pGjeExMbd4OVY3qPpi8nu0Ghv2PgfEs74VfbHg7mHmYNnP_LlcH2sH4v7qA2-n- -HcKmfEqpO21SjIDGPj689PKtp2v-NupSrYcFtFP0-JTkjD3TtUOYqDwQRNakubR0GTEpk0iQeMcAzzvsf2Yh_tpLBHcg8ITZgiEjwpL4-4MqhgQKxERv6CclE_AahbVtRqStQC-Wq0]--></g></svg>