<svg xmlns="http://www.w3.org/2000/svg" xmlns:xlink="http://www.w3.org/1999/xlink" contentStyleType="text/css" data-diagram-type="SEQUENCE" height="763px" preserveAspectRatio="none" style="width:584px;height:763px;" version="1.1" viewBox="0 0 584 763" width="584px" zoomAndPan="magnify"><?plantuml 1.2026.4?><defs/><g><rect fill="none" height="761.2744" style="stroke:#0A9EFD;stroke-width:1;" width="582.8416" x="0" y="0"/><rect fill="#999999" fill-opacity="0.33333" height="750.2744" style="stroke:#0A9EFD;stroke-width:0.5;" width="90.4824" x="132.8716" y="6"/><text fill="#0A9EFD" font-family="sans-serif" font-size="13" font-weight="700" lengthAdjust="spacing" textLength="56.3354" x="149.9451" y="19.4951">Your app</text><rect fill="#999999" fill-opacity="0.33333" height="750.2744" style="stroke:#0A9EFD;stroke-width:0.5;" width="78.3257" x="484.5159" y="6"/><text fill="#0A9EFD" font-family="sans-serif" font-size="13" font-weight="700" lengthAdjust="spacing" textLength="37.5591" x="504.8992" y="19.4951">Agora</text><rect fill="#0A9EFD" fill-opacity="0.06667" height="116.7949" style="stroke:#0A9EFD;stroke-width:2;" width="558.8416" x="10" y="215.9448"/><rect fill="#0A9EFD" fill-opacity="0.06667" height="103.7949" style="stroke:#0A9EFD;stroke-width:2;" width="441.97" x="126.8716" y="346.7397"/><rect fill="#0A9EFD" fill-opacity="0.06667" height="132.7437" style="stroke:#0A9EFD;stroke-width:2;" width="558.8416" x="10" y="464.5347"/><g class="participant-lifeline" data-entity-uid="part1" data-qualified-name="USR" data-source-line="3" id="part1-lifeline"><g><title>User</title><rect fill="#000000" fill-opacity="0.00000" height="586.0771" width="8" x="33.7793" y="86.0986"/><line style="stroke:#0A9EFD;stroke-width:0.5;stroke-dasharray:5,5;" x1="37" x2="37" y1="86.0986" y2="672.1758"/></g></g><g class="participant-lifeline" data-entity-uid="part2" data-qualified-name="APP" data-source-line="6" id="part2-lifeline"><g><title>Video SDK</title><rect fill="#000000" fill-opacity="0.00000" height="586.0771" width="8" x="174.1128" y="86.0986"/><line style="stroke:#0A9EFD;stroke-width:0.5;stroke-dasharray:5,5;" x1="177.8716" x2="177.8716" y1="86.0986" y2="672.1758"/></g></g><g class="participant-lifeline" data-entity-uid="part3" data-qualified-name="API" data-source-line="10" id="part3-lifeline"><g><title>SDRTN.sup....sup.</title><rect fill="#000000" fill-opacity="0.00000" height="586.0771" width="8" x="519.6787" y="86.0986"/><line style="stroke:#0A9EFD;stroke-width:0.5;stroke-dasharray:5,5;" x1="523.5159" x2="523.5159" y1="86.0986" y2="672.1758"/></g></g><g class="participant participant-head" data-entity-uid="part1" data-qualified-name="USR" data-source-line="3" id="part1-head"><text fill="#0A9EFD" font-family="Arial" font-size="14" lengthAdjust="spacing" textLength="29.5586" x="20" y="83.1318">User</text><ellipse cx="37.7793" cy="16" fill="none" rx="8" ry="8" style="stroke:#0A9EFD;stroke-width:3;"/><path d="M37.7793,24 L37.7793,51 M24.7793,32 L50.7793,32 M37.7793,51 L24.7793,66 M37.7793,51 L50.7793,66" fill="none" style="stroke:#0A9EFD;stroke-width:3;"/></g><g class="participant participant-tail" data-entity-uid="part1" data-qualified-name="USR" data-source-line="3" id="part1-tail"><text fill="#0A9EFD" font-family="Arial" font-size="14" lengthAdjust="spacing" textLength="29.5586" x="20" y="684.3076">User</text><ellipse cx="37.7793" cy="698.2744" fill="none" rx="8" ry="8" style="stroke:#0A9EFD;stroke-width:3;"/><path d="M37.7793,706.2744 L37.7793,733.2744 M24.7793,714.2744 L50.7793,714.2744 M37.7793,733.2744 L24.7793,748.2744 M37.7793,733.2744 L50.7793,748.2744" fill="none" style="stroke:#0A9EFD;stroke-width:3;"/></g><g class="participant participant-head" data-entity-uid="part2" data-qualified-name="APP" data-source-line="6" id="part2-head"><rect fill="none" height="30.0986" rx="2.5" ry="2.5" style="stroke:#0A9EFD;stroke-width:2;" width="82.4824" x="136.8716" y="55"/><text fill="#0A9EFD" font-family="Arial" font-size="14" lengthAdjust="spacing" textLength="68.4824" x="143.8716" y="75.1318">Video SDK</text></g><g class="participant participant-tail" data-entity-uid="part2" data-qualified-name="APP" data-source-line="6" id="part2-tail"><rect fill="none" height="30.0986" rx="2.5" ry="2.5" style="stroke:#0A9EFD;stroke-width:2;" width="82.4824" x="136.8716" y="671.1758"/><text fill="#0A9EFD" font-family="Arial" font-size="14" lengthAdjust="spacing" textLength="68.4824" x="143.8716" y="691.3076">Video SDK</text></g><g class="participant participant-head" data-entity-uid="part3" data-qualified-name="API" data-source-line="10" id="part3-head"><rect fill="none" height="32.6489" rx="2.5" ry="2.5" style="stroke:#0A9EFD;stroke-width:2;" width="70.3257" x="488.5159" y="52.4497"/><text fill="#0A9EFD" font-family="Arial" font-size="14" lengthAdjust="spacing" textLength="48.2207" x="495.5159" y="75.1318">SDRTN</text><text fill="#0A9EFD" font-family="Arial" font-size="11" lengthAdjust="spacing" textLength="8.105" x="543.7366" y="69.7676">&#174;</text></g><g class="participant participant-tail" data-entity-uid="part3" data-qualified-name="API" data-source-line="10" id="part3-tail"><rect fill="none" height="32.6489" rx="2.5" ry="2.5" style="stroke:#0A9EFD;stroke-width:2;" width="70.3257" x="488.5159" y="671.1758"/><text fill="#0A9EFD" font-family="Arial" font-size="14" lengthAdjust="spacing" textLength="48.2207" x="495.5159" y="693.8579">SDRTN</text><text fill="#0A9EFD" font-family="Arial" font-size="11" lengthAdjust="spacing" textLength="8.105" x="543.7366" y="688.4937">&#174;</text></g><g class="message" data-entity-1="part1" data-entity-2="part2" data-source-line="13" id="msg1"><polygon fill="#0A9EFD" points="166.1128,113.0474,176.1128,117.0474,166.1128,121.0474,170.1128,117.0474" style="stroke:#0A9EFD;stroke-width:1;stroke-linejoin:miter;stroke-miterlimit:10;"/><line style="stroke:#0A9EFD;stroke-width:2;" x1="37.7793" x2="172.1128" y1="117.0474" y2="117.0474"/><text fill="#0A9EFD" font-family="Arial" font-size="13" lengthAdjust="spacing" textLength="58.5444" x="78.6738" y="112.2925">Open App</text></g><g class="message" data-entity-1="part2" data-entity-2="part2" data-source-line="14" id="msg2"><line style="stroke:#0A9EFD;stroke-width:2;" x1="178.1128" x2="220.1128" y1="145.9961" y2="145.9961"/><line style="stroke:#0A9EFD;stroke-width:2;" x1="220.1128" x2="220.1128" y1="145.9961" y2="158.9961"/><line style="stroke:#0A9EFD;stroke-width:2;" x1="179.1128" x2="220.1128" y1="158.9961" y2="158.9961"/><polygon fill="#0A9EFD" points="189.1128,154.9961,179.1128,158.9961,189.1128,162.9961,185.1128,158.9961" style="stroke:#0A9EFD;stroke-width:1;stroke-linejoin:miter;stroke-miterlimit:10;"/><text fill="#0A9EFD" font-family="Arial" font-size="13" lengthAdjust="spacing" textLength="297.0132" x="185.1128" y="141.2412">Use Video SDK to create an Agora Engine instance</text></g><g class="message" data-entity-1="part2" data-entity-2="part2" data-source-line="15" id="msg3"><line style="stroke:#0A9EFD;stroke-width:2;" x1="178.1128" x2="220.1128" y1="187.9448" y2="187.9448"/><line style="stroke:#0A9EFD;stroke-width:2;" x1="220.1128" x2="220.1128" y1="187.9448" y2="200.9448"/><line style="stroke:#0A9EFD;stroke-width:2;" x1="179.1128" x2="220.1128" y1="200.9448" y2="200.9448"/><polygon fill="#0A9EFD" points="189.1128,196.9448,179.1128,200.9448,189.1128,204.9448,185.1128,200.9448" style="stroke:#0A9EFD;stroke-width:1;stroke-linejoin:miter;stroke-miterlimit:10;"/><text fill="#0A9EFD" font-family="Arial" font-size="13" lengthAdjust="spacing" textLength="213.9541" x="185.1128" y="183.1899">Enable audio and video in the engine</text></g><path d="M10,215.9448 L78.8481,215.9448 L78.8481,222.8936 L68.8481,232.8936 L10,232.8936 L10,215.9448" fill="#EEEEEE" style="stroke:#0A9EFD;stroke-width:1.5;"/><rect fill="none" height="116.7949" style="stroke:#0A9EFD;stroke-width:2;" width="558.8416" x="10" y="215.9448"/><text fill="#000000" font-family="Arial" font-size="13" lengthAdjust="spacing" textLength="23.8481" x="25" y="229.1387">Join</text><g class="message" data-entity-1="part1" data-entity-2="part2" data-source-line="18" id="msg4"><polygon fill="#0A9EFD" points="166.1128,249.8423,176.1128,253.8423,166.1128,257.8423,170.1128,253.8423" style="stroke:#0A9EFD;stroke-width:1;stroke-linejoin:miter;stroke-miterlimit:10;"/><line style="stroke:#0A9EFD;stroke-width:2;" x1="37.7793" x2="172.1128" y1="253.8423" y2="253.8423"/><text fill="#0A9EFD" font-family="Arial" font-size="13" lengthAdjust="spacing" textLength="83.8398" x="66.0261" y="249.0874">Join a channel</text></g><g class="message" data-entity-1="part2" data-entity-2="part2" data-source-line="19" id="msg5"><line style="stroke:#0A9EFD;stroke-width:2;" x1="178.1128" x2="220.1128" y1="282.791" y2="282.791"/><line style="stroke:#0A9EFD;stroke-width:2;" x1="220.1128" x2="220.1128" y1="282.791" y2="295.791"/><line style="stroke:#0A9EFD;stroke-width:2;" x1="179.1128" x2="220.1128" y1="295.791" y2="295.791"/><polygon fill="#0A9EFD" points="189.1128,291.791,179.1128,295.791,189.1128,299.791,185.1128,295.791" style="stroke:#0A9EFD;stroke-width:1;stroke-linejoin:miter;stroke-miterlimit:10;"/><text fill="#0A9EFD" font-family="Arial" font-size="13" lengthAdjust="spacing" textLength="266.6777" x="185.1128" y="278.0361">Retrieve authentication token to join a channel</text></g><g class="message" data-entity-1="part2" data-entity-2="part3" data-source-line="20" id="msg6"><polygon fill="#0A9EFD" points="511.6787,320.7397,521.6787,324.7397,511.6787,328.7397,515.6787,324.7397" style="stroke:#0A9EFD;stroke-width:1;stroke-linejoin:miter;stroke-miterlimit:10;"/><line style="stroke:#0A9EFD;stroke-width:2;" x1="178.1128" x2="517.6787" y1="324.7397" y2="324.7397"/><text fill="#0A9EFD" font-family="Arial" font-size="13" lengthAdjust="spacing" textLength="94.6816" x="303.5549" y="319.9849">Join the channel</text></g><path d="M126.8716,346.7397 L301.2305,346.7397 L301.2305,353.6885 L291.2305,363.6885 L126.8716,363.6885 L126.8716,346.7397" fill="#EEEEEE" style="stroke:#0A9EFD;stroke-width:1.5;"/><rect fill="none" height="103.7949" style="stroke:#0A9EFD;stroke-width:2;" width="441.97" x="126.8716" y="346.7397"/><text fill="#000000" font-family="Arial" font-size="13" lengthAdjust="spacing" textLength="129.3589" x="141.8716" y="359.9336">Publish and Subscribe</text><g class="message" data-entity-1="part2" data-entity-2="part3" data-source-line="24" id="msg7"><polygon fill="#0A9EFD" points="511.6787,380.6372,521.6787,384.6372,511.6787,388.6372,515.6787,384.6372" style="stroke:#0A9EFD;stroke-width:1;stroke-linejoin:miter;stroke-miterlimit:10;"/><line style="stroke:#0A9EFD;stroke-width:2;" x1="178.1128" x2="517.6787" y1="384.6372" y2="384.6372"/><text fill="#0A9EFD" font-family="Arial" font-size="13" lengthAdjust="spacing" textLength="321.5659" x="190.1128" y="379.8823">Publish camera and microphone streams to the channel</text></g><g class="message" data-entity-1="part3" data-entity-2="part2" data-source-line="25" id="msg8"><polygon fill="#0A9EFD" points="189.1128,409.5859,179.1128,413.5859,189.1128,417.5859,185.1128,413.5859" style="stroke:#0A9EFD;stroke-width:1;stroke-linejoin:miter;stroke-miterlimit:10;"/><line style="stroke:#0A9EFD;stroke-width:2;" x1="183.1128" x2="522.6787" y1="413.5859" y2="413.5859"/><text fill="#0A9EFD" font-family="Arial" font-size="13" lengthAdjust="spacing" textLength="220.3589" x="240.7163" y="408.8311">Subscribe to streams from other users</text></g><g class="message" data-entity-1="part2" data-entity-2="part3" data-source-line="26" id="msg9"><polygon fill="#0A9EFD" points="511.6787,438.5347,521.6787,442.5347,511.6787,446.5347,515.6787,442.5347" style="stroke:#0A9EFD;stroke-width:1;stroke-linejoin:miter;stroke-miterlimit:10;"/><line style="stroke:#0A9EFD;stroke-width:2;" x1="178.1128" x2="517.6787" y1="442.5347" y2="442.5347"/><text fill="#0A9EFD" font-family="Arial" font-size="13" lengthAdjust="spacing" textLength="196.5425" x="252.6245" y="437.7798">Manage local and remote streams</text></g><path d="M10,464.5347 L168.4136,464.5347 L168.4136,471.4834 L158.4136,481.4834 L10,481.4834 L10,464.5347" fill="#EEEEEE" style="stroke:#0A9EFD;stroke-width:1.5;"/><rect fill="none" height="132.7437" style="stroke:#0A9EFD;stroke-width:2;" width="558.8416" x="10" y="464.5347"/><text fill="#000000" font-family="Arial" font-size="13" lengthAdjust="spacing" textLength="113.4136" x="25" y="477.7285">Common workflows</text><g class="message" data-entity-1="part1" data-entity-2="part2" data-source-line="30" id="msg10"><polygon fill="#0A9EFD" points="166.1128,498.4321,176.1128,502.4321,166.1128,506.4321,170.1128,502.4321" style="stroke:#0A9EFD;stroke-width:1;stroke-linejoin:miter;stroke-miterlimit:10;"/><line style="stroke:#0A9EFD;stroke-width:2;" x1="37.7793" x2="172.1128" y1="502.4321" y2="502.4321"/><text fill="#0A9EFD" font-family="Arial" font-size="13" lengthAdjust="spacing" textLength="116.3335" x="49.7793" y="497.6772">Start screen sharing</text></g><g class="message" data-entity-1="part2" data-entity-2="part3" data-source-line="31" id="msg11"><polygon fill="#0A9EFD" points="511.6787,527.3809,521.6787,531.3809,511.6787,535.3809,515.6787,531.3809" style="stroke:#0A9EFD;stroke-width:1;stroke-linejoin:miter;stroke-miterlimit:10;"/><line style="stroke:#0A9EFD;stroke-width:2;" x1="178.1128" x2="517.6787" y1="531.3809" y2="531.3809"/><text fill="#0A9EFD" font-family="Arial" font-size="13" lengthAdjust="spacing" textLength="273.1777" x="214.3069" y="526.626">Capture and publish your screen to the channel</text></g><g class="message" data-entity-1="part1" data-entity-2="part2" data-source-line="32" id="msg12"><polygon fill="#0A9EFD" points="166.1128,556.3296,176.1128,560.3296,166.1128,564.3296,170.1128,560.3296" style="stroke:#0A9EFD;stroke-width:1;stroke-linejoin:miter;stroke-miterlimit:10;"/><line style="stroke:#0A9EFD;stroke-width:2;" x1="37.7793" x2="172.1128" y1="560.3296" y2="560.3296"/><text fill="#0A9EFD" font-family="Arial" font-size="13" lengthAdjust="spacing" textLength="81.6499" x="67.1211" y="555.5747">Adjust volume</text></g><g class="message" data-entity-1="part2" data-entity-2="part3" data-source-line="33" id="msg13"><polygon fill="#0A9EFD" points="511.6787,585.2783,521.6787,589.2783,511.6787,593.2783,515.6787,589.2783" style="stroke:#0A9EFD;stroke-width:1;stroke-linejoin:miter;stroke-miterlimit:10;"/><line style="stroke:#0A9EFD;stroke-width:2;" x1="178.1128" x2="517.6787" y1="589.2783" y2="589.2783"/><text fill="#0A9EFD" font-family="Arial" font-size="13" lengthAdjust="spacing" textLength="246.3906" x="227.7004" y="584.5234">Call API methods to adjust or mute volume</text></g><g class="message" data-entity-1="part1" data-entity-2="part2" data-source-line="36" id="msg14"><polygon fill="#0A9EFD" points="166.1128,621.2271,176.1128,625.2271,166.1128,629.2271,170.1128,625.2271" style="stroke:#0A9EFD;stroke-width:1;stroke-linejoin:miter;stroke-miterlimit:10;"/><line style="stroke:#0A9EFD;stroke-width:2;" x1="37.7793" x2="172.1128" y1="625.2271" y2="625.2271"/><text fill="#0A9EFD" font-family="Arial" font-size="13" lengthAdjust="spacing" textLength="106.2534" x="54.8193" y="620.4722">Leave the channel</text></g><g class="message" data-entity-1="part2" data-entity-2="part3" data-source-line="37" id="msg15"><polygon fill="#0A9EFD" points="511.6787,650.1758,521.6787,654.1758,511.6787,658.1758,515.6787,654.1758" style="stroke:#0A9EFD;stroke-width:1;stroke-linejoin:miter;stroke-miterlimit:10;"/><line style="stroke:#0A9EFD;stroke-width:2;" x1="178.1128" x2="517.6787" y1="654.1758" y2="654.1758"/><text fill="#0A9EFD" font-family="Arial" font-size="13" lengthAdjust="spacing" textLength="106.2534" x="297.769" y="649.4209">Leave the channel</text></g><?plantuml-src PLF9Rjim4BthAwQw9xq7WG4ZoS5PMiDg2lHKZAY9n9Za45oSzgVw4Vso31LvaNFHGhvbtXFrHJjbSaU0FGVy7RVQNUfiJLMXIXoWVeuKQi08pyscgbh-0_KlpW7G-xho699MsgDBKF_K7J4qjmyZVBbUL-Gw4CP4MnQ7Cqvpk_dnxJfcl_Z_x_fhkK_arP4ind2nA89NyDsJWwNtbRmT5cL4E9X3Ob21C4aaWHPFk7EzTWJQnOHEqOnyvx0rWisTPc5qi1kLj8Cq4D38hAe-SFPmpzhDnYaBWA06T8vCqRrOZ1iRIa7JhkYAZ9F0c3IB9c-fNE7r4_D3T3M95lDf4qeL-n7MkJKw3kEaJMwZ2hgb6NsFK6X9iXUWrIgm7rWwY4cwiR6CS68X0gj3g8Di0UtnBu4ji502P3aHSMRvX0vx0iCApMWOo78wcfq6k65hfOWt3jiNmsznrcUJv720k9Eq50SCslKpfnlqAGSQJVmKz6yvZXFdBDQfzh9xpJ71ZassT2PgJ7a2IsdWRYm7Fz3o1zWiIIRMcEDKz95GFlAyoQFmvzrt?></g></svg>