<svg xmlns="http://www.w3.org/2000/svg" xmlns:xlink="http://www.w3.org/1999/xlink" contentStyleType="text/css" data-diagram-type="SEQUENCE" height="772px" preserveAspectRatio="none" style="width:775px;height:772px;" version="1.1" viewBox="0 0 775 772" width="775px" zoomAndPan="magnify"><?plantuml 1.2026.4?><defs/><g><rect fill="none" height="770.4544" style="stroke:#0A9EFD;stroke-width:1;" width="773.9875" x="0" y="0"/><rect fill="#999999" fill-opacity="0.33333" height="759.4544" style="stroke:#0A9EFD;stroke-width:0.5;" width="68.0991" x="7.2838" y="6"/><text fill="#0A9EFD" font-family="sans-serif" font-size="13" font-weight="700" lengthAdjust="spacing" textLength="62.0991" x="10.2838" y="19.4951">App: Host</text><rect fill="#999999" fill-opacity="0.33333" height="759.4544" style="stroke:#0A9EFD;stroke-width:0.5;" width="71.7427" x="323.3539" y="6"/><text fill="#0A9EFD" font-family="sans-serif" font-size="13" font-weight="700" lengthAdjust="spacing" textLength="65.7427" x="326.3539" y="19.4951">Voice SDK</text><rect fill="#999999" fill-opacity="0.33333" height="759.4544" style="stroke:#0A9EFD;stroke-width:0.5;" width="97.7236" x="671.2639" y="6"/><text fill="#0A9EFD" font-family="sans-serif" font-size="13" font-weight="700" lengthAdjust="spacing" textLength="91.7236" x="674.2639" y="19.4951">App: Audience</text><rect fill="#0A9EFD" fill-opacity="0.06667" height="74.8462" style="stroke:#0A9EFD;stroke-width:2;" width="741.4591" x="10" y="85.0182"/><rect fill="#0A9EFD" fill-opacity="0.06667" height="162.6411" style="stroke:#0A9EFD;stroke-width:2;" width="741.4591" x="10" y="173.8644"/><rect fill="#0A9EFD" fill-opacity="0.06667" height="74.8462" style="stroke:#0A9EFD;stroke-width:2;" width="741.4591" x="10" y="350.5055"/><rect fill="#0A9EFD" fill-opacity="0.06667" height="264.436" style="stroke:#0A9EFD;stroke-width:2;" width="741.4591" x="10" y="439.3517"/><g class="participant-lifeline" data-entity-uid="part1" data-qualified-name="HST" data-source-line="5" id="part1-lifeline"><g><title>.size.40...tablet.</title><rect fill="#000000" fill-opacity="0.00000" height="652.7695" width="8" x="37.3333" y="68.0182"/><line style="stroke:#0A9EFD;stroke-width:0.5;stroke-dasharray:5,5;" x1="41" x2="41" y1="68.0182" y2="720.7878"/></g></g><g class="participant-lifeline" data-entity-uid="part2" data-qualified-name="SDK" data-source-line="9" id="part2-lifeline"><g><title>.size.40...layers.</title><rect fill="#000000" fill-opacity="0.00000" height="652.7695" width="8" x="355.2253" y="68.0182"/><line style="stroke:#0A9EFD;stroke-width:0.5;stroke-dasharray:5,5;" x1="358.8919" x2="358.8919" y1="68.0182" y2="720.7878"/></g></g><g class="participant-lifeline" data-entity-uid="part3" data-qualified-name="AUD" data-source-line="13" id="part3-lifeline"><g><title>.size.40...tablet.</title><rect fill="#000000" fill-opacity="0.00000" height="652.7695" width="8" x="716.1257" y="68.0182"/><line style="stroke:#0A9EFD;stroke-width:0.5;stroke-dasharray:5,5;" x1="719.7924" x2="719.7924" y1="68.0182" y2="720.7878"/></g></g><g class="participant participant-head" data-entity-uid="part1" data-qualified-name="HST" data-source-line="5" id="part1-head"><rect fill="none" height="40.6667" rx="2.5" ry="2.5" style="stroke:#0A9EFD;stroke-width:2;" width="42.6667" x="20" y="26.3516"/><path d="M29.1333,33.3516 C28.5333,33.3516 28,33.8849 28,34.4849 L28,58.8516 C28,59.4516 28.5333,59.9849 29.1333,59.9849 L50.1667,59.9849 C50.7667,59.9849 51.3,59.4516 51.3,58.8516 L51.3,34.4849 C51.3,33.8849 50.7667,33.3516 50.1667,33.3516 L29.1333,33.3516 M31.3333,36.6849 L48,36.6849 L48,53.3516 L31.3333,53.3516 L31.3333,36.6849 M39.6667,55.0182 C40.9333,55.0182 41.7667,56.4182 41.1333,57.5182 C40.5,58.6182 38.8667,58.6182 38.2,57.5182 C37.5667,56.4182 38.3667,55.0182 39.6667,55.0182" fill="#0A9EFD"/></g><g class="participant participant-tail" data-entity-uid="part1" data-qualified-name="HST" data-source-line="5" id="part1-tail"><rect fill="none" height="40.6667" rx="2.5" ry="2.5" style="stroke:#0A9EFD;stroke-width:2;" width="42.6667" x="20" y="719.7878"/><path d="M29.1333,726.7878 C28.5333,726.7878 28,727.3211 28,727.9211 L28,752.2878 C28,752.8878 28.5333,753.4211 29.1333,753.4211 L50.1667,753.4211 C50.7667,753.4211 51.3,752.8878 51.3,752.2878 L51.3,727.9211 C51.3,727.3211 50.7667,726.7878 50.1667,726.7878 L29.1333,726.7878 M31.3333,730.1211 L48,730.1211 L48,746.7878 L31.3333,746.7878 L31.3333,730.1211 M39.6667,748.4544 C40.9333,748.4544 41.7667,749.8544 41.1333,750.9544 C40.5,752.0544 38.8667,752.0544 38.2,750.9544 C37.5667,749.8544 38.3667,748.4544 39.6667,748.4544" fill="#0A9EFD"/></g><g class="participant participant-head" data-entity-uid="part2" data-qualified-name="SDK" data-source-line="9" id="part2-head"><rect fill="none" height="40.6667" rx="2.5" ry="2.5" style="stroke:#0A9EFD;stroke-width:2;" width="42.6667" x="337.8919" y="26.3516"/><path d="M345.8919,33.3516 L345.8919,46.6849 L359.2253,46.6849 L359.2253,33.3516 L345.8919,33.3516 M362.5586,40.0182 L362.5586,50.0182 L352.5586,50.0182 L352.5586,53.3516 L365.8919,53.3516 L365.8919,40.0182 L362.5586,40.0182 M369.2253,46.6849 L369.2253,56.6849 L359.2253,56.6849 L359.2253,60.0182 L372.5586,60.0182 L372.5586,46.6849 L369.2253,46.6849" fill="#0A9EFD"/></g><g class="participant participant-tail" data-entity-uid="part2" data-qualified-name="SDK" data-source-line="9" id="part2-tail"><rect fill="none" height="40.6667" rx="2.5" ry="2.5" style="stroke:#0A9EFD;stroke-width:2;" width="42.6667" x="337.8919" y="719.7878"/><path d="M345.8919,726.7878 L345.8919,740.1211 L359.2253,740.1211 L359.2253,726.7878 L345.8919,726.7878 M362.5586,733.4544 L362.5586,743.4544 L352.5586,743.4544 L352.5586,746.7878 L365.8919,746.7878 L365.8919,733.4544 L362.5586,733.4544 M369.2253,740.1211 L369.2253,750.1211 L359.2253,750.1211 L359.2253,753.4544 L372.5586,753.4544 L372.5586,740.1211 L369.2253,740.1211" fill="#0A9EFD"/></g><g class="participant participant-head" data-entity-uid="part3" data-qualified-name="AUD" data-source-line="13" id="part3-head"><rect fill="none" height="40.6667" rx="2.5" ry="2.5" style="stroke:#0A9EFD;stroke-width:2;" width="42.6667" x="698.7924" y="26.3516"/><path d="M707.9257,33.3516 C707.3257,33.3516 706.7924,33.8849 706.7924,34.4849 L706.7924,58.8516 C706.7924,59.4516 707.3257,59.9849 707.9257,59.9849 L728.9591,59.9849 C729.5591,59.9849 730.0924,59.4516 730.0924,58.8516 L730.0924,34.4849 C730.0924,33.8849 729.5591,33.3516 728.9591,33.3516 L707.9257,33.3516 M710.1257,36.6849 L726.7924,36.6849 L726.7924,53.3516 L710.1257,53.3516 L710.1257,36.6849 M718.4591,55.0182 C719.7257,55.0182 720.5591,56.4182 719.9257,57.5182 C719.2924,58.6182 717.6591,58.6182 716.9924,57.5182 C716.3591,56.4182 717.1591,55.0182 718.4591,55.0182" fill="#0A9EFD"/></g><g class="participant participant-tail" data-entity-uid="part3" data-qualified-name="AUD" data-source-line="13" id="part3-tail"><rect fill="none" height="40.6667" rx="2.5" ry="2.5" style="stroke:#0A9EFD;stroke-width:2;" width="42.6667" x="698.7924" y="719.7878"/><path d="M707.9257,726.7878 C707.3257,726.7878 706.7924,727.3211 706.7924,727.9211 L706.7924,752.2878 C706.7924,752.8878 707.3257,753.4211 707.9257,753.4211 L728.9591,753.4211 C729.5591,753.4211 730.0924,752.8878 730.0924,752.2878 L730.0924,727.9211 C730.0924,727.3211 729.5591,726.7878 728.9591,726.7878 L707.9257,726.7878 M710.1257,730.1211 L726.7924,730.1211 L726.7924,746.7878 L710.1257,746.7878 L710.1257,730.1211 M718.4591,748.4544 C719.7257,748.4544 720.5591,749.8544 719.9257,750.9544 C719.2924,752.0544 717.6591,752.0544 716.9924,750.9544 C716.3591,749.8544 717.1591,748.4544 718.4591,748.4544" fill="#0A9EFD"/></g><path d="M10,85.0182 L166.2998,85.0182 L166.2998,91.967 L156.2998,101.967 L10,101.967 L10,85.0182" fill="#EEEEEE" style="stroke:#0A9EFD;stroke-width:1.5;"/><rect fill="none" height="74.8462" style="stroke:#0A9EFD;stroke-width:2;" width="741.4591" x="10" y="85.0182"/><text fill="#000000" font-family="Arial" font-size="13" lengthAdjust="spacing" textLength="111.2998" x="25" y="98.2121">Initialize the engine</text><g class="message" data-entity-1="part1" data-entity-2="part2" data-source-line="17" id="msg1"><polygon fill="#0A9EFD" points="347.2253,118.9157,357.2253,122.9157,347.2253,126.9157,351.2253,122.9157" style="stroke:#0A9EFD;stroke-width:1;stroke-linejoin:miter;stroke-miterlimit:10;"/><line style="stroke:#0A9EFD;stroke-width:2;" x1="41.3333" x2="353.2253" y1="122.9157" y2="122.9157"/><text fill="#0A9EFD" font-family="Arial" font-size="13" lengthAdjust="spacing" textLength="178.5088" x="111.0249" y="118.1608">Create and initialize the engine</text></g><g class="message" data-entity-1="part3" data-entity-2="part2" data-source-line="18" id="msg2"><polygon fill="#0A9EFD" points="370.2253,147.8644,360.2253,151.8644,370.2253,155.8644,366.2253,151.8644" style="stroke:#0A9EFD;stroke-width:1;stroke-linejoin:miter;stroke-miterlimit:10;"/><line style="stroke:#0A9EFD;stroke-width:2;" x1="364.2253" x2="719.1257" y1="151.8644" y2="151.8644"/><text fill="#0A9EFD" font-family="Arial" font-size="13" lengthAdjust="spacing" textLength="178.5088" x="450.4211" y="147.1095">Create and initialize the engine</text></g><path d="M10,173.8644 L127.998,173.8644 L127.998,180.8132 L117.998,190.8132 L10,190.8132 L10,173.8644" fill="#EEEEEE" style="stroke:#0A9EFD;stroke-width:1.5;"/><rect fill="none" height="162.6411" style="stroke:#0A9EFD;stroke-width:2;" width="741.4591" x="10" y="173.8644"/><text fill="#000000" font-family="Arial" font-size="13" lengthAdjust="spacing" textLength="72.998" x="25" y="187.0583">Join channel</text><g class="message" data-entity-1="part1" data-entity-2="part2" data-source-line="22" id="msg3"><polygon fill="#0A9EFD" points="347.2253,222.7106,357.2253,226.7106,347.2253,230.7106,351.2253,226.7106" style="stroke:#0A9EFD;stroke-width:1;stroke-linejoin:miter;stroke-miterlimit:10;"/><line style="stroke:#0A9EFD;stroke-width:2;" x1="41.3333" x2="353.2253" y1="226.7106" y2="226.7106"/><text fill="#0A9EFD" font-family="Arial" font-size="13" lengthAdjust="spacing" textLength="119.9834" x="140.2876" y="207.007">Join the channel and</text><text fill="#0A9EFD" font-family="Arial" font-size="13" lengthAdjust="spacing" textLength="138.7407" x="132.7148" y="221.9557">set the user role as host</text></g><g class="message" data-entity-1="part3" data-entity-2="part2" data-source-line="23" id="msg4"><polygon fill="#0A9EFD" points="370.2253,266.6081,360.2253,270.6081,370.2253,274.6081,366.2253,270.6081" style="stroke:#0A9EFD;stroke-width:1;stroke-linejoin:miter;stroke-miterlimit:10;"/><line style="stroke:#0A9EFD;stroke-width:2;" x1="364.2253" x2="719.1257" y1="270.6081" y2="270.6081"/><text fill="#0A9EFD" font-family="Arial" font-size="13" lengthAdjust="spacing" textLength="119.9834" x="479.6838" y="250.9045">Join the channel and</text><text fill="#0A9EFD" font-family="Arial" font-size="13" lengthAdjust="spacing" textLength="166.937" x="458.0129" y="265.8532">set the user role as audience</text></g><g class="message" data-entity-1="part2" data-entity-2="part1" data-source-line="24" id="msg5"><polygon fill="#0A9EFD" points="52.3333,295.5568,42.3333,299.5568,52.3333,303.5568,48.3333,299.5568" style="stroke:#0A9EFD;stroke-width:1;stroke-linejoin:miter;stroke-miterlimit:10;"/><line style="stroke:#0A9EFD;stroke-width:2;stroke-dasharray:2,2;" x1="46.3333" x2="358.2253" y1="299.5568" y2="299.5568"/><text fill="#0A9EFD" font-family="Arial" font-size="13" lengthAdjust="spacing" textLength="274.6377" x="62.9604" y="294.8019">Notify the host that the channel has been joined</text></g><g class="message" data-entity-1="part2" data-entity-2="part3" data-source-line="25" id="msg6"><polygon fill="#0A9EFD" points="708.1257,324.5055,718.1257,328.5055,708.1257,332.5055,712.1257,328.5055" style="stroke:#0A9EFD;stroke-width:1;stroke-linejoin:miter;stroke-miterlimit:10;"/><line style="stroke:#0A9EFD;stroke-width:2;stroke-dasharray:2,2;" x1="359.2253" x2="714.1257" y1="328.5055" y2="328.5055"/><text fill="#0A9EFD" font-family="Arial" font-size="13" lengthAdjust="spacing" textLength="302.834" x="388.2585" y="323.7507">Notify the audience that the channel has been joined</text></g><path d="M10,350.5055 L181.4644,350.5055 L181.4644,357.4543 L171.4644,367.4543 L10,367.4543 L10,350.5055" fill="#EEEEEE" style="stroke:#0A9EFD;stroke-width:1.5;"/><rect fill="none" height="74.8462" style="stroke:#0A9EFD;stroke-width:2;" width="741.4591" x="10" y="350.5055"/><text fill="#000000" font-family="Arial" font-size="13" lengthAdjust="spacing" textLength="126.4644" x="25" y="363.6994">Start audio interaction</text><g class="message" data-entity-1="part2" data-entity-2="part3" data-source-line="29" id="msg7"><polygon fill="#0A9EFD" points="708.1257,384.403,718.1257,388.403,708.1257,392.403,712.1257,388.403" style="stroke:#0A9EFD;stroke-width:1;stroke-linejoin:miter;stroke-miterlimit:10;"/><line style="stroke:#0A9EFD;stroke-width:2;" x1="359.2253" x2="714.1257" y1="388.403" y2="388.403"/><text fill="#0A9EFD" font-family="Arial" font-size="13" lengthAdjust="spacing" textLength="82.3862" x="498.4824" y="383.6481">Receive audio</text></g><g class="message" data-entity-1="part1" data-entity-2="part2" data-source-line="30" id="msg8"><polygon fill="#0A9EFD" points="347.2253,413.3517,357.2253,417.3517,347.2253,421.3517,351.2253,417.3517" style="stroke:#0A9EFD;stroke-width:1;stroke-linejoin:miter;stroke-miterlimit:10;"/><line style="stroke:#0A9EFD;stroke-width:2;" x1="41.3333" x2="353.2253" y1="417.3517" y2="417.3517"/><text fill="#0A9EFD" font-family="Arial" font-size="13" lengthAdjust="spacing" textLength="65.7808" x="167.3889" y="412.5968">Send audio</text></g><path d="M10,439.3517 L177.1416,439.3517 L177.1416,446.3005 L167.1416,456.3005 L10,456.3005 L10,439.3517" fill="#EEEEEE" style="stroke:#0A9EFD;stroke-width:1.5;"/><rect fill="none" height="264.436" style="stroke:#0A9EFD;stroke-width:2;" width="741.4591" x="10" y="439.3517"/><text fill="#000000" font-family="Arial" font-size="13" lengthAdjust="spacing" textLength="122.1416" x="25" y="452.5456">End audio interaction</text><g class="message" data-entity-1="part1" data-entity-2="part2" data-source-line="34" id="msg9"><polygon fill="#0A9EFD" points="347.2253,473.2492,357.2253,477.2492,347.2253,481.2492,351.2253,477.2492" style="stroke:#0A9EFD;stroke-width:1;stroke-linejoin:miter;stroke-miterlimit:10;"/><line style="stroke:#0A9EFD;stroke-width:2;" x1="41.3333" x2="353.2253" y1="477.2492" y2="477.2492"/><text fill="#0A9EFD" font-family="Arial" font-size="13" lengthAdjust="spacing" textLength="106.2534" x="147.1526" y="472.4943">Leave the channel</text></g><g class="message" data-entity-1="part2" data-entity-2="part1" data-source-line="35" id="msg10"><polygon fill="#0A9EFD" points="52.3333,517.1466,42.3333,521.1466,52.3333,525.1466,48.3333,521.1466" style="stroke:#0A9EFD;stroke-width:1;stroke-linejoin:miter;stroke-miterlimit:10;"/><line style="stroke:#0A9EFD;stroke-width:2;stroke-dasharray:2,2;" x1="46.3333" x2="358.2253" y1="521.1466" y2="521.1466"/><text fill="#0A9EFD" font-family="Arial" font-size="13" lengthAdjust="spacing" textLength="108.3926" x="144.2771" y="501.443">Notify the host that</text><text fill="#0A9EFD" font-family="Arial" font-size="13" lengthAdjust="spacing" textLength="122.8589" x="138.8499" y="516.3918">it has left the channel</text></g><g class="message" data-entity-1="part2" data-entity-2="part3" data-source-line="36" id="msg11"><polygon fill="#0A9EFD" points="708.1257,561.0441,718.1257,565.0441,708.1257,569.0441,712.1257,565.0441" style="stroke:#0A9EFD;stroke-width:1;stroke-linejoin:miter;stroke-miterlimit:10;"/><line style="stroke:#0A9EFD;stroke-width:2;stroke-dasharray:2,2;" x1="359.2253" x2="714.1257" y1="565.0441" y2="565.0441"/><text fill="#0A9EFD" font-family="Arial" font-size="13" lengthAdjust="spacing" textLength="136.5889" x="469.5752" y="545.3405">Notify the audience that</text><text fill="#0A9EFD" font-family="Arial" font-size="13" lengthAdjust="spacing" textLength="162.6143" x="458.3684" y="560.2892">the host has left the channel</text></g><g class="message" data-entity-1="part3" data-entity-2="part2" data-source-line="37" id="msg12"><polygon fill="#0A9EFD" points="370.2253,589.9928,360.2253,593.9928,370.2253,597.9928,366.2253,593.9928" style="stroke:#0A9EFD;stroke-width:1;stroke-linejoin:miter;stroke-miterlimit:10;"/><line style="stroke:#0A9EFD;stroke-width:2;" x1="364.2253" x2="719.1257" y1="593.9928" y2="593.9928"/><text fill="#0A9EFD" font-family="Arial" font-size="13" lengthAdjust="spacing" textLength="106.2534" x="486.5488" y="589.238">Leave the channel</text></g><g class="message" data-entity-1="part2" data-entity-2="part3" data-source-line="38" id="msg13"><polygon fill="#0A9EFD" points="708.1257,633.8903,718.1257,637.8903,708.1257,641.8903,712.1257,637.8903" style="stroke:#0A9EFD;stroke-width:1;stroke-linejoin:miter;stroke-miterlimit:10;"/><line style="stroke:#0A9EFD;stroke-width:2;stroke-dasharray:2,2;" x1="359.2253" x2="714.1257" y1="637.8903" y2="637.8903"/><text fill="#0A9EFD" font-family="Arial" font-size="13" lengthAdjust="spacing" textLength="136.5889" x="469.5752" y="618.1867">Notify the audience that</text><text fill="#0A9EFD" font-family="Arial" font-size="13" lengthAdjust="spacing" textLength="122.8589" x="478.2461" y="633.1354">it has left the channel</text></g><g class="message" data-entity-1="part1" data-entity-2="part2" data-source-line="39" id="msg14"><polygon fill="#0A9EFD" points="347.2253,662.839,357.2253,666.839,347.2253,670.839,351.2253,666.839" style="stroke:#0A9EFD;stroke-width:1;stroke-linejoin:miter;stroke-miterlimit:10;"/><line style="stroke:#0A9EFD;stroke-width:2;" x1="41.3333" x2="353.2253" y1="666.839" y2="666.839"/><text fill="#0A9EFD" font-family="Arial" font-size="13" lengthAdjust="spacing" textLength="109.1226" x="145.718" y="662.0841">Destroy the engine</text></g><g class="message" data-entity-1="part3" data-entity-2="part2" data-source-line="40" id="msg15"><polygon fill="#0A9EFD" points="370.2253,691.7878,360.2253,695.7878,370.2253,699.7878,366.2253,695.7878" style="stroke:#0A9EFD;stroke-width:1;stroke-linejoin:miter;stroke-miterlimit:10;"/><line style="stroke:#0A9EFD;stroke-width:2;" x1="364.2253" x2="719.1257" y1="695.7878" y2="695.7878"/><text fill="#0A9EFD" font-family="Arial" font-size="13" lengthAdjust="spacing" textLength="109.1226" x="485.1142" y="691.0329">Destroy the engine</text></g><?plantuml-src bP9FJyCm3CNl_HIc1sv573XLrQI98Oq_ua21qoIKjTvg24cLf1FZq-EctMXW5UDMnNu_Fp_tX5GXcn91hBKHB_QDr1arxpAAble3ucbTfp3NriLHBOoZWcgX7CIPfKzCByudsQaJIubk4eEmCCyV8rGbiBO7F6ig4FBPxJX0YYqQsm6uyGV0EvWs9Q4gC8QZR4oVPj-KjT5D3TUA70d9xU0g15HhKXYnNqWcxTGKBWqAnpcmZWusC_NuPXw_6tsZIK5H2QLG1XDzeTNqnHQtK63H-TV6eW6Z9ROhLNo3mC5_nAAFBs8b94nW5odSQqUhhUzkwVmXN42iMBf4LF3Aix3Sgzb6eDxX_oOCKiaT7z9BDKVeq8Z2aLP-nopfTdp00cdJ3T11T7bxtkvvmBpQFGR4eUuEnGQ75dqrI_g11oDPy87z9X9NmNgzrz_QC925slD6AUF-ZWjztEDm-nbQP_HsxAS-K6x3_G80?></g></svg>