<svg xmlns="http://www.w3.org/2000/svg" xmlns:xlink="http://www.w3.org/1999/xlink" contentStyleType="text/css" data-diagram-type="SEQUENCE" height="979px" preserveAspectRatio="none" style="width:776px;height:979px;" version="1.1" viewBox="0 0 776 979" width="776px" zoomAndPan="magnify"><?plantuml 1.2026.4?><defs/><g><rect fill="none" height="977.0955" style="stroke:#0A9EFD;stroke-width:1;" width="774.6985" x="0" y="0"/><rect fill="#999999" fill-opacity="0.33333" height="966.0955" style="stroke:#0A9EFD;stroke-width:0.5;" width="68.0991" x="7.2838" y="6"/><text fill="#0A9EFD" font-family="sans-serif" font-size="13" font-weight="700" lengthAdjust="spacing" textLength="62.0991" x="10.2838" y="19.4951">App: Host</text><rect fill="#999999" fill-opacity="0.33333" height="966.0955" style="stroke:#0A9EFD;stroke-width:0.5;" width="72.4536" x="323.3539" y="6"/><text fill="#0A9EFD" font-family="sans-serif" font-size="13" font-weight="700" lengthAdjust="spacing" textLength="66.4536" x="326.3539" y="19.4951">Video SDK</text><rect fill="#999999" fill-opacity="0.33333" height="966.0955" style="stroke:#0A9EFD;stroke-width:0.5;" width="97.7236" x="671.9749" y="6"/><text fill="#0A9EFD" font-family="sans-serif" font-size="13" font-weight="700" lengthAdjust="spacing" textLength="91.7236" x="674.9749" y="19.4951">App: Audience</text><rect fill="#0A9EFD" fill-opacity="0.06667" height="74.8462" style="stroke:#0A9EFD;stroke-width:2;" width="742.17" x="10" y="85.0182"/><rect fill="#0A9EFD" fill-opacity="0.06667" height="132.7437" style="stroke:#0A9EFD;stroke-width:2;" width="742.17" x="10" y="173.8644"/><rect fill="#0A9EFD" fill-opacity="0.06667" height="162.6411" style="stroke:#0A9EFD;stroke-width:2;" width="742.17" x="10" y="320.6081"/><rect fill="#0A9EFD" fill-opacity="0.06667" height="45.8975" style="stroke:#0A9EFD;stroke-width:2;" width="423.9226" x="328.2474" y="497.2492"/><rect fill="#0A9EFD" fill-opacity="0.06667" height="74.8462" style="stroke:#0A9EFD;stroke-width:2;" width="742.17" x="10" y="557.1466"/><rect fill="#0A9EFD" fill-opacity="0.06667" height="264.436" style="stroke:#0A9EFD;stroke-width:2;" width="742.17" x="10" y="645.9928"/><g class="participant-lifeline" data-entity-uid="part1" data-qualified-name="HST" data-source-line="5" id="part1-lifeline"><g><title>.size.40...tablet.</title><rect fill="#000000" fill-opacity="0.00000" height="859.4106" width="8" x="37.3333" y="68.0182"/><line style="stroke:#0A9EFD;stroke-width:0.5;stroke-dasharray:5,5;" x1="41" x2="41" y1="68.0182" y2="927.4289"/></g></g><g class="participant-lifeline" data-entity-uid="part2" data-qualified-name="SDK" data-source-line="9" id="part2-lifeline"><g><title>.size.40...layers.</title><rect fill="#000000" fill-opacity="0.00000" height="859.4106" width="8" x="355.5807" y="68.0182"/><line style="stroke:#0A9EFD;stroke-width:0.5;stroke-dasharray:5,5;" x1="359.2474" x2="359.2474" y1="68.0182" y2="927.4289"/></g></g><g class="participant-lifeline" data-entity-uid="part3" data-qualified-name="AUD" data-source-line="13" id="part3-lifeline"><g><title>.size.40...tablet.</title><rect fill="#000000" fill-opacity="0.00000" height="859.4106" width="8" x="716.8367" y="68.0182"/><line style="stroke:#0A9EFD;stroke-width:0.5;stroke-dasharray:5,5;" x1="720.5033" x2="720.5033" y1="68.0182" y2="927.4289"/></g></g><g class="participant participant-head" data-entity-uid="part1" data-qualified-name="HST" data-source-line="5" id="part1-head"><rect fill="none" height="40.6667" rx="2.5" ry="2.5" style="stroke:#0A9EFD;stroke-width:2;" width="42.6667" x="20" y="26.3516"/><path d="M29.1333,33.3516 C28.5333,33.3516 28,33.8849 28,34.4849 L28,58.8516 C28,59.4516 28.5333,59.9849 29.1333,59.9849 L50.1667,59.9849 C50.7667,59.9849 51.3,59.4516 51.3,58.8516 L51.3,34.4849 C51.3,33.8849 50.7667,33.3516 50.1667,33.3516 L29.1333,33.3516 M31.3333,36.6849 L48,36.6849 L48,53.3516 L31.3333,53.3516 L31.3333,36.6849 M39.6667,55.0182 C40.9333,55.0182 41.7667,56.4182 41.1333,57.5182 C40.5,58.6182 38.8667,58.6182 38.2,57.5182 C37.5667,56.4182 38.3667,55.0182 39.6667,55.0182" fill="#0A9EFD"/></g><g class="participant participant-tail" data-entity-uid="part1" data-qualified-name="HST" data-source-line="5" id="part1-tail"><rect fill="none" height="40.6667" rx="2.5" ry="2.5" style="stroke:#0A9EFD;stroke-width:2;" width="42.6667" x="20" y="926.4289"/><path d="M29.1333,933.4289 C28.5333,933.4289 28,933.9622 28,934.5622 L28,958.9289 C28,959.5289 28.5333,960.0622 29.1333,960.0622 L50.1667,960.0622 C50.7667,960.0622 51.3,959.5289 51.3,958.9289 L51.3,934.5622 C51.3,933.9622 50.7667,933.4289 50.1667,933.4289 L29.1333,933.4289 M31.3333,936.7622 L48,936.7622 L48,953.4289 L31.3333,953.4289 L31.3333,936.7622 M39.6667,955.0955 C40.9333,955.0955 41.7667,956.4955 41.1333,957.5955 C40.5,958.6955 38.8667,958.6955 38.2,957.5955 C37.5667,956.4955 38.3667,955.0955 39.6667,955.0955" fill="#0A9EFD"/></g><g class="participant participant-head" data-entity-uid="part2" data-qualified-name="SDK" data-source-line="9" id="part2-head"><rect fill="none" height="40.6667" rx="2.5" ry="2.5" style="stroke:#0A9EFD;stroke-width:2;" width="42.6667" x="338.2474" y="26.3516"/><path d="M346.2474,33.3516 L346.2474,46.6849 L359.5807,46.6849 L359.5807,33.3516 L346.2474,33.3516 M362.9141,40.0182 L362.9141,50.0182 L352.9141,50.0182 L352.9141,53.3516 L366.2474,53.3516 L366.2474,40.0182 L362.9141,40.0182 M369.5807,46.6849 L369.5807,56.6849 L359.5807,56.6849 L359.5807,60.0182 L372.9141,60.0182 L372.9141,46.6849 L369.5807,46.6849" fill="#0A9EFD"/></g><g class="participant participant-tail" data-entity-uid="part2" data-qualified-name="SDK" data-source-line="9" id="part2-tail"><rect fill="none" height="40.6667" rx="2.5" ry="2.5" style="stroke:#0A9EFD;stroke-width:2;" width="42.6667" x="338.2474" y="926.4289"/><path d="M346.2474,933.4289 L346.2474,946.7622 L359.5807,946.7622 L359.5807,933.4289 L346.2474,933.4289 M362.9141,940.0955 L362.9141,950.0955 L352.9141,950.0955 L352.9141,953.4289 L366.2474,953.4289 L366.2474,940.0955 L362.9141,940.0955 M369.5807,946.7622 L369.5807,956.7622 L359.5807,956.7622 L359.5807,960.0955 L372.9141,960.0955 L372.9141,946.7622 L369.5807,946.7622" fill="#0A9EFD"/></g><g class="participant participant-head" data-entity-uid="part3" data-qualified-name="AUD" data-source-line="13" id="part3-head"><rect fill="none" height="40.6667" rx="2.5" ry="2.5" style="stroke:#0A9EFD;stroke-width:2;" width="42.6667" x="699.5033" y="26.3516"/><path d="M708.6367,33.3516 C708.0367,33.3516 707.5033,33.8849 707.5033,34.4849 L707.5033,58.8516 C707.5033,59.4516 708.0367,59.9849 708.6367,59.9849 L729.67,59.9849 C730.27,59.9849 730.8033,59.4516 730.8033,58.8516 L730.8033,34.4849 C730.8033,33.8849 730.27,33.3516 729.67,33.3516 L708.6367,33.3516 M710.8367,36.6849 L727.5033,36.6849 L727.5033,53.3516 L710.8367,53.3516 L710.8367,36.6849 M719.17,55.0182 C720.4367,55.0182 721.27,56.4182 720.6367,57.5182 C720.0033,58.6182 718.37,58.6182 717.7033,57.5182 C717.07,56.4182 717.87,55.0182 719.17,55.0182" fill="#0A9EFD"/></g><g class="participant participant-tail" data-entity-uid="part3" data-qualified-name="AUD" data-source-line="13" id="part3-tail"><rect fill="none" height="40.6667" rx="2.5" ry="2.5" style="stroke:#0A9EFD;stroke-width:2;" width="42.6667" x="699.5033" y="926.4289"/><path d="M708.6367,933.4289 C708.0367,933.4289 707.5033,933.9622 707.5033,934.5622 L707.5033,958.9289 C707.5033,959.5289 708.0367,960.0622 708.6367,960.0622 L729.67,960.0622 C730.27,960.0622 730.8033,959.5289 730.8033,958.9289 L730.8033,934.5622 C730.8033,933.9622 730.27,933.4289 729.67,933.4289 L708.6367,933.4289 M710.8367,936.7622 L727.5033,936.7622 L727.5033,953.4289 L710.8367,953.4289 L710.8367,936.7622 M719.17,955.0955 C720.4367,955.0955 721.27,956.4955 720.6367,957.5955 C720.0033,958.6955 718.37,958.6955 717.7033,957.5955 C717.07,956.4955 717.87,955.0955 719.17,955.0955" fill="#0A9EFD"/></g><path d="M10,85.0182 L166.2998,85.0182 L166.2998,91.967 L156.2998,101.967 L10,101.967 L10,85.0182" fill="#EEEEEE" style="stroke:#0A9EFD;stroke-width:1.5;"/><rect fill="none" height="74.8462" style="stroke:#0A9EFD;stroke-width:2;" width="742.17" x="10" y="85.0182"/><text fill="#000000" font-family="Arial" font-size="13" lengthAdjust="spacing" textLength="111.2998" x="25" y="98.2121">Initialize the engine</text><g class="message" data-entity-1="part1" data-entity-2="part2" data-source-line="17" id="msg1"><polygon fill="#0A9EFD" points="347.5807,118.9157,357.5807,122.9157,347.5807,126.9157,351.5807,122.9157" style="stroke:#0A9EFD;stroke-width:1;stroke-linejoin:miter;stroke-miterlimit:10;"/><line style="stroke:#0A9EFD;stroke-width:2;" x1="41.3333" x2="353.5807" y1="122.9157" y2="122.9157"/><text fill="#0A9EFD" font-family="Arial" font-size="13" lengthAdjust="spacing" textLength="178.5088" x="111.2026" y="118.1608">Create and initialize the engine</text></g><g class="message" data-entity-1="part3" data-entity-2="part2" data-source-line="18" id="msg2"><polygon fill="#0A9EFD" points="370.5807,147.8644,360.5807,151.8644,370.5807,155.8644,366.5807,151.8644" style="stroke:#0A9EFD;stroke-width:1;stroke-linejoin:miter;stroke-miterlimit:10;"/><line style="stroke:#0A9EFD;stroke-width:2;" x1="364.5807" x2="719.8367" y1="151.8644" y2="151.8644"/><text fill="#0A9EFD" font-family="Arial" font-size="13" lengthAdjust="spacing" textLength="178.5088" x="450.9543" y="147.1095">Create and initialize the engine</text></g><path d="M10,173.8644 L170.6226,173.8644 L170.6226,180.8132 L160.6226,190.8132 L10,190.8132 L10,173.8644" fill="#EEEEEE" style="stroke:#0A9EFD;stroke-width:1.5;"/><rect fill="none" height="132.7437" style="stroke:#0A9EFD;stroke-width:2;" width="742.17" x="10" y="173.8644"/><text fill="#000000" font-family="Arial" font-size="13" lengthAdjust="spacing" textLength="115.6226" x="25" y="187.0583">Set video properties</text><g class="message" data-entity-1="part1" data-entity-2="part2" data-source-line="22" id="msg3"><polygon fill="#0A9EFD" points="347.5807,207.7619,357.5807,211.7619,347.5807,215.7619,351.5807,211.7619" style="stroke:#0A9EFD;stroke-width:1;stroke-linejoin:miter;stroke-miterlimit:10;"/><line style="stroke:#0A9EFD;stroke-width:2;" x1="41.3333" x2="353.5807" y1="211.7619" y2="211.7619"/><text fill="#0A9EFD" font-family="Arial" font-size="13" lengthAdjust="spacing" textLength="143.1016" x="128.9063" y="207.007">Enable the video module</text></g><g class="message" data-entity-1="part3" data-entity-2="part2" data-source-line="23" id="msg4"><polygon fill="#0A9EFD" points="370.5807,236.7106,360.5807,240.7106,370.5807,244.7106,366.5807,240.7106" style="stroke:#0A9EFD;stroke-width:1;stroke-linejoin:miter;stroke-miterlimit:10;"/><line style="stroke:#0A9EFD;stroke-width:2;" x1="364.5807" x2="719.8367" y1="240.7106" y2="240.7106"/><text fill="#0A9EFD" font-family="Arial" font-size="13" lengthAdjust="spacing" textLength="143.1016" x="468.6579" y="235.9557">Enable the video module</text></g><g class="message" data-entity-1="part1" data-entity-2="part2" data-source-line="24" id="msg5"><polygon fill="#0A9EFD" points="347.5807,265.6593,357.5807,269.6593,347.5807,273.6593,351.5807,269.6593" style="stroke:#0A9EFD;stroke-width:1;stroke-linejoin:miter;stroke-miterlimit:10;"/><line style="stroke:#0A9EFD;stroke-width:2;" x1="41.3333" x2="353.5807" y1="269.6593" y2="269.6593"/><text fill="#0A9EFD" font-family="Arial" font-size="13" lengthAdjust="spacing" textLength="128.6162" x="136.1489" y="264.9045">Initialize the local view</text></g><g class="message" data-entity-1="part1" data-entity-2="part2" data-source-line="25" id="msg6"><polygon fill="#0A9EFD" points="347.5807,294.6081,357.5807,298.6081,347.5807,302.6081,351.5807,298.6081" style="stroke:#0A9EFD;stroke-width:1;stroke-linejoin:miter;stroke-miterlimit:10;"/><line style="stroke:#0A9EFD;stroke-width:2;" x1="41.3333" x2="353.5807" y1="298.6081" y2="298.6081"/><text fill="#0A9EFD" font-family="Arial" font-size="13" lengthAdjust="spacing" textLength="156.0698" x="122.4221" y="293.8532">Display local video preview</text></g><path d="M10,320.6081 L127.998,320.6081 L127.998,327.5568 L117.998,337.5568 L10,337.5568 L10,320.6081" fill="#EEEEEE" style="stroke:#0A9EFD;stroke-width:1.5;"/><rect fill="none" height="162.6411" style="stroke:#0A9EFD;stroke-width:2;" width="742.17" x="10" y="320.6081"/><text fill="#000000" font-family="Arial" font-size="13" lengthAdjust="spacing" textLength="72.998" x="25" y="333.8019">Join channel</text><g class="message" data-entity-1="part1" data-entity-2="part2" data-source-line="29" id="msg7"><polygon fill="#0A9EFD" points="347.5807,369.4543,357.5807,373.4543,347.5807,377.4543,351.5807,373.4543" style="stroke:#0A9EFD;stroke-width:1;stroke-linejoin:miter;stroke-miterlimit:10;"/><line style="stroke:#0A9EFD;stroke-width:2;" x1="41.3333" x2="353.5807" y1="373.4543" y2="373.4543"/><text fill="#0A9EFD" font-family="Arial" font-size="13" lengthAdjust="spacing" textLength="119.9834" x="140.4653" y="353.7507">Join the channel and</text><text fill="#0A9EFD" font-family="Arial" font-size="13" lengthAdjust="spacing" textLength="138.7407" x="132.8926" y="368.6994">set the user role as host</text></g><g class="message" data-entity-1="part3" data-entity-2="part2" data-source-line="30" id="msg8"><polygon fill="#0A9EFD" points="370.5807,413.3517,360.5807,417.3517,370.5807,421.3517,366.5807,417.3517" style="stroke:#0A9EFD;stroke-width:1;stroke-linejoin:miter;stroke-miterlimit:10;"/><line style="stroke:#0A9EFD;stroke-width:2;" x1="364.5807" x2="719.8367" y1="417.3517" y2="417.3517"/><text fill="#0A9EFD" font-family="Arial" font-size="13" lengthAdjust="spacing" textLength="119.9834" x="480.217" y="397.6481">Join the channel and</text><text fill="#0A9EFD" font-family="Arial" font-size="13" lengthAdjust="spacing" textLength="166.937" x="458.5461" y="412.5968">set the user role as audience</text></g><g class="message" data-entity-1="part2" data-entity-2="part1" data-source-line="31" id="msg9"><polygon fill="#0A9EFD" points="52.3333,442.3005,42.3333,446.3005,52.3333,450.3005,48.3333,446.3005" style="stroke:#0A9EFD;stroke-width:1;stroke-linejoin:miter;stroke-miterlimit:10;"/><line style="stroke:#0A9EFD;stroke-width:2;stroke-dasharray:2,2;" x1="46.3333" x2="358.5807" y1="446.3005" y2="446.3005"/><text fill="#0A9EFD" font-family="Arial" font-size="13" lengthAdjust="spacing" textLength="274.6377" x="63.1382" y="441.5456">Notify the host that the channel has been joined</text></g><g class="message" data-entity-1="part2" data-entity-2="part3" data-source-line="32" id="msg10"><polygon fill="#0A9EFD" points="708.8367,471.2492,718.8367,475.2492,708.8367,479.2492,712.8367,475.2492" style="stroke:#0A9EFD;stroke-width:1;stroke-linejoin:miter;stroke-miterlimit:10;"/><line style="stroke:#0A9EFD;stroke-width:2;stroke-dasharray:2,2;" x1="359.5807" x2="714.8367" y1="475.2492" y2="475.2492"/><text fill="#0A9EFD" font-family="Arial" font-size="13" lengthAdjust="spacing" textLength="302.834" x="388.7917" y="470.4943">Notify the audience that the channel has been joined</text></g><path d="M328.2474,497.2492 L466.45,497.2492 L466.45,504.1979 L456.45,514.1979 L328.2474,514.1979 L328.2474,497.2492" fill="#EEEEEE" style="stroke:#0A9EFD;stroke-width:1.5;"/><rect fill="none" height="45.8975" style="stroke:#0A9EFD;stroke-width:2;" width="423.9226" x="328.2474" y="497.2492"/><text fill="#000000" font-family="Arial" font-size="13" lengthAdjust="spacing" textLength="93.2026" x="343.2474" y="510.443">Set remote view</text><g class="message" data-entity-1="part3" data-entity-2="part2" data-source-line="36" id="msg11"><polygon fill="#0A9EFD" points="370.5807,531.1466,360.5807,535.1466,370.5807,539.1466,366.5807,535.1466" style="stroke:#0A9EFD;stroke-width:1;stroke-linejoin:miter;stroke-miterlimit:10;"/><line style="stroke:#0A9EFD;stroke-width:2;" x1="364.5807" x2="719.8367" y1="535.1466" y2="535.1466"/><text fill="#0A9EFD" font-family="Arial" font-size="13" lengthAdjust="spacing" textLength="142.3398" x="469.0388" y="530.3918">Initialize the remote view</text></g><path d="M10,557.1466 L241.4561,557.1466 L241.4561,564.0954 L231.4561,574.0954 L10,574.0954 L10,557.1466" fill="#EEEEEE" style="stroke:#0A9EFD;stroke-width:1.5;"/><rect fill="none" height="74.8462" style="stroke:#0A9EFD;stroke-width:2;" width="742.17" x="10" y="557.1466"/><text fill="#000000" font-family="Arial" font-size="13" lengthAdjust="spacing" textLength="186.4561" x="25" y="570.3405">Start audio and video interaction</text><g class="message" data-entity-1="part2" data-entity-2="part3" data-source-line="40" id="msg12"><polygon fill="#0A9EFD" points="708.8367,591.0441,718.8367,595.0441,708.8367,599.0441,712.8367,595.0441" style="stroke:#0A9EFD;stroke-width:1;stroke-linejoin:miter;stroke-miterlimit:10;"/><line style="stroke:#0A9EFD;stroke-width:2;" x1="359.5807" x2="714.8367" y1="595.0441" y2="595.0441"/><text fill="#0A9EFD" font-family="Arial" font-size="13" lengthAdjust="spacing" textLength="142.3779" x="469.0197" y="590.2892">Receive audio and video</text></g><g class="message" data-entity-1="part1" data-entity-2="part2" data-source-line="41" id="msg13"><polygon fill="#0A9EFD" points="347.5807,619.9928,357.5807,623.9928,347.5807,627.9928,351.5807,623.9928" style="stroke:#0A9EFD;stroke-width:1;stroke-linejoin:miter;stroke-miterlimit:10;"/><line style="stroke:#0A9EFD;stroke-width:2;" x1="41.3333" x2="353.5807" y1="623.9928" y2="623.9928"/><text fill="#0A9EFD" font-family="Arial" font-size="13" lengthAdjust="spacing" textLength="125.7725" x="137.5708" y="619.238">Send audio and video</text></g><path d="M10,645.9928 L237.1333,645.9928 L237.1333,652.9416 L227.1333,662.9416 L10,662.9416 L10,645.9928" fill="#EEEEEE" style="stroke:#0A9EFD;stroke-width:1.5;"/><rect fill="none" height="264.436" style="stroke:#0A9EFD;stroke-width:2;" width="742.17" x="10" y="645.9928"/><text fill="#000000" font-family="Arial" font-size="13" lengthAdjust="spacing" textLength="182.1333" x="25" y="659.1867">End audio and video interaction</text><g class="message" data-entity-1="part1" data-entity-2="part2" data-source-line="45" id="msg14"><polygon fill="#0A9EFD" points="347.5807,679.8903,357.5807,683.8903,347.5807,687.8903,351.5807,683.8903" style="stroke:#0A9EFD;stroke-width:1;stroke-linejoin:miter;stroke-miterlimit:10;"/><line style="stroke:#0A9EFD;stroke-width:2;" x1="41.3333" x2="353.5807" y1="683.8903" y2="683.8903"/><text fill="#0A9EFD" font-family="Arial" font-size="13" lengthAdjust="spacing" textLength="106.2534" x="147.3303" y="679.1354">Leave the channel</text></g><g class="message" data-entity-1="part2" data-entity-2="part1" data-source-line="46" id="msg15"><polygon fill="#0A9EFD" points="52.3333,723.7878,42.3333,727.7878,52.3333,731.7878,48.3333,727.7878" style="stroke:#0A9EFD;stroke-width:1;stroke-linejoin:miter;stroke-miterlimit:10;"/><line style="stroke:#0A9EFD;stroke-width:2;stroke-dasharray:2,2;" x1="46.3333" x2="358.5807" y1="727.7878" y2="727.7878"/><text fill="#0A9EFD" font-family="Arial" font-size="13" lengthAdjust="spacing" textLength="108.3926" x="144.4548" y="708.0841">Notify the host that</text><text fill="#0A9EFD" font-family="Arial" font-size="13" lengthAdjust="spacing" textLength="122.8589" x="139.0276" y="723.0329">it has left the channel</text></g><g class="message" data-entity-1="part2" data-entity-2="part3" data-source-line="47" id="msg16"><polygon fill="#0A9EFD" points="708.8367,767.6852,718.8367,771.6852,708.8367,775.6852,712.8367,771.6852" style="stroke:#0A9EFD;stroke-width:1;stroke-linejoin:miter;stroke-miterlimit:10;"/><line style="stroke:#0A9EFD;stroke-width:2;stroke-dasharray:2,2;" x1="359.5807" x2="714.8367" y1="771.6852" y2="771.6852"/><text fill="#0A9EFD" font-family="Arial" font-size="13" lengthAdjust="spacing" textLength="136.5889" x="470.1084" y="751.9816">Notify the audience that</text><text fill="#0A9EFD" font-family="Arial" font-size="13" lengthAdjust="spacing" textLength="162.6143" x="458.9016" y="766.9303">the host has left the channel</text></g><g class="message" data-entity-1="part3" data-entity-2="part2" data-source-line="48" id="msg17"><polygon fill="#0A9EFD" points="370.5807,796.634,360.5807,800.634,370.5807,804.634,366.5807,800.634" style="stroke:#0A9EFD;stroke-width:1;stroke-linejoin:miter;stroke-miterlimit:10;"/><line style="stroke:#0A9EFD;stroke-width:2;" x1="364.5807" x2="719.8367" y1="800.634" y2="800.634"/><text fill="#0A9EFD" font-family="Arial" font-size="13" lengthAdjust="spacing" textLength="106.2534" x="487.082" y="795.8791">Leave the channel</text></g><g class="message" data-entity-1="part2" data-entity-2="part3" data-source-line="49" id="msg18"><polygon fill="#0A9EFD" points="708.8367,840.5314,718.8367,844.5314,708.8367,848.5314,712.8367,844.5314" style="stroke:#0A9EFD;stroke-width:1;stroke-linejoin:miter;stroke-miterlimit:10;"/><line style="stroke:#0A9EFD;stroke-width:2;stroke-dasharray:2,2;" x1="359.5807" x2="714.8367" y1="844.5314" y2="844.5314"/><text fill="#0A9EFD" font-family="Arial" font-size="13" lengthAdjust="spacing" textLength="136.5889" x="470.1084" y="824.8278">Notify the audience that</text><text fill="#0A9EFD" font-family="Arial" font-size="13" lengthAdjust="spacing" textLength="122.8589" x="478.7793" y="839.7765">it has left the channel</text></g><g class="message" data-entity-1="part1" data-entity-2="part2" data-source-line="50" id="msg19"><polygon fill="#0A9EFD" points="347.5807,869.4801,357.5807,873.4801,347.5807,877.4801,351.5807,873.4801" style="stroke:#0A9EFD;stroke-width:1;stroke-linejoin:miter;stroke-miterlimit:10;"/><line style="stroke:#0A9EFD;stroke-width:2;" x1="41.3333" x2="353.5807" y1="873.4801" y2="873.4801"/><text fill="#0A9EFD" font-family="Arial" font-size="13" lengthAdjust="spacing" textLength="109.1226" x="145.8958" y="868.7253">Destroy the engine</text></g><g class="message" data-entity-1="part3" data-entity-2="part2" data-source-line="51" id="msg20"><polygon fill="#0A9EFD" points="370.5807,898.4289,360.5807,902.4289,370.5807,906.4289,366.5807,902.4289" style="stroke:#0A9EFD;stroke-width:1;stroke-linejoin:miter;stroke-miterlimit:10;"/><line style="stroke:#0A9EFD;stroke-width:2;" x1="364.5807" x2="719.8367" y1="902.4289" y2="902.4289"/><text fill="#0A9EFD" font-family="Arial" font-size="13" lengthAdjust="spacing" textLength="109.1226" x="485.6474" y="897.674">Destroy the engine</text></g><?plantuml-src bLDBJy904BxtLumSl64yU2A4X8W9Fk91r1E9MTe1HfVPPdUBugztkgtOhJJYZJ3VQxxPdX2dkiWGrCfOzUBUYC-esEWaMPWFw8tpV01JutmloPNrb5Aks4DlwEWJ1nVde-6fLmkDVjG3vM0wUqoGCn1kBV1C6HgOJMwx1RJQeNMLW01R0Y71kCW8ESNZKeoV9ZyYAskA7AwPF2ajSF1h1EGLCIOI5_gZqdG0bnQLbng4HmV1edeyMEo_hMVeOHjQoAt9KUAZYvolkCmUs1LkOx92nuPTcAPEQqTjKgK5ZUyHQa8kbyRtuoeO1bmZzOqXXdIjc557_30ezUjXMSASmScMvR-5GmlMI5Ovn5eUJhJ6VyYgldaYJEYBWgGOmBtnjDm5TAakFvIF5DT2NI0ol8eNPdksn8ZOt_9_AxHkQN5ZF5R5DdThrT-4DHMyFE1WRiBpgGv0xD6gr9FXe3diLveFc29jiOsF3Z8hdteRq72y-ZsE_9fQTwYss2mZJ8VzEix1ykUoT-XCup8gijxaDpUkVivxlKwLxdp7dRSxO_HfeFFMxBe--WFZikOl?></g></svg>