<svg xmlns="http://www.w3.org/2000/svg" xmlns:xlink="http://www.w3.org/1999/xlink" contentStyleType="text/css" data-diagram-type="SEQUENCE" height="836px" preserveAspectRatio="none" style="width:598px;height:836px;" version="1.1" viewBox="0 0 598 836" width="598px" zoomAndPan="magnify"><?plantuml 1.2026.4?><defs/><g><rect fill="none" height="834.4759" style="stroke:#0A9EFD;stroke-width:1;" width="596.2254" x="0" y="0"/><rect fill="#999999" fill-opacity="0.33333" height="823.4759" style="stroke:#0A9EFD;stroke-width:0.5;" width="50.6667" x="16" y="6"/><text fill="#0A9EFD" font-family="sans-serif" font-size="13" font-weight="700" lengthAdjust="spacing" textLength="25.27" x="28.6983" y="19.4951">App</text><rect fill="#999999" fill-opacity="0.33333" height="823.4759" style="stroke:#0A9EFD;stroke-width:0.5;" width="71.7427" x="278.437" y="6"/><text fill="#0A9EFD" font-family="sans-serif" font-size="13" font-weight="700" lengthAdjust="spacing" textLength="65.7427" x="281.437" y="19.4951">Voice SDK</text><rect fill="#999999" fill-opacity="0.33333" height="823.4759" style="stroke:#0A9EFD;stroke-width:0.5;" width="99.3154" x="491.91" y="6"/><text fill="#0A9EFD" font-family="sans-serif" font-size="13" font-weight="700" lengthAdjust="spacing" textLength="85.9473" x="494.91" y="21.7217">Agora SDRTN</text><text fill="#0A9EFD" font-family="sans-serif" font-size="10" font-weight="700" lengthAdjust="spacing" textLength="7.3682" x="580.8573" y="16.3809">&#174;</text><rect fill="#0A9EFD" fill-opacity="0.06667" height="60.8462" style="stroke:#0A9EFD;stroke-width:2;" width="335.6417" x="10" y="87.2448"/><rect fill="#0A9EFD" fill-opacity="0.06667" height="74.8462" style="stroke:#0A9EFD;stroke-width:2;" width="562.901" x="10" y="162.091"/><rect fill="#0A9EFD" fill-opacity="0.06667" height="133.6924" style="stroke:#0A9EFD;stroke-width:2;" width="562.901" x="10" y="250.9372"/><rect fill="#0A9EFD" fill-opacity="0.06667" height="221.4873" style="stroke:#0A9EFD;stroke-width:2;" width="562.901" x="10" y="398.6296"/><rect fill="#0A9EFD" fill-opacity="0.06667" height="133.6924" style="stroke:#0A9EFD;stroke-width:2;" width="562.901" x="10" y="634.1169"/><g class="participant-lifeline" data-entity-uid="part1" data-qualified-name="APP" data-source-line="4" id="part1-lifeline"><g><title>.size.40...tablet.</title><rect fill="#000000" fill-opacity="0.00000" height="714.5645" width="8" x="37.3333" y="70.2448"/><line style="stroke:#0A9EFD;stroke-width:0.5;stroke-dasharray:5,5;" x1="41" x2="41" y1="70.2448" y2="784.8092"/></g></g><g class="participant-lifeline" data-entity-uid="part2" data-qualified-name="SDK" data-source-line="8" id="part2-lifeline"><g><title>.size.40...layers.</title><rect fill="#000000" fill-opacity="0.00000" height="714.5645" width="8" x="310.3083" y="70.2448"/><line style="stroke:#0A9EFD;stroke-width:0.5;stroke-dasharray:5,5;" x1="313.975" x2="313.975" y1="70.2448" y2="784.8092"/></g></g><g class="participant-lifeline" data-entity-uid="part3" data-qualified-name="RTN" data-source-line="12" id="part3-lifeline"><g><title>.size.40...cloud.</title><rect fill="#000000" fill-opacity="0.00000" height="714.5645" width="8" x="537.5677" y="70.2448"/><line style="stroke:#0A9EFD;stroke-width:0.5;stroke-dasharray:5,5;" x1="541.2344" x2="541.2344" y1="70.2448" y2="784.8092"/></g></g><g class="participant participant-head" data-entity-uid="part1" data-qualified-name="APP" data-source-line="4" id="part1-head"><rect fill="none" height="40.6667" rx="2.5" ry="2.5" style="stroke:#0A9EFD;stroke-width:2;" width="42.6667" x="20" y="28.5781"/><path d="M29.1333,35.5781 C28.5333,35.5781 28,36.1115 28,36.7115 L28,61.0781 C28,61.6781 28.5333,62.2115 29.1333,62.2115 L50.1667,62.2115 C50.7667,62.2115 51.3,61.6781 51.3,61.0781 L51.3,36.7115 C51.3,36.1115 50.7667,35.5781 50.1667,35.5781 L29.1333,35.5781 M31.3333,38.9115 L48,38.9115 L48,55.5781 L31.3333,55.5781 L31.3333,38.9115 M39.6667,57.2448 C40.9333,57.2448 41.7667,58.6448 41.1333,59.7448 C40.5,60.8448 38.8667,60.8448 38.2,59.7448 C37.5667,58.6448 38.3667,57.2448 39.6667,57.2448" fill="#0A9EFD"/></g><g class="participant participant-tail" data-entity-uid="part1" data-qualified-name="APP" data-source-line="4" id="part1-tail"><rect fill="none" height="40.6667" rx="2.5" ry="2.5" style="stroke:#0A9EFD;stroke-width:2;" width="42.6667" x="20" y="783.8092"/><path d="M29.1333,790.8092 C28.5333,790.8092 28,791.3426 28,791.9426 L28,816.3092 C28,816.9092 28.5333,817.4426 29.1333,817.4426 L50.1667,817.4426 C50.7667,817.4426 51.3,816.9092 51.3,816.3092 L51.3,791.9426 C51.3,791.3426 50.7667,790.8092 50.1667,790.8092 L29.1333,790.8092 M31.3333,794.1426 L48,794.1426 L48,810.8092 L31.3333,810.8092 L31.3333,794.1426 M39.6667,812.4759 C40.9333,812.4759 41.7667,813.8759 41.1333,814.9759 C40.5,816.0759 38.8667,816.0759 38.2,814.9759 C37.5667,813.8759 38.3667,812.4759 39.6667,812.4759" fill="#0A9EFD"/></g><g class="participant participant-head" data-entity-uid="part2" data-qualified-name="SDK" data-source-line="8" id="part2-head"><rect fill="none" height="40.6667" rx="2.5" ry="2.5" style="stroke:#0A9EFD;stroke-width:2;" width="42.6667" x="292.975" y="28.5781"/><path d="M300.975,35.5781 L300.975,48.9115 L314.3083,48.9115 L314.3083,35.5781 L300.975,35.5781 M317.6417,42.2448 L317.6417,52.2448 L307.6417,52.2448 L307.6417,55.5781 L320.975,55.5781 L320.975,42.2448 L317.6417,42.2448 M324.3083,48.9115 L324.3083,58.9115 L314.3083,58.9115 L314.3083,62.2448 L327.6417,62.2448 L327.6417,48.9115 L324.3083,48.9115" fill="#0A9EFD"/></g><g class="participant participant-tail" data-entity-uid="part2" data-qualified-name="SDK" data-source-line="8" id="part2-tail"><rect fill="none" height="40.6667" rx="2.5" ry="2.5" style="stroke:#0A9EFD;stroke-width:2;" width="42.6667" x="292.975" y="783.8092"/><path d="M300.975,790.8092 L300.975,804.1426 L314.3083,804.1426 L314.3083,790.8092 L300.975,790.8092 M317.6417,797.4759 L317.6417,807.4759 L307.6417,807.4759 L307.6417,810.8092 L320.975,810.8092 L320.975,797.4759 L317.6417,797.4759 M324.3083,804.1426 L324.3083,814.1426 L314.3083,814.1426 L314.3083,817.4759 L327.6417,817.4759 L327.6417,804.1426 L324.3083,804.1426" fill="#0A9EFD"/></g><g class="participant participant-head" data-entity-uid="part3" data-qualified-name="RTN" data-source-line="12" id="part3-head"><rect fill="none" height="40.6667" rx="2.5" ry="2.5" style="stroke:#0A9EFD;stroke-width:2;" width="42.6667" x="520.2344" y="28.5781"/><path d="M543.2344,38.9115 C539.201,38.9115 535.6677,41.7781 534.901,45.5781 C531.2344,45.5781 528.2344,48.5781 528.2344,52.2448 C528.2344,55.9115 531.2344,58.9115 534.901,58.9115 L549.901,58.9115 C552.6677,58.9115 554.901,56.6781 554.901,53.9115 C554.901,51.7448 553.501,49.6115 551.5677,48.9115 L551.5677,47.2448 C551.5677,42.6448 547.8344,38.9115 543.2344,38.9115" fill="#0A9EFD"/></g><g class="participant participant-tail" data-entity-uid="part3" data-qualified-name="RTN" data-source-line="12" id="part3-tail"><rect fill="none" height="40.6667" rx="2.5" ry="2.5" style="stroke:#0A9EFD;stroke-width:2;" width="42.6667" x="520.2344" y="783.8092"/><path d="M543.2344,794.1426 C539.201,794.1426 535.6677,797.0092 534.901,800.8092 C531.2344,800.8092 528.2344,803.8092 528.2344,807.4759 C528.2344,811.1426 531.2344,814.1426 534.901,814.1426 L549.901,814.1426 C552.6677,814.1426 554.901,811.9092 554.901,809.1426 C554.901,806.9759 553.501,804.8426 551.5677,804.1426 L551.5677,802.4759 C551.5677,797.8759 547.8344,794.1426 543.2344,794.1426" fill="#0A9EFD"/></g><path d="M10,87.2448 L169.1689,87.2448 L169.1689,94.1935 L159.1689,104.1935 L10,104.1935 L10,87.2448" fill="#EEEEEE" style="stroke:#0A9EFD;stroke-width:1.5;"/><rect fill="none" height="60.8462" style="stroke:#0A9EFD;stroke-width:2;" width="335.6417" x="10" y="87.2448"/><text fill="#000000" font-family="Arial" font-size="13" lengthAdjust="spacing" textLength="114.1689" x="25" y="100.4386">Create a local client</text><g class="message" data-entity-1="part1" data-entity-2="part2" data-source-line="16" id="msg1"><polygon fill="#0A9EFD" points="302.3083,136.091,312.3083,140.091,302.3083,144.091,306.3083,140.091" style="stroke:#0A9EFD;stroke-width:1;stroke-linejoin:miter;stroke-miterlimit:10;"/><line style="stroke:#0A9EFD;stroke-width:2;" x1="41.3333" x2="308.3083" y1="140.091" y2="140.091"/><text fill="#0A9EFD" font-family="Arial" font-size="13" lengthAdjust="spacing" textLength="134.3862" x="110.6277" y="120.3874">AgoraRTC.createClient</text><text fill="#0A9EFD" font-family="Arial" font-size="13" lengthAdjust="spacing" textLength="93.1138" x="133.0699" y="135.3361">Set mode to 'rtc'</text></g><path d="M10,162.091 L127.998,162.091 L127.998,169.0397 L117.998,179.0397 L10,179.0397 L10,162.091" fill="#EEEEEE" style="stroke:#0A9EFD;stroke-width:1.5;"/><rect fill="none" height="74.8462" style="stroke:#0A9EFD;stroke-width:2;" width="562.901" x="10" y="162.091"/><text fill="#000000" font-family="Arial" font-size="13" lengthAdjust="spacing" textLength="72.998" x="25" y="175.2848">Join channel</text><g class="message" data-entity-1="part1" data-entity-2="part2" data-source-line="20" id="msg2"><polygon fill="#0A9EFD" points="302.3083,195.9884,312.3083,199.9884,302.3083,203.9884,306.3083,199.9884" style="stroke:#0A9EFD;stroke-width:1;stroke-linejoin:miter;stroke-miterlimit:10;"/><line style="stroke:#0A9EFD;stroke-width:2;" x1="41.3333" x2="308.3083" y1="199.9884" y2="199.9884"/><text fill="#0A9EFD" font-family="Arial" font-size="13" lengthAdjust="spacing" textLength="118.4917" x="118.575" y="195.2336">AgoraRTCClient.join</text></g><g class="message" data-entity-1="part2" data-entity-2="part3" data-source-line="21" id="msg3"><polygon fill="#0A9EFD" points="529.5677,224.9372,539.5677,228.9372,529.5677,232.9372,533.5677,228.9372" style="stroke:#0A9EFD;stroke-width:1;stroke-linejoin:miter;stroke-miterlimit:10;"/><line style="stroke:#0A9EFD;stroke-width:2;" x1="314.3083" x2="535.5677" y1="228.9372" y2="228.9372"/><text fill="#0A9EFD" font-family="Arial" font-size="13" lengthAdjust="spacing" textLength="119.9707" x="367.9527" y="224.1823">Join channel request</text></g><path d="M10,250.9372 L261.6797,250.9372 L261.6797,257.8859 L251.6797,267.8859 L10,267.8859 L10,250.9372" fill="#EEEEEE" style="stroke:#0A9EFD;stroke-width:1.5;"/><rect fill="none" height="133.6924" style="stroke:#0A9EFD;stroke-width:2;" width="562.901" x="10" y="250.9372"/><text fill="#000000" font-family="Arial" font-size="13" lengthAdjust="spacing" textLength="206.6797" x="25" y="264.131">Create and publish local audio track</text><g class="message" data-entity-1="part1" data-entity-2="part2" data-source-line="25" id="msg4"><polygon fill="#0A9EFD" points="302.3083,299.7834,312.3083,303.7834,302.3083,307.7834,306.3083,303.7834" style="stroke:#0A9EFD;stroke-width:1;stroke-linejoin:miter;stroke-miterlimit:10;"/><line style="stroke:#0A9EFD;stroke-width:2;" x1="41.3333" x2="308.3083" y1="303.7834" y2="303.7834"/><text fill="#0A9EFD" font-family="Arial" font-size="13" lengthAdjust="spacing" textLength="136.5698" x="109.5359" y="284.0798">Create local audio track</text><text fill="#0A9EFD" font-family="Arial" font-size="13" lengthAdjust="spacing" textLength="234.8252" x="62.2142" y="299.0285">AgoraRTC.createMicrophoneAudioTrack</text></g><g class="message" data-entity-1="part1" data-entity-2="part2" data-source-line="26" id="msg5"><polygon fill="#0A9EFD" points="302.3083,343.6808,312.3083,347.6808,302.3083,351.6808,306.3083,347.6808" style="stroke:#0A9EFD;stroke-width:1;stroke-linejoin:miter;stroke-miterlimit:10;"/><line style="stroke:#0A9EFD;stroke-width:2;" x1="41.3333" x2="308.3083" y1="347.6808" y2="347.6808"/><text fill="#0A9EFD" font-family="Arial" font-size="13" lengthAdjust="spacing" textLength="140.188" x="107.7268" y="327.9772">Publish local audio track</text><text fill="#0A9EFD" font-family="Arial" font-size="13" lengthAdjust="spacing" textLength="139.4517" x="109.9009" y="342.9259">AgoraRTCClient.publish</text></g><g class="message" data-entity-1="part2" data-entity-2="part3" data-source-line="27" id="msg6"><polygon fill="#0A9EFD" points="529.5677,372.6296,539.5677,376.6296,529.5677,380.6296,533.5677,376.6296" style="stroke:#0A9EFD;stroke-width:1;stroke-linejoin:miter;stroke-miterlimit:10;"/><line style="stroke:#0A9EFD;stroke-width:2;" x1="314.3083" x2="535.5677" y1="376.6296" y2="376.6296"/><text fill="#0A9EFD" font-family="Arial" font-size="13" lengthAdjust="spacing" textLength="94.6943" x="380.5909" y="371.8747">Send audio data</text></g><path d="M10,398.6296 L206.7344,398.6296 L206.7344,405.5783 L196.7344,415.5783 L10,415.5783 L10,398.6296" fill="#EEEEEE" style="stroke:#0A9EFD;stroke-width:1.5;"/><rect fill="none" height="221.4873" style="stroke:#0A9EFD;stroke-width:2;" width="562.901" x="10" y="398.6296"/><text fill="#000000" font-family="Arial" font-size="13" lengthAdjust="spacing" textLength="151.7344" x="25" y="411.8234">Subscribe to remote users</text><g class="message" data-entity-1="part3" data-entity-2="part1" data-source-line="31" id="msg7"><polygon fill="#0A9EFD" points="52.3333,447.4757,42.3333,451.4757,52.3333,455.4757,48.3333,451.4757" style="stroke:#0A9EFD;stroke-width:1;stroke-linejoin:miter;stroke-miterlimit:10;"/><line style="stroke:#0A9EFD;stroke-width:2;stroke-dasharray:2,2;" x1="46.3333" x2="540.5677" y1="451.4757" y2="451.4757"/><text fill="#0A9EFD" font-family="Arial" font-size="13" lengthAdjust="spacing" textLength="192.9307" x="194.9852" y="431.7721">Remote users publish audio track</text><text fill="#0A9EFD" font-family="Arial" font-size="13" lengthAdjust="spacing" textLength="151.582" x="217.4654" y="446.7209">client.on("user-published")</text></g><g class="message" data-entity-1="part1" data-entity-2="part2" data-source-line="32" id="msg8"><polygon fill="#0A9EFD" points="302.3083,491.3732,312.3083,495.3732,302.3083,499.3732,306.3083,495.3732" style="stroke:#0A9EFD;stroke-width:1;stroke-linejoin:miter;stroke-miterlimit:10;"/><line style="stroke:#0A9EFD;stroke-width:2;" x1="41.3333" x2="308.3083" y1="495.3732" y2="495.3732"/><text fill="#0A9EFD" font-family="Arial" font-size="13" lengthAdjust="spacing" textLength="132.228" x="111.7068" y="475.6696">Get remote user object</text><text fill="#0A9EFD" font-family="Arial" font-size="13" lengthAdjust="spacing" textLength="172.6626" x="93.2955" y="490.6183">AgoraRTCClient.remoteUsers</text></g><g class="message" data-entity-1="part1" data-entity-2="part2" data-source-line="33" id="msg9"><polygon fill="#0A9EFD" points="302.3083,535.2707,312.3083,539.2707,302.3083,543.2707,306.3083,539.2707" style="stroke:#0A9EFD;stroke-width:1;stroke-linejoin:miter;stroke-miterlimit:10;"/><line style="stroke:#0A9EFD;stroke-width:2;" x1="41.3333" x2="308.3083" y1="539.2707" y2="539.2707"/><text fill="#0A9EFD" font-family="Arial" font-size="13" lengthAdjust="spacing" textLength="183.5361" x="86.0528" y="519.5671">Subscribe to remote user object</text><text fill="#0A9EFD" font-family="Arial" font-size="13" lengthAdjust="spacing" textLength="153.8926" x="102.6805" y="534.5158">AgoraRTCClient.subscribe</text></g><g class="message" data-entity-1="part3" data-entity-2="part2" data-source-line="34" id="msg10"><polygon fill="#0A9EFD" points="325.3083,564.2194,315.3083,568.2194,325.3083,572.2194,321.3083,568.2194" style="stroke:#0A9EFD;stroke-width:1;stroke-linejoin:miter;stroke-miterlimit:10;"/><line style="stroke:#0A9EFD;stroke-width:2;" x1="319.3083" x2="540.5677" y1="568.2194" y2="568.2194"/><text fill="#0A9EFD" font-family="Arial" font-size="13" lengthAdjust="spacing" textLength="111.2998" x="372.2881" y="563.4645">Receive audio data</text></g><g class="message" data-entity-1="part1" data-entity-2="part2" data-source-line="35" id="msg11"><polygon fill="#0A9EFD" points="302.3083,608.1169,312.3083,612.1169,302.3083,616.1169,306.3083,612.1169" style="stroke:#0A9EFD;stroke-width:1;stroke-linejoin:miter;stroke-miterlimit:10;"/><line style="stroke:#0A9EFD;stroke-width:2;" x1="41.3333" x2="308.3083" y1="612.1169" y2="612.1169"/><text fill="#0A9EFD" font-family="Arial" font-size="13" lengthAdjust="spacing" textLength="138.7471" x="108.4473" y="592.4132">Get remote audio object</text><text fill="#0A9EFD" font-family="Arial" font-size="13" lengthAdjust="spacing" textLength="202.2935" x="78.48" y="607.362">AgoraRTCRemoteUser.audioTrack</text></g><path d="M10,634.1169 L161.2534,634.1169 L161.2534,641.0656 L151.2534,651.0656 L10,651.0656 L10,634.1169" fill="#EEEEEE" style="stroke:#0A9EFD;stroke-width:1.5;"/><rect fill="none" height="133.6924" style="stroke:#0A9EFD;stroke-width:2;" width="562.901" x="10" y="634.1169"/><text fill="#000000" font-family="Arial" font-size="13" lengthAdjust="spacing" textLength="106.2534" x="25" y="647.3107">Leave the channel</text><g class="message" data-entity-1="part1" data-entity-2="part2" data-source-line="39" id="msg12"><polygon fill="#0A9EFD" points="302.3083,682.9631,312.3083,686.9631,302.3083,690.9631,306.3083,686.9631" style="stroke:#0A9EFD;stroke-width:1;stroke-linejoin:miter;stroke-miterlimit:10;"/><line style="stroke:#0A9EFD;stroke-width:2;" x1="41.3333" x2="308.3083" y1="686.9631" y2="686.9631"/><text fill="#0A9EFD" font-family="Arial" font-size="13" lengthAdjust="spacing" textLength="164.0298" x="95.8059" y="667.2594">Turn off the local audio track</text><text fill="#0A9EFD" font-family="Arial" font-size="13" lengthAdjust="spacing" textLength="167.6353" x="95.8091" y="682.2082">MicrophoneAudioTrack.close</text></g><g class="message" data-entity-1="part1" data-entity-2="part2" data-source-line="40" id="msg13"><polygon fill="#0A9EFD" points="302.3083,726.8605,312.3083,730.8605,302.3083,734.8605,306.3083,730.8605" style="stroke:#0A9EFD;stroke-width:1;stroke-linejoin:miter;stroke-miterlimit:10;"/><line style="stroke:#0A9EFD;stroke-width:2;" x1="41.3333" x2="308.3083" y1="730.8605" y2="730.8605"/><text fill="#0A9EFD" font-family="Arial" font-size="13" lengthAdjust="spacing" textLength="106.2534" x="124.6941" y="711.1569">Leave the channel</text><text fill="#0A9EFD" font-family="Arial" font-size="13" lengthAdjust="spacing" textLength="129.3335" x="114.96" y="726.1056">AgoraRTCClient.leave</text></g><g class="message" data-entity-1="part2" data-entity-2="part3" data-source-line="41" id="msg14"><polygon fill="#0A9EFD" points="529.5677,755.8092,539.5677,759.8092,529.5677,763.8092,533.5677,759.8092" style="stroke:#0A9EFD;stroke-width:1;stroke-linejoin:miter;stroke-miterlimit:10;"/><line style="stroke:#0A9EFD;stroke-width:2;" x1="314.3083" x2="535.5677" y1="759.8092" y2="759.8092"/><text fill="#0A9EFD" font-family="Arial" font-size="13" lengthAdjust="spacing" textLength="168.397" x="343.7395" y="755.0544">Request to leave the channel</text></g><?plantuml-src TPFBRjim44Nt-egf5acpaD95LuOWm7200Ea3XknaLQ2Wg4dCX2PLFegs7zMFo9Tbg4V2MD9A07ddpBqpr0UXkFGD0dlGXlsqJqBbmXzbajJw3wJhjasJbXadk6YPSf0MLlp3rUTFPN7cM2tHbIam2-ljDa7L05KDfNTQS8JTrPTbW6H_qTWUGC8Jm3euelDg_xsmlYsV_nUNuRlCurBxfiTHqHlkmMZVmiOWSnGKfEPC0fS2bKl8U5PIynLq_Qhz9kUTSDFT_r2mGmT7JIDo6iwDu-S1F49lj5303qmfb3Ei7f8_aYgXYwmaNwjtHM3mbqVhOkZebFotlfR27WRFp3T2WpECFqND1lb4GjvFCdqJtEZse1MkWsn_0jekDOj8GwB1LnHg5yRTrpJCiJZFpjUM6r5t8pHurEJMMrfzw5raMLTVHUUliTzxw5UMQ_Kn3R9iK66JNaGfhcbVKHFGzIDoDutGQsv77qFrajT5Z1qBmYoACGj7yHlZSSpww-ydvEhLMSxUzXGDz2ioehi3pZozlJSAzFrzTpstoRb7aDElOp6YJ3fCWyiWYHv0rJ_aC3SvyHVClm00?></g></svg>