<svg xmlns="http://www.w3.org/2000/svg" xmlns:xlink="http://www.w3.org/1999/xlink" contentStyleType="text/css" data-diagram-type="SEQUENCE" height="788px" preserveAspectRatio="none" style="width:820px;height:788px;" version="1.1" viewBox="0 0 820 788" width="820px" zoomAndPan="magnify"><?plantuml 1.2026.4?><defs/><g><rect fill="none" height="786.557" style="stroke:#0A9EFD;stroke-width:1;" width="818.7004" x="0" y="0"/><rect fill="#999999" fill-opacity="0.33333" height="775.557" style="stroke:#0A9EFD;stroke-width:0.5;" width="68.0991" x="7.2838" y="6"/><text fill="#0A9EFD" font-family="sans-serif" font-size="13" font-weight="700" lengthAdjust="spacing" textLength="62.0991" x="10.2838" y="19.4951">App: Host</text><rect fill="#999999" fill-opacity="0.33333" height="775.557" style="stroke:#0A9EFD;stroke-width:0.5;" width="72.4536" x="359.453" y="6"/><text fill="#0A9EFD" font-family="sans-serif" font-size="13" font-weight="700" lengthAdjust="spacing" textLength="66.4536" x="362.453" y="19.4951">Video SDK</text><rect fill="#999999" fill-opacity="0.33333" height="775.557" style="stroke:#0A9EFD;stroke-width:0.5;" width="97.7236" x="715.9768" y="6"/><text fill="#0A9EFD" font-family="sans-serif" font-size="13" font-weight="700" lengthAdjust="spacing" textLength="91.7236" x="718.9768" y="19.4951">App: Audience</text><rect fill="#0A9EFD" fill-opacity="0.06667" height="74.8462" style="stroke:#0A9EFD;stroke-width:2;" width="786.172" x="10" y="85.0182"/><rect fill="#0A9EFD" fill-opacity="0.06667" height="103.7949" style="stroke:#0A9EFD;stroke-width:2;" width="417.0132" x="10" y="173.8644"/><rect fill="#0A9EFD" fill-opacity="0.06667" height="132.7437" style="stroke:#0A9EFD;stroke-width:2;" width="786.172" x="10" y="291.6593"/><rect fill="#0A9EFD" fill-opacity="0.06667" height="132.7437" style="stroke:#0A9EFD;stroke-width:2;" width="786.172" x="10" y="438.403"/><rect fill="#0A9EFD" fill-opacity="0.06667" height="45.8975" style="stroke:#0A9EFD;stroke-width:2;" width="431.8254" x="364.3465" y="585.1466"/><rect fill="#0A9EFD" fill-opacity="0.06667" height="74.8462" style="stroke:#0A9EFD;stroke-width:2;" width="786.172" x="10" y="645.0441"/><g class="participant-lifeline" data-entity-uid="part1" data-qualified-name="HST" data-source-line="5" id="part1-lifeline"><g><title>.size.40...tablet.</title><rect fill="#000000" fill-opacity="0.00000" height="668.8721" width="8" x="37.3333" y="68.0182"/><line style="stroke:#0A9EFD;stroke-width:0.5;stroke-dasharray:5,5;" x1="41" x2="41" y1="68.0182" y2="736.8903"/></g></g><g class="participant-lifeline" data-entity-uid="part2" data-qualified-name="SDK" data-source-line="9" id="part2-lifeline"><g><title>.size.40...layers.</title><rect fill="#000000" fill-opacity="0.00000" height="668.8721" width="8" x="391.6799" y="68.0182"/><line style="stroke:#0A9EFD;stroke-width:0.5;stroke-dasharray:5,5;" x1="395.3465" x2="395.3465" y1="68.0182" y2="736.8903"/></g></g><g class="participant-lifeline" data-entity-uid="part3" data-qualified-name="AUD" data-source-line="13" id="part3-lifeline"><g><title>.size.40...tablet.</title><rect fill="#000000" fill-opacity="0.00000" height="668.8721" width="8" x="760.8386" y="68.0182"/><line style="stroke:#0A9EFD;stroke-width:0.5;stroke-dasharray:5,5;" x1="764.5053" x2="764.5053" y1="68.0182" y2="736.8903"/></g></g><g class="participant participant-head" data-entity-uid="part1" data-qualified-name="HST" data-source-line="5" id="part1-head"><rect fill="none" height="40.6667" rx="2.5" ry="2.5" style="stroke:#0A9EFD;stroke-width:2;" width="42.6667" x="20" y="26.3516"/><path d="M29.1333,33.3516 C28.5333,33.3516 28,33.8849 28,34.4849 L28,58.8516 C28,59.4516 28.5333,59.9849 29.1333,59.9849 L50.1667,59.9849 C50.7667,59.9849 51.3,59.4516 51.3,58.8516 L51.3,34.4849 C51.3,33.8849 50.7667,33.3516 50.1667,33.3516 L29.1333,33.3516 M31.3333,36.6849 L48,36.6849 L48,53.3516 L31.3333,53.3516 L31.3333,36.6849 M39.6667,55.0182 C40.9333,55.0182 41.7667,56.4182 41.1333,57.5182 C40.5,58.6182 38.8667,58.6182 38.2,57.5182 C37.5667,56.4182 38.3667,55.0182 39.6667,55.0182" fill="#0A9EFD"/></g><g class="participant participant-tail" data-entity-uid="part1" data-qualified-name="HST" data-source-line="5" id="part1-tail"><rect fill="none" height="40.6667" rx="2.5" ry="2.5" style="stroke:#0A9EFD;stroke-width:2;" width="42.6667" x="20" y="735.8903"/><path d="M29.1333,742.8903 C28.5333,742.8903 28,743.4236 28,744.0236 L28,768.3903 C28,768.9903 28.5333,769.5236 29.1333,769.5236 L50.1667,769.5236 C50.7667,769.5236 51.3,768.9903 51.3,768.3903 L51.3,744.0236 C51.3,743.4236 50.7667,742.8903 50.1667,742.8903 L29.1333,742.8903 M31.3333,746.2236 L48,746.2236 L48,762.8903 L31.3333,762.8903 L31.3333,746.2236 M39.6667,764.557 C40.9333,764.557 41.7667,765.957 41.1333,767.057 C40.5,768.157 38.8667,768.157 38.2,767.057 C37.5667,765.957 38.3667,764.557 39.6667,764.557" fill="#0A9EFD"/></g><g class="participant participant-head" data-entity-uid="part2" data-qualified-name="SDK" data-source-line="9" id="part2-head"><rect fill="none" height="40.6667" rx="2.5" ry="2.5" style="stroke:#0A9EFD;stroke-width:2;" width="42.6667" x="374.3465" y="26.3516"/><path d="M382.3465,33.3516 L382.3465,46.6849 L395.6799,46.6849 L395.6799,33.3516 L382.3465,33.3516 M399.0132,40.0182 L399.0132,50.0182 L389.0132,50.0182 L389.0132,53.3516 L402.3465,53.3516 L402.3465,40.0182 L399.0132,40.0182 M405.6799,46.6849 L405.6799,56.6849 L395.6799,56.6849 L395.6799,60.0182 L409.0132,60.0182 L409.0132,46.6849 L405.6799,46.6849" fill="#0A9EFD"/></g><g class="participant participant-tail" data-entity-uid="part2" data-qualified-name="SDK" data-source-line="9" id="part2-tail"><rect fill="none" height="40.6667" rx="2.5" ry="2.5" style="stroke:#0A9EFD;stroke-width:2;" width="42.6667" x="374.3465" y="735.8903"/><path d="M382.3465,742.8903 L382.3465,756.2236 L395.6799,756.2236 L395.6799,742.8903 L382.3465,742.8903 M399.0132,749.557 L399.0132,759.557 L389.0132,759.557 L389.0132,762.8903 L402.3465,762.8903 L402.3465,749.557 L399.0132,749.557 M405.6799,756.2236 L405.6799,766.2236 L395.6799,766.2236 L395.6799,769.557 L409.0132,769.557 L409.0132,756.2236 L405.6799,756.2236" fill="#0A9EFD"/></g><g class="participant participant-head" data-entity-uid="part3" data-qualified-name="AUD" data-source-line="13" id="part3-head"><rect fill="none" height="40.6667" rx="2.5" ry="2.5" style="stroke:#0A9EFD;stroke-width:2;" width="42.6667" x="743.5053" y="26.3516"/><path d="M752.6386,33.3516 C752.0386,33.3516 751.5053,33.8849 751.5053,34.4849 L751.5053,58.8516 C751.5053,59.4516 752.0386,59.9849 752.6386,59.9849 L773.672,59.9849 C774.272,59.9849 774.8053,59.4516 774.8053,58.8516 L774.8053,34.4849 C774.8053,33.8849 774.272,33.3516 773.672,33.3516 L752.6386,33.3516 M754.8386,36.6849 L771.5053,36.6849 L771.5053,53.3516 L754.8386,53.3516 L754.8386,36.6849 M763.172,55.0182 C764.4386,55.0182 765.272,56.4182 764.6386,57.5182 C764.0053,58.6182 762.372,58.6182 761.7053,57.5182 C761.072,56.4182 761.872,55.0182 763.172,55.0182" fill="#0A9EFD"/></g><g class="participant participant-tail" data-entity-uid="part3" data-qualified-name="AUD" data-source-line="13" id="part3-tail"><rect fill="none" height="40.6667" rx="2.5" ry="2.5" style="stroke:#0A9EFD;stroke-width:2;" width="42.6667" x="743.5053" y="735.8903"/><path d="M752.6386,742.8903 C752.0386,742.8903 751.5053,743.4236 751.5053,744.0236 L751.5053,768.3903 C751.5053,768.9903 752.0386,769.5236 752.6386,769.5236 L773.672,769.5236 C774.272,769.5236 774.8053,768.9903 774.8053,768.3903 L774.8053,744.0236 C774.8053,743.4236 774.272,742.8903 773.672,742.8903 L752.6386,742.8903 M754.8386,746.2236 L771.5053,746.2236 L771.5053,762.8903 L754.8386,762.8903 L754.8386,746.2236 M763.172,764.557 C764.4386,764.557 765.272,765.957 764.6386,767.057 C764.0053,768.157 762.372,768.157 761.7053,767.057 C761.072,765.957 761.872,764.557 763.172,764.557" fill="#0A9EFD"/></g><path d="M10,85.0182 L215.418,85.0182 L215.418,91.967 L205.418,101.967 L10,101.967 L10,85.0182" fill="#EEEEEE" style="stroke:#0A9EFD;stroke-width:1.5;"/><rect fill="none" height="74.8462" style="stroke:#0A9EFD;stroke-width:2;" width="786.172" x="10" y="85.0182"/><text fill="#000000" font-family="Arial" font-size="13" lengthAdjust="spacing" textLength="160.418" x="25" y="98.2121">Initialize AgoraRtcEngineKit</text><g class="message" data-entity-1="part1" data-entity-2="part2" data-source-line="17" id="msg1"><polygon fill="#0A9EFD" points="383.6799,118.9157,393.6799,122.9157,383.6799,126.9157,387.6799,122.9157" style="stroke:#0A9EFD;stroke-width:1;stroke-linejoin:miter;stroke-miterlimit:10;"/><line style="stroke:#0A9EFD;stroke-width:2;" x1="41.3333" x2="389.6799" y1="122.9157" y2="122.9157"/><text fill="#0A9EFD" font-family="Arial" font-size="13" lengthAdjust="spacing" textLength="140.2007" x="148.4063" y="118.1608">sharedEngineWithAppId</text></g><g class="message" data-entity-1="part3" data-entity-2="part2" data-source-line="18" id="msg2"><polygon fill="#0A9EFD" points="406.6799,147.8644,396.6799,151.8644,406.6799,155.8644,402.6799,151.8644" style="stroke:#0A9EFD;stroke-width:1;stroke-linejoin:miter;stroke-miterlimit:10;"/><line style="stroke:#0A9EFD;stroke-width:2;" x1="400.6799" x2="763.8386" y1="151.8644" y2="151.8644"/><text fill="#0A9EFD" font-family="Arial" font-size="13" lengthAdjust="spacing" textLength="140.2007" x="510.1589" y="147.1095">sharedEngineWithAppId</text></g><path d="M10,173.8644 L134.479,173.8644 L134.479,180.8132 L124.479,190.8132 L10,190.8132 L10,173.8644" fill="#EEEEEE" style="stroke:#0A9EFD;stroke-width:1.5;"/><rect fill="none" height="103.7949" style="stroke:#0A9EFD;stroke-width:2;" width="417.0132" x="10" y="173.8644"/><text fill="#000000" font-family="Arial" font-size="13" lengthAdjust="spacing" textLength="79.479" x="25" y="187.0583">Set local view</text><g class="message" data-entity-1="part1" data-entity-2="part2" data-source-line="22" id="msg3"><polygon fill="#0A9EFD" points="383.6799,207.7619,393.6799,211.7619,383.6799,215.7619,387.6799,211.7619" style="stroke:#0A9EFD;stroke-width:1;stroke-linejoin:miter;stroke-miterlimit:10;"/><line style="stroke:#0A9EFD;stroke-width:2;" x1="41.3333" x2="389.6799" y1="211.7619" y2="211.7619"/><text fill="#0A9EFD" font-family="Arial" font-size="13" lengthAdjust="spacing" textLength="72.2871" x="182.363" y="207.007">enableVideo</text></g><g class="message" data-entity-1="part1" data-entity-2="part2" data-source-line="23" id="msg4"><polygon fill="#0A9EFD" points="383.6799,236.7106,393.6799,240.7106,383.6799,244.7106,387.6799,240.7106" style="stroke:#0A9EFD;stroke-width:1;stroke-linejoin:miter;stroke-miterlimit:10;"/><line style="stroke:#0A9EFD;stroke-width:2;" x1="41.3333" x2="389.6799" y1="240.7106" y2="240.7106"/><text fill="#0A9EFD" font-family="Arial" font-size="13" lengthAdjust="spacing" textLength="71.519" x="182.7471" y="235.9557">startPreview</text></g><g class="message" data-entity-1="part1" data-entity-2="part2" data-source-line="24" id="msg5"><polygon fill="#0A9EFD" points="383.6799,265.6593,393.6799,269.6593,383.6799,273.6593,387.6799,269.6593" style="stroke:#0A9EFD;stroke-width:1;stroke-linejoin:miter;stroke-miterlimit:10;"/><line style="stroke:#0A9EFD;stroke-width:2;" x1="41.3333" x2="389.6799" y1="269.6593" y2="269.6593"/><text fill="#0A9EFD" font-family="Arial" font-size="13" lengthAdjust="spacing" textLength="96.1289" x="170.4421" y="264.9045">setupLocalVideo</text></g><path d="M10,291.6593 L243.6143,291.6593 L243.6143,298.6081 L233.6143,308.6081 L10,308.6081 L10,291.6593" fill="#EEEEEE" style="stroke:#0A9EFD;stroke-width:1.5;"/><rect fill="none" height="132.7437" style="stroke:#0A9EFD;stroke-width:2;" width="786.172" x="10" y="291.6593"/><text fill="#000000" font-family="Arial" font-size="13" lengthAdjust="spacing" textLength="188.6143" x="25" y="304.8532">Configure ChannelMediaOptions</text><g class="message" data-entity-1="part1" data-entity-2="part2" data-source-line="28" id="msg6"><polygon fill="#0A9EFD" points="383.6799,325.5568,393.6799,329.5568,383.6799,333.5568,387.6799,329.5568" style="stroke:#0A9EFD;stroke-width:1;stroke-linejoin:miter;stroke-miterlimit:10;"/><line style="stroke:#0A9EFD;stroke-width:2;" x1="41.3333" x2="389.6799" y1="329.5568" y2="329.5568"/><text fill="#0A9EFD" font-family="Arial" font-size="13" lengthAdjust="spacing" textLength="310.7368" x="63.1382" y="324.8019">channelProfile(AgoraChannelProfileLiveBroadcasting)</text></g><g class="message" data-entity-1="part3" data-entity-2="part2" data-source-line="29" id="msg7"><polygon fill="#0A9EFD" points="406.6799,354.5055,396.6799,358.5055,406.6799,362.5055,402.6799,358.5055" style="stroke:#0A9EFD;stroke-width:1;stroke-linejoin:miter;stroke-miterlimit:10;"/><line style="stroke:#0A9EFD;stroke-width:2;" x1="400.6799" x2="763.8386" y1="358.5055" y2="358.5055"/><text fill="#0A9EFD" font-family="Arial" font-size="13" lengthAdjust="spacing" textLength="310.7368" x="424.8908" y="353.7507">channelProfile(AgoraChannelProfileLiveBroadcasting)</text></g><g class="message" data-entity-1="part1" data-entity-2="part2" data-source-line="30" id="msg8"><polygon fill="#0A9EFD" points="383.6799,383.4543,393.6799,387.4543,383.6799,391.4543,387.6799,387.4543" style="stroke:#0A9EFD;stroke-width:1;stroke-linejoin:miter;stroke-miterlimit:10;"/><line style="stroke:#0A9EFD;stroke-width:2;" x1="41.3333" x2="389.6799" y1="387.4543" y2="387.4543"/><text fill="#0A9EFD" font-family="Arial" font-size="13" lengthAdjust="spacing" textLength="259.397" x="88.8081" y="382.6994">clientRoleType(AgoraClientRoleBroadcaster)</text></g><g class="message" data-entity-1="part3" data-entity-2="part2" data-source-line="31" id="msg9"><polygon fill="#0A9EFD" points="406.6799,412.403,396.6799,416.403,406.6799,420.403,402.6799,416.403" style="stroke:#0A9EFD;stroke-width:1;stroke-linejoin:miter;stroke-miterlimit:10;"/><line style="stroke:#0A9EFD;stroke-width:2;" x1="400.6799" x2="763.8386" y1="416.403" y2="416.403"/><text fill="#0A9EFD" font-family="Arial" font-size="13" lengthAdjust="spacing" textLength="243.5151" x="458.5017" y="411.6481">clientRoleType(AgoraClientRoleAudience)</text></g><path d="M10,438.403 L138.8398,438.403 L138.8398,445.3517 L128.8398,455.3517 L10,455.3517 L10,438.403" fill="#EEEEEE" style="stroke:#0A9EFD;stroke-width:1.5;"/><rect fill="none" height="132.7437" style="stroke:#0A9EFD;stroke-width:2;" width="786.172" x="10" y="438.403"/><text fill="#000000" font-family="Arial" font-size="13" lengthAdjust="spacing" textLength="83.8398" x="25" y="451.5968">Join a channel</text><g class="message" data-entity-1="part1" data-entity-2="part2" data-source-line="35" id="msg10"><polygon fill="#0A9EFD" points="383.6799,472.3005,393.6799,476.3005,383.6799,480.3005,387.6799,476.3005" style="stroke:#0A9EFD;stroke-width:1;stroke-linejoin:miter;stroke-miterlimit:10;"/><line style="stroke:#0A9EFD;stroke-width:2;" x1="41.3333" x2="389.6799" y1="476.3005" y2="476.3005"/><text fill="#0A9EFD" font-family="Arial" font-size="13" lengthAdjust="spacing" textLength="158.2661" x="139.3735" y="471.5456">joinChannel(demoChannel)</text></g><g class="message" data-entity-1="part2" data-entity-2="part3" data-source-line="36" id="msg11"><polygon fill="#0A9EFD" points="752.8386,501.2492,762.8386,505.2492,752.8386,509.2492,756.8386,505.2492" style="stroke:#0A9EFD;stroke-width:1;stroke-linejoin:miter;stroke-miterlimit:10;"/><line style="stroke:#0A9EFD;stroke-width:2;stroke-dasharray:2,2;" x1="395.6799" x2="758.8386" y1="505.2492" y2="505.2492"/><text fill="#0A9EFD" font-family="Arial" font-size="13" lengthAdjust="spacing" textLength="122.8525" x="518.833" y="500.4943">didJoinChannel(host)</text></g><g class="message" data-entity-1="part3" data-entity-2="part2" data-source-line="37" id="msg12"><polygon fill="#0A9EFD" points="406.6799,530.1979,396.6799,534.1979,406.6799,538.1979,402.6799,534.1979" style="stroke:#0A9EFD;stroke-width:1;stroke-linejoin:miter;stroke-miterlimit:10;"/><line style="stroke:#0A9EFD;stroke-width:2;" x1="400.6799" x2="763.8386" y1="534.1979" y2="534.1979"/><text fill="#0A9EFD" font-family="Arial" font-size="13" lengthAdjust="spacing" textLength="158.2661" x="501.1262" y="529.443">joinChannel(demoChannel)</text></g><g class="message" data-entity-1="part2" data-entity-2="part1" data-source-line="38" id="msg13"><polygon fill="#0A9EFD" points="52.3333,559.1466,42.3333,563.1466,52.3333,567.1466,48.3333,563.1466" style="stroke:#0A9EFD;stroke-width:1;stroke-linejoin:miter;stroke-miterlimit:10;"/><line style="stroke:#0A9EFD;stroke-width:2;stroke-dasharray:2,2;" x1="46.3333" x2="394.6799" y1="563.1466" y2="563.1466"/><text fill="#0A9EFD" font-family="Arial" font-size="13" lengthAdjust="spacing" textLength="151.0488" x="142.9822" y="558.3918">didJoinChannel(audience)</text></g><path d="M364.3465,585.1466 L520.6209,585.1466 L520.6209,592.0954 L510.6209,602.0954 L364.3465,602.0954 L364.3465,585.1466" fill="#EEEEEE" style="stroke:#0A9EFD;stroke-width:1.5;"/><rect fill="none" height="45.8975" style="stroke:#0A9EFD;stroke-width:2;" width="431.8254" x="364.3465" y="585.1466"/><text fill="#000000" font-family="Arial" font-size="13" lengthAdjust="spacing" textLength="111.2744" x="379.3465" y="598.3405">Set up remote view</text><g class="message" data-entity-1="part3" data-entity-2="part2" data-source-line="42" id="msg14"><polygon fill="#0A9EFD" points="406.6799,619.0441,396.6799,623.0441,406.6799,627.0441,402.6799,623.0441" style="stroke:#0A9EFD;stroke-width:1;stroke-linejoin:miter;stroke-miterlimit:10;"/><line style="stroke:#0A9EFD;stroke-width:2;" x1="400.6799" x2="763.8386" y1="623.0441" y2="623.0441"/><text fill="#0A9EFD" font-family="Arial" font-size="13" lengthAdjust="spacing" textLength="110.5698" x="524.9743" y="618.2892">setupRemoteVideo</text></g><path d="M10,645.0441 L241.4561,645.0441 L241.4561,651.9928 L231.4561,661.9928 L10,661.9928 L10,645.0441" fill="#EEEEEE" style="stroke:#0A9EFD;stroke-width:1.5;"/><rect fill="none" height="74.8462" style="stroke:#0A9EFD;stroke-width:2;" width="786.172" x="10" y="645.0441"/><text fill="#000000" font-family="Arial" font-size="13" lengthAdjust="spacing" textLength="186.4561" x="25" y="658.238">Start audio and video interaction</text><g class="message" data-entity-1="part2" data-entity-2="part3" data-source-line="46" id="msg15"><polygon fill="#0A9EFD" points="752.8386,678.9416,762.8386,682.9416,752.8386,686.9416,756.8386,682.9416" style="stroke:#0A9EFD;stroke-width:1;stroke-linejoin:miter;stroke-miterlimit:10;"/><line style="stroke:#0A9EFD;stroke-width:2;stroke-dasharray:2,2;" x1="395.6799" x2="758.8386" y1="682.9416" y2="682.9416"/><text fill="#0A9EFD" font-family="Arial" font-size="13" lengthAdjust="spacing" textLength="142.3779" x="509.0703" y="678.1867">Receive audio and video</text></g><g class="message" data-entity-1="part1" data-entity-2="part2" data-source-line="47" id="msg16"><polygon fill="#0A9EFD" points="383.6799,707.8903,393.6799,711.8903,383.6799,715.8903,387.6799,711.8903" style="stroke:#0A9EFD;stroke-width:1;stroke-linejoin:miter;stroke-miterlimit:10;"/><line style="stroke:#0A9EFD;stroke-width:2;stroke-dasharray:2,2;" x1="41.3333" x2="389.6799" y1="711.8903" y2="711.8903"/><text fill="#0A9EFD" font-family="Arial" font-size="13" lengthAdjust="spacing" textLength="125.7725" x="155.6204" y="707.1354">Send audio and video</text></g><?plantuml-src dLDBJnin4BxlhvZcWCWXY0EdA8gK1YIU0cKfFLQ3FMm6ZBsolMdfh-zuDqlZf0N4QLUU-HwU-Vo5hJAD9i3AUVmHdjWUSFDiYkBU_OB1hAx7SEf271Gr-iYAQxGH1fF0lsbyT3YTx4MyDnId0y00f-LjGLQ3ODS4Twp9GNbyyNy2Wo_aGqSWZLi4hODPevciee-vc7qx_ajIUTVKS6OvCXffXrcww2Ag4rknfGkEXRY6qJHfZo4iqPFkQjyvBaN-J1V2-4w7wFLQ9KKmJg615TFFZ9riijdE95UDSgqRJpk0GB6fBnDP1zgGcJlxm5NZ2UPBj9RC5Md6wpgoio4ZKLtznhi7DhJV3c2UdLtoYhvwXrfXY6ohONRZp-0pVIFBYmjdwFQbxl6lPwyuybkoRyBwI0mtPtBks0BsXZCJZr9QczxNzEpM_yD2gZ2IBf4UWsPzlj6ubEJdfjwb4SqT6loNrnGJ-NWXYTH59OjPsloYBUwilannWSJg02Neg_QHiPKHeahxRvacer57jI15ig1jG3UUNgzCBsQx8sd-0G00?></g></svg>