<svg xmlns="http://www.w3.org/2000/svg" xmlns:xlink="http://www.w3.org/1999/xlink" contentStyleType="text/css" data-diagram-type="SEQUENCE" height="288px" preserveAspectRatio="none" style="width:625px;height:288px;" version="1.1" viewBox="0 0 625 288" width="625px" zoomAndPan="magnify"><?plantuml 1.2026.4?><defs/><g><rect fill="none" height="286.6551" style="stroke:#0A9EFD;stroke-width:1;" width="623.2233" x="0" y="0"/><rect fill="#999999" fill-opacity="0.33333" height="275.6551" style="stroke:#0A9EFD;stroke-width:0.5;" width="121.5972" x="1" y="6"/><text fill="#0A9EFD" font-family="sans-serif" font-size="13" font-weight="700" lengthAdjust="spacing" textLength="115.5972" x="4" y="19.4951">Extension process</text><rect fill="#999999" fill-opacity="0.33333" height="275.6551" style="stroke:#0A9EFD;stroke-width:0.5;" width="89.0845" x="281.6312" y="6"/><text fill="#0A9EFD" font-family="sans-serif" font-size="13" font-weight="700" lengthAdjust="spacing" textLength="83.0845" x="284.6312" y="19.4951">Main process</text><rect fill="#999999" fill-opacity="0.33333" height="275.6551" style="stroke:#0A9EFD;stroke-width:0.5;" width="99.3154" x="518.9079" y="6"/><text fill="#0A9EFD" font-family="sans-serif" font-size="13" font-weight="700" lengthAdjust="spacing" textLength="85.9473" x="521.9079" y="21.7217">Agora SDRTN</text><text fill="#0A9EFD" font-family="sans-serif" font-size="10" font-weight="700" lengthAdjust="spacing" textLength="7.3682" x="607.8551" y="16.3809">&#174;</text><rect fill="#0A9EFD" fill-opacity="0.06667" height="132.7437" style="stroke:#0A9EFD;stroke-width:2;" width="569.4337" x="30.4653" y="87.2448"/><g class="participant-lifeline" data-entity-uid="part1" data-qualified-name="EXT" data-source-line="4" id="part1-lifeline"><g><title>.size.40...plus.</title><rect fill="#000000" fill-opacity="0.00000" height="166.7437" width="8" x="57.7986" y="70.2448"/><line style="stroke:#0A9EFD;stroke-width:0.5;stroke-dasharray:5,5;" x1="61.4653" x2="61.4653" y1="70.2448" y2="236.9884"/></g></g><g class="participant-lifeline" data-entity-uid="part2" data-qualified-name="MAIN" data-source-line="8" id="part2-lifeline"><g><title>.size.40...layers.</title><rect fill="#000000" fill-opacity="0.00000" height="166.7437" width="8" x="322.1734" y="70.2448"/><line style="stroke:#0A9EFD;stroke-width:0.5;stroke-dasharray:5,5;" x1="325.8401" x2="325.8401" y1="70.2448" y2="236.9884"/></g></g><g class="participant-lifeline" data-entity-uid="part3" data-qualified-name="RTN" data-source-line="12" id="part3-lifeline"><g><title>.size.40...cloud.</title><rect fill="#000000" fill-opacity="0.00000" height="166.7437" width="8" x="564.5656" y="70.2448"/><line style="stroke:#0A9EFD;stroke-width:0.5;stroke-dasharray:5,5;" x1="568.2323" x2="568.2323" y1="70.2448" y2="236.9884"/></g></g><g class="participant participant-head" data-entity-uid="part1" data-qualified-name="EXT" data-source-line="4" id="part1-head"><rect fill="none" height="40.6667" rx="2.5" ry="2.5" style="stroke:#0A9EFD;stroke-width:2;" width="42.6667" x="40.4653" y="28.5781"/><path d="M58.4653,35.5781 L58.4653,45.5781 L48.4653,45.5781 L48.4653,52.2448 L58.4653,52.2448 L58.4653,62.2448 L65.1319,62.2448 L65.1319,52.2448 L75.1319,52.2448 L75.1319,45.5781 L65.1319,45.5781 L65.1319,35.5781 L58.4653,35.5781" fill="#0A9EFD"/></g><g class="participant participant-tail" data-entity-uid="part1" data-qualified-name="EXT" data-source-line="4" id="part1-tail"><rect fill="none" height="40.6667" rx="2.5" ry="2.5" style="stroke:#0A9EFD;stroke-width:2;" width="42.6667" x="40.4653" y="235.9884"/><path d="M58.4653,242.9884 L58.4653,252.9884 L48.4653,252.9884 L48.4653,259.6551 L58.4653,259.6551 L58.4653,269.6551 L65.1319,269.6551 L65.1319,259.6551 L75.1319,259.6551 L75.1319,252.9884 L65.1319,252.9884 L65.1319,242.9884 L58.4653,242.9884" fill="#0A9EFD"/></g><g class="participant participant-head" data-entity-uid="part2" data-qualified-name="MAIN" data-source-line="8" id="part2-head"><rect fill="none" height="40.6667" rx="2.5" ry="2.5" style="stroke:#0A9EFD;stroke-width:2;" width="42.6667" x="304.8401" y="28.5781"/><path d="M312.8401,35.5781 L312.8401,48.9115 L326.1734,48.9115 L326.1734,35.5781 L312.8401,35.5781 M329.5068,42.2448 L329.5068,52.2448 L319.5068,52.2448 L319.5068,55.5781 L332.8401,55.5781 L332.8401,42.2448 L329.5068,42.2448 M336.1734,48.9115 L336.1734,58.9115 L326.1734,58.9115 L326.1734,62.2448 L339.5068,62.2448 L339.5068,48.9115 L336.1734,48.9115" fill="#0A9EFD"/></g><g class="participant participant-tail" data-entity-uid="part2" data-qualified-name="MAIN" data-source-line="8" id="part2-tail"><rect fill="none" height="40.6667" rx="2.5" ry="2.5" style="stroke:#0A9EFD;stroke-width:2;" width="42.6667" x="304.8401" y="235.9884"/><path d="M312.8401,242.9884 L312.8401,256.3218 L326.1734,256.3218 L326.1734,242.9884 L312.8401,242.9884 M329.5068,249.6551 L329.5068,259.6551 L319.5068,259.6551 L319.5068,262.9884 L332.8401,262.9884 L332.8401,249.6551 L329.5068,249.6551 M336.1734,256.3218 L336.1734,266.3218 L326.1734,266.3218 L326.1734,269.6551 L339.5068,269.6551 L339.5068,256.3218 L336.1734,256.3218" fill="#0A9EFD"/></g><g class="participant participant-head" data-entity-uid="part3" data-qualified-name="RTN" data-source-line="12" id="part3-head"><rect fill="none" height="40.6667" rx="2.5" ry="2.5" style="stroke:#0A9EFD;stroke-width:2;" width="42.6667" x="547.2323" y="28.5781"/><path d="M570.2323,38.9115 C566.1989,38.9115 562.6656,41.7781 561.8989,45.5781 C558.2323,45.5781 555.2323,48.5781 555.2323,52.2448 C555.2323,55.9115 558.2323,58.9115 561.8989,58.9115 L576.8989,58.9115 C579.6656,58.9115 581.8989,56.6781 581.8989,53.9115 C581.8989,51.7448 580.4989,49.6115 578.5656,48.9115 L578.5656,47.2448 C578.5656,42.6448 574.8323,38.9115 570.2323,38.9115" fill="#0A9EFD"/></g><g class="participant participant-tail" data-entity-uid="part3" data-qualified-name="RTN" data-source-line="12" id="part3-tail"><rect fill="none" height="40.6667" rx="2.5" ry="2.5" style="stroke:#0A9EFD;stroke-width:2;" width="42.6667" x="547.2323" y="235.9884"/><path d="M570.2323,246.3218 C566.1989,246.3218 562.6656,249.1884 561.8989,252.9884 C558.2323,252.9884 555.2323,255.9884 555.2323,259.6551 C555.2323,263.3218 558.2323,266.3218 561.8989,266.3218 L576.8989,266.3218 C579.6656,266.3218 581.8989,264.0884 581.8989,261.3218 C581.8989,259.1551 580.4989,257.0218 578.5656,256.3218 L578.5656,254.6551 C578.5656,250.0551 574.8323,246.3218 570.2323,246.3218" fill="#0A9EFD"/></g><path d="M30.4653,87.2448 L162.9042,87.2448 L162.9042,94.1935 L152.9042,104.1935 L30.4653,104.1935 L30.4653,87.2448" fill="#EEEEEE" style="stroke:#0A9EFD;stroke-width:1.5;"/><rect fill="none" height="132.7437" style="stroke:#0A9EFD;stroke-width:2;" width="569.4337" x="30.4653" y="87.2448"/><text fill="#000000" font-family="Arial" font-size="13" lengthAdjust="spacing" textLength="87.439" x="45.4653" y="100.4386">Screen sharing</text><g class="message" data-entity-1="part2" data-entity-2="part1" data-source-line="16" id="msg1"><polygon fill="#0A9EFD" points="72.7986,121.1423,62.7986,125.1423,72.7986,129.1423,68.7986,125.1423" style="stroke:#0A9EFD;stroke-width:1;stroke-linejoin:miter;stroke-miterlimit:10;"/><line style="stroke:#0A9EFD;stroke-width:2;" x1="66.7986" x2="325.1734" y1="125.1423" y2="125.1423"/><text fill="#0A9EFD" font-family="Arial" font-size="13" lengthAdjust="spacing" textLength="179.9307" x="104.0207" y="120.3874">Send screen sharing command</text></g><g class="message" data-entity-1="part1" data-entity-2="part2" data-source-line="17" id="msg2"><polygon fill="#0A9EFD" points="314.1734,150.091,324.1734,154.091,314.1734,158.091,318.1734,154.091" style="stroke:#0A9EFD;stroke-width:1;stroke-linejoin:miter;stroke-miterlimit:10;"/><line style="stroke:#0A9EFD;stroke-width:2;" x1="61.7986" x2="320.1734" y1="154.091" y2="154.091"/><text fill="#0A9EFD" font-family="Arial" font-size="13" lengthAdjust="spacing" textLength="185.7007" x="101.1357" y="149.3361">Publish a screen sharing stream</text></g><g class="message" data-entity-1="part3" data-entity-2="part2" data-source-line="18" id="msg3"><polygon fill="#0A9EFD" points="337.1734,179.0397,327.1734,183.0397,337.1734,187.0397,333.1734,183.0397" style="stroke:#0A9EFD;stroke-width:1;stroke-linejoin:miter;stroke-miterlimit:10;"/><line style="stroke:#0A9EFD;stroke-width:2;" x1="331.1734" x2="567.5656" y1="183.0397" y2="183.0397"/><text fill="#0A9EFD" font-family="Arial" font-size="13" lengthAdjust="spacing" textLength="155.3462" x="369.6964" y="178.2848">Subscribe to other streams</text></g><g class="message" data-entity-1="part2" data-entity-2="part3" data-source-line="19" id="msg4"><polygon fill="#0A9EFD" points="556.5656,207.9884,566.5656,211.9884,556.5656,215.9884,560.5656,211.9884" style="stroke:#0A9EFD;stroke-width:1;stroke-linejoin:miter;stroke-miterlimit:10;"/><line style="stroke:#0A9EFD;stroke-width:2;" x1="326.1734" x2="562.5656" y1="211.9884" y2="211.9884"/><text fill="#0A9EFD" font-family="Arial" font-size="13" lengthAdjust="spacing" textLength="174.8589" x="359.9401" y="207.2336">Publish screen sharing stream</text></g><?plantuml-src ZSwnJiCm483XtKznP60hC315KQHAT61eLJKTsD35EIKd7DlosLBXeNW8dWnR15LK835vy7_VtHLRRT90WACB-2mlR6yupKQftfsWsfmYMM5dmGUdIQHI7aDapHvjXAeHVgFw_gvjhhr9qbQ00fkdeo8xG1OMPely3y7WAuN5sAuVTnV8kbm8tSFXk6ia-VRZlRajxz-WDYuDNruUEdDZSCb3fmEH1Pami1rLsRXgy-qrTAMK7z-WtJoZ7LGELcrfQzYdth1CW9Ujn40ugxppE-rIdnlk2Q835oSAIoJBtjoUmT-vSh_w1000?></g></svg>