<svg xmlns="http://www.w3.org/2000/svg" xmlns:xlink="http://www.w3.org/1999/xlink" contentStyleType="text/css" data-diagram-type="SEQUENCE" height="565px" preserveAspectRatio="none" style="width:662px;height:565px;" version="1.1" viewBox="0 0 662 565" width="662px" zoomAndPan="magnify"><?plantuml 1.2026.4?><defs/><g><rect fill="none" height="563.0911" style="stroke:#0A9EFD;stroke-width:1;" width="660.5526" x="0" y="0"/><rect fill="#999999" fill-opacity="0.33333" height="552.0911" style="stroke:#0A9EFD;stroke-width:0.5;" width="50.6667" x="16" y="6"/><text fill="#0A9EFD" font-family="sans-serif" font-size="13" font-weight="700" lengthAdjust="spacing" textLength="25.27" x="28.6983" y="19.4951">App</text><rect fill="#999999" fill-opacity="0.33333" height="552.0911" style="stroke:#0A9EFD;stroke-width:0.5;" width="72.4536" x="306.646" y="6"/><text fill="#0A9EFD" font-family="sans-serif" font-size="13" font-weight="700" lengthAdjust="spacing" textLength="66.4536" x="309.646" y="19.4951">Video SDK</text><rect fill="#999999" fill-opacity="0.33333" height="552.0911" style="stroke:#0A9EFD;stroke-width:0.5;" width="99.3154" x="556.2371" y="6"/><text fill="#0A9EFD" font-family="sans-serif" font-size="13" font-weight="700" lengthAdjust="spacing" textLength="85.9473" x="559.2371" y="21.7217">Agora SDRTN</text><text fill="#0A9EFD" font-family="sans-serif" font-size="10" font-weight="700" lengthAdjust="spacing" textLength="7.3682" x="645.1844" y="16.3809">&#174;</text><rect fill="#0A9EFD" fill-opacity="0.06667" height="409.1797" style="stroke:#0A9EFD;stroke-width:2;" width="627.2282" x="10" y="87.2448"/><g class="participant-lifeline" data-entity-uid="part1" data-qualified-name="APP" data-source-line="4" id="part1-lifeline"><g><title>.size.40...tablet.</title><rect fill="#000000" fill-opacity="0.00000" height="443.1797" width="8" x="37.3333" y="70.2448"/><line style="stroke:#0A9EFD;stroke-width:0.5;stroke-dasharray:5,5;" x1="41" x2="41" y1="70.2448" y2="513.4245"/></g></g><g class="participant-lifeline" data-entity-uid="part2" data-qualified-name="SDK" data-source-line="8" id="part2-lifeline"><g><title>.size.40...layers.</title><rect fill="#000000" fill-opacity="0.00000" height="443.1797" width="8" x="338.8728" y="70.2448"/><line style="stroke:#0A9EFD;stroke-width:0.5;stroke-dasharray:5,5;" x1="342.5395" x2="342.5395" y1="70.2448" y2="513.4245"/></g></g><g class="participant-lifeline" data-entity-uid="part3" data-qualified-name="RTN" data-source-line="12" id="part3-lifeline"><g><title>.size.40...cloud.</title><rect fill="#000000" fill-opacity="0.00000" height="443.1797" width="8" x="601.8949" y="70.2448"/><line style="stroke:#0A9EFD;stroke-width:0.5;stroke-dasharray:5,5;" x1="605.5615" x2="605.5615" y1="70.2448" y2="513.4245"/></g></g><g class="participant participant-head" data-entity-uid="part1" data-qualified-name="APP" data-source-line="4" id="part1-head"><rect fill="none" height="40.6667" rx="2.5" ry="2.5" style="stroke:#0A9EFD;stroke-width:2;" width="42.6667" x="20" y="28.5781"/><path d="M29.1333,35.5781 C28.5333,35.5781 28,36.1115 28,36.7115 L28,61.0781 C28,61.6781 28.5333,62.2115 29.1333,62.2115 L50.1667,62.2115 C50.7667,62.2115 51.3,61.6781 51.3,61.0781 L51.3,36.7115 C51.3,36.1115 50.7667,35.5781 50.1667,35.5781 L29.1333,35.5781 M31.3333,38.9115 L48,38.9115 L48,55.5781 L31.3333,55.5781 L31.3333,38.9115 M39.6667,57.2448 C40.9333,57.2448 41.7667,58.6448 41.1333,59.7448 C40.5,60.8448 38.8667,60.8448 38.2,59.7448 C37.5667,58.6448 38.3667,57.2448 39.6667,57.2448" fill="#0A9EFD"/></g><g class="participant participant-tail" data-entity-uid="part1" data-qualified-name="APP" data-source-line="4" id="part1-tail"><rect fill="none" height="40.6667" rx="2.5" ry="2.5" style="stroke:#0A9EFD;stroke-width:2;" width="42.6667" x="20" y="512.4245"/><path d="M29.1333,519.4245 C28.5333,519.4245 28,519.9578 28,520.5578 L28,544.9245 C28,545.5245 28.5333,546.0578 29.1333,546.0578 L50.1667,546.0578 C50.7667,546.0578 51.3,545.5245 51.3,544.9245 L51.3,520.5578 C51.3,519.9578 50.7667,519.4245 50.1667,519.4245 L29.1333,519.4245 M31.3333,522.7578 L48,522.7578 L48,539.4245 L31.3333,539.4245 L31.3333,522.7578 M39.6667,541.0911 C40.9333,541.0911 41.7667,542.4911 41.1333,543.5911 C40.5,544.6911 38.8667,544.6911 38.2,543.5911 C37.5667,542.4911 38.3667,541.0911 39.6667,541.0911" fill="#0A9EFD"/></g><g class="participant participant-head" data-entity-uid="part2" data-qualified-name="SDK" data-source-line="8" id="part2-head"><rect fill="none" height="40.6667" rx="2.5" ry="2.5" style="stroke:#0A9EFD;stroke-width:2;" width="42.6667" x="321.5395" y="28.5781"/><path d="M329.5395,35.5781 L329.5395,48.9115 L342.8728,48.9115 L342.8728,35.5781 L329.5395,35.5781 M346.2061,42.2448 L346.2061,52.2448 L336.2061,52.2448 L336.2061,55.5781 L349.5395,55.5781 L349.5395,42.2448 L346.2061,42.2448 M352.8728,48.9115 L352.8728,58.9115 L342.8728,58.9115 L342.8728,62.2448 L356.2061,62.2448 L356.2061,48.9115 L352.8728,48.9115" fill="#0A9EFD"/></g><g class="participant participant-tail" data-entity-uid="part2" data-qualified-name="SDK" data-source-line="8" id="part2-tail"><rect fill="none" height="40.6667" rx="2.5" ry="2.5" style="stroke:#0A9EFD;stroke-width:2;" width="42.6667" x="321.5395" y="512.4245"/><path d="M329.5395,519.4245 L329.5395,532.7578 L342.8728,532.7578 L342.8728,519.4245 L329.5395,519.4245 M346.2061,526.0911 L346.2061,536.0911 L336.2061,536.0911 L336.2061,539.4245 L349.5395,539.4245 L349.5395,526.0911 L346.2061,526.0911 M352.8728,532.7578 L352.8728,542.7578 L342.8728,542.7578 L342.8728,546.0911 L356.2061,546.0911 L356.2061,532.7578 L352.8728,532.7578" fill="#0A9EFD"/></g><g class="participant participant-head" data-entity-uid="part3" data-qualified-name="RTN" data-source-line="12" id="part3-head"><rect fill="none" height="40.6667" rx="2.5" ry="2.5" style="stroke:#0A9EFD;stroke-width:2;" width="42.6667" x="584.5615" y="28.5781"/><path d="M607.5615,38.9115 C603.5282,38.9115 599.9949,41.7781 599.2282,45.5781 C595.5615,45.5781 592.5615,48.5781 592.5615,52.2448 C592.5615,55.9115 595.5615,58.9115 599.2282,58.9115 L614.2282,58.9115 C616.9949,58.9115 619.2282,56.6781 619.2282,53.9115 C619.2282,51.7448 617.8282,49.6115 615.8949,48.9115 L615.8949,47.2448 C615.8949,42.6448 612.1615,38.9115 607.5615,38.9115" fill="#0A9EFD"/></g><g class="participant participant-tail" data-entity-uid="part3" data-qualified-name="RTN" data-source-line="12" id="part3-tail"><rect fill="none" height="40.6667" rx="2.5" ry="2.5" style="stroke:#0A9EFD;stroke-width:2;" width="42.6667" x="584.5615" y="512.4245"/><path d="M607.5615,522.7578 C603.5282,522.7578 599.9949,525.6245 599.2282,529.4245 C595.5615,529.4245 592.5615,532.4245 592.5615,536.0911 C592.5615,539.7578 595.5615,542.7578 599.2282,542.7578 L614.2282,542.7578 C616.9949,542.7578 619.2282,540.5245 619.2282,537.7578 C619.2282,535.5911 617.8282,533.4578 615.8949,532.7578 L615.8949,531.0911 C615.8949,526.4911 612.1615,522.7578 607.5615,522.7578" fill="#0A9EFD"/></g><path d="M10,87.2448 L142.439,87.2448 L142.439,94.1935 L132.439,104.1935 L10,104.1935 L10,87.2448" fill="#EEEEEE" style="stroke:#0A9EFD;stroke-width:1.5;"/><rect fill="none" height="409.1797" style="stroke:#0A9EFD;stroke-width:2;" width="627.2282" x="10" y="87.2448"/><text fill="#000000" font-family="Arial" font-size="13" lengthAdjust="spacing" textLength="87.439" x="25" y="100.4386">Screen sharing</text><g class="message" data-entity-1="part1" data-entity-2="part2" data-source-line="16" id="msg1"><polygon fill="#0A9EFD" points="330.8728,121.1423,340.8728,125.1423,330.8728,129.1423,334.8728,125.1423" style="stroke:#0A9EFD;stroke-width:1;stroke-linejoin:miter;stroke-miterlimit:10;"/><line style="stroke:#0A9EFD;stroke-width:2;" x1="41.3333" x2="336.8728" y1="125.1423" y2="125.1423"/><text fill="#0A9EFD" font-family="Arial" font-size="13" lengthAdjust="spacing" textLength="248.5679" x="67.8191" y="120.3874">Get available screen or window information</text></g><g class="message" data-entity-1="part2" data-entity-2="part1" data-source-line="17" id="msg2"><polygon fill="#0A9EFD" points="52.3333,150.091,42.3333,154.091,52.3333,158.091,48.3333,154.091" style="stroke:#0A9EFD;stroke-width:1;stroke-linejoin:miter;stroke-miterlimit:10;"/><line style="stroke:#0A9EFD;stroke-width:2;" x1="46.3333" x2="341.8728" y1="154.091" y2="154.091"/><text fill="#0A9EFD" font-family="Arial" font-size="13" lengthAdjust="spacing" textLength="266.6333" x="58.7864" y="149.3361">Return available screen or window information</text></g><g class="message" data-entity-1="part1" data-entity-2="part2" data-source-line="18" id="msg3"><polygon fill="#0A9EFD" points="330.8728,179.0397,340.8728,183.0397,330.8728,187.0397,334.8728,183.0397" style="stroke:#0A9EFD;stroke-width:1;stroke-linejoin:miter;stroke-miterlimit:10;"/><line style="stroke:#0A9EFD;stroke-width:2;" x1="41.3333" x2="336.8728" y1="183.0397" y2="183.0397"/><text fill="#0A9EFD" font-family="Arial" font-size="13" lengthAdjust="spacing" textLength="117.0571" x="133.5745" y="178.2848">Start screen capture</text></g><g class="message" data-entity-1="part1" data-entity-2="part2" data-source-line="19" id="msg4"><polygon fill="#0A9EFD" points="330.8728,207.9884,340.8728,211.9884,330.8728,215.9884,334.8728,211.9884" style="stroke:#0A9EFD;stroke-width:1;stroke-linejoin:miter;stroke-miterlimit:10;"/><line style="stroke:#0A9EFD;stroke-width:2;" x1="41.3333" x2="336.8728" y1="211.9884" y2="211.9884"/><text fill="#0A9EFD" font-family="Arial" font-size="13" lengthAdjust="spacing" textLength="226.186" x="79.0101" y="207.2336">Set the screen sharing scene (optional)</text></g><g class="message" data-entity-1="part1" data-entity-2="part2" data-source-line="20" id="msg5"><polygon fill="#0A9EFD" points="330.8728,236.9372,340.8728,240.9372,330.8728,244.9372,334.8728,240.9372" style="stroke:#0A9EFD;stroke-width:1;stroke-linejoin:miter;stroke-miterlimit:10;"/><line style="stroke:#0A9EFD;stroke-width:2;" x1="41.3333" x2="336.8728" y1="240.9372" y2="240.9372"/><text fill="#0A9EFD" font-family="Arial" font-size="13" lengthAdjust="spacing" textLength="94.6816" x="144.7622" y="236.1823">Join the channel</text></g><g class="message" data-entity-1="part2" data-entity-2="part3" data-source-line="21" id="msg6"><polygon fill="#0A9EFD" points="593.8949,280.8346,603.8949,284.8346,593.8949,288.8346,597.8949,284.8346" style="stroke:#0A9EFD;stroke-width:1;stroke-linejoin:miter;stroke-miterlimit:10;"/><line style="stroke:#0A9EFD;stroke-width:2;" x1="342.8728" x2="599.8949" y1="284.8346" y2="284.8346"/><text fill="#0A9EFD" font-family="Arial" font-size="13" lengthAdjust="spacing" textLength="153.2007" x="397.7835" y="265.131">Publish the screen sharing</text><text fill="#0A9EFD" font-family="Arial" font-size="13" lengthAdjust="spacing" textLength="124.2935" x="414.043" y="280.0798">stream in the channel</text></g><g class="message" data-entity-1="part1" data-entity-2="part2" data-source-line="22" id="msg7"><polygon fill="#0A9EFD" points="330.8728,309.7834,340.8728,313.7834,330.8728,317.7834,334.8728,313.7834" style="stroke:#0A9EFD;stroke-width:1;stroke-linejoin:miter;stroke-miterlimit:10;"/><line style="stroke:#0A9EFD;stroke-width:2;" x1="41.3333" x2="336.8728" y1="313.7834" y2="313.7834"/><text fill="#0A9EFD" font-family="Arial" font-size="13" lengthAdjust="spacing" textLength="266.646" x="58.7801" y="309.0285">Update the screen sharing area or parameters</text></g><g class="message" data-entity-1="part1" data-entity-2="part2" data-source-line="23" id="msg8"><polygon fill="#0A9EFD" points="330.8728,338.7321,340.8728,342.7321,330.8728,346.7321,334.8728,342.7321" style="stroke:#0A9EFD;stroke-width:1;stroke-linejoin:miter;stroke-miterlimit:10;"/><line style="stroke:#0A9EFD;stroke-width:2;" x1="41.3333" x2="336.8728" y1="342.7321" y2="342.7321"/><text fill="#0A9EFD" font-family="Arial" font-size="13" lengthAdjust="spacing" textLength="265.1924" x="59.5069" y="337.9772">Display stroke on the shared screen (optional)</text></g><g class="message" data-entity-1="part1" data-entity-2="part2" data-source-line="24" id="msg9"><polygon fill="#0A9EFD" points="330.8728,367.6808,340.8728,371.6808,330.8728,375.6808,334.8728,371.6808" style="stroke:#0A9EFD;stroke-width:1;stroke-linejoin:miter;stroke-miterlimit:10;"/><line style="stroke:#0A9EFD;stroke-width:2;" x1="41.3333" x2="336.8728" y1="371.6808" y2="371.6808"/><text fill="#0A9EFD" font-family="Arial" font-size="13" lengthAdjust="spacing" textLength="136.5635" x="123.8213" y="366.9259">Block window (optional)</text></g><g class="message" data-entity-1="part2" data-entity-2="part3" data-source-line="25" id="msg10"><polygon fill="#0A9EFD" points="593.8949,411.5783,603.8949,415.5783,593.8949,419.5783,597.8949,415.5783" style="stroke:#0A9EFD;stroke-width:1;stroke-linejoin:miter;stroke-miterlimit:10;"/><line style="stroke:#0A9EFD;stroke-width:2;" x1="342.8728" x2="599.8949" y1="415.5783" y2="415.5783"/><text fill="#0A9EFD" font-family="Arial" font-size="13" lengthAdjust="spacing" textLength="203.8042" x="372.4817" y="395.8747">Publish the updated screen sharing</text><text fill="#0A9EFD" font-family="Arial" font-size="13" lengthAdjust="spacing" textLength="124.2935" x="414.043" y="410.8234">stream in the channel</text></g><g class="message" data-entity-1="part1" data-entity-2="part2" data-source-line="26" id="msg11"><polygon fill="#0A9EFD" points="330.8728,440.527,340.8728,444.527,330.8728,448.527,334.8728,444.527" style="stroke:#0A9EFD;stroke-width:1;stroke-linejoin:miter;stroke-miterlimit:10;"/><line style="stroke:#0A9EFD;stroke-width:2;" x1="41.3333" x2="336.8728" y1="444.527" y2="444.527"/><text fill="#0A9EFD" font-family="Arial" font-size="13" lengthAdjust="spacing" textLength="115.6226" x="134.2918" y="439.7721">Stop screen sahring</text></g><g class="message" data-entity-1="part2" data-entity-2="part3" data-source-line="27" id="msg12"><polygon fill="#0A9EFD" points="593.8949,484.4245,603.8949,488.4245,593.8949,492.4245,597.8949,488.4245" style="stroke:#0A9EFD;stroke-width:1;stroke-linejoin:miter;stroke-miterlimit:10;"/><line style="stroke:#0A9EFD;stroke-width:2;" x1="342.8728" x2="599.8949" y1="488.4245" y2="488.4245"/><text fill="#0A9EFD" font-family="Arial" font-size="13" lengthAdjust="spacing" textLength="199.4624" x="374.6526" y="468.7209">Stop publishing the screen sharing</text><text fill="#0A9EFD" font-family="Arial" font-size="13" lengthAdjust="spacing" textLength="124.2935" x="414.043" y="483.6696">stream in the channel</text></g><?plantuml-src bP9DJiCm48NtESMG1O95WGMhAefKL0a995Grm0e9JPEXiUhObdyeS2WEmSaO9_s9gdJHLHnxtZVlUNmcL2b3HO1BRV7ThOIw4g6HIRBGNv1EZ4aJWzQBKXXK7jBCYHyQtzxasRd7XIIVfu0E9hDPGge2Lcsahw8Y3SNqyJX0uZTPrm6uy00mYOvuV_xybBbWyh_Vx3f-Z_DAgKFLuLYqnosj3WQAqX8fS3LQePO9Enxbt7KCz-G1Fr78c0TSLwOjh8Mgz1g4-j2sGI-qYg9ir8hcv8DL9-WspGhFvhV59HgcKF-OlVXwHzkOvLzI11VQH1hAovxYGGlLIieQbIAPyEuev_nZc8M55AuU0Bxnobl21Wx4U-wBgT3Ja1baOSp9Oy26F8-m9viAPtYk4QzN1Bh3HobLMz1WZZkfozNsxdeLmt52wwuwFLRXjTcfi6wVmhv5UsgwFZ7g2JV7hotv1m00?></g></svg>