<svg xmlns="http://www.w3.org/2000/svg" xmlns:xlink="http://www.w3.org/1999/xlink" contentStyleType="text/css" data-diagram-type="SEQUENCE" height="478px" preserveAspectRatio="none" style="width:653px;height:478px;" version="1.1" viewBox="0 0 653 478" width="653px" zoomAndPan="magnify"><?plantuml 1.2026.4?><defs/><g><rect fill="none" height="476.245" style="stroke:#0A9EFD;stroke-width:1;" width="651.8753" x="0" y="0"/><rect fill="#999999" fill-opacity="0.33333" height="465.245" style="stroke:#0A9EFD;stroke-width:0.5;" width="50.6667" x="16" y="6"/><text fill="#0A9EFD" font-family="sans-serif" font-size="13" font-weight="700" lengthAdjust="spacing" textLength="25.27" x="28.6983" y="19.4951">App</text><rect fill="#999999" fill-opacity="0.33333" height="465.245" style="stroke:#0A9EFD;stroke-width:0.5;" width="72.4536" x="297.9688" y="6"/><text fill="#0A9EFD" font-family="sans-serif" font-size="13" font-weight="700" lengthAdjust="spacing" textLength="66.4536" x="300.9688" y="19.4951">Video SDK</text><rect fill="#999999" fill-opacity="0.33333" height="465.245" style="stroke:#0A9EFD;stroke-width:0.5;" width="99.3154" x="547.5599" y="6"/><text fill="#0A9EFD" font-family="sans-serif" font-size="13" font-weight="700" lengthAdjust="spacing" textLength="85.9473" x="550.5599" y="21.7217">Agora SDRTN</text><text fill="#0A9EFD" font-family="sans-serif" font-size="10" font-weight="700" lengthAdjust="spacing" textLength="7.3682" x="636.5072" y="16.3809">&#174;</text><rect fill="#0A9EFD" fill-opacity="0.06667" height="322.3335" style="stroke:#0A9EFD;stroke-width:2;" width="618.5509" x="10" y="87.2448"/><g class="participant-lifeline" data-entity-uid="part1" data-qualified-name="APP" data-source-line="4" id="part1-lifeline"><g><title>.size.40...tablet.</title><rect fill="#000000" fill-opacity="0.00000" height="356.3335" width="8" x="37.3333" y="70.2448"/><line style="stroke:#0A9EFD;stroke-width:0.5;stroke-dasharray:5,5;" x1="41" x2="41" y1="70.2448" y2="426.5783"/></g></g><g class="participant-lifeline" data-entity-uid="part2" data-qualified-name="SDK" data-source-line="8" id="part2-lifeline"><g><title>.size.40...layers.</title><rect fill="#000000" fill-opacity="0.00000" height="356.3335" width="8" x="330.1956" y="70.2448"/><line style="stroke:#0A9EFD;stroke-width:0.5;stroke-dasharray:5,5;" x1="333.8622" x2="333.8622" y1="70.2448" y2="426.5783"/></g></g><g class="participant-lifeline" data-entity-uid="part3" data-qualified-name="RTN" data-source-line="12" id="part3-lifeline"><g><title>.size.40...cloud.</title><rect fill="#000000" fill-opacity="0.00000" height="356.3335" width="8" x="593.2176" y="70.2448"/><line style="stroke:#0A9EFD;stroke-width:0.5;stroke-dasharray:5,5;" x1="596.8843" x2="596.8843" y1="70.2448" y2="426.5783"/></g></g><g class="participant participant-head" data-entity-uid="part1" data-qualified-name="APP" data-source-line="4" id="part1-head"><rect fill="none" height="40.6667" rx="2.5" ry="2.5" style="stroke:#0A9EFD;stroke-width:2;" width="42.6667" x="20" y="28.5781"/><path d="M29.1333,35.5781 C28.5333,35.5781 28,36.1115 28,36.7115 L28,61.0781 C28,61.6781 28.5333,62.2115 29.1333,62.2115 L50.1667,62.2115 C50.7667,62.2115 51.3,61.6781 51.3,61.0781 L51.3,36.7115 C51.3,36.1115 50.7667,35.5781 50.1667,35.5781 L29.1333,35.5781 M31.3333,38.9115 L48,38.9115 L48,55.5781 L31.3333,55.5781 L31.3333,38.9115 M39.6667,57.2448 C40.9333,57.2448 41.7667,58.6448 41.1333,59.7448 C40.5,60.8448 38.8667,60.8448 38.2,59.7448 C37.5667,58.6448 38.3667,57.2448 39.6667,57.2448" fill="#0A9EFD"/></g><g class="participant participant-tail" data-entity-uid="part1" data-qualified-name="APP" data-source-line="4" id="part1-tail"><rect fill="none" height="40.6667" rx="2.5" ry="2.5" style="stroke:#0A9EFD;stroke-width:2;" width="42.6667" x="20" y="425.5783"/><path d="M29.1333,432.5783 C28.5333,432.5783 28,433.1116 28,433.7116 L28,458.0783 C28,458.6783 28.5333,459.2116 29.1333,459.2116 L50.1667,459.2116 C50.7667,459.2116 51.3,458.6783 51.3,458.0783 L51.3,433.7116 C51.3,433.1116 50.7667,432.5783 50.1667,432.5783 L29.1333,432.5783 M31.3333,435.9116 L48,435.9116 L48,452.5783 L31.3333,452.5783 L31.3333,435.9116 M39.6667,454.245 C40.9333,454.245 41.7667,455.645 41.1333,456.745 C40.5,457.845 38.8667,457.845 38.2,456.745 C37.5667,455.645 38.3667,454.245 39.6667,454.245" fill="#0A9EFD"/></g><g class="participant participant-head" data-entity-uid="part2" data-qualified-name="SDK" data-source-line="8" id="part2-head"><rect fill="none" height="40.6667" rx="2.5" ry="2.5" style="stroke:#0A9EFD;stroke-width:2;" width="42.6667" x="312.8622" y="28.5781"/><path d="M320.8622,35.5781 L320.8622,48.9115 L334.1956,48.9115 L334.1956,35.5781 L320.8622,35.5781 M337.5289,42.2448 L337.5289,52.2448 L327.5289,52.2448 L327.5289,55.5781 L340.8622,55.5781 L340.8622,42.2448 L337.5289,42.2448 M344.1956,48.9115 L344.1956,58.9115 L334.1956,58.9115 L334.1956,62.2448 L347.5289,62.2448 L347.5289,48.9115 L344.1956,48.9115" fill="#0A9EFD"/></g><g class="participant participant-tail" data-entity-uid="part2" data-qualified-name="SDK" data-source-line="8" id="part2-tail"><rect fill="none" height="40.6667" rx="2.5" ry="2.5" style="stroke:#0A9EFD;stroke-width:2;" width="42.6667" x="312.8622" y="425.5783"/><path d="M320.8622,432.5783 L320.8622,445.9116 L334.1956,445.9116 L334.1956,432.5783 L320.8622,432.5783 M337.5289,439.245 L337.5289,449.245 L327.5289,449.245 L327.5289,452.5783 L340.8622,452.5783 L340.8622,439.245 L337.5289,439.245 M344.1956,445.9116 L344.1956,455.9116 L334.1956,455.9116 L334.1956,459.245 L347.5289,459.245 L347.5289,445.9116 L344.1956,445.9116" fill="#0A9EFD"/></g><g class="participant participant-head" data-entity-uid="part3" data-qualified-name="RTN" data-source-line="12" id="part3-head"><rect fill="none" height="40.6667" rx="2.5" ry="2.5" style="stroke:#0A9EFD;stroke-width:2;" width="42.6667" x="575.8843" y="28.5781"/><path d="M598.8843,38.9115 C594.8509,38.9115 591.3176,41.7781 590.5509,45.5781 C586.8843,45.5781 583.8843,48.5781 583.8843,52.2448 C583.8843,55.9115 586.8843,58.9115 590.5509,58.9115 L605.5509,58.9115 C608.3176,58.9115 610.5509,56.6781 610.5509,53.9115 C610.5509,51.7448 609.1509,49.6115 607.2176,48.9115 L607.2176,47.2448 C607.2176,42.6448 603.4843,38.9115 598.8843,38.9115" fill="#0A9EFD"/></g><g class="participant participant-tail" data-entity-uid="part3" data-qualified-name="RTN" data-source-line="12" id="part3-tail"><rect fill="none" height="40.6667" rx="2.5" ry="2.5" style="stroke:#0A9EFD;stroke-width:2;" width="42.6667" x="575.8843" y="425.5783"/><path d="M598.8843,435.9116 C594.8509,435.9116 591.3176,438.7783 590.5509,442.5783 C586.8843,442.5783 583.8843,445.5783 583.8843,449.245 C583.8843,452.9116 586.8843,455.9116 590.5509,455.9116 L605.5509,455.9116 C608.3176,455.9116 610.5509,453.6783 610.5509,450.9116 C610.5509,448.745 609.1509,446.6116 607.2176,445.9116 L607.2176,444.245 C607.2176,439.645 603.4843,435.9116 598.8843,435.9116" fill="#0A9EFD"/></g><path d="M10,87.2448 L142.439,87.2448 L142.439,94.1935 L132.439,104.1935 L10,104.1935 L10,87.2448" fill="#EEEEEE" style="stroke:#0A9EFD;stroke-width:1.5;"/><rect fill="none" height="322.3335" style="stroke:#0A9EFD;stroke-width:2;" width="618.5509" x="10" y="87.2448"/><text fill="#000000" font-family="Arial" font-size="13" lengthAdjust="spacing" textLength="87.439" x="25" y="100.4386">Screen sharing</text><g class="message" data-entity-1="part1" data-entity-2="part2" data-source-line="16" id="msg1"><polygon fill="#0A9EFD" points="322.1956,121.1423,332.1956,125.1423,322.1956,129.1423,326.1956,125.1423" style="stroke:#0A9EFD;stroke-width:1;stroke-linejoin:miter;stroke-miterlimit:10;"/><line style="stroke:#0A9EFD;stroke-width:2;" x1="41.3333" x2="328.1956" y1="125.1423" y2="125.1423"/><text fill="#0A9EFD" font-family="Arial" font-size="13" lengthAdjust="spacing" textLength="207.4033" x="84.0628" y="120.3874">Set the high-quality scene (optional)</text></g><g class="message" data-entity-1="part1" data-entity-2="part2" data-source-line="17" id="msg2"><polygon fill="#0A9EFD" points="322.1956,150.091,332.1956,154.091,322.1956,158.091,326.1956,154.091" style="stroke:#0A9EFD;stroke-width:1;stroke-linejoin:miter;stroke-miterlimit:10;"/><line style="stroke:#0A9EFD;stroke-width:2;" x1="41.3333" x2="328.1956" y1="154.091" y2="154.091"/><text fill="#0A9EFD" font-family="Arial" font-size="13" lengthAdjust="spacing" textLength="117.0571" x="129.2359" y="149.3361">Start screen capture</text></g><g class="message" data-entity-1="part1" data-entity-2="part2" data-source-line="18" id="msg3"><polygon fill="#0A9EFD" points="322.1956,179.0397,332.1956,183.0397,322.1956,187.0397,326.1956,183.0397" style="stroke:#0A9EFD;stroke-width:1;stroke-linejoin:miter;stroke-miterlimit:10;"/><line style="stroke:#0A9EFD;stroke-width:2;" x1="41.3333" x2="328.1956" y1="183.0397" y2="183.0397"/><text fill="#0A9EFD" font-family="Arial" font-size="13" lengthAdjust="spacing" textLength="226.186" x="74.6714" y="178.2848">Set the screen sharing scene (optional)</text></g><g class="message" data-entity-1="part1" data-entity-2="part2" data-source-line="19" id="msg4"><polygon fill="#0A9EFD" points="322.1956,207.9884,332.1956,211.9884,322.1956,215.9884,326.1956,211.9884" style="stroke:#0A9EFD;stroke-width:1;stroke-linejoin:miter;stroke-miterlimit:10;"/><line style="stroke:#0A9EFD;stroke-width:2;" x1="41.3333" x2="328.1956" y1="211.9884" y2="211.9884"/><text fill="#0A9EFD" font-family="Arial" font-size="13" lengthAdjust="spacing" textLength="94.6816" x="140.4236" y="207.2336">Join the channel</text></g><g class="message" data-entity-1="part2" data-entity-2="part3" data-source-line="20" id="msg5"><polygon fill="#0A9EFD" points="585.2176,251.8859,595.2176,255.8859,585.2176,259.8859,589.2176,255.8859" style="stroke:#0A9EFD;stroke-width:1;stroke-linejoin:miter;stroke-miterlimit:10;"/><line style="stroke:#0A9EFD;stroke-width:2;" x1="334.1956" x2="591.2176" y1="255.8859" y2="255.8859"/><text fill="#0A9EFD" font-family="Arial" font-size="13" lengthAdjust="spacing" textLength="153.2007" x="389.1062" y="236.1823">Publish the screen sharing</text><text fill="#0A9EFD" font-family="Arial" font-size="13" lengthAdjust="spacing" textLength="124.2935" x="405.3658" y="251.131">stream in the channel</text></g><g class="message" data-entity-1="part1" data-entity-2="part2" data-source-line="21" id="msg6"><polygon fill="#0A9EFD" points="322.1956,280.8346,332.1956,284.8346,322.1956,288.8346,326.1956,284.8346" style="stroke:#0A9EFD;stroke-width:1;stroke-linejoin:miter;stroke-miterlimit:10;"/><line style="stroke:#0A9EFD;stroke-width:2;" x1="41.3333" x2="328.1956" y1="284.8346" y2="284.8346"/><text fill="#0A9EFD" font-family="Arial" font-size="13" lengthAdjust="spacing" textLength="257.9688" x="58.7801" y="280.0798">Update screen sharing parameters (optional)</text></g><g class="message" data-entity-1="part2" data-entity-2="part3" data-source-line="22" id="msg7"><polygon fill="#0A9EFD" points="585.2176,324.7321,595.2176,328.7321,585.2176,332.7321,589.2176,328.7321" style="stroke:#0A9EFD;stroke-width:1;stroke-linejoin:miter;stroke-miterlimit:10;"/><line style="stroke:#0A9EFD;stroke-width:2;" x1="334.1956" x2="591.2176" y1="328.7321" y2="328.7321"/><text fill="#0A9EFD" font-family="Arial" font-size="13" lengthAdjust="spacing" textLength="203.8042" x="363.8045" y="309.0285">Publish the updated screen sharing</text><text fill="#0A9EFD" font-family="Arial" font-size="13" lengthAdjust="spacing" textLength="124.2935" x="405.3658" y="323.9772">stream in the channel</text></g><g class="message" data-entity-1="part1" data-entity-2="part2" data-source-line="23" id="msg8"><polygon fill="#0A9EFD" points="322.1956,353.6808,332.1956,357.6808,322.1956,361.6808,326.1956,357.6808" style="stroke:#0A9EFD;stroke-width:1;stroke-linejoin:miter;stroke-miterlimit:10;"/><line style="stroke:#0A9EFD;stroke-width:2;" x1="41.3333" x2="328.1956" y1="357.6808" y2="357.6808"/><text fill="#0A9EFD" font-family="Arial" font-size="13" lengthAdjust="spacing" textLength="115.6226" x="129.9532" y="352.9259">Stop screen sahring</text></g><g class="message" data-entity-1="part2" data-entity-2="part3" data-source-line="24" id="msg9"><polygon fill="#0A9EFD" points="585.2176,397.5783,595.2176,401.5783,585.2176,405.5783,589.2176,401.5783" style="stroke:#0A9EFD;stroke-width:1;stroke-linejoin:miter;stroke-miterlimit:10;"/><line style="stroke:#0A9EFD;stroke-width:2;" x1="334.1956" x2="591.2176" y1="401.5783" y2="401.5783"/><text fill="#0A9EFD" font-family="Arial" font-size="13" lengthAdjust="spacing" textLength="199.4624" x="365.9754" y="381.8747">Stop publishing the screen sharing</text><text fill="#0A9EFD" font-family="Arial" font-size="13" lengthAdjust="spacing" textLength="124.2935" x="405.3658" y="396.8234">stream in the channel</text></g><?plantuml-src bP71IWCn48RlUOfn3wA7gWTFPLaeU5AGugedGQRPOHDCavXCmFfGFeHFvdGhjjPMw2bXCl_t_pCvibwxqX5W7n8-vnVhpsoPEwLcuGsgIOoLYfZOQXlHCrHrjkyqlhnewcF6cIDkAi0Ca-bKaUz0LD_IHzjHWFRgPZ_0uO9INW6aSGimMIQI-jtzRPrBR3u_wlFbkP-dNIZT2YUYDQvFeKHeTIBoa0qcwtibYKUDk8wX9GOs1CRsPlHQq5bUGDRa2Kv2P1iykjFDVXP_QHXm6YENH3jm-PVVVy3hOFqWqGQz9wUaEcfaX35CoypPR7O0d-J6YN0EM-8rzo5so7-2oFPmJYoRtqopsx8CXEvmwvP3_56X6JQ-jXXUuyfd6Uc0wUHJrHS0?></g></svg>