<svg xmlns="http://www.w3.org/2000/svg" xmlns:xlink="http://www.w3.org/1999/xlink" contentStyleType="text/css" data-diagram-type="SEQUENCE" height="928px" preserveAspectRatio="none" style="width:710px;height:928px;" version="1.1" viewBox="0 0 710 928" width="710px" zoomAndPan="magnify"><?plantuml 1.2026.4?><defs/><g><rect fill="none" height="926.9155" style="stroke:#0A9EFD;stroke-width:1;" width="708.6165" x="0" y="0"/><rect fill="#999999" fill-opacity="0.33333" height="915.9155" style="stroke:#0A9EFD;stroke-width:0.5;" width="90.4824" x="101.0762" y="6"/><text fill="#0A9EFD" font-family="sans-serif" font-size="13" font-weight="700" lengthAdjust="spacing" textLength="56.3354" x="118.1497" y="19.4951">Your app</text><rect fill="#999999" fill-opacity="0.33333" height="915.9155" style="stroke:#0A9EFD;stroke-width:0.5;" width="184.8286" x="488.7878" y="6"/><text fill="#0A9EFD" font-family="sans-serif" font-size="13" font-weight="700" lengthAdjust="spacing" textLength="37.5591" x="562.4226" y="19.4951">Agora</text><rect fill="#0A9EFD" fill-opacity="0.06667" height="74.8462" style="stroke:#0A9EFD;stroke-width:2;" width="584.5403" x="95.0762" y="132.0474"/><rect fill="#0A9EFD" fill-opacity="0.06667" height="190.6411" style="stroke:#0A9EFD;stroke-width:2;" width="584.5403" x="95.0762" y="278.791"/><rect fill="#0A9EFD" fill-opacity="0.06667" height="190.6411" style="stroke:#0A9EFD;stroke-width:2;" width="669.6165" x="10" y="483.4321"/><rect fill="#0A9EFD" fill-opacity="0.06667" height="132.7437" style="stroke:#0A9EFD;stroke-width:2;" width="584.5403" x="95.0762" y="688.0732"/><g class="participant-lifeline" data-entity-uid="part1" data-qualified-name="USR" data-source-line="4" id="part1-lifeline"><g><title>User</title><rect fill="#000000" fill-opacity="0.00000" height="751.7183" width="8" x="33.7793" y="86.0986"/><line style="stroke:#0A9EFD;stroke-width:0.5;stroke-dasharray:5,5;" x1="37" x2="37" y1="86.0986" y2="837.8169"/></g></g><g class="participant-lifeline" data-entity-uid="part2" data-qualified-name="APP" data-source-line="7" id="part2-lifeline"><g><title>Video SDK</title><rect fill="#000000" fill-opacity="0.00000" height="751.7183" width="8" x="142.3174" y="86.0986"/><line style="stroke:#0A9EFD;stroke-width:0.5;stroke-dasharray:5,5;" x1="146.0762" x2="146.0762" y1="86.0986" y2="837.8169"/></g></g><g class="participant-lifeline" data-entity-uid="part3" data-qualified-name="API" data-source-line="11" id="part3-lifeline"><g><title>SDRTN.sup....sup.</title><rect fill="#000000" fill-opacity="0.00000" height="751.7183" width="8" x="523.9507" y="86.0986"/><line style="stroke:#0A9EFD;stroke-width:0.5;stroke-dasharray:5,5;" x1="527.7878" x2="527.7878" y1="86.0986" y2="837.8169"/></g></g><g class="participant-lifeline" data-entity-uid="part4" data-qualified-name="EXT" data-source-line="12" id="part4-lifeline"><g><title>Spatial Audio</title><rect fill="#000000" fill-opacity="0.00000" height="751.7183" width="8" x="617.365" y="86.0986"/><line style="stroke:#0A9EFD;stroke-width:0.5;stroke-dasharray:5,5;" x1="621.1135" x2="621.1135" y1="86.0986" y2="837.8169"/></g></g><g class="participant participant-head" data-entity-uid="part1" data-qualified-name="USR" data-source-line="4" id="part1-head"><text fill="#0A9EFD" font-family="Arial" font-size="14" lengthAdjust="spacing" textLength="29.5586" x="20" y="83.1318">User</text><ellipse cx="37.7793" cy="16" fill="none" rx="8" ry="8" style="stroke:#0A9EFD;stroke-width:3;"/><path d="M37.7793,24 L37.7793,51 M24.7793,32 L50.7793,32 M37.7793,51 L24.7793,66 M37.7793,51 L50.7793,66" fill="none" style="stroke:#0A9EFD;stroke-width:3;"/></g><g class="participant participant-tail" data-entity-uid="part1" data-qualified-name="USR" data-source-line="4" id="part1-tail"><text fill="#0A9EFD" font-family="Arial" font-size="14" lengthAdjust="spacing" textLength="29.5586" x="20" y="849.9487">User</text><ellipse cx="37.7793" cy="863.9155" fill="none" rx="8" ry="8" style="stroke:#0A9EFD;stroke-width:3;"/><path d="M37.7793,871.9155 L37.7793,898.9155 M24.7793,879.9155 L50.7793,879.9155 M37.7793,898.9155 L24.7793,913.9155 M37.7793,898.9155 L50.7793,913.9155" fill="none" style="stroke:#0A9EFD;stroke-width:3;"/></g><g class="participant participant-head" data-entity-uid="part2" data-qualified-name="APP" data-source-line="7" id="part2-head"><rect fill="none" height="30.0986" rx="2.5" ry="2.5" style="stroke:#0A9EFD;stroke-width:2;" width="82.4824" x="105.0762" y="55"/><text fill="#0A9EFD" font-family="Arial" font-size="14" lengthAdjust="spacing" textLength="68.4824" x="112.0762" y="75.1318">Video SDK</text></g><g class="participant participant-tail" data-entity-uid="part2" data-qualified-name="APP" data-source-line="7" id="part2-tail"><rect fill="none" height="30.0986" rx="2.5" ry="2.5" style="stroke:#0A9EFD;stroke-width:2;" width="82.4824" x="105.0762" y="836.8169"/><text fill="#0A9EFD" font-family="Arial" font-size="14" lengthAdjust="spacing" textLength="68.4824" x="112.0762" y="856.9487">Video SDK</text></g><g class="participant participant-head" data-entity-uid="part3" data-qualified-name="API" data-source-line="11" id="part3-head"><rect fill="none" height="32.6489" rx="2.5" ry="2.5" style="stroke:#0A9EFD;stroke-width:2;" width="70.3257" x="492.7878" y="52.4497"/><text fill="#0A9EFD" font-family="Arial" font-size="14" lengthAdjust="spacing" textLength="48.2207" x="499.7878" y="75.1318">SDRTN</text><text fill="#0A9EFD" font-family="Arial" font-size="11" lengthAdjust="spacing" textLength="8.105" x="548.0085" y="69.7676">&#174;</text></g><g class="participant participant-tail" data-entity-uid="part3" data-qualified-name="API" data-source-line="11" id="part3-tail"><rect fill="none" height="32.6489" rx="2.5" ry="2.5" style="stroke:#0A9EFD;stroke-width:2;" width="70.3257" x="492.7878" y="836.8169"/><text fill="#0A9EFD" font-family="Arial" font-size="14" lengthAdjust="spacing" textLength="48.2207" x="499.7878" y="859.499">SDRTN</text><text fill="#0A9EFD" font-family="Arial" font-size="11" lengthAdjust="spacing" textLength="8.105" x="548.0085" y="854.1348">&#174;</text></g><g class="participant participant-head" data-entity-uid="part4" data-qualified-name="EXT" data-source-line="12" id="part4-head"><rect fill="none" height="46.1973" rx="2.5" ry="2.5" style="stroke:#0A9EFD;stroke-width:2;" width="96.5029" x="573.1135" y="38.9014"/><text fill="#0A9EFD" font-family="Arial" font-size="14" lengthAdjust="spacing" textLength="82.5029" x="580.1135" y="59.0332">Spatial Audio</text><text fill="#0A9EFD" font-family="Arial" font-size="14" lengthAdjust="spacing" textLength="61.4824" x="592.5686" y="75.1318">Extension</text></g><g class="participant participant-tail" data-entity-uid="part4" data-qualified-name="EXT" data-source-line="12" id="part4-tail"><rect fill="none" height="46.1973" rx="2.5" ry="2.5" style="stroke:#0A9EFD;stroke-width:2;" width="96.5029" x="573.1135" y="836.8169"/><text fill="#0A9EFD" font-family="Arial" font-size="14" lengthAdjust="spacing" textLength="82.5029" x="580.1135" y="856.9487">Spatial Audio</text><text fill="#0A9EFD" font-family="Arial" font-size="14" lengthAdjust="spacing" textLength="61.4824" x="592.5686" y="873.0474">Extension</text></g><g class="message" data-entity-1="part2" data-entity-2="part3" data-source-line="15" id="msg1"><polygon fill="#0A9EFD" points="515.9507,113.0474,525.9507,117.0474,515.9507,121.0474,519.9507,117.0474" style="stroke:#0A9EFD;stroke-width:1;stroke-linejoin:miter;stroke-miterlimit:10;"/><line style="stroke:#0A9EFD;stroke-width:2;" x1="146.3174" x2="521.9507" y1="117.0474" y2="117.0474"/><text fill="#0A9EFD" font-family="Arial" font-size="13" lengthAdjust="spacing" textLength="134.3862" x="269.9409" y="112.2925">AgoraRTC.createClient</text></g><path d="M95.0762,132.0474 L331.604,132.0474 L331.604,138.9961 L321.604,148.9961 L95.0762,148.9961 L95.0762,132.0474" fill="#EEEEEE" style="stroke:#0A9EFD;stroke-width:1.5;"/><rect fill="none" height="74.8462" style="stroke:#0A9EFD;stroke-width:2;" width="584.5403" x="95.0762" y="132.0474"/><text fill="#000000" font-family="Arial" font-size="13" lengthAdjust="spacing" textLength="191.5278" x="110.0762" y="145.2412">Setup the spatial audio extension</text><g class="message" data-entity-1="part2" data-entity-2="part3" data-source-line="17" id="msg2"><polygon fill="#0A9EFD" points="515.9507,165.9448,525.9507,169.9448,515.9507,173.9448,519.9507,169.9448" style="stroke:#0A9EFD;stroke-width:1;stroke-linejoin:miter;stroke-miterlimit:10;"/><line style="stroke:#0A9EFD;stroke-width:2;" x1="146.3174" x2="521.9507" y1="169.9448" y2="169.9448"/><text fill="#0A9EFD" font-family="Arial" font-size="13" lengthAdjust="spacing" textLength="165.458" x="254.405" y="165.1899">AgoraRTC.registerExtension</text></g><g class="message" data-entity-1="part2" data-entity-2="part4" data-source-line="18" id="msg3"><polygon fill="#0A9EFD" points="609.365,194.8936,619.365,198.8936,609.365,202.8936,613.365,198.8936" style="stroke:#0A9EFD;stroke-width:1;stroke-linejoin:miter;stroke-miterlimit:10;"/><line style="stroke:#0A9EFD;stroke-width:2;" x1="146.3174" x2="615.365" y1="198.8936" y2="198.8936"/><text fill="#0A9EFD" font-family="Arial" font-size="13" lengthAdjust="spacing" textLength="239.9414" x="263.8705" y="194.1387">spatialAudioExtension.updateSelfPosition</text></g><g class="message" data-entity-1="part1" data-entity-2="part2" data-source-line="21" id="msg4"><polygon fill="#0A9EFD" points="134.3174,230.8423,144.3174,234.8423,134.3174,238.8423,138.3174,234.8423" style="stroke:#0A9EFD;stroke-width:1;stroke-linejoin:miter;stroke-miterlimit:10;"/><line style="stroke:#0A9EFD;stroke-width:2;" x1="37.7793" x2="140.3174" y1="234.8423" y2="234.8423"/><text fill="#0A9EFD" font-family="Arial" font-size="13" lengthAdjust="spacing" textLength="75.8862" x="54.1052" y="230.0874">Join Channel</text></g><g class="message" data-entity-1="part2" data-entity-2="part3" data-source-line="22" id="msg5"><polygon fill="#0A9EFD" points="515.9507,259.791,525.9507,263.791,515.9507,267.791,519.9507,263.791" style="stroke:#0A9EFD;stroke-width:1;stroke-linejoin:miter;stroke-miterlimit:10;"/><line style="stroke:#0A9EFD;stroke-width:2;" x1="146.3174" x2="521.9507" y1="263.791" y2="263.791"/><text fill="#0A9EFD" font-family="Arial" font-size="13" lengthAdjust="spacing" textLength="118.4917" x="277.8882" y="259.0361">AgoraRTCClient.join</text></g><path d="M95.0762,278.791 L341.9951,278.791 L341.9951,285.7397 L331.9951,295.7397 L95.0762,295.7397 L95.0762,278.791" fill="#EEEEEE" style="stroke:#0A9EFD;stroke-width:1.5;"/><rect fill="none" height="190.6411" style="stroke:#0A9EFD;stroke-width:2;" width="584.5403" x="95.0762" y="278.791"/><text fill="#000000" font-family="Arial" font-size="13" lengthAdjust="spacing" textLength="201.9189" x="110.0762" y="291.9849">Realize remote user's spatial audio</text><g class="message" data-entity-1="part3" data-entity-2="part2" data-source-line="25" id="msg6"><polygon fill="#0A9EFD" points="157.3174,312.6885,147.3174,316.6885,157.3174,320.6885,153.3174,316.6885" style="stroke:#0A9EFD;stroke-width:1;stroke-linejoin:miter;stroke-miterlimit:10;"/><line style="stroke:#0A9EFD;stroke-width:2;" x1="151.3174" x2="526.9507" y1="316.6885" y2="316.6885"/><text fill="#0A9EFD" font-family="Arial" font-size="13" lengthAdjust="spacing" textLength="151.582" x="261.343" y="311.9336">client.on("user-published")</text></g><g class="message" data-entity-1="part2" data-entity-2="part3" data-source-line="26" id="msg7"><polygon fill="#0A9EFD" points="515.9507,341.6372,525.9507,345.6372,515.9507,349.6372,519.9507,345.6372" style="stroke:#0A9EFD;stroke-width:1;stroke-linejoin:miter;stroke-miterlimit:10;"/><line style="stroke:#0A9EFD;stroke-width:2;" x1="146.3174" x2="521.9507" y1="345.6372" y2="345.6372"/><text fill="#0A9EFD" font-family="Arial" font-size="13" lengthAdjust="spacing" textLength="153.8926" x="260.1877" y="340.8823">AgoraRTCClient.subscribe</text></g><g class="message" data-entity-1="part2" data-entity-2="part4" data-source-line="27" id="msg8"><polygon fill="#0A9EFD" points="609.365,370.5859,619.365,374.5859,609.365,378.5859,613.365,374.5859" style="stroke:#0A9EFD;stroke-width:1;stroke-linejoin:miter;stroke-miterlimit:10;"/><line style="stroke:#0A9EFD;stroke-width:2;" x1="146.3174" x2="615.365" y1="374.5859" y2="374.5859"/><text fill="#0A9EFD" font-family="Arial" font-size="13" lengthAdjust="spacing" textLength="226.1797" x="270.7513" y="369.8311">spatialAudioExtension.createProcessor</text></g><g class="message" data-entity-1="part2" data-entity-2="part3" data-source-line="28" id="msg9"><polygon fill="#0A9EFD" points="515.9507,399.5347,525.9507,403.5347,515.9507,407.5347,519.9507,403.5347" style="stroke:#0A9EFD;stroke-width:1;stroke-linejoin:miter;stroke-miterlimit:10;"/><line style="stroke:#0A9EFD;stroke-width:2;" x1="146.3174" x2="521.9507" y1="403.5347" y2="403.5347"/><text fill="#0A9EFD" font-family="Arial" font-size="13" lengthAdjust="spacing" textLength="357.6333" x="158.3174" y="398.7798">remoteTrack.pipe(processor).pipe(track.processorDestination)</text></g><g class="message" data-entity-1="part2" data-entity-2="part3" data-source-line="29" id="msg10"><polygon fill="#0A9EFD" points="515.9507,428.4834,525.9507,432.4834,515.9507,436.4834,519.9507,432.4834" style="stroke:#0A9EFD;stroke-width:1;stroke-linejoin:miter;stroke-miterlimit:10;"/><line style="stroke:#0A9EFD;stroke-width:2;" x1="146.3174" x2="521.9507" y1="432.4834" y2="432.4834"/><text fill="#0A9EFD" font-family="Arial" font-size="13" lengthAdjust="spacing" textLength="101.8608" x="286.2036" y="427.7285">remoteTrack.Play</text></g><g class="message" data-entity-1="part2" data-entity-2="part4" data-source-line="30" id="msg11"><polygon fill="#0A9EFD" points="609.365,457.4321,619.365,461.4321,609.365,465.4321,613.365,461.4321" style="stroke:#0A9EFD;stroke-width:1;stroke-linejoin:miter;stroke-miterlimit:10;"/><line style="stroke:#0A9EFD;stroke-width:2;" x1="146.3174" x2="615.365" y1="461.4321" y2="461.4321"/><text fill="#0A9EFD" font-family="Arial" font-size="13" lengthAdjust="spacing" textLength="192.2197" x="287.7313" y="456.6772">processor.updateRemotePosition</text></g><path d="M10,483.4321 L262.397,483.4321 L262.397,490.3809 L252.397,500.3809 L10,500.3809 L10,483.4321" fill="#EEEEEE" style="stroke:#0A9EFD;stroke-width:1.5;"/><rect fill="none" height="190.6411" style="stroke:#0A9EFD;stroke-width:2;" width="669.6165" x="10" y="483.4321"/><text fill="#000000" font-family="Arial" font-size="13" lengthAdjust="spacing" textLength="207.397" x="25" y="496.626">Spatial audio effect for media player</text><g class="message" data-entity-1="part1" data-entity-2="part2" data-source-line="34" id="msg12"><polygon fill="#0A9EFD" points="134.3174,517.3296,144.3174,521.3296,134.3174,525.3296,138.3174,521.3296" style="stroke:#0A9EFD;stroke-width:1;stroke-linejoin:miter;stroke-miterlimit:10;"/><line style="stroke:#0A9EFD;stroke-width:2;" x1="37.7793" x2="140.3174" y1="521.3296" y2="521.3296"/><text fill="#0A9EFD" font-family="Arial" font-size="13" lengthAdjust="spacing" textLength="84.5381" x="49.7793" y="516.5747">Play media file</text></g><g class="message" data-entity-1="part2" data-entity-2="part3" data-source-line="35" id="msg13"><polygon fill="#0A9EFD" points="515.9507,546.2783,525.9507,550.2783,515.9507,554.2783,519.9507,550.2783" style="stroke:#0A9EFD;stroke-width:1;stroke-linejoin:miter;stroke-miterlimit:10;"/><line style="stroke:#0A9EFD;stroke-width:2;" x1="146.3174" x2="521.9507" y1="550.2783" y2="550.2783"/><text fill="#0A9EFD" font-family="Arial" font-size="13" lengthAdjust="spacing" textLength="242.7725" x="215.7478" y="545.5234">AgoraRTC.createBufferSourceAudioTrack</text></g><g class="message" data-entity-1="part2" data-entity-2="part4" data-source-line="36" id="msg14"><polygon fill="#0A9EFD" points="609.365,575.2271,619.365,579.2271,609.365,583.2271,613.365,579.2271" style="stroke:#0A9EFD;stroke-width:1;stroke-linejoin:miter;stroke-miterlimit:10;"/><line style="stroke:#0A9EFD;stroke-width:2;" x1="146.3174" x2="615.365" y1="579.2271" y2="579.2271"/><text fill="#0A9EFD" font-family="Arial" font-size="13" lengthAdjust="spacing" textLength="226.1797" x="270.7513" y="574.4722">spatialAudioExtension.createProcessor</text></g><g class="message" data-entity-1="part2" data-entity-2="part3" data-source-line="37" id="msg15"><polygon fill="#0A9EFD" points="515.9507,604.1758,525.9507,608.1758,515.9507,612.1758,519.9507,608.1758" style="stroke:#0A9EFD;stroke-width:1;stroke-linejoin:miter;stroke-miterlimit:10;"/><line style="stroke:#0A9EFD;stroke-width:2;" x1="146.3174" x2="521.9507" y1="608.1758" y2="608.1758"/><text fill="#0A9EFD" font-family="Arial" font-size="13" lengthAdjust="spacing" textLength="312.8442" x="180.7119" y="603.4209">track.pipe(processor).pipe(track.processorDestination)</text></g><g class="message" data-entity-1="part2" data-entity-2="part3" data-source-line="38" id="msg16"><polygon fill="#0A9EFD" points="515.9507,633.1245,525.9507,637.1245,515.9507,641.1245,519.9507,637.1245" style="stroke:#0A9EFD;stroke-width:1;stroke-linejoin:miter;stroke-miterlimit:10;"/><line style="stroke:#0A9EFD;stroke-width:2;" x1="146.3174" x2="521.9507" y1="637.1245" y2="637.1245"/><text fill="#0A9EFD" font-family="Arial" font-size="13" lengthAdjust="spacing" textLength="57.0718" x="308.5981" y="632.3696">track.Play</text></g><g class="message" data-entity-1="part2" data-entity-2="part4" data-source-line="39" id="msg17"><polygon fill="#0A9EFD" points="609.365,662.0732,619.365,666.0732,609.365,670.0732,613.365,666.0732" style="stroke:#0A9EFD;stroke-width:1;stroke-linejoin:miter;stroke-miterlimit:10;"/><line style="stroke:#0A9EFD;stroke-width:2;" x1="146.3174" x2="615.365" y1="666.0732" y2="666.0732"/><text fill="#0A9EFD" font-family="Arial" font-size="13" lengthAdjust="spacing" textLength="205.2324" x="281.225" y="661.3184">processor.updatePlayerPositionInfo</text></g><path d="M95.0762,688.0732 L188.5024,688.0732 L188.5024,695.022 L178.5024,705.022 L95.0762,705.022 L95.0762,688.0732" fill="#EEEEEE" style="stroke:#0A9EFD;stroke-width:1.5;"/><rect fill="none" height="132.7437" style="stroke:#0A9EFD;stroke-width:2;" width="584.5403" x="95.0762" y="688.0732"/><text fill="#000000" font-family="Arial" font-size="13" lengthAdjust="spacing" textLength="48.4263" x="110.0762" y="701.2671">Cleanup</text><g class="message" data-entity-1="part3" data-entity-2="part2" data-source-line="43" id="msg18"><polygon fill="#0A9EFD" points="157.3174,721.9707,147.3174,725.9707,157.3174,729.9707,153.3174,725.9707" style="stroke:#0A9EFD;stroke-width:1;stroke-linejoin:miter;stroke-miterlimit:10;"/><line style="stroke:#0A9EFD;stroke-width:2;" x1="151.3174" x2="526.9507" y1="725.9707" y2="725.9707"/><text fill="#0A9EFD" font-family="Arial" font-size="13" lengthAdjust="spacing" textLength="166.042" x="254.113" y="721.2158">client.on("user-unpublished")</text></g><g class="message" data-entity-1="part2" data-entity-2="part4" data-source-line="44" id="msg19"><polygon fill="#0A9EFD" points="609.365,750.9194,619.365,754.9194,609.365,758.9194,613.365,754.9194" style="stroke:#0A9EFD;stroke-width:1;stroke-linejoin:miter;stroke-miterlimit:10;"/><line style="stroke:#0A9EFD;stroke-width:2;" x1="146.3174" x2="615.365" y1="754.9194" y2="754.9194"/><text fill="#0A9EFD" font-family="Arial" font-size="13" lengthAdjust="spacing" textLength="195.8062" x="285.9381" y="750.1646">processor.removeRemotePosition</text></g><g class="message" data-entity-1="part3" data-entity-2="part2" data-source-line="46" id="msg20"><polygon fill="#0A9EFD" points="157.3174,779.8682,147.3174,783.8682,157.3174,787.8682,153.3174,783.8682" style="stroke:#0A9EFD;stroke-width:1;stroke-linejoin:miter;stroke-miterlimit:10;"/><line style="stroke:#0A9EFD;stroke-width:2;" x1="151.3174" x2="526.9507" y1="783.8682" y2="783.8682"/><text fill="#0A9EFD" font-family="Arial" font-size="13" lengthAdjust="spacing" textLength="96.0972" x="289.0854" y="779.1133">AgoraRTC.leave</text></g><g class="message" data-entity-1="part2" data-entity-2="part4" data-source-line="47" id="msg21"><polygon fill="#0A9EFD" points="609.365,808.8169,619.365,812.8169,609.365,816.8169,613.365,812.8169" style="stroke:#0A9EFD;stroke-width:1;stroke-linejoin:miter;stroke-miterlimit:10;"/><line style="stroke:#0A9EFD;stroke-width:2;" x1="146.3174" x2="615.365" y1="812.8169" y2="812.8169"/><text fill="#0A9EFD" font-family="Arial" font-size="13" lengthAdjust="spacing" textLength="180.6353" x="293.5236" y="808.062">processor.clearRemotePosition</text></g><?plantuml-src fLFRQjj047tVhvZgfV63bKBVZ0aujX_IGX6IKneebFLgP4-otbts4jn-L3-YNzRLpQs4Om9vqMtFd7FcpEWTAI53YS1tsl8VxebKIk4WMVrakEK7kDN7Z9SbgHry_C0O5rvRIEuTsWIuW_iYPsohZv0yw6216vEmMEX9aE7AG_ALIjHGh3uty4MMCLGbn8gkR54hZsgALRxvCdV1tFpvFR-kxrtntGXdk2SkOH5AqjyLh8yUbIEj6lZws-QVLXI6wKrDCOD6CjyiKs6HUrnAGkNPpkfWe40VhtwFu3foNfC3zjJdcIpko7cqwp4icfZrL8tD4o8Dfepg1SegquvyNHJjCXOZRGMo6NpIf62vvqgXFAlScayV8uvrBUJ89Vr2i7ZG7Y74KRrtmtOQglcqfH8jXLPNIOsTch2LvFPO9fDBaYvidR2qnLUqsWQTMItGEMq7jAtDZUNYAJLayChqi4dxxjkZ_kiAdIV5wxmcBn9balyS-3gLTx7d3NWOVBS1mxbN5GeFLLpw0vR4mKHcj8CXrMBTQKKIB-tQROXyjeY_Yi0ceyRk6nFqRy_Elowrh6c-J-rELVh_v9OIkGhcud85TMQzHbhr89_74ngmdbADYi_u0es8X_RCdFy2?></g></svg>