<svg xmlns="http://www.w3.org/2000/svg" xmlns:xlink="http://www.w3.org/1999/xlink" contentStyleType="text/css" data-diagram-type="SEQUENCE" height="347px" preserveAspectRatio="none" style="width:632px;height:347px;" version="1.1" viewBox="0 0 632 347" width="632px" zoomAndPan="magnify"><?plantuml 1.2026.4?><defs/><g><rect fill="none" height="345.5013" style="stroke:#0A9EFD;stroke-width:1;" width="630.3395" x="0" y="0"/><rect fill="#999999" fill-opacity="0.33333" height="334.5013" style="stroke:#0A9EFD;stroke-width:0.5;" width="50.6667" x="16" y="6"/><text fill="#0A9EFD" font-family="sans-serif" font-size="13" font-weight="700" lengthAdjust="spacing" textLength="25.27" x="28.6983" y="19.4951">App</text><rect fill="#999999" fill-opacity="0.33333" height="334.5013" style="stroke:#0A9EFD;stroke-width:0.5;" width="79.7026" x="205.5024" y="6"/><text fill="#0A9EFD" font-family="sans-serif" font-size="13" font-weight="700" lengthAdjust="spacing" textLength="73.7026" x="208.5024" y="19.4951">Your Server</text><rect fill="#999999" fill-opacity="0.33333" height="334.5013" style="stroke:#0A9EFD;stroke-width:0.5;" width="72.4536" x="389.91" y="6"/><text fill="#0A9EFD" font-family="sans-serif" font-size="13" font-weight="700" lengthAdjust="spacing" textLength="66.4536" x="392.91" y="19.4951">Video SDK</text><rect fill="#999999" fill-opacity="0.33333" height="334.5013" style="stroke:#0A9EFD;stroke-width:0.5;" width="99.3154" x="526.0241" y="6"/><text fill="#0A9EFD" font-family="sans-serif" font-size="13" font-weight="700" lengthAdjust="spacing" textLength="85.9473" x="529.0241" y="21.7217">Agora SDRTN</text><text fill="#0A9EFD" font-family="sans-serif" font-size="10" font-weight="700" lengthAdjust="spacing" textLength="7.3682" x="614.9714" y="16.3809">&#174;</text><rect fill="#0A9EFD" fill-opacity="0.06667" height="191.5898" style="stroke:#0A9EFD;stroke-width:2;" width="597.0151" x="10" y="87.2448"/><g class="participant-lifeline" data-entity-uid="part1" data-qualified-name="APP" data-source-line="4" id="part1-lifeline"><g><title>.size.40...tablet.</title><rect fill="#000000" fill-opacity="0.00000" height="225.5898" width="8" x="37.3333" y="70.2448"/><line style="stroke:#0A9EFD;stroke-width:0.5;stroke-dasharray:5,5;" x1="41" x2="41" y1="70.2448" y2="295.8346"/></g></g><g class="participant-lifeline" data-entity-uid="part2" data-qualified-name="SVR" data-source-line="8" id="part2-lifeline"><g><title>.size.40...hard-drive.</title><rect fill="#000000" fill-opacity="0.00000" height="225.5898" width="8" x="241.3538" y="70.2448"/><line style="stroke:#0A9EFD;stroke-width:0.5;stroke-dasharray:5,5;" x1="245.0204" x2="245.0204" y1="70.2448" y2="295.8346"/></g></g><g class="participant-lifeline" data-entity-uid="part3" data-qualified-name="SDK" data-source-line="12" id="part3-lifeline"><g><title>.size.40...layers.</title><rect fill="#000000" fill-opacity="0.00000" height="225.5898" width="8" x="422.1368" y="70.2448"/><line style="stroke:#0A9EFD;stroke-width:0.5;stroke-dasharray:5,5;" x1="425.8035" x2="425.8035" y1="70.2448" y2="295.8346"/></g></g><g class="participant-lifeline" data-entity-uid="part4" data-qualified-name="RTN" data-source-line="16" id="part4-lifeline"><g><title>.size.40...cloud.</title><rect fill="#000000" fill-opacity="0.00000" height="225.5898" width="8" x="571.6818" y="70.2448"/><line style="stroke:#0A9EFD;stroke-width:0.5;stroke-dasharray:5,5;" x1="575.3485" x2="575.3485" y1="70.2448" y2="295.8346"/></g></g><g class="participant participant-head" data-entity-uid="part1" data-qualified-name="APP" data-source-line="4" id="part1-head"><rect fill="none" height="40.6667" rx="2.5" ry="2.5" style="stroke:#0A9EFD;stroke-width:2;" width="42.6667" x="20" y="28.5781"/><path d="M29.1333,35.5781 C28.5333,35.5781 28,36.1115 28,36.7115 L28,61.0781 C28,61.6781 28.5333,62.2115 29.1333,62.2115 L50.1667,62.2115 C50.7667,62.2115 51.3,61.6781 51.3,61.0781 L51.3,36.7115 C51.3,36.1115 50.7667,35.5781 50.1667,35.5781 L29.1333,35.5781 M31.3333,38.9115 L48,38.9115 L48,55.5781 L31.3333,55.5781 L31.3333,38.9115 M39.6667,57.2448 C40.9333,57.2448 41.7667,58.6448 41.1333,59.7448 C40.5,60.8448 38.8667,60.8448 38.2,59.7448 C37.5667,58.6448 38.3667,57.2448 39.6667,57.2448" fill="#0A9EFD"/></g><g class="participant participant-tail" data-entity-uid="part1" data-qualified-name="APP" data-source-line="4" id="part1-tail"><rect fill="none" height="40.6667" rx="2.5" ry="2.5" style="stroke:#0A9EFD;stroke-width:2;" width="42.6667" x="20" y="294.8346"/><path d="M29.1333,301.8346 C28.5333,301.8346 28,302.368 28,302.968 L28,327.3346 C28,327.9346 28.5333,328.468 29.1333,328.468 L50.1667,328.468 C50.7667,328.468 51.3,327.9346 51.3,327.3346 L51.3,302.968 C51.3,302.368 50.7667,301.8346 50.1667,301.8346 L29.1333,301.8346 M31.3333,305.168 L48,305.168 L48,321.8346 L31.3333,321.8346 L31.3333,305.168 M39.6667,323.5013 C40.9333,323.5013 41.7667,324.9013 41.1333,326.0013 C40.5,327.1013 38.8667,327.1013 38.2,326.0013 C37.5667,324.9013 38.3667,323.5013 39.6667,323.5013" fill="#0A9EFD"/></g><g class="participant participant-head" data-entity-uid="part2" data-qualified-name="SVR" data-source-line="8" id="part2-head"><rect fill="none" height="40.6667" rx="2.5" ry="2.5" style="stroke:#0A9EFD;stroke-width:2;" width="42.6667" x="224.0204" y="28.5781"/><path d="M232.6538,35.5781 C232.2871,35.5781 232.0204,35.8448 232.0204,36.2115 L232.0204,47.2448 C232.0204,48.1781 232.7538,48.9115 233.6871,48.9115 L253.6871,48.9115 C254.6204,48.9115 255.3538,48.1781 255.3538,47.2448 L255.3538,36.2115 C255.3538,35.8448 255.0871,35.5781 254.7204,35.5781 L232.6204,35.5781 M232.0204,51.9448 L232.0204,61.6448 C232.0204,62.0115 232.2871,62.2781 232.6538,62.2781 L254.7538,62.2781 C255.1204,62.2781 255.3871,62.0115 255.3871,61.6448 L255.3871,51.9448 C254.8538,52.1448 254.3204,52.2448 253.7204,52.2448 L233.7204,52.2448 C233.1204,52.2448 232.5871,52.1115 232.0538,51.9448 M250.3538,55.5781 C251.2871,55.5781 252.0204,56.3115 252.0204,57.2448 C252.0204,58.1781 251.2871,58.9115 250.3538,58.9115 C249.4204,58.9115 248.6871,58.1781 248.6871,57.2448 C248.6871,56.3115 249.4204,55.5781 250.3538,55.5781" fill="#0A9EFD"/></g><g class="participant participant-tail" data-entity-uid="part2" data-qualified-name="SVR" data-source-line="8" id="part2-tail"><rect fill="none" height="40.6667" rx="2.5" ry="2.5" style="stroke:#0A9EFD;stroke-width:2;" width="42.6667" x="224.0204" y="294.8346"/><path d="M232.6538,301.8346 C232.2871,301.8346 232.0204,302.1013 232.0204,302.468 L232.0204,313.5013 C232.0204,314.4346 232.7538,315.168 233.6871,315.168 L253.6871,315.168 C254.6204,315.168 255.3538,314.4346 255.3538,313.5013 L255.3538,302.468 C255.3538,302.1013 255.0871,301.8346 254.7204,301.8346 L232.6204,301.8346 M232.0204,318.2013 L232.0204,327.9013 C232.0204,328.268 232.2871,328.5346 232.6538,328.5346 L254.7538,328.5346 C255.1204,328.5346 255.3871,328.268 255.3871,327.9013 L255.3871,318.2013 C254.8538,318.4013 254.3204,318.5013 253.7204,318.5013 L233.7204,318.5013 C233.1204,318.5013 232.5871,318.368 232.0538,318.2013 M250.3538,321.8346 C251.2871,321.8346 252.0204,322.568 252.0204,323.5013 C252.0204,324.4346 251.2871,325.168 250.3538,325.168 C249.4204,325.168 248.6871,324.4346 248.6871,323.5013 C248.6871,322.568 249.4204,321.8346 250.3538,321.8346" fill="#0A9EFD"/></g><g class="participant participant-head" data-entity-uid="part3" data-qualified-name="SDK" data-source-line="12" id="part3-head"><rect fill="none" height="40.6667" rx="2.5" ry="2.5" style="stroke:#0A9EFD;stroke-width:2;" width="42.6667" x="404.8035" y="28.5781"/><path d="M412.8035,35.5781 L412.8035,48.9115 L426.1368,48.9115 L426.1368,35.5781 L412.8035,35.5781 M429.4701,42.2448 L429.4701,52.2448 L419.4701,52.2448 L419.4701,55.5781 L432.8035,55.5781 L432.8035,42.2448 L429.4701,42.2448 M436.1368,48.9115 L436.1368,58.9115 L426.1368,58.9115 L426.1368,62.2448 L439.4701,62.2448 L439.4701,48.9115 L436.1368,48.9115" fill="#0A9EFD"/></g><g class="participant participant-tail" data-entity-uid="part3" data-qualified-name="SDK" data-source-line="12" id="part3-tail"><rect fill="none" height="40.6667" rx="2.5" ry="2.5" style="stroke:#0A9EFD;stroke-width:2;" width="42.6667" x="404.8035" y="294.8346"/><path d="M412.8035,301.8346 L412.8035,315.168 L426.1368,315.168 L426.1368,301.8346 L412.8035,301.8346 M429.4701,308.5013 L429.4701,318.5013 L419.4701,318.5013 L419.4701,321.8346 L432.8035,321.8346 L432.8035,308.5013 L429.4701,308.5013 M436.1368,315.168 L436.1368,325.168 L426.1368,325.168 L426.1368,328.5013 L439.4701,328.5013 L439.4701,315.168 L436.1368,315.168" fill="#0A9EFD"/></g><g class="participant participant-head" data-entity-uid="part4" data-qualified-name="RTN" data-source-line="16" id="part4-head"><rect fill="none" height="40.6667" rx="2.5" ry="2.5" style="stroke:#0A9EFD;stroke-width:2;" width="42.6667" x="554.3485" y="28.5781"/><path d="M577.3485,38.9115 C573.3151,38.9115 569.7818,41.7781 569.0151,45.5781 C565.3485,45.5781 562.3485,48.5781 562.3485,52.2448 C562.3485,55.9115 565.3485,58.9115 569.0151,58.9115 L584.0151,58.9115 C586.7818,58.9115 589.0151,56.6781 589.0151,53.9115 C589.0151,51.7448 587.6151,49.6115 585.6818,48.9115 L585.6818,47.2448 C585.6818,42.6448 581.9485,38.9115 577.3485,38.9115" fill="#0A9EFD"/></g><g class="participant participant-tail" data-entity-uid="part4" data-qualified-name="RTN" data-source-line="16" id="part4-tail"><rect fill="none" height="40.6667" rx="2.5" ry="2.5" style="stroke:#0A9EFD;stroke-width:2;" width="42.6667" x="554.3485" y="294.8346"/><path d="M577.3485,305.168 C573.3151,305.168 569.7818,308.0346 569.0151,311.8346 C565.3485,311.8346 562.3485,314.8346 562.3485,318.5013 C562.3485,322.168 565.3485,325.168 569.0151,325.168 L584.0151,325.168 C586.7818,325.168 589.0151,322.9346 589.0151,320.168 C589.0151,318.0013 587.6151,315.868 585.6818,315.168 L585.6818,313.5013 C585.6818,308.9013 581.9485,305.168 577.3485,305.168" fill="#0A9EFD"/></g><path d="M10,87.2448 L175.6943,87.2448 L175.6943,94.1935 L165.6943,104.1935 L10,104.1935 L10,87.2448" fill="#EEEEEE" style="stroke:#0A9EFD;stroke-width:1.5;"/><rect fill="none" height="191.5898" style="stroke:#0A9EFD;stroke-width:2;" width="597.0151" x="10" y="87.2448"/><text fill="#000000" font-family="Arial" font-size="13" lengthAdjust="spacing" textLength="120.6943" x="25" y="100.4386">Token authentication</text><g class="message" data-entity-1="part1" data-entity-2="part2" data-source-line="20" id="msg1"><polygon fill="#0A9EFD" points="233.3538,136.091,243.3538,140.091,233.3538,144.091,237.3538,140.091" style="stroke:#0A9EFD;stroke-width:1;stroke-linejoin:miter;stroke-miterlimit:10;"/><line style="stroke:#0A9EFD;stroke-width:2;" x1="41.3333" x2="239.3538" y1="140.091" y2="140.091"/><text fill="#0A9EFD" font-family="Arial" font-size="13" lengthAdjust="spacing" textLength="94.6753" x="96.0059" y="120.3874">Request a token</text><text fill="#0A9EFD" font-family="Arial" font-size="13" lengthAdjust="spacing" textLength="165.5024" x="60.5923" y="135.3361">with a uid and channel name</text></g><g class="message" data-entity-1="part2" data-entity-2="part1" data-source-line="21" id="msg2"><polygon fill="#0A9EFD" points="52.3333,165.0397,42.3333,169.0397,52.3333,173.0397,48.3333,169.0397" style="stroke:#0A9EFD;stroke-width:1;stroke-linejoin:miter;stroke-miterlimit:10;"/><line style="stroke:#0A9EFD;stroke-width:2;stroke-dasharray:2,2;" x1="46.3333" x2="244.3538" y1="169.0397" y2="169.0397"/><text fill="#0A9EFD" font-family="Arial" font-size="13" lengthAdjust="spacing" textLength="163.3315" x="61.6778" y="164.2848">Generate and return a token</text></g><g class="message" data-entity-1="part1" data-entity-2="part3" data-source-line="22" id="msg3"><polygon fill="#0A9EFD" points="414.1368,208.9372,424.1368,212.9372,414.1368,216.9372,418.1368,212.9372" style="stroke:#0A9EFD;stroke-width:1;stroke-linejoin:miter;stroke-miterlimit:10;"/><line style="stroke:#0A9EFD;stroke-width:2;" x1="41.3333" x2="420.1368" y1="212.9372" y2="212.9372"/><text fill="#0A9EFD" font-family="Arial" font-size="13" lengthAdjust="spacing" textLength="320.874" x="73.2981" y="193.2336">Join the corresponding channel with uid, channel name,</text><text fill="#0A9EFD" font-family="Arial" font-size="13" lengthAdjust="spacing" textLength="57.1035" x="206.9892" y="208.1823">and token</text></g><g class="message" data-entity-1="part3" data-entity-2="part4" data-source-line="23" id="msg4"><polygon fill="#0A9EFD" points="437.1368,237.8859,427.1368,241.8859,437.1368,245.8859,433.1368,241.8859" style="stroke:#0A9EFD;stroke-width:1;stroke-linejoin:miter;stroke-miterlimit:10;"/><polygon fill="#0A9EFD" points="563.6818,237.8859,573.6818,241.8859,563.6818,245.8859,567.6818,241.8859" style="stroke:#0A9EFD;stroke-width:1;stroke-linejoin:miter;stroke-miterlimit:10;"/><line style="stroke:#0A9EFD;stroke-width:2;stroke-dasharray:2,2;" x1="431.1368" x2="569.6818" y1="241.8859" y2="241.8859"/><text fill="#0A9EFD" font-family="Arial" font-size="13" lengthAdjust="spacing" textLength="90.3271" x="455.7457" y="237.131">Verify the token</text></g><g class="message" data-entity-1="part3" data-entity-2="part1" data-source-line="24" id="msg5"><polygon fill="#0A9EFD" points="52.3333,266.8346,42.3333,270.8346,52.3333,274.8346,48.3333,270.8346" style="stroke:#0A9EFD;stroke-width:1;stroke-linejoin:miter;stroke-miterlimit:10;"/><line style="stroke:#0A9EFD;stroke-width:2;stroke-dasharray:2,2;" x1="46.3333" x2="425.1368" y1="270.8346" y2="270.8346"/><text fill="#0A9EFD" font-family="Arial" font-size="13" lengthAdjust="spacing" textLength="181.3906" x="143.0398" y="266.0798">Successfully joined the channel</text></g><?plantuml-src TT3HIiCm50RW-px5iHTURUg5LwKK1WF1WOnr38I1PCtP6fUTr9DaEX_AX_39F6tdnC6kIfhytv-JAqELZHf1RHoh5xyrT6FYpYR9odr0EcgQD6aK1rEPHb60DFVc4xFxkoA_3cfbCHGfA0-ZwJH1qY2fO_JPHOOIUOzycQWLww5ciyUUAHUpCsPXD3eenvFBY5K7P7y4nfCpODGE9lzdywVSnwRu_ifls-zbhx8kwfwJq1-tOHSRcBij4gWOQYI9gs0S9JB-i93BPp33juW-W8BG7bpIkmcrhABHe4IgQaM45aZji8tbms6NUq12LW6xGumXClqQHtqyoU3H6G9fXienesySQKER4zfrITFWNyrWIPtQO-98Po6JPR10Dkj31vusPK_wCYXZLQ7twsZj0Lwb5tNVtCljioG_?></g></svg>