<?xml version="1.0" encoding="us-ascii" standalone="no"?><svg xmlns="http://www.w3.org/2000/svg" xmlns:xlink="http://www.w3.org/1999/xlink" contentStyleType="text/css" height="758px" preserveAspectRatio="none" style="width:437px;height:758px;" version="1.1" viewBox="0 0 437 758" width="437px" zoomAndPan="magnify"><defs/><g><rect fill="none" height="756.1719" style="stroke:#0A9EFD;stroke-width:1.0;" width="435.5" x="0" y="0"/><rect fill="#999999" fill-opacity="0.33333" height="746.1719" style="stroke:#0A9EFD;stroke-width:0.5;" width="90" x="74.5" y="6"/><text fill="#0A9EFD" font-family="sans-serif" font-size="13" font-weight="bold" lengthAdjust="spacing" textLength="57" x="91" y="19.4951">Your app</text><rect fill="#999999" fill-opacity="0.33333" height="746.1719" style="stroke:#0A9EFD;stroke-width:0.5;" width="74" x="351.5" y="6"/><text fill="#0A9EFD" font-family="sans-serif" font-size="13" font-weight="bold" lengthAdjust="spacing" textLength="38" x="369.5" y="19.4951">Agora</text><rect fill="#0A9EFD" fill-opacity="0.06667" height="204.5898" style="stroke:#0A9EFD;stroke-width:2.0;" width="421.5" x="10" y="287.791"/><line style="stroke:#0A9EFD;stroke-width:0.5;stroke-dasharray:5.0,5.0;" x1="37" x2="37" y1="86.0986" y2="668.0732"/><line style="stroke:#0A9EFD;stroke-width:0.5;stroke-dasharray:5.0,5.0;" x1="119.5" x2="119.5" y1="86.0986" y2="668.0732"/><line style="stroke:#0A9EFD;stroke-width:0.5;stroke-dasharray:5.0,5.0;" x1="388.5" x2="388.5" y1="86.0986" y2="668.0732"/><text fill="#0A9EFD" font-family="Arial" font-size="14" lengthAdjust="spacing" textLength="29" x="20" y="83.1318">User</text><ellipse cx="37.5" cy="16" fill="none" rx="8" ry="8" style="stroke:#0A9EFD;stroke-width:3.0;"/><path d="M37.5,24 L37.5,51 M24.5,32 L50.5,32 M37.5,51 L24.5,66 M37.5,51 L50.5,66 " fill="none" style="stroke:#0A9EFD;stroke-width:3.0;"/><text fill="#0A9EFD" font-family="Arial" font-size="14" lengthAdjust="spacing" textLength="29" x="20" y="680.2051">User</text><ellipse cx="37.5" cy="694.1719" fill="none" rx="8" ry="8" style="stroke:#0A9EFD;stroke-width:3.0;"/><path d="M37.5,702.1719 L37.5,729.1719 M24.5,710.1719 L50.5,710.1719 M37.5,729.1719 L24.5,744.1719 M37.5,729.1719 L50.5,744.1719 " fill="none" style="stroke:#0A9EFD;stroke-width:3.0;"/><rect fill="none" height="30.0986" rx="2.5" ry="2.5" style="stroke:#0A9EFD;stroke-width:2.0;" width="82" x="78.5" y="55"/><text fill="#0A9EFD" font-family="Arial" font-size="14" lengthAdjust="spacing" textLength="68" x="85.5" y="75.1318">Video SDK</text><rect fill="none" height="30.0986" rx="2.5" ry="2.5" style="stroke:#0A9EFD;stroke-width:2.0;" width="82" x="78.5" y="667.0732"/><text fill="#0A9EFD" font-family="Arial" font-size="14" lengthAdjust="spacing" textLength="68" x="85.5" y="687.2051">Video SDK</text><rect fill="none" height="30.0986" rx="2.5" ry="2.5" style="stroke:#0A9EFD;stroke-width:2.0;" width="66" x="355.5" y="55"/><text fill="#0A9EFD" font-family="Arial" font-size="14" lengthAdjust="spacing" textLength="52" x="362.5" y="75.1318">SD-RTN</text><rect fill="none" height="30.0986" rx="2.5" ry="2.5" style="stroke:#0A9EFD;stroke-width:2.0;" width="66" x="355.5" y="667.0732"/><text fill="#0A9EFD" font-family="Arial" font-size="14" lengthAdjust="spacing" textLength="52" x="362.5" y="687.2051">SD-RTN</text><polygon fill="#0A9EFD" points="107.5,113.0474,117.5,117.0474,107.5,121.0474,111.5,117.0474" style="stroke:#0A9EFD;stroke-width:1.0;"/><line style="stroke:#0A9EFD;stroke-width:2.0;" x1="37.5" x2="113.5" y1="117.0474" y2="117.0474"/><text fill="#0A9EFD" font-family="Arial" font-size="13" lengthAdjust="spacing" textLength="58" x="49.5" y="112.2925">Open App</text><line style="stroke:#0A9EFD;stroke-width:2.0;" x1="119.5" x2="161.5" y1="160.9448" y2="160.9448"/><line style="stroke:#0A9EFD;stroke-width:2.0;" x1="161.5" x2="161.5" y1="160.9448" y2="173.9448"/><line style="stroke:#0A9EFD;stroke-width:2.0;" x1="120.5" x2="161.5" y1="173.9448" y2="173.9448"/><polygon fill="#0A9EFD" points="130.5,169.9448,120.5,173.9448,130.5,177.9448,126.5,173.9448" style="stroke:#0A9EFD;stroke-width:1.0;"/><text fill="#0A9EFD" font-family="Arial" font-size="13" lengthAdjust="spacing" textLength="212" x="126.5" y="141.2412">Initiate the Agora Video SDK engine:</text><text fill="#0A9EFD" font-family="Arial" font-size="13" lengthAdjust="spacing" textLength="188" x="142.5" y="156.1899">agoraEngine = RtcEngine.create</text><line style="stroke:#0A9EFD;stroke-width:2.0;" x1="119.5" x2="161.5" y1="217.8423" y2="217.8423"/><line style="stroke:#0A9EFD;stroke-width:2.0;" x1="161.5" x2="161.5" y1="217.8423" y2="230.8423"/><line style="stroke:#0A9EFD;stroke-width:2.0;" x1="120.5" x2="161.5" y1="230.8423" y2="230.8423"/><polygon fill="#0A9EFD" points="130.5,226.8423,120.5,230.8423,130.5,234.8423,126.5,230.8423" style="stroke:#0A9EFD;stroke-width:1.0;"/><text fill="#0A9EFD" font-family="Arial" font-size="13" lengthAdjust="spacing" textLength="168" x="126.5" y="198.1387">Setup the local video stream:</text><text fill="#0A9EFD" font-family="Arial" font-size="13" lengthAdjust="spacing" textLength="147" x="143" y="213.0874">agoraEngine.enableVideo</text><line style="stroke:#0A9EFD;stroke-width:2.0;" x1="119.5" x2="161.5" y1="259.791" y2="259.791"/><line style="stroke:#0A9EFD;stroke-width:2.0;" x1="161.5" x2="161.5" y1="259.791" y2="272.791"/><line style="stroke:#0A9EFD;stroke-width:2.0;" x1="120.5" x2="161.5" y1="272.791" y2="272.791"/><polygon fill="#0A9EFD" points="130.5,268.791,120.5,272.791,130.5,276.791,126.5,272.791" style="stroke:#0A9EFD;stroke-width:1.0;"/><text fill="#0A9EFD" font-family="Arial" font-size="13" lengthAdjust="spacing" textLength="220" x="126.5" y="255.0361">Widget = RtcLocalView.SurfaceView()</text><path d="M10,287.791 L82,287.791 L82,294.7397 L72,304.7397 L10,304.7397 L10,287.791 " fill="#EEEEEE" style="stroke:#0A9EFD;stroke-width:1.5;"/><rect fill="none" height="204.5898" style="stroke:#0A9EFD;stroke-width:2.0;" width="421.5" x="10" y="287.791"/><text fill="#000000" font-family="Arial" font-size="13" lengthAdjust="spacing" textLength="27" x="25" y="300.9849">User</text><polygon fill="#0A9EFD" points="107.5,321.6885,117.5,325.6885,107.5,329.6885,111.5,325.6885" style="stroke:#0A9EFD;stroke-width:1.0;"/><line style="stroke:#0A9EFD;stroke-width:2.0;" x1="37.5" x2="113.5" y1="325.6885" y2="325.6885"/><text fill="#0A9EFD" font-family="Arial" font-size="13" lengthAdjust="spacing" textLength="58" x="49.5" y="320.9336">Join a call</text><line style="stroke:#0A9EFD;stroke-width:2.0;" x1="119.5" x2="161.5" y1="354.6372" y2="354.6372"/><line style="stroke:#0A9EFD;stroke-width:2.0;" x1="161.5" x2="161.5" y1="354.6372" y2="367.6372"/><line style="stroke:#0A9EFD;stroke-width:2.0;" x1="120.5" x2="161.5" y1="367.6372" y2="367.6372"/><polygon fill="#0A9EFD" points="130.5,363.6372,120.5,367.6372,130.5,371.6372,126.5,367.6372" style="stroke:#0A9EFD;stroke-width:1.0;"/><text fill="#0A9EFD" font-family="Arial" font-size="13" lengthAdjust="spacing" textLength="255" x="126.5" y="349.8823">Retrieve authentication token to join channel</text><polygon fill="#0A9EFD" points="376.5,407.5347,386.5,411.5347,376.5,415.5347,380.5,411.5347" style="stroke:#0A9EFD;stroke-width:1.0;"/><line style="stroke:#0A9EFD;stroke-width:2.0;" x1="119.5" x2="382.5" y1="411.5347" y2="411.5347"/><text fill="#0A9EFD" font-family="Arial" font-size="13" lengthAdjust="spacing" textLength="98" x="205" y="391.8311">Join the channel:</text><text fill="#0A9EFD" font-family="Arial" font-size="13" lengthAdjust="spacing" textLength="143" x="184.5" y="406.7798">agoraEngine.joinChannel</text><polygon fill="#0A9EFD" points="376.5,451.4321,386.5,455.4321,376.5,459.4321,380.5,455.4321" style="stroke:#0A9EFD;stroke-width:1.0;"/><line style="stroke:#0A9EFD;stroke-width:2.0;" x1="119.5" x2="382.5" y1="455.4321" y2="455.4321"/><text fill="#0A9EFD" font-family="Arial" font-size="13" lengthAdjust="spacing" textLength="224" x="140" y="435.7285">Retrieve streaming from the other user:</text><text fill="#0A9EFD" font-family="Arial" font-size="13" lengthAdjust="spacing" textLength="234" x="137" y="450.6772">Widget = RtcRemoteView.SurfaceView()</text><polygon fill="#0A9EFD" points="130.5,480.3809,120.5,484.3809,130.5,488.3809,126.5,484.3809" style="stroke:#0A9EFD;stroke-width:1.0;"/><polygon fill="#0A9EFD" points="376.5,480.3809,386.5,484.3809,376.5,488.3809,380.5,484.3809" style="stroke:#0A9EFD;stroke-width:1.0;"/><line style="stroke:#0A9EFD;stroke-width:2.0;" x1="124.5" x2="382.5" y1="484.3809" y2="484.3809"/><text fill="#0A9EFD" font-family="Arial" font-size="13" lengthAdjust="spacing" textLength="175" x="166.5" y="479.626">Receive and send data stream</text><polygon fill="#0A9EFD" points="107.5,516.3296,117.5,520.3296,107.5,524.3296,111.5,520.3296" style="stroke:#0A9EFD;stroke-width:1.0;"/><line style="stroke:#0A9EFD;stroke-width:2.0;" x1="37.5" x2="113.5" y1="520.3296" y2="520.3296"/><text fill="#0A9EFD" font-family="Arial" font-size="13" lengthAdjust="spacing" textLength="57" x="50" y="515.5747">Leave call</text><polygon fill="#0A9EFD" points="376.5,560.2271,386.5,564.2271,376.5,568.2271,380.5,564.2271" style="stroke:#0A9EFD;stroke-width:1.0;"/><line style="stroke:#0A9EFD;stroke-width:2.0;" x1="119.5" x2="382.5" y1="564.2271" y2="564.2271"/><text fill="#0A9EFD" font-family="Arial" font-size="13" lengthAdjust="spacing" textLength="104" x="202" y="544.5234">Leave the channel</text><text fill="#0A9EFD" font-family="Arial" font-size="13" lengthAdjust="spacing" textLength="152" x="180" y="559.4722">agoraEngine.leaveChannel</text><polygon fill="#0A9EFD" points="107.5,589.1758,117.5,593.1758,107.5,597.1758,111.5,593.1758" style="stroke:#0A9EFD;stroke-width:1.0;"/><line style="stroke:#0A9EFD;stroke-width:2.0;" x1="37.5" x2="113.5" y1="593.1758" y2="593.1758"/><text fill="#0A9EFD" font-family="Arial" font-size="13" lengthAdjust="spacing" textLength="58" x="49.5" y="588.4209">Close app</text><line style="stroke:#0A9EFD;stroke-width:2.0;" x1="119.5" x2="161.5" y1="637.0732" y2="637.0732"/><line style="stroke:#0A9EFD;stroke-width:2.0;" x1="161.5" x2="161.5" y1="637.0732" y2="650.0732"/><line style="stroke:#0A9EFD;stroke-width:2.0;" x1="120.5" x2="161.5" y1="650.0732" y2="650.0732"/><polygon fill="#0A9EFD" points="130.5,646.0732,120.5,650.0732,130.5,654.0732,126.5,650.0732" style="stroke:#0A9EFD;stroke-width:1.0;"/><text fill="#0A9EFD" font-family="Arial" font-size="13" lengthAdjust="spacing" textLength="147" x="126.5" y="617.3696">Clean up local resources:</text><text fill="#0A9EFD" font-family="Arial" font-size="13" lengthAdjust="spacing" textLength="127" x="142.5" y="632.3184">agoraEngine.destroy()</text><!--SRC=[RLBBJiCm4BpxAvQSuD1yG0MLgfP3eO8geKL8ICXrjgcfOqUEK-3lMJjfI4elbXyxCpixlf9Qg3f3uBcn_ACwI1tBkb2CSU6CXMXTeOs0Lx1E4yQsvXkYDrDRu6KPCLPowwIG9TSEeetCq40wVmprqzMACTGP4AO5Jht6EIgTZvANfnQow45844OJppE6vn8rJCkIqQcxN6Zf97S8ReyGkA5h0L3dKkCOtdLZxJwSuGuI9vfzB2mIUa2PeglBmAUCu0gEWQzoL5a4hZvPZ9fl5GRD0Skhp79qZTRIysmaViLfRNTSeDzVtp2MMqDIVhm3fmz6KiT08EKvHvDmcw2p4eyKKqtDQPeUTz9eSEQ0VeLF3nDxhZMglruMBPytr3wEXmE9FN1s0TSfDkQbpc5dJH6e32qMQchTpwJlDi72EBnWbpZXzkGnGO7Icw6eAvztnXrlXS8768Q_H4x5fubq7JRNFMjdpfH_FrdhyysKgT1_u45eCwhNG94qoLkiw9iBhFx7dY6rQdx8rIy0]--></g></svg>