<?xml version="1.0" encoding="us-ascii" standalone="no"?><svg xmlns="http://www.w3.org/2000/svg" xmlns:xlink="http://www.w3.org/1999/xlink" contentStyleType="text/css" height="758px" preserveAspectRatio="none" style="width:486px;height:758px;" version="1.1" viewBox="0 0 486 758" width="486px" zoomAndPan="magnify"><defs/><g><rect fill="none" height="756.1719" style="stroke:#0A9EFD;stroke-width:1.0;" width="484.5" x="0" y="0"/><rect fill="#999999" fill-opacity="0.33333" height="746.1719" style="stroke:#0A9EFD;stroke-width:0.5;" width="90" x="95.5" y="6"/><text fill="#0A9EFD" font-family="sans-serif" font-size="13" font-weight="bold" lengthAdjust="spacing" textLength="57" x="112" y="19.4951">Your app</text><rect fill="#999999" fill-opacity="0.33333" height="746.1719" style="stroke:#0A9EFD;stroke-width:0.5;" width="74" x="400.5" y="6"/><text fill="#0A9EFD" font-family="sans-serif" font-size="13" font-weight="bold" lengthAdjust="spacing" textLength="38" x="418.5" y="19.4951">Agora</text><rect fill="#0A9EFD" fill-opacity="0.06667" height="204.5898" style="stroke:#0A9EFD;stroke-width:2.0;" width="470.5" x="10" y="287.791"/><line style="stroke:#0A9EFD;stroke-width:0.5;stroke-dasharray:5.0,5.0;" x1="37" x2="37" y1="86.0986" y2="668.0732"/><line style="stroke:#0A9EFD;stroke-width:0.5;stroke-dasharray:5.0,5.0;" x1="140.5" x2="140.5" y1="86.0986" y2="668.0732"/><line style="stroke:#0A9EFD;stroke-width:0.5;stroke-dasharray:5.0,5.0;" x1="437.5" x2="437.5" y1="86.0986" y2="668.0732"/><text fill="#0A9EFD" font-family="Arial" font-size="14" lengthAdjust="spacing" textLength="29" x="20" y="83.1318">User</text><ellipse cx="37.5" cy="16" fill="none" rx="8" ry="8" style="stroke:#0A9EFD;stroke-width:3.0;"/><path d="M37.5,24 L37.5,51 M24.5,32 L50.5,32 M37.5,51 L24.5,66 M37.5,51 L50.5,66 " fill="none" style="stroke:#0A9EFD;stroke-width:3.0;"/><text fill="#0A9EFD" font-family="Arial" font-size="14" lengthAdjust="spacing" textLength="29" x="20" y="680.2051">User</text><ellipse cx="37.5" cy="694.1719" fill="none" rx="8" ry="8" style="stroke:#0A9EFD;stroke-width:3.0;"/><path d="M37.5,702.1719 L37.5,729.1719 M24.5,710.1719 L50.5,710.1719 M37.5,729.1719 L24.5,744.1719 M37.5,729.1719 L50.5,744.1719 " fill="none" style="stroke:#0A9EFD;stroke-width:3.0;"/><rect fill="none" height="30.0986" rx="2.5" ry="2.5" style="stroke:#0A9EFD;stroke-width:2.0;" width="82" x="99.5" y="55"/><text fill="#0A9EFD" font-family="Arial" font-size="14" lengthAdjust="spacing" textLength="68" x="106.5" y="75.1318">Video SDK</text><rect fill="none" height="30.0986" rx="2.5" ry="2.5" style="stroke:#0A9EFD;stroke-width:2.0;" width="82" x="99.5" y="667.0732"/><text fill="#0A9EFD" font-family="Arial" font-size="14" lengthAdjust="spacing" textLength="68" x="106.5" y="687.2051">Video SDK</text><rect fill="none" height="30.0986" rx="2.5" ry="2.5" style="stroke:#0A9EFD;stroke-width:2.0;" width="66" x="404.5" y="55"/><text fill="#0A9EFD" font-family="Arial" font-size="14" lengthAdjust="spacing" textLength="52" x="411.5" y="75.1318">SD-RTN</text><rect fill="none" height="30.0986" rx="2.5" ry="2.5" style="stroke:#0A9EFD;stroke-width:2.0;" width="66" x="404.5" y="667.0732"/><text fill="#0A9EFD" font-family="Arial" font-size="14" lengthAdjust="spacing" textLength="52" x="411.5" y="687.2051">SD-RTN</text><polygon fill="#0A9EFD" points="128.5,113.0474,138.5,117.0474,128.5,121.0474,132.5,117.0474" style="stroke:#0A9EFD;stroke-width:1.0;"/><line style="stroke:#0A9EFD;stroke-width:2.0;" x1="37.5" x2="134.5" y1="117.0474" y2="117.0474"/><text fill="#0A9EFD" font-family="Arial" font-size="13" lengthAdjust="spacing" textLength="58" x="60" y="112.2925">Open App</text><line style="stroke:#0A9EFD;stroke-width:2.0;" x1="140.5" x2="182.5" y1="160.9448" y2="160.9448"/><line style="stroke:#0A9EFD;stroke-width:2.0;" x1="182.5" x2="182.5" y1="160.9448" y2="173.9448"/><line style="stroke:#0A9EFD;stroke-width:2.0;" x1="141.5" x2="182.5" y1="173.9448" y2="173.9448"/><polygon fill="#0A9EFD" points="151.5,169.9448,141.5,173.9448,151.5,177.9448,147.5,173.9448" style="stroke:#0A9EFD;stroke-width:1.0;"/><text fill="#0A9EFD" font-family="Arial" font-size="13" lengthAdjust="spacing" textLength="212" x="147.5" y="141.2412">Initiate the Agora Video SDK engine:</text><text fill="#0A9EFD" font-family="Arial" font-size="13" lengthAdjust="spacing" textLength="188" x="163.5" y="156.1899">agoraEngine = RtcEngine.create</text><line style="stroke:#0A9EFD;stroke-width:2.0;" x1="140.5" x2="182.5" y1="217.8423" y2="217.8423"/><line style="stroke:#0A9EFD;stroke-width:2.0;" x1="182.5" x2="182.5" y1="217.8423" y2="230.8423"/><line style="stroke:#0A9EFD;stroke-width:2.0;" x1="141.5" x2="182.5" y1="230.8423" y2="230.8423"/><polygon fill="#0A9EFD" points="151.5,226.8423,141.5,230.8423,151.5,234.8423,147.5,230.8423" style="stroke:#0A9EFD;stroke-width:1.0;"/><text fill="#0A9EFD" font-family="Arial" font-size="13" lengthAdjust="spacing" textLength="168" x="147.5" y="198.1387">Setup the local video stream:</text><text fill="#0A9EFD" font-family="Arial" font-size="13" lengthAdjust="spacing" textLength="155" x="158" y="213.0874">agoraEngine.enableVideo()</text><line style="stroke:#0A9EFD;stroke-width:2.0;" x1="140.5" x2="182.5" y1="259.791" y2="259.791"/><line style="stroke:#0A9EFD;stroke-width:2.0;" x1="182.5" x2="182.5" y1="259.791" y2="272.791"/><line style="stroke:#0A9EFD;stroke-width:2.0;" x1="141.5" x2="182.5" y1="272.791" y2="272.791"/><polygon fill="#0A9EFD" points="151.5,268.791,141.5,272.791,151.5,276.791,147.5,272.791" style="stroke:#0A9EFD;stroke-width:1.0;"/><text fill="#0A9EFD" font-family="Arial" font-size="13" lengthAdjust="spacing" textLength="255" x="147.5" y="255.0361">agoraEngine.setupLocalVideo(VideoCanvas)</text><path d="M10,287.791 L82,287.791 L82,294.7397 L72,304.7397 L10,304.7397 L10,287.791 " fill="#EEEEEE" style="stroke:#0A9EFD;stroke-width:1.5;"/><rect fill="none" height="204.5898" style="stroke:#0A9EFD;stroke-width:2.0;" width="470.5" x="10" y="287.791"/><text fill="#000000" font-family="Arial" font-size="13" lengthAdjust="spacing" textLength="27" x="25" y="300.9849">User</text><polygon fill="#0A9EFD" points="128.5,321.6885,138.5,325.6885,128.5,329.6885,132.5,325.6885" style="stroke:#0A9EFD;stroke-width:1.0;"/><line style="stroke:#0A9EFD;stroke-width:2.0;" x1="37.5" x2="134.5" y1="325.6885" y2="325.6885"/><text fill="#0A9EFD" font-family="Arial" font-size="13" lengthAdjust="spacing" textLength="58" x="60" y="320.9336">Join a call</text><line style="stroke:#0A9EFD;stroke-width:2.0;" x1="140.5" x2="182.5" y1="354.6372" y2="354.6372"/><line style="stroke:#0A9EFD;stroke-width:2.0;" x1="182.5" x2="182.5" y1="354.6372" y2="367.6372"/><line style="stroke:#0A9EFD;stroke-width:2.0;" x1="141.5" x2="182.5" y1="367.6372" y2="367.6372"/><polygon fill="#0A9EFD" points="151.5,363.6372,141.5,367.6372,151.5,371.6372,147.5,367.6372" style="stroke:#0A9EFD;stroke-width:1.0;"/><text fill="#0A9EFD" font-family="Arial" font-size="13" lengthAdjust="spacing" textLength="255" x="147.5" y="349.8823">Retrieve authentication token to join channel</text><polygon fill="#0A9EFD" points="425.5,407.5347,435.5,411.5347,425.5,415.5347,429.5,411.5347" style="stroke:#0A9EFD;stroke-width:1.0;"/><line style="stroke:#0A9EFD;stroke-width:2.0;" x1="140.5" x2="431.5" y1="411.5347" y2="411.5347"/><text fill="#0A9EFD" font-family="Arial" font-size="13" lengthAdjust="spacing" textLength="98" x="240" y="391.8311">Join the channel:</text><text fill="#0A9EFD" font-family="Arial" font-size="13" lengthAdjust="spacing" textLength="151" x="215.5" y="406.7798">agoraEngine.joinChannel()</text><polygon fill="#0A9EFD" points="425.5,451.4321,435.5,455.4321,425.5,459.4321,429.5,455.4321" style="stroke:#0A9EFD;stroke-width:1.0;"/><line style="stroke:#0A9EFD;stroke-width:2.0;" x1="140.5" x2="431.5" y1="455.4321" y2="455.4321"/><text fill="#0A9EFD" font-family="Arial" font-size="13" lengthAdjust="spacing" textLength="224" x="175" y="435.7285">Retrieve streaming from the other user:</text><text fill="#0A9EFD" font-family="Arial" font-size="13" lengthAdjust="spacing" textLength="269" x="156.5" y="450.6772">agoraEngine.setupRemoteVideo(VideoCanvas)</text><polygon fill="#0A9EFD" points="151.5,480.3809,141.5,484.3809,151.5,488.3809,147.5,484.3809" style="stroke:#0A9EFD;stroke-width:1.0;"/><polygon fill="#0A9EFD" points="425.5,480.3809,435.5,484.3809,425.5,488.3809,429.5,484.3809" style="stroke:#0A9EFD;stroke-width:1.0;"/><line style="stroke:#0A9EFD;stroke-width:2.0;" x1="145.5" x2="431.5" y1="484.3809" y2="484.3809"/><text fill="#0A9EFD" font-family="Arial" font-size="13" lengthAdjust="spacing" textLength="175" x="201.5" y="479.626">Receive and send data stream</text><polygon fill="#0A9EFD" points="128.5,516.3296,138.5,520.3296,128.5,524.3296,132.5,520.3296" style="stroke:#0A9EFD;stroke-width:1.0;"/><line style="stroke:#0A9EFD;stroke-width:2.0;" x1="37.5" x2="134.5" y1="520.3296" y2="520.3296"/><text fill="#0A9EFD" font-family="Arial" font-size="13" lengthAdjust="spacing" textLength="79" x="49.5" y="515.5747">Leave the call</text><polygon fill="#0A9EFD" points="425.5,560.2271,435.5,564.2271,425.5,568.2271,429.5,564.2271" style="stroke:#0A9EFD;stroke-width:1.0;"/><line style="stroke:#0A9EFD;stroke-width:2.0;" x1="140.5" x2="431.5" y1="564.2271" y2="564.2271"/><text fill="#0A9EFD" font-family="Arial" font-size="13" lengthAdjust="spacing" textLength="108" x="233" y="544.5234">Leave the channel:</text><text fill="#0A9EFD" font-family="Arial" font-size="13" lengthAdjust="spacing" textLength="160" x="211" y="559.4722">agoraEngine.leaveChannel()</text><polygon fill="#0A9EFD" points="128.5,589.1758,138.5,593.1758,128.5,597.1758,132.5,593.1758" style="stroke:#0A9EFD;stroke-width:1.0;"/><line style="stroke:#0A9EFD;stroke-width:2.0;" x1="37.5" x2="134.5" y1="593.1758" y2="593.1758"/><text fill="#0A9EFD" font-family="Arial" font-size="13" lengthAdjust="spacing" textLength="58" x="60" y="588.4209">Close app</text><line style="stroke:#0A9EFD;stroke-width:2.0;" x1="140.5" x2="182.5" y1="637.0732" y2="637.0732"/><line style="stroke:#0A9EFD;stroke-width:2.0;" x1="182.5" x2="182.5" y1="637.0732" y2="650.0732"/><line style="stroke:#0A9EFD;stroke-width:2.0;" x1="141.5" x2="182.5" y1="650.0732" y2="650.0732"/><polygon fill="#0A9EFD" points="151.5,646.0732,141.5,650.0732,151.5,654.0732,147.5,650.0732" style="stroke:#0A9EFD;stroke-width:1.0;"/><text fill="#0A9EFD" font-family="Arial" font-size="13" lengthAdjust="spacing" textLength="147" x="147.5" y="617.3696">Clean up local resources:</text><text fill="#0A9EFD" font-family="Arial" font-size="13" lengthAdjust="spacing" textLength="127" x="163.5" y="632.3184">agoraEngine.destroy()</text><!--SRC=[PLB1JiCm3BtdAqnFSDW-O0AaQN0eJ32rW8I4X4ngjh3EgPAqWh_7IGkqunArYTzxVdu-CQphjYB0hNNuwlU6vwOzr4gX3jP1zkZ9PO0U7ij2gJVx2TcpRHrWqsHADUY2qQP13f0zcOeib5UtgNwvsIX5N85W1k0oQXoZogjPyN0tGF8HH0HXTXbv5d3V4CEoQPJy_LxcR8B1G11s18aRVbi0ugrXMi0BzzQkqpzSG15q_ptNZWGzeImfj4tYgwt66hh4vuDK7ewvviJuLbEIF3sRq8ohVAHSHxQ-Cfqhv0xzcL9RPqKm3ddYzyOQqG81IH9oCxjCrmK5PwYJj5hfaMM868nb27PFyOIFYDCxPARwhwDy88o-XiV5aPS8NFLFOo_vIBEVWk4jl3jxI6HM3WUjTFzlECbsGGSRwBzl48KSpd_S5gJ9H5SIlO_vLnXmq8lxCDs5DM7NPvx6C-vrz3JOF6whZXL_HYV4gzfwYeizoN8b40O9gTy8HrxMNvDFr1FkYgHb-nLflm40]--></g></svg>