<?xml version="1.0" encoding="us-ascii" standalone="no"?><svg xmlns="http://www.w3.org/2000/svg" xmlns:xlink="http://www.w3.org/1999/xlink" contentStyleType="text/css" height="549px" preserveAspectRatio="none" style="width:639px;height:549px;" version="1.1" viewBox="0 0 639 549" width="639px" zoomAndPan="magnify"><defs/><g><rect fill="none" height="547.8823" style="stroke:#0A9EFD;stroke-width:1.0;" width="637" x="0" y="0"/><rect fill="#999999" fill-opacity="0.33333" height="537.8823" style="stroke:#0A9EFD;stroke-width:0.5;" width="320" x="16" y="6"/><text fill="#0A9EFD" font-family="sans-serif" font-size="13" font-weight="bold" lengthAdjust="spacing" textLength="110" x="121" y="19.4951">Call implementer</text><rect fill="#999999" fill-opacity="0.33333" height="537.8823" style="stroke:#0A9EFD;stroke-width:0.5;" width="116" x="511" y="6"/><text fill="#0A9EFD" font-family="sans-serif" font-size="13" font-weight="bold" lengthAdjust="spacing" textLength="38" x="550" y="19.4951">Agora</text><rect fill="#0A9EFD" fill-opacity="0.06667" height="245.5898" style="stroke:#0A9EFD;stroke-width:2.0;" width="623" x="10" y="74.4502"/><rect fill="#0A9EFD" fill-opacity="0.06667" height="158.7437" style="stroke:#0A9EFD;stroke-width:2.0;" width="623" x="10" y="334.04"/><line style="stroke:#0A9EFD;stroke-width:0.5;stroke-dasharray:5.0,5.0;" x1="45" x2="45" y1="57.4502" y2="509.7837"/><line style="stroke:#0A9EFD;stroke-width:0.5;stroke-dasharray:5.0,5.0;" x1="307" x2="307" y1="57.4502" y2="509.7837"/><line style="stroke:#0A9EFD;stroke-width:0.5;stroke-dasharray:5.0,5.0;" x1="569" x2="569" y1="57.4502" y2="509.7837"/><rect fill="none" height="30.0986" rx="2.5" ry="2.5" style="stroke:#0A9EFD;stroke-width:2.0;" width="50" x="20" y="26.3516"/><text fill="#0A9EFD" font-family="Arial" font-size="14" lengthAdjust="spacing" textLength="36" x="27" y="46.4834">Client</text><rect fill="none" height="30.0986" rx="2.5" ry="2.5" style="stroke:#0A9EFD;stroke-width:2.0;" width="50" x="20" y="508.7837"/><text fill="#0A9EFD" font-family="Arial" font-size="14" lengthAdjust="spacing" textLength="36" x="27" y="528.9155">Client</text><rect fill="none" height="30.0986" rx="2.5" ry="2.5" style="stroke:#0A9EFD;stroke-width:2.0;" width="50" x="282" y="26.3516"/><text fill="#0A9EFD" font-family="Arial" font-size="14" lengthAdjust="spacing" textLength="36" x="289" y="46.4834">Client</text><rect fill="none" height="30.0986" rx="2.5" ry="2.5" style="stroke:#0A9EFD;stroke-width:2.0;" width="50" x="282" y="508.7837"/><text fill="#0A9EFD" font-family="Arial" font-size="14" lengthAdjust="spacing" textLength="36" x="289" y="528.9155">Client</text><rect fill="none" height="30.0986" rx="2.5" ry="2.5" style="stroke:#0A9EFD;stroke-width:2.0;" width="108" x="515" y="26.3516"/><text fill="#0A9EFD" font-family="Arial" font-size="14" lengthAdjust="spacing" textLength="94" x="522" y="46.4834">Agora Platform</text><rect fill="none" height="30.0986" rx="2.5" ry="2.5" style="stroke:#0A9EFD;stroke-width:2.0;" width="108" x="515" y="508.7837"/><text fill="#0A9EFD" font-family="Arial" font-size="14" lengthAdjust="spacing" textLength="94" x="522" y="528.9155">Agora Platform</text><path d="M10,74.4502 L102,74.4502 L102,81.3989 L92,91.3989 L10,91.3989 L10,74.4502 " fill="#EEEEEE" style="stroke:#0A9EFD;stroke-width:1.5;"/><rect fill="none" height="245.5898" style="stroke:#0A9EFD;stroke-width:2.0;" width="623" x="10" y="74.4502"/><text fill="#000000" font-family="Arial" font-size="13" lengthAdjust="spacing" textLength="47" x="25" y="87.644">Run call</text><line style="stroke:#0A9EFD;stroke-width:2.0;" x1="45" x2="87" y1="112.3477" y2="112.3477"/><line style="stroke:#0A9EFD;stroke-width:2.0;" x1="87" x2="87" y1="112.3477" y2="125.3477"/><line style="stroke:#0A9EFD;stroke-width:2.0;" x1="46" x2="87" y1="125.3477" y2="125.3477"/><polygon fill="#0A9EFD" points="56,121.3477,46,125.3477,56,129.3477,52,125.3477" style="stroke:#0A9EFD;stroke-width:1.0;"/><text fill="#0A9EFD" font-family="Arial" font-size="13" lengthAdjust="spacing" textLength="248" x="52" y="107.5928">Connect to local audio and video resources</text><polygon fill="#0A9EFD" points="557,150.2964,567,154.2964,557,158.2964,561,154.2964" style="stroke:#0A9EFD;stroke-width:1.0;"/><line style="stroke:#0A9EFD;stroke-width:2.0;" x1="45" x2="563" y1="154.2964" y2="154.2964"/><text fill="#0A9EFD" font-family="Arial" font-size="13" lengthAdjust="spacing" textLength="72" x="271" y="149.5415">Join channel</text><polygon fill="#0A9EFD" points="557,179.2451,567,183.2451,557,187.2451,561,183.2451" style="stroke:#0A9EFD;stroke-width:1.0;"/><line style="stroke:#0A9EFD;stroke-width:2.0;" x1="45" x2="563" y1="183.2451" y2="183.2451"/><text fill="#0A9EFD" font-family="Arial" font-size="13" lengthAdjust="spacing" textLength="187" x="213.5" y="178.4902">Send audio and video to channel</text><line style="stroke:#0A9EFD;stroke-width:2.0;" x1="307" x2="349" y1="212.1938" y2="212.1938"/><line style="stroke:#0A9EFD;stroke-width:2.0;" x1="349" x2="349" y1="212.1938" y2="225.1938"/><line style="stroke:#0A9EFD;stroke-width:2.0;" x1="308" x2="349" y1="225.1938" y2="225.1938"/><polygon fill="#0A9EFD" points="318,221.1938,308,225.1938,318,229.1938,314,225.1938" style="stroke:#0A9EFD;stroke-width:1.0;"/><text fill="#0A9EFD" font-family="Arial" font-size="13" lengthAdjust="spacing" textLength="248" x="314" y="207.439">Connect to local audio and video resources</text><polygon fill="#0A9EFD" points="557,250.1426,567,254.1426,557,258.1426,561,254.1426" style="stroke:#0A9EFD;stroke-width:1.0;"/><line style="stroke:#0A9EFD;stroke-width:2.0;" x1="307" x2="563" y1="254.1426" y2="254.1426"/><text fill="#0A9EFD" font-family="Arial" font-size="13" lengthAdjust="spacing" textLength="72" x="402" y="249.3877">Join channel</text><polygon fill="#0A9EFD" points="318,279.0913,308,283.0913,318,287.0913,314,283.0913" style="stroke:#0A9EFD;stroke-width:1.0;"/><line style="stroke:#0A9EFD;stroke-width:2.0;" x1="312" x2="568" y1="283.0913" y2="283.0913"/><text fill="#0A9EFD" font-family="Arial" font-size="13" lengthAdjust="spacing" textLength="187" x="344.5" y="278.3364">Send audio and video to channel</text><polygon fill="#0A9EFD" points="56,308.04,46,312.04,56,316.04,52,312.04" style="stroke:#0A9EFD;stroke-width:1.0;"/><polygon fill="#0A9EFD" points="295,308.04,305,312.04,295,316.04,299,312.04" style="stroke:#0A9EFD;stroke-width:1.0;"/><line style="stroke:#0A9EFD;stroke-width:2.0;" x1="50" x2="301" y1="312.04" y2="312.04"/><text fill="#0A9EFD" font-family="Arial" font-size="13" lengthAdjust="spacing" textLength="80" x="136" y="307.2852">Communicate</text><path d="M10,334.04 L102,334.04 L102,340.9888 L92,350.9888 L10,350.9888 L10,334.04 " fill="#EEEEEE" style="stroke:#0A9EFD;stroke-width:1.5;"/><rect fill="none" height="158.7437" style="stroke:#0A9EFD;stroke-width:2.0;" width="623" x="10" y="334.04"/><text fill="#000000" font-family="Arial" font-size="13" lengthAdjust="spacing" textLength="47" x="25" y="347.2339">End call</text><line style="stroke:#0A9EFD;stroke-width:2.0;" x1="307" x2="349" y1="371.9375" y2="371.9375"/><line style="stroke:#0A9EFD;stroke-width:2.0;" x1="349" x2="349" y1="371.9375" y2="384.9375"/><line style="stroke:#0A9EFD;stroke-width:2.0;" x1="308" x2="349" y1="384.9375" y2="384.9375"/><polygon fill="#0A9EFD" points="318,380.9375,308,384.9375,318,388.9375,314,384.9375" style="stroke:#0A9EFD;stroke-width:1.0;"/><text fill="#0A9EFD" font-family="Arial" font-size="13" lengthAdjust="spacing" textLength="126" x="314" y="367.1826">Close audio and video</text><polygon fill="#0A9EFD" points="557,409.8862,567,413.8862,557,417.8862,561,413.8862" style="stroke:#0A9EFD;stroke-width:1.0;"/><line style="stroke:#0A9EFD;stroke-width:2.0;" x1="307" x2="563" y1="413.8862" y2="413.8862"/><text fill="#0A9EFD" font-family="Arial" font-size="13" lengthAdjust="spacing" textLength="82" x="397" y="409.1313">Leave channel</text><line style="stroke:#0A9EFD;stroke-width:2.0;" x1="45" x2="87" y1="442.835" y2="442.835"/><line style="stroke:#0A9EFD;stroke-width:2.0;" x1="87" x2="87" y1="442.835" y2="455.835"/><line style="stroke:#0A9EFD;stroke-width:2.0;" x1="46" x2="87" y1="455.835" y2="455.835"/><polygon fill="#0A9EFD" points="56,451.835,46,455.835,56,459.835,52,455.835" style="stroke:#0A9EFD;stroke-width:1.0;"/><text fill="#0A9EFD" font-family="Arial" font-size="13" lengthAdjust="spacing" textLength="126" x="52" y="438.0801">Close audio and video</text><polygon fill="#0A9EFD" points="557,480.7837,567,484.7837,557,488.7837,561,484.7837" style="stroke:#0A9EFD;stroke-width:1.0;"/><line style="stroke:#0A9EFD;stroke-width:2.0;" x1="45" x2="563" y1="484.7837" y2="484.7837"/><text fill="#0A9EFD" font-family="Arial" font-size="13" lengthAdjust="spacing" textLength="82" x="266" y="480.0288">Leave channel</text><!--SRC=[bP31IiH038RlynInTptqk8XGYXVnKFG194xZ6inCodHcyV5DkrQxnHMz9lc-F_mN7BsKdW3tcl1fVEDunIM8Sy_w3bMB8i1X40eKCwNA3PWoUnumPbiBsxW27A5ftI-xsb7imPJkKznCSHlRF8DECBze2aUoMu5kdxGCy50YUFlBDIrStfXy1wt6I3v3LX2r7M3fMG4DFN1F2eb6BSdJk43T3kwKJVIAXifg_3W5RdaJBvTsMXzpwty6rpydTr-sFqJ3zNTq22MonqnJHqixjmRExPp-AJhILhr-wPxmG2T1IxLdo3FW_Ca7]--></g></svg>