<?xml version="1.0" encoding="us-ascii" standalone="no"?><svg xmlns="http://www.w3.org/2000/svg" xmlns:xlink="http://www.w3.org/1999/xlink" contentStyleType="text/css" height="831px" preserveAspectRatio="none" style="width:498px;height:831px;" version="1.1" viewBox="0 0 498 831" width="498px" zoomAndPan="magnify"><defs/><g><rect fill="none" height="829.9668" style="stroke:#0A9EFD;stroke-width:1.0;" width="496" x="0" y="0"/><rect fill="#999999" fill-opacity="0.33333" height="819.9668" style="stroke:#0A9EFD;stroke-width:0.5;" width="90" x="98" y="6"/><text fill="#0A9EFD" font-family="sans-serif" font-size="13" font-weight="bold" lengthAdjust="spacing" textLength="62" x="112" y="18.5684">Your app</text><rect fill="#999999" fill-opacity="0.33333" height="819.9668" style="stroke:#0A9EFD;stroke-width:0.5;" width="80" x="406" y="6"/><text fill="#0A9EFD" font-family="sans-serif" font-size="13" font-weight="bold" lengthAdjust="spacing" textLength="41" x="425.5" y="18.5684">Agora</text><rect fill="#0A9EFD" fill-opacity="0.06667" height="276.436" style="stroke:#0A9EFD;stroke-width:2.0;" width="482" x="10" y="245.8423"/><line style="stroke:#0A9EFD;stroke-width:0.5;stroke-dasharray:5.0,5.0;" x1="38" x2="38" y1="86.0986" y2="741.8682"/><line style="stroke:#0A9EFD;stroke-width:0.5;stroke-dasharray:5.0,5.0;" x1="143" x2="143" y1="86.0986" y2="741.8682"/><line style="stroke:#0A9EFD;stroke-width:0.5;stroke-dasharray:5.0,5.0;" x1="446" x2="446" y1="86.0986" y2="741.8682"/><text fill="#0A9EFD" font-family="Arial" font-size="14" lengthAdjust="spacing" textLength="30" x="20" y="83.1318">User</text><ellipse cx="38" cy="16" fill="none" rx="8" ry="8" style="stroke:#0A9EFD;stroke-width:3.0;"/><path d="M38,24 L38,51 M25,32 L51,32 M38,51 L25,66 M38,51 L51,66 " fill="none" style="stroke:#0A9EFD;stroke-width:3.0;"/><text fill="#0A9EFD" font-family="Arial" font-size="14" lengthAdjust="spacing" textLength="30" x="20" y="754">User</text><ellipse cx="38" cy="767.9668" fill="none" rx="8" ry="8" style="stroke:#0A9EFD;stroke-width:3.0;"/><path d="M38,775.9668 L38,802.9668 M25,783.9668 L51,783.9668 M38,802.9668 L25,817.9668 M38,802.9668 L51,817.9668 " fill="none" style="stroke:#0A9EFD;stroke-width:3.0;"/><rect fill="none" height="30.0986" rx="2.5" ry="2.5" style="stroke:#0A9EFD;stroke-width:2.0;" width="82" x="102" y="55"/><text fill="#0A9EFD" font-family="Arial" font-size="14" lengthAdjust="spacing" textLength="68" x="109" y="75.1318">Video SDK</text><rect fill="none" height="30.0986" rx="2.5" ry="2.5" style="stroke:#0A9EFD;stroke-width:2.0;" width="82" x="102" y="740.8682"/><text fill="#0A9EFD" font-family="Arial" font-size="14" lengthAdjust="spacing" textLength="68" x="109" y="761">Video SDK</text><rect fill="none" height="30.0986" rx="2.5" ry="2.5" style="stroke:#0A9EFD;stroke-width:2.0;" width="72" x="410" y="55"/><text fill="#0A9EFD" font-family="Arial" font-size="14" lengthAdjust="spacing" textLength="58" x="417" y="75.1318">SDRTN&#174;</text><rect fill="none" height="30.0986" rx="2.5" ry="2.5" style="stroke:#0A9EFD;stroke-width:2.0;" width="72" x="410" y="740.8682"/><text fill="#0A9EFD" font-family="Arial" font-size="14" lengthAdjust="spacing" textLength="58" x="417" y="761">SDRTN&#174;</text><polygon fill="#0A9EFD" points="131,113.0474,141,117.0474,131,121.0474,135,117.0474" style="stroke:#0A9EFD;stroke-width:1.0;"/><line style="stroke:#0A9EFD;stroke-width:2.0;" x1="38" x2="137" y1="117.0474" y2="117.0474"/><text fill="#0A9EFD" font-family="Arial" font-size="13" lengthAdjust="spacing" textLength="56" x="62.5" y="112.2925">Open app</text><line style="stroke:#0A9EFD;stroke-width:2.0;" x1="143" x2="185" y1="160.9448" y2="160.9448"/><line style="stroke:#0A9EFD;stroke-width:2.0;" x1="185" x2="185" y1="160.9448" y2="173.9448"/><line style="stroke:#0A9EFD;stroke-width:2.0;" x1="144" x2="185" y1="173.9448" y2="173.9448"/><polygon fill="#0A9EFD" points="154,169.9448,144,173.9448,154,177.9448,150,173.9448" style="stroke:#0A9EFD;stroke-width:1.0;"/><text fill="#0A9EFD" font-family="Arial" font-size="13" lengthAdjust="spacing" textLength="175" x="207" y="141.2412">Initiate the Video SDK engine:</text><text fill="#0A9EFD" font-family="Arial" font-size="13" lengthAdjust="spacing" textLength="281" x="158" y="156.1899">agoraEngine = AgoraRtcEngineKit.sharedEngine</text><line style="stroke:#0A9EFD;stroke-width:2.0;" x1="143" x2="185" y1="217.8423" y2="217.8423"/><line style="stroke:#0A9EFD;stroke-width:2.0;" x1="185" x2="185" y1="217.8423" y2="230.8423"/><line style="stroke:#0A9EFD;stroke-width:2.0;" x1="144" x2="185" y1="230.8423" y2="230.8423"/><polygon fill="#0A9EFD" points="154,226.8423,144,230.8423,154,234.8423,150,230.8423" style="stroke:#0A9EFD;stroke-width:1.0;"/><text fill="#0A9EFD" font-family="Arial" font-size="13" lengthAdjust="spacing" textLength="170" x="150" y="198.1387">Setup the local video stream:</text><text fill="#0A9EFD" font-family="Arial" font-size="13" lengthAdjust="spacing" textLength="155" x="161.5" y="213.0874">agoraEngine.enableVideo()</text><path d="M10,245.8423 L82,245.8423 L82,252.791 L72,262.791 L10,262.791 L10,245.8423 " fill="#EEEEEE" style="stroke:#0A9EFD;stroke-width:1.5;"/><rect fill="none" height="276.436" style="stroke:#0A9EFD;stroke-width:2.0;" width="482" x="10" y="245.8423"/><text fill="#000000" font-family="Arial" font-size="13" lengthAdjust="spacing" textLength="27" x="25" y="259.0361">Host</text><polygon fill="#0A9EFD" points="131,279.7397,141,283.7397,131,287.7397,135,283.7397" style="stroke:#0A9EFD;stroke-width:1.0;"/><line style="stroke:#0A9EFD;stroke-width:2.0;" x1="38" x2="137" y1="283.7397" y2="283.7397"/><text fill="#0A9EFD" font-family="Arial" font-size="13" lengthAdjust="spacing" textLength="63" x="59" y="278.9849">Start a call</text><line style="stroke:#0A9EFD;stroke-width:2.0;" x1="143" x2="185" y1="327.6372" y2="327.6372"/><line style="stroke:#0A9EFD;stroke-width:2.0;" x1="185" x2="185" y1="327.6372" y2="340.6372"/><line style="stroke:#0A9EFD;stroke-width:2.0;" x1="144" x2="185" y1="340.6372" y2="340.6372"/><polygon fill="#0A9EFD" points="154,336.6372,144,340.6372,154,344.6372,150,340.6372" style="stroke:#0A9EFD;stroke-width:1.0;"/><text fill="#0A9EFD" font-family="Arial" font-size="13" lengthAdjust="spacing" textLength="225" x="156" y="307.9336">In a call, all users send to the channel:</text><text fill="#0A9EFD" font-family="Arial" font-size="13" lengthAdjust="spacing" textLength="233" x="154" y="322.8823">agoraEngine.setClientRole(.broadcaster)</text><line style="stroke:#0A9EFD;stroke-width:2.0;" x1="143" x2="185" y1="384.5347" y2="384.5347"/><line style="stroke:#0A9EFD;stroke-width:2.0;" x1="185" x2="185" y1="384.5347" y2="397.5347"/><line style="stroke:#0A9EFD;stroke-width:2.0;" x1="144" x2="185" y1="397.5347" y2="397.5347"/><polygon fill="#0A9EFD" points="154,393.5347,144,397.5347,154,401.5347,150,397.5347" style="stroke:#0A9EFD;stroke-width:1.0;"/><text fill="#0A9EFD" font-family="Arial" font-size="13" lengthAdjust="spacing" textLength="98" x="232.5" y="364.8311">Start local video:</text><text fill="#0A9EFD" font-family="Arial" font-size="13" lengthAdjust="spacing" textLength="255" x="158" y="379.7798">agoraEngine.setupLocalVideo(videoCanvas)</text><polygon fill="#0A9EFD" points="434,437.4321,444,441.4321,434,445.4321,438,441.4321" style="stroke:#0A9EFD;stroke-width:1.0;"/><line style="stroke:#0A9EFD;stroke-width:2.0;" x1="143" x2="440" y1="441.4321" y2="441.4321"/><text fill="#0A9EFD" font-family="Arial" font-size="13" lengthAdjust="spacing" textLength="99" x="245" y="421.7285">Join the channel:</text><text fill="#0A9EFD" font-family="Arial" font-size="13" lengthAdjust="spacing" textLength="150" x="221.5" y="436.6772">agoraEngine?.joinChannel</text><polygon fill="#0A9EFD" points="434,481.3296,444,485.3296,434,489.3296,438,485.3296" style="stroke:#0A9EFD;stroke-width:1.0;"/><line style="stroke:#0A9EFD;stroke-width:2.0;" x1="143" x2="440" y1="485.3296" y2="485.3296"/><text fill="#0A9EFD" font-family="Arial" font-size="13" lengthAdjust="spacing" textLength="227" x="179" y="465.626">Retrieve streaming from the other user:</text><text fill="#0A9EFD" font-family="Arial" font-size="13" lengthAdjust="spacing" textLength="269" x="162" y="480.5747">agoraEngine.setupRemoteVideo(videoCanvas)</text><polygon fill="#0A9EFD" points="154,510.2783,144,514.2783,154,518.2783,150,514.2783" style="stroke:#0A9EFD;stroke-width:1.0;"/><polygon fill="#0A9EFD" points="434,510.2783,444,514.2783,434,518.2783,438,514.2783" style="stroke:#0A9EFD;stroke-width:1.0;"/><line style="stroke:#0A9EFD;stroke-width:2.0;" x1="148" x2="440" y1="514.2783" y2="514.2783"/><text fill="#0A9EFD" font-family="Arial" font-size="13" lengthAdjust="spacing" textLength="184" x="202.5" y="509.5234">Receive and send data streams</text><polygon fill="#0A9EFD" points="131,546.2271,141,550.2271,131,554.2271,135,550.2271" style="stroke:#0A9EFD;stroke-width:1.0;"/><line style="stroke:#0A9EFD;stroke-width:2.0;" x1="38" x2="137" y1="550.2271" y2="550.2271"/><text fill="#0A9EFD" font-family="Arial" font-size="13" lengthAdjust="spacing" textLength="81" x="50" y="545.4722">Leave the call</text><polygon fill="#0A9EFD" points="434,590.1245,444,594.1245,434,598.1245,438,594.1245" style="stroke:#0A9EFD;stroke-width:1.0;"/><line style="stroke:#0A9EFD;stroke-width:2.0;" x1="143" x2="440" y1="594.1245" y2="594.1245"/><text fill="#0A9EFD" font-family="Arial" font-size="13" lengthAdjust="spacing" textLength="97" x="246" y="574.4209">Stop local video:</text><text fill="#0A9EFD" font-family="Arial" font-size="13" lengthAdjust="spacing" textLength="155" x="219" y="589.3696">agoraEngine.stopPreview()</text><polygon fill="#0A9EFD" points="434,634.022,444,638.022,434,642.022,438,638.022" style="stroke:#0A9EFD;stroke-width:1.0;"/><line style="stroke:#0A9EFD;stroke-width:2.0;" x1="143" x2="440" y1="638.022" y2="638.022"/><text fill="#0A9EFD" font-family="Arial" font-size="13" lengthAdjust="spacing" textLength="110" x="237.5" y="618.3184">Leave the channel:</text><text fill="#0A9EFD" font-family="Arial" font-size="13" lengthAdjust="spacing" textLength="175" x="209" y="633.2671">agoraEngine.leaveChannel(nil)</text><polygon fill="#0A9EFD" points="131,662.9707,141,666.9707,131,670.9707,135,666.9707" style="stroke:#0A9EFD;stroke-width:1.0;"/><line style="stroke:#0A9EFD;stroke-width:2.0;" x1="38" x2="137" y1="666.9707" y2="666.9707"/><text fill="#0A9EFD" font-family="Arial" font-size="13" lengthAdjust="spacing" textLength="58" x="61.5" y="662.2158">Close app</text><line style="stroke:#0A9EFD;stroke-width:2.0;" x1="143" x2="185" y1="710.8682" y2="710.8682"/><line style="stroke:#0A9EFD;stroke-width:2.0;" x1="185" x2="185" y1="710.8682" y2="723.8682"/><line style="stroke:#0A9EFD;stroke-width:2.0;" x1="144" x2="185" y1="723.8682" y2="723.8682"/><polygon fill="#0A9EFD" points="154,719.8682,144,723.8682,154,727.8682,150,723.8682" style="stroke:#0A9EFD;stroke-width:1.0;"/><text fill="#0A9EFD" font-family="Arial" font-size="13" lengthAdjust="spacing" textLength="147" x="159" y="691.1646">Clean up local resources:</text><text fill="#0A9EFD" font-family="Arial" font-size="13" lengthAdjust="spacing" textLength="165" x="154" y="706.1133">AgoraRtcEngineKit.destroy()</text><!--SRC=[VLFDQjmm4BxhAQO-xKBZt9V-49n2dOHqiPj28H1cvUck6grafB7RlbGVeazMINQ2xGsv62JFz-ln6sMaxXg2F3_lLKFsp3UFvxYt3X_yepAvwevQ29Hi7MHtdbm6wE6kheJOsT-GVRUT0spRJ8WM7IkfMZGCsRT81lNbTPg_s6w58DD0m8p0YwYnHDMNrTVRVtz7J3d114Ku-n29Dl2b9HCrHJWzNvP6iK8cu0F1ipgGsIj3cti3a59zIcTu3qc_OZbSN2lE_G4TDSDvHbqJTstYrLQYXbGKU7Q4noLpJWPtcfA1rLhidGtGpzRpB47D8JKW13QzI37UleNmW2uKxi775jWc1_A0nf2EibDLJrneHOOhgscLxvp5Hg9dSkjvb2GyYN7YtyUmDt5Wo92c2ZGz-WbLkO4hgymhbZxcFyD0CRoR0IjYfwYdiK5bzl33sMFYik7XKkmDd4RisegEbkb5PoMyUqfPaIGL133qbifha76Kyt6dn7oXRWZxON7c7wICXTbssTVCLNY_TTGh-hMQzpCX7GjQ9j9nOcnePPHUprqLsdewsVCYe0nqJwOS-V07IlA9_NIf6mgnxP_WxJy0]--></g></svg>