<?xml version="1.0" encoding="us-ascii" standalone="no"?><svg xmlns="http://www.w3.org/2000/svg" xmlns:xlink="http://www.w3.org/1999/xlink" contentStyleType="text/css" height="831px" preserveAspectRatio="none" style="width:492px;height:831px;" version="1.1" viewBox="0 0 492 831" width="492px" zoomAndPan="magnify"><defs/><g><rect fill="none" height="829.9668" style="stroke:#0A9EFD;stroke-width:1.0;" width="490.5" x="0" y="0"/><rect fill="#999999" fill-opacity="0.33333" height="819.9668" style="stroke:#0A9EFD;stroke-width:0.5;" width="90" x="95.5" y="6"/><text fill="#0A9EFD" font-family="sans-serif" font-size="13" font-weight="bold" lengthAdjust="spacing" textLength="57" x="112" y="19.4951">Your app</text><rect fill="#999999" fill-opacity="0.33333" height="819.9668" style="stroke:#0A9EFD;stroke-width:0.5;" width="74" x="406.5" y="6"/><text fill="#0A9EFD" font-family="sans-serif" font-size="13" font-weight="bold" lengthAdjust="spacing" textLength="38" x="424.5" y="19.4951">Agora</text><rect fill="#0A9EFD" fill-opacity="0.06667" height="276.436" style="stroke:#0A9EFD;stroke-width:2.0;" width="476.5" x="10" y="245.8423"/><line style="stroke:#0A9EFD;stroke-width:0.5;stroke-dasharray:5.0,5.0;" x1="37" x2="37" y1="86.0986" y2="741.8682"/><line style="stroke:#0A9EFD;stroke-width:0.5;stroke-dasharray:5.0,5.0;" x1="140.5" x2="140.5" y1="86.0986" y2="741.8682"/><line style="stroke:#0A9EFD;stroke-width:0.5;stroke-dasharray:5.0,5.0;" x1="443.5" x2="443.5" y1="86.0986" y2="741.8682"/><text fill="#0A9EFD" font-family="Arial" font-size="14" lengthAdjust="spacing" textLength="29" x="20" y="83.1318">User</text><ellipse cx="37.5" cy="16" fill="none" rx="8" ry="8" style="stroke:#0A9EFD;stroke-width:3.0;"/><path d="M37.5,24 L37.5,51 M24.5,32 L50.5,32 M37.5,51 L24.5,66 M37.5,51 L50.5,66 " fill="none" style="stroke:#0A9EFD;stroke-width:3.0;"/><text fill="#0A9EFD" font-family="Arial" font-size="14" lengthAdjust="spacing" textLength="29" x="20" y="754">User</text><ellipse cx="37.5" cy="767.9668" fill="none" rx="8" ry="8" style="stroke:#0A9EFD;stroke-width:3.0;"/><path d="M37.5,775.9668 L37.5,802.9668 M24.5,783.9668 L50.5,783.9668 M37.5,802.9668 L24.5,817.9668 M37.5,802.9668 L50.5,817.9668 " fill="none" style="stroke:#0A9EFD;stroke-width:3.0;"/><rect fill="none" height="30.0986" rx="2.5" ry="2.5" style="stroke:#0A9EFD;stroke-width:2.0;" width="82" x="99.5" y="55"/><text fill="#0A9EFD" font-family="Arial" font-size="14" lengthAdjust="spacing" textLength="68" x="106.5" y="75.1318">Video SDK</text><rect fill="none" height="30.0986" rx="2.5" ry="2.5" style="stroke:#0A9EFD;stroke-width:2.0;" width="82" x="99.5" y="740.8682"/><text fill="#0A9EFD" font-family="Arial" font-size="14" lengthAdjust="spacing" textLength="68" x="106.5" y="761">Video SDK</text><rect fill="none" height="30.0986" rx="2.5" ry="2.5" style="stroke:#0A9EFD;stroke-width:2.0;" width="66" x="410.5" y="55"/><text fill="#0A9EFD" font-family="Arial" font-size="14" lengthAdjust="spacing" textLength="52" x="417.5" y="75.1318">SD-RTN</text><rect fill="none" height="30.0986" rx="2.5" ry="2.5" style="stroke:#0A9EFD;stroke-width:2.0;" width="66" x="410.5" y="740.8682"/><text fill="#0A9EFD" font-family="Arial" font-size="14" lengthAdjust="spacing" textLength="52" x="417.5" y="761">SD-RTN</text><polygon fill="#0A9EFD" points="128.5,113.0474,138.5,117.0474,128.5,121.0474,132.5,117.0474" style="stroke:#0A9EFD;stroke-width:1.0;"/><line style="stroke:#0A9EFD;stroke-width:2.0;" x1="37.5" x2="134.5" y1="117.0474" y2="117.0474"/><text fill="#0A9EFD" font-family="Arial" font-size="13" lengthAdjust="spacing" textLength="56" x="61" y="112.2925">Open app</text><line style="stroke:#0A9EFD;stroke-width:2.0;" x1="140.5" x2="182.5" y1="160.9448" y2="160.9448"/><line style="stroke:#0A9EFD;stroke-width:2.0;" x1="182.5" x2="182.5" y1="160.9448" y2="173.9448"/><line style="stroke:#0A9EFD;stroke-width:2.0;" x1="141.5" x2="182.5" y1="173.9448" y2="173.9448"/><polygon fill="#0A9EFD" points="151.5,169.9448,141.5,173.9448,151.5,177.9448,147.5,173.9448" style="stroke:#0A9EFD;stroke-width:1.0;"/><text fill="#0A9EFD" font-family="Arial" font-size="13" lengthAdjust="spacing" textLength="174" x="205" y="141.2412">Initiate the Video SDK engine:</text><text fill="#0A9EFD" font-family="Arial" font-size="13" lengthAdjust="spacing" textLength="281" x="155.5" y="156.1899">agoraEngine = AgoraRtcEngineKit.sharedEngine</text><line style="stroke:#0A9EFD;stroke-width:2.0;" x1="140.5" x2="182.5" y1="217.8423" y2="217.8423"/><line style="stroke:#0A9EFD;stroke-width:2.0;" x1="182.5" x2="182.5" y1="217.8423" y2="230.8423"/><line style="stroke:#0A9EFD;stroke-width:2.0;" x1="141.5" x2="182.5" y1="230.8423" y2="230.8423"/><polygon fill="#0A9EFD" points="151.5,226.8423,141.5,230.8423,151.5,234.8423,147.5,230.8423" style="stroke:#0A9EFD;stroke-width:1.0;"/><text fill="#0A9EFD" font-family="Arial" font-size="13" lengthAdjust="spacing" textLength="168" x="147.5" y="198.1387">Setup the local video stream:</text><text fill="#0A9EFD" font-family="Arial" font-size="13" lengthAdjust="spacing" textLength="155" x="158" y="213.0874">agoraEngine.enableVideo()</text><path d="M10,245.8423 L82,245.8423 L82,252.791 L72,262.791 L10,262.791 L10,245.8423 " fill="#EEEEEE" style="stroke:#0A9EFD;stroke-width:1.5;"/><rect fill="none" height="276.436" style="stroke:#0A9EFD;stroke-width:2.0;" width="476.5" x="10" y="245.8423"/><text fill="#000000" font-family="Arial" font-size="13" lengthAdjust="spacing" textLength="27" x="25" y="259.0361">Host</text><polygon fill="#0A9EFD" points="128.5,279.7397,138.5,283.7397,128.5,287.7397,132.5,283.7397" style="stroke:#0A9EFD;stroke-width:1.0;"/><line style="stroke:#0A9EFD;stroke-width:2.0;" x1="37.5" x2="134.5" y1="283.7397" y2="283.7397"/><text fill="#0A9EFD" font-family="Arial" font-size="13" lengthAdjust="spacing" textLength="63" x="57.5" y="278.9849">Start a call</text><line style="stroke:#0A9EFD;stroke-width:2.0;" x1="140.5" x2="182.5" y1="327.6372" y2="327.6372"/><line style="stroke:#0A9EFD;stroke-width:2.0;" x1="182.5" x2="182.5" y1="327.6372" y2="340.6372"/><line style="stroke:#0A9EFD;stroke-width:2.0;" x1="141.5" x2="182.5" y1="340.6372" y2="340.6372"/><polygon fill="#0A9EFD" points="151.5,336.6372,141.5,340.6372,151.5,344.6372,147.5,340.6372" style="stroke:#0A9EFD;stroke-width:1.0;"/><text fill="#0A9EFD" font-family="Arial" font-size="13" lengthAdjust="spacing" textLength="224" x="154" y="307.9336">In a call, all users send to the channel:</text><text fill="#0A9EFD" font-family="Arial" font-size="13" lengthAdjust="spacing" textLength="233" x="151.5" y="322.8823">agoraEngine.setClientRole(.broadcaster)</text><line style="stroke:#0A9EFD;stroke-width:2.0;" x1="140.5" x2="182.5" y1="384.5347" y2="384.5347"/><line style="stroke:#0A9EFD;stroke-width:2.0;" x1="182.5" x2="182.5" y1="384.5347" y2="397.5347"/><line style="stroke:#0A9EFD;stroke-width:2.0;" x1="141.5" x2="182.5" y1="397.5347" y2="397.5347"/><polygon fill="#0A9EFD" points="151.5,393.5347,141.5,397.5347,151.5,401.5347,147.5,397.5347" style="stroke:#0A9EFD;stroke-width:1.0;"/><text fill="#0A9EFD" font-family="Arial" font-size="13" lengthAdjust="spacing" textLength="96" x="229" y="364.8311">Start local video:</text><text fill="#0A9EFD" font-family="Arial" font-size="13" lengthAdjust="spacing" textLength="251" x="155.5" y="379.7798">agoraEngine.setupLocalVideo(videoCanvas)</text><polygon fill="#0A9EFD" points="431.5,437.4321,441.5,441.4321,431.5,445.4321,435.5,441.4321" style="stroke:#0A9EFD;stroke-width:1.0;"/><line style="stroke:#0A9EFD;stroke-width:2.0;" x1="140.5" x2="437.5" y1="441.4321" y2="441.4321"/><text fill="#0A9EFD" font-family="Arial" font-size="13" lengthAdjust="spacing" textLength="98" x="243" y="421.7285">Join the channel:</text><text fill="#0A9EFD" font-family="Arial" font-size="13" lengthAdjust="spacing" textLength="150" x="219" y="436.6772">agoraEngine?.joinChannel</text><polygon fill="#0A9EFD" points="431.5,481.3296,441.5,485.3296,431.5,489.3296,435.5,485.3296" style="stroke:#0A9EFD;stroke-width:1.0;"/><line style="stroke:#0A9EFD;stroke-width:2.0;" x1="140.5" x2="437.5" y1="485.3296" y2="485.3296"/><text fill="#0A9EFD" font-family="Arial" font-size="13" lengthAdjust="spacing" textLength="224" x="178" y="465.626">Retrieve streaming from the other user:</text><text fill="#0A9EFD" font-family="Arial" font-size="13" lengthAdjust="spacing" textLength="265" x="161.5" y="480.5747">agoraEngine.setupRemoteVideo(videoCanvas)</text><polygon fill="#0A9EFD" points="151.5,510.2783,141.5,514.2783,151.5,518.2783,147.5,514.2783" style="stroke:#0A9EFD;stroke-width:1.0;"/><polygon fill="#0A9EFD" points="431.5,510.2783,441.5,514.2783,431.5,518.2783,435.5,514.2783" style="stroke:#0A9EFD;stroke-width:1.0;"/><line style="stroke:#0A9EFD;stroke-width:2.0;" x1="145.5" x2="437.5" y1="514.2783" y2="514.2783"/><text fill="#0A9EFD" font-family="Arial" font-size="13" lengthAdjust="spacing" textLength="182" x="201" y="509.5234">Receive and send data streams</text><polygon fill="#0A9EFD" points="128.5,546.2271,138.5,550.2271,128.5,554.2271,132.5,550.2271" style="stroke:#0A9EFD;stroke-width:1.0;"/><line style="stroke:#0A9EFD;stroke-width:2.0;" x1="37.5" x2="134.5" y1="550.2271" y2="550.2271"/><text fill="#0A9EFD" font-family="Arial" font-size="13" lengthAdjust="spacing" textLength="79" x="49.5" y="545.4722">Leave the call</text><polygon fill="#0A9EFD" points="431.5,590.1245,441.5,594.1245,431.5,598.1245,435.5,594.1245" style="stroke:#0A9EFD;stroke-width:1.0;"/><line style="stroke:#0A9EFD;stroke-width:2.0;" x1="140.5" x2="437.5" y1="594.1245" y2="594.1245"/><text fill="#0A9EFD" font-family="Arial" font-size="13" lengthAdjust="spacing" textLength="95" x="244.5" y="574.4209">Stop local video:</text><text fill="#0A9EFD" font-family="Arial" font-size="13" lengthAdjust="spacing" textLength="153" x="217.5" y="589.3696">agoraEngine.stopPreview()</text><polygon fill="#0A9EFD" points="431.5,634.022,441.5,638.022,431.5,642.022,435.5,638.022" style="stroke:#0A9EFD;stroke-width:1.0;"/><line style="stroke:#0A9EFD;stroke-width:2.0;" x1="140.5" x2="437.5" y1="638.022" y2="638.022"/><text fill="#0A9EFD" font-family="Arial" font-size="13" lengthAdjust="spacing" textLength="108" x="236" y="618.3184">Leave the channel:</text><text fill="#0A9EFD" font-family="Arial" font-size="13" lengthAdjust="spacing" textLength="173" x="207.5" y="633.2671">agoraEngine.leaveChannel(nil)</text><polygon fill="#0A9EFD" points="128.5,662.9707,138.5,666.9707,128.5,670.9707,132.5,666.9707" style="stroke:#0A9EFD;stroke-width:1.0;"/><line style="stroke:#0A9EFD;stroke-width:2.0;" x1="37.5" x2="134.5" y1="666.9707" y2="666.9707"/><text fill="#0A9EFD" font-family="Arial" font-size="13" lengthAdjust="spacing" textLength="58" x="60" y="662.2158">Close app</text><line style="stroke:#0A9EFD;stroke-width:2.0;" x1="140.5" x2="182.5" y1="710.8682" y2="710.8682"/><line style="stroke:#0A9EFD;stroke-width:2.0;" x1="182.5" x2="182.5" y1="710.8682" y2="723.8682"/><line style="stroke:#0A9EFD;stroke-width:2.0;" x1="141.5" x2="182.5" y1="723.8682" y2="723.8682"/><polygon fill="#0A9EFD" points="151.5,719.8682,141.5,723.8682,151.5,727.8682,147.5,723.8682" style="stroke:#0A9EFD;stroke-width:1.0;"/><text fill="#0A9EFD" font-family="Arial" font-size="13" lengthAdjust="spacing" textLength="147" x="156.5" y="691.1646">Clean up local resources:</text><text fill="#0A9EFD" font-family="Arial" font-size="13" lengthAdjust="spacing" textLength="165" x="151.5" y="706.1133">AgoraRtcEngineKit.destroy()</text><!--SRC=[VLFRQjmm47tNLqpzj0kDFs3fXU04uYQqYzqK0eKoAqztrMeb8utTzkyhoKwmlAKl1ibphXw_KaRgeIF0etNupVzKfbJ3MGk1ags3uj6JAm0zFBQD40Vx6uedEpZ0lY-4wD6nagf7mr1yKHrPQ6_kq_prVYy4cGu2PWPUHuqrghsvQZv_d27r0X84uUfTvDd1fvvCb1JXz79P6yKAcO1F12_YGEQe3Es-6fX2tQOpl8Katx2SBkuLb_w4Zhhfd56tn4EVUBMLg65Cx9uTuNdDN9B1WwPaOBCLHsS3zCvwpXAq7483Gc3JgnJpxMi83nX2tnvyR85jSY1FQ0pfABjKzSILLcIuiPesvS5Px2Hw9hVDeoJXHOmB_pw6VOW3KuOqLQ4PqI-ewXryiChynzBxyaSOgAPt6R0XTef6cXjKvWZVdJqdBXiUBiNUmMN4eM_eR9d-wQo6Dyyf6vAaWW26tb9v7JBESZxkbCWNwe5md1Od_o1rBCpswxuoL-7ztj6ewDScxsT1EXUqJgJZnDpGnYYzpLrLsdgwsFCge0mCpwOS-V03IlA9_NAfEmgnxP_WxIy0]--></g></svg>