<?xml version="1.0" encoding="us-ascii" standalone="no"?><svg xmlns="http://www.w3.org/2000/svg" xmlns:xlink="http://www.w3.org/1999/xlink" contentStyleType="text/css" height="758px" preserveAspectRatio="none" style="width:494px;height:758px;" version="1.1" viewBox="0 0 494 758" width="494px" zoomAndPan="magnify"><defs/><g><rect fill="none" height="756.1719" style="stroke:#0A9EFD;stroke-width:1.0;" width="492" x="0" y="0"/><rect fill="#999999" fill-opacity="0.33333" height="746.1719" style="stroke:#0A9EFD;stroke-width:0.5;" width="90" x="98" y="6"/><text fill="#0A9EFD" font-family="sans-serif" font-size="13" font-weight="bold" lengthAdjust="spacing" textLength="62" x="112" y="18.5684">Your app</text><rect fill="#999999" fill-opacity="0.33333" height="746.1719" style="stroke:#0A9EFD;stroke-width:0.5;" width="80" x="402" y="6"/><text fill="#0A9EFD" font-family="sans-serif" font-size="13" font-weight="bold" lengthAdjust="spacing" textLength="41" x="421.5" y="18.5684">Agora</text><rect fill="#0A9EFD" fill-opacity="0.06667" height="204.5898" style="stroke:#0A9EFD;stroke-width:2.0;" width="478" x="10" y="287.791"/><line style="stroke:#0A9EFD;stroke-width:0.5;stroke-dasharray:5.0,5.0;" x1="38" x2="38" y1="86.0986" y2="668.0732"/><line style="stroke:#0A9EFD;stroke-width:0.5;stroke-dasharray:5.0,5.0;" x1="143" x2="143" y1="86.0986" y2="668.0732"/><line style="stroke:#0A9EFD;stroke-width:0.5;stroke-dasharray:5.0,5.0;" x1="442" x2="442" y1="86.0986" y2="668.0732"/><text fill="#0A9EFD" font-family="Arial" font-size="14" lengthAdjust="spacing" textLength="30" x="20" y="83.1318">User</text><ellipse cx="38" cy="16" fill="none" rx="8" ry="8" style="stroke:#0A9EFD;stroke-width:3.0;"/><path d="M38,24 L38,51 M25,32 L51,32 M38,51 L25,66 M38,51 L51,66 " fill="none" style="stroke:#0A9EFD;stroke-width:3.0;"/><text fill="#0A9EFD" font-family="Arial" font-size="14" lengthAdjust="spacing" textLength="30" x="20" y="680.2051">User</text><ellipse cx="38" cy="694.1719" fill="none" rx="8" ry="8" style="stroke:#0A9EFD;stroke-width:3.0;"/><path d="M38,702.1719 L38,729.1719 M25,710.1719 L51,710.1719 M38,729.1719 L25,744.1719 M38,729.1719 L51,744.1719 " fill="none" style="stroke:#0A9EFD;stroke-width:3.0;"/><rect fill="none" height="30.0986" rx="2.5" ry="2.5" style="stroke:#0A9EFD;stroke-width:2.0;" width="82" x="102" y="55"/><text fill="#0A9EFD" font-family="Arial" font-size="14" lengthAdjust="spacing" textLength="68" x="109" y="75.1318">Video SDK</text><rect fill="none" height="30.0986" rx="2.5" ry="2.5" style="stroke:#0A9EFD;stroke-width:2.0;" width="82" x="102" y="667.0732"/><text fill="#0A9EFD" font-family="Arial" font-size="14" lengthAdjust="spacing" textLength="68" x="109" y="687.2051">Video SDK</text><rect fill="none" height="30.0986" rx="2.5" ry="2.5" style="stroke:#0A9EFD;stroke-width:2.0;" width="72" x="406" y="55"/><text fill="#0A9EFD" font-family="Arial" font-size="14" lengthAdjust="spacing" textLength="58" x="413" y="75.1318">SDRTN&#174;</text><rect fill="none" height="30.0986" rx="2.5" ry="2.5" style="stroke:#0A9EFD;stroke-width:2.0;" width="72" x="406" y="667.0732"/><text fill="#0A9EFD" font-family="Arial" font-size="14" lengthAdjust="spacing" textLength="58" x="413" y="687.2051">SDRTN&#174;</text><polygon fill="#0A9EFD" points="131,113.0474,141,117.0474,131,121.0474,135,117.0474" style="stroke:#0A9EFD;stroke-width:1.0;"/><line style="stroke:#0A9EFD;stroke-width:2.0;" x1="38" x2="137" y1="117.0474" y2="117.0474"/><text fill="#0A9EFD" font-family="Arial" font-size="13" lengthAdjust="spacing" textLength="58" x="61.5" y="112.2925">Open App</text><line style="stroke:#0A9EFD;stroke-width:2.0;" x1="143" x2="185" y1="160.9448" y2="160.9448"/><line style="stroke:#0A9EFD;stroke-width:2.0;" x1="185" x2="185" y1="160.9448" y2="173.9448"/><line style="stroke:#0A9EFD;stroke-width:2.0;" x1="144" x2="185" y1="173.9448" y2="173.9448"/><polygon fill="#0A9EFD" points="154,169.9448,144,173.9448,154,177.9448,150,173.9448" style="stroke:#0A9EFD;stroke-width:1.0;"/><text fill="#0A9EFD" font-family="Arial" font-size="13" lengthAdjust="spacing" textLength="213" x="150" y="141.2412">Initiate the Agora Video SDK engine:</text><text fill="#0A9EFD" font-family="Arial" font-size="13" lengthAdjust="spacing" textLength="188" x="166.5" y="156.1899">agoraEngine = RtcEngine.create</text><line style="stroke:#0A9EFD;stroke-width:2.0;" x1="143" x2="185" y1="217.8423" y2="217.8423"/><line style="stroke:#0A9EFD;stroke-width:2.0;" x1="185" x2="185" y1="217.8423" y2="230.8423"/><line style="stroke:#0A9EFD;stroke-width:2.0;" x1="144" x2="185" y1="230.8423" y2="230.8423"/><polygon fill="#0A9EFD" points="154,226.8423,144,230.8423,154,234.8423,150,230.8423" style="stroke:#0A9EFD;stroke-width:1.0;"/><text fill="#0A9EFD" font-family="Arial" font-size="13" lengthAdjust="spacing" textLength="170" x="150" y="198.1387">Setup the local video stream:</text><text fill="#0A9EFD" font-family="Arial" font-size="13" lengthAdjust="spacing" textLength="155" x="161.5" y="213.0874">agoraEngine.enableVideo()</text><line style="stroke:#0A9EFD;stroke-width:2.0;" x1="143" x2="185" y1="259.791" y2="259.791"/><line style="stroke:#0A9EFD;stroke-width:2.0;" x1="185" x2="185" y1="259.791" y2="272.791"/><line style="stroke:#0A9EFD;stroke-width:2.0;" x1="144" x2="185" y1="272.791" y2="272.791"/><polygon fill="#0A9EFD" points="154,268.791,144,272.791,154,276.791,150,272.791" style="stroke:#0A9EFD;stroke-width:1.0;"/><text fill="#0A9EFD" font-family="Arial" font-size="13" lengthAdjust="spacing" textLength="257" x="150" y="255.0361">agoraEngine.setupLocalVideo(VideoCanvas)</text><path d="M10,287.791 L82,287.791 L82,294.7397 L72,304.7397 L10,304.7397 L10,287.791 " fill="#EEEEEE" style="stroke:#0A9EFD;stroke-width:1.5;"/><rect fill="none" height="204.5898" style="stroke:#0A9EFD;stroke-width:2.0;" width="478" x="10" y="287.791"/><text fill="#000000" font-family="Arial" font-size="13" lengthAdjust="spacing" textLength="27" x="25" y="300.9849">User</text><polygon fill="#0A9EFD" points="131,321.6885,141,325.6885,131,329.6885,135,325.6885" style="stroke:#0A9EFD;stroke-width:1.0;"/><line style="stroke:#0A9EFD;stroke-width:2.0;" x1="38" x2="137" y1="325.6885" y2="325.6885"/><text fill="#0A9EFD" font-family="Arial" font-size="13" lengthAdjust="spacing" textLength="59" x="61" y="320.9336">Join a call</text><line style="stroke:#0A9EFD;stroke-width:2.0;" x1="143" x2="185" y1="354.6372" y2="354.6372"/><line style="stroke:#0A9EFD;stroke-width:2.0;" x1="185" x2="185" y1="354.6372" y2="367.6372"/><line style="stroke:#0A9EFD;stroke-width:2.0;" x1="144" x2="185" y1="367.6372" y2="367.6372"/><polygon fill="#0A9EFD" points="154,363.6372,144,367.6372,154,371.6372,150,367.6372" style="stroke:#0A9EFD;stroke-width:1.0;"/><text fill="#0A9EFD" font-family="Arial" font-size="13" lengthAdjust="spacing" textLength="257" x="150" y="349.8823">Retrieve authentication token to join channel</text><polygon fill="#0A9EFD" points="430,407.5347,440,411.5347,430,415.5347,434,411.5347" style="stroke:#0A9EFD;stroke-width:1.0;"/><line style="stroke:#0A9EFD;stroke-width:2.0;" x1="143" x2="436" y1="411.5347" y2="411.5347"/><text fill="#0A9EFD" font-family="Arial" font-size="13" lengthAdjust="spacing" textLength="99" x="243" y="391.8311">Join the channel:</text><text fill="#0A9EFD" font-family="Arial" font-size="13" lengthAdjust="spacing" textLength="151" x="219" y="406.7798">agoraEngine.joinChannel()</text><polygon fill="#0A9EFD" points="430,451.4321,440,455.4321,430,459.4321,434,455.4321" style="stroke:#0A9EFD;stroke-width:1.0;"/><line style="stroke:#0A9EFD;stroke-width:2.0;" x1="143" x2="436" y1="455.4321" y2="455.4321"/><text fill="#0A9EFD" font-family="Arial" font-size="13" lengthAdjust="spacing" textLength="227" x="177" y="435.7285">Retrieve streaming from the other user:</text><text fill="#0A9EFD" font-family="Arial" font-size="13" lengthAdjust="spacing" textLength="271" x="159" y="450.6772">agoraEngine.setupRemoteVideo(VideoCanvas)</text><polygon fill="#0A9EFD" points="154,480.3809,144,484.3809,154,488.3809,150,484.3809" style="stroke:#0A9EFD;stroke-width:1.0;"/><polygon fill="#0A9EFD" points="430,480.3809,440,484.3809,430,488.3809,434,484.3809" style="stroke:#0A9EFD;stroke-width:1.0;"/><line style="stroke:#0A9EFD;stroke-width:2.0;" x1="148" x2="436" y1="484.3809" y2="484.3809"/><text fill="#0A9EFD" font-family="Arial" font-size="13" lengthAdjust="spacing" textLength="177" x="204" y="479.626">Receive and send data stream</text><polygon fill="#0A9EFD" points="131,516.3296,141,520.3296,131,524.3296,135,520.3296" style="stroke:#0A9EFD;stroke-width:1.0;"/><line style="stroke:#0A9EFD;stroke-width:2.0;" x1="38" x2="137" y1="520.3296" y2="520.3296"/><text fill="#0A9EFD" font-family="Arial" font-size="13" lengthAdjust="spacing" textLength="81" x="50" y="515.5747">Leave the call</text><polygon fill="#0A9EFD" points="430,560.2271,440,564.2271,430,568.2271,434,564.2271" style="stroke:#0A9EFD;stroke-width:1.0;"/><line style="stroke:#0A9EFD;stroke-width:2.0;" x1="143" x2="436" y1="564.2271" y2="564.2271"/><text fill="#0A9EFD" font-family="Arial" font-size="13" lengthAdjust="spacing" textLength="110" x="235.5" y="544.5234">Leave the channel:</text><text fill="#0A9EFD" font-family="Arial" font-size="13" lengthAdjust="spacing" textLength="162" x="213.5" y="559.4722">agoraEngine.leaveChannel()</text><polygon fill="#0A9EFD" points="131,589.1758,141,593.1758,131,597.1758,135,593.1758" style="stroke:#0A9EFD;stroke-width:1.0;"/><line style="stroke:#0A9EFD;stroke-width:2.0;" x1="38" x2="137" y1="593.1758" y2="593.1758"/><text fill="#0A9EFD" font-family="Arial" font-size="13" lengthAdjust="spacing" textLength="58" x="61.5" y="588.4209">Close app</text><line style="stroke:#0A9EFD;stroke-width:2.0;" x1="143" x2="185" y1="637.0732" y2="637.0732"/><line style="stroke:#0A9EFD;stroke-width:2.0;" x1="185" x2="185" y1="637.0732" y2="650.0732"/><line style="stroke:#0A9EFD;stroke-width:2.0;" x1="144" x2="185" y1="650.0732" y2="650.0732"/><polygon fill="#0A9EFD" points="154,646.0732,144,650.0732,154,654.0732,150,650.0732" style="stroke:#0A9EFD;stroke-width:1.0;"/><text fill="#0A9EFD" font-family="Arial" font-size="13" lengthAdjust="spacing" textLength="147" x="150" y="617.3696">Clean up local resources:</text><text fill="#0A9EFD" font-family="Arial" font-size="13" lengthAdjust="spacing" textLength="127" x="166" y="632.3184">agoraEngine.destroy()</text><!--SRC=[PLBDJiCm3BxdAKnFS5YvJu0qRHmA2507I4X8oAHc2-kSAaadU2aUWYV3IGkqunArYRy_smU6TTrM17b-l3CLsOclDiUuiWwV_SPmRjfjhHJgO1razvvS1kZXVbagzMBV8NkqhGDicaof1bqmsZJ80RA7I0RBnMMgdztUAaLSWM1wu2ngxAEMY_Bk-kkpnnG3Z2Z2v2mIJU6c8OPPqoZv-xqis0I3WI2i2H8v_7e0ufLXci8JGyfsdlxX5CgWk-zSEnBqY799eMqINsqrrf0Q13v8vNQVAoV6bvgIvE7HY6POvIFbLMJhAjCvHzwXFr9gvQm8nYwFybvO8reW81c5t4pEqdL9mHdQ4M0h7bcwYC5OXc0t54zuYpYzHcQg_nmLFM7CrJzEzx94uBnx6cOf1ffT5moluDNPRIApSZXenVs_vgJO9MrjeF-vGHGAEFb9Mv8c4rF9w7sSVuK1Uxsu3-DTk2BSTJDFxHbw7JprCVTjrR7YB-Y8U5vRJt6pHxES2uH1XjHjX2Cl-w_99-eHTqLYsNv4scy0]--></g></svg>