<?xml version="1.0" encoding="us-ascii" standalone="no"?><svg xmlns="http://www.w3.org/2000/svg" xmlns:xlink="http://www.w3.org/1999/xlink" contentStyleType="text/css" height="833px" preserveAspectRatio="none" style="width:486px;height:833px;" version="1.1" viewBox="0 0 486 833" width="486px" zoomAndPan="magnify"><defs/><g><rect fill="none" height="831.9155" style="stroke:#0A9EFD;stroke-width:1.0;" width="484.5" x="0" y="0"/><rect fill="#999999" fill-opacity="0.33333" height="821.9155" style="stroke:#0A9EFD;stroke-width:0.5;" width="90" x="74.5" y="6"/><text fill="#0A9EFD" font-family="sans-serif" font-size="13" font-weight="bold" lengthAdjust="spacing" textLength="57" x="91" y="19.4951">Your app</text><rect fill="#999999" fill-opacity="0.33333" height="821.9155" style="stroke:#0A9EFD;stroke-width:0.5;" width="74" x="400.5" y="6"/><text fill="#0A9EFD" font-family="sans-serif" font-size="13" font-weight="bold" lengthAdjust="spacing" textLength="38" x="418.5" y="19.4951">Agora</text><rect fill="#0A9EFD" fill-opacity="0.06667" height="393.1797" style="stroke:#0A9EFD;stroke-width:2.0;" width="470.5" x="10" y="260.791"/><line style="stroke:#0A9EFD;stroke-width:0.5;stroke-dasharray:5.0,5.0;" x1="37" x2="37" y1="86.0986" y2="743.8169"/><line style="stroke:#0A9EFD;stroke-width:0.5;stroke-dasharray:5.0,5.0;" x1="119.5" x2="119.5" y1="86.0986" y2="743.8169"/><line style="stroke:#0A9EFD;stroke-width:0.5;stroke-dasharray:5.0,5.0;" x1="437.5" x2="437.5" y1="86.0986" y2="743.8169"/><text fill="#0A9EFD" font-family="Arial" font-size="14" lengthAdjust="spacing" textLength="29" x="20" y="83.1318">User</text><ellipse cx="37.5" cy="16" fill="none" rx="8" ry="8" style="stroke:#0A9EFD;stroke-width:3.0;"/><path d="M37.5,24 L37.5,51 M24.5,32 L50.5,32 M37.5,51 L24.5,66 M37.5,51 L50.5,66 " fill="none" style="stroke:#0A9EFD;stroke-width:3.0;"/><text fill="#0A9EFD" font-family="Arial" font-size="14" lengthAdjust="spacing" textLength="29" x="20" y="755.9487">User</text><ellipse cx="37.5" cy="769.9155" fill="none" rx="8" ry="8" style="stroke:#0A9EFD;stroke-width:3.0;"/><path d="M37.5,777.9155 L37.5,804.9155 M24.5,785.9155 L50.5,785.9155 M37.5,804.9155 L24.5,819.9155 M37.5,804.9155 L50.5,819.9155 " fill="none" style="stroke:#0A9EFD;stroke-width:3.0;"/><rect fill="none" height="30.0986" rx="2.5" ry="2.5" style="stroke:#0A9EFD;stroke-width:2.0;" width="82" x="78.5" y="55"/><text fill="#0A9EFD" font-family="Arial" font-size="14" lengthAdjust="spacing" textLength="68" x="85.5" y="75.1318">Video SDK</text><rect fill="none" height="30.0986" rx="2.5" ry="2.5" style="stroke:#0A9EFD;stroke-width:2.0;" width="82" x="78.5" y="742.8169"/><text fill="#0A9EFD" font-family="Arial" font-size="14" lengthAdjust="spacing" textLength="68" x="85.5" y="762.9487">Video SDK</text><rect fill="none" height="30.0986" rx="2.5" ry="2.5" style="stroke:#0A9EFD;stroke-width:2.0;" width="66" x="404.5" y="55"/><text fill="#0A9EFD" font-family="Arial" font-size="14" lengthAdjust="spacing" textLength="52" x="411.5" y="75.1318">SD-RTN</text><rect fill="none" height="30.0986" rx="2.5" ry="2.5" style="stroke:#0A9EFD;stroke-width:2.0;" width="66" x="404.5" y="742.8169"/><text fill="#0A9EFD" font-family="Arial" font-size="14" lengthAdjust="spacing" textLength="52" x="411.5" y="762.9487">SD-RTN</text><polygon fill="#0A9EFD" points="107.5,113.0474,117.5,117.0474,107.5,121.0474,111.5,117.0474" style="stroke:#0A9EFD;stroke-width:1.0;"/><line style="stroke:#0A9EFD;stroke-width:2.0;" x1="37.5" x2="113.5" y1="117.0474" y2="117.0474"/><text fill="#0A9EFD" font-family="Arial" font-size="13" lengthAdjust="spacing" textLength="58" x="49.5" y="112.2925">Open App</text><line style="stroke:#0A9EFD;stroke-width:2.0;" x1="119.5" x2="161.5" y1="160.9448" y2="160.9448"/><line style="stroke:#0A9EFD;stroke-width:2.0;" x1="161.5" x2="161.5" y1="160.9448" y2="173.9448"/><line style="stroke:#0A9EFD;stroke-width:2.0;" x1="120.5" x2="161.5" y1="173.9448" y2="173.9448"/><polygon fill="#0A9EFD" points="130.5,169.9448,120.5,173.9448,130.5,177.9448,126.5,173.9448" style="stroke:#0A9EFD;stroke-width:1.0;"/><text fill="#0A9EFD" font-family="Arial" font-size="13" lengthAdjust="spacing" textLength="174" x="155.5" y="141.2412">Initiate the Video SDK engine:</text><text fill="#0A9EFD" font-family="Arial" font-size="13" lengthAdjust="spacing" textLength="220" x="138.5" y="156.1899">agoraEngine = AgoraRTC.createClient</text><line style="stroke:#0A9EFD;stroke-width:2.0;" x1="119.5" x2="161.5" y1="232.791" y2="232.791"/><line style="stroke:#0A9EFD;stroke-width:2.0;" x1="161.5" x2="161.5" y1="232.791" y2="245.791"/><line style="stroke:#0A9EFD;stroke-width:2.0;" x1="120.5" x2="161.5" y1="245.791" y2="245.791"/><polygon fill="#0A9EFD" points="130.5,241.791,120.5,245.791,130.5,249.791,126.5,245.791" style="stroke:#0A9EFD;stroke-width:1.0;"/><text fill="#0A9EFD" font-family="Arial" font-size="13" lengthAdjust="spacing" textLength="176" x="143.5" y="198.1387">Set the required event listners:</text><text fill="#0A9EFD" font-family="Arial" font-size="13" lengthAdjust="spacing" textLength="192" x="135.5" y="213.0874">agoraEngine.on("user-published")</text><text fill="#0A9EFD" font-family="Arial" font-size="13" lengthAdjust="spacing" textLength="206" x="130.5" y="228.0361">agoraEngine.on("user-unpublished")</text><path d="M10,260.791 L82,260.791 L82,267.7397 L72,277.7397 L10,277.7397 L10,260.791 " fill="#EEEEEE" style="stroke:#0A9EFD;stroke-width:1.5;"/><rect fill="none" height="393.1797" style="stroke:#0A9EFD;stroke-width:2.0;" width="470.5" x="10" y="260.791"/><text fill="#000000" font-family="Arial" font-size="13" lengthAdjust="spacing" textLength="27" x="25" y="273.9849">User</text><polygon fill="#0A9EFD" points="107.5,294.6885,117.5,298.6885,107.5,302.6885,111.5,298.6885" style="stroke:#0A9EFD;stroke-width:1.0;"/><line style="stroke:#0A9EFD;stroke-width:2.0;" x1="37.5" x2="113.5" y1="298.6885" y2="298.6885"/><text fill="#0A9EFD" font-family="Arial" font-size="13" lengthAdjust="spacing" textLength="52" x="52.5" y="293.9336">Start call</text><line style="stroke:#0A9EFD;stroke-width:2.0;" x1="119.5" x2="161.5" y1="327.6372" y2="327.6372"/><line style="stroke:#0A9EFD;stroke-width:2.0;" x1="161.5" x2="161.5" y1="327.6372" y2="340.6372"/><line style="stroke:#0A9EFD;stroke-width:2.0;" x1="120.5" x2="161.5" y1="340.6372" y2="340.6372"/><polygon fill="#0A9EFD" points="130.5,336.6372,120.5,340.6372,130.5,344.6372,126.5,340.6372" style="stroke:#0A9EFD;stroke-width:1.0;"/><text fill="#0A9EFD" font-family="Arial" font-size="13" lengthAdjust="spacing" textLength="255" x="126.5" y="322.8823">Retrieve authentication token to join channel</text><polygon fill="#0A9EFD" points="425.5,380.5347,435.5,384.5347,425.5,388.5347,429.5,384.5347" style="stroke:#0A9EFD;stroke-width:1.0;"/><line style="stroke:#0A9EFD;stroke-width:2.0;" x1="119.5" x2="431.5" y1="384.5347" y2="384.5347"/><text fill="#0A9EFD" font-family="Arial" font-size="13" lengthAdjust="spacing" textLength="87" x="235" y="364.8311">Join a channel:</text><text fill="#0A9EFD" font-family="Arial" font-size="13" lengthAdjust="spacing" textLength="96" x="232.5" y="379.7798">agoraEngine.join</text><polygon fill="#0A9EFD" points="130.5,409.4834,120.5,413.4834,130.5,417.4834,126.5,413.4834" style="stroke:#0A9EFD;stroke-width:1.0;"/><line style="stroke:#0A9EFD;stroke-width:2.0;" x1="124.5" x2="436.5" y1="413.4834" y2="413.4834"/><text fill="#0A9EFD" font-family="Arial" font-size="13" lengthAdjust="spacing" textLength="80" x="238.5" y="408.7285">Join accepted</text><line style="stroke:#0A9EFD;stroke-width:2.0;" x1="119.5" x2="161.5" y1="472.3296" y2="472.3296"/><line style="stroke:#0A9EFD;stroke-width:2.0;" x1="161.5" x2="161.5" y1="472.3296" y2="485.3296"/><line style="stroke:#0A9EFD;stroke-width:2.0;" x1="120.5" x2="161.5" y1="485.3296" y2="485.3296"/><polygon fill="#0A9EFD" points="130.5,481.3296,120.5,485.3296,130.5,489.3296,126.5,485.3296" style="stroke:#0A9EFD;stroke-width:1.0;"/><text fill="#0A9EFD" font-family="Arial" font-size="13" lengthAdjust="spacing" textLength="156" x="168" y="437.6772">Create local media tracks :</text><text fill="#0A9EFD" font-family="Arial" font-size="13" lengthAdjust="spacing" textLength="231" x="130.5" y="452.626">AgoraRTC.createMicrophoneAudioTrack</text><text fill="#0A9EFD" font-family="Arial" font-size="13" lengthAdjust="spacing" textLength="209" x="143.5" y="467.5747">AgoraRTC.createCameraVideoTrack</text><polygon fill="#0A9EFD" points="425.5,525.2271,435.5,529.2271,425.5,533.2271,429.5,529.2271" style="stroke:#0A9EFD;stroke-width:1.0;"/><line style="stroke:#0A9EFD;stroke-width:2.0;" x1="119.5" x2="431.5" y1="529.2271" y2="529.2271"/><text fill="#0A9EFD" font-family="Arial" font-size="13" lengthAdjust="spacing" textLength="230" x="163.5" y="509.5234">Push local media tracks to the channel:</text><text fill="#0A9EFD" font-family="Arial" font-size="13" lengthAdjust="spacing" textLength="117" x="222" y="524.4722">agoraEngine.publish</text><polygon fill="#0A9EFD" points="130.5,569.1245,120.5,573.1245,130.5,577.1245,126.5,573.1245" style="stroke:#0A9EFD;stroke-width:1.0;"/><line style="stroke:#0A9EFD;stroke-width:2.0;" x1="124.5" x2="436.5" y1="573.1245" y2="573.1245"/><text fill="#0A9EFD" font-family="Arial" font-size="13" lengthAdjust="spacing" textLength="224" x="164.5" y="553.4209">Retrieve streaming from the other user:</text><text fill="#0A9EFD" font-family="Arial" font-size="13" lengthAdjust="spacing" textLength="192" x="184.5" y="568.3696">agoraEngine.on("user-published")</text><polygon fill="#0A9EFD" points="130.5,613.022,120.5,617.022,130.5,621.022,126.5,617.022" style="stroke:#0A9EFD;stroke-width:1.0;"/><line style="stroke:#0A9EFD;stroke-width:2.0;" x1="124.5" x2="436.5" y1="617.022" y2="617.022"/><text fill="#0A9EFD" font-family="Arial" font-size="13" lengthAdjust="spacing" textLength="290" x="131.5" y="597.3184">Play remote media tracks: remoteVideoTrack.play</text><text fill="#0A9EFD" font-family="Arial" font-size="13" lengthAdjust="spacing" textLength="133" x="214" y="612.2671">remoteAudioTrack.play</text><polygon fill="#0A9EFD" points="130.5,641.9707,120.5,645.9707,130.5,649.9707,126.5,645.9707" style="stroke:#0A9EFD;stroke-width:1.0;"/><polygon fill="#0A9EFD" points="425.5,641.9707,435.5,645.9707,425.5,649.9707,429.5,645.9707" style="stroke:#0A9EFD;stroke-width:1.0;"/><line style="stroke:#0A9EFD;stroke-width:2.0;" x1="124.5" x2="431.5" y1="645.9707" y2="645.9707"/><text fill="#0A9EFD" font-family="Arial" font-size="13" lengthAdjust="spacing" textLength="182" x="187.5" y="641.2158">Receive and send data streams</text><polygon fill="#0A9EFD" points="107.5,677.9194,117.5,681.9194,107.5,685.9194,111.5,681.9194" style="stroke:#0A9EFD;stroke-width:1.0;"/><line style="stroke:#0A9EFD;stroke-width:2.0;" x1="37.5" x2="113.5" y1="681.9194" y2="681.9194"/><text fill="#0A9EFD" font-family="Arial" font-size="13" lengthAdjust="spacing" textLength="57" x="50" y="677.1646">Leave call</text><polygon fill="#0A9EFD" points="425.5,721.8169,435.5,725.8169,425.5,729.8169,429.5,725.8169" style="stroke:#0A9EFD;stroke-width:1.0;"/><line style="stroke:#0A9EFD;stroke-width:2.0;" x1="119.5" x2="431.5" y1="725.8169" y2="725.8169"/><text fill="#0A9EFD" font-family="Arial" font-size="13" lengthAdjust="spacing" textLength="104" x="226.5" y="706.1133">leave the channel:</text><text fill="#0A9EFD" font-family="Arial" font-size="13" lengthAdjust="spacing" textLength="105" x="228" y="721.062">agoraEngine.leave</text><!--SRC=[ZLDDZnCn3BtdLvWvmQ7z0IDOgUfoA9zLfuk4XBJoPamdDEE4J8BWt-Daf-rCOH6NIB6Vdv-VasU6jKqj0HvSmFlXQ7XfKc-LGXrTWEfke5013d3Nx9HwS3-X-knI0FI-KifZY4ORZnoX-cHQSj3SlYturNQh574BKZCMhdAFwwhcTh7RVnXBDfCIQGYBcynJmqTF32llbTpEmGsRQ30In8xWt1o83uQf_i80ZrEzBW5u1QN_RhzUwa1IjxQ6ECue6ug5BT3tP0ArG3y40jOCaIaCcNH2kNJyl4fYqCAd1y5qr5Olu2bCuWbAgKDmoKEsTpPf4yKSq6Xj5hQuAS4TnM142c0ITIpcOJIE8ReZvHE-ESEWEsGcUnbeKyERdC1Jwbf_BXFuPkmE9xpMv2ErCslMnJEmJhH1Jwr1Y07rSO3CUcNjUwE3yvrZMgNMk7q6mf-mDVOKiAokG6RIOPk6xc_zPDwyeoTc6asUZ3NnRuZIjpTyWA_1zON6oH4WRwY6_rZlZ7ThyPUybTw9CLE9zHYyJBRq6IhyZucBAoLHI5zUr6eoUTdo4uRy7LgCE4eVyl-OFPXtX88zFPYpUxQ4_-5J0IZr6m00]--></g></svg>