<?xml version="1.0" encoding="us-ascii" standalone="no"?><svg xmlns="http://www.w3.org/2000/svg" xmlns:xlink="http://www.w3.org/1999/xlink" contentStyleType="text/css" height="833px" preserveAspectRatio="none" style="width:492px;height:833px;" version="1.1" viewBox="0 0 492 833" width="492px" zoomAndPan="magnify"><defs/><g><rect fill="none" height="831.9155" style="stroke:#0A9EFD;stroke-width:1.0;" width="490" x="0" y="0"/><rect fill="#999999" fill-opacity="0.33333" height="821.9155" style="stroke:#0A9EFD;stroke-width:0.5;" width="90" x="76" y="6"/><text fill="#0A9EFD" font-family="sans-serif" font-size="13" font-weight="bold" lengthAdjust="spacing" textLength="62" x="90" y="18.5684">Your app</text><rect fill="#999999" fill-opacity="0.33333" height="821.9155" style="stroke:#0A9EFD;stroke-width:0.5;" width="80" x="400" y="6"/><text fill="#0A9EFD" font-family="sans-serif" font-size="13" font-weight="bold" lengthAdjust="spacing" textLength="41" x="419.5" y="18.5684">Agora</text><rect fill="#0A9EFD" fill-opacity="0.06667" height="393.1797" style="stroke:#0A9EFD;stroke-width:2.0;" width="476" x="10" y="260.791"/><line style="stroke:#0A9EFD;stroke-width:0.5;stroke-dasharray:5.0,5.0;" x1="38" x2="38" y1="86.0986" y2="743.8169"/><line style="stroke:#0A9EFD;stroke-width:0.5;stroke-dasharray:5.0,5.0;" x1="121" x2="121" y1="86.0986" y2="743.8169"/><line style="stroke:#0A9EFD;stroke-width:0.5;stroke-dasharray:5.0,5.0;" x1="440" x2="440" y1="86.0986" y2="743.8169"/><text fill="#0A9EFD" font-family="Arial" font-size="14" lengthAdjust="spacing" textLength="30" x="20" y="83.1318">User</text><ellipse cx="38" cy="16" fill="none" rx="8" ry="8" style="stroke:#0A9EFD;stroke-width:3.0;"/><path d="M38,24 L38,51 M25,32 L51,32 M38,51 L25,66 M38,51 L51,66 " fill="none" style="stroke:#0A9EFD;stroke-width:3.0;"/><text fill="#0A9EFD" font-family="Arial" font-size="14" lengthAdjust="spacing" textLength="30" x="20" y="755.9487">User</text><ellipse cx="38" cy="769.9155" fill="none" rx="8" ry="8" style="stroke:#0A9EFD;stroke-width:3.0;"/><path d="M38,777.9155 L38,804.9155 M25,785.9155 L51,785.9155 M38,804.9155 L25,819.9155 M38,804.9155 L51,819.9155 " fill="none" style="stroke:#0A9EFD;stroke-width:3.0;"/><rect fill="none" height="30.0986" rx="2.5" ry="2.5" style="stroke:#0A9EFD;stroke-width:2.0;" width="82" x="80" y="55"/><text fill="#0A9EFD" font-family="Arial" font-size="14" lengthAdjust="spacing" textLength="68" x="87" y="75.1318">Video SDK</text><rect fill="none" height="30.0986" rx="2.5" ry="2.5" style="stroke:#0A9EFD;stroke-width:2.0;" width="82" x="80" y="742.8169"/><text fill="#0A9EFD" font-family="Arial" font-size="14" lengthAdjust="spacing" textLength="68" x="87" y="762.9487">Video SDK</text><rect fill="none" height="30.0986" rx="2.5" ry="2.5" style="stroke:#0A9EFD;stroke-width:2.0;" width="72" x="404" y="55"/><text fill="#0A9EFD" font-family="Arial" font-size="14" lengthAdjust="spacing" textLength="58" x="411" y="75.1318">SDRTN&#174;</text><rect fill="none" height="30.0986" rx="2.5" ry="2.5" style="stroke:#0A9EFD;stroke-width:2.0;" width="72" x="404" y="742.8169"/><text fill="#0A9EFD" font-family="Arial" font-size="14" lengthAdjust="spacing" textLength="58" x="411" y="762.9487">SDRTN&#174;</text><polygon fill="#0A9EFD" points="109,113.0474,119,117.0474,109,121.0474,113,117.0474" style="stroke:#0A9EFD;stroke-width:1.0;"/><line style="stroke:#0A9EFD;stroke-width:2.0;" x1="38" x2="115" y1="117.0474" y2="117.0474"/><text fill="#0A9EFD" font-family="Arial" font-size="13" lengthAdjust="spacing" textLength="58" x="50.5" y="112.2925">Open App</text><line style="stroke:#0A9EFD;stroke-width:2.0;" x1="121" x2="163" y1="160.9448" y2="160.9448"/><line style="stroke:#0A9EFD;stroke-width:2.0;" x1="163" x2="163" y1="160.9448" y2="173.9448"/><line style="stroke:#0A9EFD;stroke-width:2.0;" x1="122" x2="163" y1="173.9448" y2="173.9448"/><polygon fill="#0A9EFD" points="132,169.9448,122,173.9448,132,177.9448,128,173.9448" style="stroke:#0A9EFD;stroke-width:1.0;"/><text fill="#0A9EFD" font-family="Arial" font-size="13" lengthAdjust="spacing" textLength="175" x="157" y="141.2412">Initiate the Video SDK engine:</text><text fill="#0A9EFD" font-family="Arial" font-size="13" lengthAdjust="spacing" textLength="221" x="140" y="156.1899">agoraEngine = AgoraRTC.createClient</text><line style="stroke:#0A9EFD;stroke-width:2.0;" x1="121" x2="163" y1="232.791" y2="232.791"/><line style="stroke:#0A9EFD;stroke-width:2.0;" x1="163" x2="163" y1="232.791" y2="245.791"/><line style="stroke:#0A9EFD;stroke-width:2.0;" x1="122" x2="163" y1="245.791" y2="245.791"/><polygon fill="#0A9EFD" points="132,241.791,122,245.791,132,249.791,128,245.791" style="stroke:#0A9EFD;stroke-width:1.0;"/><text fill="#0A9EFD" font-family="Arial" font-size="13" lengthAdjust="spacing" textLength="178" x="144" y="198.1387">Set the required event listners:</text><text fill="#0A9EFD" font-family="Arial" font-size="13" lengthAdjust="spacing" textLength="192" x="137" y="213.0874">agoraEngine.on("user-published")</text><text fill="#0A9EFD" font-family="Arial" font-size="13" lengthAdjust="spacing" textLength="206" x="132" y="228.0361">agoraEngine.on("user-unpublished")</text><path d="M10,260.791 L82,260.791 L82,267.7397 L72,277.7397 L10,277.7397 L10,260.791 " fill="#EEEEEE" style="stroke:#0A9EFD;stroke-width:1.5;"/><rect fill="none" height="393.1797" style="stroke:#0A9EFD;stroke-width:2.0;" width="476" x="10" y="260.791"/><text fill="#000000" font-family="Arial" font-size="13" lengthAdjust="spacing" textLength="27" x="25" y="273.9849">User</text><polygon fill="#0A9EFD" points="109,294.6885,119,298.6885,109,302.6885,113,298.6885" style="stroke:#0A9EFD;stroke-width:1.0;"/><line style="stroke:#0A9EFD;stroke-width:2.0;" x1="38" x2="115" y1="298.6885" y2="298.6885"/><text fill="#0A9EFD" font-family="Arial" font-size="13" lengthAdjust="spacing" textLength="52" x="53.5" y="293.9336">Start call</text><line style="stroke:#0A9EFD;stroke-width:2.0;" x1="121" x2="163" y1="327.6372" y2="327.6372"/><line style="stroke:#0A9EFD;stroke-width:2.0;" x1="163" x2="163" y1="327.6372" y2="340.6372"/><line style="stroke:#0A9EFD;stroke-width:2.0;" x1="122" x2="163" y1="340.6372" y2="340.6372"/><polygon fill="#0A9EFD" points="132,336.6372,122,340.6372,132,344.6372,128,340.6372" style="stroke:#0A9EFD;stroke-width:1.0;"/><text fill="#0A9EFD" font-family="Arial" font-size="13" lengthAdjust="spacing" textLength="257" x="128" y="322.8823">Retrieve authentication token to join channel</text><polygon fill="#0A9EFD" points="428,380.5347,438,384.5347,428,388.5347,432,384.5347" style="stroke:#0A9EFD;stroke-width:1.0;"/><line style="stroke:#0A9EFD;stroke-width:2.0;" x1="121" x2="434" y1="384.5347" y2="384.5347"/><text fill="#0A9EFD" font-family="Arial" font-size="13" lengthAdjust="spacing" textLength="88" x="236.5" y="364.8311">Join a channel:</text><text fill="#0A9EFD" font-family="Arial" font-size="13" lengthAdjust="spacing" textLength="96" x="234.5" y="379.7798">agoraEngine.join</text><polygon fill="#0A9EFD" points="132,409.4834,122,413.4834,132,417.4834,128,413.4834" style="stroke:#0A9EFD;stroke-width:1.0;"/><line style="stroke:#0A9EFD;stroke-width:2.0;" x1="126" x2="439" y1="413.4834" y2="413.4834"/><text fill="#0A9EFD" font-family="Arial" font-size="13" lengthAdjust="spacing" textLength="81" x="240" y="408.7285">Join accepted</text><line style="stroke:#0A9EFD;stroke-width:2.0;" x1="121" x2="163" y1="472.3296" y2="472.3296"/><line style="stroke:#0A9EFD;stroke-width:2.0;" x1="163" x2="163" y1="472.3296" y2="485.3296"/><line style="stroke:#0A9EFD;stroke-width:2.0;" x1="122" x2="163" y1="485.3296" y2="485.3296"/><polygon fill="#0A9EFD" points="132,481.3296,122,485.3296,132,489.3296,128,485.3296" style="stroke:#0A9EFD;stroke-width:1.0;"/><text fill="#0A9EFD" font-family="Arial" font-size="13" lengthAdjust="spacing" textLength="156" x="170.5" y="437.6772">Create local media tracks :</text><text fill="#0A9EFD" font-family="Arial" font-size="13" lengthAdjust="spacing" textLength="233" x="132" y="452.626">AgoraRTC.createMicrophoneAudioTrack</text><text fill="#0A9EFD" font-family="Arial" font-size="13" lengthAdjust="spacing" textLength="211" x="145" y="467.5747">AgoraRTC.createCameraVideoTrack</text><polygon fill="#0A9EFD" points="428,525.2271,438,529.2271,428,533.2271,432,529.2271" style="stroke:#0A9EFD;stroke-width:1.0;"/><line style="stroke:#0A9EFD;stroke-width:2.0;" x1="121" x2="434" y1="529.2271" y2="529.2271"/><text fill="#0A9EFD" font-family="Arial" font-size="13" lengthAdjust="spacing" textLength="230" x="165.5" y="509.5234">Push local media tracks to the channel:</text><text fill="#0A9EFD" font-family="Arial" font-size="13" lengthAdjust="spacing" textLength="117" x="224" y="524.4722">agoraEngine.publish</text><polygon fill="#0A9EFD" points="132,569.1245,122,573.1245,132,577.1245,128,573.1245" style="stroke:#0A9EFD;stroke-width:1.0;"/><line style="stroke:#0A9EFD;stroke-width:2.0;" x1="126" x2="439" y1="573.1245" y2="573.1245"/><text fill="#0A9EFD" font-family="Arial" font-size="13" lengthAdjust="spacing" textLength="227" x="165" y="553.4209">Retrieve streaming from the other user:</text><text fill="#0A9EFD" font-family="Arial" font-size="13" lengthAdjust="spacing" textLength="192" x="186.5" y="568.3696">agoraEngine.on("user-published")</text><polygon fill="#0A9EFD" points="132,613.022,122,617.022,132,621.022,128,617.022" style="stroke:#0A9EFD;stroke-width:1.0;"/><line style="stroke:#0A9EFD;stroke-width:2.0;" x1="126" x2="439" y1="617.022" y2="617.022"/><text fill="#0A9EFD" font-family="Arial" font-size="13" lengthAdjust="spacing" textLength="291" x="133" y="597.3184">Play remote media tracks: remoteVideoTrack.play</text><text fill="#0A9EFD" font-family="Arial" font-size="13" lengthAdjust="spacing" textLength="134" x="215.5" y="612.2671">remoteAudioTrack.play</text><polygon fill="#0A9EFD" points="132,641.9707,122,645.9707,132,649.9707,128,645.9707" style="stroke:#0A9EFD;stroke-width:1.0;"/><polygon fill="#0A9EFD" points="428,641.9707,438,645.9707,428,649.9707,432,645.9707" style="stroke:#0A9EFD;stroke-width:1.0;"/><line style="stroke:#0A9EFD;stroke-width:2.0;" x1="126" x2="434" y1="645.9707" y2="645.9707"/><text fill="#0A9EFD" font-family="Arial" font-size="13" lengthAdjust="spacing" textLength="184" x="188.5" y="641.2158">Receive and send data streams</text><polygon fill="#0A9EFD" points="109,677.9194,119,681.9194,109,685.9194,113,681.9194" style="stroke:#0A9EFD;stroke-width:1.0;"/><line style="stroke:#0A9EFD;stroke-width:2.0;" x1="38" x2="115" y1="681.9194" y2="681.9194"/><text fill="#0A9EFD" font-family="Arial" font-size="13" lengthAdjust="spacing" textLength="59" x="50" y="677.1646">Leave call</text><polygon fill="#0A9EFD" points="428,721.8169,438,725.8169,428,729.8169,432,725.8169" style="stroke:#0A9EFD;stroke-width:1.0;"/><line style="stroke:#0A9EFD;stroke-width:2.0;" x1="121" x2="434" y1="725.8169" y2="725.8169"/><text fill="#0A9EFD" font-family="Arial" font-size="13" lengthAdjust="spacing" textLength="106" x="227.5" y="706.1133">leave the channel:</text><text fill="#0A9EFD" font-family="Arial" font-size="13" lengthAdjust="spacing" textLength="107" x="229" y="721.062">agoraEngine.leave</text><!--SRC=[ZLFBZXCn4BpxAvevmI6pzn6i56KvX6UKoI8X8Q5UJvCnyTZ6ZnNy51_1bz7sJfAPm28kbjnTNLrTRJzHHkhK4TJrrRtgo2v2TxZ2lVNuEHoKgLKQj10ee_LGtGRo5M20stOhn9tz3jL7cpoWSvKG3drKKZaq4QeFcGpQczS5lzniX23J0TUCXSlSuxAglTdktltwETQi9pNS4HRNcQY1zuuCB9qJV3i5rqP5XP4WzWIdxa1chmmrdmm0bB5UbW2yW29WkrlLqXFNhRGY4sUKBSN2vkbRKfuwe7k6W5OX6l8XaqueQskULeaTMhXqnvYUkkePF8P9Pe8IOkzjSf3zdKtQHdO796gTXIskIt1BqIkM0fXOdM7tC2fh8De3vHE-McL0zcWCwVD0wmPUvGGUKvVwSnd3rsDtEEAb91UfcrcpAfw1jgmD1keKGlGe3m4owuMrRvNqrlNMq39rokuo4Fw4hN0WZsLr1JAJ3fiK-h_rutdpZXwPQJHvCjR4ln2vxw3C7hvuEnGQouU7lA46_cEzCzwDnX_yLWRBnambDcFmF5djCfJv7n9dLqgYa3u_gvMayhBv9uJy7JgCE4eF-N_C7imRGiOU7yp9FLt2__2f08Ju3G00]--></g></svg>