<?xml version="1.0" encoding="us-ascii" standalone="no"?><svg xmlns="http://www.w3.org/2000/svg" xmlns:xlink="http://www.w3.org/1999/xlink" contentStyleType="text/css" height="697px" preserveAspectRatio="none" style="width:435px;height:697px;" version="1.1" viewBox="0 0 435 697" width="435px" zoomAndPan="magnify"><defs/><g><rect fill="none" height="695.4282" style="stroke:#0A9EFD;stroke-width:1.0;" width="433.5" x="0" y="0"/><rect fill="#999999" fill-opacity="0.33333" height="685.4282" style="stroke:#0A9EFD;stroke-width:0.5;" width="90" x="74.5" y="6"/><text fill="#0A9EFD" font-family="sans-serif" font-size="13" font-weight="bold" lengthAdjust="spacing" textLength="57" x="91" y="19.4951">Your app</text><rect fill="#999999" fill-opacity="0.33333" height="685.4282" style="stroke:#0A9EFD;stroke-width:0.5;" width="74" x="349.5" y="6"/><text fill="#0A9EFD" font-family="sans-serif" font-size="13" font-weight="bold" lengthAdjust="spacing" textLength="38" x="367.5" y="19.4951">Agora</text><rect fill="#0A9EFD" fill-opacity="0.06667" height="216.6411" style="stroke:#0A9EFD;stroke-width:2.0;" width="419.5" x="10" y="215.9448"/><line style="stroke:#0A9EFD;stroke-width:0.5;stroke-dasharray:5.0,5.0;" x1="37" x2="37" y1="86.0986" y2="607.3296"/><line style="stroke:#0A9EFD;stroke-width:0.5;stroke-dasharray:5.0,5.0;" x1="119.5" x2="119.5" y1="86.0986" y2="607.3296"/><line style="stroke:#0A9EFD;stroke-width:0.5;stroke-dasharray:5.0,5.0;" x1="386.5" x2="386.5" y1="86.0986" y2="607.3296"/><text fill="#0A9EFD" font-family="Arial" font-size="14" lengthAdjust="spacing" textLength="29" x="20" y="83.1318">User</text><ellipse cx="37.5" cy="16" fill="none" rx="8" ry="8" style="stroke:#0A9EFD;stroke-width:3.0;"/><path d="M37.5,24 L37.5,51 M24.5,32 L50.5,32 M37.5,51 L24.5,66 M37.5,51 L50.5,66 " fill="none" style="stroke:#0A9EFD;stroke-width:3.0;"/><text fill="#0A9EFD" font-family="Arial" font-size="14" lengthAdjust="spacing" textLength="29" x="20" y="619.4614">User</text><ellipse cx="37.5" cy="633.4282" fill="none" rx="8" ry="8" style="stroke:#0A9EFD;stroke-width:3.0;"/><path d="M37.5,641.4282 L37.5,668.4282 M24.5,649.4282 L50.5,649.4282 M37.5,668.4282 L24.5,683.4282 M37.5,668.4282 L50.5,683.4282 " fill="none" style="stroke:#0A9EFD;stroke-width:3.0;"/><rect fill="none" height="30.0986" rx="2.5" ry="2.5" style="stroke:#0A9EFD;stroke-width:2.0;" width="82" x="78.5" y="55"/><text fill="#0A9EFD" font-family="Arial" font-size="14" lengthAdjust="spacing" textLength="68" x="85.5" y="75.1318">Video SDK</text><rect fill="none" height="30.0986" rx="2.5" ry="2.5" style="stroke:#0A9EFD;stroke-width:2.0;" width="82" x="78.5" y="606.3296"/><text fill="#0A9EFD" font-family="Arial" font-size="14" lengthAdjust="spacing" textLength="68" x="85.5" y="626.4614">Video SDK</text><rect fill="none" height="30.0986" rx="2.5" ry="2.5" style="stroke:#0A9EFD;stroke-width:2.0;" width="66" x="353.5" y="55"/><text fill="#0A9EFD" font-family="Arial" font-size="14" lengthAdjust="spacing" textLength="52" x="360.5" y="75.1318">SD-RTN</text><rect fill="none" height="30.0986" rx="2.5" ry="2.5" style="stroke:#0A9EFD;stroke-width:2.0;" width="66" x="353.5" y="606.3296"/><text fill="#0A9EFD" font-family="Arial" font-size="14" lengthAdjust="spacing" textLength="52" x="360.5" y="626.4614">SD-RTN</text><polygon fill="#0A9EFD" points="107.5,113.0474,117.5,117.0474,107.5,121.0474,111.5,117.0474" style="stroke:#0A9EFD;stroke-width:1.0;"/><line style="stroke:#0A9EFD;stroke-width:2.0;" x1="37.5" x2="113.5" y1="117.0474" y2="117.0474"/><text fill="#0A9EFD" font-family="Arial" font-size="13" lengthAdjust="spacing" textLength="56" x="50.5" y="112.2925">Open app</text><line style="stroke:#0A9EFD;stroke-width:2.0;" x1="119.5" x2="161.5" y1="145.9961" y2="145.9961"/><line style="stroke:#0A9EFD;stroke-width:2.0;" x1="161.5" x2="161.5" y1="145.9961" y2="158.9961"/><line style="stroke:#0A9EFD;stroke-width:2.0;" x1="120.5" x2="161.5" y1="158.9961" y2="158.9961"/><polygon fill="#0A9EFD" points="130.5,154.9961,120.5,158.9961,130.5,162.9961,126.5,158.9961" style="stroke:#0A9EFD;stroke-width:1.0;"/><text fill="#0A9EFD" font-family="Arial" font-size="13" lengthAdjust="spacing" textLength="174" x="126.5" y="141.2412">Initiate the Video SDK engine.</text><line style="stroke:#0A9EFD;stroke-width:2.0;" x1="119.5" x2="161.5" y1="187.9448" y2="187.9448"/><line style="stroke:#0A9EFD;stroke-width:2.0;" x1="161.5" x2="161.5" y1="187.9448" y2="200.9448"/><line style="stroke:#0A9EFD;stroke-width:2.0;" x1="120.5" x2="161.5" y1="200.9448" y2="200.9448"/><polygon fill="#0A9EFD" points="130.5,196.9448,120.5,200.9448,130.5,204.9448,126.5,200.9448" style="stroke:#0A9EFD;stroke-width:1.0;"/><text fill="#0A9EFD" font-family="Arial" font-size="13" lengthAdjust="spacing" textLength="143" x="126.5" y="183.1899">Start video in the engine.</text><path d="M10,215.9448 L82,215.9448 L82,222.8936 L72,232.8936 L10,232.8936 L10,215.9448 " fill="#EEEEEE" style="stroke:#0A9EFD;stroke-width:1.5;"/><rect fill="none" height="216.6411" style="stroke:#0A9EFD;stroke-width:2.0;" width="419.5" x="10" y="215.9448"/><text fill="#000000" font-family="Arial" font-size="13" lengthAdjust="spacing" textLength="27" x="25" y="229.1387">Host</text><polygon fill="#0A9EFD" points="107.5,249.8423,117.5,253.8423,107.5,257.8423,111.5,253.8423" style="stroke:#0A9EFD;stroke-width:1.0;"/><line style="stroke:#0A9EFD;stroke-width:2.0;" x1="37.5" x2="113.5" y1="253.8423" y2="253.8423"/><text fill="#0A9EFD" font-family="Arial" font-size="13" lengthAdjust="spacing" textLength="52" x="52.5" y="249.0874">Start call</text><line style="stroke:#0A9EFD;stroke-width:2.0;" x1="119.5" x2="161.5" y1="282.791" y2="282.791"/><line style="stroke:#0A9EFD;stroke-width:2.0;" x1="161.5" x2="161.5" y1="282.791" y2="295.791"/><line style="stroke:#0A9EFD;stroke-width:2.0;" x1="120.5" x2="161.5" y1="295.791" y2="295.791"/><polygon fill="#0A9EFD" points="130.5,291.791,120.5,295.791,130.5,299.791,126.5,295.791" style="stroke:#0A9EFD;stroke-width:1.0;"/><text fill="#0A9EFD" font-family="Arial" font-size="13" lengthAdjust="spacing" textLength="253" x="126.5" y="278.0361">In a call, all users broadcast to the channel.</text><line style="stroke:#0A9EFD;stroke-width:2.0;" x1="119.5" x2="161.5" y1="324.7397" y2="324.7397"/><line style="stroke:#0A9EFD;stroke-width:2.0;" x1="161.5" x2="161.5" y1="324.7397" y2="337.7397"/><line style="stroke:#0A9EFD;stroke-width:2.0;" x1="120.5" x2="161.5" y1="337.7397" y2="337.7397"/><polygon fill="#0A9EFD" points="130.5,333.7397,120.5,337.7397,130.5,341.7397,126.5,337.7397" style="stroke:#0A9EFD;stroke-width:1.0;"/><text fill="#0A9EFD" font-family="Arial" font-size="13" lengthAdjust="spacing" textLength="96" x="126.5" y="319.9849">Start local video.</text><polygon fill="#0A9EFD" points="374.5,362.6885,384.5,366.6885,374.5,370.6885,378.5,366.6885" style="stroke:#0A9EFD;stroke-width:1.0;"/><line style="stroke:#0A9EFD;stroke-width:2.0;" x1="119.5" x2="380.5" y1="366.6885" y2="366.6885"/><text fill="#0A9EFD" font-family="Arial" font-size="13" lengthAdjust="spacing" textLength="98" x="204" y="361.9336">Join the channel.</text><polygon fill="#0A9EFD" points="374.5,391.6372,384.5,395.6372,374.5,399.6372,378.5,395.6372" style="stroke:#0A9EFD;stroke-width:1.0;"/><line style="stroke:#0A9EFD;stroke-width:2.0;" x1="119.5" x2="380.5" y1="395.6372" y2="395.6372"/><text fill="#0A9EFD" font-family="Arial" font-size="13" lengthAdjust="spacing" textLength="224" x="141" y="390.8823">Retrieve streaming from the other user.</text><polygon fill="#0A9EFD" points="130.5,420.5859,120.5,424.5859,130.5,428.5859,126.5,424.5859" style="stroke:#0A9EFD;stroke-width:1.0;"/><polygon fill="#0A9EFD" points="374.5,420.5859,384.5,424.5859,374.5,428.5859,378.5,424.5859" style="stroke:#0A9EFD;stroke-width:1.0;"/><line style="stroke:#0A9EFD;stroke-width:2.0;" x1="124.5" x2="380.5" y1="424.5859" y2="424.5859"/><text fill="#0A9EFD" font-family="Arial" font-size="13" lengthAdjust="spacing" textLength="182" x="162" y="419.8311">Receive and send data streams</text><polygon fill="#0A9EFD" points="107.5,456.5347,117.5,460.5347,107.5,464.5347,111.5,460.5347" style="stroke:#0A9EFD;stroke-width:1.0;"/><line style="stroke:#0A9EFD;stroke-width:2.0;" x1="37.5" x2="113.5" y1="460.5347" y2="460.5347"/><text fill="#0A9EFD" font-family="Arial" font-size="13" lengthAdjust="spacing" textLength="57" x="50" y="455.7798">Leave call</text><polygon fill="#0A9EFD" points="374.5,485.4834,384.5,489.4834,374.5,493.4834,378.5,489.4834" style="stroke:#0A9EFD;stroke-width:1.0;"/><line style="stroke:#0A9EFD;stroke-width:2.0;" x1="119.5" x2="380.5" y1="489.4834" y2="489.4834"/><text fill="#0A9EFD" font-family="Arial" font-size="13" lengthAdjust="spacing" textLength="95" x="205.5" y="484.7285">Stop local video.</text><polygon fill="#0A9EFD" points="374.5,514.4321,384.5,518.4321,374.5,522.4321,378.5,518.4321" style="stroke:#0A9EFD;stroke-width:1.0;"/><line style="stroke:#0A9EFD;stroke-width:2.0;" x1="119.5" x2="380.5" y1="518.4321" y2="518.4321"/><text fill="#0A9EFD" font-family="Arial" font-size="13" lengthAdjust="spacing" textLength="108" x="199" y="513.6772">Leave the channel.</text><polygon fill="#0A9EFD" points="107.5,543.3809,117.5,547.3809,107.5,551.3809,111.5,547.3809" style="stroke:#0A9EFD;stroke-width:1.0;"/><line style="stroke:#0A9EFD;stroke-width:2.0;" x1="37.5" x2="113.5" y1="547.3809" y2="547.3809"/><text fill="#0A9EFD" font-family="Arial" font-size="13" lengthAdjust="spacing" textLength="58" x="49.5" y="542.626">Close app</text><line style="stroke:#0A9EFD;stroke-width:2.0;" x1="119.5" x2="161.5" y1="576.3296" y2="576.3296"/><line style="stroke:#0A9EFD;stroke-width:2.0;" x1="161.5" x2="161.5" y1="576.3296" y2="589.3296"/><line style="stroke:#0A9EFD;stroke-width:2.0;" x1="120.5" x2="161.5" y1="589.3296" y2="589.3296"/><polygon fill="#0A9EFD" points="130.5,585.3296,120.5,589.3296,130.5,593.3296,126.5,589.3296" style="stroke:#0A9EFD;stroke-width:1.0;"/><text fill="#0A9EFD" font-family="Arial" font-size="13" lengthAdjust="spacing" textLength="147" x="126.5" y="571.5747">Clean up local resources.</text><!--SRC=[TPB1JiCm44Jl_eebPveFg11IrHu88AWIYiG9RPqbjN2zbkrKV3wsarPD2nTBiVVDJCQ-KKRglYN0ZXr- -czbIjNljH0e0pieDfvS0UXXqzH2RFa7YW_k7Q2rXH0MNL1IMJG1YdVL4aEpUihpY_LQ238jH6O45ydZacfMi_hjPKIgCoGQmkm-wSpXrP99bY9-dJOheuB2G11s12Tp8DCfG-Laj0dH4WvvHfaC7CSwnxs51_PXuZWG4hM-y0JCkxSG5-XZEnwsZh6Lw0C4pjfoXyQG_Yk3vaWFISwEgpayyXZi6ewdDGMdw43WWoFSAzF1b-Dz1ZWkBaT9J0LtHyUQ9Ad8OApKfrvR33Wg-5IqcBRyJ1Ydf_zSfU1i_yyzG9FW4z6bPazNTxVKX0RwewuZ7n-L95-ANm00]--></g></svg>