<?xml version="1.0" encoding="us-ascii" standalone="no"?><svg xmlns="http://www.w3.org/2000/svg" xmlns:xlink="http://www.w3.org/1999/xlink" contentStyleType="text/css" height="902px" preserveAspectRatio="none" style="width:431px;height:902px;" version="1.1" viewBox="0 0 431 902" width="431px" zoomAndPan="magnify"><defs/><g><rect fill="none" height="900.8643" style="stroke:#0A9EFD;stroke-width:1.0;" width="429.5" x="0" y="0"/><rect fill="#999999" fill-opacity="0.33333" height="890.8643" style="stroke:#0A9EFD;stroke-width:0.5;" width="90" x="85.5" y="6"/><text fill="#0A9EFD" font-family="sans-serif" font-size="13" font-weight="bold" lengthAdjust="spacing" textLength="57" x="102" y="19.4951">Your app</text><rect fill="#999999" fill-opacity="0.33333" height="890.8643" style="stroke:#0A9EFD;stroke-width:0.5;" width="74" x="345.5" y="6"/><text fill="#0A9EFD" font-family="sans-serif" font-size="13" font-weight="bold" lengthAdjust="spacing" textLength="38" x="363.5" y="19.4951">Agora</text><rect fill="#0A9EFD" fill-opacity="0.06667" height="235.4873" style="stroke:#0A9EFD;stroke-width:2.0;" width="415.5" x="10" y="287.791"/><line style="stroke:#0A9EFD;stroke-width:0.5;stroke-dasharray:5.0,5.0;" x1="37" x2="37" y1="86.0986" y2="812.7656"/><line style="stroke:#0A9EFD;stroke-width:0.5;stroke-dasharray:5.0,5.0;" x1="130.5" x2="130.5" y1="86.0986" y2="812.7656"/><line style="stroke:#0A9EFD;stroke-width:0.5;stroke-dasharray:5.0,5.0;" x1="382.5" x2="382.5" y1="86.0986" y2="812.7656"/><text fill="#0A9EFD" font-family="Arial" font-size="14" lengthAdjust="spacing" textLength="29" x="20" y="83.1318">User</text><ellipse cx="37.5" cy="16" fill="none" rx="8" ry="8" style="stroke:#0A9EFD;stroke-width:3.0;"/><path d="M37.5,24 L37.5,51 M24.5,32 L50.5,32 M37.5,51 L24.5,66 M37.5,51 L50.5,66 " fill="none" style="stroke:#0A9EFD;stroke-width:3.0;"/><text fill="#0A9EFD" font-family="Arial" font-size="14" lengthAdjust="spacing" textLength="29" x="20" y="824.8975">User</text><ellipse cx="37.5" cy="838.8643" fill="none" rx="8" ry="8" style="stroke:#0A9EFD;stroke-width:3.0;"/><path d="M37.5,846.8643 L37.5,873.8643 M24.5,854.8643 L50.5,854.8643 M37.5,873.8643 L24.5,888.8643 M37.5,873.8643 L50.5,888.8643 " fill="none" style="stroke:#0A9EFD;stroke-width:3.0;"/><rect fill="none" height="30.0986" rx="2.5" ry="2.5" style="stroke:#0A9EFD;stroke-width:2.0;" width="82" x="89.5" y="55"/><text fill="#0A9EFD" font-family="Arial" font-size="14" lengthAdjust="spacing" textLength="68" x="96.5" y="75.1318">Video SDK</text><rect fill="none" height="30.0986" rx="2.5" ry="2.5" style="stroke:#0A9EFD;stroke-width:2.0;" width="82" x="89.5" y="811.7656"/><text fill="#0A9EFD" font-family="Arial" font-size="14" lengthAdjust="spacing" textLength="68" x="96.5" y="831.8975">Video SDK</text><rect fill="none" height="30.0986" rx="2.5" ry="2.5" style="stroke:#0A9EFD;stroke-width:2.0;" width="66" x="349.5" y="55"/><text fill="#0A9EFD" font-family="Arial" font-size="14" lengthAdjust="spacing" textLength="52" x="356.5" y="75.1318">SD-RTN</text><rect fill="none" height="30.0986" rx="2.5" ry="2.5" style="stroke:#0A9EFD;stroke-width:2.0;" width="66" x="349.5" y="811.7656"/><text fill="#0A9EFD" font-family="Arial" font-size="14" lengthAdjust="spacing" textLength="52" x="356.5" y="831.8975">SD-RTN</text><polygon fill="#0A9EFD" points="118.5,113.0474,128.5,117.0474,118.5,121.0474,122.5,117.0474" style="stroke:#0A9EFD;stroke-width:1.0;"/><line style="stroke:#0A9EFD;stroke-width:2.0;" x1="37.5" x2="124.5" y1="117.0474" y2="117.0474"/><text fill="#0A9EFD" font-family="Arial" font-size="13" lengthAdjust="spacing" textLength="67" x="50.5" y="112.2925">Open game</text><line style="stroke:#0A9EFD;stroke-width:2.0;" x1="130.5" x2="172.5" y1="160.9448" y2="160.9448"/><line style="stroke:#0A9EFD;stroke-width:2.0;" x1="172.5" x2="172.5" y1="160.9448" y2="173.9448"/><line style="stroke:#0A9EFD;stroke-width:2.0;" x1="131.5" x2="172.5" y1="173.9448" y2="173.9448"/><polygon fill="#0A9EFD" points="141.5,169.9448,131.5,173.9448,141.5,177.9448,137.5,173.9448" style="stroke:#0A9EFD;stroke-width:1.0;"/><text fill="#0A9EFD" font-family="Arial" font-size="13" lengthAdjust="spacing" textLength="212" x="139.5" y="141.2412">Initiate the Agora Video SDK engine:</text><text fill="#0A9EFD" font-family="Arial" font-size="13" lengthAdjust="spacing" textLength="216" x="141.5" y="156.1899">agoraEngine=IRtcEngine.GetEngine()</text><line style="stroke:#0A9EFD;stroke-width:2.0;" x1="130.5" x2="172.5" y1="217.8423" y2="217.8423"/><line style="stroke:#0A9EFD;stroke-width:2.0;" x1="172.5" x2="172.5" y1="217.8423" y2="230.8423"/><line style="stroke:#0A9EFD;stroke-width:2.0;" x1="131.5" x2="172.5" y1="230.8423" y2="230.8423"/><polygon fill="#0A9EFD" points="141.5,226.8423,131.5,230.8423,141.5,234.8423,137.5,230.8423" style="stroke:#0A9EFD;stroke-width:1.0;"/><text fill="#0A9EFD" font-family="Arial" font-size="13" lengthAdjust="spacing" textLength="168" x="137.5" y="198.1387">Setup the local video stream:</text><text fill="#0A9EFD" font-family="Arial" font-size="13" lengthAdjust="spacing" textLength="157" x="145" y="213.0874">agoraEngine.EnableVideo()</text><line style="stroke:#0A9EFD;stroke-width:2.0;" x1="130.5" x2="172.5" y1="259.791" y2="259.791"/><line style="stroke:#0A9EFD;stroke-width:2.0;" x1="172.5" x2="172.5" y1="259.791" y2="272.791"/><line style="stroke:#0A9EFD;stroke-width:2.0;" x1="131.5" x2="172.5" y1="272.791" y2="272.791"/><polygon fill="#0A9EFD" points="141.5,268.791,131.5,272.791,141.5,276.791,137.5,272.791" style="stroke:#0A9EFD;stroke-width:1.0;"/><text fill="#0A9EFD" font-family="Arial" font-size="13" lengthAdjust="spacing" textLength="208" x="137.5" y="255.0361">agoraEngine.EnableVideoObserver()</text><path d="M10,287.791 L82,287.791 L82,294.7397 L72,304.7397 L10,304.7397 L10,287.791 " fill="#EEEEEE" style="stroke:#0A9EFD;stroke-width:1.5;"/><rect fill="none" height="235.4873" style="stroke:#0A9EFD;stroke-width:2.0;" width="415.5" x="10" y="287.791"/><text fill="#000000" font-family="Arial" font-size="13" lengthAdjust="spacing" textLength="27" x="25" y="300.9849">User</text><polygon fill="#0A9EFD" points="118.5,321.6885,128.5,325.6885,118.5,329.6885,122.5,325.6885" style="stroke:#0A9EFD;stroke-width:1.0;"/><line style="stroke:#0A9EFD;stroke-width:2.0;" x1="37.5" x2="124.5" y1="325.6885" y2="325.6885"/><text fill="#0A9EFD" font-family="Arial" font-size="13" lengthAdjust="spacing" textLength="52" x="58" y="320.9336">Start call</text><polygon fill="#0A9EFD" points="370.5,365.5859,380.5,369.5859,370.5,373.5859,374.5,369.5859" style="stroke:#0A9EFD;stroke-width:1.0;"/><line style="stroke:#0A9EFD;stroke-width:2.0;" x1="130.5" x2="376.5" y1="369.5859" y2="369.5859"/><text fill="#0A9EFD" font-family="Arial" font-size="13" lengthAdjust="spacing" textLength="98" x="205.5" y="349.8823">Join the channel:</text><text fill="#0A9EFD" font-family="Arial" font-size="13" lengthAdjust="spacing" textLength="193" x="162" y="364.8311">agoraEngine.JoinChannelByKey()</text><polygon fill="#0A9EFD" points="118.5,394.5347,128.5,398.5347,118.5,402.5347,122.5,398.5347" style="stroke:#0A9EFD;stroke-width:1.0;"/><line style="stroke:#0A9EFD;stroke-width:2.0;" x1="37.5" x2="124.5" y1="398.5347" y2="398.5347"/><text fill="#0A9EFD" font-family="Arial" font-size="13" lengthAdjust="spacing" textLength="47" x="60.5" y="393.7798">Join call</text><polygon fill="#0A9EFD" points="141.5,438.4321,131.5,442.4321,141.5,446.4321,137.5,442.4321" style="stroke:#0A9EFD;stroke-width:1.0;"/><line style="stroke:#0A9EFD;stroke-width:2.0;" x1="135.5" x2="381.5" y1="442.4321" y2="442.4321"/><text fill="#0A9EFD" font-family="Arial" font-size="13" lengthAdjust="spacing" textLength="187" x="161" y="422.7285">A callback to start remote video:</text><text fill="#0A9EFD" font-family="Arial" font-size="13" lengthAdjust="spacing" textLength="89" x="214" y="437.6772">OnUserJoined()</text><polygon fill="#0A9EFD" points="370.5,482.3296,380.5,486.3296,370.5,490.3296,374.5,486.3296" style="stroke:#0A9EFD;stroke-width:1.0;"/><line style="stroke:#0A9EFD;stroke-width:2.0;" x1="130.5" x2="376.5" y1="486.3296" y2="486.3296"/><text fill="#0A9EFD" font-family="Arial" font-size="13" lengthAdjust="spacing" textLength="224" x="142.5" y="466.626">Retrieve streaming from the other user:</text><text fill="#0A9EFD" font-family="Arial" font-size="13" lengthAdjust="spacing" textLength="168" x="174.5" y="481.5747">RemoteView.SetForUser(uid)</text><polygon fill="#0A9EFD" points="141.5,511.2783,131.5,515.2783,141.5,519.2783,137.5,515.2783" style="stroke:#0A9EFD;stroke-width:1.0;"/><polygon fill="#0A9EFD" points="370.5,511.2783,380.5,515.2783,370.5,519.2783,374.5,515.2783" style="stroke:#0A9EFD;stroke-width:1.0;"/><line style="stroke:#0A9EFD;stroke-width:2.0;" x1="135.5" x2="376.5" y1="515.2783" y2="515.2783"/><text fill="#0A9EFD" font-family="Arial" font-size="13" lengthAdjust="spacing" textLength="175" x="169" y="510.5234">Receive and send data stream</text><polygon fill="#0A9EFD" points="118.5,547.2271,128.5,551.2271,118.5,555.2271,122.5,551.2271" style="stroke:#0A9EFD;stroke-width:1.0;"/><line style="stroke:#0A9EFD;stroke-width:2.0;" x1="37.5" x2="124.5" y1="551.2271" y2="551.2271"/><text fill="#0A9EFD" font-family="Arial" font-size="13" lengthAdjust="spacing" textLength="57" x="55.5" y="546.4722">Leave call</text><polygon fill="#0A9EFD" points="370.5,591.1245,380.5,595.1245,370.5,599.1245,374.5,595.1245" style="stroke:#0A9EFD;stroke-width:1.0;"/><line style="stroke:#0A9EFD;stroke-width:2.0;" x1="130.5" x2="376.5" y1="595.1245" y2="595.1245"/><text fill="#0A9EFD" font-family="Arial" font-size="13" lengthAdjust="spacing" textLength="108" x="202.5" y="575.4209">Leave the channel:</text><text fill="#0A9EFD" font-family="Arial" font-size="13" lengthAdjust="spacing" textLength="160" x="178.5" y="590.3696">agoraEngine.leaveChannel()</text><line style="stroke:#0A9EFD;stroke-width:2.0;" x1="130.5" x2="172.5" y1="639.022" y2="639.022"/><line style="stroke:#0A9EFD;stroke-width:2.0;" x1="172.5" x2="172.5" y1="639.022" y2="652.022"/><line style="stroke:#0A9EFD;stroke-width:2.0;" x1="131.5" x2="172.5" y1="652.022" y2="652.022"/><polygon fill="#0A9EFD" points="141.5,648.022,131.5,652.022,141.5,656.022,137.5,652.022" style="stroke:#0A9EFD;stroke-width:1.0;"/><text fill="#0A9EFD" font-family="Arial" font-size="13" lengthAdjust="spacing" textLength="139" x="150" y="619.3184">Stop local video stream:</text><text fill="#0A9EFD" font-family="Arial" font-size="13" lengthAdjust="spacing" textLength="160" x="141.5" y="634.2671">agoraEngine.DisableVideo()</text><line style="stroke:#0A9EFD;stroke-width:2.0;" x1="130.5" x2="172.5" y1="695.9194" y2="695.9194"/><line style="stroke:#0A9EFD;stroke-width:2.0;" x1="172.5" x2="172.5" y1="695.9194" y2="708.9194"/><line style="stroke:#0A9EFD;stroke-width:2.0;" x1="131.5" x2="172.5" y1="708.9194" y2="708.9194"/><polygon fill="#0A9EFD" points="141.5,704.9194,131.5,708.9194,141.5,712.9194,137.5,708.9194" style="stroke:#0A9EFD;stroke-width:1.0;"/><text fill="#0A9EFD" font-family="Arial" font-size="13" lengthAdjust="spacing" textLength="154" x="166" y="676.2158">Disable the video observer:</text><text fill="#0A9EFD" font-family="Arial" font-size="13" lengthAdjust="spacing" textLength="211" x="141.5" y="691.1646">agoraEngine.DisableVideoObserver()</text><polygon fill="#0A9EFD" points="118.5,733.8682,128.5,737.8682,118.5,741.8682,122.5,737.8682" style="stroke:#0A9EFD;stroke-width:1.0;"/><line style="stroke:#0A9EFD;stroke-width:2.0;" x1="37.5" x2="124.5" y1="737.8682" y2="737.8682"/><text fill="#0A9EFD" font-family="Arial" font-size="13" lengthAdjust="spacing" textLength="69" x="49.5" y="733.1133">Close game</text><line style="stroke:#0A9EFD;stroke-width:2.0;" x1="130.5" x2="172.5" y1="781.7656" y2="781.7656"/><line style="stroke:#0A9EFD;stroke-width:2.0;" x1="172.5" x2="172.5" y1="781.7656" y2="794.7656"/><line style="stroke:#0A9EFD;stroke-width:2.0;" x1="131.5" x2="172.5" y1="794.7656" y2="794.7656"/><polygon fill="#0A9EFD" points="141.5,790.7656,131.5,794.7656,141.5,798.7656,137.5,794.7656" style="stroke:#0A9EFD;stroke-width:1.0;"/><text fill="#0A9EFD" font-family="Arial" font-size="13" lengthAdjust="spacing" textLength="147" x="137.5" y="762.062">Clean up local resources:</text><text fill="#0A9EFD" font-family="Arial" font-size="13" lengthAdjust="spacing" textLength="127" x="151.5" y="777.0107">agoraEngine.destroy()</text><!--SRC=[ZPFHRjim34NVzHMSdzg7-WE2TK2Mj8FNOYdiji200GCZSwvGMJ8aELl_lfJiPhQ30dq9R9ayb_UA-QICr7rDW8rr-Di_AvEhljL2e0pMGVRWoMM07XwgKeYz_GVPJzixmAxBXEZG1ILLXoP0zgXgib1jRrBz-kvE238rSC_Ok8uQowvgUr7U_nXRYaaB2yB5byXPmQuZ0mss9FZrU5eO5HG6Wl14aE1md078DChG2dwPmTjLUhyioY27n_mRXU7fx7o6hIZqNM9gAr738J5zS8JjQexBhmpkDINL1UMTgjsU0psGushHECj2CU6PsIfmFi3A-Z-mMC5tgqoQIZwXCQINrl9Oi1c-VNsveHUMc69J_qWjZgVhTBH7-GmXcepIZbhBgIRVIMLduf0HGFNK9azLKd2A3ZJceqm3Vvnjqw2MVnpqt9eePS8-AlgRSyJNraNeMQ_gypJHvxUHIfAac8Yy2JwkGuq1HtvSZ_bgt19oxKbQm_4qhaLQEXQCSIqN8DZk0tU_LVwzony_9Vq1OSTxFxcrAMMw75EF6sqzdUx_XZqOwDzcTUJvdod9nq5d6ZMn0niNGhm2]--></g></svg>